<svg width="64" height="64" viewBox="0 0 64 64" fill="none" xmlns="http://www.w3.org/2000/svg">
<g clip-path="url(#clip0)">
<path d="M44 40C55.0457 40 64 31.0457 64 20C64 8.9543 55.0457 0 44 0C32.9543 0 24 8.9543 24 20C24 31.0457 32.9543 40 44 40Z" fill="#BFE9FF"/>
<path d="M32 56C45.2548 56 56 45.2548 56 32C56 18.7452 45.2548 8 32 8C18.7452 8 8 18.7452 8 32C8 45.2548 18.7452 56 32 56Z" fill="#56B4FC"/>
<path d="M32 8C30.5 8 29.1 8.1 27.7 8.4C25.4 11.7 24 15.7 24 20C24 31 33 40 44 40C48.3 40 52.3 38.6 55.6 36.3C55.8 34.9 56 33.5 56 32C56 18.7 45.3 8 32 8Z" fill="#1652F0"/>
<path d="M22.608 47.0291L16.9512 41.3723L-0.0192248 58.3427L5.63757 63.9995L22.608 47.0291Z" fill="#56B4FC"/>
<path d="M40 18L41.4 22.6L46 24L41.4 25.4L40 30L38.6 25.4L34 24L38.6 22.6L40 18Z" fill="white"/>
</g>
<defs>
<clipPath id="clip0">
<rect width="64" height="64" fill="white"/>
</clipPath>
</defs>
</svg>
