<svg width="1024" height="311" viewBox="0 0 1024 311" fill="none" xmlns="http://www.w3.org/2000/svg">
<g filter="url(#filter0_d)">
<rect x="350" y="38" width="326" height="235" rx="8" fill="white"/>
<rect x="349.5" y="37.5" width="327" height="236" rx="8.5" stroke="#DEE1E7"/>
</g>
<path d="M426.568 82.32H427.736V79.088H430.728V77.968H427.736V74.736H426.568V77.968H423.576V79.088H426.568V82.32ZM434.385 84H435.777V72.56H434.481L431.825 74.48V75.776L434.385 73.936V84ZM445.426 86.368H446.754C445.314 84.576 444.162 82.304 444.162 79.008C444.162 75.712 445.314 73.424 446.754 71.632H445.426C443.954 73.36 442.77 75.824 442.77 79.008C442.77 82.192 443.954 84.64 445.426 86.368ZM451.786 84.144C453.722 84.144 455.722 83.008 455.722 80.72C455.722 79.248 454.858 78.256 453.53 77.776C454.586 77.312 455.29 76.512 455.29 75.36C455.29 73.568 453.562 72.416 451.786 72.416C450.026 72.416 448.266 73.536 448.266 75.392C448.266 76.512 448.906 77.376 449.994 77.792C448.778 78.224 447.834 79.216 447.834 80.752C447.834 83.024 449.914 84.144 451.786 84.144ZM451.834 77.296C450.666 77.296 449.674 76.608 449.674 75.408C449.674 74.224 450.602 73.504 451.786 73.504C452.97 73.504 453.882 74.272 453.882 75.376C453.882 76.592 453.05 77.296 451.834 77.296ZM451.786 83.008C450.458 83.008 449.258 82.208 449.258 80.704C449.258 79.184 450.458 78.4 451.818 78.4C453.178 78.4 454.298 79.168 454.298 80.672C454.298 82.192 453.194 83.008 451.786 83.008ZM461.281 84.144C463.649 84.144 465.345 82.896 465.345 80.816C465.345 79.232 464.481 78.288 463.137 77.936C464.177 77.504 464.945 76.736 464.945 75.44C464.945 73.856 463.681 72.416 461.505 72.416C459.329 72.416 457.841 73.904 457.761 75.712H458.977C459.121 74.416 460.081 73.552 461.505 73.552C462.897 73.552 463.585 74.384 463.585 75.472C463.585 76.72 462.929 77.424 461.441 77.424H460.641V78.592H461.505C463.121 78.592 463.921 79.344 463.921 80.816C463.921 82.16 463.105 83.024 461.313 83.024C459.505 83.024 458.689 81.984 458.561 80.624H457.281C457.361 82.624 458.849 84.144 461.281 84.144ZM469.307 84H470.699V72.56H469.403L466.747 74.48V75.776L469.307 73.936V84ZM472.929 86.32H474.257C475.729 84.592 476.913 82.128 476.913 78.944C476.913 75.76 475.729 73.312 474.257 71.584H472.929C474.369 73.376 475.521 75.648 475.521 78.944C475.521 82.24 474.369 84.528 472.929 86.32ZM488.352 84H489.712V81.6H491.296V80.464H489.712V72.56H487.856L482.624 81.152V81.6H488.352V84ZM484.384 80.464L488.352 73.616V80.464H484.384ZM496.371 84.144C498.547 84.144 500.291 82.672 500.291 80.256C500.291 77.92 498.787 76.464 496.739 76.464C495.651 76.464 494.867 76.816 494.403 77.248V73.76H499.683V72.56H493.251V78.688H493.763C494.371 78 495.139 77.584 496.467 77.584C497.923 77.584 498.867 78.64 498.867 80.256C498.867 81.984 497.907 83.024 496.355 83.024C494.611 83.024 494.115 82.16 493.891 80.912H492.563C492.723 82.784 493.907 84.144 496.371 84.144ZM507.383 84H508.743V81.6H510.327V80.464H508.743V72.56H506.887L501.655 81.152V81.6H507.383V84ZM503.415 80.464L507.383 73.616V80.464H503.415ZM511.866 80.224H515.29V78.976H511.866V80.224ZM521.114 84.144C523.05 84.144 525.05 83.008 525.05 80.72C525.05 79.248 524.186 78.256 522.858 77.776C523.914 77.312 524.618 76.512 524.618 75.36C524.618 73.568 522.89 72.416 521.114 72.416C519.354 72.416 517.594 73.536 517.594 75.392C517.594 76.512 518.234 77.376 519.322 77.792C518.106 78.224 517.162 79.216 517.162 80.752C517.162 83.024 519.242 84.144 521.114 84.144ZM521.162 77.296C519.994 77.296 519.002 76.608 519.002 75.408C519.002 74.224 519.93 73.504 521.114 73.504C522.298 73.504 523.21 74.272 523.21 75.376C523.21 76.592 522.378 77.296 521.162 77.296ZM521.114 83.008C519.786 83.008 518.586 82.208 518.586 80.704C518.586 79.184 519.786 78.4 521.146 78.4C522.506 78.4 523.626 79.168 523.626 80.672C523.626 82.192 522.522 83.008 521.114 83.008ZM527.82 84H529.244L533.532 72.752V72.56H525.996V73.68H531.804L527.82 84ZM539.118 84H540.478V81.6H542.062V80.464H540.478V72.56H538.622L533.39 81.152V81.6H539.118V84ZM535.15 80.464L539.118 73.616V80.464H535.15ZM547.281 84.128C550.017 84.128 551.585 82.032 551.585 78.24V77.52C551.585 74.224 550.177 72.4 547.473 72.4C545.057 72.4 543.521 73.936 543.521 76.224C543.521 78.384 545.057 79.968 547.281 79.968C548.593 79.968 549.697 79.376 550.241 78.448C550.209 81.488 549.137 82.992 547.313 82.992C545.841 82.992 545.201 82.304 544.945 81.184H543.601C543.905 83.024 545.169 84.128 547.281 84.128ZM547.489 78.88C545.937 78.88 544.945 77.808 544.945 76.16C544.945 74.544 545.969 73.488 547.473 73.488C549.009 73.488 550.113 74.528 550.113 76.4C550.113 77.888 549.025 78.88 547.489 78.88Z" fill="#0A0B0D"/>
<g clip-path="url(#clip0)">
<path d="M391 63C382.173 63 375 70.1734 375 79.0001C375 87.8267 382.173 95.0001 391 95.0001C399.827 95.0001 407 87.8267 407 79.0001C407 70.1734 399.827 63 391 63ZM391 93.6668C382.907 93.6668 376.333 87.0934 376.333 79.0001C376.333 70.9067 382.907 64.3333 391 64.3333C399.093 64.3333 405.667 70.9067 405.667 79.0001C405.667 87.0934 399.093 93.6668 391 93.6668Z" fill="#1652F0"/>
<path d="M391.667 83.3869V72.3335H390.333V83.3869L387.467 80.5202L386.52 81.4669L390.52 85.4669C390.653 85.6002 390.827 85.6669 391 85.6669C391.173 85.6669 391.347 85.6002 391.467 85.4669L395.467 81.4669L394.52 80.5202L391.667 83.3869Z" fill="#1652F0"/>
</g>
<circle cx="391" cy="79" r="15.6667" fill="white" stroke="#F1F3F5" stroke-width="0.666667"/>
<path fill-rule="evenodd" clip-rule="evenodd" d="M393.75 75.75C393.75 77.2688 392.519 78.5 391 78.5C389.481 78.5 388.25 77.2688 388.25 75.75C388.25 74.2312 389.481 73 391 73C392.519 73 393.75 74.2312 393.75 75.75ZM392.98 79.01C394.21 79.07 395.29 79.87 395.68 81.05L397 85H385L386.31 81.05C386.7 79.87 387.78 79.07 389.01 79.01C389.013 79.0119 389.016 79.0144 389.02 79.0175C389.144 79.1121 389.983 79.75 391 79.75C392.05 79.75 392.91 79.07 392.98 79.01Z" fill="#1652F0"/>
<circle cx="391" cy="79" r="15.5" fill="white" stroke="#5B636E"/>
<path fill-rule="evenodd" clip-rule="evenodd" d="M393.75 75.75C393.75 77.2688 392.519 78.5 391 78.5C389.481 78.5 388.25 77.2688 388.25 75.75C388.25 74.2312 389.481 73 391 73C392.519 73 393.75 74.2312 393.75 75.75ZM392.98 79.01C394.21 79.07 395.29 79.87 395.68 81.05L397 85H385L386.31 81.05C386.7 79.87 387.78 79.07 389.01 79.01C389.013 79.0119 389.016 79.0144 389.02 79.0175C389.144 79.1121 389.983 79.75 391 79.75C392.05 79.75 392.91 79.07 392.98 79.01Z" fill="#5B636E"/>
<path d="M424.44 148H425.832V143.344H427.688C429.864 143.344 431.688 142.4 431.688 139.968V139.904C431.688 137.52 429.88 136.56 427.688 136.56H424.44V148ZM425.832 142.24V137.68H427.784C429.336 137.68 430.296 138.288 430.296 139.904V139.968C430.296 141.44 429.416 142.24 427.784 142.24H425.832ZM435.659 148.144C436.891 148.144 437.643 147.728 438.267 146.944V148H439.595V142.48C439.595 140.144 438.139 139.488 436.539 139.488C434.923 139.488 433.403 140.192 433.227 142.096H434.555C434.683 141.072 435.323 140.592 436.475 140.592C437.755 140.592 438.267 141.152 438.267 142.48V143.088H437.067C434.923 143.088 432.875 143.744 432.875 145.68C432.875 147.392 434.107 148.144 435.659 148.144ZM435.787 147.088C434.619 147.088 434.203 146.544 434.203 145.68C434.203 144.448 435.435 144.032 437.115 144.032H438.267V145.072C438.267 146.368 437.195 147.088 435.787 147.088ZM442.203 150.912H443.531V146.624C444.011 147.456 444.987 148.144 446.363 148.144C448.667 148.144 450.171 146.384 450.171 143.824V143.696C450.171 141.088 448.555 139.488 446.363 139.488C445.147 139.488 444.011 140.224 443.531 141.04V139.632H442.203V150.912ZM446.235 147.04C444.603 147.04 443.483 146.032 443.483 143.888V143.76C443.483 141.616 444.667 140.592 446.219 140.592C447.627 140.592 448.795 141.648 448.795 143.76V143.888C448.795 145.92 447.899 147.04 446.235 147.04ZM454.331 148.144C455.563 148.144 456.315 147.728 456.939 146.944V148H458.267V142.48C458.267 140.144 456.811 139.488 455.211 139.488C453.595 139.488 452.075 140.192 451.899 142.096H453.227C453.355 141.072 453.995 140.592 455.147 140.592C456.427 140.592 456.939 141.152 456.939 142.48V143.088H455.739C453.595 143.088 451.547 143.744 451.547 145.68C451.547 147.392 452.779 148.144 454.331 148.144ZM454.459 147.088C453.291 147.088 452.875 146.544 452.875 145.68C452.875 144.448 454.107 144.032 455.787 144.032H456.939V145.072C456.939 146.368 455.867 147.088 454.459 147.088ZM465.206 148H466.486V138.368L470.406 148H470.838L474.63 138.368V148H476.022V136.56H474.102L470.678 145.472L467.142 136.56H465.206V148ZM482.285 148.144C484.669 148.144 486.413 146.4 486.413 143.872V143.744C486.413 141.232 484.669 139.488 482.301 139.488C479.933 139.488 478.189 141.248 478.189 143.76V143.888C478.189 146.336 479.901 148.144 482.285 148.144ZM482.301 147.04C480.605 147.04 479.565 145.792 479.565 143.888V143.76C479.565 141.84 480.621 140.592 482.301 140.592C483.965 140.592 485.037 141.84 485.037 143.776V143.888C485.037 145.776 483.981 147.04 482.301 147.04ZM491.941 148.144C493.957 148.144 495.413 146.8 495.589 144.992H494.357C494.213 146.352 493.141 147.04 491.957 147.04C490.341 147.04 489.221 145.952 489.221 143.904V143.776C489.221 141.808 490.389 140.592 491.909 140.592C493.061 140.592 494.021 141.088 494.229 142.416H495.541C495.285 140.288 493.653 139.488 491.909 139.488C489.669 139.488 487.845 141.216 487.845 143.776V143.904C487.845 146.496 489.605 148.144 491.941 148.144ZM497.594 148H498.922V142.928C498.922 141.424 500.026 140.64 501.258 140.64C502.602 140.64 503.226 141.296 503.226 142.768V148H504.554V142.864C504.554 140.432 503.338 139.488 501.61 139.488C500.234 139.488 499.306 140.176 498.922 140.96V135.632H497.594V148ZM507.829 137.888C508.309 137.888 508.709 137.488 508.709 137.008C508.709 136.528 508.309 136.128 507.829 136.128C507.349 136.128 506.949 136.528 506.949 137.008C506.949 137.488 507.349 137.888 507.829 137.888ZM507.189 148H508.517V139.632H507.189V148Z" fill="#0A0B0D"/>
<path d="M425.899 165.635H426.848V163.009H429.279V162.099H426.848V159.473H425.899V162.099H423.468V163.009H425.899V165.635ZM432.25 167H433.381V157.705H432.328L430.17 159.265V160.318L432.25 158.823V167ZM441.221 168.924H442.3C441.13 167.468 440.194 165.622 440.194 162.944C440.194 160.266 441.13 158.407 442.3 156.951H441.221C440.025 158.355 439.063 160.357 439.063 162.944C439.063 165.531 440.025 167.52 441.221 168.924ZM447.331 167H448.436V165.05H449.723V164.127H448.436V157.705H446.928L442.677 164.686V165.05H447.331V167ZM444.107 164.127L447.331 158.563V164.127H444.107ZM452.575 167H453.706V157.705H452.653L450.495 159.265V160.318L452.575 158.823V167ZM458.912 167.117C460.68 167.117 462.097 165.921 462.097 163.958C462.097 162.06 460.875 160.877 459.211 160.877C458.327 160.877 457.69 161.163 457.313 161.514V158.68H461.603V157.705H456.377V162.684H456.793C457.287 162.125 457.911 161.787 458.99 161.787C460.173 161.787 460.94 162.645 460.94 163.958C460.94 165.362 460.16 166.207 458.899 166.207C457.482 166.207 457.079 165.505 456.897 164.491H455.818C455.948 166.012 456.91 167.117 458.912 167.117ZM463.149 168.885H464.228C465.424 167.481 466.386 165.479 466.386 162.892C466.386 160.305 465.424 158.316 464.228 156.912H463.149C464.319 158.368 465.255 160.214 465.255 162.892C465.255 165.57 464.319 167.429 463.149 168.885ZM474.64 167.117C476.603 167.117 477.851 165.869 477.851 164.01C477.851 162.307 476.655 160.968 474.809 160.968C473.73 160.968 472.859 161.475 472.417 162.229C472.469 159.772 473.457 158.511 474.861 158.511C475.901 158.511 476.369 158.979 476.577 159.837H477.656C477.409 158.342 476.382 157.588 474.939 157.588C472.807 157.588 471.299 159.33 471.299 162.671V162.892C471.299 165.219 472.105 167.117 474.64 167.117ZM474.64 166.233C473.392 166.233 472.495 165.427 472.495 163.906C472.495 162.697 473.379 161.852 474.627 161.852C475.888 161.852 476.694 162.723 476.694 164.062C476.694 165.375 475.862 166.233 474.64 166.233ZM480.211 167H481.368L484.852 157.861V157.705H478.729V158.615H483.448L480.211 167ZM489.074 167.117C491.037 167.117 492.285 165.869 492.285 164.01C492.285 162.307 491.089 160.968 489.243 160.968C488.164 160.968 487.293 161.475 486.851 162.229C486.903 159.772 487.891 158.511 489.295 158.511C490.335 158.511 490.803 158.979 491.011 159.837H492.09C491.843 158.342 490.816 157.588 489.373 157.588C487.241 157.588 485.733 159.33 485.733 162.671V162.892C485.733 165.219 486.539 167.117 489.074 167.117ZM489.074 166.233C487.826 166.233 486.929 165.427 486.929 163.906C486.929 162.697 487.813 161.852 489.061 161.852C490.322 161.852 491.128 162.723 491.128 164.062C491.128 165.375 490.296 166.233 489.074 166.233ZM493.718 163.932H496.5V162.918H493.718V163.932ZM501.232 167.117C502.805 167.117 504.43 166.194 504.43 164.335C504.43 163.139 503.728 162.333 502.649 161.943C503.507 161.566 504.079 160.916 504.079 159.98C504.079 158.524 502.675 157.588 501.232 157.588C499.802 157.588 498.372 158.498 498.372 160.006C498.372 160.916 498.892 161.618 499.776 161.956C498.788 162.307 498.021 163.113 498.021 164.361C498.021 166.207 499.711 167.117 501.232 167.117ZM501.271 161.553C500.322 161.553 499.516 160.994 499.516 160.019C499.516 159.057 500.27 158.472 501.232 158.472C502.194 158.472 502.935 159.096 502.935 159.993C502.935 160.981 502.259 161.553 501.271 161.553ZM501.232 166.194C500.153 166.194 499.178 165.544 499.178 164.322C499.178 163.087 500.153 162.45 501.258 162.45C502.363 162.45 503.273 163.074 503.273 164.296C503.273 165.531 502.376 166.194 501.232 166.194ZM508.82 167.104C511.043 167.104 512.317 165.401 512.317 162.32V161.735C512.317 159.057 511.173 157.575 508.976 157.575C507.013 157.575 505.765 158.823 505.765 160.682C505.765 162.437 507.013 163.724 508.82 163.724C509.886 163.724 510.783 163.243 511.225 162.489C511.199 164.959 510.328 166.181 508.846 166.181C507.65 166.181 507.13 165.622 506.922 164.712H505.83C506.077 166.207 507.104 167.104 508.82 167.104ZM508.989 162.84C507.728 162.84 506.922 161.969 506.922 160.63C506.922 159.317 507.754 158.459 508.976 158.459C510.224 158.459 511.121 159.304 511.121 160.825C511.121 162.034 510.237 162.84 508.989 162.84ZM516.936 167.117C518.509 167.117 520.134 166.194 520.134 164.335C520.134 163.139 519.432 162.333 518.353 161.943C519.211 161.566 519.783 160.916 519.783 159.98C519.783 158.524 518.379 157.588 516.936 157.588C515.506 157.588 514.076 158.498 514.076 160.006C514.076 160.916 514.596 161.618 515.48 161.956C514.492 162.307 513.725 163.113 513.725 164.361C513.725 166.207 515.415 167.117 516.936 167.117ZM516.975 161.553C516.026 161.553 515.22 160.994 515.22 160.019C515.22 159.057 515.974 158.472 516.936 158.472C517.898 158.472 518.639 159.096 518.639 159.993C518.639 160.981 517.963 161.553 516.975 161.553ZM516.936 166.194C515.857 166.194 514.882 165.544 514.882 164.322C514.882 163.087 515.857 162.45 516.962 162.45C518.067 162.45 518.977 163.074 518.977 164.296C518.977 165.531 518.08 166.194 516.936 166.194ZM524.524 167.104C526.747 167.104 528.021 165.401 528.021 162.32V161.735C528.021 159.057 526.877 157.575 524.68 157.575C522.717 157.575 521.469 158.823 521.469 160.682C521.469 162.437 522.717 163.724 524.524 163.724C525.59 163.724 526.487 163.243 526.929 162.489C526.903 164.959 526.032 166.181 524.55 166.181C523.354 166.181 522.834 165.622 522.626 164.712H521.534C521.781 166.207 522.808 167.104 524.524 167.104ZM524.693 162.84C523.432 162.84 522.626 161.969 522.626 160.63C522.626 159.317 523.458 158.459 524.68 158.459C525.928 158.459 526.825 159.304 526.825 160.825C526.825 162.034 525.941 162.84 524.693 162.84Z" fill="#5B636E"/>
<path d="M391 152C388.053 152 385.667 149.613 385.667 146.666C385.667 143.72 388.053 141.333 391 141.333C393.947 141.333 396.333 143.72 396.333 146.666C396.333 149.613 393.947 152 391 152ZM391 142.666C388.8 142.666 387 144.466 387 146.666C387 148.866 388.8 150.666 391 150.666C393.2 150.666 395 148.866 395 146.666C395 144.466 393.2 142.666 391 142.666Z" fill="#587088"/>
<path d="M391 153.56C385.067 153.56 382.147 156.933 380.773 159.533C381.08 159.893 381.4 160.24 381.733 160.56C382.933 158.013 385.52 154.88 391 154.88C396.48 154.88 399.066 158.013 400.266 160.56C400.6 160.227 400.933 159.893 401.226 159.533C399.853 156.933 396.933 153.56 391 153.56Z" fill="#587088"/>
<path d="M391 167C382.173 167 375 159.827 375 151C375 142.173 382.173 135 391 135C399.827 135 407 142.173 407 151C407 159.827 399.827 167 391 167ZM391 136.333C382.907 136.333 376.333 142.907 376.333 151C376.333 159.093 382.907 165.667 391 165.667C399.093 165.667 405.667 159.093 405.667 151C405.667 142.907 399.093 136.333 391 136.333Z" fill="#587088"/>
<path d="M391 152C388.053 152 385.667 149.613 385.667 146.666C385.667 143.72 388.053 141.333 391 141.333C393.947 141.333 396.333 143.72 396.333 146.666C396.333 149.613 393.947 152 391 152ZM391 142.666C388.8 142.666 387 144.466 387 146.666C387 148.866 388.8 150.666 391 150.666C393.2 150.666 395 148.866 395 146.666C395 144.466 393.2 142.666 391 142.666Z" fill="#587088"/>
<path d="M391 153.56C385.067 153.56 382.147 156.933 380.773 159.533C381.08 159.893 381.4 160.24 381.733 160.56C382.933 158.013 385.52 154.88 391 154.88C396.48 154.88 399.066 158.013 400.266 160.56C400.6 160.227 400.933 159.893 401.226 159.533C399.853 156.933 396.933 153.56 391 153.56Z" fill="#587088"/>
<path d="M391 167C382.173 167 375 159.827 375 151C375 142.173 382.173 135 391 135C399.827 135 407 142.173 407 151C407 159.827 399.827 167 391 167ZM391 136.333C382.907 136.333 376.333 142.907 376.333 151C376.333 159.093 382.907 165.667 391 165.667C399.093 165.667 405.667 159.093 405.667 151C405.667 142.907 399.093 136.333 391 136.333Z" fill="#587088"/>
<circle cx="391" cy="151" r="15.6667" fill="white" stroke="#F1F3F5" stroke-width="0.666667"/>
<path d="M390.042 155.117C391.758 155.117 392.915 154.194 392.915 152.179V145.705H391.173V152.14C391.173 153.284 390.627 153.726 389.782 153.726C389.236 153.726 388.911 153.622 388.586 153.492V154.844C388.885 155 389.275 155.117 390.042 155.117Z" fill="#0052FF"/>
<circle cx="391" cy="151" r="15.5" fill="white" stroke="#5B636E"/>
<path fill-rule="evenodd" clip-rule="evenodd" d="M393.75 147.75C393.75 149.269 392.519 150.5 391 150.5C389.481 150.5 388.25 149.269 388.25 147.75C388.25 146.231 389.481 145 391 145C392.519 145 393.75 146.231 393.75 147.75ZM392.98 151.01C394.21 151.07 395.29 151.87 395.68 153.05L397 157H385L386.31 153.05C386.7 151.87 387.78 151.07 389.01 151.01C389.013 151.012 389.016 151.014 389.02 151.017C389.144 151.112 389.983 151.75 391 151.75C392.05 151.75 392.91 151.07 392.98 151.01Z" fill="#5B636E"/>
<path d="M428.504 220.144C430.808 220.144 432.312 218.384 432.312 215.824V215.696C432.312 213.088 430.696 211.488 428.504 211.488C427.288 211.488 426.152 212.224 425.672 213.04V207.632H424.344V220H425.672V218.624C426.152 219.456 427.144 220.144 428.504 220.144ZM428.376 219.04C426.744 219.04 425.624 218.032 425.624 215.888V215.76C425.624 213.616 426.808 212.592 428.36 212.592C429.768 212.592 430.936 213.648 430.936 215.76V215.888C430.936 217.92 430.04 219.04 428.376 219.04ZM437.847 220.144C439.863 220.144 441.319 218.8 441.495 216.992H440.263C440.119 218.352 439.047 219.04 437.863 219.04C436.247 219.04 435.127 217.952 435.127 215.904V215.776C435.127 213.808 436.295 212.592 437.815 212.592C438.967 212.592 439.927 213.088 440.135 214.416H441.447C441.191 212.288 439.559 211.488 437.815 211.488C435.575 211.488 433.751 213.216 433.751 215.776V215.904C433.751 218.496 435.511 220.144 437.847 220.144ZM445.244 220H446.636V208.56H445.34L442.684 210.48V211.776L445.244 209.936V220ZM453.683 220.144C455.955 220.144 457.635 218.688 457.635 216.768C457.635 214.608 456.291 213.84 453.747 213.44C451.411 213.088 450.995 212.512 450.995 211.392C450.995 210.32 451.811 209.536 453.379 209.536C454.963 209.536 455.795 210.128 456.067 211.568H457.315C457.091 209.536 455.667 208.416 453.379 208.416C451.219 208.416 449.699 209.76 449.699 211.52C449.699 213.552 451.123 214.304 453.523 214.672C455.699 215.024 456.291 215.568 456.291 216.864C456.291 218.16 455.155 219.024 453.683 219.024C451.379 219.024 450.835 217.872 450.659 216.512H449.315C449.523 218.464 450.627 220.144 453.683 220.144ZM460.35 220.08C460.91 220.08 461.374 219.632 461.374 219.056C461.374 218.48 460.91 218.032 460.35 218.032C459.79 218.032 459.326 218.48 459.326 219.056C459.326 219.632 459.79 220.08 460.35 220.08ZM464.542 220.08C465.102 220.08 465.566 219.632 465.566 219.056C465.566 218.48 465.102 218.032 464.542 218.032C463.982 218.032 463.518 218.48 463.518 219.056C463.518 219.632 463.982 220.08 464.542 220.08ZM468.734 220.08C469.294 220.08 469.758 219.632 469.758 219.056C469.758 218.48 469.294 218.032 468.734 218.032C468.174 218.032 467.71 218.48 467.71 219.056C467.71 219.632 468.174 220.08 468.734 220.08ZM475.692 220.144C478.508 220.144 480.124 217.904 480.124 214.576V213.936C480.124 210.672 478.476 208.416 475.66 208.416C472.86 208.416 471.148 210.592 471.148 213.968V214.608C471.148 217.936 472.956 220.144 475.692 220.144ZM475.692 218.992C473.788 218.992 472.572 217.488 472.572 214.592V213.952C472.572 211.136 473.724 209.536 475.66 209.536C477.596 209.536 478.716 211.264 478.716 213.92V214.56C478.716 217.456 477.692 218.992 475.692 218.992ZM484.518 220.144C485.75 220.144 486.502 219.728 487.126 218.944V220H488.454V214.48C488.454 212.144 486.998 211.488 485.398 211.488C483.782 211.488 482.262 212.192 482.086 214.096H483.414C483.542 213.072 484.182 212.592 485.334 212.592C486.614 212.592 487.126 213.152 487.126 214.48V215.088H485.926C483.782 215.088 481.734 215.744 481.734 217.68C481.734 219.392 482.966 220.144 484.518 220.144ZM484.646 219.088C483.478 219.088 483.062 218.544 483.062 217.68C483.062 216.448 484.294 216.032 485.974 216.032H487.126V217.072C487.126 218.368 486.054 219.088 484.646 219.088ZM490.295 220H491.607L492.711 216.704H497.431L498.551 220H499.927L496.055 208.56H494.231L490.295 220ZM495.079 209.712L497.063 215.6H493.095L495.079 209.712ZM501.844 220H503.172V215.664L506.884 220H508.5L504.612 215.52L508.196 211.632H506.644L503.172 215.488V207.632H501.844V220Z" fill="#0A0B0D"/>
<path d="M424.17 239H427.355C429.214 239 430.41 238.155 430.41 236.4V236.348C430.41 235.139 429.903 234.45 428.551 234.125C429.617 233.761 429.955 233.007 429.955 232.162V232.11C429.955 230.277 428.694 229.705 426.965 229.705H424.17V239ZM425.275 233.761V230.589H426.939C428.239 230.589 428.85 231.018 428.85 232.071V232.123C428.85 233.267 428.33 233.761 426.965 233.761H425.275ZM425.275 238.116V234.645H427.173C428.668 234.645 429.305 235.191 429.305 236.335V236.387C429.305 237.518 428.681 238.116 427.329 238.116H425.275ZM432.725 230.784C433.115 230.784 433.44 230.459 433.44 230.069C433.44 229.679 433.115 229.354 432.725 229.354C432.335 229.354 432.01 229.679 432.01 230.069C432.01 230.459 432.335 230.784 432.725 230.784ZM432.205 239H433.284V232.201H432.205V239ZM437.559 239.091C438.001 239.091 438.261 239.026 438.482 238.948V238.038C438.248 238.129 437.988 238.181 437.65 238.181C437.104 238.181 436.805 237.856 436.805 237.193V233.111H438.391V232.201H436.805V230.654H435.726V232.201H434.751V233.111H435.726V237.297C435.726 238.363 436.324 239.091 437.559 239.091ZM442.934 239.117C444.572 239.117 445.755 238.025 445.898 236.556H444.897C444.78 237.661 443.909 238.22 442.947 238.22C441.634 238.22 440.724 237.336 440.724 235.672V235.568C440.724 233.969 441.673 232.981 442.908 232.981C443.844 232.981 444.624 233.384 444.793 234.463H445.859C445.651 232.734 444.325 232.084 442.908 232.084C441.088 232.084 439.606 233.488 439.606 235.568V235.672C439.606 237.778 441.036 239.117 442.934 239.117ZM450.349 239.117C452.286 239.117 453.703 237.7 453.703 235.646V235.542C453.703 233.501 452.286 232.084 450.362 232.084C448.438 232.084 447.021 233.514 447.021 235.555V235.659C447.021 237.648 448.412 239.117 450.349 239.117ZM450.362 238.22C448.984 238.22 448.139 237.206 448.139 235.659V235.555C448.139 233.995 448.997 232.981 450.362 232.981C451.714 232.981 452.585 233.995 452.585 235.568V235.659C452.585 237.193 451.727 238.22 450.362 238.22ZM455.919 230.784C456.309 230.784 456.634 230.459 456.634 230.069C456.634 229.679 456.309 229.354 455.919 229.354C455.529 229.354 455.204 229.679 455.204 230.069C455.204 230.459 455.529 230.784 455.919 230.784ZM455.399 239H456.478V232.201H455.399V239ZM458.687 239H459.766V234.879C459.766 233.657 460.663 233.02 461.664 233.02C462.756 233.02 463.263 233.553 463.263 234.749V239H464.342V234.827C464.342 232.851 463.354 232.084 461.95 232.084C460.832 232.084 460.078 232.643 459.766 233.28V232.201H458.687V239ZM471.6 239.117C472.601 239.117 473.212 238.779 473.719 238.142V239H474.798V234.515C474.798 232.617 473.615 232.084 472.315 232.084C471.002 232.084 469.767 232.656 469.624 234.203H470.703C470.807 233.371 471.327 232.981 472.263 232.981C473.303 232.981 473.719 233.436 473.719 234.515V235.009H472.744C471.002 235.009 469.338 235.542 469.338 237.115C469.338 238.506 470.339 239.117 471.6 239.117ZM471.704 238.259C470.755 238.259 470.417 237.817 470.417 237.115C470.417 236.114 471.418 235.776 472.783 235.776H473.719V236.621C473.719 237.674 472.848 238.259 471.704 238.259ZM479.478 239.117C480.466 239.117 481.415 238.493 481.805 237.83V239H482.884V228.951H481.805V233.293C481.415 232.63 480.713 232.084 479.582 232.084C477.71 232.084 476.41 233.553 476.41 235.633V235.737C476.41 237.856 477.697 239.117 479.478 239.117ZM479.595 238.22C478.451 238.22 477.528 237.401 477.528 235.685V235.581C477.528 233.93 478.334 232.981 479.686 232.981C481.012 232.981 481.844 233.8 481.844 235.542V235.646C481.844 237.388 480.856 238.22 479.595 238.22ZM487.629 239.117C488.617 239.117 489.566 238.493 489.956 237.83V239H491.035V228.951H489.956V233.293C489.566 232.63 488.864 232.084 487.733 232.084C485.861 232.084 484.561 233.553 484.561 235.633V235.737C484.561 237.856 485.848 239.117 487.629 239.117ZM487.746 238.22C486.602 238.22 485.679 237.401 485.679 235.685V235.581C485.679 233.93 486.485 232.981 487.837 232.981C489.163 232.981 489.995 233.8 489.995 235.542V235.646C489.995 237.388 489.007 238.22 487.746 238.22ZM493.218 239H494.297V235.269C494.297 233.592 495.168 233.163 496.533 233.098V232.084C495.311 232.123 494.726 232.656 494.297 233.423V232.201H493.218V239ZM500.697 239.117C502.231 239.117 503.362 238.402 503.596 237.037H502.517C502.374 237.83 501.763 238.22 500.71 238.22C499.319 238.22 498.578 237.362 498.526 235.815H503.648V235.464C503.648 233.033 502.166 232.084 500.593 232.084C498.721 232.084 497.408 233.514 497.408 235.568V235.672C497.408 237.765 498.773 239.117 500.697 239.117ZM498.565 234.944C498.747 233.735 499.488 232.981 500.593 232.981C501.711 232.981 502.439 233.54 502.543 234.944H498.565ZM507.473 239.117C509.124 239.117 509.969 238.285 509.969 237.05C509.969 235.607 508.981 235.295 507.577 235.035C506.329 234.814 505.991 234.567 505.991 233.956C505.991 233.371 506.498 232.981 507.278 232.981C508.136 232.981 508.552 233.306 508.708 234.047H509.748C509.566 232.578 508.513 232.084 507.291 232.084C506.225 232.084 504.99 232.734 504.99 233.995C504.99 235.178 505.588 235.672 507.356 235.997C508.409 236.192 508.942 236.426 508.942 237.141C508.942 237.869 508.487 238.22 507.46 238.22C506.368 238.22 505.939 237.713 505.861 236.907H504.808C504.873 238.298 505.848 239.117 507.473 239.117ZM513.719 239.117C515.37 239.117 516.215 238.285 516.215 237.05C516.215 235.607 515.227 235.295 513.823 235.035C512.575 234.814 512.237 234.567 512.237 233.956C512.237 233.371 512.744 232.981 513.524 232.981C514.382 232.981 514.798 233.306 514.954 234.047H515.994C515.812 232.578 514.759 232.084 513.537 232.084C512.471 232.084 511.236 232.734 511.236 233.995C511.236 235.178 511.834 235.672 513.602 235.997C514.655 236.192 515.188 236.426 515.188 237.141C515.188 237.869 514.733 238.22 513.706 238.22C512.614 238.22 512.185 237.713 512.107 236.907H511.054C511.119 238.298 512.094 239.117 513.719 239.117Z" fill="#5B636E"/>
<path d="M391 224C388.053 224 385.667 221.613 385.667 218.666C385.667 215.72 388.053 213.333 391 213.333C393.947 213.333 396.333 215.72 396.333 218.666C396.333 221.613 393.947 224 391 224ZM391 214.666C388.8 214.666 387 216.466 387 218.666C387 220.866 388.8 222.666 391 222.666C393.2 222.666 395 220.866 395 218.666C395 216.466 393.2 214.666 391 214.666Z" fill="#587088"/>
<path d="M391 225.56C385.067 225.56 382.147 228.933 380.773 231.533C381.08 231.893 381.4 232.24 381.733 232.56C382.933 230.013 385.52 226.88 391 226.88C396.48 226.88 399.066 230.013 400.266 232.56C400.6 232.227 400.933 231.893 401.226 231.533C399.853 228.933 396.933 225.56 391 225.56Z" fill="#587088"/>
<path d="M391 239C382.173 239 375 231.827 375 223C375 214.173 382.173 207 391 207C399.827 207 407 214.173 407 223C407 231.827 399.827 239 391 239ZM391 208.333C382.907 208.333 376.333 214.907 376.333 223C376.333 231.093 382.907 237.667 391 237.667C399.093 237.667 405.667 231.093 405.667 223C405.667 214.907 399.093 208.333 391 208.333Z" fill="#587088"/>
<path d="M391 224C388.053 224 385.667 221.613 385.667 218.666C385.667 215.72 388.053 213.333 391 213.333C393.947 213.333 396.333 215.72 396.333 218.666C396.333 221.613 393.947 224 391 224ZM391 214.666C388.8 214.666 387 216.466 387 218.666C387 220.866 388.8 222.666 391 222.666C393.2 222.666 395 220.866 395 218.666C395 216.466 393.2 214.666 391 214.666Z" fill="#587088"/>
<path d="M391 225.56C385.067 225.56 382.147 228.933 380.773 231.533C381.08 231.893 381.4 232.24 381.733 232.56C382.933 230.013 385.52 226.88 391 226.88C396.48 226.88 399.066 230.013 400.266 232.56C400.6 232.227 400.933 231.893 401.226 231.533C399.853 228.933 396.933 225.56 391 225.56Z" fill="#587088"/>
<path d="M391 239C382.173 239 375 231.827 375 223C375 214.173 382.173 207 391 207C399.827 207 407 214.173 407 223C407 231.827 399.827 239 391 239ZM391 208.333C382.907 208.333 376.333 214.907 376.333 223C376.333 231.093 382.907 237.667 391 237.667C399.093 237.667 405.667 231.093 405.667 223C405.667 214.907 399.093 208.333 391 208.333Z" fill="#587088"/>
<circle cx="391" cy="223" r="15.6667" fill="white" stroke="#F1F3F5" stroke-width="0.666667"/>
<path fill-rule="evenodd" clip-rule="evenodd" d="M395 220H387C386.45 220 386 219.55 386 219C386 218.45 386.45 218 387 218H395V220ZM386 226.5V221H396V228H387.5C386.67 228 386 227.33 386 226.5ZM393.25 224.5C393.25 224.91 393.59 225.25 394 225.25C394.41 225.25 394.75 224.91 394.75 224.5C394.75 224.09 394.41 223.75 394 223.75C393.59 223.75 393.25 224.09 393.25 224.5Z" fill="#1652F0"/>
<circle cx="391" cy="223" r="15.5" fill="white" stroke="#5B636E"/>
<path fill-rule="evenodd" clip-rule="evenodd" d="M395 220H387C386.45 220 386 219.55 386 219C386 218.45 386.45 218 387 218H395V220ZM386 226.5V221H396V228H387.5C386.67 228 386 227.33 386 226.5ZM393.25 224.5C393.25 224.91 393.59 225.25 394 225.25C394.41 225.25 394.75 224.91 394.75 224.5C394.75 224.09 394.41 223.75 394 223.75C393.59 223.75 393.25 224.09 393.25 224.5Z" fill="#5B636E"/>
<defs>
<filter id="filter0_d" x="337" y="33" width="352" height="261" filterUnits="userSpaceOnUse" color-interpolation-filters="sRGB">
<feFlood flood-opacity="0" result="BackgroundImageFix"/>
<feColorMatrix in="SourceAlpha" type="matrix" values="0 0 0 0 0 0 0 0 0 0 0 0 0 0 0 0 0 0 127 0"/>
<feOffset dy="8"/>
<feGaussianBlur stdDeviation="6"/>
<feColorMatrix type="matrix" values="0 0 0 0 0.027451 0 0 0 0 0.0784314 0 0 0 0 0.133333 0 0 0 0.02 0"/>
<feBlend mode="normal" in2="BackgroundImageFix" result="effect1_dropShadow"/>
<feBlend mode="normal" in="SourceGraphic" in2="effect1_dropShadow" result="shape"/>
</filter>
<clipPath id="clip0">
<rect width="32" height="32" fill="white" transform="translate(375 63)"/>
</clipPath>
</defs>
</svg>
