<svg width="407" height="320" viewBox="0 0 407 320" fill="none" xmlns="http://www.w3.org/2000/svg">
<g filter="url(#filter0_ddd)">
<rect x="40" y="45" width="327" height="235" rx="8" fill="#141519"/>
<rect x="39.5" y="44.5" width="328" height="236" rx="8.5" stroke="#8A919E" stroke-opacity="0.2"/>
</g>
<path d="M116.568 89.32H117.736V86.088H120.728V84.968H117.736V81.736H116.568V84.968H113.576V86.088H116.568V89.32ZM124.385 91H125.777V79.56H124.481L121.825 81.48V82.776L124.385 80.936V91ZM135.426 93.368H136.754C135.314 91.576 134.162 89.304 134.162 86.008C134.162 82.712 135.314 80.424 136.754 78.632H135.426C133.954 80.36 132.77 82.824 132.77 86.008C132.77 89.192 133.954 91.64 135.426 93.368ZM141.786 91.144C143.722 91.144 145.722 90.008 145.722 87.72C145.722 86.248 144.858 85.256 143.53 84.776C144.586 84.312 145.29 83.512 145.29 82.36C145.29 80.568 143.562 79.416 141.786 79.416C140.026 79.416 138.266 80.536 138.266 82.392C138.266 83.512 138.906 84.376 139.994 84.792C138.778 85.224 137.834 86.216 137.834 87.752C137.834 90.024 139.914 91.144 141.786 91.144ZM141.834 84.296C140.666 84.296 139.674 83.608 139.674 82.408C139.674 81.224 140.602 80.504 141.786 80.504C142.97 80.504 143.882 81.272 143.882 82.376C143.882 83.592 143.05 84.296 141.834 84.296ZM141.786 90.008C140.458 90.008 139.258 89.208 139.258 87.704C139.258 86.184 140.458 85.4 141.818 85.4C143.178 85.4 144.298 86.168 144.298 87.672C144.298 89.192 143.194 90.008 141.786 90.008ZM151.281 91.144C153.649 91.144 155.345 89.896 155.345 87.816C155.345 86.232 154.481 85.288 153.137 84.936C154.177 84.504 154.945 83.736 154.945 82.44C154.945 80.856 153.681 79.416 151.505 79.416C149.329 79.416 147.841 80.904 147.761 82.712H148.977C149.121 81.416 150.081 80.552 151.505 80.552C152.897 80.552 153.585 81.384 153.585 82.472C153.585 83.72 152.929 84.424 151.441 84.424H150.641V85.592H151.505C153.121 85.592 153.921 86.344 153.921 87.816C153.921 89.16 153.105 90.024 151.313 90.024C149.505 90.024 148.689 88.984 148.561 87.624H147.281C147.361 89.624 148.849 91.144 151.281 91.144ZM159.307 91H160.699V79.56H159.403L156.747 81.48V82.776L159.307 80.936V91ZM162.929 93.32H164.257C165.729 91.592 166.913 89.128 166.913 85.944C166.913 82.76 165.729 80.312 164.257 78.584H162.929C164.369 80.376 165.521 82.648 165.521 85.944C165.521 89.24 164.369 91.528 162.929 93.32ZM178.352 91H179.712V88.6H181.296V87.464H179.712V79.56H177.856L172.624 88.152V88.6H178.352V91ZM174.384 87.464L178.352 80.616V87.464H174.384ZM186.371 91.144C188.547 91.144 190.291 89.672 190.291 87.256C190.291 84.92 188.787 83.464 186.739 83.464C185.651 83.464 184.867 83.816 184.403 84.248V80.76H189.683V79.56H183.251V85.688H183.763C184.371 85 185.139 84.584 186.467 84.584C187.923 84.584 188.867 85.64 188.867 87.256C188.867 88.984 187.907 90.024 186.355 90.024C184.611 90.024 184.115 89.16 183.891 87.912H182.563C182.723 89.784 183.907 91.144 186.371 91.144ZM197.383 91H198.743V88.6H200.327V87.464H198.743V79.56H196.887L191.655 88.152V88.6H197.383V91ZM193.415 87.464L197.383 80.616V87.464H193.415ZM201.866 87.224H205.29V85.976H201.866V87.224ZM211.114 91.144C213.05 91.144 215.05 90.008 215.05 87.72C215.05 86.248 214.186 85.256 212.858 84.776C213.914 84.312 214.618 83.512 214.618 82.36C214.618 80.568 212.89 79.416 211.114 79.416C209.354 79.416 207.594 80.536 207.594 82.392C207.594 83.512 208.234 84.376 209.322 84.792C208.106 85.224 207.162 86.216 207.162 87.752C207.162 90.024 209.242 91.144 211.114 91.144ZM211.162 84.296C209.994 84.296 209.002 83.608 209.002 82.408C209.002 81.224 209.93 80.504 211.114 80.504C212.298 80.504 213.21 81.272 213.21 82.376C213.21 83.592 212.378 84.296 211.162 84.296ZM211.114 90.008C209.786 90.008 208.586 89.208 208.586 87.704C208.586 86.184 209.786 85.4 211.146 85.4C212.506 85.4 213.626 86.168 213.626 87.672C213.626 89.192 212.522 90.008 211.114 90.008ZM217.82 91H219.244L223.532 79.752V79.56H215.996V80.68H221.804L217.82 91ZM229.118 91H230.478V88.6H232.062V87.464H230.478V79.56H228.622L223.39 88.152V88.6H229.118V91ZM225.15 87.464L229.118 80.616V87.464H225.15ZM237.281 91.128C240.017 91.128 241.585 89.032 241.585 85.24V84.52C241.585 81.224 240.177 79.4 237.473 79.4C235.057 79.4 233.521 80.936 233.521 83.224C233.521 85.384 235.057 86.968 237.281 86.968C238.593 86.968 239.697 86.376 240.241 85.448C240.209 88.488 239.137 89.992 237.313 89.992C235.841 89.992 235.201 89.304 234.945 88.184H233.601C233.905 90.024 235.169 91.128 237.281 91.128ZM237.489 85.88C235.937 85.88 234.945 84.808 234.945 83.16C234.945 81.544 235.969 80.488 237.473 80.488C239.009 80.488 240.113 81.528 240.113 83.4C240.113 84.888 239.025 85.88 237.489 85.88Z" fill="white"/>
<g clip-path="url(#clip0)">
<path d="M81.0001 70C72.1734 70 65 77.1734 65 86.0001C65 94.8267 72.1734 102 81.0001 102C89.8267 102 97.0001 94.8267 97.0001 86.0001C97.0001 77.1734 89.8267 70 81.0001 70ZM81.0001 100.667C72.9067 100.667 66.3333 94.0934 66.3333 86.0001C66.3333 77.9067 72.9067 71.3333 81.0001 71.3333C89.0934 71.3333 95.6668 77.9067 95.6668 86.0001C95.6668 94.0934 89.0934 100.667 81.0001 100.667Z" fill="#1652F0"/>
<path d="M81.6666 90.3866V79.3333H80.3332V90.3866L77.4666 87.5199L76.5199 88.4666L80.5199 92.4666C80.6532 92.6 80.8266 92.6666 80.9999 92.6666C81.1732 92.6666 81.3466 92.6 81.4666 92.4666L85.4666 88.4666L84.5199 87.5199L81.6666 90.3866Z" fill="#1652F0"/>
</g>
<circle cx="81" cy="86" r="15.6667" fill="#141519" stroke="#F1F3F5" stroke-width="0.666667"/>
<rect width="12" height="12" transform="translate(75 80)" fill="#141519"/>
<path fill-rule="evenodd" clip-rule="evenodd" d="M83.75 82.75C83.75 84.2688 82.5188 85.5 81 85.5C79.4812 85.5 78.25 84.2688 78.25 82.75C78.25 81.2312 79.4812 80 81 80C82.5188 80 83.75 81.2312 83.75 82.75ZM82.98 86.01C84.21 86.07 85.29 86.87 85.68 88.05L87 92H75L76.31 88.05C76.7 86.87 77.78 86.07 79.01 86.01C79.0125 86.0119 79.0158 86.0144 79.0198 86.0175C79.1443 86.1121 79.983 86.75 81 86.75C82.05 86.75 82.91 86.07 82.98 86.01Z" fill="#1652F0"/>
<circle cx="81" cy="86" r="15.5" stroke="#32353D"/>
<path fill-rule="evenodd" clip-rule="evenodd" d="M83.75 82.75C83.75 84.2688 82.5188 85.5 81 85.5C79.4812 85.5 78.25 84.2688 78.25 82.75C78.25 81.2312 79.4812 80 81 80C82.5188 80 83.75 81.2312 83.75 82.75ZM82.98 86.01C84.21 86.07 85.29 86.87 85.68 88.05L87 92H75L76.31 88.05C76.7 86.87 77.78 86.07 79.01 86.01C79.0125 86.0119 79.0158 86.0144 79.0198 86.0175C79.1443 86.1121 79.983 86.75 81 86.75C82.05 86.75 82.91 86.07 82.98 86.01Z" fill="#32353D"/>
<path d="M114.44 155H115.832V150.344H117.688C119.864 150.344 121.688 149.4 121.688 146.968V146.904C121.688 144.52 119.88 143.56 117.688 143.56H114.44V155ZM115.832 149.24V144.68H117.784C119.336 144.68 120.296 145.288 120.296 146.904V146.968C120.296 148.44 119.416 149.24 117.784 149.24H115.832ZM125.659 155.144C126.891 155.144 127.643 154.728 128.267 153.944V155H129.595V149.48C129.595 147.144 128.139 146.488 126.539 146.488C124.923 146.488 123.403 147.192 123.227 149.096H124.555C124.683 148.072 125.323 147.592 126.475 147.592C127.755 147.592 128.267 148.152 128.267 149.48V150.088H127.067C124.923 150.088 122.875 150.744 122.875 152.68C122.875 154.392 124.107 155.144 125.659 155.144ZM125.787 154.088C124.619 154.088 124.203 153.544 124.203 152.68C124.203 151.448 125.435 151.032 127.115 151.032H128.267V152.072C128.267 153.368 127.195 154.088 125.787 154.088ZM132.203 157.912H133.531V153.624C134.011 154.456 134.987 155.144 136.363 155.144C138.667 155.144 140.171 153.384 140.171 150.824V150.696C140.171 148.088 138.555 146.488 136.363 146.488C135.147 146.488 134.011 147.224 133.531 148.04V146.632H132.203V157.912ZM136.235 154.04C134.603 154.04 133.483 153.032 133.483 150.888V150.76C133.483 148.616 134.667 147.592 136.219 147.592C137.627 147.592 138.795 148.648 138.795 150.76V150.888C138.795 152.92 137.899 154.04 136.235 154.04ZM144.331 155.144C145.563 155.144 146.315 154.728 146.939 153.944V155H148.267V149.48C148.267 147.144 146.811 146.488 145.211 146.488C143.595 146.488 142.075 147.192 141.899 149.096H143.227C143.355 148.072 143.995 147.592 145.147 147.592C146.427 147.592 146.939 148.152 146.939 149.48V150.088H145.739C143.595 150.088 141.547 150.744 141.547 152.68C141.547 154.392 142.779 155.144 144.331 155.144ZM144.459 154.088C143.291 154.088 142.875 153.544 142.875 152.68C142.875 151.448 144.107 151.032 145.787 151.032H146.939V152.072C146.939 153.368 145.867 154.088 144.459 154.088ZM155.206 155H156.486V145.368L160.406 155H160.838L164.63 145.368V155H166.022V143.56H164.102L160.678 152.472L157.142 143.56H155.206V155ZM172.285 155.144C174.669 155.144 176.413 153.4 176.413 150.872V150.744C176.413 148.232 174.669 146.488 172.301 146.488C169.933 146.488 168.189 148.248 168.189 150.76V150.888C168.189 153.336 169.901 155.144 172.285 155.144ZM172.301 154.04C170.605 154.04 169.565 152.792 169.565 150.888V150.76C169.565 148.84 170.621 147.592 172.301 147.592C173.965 147.592 175.037 148.84 175.037 150.776V150.888C175.037 152.776 173.981 154.04 172.301 154.04ZM181.941 155.144C183.957 155.144 185.413 153.8 185.589 151.992H184.357C184.213 153.352 183.141 154.04 181.957 154.04C180.341 154.04 179.221 152.952 179.221 150.904V150.776C179.221 148.808 180.389 147.592 181.909 147.592C183.061 147.592 184.021 148.088 184.229 149.416H185.541C185.285 147.288 183.653 146.488 181.909 146.488C179.669 146.488 177.845 148.216 177.845 150.776V150.904C177.845 153.496 179.605 155.144 181.941 155.144ZM187.594 155H188.922V149.928C188.922 148.424 190.026 147.64 191.258 147.64C192.602 147.64 193.226 148.296 193.226 149.768V155H194.554V149.864C194.554 147.432 193.338 146.488 191.61 146.488C190.234 146.488 189.306 147.176 188.922 147.96V142.632H187.594V155ZM197.829 144.888C198.309 144.888 198.709 144.488 198.709 144.008C198.709 143.528 198.309 143.128 197.829 143.128C197.349 143.128 196.949 143.528 196.949 144.008C196.949 144.488 197.349 144.888 197.829 144.888ZM197.189 155H198.517V146.632H197.189V155Z" fill="white"/>
<path d="M115.899 172.635H116.848V170.009H119.279V169.099H116.848V166.473H115.899V169.099H113.468V170.009H115.899V172.635ZM122.25 174H123.381V164.705H122.328L120.17 166.265V167.318L122.25 165.823V174ZM131.221 175.924H132.3C131.13 174.468 130.194 172.622 130.194 169.944C130.194 167.266 131.13 165.407 132.3 163.951H131.221C130.025 165.355 129.063 167.357 129.063 169.944C129.063 172.531 130.025 174.52 131.221 175.924ZM137.331 174H138.436V172.05H139.723V171.127H138.436V164.705H136.928L132.677 171.686V172.05H137.331V174ZM134.107 171.127L137.331 165.563V171.127H134.107ZM142.575 174H143.706V164.705H142.653L140.495 166.265V167.318L142.575 165.823V174ZM148.912 174.117C150.68 174.117 152.097 172.921 152.097 170.958C152.097 169.06 150.875 167.877 149.211 167.877C148.327 167.877 147.69 168.163 147.313 168.514V165.68H151.603V164.705H146.377V169.684H146.793C147.287 169.125 147.911 168.787 148.99 168.787C150.173 168.787 150.94 169.645 150.94 170.958C150.94 172.362 150.16 173.207 148.899 173.207C147.482 173.207 147.079 172.505 146.897 171.491H145.818C145.948 173.012 146.91 174.117 148.912 174.117ZM153.149 175.885H154.228C155.424 174.481 156.386 172.479 156.386 169.892C156.386 167.305 155.424 165.316 154.228 163.912H153.149C154.319 165.368 155.255 167.214 155.255 169.892C155.255 172.57 154.319 174.429 153.149 175.885ZM164.64 174.117C166.603 174.117 167.851 172.869 167.851 171.01C167.851 169.307 166.655 167.968 164.809 167.968C163.73 167.968 162.859 168.475 162.417 169.229C162.469 166.772 163.457 165.511 164.861 165.511C165.901 165.511 166.369 165.979 166.577 166.837H167.656C167.409 165.342 166.382 164.588 164.939 164.588C162.807 164.588 161.299 166.33 161.299 169.671V169.892C161.299 172.219 162.105 174.117 164.64 174.117ZM164.64 173.233C163.392 173.233 162.495 172.427 162.495 170.906C162.495 169.697 163.379 168.852 164.627 168.852C165.888 168.852 166.694 169.723 166.694 171.062C166.694 172.375 165.862 173.233 164.64 173.233ZM170.211 174H171.368L174.852 164.861V164.705H168.729V165.615H173.448L170.211 174ZM179.074 174.117C181.037 174.117 182.285 172.869 182.285 171.01C182.285 169.307 181.089 167.968 179.243 167.968C178.164 167.968 177.293 168.475 176.851 169.229C176.903 166.772 177.891 165.511 179.295 165.511C180.335 165.511 180.803 165.979 181.011 166.837H182.09C181.843 165.342 180.816 164.588 179.373 164.588C177.241 164.588 175.733 166.33 175.733 169.671V169.892C175.733 172.219 176.539 174.117 179.074 174.117ZM179.074 173.233C177.826 173.233 176.929 172.427 176.929 170.906C176.929 169.697 177.813 168.852 179.061 168.852C180.322 168.852 181.128 169.723 181.128 171.062C181.128 172.375 180.296 173.233 179.074 173.233ZM183.718 170.932H186.5V169.918H183.718V170.932ZM191.232 174.117C192.805 174.117 194.43 173.194 194.43 171.335C194.43 170.139 193.728 169.333 192.649 168.943C193.507 168.566 194.079 167.916 194.079 166.98C194.079 165.524 192.675 164.588 191.232 164.588C189.802 164.588 188.372 165.498 188.372 167.006C188.372 167.916 188.892 168.618 189.776 168.956C188.788 169.307 188.021 170.113 188.021 171.361C188.021 173.207 189.711 174.117 191.232 174.117ZM191.271 168.553C190.322 168.553 189.516 167.994 189.516 167.019C189.516 166.057 190.27 165.472 191.232 165.472C192.194 165.472 192.935 166.096 192.935 166.993C192.935 167.981 192.259 168.553 191.271 168.553ZM191.232 173.194C190.153 173.194 189.178 172.544 189.178 171.322C189.178 170.087 190.153 169.45 191.258 169.45C192.363 169.45 193.273 170.074 193.273 171.296C193.273 172.531 192.376 173.194 191.232 173.194ZM198.82 174.104C201.043 174.104 202.317 172.401 202.317 169.32V168.735C202.317 166.057 201.173 164.575 198.976 164.575C197.013 164.575 195.765 165.823 195.765 167.682C195.765 169.437 197.013 170.724 198.82 170.724C199.886 170.724 200.783 170.243 201.225 169.489C201.199 171.959 200.328 173.181 198.846 173.181C197.65 173.181 197.13 172.622 196.922 171.712H195.83C196.077 173.207 197.104 174.104 198.82 174.104ZM198.989 169.84C197.728 169.84 196.922 168.969 196.922 167.63C196.922 166.317 197.754 165.459 198.976 165.459C200.224 165.459 201.121 166.304 201.121 167.825C201.121 169.034 200.237 169.84 198.989 169.84ZM206.936 174.117C208.509 174.117 210.134 173.194 210.134 171.335C210.134 170.139 209.432 169.333 208.353 168.943C209.211 168.566 209.783 167.916 209.783 166.98C209.783 165.524 208.379 164.588 206.936 164.588C205.506 164.588 204.076 165.498 204.076 167.006C204.076 167.916 204.596 168.618 205.48 168.956C204.492 169.307 203.725 170.113 203.725 171.361C203.725 173.207 205.415 174.117 206.936 174.117ZM206.975 168.553C206.026 168.553 205.22 167.994 205.22 167.019C205.22 166.057 205.974 165.472 206.936 165.472C207.898 165.472 208.639 166.096 208.639 166.993C208.639 167.981 207.963 168.553 206.975 168.553ZM206.936 173.194C205.857 173.194 204.882 172.544 204.882 171.322C204.882 170.087 205.857 169.45 206.962 169.45C208.067 169.45 208.977 170.074 208.977 171.296C208.977 172.531 208.08 173.194 206.936 173.194ZM214.524 174.104C216.747 174.104 218.021 172.401 218.021 169.32V168.735C218.021 166.057 216.877 164.575 214.68 164.575C212.717 164.575 211.469 165.823 211.469 167.682C211.469 169.437 212.717 170.724 214.524 170.724C215.59 170.724 216.487 170.243 216.929 169.489C216.903 171.959 216.032 173.181 214.55 173.181C213.354 173.181 212.834 172.622 212.626 171.712H211.534C211.781 173.207 212.808 174.104 214.524 174.104ZM214.693 169.84C213.432 169.84 212.626 168.969 212.626 167.63C212.626 166.317 213.458 165.459 214.68 165.459C215.928 165.459 216.825 166.304 216.825 167.825C216.825 169.034 215.941 169.84 214.693 169.84Z" fill="#8A919E"/>
<path d="M80.9999 159C78.0533 159 75.6666 156.613 75.6666 153.666C75.6666 150.72 78.0533 148.333 80.9999 148.333C83.9466 148.333 86.3332 150.72 86.3332 153.666C86.3332 156.613 83.9466 159 80.9999 159ZM80.9999 149.666C78.7999 149.666 77 151.466 77 153.666C77 155.866 78.7999 157.666 80.9999 157.666C83.1999 157.666 84.9999 155.866 84.9999 153.666C84.9999 151.466 83.1999 149.666 80.9999 149.666Z" fill="#CED2DB"/>
<path d="M80.9998 160.56C75.0665 160.56 72.1465 163.933 70.7732 166.533C71.0799 166.893 71.3999 167.24 71.7332 167.56C72.9332 165.013 75.5198 161.88 80.9998 161.88C86.4798 161.88 89.0664 165.013 90.2664 167.56C90.5998 167.226 90.9331 166.893 91.2264 166.533C89.8531 163.933 86.9331 160.56 80.9998 160.56Z" fill="#CED2DB"/>
<path d="M80.9999 174C72.1733 174 65 166.827 65 158C65 149.173 72.1733 142 80.9999 142C89.8266 142 96.9999 149.173 96.9999 158C96.9999 166.827 89.8266 174 80.9999 174ZM80.9999 143.333C72.9066 143.333 66.3333 149.907 66.3333 158C66.3333 166.093 72.9066 172.667 80.9999 172.667C89.0932 172.667 95.6665 166.093 95.6665 158C95.6665 149.907 89.0932 143.333 80.9999 143.333Z" fill="#CED2DB"/>
<path d="M80.9999 159C78.0533 159 75.6666 156.613 75.6666 153.666C75.6666 150.72 78.0533 148.333 80.9999 148.333C83.9466 148.333 86.3332 150.72 86.3332 153.666C86.3332 156.613 83.9466 159 80.9999 159ZM80.9999 149.666C78.7999 149.666 77 151.466 77 153.666C77 155.866 78.7999 157.666 80.9999 157.666C83.1999 157.666 84.9999 155.866 84.9999 153.666C84.9999 151.466 83.1999 149.666 80.9999 149.666Z" fill="#CED2DB"/>
<path d="M80.9998 160.56C75.0665 160.56 72.1465 163.933 70.7732 166.533C71.0799 166.893 71.3999 167.24 71.7332 167.56C72.9332 165.013 75.5198 161.88 80.9998 161.88C86.4798 161.88 89.0664 165.013 90.2664 167.56C90.5998 167.226 90.9331 166.893 91.2264 166.533C89.8531 163.933 86.9331 160.56 80.9998 160.56Z" fill="#CED2DB"/>
<path d="M80.9999 174C72.1733 174 65 166.827 65 158C65 149.173 72.1733 142 80.9999 142C89.8266 142 96.9999 149.173 96.9999 158C96.9999 166.827 89.8266 174 80.9999 174ZM80.9999 143.333C72.9066 143.333 66.3333 149.907 66.3333 158C66.3333 166.093 72.9066 172.667 80.9999 172.667C89.0932 172.667 95.6665 166.093 95.6665 158C95.6665 149.907 89.0932 143.333 80.9999 143.333Z" fill="#CED2DB"/>
<circle cx="81" cy="158" r="15.6667" fill="white" stroke="#F1F3F5" stroke-width="0.666667"/>
<path d="M80.0422 162.117C81.7582 162.117 82.9152 161.194 82.9152 159.179V152.705H81.1732V159.14C81.1732 160.284 80.6272 160.726 79.7822 160.726C79.2362 160.726 78.9112 160.622 78.5862 160.492V161.844C78.8852 162 79.2752 162.117 80.0422 162.117Z" fill="#0052FF"/>
<circle cx="81" cy="158" r="15.5" fill="#141519" stroke="#32353D"/>
<rect width="12" height="12" transform="translate(75 152)" fill="#141519"/>
<path fill-rule="evenodd" clip-rule="evenodd" d="M83.75 154.75C83.75 156.269 82.5188 157.5 81 157.5C79.4812 157.5 78.25 156.269 78.25 154.75C78.25 153.231 79.4812 152 81 152C82.5188 152 83.75 153.231 83.75 154.75ZM82.98 158.01C84.21 158.07 85.29 158.87 85.68 160.05L87 164H75L76.31 160.05C76.7 158.87 77.78 158.07 79.01 158.01C79.0125 158.012 79.0158 158.014 79.0198 158.017C79.1443 158.112 79.983 158.75 81 158.75C82.05 158.75 82.91 158.07 82.98 158.01Z" fill="#32353D"/>
<path d="M118.504 227.144C120.808 227.144 122.312 225.384 122.312 222.824V222.696C122.312 220.088 120.696 218.488 118.504 218.488C117.288 218.488 116.152 219.224 115.672 220.04V214.632H114.344V227H115.672V225.624C116.152 226.456 117.144 227.144 118.504 227.144ZM118.376 226.04C116.744 226.04 115.624 225.032 115.624 222.888V222.76C115.624 220.616 116.808 219.592 118.36 219.592C119.768 219.592 120.936 220.648 120.936 222.76V222.888C120.936 224.92 120.04 226.04 118.376 226.04ZM127.847 227.144C129.863 227.144 131.319 225.8 131.495 223.992H130.263C130.119 225.352 129.047 226.04 127.863 226.04C126.247 226.04 125.127 224.952 125.127 222.904V222.776C125.127 220.808 126.295 219.592 127.815 219.592C128.967 219.592 129.927 220.088 130.135 221.416H131.447C131.191 219.288 129.559 218.488 127.815 218.488C125.575 218.488 123.751 220.216 123.751 222.776V222.904C123.751 225.496 125.511 227.144 127.847 227.144ZM135.244 227H136.636V215.56H135.34L132.684 217.48V218.776L135.244 216.936V227ZM143.683 227.144C145.955 227.144 147.635 225.688 147.635 223.768C147.635 221.608 146.291 220.84 143.747 220.44C141.411 220.088 140.995 219.512 140.995 218.392C140.995 217.32 141.811 216.536 143.379 216.536C144.963 216.536 145.795 217.128 146.067 218.568H147.315C147.091 216.536 145.667 215.416 143.379 215.416C141.219 215.416 139.699 216.76 139.699 218.52C139.699 220.552 141.123 221.304 143.523 221.672C145.699 222.024 146.291 222.568 146.291 223.864C146.291 225.16 145.155 226.024 143.683 226.024C141.379 226.024 140.835 224.872 140.659 223.512H139.315C139.523 225.464 140.627 227.144 143.683 227.144ZM150.35 227.08C150.91 227.08 151.374 226.632 151.374 226.056C151.374 225.48 150.91 225.032 150.35 225.032C149.79 225.032 149.326 225.48 149.326 226.056C149.326 226.632 149.79 227.08 150.35 227.08ZM154.542 227.08C155.102 227.08 155.566 226.632 155.566 226.056C155.566 225.48 155.102 225.032 154.542 225.032C153.982 225.032 153.518 225.48 153.518 226.056C153.518 226.632 153.982 227.08 154.542 227.08ZM158.734 227.08C159.294 227.08 159.758 226.632 159.758 226.056C159.758 225.48 159.294 225.032 158.734 225.032C158.174 225.032 157.71 225.48 157.71 226.056C157.71 226.632 158.174 227.08 158.734 227.08ZM165.692 227.144C168.508 227.144 170.124 224.904 170.124 221.576V220.936C170.124 217.672 168.476 215.416 165.66 215.416C162.86 215.416 161.148 217.592 161.148 220.968V221.608C161.148 224.936 162.956 227.144 165.692 227.144ZM165.692 225.992C163.788 225.992 162.572 224.488 162.572 221.592V220.952C162.572 218.136 163.724 216.536 165.66 216.536C167.596 216.536 168.716 218.264 168.716 220.92V221.56C168.716 224.456 167.692 225.992 165.692 225.992ZM174.518 227.144C175.75 227.144 176.502 226.728 177.126 225.944V227H178.454V221.48C178.454 219.144 176.998 218.488 175.398 218.488C173.782 218.488 172.262 219.192 172.086 221.096H173.414C173.542 220.072 174.182 219.592 175.334 219.592C176.614 219.592 177.126 220.152 177.126 221.48V222.088H175.926C173.782 222.088 171.734 222.744 171.734 224.68C171.734 226.392 172.966 227.144 174.518 227.144ZM174.646 226.088C173.478 226.088 173.062 225.544 173.062 224.68C173.062 223.448 174.294 223.032 175.974 223.032H177.126V224.072C177.126 225.368 176.054 226.088 174.646 226.088ZM180.295 227H181.607L182.711 223.704H187.431L188.551 227H189.927L186.055 215.56H184.231L180.295 227ZM185.079 216.712L187.063 222.6H183.095L185.079 216.712ZM191.844 227H193.172V222.664L196.884 227H198.5L194.612 222.52L198.196 218.632H196.644L193.172 222.488V214.632H191.844V227Z" fill="white"/>
<path d="M114.17 246H117.355C119.214 246 120.41 245.155 120.41 243.4V243.348C120.41 242.139 119.903 241.45 118.551 241.125C119.617 240.761 119.955 240.007 119.955 239.162V239.11C119.955 237.277 118.694 236.705 116.965 236.705H114.17V246ZM115.275 240.761V237.589H116.939C118.239 237.589 118.85 238.018 118.85 239.071V239.123C118.85 240.267 118.33 240.761 116.965 240.761H115.275ZM115.275 245.116V241.645H117.173C118.668 241.645 119.305 242.191 119.305 243.335V243.387C119.305 244.518 118.681 245.116 117.329 245.116H115.275ZM122.725 237.784C123.115 237.784 123.44 237.459 123.44 237.069C123.44 236.679 123.115 236.354 122.725 236.354C122.335 236.354 122.01 236.679 122.01 237.069C122.01 237.459 122.335 237.784 122.725 237.784ZM122.205 246H123.284V239.201H122.205V246ZM127.559 246.091C128.001 246.091 128.261 246.026 128.482 245.948V245.038C128.248 245.129 127.988 245.181 127.65 245.181C127.104 245.181 126.805 244.856 126.805 244.193V240.111H128.391V239.201H126.805V237.654H125.726V239.201H124.751V240.111H125.726V244.297C125.726 245.363 126.324 246.091 127.559 246.091ZM132.934 246.117C134.572 246.117 135.755 245.025 135.898 243.556H134.897C134.78 244.661 133.909 245.22 132.947 245.22C131.634 245.22 130.724 244.336 130.724 242.672V242.568C130.724 240.969 131.673 239.981 132.908 239.981C133.844 239.981 134.624 240.384 134.793 241.463H135.859C135.651 239.734 134.325 239.084 132.908 239.084C131.088 239.084 129.606 240.488 129.606 242.568V242.672C129.606 244.778 131.036 246.117 132.934 246.117ZM140.349 246.117C142.286 246.117 143.703 244.7 143.703 242.646V242.542C143.703 240.501 142.286 239.084 140.362 239.084C138.438 239.084 137.021 240.514 137.021 242.555V242.659C137.021 244.648 138.412 246.117 140.349 246.117ZM140.362 245.22C138.984 245.22 138.139 244.206 138.139 242.659V242.555C138.139 240.995 138.997 239.981 140.362 239.981C141.714 239.981 142.585 240.995 142.585 242.568V242.659C142.585 244.193 141.727 245.22 140.362 245.22ZM145.919 237.784C146.309 237.784 146.634 237.459 146.634 237.069C146.634 236.679 146.309 236.354 145.919 236.354C145.529 236.354 145.204 236.679 145.204 237.069C145.204 237.459 145.529 237.784 145.919 237.784ZM145.399 246H146.478V239.201H145.399V246ZM148.687 246H149.766V241.879C149.766 240.657 150.663 240.02 151.664 240.02C152.756 240.02 153.263 240.553 153.263 241.749V246H154.342V241.827C154.342 239.851 153.354 239.084 151.95 239.084C150.832 239.084 150.078 239.643 149.766 240.28V239.201H148.687V246ZM161.6 246.117C162.601 246.117 163.212 245.779 163.719 245.142V246H164.798V241.515C164.798 239.617 163.615 239.084 162.315 239.084C161.002 239.084 159.767 239.656 159.624 241.203H160.703C160.807 240.371 161.327 239.981 162.263 239.981C163.303 239.981 163.719 240.436 163.719 241.515V242.009H162.744C161.002 242.009 159.338 242.542 159.338 244.115C159.338 245.506 160.339 246.117 161.6 246.117ZM161.704 245.259C160.755 245.259 160.417 244.817 160.417 244.115C160.417 243.114 161.418 242.776 162.783 242.776H163.719V243.621C163.719 244.674 162.848 245.259 161.704 245.259ZM169.478 246.117C170.466 246.117 171.415 245.493 171.805 244.83V246H172.884V235.951H171.805V240.293C171.415 239.63 170.713 239.084 169.582 239.084C167.71 239.084 166.41 240.553 166.41 242.633V242.737C166.41 244.856 167.697 246.117 169.478 246.117ZM169.595 245.22C168.451 245.22 167.528 244.401 167.528 242.685V242.581C167.528 240.93 168.334 239.981 169.686 239.981C171.012 239.981 171.844 240.8 171.844 242.542V242.646C171.844 244.388 170.856 245.22 169.595 245.22ZM177.629 246.117C178.617 246.117 179.566 245.493 179.956 244.83V246H181.035V235.951H179.956V240.293C179.566 239.63 178.864 239.084 177.733 239.084C175.861 239.084 174.561 240.553 174.561 242.633V242.737C174.561 244.856 175.848 246.117 177.629 246.117ZM177.746 245.22C176.602 245.22 175.679 244.401 175.679 242.685V242.581C175.679 240.93 176.485 239.981 177.837 239.981C179.163 239.981 179.995 240.8 179.995 242.542V242.646C179.995 244.388 179.007 245.22 177.746 245.22ZM183.218 246H184.297V242.269C184.297 240.592 185.168 240.163 186.533 240.098V239.084C185.311 239.123 184.726 239.656 184.297 240.423V239.201H183.218V246ZM190.697 246.117C192.231 246.117 193.362 245.402 193.596 244.037H192.517C192.374 244.83 191.763 245.22 190.71 245.22C189.319 245.22 188.578 244.362 188.526 242.815H193.648V242.464C193.648 240.033 192.166 239.084 190.593 239.084C188.721 239.084 187.408 240.514 187.408 242.568V242.672C187.408 244.765 188.773 246.117 190.697 246.117ZM188.565 241.944C188.747 240.735 189.488 239.981 190.593 239.981C191.711 239.981 192.439 240.54 192.543 241.944H188.565ZM197.473 246.117C199.124 246.117 199.969 245.285 199.969 244.05C199.969 242.607 198.981 242.295 197.577 242.035C196.329 241.814 195.991 241.567 195.991 240.956C195.991 240.371 196.498 239.981 197.278 239.981C198.136 239.981 198.552 240.306 198.708 241.047H199.748C199.566 239.578 198.513 239.084 197.291 239.084C196.225 239.084 194.99 239.734 194.99 240.995C194.99 242.178 195.588 242.672 197.356 242.997C198.409 243.192 198.942 243.426 198.942 244.141C198.942 244.869 198.487 245.22 197.46 245.22C196.368 245.22 195.939 244.713 195.861 243.907H194.808C194.873 245.298 195.848 246.117 197.473 246.117ZM203.719 246.117C205.37 246.117 206.215 245.285 206.215 244.05C206.215 242.607 205.227 242.295 203.823 242.035C202.575 241.814 202.237 241.567 202.237 240.956C202.237 240.371 202.744 239.981 203.524 239.981C204.382 239.981 204.798 240.306 204.954 241.047H205.994C205.812 239.578 204.759 239.084 203.537 239.084C202.471 239.084 201.236 239.734 201.236 240.995C201.236 242.178 201.834 242.672 203.602 242.997C204.655 243.192 205.188 243.426 205.188 244.141C205.188 244.869 204.733 245.22 203.706 245.22C202.614 245.22 202.185 244.713 202.107 243.907H201.054C201.119 245.298 202.094 246.117 203.719 246.117Z" fill="#8A919E"/>
<path d="M80.9999 231C78.0533 231 75.6666 228.613 75.6666 225.666C75.6666 222.72 78.0533 220.333 80.9999 220.333C83.9466 220.333 86.3332 222.72 86.3332 225.666C86.3332 228.613 83.9466 231 80.9999 231ZM80.9999 221.666C78.7999 221.666 77 223.466 77 225.666C77 227.866 78.7999 229.666 80.9999 229.666C83.1999 229.666 84.9999 227.866 84.9999 225.666C84.9999 223.466 83.1999 221.666 80.9999 221.666Z" fill="#CED2DB"/>
<path d="M80.9998 232.56C75.0665 232.56 72.1465 235.933 70.7732 238.533C71.0799 238.893 71.3999 239.24 71.7332 239.56C72.9332 237.013 75.5198 233.88 80.9998 233.88C86.4798 233.88 89.0664 237.013 90.2664 239.56C90.5998 239.226 90.9331 238.893 91.2264 238.533C89.8531 235.933 86.9331 232.56 80.9998 232.56Z" fill="#CED2DB"/>
<path d="M80.9999 246C72.1733 246 65 238.827 65 230C65 221.173 72.1733 214 80.9999 214C89.8266 214 96.9999 221.173 96.9999 230C96.9999 238.827 89.8266 246 80.9999 246ZM80.9999 215.333C72.9066 215.333 66.3333 221.907 66.3333 230C66.3333 238.093 72.9066 244.667 80.9999 244.667C89.0932 244.667 95.6665 238.093 95.6665 230C95.6665 221.907 89.0932 215.333 80.9999 215.333Z" fill="#CED2DB"/>
<path d="M80.9999 231C78.0533 231 75.6666 228.613 75.6666 225.666C75.6666 222.72 78.0533 220.333 80.9999 220.333C83.9466 220.333 86.3332 222.72 86.3332 225.666C86.3332 228.613 83.9466 231 80.9999 231ZM80.9999 221.666C78.7999 221.666 77 223.466 77 225.666C77 227.866 78.7999 229.666 80.9999 229.666C83.1999 229.666 84.9999 227.866 84.9999 225.666C84.9999 223.466 83.1999 221.666 80.9999 221.666Z" fill="#CED2DB"/>
<path d="M80.9998 232.56C75.0665 232.56 72.1465 235.933 70.7732 238.533C71.0799 238.893 71.3999 239.24 71.7332 239.56C72.9332 237.013 75.5198 233.88 80.9998 233.88C86.4798 233.88 89.0664 237.013 90.2664 239.56C90.5998 239.226 90.9331 238.893 91.2264 238.533C89.8531 235.933 86.9331 232.56 80.9998 232.56Z" fill="#CED2DB"/>
<path d="M80.9999 246C72.1733 246 65 238.827 65 230C65 221.173 72.1733 214 80.9999 214C89.8266 214 96.9999 221.173 96.9999 230C96.9999 238.827 89.8266 246 80.9999 246ZM80.9999 215.333C72.9066 215.333 66.3333 221.907 66.3333 230C66.3333 238.093 72.9066 244.667 80.9999 244.667C89.0932 244.667 95.6665 238.093 95.6665 230C95.6665 221.907 89.0932 215.333 80.9999 215.333Z" fill="#CED2DB"/>
<circle cx="81" cy="230" r="15.6667" fill="#141519" stroke="#A5AAB6" stroke-width="0.666667"/>
<rect width="12" height="12" transform="translate(75 224)" fill="#141519"/>
<path fill-rule="evenodd" clip-rule="evenodd" d="M85 227H77C76.45 227 76 226.55 76 226C76 225.45 76.45 225 77 225H85V227ZM76 233.5V228H86V235H77.5C76.67 235 76 234.33 76 233.5ZM83.25 231.5C83.25 231.91 83.59 232.25 84 232.25C84.41 232.25 84.75 231.91 84.75 231.5C84.75 231.09 84.41 230.75 84 230.75C83.59 230.75 83.25 231.09 83.25 231.5Z" fill="#1652F0"/>
<circle cx="81" cy="230" r="15.5" stroke="#32353D"/>
<path fill-rule="evenodd" clip-rule="evenodd" d="M85 227H77C76.45 227 76 226.55 76 226C76 225.45 76.45 225 77 225H85V227ZM76 233.5V228H86V235H77.5C76.67 235 76 234.33 76 233.5ZM83.25 231.5C83.25 231.91 83.59 232.25 84 232.25C84.41 232.25 84.75 231.91 84.75 231.5C84.75 231.09 84.41 230.75 84 230.75C83.59 230.75 83.25 231.09 83.25 231.5Z" fill="#32353D"/>
<defs>
<filter id="filter0_ddd" x="21" y="27" width="365" height="273" filterUnits="userSpaceOnUse" color-interpolation-filters="sRGB">
<feFlood flood-opacity="0" result="BackgroundImageFix"/>
<feColorMatrix in="SourceAlpha" type="matrix" values="0 0 0 0 0 0 0 0 0 0 0 0 0 0 0 0 0 0 127 0"/>
<feOffset dy="3"/>
<feGaussianBlur stdDeviation="2.5"/>
<feColorMatrix type="matrix" values="0 0 0 0 0 0 0 0 0 0 0 0 0 0 0 0 0 0 0.2 0"/>
<feBlend mode="normal" in2="BackgroundImageFix" result="effect1_dropShadow"/>
<feColorMatrix in="SourceAlpha" type="matrix" values="0 0 0 0 0 0 0 0 0 0 0 0 0 0 0 0 0 0 127 0"/>
<feOffset dy="1"/>
<feGaussianBlur stdDeviation="9"/>
<feColorMatrix type="matrix" values="0 0 0 0 0 0 0 0 0 0 0 0 0 0 0 0 0 0 0.12 0"/>
<feBlend mode="normal" in2="effect1_dropShadow" result="effect2_dropShadow"/>
<feColorMatrix in="SourceAlpha" type="matrix" values="0 0 0 0 0 0 0 0 0 0 0 0 0 0 0 0 0 0 127 0"/>
<feOffset dy="6"/>
<feGaussianBlur stdDeviation="5"/>
<feColorMatrix type="matrix" values="0 0 0 0 0 0 0 0 0 0 0 0 0 0 0 0 0 0 0.14 0"/>
<feBlend mode="normal" in2="effect2_dropShadow" result="effect3_dropShadow"/>
<feBlend mode="normal" in="SourceGraphic" in2="effect3_dropShadow" result="shape"/>
</filter>
<clipPath id="clip0">
<rect width="32" height="32" fill="white" transform="translate(65 70)"/>
</clipPath>
</defs>
</svg>
