<svg width="407" height="235" viewBox="0 0 407 235" fill="none" xmlns="http://www.w3.org/2000/svg">
<g filter="url(#filter0_d)">
<g filter="url(#filter1_d)">
<rect x="53.5" y="40" width="300" height="155" rx="4" fill="white"/>
<rect x="53" y="39.5" width="301" height="156" rx="4.5" stroke="#5B616E" stroke-opacity="0.2"/>
</g>
<path d="M66.2173 63.7273H67.8295L69.9886 68.9972H70.0739L72.233 63.7273H73.8452V71H72.581V66.0036H72.5135L70.5036 70.9787H69.5589L67.549 65.9929H67.4815V71H66.2173V63.7273ZM75.7827 63.7273H77.2706L79.0497 66.9446H79.1207L80.8999 63.7273H82.3878L79.7422 68.2869V71H78.4283V68.2869L75.7827 63.7273ZM87.8013 71V63.7273H92.4604V64.8317H89.1188V66.8061H92.1408V67.9105H89.1188V71H87.8013ZM94.6864 71H93.2802L95.8406 63.7273H97.467L100.031 71H98.6246L96.6822 65.2188H96.6254L94.6864 71ZM94.7326 68.1484H98.5678V69.2067H94.7326V68.1484ZM102.132 63.7273L104.025 69.4517H104.099L105.988 63.7273H107.437L104.873 71H103.247L100.686 63.7273H102.132ZM115.503 67.3636C115.503 68.1473 115.356 68.8184 115.063 69.3771C114.771 69.9335 114.374 70.3596 113.869 70.6555C113.368 70.9515 112.798 71.0994 112.161 71.0994C111.525 71.0994 110.954 70.9515 110.45 70.6555C109.948 70.3572 109.55 69.9299 109.257 69.3736C108.965 68.8149 108.82 68.1449 108.82 67.3636C108.82 66.58 108.965 65.91 109.257 65.3537C109.55 64.795 109.948 64.3677 110.45 64.0717C110.954 63.7758 111.525 63.6278 112.161 63.6278C112.798 63.6278 113.368 63.7758 113.869 64.0717C114.374 64.3677 114.771 64.795 115.063 65.3537C115.356 65.91 115.503 66.58 115.503 67.3636ZM114.178 67.3636C114.178 66.812 114.092 66.3468 113.919 65.968C113.749 65.5869 113.512 65.2992 113.209 65.1051C112.906 64.9086 112.557 64.8104 112.161 64.8104C111.766 64.8104 111.417 64.9086 111.114 65.1051C110.811 65.2992 110.573 65.5869 110.4 65.968C110.23 66.3468 110.144 66.812 110.144 67.3636C110.144 67.9152 110.23 68.3816 110.4 68.7628C110.573 69.1416 110.811 69.4292 111.114 69.6257C111.417 69.8198 111.766 69.9169 112.161 69.9169C112.557 69.9169 112.906 69.8198 113.209 69.6257C113.512 69.4292 113.749 69.1416 113.919 68.7628C114.092 68.3816 114.178 67.9152 114.178 67.3636ZM122.333 63.7273H123.651V68.4787C123.651 68.9995 123.527 69.4576 123.281 69.853C123.037 70.2483 122.694 70.5573 122.251 70.7798C121.809 71 121.291 71.1101 120.7 71.1101C120.105 71.1101 119.587 71 119.144 70.7798C118.701 70.5573 118.358 70.2483 118.114 69.853C117.871 69.4576 117.749 68.9995 117.749 68.4787V63.7273H119.066V68.3686C119.066 68.6716 119.132 68.9415 119.265 69.1783C119.4 69.415 119.589 69.6009 119.833 69.7358C120.077 69.8684 120.366 69.9347 120.7 69.9347C121.033 69.9347 121.322 69.8684 121.566 69.7358C121.812 69.6009 122.002 69.415 122.134 69.1783C122.267 68.9415 122.333 68.6716 122.333 68.3686V63.7273ZM126.083 71V63.7273H128.81C129.369 63.7273 129.837 63.8243 130.216 64.0185C130.597 64.2126 130.885 64.4848 131.079 64.8352C131.276 65.1832 131.374 65.5893 131.374 66.0533C131.374 66.5196 131.274 66.9245 131.075 67.2678C130.879 67.6087 130.589 67.8726 130.205 68.0597C129.822 68.2443 129.351 68.3366 128.792 68.3366H126.85V67.2429H128.615C128.941 67.2429 129.209 67.1979 129.417 67.108C129.625 67.0156 129.779 66.8819 129.879 66.7067C129.981 66.5291 130.031 66.3113 130.031 66.0533C130.031 65.7952 129.981 65.575 129.879 65.3928C129.777 65.2081 129.622 65.0684 129.414 64.9737C129.205 64.8767 128.936 64.8281 128.607 64.8281H127.4V71H126.083ZM129.84 67.7045L131.64 71H130.17L128.401 67.7045H129.84ZM134.904 63.7273V71H133.586V63.7273H134.904ZM137.011 64.8317V63.7273H142.814V64.8317H140.566V71H139.259V64.8317H137.011ZM144.932 71V63.7273H149.662V64.8317H146.25V66.8061H149.417V67.9105H146.25V69.8956H149.691V71H144.932ZM155.959 65.7266C155.926 65.4164 155.786 65.175 155.54 65.0021C155.296 64.8293 154.979 64.7429 154.588 64.7429C154.313 64.7429 154.078 64.7843 153.881 64.8672C153.685 64.95 153.535 65.0625 153.43 65.2045C153.326 65.3466 153.273 65.5088 153.271 65.6911C153.271 65.8426 153.305 65.974 153.374 66.0852C153.445 66.1965 153.54 66.2912 153.661 66.3693C153.782 66.4451 153.916 66.509 154.062 66.5611C154.209 66.6132 154.357 66.657 154.506 66.6925L155.188 66.8629C155.463 66.9268 155.727 67.0133 155.98 67.1222C156.236 67.2311 156.464 67.3684 156.665 67.5341C156.869 67.6998 157.03 67.8999 157.148 68.1342C157.267 68.3686 157.326 68.6432 157.326 68.9581C157.326 69.3842 157.217 69.7595 156.999 70.0838C156.781 70.4058 156.467 70.6579 156.055 70.8402C155.645 71.0201 155.149 71.1101 154.567 71.1101C154.001 71.1101 153.51 71.0225 153.093 70.8473C152.679 70.6721 152.354 70.4164 152.12 70.0803C151.888 69.7441 151.763 69.3345 151.744 68.8516H153.04C153.059 69.1049 153.137 69.3156 153.274 69.4837C153.411 69.6518 153.59 69.7772 153.81 69.8601C154.033 69.9429 154.281 69.9844 154.556 69.9844C154.843 69.9844 155.094 69.9418 155.309 69.8565C155.527 69.7689 155.697 69.6482 155.82 69.4943C155.943 69.3381 156.006 69.1558 156.009 68.9474C156.006 68.758 155.951 68.6018 155.842 68.4787C155.733 68.3532 155.58 68.2491 155.384 68.1662C155.189 68.081 154.962 68.0052 154.702 67.9389L153.874 67.7259C153.275 67.572 152.802 67.3388 152.454 67.0263C152.108 66.7114 151.935 66.2936 151.935 65.7727C151.935 65.3442 152.051 64.969 152.283 64.647C152.518 64.325 152.836 64.0753 153.239 63.8977C153.641 63.7178 154.097 63.6278 154.606 63.6278C155.122 63.6278 155.574 63.7178 155.962 63.8977C156.353 64.0753 156.66 64.3227 156.882 64.6399C157.105 64.9548 157.219 65.317 157.227 65.7266H155.959Z" fill="#5B636E"/>
<path d="M86.3608 98V89.2727H89.7017C90.3324 89.2727 90.8565 89.3722 91.2741 89.571C91.6946 89.767 92.0085 90.0355 92.2159 90.3764C92.4261 90.7173 92.5312 91.1037 92.5312 91.5355C92.5312 91.8906 92.4631 92.1946 92.3267 92.4474C92.1903 92.6974 92.0071 92.9006 91.777 93.0568C91.5469 93.2131 91.2898 93.3253 91.0057 93.3935V93.4787C91.3153 93.4957 91.6122 93.5909 91.8963 93.7642C92.1832 93.9347 92.4176 94.1761 92.5994 94.4886C92.7813 94.8011 92.8722 95.179 92.8722 95.6222C92.8722 96.0739 92.7628 96.4801 92.544 96.8409C92.3253 97.1989 91.9957 97.4815 91.5554 97.6889C91.1151 97.8963 90.5611 98 89.8935 98H86.3608ZM87.9418 96.679H89.642C90.2159 96.679 90.6293 96.5696 90.8821 96.3509C91.1378 96.1293 91.2656 95.8452 91.2656 95.4986C91.2656 95.2401 91.2017 95.0071 91.0739 94.7997C90.946 94.5895 90.7642 94.4247 90.5284 94.3054C90.2926 94.1832 90.0114 94.1222 89.6847 94.1222H87.9418V96.679ZM87.9418 92.9844H89.5057C89.7784 92.9844 90.0241 92.9347 90.2429 92.8352C90.4616 92.733 90.6335 92.5895 90.7585 92.4048C90.8864 92.2173 90.9503 91.9957 90.9503 91.7401C90.9503 91.402 90.831 91.1236 90.5923 90.9048C90.3565 90.6861 90.0057 90.5767 89.5398 90.5767H87.9418V92.9844ZM93.864 90.598V89.2727H100.827V90.598H98.1296V98H96.5614V90.598H93.864ZM109.265 92.2173H107.671C107.625 91.956 107.542 91.7244 107.419 91.5227C107.297 91.3182 107.145 91.1449 106.963 91.0028C106.782 90.8608 106.574 90.7543 106.341 90.6832C106.111 90.6094 105.863 90.5724 105.596 90.5724C105.121 90.5724 104.701 90.6918 104.334 90.9304C103.968 91.1662 103.681 91.5128 103.473 91.9702C103.266 92.4247 103.162 92.9801 103.162 93.6364C103.162 94.304 103.266 94.8665 103.473 95.3239C103.684 95.7784 103.971 96.1222 104.334 96.3551C104.701 96.5852 105.12 96.7003 105.591 96.7003C105.853 96.7003 106.097 96.6662 106.324 96.598C106.554 96.527 106.76 96.4233 106.942 96.2869C107.127 96.1506 107.282 95.983 107.407 95.7841C107.534 95.5852 107.623 95.358 107.671 95.1023L109.265 95.1108C109.205 95.5256 109.076 95.9148 108.877 96.2784C108.681 96.642 108.424 96.9631 108.105 97.2415C107.787 97.517 107.415 97.733 106.989 97.8892C106.563 98.0426 106.09 98.1193 105.57 98.1193C104.803 98.1193 104.118 97.9418 103.516 97.5866C102.914 97.2315 102.439 96.7188 102.093 96.0483C101.746 95.3778 101.573 94.5739 101.573 93.6364C101.573 92.696 101.748 91.892 102.097 91.2244C102.446 90.554 102.922 90.0412 103.525 89.6861C104.127 89.331 104.809 89.1534 105.57 89.1534C106.056 89.1534 106.507 89.2216 106.925 89.358C107.343 89.4943 107.715 89.6946 108.042 89.9588C108.368 90.2202 108.637 90.5412 108.847 90.9219C109.06 91.2997 109.199 91.7315 109.265 92.2173ZM114.612 93.0014V94.2713H110.683V93.0014H114.612ZM121.804 89.2727H123.385V94.9744C123.385 95.5994 123.237 96.1491 122.941 96.6236C122.649 97.098 122.237 97.4687 121.706 97.7358C121.174 98 120.554 98.1321 119.843 98.1321C119.13 98.1321 118.508 98 117.977 97.7358C117.446 97.4687 117.034 97.098 116.741 96.6236C116.449 96.1491 116.302 95.5994 116.302 94.9744V89.2727H117.883V94.8423C117.883 95.206 117.963 95.5298 118.122 95.8139C118.284 96.098 118.511 96.321 118.804 96.483C119.096 96.642 119.443 96.7216 119.843 96.7216C120.244 96.7216 120.591 96.642 120.883 96.483C121.179 96.321 121.406 96.098 121.565 95.8139C121.724 95.5298 121.804 95.206 121.804 94.8423V89.2727ZM129.846 91.6719C129.806 91.2997 129.638 91.0099 129.343 90.8026C129.05 90.5952 128.67 90.4915 128.201 90.4915C127.871 90.4915 127.589 90.5412 127.353 90.6406C127.117 90.7401 126.937 90.875 126.812 91.0455C126.687 91.2159 126.623 91.4105 126.62 91.6293C126.62 91.8111 126.661 91.9687 126.744 92.1023C126.829 92.2358 126.944 92.3494 127.089 92.4432C127.234 92.5341 127.394 92.6108 127.57 92.6733C127.746 92.7358 127.924 92.7884 128.103 92.831L128.921 93.0355C129.251 93.1122 129.567 93.2159 129.871 93.3466C130.178 93.4773 130.452 93.642 130.694 93.8409C130.938 94.0398 131.131 94.2798 131.273 94.5611C131.415 94.8423 131.487 95.1719 131.487 95.5497C131.487 96.0611 131.356 96.5114 131.094 96.9006C130.833 97.2869 130.455 97.5895 129.961 97.8082C129.469 98.0241 128.874 98.1321 128.175 98.1321C127.496 98.1321 126.907 98.027 126.407 97.8168C125.91 97.6065 125.521 97.2997 125.239 96.8963C124.961 96.4929 124.81 96.0014 124.788 95.4219H126.343C126.366 95.7259 126.46 95.9787 126.624 96.1804C126.789 96.3821 127.004 96.5327 127.268 96.6321C127.535 96.7315 127.833 96.7812 128.163 96.7812C128.506 96.7812 128.808 96.7301 129.066 96.6278C129.327 96.5227 129.532 96.3778 129.68 96.1932C129.827 96.0057 129.903 95.7869 129.906 95.5369C129.903 95.3097 129.836 95.1222 129.705 94.9744C129.575 94.8239 129.391 94.6989 129.156 94.5994C128.923 94.4972 128.65 94.4062 128.337 94.3267L127.344 94.071C126.626 93.8864 126.058 93.6065 125.64 93.2315C125.225 92.8537 125.018 92.3523 125.018 91.7273C125.018 91.2131 125.157 90.7628 125.435 90.3764C125.717 89.9901 126.099 89.6903 126.582 89.4773C127.065 89.2614 127.612 89.1534 128.222 89.1534C128.842 89.1534 129.384 89.2614 129.85 89.4773C130.319 89.6903 130.687 89.9872 130.954 90.3679C131.221 90.7457 131.359 91.1804 131.367 91.6719H129.846ZM135.853 98H132.896V89.2727H135.913C136.779 89.2727 137.524 89.4474 138.146 89.7969C138.771 90.1435 139.251 90.642 139.586 91.2926C139.922 91.9432 140.089 92.7216 140.089 93.6278C140.089 94.5369 139.92 95.3182 139.582 95.9716C139.247 96.625 138.762 97.1264 138.129 97.4759C137.498 97.8253 136.74 98 135.853 98ZM134.477 96.6321H135.777C136.385 96.6321 136.892 96.5213 137.298 96.2997C137.704 96.0753 138.01 95.7415 138.214 95.2983C138.419 94.8523 138.521 94.2955 138.521 93.6278C138.521 92.9602 138.419 92.4062 138.214 91.9659C138.01 91.5227 137.707 91.1918 137.306 90.973C136.909 90.7514 136.414 90.6406 135.824 90.6406H134.477V96.6321Z" fill="#0A0B0D"/>
<path fill-rule="evenodd" clip-rule="evenodd" d="M67.5 89V99L71.5 96.1429L75.5 99V89H67.5ZM72.1773 92.8975L73.3573 93.0795V93.0784C73.3881 93.0832 73.417 93.097 73.4408 93.1183C73.4645 93.1396 73.4822 93.1675 73.4919 93.1989C73.5015 93.2304 73.5026 93.264 73.4951 93.2961C73.4877 93.3282 73.4719 93.3574 73.4496 93.3804L72.5956 94.2655L72.7976 95.5139C72.8017 95.5393 72.8005 95.5654 72.7941 95.5903C72.7877 95.6152 72.7763 95.6383 72.7606 95.658C72.7449 95.6777 72.7254 95.6935 72.7033 95.7043C72.6813 95.7151 72.6573 95.7207 72.633 95.7207C72.606 95.7208 72.5794 95.7139 72.5556 95.7005L71.5 95.111L70.4444 95.7015C70.4168 95.717 70.3858 95.7239 70.3547 95.7215C70.3237 95.7192 70.2939 95.7076 70.2687 95.6882C70.2435 95.6688 70.224 95.6423 70.2122 95.6117C70.2005 95.581 70.1971 95.5475 70.2024 95.515L70.4044 94.2666L69.5504 93.3815C69.5281 93.3584 69.5123 93.3292 69.5049 93.2972C69.4974 93.2651 69.4985 93.2314 69.5081 93.2C69.5178 93.1686 69.5355 93.1406 69.5592 93.1193C69.583 93.098 69.6119 93.0842 69.6427 93.0795L70.8227 92.8975L71.3493 91.7617C71.3646 91.7339 71.3865 91.7108 71.4128 91.6948C71.4392 91.6787 71.469 91.6702 71.4993 91.6702C71.5297 91.6702 71.5595 91.6787 71.5858 91.6948C71.6121 91.7108 71.634 91.7339 71.6493 91.7617L72.1773 92.8975Z" fill="#0A0B0D"/>
<path fill-rule="evenodd" clip-rule="evenodd" d="M67.5 113V123L71.5 120.143L75.5 123V113H67.5ZM72.1773 117.208L73.3573 117.39V117.389C73.3881 117.394 73.417 117.407 73.4408 117.429C73.4645 117.45 73.4822 117.478 73.4919 117.509C73.5015 117.541 73.5026 117.574 73.4951 117.606C73.4877 117.639 73.4719 117.668 73.4496 117.691L72.5956 118.576L72.7976 119.824C72.8017 119.85 72.8005 119.876 72.7941 119.901C72.7877 119.926 72.7763 119.949 72.7606 119.968C72.7449 119.988 72.7254 120.004 72.7033 120.015C72.6813 120.025 72.6573 120.031 72.633 120.031C72.606 120.031 72.5794 120.024 72.5556 120.011L71.5 119.421L70.4444 120.012C70.4168 120.027 70.3858 120.034 70.3547 120.032C70.3237 120.03 70.2939 120.018 70.2687 119.999C70.2435 119.979 70.224 119.953 70.2122 119.922C70.2005 119.891 70.1971 119.858 70.2024 119.825L70.4044 118.577L69.5504 117.692C69.5281 117.669 69.5123 117.64 69.5049 117.608C69.4974 117.575 69.4985 117.542 69.5081 117.51C69.5178 117.479 69.5355 117.451 69.5592 117.43C69.583 117.408 69.6119 117.395 69.6427 117.39L70.8227 117.208L71.3493 116.072C71.3646 116.044 71.3865 116.021 71.4128 116.005C71.4392 115.989 71.469 115.981 71.4993 115.981C71.5297 115.981 71.5595 115.989 71.5858 116.005C71.6121 116.021 71.634 116.044 71.6493 116.072L72.1773 117.208Z" fill="#0A0B0D"/>
<path fill-rule="evenodd" clip-rule="evenodd" d="M67.5 137V147L71.5 144.143L75.5 147V137H67.5ZM72.1773 141.518L73.3573 141.7V141.699C73.3881 141.704 73.417 141.718 73.4408 141.739C73.4645 141.76 73.4822 141.788 73.4919 141.82C73.5015 141.851 73.5026 141.885 73.4951 141.917C73.4877 141.949 73.4719 141.978 73.4496 142.001L72.5956 142.886L72.7976 144.135C72.8017 144.16 72.8005 144.186 72.7941 144.211C72.7877 144.236 72.7763 144.259 72.7606 144.279C72.7449 144.298 72.7254 144.314 72.7033 144.325C72.6813 144.336 72.6573 144.341 72.633 144.341C72.606 144.342 72.5794 144.335 72.5556 144.321L71.5 143.732L70.4444 144.322C70.4168 144.338 70.3858 144.345 70.3547 144.342C70.3237 144.34 70.2939 144.328 70.2687 144.309C70.2435 144.289 70.224 144.263 70.2122 144.232C70.2005 144.202 70.1971 144.168 70.2024 144.136L70.4044 142.887L69.5504 142.002C69.5281 141.979 69.5123 141.95 69.5049 141.918C69.4974 141.886 69.4985 141.852 69.5081 141.821C69.5178 141.789 69.5355 141.761 69.5592 141.74C69.583 141.719 69.6119 141.705 69.6427 141.7L70.8227 141.518L71.3493 140.382C71.3646 140.355 71.3865 140.332 71.4128 140.315C71.4392 140.299 71.469 140.291 71.4993 140.291C71.5297 140.291 71.5595 140.299 71.5858 140.315C71.6121 140.332 71.634 140.355 71.6493 140.382L72.1773 141.518Z" fill="#0A0B0D"/>
<path fill-rule="evenodd" clip-rule="evenodd" d="M67.5 161V171L71.5 168.143L75.5 171V161H67.5ZM72.1773 165.829L73.3573 166.011V166.009C73.3881 166.014 73.417 166.028 73.4408 166.049C73.4645 166.071 73.4822 166.099 73.4919 166.13C73.5015 166.161 73.5026 166.195 73.4951 166.227C73.4877 166.259 73.4719 166.288 73.4496 166.311L72.5956 167.197L72.7976 168.445C72.8017 168.47 72.8005 168.496 72.7941 168.521C72.7877 168.546 72.7763 168.569 72.7606 168.589C72.7449 168.609 72.7254 168.625 72.7033 168.635C72.6813 168.646 72.6573 168.652 72.633 168.652C72.606 168.652 72.5794 168.645 72.5556 168.632L71.5 168.042L70.4444 168.633C70.4168 168.648 70.3858 168.655 70.3547 168.653C70.3237 168.65 70.2939 168.639 70.2687 168.619C70.2435 168.6 70.224 168.573 70.2122 168.543C70.2005 168.512 70.1971 168.479 70.2024 168.446L70.4044 167.198L69.5504 166.313C69.5281 166.289 69.5123 166.26 69.5049 166.228C69.4974 166.196 69.4985 166.162 69.5081 166.131C69.5178 166.1 69.5355 166.072 69.5592 166.05C69.583 166.029 69.6119 166.015 69.6427 166.011L70.8227 165.829L71.3493 164.693C71.3646 164.665 71.3865 164.642 71.4128 164.626C71.4392 164.61 71.469 164.601 71.4993 164.601C71.5297 164.601 71.5595 164.61 71.5858 164.626C71.6121 164.642 71.634 164.665 71.6493 164.693L72.1773 165.829Z" fill="#0A0B0D"/>
<path d="M273.094 96.3807V95.1236L276.798 89.2727H277.846V91.0625H277.207L274.714 95.0128V95.081H279.883V96.3807H273.094ZM277.258 98V95.9972L277.275 95.4347V89.2727H278.766V98H277.258ZM284.278 98.1193C283.71 98.1193 283.202 98.0128 282.753 97.7997C282.304 97.5838 281.947 97.2884 281.683 96.9134C281.422 96.5384 281.283 96.1094 281.266 95.6264H282.8C282.828 95.9844 282.983 96.277 283.264 96.5043C283.545 96.7287 283.884 96.8409 284.278 96.8409C284.588 96.8409 284.864 96.7699 285.105 96.6278C285.347 96.4858 285.537 96.2884 285.676 96.0355C285.815 95.7827 285.884 95.4943 285.881 95.1705C285.884 94.8409 285.814 94.5483 285.672 94.2926C285.53 94.0369 285.335 93.8366 285.088 93.6918C284.841 93.544 284.557 93.4702 284.236 93.4702C283.974 93.4673 283.717 93.5156 283.464 93.6151C283.212 93.7145 283.011 93.8452 282.864 94.0071L281.436 93.7727L281.892 89.2727H286.955V90.5938H283.2L282.949 92.9077H283C283.162 92.7173 283.391 92.5597 283.686 92.4347C283.982 92.3068 284.305 92.2429 284.658 92.2429C285.186 92.2429 285.658 92.3679 286.072 92.6179C286.487 92.8651 286.814 93.206 287.053 93.6406C287.291 94.0753 287.411 94.5724 287.411 95.1321C287.411 95.7088 287.277 96.223 287.01 96.6747C286.746 97.1236 286.378 97.4773 285.906 97.7358C285.438 97.9915 284.895 98.1193 284.278 98.1193ZM290.373 96.8068L290.318 97.2756C290.278 97.6335 290.207 97.9972 290.105 98.3665C290.005 98.7386 289.9 99.081 289.789 99.3935C289.679 99.706 289.589 99.9517 289.521 100.131H288.481C288.521 99.9574 288.575 99.7216 288.643 99.4233C288.714 99.125 288.782 98.7898 288.848 98.4176C288.913 98.0455 288.957 97.6676 288.98 97.2841L289.01 96.8068H290.373ZM294.923 98.1193C294.31 98.1193 293.764 98.0142 293.287 97.804C292.813 97.5937 292.438 97.3011 292.162 96.9261C291.886 96.5511 291.74 96.1179 291.723 95.6264H293.325C293.339 95.8622 293.418 96.0682 293.56 96.2443C293.702 96.4176 293.891 96.5526 294.126 96.6491C294.362 96.7457 294.626 96.794 294.919 96.794C295.232 96.794 295.509 96.7401 295.75 96.6321C295.991 96.5213 296.18 96.3679 296.317 96.1719C296.453 95.9759 296.52 95.75 296.517 95.4943C296.52 95.2301 296.452 94.9972 296.312 94.7955C296.173 94.5937 295.972 94.4361 295.707 94.3224C295.446 94.2088 295.131 94.152 294.761 94.152H293.99V92.9332H294.761C295.065 92.9332 295.331 92.8807 295.558 92.7756C295.788 92.6705 295.969 92.5227 296.099 92.3324C296.23 92.1392 296.294 91.9162 296.291 91.6634C296.294 91.4162 296.239 91.2017 296.125 91.0199C296.014 90.8352 295.857 90.6918 295.652 90.5895C295.45 90.4872 295.213 90.4361 294.94 90.4361C294.673 90.4361 294.426 90.4844 294.199 90.581C293.972 90.6776 293.788 90.8153 293.649 90.9943C293.51 91.1705 293.436 91.3807 293.428 91.625H291.906C291.918 91.1364 292.058 90.7074 292.328 90.3381C292.601 89.9659 292.964 89.6761 293.419 89.4688C293.874 89.2585 294.384 89.1534 294.949 89.1534C295.531 89.1534 296.037 89.2628 296.466 89.4815C296.898 89.6974 297.232 89.9886 297.467 90.3551C297.703 90.7216 297.821 91.1264 297.821 91.5696C297.824 92.0611 297.679 92.473 297.386 92.8054C297.097 93.1378 296.716 93.3551 296.244 93.4574V93.5256C296.858 93.6108 297.328 93.8381 297.655 94.2074C297.984 94.5739 298.148 95.0298 298.145 95.5753C298.145 96.0639 298.006 96.5014 297.727 96.8878C297.452 97.2713 297.071 97.5724 296.585 97.7912C296.102 98.0099 295.548 98.1193 294.923 98.1193ZM302.71 98.1193C302.076 98.1193 301.514 98.0128 301.022 97.7997C300.534 97.5866 300.15 97.2955 299.872 96.9261C299.596 96.554 299.46 96.1321 299.463 95.6605C299.46 95.294 299.539 94.9574 299.701 94.6506C299.863 94.3438 300.082 94.0881 300.358 93.8835C300.636 93.6761 300.946 93.544 301.287 93.4872V93.4276C300.838 93.3281 300.474 93.0994 300.196 92.7415C299.92 92.3807 299.784 91.9645 299.787 91.4929C299.784 91.044 299.909 90.6435 300.162 90.2912C300.414 89.9389 300.761 89.6619 301.201 89.4602C301.642 89.2557 302.145 89.1534 302.71 89.1534C303.27 89.1534 303.768 89.2557 304.206 89.4602C304.646 89.6619 304.993 89.9389 305.245 90.2912C305.501 90.6435 305.629 91.044 305.629 91.4929C305.629 91.9645 305.488 92.3807 305.207 92.7415C304.929 93.0994 304.569 93.3281 304.129 93.4276V93.4872C304.47 93.544 304.777 93.6761 305.049 93.8835C305.325 94.0881 305.544 94.3438 305.706 94.6506C305.87 94.9574 305.953 95.294 305.953 95.6605C305.953 96.1321 305.814 96.554 305.535 96.9261C305.257 97.2955 304.873 97.5866 304.385 97.7997C303.899 98.0128 303.341 98.1193 302.71 98.1193ZM302.71 96.9006C303.037 96.9006 303.321 96.8452 303.562 96.7344C303.804 96.6207 303.991 96.4616 304.125 96.2571C304.258 96.0526 304.326 95.8168 304.329 95.5497C304.326 95.2713 304.254 95.0256 304.112 94.8125C303.973 94.5966 303.781 94.4276 303.537 94.3054C303.295 94.1832 303.02 94.1222 302.71 94.1222C302.397 94.1222 302.119 94.1832 301.875 94.3054C301.63 94.4276 301.437 94.5966 301.295 94.8125C301.156 95.0256 301.088 95.2713 301.091 95.5497C301.088 95.8168 301.153 96.0526 301.287 96.2571C301.42 96.4588 301.608 96.6165 301.849 96.7301C302.093 96.8437 302.38 96.9006 302.71 96.9006ZM302.71 92.9247C302.977 92.9247 303.213 92.8707 303.417 92.7628C303.625 92.6548 303.788 92.5043 303.907 92.3111C304.027 92.1179 304.088 91.8949 304.091 91.642C304.088 91.392 304.028 91.1733 303.912 90.9858C303.795 90.7955 303.633 90.6491 303.426 90.5469C303.218 90.4418 302.98 90.3892 302.71 90.3892C302.434 90.3892 302.191 90.4418 301.981 90.5469C301.774 90.6491 301.612 90.7955 301.495 90.9858C301.382 91.1733 301.326 91.392 301.329 91.642C301.326 91.8949 301.383 92.1179 301.5 92.3111C301.619 92.5014 301.782 92.652 301.99 92.7628C302.2 92.8707 302.44 92.9247 302.71 92.9247ZM310.388 98.1193C309.82 98.1193 309.311 98.0128 308.862 97.7997C308.413 97.5838 308.057 97.2884 307.793 96.9134C307.531 96.5384 307.392 96.1094 307.375 95.6264H308.909C308.938 95.9844 309.092 96.277 309.374 96.5043C309.655 96.7287 309.993 96.8409 310.388 96.8409C310.697 96.8409 310.973 96.7699 311.214 96.6278C311.456 96.4858 311.646 96.2884 311.786 96.0355C311.925 95.7827 311.993 95.4943 311.99 95.1705C311.993 94.8409 311.923 94.5483 311.781 94.2926C311.639 94.0369 311.445 93.8366 311.197 93.6918C310.95 93.544 310.666 93.4702 310.345 93.4702C310.084 93.4673 309.827 93.5156 309.574 93.6151C309.321 93.7145 309.121 93.8452 308.973 94.0071L307.545 93.7727L308.001 89.2727H313.064V90.5938H309.31L309.058 92.9077H309.109C309.271 92.7173 309.5 92.5597 309.795 92.4347C310.091 92.3068 310.415 92.2429 310.767 92.2429C311.295 92.2429 311.767 92.3679 312.182 92.6179C312.597 92.8651 312.923 93.206 313.162 93.6406C313.401 94.0753 313.52 94.5724 313.52 95.1321C313.52 95.7088 313.386 96.223 313.119 96.6747C312.855 97.1236 312.487 97.4773 312.016 97.7358C311.547 97.9915 311.004 98.1193 310.388 98.1193ZM318.009 98V89.2727H321.35C321.981 89.2727 322.505 89.3722 322.923 89.571C323.343 89.767 323.657 90.0355 323.864 90.3764C324.075 90.7173 324.18 91.1037 324.18 91.5355C324.18 91.8906 324.112 92.1946 323.975 92.4474C323.839 92.6974 323.656 92.9006 323.425 93.0568C323.195 93.2131 322.938 93.3253 322.654 93.3935V93.4787C322.964 93.4957 323.261 93.5909 323.545 93.7642C323.832 93.9347 324.066 94.1761 324.248 94.4886C324.43 94.8011 324.521 95.179 324.521 95.6222C324.521 96.0739 324.411 96.4801 324.192 96.8409C323.974 97.1989 323.644 97.4815 323.204 97.6889C322.763 97.8963 322.21 98 321.542 98H318.009ZM319.59 96.679H321.29C321.864 96.679 322.278 96.5696 322.531 96.3509C322.786 96.1293 322.914 95.8452 322.914 95.4986C322.914 95.2401 322.85 95.0071 322.722 94.7997C322.594 94.5895 322.413 94.4247 322.177 94.3054C321.941 94.1832 321.66 94.1222 321.333 94.1222H319.59V96.679ZM319.59 92.9844H321.154C321.427 92.9844 321.673 92.9347 321.891 92.8352C322.11 92.733 322.282 92.5895 322.407 92.4048C322.535 92.2173 322.599 91.9957 322.599 91.7401C322.599 91.402 322.479 91.1236 322.241 90.9048C322.005 90.6861 321.654 90.5767 321.188 90.5767H319.59V92.9844ZM325.512 90.598V89.2727H332.475V90.598H329.778V98H328.21V90.598H325.512ZM340.913 92.2173H339.319C339.274 91.956 339.19 91.7244 339.068 91.5227C338.946 91.3182 338.794 91.1449 338.612 91.0028C338.43 90.8608 338.223 90.7543 337.99 90.6832C337.76 90.6094 337.511 90.5724 337.244 90.5724C336.77 90.5724 336.349 90.6918 335.983 90.9304C335.616 91.1662 335.329 91.5128 335.122 91.9702C334.914 92.4247 334.811 92.9801 334.811 93.6364C334.811 94.304 334.914 94.8665 335.122 95.3239C335.332 95.7784 335.619 96.1222 335.983 96.3551C336.349 96.5852 336.768 96.7003 337.24 96.7003C337.501 96.7003 337.745 96.6662 337.973 96.598C338.203 96.527 338.409 96.4233 338.591 96.2869C338.775 96.1506 338.93 95.983 339.055 95.7841C339.183 95.5852 339.271 95.358 339.319 95.1023L340.913 95.1108C340.853 95.5256 340.724 95.9148 340.525 96.2784C340.329 96.642 340.072 96.9631 339.754 97.2415C339.436 97.517 339.064 97.733 338.637 97.8892C338.211 98.0426 337.738 98.1193 337.218 98.1193C336.451 98.1193 335.767 97.9418 335.164 97.5866C334.562 97.2315 334.088 96.7188 333.741 96.0483C333.395 95.3778 333.221 94.5739 333.221 93.6364C333.221 92.696 333.396 91.892 333.745 91.2244C334.095 90.554 334.571 90.0412 335.173 89.6861C335.775 89.331 336.457 89.1534 337.218 89.1534C337.704 89.1534 338.156 89.2216 338.574 89.358C338.991 89.4943 339.363 89.6946 339.69 89.9588C340.017 90.2202 340.285 90.5412 340.495 90.9219C340.708 91.2997 340.848 91.7315 340.913 92.2173Z" fill="#098551"/>
<path d="M193.403 89.1278C193.821 89.1307 194.227 89.2045 194.622 89.3494C195.02 89.4943 195.377 89.7287 195.696 90.0526C196.014 90.3764 196.267 90.8097 196.454 91.3523C196.642 91.8949 196.735 92.5668 196.735 93.3679C196.735 94.1179 196.654 94.7884 196.493 95.3793C196.333 95.9673 196.105 96.4645 195.806 96.8707C195.511 97.277 195.153 97.5866 194.733 97.7997C194.312 98.0128 193.839 98.1193 193.314 98.1193C192.762 98.1193 192.274 98.0114 191.848 97.7955C191.424 97.5795 191.082 97.2841 190.821 96.9091C190.559 96.5341 190.399 96.1051 190.339 95.6222H191.895C191.974 95.9687 192.136 96.2443 192.38 96.4489C192.627 96.6506 192.939 96.7514 193.314 96.7514C193.919 96.7514 194.385 96.4886 194.711 95.9631C195.038 95.4375 195.201 94.7074 195.201 93.7727H195.142C195.002 94.0227 194.822 94.2386 194.6 94.4205C194.379 94.5994 194.127 94.7372 193.846 94.8338C193.568 94.9304 193.272 94.9787 192.96 94.9787C192.449 94.9787 191.988 94.8565 191.579 94.6122C191.17 94.3679 190.846 94.0327 190.608 93.6065C190.372 93.1776 190.254 92.6875 190.254 92.1364C190.254 91.5625 190.385 91.0483 190.646 90.5938C190.91 90.1392 191.278 89.7812 191.75 89.5199C192.221 89.2557 192.772 89.125 193.403 89.1278ZM193.407 90.4062C193.1 90.4062 192.824 90.4815 192.576 90.6321C192.332 90.7827 192.139 90.9858 191.997 91.2415C191.858 91.4972 191.788 91.7841 191.788 92.1023C191.788 92.4148 191.856 92.6989 191.993 92.9545C192.132 93.2074 192.322 93.4077 192.564 93.5554C192.805 93.7031 193.081 93.777 193.39 93.777C193.62 93.777 193.835 93.733 194.034 93.6449C194.233 93.554 194.406 93.4304 194.554 93.2741C194.701 93.1179 194.816 92.9389 194.899 92.7372C194.984 92.5327 195.027 92.3182 195.027 92.0938C195.027 91.7898 194.956 91.5099 194.814 91.2543C194.674 90.9986 194.483 90.794 194.238 90.6406C193.997 90.4844 193.72 90.4062 193.407 90.4062ZM199.643 96.8068L199.587 97.2756C199.548 97.6335 199.477 97.9972 199.374 98.3665C199.275 98.7386 199.17 99.081 199.059 99.3935C198.948 99.706 198.859 99.9517 198.79 100.131H197.751C197.79 99.9574 197.844 99.7216 197.913 99.4233C197.984 99.125 198.052 98.7898 198.117 98.4176C198.183 98.0455 198.227 97.6676 198.249 97.2841L198.279 96.8068H199.643ZM201.404 98L205.115 90.6534V90.5938H200.807V89.2727H206.752V90.6236L203.044 98H201.404ZM211.136 98.1193C210.718 98.1165 210.31 98.044 209.913 97.902C209.518 97.7571 209.161 97.5227 208.843 97.1989C208.525 96.8722 208.272 96.4389 208.085 95.8991C207.897 95.3565 207.803 94.6847 207.803 93.8835C207.803 93.1307 207.883 92.4602 208.042 91.8722C208.201 91.2841 208.43 90.7869 208.728 90.3807C209.026 89.9716 209.386 89.6605 209.806 89.4474C210.229 89.2344 210.702 89.1278 211.225 89.1278C211.773 89.1278 212.259 89.2372 212.683 89.456C213.109 89.6719 213.452 89.9687 213.714 90.3466C213.975 90.7216 214.137 91.1477 214.2 91.625H212.644C212.565 91.2784 212.401 91.0043 212.154 90.8026C211.91 90.598 211.6 90.4957 211.225 90.4957C210.62 90.4957 210.154 90.7599 209.827 91.2884C209.504 91.8168 209.34 92.5455 209.337 93.4744H209.397C209.536 93.2244 209.717 93.0099 209.938 92.831C210.16 92.652 210.41 92.5142 210.688 92.4176C210.969 92.3182 211.266 92.2685 211.579 92.2685C212.09 92.2685 212.549 92.3906 212.955 92.6349C213.364 92.8793 213.688 93.2159 213.927 93.6449C214.165 94.071 214.283 94.5597 214.281 95.1108C214.283 95.6847 214.153 96.2003 213.888 96.6577C213.624 97.1122 213.256 97.4702 212.785 97.7315C212.313 97.9929 211.763 98.1222 211.136 98.1193ZM211.127 96.8409C211.437 96.8409 211.714 96.7656 211.958 96.6151C212.202 96.4645 212.396 96.2614 212.538 96.0057C212.68 95.75 212.749 95.4631 212.746 95.1449C212.749 94.8324 212.681 94.5497 212.542 94.2969C212.406 94.044 212.217 93.8437 211.975 93.696C211.734 93.5483 211.458 93.4744 211.148 93.4744C210.918 93.4744 210.704 93.5185 210.505 93.6065C210.306 93.6946 210.133 93.8168 209.985 93.973C209.837 94.1264 209.721 94.3054 209.636 94.5099C209.553 94.7116 209.511 94.9276 209.508 95.1577C209.511 95.4616 209.582 95.7415 209.721 95.9972C209.86 96.2528 210.052 96.4574 210.296 96.6108C210.54 96.7642 210.817 96.8409 211.127 96.8409ZM218.755 98.1193C218.187 98.1193 217.678 98.0128 217.229 97.7997C216.781 97.5838 216.424 97.2884 216.16 96.9134C215.898 96.5384 215.759 96.1094 215.742 95.6264H217.276C217.305 95.9844 217.46 96.277 217.741 96.5043C218.022 96.7287 218.36 96.8409 218.755 96.8409C219.065 96.8409 219.34 96.7699 219.582 96.6278C219.823 96.4858 220.013 96.2884 220.153 96.0355C220.292 95.7827 220.36 95.4943 220.357 95.1705C220.36 94.8409 220.29 94.5483 220.148 94.2926C220.006 94.0369 219.812 93.8366 219.565 93.6918C219.317 93.544 219.033 93.4702 218.712 93.4702C218.451 93.4673 218.194 93.5156 217.941 93.6151C217.688 93.7145 217.488 93.8452 217.34 94.0071L215.913 93.7727L216.369 89.2727H221.431V90.5938H217.677L217.425 92.9077H217.477C217.638 92.7173 217.867 92.5597 218.163 92.4347C218.458 92.3068 218.782 92.2429 219.134 92.2429C219.663 92.2429 220.134 92.3679 220.549 92.6179C220.964 92.8651 221.29 93.206 221.529 93.6406C221.768 94.0753 221.887 94.5724 221.887 95.1321C221.887 95.7088 221.754 96.223 221.487 96.6747C221.222 97.1236 220.854 97.4773 220.383 97.7358C219.914 97.9915 219.371 98.1193 218.755 98.1193ZM223.989 98.0938C223.73 98.0938 223.509 98.0028 223.324 97.821C223.14 97.6392 223.049 97.4176 223.051 97.1562C223.049 96.9006 223.14 96.6818 223.324 96.5C223.509 96.3182 223.73 96.2273 223.989 96.2273C224.239 96.2273 224.456 96.3182 224.641 96.5C224.828 96.6818 224.924 96.9006 224.926 97.1562C224.924 97.3295 224.878 97.4872 224.79 97.6293C224.705 97.7713 224.591 97.8849 224.449 97.9702C224.31 98.0526 224.157 98.0938 223.989 98.0938ZM226.344 96.3807V95.1236L230.048 89.2727H231.096V91.0625H230.457L227.964 95.0128V95.081H233.133V96.3807H226.344ZM230.508 98V95.9972L230.525 95.4347V89.2727H232.016V98H230.508ZM237.524 89.1278C237.942 89.1307 238.348 89.2045 238.743 89.3494C239.141 89.4943 239.499 89.7287 239.817 90.0526C240.135 90.3764 240.388 90.8097 240.575 91.3523C240.763 91.8949 240.857 92.5668 240.857 93.3679C240.857 94.1179 240.776 94.7884 240.614 95.3793C240.455 95.9673 240.226 96.4645 239.928 96.8707C239.632 97.277 239.274 97.5866 238.854 97.7997C238.433 98.0128 237.96 98.1193 237.435 98.1193C236.884 98.1193 236.395 98.0114 235.969 97.7955C235.545 97.5795 235.203 97.2841 234.942 96.9091C234.68 96.5341 234.52 96.1051 234.46 95.6222H236.016C236.095 95.9687 236.257 96.2443 236.501 96.4489C236.749 96.6506 237.06 96.7514 237.435 96.7514C238.04 96.7514 238.506 96.4886 238.832 95.9631C239.159 95.4375 239.322 94.7074 239.322 93.7727H239.263C239.124 94.0227 238.943 94.2386 238.722 94.4205C238.5 94.5994 238.249 94.7372 237.967 94.8338C237.689 94.9304 237.393 94.9787 237.081 94.9787C236.57 94.9787 236.109 94.8565 235.7 94.6122C235.291 94.3679 234.967 94.0327 234.729 93.6065C234.493 93.1776 234.375 92.6875 234.375 92.1364C234.375 91.5625 234.506 91.0483 234.767 90.5938C235.031 90.1392 235.399 89.7812 235.871 89.5199C236.342 89.2557 236.893 89.125 237.524 89.1278ZM237.528 90.4062C237.222 90.4062 236.945 90.4815 236.697 90.6321C236.453 90.7827 236.26 90.9858 236.118 91.2415C235.979 91.4972 235.909 91.7841 235.909 92.1023C235.909 92.4148 235.977 92.6989 236.114 92.9545C236.253 93.2074 236.443 93.4077 236.685 93.5554C236.926 93.7031 237.202 93.777 237.511 93.777C237.741 93.777 237.956 93.733 238.155 93.6449C238.354 93.554 238.527 93.4304 238.675 93.2741C238.822 93.1179 238.938 92.9389 239.02 92.7372C239.105 92.5327 239.148 92.3182 239.148 92.0938C239.148 91.7898 239.077 91.5099 238.935 91.2543C238.795 90.9986 238.604 90.794 238.359 90.6406C238.118 90.4844 237.841 90.4062 237.528 90.4062Z" fill="#098551"/>
<path d="M86.3608 122V113.273H89.7017C90.3324 113.273 90.8565 113.372 91.2741 113.571C91.6946 113.767 92.0085 114.036 92.2159 114.376C92.4261 114.717 92.5312 115.104 92.5312 115.536C92.5312 115.891 92.4631 116.195 92.3267 116.447C92.1903 116.697 92.0071 116.901 91.777 117.057C91.5469 117.213 91.2898 117.325 91.0057 117.393V117.479C91.3153 117.496 91.6122 117.591 91.8963 117.764C92.1832 117.935 92.4176 118.176 92.5994 118.489C92.7813 118.801 92.8722 119.179 92.8722 119.622C92.8722 120.074 92.7628 120.48 92.544 120.841C92.3253 121.199 91.9957 121.482 91.5554 121.689C91.1151 121.896 90.5611 122 89.8935 122H86.3608ZM87.9418 120.679H89.642C90.2159 120.679 90.6293 120.57 90.8821 120.351C91.1378 120.129 91.2656 119.845 91.2656 119.499C91.2656 119.24 91.2017 119.007 91.0739 118.8C90.946 118.589 90.7642 118.425 90.5284 118.305C90.2926 118.183 90.0114 118.122 89.6847 118.122H87.9418V120.679ZM87.9418 116.984H89.5057C89.7784 116.984 90.0241 116.935 90.2429 116.835C90.4616 116.733 90.6335 116.589 90.7585 116.405C90.8864 116.217 90.9503 115.996 90.9503 115.74C90.9503 115.402 90.831 115.124 90.5923 114.905C90.3565 114.686 90.0057 114.577 89.5398 114.577H87.9418V116.984ZM93.864 114.598V113.273H100.827V114.598H98.1296V122H96.5614V114.598H93.864ZM109.265 116.217H107.671C107.625 115.956 107.542 115.724 107.419 115.523C107.297 115.318 107.145 115.145 106.963 115.003C106.782 114.861 106.574 114.754 106.341 114.683C106.111 114.609 105.863 114.572 105.596 114.572C105.121 114.572 104.701 114.692 104.334 114.93C103.968 115.166 103.681 115.513 103.473 115.97C103.266 116.425 103.162 116.98 103.162 117.636C103.162 118.304 103.266 118.866 103.473 119.324C103.684 119.778 103.971 120.122 104.334 120.355C104.701 120.585 105.12 120.7 105.591 120.7C105.853 120.7 106.097 120.666 106.324 120.598C106.554 120.527 106.76 120.423 106.942 120.287C107.127 120.151 107.282 119.983 107.407 119.784C107.534 119.585 107.623 119.358 107.671 119.102L109.265 119.111C109.205 119.526 109.076 119.915 108.877 120.278C108.681 120.642 108.424 120.963 108.105 121.241C107.787 121.517 107.415 121.733 106.989 121.889C106.563 122.043 106.09 122.119 105.57 122.119C104.803 122.119 104.118 121.942 103.516 121.587C102.914 121.232 102.439 120.719 102.093 120.048C101.746 119.378 101.573 118.574 101.573 117.636C101.573 116.696 101.748 115.892 102.097 115.224C102.446 114.554 102.922 114.041 103.525 113.686C104.127 113.331 104.809 113.153 105.57 113.153C106.056 113.153 106.507 113.222 106.925 113.358C107.343 113.494 107.715 113.695 108.042 113.959C108.368 114.22 108.637 114.541 108.847 114.922C109.06 115.3 109.199 115.732 109.265 116.217ZM114.612 117.001V118.271H110.683V117.001H114.612ZM121.804 113.273H123.385V118.974C123.385 119.599 123.237 120.149 122.941 120.624C122.649 121.098 122.237 121.469 121.706 121.736C121.174 122 120.554 122.132 119.843 122.132C119.13 122.132 118.508 122 117.977 121.736C117.446 121.469 117.034 121.098 116.741 120.624C116.449 120.149 116.302 119.599 116.302 118.974V113.273H117.883V118.842C117.883 119.206 117.963 119.53 118.122 119.814C118.284 120.098 118.511 120.321 118.804 120.483C119.096 120.642 119.443 120.722 119.843 120.722C120.244 120.722 120.591 120.642 120.883 120.483C121.179 120.321 121.406 120.098 121.565 119.814C121.724 119.53 121.804 119.206 121.804 118.842V113.273ZM129.846 115.672C129.806 115.3 129.638 115.01 129.343 114.803C129.05 114.595 128.67 114.491 128.201 114.491C127.871 114.491 127.589 114.541 127.353 114.641C127.117 114.74 126.937 114.875 126.812 115.045C126.687 115.216 126.623 115.411 126.62 115.629C126.62 115.811 126.661 115.969 126.744 116.102C126.829 116.236 126.944 116.349 127.089 116.443C127.234 116.534 127.394 116.611 127.57 116.673C127.746 116.736 127.924 116.788 128.103 116.831L128.921 117.036C129.251 117.112 129.567 117.216 129.871 117.347C130.178 117.477 130.452 117.642 130.694 117.841C130.938 118.04 131.131 118.28 131.273 118.561C131.415 118.842 131.487 119.172 131.487 119.55C131.487 120.061 131.356 120.511 131.094 120.901C130.833 121.287 130.455 121.589 129.961 121.808C129.469 122.024 128.874 122.132 128.175 122.132C127.496 122.132 126.907 122.027 126.407 121.817C125.91 121.607 125.521 121.3 125.239 120.896C124.961 120.493 124.81 120.001 124.788 119.422H126.343C126.366 119.726 126.46 119.979 126.624 120.18C126.789 120.382 127.004 120.533 127.268 120.632C127.535 120.732 127.833 120.781 128.163 120.781C128.506 120.781 128.808 120.73 129.066 120.628C129.327 120.523 129.532 120.378 129.68 120.193C129.827 120.006 129.903 119.787 129.906 119.537C129.903 119.31 129.836 119.122 129.705 118.974C129.575 118.824 129.391 118.699 129.156 118.599C128.923 118.497 128.65 118.406 128.337 118.327L127.344 118.071C126.626 117.886 126.058 117.607 125.64 117.232C125.225 116.854 125.018 116.352 125.018 115.727C125.018 115.213 125.157 114.763 125.435 114.376C125.717 113.99 126.099 113.69 126.582 113.477C127.065 113.261 127.612 113.153 128.222 113.153C128.842 113.153 129.384 113.261 129.85 113.477C130.319 113.69 130.687 113.987 130.954 114.368C131.221 114.746 131.359 115.18 131.367 115.672H129.846ZM135.853 122H132.896V113.273H135.913C136.779 113.273 137.524 113.447 138.146 113.797C138.771 114.143 139.251 114.642 139.586 115.293C139.922 115.943 140.089 116.722 140.089 117.628C140.089 118.537 139.92 119.318 139.582 119.972C139.247 120.625 138.762 121.126 138.129 121.476C137.498 121.825 136.74 122 135.853 122ZM134.477 120.632H135.777C136.385 120.632 136.892 120.521 137.298 120.3C137.704 120.075 138.01 119.741 138.214 119.298C138.419 118.852 138.521 118.295 138.521 117.628C138.521 116.96 138.419 116.406 138.214 115.966C138.01 115.523 137.707 115.192 137.306 114.973C136.909 114.751 136.414 114.641 135.824 114.641H134.477V120.632ZM149.061 116.217H147.468C147.422 115.956 147.338 115.724 147.216 115.523C147.094 115.318 146.942 115.145 146.76 115.003C146.578 114.861 146.371 114.754 146.138 114.683C145.908 114.609 145.659 114.572 145.392 114.572C144.918 114.572 144.498 114.692 144.131 114.93C143.765 115.166 143.478 115.513 143.27 115.97C143.063 116.425 142.959 116.98 142.959 117.636C142.959 118.304 143.063 118.866 143.27 119.324C143.48 119.778 143.767 120.122 144.131 120.355C144.498 120.585 144.917 120.7 145.388 120.7C145.65 120.7 145.894 120.666 146.121 120.598C146.351 120.527 146.557 120.423 146.739 120.287C146.924 120.151 147.078 119.983 147.203 119.784C147.331 119.585 147.419 119.358 147.468 119.102L149.061 119.111C149.002 119.526 148.873 119.915 148.674 120.278C148.478 120.642 148.221 120.963 147.902 121.241C147.584 121.517 147.212 121.733 146.786 121.889C146.36 122.043 145.887 122.119 145.367 122.119C144.6 122.119 143.915 121.942 143.313 121.587C142.711 121.232 142.236 120.719 141.89 120.048C141.543 119.378 141.37 118.574 141.37 117.636C141.37 116.696 141.544 115.892 141.894 115.224C142.243 114.554 142.719 114.041 143.321 113.686C143.924 113.331 144.605 113.153 145.367 113.153C145.853 113.153 146.304 113.222 146.722 113.358C147.14 113.494 147.512 113.695 147.838 113.959C148.165 114.22 148.434 114.541 148.644 114.922C148.857 115.3 148.996 115.732 149.061 116.217Z" fill="#0A0B0D"/>
<path d="M281.643 122V120.858L284.673 117.888C284.962 117.595 285.204 117.335 285.397 117.108C285.59 116.881 285.735 116.661 285.832 116.447C285.928 116.234 285.977 116.007 285.977 115.766C285.977 115.49 285.914 115.254 285.789 115.058C285.664 114.859 285.492 114.706 285.273 114.598C285.055 114.49 284.806 114.436 284.528 114.436C284.241 114.436 283.989 114.496 283.773 114.615C283.558 114.732 283.39 114.898 283.271 115.114C283.154 115.33 283.096 115.587 283.096 115.885H281.592C281.592 115.331 281.718 114.849 281.971 114.44C282.224 114.031 282.572 113.714 283.015 113.49C283.461 113.266 283.972 113.153 284.549 113.153C285.134 113.153 285.648 113.263 286.092 113.482C286.535 113.7 286.879 114 287.123 114.381C287.37 114.761 287.494 115.196 287.494 115.685C287.494 116.011 287.431 116.332 287.306 116.648C287.181 116.963 286.961 117.312 286.646 117.696C286.333 118.08 285.894 118.544 285.329 119.089L283.825 120.619V120.679H287.626V122H281.643ZM290.924 120.807L290.869 121.276C290.829 121.634 290.758 121.997 290.656 122.366C290.556 122.739 290.451 123.081 290.34 123.393C290.229 123.706 290.14 123.952 290.072 124.131H289.032C289.072 123.957 289.126 123.722 289.194 123.423C289.265 123.125 289.333 122.79 289.398 122.418C289.464 122.045 289.508 121.668 289.531 121.284L289.56 120.807H290.924ZM295.474 122.119C294.86 122.119 294.315 122.014 293.838 121.804C293.363 121.594 292.988 121.301 292.713 120.926C292.437 120.551 292.291 120.118 292.274 119.626H293.876C293.89 119.862 293.968 120.068 294.11 120.244C294.252 120.418 294.441 120.553 294.677 120.649C294.913 120.746 295.177 120.794 295.47 120.794C295.782 120.794 296.059 120.74 296.301 120.632C296.542 120.521 296.731 120.368 296.868 120.172C297.004 119.976 297.071 119.75 297.068 119.494C297.071 119.23 297.002 118.997 296.863 118.795C296.724 118.594 296.522 118.436 296.258 118.322C295.997 118.209 295.681 118.152 295.312 118.152H294.541V116.933H295.312C295.616 116.933 295.882 116.881 296.109 116.776C296.339 116.67 296.52 116.523 296.65 116.332C296.781 116.139 296.845 115.916 296.842 115.663C296.845 115.416 296.789 115.202 296.676 115.02C296.565 114.835 296.407 114.692 296.203 114.589C296.001 114.487 295.764 114.436 295.491 114.436C295.224 114.436 294.977 114.484 294.75 114.581C294.522 114.678 294.339 114.815 294.2 114.994C294.061 115.17 293.987 115.381 293.978 115.625H292.457C292.468 115.136 292.609 114.707 292.879 114.338C293.152 113.966 293.515 113.676 293.97 113.469C294.424 113.259 294.934 113.153 295.5 113.153C296.082 113.153 296.588 113.263 297.017 113.482C297.449 113.697 297.782 113.989 298.018 114.355C298.254 114.722 298.372 115.126 298.372 115.57C298.375 116.061 298.23 116.473 297.937 116.805C297.647 117.138 297.267 117.355 296.795 117.457V117.526C297.409 117.611 297.879 117.838 298.206 118.207C298.535 118.574 298.699 119.03 298.696 119.575C298.696 120.064 298.556 120.501 298.278 120.888C298.002 121.271 297.622 121.572 297.136 121.791C296.653 122.01 296.099 122.119 295.474 122.119ZM303.261 122.119C302.627 122.119 302.065 122.013 301.573 121.8C301.085 121.587 300.701 121.295 300.423 120.926C300.147 120.554 300.011 120.132 300.013 119.661C300.011 119.294 300.09 118.957 300.252 118.651C300.414 118.344 300.633 118.088 300.908 117.884C301.187 117.676 301.496 117.544 301.837 117.487V117.428C301.388 117.328 301.025 117.099 300.746 116.741C300.471 116.381 300.335 115.964 300.337 115.493C300.335 115.044 300.46 114.643 300.712 114.291C300.965 113.939 301.312 113.662 301.752 113.46C302.192 113.256 302.695 113.153 303.261 113.153C303.82 113.153 304.319 113.256 304.756 113.46C305.197 113.662 305.543 113.939 305.796 114.291C306.052 114.643 306.18 115.044 306.18 115.493C306.18 115.964 306.039 116.381 305.758 116.741C305.479 117.099 305.12 117.328 304.68 117.428V117.487C305.021 117.544 305.327 117.676 305.6 117.884C305.876 118.088 306.094 118.344 306.256 118.651C306.421 118.957 306.504 119.294 306.504 119.661C306.504 120.132 306.364 120.554 306.086 120.926C305.808 121.295 305.424 121.587 304.935 121.8C304.45 122.013 303.891 122.119 303.261 122.119ZM303.261 120.901C303.587 120.901 303.871 120.845 304.113 120.734C304.354 120.621 304.542 120.462 304.675 120.257C304.809 120.053 304.877 119.817 304.88 119.55C304.877 119.271 304.805 119.026 304.663 118.812C304.523 118.597 304.332 118.428 304.087 118.305C303.846 118.183 303.57 118.122 303.261 118.122C302.948 118.122 302.67 118.183 302.425 118.305C302.181 118.428 301.988 118.597 301.846 118.812C301.707 119.026 301.638 119.271 301.641 119.55C301.638 119.817 301.704 120.053 301.837 120.257C301.971 120.459 302.158 120.616 302.4 120.73C302.644 120.844 302.931 120.901 303.261 120.901ZM303.261 116.925C303.528 116.925 303.763 116.871 303.968 116.763C304.175 116.655 304.339 116.504 304.458 116.311C304.577 116.118 304.638 115.895 304.641 115.642C304.638 115.392 304.579 115.173 304.462 114.986C304.346 114.795 304.184 114.649 303.977 114.547C303.769 114.442 303.531 114.389 303.261 114.389C302.985 114.389 302.742 114.442 302.532 114.547C302.325 114.649 302.163 114.795 302.046 114.986C301.933 115.173 301.877 115.392 301.88 115.642C301.877 115.895 301.934 116.118 302.05 116.311C302.17 116.501 302.333 116.652 302.54 116.763C302.751 116.871 302.991 116.925 303.261 116.925ZM308.224 122L311.936 114.653V114.594H307.627V113.273H313.572V114.624L309.865 122H308.224ZM318.009 122V113.273H321.35C321.981 113.273 322.505 113.372 322.923 113.571C323.343 113.767 323.657 114.036 323.864 114.376C324.075 114.717 324.18 115.104 324.18 115.536C324.18 115.891 324.112 116.195 323.975 116.447C323.839 116.697 323.656 116.901 323.425 117.057C323.195 117.213 322.938 117.325 322.654 117.393V117.479C322.964 117.496 323.261 117.591 323.545 117.764C323.832 117.935 324.066 118.176 324.248 118.489C324.43 118.801 324.521 119.179 324.521 119.622C324.521 120.074 324.411 120.48 324.192 120.841C323.974 121.199 323.644 121.482 323.204 121.689C322.763 121.896 322.21 122 321.542 122H318.009ZM319.59 120.679H321.29C321.864 120.679 322.278 120.57 322.531 120.351C322.786 120.129 322.914 119.845 322.914 119.499C322.914 119.24 322.85 119.007 322.722 118.8C322.594 118.589 322.413 118.425 322.177 118.305C321.941 118.183 321.66 118.122 321.333 118.122H319.59V120.679ZM319.59 116.984H321.154C321.427 116.984 321.673 116.935 321.891 116.835C322.11 116.733 322.282 116.589 322.407 116.405C322.535 116.217 322.599 115.996 322.599 115.74C322.599 115.402 322.479 115.124 322.241 114.905C322.005 114.686 321.654 114.577 321.188 114.577H319.59V116.984ZM325.512 114.598V113.273H332.475V114.598H329.778V122H328.21V114.598H325.512ZM340.913 116.217H339.319C339.274 115.956 339.19 115.724 339.068 115.523C338.946 115.318 338.794 115.145 338.612 115.003C338.43 114.861 338.223 114.754 337.99 114.683C337.76 114.609 337.511 114.572 337.244 114.572C336.77 114.572 336.349 114.692 335.983 114.93C335.616 115.166 335.329 115.513 335.122 115.97C334.914 116.425 334.811 116.98 334.811 117.636C334.811 118.304 334.914 118.866 335.122 119.324C335.332 119.778 335.619 120.122 335.983 120.355C336.349 120.585 336.768 120.7 337.24 120.7C337.501 120.7 337.745 120.666 337.973 120.598C338.203 120.527 338.409 120.423 338.591 120.287C338.775 120.151 338.93 119.983 339.055 119.784C339.183 119.585 339.271 119.358 339.319 119.102L340.913 119.111C340.853 119.526 340.724 119.915 340.525 120.278C340.329 120.642 340.072 120.963 339.754 121.241C339.436 121.517 339.064 121.733 338.637 121.889C338.211 122.043 337.738 122.119 337.218 122.119C336.451 122.119 335.767 121.942 335.164 121.587C334.562 121.232 334.088 120.719 333.741 120.048C333.395 119.378 333.221 118.574 333.221 117.636C333.221 116.696 333.396 115.892 333.745 115.224C334.095 114.554 334.571 114.041 335.173 113.686C335.775 113.331 336.457 113.153 337.218 113.153C337.704 113.153 338.156 113.222 338.574 113.358C338.991 113.494 339.363 113.695 339.69 113.959C340.017 114.22 340.285 114.541 340.495 114.922C340.708 115.3 340.848 115.732 340.913 116.217Z" fill="#098551"/>
<path d="M192.969 113.128C193.387 113.131 193.793 113.205 194.188 113.349C194.586 113.494 194.944 113.729 195.262 114.053C195.58 114.376 195.833 114.81 196.021 115.352C196.208 115.895 196.302 116.567 196.302 117.368C196.302 118.118 196.221 118.788 196.059 119.379C195.9 119.967 195.671 120.464 195.373 120.871C195.077 121.277 194.719 121.587 194.299 121.8C193.879 122.013 193.406 122.119 192.88 122.119C192.329 122.119 191.84 122.011 191.414 121.795C190.991 121.58 190.648 121.284 190.387 120.909C190.126 120.534 189.965 120.105 189.906 119.622H191.461C191.54 119.969 191.702 120.244 191.947 120.449C192.194 120.651 192.505 120.751 192.88 120.751C193.485 120.751 193.951 120.489 194.278 119.963C194.604 119.437 194.768 118.707 194.768 117.773H194.708C194.569 118.023 194.388 118.239 194.167 118.42C193.945 118.599 193.694 118.737 193.413 118.834C193.134 118.93 192.839 118.979 192.526 118.979C192.015 118.979 191.555 118.857 191.146 118.612C190.737 118.368 190.413 118.033 190.174 117.607C189.938 117.178 189.82 116.687 189.82 116.136C189.82 115.562 189.951 115.048 190.212 114.594C190.477 114.139 190.844 113.781 191.316 113.52C191.788 113.256 192.339 113.125 192.969 113.128ZM192.974 114.406C192.667 114.406 192.39 114.482 192.143 114.632C191.898 114.783 191.705 114.986 191.563 115.241C191.424 115.497 191.354 115.784 191.354 116.102C191.354 116.415 191.423 116.699 191.559 116.955C191.698 117.207 191.888 117.408 192.13 117.555C192.371 117.703 192.647 117.777 192.957 117.777C193.187 117.777 193.401 117.733 193.6 117.645C193.799 117.554 193.972 117.43 194.12 117.274C194.268 117.118 194.383 116.939 194.465 116.737C194.55 116.533 194.593 116.318 194.593 116.094C194.593 115.79 194.522 115.51 194.38 115.254C194.241 114.999 194.049 114.794 193.805 114.641C193.563 114.484 193.286 114.406 192.974 114.406ZM199.209 120.807L199.154 121.276C199.114 121.634 199.043 121.997 198.941 122.366C198.841 122.739 198.736 123.081 198.625 123.393C198.515 123.706 198.425 123.952 198.357 124.131H197.317C197.357 123.957 197.411 123.722 197.479 123.423C197.55 123.125 197.618 122.79 197.684 122.418C197.749 122.045 197.793 121.668 197.816 121.284L197.846 120.807H199.209ZM200.762 120.381V119.124L204.466 113.273H205.514V115.062H204.875L202.382 119.013V119.081H207.551V120.381H200.762ZM204.926 122V119.997L204.943 119.435V113.273H206.434V122H204.926ZM212.015 122.119C211.381 122.119 210.819 122.013 210.327 121.8C209.838 121.587 209.455 121.295 209.176 120.926C208.901 120.554 208.765 120.132 208.767 119.661C208.765 119.294 208.844 118.957 209.006 118.651C209.168 118.344 209.387 118.088 209.662 117.884C209.941 117.676 210.25 117.544 210.591 117.487V117.428C210.142 117.328 209.779 117.099 209.5 116.741C209.225 116.381 209.088 115.964 209.091 115.493C209.088 115.044 209.213 114.643 209.466 114.291C209.719 113.939 210.066 113.662 210.506 113.46C210.946 113.256 211.449 113.153 212.015 113.153C212.574 113.153 213.073 113.256 213.51 113.46C213.951 113.662 214.297 113.939 214.55 114.291C214.806 114.643 214.934 115.044 214.934 115.493C214.934 115.964 214.793 116.381 214.512 116.741C214.233 117.099 213.874 117.328 213.434 117.428V117.487C213.775 117.544 214.081 117.676 214.354 117.884C214.63 118.088 214.848 118.344 215.01 118.651C215.175 118.957 215.257 119.294 215.257 119.661C215.257 120.132 215.118 120.554 214.84 120.926C214.561 121.295 214.178 121.587 213.689 121.8C213.203 122.013 212.645 122.119 212.015 122.119ZM212.015 120.901C212.341 120.901 212.625 120.845 212.867 120.734C213.108 120.621 213.296 120.462 213.429 120.257C213.563 120.053 213.631 119.817 213.634 119.55C213.631 119.271 213.559 119.026 213.417 118.812C213.277 118.597 213.086 118.428 212.841 118.305C212.6 118.183 212.324 118.122 212.015 118.122C211.702 118.122 211.424 118.183 211.179 118.305C210.935 118.428 210.742 118.597 210.6 118.812C210.461 119.026 210.392 119.271 210.395 119.55C210.392 119.817 210.458 120.053 210.591 120.257C210.725 120.459 210.912 120.616 211.154 120.73C211.398 120.844 211.685 120.901 212.015 120.901ZM212.015 116.925C212.282 116.925 212.517 116.871 212.722 116.763C212.929 116.655 213.093 116.504 213.212 116.311C213.331 116.118 213.392 115.895 213.395 115.642C213.392 115.392 213.333 115.173 213.216 114.986C213.1 114.795 212.938 114.649 212.73 114.547C212.523 114.442 212.284 114.389 212.015 114.389C211.739 114.389 211.496 114.442 211.286 114.547C211.078 114.649 210.917 114.795 210.8 114.986C210.686 115.173 210.631 115.392 210.634 115.642C210.631 115.895 210.688 116.118 210.804 116.311C210.924 116.501 211.087 116.652 211.294 116.763C211.505 116.871 211.745 116.925 212.015 116.925ZM216.501 120.381V119.124L220.204 113.273H221.252V115.062H220.613L218.12 119.013V119.081H223.289V120.381H216.501ZM220.664 122V119.997L220.681 119.435V113.273H222.173V122H220.664ZM225.372 122.094C225.113 122.094 224.892 122.003 224.707 121.821C224.522 121.639 224.431 121.418 224.434 121.156C224.431 120.901 224.522 120.682 224.707 120.5C224.892 120.318 225.113 120.227 225.372 120.227C225.622 120.227 225.839 120.318 226.024 120.5C226.211 120.682 226.306 120.901 226.309 121.156C226.306 121.33 226.261 121.487 226.173 121.629C226.088 121.771 225.974 121.885 225.832 121.97C225.693 122.053 225.539 122.094 225.372 122.094ZM227.935 122L231.647 114.653V114.594H227.338V113.273H233.283V114.624L229.576 122H227.935ZM237.591 122.119C236.978 122.119 236.432 122.014 235.955 121.804C235.48 121.594 235.105 121.301 234.83 120.926C234.554 120.551 234.408 120.118 234.391 119.626H235.993C236.007 119.862 236.086 120.068 236.228 120.244C236.37 120.418 236.559 120.553 236.794 120.649C237.03 120.746 237.294 120.794 237.587 120.794C237.9 120.794 238.176 120.74 238.418 120.632C238.659 120.521 238.848 120.368 238.985 120.172C239.121 119.976 239.188 119.75 239.185 119.494C239.188 119.23 239.12 118.997 238.98 118.795C238.841 118.594 238.64 118.436 238.375 118.322C238.114 118.209 237.799 118.152 237.429 118.152H236.658V116.933H237.429C237.733 116.933 237.999 116.881 238.226 116.776C238.456 116.67 238.637 116.523 238.767 116.332C238.898 116.139 238.962 115.916 238.959 115.663C238.962 115.416 238.907 115.202 238.793 115.02C238.682 114.835 238.525 114.692 238.32 114.589C238.118 114.487 237.881 114.436 237.608 114.436C237.341 114.436 237.094 114.484 236.867 114.581C236.64 114.678 236.456 114.815 236.317 114.994C236.178 115.17 236.104 115.381 236.096 115.625H234.574C234.586 115.136 234.726 114.707 234.996 114.338C235.269 113.966 235.632 113.676 236.087 113.469C236.542 113.259 237.051 113.153 237.617 113.153C238.199 113.153 238.705 113.263 239.134 113.482C239.566 113.697 239.9 113.989 240.135 114.355C240.371 114.722 240.489 115.126 240.489 115.57C240.492 116.061 240.347 116.473 240.054 116.805C239.765 117.138 239.384 117.355 238.912 117.457V117.526C239.526 117.611 239.996 117.838 240.323 118.207C240.652 118.574 240.816 119.03 240.813 119.575C240.813 120.064 240.674 120.501 240.395 120.888C240.12 121.271 239.739 121.572 239.253 121.791C238.77 122.01 238.216 122.119 237.591 122.119Z" fill="#098551"/>
<path d="M86.3608 146V137.273H92.0369V138.598H87.9418V140.967H91.7429V142.293H87.9418V144.675H92.071V146H86.3608ZM93.2663 138.598V137.273H100.229V138.598H97.532V146H95.9638V138.598H93.2663ZM101.572 146V137.273H103.153V140.967H107.197V137.273H108.782V146H107.197V142.293H103.153V146H101.572ZM114.401 141.001V142.271H110.472V141.001H114.401ZM121.593 137.273H123.174V142.974C123.174 143.599 123.026 144.149 122.73 144.624C122.438 145.098 122.026 145.469 121.495 145.736C120.963 146 120.343 146.132 119.632 146.132C118.919 146.132 118.297 146 117.766 145.736C117.235 145.469 116.823 145.098 116.53 144.624C116.238 144.149 116.091 143.599 116.091 142.974V137.273H117.672V142.842C117.672 143.206 117.752 143.53 117.911 143.814C118.073 144.098 118.3 144.321 118.593 144.483C118.885 144.642 119.232 144.722 119.632 144.722C120.033 144.722 120.38 144.642 120.672 144.483C120.968 144.321 121.195 144.098 121.354 143.814C121.513 143.53 121.593 143.206 121.593 142.842V137.273ZM129.635 139.672C129.595 139.3 129.428 139.01 129.132 138.803C128.839 138.595 128.459 138.491 127.99 138.491C127.661 138.491 127.378 138.541 127.142 138.641C126.906 138.74 126.726 138.875 126.601 139.045C126.476 139.216 126.412 139.411 126.409 139.629C126.409 139.811 126.45 139.969 126.533 140.102C126.618 140.236 126.733 140.349 126.878 140.443C127.023 140.534 127.183 140.611 127.359 140.673C127.536 140.736 127.713 140.788 127.892 140.831L128.71 141.036C129.04 141.112 129.357 141.216 129.661 141.347C129.967 141.477 130.241 141.642 130.483 141.841C130.727 142.04 130.92 142.28 131.062 142.561C131.205 142.842 131.276 143.172 131.276 143.55C131.276 144.061 131.145 144.511 130.884 144.901C130.622 145.287 130.244 145.589 129.75 145.808C129.259 146.024 128.663 146.132 127.964 146.132C127.286 146.132 126.696 146.027 126.196 145.817C125.699 145.607 125.31 145.3 125.028 144.896C124.75 144.493 124.599 144.001 124.577 143.422H126.132C126.155 143.726 126.249 143.979 126.413 144.18C126.578 144.382 126.793 144.533 127.057 144.632C127.324 144.732 127.622 144.781 127.952 144.781C128.295 144.781 128.597 144.73 128.855 144.628C129.116 144.523 129.321 144.378 129.469 144.193C129.616 144.006 129.692 143.787 129.695 143.537C129.692 143.31 129.625 143.122 129.494 142.974C129.364 142.824 129.18 142.699 128.945 142.599C128.712 142.497 128.439 142.406 128.126 142.327L127.134 142.071C126.415 141.886 125.847 141.607 125.429 141.232C125.014 140.854 124.807 140.352 124.807 139.727C124.807 139.213 124.946 138.763 125.224 138.376C125.506 137.99 125.888 137.69 126.371 137.477C126.854 137.261 127.401 137.153 128.011 137.153C128.631 137.153 129.173 137.261 129.639 137.477C130.108 137.69 130.476 137.987 130.743 138.368C131.01 138.746 131.148 139.18 131.156 139.672H129.635ZM135.642 146H132.685V137.273H135.702C136.569 137.273 137.313 137.447 137.935 137.797C138.56 138.143 139.04 138.642 139.375 139.293C139.711 139.943 139.878 140.722 139.878 141.628C139.878 142.537 139.709 143.318 139.371 143.972C139.036 144.625 138.551 145.126 137.918 145.476C137.287 145.825 136.529 146 135.642 146ZM134.266 144.632H135.566C136.174 144.632 136.681 144.521 137.087 144.3C137.493 144.075 137.799 143.741 138.003 143.298C138.208 142.852 138.31 142.295 138.31 141.628C138.31 140.96 138.208 140.406 138.003 139.966C137.799 139.523 137.496 139.192 137.096 138.973C136.698 138.751 136.203 138.641 135.613 138.641H134.266V144.632Z" fill="#0A0B0D"/>
<path d="M271.087 146.119C270.474 146.119 269.928 146.014 269.451 145.804C268.977 145.594 268.602 145.301 268.326 144.926C268.05 144.551 267.904 144.118 267.887 143.626H269.489C269.504 143.862 269.582 144.068 269.724 144.244C269.866 144.418 270.055 144.553 270.29 144.649C270.526 144.746 270.79 144.794 271.083 144.794C271.396 144.794 271.673 144.74 271.914 144.632C272.156 144.521 272.344 144.368 272.481 144.172C272.617 143.976 272.684 143.75 272.681 143.494C272.684 143.23 272.616 142.997 272.477 142.795C272.337 142.594 272.136 142.436 271.871 142.322C271.61 142.209 271.295 142.152 270.925 142.152H270.154V140.933H270.925C271.229 140.933 271.495 140.881 271.722 140.776C271.952 140.67 272.133 140.523 272.263 140.332C272.394 140.139 272.458 139.916 272.455 139.663C272.458 139.416 272.403 139.202 272.289 139.02C272.178 138.835 272.021 138.692 271.816 138.589C271.614 138.487 271.377 138.436 271.104 138.436C270.837 138.436 270.59 138.484 270.363 138.581C270.136 138.678 269.952 138.815 269.813 138.994C269.674 139.17 269.6 139.381 269.592 139.625H268.07C268.082 139.136 268.222 138.707 268.492 138.338C268.765 137.966 269.129 137.676 269.583 137.469C270.038 137.259 270.548 137.153 271.113 137.153C271.695 137.153 272.201 137.263 272.63 137.482C273.062 137.697 273.396 137.989 273.631 138.355C273.867 138.722 273.985 139.126 273.985 139.57C273.988 140.061 273.843 140.473 273.55 140.805C273.261 141.138 272.88 141.355 272.408 141.457V141.526C273.022 141.611 273.492 141.838 273.819 142.207C274.148 142.574 274.312 143.03 274.309 143.575C274.309 144.064 274.17 144.501 273.891 144.888C273.616 145.271 273.235 145.572 272.749 145.791C272.266 146.01 271.712 146.119 271.087 146.119ZM278.904 146.119C278.29 146.119 277.745 146.014 277.267 145.804C276.793 145.594 276.418 145.301 276.142 144.926C275.867 144.551 275.721 144.118 275.703 143.626H277.306C277.32 143.862 277.398 144.068 277.54 144.244C277.682 144.418 277.871 144.553 278.107 144.649C278.343 144.746 278.607 144.794 278.9 144.794C279.212 144.794 279.489 144.74 279.73 144.632C279.972 144.521 280.161 144.368 280.297 144.172C280.434 143.976 280.5 143.75 280.498 143.494C280.5 143.23 280.432 142.997 280.293 142.795C280.154 142.594 279.952 142.436 279.688 142.322C279.426 142.209 279.111 142.152 278.742 142.152H277.971V140.933H278.742C279.046 140.933 279.311 140.881 279.539 140.776C279.769 140.67 279.949 140.523 280.08 140.332C280.211 140.139 280.275 139.916 280.272 139.663C280.275 139.416 280.219 139.202 280.105 139.02C279.995 138.835 279.837 138.692 279.632 138.589C279.431 138.487 279.194 138.436 278.921 138.436C278.654 138.436 278.407 138.484 278.179 138.581C277.952 138.678 277.769 138.815 277.63 138.994C277.49 139.17 277.417 139.381 277.408 139.625H275.887C275.898 139.136 276.039 138.707 276.309 138.338C276.581 137.966 276.945 137.676 277.4 137.469C277.854 137.259 278.364 137.153 278.929 137.153C279.512 137.153 280.017 137.263 280.446 137.482C280.878 137.697 281.212 137.989 281.448 138.355C281.684 138.722 281.801 139.126 281.801 139.57C281.804 140.061 281.659 140.473 281.367 140.805C281.077 141.138 280.696 141.355 280.225 141.457V141.526C280.838 141.611 281.309 141.838 281.635 142.207C281.965 142.574 282.128 143.03 282.125 143.575C282.125 144.064 281.986 144.501 281.708 144.888C281.432 145.271 281.051 145.572 280.566 145.791C280.083 146.01 279.529 146.119 278.904 146.119ZM287.138 137.273V146H285.557V138.811H285.506L283.464 140.115V138.666L285.634 137.273H287.138ZM290.701 144.807L290.646 145.276C290.606 145.634 290.535 145.997 290.433 146.366C290.333 146.739 290.228 147.081 290.118 147.393C290.007 147.706 289.917 147.952 289.849 148.131H288.809C288.849 147.957 288.903 147.722 288.971 147.423C289.042 147.125 289.11 146.79 289.176 146.418C289.241 146.045 289.285 145.668 289.308 145.284L289.338 144.807H290.701ZM295.341 146.119C294.773 146.119 294.264 146.013 293.815 145.8C293.366 145.584 293.01 145.288 292.746 144.913C292.484 144.538 292.345 144.109 292.328 143.626H293.862C293.891 143.984 294.045 144.277 294.327 144.504C294.608 144.729 294.946 144.841 295.341 144.841C295.651 144.841 295.926 144.77 296.168 144.628C296.409 144.486 296.599 144.288 296.739 144.036C296.878 143.783 296.946 143.494 296.943 143.17C296.946 142.841 296.876 142.548 296.734 142.293C296.592 142.037 296.398 141.837 296.151 141.692C295.903 141.544 295.619 141.47 295.298 141.47C295.037 141.467 294.78 141.516 294.527 141.615C294.274 141.714 294.074 141.845 293.926 142.007L292.499 141.773L292.955 137.273H298.017V138.594H294.263L294.011 140.908H294.062C294.224 140.717 294.453 140.56 294.749 140.435C295.044 140.307 295.368 140.243 295.72 140.243C296.249 140.243 296.72 140.368 297.135 140.618C297.55 140.865 297.876 141.206 298.115 141.641C298.354 142.075 298.473 142.572 298.473 143.132C298.473 143.709 298.339 144.223 298.072 144.675C297.808 145.124 297.44 145.477 296.969 145.736C296.5 145.991 295.957 146.119 295.341 146.119ZM299.901 146V144.858L302.93 141.888C303.22 141.595 303.462 141.335 303.655 141.108C303.848 140.881 303.993 140.661 304.089 140.447C304.186 140.234 304.234 140.007 304.234 139.766C304.234 139.49 304.172 139.254 304.047 139.058C303.922 138.859 303.75 138.706 303.531 138.598C303.312 138.49 303.064 138.436 302.786 138.436C302.499 138.436 302.247 138.496 302.031 138.615C301.815 138.732 301.648 138.898 301.528 139.114C301.412 139.33 301.354 139.587 301.354 139.885H299.849C299.849 139.331 299.976 138.849 300.229 138.44C300.482 138.031 300.83 137.714 301.273 137.49C301.719 137.266 302.23 137.153 302.807 137.153C303.392 137.153 303.906 137.263 304.349 137.482C304.793 137.7 305.136 138 305.381 138.381C305.628 138.761 305.751 139.196 305.751 139.685C305.751 140.011 305.689 140.332 305.564 140.648C305.439 140.963 305.219 141.312 304.903 141.696C304.591 142.08 304.152 142.544 303.587 143.089L302.082 144.619V144.679H305.884V146H299.901ZM307.009 144.381V143.124L310.712 137.273H311.76V139.062H311.121L308.628 143.013V143.081H313.797V144.381H307.009ZM311.172 146V143.997L311.189 143.435V137.273H312.68V146H311.172ZM318.22 146V137.273H323.896V138.598H319.801V140.967H323.602V142.293H319.801V144.675H323.93V146H318.22ZM325.126 138.598V137.273H332.089V138.598H329.391V146H327.823V138.598H325.126ZM333.431 146V137.273H335.012V140.967H339.056V137.273H340.641V146H339.056V142.293H335.012V146H333.431Z" fill="#CF202F"/>
<path d="M202.994 146V144.858L206.024 141.888C206.314 141.595 206.555 141.335 206.749 141.108C206.942 140.881 207.087 140.661 207.183 140.447C207.28 140.234 207.328 140.007 207.328 139.766C207.328 139.49 207.266 139.254 207.141 139.058C207.016 138.859 206.844 138.706 206.625 138.598C206.406 138.49 206.158 138.436 205.879 138.436C205.592 138.436 205.341 138.496 205.125 138.615C204.909 138.732 204.741 138.898 204.622 139.114C204.506 139.33 204.447 139.587 204.447 139.885H202.943C202.943 139.331 203.07 138.849 203.322 138.44C203.575 138.031 203.923 137.714 204.366 137.49C204.813 137.266 205.324 137.153 205.901 137.153C206.486 137.153 207 137.263 207.443 137.482C207.886 137.7 208.23 138 208.474 138.381C208.722 138.761 208.845 139.196 208.845 139.685C208.845 140.011 208.783 140.332 208.658 140.648C208.533 140.963 208.313 141.312 207.997 141.696C207.685 142.08 207.246 142.544 206.68 143.089L205.176 144.619V144.679H208.977V146H202.994ZM213.58 146.119C212.966 146.119 212.42 146.014 211.943 145.804C211.469 145.594 211.094 145.301 210.818 144.926C210.543 144.551 210.396 144.118 210.379 143.626H211.982C211.996 143.862 212.074 144.068 212.216 144.244C212.358 144.418 212.547 144.553 212.783 144.649C213.018 144.746 213.283 144.794 213.575 144.794C213.888 144.794 214.165 144.74 214.406 144.632C214.648 144.521 214.837 144.368 214.973 144.172C215.109 143.976 215.176 143.75 215.173 143.494C215.176 143.23 215.108 142.997 214.969 142.795C214.83 142.594 214.628 142.436 214.364 142.322C214.102 142.209 213.787 142.152 213.418 142.152H212.646V140.933H213.418C213.722 140.933 213.987 140.881 214.214 140.776C214.445 140.67 214.625 140.523 214.756 140.332C214.886 140.139 214.95 139.916 214.947 139.663C214.95 139.416 214.895 139.202 214.781 139.02C214.67 138.835 214.513 138.692 214.308 138.589C214.107 138.487 213.869 138.436 213.597 138.436C213.33 138.436 213.082 138.484 212.855 138.581C212.628 138.678 212.445 138.815 212.305 138.994C212.166 139.17 212.092 139.381 212.084 139.625H210.562C210.574 139.136 210.714 138.707 210.984 138.338C211.257 137.966 211.621 137.676 212.075 137.469C212.53 137.259 213.04 137.153 213.605 137.153C214.188 137.153 214.693 137.263 215.122 137.482C215.554 137.697 215.888 137.989 216.124 138.355C216.359 138.722 216.477 139.126 216.477 139.57C216.48 140.061 216.335 140.473 216.043 140.805C215.753 141.138 215.372 141.355 214.901 141.457V141.526C215.514 141.611 215.984 141.838 216.311 142.207C216.641 142.574 216.804 143.03 216.801 143.575C216.801 144.064 216.662 144.501 216.384 144.888C216.108 145.271 215.727 145.572 215.241 145.791C214.759 146.01 214.205 146.119 213.58 146.119ZM218.106 144.381V143.124L221.809 137.273H222.858V139.062H222.218L219.725 143.013V143.081H224.895V144.381H218.106ZM222.27 146V143.997L222.287 143.435V137.273H223.778V146H222.27Z" fill="#CB4E6D"/>
<path d="M227.223 146.094C226.965 146.094 226.743 146.003 226.559 145.821C226.374 145.639 226.283 145.418 226.286 145.156C226.283 144.901 226.374 144.682 226.559 144.5C226.743 144.318 226.965 144.227 227.223 144.227C227.473 144.227 227.691 144.318 227.875 144.5C228.063 144.682 228.158 144.901 228.161 145.156C228.158 145.33 228.113 145.487 228.025 145.629C227.939 145.771 227.826 145.885 227.684 145.97C227.544 146.053 227.391 146.094 227.223 146.094ZM229.787 146L233.498 138.653V138.594H229.19V137.273H235.135V138.624L231.427 146H229.787ZM240.06 137.273V146H238.479V138.811H238.428L236.386 140.115V138.666L238.555 137.273H240.06Z" fill="#CF202F"/>
<path d="M86.3608 170V161.273H92.0369V162.598H87.9418V164.967H91.7429V166.293H87.9418V168.675H92.071V170H86.3608ZM93.2663 162.598V161.273H100.229V162.598H97.532V170H95.9638V162.598H93.2663ZM101.572 170V161.273H103.153V164.967H107.197V161.273H108.782V170H107.197V166.293H103.153V170H101.572ZM114.401 165.001V166.271H110.472V165.001H114.401ZM121.593 161.273H123.174V166.974C123.174 167.599 123.026 168.149 122.73 168.624C122.438 169.098 122.026 169.469 121.495 169.736C120.963 170 120.343 170.132 119.632 170.132C118.919 170.132 118.297 170 117.766 169.736C117.235 169.469 116.823 169.098 116.53 168.624C116.238 168.149 116.091 167.599 116.091 166.974V161.273H117.672V166.842C117.672 167.206 117.752 167.53 117.911 167.814C118.073 168.098 118.3 168.321 118.593 168.483C118.885 168.642 119.232 168.722 119.632 168.722C120.033 168.722 120.38 168.642 120.672 168.483C120.968 168.321 121.195 168.098 121.354 167.814C121.513 167.53 121.593 167.206 121.593 166.842V161.273ZM129.635 163.672C129.595 163.3 129.428 163.01 129.132 162.803C128.839 162.595 128.459 162.491 127.99 162.491C127.661 162.491 127.378 162.541 127.142 162.641C126.906 162.74 126.726 162.875 126.601 163.045C126.476 163.216 126.412 163.411 126.409 163.629C126.409 163.811 126.45 163.969 126.533 164.102C126.618 164.236 126.733 164.349 126.878 164.443C127.023 164.534 127.183 164.611 127.359 164.673C127.536 164.736 127.713 164.788 127.892 164.831L128.71 165.036C129.04 165.112 129.357 165.216 129.661 165.347C129.967 165.477 130.241 165.642 130.483 165.841C130.727 166.04 130.92 166.28 131.062 166.561C131.205 166.842 131.276 167.172 131.276 167.55C131.276 168.061 131.145 168.511 130.884 168.901C130.622 169.287 130.244 169.589 129.75 169.808C129.259 170.024 128.663 170.132 127.964 170.132C127.286 170.132 126.696 170.027 126.196 169.817C125.699 169.607 125.31 169.3 125.028 168.896C124.75 168.493 124.599 168.001 124.577 167.422H126.132C126.155 167.726 126.249 167.979 126.413 168.18C126.578 168.382 126.793 168.533 127.057 168.632C127.324 168.732 127.622 168.781 127.952 168.781C128.295 168.781 128.597 168.73 128.855 168.628C129.116 168.523 129.321 168.378 129.469 168.193C129.616 168.006 129.692 167.787 129.695 167.537C129.692 167.31 129.625 167.122 129.494 166.974C129.364 166.824 129.18 166.699 128.945 166.599C128.712 166.497 128.439 166.406 128.126 166.327L127.134 166.071C126.415 165.886 125.847 165.607 125.429 165.232C125.014 164.854 124.807 164.352 124.807 163.727C124.807 163.213 124.946 162.763 125.224 162.376C125.506 161.99 125.888 161.69 126.371 161.477C126.854 161.261 127.401 161.153 128.011 161.153C128.631 161.153 129.173 161.261 129.639 161.477C130.108 161.69 130.476 161.987 130.743 162.368C131.01 162.746 131.148 163.18 131.156 163.672H129.635ZM135.642 170H132.685V161.273H135.702C136.569 161.273 137.313 161.447 137.935 161.797C138.56 162.143 139.04 162.642 139.375 163.293C139.711 163.943 139.878 164.722 139.878 165.628C139.878 166.537 139.709 167.318 139.371 167.972C139.036 168.625 138.551 169.126 137.918 169.476C137.287 169.825 136.529 170 135.642 170ZM134.266 168.632H135.566C136.174 168.632 136.681 168.521 137.087 168.3C137.493 168.075 137.799 167.741 138.003 167.298C138.208 166.852 138.31 166.295 138.31 165.628C138.31 164.96 138.208 164.406 138.003 163.966C137.799 163.523 137.496 163.192 137.096 162.973C136.698 162.751 136.203 162.641 135.613 162.641H134.266V168.632ZM148.85 164.217H147.257C147.211 163.956 147.127 163.724 147.005 163.523C146.883 163.318 146.731 163.145 146.549 163.003C146.368 162.861 146.16 162.754 145.927 162.683C145.697 162.609 145.449 162.572 145.181 162.572C144.707 162.572 144.287 162.692 143.92 162.93C143.554 163.166 143.267 163.513 143.059 163.97C142.852 164.425 142.748 164.98 142.748 165.636C142.748 166.304 142.852 166.866 143.059 167.324C143.27 167.778 143.556 168.122 143.92 168.355C144.287 168.585 144.706 168.7 145.177 168.7C145.439 168.7 145.683 168.666 145.91 168.598C146.14 168.527 146.346 168.423 146.528 168.287C146.713 168.151 146.868 167.983 146.993 167.784C147.12 167.585 147.208 167.358 147.257 167.102L148.85 167.111C148.791 167.526 148.662 167.915 148.463 168.278C148.267 168.642 148.01 168.963 147.691 169.241C147.373 169.517 147.001 169.733 146.575 169.889C146.149 170.043 145.676 170.119 145.156 170.119C144.389 170.119 143.704 169.942 143.102 169.587C142.5 169.232 142.025 168.719 141.679 168.048C141.332 167.378 141.159 166.574 141.159 165.636C141.159 164.696 141.333 163.892 141.683 163.224C142.032 162.554 142.508 162.041 143.11 161.686C143.713 161.331 144.395 161.153 145.156 161.153C145.642 161.153 146.093 161.222 146.511 161.358C146.929 161.494 147.301 161.695 147.627 161.959C147.954 162.22 148.223 162.541 148.433 162.922C148.646 163.3 148.785 163.732 148.85 164.217Z" fill="#0A0B0D"/>
<path d="M281.037 170.119C280.423 170.119 279.877 170.014 279.4 169.804C278.926 169.594 278.551 169.301 278.275 168.926C278 168.551 277.853 168.118 277.836 167.626H279.439C279.453 167.862 279.531 168.068 279.673 168.244C279.815 168.418 280.004 168.553 280.24 168.649C280.475 168.746 280.74 168.794 281.032 168.794C281.345 168.794 281.622 168.74 281.863 168.632C282.105 168.521 282.294 168.368 282.43 168.172C282.566 167.976 282.633 167.75 282.63 167.494C282.633 167.23 282.565 166.997 282.426 166.795C282.287 166.594 282.085 166.436 281.821 166.322C281.559 166.209 281.244 166.152 280.875 166.152H280.103V164.933H280.875C281.179 164.933 281.444 164.881 281.672 164.776C281.902 164.67 282.082 164.523 282.213 164.332C282.343 164.139 282.407 163.916 282.404 163.663C282.407 163.416 282.352 163.202 282.238 163.02C282.127 162.835 281.97 162.692 281.765 162.589C281.564 162.487 281.326 162.436 281.054 162.436C280.787 162.436 280.539 162.484 280.312 162.581C280.085 162.678 279.902 162.815 279.762 162.994C279.623 163.17 279.549 163.381 279.541 163.625H278.02C278.031 163.136 278.172 162.707 278.441 162.338C278.714 161.966 279.078 161.676 279.532 161.469C279.987 161.259 280.497 161.153 281.062 161.153C281.645 161.153 282.15 161.263 282.579 161.482C283.011 161.697 283.345 161.989 283.581 162.355C283.816 162.722 283.934 163.126 283.934 163.57C283.937 164.061 283.792 164.473 283.5 164.805C283.21 165.138 282.829 165.355 282.358 165.457V165.526C282.971 165.611 283.441 165.838 283.768 166.207C284.098 166.574 284.261 167.03 284.258 167.575C284.258 168.064 284.119 168.501 283.841 168.888C283.565 169.271 283.184 169.572 282.699 169.791C282.216 170.01 281.662 170.119 281.037 170.119ZM285.721 170V168.858L288.751 165.888C289.04 165.595 289.282 165.335 289.475 165.108C289.668 164.881 289.813 164.661 289.91 164.447C290.006 164.234 290.055 164.007 290.055 163.766C290.055 163.49 289.992 163.254 289.867 163.058C289.742 162.859 289.57 162.706 289.352 162.598C289.133 162.49 288.884 162.436 288.606 162.436C288.319 162.436 288.067 162.496 287.852 162.615C287.636 162.732 287.468 162.898 287.349 163.114C287.232 163.33 287.174 163.587 287.174 163.885H285.67C285.67 163.331 285.796 162.849 286.049 162.44C286.302 162.031 286.65 161.714 287.093 161.49C287.539 161.266 288.05 161.153 288.627 161.153C289.212 161.153 289.727 161.263 290.17 161.482C290.613 161.7 290.957 162 291.201 162.381C291.448 162.761 291.572 163.196 291.572 163.685C291.572 164.011 291.509 164.332 291.384 164.648C291.259 164.963 291.039 165.312 290.724 165.696C290.411 166.08 289.972 166.544 289.407 167.089L287.903 168.619V168.679H291.704V170H285.721ZM295.002 168.807L294.947 169.276C294.907 169.634 294.836 169.997 294.734 170.366C294.634 170.739 294.529 171.081 294.418 171.393C294.308 171.706 294.218 171.952 294.15 172.131H293.11C293.15 171.957 293.204 171.722 293.272 171.423C293.343 171.125 293.411 170.79 293.477 170.418C293.542 170.045 293.586 169.668 293.609 169.284L293.638 168.807H295.002ZM299.185 161.273V170H297.604V162.811H297.553L295.511 164.115V162.666L297.68 161.273H299.185ZM304.95 161.273V170H303.369V162.811H303.318L301.277 164.115V162.666L303.446 161.273H304.95ZM307.009 168.381V167.124L310.712 161.273H311.76V163.062H311.121L308.628 167.013V167.081H313.797V168.381H307.009ZM311.172 170V167.997L311.189 167.435V161.273H312.68V170H311.172ZM318.22 170V161.273H323.896V162.598H319.801V164.967H323.602V166.293H319.801V168.675H323.93V170H318.22ZM325.126 162.598V161.273H332.089V162.598H329.391V170H327.823V162.598H325.126ZM333.431 170V161.273H335.012V164.967H339.056V161.273H340.641V170H339.056V166.293H335.012V170H333.431Z" fill="#CF202F"/>
<path d="M202.713 170V168.858L205.743 165.888C206.033 165.595 206.274 165.335 206.467 165.108C206.661 164.881 206.805 164.661 206.902 164.447C206.999 164.234 207.047 164.007 207.047 163.766C207.047 163.49 206.984 163.254 206.859 163.058C206.734 162.859 206.562 162.706 206.344 162.598C206.125 162.49 205.876 162.436 205.598 162.436C205.311 162.436 205.06 162.496 204.844 162.615C204.628 162.732 204.46 162.898 204.341 163.114C204.224 163.33 204.166 163.587 204.166 163.885H202.662C202.662 163.331 202.788 162.849 203.041 162.44C203.294 162.031 203.642 161.714 204.085 161.49C204.531 161.266 205.043 161.153 205.619 161.153C206.205 161.153 206.719 161.263 207.162 161.482C207.605 161.7 207.949 162 208.193 162.381C208.44 162.761 208.564 163.196 208.564 163.685C208.564 164.011 208.501 164.332 208.376 164.648C208.251 164.963 208.031 165.312 207.716 165.696C207.403 166.08 206.964 166.544 206.399 167.089L204.895 168.619V168.679H208.696V170H202.713ZM213.298 170.119C212.685 170.119 212.139 170.014 211.662 169.804C211.188 169.594 210.813 169.301 210.537 168.926C210.261 168.551 210.115 168.118 210.098 167.626H211.7C211.714 167.862 211.793 168.068 211.935 168.244C212.077 168.418 212.266 168.553 212.501 168.649C212.737 168.746 213.001 168.794 213.294 168.794C213.607 168.794 213.884 168.74 214.125 168.632C214.366 168.521 214.555 168.368 214.692 168.172C214.828 167.976 214.895 167.75 214.892 167.494C214.895 167.23 214.827 166.997 214.688 166.795C214.548 166.594 214.347 166.436 214.082 166.322C213.821 166.209 213.506 166.152 213.136 166.152H212.365V164.933H213.136C213.44 164.933 213.706 164.881 213.933 164.776C214.163 164.67 214.344 164.523 214.474 164.332C214.605 164.139 214.669 163.916 214.666 163.663C214.669 163.416 214.614 163.202 214.5 163.02C214.389 162.835 214.232 162.692 214.027 162.589C213.825 162.487 213.588 162.436 213.315 162.436C213.048 162.436 212.801 162.484 212.574 162.581C212.347 162.678 212.163 162.815 212.024 162.994C211.885 163.17 211.811 163.381 211.803 163.625H210.281C210.293 163.136 210.433 162.707 210.703 162.338C210.976 161.966 211.339 161.676 211.794 161.469C212.249 161.259 212.759 161.153 213.324 161.153C213.906 161.153 214.412 161.263 214.841 161.482C215.273 161.697 215.607 161.989 215.842 162.355C216.078 162.722 216.196 163.126 216.196 163.57C216.199 164.061 216.054 164.473 215.761 164.805C215.472 165.138 215.091 165.355 214.619 165.457V165.526C215.233 165.611 215.703 165.838 216.03 166.207C216.359 166.574 216.523 167.03 216.52 167.575C216.52 168.064 216.381 168.501 216.102 168.888C215.827 169.271 215.446 169.572 214.96 169.791C214.477 170.01 213.923 170.119 213.298 170.119ZM221.017 170.119C220.449 170.119 219.94 170.013 219.491 169.8C219.042 169.584 218.686 169.288 218.422 168.913C218.16 168.538 218.021 168.109 218.004 167.626H219.538C219.566 167.984 219.721 168.277 220.002 168.504C220.284 168.729 220.622 168.841 221.017 168.841C221.326 168.841 221.602 168.77 221.843 168.628C222.085 168.486 222.275 168.288 222.414 168.036C222.554 167.783 222.622 167.494 222.619 167.17C222.622 166.841 222.552 166.548 222.41 166.293C222.268 166.037 222.074 165.837 221.826 165.692C221.579 165.544 221.295 165.47 220.974 165.47C220.713 165.467 220.456 165.516 220.203 165.615C219.95 165.714 219.75 165.845 219.602 166.007L218.174 165.773L218.63 161.273H223.693V162.594H219.939L219.687 164.908H219.738C219.9 164.717 220.129 164.56 220.424 164.435C220.72 164.307 221.044 164.243 221.396 164.243C221.924 164.243 222.396 164.368 222.811 164.618C223.225 164.865 223.552 165.206 223.791 165.641C224.029 166.075 224.149 166.572 224.149 167.132C224.149 167.709 224.015 168.223 223.748 168.675C223.484 169.124 223.116 169.477 222.645 169.736C222.176 169.991 221.633 170.119 221.017 170.119ZM226.544 170.094C226.285 170.094 226.064 170.003 225.879 169.821C225.694 169.639 225.603 169.418 225.606 169.156C225.603 168.901 225.694 168.682 225.879 168.5C226.064 168.318 226.285 168.227 226.544 168.227C226.794 168.227 227.011 168.318 227.196 168.5C227.383 168.682 227.478 168.901 227.481 169.156C227.478 169.33 227.433 169.487 227.345 169.629C227.26 169.771 227.146 169.885 227.004 169.97C226.865 170.053 226.711 170.094 226.544 170.094ZM229.057 170V168.858L232.087 165.888C232.376 165.595 232.618 165.335 232.811 165.108C233.004 164.881 233.149 164.661 233.246 164.447C233.342 164.234 233.391 164.007 233.391 163.766C233.391 163.49 233.328 163.254 233.203 163.058C233.078 162.859 232.906 162.706 232.688 162.598C232.469 162.49 232.22 162.436 231.942 162.436C231.655 162.436 231.403 162.496 231.188 162.615C230.972 162.732 230.804 162.898 230.685 163.114C230.568 163.33 230.51 163.587 230.51 163.885H229.006C229.006 163.331 229.132 162.849 229.385 162.44C229.638 162.031 229.986 161.714 230.429 161.49C230.875 161.266 231.386 161.153 231.963 161.153C232.548 161.153 233.063 161.263 233.506 161.482C233.949 161.7 234.293 162 234.537 162.381C234.784 162.761 234.908 163.196 234.908 163.685C234.908 164.011 234.845 164.332 234.72 164.648C234.595 164.963 234.375 165.312 234.06 165.696C233.747 166.08 233.308 166.544 232.743 167.089L231.239 168.619V168.679H235.04V170H229.057ZM240.06 161.273V170H238.479V162.811H238.428L236.386 164.115V162.666L238.555 161.273H240.06Z" fill="#CF202F"/>
</g>
<defs>
<filter id="filter0_d" x="40.5" y="35" width="326" height="181" filterUnits="userSpaceOnUse" color-interpolation-filters="sRGB">
<feFlood flood-opacity="0" result="BackgroundImageFix"/>
<feColorMatrix in="SourceAlpha" type="matrix" values="0 0 0 0 0 0 0 0 0 0 0 0 0 0 0 0 0 0 127 0"/>
<feOffset dy="8"/>
<feGaussianBlur stdDeviation="6"/>
<feColorMatrix type="matrix" values="0 0 0 0 0.027451 0 0 0 0 0.0784314 0 0 0 0 0.133333 0 0 0 0.02 0"/>
<feBlend mode="normal" in2="BackgroundImageFix" result="effect1_dropShadow"/>
<feBlend mode="normal" in="SourceGraphic" in2="effect1_dropShadow" result="shape"/>
</filter>
<filter id="filter1_d" x="40.5" y="35" width="326" height="181" filterUnits="userSpaceOnUse" color-interpolation-filters="sRGB">
<feFlood flood-opacity="0" result="BackgroundImageFix"/>
<feColorMatrix in="SourceAlpha" type="matrix" values="0 0 0 0 0 0 0 0 0 0 0 0 0 0 0 0 0 0 127 0"/>
<feOffset dy="8"/>
<feGaussianBlur stdDeviation="6"/>
<feColorMatrix type="matrix" values="0 0 0 0 0.027451 0 0 0 0 0.0784314 0 0 0 0 0.133333 0 0 0 0.02 0"/>
<feBlend mode="normal" in2="BackgroundImageFix" result="effect1_dropShadow"/>
<feBlend mode="normal" in="SourceGraphic" in2="effect1_dropShadow" result="shape"/>
</filter>
</defs>
</svg>
