<svg width="563" height="313" viewBox="0 0 563 313" fill="none" xmlns="http://www.w3.org/2000/svg">
<g filter="url(#filter0_d)">
<g clip-path="url(#clip0)">
<rect x="25" y="24" width="513" height="195" rx="4" fill="white"/>
<rect width="529" height="65" transform="translate(25 24)" fill="white"/>
<path d="M49.7727 52.6136V51.3636H58.5V52.6136H54.8409V63H53.4318V52.6136H49.7727ZM62.5967 63.1818C61.8088 63.1818 61.1176 62.9943 60.5229 62.6193C59.932 62.2443 59.4698 61.7197 59.1365 61.0455C58.807 60.3712 58.6422 59.5833 58.6422 58.6818C58.6422 57.7727 58.807 56.9792 59.1365 56.3011C59.4698 55.6231 59.932 55.0966 60.5229 54.7216C61.1176 54.3466 61.8088 54.1591 62.5967 54.1591C63.3846 54.1591 64.074 54.3466 64.6649 54.7216C65.2596 55.0966 65.7217 55.6231 66.0513 56.3011C66.3846 56.9792 66.5513 57.7727 66.5513 58.6818C66.5513 59.5833 66.3846 60.3712 66.0513 61.0455C65.7217 61.7197 65.2596 62.2443 64.6649 62.6193C64.074 62.9943 63.3846 63.1818 62.5967 63.1818ZM62.5967 61.9773C63.1952 61.9773 63.6876 61.8239 64.074 61.517C64.4604 61.2102 64.7463 60.8068 64.932 60.3068C65.1176 59.8068 65.2104 59.2652 65.2104 58.6818C65.2104 58.0985 65.1176 57.5549 64.932 57.0511C64.7463 56.5473 64.4604 56.1402 64.074 55.8295C63.6876 55.5189 63.1952 55.3636 62.5967 55.3636C61.9982 55.3636 61.5058 55.5189 61.1195 55.8295C60.7331 56.1402 60.4471 56.5473 60.2615 57.0511C60.0759 57.5549 59.9831 58.0985 59.9831 58.6818C59.9831 59.2652 60.0759 59.8068 60.2615 60.3068C60.4471 60.8068 60.7331 61.2102 61.1195 61.517C61.5058 61.8239 61.9982 61.9773 62.5967 61.9773Z" fill="#0A0B0D"/>
<path d="M179.409 51.3636H181.091L185.045 61.0227H185.182L189.136 51.3636H190.818V63H189.5V54.1591H189.386L185.75 63H184.477L180.841 54.1591H180.727V63H179.409V51.3636ZM196.831 63.1818C196.043 63.1818 195.352 62.9943 194.757 62.6193C194.166 62.2443 193.704 61.7197 193.371 61.0455C193.041 60.3712 192.877 59.5833 192.877 58.6818C192.877 57.7727 193.041 56.9792 193.371 56.3011C193.704 55.6231 194.166 55.0966 194.757 54.7216C195.352 54.3466 196.043 54.1591 196.831 54.1591C197.619 54.1591 198.308 54.3466 198.899 54.7216C199.494 55.0966 199.956 55.6231 200.286 56.3011C200.619 56.9792 200.786 57.7727 200.786 58.6818C200.786 59.5833 200.619 60.3712 200.286 61.0455C199.956 61.7197 199.494 62.2443 198.899 62.6193C198.308 62.9943 197.619 63.1818 196.831 63.1818ZM196.831 61.9773C197.43 61.9773 197.922 61.8239 198.308 61.517C198.695 61.2102 198.981 60.8068 199.166 60.3068C199.352 59.8068 199.445 59.2652 199.445 58.6818C199.445 58.0985 199.352 57.5549 199.166 57.0511C198.981 56.5473 198.695 56.1402 198.308 55.8295C197.922 55.5189 197.43 55.3636 196.831 55.3636C196.233 55.3636 195.74 55.5189 195.354 55.8295C194.967 56.1402 194.681 56.5473 194.496 57.0511C194.31 57.5549 194.217 58.0985 194.217 58.6818C194.217 59.2652 194.31 59.8068 194.496 60.3068C194.681 60.8068 194.967 61.2102 195.354 61.517C195.74 61.8239 196.233 61.9773 196.831 61.9773ZM202.838 63V51.3636H204.179V55.6591H204.293C204.391 55.5076 204.528 55.3144 204.702 55.0795C204.88 54.8409 205.134 54.6288 205.463 54.4432C205.797 54.2538 206.247 54.1591 206.816 54.1591C207.55 54.1591 208.198 54.3428 208.759 54.7102C209.319 55.0777 209.757 55.5985 210.071 56.2727C210.386 56.947 210.543 57.7424 210.543 58.6591C210.543 59.5833 210.386 60.3845 210.071 61.0625C209.757 61.7367 209.321 62.2595 208.764 62.6307C208.208 62.9981 207.566 63.1818 206.838 63.1818C206.278 63.1818 205.829 63.089 205.492 62.9034C205.155 62.714 204.895 62.5 204.713 62.2614C204.532 62.0189 204.391 61.8182 204.293 61.6591H204.134V63H202.838ZM204.157 58.6364C204.157 59.2955 204.253 59.8769 204.446 60.3807C204.639 60.8807 204.922 61.2727 205.293 61.5568C205.664 61.8371 206.119 61.9773 206.657 61.9773C207.217 61.9773 207.685 61.8295 208.06 61.5341C208.439 61.2348 208.723 60.8333 208.912 60.3295C209.105 59.822 209.202 59.2576 209.202 58.6364C209.202 58.0227 209.107 57.4697 208.918 56.9773C208.732 56.4811 208.45 56.089 208.071 55.8011C207.696 55.5095 207.225 55.3636 206.657 55.3636C206.111 55.3636 205.653 55.5019 205.282 55.7784C204.91 56.0511 204.63 56.4337 204.441 56.9261C204.251 57.4148 204.157 57.9848 204.157 58.6364ZM212.418 63V54.2727H213.759V63H212.418ZM213.1 52.8182C212.838 52.8182 212.613 52.7292 212.424 52.5511C212.238 52.3731 212.145 52.1591 212.145 51.9091C212.145 51.6591 212.238 51.4451 212.424 51.267C212.613 51.089 212.838 51 213.1 51C213.361 51 213.585 51.089 213.77 51.267C213.96 51.4451 214.054 51.6591 214.054 51.9091C214.054 52.1591 213.96 52.3731 213.77 52.5511C213.585 52.7292 213.361 52.8182 213.1 52.8182ZM217.38 51.3636V63H216.039V51.3636H217.38ZM223.319 63.1818C222.478 63.1818 221.753 62.9962 221.143 62.625C220.537 62.25 220.069 61.7273 219.739 61.0568C219.414 60.3826 219.251 59.5985 219.251 58.7045C219.251 57.8106 219.414 57.0227 219.739 56.3409C220.069 55.6553 220.527 55.1212 221.114 54.7386C221.705 54.3523 222.395 54.1591 223.182 54.1591C223.637 54.1591 224.086 54.2348 224.529 54.3864C224.972 54.5379 225.376 54.7841 225.739 55.125C226.103 55.4621 226.393 55.9091 226.609 56.4659C226.825 57.0227 226.932 57.7083 226.932 58.5227V59.0909H220.205V57.9318H225.569C225.569 57.4394 225.47 57 225.273 56.6136C225.08 56.2273 224.804 55.9223 224.444 55.6989C224.088 55.4754 223.667 55.3636 223.182 55.3636C222.648 55.3636 222.186 55.4962 221.796 55.7614C221.41 56.0227 221.112 56.3636 220.904 56.7841C220.696 57.2045 220.592 57.6553 220.592 58.1364V58.9091C220.592 59.5682 220.705 60.1269 220.932 60.5852C221.164 61.0398 221.484 61.3864 221.893 61.625C222.302 61.8598 222.777 61.9773 223.319 61.9773C223.671 61.9773 223.989 61.928 224.273 61.8295C224.561 61.7273 224.809 61.5758 225.018 61.375C225.226 61.1705 225.387 60.9167 225.501 60.6136L226.796 60.9773C226.66 61.4167 226.431 61.803 226.109 62.1364C225.787 62.4659 225.389 62.7235 224.915 62.9091C224.442 63.0909 223.91 63.1818 223.319 63.1818ZM230.796 61.4091L230.705 62.0227C230.641 62.4545 230.542 62.9167 230.41 63.4091C230.281 63.9015 230.147 64.3655 230.007 64.8011C229.866 65.2367 229.751 65.5833 229.66 65.8409H228.637C228.686 65.5985 228.751 65.2784 228.83 64.8807C228.91 64.483 228.989 64.0379 229.069 63.5455C229.152 63.0568 229.221 62.5568 229.274 62.0455L229.342 61.4091H230.796ZM241.088 63.1818C240.247 63.1818 239.521 62.9962 238.912 62.625C238.306 62.25 237.838 61.7273 237.508 61.0568C237.182 60.3826 237.02 59.5985 237.02 58.7045C237.02 57.8106 237.182 57.0227 237.508 56.3409C237.838 55.6553 238.296 55.1212 238.883 54.7386C239.474 54.3523 240.163 54.1591 240.951 54.1591C241.406 54.1591 241.855 54.2348 242.298 54.3864C242.741 54.5379 243.145 54.7841 243.508 55.125C243.872 55.4621 244.162 55.9091 244.378 56.4659C244.593 57.0227 244.701 57.7083 244.701 58.5227V59.0909H237.974V57.9318H243.338C243.338 57.4394 243.239 57 243.042 56.6136C242.849 56.2273 242.573 55.9223 242.213 55.6989C241.857 55.4754 241.436 55.3636 240.951 55.3636C240.417 55.3636 239.955 55.4962 239.565 55.7614C239.179 56.0227 238.881 56.3636 238.673 56.7841C238.465 57.2045 238.36 57.6553 238.36 58.1364V58.9091C238.36 59.5682 238.474 60.1269 238.701 60.5852C238.932 61.0398 239.253 61.3864 239.662 61.625C240.071 61.8598 240.546 61.9773 241.088 61.9773C241.44 61.9773 241.758 61.928 242.042 61.8295C242.33 61.7273 242.578 61.5758 242.787 61.375C242.995 61.1705 243.156 60.9167 243.27 60.6136L244.565 60.9773C244.429 61.4167 244.199 61.803 243.878 62.1364C243.556 62.4659 243.158 62.7235 242.684 62.9091C242.211 63.0909 241.679 63.1818 241.088 63.1818ZM246.565 63V54.2727H247.861V55.6364H247.974C248.156 55.1705 248.45 54.8087 248.855 54.5511C249.26 54.2898 249.747 54.1591 250.315 54.1591C250.891 54.1591 251.37 54.2898 251.753 54.5511C252.139 54.8087 252.44 55.1705 252.656 55.6364H252.747C252.97 55.1856 253.306 54.8277 253.753 54.5625C254.2 54.2936 254.736 54.1591 255.361 54.1591C256.141 54.1591 256.779 54.4034 257.275 54.892C257.772 55.3769 258.02 56.1326 258.02 57.1591V63H256.679V57.1591C256.679 56.5152 256.503 56.0549 256.15 55.7784C255.798 55.5019 255.383 55.3636 254.906 55.3636C254.292 55.3636 253.817 55.5492 253.48 55.9205C253.143 56.2879 252.974 56.7538 252.974 57.3182V63H251.611V57.0227C251.611 56.5265 251.45 56.1269 251.128 55.8239C250.806 55.517 250.391 55.3636 249.883 55.3636C249.535 55.3636 249.209 55.4564 248.906 55.642C248.607 55.8277 248.364 56.0852 248.179 56.4148C247.997 56.7405 247.906 57.1174 247.906 57.5455V63H246.565ZM262.864 63.2045C262.311 63.2045 261.809 63.1004 261.358 62.892C260.907 62.6799 260.549 62.375 260.284 61.9773C260.019 61.5758 259.886 61.0909 259.886 60.5227C259.886 60.0227 259.985 59.6174 260.182 59.3068C260.379 58.9924 260.642 58.7462 260.972 58.5682C261.301 58.3902 261.665 58.2576 262.062 58.1705C262.464 58.0795 262.867 58.0076 263.273 57.9545C263.803 57.8864 264.233 57.8352 264.562 57.8011C264.896 57.7633 265.138 57.7008 265.29 57.6136C265.445 57.5265 265.523 57.375 265.523 57.1591V57.1136C265.523 56.553 265.369 56.1174 265.062 55.8068C264.759 55.4962 264.299 55.3409 263.682 55.3409C263.042 55.3409 262.54 55.4811 262.176 55.7614C261.812 56.0417 261.557 56.3409 261.409 56.6591L260.136 56.2045C260.364 55.6742 260.667 55.2614 261.045 54.9659C261.428 54.6667 261.845 54.4583 262.295 54.3409C262.75 54.2197 263.197 54.1591 263.636 54.1591C263.917 54.1591 264.239 54.1932 264.602 54.2614C264.97 54.3258 265.324 54.4602 265.665 54.6648C266.009 54.8693 266.295 55.178 266.523 55.5909C266.75 56.0038 266.864 56.5568 266.864 57.25V63H265.523V61.8182H265.454C265.364 62.0076 265.212 62.2102 265 62.4261C264.788 62.642 264.506 62.8258 264.153 62.9773C263.801 63.1288 263.371 63.2045 262.864 63.2045ZM263.068 62C263.598 62 264.045 61.8958 264.409 61.6875C264.776 61.4792 265.053 61.2102 265.239 60.8807C265.428 60.5511 265.523 60.2045 265.523 59.8409V58.6136C265.466 58.6818 265.341 58.7443 265.148 58.8011C264.958 58.8542 264.739 58.9015 264.489 58.9432C264.242 58.9811 264.002 59.0152 263.767 59.0455C263.536 59.072 263.348 59.0947 263.204 59.1136C262.856 59.1591 262.53 59.233 262.227 59.3352C261.928 59.4337 261.686 59.5833 261.5 59.7841C261.318 59.9811 261.227 60.25 261.227 60.5909C261.227 61.0568 261.4 61.4091 261.744 61.6477C262.093 61.8826 262.534 62 263.068 62ZM269.135 63V54.2727H270.476V63H269.135ZM269.817 52.8182C269.555 52.8182 269.33 52.7292 269.141 52.5511C268.955 52.3731 268.862 52.1591 268.862 51.9091C268.862 51.6591 268.955 51.4451 269.141 51.267C269.33 51.089 269.555 51 269.817 51C270.078 51 270.302 51.089 270.487 51.267C270.677 51.4451 270.771 51.6591 270.771 51.9091C270.771 52.1591 270.677 52.3731 270.487 52.5511C270.302 52.7292 270.078 52.8182 269.817 52.8182ZM274.097 51.3636V63H272.756V51.3636H274.097ZM278.377 61.4091L278.286 62.0227C278.221 62.4545 278.123 62.9167 277.99 63.4091C277.862 63.9015 277.727 64.3655 277.587 64.8011C277.447 65.2367 277.331 65.5833 277.24 65.8409H276.218C276.267 65.5985 276.331 65.2784 276.411 64.8807C276.49 64.483 276.57 64.0379 276.649 63.5455C276.733 63.0568 276.801 62.5568 276.854 62.0455L276.922 61.4091H278.377ZM288.555 63.1818C287.767 63.1818 287.075 62.9943 286.481 62.6193C285.89 62.2443 285.428 61.7197 285.094 61.0455C284.765 60.3712 284.6 59.5833 284.6 58.6818C284.6 57.7727 284.765 56.9792 285.094 56.3011C285.428 55.6231 285.89 55.0966 286.481 54.7216C287.075 54.3466 287.767 54.1591 288.555 54.1591C289.342 54.1591 290.032 54.3466 290.623 54.7216C291.217 55.0966 291.68 55.6231 292.009 56.3011C292.342 56.9792 292.509 57.7727 292.509 58.6818C292.509 59.5833 292.342 60.3712 292.009 61.0455C291.68 61.7197 291.217 62.2443 290.623 62.6193C290.032 62.9943 289.342 63.1818 288.555 63.1818ZM288.555 61.9773C289.153 61.9773 289.646 61.8239 290.032 61.517C290.418 61.2102 290.704 60.8068 290.89 60.3068C291.075 59.8068 291.168 59.2652 291.168 58.6818C291.168 58.0985 291.075 57.5549 290.89 57.0511C290.704 56.5473 290.418 56.1402 290.032 55.8295C289.646 55.5189 289.153 55.3636 288.555 55.3636C287.956 55.3636 287.464 55.5189 287.077 55.8295C286.691 56.1402 286.405 56.5473 286.219 57.0511C286.034 57.5549 285.941 58.0985 285.941 58.6818C285.941 59.2652 286.034 59.8068 286.219 60.3068C286.405 60.8068 286.691 61.2102 287.077 61.517C287.464 61.8239 287.956 61.9773 288.555 61.9773ZM294.38 63V54.2727H295.675V55.5909H295.766C295.925 55.1591 296.213 54.8087 296.63 54.5398C297.047 54.2708 297.516 54.1364 298.039 54.1364C298.138 54.1364 298.261 54.1383 298.408 54.142C298.556 54.1458 298.668 54.1515 298.744 54.1591V55.5227C298.698 55.5114 298.594 55.4943 298.431 55.4716C298.272 55.4451 298.104 55.4318 297.925 55.4318C297.501 55.4318 297.122 55.5208 296.789 55.6989C296.46 55.8731 296.198 56.1155 296.005 56.4261C295.816 56.733 295.721 57.0833 295.721 57.4773V63H294.38ZM307.049 63.2045C306.496 63.2045 305.994 63.1004 305.544 62.892C305.093 62.6799 304.735 62.375 304.47 61.9773C304.205 61.5758 304.072 61.0909 304.072 60.5227C304.072 60.0227 304.171 59.6174 304.368 59.3068C304.564 58.9924 304.828 58.7462 305.157 58.5682C305.487 58.3902 305.85 58.2576 306.248 58.1705C306.65 58.0795 307.053 58.0076 307.458 57.9545C307.989 57.8864 308.419 57.8352 308.748 57.8011C309.082 57.7633 309.324 57.7008 309.475 57.6136C309.631 57.5265 309.708 57.375 309.708 57.1591V57.1136C309.708 56.553 309.555 56.1174 309.248 55.8068C308.945 55.4962 308.485 55.3409 307.868 55.3409C307.227 55.3409 306.725 55.4811 306.362 55.7614C305.998 56.0417 305.743 56.3409 305.595 56.6591L304.322 56.2045C304.549 55.6742 304.852 55.2614 305.231 54.9659C305.614 54.6667 306.03 54.4583 306.481 54.3409C306.936 54.2197 307.383 54.1591 307.822 54.1591C308.102 54.1591 308.424 54.1932 308.788 54.2614C309.155 54.3258 309.51 54.4602 309.85 54.6648C310.195 54.8693 310.481 55.178 310.708 55.5909C310.936 56.0038 311.049 56.5568 311.049 57.25V63H309.708V61.8182H309.64C309.549 62.0076 309.398 62.2102 309.186 62.4261C308.974 62.642 308.691 62.8258 308.339 62.9773C307.987 63.1288 307.557 63.2045 307.049 63.2045ZM307.254 62C307.784 62 308.231 61.8958 308.595 61.6875C308.962 61.4792 309.239 61.2102 309.424 60.8807C309.614 60.5511 309.708 60.2045 309.708 59.8409V58.6136C309.652 58.6818 309.527 58.7443 309.333 58.8011C309.144 58.8542 308.924 58.9015 308.674 58.9432C308.428 58.9811 308.188 59.0152 307.953 59.0455C307.722 59.072 307.534 59.0947 307.39 59.1136C307.042 59.1591 306.716 59.233 306.413 59.3352C306.114 59.4337 305.871 59.5833 305.686 59.7841C305.504 59.9811 305.413 60.25 305.413 60.5909C305.413 61.0568 305.585 61.4091 305.93 61.6477C306.278 61.8826 306.72 62 307.254 62ZM316.616 63.1818C315.889 63.1818 315.247 62.9981 314.69 62.6307C314.133 62.2595 313.698 61.7367 313.383 61.0625C313.069 60.3845 312.912 59.5833 312.912 58.6591C312.912 57.7424 313.069 56.947 313.383 56.2727C313.698 55.5985 314.135 55.0777 314.696 54.7102C315.256 54.3428 315.904 54.1591 316.639 54.1591C317.207 54.1591 317.656 54.2538 317.986 54.4432C318.319 54.6288 318.573 54.8409 318.747 55.0795C318.925 55.3144 319.063 55.5076 319.162 55.6591H319.275V51.3636H320.616V63H319.321V61.6591H319.162C319.063 61.8182 318.923 62.0189 318.741 62.2614C318.559 62.5 318.3 62.714 317.963 62.9034C317.626 63.089 317.177 63.1818 316.616 63.1818ZM316.798 61.9773C317.336 61.9773 317.79 61.8371 318.162 61.5568C318.533 61.2727 318.815 60.8807 319.008 60.3807C319.201 59.8769 319.298 59.2955 319.298 58.6364C319.298 57.9848 319.203 57.4148 319.014 56.9261C318.825 56.4337 318.544 56.0511 318.173 55.7784C317.802 55.5019 317.344 55.3636 316.798 55.3636C316.23 55.3636 315.756 55.5095 315.378 55.8011C315.003 56.089 314.72 56.4811 314.531 56.9773C314.345 57.4697 314.253 58.0227 314.253 58.6364C314.253 59.2576 314.347 59.822 314.537 60.3295C314.73 60.8333 315.014 61.2348 315.389 61.5341C315.768 61.8295 316.237 61.9773 316.798 61.9773ZM326.378 63.1818C325.65 63.1818 325.008 62.9981 324.452 62.6307C323.895 62.2595 323.459 61.7367 323.145 61.0625C322.83 60.3845 322.673 59.5833 322.673 58.6591C322.673 57.7424 322.83 56.947 323.145 56.2727C323.459 55.5985 323.897 55.0777 324.457 54.7102C325.018 54.3428 325.666 54.1591 326.4 54.1591C326.969 54.1591 327.417 54.2538 327.747 54.4432C328.08 54.6288 328.334 54.8409 328.508 55.0795C328.686 55.3144 328.825 55.5076 328.923 55.6591H329.037V51.3636H330.378V63H329.082V61.6591H328.923C328.825 61.8182 328.685 62.0189 328.503 62.2614C328.321 62.5 328.061 62.714 327.724 62.9034C327.387 63.089 326.938 63.1818 326.378 63.1818ZM326.56 61.9773C327.097 61.9773 327.552 61.8371 327.923 61.5568C328.294 61.2727 328.577 60.8807 328.77 60.3807C328.963 59.8769 329.06 59.2955 329.06 58.6364C329.06 57.9848 328.965 57.4148 328.775 56.9261C328.586 56.4337 328.306 56.0511 327.935 55.7784C327.563 55.5019 327.105 55.3636 326.56 55.3636C325.991 55.3636 325.518 55.5095 325.139 55.8011C324.764 56.089 324.482 56.4811 324.292 56.9773C324.107 57.4697 324.014 58.0227 324.014 58.6364C324.014 59.2576 324.109 59.822 324.298 60.3295C324.491 60.8333 324.775 61.2348 325.15 61.5341C325.529 61.8295 325.999 61.9773 326.56 61.9773ZM332.844 63V54.2727H334.139V55.5909H334.23C334.389 55.1591 334.677 54.8087 335.094 54.5398C335.51 54.2708 335.98 54.1364 336.503 54.1364C336.601 54.1364 336.724 54.1383 336.872 54.142C337.02 54.1458 337.132 54.1515 337.207 54.1591V55.5227C337.162 55.5114 337.058 55.4943 336.895 55.4716C336.736 55.4451 336.567 55.4318 336.389 55.4318C335.965 55.4318 335.586 55.5208 335.253 55.6989C334.923 55.8731 334.662 56.1155 334.469 56.4261C334.279 56.733 334.185 57.0833 334.185 57.4773V63H332.844ZM342.014 63.1818C341.173 63.1818 340.448 62.9962 339.838 62.625C339.232 62.25 338.764 61.7273 338.435 61.0568C338.109 60.3826 337.946 59.5985 337.946 58.7045C337.946 57.8106 338.109 57.0227 338.435 56.3409C338.764 55.6553 339.223 55.1212 339.81 54.7386C340.401 54.3523 341.09 54.1591 341.878 54.1591C342.333 54.1591 342.781 54.2348 343.225 54.3864C343.668 54.5379 344.071 54.7841 344.435 55.125C344.798 55.4621 345.088 55.9091 345.304 56.4659C345.52 57.0227 345.628 57.7083 345.628 58.5227V59.0909H338.901V57.9318H344.264C344.264 57.4394 344.166 57 343.969 56.6136C343.776 56.2273 343.499 55.9223 343.139 55.6989C342.783 55.4754 342.363 55.3636 341.878 55.3636C341.344 55.3636 340.882 55.4962 340.492 55.7614C340.105 56.0227 339.808 56.3636 339.6 56.7841C339.391 57.2045 339.287 57.6553 339.287 58.1364V58.9091C339.287 59.5682 339.401 60.1269 339.628 60.5852C339.859 61.0398 340.179 61.3864 340.588 61.625C340.997 61.8598 341.473 61.9773 342.014 61.9773C342.367 61.9773 342.685 61.928 342.969 61.8295C343.257 61.7273 343.505 61.5758 343.713 61.375C343.922 61.1705 344.083 60.9167 344.196 60.6136L345.492 60.9773C345.355 61.4167 345.126 61.803 344.804 62.1364C344.482 62.4659 344.084 62.7235 343.611 62.9091C343.137 63.0909 342.605 63.1818 342.014 63.1818ZM353.674 56.2273L352.469 56.5682C352.393 56.3674 352.282 56.1723 352.134 55.983C351.99 55.7898 351.793 55.6307 351.543 55.5057C351.293 55.3807 350.973 55.3182 350.583 55.3182C350.049 55.3182 349.604 55.4413 349.247 55.6875C348.895 55.9299 348.719 56.2386 348.719 56.6136C348.719 56.947 348.84 57.2102 349.083 57.4034C349.325 57.5966 349.704 57.7576 350.219 57.8864L351.514 58.2045C352.295 58.3939 352.876 58.6837 353.259 59.0739C353.641 59.4602 353.833 59.9583 353.833 60.5682C353.833 61.0682 353.689 61.5152 353.401 61.9091C353.117 62.303 352.719 62.6136 352.208 62.8409C351.696 63.0682 351.102 63.1818 350.424 63.1818C349.533 63.1818 348.797 62.9886 348.213 62.6023C347.63 62.2159 347.261 61.6515 347.105 60.9091L348.378 60.5909C348.499 61.0606 348.729 61.4129 349.066 61.6477C349.407 61.8826 349.852 62 350.401 62C351.026 62 351.522 61.8674 351.889 61.6023C352.261 61.3333 352.446 61.0114 352.446 60.6364C352.446 60.3333 352.34 60.0795 352.128 59.875C351.916 59.6667 351.59 59.5114 351.151 59.4091L349.696 59.0682C348.897 58.8788 348.31 58.5852 347.935 58.1875C347.564 57.786 347.378 57.2841 347.378 56.6818C347.378 56.1894 347.516 55.7538 347.793 55.375C348.073 54.9962 348.454 54.6989 348.935 54.483C349.42 54.267 349.969 54.1591 350.583 54.1591C351.446 54.1591 352.124 54.3485 352.617 54.7273C353.113 55.1061 353.465 55.6061 353.674 56.2273ZM361.857 56.2273L360.652 56.5682C360.577 56.3674 360.465 56.1723 360.317 55.983C360.173 55.7898 359.976 55.6307 359.726 55.5057C359.476 55.3807 359.156 55.3182 358.766 55.3182C358.232 55.3182 357.787 55.4413 357.431 55.6875C357.079 55.9299 356.902 56.2386 356.902 56.6136C356.902 56.947 357.024 57.2102 357.266 57.4034C357.508 57.5966 357.887 57.7576 358.402 57.8864L359.698 58.2045C360.478 58.3939 361.06 58.6837 361.442 59.0739C361.825 59.4602 362.016 59.9583 362.016 60.5682C362.016 61.0682 361.872 61.5152 361.584 61.9091C361.3 62.303 360.902 62.6136 360.391 62.8409C359.88 63.0682 359.285 63.1818 358.607 63.1818C357.717 63.1818 356.98 62.9886 356.397 62.6023C355.813 62.2159 355.444 61.6515 355.289 60.9091L356.562 60.5909C356.683 61.0606 356.912 61.4129 357.249 61.6477C357.59 61.8826 358.035 62 358.584 62C359.209 62 359.705 61.8674 360.073 61.6023C360.444 61.3333 360.63 61.0114 360.63 60.6364C360.63 60.3333 360.524 60.0795 360.312 59.875C360.099 59.6667 359.774 59.5114 359.334 59.4091L357.88 59.0682C357.08 58.8788 356.493 58.5852 356.118 58.1875C355.747 57.786 355.562 57.2841 355.562 56.6818C355.562 56.1894 355.7 55.7538 355.976 55.375C356.257 54.9962 356.637 54.6989 357.118 54.483C357.603 54.267 358.152 54.1591 358.766 54.1591C359.63 54.1591 360.308 54.3485 360.8 54.7273C361.296 55.1061 361.649 55.6061 361.857 56.2273Z" fill="#5B636E"/>
<path d="M145.97 50.5H156.5V53.5H145.97C145.16 53.5 144.5 52.84 144.5 52.03V51.97C144.5 51.16 145.16 50.5 145.97 50.5Z" fill="#5B636E"/>
<path d="M144.5 54.5V61.4C144.5 62.56 145.44 63.5 146.6 63.5H157.5V54.5H144.5ZM154.5 59.5C153.95 59.5 153.5 59.05 153.5 58.5C153.5 57.95 153.95 57.5 154.5 57.5C155.05 57.5 155.5 57.95 155.5 58.5C155.5 59.05 155.05 59.5 154.5 59.5Z" fill="#5B636E"/>
<line x1="25" y1="88.5" x2="554" y2="88.5" stroke="#8A919E" stroke-opacity="0.2"/>
<rect width="529" height="65" transform="translate(25 89)" fill="white"/>
<path d="M59.6364 116.364V128H58.2727L51.9318 118.864H51.8182V128H50.4091V116.364H51.7727L58.1364 125.523H58.25V116.364H59.6364ZM65.6436 128.182C64.8557 128.182 64.1644 127.994 63.5697 127.619C62.9788 127.244 62.5167 126.72 62.1834 126.045C61.8538 125.371 61.6891 124.583 61.6891 123.682C61.6891 122.773 61.8538 121.979 62.1834 121.301C62.5167 120.623 62.9788 120.097 63.5697 119.722C64.1644 119.347 64.8557 119.159 65.6436 119.159C66.4315 119.159 67.1209 119.347 67.7118 119.722C68.3065 120.097 68.7686 120.623 69.0981 121.301C69.4315 121.979 69.5981 122.773 69.5981 123.682C69.5981 124.583 69.4315 125.371 69.0981 126.045C68.7686 126.72 68.3065 127.244 67.7118 127.619C67.1209 127.994 66.4315 128.182 65.6436 128.182ZM65.6436 126.977C66.2421 126.977 66.7345 126.824 67.1209 126.517C67.5072 126.21 67.7932 125.807 67.9788 125.307C68.1644 124.807 68.2572 124.265 68.2572 123.682C68.2572 123.098 68.1644 122.555 67.9788 122.051C67.7932 121.547 67.5072 121.14 67.1209 120.83C66.7345 120.519 66.2421 120.364 65.6436 120.364C65.0451 120.364 64.5527 120.519 64.1663 120.83C63.78 121.14 63.494 121.547 63.3084 122.051C63.1228 122.555 63.03 123.098 63.03 123.682C63.03 124.265 63.1228 124.807 63.3084 125.307C63.494 125.807 63.78 126.21 64.1663 126.517C64.5527 126.824 65.0451 126.977 65.6436 126.977ZM75.2645 119.273V120.409H70.7418V119.273H75.2645ZM72.0599 117.182H73.4008V125.5C73.4008 125.879 73.4558 126.163 73.5656 126.352C73.6793 126.538 73.8232 126.663 73.9974 126.727C74.1755 126.788 74.363 126.818 74.5599 126.818C74.7077 126.818 74.8289 126.811 74.9236 126.795C75.0183 126.777 75.094 126.761 75.1508 126.75L75.4236 127.955C75.3327 127.989 75.2058 128.023 75.0429 128.057C74.88 128.095 74.6736 128.114 74.4236 128.114C74.0448 128.114 73.6736 128.032 73.3099 127.869C72.9501 127.706 72.6508 127.458 72.4122 127.125C72.1774 126.792 72.0599 126.371 72.0599 125.864V117.182ZM80.6709 128.182C79.83 128.182 79.1046 127.996 78.4947 127.625C77.8887 127.25 77.4209 126.727 77.0913 126.057C76.7656 125.383 76.6027 124.598 76.6027 123.705C76.6027 122.811 76.7656 122.023 77.0913 121.341C77.4209 120.655 77.8792 120.121 78.4663 119.739C79.0572 119.352 79.7466 119.159 80.5345 119.159C80.989 119.159 81.4379 119.235 81.8811 119.386C82.3243 119.538 82.7277 119.784 83.0913 120.125C83.455 120.462 83.7447 120.909 83.9606 121.466C84.1765 122.023 84.2845 122.708 84.2845 123.523V124.091H77.5572V122.932H82.9209C82.9209 122.439 82.8224 122 82.6254 121.614C82.4322 121.227 82.1557 120.922 81.7959 120.699C81.4398 120.475 81.0193 120.364 80.5345 120.364C80.0004 120.364 79.5383 120.496 79.1481 120.761C78.7618 121.023 78.4644 121.364 78.2561 121.784C78.0478 122.205 77.9436 122.655 77.9436 123.136V123.909C77.9436 124.568 78.0572 125.127 78.2845 125.585C78.5156 126.04 78.8356 126.386 79.2447 126.625C79.6538 126.86 80.1292 126.977 80.6709 126.977C81.0231 126.977 81.3413 126.928 81.6254 126.83C81.9133 126.727 82.1614 126.576 82.3697 126.375C82.5781 126.17 82.739 125.917 82.8527 125.614L84.1481 125.977C84.0118 126.417 83.7826 126.803 83.4606 127.136C83.1387 127.466 82.7409 127.723 82.2675 127.909C81.794 128.091 81.2618 128.182 80.6709 128.182Z" fill="#0A0B0D"/>
<path d="M189.227 121.182C189.227 122.409 189.006 123.47 188.562 124.364C188.119 125.258 187.511 125.947 186.739 126.432C185.966 126.917 185.083 127.159 184.091 127.159C183.098 127.159 182.216 126.917 181.443 126.432C180.67 125.947 180.063 125.258 179.619 124.364C179.176 123.47 178.955 122.409 178.955 121.182C178.955 119.955 179.176 118.894 179.619 118C180.063 117.106 180.67 116.417 181.443 115.932C182.216 115.447 183.098 115.205 184.091 115.205C185.083 115.205 185.966 115.447 186.739 115.932C187.511 116.417 188.119 117.106 188.562 118C189.006 118.894 189.227 119.955 189.227 121.182ZM187.864 121.182C187.864 120.174 187.695 119.324 187.358 118.631C187.025 117.938 186.572 117.413 186 117.057C185.432 116.701 184.795 116.523 184.091 116.523C183.386 116.523 182.748 116.701 182.176 117.057C181.608 117.413 181.155 117.938 180.818 118.631C180.485 119.324 180.318 120.174 180.318 121.182C180.318 122.189 180.485 123.04 180.818 123.733C181.155 124.426 181.608 124.951 182.176 125.307C182.748 125.663 183.386 125.841 184.091 125.841C184.795 125.841 185.432 125.663 186 125.307C186.572 124.951 187.025 124.426 187.358 123.733C187.695 123.04 187.864 122.189 187.864 121.182ZM191.239 130.273V118.273H192.534V119.659H192.693C192.792 119.508 192.928 119.314 193.102 119.08C193.28 118.841 193.534 118.629 193.864 118.443C194.197 118.254 194.648 118.159 195.216 118.159C195.951 118.159 196.599 118.343 197.159 118.71C197.72 119.078 198.157 119.598 198.472 120.273C198.786 120.947 198.943 121.742 198.943 122.659C198.943 123.583 198.786 124.384 198.472 125.062C198.157 125.737 197.722 126.259 197.165 126.631C196.608 126.998 195.966 127.182 195.239 127.182C194.678 127.182 194.229 127.089 193.892 126.903C193.555 126.714 193.296 126.5 193.114 126.261C192.932 126.019 192.792 125.818 192.693 125.659H192.58V130.273H191.239ZM192.557 122.636C192.557 123.295 192.654 123.877 192.847 124.381C193.04 124.881 193.322 125.273 193.693 125.557C194.065 125.837 194.519 125.977 195.057 125.977C195.618 125.977 196.085 125.83 196.46 125.534C196.839 125.235 197.123 124.833 197.313 124.33C197.506 123.822 197.602 123.258 197.602 122.636C197.602 122.023 197.508 121.47 197.318 120.977C197.133 120.481 196.851 120.089 196.472 119.801C196.097 119.509 195.625 119.364 195.057 119.364C194.512 119.364 194.053 119.502 193.682 119.778C193.311 120.051 193.03 120.434 192.841 120.926C192.652 121.415 192.557 121.985 192.557 122.636ZM204.608 118.273V119.409H200.086V118.273H204.608ZM201.404 116.182H202.745V124.5C202.745 124.879 202.8 125.163 202.909 125.352C203.023 125.538 203.167 125.663 203.341 125.727C203.519 125.788 203.707 125.818 203.904 125.818C204.051 125.818 204.173 125.811 204.267 125.795C204.362 125.777 204.438 125.761 204.495 125.75L204.767 126.955C204.676 126.989 204.55 127.023 204.387 127.057C204.224 127.095 204.017 127.114 203.767 127.114C203.389 127.114 203.017 127.032 202.654 126.869C202.294 126.706 201.995 126.458 201.756 126.125C201.521 125.792 201.404 125.371 201.404 124.864V116.182ZM206.449 127V118.273H207.79V127H206.449ZM207.131 116.818C206.87 116.818 206.644 116.729 206.455 116.551C206.269 116.373 206.177 116.159 206.177 115.909C206.177 115.659 206.269 115.445 206.455 115.267C206.644 115.089 206.87 115 207.131 115C207.392 115 207.616 115.089 207.802 115.267C207.991 115.445 208.086 115.659 208.086 115.909C208.086 116.159 207.991 116.373 207.802 116.551C207.616 116.729 207.392 116.818 207.131 116.818ZM213.616 127.182C212.828 127.182 212.136 126.994 211.542 126.619C210.951 126.244 210.489 125.72 210.155 125.045C209.826 124.371 209.661 123.583 209.661 122.682C209.661 121.773 209.826 120.979 210.155 120.301C210.489 119.623 210.951 119.097 211.542 118.722C212.136 118.347 212.828 118.159 213.616 118.159C214.403 118.159 215.093 118.347 215.684 118.722C216.278 119.097 216.741 119.623 217.07 120.301C217.403 120.979 217.57 121.773 217.57 122.682C217.57 123.583 217.403 124.371 217.07 125.045C216.741 125.72 216.278 126.244 215.684 126.619C215.093 126.994 214.403 127.182 213.616 127.182ZM213.616 125.977C214.214 125.977 214.707 125.824 215.093 125.517C215.479 125.21 215.765 124.807 215.951 124.307C216.136 123.807 216.229 123.265 216.229 122.682C216.229 122.098 216.136 121.555 215.951 121.051C215.765 120.547 215.479 120.14 215.093 119.83C214.707 119.519 214.214 119.364 213.616 119.364C213.017 119.364 212.525 119.519 212.138 119.83C211.752 120.14 211.466 120.547 211.28 121.051C211.095 121.555 211.002 122.098 211.002 122.682C211.002 123.265 211.095 123.807 211.28 124.307C211.466 124.807 211.752 125.21 212.138 125.517C212.525 125.824 213.017 125.977 213.616 125.977ZM220.782 121.75V127H219.441V118.273H220.736V119.636H220.85C221.055 119.193 221.365 118.837 221.782 118.568C222.199 118.295 222.736 118.159 223.396 118.159C223.986 118.159 224.504 118.28 224.947 118.523C225.39 118.761 225.735 119.125 225.981 119.614C226.227 120.098 226.35 120.712 226.35 121.455V127H225.009V121.545C225.009 120.86 224.831 120.326 224.475 119.943C224.119 119.557 223.63 119.364 223.009 119.364C222.581 119.364 222.199 119.456 221.861 119.642C221.528 119.828 221.265 120.098 221.072 120.455C220.879 120.811 220.782 121.242 220.782 121.75ZM231.193 127.205C230.64 127.205 230.138 127.1 229.687 126.892C229.236 126.68 228.878 126.375 228.613 125.977C228.348 125.576 228.215 125.091 228.215 124.523C228.215 124.023 228.314 123.617 228.511 123.307C228.708 122.992 228.971 122.746 229.301 122.568C229.63 122.39 229.994 122.258 230.391 122.17C230.793 122.08 231.196 122.008 231.602 121.955C232.132 121.886 232.562 121.835 232.891 121.801C233.225 121.763 233.467 121.701 233.619 121.614C233.774 121.527 233.852 121.375 233.852 121.159V121.114C233.852 120.553 233.698 120.117 233.391 119.807C233.088 119.496 232.628 119.341 232.011 119.341C231.371 119.341 230.869 119.481 230.505 119.761C230.141 120.042 229.886 120.341 229.738 120.659L228.465 120.205C228.693 119.674 228.996 119.261 229.374 118.966C229.757 118.667 230.174 118.458 230.624 118.341C231.079 118.22 231.526 118.159 231.965 118.159C232.246 118.159 232.568 118.193 232.931 118.261C233.299 118.326 233.653 118.46 233.994 118.665C234.338 118.869 234.624 119.178 234.852 119.591C235.079 120.004 235.193 120.557 235.193 121.25V127H233.852V125.818H233.783C233.693 126.008 233.541 126.21 233.329 126.426C233.117 126.642 232.835 126.826 232.482 126.977C232.13 127.129 231.7 127.205 231.193 127.205ZM231.397 126C231.927 126 232.374 125.896 232.738 125.688C233.105 125.479 233.382 125.21 233.568 124.881C233.757 124.551 233.852 124.205 233.852 123.841V122.614C233.795 122.682 233.67 122.744 233.477 122.801C233.287 122.854 233.068 122.902 232.818 122.943C232.571 122.981 232.331 123.015 232.096 123.045C231.865 123.072 231.677 123.095 231.533 123.114C231.185 123.159 230.859 123.233 230.556 123.335C230.257 123.434 230.015 123.583 229.829 123.784C229.647 123.981 229.556 124.25 229.556 124.591C229.556 125.057 229.729 125.409 230.073 125.648C230.422 125.883 230.863 126 231.397 126ZM238.805 115.364V127H237.464V115.364H238.805ZM245.409 127V118.273H246.704V119.636H246.818C247 119.17 247.293 118.809 247.699 118.551C248.104 118.29 248.591 118.159 249.159 118.159C249.735 118.159 250.214 118.29 250.596 118.551C250.983 118.809 251.284 119.17 251.5 119.636H251.591C251.814 119.186 252.149 118.828 252.596 118.562C253.043 118.294 253.579 118.159 254.204 118.159C254.985 118.159 255.623 118.403 256.119 118.892C256.615 119.377 256.863 120.133 256.863 121.159V127H255.523V121.159C255.523 120.515 255.346 120.055 254.994 119.778C254.642 119.502 254.227 119.364 253.75 119.364C253.136 119.364 252.661 119.549 252.324 119.92C251.987 120.288 251.818 120.754 251.818 121.318V127H250.454V121.023C250.454 120.527 250.293 120.127 249.971 119.824C249.649 119.517 249.235 119.364 248.727 119.364C248.379 119.364 248.053 119.456 247.75 119.642C247.451 119.828 247.208 120.085 247.023 120.415C246.841 120.741 246.75 121.117 246.75 121.545V127H245.409ZM262.798 127.182C261.957 127.182 261.232 126.996 260.622 126.625C260.016 126.25 259.548 125.727 259.219 125.057C258.893 124.383 258.73 123.598 258.73 122.705C258.73 121.811 258.893 121.023 259.219 120.341C259.548 119.655 260.007 119.121 260.594 118.739C261.185 118.352 261.874 118.159 262.662 118.159C263.116 118.159 263.565 118.235 264.008 118.386C264.452 118.538 264.855 118.784 265.219 119.125C265.582 119.462 265.872 119.909 266.088 120.466C266.304 121.023 266.412 121.708 266.412 122.523V123.091H259.685V121.932H265.048C265.048 121.439 264.95 121 264.753 120.614C264.56 120.227 264.283 119.922 263.923 119.699C263.567 119.475 263.147 119.364 262.662 119.364C262.128 119.364 261.666 119.496 261.276 119.761C260.889 120.023 260.592 120.364 260.383 120.784C260.175 121.205 260.071 121.655 260.071 122.136V122.909C260.071 123.568 260.185 124.127 260.412 124.585C260.643 125.04 260.963 125.386 261.372 125.625C261.781 125.86 262.257 125.977 262.798 125.977C263.151 125.977 263.469 125.928 263.753 125.83C264.041 125.727 264.289 125.576 264.497 125.375C264.705 125.17 264.866 124.917 264.98 124.614L266.276 124.977C266.139 125.417 265.91 125.803 265.588 126.136C265.266 126.466 264.868 126.723 264.395 126.909C263.921 127.091 263.389 127.182 262.798 127.182ZM274.457 120.227L273.253 120.568C273.177 120.367 273.065 120.172 272.918 119.983C272.774 119.79 272.577 119.631 272.327 119.506C272.077 119.381 271.757 119.318 271.367 119.318C270.832 119.318 270.387 119.441 270.031 119.688C269.679 119.93 269.503 120.239 269.503 120.614C269.503 120.947 269.624 121.21 269.867 121.403C270.109 121.597 270.488 121.758 271.003 121.886L272.298 122.205C273.079 122.394 273.66 122.684 274.043 123.074C274.425 123.46 274.617 123.958 274.617 124.568C274.617 125.068 274.473 125.515 274.185 125.909C273.901 126.303 273.503 126.614 272.992 126.841C272.48 127.068 271.885 127.182 271.207 127.182C270.317 127.182 269.581 126.989 268.997 126.602C268.414 126.216 268.045 125.652 267.889 124.909L269.162 124.591C269.283 125.061 269.512 125.413 269.85 125.648C270.19 125.883 270.635 126 271.185 126C271.81 126 272.306 125.867 272.673 125.602C273.045 125.333 273.23 125.011 273.23 124.636C273.23 124.333 273.124 124.08 272.912 123.875C272.7 123.667 272.374 123.511 271.935 123.409L270.48 123.068C269.681 122.879 269.094 122.585 268.719 122.188C268.348 121.786 268.162 121.284 268.162 120.682C268.162 120.189 268.3 119.754 268.577 119.375C268.857 118.996 269.238 118.699 269.719 118.483C270.204 118.267 270.753 118.159 271.367 118.159C272.23 118.159 272.908 118.348 273.401 118.727C273.897 119.106 274.249 119.606 274.457 120.227ZM282.641 120.227L281.436 120.568C281.361 120.367 281.249 120.172 281.101 119.983C280.957 119.79 280.76 119.631 280.51 119.506C280.26 119.381 279.94 119.318 279.55 119.318C279.016 119.318 278.571 119.441 278.215 119.688C277.862 119.93 277.686 120.239 277.686 120.614C277.686 120.947 277.808 121.21 278.05 121.403C278.292 121.597 278.671 121.758 279.186 121.886L280.482 122.205C281.262 122.394 281.843 122.684 282.226 123.074C282.609 123.46 282.8 123.958 282.8 124.568C282.8 125.068 282.656 125.515 282.368 125.909C282.084 126.303 281.686 126.614 281.175 126.841C280.664 127.068 280.069 127.182 279.391 127.182C278.501 127.182 277.764 126.989 277.181 126.602C276.597 126.216 276.228 125.652 276.073 124.909L277.345 124.591C277.467 125.061 277.696 125.413 278.033 125.648C278.374 125.883 278.819 126 279.368 126C279.993 126 280.489 125.867 280.857 125.602C281.228 125.333 281.414 125.011 281.414 124.636C281.414 124.333 281.308 124.08 281.095 123.875C280.883 123.667 280.558 123.511 280.118 123.409L278.664 123.068C277.864 122.879 277.277 122.585 276.902 122.188C276.531 121.786 276.345 121.284 276.345 120.682C276.345 120.189 276.484 119.754 276.76 119.375C277.04 118.996 277.421 118.699 277.902 118.483C278.387 118.267 278.936 118.159 279.55 118.159C280.414 118.159 281.092 118.348 281.584 118.727C282.08 119.106 282.433 119.606 282.641 120.227ZM287.211 127.205C286.658 127.205 286.156 127.1 285.705 126.892C285.254 126.68 284.896 126.375 284.631 125.977C284.366 125.576 284.233 125.091 284.233 124.523C284.233 124.023 284.332 123.617 284.529 123.307C284.726 122.992 284.989 122.746 285.319 122.568C285.648 122.39 286.012 122.258 286.409 122.17C286.811 122.08 287.214 122.008 287.62 121.955C288.15 121.886 288.58 121.835 288.909 121.801C289.243 121.763 289.485 121.701 289.637 121.614C289.792 121.527 289.87 121.375 289.87 121.159V121.114C289.87 120.553 289.716 120.117 289.409 119.807C289.106 119.496 288.646 119.341 288.029 119.341C287.389 119.341 286.887 119.481 286.523 119.761C286.159 120.042 285.904 120.341 285.756 120.659L284.483 120.205C284.711 119.674 285.014 119.261 285.392 118.966C285.775 118.667 286.192 118.458 286.642 118.341C287.097 118.22 287.544 118.159 287.983 118.159C288.264 118.159 288.586 118.193 288.949 118.261C289.317 118.326 289.671 118.46 290.012 118.665C290.356 118.869 290.642 119.178 290.87 119.591C291.097 120.004 291.211 120.557 291.211 121.25V127H289.87V125.818H289.801C289.711 126.008 289.559 126.21 289.347 126.426C289.135 126.642 288.853 126.826 288.5 126.977C288.148 127.129 287.718 127.205 287.211 127.205ZM287.415 126C287.945 126 288.392 125.896 288.756 125.688C289.123 125.479 289.4 125.21 289.586 124.881C289.775 124.551 289.87 124.205 289.87 123.841V122.614C289.813 122.682 289.688 122.744 289.495 122.801C289.305 122.854 289.086 122.902 288.836 122.943C288.589 122.981 288.349 123.015 288.114 123.045C287.883 123.072 287.695 123.095 287.551 123.114C287.203 123.159 286.877 123.233 286.574 123.335C286.275 123.434 286.033 123.583 285.847 123.784C285.665 123.981 285.574 124.25 285.574 124.591C285.574 125.057 285.747 125.409 286.091 125.648C286.44 125.883 286.881 126 287.415 126ZM297.005 130.455C296.357 130.455 295.8 130.371 295.334 130.205C294.868 130.042 294.48 129.826 294.17 129.557C293.863 129.292 293.618 129.008 293.437 128.705L294.505 127.955C294.626 128.114 294.779 128.295 294.965 128.5C295.151 128.708 295.404 128.888 295.726 129.04C296.052 129.195 296.478 129.273 297.005 129.273C297.709 129.273 298.291 129.102 298.749 128.761C299.207 128.42 299.437 127.886 299.437 127.159V125.386H299.323C299.224 125.545 299.084 125.742 298.902 125.977C298.724 126.208 298.467 126.415 298.13 126.597C297.796 126.775 297.346 126.864 296.777 126.864C296.073 126.864 295.44 126.697 294.88 126.364C294.323 126.03 293.882 125.545 293.556 124.909C293.234 124.273 293.073 123.5 293.073 122.591C293.073 121.697 293.23 120.919 293.545 120.256C293.859 119.589 294.296 119.074 294.857 118.71C295.418 118.343 296.065 118.159 296.8 118.159C297.368 118.159 297.819 118.254 298.152 118.443C298.49 118.629 298.747 118.841 298.925 119.08C299.107 119.314 299.247 119.508 299.346 119.659H299.482V118.273H300.777V127.25C300.777 128 300.607 128.61 300.266 129.08C299.929 129.553 299.474 129.9 298.902 130.119C298.334 130.343 297.702 130.455 297.005 130.455ZM296.959 125.659C297.497 125.659 297.952 125.536 298.323 125.29C298.694 125.044 298.976 124.689 299.17 124.227C299.363 123.765 299.459 123.212 299.459 122.568C299.459 121.939 299.365 121.384 299.175 120.903C298.986 120.422 298.706 120.045 298.334 119.773C297.963 119.5 297.505 119.364 296.959 119.364C296.391 119.364 295.918 119.508 295.539 119.795C295.164 120.083 294.882 120.47 294.692 120.955C294.507 121.439 294.414 121.977 294.414 122.568C294.414 123.174 294.509 123.71 294.698 124.176C294.891 124.638 295.175 125.002 295.55 125.267C295.929 125.528 296.399 125.659 296.959 125.659ZM306.715 127.182C305.874 127.182 305.149 126.996 304.539 126.625C303.933 126.25 303.465 125.727 303.136 125.057C302.81 124.383 302.647 123.598 302.647 122.705C302.647 121.811 302.81 121.023 303.136 120.341C303.465 119.655 303.923 119.121 304.511 118.739C305.101 118.352 305.791 118.159 306.579 118.159C307.033 118.159 307.482 118.235 307.925 118.386C308.369 118.538 308.772 118.784 309.136 119.125C309.499 119.462 309.789 119.909 310.005 120.466C310.221 121.023 310.329 121.708 310.329 122.523V123.091H303.601V121.932H308.965C308.965 121.439 308.867 121 308.67 120.614C308.476 120.227 308.2 119.922 307.84 119.699C307.484 119.475 307.064 119.364 306.579 119.364C306.045 119.364 305.583 119.496 305.192 119.761C304.806 120.023 304.509 120.364 304.3 120.784C304.092 121.205 303.988 121.655 303.988 122.136V122.909C303.988 123.568 304.101 124.127 304.329 124.585C304.56 125.04 304.88 125.386 305.289 125.625C305.698 125.86 306.173 125.977 306.715 125.977C307.067 125.977 307.386 125.928 307.67 125.83C307.958 125.727 308.206 125.576 308.414 125.375C308.622 125.17 308.783 124.917 308.897 124.614L310.192 124.977C310.056 125.417 309.827 125.803 309.505 126.136C309.183 126.466 308.785 126.723 308.312 126.909C307.838 127.091 307.306 127.182 306.715 127.182Z" fill="#5B636E"/>
<line x1="25" y1="153.5" x2="554" y2="153.5" stroke="#8A919E" stroke-opacity="0.2"/>
<rect width="529" height="65" transform="translate(25 154)" fill="white"/>
<path d="M50.4091 193V181.364H54.3409C55.2538 181.364 56 181.528 56.5795 181.858C57.1629 182.184 57.5947 182.625 57.875 183.182C58.1553 183.739 58.2955 184.36 58.2955 185.045C58.2955 185.731 58.1553 186.354 57.875 186.915C57.5985 187.475 57.1705 187.922 56.5909 188.256C56.0114 188.585 55.2689 188.75 54.3636 188.75H51.5455V187.5H54.3182C54.9432 187.5 55.4451 187.392 55.8239 187.176C56.2027 186.96 56.4773 186.669 56.6477 186.301C56.822 185.93 56.9091 185.511 56.9091 185.045C56.9091 184.58 56.822 184.163 56.6477 183.795C56.4773 183.428 56.2008 183.14 55.8182 182.932C55.4356 182.72 54.928 182.614 54.2955 182.614H51.8182V193H50.4091ZM62.7757 193.205C62.2227 193.205 61.7208 193.1 61.27 192.892C60.8193 192.68 60.4613 192.375 60.1962 191.977C59.931 191.576 59.7984 191.091 59.7984 190.523C59.7984 190.023 59.8969 189.617 60.0939 189.307C60.2909 188.992 60.5541 188.746 60.8837 188.568C61.2132 188.39 61.5768 188.258 61.9746 188.17C62.3761 188.08 62.7795 188.008 63.1848 187.955C63.7151 187.886 64.145 187.835 64.4746 187.801C64.8079 187.763 65.0503 187.701 65.2018 187.614C65.3571 187.527 65.4348 187.375 65.4348 187.159V187.114C65.4348 186.553 65.2814 186.117 64.9746 185.807C64.6715 185.496 64.2113 185.341 63.5939 185.341C62.9537 185.341 62.4518 185.481 62.0882 185.761C61.7246 186.042 61.4689 186.341 61.3212 186.659L60.0484 186.205C60.2757 185.674 60.5787 185.261 60.9575 184.966C61.3401 184.667 61.7568 184.458 62.2075 184.341C62.6621 184.22 63.109 184.159 63.5484 184.159C63.8287 184.159 64.1507 184.193 64.5143 184.261C64.8818 184.326 65.2359 184.46 65.5768 184.665C65.9215 184.869 66.2075 185.178 66.4348 185.591C66.6621 186.004 66.7757 186.557 66.7757 187.25V193H65.4348V191.818H65.3666C65.2757 192.008 65.1242 192.21 64.9121 192.426C64.6999 192.642 64.4178 192.826 64.0655 192.977C63.7132 193.129 63.2833 193.205 62.7757 193.205ZM62.9803 192C63.5106 192 63.9575 191.896 64.3212 191.688C64.6886 191.479 64.9651 191.21 65.1507 190.881C65.3401 190.551 65.4348 190.205 65.4348 189.841V188.614C65.378 188.682 65.253 188.744 65.0598 188.801C64.8704 188.854 64.6507 188.902 64.4007 188.943C64.1545 188.981 63.914 189.015 63.6791 189.045C63.4481 189.072 63.2606 189.095 63.1166 189.114C62.7681 189.159 62.4424 189.233 62.1393 189.335C61.8401 189.434 61.5977 189.583 61.4121 189.784C61.2303 189.981 61.1393 190.25 61.1393 190.591C61.1393 191.057 61.3117 191.409 61.6564 191.648C62.0049 191.883 62.4462 192 62.9803 192ZM69.5983 196.25C69.371 196.25 69.1684 196.231 68.9903 196.193C68.8123 196.159 68.6892 196.125 68.621 196.091L68.9619 194.909C69.4506 195.034 69.8578 195.03 70.1835 194.898C70.5093 194.769 70.7915 194.379 71.0301 193.727L71.2801 193.045L68.0528 184.273H69.5074L71.9165 191.227H72.0074L74.4165 184.273L75.8824 184.295L72.1665 194.273C71.9998 194.716 71.7934 195.083 71.5471 195.375C71.3009 195.67 71.015 195.89 70.6892 196.034C70.3672 196.178 70.0036 196.25 69.5983 196.25ZM83.7818 193L81.1227 184.273H82.5318L84.4182 190.955H84.5091L86.3727 184.273H87.8045L89.6454 190.932H89.7363L91.6227 184.273H93.0318L90.3727 193H89.0545L87.1454 186.295H87.0091L85.1 193H83.7818ZM94.6285 193V184.273H95.9694V193H94.6285ZM95.3103 182.818C95.049 182.818 94.8236 182.729 94.6342 182.551C94.4486 182.373 94.3558 182.159 94.3558 181.909C94.3558 181.659 94.4486 181.445 94.6342 181.267C94.8236 181.089 95.049 181 95.3103 181C95.5717 181 95.7952 181.089 95.9808 181.267C96.1702 181.445 96.2649 181.659 96.2649 181.909C96.2649 182.159 96.1702 182.373 95.9808 182.551C95.7952 182.729 95.5717 182.818 95.3103 182.818ZM102.045 184.273V185.409H97.5221V184.273H102.045ZM98.8403 182.182H100.181V190.5C100.181 190.879 100.236 191.163 100.346 191.352C100.46 191.538 100.604 191.663 100.778 191.727C100.956 191.788 101.143 191.818 101.34 191.818C101.488 191.818 101.609 191.811 101.704 191.795C101.799 191.777 101.874 191.761 101.931 191.75L102.204 192.955C102.113 192.989 101.986 193.023 101.823 193.057C101.66 193.095 101.454 193.114 101.204 193.114C100.825 193.114 100.454 193.032 100.09 192.869C99.7305 192.706 99.4312 192.458 99.1926 192.125C98.9577 191.792 98.8403 191.371 98.8403 190.864V182.182ZM105.414 187.75V193H104.073V181.364H105.414V185.636H105.528C105.732 185.186 106.039 184.828 106.448 184.562C106.861 184.294 107.411 184.159 108.096 184.159C108.691 184.159 109.212 184.278 109.659 184.517C110.106 184.752 110.452 185.114 110.698 185.602C110.948 186.087 111.073 186.705 111.073 187.455V193H109.732V187.545C109.732 186.852 109.553 186.316 109.193 185.938C108.837 185.555 108.342 185.364 107.71 185.364C107.27 185.364 106.876 185.456 106.528 185.642C106.183 185.828 105.911 186.098 105.71 186.455C105.513 186.811 105.414 187.242 105.414 187.75Z" fill="#0A0B0D"/>
<path d="M179.409 192V180.364H183.477C184.288 180.364 184.956 180.504 185.483 180.784C186.009 181.061 186.402 181.434 186.659 181.903C186.917 182.369 187.045 182.886 187.045 183.455C187.045 183.955 186.956 184.367 186.778 184.693C186.604 185.019 186.373 185.277 186.085 185.466C185.801 185.655 185.492 185.795 185.159 185.886V186C185.515 186.023 185.873 186.148 186.233 186.375C186.593 186.602 186.894 186.928 187.136 187.352C187.379 187.777 187.5 188.295 187.5 188.909C187.5 189.492 187.367 190.017 187.102 190.483C186.837 190.949 186.419 191.318 185.847 191.591C185.275 191.864 184.53 192 183.614 192H179.409ZM180.818 190.75H183.614C184.534 190.75 185.188 190.572 185.574 190.216C185.964 189.856 186.159 189.42 186.159 188.909C186.159 188.515 186.059 188.152 185.858 187.818C185.657 187.481 185.371 187.212 185 187.011C184.629 186.807 184.189 186.705 183.682 186.705H180.818V190.75ZM180.818 185.477H183.432C183.856 185.477 184.239 185.394 184.58 185.227C184.924 185.061 185.197 184.826 185.398 184.523C185.602 184.22 185.705 183.864 185.705 183.455C185.705 182.943 185.527 182.509 185.17 182.153C184.814 181.794 184.25 181.614 183.477 181.614H180.818V185.477ZM189.458 192V183.273H190.798V192H189.458ZM190.139 181.818C189.878 181.818 189.653 181.729 189.463 181.551C189.278 181.373 189.185 181.159 189.185 180.909C189.185 180.659 189.278 180.445 189.463 180.267C189.653 180.089 189.878 180 190.139 180C190.401 180 190.624 180.089 190.81 180.267C190.999 180.445 191.094 180.659 191.094 180.909C191.094 181.159 190.999 181.373 190.81 181.551C190.624 181.729 190.401 181.818 190.139 181.818ZM196.874 183.273V184.409H192.351V183.273H196.874ZM193.669 181.182H195.01V189.5C195.01 189.879 195.065 190.163 195.175 190.352C195.289 190.538 195.433 190.663 195.607 190.727C195.785 190.788 195.972 190.818 196.169 190.818C196.317 190.818 196.438 190.811 196.533 190.795C196.628 190.777 196.703 190.761 196.76 190.75L197.033 191.955C196.942 191.989 196.815 192.023 196.652 192.057C196.489 192.095 196.283 192.114 196.033 192.114C195.654 192.114 195.283 192.032 194.919 191.869C194.559 191.706 194.26 191.458 194.022 191.125C193.787 190.792 193.669 190.371 193.669 189.864V181.182ZM202.167 192.182C201.348 192.182 200.644 191.989 200.053 191.602C199.462 191.216 199.008 190.684 198.689 190.006C198.371 189.328 198.212 188.553 198.212 187.682C198.212 186.795 198.375 186.013 198.701 185.335C199.03 184.653 199.489 184.121 200.076 183.739C200.667 183.352 201.356 183.159 202.144 183.159C202.758 183.159 203.311 183.273 203.803 183.5C204.295 183.727 204.699 184.045 205.013 184.455C205.328 184.864 205.523 185.341 205.598 185.886H204.258C204.155 185.489 203.928 185.136 203.576 184.83C203.227 184.519 202.758 184.364 202.167 184.364C201.644 184.364 201.186 184.5 200.792 184.773C200.401 185.042 200.097 185.422 199.877 185.915C199.661 186.403 199.553 186.977 199.553 187.636C199.553 188.311 199.659 188.898 199.871 189.398C200.087 189.898 200.39 190.286 200.78 190.562C201.174 190.839 201.636 190.977 202.167 190.977C202.515 190.977 202.831 190.917 203.115 190.795C203.4 190.674 203.64 190.5 203.837 190.273C204.034 190.045 204.174 189.773 204.258 189.455H205.598C205.523 189.97 205.335 190.434 205.036 190.847C204.74 191.256 204.348 191.581 203.86 191.824C203.375 192.062 202.811 192.182 202.167 192.182ZM210.928 192.182C210.14 192.182 209.449 191.994 208.854 191.619C208.263 191.244 207.801 190.72 207.468 190.045C207.138 189.371 206.974 188.583 206.974 187.682C206.974 186.773 207.138 185.979 207.468 185.301C207.801 184.623 208.263 184.097 208.854 183.722C209.449 183.347 210.14 183.159 210.928 183.159C211.716 183.159 212.405 183.347 212.996 183.722C213.591 184.097 214.053 184.623 214.383 185.301C214.716 185.979 214.883 186.773 214.883 187.682C214.883 188.583 214.716 189.371 214.383 190.045C214.053 190.72 213.591 191.244 212.996 191.619C212.405 191.994 211.716 192.182 210.928 192.182ZM210.928 190.977C211.527 190.977 212.019 190.824 212.405 190.517C212.792 190.21 213.078 189.807 213.263 189.307C213.449 188.807 213.542 188.265 213.542 187.682C213.542 187.098 213.449 186.555 213.263 186.051C213.078 185.547 212.792 185.14 212.405 184.83C212.019 184.519 211.527 184.364 210.928 184.364C210.33 184.364 209.837 184.519 209.451 184.83C209.064 185.14 208.778 185.547 208.593 186.051C208.407 186.555 208.314 187.098 208.314 187.682C208.314 188.265 208.407 188.807 208.593 189.307C208.778 189.807 209.064 190.21 209.451 190.517C209.837 190.824 210.33 190.977 210.928 190.977ZM216.754 192V183.273H218.094V192H216.754ZM217.435 181.818C217.174 181.818 216.949 181.729 216.759 181.551C216.574 181.373 216.481 181.159 216.481 180.909C216.481 180.659 216.574 180.445 216.759 180.267C216.949 180.089 217.174 180 217.435 180C217.697 180 217.92 180.089 218.106 180.267C218.295 180.445 218.39 180.659 218.39 180.909C218.39 181.159 218.295 181.373 218.106 181.551C217.92 181.729 217.697 181.818 217.435 181.818ZM221.715 186.75V192H220.374V183.273H221.67V184.636H221.783C221.988 184.193 222.299 183.837 222.715 183.568C223.132 183.295 223.67 183.159 224.329 183.159C224.92 183.159 225.437 183.28 225.88 183.523C226.323 183.761 226.668 184.125 226.914 184.614C227.16 185.098 227.283 185.712 227.283 186.455V192H225.943V186.545C225.943 185.86 225.765 185.326 225.408 184.943C225.052 184.557 224.564 184.364 223.943 184.364C223.515 184.364 223.132 184.456 222.795 184.642C222.462 184.828 222.198 185.098 222.005 185.455C221.812 185.811 221.715 186.242 221.715 186.75Z" fill="#0A0B0D"/>
<path d="M154 198C160.627 198 166 192.627 166 186C166 179.373 160.627 174 154 174C147.373 174 142 179.373 142 186C142 192.627 147.373 198 154 198Z" fill="#F7931A"/>
<path d="M159.274 184.515C159.509 182.943 158.312 182.098 156.675 181.534L157.206 179.404L155.91 179.081L155.393 181.155C155.052 181.069 154.703 180.99 154.354 180.91L154.875 178.823L153.579 178.5L153.048 180.629C152.766 180.565 152.489 180.502 152.22 180.434L152.222 180.427L150.434 179.981L150.089 181.366C150.089 181.366 151.051 181.586 151.031 181.6C151.556 181.731 151.65 182.078 151.635 182.354L151.03 184.78C151.066 184.789 151.112 184.803 151.165 184.823L151.028 184.789L150.18 188.188C150.116 188.347 149.953 188.587 149.585 188.496C149.599 188.515 148.644 188.261 148.644 188.261L148 189.745L149.687 190.166C150.001 190.244 150.308 190.327 150.611 190.404L150.075 192.558L151.37 192.88L151.901 190.75C152.255 190.846 152.598 190.934 152.934 191.018L152.405 193.139L153.701 193.462L154.237 191.312C156.448 191.731 158.11 191.562 158.81 189.562C159.374 187.953 158.782 187.024 157.619 186.419C158.466 186.224 159.104 185.666 159.274 184.515V184.515ZM156.312 188.669C155.912 190.279 153.2 189.408 152.321 189.19L153.034 186.336C153.913 186.556 156.731 186.99 156.312 188.669ZM156.713 184.492C156.348 185.957 154.091 185.212 153.36 185.03L154.005 182.442C154.736 182.624 157.094 182.964 156.713 184.492Z" fill="white"/>
<path d="M502.61 182.05L507.56 187L502.61 191.95L504.03 193.36L510.39 187L504.03 180.64L502.61 182.05Z" fill="#0A0B0D"/>
</g>
<rect x="25.5" y="24.5" width="512" height="194" rx="3.5" stroke="#5B636E" stroke-opacity="0.2"/>
</g>
<g filter="url(#filter1_d)">
<path d="M25 240C25 237.791 26.7909 236 29 236H534C536.209 236 538 237.791 538 240V284C538 286.209 536.209 288 534 288H29C26.7908 288 25 286.209 25 284V240Z" fill="#0052FF"/>
<path d="M260.041 260.254H258.181C258.128 259.949 258.031 259.679 257.888 259.443C257.745 259.205 257.568 259.002 257.356 258.837C257.144 258.671 256.902 258.547 256.63 258.464C256.362 258.378 256.072 258.335 255.76 258.335C255.207 258.335 254.716 258.474 254.289 258.752C253.861 259.027 253.526 259.432 253.284 259.965C253.042 260.496 252.921 261.143 252.921 261.909C252.921 262.688 253.042 263.344 253.284 263.878C253.53 264.408 253.864 264.809 254.289 265.081C254.716 265.349 255.205 265.484 255.755 265.484C256.06 265.484 256.345 265.444 256.61 265.364C256.879 265.281 257.119 265.161 257.331 265.001C257.547 264.842 257.727 264.647 257.873 264.415C258.022 264.183 258.125 263.918 258.181 263.619L260.041 263.629C259.971 264.113 259.82 264.567 259.588 264.991C259.36 265.416 259.06 265.79 258.688 266.115C258.317 266.437 257.883 266.688 257.386 266.871C256.889 267.05 256.337 267.139 255.73 267.139C254.835 267.139 254.037 266.932 253.334 266.518C252.631 266.103 252.078 265.505 251.674 264.723C251.269 263.941 251.067 263.003 251.067 261.909C251.067 260.812 251.271 259.874 251.678 259.095C252.086 258.313 252.641 257.715 253.344 257.3C254.047 256.886 254.842 256.679 255.73 256.679C256.297 256.679 256.824 256.759 257.311 256.918C257.799 257.077 258.233 257.31 258.614 257.619C258.995 257.924 259.308 258.298 259.553 258.742C259.802 259.183 259.964 259.687 260.041 260.254ZM265.065 267.149C264.319 267.149 263.673 266.985 263.126 266.657C262.579 266.329 262.155 265.87 261.854 265.28C261.555 264.69 261.406 264 261.406 263.212C261.406 262.423 261.555 261.732 261.854 261.138C262.155 260.545 262.579 260.085 263.126 259.756C263.673 259.428 264.319 259.264 265.065 259.264C265.811 259.264 266.457 259.428 267.004 259.756C267.551 260.085 267.974 260.545 268.272 261.138C268.573 261.732 268.724 262.423 268.724 263.212C268.724 264 268.573 264.69 268.272 265.28C267.974 265.87 267.551 266.329 267.004 266.657C266.457 266.985 265.811 267.149 265.065 267.149ZM265.075 265.707C265.48 265.707 265.818 265.596 266.089 265.374C266.361 265.149 266.563 264.847 266.696 264.469C266.832 264.092 266.9 263.671 266.9 263.207C266.9 262.739 266.832 262.317 266.696 261.939C266.563 261.558 266.361 261.254 266.089 261.029C265.818 260.804 265.48 260.691 265.075 260.691C264.661 260.691 264.316 260.804 264.041 261.029C263.769 261.254 263.565 261.558 263.43 261.939C263.297 262.317 263.231 262.739 263.231 263.207C263.231 263.671 263.297 264.092 263.43 264.469C263.565 264.847 263.769 265.149 264.041 265.374C264.316 265.596 264.661 265.707 265.075 265.707ZM272.136 262.526V267H270.336V259.364H272.056V260.661H272.145C272.321 260.234 272.601 259.894 272.986 259.642C273.373 259.39 273.852 259.264 274.422 259.264C274.949 259.264 275.409 259.377 275.8 259.602C276.194 259.828 276.499 260.154 276.714 260.582C276.933 261.009 277.041 261.528 277.038 262.138V267H275.238V262.416C275.238 261.906 275.105 261.506 274.84 261.218C274.578 260.93 274.215 260.786 273.751 260.786C273.436 260.786 273.156 260.855 272.911 260.994C272.669 261.13 272.479 261.327 272.339 261.586C272.203 261.844 272.136 262.158 272.136 262.526ZM282.764 259.364V260.756H278.374V259.364H282.764ZM279.458 257.534H281.258V264.703C281.258 264.945 281.294 265.131 281.367 265.26C281.443 265.386 281.543 265.472 281.666 265.518C281.788 265.565 281.924 265.588 282.073 265.588C282.186 265.588 282.289 265.58 282.381 265.563C282.478 265.547 282.551 265.532 282.6 265.518L282.903 266.925C282.807 266.959 282.67 266.995 282.491 267.035C282.315 267.075 282.1 267.098 281.845 267.104C281.394 267.118 280.988 267.05 280.627 266.901C280.265 266.748 279.979 266.513 279.766 266.195C279.558 265.876 279.455 265.479 279.458 265.001V257.534ZM284.353 267V259.364H286.153V267H284.353ZM285.258 258.28C284.97 258.28 284.723 258.185 284.517 257.996C284.315 257.804 284.214 257.574 284.214 257.305C284.214 257.034 284.317 256.803 284.522 256.614C284.728 256.422 284.973 256.326 285.258 256.326C285.543 256.326 285.787 256.422 285.989 256.614C286.195 256.803 286.297 257.034 286.297 257.305C286.297 257.574 286.195 257.804 285.989 257.996C285.787 258.185 285.543 258.28 285.258 258.28ZM289.888 262.526V267H288.088V259.364H289.808V260.661H289.897C290.073 260.234 290.353 259.894 290.738 259.642C291.125 259.39 291.604 259.264 292.174 259.264C292.701 259.264 293.161 259.377 293.552 259.602C293.946 259.828 294.251 260.154 294.466 260.582C294.685 261.009 294.793 261.528 294.79 262.138V267H292.99V262.416C292.99 261.906 292.857 261.506 292.592 261.218C292.33 260.93 291.967 260.786 291.503 260.786C291.188 260.786 290.908 260.855 290.663 260.994C290.421 261.13 290.231 261.327 290.091 261.586C289.955 261.844 289.888 262.158 289.888 262.526ZM301.57 263.788V259.364H303.37V267H301.625V265.643H301.545C301.373 266.07 301.09 266.42 300.695 266.692C300.304 266.964 299.822 267.099 299.249 267.099C298.748 267.099 298.306 266.988 297.921 266.766C297.54 266.541 297.242 266.214 297.026 265.787C296.811 265.356 296.703 264.836 296.703 264.226V259.364H298.503V263.947C298.503 264.431 298.635 264.816 298.901 265.101C299.166 265.386 299.514 265.528 299.945 265.528C300.21 265.528 300.467 265.464 300.715 265.335C300.964 265.205 301.168 265.013 301.327 264.758C301.489 264.499 301.57 264.176 301.57 263.788ZM308.685 267.149C307.92 267.149 307.258 266.99 306.702 266.672C306.148 266.35 305.722 265.896 305.424 265.31C305.126 264.72 304.977 264.025 304.977 263.227C304.977 262.441 305.126 261.752 305.424 261.158C305.726 260.562 306.147 260.098 306.687 259.766C307.227 259.432 307.862 259.264 308.591 259.264C309.062 259.264 309.506 259.34 309.923 259.493C310.344 259.642 310.715 259.874 311.037 260.189C311.362 260.504 311.617 260.905 311.803 261.392C311.988 261.876 312.081 262.453 312.081 263.122V263.674H305.822V262.461H310.356C310.352 262.116 310.278 261.81 310.132 261.541C309.986 261.269 309.782 261.056 309.521 260.9C309.262 260.744 308.96 260.666 308.616 260.666C308.248 260.666 307.925 260.756 307.646 260.935C307.368 261.11 307.151 261.342 306.995 261.631C306.843 261.916 306.765 262.229 306.761 262.57V263.629C306.761 264.073 306.843 264.455 307.005 264.773C307.167 265.088 307.394 265.33 307.686 265.499C307.978 265.664 308.319 265.747 308.71 265.747C308.972 265.747 309.209 265.711 309.421 265.638C309.633 265.562 309.817 265.451 309.973 265.305C310.129 265.159 310.246 264.978 310.326 264.763L312.006 264.952C311.9 265.396 311.698 265.784 311.4 266.115C311.105 266.443 310.727 266.698 310.266 266.881C309.806 267.06 309.279 267.149 308.685 267.149Z" fill="white"/>
</g>
<path d="M153.427 116.827L155.173 118.573L146.133 127.613L144.213 127.787L144.387 125.867L153.427 116.827ZM153.427 114L142.453 124.973L142 130L147.027 129.547L158 118.573L153.427 114Z" fill="#5B636E"/>
<defs>
<filter id="filter0_d" x="1" y="8" width="561" height="243" filterUnits="userSpaceOnUse" color-interpolation-filters="sRGB">
<feFlood flood-opacity="0" result="BackgroundImageFix"/>
<feColorMatrix in="SourceAlpha" type="matrix" values="0 0 0 0 0 0 0 0 0 0 0 0 0 0 0 0 0 0 127 0"/>
<feOffset dy="8"/>
<feGaussianBlur stdDeviation="12"/>
<feColorMatrix type="matrix" values="0 0 0 0 0.027451 0 0 0 0 0.0784314 0 0 0 0 0.133333 0 0 0 0.12 0"/>
<feBlend mode="normal" in2="BackgroundImageFix" result="effect1_dropShadow"/>
<feBlend mode="normal" in="SourceGraphic" in2="effect1_dropShadow" result="shape"/>
</filter>
<filter id="filter1_d" x="13" y="232" width="537" height="76" filterUnits="userSpaceOnUse" color-interpolation-filters="sRGB">
<feFlood flood-opacity="0" result="BackgroundImageFix"/>
<feColorMatrix in="SourceAlpha" type="matrix" values="0 0 0 0 0 0 0 0 0 0 0 0 0 0 0 0 0 0 127 0"/>
<feOffset dy="8"/>
<feGaussianBlur stdDeviation="6"/>
<feColorMatrix type="matrix" values="0 0 0 0 0.027451 0 0 0 0 0.0784314 0 0 0 0 0.133333 0 0 0 0.02 0"/>
<feBlend mode="normal" in2="BackgroundImageFix" result="effect1_dropShadow"/>
<feBlend mode="normal" in="SourceGraphic" in2="effect1_dropShadow" result="shape"/>
</filter>
<clipPath id="clip0">
<rect x="25" y="24" width="513" height="195" rx="4" fill="white"/>
</clipPath>
</defs>
</svg>
