<svg width="1024" height="366" viewBox="0 0 1024 366" fill="none" xmlns="http://www.w3.org/2000/svg">
<path d="M510.289 98.9307C504.805 98.5475 502.453 95.5346 502.202 91.5439H506.893C507.118 93.3807 507.779 94.8739 510.289 95.2571V89.1389C505.241 88.3461 502.836 86.5093 502.836 82.3204C502.836 78.6732 505.757 75.9775 510.289 75.6604V72.8193H512.536V75.6736C516.844 76.0568 519.447 78.2107 519.83 82.3071H515.311C515.02 80.6554 514.227 79.6379 512.549 79.3207V85.0029C517.306 85.7296 520.226 87.3154 520.226 91.7289C520.226 95.5346 517.557 98.5739 512.549 98.9307V102.895H510.303V98.9307H510.289ZM510.289 84.6196V79.2679C508.426 79.5189 507.409 80.5629 507.409 81.8975C507.409 83.3511 507.95 84.1439 510.289 84.6196ZM512.549 89.4693V95.2439C514.386 94.9268 515.535 93.8168 515.535 92.2575C515.522 90.7379 514.888 89.9846 512.549 89.4693Z" fill="#0A0B0D"/>
<path d="M238.181 143.476H239.991C239.7 142.459 239.502 141.349 239.502 140.054C239.502 135.68 243.017 133.05 247.589 133.05C252.796 133.05 255.333 135.878 255.584 140.093H250.853C250.51 138.032 249.651 136.988 247.708 136.988C245.871 136.988 244.603 138.283 244.603 140.291C244.603 141.428 244.735 142.485 244.92 143.489H250.972V146.634H245.554C245.686 147.454 245.779 148.352 245.779 149.264C245.779 149.991 245.62 150.625 245.396 151.193C246.915 151.643 248.184 152.277 249.228 152.277C250.589 152.277 251.448 151.669 251.54 150.083H256.113C255.928 153.664 253.893 156.334 250.153 156.334C247.114 156.334 244.986 154.563 243.361 154.563C242.224 154.563 241.709 155.263 241.616 156.056H237.731C237.89 153.968 238.934 151.801 241.088 151.074C241.246 150.572 241.379 149.991 241.379 149.264C241.379 148.379 241.194 147.52 240.929 146.634H238.181V143.476Z" fill="#0A0B0D"/>
<path d="M434.968 209.059H437.082C437.743 204.05 441.179 200.403 446.438 200.403C451.512 200.403 454.618 203.125 455.133 208.147H450.349C450.032 205.676 448.631 204.315 446.411 204.315C443.874 204.315 442.474 206.191 442.064 209.072H447.958L447.574 211.16H441.971V213.129H447.231L446.848 215.216H442.064C442.474 218.097 443.835 219.749 446.438 219.749C448.883 219.749 450.217 218.322 450.587 215.494H455.318C454.71 220.7 451.671 223.74 446.345 223.74C440.928 223.74 437.716 220.185 437.082 215.203H434.968V213.115H436.963V211.146H434.968V209.059Z" fill="#0A0B0D"/>
<path d="M441.179 79.9286C440.452 79.9286 439.857 80.5232 439.857 81.25C439.857 81.9768 440.452 82.5714 441.179 82.5714C441.905 82.5714 442.5 81.9768 442.5 81.25C442.5 80.5232 441.905 79.9286 441.179 79.9286Z" fill="#0A0B0D"/>
<path d="M445.143 79.9286C444.416 79.9286 443.821 80.5232 443.821 81.25C443.821 81.9768 444.416 82.5714 445.143 82.5714C445.87 82.5714 446.464 81.9768 446.464 81.25C446.464 80.5232 445.87 79.9286 445.143 79.9286Z" fill="#0A0B0D"/>
<path d="M449.107 79.9286C448.38 79.9286 447.786 80.5232 447.786 81.25C447.786 81.9768 448.38 82.5714 449.107 82.5714C449.834 82.5714 450.429 81.9768 450.429 81.25C450.429 80.5232 449.834 79.9286 449.107 79.9286Z" fill="#0A0B0D"/>
<path d="M441.179 83.8929C440.452 83.8929 439.857 84.4875 439.857 85.2143C439.857 85.9411 440.452 86.5357 441.179 86.5357C441.905 86.5357 442.5 85.9411 442.5 85.2143C442.5 84.4875 441.905 83.8929 441.179 83.8929Z" fill="#0A0B0D"/>
<path d="M445.143 83.8929C444.416 83.8929 443.821 84.4875 443.821 85.2143C443.821 85.9411 444.416 86.5357 445.143 86.5357C445.87 86.5357 446.464 85.9411 446.464 85.2143C446.464 84.4875 445.87 83.8929 445.143 83.8929Z" fill="#0A0B0D"/>
<path d="M449.107 83.8929C448.38 83.8929 447.786 84.4875 447.786 85.2143C447.786 85.9411 448.38 86.5357 449.107 86.5357C449.834 86.5357 450.429 85.9411 450.429 85.2143C450.429 84.4875 449.834 83.8929 449.107 83.8929Z" fill="#0A0B0D"/>
<path d="M441.179 87.8571C440.452 87.8571 439.857 88.4518 439.857 89.1786C439.857 89.9054 440.452 90.5 441.179 90.5C441.905 90.5 442.5 89.9054 442.5 89.1786C442.5 88.4518 441.905 87.8571 441.179 87.8571Z" fill="#0A0B0D"/>
<path d="M445.143 87.8571C444.416 87.8571 443.821 88.4518 443.821 89.1786C443.821 89.9054 444.416 90.5 445.143 90.5C445.87 90.5 446.464 89.9054 446.464 89.1786C446.464 88.4518 445.87 87.8571 445.143 87.8571Z" fill="#0A0B0D"/>
<path d="M449.107 87.8571C448.38 87.8571 447.786 88.4518 447.786 89.1786C447.786 89.9054 448.38 90.5 449.107 90.5C449.834 90.5 450.429 89.9054 450.429 89.1786C450.429 88.4518 449.834 87.8571 449.107 87.8571Z" fill="#0A0B0D"/>
<path d="M445.143 91.8214C444.416 91.8214 443.821 92.4161 443.821 93.1429C443.821 93.8696 444.416 94.4643 445.143 94.4643C445.87 94.4643 446.464 93.8696 446.464 93.1429C446.464 92.4161 445.87 91.8214 445.143 91.8214Z" fill="#0A0B0D"/>
<path d="M434.571 72V103.714H455.714V72H434.571ZM447.786 102.062H442.5V100.08H447.786V102.062ZM453.071 98.4286H437.214V74.6429H453.071V98.4286Z" fill="#0A0B0D"/>
<path d="M297.143 201.5V222.643H328.857V201.5H297.143ZM325.554 207.777V210.42H316.304V207.777H325.554ZM316.304 213.723H325.554V216.366H316.304V213.723ZM300.446 204.804H313V219.339H300.446V204.804Z" fill="#0A0B0D"/>
<path d="M306.393 211.411C307.488 211.411 308.375 210.523 308.375 209.429C308.375 208.334 307.488 207.446 306.393 207.446C305.298 207.446 304.411 208.334 304.411 209.429C304.411 210.523 305.298 211.411 306.393 211.411Z" fill="#0A0B0D"/>
<path d="M306.393 212.732C304.199 212.732 302.429 214.503 302.429 216.696H310.357C310.357 214.503 308.586 212.732 306.393 212.732Z" fill="#0A0B0D"/>
<path d="M581.911 87.8571C581.911 90.4115 579.84 92.4821 577.286 92.4821C574.731 92.4821 572.661 90.4115 572.661 87.8571C572.661 85.3028 574.731 83.2321 577.286 83.2321C579.84 83.2321 581.911 85.3028 581.911 87.8571Z" fill="#0A0B0D"/>
<path fill-rule="evenodd" clip-rule="evenodd" d="M561.614 88.7029C564.838 95.5214 570.85 99.75 577.286 99.75C583.734 99.75 589.734 95.5214 592.958 88.7029C593.209 88.1743 593.209 87.5532 592.958 87.0114C589.734 80.1929 583.734 75.9643 577.286 75.9643C570.85 75.9643 564.838 80.1929 561.614 87.0114C561.363 87.54 561.363 88.1611 561.614 88.7029ZM577.286 95.7857C572.581 95.7857 568.287 92.8389 565.631 87.8571C568.274 82.8754 572.581 79.9286 577.286 79.9286C581.99 79.9286 586.298 82.8754 588.941 87.8571C586.298 92.8389 581.99 95.7857 577.286 95.7857Z" fill="#0A0B0D"/>
<path fill-rule="evenodd" clip-rule="evenodd" d="M649.621 201.553L652.686 196.36L655.528 198.038L637.979 227.77L635.138 226.092L637.199 222.603C633.248 220.859 629.839 217.476 627.685 212.917C627.434 212.389 627.434 211.767 627.685 211.226C630.909 204.407 636.922 200.179 643.357 200.179C645.524 200.179 647.639 200.667 649.621 201.553ZM643.357 204.143C638.653 204.143 634.345 207.09 631.702 212.071C633.539 215.547 636.195 217.991 639.234 219.181L641.071 216.062C639.684 215.269 638.732 213.789 638.732 212.071C638.732 209.521 640.807 207.446 643.357 207.446C644.243 207.446 645.049 207.697 645.749 208.134L647.586 205.015C646.238 204.46 644.824 204.143 643.357 204.143Z" fill="#0A0B0D"/>
<path d="M654.272 204.671C656.175 206.416 657.8 208.636 659.029 211.226C659.28 211.754 659.28 212.389 659.016 212.904C655.792 219.723 649.793 223.951 643.344 223.951C643.265 223.951 643.189 223.948 643.113 223.944C643.037 223.941 642.961 223.938 642.881 223.938L645.326 219.802C649.251 219.101 652.739 216.34 655.012 212.071C654.219 210.578 653.255 209.296 652.198 208.186L654.272 204.671Z" fill="#0A0B0D"/>
<path d="M196.714 99.75H165V103.714H196.714V99.75Z" fill="#0A0B0D"/>
<path d="M192.75 79.9286L180.857 72L168.964 79.9286H165V83.8929H196.714V79.9286H192.75Z" fill="#0A0B0D"/>
<path d="M174.911 85.2143H170.946V98.4286H174.911V85.2143Z" fill="#0A0B0D"/>
<path d="M182.839 85.2143H178.875V98.4286H182.839V85.2143Z" fill="#0A0B0D"/>
<path d="M190.768 85.2143H186.804V98.4286H190.768V85.2143Z" fill="#0A0B0D"/>
<path d="M231.071 76.625V97.7679H262.786V76.625H231.071ZM259.482 79.9286V82.5714H234.375V79.9286H259.482ZM234.375 94.4643V87.1964H259.482V94.4643H234.375Z" fill="#0A0B0D"/>
<path d="M236.357 89.1786H246.929V91.1607H236.357V89.1786Z" fill="#0A0B0D"/>
<path d="M309.287 162.333L302.6 150.625H297.143V146.661H304.9L308.785 153.453L316.713 134.953L323.4 146.661H328.857V150.625H321.1L317.215 143.833L309.287 162.333Z" fill="#0A0B0D"/>
<path d="M377.42 79.9286V88.5443L382.864 93.9754L385.19 91.6496L380.723 87.17V79.9286H377.42Z" fill="#0A0B0D"/>
<path d="M379.071 73.3214C373.178 73.3214 367.905 76.8496 365.646 82.2939L368.698 83.5625C370.443 79.3471 374.513 76.625 379.071 76.625C385.269 76.625 390.304 81.6596 390.304 87.8571C390.304 94.0546 385.269 99.0893 379.071 99.0893C374.777 99.0893 370.931 96.6182 369.042 92.9314L374.116 87.8571H363.214V98.7589L366.624 95.3496C369.2 99.6046 373.878 102.393 379.071 102.393C387.093 102.393 393.607 95.8782 393.607 87.8571C393.607 79.8361 387.093 73.3214 379.071 73.3214Z" fill="#0A0B0D"/>
<path d="M511.214 130.804C516.394 130.804 520.914 133.658 523.292 137.886L527.071 134.107V144.679H516.5L520.345 140.833C518.839 137.265 515.311 134.768 511.214 134.768C507.091 134.768 503.55 137.305 502.057 140.886L498.396 139.366C500.484 134.345 505.44 130.804 511.214 130.804Z" fill="#0A0B0D"/>
<path d="M502.083 148.524C503.59 152.092 507.118 154.589 511.214 154.589C515.337 154.589 518.879 152.052 520.372 148.471L524.032 149.991C521.944 155.012 516.989 158.554 511.214 158.554C506.034 158.554 501.515 155.686 499.136 151.471L495.357 155.25V144.679H505.929L502.083 148.524Z" fill="#0A0B0D"/>
<path d="M262.786 209.759H249.241V196.214H244.616V209.759H231.071V214.384H244.616V227.929H249.241V214.384H262.786V209.759Z" fill="#0A0B0D"/>
<path d="M495.357 205.464H503.286L513.857 196.214V227.929L503.286 218.679H495.357V205.464Z" fill="#0A0B0D"/>
<path d="M515.179 198.923V201.262C520.57 201.923 524.759 206.508 524.759 212.071C524.759 217.635 520.57 222.233 515.179 222.881V225.22C521.852 224.559 527.071 218.93 527.071 212.071C527.071 205.213 521.852 199.584 515.179 198.923Z" fill="#0A0B0D"/>
<path d="M515.179 218.546V220.885C519.473 220.238 522.777 216.538 522.777 212.071C522.777 207.605 519.473 203.905 515.179 203.257V205.596C518.191 206.204 520.464 208.874 520.464 212.071C520.464 215.269 518.191 217.939 515.179 218.546Z" fill="#0A0B0D"/>
<path d="M165 205.464H172.929L183.5 196.214V227.929L172.929 218.679H165V205.464Z" fill="#0A0B0D"/>
<path d="M194.375 206.284L196.714 208.609L193.252 212.071L196.714 215.534L194.375 217.859L190.926 214.41L187.464 217.859L185.125 215.534L188.587 212.071L185.125 208.609L187.464 206.284L190.926 209.732L194.375 206.284Z" fill="#0A0B0D"/>
<path d="M448.446 142.696C448.446 144.521 446.967 146 445.143 146C443.318 146 441.839 144.521 441.839 142.696C441.839 140.872 443.318 139.393 445.143 139.393C446.967 139.393 448.446 140.872 448.446 142.696Z" fill="#0A0B0D"/>
<path fill-rule="evenodd" clip-rule="evenodd" d="M429.286 128.821V156.571H461V128.821H429.286ZM454.393 144.018H450.931C450.785 144.679 450.521 145.3 450.164 145.855L452.622 148.312L450.759 150.176L448.301 147.718C447.746 148.075 447.125 148.326 446.464 148.484V151.946H443.821V148.484C443.161 148.339 442.54 148.075 441.985 147.718L439.527 150.176L437.664 148.312L440.121 145.855C439.765 145.3 439.5 144.679 439.355 144.018H435.893V141.375H439.355C439.5 140.714 439.765 140.093 440.121 139.538L437.664 137.094L439.527 135.23L441.985 137.675C442.54 137.318 443.161 137.054 443.821 136.909V133.446H446.464V136.909C447.125 137.054 447.746 137.318 448.301 137.675L450.759 135.217L452.622 137.08L450.164 139.538C450.521 140.093 450.785 140.714 450.931 141.375H454.393V144.018Z" fill="#0A0B0D"/>
<path d="M429.286 157.893H437.214V160.536H429.286V157.893Z" fill="#0A0B0D"/>
<path d="M453.071 157.893H461V160.536H453.071V157.893Z" fill="#0A0B0D"/>
<path d="M385.679 132.125V130.804C385.679 129.707 384.793 128.821 383.696 128.821H374.446C373.35 128.821 372.464 129.707 372.464 130.804V132.125H363.214V135.429H394.929V132.125H385.679Z" fill="#0A0B0D"/>
<path d="M368.896 158.184C369.042 159.518 370.178 160.536 371.526 160.536H386.617C387.965 160.536 389.101 159.518 389.246 158.184L391.81 136.75H366.333L368.896 158.184Z" fill="#0A0B0D"/>
<path fill-rule="evenodd" clip-rule="evenodd" d="M195.393 143.39C194.164 156.215 180.857 160.536 180.857 160.536C180.857 160.536 167.55 156.215 166.321 143.39V134.107L180.857 128.821L195.393 134.107V143.39ZM169.848 144.679H180.857L180.857 156.988C181.058 156.9 181.284 156.797 181.531 156.68C182.643 156.148 184.134 155.323 185.647 154.156C188.355 152.068 190.982 149.021 191.866 144.679H180.857V132.337L169.625 136.421V143.225C169.678 143.725 169.753 144.209 169.848 144.679Z" fill="#0A0B0D"/>
<path d="M317.163 89.5089C317.163 91.8078 315.299 93.6714 313 93.6714C310.701 93.6714 308.838 91.8078 308.838 89.5089C308.838 87.21 310.701 85.3464 313 85.3464C315.299 85.3464 317.163 87.21 317.163 89.5089Z" fill="#0A0B0D"/>
<path d="M307.714 75.9643H318.286L319.871 79.9286H328.857V99.75H297.143V79.9286H306.129L307.714 75.9643ZM319.938 89.5089C319.938 85.6775 316.831 82.5714 313 82.5714C309.169 82.5714 306.063 85.6775 306.063 89.5089C306.063 93.3404 309.169 96.4464 313 96.4464C316.831 96.4464 319.938 93.3404 319.938 89.5089Z" fill="#0A0B0D"/>
<path d="M585.571 202.61C584.58 198.844 581.184 196.214 577.286 196.214C573.388 196.214 569.991 198.844 569 202.61L564.071 221.321H590.5L585.571 202.61Z" fill="#0A0B0D"/>
<path d="M582.571 222.643C582.571 225.563 580.206 227.929 577.286 227.929C574.365 227.929 572 225.563 572 222.643H582.571Z" fill="#0A0B0D"/>
<path d="M643.357 72L627.5 82.5714V103.714H639.393V90.5H647.321V103.714H659.214V82.5714L643.357 72Z" fill="#0A0B0D"/>
<path d="M578.607 143.357V128.821C586.641 128.821 593.143 135.323 593.143 143.357H578.607Z" fill="#0A0B0D"/>
<path d="M561.429 146C561.429 137.966 567.93 131.464 575.964 131.464V146H590.5C590.5 154.034 583.999 160.536 575.964 160.536C567.93 160.536 561.429 154.034 561.429 146Z" fill="#0A0B0D"/>
<path d="M709.429 103.714C718.19 103.714 725.286 96.6182 725.286 87.8571C725.286 79.0961 718.19 72 709.429 72C700.668 72 693.571 79.0961 693.571 87.8571C693.571 96.6182 700.668 103.714 709.429 103.714ZM708.107 78.6071H710.75V81.25H708.107V78.6071ZM708.107 83.8929H710.75V97.1071H708.107V83.8929Z" fill="#0A0B0D"/>
<path d="M716.696 140.054C716.696 144.067 713.443 147.321 709.429 147.321C705.415 147.321 702.161 144.067 702.161 140.054C702.161 136.04 705.415 132.786 709.429 132.786C713.443 132.786 716.696 136.04 716.696 140.054Z" fill="#0A0B0D"/>
<path fill-rule="evenodd" clip-rule="evenodd" d="M709.429 128.821C703.231 128.821 698.196 133.856 698.196 140.054C698.196 146.251 703.231 151.286 709.429 151.286C715.626 151.286 720.661 146.251 720.661 140.054C720.661 133.856 715.626 128.821 709.429 128.821ZM709.429 148.643C704.685 148.643 700.839 144.798 700.839 140.054C700.839 135.31 704.685 131.464 709.429 131.464C714.173 131.464 718.018 135.31 718.018 140.054C718.018 144.798 714.173 148.643 709.429 148.643Z" fill="#0A0B0D"/>
<path d="M725.286 149.964H720.661V155.911H698.196V149.964H693.571V160.536H725.286V149.964Z" fill="#0A0B0D"/>
<path d="M693.571 196.214H713.393V210.75H693.571V196.214Z" fill="#0A0B0D"/>
<path d="M693.571 213.393H713.393V227.929H693.571V213.393Z" fill="#0A0B0D"/>
<path d="M716.036 196.214H725.286V227.929H716.036V196.214Z" fill="#0A0B0D"/>
<path d="M387 196.214V197.536H371.143V196.214H367.179V208.107H371.143V206.786H376.931L375.451 223.991C375.266 226.105 376.931 227.929 379.071 227.929C381.212 227.929 382.877 226.105 382.692 223.991L381.212 206.786H387V208.107H390.964V196.214H387Z" fill="#0A0B0D"/>
<path d="M635.772 144.731H640.344L634.068 133.341H639.644L643.74 141.771L647.731 133.341H652.647L646.714 144.731H651.312V146.859H646.106V148.788H651.312V150.876H646.106V156.016H640.979V150.876H635.772V148.788H640.979V146.859H635.772V144.731Z" fill="#0A0B0D"/>
<path d="M373.786 262.286H363.214V272.857H373.786V262.286Z" fill="#0A0B0D"/>
<path d="M394.929 262.286H384.357V272.857H394.929V262.286Z" fill="#0A0B0D"/>
<path d="M381.714 264.268H376.429V268.232H381.714V264.268Z" fill="#0A0B0D"/>
<path d="M381.714 288.054H376.429V292.018H381.714V288.054Z" fill="#0A0B0D"/>
<path d="M392.946 275.5H388.982V280.786H392.946V275.5Z" fill="#0A0B0D"/>
<path d="M369.161 275.5H365.196V280.786H369.161V275.5Z" fill="#0A0B0D"/>
<path d="M373.786 283.429H363.214V294H373.786V283.429Z" fill="#0A0B0D"/>
<path d="M394.929 283.429V294H384.357V283.429H394.929Z" fill="#0A0B0D"/>
<path d="M394.929 283.429H384.357V294H394.929V283.429Z" fill="#0A0B0D"/>
<path d="M458.674 267.875C455.582 264.783 450.561 264.783 447.469 267.875L445.143 270.214L442.804 267.875C439.712 264.783 434.69 264.783 431.598 267.875C428.506 270.967 428.506 275.989 431.598 279.081L445.143 291.991L458.674 279.081C461.78 275.989 461.78 270.967 458.674 267.875Z" fill="#0A0B0D"/>
<path d="M775.5 262.286C766.739 262.286 759.643 269.382 759.643 278.143C759.643 286.904 766.739 294 775.5 294C784.261 294 791.357 286.904 791.357 278.143C791.357 269.382 784.261 262.286 775.5 262.286ZM787.935 276.491H782.728C782.543 272.619 781.711 269.157 780.482 266.633C784.446 268.351 787.34 272.064 787.935 276.491ZM763.065 279.795H768.272C768.457 283.666 769.289 287.129 770.518 289.652C766.554 287.935 763.66 284.221 763.065 279.795ZM768.272 276.491H763.065C763.66 272.064 766.554 268.351 770.518 266.633C769.289 269.157 768.457 272.619 768.272 276.491ZM775.5 290.696C774.588 290.696 771.945 286.838 771.575 279.795H779.411C779.055 286.838 776.412 290.696 775.5 290.696ZM771.575 276.491C771.945 269.448 774.588 265.589 775.5 265.589C776.412 265.589 779.055 269.448 779.425 276.491H771.575ZM780.482 289.652C781.711 287.115 782.543 283.666 782.728 279.795H787.935C787.34 284.221 784.446 287.935 780.482 289.652Z" fill="#0A0B0D"/>
<path d="M836.286 278.143L825.714 264.929H833.643L844.214 278.143L833.643 291.357H825.714L836.286 278.143Z" fill="#0A0B0D"/>
<path d="M849.5 278.143L838.929 264.929H846.857L857.429 278.143L846.857 291.357H838.929L849.5 278.143Z" fill="#0A0B0D"/>
<path d="M718.679 290.696C718.679 292.521 717.2 294 715.375 294C713.551 294 712.071 292.521 712.071 290.696C712.071 288.872 713.551 287.393 715.375 287.393C717.2 287.393 718.679 288.872 718.679 290.696Z" fill="#0A0B0D"/>
<path d="M718.679 265.589C718.679 267.414 717.2 268.893 715.375 268.893C713.551 268.893 712.071 267.414 712.071 265.589C712.071 263.765 713.551 262.286 715.375 262.286C717.2 262.286 718.679 263.765 718.679 265.589Z" fill="#0A0B0D"/>
<path d="M718.679 278.143C718.679 279.967 717.2 281.446 715.375 281.446C713.551 281.446 712.071 279.967 712.071 278.143C712.071 276.318 713.551 274.839 715.375 274.839C717.2 274.839 718.679 276.318 718.679 278.143Z" fill="#0A0B0D"/>
<path d="M706.786 278.143C706.786 279.967 705.307 281.446 703.482 281.446C701.658 281.446 700.179 279.967 700.179 278.143C700.179 276.318 701.658 274.839 703.482 274.839C705.307 274.839 706.786 276.318 706.786 278.143Z" fill="#0A0B0D"/>
<path d="M706.786 265.589C706.786 267.414 705.307 268.893 703.482 268.893C701.658 268.893 700.179 267.414 700.179 265.589C700.179 263.765 701.658 262.286 703.482 262.286C705.307 262.286 706.786 263.765 706.786 265.589Z" fill="#0A0B0D"/>
<path d="M706.786 290.696C706.786 292.521 705.307 294 703.482 294C701.658 294 700.179 292.521 700.179 290.696C700.179 288.872 701.658 287.393 703.482 287.393C705.307 287.393 706.786 288.872 706.786 290.696Z" fill="#0A0B0D"/>
<path fill-rule="evenodd" clip-rule="evenodd" d="M521.786 268.232C521.786 268.941 521.626 269.614 521.341 270.214H527.071V275.5H495.357V270.214H501.088C500.803 269.614 500.643 268.941 500.643 268.232C500.643 265.678 502.714 263.607 505.268 263.607H506.147C508.003 263.607 509.735 264.543 510.752 266.096L511.214 266.803L511.677 266.096C512.694 264.543 514.425 263.607 516.282 263.607H517.161C519.715 263.607 521.786 265.678 521.786 268.232ZM513.362 269.554H517.161C517.891 269.554 518.482 268.962 518.482 268.232C518.482 267.502 517.891 266.911 517.161 266.911H516.282C515.539 266.911 514.847 267.285 514.441 267.906L513.362 269.554ZM505.268 269.554H509.067L507.988 267.906C507.581 267.285 506.889 266.911 506.147 266.911H505.268C504.538 266.911 503.946 267.502 503.946 268.232C503.946 268.962 504.538 269.554 505.268 269.554Z" fill="#0A0B0D"/>
<path fill-rule="evenodd" clip-rule="evenodd" d="M495.357 292.679V279.464H527.071V292.679H495.357ZM507.25 286.071H499.321V288.714H507.25V286.071Z" fill="#0A0B0D"/>
<path d="M627.5 267.571V288.714H659.214V267.571H627.5ZM655.911 273.848V276.491H646.661V273.848H655.911ZM646.661 279.795H655.911V282.438H646.661V279.795ZM630.804 270.875H643.357V285.411H630.804V270.875Z" fill="#0A0B0D"/>
<path d="M636.75 277.482C637.845 277.482 638.732 276.595 638.732 275.5C638.732 274.405 637.845 273.518 636.75 273.518C635.655 273.518 634.768 274.405 634.768 275.5C634.768 276.595 635.655 277.482 636.75 277.482Z" fill="#0A0B0D"/>
<path d="M636.75 278.804C634.556 278.804 632.786 280.574 632.786 282.768H640.714C640.714 280.574 638.944 278.804 636.75 278.804Z" fill="#0A0B0D"/>
<path d="M327.139 267.571H298.861L313 278.169L327.139 267.571Z" fill="#0A0B0D"/>
<path d="M313 281.473L297.143 269.554V288.714H328.857V269.554L313 281.473Z" fill="#0A0B0D"/>
<path d="M791.357 87.8571L759.643 103.714L764.929 90.5L778.143 87.8571L764.929 85.2143L759.643 72L791.357 87.8571Z" fill="#0A0B0D"/>
<path d="M775.5 132.786L759.643 143.357V164.5H771.536V151.286H779.464V164.5H791.357V143.357L775.5 132.786Z" fill="#0A0B0D"/>
<path d="M783.429 196.214H791.357V227.929H783.429V196.214Z" fill="#0A0B0D"/>
<path d="M779.464 206.786H771.536V227.929H779.464V206.786Z" fill="#0A0B0D"/>
<path d="M767.571 217.357H759.643V227.929H767.571V217.357Z" fill="#0A0B0D"/>
<path d="M577.286 262.286L580.55 274.879L593.143 278.143L580.55 281.407L577.286 294L574.022 281.407L561.429 278.143L574.022 274.879L577.286 262.286Z" fill="#0A0B0D"/>
<path d="M837.607 204.143C836.88 204.143 836.286 204.738 836.286 205.464C836.286 206.191 836.88 206.786 837.607 206.786C838.334 206.786 838.929 206.191 838.929 205.464C838.929 204.738 838.334 204.143 837.607 204.143Z" fill="#0A0B0D"/>
<path d="M841.571 204.143C840.845 204.143 840.25 204.738 840.25 205.464C840.25 206.191 840.845 206.786 841.571 206.786C842.298 206.786 842.893 206.191 842.893 205.464C842.893 204.738 842.298 204.143 841.571 204.143Z" fill="#0A0B0D"/>
<path d="M845.536 204.143C844.809 204.143 844.214 204.738 844.214 205.464C844.214 206.191 844.809 206.786 845.536 206.786C846.263 206.786 846.857 206.191 846.857 205.464C846.857 204.738 846.263 204.143 845.536 204.143Z" fill="#0A0B0D"/>
<path d="M837.607 208.107C836.88 208.107 836.286 208.702 836.286 209.429C836.286 210.155 836.88 210.75 837.607 210.75C838.334 210.75 838.929 210.155 838.929 209.429C838.929 208.702 838.334 208.107 837.607 208.107Z" fill="#0A0B0D"/>
<path d="M841.571 208.107C840.845 208.107 840.25 208.702 840.25 209.429C840.25 210.155 840.845 210.75 841.571 210.75C842.298 210.75 842.893 210.155 842.893 209.429C842.893 208.702 842.298 208.107 841.571 208.107Z" fill="#0A0B0D"/>
<path d="M845.536 208.107C844.809 208.107 844.214 208.702 844.214 209.429C844.214 210.155 844.809 210.75 845.536 210.75C846.263 210.75 846.857 210.155 846.857 209.429C846.857 208.702 846.263 208.107 845.536 208.107Z" fill="#0A0B0D"/>
<path d="M837.607 212.071C836.88 212.071 836.286 212.666 836.286 213.393C836.286 214.12 836.88 214.714 837.607 214.714C838.334 214.714 838.929 214.12 838.929 213.393C838.929 212.666 838.334 212.071 837.607 212.071Z" fill="#0A0B0D"/>
<path d="M841.571 212.071C840.845 212.071 840.25 212.666 840.25 213.393C840.25 214.12 840.845 214.714 841.571 214.714C842.298 214.714 842.893 214.12 842.893 213.393C842.893 212.666 842.298 212.071 841.571 212.071Z" fill="#0A0B0D"/>
<path d="M845.536 212.071C844.809 212.071 844.214 212.666 844.214 213.393C844.214 214.12 844.809 214.714 845.536 214.714C846.263 214.714 846.857 214.12 846.857 213.393C846.857 212.666 846.263 212.071 845.536 212.071Z" fill="#0A0B0D"/>
<path d="M841.571 216.036C840.845 216.036 840.25 216.63 840.25 217.357C840.25 218.084 840.845 218.679 841.571 218.679C842.298 218.679 842.893 218.084 842.893 217.357C842.893 216.63 842.298 216.036 841.571 216.036Z" fill="#0A0B0D"/>
<path d="M831 196.214V227.929H852.143V196.214H831ZM844.214 226.277H838.929V224.295H844.214V226.277ZM849.5 222.643H833.643V198.857H849.5V222.643Z" fill="#0A0B0D"/>
<path d="M831 74.6429H852.143V79.9286H831C829.546 79.9286 828.357 78.7393 828.357 77.2857C828.357 75.8321 829.546 74.6429 831 74.6429Z" fill="#0A0B0D"/>
<path d="M828.357 81.25V97.1071C828.357 99.3007 830.128 101.071 832.321 101.071H854.786V81.25H828.357ZM849.5 93.1429C848.403 93.1429 847.518 92.2575 847.518 91.1607C847.518 90.0639 848.403 89.1786 849.5 89.1786C850.597 89.1786 851.482 90.0639 851.482 91.1607C851.482 92.2575 850.597 93.1429 849.5 93.1429Z" fill="#0A0B0D"/>
<path d="M246.929 264.929C238.168 264.929 231.071 271.875 231.071 280.452C231.071 284.701 232.816 288.544 235.63 291.338L238.445 288.582C236.344 286.487 235.036 283.615 235.036 280.452C235.036 274.029 240.368 268.809 246.929 268.809C253.489 268.809 258.821 274.029 258.821 280.452C258.821 283.615 257.513 286.487 255.412 288.602L258.227 291.357C261.041 288.544 262.786 284.701 262.786 280.452C262.786 271.875 255.69 264.929 246.929 264.929Z" fill="#0A0B0D"/>
<path d="M250.239 280.452C250.239 278.667 248.752 277.212 246.928 277.212C245.105 277.212 243.618 278.667 243.618 280.452C243.618 282.237 245.105 283.693 246.928 283.693C247.087 283.693 247.226 283.673 247.384 283.654L252.142 288.311L254.936 285.575L250.179 280.918C250.199 280.743 250.239 280.607 250.239 280.452Z" fill="#0A0B0D"/>
<path fill-rule="evenodd" clip-rule="evenodd" d="M180.857 294C189.615 294 196.714 286.901 196.714 278.143C196.714 269.385 189.615 262.286 180.857 262.286C172.099 262.286 165 269.385 165 278.143C165 286.901 172.099 294 180.857 294ZM188.305 272.377L182.539 278.143L188.305 283.909L186.623 285.591L180.857 279.825L175.091 285.591L173.409 283.909L179.175 278.143L173.409 272.377L175.091 270.695L180.857 276.461L186.623 270.695L188.305 272.377Z" fill="#0A0B0D"/>
<path d="M841.571 132.786C832.81 132.786 825.714 139.882 825.714 148.643C825.714 157.404 832.81 164.5 841.571 164.5C850.333 164.5 857.429 157.404 857.429 148.643C857.429 139.882 850.333 132.786 841.571 132.786ZM839.048 155.646L833.114 149.713L834.978 147.85L839.048 151.92L848.39 142.577L850.253 144.441L839.048 155.646Z" fill="#0A0B0D"/>
</svg>
