<svg xmlns="http://www.w3.org/2000/svg" fill="none" viewBox="0 0 32 32"><g clip-path="url(#a)"><path fill="#0A0B0D" d="m28.5 4.914 1.793 1.793 1.414-1.414-5-5-1.414 1.414L27.086 3.5l-2.793 2.793 1.414 1.414z"/><path fill="#CED2DB" d="M30 16c0 7.732-6.268 14-14 14S2 23.732 2 16 8.268 2 16 2s14 6.268 14 14"/><path fill="#0052FF" d="M26.5 16c0 5.799-4.701 10.5-10.5 10.5S5.5 21.799 5.5 16 10.201 5.5 16 5.5 26.5 10.2 26.5 16"/><path fill="#FFFFFF" d="m17.954 15.573 4.259-4.259L20.798 9.9l-4.193 4.193a2 2 0 1 0 1.349 1.48"/></g><defs><clipPath id="a"><path fill="#FFFFFF" d="M0 0h32v32H0z"/></clipPath></defs></svg>