<svg width="64" height="64" viewBox="0 0 64 64" fill="none" xmlns="http://www.w3.org/2000/svg">
<path d="M64 0H32V64H64V0Z" fill="#BFE9FF"/>
<path d="M8 8V36C8 49.25 32 60 32 60C32 60 56 49.25 56 36V8H8Z" fill="#56B4FC"/>
<path d="M32 8V60C32 60 56 49.25 56 36V8H32Z" fill="#1652F0"/>
<path d="M15 15V36C15 40.92 23.57 47.72 31.53 51.97L32 52.22L32.47 51.97C40.43 47.72 49 40.92 49 36V15H15ZM47 17V23H17V17H47ZM32 49.95C23.55 45.35 17 39.28 17 36V25H47V36C47 39.28 40.45 45.35 32 49.95Z" fill="white"/>
</svg>
