<svg width="64" height="64" viewBox="0 0 64 64" fill="none" xmlns="http://www.w3.org/2000/svg">
<g clip-path="url(#clip0)">
<path d="M64 7.96741H0V55.9674H64V7.96741Z" fill="#BFE9FF"/>
<path d="M50 63.9674H14C12.9 63.9674 12 63.0674 12 61.9674V1.96741C12 0.867407 12.9 -0.0325928 14 -0.0325928H50C51.1 -0.0325928 52 0.867407 52 1.96741V61.9674C52 63.0674 51.1 63.9674 50 63.9674Z" fill="#56B4FC"/>
<path d="M28 59.9674C28 60.5174 28.45 60.9674 29 60.9674H35C35.55 60.9674 36 60.5174 36 59.9674C36 59.4174 35.55 58.9674 35 58.9674H29C28.45 58.9674 28 59.4174 28 59.9674Z" fill="#1652F0"/>
<path d="M32 4.96741C32.5523 4.96741 33 4.51969 33 3.96741C33 3.41512 32.5523 2.96741 32 2.96741C31.4477 2.96741 31 3.41512 31 3.96741C31 4.51969 31.4477 4.96741 32 4.96741Z" fill="#1652F0"/>
<path d="M52 7.96741H12V55.9674H52V7.96741Z" fill="#1652F0"/>
<path fill-rule="evenodd" clip-rule="evenodd" d="M32 20.9674C25.9249 20.9674 21 25.8923 21 31.9674C21 38.0425 25.9249 42.9674 32 42.9674C38.0751 42.9674 43 38.0425 43 31.9674C43 25.8923 38.0751 20.9674 32 20.9674ZM19 31.9674C19 24.7877 24.8203 18.9674 32 18.9674C39.1797 18.9674 45 24.7877 45 31.9674C45 39.1471 39.1797 44.9674 32 44.9674C24.8203 44.9674 19 39.1471 19 31.9674Z" fill="white"/>
<path fill-rule="evenodd" clip-rule="evenodd" d="M39.7827 41.1645L22.8027 24.1845L24.2169 22.7703L41.197 39.7503L39.7827 41.1645Z" fill="white"/>
<path fill-rule="evenodd" clip-rule="evenodd" d="M22.8027 39.7503L39.7827 22.7703L41.197 24.1845L24.2169 41.1645L22.8027 39.7503Z" fill="white"/>
<path d="M32 37.9674C35.3137 37.9674 38 35.2811 38 31.9674C38 28.6537 35.3137 25.9674 32 25.9674C28.6863 25.9674 26 28.6537 26 31.9674C26 35.2811 28.6863 37.9674 32 37.9674Z" fill="#1652F0"/>
<path fill-rule="evenodd" clip-rule="evenodd" d="M32 26.9674C29.2386 26.9674 27 29.206 27 31.9674C27 34.7288 29.2386 36.9674 32 36.9674C34.7614 36.9674 37 34.7288 37 31.9674C37 29.206 34.7614 26.9674 32 26.9674ZM25 31.9674C25 28.1014 28.134 24.9674 32 24.9674C35.866 24.9674 39 28.1014 39 31.9674C39 35.8334 35.866 38.9674 32 38.9674C28.134 38.9674 25 35.8334 25 31.9674Z" fill="white"/>
</g>
<defs>
<clipPath id="clip0">
<rect width="64" height="64" fill="white"/>
</clipPath>
</defs>
</svg>
