<svg width="150" height="86" viewBox="0 0 150 86" fill="none" xmlns="http://www.w3.org/2000/svg">
<rect width="150" height="41" rx="8" fill="#C4C4C4"/>
<rect x="16" width="110" height="41" rx="8" fill="#0052FF"/>
<rect x="126" y="13" width="24" height="16" fill="#F9A6AD"/>
<path d="M138.582 25.1093C138.02 25.1093 137.52 25.013 137.082 24.8203C136.647 24.6275 136.302 24.3593 136.047 24.0156C135.794 23.6718 135.661 23.2747 135.648 22.8242H137.117C137.135 23.1497 137.283 23.4101 137.559 23.6054C137.837 23.7981 138.177 23.8945 138.578 23.8945C139.005 23.8945 139.357 23.7851 139.633 23.5663C139.909 23.345 140.046 23.0572 140.043 22.7031C140.046 22.3411 139.904 22.0455 139.617 21.8163C139.333 21.5872 138.939 21.4726 138.434 21.4726H137.727V20.3554H138.434C138.848 20.3554 139.185 20.2486 139.445 20.0351C139.708 19.8216 139.839 19.5403 139.836 19.1913C139.839 18.8554 139.725 18.5846 139.496 18.3788C139.27 18.1705 138.97 18.0663 138.598 18.0663C138.228 18.0663 137.908 18.164 137.637 18.3593C137.366 18.5546 137.224 18.8203 137.211 19.1562H135.816C135.827 18.7083 135.956 18.315 136.203 17.9765C136.451 17.6354 136.783 17.3697 137.199 17.1796C137.618 16.9869 138.087 16.8906 138.605 16.8906C139.139 16.8906 139.603 16.9908 139.996 17.1913C140.392 17.3893 140.698 17.6562 140.914 17.9921C141.133 18.3281 141.241 18.6992 141.238 19.1054C141.241 19.5533 141.109 19.9309 140.844 20.2382C140.578 20.5429 140.228 20.7421 139.793 20.8359V20.8984C140.353 20.9791 140.784 21.1874 141.086 21.5234C141.388 21.8593 141.538 22.2773 141.535 22.7773C141.538 23.2278 141.411 23.6288 141.156 23.9804C140.901 24.332 140.551 24.608 140.105 24.8085C139.66 25.0091 139.152 25.1093 138.582 25.1093Z" fill="black"/>
<rect y="13" width="16" height="16" fill="#F9A6AD"/>
<path d="M5.71094 25V23.9531L8.48828 21.2305C8.88411 20.8294 9.18229 20.4883 9.38281 20.207C9.58333 19.9258 9.68359 19.6185 9.68359 19.2852C9.68359 18.9076 9.55729 18.6107 9.30469 18.3945C9.05208 18.1758 8.73568 18.0664 8.35547 18.0664C7.95703 18.0664 7.63802 18.1862 7.39844 18.4258C7.16146 18.6628 7.04297 18.9857 7.04297 19.3945H5.66406C5.66406 18.8867 5.77995 18.4453 6.01172 18.0703C6.24349 17.6953 6.5625 17.4049 6.96875 17.1992C7.3776 16.9935 7.84635 16.8906 8.375 16.8906C8.91146 16.8906 9.38151 16.9909 9.78516 17.1914C10.1914 17.3919 10.5078 17.6667 10.7344 18.0156C10.9609 18.3646 11.0742 18.763 11.0742 19.2109C11.0742 19.5104 11.0169 19.8047 10.9023 20.0937C10.7878 20.3828 10.5859 20.7044 10.2969 21.0586C10.0104 21.4102 9.60807 21.8346 9.08984 22.332L7.71094 23.7344V23.7891H11.1953V25H5.71094Z" fill="black"/>
<path d="M60.7891 27V19H62.2383V25.7852H65.7617V27H60.7891ZM67.0855 27V19H70.0855C71.0048 19 71.704 19.2357 72.1832 19.707C72.665 20.1784 72.9058 20.7956 72.9058 21.5586C72.9058 22.1029 72.7834 22.5703 72.5387 22.9609C72.2939 23.3516 71.9371 23.6406 71.4683 23.8281L73.1988 27H71.5816L70.0113 24.0703H68.5348V27H67.0855ZM68.5348 22.8672H69.8707C70.4071 22.8672 70.8004 22.7552 71.0504 22.5312C71.303 22.3073 71.4293 21.9831 71.4293 21.5586C71.4293 21.1315 71.303 20.8008 71.0504 20.5664C70.8004 20.3294 70.4045 20.2109 69.8629 20.2109H68.5348V22.8672ZM73.9543 20.2148V19H80.3371V20.2148H77.8644V27H76.4269V20.2148H73.9543Z" fill="white"/>
<rect y="45" width="150" height="41" rx="8" fill="#C4C4C4"/>
<rect x="24" y="45" width="110" height="41" rx="8" fill="#0052FF"/>
<rect y="58" width="24" height="16" fill="#F9A6AD"/>
<path d="M12.582 70.1093C12.0195 70.1093 11.5195 70.013 11.082 69.8203C10.6471 69.6275 10.3021 69.3593 10.0469 69.0156C9.79427 68.6718 9.66146 68.2747 9.64844 67.8242H11.1172C11.1354 68.1497 11.2826 68.4101 11.5586 68.6054C11.8372 68.7981 12.1771 68.8945 12.5781 68.8945C13.0052 68.8945 13.3568 68.7851 13.6328 68.5663C13.9089 68.345 14.0456 68.0572 14.043 67.7031C14.0456 67.3411 13.9036 67.0455 13.6172 66.8163C13.3333 66.5872 12.9388 66.4726 12.4336 66.4726H11.7266V65.3554H12.4336C12.8477 65.3554 13.1849 65.2486 13.4453 65.0351C13.7083 64.8216 13.8385 64.5403 13.8359 64.1913C13.8385 63.8554 13.7253 63.5846 13.4961 63.3788C13.2695 63.1705 12.9701 63.0663 12.5977 63.0663C12.2279 63.0663 11.9076 63.164 11.6367 63.3593C11.3659 63.5546 11.224 63.8203 11.2109 64.1562H9.81641C9.82682 63.7083 9.95573 63.315 10.2031 62.9765C10.4505 62.6354 10.7826 62.3697 11.1992 62.1796C11.6185 61.9869 12.0872 61.8906 12.6055 61.8906C13.1393 61.8906 13.6029 61.9908 13.9961 62.1913C14.3919 62.3893 14.6979 62.6562 14.9141 62.9921C15.1328 63.3281 15.2409 63.6992 15.2383 64.1054C15.2409 64.5533 15.1094 64.9309 14.8438 65.2382C14.5781 65.5429 14.2279 65.7421 13.793 65.8359V65.8984C14.3529 65.9791 14.7839 66.1874 15.0859 66.5234C15.388 66.8593 15.5378 67.2773 15.5352 67.7773C15.5378 68.2278 15.4115 68.6288 15.1563 68.9804C14.901 69.332 14.5508 69.608 14.1055 69.8085C13.6602 70.0091 13.1523 70.1093 12.582 70.1093Z" fill="black"/>
<rect x="134" y="58" width="16" height="16" fill="#F9A6AD"/>
<path d="M139.711 70V68.9531L142.488 66.2305C142.884 65.8294 143.182 65.4883 143.383 65.207C143.583 64.9258 143.684 64.6185 143.684 64.2852C143.684 63.9076 143.557 63.6107 143.305 63.3945C143.052 63.1758 142.736 63.0664 142.355 63.0664C141.957 63.0664 141.638 63.1862 141.398 63.4258C141.161 63.6628 141.043 63.9857 141.043 64.3945H139.664C139.664 63.8867 139.78 63.4453 140.012 63.0703C140.243 62.6953 140.563 62.4049 140.969 62.1992C141.378 61.9935 141.846 61.8906 142.375 61.8906C142.911 61.8906 143.382 61.9909 143.785 62.1914C144.191 62.3919 144.508 62.6667 144.734 63.0156C144.961 63.3646 145.074 63.763 145.074 64.2109C145.074 64.5104 145.017 64.8047 144.902 65.0937C144.788 65.3828 144.586 65.7044 144.297 66.0586C144.01 66.4102 143.608 66.8346 143.09 67.332L141.711 68.7344V68.7891H145.195V70H139.711Z" fill="black"/>
<path d="M68.7891 70V62H71.7891C72.7083 62 73.4076 62.2357 73.8867 62.707C74.3685 63.1784 74.6094 63.7956 74.6094 64.5586C74.6094 65.1029 74.487 65.5703 74.2422 65.9609C73.9974 66.3516 73.6406 66.6406 73.1719 66.8281L74.9023 70H73.2852L71.7148 67.0703H70.2383V70H68.7891ZM70.2383 65.8672H71.5742C72.1107 65.8672 72.5039 65.7552 72.7539 65.5312C73.0065 65.3073 73.1328 64.9831 73.1328 64.5586C73.1328 64.1315 73.0065 63.8008 72.7539 63.5664C72.5039 63.3294 72.1081 63.2109 71.5664 63.2109H70.2383V65.8672ZM75.6578 63.2148V62H82.0406V63.2148H79.568V70H78.1305V63.2148H75.6578ZM83.3371 70V62H84.7863V68.7852H88.3097V70H83.3371Z" fill="white"/>
</svg>
