<svg xmlns="http://www.w3.org/2000/svg" fill="none" viewBox="0 0 240 120"><path fill="#464B55" d="M0 32h211v56H0V32Z"/><path fill="#0A0B0D" d="M0 40h211v8H0v-8Zm0 32h211v8H0v-8Z"/><path fill="#ECD069" d="M204.5 95C184.894 95 169 79.106 169 59.5S184.894 24 204.5 24 240 39.894 240 59.5 224.106 95 204.5 95Z"/><path fill="#0A0B0D" fill-rule="evenodd" d="M177 60c0 15.464 12.536 28 28 28s28-12.536 28-28-12.536-28-28-28-28 12.536-28 28Zm-2 0c0 16.569 13.431 30 30 30 16.569 0 30-13.431 30-30 0-16.569-13.431-30-30-30-16.569 0-30 13.431-30 30Z" clip-rule="evenodd"/><path fill="#0A0B0D" fill-rule="evenodd" d="M204 80V40h2v40h-2Z" clip-rule="evenodd"/><path fill="#0A0B0D" fill-rule="evenodd" d="M185 58h40v2h-40v-2Z" clip-rule="evenodd"/><path fill="#A5C1FD" d="M160 24H14v8h146v-8ZM87.5 0 25 24h125L87.5 0Z"/><path fill="#FFFFFF" d="M88 24a8 8 0 1 0 0-16 8 8 0 0 0 0 16Z"/><path fill="#0A0B0D" fill-rule="evenodd" d="M87 11h2v4.586l2.707 2.707-1.414 1.414L87 16.414V11Z" clip-rule="evenodd"/><path fill="#A5C1FD" d="M152 88H24v8h128v-8Zm8 8H16v8h144v-8Zm8 8H8v8h160v-8Zm8 8H0v8h176v-8Z"/><path fill="#464B55" d="M40 32H24v56h16V32Zm88 0h-16v56h16V32Zm-64 0H48v56h16V32Zm88 0h-16v56h16V32Z"/><path fill="#588AF5" d="M40 48H24v24h16V48Zm88 0h-16v24h16V48Zm-64 0H48v24h16V48Zm88 0h-16v24h16V48ZM40 80H24v8h16v-8Zm0-48H24v8h16v-8Zm88 48h-16v8h16v-8Zm0-48h-16v8h16v-8ZM64 80H48v8h16v-8Zm0-48H48v8h16v-8Zm88 48h-16v8h16v-8Zm0-48h-16v8h16v-8Z"/><path fill="#0A0B0D" d="M95.283 88.087H79.631v-18.26A7.824 7.824 0 0 1 87.457 62a7.824 7.824 0 0 1 7.826 7.826v18.26Z"/></svg>