<svg xmlns="http://www.w3.org/2000/svg" fill="none" viewBox="0 0 240 120"><path fill="#464B55" d="M32 0h176v16H32z"/><path fill="#464B55" d="M56 0h128v96H56z"/><path fill="#578BFA" d="M56 0h128v16H56z"/><path fill="#44C28D" d="M72 96a24.002 24.002 0 0 0 40.971 16.971A24 24 0 0 0 120 96z"/><path fill="#44C28D" d="M96 96h48v24H96z"/><path fill="#578BFA" d="M120 96a24.003 24.003 0 0 0-24-24 24 24 0 0 0-24 24z"/><path fill="#578BFA" d="M96 72h48v24H96z"/><path fill="#ECD069" d="M168 96c0 13.255-10.745 24-24 24s-24-10.745-24-24 10.745-24 24-24 24 10.745 24 24"/><path fill="#0A0B0D" fill-rule="evenodd" d="M156.978 96c0-7.303-5.921-13.224-13.224-13.224v-2c8.408 0 15.224 6.816 15.224 15.224s-6.816 15.224-15.224 15.224-15.225-6.816-15.225-15.224h2c0 7.304 5.921 13.224 13.225 13.224s13.224-5.92 13.224-13.224" clip-rule="evenodd"/><path fill="#0A0B0D" fill-rule="evenodd" d="m128.71 93.96 7.248 4.391-1.036 1.711-5.528-3.349-3.311 5.54-1.717-1.026zM87 49.46h50v15.45H87zm2 2v11.45h46V51.46z" clip-rule="evenodd"/><path fill="#0A0B0D" fill-rule="evenodd" d="M71 36.309h18V64.91H71zm2 2V62.91h14v-24.6z" clip-rule="evenodd"/><path fill="#ECD069" d="M120 37.128h16v12.598h-16z"/><path fill="#0A0B0D" fill-rule="evenodd" d="M103 23h34v42h-34zm2 2v38h30V25z" clip-rule="evenodd"/><path fill="#0A0B0D" fill-rule="evenodd" d="M103 23h34v41.91h-34zm2 2v37.91h30V25z" clip-rule="evenodd"/><path fill="#0A0B0D" fill-rule="evenodd" d="M119 23h18v42h-18zm2 2v38h14V25z" clip-rule="evenodd"/><path fill="#0A0B0D" fill-rule="evenodd" d="M153 23h-18v28.46h18zm-2 2v24.46h-14V25z" clip-rule="evenodd"/><path fill="#0A0B0D" fill-rule="evenodd" d="M71 36.23h98v15.23H71zm2 2v11.23h94V38.23z" clip-rule="evenodd"/><path fill="#0A0B0D" fill-rule="evenodd" d="M71 23h98v41.913H71zm2 2v37.913h94V25z" clip-rule="evenodd"/><path fill="#FFFFFF" d="M80 8a4 4 0 1 1-8 0 4 4 0 0 1 8 0m88 0a4 4 0 1 1-8 0 4 4 0 0 1 8 0"/></svg>