<svg xmlns="http://www.w3.org/2000/svg" fill="none" viewBox="0 0 240 121"><path fill="#44C28D" d="M88 60.08a4 4 0 0 1 4-4h88a4 4 0 0 1 4 4v56a4 4 0 0 1-4 4H92a4 4 0 0 1-4-4v-56Z"/><path fill="#0A0B0D" d="M156 88.08a10.4 10.4 0 0 1 10.4-10.4H184v20.8h-17.6a10.4 10.4 0 0 1-10.4-10.4Z"/><path fill="#FFFFFF" fill-rule="evenodd" d="M166.4 92.48a4.4 4.4 0 1 0 0-8.8 4.4 4.4 0 0 0 0 8.8Zm0 2a6.4 6.4 0 1 0 0-12.8 6.4 6.4 0 0 0 0 12.8Z" clip-rule="evenodd"/><path fill="#588AF5" d="M184 77.68h8v20.8h-8v-20.8Z"/><path fill="#464B55" fill-rule="evenodd" d="M32 0h45a51 51 0 0 1 51 51v36.93H96V51a19 19 0 0 0-19-19H32V0Z" clip-rule="evenodd"/><path fill="#588AF5" fill-rule="evenodd" d="M128 56.08v31.85H96V56.08h32Z" clip-rule="evenodd"/><path fill="#464B55" fill-rule="evenodd" d="M44 0h72.95a51 51 0 0 1 51 51v2.77h-32V51a19 19 0 0 0-19-19H44V0Z" clip-rule="evenodd"/><path fill="#ECD069" d="M128 88.08a16 16 0 1 1-32 0 16 16 0 0 1 32 0Z"/><path fill="#588AF5" d="M168 56.08a16 16 0 1 1-32 0 16 16 0 0 1 32 0Z"/><path fill="#0A0B0D" fill-rule="evenodd" d="M152 72.08a16 16 0 0 0 16-16h-32a16 16 0 0 0 16 16Zm-40 6.33a9.67 9.67 0 1 0 0 19.33 9.67 9.67 0 0 0 0-19.33Zm-11.67 9.67a11.67 11.67 0 1 1 23.34 0 11.67 11.67 0 0 1-23.34 0Z" clip-rule="evenodd"/><path fill="#0A0B0D" fill-rule="evenodd" d="M152 46.4a9.67 9.67 0 1 0 0 19.34 9.67 9.67 0 0 0 0-19.33Zm-11.67 9.68a11.67 11.67 0 1 1 23.34 0 11.67 11.67 0 0 1-23.34 0Z" clip-rule="evenodd"/><path fill="#588AF5" d="M45 32h71.95c2.89 0 5.63.64 8.08 1.8A51.02 51.02 0 0 0 77 0H44v.08H32v32h13V32Z"/></svg>