<svg xmlns="http://www.w3.org/2000/svg" fill="none" viewBox="0 0 240 120"><path fill="#ECD069" d="M208 60a59.997 59.997 0 0 0-60-60 60 60 0 0 0-60 60zM32 60a59.998 59.998 0 0 0 102.426 42.426A60 60 0 0 0 152 60z"/><path fill="#464B55" d="M32 0h56v60H32zm120 60h56v60h-56z"/><path fill="#578BFA" d="M152 108c0-15.464 12.536-28 28-28s28 12.536 28 28v12h-56z"/><path fill="#578BFA" fill-rule="evenodd" d="M88 119.867V60H32a60 60 0 0 0 56 59.867" clip-rule="evenodd"/><path fill="#578BFA" d="M152 60c0 17.673-14.327 32-32 32S88 77.673 88 60s14.327-32 32-32 32 14.327 32 32"/><path fill="#578BFA" d="M145 60.5c0 13.531-10.969 24.5-24.5 24.5S96 74.031 96 60.5 106.969 36 120.5 36 145 46.969 145 60.5"/><path fill="#0A0B0D" fill-rule="evenodd" d="M120.5 83c12.426 0 22.5-10.074 22.5-22.5S132.926 38 120.5 38 98 48.074 98 60.5 108.074 83 120.5 83m0 2c13.531 0 24.5-10.969 24.5-24.5S134.031 36 120.5 36 96 46.969 96 60.5 106.969 85 120.5 85" clip-rule="evenodd"/><path fill="#0A0B0D" fill-rule="evenodd" d="M152.004 60c-.263-17.719-14.489-32-32-32s-31.737 14.281-32 32z" clip-rule="evenodd"/><path fill="#578BFA" d="M196 60c0 8.837-7.163 16-16 16s-16-7.163-16-16 7.163-16 16-16 16 7.163 16 16"/><path fill="#FFFFFF" fill-rule="evenodd" d="M195.998 59.754C195.867 51.03 188.754 44 180 44s-15.867 7.03-15.998 15.754zM57.03 10H40V8h17.03zm22.664 9.146H40v-2h39.694zm0 5.854H40v-2h39.694zM56 54H40v-2h16zm23.694-21H40v-2h39.694zm0 12H40v-2h39.694z" clip-rule="evenodd"/><path fill="#FFFFFF" fill-rule="evenodd" d="M42 31v13h-2V31zm38 0v14h-2V31zm-19 0v13h-2V31z" clip-rule="evenodd"/><path fill="#FFFFFF" fill-rule="evenodd" d="M80 39H41v-2h39z" clip-rule="evenodd"/><path fill="#578BFA" d="M119.999 85.6a24.798 24.798 0 0 0 17.536-42.336 24.797 24.797 0 0 0-38.156 3.758 24.8 24.8 0 0 0 20.62 38.578"/><path fill="#FFFFFF" fill-rule="evenodd" d="M134.888 83.083a26.8 26.8 0 0 1-33.839-3.332 26.8 26.8 0 1 1 33.839 3.332m-1.111-1.663A24.798 24.798 0 0 1 95.199 60.8a24.8 24.8 0 1 1 38.578 20.62" clip-rule="evenodd"/><path fill="#FFFFFF" d="M114.684 75.618a15.5 15.5 0 0 1 0-29.12 1.12 1.12 0 0 0 .666-.976v-1.447a.73.73 0 0 0-.659-.8.73.73 0 0 0-.374.061 18.61 18.61 0 0 0-12.952 17.722 18.6 18.6 0 0 0 12.952 17.722.73.73 0 0 0 .971-.365.73.73 0 0 0 .062-.374v-1.447a1.11 1.11 0 0 0-.666-.976"/><path fill="#FFFFFF" d="M126.795 64.742c0-3.617-2.201-4.836-6.458-5.42-3.147-.455-3.751-1.193-3.751-2.66s1.064-2.383 3.1-2.383c1.854 0 2.924.646 3.363 2.14a.79.79 0 0 0 .749.573h1.628a.724.724 0 0 0 .728-.842c-.516-2.361-2.108-3.782-4.603-4.227v-2.49a.776.776 0 0 0-.775-.775h-1.55a.774.774 0 0 0-.775.775v2.403c-3.1.434-5.058 2.48-5.058 5.104 0 3.395 2.066 4.712 6.386 5.296 2.939.48 3.776 1.116 3.776 2.785s-1.42 2.79-3.425 2.79c-2.702 0-3.617-1.183-3.922-2.718a.784.784 0 0 0-.759-.63h-1.767a.724.724 0 0 0-.718.842c.449 2.583 2.108 4.474 5.487 4.93v2.448a.77.77 0 0 0 .775.775h1.55a.777.777 0 0 0 .775-.775v-2.449c3.203-.506 5.244-2.718 5.244-5.492"/><path fill="#FFFFFF" d="M125.309 43.274a.73.73 0 0 1 .375.062 18.61 18.61 0 0 1 12.952 17.722 18.6 18.6 0 0 1-12.952 17.722.733.733 0 0 1-1.033-.74v-1.446a1.03 1.03 0 0 1 .666-.976 15.5 15.5 0 0 0 10.183-14.56 15.5 15.5 0 0 0-10.183-14.56 1.12 1.12 0 0 1-.666-.976v-1.447a.73.73 0 0 1 .658-.8"/></svg>