<svg xmlns="http://www.w3.org/2000/svg" fill="none" viewBox="0 0 240 120"><path fill="#45D9F5" fill-rule="evenodd" d="M196 12v20c6.627 0 12 5.373 12 12s-5.373 12-12 12v20h-24c0-6.627-5.373-12-12-12s-12 5.373-12 12h-16V56c6.627 0 12-5.373 12-12s-5.373-12-12-12V12h16c0-6.627 5.373-12 12-12s12 5.373 12 12z" clip-rule="evenodd"/><path fill="#ECD069" fill-rule="evenodd" d="M152 67.056A11.97 11.97 0 0 0 148 76h-16V56c6.627 0 12-5.373 12-12 0-6.624-5.368-11.995-11.991-12H152z" clip-rule="evenodd"/><path fill="#464B55" fill-rule="evenodd" d="M152 24H32v80h52v9c0 1.65-1.35 3-3 3H68v4h48v-4h-13c-1.65 0-3-1.35-3-3v-9h52zm-8 8H40v56h104z" clip-rule="evenodd"/><path fill="#FFFFFF" fill-rule="evenodd" d="M47 39h90v42H47zm2 2v38h86V41z" clip-rule="evenodd"/><path fill="#0A0B0D" fill-rule="evenodd" d="M32 95h120v2H32z" clip-rule="evenodd"/><path fill="#FFFFFF" d="M71 48c0-.5.4-1 1-1 .5 0 1 .5 1 1s-.5 1-1 1c-.6 0-1-.5-1-1m-8 0c0-.5.4-1 1-1 .5 0 1 .5 1 1s-.5 1-1 1c-.6 0-1-.5-1-1m-8 0c0-.5.4-1 1-1 .5 0 1 .5 1 1s-.5 1-1 1c-.6 0-1-.5-1-1"/><path fill="#578BFA" d="M132 24h20v43.056A11.97 11.97 0 0 0 148 76h-4V32h-12z"/></svg>