<svg xmlns="http://www.w3.org/2000/svg" fill="none" viewBox="0 0 240 120"><path fill="#464B55" d="M160 64H0v32h160V64Zm0-56H0v16h160V8Zm0 24H15v8h145v-8Z"/><path fill="#588AF5" d="M80 0h80v120H80V0Z"/><path fill="#FFFFFF" d="M90.194 108.192c-1.115 0-1.986.847-1.986 1.98s.849 1.972 1.986 1.972c1.136 0 2-.854 2-1.98 0-1.118-.849-1.972-2-1.972Zm.007 3.135c-.635 0-1.1-.493-1.1-1.155 0-.67.458-1.163 1.093-1.163.642 0 1.107.501 1.107 1.163s-.465 1.155-1.1 1.155Zm2.237-2.273h.553v3.016h.886v-3.804h-1.44v.788Zm-6.46-.045c.466 0 .835.287.975.714h.937c-.17-.912-.922-1.531-1.904-1.531-1.115 0-1.986.847-1.986 1.98s.85 1.972 1.986 1.972c.96 0 1.727-.618 1.897-1.538h-.93a.998.998 0 0 1-.967.721c-.643 0-1.093-.493-1.093-1.155 0-.67.443-1.163 1.085-1.163Zm23.29.795-.649-.096c-.31-.044-.532-.147-.532-.39 0-.264.288-.397.679-.397.429 0 .702.184.761.486h.856c-.096-.765-.686-1.214-1.594-1.214-.938 0-1.558.478-1.558 1.155 0 .647.406 1.023 1.225 1.14l.65.096c.318.044.495.169.495.405 0 .301-.31.426-.738.426-.525 0-.82-.213-.864-.537h-.871c.081.744.664 1.266 1.727 1.266.967 0 1.609-.442 1.609-1.2 0-.677-.465-1.03-1.196-1.14Zm-15.834-3.105a.548.548 0 0 0-.568.559c0 .324.243.559.568.559a.548.548 0 0 0 .569-.559.548.548 0 0 0-.569-.559Zm13 2.87c0-.824-.502-1.376-1.565-1.376-1.004 0-1.565.508-1.676 1.288h.879c.044-.302.28-.552.782-.552.451 0 .672.198.672.441 0 .317-.406.397-.908.449-.679.074-1.521.309-1.521 1.192 0 .684.51 1.126 1.322 1.126.635 0 1.033-.265 1.233-.685.029.375.31.618.701.618h.517v-.787h-.436v-1.714Zm-.871.956c0 .508-.443.883-.982.883-.332 0-.613-.14-.613-.434 0-.375.45-.478.864-.522.398-.037.62-.125.731-.295v.368Zm-4.702-2.333c-.495 0-.909.207-1.204.552v-2.082h-.886v5.408h.871v-.5c.296.36.717.574 1.219.574 1.062 0 1.867-.839 1.867-1.972s-.819-1.98-1.867-1.98Zm-.133 3.135c-.635 0-1.1-.493-1.1-1.155s.472-1.163 1.107-1.163c.642 0 1.092.494 1.092 1.163 0 .662-.465 1.155-1.099 1.155Zm-4.075-3.135c-.576 0-.953.236-1.174.567v-.493H94.6v3.804h.886v-2.067c0-.582.37-.994.915-.994.51 0 .827.361.827.883v2.178h.886v-2.244c0-.957-.494-1.634-1.461-1.634Zm18.034 1.855c0-1.089-.797-1.854-1.868-1.854-1.137 0-1.971.853-1.971 1.979 0 1.185.893 1.972 1.986 1.972.923 0 1.646-.545 1.831-1.317h-.923c-.133.338-.458.53-.894.53-.568 0-.996-.354-1.092-.972h2.931v-.338Zm-2.879-.295c.14-.529.539-.787.996-.787.502 0 .886.287.975.787h-1.971Zm32.257-4.91-1.577 7.308h-1.91l1.578-7.308h1.909Zm8.036 4.716 1.002-2.747.575 2.747h-1.577Zm2.132 2.592H156l-1.543-7.308h-1.632a.837.837 0 0 0-.487.147.903.903 0 0 0-.325.389l-2.864 6.772h2.004l.399-1.092h2.451l.23 1.092Zm-4.982-2.391c.006-1.93-2.695-2.037-2.675-2.901.007-.261.258-.542.813-.609.643-.061 1.3.053 1.882.328l.332-1.548a5.09 5.09 0 0 0-1.788-.321c-1.888 0-3.215.991-3.222 2.418-.014 1.052.948 1.641 1.672 1.99.745.355.995.589.988.911-.006.489-.595.703-1.144.716a3.99 3.99 0 0 1-1.963-.462l-.345 1.601a5.724 5.724 0 0 0 2.126.389c2.003-.007 3.317-.992 3.324-2.512Zm-7.908-4.917-3.093 7.308h-2.018l-1.523-5.835a.807.807 0 0 0-.142-.381.839.839 0 0 0-.312-.262 8.2 8.2 0 0 0-1.882-.623l.048-.214h3.249a.884.884 0 0 1 .887.744l.806 4.227 1.99-4.978 1.99.014Zm4.766-4.562h.704c.176-.02.352-.007.522.047.169.053.318.14.447.261a1.183 1.183 0 0 1 .385.931v.034c.007.174-.02.348-.088.515a1.249 1.249 0 0 1-.297.429 1.174 1.174 0 0 1-.454.261 1.137 1.137 0 0 1-.521.047h-.698v-2.525Zm.691 2.271c.135.013.277 0 .406-.047a1.06 1.06 0 0 0 .352-.214.893.893 0 0 0 .271-.744v-.027a.882.882 0 0 0-.271-.743.886.886 0 0 0-.352-.208.929.929 0 0 0-.406-.034h-.359v2.03h.359v-.013Zm1.943-2.271h1.557v.248h-1.232v.857h.988v.248h-.988v.918h1.299v.248h-1.624v-2.519Zm2.153 0h.805c.494 0 .86.154.86.657v.013a.521.521 0 0 1-.4.536c.386.087.535.274.535.603v.013c0 .476-.345.704-.88.704h-.914l-.006-2.526Zm.798 1.099c.393 0 .542-.134.542-.442v-.014c0-.288-.176-.402-.548-.402h-.474v.864h.48v-.006Zm.109 1.185c.386 0 .568-.16.568-.469v-.013c0-.308-.182-.462-.609-.462h-.542v.944h.583Zm1.469-2.284h.325v2.526h-.325v-2.526Zm1.597.248h-.778v-.248h1.875v.248h-.778v2.271h-.325v-2.271h.006Z"/><path fill="#464B55" d="M140 8.144h12v16h-12v-16Z"/><path fill="#0A0B0D" fill-rule="evenodd" d="M152 16.644h-12v-1h12v1Z" clip-rule="evenodd"/><path fill="#0A0B0D" fill-rule="evenodd" d="M144.5 8.144v16h-1v-16h1Zm4 0v16h-1v-16h1Z" clip-rule="evenodd"/><path fill="#44C28D" d="M160 39.517c13.255 0 24 10.745 24 24s-10.745 24-24 24-24-10.745-24-24 10.745-24 24-24Z"/><path fill="#0A0B0D" d="M160 39.517v48c-13.255 0-24-10.745-24-24s10.745-24 24-24Z"/><path fill="#FFFFFF" d="M178 63.517c0 9.941-8.059 18-18 18s-18-8.059-18-18 8.059-18 18-18 18 8.059 18 18Z"/><path fill="#0A0B0D" fill-rule="evenodd" d="m169.708 59.707-12.264 12.28-7.152-7.162 1.416-1.414 5.736 5.745 10.848-10.863 1.416 1.414Z" clip-rule="evenodd"/><path fill="#464B55" d="M160 96h79v24h-79V96Z"/><path fill="#45DAF6" d="M55.998 112c0-8.838 7.164-15.998 16.002-15.998-8.838 0-16.002-7.164-16.002-16.002 0 8.838-7.163 16.002-15.998 16.002 8.835 0 15.998 7.16 15.998 15.998Z"/><path fill="#588AF5" d="M40.227 96h31.546c-8.734-.121-15.775-7.238-15.775-16 0 8.762-7.041 15.879-15.771 16Z"/><path fill="#45DAF6" d="M215.998 80c0 8.838 7.164 15.998 16.002 15.998-8.838 0-16.002 7.164-16.002 16.002 0-8.838-7.163-16.002-15.998-16.002 8.835 0 15.998-7.16 15.998-15.998Z"/><path fill="#588AF5" d="M200.227 96h31.546c-8.734.121-15.775 7.238-15.775 16 0-8.762-7.041-15.879-15.771-16Z"/><path fill="#45DAF6" d="M64 32a8 8 0 0 1 8-8 8 8 0 0 1-8-8 8 8 0 0 1-8 8 8 8 0 0 1 8 8Z"/><path fill="#588AF5" d="M56.113 24h15.773A8 8 0 0 1 64 16a8 8 0 0 1-7.886 8Z"/><path fill="#44C28D" d="M227.999 60A8 8 0 0 1 236 52a8 8 0 0 1-8.001-8A8 8 0 0 1 220 52a7.999 7.999 0 0 1 7.999 8Zm-188-4c0-6.629 5.372-11.999 12-11.999-6.628 0-12-5.372-12-12.001 0 6.629-5.373 12.001-12 12.001 6.627 0 12 5.37 12 11.999Z"/><path fill="#588AF5" d="M36.944 40h6.11a11.957 11.957 0 0 1-3.056-8c0 3.074-1.154 5.877-3.054 8Z"/><path fill="#464B55" d="M160 0h80v8h-80V0Zm0 24h48v8h-48v-8Z"/></svg>