<svg xmlns="http://www.w3.org/2000/svg" fill="none" viewBox="0 0 240 120"><path fill="#588AF5" fill-rule="evenodd" d="m119.999 8 40 23.976V120H80V31.976zm-.001 16.154c2.209 0 4-1.788 4-3.994a3.997 3.997 0 0 0-4-3.993c-2.209 0-4 1.788-4 3.993a3.997 3.997 0 0 0 4 3.994" clip-rule="evenodd"/><path fill="#464B55" d="M208 0v120H32z"/><path fill="#0A0B0D" d="m80 87.271 79.999-54.544V120H80z"/><path fill="#464B55" d="m48 40.035 6.638-1.397L56.035 32l1.397 6.638L64 40.035l-6.568 1.397L56.035 48l-1.397-6.568zm-16 48 6.638-1.397L40.035 80l1.397 6.638L48 88.035l-6.568 1.397L40.035 96l-1.397-6.568z"/><path fill="#FFFFFF" d="M98.385 50.203c9.829-11.939 27.475-13.648 39.413-3.82 11.939 9.83 13.649 27.476 3.819 39.414s-27.475 13.648-39.413 3.82c-11.938-9.83-13.648-27.476-3.819-39.414"/><path fill="#0A0B0D" fill-rule="evenodd" d="M133.389 51.735c-8.982-7.396-22.26-6.11-29.655 2.873-7.396 8.983-6.11 22.26 2.873 29.656s22.26 6.11 29.656-2.873 6.109-22.26-2.874-29.656m1.271-1.544c-9.835-8.098-24.373-6.69-32.47 3.146-8.098 9.836-6.69 24.373 3.146 32.471s24.373 6.69 32.471-3.146 6.689-24.373-3.147-32.471M121 0v24h-2V0z" clip-rule="evenodd"/><path fill="#0A0B0D" fill-rule="evenodd" d="M136.943 55.01a.98.98 0 0 0 .175.707l1.627-1.162a1.02 1.02 0 0 1 .072 1.067 1.4 1.4 0 0 1-.168.248c-.081.094-.18.188-.269.269-.188.169-.458.39-.787.649a112 112 0 0 1-2.828 2.127c-2.395 1.759-5.737 4.15-9.457 6.785a2987 2987 0 0 1-22.414 15.689l-1.14-1.644a2954 2954 0 0 0 22.398-15.677c3.718-2.634 7.049-5.017 9.43-6.765a113 113 0 0 0 2.774-2.087q.48-.378.685-.563.079-.073.086-.082.004-.003.001 0-.006.006-.027.035a.9.9 0 0 0-.158.404" clip-rule="evenodd"/></svg>