<svg xmlns="http://www.w3.org/2000/svg" fill="none" viewBox="0 0 240 120"><path fill="#464B55" d="M32 88h24v16h128V88h24v32H32z"/><path fill="#44C28D" fill-rule="evenodd" d="M160 88H80V0h80z" clip-rule="evenodd"/><path fill="#0A0B0D" fill-rule="evenodd" d="M96 9h-8V7h8zm0 40h-8v-2h8zm56-40h-8V7h8zm0 40h-8v-2h8zM136 9h-24V7h24zm0 40h-24v-2h24zM87 15h18v10H87zm2 2v6h14v-6zm-2 14h18v10H87zm2 2v6h14v-6z" clip-rule="evenodd"/><path fill="#0A0B0D" fill-rule="evenodd" d="M87 23h18v10H87zm2 2v6h14v-6zm-2 30h18v10H87zm2 2v6h14v-6zm22-42h42v10h-42zm2 2v6h38v-6zm-2 14h42v10h-42zm2 2v6h38v-6z" clip-rule="evenodd"/><path fill="#0A0B0D" fill-rule="evenodd" d="M111 23h42v10h-42zm2 2v6h38v-6zm-2 30h42v10h-42zm2 2v6h38v-6zm15 31h-16V72h16z" clip-rule="evenodd"/><path fill="#578BFA" d="m120 104-16-16h32z"/></svg>