<svg xmlns="http://www.w3.org/2000/svg" fill="none" viewBox="0 0 240 120"><path fill="#ECD069" d="M208 80h-53.33l26.66-40L208 80h-53.33l26.66-40L208 80Z"/><path fill="#0A0B0D" d="M182.44 68.89h-2.22l-1.11-15.56h4.44l-1.1 15.56Zm-1.11 6.67a2.22 2.22 0 1 0 0-4.45 2.22 2.22 0 0 0 0 4.45Z"/><path fill="#464B55" d="M32 40h48V0H32v40Zm0 80h48V80H32v40Z"/><path fill="#588AF5" d="M80 120h76a12 12 0 0 0 12-12V12a12 12 0 0 0-12-12H80v120Z"/><path fill="#0A0B0D" fill-rule="evenodd" d="m168 60-13.33 20H168V60Zm-64 19h48v2h-48v-2Zm8 8h32v2h-32v-2Z" clip-rule="evenodd"/><path fill="#FFFFFF" fill-rule="evenodd" d="M72 71h16v2H72v-2Zm0 24h16v2H72v-2Zm0-80h16v2H72v-2Zm0-8h16v2H72V7Zm0 48h16v2H72v-2Zm0 8h16v2H72v-2Zm0 24h16v2H72v-2Zm0 16h16v2H72v-2Zm0 8h16v2H72v-2Zm0-88h16v2H72v-2Zm0 8h16v2H72v-2Zm0 15.03h16v2H72v-2Z" clip-rule="evenodd"/><path fill="#45DAF6" d="M128 64a24 24 0 1 0 0-48 24 24 0 0 0 0 48Z"/><path fill="#0A0B0D" d="M128 43a7.5 7.5 0 1 0 0-15 7.5 7.5 0 0 0 0 15Z"/><path fill="#0A0B0D" fill-rule="evenodd" d="M144.37 57.56A23.92 23.92 0 0 1 128 64c-6.52 0-12.43-2.6-16.75-6.81a17.74 17.74 0 0 1 33.12.37Z" clip-rule="evenodd"/></svg>