<svg xmlns="http://www.w3.org/2000/svg" fill="none" viewBox="0 0 240 120"><path fill="#464B55" d="M118 0v120h90V0h-90Z"/><path fill="#588AF5" d="M178 60c16.569 0 30 13.431 30 30 0 16.569-13.431 30-30 30-16.569 0-30-13.431-30-30 0-16.569 13.431-30 30-30Zm0-60c16.569 0 30 13.431 30 30 0 16.569-13.431 30-30 30-16.569 0-30-13.431-30-30 0-16.569 13.431-30 30-30Z"/><path fill="#ECD069" d="M62 0c16.569 0 30 13.431 30 30 0 16.569-13.431 30-30 30-16.569 0-30-13.431-30-30C32 13.431 45.431 0 62 0Z"/><path fill="#0A0B0D" fill-rule="evenodd" d="M82 30c0-11.046-8.954-20-20-20s-20 8.954-20 20 8.954 20 20 20 20-8.954 20-20Zm2 0c0-12.15-9.85-22-22-22s-22 9.85-22 22 9.85 22 22 22 22-9.85 22-22Z" clip-rule="evenodd"/><path fill="#588AF5" d="M118 120a29.996 29.996 0 0 0 27.716-18.519A29.998 29.998 0 0 0 118 60v60Z"/><path fill="#45DAF6" d="M118 60a29.994 29.994 0 0 0-21.213 8.787A30 30 0 0 0 118 120V60Z"/><path fill="#FFFFFF" d="m127.293 41.337 1.414 1.414 12.751-12.75-12.751-12.752-1.414 1.414 10.338 10.338H61.734v2h75.895l-10.336 10.336Z"/></svg>