<svg xmlns="http://www.w3.org/2000/svg" fill="none" viewBox="0 0 240 120"><path fill="#45DAF6" d="M88.83 78a36 36 0 1 1 62.34-36 36 36 0 0 1-62.34 36Z"/><path fill="#ECD069" d="M140.83 54a36 36 0 1 1 62.34-36 36 36 0 0 1-62.34 36Z"/><path fill="#464B55" d="M36.82 102a36 36 0 1 1 62.34-36 36 36 0 0 1-62.34 36Z"/><path fill="#588AF5" fill-rule="evenodd" d="M84.86 52.2A35.86 35.86 0 0 0 88.83 78a35.83 35.83 0 0 0 14.3 13.8A35.87 35.87 0 0 0 99.16 66a35.83 35.83 0 0 0-14.3-13.8Z" clip-rule="evenodd"/><path fill="#FFFFFF" fill-rule="evenodd" d="m128.46 72.26 5.17-19.28-19.28-5.16-.52 1.93 15.98 4.28-83.14 43.48.93 1.77 83.21-43.52-4.28 15.98 1.93.52Z" clip-rule="evenodd"/><path fill="#0A0B0D" fill-rule="evenodd" d="M172 8.43a27.57 27.57 0 1 0 0 55.15 27.57 27.57 0 0 0 0-55.15Zm0-2a29.57 29.57 0 1 0 0 59.15 29.57 29.57 0 0 0 0-59.15Z" clip-rule="evenodd"/><path fill="#0A0B0D" fill-rule="evenodd" d="m185.05 24.37-24.68 24.69-1.42-1.42 24.69-24.68 1.41 1.41Zm-4.63 21.77a2.93 2.93 0 1 0 0-5.86 2.93 2.93 0 0 0 0 5.86Zm4.93-2.93a4.93 4.93 0 1 1-9.86 0 4.93 4.93 0 0 1 9.86 0ZM163.6 31.73a2.93 2.93 0 1 0 0-5.86 2.93 2.93 0 0 0 0 5.86Zm4.92-2.93a4.93 4.93 0 1 1-9.86 0 4.93 4.93 0 0 1 9.86 0Z" clip-rule="evenodd"/></svg>