<svg xmlns="http://www.w3.org/2000/svg" fill="none" viewBox="0 0 242 125"><path fill="#464B55" d="M0 96.229h124.296v24.057H0z"/><path fill="#45D9F5" d="M0 52.124h160.063V88.21H0z"/><path fill="#44C28D" d="M96.228 44.11c0 4.43 3.59 8.019 8.02 8.019a8.02 8.02 0 0 0-8.02 8.02 8.02 8.02 0 0 0-8.018-8.02 8.02 8.02 0 0 0 8.018-8.019"/><path fill="#578BFA" d="M88.324 52.13h15.809a8.02 8.02 0 0 0-7.906 8.019 8.02 8.02 0 0 0-7.903-8.02"/><path fill="#464B55" d="M0 0h68.162v24.057H0z"/><path fill="#ECD069" d="M160.401 88.21V52.124c9.96 0 18.043 8.074 18.043 18.049 0 9.963-8.083 18.037-18.043 18.037"/><path fill="#578BFA" d="M160.382 88.21V52.124c-9.96 0-18.043 8.074-18.043 18.049 0 9.963 8.083 18.037 18.043 18.037"/><path fill="#FFFFFF" d="M145.968 70.168c7.973 0 14.432-6.462 14.432-14.435 0 7.973 6.463 14.435 14.436 14.435-7.973 0-14.436 6.463-14.436 14.433 0-7.97-6.459-14.433-14.432-14.433"/><path fill="#FFFFFF" d="M160.403 84.39V55.945c.114 7.875 6.532 14.224 14.435 14.224-7.903 0-14.321 6.348-14.435 14.221"/><path fill="#44C28D" d="M124.296 120.286V96.229c6.643 0 12.029 5.385 12.029 12.028s-5.386 12.029-12.029 12.029"/><path fill="#578BFA" d="M124.296 120.286V96.229c-6.643 0-12.029 5.385-12.029 12.029 0 6.643 5.386 12.028 12.029 12.028"/><path fill="#FFFFFF" d="M128.305 108.519a4.01 4.01 0 1 1-8.018 0 4.01 4.01 0 0 1 8.018 0"/><path fill="#45D9F5" d="M68.162 24.057V0c6.64 0 12.029 5.383 12.029 12.033 0 6.642-5.389 12.024-12.029 12.024"/><path fill="#578BFA" d="M68.162 24.057V0c-6.64 0-12.028 5.383-12.028 12.033 0 6.642 5.389 12.024 12.028 12.024"/><path fill="#578BFA" d="M68.162 24.057V0C61.52 0 56.134 5.385 56.134 12.029c0 6.643 5.385 12.028 12.028 12.028"/><path fill="#ECD069" d="M132.324 8.039c0 6.639 5.381 12.017 12.02 12.017-6.639 0-12.02 5.381-12.02 12.02 0-6.639-5.381-12.02-12.018-12.02 6.637 0 12.018-5.378 12.018-12.017"/><path fill="#FFFFFF" fill-rule="evenodd" d="m179.294 5.927 19.137 14.913 7.605 6.085 1.945 1.56.003.002a6.6 6.6 0 0 1 1.9 2.43l.004.01.109.252 2.053 4.499-.002.008 5.907 13.01 3.244 7.122 2.414 5.317-.001.007 2.703 5.96-20.419-17.497-5.226-4.486-.003-.004a3 3 0 0 0-.282-.222l-.27-.177-2.535-6.55-10.097-8.291-8.081-6.896c-4.617-3.942-5.22-10.87-1.354-15.556l.003-.004zm41.467 53.775-1.387-3.054-3.244-7.123h-.001l-6.189-13.633.001-.006-1.777-3.894-.109-.252a4.6 4.6 0 0 0-1.319-1.684l-.004-.004-9.549-7.643-17.59-13.708c-3.169 3.844-2.672 9.523 1.111 12.753l8.066 6.884 10.489 8.612 2.504 6.47q.118.094.215.179l.002.001 5.221 4.483z" clip-rule="evenodd"/><path fill="#FFFFFF" fill-rule="evenodd" d="m206.11.045 7.723 28.697.001.005.259.945.231.852 6.929 25.425-1.88.679-3.244-7.122-.001-.002-6.189-13.632.001-.006-1.777-3.894-.108-.252a4.6 4.6 0 0 0-1.32-1.684l-.004-.004-1.95-1.563-6.295-5.037-1.983-9.934A11.125 11.125 0 0 1 204.747.38zm-1.423 2.43a9.12 9.12 0 0 0-6.222 10.63l.001.007 1.843 9.23 5.726 4.583 1.945 1.56.003.002a6.6 6.6 0 0 1 1.9 2.43l.004.01.109.252 2.053 4.499-.002.008 4.004 8.818-3.662-13.436-.23-.848v-.003l-.259-.944-.002-.005z" clip-rule="evenodd"/><path fill="#FFFFFF" fill-rule="evenodd" d="m225.458 16.643-.921 46.776-2.004-.04.882-44.8c-4.465.203-8.193 3.668-8.643 8.224v.003l-.398 3.916 6.879 25.247-1.934.527-6.978-25.606.436-4.284v-.002c.589-5.945 5.759-10.375 11.72-10.019z" clip-rule="evenodd"/><path fill="#FFFFFF" fill-rule="evenodd" d="M200.334 44.856a5.93 5.93 0 0 0-4.163-1.154h-.002l-30.664 3.053q.093.615.269 1.189l.002.008a8.98 8.98 0 0 0 8.559 6.416h.009l-.014 1.003.014-1.003 16.96.246h.019l.011.001c.007 0 .08.007.156.02l.001-.002.025.005.067.013.223.045c.17.035.39.08.545.117 9.753 2.294 15.795 12.066 13.499 21.826-2.295 9.752-12.06 15.805-21.813 13.51l.459-1.952c8.674 2.041 17.361-3.341 19.402-12.018 2.043-8.683-3.333-17.374-12.006-19.415a19 19 0 0 0-.698-.146l-16.874-.245c-4.932-.027-9.118-3.314-10.465-7.847a10.8 10.8 0 0 1-.446-2.618l-.047-.951 32.606-3.25h.001a7.94 7.94 0 0 1 5.544 1.528c.185.124.34.254.466.364l.002.002 5.22 4.481 16.986 14.554.453.387c2.275 1.952 3.39 4.786 4.16 7.293l.009.028 6.873 28.245.002.005L242 123.981l-1.945.484-6.318-25.392-.001-.005-6.861-28.192c-.753-2.444-1.734-4.781-3.54-6.331h-.001l-.45-.385-16.988-14.556-5.224-4.485-.004-.003a3 3 0 0 0-.282-.223l-.027-.018z" clip-rule="evenodd"/><path fill="#FFFFFF" fill-rule="evenodd" d="M205.653 67.605c2.714 9.645-2.902 19.668-12.546 22.381a18.07 18.07 0 0 1-14.355-1.984c-3.057-1.861-6.93-1.734-9.885.298l-4.045 2.783 2.609 1.81c2.4 1.665 5.805 4.025 9.831 6.814 7.249 4.381 14.048 5.51 19.028 5.549a32 32 0 0 0 5.94-.492 22 22 0 0 0 1.613-.353 13 13 0 0 0 .506-.143l.021-.007h.003l1.151-.382 2.641 20.073-1.988.262-2.333-17.738c-.347.081-.767.171-1.254.26a34 34 0 0 1-6.316.524c-5.281-.041-12.457-1.241-20.077-5.854l-.026-.016-.025-.017c-4.038-2.797-7.452-5.164-9.858-6.833l-2.802-1.944-.999-.693.572-.824-.572.824-1.191-.827 6.435-4.427c3.598-2.475 8.324-2.637 12.064-.359l.002.001a16.07 16.07 0 0 0 12.767 1.766c8.578-2.414 13.573-11.329 11.159-19.909z" clip-rule="evenodd"/></svg>