<svg xmlns="http://www.w3.org/2000/svg" fill="none" viewBox="0 0 240 120"><path fill="#45DAF6" d="M208 12a4 4 0 0 0-4-4H36a4 4 0 0 0-4 4v96a4 4 0 0 0 4 4h168a4 4 0 0 0 4-4V12Z"/><path fill="#464B55" d="M128 0H48v8h80V0Z"/><path fill="#588AF5" d="M128 8H48v64h80V8Zm64 24h-48v80h48V32Z"/><path fill="#464B55" d="M192 112h-48v8h48v-8Z"/><path fill="#0A0B0D" fill-rule="evenodd" d="M96 85H48v-2h48v2Zm16 12H48v-2h64v2Z" clip-rule="evenodd"/><path fill="#45DAF6" fill-rule="evenodd" d="M111.64 72a25.46 25.46 0 0 0-47.28 0h47.28Z" clip-rule="evenodd"/><path fill="#45DAF6" d="M104 32a16 16 0 1 1-32 0 16 16 0 0 1 32 0Z"/><path fill="#FFFFFF" d="M180 56a12 12 0 1 1-24 0 12 12 0 0 1 24 0Z"/><path fill="#ECD069" d="M180 88a12 12 0 1 1-24 0 12 12 0 0 1 24 0Z"/><path fill="#0A0B0D" fill-rule="evenodd" d="m173.7 52.7-8.2 8.21-4.2-4.2 1.4-1.42 2.8 2.8 6.8-6.8 1.4 1.42Zm0 32-8.2 8.21-4.2-4.2 1.4-1.42 2.8 2.8 6.8-6.8 1.4 1.42Z" clip-rule="evenodd"/></svg>