<svg xmlns="http://www.w3.org/2000/svg" fill="none" viewBox="0 0 240 120"><path fill="#464B55" d="M80 8h8v8H32v104h128v-8h48V0H80v8Z"/><path fill="#588AF5" fill-rule="evenodd" d="M160 112H80V8h80v104Z" clip-rule="evenodd"/><path fill="#0A0B0D" fill-rule="evenodd" d="M96 55h48v2H96v-2Zm0 24h48v2H96v-2Zm0-16h48v2H96v-2Zm8 24h32v2h-32v-2Z" clip-rule="evenodd"/><path fill="#0A0B0D" fill-rule="evenodd" d="M150 26H90v76h60V26Zm-62-2v80h64V24H88Z" clip-rule="evenodd"/><path fill="#0A0B0D" fill-rule="evenodd" d="M96 71h48v2H96v-2Zm46-37H98v12h44V34Zm-46-2v16h48V32H96Z" clip-rule="evenodd"/><path fill="#FFFFFF" d="M120 85.71 109.72 96V65.14h20.57V96L120 85.71Z"/><path fill="#44C28D" d="m120 24 3.52 3.5 4.42-2.24 2.28 4.4 4.9-.75.79 4.9 4.9.79-.76 4.9 4.4 2.27-2.23 4.43 3.5 3.51-3.5 3.52 2.24 4.43-4.41 2.27.75 4.9-4.9.8-.78 4.89-4.9-.76-2.28 4.41-4.42-2.23-3.52 3.49-3.52-3.5-4.42 2.24-2.28-4.4-4.9.75-.79-4.9-4.9-.79.76-4.9-4.4-2.27 2.23-4.43-3.5-3.52 3.5-3.51-2.24-4.43 4.4-2.27-.74-4.9 4.89-.8.8-4.89 4.9.75 2.27-4.4 4.42 2.23L120 24Z"/><path fill="#FFFFFF" fill-rule="evenodd" d="M120 65.06a15.35 15.35 0 1 0 0-30.7 15.35 15.35 0 0 0 0 30.7Zm17.34-15.35a17.35 17.35 0 1 1-34.69 0 17.35 17.35 0 0 1 34.7 0Z" clip-rule="evenodd"/><path fill="#0A0B0D" fill-rule="evenodd" d="M129.74 45.2 117.6 57.35l-6.3-6.31 1.4-1.42 4.9 4.9 10.74-10.74 1.41 1.42Z" clip-rule="evenodd"/></svg>