<svg xmlns="http://www.w3.org/2000/svg" fill="none" viewBox="0 0 240 120"><path fill="#464B55" d="M80 8h8v8H32v104h128v-8h48V0H80v8Z"/><path fill="#588AF5" fill-rule="evenodd" d="M160 112H80V8h80v104Z" clip-rule="evenodd"/><path fill="#0A0B0D" fill-rule="evenodd" d="M96 55h48v2H96v-2Zm0 24h48v2H96v-2Zm0-16h48v2H96v-2Zm8 24h32v2h-32v-2Z" clip-rule="evenodd"/><path fill="#0A0B0D" fill-rule="evenodd" d="M150 26H90v76h60V26Zm-62-2v80h64V24H88Z" clip-rule="evenodd"/><path fill="#0A0B0D" fill-rule="evenodd" d="M96 71h48v2H96v-2Zm46-37H98v12h44V34Zm-46-2v16h48V32H96Z" clip-rule="evenodd"/><path fill="#FFFFFF" d="M120.001 85.714 109.715 96V65.143h20.571V96l-10.285-10.286Z"/><path fill="#44C28D" d="m119.999 24 3.519 3.492 4.426-2.233 2.273 4.405 4.9-.751.791 4.892 4.893.792-.751 4.9 4.405 2.273-2.233 4.425 3.492 3.52-3.492 3.518 2.233 4.426-4.405 2.273.751 4.9-4.893.791-.791 4.893-4.9-.751-2.273 4.405-4.426-2.233-3.519 3.492-3.518-3.492-4.426 2.233-2.274-4.405-4.899.75-.792-4.892-4.892-.791.751-4.9-4.405-2.273 2.233-4.426-3.492-3.519 3.492-3.518-2.233-4.426 4.405-2.274-.751-4.899 4.892-.792.792-4.892 4.899.75 2.274-4.404 4.426 2.233L119.999 24Z"/><path fill="#FFFFFF" fill-rule="evenodd" d="M119.998 65.06c8.475 0 15.346-6.87 15.346-15.346 0-8.475-6.871-15.346-15.346-15.346s-15.346 6.871-15.346 15.346c0 8.476 6.871 15.346 15.346 15.346Zm17.346-15.346c0 9.58-7.766 17.346-17.346 17.346s-17.346-7.766-17.346-17.346 7.766-17.346 17.346-17.346 17.346 7.766 17.346 17.346Z" clip-rule="evenodd"/><path fill="#0A0B0D" fill-rule="evenodd" d="m129.742 45.196-12.151 12.152-6.31-6.31 1.414-1.413 4.896 4.895 10.737-10.738 1.414 1.414Z" clip-rule="evenodd"/></svg>