<svg xmlns="http://www.w3.org/2000/svg" fill="none" viewBox="0 0 240 120"><path fill="#ECD069" d="M208 0H32v48h176z"/><path fill="#578BFA" d="M84 48a36 36 0 1 1 72 0z"/><path fill="#464B55" fill-rule="evenodd" d="M142.09 79.2c-4.71 6.12-9.89 17.11-10.1 24.8v4H108v-4c-.21-7.69-5.33-18.68-10-24.8l-5.12-6.66C88 66.25 84 56.42 84 50.69V48h8a28 28 0 1 0 56 0h8v2.69c0 5.73-4 15.56-8.81 21.85z" clip-rule="evenodd"/><path fill="#ECD069" d="M92 48a28 28 0 1 1 56 0z"/><path fill="#578BFA" d="M98 48a22 22 0 0 1 44 0z"/><path fill="#ECD069" d="M142 48a22 22 0 0 1-44 0z"/><path fill="#578BFA" d="M108 108a11.997 11.997 0 0 1 12-12 12 12 0 0 1 12 12z"/><path fill="#ECD069" d="M132 108c0 3.183-1.264 6.235-3.515 8.485a11.996 11.996 0 0 1-16.97 0A12 12 0 0 1 108 108z"/><path fill="#0A0B0D" d="M126.65 54.56 120 47.91l-6.65 6.65 1.41 1.44 4.24-4.26V108h2V51.74l4.24 4.26z"/><path fill="#FFFFFF" fill-rule="evenodd" d="m168 53.11 4 .1v-2.42l-4 .1-4 .11v2z" clip-rule="evenodd"/><path fill="#0A0B0D" fill-rule="evenodd" d="m154.721 18.85 2.89-2.76a45 45 0 0 0-1.7-1.7l-2.76 2.89-2.77 2.9c.5.46 1 .94 1.44 1.44zM121.109 4l.1-4h-2.42l.1 4 .11 4h2zM82.39 16.09c.55-.58 1.12-1.15 1.7-1.7l2.76 2.89 2.77 2.9q-.75.69-1.44 1.44l-2.9-2.77z" clip-rule="evenodd"/><path fill="#FFFFFF" fill-rule="evenodd" d="M68 52v-1.21l4 .1 4 .11v2l-4 .09-4 .1zm17.28 33.15-2.89 2.76c.55.58 1.12 1.15 1.7 1.7l2.76-2.89 2.77-2.9q-.75-.69-1.44-1.44zm67.871 1.57 2.76 2.89c.58-.55 1.15-1.12 1.7-1.7l-2.89-2.76-2.9-2.77c-.47.5-.94 1-1.44 1.44z" clip-rule="evenodd"/></svg>