<svg xmlns="http://www.w3.org/2000/svg" fill="none" viewBox="0 0 240 120"><g clip-path="url(#a)"><path fill="#464B55" d="M44 103.5c24.3 0 44-19.7 44-44s-19.7-44-44-44-44 19.7-44 44 19.7 44 44 44Z"/><path fill="#464B55" d="M152 32H72v56h80V32Zm87.999-32h-60.3v120h60.3V0Z"/><path fill="#0A0B0D" d="M179.699 104c24.301 0 44-19.7 44-44s-19.699-44-44-44c-24.3 0-44 19.7-44 44s19.7 44 44 44Z"/><path fill="#588AF5" d="M179.699 104c-24.3 0-44-19.7-44-44s19.7-44 44-44v88Z"/><path fill="#FFFFFF" d="M179.699 96c19.882 0 36-16.118 36-36s-16.118-36-36-36-36 16.118-36 36 16.118 36 36 36Z"/><path fill="#8E76FF" d="M43.8 88c15.5 0 28-12.5 28-28s-12.5-28-28-28-28 12.5-28 28 12.5 28 28 28Z"/><path fill="#FFFFFF" d="M43.8 35c13.8 0 25 11.2 25 25s-11.2 25-25 25-25-11.2-25-25 11.2-25 25-25Zm0-3c-15.5 0-28 12.5-28 28s12.5 28 28 28 28-12.5 28-28-12.5-28-28-28Z"/><path fill="#FFFFFF" fill-opacity=".6" d="M43.8 39v14.9L56 59.5 43.8 39Z"/><path fill="#FFFFFF" d="m43.802 39-12.2 20.5 12.2-5.6V39Z"/><path fill="#FFFFFF" fill-opacity=".6" d="M43.8 69.1v10.1l12.3-17.4-12.3 7.3Z"/><path fill="#FFFFFF" d="M43.802 79.3V69.1l-12.2-7.3 12.2 17.5Z"/><path fill="#FFFFFF" fill-opacity=".2" d="M43.8 66.8 56 59.5l-12.2-5.6v12.9Z"/><path fill="#FFFFFF" fill-opacity=".6" d="m31.602 59.5 12.2 7.3V53.9l-12.2 5.6Z"/><path stroke="#0A0B0D" stroke-width="2" d="M88 60h31.4m-6.798-6.8 6.8 6.8-6.8 6.8"/><path fill="#FFFFFF" stroke="#588AF5" stroke-width="2" d="M207.2 60.4c0 15.2-12.3 27.6-27.6 27.6-15.2 0-27.6-12.4-27.6-27.6 0-15.3 12.4-27.6 27.6-27.6 15.3 0 27.6 12.3 27.6 27.6Z"/><path fill="#588AF5" d="M179.602 38.3V54l12.9 5.9-12.9-21.6Z"/><path fill="#A5C1FD" d="m179.599 38.3-12.9 21.6 12.9-5.9V38.3Z"/><path fill="#588AF5" d="M179.602 70v10.6l12.9-18.3-12.9 7.7Z"/><path fill="#A5C1FD" d="M179.599 80.6V70l-12.9-7.7 12.9 18.3Zm.003-13.1 12.9-7.7-12.9-5.8v13.5Z"/><path fill="#CCDCFF" d="m166.699 59.9 12.9 7.7V54l-12.9 5.9Z"/></g><defs><clipPath id="a"><path fill="#FFFFFF" d="M0 0h240v120H0z"/></clipPath></defs></svg>