<svg xmlns="http://www.w3.org/2000/svg" fill="none" viewBox="0 0 240 120"><g clip-path="url(#a)"><path fill="#464B55" d="M240 0h-8v8h8zm0 112h-8v8h8zm-64-96H68v88h108z"/><path fill="#44C28D" d="M120.801 104c24.3 0 44-19.7 44-44s-19.7-44-44-44-44 19.7-44 44 19.7 44 44 44"/><path fill="#578BFA" d="M173.6 104c24.3 0 44-19.7 44-44s-19.7-44-44-44-44 19.7-44 44 19.699 44 44 44"/><path fill="#ECD069" d="M68 104c24.3 0 44-19.7 44-44S92.3 16 68 16 24 35.7 24 60s19.7 44 44 44"/><path fill="#FFFFFF" d="M68 24.8c19.4 0 35.201 15.8 35.201 35.2s-15.8 35.2-35.2 35.2S32.8 79.4 32.8 60 48.6 24.8 68 24.8"/><path fill="#8E76FF" d="M98.2 60c0-16.7-13.5-30.2-30.2-30.2S37.8 43.3 37.8 60 51.3 90.2 68 90.2 98.2 76.7 98.2 60"/><path fill="#FFFFFF" fill-opacity=".6" d="M67.1 38.3v16l13.2 6.1z"/><path fill="#FFFFFF" d="M67.1 38.3 53.9 60.4l13.2-6.1z"/><path fill="#FFFFFF" fill-opacity=".6" d="M67.1 70.8v10.9l13.2-18.8z"/><path fill="#FFFFFF" d="M67.1 81.7V70.8l-13.2-7.9z"/><path fill="#FFFFFF" fill-opacity=".2" d="m67.1 68.3 13.2-7.9-13.2-6.1z"/><path fill="#FFFFFF" fill-opacity=".6" d="m53.9 60.4 13.2 7.9V54.4z"/><path fill="#0A0B0D" d="M147.2 24.8c10.7 8 17.6 20.8 17.6 35.2s-6.9 27.2-17.6 35.2c-10.7-8-17.6-20.8-17.6-35.2s6.9-27.2 17.6-35.2"/><path fill="#45D9F5" d="M182.402 60c0 14.4 6.9 27.2 17.6 35.2 10.7-8 17.6-20.8 17.6-35.2s-6.9-27.2-17.6-35.2c-10.7 8-17.6 20.8-17.6 35.2"/><path fill="#464B55" d="M8 0H0v8h8zm0 112H0v8h8z"/></g><defs><clipPath id="a"><path fill="#FFFFFF" d="M0 0h240v120H0z"/></clipPath></defs></svg>