<svg xmlns="http://www.w3.org/2000/svg" fill="none" viewBox="0 0 240 120"><path fill="#464B55" d="M220 79.202A43.8 43.8 0 0 1 200 84a43.8 43.8 0 0 1-20-4.798V95h40z"/><path fill="#84AAFD" d="M168 96h12v24h-12zm52 0h12v24h-12z"/><path fill="#578BFA" d="M180 96h40v24h-40z"/><path fill="#464B55" d="M220 79.202A43.8 43.8 0 0 1 200 84a43.8 43.8 0 0 1-20-4.798V95h40z"/><path fill="#45D9F5" d="M84 104h64v16H84z"/><path fill="#464B55" d="M0 112h64v8H0z"/><path fill="#0A0B0D" fill-rule="evenodd" d="M148 105H84v-2h64zm-84 8H0v-2h64zm168-8h-64v-2h64zm-84 8H84v-2h64zm84 0h-64v-2h64zm0-16h-64v-2h64z" clip-rule="evenodd"/><path fill="#84AAFD" d="M240 40c0 22.091-17.909 40-40 40s-40-17.909-40-40 17.909-40 40-40 40 17.909 40 40"/><path fill="#578BFA" fill-rule="evenodd" d="M180 74.649V40h40v34.649A39.8 39.8 0 0 1 200 80a39.8 39.8 0 0 1-20-5.351" clip-rule="evenodd"/><path fill="#45D9F5" d="M200 8v64l20-32z"/><path fill="#FFFFFF" d="M200 8v64l-20-32z"/><path fill="#578BFA" d="M200 29.4v24L180 40z"/><path fill="#0A0B0D" d="M200 29.4v24L220 40z"/><path fill="#8E76FF" d="M240 40c0-22.12-17.881-40-40-40s-40 17.88-40 40 17.881 40 40 40 40-17.88 40-40"/><path fill="#FFFFFF" fill-opacity=".6" d="M198 11v21.72L216 41z"/><path fill="#FFFFFF" d="m198 11-17 30 17-8.28z"/><path fill="#FFFFFF" fill-opacity=".6" d="M198 54.505V69l18-25z"/><path fill="#FFFFFF" d="M198 69V54.505L181 44z"/><path fill="#FFFFFF" fill-opacity=".2" d="m198 52 18-11.286L198 32z"/><path fill="#FFFFFF" fill-opacity=".6" d="M181 40.633 198 52V32z"/><path fill="#FFFFFF" d="M138 67a6 6 0 1 1-12 0 6 6 0 0 1 12 0M78 55a6 6 0 1 1-12 0 6 6 0 0 1 12 0M22 88a6 6 0 1 1-12 0 6 6 0 0 1 12 0m41 1v5h2v-5h5v-2h-5v-5h-2v5h-5v2z"/><path fill="#45D9F5" d="m128 12 2.122 9.878L140 24l-9.878 2.122L128 36l-2.122-9.878L116 24l9.878-2.122z"/><path fill="#FFFFFF" d="m157.918 52.892-26.231 12.001-59.614-11.522-56.8 31.95 2.452 4.358 55.2-31.05 59.386 11.478 27.347-12.512a44 44 0 0 1-1.74-4.703"/></svg>