<svg xmlns="http://www.w3.org/2000/svg" fill="none" viewBox="0 0 240 120"><g clip-path="url(#a)"><path fill="#45D9F5" d="M160.1 16H80v88h80.1z"/><path fill="#464B55" d="M79.9 0H32v16h47.9zm.1 104H32v16h48zM208 0h-56.1v16H208zm0 104h-56.1v16H208z"/><path fill="#578BFA" d="M160.1 0H80v16h80.1z"/><path fill="#0A0B0D" d="M120.1 10c1.4 0 2.5-1.1 2.5-2.5S121.4 5 120.1 5c-1.4 0-2.5 1.1-2.5 2.5s1.1 2.5 2.5 2.5"/><path fill="#578BFA" d="M160.1 104H80v16h80.1z"/><path fill="#0A0B0D" d="M115 110.3h10c1.4 0 2.5 1.1 2.5 2.5s-1.1 2.5-2.5 2.5h-10c-1.4 0-2.5-1.1-2.5-2.5s1.2-2.5 2.5-2.5M93.64 51.73V33.64h18.641v-2h-20.64v20.09zm34.29-18.09h18.43v18.09h2V31.64h-20.43zm-15.649 52.72h-18.64V67.38h-2v20.98h20.64zm34.079-18.98v18.98h-18.43v2h20.43V67.38zm-25.819-10.37a5.98 5.98 0 1 0 0-11.96 5.98 5.98 0 0 0 0 11.96m-15.512 17.68c0-8.57 6.94-15.51 15.51-15.51s15.51 6.94 15.51 15.51z"/></g><defs><clipPath id="a"><path fill="#FFFFFF" d="M0 0h240v120H0z"/></clipPath></defs></svg>