<svg xmlns="http://www.w3.org/2000/svg" fill="none" viewBox="0 0 240 120"><path fill="#464B55" d="M208 0 32 120h176z"/><path fill="#464B55" d="M72 60.321h96V120H72z"/><path fill="#578BFA" fill-rule="evenodd" d="M168 120V60.321h-48.471L72 92.727V120z" clip-rule="evenodd"/><path fill="#0A0B0D" fill-rule="evenodd" d="M151 120V88h2v32zm-32 0V88h2v32zm-32 0V88h2v32zm48 0V88h2v32zm-32 0V88h2v32z" clip-rule="evenodd"/><path fill="#ECD069" d="M168 60c0 26.51-21.49 48-48 48S72 86.51 72 60s21.49-48 48-48 48 21.49 48 48"/><path fill="#44C28D" d="M48 32C48 14.327 62.327 0 80 0s32 14.327 32 32-14.327 32-32 32-32-14.327-32-32"/><path fill="#FFFFFF" d="M61.054 32.031C71.34 35.193 77.401 45.424 80 58.383c2.599-12.96 8.66-23.19 18.945-26.352.055 0 .055-.062 0-.062C88.66 28.807 82.597 18.576 80 5.617c-2.598 12.96-8.66 23.19-18.945 26.352-.054 0-.054.062 0 .062"/><path fill="#0A0B0D" fill-rule="evenodd" d="M120 98c20.987 0 38-17.013 38-38s-17.013-38-38-38-38 17.013-38 38 17.013 38 38 38m0 2c22.091 0 40-17.909 40-40s-17.909-40-40-40-40 17.909-40 40 17.909 40 40 40" clip-rule="evenodd"/><path fill="#578BFA" fill-rule="evenodd" d="M106.425 13.947A31.86 31.86 0 0 1 112 32c0 17.673-14.327 32-32 32-2.729 0-5.378-.342-7.907-.984A49 49 0 0 1 72 60c0-21.795 14.526-40.197 34.425-46.053" clip-rule="evenodd"/><path fill="#45D9F5" fill-rule="evenodd" d="M87.933 24.282A48.1 48.1 0 0 0 74.81 43.776c2.383 4.168 4.094 9.145 5.189 14.607 2.598-12.96 8.66-23.19 18.945-26.352.054 0 .054-.062 0-.062-4.436-1.364-8.085-4.042-11.011-7.687" clip-rule="evenodd"/></svg>