<svg xmlns="http://www.w3.org/2000/svg" fill="none" viewBox="0 0 240 120"><path fill="#ECD069" fill-rule="evenodd" d="M120 108v12H0V60h72c0 26.51 21.49 48 48 48Z" clip-rule="evenodd"/><path fill="#464B55" fill-rule="evenodd" d="M240 0H120v12c26.51 0 48 21.49 48 48h72V0Z" clip-rule="evenodd"/><path fill="#464B55" fill-rule="evenodd" d="M180 60c0 33.137-26.863 60-60 60S60 93.137 60 60 86.863 0 120 0s60 26.863 60 60Zm-60 48c26.51 0 48-21.49 48-48s-21.49-48-48-48-48 21.49-48 48 21.49 48 48 48Z" clip-rule="evenodd"/><path fill="#588AF5" d="m168.853 17.31-6.452-6.453-11.292 11.292 6.453 6.452 11.291-11.291Z"/><path fill="#0A0B0D" d="m174 22.5 6-6.5-16-16-6.5 6.5 16.5 16Z"/><path fill="#588AF5" d="M96.346 83.654a33.452 33.452 0 0 0 47.308-47.308L120 60 96.346 83.654Z"/><path fill="#ECD069" d="M139.777 40c10.964 10.957 10.964 28.728 0 39.756-10.963 11.027-28.743 10.957-39.777 0L139.777 40Z"/><path fill="#464B55" d="M100.223 80c-10.964-10.957-10.964-28.728 0-39.756 10.963-11.027 28.743-10.957 39.777 0L100.223 80Z"/><path fill="#0A0B0D" fill-rule="evenodd" d="m150.707 31.414-30 30L119.293 60l30-30 1.414 1.414Z" clip-rule="evenodd"/><path fill="#0A0B0D" fill-rule="evenodd" d="M120 40c-11.046 0-20 8.954-20 20s8.954 20 20 20 20-8.954 20-20-8.954-20-20-20ZM98 60c0-12.15 9.85-22 22-22s22 9.85 22 22-9.85 22-22 22-22-9.85-22-22Z" clip-rule="evenodd"/><path fill="#0A0B0D" d="M125 60.5a4.5 4.5 0 1 1-9 0 4.5 4.5 0 0 1 9 0Z"/><path fill="#0A0B0D" fill-rule="evenodd" d="M118.731 18.019a42.418 42.418 0 0 1 2.538 0l-.237 7.996a34.717 34.717 0 0 0-2.064 0l-.237-7.996ZM89.418 31.212a42.229 42.229 0 0 1 1.793-1.794l5.485 5.825c-.499.47-.984.954-1.453 1.453l-5.825-5.484Zm72.563 27.519a41.2 41.2 0 0 1 0 2.538l-7.996-.237a35.348 35.348 0 0 0 0-2.064l7.996-.237ZM78 60c0-.425.006-.848.019-1.27l7.996.238a34.655 34.655 0 0 0 0 2.064l-7.996.237A42.505 42.505 0 0 1 78 60Zm72.582 28.788a42.191 42.191 0 0 1-1.794 1.794l-5.484-5.825c.499-.47.984-.954 1.453-1.453l5.825 5.484Zm-59.37 1.794a42.229 42.229 0 0 1-1.794-1.793l5.825-5.485c.47.499.954.984 1.453 1.453l-5.484 5.825ZM120 102c-.425 0-.848-.006-1.269-.019l.237-7.996a34.717 34.717 0 0 0 2.064 0l.237 7.996c-.421.013-.844.019-1.269.019Z" clip-rule="evenodd"/><path fill="#588AF5" fill-rule="evenodd" d="M180 60c0-33.137-26.863-60-60-60v12c26.51 0 48 21.49 48 48h12ZM72 60H60c0 33.137 26.863 60 60 60v-12c-26.51 0-48-21.49-48-48Z" clip-rule="evenodd"/></svg>