<svg xmlns="http://www.w3.org/2000/svg" fill="none" viewBox="0 0 240 121"><path fill="#464B55" d="M202.94 4.57A60.03 60.03 0 0 0 179.97 0v8.04h-.02v23.94A28.05 28.05 0 0 1 208 60.04h-28.05v36.05A36.05 36.05 0 0 0 216 60.04h10.15a46.18 46.18 0 0 1-46.19 46.18v13.85a60.03 60.03 0 0 0 22.98-115.5Z"/><path fill="#464B55" d="M179.95 36.04a24 24 0 1 1 0 48v-48Z"/><path fill="#588AF5" d="M179.95 88.09a28.06 28.06 0 0 0 0-56.1v56.1Z"/><path fill="#ECD069" d="M179.95 31.98a28.05 28.05 0 1 0 0 56.1v-56.1Z"/><path fill="#0A0B0D" fill-rule="evenodd" d="M188.27 80.13a21.75 21.75 0 0 1-8.32 1.65v-2a19.74 19.74 0 0 0 7.55-37.99l.39-.92-.39.92c-2.4-1-4.96-1.5-7.55-1.5v-2a21.75 21.75 0 0 1 8.32 41.84Z" clip-rule="evenodd"/><path fill="#0A0B0D" fill-rule="evenodd" d="M172.33 39.94a21.74 21.74 0 0 1 8.33-1.65v2a19.75 19.75 0 0 0-7.56 38l-.38.91.38-.92c2.4 1 4.96 1.5 7.56 1.5v2a21.74 21.74 0 0 1-8.33-41.84Z" clip-rule="evenodd"/><path fill="#464B55" d="M0 32.04v-32h56v32H0Z"/><path fill="#ECD069" d="M56 32.04a16 16 0 1 0 0-32v32Zm0-32a16 16 0 0 0 0 32v-32Z"/><path fill="#588AF5" d="M56 .04a16 16 0 0 0 0 32v-32Z"/><path fill="#464B55" d="M0 120.03v-32h128v32H0Z"/><path fill="#44C28D" d="M128 120.03a16 16 0 0 0 0-32v32Zm0-31.99a16 16 0 0 0 0 32v-32Z"/><path fill="#0A0B0D" fill-rule="evenodd" d="M132.91 115.9a12.9 12.9 0 0 1-4.91.97v-2a10.83 10.83 0 1 0 0-21.67v-2a12.83 12.83 0 0 1 4.91 24.7Z" clip-rule="evenodd"/><path fill="#0A0B0D" fill-rule="evenodd" d="M123.5 92.18c1.55-.65 3.22-.98 4.9-.98v2a10.84 10.84 0 0 0 0 21.67v2a12.83 12.83 0 0 1-4.9-24.7Z" clip-rule="evenodd"/><path fill="#0A0B0D" fill-rule="evenodd" d="M121.86 103.03h12.28v2h-12.28v-2Z" clip-rule="evenodd"/><path fill="#0A0B0D" fill-rule="evenodd" d="M127 110.17V97.9h2v12.27h-2Z" clip-rule="evenodd"/><path fill="#45DAF6" d="M216 16.04a8 8 0 0 0 16 0h-16Zm16 0a8 8 0 0 0-16 0h16Z"/><path fill="#44C28D" fill-rule="evenodd" d="M216.77 12.6a8.05 8.05 0 0 0-.77 3.44 8 8 0 0 0 11.42 7.23 60.06 60.06 0 0 0-10.65-10.66Z" clip-rule="evenodd"/><path fill="#FFFFFF" d="m99.25 27.5 1.41 1.41 12.75-12.75-12.75-12.75-1.41 1.41 10.34 10.34H72v2h37.58L99.25 27.5Zm24 43.87 1.41 1.42 12.75-12.76-12.75-12.75-1.41 1.42 10.34 10.34H0v2h133.59l-10.34 10.33Z"/></svg>