<svg xmlns="http://www.w3.org/2000/svg" fill="none" viewBox="0 0 240 121"><path fill="#464B55" d="M202.937 4.57A60.03 60.03 0 0 0 179.963 0v8.036h-.018v23.946a28.052 28.052 0 0 1 28.053 28.053h-28.053v36.053a36.052 36.052 0 0 0 36.053-36.053h10.146a46.178 46.178 0 0 1-13.526 32.655 46.181 46.181 0 0 1-32.655 13.526v13.854a60.03 60.03 0 0 0 55.465-37.06 60.036 60.036 0 0 0-32.491-78.44Z"/><path fill="#464B55" d="M179.945 36.035a24.003 24.003 0 0 1 22.173 14.816 23.983 23.983 0 0 1 0 18.368 24.007 24.007 0 0 1-12.988 12.99 24.003 24.003 0 0 1-9.185 1.826v-48Z"/><path fill="#588AF5" d="M179.945 88.088a28.057 28.057 0 0 0 25.918-17.318 28.067 28.067 0 0 0 0-21.47 28.055 28.055 0 0 0-25.918-17.318v56.106Z"/><path fill="#ECD069" d="M179.945 31.982a28.052 28.052 0 0 0 0 56.106V31.982Z"/><path fill="#0A0B0D" fill-rule="evenodd" d="M188.268 80.127a21.75 21.75 0 0 1-8.323 1.656v-2a19.75 19.75 0 0 0 18.245-12.191 19.755 19.755 0 0 0 0-15.115 19.739 19.739 0 0 0-10.687-10.687l.382-.924-.382.924a19.748 19.748 0 0 0-7.558-1.504v-2a21.752 21.752 0 0 1 20.093 13.426 21.746 21.746 0 0 1-11.77 28.415Z" clip-rule="evenodd"/><path fill="#0A0B0D" fill-rule="evenodd" d="M172.334 39.943a21.744 21.744 0 0 1 8.322-1.655v2a19.747 19.747 0 0 0-7.557 37.993l-.383.923.383-.923a19.749 19.749 0 0 0 7.557 1.503v2a21.742 21.742 0 0 1-15.378-6.37 21.756 21.756 0 0 1-6.37-15.378 21.747 21.747 0 0 1 13.426-20.093Z" clip-rule="evenodd"/><path fill="#464B55" d="M0 32.035v-32h56v32H0Z"/><path fill="#ECD069" d="M56 32.035a16 16 0 1 0 0-32v32Zm0-32a16 16 0 0 0 0 32v-32Z"/><path fill="#588AF5" d="M56 .035a16 16 0 0 0 0 32v-32Z"/><path fill="#464B55" d="M0 120.035v-32h128v32H0Z"/><path fill="#44C28D" d="M128 120.035a16.002 16.002 0 0 0 11.314-27.314A16.005 16.005 0 0 0 128 88.035v32Zm0-32a16 16 0 0 0 0 32v-32Z"/><path fill="#0A0B0D" fill-rule="evenodd" d="M132.911 115.891a12.833 12.833 0 0 1-4.911.977v-2a10.825 10.825 0 0 0 7.661-3.173 10.84 10.84 0 0 0 2.348-11.807 10.825 10.825 0 0 0-5.863-5.863 10.836 10.836 0 0 0-4.146-.824v-2a12.833 12.833 0 0 1 4.911 24.69Z" clip-rule="evenodd"/><path fill="#0A0B0D" fill-rule="evenodd" d="M123.495 92.18a12.835 12.835 0 0 1 4.911-.978v2a10.838 10.838 0 0 0-10.009 6.688 10.842 10.842 0 0 0 2.349 11.807 10.827 10.827 0 0 0 7.66 3.173v2a12.833 12.833 0 0 1-4.911-24.69Z" clip-rule="evenodd"/><path fill="#0A0B0D" fill-rule="evenodd" d="M121.863 103.035h12.273v2h-12.273v-2Z" clip-rule="evenodd"/><path fill="#0A0B0D" fill-rule="evenodd" d="M127 110.172V97.899h2v12.273h-2Z" clip-rule="evenodd"/><path fill="#45DAF6" d="M216 16.035a8 8 0 0 0 16 0h-16Zm16 0a8 8 0 0 0-16 0h16Z"/><path fill="#44C28D" fill-rule="evenodd" d="M216.772 12.606a8 8 0 0 0 4.167 10.82 7.994 7.994 0 0 0 6.484-.16 60.06 60.06 0 0 0-10.651-10.66Z" clip-rule="evenodd"/><path fill="#FFFFFF" d="m99.249 27.498 1.414 1.414 12.751-12.751L100.663 3.41l-1.414 1.414 10.338 10.338H72v2h37.585L99.249 27.498Zm24 43.874 1.414 1.414 12.751-12.751-12.751-12.751-1.414 1.414 10.338 10.338H0v2h133.585l-10.336 10.336Z"/></svg>