<svg xmlns="http://www.w3.org/2000/svg" fill="none" viewBox="0 0 240 120"><path fill="#FFFFFF" d="M197.433 31.43a24 24 0 0 0-.328-.874 22 22 0 0 0-.316-.829q-.179-.456-.365-.905a62 62 0 0 0-.349-.862 80 80 0 0 0-.742-1.707c-.126-.29-.251-.567-.382-.851a79 79 0 0 0-.797-1.68c-.136-.278-.267-.556-.409-.83a95 95 0 0 0-.85-1.657c-.148-.273-.29-.546-.442-.819a81 81 0 0 0-.9-1.62c-.153-.272-.311-.54-.464-.807a94 94 0 0 0-.965-1.593q-.027-.048-.06-.098-.212-.345-.431-.682a63 63 0 0 0-1.528-2.334 75 75 0 0 0-1.063-1.522q-.269-.376-.546-.753c-.365-.502-.742-.987-1.118-1.478h.006c-.142-.19-.284-.37-.426-.556q-.066-.098-.142-.186-.572-.734-1.162-1.445l-.021-.027a50 50 0 0 0-.464-.557c-.038-.043-.071-.087-.109-.13a60 60 0 0 0-1.216-1.408 20 20 0 0 0-.54-.616q-.04-.042-.071-.082c-.42-.464-.835-.917-1.255-1.364l-.322-.338c-.109-.11-.212-.224-.321-.333a60 60 0 0 0-1.299-1.32c-.016-.022-.038-.038-.054-.06-.202-.196-.409-.398-.611-.589-.175-.18-.355-.349-.529-.518h-1.593a83 83 0 0 1 3.933 3.905c.414.442.829.895 1.238 1.348.202.229.409.458.611.687a79 79 0 0 1 1.538 1.8l.24.29q.58.704 1.145 1.434c.191.234.382.48.562.72.377.485.742.97 1.102 1.467q.271.366.535.742.539.744 1.052 1.505l.224.328c.098.141.191.283.289.43q.507.761.998 1.539.215.335.42.67.033.057.066.104a82.5 82.5 0 0 1 7.723 16.265l1.031-.354q-.253-.73-.523-1.45m-139.19 84.463-.485-.535-.13-.147a99 99 0 0 1-1.206-1.375c-.197-.234-.398-.469-.59-.703a56 56 0 0 1-1.161-1.418q-.296-.36-.567-.72a47 47 0 0 1-1.113-1.457 35 35 0 0 1-.546-.736 48 48 0 0 1-1.058-1.495 18 18 0 0 1-.523-.752 57 57 0 0 1-1.01-1.528q-.252-.382-.496-.774a63 63 0 0 1-1.178-1.926 83 83 0 0 1-1.604-2.82 83 83 0 0 1-4.33-9.409 75 75 0 0 1-1.015-2.749h-.022l-1.009.355q.072.212.153.425a38 38 0 0 0 .643 1.745c.055.175.126.35.197.524.038.115.087.235.136.35q.334.869.693 1.728c.12.284.24.573.365.857a80 80 0 0 0 1.14 2.541q.395.842.813 1.675c.136.278.273.556.42.83a58 58 0 0 0 1.315 2.459c.294.546.6 1.08.916 1.615q.056.107.12.212.067.106.125.213l.23.377c.31.529.638 1.058.97 1.581q.247.393.502.786c.333.518.687 1.025 1.036 1.538h-.01q.26.391.529.775.516.767 1.074 1.51.272.378.551.748c.366.496.747.987 1.13 1.472l.283.366c.098.125.19.245.289.365h.005c.382.48.77.966 1.168 1.44a75 75 0 0 0 1.822 2.106q.317.351.627.687c.414.458.834.906 1.27 1.347q.075.09.164.18c.055.06.115.12.17.175q.147.155.31.311c.426.442.868.883 1.31 1.314l.043.044h1.576a85 85 0 0 1-4.041-4.107m120.098 1.669-.638.654.774.77c.218-.224.436-.442.649-.666zm1.876-2.007a83 83 0 0 1-.616.676l.802.742c.207-.229.414-.453.621-.687zm1.806-2.062c-.197.229-.393.463-.595.693l.829.714c.202-.234.398-.469.6-.704zm1.74-2.127q-.287.362-.573.714l.851.687c.191-.24.387-.48.578-.725zm1.663-2.177q-.269.37-.545.731l.872.66q.28-.375.551-.742zm1.593-2.236c-.175.251-.344.502-.524.753l.895.627c.174-.251.354-.507.529-.764zm1.516-2.28c-.163.256-.327.507-.496.763l.911.6q.254-.386.507-.78zm1.44-2.335q-.23.394-.469.78l.933.568q.237-.392.474-.791zm1.358-2.378c-.141.267-.294.529-.441.796l.949.535q.226-.4.452-.807zm1.282-2.422c-.136.273-.278.54-.414.813l.965.502q.214-.408.42-.824zm1.2-2.46c-.131.273-.262.551-.392.824l.987.469.393-.834zm1.113-2.503q-.18.423-.36.84l.998.436q.188-.419.366-.845zm1.031-2.537q-.162.426-.333.851l1.015.41c.114-.29.223-.579.338-.868zm.949-2.574s-.016.049-.027.076c-.088.262-.186.524-.278.786l.278.098.747.272q.155-.434.311-.878zm.862-2.608c-.093.29-.18.579-.278.868l1.041.338.279-.884zm-157.56-.572-1.042.316q.132.449.273.89l1.042-.328c-.093-.295-.18-.584-.273-.878m158.334-2.068c-.054.202-.114.41-.174.611-.022.093-.049.18-.077.273l.96.273.093.027c.082-.294.169-.594.251-.894zm-159.087-.572-1.053.278q.115.451.246.895l1.047-.29q-.124-.442-.24-.883m159.769-2.084c-.071.295-.142.595-.218.89l1.058.261q.116-.441.224-.9zm-160.434-.584-1.064.246q.106.456.213.905l1.063-.261c-.076-.295-.141-.59-.212-.89m161.029-2.1q-.088.451-.186.895l1.064.235c.065-.306.131-.606.191-.911zM38.22 76.294l-1.075.207c.06.305.12.606.186.911l1.069-.224a24 24 0 0 1-.18-.894m162.109-2.117q-.075.45-.158.9l1.074.197c.055-.306.109-.606.159-.911zm-162.594-.589-1.08.175c.049.305.103.61.152.916l1.075-.185c-.05-.3-.104-.6-.148-.906m163.009-2.121c-.044.3-.082.6-.131.905l1.08.158q.073-.456.131-.922zM37.336 70.87l-1.08.136q.056.466.12.922l1.08-.153c-.038-.3-.082-.605-.12-.905m163.729-2.138q-.04.459-.098.91l1.086.126.098-.927zm-164.029-.595-1.09.104.092.922 1.086-.115q-.048-.451-.088-.91M201.3 66l-.066.911 1.086.087c.022-.305.049-.616.071-.927zm-164.482-.6-1.085.071c.016.305.038.616.06.922l1.09-.076zm164.624-2.144q-.015.46-.038.911l1.09.055c.011-.311.028-.616.039-.927zm-164.744-.6-1.09.033.032.928 1.09-.044c-.015-.306-.021-.611-.032-.916m164.793-2.143q.002.457-.006.916l1.091.011q.007-.459.006-.927zm-165.916-.606v.928h1.09v-.922h-1.09zm166.974-2.181-1.091.032c0 .306.016.611.022.917l1.091-.022c-.006-.311-.017-.617-.022-.927m-166.914-.6-.033.921 1.09.028c.012-.306.017-.606.028-.911zm166.783-2.177-1.091.066q.031.457.055.916l1.085-.06zm-166.636-.605q-.034.459-.06.927l1.09.066q.027-.459.06-.917zm166.412-2.171-1.085.103c.027.306.06.606.082.911l1.091-.092c-.028-.306-.055-.617-.088-.922m-166.172-.6q-.048.456-.087.922l1.085.103c.027-.305.06-.61.087-.916zm165.862-2.166-1.086.142c.044.3.082.606.115.906l1.085-.126zm-165.53-.6c-.005.055-.016.115-.021.17l-.099.752 1.086.137.114-.89c.006-.005.006-.016.006-.021zm165.12-2.154-1.074.18q.075.45.142.9l1.08-.164q-.066-.457-.148-.916m-164.683-.595h-.011c-.038.246-.082.497-.126.742-.005.06-.016.115-.027.175l.164.027.916.147.055-.349c.032-.185.06-.37.093-.556zm164.187-2.143-1.069.218q.091.442.175.894l1.074-.201zm-163.68-.59c-.06.3-.125.606-.18.906l1.07.213.18-.9zm163.096-2.127-1.063.246c.071.3.136.594.202.894l1.063-.24q-.096-.45-.202-.9m-162.49-.589-.213.9 1.063.246.213-.89zm161.809-2.11-1.053.283q.121.442.234.884l1.053-.273q-.113-.451-.234-.895m-161.106-.584c-.01.027-.016.06-.022.087-.081.267-.147.534-.223.807l.458.12.594.158c.033-.109.06-.223.093-.332l.148-.551zM199.178 36.6c-.076-.256-.153-.518-.234-.774l-1.042.316c.082.267.163.545.245.818l.017.06 1.047-.31zM39.393 35.242c-.093.3-.18.595-.273.889l1.047.316q.13-.44.267-.872zm1.642-2.367-.011-.006-.753-.267c-.017.044-.033.093-.05.136q-.128.367-.25.742l1.03.35q.147-.436.3-.863zm.201-2.88c-.07.185-.136.365-.207.55-.038.104-.082.213-.12.317l1.02.382c.087-.23.18-.464.267-.698.022-.05.038-.104.06-.159zm1.053-2.57c-.125.284-.24.568-.36.851l1.004.42c.12-.278.24-.561.354-.84zm1.135-2.53q-.198.423-.388.84l.993.452c.125-.278.25-.55.382-.829zm1.216-2.488a38 38 0 0 0-.415.824l.977.485.409-.818zm1.304-2.454c-.153.273-.3.54-.442.813l.96.518c.141-.267.289-.535.436-.802zm1.38-2.406c-.159.268-.311.53-.47.797l.944.55q.228-.399.464-.79zm1.467-2.362q-.253.393-.496.786l.921.578q.246-.392.491-.774zm1.538-2.312-.524.769.906.605q.255-.376.518-.752zm1.62-2.258c-.185.25-.37.496-.55.747l.883.638.54-.736zm1.69-2.204c-.195.24-.38.485-.572.725l.862.671c.185-.24.376-.48.562-.72zm1.763-2.15q-.301.351-.595.71l.84.698q.287-.352.59-.703zm1.838-2.088-.622.687.818.726c.202-.23.404-.453.611-.682zm1.898-2.03-.638.672.79.747c.208-.218.42-.442.634-.66zM61.113.187q-.337.32-.666.649l.77.774q.318-.319.654-.638zM176.4 119.504q-.255.252-.518.496h.998z"/><path fill="#FFFFFF" d="M162.409 69.234a8.7 8.7 0 0 0 2.356 4.282 8.7 8.7 0 0 0-4.281 2.357 8.7 8.7 0 0 0-2.357-4.282 8.7 8.7 0 0 0 4.282-2.357M75.431 53.056a8.67 8.67 0 0 0-2.525-4.184 8.67 8.67 0 0 0 4.183-2.525 8.67 8.67 0 0 0 2.526 4.184 8.67 8.67 0 0 0-4.184 2.525"/><path fill="#578BFA" d="M162.093 49.904c-.109-.47-.224-.933-.36-1.396q-.066-.263-.147-.524a39 39 0 0 0-.944-2.902 44 44 0 0 0-1.451-3.485 8 8 0 0 0-.229-.486c-.076-.158-.153-.322-.234-.48-.082-.163-.159-.322-.24-.48a27 27 0 0 0-.366-.698 16 16 0 0 0-.3-.545q-.45-.828-.949-1.631c-7.773-12.737-21.791-21.23-37.795-21.23-19.57 0-36.174 12.71-42.005 30.328a43 43 0 0 0-1.642 6.682 44 44 0 0 0-.594 7.232c0 3.24.349 6.399 1.014 9.437.017.07.028.142.044.213.016.076.027.147.049.218q.016.106.049.212.098.444.213.879.009.055.027.12a46 46 0 0 0 .927 3.114q.172.514.36 1.02.375 1.016.791 2.007c.137.333.278.66.431.988s.3.654.458.976q.269.566.562 1.124.174.342.355.676.14.263.289.524.196.35.392.692l.491.819c7.768 12.73 21.786 21.229 37.789 21.229 18.955 0 35.128-11.924 41.428-28.68a43 43 0 0 0 1.909-6.595c.6-2.896.911-5.896.911-8.973a44 44 0 0 0-1.233-10.385"/><path fill="#578BFA" d="M78.868 69.725h-3.022l.049.213c.016.076.027.147.049.218q.016.106.049.213c.065.294.136.59.213.878q.009.055.027.12c.267 1.053.578 2.095.927 3.115q.172.513.36 1.02c.246.681.508 1.347.791 2.007q.203.498.431.987c.153.328.3.655.458.977q.269.565.562 1.123c.115.23.235.453.355.677q.14.262.289.523.195.351.392.693l.491.818V72.142a2.42 2.42 0 0 0-2.421-2.417m156.354-9.435h-7.375c0-2.035-.054-4.06-.169-6.066-1.102-19.975-7.62-38.537-18.109-54.224h8.749c9.698 15.91 15.687 34.326 16.735 54.027q.17 3.11.169 6.262M28.2 120h-8.71C8.983 102.54 2.934 82.107 2.934 60.29h7.374c0 22.035 6.59 42.561 17.891 59.71"/><path fill="#FFFFFF" d="M230.989 60.29h1.091v.572h-1.091zm-223.822 0v-.492h-1.09v.491zm207.66 57.965q.24-.387.469-.78l.944.556a37 37 0 0 1-.48.791zm1.514-2.571q.167-.29.33-.582l.955.534-.459.802-.949-.54zm1.214-2.18c.141-.268.289-.535.431-.802l.965.513q-.11.2-.218.403l-.218.404zm1.481-2.829.204-.406.976.486c-.136.272-.278.55-.414.823l-.971-.496zm1.006-2.048c.131-.272.262-.551.393-.823l.987.463q-.195.418-.398.835zm1.151-2.482q.19-.417.371-.834l.998.442c-.12.278-.246.562-.371.84zm1.26-2.907.185-.442 1.009.415-.177.425-.177.426-1.009-.426zm.867-2.143.327-.851 1.02.387q-.08.212-.162.422-.087.221-.17.44zm.971-2.569q.157-.427.305-.862l1.031.365a38 38 0 0 1-.316.873zm1.047-3.026q.073-.216.142-.433l1.042.339q-.147.434-.295.878l-1.031-.35zm.698-2.178c.093-.295.18-.584.268-.878l1.042.316q-.13.442-.268.884zm.775-2.635q.13-.442.245-.883l1.053.289-.245.889zm.826-3.095.112-.445 1.058.262c-.071.3-.147.595-.223.895l-1.058-.268q.057-.221.111-.444m.532-2.228q.106-.444.202-.895l1.064.235q-.097.456-.202.905zm.584-2.687q.091-.449.174-.897l1.075.213-.18.905-1.069-.218zm.513-2.697q.08-.45.152-.9l1.08.186-.085.488-.073.422zm.575-3.591.003-.02 1.08.153q-.065.457-.137.916l-1.074-.163q.063-.448.128-.887m.248-1.835.115-.911 1.08.13q-.05.46-.109.917zm.36-3.183.044-.455 1.085.103q-.02.23-.043.458l-.044.459-1.085-.11q.02-.228.043-.455m.202-2.283.065-.91 1.091.076-.004.057c-.02.287-.041.578-.067.865zm.202-3.197.022-.457 1.091.049-.022.463-.022.464-1.091-.06zm.101-2.743.013-.458 1.091.022-.013.464-.014.463-1.091-.032zM6.104 57.928c.005-.3.01-.606.022-.906l1.09.033c-.01.305-.016.605-.021.91h-.11l-.921-.021h-.06zm.12-3.393q.001-.14.01-.279l1.092.06q-.01.123-.011.246c-.017.224-.028.442-.033.665l-1.091-.049q.007-.317.033-.643m.158-2.583.033-.461 1.09.082q-.04.457-.07.916l-1.086-.076zm.234-2.762.044-.46 1.086.11-.042.43-.046.48-1.085-.103q.02-.228.043-.458m.246-2.296.114-.922 1.08.136-.051.433-.058.478zm.376-2.869q.057-.395.12-.797l1.08.164q-.072.449-.136.905l-1.08-.158zm.488-3.079q.038-.227.08-.456l1.074.191-.076.45-.077.45-1.08-.18q.042-.229.08-.456m.596-3.174v-.003l1.07.213q-.091.45-.175.9l-1.074-.207zm.383-1.814q.096-.45.201-.9l1.064.24-.1.448q-.053.222-.102.447zm.627-2.7q.107-.45.223-.9l1.059.273q-.058.221-.112.442l-.112.442zm.693-2.683c.081-.3.163-.595.25-.895l1.048.295-.246.883zm.914-3.173q.06-.192.116-.384l1.042.322-.13.44-.132.438-1.047-.31q.075-.255.152-.506m.677-2.14q.14-.443.29-.884l1.03.35-.142.433-.141.434zm.889-2.63.311-.872 1.026.371-.311.867zm.955-2.606q.17-.427.333-.862l1.02.398q-.134.335-.262.671l-.071.185zm1.02-2.569q.173-.426.354-.851l1.004.425q-.179.416-.349.84zm1.451-3.382.998.447q-.19.41-.37.83l-1-.437q.181-.425.372-.84m.769-1.675.393-.834.987.469q-.197.415-.393.823zm1.206-2.493q.202-.409.414-.818l.97.491-.408.818zm1.559-3.01.137-.257.96.518q-.107.201-.216.401l-.215.401-.96-.507q.146-.28.294-.556m1.026-1.871.458-.802.944.54-.224.398-.224.398zm1.385-2.4q.237-.4.475-.791l.932.562q-.118.195-.234.392-.116.196-.235.393zm191.9 117.328q.046-.07.089-.143l.3.191h-.42zM23.487 0h1.14l.11.07-.491.77-.922-.578zm136.506 98.062-.797-.742c9.442-10.156 14.646-23.394 14.646-37.276h1.091c0 14.154-5.302 27.654-14.935 38.018zM64.314 60.044h-1.09a55.74 55.74 0 0 1 14.569-37.62l.807.736a54.62 54.62 0 0 0-14.285 36.884"/><path fill="#464B55" d="M160.124 100.636a3.687 3.687 0 1 0 0-7.374 3.687 3.687 0 0 0 0 7.374"/><path fill="#E66020" d="M78.545 26.896a3.687 3.687 0 1 0 0-7.375 3.687 3.687 0 0 0 0 7.375m-37.832 63.54a3.687 3.687 0 1 0 0-7.374 3.687 3.687 0 0 0 0 7.374"/><path fill="#0A0B0D" d="M197.455 37.037a3.687 3.687 0 1 0 0-7.375 3.687 3.687 0 0 0 0 7.375"/><path fill="#FFFFFF" d="M156.873 37.271v10.21a2.423 2.423 0 0 0 2.422 2.423h2.803a43.9 43.9 0 0 0-5.22-12.633zm-36.469 77.52c-.306 0-.611.011-.917.016l.011 1.091.928-.016zm-3.649-.033-.044 1.091.927.033.028-1.091zm6.381-.098c-.305.022-.605.038-.91.06l.06 1.085q.465-.025.932-.06zm-9.114-.082-.098 1.086c.311.027.616.054.927.076l.082-1.091a55 55 0 0 1-.911-.071m11.836-.185q-.449.056-.905.103l.114 1.086q.468-.05.928-.109zm-14.552-.137-.153 1.08q.457.067.922.126l.136-1.08a42 42 0 0 1-.905-.126m17.263-.267-.9.147.169 1.08q.459-.072.917-.152zm-19.963-.185-.208 1.074q.458.089.917.169l.185-1.074c-.3-.055-.594-.109-.894-.169m22.647-.355-.895.196.224 1.064q.46-.09.911-.196zm-25.32-.229-.262 1.058c.3.077.605.147.905.213l.24-1.064a47 47 0 0 1-.883-.207m27.971-.442c-.295.082-.584.158-.878.24l.278 1.053.894-.246zm-30.611-.283-.317 1.047.895.262.3-1.053a25 25 0 0 1-.878-.256m33.229-.524q-.433.146-.867.284l.327 1.041c.3-.098.594-.191.889-.294zm-35.831-.327-.365 1.025c.294.104.583.207.878.306l.349-1.031c-.289-.099-.573-.202-.862-.3m38.416-.617q-.432.171-.856.333l.382 1.02c.289-.109.578-.224.867-.333zm-40.969-.365-.42 1.003c.29.12.573.235.862.35l.404-1.015a42 42 0 0 1-.846-.338m43.495-.698c-.278.125-.557.245-.84.371l.436.998.851-.377zm-45.988-.409-.469.981c.279.137.562.262.84.393l.453-.993c-.278-.125-.55-.256-.823-.381m48.459-.786q-.41.213-.818.409l.48.982q.417-.206.834-.42zm-50.897-.447-.518.96q.408.22.824.431l.496-.966zm53.302-.867-.796.452.529.949c.273-.147.545-.305.813-.458zm-55.674-.486-.568.933q.402.245.802.474l.546-.943q-.394-.228-.78-.464m58.009-.949-.769.491.578.927c.262-.169.523-.333.785-.502zm-60.317-.518-.605.905c.256.169.513.344.774.508l.59-.911c-.251-.169-.508-.333-.759-.502m62.575-1.031q-.367.268-.742.529l.622.895c.256-.175.507-.355.764-.54zm-64.8-.556-.655.878q.37.276.748.545l.638-.883q-.37-.263-.731-.54m66.982-1.102-.715.567.666.862q.37-.285.731-.578zm-69.131-.589-.698.84.72.589.687-.851q-.359-.285-.71-.578m71.225-1.179q-.344.304-.687.6l.709.83q.352-.302.704-.611zm-73.287-.621-.736.807.687.622.725-.818q-.342-.302-.676-.611m75.289-1.244c-.033.038-.071.07-.109.11l-.545.528.747.791c.207-.196.414-.393.611-.589l.06-.06zm-77.264-.655-.774.77q.326.327.66.654l.764-.78c-.219-.213-.431-.425-.65-.644m-1.87-1.99-.813.725c.207.23.414.464.627.687l.796-.742q-.31-.335-.61-.67m-1.779-2.09-.845.688c.109.13.218.267.327.398.087.109.175.213.262.322l.382-.322.458-.382c-.196-.229-.387-.463-.584-.704m-1.663-2.17-.884.643c.186.251.365.502.556.747l.868-.66c-.18-.24-.366-.485-.54-.73m-1.56-2.253-.911.594c.136.208.267.415.409.617.033.054.065.103.103.158l.906-.611c-.17-.25-.344-.507-.507-.758m-1.446-2.33-.943.552q.236.4.48.802l.932-.573a38 38 0 0 1-.469-.78m-1.325-2.4-.971.503c.147.278.289.55.442.823l.954-.518c-.142-.267-.283-.54-.425-.807m-1.206-2.465-.992.453q.194.427.398.846l.982-.47c-.131-.278-.262-.55-.388-.829m-1.08-2.525-1.014.403q.173.435.354.868l1.004-.42zm-.949-2.575-.736.251-.3.104.31.878 1.026-.365q-.154-.435-.3-.868m-.72-2.269c-.032-.114-.07-.229-.103-.349l-1.048.3.017.05.245.845 1.047-.317q-.083-.26-.158-.529m-.785-2.994-1.064.245c.071.3.142.606.218.906l1.058-.268q-.114-.442-.212-.883m-.551-2.684-1.075.19q.081.46.17.917l1.074-.212q-.089-.444-.17-.895m-.415-2.705-1.085.136c.038.31.082.616.125.927l1.08-.158c-.043-.3-.082-.605-.12-.905m-.283-2.722-1.086.082q.035.467.077.927l1.085-.104c-.027-.3-.049-.605-.076-.905m-.142-2.733-1.091.027q.008.467.033.933l1.09-.05a25 25 0 0 1-.032-.91M174.855 57.1l-1.09.055q.023.459.038.91l1.091-.038q-.015-.466-.039-.927m-.212-2.782-1.086.11.082.905 1.086-.093c-.022-.305-.055-.616-.082-.922m-.355-2.77-1.08.163q.074.449.131.906l1.08-.148c-.038-.31-.087-.616-.131-.922m-.491-2.75-1.069.219c.06.3.12.589.175.889h.027l1.047-.197zm-.627-2.721-1.058.272q.113.443.218.884l1.064-.251q-.108-.456-.224-.905m-.764-2.684-1.041.322.261.878 1.048-.311c-.088-.294-.175-.595-.268-.89m-.9-2.651-.343.125-.682.251q.157.427.305.862l1.031-.36q-.155-.443-.311-.878m-1.036-2.602-.813.344-.191.082q.051.114.093.229c.087.202.175.409.256.616L170.83 39q-.18-.436-.36-.862m-.845-1.87s0-.023-.011-.028a4 4 0 0 0-.082-.18q-.007-.009-.006-.01c-.071-.154-.141-.306-.218-.46l-.218.11h-.005l-.759.37c.131.274.268.546.393.825l.262-.126h.005l.699-.327.016-.011a1 1 0 0 0-.082-.164zm-1.61-3.159-.954.524c.147.267.294.54.436.807l.966-.513q-.22-.408-.448-.818m-1.412-2.416-.24.147-.049.033-.579.36-.01.01-.039.023h-.011s.006.016.011.021c.159.251.317.508.464.764l.535-.322.403-.24c-.158-.267-.322-.529-.485-.796m-1.058-1.642a30 30 0 0 0-.47-.698l-.9.622c.175.25.35.501.513.758l.829-.551.082-.055s-.033-.049-.054-.076m-2.111-2.956-.868.665c.186.24.366.485.551.73l.873-.648a87 87 0 0 0-.556-.747m-1.609-1.997c-.05-.06-.099-.114-.148-.174l-.207.174-.622.53c.197.234.387.463.584.703l.84-.693c-.147-.18-.295-.365-.447-.54m-2.008-2.258-.796.747c.213.218.414.442.622.671l.807-.736q-.312-.346-.633-.682m-1.958-1.99-.758.785q.328.318.649.638l.775-.77c-.224-.218-.442-.436-.666-.654m-76.87-.65c-.23.207-.454.425-.677.638l.332.344.426.442s.038-.033.055-.05c.201-.196.398-.387.605-.578zm74.814-1.238-.72.823.687.606.731-.807c-.235-.208-.464-.415-.698-.622m-72.726-.616c-.24.196-.474.403-.709.605l.72.824c.23-.202.458-.399.693-.595zm70.582-1.162-.676.856c.234.186.474.376.709.567l.693-.845c-.24-.197-.486-.387-.726-.578m-68.405-.59-.737.573.677.857q.36-.285.72-.562zm66.169-1.085-.628.89q.368.262.737.534l.649-.878a39 39 0 0 0-.758-.546m-63.906-.55c-.256.174-.507.354-.763.534l.632.889q.37-.263.748-.524zm61.598-1.01-.589.922q.387.244.764.496l.605-.91c-.261-.17-.518-.339-.78-.508m-59.252-.513q-.4.245-.791.497l.583.916c.262-.164.519-.327.78-.485zm56.869-.927-.54.95c.262.146.523.3.785.452l.557-.938q-.402-.236-.802-.464m-54.453-.48-.813.458.54.944q.395-.221.797-.442zm51.998-.84-.491.971q.404.206.808.42l.507-.965q-.408-.222-.824-.426m-49.51-.442c-.279.137-.562.273-.835.415l.49.976c.273-.142.546-.272.819-.409zm46.996-.752-.442.992.829.377.458-.988q-.419-.194-.845-.381m-44.45-.404c-.283.125-.572.245-.856.37l.442.999.84-.365zm41.875-.666-.393 1.015q.426.166.851.338l.409-1.009c-.289-.12-.572-.234-.867-.344m-39.267-.36-.878.328.392 1.02a54 54 0 0 1 .857-.322zm36.638-.583-.338 1.036.862.295.36-1.031c-.295-.098-.589-.202-.884-.3m-33.982-.311c-.3.093-.6.185-.894.284l.338 1.036.878-.278zm31.309-.491-.289 1.053c.295.076.589.163.878.245l.311-1.047q-.45-.13-.9-.251m-28.625-.267c-.3.082-.6.158-.9.24l.289 1.052q.434-.12.884-.234zm25.92-.404-.24 1.064c.3.065.594.136.889.202l.256-1.059c-.3-.07-.605-.141-.905-.207m-23.198-.213q-.452.092-.911.191l.234 1.064c.3-.066.595-.126.895-.186zm20.454-.321-.18 1.074c.3.055.6.104.895.158l.202-1.069a27 27 0 0 0-.917-.163m-17.705-.164-.917.147.18 1.075q.45-.075.9-.142zm14.945-.235-.131 1.086.906.114.147-1.08a60 60 0 0 0-.922-.12m-12.174-.109-.922.098.125 1.086q.448-.05.906-.098zm9.392-.147-.076 1.09q.46.033.911.072l.093-1.091c-.311-.027-.617-.05-.928-.071m-6.605-.06q-.467.023-.933.055l.071 1.09q.458-.03.917-.054zm3.818-.06-.022 1.09c.306 0 .611.017.911.028l.038-1.09c-.31-.012-.616-.017-.927-.028m-1.958 0 .016 1.09q.452-.006.911-.005v-1.09q-.468-.001-.927.005"/><path fill="#E66020" d="M180.262 24.093h-20.967a2.42 2.42 0 0 0-2.422 2.421v20.968a2.42 2.42 0 0 0 2.422 2.421h20.967a2.42 2.42 0 0 0 2.422-2.421V26.514a2.42 2.42 0 0 0-2.422-2.421"/><path fill="#0A0B0D" d="M178.964 43.838c.022.23.027.447.016.67a4.5 4.5 0 0 0-2.433-1.8l-.18-1.745c-1.325-8.929-7.641-10.058-8.89-10.194 1.058-1.08 2.765-1.702 4.314-1.271.218.06.431.136.627.23a4.55 4.55 0 0 0-1.974.992 4.27 4.27 0 0 1 4.053.562c-.622 0-1.233.136-1.795.387a4.22 4.22 0 0 1 2.869 1.036c.175.148.327.311.469.475a4.5 4.5 0 0 0-1.963-.011 4.24 4.24 0 0 1 2.89 1.522c.148.174.273.354.388.545a4.5 4.5 0 0 0-2.002-.333 4.26 4.26 0 0 1 2.585 2.03c.115.196.208.403.279.605a4.54 4.54 0 0 0-1.888-.687 4.27 4.27 0 0 1 2.411 3.049 4.6 4.6 0 0 0-1.543-.911 4.24 4.24 0 0 1 1.794 3.19 4.5 4.5 0 0 0-1.478-1.128 4.27 4.27 0 0 1 1.451 2.782z"/><path fill="#578BFA" d="M168.017 32.755a.7.7 0 0 0-.066.163l-.016.066a.4.4 0 0 1-.044.103q.026-.047.044-.103l.016-.066a.7.7 0 0 1 .066-.163m.37-.322a.4.4 0 0 0-.098.049c.033-.022.066-.033.098-.05"/><path fill="#FFFFFF" d="m172.898 38.17-.032-.163c-.017-.11-.044-.218-.066-.322a1 1 0 0 0-.022-.104q-.009-.057-.027-.114a.5.5 0 0 0-.022-.093c-.027-.098-.054-.202-.081-.294q-.04-.141-.088-.273.001-.016-.005-.022a6 6 0 0 0-.147-.41q-.024-.064-.055-.13a1 1 0 0 0-.055-.13q-.057-.133-.114-.257a1 1 0 0 1-.06-.12l-.066-.126c-.038-.076-.087-.158-.13-.234l-.066-.115c-.049-.076-.093-.153-.142-.224-.022-.038-.049-.076-.071-.109l-.076-.109a1 1 0 0 0-.076-.103 8 8 0 0 0-.404-.502c-.027-.033-.055-.06-.082-.093q-.172-.186-.354-.365c-.033-.028-.06-.06-.093-.088l-.093-.087a1 1 0 0 0-.093-.082c-.032-.027-.065-.06-.092-.081a3 3 0 0 0-.197-.164l-.196-.164q-.056-.034-.104-.076c-.032-.027-.071-.05-.103-.076-.066-.05-.137-.104-.208-.153a4 4 0 0 0-.212-.142l-.213-.147c-.044-.028-.098-.05-.142-.071l-.054-.017a.8.8 0 0 0-.251-.027c-.022 0-.038.006-.055.006-.016.005-.038.005-.054.01-.017.006-.039.011-.055.017a.1.1 0 0 0-.054.016.4.4 0 0 0-.099.05c-.016.005-.027.016-.043.027l-.049.032s-.028.022-.039.033c-.016.016-.027.027-.038.044a.64.64 0 0 0-.169.3l-.016.065s-.011.033-.017.044c0 .022-.016.038-.027.06-.022.032-.038.06-.065.082a.415.415 0 0 1-.677-.153l-.463-1.287-.322-.89-.153-.409c.017.05.027.093.044.142l.016.071q.002.025.011.05c.011.037.016.076.022.108.005.028.005.05.011.071 0 .011.005.027.005.038 0 .006.006.017.006.022 0 .038.005.071.005.104v.114s-.005.039-.011.06q.001.016-.005.033c0 .027-.011.05-.022.066q-.006.007-.005.016-.025.034-.05.06a.2.2 0 0 1-.076.038.34.34 0 0 1-.349-.093l-.016-.016s-.022-.027-.033-.038a.2.2 0 0 0-.027-.044l-.039.038-.01.017-.442.545-.464.578-1.429 1.784a.43.43 0 0 0-.087.376l.12.535-2.526 3.605c-.185.268-.256.6-.191.917l.077.398c.103.502.485.9.982 1.01l.632.146c.344.077.698.017.993-.174l.398-.262a.48.48 0 0 0 .218-.404v-.245l.802-2.138s.055.054.104.098c.12.104.327.267.6.398q.173.099.387.164a2.2 2.2 0 0 0 1.669-.13c.098-.045.186-.1.273-.148l.082-.055h.005c.044-.033.087-.06.131-.098a1 1 0 0 0 .082-.06c.011 0 .016-.017.027-.022.027-.022.06-.05.087-.076.028-.033.06-.06.093-.093l.06-.066c.022-.016.038-.038.06-.06q.024-.032.055-.065l.049-.066.049-.065q.074-.104.131-.202c.038-.07.076-.136.103-.207.071-.147.12-.295.159-.436.016-.066.032-.137.049-.202q.024-.099.032-.197.016-.096.022-.185a2 2 0 0 0 .011-.17q.001-.16-.005-.283V35.7h-.006a1 1 0 0 0-.022-.219h.006l.027.028q.009.001.017.01l.07.06a.1.1 0 0 0 .028.028l.022.022c.038.038.076.092.12.147.016.027.038.049.054.076a3 3 0 0 1 .126.208q.04.081.081.18a.04.04 0 0 1 .011.027.2.2 0 0 1 .022.049c.016.038.027.082.044.125l.005.033h.006c.016.06.032.115.043.18q.043.181.06.404.017.147.017.31c0 .295-.039.584-.099.862l-.065.251c0 .028-.016.05-.022.077l-.049.163-.016.044c-.006.01-.006.016-.011.027-.027.082-.06.164-.087.24-.022.05-.044.098-.066.153a6.5 6.5 0 0 1-.453.834q-.033.05-.06.099c-.032.054-.071.103-.103.147-.049.07-.093.136-.142.202q-.13.172-.251.322c-.082.103-.164.196-.235.278s-.141.152-.201.218l-.208.207c-.032.033-.06.055-.071.066-.005.005-.005 0-.005 0v.005l-.005.011s-.05.06-.077.087c-1.298 1.451-2.602 1.822-3.365 3.688h8.187l.24-.759c.475-2.694.524-4.772.245-6.42m-11.22 1.762-.174.24c-.076.093-.229.06-.251-.054l-.104-.535a.405.405 0 0 1 .191-.425.2.2 0 0 1 .098-.028c.06 0 .115.028.153.071l.077.099a.52.52 0 0 1 .01.632m3.306-5.253a.77.77 0 0 1-.753.279.77.77 0 0 1 .109-.797.77.77 0 0 1 .753-.272.76.76 0 0 1-.109.79m5.82 8.82-2.466.235c-.229.022-.349-.262-.174-.409.573-.496 1.211-.95 1.849-1.664a4.1 4.1 0 0 0 .845-1.483.125.125 0 0 1 .246.027l.06.66.093.95.092 1.02a.607.607 0 0 1-.545.664"/><path fill="#FFFFFF" d="M161.668 39.294a.52.52 0 0 1 .011.633l-.175.24a.137.137 0 0 1-.245-.055l-.104-.534a.4.4 0 0 1 .191-.426.2.2 0 0 1 .098-.027c.055 0 .115.027.153.07l.076.1zm2.563-4.341a.77.77 0 0 1 .104-.791.76.76 0 0 1 .752-.273.76.76 0 0 1-.103.79.77.77 0 0 1-.753.274m.551-2.542.458-.573v-.01l.459-.557-.459.567-.458.568zm1.429-1.986s-.016-.049-.022-.076v.022s.017.032.022.054m1.468 11.133-.006.006h.006zm.25-8.574a.4.4 0 0 1-.043.103q.025-.047.043-.103l.017-.066zm.458-.551a.4.4 0 0 0-.098.049c.033-.022.066-.033.098-.05m.966 3.344-.142-.17q.067.066.142.17m.284 2.782q.047-.164.087-.328a3 3 0 0 1-.087.328m.087-.332c.06-.279.098-.568.098-.862 0-.11 0-.213-.011-.311q.017.147.017.31 0 .444-.099.862zm-1.56 5.094c.572-.497 1.216-.95 1.854-1.664.409-.458.677-.982.84-1.489.044-.13.235-.11.251.027l.246 2.63a.603.603 0 0 1-.546.66l-2.465.234c-.224.022-.349-.262-.175-.41zm-2.029-4.636-.868.562-1.298.84.797-2.139c.087.087.605.59 1.363.737z"/><path fill="#0A0B0D" d="M166.331 31.08v.065q.001.034-.006.06v.033l-.032.065v.011s-.033.044-.055.06a.2.2 0 0 1-.076.044.33.33 0 0 1-.344-.093c-.005-.005-.011-.016-.016-.022q-.016-.023-.033-.038c-.022-.027-.033-.049-.033-.049-.022-.049-.507-1.118-.147-2.345 0 0 .185.376.371.84l.229.632v.022s.016.033.022.055q.023.075.038.141l.016.071q.002.025.011.05a1 1 0 0 1 .022.109l.016.103v.028a1 1 0 0 1 .011.098v.049zm-4.652 8.847-.175.24a.137.137 0 0 1-.245-.055l-.104-.534a.4.4 0 0 1 .191-.426.2.2 0 0 1 .098-.027c.055 0 .115.027.153.07l.076.1a.516.516 0 0 1 .011.632z"/><path fill="#578BFA" d="M169.822 37.364q0 .442-.098.862a3 3 0 0 1-.087.327l-.049.158c0 .016-.011.033-.017.05q-.048.137-.098.266-.033.073-.065.153a7 7 0 0 1-.448.84q-.033.05-.06.098l-.098.148q-.075.104-.142.201a8 8 0 0 1-.845.977l-.044.043-.076.071-.006.006h.006c.818-.993 1.004-2.226 1.02-3.006a.427.427 0 0 0-.66-.37l-.153.098c.049-.033.093-.06.137-.099.027-.021.054-.038.081-.06.011-.005.017-.016.028-.021.027-.022.06-.05.087-.077.033-.033.065-.06.093-.093q.033-.032.06-.065c.021-.022.038-.044.06-.065l.054-.066c.017-.022.038-.044.049-.065l.049-.066q.074-.096.131-.202c.038-.065.077-.136.104-.201.202-.431.262-.868.273-1.19a2.4 2.4 0 0 0-.033-.534l.033.022q.008 0 .016.016c.016.016.044.038.065.06l.028.027q.066.065.142.17l.054.076c.082.12.169.273.24.463.076.202.136.448.164.742q.016.148.016.311z"/><path fill="#0A0B0D" d="M164.984 34.68a.77.77 0 0 1-.753.273.77.77 0 0 1 .104-.791.76.76 0 0 1 .752-.273.76.76 0 0 1-.103.79"/><path fill="#FFFFFF" d="m161.509 28.849 3.273 3.562.911-1.14z"/><path fill="#578BFA" d="M172.653 44.59c.48-2.694.524-4.772.246-6.42a2 2 0 0 0-.028-.169c-.005-.038-.016-.076-.022-.114-.016-.071-.027-.142-.043-.208-.006-.032-.017-.065-.022-.103-.011-.038-.016-.077-.027-.115-.006-.032-.017-.06-.022-.093l-.082-.3-.082-.272v-.022q-.032-.066-.054-.13-.048-.142-.104-.274a2 2 0 0 0-.054-.13 1 1 0 0 1-.055-.132 8 8 0 0 0-.115-.25l-.06-.126c-.021-.038-.038-.082-.06-.12q-.065-.122-.13-.234l-.066-.115a3 3 0 0 0-.142-.224c-.022-.038-.049-.076-.071-.109-.021-.038-.049-.07-.076-.109q-.034-.055-.076-.103-.034-.048-.077-.104a6 6 0 0 0-.327-.398c-.027-.033-.055-.06-.082-.093a7 7 0 0 0-.354-.365c-.033-.033-.06-.06-.093-.088-.033-.032-.06-.06-.093-.087s-.06-.054-.093-.082c-.032-.027-.065-.06-.098-.082l-.196-.163q-.099-.084-.196-.158-.048-.043-.104-.077-.048-.042-.104-.076-.107-.081-.212-.153a3 3 0 0 0-.208-.142q-.107-.075-.212-.142a.6.6 0 0 0-.142-.07l-.049-.017a.8.8 0 0 0-.251-.027c-.017 0-.038 0-.055.005a.2.2 0 0 0-.054.011.1.1 0 0 0-.055.017c-.016 0-.033.01-.054.016a.4.4 0 0 0-.099.05.1.1 0 0 0-.043.026l-.049.033a.2.2 0 0 0-.039.033c-.016.01-.027.027-.038.038a.6.6 0 0 0-.098.136.6.6 0 0 0-.065.164l-.017.066a.4.4 0 0 1-.043.103.4.4 0 0 1-.06.082.42.42 0 0 1-.568.016c-.021-.021-.043-.043-.06-.076a.5.5 0 0 1-.043-.093l-.96-2.662a9 9 0 0 0-.229-.632c-.186-.464-.371-.84-.371-.84s1.042.48 1.674 1.87c0 0 .077 0 .218.017 1.255.136 7.566 1.27 8.891 10.194l.18 1.746.279 2.64h-4.413l.24-.758zM78.867 69.72H57.9a2.42 2.42 0 0 0-2.422 2.422v20.967a2.42 2.42 0 0 0 2.422 2.422h20.967a2.42 2.42 0 0 0 2.422-2.422V72.142a2.42 2.42 0 0 0-2.422-2.422"/><path fill="#464B55" d="M78.867 69.72H57.9a2.42 2.42 0 0 0-2.422 2.422v20.967a2.42 2.42 0 0 0 2.422 2.422h20.967a2.42 2.42 0 0 0 2.422-2.422V72.142a2.42 2.42 0 0 0-2.422-2.422"/><path fill="#FFFFFF" d="M61.211 75.458h14.34v14.34h-14.34z"/><path fill="#578BFA" d="m75.551 89.798 1.435 1.435v-17.21l-1.435 1.435z"/><path fill="#FFFFFF" d="m75.551 75.458 1.435-1.435h-17.21l1.435 1.435zm-14.34 14.34-1.434 1.435h17.209l-1.435-1.435z"/><path fill="#578BFA" d="m68.379 85.494-2.51-2.509-4.658 4.097v2.716h14.34V84.06l-2.869-2.87z"/><path fill="#464B55" d="m68.379 85.494-2.51-2.509-4.658 4.097v2.716h14.34V84.06l-2.869-2.87z"/><path fill="#578BFA" d="M66.95 79.222a1.968 1.968 0 1 1-3.937.001 1.968 1.968 0 0 1 3.936-.001"/><path fill="#464B55" d="M66.95 79.222a1.968 1.968 0 1 1-3.937.001 1.968 1.968 0 0 1 3.936-.001"/><path fill="#578BFA" d="m59.777 74.023 1.434 1.435v14.34l-1.434 1.43z"/><path fill="#FFFFFF" d="M61.211 75.458h14.34v14.34h-14.34z"/><path fill="#578BFA" d="m75.551 89.798 1.435 1.435v-17.21l-1.435 1.435z"/><path fill="#FFFFFF" d="m75.551 75.458 1.435-1.435h-17.21l1.435 1.435zm-14.34 14.34-1.434 1.435h17.209l-1.435-1.435z"/><path fill="#464B55" d="m68.379 85.494-2.51-2.509-4.658 4.097v2.716h14.34V84.06l-2.869-2.87zm-1.429-6.272a1.968 1.968 0 1 1-3.937.001 1.968 1.968 0 0 1 3.936-.001"/><path fill="#578BFA" d="m59.777 74.023 1.434 1.435v14.34l-1.434 1.43z"/><path fill="#464B55" d="M29.918 102.774a1.85 1.85 0 0 1-1.68-1.08 99 99 0 0 1-7.745-25.854 1.844 1.844 0 1 1 3.644-.567 95.5 95.5 0 0 0 7.461 24.894 1.847 1.847 0 0 1-1.674 2.613z"/><path fill="#578BFA" d="M143.045 36.23H95.111v47.934h47.934z"/><path fill="#578BFA" d="M107.094 40.839H99.72v47.934h7.374z"/><path fill="#0A0B0D" d="M107.094 84.284H99.72v.922h7.374z"/><path fill="#578BFA" d="M139.358 40.839h-7.375v47.934h7.375z"/><path fill="#0A0B0D" d="M119.17 46.593H96.954v4.424h22.216zm0 23.045H96.954v4.424h22.216z"/><path fill="#0A0B0D" d="M135.67 43.604h-33.185v33.185h33.185z"/><path fill="#FFFFFF" d="m128.32 50.277-19.258 19.258.772.772 19.258-19.258z"/><path fill="#FFFFFF" d="m109.834 50.274-.772.77 19.258 19.259.772-.772z"/><path fill="#0A0B0D" d="M98.569 39.688V80.71h41.023V39.688zM138.5 79.62H99.659V40.778h38.842z"/><path fill="#FFFFFF" d="M109.107 51.022s-.028.022-.033.038l.775.775q.367-.4.769-.775c.011-.01.027-.027.043-.038zm0 0s-.028.022-.033.038l.775.775q.367-.4.769-.775c.011-.01.027-.027.043-.038zm22.876 4.91a13.5 13.5 0 0 0-2.896-4.877c-.049-.055-.104-.11-.153-.164a2 2 0 0 0-.158-.158q-.058-.055-.115-.12l-.032-.033c-.104-.098-.208-.202-.317-.294a13.53 13.53 0 0 0-9.142-3.611h-.092a13.55 13.55 0 0 0-9.971 4.347q-.026.015-.033.038c-.775.83-1.44 1.757-1.98 2.76a13.55 13.55 0 0 0-1.631 6.47c0 2.34.589 4.543 1.631 6.468a13 13 0 0 0 1.98 2.766q.05.064.109.12.13.139.267.278.197.196.393.376a13.57 13.57 0 0 0 9.235 3.611h.092a13.56 13.56 0 0 0 9.142-3.61c.109-.093.213-.197.317-.295l.032-.033q.058-.064.115-.12c.054-.054.109-.103.158-.158s.104-.11.153-.164a13.6 13.6 0 0 0 2.896-4.882 13.6 13.6 0 0 0 .715-4.358c0-1.522-.251-2.989-.715-4.358m-3.671 12.823q-.375.4-.774.769a12.48 12.48 0 0 1-8.368 3.294h-.092a12.5 12.5 0 0 1-8.324-3.174c-.049-.038-.093-.082-.136-.12a14 14 0 0 1-.769-.775 12.44 12.44 0 0 1-2.755-4.838 12.2 12.2 0 0 1-.54-3.622c0-1.26.185-2.476.54-3.622a12.4 12.4 0 0 1 2.755-4.832q.367-.4.769-.775c.011-.01.027-.027.043-.038a12.48 12.48 0 0 1 8.417-3.256h.092a12.45 12.45 0 0 1 8.368 3.294q.399.369.774.77a12.48 12.48 0 0 1 3.295 8.46c0 3.256-1.249 6.234-3.295 8.465"/><path fill="#0A0B0D" d="M119.078 68.373a8.084 8.084 0 1 0 0-16.169 8.084 8.084 0 0 0 0 16.169"/><path fill="#FFFFFF" d="M127.156 59.967a8 8 0 0 0-.142-1.233c-.021-.098-.038-.196-.065-.3a7 7 0 0 0-.186-.66 8.1 8.1 0 0 0-1.385-2.558l-.164-.196s-.027-.033-.043-.05c-.033-.037-.071-.076-.104-.114q-.132-.145-.273-.283a6 6 0 0 0-.398-.371q-.132-.115-.273-.23a9 9 0 0 0-.572-.414 7 7 0 0 0-1.069-.6 6 6 0 0 0-.622-.262q-.189-.066-.377-.125a6 6 0 0 0-.425-.12c-.093-.028-.185-.044-.278-.066a5 5 0 0 0-.486-.087 5 5 0 0 0-.387-.049c-.109-.011-.213-.022-.322-.027-.12-.011-.245-.011-.365-.011-.049-.006-.093-.006-.142-.006s-.093 0-.142.006q-.19.001-.371.01a5 5 0 0 0-.311.028q-.188.017-.376.044a8 8 0 0 0-1.233.289q-.171.048-.343.114h-.006a6 6 0 0 0-.622.262 8.5 8.5 0 0 0-1.641 1.015q-.141.114-.273.229-.203.181-.398.37a12 12 0 0 0-.579.65c-.065.087-.13.169-.196.256q-.096.131-.185.262l-.164.245-.196.328a7.7 7.7 0 0 0-.644 1.462q-.106.31-.18.638-.04.163-.071.327-.098.49-.131 1.003c-.005.077-.011.148-.011.224-.011.104-.011.213-.011.322s0 .218.011.322c0 .076.006.147.011.223q.023.345.071.688.057.325.131.643c.098.431.235.851.404 1.25.032.081.071.163.109.245.234.513.523.998.856 1.445.06.088.131.17.196.257q.1.123.208.245c.12.136.24.273.371.398a8 8 0 0 0 .671.606c.169.13.343.262.523.387a8 8 0 0 0 1.298.71c.109.048.224.092.333.136l.229.081a7.7 7.7 0 0 0 2.52.448c.049.005.093.005.142.005s.093 0 .142-.005c.12 0 .245 0 .365-.011.109 0 .213-.017.322-.028.131-.01.256-.027.387-.049.164-.022.322-.049.486-.087.093-.022.185-.038.278-.065.142-.033.284-.077.425-.12q.148-.041.295-.099c.065-.021.125-.043.191-.07.109-.044.224-.088.333-.137q.165-.065.321-.147c.344-.164.666-.355.977-.562q.27-.189.523-.387a11 11 0 0 0 .273-.23q.203-.181.398-.37.141-.138.273-.284c.033-.038.071-.076.104-.114q.319-.368.589-.77l.163-.245c.06-.098.126-.202.18-.305.055-.088.099-.175.153-.268 0-.01.011-.022.017-.038l.13-.267a3 3 0 0 0 .131-.3c.082-.202.164-.404.229-.617l.082-.261q.057-.188.098-.377.04-.165.071-.322a8 8 0 0 0 .142-1.232c.011-.104.011-.213.011-.322s0-.218-.011-.322m-2.765 4.866a6.9 6.9 0 0 1-3.262 2.144c-.616.196-1.271.3-1.953.305q-.049.006-.098.005c-.033 0-.06 0-.093-.005a6.8 6.8 0 0 1-1.952-.3 6.9 6.9 0 0 1-2.493-1.38 6.9 6.9 0 0 1-2.427-4.767 5 5 0 0 1-.028-.546c0-.186.006-.366.028-.546a6.87 6.87 0 0 1 1.652-3.992c.235-.278.497-.54.775-.77a6.9 6.9 0 0 1 2.493-1.38 6.8 6.8 0 0 1 1.947-.3c.033 0 .065-.005.098-.005s.06 0 .093.006q1.024.01 1.958.305a6.9 6.9 0 0 1 3.262 2.144 6.85 6.85 0 0 1 1.658 3.992c.022.18.027.36.027.546 0 .185-.005.365-.027.545a6.88 6.88 0 0 1-1.658 3.999"/><path fill="#FFFFFF" d="M122.711 59.744a16 16 0 0 0-.197-2.117 11 11 0 0 0-.261-1.282c-.273-1.096-.66-2.034-1.124-2.738-.545-.829-1.205-1.336-1.909-1.396-.049-.006-.093-.006-.142-.006s-.093 0-.142.006c-.703.06-1.358.567-1.903 1.39-.464.704-.851 1.648-1.129 2.744-.104.41-.191.835-.257 1.288a16 16 0 0 0-.196 2.11c0 .18-.011.36-.011.546q.001.276.011.545c.022.737.087 1.446.196 2.117q.1.672.257 1.287c.278 1.096.665 2.04 1.129 2.744.545.823 1.2 1.33 1.903 1.39.049.006.093.006.142.006s.093 0 .142-.005c.704-.06 1.364-.568 1.909-1.397.464-.703.851-1.642 1.124-2.738q.163-.612.261-1.282.164-1.007.197-2.122c0-.18.011-.36.011-.545q-.002-.278-.011-.546m-1.167 2.241q-.073.712-.202 1.342c-.475 2.356-1.435 3.83-2.166 3.955q-.048.006-.098.005c-.033 0-.06 0-.093-.005-.469-.082-1.041-.737-1.483-1.724-.289-.638-.518-1.402-.682-2.236a13 13 0 0 1-.196-1.348q-.066-.556-.082-1.14c0-.18-.011-.36-.011-.545q.001-.278.011-.546a15 15 0 0 1 .278-2.481c.469-2.357 1.429-3.835 2.16-3.96.033 0 .065-.006.098-.006s.06 0 .093.006c.474.081 1.042.736 1.489 1.718.284.638.518 1.407.682 2.236.087.431.152.884.196 1.347q.066.558.082 1.14c0 .18.011.36.011.546q-.002.276-.011.545c-.011.399-.038.786-.076 1.151"/><path fill="#0A0B0D" d="M189.769 78.48a2.765 2.765 0 0 1 2.766-2.766h11.061a2.765 2.765 0 0 1 2.766 2.766v11.062a2.766 2.766 0 0 1-2.766 2.765h-11.061a2.766 2.766 0 0 1-2.766-2.765z"/><path fill="#FFFFFF" d="M192.142 85.194h2.367v4.74h-2.367zm4.74-2.372h2.373v7.112h-2.373zm4.74-2.367h2.373v9.48h-2.373zM131.983 20.15a6.16 6.16 0 0 1-6.163 6.157 6.164 6.164 0 0 1 6.163 6.164 6.163 6.163 0 0 1 6.159-6.164 6.155 6.155 0 0 1-6.159-6.158"/><path fill="#FFFFFF" d="M138.142 26.313a6.155 6.155 0 0 1-6.159-6.159 6.16 6.16 0 0 1-6.163 6.159z"/><path fill="#0A0B0D" d="M215.841 46.986c-.894 0-1.68-.65-1.821-1.56a96 96 0 0 0-3.235-13.86 95 95 0 0 0-4.227-11.03 1.846 1.846 0 0 1 .911-2.443 1.84 1.84 0 0 1 2.443.91 100 100 0 0 1 4.391 11.46 99 99 0 0 1 3.36 14.395 1.843 1.843 0 0 1-1.822 2.128"/><path fill="#578BFA" d="M62.847 22.429a1.86 1.86 0 0 1-.867-.327 1.85 1.85 0 0 1-.442-2.57 70 70 0 0 1 13.036-13.93 1.84 1.84 0 0 1 2.591.267c.644.79.524 1.953-.267 2.59a66.5 66.5 0 0 0-12.355 13.2 1.84 1.84 0 0 1-1.701.77z"/><path fill="#464B55" d="M162.218 115.5a1.843 1.843 0 0 1-.971-3.262 66.2 66.2 0 0 0 12.355-13.2 1.844 1.844 0 0 1 2.569-.442 1.85 1.85 0 0 1 .442 2.569 70.2 70.2 0 0 1-13.037 13.931 1.85 1.85 0 0 1-1.358.404"/><path fill="#FFFFFF" d="M112.625 101.558a5.53 5.53 0 0 1 5.531-5.531 5.53 5.53 0 0 1-5.531-5.53 5.53 5.53 0 0 1-5.531 5.53 5.53 5.53 0 0 1 5.531 5.531"/><path fill="#FFFFFF" d="M107.094 96.027a5.53 5.53 0 0 1 5.531 5.531 5.53 5.53 0 0 1 5.531-5.53zm20.073-36.284h-16.173v1.091h16.173z"/><path fill="#FFFFFF" d="M139.347 84.283h-7.375v.922h7.375z"/><path fill="#0A0B0D" d="M30.59 32.853a2.3 2.3 0 0 1 2.3-2.302h13.828a2.3 2.3 0 0 1 2.302 2.302V46.68c0 1.27-1.03 2.302-2.302 2.302H32.891a2.3 2.3 0 0 1-2.302-2.302z"/><path fill="#FFFFFF" d="M44.83 37.751a5.03 5.03 0 0 1-5.028 5.03 5.03 5.03 0 0 1-5.03-5.03 5.03 5.03 0 0 1 5.03-5.03 5.03 5.03 0 0 1 5.029 5.03"/><path fill="#FFFFFF" d="M34.778 38.002h10.058V46.8H34.778z"/><path fill="#0A0B0D" d="M39.049 36.998a.754.754 0 0 1-.753.753.754.754 0 0 1-.753-.753c0-.414.338-.753.753-.753s.753.339.753.753m3.016 0a.754.754 0 0 1-.752.753.754.754 0 0 1-.753-.753c0-.414.338-.753.752-.753.415 0 .753.339.753.753m-5.275 7.794h2.014v2.471H36.79zm4.02 0h2.014v2.471H40.81z"/><path fill="#0A0B0D" fill-rule="evenodd" d="M38.798 38.76a1.004 1.004 0 0 0 2.008 0h-2.013z" clip-rule="evenodd"/><path fill="#E66020" d="M231.535 67.876a7.374 7.374 0 0 0 7.374-7.375 7.375 7.375 0 1 0-7.374 7.375"/><path fill="#FFFFFF" d="M231.535 62.345a1.843 1.843 0 1 0 0-3.687 1.843 1.843 0 0 0 0 3.687"/><path fill="#0A0B0D" d="M6.622 65.575a5.531 5.531 0 1 0 0-11.062 5.531 5.531 0 0 0 0 11.062"/><path fill="#FFFFFF" d="M7.08 57.43h-.922v5.226h.922z"/><path fill="#FFFFFF" d="M9.234 59.58H4.01v.922h5.225z"/></svg>