<svg xmlns="http://www.w3.org/2000/svg" fill="none" viewBox="0 0 240 120"><path fill="#464B55" d="M36 0h168v120H36z"/><path fill="#ECD069" d="M240 36c0 19.882-16.118 36-36 36s-36-16.118-36-36 16.118-36 36-36 36 16.118 36 36"/><path fill="#578BFA" fill-rule="evenodd" d="M204 0v72c-19.882 0-36-16.118-36-36s16.118-36 36-36" clip-rule="evenodd"/><path fill="#0A0B0D" fill-rule="evenodd" d="M204 61.178c13.832 0 25.044-11.212 25.044-25.043S217.832 11.09 204 11.09c-13.831 0-25.043 11.213-25.043 25.044 0 13.83 11.212 25.043 25.043 25.043m0 2c14.936 0 27.044-12.108 27.044-27.043 0-14.936-12.108-27.044-27.044-27.044s-27.043 12.11-27.043 27.045S189.065 63.178 204 63.178" clip-rule="evenodd"/><path fill="#FFFFFF" d="M204.002 54.135c0-9.943-8.059-17.998-18.002-17.998 9.943 0 18.002-8.06 18.002-18.002 0 9.943 8.059 18.002 17.998 18.002-9.939 0-17.998 8.055-17.998 17.998"/><path fill="#45D9F5" d="M168 72h72v48h-72z"/><path fill="#578BFA" d="M168 72h36v48h-36z"/><path fill="#0A0B0D" fill-rule="evenodd" d="M240 89.135h-72v-2h72zm0 16h-72v-2h72z" clip-rule="evenodd"/><path fill="#44C28D" d="M156 52c0 19.882-16.118 36-36 36S84 71.882 84 52s16.118-36 36-36 36 16.118 36 36"/><path fill="#44C28D" d="M147.044 52c0 14.936-12.108 27.043-27.044 27.043S92.957 66.936 92.957 52 105.065 24.957 120 24.957c14.936 0 27.044 12.107 27.044 27.043"/><path fill="#0A0B0D" fill-rule="evenodd" d="M120 77.043c13.832 0 25.044-11.212 25.044-25.043S133.832 26.957 120 26.957c-13.831 0-25.043 11.212-25.043 25.043S106.169 77.043 120 77.043m0 2c14.936 0 27.044-12.107 27.044-27.043S134.936 24.957 120 24.957 92.957 37.064 92.957 52 105.065 79.043 120 79.043" clip-rule="evenodd"/><path fill="#578BFA" d="M84 88h72v32H84z"/><path fill="#0A0B0D" fill-rule="evenodd" d="M156 105.135H84v-2h72z" clip-rule="evenodd"/><path fill="#0A0B0D" d="M119 53v11h2V53h11v-2h-11V40h-2v11h-11v2z"/><path fill="#45D9F5" d="M72 68c0 19.882-16.118 36-36 36S0 87.882 0 68s16.118-36 36-36 36 16.118 36 36"/><path fill="#578BFA" fill-rule="evenodd" d="M36 104V32c19.882 0 36 16.118 36 36s-16.118 36-36 36" clip-rule="evenodd"/><path fill="#0A0B0D" fill-rule="evenodd" d="M36 94.135c14.36 0 26-11.64 26-26s-11.64-26-26-26-26 11.64-26 26 11.64 26 26 26m0 2c15.464 0 28-12.536 28-28s-12.536-28-28-28-28 12.536-28 28 12.536 28 28 28" clip-rule="evenodd"/><path fill="#FFFFFF" d="M45 68.135a9 9 0 1 1-18 0 9 9 0 0 1 18 0"/><path fill="#ECD069" d="M0 104h72v16H0z"/><path fill="#578BFA" d="M36 104h36v16H36z"/><path fill="#0A0B0D" d="M68.001 24c0-6.628-5.373-11.999-12.001-11.999 6.629 0 12.001-5.372 12.001-12.001 0 6.629 5.373 12.001 11.999 12.001-6.626 0-11.999 5.37-11.999 11.999"/></svg>