<svg xmlns="http://www.w3.org/2000/svg" fill="none" viewBox="0 0 240 120"><path fill="#464B55" d="M72 120h96V84c0-26.51-21.49-48-48-48S72 57.49 72 84z"/><path fill="#578BFA" d="M152 48.062c0-11.223 0-16.834 2.184-21.12a20.04 20.04 0 0 1 8.757-8.758C167.228 16 172.839 16 184.061 16h23.877c11.223 0 16.834 0 21.121 2.184a20.04 20.04 0 0 1 8.757 8.757C240 31.228 240 36.84 240 48.061V71.94c0 11.222 0 16.833-2.184 21.12a20.04 20.04 0 0 1-8.757 8.757C224.772 104 219.161 104 207.939 104h-23.877c-11.223 0-16.834 0-21.121-2.184a20.04 20.04 0 0 1-8.757-8.757C152 88.772 152 83.16 152 71.939z"/><path fill="#FFFFFF" d="M170.84 36.298c0-1.197.951-2.167 2.125-2.167h46.75c1.173 0 2.125.97 2.125 2.167v47.667c0 1.196-.952 2.166-2.125 2.166h-46.75c-1.174 0-2.125-.97-2.125-2.166z"/><path fill="#578BFA" d="M0 48.062c0-11.223 0-16.834 2.184-21.12a20.04 20.04 0 0 1 8.757-8.758C15.228 16 20.84 16 32.061 16h23.877c11.223 0 16.834 0 21.12 2.184a20.04 20.04 0 0 1 8.758 8.757C88 31.228 88 36.84 88 48.061V71.94c0 11.222 0 16.833-2.184 21.12a20.04 20.04 0 0 1-8.757 8.757C72.772 104 67.16 104 55.939 104H32.061c-11.223 0-16.834 0-21.12-2.184a20.04 20.04 0 0 1-8.758-8.757C0 88.772 0 83.16 0 71.939z"/><path fill="#FFFFFF" d="M43.557 75.75c-8.441 0-15.278-6.824-15.278-15.25s6.837-15.25 15.278-15.25c7.563 0 13.84 5.503 15.05 12.708H74C72.701 42.302 59.574 30 43.557 30 26.687 30 13 43.661 13 60.5S26.687 91 43.557 91C59.574 91 72.701 78.698 74 63.042H58.607c-1.21 7.205-7.487 12.708-15.05 12.708"/><path fill="#464B55" d="M96 0h48v60c0 13.255-10.745 24-24 24S96 73.255 96 60z"/><path fill="#578BFA" d="M144 42.422V60c0 13.255-10.745 24-24 24S96 73.255 96 60V42.422A47.8 47.8 0 0 1 120 36a47.8 47.8 0 0 1 24 6.422"/><path fill="#FFFFFF" d="M136 60c0 8.837-7.163 16-16 16s-16-7.163-16-16 7.163-16 16-16 16 7.163 16 16"/><path fill="#0A0B0D" fill-rule="evenodd" d="M110 60a5 5 0 0 1 5-5h4v2h-4a3 3 0 1 0 0 6h4v2h-4a5 5 0 0 1-5-5m20 0a5 5 0 0 0-5-5h-4v2h4a3 3 0 1 1 0 6h-4v2h4a5 5 0 0 0 5-5" clip-rule="evenodd"/><path fill="#0A0B0D" fill-rule="evenodd" d="M125 61h-10v-2h10z" clip-rule="evenodd"/></svg>