<svg xmlns="http://www.w3.org/2000/svg" fill="none" viewBox="0 0 240 120"><path fill="#464B55" d="M208 0H32v8h176V0Z"/><path fill="#464B55" d="M208 8H32v93h176V8Z"/><path fill="#588AF5" d="M192 8H47v93h145.5V8h-.5Z"/><path fill="#464B55" d="M192.5 101H47v19h145.5v-19Z"/><path fill="#FFFFFF" d="M80 32H32v16h48V32Z"/><path fill="#0A0B0D" fill-rule="evenodd" d="m46 39.29-.38-1.14-3.01 1V36h-1.2v3.15l-3.01-1-.38 1.14 3.03 1.01-1.88 2.6.98.71 1.86-2.59 1.87 2.59.98-.71-1.88-2.6 3.03-1.01H46Zm14 0-.38-1.14-3.01 1V36h-1.2v3.15l-3.01-1-.38 1.14 3.03 1.01-1.88 2.6.98.71 1.86-2.59 1.87 2.59.98-.71-1.88-2.6 3.03-1.01H60Zm14 0-.38-1.14-3.01 1V36h-1.2v3.15l-3.01-1-.38 1.14 3.03 1.01-1.88 2.6.98.71 1.86-2.59 1.87 2.59.98-.71-1.88-2.6 3.03-1.01H74Z" clip-rule="evenodd"/><path fill="#588AF5" d="M32 32H16v16h16V32Z"/><path fill="#464B55" d="M16 32H0v16h16V32Z"/><path fill="#FFFFFF" d="M25 36h-2v8h2v-8Z"/><path fill="#FFFFFF" d="M28 39h-8v2h8v-2Z"/><path fill="#464B55" fill-rule="evenodd" d="M240 90.5h-59.25l-28.25-33H240v33Z" clip-rule="evenodd"/><path fill="#0A0B0D" fill-rule="evenodd" d="M208 57.5v33h-27.25l4.75-4.75-33-28.25H208Z" clip-rule="evenodd"/><path fill="#588AF5" d="M208 57.5h-15.5v33H208v-33Z"/><path fill="#FFFFFF" d="M185.5 85.75 173.75 74l11.75-3.5-33-13 13 33 3.75-12 11.5 12 4.75-4.75Z"/><path fill="#44C28D" d="M120 84a28 28 0 1 0 0-56 28 28 0 0 0 0 56Z"/><path fill="#FFFFFF" d="M120 30a26 26 0 1 1 0 52 26 26 0 0 1 0-52Zm0-4c-16.54 0-30 13.46-30 30s13.46 30 30 30 30-13.46 30-30-13.46-30-30-30Z"/><path fill="#0A0B0D" d="M120 56a6 6 0 1 0 0-12 6 6 0 0 0 0 12Z"/><path fill="#0A0B0D" d="M132 68a12 12 0 1 0-24 0h24Z"/></svg>