<svg xmlns="http://www.w3.org/2000/svg" fill="none" viewBox="0 0 241 120"><path fill="#45DAF6" fill-rule="evenodd" d="M124.2 60V12H20.18v48" clip-rule="evenodd"/><path fill="#464B55" d="M28 0H0v120h28v-8h171.11A23.91 23.91 0 0 1 193 96c0-6.15 2.31-11.75 6.11-16H28V0Z"/><path fill="#588AF5" d="M28.2 80v32H.2V80h28ZM.2 12h28v48H.2V12Z"/><path fill="#FFFFFF" fill-rule="evenodd" d="M8.2 13.25h-8v-2h8v2Zm0 48h-8v-2h8v2Zm0-16h-8v-2h8v2Zm0-16.07h-8v-2h8v2Zm0 48h-8v-2h8v2Zm0 32.07h-8v-2h8v2Zm0-16h-8v-2h8v2Z" clip-rule="evenodd"/><path fill="#F0616D" d="M197 96a20 20 0 1 0 40 0 20 20 0 0 0-40 0Z"/><path fill="#0A0B0D" d="M217.83 101.83h-1.66L214.5 83.5h5l-1.67 18.33Zm-.83 6.67c1.4 0 2.5-1.1 2.5-2.5 0-1.39-1.1-2.5-2.5-2.5a2.49 2.49 0 0 0-2.5 2.5c-.07 1.4 1.11 2.5 2.5 2.5Z"/><path fill="#464B55" fill-rule="evenodd" d="M123.68 12.17v47.94a23.97 23.97 0 0 1 0-47.94Z" clip-rule="evenodd"/><path fill="#588AF5" d="M99.8 36a24 24 0 1 1 48 0 24 24 0 0 1-48 0Z"/><path fill="#464B55" d="M123.8 12a24 24 0 0 1 0 48V12Z"/><path fill="#FFFFFF" d="M105.8 36a18 18 0 1 1 36 0 18 18 0 0 1-36 0Z"/><path fill="#FFFFFF" fill-rule="evenodd" d="M123.85 2.18a33.96 33.96 0 1 0 0 67.92 33.96 33.96 0 0 0 0-67.92Zm0-2a35.96 35.96 0 1 0 0 71.92 35.96 35.96 0 0 0 0-71.92Z" clip-rule="evenodd"/><path fill="#0A0B0D" fill-rule="evenodd" d="M122.68 24h2v11.66l11.83 11.7-1.4 1.42-12.43-12.29V24Z" clip-rule="evenodd"/></svg>