<svg xmlns="http://www.w3.org/2000/svg" fill="none" viewBox="0 0 240 120"><path fill="#464B55" d="M48 36h144l-16 60H64zM80 0H60v36h20zm80 0h-20v36h20zm-60 0H88v36h12zm80 0h-12v36h12z"/><path fill="#44C28D" d="M208 104H32v16h176z"/><path fill="#0A0B0D" fill-rule="evenodd" d="M208 113H32v-2h176zm-24-32H56v-2h128zm4-16H52v-2h136z" clip-rule="evenodd"/><path fill="#578BFA" d="M92 112c6.627 0 12-5.373 12-12s-5.373-12-12-12-12 5.373-12 12 5.373 12 12 12"/><path fill="#0A0B0D" fill-rule="evenodd" d="M103.318 104c-1.647 4.661-6.092 8-11.317 8s-9.67-3.339-11.317-8z" clip-rule="evenodd"/><path fill="#578BFA" d="M148 112c6.627 0 12-5.373 12-12s-5.373-12-12-12-12 5.373-12 12 5.373 12 12 12"/><path fill="#0A0B0D" fill-rule="evenodd" d="M159.318 104c-1.647 4.661-6.092 8-11.317 8s-9.67-3.339-11.317-8zM92 107a7 7 0 1 0 0-14 7 7 0 0 0 0 14m0 2a9 9 0 1 0-9-9 9 9 0 0 0 9 9" clip-rule="evenodd"/><path fill="#0A0B0D" fill-rule="evenodd" d="M148 107a7 7 0 1 0 0-14 7 7 0 0 0 0 14m0 2a9 9 0 0 0 9-9 9 9 0 0 0-9-9 9 9 0 0 0-9 9 9 9 0 0 0 9 9" clip-rule="evenodd"/><path fill="#44C28D" d="M120 56c11.046 0 20-8.954 20-20s-8.954-20-20-20-20 8.954-20 20 8.954 20 20 20"/><path fill="#45D9F5" d="M160 56c11.046 0 20-8.954 20-20s-8.954-20-20-20-20 8.954-20 20 8.954 20 20 20"/><path fill="#578BFA" fill-rule="evenodd" d="M180 36c0 11.046-8.954 20-20 20s-20-8.954-20-20zm-40 0c0 11.046-8.954 20-20 20s-20-8.954-20-20z" clip-rule="evenodd"/><path fill="#0A0B0D" fill-rule="evenodd" d="M160 50c7.732 0 14-6.268 14-14s-6.268-14-14-14-14 6.268-14 14 6.268 14 14 14m0 2c8.837 0 16-7.163 16-16s-7.163-16-16-16-16 7.163-16 16 7.163 16 16 16" clip-rule="evenodd"/><path fill="#578BFA" d="M80 56c11.046 0 20-8.954 20-20s-8.954-20-20-20-20 8.954-20 20 8.954 20 20 20"/><path fill="#FFFFFF" d="m128 23.586-7 7V0h-2v30.586l-7-7L110.586 25 120 34.414 129.415 25z"/><path fill="#0A0B0D" fill-rule="evenodd" d="M80 50c7.732 0 14-6.268 14-14s-6.268-14-14-14-14 6.268-14 14 6.268 14 14 14m0 2c8.837 0 16-7.163 16-16s-7.163-16-16-16-16 7.163-16 16 7.163 16 16 16" clip-rule="evenodd"/><path fill="#0A0B0D" fill-rule="evenodd" d="M100 36c0 11.046-8.954 20-20 20s-20-8.954-20-20z" clip-rule="evenodd"/><path fill="#0A0B0D" d="m121 30.586 7-7L129.415 25 120 34.414 110.586 25 112 23.586l7 7V16.025a20 20 0 0 1 2 0z"/></svg>