<svg xmlns="http://www.w3.org/2000/svg" fill="none" viewBox="0 0 240 120"><path fill="#578BFA" fill-rule="evenodd" d="M64 120h24a32.003 32.003 0 0 1-32-32 32 32 0 0 1 32-32H64c-17.673 0-32 14.327-32 32s14.327 32 32 32" clip-rule="evenodd"/><path fill="#464B55" fill-rule="evenodd" d="M176 56h-24a32.003 32.003 0 0 1 32 32 32 32 0 0 1-19.754 29.564A32 32 0 0 1 152 120h24c17.673 0 32-14.327 32-32s-14.327-32-32-32" clip-rule="evenodd"/><path fill="#464B55" d="M84 12c0 6.627-5.373 12-12 12s-12-5.373-12-12S65.373 0 72 0s12 5.373 12 12"/><path fill="#44C28D" d="M88 44c0-8.837 7.163-16 16-16s16 7.163 16 16v76c-17.673 0-32-14.327-32-32zm28-32c0 6.627-5.373 12-12 12s-12-5.373-12-12 5.373-12 12-12 12 5.373 12 12"/><path fill="#578BFA" d="M156 12c0 6.627 5.373 12 12 12s12-5.373 12-12-5.373-12-12-12-12 5.373-12 12"/><path fill="#ECD069" d="M124 12c0 6.627 5.373 12 12 12s12-5.373 12-12-5.373-12-12-12-12 5.373-12 12"/><path fill="#ECD069" fill-rule="evenodd" d="M136 28c8.837 0 16 7.163 16 16v44c0-17.673-14.327-32-32-32V44c0-8.837 7.163-16 16-16" clip-rule="evenodd"/><path fill="#ECD069" d="M96 88c0 13.255 10.745 24 24 24s24-10.745 24-24-10.745-24-24-24-24 10.745-24 24"/><path fill="#45D9F5" fill-rule="evenodd" d="M88 88c0 17.673 14.327 32 32 32V56c-17.673 0-32 14.327-32 32" clip-rule="evenodd"/><path fill="#578BFA" fill-rule="evenodd" d="M120 64c-13.255 0-24 10.745-24 24s10.745 24 24 24z" clip-rule="evenodd"/><path fill="#0A0B0D" fill-rule="evenodd" d="M120 102c-7.732 0-14-6.268-14-14s6.268-14 14-14 14 6.268 14 14-6.268 14-14 14m0 2c-8.837 0-16-7.163-16-16s7.163-16 16-16 16 7.163 16 16-7.163 16-16 16" clip-rule="evenodd"/><path fill="#578BFA" fill-rule="evenodd" d="M168 28c8.837 0 16 7.163 16 16v43.984A32 32 0 0 0 152 56v64-76c0-8.837 7.163-16 16-16m6.32 82.931C168.555 116.543 160.681 120 152 120a32 32 0 0 0 22.32-9.069m.611-.611c5.588-5.74 9.039-13.57 9.069-22.207a32 32 0 0 1-9.069 22.207" clip-rule="evenodd"/><path fill="#578BFA" d="M152 64a24 24 0 0 1 16.971 7.03 24.01 24.01 0 0 1 5.202 26.154 24 24 0 0 1-5.202 7.787A24 24 0 0 1 152 112z"/><path fill="#0A0B0D" fill-rule="evenodd" d="M167.706 94.506a17.01 17.01 0 0 0-3.685-18.527A17 17 0 0 0 152 71v2a14.999 14.999 0 0 1 0 30v2a17 17 0 0 0 12.021-4.979 17 17 0 0 0 3.685-5.515" clip-rule="evenodd"/><path fill="#464B55" fill-rule="evenodd" d="M72 28c-8.837 0-16 7.163-16 16v44c0 8.806 3.557 16.781 9.313 22.567a32 32 0 0 1 .06-45.194A32 32 0 0 1 88 56V44c0-8.837-7.163-16-16-16m-6.567 82.687C71.219 116.443 79.194 120 88 120a32 32 0 0 1-22.567-9.313" clip-rule="evenodd"/><path fill="#45D9F5" d="M88 64a24 24 0 0 0 0 48z"/><path fill="#0A0B0D" fill-rule="evenodd" d="M72.294 94.506A17 17 0 0 1 88 71v2a15 15 0 0 0 0 30v2a17 17 0 0 1-12.02-4.979 17 17 0 0 1-3.686-5.515" clip-rule="evenodd"/></svg>