<svg xmlns="http://www.w3.org/2000/svg" fill="none" viewBox="0 0 240 120"><path fill="#464B55" d="M32 80a8 8 0 0 1 8-8h160a8 8 0 0 1 0 16H40a8 8 0 0 1-8-8Z"/><path fill="#588AF5" d="M72 88a16 16 0 0 1 16-16h64a16 16 0 0 1 16 16H72Z"/><path fill="#ECD069" d="M136 88a16 16 0 1 1-32 0 16 16 0 0 1 32 0Z"/><path fill="#F0616D" d="M160 24a16 16 0 1 1-32 0 16 16 0 0 1 32 0Z"/><path fill="#464B55" d="M127.94 9a8 8 0 1 0-15.88 0A32.01 32.01 0 0 0 88 40v48h64V40a32.01 32.01 0 0 0-24.06-31Z"/><path fill="#0A0B0D" fill-rule="evenodd" d="M134.23 11.33a32.01 32.01 0 0 1 17.7 26.57 16 16 0 0 1-17.7-26.57ZM95 40.03A25.03 25.03 0 0 1 120.03 15v2A23.03 23.03 0 0 0 97 40.03V50h-2v-9.97Z" clip-rule="evenodd"/><path fill="#588AF5" d="M88 72h64v16H88V72Z"/><path fill="#0A0B0D" fill-rule="evenodd" d="M144 65H96v-2h48v2Zm-25 55v-12h2v12h-2Zm-22.33-10.08 8.48-8.48 1.41 1.4-8.48 8.5-1.41-1.42Zm38.18-8.48 8.48 8.48-1.41 1.41-8.49-8.48 1.42-1.41Z" clip-rule="evenodd"/></svg>