<svg xmlns="http://www.w3.org/2000/svg" fill="none" viewBox="0 0 240 120"><path fill="#464B55" d="M32 80a8 8 0 0 1 8-8h160a8 8 0 0 1 0 16H40a8 8 0 0 1-8-8Z"/><path fill="#588AF5" d="M72 88c0-8.837 7.163-16 16-16h64c8.837 0 16 7.163 16 16H72Z"/><path fill="#ECD069" d="M136 88c0 8.837-7.163 16-16 16s-16-7.163-16-16 7.163-16 16-16 16 7.163 16 16Z"/><path fill="#F0616D" d="M160 24c0 8.837-7.163 16-16 16s-16-7.163-16-16 7.163-16 16-16 16 7.163 16 16Z"/><path fill="#464B55" d="M127.939 8.993a8 8 0 1 0-15.878 0C98.228 12.523 88 25.067 88 40v48h64V40c0-14.933-10.228-27.476-24.061-31.007Z"/><path fill="#0A0B0D" fill-rule="evenodd" d="M134.229 11.33c9.941 4.943 16.947 14.904 17.703 26.569A15.927 15.927 0 0 1 144 40c-8.837 0-16-7.163-16-16a15.97 15.97 0 0 1 6.229-12.67ZM95 40.029C95 26.206 106.206 15 120.029 15v2C107.31 17 97 27.31 97 40.029V50h-2v-9.971Z" clip-rule="evenodd"/><path fill="#588AF5" d="M88 72h64v16H88V72Z"/><path fill="#0A0B0D" fill-rule="evenodd" d="M144 65H96v-2h48v2Zm-25 55v-12h2v12h-2Zm-22.333-10.08 8.485-8.485 1.415 1.414-8.486 8.486-1.414-1.415Zm38.184-8.485 8.485 8.485-1.414 1.415-8.486-8.486 1.415-1.414Z" clip-rule="evenodd"/></svg>