<svg xmlns="http://www.w3.org/2000/svg" fill="none" viewBox="0 0 240 120"><path fill="#45DAF6" d="M200 16v104H40V16h160Z"/><path fill="#588AF5" d="M40 0h160v16H40V0Z"/><path fill="#0A0B0D" d="M52 8a2 2 0 1 1-4 0 2 2 0 0 1 4 0Zm24 0a2 2 0 1 1-4 0 2 2 0 0 1 4 0ZM64 8a2 2 0 1 1-4 0 2 2 0 0 1 4 0ZM40 64.57v-2.33l39.66-23.5L103.7 62.8l32.4-15.96 32.47 24.4 30.81-24.02.62.8v1.26l-31.4 24.49-32.71-24.6-32.6 16.05-23.95-23.95L40 64.57Z"/><path fill="#464B55" d="M0 0h40v8H0V0Zm16 8h24v8H16V8Zm184-8h40v8h-40V0Zm0 8h16v8h-16V8Z"/><path fill="#ECD069" d="M200 64V32a16 16 0 0 1 0 32Z"/><path fill="#588AF5" d="M200 64V32a16 16 0 0 0 0 32Z"/><path fill="#FFFFFF" d="M208 48a8 8 0 1 1-16 0 8 8 0 0 1 16 0Z"/><path fill="#588AF5" d="M204 48a4 4 0 1 1-8 0 4 4 0 0 1 8 0Z"/><path fill="#0A0B0D" fill-rule="evenodd" d="M152 97H80v-2h72v2Zm0 8H80v-2h72v2Zm32-8h-24v-2h24v2Zm0 8h-24v-2h24v2Z" clip-rule="evenodd"/><path fill="#588AF5" d="M72 100a8 8 0 1 1-16 0 8 8 0 0 1 16 0Z"/><path fill="#45DAF6" d="M240 96a16 16 0 0 1-16-16 16 16 0 0 1-16 16 16 16 0 0 1 16 16 16 16 0 0 1 16-16Z"/><path fill="#ECD069" d="M32 40a16 16 0 0 1-16-16A16 16 0 0 1 0 40a16 16 0 0 1 16 16 16 16 0 0 1 16-16Z"/><path fill="#588AF5" d="M24 96a8 8 0 0 1 8-8 8 8 0 0 1-8-8 8 8 0 0 1-8 8 8 8 0 0 1 8 8Z"/></svg>