<svg xmlns="http://www.w3.org/2000/svg" fill="none" viewBox="0 0 240 120"><path fill="#464B55" d="M80 4h80v116H80z"/><path fill="#464B55" d="M72 0h96v120H72z"/><path fill="#0A0B0D" fill-rule="evenodd" d="M160 46h-32v-2h32zm0 6h-18v-2h18zm-48-6H80v-2h32z" clip-rule="evenodd"/><path fill="#578BFA" d="M72 0h96v8H72z"/><path fill="#464B55" d="M0 58h80v62H0z"/><path fill="#578BFA" d="M72 58h96v62H72z"/><path fill="#464B55" d="M120 24h120v16H120z"/><path fill="#578BFA" d="M120 24h48v16h-48z"/><path fill="#464B55" d="M168 0h72v8h-72z"/><path fill="#FFFFFF" d="M160 36h-32v-8h32z"/><path fill="#578BFA" d="M112 36H80v-8h32z"/><path fill="#F0616D" d="M136 80h16v4h-16z"/><path fill="#45D9F5" d="M112 80h16v4h-16zm0-12h16v4h-16zm0 36h16v4h-16z"/><path fill="#44C28D" d="M88 104h16v4H88z"/><path fill="#F0616D" d="M136 68h16v4h-16z"/><path fill="#45D9F5" d="M112 92h16v4h-16z"/><path fill="#44C28D" d="M88 92h16v4H88z"/><path fill="#FFFFFF" d="m138 20-6-8h12z"/></svg>