<svg xmlns="http://www.w3.org/2000/svg" fill="none" viewBox="0 0 240 120"><path fill="#464B55" fill-rule="evenodd" d="M148.062 120H120V0h28.062C181.163 0 208 26.865 208 60c0 33.135-26.837 60-59.938 60Z" clip-rule="evenodd"/><path fill="#588AF5" fill-rule="evenodd" d="M162.426 102.426c23.432-23.431 23.432-61.421 0-84.852-23.431-23.432-61.421-23.432-84.852 0-23.432 23.431-23.432 61.42 0 84.852 23.431 23.432 61.421 23.432 84.852 0ZM164 60c0-24.3-19.699-44-44-44-24.3 0-44 19.7-44 44s19.7 44 44 44c24.301 0 44-19.7 44-44Z" clip-rule="evenodd"/><path fill="#45DAF6" fill-rule="evenodd" d="M120 120v-16c-24.3 0-44-19.7-44-44s19.7-44 44-44V0h-.026c-15.347.007-30.691 5.864-42.4 17.574C65.862 29.284 60.004 44.632 60 59.982v.036c.005 15.35 5.862 30.697 17.574 42.408C89.289 114.142 104.645 120 120 120Z" clip-rule="evenodd"/><path fill="#464B55" d="M32 60c0-13.255 10.745-24 24-24h16v48H56c-13.255 0-24-10.745-24-24Z"/><path fill="#588AF5" d="M120.012 36.92c12.722-.005 23.033 10.306 23.068 23.069.035 12.763-10.327 23.043-23.09 23.09l.022-46.158Z"/><path fill="#0A0B0D" fill-rule="evenodd" d="m131.694 53.72-15.223 14.67-7.164-6.904 1.387-1.44 5.777 5.566 13.836-13.331 1.387 1.44Z" clip-rule="evenodd"/><path fill="#FFFFFF" fill-rule="evenodd" d="M105.841 25.817C110.33 23.957 114.141 23 119 23v2c-4.596 0-8.148.905-12.394 2.664A35.002 35.002 0 0 0 85 60h-2a36.999 36.999 0 0 1 22.841-34.183Z" clip-rule="evenodd"/><path fill="#ECD069" d="M120 104a44 44 0 1 0 0-88v88Z"/><path fill="#588AF5" d="M120.009 36c13.23-.006 23.953 10.717 23.989 23.989.036 13.272-10.739 23.962-24.011 24.011l.022-48Z"/><path fill="#45DAF6" d="M119.989 84c-13.23.006-23.953-10.717-23.989-23.989C95.964 46.74 106.74 36.05 120.011 36l-.022 48Z"/><path fill="#588AF5" fill-rule="evenodd" d="M64.992 84H83v-.178A43.794 43.794 0 0 1 76 60c0-8.778 2.57-16.956 7-23.822V36H64.992A60.066 60.066 0 0 0 60 59.982v.036A60.065 60.065 0 0 0 64.992 84Z" clip-rule="evenodd"/><path fill="#0A0B0D" fill-rule="evenodd" d="m131.694 53.72-15.223 14.67-7.164-6.904 1.387-1.44 5.777 5.566 13.836-13.331 1.387 1.44Z" clip-rule="evenodd"/><path fill="#FFFFFF" fill-rule="evenodd" d="M88 61h-7.5v-2H88v2Zm27.442-42.394 4.557 5.412-4.575 5.146-1.494-1.328 3.425-3.854-3.443-4.088 1.53-1.288Z" clip-rule="evenodd"/><path fill="#0A0B0D" fill-rule="evenodd" d="m155.99 60.836 3.999.091a40.813 40.813 0 0 0 0-1.853l-3.999.09-3.999.091a30.743 30.743 0 0 1 0 1.49l3.999.091Zm-9.953-25.696 2.893-2.763a40.26 40.26 0 0 0-1.307-1.307l-2.763 2.893-2.762 2.892c.357.342.706.69 1.047 1.048l2.892-2.763Zm-1.177 50.898 2.763 2.893c.446-.426.881-.862 1.307-1.307l-2.893-2.763-2.892-2.763c-.341.357-.69.706-1.047 1.047l2.762 2.893Z" clip-rule="evenodd"/><path fill="#FFFFFF" d="m93.963 84.86-2.893 2.763c.426.446.862.881 1.307 1.307l2.763-2.893 2.763-2.892c-.357-.341-.707-.69-1.047-1.047l-2.893 2.762Zm25.2 11.13-.091 4a40.802 40.802 0 0 0 1.854 0l-.091-4-.091-3.998a32.335 32.335 0 0 1-1.49 0l-.091 3.999Z"/></svg>