<svg xmlns="http://www.w3.org/2000/svg" fill="none" viewBox="0 0 240 120"><g clip-path="url(#a)"><path fill="#464B55" d="M15.967 115.73c0-59.254 45.908-107.29 102.535-107.29s102.535 48.036 102.535 107.28v4.708H15.967v-4.708z"/><path fill="#578BFA" d="M128.449 33.981c8.165 0 14.784-6.595 14.784-14.73 0-8.137-6.619-14.732-14.784-14.732-8.164 0-14.783 6.595-14.783 14.731s6.619 14.731 14.783 14.731"/><path fill="#FFFFFF" fill-rule="evenodd" d="M161.098 35.872c4.003-3.79 6.499-9.144 6.499-15.079C167.597 9.309 158.254 0 146.73 0c-11.231 0-20.39 8.842-20.849 19.921-10.918 8.16-21.196 18.596-30.204 28.364l-1.388 1.512c-1.209 1.324-.28 3.454 1.518 3.454l27.763.106-19.369 9.674c-2.195-1.526-4.677-2.354-7.236-2.354h-8.031c-4.145 0-7.961 2.896-9.979 7.555h19.258l-9.728 11.645 38.983 2.427-6.232 21.213h-7.097c-7.189 0-12.929 8.54-13.139 16.473l-.109-.002.103.409v.041h.01l-.01-.041q0-.203.006-.407l15.331.222-.066.226v.02h77.575c2.008.347 4.073.527 6.181.527s4.173-.18 6.182-.527h.131l-.006-.022c16.864-2.971 29.673-17.647 29.673-35.304 0-19.8-16.109-35.852-35.98-35.852-3.627 0-7.13.535-10.431 1.53q-.174.028-.348.075c-5.434 1.448-11.194-1.855-12.749-7.61-1.545-5.757 1.788-11.493 7.206-12.94a3.583 3.583 0 0 0 2.544-4.388 3.6 3.6 0 0 0-4.404-2.534c-8.107 2.164-13.234 9.711-12.899 17.77a72 72 0 0 0-3.94-2.762zm67.711 49.26c0 14.36-10.59 26.257-24.412 28.357l-8.851-31.85a71.5 71.5 0 0 0-9.254-21.726 28.74 28.74 0 0 1 13.729-3.467c15.899 0 28.788 12.844 28.788 28.686" clip-rule="evenodd"/><path fill="#0A0B0D" d="M127.721 38.281c2.091 0 3.786-1.662 3.786-3.712s-1.695-3.713-3.786-3.713-3.785 1.662-3.785 3.713c0 2.05 1.694 3.712 3.785 3.712"/><path fill="#578BFA" fill-rule="evenodd" d="M204.166 56.755c11.796 1.444 24.652 12.243 24.482 28.318-.1 9.595-3.446 14.612-6.762 18.673-.4.488-.899 1.095-1.339 1.513l.49 8.988c1.089-.767 3.656-2.907 4.065-3.285 5.504-5.066 10.888-12.362 10.888-26.198 0-22.057-19.848-36.48-36.969-35.464m-23.482-22.734a17.4 17.4 0 0 1 6.303-3.155 3.587 3.587 0 1 1 1.858 6.927c-.759.2-1.468.488-2.108.826l-6.063-4.598z" clip-rule="evenodd"/><path fill="#578BFA" d="M146.322 30.836c0-6.928-5.643-12.551-12.595-12.551 6.952 0 12.595-5.614 12.595-12.552 0 6.928 5.644 12.552 12.596 12.552-6.952 0-12.596 5.613-12.596 12.55"/><path fill="#464B55" fill-rule="evenodd" d="M107.973 81.551a1 1 0 0 1 1.038-.96l37.388 1.423a1 1 0 1 1-.076 1.998l-37.388-1.423a1 1 0 0 1-.962-1.038m69.056 1.019a1 1 0 0 1-.439 1.344l-14.816 7.522c-1.755.924-2.855 1.606-3.618 2.4-.727.756-1.202 1.672-1.548 3.176l-1.961 9.456h-8.289c-4.941.072-8.376 2.202-10.596 4.978-2.246 2.809-3.254 6.291-3.254 8.992a1 1 0 0 1-2 0c0-3.132 1.149-7.06 3.692-10.241 2.569-3.212 6.554-5.65 12.137-5.729h6.682l1.635-7.883.002-.01c.403-1.755 1.011-3.037 2.058-4.125 1.011-1.052 2.377-1.862 4.135-2.787l.006-.004 14.83-7.528a1 1 0 0 1 1.344.439" clip-rule="evenodd"/><path fill="#578BFA" d="M108.973 68.231H27.395l21.486 52.207h75.055z"/><path fill="#45D9F5" d="M26.585 68.231h82.387l-15.103 52.207H4z"/><path fill="#ECD069" d="M41.408 105.468h22.445l-7.412 14.97H33.996z"/><path fill="#578BFA" d="M43.956 31.851a20.07 20.07 0 0 0 7.99 7.963 20.07 20.07 0 0 0-7.99 7.963 20.07 20.07 0 0 0-7.991-7.963 20.07 20.07 0 0 0 7.99-7.963"/><path fill="#ECD069" d="M48.654 37.57a20 20 0 0 1-4.698-5.719 20.07 20.07 0 0 1-7.991 7.963 20.1 20.1 0 0 1 5.838 4.8c1.964-2.285 4.973-5.39 6.697-7.114zm163.113-25.626a9.97 9.97 0 0 0 3.996 3.982 9.97 9.97 0 0 0-3.996 3.981 9.97 9.97 0 0 0-3.996-3.981 9.97 9.97 0 0 0 3.996-3.982"/><path fill="#45D9F5" d="M27.974 19.907a9.97 9.97 0 0 0 3.996 3.982 9.97 9.97 0 0 0-3.996 3.98 9.97 9.97 0 0 0-3.995-3.98 9.97 9.97 0 0 0 3.995-3.982"/></g><defs><clipPath id="a"><path fill="#FFFFFF" d="M0 0h240v120H0z"/></clipPath></defs></svg>