<svg xmlns="http://www.w3.org/2000/svg" fill="none" viewBox="0 0 240 121"><path fill="#464B55" d="M35.99 119.7h24V74.32h-24v45.36Zm48-.7h24V56h-24v63Zm48-1h24V40h-24v78ZM204 25.7h-24v93h24v-93Z"/><path fill="#588AF5" d="M156 40c0 6.65-5.35 12-12 12s-12-5.35-12-12h24Z"/><path fill="#45DAF6" d="M132 40c0-6.65 5.35-12 12-12s12 5.35 12 12h-24Z"/><path fill="#588AF5" d="M108 56c0 6.65-5.35 12-12 12s-12-5.35-12-12h24Z"/><path fill="#45DAF6" d="M84 56c0-6.65 5.35-12 12-12s12 5.35 12 12H84Z"/><path fill="#45DAF6" d="M84 56c0-6.65 5.35-12 12-12s12 5.35 12 12H84Z"/><path fill="#588AF5" d="M60 74c0 6.65-5.35 12-12 12s-12-5.35-12-12h24Z"/><path fill="#45DAF6" d="M36 74c0-6.65 5.35-12 12-12s12 5.35 12 12H36Z"/><path fill="#FFFFFF" d="M240 118H0v2h240v-2Z"/><path fill="#44C28D" d="M0 104h240V48L0 104Z"/><path fill="#588AF5" d="M60 90v14H36v-8.4L60 90Zm48-11.2V104H84V84.4l24-5.6Zm48-11.2V104h-24V73.2l24-5.6Zm48-11.2V104h-24V62l24-5.6Z"/><path fill="#464B55" d="M156 7.04v16a13.26 13.26 0 0 1 8-8 13.26 13.26 0 0 1-8-8Zm0 16a13.26 13.26 0 0 0-8-8 13.26 13.26 0 0 0 8-8v16ZM220 36v8a6.6 6.6 0 0 1 4-4 6.6 6.6 0 0 1-4-4Zm0 8a6.6 6.6 0 0 0-4-4 6.6 6.6 0 0 0 4-4v8Z"/><path fill="#588AF5" d="M192 40a19.97 19.97 0 0 0 18.48-12.35 20.06 20.06 0 0 0-4.33-21.8 19.97 19.97 0 0 0-21.8-4.33A20.03 20.03 0 0 0 172 20a20 20 0 0 0 20 20Z"/><path fill="#FFFFFF" d="M197.48 23.18c0-2.92-1.77-3.9-5.21-4.37-2.54-.37-3.03-.96-3.03-2.15s.86-1.92 2.5-1.92c1.5 0 2.36.52 2.7 1.72a.64.64 0 0 0 .62.46h1.3a.7.7 0 0 0 .26-.05.5.5 0 0 0 .2-.15c.06-.06.1-.14.12-.22a.53.53 0 0 0 0-.25c-.41-1.9-1.7-3.05-3.7-3.4v-2.02a.65.65 0 0 0-.18-.44.6.6 0 0 0-.44-.18h-1.25a.65.65 0 0 0-.44.18.62.62 0 0 0-.18.44v1.94c-2.5.35-4.08 2-4.08 4.12 0 2.74 1.67 3.8 5.15 4.27 2.37.4 3.05.9 3.05 2.25s-1.15 2.25-2.76 2.25c-2.18 0-2.92-.95-3.16-2.19a.65.65 0 0 0-.62-.5h-1.42a.7.7 0 0 0-.25.04.62.62 0 0 0-.2.15.48.48 0 0 0-.12.22.53.53 0 0 0-.01.25c.36 2.08 1.7 3.61 4.42 3.98v1.98c0 .17.07.32.18.44.12.12.28.18.44.18h1.25c.17 0 .32-.07.44-.18a.62.62 0 0 0 .18-.44v-1.98c2.58-.4 4.23-2.19 4.23-4.43Z"/><path fill="#588AF5" d="M204 79.5v16a13.26 13.26 0 0 1 8-8 13.26 13.26 0 0 1-8-8Z"/><path fill="#0A0B0D" d="M204 95.5a13.26 13.26 0 0 0-8-8 13.26 13.26 0 0 0 8-8v16Z"/><path fill="#FFFFFF" d="M187.71 31.95a12.52 12.52 0 0 1-5.96-18.9c1.47-2.1 3.55-3.7 5.96-4.58a.91.91 0 0 0 .38-.32c.1-.14.15-.3.16-.47V6.51c0-.1 0-.2-.05-.3a.57.57 0 0 0-.48-.35.52.52 0 0 0-.3.05 15.04 15.04 0 0 0-10.45 14.3 14.99 14.99 0 0 0 10.45 14.28.63.63 0 0 0 .6-.05.61.61 0 0 0 .24-.54v-1.18a.8.8 0 0 0-.17-.47.98.98 0 0 0-.38-.32v.02Zm8.87-26.03a.61.61 0 0 0-.3-.05c-.1.01-.2.05-.29.11a.61.61 0 0 0-.24.54V7.7c0 .17.06.33.16.47.1.14.23.25.38.32a12.52 12.52 0 0 1 5.96 18.9 12.52 12.52 0 0 1-5.96 4.58.8.8 0 0 0-.39.31.75.75 0 0 0-.14.48v1.17a.61.61 0 0 0 .24.54c.08.06.18.1.3.11.1.01.2 0 .3-.05a15.04 15.04 0 0 0 10.44-14.29 14.99 14.99 0 0 0-10.44-14.3v-.02Z"/><path fill="#FFFFFF" fill-rule="evenodd" d="M191 118.45v-73h2v73h-2Z" clip-rule="evenodd"/><path fill="#FFFFFF" fill-rule="evenodd" d="m192 40 4.71 8.71h-9.4l4.7-8.7Z" clip-rule="evenodd"/></svg>