<svg xmlns="http://www.w3.org/2000/svg" fill="none" viewBox="0 0 240 120"><g clip-path="url(#a)"><path fill="#FFFFFF" d="M152 0H80v119.7h72V0Z"/><path fill="#588AF5" d="M80 119.7h72V0H80v119.7Z"/><path fill="#464B55" d="M240 0h-88v16h88V0Zm0 104h-88v16h88v-16ZM80 0H0v16h80V0Zm0 104H0v16h80v-16Z"/><path fill="#0A0B0D" d="M80 16h72V0H80v16Zm0 104h72v-16H80v16Z"/><path fill="#FFFFFF" d="M116 7c.6 0 1-.4 1-1s-.4-1-1-1-1 .4-1 1 .4 1 1 1Zm4 105.7h-8v2h8v-2Z"/><path fill="#0A0B0D" d="M97 29H85v3h12v-3Zm51 59h-12v3h12v-3Zm0-59h-3v12h3V29ZM88 79h-3v12h3V79Z"/><path fill="#0A0B0D" d="M88 29h-3v12h3V29Zm60 50h-3v12h3V79Zm0-50h-12v3h12v-3ZM97 88H85v3h12v-3Z"/><path fill="#45DAF6" d="M208 76.5c-8.6 0-15.5 6.9-15.5 15.5 0-8.6-6.9-15.5-15.5-15.5 8.6 0 15.5-6.9 15.5-15.5 0 8.6 6.9 15.5 15.5 15.5Z"/><path fill="#44C28D" d="M40 56c-8.8 0-16 7.2-16 16 0-8.8-7.2-16-16-16 8.8 0 16-7.2 16-16 0 8.8 7.2 16 16 16Z"/><path fill="#ECD069" d="M60 83c-4.4 0-8 3.6-8 8 0-4.4-3.6-8-8-8 4.4 0 8-3.6 8-8 0 4.4 3.6 8 8 8Z"/><path fill="#588AF5" d="M68 32c-4.4 0-8 3.6-8 8 0-4.4-3.6-8-8-8 4.4 0 8-3.6 8-8 0 4.4 3.6 8 8 8Z"/><path fill="#ECD069" d="M183 33.5c-5.2 0-9.5 4.3-9.5 9.5 0-5.2-4.3-9.5-9.5-9.5 5.2 0 9.5-4.3 9.5-9.5 0 5.2 4.3 9.5 9.5 9.5Z"/><path fill="#44C28D" d="M233 46.5c-5.2 0-9.5 4.3-9.5 9.5 0-5.2-4.3-9.5-9.5-9.5 5.2 0 9.5-4.3 9.5-9.5 0 5.2 4.3 9.5 9.5 9.5Z"/><path fill="#FFFFFF" d="M103.8 42.8v5.9h-5.9v-5.9h5.9Zm3-3H94.9v11.9h11.9V39.8Zm-3 30.3V76h-5.9v-5.9h5.9Zm3-3H94.9V79h11.9V67.1ZM135 42.8v5.9h-5.9v-5.9h5.9Zm3-3h-11.9v11.9H138V39.8Zm-25.2.2h-3.5v3.5h3.5V40Zm10.7 9.5H120V53h3.5v-3.5Zm-3.6 22.9h-3.5v3.4h3.5v-3.4Zm-3.6-26.5h-3.5V53h3.5v-7.1Zm-3.6 19.9h-3.4v3.4h3.4v-3.4Zm0 6.5h-3.4v6.6h3.4v-6.6Zm7.6-15.9h-7.4v3.5h7.4v-3.5Zm-.3 6.3h-3.5v3.4h3.5v-3.4Zm-14.4-.1h-3.5v3.5h3.5v-3.5Zm0-6.8h-7.1v3.4h7.1v-3.4Z"/><path fill="#FFFFFF" d="M116.4 59.2h-10.8v3.4h10.8v-3.4Zm14.4 3.4h-3.5v3.5h3.5v-3.5Zm7.1-3.4h-4.8v3.4h4.8v-3.4ZM127 71.8h-3.5v7h3.5v-7Z"/><path fill="#FFFFFF" d="M130.8 68.8h-7.3v3.5h7.3v-3.5Zm7.1-.4h-3.6v7.3h3.6v-7.3Zm-3.6 3.9h-3.5v6.4h3.5v-6.4Zm0-15.9h-3.5v6.2h3.5v-6.2ZM123.5 40H120v3.5h3.5V40Zm0 3.5h-10.7v3.4h10.7v-3.4ZM112.9 53h-10.8v3.4h10.8V53Zm25.1 0h-14.5v3.4H138V53Z"/><path fill="#FFFFFF" d="M137.9 65.8h-21.4v3.5h21.4v-3.5Z"/></g><defs><clipPath id="a"><path fill="#FFFFFF" d="M0 0h240v120H0z"/></clipPath></defs></svg>