<svg xmlns="http://www.w3.org/2000/svg" fill="none" viewBox="0 0 240 120"><path fill="#464B55" d="M0 0h120v60H0V0Z"/><path fill="#588AF5" d="M120 60h120v60H120V60Z"/><path fill="#464B55" fill-rule="evenodd" d="m120 0 56 24v36h-12a44 44 0 0 0-44-44V0ZM76 60H64v4a56 56 0 0 0 56 56v-16a44 44 0 0 1-44-44Z" clip-rule="evenodd"/><path fill="#0A0B0D" d="M120 60h56v4a56 56 0 0 1-56 56"/><path fill="#588AF5" fill-rule="evenodd" d="M120 104a44 44 0 0 0 44-44h-44v44Z" clip-rule="evenodd"/><path fill="#ECD069" d="M144 60a24 24 0 1 1-48 0 24 24 0 0 1 48 0Z"/><path fill="#588AF5" d="m64 24 56-24v60H64V24Z"/><path fill="#45DAF6" fill-rule="evenodd" d="M120 16v44H76a44 44 0 0 1 44-44Z" clip-rule="evenodd"/><path fill="#588AF5" fill-rule="evenodd" d="M120 36v24H96a24 24 0 0 1 24-24Z" clip-rule="evenodd"/><path fill="#0A0B0D" fill-rule="evenodd" d="M106.22 26.74A36 36 0 0 1 120 24v2.06A33.94 33.94 0 0 0 86.06 60H84a36 36 0 0 1 22.22-33.26Zm27.56 66.52A36 36 0 0 1 120 96v-2.06A33.94 33.94 0 0 0 153.94 60H156a36 36 0 0 1-22.22 33.26ZM120 43a17 17 0 1 0 0 34 17 17 0 0 0 0-34Zm-19 17a19 19 0 1 1 38 0 19 19 0 0 1-38 0Z" clip-rule="evenodd"/></svg>