<svg xmlns="http://www.w3.org/2000/svg" fill="none" viewBox="0 0 240 120"><path fill="#464B55" d="M148 120c33.137 0 60-26.863 60-60S181.137 0 148 0 88 26.863 88 60h24c0-19.882 16.118-36 36-36s36 16.118 36 36-16.118 36-36 36H64v24h23.996c-6.617-.013-11.977-5.38-11.977-12 0-6.627 5.373-12 12-12 6.628 0 12.001 5.373 12.001 12 0 6.62-5.36 11.987-11.977 12h23.959c-6.62-.01-11.982-5.379-11.982-12 0-6.627 5.372-12 12-12 6.627 0 12 5.373 12 12 0 6.621-5.363 11.99-11.983 12z"/><path fill="#578BFA" d="M172 56c0-13.255-10.745-24-24-24s-24 10.745-24 24v40h48z"/><path fill="#45D9F5" d="M64 32.019H32V96h32z"/><path fill="#44C28D" d="M64 32h84v64.038H64z"/><path fill="#578BFA" d="M116 64.019c0-6.628 5.373-12 12-12h20v24h-20c-6.627 0-12-5.373-12-12"/><path fill="#0A0B0D" fill-rule="evenodd" d="M128 70.019a6 6 0 1 0 0-12 6 6 0 0 0 0 12m0 2a8 8 0 1 0 0-16 8 8 0 0 0 0 16" clip-rule="evenodd"/><circle cx="64.02" cy="108" r="12" fill="#464B55"/><path fill="#578BFA" d="M64.02 120a12 12 0 0 0 12-12 12 12 0 0 0-12-12zM88 120a12 12 0 0 0 12-12 12 12 0 0 0-12-12zm24 0c3.183 0 6.235-1.264 8.485-3.515a11.996 11.996 0 0 0 0-16.97A12 12 0 0 0 112 96z"/><path fill="#FFFFFF" fill-rule="evenodd" d="M148.788 106.87c25.838 0 46.784-20.946 46.784-46.784h2c0 26.942-21.842 48.784-48.784 48.784H137.58v-2z" clip-rule="evenodd"/><path fill="#FFFFFF" fill-rule="evenodd" d="m140.236 113.055-4.906-5.344 4.907-5.336 1.472 1.354-3.663 3.983 3.663 3.99z" clip-rule="evenodd"/><circle cx="196" cy="60" r="12" fill="#FFFFFF"/><circle cx="148" cy="12" r="12" fill="#578BFA"/><path fill="#578BFA" d="M208 60a12 12 0 1 0-24 0z"/><path fill="#FFFFFF" fill-rule="evenodd" d="M64.02 101a7 7 0 1 0 0 14 7 7 0 0 0 0-14m-9 7a9 9 0 0 1 9-9 9 9 0 0 1 9 9 9 9 0 0 1-9 9 9 9 0 0 1-9-9m33-7a7 7 0 1 0 0 14 7 7 0 0 0 0-14m-9 7a9 9 0 0 1 9-9 9 9 0 0 1 9 9 9 9 0 0 1-9 9 9 9 0 0 1-9-9m33-7a7 7 0 1 0 0 14 7 7 0 0 0 0-14m-9 7a9 9 0 1 1 18 0 9 9 0 0 1-18 0" clip-rule="evenodd"/><path fill="#0A0B0D" fill-rule="evenodd" d="M196 53a7 7 0 1 0 0 14 7 7 0 0 0 0-14m-9 7a9 9 0 0 1 9-9 9 9 0 0 1 9 9 9 9 0 0 1-9 9 9 9 0 0 1-9-9" clip-rule="evenodd"/><path fill="#464B55" d="M147.951 52.019h8v24h-8z"/></svg>