<svg xmlns="http://www.w3.org/2000/svg" fill="none" viewBox="0 0 240 120"><path fill="#464B55" d="M32 60c0-13.255 10.745-24 24-24h40v48H56c-13.255 0-24-10.745-24-24Z"/><path fill="#464B55" fill-rule="evenodd" d="m86.92 37.787 87.999-36 18.175 44.426-88 36c-12.268 5.019-26.282-.858-31.3-13.126-5.02-12.268.857-26.281 13.125-31.3Z" clip-rule="evenodd"/><path fill="#45DAF6" fill-rule="evenodd" d="m86.92 82.213 87.999 36 18.175-44.426-88-36c-12.268-5.019-26.282.858-31.3 13.126-5.02 12.268.857 26.281 13.125 31.3Z" clip-rule="evenodd"/><path fill="#588AF5" fill-rule="evenodd" d="m86.87 37.813.05-.02.013-.006a23.924 23.924 0 0 1 18.161.006l54.298 22.213-54.298 22.213a23.924 23.924 0 0 1-18.161.006l-.014-.006a23.926 23.926 0 0 1-13.225-13.371A24.023 24.023 0 0 1 72 60.006a24.032 24.032 0 0 1 1.82-9.153 23.927 23.927 0 0 1 13.05-13.04Z" clip-rule="evenodd"/><path fill="#0A0B0D" fill-rule="evenodd" d="m95.628 59.075 88-36 .757 1.85-88 36a1 1 0 0 1-.757-1.85Z" clip-rule="evenodd"/><path fill="#0A0B0D" fill-rule="evenodd" d="m95.628 60.925 88 36 .757-1.85-88-36a1 1 0 0 0-.757 1.85Z" clip-rule="evenodd"/><path fill="#588AF5" d="M96.006 44a16 16 0 0 0 0 32 15.956 15.956 0 0 0 11.844-5.244c.364-.363.669-.77.978-1.181a15.002 15.002 0 0 0 1.589-2.637A15.94 15.94 0 0 0 112.006 60a15.998 15.998 0 0 0-16-16Z"/><path fill="#0A0B0D" fill-rule="evenodd" d="M96.006 74h.003a13.954 13.954 0 0 0 10.359-4.586l.033-.037.035-.035c.247-.247.469-.538.794-.97.268-.356.517-.725.748-1.107.235-.39.445-.778.623-1.164l.008-.017.007-.016a13.938 13.938 0 0 0 1.39-6.068 14.002 14.002 0 0 0-14-14 14 14 0 0 0 0 28Zm16-14a15.94 15.94 0 0 1-1.589 6.938 15.002 15.002 0 0 1-1.589 2.636l-.009.013c-.306.406-.609.81-.969 1.17A15.96 15.96 0 0 1 96.006 76a16 16 0 1 1 16-16Z" clip-rule="evenodd"/><path fill="#ECD069" d="M184.006 0a24 24 0 0 0 0 48 23.934 23.934 0 0 0 17.766-7.865c.545-.546 1.003-1.157 1.467-1.773a22.51 22.51 0 0 0 2.384-3.955A23.923 23.923 0 0 0 208.006 24a24 24 0 0 0-24-24Z"/><path fill="#588AF5" fill-rule="evenodd" d="M184.006 0v48a24 24 0 0 1 0-48Z" clip-rule="evenodd"/><path fill="#0A0B0D" fill-rule="evenodd" d="M184.006 38h.003a13.954 13.954 0 0 0 10.359-4.586l.033-.037.035-.035c.247-.247.469-.538.794-.97.268-.356.517-.725.748-1.107.235-.39.445-.779.623-1.164l.008-.017.007-.016a13.938 13.938 0 0 0 1.39-6.068 14.002 14.002 0 0 0-14-14 13.998 13.998 0 0 0-14 14 13.998 13.998 0 0 0 14 14Zm16-14a15.94 15.94 0 0 1-1.589 6.938 15.002 15.002 0 0 1-1.589 2.636l-.009.013c-.306.406-.609.81-.969 1.17A15.96 15.96 0 0 1 184.006 40a15.998 15.998 0 0 1-16-16 15.999 15.999 0 0 1 16-16 16 16 0 0 1 16 16Z" clip-rule="evenodd"/><path fill="#ECD069" d="M184.006 72a24 24 0 0 0 0 48 23.927 23.927 0 0 0 17.766-7.865c.545-.546 1.003-1.157 1.467-1.773a22.61 22.61 0 0 0 2.384-3.955A23.92 23.92 0 0 0 208.006 96a24 24 0 0 0-24-24Z"/><path fill="#588AF5" fill-rule="evenodd" d="M184.006 72v48a24.003 24.003 0 0 1-24-24 24 24 0 0 1 24-24Z" clip-rule="evenodd"/><path fill="#0A0B0D" fill-rule="evenodd" d="M184.006 110h.003a13.956 13.956 0 0 0 10.359-4.586l.033-.037.035-.035c.247-.247.469-.538.794-.97.268-.356.517-.725.748-1.107.235-.39.445-.778.623-1.164l.008-.017.007-.016a13.937 13.937 0 0 0 1.39-6.068 14.002 14.002 0 0 0-14-14 13.998 13.998 0 0 0-14 14 14 14 0 0 0 14 14Zm16-14c0 2.403-.543 4.775-1.589 6.938a15.026 15.026 0 0 1-1.589 2.637l-.009.012c-.306.406-.609.809-.969 1.169A15.95 15.95 0 0 1 184.006 112a16 16 0 1 1 16-16Z" clip-rule="evenodd"/></svg>