<svg xmlns="http://www.w3.org/2000/svg" fill="none" viewBox="0 0 240 120"><path fill="#464B55" d="M0 86.2h240V120H0z"/><path fill="#578BFA" d="M160 73.12h-21.788V120h-36.424V73.12H80l40-48.316zm80-24.805h-21.788V120h-36.424V48.315H160L200 0z"/><path fill="#44C28D" d="M239.999 48.315h-21.786V120h-36.425V48.315H160L200 0z"/><path fill="#FFFFFF" d="M101.787 86.201h36.424V120h-36.424zm-80 0h36.424V120H21.787zm160 0h36.424V120h-36.424z"/><path fill="#578BFA" d="M80 99.955H0L40 51.64z"/><path fill="#FFFFFF" d="M80 99.955H0L11.387 86.2h57.226z"/><path fill="#ECD069" d="M101.787 59.27h36.424v26.931h-36.424z"/><path fill="#ECD069" d="m80 73.119 39.999-48.316 40 48.316zm148.494-50.804h.698c0-5.972 4.836-10.809 10.808-10.809v-.697c-5.972 0-10.808-4.837-10.808-10.809h-.698c0 5.972-4.837 10.809-10.808 10.809v.697c5.971 0 10.808 4.837 10.808 10.808"/><path fill="#0A0B0D" d="M201 119.936h-2V23.171h2z"/><path fill="#F5F8FF" d="M201 119.935h-2V86.201h2z"/><path fill="#0A0B0D" d="m217.45 39.094-1.414 1.415-16.035-16.036-16.036 16.036-1.414-1.415 17.45-17.45z"/></svg>