<svg xmlns="http://www.w3.org/2000/svg" fill="none" viewBox="0 0 240 120"><path fill="#464B55" d="M80 56H32v64h48z"/><path fill="#578BFA" d="M80 56c0 13.3-10.7 24-24 24S32 69.3 32 56z"/><path fill="#ECD069" d="M32 56c0-13.3 10.7-24 24-24s24 10.7 24 24z"/><path fill="#464B55" d="M144 40H96v80h48z"/><path fill="#578BFA" d="M144 40c0 13.3-10.7 24-24 24S96 53.3 96 40z"/><path fill="#44C28D" d="M96 40c0-13.3 10.7-24 24-24s24 10.7 24 24z"/><path fill="#464B55" d="M208 24h-48v96h48z"/><path fill="#578BFA" d="M208 24c0 13.3-10.7 24-24 24s-24-10.7-24-24z"/><path fill="#45D9F5" d="M160 24c0-13.3 10.7-24 24-24s24 10.7 24 24z"/><path fill="#FFFFFF" d="M120 64.586 129.414 74 128 75.414l-7-7V120h-2V68.414l-7 7L110.586 74zm64-16L193.414 58 192 59.414l-7-7V120h-2V52.414l-7 7L174.586 58zm-128 32L65.414 90 64 91.414l-7-7V120h-2V84.414l-7 7L46.586 90z"/><path fill="#0A0B0D" fill-rule="evenodd" d="M184 40c8.837 0 16-7.163 16-16s-7.163-16-16-16-16 7.163-16 16 7.163 16 16 16m0 2c9.941 0 18-8.059 18-18s-8.059-18-18-18-18 8.059-18 18 8.059 18 18 18m-64 14c8.837 0 16-7.163 16-16s-7.163-16-16-16-16 7.163-16 16 7.163 16 16 16m0 2c9.941 0 18-8.059 18-18s-8.059-18-18-18-18 8.059-18 18 8.059 18 18 18M56 72c8.837 0 16-7.163 16-16s-7.163-16-16-16-16 7.163-16 16 7.163 16 16 16m0 2c9.941 0 18-8.059 18-18s-8.059-18-18-18-18 8.059-18 18 8.059 18 18 18" clip-rule="evenodd"/></svg>