<svg xmlns="http://www.w3.org/2000/svg" fill="none" viewBox="0 0 240 120"><path fill="#45DAF6" d="M240 32H76v88h164V32ZM52 32H0V12h52v20Z"/><path fill="#588AF5" d="M188 32H76v88h112V32Z"/><path fill="#0A0B0D" d="M188 92v28h-28l28-28Z"/><path fill="#464B55" d="M160 120V92h28l-28 28Z"/><path fill="#0A0B0D" d="m152 76-40-24v48l40-24Z"/><path fill="#464B55" d="M76 32H52v88h24V32Z"/><path fill="#588AF5" d="M76 12H52v20h24V12Z"/><path fill="#464B55" fill-rule="evenodd" d="M76 12h112v20H76V12Zm20 13c-2.2 0-4-1.8-4-4s1.8-4 4-4 4 1.8 4 4-1.8 4-4 4Zm32-4c0 2.2 1.8 4 4 4s4-1.8 4-4-1.8-4-4-4-4 1.8-4 4Zm36 0c0 2.2 1.8 4 4 4s4-1.8 4-4-1.8-4-4-4-4 1.8-4 4Z" clip-rule="evenodd"/><circle cx="96" cy="12" r="9" stroke="#ECD069" stroke-width="6"/><path fill="#588AF5" d="M90 12h-6c0 6.627 5.373 12 12 12v-6a6 6 0 0 1-6-6Z"/><path fill="#ECD069" d="M98.123 17.614c-.66.25-1.376.386-2.123.386a5.987 5.987 0 0 1-2.123-.386A4.007 4.007 0 0 0 92 21c0 .998.37 1.914.981 2.617.965.25 1.976.383 3.019.383a12.02 12.02 0 0 0 3.019-.383c.61-.703.981-1.619.981-2.617a4.007 4.007 0 0 0-1.877-3.386Z"/><path fill="#FFFFFF" fill-rule="evenodd" d="M67 120V12h2v108h-2Zm-8 0V12h2v108h-2Z" clip-rule="evenodd"/><circle cx="168" cy="12" r="9" stroke="#ECD069" stroke-width="6"/><circle cx="132" cy="12" r="9" stroke="#ECD069" stroke-width="6"/><path fill="#588AF5" d="M162 12h-6c0 6.627 5.373 12 12 12v-6a6 6 0 0 1-6-6Zm-36 0h-6c0 6.627 5.373 12 12 12v-6a6 6 0 0 1-6-6Z"/><path fill="#ECD069" d="M170.123 17.614c-.66.25-1.376.386-2.123.386a5.991 5.991 0 0 1-2.123-.386A4.008 4.008 0 0 0 164 21c0 .998.371 1.914.981 2.617.965.25 1.976.383 3.019.383a12.02 12.02 0 0 0 3.019-.383c.61-.703.981-1.619.981-2.617a4.008 4.008 0 0 0-1.877-3.386Zm-36 0c-.66.25-1.376.386-2.123.386a5.991 5.991 0 0 1-2.123-.386A4.008 4.008 0 0 0 128 21c0 .998.371 1.914.981 2.617.965.25 1.976.383 3.019.383a12.02 12.02 0 0 0 3.019-.383c.61-.703.981-1.619.981-2.617a4.008 4.008 0 0 0-1.877-3.386Z"/></svg>