<svg xmlns="http://www.w3.org/2000/svg" fill="none" viewBox="0 0 240 120"><path fill="#44C28D" d="M84 56H32v60a4 4 0 0 0 4 4h168a4 4 0 0 0 4-4V56h-68c0 15.464-12.536 28-28 28S84 71.464 84 56M32 4a4 4 0 0 1 4-4h168a4 4 0 0 1 4 4v20H32z"/><path fill="#ECD069" d="M112 32c13.255 0 24 10.745 24 24s-10.745 24-24 24-24-10.745-24-24 10.745-24 24-24"/><path fill="#464B55" d="M89.019 40A27.87 27.87 0 0 0 84 56H32V40z"/><path fill="#578BFA" d="M84 56H32v16h57.019A27.87 27.87 0 0 1 84 56m28 24c13.255 0 24-10.745 24-24H88c0 13.255 10.745 24 24 24"/><path fill="#FFFFFF" d="M117.586 57H32v-2h85.586l-7-7L112 46.586 121.414 56 112 65.415 110.586 64z"/><path fill="#464B55" d="M160 56c0-8.837 7.163-16 16-16h32v32h-32c-8.837 0-16-7.163-16-16"/><path fill="#578BFA" fill-rule="evenodd" d="M208 72V56h-48c0 8.837 7.163 16 16 16z" clip-rule="evenodd"/><path fill="#FFFFFF" fill-rule="evenodd" d="M177 66c5.523 0 10-4.477 10-10s-4.477-10-10-10-10 4.477-10 10 4.477 10 10 10m0 2c6.627 0 12-5.373 12-12s-5.373-12-12-12-12 5.373-12 12 5.373 12 12 12m-65 6c9.941 0 18-8.059 18-18s-8.059-18-18-18-18 8.059-18 18 8.059 18 18 18m0 2c11.046 0 20-8.954 20-20s-8.954-20-20-20-20 8.954-20 20 8.954 20 20 20" clip-rule="evenodd"/></svg>