<svg xmlns="http://www.w3.org/2000/svg" fill="none" viewBox="0 0 240 120"><path fill="#464B55" d="M240 108c0 6.627-5.373 12-12 12H96V34c0-5.523 4.477-10 10-10h134z"/><path fill="#464B55" d="M216 94c0 5.523-4.477 10-10 10H80V12c0-6.627 5.373-12 12-12h124z"/><path fill="#578BFA" d="M224 24v80H96V24z"/><path fill="#0A0B0D" d="M192 44h32v40h-32z"/><path fill="#578BFA" d="M224 44h8v40h-8z"/><path fill="#0A0B0D" d="M216 16H104.945A9 9 0 0 0 96 24h120z"/><path fill="#FFFFFF" d="m208 58 6 6-6 6-6-6z"/><path fill="#464B55" d="M0 48v24h44V48zm0 32v8h44v-8zm0-48v8h44v-8z"/><path fill="#627EEA" d="M44 88c15.464 0 28-12.536 28-28S59.464 32 44 32 16 44.536 16 60s12.536 28 28 28"/><path fill="#FFFFFF" fill-opacity=".6" d="M43.996 39v14.879l12.245 5.62z"/><path fill="#FFFFFF" d="M43.997 39 31.75 59.498l12.247-5.62z"/><path fill="#FFFFFF" fill-opacity=".6" d="M43.996 69.14v10.11L56.25 61.84z"/><path fill="#FFFFFF" d="M43.997 79.25V69.138L31.75 61.84z"/><path fill="#FFFFFF" fill-opacity=".2" d="m43.996 66.8 12.245-7.302-12.245-5.616z"/><path fill="#FFFFFF" fill-opacity=".6" d="M31.75 59.498 43.997 66.8V53.882z"/></svg>