<svg xmlns="http://www.w3.org/2000/svg" fill="none" viewBox="0 0 240 120"><path fill="#464B55" d="M95 16v16H0V16h95Zm0 72v16H0V88h95Zm70-40v24H0V48h165Z"/><path fill="#ECD069" d="M188 112a52 52 0 1 1 0-104 52 52 0 0 1 0 104Z"/><path fill="#0A0B0D" fill-rule="evenodd" d="M231 60a43 43 0 1 0-86 0 43 43 0 0 0 86 0Zm-43-45a45 45 0 1 1 0 90 45 45 0 0 1 0-90Z" clip-rule="evenodd"/><path fill="#45DAF6" d="M112 48a24 24 0 1 1 0-48 24 24 0 0 1 0 48Z"/><path fill="#FFFFFF" d="M128.47 23.97C119.53 21.22 114.25 12.3 112 1c-2.26 11.3-7.53 20.22-16.46 22.97-.05 0-.05.06 0 .06C104.47 26.78 109.74 35.7 112 47c2.26-11.3 7.53-20.22 16.47-22.97.04 0 .04-.06 0-.06Z"/><path fill="#44C28D" d="M104 95.5c0 12.98-10.75 23.5-24 23.5s-24-10.52-24-23.5S66.75 72 80 72s24 10.52 24 23.5Z"/><path fill="#FFFFFF" d="m88 96-8.02 8L72 96l7.98-8L88 96Z"/><path fill="#ECD069" d="M100 96a12 12 0 0 1 12-12 12 12 0 0 1-12-12 12 12 0 0 1-12 12 12 12 0 0 1 12 12Z"/><path fill="#44C28D" d="M132 24a12 12 0 0 0-12-12 12 12 0 0 0 12-12 12 12 0 0 0 12 12 12 12 0 0 0-12 12Z"/><path fill="#588AF5" d="M134.75 16.35a24 24 0 0 0-5.35-8.88A11.98 11.98 0 0 1 120 12a12 12 0 0 1 12 12c0-2.9 1.03-5.57 2.75-7.65Zm-31.91 71.9A11.95 11.95 0 0 0 100 96a12 12 0 0 0-12-12c3.84 0 7.27-1.8 9.46-4.62a23.39 23.39 0 0 1 5.38 8.87Z"/><path fill="#0A0B0D" fill-rule="evenodd" d="M200.5 60.01a1 1 0 0 1-.35.75l-23 19.5-1.3-1.52L196.77 61H0v-2h196.88l-21.04-18.75 1.32-1.5 23 20.5a1 1 0 0 1 .34.76Z" clip-rule="evenodd"/></svg>