<svg xmlns="http://www.w3.org/2000/svg" fill="none" viewBox="0 0 240 120"><path fill="#464B55" d="M240 108a12 12 0 0 1-12 12H96V34a10 10 0 0 1 10-10h134v84Z"/><path fill="#464B55" d="M216 94a10 10 0 0 1-10 10H80V12A12 12 0 0 1 92 0h124v94Z"/><path fill="#588AF5" d="M224 24v80H96V24h128Z"/><path fill="#0A0B0D" d="M192 44h32v40h-32V44Z"/><path fill="#588AF5" d="M224 44h8v40h-8V44Z"/><path fill="#0A0B0D" d="M216 16H104.94A9 9 0 0 0 96 24h120v-8Z"/><path fill="#FFFFFF" d="m208 58 6 6-6 6-6-6 6-6Z"/><path fill="#464B55" d="M0 48v24h44V48H0Zm0 32v8h44v-8H0Zm0-48v8h44v-8H0Z"/><path fill="#627EEA" d="M44 88a28 28 0 1 0 0-56 28 28 0 0 0 0 56Z"/><path fill="#FFFFFF" fill-opacity=".6" d="M44 39v14.88l12.24 5.62L44 39Z"/><path fill="#FFFFFF" d="M44 39 31.75 59.5 44 53.88V39Z"/><path fill="#FFFFFF" fill-opacity=".6" d="M44 69.14v10.11l12.25-17.41L44 69.14Z"/><path fill="#FFFFFF" d="M44 79.25V69.14l-12.25-7.3L44 79.25Z"/><path fill="#FFFFFF" fill-opacity=".2" d="m44 66.8 12.24-7.3L44 53.88V66.8Z"/><path fill="#FFFFFF" fill-opacity=".6" d="M31.75 59.5 44 66.8V53.88L31.75 59.5Z"/></svg>