<svg xmlns="http://www.w3.org/2000/svg" fill="none" viewBox="0 0 240 120"><g clip-path="url(#a)"><path fill="#464B55" d="M197.971 29.363h-94.807v61.28h94.807v-61.28Z"/><path fill="#44C28D" d="M103.597 120c11.88 0 21.511-26.863 21.511-60s-9.631-60-21.511-60c-11.88 0-21.511 26.863-21.511 60s9.63 60 21.511 60Z"/><path fill="#ECD069" d="M116.722 120c11.88 0 21.511-26.863 21.511-60s-9.631-60-21.511-60c-11.88 0-21.511 26.863-21.511 60s9.631 60 21.511 60Z"/><path fill="#464B55" d="M129.847 120c11.88 0 21.511-26.863 21.511-60s-9.631-60-21.511-60c-11.88 0-21.511 26.863-21.511 60s9.631 60 21.511 60Z"/><path fill="#0A0B0D" d="M123.287 2.847c-8.672 7.74-14.951 30.4-14.951 57.153 0 26.754 6.279 49.413 14.951 57.153 8.671-7.74 14.951-30.4 14.951-57.153 0-26.754-6.28-49.413-14.951-57.153Z"/><path fill="#0A0B0D" d="M108.336 60c0 11.192 1.101 21.671 3.013 30.638h36.996c1.912-8.967 3.013-19.446 3.013-30.638s-1.101-21.67-3.013-30.637h-36.996c-1.912 8.966-3.013 19.445-3.013 30.637Z"/><path fill="#588AF5" d="M108.336 60c0 11.198 1.101 21.671 3.018 30.638h23.865c1.917-8.967 3.019-19.446 3.019-30.638s-1.102-21.67-3.019-30.637h-23.865c-1.917 8.966-3.018 19.445-3.018 30.637ZM62.475 29.363H0v61.28h62.475v-61.28Z"/><path fill="#ECD069" d="M60.632 90.568c16.932 0 30.658-13.732 30.658-30.67 0-16.939-13.726-30.67-30.658-30.67-16.931 0-30.657 13.731-30.657 30.67 0 16.938 13.725 30.67 30.657 30.67Z"/><path fill="#0A0B0D" d="M60.634 43.32a16.65 16.65 0 0 0 4.908 11.795c3.14 3.13 7.4 4.888 11.837 4.888a16.772 16.772 0 0 0-11.837 4.887 16.65 16.65 0 0 0-4.908 11.795 16.65 16.65 0 0 0-4.909-11.795 16.772 16.772 0 0 0-11.836-4.887c4.437 0 8.697-1.759 11.836-4.888a16.65 16.65 0 0 0 4.909-11.794Zm22.737 37.147a30.569 30.569 0 0 0 7.916-20.57 30.534 30.534 0 0 0-7.894-20.541c-.848 6.438-1.307 13.39-1.307 20.644 0 7.254.454 14.077 1.285 20.461v.006Z"/><path fill="#588AF5" d="M198.091 90.567a30.6 30.6 0 0 0 28.272-18.89 30.594 30.594 0 0 0-6.633-33.35 30.605 30.605 0 0 0-47.084 4.637 30.6 30.6 0 0 0 3.805 38.64 30.605 30.605 0 0 0 21.64 8.963Z"/><path fill="#FFFFFF" d="M191.53 78.25a19.125 19.125 0 0 1-9.112-28.929 19.125 19.125 0 0 1 9.112-7.004 1.377 1.377 0 0 0 .823-1.205v-1.785a.906.906 0 0 0-1.275-.911 22.952 22.952 0 0 0 0 43.735.905.905 0 0 0 1.275-.911v-1.785a1.377 1.377 0 0 0-.823-1.206Z"/><path fill="#FFFFFF" d="M206.475 64.83c0-4.463-2.716-5.968-7.969-6.688-3.883-.561-4.629-1.473-4.629-3.284 0-1.81 1.313-2.939 3.825-2.939 2.289 0 3.609.797 4.151 2.64a.97.97 0 0 0 .924.707h2.008a.894.894 0 0 0 .878-.65.879.879 0 0 0 .021-.389c-.637-2.913-2.601-4.667-5.68-5.215V45.94a.958.958 0 0 0-.956-.956h-1.913a.954.954 0 0 0-.956.956v2.965c-3.826.535-6.242 3.06-6.242 6.299 0 4.188 2.55 5.814 7.88 6.534 3.628.593 4.661 1.378 4.661 3.437 0 2.06-1.754 3.443-4.227 3.443-3.335 0-4.463-1.46-4.839-3.354a.97.97 0 0 0-.938-.778h-2.18a.891.891 0 0 0-.886 1.04c.554 3.187 2.601 5.52 6.771 6.082v3.022a.953.953 0 0 0 .956.956h1.913a.958.958 0 0 0 .956-.956v-3.022c3.953-.625 6.471-3.354 6.471-6.777Z"/><path fill="#FFFFFF" d="M204.642 38.339a.907.907 0 0 1 .462.077 22.952 22.952 0 0 1 0 43.735.907.907 0 0 1-1.275-.911v-1.785a1.273 1.273 0 0 1 .822-1.206 19.127 19.127 0 0 0 0-35.932 1.382 1.382 0 0 1-.822-1.205v-1.785a.906.906 0 0 1 .813-.988Z"/><path fill="#44C28D" d="M229.564 99.208c0 2.759 1.102 5.4 3.059 7.35a10.453 10.453 0 0 0 7.376 3.046 10.453 10.453 0 0 0-7.376 3.046 10.374 10.374 0 0 0-3.059 7.35c0-2.759-1.102-5.4-3.059-7.35a10.45 10.45 0 0 0-7.376-3.046 10.45 10.45 0 0 0 7.376-3.046 10.374 10.374 0 0 0 3.059-7.35Z"/><path fill="#ECD069" d="M170.316 0c0 2.759 1.102 5.4 3.059 7.35a10.452 10.452 0 0 0 7.376 3.046 10.452 10.452 0 0 0-7.376 3.046 10.375 10.375 0 0 0-3.059 7.35c0-2.759-1.102-5.4-3.059-7.35a10.45 10.45 0 0 0-7.376-3.046 10.45 10.45 0 0 0 7.376-3.046A10.375 10.375 0 0 0 170.316 0Z"/><path fill="#464B55" d="M223.209 18.128c0 1.676.667 3.289 1.859 4.473a6.388 6.388 0 0 0 4.496 1.85 6.388 6.388 0 0 0-4.496 1.852 6.305 6.305 0 0 0-1.859 4.472 6.305 6.305 0 0 0-1.859-4.472 6.388 6.388 0 0 0-4.496-1.851 6.388 6.388 0 0 0 4.496-1.851 6.305 6.305 0 0 0 1.859-4.473Zm-53.441 82.306c0 1.676.667 3.289 1.859 4.472a6.385 6.385 0 0 0 4.496 1.851 6.389 6.389 0 0 0-4.496 1.851 6.307 6.307 0 0 0-1.859 4.473 6.311 6.311 0 0 0-1.859-4.473 6.393 6.393 0 0 0-4.497-1.851 6.389 6.389 0 0 0 4.497-1.851 6.307 6.307 0 0 0 1.859-4.472Z"/><path fill="#0A0B0D" fill-rule="evenodd" d="m129.571 58.824-7.337-7.337 1.414-1.414 9.699 9.7-9.699 9.698-1.414-1.414 7.232-7.233h-17.052v-2h17.157Z" clip-rule="evenodd"/></g><defs><clipPath id="a"><path fill="#FFFFFF" d="M0 0h240v120H0z"/></clipPath></defs></svg>