<svg xmlns="http://www.w3.org/2000/svg" fill="none" viewBox="0 0 240 120"><path fill="#464B55" d="M64 32h120v56H64V32Z"/><path fill="#45DAF6" d="M32 0h80v120H32V0Z"/><path fill="#588AF5" d="M32 0h80v16H32V0Zm0 104h80v16H32v-16Z"/><path fill="#0A0B0D" d="M74 8a2 2 0 1 1-4 0 2 2 0 0 1 4 0Z"/><path fill="#0A0B0D" fill-rule="evenodd" d="M76 113.03h-8v-2h8v2Z" clip-rule="evenodd"/><path fill="#588AF5" d="M64 32h48v56H64V32Z"/><path fill="#FFFFFF" fill-rule="evenodd" d="M168 61H80v-2h88v2Zm0 12H80v-2h88v2Z" clip-rule="evenodd"/><path fill="#44C28D" d="M208 32a24 24 0 1 1-48 0 24 24 0 0 1 48 0Z"/><path fill="#588AF5" fill-rule="evenodd" d="M184 56V32h-24a24 24 0 0 0 24 24Z" clip-rule="evenodd"/><path fill="#FFFFFF" fill-rule="evenodd" d="M168 49H80v-2h88v2Z" clip-rule="evenodd"/></svg>