<svg xmlns="http://www.w3.org/2000/svg" fill="none" viewBox="0 0 240 120"><path fill="#FFFFFF" d="m147.92 103 .08.1S135.47 119 120 119s-28-15.9-28-15.9l.08-.1h55.84Z"/><path fill="#45DAF6" d="M208 0H32v104h176V0Z"/><path fill="#588AF5" d="M208 0H32v8h176V0Z"/><path fill="#588AF5" d="M176 0H64v104h112V0Z"/><path fill="#0A0B0D" d="M176 0H64v8h112V0Z"/><path fill="#FFFFFF" d="M92 52.04c0-15.49 12.51-28 28-28s28 12.51 28 28-12.51 28-28 28-28-12.6-28-28Z"/><path fill="#0A0B0D" d="m136 53-24-14v28l24-14Z"/><circle cx="39.6" cy="4.14" r="1" fill="#FFFFFF"/><circle cx="45.6" cy="4.14" r="1" fill="#FFFFFF"/><circle cx="51.6" cy="4.14" r="1" fill="#FFFFFF"/><path fill="#464B55" d="m147.92 104 .08-.1S135.47 88 120 88s-28 15.9-28 15.9l.08.1h55.84Z"/><path fill="#FFFFFF" d="M120 117.4c-7.28 0-13.94-3.7-18.85-7.49a54.27 54.27 0 0 1-7.76-7.36l-.1-.13-.02-.02v-.01l-.79.62-.78.63.01.01.03.04a11.16 11.16 0 0 0 .55.64 56.3 56.3 0 0 0 7.64 7.17c5.05 3.9 12.14 7.9 20.07 7.9 7.92 0 15.02-4 20.06-7.9a56.26 56.26 0 0 0 8.2-7.81l.02-.04.01-.01-.78-.63-.78-.62-.03.03a15.09 15.09 0 0 1-.5.6c-.36.4-.89 1-1.57 1.7a54.32 54.32 0 0 1-5.79 5.2c-4.9 3.78-11.57 7.48-18.84 7.48Z"/><path fill="#44C28D" d="M120 94c-5.54 0-10 4.46-10 10s4.46 10 10 10 10-4.46 10-10-4.46-10-10-10Z"/><path fill="#588AF5" d="M130 104c0-5.54-4.46-10-10-10s-10 4.46-10 10h20Z"/><path fill="#0A0B0D" d="M120 98a6 6 0 1 0 0 12 6 6 0 1 0 0-12Z"/></svg>