<svg xmlns="http://www.w3.org/2000/svg" fill="none" viewBox="0 0 240 120"><path fill="#FFFFFF" d="m147.917 103 .083.103S135.466 119 120 119s-28-15.897-28-15.897l.083-.103h55.834Z"/><path fill="#45DAF6" d="M208 0H32v104h176V0Z"/><path fill="#588AF5" d="M208 0H32v8h176V0Z"/><path fill="#588AF5" d="M176 0H64v104h112V0Z"/><path fill="#0A0B0D" d="M176 0H64v8h112V0Z"/><path fill="#FFFFFF" d="M92 52.04c0-15.488 12.512-28 28-28 15.487 0 28 12.512 28 28 0 15.487-12.513 28-28 28-15.488 0-28-12.6-28-28Z"/><path fill="#0A0B0D" d="m136 53-24-14v28l24-14Z"/><circle cx="39.6" cy="4.14" r="1" fill="#FFFFFF"/><circle cx="45.6" cy="4.14" r="1" fill="#FFFFFF"/><circle cx="51.6" cy="4.14" r="1" fill="#FFFFFF"/><path fill="#464B55" d="m147.917 104 .083-.103S135.466 88 120 88s-28 15.897-28 15.897l.083.103h55.834Z"/><path fill="#FFFFFF" d="M119.998 117.397c-7.274 0-13.937-3.692-18.845-7.483a54.272 54.272 0 0 1-5.788-5.191 46.395 46.395 0 0 1-1.569-1.705 32.303 32.303 0 0 1-.403-.472l-.1-.121-.023-.029-.005-.006-.001-.002-.78.626-.78.625.002.004.009.01.03.037.112.137a47.243 47.243 0 0 0 2.069 2.285 56.3 56.3 0 0 0 6.004 5.385c5.049 3.899 12.144 7.9 20.068 7.9 7.924 0 15.019-4.001 20.067-7.9a56.26 56.26 0 0 0 6.005-5.385 46.894 46.894 0 0 0 2.068-2.285l.113-.137.03-.037.008-.01.003-.004-.78-.625-.78-.626-.006.008-.024.029-.1.121c-.089.107-.225.267-.403.472a45.76 45.76 0 0 1-1.568 1.705 54.322 54.322 0 0 1-5.788 5.191c-4.909 3.791-11.571 7.483-18.845 7.483Z"/><path fill="#44C28D" d="M120 94c-5.536 0-10 4.464-10 10s4.464 10 10 10 10-4.464 10-10-4.464-10-10-10Z"/><path fill="#588AF5" d="M130 104c0-5.535-4.464-10-10-10s-10 4.464-10 10h20Z"/><path fill="#0A0B0D" d="M120 98a5.99 5.99 0 0 0-6 6c0 3.321 2.679 6 6 6s6-2.679 6-6-2.679-6-6-6Z"/></svg>