<svg xmlns="http://www.w3.org/2000/svg" fill="none" viewBox="0 0 240 120"><g clip-path="url(#a)"><path fill="#588AF5" d="M240 0H87v55h153V0Z"/><path fill="#464B55" d="M87.21 54.55a27.24 27.24 0 0 0 27.21-27.28A27.24 27.24 0 0 0 87.22 0 27.24 27.24 0 0 0 60 27.27a27.24 27.24 0 0 0 27.21 27.28Z"/><path fill="#0A0B0D" d="M114.28 27.27c0-15-12.1-27.27-27.2-27.27v54.55a27.15 27.15 0 0 0 27.2-27.28Z"/><path fill="#464B55" d="M0 120h153V65H0v55Z"/><path fill="#588AF5" d="M152.79 120A27.24 27.24 0 0 0 180 92.73a27.24 27.24 0 0 0-27.21-27.28 27.24 27.24 0 0 0-27.21 27.28 27.24 27.24 0 0 0 27.2 27.27Z"/><path fill="#0A0B0D" d="M125.72 92.73c0 15 12.1 27.27 27.2 27.27V65.45a27.15 27.15 0 0 0-27.2 27.28Z"/><path fill="#627EEA" d="M87.21 46.5A19.47 19.47 0 0 0 106.67 27c0-10.77-8.71-19.5-19.46-19.5a19.6 19.6 0 0 0-19.46 19.64A19.36 19.36 0 0 0 87.21 46.5Z"/><path fill="#FFFFFF" d="M87.21 11.73c8.44 0 15.37 6.95 15.37 15.4 0 8.46-6.93 15.42-15.37 15.42a15.46 15.46 0 0 1-15.37-15.41c0-8.46 6.93-15.41 15.37-15.41Zm0-4.1a19.47 19.47 0 0 0-19.46 19.5A19.36 19.36 0 0 0 87.21 46.5 19.47 19.47 0 0 0 106.67 27 19.36 19.36 0 0 0 87.21 7.64Z"/><path fill="#FFFFFF" fill-opacity=".6" d="M87.21 12.55V22.9l8.44 3.95-8.44-14.31Z"/><path fill="#FFFFFF" d="m87.21 12.55-8.43 14.18 8.43-3.96V12.55Z"/><path fill="#FFFFFF" fill-opacity=".6" d="M87.21 33.4v6.96l8.57-12.13-8.57 5.18Z"/><path fill="#FFFFFF" d="M87.21 40.5v-7.1l-8.43-5.04L87.2 40.5Z"/><path fill="#FFFFFF" fill-opacity=".2" d="m87.21 31.77 8.44-5.04-8.44-3.96v9Z"/><path fill="#FFFFFF" fill-opacity=".6" d="m78.78 26.73 8.43 5.04v-9l-8.43 3.96Z"/><path fill="#FFFFFF" d="M152.79 112.36a19.48 19.48 0 0 0 19.46-19.5c0-10.77-8.72-19.5-19.46-19.5a19.48 19.48 0 0 0-19.46 19.5c0 10.77 8.71 19.5 19.46 19.5Z"/><path fill="#FFFFFF" d="M172.25 92.86c0 10.78-8.71 19.5-19.46 19.5a19.47 19.47 0 0 1-19.46-19.5c0-10.77 8.71-19.5 19.46-19.5a19.56 19.56 0 0 1 19.46 19.5Z"/><path fill="#588AF5" d="M152.79 77.32v11.04l9.12 4.1-9.12-15.14Z"/><path fill="#6697FF" d="m152.79 77.32-9.12 15.27 9.12-4.09V77.32Z"/><path fill="#588AF5" d="M152.79 99.68v7.5l9.12-12.95-9.12 5.45Z"/><path fill="#6697FF" d="M152.79 107.18v-7.5l-9.12-5.45 9.12 12.95Zm0-9.28 9.12-5.45-9.12-4.09v9.55Z"/><path fill="#CCDCFF" d="m143.81 92.6 9.12 5.45V88.5l-9.12 4.1Z"/><path fill="#0A0B0D" d="m130.77 25.75 5.63-5.64-1.77-1.77-8.9 8.93 8.89 9.06 1.78-1.75-6.2-6.33H222v-2.5h-91.23Zm-21.91 68.5H18v-2.5h91.1l-6.04-6.05 1.77-1.76 8.9 8.92-8.9 9.06-1.78-1.75 5.81-5.92Z"/></g><defs><clipPath id="a"><path fill="#FFFFFF" d="M0 0h240v120H0z"/></clipPath></defs></svg>