<svg xmlns="http://www.w3.org/2000/svg" fill="none" viewBox="0 0 48 48"><path fill="#588AF5" d="M20.84 13.369h-9.473v25.263h9.474V13.369Zm15.79-4.211h-9.473V34.42h9.474V9.158Z"/><path fill="#588AF5" d="M17.683 10.21h-3.158v31.58h3.158V10.21Z"/><path fill="#464B55" d="M42.947 17.58h-4.21v12.63h4.21c.579 0 1.052-.473 1.052-1.052V18.632c0-.58-.473-1.053-1.052-1.053Zm-33.685 0h-4.21c-.58 0-1.053.473-1.053 1.052v10.526c0 .579.474 1.053 1.053 1.053h4.21V17.579Z"/><path fill="#588AF5" d="M33.472 6h-3.158v31.579h3.158V6Z"/><path fill="#fff" d="M20.84 17.58h-9.473v12.63h9.474V17.58Zm15.79 0h-9.474v12.63h9.474V17.58Z"/><path fill="#464B55" d="M27.157 17.58H20.84v12.63h6.316V17.58Z"/></svg>