<svg xmlns="http://www.w3.org/2000/svg" fill="none" viewBox="0 0 240 240"><path fill="#464B55" d="M0 0h48v24H0V0zm192 216h48v24h-48v-24zm-168 0h48v24H24v-24zM192 0h36v24h-36V0z"/><path fill="#464B55" d="M192 0h48v8h-48V0zM0 216h48v16H0v-16z"/><path fill="#588AF5" d="M48 240h144V0H48v240z"/><path fill="#0A0B0D" d="M120 14a2 2 0 1 0 0-4 2 2 0 0 0 0 4zm8 212h-16v4h16v-4z"/><path fill="#45DAF6" d="M48 216h144V24H48v192z"/><path fill="#44C28D" d="M171 157.5c0 27.89-22.833 50.5-51 50.5-28.166 0-51-22.61-51-50.5S91.834 107 120 107c28.167 0 51 22.61 51 50.5z"/><path fill="#0A0B0D" fill-rule="evenodd" d="M175 157.5c0 30.137-24.662 54.5-55 54.5s-55-24.363-55-54.5S89.662 103 120 103s55 24.363 55 54.5zM120 208c28.167 0 51-22.61 51-50.5S148.167 107 120 107c-28.166 0-51 22.61-51 50.5S91.834 208 120 208z" clip-rule="evenodd"/><path fill="#0A0B0D" d="M171 82.5c0 27.89-22.833 50.5-51 50.5-28.166 0-51-22.61-51-50.5S91.834 32 120 32c28.167 0 51 22.61 51 50.5z"/><path fill="#588AF5" d="M144 83.5c0 12.979-10.745 23.5-24 23.5S96 96.479 96 83.5 106.745 60 120 60s24 10.521 24 23.5z"/><path fill="#0A0B0D" fill-rule="evenodd" d="m150.707 143.707-36.658 36.708-20.757-20.785 1.415-1.413 19.342 19.368 35.243-35.292 1.415 1.414z" clip-rule="evenodd"/><path fill="#588AF5" fill-rule="evenodd" d="M154.29 120c-9.024 8.296-21.065 13.361-34.29 13.361-13.224 0-25.266-5.065-34.29-13.361 9.024-8.296 21.066-13.361 34.29-13.361 13.225 0 25.266 5.065 34.29 13.361z" clip-rule="evenodd"/></svg>