<svg xmlns="http://www.w3.org/2000/svg" fill="none" viewBox="0 0 48 48"><path fill="#ECD069" d="M44 20c0 11.046-8.954 20-20 20S4 31.046 4 20 12.954 0 24 0s20 8.954 20 20z"/><path fill="#0A0B0D" fill-rule="evenodd" d="M24 6c-7.732 0-14 6.268-14 14s6.268 14 14 14 14-6.268 14-14S31.732 6 24 6zM8 20c0-8.837 7.163-16 16-16s16 7.163 16 16-7.163 16-16 16S8 28.837 8 20z" clip-rule="evenodd"/><path fill="#ECD069" fill-rule="evenodd" d="M13.898 46.122 24 25l10.102 21.122A27.931 27.931 0 0 1 24 48a27.93 27.93 0 0 1-10.102-1.878z" clip-rule="evenodd"/><path fill="#C4C4C4" fill-rule="evenodd" d="M15.63 42.5 24 25l8.37 17.5c-2.607.97-5.427 1.5-8.37 1.5a23.95 23.95 0 0 1-8.37-1.5z" clip-rule="evenodd"/><path fill="#588AF5" fill-rule="evenodd" d="M17.365 38.873 24 25l6.635 13.873A19.97 19.97 0 0 1 24 40a19.97 19.97 0 0 1-6.635-1.127z" clip-rule="evenodd"/><path fill="#588AF5" d="M24 40a2 2 0 1 1-4 0 2 2 0 0 1 4 0z"/><path fill="#0A0B0D" fill-rule="evenodd" d="M24 40a2 2 0 0 0-3.96-.392A20.1 20.1 0 0 0 24 40z" clip-rule="evenodd"/><path fill="#0A0B0D" d="M27 34a2 2 0 1 1-4 0 2 2 0 0 1 4 0zm2-14-3.875 1.125L24 25l-1.125-3.875L19 20l3.875-1.125L24 15l1.125 3.875L29 20z"/></svg>