<svg xmlns="http://www.w3.org/2000/svg" fill="none" viewBox="0 0 240 240"><path fill="#464B55" d="M223.993 64.2H15.907v40h208.086v-40Z"/><path fill="#44C28D" d="M199.983 64.2H39.916v160h160.067v-160Z"/><path fill="#588AF5" d="M199.983 64.2H39.916V104h160.067V64.2Z"/><path fill="#464B55" d="M199.983 208.2H39.916v16h160.067v-16Z"/><path fill="#45DAF6" d="M151.963 104H87.937v104.2h64.026V104Z"/><path fill="#ECD069" d="m29.812 135.9-11.404 3.5-3.502 11.4-3.501-11.4L0 135.9l11.405-3.5 3.501-11.4 3.502 11.4 11.404 3.5Z"/><path fill="#588AF5" d="m229.896 22.9-11.405 3.5-3.501 11.4-3.502-11.4-11.405-3.5 11.405-3.5L214.99 8l3.501 11.4 11.405 3.5Z"/><path fill="#45DAF6" d="m240 225.1-11.405 3.5-3.501 11.4-3.502-11.4-11.404-3.5 11.404-3.5 3.502-11.4 3.501 11.4L240 225.1Z"/><path fill="#fff" fill-rule="evenodd" d="m176.47 40.919-56.124 24.2-.792-1.837 56.124-24.2.792 1.837Z" clip-rule="evenodd"/><path fill="#fff" fill-rule="evenodd" d="m119.553 65.118-55.924-24.2.795-1.836 55.923 24.2-.794 1.836Z" clip-rule="evenodd"/><path fill="#fff" fill-rule="evenodd" d="M121.05 0v64h-2V0h2Z" clip-rule="evenodd"/><path fill="#fff" fill-rule="evenodd" d="m119.282 63.36 40.016-48 1.537 1.28-40.017 48-1.536-1.28Z" clip-rule="evenodd"/><path fill="#fff" fill-rule="evenodd" d="m119.282 64.64-40.017-48 1.536-1.28 40.017 48-1.536 1.28Z" clip-rule="evenodd"/><path fill="#fff" d="M180 128a4 4 0 1 0 0-8 4 4 0 0 0 0 8Zm0 64a4 4 0 1 0 0-8 4 4 0 0 0 0 8ZM52 176a4 4 0 1 0 0-8 4 4 0 0 0 0 8Z"/><path fill="#ECD069" d="m107.722 162-46.697 26.95 8.004 13.856 46.697-26.95L107.722 162Z"/><path fill="#588AF5" d="m88.037 192 27.594-16.152-8.004-13.8-19.59 11.452V192Z"/><path fill="#fff" fill-rule="evenodd" d="M224.094 85H16.007v-2h208.087v2Zm-48.02-20H64.027v-2h112.047v2Zm24.009 160H40.017v-2h160.066v2Zm0-16H40.017v-2h160.066v2Z" clip-rule="evenodd"/><path fill="#ECD069" d="m152 121-24 71.5 64-32-40-39.5Z"/><path fill="#588AF5" d="m152 121-24 71.5 24-12V121Z"/><path fill="#fff" fill-rule="evenodd" d="M119.05 104V64h2v40h-2Z" clip-rule="evenodd"/><path fill="#ECD069" d="M88 116c-22.091 0-40 17.909-40 40h80c0-22.091-17.909-40-40-40Z"/><g clip-path="url(#a)"><path fill="#588AF5" d="M88 156h40.3c0-22.1-17.9-40-40-40l-.3 40Z"/></g><defs><clipPath id="a"><path fill="#fff" d="M0 0h40.3v40H0z" transform="translate(88 116)"/></clipPath></defs></svg>