<svg xmlns="http://www.w3.org/2000/svg" fill="none" viewBox="0 0 48 48"><path fill="#A5AAB6" d="M37.5 21C43.299 21 48 16.299 48 10.5S43.299 0 37.5 0 27 4.701 27 10.5 31.701 21 37.5 21zm-27 27C16.299 48 21 43.299 21 37.5S16.299 27 10.5 27 0 31.701 0 37.5 4.701 48 10.5 48z"/><path fill="#606671" d="M24 42.375c10.148 0 18.375-8.227 18.375-18.375S34.148 5.625 24 5.625 5.625 13.852 5.625 24 13.852 42.375 24 42.375z"/><path fill="#464B55" d="M20.025 41.925c1.8-3.9 1.125-8.625-2.1-11.85-3.225-3.225-7.95-3.9-11.85-2.1.75 3.3 2.325 6.45 4.95 9s5.7 4.2 9 4.95zm7.95-35.85c-1.8 3.9-1.125 8.625 2.1 11.85 3.225 3.225 7.95 3.9 11.85 2.1-.75-3.3-2.325-6.45-4.95-9a18.5 18.5 0 0 0-9-4.95z"/><path fill="#fff" d="m28.5 24-3.45 1.05L24 28.5l-1.05-3.45L19.5 24l3.45-1.05L24 19.5l1.05 3.45L28.5 24z"/></svg>