<svg xmlns="http://www.w3.org/2000/svg" fill="none" viewBox="0 0 48 48"><path fill="#464B55" d="M32.51 34.301c5.517 0 9.99-4.479 9.99-10.005 0-5.525-4.473-10.005-9.99-10.005-5.516 0-9.988 4.48-9.988 10.005 0 5.526 4.472 10.005 9.988 10.005Z"/><path fill="#588AF5" d="M19.574 24.296c0 7.131 5.779 12.929 12.888 12.958v5.324A1.43 1.43 0 0 1 31.032 44H6.43A1.43 1.43 0 0 1 5 42.578V5.432C5 4.642 5.64 4 6.43 4h24.602c.79 0 1.43.642 1.43 1.432v5.896c-7.11.03-12.888 5.837-12.888 12.968Z"/><path fill="#fff" d="M32.51 14.291c-5.512 0-9.988 4.475-9.988 10.005 0 5.521 4.466 10.005 9.988 10.005v-20.01Z"/></svg>