<svg xmlns="http://www.w3.org/2000/svg" fill="none" viewBox="0 0 240 121"><path fill="#464B55" d="M35.99 119.695h24v-45.36h-24v45.36Zm48-.69h24v-63h-24v63Zm48-1h24v-78h-24v78ZM204 25.695h-24v93h24v-93Z"/><path fill="#0A0B0D" d="M156 40.005c0 6.65-5.35 12-12 12s-12-5.35-12-12h24Z"/><path fill="#588AF5" d="M132 40.005c0-6.65 5.35-12 12-12s12 5.35 12 12h-24Z"/><path fill="#0A0B0D" d="M108 56.005c0 6.65-5.35 12-12 12s-12-5.35-12-12h24Z"/><path fill="#45DAF6" d="M84 56.005c0-6.65 5.35-12 12-12s12 5.35 12 12H84Z"/><path fill="#588AF5" d="M84 56.005c0-6.65 5.35-12 12-12s12 5.35 12 12H84Z"/><path fill="#0A0B0D" d="M60 74.005c0 6.65-5.35 12-12 12s-12-5.35-12-12h24Z"/><path fill="#588AF5" d="M36 74.005c0-6.65 5.35-12 12-12s12 5.35 12 12H36Z"/><path fill="#fff" d="M240 118.005H0v2h240v-2Z"/><path fill="#464B55" d="M0 104.005h240v-56l-240 56Z"/><path fill="#588AF5" d="M60 90.005v14H36v-8.4l24-5.6Zm48-11.2v25.2H84v-19.6l24-5.6Zm48-11.2v36.4h-24v-30.8l24-5.6Zm48-11.2v47.6h-24v-42l24-5.6Zm0 23.1v16c1.33-3.72 4.28-6.67 8-8a13.257 13.257 0 0 1-8-8Z"/><path fill="#0A0B0D" d="M204 95.505a13.257 13.257 0 0 0-8-8c3.72-1.33 6.67-4.28 8-8v16Z"/><path fill="#464B55" d="M156 7.045v16c1.33-3.72 4.28-6.67 8-8a13.257 13.257 0 0 1-8-8Zm0 16a13.257 13.257 0 0 0-8-8c3.72-1.33 6.67-4.28 8-8v16Zm64 12.96v8a6.604 6.604 0 0 1 4-4 6.604 6.604 0 0 1-4-4Zm0 8a6.604 6.604 0 0 0-4-4 6.604 6.604 0 0 0 4-4v8Z"/><path fill="#fff" fill-rule="evenodd" d="M191 118.455v-73h2v73h-2Z" clip-rule="evenodd"/><path fill="#fff" fill-rule="evenodd" d="m192 40.005 4.71 8.71h-9.41l4.71-8.71H192Z" clip-rule="evenodd"/><path fill="#588AF5" d="M192 40.005c3.96 0 7.82-1.17 11.11-3.37 3.29-2.2 5.85-5.32 7.37-8.98 1.51-3.65 1.91-7.68 1.14-11.56-.77-3.88-2.68-7.44-5.47-10.24-2.8-2.8-6.36-4.7-10.24-5.47-3.88-.77-7.9-.38-11.56 1.14a20.025 20.025 0 0 0-8.98 7.37 19.992 19.992 0 0 0 2.49 25.25c3.75 3.75 8.84 5.86 14.14 5.86Z"/><path fill="#0A0B0D" fill-rule="evenodd" d="M185.497 4.3a16.972 16.972 0 0 1 9.819-.966 17.02 17.02 0 0 1 8.701 4.653 17.026 17.026 0 0 1 4.654 8.701 16.977 16.977 0 0 1-.967 9.82A16.998 16.998 0 0 1 192 37.004c-4.506 0-8.83-1.796-12.017-4.983A17.003 17.003 0 0 1 175 20.004c0-3.368.999-6.651 2.869-9.446a17.025 17.025 0 0 1 7.628-6.257Zm9.427.995a14.971 14.971 0 0 0-8.661.853 15.02 15.02 0 0 0-6.732 5.523A14.975 14.975 0 0 0 177 20.004c0 3.974 1.584 7.79 4.397 10.603A15.003 15.003 0 0 0 192 35.004a15 15 0 0 0 13.856-9.262 14.967 14.967 0 0 0 .853-8.662 15.015 15.015 0 0 0-4.106-7.679 15.023 15.023 0 0 0-7.679-4.106Z" clip-rule="evenodd"/><path fill="#fff" d="M192 9.654a17.137 17.137 0 0 1-10.35 10.35c4.81 1.72 8.63 5.53 10.35 10.35 1.72-4.81 5.53-8.63 10.35-10.35A17.137 17.137 0 0 1 192 9.654Z"/></svg>