<svg xmlns="http://www.w3.org/2000/svg" fill="none" viewBox="0 0 48 48"><path fill="#464B55" d="M31.51 35.36C29.45 40.98 24.04 45 17.7 45 9.58 45 3 38.42 3 30.3c0-6.34 4.02-11.75 9.64-13.81-.03.4-.04.8-.04 1.21 0 9.76 7.94 17.7 17.7 17.7.41 0 .81-.01 1.21-.04Z"/><path fill="#588AF5" d="M15.6 17.7c0 8.12 6.58 14.7 14.7 14.7S45 25.82 45 17.7 38.41 3 30.3 3c-8.12 0-14.7 6.58-14.7 14.7Z"/><path fill="#fff" d="M17.7 15.6c-.66 0-1.31.06-1.96.14-.09.64-.14 1.29-.14 1.96 0 8.12 6.58 14.7 14.7 14.7.66 0 1.31-.06 1.96-.14.09-.64.14-1.29.14-1.96 0-8.12-6.58-14.7-14.7-14.7Z"/></svg>