<svg xmlns="http://www.w3.org/2000/svg" fill="none" viewBox="0 0 240 120"><path fill="#464B55" d="M32 64h72v56H32V64Z"/><path fill="#588AF5" d="M104 64c-15.454 0-28 12.546-28 28s12.546 28 28 28 28-12.546 28-28-12.546-28-28-28Z"/><path fill="#0A0B0D" fill-rule="evenodd" d="M81 92c0-12.695 10.305-23 23-23s23 10.305 23 23-10.305 23-23 23-23-10.305-23-23Zm23-21c-11.59 0-21 9.41-21 21s9.41 21 21 21 21-9.41 21-21-9.41-21-21-21Z" clip-rule="evenodd"/><path fill="#464B55" d="M60 0C44.546 0 32 12.546 32 28s12.546 28 28 28 28-12.546 28-28S75.454 0 60 0Z"/><path fill="#0A0B0D" fill-rule="evenodd" d="M37 28C37 15.305 47.305 5 60 5s23 10.305 23 23-10.305 23-23 23-23-10.305-23-23ZM60 7c-11.59 0-21 9.41-21 21s9.41 21 21 21 21-9.41 21-21S71.59 7 60 7Z" clip-rule="evenodd"/><path fill="#0A0B0D" fill-rule="evenodd" d="m50.807 35.778 16.971-16.97 1.414 1.414-16.97 16.97-1.415-1.414Z" clip-rule="evenodd"/><path fill="#0A0B0D" fill-rule="evenodd" d="m52.222 18.808 16.97 16.97-1.414 1.415-16.97-16.971 1.414-1.414Z" clip-rule="evenodd"/><path fill="#464B55" d="M60 0C44.546 0 32 12.546 32 28s12.546 28 28 28 28-12.546 28-28S75.454 0 60 0Z"/><path fill="#0A0B0D" fill-rule="evenodd" d="M37 28C37 15.305 47.305 5 60 5s23 10.305 23 23-10.305 23-23 23-23-10.305-23-23ZM60 7c-11.59 0-21 9.41-21 21s9.41 21 21 21 21-9.41 21-21S71.59 7 60 7Z" clip-rule="evenodd"/><path fill="#0A0B0D" d="m58.586 28-7.778 7.778 1.414 1.414L60 29.414l7.778 7.779 1.414-1.415L61.414 28l7.778-7.778-1.414-1.414L60 26.586l-7.778-7.778-1.414 1.414L58.586 28Z"/><path fill="#0A0B0D" fill-rule="evenodd" d="m99.836 101.62-.058.058-8.485-8.485 1.414-1.415 7.129 7.129 15.613-15.614 1.415 1.414-16.971 16.971-.057-.058Z" clip-rule="evenodd"/><path fill="#ECD069" d="M180 64c-15.454 0-28 12.546-28 28s12.546 28 28 28 28-12.546 28-28-12.546-28-28-28Z"/><path fill="#588AF5" d="M208 0h-28v56h28V0Z"/><path fill="#fff" d="M180 0h-28v56h28V0Z"/><path fill="#464B55" d="m152 56 28 36 28-36h-56Z"/><path fill="#588AF5" fill-rule="evenodd" d="M197.188 69.901A27.871 27.871 0 0 0 180 64a27.874 27.874 0 0 0-17.188 5.901L180 92l17.188-22.099Z" clip-rule="evenodd"/><path fill="#0A0B0D" fill-rule="evenodd" d="M189.333 80h-18.666L180 92l9.333-12Z" clip-rule="evenodd"/></svg>