<svg xmlns="http://www.w3.org/2000/svg" fill="none" viewBox="0 0 48 48"><path fill="#464B55" fill-rule="evenodd" d="M29.87 38.67a2.94 2.94 0 0 1-2.94 2.93H24A17.6 17.6 0 1 1 41.6 24a7.82 7.82 0 0 1-7.82 7.82h-6.85a2 2 0 0 0-1.95 2 2 2 0 0 0 1.95 1.95 2.94 2.94 0 0 1 2.94 2.9z" clip-rule="evenodd"/><path fill="#588AF5" d="M0 24A24 24 0 0 1 24 0v48A24 24 0 0 1 0 24z"/><path fill="#fff" d="M36 26.4a3.2 3.2 0 1 0 0-6.4 3.2 3.2 0 0 0 0 6.4zm-4-8a3.2 3.2 0 1 0 0-6.4 3.2 3.2 0 0 0 0 6.4zm-8-9.6a3.2 3.2 0 1 1 0 6.4V8.8z"/><path fill="#fff" d="M32 12a3.2 3.2 0 1 0 0 6.4 3.2 3.2 0 0 0 0-6.4z"/><path fill="#0A0B0D" fill-rule="evenodd" d="M11.555 36.445A17.6 17.6 0 0 1 24 6.4v2.4a3.2 3.2 0 0 0 0 6.4v26.4a17.6 17.6 0 0 1-12.445-5.155zM15.201 23.2a3.2 3.2 0 1 0-6.4 0 3.2 3.2 0 0 0 6.4 0zm-1.463-10.263a3.2 3.2 0 1 1 4.525 4.525 3.2 3.2 0 0 1-4.525-4.525zM16 28a3.2 3.2 0 1 0 0 6.4 3.2 3.2 0 0 0 0-6.4z" clip-rule="evenodd"/></svg>