<svg xmlns="http://www.w3.org/2000/svg" fill="none" viewBox="0 0 96 96"><path fill="#ECD069" d="M48 44.8c10.604 0 19.2-8.596 19.2-19.2S58.604 6.4 48 6.4c-10.603 0-19.2 8.596-19.2 19.2S37.397 44.8 48 44.8Z"/><path fill="#464B55" d="M48 96 0 67.2V0l48 28.8V96Z"/><path fill="#588AF5" fill-rule="evenodd" d="M30.29 18.174 48 28.8v16c-10.603 0-19.2-8.596-19.2-19.2 0-2.633.53-5.142 1.49-7.426Z" clip-rule="evenodd"/><path fill="#588AF5" d="m48 96 48-28.8V0L48 28.8V96Z"/><path fill="#0A0B0D" fill-rule="evenodd" d="M48 44.8c10.604 0 19.2-8.596 19.2-19.2 0-2.633-.53-5.142-1.49-7.426L48 28.8v16Z" clip-rule="evenodd"/><path fill="#fff" d="m5.139 41.565 1.096-1.79L42.06 61.701l-1.096 1.791L5.14 41.565Zm0 12 1.096-1.79L42.06 73.701l-1.096 1.791L5.14 53.565Zm84.121-12-1.096-1.79-35.826 21.927 1.096 1.791L89.26 41.565Zm0 12-1.096-1.79-35.826 21.927 1.096 1.791L89.26 53.565Z"/></svg>