<svg xmlns="http://www.w3.org/2000/svg" fill="none" viewBox="0 0 48 48"><path fill="#588AF5" d="M34.131 39.096V18.643L14.896 8.417c-.426-.183-.852.06-.852.548v20.452l19.235 10.227c.365.182.852-.122.852-.548Z"/><path fill="#464B55" d="M43.566 12.922 24.94 3.06c-.426-.183-.852.06-.852.547v6.94l11.2 5.965 1.278.67v13.514l6.757 3.591c.426.183.852-.06.852-.548V14.017c0-.487-.243-.852-.609-1.095Z"/><path fill="#fff" d="m24.087 24 10.043 5.356V18.643l-10.043-5.356V24Z"/><path fill="#464B55" d="M4 14.26v19.723c0 .426.243.852.609 1.034l18.565 9.922c.426.183.852-.06.852-.548V24L4.852 13.774c-.365-.244-.852.06-.852.487Z"/><path fill="#0A0B0D" d="m14.043 29.357 10.044 5.356V24l-10.044-5.356v10.713Z"/></svg>