<svg xmlns="http://www.w3.org/2000/svg" fill="none" viewBox="0 0 240 240"><path fill="#fff" fill-rule="evenodd" d="M131.5 80V51.5h2V80h-2Z" clip-rule="evenodd"/><path fill="#fff" fill-rule="evenodd" d="m137.707 47.707-50 50-1.414-1.414 50-50 1.414 1.414Z" clip-rule="evenodd"/><path fill="#fff" fill-rule="evenodd" d="m85.92 45.843 34.527 17.263-.894 1.789-29.474-14.737 13.831 30.429-1.82.827-16.17-35.571Z" clip-rule="evenodd"/><path fill="#fff" fill-rule="evenodd" d="M90.331 78.891c-1.838 2.505-2.702 4.642-2.839 5.733l-1.984-.248c.197-1.577 1.282-4.04 3.21-6.668 1.953-2.66 4.835-5.583 8.748-8.054l1.068 1.691c-3.687 2.33-6.389 5.074-8.203 7.546Zm20.792-16.289a22.366 22.366 0 0 0-4.88 4.066 16.889 16.889 0 0 0-3.718 6.727 15.075 15.075 0 0 0-.462 2.285c-.032.274-.048.488-.056.628-.004.07-.005.123-.006.155l-.001.034v.003h-1l-1-.001v-.029l.001-.06c.002-.052.004-.123.009-.212.01-.18.029-.435.067-.755.076-.638.226-1.533.523-2.59a18.879 18.879 0 0 1 4.157-7.523 24.33 24.33 0 0 1 5.32-4.434 20.472 20.472 0 0 1 1.824-1.002 13.286 13.286 0 0 1 .678-.304l.042-.017.013-.005.004-.002h.002l.36.932.359.934h-.003l-.024.01-.112.048c-.101.043-.254.111-.452.206a18.6 18.6 0 0 0-1.645.905Zm2.237-1.17c.001 0 .001 0 0 0Zm18.529-8.438c-14.18-1.576-22.098 2.98-24.158 5.188l-1.462-1.364c2.606-2.793 11.221-7.436 25.841-5.812l-.221 1.988Zm-21.755-6.221C105.985 50.169 105 54.44 105 56h-2c0-2.107 1.216-6.968 5.867-10.773l1.267 1.547Zm-8.749 8.65c-4.457 1.857-5.753 5.034-5.888 6.66l-1.993-.166c.198-2.375 1.969-6.198 7.112-8.34l.769 1.846ZM83.367 67.226c4.725-3.866 10.523-3.58 12.893-2.942l-.52 1.932c-1.963-.529-7.031-.776-11.106 2.558l-1.267-1.548ZM120 181c-32.198 0-53.759-10.727-60.625-16.22l1.25-1.561C67.091 168.393 88.196 179 120 179s52.908-10.607 59.375-15.781l1.249 1.561C173.758 170.273 152.197 181 120 181Z" clip-rule="evenodd"/><path fill="#588AF5" d="M152 48h16v64h-16V48Zm-80 0h16v64H72V48Z"/><path fill="#ECD069" d="M152 112v16H88v-16h64Zm0-80v16H88V32h64Z"/><path fill="#0A0B0D" d="M88 32v16H72V32h16Zm0 80v16H72v-16h16Zm80-80v16h-16V32h16Zm0 80v16h-16v-16h16Z"/><path fill="#588AF5" d="M52 160h8v48h-8v-48Zm128 0h8v48h-8v-48Z"/><path fill="#ECD069" d="M64 152a8 8 0 1 1-16 0 8 8 0 0 1 16 0Zm128 0a8 8 0 1 1-16 0 8 8 0 0 1 16 0Z"/><path fill="#588AF5" d="M44 160h24v4H44v-4Zm128 0h24v4h-24v-4Z"/><path fill="#0A0B0D" d="M52 160h8v4h-8v-4Zm128 0h8v4h-8v-4Z"/><path fill="#464B55" fill-rule="evenodd" d="M120 183.22c-21.377 0-38.157-4.662-49.197-9.47l2.395-5.501c10.328 4.497 26.295 8.971 46.802 8.971v6Zm.001 0c21.377 0 38.157-4.662 49.197-9.47l-2.395-5.501c-10.328 4.497-26.295 8.971-46.802 8.971v6Z" clip-rule="evenodd"/><path fill="#464B55" d="M200 48h16v64h-16V48ZM40 112H24V48h16v64Zm200 0v16h-24v-16h24ZM0 48V32h24v16H0Zm240-16v16h-24V32h24ZM0 128v-16h24v16H0Z"/><path fill="#588AF5" d="M216 32v16h-16V32h16ZM24 128v-16h16v16H24Zm192-16v16h-16v-16h16ZM24 48V32h16v16H24Z"/><path fill="#0A0B0D" fill-rule="evenodd" d="M144 121H96v-2h48v2Zm-65-17V56h2v48h-2Zm80 0V56h2v48h-2Zm-15-63H96v-2h48v2Z" clip-rule="evenodd"/><path fill="#fff" d="M129 80.5a3.5 3.5 0 1 1 7 0v9a3.5 3.5 0 1 1-7 0v-9Z"/><path fill="#fff" fill-rule="evenodd" d="M142.853 76.521 138.894 83H136v-2h1.772l3.375-5.522 1.706 1.043Zm-20.706 0L126.106 83H129v-2h-1.772l-3.375-5.522-1.706 1.043Zm20.659 15.889L138.84 87H136v2h1.827l3.367 4.592 1.612-1.183Zm-20.612 0L126.16 87H129v2h-1.827l-3.367 4.592-1.612-1.183ZM142 86h-6v-2h6v2Zm-19 0h6v-2h-6v2Z" clip-rule="evenodd"/></svg>