<svg xmlns="http://www.w3.org/2000/svg" fill="none" viewBox="0 0 240 240"><path fill="#588AF5" d="M48 240h144V0H48v240z"/><path fill="#0A0B0D" d="M120 14a2 2 0 1 0 0-4 2 2 0 0 0 0 4zm8 212h-16v4h16v-4z"/><path fill="#464B55" d="M48 216h144V24H48v192z"/><path fill="#ECD069" d="M192 113c26.51 0 48 21.49 48 48s-21.49 48-48 48-48-21.49-48-48 21.49-48 48-48z"/><path fill="#588AF5" fill-rule="evenodd" d="M192 113c-26.51 0-48 21.49-48 48s21.49 48 48 48v-96z" clip-rule="evenodd"/><path fill="#fff" d="M228 161c0 19.882-16.118 36-36 36s-36-16.118-36-36 16.118-36 36-36 36 16.118 36 36z"/><path fill="#0A0B0D" fill-rule="evenodd" d="M215 160.5c0-12.994-10.188-23.5-23.276-23.5v-2C205.947 135 217 146.432 217 160.5c0 14.061-11.135 25.5-24.921 25.5-12.835 0-23.373-9.916-24.765-22.63l-4.504 6.217-1.62-1.174 6.83-9.428 8.671 8.292-1.382 1.446-6.028-5.765C170.481 174.8 180.249 184 192.079 184 204.716 184 215 173.501 215 160.5zM100.071 182c18.778 0 34-15.222 34-34s-15.222-34-34-34c-18.777 0-34 15.222-34 34s15.223 34 34 34zm0 2c19.883 0 36-16.118 36-36s-16.117-36-36-36c-19.882 0-36 16.118-36 36s16.118 36 36 36z" clip-rule="evenodd"/><path fill="#fff" d="M184 82c0 15.464-12.536 28-28 28s-28-12.536-28-28 12.536-28 28-28 28 12.536 28 28zM96 52c0 11.046-8.954 20-20 20s-20-8.954-20-20 8.954-20 20-20 20 8.954 20 20zm32.071 96c0 15.464-12.536 28-28 28s-28-12.536-28-28 12.536-28 28-28 28 12.536 28 28z"/><path fill="#fff" fill-rule="evenodd" d="M100.071 174c14.36 0 26-11.641 26-26s-11.64-26-26-26-26 11.641-26 26 11.64 26 26 26zm0 2c15.464 0 28-12.536 28-28s-12.536-28-28-28-28 12.536-28 28 12.536 28 28 28z" clip-rule="evenodd"/><path fill="#0A0B0D" fill-rule="evenodd" d="M156 100c9.941 0 18-8.059 18-18s-8.059-18-18-18-18 8.059-18 18 8.059 18 18 18zm0 2c11.046 0 20-8.954 20-20s-8.954-20-20-20-20 8.954-20 20 8.954 20 20 20zM90 52c0 7.732-6.268 14-14 14s-14-6.268-14-14 6.268-14 14-14 14 6.268 14 14zM76 64c6.627 0 12-5.373 12-12s-5.373-12-12-12-12 5.373-12 12 5.373 12 12 12z" clip-rule="evenodd"/><path fill="#464B55" d="M80 52a4 4 0 1 1-8 0 4 4 0 0 1 8 0zm32.071 96c0 6.627-5.372 12-12 12-6.627 0-12-5.373-12-12s5.373-12 12-12c6.628 0 12 5.373 12 12z"/><path fill="#464B55" d="M104.072 148a4 4 0 1 1-8 0 4 4 0 0 1 8 0z"/><path fill="#0A0B0D" fill-rule="evenodd" d="M100.071 145a3 3 0 1 0 0 6 3 3 0 0 0 0-6zm-5 3a5 5 0 1 1 10.001 0 5 5 0 0 1-10 0z" clip-rule="evenodd"/><path fill="#464B55" d="M160.5 82a4 4 0 1 1-8 0 4 4 0 0 1 8 0z"/><path fill="#0A0B0D" fill-rule="evenodd" d="M156.5 79a3 3 0 1 0 0 6 3 3 0 0 0 0-6zm-5 3a5 5 0 1 1 10 0 5 5 0 0 1-10 0zM88.392 45.548l42.5 84-1.785.903-42.5-84 1.785-.903z" clip-rule="evenodd"/><path fill="#0A0B0D" fill-rule="evenodd" d="m139.865 74.002-41.5 71.5-1.73-1.004 41.5-71.5 1.73 1.004zm27.271 24.769-63 52-1.273-1.542 63-52 1.273 1.542zM64 51.48l2 98-2 .041-2-98 2-.041z" clip-rule="evenodd"/><path fill="#464B55" d="M48 0H0v24h48V0zm0 216H0v24h48v-24z"/></svg>