<svg xmlns="http://www.w3.org/2000/svg" fill="none" viewBox="0 0 240 120"><path fill="#CED2DB" d="M240 0h-8v8h8V0Z"/><path fill="#464B55" d="M240 112h-8v8h8v-8Zm-64-96H68v88h108V16Z"/><path fill="#44C28D" d="M120.8 104c24.301 0 44-19.7 44-44s-19.699-44-44-44c-24.3 0-44 19.7-44 44s19.7 44 44 44Z"/><path fill="#588AF5" d="M173.6 104c24.301 0 44-19.7 44-44s-19.699-44-44-44-44 19.7-44 44 19.699 44 44 44Z"/><path fill="#ECD069" d="M68 104c24.3 0 44-19.7 44-44S92.3 16 68 16 24 35.7 24 60s19.7 44 44 44Z"/><path fill="#fff" d="M68 24.8c19.4 0 35.2 15.8 35.2 35.2 0 19.4-15.8 35.2-35.2 35.2-19.4 0-35.2-15.8-35.2-35.2 0-19.4 15.8-35.2 35.2-35.2Z"/><path fill="#8E76FF" d="M98.2 60c0-16.7-13.5-30.2-30.2-30.2S37.8 43.3 37.8 60 51.3 90.2 68 90.2 98.2 76.7 98.2 60Z"/><path fill="#fff" fill-opacity=".6" d="M67.1 38.3v16l13.2 6.1-13.2-22.1Z"/><path fill="#fff" d="M67.1 38.3 53.9 60.4l13.2-6.1v-16Z"/><path fill="#fff" fill-opacity=".6" d="M67.1 70.8v10.9l13.2-18.8-13.2 7.9Z"/><path fill="#fff" d="M67.1 81.7V70.8l-13.2-7.9 13.2 18.8Z"/><path fill="#fff" fill-opacity=".2" d="m67.1 68.3 13.2-7.9-13.2-6.1v14Z"/><path fill="#fff" fill-opacity=".6" d="m53.9 60.4 13.2 7.9V54.4l-13.2 6Z"/><path fill="#0A0B0D" d="M147.2 24.8c10.7 8 17.6 20.8 17.6 35.2 0 14.4-6.9 27.2-17.6 35.2-10.7-8-17.6-20.8-17.6-35.2 0-14.4 6.9-27.2 17.6-35.2ZM182.4 60c0 14.4 6.9 27.2 17.6 35.2 10.7-8 17.6-20.8 17.6-35.2 0-14.4-6.9-27.2-17.6-35.2-10.7 8-17.6 20.8-17.6 35.2Z"/><path fill="#45DAF6" d="M182.4 60c0 14.4 6.9 27.2 17.6 35.2 10.7-8 17.6-20.8 17.6-35.2 0-14.4-6.9-27.2-17.6-35.2-10.7 8-17.6 20.8-17.6 35.2Z"/><path fill="#464B55" d="M8 0H0v8h8V0Zm0 112H0v8h8v-8Z"/></svg>