<svg xmlns="http://www.w3.org/2000/svg" fill="none" viewBox="0 0 120 120"><path fill="#464B55" d="M16 24h64v44H16V24z"/><path fill="#fff" fill-rule="evenodd" d="M37 83.5V48h-2v37.5h22.5v-2H37z" clip-rule="evenodd"/><path fill="#ECD069" d="M104 80c0 13.255-10.745 24-24 24S56 93.255 56 80s10.745-24 24-24 24 10.745 24 24z"/><path fill="#588AF5" fill-rule="evenodd" d="M80 56v12H59.21C63.36 60.826 71.118 56 80 56z" clip-rule="evenodd"/><path fill="#464B55" d="m30 16-6 8h24l-6-8H30z"/><path fill="#000" fill-rule="evenodd" d="M80 63c-9.389 0-17 7.611-17 17s7.611 17 17 17 17-7.611 17-17-7.611-17-17-17zM61 80c0-10.493 8.507-19 19-19s19 8.507 19 19-8.507 19-19 19-19-8.507-19-19z" clip-rule="evenodd"/><path fill="#000" fill-rule="evenodd" d="m88.207 72.707-15.5 15.5-1.414-1.414 15.5-15.5 1.414 1.414zM85.5 83a1.5 1.5 0 1 0 0 3 1.5 1.5 0 0 0 0-3zM82 84.5a3.5 3.5 0 1 1 7 0 3.5 3.5 0 0 1-7 0zM74.5 73a1.5 1.5 0 1 0 0 3 1.5 1.5 0 0 0 0-3zM71 74.5a3.5 3.5 0 1 1 7 0 3.5 3.5 0 0 1-7 0z" clip-rule="evenodd"/><path fill="#fff" fill-rule="evenodd" d="m36 46.586 10.207 10.207-1.414 1.414L36 49.414l-8.793 8.793-1.414-1.414L36 46.586z" clip-rule="evenodd"/></svg>