<svg xmlns="http://www.w3.org/2000/svg" fill="none" viewBox="0 0 240 120"><path fill="#464B55" d="M240 104H0v16h240v-16z"/><path fill="#44C28D" d="M240 64H0v40h240V64z"/><path fill="#44C28D" d="M240 64H0v40h240V64z"/><path fill="#464B55" d="M45.317.06c-13.239 0-23.97 10.731-23.97 23.97 0 13.238 10.731 23.97 23.97 23.97 13.238 0 23.97-10.732 23.97-23.97 0-13.24-10.732-23.97-23.97-23.97z"/><path fill="#464B55" d="M188.557 87.225 38.153 46.924 50.557.628 200.962 40.93l-12.405 46.296z"/><path fill="#588AF5" d="m101.882 64 86.675 23.225L194.78 64h-92.898z"/><path fill="#ECD069" d="M194.654 40c-13.255 0-24 10.745-24 24s10.745 24 24 24 24-10.745 24-24-10.745-24-24-24z"/><path fill="#0A0B0D" fill-rule="evenodd" d="M194.8 47.146c-9.389 0-17 7.611-17 17 0 9.39 7.611 17 17 17s17-7.61 17-17c0-9.389-7.611-17-17-17zm-19 17c0-10.493 8.506-19 19-19 10.493 0 19 8.507 19 19 0 10.494-8.507 19-19 19-10.494 0-19-8.506-19-19z" clip-rule="evenodd"/><path fill="#0A0B0D" fill-rule="evenodd" d="m104.491 39.148 94.419 25.103-.514 1.933-94.419-25.103.514-1.933z" clip-rule="evenodd"/><path fill="#0A0B0D" fill-rule="evenodd" d="m45.523 23.481 94.419 25.102-.514 1.933-94.419-25.102.514-1.933zM198.146 65.11l-6.533-12 1.757-.957 7.489 13.757-13.757 7.49-.956-1.757 12-6.533z" clip-rule="evenodd"/></svg>