<svg xmlns="http://www.w3.org/2000/svg" fill="none" viewBox="0 0 120 120"><path fill="#1D1D1E" d="M34.391 109.034c4.616 0 8.358-.158 8.358-.352 0-.194-3.742-.351-8.358-.351-4.616 0-8.358.157-8.358.351 0 .194 3.742.352 8.358.352zm56.027 0c4.616 0 8.358-.158 8.358-.352 0-.194-3.742-.351-8.358-.351-4.617 0-8.359.157-8.359.351 0 .194 3.742.352 8.359.352zm-29.364.478c6.358 0 11.513-.372 11.513-.83 0-.458-5.155-.829-11.513-.829-6.359 0-11.514.371-11.514.829 0 .458 5.155.83 11.514.83zm-47.761-.478c4.617 0 8.359-.158 8.359-.352 0-.194-3.742-.351-8.359-.351-4.616 0-8.358.157-8.358.351 0 .194 3.742.352 8.358.352z"/><path fill="#4A4E56" d="M61.75 50.74h-.013c-1.13 0-2.049-1.833-2.049-4.097 0-2.264.918-4.097 2.049-4.097.242 0 .47.089.686.242-.024.035-.044.069-.075.103-.458.519-.536 1.73-.772 2.383-.287.792-.53 1.52-.495 2.376.041 1.045.352 2.073.67 3.09zm-23.914 4.098c.229 0 .447.078.652.218-.044.16-.13.321-.28.472-1.744 1.703-1.236 5.08-.341 7.504-.01 0-.02.004-.03.004-1.13 0-2.05-1.834-2.05-4.097 0-2.268.916-4.101 2.05-4.101z" opacity=".7"/><path fill="#A1AEC2" d="M60.371 46.643c.014.758.123 1.52.383 2.189.119.334.28.648.467.88.093.12.195.202.284.263a.63.63 0 0 0 .235.082.585.585 0 0 0 .243-.068c.095-.058.201-.136.3-.256.202-.229.372-.543.502-.877.27-.676.4-1.445.424-2.213.01-.768-.072-1.547-.322-2.25-.126-.348-.29-.676-.498-.929a1.274 1.274 0 0 0-.328-.3.738.738 0 0 0-.324-.106.739.739 0 0 0-.325.106 1.286 1.286 0 0 0-.317.307c-.198.26-.345.594-.454.943-.215.703-.287 1.471-.27 2.23zm-1.366 0c.017-.447.062-.895.14-1.335a6.87 6.87 0 0 1 .396-1.3c.178-.424.407-.84.738-1.22.16-.19.365-.365.604-.512.243-.143.543-.236.854-.242.31.007.608.095.853.242.236.147.44.324.595.52.32.385.532.805.693 1.228.328.85.464 1.735.484 2.62.014.883-.078 1.778-.382 2.656a4.36 4.36 0 0 1-.69 1.283c-.16.205-.372.4-.624.56a1.94 1.94 0 0 1-.932.28 1.955 1.955 0 0 1-.943-.266 2.62 2.62 0 0 1-.638-.553c-.342-.407-.557-.844-.724-1.28-.318-.885-.424-1.786-.424-2.68zM36.47 58.935c.014.758.123 1.52.383 2.189.12.334.28.648.467.88.093.12.195.202.284.264a.645.645 0 0 0 .235.081.585.585 0 0 0 .243-.068c.095-.058.201-.136.3-.256.202-.229.373-.543.502-.877.27-.676.4-1.445.424-2.213.01-.768-.072-1.547-.321-2.25-.127-.348-.29-.676-.499-.929a1.275 1.275 0 0 0-.328-.3.74.74 0 0 0-.324-.106.74.74 0 0 0-.324.106 1.28 1.28 0 0 0-.318.307c-.198.26-.345.594-.454.943-.215.703-.287 1.471-.27 2.23zm-1.365 0c.017-.447.061-.895.14-1.335.088-.44.218-.877.396-1.3.177-.424.406-.84.737-1.22.16-.19.365-.365.604-.512.243-.143.543-.235.854-.242.31.007.608.095.854.242.235.147.44.325.594.52.32.385.532.805.693 1.228.328.85.464 1.735.485 2.62.013.883-.079 1.778-.383 2.656a4.36 4.36 0 0 1-.69 1.283c-.16.205-.372.4-.624.56a1.94 1.94 0 0 1-.932.28 1.955 1.955 0 0 1-.943-.266 2.62 2.62 0 0 1-.638-.553c-.342-.407-.557-.844-.724-1.28-.318-.885-.423-1.786-.423-2.68zm30.367 29.699c.038.556.069 1.14.123 1.71.044.574.092 1.147.157 1.721a73.05 73.05 0 0 0 .448 3.425c.184 1.133.416 2.26.679 3.377.15.55.28 1.113.468 1.652.15.557.372 1.082.553 1.629l.01.027a.344.344 0 0 1-.215.434.345.345 0 0 1-.406-.157c-.294-.519-.591-1.049-.83-1.595-.256-.543-.454-1.106-.67-1.666a30.172 30.172 0 0 1-.945-3.452 36.298 36.298 0 0 1-.546-3.524c-.123-1.184-.205-2.356-.192-3.571a.681.681 0 0 1 1.362-.04l.004.03zm-7.266.067c-.085 1.295-.266 2.548-.484 3.807a41.566 41.566 0 0 1-.837 3.74c-.358 1.228-.744 2.45-1.232 3.639-.499 1.185-1.076 2.342-1.793 3.414a.341.341 0 0 1-.475.092.338.338 0 0 1-.123-.419l.007-.018c.246-.57.52-1.119.724-1.707.24-.567.42-1.164.618-1.745.365-1.18.69-2.38.956-3.591a77.66 77.66 0 0 0 .72-3.657c.11-.611.209-1.226.294-1.84.103-.612.181-1.237.263-1.837l.003-.018a.684.684 0 0 1 .769-.583.69.69 0 0 1 .59.723zm12.442-46.346c.13 1.536.044 3.046-.164 4.558a23.887 23.887 0 0 1-1.082 4.442c-.24.728-.564 1.424-.864 2.13-.17.346-.352.684-.526 1.029-.088.17-.174.344-.27.508l-.31.489c-.779 1.331-1.796 2.51-2.865 3.612a.68.68 0 0 1-1.01-.912l.037-.044a55.3 55.3 0 0 1 .7-.82l.352-.406c.116-.137.215-.287.32-.43l.646-.86c.205-.294.386-.605.58-.909l.287-.454.26-.471.515-.95c.297-.655.622-1.3.86-1.983a26.012 26.012 0 0 0 1.257-4.162l.215-1.072c.055-.362.12-.72.164-1.083.11-.72.174-1.458.212-2.171v-.024a.345.345 0 0 1 .358-.324c.178.003.315.14.328.307zm-17.41-3.213c.106 1.67.297 3.36.577 5.012.27 1.66.636 3.299 1.09 4.9a28.481 28.481 0 0 0 1.796 4.633c.365.741.788 1.445 1.229 2.134.45.687.956 1.325 1.482 1.947l.013.013a.682.682 0 0 1-1.014.915 17.424 17.424 0 0 1-1.683-2.065 20.486 20.486 0 0 1-1.342-2.285c-.799-1.57-1.373-3.236-1.83-4.916a32.166 32.166 0 0 1-.922-5.122c-.157-1.728-.222-3.448-.082-5.186a.344.344 0 0 1 .369-.314c.17.013.304.153.314.317l.003.017zM46.97 56.149c.075 1.45-.048 2.871-.274 4.291a23.408 23.408 0 0 1-1.113 4.17 18.708 18.708 0 0 1-1.99 3.871c-.793 1.233-1.827 2.295-2.923 3.261a.682.682 0 0 1-.946-.98l.048-.048c.232-.242.468-.481.707-.717l.355-.355.32-.39.65-.767.58-.823c.748-1.117 1.427-2.295 1.926-3.558.54-1.25.959-2.554 1.287-3.886a25.02 25.02 0 0 0 .416-2.02c.127-.677.209-1.37.27-2.04l.003-.02a.341.341 0 0 1 .373-.307c.17.014.3.15.31.318zm-6.413 40.003a31.14 31.14 0 0 1 .465 3.042 40.2 40.2 0 0 1 .194 3.066c0 1.028.004 2.055-.102 3.083-.102 1.028-.256 2.059-.557 3.056a.343.343 0 0 1-.669-.136v-.007c.106-.98.137-1.97.127-2.957a43.4 43.4 0 0 0-.147-2.974 62.079 62.079 0 0 0-.294-2.974c-.051-.495-.113-.99-.177-1.485l-.185-1.475v-.014a.68.68 0 0 1 .594-.761.687.687 0 0 1 .751.536zm-4.694-.004c.218 1.028.355 2.035.457 3.063.106 1.024.157 2.052.157 3.083a24.154 24.154 0 0 1-.194 3.097c-.16 1.028-.376 2.055-.762 3.032a.342.342 0 0 1-.659-.164l.004-.021c.027-.245.061-.491.099-.734.044-.239.04-.491.071-.734.028-.242.048-.488.055-.737.01-.246.027-.492.027-.738.031-.986.004-1.977-.034-2.967-.044-.99-.133-1.984-.218-2.974-.1-.986-.215-1.99-.342-2.957l-.003-.017a.682.682 0 0 1 1.342-.232zm.563-23.692a8.298 8.298 0 0 1-.352.795c-.126.253-.263.495-.403.734-.14.243-.297.472-.45.704l-.502.666a11.583 11.583 0 0 1-2.425 2.29l-.341.243c-.116.078-.239.143-.358.215-.243.137-.475.294-.728.413-.509.229-1.01.478-1.547.625-.522.191-1.072.283-1.611.376-.266.061-.546.058-.82.075-.273.013-.546.027-.816.03a.34.34 0 0 1-.344-.338.341.341 0 0 1 .252-.334l.028-.007c1-.27 1.98-.522 2.885-.95.464-.18.894-.436 1.331-.668.215-.127.417-.27.625-.4.103-.068.208-.13.307-.205l.294-.228a12.567 12.567 0 0 0 2.124-2.07l.45-.594c.137-.208.284-.41.417-.618.27-.406.523-.867.717-1.263l.024-.048a.682.682 0 0 1 .915-.307.7.7 0 0 1 .328.864z"/><path fill="#4E5C75" d="M33.74 96.152h8.269s-.843-31.023-3.872-31.023-4.398 31.023-4.398 31.023z"/><path fill="#4E5C75" d="M42.009 96.835h-8.27a.679.679 0 0 1-.495-.212.67.67 0 0 1-.188-.502c.004-.079.352-7.86 1.066-15.546 1.382-14.883 2.796-16.133 4.015-16.133 1.222 0 2.622 1.247 3.756 16.144.583 7.682.799 15.467.802 15.545a.688.688 0 0 1-.686.704zm-7.556-1.366h6.852c-.498-17.192-1.977-28.35-3.175-29.603-1.219 1.236-2.889 12.388-3.677 29.603z"/><path fill="#CDDAE8" d="M54.587 88.64h13.005s-2.055-35.168-6.091-35.168-6.914 35.168-6.914 35.168z"/><path fill="#CDDAE8" d="M67.592 89.323H54.587a.682.682 0 0 1-.68-.738c.007-.088.735-8.911 1.947-17.621 2.23-16.014 4.104-18.172 5.647-18.172 1.547 0 3.38 2.162 5.238 18.189 1.01 8.71 1.53 17.536 1.536 17.622a.683.683 0 0 1-.184.508.687.687 0 0 1-.499.212zm-12.26-1.366h11.533c-.147-2.28-.645-9.594-1.485-16.826-1.943-16.782-3.804-16.976-3.879-16.976-.01 0-.891.136-2.12 4.978-.734 2.892-1.465 6.935-2.172 12.012-1.004 7.218-1.676 14.514-1.878 16.812z"/><path fill="#4E5C75" d="m50.367 41.075 4.763-.417a.687.687 0 0 0 .621-.741L54.8 29.032a.687.687 0 0 0-.741-.622l-4.763.417a.687.687 0 0 0-.622.741l.953 10.885a.687.687 0 0 0 .74.621z"/><path fill="#414855" d="m54.799 29.032.952 10.885a.684.684 0 0 1-.621.741l-4.237.372c.392-1.031.792-1.99.72-3.223-.048-.785-.488-1.553-.137-2.315.403-.867 1.294-.857 1.004-2.052-.26-1.075-.795-1.355-.256-2.513.321-.683.881-1.205 1.226-1.868.116-.225.191-.423.242-.61l.362-.032a.678.678 0 0 1 .745.615z"/><path fill="#A0C2EC" d="m50.548 39.639 4.081-.357-.833-9.524-4.082.357.834 9.524z"/><path fill="#278BD6" d="m54.628 39.279-3.223.283a5.205 5.205 0 0 0 .208-1.758c-.048-.786-.488-1.554-.137-2.315.403-.868 1.294-.857 1.004-2.052-.26-1.076-.795-1.356-.256-2.513.188-.4.454-.745.717-1.093l.85-.075.837 9.523z" opacity=".3"/><path fill="#FCD381" d="M51.084 24.477a2.732 2.732 0 1 0 0-5.463 2.732 2.732 0 0 0 0 5.463z"/><path fill="#FCD381" d="m51.327 15.832-.23 1.297a.355.355 0 0 1-.409.287.35.35 0 0 1-.27-.229l-.45-1.24a.705.705 0 1 1 1.359-.116zm4.038 1.99-1.079.755a.353.353 0 0 1-.522-.437l.557-1.195a.703.703 0 0 1 .939-.342.703.703 0 0 1 .105 1.22zm-8.392-.536.557 1.195a.356.356 0 0 1-.171.471.358.358 0 0 1-.352-.03l-1.079-.755a.707.707 0 1 1 1.045-.88z" opacity=".35"/><path fill="#FCD381" d="M52.88 23.8a2.7 2.7 0 0 1-1.557.667 2.733 2.733 0 0 1-2.96-2.483 2.723 2.723 0 0 1 .929-2.294c.126.12.266.235.423.341.628.427 1.246.735 1.359 1.581.11.813-.068.994.656 1.588.334.273.764.416 1.15.6z" opacity=".3"/><path fill="#4A4E56" d="M16.704 83.283c.048.113.096.219.14.321-.058.01-.116.017-.177.017-1.13 0-2.049-1.833-2.049-4.097 0-2.264.919-4.097 2.049-4.097.048 0 .099.007.147.013-.16.386-.362.758-.506 1.151-.457 1.257-.27 2.373-.157 3.67.096 1.1.106 1.991.553 3.022z" opacity=".7"/><path fill="#A1AEC2" d="M8.862 79.374c.341.874.73 1.751 1.14 2.605.424.85.857 1.686 1.342 2.492.485.803 1.018 1.57 1.57 2.312.557.74 1.179 1.41 1.82 2.059l.021.02c.266.266.263.7-.003.966a.687.687 0 0 1-.922.034 13.461 13.461 0 0 1-2.066-2.212 18.28 18.28 0 0 1-1.553-2.547 24.36 24.36 0 0 1-1.178-2.711 21.565 21.565 0 0 1-.83-2.83.345.345 0 0 1 .263-.407.342.342 0 0 1 .389.212l.007.007zm6.439.15c.014.758.123 1.52.383 2.189.12.334.28.648.467.88.093.12.195.202.284.263a.648.648 0 0 0 .236.082.582.582 0 0 0 .242-.068c.096-.058.201-.136.3-.256.202-.229.372-.543.502-.877.27-.677.4-1.445.424-2.213.01-.768-.072-1.547-.321-2.25-.127-.348-.29-.676-.499-.929a1.272 1.272 0 0 0-.328-.3.738.738 0 0 0-.324-.106.738.738 0 0 0-.324.106c-.11.075-.222.174-.318.307-.198.26-.345.594-.454.942-.215.704-.287 1.472-.27 2.23zm-1.366 0c.018-.447.062-.895.14-1.335.09-.44.22-.878.397-1.3a4.41 4.41 0 0 1 .737-1.22c.16-.191.365-.365.604-.512.243-.143.543-.236.854-.242.31.006.608.095.854.242.235.147.44.324.594.519.32.386.532.806.693 1.23.328.85.464 1.734.485 2.618.013.884-.079 1.779-.383 2.656a4.361 4.361 0 0 1-.69 1.284c-.16.205-.372.4-.624.56a1.95 1.95 0 0 1-.932.28 1.956 1.956 0 0 1-.943-.266 2.617 2.617 0 0 1-.638-.553c-.342-.407-.557-.844-.724-1.28-.318-.885-.424-1.787-.424-2.681z"/><path fill="#4E5C75" d="m6.54 82.286 4.708-.83a.682.682 0 0 0 .553-.791l-1.898-10.76a.682.682 0 0 0-.792-.552l-4.705.826a.683.683 0 0 0-.553.792L5.75 81.73a.682.682 0 0 0 .789.556z"/><path fill="#414855" d="M9.903 69.905 11.8 80.664a.683.683 0 0 1-.553.792l-4.19.738c.301-1.062.619-2.053.438-3.275-.116-.778-.622-1.506-.338-2.294.324-.898 1.215-.967.822-2.13-.355-1.05-.911-1.281-.47-2.483.259-.707.77-1.277 1.058-1.967a3 3 0 0 0 .188-.631l.358-.062a.678.678 0 0 1 .789.553z"/><path fill="#A0C2EC" d="m6.597 80.838 4.035-.711-1.66-9.415-4.035.711 1.66 9.415z"/><path fill="#278BD6" d="m10.627 80.128-3.186.563a5.24 5.24 0 0 0 .055-1.769c-.116-.778-.622-1.505-.338-2.294.324-.898 1.215-.966.823-2.13-.355-1.049-.912-1.28-.471-2.483.15-.413.389-.778.618-1.15l.84-.147 1.659 9.41z" opacity=".3"/><path fill="#FCD381" d="M5.533 66.519a2.732 2.732 0 1 0 0-5.463 2.732 2.732 0 0 0 0 5.463z"/><path fill="#FCD381" d="m1.251 59.86.847 1.011a.353.353 0 0 1-.045.499.351.351 0 0 1-.348.061l-1.24-.45a.708.708 0 0 1-.423-.905.708.708 0 0 1 .905-.424.676.676 0 0 1 .304.209zm4.009-1.987-.116 1.315a.354.354 0 0 1-.673.12l-.557-1.196a.705.705 0 1 1 1.345-.239zm4.2 1.629-1.012.847a.353.353 0 0 1-.498-.045.351.351 0 0 1-.062-.348l.451-1.24a.708.708 0 0 1 .905-.423c.365.133.556.54.423.905a.722.722 0 0 1-.208.304z" opacity=".35"/><path fill="#FCD381" d="M7.5 65.675a2.718 2.718 0 0 1-1.492.799 2.733 2.733 0 0 1-3.166-2.216 2.724 2.724 0 0 1 .724-2.366c.137.109.287.211.454.303.663.37 1.305.622 1.492 1.455.181.802.021.994.793 1.523.358.25.795.352 1.195.502z" opacity=".3"/><path fill="#A1AEC2" d="M24.23 79.227c-.062 1.014-.243 1.98-.485 2.95-.243.966-.58 1.912-.987 2.834-.4.925-.918 1.802-1.51 2.632-.59.833-1.314 1.574-2.106 2.23a.68.68 0 0 1-.939-.98l.052-.058c.307-.342.665-.622.949-.987.15-.174.307-.338.454-.516l.416-.55c.536-.747 1.045-1.522 1.469-2.359.433-.826.812-1.69 1.154-2.574.167-.444.32-.891.464-1.345.15-.448.276-.916.393-1.363l.007-.02a.337.337 0 0 1 .416-.243.336.336 0 0 1 .253.349zm-4.907 20.179c.195.403.304.751.424 1.13.102.376.191.751.26 1.13.14.758.197 1.526.197 2.291-.017.765-.061 1.526-.215 2.274-.058.376-.164.741-.246 1.106-.105.362-.225.721-.355 1.076a.344.344 0 0 1-.666-.143v-.017c.055-.724.134-1.431.144-2.141 0-.178.007-.355.014-.53l-.007-.529c.006-.351-.028-.703-.041-1.051-.045-.7-.144-1.39-.26-2.073a11.161 11.161 0 0 0-.222-1.011 11.528 11.528 0 0 0-.273-.949l-.017-.054a.68.68 0 0 1 .44-.857.675.675 0 0 1 .823.348zm-3.691.171c.154.816.185 1.57.171 2.359a13.15 13.15 0 0 1-.266 2.329 10.76 10.76 0 0 1-.72 2.243 8.524 8.524 0 0 1-1.24 1.997.341.341 0 0 1-.584-.338l.014-.041c.13-.345.31-.648.413-.997.061-.167.13-.331.188-.498l.15-.512c.184-.687.341-1.376.423-2.087.096-.703.14-1.416.16-2.127a14.63 14.63 0 0 0-.01-1.068c0-.352-.03-.724-.05-1.042l-.004-.048a.683.683 0 0 1 .638-.723.682.682 0 0 1 .717.553z"/><path fill="#278BD6" d="M16.292 85.564c-2.82.502-2.998 14.122-2.998 14.122l7-.321s-1.182-14.303-4.002-13.801z"/><path fill="#278BD6" d="M13.294 100.369a.681.681 0 0 1-.683-.69c0-.034.051-3.48.447-6.942.765-6.668 2.145-7.668 3.114-7.842.307-.055.772-.041 1.264.338 2.413 1.857 3.37 12.052 3.537 14.077a.68.68 0 0 1-.649.738l-7 .321h-.03zm3.141-14.136c-.01 0-.017 0-.024.004-.13.023-1.284.406-1.997 6.654-.28 2.455-.383 4.9-.42 6.078l5.558-.256c-.717-7.918-2.175-11.807-2.946-12.401-.089-.065-.14-.079-.17-.079z"/><path fill="#064E72" d="M13.325 100.369h-.031a.684.684 0 0 1-.683-.69c0-.034.051-3.48.447-6.941.765-6.669 2.145-7.67 3.114-7.843.13-.024.294-.031.475-.007.034.147.061.297.099.433.143.513.372 1.042.43 1.575.164 1.488-.744 2.813-.543 4.373.256 1.998.751 3.568.485 5.607-.143 1.103-.133 2.216-.079 3.325l-3.714.168z" opacity=".3"/><path fill="#4A4E56" d="M88.57 59.208c.031.212.048.427.058.646-.085.02-.174.037-.263.037-1.13 0-2.048-1.833-2.048-4.097 0-2.264.918-4.097 2.049-4.097.177 0 .348.051.512.136a1.075 1.075 0 0 1-.127.273c-.003.038-.003.072-.007.11a.821.821 0 0 1-.587.594c-.529.993-.532 2.772-.423 3.646.123.96.693 1.793.836 2.752z" opacity=".7"/><path fill="#A1AEC2" d="M87.003 55.794c.014.758.123 1.52.383 2.189.12.334.28.648.468.88.092.12.194.202.283.263a.65.65 0 0 0 .236.082.585.585 0 0 0 .242-.068c.096-.058.202-.136.3-.256.202-.229.373-.543.502-.877.27-.677.4-1.445.424-2.213.01-.768-.072-1.547-.321-2.25-.126-.348-.29-.676-.499-.929a1.274 1.274 0 0 0-.327-.3.739.739 0 0 0-.325-.106.739.739 0 0 0-.324.106c-.11.075-.222.174-.318.307-.198.26-.345.594-.454.942-.215.704-.287 1.472-.27 2.23zm-1.365 0c.017-.447.061-.895.14-1.335.088-.44.218-.878.396-1.3.177-.424.406-.84.737-1.22.16-.191.366-.365.605-.512.242-.143.542-.236.853-.242.31.006.608.095.854.242.235.147.44.324.594.519.32.386.533.806.693 1.23.328.85.464 1.734.485 2.618.013.884-.079 1.779-.383 2.656a4.361 4.361 0 0 1-.69 1.284c-.16.205-.371.4-.624.56a1.95 1.95 0 0 1-.932.28 1.957 1.957 0 0 1-.943-.266 2.62 2.62 0 0 1-.638-.553c-.341-.407-.557-.844-.724-1.28-.318-.885-.423-1.787-.423-2.681zm5.261 10.454a7.32 7.32 0 0 0 .338-.358c.12-.123.232-.266.345-.396.225-.273.447-.553.655-.847.43-.57.817-1.185 1.178-1.81.745-1.24 1.342-2.57 1.885-3.926l.38-1.028c.129-.341.221-.697.334-1.048.229-.697.396-1.414.584-2.124.187-.713.297-1.444.46-2.165l.356-2.195.003-.017a.341.341 0 0 1 .393-.284.344.344 0 0 1 .287.356 83.78 83.78 0 0 1-.14 2.263l-.14 1.127c-.048.376-.09.755-.168 1.127-.136.748-.263 1.499-.468 2.233-.099.369-.174.74-.293 1.106l-.342 1.096a24.73 24.73 0 0 1-1.87 4.207 20.02 20.02 0 0 1-1.278 1.942c-.225.318-.484.612-.74.909-.27.3-.52.57-.861.867a.682.682 0 0 1-.925-1.004l.027-.03zM80.072 47.633c-.017.864.003 1.759.061 2.636.024.44.065.881.096 1.318l.15 1.315c.215 1.748.56 3.475 1.021 5.166.205.853.495 1.68.762 2.513l.47 1.222.24.611.27.598c.18.396.351.799.542 1.188l.615 1.15c.102.192.195.39.307.578l.345.553.683 1.113.024.037a.683.683 0 0 1-1.144.745c-1.034-1.51-2-3.084-2.707-4.777l-.284-.625c-.089-.212-.16-.427-.242-.642l-.468-1.29c-.26-.878-.546-1.745-.741-2.636-.41-1.776-.7-3.579-.813-5.395-.112-1.817-.106-3.623.137-5.446a.341.341 0 0 1 .68.051l-.004.017zM91.78 93.308a66.18 66.18 0 0 1 .24 3.67 82.36 82.36 0 0 1 .078 3.674 73.04 73.04 0 0 1-.09 3.681c-.04.614-.074 1.225-.122 1.84-.055.611-.12 1.226-.201 1.833a.343.343 0 0 1-.683-.034v-.003l-.134-3.647-.153-3.643-.157-3.643c-.052-1.212-.106-2.431-.14-3.643v-.004a.685.685 0 0 1 .662-.703.69.69 0 0 1 .7.622zm-6.665.078-.03 1.86-.048 1.865-.106 3.732c-.048 1.243-.058 2.486-.096 3.732l-.061 3.735v.004a.348.348 0 0 1-.348.338.349.349 0 0 1-.335-.297 57.643 57.643 0 0 1-.355-3.753c-.086-1.253-.12-2.506-.157-3.759a117.82 117.82 0 0 1 0-3.76c.03-1.252.072-2.502.17-3.759a.686.686 0 0 1 .735-.628.681.681 0 0 1 .631.69z"/><path fill="#278BD6" d="M82.329 93.352H93.8s-.19-31.022-5.373-31.022c-5.18 0-6.098 31.023-6.098 31.023z"/><path fill="#278BD6" d="M93.801 94.035H82.33a.674.674 0 0 1-.488-.209.671.671 0 0 1-.192-.495c.004-.078.24-7.873 1.11-15.57 1.636-14.445 4.019-16.118 5.671-16.118 1.66 0 4.012 1.673 5.31 16.132.69 7.697.748 15.491.748 15.57a.688.688 0 0 1-.686.69zm-10.765-1.366h10.072c-.03-2.066-.167-8.457-.734-14.774-1.27-14.166-3.513-14.883-3.95-14.883-.298 0-1.353.314-2.48 4.346-.71 2.537-1.328 6.088-1.833 10.554-.71 6.3-.997 12.674-1.075 14.757z"/><path fill="#064E72" d="M88.113 61.666c.037.123.068.25.085.311a5.43 5.43 0 0 1 .215 1.875c-.05.778-.328 1.55-.246 2.339.11 1.092.895 1.737 1.165 2.741.287 1.052-.256 1.554-1.09 2.07-1.12.693-1.3 1.007-1.04 2.3.177.892.563 1.739.795 2.616.392 1.485-.096 2.78.05 4.258.083.81.472 1.553.274 2.38-.147.614-.577.928-.874 1.45-.932 1.647.74 3.61 1.106 5.28.321 1.46-.17 2.676-1.178 3.752-.324.345-.696.659-1.034.993h-4.016a.674.674 0 0 1-.488-.208.67.67 0 0 1-.191-.495c.003-.079.239-7.874 1.11-15.57 1.533-13.548 3.728-15.856 5.357-16.091z" opacity=".3"/><path fill="#278BD6" d="M61.501 52.79c.304 0 .618.084.942.34a1.23 1.23 0 0 1-.6.376c.04.144.075.31.102.396.147.458.328.936.304 1.427a1.657 1.657 0 0 1-.81 1.39c.407.888.765 1.772.209 2.738-.273.475-.68.673-1.052 1.045-.768.772-.508 1.564-.123 2.469.926 2.164 2.203 3.95.41 5.999-.744.85-.7 1.03-.236 2.01.233.492.424.953.489 1.496.167 1.428-.666 2.517-.96 3.848-.369 1.667.635 3.309.338 5.016-.12.676-.44 1.332-.481 2.018-.058 1.007.509 1.891.888 2.78.45 1.05.785 2.075.447 3.181H54.59a.682.682 0 0 1-.68-.737c.008-.089.735-8.911 1.947-17.622 2.226-16.013 4.104-18.17 5.644-18.17z" opacity=".2"/><path fill="#A1AEC2" d="M38.137 64.446c.034 0 .065 0 .099.003.113.393.314.925.331 1.042.102.693-.082 1.335-.246 2-.287 1.165-.205 2.117-.112 3.285.095 1.209.348 3.124-.714 3.985.25.952.826 1.7.683 2.765-.096.714-.325 1.277-.123 2.022.188.69.604 1.3.758 2.007.229 1.059-.123 2.206-.222 3.264-.157 1.711-.191 3.432-.178 5.15.01 1.413.591 4.595.154 6.866h-4.828a.679.679 0 0 1-.495-.212.67.67 0 0 1-.188-.502c.004-.079.352-7.86 1.066-15.546 1.379-14.883 2.796-16.13 4.015-16.13z" opacity=".3"/><path fill="#1C1D1E" d="M98.189 28.698a5.198 5.198 0 0 0-.683-1.189c-.287-.368-.652-.717-1.14-.949a2.145 2.145 0 0 0-1.646-.085c-.526.194-.922.54-1.233.89-.061.073-.12.144-.178.22a9.237 9.237 0 0 0-.491-1.797c-.267-.672-.629-1.335-1.178-1.905a3.367 3.367 0 0 0-.99-.717 2.591 2.591 0 0 0-1.27-.273 2.77 2.77 0 0 0-1.243.335c-.195.088-.349.218-.52.33-.146.13-.307.257-.436.4a5.92 5.92 0 0 0-.987 1.417 38.241 38.241 0 0 0-.338-2.837c-.202-1.23-.475-2.462-.929-3.67-.232-.605-.515-1.206-.939-1.78a3.421 3.421 0 0 0-.816-.795c-.341-.229-.81-.396-1.284-.362-.474.038-.88.24-1.195.471-.317.236-.56.506-.775.782-.423.553-.72 1.14-.98 1.731-.512 1.185-.836 2.4-1.103 3.62a36.966 36.966 0 0 0-.522 3.202c-.365-.573-.87-1.113-1.553-1.417-.359-.18-.765-.256-1.165-.28a3.325 3.325 0 0 0-1.164.175c-.734.256-1.338.727-1.81 1.27a6.077 6.077 0 0 0-1.068 1.82c-.499 1.304-.615 2.683-.536 4.018a.512.512 0 0 0 1.024-.04v-.014c-.014-.615-.004-1.226.085-1.827a7.538 7.538 0 0 1 .461-1.728 4.941 4.941 0 0 1 .902-1.468c.375-.413.833-.74 1.32-.898.49-.147.995-.13 1.425.092.44.202.795.611 1.062 1.083.536.97.686 2.198.682 3.404 0 .358.28.662.642.683.376.024.7-.263.72-.642v-.017c.107-2.404.332-4.808.827-7.136.25-1.158.564-2.309 1.021-3.36.229-.523.492-1.028.81-1.441.31-.417.706-.714.976-.72.136-.007.273.034.437.14.164.105.328.276.481.477.304.407.553.916.755 1.445.406 1.068.666 2.23.857 3.4.375 2.35.491 4.764.495 7.17 0 .342.256.636.604.677a.68.68 0 0 0 .758-.598v-.01c.075-.632.154-1.263.3-1.871a9.282 9.282 0 0 1 .564-1.758c.242-.55.55-1.066.929-1.458.092-.106.198-.178.293-.27.106-.062.205-.157.314-.198a1.4 1.4 0 0 1 .65-.181c.214-.014.433.037.644.143a2 2 0 0 1 .601.44c.373.383.666.895.881 1.448.434 1.117.584 2.38.594 3.637a.69.69 0 0 0 .434.631.683.683 0 0 0 .884-.389l.004-.01v-.003c.252-.721.563-1.431.993-1.957.212-.263.454-.464.694-.563a.93.93 0 0 1 .727.013c.526.215.997.837 1.294 1.489a5.53 5.53 0 0 1 .488 2.151v.007a.512.512 0 0 0 1.024-.007 6.403 6.403 0 0 0-.484-2.591z" opacity=".1"/></svg>