<svg xmlns="http://www.w3.org/2000/svg" fill="none" viewBox="0 0 240 240"><path fill="#1D1D1E" d="M146.184 198.707c0 1.265 20.249 2.286 46.429 2.286 26.179 0 47.387-1.021 47.387-2.286 0-1.265-21.216-2.286-47.387-2.286-26.172 0-46.429 1.029-46.429 2.286zm-99.983 3.857c25.517 0 46.202-1.337 46.202-2.985s-20.686-2.985-46.202-2.985S0 197.931 0 199.579s20.685 2.985 46.201 2.985z"/><path fill="#4A4E56" d="M224.22 123.671c.895-5.082-.44-9.567-2.977-10.015a2.56 2.56 0 0 0-1.343.142c.809 1.814 1.429 3.503 1.162 5.702-.251 2.066-1.563 3.833-1.963 5.899-.448 2.294-1.485 3.252-2.687 5.247a1.976 1.976 0 0 0-.141.291c.479.612 1.06 1.013 1.728 1.131 2.537.447 5.326-3.315 6.221-8.397z"/><path fill="#A1AEC2" d="M212.61 170.187c-.062.11-.219.385-.329.605l-.354.722a19.95 19.95 0 0 0-.62 1.54 31.334 31.334 0 0 0-1.029 3.236 52.57 52.57 0 0 0-1.304 6.802c-.338 2.309-.479 4.65-.644 6.999l-.134 3.542c-.023 1.186-.023 2.372-.078 3.566v.031a.79.79 0 0 1-1.571.095c-.197-1.194-.346-2.396-.519-3.598l-.29-3.636c-.103-2.435-.118-4.886.094-7.337.196-2.45.542-4.909 1.194-7.328.322-1.21.699-2.412 1.17-3.598.244-.589.511-1.17.801-1.751.15-.291.307-.582.479-.872.189-.299.33-.542.613-.919a1.566 1.566 0 0 1 2.608 1.728l-.087.173zm9.112-.087c.055 1.155.087 2.364.173 3.558.063 1.194.142 2.388.236 3.582.204 2.388.44 4.768.754 7.14.298 2.372.73 4.721 1.186 7.069.251 1.163.495 2.341.833 3.48.251 1.178.667 2.286.974 3.456l.015.047a.799.799 0 0 1-.557.966.788.788 0 0 1-.896-.393c-1.162-2.199-2.105-4.524-2.867-6.896a60.78 60.78 0 0 1-1.799-7.226c-.439-2.443-.785-4.894-.981-7.368-.197-2.474-.315-4.925-.212-7.454a1.576 1.576 0 0 1 1.633-1.508 1.576 1.576 0 0 1 1.508 1.492v.055zm-11.264-19.283a5.409 5.409 0 0 1-.832-.016c-.252-.015-.479-.063-.715-.11a6.133 6.133 0 0 1-1.351-.416c-.88-.338-1.657-.864-2.356-1.453-1.375-1.225-2.278-2.789-2.828-4.359l-.228-.59-.157-.597-.314-1.186c-.11-.801-.259-1.594-.314-2.387-.032-.794-.11-1.579-.079-2.365.039-.785.071-1.563.118-2.332a.789.789 0 0 1 .84-.731.788.788 0 0 1 .723.683l.008.048.283 2.199c.11.73.275 1.437.392 2.144.15.707.385 1.383.566 2.066l.369.974.181.487.235.448c.582 1.225 1.391 2.254 2.318 3.008.479.346.958.699 1.5.903.259.126.534.197.801.283.133.031.275.079.401.094l.188.032c.047.008.141.015.11.023a1.578 1.578 0 0 1 1.642 1.501 1.584 1.584 0 0 1-1.501 1.649zm5.719-28.56c-.142.872-.22 1.752-.213 2.631.024.872.134 1.736.323 2.553.196.809.494 1.579.871 2.16.181.307.401.519.59.684.196.149.361.204.518.243.157 0 .33 0 .558-.086.227-.102.487-.244.738-.48.51-.439.997-1.083 1.398-1.783.817-1.413 1.335-3.086 1.634-4.783.298-1.689.385-3.44.102-5.051-.134-.801-.369-1.563-.707-2.16a2.749 2.749 0 0 0-.526-.699 1.269 1.269 0 0 0-.487-.267 1.373 1.373 0 0 0-.566.047c-.235.095-.51.212-.785.44-.558.417-1.1 1.037-1.555 1.728a12.764 12.764 0 0 0-1.179 2.286 13.797 13.797 0 0 0-.714 2.537zm-2.325-.408c.369-1.964.879-3.928 1.861-5.789.495-.927 1.092-1.846 1.972-2.647a5.68 5.68 0 0 1 1.61-1.037 4.386 4.386 0 0 1 2.207-.259c.77.149 1.477.51 2.011.974.518.463.927.981 1.217 1.5.605 1.052.911 2.113 1.116 3.165.392 2.105.306 4.179-.016 6.206-.385 2.01-1.013 3.99-2.105 5.836-.55.919-1.21 1.814-2.137 2.592a5.816 5.816 0 0 1-1.657.997 4.459 4.459 0 0 1-2.223.228 4.342 4.342 0 0 1-1.987-1.005 5.73 5.73 0 0 1-1.162-1.524c-.55-1.061-.802-2.129-.951-3.166-.267-2.089-.078-4.1.244-6.071z"/><path fill="#A0C2EC" d="M218.62 138.721c7.006 1.602 7.116 25.072 7.045 30.68a1.105 1.105 0 0 1-1.217 1.084l-17.508-1.657a1.1 1.1 0 0 1-.99-1.281c.974-5.726 5.624-30.429 12.67-28.826z"/><path fill="#A0C2EC" d="M224.55 172.056c-.087 0-.165 0-.252-.016l-17.508-1.649a2.677 2.677 0 0 1-1.877-1.037 2.687 2.687 0 0 1-.511-2.074c1.281-7.501 4.91-25.378 10.808-29.313 1.194-.794 2.49-1.061 3.763-.778 7.54 1.72 8.412 20.933 8.263 32.228a2.671 2.671 0 0 1-2.686 2.639zm-16.966-4.744 16.518 1.563c.157-16.055-2.223-27.798-5.828-28.615-.267-.063-.691-.094-1.312.322-3.943 2.624-7.493 15.922-9.378 26.73z"/><path fill="#278BD6" d="M218.965 137.189a4.283 4.283 0 0 0-1.516-.078c1.092 1.437-.495 3.495-.432 5.058.047 1.194.542 1.657.903 2.718 1.681 4.87-2.819 6.739-2.277 11.161.188 1.548 1.311 2.514 1.288 4.124-.04 2.262-1.603 4.077-2.412 6.111-.644 1.618-.73 3.189-.785 4.76l10.557.997c.086.008.165.008.251.008.66 0 1.304-.243 1.799-.683.55-.495.872-1.21.887-1.956.157-11.287-.722-30.5-8.263-32.22z" opacity=".3"/><path fill="#4A4E56" d="M177.1 48.918c0-5.16-2.09-9.347-4.674-9.347-.542 0-1.06.196-1.547.534.117.016.235.04.361.04-.196 0-.346.023-.487.054a4.345 4.345 0 0 0-.597.55c-.369 1.524 3.087 5.404 3.205 5.624 1.264 2.301-.385 5.113-.998 7.438-.29 1.1-.173 3.535-.573 4.352.204.055.416.094.628.094 2.584 0 4.682-4.179 4.682-9.34zm-134.512-7.03c-.574-.503-1.202-.785-1.87-.785-2.584 0-4.673 4.186-4.673 9.347 0 5.16 2.09 9.347 4.673 9.347.228 0 .448-.04.668-.102a9.479 9.479 0 0 0-.165-1.069c-.785-3.424-.817-6.495-.848-10.046-.024-2.898.495-4.006 1.987-6.315.07-.133.15-.251.228-.377z"/><path fill="#A1AEC2" d="M37.616 156.936c.126 2.003.047 3.833-.047 5.734a54.831 54.831 0 0 1-.236 2.812c-.078.934-.212 1.861-.33 2.796-.479 3.723-1.288 7.383-2.167 11.012-.48 1.807-.982 3.605-1.563 5.381a97.74 97.74 0 0 1-1.807 5.294c-.628 1.751-1.39 3.456-2.082 5.176a197.763 197.763 0 0 1-2.364 5.05.786.786 0 0 1-1.453-.597l.008-.023c1.17-3.488 2.38-6.936 3.393-10.447 1.076-3.487 1.956-7.03 2.78-10.572.802-3.551 1.422-7.132 1.925-10.714.244-1.791.448-3.597.574-5.388a61.75 61.75 0 0 0 .235-5.318v-.079c0-.864.7-1.57 1.563-1.57.833-.024 1.516.628 1.571 1.453zm15.592-.44c.66 1.743 1.147 3.448 1.65 5.184.463 1.736.879 3.479 1.256 5.231.754 3.503 1.273 7.061 1.65 10.62.337 3.566.534 7.147.455 10.737-.016 3.582-.37 7.156-.872 10.69a.785.785 0 0 1-1.563-.102v-.047c-.023-1.76.102-3.503.032-5.255l-.04-2.623c-.023-.872-.086-1.744-.133-2.616-.079-1.744-.236-3.48-.37-5.215-.204-1.736-.36-3.472-.636-5.192-.432-3.457-1.076-6.889-1.806-10.29a125.336 125.336 0 0 0-1.194-5.082 102.217 102.217 0 0 0-1.39-4.98l-.016-.047a1.575 1.575 0 0 1 1.045-1.964 1.576 1.576 0 0 1 1.932.951zm114.78 3.165a270.957 270.957 0 0 0-1.139 9.669c-.298 3.244-.597 6.488-.746 9.74a162.189 162.189 0 0 0-.298 9.763l-.016 2.443.055 2.443c-.016 1.634.133 3.252.165 4.893v.04a.79.79 0 0 1-1.563.165 83.652 83.652 0 0 1-1.288-9.889c-.205-3.315-.315-6.645-.236-9.968.094-3.322.228-6.645.573-9.944.322-3.315.747-6.582 1.391-9.897a1.574 1.574 0 0 1 1.845-1.241 1.575 1.575 0 0 1 1.257 1.752v.031zm18.168-.133a89.794 89.794 0 0 0-.071 4.838c.008 1.634.032 3.268.118 4.902.141 3.267.346 6.543.73 9.802.338 3.26.786 6.52 1.352 9.764.526 3.251 1.225 6.464 1.908 9.708l.008.024a.781.781 0 0 1-.605.926.785.785 0 0 1-.903-.51c-.542-1.579-1.092-3.166-1.579-4.776-.455-1.61-.935-3.22-1.319-4.854-.841-3.252-1.414-6.567-1.948-9.889-.48-3.33-.809-6.684-.974-10.046a107.85 107.85 0 0 1-.102-5.059c.047-1.704.078-3.361.274-5.113a1.569 1.569 0 0 1 3.127.228l-.016.055zm-52.171-59.217c1.273.605 2.741 1.092 4.171 1.445 1.453.315 2.914.597 4.391.668a28.523 28.523 0 0 0 8.758-.809c1.398-.479 2.82-.833 4.155-1.469l1.013-.432c.338-.141.683-.282.998-.471l1.94-1.076c.667-.322 1.272-.754 1.893-1.17l1.853-1.242 3.535-2.764.11-.087a1.563 1.563 0 0 1 2.199.267c.519.66.417 1.61-.204 2.152-1.21 1.045-2.419 2.106-3.676 3.095l-2.003 1.351c-.668.448-1.327.919-2.058 1.281l-2.16 1.115c-.353.196-.73.346-1.115.495l-1.139.447c-1.485.668-3.095 1.006-4.666 1.43-3.205.621-6.504.793-9.708.306-3.221-.471-6.3-1.445-9.12-3.212a.78.78 0 0 1 .747-1.367l.086.047zm34.946-51.393c.015.888.086 1.767.251 2.623.173.857.432 1.69.762 2.451.33.762.754 1.469 1.233 1.972.228.267.479.44.699.573.22.118.393.134.55.15.157-.024.322-.056.534-.181a2.79 2.79 0 0 0 .644-.597c.432-.527.793-1.241 1.068-2.003.558-1.54.786-3.276.778-4.988 0-1.72-.22-3.456-.778-4.988-.275-.762-.636-1.476-1.068-2.003a2.778 2.778 0 0 0-.644-.597 1.3 1.3 0 0 0-.534-.18c-.157.015-.33.031-.55.149-.212.133-.471.298-.699.573-.479.503-.903 1.21-1.233 1.972-.33.77-.589 1.594-.762 2.45a15.227 15.227 0 0 0-.251 2.624zm-2.357 0c.024-2.003.189-4.022.825-6.024.322-.998.754-2.003 1.484-2.954a5.63 5.63 0 0 1 1.406-1.296 4.433 4.433 0 0 1 2.129-.644 4.438 4.438 0 0 1 2.152.613 5.8 5.8 0 0 1 1.461 1.272c.778.927 1.265 1.925 1.65 2.922.754 2.003 1.029 4.06 1.06 6.111-.031 2.05-.306 4.108-1.06 6.111-.385.997-.872 1.995-1.65 2.922a5.982 5.982 0 0 1-1.461 1.272 4.438 4.438 0 0 1-2.152.613 4.327 4.327 0 0 1-2.129-.644 5.63 5.63 0 0 1-1.406-1.296c-.73-.95-1.154-1.956-1.484-2.953-.636-2.011-.801-4.03-.825-6.025zM46.57 50.45c-.023 2.003-.188 4.021-.825 6.024-.322.998-.754 2.003-1.484 2.954a5.616 5.616 0 0 1-1.406 1.296 4.43 4.43 0 0 1-2.129.644 4.44 4.44 0 0 1-2.152-.613 5.818 5.818 0 0 1-1.46-1.272c-.778-.927-1.265-1.925-1.65-2.922-.754-2.003-1.03-4.061-1.06-6.111.03-2.05.306-4.108 1.06-6.111.385-.998.872-1.995 1.65-2.922a5.978 5.978 0 0 1 1.46-1.273 4.44 4.44 0 0 1 2.152-.612c.786.023 1.54.275 2.129.644a5.616 5.616 0 0 1 1.406 1.296c.73.95 1.155 1.956 1.484 2.953.637 2.011.802 4.03.825 6.025zm-2.356 0a15.31 15.31 0 0 0-.252-2.624 12.365 12.365 0 0 0-.761-2.45c-.33-.762-.755-1.47-1.234-1.972a2.775 2.775 0 0 0-.699-.573c-.22-.118-.392-.134-.55-.15a1.337 1.337 0 0 0-.534.181 2.775 2.775 0 0 0-.644.597c-.432.526-.793 1.241-1.068 2.003-.558 1.54-.785 3.275-.778 4.988 0 1.72.22 3.456.778 4.987.275.762.636 1.477 1.068 2.003.212.275.44.456.644.597.205.126.377.157.535.181.157-.016.33-.031.55-.15.211-.133.47-.298.698-.573.48-.502.904-1.21 1.234-1.971.33-.77.589-1.595.761-2.45.165-.857.236-1.737.252-2.624z"/><path fill="#FCD381" d="M125.275 71.32a7.784 7.784 0 1 0 0-15.569 7.784 7.784 0 0 0 0 15.569z"/><path fill="#FCD381" d="m137.85 52.885-3.126 2.01a.795.795 0 0 1-1.108-.243.815.815 0 0 1 0-.872l2.011-3.126a1.61 1.61 0 0 1 2.223-.479 1.61 1.61 0 0 1 .479 2.223c-.125.204-.298.37-.479.487zm-11.217-6.088-.785 3.63a.803.803 0 0 1-.958.612.803.803 0 0 1-.613-.613l-.785-3.629a1.604 1.604 0 0 1 1.233-1.908 1.604 1.604 0 0 1 1.908 1.908zm-12.009 4.171 2.01 3.126a.792.792 0 0 1-.243 1.108.814.814 0 0 1-.872 0l-3.126-2.011a1.61 1.61 0 0 1-.479-2.223 1.61 1.61 0 0 1 2.223-.479c.204.126.369.29.487.48z" opacity=".35"/><path fill="#FCD381" d="M120.688 69.82a7.725 7.725 0 0 0 4.587 1.5 7.782 7.782 0 0 0 7.784-7.784 7.76 7.76 0 0 0-3.205-6.284 9.16 9.16 0 0 1-1.123 1.076c-1.681 1.367-3.354 2.388-3.464 4.823-.11 2.34.44 2.804-1.469 4.666-.88.871-2.058 1.382-3.11 2.003z" opacity=".3"/><path fill="#A1AEC2" d="M106.91 125.383H67.087a1.576 1.576 0 0 1-1.57-1.571V78.789c0-.864.706-1.57 1.57-1.57h39.823c.864 0 1.571.706 1.571 1.57v45.015c0 .872-.699 1.579-1.571 1.579zm-38.252-3.142h36.681v-41.88H68.658v41.88z"/><path fill="#278BD6" d="M95.654 97.13H91.17v-4.493c0-.864-.707-1.57-1.57-1.57h-5.193c-.864 0-1.57.706-1.57 1.57v4.493H78.35c-.864 0-1.57.707-1.57 1.571v5.192c0 .864.706 1.571 1.57 1.571h4.485v4.493c0 .864.707 1.571 1.571 1.571h5.192c.864 0 1.571-.707 1.571-1.571v-4.485h4.485c.864 0 1.571-.707 1.571-1.571v-5.192c0-.872-.699-1.579-1.57-1.579zm97.972 62.248h-32.707s5.168-88.443 15.317-88.443c10.148 0 17.39 88.443 17.39 88.443z"/><path fill="#278BD6" d="M193.626 160.949h-32.707c-.432 0-.848-.18-1.147-.494a1.577 1.577 0 0 1-.424-1.171c.016-.22 1.328-22.409 3.865-44.308 4.657-40.192 9.197-45.612 13.023-45.612 3.809 0 8.467 5.412 14.06 45.573 3.047 21.899 4.877 44.088 4.893 44.308.039.44-.11.872-.408 1.194-.299.33-.715.51-1.155.51zm-31.034-3.141h29.322c-.487-5.593-2.184-24.122-4.737-42.447-5.796-41.654-10.431-42.855-10.941-42.855-.205 0-5.004.487-9.905 42.823-2.129 18.357-3.385 36.933-3.739 42.479z"/><path fill="#4E5C75" d="M58.996 157.022H26.29s5.168-88.444 15.316-88.444 17.39 88.444 17.39 88.444z"/><path fill="#4E5C75" d="M58.997 158.593H26.29a1.57 1.57 0 0 1-1.571-1.665c.015-.22 1.327-22.41 3.864-44.308 4.658-40.193 9.198-45.613 13.023-45.613 3.818 0 8.468 5.412 14.06 45.573 3.048 21.899 4.878 44.089 4.894 44.309a1.55 1.55 0 0 1-.409 1.193c-.29.33-.715.511-1.154.511zm-31.034-3.142h29.321c-.487-5.592-2.183-24.122-4.736-42.447-5.797-41.653-10.431-42.855-10.942-42.855-.204 0-5.003.487-9.905 42.832-2.12 18.364-3.385 36.925-3.738 42.47zm111.874-34.553-13.573 1.186a1.952 1.952 0 0 1-2.113-1.767l-2.718-31.026a1.952 1.952 0 0 1 1.768-2.113l13.573-1.186a1.953 1.953 0 0 1 2.113 1.767l2.717 31.034a1.945 1.945 0 0 1-1.767 2.105z"/><path fill="#414855" d="m121.433 89.291 2.718 31.034a1.947 1.947 0 0 0 2.113 1.767l12.081-1.06c-1.611-2.702-3.213-5.192-3.621-8.695-.26-2.231.604-4.603-.77-6.567-1.555-2.23-4.061-1.759-3.833-5.262.204-3.15 1.563-4.203-.527-7.187-1.233-1.76-3.071-2.954-4.367-4.635a8.543 8.543 0 0 1-.982-1.594l-1.029.094a1.937 1.937 0 0 0-1.783 2.105z"/><path fill="#A0C2EC" d="m136.25 89.794-11.636 1.019 2.377 27.152 11.636-1.019-2.377-27.152z"/><path fill="#278BD6" d="m126.987 117.976 9.19-.801c-.699-1.453-1.241-3.001-1.453-4.839-.259-2.23.605-4.602-.77-6.566-1.555-2.231-4.061-1.76-3.833-5.263.204-3.142 1.563-4.202-.526-7.187-.723-1.029-1.65-1.861-2.553-2.71l-2.427.212 2.372 27.154z" opacity=".3"/><path fill="#A1AEC2" d="M185.512 88.662c.463.456.762.817 1.107 1.226.315.408.629.809.927 1.225l.856 1.249.794 1.273a56.132 56.132 0 0 1 2.725 5.286c1.611 3.605 2.883 7.328 3.904 11.098 1.037 3.771 1.815 7.588 2.459 11.421.267 1.925.542 3.849.785 5.773.173 1.933.361 3.865.503 5.789a.785.785 0 0 1-.723.841.788.788 0 0 1-.832-.629l-.008-.023c-.369-1.885-.691-3.771-1.045-5.656l-1.162-5.616c-.48-1.846-.864-3.715-1.359-5.553-.511-1.83-.982-3.676-1.595-5.475-.55-1.814-1.178-3.597-1.814-5.38l-1.045-2.624c-.346-.879-.762-1.712-1.123-2.584a54.956 54.956 0 0 0-2.545-4.98l-.707-1.194-.738-1.146c-.252-.377-.527-.739-.786-1.1-.259-.338-.565-.73-.777-.958l-.079-.087a1.567 1.567 0 0 1 .11-2.215 1.59 1.59 0 0 1 2.168.04z"/><path fill="#A1AEC2" d="M47.372 157.595c-.157-1.979-.81-3.896-1.022-5.867-.33-3.056.825-5.271 1.925-8.004 1.17-2.906 2.136-6.095.73-9.096-.612-1.304-1.555-2.183-2.544-3.189-2.35-2.388-2.223-4.1-1.454-7.422.967-4.163 2.514-8.279 1.25-12.591-.692-2.357-3.15-4.705-3.158-7.18 0-1.791 1.178-3.699 1.516-5.474.282-1.47.47-3.11-.047-4.556-.55-1.555-2.011-1.987-2.758-3.205a2.36 2.36 0 0 0-.274-.377c.102-.11.22-.314.353-.691.416-1.147 1.06-2.176 1.594-3.268.872-1.79 2.066-3.888 1.846-5.97-.188-1.83-1.303-2.74-2.387-3.981-.157-.181-1.406-.652-1.508-.88-.519-1.131.18-2.066.628-3.095.738-1.704 1.54-3.315 1.783-4.964-.778-.573-1.524-.77-2.239-.77-3.833 0-8.373 5.42-13.023 45.612-2.537 21.899-3.849 44.089-3.856 44.316a1.572 1.572 0 0 0 1.57 1.666h21.114c0-.346-.008-.684-.04-1.014z" opacity=".3"/><path fill="#064E72" d="M190.295 114.945c-5.592-40.161-10.242-45.581-14.06-45.581-.997 0-2.05.369-3.134 1.626-.502 1.005-.816 1.767-.652 2.945.165 1.21.888 1.893 1.477 2.899 1.909 3.275.99 5.105.338 8.585-.833 4.485 1.233 7.674 1.83 12.041.683 5.003.212 10.494.291 15.552.07 4.328.895 6.85 2.6 10.659 2.081 4.634-.495 9.229-2.121 13.644-1.194 3.236-2.592 7.187-1.83 10.698.259 1.17.793 1.963 1.374 2.969 1.634 2.835.464 4.155-.738 7.069a15.728 15.728 0 0 0-.848 2.891h18.788c.44 0 .856-.181 1.155-.503.298-.322.447-.754.408-1.194 0-.212-1.83-22.402-4.878-44.3z" opacity=".3"/><path fill="#A1AEC2" d="M41.12 88.953a41.456 41.456 0 0 0 3.746 4.116 45.249 45.249 0 0 0 4.273 3.676c3 2.239 6.252 4.171 9.755 5.436 1.752.62 3.543 1.154 5.373 1.5 1.838.322 3.7.487 5.57.503 1.868-.016 3.761-.118 5.623-.472.943-.118 1.862-.353 2.796-.55.927-.212 1.838-.51 2.765-.754l.04-.007a.782.782 0 0 1 .958.565.781.781 0 0 1-.44.911 34.195 34.195 0 0 1-11.664 2.938c-2.035.126-4.077.008-6.111-.236-2.027-.29-4.03-.738-5.97-1.398a38.524 38.524 0 0 1-10.737-5.742 44.274 44.274 0 0 1-4.587-3.99 46.253 46.253 0 0 1-2.066-2.23 27.029 27.029 0 0 1-1.917-2.451 1.567 1.567 0 0 1 .4-2.184 1.57 1.57 0 0 1 2.122.314l.07.055zm184.93 61.565a95.639 95.639 0 0 0 1.862 3.653 45.779 45.779 0 0 0 2.097 3.542 29.329 29.329 0 0 0 2.49 3.213c.927.966 1.94 1.838 3.079 2.576l.039.024a.786.786 0 0 1 .236 1.091.797.797 0 0 1-.896.33c-1.5-.455-2.882-1.241-4.115-2.175-1.241-.943-2.31-2.058-3.284-3.229-.974-1.17-1.814-2.443-2.568-3.746-.746-1.328-1.375-2.647-1.885-4.156a1.567 1.567 0 0 1 .989-1.987 1.562 1.562 0 0 1 1.917.809l.039.055z"/></svg>