<svg xmlns="http://www.w3.org/2000/svg" fill="none" viewBox="0 0 48 48"><path fill="#588AF5" d="M0 40h48v8H0v-8Z"/><path fill="#464B55" d="M8 48h32V8H8v40Z"/><path fill="#464B55" d="M0 16h48V8H0v8Z"/><path fill="#588AF5" d="M8 16h32V8H8v8Z"/><path fill="#ECD069" d="M32 8a8 8 0 1 1-16 0 8 8 0 0 1 16 0Z"/><path fill="#0A0B0D" d="M32 8a8 8 0 0 1-16 0h16Z"/><path fill="#fff" d="M24 14a6 6 0 0 0-6-6 6 6 0 0 0 6-6 6 6 0 0 0 6 6 6 6 0 0 0-6 6Z"/><path fill="#0A0B0D" d="M8 40h32v8H8v-8Z"/><path fill="#fff" fill-rule="evenodd" d="M13 23h22v2H13v-2Zm0 9h22v2H13v-2Z" clip-rule="evenodd"/></svg>