<svg xmlns="http://www.w3.org/2000/svg" fill="none" viewBox="0 0 240 120"><path fill="#588AF5" fill-rule="evenodd" d="M56.002 71.903c-13.255-.01-24.008 10.728-24.018 23.983-.01 13.255 10.728 24.008 23.983 24.017L189.22 120a2.747 2.747 0 0 0 2.749-2.745L192 74.749a2.747 2.747 0 0 0-2.745-2.75l-133.253-.096ZM72 96c0 8.836-7.163 16-16 16s-16-7.164-16-16c0-8.837 7.163-16 16-16s16 7.163 16 16Z" clip-rule="evenodd"/><path fill="#464B55" fill-rule="evenodd" d="M42.398 76.019c-10.92 7.513-13.681 22.456-6.168 33.376 7.514 10.92 22.457 13.681 33.377 6.167l109.776-75.534a2.747 2.747 0 0 0 .706-3.82L155.994 1.19a2.746 2.746 0 0 0-3.819-.706L42.398 76.02ZM72 95.999C72 104.837 64.837 112 56 112s-16-7.164-16-16c0-8.837 7.163-16 16-16s16 7.163 16 16Z" clip-rule="evenodd"/><path fill="#ECD069" d="M206 88h-46v16h46V88Z"/><path fill="#0A0B0D" d="M192 88h-32v16h32V88Z"/><path fill="#588AF5" d="M204 90a2 2 0 1 1 4 0v12a2 2 0 1 1-4 0V90Z"/><path fill="#fff" fill-rule="evenodd" d="M36.23 109.395a23.93 23.93 0 0 1-3.773-18.256c2.212-10.98 11.915-19.244 23.545-19.236l76.974.056-63.37 43.603c-10.919 7.514-25.862 4.752-33.375-6.167ZM72 96c0 8.836-7.163 16-16 16s-16-7.164-16-16c0-8.837 7.163-16 16-16s16 7.163 16 16Z" clip-rule="evenodd"/><path fill="#0A0B0D" d="M56 112c8.837 0 16-7.163 16-16s-7.163-16-16-16-16 7.163-16 16 7.163 16 16 16Z"/><path fill="#fff" fill-rule="evenodd" d="M56 85.923c-5.565 0-10.077 4.511-10.077 10.077 0 5.565 4.512 10.077 10.077 10.077S66.077 101.565 66.077 96c0-5.566-4.512-10.077-10.077-10.077ZM43.923 96c0-6.67 5.407-12.077 12.077-12.077S68.077 89.33 68.077 96 62.67 108.077 56 108.077 43.923 102.67 43.923 96ZM128 87h24v2h-24v-2Zm0 16h24v2h-24v-2Zm0-8h24v2h-24v-2Z" clip-rule="evenodd"/></svg>