<svg xmlns="http://www.w3.org/2000/svg" fill="none" viewBox="0 0 240 120"><g clip-path="url(#a)"><path fill="#588AF5" d="M2 88h210c15.5 0 28-12.5 28-28s-12.5-28-28-28H2c-1.1 0-2 .9-2 2v52c0 1.1.9 2 2 2Z"/><path fill="#464B55" d="M64 120h112V0H64v120Z"/><path fill="#0A0B0D" d="M176 32H64v56h112V32Z"/><path fill="#fff" d="M212 80c11.046 0 20-8.954 20-20s-8.954-20-20-20-20 8.954-20 20 8.954 20 20 20Z"/><path stroke="#000" stroke-miterlimit="10" stroke-width="2" d="M212 72c6.627 0 12-5.373 12-12s-5.373-12-12-12-12 5.373-12 12 5.373 12 12 12Z"/><path fill="#000" d="m212.068 55.826-4.172 4.172 4.172 4.172 4.172-4.172-4.172-4.172Z"/><path stroke="#000" stroke-miterlimit="10" stroke-width="2" d="M56 72H24m32-8.1H24M56 56H24m32-8H24m-8 40V32"/><path fill="#ECD069" d="M160 88H80l40-56 40 56Z"/><path fill="#0A0B0D" fill-rule="evenodd" d="M118.5 73V47h3v26h-3Zm0 9v-5h3v5h-3Z" clip-rule="evenodd"/></g><defs><clipPath id="a"><path fill="#fff" d="M0 0h240v120H0z"/></clipPath></defs></svg>