<svg xmlns="http://www.w3.org/2000/svg" fill="none" viewBox="0 0 240 120"><path fill="#45DAF6" fill-rule="evenodd" d="M126 60V12H22v48" clip-rule="evenodd"/><path fill="#464B55" d="M29.81 0h-28v120h28v-8h171.11a23.912 23.912 0 0 1-6.111-16 23.912 23.912 0 0 1 6.111-16H29.81V0Z"/><path fill="#588AF5" d="M30 80v32H2V80h28ZM2 12h28v48H2V12Z"/><path fill="#0A0B0D" fill-rule="evenodd" d="M10 13.25H2v-2h8v2Zm0 48H2v-2h8v2Zm0-16H2v-2h8v2Zm0-16.068H2v-2h8v2Zm0 48.001H2v-2h8v2Zm0 32.067H2v-2h8v2Zm0-16H2v-2h8v2Z" clip-rule="evenodd"/><path fill="#F0616D" d="M198.809 96c0 11.046 8.954 20 20 20s20-8.954 20-20-8.954-20-20-20-20 8.954-20 20Z"/><path fill="#464B55" fill-rule="evenodd" d="M125.492 12.17v47.944c-13.163-.09-23.806-10.788-23.806-23.972 0-13.184 10.643-23.882 23.806-23.972Z" clip-rule="evenodd"/><path fill="#588AF5" d="M101.618 36c0-13.255 10.745-24 24-24s24 10.745 24 24-10.745 24-24 24-24-10.745-24-24Z"/><path fill="#464B55" d="M125.618 12a24.002 24.002 0 0 1 24 24 24 24 0 0 1-24 24V12Z"/><path fill="#fff" d="M107.618 36c0-9.941 8.059-18 18-18s18 8.059 18 18-8.059 18-18 18-18-8.059-18-18Z"/><path fill="#fff" fill-rule="evenodd" d="M125.659 2.182c-18.755 0-33.96 15.205-33.96 33.96 0 18.755 15.205 33.96 33.96 33.96 18.755 0 33.959-15.205 33.959-33.96 0-18.755-15.204-33.96-33.959-33.96Zm0-2c-19.86 0-35.96 16.1-35.96 35.96s16.1 35.96 35.96 35.96 35.959-16.1 35.959-35.96S145.519.182 125.659.182Z" clip-rule="evenodd"/><path fill="#0A0B0D" fill-rule="evenodd" d="M124.492 24.004h2v11.654l11.83 11.705-1.407 1.422-12.423-12.293V24.004ZM218 107V84h2v23h-2Z" clip-rule="evenodd"/><path fill="#F0616D" fill-rule="evenodd" d="M209.208 100H230v3h-21l.208-3Z" clip-rule="evenodd"/></svg>