<svg xmlns="http://www.w3.org/2000/svg" fill="none" viewBox="0 0 48 48"><path fill="#464B55" d="M41.5 3v28.885c0 .841-.68 1.52-1.524 1.52h-4.014V8.514h-18.85V4.52c0-.84.68-1.52 1.524-1.52H41.5Z"/><path fill="#588AF5" d="M7 45h24.389a1.52 1.52 0 0 0 1.524-1.52V11.554H8.524A1.52 1.52 0 0 0 7 13.074V45Z"/><path fill="#588AF5" d="M32.913 11.554H17.111v21.862h15.802V11.554Z"/><path fill="#fff" d="M32.913 11.554H17.111v21.862h15.802V11.554Z"/><path fill="#0A0B0D" d="M25.008 16.308a10.052 10.052 0 0 0 6.098 6.08 10.052 10.052 0 0 0-6.098 6.082 10.052 10.052 0 0 0-6.097-6.081 10.052 10.052 0 0 0 6.097-6.081Z"/></svg>