<svg xmlns="http://www.w3.org/2000/svg" fill="none" viewBox="0 0 240 120"><path fill="#464B55" d="M192 76H62V44h130v32Zm0-44h-72V0h72v32Z"/><path fill="#45DAF6" d="M32 52c0-8.837 7.163-16 16-16m16-20c0 8.837-7.163 16-16 16s-16-7.163-16-16S39.163 0 48 0s16 7.163 16 16Z"/><path fill="#44C28D" d="M176 16c0 8.837 7.163 16 16 16s16-7.163 16-16-7.163-16-16-16-16 7.163-16 16Zm32 40c0-8.837-7.163-16-16-16"/><path fill="#588AF5" d="M104 16c0 8.837 7.163 16 16 16s16-7.163 16-16-7.163-16-16-16-16 7.163-16 16Z"/><path fill="#0A0B0D" d="M120 0a16.002 16.002 0 0 1 16 16 16.002 16.002 0 0 1-16 16V0Z"/><path fill="#588AF5" d="M192 32a16.002 16.002 0 0 1-16-16 16.002 16.002 0 0 1 16-16v32Zm-56 20c0-8.837-7.163-16-16-16"/><path fill="#0A0B0D" fill-rule="evenodd" d="M133.859 44A15.92 15.92 0 0 1 136 52v24h-32V52c0-2.914.779-5.647 2.141-8h27.718Z" clip-rule="evenodd"/><path fill="#588AF5" fill-rule="evenodd" d="M32 88v8c0 13.255 10.745 24 24 24h8V88H32Zm176 0v8c0 13.255-10.745 24-24 24h-8V88h32Z" clip-rule="evenodd"/><path fill="#464B55" d="M64 88h112v32H64V88Z"/><path fill="#0A0B0D" d="M160.414 104 153 111.414 151.586 110l5-5H64v-2h92.586l-5-5L153 96.586l7.414 7.414Z"/><path fill="#588AF5" fill-rule="evenodd" d="M34.14 44A15.927 15.927 0 0 0 32 52v24h32V52c0-2.914-.78-5.647-2.14-8H34.14Z" clip-rule="evenodd"/><path fill="#0A0B0D" d="M51 52.586 52.414 54l-5 5H176v2H47.414l5 5L51 67.414 43.586 60 51 52.586Z"/></svg>