<svg xmlns="http://www.w3.org/2000/svg" fill="none" viewBox="0 0 240 240"><path fill="#45DAF6" d="M48 216.002h144v-192H48v192z"/><path fill="#fff" d="M84 112c6.627 0 12-5.373 12-12s-5.373-12-12-12c-6.628 0-12 5.373-12 12s5.372 12 12 12zm36 0c6.627 0 12-5.373 12-12s-5.373-12-12-12c-6.628 0-12 5.373-12 12s5.372 12 12 12zm36 0c6.627 0 12-5.373 12-12s-5.373-12-12-12c-6.628 0-12 5.373-12 12s5.372 12 12 12zM84 80c6.627 0 12-5.373 12-12s-5.373-12-12-12c-6.628 0-12 5.373-12 12s5.372 12 12 12zm36 0c6.627 0 12-5.373 12-12s-5.373-12-12-12c-6.628 0-12 5.373-12 12s5.372 12 12 12zm36 0c6.627 0 12-5.373 12-12s-5.373-12-12-12c-6.628 0-12 5.373-12 12s5.372 12 12 12zm-72 64c6.627 0 12-5.373 12-12s-5.373-12-12-12c-6.628 0-12 5.373-12 12s5.372 12 12 12zm36 0c6.627 0 12-5.373 12-12s-5.373-12-12-12c-6.628 0-12 5.373-12 12s5.372 12 12 12zm36 0c6.627 0 12-5.373 12-12s-5.373-12-12-12c-6.628 0-12 5.373-12 12s5.372 12 12 12z"/><path fill="#0A0B0D" d="M121 98.63v-5.26h-2v5.26L114 97l-.62 1.9 5 1.63-3.09 4.25 1.62 1.18 3.09-4.26 3.09 4.26 1.62-1.18-3.09-4.25 5-1.63L126 97l-5 1.63zm-36 0v-5.26h-2v5.26L78 97l-.62 1.9 5 1.63-3.09 4.25 1.62 1.18L84 101.7l3.09 4.26 1.62-1.18-3.09-4.25 5-1.63L90 97l-5 1.63zm72 0v-5.26h-2v5.26L150 97l-.62 1.9 5 1.63-3.09 4.25 1.62 1.18 3.09-4.26 3.09 4.26 1.62-1.18-3.09-4.25 5-1.63L162 97l-5 1.63zm-36-32v-5.26h-2v5.26L114 65l-.62 1.9 5 1.63-3.09 4.25 1.62 1.18L120 69.7l3.09 4.26 1.62-1.18-3.09-4.25 5-1.63L126 65l-5 1.63zm-36 0v-5.26h-2v5.26L78 65l-.62 1.9 5 1.63-3.09 4.25 1.62 1.18L84 69.7l3.09 4.26 1.62-1.18-3.09-4.25 5-1.63L90 65l-5 1.63zm66.29 6.15 1.62 1.18L156 69.7l3.09 4.26 1.62-1.18-3.09-4.25 5-1.63L162 65l-5 1.63v-5.26h-2v5.26L150 65l-.62 1.9 5 1.63-3.09 4.25zM126 129l-5 1.62v-5.25h-2v5.25l-5-1.62-.62 1.9 5 1.63-3.09 4.25 1.62 1.18 3.09-4.26 3.09 4.26 1.62-1.18-3.09-4.25 5-1.63-.62-1.9zm-36 0-5 1.62v-5.25h-2v5.25L78 129l-.62 1.9 5 1.63-3.09 4.25 1.62 1.18L84 133.7l3.09 4.26 1.62-1.18-3.09-4.25 5-1.63L90 129zm72 0-5 1.62v-5.25h-2v5.25l-5-1.62-.62 1.9 5 1.63-3.09 4.25 1.62 1.18 3.09-4.26 3.09 4.26 1.62-1.18-3.09-4.25 5-1.63-.62-1.9z"/><path fill="#588AF5" d="M48 24h144V0H48v24zm0 216h144v-24H48v24z"/><path fill="#464B55" d="M216 0h-24v24h48v-8h-24V0zM0 0v16h24v8h24V0H0zm0 216v16h24v8h24v-24H0z"/><path fill="#0A0B0D" d="M120 14a2 2 0 1 0 0-4 2 2 0 0 0 0 4zm8 212h-16v4h16v-4zm1-50v-7c0-4.96-4.04-9-9-9s-9 4.04-9 9v7h-7v24h32v-24h-7zm-8 10.82V192h-2v-5.18a2.996 2.996 0 0 1 1-5.82c1.66 0 3 1.34 3 3 0 1.3-.84 2.4-2 2.82zm6-10.82h-14v-7c0-3.86 3.14-7 7-7s7 3.14 7 7v7z"/><path fill="#464B55" d="M240 224h-24v-8h-24v24h48v-16z"/></svg>