<svg xmlns="http://www.w3.org/2000/svg" fill="none" viewBox="0 0 240 241"><path fill="#464B55" d="M0 88.374a8 8 0 0 1 8-8h200v16H0v-8z"/><path fill="#588AF5" d="M0 88.374c0 4.414 4.235 7.993 9.462 8H224v144H7.97l-.118-.115c-3.965-.619-7.096-3.66-7.733-7.51L0 232.634V88.374z"/><path fill="#588AF5" d="M48 80.37h104v16H48z"/><path fill="#0A0B0D" d="M48 96.37h104v72H48z"/><path fill="#464B55" d="M48 .37h104v80H48zM168 0h32v56h-32zM8 .37h24v28H8z"/><path fill="#0A0B0D" d="M192 136.374h32v64h-32v-64z"/><path fill="#588AF5" d="M224 136.374h16v64h-16v-64z"/><circle cx="100" cy="164.37" r="50" fill="#ECD069" stroke="#0A0B0D" stroke-width="4"/><circle cx="100" cy="164.37" r="39" stroke="#0A0B0D" stroke-width="2"/><path stroke="#0A0B0D" stroke-width="2" d="M80 164.374h40m-20 20v-40m-10 10 10 10m0 0 10 10m-10-10-10 10m10-10 10-10"/><path fill="#0A0B0D" d="M136 32.372c-8.838 0-15.998 7.164-15.998 16.002 0-8.838-7.164-16.002-16.002-16.002 8.838 0 16.002-7.163 16.002-15.998 0 8.835 7.16 15.998 15.998 15.998z"/><path fill="#0A0B0D" d="M120 16.6v31.548c-.121-8.734-7.237-15.776-16-15.776 8.763 0 15.879-7.041 16-15.772z"/><circle cx="20" cy="28.37" r="12" fill="#45DAF6"/><path fill="#588AF5" d="M32 28.374c0-6.627-5.373-12-12-12s-12 5.373-12 12h24z"/><circle r="16" fill="#ECD069" transform="matrix(1 0 0 -1 184 56)"/><path fill="#588AF5" d="M184 40c8.837 0 16 7.163 16 16h-32c0-8.837 7.163-16 16-16z"/><path fill="#ECD069" d="M36 60.375c6.629 0 11.999-5.372 11.999-12.001 0 6.629 5.372 12.001 12.001 12.001-6.629 0-12.001 5.373-12.001 11.999 0-6.626-5.37-11.999-11.999-11.999z"/><path fill="#588AF5" d="M48 72.204v-23.66c.09 6.55 5.428 11.831 12 11.831-6.572 0-11.91 5.282-12 11.83z"/><path fill="#fff" d="m199.997 168.371 8.485-8.485 8.486 8.485-8.486 8.485z"/></svg>