<svg xmlns="http://www.w3.org/2000/svg" fill="none" viewBox="0 0 120 120"><path fill="#464B55" fill-rule="evenodd" d="M46.223 26.74A36.001 36.001 0 0 1 60 24v36h36a36.001 36.001 0 1 1-49.777-33.26z" clip-rule="evenodd"/><path fill="#ECD069" d="M100 60a40 40 0 0 0-40-40v24.272A15.728 15.728 0 0 1 75.728 60H100z"/><path fill="#464B55" d="M104 60a44.004 44.004 0 0 0-27.162-40.65A44 44 0 0 0 60 16v26.7A17.301 17.301 0 0 1 77.3 60H104z"/><path fill="#588AF5" d="M96 60a36.001 36.001 0 0 0-36-36v21.845A14.154 14.154 0 0 1 74.155 60H96z"/><path fill="#0A0B0D" d="M85 60c0 13.807-11.193 25-25 25S35 73.807 35 60s11.193-25 25-25 25 11.193 25 25z"/><path fill="#fff" fill-rule="evenodd" d="M59 52h2v7.586l5.707 5.707-1.414 1.414L59 60.414V52z" clip-rule="evenodd"/><path fill="#fff" fill-rule="evenodd" d="m59.696 48.718 4.718-4.575-4.697-4.84-1.435 1.394L60.518 43H60c-9.389 0-17 7.611-17 17 0 9.39 7.611 17 17 17v-2c-8.284 0-15-6.716-15-15 0-8.284 6.716-15 15-15h.657l-2.353 2.282 1.392 1.436z" clip-rule="evenodd"/></svg>