<svg xmlns="http://www.w3.org/2000/svg" fill="none" viewBox="0 0 240 120"><path fill="#464B55" d="M76.18 120C61.393 107.526 52 88.86 52 68c0-37.555 30.445-68 68-68s68 30.445 68 68c0 20.86-9.393 39.526-24.18 52h-13.867C167.913 109.632 180 90.228 180 68c0-33.137-26.863-60-60-60S60 34.863 60 68c0 22.228 12.087 41.632 30.047 52H76.18Z"/><path fill="#464B55" fill-rule="evenodd" d="M120 120c28.167 0 51-23.834 51-52h37v52h-88Z" clip-rule="evenodd"/><path fill="#44C28D" d="M32 68h88v52H32V68Z"/><path fill="#588AF5" fill-rule="evenodd" d="M70.156 68H120v52c-27.626-.589-49.844-23.645-49.844-52Z" clip-rule="evenodd"/><path fill="#fff" fill-rule="evenodd" d="M171.981 69.415c-.731 27.64-22.822 49.901-50.212 50.57-.256.01-.512.015-.769.015l-.189-.001-.158.001h-.153c-28.112 0-50.963-22.743-51.49-51H32v-2h37.01c.527-28.257 23.378-51 51.49-51a53.476 53.476 0 0 1 .5 0c.257 0 .513.005.769.015 27.664.676 49.922 23.378 50.228 51.4H208v2h-36.019Zm-1.984-2A50.209 50.209 0 0 0 165.436 47h-16.055c1.642 6.26 2.57 13.164 2.617 20.415h17.999Zm-20.008 2h-17.161l7 7-1.414 1.414L129 68.415 138.414 59l1.414 1.415-7 7h17.168c-.091-13.705-3.397-26.05-8.647-34.975C136.241 23.755 129.4 18.463 122 18.024v27.39h14.586l-7-7L131 37l9.414 9.414L131 55.83l-1.414-1.415 7-7H122v41.572h14.586l-7-7L131 80.573l9.414 9.415L131 99.4l-1.414-1.414 7-7H122v26.983c7.403-.438 14.243-5.731 19.351-14.415 5.143-8.743 8.421-20.769 8.638-34.14Zm2 0c-.11 6.948-1.029 13.564-2.608 19.585h16.055a50.179 50.179 0 0 0 4.545-19.585h-17.992ZM120 88.986V69H92.007c.082 7.135 1.035 13.895 2.679 19.986H120Zm-24.742 2H120v26.99c-7.4-.439-14.241-5.731-19.349-14.416-2.154-3.663-3.981-7.901-5.393-12.574Zm-2.643-2c-1.608-6.137-2.53-12.892-2.61-19.986H71.01a50.192 50.192 0 0 0 4.547 19.986h17.058Zm-16.086 2h16.64c1.477 5.041 3.426 9.624 5.755 13.583 3.195 5.433 7.146 9.747 11.61 12.417-14.819-3.06-27.234-12.811-34.005-26ZM120 45.414V18.03c-7.403.438-14.243 5.73-19.351 14.415-2.215 3.765-4.085 8.14-5.512 12.97H120Zm-25.422 2H120V67H92.006c.08-6.98.993-13.6 2.572-19.586Zm-1.524-2c1.49-5.199 3.48-9.92 5.87-13.984 3.197-5.433 7.147-9.746 11.611-12.416-14.969 3.091-27.485 13.008-34.21 26.4h16.729ZM75.5 47.14v.275h17.012C90.967 53.444 90.083 60.06 90.006 67H71.01a50.195 50.195 0 0 1 4.49-19.86Zm56.535-27.774c4.232 2.69 7.982 6.866 11.041 12.066 2.326 3.956 4.274 8.534 5.75 13.569h15.638c-6.532-12.713-18.31-22.23-32.429-25.635Zm-.001 97.27c14.12-3.405 25.898-12.921 32.43-25.635h-15.638c-1.476 5.036-3.424 9.614-5.751 13.569-3.059 5.201-6.81 9.377-11.041 12.066Z" clip-rule="evenodd"/><path fill="#0A0B0D" fill-rule="evenodd" d="M32 69h37.01c.524 28.09 23.108 50.73 50.99 50.998v-2.022c-7.4-.439-14.241-5.731-19.349-14.416-2.154-3.663-3.981-7.901-5.393-12.574H120v-2H94.686c-1.644-6.091-2.597-12.85-2.679-19.986H120 32Zm58.006 0c.079 7.094 1.001 13.85 2.61 19.986H75.557A50.192 50.192 0 0 1 71.01 69h18.996Zm3.164 21.986H76.529c6.77 13.189 19.186 22.94 34.005 26-4.464-2.67-8.415-6.984-11.61-12.417-2.329-3.959-4.278-8.542-5.754-13.583Z" clip-rule="evenodd"/></svg>