<svg xmlns="http://www.w3.org/2000/svg" fill="none" viewBox="0 0 96 96"><path fill="#464B55" d="M48 48h48v48H48V48ZM0 0h48v48H0V0Z"/><path fill="#0A0B0D" d="M48 48h48"/><path fill="#588AF5" d="M0 19.2 48 0v48H0V19.2Z"/><path fill="#588AF5" fill-rule="evenodd" d="M48 24.32V44.8H27.52c0-11.31 9.17-20.48 20.48-20.48Z" clip-rule="evenodd"/><path fill="#464B55" fill-rule="evenodd" d="M10.4 48H0c0 26.51 21.49 48 48 48V85.493h-.053C27.227 85.493 10.429 68.712 10.4 48ZM48 0l48 19.2V48H85.493v-.053C85.493 27.228 68.712 10.429 48 10.4V0Z" clip-rule="evenodd"/><path fill="#588AF5" fill-rule="evenodd" d="M47.947 85.493c20.736 0 37.546-16.81 37.546-37.546H47.947v37.546Z" clip-rule="evenodd"/><path fill="#45DAF6" fill-rule="evenodd" d="M48 10.4c-20.766 0-37.6 16.834-37.6 37.6H48V10.4Z" clip-rule="evenodd"/><path fill="#ECD069" d="M70 48.052C70 60.174 60.174 70 48.052 70c-12.121 0-21.947-9.826-21.947-21.948 0-12.121 9.826-21.948 21.947-21.948C60.174 26.104 70 35.931 70 48.052Z"/><path fill="#588AF5" fill-rule="evenodd" d="M48 26v22H26c0-12.15 9.85-22 22-22Z" clip-rule="evenodd"/><path fill="#588AF5" fill-rule="evenodd" d="M48 32v16H32c0-8.837 7.163-16 16-16Z" clip-rule="evenodd"/><path fill="#0A0B0D" fill-rule="evenodd" d="M48 31c-9.389 0-17 7.611-17 17s7.611 17 17 17 17-7.611 17-17-7.611-17-17-17ZM33 48c0-8.284 6.716-15 15-15 8.284 0 15 6.716 15 15 0 8.284-6.716 15-15 15-8.284 0-15-6.716-15-15Z" clip-rule="evenodd"/><path fill="#0A0B0D" fill-rule="evenodd" d="M48 18c-16.569 0-30 13.43-30 30 0 16.569 13.431 30 30 30 16.569 0 30-13.431 30-30 0-16.569-13.431-30-30-30ZM20 48c0-15.464 12.536-28 28-28s28 12.536 28 28-12.536 28-28 28-28-12.536-28-28Z" clip-rule="evenodd"/></svg>