<svg xmlns="http://www.w3.org/2000/svg" fill="none" viewBox="0 0 96 96"><path fill="#464B55" d="M0 12.8h48V48H0V12.8Z"/><path fill="#588AF5" fill-rule="evenodd" d="M48 96V48H0v.102c.029 12.722 5.444 24.917 15.063 33.915C23.896 90.28 35.613 95.227 48 96Z" clip-rule="evenodd"/><path fill="#588AF5" d="m24 0 24 12.8H0L24 0Z"/><path fill="#464B55" d="M48 48h48v48H48V48Z"/><path fill="#0A0B0D" d="M48 88c0-13.255 10.745-24 24-24s24 10.745 24 24v8H48v-8Z"/><path fill="#588AF5" d="M59.2 48c0-7.07 5.73-12.8 12.8-12.8S84.8 40.93 84.8 48c0 7.069-5.73 12.8-12.8 12.8S59.2 55.069 59.2 48Z"/><path fill="#0A0B0D" fill-rule="evenodd" d="M59.201 48.197C59.306 55.175 64.996 60.8 72 60.8c7.003 0 12.693-5.625 12.798-12.603H59.201Z" clip-rule="evenodd"/><path fill="#fff" fill-rule="evenodd" d="M48 18.55H0v2.1h8.71v20.3H0v2.1h48v-2.1h-8.71v-20.3H48v-2.1Zm-37.212 22.4v-20.3H22.96v20.3H10.788Zm14.251 0v-20.3h12.173v20.3H25.04Z" clip-rule="evenodd"/></svg>