<svg xmlns="http://www.w3.org/2000/svg" fill="none" viewBox="0 0 250 120"><path fill="#464B55" d="M105 16v16H10V16h95zm0 72v16H10V88h95zm70-40v24H10V48h165z"/><path fill="#ECD069" d="M198 112c-28.719 0-52-23.281-52-52s23.281-52 52-52 52 23.281 52 52-23.281 52-52 52z"/><path fill="#0A0B0D" fill-rule="evenodd" d="M241 60c0-23.748-19.252-43-43-43s-43 19.252-43 43 19.252 43 43 43 43-19.252 43-43zm-43-45c24.853 0 45 20.147 45 45s-20.147 45-45 45-45-20.147-45-45 20.147-45 45-45z" clip-rule="evenodd"/><path fill="#45DAF6" d="M122 48c-13.255 0-24-10.745-24-24s10.745-24 24-24 24 10.745 24 24-10.745 24-24 24z"/><path fill="#fff" d="M138.465 23.973C129.527 21.216 124.258 12.297 122 1c-2.258 11.297-7.527 20.216-16.465 22.973-.047 0-.047.054 0 .054C114.473 26.784 119.742 35.703 122 47c2.258-11.297 7.527-20.216 16.465-22.973.047 0 .047-.054 0-.054z"/><path fill="#44C28D" d="M114 95.5c0 12.979-10.745 23.5-24 23.5s-24-10.521-24-23.5S76.745 72 90 72s24 10.521 24 23.5z"/><path fill="#fff" d="m98 96-8.016 8L82 96l7.985-8L98 96z"/><path fill="#ECD069" d="M109.999 96c0-6.629 5.372-11.999 12.001-11.999-6.629 0-12.001-5.373-12.001-12.001 0 6.629-5.373 12.001-11.999 12.001 6.626 0 11.999 5.37 11.999 11.999z"/><path fill="#44C28D" d="M142.001 24c0-6.628-5.372-11.999-12.001-11.999 6.629 0 12.001-5.372 12.001-12.001 0 6.629 5.373 12.001 11.999 12.001-6.626 0-11.999 5.37-11.999 11.999z"/><path fill="#588AF5" d="M144.755 16.35a23.994 23.994 0 0 0-5.359-8.884A11.977 11.977 0 0 1 130 12.001c6.628 0 12.001 5.37 12.001 11.999a11.95 11.95 0 0 1 2.754-7.65zm-31.919 71.9a11.95 11.95 0 0 0-2.837 7.75c0-6.63-5.373-12-11.999-12 3.844 0 7.267-1.809 9.463-4.622a23.385 23.385 0 0 1 5.373 8.872z"/><path fill="#0A0B0D" fill-rule="evenodd" d="M210.5 60.012c-.004.29-.133.563-.353.75l-23 19.5-1.294-1.525L206.774 61H0v-2h206.875l-21.04-18.754 1.33-1.493 23 20.5a1 1 0 0 1 .335.76z" clip-rule="evenodd"/></svg>