<svg xmlns="http://www.w3.org/2000/svg" fill="none" viewBox="0 0 48 48"><path fill="#464B55" d="M37.489 24c4.203-4.087 6.22-8.116 4.82-10.5-1.402-2.384-5.83-2.61-11.377-1.022C29.53 6.803 27.12 3 24.375 3c-2.746 0-5.156 3.803-6.557 9.478C12.214 10.832 7.787 11.06 6.442 13.5c-1.345 2.44.672 6.413 4.82 10.5-4.204 4.087-6.221 8.116-4.82 10.5 1.4 2.384 5.828 2.61 11.376 1.022C19.22 41.197 21.63 45 24.375 45c2.746 0 5.156-3.803 6.557-9.478 5.604 1.646 10.031 1.419 11.376-1.022 1.345-2.44-.616-6.413-4.82-10.5Z"/><path fill="#588AF5" d="M32.052 28.484c2.074-1.476 3.923-2.951 5.436-4.484-1.569-1.532-3.362-3.008-5.436-4.484-.224-2.554-.56-4.937-1.12-7.037-2.074.624-4.26 1.475-6.557 2.554-2.298-1.079-4.483-1.93-6.557-2.554a48.49 48.49 0 0 0-1.12 7.037c-2.074 1.476-3.924 2.952-5.437 4.484 1.57 1.533 3.363 3.008 5.436 4.484.224 2.554.56 4.938 1.121 7.038 2.073-.625 4.26-1.476 6.557-2.554 2.297 1.078 4.483 1.93 6.557 2.554.504-2.1.896-4.484 1.12-7.038Z"/><path fill="#0A0B0D" d="M32.053 19.516a35.498 35.498 0 0 0-3.755-2.384c-1.345-.738-2.634-1.475-3.923-2.1-1.289.625-2.634 1.306-3.923 2.1-1.289.795-2.578 1.59-3.755 2.384A57.72 57.72 0 0 0 16.53 24c0 1.532.056 3.065.168 4.484a35.51 35.51 0 0 0 3.755 2.383c1.345.738 2.634 1.476 3.923 2.1 1.289-.624 2.634-1.305 3.923-2.1 1.289-.794 2.578-1.589 3.755-2.383A57.72 57.72 0 0 0 32.22 24c0-1.533-.056-3.065-.168-4.484Z"/><path fill="#fff" d="M24.431 26.78c1.57 0 2.858-1.305 2.858-2.894 0-1.589-1.289-2.894-2.858-2.894-1.569 0-2.858 1.305-2.858 2.894 0 1.59 1.29 2.895 2.858 2.895Z"/></svg>