<svg xmlns="http://www.w3.org/2000/svg" fill="none" viewBox="0 0 48 48"><path fill="#0A0B0D" d="M27.408 29.53a10.716 10.716 0 0 1-.883-1.589c.295.589.53 1.118.883 1.589Zm-.882-1.589Zm6.822 5.529a10.056 10.056 0 0 1-1.765-.529c.53.236 1.118.412 1.765.53Zm-5.412-3.235Zm3.647-14.647a10.056 10.056 0 0 1 1.765-.53 7.742 7.742 0 0 0-1.765.53Zm-1.647.882a9.845 9.845 0 0 0-2 1.824c.589-.706 1.295-1.294 2-1.823Zm-3.411 4.118c.236-.588.53-1.117.883-1.588-.353.53-.588 1.059-.883 1.588Zm-.529 1.765Z"/><path fill="#588AF5" d="M27.701 39.941c-5.41 5.412-14.173 5.412-19.643 0-5.41-5.412-5.41-14.176 0-19.588l5.705-5.706 19.643 19.647-5.704 5.647Z"/><path fill="#464B55" d="M39.935 8.059c-5.41-5.412-14.174-5.412-19.585 0l-4.88 4.881 3.293 3.294 7.352-7.353 13.056 13.06-7.351 7.352 3.293 3.294 4.882-4.882c5.352-5.47 5.352-14.235-.06-19.647Z"/><path fill="#fff" d="m26.055 12.176-7.352 7.353 4.058 4.059 7.352-7.353-4.058-4.059Zm5.705 5.706-7.352 7.353 4.058 4.06 7.352-7.354-4.058-4.059Z"/></svg>