<svg xmlns="http://www.w3.org/2000/svg" fill="none" viewBox="0 0 240 120"><path fill="#464B55" d="M216 86c0 5.523-4.477 10-10 10h-94V20c0-6.627 5.373-12 12-12h92v78z"/><path fill="#464B55" d="M216 86c0 5.523-4.477 10-10 10h-94V20c0-6.627 5.373-12 12-12h92v78z"/><path fill="#588AF5" d="M0 120h72V0H0v120z"/><path fill="#0A0B0D" d="M40 111h-8v2h8v-2z"/><path fill="#45DAF6" d="M0 104h72V16H0v88z"/><path fill="#fff" fill-rule="evenodd" d="M39.283 59.803a1 1 0 0 0 .01 1.404l18 18 1.414-1.414L42.414 61.5H155v-2H42.368l16.349-16.803-1.434-1.394-18 18.5z" clip-rule="evenodd"/><path fill="#0A0B0D" fill-rule="evenodd" d="M39.283 59.803a1 1 0 0 0 .01 1.404l18 18 1.414-1.414L42.414 61.5h29.59v-2H42.367l16.349-16.803-1.434-1.394-18 18.5z" clip-rule="evenodd"/><path fill="#0A0B0D" d="M36 10a2 2 0 1 0 0-4 2 2 0 0 0 0 4z"/><path fill="#464B55" d="M240 100c0 6.627-5.373 12-12 12H128V42c0-5.523 4.477-10 10-10h102v68z"/><path fill="#464B55" d="M240 100c0 6.627-5.373 12-12 12H128V42c0-5.523 4.477-10 10-10h102v68z"/><path fill="#0A0B0D" d="M216.001 24h-80.048c-4.632 0-8.447 3.5-8.945 8h88.993v-8z"/><path fill="#588AF5" d="M224 32v64h-97V32h97z"/><path fill="#0A0B0D" d="M196 48h28v32h-28V48z"/><path fill="#588AF5" d="M224 48h8v32h-8V48z"/><path fill="#fff" d="m210 58 6 6-6 6-6-6 6-6z"/></svg>