<svg xmlns="http://www.w3.org/2000/svg" fill="none" viewBox="0 0 240 240"><path fill="#45DAF6" d="M200 0H40v240h160V0z"/><path fill="#464B55" d="M240 48H0v144.2h240V48z"/><path fill="#588AF5" d="M200 48H40v144h160V48z"/><path fill="#ECD069" d="M76.4 174.2c9.941 0 18-8.059 18-18s-8.059-18-18-18c-9.94 0-18 8.059-18 18s8.06 18 18 18z"/><path fill="#fff" d="M76.4 140.2c8.8 0 16 7.2 16 16s-7.2 16-16 16-16-7.2-16-16 7.1-16 16-16zm0-4c-11 0-20 9-20 20s9 20 20 20 20-9 20-20-9-20-20-20z"/><path fill="#44C28D" d="M76.4 102.2c9.941 0 18-8.059 18-18 0-9.94-8.059-18-18-18-9.94 0-18 8.06-18 18 0 9.941 8.06 18 18 18z"/><path fill="#fff" d="M76.4 68.2c8.8 0 16 7.2 16 16s-7.2 16-16 16-16-7.2-16-16 7.1-16 16-16zm0-4c-11 0-20 9-20 20s9 20 20 20 20-9 20-20-9-20-20-20z"/><path fill="#0A0B0D" fill-rule="evenodd" d="M83.198 79.602 74.505 91.12l-6.112-6.113 1.414-1.414 4.487 4.487 7.308-9.683 1.596 1.205zm.002 71.997-8.69 11.625-6.117-6.117 1.414-1.414 4.483 4.484 7.309-9.776 1.602 1.198zM200.001 121l-159.6.2-.003-2 159.6-.2.003 2zM144.4 73.2h-24v-2h24v2zm32 88h-40v-2h40v2zm0-8h-40v-2h40v2zm-32-8h-24v-2h24v2zm32 24h-40v-2h40v2zm-56-18h8v2h-8v-2zm0 8h8v2h-8v-2zm0 8h8v2h-8v-2zm56-78h-40v-2h40v2zm0-8h-40v-2h40v2zm0 16h-40v-2h40v2zm-56-18h8v2h-8v-2zm0 8h8v2h-8v-2zm0 8h8v2h-8v-2z" clip-rule="evenodd"/></svg>