<svg xmlns="http://www.w3.org/2000/svg" fill="none" viewBox="0 0 48 48"><path fill="#588AF5" d="M25.6 24v23.8c6.1 0 12.2-2.3 16.8-7L25.6 24Zm0 23.8C12.4 47.8 1.8 37.1 1.8 24 1.8 10.9 12.4.1 25.6.1v47.7Z"/><path fill="#fff" d="M25.6 43c-4.9 0-9.8-1.9-13.5-5.6-7.4-7.4-7.4-19.5 0-27 3.7-3.7 8.6-5.6 13.5-5.6V43Z"/><path fill="#464B55" d="M25.6 4.9c10.5 0 19.1 8.5 19.1 19.1 0 3.5-1 6.9-2.7 9.7-3.3 5.6-9.4 9.3-16.4 9.3"/><path fill="#464B55" d="M25.6 38.3c7.898 0 14.3-6.402 14.3-14.3 0-7.898-6.402-14.3-14.3-14.3-7.898 0-14.3 6.402-14.3 14.3 0 7.898 6.402 14.3 14.3 14.3Z"/><path fill="#588AF5" d="M25.6 9.7c7.9 0 14.3 6.4 14.3 14.3s-6.4 14.3-14.3 14.3V9.7Zm0 28.6L16.1 24l9.5 4.2v10.1Z"/><path fill="#0A0B0D" fill-rule="evenodd" d="M25.6 9.7v28.6L35.1 24 25.6 9.7Z" clip-rule="evenodd"/><path fill="#fff" d="M25.6 9.7v18.5L16.1 24l9.5-14.3Z"/></svg>