<svg width="64" height="64" viewBox="0 0 64 64" fill="none" xmlns="http://www.w3.org/2000/svg">
<g clip-path="url(#clip0)">
<path d="M0 29.77V64.11H64V29.77C41.14 9.76996 22.86 49.77 0 29.77Z" fill="#BFE9FF"/>
<path d="M32 44C34.4269 43.9982 36.8216 43.4442 39.0028 42.3801C41.184 41.3161 43.0945 39.7698 44.5898 37.8582C46.0851 35.9467 47.126 33.7201 47.6337 31.3468C48.1413 28.9736 48.1024 26.516 47.52 24.16C37.4 25.38 27.8 33.44 17.73 35.16C19.0564 37.8107 21.0929 40.0408 23.6126 41.6017C26.1323 43.1626 29.036 43.9929 32 44Z" fill="#56B4FC"/>
<path d="M24 0H40L32 8L24 0Z" fill="#1652F0"/>
<path d="M36 48H28V64H36V48Z" fill="#1652F0"/>
<path d="M32 12C28.8355 12 25.7421 12.9384 23.1109 14.6965C20.4797 16.4546 18.4289 18.9534 17.2179 21.8771C16.0069 24.8007 15.6901 28.0177 16.3074 31.1214C16.9248 34.2251 18.4487 37.0761 20.6863 39.3137C22.9239 41.5513 25.7749 43.0752 28.8786 43.6926C31.9823 44.3099 35.1993 43.9931 38.1229 42.7821C41.0466 41.5711 43.5454 39.5203 45.3035 36.8891C47.0616 34.2579 48 31.1645 48 28C48 23.7565 46.3143 19.6869 43.3137 16.6863C40.3131 13.6857 36.2435 12 32 12ZM32 41C29.4289 41 26.9154 40.2376 24.7776 38.8091C22.6398 37.3806 20.9735 35.3503 19.9896 32.9749C19.0056 30.5994 18.7482 27.9856 19.2498 25.4638C19.7514 22.9421 20.9895 20.6257 22.8076 18.8076C24.6257 16.9895 26.9421 15.7514 29.4638 15.2498C31.9856 14.7482 34.5995 15.0056 36.9749 15.9896C39.3503 16.9735 41.3807 18.6397 42.8091 20.7776C44.2376 22.9154 45 25.4288 45 28C45 31.4478 43.6304 34.7544 41.1924 37.1924C38.7544 39.6304 35.4478 41 32 41Z" fill="#56B4FC"/>
<path d="M34 42H30V48H34V42Z" fill="#1652F0"/>
<path d="M47.52 24.16C46.5106 24.2877 45.509 24.4713 44.52 24.71C44.8223 25.7812 44.9837 26.8872 45 28C44.9962 30.8606 44.0491 33.6401 42.3053 35.9077C40.5615 38.1753 38.1185 39.8044 35.3548 40.5426C32.5911 41.2808 29.6611 41.0869 27.0188 39.9908C24.3766 38.8947 22.1696 36.9577 20.74 34.48C19.7546 34.7774 18.753 35.0178 17.74 35.2C19.368 38.3995 22.0247 40.9586 25.2828 42.4657C28.541 43.9728 32.2113 44.3404 35.7037 43.5095C39.1961 42.6785 42.3075 40.6972 44.5377 37.8842C46.768 35.0712 47.9874 31.5899 48 28C47.9945 26.7054 47.8333 25.4162 47.52 24.16Z" fill="#1652F0"/>
</g>
<defs>
<clipPath id="clip0">
<rect width="64" height="64" fill="white"/>
</clipPath>
</defs>
</svg>
