<svg width="240" height="240" viewBox="0 0 240 240" fill="none" xmlns="http://www.w3.org/2000/svg">
<path d="M119.5 184C154.846 184 183.5 155.346 183.5 120C183.5 84.6538 154.846 56 119.5 56C84.1538 56 55.5 84.6538 55.5 120C55.5 155.346 84.1538 184 119.5 184Z" fill="#1652F0"/>
<path d="M147.5 84H91.5V156H147.5V84Z" fill="white"/>
<path opacity="0.2" d="M139.5 94H99.5V96H139.5V94Z" fill="#1652F0"/>
<path opacity="0.2" d="M139.5 102H99.5V104H139.5V102Z" fill="#1652F0"/>
<path opacity="0.2" d="M139.5 110H99.5V112H139.5V110Z" fill="#1652F0"/>
<path opacity="0.2" d="M139.5 118H99.5V120H139.5V118Z" fill="#1652F0"/>
<path d="M129.69 128.67L116.96 141.4L111.31 135.74L108.48 138.57L116.96 147.06L132.52 131.5L129.69 128.67Z" fill="#1652F0"/>
</svg>
