<svg width="64" height="64" viewBox="0 0 64 64" fill="none" xmlns="http://www.w3.org/2000/svg">
<g clip-path="url(#clip0)">
<path d="M32 -2.79753e-06C14.3269 -4.34256e-06 4.34256e-06 14.3269 2.79753e-06 32C1.2525e-06 49.6731 14.3269 64 32 64C49.6731 64 64 49.6731 64 32C64 14.3269 49.6731 -1.2525e-06 32 -2.79753e-06Z" fill="#BFE9FF"/>
<path d="M32 4C16.536 4 4 16.536 4 32C4 47.464 16.536 60 32 60C47.464 60 60 47.464 60 32C60 16.536 47.464 4 32 4Z" fill="#1652F0"/>
<path d="M30 48L34 48L34 24L30 24L30 48Z" fill="white"/>
<path d="M30 20L34 20L34 16L30 16L30 20Z" fill="white"/>
</g>
<defs>
<clipPath id="clip0">
<rect width="64" height="64" fill="white" transform="translate(64 64) rotate(-180)"/>
</clipPath>
</defs>
</svg>
