<svg width="64" height="64" viewBox="0 0 64 64" fill="none" xmlns="http://www.w3.org/2000/svg">
<path d="M40 16H8C3.58 16 0 19.58 0 24V56C0 60.42 3.58 64 8 64H40C44.42 64 48 60.42 48 56V24C48 19.58 44.42 16 40 16Z" fill="#56B4FC"/>
<path d="M48 32C56.8366 32 64 24.8366 64 16C64 7.16344 56.8366 0 48 0C39.1634 0 32 7.16344 32 16C32 24.8366 39.1634 32 48 32Z" fill="#FC9390"/>
<path d="M40 16H32C32 24.84 39.16 32 48 32V24C48 19.58 44.42 16 40 16Z" fill="#1652F0"/>
<path d="M32.9995 33L19.7595 46.24L14.0995 40.59L11.2695 43.41L19.7595 51.9L35.8295 35.83L32.9995 33Z" fill="white"/>
</svg>
