<svg width="64" height="64" viewBox="0 0 64 64" fill="none" xmlns="http://www.w3.org/2000/svg">
<path d="M8 10C6.9 10 6 9.1 6 8V2C6 0.9 6.9 0 8 0C9.1 0 10 0.9 10 2V8C10 9.1 9.1 10 8 10Z" fill="#BFE9FF"/>
<path d="M20 10C18.9 10 18 9.1 18 8V2C18 0.9 18.9 0 20 0C21.1 0 22 0.9 22 2V8C22 9.1 21.1 10 20 10Z" fill="#BFE9FF"/>
<path d="M32 10C30.9 10 30 9.1 30 8V2C30 0.9 30.9 0 32 0C33.1 0 34 0.9 34 2V8C34 9.1 33.1 10 32 10Z" fill="#BFE9FF"/>
<path d="M44 10C42.9 10 42 9.1 42 8V2C42 0.9 42.9 0 44 0C45.1 0 46 0.9 46 2V8C46 9.1 45.1 10 44 10Z" fill="#BFE9FF"/>
<path d="M56 10C54.9 10 54 9.1 54 8V2C54 0.9 54.9 0 56 0C57.1 0 58 0.9 58 2V8C58 9.1 57.1 10 56 10Z" fill="#BFE9FF"/>
<path d="M64 5H0V64H64V5Z" fill="#BFE9FF"/>
<path d="M64 5H0V13H64V5Z" fill="#56B4FC"/>
<path d="M56 13H8V56H56V13Z" fill="white"/>
<path d="M8 10C9.1 10 10 9.1 10 8V5H6V8C6 9.1 6.9 10 8 10Z" fill="#1652F0"/>
<path d="M44 10C45.1 10 46 9.1 46 8V5H42V8C42 9.1 42.9 10 44 10Z" fill="#1652F0"/>
<path d="M20 10C21.1 10 22 9.1 22 8V5H18V8C18 9.1 18.9 10 20 10Z" fill="#1652F0"/>
<path d="M32 10C33.1 10 34 9.1 34 8V5H30V8C30 9.1 30.9 10 32 10Z" fill="#1652F0"/>
<path d="M54 5V8C54 9.1 54.9 10 56 10C57.1 10 58 9.1 58 8V5H54Z" fill="#1652F0"/>
<path d="M48 24C49.1046 24 50 23.1046 50 22C50 20.8954 49.1046 20 48 20C46.8954 20 46 20.8954 46 22C46 23.1046 46.8954 24 48 24Z" fill="#1652F0"/>
<path d="M48 32C49.1046 32 50 31.1046 50 30C50 28.8954 49.1046 28 48 28C46.8954 28 46 28.8954 46 30C46 31.1046 46.8954 32 48 32Z" fill="#1652F0"/>
<path d="M48 40C49.1046 40 50 39.1046 50 38C50 36.8954 49.1046 36 48 36C46.8954 36 46 36.8954 46 38C46 39.1046 46.8954 40 48 40Z" fill="#1652F0"/>
<path d="M48 48C49.1046 48 50 47.1046 50 46C50 44.8954 49.1046 44 48 44C46.8954 44 46 44.8954 46 46C46 47.1046 46.8954 48 48 48Z" fill="#1652F0"/>
<path d="M40 24H16C14.9 24 14 23.1 14 22C14 20.9 14.9 20 16 20H40C41.1 20 42 20.9 42 22C42 23.1 41.1 24 40 24Z" fill="#BFE9FF"/>
<path d="M40 32H16C14.9 32 14 31.1 14 30C14 28.9 14.9 28 16 28H40C41.1 28 42 28.9 42 30C42 31.1 41.1 32 40 32Z" fill="#BFE9FF"/>
<path d="M40 40H16C14.9 40 14 39.1 14 38C14 36.9 14.9 36 16 36H40C41.1 36 42 36.9 42 38C42 39.1 41.1 40 40 40Z" fill="#BFE9FF"/>
<path d="M40 48H16C14.9 48 14 47.1 14 46C14 44.9 14.9 44 16 44H40C41.1 44 42 44.9 42 46C42 47.1 41.1 48 40 48Z" fill="#BFE9FF"/>
</svg>
