<svg width="64" height="64" viewBox="0 0 64 64" fill="none" xmlns="http://www.w3.org/2000/svg">
<g clip-path="url(#clip0)">
<path d="M48 3.96741L44 -0.0325928L40 3.96741L36 -0.0325928L32 3.96741L28 -0.0325928L24 3.96741L20 -0.0325928L16 3.96741L12 -0.0325928V63.9674L16 59.9674L20 63.9674L24 59.9674L28 63.9674L32 59.9674L36 63.9674L40 59.9674L44 63.9674L48 59.9674L52 63.9674V-0.0325928L48 3.96741Z" fill="#56B4FC"/>
<path d="M64 9.96741H0V53.9674H64V9.96741Z" fill="#BFE9FF"/>
<path d="M52 9.96741H12V53.9674H52V9.96741Z" fill="#1652F0"/>
<path d="M34 29.9674H18V31.9674H34V29.9674Z" fill="white"/>
<path d="M46 29.9674H38V31.9674H46V29.9674Z" fill="white"/>
<path d="M34 35.9674H18V37.9674H34V35.9674Z" fill="white"/>
<path d="M46 35.9674H38V37.9674H46V35.9674Z" fill="white"/>
<path d="M34 41.9674H18V43.9674H34V41.9674Z" fill="white"/>
<path d="M46 41.9674H38V43.9674H46V41.9674Z" fill="white"/>
<path d="M40 47.9674H24V49.9674H40V47.9674Z" fill="white"/>
<path d="M38 15.5774L32 25.9674L26 15.5774C29.59 13.5074 34.15 13.3474 38 15.5774Z" fill="white"/>
</g>
<defs>
<clipPath id="clip0">
<rect width="64" height="64" fill="white"/>
</clipPath>
</defs>
</svg>
