<svg width="64" height="64" viewBox="0 0 64 64" fill="none" xmlns="http://www.w3.org/2000/svg">
<path d="M8 10C6.9 10 6 9.1 6 8V2C6 0.9 6.9 0 8 0C9.1 0 10 0.9 10 2V8C10 9.1 9.1 10 8 10Z" fill="#BFE9FF"/>
<path d="M20 10C18.9 10 18 9.1 18 8V2C18 0.9 18.9 0 20 0C21.1 0 22 0.9 22 2V8C22 9.1 21.1 10 20 10Z" fill="#BFE9FF"/>
<path d="M32 10C30.9 10 30 9.1 30 8V2C30 0.9 30.9 0 32 0C33.1 0 34 0.9 34 2V8C34 9.1 33.1 10 32 10Z" fill="#BFE9FF"/>
<path d="M44 10C42.9 10 42 9.1 42 8V2C42 0.9 42.9 0 44 0C45.1 0 46 0.9 46 2V8C46 9.1 45.1 10 44 10Z" fill="#BFE9FF"/>
<path d="M56 10C54.9 10 54 9.1 54 8V2C54 0.9 54.9 0 56 0C57.1 0 58 0.9 58 2V8C58 9.1 57.1 10 56 10Z" fill="#BFE9FF"/>
<path d="M64 5H0V64H64V5Z" fill="#BFE9FF"/>
<path d="M64 5H0V13H64V5Z" fill="#56B4FC"/>
<path d="M56 13H8V56H56V13Z" fill="white"/>
<path d="M8 10C9.1 10 10 9.1 10 8V5H6V8C6 9.1 6.9 10 8 10Z" fill="#1652F0"/>
<path d="M44 10C45.1 10 46 9.1 46 8V5H42V8C42 9.1 42.9 10 44 10Z" fill="#1652F0"/>
<path d="M20 10C21.1 10 22 9.1 22 8V5H18V8C18 9.1 18.9 10 20 10Z" fill="#1652F0"/>
<path d="M32 10C33.1 10 34 9.1 34 8V5H30V8C30 9.1 30.9 10 32 10Z" fill="#1652F0"/>
<path d="M54 5V8C54 9.1 54.9 10 56 10C57.1 10 58 9.1 58 8V5H54Z" fill="#1652F0"/>
<path d="M32 17C22.35 17 14.5 24.85 14.5 34.5C14.5 44.15 22.35 52 32 52C41.65 52 49.5 44.15 49.5 34.5C49.5 24.85 41.65 17 32 17ZM18.5 34.5C18.5 27.06 24.56 21 32 21C35 21 37.77 22 40.01 23.66L21.16 42.51C19.5 40.27 18.5 37.5 18.5 34.5ZM32 48C29 48 26.23 47 23.99 45.34L42.84 26.49C44.5 28.73 45.5 31.5 45.5 34.5C45.5 41.94 39.44 48 32 48Z" fill="#1652F0"/>
</svg>
