<svg xmlns="http://www.w3.org/2000/svg" fill="#1652F0" viewBox="0 0 24 24"><path d="M7.057 18.816a1.873 1.873 0 1 1 0-3.745 1.873 1.873 0 0 1 0 3.745Z"/><path d="m12.657 5.686-.707-.707-8.485 8.485a5 5 0 1 0 7.071 7.071l8.485-8.485-.707-.707L22 7.657 16.344 2l-3.687 3.686Zm1.061 1.061 2.625-2.626 3.536 3.536-2.626 2.626-.707-.708 2.172-2.171-.707-.707-2.172 2.171-.707-.707 2.172-2.171-.707-.708-2.172 2.172-.707-.707Zm-1.768 1.06 4.243 4.243-7.071 7.071a3 3 0 1 1-4.243-4.242l7.071-7.071Z"/></svg>