<svg xmlns="http://www.w3.org/2000/svg" fill="none" viewBox="0 0 32 32"><path fill="#0A0B0D" d="M14.667 2.667h2.666v4h-2.666v-4Zm0 26.666v-4h2.666v4h-2.666Zm10.666-12h4v-2.666h-4v2.666ZM6.667 14.667v2.666h-4v-2.666h4Zm17.818 11.704 1.886-1.886-2.828-2.828-1.886 1.886 2.828 2.828ZM10.343 8.458l-1.885 1.885-2.829-2.828 1.886-1.886 2.828 2.829ZM5.63 24.485l1.885 1.886 2.828-2.828-1.885-1.886-2.829 2.828Zm17.913-14.142-1.886-1.885 2.828-2.829 1.886 1.886-2.828 2.828ZM16 24a8 8 0 1 0 0-16 8 8 0 0 0 0 16Z"/></svg>