<svg xmlns="http://www.w3.org/2000/svg" fill="#1652F0" viewBox="0 0 16 16"><path d="m11.74 1 1.26.75L5.75 15l-1.25-.75.97-1.78a8.35 8.35 0 0 1-4.4-4.14.74.74 0 0 1 0-.65C2.5 4.82 5.17 3.05 8 3.05c.82 0 1.63.16 2.39.44L11.74 1ZM6.51 6.52a2.09 2.09 0 0 1 2.42-.39l.72-1.3a5.42 5.42 0 0 0-1.66-.28C5.84 4.55 3.81 5.86 2.6 8a6.74 6.74 0 0 0 3.6 3.15l.72-1.35A2.07 2.07 0 0 1 5.9 8c0-.55.23-1.09.62-1.48Zm6.36-1.53a8.8 8.8 0 0 1 2.05 2.7.74.74 0 0 1 0 .65c-1.35 2.66-3.76 4.39-6.4 4.6l.92-1.69A6.62 6.62 0 0 0 13.4 8a7.5 7.5 0 0 0-1.25-1.65l.73-1.36Z"/></svg>