<svg xmlns="http://www.w3.org/2000/svg" fill="none" viewBox="0 0 32 32"><path fill="#0A0B0D" d="M14.333 2.667h3.334v4.148a9.283 9.283 0 0 1 3.649 1.512l2.934-2.934 2.357 2.357-2.934 2.934a9.283 9.283 0 0 1 1.512 3.65h4.148v3.333h-4.148a9.283 9.283 0 0 1-1.512 3.649l2.933 2.934-2.357 2.357-2.933-2.934a9.282 9.282 0 0 1-3.65 1.512v4.148h-3.333v-4.148a9.282 9.282 0 0 1-3.649-1.512L7.75 26.607 5.393 24.25l2.934-2.934a9.282 9.282 0 0 1-1.512-3.65H2.667v-3.333h4.148a9.282 9.282 0 0 1 1.512-3.649L5.394 7.751 7.75 5.393l2.933 2.934a9.283 9.283 0 0 1 3.65-1.512V2.667ZM16 22a6 6 0 1 0 0-12 6 6 0 0 0 0 12Z"/></svg>