<svg xmlns="http://www.w3.org/2000/svg" fill="none" viewBox="0 0 32 32"><path fill="#0A0B0D" d="M18.667 5.333A5.333 5.333 0 1 1 8 5.333a5.333 5.333 0 0 1 10.667 0Zm-2.667 0a2.667 2.667 0 1 0-5.333 0 2.667 2.667 0 0 0 5.333 0ZM5.333 22.667a8 8 0 1 1 16 0H24C24 16.776 19.224 12 13.333 12c-5.89 0-10.666 4.776-10.666 10.667h2.666ZM4 14a4 4 0 1 0 0-8 4 4 0 0 0 0 8Zm0-2.667a1.333 1.333 0 1 1 0-2.666 1.333 1.333 0 0 1 0 2.666ZM26.667 10a4 4 0 1 1-8 0 4 4 0 0 1 8 0ZM24 10a1.333 1.333 0 1 0-2.667 0A1.333 1.333 0 0 0 24 10Z"/></svg>