<svg xmlns="http://www.w3.org/2000/svg" fill="none" viewBox="0 0 32 32"><path fill="#0A0B0D" d="M26.667 13.333c0 7.364-5.97 13.334-13.334 13.334h-.086c-.43-.003-.857-.027-1.277-.07a13.248 13.248 0 0 1-3.827-.978A13.369 13.369 0 0 1 3.2 21.998 13.28 13.28 0 0 1 0 13.333C0 5.97 5.97 0 13.333 0c7.364 0 13.334 5.97 13.334 13.333Zm-9.334-4a4 4 0 1 0-8 0 4 4 0 0 0 8 0Zm-4 14.667c3.667 0 6.9-1.85 8.82-4.667a10.655 10.655 0 0 0-8.82-4.666c-3.666 0-6.9 1.85-8.82 4.666A10.655 10.655 0 0 0 13.333 24Z"/></svg>