<svg xmlns="http://www.w3.org/2000/svg" fill="#1652F0" viewBox="0 0 24 24"><path d="M13.627 8.251a1.362 1.362 0 0 1 1.92.04 1.363 1.363 0 0 1-1.966 1.887 1.364 1.364 0 0 1 .046-1.927Z"/><path d="M15.602 15.226c3.192-3.024 5.338-7.109 6.177-11.13.14-.673.244-1.346.31-2.01v-.014l-.085.005-.091.005c-.614.039-1.235.109-1.859.21-4.02.648-8.159 2.577-11.315 5.584l-6.85.451 3.578 3.704-.005.008.996 1.045a3.209 3.209 0 0 0-1.513 2.653l-.065 2.82 2.819.065a3.208 3.208 0 0 0 2.719-1.387l.958 1.005 3.554 3.678.672-6.692Zm-8.658.557a1.211 1.211 0 0 1 .98-1.162l1.027 1.076a1.211 1.211 0 0 1-1.206.925l-.82-.018.02-.82Zm4.794-.062-3.75-3.93c2.735-3.899 7.233-6.499 11.671-7.396-1.1 4.395-3.904 8.774-7.921 11.326Z"/></svg>