<svg xmlns="http://www.w3.org/2000/svg" fill="#1652F0" viewBox="0 0 12 12"><path d="M3.489 5.995c-1.406 0-2.5-1.053-2.5-2.474a2.514 2.514 0 0 1 2.5-2.526c1.354 0 2.5 1.053 2.5 2.474v.026a2.514 2.514 0 0 1 2.5-2.5c1.354 0 2.5 1.053 2.5 2.474a2.514 2.514 0 0 1-2.5 2.526 2.5 2.5 0 0 1-2.5-2.5 2.5 2.5 0 0 1-2.5 2.5Zm1.3-2.526c0-.721-.57-1.274-1.3-1.274-.696 0-1.3.573-1.3 1.326 0 .737.535 1.274 1.3 1.274v-1.3h1.3V3.47Zm3.7.026v1.3c.696 0 1.3-.572 1.3-1.326 0-.721-.57-1.274-1.3-1.274-.688 0-1.286.56-1.3 1.3h1.3Z"/><path d="M5.989 8.495a2.5 2.5 0 0 1-5 0c0-1.354 1.146-2.5 2.5-2.5a2.5 2.5 0 0 1 2.5 2.5Zm-1.2 0h-1.3v-1.3c-.692 0-1.3.609-1.3 1.3a1.3 1.3 0 0 0 2.6 0Zm1.2 0a2.5 2.5 0 0 0 5 0c0-1.406-1.094-2.5-2.5-2.5a2.5 2.5 0 0 0-2.5 2.5Zm2.5-1.3c.743 0 1.3.557 1.3 1.3a1.3 1.3 0 0 1-2.6 0h1.3v-1.3Z"/></svg>