<svg xmlns="http://www.w3.org/2000/svg" fill="#1652F0" viewBox="0 0 12 12"><path d="M8 6a3.292 3.292 0 0 1-2-2 3.292 3.292 0 0 1-2 2 3.29 3.29 0 0 1 2 2 3.292 3.292 0 0 1 2-2Z"/><path d="m5.146 1-.408 1.23a.355.355 0 0 1-.21.217.351.351 0 0 1-.295-.01l-1.16-.577-1.212 1.212.577 1.16a.37.37 0 0 1 .022.27l-.022.047a.354.354 0 0 1-.208.187L1 5.144v1.712l1.23.408a.35.35 0 0 1 .217.209.368.368 0 0 1-.009.295l-.578 1.16 1.209 1.207 1.16-.577a.37.37 0 0 1 .304-.005c.096.04.17.118.2.213L5.146 11h1.708l.413-1.234a.346.346 0 0 1 .2-.213.37.37 0 0 1 .304.005l1.16.578 1.209-1.208-.579-1.16a.368.368 0 0 1 .21-.504L11 6.856V5.144l-1.23-.408a.354.354 0 0 1-.208-.187l-.022-.048a.371.371 0 0 1 .022-.269l.578-1.16L8.927 1.86l-1.16.578a.351.351 0 0 1-.296.009.355.355 0 0 1-.209-.218L6.854 1H5.146Zm.981 8.39L6 9.77l-.127-.38a1.57 1.57 0 0 0-2.16-.917l-.01.006-.37.184.184-.37.005-.009c.186-.39.206-.85.036-1.266l-.003-.007a1.554 1.554 0 0 0-.952-.887L2.231 6l.378-.126c.4-.133.742-.43.923-.83l.037-.083.015-.038a1.567 1.567 0 0 0-.062-1.207l-.005-.01-.188-.378.362.18c.44.225.916.203 1.292.05l.007-.004c.393-.163.738-.49.888-.95L6 2.234l.122.368c.15.461.495.788.888.951l.007.003c.376.154.852.176 1.292-.048l.362-.181-.188.378-.005.01a1.567 1.567 0 0 0-.062 1.207l.015.038.037.083c.181.4.523.697.923.83L9.769 6l-.372.124c-.461.15-.788.494-.952.887l-.003.007c-.17.415-.15.876.036 1.266l.005.01.184.37-.37-.185-.01-.005a1.57 1.57 0 0 0-2.16.917Z"/></svg>