<svg xmlns="http://www.w3.org/2000/svg" fill="none" viewBox="0 0 24 24"><path fill="#0A0B0D" d="M22 12c0 5.523-4.477 10-10 10S2 17.523 2 12 6.477 2 12 2s10 4.477 10 10Zm-9.675 7.593a17.269 17.269 0 0 0 1.712-6.343H9.963a17.269 17.269 0 0 0 1.712 6.343 7.78 7.78 0 0 0 .65 0Zm3.047-.78a7.61 7.61 0 0 0 4.126-5.563h-2.955a19.767 19.767 0 0 1-1.17 5.563Zm1.17-8.063h2.956a7.61 7.61 0 0 0-4.126-5.563 19.749 19.749 0 0 1 1.17 5.563Zm-4.217-6.343a7.746 7.746 0 0 0-.65 0 17.269 17.269 0 0 0-1.712 6.343h4.074a17.269 17.269 0 0 0-1.712-6.343ZM7.457 13.25H4.502a7.61 7.61 0 0 0 4.126 5.563 19.749 19.749 0 0 1-1.17-5.563Zm0-2.5c.12-1.888.51-3.762 1.17-5.563a7.61 7.61 0 0 0-4.125 5.563h2.955Z"/></svg>