<svg xmlns="http://www.w3.org/2000/svg" fill="#1652F0" viewBox="0 0 24 24"><path d="M22 12a10 10 0 1 1-20 0 10 10 0 0 1 20 0Zm-9.68 7.6a17.27 17.27 0 0 0 1.72-6.35H9.96c.16 2.18.73 4.33 1.72 6.34a7.78 7.78 0 0 0 .64 0Zm3.05-.79a7.6 7.6 0 0 0 4.13-5.56h-2.96c-.12 1.89-.5 3.76-1.17 5.56Zm1.17-8.06h2.96a7.6 7.6 0 0 0-4.13-5.56c.66 1.8 1.05 3.67 1.17 5.56Zm-4.22-6.34a7.75 7.75 0 0 0-.64 0 17.27 17.27 0 0 0-1.72 6.34h4.08a17.27 17.27 0 0 0-1.72-6.34Zm-4.86 8.84H4.5a7.6 7.6 0 0 0 4.13 5.56 19.77 19.77 0 0 1-1.17-5.56Zm0-2.5c.12-1.89.5-3.76 1.17-5.56a7.6 7.6 0 0 0-4.13 5.56h2.96Z"/></svg>