<svg xmlns="http://www.w3.org/2000/svg" fill="#1652F0" viewBox="0 0 12 12"><path d="M9.373 3.762c.766 0 1.436.524 1.627 1.238H1c.144-.714.861-1.286 1.627-1.286.143 0 .335.048.478.096C3.201 2.238 4.445 1 6.024 1a2.905 2.905 0 0 1 2.919 2.81c.071 0 .143-.012.215-.024.072-.012.143-.024.215-.024Zm.048 3.945c-.132.183-.066.427 0 .61l.46.976-.855.792-.987-.487a1.206 1.206 0 0 0-.657 0 .768.768 0 0 0-.46.426l-.33.976h-1.25l-.329-.976a.718.718 0 0 0-.46-.487c-.198-.122-.46-.061-.658 0l-1.053.487-.855-.792.526-.915a.967.967 0 0 0 0-.61.768.768 0 0 0-.46-.427L1 6.976V6h10v.976l-1.053.304c-.263.061-.394.244-.526.427Zm-.94.949a2.177 2.177 0 0 1-.131-.567c-.02-.255.012-.622.26-.966l.019-.027c.018-.026.042-.06.07-.096H3.26c.076.108.144.232.193.369.142.395.145.869.007 1.266l.013-.006a1 1 0 0 1 .126-.048c.118-.037.323-.095.558-.11.209-.015.505.002.805.15.454.18.849.58 1.004 1.102l.006-.018.007-.019c.1-.277.273-.498.442-.654a1.75 1.75 0 0 1 .664-.39c.39-.12.859-.12 1.249 0a1 1 0 0 1 .148.06l.019.009a1.004 1.004 0 0 1-.022-.056Z"/></svg>