<svg xmlns="http://www.w3.org/2000/svg" fill="#1652F0" viewBox="0 0 16 16"><path d="M9.989 5.995a2 2 0 1 1-4 0 2 2 0 0 1 4 0Z"/><path d="M4.33 13.964a7.029 7.029 0 0 1-1.334-1.06A6.978 6.978 0 0 1 .99 7.994c0-3.867 3.132-7 7-7 3.867 0 7 3.133 7 7 0 3.868-3.133 7-7 7a6.97 6.97 0 0 1-3.66-1.03Zm7.89-2.612a5.378 5.378 0 0 0 1.169-3.357c0-2.984-2.416-5.4-5.4-5.4a5.398 5.398 0 0 0-5.4 5.4 5.38 5.38 0 0 0 1.168 3.356C4.784 9.724 6.3 8.695 7.99 8.695c1.69 0 3.205 1.03 4.231 2.657Zm-1.198 1.112a5.929 5.929 0 0 0-.367-.572c-.796-1.094-1.758-1.597-2.666-1.597-.909 0-1.871.503-2.666 1.597-.13.178-.253.369-.367.572a5.371 5.371 0 0 0 3.033.931 5.377 5.377 0 0 0 3.033-.93Z"/></svg>