<svg xmlns="http://www.w3.org/2000/svg" fill="#1652F0" viewBox="0 0 16 16"><path d="M12.723 5.452c1.071 0 2.01.655 2.277 1.548H1c.201-.893 1.206-1.607 2.278-1.607.2 0 .468.06.67.119C4.08 3.548 5.822 2 8.032 2c2.211 0 4.02 1.548 4.087 3.512.1 0 .2-.015.301-.03.1-.015.201-.03.302-.03Zm-.618 4.597c-.158.22-.079.512 0 .732l.553 1.17-1.026.951-1.185-.585a1.447 1.447 0 0 0-.79 0 .921.921 0 0 0-.552.512L8.711 14h-1.5l-.395-1.17a.862.862 0 0 0-.553-.586c-.237-.146-.552-.073-.79 0l-1.262.585-1.027-.951.632-1.098a1.16 1.16 0 0 0 0-.731.922.922 0 0 0-.553-.512L2 9.17V8h12v1.17l-1.263.367c-.316.073-.474.292-.632.512Zm-1.484.473a1.959 1.959 0 0 1 .24-1.122h-5.8c.026.056.05.115.072.175.143.398.178.854.105 1.28a2.91 2.91 0 0 1 .538-.09c.27-.018.662.002 1.061.198.463.186.877.542 1.134 1.013.12-.194.262-.357.4-.485a2.3 2.3 0 0 1 .874-.511c.45-.14.977-.155 1.444-.047-.03-.12-.057-.26-.068-.41Z"/></svg>