<svg xmlns="http://www.w3.org/2000/svg" fill="none" viewBox="0 0 32 32"><path fill="#0A0B0D" d="M25.663 4 11.667 29.336l-2.5-1.276 1.97-3.585c-3.44-1.362-6.43-4.117-8.32-7.87a1.306 1.306 0 0 1 0-1.214C5.548 9.938 10.6 6.551 16 6.551c1.547.013 3.08.3 4.528.845l2.603-4.727L25.663 4Zm-9.665 5.224c-4.197 0-8.17 2.587-10.489 6.774 1.655 2.979 4.12 5.139 6.913 6.144l1.502-2.732a3.99 3.99 0 0 1 2.073-7.406 3.95 3.95 0 0 1 1.764.428l1.473-2.679a10.45 10.45 0 0 0-3.236-.529Zm9.4 1.131a17.497 17.497 0 0 1 3.785 5.04 1.301 1.301 0 0 1 0 1.213c-2.55 5.07-7.109 8.365-12.094 8.791l1.653-2.987c3.136-.853 5.935-3.147 7.749-6.414a14.112 14.112 0 0 0-2.427-3.23l1.334-2.413Z"/></svg>