<svg xmlns="http://www.w3.org/2000/svg" fill="#1652F0" viewBox="0 0 24 24"><path d="M12.538 4.798a7.339 7.339 0 0 0-.811-1.078 7.218 7.218 0 0 0-1.27-1.105 9.297 9.297 0 0 1 3.028.08A9.216 9.216 0 1 1 3.163 15.154a7.311 7.311 0 0 0 2.642.715 7.271 7.271 0 0 0 6.732-11.07Zm-1.319 11.709a9.24 9.24 0 0 1-3.446 1.274 7.216 7.216 0 1 0 7.244-12.46c1.556 4.075.052 8.81-3.797 11.186Z"/><path d="m8.437 7.455-1.088-2.94-1.089 2.94-2.94 1.088 2.94 1.089 1.089 2.94 1.088-2.94 2.94-1.089-2.94-1.088Z"/></svg>