<svg xmlns="http://www.w3.org/2000/svg" fill="none" viewBox="0 0 12 12"><path fill="#0A0B0D" d="M7.569 2.73 8.502 1l.994.502-5.118 9.497-1-.5.73-1.35c-1.258-.52-2.358-1.53-3.048-2.92a.47.47 0 0 1 0-.46C2.08 3.732 3.98 2.462 6 2.462a4.93 4.93 0 0 1 1.569.27ZM4.587 6.484a1.5 1.5 0 0 0 .556.745L6.55 4.622a1.424 1.424 0 0 0-.55-.12 1.5 1.5 0 0 0-1.412 1.98ZM9.359 3.73a6.48 6.48 0 0 1 1.59 2.038.533.533 0 0 1 0 .459c-.99 1.96-2.78 3.21-4.72 3.3l.58-1.08c1.26-.26 2.4-1.15 3.13-2.45a5.008 5.008 0 0 0-1.08-1.346l.5-.922Z"/></svg>