<svg xmlns="http://www.w3.org/2000/svg" fill="none" viewBox="0 0 12 12"><path fill="#0A0B0D" d="M5.5 1.5a3 3 0 0 1 3 3v1a3 3 0 0 1-3 3h-1a3 3 0 0 1-3-3v-1a3 3 0 0 1 3-3h1ZM4.5 0A4.5 4.5 0 0 0 0 4.5v1A4.5 4.5 0 0 0 4.5 10h1A4.5 4.5 0 0 0 10 5.5v-1A4.5 4.5 0 0 0 5.5 0h-1Z"/><path fill="#0A0B0D" d="M4 4.1c0 .608-.336 1.1-.75 1.1s-.75-.492-.75-1.1c0-.608.336-1.1.75-1.1S4 3.492 4 4.1Zm3.5 0c0 .608-.336 1.1-.75 1.1S6 4.708 6 4.1c0-.608.336-1.1.75-1.1s.75.492.75 1.1ZM3.153 5.958a1.98 1.98 0 0 0 3.86 0h-3.86Z"/></svg>