<svg xmlns="http://www.w3.org/2000/svg" fill="#1652F0" viewBox="0 0 12 12"><path d="M6.742 7.47v.337H4.818V7.47c-.009-.623.11-1.104.358-1.443.247-.348.517-.631.81-.851.293-.23.563-.44.81-.632a.95.95 0 0 0 .385-.783c0-.339-.11-.586-.33-.742-.22-.165-.494-.247-.824-.247-.384 0-.691.105-.92.316-.22.201-.339.499-.357.893H2.607c.01-.889.33-1.607.961-2.157C4.21 1.274 5.034 1 6.041 1c.522 0 .989.073 1.401.22a3.14 3.14 0 0 1 1.058.563c.284.238.503.527.66.865.155.33.233.687.233 1.072 0 .558-.138.998-.412 1.318a4.83 4.83 0 0 1-.92.81 9.03 9.03 0 0 0-.907.688c-.275.229-.412.54-.412.934ZM5.794 11a1.28 1.28 0 0 1-.92-.37 1.28 1.28 0 0 1-.371-.921c0-.357.123-.66.37-.907.257-.256.564-.384.92-.384.349 0 .65.128.907.384.257.247.385.55.385.907s-.128.664-.385.92a1.262 1.262 0 0 1-.906.371Z"/></svg>