<svg xmlns="http://www.w3.org/2000/svg" fill="none" viewBox="0 0 32 32"><path fill="#0A0B0D" d="M11.667 0H15v4.148a9.282 9.282 0 0 1 3.649 1.513l2.934-2.934 2.357 2.357-2.934 2.934a9.282 9.282 0 0 1 1.512 3.649h4.149V15h-4.149a9.282 9.282 0 0 1-1.512 3.65l2.934 2.933-2.357 2.357-2.934-2.934A9.283 9.283 0 0 1 15 22.518v4.149h-3.333v-4.149a9.282 9.282 0 0 1-3.65-1.512L5.085 23.94l-2.357-2.357 2.934-2.934A9.282 9.282 0 0 1 4.148 15H0v-3.333h4.148a9.282 9.282 0 0 1 1.513-3.65L2.727 5.085l2.357-2.357L8.018 5.66a9.282 9.282 0 0 1 3.649-1.513V0Zm1.666 19.333a6 6 0 1 0 0-12 6 6 0 0 0 0 12Z"/></svg>