<svg xmlns="http://www.w3.org/2000/svg" fill="none" viewBox="0 0 12 12"><path fill="#1652F0" d="M10.981 1.02H11L10.98 1l.001.02Z"/><path fill="#1652F0" fill-rule="evenodd" d="M10.981 1.02a9.375 9.375 0 0 0-1.04.03c-.05 0-.1 0-.15.02a8.13 8.13 0 0 0-4.605 2.128h-.24c-.067.013-.13.018-.195.022l-.095.008c-.979.09-1.908.43-2.717.959-.33.22-.65.48-.939.759l2.118 2.118-.14.14a2.821 2.821 0 0 0-.77 2.587c.94.2 1.909-.09 2.588-.769l.14-.14L7.054 11c.29-.29.54-.6.76-.94a5.886 5.886 0 0 0 .958-2.716c0-.05.005-.098.01-.145.005-.048.01-.095.01-.145v-.24A8.05 8.05 0 0 0 10.93 2.21c0-.05.01-.1.02-.15.03-.343.05-.687.031-1.04ZM7.943 5.225c-.32.31-.83.31-1.139 0a.814.814 0 0 1 0-1.139c.32-.31.83-.31 1.139 0 .31.32.31.83 0 1.139Z" clip-rule="evenodd"/></svg>