<svg xmlns="http://www.w3.org/2000/svg" fill="#1652F0" viewBox="0 0 24 24"><path d="m18.917 8.018.002.003.07-.001c2.207 0 4 1.781 4 3.975s-1.793 3.975-4 3.975h-.07l-.002.002.036.06a3.964 3.964 0 0 1-1.464 5.43 4.014 4.014 0 0 1-5.464-1.455 3.476 3.476 0 0 1-.036-.061h-.001l-.035.061c-1.104 1.9-3.552 2.552-5.464 1.455a3.964 3.964 0 0 1-1.429-5.49l-.001-.002h-.07c-2.208 0-4-1.78-4-3.975 0-2.194 1.792-3.975 4-3.975h.07l.001-.002a3.964 3.964 0 0 1 1.429-5.49c1.912-1.097 4.36-.445 5.464 1.455l.035.062h.002l.035-.062c1.104-1.9 3.552-2.552 5.464-1.455a3.964 3.964 0 0 1 1.428 5.49Zm-4.626-3.64a8.004 8.004 0 0 1 3.183 1.83 1.986 1.986 0 0 0-.985-1.959 2.013 2.013 0 0 0-2.198.13ZM4.2 10.169a1.99 1.99 0 0 0-1.212 1.827c0 .819.5 1.523 1.212 1.827a7.926 7.926 0 0 1 0-3.654Zm2 3.407a1.981 1.981 0 0 0 0-3.16 5.936 5.936 0 0 0 0 3.16Zm2.215.47a3.999 3.999 0 0 1 3.573 2.05 3.998 3.998 0 0 1 3.573-2.05 3.936 3.936 0 0 1-.573-2.05c0-.75.21-1.451.573-2.05a3.998 3.998 0 0 1-3.573-2.05 3.999 3.999 0 0 1-3.573 2.05c.363.599.573 1.3.573 2.05 0 .75-.21 1.452-.573 2.05ZM9.489 16.3a2.009 2.009 0 0 0-1.769-.113 6.002 6.002 0 0 0 2.752 1.58 1.985 1.985 0 0 0-.983-1.467Zm.198 3.313a8.004 8.004 0 0 1-3.184-1.83c-.092.766.272 1.55.986 1.96.713.408 1.576.33 2.198-.13Zm4.604 0c.621.46 1.485.538 2.198.13a1.986 1.986 0 0 0 .985-1.96 8.004 8.004 0 0 1-3.183 1.83Zm1.966-3.426a2.009 2.009 0 0 0-1.768.113c-.56.321-.906.873-.983 1.467a6.002 6.002 0 0 0 2.752-1.58Zm.732-4.19c0 .643.309 1.215.787 1.579a5.933 5.933 0 0 0 0-3.16 1.981 1.981 0 0 0-.787 1.58Zm3 0c0 .628-.074 1.24-.213 1.826a1.99 1.99 0 0 0 1.213-1.827c0-.818-.5-1.522-1.213-1.827.14.587.213 1.198.213 1.827Zm-3.732-4.191a6.002 6.002 0 0 0-2.751-1.58c.077.593.422 1.145.983 1.467a2.01 2.01 0 0 0 1.768.113ZM6.504 6.208a8.003 8.003 0 0 1 3.184-1.83 2.013 2.013 0 0 0-2.198-.129 1.986 1.986 0 0 0-.986 1.96ZM7.72 7.805c.556.23 1.209.208 1.769-.113.56-.322.905-.874.983-1.467a6.002 6.002 0 0 0-2.752 1.58Z"/></svg>