<svg xmlns="http://www.w3.org/2000/svg" fill="none" viewBox="0 0 32 32"><path fill="#0A0B0D" d="M29.333 16c0 7.364-5.97 13.333-13.333 13.333-7.364 0-13.333-5.97-13.333-13.333C2.667 8.636 8.637 2.666 16 2.666c7.364 0 13.333 5.97 13.333 13.334ZM16.541 26.653a23.359 23.359 0 0 0 2.53-9.32H12.93a23.357 23.357 0 0 0 2.53 9.32 10.775 10.775 0 0 0 1.082 0Zm3.25-.68a10.678 10.678 0 0 0 6.793-8.64h-4.842a26.023 26.023 0 0 1-1.951 8.64Zm1.95-11.306h4.843a10.678 10.678 0 0 0-6.793-8.64 26.025 26.025 0 0 1 1.95 8.64Zm-5.2-9.32a10.854 10.854 0 0 0-1.082 0 23.359 23.359 0 0 0-2.53 9.32h6.142a23.359 23.359 0 0 0-2.53-9.32Zm-6.283 11.986H5.416a10.678 10.678 0 0 0 6.793 8.64 26.026 26.026 0 0 1-1.95-8.64Zm0-2.666c.15-2.944.801-5.868 1.951-8.64a10.678 10.678 0 0 0-6.793 8.64h4.842Z"/></svg>