<svg xmlns="http://www.w3.org/2000/svg" fill="none" viewBox="0 0 32 32"><path fill="#0A0B0D" d="M22.996 1.331 9 26.667 6.5 25.39l1.97-3.585c-3.44-1.361-6.43-4.117-8.32-7.87a1.306 1.306 0 0 1 0-1.213c2.732-5.454 7.784-8.84 13.183-8.84 1.548.013 3.08.299 4.528.844L20.465 0l2.532 1.331Zm-9.664 5.224c-4.198 0-8.17 2.587-10.49 6.774 1.655 2.978 4.12 5.138 6.913 6.144l1.502-2.733a3.99 3.99 0 0 1 2.074-7.405c.613.004 1.216.15 1.763.428l1.473-2.679a10.452 10.452 0 0 0-3.236-.53Zm9.398 1.13a17.495 17.495 0 0 1 3.786 5.04 1.3 1.3 0 0 1 .001 1.213c-2.551 5.07-7.11 8.365-12.095 8.792l1.654-2.988c3.136-.852 5.935-3.146 7.748-6.413a14.107 14.107 0 0 0-2.427-3.23l1.334-2.414Z"/></svg>