<svg xmlns="http://www.w3.org/2000/svg" fill="#1652F0" viewBox="0 0 12 12"><path d="m9.42 5.236 1.405-1.453a.554.554 0 0 0 .053-.726L9.003 1.19c-.208-.26-.468-.26-.728 0L6.663 2.798 9.265 5.39l.156-.155ZM1.195 8.995a.5.5 0 0 1 0-.722l2.267-2.271-2.319-2.323a.5.5 0 0 1 0-.723L2.947 1.15c.206-.206.515-.206.67 0l2.318 2.22 2.576 2.58-3.967 3.974-.773.878c-.206.258-.515.258-.721 0L1.195 8.995Zm2.47.11L6.812 5.95l-1.72-1.724-1.799-1.722-.812.814L5.16 6.002 2.54 8.627l.831.81.293-.333Zm7.16-.898L9.421 6.755l-.156-.156-2.602 2.594L8.276 10.8c.26.259.52.259.728 0l1.873-1.868a.554.554 0 0 0-.052-.726Z"/></svg>