<svg xmlns="http://www.w3.org/2000/svg" fill="none" viewBox="0 0 24 24"><path fill="#1652F0" d="M21.97 2.03H22L21.97 2v.03Z"/><path fill="#1652F0" d="M21.97 2.03a16.269 16.269 0 0 0-11.596 4.362l-.48.02A11.978 11.978 0 0 0 2 9.904l4.232 4.232-.28.28a5.685 5.685 0 0 0-1.54 5.173c1.87.39 3.821-.18 5.172-1.541l.28-.28L14.096 22a11.978 11.978 0 0 0 3.492-7.894l.02-.48A16.252 16.252 0 0 0 21.97 2.029Zm-6.033 8.484c-.67.67-1.75.67-2.421 0a1.71 1.71 0 0 1 0-2.421 1.71 1.71 0 0 1 2.421 0c.67.67.67 1.75 0 2.421Z"/></svg>