<svg xmlns="http://www.w3.org/2000/svg" fill="none" viewBox="0 0 32 32"><path fill="#0A0B0D" d="m10.667 4-1.8 4.866L4 10.666l4.866 1.801 1.8 4.866 1.801-4.866 4.866-1.8-4.866-1.8L10.667 4Z"/><path fill="#0A0B0D" d="M20 15.835a10.618 10.618 0 0 0 1.333-5.168C21.333 4.776 16.558 0 10.667 0S0 4.776 0 10.667c0 1.875.484 3.637 1.333 5.168v11.073l9.312-1.556L20 26.907V15.835Zm-9.333 2.832a8 8 0 1 1 0-16 8 8 0 0 1 0 16Zm6.666.327v4.766l-6.69-1.112L4 23.758v-4.764a10.622 10.622 0 0 0 6.667 2.34c2.522 0 4.84-.876 6.666-2.34Z"/></svg>