<svg xmlns="http://www.w3.org/2000/svg" fill="none" viewBox="0 0 32 32"><path fill="#0A0B0D" d="M6 9.333a7.313 7.313 0 0 1 4.667-4.666A7.317 7.317 0 0 1 6 0a7.314 7.314 0 0 1-4.666 4.667A7.31 7.31 0 0 1 6 9.333Zm0 17.334a9.403 9.403 0 0 1 6-6 9.407 9.407 0 0 1-6-6 9.403 9.403 0 0 1-6 6 9.397 9.397 0 0 1 6 6Zm2-14.663C12.15 9.602 15.47 5.333 17.334 0c1.865 5.333 5.185 9.602 9.333 12.004-4.148 2.401-7.468 6.67-9.333 12.003C15.467 18.67 12.149 14.4 8 12.003ZM12.555 12a24.237 24.237 0 0 1 4.779 5.745A24.232 24.232 0 0 1 22.113 12a24.194 24.194 0 0 1-4.78-5.746A24.199 24.199 0 0 1 12.556 12Z"/></svg>