<svg xmlns="http://www.w3.org/2000/svg" fill="#1652F0" viewBox="0 0 24 24"><path d="M17.646 17.652a7.975 7.975 0 0 0 2.343-5.657 7.974 7.974 0 0 0-2.265-5.577l1.415-1.414a9.983 9.983 0 0 0-1.54-1.288 9.954 9.954 0 0 0-5.61-1.72c-5.523 0-10 4.476-10 10a9.969 9.969 0 0 0 2.929 7.07l-2.93 2.93h20l-4.342-4.344ZM12.74 8.573a3.75 3.75 0 1 0-.426 6.576l3.739 3.739a7.958 7.958 0 0 1-4.064 1.107 8 8 0 1 1 0-16c1.525 0 2.95.426 4.163 1.167L12.74 8.573Zm1.347 1.482 2.223-2.223a5.98 5.98 0 0 1 1.679 4.163 5.981 5.981 0 0 1-1.758 4.243l-2.388-2.388c.408-.6.646-1.325.646-2.105 0-.608-.145-1.182-.402-1.69Zm-5.098 1.69a1.75 1.75 0 1 1 3.5 0 1.75 1.75 0 0 1-3.5 0Z"/></svg>