<svg xmlns="http://www.w3.org/2000/svg" fill="#1652F0" viewBox="0 0 12 12"><path d="m9.407 5.24 1.4-1.452a.556.556 0 0 0 .052-.726L8.992 1.195c-.208-.26-.467-.26-.726 0L6.657 2.803l2.594 2.593.156-.155ZM1.205 9a.5.5 0 0 1 0-.723l2.26-2.27-2.31-2.323a.5.5 0 0 1 0-.723l1.797-1.806c.206-.207.514-.207.668 0l2.312 2.22L8.5 5.954 4.545 9.929l-.771.877c-.206.259-.514.259-.72 0L1.206 9Zm2.463.11 3.139-3.155L5.09 4.23 3.297 2.51l-.81.814L5.16 6.006 2.546 8.632l.83.81.292-.333Zm7.139-.898-1.4-1.453-.156-.155-2.594 2.593 1.609 1.609c.259.259.518.259.726 0l1.867-1.868a.556.556 0 0 0-.052-.726Z"/></svg>