<svg xmlns="http://www.w3.org/2000/svg" fill="none" viewBox="0 0 32 32"><path fill="#0A0B0D" d="m23.883 16.711 1.505.81c.638.342 1.279 1.228 1.279 2.48 0 1.817-1.22 2.666-2 2.666-.038 0-.075-.002-.111-.004l-.188-.015-.188.013a2.66 2.66 0 0 1-.18.006H8a2.667 2.667 0 0 1-1.31-4.991l1.561-.883-.229-1.779a2.667 2.667 0 0 1 3.534-2.863l1.777.628 1.185-1.464a5.333 5.333 0 0 1 9.472 3.69l-.107 1.706ZM5.377 15.355A5.333 5.333 0 0 0 8 25.333h16a5.2 5.2 0 0 0 .355-.011c.103.008.207.011.312.011 2.577 0 4.666-2.387 4.666-5.333 0-2.134-1.097-3.976-2.682-4.829a8 8 0 0 0-14.206-5.534 5.333 5.333 0 0 0-7.068 5.718Z"/></svg>