<svg xmlns="http://www.w3.org/2000/svg" fill="#1652F0" viewBox="0 0 17 17"><path d="M7.645 0h1.698v2.654H7.645V0Zm5.627 8.494a4.778 4.778 0 1 1-9.556 0 4.778 4.778 0 0 1 9.556 0ZM3.088 1.887l-1.2 1.201 1.876 1.877 1.201-1.2-1.877-1.878ZM0 9.343V7.645h2.654v1.698H0ZM1.887 13.9l1.202 1.2 1.877-1.876-1.202-1.201L1.887 13.9Zm5.758.434h1.698v2.654H7.645v-2.654Zm5.579-2.311-1.201 1.2 1.877 1.878 1.2-1.201-1.876-1.877Zm1.11-2.68V7.645h2.654v1.698h-2.654Zm-2.311-5.579 1.201 1.201 1.877-1.877-1.201-1.2-1.877 1.876Z"/></svg>