<svg xmlns="http://www.w3.org/2000/svg" fill="none" viewBox="0 0 32 32"><path fill="#0A0B0D" d="M13.333 14a4.667 4.667 0 1 0 0-9.333 4.667 4.667 0 0 0 0 9.333Zm0-2.667a2 2 0 1 1 0-4 2 2 0 0 1 0 4Z"/><path fill="#0A0B0D" d="M23.468 21.998a13.28 13.28 0 0 0 3.199-8.665C26.667 5.97 20.697 0 13.333 0 5.97 0 0 5.97 0 13.333a13.28 13.28 0 0 0 3.199 8.665 13.291 13.291 0 0 0 10.135 4.669c4.056 0 7.689-1.811 10.134-4.67Zm-1.314-2.665a10.655 10.655 0 0 0-8.82-4.666c-3.667 0-6.901 1.85-8.821 4.666a10.617 10.617 0 0 1-1.846-6c0-5.89 4.775-10.666 10.666-10.666S24 7.442 24 13.333c0 2.225-.681 4.29-1.846 6Zm-1.849 2.073A10.625 10.625 0 0 1 13.351 24h-.018c-2.665 0-5.102-.978-6.972-2.594a8 8 0 0 1 6.972-4.073 8 8 0 0 1 6.972 4.073Z"/></svg>