<svg xmlns="http://www.w3.org/2000/svg" fill="none" viewBox="0 0 12 12"><path fill="#1652F0" d="M11 1.02h-.019L10.98 1l.02.02ZM7.943 5.216c-.32.31-.83.31-1.139 0a.814.814 0 0 1 0-1.14.816.816 0 0 1 1.139 0c.31.32.31.83 0 1.14Z"/><path fill="#1652F0" d="M10.981 1.02a9.375 9.375 0 0 0-1.04.03c-.05 0-.1 0-.15.02a8.13 8.13 0 0 0-4.605 2.128h-.24c-.067.013-.13.018-.195.022a5.964 5.964 0 0 0-2.812.967c-.33.22-.65.48-.939.759L2.224 6.17l-.005.005.894.894-.135.135a2.821 2.821 0 0 0-.77 2.587c.94.2 1.909-.09 2.588-.769l.135-.135.914.914.005-.005L7.054 11c.29-.29.54-.6.76-.939.539-.81.868-1.748.958-2.717 0-.05.005-.098.01-.145.005-.048.01-.095.01-.145v-.2l.02-.02A8.1 8.1 0 0 0 10.94 2.23c0-.05.01-.1.02-.15.03-.35.05-.7.03-1.059h-.009ZM7.933 5.944 5.845 8.033 3.987 6.175l2.058-2.058A7.01 7.01 0 0 1 9.67 2.349a6.84 6.84 0 0 1-1.738 3.596Z"/></svg>