<svg xmlns="http://www.w3.org/2000/svg" fill="#1652F0" viewBox="0 0 24 24"><path d="m20.2 8.2-1.7-.6c-.4-.1-.7-.4-.8-.7-.2-.4-.2-.8.1-1.1l.8-1.6-1.4-1.4-1.6.8c-.4.2-.7.2-1.1.1-.4-.2-.6-.5-.8-.8L13 1.1h-2l-.6 1.7c-.1.4-.4.7-.7.8-.3.1-.7.1-1-.1l-1.6-.8-1.4 1.5.8 1.6c.2.4.2.7.1 1.1-.2.3-.5.6-.9.7L4 8.2v2.1l1.7.6c.4.1.7.4.8.7.067.135.112.27.13.4h11.006c-.01.227.036.443.164.7l.978 1.227L17.1 15.6l-1.6-.8c-.3-.3-.7-.3-1.1-.1-.3.1-.6.4-.7.8l-.6 1.7h-2l-.6-1.7c-.2-.3-.4-.6-.8-.8-.4-.1-.7-.1-1.1.1l-1.6.8-1.794-1.651L6.4 12.7a.795.795 0 0 0 .23-.7H2v11h20V12h-4.364a1.95 1.95 0 0 1 .064-.4c.2-.4.5-.6.8-.8l1.7-.6v-2ZM12.1 11c-1 0-1.8-.8-1.8-1.8s.8-1.8 1.8-1.8 1.8.8 1.8 1.8-.8 1.8-1.8 1.8Z"/></svg>