<svg xmlns="http://www.w3.org/2000/svg" fill="none" viewBox="0 0 16 16"><path fill="#1652F0" d="M2.556 4.111c0 .273.046.535.132.778H1v9.333h14V4.89h-1.688a2.333 2.333 0 0 0-2.2-3.111h-.295c-.905 0-1.747.466-2.228 1.235L8 3.956l-.59-.943a2.627 2.627 0 0 0-2.227-1.235h-.294A2.333 2.333 0 0 0 2.556 4.11Zm2.333.534a.533.533 0 1 1 0-1.067h.294c.285 0 .55.147.701.389l.424.677H4.889ZM7.2 6.688v5.733H2.8V6.69h4.4Zm6 5.733H9V6.69h4.2v5.733Zm-2.089-7.778H9.692l.424-.677a.827.827 0 0 1 .701-.39h.294a.533.533 0 1 1 0 1.067Z"/></svg>