<svg xmlns="http://www.w3.org/2000/svg" fill="none" viewBox="0 0 16 16"><path fill="#0A0B0D" d="M9.5 1A4.5 4.5 0 0 0 5 5.5v1A4.5 4.5 0 0 0 9.5 11h1A4.5 4.5 0 0 0 15 6.5v-1A4.5 4.5 0 0 0 10.5 1h-1ZM8.075 5.944c-.456 0-.825-.547-.825-1.222 0-.675.37-1.222.825-1.222.456 0 .825.547.825 1.222 0 .675-.37 1.222-.825 1.222Zm4.675-1.222c0 .675-.37 1.222-.825 1.222-.456 0-.825-.547-.825-1.222 0-.675.37-1.222.825-1.222.456 0 .825.547.825 1.222ZM10.091 8.5a2.177 2.177 0 0 1-2.127-1.713h4.254A2.177 2.177 0 0 1 10.091 8.5ZM7 13a2 2 0 1 1-4 0 2 2 0 0 1 4 0ZM4 8.5a1.5 1.5 0 1 1-3 0 1.5 1.5 0 0 1 3 0Z"/></svg>