<svg xmlns="http://www.w3.org/2000/svg" fill="#1652F0" viewBox="0 0 24 24"><path d="M5.79 22c1.37 0 2.31-.46 3.22-1.14.89.56 1.72 1.14 3.41 1.14 1.69 0 2.53-.59 3.42-1.15.91.68 1.82 1.15 3.19 1.15 1.37 0 2.6-.74 2.5-1.67-.19-1.77-1.32-12.54-2.5-15C17.7 2.56 15.06 2 12.36 2c-2.7 0-5.34.56-6.67 3.33-1.28 2.68-2.5 15-2.5 15-.09.81 1.19 1.67 2.6 1.67Zm6.57-17.92c2.67 0 4.06.62 4.79 2.15.42.88 1.17 4.43 2 11.56h-.13c-2.25 0-3.52.81-4.45 1.4-.74.47-1.15.73-2.15.73s-1.42-.26-2.17-.74c-.93-.59-2.21-1.39-4.46-1.39h-.23C6.1 13.11 6.93 7.58 7.57 6.23c.73-1.53 2.12-2.15 4.79-2.15Z"/><path d="M10.36 10.58c.69 0 1.25-.75 1.25-1.67 0-.92-.56-1.67-1.25-1.67s-1.25.75-1.25 1.67c0 .92.56 1.67 1.25 1.67Zm4 0c.69 0 1.25-.75 1.25-1.67 0-.92-.56-1.67-1.25-1.67s-1.25.75-1.25 1.67c0 .92.56 1.67 1.25 1.67Z"/></svg>