<svg xmlns="http://www.w3.org/2000/svg" fill="#1652F0" viewBox="0 0 12 12"><path d="M3.5 6C2.094 6 1 4.947 1 3.526A2.514 2.514 0 0 1 3.5 1C4.854 1 6 2.053 6 3.474V3.5A2.514 2.514 0 0 1 8.5 1C9.854 1 11 2.053 11 3.474A2.514 2.514 0 0 1 8.5 6 2.5 2.5 0 0 1 6 3.5 2.5 2.5 0 0 1 3.5 6Zm1.3-2.526c0-.721-.57-1.274-1.3-1.274-.696 0-1.3.572-1.3 1.326 0 .737.535 1.274 1.3 1.274V3.5h1.3v-.026Zm3.7.026v1.3c.696 0 1.3-.572 1.3-1.326 0-.721-.57-1.274-1.3-1.274-.688 0-1.286.56-1.3 1.3h1.3ZM6 8.5a2.5 2.5 0 0 1-5 0C1 7.146 2.146 6 3.5 6A2.5 2.5 0 0 1 6 8.5Zm-1.2 0H3.5V7.2c-.691 0-1.3.609-1.3 1.3a1.3 1.3 0 0 0 2.6 0Zm1.2 0a2.5 2.5 0 0 0 5 0C11 7.094 9.906 6 8.5 6A2.5 2.5 0 0 0 6 8.5Zm2.5-1.3c.744 0 1.3.556 1.3 1.3a1.3 1.3 0 0 1-2.6 0h1.3V7.2Z"/></svg>