<svg xmlns="http://www.w3.org/2000/svg" fill="none" viewBox="0 0 32 32"><path fill="#0A0B0D" d="m16.591 13.409-1.543-4.171-1.544 4.17-4.17 1.544 4.17 1.544 1.544 4.17 1.543-4.17 4.17-1.544-4.17-1.543Zm3.219-6.076.771 2.086 2.086.772-2.086.771-.771 2.086-.772-2.086-2.086-.771 2.086-.772.771-2.086Z"/><path fill="#0A0B0D" d="M3.333 15.333c0 4.065 1.915 7.683 4.891 10h15.552a12.645 12.645 0 0 0 4.89-10c0-6.995-5.67-12.666-12.666-12.666S3.333 8.337 3.333 15.333ZM22.8 22.667H9.2A9.967 9.967 0 0 1 6 15.333c0-5.522 4.477-10 10-10s10 4.478 10 10a9.967 9.967 0 0 1-3.201 7.334Zm2.533 4L28 29.333H4l2.667-2.666h18.666Z"/></svg>