<svg xmlns="http://www.w3.org/2000/svg" fill="#1652F0" viewBox="0 0 17 17"><path d="M7.645 0h1.698v2.654H7.645V0Zm.849 13.272a4.778 4.778 0 1 0 0-9.556 4.778 4.778 0 0 0 0 9.556Zm0-1.699a3.079 3.079 0 1 1 0-6.158 3.079 3.079 0 0 1 0 6.158ZM3.089 1.887 1.887 3.088l1.877 1.877 1.202-1.2-1.877-1.878ZM0 9.343V7.645h2.654v1.698H0ZM1.887 13.9l1.202 1.2 1.877-1.876-1.202-1.201L1.887 13.9Zm5.758.434h1.698v2.654H7.645v-2.654Zm5.579-2.311-1.201 1.2 1.877 1.878 1.2-1.201-1.876-1.877Zm1.11-2.68V7.645h2.654v1.698h-2.654Zm-2.311-5.579 1.201 1.201 1.877-1.877-1.201-1.2-1.877 1.876Z"/></svg>