<svg xmlns="http://www.w3.org/2000/svg" fill="#1652F0" viewBox="0 0 16 16"><path d="M5.58 14.522c.791-.263 1.606-.67 2.409-1.187.803.516 1.617.924 2.408 1.187 3.748 1.406 5.567-.428 4.065-4.098-.264-.808-.68-1.634-1.21-2.447.501-.794.914-1.607 1.21-2.41 1.502-3.671-.317-5.505-4.065-4.099-.793.33-1.608.773-2.408 1.302-.8-.529-1.615-.972-2.409-1.302C1.832.062.014 1.896 1.515 5.567c.297.803.71 1.616 1.21 2.41-.529.813-.945 1.639-1.21 2.447-1.501 3.67.317 5.504 4.065 4.098Zm-2.656-3.58.017-.051a8.43 8.43 0 0 1 .722-1.576 18.497 18.497 0 0 0 3.006 3.068 8.715 8.715 0 0 1-1.563.716l-.026.009-.027.01c-1.744.654-2.334.278-2.409.202-.063-.063-.436-.627.26-2.329l.02-.05Zm10.113-.051.016.05.02.05c.697 1.702.323 2.266.26 2.33-.075.075-.665.45-2.409-.203l-.026-.01-.027-.01a8.712 8.712 0 0 1-1.563-.715 18.496 18.496 0 0 0 3.007-3.068 8.42 8.42 0 0 1 .722 1.576Zm.018-5.844c-.195.53-.453 1.073-.762 1.616a19.433 19.433 0 0 0-2.997-2.946c.558-.34 1.115-.628 1.653-.854 1.725-.641 2.31-.268 2.384-.193.063.063.437.628-.26 2.329l-.009.024-.01.024ZM5.029 2.863c.538.226 1.094.514 1.653.854a19.43 19.43 0 0 0-2.997 2.946 10.938 10.938 0 0 1-.762-1.616l-.01-.024-.01-.024c-.695-1.701-.322-2.266-.259-2.329.075-.075.66-.448 2.385.193Zm4.176 6.352c-.71.707-1.81.707-2.457 0-.711-.642-.646-1.734 0-2.44.712-.706 1.81-.706 2.457 0 .712.706.712 1.798 0 2.44Z"/></svg>