<svg xmlns="http://www.w3.org/2000/svg" fill="none" viewBox="0 0 32 32"><path fill="#0A0B0D" d="M6.667 10a3.333 3.333 0 1 0 0-6.667 3.333 3.333 0 0 0 0 6.667Zm0 9.334a3.333 3.333 0 1 0 0-6.667 3.333 3.333 0 0 0 0 6.667Zm0 9.333a3.333 3.333 0 1 0 0-6.667 3.333 3.333 0 0 0 0 6.667ZM16 19.333a3.333 3.333 0 1 0 0-6.666 3.333 3.333 0 0 0 0 6.667ZM16 10a3.333 3.333 0 1 0 0-6.667A3.333 3.333 0 0 0 16 10Zm9.333 9.334a3.333 3.333 0 1 0 0-6.667 3.333 3.333 0 0 0 0 6.667ZM16 28.666A3.333 3.333 0 1 0 16 22a3.333 3.333 0 0 0 0 6.667ZM25.333 10a3.333 3.333 0 1 0 0-6.667 3.333 3.333 0 0 0 0 6.667Zm0 18.667a3.333 3.333 0 1 0 0-6.667 3.333 3.333 0 0 0 0 6.667Z"/></svg>