<svg xmlns="http://www.w3.org/2000/svg" fill="#1652F0" viewBox="0 0 24 24"><path fill-rule="evenodd" d="M12.992 3.136c.1.122.207.252.319.392 1.898 2.37 5.189 7.14 5.189 11.722 0 3.661-2.9 6.75-6.5 6.75s-6.5-3.089-6.5-6.75c0-4.604 3.287-9.361 5.187-11.725.111-.139.218-.27.319-.391C11.603 2.414 12 2 12 2s.396.414.992 1.136Zm-.066 3.207c.213.301.43.62.646.954 1.568 2.42 2.928 5.327 2.928 7.953 0 2.643-2.09 4.75-4.5 4.75s-4.5-2.107-4.5-4.75 1.36-5.55 2.928-7.964a31.57 31.57 0 0 1 1.57-2.195c.288.37.603.79.928 1.252Z" clip-rule="evenodd"/></svg>