<svg xmlns="http://www.w3.org/2000/svg" fill="none" viewBox="0 0 12 12"><path fill="#0A0B0D" d="M6.569 1.73 7.502 0l.994.502-5.118 9.497-1-.5.73-1.35C1.85 7.629.75 6.619.06 5.229a.47.47 0 0 1 0-.46C1.08 2.732 2.98 1.462 5 1.462a4.93 4.93 0 0 1 1.569.27ZM3.587 5.484a1.5 1.5 0 0 0 .556.745L5.55 3.622a1.424 1.424 0 0 0-.55-.12 1.5 1.5 0 0 0-1.412 1.98ZM8.359 2.73a6.481 6.481 0 0 1 1.59 2.038.534.534 0 0 1 0 .459c-.99 1.96-2.78 3.21-4.72 3.3l.58-1.08c1.26-.26 2.4-1.15 3.13-2.45a5.008 5.008 0 0 0-1.08-1.346l.5-.922Z"/></svg>