<svg xmlns="http://www.w3.org/2000/svg" fill="none" viewBox="0 0 32 32"><path fill="#0A0B0D" d="M26.667 13.333c0 7.364-5.97 13.334-13.334 13.334C5.97 26.667 0 20.697 0 13.333 0 5.97 5.97 0 13.333 0c7.364 0 13.334 5.97 13.334 13.333ZM13.874 23.986a23.357 23.357 0 0 0 2.53-9.32h-6.142a23.355 23.355 0 0 0 2.53 9.32 10.778 10.778 0 0 0 1.082 0Zm3.25-.68a10.678 10.678 0 0 0 6.794-8.64h-4.843a26.026 26.026 0 0 1-1.95 8.64ZM19.075 12h4.843a10.678 10.678 0 0 0-6.794-8.64A26.028 26.028 0 0 1 19.075 12Zm-5.2-9.32a10.842 10.842 0 0 0-1.082 0A23.359 23.359 0 0 0 10.261 12h6.143a23.359 23.359 0 0 0-2.53-9.32ZM7.59 14.667H2.75a10.678 10.678 0 0 0 6.793 8.64 26.027 26.027 0 0 1-1.95-8.64Zm0-2.667a26.028 26.028 0 0 1 1.951-8.64A10.678 10.678 0 0 0 2.75 12h4.842Z"/></svg>