<svg xmlns="http://www.w3.org/2000/svg" fill="none" viewBox="0 0 12 12"><path fill="#0A0B0D" d="m7.437 4.055.847.455c.061.033.216.187.216.49 0 .2-.07.346-.141.426a.266.266 0 0 1-.08.066.06.06 0 0 1-.029.008h-.004l-.106-.008-.105.007A.526.526 0 0 1 8 5.5H2a.5.5 0 0 1-.245-.936l.878-.497-.129-1a.5.5 0 0 1 .663-.538l1 .352.666-.823a1.5 1.5 0 0 1 2.664 1.038l-.06.96Zm-6.42-.797A2 2 0 0 0 2 7h6c.045 0 .09-.001.133-.004.039.003.078.004.117.004C9.216 7 10 6.105 10 5c0-.8-.411-1.491-1.006-1.81a3 3 0 0 0-5.327-2.075 2 2 0 0 0-2.65 2.144Z"/></svg>