<svg xmlns="http://www.w3.org/2000/svg" fill="#1652F0" viewBox="0 0 16 16"><path d="M2.989 4.995a2.5 2.5 0 0 0-2.45 2h14.9a2.5 2.5 0 0 0-2.972-1.945 4.5 4.5 0 0 0-8.956 0 2.51 2.51 0 0 0-.522-.055Zm9.447 5.522c-.17.249-.085.58 0 .83l.599 1.326-1.112 1.078-1.283-.663a1.5 1.5 0 0 0-.855 0 1.018 1.018 0 0 0-.599.58l-.427 1.327H7.134l-.428-1.327a.959.959 0 0 0-.599-.663c-.256-.166-.598-.083-.855 0l-1.368.663-1.112-1.078.684-1.244a1.38 1.38 0 0 0 0-.829 1.018 1.018 0 0 0-.599-.58L1.49 9.522V8.195h13v1.327l-1.369.415c-.342.083-.513.331-.684.58Zm-1.492.518c-.025-.34.014-.838.338-1.311l.026-.038c.018-.026.038-.057.062-.09H4.553c.09.14.168.295.227.466a2.78 2.78 0 0 1 .04 1.611h.001c.157-.05.438-.136.762-.158.29-.02.704.004 1.12.219a2.363 2.363 0 0 1 1.249 1.26c.132-.278.314-.508.495-.683.228-.222.536-.435.907-.555a2.896 2.896 0 0 1 1.746.01 3.01 3.01 0 0 1-.156-.731Z"/></svg>