<svg xmlns="http://www.w3.org/2000/svg" fill="#1652F0" viewBox="0 0 24 24"><path d="M22 12a10 10 0 1 1-20 0 10 10 0 0 1 20 0Zm-9.6 7.99A17.52 17.52 0 0 0 14.3 13H9.7c.13 2.4.77 4.79 1.9 6.99a8.14 8.14 0 0 0 .8 0Zm2.44-.51a8 8 0 0 0 5.1-6.48H16.3c-.12 2.2-.6 4.4-1.47 6.48ZM16.31 11h3.63a8 8 0 0 0-5.1-6.48A19.52 19.52 0 0 1 16.31 11Zm-3.9-6.99a8.13 8.13 0 0 0-.82 0A17.52 17.52 0 0 0 9.7 11h4.61c-.13-2.4-.77-4.79-1.9-6.99ZM7.69 13H4.06a8 8 0 0 0 5.1 6.48A19.52 19.52 0 0 1 7.69 13Zm0-2c.12-2.2.6-4.4 1.47-6.48A8 8 0 0 0 4.06 11H7.7Z"/></svg>