<svg xmlns="http://www.w3.org/2000/svg" fill="none" viewBox="0 0 32 32"><path fill="#0A0B0D" d="M8.667 12a7.313 7.313 0 0 1 4.667-4.666 7.317 7.317 0 0 1-4.667-4.667A7.313 7.313 0 0 1 4 7.334 7.31 7.31 0 0 1 8.667 12Zm0 17.333a9.403 9.403 0 0 1 6-6 9.405 9.405 0 0 1-6-6 9.403 9.403 0 0 1-6 6 9.4 9.4 0 0 1 6 6Zm2-14.663C14.815 12.27 18.136 8 20 2.667c1.865 5.332 5.186 9.602 9.334 12.003-4.148 2.402-7.469 6.671-9.334 12.004-1.866-5.337-5.185-9.606-9.333-12.004Zm4.555-.004A24.234 24.234 0 0 1 20 20.412a24.239 24.239 0 0 1 4.78-5.746A24.198 24.198 0 0 1 20 8.921a24.193 24.193 0 0 1-4.778 5.745Z"/></svg>