<svg xmlns="http://www.w3.org/2000/svg" fill="#1652F0" viewBox="0 0 24 24"><path d="M18.746 8.524C20.278 8.524 21.617 9.57 22 11H2c.287-1.429 1.722-2.571 3.254-2.571.287 0 .67.095.957.19C6.4 5.476 8.89 3 12.048 3s5.742 2.476 5.837 5.619c.144 0 .287-.024.43-.048.144-.023.288-.047.431-.047Zm-4.851 4.135c0-.22 0-.44-.105-.659H20v1.756l-1.684.549c-.421.11-.632.439-.842.768-.21.33-.106.768 0 1.098l.736 1.756-1.368 1.427-1.579-.878a1.725 1.725 0 0 0-1.053 0c-.315.11-.631.439-.736.768L12.947 21h-2l-.526-1.756c-.105-.44-.421-.768-.737-.878-.316-.22-.737-.11-1.052 0l-1.685.878-1.368-1.427.842-1.646c.105-.33.105-.769 0-1.098-.105-.33-.421-.658-.737-.768L4 13.756V12h6.21c-.105.22-.105.439-.105.659 0 1.097.842 1.975 1.895 1.975s1.895-.878 1.895-1.976Z"/></svg>