<svg xmlns="http://www.w3.org/2000/svg" fill="#1652F0" viewBox="0 0 16 16"><path d="M10.02 4.549a3.977 3.977 0 0 0-1.031-.428V1.995h-2v2.126c-.367.095-.714.24-1.032.428L4.196 2.788 2.782 4.202l1.76 1.761a3.976 3.976 0 0 0-.427 1.032H1.989v2h2.126c.094.367.24.714.428 1.032l-1.761 1.761 1.414 1.414 1.76-1.76c.32.188.666.333 1.033.427v2.126h2V11.87c.367-.094.713-.24 1.032-.428l1.76 1.761 1.415-1.414-1.761-1.76a4.03 4.03 0 0 0 .428-1.033h2.126v-2h-2.126a3.98 3.98 0 0 0-.428-1.032l1.761-1.76-1.414-1.415-1.761 1.761Zm-.03 3.446a2 2 0 1 1-4 0 2 2 0 0 1 4 0Z"/></svg>