<svg xmlns="http://www.w3.org/2000/svg" fill="#1652F0" viewBox="0 0 16 16"><path d="M5.071 3.327h-1.75v1.75h1.75z"/><path d="M.987.994v6.418h6.418V.994zm4.96 1.458v3.501H2.446v-3.5zm-2.626 8.46h1.75v1.75h-1.75z"/><path d="M.987 8.579v6.418h6.418V8.579zm4.96 1.458v3.501H2.446v-3.5zm4.959-6.71h1.75v1.75h-1.75z"/><path d="M8.572 7.412V.994h6.418v6.418zm1.459-4.96v3.501h3.5v-3.5zM8.572 8.579h3.939v2.625h1.02V8.58h1.46v4.084h-3.94v-2.626h-1.02v4.96H8.572zm4.96 4.959h1.458v1.459h-1.458z"/><path d="M11.052 13.538h1.459v1.459h-1.46z"/></svg>