<svg xmlns="http://www.w3.org/2000/svg" fill="#1652F0" viewBox="0 0 16 16"><path d="M6.76 9.22c.646.707 1.745.707 2.457 0 .71-.642.71-1.734 0-2.44-.647-.707-1.746-.707-2.458 0-.646.706-.71 1.798 0 2.44Z"/><path d="M8 13.086c-.765.491-1.54.88-2.294 1.13-3.57 1.34-5.301-.407-3.871-3.903.252-.77.648-1.556 1.152-2.33a12.431 12.431 0 0 1-1.152-2.296C.405 2.191 2.137.445 5.706 1.784A13.93 13.93 0 0 1 8 3.024a13.93 13.93 0 0 1 2.294-1.24c3.57-1.34 5.301.407 3.871 3.903-.282.765-.675 1.54-1.152 2.296.504.774.9 1.56 1.152 2.33 1.43 3.496-.302 5.242-3.871 3.903-.754-.25-1.53-.639-2.294-1.13Zm4.777-2.205-.02-.05-.017-.051a7.932 7.932 0 0 0-.667-1.462 17.634 17.634 0 0 1-2.757 2.813c.498.283.987.507 1.452.662l.026.009.027.01c1.654.62 2.178.25 2.218.21.028-.029.398-.528-.262-2.141Zm-6.093 1.25a17.65 17.65 0 0 1-2.757-2.813c-.287.5-.513.992-.667 1.462l-.016.05-.02.05c-.66 1.614-.291 2.113-.263 2.141.04.04.564.411 2.218-.21l.027-.01.026-.008a8.203 8.203 0 0 0 1.452-.662ZM8 11.256A16.101 16.101 0 0 0 11.19 8a15.833 15.833 0 0 0-1.426-1.61A17.408 17.408 0 0 0 8 4.859c-.61.46-1.206.975-1.765 1.53A15.834 15.834 0 0 0 4.81 8 16.096 16.096 0 0 0 8 11.257Zm4.05-4.585c.287-.506.526-1.011.708-1.504l.009-.025.01-.024c.66-1.613.29-2.112.262-2.14-.04-.04-.558-.408-2.194.2-.501.21-1.02.478-1.54.794a18.521 18.521 0 0 1 2.745 2.699Zm-5.354-2.7a11.818 11.818 0 0 0-1.541-.793C3.519 2.571 3 2.94 2.96 2.98c-.028.028-.398.527.262 2.14l.01.024.009.025c.182.493.42.998.708 1.504a18.559 18.559 0 0 1 2.746-2.7Z"/></svg>