<svg xmlns="http://www.w3.org/2000/svg" fill="none" viewBox="0 0 32 32"><path fill="#0A0B0D" d="M21.333 10a5.333 5.333 0 1 1-10.666 0 5.333 5.333 0 0 1 10.666 0Zm-2.666 0a2.667 2.667 0 1 0-5.334 0 2.667 2.667 0 0 0 5.334 0ZM8 27.333a8 8 0 1 1 16 0h2.667c0-5.89-4.776-10.666-10.667-10.666S5.333 21.442 5.333 27.333H8Zm-1.333-8.666a4 4 0 1 0 0-8 4 4 0 0 0 0 8Zm0-2.667a1.333 1.333 0 1 1 0-2.667 1.333 1.333 0 0 1 0 2.667Zm22.666-1.333a4 4 0 1 1-8 0 4 4 0 0 1 8 0Zm-2.666 0a1.333 1.333 0 1 0-2.667 0 1.333 1.333 0 0 0 2.667 0Z"/></svg>