<svg xmlns="http://www.w3.org/2000/svg" fill="#1652F0" viewBox="0 0 12 12"><path d="M5.143 0h1.714v1.887a4.176 4.176 0 0 1 1.445.6L9.637 1.15l1.212 1.212-1.335 1.335c.284.433.49.921.599 1.445H12v1.714h-1.887a4.176 4.176 0 0 1-.6 1.445l1.336 1.335-1.213 1.212-1.334-1.335c-.433.284-.921.49-1.445.599V12H5.143v-1.888a4.176 4.176 0 0 1-1.445-.598l-1.334 1.335L1.15 9.637l1.335-1.335a4.176 4.176 0 0 1-.598-1.445H0V5.143h1.888a4.176 4.176 0 0 1 .598-1.445L1.151 2.363l1.212-1.212 1.335 1.335c.433-.284.921-.49 1.445-.598V0ZM6 8.2a2.2 2.2 0 1 0 0-4.4 2.2 2.2 0 0 0 0 4.4Z"/></svg>