<svg xmlns="http://www.w3.org/2000/svg" fill="none" viewBox="0 0 16 16"><path fill="#1652F0" d="M10.5 2.5a3 3 0 0 1 3 3v1a3 3 0 0 1-3 3h-1a3 3 0 0 1-3-3v-1a3 3 0 0 1 3-3h1ZM9.5 1A4.5 4.5 0 0 0 5 5.5v1A4.5 4.5 0 0 0 9.5 11h1A4.5 4.5 0 0 0 15 6.5v-1A4.5 4.5 0 0 0 10.5 1h-1Z"/><path fill="#1652F0" d="M9 5.1c0 .608-.336 1.1-.75 1.1s-.75-.492-.75-1.1c0-.608.336-1.1.75-1.1S9 4.492 9 5.1Zm3.5 0c0 .608-.336 1.1-.75 1.1S11 5.708 11 5.1c0-.608.336-1.1.75-1.1s.75.492.75 1.1ZM8.153 6.958a1.98 1.98 0 0 0 3.86 0h-3.86ZM7 13a2 2 0 1 1-4 0 2 2 0 0 1 4 0ZM4 8.5a1.5 1.5 0 1 1-3 0 1.5 1.5 0 0 1 3 0Z"/></svg>