<svg xmlns="http://www.w3.org/2000/svg" fill="none" viewBox="0 0 32 32"><path fill="#0A0B0D" d="M25.485 12.23c-.5 5.476-4.97 9.887-10.62 10.156a11.18 11.18 0 0 1-8.966-3.815c7.708-.246 14.478-2.835 19.585-6.342Zm2.122-5.137c-5.092 4.871-13.476 8.975-23.435 8.826l-.003-.006-.178.003a35.288 35.288 0 0 1-1.25-.047v.01c-1.502-.12-2.474-.518-2.694-1.206-.305-.954.892-2.29 3.087-3.697C3.244 5.132 7.874.296 13.798.014a11.188 11.188 0 0 1 9.53 4.516c2.585-.123 4.321.272 4.625 1.222.125.39-.002.845-.346 1.342Zm-2.257-1.66s-.008.019-.038.06c.02-.039.038-.06.038-.06Zm.601 2.06c.049.016.066.027.066.027s-.027-.007-.066-.028Zm-23.968 5.41s.027.007.065.028c-.048-.017-.065-.028-.065-.028Zm.667 2.087s.008-.019.038-.06a.346.346 0 0 1-.038.06Z"/></svg>