<svg xmlns="http://www.w3.org/2000/svg" fill="none" viewBox="0 0 24 24"><path fill="#0A0B0D" d="M22.525 8.31c-.22-.71-1.53-1-3.46-.91a8.39 8.39 0 0 0-15.18 4.83c-1.64 1.06-2.55 2.06-2.36 2.77.19.71 1.36 1 3.09.92A8.4 8.4 0 0 0 20.665 12a8.82 8.82 0 0 0-.14-1.15c1.41-.97 2.18-1.85 2-2.54Zm-10.55-2.2a6.28 6.28 0 0 1 4.49 1.59c.282.254.543.532.78.83v.06c.232.313.433.648.6 1 0 .06.06.11.08.16a33.582 33.582 0 0 1-11.83 3.83 1.42 1.42 0 0 1-.05-.22c0-.22-.02-.44-.06-.66a5.06 5.06 0 0 1 0-.78v-.23a5 5 0 0 1 .09-.56 6.28 6.28 0 0 1 5.9-5.02Zm.6 12.58a6.28 6.28 0 0 1-5.66-3l-.06-.12a35.223 35.223 0 0 0 11.67-3.78v.36a6.3 6.3 0 0 1-5.95 6.54Z"/></svg>