<svg xmlns="http://www.w3.org/2000/svg" fill="none" viewBox="0 0 16 16"><path fill="#0A0B0D" d="M6 2.202a4.872 4.872 0 0 0-1.685.699L2.757 1.343 1.343 2.757l1.558 1.558A4.872 4.872 0 0 0 2.202 6H0v2h2.202c.127.611.367 1.18.699 1.685l-1.558 1.558 1.414 1.414 1.558-1.558A4.87 4.87 0 0 0 6 11.798V14h2v-2.202a4.874 4.874 0 0 0 1.685-.698l1.557 1.557 1.415-1.414-1.558-1.558A4.873 4.873 0 0 0 11.798 8H14V6h-2.202a4.872 4.872 0 0 0-.698-1.685l1.557-1.558-1.414-1.414-1.558 1.558A4.872 4.872 0 0 0 8 2.202V0H6v2.202ZM9.9 7a2.9 2.9 0 1 1-5.8 0 2.9 2.9 0 0 1 5.8 0Z"/></svg>