<svg xmlns="http://www.w3.org/2000/svg" fill="#1652F0" viewBox="0 0 12 12"><path d="M11 1.02h-.02V1l.02.02Zm-3.06 4.2a.81.81 0 0 1-1.14 0 .81.81 0 0 1 0-1.14.81.81 0 0 1 1.14 0c.31.32.31.83 0 1.14Z"/><path d="M10.98 1.02a9.37 9.37 0 0 0-1.19.05c-1.72.2-3.33.94-4.6 2.13h-.24a1.5 1.5 0 0 1-.3.03A5.96 5.96 0 0 0 1 4.95l1.22 1.22.9.9-.14.13a2.82 2.82 0 0 0-.77 2.6c.94.2 1.9-.1 2.59-.78l.13-.13.92.91 1.2 1.2a5.9 5.9 0 0 0 1.73-3.8l.01-.15v-.2l.02-.02a8.1 8.1 0 0 0 2.15-4.75c.03-.35.05-.7.03-1.06ZM7.93 5.95 5.85 8.03 3.99 6.17l2.05-2.05c1-.93 2.28-1.55 3.63-1.77a6.84 6.84 0 0 1-1.74 3.6Z"/></svg>