<svg xmlns="http://www.w3.org/2000/svg" fill="none" viewBox="0 0 12 12"><path fill="#0A0B0D" d="M2.382 10h6.329a5.476 5.476 0 0 0 .4-.303c.266-.221.511-.467.732-.734l.026-.032-.704-.698A4.143 4.143 0 0 0 10.5 5.182a4.146 4.146 0 0 0-1.177-2.896l.406-.402A5.551 5.551 0 0 0 5.547 0C2.483 0 0 2.458 0 5.49 0 7.358.942 9.008 2.382 10Zm3.499-2.907L7.302 8.5H2.89A3.956 3.956 0 0 1 1.5 5.49C1.5 3.3 3.297 1.5 5.547 1.5a4.07 4.07 0 0 1 1.944.49L5.787 3.675a2.11 2.11 0 0 0-1.157-.343 2.094 2.094 0 0 0-2.104 2.084c0 1.15.942 2.083 2.104 2.083.469 0 .901-.151 1.25-.407Zm.82-1.299a2.074 2.074 0 0 0-.029-.884l1.58-1.563a2.663 2.663 0 0 1-.16 3.824L6.701 5.794Z"/></svg>