<svg xmlns="http://www.w3.org/2000/svg" fill="#1652F0" viewBox="0 0 24 24"><path d="M18.746 8.524C20.278 8.524 21.617 9.57 22 11H2c.287-1.429 1.722-2.571 3.254-2.571.287 0 .67.095.957.19C6.4 5.476 8.89 3 12.048 3s5.742 2.476 5.837 5.619c.144 0 .287-.024.43-.048.144-.023.288-.047.431-.047Zm-1.272 6.549c-.21.33-.106.768 0 1.098l.736 1.756-1.368 1.427-1.579-.878a1.725 1.725 0 0 0-1.053 0c-.315.11-.631.439-.736.768L12.947 21h-2l-.526-1.756c-.105-.44-.421-.768-.737-.878-.316-.22-.737-.11-1.052 0l-1.685.878-1.368-1.427.842-1.646c.105-.33.105-.769 0-1.098-.105-.33-.421-.658-.737-.768L4 13.756V12h6.21c-.105.22-.105.439-.105.659 0 .23.037.45.105.655.258.772.958 1.32 1.79 1.32.832 0 1.532-.548 1.79-1.32.068-.205.105-.425.105-.655 0-.22 0-.44-.105-.659H20v1.756l-1.684.549c-.421.11-.632.439-.842.768Zm-1.476 1.717a3.945 3.945 0 0 1-.24-1.059 2.481 2.481 0 0 1 .368-1.52l.032-.05c.077-.125.21-.336.41-.561h-1.196c-.396 1.488-1.71 2.634-3.372 2.634S9.024 15.088 8.628 13.6h-1.25c.231.263.443.597.567.986a3.541 3.541 0 0 1 0 2.072c-.026.083-.06.164-.1.241l-.05.098.097-.05a1.5 1.5 0 0 1 .214-.092 3.65 3.65 0 0 1 .933-.208 2.43 2.43 0 0 1 1.367.285c.743.332 1.315 1.022 1.542 1.829l.002-.004c.14-.44.393-.81.658-1.087a2.78 2.78 0 0 1 1.077-.706 3.319 3.319 0 0 1 2.103 0c.088.03.172.068.253.113l.102.057-.145-.344Z"/></svg>