<svg xmlns="http://www.w3.org/2000/svg" fill="#1652F0" viewBox="0 0 12 12"><path d="m9.407 5.24 1.4-1.452a.556.556 0 0 0 .052-.726L8.992 1.195c-.208-.26-.467-.26-.726 0L6.657 2.803l2.594 2.593.156-.155ZM4.545 9.929 8.5 5.955l-2.568-2.58-2.312-2.22c-.154-.207-.462-.207-.668 0L1.154 2.96a.5.5 0 0 0 0 .723l2.312 2.322-2.26 2.271a.5.5 0 0 0 0 .723l1.849 1.806c.205.259.513.259.719 0l.77-.877Zm6.262-1.717-1.4-1.453-.156-.155-2.594 2.593 1.609 1.609c.259.259.518.259.726 0l1.867-1.868a.556.556 0 0 0-.052-.726Z"/></svg>