<svg xmlns="http://www.w3.org/2000/svg" fill="#1652F0" viewBox="0 0 16 16"><path d="m12.353 5.414 1.154.407V6.4H9.225a1.217 1.217 0 0 0-1.218-1.122c-.645 0-1.168.49-1.218 1.122H2.507v-.579l1.154-.407c.272-.068.476-.272.611-.476.068-.271.068-.475-.067-.747L3.66 3.105l.951-1.019 1.086.544c.204.135.476.135.68.068a.776.776 0 0 0 .475-.544L7.26 1h1.358l.475 1.222c.136.204.272.408.544.543.271.068.475.068.747-.067l1.086-.544.95.95-.543 1.087c-.203.204-.203.476-.068.747a.776.776 0 0 0 .544.476ZM1.007 8v7h14V8h-3.121c-.027.04-.053.083-.076.13-.068.271-.068.475.067.747l.73.705-1.205 1.264-1.086-.543c-.204-.204-.476-.204-.747-.068a.776.776 0 0 0-.476.543l-.407 1.154H7.328l-.407-1.154c-.136-.204-.272-.408-.544-.543-.271-.068-.475-.068-.746.068l-1.087.543L3.351 9.57l.786-.693c.203-.204.203-.476.068-.747A.614.614 0 0 0 4.143 8H1.007Z"/></svg>