<svg xmlns="http://www.w3.org/2000/svg" fill="none" viewBox="0 0 32 32"><path fill="#0A0B0D" d="M17.332 9.333a4 4 0 1 1-7.999.002 4 4 0 0 1 7.999-.002Z"/><path fill="#0A0B0D" d="M.147 9.938c2.728 5.386 7.784 8.729 13.186 8.729 5.403 0 10.45-3.351 13.187-8.73a1.32 1.32 0 0 0 0-1.208C23.792 3.342 18.736 0 13.333 0 7.931 0 2.875 3.342.147 8.729a1.32 1.32 0 0 0 0 1.209ZM13.333 16c-4.265 0-8.14-2.48-10.485-6.667 2.346-4.186 6.229-6.666 10.485-6.666 4.257 0 8.131 2.48 10.486 6.666C21.473 13.52 17.599 16 13.333 16Z"/></svg>