<svg xmlns="http://www.w3.org/2000/svg" fill="#1652F0" viewBox="0 0 12 12"><path d="M9.373 3.762c.766 0 1.436.524 1.627 1.238H1c.144-.714.861-1.286 1.627-1.286.143 0 .335.048.478.096C3.201 2.238 4.445 1 6.024 1a2.905 2.905 0 0 1 2.919 2.81c.071 0 .143-.012.215-.024.072-.012.143-.024.215-.024ZM1 6.976V6h10v.976l-1.053.304c-.263.061-.394.244-.526.427s-.066.427 0 .61l.46.976-.855.792-.987-.487a1.206 1.206 0 0 0-.657 0 .768.768 0 0 0-.46.426l-.33.976h-1.25l-.329-.976a.718.718 0 0 0-.46-.487c-.198-.122-.46-.061-.658 0l-1.053.487-.855-.792.526-.915a.967.967 0 0 0 0-.61.768.768 0 0 0-.46-.427L1 6.976Z"/></svg>