<svg xmlns="http://www.w3.org/2000/svg" fill="#1652F0" viewBox="0 0 24 24"><path d="M10.057 4.88c.407-.273.836-.42 1.345-.42H13V2h-1.598c-.966 0-1.865.338-2.683.889A4.93 4.93 0 0 0 6.738 5.55l-.002.008-3.495 12.13H19.34v-2.4H6.43L9.037 6.24a2.53 2.53 0 0 1 1.015-1.355l.005-.003Z"/><path d="M17.026 7.037V3.286h-2.4v3.75h-3.751v2.4h3.751v3.752h2.4V9.437h3.75v-2.4h-3.75Zm-2.238 11.827c0 .45-.087.863-.262 1.25-.213.5-.563.926-.988 1.25a3.158 3.158 0 0 1-1.876.626c-.7 0-1.35-.237-1.875-.625a3.126 3.126 0 0 1-1.25-2.5h6.251Z"/></svg>