<svg xmlns="http://www.w3.org/2000/svg" fill="#1652F0" viewBox="0 0 12 12"><path d="M10.624 7.735c1.072 2.622-.227 3.931-2.904 2.927A7.78 7.78 0 0 1 6 9.814c1.433-.92 2.815-2.326 3.76-3.827.377.58.675 1.17.864 1.748ZM6 2.267c1.454.96 2.843 2.31 3.76 3.72a9.327 9.327 0 0 0 .864-1.722c1.072-2.622-.227-3.931-2.904-2.927-.566.236-1.148.552-1.72.93Zm-3.76 3.72C3.185 7.488 4.567 8.894 6 9.814a7.78 7.78 0 0 1-1.72.848c-2.677 1.004-3.976-.305-2.904-2.927a7.586 7.586 0 0 1 .864-1.748Z"/><path d="M2.24 5.987c.917-1.41 2.306-2.76 3.76-3.72a10.447 10.447 0 0 0-1.72-.93C1.603.335.304 1.644 1.376 4.266a9.34 9.34 0 0 0 .864 1.722Zm4.803 1.059c-.61.605-1.552.605-2.106 0-.61-.55-.555-1.486 0-2.092.61-.605 1.552-.605 2.106 0 .61.606.61 1.541 0 2.092Z"/></svg>