<svg xmlns="http://www.w3.org/2000/svg" fill="#1652F0" viewBox="0 0 24 24"><path d="M21.248 15.47c2.145 5.243-.453 7.863-5.807 5.854-1.13-.376-2.294-.958-3.441-1.695 2.866-1.841 5.63-4.652 7.52-7.654.755 1.16 1.35 2.34 1.728 3.494ZM12 4.535c2.907 1.918 5.686 4.62 7.52 7.44.715-1.135 1.304-2.297 1.728-3.444 2.145-5.244-.453-7.864-5.807-5.855-1.134.471-2.297 1.104-3.441 1.859Zm-7.52 7.44c1.89 3.002 4.655 5.813 7.52 7.654-1.147.737-2.31 1.319-3.44 1.695-5.355 2.009-7.953-.61-5.808-5.855.378-1.154.973-2.334 1.728-3.494Z"/><path d="M4.48 11.975c1.834-2.82 4.613-5.522 7.52-7.44a20.947 20.947 0 0 0-3.44-1.86C3.204.668.606 3.288 2.751 8.532c.424 1.147 1.013 2.309 1.728 3.444Zm9.953 2.465c-1.422 1.413-3.62 1.413-4.914 0-1.423-1.284-1.293-3.467 0-4.88 1.422-1.413 3.62-1.413 4.914 0 1.423 1.412 1.423 3.596 0 4.88Z"/></svg>