<svg xmlns="http://www.w3.org/2000/svg" fill="#1652F0" viewBox="0 0 24 24"><path d="M19.41 8.21c1.684 0 3.158 1.178 3.579 2.785h-22c.316-1.607 1.895-2.893 3.579-2.893.316 0 .737.107 1.052.215.21-3.536 2.948-6.322 6.421-6.322 3.474 0 6.316 2.786 6.421 6.322.158 0 .316-.027.474-.054.158-.027.316-.054.474-.054Zm-1.263 7.2c-.237.366-.119.853 0 1.22l.829 1.95-1.54 1.586-1.776-.976a1.963 1.963 0 0 0-1.184 0c-.356.122-.71.488-.83.854l-.591 1.951h-2.25l-.592-1.951c-.119-.488-.474-.854-.83-.976-.355-.244-.828-.122-1.184 0l-1.894.976-1.54-1.585.947-1.83a2.137 2.137 0 0 0 0-1.22c-.118-.365-.473-.731-.828-.853l-1.895-.61v-1.95h6.987c-.119.243-.119.487-.119.73 0 .256.042.501.119.73a2.127 2.127 0 0 0 2.013 1.466c.936 0 1.724-.61 2.013-1.467.077-.228.118-.473.118-.728 0-.244 0-.488-.118-.732h6.987v1.951l-1.895.61c-.474.122-.71.488-.947.854Zm-1.473 1.845a4.18 4.18 0 0 1-.257-1.125c-.029-.42.016-1.017.387-1.59.548-.717 1.659-.945 1.659-.945h-2.84c-.381 1.656-1.828 2.927-3.634 2.927-1.807 0-3.253-1.27-3.634-2.927H5.49s1.325.022 1.746 1.322a3.732 3.732 0 0 1 0 2.205 1.6 1.6 0 0 1-.102.243l-.32.617.654-.336c.069-.036.14-.066.213-.091a3.98 3.98 0 0 1 .994-.22c.383-.028.908.01 1.424.296.8.349 1.424 1.098 1.656 1.983l.176.578.186-.613.008-.028c.15-.46.418-.85.7-1.14.282-.29.665-.574 1.132-.734a3.558 3.558 0 0 1 2.223 0c.087.03.17.067.251.11l.614.338-.37-.87Z"/></svg>