<svg xmlns="http://www.w3.org/2000/svg" fill="none" viewBox="0 0 32 32"><path fill="#0A0B0D" d="M27.852 14.917C26.85 25.7 16 29.333 16 29.333S5.15 25.7 4.148 14.917V7.11L16 2.667 27.852 7.11v7.806ZM12.11 24.08c.9.716 1.79 1.28 2.557 1.704V6.015L6.815 8.959v5.829c.445 4.383 2.847 7.348 5.295 9.293Zm5.223 1.705a18.717 18.717 0 0 0 2.558-1.705c2.447-1.945 4.85-4.91 5.295-9.293V8.959l-7.853-2.944v19.77Zm-.48 1.021h.003l-.005-.001.003.001Zm-1.706 0 .003-.001a1.124 1.124 0 0 1-.006.002l.003-.001Z"/></svg>