<svg xmlns="http://www.w3.org/2000/svg" fill="#1652F0" viewBox="0 0 24 24"><path d="M16 12a6.583 6.583 0 0 1-4-4 6.583 6.583 0 0 1-4 4 6.583 6.583 0 0 1 4 4 6.583 6.583 0 0 1 4-4Z"/><path d="m17.863 20.28 2.425-2.416-1.156-2.32a.712.712 0 0 1-.009-.599c.077-.187.377-.445.409-.417L22 13.703V10.28l-2.451-.817a.71.71 0 0 1-.435-.417.714.714 0 0 1 .018-.582l1.156-2.32-2.425-2.415-2.321 1.155a.72.72 0 0 1-.6.01.692.692 0 0 1-.4-.427L13.717 2h-3.425l-.817 2.459a.71.71 0 0 1-.417.434.703.703 0 0 1-.591-.017L6.146 3.72 3.721 6.144l1.156 2.32c.087.182.096.4.043.539l-.043.095a.709.709 0 0 1-.417.374L2 10.289v3.423l2.46.816a.71.71 0 0 1 .434.417.735.735 0 0 1-.017.591l-1.156 2.32 2.416 2.415 2.321-1.155a.741.741 0 0 1 .608-.01.692.692 0 0 1 .4.427L10.292 22h3.425l.817-2.459a.709.709 0 0 1 .417-.434.736.736 0 0 1 .59.017l2.322 1.156Zm.88-7.597c-.2.082-.346.18-.408.222a3.017 3.017 0 0 0-.37.303c-.137.13-.485.477-.69.971a2.72 2.72 0 0 0 .051 2.226l.008.016.52 1.044-.385.384-1.052-.523-.016-.008a2.736 2.736 0 0 0-2.207-.062l-.012.005a2.708 2.708 0 0 0-1.549 1.658L12.273 20h-.541l-.366-1.093a2.692 2.692 0 0 0-1.537-1.649 2.74 2.74 0 0 0-2.23.052l-.017.007-1.048.523-.38-.38.521-1.048.008-.016c.324-.68.359-1.484.062-2.208l-.005-.012a2.708 2.708 0 0 0-1.658-1.549L4 12.268v-.536l1.09-.362h.002a2.709 2.709 0 0 0 1.607-1.446l.07-.155.024-.064c.269-.716.177-1.499-.11-2.101l-.008-.016-.522-1.047.39-.39 1.02.509a2.7 2.7 0 0 0 2.252.084l.012-.005a2.709 2.709 0 0 0 1.549-1.658L11.735 4h.542l.366 1.093a2.69 2.69 0 0 0 1.536 1.649A2.72 2.72 0 0 0 16.4 6.69l.017-.007 1.05-.524.386.384-.512 1.029a2.714 2.714 0 0 0-.079 2.232l.005.012a2.709 2.709 0 0 0 1.657 1.547l1.075.359v.54l-.975.327c-.13.033-.228.071-.282.094Z"/></svg>