<svg xmlns="http://www.w3.org/2000/svg" fill="#1652F0" viewBox="0 0 24 24"><path d="m5.989 1.995-.179.395a6.841 6.841 0 0 1-2.39 2.846 6.855 6.855 0 0 1-1.036.58l-.395.18.395.177a6.878 6.878 0 0 1 1.036.581A6.858 6.858 0 0 1 5.81 9.6l.179.395.178-.395a6.853 6.853 0 0 1 3.427-3.427l.395-.178-.395-.178A6.853 6.853 0 0 1 6.167 2.39l-.178-.395Zm0 2.595c.41.524.881.996 1.405 1.405-.524.41-.996.881-1.405 1.405a8.159 8.159 0 0 0-1.405-1.405A8.16 8.16 0 0 0 5.989 4.59Zm9.234.683a13.421 13.421 0 0 0 4.77 5.553c.279.185.566.362.86.528l1.136.641-1.136.641a13.8 13.8 0 0 0-1.08.678 13.422 13.422 0 0 0-4.71 5.767l-.012.026c-.088.211-.172.425-.25.64l-.812 2.248-.812-2.248a14.614 14.614 0 0 0-.25-.64l-.012-.026a13.42 13.42 0 0 0-4.93-5.916c-.28-.186-.566-.362-.86-.529l-1.136-.64 1.135-.642a13.76 13.76 0 0 0 1.08-.678 13.42 13.42 0 0 0 4.711-5.767l.011-.026c.09-.21.173-.424.25-.64l.813-2.248.812 2.248c.078.216.162.43.25.64l.011.026c.052.122.106.244.162.364ZM13.99 16.745a15.446 15.446 0 0 1 4.193-4.75 15.446 15.446 0 0 1-4.193-4.75 15.448 15.448 0 0 1-4.194 4.75 15.448 15.448 0 0 1 4.194 4.75ZM5.81 14.39a6.92 6.92 0 0 1-.58 1.036 6.86 6.86 0 0 1-2.846 2.39l-.395.18.395.177a6.757 6.757 0 0 1 1.036.581A6.859 6.859 0 0 1 5.81 21.6l.179.395.178-.395a6.808 6.808 0 0 1 .58-1.036 6.859 6.859 0 0 1 2.847-2.39l.395-.179-.395-.178a7.005 7.005 0 0 1-1.036-.581 6.86 6.86 0 0 1-2.39-2.846l-.18-.395-.178.395Zm-1.226 3.605a8.16 8.16 0 0 0 1.405-1.405c.41.524.881.996 1.405 1.405A8.16 8.16 0 0 0 5.989 19.4a8.16 8.16 0 0 0-1.405-1.405Z"/></svg>