<svg xmlns="http://www.w3.org/2000/svg" fill="none" viewBox="0 0 32 32"><path fill="#0A0B0D" d="M17.778 13.333a3.053 3.053 0 0 0 5.954 0h-5.954Z"/><path fill="#0A0B0D" d="M21.333 5.333a5.333 5.333 0 0 1 5.334 5.334V12a5.333 5.333 0 0 1-5.334 5.333H20A5.333 5.333 0 0 1 14.667 12v-1.333A5.333 5.333 0 0 1 20 5.333h1.333ZM20 2.667a8 8 0 0 0-8 8V12a8 8 0 0 0 8 8h1.333a8 8 0 0 0 8-8v-1.333a8 8 0 0 0-8-8H20Z"/><path fill="#0A0B0D" d="M18.667 10c0 1.105-.597 2-1.334 2-.736 0-1.333-.895-1.333-2 0-1.104.597-2 1.333-2 .737 0 1.334.896 1.334 2Zm6.666 0c0 1.105-.597 2-1.333 2s-1.333-.895-1.333-2c0-1.104.597-2 1.333-2s1.333.896 1.333 2ZM6.667 14.667a1.333 1.333 0 1 1 0-2.667 1.333 1.333 0 0 1 0 2.667Zm0 2.666a4 4 0 1 0 0-8 4 4 0 0 0 0 8ZM12 26.667a2.667 2.667 0 1 1 0-5.334 2.667 2.667 0 0 1 0 5.334Zm0 2.666a5.333 5.333 0 1 0 0-10.666 5.333 5.333 0 0 0 0 10.666Z"/></svg>