<svg xmlns="http://www.w3.org/2000/svg" fill="none" viewBox="0 0 16 16"><path fill="#0A0B0D" d="M5.75 0v2.26a4.87 4.87 0 0 0-1.217.505L2.934 1.166 1.166 2.934l1.6 1.6A4.87 4.87 0 0 0 2.26 5.75H0v2.5h2.261c.114.432.285.84.504 1.217l-1.599 1.599 1.768 1.768 1.6-1.6c.376.22.784.392 1.216.505V14h2.5v-2.26c.432-.114.84-.286 1.217-.505l1.599 1.599 1.768-1.768-1.6-1.6c.22-.376.392-.784.505-1.216H14v-2.5h-2.26a4.869 4.869 0 0 0-.505-1.217l1.599-1.599-1.768-1.768-1.599 1.6A4.87 4.87 0 0 0 8.25 2.26V0h-2.5ZM9.4 7a2.4 2.4 0 1 1-4.8 0 2.4 2.4 0 0 1 4.8 0Z"/></svg>