<svg xmlns="http://www.w3.org/2000/svg" fill="none" viewBox="0 0 16 16"><path fill="#0A0B0D" d="m11.724 8.604 1.015.546c.193.104.461.426.461.95 0 .35-.124.626-.272.795-.145.165-.283.205-.378.205l-.028-.001-.127-.01-.127.009a1.09 1.09 0 0 1-.068.002H3.8a1 1 0 0 1-.49-1.872l1.053-.596-.155-1.2a1 1 0 0 1 1.325-1.075l1.2.424.8-.989a2.4 2.4 0 0 1 4.262 1.661l-.071 1.151Zm-9.3-.943a2.8 2.8 0 0 0 1.376 5.24h8.4c.063 0 .125-.003.187-.007a2.2 2.2 0 0 0 .163.006c1.353 0 2.45-1.254 2.45-2.8 0-1.12-.576-2.087-1.408-2.535A4.2 4.2 0 0 0 6.134 4.66a2.8 2.8 0 0 0-3.71 3.002Z"/></svg>