<svg xmlns="http://www.w3.org/2000/svg" fill="#1652F0" viewBox="0 0 25 25"><path d="M11.453 0h2.082v4.165h-2.082V0Zm1.041 19.262a6.768 6.768 0 1 0 0-13.536 6.768 6.768 0 0 0 0 13.536Zm0-2.082a4.685 4.685 0 1 1 0-9.371 4.685 4.685 0 0 1 0 9.37ZM4.396 2.923 2.923 4.396 5.868 7.34l1.473-1.473-2.945-2.945ZM0 13.535v-2.082h4.165v2.082H0Zm2.923 7.058 1.473 1.472L7.34 19.12l-1.473-1.472-2.945 2.945Zm10.612.231v4.164h-2.082v-4.164h2.082Zm5.585-3.176-1.472 1.472 2.945 2.945 1.472-1.472-2.945-2.945Zm1.704-6.195h4.164v2.082h-4.164v-2.082Zm-3.176-5.585 1.472 1.473 2.945-2.945-1.472-1.473-2.945 2.945Z"/></svg>