<svg xmlns="http://www.w3.org/2000/svg" fill="#1652F0" viewBox="0 0 12 12"><path d="M10.98 1.02H11L10.98 1v.02Z"/><path fill-rule="evenodd" d="M10.98 1.02a9.37 9.37 0 0 0-1.19.05c-1.72.2-3.33.94-4.6 2.13h-.24a1.5 1.5 0 0 1-.2.02h-.1A5.96 5.96 0 0 0 1 4.96l2.12 2.11-.14.14a2.82 2.82 0 0 0-.77 2.6c.94.2 1.9-.1 2.59-.78l.14-.14L7.05 11a5.89 5.89 0 0 0 1.72-3.66l.01-.14.01-.15v-.24a8.05 8.05 0 0 0 2.14-4.6l.02-.15c.03-.34.05-.69.03-1.04Zm-3.04 4.2a.81.81 0 0 1-1.14 0 .81.81 0 0 1 0-1.13.81.81 0 0 1 1.14 0c.31.32.31.83 0 1.14Z" clip-rule="evenodd"/></svg>