<svg xmlns="http://www.w3.org/2000/svg" fill="none" viewBox="0 0 16 16"><path fill="#0A0B0D" d="M1.556 2.333c0 .273.046.535.132.778H0v9.333h14V3.111h-1.688A2.333 2.333 0 0 0 10.112 0h-.295C8.912 0 8.07.467 7.59 1.235L7 2.178l-.59-.943A2.627 2.627 0 0 0 4.184 0H3.89a2.333 2.333 0 0 0-2.333 2.333Zm2.333.534a.533.533 0 0 1 0-1.067h.294c.285 0 .55.147.701.389l.424.678H3.889ZM6.2 4.91v5.733H1.8V4.911h4.4Zm6 5.733H8V4.911h4.2v5.733Zm-2.089-7.777H8.692l.424-.678a.827.827 0 0 1 .701-.389h.294a.533.533 0 1 1 0 1.067Z"/></svg>