<svg xmlns="http://www.w3.org/2000/svg" fill="#1652F0" viewBox="0 0 24 24"><path d="M4.239 21.995a2.25 2.25 0 1 1 0-4.5 2.25 2.25 0 0 1 0 4.5Zm0-15.5a2.25 2.25 0 1 1 0-4.5 2.25 2.25 0 0 1 0 4.5Zm0 7.75a2.25 2.25 0 1 1 0-4.5 2.25 2.25 0 0 1 0 4.5Zm7.75 7.75a2.25 2.25 0 1 1 0-4.5 2.25 2.25 0 0 1 0 4.5Zm0-15.5a2.25 2.25 0 1 1 0-4.5 2.25 2.25 0 0 1 0 4.5Zm0 7.75a2.25 2.25 0 1 1 0-4.5 2.25 2.25 0 0 1 0 4.5Zm7.75 7.75a2.25 2.25 0 1 1 0-4.5 2.25 2.25 0 0 1 0 4.5Zm0-15.5a2.25 2.25 0 1 1 0-4.5 2.25 2.25 0 0 1 0 4.5Zm0 7.75a2.25 2.25 0 1 1 0-4.5 2.25 2.25 0 0 1 0 4.5Z"/></svg>