<svg xmlns="http://www.w3.org/2000/svg" fill="none" viewBox="0 0 32 32"><path fill="#0A0B0D" d="M16.717 6.398a9.8 9.8 0 0 0-1.08-1.438 9.627 9.627 0 0 0-1.694-1.474 12.397 12.397 0 0 1 4.037.108c5.665 1.094 9.944 6.08 9.944 12.064 0 6.786-5.502 12.288-12.288 12.288a12.26 12.26 0 0 1-9.323-4.284 12.285 12.285 0 0 1-2.096-3.457 9.748 9.748 0 0 0 3.524.953c1.971.15 4.007-.3 5.818-1.418 4.556-2.812 5.97-8.786 3.158-13.342ZM14.96 22.009a12.322 12.322 0 0 1-4.595 1.699 9.58 9.58 0 0 0 5.272 1.57 9.62 9.62 0 0 0 9.621-9.62 9.62 9.62 0 0 0-5.234-8.565c2.074 5.435.069 11.748-5.064 14.916Z"/><path fill="#0A0B0D" d="m11.249 9.94-1.45-3.92-1.453 3.92-3.92 1.451 3.92 1.45 1.451 3.922 1.451-3.921 3.921-1.451-3.921-1.45Z"/></svg>