<svg xmlns="http://www.w3.org/2000/svg" fill="#1652F0" viewBox="0 0 12 12"><path d="M6.668 7.323v.303H4.937v-.303c-.008-.56.099-.993.321-1.298.223-.313.466-.569.73-.767l.729-.568a.855.855 0 0 0 .346-.705c0-.305-.099-.528-.297-.668-.197-.148-.445-.222-.741-.222-.346 0-.623.095-.829.284-.197.181-.305.45-.321.804H2.946c.009-.8.297-1.447.866-1.941.577-.495 1.318-.742 2.225-.742.47 0 .89.066 1.261.198.38.123.697.292.952.507.255.214.453.474.593.779.14.296.21.618.21.964 0 .503-.123.898-.37 1.187-.248.28-.524.523-.829.729a8.127 8.127 0 0 0-.816.618c-.247.206-.37.486-.37.84ZM5.815 10.5a1.15 1.15 0 0 1-.829-.334 1.151 1.151 0 0 1-.334-.828c0-.322.112-.593.334-.816.231-.23.507-.346.829-.346.313 0 .585.115.815.346.231.223.347.494.347.816 0 .321-.116.597-.347.828-.23.223-.502.334-.815.334Z"/></svg>