<svg xmlns="http://www.w3.org/2000/svg" fill="none" viewBox="0 0 24 24"><path fill="#0A0B0D" d="M11.333 8A2.29 2.29 0 0 0 15.8 8h-4.466Z"/><path fill="#0A0B0D" d="M14 2a4 4 0 0 1 4 4v1a4 4 0 0 1-4 4h-1a4 4 0 0 1-4-4V6a4 4 0 0 1 4-4h1Zm-1-2a6 6 0 0 0-6 6v1a6 6 0 0 0 6 6h1a6 6 0 0 0 6-6V6a6 6 0 0 0-6-6h-1Z"/><path fill="#0A0B0D" d="M12 5.5c0 .828-.448 1.5-1 1.5s-1-.672-1-1.5.448-1.5 1-1.5 1 .672 1 1.5Zm5 0c0 .828-.448 1.5-1 1.5s-1-.672-1-1.5.448-1.5 1-1.5 1 .672 1 1.5ZM3 9a1 1 0 1 1 0-2 1 1 0 0 1 0 2Zm0 2a3 3 0 1 0 0-6 3 3 0 0 0 0 6Zm4 7a2 2 0 1 1 0-4 2 2 0 0 1 0 4Zm0 2a4 4 0 1 0 0-8 4 4 0 0 0 0 8Z"/></svg>