<svg xmlns="http://www.w3.org/2000/svg" fill="none" viewBox="0 0 32 32"><path fill="#0A0B0D" d="M23.133 2.667 25.665 4l-.003.005.002.002L11.67 29.33l-1.4-.714-1.104-.559 1.966-3.584c-3.437-1.36-6.425-4.119-8.315-7.864a1.305 1.305 0 0 1 0-1.213C5.55 9.944 10.6 6.559 16 6.559c1.549.01 3.084.294 4.534.84l2.6-4.732Zm-10.85 14.791c.32.812.895 1.496 1.64 1.95l3.838-6.972a3.909 3.909 0 0 0-1.76-.439 3.997 3.997 0 0 0-3.718 5.461Zm16.901-2.062a17.477 17.477 0 0 0-3.785-5.038l-1.334 2.412c.96.953 1.777 2.04 2.427 3.226-1.813 3.265-4.612 5.557-7.748 6.41l-1.653 2.986c4.985-.426 9.543-3.719 12.094-8.787a1.3 1.3 0 0 0-.001-1.21Z"/></svg>