<svg xmlns="http://www.w3.org/2000/svg" fill="#1652F0" viewBox="0 0 16 16"><path d="M15 8A7 7 0 1 1 1 8a7 7 0 0 1 14 0Zm-6.652 4.788c.5-1.186.806-2.43.92-3.688H6.732a12.3 12.3 0 0 0 .92 3.688 4.885 4.885 0 0 0 .695 0Zm2.683-1.066A4.8 4.8 0 0 0 12.673 9.1h-1.198c-.067.882-.215 1.76-.444 2.622Zm.444-4.822h1.198a4.8 4.8 0 0 0-1.642-2.622c.229.862.377 1.74.444 2.622ZM8.348 3.212a4.868 4.868 0 0 0-.696 0 12.36 12.36 0 0 0-.92 3.688h2.535a12.309 12.309 0 0 0-.92-3.688ZM4.525 9.1H3.327a4.8 4.8 0 0 0 1.642 2.622A14.514 14.514 0 0 1 4.525 9.1Zm0-2.2c.067-.882.215-1.76.444-2.622A4.8 4.8 0 0 0 3.327 6.9h1.198Z"/></svg>