<svg xmlns="http://www.w3.org/2000/svg" fill="#1652F0" viewBox="0 0 16 16"><path d="M4.5 8C2.531 8 1 6.526 1 4.537 1 2.547 2.604 1 4.5 1S8 2.474 8 4.463v.074C8 6.527 6.396 8 4.5 8Zm1.9-3.537C6.4 3.407 5.563 2.6 4.5 2.6a1.92 1.92 0 0 0-1.9 1.937c0 1.077.786 1.863 1.9 1.863V4.5h1.9v-.037Z"/><path d="M8 11.463C8 9.473 6.396 8 4.5 8S1 9.604 1 11.5a3.5 3.5 0 0 0 7 0 3.5 3.5 0 0 0 7 0C15 9.531 13.469 8 11.5 8 13.396 8 15 6.453 15 4.463S13.396 1 11.5 1C9.616 1 8.02 2.528 8 4.5v.037C8 6.527 9.604 8 11.5 8 9.604 8 8 9.474 8 11.463Zm-1.6.037a1.9 1.9 0 0 1-3.8 0c0-1.012.888-1.9 1.9-1.9v1.9h1.9Zm3.2 0h1.9V9.6c1.085 0 1.9.815 1.9 1.9a1.9 1.9 0 0 1-3.8 0Zm1.9-7H9.6c.02-1.082.893-1.9 1.9-1.9 1.063 0 1.9.807 1.9 1.863A1.92 1.92 0 0 1 11.5 6.4V4.5Z"/></svg>