<svg xmlns="http://www.w3.org/2000/svg" fill="none" viewBox="0 0 32 32"><path fill="#0A0B0D" d="M20 2.667a8 8 0 0 0-8 8V12a8 8 0 0 0 8 8h1.333a8 8 0 0 0 8-8v-1.333a8 8 0 0 0-8-8H20ZM17.333 12C16.597 12 16 11.105 16 10c0-1.104.597-2 1.333-2 .737 0 1.334.896 1.334 2 0 1.105-.597 2-1.334 2Zm8-2c0 1.105-.597 2-1.333 2s-1.333-.895-1.333-2c0-1.104.597-2 1.333-2s1.333.896 1.333 2Zm-4.578 5.712a3.053 3.053 0 0 1-2.977-2.379h5.954a3.053 3.053 0 0 1-2.977 2.379Zm-10.088-2.379a4 4 0 1 1-8 0 4 4 0 0 1 8 0ZM17.333 24a5.333 5.333 0 1 1-10.666 0 5.333 5.333 0 0 1 10.666 0Z"/></svg>