<svg xmlns="http://www.w3.org/2000/svg" fill="#1652F0" viewBox="0 0 24 24"><path d="m6 1.995.178.395a6.857 6.857 0 0 0 3.427 3.427l.395.178-.395.178A6.857 6.857 0 0 0 6.178 9.6L6 9.995 5.822 9.6a6.857 6.857 0 0 0-3.427-3.427L2 5.995l.395-.178A6.857 6.857 0 0 0 5.822 2.39L6 1.995Zm8 0-.812 2.248a13.123 13.123 0 0 1-.423 1.03 13.42 13.42 0 0 1-4.55 5.403c-.347.242-.707.468-1.08.678L6 11.995l1.136.641c.372.21.732.437 1.08.678a13.42 13.42 0 0 1 4.721 5.793c.09.211.173.425.25.64L14 21.995l.812-2.248a13.124 13.124 0 0 1 .423-1.03 13.421 13.421 0 0 1 4.55-5.403c.347-.242.707-.468 1.08-.678l1.135-.64-1.136-.642c-.372-.21-.732-.436-1.08-.678a13.42 13.42 0 0 1-4.721-5.793c-.09-.21-.173-.424-.25-.64L14 1.995ZM6.178 14.39 6 13.995l-.178.395a6.857 6.857 0 0 1-3.427 3.427L2 17.995l.395.178A6.857 6.857 0 0 1 5.822 21.6l.178.395.178-.395a6.857 6.857 0 0 1 3.427-3.427l.395-.178-.395-.178a6.857 6.857 0 0 1-3.427-3.427Z"/></svg>