<svg xmlns="http://www.w3.org/2000/svg" fill="#1652F0" viewBox="0 0 16 16"><path d="M8.89 9.764v.32H6.582v-.32c-.01-.748.132-1.324.429-1.731.297-.418.62-.758.973-1.022.351-.275.675-.527.972-.758a1.14 1.14 0 0 0 .462-.94c0-.406-.132-.703-.396-.89-.264-.198-.593-.297-.989-.297-.462 0-.83.127-1.104.38-.264.241-.407.598-.429 1.07H3.929c.01-1.065.395-1.928 1.153-2.587C5.852 2.329 6.841 2 8.05 2c.627 0 1.187.088 1.682.264.505.165.928.39 1.269.676.34.285.604.631.791 1.038.187.396.28.824.28 1.286 0 .67-.164 1.198-.494 1.582a5.82 5.82 0 0 1-1.104.973c-.396.263-.759.538-1.088.824-.33.275-.495.648-.495 1.12ZM7.753 14c-.429 0-.797-.148-1.105-.445a1.535 1.535 0 0 1-.445-1.104c0-.429.149-.792.445-1.088a1.507 1.507 0 0 1 1.105-.462c.417 0 .78.154 1.088.462.307.296.461.659.461 1.088 0 .428-.154.796-.461 1.104-.308.297-.67.445-1.088.445Z"/></svg>