<svg xmlns="http://www.w3.org/2000/svg" fill="none" viewBox="0 0 16 16"><path fill="#1652F0" d="M6.75 1v2.26a4.87 4.87 0 0 0-1.217.505L3.934 2.166 2.166 3.934l1.6 1.6A4.87 4.87 0 0 0 3.26 6.75H1v2.5h2.261c.114.432.285.84.504 1.217l-1.599 1.599 1.768 1.768 1.6-1.6c.376.22.784.392 1.216.505V15h2.5v-2.26a4.87 4.87 0 0 0 1.217-.505l1.599 1.599 1.768-1.768-1.6-1.6c.22-.376.392-.784.505-1.216H15v-2.5h-2.26a4.869 4.869 0 0 0-.505-1.217l1.599-1.599-1.768-1.768-1.599 1.6A4.87 4.87 0 0 0 9.25 3.26V1h-2.5Zm3.65 7a2.4 2.4 0 1 1-4.8 0 2.4 2.4 0 0 1 4.8 0Z"/></svg>