<svg xmlns="http://www.w3.org/2000/svg" fill="none" viewBox="0 0 16 16"><path fill="#1652F0" d="M3.76 15c.96 0 1.62-.32 2.25-.8.62.39 1.21.8 2.39.8 1.18 0 1.77-.41 2.39-.8.63.48 1.27.8 2.23.8s1.82-.52 1.75-1.17c-.13-1.24-.93-8.78-1.75-10.5C12.09 1.39 10.24 1 8.35 1c-1.89 0-3.74.39-4.67 2.33-.9 1.88-1.75 10.5-1.75 10.5-.06.57.83 1.17 1.82 1.17h.01Zm4.6-12.25c2.03 0 2.7.54 3.09 1.34.3.63.81 3.21 1.34 7.68-1.51.05-2.39.61-3.03 1.02-.5.32-.73.47-1.35.47-.62 0-.85-.15-1.36-.47-.66-.42-1.55-.98-3.11-1.02.4-3.42.96-6.87 1.34-7.67.38-.8 1.06-1.34 3.09-1.34l-.01-.01Z"/><path fill="#1652F0" d="M6.86 7.08c.48 0 .88-.52.88-1.17 0-.65-.39-1.17-.88-1.17s-.88.52-.88 1.17c0 .65.39 1.17.88 1.17Zm3 0c.48 0 .88-.52.88-1.17 0-.65-.39-1.17-.88-1.17s-.88.52-.88 1.17c0 .65.39 1.17.88 1.17Z"/></svg>