<svg xmlns="http://www.w3.org/2000/svg" fill="none" viewBox="0 0 32 32"><path fill="#0A0B0D" d="M26.667 13.333c0 7.364-5.97 13.334-13.334 13.334C5.97 26.667 0 20.697 0 13.333 0 5.97 5.97 0 13.333 0c7.364 0 13.334 5.97 13.334 13.333Zm-12.9 10.125A23.023 23.023 0 0 0 16.048 15h-5.432a23.03 23.03 0 0 0 2.283 8.458 10.373 10.373 0 0 0 .866 0Zm4.063-1.041A10.146 10.146 0 0 0 23.33 15h-3.94a26.36 26.36 0 0 1-1.56 7.417Zm1.56-10.75h3.94a10.146 10.146 0 0 0-5.5-7.417 26.36 26.36 0 0 1 1.56 7.417Zm-5.624-8.458a10.315 10.315 0 0 0-.866 0 23.024 23.024 0 0 0-2.283 8.458h5.432a23.022 23.022 0 0 0-2.283-8.458ZM7.276 15h-3.94a10.146 10.146 0 0 0 5.5 7.417A26.36 26.36 0 0 1 7.277 15Zm0-3.333c.16-2.517.68-5.016 1.56-7.417a10.146 10.146 0 0 0-5.5 7.417h3.94Z"/></svg>