<svg xmlns="http://www.w3.org/2000/svg" fill="none" viewBox="0 0 32 32"><path fill="#0A0B0D" d="M19.998 16a4 4 0 1 1-7.998.001A4 4 0 0 1 19.998 16Z"/><path fill="#0A0B0D" d="M2.813 16.605C5.541 21.99 10.597 25.333 16 25.333s10.45-3.35 13.187-8.728a1.32 1.32 0 0 0 0-1.21C26.459 10.01 21.403 6.668 16 6.668S5.541 10.009 2.813 15.396a1.32 1.32 0 0 0 0 1.209ZM16 22.667c-4.265 0-8.14-2.48-10.485-6.667C7.86 11.813 11.744 9.333 16 9.333c4.256 0 8.13 2.48 10.485 6.667-2.345 4.187-6.22 6.667-10.485 6.667Z"/></svg>