<svg xmlns="http://www.w3.org/2000/svg" fill="#1652F0" viewBox="0 0 16 16"><path d="M9.5 1A4.5 4.5 0 0 0 5 5.5v1A4.5 4.5 0 0 0 9.5 11h1A4.5 4.5 0 0 0 15 6.5v-1A4.5 4.5 0 0 0 10.5 1h-1ZM8.07 5.94c-.45 0-.82-.54-.82-1.22 0-.67.37-1.22.82-1.22.46 0 .83.55.83 1.22 0 .68-.37 1.22-.83 1.22Zm4.68-1.22c0 .68-.37 1.22-.82 1.22-.46 0-.83-.54-.83-1.22 0-.67.37-1.22.83-1.22.45 0 .82.55.82 1.22ZM10.09 8.5a2.18 2.18 0 0 1-2.13-1.71h4.26a2.18 2.18 0 0 1-2.13 1.71ZM7 13a2 2 0 1 1-4 0 2 2 0 0 1 4 0ZM4 8.5a1.5 1.5 0 1 1-3 0 1.5 1.5 0 0 1 3 0Z"/></svg>