<svg xmlns="http://www.w3.org/2000/svg" fill="none" viewBox="0 0 32 32"><path fill="#0A0B0D" d="M30.033 11.08c-.293-.947-2.04-1.333-4.613-1.213a11.187 11.187 0 0 0-20.24 6.44C2.993 17.72 1.78 19.053 2.033 20c.253.947 1.813 1.333 4.12 1.227A11.2 11.2 0 0 0 27.553 16a11.74 11.74 0 0 0-.187-1.533c1.88-1.294 2.907-2.467 2.667-3.387ZM15.966 8.147a8.373 8.373 0 0 1 5.987 2.12c.377.339.725.71 1.04 1.106v.08c.31.418.578.864.8 1.334 0 .08.08.146.107.213a44.776 44.776 0 0 1-15.774 5.107 1.895 1.895 0 0 1-.066-.294 4.95 4.95 0 0 0-.08-.88 6.746 6.746 0 0 1 0-1.04v-.306c.026-.251.066-.5.12-.747a8.373 8.373 0 0 1 7.867-6.693Zm.8 16.773a8.374 8.374 0 0 1-7.546-4l-.08-.16a46.96 46.96 0 0 0 15.56-5.04v.48a8.4 8.4 0 0 1-7.933 8.72Z"/></svg>