<svg xmlns="http://www.w3.org/2000/svg" fill="none" viewBox="0 0 32 32"><path fill="#0A0B0D" d="m13.258 10.742-1.544-4.17-1.543 4.17L6 12.286l4.17 1.543 1.544 4.17 1.544-4.17 4.17-1.543-4.17-1.544Zm3.218-6.075.772 2.085 2.085.772-2.085.772-.772 2.085-.771-2.085-2.086-.772 2.085-.772.772-2.085Z"/><path fill="#0A0B0D" d="M0 12.667c0 4.064 1.915 7.682 4.891 10h15.551a12.645 12.645 0 0 0 4.891-10C25.333 5.67 19.663 0 12.667 0S0 5.671 0 12.667ZM19.465 20H5.868a9.967 9.967 0 0 1-3.201-7.333c0-5.523 4.477-10 10-10 5.522 0 10 4.477 10 10A9.967 9.967 0 0 1 19.465 20ZM22 24l2.667 2.667h-24L3.333 24H22Z"/></svg>