<svg xmlns="http://www.w3.org/2000/svg" fill="#1652F0" viewBox="0 0 24 24"><path d="m18.814 10.481 2.8-2.905a1.11 1.11 0 0 0 .104-1.452l-3.734-3.735c-.415-.519-.934-.519-1.453 0l-3.216 3.216 5.187 5.188.312-.312ZM2.411 18a1.001 1.001 0 0 1 0-1.445l4.52-4.542-4.623-4.645a1.001 1.001 0 0 1 0-1.445L5.904 2.31c.411-.413 1.028-.413 1.336 0l4.623 4.438L17 11.91l-7.911 7.948-1.541 1.755c-.411.516-1.027.516-1.438 0L2.41 18Zm5.216.491 6.551-6.581-3.717-3.735L6.59 4.457 4.41 6.645l5.342 5.368-5.23 5.255 2.25 2.197.854-.974Zm13.988-2.067-2.801-2.905-.312-.312-5.187 5.188 3.216 3.216c.519.519 1.038.519 1.453 0l3.734-3.735a1.111 1.111 0 0 0-.103-1.452Z"/></svg>