<svg xmlns="http://www.w3.org/2000/svg" fill="none" viewBox="0 0 32 32"><path fill="#0A0B0D" d="M22.667 16a6.667 6.667 0 1 1-13.334 0 6.667 6.667 0 0 1 13.334 0ZM20 16a4 4 0 1 0-8 0 4 4 0 0 0 8 0Z"/><path fill="#0A0B0D" d="M6.572 12.095V6.572h5.523L16 2.667l3.905 3.905h5.523v5.523L29.333 16l-3.905 3.905v5.523h-5.523L16 29.333l-3.905-3.905H6.572v-5.523L2.667 16l3.905-3.905Zm2.667-2.857V13.2L6.438 16l2.8 2.801v3.961H13.2l2.8 2.8 2.8-2.8h3.961V18.8l2.801-2.8-2.8-2.8V9.237H18.8L16 6.438l-2.8 2.8H9.238Z"/></svg>