<svg xmlns="http://www.w3.org/2000/svg" fill="none" viewBox="0 0 16 16"><path fill="#1652F0" d="M9.5 3.5a1.5 1.5 0 1 1-3 0 1.5 1.5 0 0 1 3 0Zm0 9a1.5 1.5 0 1 1-3 0 1.5 1.5 0 0 1 3 0ZM8 9.5a1.5 1.5 0 1 0 0-3 1.5 1.5 0 0 0 0 3Z"/><path fill="#1652F0" d="M9.75 3.5a1.75 1.75 0 1 0-3.5 0 1.75 1.75 0 0 0 3.5 0Zm0 9a1.75 1.75 0 1 1-3.5 0 1.75 1.75 0 0 1 3.5 0Zm0-4.5a1.75 1.75 0 1 1-3.5 0 1.75 1.75 0 0 1 3.5 0ZM9.5 3.5a1.5 1.5 0 1 1-3 0 1.5 1.5 0 0 1 3 0Zm0 9a1.5 1.5 0 1 1-3 0 1.5 1.5 0 0 1 3 0Zm0-4.5a1.5 1.5 0 1 1-3 0 1.5 1.5 0 0 1 3 0Z"/></svg>