<svg xmlns="http://www.w3.org/2000/svg" fill="#1652F0" viewBox="0 0 24 24"><path d="M7 12c-2.813 0-5-2.105-5-4.947S4.292 2 7 2s5 2.105 5 4.947V7c.028-2.817 2.308-5 5-5 2.708 0 5 2.105 5 4.947S19.708 12 17 12a5 5 0 0 1-5-5 5 5 0 0 1-5 5Zm3-5.053C10 5.272 8.667 4 7 4 5.389 4 4 5.322 4 7.053 4 8.755 5.256 10 7 10V7h3v-.053ZM17 7v3c1.611 0 3-1.322 3-3.053C20 5.272 18.667 4 17 4c-1.595 0-2.972 1.296-3 3h3Zm-5 10c0 2.813-2.292 5-5 5-2.813 0-5-2.292-5-5s2.292-5 5-5a5 5 0 0 1 5 5Zm-2 0H7v-3c-1.604 0-3 1.396-3 3a3.001 3.001 0 0 0 6 0Zm2 0c0 2.813 2.292 5 5 5s5-2.188 5-5c0-2.813-2.188-5-5-5a5 5 0 0 0-5 5Zm5-3c1.708 0 3 1.292 3 3a3.001 3.001 0 0 1-6 0h3v-3Z"/></svg>