<svg xmlns="http://www.w3.org/2000/svg" fill="none" viewBox="0 0 32 32"><path fill="#0A0B0D" d="m29.295 2.705.038.002-.04-.04.002.038ZM21.25 14.019a2.279 2.279 0 0 1-3.229 0 2.279 2.279 0 0 1 0-3.228 2.28 2.28 0 0 1 3.229 0 2.279 2.279 0 0 1 0 3.228Z"/><path fill="#0A0B0D" d="M29.295 2.705a21.714 21.714 0 0 0-2.56.073c-.05-.003-.1-.005-.15-.005v.014c-.093 0-.186 0-.28.013A21.827 21.827 0 0 0 13.81 8.524l-.617.026a15.97 15.97 0 0 0-10.525 4.655L7.55 18.09c.065.083.136.163.213.239l.533.533-.36.36a7.58 7.58 0 0 0-2.055 6.897 7.545 7.545 0 0 0 6.897-2.054l.36-.36.574.573a2.655 2.655 0 0 0 .242.216l4.84 4.84a15.972 15.972 0 0 0 4.657-10.525l.022-.545a21.696 21.696 0 0 0 5.754-12.528 2.738 2.738 0 0 0 0-.53c.07-.827.093-1.661.068-2.5Zm-2.71 2.75a19.004 19.004 0 0 1-5.469 11.419l-5.523 5.523-5.95-5.95 5.523-5.523a19.04 19.04 0 0 1 11.42-5.47Z"/></svg>