<svg xmlns="http://www.w3.org/2000/svg" fill="none" viewBox="0 0 32 32"><path fill="#0A0B0D" d="M15.111 10.667a3.053 3.053 0 0 0 5.954 0h-5.954Z"/><path fill="#0A0B0D" d="M18.667 2.667A5.333 5.333 0 0 1 24 8v1.333a5.333 5.333 0 0 1-5.333 5.334h-1.334A5.333 5.333 0 0 1 12 9.333V8a5.333 5.333 0 0 1 5.333-5.333h1.334ZM17.333 0a8 8 0 0 0-8 8v1.333a8 8 0 0 0 8 8h1.334a8 8 0 0 0 8-8V8a8 8 0 0 0-8-8h-1.334Z"/><path fill="#0A0B0D" d="M16 7.333c0 1.105-.597 2-1.333 2-.737 0-1.334-.895-1.334-2 0-1.104.597-2 1.334-2 .736 0 1.333.896 1.333 2Zm6.667 0c0 1.105-.597 2-1.334 2-.736 0-1.333-.895-1.333-2 0-1.104.597-2 1.333-2 .737 0 1.334.896 1.334 2ZM4 12a1.333 1.333 0 1 1 0-2.667A1.333 1.333 0 0 1 4 12Zm0 2.667a4 4 0 1 0 0-8 4 4 0 0 0 0 8ZM9.333 24a2.667 2.667 0 1 1 0-5.333 2.667 2.667 0 0 1 0 5.333Zm0 2.667a5.333 5.333 0 1 0 0-10.667 5.333 5.333 0 0 0 0 10.667Z"/></svg>