<svg xmlns="http://www.w3.org/2000/svg" fill="none" viewBox="0 0 24 24"><path fill="#0A0B0D" d="M19.113 9.172a8.401 8.401 0 0 1-14.689 4.756c5.781-.184 10.859-2.126 14.69-4.756Zm1.592-3.852C16.885 8.973 10.6 12.051 3.13 11.94l-.002-.005-.134.002a27.18 27.18 0 0 1-.938-.035v.007C.93 11.819.2 11.52.035 11.005c-.228-.715.67-1.718 2.315-2.773a8.4 8.4 0 0 1 15.146-4.835c1.939-.093 3.241.204 3.469.916.093.293-.002.634-.26 1.007Zm-1.693-1.245s-.005.014-.028.045c.015-.03.028-.045.028-.045Zm.452 1.544c.036.013.049.021.049.021s-.02-.005-.05-.02ZM1.487 9.678s.02.005.05.02a.235.235 0 0 1-.05-.02Zm.5 1.565s.006-.014.029-.045a.26.26 0 0 1-.028.045Z"/></svg>