<svg xmlns="http://www.w3.org/2000/svg" fill="none" viewBox="0 0 16 16"><path fill="#0A0B0D" d="m10.724 5.504 1.015.546c.193.104.461.426.461.95 0 .35-.124.626-.272.795-.145.165-.283.205-.378.205l-.028-.001-.127-.01-.127.009A1.033 1.033 0 0 1 11.2 8H2.8a1 1 0 0 1-.49-1.872l1.053-.596-.155-1.2a1 1 0 0 1 1.325-1.075l1.2.423.8-.988a2.4 2.4 0 0 1 4.262 1.661l-.071 1.151Zm-9.3-.943A2.8 2.8 0 0 0 2.8 9.8h8.4c.063 0 .125-.002.187-.006a2.2 2.2 0 0 0 .163.006C12.903 9.8 14 8.546 14 7c0-1.12-.576-2.088-1.408-2.535a4.2 4.2 0 0 0-7.458-2.906 2.8 2.8 0 0 0-3.71 3.002Z"/></svg>