<svg xmlns="http://www.w3.org/2000/svg" fill="#1652F0" viewBox="0 0 24 24"><path d="m18.929 7.998.001.003L19 8c2.208 0 4 1.792 4 4a4.002 4.002 0 0 1-4.07 4l-.001.002.035.06a4.002 4.002 0 0 1-1.464 5.464A4.002 4.002 0 0 1 12 20l-.036.062A4.002 4.002 0 0 1 6.5 21.526a4.002 4.002 0 0 1-1.429-5.524l-.001-.003L5 16c-2.208 0-4-1.792-4-4a4.002 4.002 0 0 1 4.07-4l.001-.002A4.002 4.002 0 0 1 6.5 2.474 4.002 4.002 0 0 1 12 4a4.002 4.002 0 0 1 5.5-1.526 4.002 4.002 0 0 1 1.429 5.524Zm-4.627-3.662a7.99 7.99 0 0 1 3.184 1.841 2.002 2.002 0 0 0-.986-1.971 2.003 2.003 0 0 0-2.198.13Zm-10.09 5.825A2.003 2.003 0 0 0 3 12c0 .824.5 1.532 1.212 1.838a8.023 8.023 0 0 1 0-3.676Zm2 3.428a1.998 1.998 0 0 0 0-3.179A6.007 6.007 0 0 0 6 12c0 .55.074 1.083.213 1.59Zm2.215.474a3.98 3.98 0 0 1 2.073.535 3.98 3.98 0 0 1 1.5 1.528 3.98 3.98 0 0 1 1.5-1.528 3.98 3.98 0 0 1 2.073-.535A3.98 3.98 0 0 1 15 12c0-.755.21-1.46.573-2.063a3.98 3.98 0 0 1-2.073-.535A3.979 3.979 0 0 1 12 7.874a3.979 3.979 0 0 1-1.5 1.528 3.98 3.98 0 0 1-2.073.535A3.98 3.98 0 0 1 9 12c0 .754-.21 1.46-.573 2.063ZM9.5 16.33a1.998 1.998 0 0 0-1.769-.114 5.993 5.993 0 0 0 2.752 1.59A1.998 1.998 0 0 0 9.5 16.33Zm.198 3.334a7.992 7.992 0 0 1-3.184-1.841c-.092.77.272 1.559.986 1.971a2.003 2.003 0 0 0 2.198-.13Zm4.604 0a2.003 2.003 0 0 0 2.198.13 2.003 2.003 0 0 0 .986-1.971 7.992 7.992 0 0 1-3.184 1.84Zm1.967-3.448a1.997 1.997 0 0 0-2.752 1.59 5.993 5.993 0 0 0 2.752-1.59ZM17 12c0 .648.309 1.224.787 1.59a6.009 6.009 0 0 0 0-3.18A1.998 1.998 0 0 0 17 12Zm3 0c0 .633-.073 1.248-.212 1.838A2.002 2.002 0 0 0 21 12c0-.824-.5-1.532-1.212-1.838.139.59.212 1.205.212 1.838Zm-3.731-4.216a5.994 5.994 0 0 0-2.752-1.59 1.998 1.998 0 0 0 2.752 1.59ZM6.514 6.177a7.991 7.991 0 0 1 3.184-1.84A2.002 2.002 0 0 0 7.5 4.205a2.002 2.002 0 0 0-.986 1.971Zm1.217 1.607a1.998 1.998 0 0 0 2.752-1.59 5.994 5.994 0 0 0-2.752 1.59Z"/></svg>