<svg xmlns="http://www.w3.org/2000/svg" fill="none" viewBox="0 0 32 32"><path fill="#0A0B0D" d="m21.217 10.044 1.505.81c.637.342 1.278 1.228 1.278 2.48C24 15.151 22.781 16 22 16a1.34 1.34 0 0 1-.111-.004l-.188-.014-.187.012a2.75 2.75 0 0 1-.18.006h-16a2.667 2.667 0 0 1-1.31-4.99l1.56-.884-.229-1.778A2.667 2.667 0 0 1 8.89 5.485l1.777.628 1.185-1.465a5.333 5.333 0 0 1 9.472 3.69l-.106 1.706ZM2.71 8.688a5.333 5.333 0 0 0 2.623 9.978h16c.119 0 .237-.003.355-.011.103.008.206.012.311.012 2.577 0 4.667-2.388 4.667-5.334 0-2.134-1.098-3.976-2.683-4.828A8 8 0 0 0 9.778 2.97 5.333 5.333 0 0 0 2.71 8.688Z"/></svg>