<svg xmlns="http://www.w3.org/2000/svg" fill="none" viewBox="0 0 16 16"><path fill="#0A0B0D" d="m10.745 0 1.25.75L4.745 14l-1.249-.75.974-1.783C2.648 10.76 1.063 9.316.075 7.331a.742.742 0 0 1 0-.65c1.43-2.859 4.09-4.63 6.92-4.63a6.91 6.91 0 0 1 2.385.44L10.745 0ZM5.51 5.518a2.106 2.106 0 0 1 1.484-.617c.327-.002.649.078.937.231l.718-1.309a5.42 5.42 0 0 0-1.658-.27c-2.148 0-4.177 1.31-5.387 3.45.861 1.536 2.144 2.639 3.587 3.142l.733-1.343a2.07 2.07 0 0 1-1.03-1.8 2.1 2.1 0 0 1 .616-1.484Zm6.365-1.528a8.798 8.798 0 0 1 2.05 2.69.742.742 0 0 1-.002.655c-1.35 2.668-3.76 4.395-6.4 4.608l.922-1.69c1.59-.43 3.02-1.59 3.95-3.25a7.5 7.5 0 0 0-1.257-1.653l.737-1.36Z"/></svg>