<svg xmlns="http://www.w3.org/2000/svg" fill="#1652F0" viewBox="0 0 24 24"><path d="M6.989 11.995c-2.813 0-5-2.105-5-4.947s2.291-5.053 5-5.053c2.708 0 5 2.105 5 4.947v.053c.028-2.817 2.308-5 5-5 2.708 0 5 2.105 5 4.947 0 2.843-2.292 5.053-5 5.053a5 5 0 0 1-5-5 5 5 0 0 1-5 5Zm3-5.053c0-1.675-1.333-2.947-3-2.947-1.611 0-3 1.323-3 3.053 0 1.702 1.256 2.947 3 2.947v-3h3v-.053Zm7 .053v3c1.61 0 3-1.322 3-3.053 0-1.675-1.333-2.947-3-2.947-1.595 0-2.972 1.296-3 3h3Zm-5 10c0 2.813-2.292 5-5 5-2.813 0-5-2.292-5-5s2.291-5 5-5a5 5 0 0 1 5 5Zm-2 0h-3v-3c-1.604 0-3 1.396-3 3a3.001 3.001 0 0 0 6 0Zm2 0c0 2.813 2.291 5 5 5 2.708 0 5-2.187 5-5 0-2.812-2.188-5-5-5a5 5 0 0 0-5 5Zm5-3c1.708 0 3 1.292 3 3a3.001 3.001 0 0 1-6 0h3v-3Z"/></svg>