<svg xmlns="http://www.w3.org/2000/svg" fill="none" viewBox="0 0 16 16"><path fill="#0A0B0D" d="M3.15 5a3.919 3.919 0 0 1 2.5-2.5A3.919 3.919 0 0 1 3.15 0 3.917 3.917 0 0 1 .646 2.5 3.917 3.917 0 0 1 3.149 5Zm.1 9a5.096 5.096 0 0 1 3.25-3.25A5.095 5.095 0 0 1 3.25 7.5 5.093 5.093 0 0 1 0 10.75 5.092 5.092 0 0 1 3.25 14ZM4 6.25C6.222 5.001 8 2.777 9 0c.999 2.777 2.777 5.001 5 6.25-2.222 1.25-4.001 3.473-5 6.25-1-2.776-2.778-5-5-6.25Zm3.327 0C7.946 6.841 8.506 7.49 9 8.19a13.256 13.256 0 0 1 1.672-1.94A13.297 13.297 0 0 1 9 4.311a13.344 13.344 0 0 1-1.673 1.94Z"/></svg>