<svg xmlns="http://www.w3.org/2000/svg" fill="#1652F0" viewBox="0 0 16 16"><path d="M10.69 6.9A1.12 1.12 0 1 1 9.1 5.3a1.12 1.12 0 1 1 1.59 1.6Z"/><path d="M14.99 1.01 14.98 1v.01a10.4 10.4 0 0 0-2.12.13 11.4 11.4 0 0 0-6 2.92l-.34.02h-.1l-.16.02h-.01l-.13.01A8.32 8.32 0 0 0 1 6.53L3.96 9.5l-.2.2a3.98 3.98 0 0 0-1.08 3.62 3.95 3.95 0 0 0 3.62-1.08l.2-.2L9.46 15a8.38 8.38 0 0 0 2.42-5.12l.01-.2.02-.2.02-.31.02-.02A11.42 11.42 0 0 0 15 1h-.01ZM8.08 5.33a9.7 9.7 0 0 1 5.05-2.45 9.79 9.79 0 0 1-2.45 5.06l-2.9 2.9-2.6-2.6 2.9-2.9Z"/></svg>