<svg xmlns="http://www.w3.org/2000/svg" fill="#1652F0" viewBox="0 0 16 16"><path d="m13.5 5.821-1.154-.407a.776.776 0 0 1-.543-.476c-.136-.271-.136-.543.067-.747l.544-1.086-.951-.95-1.086.543c-.272.135-.476.135-.747.067-.272-.135-.408-.34-.544-.543L8.611 1H7.253l-.407 1.154a.776.776 0 0 1-.476.544c-.203.067-.475.067-.679-.068l-1.086-.544-.95 1.019.543 1.086c.135.272.135.476.067.747-.135.204-.34.408-.61.476L2.5 5.82v1.426l1.154.407c.214.054.385.19.482.346H1v7h14V8h-3.121c.13-.189.298-.301.467-.414L13.5 7.18V5.821ZM11.879 8c-.027.04-.053.083-.076.13-.068.271-.068.475.067.747l.73.705-1.205 1.264-1.086-.543c-.204-.204-.476-.204-.747-.068a.776.776 0 0 0-.476.543l-.407 1.154H7.321l-.407-1.154c-.136-.204-.272-.408-.544-.543-.271-.068-.475-.068-.747.068l-1.086.543L3.344 9.57l.786-.693c.203-.204.203-.476.068-.747A.613.613 0 0 0 4.136 8h7.743ZM8 7.722A1.217 1.217 0 0 1 6.778 6.5c0-.679.543-1.222 1.222-1.222.679 0 1.222.543 1.222 1.222 0 .679-.543 1.222-1.222 1.222Z"/></svg>