<svg xmlns="http://www.w3.org/2000/svg" fill="#1652F0" viewBox="0 0 16 16"><path d="M11 8a4.937 4.937 0 0 1-3-3 4.937 4.937 0 0 1-3 3 4.937 4.937 0 0 1 3 3 4.937 4.937 0 0 1 3-3Z"/><path d="m11.909 13.52 1.616-1.61-.77-1.547a.475.475 0 0 1-.006-.4c.05-.124.251-.296.272-.277l1.646-.55V6.852l-1.634-.544a.473.473 0 0 1-.29-.278.476.476 0 0 1 .011-.388l.771-1.547-1.617-1.61-1.547.77a.48.48 0 0 1-.4.006.461.461 0 0 1-.266-.284l-.55-1.645H6.86l-.544 1.64a.473.473 0 0 1-.278.29.468.468 0 0 1-.394-.012l-1.548-.77L2.48 4.095l.77 1.547a.495.495 0 0 1 .03.359l-.03.064a.473.473 0 0 1-.278.249l-1.64.544V9.14l1.64.545a.49.49 0 0 1 .278.672l-.77 1.546 1.61 1.61 1.548-.77a.494.494 0 0 1 .405-.006.462.462 0 0 1 .267.284l.55 1.645h2.283l.545-1.64a.49.49 0 0 1 .672-.278l1.547.77Zm-.503-2.5.294.59-.087.087-.595-.296-.012-.006A1.99 1.99 0 0 0 9.4 11.35l-.01.003a1.972 1.972 0 0 0-1.126 1.207l-.202.607h-.12l-.206-.614a1.961 1.961 0 0 0-1.12-1.202 1.994 1.994 0 0 0-1.622.038l-.012.006-.593.295-.084-.084.295-.591.006-.013a1.99 1.99 0 0 0 .045-1.607l-.003-.009A1.973 1.973 0 0 0 3.44 8.26l-.607-.201v-.117l.613-.204h.001c.507-.17.941-.546 1.17-1.053l.05-.109.018-.047a1.99 1.99 0 0 0-.08-1.531L4.6 4.986l-.295-.592.09-.09.572.285a1.969 1.969 0 0 0 1.64.062l.008-.004A1.97 1.97 0 0 0 7.742 3.44l.202-.607h.12l.206.615c.184.561.606.99 1.12 1.2a1.98 1.98 0 0 0 1.616-.037l.012-.006.595-.296.087.086-.288.579a1.976 1.976 0 0 0-.057 1.625l.003.009c.208.5.624.936 1.207 1.126l.602.2v.121l-.53.178a1.528 1.528 0 0 0-.508.233c-.108.074-.2.154-.267.218a1.98 1.98 0 0 0-.462 2.324l.006.012Z"/></svg>