<svg xmlns="http://www.w3.org/2000/svg" fill="none" viewBox="0 0 16 16"><path fill="#1652F0" d="M5.3 3.5a1.8 1.8 0 1 1-3.6 0 1.8 1.8 0 0 1 3.6 0Zm4.5 0a1.8 1.8 0 1 1-3.6 0 1.8 1.8 0 0 1 3.6 0Zm2.7 1.8a1.8 1.8 0 1 0 0-3.6 1.8 1.8 0 0 0 0 3.6ZM5.3 8a1.8 1.8 0 1 1-3.6 0 1.8 1.8 0 0 1 3.6 0Zm4.5 0a1.8 1.8 0 1 1-3.6 0 1.8 1.8 0 0 1 3.6 0Zm2.7 1.8a1.8 1.8 0 1 0 0-3.6 1.8 1.8 0 0 0 0 3.6Zm-9 4.5a1.8 1.8 0 1 0 0-3.6 1.8 1.8 0 0 0 0 3.6Zm4.5 0a1.8 1.8 0 1 0 0-3.6 1.8 1.8 0 0 0 0 3.6Zm6.3-1.8a1.8 1.8 0 1 1-3.6 0 1.8 1.8 0 0 1 3.6 0Z"/></svg>