<svg xmlns="http://www.w3.org/2000/svg" fill="#1652F0" viewBox="0 0 16 16"><path d="M10.1 8c0 1.183-.94 2.143-2.1 2.143-1.16 0-2.1-.96-2.1-2.143 0-1.184.94-2.143 2.1-2.143 1.16 0 2.1.96 2.1 2.143Z"/><path d="M1.077 8.324C2.509 11.21 5.164 13 8 13c2.836 0 5.486-1.795 6.923-4.676a.72.72 0 0 0 0-.648C13.491 4.79 10.836 3 8 3 5.164 3 2.51 4.79 1.077 7.676a.72.72 0 0 0 0 .648ZM8 11.57c-2.24 0-4.273-1.328-5.505-3.571C3.727 5.757 5.765 4.429 8 4.429S12.269 5.757 13.505 8c-1.232 2.243-3.266 3.571-5.505 3.571Z"/></svg>