<svg xmlns="http://www.w3.org/2000/svg" fill="#1652F0" viewBox="0 0 24 24"><path d="M14.485 13.495a2.563 2.563 0 0 1-2.5-2h5a2.563 2.563 0 0 1-2.5 2Zm3.504-5.25c0 .967-.56 1.75-1.25 1.75s-1.25-.783-1.25-1.75c0-.966.56-1.75 1.25-1.75s1.25.784 1.25 1.75Zm-5.75 1.75c.69 0 1.25-.783 1.25-1.75 0-.966-.56-1.75-1.25-1.75s-1.25.784-1.25 1.75c0 .967.56 1.75 1.25 1.75Z"/><path d="M6.989 9.495a7.5 7.5 0 1 1 15 0 7.5 7.5 0 0 1-15 0Zm7.5 5.5a5.5 5.5 0 1 0 0-11 5.5 5.5 0 0 0 0 11Zm-8.5-4a2 2 0 1 1-4 0 2 2 0 0 1 4 0Zm3.5 7.25a3.75 3.75 0 1 1-7.5 0 3.75 3.75 0 0 1 7.5 0Zm-2 0a1.75 1.75 0 1 0-3.5 0 1.75 1.75 0 0 0 3.5 0Z"/></svg>