<svg xmlns="http://www.w3.org/2000/svg" fill="#1652F0" viewBox="0 0 16 16"><path d="M4.15 6a3.919 3.919 0 0 1 2.5-2.5A3.919 3.919 0 0 1 4.15 1a3.917 3.917 0 0 1-2.503 2.5A3.917 3.917 0 0 1 4.149 6Zm.1 9a5.096 5.096 0 0 1 3.25-3.25A5.095 5.095 0 0 1 4.25 8.5 5.093 5.093 0 0 1 1 11.75 5.092 5.092 0 0 1 4.25 15ZM5 7.25C7.222 6.001 9 3.777 10 1c.999 2.777 2.777 5.001 5 6.25-2.222 1.25-4.001 3.473-5 6.25-1-2.776-2.778-5-5-6.25Zm3.327 0c.619.591 1.179 1.24 1.673 1.94a13.251 13.251 0 0 1 1.672-1.94A13.293 13.293 0 0 1 10 5.311a13.346 13.346 0 0 1-1.673 1.94Z"/></svg>