<svg xmlns="http://www.w3.org/2000/svg" fill="#1652F0" viewBox="0 0 13 13"><path d="M5.844 0h1.3v2.165h-1.3V0Zm.65 9.74a3.247 3.247 0 1 0 0-6.493 3.247 3.247 0 0 0 0 6.494Zm0-1.298a1.948 1.948 0 1 1 0-3.896 1.948 1.948 0 0 1 0 3.896ZM2.361 1.443l-.918.918 1.53 1.53.919-.917-1.53-1.531ZM0 7.143V5.845h2.165v1.298H0Zm1.443 3.484.918.918 1.53-1.53-.918-.919-1.53 1.53Zm4.401.196h1.3v2.165h-1.3v-2.165Zm4.17-1.727-.918.918 1.53 1.531.919-.918-1.53-1.53Zm.809-1.953V5.845h2.165v1.298h-2.165Zm-1.727-4.17.918.919 1.531-1.53-.918-.92-1.531 1.531Z"/></svg>