<svg xmlns="http://www.w3.org/2000/svg" fill="#1652F0" viewBox="0 0 12 12"><path d="M10.623 5.845c.098 2.53-1.985 4.701-4.52 4.701a4.522 4.522 0 0 1-3.986-2.384C1.24 8.033.653 7.724.526 7.25c-.137-.51.282-1.12 1.08-1.707A4.524 4.524 0 0 1 9.78 3.388c.932.12 1.562.434 1.695.927.122.459-.204.999-.852 1.53Zm-1.847 1.1c.08-.228.13-.469.147-.72-.896.449-1.942.794-2.927 1.056a27.49 27.49 0 0 1-2.129.473 2.828 2.828 0 0 0 4.909-.808ZM3.57 4.768c-.204.41-.31.884-.292 1.368a26.08 26.08 0 0 0 2.282-.493c1.12-.298 2.175-.674 2.943-1.114a2.84 2.84 0 0 0-1.022-.974 2.827 2.827 0 0 0-3.91 1.213Z"/></svg>