<svg xmlns="http://www.w3.org/2000/svg" fill="#1652F0" viewBox="0 0 24 24"><path d="M11 2h2v3.07a6.965 6.965 0 0 1 3.192 1.324l2.172-2.172 1.414 1.414-2.172 2.172A6.964 6.964 0 0 1 18.93 11H22v2h-3.07a6.964 6.964 0 0 1-1.324 3.192l2.172 2.172-1.414 1.414-2.172-2.172A6.963 6.963 0 0 1 13 18.93V22h-2v-3.07a6.964 6.964 0 0 1-3.192-1.324l-2.172 2.172-1.414-1.414 2.172-2.172A6.964 6.964 0 0 1 5.07 13H2v-2h3.07a6.964 6.964 0 0 1 1.324-3.192L4.222 5.636l1.414-1.414 2.172 2.172A6.964 6.964 0 0 1 11 5.07V2Zm1 15a5 5 0 1 0 0-10 5 5 0 0 0 0 10Z"/></svg>