<svg xmlns="http://www.w3.org/2000/svg" fill="#1652F0" viewBox="0 0 12 12"><path d="M6 2.073a1.934 1.934 0 0 0-3.328 1.921 1.934 1.934 0 0 0 0 3.842A1.934 1.934 0 0 0 6 9.758a1.934 1.934 0 0 0 3.328-1.921 1.934 1.934 0 0 0 0-3.843A1.934 1.934 0 0 0 6 2.073Zm3.025 4.57a3.12 3.12 0 0 0 0-1.456.734.734 0 1 1 0 1.457ZM6.882 8.9a3.108 3.108 0 0 0 1.26-.728.736.736 0 0 1-.22 1.073.734.734 0 0 1-1.04-.345Zm-3.025-.73c.352.335.783.588 1.261.73a.736.736 0 0 1-1.04.344.734.734 0 0 1-.22-1.074Zm-.882-2.983a3.12 3.12 0 0 0 0 1.457.734.734 0 1 1 0-1.457Zm.882-1.527a.734.734 0 1 1 1.26-.729 3.108 3.108 0 0 0-1.26.73Zm3.025-.729a.734.734 0 1 1 1.26.729 3.107 3.107 0 0 0-1.26-.729Zm-.293 4.004A1.925 1.925 0 0 0 6 7.461a1.925 1.925 0 0 0-1.338-.773 1.925 1.925 0 0 0 0-1.545A1.925 1.925 0 0 0 6 4.37a1.925 1.925 0 0 0 1.338.773 1.925 1.925 0 0 0 0 1.545c-.256.029-.511.11-.75.247Z"/></svg>