<svg xmlns="http://www.w3.org/2000/svg" fill="none" viewBox="0 0 32 32"><path fill="#0A0B0D" d="M9.333 6.667a2.667 2.667 0 1 1-5.333 0 2.667 2.667 0 0 1 5.333 0Zm0 9.333A2.667 2.667 0 1 1 4 16a2.667 2.667 0 0 1 5.333 0Zm0 9.333a2.667 2.667 0 1 1-5.333 0 2.667 2.667 0 0 1 5.333 0Zm9.334-18.666a2.667 2.667 0 1 1-5.334 0 2.667 2.667 0 0 1 5.334 0Zm0 9.333a2.667 2.667 0 1 1-5.334 0 2.667 2.667 0 0 1 5.334 0Zm0 9.333a2.667 2.667 0 1 1-5.334 0 2.667 2.667 0 0 1 5.334 0ZM28 6.667a2.667 2.667 0 1 1-5.333 0 2.667 2.667 0 0 1 5.333 0ZM28 16a2.667 2.667 0 1 1-5.333 0A2.667 2.667 0 0 1 28 16Zm0 9.333a2.667 2.667 0 1 1-5.333 0 2.667 2.667 0 0 1 5.333 0Z"/></svg>