<svg xmlns="http://www.w3.org/2000/svg" fill="none" viewBox="0 0 12 12"><path fill="#0A0B0D" d="m2.653 2.447.5 1.198c.363-.004.732.072 1.082.237.494.232.876.604 1.122 1.047l.779-.28a1.495 1.495 0 0 1 2.108-1.086A1.496 1.496 0 1 1 6.646 6.06l-.99.356a2.493 2.493 0 0 1-3.538 1.976 2.493 2.493 0 0 1-.395-4.282l-.477-1.14A1.5 1.5 0 0 1 .142.86a1.496 1.496 0 0 1 1.99-.718 1.496 1.496 0 0 1 .52 2.305Zm.102 4.587c.5.235 1.09.02 1.322-.474a.993.993 0 0 0-.48-1.32.993.993 0 0 0-1.321.474.993.993 0 0 0 .48 1.32Z"/></svg>