<svg xmlns="http://www.w3.org/2000/svg" fill="none" viewBox="0 0 24 24"><path fill="#0A0B0D" d="M4.5 7A5.485 5.485 0 0 1 8 3.5 5.488 5.488 0 0 1 4.5 0 5.485 5.485 0 0 1 1 3.5 5.483 5.483 0 0 1 4.5 7Zm0 13A7.053 7.053 0 0 1 9 15.5 7.056 7.056 0 0 1 4.5 11 7.053 7.053 0 0 1 0 15.5 7.048 7.048 0 0 1 4.5 20ZM6 9.003C9.111 7.2 11.602 3.999 13 0c1.399 4 3.89 7.201 7 9.003-3.11 1.8-5.601 5.003-7 9.002-1.4-4.002-3.889-7.204-7-9.002ZM9.416 9A18.175 18.175 0 0 1 13 13.309a18.176 18.176 0 0 1 3.584-4.31A18.145 18.145 0 0 1 13 4.692 18.147 18.147 0 0 1 9.416 9Z"/></svg>