<svg xmlns="http://www.w3.org/2000/svg" fill="none" viewBox="0 0 32 32"><path fill="#0A0B0D" d="M25.032 5.821c.406.358.789.741 1.147 1.147L24.977 8.17A9.97 9.97 0 0 1 28 15.333a9.96 9.96 0 0 1-2.391 6.49l.844.843H28v6.667H4v-6.666h2.337A12.609 12.609 0 0 1 4 15.332C4 8.338 9.671 2.667 16.667 2.667a12.61 12.61 0 0 1 8.365 3.154ZM9.868 22.667H22.68l-4.04-4.041a4.667 4.667 0 1 1-.716-7.174l4.379-4.38a9.947 9.947 0 0 0-5.637-1.739c-5.523 0-10 4.477-10 10a9.967 9.967 0 0 0 3.2 7.333Zm6.079-9.238a2 2 0 1 0-1.227 3.808 2 2 0 0 0 1.227-3.808Zm-9.28 11.904v1.334h18.666v-1.334H6.667Z"/></svg>