<svg xmlns="http://www.w3.org/2000/svg" fill="none" viewBox="0 0 32 32"><path fill="#0A0B0D" d="m20.466 0 2.532 1.333-.003.006h.002L9.003 26.664l-1.4-.714-1.105-.559 1.966-3.584C5.028 20.446 2.04 17.687.15 13.942a1.305 1.305 0 0 1 0-1.213c2.732-5.452 7.783-8.837 13.182-8.837 1.55.01 3.084.294 4.534.84L20.466 0ZM9.616 14.792c.32.81.895 1.495 1.64 1.949l3.838-6.971a3.91 3.91 0 0 0-1.76-.44 3.997 3.997 0 0 0-3.718 5.462Zm16.901-2.063a17.481 17.481 0 0 0-3.785-5.038l-1.333 2.412c.96.954 1.776 2.04 2.426 3.226-1.813 3.265-4.612 5.557-7.747 6.41l-1.654 2.986c4.985-.426 9.543-3.719 12.094-8.787a1.299 1.299 0 0 0-.001-1.21Z"/></svg>