<svg xmlns="http://www.w3.org/2000/svg" fill="none" viewBox="0 0 16 16"><path fill="#0A0B0D" d="M14 7A7 7 0 1 1 0 7a7 7 0 0 1 14 0Zm-6.759 4.994A11.962 11.962 0 0 0 8.291 8H5.709c.115 1.368.465 2.72 1.05 3.994a5.078 5.078 0 0 0 .482 0Zm2.439-.772A5.005 5.005 0 0 0 11.9 8h-1.603a13.964 13.964 0 0 1-.617 3.222ZM10.297 6H11.9a5.005 5.005 0 0 0-2.22-3.222c.333 1.051.539 2.133.617 3.222ZM7.24 2.006a5.078 5.078 0 0 0-.482 0A11.962 11.962 0 0 0 5.709 6h2.582a11.962 11.962 0 0 0-1.05-3.994ZM3.703 8H2.1a5.005 5.005 0 0 0 2.22 3.222A13.967 13.967 0 0 1 3.703 8Zm0-2c.078-1.089.284-2.17.617-3.222A5.005 5.005 0 0 0 2.1 6h1.603Z"/></svg>