<svg xmlns="http://www.w3.org/2000/svg" fill="none" viewBox="0 0 24 24"><path fill="#0A0B0D" d="M4.24 5.733a3 3 0 1 1 1.443-1.39l1.38 1.61C7.887 5.353 8.903 5 10 5c1.275 0 2.44.477 3.322 1.263l.97-.97a3 3 0 1 1 1.414 1.414l-1.175 1.176c.3.643.469 1.36.469 2.117 0 1.044-.32 2.013-.867 2.815l1.04 1.3A3.004 3.004 0 0 1 19 17a3 3 0 1 1-5.457-1.721l-.852-1.064c-.777.497-1.7.785-2.691.785a4.982 4.982 0 0 1-3.438-1.37l-.677.543A3.002 3.002 0 0 1 3 18a3 3 0 1 1 1.721-5.457l.69-.553A4.983 4.983 0 0 1 5 10c0-.935.257-1.81.704-2.56L4.24 5.734ZM13 10a3 3 0 1 0-6 0 3 3 0 0 0 6 0Z"/></svg>