<svg xmlns="http://www.w3.org/2000/svg" fill="none" viewBox="0 0 12 12"><path fill="#0A0B0D" d="M6.5 2.5a3 3 0 0 1 3 3v1a3 3 0 0 1-3 3h-1a3 3 0 0 1-3-3v-1a3 3 0 0 1 3-3h1ZM5.5 1A4.5 4.5 0 0 0 1 5.5v1A4.5 4.5 0 0 0 5.5 11h1A4.5 4.5 0 0 0 11 6.5v-1A4.5 4.5 0 0 0 6.5 1h-1Z"/><path fill="#0A0B0D" d="M5 5.1c0 .608-.336 1.1-.75 1.1s-.75-.492-.75-1.1c0-.608.336-1.1.75-1.1S5 4.492 5 5.1Zm3.5 0c0 .608-.336 1.1-.75 1.1S7 5.708 7 5.1c0-.608.336-1.1.75-1.1s.75.492.75 1.1ZM4.153 6.958a1.98 1.98 0 0 0 3.86 0h-3.86Z"/></svg>