<svg xmlns="http://www.w3.org/2000/svg" fill="none" viewBox="0 0 24 24"><path fill="#1652F0" d="M6.5 9A5.485 5.485 0 0 1 10 5.5 5.488 5.488 0 0 1 6.5 2 5.485 5.485 0 0 1 3 5.5 5.483 5.483 0 0 1 6.5 9Zm0 13a7.053 7.053 0 0 1 4.5-4.5A7.055 7.055 0 0 1 6.5 13 7.053 7.053 0 0 1 2 17.5 7.048 7.048 0 0 1 6.5 22ZM8 11.003C11.111 9.2 13.602 5.999 15 2c1.399 4 3.89 7.201 7 9.003-3.11 1.8-5.601 5.003-7 9.002-1.4-4.002-3.889-7.204-7-9.002ZM11.416 11A18.174 18.174 0 0 1 15 15.309a18.175 18.175 0 0 1 3.584-4.31A18.146 18.146 0 0 1 15 6.692 18.148 18.148 0 0 1 11.416 11Z"/></svg>