<svg xmlns="http://www.w3.org/2000/svg" fill="#1652F0" viewBox="0 0 12 12"><path d="M9.217 4.143A1.859 1.859 0 0 0 6 2.284a1.859 1.859 0 0 0-3.217 1.857 1.859 1.859 0 0 0 0 3.715A1.859 1.859 0 0 0 6 9.715a1.859 1.859 0 0 0 3.217-1.858 1.859 1.859 0 0 0 0-3.715Zm-.775-.88a3.665 3.665 0 0 0-1.291-.748.859.859 0 0 1 1.291.747ZM6 7.772a1.849 1.849 0 0 0-.655-.638c-.278-.16-.58-.24-.88-.248a1.856 1.856 0 0 0-.001-1.774A1.849 1.849 0 0 0 6 4.226a1.849 1.849 0 0 0 1.536.887A1.849 1.849 0 0 0 7.31 6c0 .321.081.623.225.887A1.849 1.849 0 0 0 6 7.774Zm-1.846.154a.856.856 0 0 1 1.1.636 2.666 2.666 0 0 1-1.1-.636Zm-.596.81c.37.332.808.588 1.291.748a.859.859 0 0 1-1.291-.747Zm4.456.75a.859.859 0 0 1-.863-.002c.483-.16.92-.416 1.291-.747a.859.859 0 0 1-.428.75Zm-1.268-.924a.856.856 0 0 1 1.1-.636 2.666 2.666 0 0 1-1.1.636Zm1.847-1.927a.856.856 0 0 1 0-1.272 2.675 2.675 0 0 1 0 1.272Zm1 .11a3.685 3.685 0 0 0 0-1.492.859.859 0 0 1 0 1.492Zm-2.847-3.31c.418.122.794.343 1.1.637a.856.856 0 0 1-1.1-.636Zm-3.188-.174a.859.859 0 0 1 1.291-.747c-.483.16-.92.416-1.291.747ZM1.973 6c0-.32.175-.598.434-.746a3.685 3.685 0 0 0 0 1.492A.859.859 0 0 1 1.973 6Zm1.358 0c0-.219.026-.432.076-.636a.856.856 0 0 1 0 1.272A2.675 2.675 0 0 1 3.331 6Zm1.923-2.563a.856.856 0 0 1-1.1.636 2.666 2.666 0 0 1 1.1-.636Z"/></svg>