<svg xmlns="http://www.w3.org/2000/svg" fill="none" viewBox="0 0 24 24"><path fill="#0A0B0D" d="M5.79 21.61c1.37 0 2.31-.46 3.22-1.14.89.56 1.72 1.14 3.41 1.14 1.69 0 2.53-.59 3.42-1.15.91.68 1.82 1.15 3.19 1.15 1.37 0 2.6-.74 2.5-1.67-.19-1.77-1.32-12.54-2.5-15-1.33-2.77-3.97-3.33-6.67-3.33-2.7 0-5.34.56-6.67 3.33-1.28 2.68-2.5 15-2.5 15-.09.81 1.19 1.67 2.6 1.67Zm8.57-14.75c.69 0 1.25.75 1.25 1.67 0 .92-.56 1.67-1.25 1.67s-1.25-.75-1.25-1.67c0-.92.56-1.67 1.25-1.67Zm.25 4.75c0 1.24-1.01 2.25-2.25 2.25s-2.25-1.01-2.25-2.25h4.5Zm-4.25-4.75c.69 0 1.25.75 1.25 1.67 0 .92-.56 1.67-1.25 1.67s-1.25-.75-1.25-1.67c0-.92.56-1.67 1.25-1.67Z"/></svg>