<svg xmlns="http://www.w3.org/2000/svg" fill="none" viewBox="0 0 12 12"><path fill="#0A0B0D" d="M4.5 0A4.5 4.5 0 0 0 0 4.5v1A4.5 4.5 0 0 0 4.5 10h1A4.5 4.5 0 0 0 10 5.5v-1A4.5 4.5 0 0 0 5.5 0h-1ZM3.075 4.944c-.456 0-.825-.547-.825-1.222 0-.675.37-1.222.825-1.222.456 0 .825.547.825 1.222 0 .675-.37 1.222-.825 1.222ZM7.75 3.722c0 .675-.37 1.222-.825 1.222-.456 0-.825-.547-.825-1.222 0-.675.37-1.222.825-1.222.456 0 .825.547.825 1.222ZM5.091 7.5a2.177 2.177 0 0 1-2.127-1.713h4.254A2.177 2.177 0 0 1 5.091 7.5Z"/></svg>