<svg xmlns="http://www.w3.org/2000/svg" fill="#1652F0" viewBox="0 0 16 16"><path d="M4.489 7.995c-1.969 0-3.5-1.474-3.5-3.463 0-1.99 1.604-3.537 3.5-3.537s3.5 1.474 3.5 3.463v.074c0 1.99-1.604 3.463-3.5 3.463Zm1.9-3.537c0-1.056-.837-1.863-1.9-1.863a1.92 1.92 0 0 0-1.9 1.937c0 1.077.786 1.863 1.9 1.863v-1.9h1.9v-.037Z"/><path d="M7.989 11.458c0-1.99-1.604-3.463-3.5-3.463s-3.5 1.604-3.5 3.5a3.5 3.5 0 0 0 7 0 3.5 3.5 0 0 0 7 0c0-1.969-1.532-3.5-3.5-3.5 1.896 0 3.5-1.547 3.5-3.537S13.385.995 11.489.995c-1.884 0-3.48 1.528-3.5 3.5v.037c0 1.99 1.604 3.463 3.5 3.463-1.896 0-3.5 1.474-3.5 3.463Zm-1.6.037a1.9 1.9 0 0 1-3.8 0c0-1.012.888-1.9 1.9-1.9v1.9h1.9Zm3.2 0h1.9v-1.9c1.085 0 1.9.815 1.9 1.9a1.9 1.9 0 0 1-3.8 0Zm1.9-7h-1.9c.02-1.082.893-1.9 1.9-1.9 1.063 0 1.9.807 1.9 1.863a1.92 1.92 0 0 1-1.9 1.937v-1.9Z"/></svg>