<svg xmlns="http://www.w3.org/2000/svg" fill="none" viewBox="0 0 32 32"><path fill="#0A0B0D" d="M3.333 6.667a3.333 3.333 0 1 0 0-6.667 3.333 3.333 0 0 0 0 6.667Zm0 9.333a3.333 3.333 0 1 0 0-6.667 3.333 3.333 0 0 0 0 6.667Zm0 9.333a3.333 3.333 0 1 0 0-6.666 3.333 3.333 0 0 0 0 6.666ZM12.667 16a3.333 3.333 0 1 0 0-6.667 3.333 3.333 0 0 0 0 6.667Zm0-9.333a3.333 3.333 0 1 0 0-6.667 3.333 3.333 0 0 0 0 6.667ZM22 16a3.333 3.333 0 1 0 0-6.667A3.333 3.333 0 0 0 22 16Zm-9.333 9.333a3.333 3.333 0 1 0 0-6.666 3.333 3.333 0 0 0 0 6.666ZM22 6.667A3.333 3.333 0 1 0 22 0a3.333 3.333 0 0 0 0 6.667Zm0 18.666a3.333 3.333 0 1 0 0-6.667 3.333 3.333 0 0 0 0 6.667Z"/></svg>