<svg xmlns="http://www.w3.org/2000/svg" fill="none" viewBox="0 0 96 96"><g clip-path="url(#a)"><path fill="#CED2DB" d="M0 88h96v8H0v-8Z"/><path fill="#0052FF" d="M16 88h64v8H16v-8Z"/><path fill="#CED2DB" d="M0 88h96v8H0v-8ZM0 0h96v8H0V0Z"/><path fill="#0052FF" d="M0 88h56v8H0v-8ZM0 0h56v8H0V0Z"/><path fill="#5DE2F8" d="M0 8h56v80H0V8Z"/><path fill="#FFFFFF" d="M16 24a4 4 0 1 1-8 0 4 4 0 0 1 8 0Zm0 16a4 4 0 1 1-8 0 4 4 0 0 1 8 0Zm0 16a4 4 0 1 1-8 0 4 4 0 0 1 8 0Zm16-32a4 4 0 1 1-8 0 4 4 0 0 1 8 0Zm0 16a4 4 0 1 1-8 0 4 4 0 0 1 8 0Zm0 16a4 4 0 1 1-8 0 4 4 0 0 1 8 0Zm0 16a4 4 0 1 1-8 0 4 4 0 0 1 8 0Zm16-48a4 4 0 1 1-8 0 4 4 0 0 1 8 0Zm0 16a4 4 0 1 1-8 0 4 4 0 0 1 8 0Zm0 16a4 4 0 1 1-8 0 4 4 0 0 1 8 0Z"/><path fill="#00D17F" d="M96 48a20 20 0 1 1-40 0 20 20 0 0 1 40 0Z"/><path fill="#0A0B0D" fill-rule="evenodd" d="M75 58V38h2v20h-2Z" clip-rule="evenodd"/><path fill="#0A0B0D" fill-rule="evenodd" d="M66 47h20v2H66v-2Z" clip-rule="evenodd"/></g><defs><clipPath id="a"><path fill="#FFFFFF" d="M0 0h96v96H0z"/></clipPath></defs></svg>