<svg xmlns="http://www.w3.org/2000/svg" fill="none" viewBox="0 0 96 96"><path fill="#101114" d="M60.8 14.4c7.92 0 14.4 6.48 14.4 14.4v14.4H46.4V28.8c0-7.92 6.48-14.4 14.4-14.4Zm0-1.6c-8.8 0-16 7.2-16 16v16h32v-16c0-8.8-7.2-16-16-16Z"/><path fill="#0052FF" d="M83.2 38.4H38.4v38.4h44.8V38.4Z"/><path fill="#CED2DB" d="M83.2 76.8H38.4v6.4h44.8v-6.4Z"/><path fill="#00D17F" d="M25.84 76.8c10.472 0 18.96-8.489 18.96-18.96s-8.488-18.96-18.96-18.96c-10.47 0-18.96 8.489-18.96 18.96S15.37 76.8 25.84 76.8Z"/><path fill="#0A0B0D" d="M38.4 43.6v28.48c3.92-3.44 6.4-8.56 6.4-14.24s-2.48-10.8-6.4-14.24Zm22.402 14a3.2 3.2 0 1 0 0-6.4 3.2 3.2 0 0 0 0 6.4Z"/><path fill="#0A0B0D" fill-rule="evenodd" d="M60.08 64V53.6h1.6V64h-1.6ZM24.8 64V51.2h1.6V64h-1.6Z" clip-rule="evenodd"/><path fill="#0A0B0D" fill-rule="evenodd" d="M19.201 56.8h12.8v1.6h-12.8v-1.6Z" clip-rule="evenodd"/></svg>