<svg xmlns="http://www.w3.org/2000/svg" fill="none" viewBox="0 0 96 96"><g clip-path="url(#a)"><path fill="#CED2DB" d="M0 88h96v8H0v-8Z"/><path fill="#0052FF" d="M16 88h64v8H16v-8Z"/><path fill="#CED2DB" d="M0 88h96v8H0v-8ZM0 0h96v8H0V0Z"/><path fill="#0052FF" d="M16 88h64v8H16v-8Zm0-88h64v8H16V0Z"/><path fill="#5DE2F8" d="M16 8h64v80H16V8Z"/><path fill="#00D17F" d="M48 64a16 16 0 1 0 0-32 16 16 0 0 0 0 32Z"/><path fill="#FFFFFF" fill-rule="evenodd" d="M68 48a20 20 0 1 1-40 0 20 20 0 0 1 40 0Zm-4 0a16 16 0 1 1-32 0 16 16 0 0 1 32 0Z" clip-rule="evenodd"/><path fill="#0A0B0D" fill-rule="evenodd" d="m55.02 44.65-9.15 8.78L41 49.16l1.32-1.5 3.48 3.06 7.82-7.52 1.39 1.45Z" clip-rule="evenodd"/></g><defs><clipPath id="a"><path fill="#FFFFFF" d="M0 0h96v96H0z"/></clipPath></defs></svg>