<svg xmlns="http://www.w3.org/2000/svg" fill="none" viewBox="0 0 96 96"><path fill="#CED2DB" d="M24 36.333h48.667v24.334H24V36.333Z"/><path fill="#0052FF" d="M72.667 60.667C72.667 74.106 61.772 85 48.333 85S24 74.106 24 60.667c0-13.44 10.894-24.334 24.333-24.334 13.44 0 24.334 10.895 24.334 24.334Z"/><path fill="#FFD200" d="M72.667 36.333c0 13.44-10.895 24.334-24.334 24.334S24 49.772 24 36.333 34.894 12 48.333 12c13.44 0 24.334 10.894 24.334 24.333Z"/><path fill="#050607" d="M27.256 72.833c4.207-7.273 12.071-12.166 21.078-12.166s16.87 4.893 21.078 12.166C65.204 80.106 57.34 85 48.334 85s-16.87-4.894-21.078-12.167Z"/><path fill="#FFD200" d="M72 36c0 13.255-10.745 24-24 24S24 49.255 24 36s10.745-24 24-24 24 10.745 24 24Z"/><path fill="#0A0B0D" fill-rule="evenodd" d="M48 22.429c-7.495 0-13.571 5.691-13.571 13.186H33C33 27.331 39.716 21 48 21c8.284 0 15 6.716 15 15 0 8.284-6.716 15-15 15a14.954 14.954 0 0 1-10.5-4.288l1-1.02c2.449 2.4 5.8 3.88 9.5 3.88 7.495 0 13.571-6.077 13.571-13.572 0-7.495-6.076-13.571-13.571-13.571Z" clip-rule="evenodd"/><path fill="#0A0B0D" fill-rule="evenodd" d="M36 44.858 41.529 44l.212 1.368-4.16.646.645 4.16-1.368.213-.858-5.53ZM47 43V29h2v14h-2Z" clip-rule="evenodd"/><path fill="#0A0B0D" fill-rule="evenodd" d="M41 35h14v2H41v-2Z" clip-rule="evenodd"/><path fill="#0A0B0D" d="M37 45h1l.5 1.5-1.5.5v-2Z"/></svg>