<svg xmlns="http://www.w3.org/2000/svg" fill="none" viewBox="0 0 96 96"><path fill="#CED2DB" d="M60.32 25.6H35.04v44.8h25.28V25.6Z"/><path fill="#FFD200" d="M60.798 70.4c12.372 0 22.4-10.029 22.4-22.4 0-12.371-10.028-22.4-22.4-22.4-12.37 0-22.4 10.029-22.4 22.4 0 12.371 10.03 22.4 22.4 22.4Z"/><path fill="#5DE2F8" d="M35.199 70.4c12.371 0 22.4-10.029 22.4-22.4 0-12.371-10.029-22.4-22.4-22.4-12.371 0-22.4 10.029-22.4 22.4 0 12.371 10.029 22.4 22.4 22.4Z"/><path fill="#0052FF" d="M47.998 29.6c5.84 4.08 9.6 10.8 9.6 18.4 0 7.6-3.76 14.32-9.6 18.4-5.84-4.08-9.6-10.8-9.6-18.4 0-7.6 3.76-14.32 9.6-18.4Z"/><path fill="#0A0B0D" fill-rule="evenodd" d="M67.358 48.4h-47.36v-1.6h47.36v1.6Z" clip-rule="evenodd"/><path fill="#0A0B0D" fill-rule="evenodd" d="m67.099 47.6-4.14-4.07 1.122-1.14 5.3 5.21-5.3 5.21-1.122-1.14 4.14-4.07Z" clip-rule="evenodd"/><path fill="#0A0B0D" fill-rule="evenodd" d="M60.798 32.8c-8.395 0-15.2 6.806-15.2 15.2 0 8.395 6.805 15.2 15.2 15.2s15.2-6.805 15.2-15.2-6.805-15.2-15.2-15.2ZM43.998 48c0-9.278 7.522-16.8 16.8-16.8s16.8 7.522 16.8 16.8c0 9.279-7.522 16.8-16.8 16.8s-16.8-7.521-16.8-16.8Z" clip-rule="evenodd"/></svg>