<svg xmlns="http://www.w3.org/2000/svg" fill="none" viewBox="0 0 96 96"><path fill="#CED2DB" d="M64 16H32v64h32z"/><path fill="#FFD200" d="M64 80c17.673 0 32-14.327 32-32S81.673 16 64 16 32 30.327 32 48s14.327 32 32 32"/><path fill="#5DE2F8" d="M32 80c17.673 0 32-14.327 32-32S49.673 16 32 16 0 30.327 0 48s14.327 32 32 32"/><path fill="#0052FF" d="M48 20.281c-9.565 5.533-16 15.875-16 27.72s6.435 22.185 16 27.718C57.565 70.186 64 59.845 64 48c0-11.844-6.435-22.186-16-27.719"/><path fill="#0A0B0D" fill-rule="evenodd" d="M79 49H8v-2h71z" clip-rule="evenodd"/><path fill="#0A0B0D" fill-rule="evenodd" d="M76.802 48 71 42.533 72.572 41 80 48l-7.428 7L71 53.467z" clip-rule="evenodd"/><path fill="#0A0B0D" fill-rule="evenodd" d="M64 26.286c-11.992 0-21.714 9.721-21.714 21.714S52.007 69.714 64 69.714 85.714 59.993 85.714 48 75.993 26.286 64 26.286M40 48c0-13.255 10.745-24 24-24s24 10.745 24 24-10.745 24-24 24-24-10.745-24-24" clip-rule="evenodd"/></svg>