<svg xmlns="http://www.w3.org/2000/svg" fill="none" viewBox="0 0 96 96"><path fill="#CED2DB" d="M60.32 25.6H35.04v44.8h25.28V25.6Z"/><path fill="#FFD200" d="M60.8 70.4a22.4 22.4 0 1 0 0-44.8 22.4 22.4 0 0 0 0 44.8Z"/><path fill="#5DE2F8" d="M35.2 70.4a22.4 22.4 0 1 0 0-44.8 22.4 22.4 0 0 0 0 44.8Z"/><path fill="#0052FF" d="M48 29.6A22.37 22.37 0 0 1 57.6 48c0 7.6-3.76 14.32-9.6 18.4A22.37 22.37 0 0 1 38.4 48c0-7.6 3.76-14.32 9.6-18.4Z"/><path fill="#0A0B0D" fill-rule="evenodd" d="M67.36 48.4H20v-1.6h47.36v1.6Z" clip-rule="evenodd"/><path fill="#0A0B0D" fill-rule="evenodd" d="m67.1 47.6-4.14-4.07 1.12-1.14 5.3 5.21-5.3 5.21-1.12-1.14 4.14-4.07Z" clip-rule="evenodd"/><path fill="#0A0B0D" fill-rule="evenodd" d="M60.8 32.8a15.2 15.2 0 1 0 0 30.4 15.2 15.2 0 0 0 0-30.4ZM44 48a16.8 16.8 0 1 1 33.6 0A16.8 16.8 0 0 1 44 48Z" clip-rule="evenodd"/></svg>