<svg xmlns="http://www.w3.org/2000/svg" fill="none" viewBox="0 0 96 96"><g clip-path="url(#a)"><path fill="#CED2DB" d="M62.068 39.374a4.158 4.158 0 1 0 0-8.316 4.158 4.158 0 0 0 0 8.316"/><path fill="#CED2DB" d="M70.357 39.374a4.158 4.158 0 1 0 0-8.316 4.158 4.158 0 0 0 0 8.316"/><path fill="#CED2DB" d="M78.655 39.374a4.158 4.158 0 1 0 0-8.316 4.158 4.158 0 0 0 0 8.316"/><path fill="#CED2DB" d="M90.68 29.598c0-3.372-2.728-6.098-6.083-6.098H11.763c-3.356 0-6.083 2.726-6.083 6.098v37.804c0 3.372 2.727 6.098 6.083 6.098h72.834c3.355 0 6.083-2.726 6.083-6.098zm5 37.804c0 6.125-4.958 11.098-11.083 11.098H11.763C5.638 78.5.68 73.527.68 67.402V29.598C.68 23.473 5.638 18.5 11.763 18.5h72.834c6.125 0 11.083 4.973 11.083 11.098z"/><path fill="#0000FF" d="M49 50H14v15h35zM39 30.895H24v14h15z"/><path fill="#CED2DB" d="M83.18 51.395v5h-24v-5zm0-7v5h-24v-5zM70.18 60v5h-11v-5z"/></g><defs><clipPath id="a"><path fill="#FFFFFF" d="M0 0h96v96H0z"/></clipPath></defs></svg>