<svg xmlns="http://www.w3.org/2000/svg" fill="none" viewBox="0 0 96 96"><g clip-path="url(#a)"><path fill="#CED2DB" d="M0 32h72v-8H0zm0 40h72v-8H0v8Zm0-16h72V40H0v16Z"/><path fill="#101114" d="M30 46.94v2H0v-2zm0-8v2H0v-2z"/><path fill="#101114" fill-rule="evenodd" d="M39.569 23.099a.973.973 0 0 0-.276.194l1.414 1.414a1.027 1.027 0 0 1-.441.26 1.35 1.35 0 0 1-.164.039c-.077.013-.16.021-.235.028-.155.013-.36.024-.6.033-.485.018-1.165.031-1.988.04-1.65.018-3.908.02-6.4.011-4.988-.016-10.936-.072-14.89-.118l.023-2c3.952.046 9.893.102 14.873.118 2.49.009 4.737.007 6.372-.01a79.266 79.266 0 0 0 1.935-.04 10.547 10.547 0 0 0 .573-.034c.001 0 .001 0 0 0a.724.724 0 0 0-.197.065Zm-8 39.877a.974.974 0 0 0-.276.194l1.414 1.414a1.029 1.029 0 0 1-.441.26 1.39 1.39 0 0 1-.164.038 2.79 2.79 0 0 1-.235.029c-.155.013-.36.024-.6.033-.485.018-1.165.031-1.988.04-1.65.018-3.908.02-6.4.011-4.988-.016-10.936-.072-14.89-.118l.023-2c3.952.046 9.893.102 14.873.118a487.6 487.6 0 0 0 6.372-.011 78.85 78.85 0 0 0 1.935-.039c.23-.008.397-.017.503-.027l.07-.007c.001 0 .001 0 0 0l-.02.004a.74.74 0 0 0-.176.06Z" clip-rule="evenodd"/><path fill="#FFD200" d="M24 48c0 19.882 16.118 36 36 36s36-16.118 36-36-16.118-36-36-36-36 16.118-36 36Z"/><path fill="#0A0B0D" fill-rule="evenodd" d="M60 19.75c15.602 0 28.25 12.648 28.25 28.25S75.602 76.25 60 76.25 31.75 63.602 31.75 48 44.398 19.75 60 19.75ZM90.25 48c0-16.707-13.543-30.25-30.25-30.25S29.75 31.293 29.75 48 43.293 78.25 60 78.25 90.25 64.707 90.25 48Z" clip-rule="evenodd"/><path fill="#0A0B0D" d="M50.633 36.334h3.645v-4.408h2.572v4.408h2.882v-4.408h2.6v4.436c3.73.34 6.302 2.657 6.302 6.161 0 2.656-1.498 4.437-3.815 5.143v.028c2.77.735 4.55 2.713 4.55 5.765 0 4.041-2.911 6.528-7.009 6.754v3.86h-2.6v-3.888h-2.882v3.86h-2.6v-3.86h-3.645v-23.85Zm14.158 6.443c0-1.978-1.357-3.221-3.702-3.221h-6.67v6.782h6.67c2.345 0 3.702-1.243 3.702-3.222v-.339Zm.706 10.258c0-2.26-1.554-3.617-4.126-3.617H54.42v7.517h6.98c2.6 0 4.098-1.47 4.098-3.56v-.34Z"/><path fill="#FFFFFF" d="m48.884 35.962-3.985-.852-.852-3.985-.86 3.985-3.978.852 3.979.86.858 3.978.853-3.979 3.985-.858Z"/><path fill="#0052FF" d="m87.999 96 1.41-6.59L96 88l-6.591-1.421-1.41-6.581-1.42 6.581-6.581 1.42 6.58 1.41L87.999 96Z"/><path fill="#00D17F" d="m0 8 6.59 1.41L8 16l1.42-6.59L16 8 9.42 6.58 8 0 6.59 6.58 0 8Z"/></g><defs><clipPath id="a"><path fill="#FFFFFF" d="M0 0h96v96H0z"/></clipPath></defs></svg>