<svg xmlns="http://www.w3.org/2000/svg" fill="none" viewBox="0 0 97 97"><path fill="#00D17F" d="M0 42.03a3.23 3.23 0 0 1 3.23-3.23H87.3a3.23 3.23 0 0 1 3.23 3.23v51.74A3.23 3.23 0 0 1 87.3 97H3.23A3.23 3.23 0 0 1 0 93.77V42.03Z"/><path fill="#0A0B0D" d="M64.67 67.9a9.7 9.7 0 0 1 9.7-9.7h16.16v19.4H74.37a9.7 9.7 0 0 1-9.7-9.7Z"/><path fill="#0052FF" d="M90.53 58.2H97v19.4h-6.47V58.2Z"/><path fill="#CED2DB" fill-rule="evenodd" d="M.11 1.62h16.86A41.23 41.23 0 0 1 58.2 42.84V67.9H32.33V42.84c0-8.48-6.87-15.36-15.36-15.36H.11V1.62Z" clip-rule="evenodd"/><path fill="#0052FF" fill-rule="evenodd" d="M58 38.8c.13 1.33.2 2.68.2 4.04V67.9H32.33V42.84c0-1.4-.18-2.75-.53-4.04H58Z" clip-rule="evenodd"/><path fill="#FFD200" d="M58.2 67.9a12.93 12.93 0 1 1-25.87 0 12.93 12.93 0 0 1 25.87 0Z"/><path fill="#0A0B0D" fill-rule="evenodd" d="M45.27 57.95a9.95 9.95 0 1 0 0 19.9 9.95 9.95 0 0 0 0-19.9Zm-7.83 9.95a7.83 7.83 0 1 1 15.66 0 7.83 7.83 0 0 1-15.66 0Z" clip-rule="evenodd"/><path fill="#101114" d="M17.22 13.49H0v2.12h17.22c10.44 0 19.5 5.87 24.08 14.5l-5.21-1.57-.61 2.03 8.36 2.52.01-.07.06.02 2.5-8.3-2.03-.6-1.4 4.63a29.35 29.35 0 0 0-25.76-15.28Z"/></svg>