<svg xmlns="http://www.w3.org/2000/svg" fill="none" viewBox="0 0 96 96"><path fill="#CED2DB" d="M96 56H0v40h96V56Z"/><path fill="#00D17F" d="M43 16H27v40h16V16Z"/><path fill="#0052FF" d="M43 56H27v24h16V56Z"/><path fill="#FF3344" d="M16 48H0v8h16v-8Z"/><path fill="#0052FF" d="M16 56H0v32h16V56Z"/><path fill="#FF3344" d="M70 24H54v32h16V24Z"/><path fill="#0052FF" d="M70 56H54v8h16v-8Zm26 0H80v5h16v-5Z"/><path fill="#00D17F" d="M96 4H80v52h16V4Zm-57 8h-8v4h8v-4Z"/><path fill="#0052FF" d="M39 80h-8v4h8v-4Z"/><path fill="#FF3344" d="M12 44H4v4h8v-4Z"/><path fill="#0052FF" d="M12 88H4v4h8v-4Z"/><path fill="#FF3344" d="M66 20h-8v4h8v-4Z"/><path fill="#0052FF" d="M66 64h-8v4h8v-4Z"/><path fill="#00D17F" d="M92 0h-8v4h8V0Z"/><path fill="#0052FF" d="M92 61h-8v4h8v-4Z"/><path fill="#0A0B0D" fill-rule="evenodd" d="M86.814 27.47 9.273 64l-.968-1.825 77.541-36.529.968 1.825Z" clip-rule="evenodd"/><path fill="#0A0B0D" fill-rule="evenodd" d="m85.384 27.035-4.587-1.053.512-1.982L88 25.536l-1.63 6.303-2.103-.482 1.117-4.322Z" clip-rule="evenodd"/></svg>