<svg xmlns="http://www.w3.org/2000/svg" fill="none" viewBox="0 0 96 96"><rect width="44.8" height="70.4" x="38.4" y="12.8" fill="#0052FF" rx="3.2"/><circle cx="35.2" cy="48" r="16" fill="#FFD200"/><path fill="#0A0B0D" fill-rule="evenodd" d="M38.4 63.68V32.32a16 16 0 0 1 0 31.36Z" clip-rule="evenodd"/><rect width="9.6" height="12.8" x="60.8" y="19.2" fill="#CED2DB" rx="1.6"/><path fill="#0A0B0D" fill-rule="evenodd" d="M64.8 24v-4.8h1.6V24h-1.6Zm0 8v-4.8h1.6V32h-1.6Z" clip-rule="evenodd"/><path fill="#0A0B0D" fill-rule="evenodd" d="M70.4 24h-9.6v-1.6h9.6V24Zm0 4.8h-9.6v-1.6h9.6v1.6Z" clip-rule="evenodd"/><path fill="#101114" fill-rule="evenodd" d="M30 69.37a21.6 21.6 0 0 0 21.77-6.55l1.2 1.06a23.2 23.2 0 0 1-39.8-21.38l1.55.41A21.6 21.6 0 0 0 30 69.37Zm10.4-41.94a21.6 21.6 0 0 0-21.77 6.55l-1.2-1.06a23.2 23.2 0 0 1 39.8 21.38l-1.55-.41A21.6 21.6 0 0 0 40.4 27.43Z" clip-rule="evenodd"/><path fill="#5DE2F8" d="M19.2 84a6.4 6.4 0 0 1 6.4-6.4 6.4 6.4 0 0 1-6.4-6.4 6.4 6.4 0 0 1-6.4 6.4 6.4 6.4 0 0 1 6.4 6.4Z"/><path fill="#FFD200" d="M19.2 19.2a3.2 3.2 0 0 1 3.2-3.2 3.2 3.2 0 0 1-3.2-3.2A3.2 3.2 0 0 1 16 16a3.2 3.2 0 0 1 3.2 3.2Z"/><path fill="#101114" fill-rule="evenodd" d="m53.36 62.17.22 5.6-1.6.06-.16-4-4 .16-.06-1.6 5.6-.22ZM17.04 34.63l-.22-5.6 1.6-.06.16 4 4-.16.06 1.6-5.6.22Z" clip-rule="evenodd"/></svg>