<svg xmlns="http://www.w3.org/2000/svg" fill="none" viewBox="0 0 96 96"><rect width="44.8" height="70.4" x="38.4" y="12.8" fill="#0052FF" rx="3.2"/><circle cx="35.2" cy="48" r="16" fill="#FFD200"/><path fill="#0A0B0D" fill-rule="evenodd" d="M38.4 63.68V32.32c7.304 1.483 12.8 7.94 12.8 15.68 0 7.74-5.496 14.197-12.8 15.68Z" clip-rule="evenodd"/><rect width="9.6" height="12.8" x="60.8" y="19.2" fill="#CED2DB" rx="1.6"/><path fill="#0A0B0D" fill-rule="evenodd" d="M64.8 24v-4.8h1.6V24h-1.6Zm0 8v-4.8h1.6V32h-1.6Z" clip-rule="evenodd"/><path fill="#0A0B0D" fill-rule="evenodd" d="M70.4 24h-9.6v-1.6h9.6V24Zm0 4.8h-9.6v-1.6h9.6v1.6Z" clip-rule="evenodd"/><path fill="#101114" fill-rule="evenodd" d="M29.997 69.368c8.174 2.19 16.511-.614 21.77-6.547l1.197 1.062c-5.645 6.368-14.6 9.383-23.382 7.03-12.376-3.316-19.72-16.038-16.404-28.414l1.545.414c-3.088 11.523 3.75 23.367 15.274 26.455Zm10.407-41.935c-8.175-2.19-16.512.614-21.77 6.546l-1.197-1.062c5.644-6.368 14.599-9.383 23.381-7.03 12.376 3.316 19.721 16.038 16.405 28.414l-1.546-.414c3.088-11.523-3.75-23.367-15.273-26.454Z" clip-rule="evenodd"/><path fill="#5DE2F8" d="M19.2 84a6.4 6.4 0 0 1 6.4-6.4 6.4 6.4 0 0 1-6.4-6.4 6.4 6.4 0 0 1-6.4 6.4 6.4 6.4 0 0 1 6.4 6.4Z"/><path fill="#FFD200" d="M19.2 19.2a3.2 3.2 0 0 1 3.2-3.2 3.2 3.2 0 0 1-3.2-3.2A3.2 3.2 0 0 1 16 16a3.2 3.2 0 0 1 3.2 3.2Z"/><path fill="#101114" fill-rule="evenodd" d="m53.357 62.167.222 5.596-1.599.063-.158-3.997-3.997.158-.063-1.598 5.595-.222ZM17.043 34.633l-.221-5.596 1.598-.063.158 3.997 3.997-.158.064 1.598-5.596.222Z" clip-rule="evenodd"/></svg>