<svg xmlns="http://www.w3.org/2000/svg" fill="none" viewBox="0 0 96 96"><path fill="#0052FF" d="M25.6 21.6a2.4 2.4 0 0 1 2.4-2.4h33.6a2.4 2.4 0 0 1 2.4 2.4v52.8a2.4 2.4 0 0 1-2.4 2.4H28a2.4 2.4 0 0 1-2.4-2.4V21.6Z"/><path fill="#0A0B0D" d="M32 19.2h9.6v57.6H32V19.2Z"/><path fill="#CED2DB" d="M32 12.8h9.6v6.4H32v-6.4Zm0 64h9.6v6.4H32v-6.4Z"/><path fill="#FFFFFF" d="M54.4 64h3.2v6.4h-3.2V64ZM48 44.8h3.2v25.6H48V44.8Zm6.4 9.6h3.2v6.4h-3.2v-6.4Zm0-9.6h3.2v6.4h-3.2v-6.4Zm0-9.6h3.2v6.4h-3.2v-6.4Z"/><path fill="#00D17F" d="M83.2 64a6.4 6.4 0 0 0-6.399 6.4 6.4 6.4 0 0 0-6.4-6.4 6.4 6.4 0 0 0 6.4-6.4 6.4 6.4 0 0 0 6.4 6.4Z"/><path fill="#FFD200" d="M80 25.6a6.4 6.4 0 0 0-6.4 6.4 6.4 6.4 0 0 0-6.4-6.4 6.4 6.4 0 0 0 6.4-6.4 6.4 6.4 0 0 0 6.4 6.4Z"/><path fill="#5DE2F8" d="M22.4 46.4a4.8 4.8 0 0 0-4.799 4.8 4.8 4.8 0 0 0-4.8-4.8 4.8 4.8 0 0 0 4.8-4.8 4.8 4.8 0 0 0 4.8 4.8Z"/></svg>