<svg xmlns="http://www.w3.org/2000/svg" fill="none" viewBox="0 0 96 96"><g clip-path="url(#a)"><path fill="#CED2DB" d="M48 96C21.52 96 0 74.48 0 48S21.52 0 48 0z"/><path fill="#CED2DB" d="M48 83.2c19.44 0 35.2-15.76 35.2-35.2S67.44 12.8 48 12.8 12.8 28.56 12.8 48 28.56 83.2 48 83.2"/><path fill="#0052FF" d="M48 83.2c-19.44 0-35.2-15.76-35.2-35.2S28.56 12.8 48 12.8z"/><path fill="#0A0B0D" d="M48 76.8c15.91 0 28.8-12.89 28.8-28.8S63.91 19.2 48 19.2 19.2 32.09 19.2 48 32.09 76.8 48 76.8"/><path fill="#CED2DB" d="M48 19.2c15.92 0 28.8 12.88 28.8 28.8S63.92 76.8 48 76.8"/><path fill="#0052FF" d="M48 19.2c15.92 0 28.8 12.88 28.8 28.8S63.92 76.8 48 76.8"/><path fill="#0A0B0D" d="M48 68.76c11.6 0 21-9.4 21-21s-9.4-21-21-21-21 9.4-21 21 9.4 21 21 21"/><path fill="#FFFFFF" d="M48 26.76c11.6 0 21 9.4 21 21s-9.4 21-21 21-21-9.4-21-21 9.4-21 21-21m0-2.04c-12.71 0-23.04 10.34-23.04 23.04S35.3 70.8 48 70.8s23.04-10.34 23.04-23.04S60.7 24.72 48 24.72"/><path fill="#ED702F" d="m48 32.63 14.86 24H33.15l14.86-24z"/><path fill="#FFFFFF" fill-rule="evenodd" d="M47 49.2V38.91h2V49.2zm0 4.93v-3h2v3z" clip-rule="evenodd"/></g><defs><clipPath id="a"><path fill="#FFFFFF" d="M0 0h96v96H0z"/></clipPath></defs></svg>