<svg xmlns="http://www.w3.org/2000/svg" fill="none" viewBox="0 0 96 96"><g clip-path="url(#a)"><path fill="#0052FF" fill-rule="evenodd" d="M0 96h68V75.999h-.001c-15.464 0-28-12.536-28-28 0-15.463 12.536-27.999 28-27.999H68V0H0z" clip-rule="evenodd"/><path fill="#CED2DB" fill-rule="evenodd" d="M24 32H8V8h16z" clip-rule="evenodd"/><path stroke="#0A0B0D" stroke-width="2" d="M8.047 16H24M8.047 24H24"/><path fill="#0A0B0D" fill-rule="evenodd" d="M15.023 32V8h2v24zM68 68c11.046 0 20-8.954 20-20s-8.954-20-20-20-20 8.954-20 20 8.954 20 20 20m0 8c15.464 0 28-12.536 28-28S83.464 20 68 20 40 32.536 40 48s12.536 28 28 28" clip-rule="evenodd"/><path fill="#CED2DB" fill-rule="evenodd" d="M88 48c0 11.046-8.954 20-20 20v8c15.464 0 28-12.536 28-28S83.464 20 68 20v8c11.046 0 20 8.954 20 20" clip-rule="evenodd"/><path fill="#0A0B0D" fill-rule="evenodd" d="M72.665 46.576v-3.91a4.667 4.667 0 1 0-9.333 0v3.91a4.667 4.667 0 0 0 9.333 0M68 36a6.667 6.667 0 0 0-6.667 6.667v3.91a6.667 6.667 0 0 0 13.333 0v-3.91A6.667 6.667 0 0 0 68 36" clip-rule="evenodd"/><path fill="#0052FF" d="M58 44h20v16H58z"/><path fill="#0A0B0D" d="M70 50.82a2 2 0 1 1-4 0 2 2 0 0 1 4 0"/><path fill="#0A0B0D" fill-rule="evenodd" d="M67.025 55.892v-4h2v4z" clip-rule="evenodd"/></g><defs><clipPath id="a"><path fill="#FFFFFF" d="M0 0h96v96H0z"/></clipPath></defs></svg>