<svg xmlns="http://www.w3.org/2000/svg" fill="none" viewBox="0 0 96 96"><path fill="#5DE2F8" fill-rule="evenodd" d="M96 48c0 26.51-21.492 48-48 48S0 74.51 0 48 21.492 0 48 0s48 21.49 48 48m-8 0c0 22.091-17.906 40-40 40S8 70.091 8 48 25.906 8 48 8s40 17.909 40 40" clip-rule="evenodd"/><path fill="#0052FF" d="M48 32c8.837 0 16-7.163 16-16S56.837 0 48 0 32 7.163 32 16s7.163 16 16 16"/><path fill="#CED2DB" d="M32.81 10.99C32.29 12.57 32 14.25 32 16c0 8.84 7.16 16 16 16s16-7.16 16-16c0-1.75-.29-3.43-.81-5.01A39.9 39.9 0 0 0 48 8c-5.38 0-10.51 1.07-15.19 2.99"/><path fill="#0052FF" d="M48 96c8.837 0 16-7.163 16-16s-7.163-16-16-16-16 7.163-16 16 7.163 16 16 16"/><path fill="#CED2DB" d="M48 64c-8.84 0-16 7.16-16 16 0 1.75.29 3.43.81 5.01C37.49 86.93 42.62 88 48 88s10.51-1.07 15.19-2.99c.52-1.58.81-3.26.81-5.01 0-8.84-7.16-16-16-16"/><path fill="#0052FF" d="M16 64c8.837 0 16-7.163 16-16s-7.163-16-16-16S0 39.163 0 48s7.163 16 16 16"/><path fill="#CED2DB" d="M16 32c-1.75 0-3.43.29-5.01.81A39.9 39.9 0 0 0 8 48c0 5.38 1.07 10.51 2.99 15.19 1.58.52 3.26.81 5.01.81 8.84 0 16-7.16 16-16s-7.16-16-16-16"/><path fill="#0052FF" d="M80 64c8.837 0 16-7.163 16-16s-7.163-16-16-16-16 7.163-16 16 7.163 16 16 16"/><path fill="#CED2DB" d="M64 48c0 8.84 7.16 16 16 16 1.75 0 3.43-.29 5.01-.81C86.93 58.51 88 53.38 88 48s-1.07-10.51-2.99-15.19C83.43 32.29 81.75 32 80 32c-8.84 0-16 7.16-16 16"/><path fill="#0052FF" d="M48 72c13.255 0 24-10.745 24-24S61.255 24 48 24 24 34.745 24 48s10.745 24 24 24"/><path fill="#FFFFFF" d="M38.732 51.2a3.2 3.2 0 0 1-3.206-3.2c0-1.768 1.435-3.2 3.206-3.2a3.2 3.2 0 0 1 3.158 2.667h3.23a6.407 6.407 0 0 0-6.388-5.867c-3.54 0-6.412 2.867-6.412 6.4s2.872 6.4 6.412 6.4a6.407 6.407 0 0 0 6.388-5.867h-3.23a3.2 3.2 0 0 1-3.158 2.667m20.323-9.104c2.448 0 3.936 1.568 3.936 4.112v3.472c0 2.608-1.504 4.144-3.936 4.144-2.416 0-3.952-1.536-3.952-4.144v-3.472c0-2.544 1.52-4.112 3.952-4.112m0 10.4c1.536 0 2.432-1.072 2.432-2.816v-3.456c0-1.712-.88-2.8-2.432-2.8s-2.448 1.088-2.448 2.8v3.456c0 1.744.896 2.816 2.448 2.816M46.47 48.624v-6.288h6.816V43.6h-5.472v3.744h.016c.544-1.024 1.52-1.392 2.576-1.392 2.192 0 3.488 1.616 3.488 3.872 0 2.272-1.488 4-4 4-2.208 0-3.696-1.344-3.84-3.28h1.52c.08 1.088.896 2.032 2.352 2.032 1.632 0 2.432-1.184 2.432-2.656v-.176c0-1.456-.72-2.576-2.288-2.576-1.088 0-1.856.544-2.256 1.456z"/></svg>