<svg xmlns="http://www.w3.org/2000/svg" fill="none" viewBox="0 0 96 96"><path fill="#0052FF" d="M24 48C10.754 48 0 58.754 0 72s10.754 24 24 24 24-10.754 24-24-10.754-24-24-24Z"/><path fill="#CED2DB" d="M24 0C10.754 0 0 10.754 0 24s10.754 24 24 24 24-10.754 24-24S37.246 0 24 0Z"/><path fill="#CED2DB" d="M24 0C10.754 0 0 10.754 0 24s10.754 24 24 24 24-10.754 24-24S37.246 0 24 0Z"/><path fill="#FFD200" d="M72 48c-13.246 0-24 10.754-24 24s10.754 24 24 24 24-10.754 24-24-10.754-24-24-24Z"/><path fill="#0052FF" d="M96 0H72v44.8h24V0Z"/><path fill="#101114" d="M72 0H48v44.8h24V0Z"/><path fill="#CED2DB" d="m48 44.8 24 28.8 24-28.8H48Z"/><path fill="#0052FF" fill-rule="evenodd" d="M88.134 54.239A23.91 23.91 0 0 0 72 48a23.91 23.91 0 0 0-16.135 6.239L72 73.6l16.134-19.361Z" clip-rule="evenodd"/><path fill="#0A0B0D" fill-rule="evenodd" d="M80 64H64l8 9.6 8-9.6Zm-43.505.331-1.414-1.414-15.569 15.568-7.18-7.18-1.414 1.414 7.18 7.18-.077.077 1.415 1.415.076-.077.077.077 1.414-1.415-.077-.076 15.569-15.57Z" clip-rule="evenodd"/><path fill="#0A0B0D" d="m33.247 16.166-1.414-1.415-7.834 7.835-7.835-7.834-1.414 1.414L22.584 24l-7.834 7.834 1.414 1.415L24 25.413l7.834 7.834 1.414-1.414L25.413 24l7.834-7.834Z"/></svg>