<svg xmlns="http://www.w3.org/2000/svg" fill="none" viewBox="0 0 96 96"><g clip-path="url(#a)"><path fill="#3CC28A" d="M96 68c0 15.464-12.536 28-28 28S40 83.464 40 68s12.536-28 28-28 28 12.536 28 28"/><path fill="#CED2DB" d="M0 0h80v48H0z"/><path fill="#3CC28A" d="M96 68c0 15.464-12.536 28-28 28S40 83.464 40 68s12.536-28 28-28 28 12.536 28 28"/><path fill="#0052FF" d="M80 42.695V48H48.404A27.9 27.9 0 0 1 68 40a27.9 27.9 0 0 1 12 2.694"/><path fill="#0A0B0D" fill-rule="evenodd" d="M24 16H8v-2h16zm16 16H8v-2h32zm0 8H8v-2h32zm24.315 32.922L78.11 59 80 61.17 64.315 77 56 68.608l1.89-2.17z" clip-rule="evenodd"/><path fill="#0052FF" d="M59 8h13v16H59z"/></g><defs><clipPath id="a"><path fill="#FFFFFF" d="M0 0h96v96H0z"/></clipPath></defs></svg>