<svg xmlns="http://www.w3.org/2000/svg" fill="none" viewBox="0 0 96 96"><path fill="#050607" d="M80.03 32H.2v64h79.83V32Z"/><path fill="#0052FF" d="M88.02 32H72.05v64h15.97V32Z"/><path fill="#00D17F" d="M96 72H72.05a8 8 0 0 1 0-16H96v16ZM.2 32 72.05 0v32H.2Z"/><path fill="#050607" d="M32.43 79c8.58 0 15.47-6.8 15.47-15.1s-6.89-15.1-15.47-15.1c-8.58 0-15.47 6.8-15.47 15.1S23.85 79 32.43 79Z"/><path fill="#FFFFFF" fill-rule="evenodd" d="M15.96 63.9c0-8.87 7.36-16.1 16.47-16.1 9.12 0 16.47 7.23 16.47 16.1 0 8.87-7.35 16.1-16.47 16.1-9.11 0-16.47-7.23-16.47-16.1Zm16.47-14.1c-8.05 0-14.47 6.37-14.47 14.1 0 7.73 6.42 14.1 14.47 14.1S46.9 71.63 46.9 63.9c0-7.73-6.42-14.1-14.47-14.1Z" clip-rule="evenodd"/><path fill="#FFFFFF" fill-rule="evenodd" d="M28.94 49.27a4.77 4.77 0 0 1 3.3-1.47c1.24 0 2.36.58 3.29 1.47.92.89 1.7 2.12 2.35 3.56 1.27 2.9 2.04 6.81 2.04 11.07 0 4.26-.77 8.17-2.04 11.07a11.2 11.2 0 0 1-2.35 3.56 4.77 4.77 0 0 1-3.3 1.47A4.67 4.67 0 0 1 29 78.52a11.4 11.4 0 0 1-2.32-3.55c-1.28-2.9-2.07-6.8-2.12-11.06v-.01c0-4.26.76-8.18 2.04-11.07a11.2 11.2 0 0 1 2.35-3.56Zm-2.4 14.62c.06 4.05.81 7.68 1.95 10.27a9.44 9.44 0 0 0 1.9 2.93c.66.65 1.28.91 1.84.91.6 0 1.24-.27 1.91-.91a9.24 9.24 0 0 0 1.9-2.93c1.15-2.59 1.88-6.22 1.88-10.26s-.73-7.68-1.87-10.26a9.24 9.24 0 0 0-1.9-2.93c-.68-.64-1.32-.91-1.92-.91-.6 0-1.24.27-1.9.91a9.24 9.24 0 0 0-1.91 2.93c-1.14 2.58-1.87 6.21-1.87 10.25Z" clip-rule="evenodd"/><path fill="#FFFFFF" fill-rule="evenodd" d="M47.9 64.9H16.96v-2H47.9v2Z" clip-rule="evenodd"/><path fill="#FFFFFF" d="M71.45 61c2.1-.4 3.9 1.4 3.5 3.5a3.1 3.1 0 0 1-2.4 2.4c-2.1.4-3.9-1.4-3.5-3.5.3-1.2 1.3-2.2 2.4-2.4Z"/><path fill="#0052FF" d="M96 56h-7.98v16H96V56Z"/><path fill="#FFFFFF" fill-rule="evenodd" d="M.2 39h87.82v2H.2v-2Zm0 48h88.02v2H.2v-2Z" clip-rule="evenodd"/></svg>