<svg xmlns="http://www.w3.org/2000/svg" fill="none" viewBox="0 0 96 96"><path fill="#CED2DB" fill-rule="evenodd" d="M61.243 33.337A28.699 28.699 0 0 0 41.601 25.6c-15.906 0-28.8 12.894-28.8 28.8s12.894 28.8 28.8 28.8a28.7 28.7 0 0 0 19.642-7.737 22.358 22.358 0 0 1-7.642 1.337c-12.371 0-22.4-10.029-22.4-22.4C31.2 42.029 41.23 32 53.6 32c2.684 0 5.257.472 7.642 1.337Z" clip-rule="evenodd"/><path fill="#00D17F" d="M83.449 19.724a6.924 6.924 0 0 0-6.924 6.925c0-3.825-3.1-6.925-6.925-6.925 3.825 0 6.925-3.1 6.925-6.924a6.923 6.923 0 0 0 6.924 6.924Z"/><path fill="#101114" fill-rule="evenodd" d="M53.602 57.6v-6.4h1.6v6.4h-1.6Z" clip-rule="evenodd"/><path fill="#101114" fill-rule="evenodd" d="M51.202 53.6h6.4v1.6h-6.4v-1.6ZM79.2 46.4V40h1.6v6.4h-1.6Z" clip-rule="evenodd"/><path fill="#101114" fill-rule="evenodd" d="M76.8 42.4h6.4V44h-6.4v-1.6ZM15.2 19.2v-6.4h1.6v6.4h-1.6Z" clip-rule="evenodd"/><path fill="#101114" fill-rule="evenodd" d="M12.8 15.2h6.4v1.6h-6.4v-1.6Z" clip-rule="evenodd"/><path fill="#5DE2F8" d="M77.6 76.8a4.8 4.8 0 0 0-4.8 4.8 4.8 4.8 0 0 0-4.8-4.8 4.8 4.8 0 0 0 4.8-4.8 4.8 4.8 0 0 0 4.8 4.8Z"/></svg>