<svg xmlns="http://www.w3.org/2000/svg" fill="none" viewBox="0 0 96 96"><path fill="#0A0B0D" d="M86.4 9.6H48V48h38.4z"/><path fill="#FFD200" d="M48 9.6H9.6V48H48z"/><path fill="#0052FF" d="M86.4 48H48v38.4h38.4z"/><path fill="#CED2DB" d="M48 48H9.6v38.4H48zM9.6 38.4A9.584 9.584 0 0 1 0 28.8c0-5.314 4.286-9.6 9.6-9.6z"/><path fill="#0052FF" d="M9.6 19.2c5.314 0 9.6 4.286 9.6 9.6s-4.286 9.6-9.6 9.6z"/><path fill="#FFFFFF" d="M48 38.4a9.584 9.584 0 0 1-9.6-9.6c0-5.314 4.286-9.6 9.6-9.6z"/><path fill="#0052FF" d="M48 19.2c5.314 0 9.6 4.286 9.6 9.6s-4.286 9.6-9.6 9.6z"/><path fill="#FFFFFF" d="M19.2 48c0-5.314 4.286-9.6 9.6-9.6 5.315 0 9.6 4.286 9.6 9.6z"/><path fill="#0052FF" d="M38.4 48c0 5.314-4.285 9.6-9.6 9.6a9.584 9.584 0 0 1-9.6-9.6z"/><path fill="#CED2DB" d="M38.4 86.4c0 5.314-4.286 9.6-9.6 9.6a9.584 9.584 0 0 1-9.6-9.6z"/><path fill="#0052FF" d="M19.2 86.4c0-5.314 4.285-9.6 9.6-9.6s9.6 4.286 9.6 9.6z"/><path fill="#CED2DB" d="M57.6 9.6c0-5.314 4.286-9.6 9.6-9.6 5.315 0 9.6 4.286 9.6 9.6z"/><path fill="#0052FF" d="M76.8 9.6c0 5.314-4.285 9.6-9.6 9.6a9.584 9.584 0 0 1-9.6-9.6z"/><path fill="#FFFFFF" d="m58.96 67.2 3.76 12 4.76-8.52 5.84 6.52 3.88-3.84-6.56-5.88 8.56-4.76-12-3.76-12-3.76z"/></svg>