<svg xmlns="http://www.w3.org/2000/svg" fill="none" viewBox="0 0 96 96"><path fill="#3CC28A" fill-rule="evenodd" d="m57.76 89.44-51.2-51.2L38.24 6.56l51.2 51.2z" clip-rule="evenodd"/><path fill="#3CC28A" d="M44.308 22.154c0 12.235-9.919 22.154-22.154 22.154S0 34.389 0 22.154 9.919 0 22.154 0s22.154 9.919 22.154 22.154"/><path fill="#CED2DB" d="M96 22.154c0 12.235-9.92 22.154-22.155 22.154s-22.154-9.919-22.154-22.154S61.61 0 73.845 0C86.081 0 96 9.919 96 22.154"/><path fill="#3CC28A" d="M44.8 22.4c0 12.371-10.029 22.4-22.4 22.4S0 34.771 0 22.4 10.029 0 22.4 0s22.4 10.029 22.4 22.4"/><path fill="#0052FF" fill-rule="evenodd" d="M22.4 44.8c12.37 0 22.4-10.029 22.4-22.4a22.33 22.33 0 0 0-6.56-15.838l-.001-.001L6.56 38.239M22.4 44.8a22.33 22.33 0 0 1-15.838-6.56z" clip-rule="evenodd"/><path fill="#CED2DB" d="M96 22.4c0 12.371-10.03 22.4-22.4 22.4-12.372 0-22.4-10.029-22.4-22.4S61.227 0 73.6 0C85.97 0 96 10.029 96 22.4"/><path fill="#0052FF" fill-rule="evenodd" d="m51.362 19.685 24.953 24.952a23 23 0 0 1-2.716.163c-12.371 0-22.4-10.029-22.4-22.4q.001-1.38.163-2.715" clip-rule="evenodd"/><path fill="#FFD200" d="M44.8 73.6C44.8 85.971 34.771 96 22.4 96S0 85.971 0 73.6s10.029-22.4 22.4-22.4 22.4 10.03 22.4 22.4"/><path fill="#0052FF" fill-rule="evenodd" d="M44.636 76.316 19.684 51.363a23 23 0 0 1 2.715-.163c12.371 0 22.4 10.029 22.4 22.4q0 1.38-.163 2.716" clip-rule="evenodd"/><path fill="#FFD200" d="M96 73.6C96 85.971 85.97 96 73.6 96c-12.372 0-22.4-10.029-22.4-22.4s10.028-22.4 22.4-22.4C85.97 51.2 96 61.23 96 73.6"/><path fill="#0052FF" fill-rule="evenodd" d="m57.757 89.436.003.003 31.68-31.677-.004-.003A22.33 22.33 0 0 0 73.599 51.2c-12.371 0-22.4 10.029-22.4 22.4a22.33 22.33 0 0 0 6.558 15.836" clip-rule="evenodd"/><path fill="#FFFFFF" d="M37.53 73.97a14.73 14.73 0 0 0-14.765 14.768A14.73 14.73 0 0 0 8 73.97 14.73 14.73 0 0 0 22.765 59.2c0 8.185 6.644 14.77 14.764 14.77"/><path fill="#0A0B0D" fill-rule="evenodd" d="M22.153 4.723c-9.626 0-17.43 7.804-17.43 17.43 0 9.628 7.804 17.432 17.43 17.432 9.627 0 17.431-7.804 17.431-17.431s-7.804-17.43-17.43-17.43M7.584 22.153c0-8.045 6.523-14.568 14.57-14.568 8.046 0 14.569 6.523 14.569 14.569s-6.523 14.57-14.57 14.57c-8.046 0-14.569-6.524-14.569-14.57m66.261 34.262c-9.627 0-17.43 7.804-17.43 17.43 0 9.627 7.803 17.431 17.43 17.431s17.43-7.804 17.43-17.43c0-9.627-7.803-17.431-17.43-17.431m-14.57 17.43c0-8.046 6.524-14.569 14.57-14.569s14.57 6.523 14.57 14.57c0 8.046-6.524 14.569-14.57 14.569s-14.57-6.523-14.57-14.57" clip-rule="evenodd"/></svg>