<svg xmlns="http://www.w3.org/2000/svg" fill="none" viewBox="0 0 97 97"><path fill="#CED2DB" d="M.008 42.42h24.239v2.033H.007V42.42Z"/><path fill="#0052FF" d="M48.5 60.624c6.696 0 12.124-5.428 12.124-12.124 0-6.696-5.428-12.124-12.124-12.124-6.696 0-12.124 5.428-12.124 12.124 0 6.696 5.428 12.124 12.124 12.124Z"/><path fill="#FFFFFF" d="M42.033 84.067a9.677 9.677 0 0 0-9.7 9.7c0-5.376-4.325-9.7-9.7-9.7 5.375 0 9.7-4.325 9.7-9.7 0 5.375 4.365 9.7 9.7 9.7Z"/><path fill="#CED2DB" fill-rule="evenodd" d="M42.443 24.253c-10.046 0-18.19 8.144-18.19 18.19H-.001C0 19.003 19.002 0 42.443 0H64.67v24.253H42.443Z" clip-rule="evenodd"/><path fill="#FFD200" d="M64.678 0c-6.696 0-12.125 5.428-12.125 12.124 0 6.697 5.429 12.125 12.125 12.125s12.124-5.428 12.124-12.124C76.802 5.427 71.374 0 64.678 0Z"/><path fill="#00D17F" d="M12.125 32.333C5.429 32.333 0 37.76 0 44.457 0 51.153 5.429 56.58 12.125 56.58s12.124-5.428 12.124-12.124c0-6.696-5.428-12.124-12.124-12.124Z"/><path fill="#0A0B0D" d="m41.226 4.027-1.429 1.43 5.456 5.455c-18.409.008-33.33 14.934-33.33 33.344v.202h2.021v-.202c0-17.294 14.017-31.316 31.31-31.323l-5.457 5.457 1.43 1.429 7.895-7.896-7.896-7.896Z"/><path fill="#0052FF" fill-rule="evenodd" d="M0 44.457c0-6.697 5.43-12.124 12.126-12.124S24.25 37.761 24.25 44.457H.001Z" clip-rule="evenodd"/><path fill="#FFFFFF" d="M74.377 12.125a9.677 9.677 0 0 0-9.7 9.7c0-5.376-4.325-9.7-9.7-9.7 5.375 0 9.7-4.325 9.7-9.7 0 5.375 4.365 9.7 9.7 9.7Z"/><path fill="#CED2DB" fill-rule="evenodd" d="M54.557 72.747c10.046 0 18.19-8.144 18.19-18.19h24.254C97 77.997 77.998 97 54.557 97H32.33V72.747h22.227Z" clip-rule="evenodd"/><path fill="#FFD200" d="M32.322 97c6.696 0 12.125-5.428 12.125-12.124 0-6.697-5.429-12.125-12.125-12.125s-12.124 5.428-12.124 12.124C20.198 91.573 25.626 97 32.322 97Z"/><path fill="#00D17F" d="M84.875 64.668C91.571 64.668 97 59.239 97 52.543S91.572 40.42 84.876 40.42c-6.696 0-12.124 5.428-12.124 12.124 0 6.696 5.428 12.125 12.124 12.125Z"/><path fill="#0A0B0D" d="m47.878 85.077 7.896 7.896 1.429-1.43-5.456-5.455c18.409-.007 33.33-14.933 33.33-33.344v-.202h-2.02v.202c0 17.295-14.017 31.316-31.31 31.323l5.456-5.457-1.429-1.428-7.896 7.895Z"/><path fill="#0052FF" fill-rule="evenodd" d="M97 52.543c0 6.696-5.429 12.124-12.125 12.124S72.751 59.24 72.751 52.543h24.248Z" clip-rule="evenodd"/><path fill="#FFFFFF" d="M22.623 84.875c5.376 0 9.7-4.324 9.7-9.7 0 5.376 4.325 9.7 9.7 9.7a9.677 9.677 0 0 0-9.7 9.7c0-5.375-4.365-9.7-9.7-9.7Z"/></svg>