<svg xmlns="http://www.w3.org/2000/svg" fill="none" viewBox="0 0 96 96"><path fill="#5DE2F8" d="M96 16a3.2 3.2 0 0 0-3.2-3.2H3.2A3.2 3.2 0 0 0 0 16v64a3.2 3.2 0 0 0 3.2 3.2h89.6A3.2 3.2 0 0 0 96 80z"/><path fill="#CED2DB" d="M51.2 0H6.4v12.8h44.8z"/><path fill="#0052FF" d="M51.2 12.8H6.4v57.6h44.8zm38.4 12.8h-32v57.6h32z"/><path fill="#CED2DB" d="M89.6 83.2h-32V96h32z"/><path fill="#5DE2F8" d="M16 51.2c0-7.07 5.73-12.8 12.8-12.8s12.8 5.73 12.8 12.8V64H16z"/><path fill="#5DE2F8" d="M38.4 28.8a9.6 9.6 0 1 1-19.2 0 9.6 9.6 0 0 1 19.2 0"/><path fill="#FFFFFF" d="M86.4 54.4c0 7.07-5.73 12.8-12.8 12.8-7.068 0-12.8-5.73-12.8-12.8s5.731-12.8 12.8-12.8 12.8 5.73 12.8 12.8"/><path fill="#0A0B0D" d="m80.113 50.976-1.468-1.501-7.627 7.457-3.263-3.19-1.468 1.5 4.731 4.627z"/></svg>