<svg xmlns="http://www.w3.org/2000/svg" fill="none" viewBox="0 0 97 97"><path fill="#CED2DB" fill-rule="evenodd" d="M0 61.112V30.744a50.117 50.117 0 0 1 32.333 46.855H6.466A24.25 24.25 0 0 0 0 61.112Z" clip-rule="evenodd"/><path fill="#CED2DB" d="M64.666 56.581H40.415V97h24.252V56.581Z"/><path fill="#0052FF" d="M32.334 77.6H6.466V97h25.867V77.6Z"/><path fill="#CED2DB" d="M97 40.415H72.748V97h24.254V40.415Z"/><path fill="#5DE2F8" fill-rule="evenodd" d="M84.066 0a77.6 77.6 0 0 0-77.6 77.6h25.867a51.734 51.734 0 0 1 51.733-51.733V0Z" clip-rule="evenodd"/><path fill="#0052FF" fill-rule="evenodd" d="M32.334 77.588A50.117 50.117 0 0 0 15.91 40.5a77.609 77.609 0 0 0-9.443 37.09v.01h25.867v-.012Z" clip-rule="evenodd"/><path fill="#00D17F" d="M84.066 0A12.902 12.902 0 0 1 97 12.933a12.902 12.902 0 0 1-12.934 12.934V0Z"/><path fill="#0052FF" d="M84.066 25.867a12.902 12.902 0 0 1-12.933-12.934A12.902 12.902 0 0 1 84.066 0v25.867Z"/></svg>