<svg xmlns="http://www.w3.org/2000/svg" fill="none" viewBox="0 0 96 96"><path fill="#CED2DB" d="M84.47 20h-40v76h40z"/><path fill="#0052FF" d="M64.47 40c11.046 0 20-8.954 20-20s-8.954-20-20-20-20 8.954-20 20 8.955 20 20 20"/><path fill="#FFD200" d="M44.47 20c0-11.05 8.95-20 20-20s20 8.95 20 20"/><path fill="#3CC28A" d="M96 76V27L44.47 60.22 20 76"/><path fill="#0052FF" d="M20 96c11.046 0 20-8.954 20-20s-8.954-20-20-20S0 64.954 0 76s8.954 20 20 20"/><path fill="#0052FF" d="M20 96c11.046 0 20-8.954 20-20s-8.954-20-20-20S0 64.954 0 76s8.954 20 20 20"/><path fill="#0A0B0E" d="M40 76.01H20l16.81-10.83C38.83 68.3 40 72.01 40 76.01"/><path stroke="#FFFFFE" stroke-miterlimit="10" stroke-width="2" d="M9.19 69.41c0-2.21 1.79-4 4-4s4 1.79 4 4-1.79 4-4 4-4-1.79-4-4Z" clip-rule="evenodd"/><path stroke="#FFFFFE" stroke-miterlimit="10" stroke-width="2" d="m11.08 86.2 17.53-20.4"/><path stroke="#FFFFFE" stroke-miterlimit="10" stroke-width="2" d="M22.8 82.01c0-2.21 1.79-4 4-4s4 1.79 4 4-1.79 4-4 4-4-1.79-4-4Z" clip-rule="evenodd"/><path fill="#0052FF" d="M44.47 76.01V60.22l40-25.78v41.57z"/><path fill="#FFFFFE" d="M64.47 9.41c2.45 4.47 6.12 8.15 10.6 10.6a26.7 26.7 0 0 0-10.6 10.6 26.7 26.7 0 0 0-10.6-10.6c4.47-2.45 8.15-6.12 10.6-10.6"/></svg>