<svg xmlns="http://www.w3.org/2000/svg" fill="none" viewBox="0 0 97 97"><path fill="#CED2DB" fill-rule="evenodd" d="M0 61.113v-30.37q.701.267 1.395.554A50.12 50.12 0 0 1 32.333 77.6H6.466A24.25 24.25 0 0 0 0 61.112" clip-rule="evenodd"/><path fill="#CED2DB" d="M64.667 56.581H40.415V97h24.252z"/><path fill="#0052FF" d="M32.334 77.6H6.467V97h25.867z"/><path fill="#CED2DB" d="M97 40.415H72.748V97h24.254z"/><path fill="#5DE2F8" fill-rule="evenodd" d="M84.066 0a77.6 77.6 0 0 0-77.6 77.6h25.867a51.734 51.734 0 0 1 51.733-51.733z" clip-rule="evenodd"/><path fill="#0052FF" fill-rule="evenodd" d="M32.334 77.588A50.12 50.12 0 0 0 15.91 40.5a77.6 77.6 0 0 0-9.443 37.09v.01h25.867z" clip-rule="evenodd"/><path fill="#3CC28A" d="M84.066 0A12.9 12.9 0 0 1 97 12.933a12.9 12.9 0 0 1-12.934 12.934z"/><path fill="#0052FF" d="M84.066 25.867a12.9 12.9 0 0 1-12.933-12.934A12.9 12.9 0 0 1 84.066 0z"/></svg>