<svg xmlns="http://www.w3.org/2000/svg" fill="none" viewBox="0 0 97 97"><g clip-path="url(#a)"><path fill="#0052FF" fill-rule="evenodd" d="M1.28 48.53c0-11.11 8.07-23.45 15.93-31.3l10.63 10.6a29 29 0 0 0 41 41L81 81c-7.86 7.86-14.31 12.19-25.42 12.19s-27.29.09-35.14-7.77S1.28 59.64 1.28 48.53" clip-rule="evenodd"/><path fill="#5DE2F8" d="M22.72 22.56a36.334 36.334 0 1 0 51.4 51.37z"/><path fill="#CED2DB" fill-rule="evenodd" d="M82.52 14.16a48.33 48.33 0 1 0-68.35 68.35 48.33 48.33 0 0 0 68.35-68.35M18.72 78a41.89 41.89 0 0 1 0-59.24l9.11 9.12a29 29 0 0 1 41 41L78 78a41.89 41.89 0 0 1-59.28 0" clip-rule="evenodd"/><path fill="#CED2DB" fill-rule="evenodd" d="M89.61 47.72v.94c-.01-.32 0-.66 0-.94" clip-rule="evenodd"/><path fill="#0A0B0E" fill-rule="evenodd" d="M62.31 14.61a36.6 36.6 0 0 0-14-2.78h-1.03v37.56h37.56v-1.06a36.49 36.49 0 0 0-22.53-33.72M49.4 47.28V14a34.38 34.38 0 0 1 33.31 33.28z" clip-rule="evenodd"/><path fill="#FFD200" d="M62 62a19.342 19.342 0 0 0-5.959-32.063 19.34 19.34 0 0 0-21.38 4.733z"/><path fill="#0052FF" d="M34.66 34.67A19.34 19.34 0 0 0 62 62z"/><path fill="#0052FF" fill-rule="evenodd" d="M14.16 82.51a48.35 48.35 0 0 0 68.36 0L77 77c-16.36 16.36-39.83 15.56-56.19-.8S3.1 35.82 19.46 19.46l-5.3-5.3-.1.1a48.34 48.34 0 0 0 .1 68.25" clip-rule="evenodd"/><path fill="#0A0B0D" fill-rule="evenodd" d="M49.4 96.65V76.28h-1.09A28 28 0 0 1 20.4 48.33v-1H0v2.11h18.3a30.06 30.06 0 0 0 29 29v18.22c.7.01 1.39.01 2.1-.01" clip-rule="evenodd"/></g><defs><clipPath id="a"><path fill="#FFFFFF" d="M0 0h97v97H0z"/></clipPath></defs></svg>