<svg xmlns="http://www.w3.org/2000/svg" fill="none" viewBox="0 0 96 96"><path fill="#CED2DB" fill-rule="evenodd" d="M84 49.306A27.892 27.892 0 0 1 72 52c-4.294 0-8.363-.967-12-2.694V64h24V49.306Z" clip-rule="evenodd"/><path fill="#73A2FF" d="M52 64h8v32h-8V64Zm32 0h8v32h-8V64Z"/><path fill="#0052FF" d="M60 64h24v32H60V64Z"/><path fill="#5DE2F8" d="M0 80h40v16H0V80Z"/><path fill="#0A0B0D" fill-rule="evenodd" d="M0 87h40v2H0v-2Zm52 0h40v2H52v-2Zm0-8h40v2H52v-2Zm0-8h40v2H52v-2Z" clip-rule="evenodd"/><path fill="#73A2FF" d="M96 24c0 13.255-10.745 24-24 24S48 37.255 48 24 58.745 0 72 0s24 10.745 24 24Z"/><path fill="#0052FF" d="M60 44.79V24h24v20.79A23.89 23.89 0 0 1 72 48a23.89 23.89 0 0 1-12-3.21Z"/><path fill="#5DE2F8" d="M72 6v36l12-18L72 6Z"/><path fill="#FFFFFF" d="M72 6v36L60 24 72 6Z"/><path fill="#0052FF" d="M72 18.038v13.5L60 24l12-5.962Z"/><path fill="#0A0B0D" d="M72 18.038v13.5L84 24l-12-5.962ZM16 68a4 4 0 1 1-8 0 4 4 0 0 1 8 0Zm28-12a4 4 0 1 1-8 0 4 4 0 0 1 8 0Z"/><path fill="#5DE2F8" d="m36 4 1.415 6.585L44 12l-6.585 1.415L36 20l-1.415-6.585L28 12l6.585-1.415L36 4Z"/><path fill="#CED2DB" d="M19 37v3h2v-3h3v-2h-3v-3h-2v3h-3v2h3Z"/><path fill="#0A0B0D" d="M53.29 44.831a28.191 28.191 0 0 1-2.12-2.121L39.145 54.735 11.41 66.62l1.182 2.758 28.265-12.114L53.291 44.83Z"/></svg>