<svg xmlns="http://www.w3.org/2000/svg" fill="none" viewBox="0 0 96 96"><path fill="#101114" fill-rule="evenodd" d="M30 66.8V55.6h-1.6v12.8h18v-1.6H30Z" clip-rule="evenodd"/><path fill="#CED2DB" d="M12.8 19.2H64v35.2H12.8V19.2Z"/><path fill="#FFD200" d="M83.2 64c0 10.604-8.595 19.2-19.2 19.2-10.603 0-19.2-8.596-19.2-19.2S53.398 44.8 64 44.8c10.605 0 19.2 8.596 19.2 19.2Z"/><path fill="#0052FF" fill-rule="evenodd" d="M64 44.8v9.6H47.37c3.319-5.739 9.524-9.6 16.63-9.6Z" clip-rule="evenodd"/><path fill="#CED2DB" d="m24 12.8-4.8 6.4h19.2l-4.8-6.4H24Z"/><path fill="#0A0B0D" fill-rule="evenodd" d="M64 50.4c-7.51 0-13.6 6.089-13.6 13.6 0 7.511 6.09 13.6 13.6 13.6 7.512 0 13.6-6.089 13.6-13.6 0-7.511-6.088-13.6-13.6-13.6ZM48.8 64c0-8.395 6.806-15.2 15.2-15.2 8.395 0 15.2 6.805 15.2 15.2S72.396 79.2 64 79.2c-8.394 0-15.2-6.805-15.2-15.2Z" clip-rule="evenodd"/><path fill="#0A0B0D" fill-rule="evenodd" d="m70.567 58.166-12.4 12.4-1.132-1.132 12.4-12.4 1.132 1.132ZM68.4 66.4a1.2 1.2 0 1 0 0 2.4 1.2 1.2 0 0 0 0-2.4Zm-2.8 1.2a2.8 2.8 0 1 1 5.6 0 2.8 2.8 0 0 1-5.6 0Zm-6.001-9.2a1.2 1.2 0 1 0 0 2.4 1.2 1.2 0 0 0 0-2.4Zm-2.8 1.2a2.8 2.8 0 1 1 5.6 0 2.8 2.8 0 0 1-5.6 0Z" clip-rule="evenodd"/><path fill="#00D17F" d="M49.6 36.8c0 6.186-5.015 11.2-11.2 11.2-6.186 0-11.2-5.014-11.2-11.2 0-6.186 5.014-11.2 11.2-11.2 6.185 0 11.2 5.014 11.2 11.2Z"/><path fill="#FFFFFF" fill-rule="evenodd" d="M38.4 26.4c-5.743 0-10.4 4.656-10.4 10.4 0 5.744 4.657 10.4 10.4 10.4 5.744 0 10.4-4.656 10.4-10.4 0-5.744-4.656-10.4-10.4-10.4Zm-12 10.4c0-6.627 5.373-12 12-12 6.628 0 12 5.373 12 12 0 6.628-5.372 12-12 12-6.627 0-12-5.372-12-12Z" clip-rule="evenodd"/><path fill="#101114" fill-rule="evenodd" d="m29.2 54.069 8.167 8.165-1.132 1.132-7.034-7.035-7.035 7.035-1.13-1.132L29.2 54.07Z" clip-rule="evenodd"/><path fill="#0A0B0D" fill-rule="evenodd" d="M44.566 33.366 36.4 41.53l-4.166-4.165 1.132-1.132L36.4 39.27l7.034-7.035 1.132 1.132Z" clip-rule="evenodd"/></svg>