<svg xmlns="http://www.w3.org/2000/svg" fill="none" viewBox="0 0 96 96"><path fill="#CED2DB" d="M12.8 19.2H64v35.2H12.8V19.2Z"/><path fill="#101114" fill-rule="evenodd" d="M29.6 66.8V38.4H28v30h18v-1.6H29.6Z" clip-rule="evenodd"/><path fill="#FFD200" d="M83.2 64a19.2 19.2 0 1 1-38.4 0 19.2 19.2 0 0 1 38.4 0Z"/><path fill="#0052FF" fill-rule="evenodd" d="M64 44.8v9.6H47.37A19.2 19.2 0 0 1 64 44.8Z" clip-rule="evenodd"/><path fill="#CED2DB" d="m24 12.8-4.8 6.4h19.2l-4.8-6.4H24Z"/><path fill="#0A0B0D" fill-rule="evenodd" d="M64 50.4a13.6 13.6 0 1 0 0 27.2 13.6 13.6 0 0 0 0-27.2ZM48.8 64a15.2 15.2 0 1 1 30.4 0 15.2 15.2 0 0 1-30.4 0Z" clip-rule="evenodd"/><path fill="#0A0B0D" fill-rule="evenodd" d="m70.57 58.17-12.4 12.4-1.13-1.14 12.4-12.4 1.13 1.14ZM68.4 66.4a1.2 1.2 0 1 0 0 2.4 1.2 1.2 0 0 0 0-2.4Zm-2.8 1.2a2.8 2.8 0 1 1 5.6 0 2.8 2.8 0 0 1-5.6 0Zm-6-9.2a1.2 1.2 0 1 0 0 2.4 1.2 1.2 0 0 0 0-2.4Zm-2.8 1.2a2.8 2.8 0 1 1 5.6 0 2.8 2.8 0 0 1-5.6 0Z" clip-rule="evenodd"/><path fill="#101114" fill-rule="evenodd" d="m28.8 37.27 8.17 8.16-1.14 1.14-7.03-7.04-7.03 7.04-1.14-1.14 8.17-8.16Z" clip-rule="evenodd"/></svg>