<svg xmlns="http://www.w3.org/2000/svg" fill="none" viewBox="0 0 96 96"><g clip-path="url(#a)"><path fill="#CED2DB" d="M96 0v96H0L96 0Z"/><path fill="#CED2DB" d="M16 48h64v48H16V48Z"/><path fill="#0052FF" fill-rule="evenodd" d="m16 80 32-32h32v48H16V80Z" clip-rule="evenodd"/><path fill="#0A0B0D" fill-rule="evenodd" d="M63 96V64h2v32h-2Zm-16 0V64h2v32h-2Zm-16 0V64h2v32h-2Z" clip-rule="evenodd"/><path fill="#FFD200" d="M16 48c0-17.673 14.327-32 32-32 17.673 0 32 14.327 32 32 0 17.673-14.327 32-32 32-17.673 0-32-14.327-32-32Z"/><path fill="#FFD200" d="M26.667 48c0-11.782 9.552-21.333 21.334-21.333S69.334 36.217 69.334 48c0 11.782-9.551 21.333-21.333 21.333-11.782 0-21.334-9.55-21.334-21.333Z"/><path fill="#0A0B0D" fill-rule="evenodd" d="M24.667 48c0-12.887 10.447-23.333 23.334-23.333 12.886 0 23.333 10.446 23.333 23.333 0 12.887-10.447 23.333-23.333 23.333-12.887 0-23.334-10.446-23.334-23.333Zm23.334-21.333c-11.782 0-21.334 9.55-21.334 21.333 0 11.782 9.552 21.333 21.334 21.333S69.334 59.783 69.334 48c0-11.782-9.551-21.333-21.333-21.333Z" clip-rule="evenodd"/><path fill="#00D17F" fill-rule="evenodd" d="M28 0c11.045 0 20 8.955 20 20s-8.955 20-20 20S8 31.045 8 20 16.955 0 28 0Zm0 29.574A28.147 28.147 0 0 0 18.428 20 28.148 28.148 0 0 0 28 10.426 28.147 28.147 0 0 0 37.572 20 28.147 28.147 0 0 0 28 29.574Z" clip-rule="evenodd"/><path fill="#00D17F" fill-rule="evenodd" d="M28 0c11.045 0 20 8.955 20 20s-8.955 20-20 20S8 31.045 8 20 16.955 0 28 0Zm0 29.574A28.147 28.147 0 0 0 18.428 20 28.148 28.148 0 0 0 28 10.426 28.147 28.147 0 0 0 37.572 20 28.147 28.147 0 0 0 28 29.574Z" clip-rule="evenodd"/><path fill="#0052FF" fill-rule="evenodd" d="M47.6 16.003c.261 1.291.4 2.628.4 3.997 0 11.045-8.956 20-20 20a19.907 19.907 0 0 1-10.146-2.761 32.008 32.008 0 0 1 7.269-11.615 28.104 28.104 0 0 1 2.876 3.95A28.148 28.148 0 0 1 37.571 20a28.048 28.048 0 0 1-2.148-1.434 31.879 31.879 0 0 1 12.176-2.563Z" clip-rule="evenodd"/><path fill="#5DE2F8" fill-rule="evenodd" d="M35.423 18.566a32.058 32.058 0 0 0-10.3 7.058 28.09 28.09 0 0 1 2.876 3.95A28.147 28.147 0 0 1 37.572 20a28.07 28.07 0 0 1-2.15-1.434Z" clip-rule="evenodd"/></g><defs><clipPath id="a"><path fill="#FFFFFF" d="M0 0h96v96H0z"/></clipPath></defs></svg>