<svg xmlns="http://www.w3.org/2000/svg" fill="none" viewBox="0 0 96 96"><path fill="#0A0B0D" fill-rule="evenodd" d="M77.207 1.969 19.36 13.919l-.404-1.958L76.802.011l.405 1.958Z" clip-rule="evenodd"/><path fill="#CED2DB" d="m19.201 12.8-12.8 38.4h25.6L19.2 12.8ZM76.8 0 64 38.4h25.6L76.8 0Z"/><path fill="#FFD200" d="M38.4 51.2a19.2 19.2 0 1 1-38.4 0h38.4Z"/><path fill="#5DE2F8" d="M96 38.4a19.201 19.201 0 0 1-36.939 7.348 19.2 19.2 0 0 1-1.462-7.348H96ZM32 50.884c0 7.07-5.73 12.8-12.799 12.8-7.07 0-12.8-5.73-12.8-12.8 0-7.069 5.73-12.8 12.8-12.8s12.8 5.731 12.8 12.8Z"/><path fill="#FFD200" d="M89.6 38.4c0 7.07-5.731 12.8-12.8 12.8-7.07 0-12.8-5.73-12.8-12.8s5.73-12.8 12.8-12.8c7.069 0 12.8 5.73 12.8 12.8Z"/><path fill="#0052FF" fill-rule="evenodd" d="M19.201 64c7.07 0 12.8-5.73 12.8-12.8H6.4c0 7.07 5.73 12.8 12.8 12.8ZM76.8 51.2c7.069 0 12.8-5.73 12.8-12.8H64c0 7.07 5.73 12.8 12.8 12.8Z" clip-rule="evenodd"/><path fill="#CED2DB" d="M51.2 3.2A3.2 3.2 0 0 0 48 0"/><path fill="#0052FF" d="M32 95.815c0-8.85 7.15-16 16-16s16 7.15 16 16H32Z"/><path fill="#0A0B0D" fill-rule="evenodd" d="M19.201 57.884a7 7 0 1 0 0-14 7 7 0 0 0 0 14Zm0 2a9 9 0 1 0 0-18 9 9 0 0 0 0 18ZM76.8 45.4a7 7 0 1 0 0-14 7 7 0 0 0 0 14Zm0 2a9 9 0 1 0 0-18 9 9 0 0 0 0 18Z" clip-rule="evenodd"/></svg>