<svg xmlns="http://www.w3.org/2000/svg" fill="none" viewBox="0 0 96 96"><path fill="#CED2DB" d="M25.6 51.2H64v32H25.6v-32Z"/><path fill="#FFD200" d="M60.8 51.2a16 16 0 1 1-32 0 16 16 0 0 1 32 0Z"/><path fill="#0052FF" fill-rule="evenodd" d="M44.8 67.2a16 16 0 0 0 16-16h-32a16 16 0 0 0 16 16Z" clip-rule="evenodd"/><path fill="#0A0B0D" fill-rule="evenodd" d="M44.8 40.8a10.4 10.4 0 0 0-10.4 10.4h-1.6a12 12 0 0 1 24 0h-1.6a10.4 10.4 0 0 0-10.4-10.4Zm0 20.8a10.4 10.4 0 0 0 10.4-10.4h1.6a12 12 0 0 1-24 0h1.6a10.4 10.4 0 0 0 10.4 10.4Z" clip-rule="evenodd"/><path fill="#CED2DB" d="M12.8 28.46 57.4 16.5l2.38 8.92L15.2 37.37l-2.39-8.91Z"/><path fill="#101114" fill-rule="evenodd" d="M20.82 20.7a2.79 2.79 0 0 1 2.9-1.27l11.53 2.27-.04 1.57-11.63 1.66c-2.34.33-4-2.22-2.76-4.23Zm2.6.3a1.19 1.19 0 1 0-.06 2.34l6.94-.99L23.42 21Z" clip-rule="evenodd"/><path fill="#101114" fill-rule="evenodd" d="M46.57 13.8a2.79 2.79 0 0 0-3.15.36l-8.85 7.72.83 1.34 10.89-4.38a2.79 2.79 0 0 0 .28-5.04Zm-2.1 1.56a1.19 1.19 0 1 1 1.22 2l-6.5 2.61 5.28-4.6Z" clip-rule="evenodd"/><path fill="#0A0B0D" fill-rule="evenodd" d="m36.71 31.6-2.39-8.91 1.55-.42 2.39 8.92-1.55.42ZM44 82.8V67.2h1.6v15.6H44Z" clip-rule="evenodd"/><path fill="#0A0B0D" fill-rule="evenodd" d="m44.77 81.78-6.07-6.07-1.13 1.13 7.2 7.2 7.2-7.2-1.13-1.13-6.07 6.07Z" clip-rule="evenodd"/><path fill="#00D17F" d="M83.44 39.63a6.92 6.92 0 0 0-6.93 6.93c0-3.83-3.1-6.93-6.92-6.93 3.82 0 6.92-3.1 6.92-6.92 0 3.82 3.1 6.92 6.93 6.92Z"/><path fill="#5DE2F8" d="M71.9 30.11a4.62 4.62 0 0 0-4.62 4.62 4.62 4.62 0 0 0-4.62-4.62 4.62 4.62 0 0 0 4.62-4.61 4.62 4.62 0 0 0 4.61 4.61Z"/><path fill="#0A0B0D" fill-rule="evenodd" d="M44.2 67.2v-16h1.2v16h-1.2Z" clip-rule="evenodd"/></svg>