<svg xmlns="http://www.w3.org/2000/svg" fill="none" viewBox="0 0 96 96"><g clip-path="url(#a)"><path fill="#0052FF" d="M39.887 40h56v56h-56z"/><path fill="#FFD200" d="M63.887 56h8v32h-8z"/><path fill="#3CC28A" d="M47.887 72h8v16h-8z"/><path fill="#5DE2F8" d="M79.887 48h8v40h-8z"/><path fill="#CED2DB" d="M-.113 0h56v64h-56z"/><path fill="#0A0B0D" fill-rule="evenodd" d="M55.887 40v24h-16V40z" clip-rule="evenodd"/><path fill="#FFFFFF" d="M7.887 8h39v48h-39z"/><path fill="#0A0B0D" fill-rule="evenodd" d="M45.665 10.182H10.109v43.636h35.555zM7.886 8v48h40V8z" clip-rule="evenodd"/><path fill="#FFD200" d="M34.25 31.364a9 9 0 1 1-12.727-12.728A9 9 0 0 1 34.25 31.364"/><path fill="#5DE2F8" d="M34.25 45.364a9 9 0 1 1-12.727-12.728A9 9 0 0 1 34.25 45.364"/><path fill="#0052FF" d="M33.545 32a9 9 0 0 1-11.317 0 9 9 0 0 1 11.316 0"/></g><defs><clipPath id="a"><path fill="#FFFFFF" d="M0 0h96v96H0z"/></clipPath></defs></svg>