<svg xmlns="http://www.w3.org/2000/svg" fill="none" viewBox="0 0 96 96"><g clip-path="url(#a)"><path fill="#CED2DB" d="m95.522 0-48 48-48 48h96z"/><path fill="#3CC28A" d="M23.522 56h-16v32h16z"/><path fill="#0052FF" d="M7.521 88h16V72z"/><path fill="#3CC28A" d="M55.522 32h-16v32h16z"/><path fill="#0052FF" d="M39.522 56v8h16V40z"/><path fill="#3CC28A" d="M87.522 8h-16v32h16z"/><path fill="#0052FF" d="M71.522 24v16h16V8z"/><path fill="#0A0B0D" d="M16.522 48h-2v8h2zm32-24h-2v8h2zm32-24h-2v8h2zm-64 88h-2v8h2zm32-24h-2v8h2zm32-24h-2v8h2z"/></g><defs><clipPath id="a"><path fill="#FFFFFF" d="M0 0h96v96H0z"/></clipPath></defs></svg>