<svg xmlns="http://www.w3.org/2000/svg" fill="none" viewBox="0 0 96 96"><path fill="#CED2DB" d="M88 0H8v76h80z"/><path fill="#0A0B0D" fill-rule="evenodd" d="M36 12h36v2H36zm0 11h36v2H36zm0 11h36v2H36zm0 11h36v2H36z" clip-rule="evenodd"/><path fill="#5DE2F8" d="M28 76c0-11.046 8.954-20 20-20s20 8.954 20 20-8.954 20-20 20-20-8.954-20-20"/><path fill="#0052FF" d="M68 76c0-11.046-8.954-20-20-20s-20 8.954-20 20z"/><path fill="#0A0B0D" fill-rule="evenodd" d="M35.5 75.5c0 6.673 5.596 12.083 12.5 12.083s12.5-5.41 12.5-12.083S54.904 63.417 48 63.417 35.5 68.827 35.5 75.5M48 61c-8.284 0-15 6.492-15 14.5S39.716 90 48 90s15-6.492 15-14.5S56.284 61 48 61" clip-rule="evenodd"/><circle cx="26" cy="13" r="2" fill="#0A0B0D"/><circle cx="26" cy="24" r="2" fill="#0A0B0D"/><circle cx="26" cy="35" r="2" fill="#0A0B0D"/><circle cx="26" cy="46" r="2" fill="#0A0B0D"/></svg>