<svg xmlns="http://www.w3.org/2000/svg" fill="none" viewBox="0 0 96 96"><g clip-path="url(#a)"><path fill="#CED2DB" d="m95.522 0-48 48-48 48h96V0Z"/><path fill="#00D17F" d="M23.521 56h-16v32h16V56Z"/><path fill="#0052FF" d="M7.521 88h16V72l-16 16Z"/><path fill="#00D17F" d="M55.522 32h-16v32h16V32Z"/><path fill="#0052FF" d="M39.522 56v8h16V40l-16 16Z"/><path fill="#00D17F" d="M87.522 8h-16v32h16V8Z"/><path fill="#0052FF" d="M71.522 24v16h16V8l-16 16Z"/><path fill="#0A0B0D" d="M16.521 48h-2v8h2v-8Zm32.001-24h-2v8h2v-8Zm32-24h-2v8h2V0ZM16.521 88h-2v8h2v-8Zm32.001-24h-2v8h2v-8Zm32-24h-2v8h2v-8Z"/></g><defs><clipPath id="a"><path fill="#FFFFFF" d="M0 0h96v96H0z"/></clipPath></defs></svg>