<svg xmlns="http://www.w3.org/2000/svg" fill="none" viewBox="0 0 96 96"><g clip-path="url(#a)"><path fill="#CED2DB" d="M56.004 0h40v96h-40V0Z"/><path fill="#FFD200" d="M48.004 16c17.673 0 32 14.327 32 32 0 17.673-14.327 32-32 32-17.673 0-32-14.327-32-32 0-17.673 14.327-32 32-32Z"/><path fill="#0A0B0D" fill-rule="evenodd" d="M48.004 73.04c13.807 0 25-11.194 25-25 0-13.808-11.193-25-25-25s-25 11.192-25 25c0 13.806 11.193 25 25 25Zm0 2c14.912 0 27-12.09 27-27 0-14.913-12.088-27-27-27s-27 12.087-27 27c0 14.91 12.088 27 27 27Z" clip-rule="evenodd"/><path fill="#CED2DB" d="M48.004 0h48v96h-48V0Z"/><path fill="#FFD200" d="M48.004 16c17.673 0 32 14.327 32 32 0 17.673-14.327 32-32 32-17.673 0-32-14.327-32-32 0-17.673 14.327-32 32-32Z"/><path fill="#0052FF" d="M48.004 80c17.673 0 32-14.327 32-32 0-17.673-14.327-32-32-32v64Z"/><path fill="#0A0B0D" fill-rule="evenodd" d="M48.004 73.04c13.807 0 25-11.194 25-25 0-13.808-11.193-25-25-25s-25 11.192-25 25c0 13.806 11.193 25 25 25Zm0 2c14.912 0 27-12.09 27-27 0-14.913-12.088-27-27-27s-27 12.087-27 27c0 14.91 12.088 27 27 27Z" clip-rule="evenodd"/><path fill="#0A0B0D" fill-rule="evenodd" d="M59.004 48h-59v-2h59v2Z" clip-rule="evenodd"/><path fill="#0A0B0D" fill-rule="evenodd" d="m58.21 47-7.206-6.7L52.4 39l8.603 8-8.603 8-1.397-1.3 7.205-6.7Z" clip-rule="evenodd"/></g><defs><clipPath id="a"><path fill="#FFFFFF" d="M0 0h96v96H0z"/></clipPath></defs></svg>