<svg xmlns="http://www.w3.org/2000/svg" fill="none" viewBox="0 0 96 96"><g clip-path="url(#a)"><path fill="#101114" d="M71.074 28.646V0h2v28.646l6.219-6.219 1.414 1.415-8.628 8.628-.005-.004-.004.004-8.629-8.628 1.415-1.415 6.218 6.219Z"/><path fill="#CED2DB" fill-rule="evenodd" d="M0 48a48 48 0 0 0 96 0H84.923A36.922 36.922 0 0 1 48 84.923v-8.112a28.825 28.825 0 0 0 28.825-28.825h-70.4V48H0Z" clip-rule="evenodd"/><path fill="#0052FF" d="M67.992 48A19.99 19.99 0 0 1 40.35 66.47 19.993 19.993 0 0 1 28.007 48h39.985Z"/><path fill="#FFD200" d="M28.008 48a19.991 19.991 0 0 1 34.13-14.137A19.994 19.994 0 0 1 67.992 48H28.008Z"/><path fill="#5DE2F8" d="M0 84c0 6.627 5.373 12 12 12s12-5.373 12-12-5.373-12-12-12S0 77.373 0 84Z"/><path fill="#00D17F" fill-rule="evenodd" d="M22.939 88.939A11.956 11.956 0 0 0 23.999 84c0-6.627-5.372-12-12-12-1.76 0-3.432.38-4.938 1.06a47.998 47.998 0 0 0 15.878 15.88Z" clip-rule="evenodd"/><path fill="#0A0B0D" fill-rule="evenodd" d="M48.005 61.885c7.7 0 13.942-6.242 13.942-13.943 0-7.7-6.242-13.942-13.942-13.942s-13.943 6.242-13.943 13.942 6.243 13.943 13.943 13.943Zm0 2c8.805 0 15.942-7.138 15.942-15.943C63.947 39.138 56.81 32 48.005 32s-15.943 7.138-15.943 15.942c0 8.805 7.138 15.943 15.943 15.943Z" clip-rule="evenodd"/></g><defs><clipPath id="a"><path fill="#FFFFFF" d="M0 0h96v96H0z"/></clipPath></defs></svg>