<svg xmlns="http://www.w3.org/2000/svg" fill="none" viewBox="0 0 96 96"><g clip-path="url(#a)"><path fill="#0A0B0E" d="M71.074 28.646V0h2v28.646l6.219-6.219 1.414 1.415-8.628 8.628-.005-.004-.004.004-8.629-8.628 1.415-1.415z"/><path fill="#CED2DB" fill-rule="evenodd" d="M0 48a48 48 0 0 0 96 0H84.923A36.92 36.92 0 0 1 48 84.923V76.81a28.825 28.825 0 0 0 28.825-28.825h-70.4V48z" clip-rule="evenodd"/><path fill="#0052FF" d="M67.992 48a19.992 19.992 0 1 1-39.985 0z"/><path fill="#FFD200" d="M28.008 48a19.992 19.992 0 1 1 39.985 0z"/><path fill="#5DE2F8" d="M0 84c0 6.627 5.373 12 12 12s12-5.373 12-12-5.373-12-12-12S0 77.373 0 84"/><path fill="#00D17F" fill-rule="evenodd" d="M22.939 88.939A12 12 0 0 0 23.999 84c0-6.627-5.372-12-12-12-1.76 0-3.432.38-4.938 1.06a48 48 0 0 0 15.878 15.88" clip-rule="evenodd"/><path fill="#0A0B0D" fill-rule="evenodd" d="M48.005 61.885c7.7 0 13.942-6.242 13.942-13.943S55.705 34 48.005 34s-13.943 6.242-13.943 13.942 6.243 13.943 13.943 13.943m0 2c8.805 0 15.942-7.138 15.942-15.943S56.81 32 48.005 32s-15.943 7.138-15.943 15.942S39.2 63.885 48.006 63.885" clip-rule="evenodd"/></g><defs><clipPath id="a"><path fill="#FFFFFF" d="M0 0h96v96H0z"/></clipPath></defs></svg>