<svg xmlns="http://www.w3.org/2000/svg" fill="none" viewBox="0 0 96 97"><path fill="#CED2DB" d="M0 96h40V36.028H0z"/><path fill="#E66020" d="M40 36c0 11.083-8.917 20-20 20S0 47.083 0 36z"/><path fill="#0052FF" d="M0 36c0-11.083 8.917-20 20-20s20 8.917 20 20z"/><path fill="#CED2DB" d="M56 96h40V20.028H56z"/><path fill="#0052FF" d="M96 20c0 11.083-8.917 20-20 20s-20-8.917-20-20z"/><path fill="#0A0B0E" d="M56 20C56 8.917 64.917 0 76 0s20 8.917 20 20zM28.952 73.334 20 64.382l-8.952 8.951 1.485 1.485 6.417-6.416V96.25h2.1V68.402l6.417 6.416zm56-19.201L76 45.182l-8.952 8.951 1.485 1.485 6.417-6.416V96.25h2.1V49.2l6.417 6.417z"/></svg>