<svg xmlns="http://www.w3.org/2000/svg" fill="none" viewBox="0 0 96 96"><path fill="#CED2DB" d="M16 32h64v32H16V32Z"/><path fill="#0052FF" d="M80 64c0 17.673-14.327 32-32 32-17.673 0-32-14.327-32-32 0-17.673 14.327-32 32-32 17.673 0 32 14.327 32 32Z"/><path fill="#FFD200" d="M80 32c0 17.673-14.327 32-32 32-17.673 0-32-14.327-32-32C16 14.327 30.327 0 48 0c17.673 0 32 14.327 32 32Z"/><path fill="#0A0B0D" d="M20.281 80C25.814 70.435 36.156 64 48 64c11.844 0 22.186 6.435 27.719 16C70.186 89.565 59.845 96 48 96c-11.844 0-22.186-6.435-27.719-16Z"/><path fill="#0A0B0D" fill-rule="evenodd" d="M37.467 19.106c-1.95 0-3.532 1.646-3.532 3.676 0 2.03 1.581 3.677 3.532 3.677 1.95 0 3.531-1.646 3.531-3.677 0-2.03-1.581-3.676-3.531-3.676ZM32 22.782c0-3.142 2.447-5.69 5.467-5.69 3.019 0 5.466 2.548 5.466 5.69 0 3.143-2.447 5.691-5.466 5.691-3.02 0-5.467-2.548-5.467-5.69Zm26.533 14.761c-1.95 0-3.531 1.646-3.531 3.676 0 2.03 1.58 3.676 3.531 3.676 1.95 0 3.531-1.646 3.531-3.676 0-2.03-1.58-3.676-3.53-3.676Zm-5.467 3.676c0-3.143 2.448-5.69 5.467-5.69 3.02 0 5.467 2.547 5.467 5.69 0 3.143-2.448 5.69-5.467 5.69-3.02 0-5.467-2.547-5.467-5.69Zm9.319-23.847L35.034 48l-1.418-1.372L60.967 16l1.418 1.372Z" clip-rule="evenodd"/></svg>