<svg xmlns="http://www.w3.org/2000/svg" fill="none" viewBox="0 0 96 96"><path fill="#CED2DB" d="m0 73.6 48-22.4 48 22.4L48 96z"/><path fill="#0A0B0E" d="M20.251 50.95h-2.1v22.9h2.1zm57.599 0h-2.1v22.9h2.1zm-28.8 12.8h-2.1v22.9h2.1z"/><path fill="#5DE2F8" d="M0 22.4 48 0l48 22.4-48 22.4z"/><path fill="#FFD200" d="m0 48 48-22.4L96 48 48 70.4z"/><path fill="#0052FF" fill-rule="evenodd" d="m68.57 60.8-20.572 9.6-20.571-9.6 20.571-9.6z" clip-rule="evenodd"/><path fill="#0A0B0D" fill-rule="evenodd" d="M68.652 35.243 48.001 44.8l-20.664-9.643L47.679 25.6z" clip-rule="evenodd"/><path fill="#0052FF" d="M27.2 35.078 48 70.4l20.8-35.322L48 25.6z"/><path fill="#0052FF" d="M27.2 35.078 48 70.4l20.8-35.322L48 25.6z"/><path fill="#0A0B0D" d="M68.8 35.07 48 0 27.2 35.07 48 44.8z"/><path fill="#0A0B0D" fill-rule="evenodd" d="M56.829 55.407 48 51.2l-8.926 4.042L48 70.4z" clip-rule="evenodd"/></svg>