<svg xmlns="http://www.w3.org/2000/svg" fill="none" viewBox="0 0 96 96"><path fill="#CED2DB" fill-rule="evenodd" d="M60.8 48A12.8 12.8 0 0 0 48 35.2V0a48 48 0 0 1 48 48H60.8Z" clip-rule="evenodd"/><path fill="#00D17F" fill-rule="evenodd" d="M35.2 48A12.8 12.8 0 0 0 48 60.8V96A48 48 0 0 1 0 48h35.2Z" clip-rule="evenodd"/><path fill="#101114" fill-rule="evenodd" d="M48 17a31 31 0 1 0 0 62 31 31 0 0 0 0-62ZM15 48a33 33 0 1 1 66 0 33 33 0 0 1-66 0Z" clip-rule="evenodd"/><path fill="#0052FF" d="M78.4 65.6a17.6 17.6 0 1 0 0-35.2 17.6 17.6 0 0 0 0 35.2Z"/><path fill="#FEFFFF" d="M78.4 50.4a5.6 5.6 0 1 0 0-11.2 5.6 5.6 0 0 0 0 11.2Z"/><path fill="#101114" fill-rule="evenodd" d="M89.6 61.59a17.61 17.61 0 0 1-22.4.01c.32-6.28 5.23-11.2 11.2-11.2 5.97 0 10.88 4.92 11.2 11.2Z" clip-rule="evenodd"/><path fill="#0A0B0D" d="M17.6 65.6a17.6 17.6 0 1 0 0-35.2 17.6 17.6 0 0 0 0 35.2Z"/><path fill="#0052FF" d="M0 48a17.6 17.6 0 0 1 35.2 0H0Z"/><path fill="#FFFFFF" d="M11.2 43.42c0-1.08.88-1.97 1.96-1.97h9.17c1.08 0 1.96.89 1.96 1.97v9.16c0 1.08-.88 1.97-1.96 1.97h-9.17a1.97 1.97 0 0 1-1.96-1.97v-9.16Z"/></svg>