<svg xmlns="http://www.w3.org/2000/svg" fill="none" viewBox="0 0 96 96"><path fill="#CED2DB" d="M76 48a28 28 0 1 0-56 0v48h56V48Z"/><path fill="#CED2DB" d="M32 27.79A16.1 16.1 0 0 0 48 44c8.84 0 16-7.26 16-16.21V0H32v27.79Z"/><path fill="#0052FF" d="M48 44c-8.84 0-16-7.26-16-16.21v-2.77A27.87 27.87 0 0 1 48 20a27.9 27.9 0 0 1 16 5.02v2.77A16.1 16.1 0 0 1 48 44Zm8 18.59c0-5.07 0-7.6 1-9.6a9.13 9.13 0 0 1 4-4c1.92-.99 4.46-.99 9.54-.99h10.84c5.08 0 7.62 0 9.62 1a9.13 9.13 0 0 1 4 3.99c1 1.92 1 4.45 1 9.6V73.4c0 5.07 0 7.6-1 9.6a9.13 9.13 0 0 1-4 4c-1.92.99-4.46.99-9.62.99H70.54c-5.08 0-7.62 0-9.62-1a9.13 9.13 0 0 1-4-3.99C56 81 56 78.47 56 73.4V62.6Z"/><path fill="#FFFFFF" d="M90 68c0 7.75-6.25 14-14 14s-14-6.25-14-14 6.25-14 14-14 14 6.25 14 14Z"/><path fill="#0052FF" d="M72 65.87c0-.64 0-1 .14-1.22.14-.22.28-.43.49-.5.27-.15.55-.15 1.25-.15h4.24c.7 0 .98 0 1.25.14.21.15.42.3.5.5.13.3.13.59.13 1.23v4.26c0 .64 0 1-.14 1.22-.14.22-.28.43-.49.5-.27.15-.55.15-1.25.15h-4.24c-.7 0-.98 0-1.25-.14-.21-.15-.42-.3-.5-.5-.13-.3-.13-.59-.13-1.23v-4.26ZM0 62.58c0-5.07 0-7.64 1.01-9.59A8.92 8.92 0 0 1 5 49.01C6.94 48 9.51 48 14.59 48h10.83c5.07 0 7.64 0 9.59 1.01A8.92 8.92 0 0 1 38.99 53C40 54.94 40 57.51 40 62.59v10.83c0 5.07 0 7.64-1.01 9.59A8.92 8.92 0 0 1 35 86.99C33.06 88 30.49 88 25.41 88H14.59C9.51 88 6.94 88 5 86.99A8.92 8.92 0 0 1 1.01 83C0 81.06 0 78.57 0 73.41V62.59Z"/><path fill="#FFFFFF" d="M20.04 73.75a5.1 5.1 0 0 1-4.98-5.25c0-2.9 2.26-5.25 4.98-5.25a5 5 0 0 1 4.9 4.39H30c-.45-5.4-4.75-9.64-9.96-9.64C14.53 58 10 62.7 10 68.5S14.45 79 20.04 79c5.28 0 9.5-4.23 9.96-9.64h-5.06a5.02 5.02 0 0 1-4.9 4.39ZM56 32c0 4.4-3.6 8-8 8s-8-3.6-8-8 3.6-8 8-8 8 3.6 8 8Z"/><path fill="#0A0B0D" fill-rule="evenodd" d="M44 32c0-1.12.88-2 2-2h1.6v.8H46c-.64 0-1.2.56-1.2 1.2 0 .64.56 1.2 1.2 1.2h1.6v.8H46c-1.04 0-2-.88-2-2Zm8 0c0-1.12-.88-2-2-2h-1.6v.8H50c.64 0 1.2.56 1.2 1.2 0 .64-.56 1.2-1.2 1.2h-1.6v.8H50c1.12 0 2-.88 2-2Z" clip-rule="evenodd"/><path fill="#0A0B0D" fill-rule="evenodd" d="M50 32.4h-4v-.8h4v.8Z" clip-rule="evenodd"/></svg>