<svg xmlns="http://www.w3.org/2000/svg" fill="none" viewBox="0 0 96 96"><path fill="#CED2DB" d="M96 16H16v80h80V16Z"/><path fill="#0052FF" d="M83 16H29v72h54V16Z"/><path fill="#CED2DB" fill-rule="evenodd" d="M56 2c-2.485 0-4.5 2.09-4.5 4.667h-18c-2.485 0-4.5 2.089-4.5 4.666V16h54v-4.667c0-2.577-2.015-4.666-4.5-4.666h-18C60.5 4.089 58.485 2 56 2Zm2.25 4.667C58.25 7.955 57.243 9 56 9s-2.25-1.045-2.25-2.333c0-1.289 1.007-2.334 2.25-2.334s2.25 1.045 2.25 2.334Z" clip-rule="evenodd"/><path fill="#5DE2F8" d="M4 8a4 4 0 0 1 4-4 4 4 0 0 1-4-4 4 4 0 0 1-4 4 4 4 0 0 1 4 4Z"/><path fill="#FFD200" d="M16 24a8 8 0 0 1 8-8 8 8 0 0 1-8-8 8 8 0 0 1-8 8 8 8 0 0 1 8 8Z"/><path fill="#0052FF" d="M23.885 16H16v7.885A8 8 0 0 1 23.885 16Z"/><path fill="#0A0B0D" fill-rule="evenodd" d="M36 31h24v2H36v-2Zm0 20h24v2H36v-2Zm0 20h24v2H36v-2Z" clip-rule="evenodd"/><path fill="#FFFFFF" fill-rule="evenodd" d="m77.14 29.4-6.505 6.831L67 32.671l1.42-1.449 2.164 2.12L75.671 28l1.47 1.4Zm0 19-6.505 6.831L67 51.671l1.42-1.449 2.164 2.12L75.671 47l1.47 1.4Zm0 21-6.505 6.831L67 72.671l1.42-1.449 2.164 2.12L75.671 68l1.47 1.4Z" clip-rule="evenodd"/></svg>