<svg xmlns="http://www.w3.org/2000/svg" fill="none" viewBox="0 0 96 96"><g clip-path="url(#a)"><path fill="#CED2DB" d="M16 24a8 8 0 0 1 8-8h48.001a8 8 0 0 1 8 8v72H16z"/><path fill="#CED2DB" d="M0 16h96.001v64H0z"/><path fill="#CED2DB" fill-rule="evenodd" d="M40 8H24a8 8 0 0 0-8 8h64a8 8 0 0 0-8-8H56a8 8 0 1 0-16 0m12 0a4 4 0 1 1-8 0 4 4 0 0 1 8 0" clip-rule="evenodd"/><path fill="#0052FF" d="M16 16h64.001v64H16z"/><path fill="#0A0B0D" fill-rule="evenodd" d="M72 49H24v-2h48z" clip-rule="evenodd"/><path stroke="#0A0B0D" stroke-width="2" d="M25 25h46v14H25z"/><path fill="#3CC28A" d="M48 92c8.837 0 16-7.164 16-16s-7.163-16-16-16-16 7.163-16 16 7.163 16 16 16"/><path fill="#FFFFFE" fill-rule="evenodd" d="M68 76c0 11.045-8.954 20-20 20s-20-8.955-20-20 8.954-20 20-20 20 8.954 20 20m-4 0c0 8.836-7.163 16-16 16s-16-7.164-16-16 7.163-16 16-16 16 7.163 16 16" clip-rule="evenodd"/><path fill="#0A0B0D" fill-rule="evenodd" d="m56.693 71.569-11.399 10.94-5.954-5.236 1.32-1.502 4.575 4.022 10.073-9.667z" clip-rule="evenodd"/></g><defs><clipPath id="a"><path fill="#FFFFFF" d="M0 0h96v96H0z"/></clipPath></defs></svg>