<svg xmlns="http://www.w3.org/2000/svg" fill="none" viewBox="0 0 96 96"><path fill="#00D17F" d="M72 44c0-6.627 5.373-12 12-12s12 5.373 12 12v28c0 13.255-10.745 24-24 24V44Z"/><path fill="#0052FF" d="M24 44c0-6.627-5.373-12-12-12S0 37.373 0 44v28c0 13.255 10.745 24 24 24V44Z"/><path fill="#CED2DB" d="M84 24H12V0h72v24Z"/><path fill="#00D17F" d="M72 12c0 6.628 5.373 12 12 12s12-5.372 12-12c0-6.627-5.373-12-12-12S72 5.373 72 12Z"/><path fill="#0052FF" d="M0 12c0 6.628 5.373 12 12 12s12-5.372 12-12c0-6.627-5.373-12-12-12S0 5.373 0 12Z"/><path fill="#0A0B0D" d="M12 0a12 12 0 0 1 0 24V0Z"/><path fill="#0052FF" d="M84 24a12 12 0 1 1 0-24v24Z"/><path fill="#101114" d="m42.97 44.031-1.485-1.484L32 52.03l9.485 9.485 1.485-1.485-6.95-6.95H72v-2.1H36.02l6.95-6.95Z"/><path fill="#CED2DB" d="M0 72c0 13.255 10.745 24 24 24h48c13.255 0 24-10.745 24-24H0Z"/><path fill="#0052FF" fill-rule="evenodd" d="M72 72h24c0 13.255-10.745 24-24 24V72Z" clip-rule="evenodd"/></svg>