<svg xmlns="http://www.w3.org/2000/svg" fill="none" viewBox="0 0 96 96"><path fill="#CED2DB" d="M12.8 57.6h70.4v25.6H12.8z"/><path fill="#00D17F" d="M19.2 25.6H32v32H19.2z"/><path fill="#0052FF" d="M19.2 57.6H32v12.8H19.2zm22.4 0h12.8v12.8H41.6zm22.4 0h12.8v12.8H64z"/><path fill="#FF3344" d="M41.6 38.4h12.8v19.2H41.6z"/><path fill="#00D17F" d="M64 12.8h12.8v44.8H64z"/><path fill="#101114" fill-rule="evenodd" d="M72.47 31.85 48.09 49.32l-22.31-9.97-12.41 12.42-1.14-1.14 13.2-13.18L47.9 47.48l23.62-16.93.94 1.3Z" clip-rule="evenodd"/><path fill="#101114" fill-rule="evenodd" d="M71.48 31.59 66 30.39l.35-1.57 7.03 1.55-1.56 7.03-1.56-.34 1.2-5.47Z" clip-rule="evenodd"/></svg>