<svg xmlns="http://www.w3.org/2000/svg" fill="none" viewBox="0 0 96 96"><path fill="#CED2DB" d="M57.6 32H72a2.4 2.4 0 0 1 2.4 2.4v27.2A2.4 2.4 0 0 1 72 64H57.6V32Z"/><path fill="#FF3344" d="M83.2 30.4a8.8 8.8 0 1 1-17.6 0 8.8 8.8 0 0 1 17.6 0Z"/><path fill="#CED2DB" d="M12.8 14.4c0-.88.72-1.6 1.6-1.6H56c.88 0 1.6.72 1.6 1.6v67.2c0 .88-.72 1.6-1.6 1.6H14.4a1.6 1.6 0 0 1-1.6-1.6V14.4Z"/><path fill="#0052FF" d="M57.6 22.4H12.8v51.2h44.8V22.4Z"/><path fill="#0A0B0D" d="M30.4 78.4c0-.88.71-1.6 1.6-1.6h6.4a1.6 1.6 0 1 1 0 3.2H32a1.6 1.6 0 0 1-1.6-1.6Zm6.4-60.8a1.6 1.6 0 1 1-3.2 0 1.6 1.6 0 0 1 3.2 0ZM19.2 34.4a2.4 2.4 0 0 1 2.4-2.4h36v32h-36a2.4 2.4 0 0 1-2.4-2.4V34.4Z"/><path fill="#0052FF" fill-rule="evenodd" d="M74.4 39.2v-4.8A2.4 2.4 0 0 0 72 32h-6.25a8.8 8.8 0 0 0 8.65 7.2Z" clip-rule="evenodd"/><path fill="#FFFFFF" fill-rule="evenodd" d="M41.6 57.6h-16V56h16v1.6Zm0-17.6h-16v-1.6h16V40Zm9.6 8.8H25.6v-1.6h25.6v1.6Z" clip-rule="evenodd"/></svg>