<svg xmlns="http://www.w3.org/2000/svg" fill="none" viewBox="0 0 96 96"><g clip-path="url(#a)"><path fill="#CED2DB" d="M62 44v16H0V44z"/><circle cx="72" cy="52" r="24" fill="#0052FF"/><path fill="#73A2FF" d="M8 36h6v32H8zm13 0h6v32h-6zm13 0h6v32h-6z"/><path fill="#0052FF" d="M8 44h6v16H8zm13 0h6v16h-6zm13 0h6v16h-6z"/><path fill="#73A2FF" d="m24 18 24 14v6H0v-6l24-14ZM0 66h48v8H0z"/><path fill="#FFD200" d="M96 33a9 9 0 0 0-9 9 9 9 0 0 0-9-9 9 9 0 0 0 9-9 9 9 0 0 0 9 9Z"/><circle cx="72" cy="52" r="24" fill="#0052FF"/><path fill="#FFD200" d="M96 33a9 9 0 0 0-9 9 9 9 0 0 0-9-9 9 9 0 0 0 9-9 9 9 0 0 0 9 9Z"/><path fill="#0A0B0D" fill-rule="evenodd" d="M48 53H0v-2h48v2Zm42-1a18 18 0 1 1-36 0 18 18 0 0 1 36 0ZM72 68a16 16 0 1 0 0-32 16 16 0 0 0 0 32Z" clip-rule="evenodd"/><path fill="#FFFFFF" d="M48.02 53a24.41 24.41 0 0 1 0-2h26.07l-6.3-6.3 1.42-1.4 8.7 8.7-8.7 8.7-1.42-1.4 6.3-6.3H48.02Z"/><path fill="#0A0B0D" d="M89.58 35.67a8.97 8.97 0 0 0-2.6 6.32 9 9 0 0 0-9-9c2.15 0 4.11-.75 5.65-1.99a24.1 24.1 0 0 1 5.95 4.67Z"/></g><defs><clipPath id="a"><path fill="#FFFFFF" d="M0 0h96v96H0z"/></clipPath></defs></svg>