<svg xmlns="http://www.w3.org/2000/svg" fill="none" viewBox="0 0 96 96"><g clip-path="url(#a)"><path fill="#CED2DB" d="M62 44v16H0V44z"/><circle cx="72" cy="52" r="24" fill="#0052FF"/><path fill="#73A2FF" d="M8 36h6v32H8zm13 0h6v32h-6zm13 0h6v32h-6z"/><path fill="#0052FF" d="M8 44h6v16H8zm13 0h6v16h-6zm13 0h6v16h-6z"/><path fill="#73A2FF" d="m24 18 24 14v6H0v-6l24-14ZM0 66h48v8H0z"/><path fill="#FFD200" d="M96 33a9 9 0 0 0-9 9 9 9 0 0 0-9-9 9 9 0 0 0 9-9 9 9 0 0 0 9 9Z"/><circle cx="72" cy="52" r="24" fill="#0052FF"/><path fill="#FFD200" d="M96 33a9 9 0 0 0-9 9 9 9 0 0 0-9-9 9 9 0 0 0 9-9 9 9 0 0 0 9 9Z"/><path fill="#0A0B0D" fill-rule="evenodd" d="M48 53H0v-2h47.999l.001.462V53Zm42-1c0 9.941-8.059 18-18 18s-18-8.059-18-18 8.059-18 18-18 18 8.059 18 18ZM72 68c8.837 0 16-7.163 16-16s-7.163-16-16-16-16 7.163-16 16 7.163 16 16 16Z" clip-rule="evenodd"/><path fill="#FFFFFF" d="M48.02 53a24.403 24.403 0 0 1 0-2h26.066l-6.293-6.293 1.414-1.414L77.914 52l-8.707 8.707-1.414-1.414L74.086 53H48.02Z"/></g><defs><clipPath id="a"><path fill="#FFFFFF" d="M0 0h96v96H0z"/></clipPath></defs></svg>