<svg xmlns="http://www.w3.org/2000/svg" fill="none" viewBox="0 0 96 96"><path fill="#00D17F" d="M19.63 86.92 0 73.4V38.44l26.21 18.05L66.54 15.5l20.52 20.2-48.62 49.42a14.3 14.3 0 0 1-9.05 4.41 14.36 14.36 0 0 1-9.76-2.6Z"/><path fill="#FFD200" d="M63.57 11.56a19 19 0 1 0 32.4 12.53c0-.61-.08-1.21-.16-1.82a17.94 17.94 0 0 0-.88-3.54A18.94 18.94 0 0 0 77 6a19 19 0 0 0-13.43 5.56Z"/><path fill="#0A0B0D" d="M59.84 50.34V42.3H51.8v2.1h4.44L24.68 75.98l1.49 1.49L57.74 45.9v4.44h2.1Z"/><path fill="#0052FF" d="m90.45 38.42.68-.71-26.84-26.83A18.97 18.97 0 0 0 58 25a19 19 0 0 0 32.45 13.42Z"/><path fill="#0A0B0D" fill-rule="evenodd" d="M66.4 35.6a15 15 0 0 1 19.58-22.62c.39.3.77.58 1.1.92A14.96 14.96 0 0 1 92 25a15 15 0 0 1-25.6 10.6Zm1.4-1.4a13 13 0 0 1 16.98-19.62v.01a12.97 12.97 0 0 1 1.4 19.6 13 13 0 0 1-18.37 0Z" clip-rule="evenodd"/><path fill="#0052FF" d="M28 52a19 19 0 1 0 14.06 31.77c.44-.43.8-.91 1.17-1.4a17.9 17.9 0 0 0 1.88-3.13 18.95 18.95 0 0 0-3.67-21.68A19 19 0 0 0 28 52Z"/><path fill="#0A0B0D" fill-rule="evenodd" d="M17.4 81.6a15 15 0 0 1 19.58-22.62c.39.3.77.58 1.1.92A14.96 14.96 0 0 1 43 71a15 15 0 0 1-25.6 10.6Zm1.4-1.4a13 13 0 0 1 16.98-19.62v.01a12.97 12.97 0 0 1 1.4 19.6 13 13 0 0 1-18.37 0Z" clip-rule="evenodd"/><path fill="#101114" d="M2 0H0v96h96v-2H2V0Z"/></svg>