<svg xmlns="http://www.w3.org/2000/svg" fill="none" viewBox="0 0 96 96"><path fill="#0A0B0D" d="M49.93 12.046a41 41 0 0 0-3.894.001l.097 1.998a39 39 0 0 1 3.368-.016c9.247.36 17.646 4.023 24.05 9.843a38 38 0 0 1 2.606 2.61 37.85 37.85 0 0 1 9.8 23.684 39 39 0 0 1-.002 3.701 38 38 0 0 1-1.084 7.364l-.001.007 1.94.485.12-.492a40 40 0 0 0 1.023-7.267l.001-.039a40.7 40.7 0 0 0-.415-8.017 39.8 39.8 0 0 0-3.37-11.014 40 40 0 0 0-4.038-6.723 40 40 0 0 0-2.493-3.033l-.03-.033a40.2 40.2 0 0 0-9.041-7.42 40 40 0 0 0-7.087-3.357 39.7 39.7 0 0 0-7.609-1.9 40 40 0 0 0-3.907-.38zm-39.901 38.47a38 38 0 0 1 1.1-7.747l.001-.007-1.94-.485a40 40 0 0 0-.762 3.852A40 40 0 0 0 8 52a41 41 0 0 0 .46 6.092 39.8 39.8 0 0 0 3.372 11.014 40 40 0 0 0 4.037 6.723 40.2 40.2 0 0 0 15.228 12.435 39.7 39.7 0 0 0 14.972 3.69 41 41 0 0 0 3.895-.001l-.097-1.998a39 39 0 0 1-3.734 0c-9.102-.44-17.364-4.084-23.683-9.827a38 38 0 0 1-2.607-2.61c-5.81-6.406-9.464-14.805-9.815-24.05a39 39 0 0 1 0-2.952m.3-11.996a40 40 0 0 1 1.504-3.626l1.807.856a38 38 0 0 0-1.428 3.444zm3.357-7.087a40 40 0 0 1 2.184-3.262l1.606 1.193a38 38 0 0 0-2.075 3.1zm4.677-6.295q1.32-1.456 2.776-2.776l1.343 1.481a38 38 0 0 0-2.638 2.638zm5.809-5.268a40 40 0 0 1 3.262-2.185l1.03 1.715a38 38 0 0 0-3.1 2.075zm6.723-4.038a40 40 0 0 1 3.626-1.504l.674 1.883q-1.765.632-3.444 1.428zm7.383-2.642a40 40 0 0 1 3.852-.762l.29 1.979q-1.86.274-3.657.723zm47.395 52.29a40 40 0 0 1-1.504 3.626l-1.807-.856a38 38 0 0 0 1.428-3.444zm-3.357 7.087a40 40 0 0 1-2.184 3.262l-1.606-1.193a38 38 0 0 0 2.075-3.1zm-4.677 6.295q-1.32 1.456-2.776 2.776l-1.343-1.481a38 38 0 0 0 2.638-2.638zm-5.809 5.268a40 40 0 0 1-3.262 2.185l-1.03-1.715a38 38 0 0 0 3.1-2.075zm-6.723 4.038a40 40 0 0 1-3.626 1.504l-.674-1.883a38 38 0 0 0 3.444-1.428zm-7.383 2.642q-1.892.473-3.852.762l-.29-1.979a38 38 0 0 0 3.657-.723z"/><path fill="#CED2DB" d="M52 14h-8v40h8z"/><path fill="#CED2DB" d="m84 67 2.07-7.727L47.435 48.92l-2.071 7.727z"/><path fill="#CED2DB" d="M48 68.001v-16H8v16z"/><circle cx="16" cy="16" r="16" fill="#FFD200" transform="matrix(-1 0 0 1 64 36)"/><path fill="#0052FF" d="M47.982 68C39.154 67.99 32 60.83 32 52h16v16z"/><path fill="#FFFFFF" d="M38 51.999c5.524 0 9.999 4.477 9.999 10.001 0-5.524 4.477-10.001 10.001-10.001-5.524 0-10.001-4.477-10.001-9.999 0 5.522-4.475 9.999-9.999 9.999"/><circle cx="8" cy="8" r="8" fill="#0052FF" transform="matrix(0 1 1 0 80 56)"/><circle cx="8" cy="8" r="8" fill="#3CC28A" transform="matrix(0 1 1 0 0 52)"/><path fill="#5DE2F8" d="M48 20a8 8 0 1 0 0-16 8 8 0 0 0 0 16"/><path fill="#FFD200" d="M4 88a8 8 0 0 1 8 8 8 8 0 0 1 8-8 8 8 0 0 1-8-8 8 8 0 0 1-8 8"/><path fill="#5DE2F8" d="M76 8a8 8 0 0 1 8 8 8 8 0 0 1 8-8 8 8 0 0 1-8-8 8 8 0 0 1-8 8"/></svg>