<svg xmlns="http://www.w3.org/2000/svg" fill="none" viewBox="0 0 96 96"><path fill="#CED2DB" d="M9.602 41.6a3.2 3.2 0 0 1 3.2-3.2h60.8v6.4h-64v-3.2Z"/><path fill="#0052FF" d="M9.602 44.8v-3.2c0 1.482 1.555 3.2 3.2 3.2h-3.2Zm0 0h70.4v41.6H12.107l-.038-.034c-1.246-.18-2.23-1.07-2.43-2.196l-.037-.034V44.8Z"/><path fill="#0A0B0D" d="M28.8 44.8h32v20.8h-32z"/><path fill="#CED2DB" d="M28.8 9.6h32v28.8h-32zm44.802 44.8h12.8v19.2h-12.8V54.4Z"/><path fill="#0A0B0D" d="M73.602 54.4h6.4v19.2h-6.4V54.4Z"/><circle cx="44.8" cy="64" r="16" fill="#FFD200"/><circle cx="28.8" cy="22.4" r="6.4" fill="#5DE2F8"/><path fill="#0052FF" d="M28.8 28.8a6.4 6.4 0 0 0 0-12.8v12.8Z"/><circle cx="44.8" cy="64" r="12" stroke="#0A0B0D" stroke-width="1.6"/><path fill="#FFD200" d="M67.202 28.8a6.4 6.4 0 0 0-6.399 6.4 6.4 6.4 0 0 0-6.4-6.4 6.4 6.4 0 0 0 6.4-6.4 6.4 6.4 0 0 0 6.4 6.4Z"/><path fill="#0052FF" d="M60.802 22.4v12.8c-.048-3.544-2.895-6.4-6.4-6.4 3.505 0 6.352-2.858 6.4-6.4ZM28.8 44.8h32v-6.4h-32z"/></svg>