<svg xmlns="http://www.w3.org/2000/svg" fill="none" viewBox="0 0 96 96"><path fill="#0A0B0D" d="M92 51.8c0-.6 0-1.3-.1-1.9 0-.6-.1-1.3-.1-1.9l-2 .2c.1.6.1 1.2.1 1.8v1.8H92Zm-.7-7.6c-.2-1.3-.5-2.5-.8-3.7l-1.9.5c.3 1.2.6 2.4.8 3.6l1.9-.4Zm-3.5-11c.5 1.2 1 2.3 1.5 3.5l-1.9.7c-.4-1.2-.9-2.3-1.4-3.4l1.8-.8ZM86 29.8c-.6-1.1-1.3-2.2-2.1-3.2l-1.6 1.2c.7 1 1.4 2 2 3.1l1.7-1.1Zm-4.4-6.2c-.8-1-1.7-1.9-2.6-2.8l-1.4 1.4c.9.9 1.7 1.8 2.5 2.7l1.5-1.3Zm-5.5-5.4c-1-.8-2-1.6-3.1-2.3l-1.1 1.6c1 .7 2 1.4 2.9 2.2l1.3-1.5Zm-6.3-4.4c-1.1-.6-2.2-1.2-3.4-1.8l-.8 1.8c1.1.5 2.2 1.1 3.3 1.7l.9-1.7Zm-6.9-3.2c-1.2-.4-2.4-.8-3.7-1.1l-.5 1.9c1.2.3 2.4.7 3.5 1.1l.7-1.9Zm-7.5-2c-1.3-.2-2.5-.4-3.8-.5l-.2 2c1.2.1 2.4.3 3.6.5l.4-2ZM47.8 8H47c-5.2.1-10.1 1.1-14.7 2.9-1 .4-2.1.8-3.1 1.3-1.2.5-2.3 1.1-3.4 1.8-1.1.6-2.2 1.3-3.2 2.1-1 .7-2.1 1.5-3 2.4-1 .8-1.9 1.7-2.8 2.6C12 25.9 8.3 31.9 6.2 38.5c-.2.8-.5 1.6-.7 2.3-.3 1.2-.6 2.5-.8 3.8-.2 1.3-.4 2.5-.5 3.8-.1 1.2-.2 2.4-.2 3.6v1c.1 3.1.5 6.2 1.2 9.1.1.5.2 1 .4 1.4l1.9-.5c-.3-1.2-.6-2.4-.8-3.6-.2-1.2-.4-2.4-.5-3.6-.1-.6-.1-1.2-.2-1.8v-2c0-6.3 1.4-12.2 3.8-17.6.5-1.1 1.1-2.2 1.7-3.3.6-1.1 1.3-2.1 2-3.1s1.4-2 2.2-2.9c5.4-6.5 12.8-11.4 21.2-13.7 1.2-.3 2.4-.6 3.6-.8 1.2-.2 2.4-.4 3.6-.5.6-.1 1.2-.1 1.8-.1h2V8h-.1ZM6.7 67.2c.4 1.2.9 2.4 1.5 3.5l1.8-.9c-.5-1.1-1-2.2-1.4-3.4l-1.9.8Zm3.3 7c.6 1.1 1.3 2.2 2.1 3.2l1.6-1.2c-.7-1-1.4-2-2-3.1L10 74.2Zm4.4 6.2c.8 1 1.7 1.9 2.6 2.8l1.4-1.4c-.9-.9-1.7-1.8-2.5-2.7l-1.5 1.3Zm5.5 5.4c1 .8 2 1.6 3.1 2.3l1.1-1.6c-1-.7-2-1.4-2.9-2.2l-1.3 1.5Zm6.3 4.4c1.1.6 2.2 1.2 3.4 1.8l.8-1.8c-1.1-.5-2.2-1.1-3.3-1.7l-.9 1.7Zm6.9 3.2c1.2.4 2.4.8 3.7 1.1l.5-1.9c-1.2-.3-2.4-.7-3.5-1.1l-.7 1.9Zm7.5 2c1.3.2 2.5.4 3.8.5l.2-2c-1.2-.1-2.4-.3-3.6-.5l-.4 2Zm7.6.6c.6 0 1.3 0 1.9-.1.6 0 1.3-.1 1.9-.1l-.2-2c-.6.1-1.2.1-1.8.1h-1.8V96Zm7.6-.7c1.3-.2 2.5-.5 3.7-.8l-.5-1.9c-1.2.3-2.4.6-3.6.8l.4 1.9Zm7.4-2c1.2-.4 2.4-.9 3.5-1.5l-.8-1.8c-1.1.5-2.2 1-3.4 1.4l.7 1.9Zm7-3.3c1.1-.6 2.2-1.3 3.2-2.1l-1.2-1.6c-1 .7-2 1.4-3.1 2l1.1 1.7Zm6.2-4.4c1-.8 1.9-1.7 2.8-2.6l-1.4-1.4c-.9.9-1.8 1.7-2.7 2.5l1.3 1.5Zm5.4-5.5c.8-1 1.6-2 2.3-3.1l-1.6-1.1c-.7 1-1.4 2-2.2 2.9l1.5 1.3Zm4.4-6.3c.6-1.1 1.2-2.2 1.8-3.4l-1.8-.8c-.5 1.1-1.1 2.2-1.7 3.3l1.7.9Zm3.2-6.9c.4-1.2.8-2.4 1.1-3.7l-1.9-.5c-.3 1.2-.7 2.4-1.1 3.5l1.9.7Zm2-7.5c.2-1.3.4-2.5.5-3.8l-2-.2c-.1 1.2-.3 2.4-.5 3.6l2 .4Z"/><path fill="#0052FF" d="M48 32c8.837 0 16-7.163 16-16S56.837 0 48 0 32 7.163 32 16s7.163 16 16 16Z"/><path fill="#00D17F" d="M6 64a6 6 0 1 0 0-12 6 6 0 0 0 0 12Z"/><path fill="#5DE2F8" d="M12 40a8 8 0 1 0 0-16 8 8 0 0 0 0 16ZM96 8c-4.4 0-8 3.6-8 8 0-4.4-3.6-8-8-8 4.4 0 8-3.6 8-8 0 4.4 3.6 8 8 8Z"/><path fill="#CED2DB" d="M80 52c0 17.7-14.3 32-32 32v-6c14.4 0 26-11.6 26-26h6Zm-24 0c0 4.4-3.6 8-8 8s-8-3.6-8-8 3.6-8 8-8 8 3.6 8 8Z"/><path fill="#5DE2F8" d="M60 36c0 6.6-5.4 12-12 12s-12-5.4-12-12 5.4-12 12-12 12 5.4 12 12Z"/><path fill="#5DE2F8" d="M48 48c6.6 0 12-5.4 12-12H36c0 6.6 5.4 12 12 12Z"/><path fill="#0052FF" d="M53.8 46.5c-1.4.8-2.9 1.3-4.6 1.4-.4.1-.8.1-1.2.1-2.1 0-4.1-.5-5.8-1.5C43.6 45 45.7 44 48 44s4.4 1 5.8 2.5ZM48 32c8.837 0 16-7.163 16-16S56.837 0 48 0 32 7.163 32 16s7.163 16 16 16Z"/><path fill="#5DE2F8" d="M60 36c0 6.6-5.4 12-12 12s-12-5.4-12-12 5.4-12 12-12 12 5.4 12 12Z"/><path fill="#0A0B0D" d="M48 32c3.6 0 6.9-1.2 9.6-3.2-2.2-2.9-5.7-4.8-9.6-4.8-3.9 0-7.4 1.9-9.6 4.8 2.7 2 6 3.2 9.6 3.2Z"/><path fill="#5DE2F8" d="M48 48c6.6 0 12-5.4 12-12H36c0 6.6 5.4 12 12 12Z"/><path fill="#0052FF" d="M42.2 46.5c1.7 1 3.7 1.5 5.8 1.5 2.1 0 4.1-.5 5.8-1.5C52.3 45 50.3 44 48 44s-4.3 1-5.8 2.5Z"/><path stroke="#FFFFFF" stroke-width="2" d="M48 8v16m-8-8h16"/></svg>