<svg xmlns="http://www.w3.org/2000/svg" fill="none" viewBox="0 0 97 97"><path fill="#101114" d="M48.5 18.34A30.16 30.16 0 0 0 18.34 48.5v.25h2.12v-.25A28.04 28.04 0 0 1 48.5 20.46h.25v-2.12h-.25ZM29.97 66.19 29.8 66l-5.04 4.82.17.18c.35.37.7.72 1.07 1.07l.18.17L31 67.2l-.19-.17-.84-.84Z"/><path fill="#FFD200" d="M48.52 12.93A35.59 35.59 0 0 1 84.07 48.5c.05 19.67-15.9 35.5-35.57 35.58l.02-71.14Z"/><path fill="#0052FF" fill-rule="evenodd" d="M82.8 82.8a48.5 48.5 0 1 0-68.6-68.6 48.5 48.5 0 0 0 68.6 68.6Zm1.27-34.3a35.57 35.57 0 1 0-71.14 0 35.57 35.57 0 0 0 71.14 0Z" clip-rule="evenodd"/><path fill="#0052FF" d="M48.51 25.87a22.64 22.64 0 0 1-.02 45.26l.02-45.26Z"/><path fill="#5DE2F8" d="M48.49 71.13a22.64 22.64 0 0 1 .02-45.26l-.02 45.26Z"/><path fill="#5DE2F8" fill-rule="evenodd" d="M48.5 97V84.07a35.57 35.57 0 1 1 0-71.14V0h-.02A48.37 48.37 0 0 0 14.2 14.2 48.35 48.35 0 0 0 0 48.52c0 12.4 4.74 24.81 14.2 34.28A48.35 48.35 0 0 0 48.5 97Z" clip-rule="evenodd"/><path fill="#0A0B0D" d="m58.31 43.43-1.47-1.53-11.2 10.78-4.67-4.5-1.47 1.53 6.15 5.92 12.66-12.2ZM71 24.93l-.18-.17-4.81 5.04.18.17.84.84.17.18 5.04-4.81-.17-.18A27 27 0 0 0 71 24.93Zm10.08 22.81v-.25l-6.98.16v.25a26.28 26.28 0 0 1 0 1.2v.25l6.97.16v-.26a33.25 33.25 0 0 0 0-1.5Zm-8.84 23.08-5.04-4.81-.17.18-.84.84-.18.17 4.81 5.04.18-.17A27 27 0 0 0 72.07 71l.17-.18Z"/><path fill="#101114" d="M47.9 74.1h-.25l-.16 6.97h.26a33.25 33.25 0 0 0 1.5 0h.26l-.16-6.97h-.25a26.28 26.28 0 0 1-1.2 0Z"/></svg>