<svg xmlns="http://www.w3.org/2000/svg" fill="none" viewBox="0 0 96 96"><path fill="#CED2DB" fill-rule="evenodd" d="M27.162 11.35A44 44 0 0 1 44 8v44h44a44 44 0 1 1-60.838-40.65" clip-rule="evenodd"/><path fill="#CED2DB" d="M94.999 52c0-6.697-1.32-14.329-3.882-20.516A51 51 0 0 0 44 0v30.947a20.05 20.05 0 0 1 18.526 12.379c1.008 2.433 1.526 6.04 1.526 8.673z"/><path fill="#0052FF" d="M88 52A44 44 0 0 0 44 8v26.7A17.3 17.3 0 0 1 61.3 52z"/><path fill="#FFFFFF" d="M74 52c0 16.569-13.432 30-30 30-16.57 0-30-13.43-30-30 0-16.568 13.431-30 30-30 16.568 0 30 13.432 30 30"/><path fill="#0A0B0D" fill-rule="evenodd" d="M43 43h2.075v9.285L51 59.27 49.531 61 43 53.3z" clip-rule="evenodd"/><path fill="#0A0B0D" fill-rule="evenodd" d="M42.923 33.412c-10.196 0-18.462 8.099-18.462 18.089S34 69.589 44 69.589V72c-12 0-22-9.178-22-20.5S31.367 31 42.923 31h3.076v2.412z" clip-rule="evenodd"/><path fill="#0A0B0D" fill-rule="evenodd" d="M48 32.169 42.613 38l-1.589-1.83 3.746-4.057L41 27.776l1.638-1.775z" clip-rule="evenodd"/></svg>