<svg xmlns="http://www.w3.org/2000/svg" fill="none" viewBox="0 0 96 96"><path fill="#CED2DB" d="M70.4 38.32h3.2V64h-3.2V38.32Z"/><path fill="#CED2DB" d="M73.6 28.8h3.2V64h-3.2V28.8Zm3.2 16H80V64h-3.2V44.8Zm3.2-9.68h3.2V64H80V35.12ZM12.8 41.6H16v16h-3.2v-16Zm3.2-6.32h3.2V57.6H16V35.28Zm3.2 9.52h3.2v12.8h-3.2V44.8Zm3.2-6.4h3.2v19.2h-3.2V38.4Zm-9.6-12.8a12.8 12.8 0 0 1 12.8-12.8h44.8a12.8 12.8 0 0 1 12.8 12.8H12.8Z"/><path fill="#00D17F" d="M35.4 25.6H61v44.8H35.4V25.6Z"/><path fill="#FFD200" d="M61 70.4a12.8 12.8 0 1 1-25.6 0 12.8 12.8 0 0 1 25.6 0Z"/><path fill="#5DE2F8" d="M61 25.6a12.8 12.8 0 1 1-25.6 0 12.8 12.8 0 0 1 25.6 0Z"/><path fill="#0052FF" fill-rule="evenodd" d="M48.2 12.8a12.8 12.8 0 0 0-12.8 12.8H61a12.8 12.8 0 0 0-12.8-12.8Z" clip-rule="evenodd"/><path fill="#0A0B0D" fill-rule="evenodd" d="M47.4 56.04V25.6H49v30.44h-1.6Z" clip-rule="evenodd"/><path fill="#0A0B0D" fill-rule="evenodd" d="m42.46 50.34 1.25-1.01 4.51 5.59 4.05-5.56 1.3.94-5.28 7.25-5.83-7.21Z" clip-rule="evenodd"/><path fill="#5DE2F8" d="M25.6 57.8a6.4 6.4 0 1 1-12.8 0 6.4 6.4 0 0 1 12.8 0Z"/><path fill="#0052FF" fill-rule="evenodd" d="M19.2 51.4a6.4 6.4 0 0 0-6.4 6.4h12.8a6.4 6.4 0 0 0-6.4-6.4Z" clip-rule="evenodd"/><path fill="#00D17F" d="M83.2 64a6.4 6.4 0 1 1-12.8 0 6.4 6.4 0 0 1 12.8 0Z"/><path fill="#0A0B0D" fill-rule="evenodd" d="M76.8 57.6a6.4 6.4 0 0 0-6.4 6.4h12.8a6.4 6.4 0 0 0-6.4-6.4ZM50.49 64l1.13 1.14-4.74 4.73h6.1l-6.96 6.97-1.13-1.13 4.23-4.24h-6.1l7.47-7.46Z" clip-rule="evenodd"/></svg>