<svg xmlns="http://www.w3.org/2000/svg" fill="none" viewBox="0 0 96 96"><path fill="#CED2DB" d="M96 12.8H12.8V32H96z"/><path fill="#0052FF" d="M96 32H12.8v64H96z"/><path fill="#0A0B0D" d="M96 76.8V96H76.8z"/><path fill="#CED2DB" d="M76.8 96V76.8H96z"/><path fill="#FFFFFE" d="M67.2 64 41.6 48v32z"/><path fill="#CED2DB" d="M12.8 25.6H0V96h12.8z"/><path fill="#0052FF" d="M12.8 12.8H0V32h12.8z"/><path fill="#FFD200" fill-rule="evenodd" d="M73.6 19.6a6.8 6.8 0 1 0 0-13.6 6.8 6.8 0 0 0 0 13.6m0 6c7.07 0 12.8-5.73 12.8-12.8S80.67 0 73.6 0c-7.068 0-12.8 5.73-12.8 12.8s5.731 12.8 12.8 12.8m-38.4-6a6.8 6.8 0 1 0 0-13.6 6.8 6.8 0 0 0 0 13.6m0 6c7.07 0 12.8-5.73 12.8-12.8S42.27 0 35.2 0c-7.069 0-12.8 5.73-12.8 12.8s5.731 12.8 12.8 12.8" clip-rule="evenodd"/><path fill="#0052FF" fill-rule="evenodd" d="M28.4 12.76v.04a6.8 6.8 0 0 0 6.8 6.8v5.96h-1.01c-6.597-.515-11.79-6.03-11.79-12.76v-.04zm38.4 0v.04a6.8 6.8 0 0 0 6.8 6.8v5.96h-1.01c-6.597-.515-11.79-6.03-11.79-12.76v-.04z" clip-rule="evenodd"/></svg>