<svg xmlns="http://www.w3.org/2000/svg" fill="none" viewBox="0 0 96 96"><path fill="#CED2DB" d="M48 24c0 13.24-10.76 24-24 24S0 37.24 0 24 10.76 0 24 0s24 10.76 24 24Z"/><path fill="#FFD200" d="M96 72c0 13.24-10.76 24-24 24S48 85.24 48 72s10.76-24 24-24 24 10.76 24 24Z"/><path fill="#5DE2F8" d="M72 24H0v72h72V24Z"/><path fill="#FFD200" d="M96 24c0 13.24-10.76 24-24 24S48 37.24 48 24 58.76 0 72 0s24 10.76 24 24Z"/><path fill="#0052FF" d="M48 24c0 13.24 10.76 24 24 24V24H48Zm0 48c0 13.24-10.76 24-24 24S0 85.24 0 72s10.76-24 24-24 24 10.76 24 24Zm24-24c-13.24 0-24 10.76-24 24s10.76 24 24 24V48ZM0 24c0 13.24 10.76 24 24 24s24-10.76 24-24H0Z"/><path fill="#FFFFFF" d="m36.708 65.1-2.67-2.56-14.185 14.788-5.091-5.308-2.67 2.562 7.76 8.09L36.709 65.1Z"/></svg>