<svg xmlns="http://www.w3.org/2000/svg" fill="none" viewBox="0 0 96 96"><path fill="#0052FF" d="M83.2 60.8a22.4 22.4 0 1 1-44.8 0 22.4 22.4 0 0 1 44.8 0Z"/><path fill="#FFFFFF" d="M57.6 35.2a22.4 22.4 0 1 1-44.8 0 22.4 22.4 0 0 1 44.8 0Z"/><path fill="#FFD200" d="M35.96 57.6c-1.35 0-2.67-.13-3.96-.38 2.02-13.37 12.26-23.93 25.23-26.02.24 1.33.37 2.69.37 4.09 0 11.91-10 21.93-21.64 22.31Zm-1.53-44.8c1.36 0 2.68.13 3.97.38C36.38 26.55 26.14 37.1 13.17 39.2c-.24-1.33-.37-2.7-.37-4.09 0-12.32 9.69-22.31 21.63-22.31Z"/><path fill="#FFD200" d="M34.43 57.6c1.36 0 2.68-.13 3.97-.38-2.02-13.37-12.26-23.93-25.23-26.02-.24 1.33-.37 2.7-.37 4.09 0 12.32 9.69 22.31 21.63 22.31Zm1.53-44.8c-1.35 0-2.67.13-3.96.38C34.02 26.55 44.26 37.1 57.23 39.2c.24-1.33.37-2.69.37-4.09 0-12.32-9.69-22.31-21.64-22.31Z"/><path fill="#0A0B0D" fill-rule="evenodd" d="M60.8 79.2a17.6 17.6 0 1 0 0-35.2 17.6 17.6 0 0 0 0 35.2Zm0 1.6a19.2 19.2 0 1 0 0-38.4 19.2 19.2 0 0 0 0 38.4Z" clip-rule="evenodd" opacity=".8"/><path fill="#0A0B0D" fill-rule="evenodd" d="M35.2 52.8a17.6 17.6 0 1 0 0-35.2 17.6 17.6 0 0 0 0 35.2Zm0 1.6a19.2 19.2 0 1 0 0-38.4 19.2 19.2 0 0 0 0 38.4Z" clip-rule="evenodd" opacity=".8"/><path fill="#0A0B0D" fill-rule="evenodd" d="M57.33 38.67a22.42 22.42 0 0 1-18.66 18.66 22.42 22.42 0 0 1 18.66-18.66Z" clip-rule="evenodd"/><path fill="#FFFFFF" d="M53.6 60.8a7.2 7.2 0 1 1 14.4 0 7.2 7.2 0 0 1-14.4 0Z"/><path fill="#101114" d="m62.73 24.8 1.84-1.83-1.14-1.14-3.76 3.77 3.76 3.77 1.13-1.14-1.83-1.83h6.87v8.8h1.6V24.8h-8.47ZM33.27 69.6H26.4v-8.8h-1.6v10.4h8.47l-1.83 1.83 1.13 1.14 3.76-3.77-3.76-3.77-1.13 1.14 1.83 1.83Z"/></svg>