<svg xmlns="http://www.w3.org/2000/svg" fill="none" viewBox="0 0 96 96"><path fill="#CED2DB" d="M38.4 0H96v57.6h-.004L80.774 42.378 32.776 90.376 5.623 63.223l47.998-47.998L38.4.004V0Z"/><path fill="#FFD200" d="M38.4 76.8c0 10.604-8.596 19.2-19.2 19.2S0 87.404 0 76.8s8.596-19.2 19.2-19.2 19.2 8.596 19.2 19.2Z"/><path fill="#0052FF" d="M32.776 90.376 5.623 63.224A19.14 19.14 0 0 1 19.2 57.6c10.604 0 19.2 8.596 19.2 19.2a19.14 19.14 0 0 1-5.623 13.576Z"/><path fill="#0A0B0D" fill-rule="evenodd" d="M19.199 62.15c-8.091 0-14.65 6.559-14.65 14.65 0 8.09 6.559 14.65 14.65 14.65 8.09 0 14.65-6.56 14.65-14.65 0-8.091-6.56-14.65-14.65-14.65ZM6.649 76.8c0-6.931 5.619-12.55 12.55-12.55 6.931 0 12.55 5.619 12.55 12.55 0 6.931-5.619 12.55-12.55 12.55-6.931 0-12.55-5.619-12.55-12.55Z" clip-rule="evenodd"/><path fill="#00D17F" d="M48.8 31.2c0 7.511-6.09 13.6-13.6 13.6-7.512 0-13.6-6.089-13.6-13.6 0-7.511 6.088-13.6 13.6-13.6 7.51 0 13.6 6.089 13.6 13.6Z"/><path fill="#0052FF" d="M26.82 41.913 45.912 22.82A13.542 13.542 0 0 1 48.8 31.2c0 7.51-6.09 13.6-13.6 13.6a13.55 13.55 0 0 1-8.38-2.888Z"/><path fill="#0A0B0D" fill-rule="evenodd" d="M35.2 20.75c-5.771 0-10.45 4.679-10.45 10.45 0 5.771 4.679 10.45 10.45 10.45 5.771 0 10.45-4.679 10.45-10.45 0-5.771-4.679-10.45-10.45-10.45ZM26.95 31.2a8.25 8.25 0 1 1 16.5 0 8.25 8.25 0 0 1-16.5 0Z" clip-rule="evenodd"/></svg>