<svg xmlns="http://www.w3.org/2000/svg" fill="none" viewBox="0 0 96 96"><g clip-path="url(#a)"><path fill="#FFD200" d="M0 48 48 0l48 48-48 48L0 48Z"/><path fill="#CED2DB" d="M0 48h96v48H0V48Z"/><path fill="#0052FF" fill-rule="evenodd" d="m0 48 48 48 48-48H0Z" clip-rule="evenodd"/><path fill="#FFFFFF" d="m16 48 32-32 32 32-32 32-32-32Z"/><path fill="#FFFFFF" d="m9.479 48 39-39 39 39-39 39-39-39Z"/><path fill="#00D17F" d="M47.999 70.53c12.443 0 22.53-10.087 22.53-22.53 0-12.443-10.087-22.53-22.53-22.53-12.443 0-22.53 10.087-22.53 22.53 0 12.443 10.087 22.53 22.53 22.53Z"/><path fill="#0A0B0D" fill-rule="evenodd" d="M60.693 40.994 43.927 57.085l-8.587-7.55 1.32-1.502 7.208 6.337 15.44-14.82 1.385 1.444Z" clip-rule="evenodd"/><path fill="#0052FF" fill-rule="evenodd" d="M25.47 48H0l48 48V70.53L25.47 48Z" clip-rule="evenodd"/><path fill="#0A0B0D" fill-rule="evenodd" d="M47.999 70.53 25.469 48c0 12.443 10.087 22.53 22.53 22.53Z" clip-rule="evenodd"/></g><defs><clipPath id="a"><path fill="#FFFFFF" d="M0 0h96v96H0z"/></clipPath></defs></svg>