<svg width="64" height="64" viewBox="0 0 64 64" fill="none" xmlns="http://www.w3.org/2000/svg">
<g clip-path="url(#clip0)">
<path d="M44 44.9674V42.9674H24V40.9674H0V48.9674C0 53.3674 3.6 56.9674 8 56.9674H40V54.9674H24V52.9674H32V50.9674H24V48.9674H36V46.9674H24V44.9674H44Z" fill="#BFE9FF"/>
<path d="M64 6.96741H24V40.9674H64V6.96741Z" fill="#56B4FC"/>
<path d="M56 6.96741H24V40.9674H56C56 38.7674 57.8 36.9674 60 36.9674V10.9674C57.8 10.9674 56 9.16741 56 6.96741Z" fill="#1652F0"/>
<path d="M8 6.96741C3.6 6.96741 0 10.5674 0 14.9674V36.9674V40.9674V48.9674C0 44.5674 3.6 40.9674 8 40.9674H24V6.96741H8Z" fill="#1652F0"/>
<path d="M50 16.9674H38V18.9674H50V16.9674Z" fill="white"/>
<path d="M52 22.9674H36V24.9674H52V22.9674Z" fill="white"/>
<path d="M50 28.9674H38V30.9674H50V28.9674Z" fill="white"/>
<path d="M0 18.9674L10 18.9674L10 16.9674L0 16.9674L0 18.9674Z" fill="white"/>
<path d="M12 22.9674H0V24.9674H12V22.9674Z" fill="white"/>
<path d="M0 30.9674L10 30.9674L10 28.9674L0 28.9674L0 30.9674Z" fill="white"/>
<path d="M28.9002 26.6674C28.9002 24.0674 27.3002 23.1674 24.2002 22.7674C21.9002 22.4674 21.5002 21.8674 21.5002 20.8674C21.5002 19.8674 22.3002 19.1674 23.8002 19.1674C25.3002 19.1674 26.1002 19.7674 26.3002 21.1674H28.5002C28.3002 19.0674 27.1002 17.8674 25.1002 17.4674V14.9674H22.9002V17.2674C20.7002 17.5674 19.2002 19.0674 19.2002 20.9674C19.2002 23.4674 20.7002 24.3674 23.8002 24.7674C25.9002 25.0674 26.5002 25.5674 26.5002 26.7674C26.5002 27.9674 25.5002 28.7674 24.0002 28.7674C21.8002 28.7674 21.2002 27.6674 21.1002 26.3674H18.7002C18.9002 28.5674 20.0002 30.1674 22.8002 30.5674V32.9674H25.0002V30.6674C27.4002 30.2674 28.9002 28.6674 28.9002 26.6674Z" fill="white"/>
</g>
<defs>
<clipPath id="clip0">
<rect width="64" height="50" fill="white" transform="translate(0 6.96741)"/>
</clipPath>
</defs>
</svg>
