<svg xmlns="http://www.w3.org/2000/svg" fill="none" viewBox="0 0 48 48"><path fill="var(--illustration-primary)" d="M0 2a2 2 0 0 1 2-2h28a2 2 0 0 1 2 2v44a2 2 0 0 1-2 2H2a2 2 0 0 1-2-2z"/><path fill="var(--illustration-black)" d="M32 8H0v32h32zM13 44a1 1 0 0 1 1-1h4a1 1 0 1 1 0 2h-4a1 1 0 0 1-1-1m4-40a1 1 0 1 1-2 0 1 1 0 0 1 2 0"/><path fill="var(--illustration-gray)" d="M32 8h16v32H32z"/><path fill="var(--illustration-white)" fill-rule="evenodd" d="M15 30V18h2v12z" clip-rule="evenodd"/><path fill="var(--illustration-white)" fill-rule="evenodd" d="M10 23h12v2H10z" clip-rule="evenodd"/></svg>