<svg xmlns="http://www.w3.org/2000/svg" fill="none" viewBox="0 0 48 48"><path fill="var(--illustration-gray)" d="M8 8h32v40H8zm8 0a4 4 0 0 1 4-4h8a4 4 0 0 1 4 4zm4-4a4 4 0 0 1 8 0z"/><path fill="var(--illustration-black)" d="M8 12h32v32H8z"/><path fill="var(--illustration-primary)" d="M0 12h8v32H0zm40 0h8v32h-8z"/><path fill="var(--illustration-white)" fill-rule="evenodd" d="m24 14.586 4.707 4.707-1.414 1.414L24 17.414l-3.293 3.293-1.414-1.414z" clip-rule="evenodd"/><path fill="var(--illustration-white)" fill-rule="evenodd" d="M23 28V16h2v12zm13 6H12.5v-2H36zm-4 6H17v-2h15z" clip-rule="evenodd"/></svg>