<svg xmlns="http://www.w3.org/2000/svg" fill="none" viewBox="0 0 40 40"><path fill="var(--illustration-accent-2)" fill-rule="evenodd" d="M36.667 21.833c0 8.193-6.641 14.834-14.834 14.834S7 30.026 7 21.833 13.641 7 21.833 7s14.834 6.641 14.834 14.833m-6.667 0a8.167 8.167 0 1 1-16.333 0 8.167 8.167 0 0 1 16.333 0" clip-rule="evenodd"/><path fill="var(--illustration-primary)" d="M3.334 21.667c0-10.084 8.166-18.334 18.333-18.334v10.335a8.167 8.167 0 0 0-7.999 7.999z"/><path fill="var(--illustration-invert)" d="M13.668 21.667a8.167 8.167 0 0 1 7.999-7.999V7.083c-8 .084-14.5 6.584-14.583 14.584z"/></svg>