<svg xmlns="http://www.w3.org/2000/svg" fill="none" viewBox="0 0 49 49"><path fill="var(--illustration-gray)" fill-rule="evenodd" d="M7.176 7.176a24.5 24.5 0 1 1 34.648 34.648A24.5 24.5 0 0 1 7.176 7.176" clip-rule="evenodd"/><path fill="var(--illustration-invert-2)" d="M12.977 12.974a16.305 16.305 0 0 1 23.051 23.051zM38.911 38.91a20.381 20.381 0 0 1-28.819-28.82z"/><path fill="var(--illustration-primary)" d="M36.026 36.025a16.305 16.305 0 0 1-23.05-23.05z"/><path fill="var(--illustration-accent-1)" d="M15.851 15.848a12.25 12.25 0 0 1 17.324 17.324z"/><path fill="var(--illustration-black)" d="M33.153 33.152a12.25 12.25 0 0 1-17.324-17.324z"/><path fill="var(--illustration-accent-1)" d="M18.733 18.732A8.157 8.157 0 0 1 30.27 30.268"/><path fill="var(--illustration-black)" fill-rule="evenodd" d="M24.501 17.362a7.14 7.14 0 0 0-5.047 2.09l-1.441-1.44A9.176 9.176 0 0 1 30.99 30.987l-1.441-1.44A7.138 7.138 0 0 0 24.5 17.361" clip-rule="evenodd"/></svg>