<svg xmlns="http://www.w3.org/2000/svg" fill="none" viewBox="0 0 40 40"><g clip-path="url(#a)"><path fill="var(--illustration-accent-2)" d="M20 40.017c11.046 0 20-8.955 20-20s-8.954-20-20-20-20 8.954-20 20 8.954 20 20 20"/><path fill="var(--illustration-accent-1)" d="M20 32.383c8.938 0 16.184-7.245 16.184-16.183S28.938.017 20 .017 3.817 7.262 3.817 16.2 11.062 32.383 20 32.383"/><path fill="var(--illustration-positive)" d="M20 21.15c5.836 0 10.567-4.73 10.567-10.567C30.567 4.748 25.837.017 20 .017S9.434 4.747 9.434 10.583 14.164 21.15 20 21.15"/><path fill="var(--illustration-accent-4)" d="M20.001 12.6a6.3 6.3 0 1 0 0-12.6 6.3 6.3 0 0 0 0 12.6"/></g><defs><clipPath id="a"><path fill="var(--illustration-white)" d="M0 0h40v40H0z"/></clipPath></defs></svg>