<svg xmlns="http://www.w3.org/2000/svg" fill="none" viewBox="0 0 40 40"><g clip-path="url(#a)"><path fill="var(--illustration-primary)" d="M19.992 40c11.04 0 19.991-8.95 19.991-19.992 0-11.04-8.95-19.991-19.991-19.991S0 8.967 0 20.008 8.95 40 19.992 40"/><path fill="var(--illustration-accent-1)" d="M14.128 39.117c1.85.566 3.816.883 5.865.883s3.998-.317 5.864-.883V.883A20 20 0 0 0 19.993 0c-2.05 0-3.999.317-5.865.883z"/><path fill="var(--illustration-accent-3)" d="M0 20.008c0 2.033.317 3.999.883 5.865h38.234A20 20 0 0 0 40 20.008c0-2.049-.317-3.998-.883-5.864H.883A20 20 0 0 0 0 20.008"/><path fill="var(--illustration-accent-4)" d="M25.84 14.144H14.128v11.712H25.84z"/></g><defs><clipPath id="a"><path fill="var(--illustration-white)" d="M0 0h40v40H0z"/></clipPath></defs></svg>