<svg xmlns="http://www.w3.org/2000/svg" fill="none" viewBox="0 0 48 48"><path fill="var(--illustration-accent-1)" d="M44 20c0 11.046-8.954 20-20 20S4 31.046 4 20 12.954 0 24 0s20 8.954 20 20"/><path fill="var(--illustration-black)" fill-rule="evenodd" d="M24 6c-7.732 0-14 6.268-14 14s6.268 14 14 14 14-6.268 14-14S31.732 6 24 6M8 20c0-8.837 7.163-16 16-16s16 7.163 16 16-7.163 16-16 16S8 28.837 8 20" clip-rule="evenodd"/><path fill="var(--illustration-accent-1)" fill-rule="evenodd" d="M13.898 46.122 24 25l10.102 21.122A27.9 27.9 0 0 1 24 48a27.9 27.9 0 0 1-10.102-1.878" clip-rule="evenodd"/><path fill="var(--illustration-gray)" fill-rule="evenodd" d="m15.629 42.5 8.37-17.5 8.37 17.5c-2.607.97-5.427 1.5-8.37 1.5a24 24 0 0 1-8.37-1.5" clip-rule="evenodd"/><path fill="var(--illustration-primary)" fill-rule="evenodd" d="M17.363 38.873 23.998 25l6.635 13.873A20 20 0 0 1 23.998 40a20 20 0 0 1-6.635-1.127" clip-rule="evenodd"/><path fill="var(--illustration-primary)" d="M24 40a2 2 0 1 1-4 0 2 2 0 0 1 4 0"/><path fill="var(--illustration-black)" fill-rule="evenodd" d="M24 40a2 2 0 0 0-3.96-.392A20 20 0 0 0 24 40" clip-rule="evenodd"/><path fill="var(--illustration-black)" d="M27 34a2 2 0 1 1-4 0 2 2 0 0 1 4 0m2-14-3.875 1.125L24 25l-1.125-3.875L19 20l3.875-1.125L24 15l1.125 3.875z"/></svg>