<svg xmlns="http://www.w3.org/2000/svg" fill="none" viewBox="0 0 48 48"><path fill="var(--illustration-primary)" d="M15 29h18v19l-9-6-9 6z"/><path fill="var(--illustration-accent-1)" fill-rule="evenodd" d="M35.314 27.314A16 16 0 1 1 12.686 4.686a16 16 0 0 1 22.628 22.628" clip-rule="evenodd"/><path fill="var(--illustration-black)" d="M20.293 10.405c.646.173.753.601.726.939l-.793 2.962a1 1 0 0 1 .168.06l-.172-.047-1.112 4.15c-.08.194-.286.487-.738.365.016.025-1.155-.309-1.155-.309l-.822 1.807 2.067.554q.578.16 1.133.318l-.705 2.631 1.586.425.698-2.605q.654.19 1.267.354l-.695 2.592 1.589.425.703-2.626c2.712.563 4.764.388 5.668-2.047.727-1.961.015-3.115-1.404-3.883 1.05-.222 1.843-.89 2.077-2.302.322-1.92-1.136-2.987-3.139-3.716l.697-2.6-1.589-.425-.678 2.53a53 53 0 0 0-1.276-.322l.683-2.546-1.586-.425-.697 2.6q-.523-.127-1.018-.259l.002-.008-2.191-.587-.454 1.692c.003-.002 1.187.287 1.16.303m3.643 1.102c.896.24 3.791.712 3.292 2.576-.48 1.79-3.242.825-4.139.584zm-1.275 4.76c1.077.288 4.536.881 3.986 2.933-.526 1.967-3.845.836-4.92.548zM15 25.38v3.849a16 16 0 0 0 18 0V25.38a13 13 0 0 1-18 0"/><path fill="var(--illustration-positive)" d="M6 36a6 6 0 0 0-6-6 6 6 0 0 0 6-6 6 6 0 0 0 6 6 6 6 0 0 0-6 6"/><path fill="var(--illustration-accent-2)" d="M42 8a4 4 0 0 0-4-4 4 4 0 0 0 4-4 4 4 0 0 0 4 4 4 4 0 0 0-4 4"/></svg>