<svg xmlns="http://www.w3.org/2000/svg" fill="none" viewBox="0 0 48 48"><path fill="var(--illustration-primary)" d="M47 20H1a1 1 0 0 0-1 1v26a1 1 0 0 0 1 1h46a1 1 0 0 0 1-1V21a1 1 0 0 0-1-1"/><path fill="var(--illustration-gray)" fill-rule="evenodd" d="M0 0h12a20 20 0 0 1 20 20H16a4 4 0 0 0-4-4H0z" clip-rule="evenodd"/><path fill="var(--illustration-black)" d="M32 20H16v16h16z"/><path fill="var(--illustration-accent-1)" d="M18.343 30.343a8 8 0 1 0 11.314 11.314 8 8 0 0 0-11.314-11.314"/><path fill="var(--illustration-black)" fill-rule="evenodd" d="M24 33a3 3 0 1 0 0 6 3 3 0 0 0 0-6m-5 3a5 5 0 1 1 10 0 5 5 0 0 1-10 0" clip-rule="evenodd"/></svg>