<svg xmlns="http://www.w3.org/2000/svg" fill="none" viewBox="0 0 48 48"><path fill="var(--illustration-gray)" d="M0 4h48v30a2 2 0 0 1-2 2H2a2 2 0 0 1-2-2V4Z"/><path fill="var(--illustration-primary)" d="M40 36H8v12h32V36Z"/><path fill="var(--illustration-black)" d="M40 4H8v32h32V4Z"/><path fill="var(--illustration-primary)" d="M0 2C0 .9.9 0 2 0h44a2 2 0 0 1 2 2v2H0V2Z"/><path fill="var(--illustration-white)" d="m11.7 17.73 1.58 5.01h1.2l1.03-3.5h.01l1.02 3.5h1.24l1.5-5H18.1l-.93 3.38h-.01l-1.01-3.39h-1.17l-1.01 3.4h-.01l-.95-3.4h-1.3Zm8.37 0 1.58 5.01h1.2l1.02-3.5h.01l1.02 3.5h1.24l1.5-5h-1.18l-.93 3.38-1.02-3.39h-1.17l-1 3.4h-.02l-.95-3.4h-1.3Zm8.36 0 1.58 5.01h1.2l1.03-3.5 1.03 3.5h1.23l1.5-5h-1.17l-.94 3.38-1.01-3.39H31.7l-1 3.4h-.01l-.96-3.4h-1.3Z"/></svg>