<svg xmlns="http://www.w3.org/2000/svg" fill="none" viewBox="0 0 48 48"><g clip-path="url(#a)"><path fill="var(--illustration-gray)" fill-rule="evenodd" d="M47.414 39.414A2 2 0 0 0 48 38V12a2 2 0 0 0-2-2H2a2 2 0 0 0-2 2v26a2 2 0 0 0 2 2h18.8v4.8a1.2 1.2 0 0 1-1.2 1.2h-5.2v2h19.2v-2h-5.2a1.2 1.2 0 0 1-1.2-1.2V40H46a2 2 0 0 0 1.414-.586" clip-rule="evenodd"/><path fill="var(--illustration-white)" d="M45.6 12H2.4v23h43.2z"/><path fill="var(--illustration-primary)" d="M24 31.1a.85.85 0 0 1-.84.84L7.24 32a.85.85 0 0 1-.84-.84V.87A.84.84 0 0 1 7.24 0h15.92a.85.85 0 0 1 .84.84z"/><path fill="var(--illustration-black)" d="M24 10H6.4v2H24z"/><path fill="#E66020" d="M24 13.8a7 7 0 1 1 0 14z"/><path fill="var(--illustration-black)" d="M24 13.8a7 7 0 1 0 0 14z"/></g><defs><clipPath id="a"><path fill="var(--illustration-white)" d="M0 0h48v48H0z"/></clipPath></defs></svg>