<svg xmlns="http://www.w3.org/2000/svg" fill="none" viewBox="0 0 48 48"><path fill="var(--illustration-black)" fill-rule="evenodd" d="M27 44v-8h2v8z" clip-rule="evenodd"/><path fill="var(--illustration-gray)" d="M48 16H0v16h48z"/><path fill="var(--illustration-black)" fill-rule="evenodd" d="M11 16V4h2v12z" clip-rule="evenodd"/><path fill="var(--illustration-positive)" d="M16 8H8v24h8z"/><path fill="var(--illustration-invert)" fill-rule="evenodd" d="M2 46V0H0v48h48v-2z" clip-rule="evenodd"/><path fill="var(--illustration-black)" fill-rule="evenodd" d="M8 16h8v16h-3v4h-2v-4H8zm19-4v4h-3v16h8V16h-3v-4z" clip-rule="evenodd"/><path fill="var(--illustration-negative)" d="M32 32h-8v8h8z"/><path fill="var(--illustration-black)" fill-rule="evenodd" d="M43 12V0h2v12z" clip-rule="evenodd"/><path fill="var(--illustration-positive)" d="M48 4h-8v24h8z"/><path fill="var(--illustration-black)" fill-rule="evenodd" d="M40 16h8v16h-3v4h-2v-4h-3z" clip-rule="evenodd"/><path fill="var(--illustration-invert)" d="M11 32h2v4h-2zm16 8h2v4h-2zm16-8h2v4h-2zm0-32h2v4h-2zM27 12h2v4h-2zM11 4h2v4h-2z"/></svg>