<svg xmlns="http://www.w3.org/2000/svg" fill="none" viewBox="0 0 48 48"><path fill="var(--illustration-gray)" d="M15 0h29v48H15V0Z"/><path fill="var(--illustration-primary)" d="M22.26 42.17a18.26 18.26 0 1 0 0-36.52 18.26 18.26 0 0 0 0 36.52Z"/><path fill="var(--illustration-black)" fill-rule="evenodd" d="M14.95 40.65V7.17a18.26 18.26 0 1 1 0 33.48Z" clip-rule="evenodd"/><path fill="var(--illustration-white)" d="M22.26 25.73a1.83 1.83 0 1 0 0-3.65 1.83 1.83 0 0 0 0 3.65Z"/><path fill="var(--illustration-white)" fill-rule="evenodd" d="M23.26 12.95v10.96h-2V12.95h2Z" clip-rule="evenodd"/><path fill="var(--illustration-white)" fill-rule="evenodd" d="m27.03 30.1-5.48-5.48 1.41-1.42 5.48 5.48-1.41 1.41ZM23.26 7.48v2.74h-2V7.48h2Zm0 30.12v2.74h-2V37.6h2Zm11.38-24.66-1.84 1.84-1.41-1.41 1.84-1.85 1.41 1.42Z" clip-rule="evenodd"/><path fill="var(--illustration-black)" fill-rule="evenodd" d="m13.13 34.45-1.85 1.85-1.4-1.42 1.83-1.84 1.42 1.41Z" clip-rule="evenodd"/><path fill="var(--illustration-white)" fill-rule="evenodd" d="M38.69 24.9h-2.74v-2h2.74v2Z" clip-rule="evenodd"/><path fill="var(--illustration-black)" fill-rule="evenodd" d="M8.56 24.9H5.82v-2h2.74v2Z" clip-rule="evenodd"/><path fill="var(--illustration-white)" fill-rule="evenodd" d="m33.23 36.3-1.84-1.85 1.41-1.41 1.84 1.84-1.41 1.42Z" clip-rule="evenodd"/><path fill="var(--illustration-black)" fill-rule="evenodd" d="m11.71 14.78-1.84-1.84 1.41-1.42 1.85 1.85-1.42 1.41Z" clip-rule="evenodd"/></svg>