<svg xmlns="http://www.w3.org/2000/svg" fill="none" viewBox="0 0 48 48"><path fill="var(--illustration-gray)" d="m34.923 1.091-30.4 15.204 7.873 15.74 30.4-15.202-7.873-15.741Z"/><path fill="var(--illustration-gray)" d="M12.911 16.295 5.04 32.035l30.4 15.204 7.872-15.74-30.4-15.204Z"/><path fill="var(--illustration-accent-1)" d="M39.198 0a8.8 8.8 0 1 0 7.05 14.07c.17-.22.33-.46.48-.71a8.74 8.74 0 0 0 1.27-4.56 8.798 8.798 0 0 0-8.8-8.8Zm0 30.4a8.8 8.8 0 1 0 7.05 14.07c.17-.22.33-.46.48-.71a8.738 8.738 0 0 0 1.27-4.56 8.801 8.801 0 0 0-8.8-8.8Z"/><path fill="var(--illustration-primary)" fill-rule="evenodd" d="M12.74 31.869a8.8 8.8 0 0 1-11.47-12.43c.15-.25.31-.49.48-.71.17-.22.35-.44.54-.65A8.769 8.769 0 0 1 8.8 15.2c1.38 0 2.728.324 3.94.93L28.48 24l-15.74 7.87v-.001Z" clip-rule="evenodd"/><path fill="var(--illustration-black)" fill-rule="evenodd" d="M36.37 5.972a4 4 0 1 1 5.658 5.657 4 4 0 0 1-5.658-5.657ZM39.2 2.8a6 6 0 1 1-.002 12 6 6 0 0 1 .002-12Zm-2.83 33.571a4 4 0 1 1 5.657 5.657 4 4 0 0 1-5.657-5.657ZM39.2 33.2a6 6 0 1 1 .001 12 6 6 0 0 1-.001-12Z" clip-rule="evenodd"/></svg>