<svg xmlns="http://www.w3.org/2000/svg" fill="none" viewBox="0 0 49 48"><path fill="var(--illustration-primary)" d="M40.4 16c4.5 0 8.1-3.6 8.1-8s-3.6-8-8.1-8-8.1 3.6-8.1 8 3.6 8 8.1 8M8.1 48c4.5 0 8.1-3.6 8.1-8s-3.6-8-8.1-8S0 35.6 0 40s3.6 8 8.1 8"/><path fill="var(--illustration-gray)" d="M24.2 42.8c10.5 0 18.9-8.4 18.9-18.8S34.7 5.2 24.2 5.2 5.3 13.6 5.3 24s8.5 18.8 18.9 18.8"/><path fill="var(--illustration-black)" d="M40.4 16c-4.5 0-8.1-3.6-8.1-8 0-.3 0-.6.1-.9 3.9 1.8 7.1 5 8.9 8.9zM16.202 40c0 .3 0 .6-.1.9-3.9-1.9-7.1-5-9-8.9.3 0 .6-.1 1-.1 4.4.1 8.1 3.7 8.1 8.1"/><path fill="var(--illustration-invert)" fill-rule="evenodd" d="M33.034 26.735c1.248-4.545-1.51-9.21-6.1-10.47l.53-1.93c5.61 1.54 9.051 7.275 7.5 12.93-1.548 5.634-7.398 8.944-13.028 7.4-5.723-1.543-9.05-7.286-7.502-12.93l.002-.005c.77-2.753 2.538-4.968 4.867-6.299l.992 1.737c-1.87 1.069-3.303 2.853-3.933 5.099-1.248 4.555 1.423 9.209 6.097 10.467l.004.002c4.57 1.254 9.318-1.436 10.571-6" clip-rule="evenodd"/><path fill="var(--illustration-invert)" fill-rule="evenodd" d="m20.942 14.445.357 6.198-1.996.115-.243-4.203-4.302.244-.113-1.997z" clip-rule="evenodd"/></svg>