<svg xmlns="http://www.w3.org/2000/svg" fill="none" viewBox="0 0 48 49"><path fill="var(--illustration-gray)" d="M40 .2H8v48h32z"/><path fill="var(--illustration-primary)" d="M48 12.2H0v24h48z"/><path fill="var(--illustration-black)" fill-rule="evenodd" d="M40 12.2H8v24h32z" clip-rule="evenodd"/><path fill="var(--illustration-white)" d="M27.696 26.345c0-1.973-1.2-2.633-3.518-2.955-1.71-.248-2.04-.645-2.04-1.448 0-.757.578-1.297 1.695-1.297 1.133 0 1.725.442 1.905 1.477h1.68c-.157-1.567-1.065-2.497-2.58-2.767v-1.763h-1.687v1.733c-1.673.24-2.753 1.35-2.753 2.782 0 1.845 1.118 2.565 3.473 2.88 1.597.263 2.055.608 2.055 1.515 0 .908-.773 1.515-1.86 1.515-1.673 0-2.07-.825-2.19-1.822h-1.763c.12 1.635 1.005 2.865 3.045 3.142v1.755h1.688v-1.755c1.74-.277 2.85-1.492 2.85-2.992"/><path fill="var(--illustration-white)" fill-rule="evenodd" d="M31 23.2h7v2h-7zm-21 0h7v2h-7zm22 4h5v2h-5zm-21 0h5v2h-5zm21-8h5v2h-5zm-21 0h5v2h-5z" clip-rule="evenodd"/></svg>