<svg xmlns="http://www.w3.org/2000/svg" fill="none" viewBox="0 0 48 49"><path fill="var(--illustration-primary)" d="M3 4.2v22c0 9.938 18 18 18 18s18-8.062 18-18v-22z"/><path fill="var(--illustration-black)" fill-rule="evenodd" d="M8 8.2h26v18.4c0 1.79-.917 3.462-2.105 4.897-1.2 1.45-2.774 2.776-4.308 3.888a45 45 0 0 1-4.22 2.69 45 45 0 0 1-1.892 1.006l-.028.014-.008.004h-.003L21 38.2l-.436.9-.003-.001-.008-.004-.028-.014a27 27 0 0 1-.5-.253c-.338-.175-.817-.43-1.391-.754a45 45 0 0 1-4.221-2.69c-1.534-1.111-3.108-2.437-4.308-3.887C8.917 30.063 8 28.39 8 26.6zm13 30-.436.9.436.21.435-.21zm0-1.12.056-.028c.319-.166.777-.41 1.328-.72a43 43 0 0 0 4.029-2.566c1.466-1.063 2.892-2.275 3.942-3.544C31.417 28.938 32 27.711 32 26.6V10.2H10v16.4c0 1.111.583 2.338 1.645 3.622 1.05 1.268 2.476 2.48 3.942 3.544a43 43 0 0 0 4.03 2.566 43 43 0 0 0 1.383.749" clip-rule="evenodd"/><path fill="var(--illustration-gray)" d="M21 .2h24v48H21z"/><path fill="var(--illustration-black)" fill-rule="evenodd" d="M21 44.2s18-8.062 18-18v-22H21z" clip-rule="evenodd"/><path fill="var(--illustration-white)" d="m21 39.31.435-.21-.435-.9.436.9.003-.001.008-.004.028-.014a27 27 0 0 0 .5-.253c.338-.175.817-.43 1.391-.754a45 45 0 0 0 4.221-2.69c1.534-1.111 3.108-2.437 4.308-3.887C33.083 30.063 34 28.39 34 26.6V8.2H21v2h11v16.4c0 1.111-.583 2.338-1.645 3.622-1.05 1.268-2.476 2.48-3.942 3.544a43 43 0 0 1-4.03 2.566c-.55.31-1.008.554-1.327.72L21 37.08z"/><path fill="var(--illustration-white)" fill-rule="evenodd" d="M33 17.2H9v-2h24z" clip-rule="evenodd"/><path fill="var(--illustration-black)" fill-rule="evenodd" d="M21 17.2H9v-2h12z" clip-rule="evenodd"/></svg>