<svg xmlns="http://www.w3.org/2000/svg" fill="none" viewBox="0 0 48 48"><path fill="var(--illustration-gray)" d="M36 12H0v36h36V12Z"/><path fill="var(--illustration-gray)" d="M36 24a12 12 0 1 0 0-24 12 12 0 0 0 0 24Z"/><path fill="var(--illustration-primary)" d="M12 48a12 12 0 1 0 0-24 12 12 0 0 0 0 24Z"/><path fill="var(--illustration-white)" d="M10.18 40.6a1 1 0 0 1-.7-.29l-3.56-3.56 1.41-1.41 2.85 2.85 7.3-7.3 1.4 1.42-8 8a1 1 0 0 1-.7.29Z"/><path fill="var(--illustration-primary)" d="M36 24a12 12 0 0 1 0 24V24Z"/><path fill="var(--illustration-black)" d="M36 48a12 12 0 0 1 0-24v24Z"/><path fill="var(--illustration-primary)" d="M36 24V12H24a12 12 0 0 0 12 12Z"/><path fill="var(--illustration-gray)" d="M0 12a12 12 0 1 1 24 0H0Z"/><path fill="var(--illustration-primary)" d="M24 12a12 12 0 0 1-24 0h24Z"/></svg>