<svg xmlns="http://www.w3.org/2000/svg" fill="none" viewBox="0 0 48 48"><path fill="var(--illustration-gray)" d="M12 48a12 12 0 1 0 0-24 12 12 0 0 0 0 24Zm0-24a12 12 0 1 0 0-24 12 12 0 0 0 0 24Z"/><path fill="var(--illustration-accent-1)" d="M24 36V24H12v12h12Z"/><path fill="var(--illustration-white)" d="M36 12H12v24h24V12Z"/><path fill="var(--illustration-gray)" d="M36 24a12 12 0 1 0 0-24 12 12 0 0 0 0 24Z"/><path fill="var(--illustration-primary)" d="M24 12a12 12 0 0 0 12 12V12H24Z"/><path fill="var(--illustration-gray)" d="M36 48a12 12 0 1 0 0-24 12 12 0 0 0 0 24Z"/><path fill="var(--illustration-white)" d="M24 24V12H12v12h12Z"/><path fill="var(--illustration-primary)" d="M24 12H12v12a12 12 0 0 0 12-12Zm12 12a12 12 0 0 0-12 12h12V24Z"/><path fill="var(--illustration-gray)" d="m12 24-2-14 14 2-12 12Z"/><path fill="var(--illustration-black)" d="M24 12v12H12l12-12Z"/><path fill="var(--illustration-gray)" d="M36 48a12 12 0 1 0 0-24 12 12 0 0 0 0 24Z"/><path fill="var(--illustration-primary)" d="M12 24v12h12a12 12 0 0 0-12-12Zm12 12h12V24a12 12 0 0 0-12 12Z"/></svg>