<svg xmlns="http://www.w3.org/2000/svg" fill="none" viewBox="0 0 48 48"><path fill="var(--illustration-primary)" d="M34 48a14 14 0 1 0 0-28 14 14 0 0 0 0 28Z"/><path fill="var(--illustration-gray)" fill-rule="evenodd" d="M27 0h21v21L21 48 0 27 27 0Zm15 8.25a2.25 2.25 0 1 1-4.5 0 2.25 2.25 0 0 1 4.5 0Z" clip-rule="evenodd"/><path fill="var(--illustration-black)" fill-rule="evenodd" d="M44.39 24.61a14 14 0 1 0-19.77 19.77l19.77-19.77Z" clip-rule="evenodd"/><path fill="var(--illustration-white)" fill-rule="evenodd" d="M33 40V28h2v12h-2Z" clip-rule="evenodd"/><path fill="var(--illustration-white)" fill-rule="evenodd" d="M28 33h12v2H28v-2Z" clip-rule="evenodd"/></svg>