<svg xmlns="http://www.w3.org/2000/svg" fill="none" viewBox="0 0 48 48"><path fill="var(--illustration-gray)" d="M35.59 48a10.76 10.76 0 1 0 0-21.52 10.76 10.76 0 0 0 0 21.52Z"/><path fill="var(--illustration-invert)" d="M48 24.83H23.17V0h24.78L48 24.83Z"/><path fill="var(--illustration-primary)" d="M48 0H35.59v24.83H48V0Z"/><path fill="var(--illustration-gray)" d="M23.17 24.83 35.6 37.24 48 24.83H23.17Z"/><path fill="var(--illustration-primary)" d="m28 29.63 7.61 7.61L39.88 33l3.31-3.32A10.76 10.76 0 0 0 28 29.63Z"/><path fill="var(--illustration-black)" d="m40.14 32.69-4.55 4.55-4.56-4.55"/><path fill="var(--illustration-primary)" d="M10.76 26.48a10.76 10.76 0 1 0 0 21.52 10.76 10.76 0 0 0 0-21.52Z"/><path fill="var(--illustration-white)" d="M9.32 41.11a1 1 0 0 1-.7-.29L5.75 38l1.41-1.42 2.16 2.12 5.75-5.7 1.42 1.41L10 40.82a1 1 0 0 1-.68.29Z"/><path fill="var(--illustration-gray)" d="M10.76 23.17a10.76 10.76 0 1 0 0-21.52 10.76 10.76 0 0 0 0 21.52Z"/><path fill="var(--illustration-black)" fill-rule="evenodd" d="M6.28 9.35 7.7 7.94l3.05 3.05 3.06-3.05 1.41 1.41-3.05 3.06 3.06 3.06-1.41 1.41-3.07-3.06-3.06 3.06-1.41-1.41 3.06-3.06-3.06-3.06Z" clip-rule="evenodd"/></svg>