<svg xmlns="http://www.w3.org/2000/svg" fill="none" viewBox="0 0 48 48"><path fill="var(--illustration-gray)" d="M35.59 48c5.943 0 10.76-4.817 10.76-10.76s-4.817-10.76-10.76-10.76-10.76 4.817-10.76 10.76S29.648 48 35.59 48Z"/><path fill="var(--illustration-black)" d="M48 24.83H23.17V0h24.78L48 24.83Z"/><path fill="var(--illustration-primary)" d="M48 0H35.59v24.83H48V0Z"/><path fill="var(--illustration-gray)" d="m23.17 24.83 12.42 12.41L48 24.83H23.17Z"/><path fill="var(--illustration-primary)" d="m28 29.63 7.61 7.61L39.88 33l3.31-3.32A10.76 10.76 0 0 0 28 29.63Z"/><path fill="var(--illustration-black)" d="m40.14 32.69-4.55 4.55-4.56-4.55"/><path fill="var(--illustration-primary)" d="M10.76 26.48a10.76 10.76 0 1 0 0 21.52 10.76 10.76 0 0 0 0-21.52Z"/><path fill="var(--illustration-white)" d="M9.32 41.11a1 1 0 0 1-.7-.29L5.75 38l1.41-1.42 2.16 2.12 5.75-5.7 1.42 1.41L10 40.82a1 1 0 0 1-.68.29Z"/><path fill="var(--illustration-gray)" d="M10.76 23.17c5.943 0 10.76-4.817 10.76-10.76S16.703 1.65 10.76 1.65 0 6.467 0 12.41s4.817 10.76 10.76 10.76Z"/><path fill="var(--illustration-black)" fill-rule="evenodd" d="m6.285 9.352 1.414-1.414 3.055 3.054 3.054-3.054 1.415 1.414-3.055 3.055 3.062 3.062-1.415 1.414-3.061-3.062-3.062 3.062-1.414-1.414 3.061-3.062-3.054-3.055Z" clip-rule="evenodd"/></svg>