<svg xmlns="http://www.w3.org/2000/svg" fill="none" viewBox="0 0 40 40"><path fill="var(--illustration-gray)" d="M36.598 26.875 20.665 37.5 4.723 26.875a1.254 1.254 0 0 1 0-2.083L9.657 21.5l9.616 6.417 1.392.925 1.383-.925 9.617-6.417 4.933 3.292c.742.5.742 1.591 0 2.083Z"/><path fill="var(--illustration-primary)" d="M20.665 2.5 4.723 13.125a1.253 1.253 0 0 0 0 2.083l15.942 10.625 15.942-10.625a1.253 1.253 0 0 0 0-2.083L20.665 2.5Z"/><path fill="var(--illustration-invert)" d="m11.915 20 8.75 5.833L29.415 20l-8.75-5.833L11.915 20Z"/></svg>