<svg xmlns="http://www.w3.org/2000/svg" fill="none" viewBox="0 0 48 48"><path fill="var(--illustration-accent-4)" d="M27 48V0H0v48z"/><path fill="var(--illustration-gray)" d="M27 48V0H0v48z"/><path fill="var(--illustration-primary)" d="M9.481 40H46.52c.814 0 1.481-.8 1.481-1.778V9.778C48 8.8 47.333 8 46.519 8H9.48C8.667 8 8 8.8 8 9.778v28.444C8 39.2 8.667 40 9.481 40"/><path fill="var(--illustration-black)" d="M27 8H9.462C8.658 8 8 8.8 8 9.778v28.444C8 39.2 8.658 40 9.462 40H27z"/><path fill="var(--illustration-white)" d="M18 24a3 3 0 1 0 0-6 3 3 0 0 0 0 6m0 1.5c-3.315 0-6 2.017-6 4.5h12c0-2.483-2.685-4.5-6-4.5"/><path fill="var(--illustration-black)" fill-rule="evenodd" d="M44 25H31v-2h13zm0 4H31v-2h13zm0-8H31v-2h13z" clip-rule="evenodd"/></svg>