<svg xmlns="http://www.w3.org/2000/svg" fill="none" viewBox="0 0 48 48"><path fill="var(--illustration-gray)" d="M32 0h16v48H32V0Z"/><path fill="var(--illustration-primary)" d="M0 11c0-1.1.9-2 2-2h40a2 2 0 0 1 2 2v25a2 2 0 0 1-2 2H2a2 2 0 0 1-2-2V11Z"/><path fill="var(--illustration-black)" fill-rule="evenodd" d="M32 38V9h10a2 2 0 0 1 2 2v25a2 2 0 0 1-2 2H32Z" clip-rule="evenodd"/><path fill="var(--illustration-black)" d="M0 12h44v6H0v-6Z"/><path fill="var(--illustration-white)" d="M4 21h18v4H4v-4Zm22 0h6v4h-6v-4Z"/><path fill="var(--illustration-gray)" d="M32 21h4v4h-4v-4Z"/></svg>