<svg xmlns="http://www.w3.org/2000/svg" fill="none" viewBox="0 0 49 48"><path fill="var(--illustration-gray)" d="M24 4.8a19.2 19.2 0 1 1-13.58 5.62A19.111 19.111 0 0 1 24 4.8ZM24 0a24 24 0 1 0 17 7 23.92 23.92 0 0 0-17-7Z"/><path fill="var(--illustration-gray)" d="M26.398 45.6h-4.8a57.39 57.39 0 0 1 4-21.35 51.789 51.789 0 0 1 11.5-17.55l3.4 3.4c-8.96 8.96-14.1 21.9-14.1 35.5Z"/><path fill="var(--illustration-primary)" d="M26.401 45.6h-4.8a49.291 49.291 0 0 0-14.5-35.1l3.4-3.4a54.1 54.1 0 0 1 15.9 38.5Z"/><path fill="var(--illustration-gray)" d="M2.398 26.4v-4.8c2.12 0 6-1.23 10.14-4.68a28.25 28.25 0 0 0 9.13-15.09L26.328 3a32.86 32.86 0 0 1-10.69 17.58c-4.25 3.59-9.33 5.82-13.24 5.82Z"/><path fill="var(--illustration-invert)" d="M15.945 13.46a28.046 28.046 0 0 1-3.41 3.46c.94 1.32 1.8 2.68 2.6 4.08.17-.14.34-.27.51-.42a31.1 31.1 0 0 0 3.07-3c-.9-1.406-1.823-2.78-2.77-4.12Z"/><path fill="var(--illustration-primary)" d="M37.329 40.48a34.06 34.06 0 0 1-5.08-19.89c.27-5.84 2.13-11.17 4.85-13.89l3.4 3.4c-1.54 1.54-3.21 5.45-3.45 10.71a29.84 29.84 0 0 0 4.43 17.34l-4.15 2.33Z"/><path fill="var(--illustration-black)" d="M8.65 41.6a2.4 2.4 0 1 0 0-4.8 2.4 2.4 0 0 0 0 4.8Z"/><path fill="var(--illustration-invert)" d="M8.65 41.6a2.4 2.4 0 1 0 0-4.8 2.4 2.4 0 0 0 0 4.8Z"/><path fill="var(--illustration-positive)" d="M39.33 41.6a2.4 2.4 0 1 0 0-4.8 2.4 2.4 0 0 0 0 4.8Z"/><path fill="var(--illustration-invert)" d="M41.24 37.75a31.683 31.683 0 0 1-1.47-2.81 19.415 19.415 0 0 1-2.19 2.64c-.41.4-.82.78-1.26 1.14.26.47.52.94.8 1.41.123.288.3.549.52.77a2.4 2.4 0 0 0 3.6-3.15ZM24.001 4.8a2.4 2.4 0 1 0 0-4.8 2.4 2.4 0 0 0 0 4.8Zm-.079 24.44a57.91 57.91 0 0 0-2.32 16.36 2.4 2.4 0 0 0 4.8 0 54.81 54.81 0 0 0-2.48-16.36Zm21.677-2.84a2.4 2.4 0 1 0 0-4.8 2.4 2.4 0 0 0 0 4.8ZM2.4 26.4a2.4 2.4 0 1 0 0-4.8 2.4 2.4 0 0 0 0 4.8Z"/><path fill="var(--illustration-invert)" fill-rule="evenodd" d="M40.349 10.251a2.4 2.4 0 1 0-3.232-3.533L37.1 6.7c-2.72 2.72-4.58 8.05-4.85 13.89v.004l-.03.856a46.439 46.439 0 0 1 8.13-11.199Z" clip-rule="evenodd"/><path fill="var(--illustration-invert)" d="M7.099 10.5c.58.58 1.15 1.17 1.7 1.78a18.922 18.922 0 0 1 1.62-1.86 21.452 21.452 0 0 1 1.76-1.55 350.52 350.52 0 0 0-1.68-1.77 2.404 2.404 0 1 0-3.4 3.4Z"/></svg>