<svg xmlns="http://www.w3.org/2000/svg" fill="none" viewBox="0 0 48 48"><path fill="var(--illustration-gray)" d="M48.002 0h-38.4v31.2h38.4z"/><path fill="var(--illustration-primary)" d="m28.802 12.16-19.2-9.6V0h38.4v2.56z"/><path fill="var(--illustration-accent-1)" fill-rule="evenodd" d="M2 16.8h34.4a2 2 0 0 1 2 2V42a2 2 0 0 1-2 2H23.2l-4 4-4-4H2a2 2 0 0 1-2-2V18.8a2 2 0 0 1 2-2" clip-rule="evenodd"/><path fill="var(--illustration-primary)" d="M36.722 16.8H9.602v14.4h28.8V18.48a1.68 1.68 0 0 0-1.68-1.68"/></svg>