<svg xmlns="http://www.w3.org/2000/svg" fill="none" viewBox="0 0 48 48"><path fill="var(--illustration-gray)" d="M24 48a24 24 0 1 0 0-48 24 24 0 0 0 0 48Z"/><path fill="var(--illustration-invert-2)" d="M24 44a20 20 0 1 0 0-40 20 20 0 0 0 0 40Z"/><path fill="var(--illustration-primary)" d="M24 48a24 24 0 0 0 0-48v48Zm0-4L10.67 24 24 29.83V44Z"/><path fill="var(--illustration-black)" fill-rule="evenodd" d="M24 4v40l13.33-20L24 4Z" clip-rule="evenodd"/><path fill="var(--illustration-gray-3)" d="M24 4v25.83L10.67 24 24 4Z"/></svg>