<svg xmlns="http://www.w3.org/2000/svg" fill="none" viewBox="0 0 48 48"><path fill="var(--illustration-gray)" d="M40 0H8v48h32V0Z"/><path fill="var(--illustration-positive)" d="M48 12H0v24h48V12Z"/><path fill="var(--illustration-black)" fill-rule="evenodd" d="M40 12H8v24h32V12Z" clip-rule="evenodd"/><path fill="var(--illustration-white)" d="M27.7 26.15c0-1.98-1.2-2.64-3.52-2.96-1.71-.25-2.04-.64-2.04-1.45 0-.75.58-1.3 1.7-1.3 1.13 0 1.72.45 1.9 1.48h1.68a2.89 2.89 0 0 0-2.58-2.76v-1.77h-1.69v1.74c-1.67.24-2.75 1.35-2.75 2.78 0 1.84 1.12 2.56 3.47 2.88 1.6.26 2.06.6 2.06 1.51s-.78 1.52-1.86 1.52c-1.68 0-2.07-.83-2.2-1.82h-1.76c.12 1.63 1 2.86 3.05 3.14v1.75h1.69v-1.75c1.74-.28 2.85-1.5 2.85-3Z"/><path fill="var(--illustration-white)" fill-rule="evenodd" d="M31 23h7v2h-7v-2Zm-21 0h7v2h-7v-2Zm22 4h5v2h-5v-2Zm-21 0h5v2h-5v-2Zm21-8h5v2h-5v-2Zm-21 0h5v2h-5v-2Z" clip-rule="evenodd"/></svg>