<svg xmlns="http://www.w3.org/2000/svg" fill="none" viewBox="0 0 48 48"><path fill="var(--illustration-gray)" d="M36 24a11.6 11.6 0 0 1-3.51 8.49 11.6 11.6 0 0 1-8.49 3.5v12a23.1 23.1 0 0 0 17-7A23.1 23.1 0 0 0 48 24H36Z"/><path fill="var(--illustration-primary)" d="M24 12V0A23.1 23.1 0 0 0 7 7a23.1 23.1 0 0 0-7 17h12a11.6 11.6 0 0 1 3.51-8.49 11.6 11.6 0 0 1 8.49-3.5Zm-5.66 6.34A7.73 7.73 0 0 0 16 24a7.73 7.73 0 0 0 2.34 5.66A7.73 7.73 0 0 0 24 32V16a7.73 7.73 0 0 0-5.66 2.34Z"/><path fill="var(--illustration-accent-1)" d="M32 24a7.73 7.73 0 0 0-2.34-5.66A7.73 7.73 0 0 0 24 16v16a7.73 7.73 0 0 0 5.66-2.34A7.73 7.73 0 0 0 32 24Z"/><path fill="var(--illustration-primary)" d="M19.76 37.76A5.78 5.78 0 0 0 18 42a5.78 5.78 0 0 0 1.76 4.24A5.78 5.78 0 0 0 24 48V36a5.78 5.78 0 0 0-4.24 1.76Z"/><path fill="var(--illustration-black)" d="M30 42a5.78 5.78 0 0 0-1.76-4.24A5.78 5.78 0 0 0 24 36v12a5.78 5.78 0 0 0 4.24-1.76A5.78 5.78 0 0 0 30 42Z"/><path fill="var(--illustration-primary)" d="M46.24 19.76A5.78 5.78 0 0 0 42 18a5.78 5.78 0 0 0-4.24 1.76A5.78 5.78 0 0 0 36 24h12a5.78 5.78 0 0 0-1.76-4.24Z"/><path fill="var(--illustration-black)" d="M42 30a5.78 5.78 0 0 0 4.24-1.76A5.78 5.78 0 0 0 47.99 24H36a5.78 5.78 0 0 0 1.77 4.24A5.78 5.78 0 0 0 42 30Z"/><path fill="var(--illustration-gray)" d="M1.76 28.24A5.78 5.78 0 0 0 6 30a5.78 5.78 0 0 0 4.24-1.76A5.78 5.78 0 0 0 12 24H0a5.78 5.78 0 0 0 1.76 4.24Z"/><path fill="var(--illustration-black)" d="M6 18a5.78 5.78 0 0 0-4.24 1.76A5.78 5.78 0 0 0 0 24h12a5.78 5.78 0 0 0-1.76-4.24A5.78 5.78 0 0 0 6 18Z"/><path fill="var(--illustration-gray)" d="M28.24 10.24A5.78 5.78 0 0 0 30 6a5.78 5.78 0 0 0-1.76-4.24A5.78 5.78 0 0 0 24 0v12a5.78 5.78 0 0 0 4.24-1.76Z"/><path fill="var(--illustration-black)" d="M18 6a5.78 5.78 0 0 0 1.76 4.24A5.78 5.78 0 0 0 24 12V0a5.78 5.78 0 0 0-4.24 1.76A5.78 5.78 0 0 0 18 6Z"/></svg>