<svg xmlns="http://www.w3.org/2000/svg" fill="none" viewBox="0 0 48 48"><path fill="var(--illustration-gray)" d="M34.125 4h-20.25C12.839 4 12 4.895 12 6v40c0 1.105.84 2 1.875 2h20.25C35.161 48 36 47.105 36 46V6c0-1.105-.84-2-1.875-2"/><path fill="var(--illustration-gray)" d="M40 48v-4H8v4zm8-40H0v24h48z"/><path fill="var(--illustration-primary)" d="M36 8H12v24h24z"/><path fill="var(--illustration-invert-2)" d="M18.343 14.356a7.7 7.7 0 0 0-2.342 5.65h7.993V12a7.7 7.7 0 0 0-5.651 2.355"/><path fill="var(--illustration-invert)" d="M23.994 20.006H16a7.7 7.7 0 0 0 2.342 5.65 7.7 7.7 0 0 0 5.65 2.355 7.72 7.72 0 0 0 5.664-2.355z"/><path fill="var(--illustration-gray)" d="M29.655 14.356A7.72 7.72 0 0 0 23.992 12v8.005l5.663 5.65a7.7 7.7 0 0 0 2.342-5.65 7.7 7.7 0 0 0-2.342-5.65"/></svg>