<svg xmlns="http://www.w3.org/2000/svg" fill="none" viewBox="0 0 48 48"><path fill="var(--illustration-gray)" d="M24 48a24 24 0 1 0 0-48 24 24 0 0 0 0 48Z"/><path fill="var(--illustration-primary)" d="M48 24a24 24 0 0 1-48 0h48Z"/><path fill="var(--illustration-primary)" d="M24 0a24 24 0 0 1 0 48V0Z"/><path fill="var(--illustration-gray)" d="M24 24v24a24 24 0 0 0 24-24H24Z"/><path fill="var(--illustration-invert-2)" d="M24 12.8c-13.25 0-24 5.4-24 12C0 14.9 10.75 6.4 24 6.4"/><path fill="var(--illustration-primary)" d="M24 15.6a6 6 0 1 1 0-12"/><path fill="var(--illustration-invert-2)" d="M24 35.2c13.25 0 24-5.4 24-12 0 9.9-10.75 18.4-24 18.4"/><path fill="var(--illustration-primary)" d="M24 32.4a6 6 0 1 1 0 12"/><path fill="var(--illustration-invert)" d="M5.6 39.4h12.48a6 6 0 0 0 5.92 5v-12a6 6 0 0 0-5.92 5H4.1a24 24 0 0 0 1.5 2ZM42.4 8.6H29.93a6 6 0 0 0-5.92-5v12a6 6 0 0 0 5.92-5h14a24 24 0 0 0-1.51-2Z"/></svg>