<svg xmlns="http://www.w3.org/2000/svg" fill="none" viewBox="0 0 48 48"><path fill="var(--illustration-primary)" d="M10 0h28a2 2 0 0 1 2 2v44a2 2 0 0 1-2 2H10a2 2 0 0 1-2-2V2c0-1.1.9-2 2-2Z"/><path fill="var(--illustration-gray)" d="M48 8H0v32h48V8Z"/><path fill="var(--illustration-black)" d="M40 8H8v32h32V8ZM22 43h4c.6 0 1 .4 1 1s-.4 1-1 1h-4c-.6 0-1-.4-1-1s.4-1 1-1Zm2-38a1 1 0 1 0 0-2 1 1 0 0 0 0 2Z"/><path fill="var(--illustration-black)" d="M23.8 27.8a3.9 3.9 0 1 0 0-7.8 3.9 3.9 0 0 0 0 7.8Z"/><path fill="var(--illustration-white)" fill-rule="evenodd" d="M23.8 21a2.9 2.9 0 1 0 0 5.8 2.9 2.9 0 0 0 0-5.8Zm-4.9 2.9a4.9 4.9 0 1 1 9.8 0 4.9 4.9 0 0 1-9.8 0Z" clip-rule="evenodd"/><path fill="var(--illustration-white)" fill-rule="evenodd" d="M23.9 16.1a7.8 7.8 0 1 0 0 15.6 7.8 7.8 0 0 0 0-15.6Zm-9.8 7.8a9.8 9.8 0 1 1 19.6 0 9.8 9.8 0 0 1-19.6 0Z" clip-rule="evenodd"/><path fill="var(--illustration-white)" fill-rule="evenodd" d="m20.6 22.1-3.9-3.9 1.4-1.4 3.9 3.9-1.4 1.4Zm9 8.92-3.8-3.7 1.4-1.44 3.8 3.7-1.4 1.44ZM16.7 29.6l3.5-3.5 1.4 1.4-3.5 3.5-1.4-1.4Zm14.6-11.7-4.2 4.2-1.4-1.4 4.2-4.2 1.4 1.4Z" clip-rule="evenodd"/></svg>