<svg xmlns="http://www.w3.org/2000/svg" fill="none" viewBox="0 0 48 48"><path fill="var(--illustration-primary)" d="M0 40h48v8H0z"/><path fill="var(--illustration-gray)" d="M8 48h32V8H8z"/><path fill="var(--illustration-gray)" d="M0 16h48V8H0z"/><path fill="var(--illustration-primary)" d="M8 16h32V8H8z"/><path fill="var(--illustration-accent-1)" d="M32 8a8 8 0 1 1-16 0 8 8 0 0 1 16 0"/><path fill="var(--illustration-black)" d="M32 8a8 8 0 0 1-16 0z"/><path fill="var(--illustration-white)" d="M24 14a6 6 0 0 0-6-6 6 6 0 0 0 6-6 6 6 0 0 0 6 6 6 6 0 0 0-6 6"/><path fill="var(--illustration-black)" d="M8 40h32v8H8z"/><path fill="var(--illustration-invert)" fill-rule="evenodd" d="M13 23h22v2H13zm0 9h22v2H13z" clip-rule="evenodd"/></svg>