<svg xmlns="http://www.w3.org/2000/svg" fill="none" viewBox="0 0 49 49"><path fill="var(--illustration-primary)" d="M49 48.974H10.228c-5.611 0-10.202-4.59-10.202-10.202s4.59-10.204 10.203-10.204H49v20.406Z"/><path stroke="var(--illustration-black)" stroke-miterlimit="10" stroke-width="2" d="M32.675 38.772H44.92"/><path fill="var(--illustration-gray)" d="M44.817 18.57 17.473 46.016c-3.98 3.979-10.51 3.979-14.489 0-3.979-3.98-3.979-10.51 0-14.489L30.431 4.183 44.817 18.57Z"/><path fill="var(--illustration-black)" d="M34.818 28.568h-24.59c-2.856 0-5.407 1.123-7.244 2.96l-.714.714c0 .204-.102.306-.204.408-.102.102-.204.306-.306.408-.102.102-.204.306-.306.408-.102.102-.204.306-.204.408-.102.204-.204.408-.204.51-.102.102-.102.306-.204.408-.102.102-.102.306-.204.408-.102.204-.102.306-.204.51 0 .103-.102.307-.102.51 0 .205-.102.307-.102.51 0 .205-.102.409-.102.511 0 .102 0 .306-.102.408v2.04c0 .103 0 .307.102.409 0 .204 0 .408.102.51 0 .204.102.306.102.51 0 .204.102.306.102.51 0 .204.102.306.204.51.102.102.102.306.204.409 0 .306.102.408.204.612.102.204.102.306.204.51.102.102.204.306.204.408.102.102.204.306.306.408.102.102.204.204.306.408.102.102.204.204.306.408.204.306.408.51.714.715.307.204.51.51.715.714.102 0 .204.102.306.204.102.102.306.204.408.306.102.102.306.204.408.306.102.102.306.204.408.204.204.102.408.204.51.204.102.102.306.102.408.204.102.102.306.102.408.204.205.102.307.102.51.204.103 0 .307.102.51.102.205 0 .307.102.51.102.205 0 .41.102.511.102.102 0 .306 0 .408.102h1.02c2.653 0 5.204-1.02 7.245-2.958l17.447-17.448Z"/><path fill="var(--illustration-accent-1)" d="m39.087 1.252-5.771 5.772 8.657 8.657 5.772-5.771-8.658-8.658Z"/><path stroke="var(--illustration-black)" stroke-miterlimit="10" stroke-width="2" d="M27.574 7.04 41.96 21.426M24.513 10.101l14.386 14.386"/><path fill="var(--illustration-white)" d="m9.82 34.588 1.02 3.367 3.368 1.02-3.367 1.02-1.02 3.368-1.02-3.367-3.368-1.02 3.367-1.02 1.02-3.368Z"/></svg>