<svg xmlns="http://www.w3.org/2000/svg" fill="none" viewBox="0 0 49 49"><path fill="var(--illustration-primary)" d="M48.998 48.974H10.227C4.615 48.974.024 44.383.024 38.771s4.591-10.203 10.203-10.203h38.771z"/><path stroke="var(--illustration-black)" stroke-miterlimit="10" stroke-width="2" d="M32.673 38.771h12.244"/><path fill="var(--illustration-gray)" d="M44.817 18.57 17.473 46.016c-3.98 3.979-10.51 3.979-14.489 0s-3.979-10.51 0-14.489L30.43 4.183z"/><path fill="var(--illustration-invert)" d="M34.816 28.568h-24.59c-2.856 0-5.407 1.123-7.243 2.96l-.714.713c0 .205-.102.306-.204.409-.103.102-.205.306-.307.408s-.204.306-.306.408-.204.306-.204.408c-.102.204-.204.408-.204.51-.102.102-.102.306-.204.408s-.102.306-.204.408c-.102.204-.102.306-.204.51 0 .102-.102.306-.102.51s-.102.307-.102.51c0 .205-.102.409-.102.51 0 .103 0 .307-.102.409v2.04c0 .103 0 .307.102.409 0 .204 0 .408.102.51 0 .204.102.306.102.51s.102.306.102.51.102.306.204.51c.102.102.102.306.204.409 0 .306.102.408.204.612s.102.306.204.51c.102.102.204.306.204.408.102.102.204.306.306.408s.204.204.307.408c.102.102.204.204.306.408.204.306.408.51.714.715.306.203.51.51.714.714.102 0 .204.102.306.204s.306.204.408.306.306.204.408.306.306.204.408.204c.205.102.409.204.51.204.103.102.307.102.409.204s.306.102.408.204c.204.102.306.102.51.204.102 0 .306.102.51.102s.306.102.51.102.408.102.51.102.307 0 .409.102h1.02c2.653 0 5.203-1.02 7.244-2.958z"/><path fill="var(--illustration-accent-1)" d="m39.087 1.252-5.772 5.772 8.658 8.657 5.771-5.771z"/><path stroke="var(--illustration-black)" stroke-miterlimit="10" stroke-width="2" d="m27.572 7.04 14.386 14.386M24.511 10.1l14.386 14.387"/><path fill="var(--illustration-invert-2)" d="m9.82 34.588 1.02 3.367 3.367 1.02-3.367 1.02-1.02 3.368-1.02-3.367-3.368-1.02L8.8 37.954z"/></svg>