<svg xmlns="http://www.w3.org/2000/svg" fill="none" viewBox="0 0 40 40"><path fill="var(--illustration-primary)" d="M4.472 2.5H28.39c.626 0 1.139.508 1.139 1.129v21.452H4.472a1.137 1.137 0 0 1-1.139-1.13V3.63c0-.62.513-1.129 1.14-1.129Z"/><path fill="var(--illustration-black)" d="M29.528 8.145h-20.5v16.936h20.5V8.145Z"/><path fill="var(--illustration-gray)" d="M36.362 8.145h-4.556V27.34H9.028v4.516c0 .62.513 1.129 1.14 1.129h21.724L37.5 37.5V9.274c0-.62-.512-1.129-1.138-1.129Z"/><path fill="var(--illustration-white)" d="M24.141 12.921a2.867 2.867 0 0 0-4.026 0 2.805 2.805 0 0 0-.837 1.998c0-.722-.279-1.445-.831-1.998a2.867 2.867 0 0 0-4.026 0 2.807 2.807 0 0 0 0 3.991c.404.412 4.857 4.217 4.857 4.217s4.453-3.805 4.863-4.211a2.814 2.814 0 0 0 0-3.997Z"/></svg>