<svg xmlns="http://www.w3.org/2000/svg" fill="none" viewBox="0 0 48 48"><path fill="var(--illustration-accent-4)" d="M27 48V0H0v48z"/><path fill="var(--illustration-gray)" d="M27 48V0H0v48z"/><path fill="var(--illustration-primary)" d="M9.481 38H46.52c.814 0 1.481-.7 1.481-1.556V11.556C48 10.7 47.333 10 46.519 10H9.48C8.667 10 8 10.7 8 11.556v24.888C8 37.3 8.667 38 9.481 38"/><path fill="var(--illustration-black)" d="M27 10H9.462C8.658 10 8 10.7 8 11.556v24.888C8 37.3 8.658 38 9.462 38H27z"/><path fill="var(--illustration-white)" fill-rule="evenodd" d="M44 33.3H31v-2h13zm0-4.7H31v-2h13zm0-4.6H31v-2h13z" clip-rule="evenodd"/><path fill="var(--illustration-white)" d="M18 28a3 3 0 1 0 0-6 3 3 0 0 0 0 6m0 1.5c-3.315 0-6 2.017-6 4.5h12c0-2.483-2.685-4.5-6-4.5"/><path fill="var(--illustration-primary)" d="M8 14h19v4H8z"/><path fill="var(--illustration-black)" d="M27 14h21v4H27z"/></svg>