<svg xmlns="http://www.w3.org/2000/svg" fill="none" viewBox="0 0 48 48"><path fill="var(--illustration-accent-4)" d="M27 48V0H0v48h27Z"/><path fill="var(--illustration-gray)" d="M27 48V0H0v48h27Z"/><path fill="var(--illustration-positive)" d="M9.48 40h37.04c.81 0 1.48-.8 1.48-1.78V9.78C48 8.8 47.33 8 46.52 8H9.48C8.67 8 8 8.8 8 9.78v28.44C8 39.2 8.67 40 9.48 40Z"/><path fill="var(--illustration-black)" d="M27 8H9.46C8.66 8 8 8.8 8 9.78v28.44C8 39.2 8.66 40 9.46 40H27V8Z"/><path fill="var(--illustration-white)" d="M18 24a3 3 0 1 0 0-6 3 3 0 0 0 0 6Zm0 1.5c-3.31 0-6 2.02-6 4.5h12c0-2.48-2.68-4.5-6-4.5Z"/><path fill="var(--illustration-black)" fill-rule="evenodd" d="m44.68 20.73-9.35 8.63-5.01-4.63 1.36-1.46 3.65 3.37 7.99-7.37 1.36 1.46Z" clip-rule="evenodd"/></svg>