<svg xmlns="http://www.w3.org/2000/svg" fill="none" viewBox="0 0 40 40"><path fill="var(--illustration-primary)" d="M35.57 13.663 20.447 2.737a1.253 1.253 0 0 0-1.469 0L3.855 13.663c-.985.71-.485 2.27.734 2.27h30.255c1.219 0 1.72-1.553.735-2.27h-.009Z"/><path fill="var(--illustration-gray)" d="M13.828 14.956H8.653v16.117h5.175V14.956Zm8.472 0h-5.175v16.117H22.3V14.956Zm8.463 0h-5.175v16.117h5.175V14.956Z"/><path fill="var(--illustration-black)" d="M13.828 12.01H8.653v3.923h5.175V12.01Zm8.472 0h-5.175v3.923H22.3V12.01Zm8.463 0h-5.175v3.923h5.175V12.01Zm3.38 21.567H5.283c-.692 0-1.253.56-1.253 1.252v1.419c0 .691.56 1.252 1.252 1.252h28.861c.692 0 1.252-.56 1.252-1.252v-1.42c0-.69-.56-1.251-1.252-1.251Z"/></svg>