<svg xmlns="http://www.w3.org/2000/svg" fill="none" viewBox="0 0 49 49"><path fill="var(--illustration-gray)" d="M20 13v26H1v9h47V13z"/><path fill="var(--illustration-gray)" d="M20 35a8 8 0 0 1 0-16"/><path fill="var(--illustration-primary)" d="M20 19a8 8 0 0 1 0 16m-4 4a6 6 0 1 1-12 0"/><path fill="var(--illustration-gray)" d="M4 39a6 6 0 1 1 12 0"/><path fill="var(--illustration-primary)" d="M48 13a12 12 0 0 1-24 0"/><path fill="var(--illustration-gray)" d="M24 13a12 12 0 0 1 24 0"/><path fill="var(--illustration-black)" fill-rule="evenodd" d="M40.95 8.05a7 7 0 1 1-9.9 9.9 7 7 0 0 1 9.9-9.9M45 13a9 9 0 1 1-18 0 9 9 0 0 1 18 0" clip-rule="evenodd"/><path fill="var(--illustration-invert)" d="M1 49a1 1 0 0 1-.71-.29A1 1 0 0 1 0 48V1h2v46h46v2z"/></svg>