<svg xmlns="http://www.w3.org/2000/svg" fill="none" viewBox="0 0 48 48"><path fill="var(--illustration-primary)" d="M40 0H8v45h32V0Z"/><path fill="var(--illustration-gray)" d="M42.57 16H5.43C4.64 16 4 16.7 4 17.56V44h40V17.56c0-.86-.64-1.56-1.43-1.56Z"/><path fill="var(--illustration-black)" d="M40 16H8v28h32V16Z"/><path fill="var(--illustration-gray)" d="M46.5 48h-45C.68 48 0 47.1 0 46v-2h48v2c0 1.1-.67 2-1.5 2Z"/><path fill="var(--illustration-positive)" fill-rule="evenodd" d="M13 28v6h-2v-6h2Zm4-3v6h-2v-6h2Z" clip-rule="evenodd"/><path fill="var(--illustration-negative)" fill-rule="evenodd" d="M25 32v6h-2v-6h2Z" clip-rule="evenodd"/><path fill="var(--illustration-positive)" fill-rule="evenodd" d="M29 25v6h-2v-6h2Z" clip-rule="evenodd"/><path fill="var(--illustration-negative)" fill-rule="evenodd" d="M33 29v5h-2v-5h2Z" clip-rule="evenodd"/><path fill="var(--illustration-positive)" fill-rule="evenodd" d="M37 22v8h-2v-8h2Z" clip-rule="evenodd"/><path fill="var(--illustration-negative)" fill-rule="evenodd" d="M21 28v5h-2v-5h2Z" clip-rule="evenodd"/></svg>