<svg xmlns="http://www.w3.org/2000/svg" fill="none" viewBox="0 0 48 48"><path fill="var(--illustration-gray)" d="M48 24H0v24h48z"/><path fill="var(--illustration-primary)" d="M24 48A24 24 0 0 1 0 24h18a6 6 0 1 0 12 0h18a24 24 0 0 1-24 24"/><path fill="var(--illustration-gray)" d="M48 24H30a6 6 0 1 0-12 0H0a24 24 0 1 1 48 0"/><path fill="var(--illustration-black)" d="M9 33a9 9 0 1 0 0-18 9 9 0 0 0 0 18"/><path fill="var(--illustration-primary)" d="M0 24a9 9 0 0 1 18 0zm39 8.98a9 9 0 1 0 0-18 9 9 0 0 0 0 18"/><path fill="var(--illustration-black)" d="M48 24a9 9 0 0 1-18 0z"/><path fill="var(--illustration-white)" d="M38.98 23.98a3.18 3.18 0 1 0 0-6.36 3.18 3.18 0 0 0 0 6.36M39 24a6.35 6.35 0 0 0-6.36 6.35 9 9 0 0 0 12.71 0A6.35 6.35 0 0 0 39 24m-28.467-3H7.467C6.657 21 6 21.657 6 22.467v3.066C6 26.343 6.657 27 7.467 27h3.066c.81 0 1.467-.657 1.467-1.467v-3.066c0-.81-.657-1.467-1.467-1.467"/></svg>