<svg xmlns="http://www.w3.org/2000/svg" fill="none" viewBox="0 0 48 49"><path fill="var(--illustration-gray)" d="m24 48.002 13.73-15.17a19.002 19.002 0 0 0 5.47-13.63 19.19 19.19 0 0 0-5.47-13.73A19.19 19.19 0 0 0 24 .003a19 19 0 0 0-13.63 5.47 19.3 19.3 0 0 0-5.57 13.73 19.05 19.05 0 0 0 5.57 13.63L24 48.003Z"/><path fill="var(--illustration-primary)" d="M10.37 5.473a19.3 19.3 0 0 0-5.57 13.73 19.05 19.05 0 0 0 5.57 13.63L24 48.003v-48a19 19 0 0 0-13.63 5.47Z"/><path fill="var(--illustration-white)" d="M24 31.302c6.683 0 12.1-5.417 12.1-12.1 0-6.682-5.418-12.1-12.1-12.1-6.683 0-12.1 5.418-12.1 12.1 0 6.683 5.417 12.1 12.1 12.1Z"/><path fill="var(--illustration-gray)" d="M24 10.402a8.8 8.8 0 1 1 0 17.6v-17.6Z"/><path fill="var(--illustration-primary)" d="m24 8.003 2.78 8.08 7.97.03-6.58 4.56 2.62 8.08-6.79-4.91-6.79 4.91 3.31-8.08-7.27-4.56 7.97-.03L24 8.002Z"/><path fill="var(--illustration-black)" d="M32.24 16.102h-5.46l-1.94-5.64a7.898 7.898 0 0 0-.84 0v13.38l4.24 3.07a8.568 8.568 0 0 0 1.59-1.12l-1.66-5.12 4.48-3.1a9.135 9.135 0 0 0-.41-1.47Z"/><path fill="var(--illustration-primary)" d="M21.22 16.082h-8l7.27 4.56-3.31 8.08 6.82-4.88V8.003l-2.78 8.08Z"/></svg>