<svg xmlns="http://www.w3.org/2000/svg" fill="none" viewBox="0 0 48 49"><path fill="var(--illustration-gray)" d="m24 48 13.73-15.17A19 19 0 0 0 43.2 19.2a19.19 19.19 0 0 0-5.47-13.73A19.19 19.19 0 0 0 24 0a19 19 0 0 0-13.63 5.47A19.3 19.3 0 0 0 4.8 19.2a19.05 19.05 0 0 0 5.57 13.63L24 48Z"/><path fill="var(--illustration-primary)" d="M10.37 5.47A19.3 19.3 0 0 0 4.8 19.2a19.05 19.05 0 0 0 5.57 13.63L24 48V0a19 19 0 0 0-13.63 5.47Z"/><path fill="var(--illustration-invert-2)" d="M24 31.3a12.1 12.1 0 1 0 0-24.2 12.1 12.1 0 0 0 0 24.2Z"/><path fill="var(--illustration-gray)" d="M24 10.4A8.8 8.8 0 0 1 24 28V10.4Z"/><path fill="var(--illustration-primary)" d="m24 8 2.78 8.08 7.97.03-6.58 4.56 2.62 8.08-6.79-4.9-6.79 4.9 3.31-8.08-7.27-4.56 7.97-.03L24 8Z"/><path fill="var(--illustration-primary)" d="M32.24 16.1h-5.46l-1.94-5.64a7.85 7.85 0 0 0-.84 0v13.38l4.24 3.07a8.3 8.3 0 0 0 1.59-1.12l-1.66-5.12 4.48-3.1c-.1-.5-.23-.99-.41-1.47Z"/><path fill="var(--illustration-invert)" d="M21.22 16.08h-8l7.27 4.56-3.31 8.08L24 23.84V8l-2.78 8.08Z"/></svg>