<svg xmlns="http://www.w3.org/2000/svg" fill="none" viewBox="0 0 48 48"><path fill="var(--illustration-gray)" d="M48 43.2H0V48h48v-4.8ZM28 0H14v17.6h14V0Zm7 0h-4v17.6h4V0Z"/><path fill="var(--illustration-primary)" d="m40.8 41.6 4.8-24H3.2l4.76 24H40.8Z"/><path fill="var(--illustration-gray)" d="m3.2 17.6 1.59 8 1.58 8 1.59 8H40.8l1.6-8 1.6-8 1.6-8H3.2Z"/><path fill="var(--illustration-accent-1)" d="M24.5 17.6H35a10.5 10.5 0 1 0-21 0h10.5Z"/><path fill="var(--illustration-primary)" d="M24.5 28.1A10.5 10.5 0 0 0 35 17.6H14a10.5 10.5 0 0 0 10.5 10.5Z"/><path fill="var(--illustration-black)" fill-rule="evenodd" d="M29.1 13a6.5 6.5 0 1 1-9.2 9.2 6.5 6.5 0 0 1 9.2-9.2ZM16 17.6a8.5 8.5 0 1 1 17 0 8.5 8.5 0 0 1-17 0Z" clip-rule="evenodd"/><path fill="var(--illustration-black)" d="M14.4 45.6a4 4 0 0 0 4-4h-8a4 4 0 0 0 4 4Z"/><path fill="var(--illustration-primary)" d="M14.4 37.6a4 4 0 0 0-3.66 5.6h7.32a3.89 3.89 0 0 0 .03-3.13 4 4 0 0 0-3.7-2.47Z"/><path fill="var(--illustration-black)" d="M34.4 45.6a4 4 0 0 0 4-4h-8a4 4 0 0 0 4 4Z"/><path fill="var(--illustration-primary)" d="M34.4 37.6a4 4 0 0 0-3.66 5.6h7.32a3.9 3.9 0 0 0 .03-3.13 4 4 0 0 0-3.7-2.47Z"/></svg>