<svg xmlns="http://www.w3.org/2000/svg" fill="none" viewBox="0 0 48 48"><path fill="var(--illustration-primary)" d="M8 2a2 2 0 0 1 2-2h28a2 2 0 0 1 2 2v44a2 2 0 0 1-2 2H10a2 2 0 0 1-2-2z"/><path fill="var(--illustration-gray)" d="M48 8H0v32h48z"/><path fill="var(--illustration-black)" d="M40 8H8v32h32z"/><circle cx="24" cy="24" r="12" fill="var(--illustration-positive)"/><path fill="var(--illustration-black)" fill-rule="evenodd" d="M30.5 20.64 22.292 29 17.5 24.12l1.61-1.64 3.182 3.24L28.889 19z" clip-rule="evenodd"/><path fill="var(--illustration-black)" d="M21 44a1 1 0 0 1 1-1h4a1 1 0 1 1 0 2h-4a1 1 0 0 1-1-1m4-40a1 1 0 1 1-2 0 1 1 0 0 1 2 0"/></svg>