<svg xmlns="http://www.w3.org/2000/svg" fill="none" viewBox="0 0 48 48"><path fill="var(--illustration-positive)" d="M48 20H0v24h48V20Z"/><path fill="var(--illustration-black)" fill-rule="evenodd" d="M40 20H8v24h32V20Z" clip-rule="evenodd"/><path fill="var(--illustration-white)" d="M27.7 34.15c0-1.98-1.2-2.64-3.52-2.96-1.71-.25-2.04-.64-2.04-1.45 0-.75.58-1.3 1.7-1.3 1.13 0 1.72.45 1.9 1.48h1.68a2.89 2.89 0 0 0-2.58-2.76v-1.77h-1.69v1.74c-1.67.24-2.75 1.35-2.75 2.78 0 1.84 1.12 2.56 3.47 2.88 1.6.26 2.06.6 2.06 1.51s-.78 1.52-1.86 1.52c-1.68 0-2.07-.83-2.2-1.82h-1.76c.12 1.63 1 2.86 3.05 3.14v1.75h1.69v-1.75c1.74-.28 2.85-1.5 2.85-3Z"/><path fill="var(--illustration-white)" fill-rule="evenodd" d="M31 31h7v2h-7v-2Zm-21 0h7v2h-7v-2Zm22 4h5v2h-5v-2Zm-21 0h5v2h-5v-2Zm21-8h5v2h-5v-2Zm-21 0h5v2h-5v-2Z" clip-rule="evenodd"/><path fill="var(--illustration-gray)" d="M17.82 11.65C19.12 7.05 21.39 4 23.99 4a15.86 15.86 0 0 0-13.47 7.65h7.3Z"/><path fill="var(--illustration-gray)" d="M30.16 11.65h7.3A15.86 15.86 0 0 0 23.97 4c2.6 0 4.87 3.05 6.18 7.65Zm.36 1.39c.47 2.1.76 4.46.8 6.96H40c-.1-2.5-.73-4.86-1.77-6.96h-7.71Zm-1.37 0H18.82A32.78 32.78 0 0 0 18 20h11.99a32.38 32.38 0 0 0-.83-6.96Z"/><path fill="var(--illustration-gray)" d="M23.98 5.4c-1.74 0-3.6 2.36-4.78 6.25h9.57c-1.19-3.9-3.04-6.26-4.79-6.26ZM9.74 13.04A17.18 17.18 0 0 0 7.97 20h8.67c.05-2.5.34-4.86.81-6.96H9.74Z"/></svg>