<svg xmlns="http://www.w3.org/2000/svg" fill="none" viewBox="0 0 48 48"><path fill="var(--illustration-accent-1)" d="M40 16a16 16 0 1 1-32 0 16 16 0 0 1 32 0Z"/><path fill="var(--illustration-primary)" d="M20 26h8v14h-8V26Z"/><path fill="var(--illustration-black)" fill-rule="evenodd" d="M28 31.5a16.03 16.03 0 0 1-8 0V26h8v5.5Z" clip-rule="evenodd"/><path fill="var(--illustration-primary)" d="m24 48 12-12H12l12 12 12-12H12l12 12Z"/><path fill="var(--illustration-black)" d="M27.58 17.75c0-1.97-1.2-2.63-3.51-2.95-1.71-.25-2.05-.65-2.05-1.45 0-.76.58-1.3 1.7-1.3 1.13 0 1.73.44 1.9 1.48h1.68c-.15-1.57-1.06-2.5-2.57-2.77V9h-1.7v1.73c-1.67.24-2.75 1.35-2.75 2.79 0 1.84 1.12 2.56 3.48 2.88 1.6.26 2.05.6 2.05 1.51 0 .9-.77 1.52-1.86 1.52-1.67 0-2.07-.83-2.19-1.83H20c.12 1.64 1 2.87 3.05 3.14v1.76h1.68v-1.75c1.74-.28 2.85-1.5 2.85-3Z"/></svg>