<svg xmlns="http://www.w3.org/2000/svg" fill="none" viewBox="0 0 48 48"><path fill="var(--illustration-primary)" d="m1.05 46.44.01-3.82L40.14 3.54l4.52 4.52L5.8 46.93z"/><path fill="var(--illustration-gray)" fill-rule="evenodd" d="M16.686 10.76a3.2 3.2 0 0 0-4.663.098L0 22.88v9.05l14.375-14.383L31.103 34.63a3.2 3.2 0 0 0 4.549.023l9.5-9.5a3.2 3.2 0 1 0-4.526-4.525l-7.213 7.214z" clip-rule="evenodd"/><path fill="var(--illustration-invert-2)" d="M42.399 27.34a3.84 3.84 0 1 0 0-7.68 3.84 3.84 0 0 0 0 7.68"/><path fill="var(--illustration-invert)" fill-rule="evenodd" d="M42.399 20.66a2.84 2.84 0 1 0 0 5.68 2.84 2.84 0 0 0 0-5.68m-4.84 2.84a4.84 4.84 0 1 1 9.68 0 4.84 4.84 0 0 1-9.68 0" clip-rule="evenodd"/><path fill="var(--illustration-invert-2)" d="M42.399 9.64a3.84 3.84 0 1 0 0-7.68 3.84 3.84 0 0 0 0 7.68"/><path fill="var(--illustration-invert)" fill-rule="evenodd" d="M42.399 2.96a2.84 2.84 0 1 0 0 5.68 2.84 2.84 0 0 0 0-5.68m-4.84 2.84a4.84 4.84 0 1 1 9.68 0 4.84 4.84 0 0 1-9.68 0" clip-rule="evenodd"/><path fill="var(--illustration-black)" d="m24.65 28.08 4.53-4.53-4.48-4.58-4.52 4.53z"/><path fill="var(--illustration-invert)" d="M2 0H0v48h2z"/><path fill="var(--illustration-invert)" d="M48 48v-2H0v2z"/></svg>