<svg xmlns="http://www.w3.org/2000/svg" fill="none" viewBox="0 0 48 48"><path fill="var(--illustration-accent-1)" d="M19.5 39C30.27 39 39 30.27 39 19.5S30.27 0 19.5 0 0 8.73 0 19.5 8.73 39 19.5 39"/><path fill="var(--illustration-primary)" d="M36 48c6.627 0 12-5.373 12-12s-5.373-12-12-12-12 5.373-12 12 5.373 12 12 12"/><path fill="var(--illustration-black)" d="M38.4 24.225c-.75-.15-1.575-.225-2.4-.225-6.6 0-12 5.4-12 12 0 .825.075 1.65.225 2.4A19.43 19.43 0 0 0 38.4 24.225"/><path fill="var(--illustration-black)" fill-rule="evenodd" d="M19 27V13h2v14z" clip-rule="evenodd"/><path fill="var(--illustration-black)" fill-rule="evenodd" d="M13 19h14v2H13z" clip-rule="evenodd"/></svg>