<svg xmlns="http://www.w3.org/2000/svg" fill="none" viewBox="0 0 48 48"><path fill="var(--illustration-gray)" d="m37.576 3.133-35.009 9.38a1.872 1.872 0 0 0-1.33 2.29l6.28 23.439a1.872 1.872 0 0 0 2.297 1.317l35.01-9.38a1.872 1.872 0 0 0 1.33-2.29l-6.28-23.44a1.872 1.872 0 0 0-2.298-1.316Z"/><path fill="var(--illustration-black)" fill-rule="evenodd" d="M6.4 35.352a4 4 0 1 0 0 8 4 4 0 0 0 0-8Zm-6 4a6 6 0 1 1 12 0 6 6 0 0 1-12 0Z" clip-rule="evenodd"/><path fill="var(--illustration-accent-1)" d="M46.122 12.045H9.878A1.872 1.872 0 0 0 8 13.912v24.266c0 1.031.84 1.867 1.878 1.867h36.244A1.872 1.872 0 0 0 48 38.178V13.912c0-1.031-.84-1.867-1.878-1.867Z"/><path fill="var(--illustration-primary)" fill-rule="evenodd" d="M41.909 12.045H9.878A1.872 1.872 0 0 0 8 13.912v24.266c0 .478.18.913.477 1.243.398.202.87.263 1.337.138l35.01-9.38a1.872 1.872 0 0 0 1.33-2.29l-4.245-15.844Z" clip-rule="evenodd"/><path fill="var(--illustration-black)" fill-rule="evenodd" d="M6.4 35.352a4 4 0 0 0-4 4 1 1 0 0 1-2 0 5.999 5.999 0 0 1 6-6 6 6 0 0 1 4.2 1.716 1 1 0 0 1-1.4 1.428 4 4 0 0 0-2.8-1.145" clip-rule="evenodd"/></svg>