<svg xmlns="http://www.w3.org/2000/svg" fill="none" viewBox="0 0 48 48"><path fill="var(--illustration-gray)" d="M21 48V0h27v48H21Z"/><path fill="var(--illustration-primary)" d="M0 13.17C0 11.97.97 11 2.17 11H21v26H2.17C.97 37 0 36.03 0 34.83V13.17Z"/><path fill="var(--illustration-black)" d="M21 11h18.83c1.2 0 2.17.97 2.17 2.17v21.66c0 1.2-.97 2.17-2.17 2.17H21V11Z"/><path fill="var(--illustration-gray)" fill-rule="evenodd" d="M21 33h17v-7H21v7Z" clip-rule="evenodd"/><path fill="var(--illustration-white)" d="M10 28a3 3 0 1 0 0-6 3 3 0 0 0 0 6Zm0 1.5c-3.32 0-6 2.02-6 4.5h12c0-2.48-2.69-4.5-6-4.5Z"/><path fill="var(--illustration-primary)" d="M30 15h-9v3h9v-3Z"/><path fill="var(--illustration-gray)" d="M21 15H3v3h18v-3Z"/></svg>