<svg xmlns="http://www.w3.org/2000/svg" fill="none" viewBox="0 0 48 48"><circle cx="24" cy="22" r="22" fill="var(--illustration-gray)"/><path fill="var(--illustration-gray)" d="M10 28h28v20H10z"/><path fill="var(--illustration-primary)" d="M10 38.971V28h28v10.971A21.9 21.9 0 0 1 24 44a21.9 21.9 0 0 1-14-5.029M14 8h20v16H14zm4 16h12v4H18z"/><circle cx="20" cy="14" r="2" fill="var(--illustration-white)"/><circle cx="28" cy="14" r="2" fill="var(--illustration-white)"/><path fill="var(--illustration-black)" fill-rule="evenodd" d="M30 21H18v-2h12z" clip-rule="evenodd"/><path fill="var(--illustration-black)" d="M34 12h2v8h-2zm-22 0h2v8h-2z"/><path fill="var(--illustration-black)" fill-rule="evenodd" d="M38 17h-2v-2h2zm-28-2h2v2h-2z" clip-rule="evenodd"/><path fill="var(--illustration-accent-1)" d="M14 32h10v6H14z"/><path fill="var(--illustration-black)" fill-rule="evenodd" d="M34 34h-6v-2h6zm0 4h-6v-2h6z" clip-rule="evenodd"/><path fill="var(--illustration-primary)" d="M20 8a2 2 0 0 1 2-2h4a2 2 0 0 1 2 2z"/></svg>