<svg xmlns="http://www.w3.org/2000/svg" fill="none" viewBox="0 0 40 40"><path fill="var(--illustration-gray)" d="M14.235 6a3 3 0 0 1 3-3H34v21.878a3 3 0 0 1-3 3H14.235z"/><path fill="var(--illustration-primary)" d="M6 13.463a3 3 0 0 1 3-3h18.412V34a3 3 0 0 1-3 3H6z"/><path fill="var(--illustration-invert)" d="M14.23 10.46h13.18v17.41H14.23z"/><path fill="var(--illustration-invert-2)" d="M20.823 15.439a6.77 6.77 0 0 0 4.118 4.146 6.77 6.77 0 0 0-4.118 4.147 6.77 6.77 0 0 0-4.117-4.147 6.77 6.77 0 0 0 4.117-4.146"/></svg>