<svg xmlns="http://www.w3.org/2000/svg" fill="none" viewBox="0 0 48 48"><path fill="var(--illustration-gray)" d="M34 14H0v34h34V14Z"/><path fill="var(--illustration-black)" d="M4 44h16L4 28v16Z"/><path fill="var(--illustration-black)" d="m30 40-8-8L9.392 44h20.607v-4Z"/><path fill="var(--illustration-white)" d="M14 28a4 4 0 1 0 0-8 4 4 0 0 0 0 8Z"/><path fill="var(--illustration-primary)" d="M32 0a11 11 0 0 1 9.126 17.143C44.658 20.675 48 24.02 48 24l-2.997 2.997-6.868-6.867A11 11 0 1 1 31.999 0Z"/><path fill="var(--illustration-black)" d="M21.425 14A10.958 10.958 0 0 0 34 21.814V14H21.425Z"/></svg>