<svg xmlns="http://www.w3.org/2000/svg" fill="none" viewBox="0 0 48 48"><path fill="var(--illustration-gray)" d="M34 14H0v34h34z"/><path fill="var(--illustration-black)" d="M4 44h16L4 28z"/><path fill="var(--illustration-black)" d="m29.998 40-8-8L9.392 44h20.607z"/><path fill="var(--illustration-white)" d="M14 28a4 4 0 1 0 0-8 4 4 0 0 0 0 8"/><path fill="var(--illustration-primary)" d="M31.998 0a11 11 0 0 1 9.126 17.143c3.533 3.532 6.874 6.878 6.874 6.857l-2.997 2.997-6.868-6.867A10.999 10.999 0 1 1 31.998 0"/><path fill="var(--illustration-black)" d="M21.426 14A10.96 10.96 0 0 0 34 21.814V14z"/></svg>