<svg xmlns="http://www.w3.org/2000/svg" fill="none" viewBox="0 0 48 48"><path fill="var(--illustration-negative)" d="M24 0C10.745 0 0 10.745 0 24s10.745 24 24 24 24-10.745 24-24S37.255 0 24 0ZM4.5 24C4.5 13.248 13.248 4.5 24 4.5c4.567 0 8.769 1.582 12.096 4.223L8.723 36.096A19.398 19.398 0 0 1 4.5 24ZM24 43.5a19.398 19.398 0 0 1-12.096-4.222l27.374-27.374A19.397 19.397 0 0 1 43.5 24c0 10.752-8.748 19.5-19.5 19.5Z"/><path fill="var(--illustration-primary)" d="M24 31.5c1.243 0 2.368.504 3.182 1.318l13.789-13.789A23.928 23.928 0 0 0 24 12a23.922 23.922 0 0 0-16.97 7.03l13.788 13.788A4.483 4.483 0 0 1 24 31.5Zm0 8.5a3 3 0 1 0 0-6 3 3 0 0 0 0 6Z"/><path fill="var(--illustration-black)" d="m19.59 31.59 16.387-16.385a23.877 23.877 0 0 0-4.39-1.974L16.409 28.409l3.182 3.182Z"/></svg>