<svg xmlns="http://www.w3.org/2000/svg" fill="none" viewBox="0 0 48 48"><path fill="var(--illustration-gray)" fill-rule="evenodd" d="M14.5 7.55A19 19 0 0 0 7.55 33.5l32.9-19A19 19 0 0 0 14.5 7.55Z" clip-rule="evenodd"/><path fill="var(--illustration-primary)" fill-rule="evenodd" d="M42.1 18.17 9.9 36.75a19 19 0 1 1 32.2-18.58Z" clip-rule="evenodd"/><path fill="var(--illustration-gray)" d="M47.7 10.45c2.07 3.57-6.88 12.6-19.97 20.15C14.64 38.16 2.36 41.4.3 37.83c-2.07-3.58 6.88-12.6 19.97-20.16 13.09-7.55 25.37-10.79 27.43-7.22Z"/><path fill="var(--illustration-black)" fill-rule="evenodd" d="M42.55 19.87a18.99 18.99 0 0 0-5.5-9.68c-4.79 1.4-10.7 3.97-16.78 7.48-6.03 3.48-11.17 7.27-14.77 10.7a19 19 0 0 0 5.67 9.65c4.75-1.4 10.57-3.96 16.56-7.42 6.05-3.49 11.22-7.3 14.82-10.73Z" clip-rule="evenodd"/><path fill="var(--illustration-primary)" d="M42.92 22.26a84.91 84.91 0 0 1-14.19 10.09c-5.55 3.2-11 5.67-15.67 7.2a19 19 0 0 0 29.86-17.29Z"/></svg>