<svg xmlns="http://www.w3.org/2000/svg" fill="none" viewBox="0 0 48 48"><path fill="var(--illustration-gray)" d="M0 22.29V48h48V22.29c-17.145-14.975-30.855 14.974-48 0Z"/><path fill="var(--illustration-gray)" d="M24 32.943a12.017 12.017 0 0 0 9.442-4.598 11.97 11.97 0 0 0 2.197-10.256c-7.59.913-14.79 6.948-22.342 8.236a11.988 11.988 0 0 0 4.412 4.823 12.016 12.016 0 0 0 6.29 1.795Z"/><path fill="var(--illustration-primary)" d="M18 0h12l-6 5.99L18 0Z"/><path fill="var(--illustration-black)" d="M27 35.938h-6v11.98h6v-11.98Z"/><path fill="var(--illustration-primary)" d="M24 8.985c-2.373 0-4.693.702-6.667 2.019a11.984 11.984 0 0 0-4.42 5.376 11.96 11.96 0 0 0 2.602 13.055 12.02 12.02 0 0 0 13.077 2.597 11.995 11.995 0 0 0 5.386-4.413 11.965 11.965 0 0 0-1.493-15.126A12.01 12.01 0 0 0 24 8.985Zm0 21.712a9.761 9.761 0 0 1-5.417-1.64 9.736 9.736 0 0 1-3.59-4.368 9.717 9.717 0 0 1 2.113-10.607 9.765 9.765 0 0 1 10.626-2.11 9.746 9.746 0 0 1 4.375 3.585 9.721 9.721 0 0 1-1.213 12.29A9.759 9.759 0 0 1 24 30.697Z"/><path fill="var(--illustration-black)" d="M25.5 31.446h-3v4.492h3v-4.492Z"/><path fill="var(--illustration-black)" d="M35.64 18.089c-.757.096-1.508.233-2.25.412.227.802.347 1.63.36 2.463a9.723 9.723 0 0 1-2.021 5.92 9.766 9.766 0 0 1-11.465 3.057 9.745 9.745 0 0 1-4.71-4.125c-.738.222-1.49.402-2.25.539a11.99 11.99 0 0 0 5.658 5.44 12.019 12.019 0 0 0 14.441-3.43A11.966 11.966 0 0 0 36 20.963a12.07 12.07 0 0 0-.36-2.875Z"/></svg>