<svg xmlns="http://www.w3.org/2000/svg" fill="none" viewBox="0 0 40 40"><path fill="var(--illustration-gray)" d="M20.004 11.086 10.906 20.2l9.098 9.114 9.098-9.114-9.098-9.114ZM7.372 20.2l1.771-1.766 9.098-9.114-3.201-3.2a.982.982 0 0 0-1.39 0L.288 19.51a.987.987 0 0 0 0 1.391L13.65 34.288a.982.982 0 0 0 1.389 0l3.201-3.208-9.098-9.114-1.77-1.766Z"/><path fill="var(--illustration-primary)" d="m24.96 34.288-14.054-14.08L24.962 6.13a.982.982 0 0 1 1.388 0l13.364 13.388a.987.987 0 0 1 0 1.391L26.35 34.296a.982.982 0 0 1-1.388 0v-.008Z"/><path fill="var(--illustration-invert)" d="m20.001 11.09-9.097 9.114 9.097 9.113 9.097-9.113-9.097-9.113Z"/></svg>