<svg xmlns="http://www.w3.org/2000/svg" fill="none" viewBox="0 0 48 48"><path fill="var(--illustration-primary)" d="M48 44h-8v4h8v-4ZM8 44H0v4h8v-4ZM48 8H0v36h48V8Z"/><path fill="var(--illustration-black)" d="M40 8H8v32h32V8Z"/><path fill="var(--illustration-gray)" d="M40 0H8v8h32V0Z"/><path fill="var(--illustration-black)" d="M8 32H6v4h2v-4Zm0-20H6v4h2v-4Z"/><path fill="var(--illustration-white)" fill-rule="evenodd" d="M24 21.1a3.3 3.3 0 1 0 0 6.6 3.3 3.3 0 0 0 0-6.6Zm-5.3 3.3a5.3 5.3 0 1 1 10.6 0 5.3 5.3 0 0 1-10.6 0Z" clip-rule="evenodd"/><path fill="var(--illustration-white)" fill-rule="evenodd" d="M24 15.6a8.8 8.8 0 1 0 0 17.6 8.8 8.8 0 0 0 0-17.6Zm-10.8 8.8c0-5.965 4.835-10.8 10.8-10.8 5.965 0 10.8 4.835 10.8 10.8 0 5.965-4.835 10.8-10.8 10.8-5.965 0-10.8-4.835-10.8-10.8Z" clip-rule="evenodd"/><path fill="var(--illustration-white)" fill-rule="evenodd" d="m20.493 22.307-4.3-4.3 1.414-1.414 4.3 4.3-1.414 1.414Zm9.908 9.909-4.2-4.1 1.398-1.432 4.2 4.1-1.398 1.432Zm-14.208-1.423 3.8-3.8 1.414 1.414-3.8 3.8-1.414-1.414Zm15.914-13.086-4.6 4.6-1.414-1.414 4.6-4.6 1.414 1.414Z" clip-rule="evenodd"/></svg>