<svg xmlns="http://www.w3.org/2000/svg" fill="none" viewBox="0 0 49 48"><path fill="var(--illustration-accent-1)" d="m17.092 13.88-3.988 3.988a1.18 1.18 0 0 0 0 1.669l15.302 15.301a1.18 1.18 0 0 0 1.669 0l3.988-3.988a1.18 1.18 0 0 0 0-1.669L18.76 13.88a1.18 1.18 0 0 0-1.669 0"/><path fill="var(--illustration-gray)" d="m9.076 30.376-8.49 8.49 8.49 8.48 8.48-8.48z"/><path fill="var(--illustration-primary)" d="M3.415 38.863A2 2 0 1 0 .586 41.69l5.657 5.657A2 2 0 0 0 9.07 44.52z"/><path fill="var(--illustration-gray)" d="M39.442 0 21.375 18.067l8.485 8.485L47.927 8.485z"/><path fill="var(--illustration-black)" fill-rule="evenodd" d="m42.456 8.237-4.77 4.77-1.061-1.061 4.77-4.77zm-1.7-1.69-4.77 4.77-1.06-1.061 4.77-4.77zm.001-3.4-6.47 6.47-1.06-1.061 6.47-6.47zm5.089 5.089-6.46 6.47-1.062-1.06 6.46-6.47z" clip-rule="evenodd"/><path fill="var(--illustration-primary)" d="m31.396 3.406 13.13 13.13c.28.28.26.76-.06 1.08l-27.16 27.16c-.31.31-.79.33-1.07.05l-13.13-13.13c-.27-.27-.26-.75.06-1.06l27.16-27.17c.31-.31.8-.34 1.07-.07z"/><path fill="var(--illustration-black)" d="m19.34 14.46-5.656 5.656 14.142 14.142 5.657-5.657z"/><path fill="var(--illustration-black)" d="M24.106 31.036a7.2 7.2 0 1 0 0-14.4 7.2 7.2 0 0 0 0 14.4"/><path fill="var(--illustration-white)" d="M27.644 20.296a8.26 8.26 0 0 1-7.07 0 8.26 8.26 0 0 1 0 7.07 8.26 8.26 0 0 1 7.07 0 8.26 8.26 0 0 1 0-7.07"/></svg>