<svg xmlns="http://www.w3.org/2000/svg" fill="none" viewBox="0 0 48 48"><path fill="var(--illustration-primary)" fill-rule="evenodd" d="M4.05 2.05a7 7 0 1 1 9.9 9.9 7 7 0 0 1-9.9-9.9Zm30 0a7 7 0 1 1 9.9 9.9 7 7 0 0 1-9.9-9.9Z" clip-rule="evenodd"/><path fill="var(--illustration-primary)" d="M18 25a9 9 0 1 0-18 0v5h18v-5Zm12 0a9 9 0 1 1 18 0v5H30v-5Z"/><path fill="var(--illustration-gray)" d="M18 30h12v18H18z"/><path fill="var(--illustration-invert)" d="M30 48a18 18 0 0 0 18-18H30v18Zm-12 0A18 18 0 0 1 0 30h18v18Z"/></svg>