<svg xmlns="http://www.w3.org/2000/svg" fill="none" viewBox="0 0 48 48"><path fill="var(--illustration-primary)" fill-rule="evenodd" d="M4.05 2.05a7 7 0 1 1 9.9 9.9 7 7 0 0 1-9.9-9.9m30 0a7 7 0 1 1 9.9 9.9 7 7 0 0 1-9.9-9.9" clip-rule="evenodd"/><path fill="var(--illustration-primary)" d="M18 25a9 9 0 1 0-18 0v5h18zm12 0a9 9 0 1 1 18 0v5H30z"/><path fill="var(--illustration-gray)" d="M18 30h12v18H18z"/><path fill="var(--illustration-invert)" d="M30 48c9.941 0 18-8.059 18-18H30zm-12 0C8.059 48 0 39.941 0 30h18z"/></svg>