<svg xmlns="http://www.w3.org/2000/svg" fill="none" viewBox="0 0 48 48"><path fill="var(--illustration-primary)" d="M3 4v22c0 9.94 18 18 18 18s18-8.06 18-18V4H3Z"/><path fill="var(--illustration-black)" fill-rule="evenodd" d="M8 8h26v18.4c0 1.79-.92 3.46-2.1 4.9a23.74 23.74 0 0 1-4.31 3.88 44.88 44.88 0 0 1-6.11 3.7l-.03.01h-.01v.01L21 38l-.44.9-.04-.02a26.85 26.85 0 0 1-1.89-1 44.88 44.88 0 0 1-4.22-2.7 23.74 23.74 0 0 1-4.3-3.88C8.9 29.86 8 28.19 8 26.4V8Zm13 30-.44.9.44.21.44-.21L21 38Zm0-1.12.06-.03a43.03 43.03 0 0 0 5.35-3.28 21.78 21.78 0 0 0 3.94-3.55c1.07-1.28 1.65-2.5 1.65-3.62V10H10v16.4c0 1.11.58 2.34 1.65 3.62a21.78 21.78 0 0 0 3.94 3.55 42.83 42.83 0 0 0 5.35 3.28l.06.03Z" clip-rule="evenodd"/><path fill="var(--illustration-gray)" d="M21 0h24v48H21V0Z"/><path fill="var(--illustration-black)" fill-rule="evenodd" d="M21 44s18-8.06 18-18V4H21v40Z" clip-rule="evenodd"/><path fill="var(--illustration-white)" d="m21 39.11.44-.21L21 38l.44.9.04-.02a26.85 26.85 0 0 0 1.89-1 44.88 44.88 0 0 0 4.22-2.7 23.74 23.74 0 0 0 4.3-3.88c1.2-1.44 2.11-3.11 2.11-4.9V8H21v2h11v16.4c0 1.11-.58 2.34-1.65 3.62a21.78 21.78 0 0 1-3.94 3.55 42.83 42.83 0 0 1-5.35 3.28l-.06.03v2.23Z"/><path fill="var(--illustration-white)" fill-rule="evenodd" d="M33 17H21v-2h12v2Z" clip-rule="evenodd"/><path fill="var(--illustration-black)" fill-rule="evenodd" d="M21 17H9v-2h12v2Z" clip-rule="evenodd"/></svg>