<svg xmlns="http://www.w3.org/2000/svg" fill="none" viewBox="0 0 48 49"><path fill="var(--illustration-primary)" d="M48 0H6v36h42z"/><path fill="var(--illustration-gray)" d="m0 48 9.023-6H39a3 3 0 0 0 3-3V15a3 3 0 0 0-3-3H3a3 3 0 0 0-3 3z"/><path fill="var(--illustration-black)" d="M39 12H6v24h36V15a3 3 0 0 0-3-3"/><path fill="var(--illustration-white)" d="M24 25.5a1.5 1.5 0 1 0 0-3 1.5 1.5 0 0 0 0 3m6 0a1.5 1.5 0 1 0 0-3 1.5 1.5 0 0 0 0 3m6 0a1.5 1.5 0 1 0 0-3 1.5 1.5 0 0 0 0 3m-24 0a1.5 1.5 0 1 0 0-3 1.5 1.5 0 0 0 0 3m6 0a1.5 1.5 0 1 0 0-3 1.5 1.5 0 0 0 0 3"/></svg>