<svg xmlns="http://www.w3.org/2000/svg" fill="none" viewBox="0 0 48 48"><path fill="var(--illustration-gray)" d="M26 48V0H0v48h26Z"/><path fill="var(--illustration-primary)" d="M9.48 38h37.04c.81 0 1.48-.7 1.48-1.56V11.56c0-.86-.67-1.56-1.48-1.56H9.48C8.67 10 8 10.7 8 11.56v24.88C8 37.3 8.67 38 9.48 38Z"/><path fill="var(--illustration-black)" d="M26 10H5.46c-.8 0-1.46.7-1.46 1.56v24.88C4 37.3 4.66 38 5.46 38H26V10Z"/><path fill="var(--illustration-white)" fill-rule="evenodd" d="M14.9 31a5.9 5.9 0 0 0 0-11.82 5.9 5.9 0 0 0 0 11.82Zm5.92-5.9a5.9 5.9 0 0 0-5.91-5.92v5.91h5.9Z" clip-rule="evenodd"/><path fill="var(--illustration-primary)" fill-rule="evenodd" d="M22 23.9h-5.91V18a5.9 5.9 0 0 1 5.9 5.9Z" clip-rule="evenodd"/><path fill="var(--illustration-white)" fill-rule="evenodd" d="m42.21 18.3-11 11 1.41 1.4 11-11-1.4-1.4ZM32.83 20a.83.83 0 1 1 0 1.67.83.83 0 0 1 0-1.67Zm2.84.83a2.83 2.83 0 1 0-5.67 0 2.83 2.83 0 0 0 5.67 0Zm5.41 6.5a.83.83 0 1 1 0 1.67.83.83 0 0 1 0-1.67Zm2.84.84a2.83 2.83 0 1 0-5.67 0 2.83 2.83 0 0 0 5.67 0Z" clip-rule="evenodd"/></svg>