<svg xmlns="http://www.w3.org/2000/svg" fill="none" viewBox="0 0 48 48"><path fill="var(--illustration-primary)" d="M8 2c0-1.1.9-2 2-2h28a2 2 0 0 1 2 2v44a2 2 0 0 1-2 2H10a2 2 0 0 1-2-2V2Z"/><path fill="var(--illustration-gray)" d="M0 4h8v20H0V4Zm40 0h8v20h-8V4Z"/><path fill="var(--illustration-black)" d="M8 4h32v20H8V4Z"/><path fill="var(--illustration-gray)" d="M12 28h6v6h-6v-6Zm0 10h15v6H12v-6Zm9-10h6v6h-6v-6Z"/><path fill="var(--illustration-black)" d="M30 28h6v6h-6v-6Zm0 10h6v6h-6v-6Z"/><path fill="var(--illustration-white)" fill-rule="evenodd" d="m30.3 7.3-12 12 1.4 1.4 12-12-1.4-1.4ZM20 9a1 1 0 1 1 0 2 1 1 0 0 1 0-2Zm3 1a3 3 0 1 0-6 0 3 3 0 0 0 6 0Zm6 7a1 1 0 1 1 0 2 1 1 0 0 1 0-2Zm3 1a3 3 0 1 0-6 0 3 3 0 0 0 6 0Z" clip-rule="evenodd"/></svg>