<svg xmlns="http://www.w3.org/2000/svg" fill="none" viewBox="0 0 48 48"><path fill="var(--illustration-gray)" d="M29.6 0 24 5.6V48h24V0H29.6Z"/><path fill="var(--illustration-gray)" d="M48 48V24H0v24h48Z"/><path fill="var(--illustration-primary)" d="M12 27a9 9 0 1 0 0 18 9 9 0 0 0 0-18Z"/><path fill="var(--illustration-white)" fill-rule="evenodd" d="M15.86 39.67H8.14v-2h7.72v2Zm0-5.22H8.14v-2h7.72v2Z" clip-rule="evenodd"/><path fill="var(--illustration-primary)" d="M48 48V24H24v24h24ZM29.6 5.6H24L29.6 0v5.6ZM12 21a9 9 0 1 1 0-18m0 0a9 9 0 0 1 0 18"/><path fill="var(--illustration-white)" fill-rule="evenodd" d="M17.85 8.85 9.9 16.8l-3.52-3.53 1.42-1.42 2.1 2.11 6.52-6.53 1.42 1.42Z" clip-rule="evenodd"/><path fill="var(--illustration-gray)" d="M36 36v-9a8.64 8.64 0 0 0-6.36 2.64A8.64 8.64 0 0 0 27 36a8.64 8.64 0 0 0 2.64 6.36A8.64 8.64 0 0 0 36 45a8.64 8.64 0 0 0 6.36-2.64L36 36Z"/><path fill="var(--illustration-black)" d="M42.36 29.64A8.64 8.64 0 0 0 36 27v9l6.36 6.36A8.64 8.64 0 0 0 45 36a8.64 8.64 0 0 0-2.64-6.36Z"/></svg>