<svg xmlns="http://www.w3.org/2000/svg" fill="none" viewBox="0 0 48 48"><path fill="var(--illustration-gray)" d="M44.57 7.35a11.62 11.62 0 0 1 0 16.48l-9.28 9.3-16.49-16.5 9.3-9.29a11.76 11.76 0 0 1 16.47 0Z"/><path fill="var(--illustration-primary)" d="M3.37 7.35a11.62 11.62 0 0 1 16.48 0l10.79 10.86L14.16 34.7 3.37 23.83a11.76 11.76 0 0 1 0-16.48Z"/><path fill="var(--illustration-invert)" d="M24.02 11.48 7.55 27.95l16.47 16.48L40.5 27.95 24.02 11.48Z"/><path fill="var(--illustration-invert-2)" d="M23.97 19.26 26 25.93l6.67 2.02L26 29.98l-2.02 6.66-2.02-6.66-6.67-2.03 6.67-2.02 2.02-6.67Z"/></svg>