<svg xmlns="http://www.w3.org/2000/svg" fill="none" viewBox="0 0 48 48"><path fill="var(--illustration-gray)" d="M40 0H8v48h32V0Z"/><path fill="var(--illustration-primary)" d="M48 40V8H0v32h48Z"/><path fill="var(--illustration-black)" d="M40 8H8v32h32V8Z"/><path fill="var(--illustration-white)" d="M15.44 20.9H13v-1.3h6.52v1.3H17.1v7.47h-1.64V20.9h-.01Zm5.48 4.76h1.57c.11.88.46 1.62 1.95 1.62.97 0 1.66-.54 1.66-1.35s-.4-1.12-1.83-1.35c-2.1-.29-3.1-.92-3.1-2.57 0-1.43 1.23-2.51 3.06-2.51 1.89 0 3.01.86 3.19 2.54h-1.5c-.15-.93-.69-1.32-1.7-1.32-.98 0-1.5.48-1.5 1.16 0 .71.3 1.06 1.82 1.29 2.06.28 3.12.87 3.12 2.62 0 1.53-1.29 2.71-3.22 2.71-2.4 0-3.4-1.2-3.52-2.84Z"/><path fill="var(--illustration-white)" fill-rule="evenodd" d="M32.2 16v16h-1.5V16h1.5Z" clip-rule="evenodd"/><path fill="var(--illustration-white)" fill-rule="evenodd" d="M34.45 16.75h-6v-1.5h6v1.5Zm0 16h-6v-1.5h6v1.5Z" clip-rule="evenodd"/></svg>