<svg xmlns="http://www.w3.org/2000/svg" fill="none" viewBox="0 0 48 48"><path fill="var(--illustration-gray)" d="M36.57 0 16 20.57 27.428 32l20.57-20.57z"/><path fill="var(--illustration-black)" d="m36.572 4.567-6.857 6.857 1.14 1.14 6.857-6.856zm2.855 2.858-6.857 6.857 1.14 1.14 6.857-6.857zm2.86 2.857-6.857 6.856 1.14 1.14 6.857-6.856z"/><path fill="var(--illustration-primary)" d="M25.142 6.859 0 32l16 16 25.14-25.143z"/><path fill="var(--illustration-black)" d="M38.855 20.57 28.16 31.264a7.49 7.49 0 0 1-10.605 0l-.825-.825c-2.932-2.932-2.932-7.68 0-10.604L27.426 9.14z"/><path fill="var(--illustration-white)" d="m25.138 22.857-1.208 2.28 1.208 2.287-2.28-1.207-2.288 1.207 1.208-2.287-1.208-2.28 2.288 1.208z"/></svg>