<svg xmlns="http://www.w3.org/2000/svg" fill="none" viewBox="0 0 48 48"><path fill="var(--illustration-gray)" d="M14.03 14.07h23.05V35.8H14.03z"/><ellipse cx="14.03" cy="24" fill="var(--illustration-positive)" rx="8.75" ry="24"/><path fill="var(--illustration-primary)" d="M21.653 35.797c.719-3.483 1.13-7.509 1.13-11.797 0-3.541-.28-6.903-.783-9.929h-7.973v21.726z"/><ellipse cx="8.75" cy="24" fill="var(--illustration-accent-1)" rx="8.75" ry="24"/><path fill="var(--illustration-black)" d="M11.391 46.892C14.938 43.825 17.51 34.736 17.51 24S14.938 4.175 11.391 1.108C7.845 4.175 5.273 13.264 5.273 24s2.572 19.825 6.118 22.892"/><path fill="var(--illustration-primary)" d="M6.402 35.797h9.978c.719-3.483 1.13-7.509 1.13-11.797 0-3.541-.28-6.903-.783-9.929H6.055v.002c-.502 3.025-.782 6.387-.782 9.927 0 4.026.362 7.82 1.001 11.153q.062.325.128.644m30.735 0a10.863 10.863 0 1 0 0-21.725 10.863 10.863 0 0 0 0 21.725"/><path fill="var(--illustration-white)" d="M34.807 31.425a6.79 6.79 0 0 1 0-12.756.49.49 0 0 0 .291-.427v-.634a.32.32 0 0 0-.288-.35.3.3 0 0 0-.164.026 8.148 8.148 0 0 0 0 15.526.322.322 0 0 0 .453-.324v-.634a.49.49 0 0 0-.292-.428"/><path fill="var(--illustration-white)" d="M40.112 26.66c0-1.584-.965-2.118-2.83-2.373-1.378-.2-1.642-.523-1.642-1.166s.466-1.043 1.358-1.043c.812 0 1.28.283 1.473.937a.35.35 0 0 0 .328.251h.713a.315.315 0 0 0 .319-.369c-.226-1.034-.923-1.656-2.017-1.851v-1.091a.34.34 0 0 0-.339-.34h-.679a.34.34 0 0 0-.34.34v1.052c-1.357.19-2.215 1.087-2.215 2.236 0 1.487.905 2.064 2.797 2.32 1.288.21 1.655.489 1.655 1.22 0 .73-.623 1.222-1.5 1.222-1.184 0-1.585-.518-1.719-1.19a.344.344 0 0 0-.332-.277h-.774a.316.316 0 0 0-.315.37c.197 1.131.924 1.96 2.404 2.159v1.072a.34.34 0 0 0 .34.34h.678a.34.34 0 0 0 .34-.34v-1.072c1.403-.222 2.297-1.191 2.297-2.406"/><path fill="var(--illustration-white)" d="M39.46 17.257a.3.3 0 0 1 .165.027 8.148 8.148 0 0 1 0 15.526.323.323 0 0 1-.453-.324v-.634a.45.45 0 0 1 .292-.428 6.79 6.79 0 0 0 0-12.755.49.49 0 0 1-.292-.427v-.634a.32.32 0 0 1 .289-.35"/><path fill="var(--illustration-gray)" d="M43.488 4.576c0 1.19.474 2.335 1.32 3.175a4.53 4.53 0 0 0 3.191 1.314 4.53 4.53 0 0 0-3.192 1.314 4.48 4.48 0 0 0-1.32 3.175c0-1.19-.473-2.335-1.319-3.175a4.53 4.53 0 0 0-3.191-1.314 4.53 4.53 0 0 0 3.191-1.314 4.48 4.48 0 0 0 1.32-3.175"/><path fill="var(--illustration-black)" fill-rule="evenodd" d="m20.575 24.934-5.99 6.572-1.109-1.01 5.069-5.562-5.069-5.561 1.109-1.01z" clip-rule="evenodd"/><path fill="var(--illustration-black)" fill-rule="evenodd" d="M7.996 24.184h11.561v1.5H7.997z" clip-rule="evenodd"/></svg>