<svg xmlns="http://www.w3.org/2000/svg" fill="none" viewBox="0 0 48 48"><path fill="var(--illustration-primary)" d="M24 48A24 24 0 1 0 24-.001 24 24 0 0 0 24 48"/><path fill="var(--illustration-white)" d="M30.574 27.815c0-3.5-2.13-4.68-6.25-5.245-3.045-.44-3.63-1.155-3.63-2.575s1.03-2.305 3-2.305c1.795 0 2.83.625 3.255 2.07a.765.765 0 0 0 .725.555h1.575a.7.7 0 0 0 .705-.815c-.5-2.285-2.04-3.66-4.455-4.09V13a.75.75 0 0 0-.75-.75h-1.5a.75.75 0 0 0-.75.75v2.325c-3 .42-4.895 2.4-4.895 4.94 0 3.285 2 4.56 6.18 5.125 2.845.465 3.655 1.08 3.655 2.695s-1.375 2.7-3.315 2.7c-2.615 0-3.5-1.145-3.795-2.63a.76.76 0 0 0-.735-.61h-1.71a.7.7 0 0 0-.695.815c.435 2.5 2.04 4.33 5.31 4.77v2.37a.75.75 0 0 0 .75.75h1.5a.75.75 0 0 0 .75-.75v-2.37c3.1-.49 5.075-2.63 5.075-5.315"/><path fill="var(--illustration-white)" d="M18.854 38.34a15 15 0 0 1 0-28.18 1.08 1.08 0 0 0 .645-.946v-1.4a.71.71 0 0 0-1-.715 18 18 0 0 0 0 34.3.71.71 0 0 0 1-.715v-1.4a1.08 1.08 0 0 0-.645-.945M29.5 7.1a.71.71 0 0 0-1 .714v1.4a1.08 1.08 0 0 0 .644.945 15 15 0 0 1 0 28.18 1 1 0 0 0-.645.945v1.4a.71.71 0 0 0 1 .715 18 18 0 0 0 0-34.3"/></svg>