<svg xmlns="http://www.w3.org/2000/svg" fill="none" viewBox="0 0 48 48"><path fill="var(--illustration-gray)" d="M24.06 48a23.94 23.94 0 1 0 0-47.88 23.94 23.94 0 0 0 0 47.88Z"/><path fill="var(--illustration-white)" d="M24.1 12.71c11.93 0 21.59 11.4 21.59 11.4s-9.7 11.4-21.58 11.4c-11.9 0-21.57-11.4-21.57-11.4"/><path fill="var(--illustration-primary)" d="M24 15.31a8.8 8.8 0 1 0 .01 17.6 8.8 8.8 0 0 0 0-17.6Z"/><path fill="var(--illustration-black)" d="M44.93 24.77c-.1-.12-10.45-11.86-21.76-11.86C11.86 12.91 2.46 23.85 2.36 24L.84 22.67c.4-.48 10.1-11.76 22.33-11.76C35.4 10.91 46 23 46.44 23.46l-1.51 1.31Z"/><path fill="var(--illustration-primary)" d="M24 .11H0v24h24v-24Z"/><path fill="var(--illustration-invert-2)" d="M12 18.51a6.4 6.4 0 1 0 0-12.8 6.4 6.4 0 0 0 0 12.8Z"/><path fill="var(--illustration-invert)" d="m15.1 12.11-4.65-3.1v6.21l4.65-3.11Z"/><path fill="var(--illustration-black)" fill-rule="evenodd" d="M18.4 24.11h-3.2a8.8 8.8 0 0 1 8.8-8.8v8.8h-5.6Z" clip-rule="evenodd"/></svg>