<svg xmlns="http://www.w3.org/2000/svg" fill="none" viewBox="0 0 48 48"><path fill="var(--illustration-gray)" d="M16 8h32v40H16z"/><path fill="var(--illustration-primary)" d="M0 16h16v24H0z"/><path fill="var(--illustration-black)" d="M16 16h16v24H16z"/><path fill="var(--illustration-gray)" d="M24 8a4 4 0 0 1 4-4h8a4 4 0 0 1 4 4zm4-4a4 4 0 0 1 8 0z"/><path fill="var(--illustration-primary)" d="M44 28c0 6.627-5.373 12-12 12s-12-5.373-12-12 5.373-12 12-12 12 5.373 12 12"/><path fill="var(--illustration-white)" fill-rule="evenodd" d="M33 27.899V19h-2v9.768l5.318 4.963 1.364-1.462z" clip-rule="evenodd"/></svg>