<svg xmlns="http://www.w3.org/2000/svg" fill="none" viewBox="0 0 48 48"><path fill="var(--illustration-gray)" d="M16 8h32v40H16V8Z"/><path fill="var(--illustration-primary)" d="M0 16h16v24H0V16Z"/><path fill="var(--illustration-black)" d="M16 16h16v24H16V16Z"/><path fill="var(--illustration-gray)" d="M24 8a4 4 0 0 1 4-4h8a4 4 0 0 1 4 4H24Zm4-4a4 4 0 0 1 8 0h-8Z"/><path fill="var(--illustration-primary)" d="M44 28a12 12 0 1 1-24 0 12 12 0 0 1 24 0Z"/><path fill="var(--illustration-white)" fill-rule="evenodd" d="M33 27.9V19h-2v9.77l5.32 4.96 1.36-1.46L33 27.9Z" clip-rule="evenodd"/></svg>