<svg xmlns="http://www.w3.org/2000/svg" fill="none" viewBox="0 0 49 48"><path fill="var(--illustration-gray)" d="M40 6.545H0V3.273C0 1.465 1.01 0 2.257 0H40v6.545Z"/><path fill="var(--illustration-primary)" d="M2.483 6.545C1.11 6.545 0 5.447 0 4.091v29.454C0 34.901 1.111 36 2.483 36H44V6.545H2.483Z"/><circle cx="24" cy="38" r="10" fill="var(--illustration-positive)"/><path fill="var(--illustration-black)" d="M33.8 36c-.927-4.564-4.962-8-9.8-8-4.838 0-8.873 3.436-9.8 8h19.6Z"/><path fill="var(--illustration-white)" fill-rule="evenodd" d="M29.707 35.414 22.5 42.621l-4.207-4.207L19.707 37l2.793 2.793L28.293 34l1.414 1.414Z" clip-rule="evenodd"/><path fill="var(--illustration-gray)" d="M35 16.363h11.09a2 2 0 0 1 2 2v5.819a2 2 0 0 1-2 2H35v-9.819Z"/><path fill="var(--illustration-black)" fill-rule="evenodd" d="M44 16.363h-9v9.819h9v-9.819Z" clip-rule="evenodd"/><path fill="var(--illustration-white)" d="M39.91 22.91a1.636 1.636 0 1 0 0-3.273 1.636 1.636 0 0 0 0 3.272Z"/></svg>