<svg xmlns="http://www.w3.org/2000/svg" fill="none" viewBox="0 0 40 40"><path fill="var(--illustration-primary)" d="M23.213 33.944c-4.74 4.741-12.42 4.741-17.159 0s-4.739-12.423 0-17.164l5.006-5.008 17.158 17.165z"/><path fill="var(--illustration-gray)" d="m33.94 23.22-3.948 3.95-2.523-2.533 4.664-4.658 1.766-1.775-7.105-7.107-3.24-3.233-1.766-1.766-1.765 1.766-4.665 4.666-2.524-2.533 3.948-3.941c4.74-4.741 12.42-4.741 17.159 0 4.739 4.733 4.739 12.415.008 17.165z"/><path fill="var(--illustration-invert)" d="m21.78 9.63-6.43 6.433 3.573 3.575 6.43-6.433zm5.006 5.008-6.43 6.433 3.573 3.574 6.43-6.432z"/></svg>