<svg xmlns="http://www.w3.org/2000/svg" fill="none" viewBox="0 0 48 48"><path fill="var(--illustration-gray)" d="M40 16H0v-4c0-2.21 1.23-4 2.76-4H40v8Z"/><path fill="var(--illustration-primary)" d="M3 48h40.5V16H0v29a3 3 0 0 0 3 3Z"/><path fill="var(--illustration-primary)" d="M3.03 16A3.02 3.02 0 0 1 0 13v32c0 1.66 1.36 3 3.03 3H44V16H3.03Z"/><path fill="var(--illustration-gray)" d="M32 26h14a2 2 0 0 1 2 2v8a2 2 0 0 1-2 2H32V26Z"/><path fill="var(--illustration-black)" fill-rule="evenodd" d="M44 26H32v12h12V26Z" clip-rule="evenodd"/><path fill="var(--illustration-white)" d="M38 34a2 2 0 1 0 0-4 2 2 0 0 0 0 4Z"/><path fill="var(--illustration-accent-1)" d="M32 12a12 12 0 1 1-24 0 12 12 0 0 1 24 0Z"/><path fill="var(--illustration-black)" fill-rule="evenodd" d="M31.32 16a12 12 0 0 1-22.64 0h22.64Z" clip-rule="evenodd"/></svg>