<svg xmlns="http://www.w3.org/2000/svg" fill="none" viewBox="0 0 49 48"><path fill="var(--illustration-gray)" d="M40 6.55H0V3.27C0 1.47 1.01 0 2.26 0H40v6.55Z"/><path fill="var(--illustration-primary)" d="M2.48 6.55A2.47 2.47 0 0 1 0 4.09v29.46A2.47 2.47 0 0 0 2.48 36H44V6.55H2.48Z"/><circle cx="23" cy="38" r="10" fill="var(--illustration-negative)"/><path fill="var(--illustration-black)" d="M32.8 36a10 10 0 0 0-19.6 0h19.6Z"/><path fill="var(--illustration-gray)" d="M35 16.36h11.1a2 2 0 0 1 2 2v5.82a2 2 0 0 1-2 2H35v-9.82Z"/><path fill="var(--illustration-black)" fill-rule="evenodd" d="M44 16.36h-9v9.82h9v-9.82Z" clip-rule="evenodd"/><path fill="var(--illustration-white)" d="M39.91 22.9a1.64 1.64 0 1 0 0-3.26 1.64 1.64 0 0 0 0 3.27ZM24 32h-2v8h2v-8Zm0 10h-2v3h2v-3Z"/></svg>