<svg xmlns="http://www.w3.org/2000/svg" fill="none" viewBox="0 0 48 49"><path fill="var(--illustration-primary)" d="M30.212.818c12.744 3.415 20.411 16.555 16.955 29.455-1.142 4.259-3.464 8.071-6.44 10.926-5.832 5.741-14.442 8.26-22.938 5.983"/><path fill="var(--illustration-invert)" fill-rule="evenodd" d="M33 39.589A18 18 0 1 1 15 8.412a18 18 0 0 1 18 31.177" clip-rule="evenodd"/><path fill="var(--illustration-gray)" d="m28.71 6.627-9.317 34.774-.052-.014a18 18 0 1 1 9.37-34.76"/><path fill="var(--illustration-accent-1)" fill-rule="evenodd" d="M34.607 34.607a15 15 0 1 1-21.213-21.213 15 15 0 0 1 21.213 21.213" clip-rule="evenodd"/><path fill="var(--illustration-black)" d="M20.523 18.755c.605.162.706.564.68.88l-.743 2.777c.04.01.098.029.158.056l-.162-.044-1.042 3.89c-.076.183-.268.457-.692.344.015.023-1.083-.29-1.083-.29l-.77 1.693 1.938.52 1.062.298-.661 2.467 1.486.398.655-2.442q.613.178 1.188.332l-.651 2.43 1.489.398.66-2.462c2.542.528 4.465.364 5.313-1.918.682-1.84.014-2.921-1.316-3.641.983-.208 1.727-.834 1.947-2.158.301-1.8-1.065-2.8-2.943-3.484l.653-2.437-1.49-.399-.635 2.371a50 50 0 0 0-1.196-.301l.64-2.387-1.487-.398-.653 2.437q-.49-.12-.955-.242l.002-.008-2.054-.55-.426 1.586c.004-.002 1.113.269 1.088.284m3.415 1.033c.84.226 3.555.667 3.087 2.415-.45 1.678-3.04.773-3.88.548zm-1.195 4.462c1.01.27 4.253.827 3.737 2.75-.494 1.844-3.605.784-4.612.514z"/><path fill="var(--illustration-invert)" d="M6 12a6 6 0 0 0-6-6 6 6 0 0 0 6-6 6 6 0 0 0 6 6 6 6 0 0 0-6 6"/></svg>