<svg xmlns="http://www.w3.org/2000/svg" fill="none" viewBox="0 0 48 48"><path fill="var(--illustration-primary)" d="M25.602 24v23.8c6.1 0 12.2-2.3 16.8-7zM25.6 47.8C12.4 47.8 1.8 37.1 1.8 24S12.4.1 25.6.1z"/><path fill="var(--illustration-white)" d="M25.6 43.1c10.549 0 19.1-8.552 19.1-19.1S36.149 4.9 25.6 4.9 6.5 13.45 6.5 24c0 10.548 8.551 19.1 19.1 19.1"/><path fill="var(--illustration-gray)" d="M25.602 4.9c10.5 0 19.1 8.5 19.1 19.1 0 3.5-1 6.9-2.7 9.7-3.3 5.6-9.4 9.3-16.4 9.3"/><path fill="var(--illustration-gray)" d="M25.6 38.3c7.898 0 14.3-6.402 14.3-14.3S33.5 9.7 25.6 9.7c-7.897 0-14.3 6.402-14.3 14.3s6.403 14.3 14.3 14.3"/><path fill="var(--illustration-primary)" d="M25.602 9.7c7.9 0 14.3 6.4 14.3 14.3s-6.4 14.3-14.3 14.3zm0 28.6-9.5-14.3 9.5 4.2z"/><path fill="var(--illustration-black)" fill-rule="evenodd" d="M25.602 9.7v28.6l9.5-14.3z" clip-rule="evenodd"/><path fill="var(--illustration-white)" d="M25.602 9.7v18.5l-9.5-4.2z"/></svg>