<svg xmlns="http://www.w3.org/2000/svg" fill="none" viewBox="0 0 24 24"><path fill="#1652F0" d="m18.65 12.28-.12-.03c-.13-.03-.26-.05-.39-.08 1.86-8.92 1.87-9.42 1.87-9.66 0-1.06-.58-1.96-1.58-2.37-1.29-.41-2.42.09-3.08 1.35l-1.73 5.2C12.6 2.12 12.5 1.9 12.43 1.73 11.69.05 10.5-.08 9.64.12c-.6.13-1.97.69-1.81 2.94l.53 5.95c-.72-.27-1.51-.16-2.3.32l-.15.12c-.63.61-1.06 1.62-.69 2.77-.46.18-.88.52-1.22 1-.8 1-.6 2.41.48 3.44l1 .96C5.83 21.68 8.82 24 13.75 24c5.36 0 6.21-5.17 6.61-7.66l.03-.19c.45-2.67-.89-3.57-1.74-3.87ZM10.02 1.83c.35-.08.54-.01.82.62.07.2.39 1.46 1.8 7.69l1.68.08 2.63-7.99c.29-.53.56-.56.9-.46.37.15.42.52.42.71-.01.28-.27 1.88-1.83 9.32-1.58-.33-2.63-.56-3.16-.68-1.03-.24-1.87.03-2.45.53l-.56-.75-.7-7.97c-.07-.98.26-1.06.45-1.1Zm-2.95 8.94c.44-.25.7-.18.97.04L10 13.44c-.06.65.07 1.24.4 1.73-.04.06-.09.12-.14.16-.15.09-.4.24-.93-.22-1.07-1.34-1.83-2.37-2.27-3.06-.13-.18-.48-.74.01-1.28Zm-1.68 3.51c.3-.41.54-.48.75-.46.47.67 1.09 1.48 1.86 2.45l.09.1c.55.5 1.07.72 1.53.79.1.33-.02.54-.13.67-.43.54-.67.48-.97.28l-2.84-2.7c-.23-.23-.59-.75-.29-1.13Zm13.28 1.58-.03.19c-.51 3.13-1.31 6.19-4.89 6.19-2.93 0-4.86-.85-5.83-2.49.33.16.67.25.99.25.71 0 1.38-.36 1.94-1.06.43-.51.72-1.31.47-2.22.18-.14.34-.3.47-.47l1.58.37c-.64.66-.97 1.58-.97 2.76h1.75c0-.74.17-1.27.51-1.59.4-.38 1.12-.54 2.11-.48l.11-1.75c-.14-.01-.26 0-.39 0l-4.17-.97c-.53-.28-.77-.63-.49-1.44.11-.24.46-.46 1.08-.32.73.17 2.47.54 5.23 1.11.26.11.78.4.53 1.92Z"/></svg>