<svg xmlns="http://www.w3.org/2000/svg" fill="none" viewBox="0 0 24 24"><path fill="#1652F0" d="M12 0C5.37 0 0 5.37 0 12s5.37 12 12 12 12-5.37 12-12S18.63 0 12 0Zm9.41 10.75h-3.94c-.14-2.93-.77-5.55-1.7-7.46 3 1.3 5.19 4.11 5.64 7.46Zm-18.82 2.5h3.94c.14 2.93.77 5.55 1.7 7.46-3-1.3-5.19-4.11-5.64-7.46Zm3.94-2.5H2.59a9.527 9.527 0 0 1 5.64-7.46c-.93 1.91-1.56 4.53-1.7 7.46ZM12 21.5c-.69 0-2.69-2.92-2.97-8.25h5.93c-.27 5.33-2.27 8.25-2.96 8.25ZM9.03 10.75C9.31 5.42 11.31 2.5 12 2.5c.69 0 2.69 2.92 2.97 8.25H9.03Zm6.74 9.96c.93-1.92 1.56-4.53 1.7-7.46h3.94a9.527 9.527 0 0 1-5.64 7.46Z"/></svg>