<svg xmlns="http://www.w3.org/2000/svg" fill="none" viewBox="0 0 12 12"><path fill="#1652F0" d="M5.192 1.343c0 .742-.602 1.344-1.346 1.344A1.345 1.345 0 0 1 2.5 1.343C2.5.601 3.103 0 3.846 0c.744 0 1.346.601 1.346 1.343Zm4.308 0c0 .742-.603 1.344-1.346 1.344a1.345 1.345 0 0 1-1.346-1.344C6.808.601 7.41 0 8.154 0 8.897 0 9.5.601 9.5 1.343ZM5.192 6c0 .742-.602 1.343-1.346 1.343A1.345 1.345 0 0 1 2.5 6c0-.742.603-1.343 1.346-1.343.744 0 1.346.601 1.346 1.343ZM9.5 6c0 .742-.603 1.343-1.346 1.343A1.345 1.345 0 0 1 6.808 6c0-.742.602-1.343 1.346-1.343.743 0 1.346.601 1.346 1.343Zm-4.308 4.657c0 .742-.602 1.343-1.346 1.343A1.345 1.345 0 0 1 2.5 10.657a1.345 1.345 0 0 1 2.692 0Zm4.308 0C9.5 11.399 8.897 12 8.154 12a1.345 1.345 0 0 1-1.346-1.343 1.345 1.345 0 0 1 2.692 0Z"/></svg>