<svg xmlns="http://www.w3.org/2000/svg" fill="none" viewBox="0 0 12 12"><path fill="#1652F0" fill-rule="evenodd" d="m4.175 3.941.501 1.197c.363-.003.732.073 1.082.238.494.231.876.604 1.122 1.047l.779-.28a1.494 1.494 0 0 1 2.108-1.087A1.496 1.496 0 1 1 8.17 7.553l-.99.357a2.493 2.493 0 0 1-3.538 1.976 2.493 2.493 0 0 1-.395-4.282l-.477-1.14a1.5 1.5 0 0 1-1.104-2.111 1.496 1.496 0 0 1 1.99-.717 1.496 1.496 0 0 1 .52 2.305Zm.103 4.587c.5.234 1.09.02 1.322-.474a.993.993 0 0 0-.48-1.32.993.993 0 0 0-1.321.474.993.993 0 0 0 .48 1.32Z" clip-rule="evenodd"/></svg>