<svg xmlns="http://www.w3.org/2000/svg" fill="none" viewBox="0 0 16 16"><path fill="#1652F0" fill-rule="evenodd" d="M7 3.202a4.872 4.872 0 0 0-1.685.699L3.757 2.343 2.343 3.757l1.558 1.558A4.872 4.872 0 0 0 3.202 7H1v2h2.202c.127.611.367 1.18.699 1.685l-1.558 1.558 1.414 1.414 1.558-1.558A4.87 4.87 0 0 0 7 12.798V15h2v-2.202a4.874 4.874 0 0 0 1.685-.698l1.557 1.557 1.415-1.414-1.558-1.558A4.872 4.872 0 0 0 12.798 9H15V7h-2.202a4.872 4.872 0 0 0-.698-1.685l1.557-1.558-1.414-1.414-1.558 1.558A4.872 4.872 0 0 0 9 3.202V1H7v2.202ZM10.9 8a2.9 2.9 0 1 1-5.8 0 2.9 2.9 0 0 1 5.8 0Z" clip-rule="evenodd"/></svg>