<svg xmlns="http://www.w3.org/2000/svg" fill="none" viewBox="0 0 12 13"><path fill="#1652F0" fill-rule="evenodd" d="M7.698 1.65c-.333 0-.66.139-.905.396L2.325 6.728a2.484 2.484 0 0 0-.675 1.714c0 .648.246 1.264.675 1.713a2.203 2.203 0 0 0 1.594.695c.591 0 1.165-.246 1.593-.694l4.917-5.153.94.898-4.917 5.152A3.502 3.502 0 0 1 3.92 12.15a3.502 3.502 0 0 1-2.534-1.097A3.784 3.784 0 0 1 .35 8.442c0-.974.369-1.914 1.035-2.612l4.467-4.682A2.552 2.552 0 0 1 7.698.35c.699 0 1.362.291 1.846.798a2.74 2.74 0 0 1 .75 1.89 2.74 2.74 0 0 1-.75 1.891L5.072 9.611c-.302.316-.718.5-1.158.5a1.6 1.6 0 0 1-1.159-.5 1.695 1.695 0 0 1-.464-1.17c0-.433.164-.854.465-1.169l4.576-4.79.94.898-4.576 4.79a.395.395 0 0 0-.105.272c0 .107.04.205.105.272a.301.301 0 0 0 .218.097.301.301 0 0 0 .217-.097l4.473-4.682a1.44 1.44 0 0 0 .39-.993 1.44 1.44 0 0 0-.39-.993 1.252 1.252 0 0 0-.906-.396Z" clip-rule="evenodd"/></svg>