<svg xmlns="http://www.w3.org/2000/svg" fill="none" viewBox="0 0 17 16"><path fill="#1652F0" fill-rule="evenodd" d="M11.115 1.8c-.467 0-.917.188-1.252.528L3.717 8.57a3.21 3.21 0 0 0-.917 2.252c0 .847.332 1.657.917 2.252A3.084 3.084 0 0 0 5.915 14c.821 0 1.612-.331 2.198-.926L14.89 6.19l1.283 1.263-6.778 6.884a4.884 4.884 0 0 1-3.48 1.463 4.884 4.884 0 0 1-3.48-1.463A5.01 5.01 0 0 1 1 10.822a5.01 5.01 0 0 1 1.435-3.515L8.58 1.065A3.556 3.556 0 0 1 11.115 0c.953 0 1.864.385 2.534 1.065a3.64 3.64 0 0 1 1.042 2.554 3.64 3.64 0 0 1-1.042 2.553l-6.153 6.243a2.228 2.228 0 0 1-3.175 0 2.27 2.27 0 0 1 0-3.185l6.31-6.402 1.282 1.264-6.31 6.4a.471.471 0 0 0 0 .66.43.43 0 0 0 .305.13.428.428 0 0 0 .305-.13l6.153-6.243c.335-.34.525-.804.525-1.29 0-.487-.19-.951-.525-1.291a1.756 1.756 0 0 0-1.251-.528Z" clip-rule="evenodd"/></svg>