<svg xmlns="http://www.w3.org/2000/svg" fill="none" viewBox="0 0 24 24"><path fill="#1652F0" d="m7.41 15.28-3.688 4.49 1.777 1.46L20.631 2.811l-1.777-1.46-2.66 3.237A15.167 15.167 0 0 0 12 4C7.704 4 3.815 5.79 1 8.686l2.2 2.263C5.452 8.633 8.563 7.2 12 7.2a12.2 12.2 0 0 1 1.924.152l-2.52 3.067c-2.34.152-4.446 1.19-6.004 2.793l2.01 2.068ZM12 20l-1.818-1.87 1.02-1.224a3.059 3.059 0 0 1 2.998.831L12 20Zm4.4-4.525a6.184 6.184 0 0 0-2.657-1.62l2.15-2.583a9.356 9.356 0 0 1 2.707 1.94l-2.2 2.263Zm4.4-4.525a12.524 12.524 0 0 0-2.823-2.18l2.059-2.473A15.695 15.695 0 0 1 23 8.687l-2.2 2.262Z"/></svg>