<svg xmlns="http://www.w3.org/2000/svg" fill="none" viewBox="0 0 24 24"><path fill="#0052FF" d="M11.735 20 7.5 12.605v-.986h.493c1.195 0 2.106-.172 2.734-.515.642-.344 1.016-.964 1.12-1.86H7.5V7.81h4.325c-.15-.837-.545-1.442-1.188-1.816-.627-.373-1.509-.56-2.644-.56H7.5V4h9.277v1.434h-4.235c.717.583 1.143 1.375 1.277 2.376h2.958v1.434h-2.913c-.104 1.09-.523 1.942-1.255 2.554-.717.598-1.673.979-2.868 1.143L14.02 20h-2.286Z"/><path fill="#0052FF" d="M11.445 20.5 7 12.738V11.12h.993c1.16 0 1.974-.17 2.494-.454l.004-.002c.339-.181.594-.472.741-.92H7V7.31h4.162a1.817 1.817 0 0 0-.776-.883l-.004-.003c-.519-.309-1.298-.49-2.389-.49H7V3.5h10.277v2.434h-3.613c.269.408.46.868.574 1.376h3.04v2.434H14.3c-.18.996-.631 1.82-1.37 2.438-.645.538-1.446.906-2.385 1.121l4.364 7.197h-3.464Zm-1.704-7.559c.182-.025.359-.055.53-.09.951-.195 1.73-.546 2.338-1.053.732-.612 1.15-1.464 1.255-2.554h2.913V7.81H13.82c-.099-.74-.357-1.365-.774-1.876a3.476 3.476 0 0 0-.503-.5h4.235V4H7.5v1.434h.493c1.135 0 2.017.187 2.644.56.507.295.86.733 1.06 1.316.054.156.096.322.128.5H7.5v1.434h4.347a3.49 3.49 0 0 1-.093.5c-.17.63-.512 1.084-1.027 1.36-.628.343-1.539.515-2.734.515H7.5v.986L11.735 20h2.286l-4.28-7.059Z"/></svg>