<svg xmlns="http://www.w3.org/2000/svg" fill="none" viewBox="0 0 16 16"><path fill="#0052FF" d="M3.5 5.3a1.8 1.8 0 1 0 0-3.6 1.8 1.8 0 0 0 0 3.6Zm0 9a1.8 1.8 0 1 0 0-3.6 1.8 1.8 0 0 0 0 3.6Zm6.3-1.8a1.8 1.8 0 1 1-3.6 0 1.8 1.8 0 0 1 3.6 0ZM8 5.3a1.8 1.8 0 1 0 0-3.6 1.8 1.8 0 0 0 0 3.6Zm6.3 7.2a1.8 1.8 0 1 1-3.6 0 1.8 1.8 0 0 1 3.6 0Zm-1.8-7.2a1.8 1.8 0 1 0 0-3.6 1.8 1.8 0 0 0 0 3.6ZM5.3 8a1.8 1.8 0 1 1-3.6 0 1.8 1.8 0 0 1 3.6 0ZM8 9.8a1.8 1.8 0 1 0 0-3.6 1.8 1.8 0 0 0 0 3.6ZM14.3 8a1.8 1.8 0 1 1-3.6 0 1.8 1.8 0 0 1 3.6 0Z"/></svg>