<svg xmlns="http://www.w3.org/2000/svg" fill="none" viewBox="0 0 24 24"><path fill="#000" d="M12 12.5a3.5 3.5 0 1 0 0-7 3.5 3.5 0 0 0 0 7Zm0-2a1.5 1.5 0 1 1 0-3 1.5 1.5 0 0 1 0 3Z"/><path fill="#000" fill-rule="evenodd" d="M19.601 18.498A9.96 9.96 0 0 0 22 12c0-5.523-4.477-10-10-10S2 6.477 2 12c0 2.48.903 4.75 2.399 6.498A9.969 9.969 0 0 0 12 22a9.978 9.978 0 0 0 7.601-3.502Zm-.986-1.998A7.992 7.992 0 0 0 12 13a7.992 7.992 0 0 0-6.615 3.5 8 8 0 1 1 13.23 0Zm-1.386 1.555A7.97 7.97 0 0 1 12.013 20H12c-2 0-3.827-.733-5.23-1.945A6 6 0 0 1 12 15a6 6 0 0 1 5.23 3.055Z" clip-rule="evenodd"/></svg>