<svg xmlns="http://www.w3.org/2000/svg" fill="none" viewBox="0 0 24 24"><path fill="#0A0B0D" fill-rule="evenodd" d="M12.538 4.798a7.51 7.51 0 0 0-.811-1.078 7.215 7.215 0 0 0-1.27-1.105 9.298 9.298 0 0 1 3.028.08 9.216 9.216 0 1 1-8.75 15.051 9.215 9.215 0 0 1-1.572-2.592 7.311 7.311 0 0 0 2.642.715 7.271 7.271 0 0 0 6.733-11.07Zm-1.319 11.709a9.241 9.241 0 0 1-3.446 1.274 7.216 7.216 0 1 0 7.244-12.46c1.556 4.075.052 8.81-3.797 11.186Z" clip-rule="evenodd"/><path fill="#0A0B0D" d="m8.437 7.455-1.088-2.94-1.089 2.94-2.94 1.088 2.94 1.089 1.089 2.94 1.088-2.94 2.94-1.089-2.94-1.088Z"/></svg>