<svg xmlns="http://www.w3.org/2000/svg" fill="none" viewBox="0 0 16 16"><path fill="#0A0B0D" d="M7 1h2v2H7V1Z"/><path fill="#0A0B0D" fill-rule="evenodd" d="M8 12a4 4 0 1 0 0-8 4 4 0 0 0 0 8Zm0-2a2 2 0 1 1 0-4 2 2 0 0 1 0 4Z" clip-rule="evenodd"/><path fill="#0A0B0D" d="M9 15v-2H7v2h2Zm6-6h-2V7h2v2ZM3 9V7H1v2h2Zm10.657 3.243-1.414 1.414-1.415-1.414 1.415-1.415 1.414 1.415Zm-9.9-7.071 1.415-1.415-1.415-1.414-1.414 1.414 1.414 1.415Zm0 8.485-1.414-1.414 1.414-1.415 1.415 1.415-1.415 1.414Zm7.071-9.9 1.415 1.415 1.414-1.415-1.414-1.414-1.415 1.414Z"/></svg>