<svg xmlns="http://www.w3.org/2000/svg" fill="none" viewBox="0 0 24 24"><path fill="#000" fill-rule="evenodd" d="M18.774 4.366c.304.268.592.556.86.86l-.901.901A7.478 7.478 0 0 1 21 11.5a7.47 7.47 0 0 1-1.794 4.867l.633.633H21v5H3v-5h1.753A9.457 9.457 0 0 1 3 11.5 9.5 9.5 0 0 1 12.5 2a9.458 9.458 0 0 1 6.274 2.366ZM7.4 17h9.61l-3.03-3.03a3.5 3.5 0 1 1-.537-5.38l3.284-3.286A7.5 7.5 0 0 0 7.4 17Zm7.546-4.892 2.84 2.839A5.477 5.477 0 0 0 19 11.5a5.484 5.484 0 0 0-1.681-3.958l-2.595 2.594a3.49 3.49 0 0 1 .223 1.972Zm-2.987-2.036a1.5 1.5 0 1 0-.917 2.857 1.5 1.5 0 0 0 .917-2.857ZM5 19v1h14v-1H5Z" clip-rule="evenodd"/></svg>