<svg xmlns="http://www.w3.org/2000/svg" fill="none" viewBox="0 0 24 24"><path fill="#0052FF" d="M5.4 13.2A8.448 8.448 0 0 1 0 18.6c2.56.84 4.56 2.84 5.4 5.4a8.448 8.448 0 0 1 5.4-5.4 8.448 8.448 0 0 1-5.4-5.4ZM5.4 0a6.561 6.561 0 0 1-4.2 4.2c1.99.65 3.55 2.21 4.2 4.2a6.561 6.561 0 0 1 4.2-4.2A6.561 6.561 0 0 1 5.4 0Z"/><path fill="#0052FF" fill-rule="evenodd" d="M15.6 0c-1.68 4.8-4.67 8.64-8.4 10.8 3.73 2.16 6.72 6 8.4 10.8 1.68-4.8 4.67-8.64 8.4-10.8-3.73-2.16-6.72-6-8.4-10.8Zm0 15.78c-1.17-1.91-2.57-3.59-4.15-4.98 1.58-1.39 2.98-3.07 4.15-4.98 1.17 1.91 2.57 3.59 4.15 4.98-1.58 1.39-2.98 3.07-4.15 4.98Z" clip-rule="evenodd"/></svg>