<svg xmlns="http://www.w3.org/2000/svg" fill="none" viewBox="0 0 24 24"><path fill="#0052FF" d="M12.247 3.6c1.24 0 2.274.183 3.102.55.828.366 1.45.875 1.867 1.525.417.646.626 1.39.626 2.232 0 .656-.132 1.233-.395 1.73a3.402 3.402 0 0 1-1.086 1.215 4.459 4.459 0 0 1-1.564.664v.164a3.782 3.782 0 0 1 1.802.542 3.84 3.84 0 0 1 1.374 1.402c.352.596.527 1.307.527 2.133 0 .891-.222 1.687-.666 2.387-.44.695-1.09 1.244-1.95 1.649-.862.405-1.923.607-3.185.607h-.452v2.1h-1.35v-2.1H5.5V3.6h5.398V1.5h1.349v2.1Zm1.892 13.33c.456-.383.683-.891.683-1.526a2.25 2.25 0 0 0-.337-1.23 2.29 2.29 0 0 0-.963-.837c-.363-.178-.788-.278-1.275-.3v4.454c.85-.033 1.48-.22 1.892-.56Zm-1.135-6.554c.384-.175.686-.421.905-.739.225-.317.337-.697.337-1.14 0-.607-.216-1.096-.65-1.468-.337-.293-.787-.47-1.35-.533v4.096c.274-.04.526-.112.758-.216ZM9.063 6.47v4.16h1.835V6.47H9.063Zm0 6.563v4.462h1.835v-4.462H9.063Z"/></svg>