<svg xmlns="http://www.w3.org/2000/svg" fill="none" viewBox="0 0 24 24"><path fill="#0052FF" d="M8.038 17.212a4.36 4.36 0 0 0 2.37.668c.618 0 1.14-.102 1.57-.305a3.156 3.156 0 0 0 1.054-.764c.274-.311.486-.625.635-.942h.135v1.825h3.14V5.52h1.308V3.657h-1.308V2.5h-3.178v1.157H10.79V5.52h2.975v2.693h-.097a4.054 4.054 0 0 0-.613-.935 3.088 3.088 0 0 0-1.046-.801c-.43-.218-.965-.327-1.608-.327-.842 0-1.617.218-2.325.653-.703.43-1.266 1.08-1.69 1.951-.423.866-.635 1.951-.635 3.257 0 1.271.204 2.345.613 3.22.414.87.972 1.53 1.675 1.98Zm4.68-2.263c-.354.277-.788.415-1.301.415-.524 0-.964-.14-1.323-.422-.354-.287-.626-.683-.815-1.187-.185-.51-.277-1.096-.277-1.759 0-.658.092-1.236.277-1.736.184-.5.456-.89.815-1.172.359-.282.8-.423 1.323-.423.513 0 .95.136 1.308.408.359.272.633.658.822 1.158.19.5.285 1.088.285 1.765 0 .678-.098 1.269-.292 1.773-.19.505-.463.898-.822 1.18Zm3.82 6.551v-2.396H6.483V21.5h10.055Z"/></svg>