<svg xmlns="http://www.w3.org/2000/svg" fill="none" viewBox="0 0 16 16"><path fill="#0052FF" fill-rule="evenodd" d="M8.006 0c-2.15 0-4.27.45-5.33 2.67-1.03 2.15-2 12-2 12-.07.65.95 1.33 2.08 1.33 1.13 0 1.85-.37 2.57-.91.71.44 1.38.91 2.73.91s2.03-.47 2.73-.92c.72.55 1.45.92 2.55.92 1.1 0 2.08-.59 2-1.33-.15-1.41-1.06-10.03-2-12C12.276.45 10.156 0 8.006 0Zm.05 14c-.71 0-.97-.17-1.56-.54-.75-.47-1.77-1.12-3.55-1.16.46-3.91 1.09-7.85 1.53-8.77.44-.92 1.21-1.53 3.53-1.53s3.09.61 3.53 1.53c.34.72.92 3.67 1.53 8.77-1.73.06-2.73.7-3.47 1.16-.58.37-.84.53-1.54.53V14Z" clip-rule="evenodd"/><path fill="#0052FF" d="M6.336 4.17c-.55 0-1 .6-1 1.33 0 .73.45 1.33 1 1.33s1-.6 1-1.33c0-.73-.45-1.33-1-1.33Zm3.34 0c-.55 0-1 .6-1 1.33 0 .73.45 1.33 1 1.33s1-.6 1-1.33c0-.73-.45-1.33-1-1.33Z"/></svg>