<svg xmlns="http://www.w3.org/2000/svg" fill="none" viewBox="0 0 25 25"><path fill="#0052FF" fill-rule="evenodd" d="M7.497.707 7.7.096 5.058 0v.5c0 .216-.017.526-.052.839v.003l-.076.71-.028.255c-.259.004-.519.006-.778.006-.762 0-2.31-.109-2.91-.212l-.577-.1.064 2.4.63.032c.768.038 2.041.1 2.774.1.188 0 .38 0 .574-.003a59.55 59.55 0 0 0-.14 1.882 9.308 9.308 0 0 0-3.103 2.511C.569 10.021 0 11.315 0 12.63c0 .874.269 1.58.767 2.064.493.482 1.159.694 1.852.694.917 0 1.88-.302 2.762-.756.044.153.09.3.135.442l.146.448 2.107-.638.979 1.532.31-.05c2.172-.348 3.76-1.12 4.807-2.192 1.054-1.078 1.524-2.424 1.524-3.84 0-2.115-1.33-3.86-3.487-4.62a8.46 8.46 0 0 1 .217-.568l.242-.529-1.838-.461a43.06 43.06 0 0 0 2.547-.358l.403-.07-.031-2.354-.577.13c-1.656.374-3.614.612-5.69.727.045-.288.092-.549.138-.777.055-.26.122-.56.184-.747Zm-.692 4.907c.027-.395.06-.783.095-1.16a63.532 63.532 0 0 0 2.873-.22l-.02.315a6.014 6.014 0 0 1-.116.756 9.087 9.087 0 0 0-.31-.006c-.776 0-1.661.112-2.522.315Zm.602 7.609c1.438-1.29 2.773-3.148 3.75-5.474 1.246.49 1.859 1.476 1.859 2.513 0 1.02-.435 1.899-1.25 2.577-.824.687-2.05 1.176-3.617 1.351l-.44.05a23.14 23.14 0 0 1-.302-1.017Zm-5.088-.83c0-.624.28-1.353.8-2.064a6.526 6.526 0 0 1 1.368-1.364 23.72 23.72 0 0 0 .363 3.363c-.76.48-1.452.694-1.977.694-.252 0-.365-.067-.42-.126-.06-.063-.134-.201-.134-.503Zm4.39-4.535a8.622 8.622 0 0 1 2.18-.417 12.008 12.008 0 0 1-2.025 3.12 17.37 17.37 0 0 1-.155-2.703Zm14.336 13.581 1.31 3.44H25l-5.457-13.85h-2.246l-5.36 13.85h2.589l1.291-3.44h5.228ZM16.66 19.16l1.732-4.642 1.782 4.642H16.66Z" clip-rule="evenodd"/></svg>