<svg xmlns="http://www.w3.org/2000/svg" fill="none" viewBox="0 0 12 13"><path fill="#0052FF" fill-rule="evenodd" d="m5.865.535.15-.462L4.057 0v.38a6.1 6.1 0 0 1-.038.63v.002l-.055.53-.02.189c-.187.002-.374.003-.562.003-.557 0-1.692-.08-2.13-.158l-.435-.077.047 1.811.47.024a50.28 50.28 0 0 0 2.035.075c.134 0 .271 0 .41-.002-.04.453-.075.928-.101 1.404a6.864 6.864 0 0 0-2.275 1.884C.767 7.519.35 8.49.35 9.475c0 .656.197 1.185.563 1.55.364.363.855.524 1.366.524.672 0 1.374-.226 2.018-.562.032.111.064.218.096.32l.11.345 1.546-.48.717 1.148.234-.04c1.595-.261 2.761-.84 3.53-1.646.774-.81 1.119-1.82 1.119-2.88 0-1.583-.972-2.895-2.556-3.468.06-.173.118-.332.158-.423l.18-.4L8.1 3.124a30.813 30.813 0 0 0 1.842-.265l.303-.054-.024-1.776-.436.101c-1.21.28-2.64.457-4.156.543.033-.213.066-.407.1-.576.04-.195.09-.42.135-.56Zm-.411 1.297Zm-.26 2.57Zm3.71-.022c.766.25 1.39.673 1.835 1.214-.417-.508-.992-.91-1.694-1.165a4.63 4.63 0 0 0-.142-.049Zm-5.049-.015c.023-.334.05-.665.077-.986l-.002.025c-.027.313-.053.635-.075.961ZM5.427 3.35a45.766 45.766 0 0 0 2.086-.162l-.014.23a4.586 4.586 0 0 1-.084.56 6.533 6.533 0 0 0-.22-.003c-.565 0-1.21.083-1.837.233.02-.292.043-.58.069-.858Zm.905 7.291-.314.036a16.57 16.57 0 0 1-.22-.756c1.054-.967 2.03-2.356 2.746-4.096.9.368 1.346 1.1 1.346 1.876 0 .765-.319 1.423-.914 1.93-.602.513-1.498.88-2.644 1.01ZM2.07 9.298c0-.468.205-1.014.586-1.547.262-.366.598-.713.983-1.008a18.2 18.2 0 0 0 .266 2.505c-.556.358-1.059.516-1.44.516-.18 0-.26-.049-.299-.09-.042-.047-.096-.15-.096-.376Zm1.792-1.464Zm1.423-1.636c0-.099 0-.198.002-.298a6.184 6.184 0 0 1 1.576-.31 9.023 9.023 0 0 1-1.465 2.314 13.306 13.306 0 0 1-.113-1.706Zm.14 1.902Z" clip-rule="evenodd"/></svg>