<svg xmlns="http://www.w3.org/2000/svg" fill="none" viewBox="0 0 17 17"><path fill="#0052FF" fill-rule="evenodd" d="m5.1.53.15-.46L3.389 0v.38c0 .148-.012.363-.035.579l-.05.49-.016.15-.486.003c-.508 0-1.543-.075-1.941-.146l-.435-.077.044 1.73.46.024c.514.026 1.367.07 1.86.07.112 0 .226 0 .342-.002-.034.405-.066.827-.09 1.251a6.318 6.318 0 0 0-2.074 1.74C.384 6.954 0 7.856 0 8.771c0 .61.181 1.106.522 1.45.34.341.797.492 1.272.492.609 0 1.243-.202 1.825-.504l.078.262.109.345 1.42-.444.653 1.056.236-.04c1.464-.241 2.536-.779 3.245-1.528.713-.753 1.03-1.692 1.03-2.676 0-1.463-.885-2.678-2.33-3.216.053-.15.101-.286.136-.364l.176-.397-1.107-.287a27.345 27.345 0 0 0 1.54-.228l.301-.054L9.084.942l-.436.102c-1.093.255-2.385.418-3.756.498.028-.183.057-.35.086-.497.037-.18.082-.386.123-.514Zm-.4 2.616A41.498 41.498 0 0 0 6.545 3l-.011.18a4.163 4.163 0 0 1-.072.49 7.365 7.365 0 0 0-1.822.203c.017-.247.037-.491.058-.728Zm.794 6.675-.26.03a16.37 16.37 0 0 1-.19-.659c.957-.89 1.842-2.162 2.494-3.75.79.337 1.183.995 1.183 1.692 0 .7-.289 1.299-.827 1.762-.544.468-1.357.805-2.4.925ZM1.633 8.609c0-.425.185-.924.53-1.412.227-.32.516-.625.845-.887.027.754.116 1.527.239 2.24-.499.322-.947.462-1.283.462-.159 0-.222-.043-.25-.074-.033-.035-.081-.123-.081-.329Zm2.939-2.86c0-.085 0-.17.002-.256.403-.134.865-.24 1.363-.275a8.309 8.309 0 0 1-1.27 2.035c-.06-.485-.095-.99-.095-1.505Zm9.574 8.722.884 2.412H17l-3.745-9.87h-1.639l-3.678 9.87h1.93l.873-2.412h3.405Zm-2.779-1.757 1.051-2.924 1.081 2.924h-2.132Z" clip-rule="evenodd"/></svg>