<svg xmlns="http://www.w3.org/2000/svg" fill="none" viewBox="0 0 24 24"><path fill="#0052FF" fill-rule="evenodd" d="M24 12v-.05C23.97 5.36 18.61 0 12 0S0 5.38 0 12s5.39 12 12 12h.23c.83 0 1.58-.41 2.03-1.11.48-.75.51-1.7.08-2.47-.41-.73-.4-1.59.03-2.31.43-.71 1.17-1.15 2.01-1.15h2.66c2.73 0 4.96-2.22 4.96-4.96Zm-7.83-7.71a2.183 2.183 0 1 1-1.95 3.91 2.183 2.183 0 1 1 1.95-3.91Zm-9.31.98a2.183 2.183 0 1 1 3.91 1.95 2.183 2.183 0 1 1-3.91-1.95Zm-3.13 5.31c.5-1.01 1.73-1.42 2.74-.92 1.01.5 1.42 1.73.92 2.74a2.046 2.046 0 0 1-2.74.92 2.046 2.046 0 0 1-.92-2.74Zm4.8 4.78c.88.44 1.24 1.5.8 2.38-.44.88-1.5 1.24-2.38.8-.88-.44-1.24-1.5-.8-2.38.44-.88 1.5-1.24 2.38-.8Zm7.67-4.69a2.183 2.183 0 1 1 3.91 1.95 2.183 2.183 0 1 1-3.91-1.95Z" clip-rule="evenodd"/></svg>