<svg xmlns="http://www.w3.org/2000/svg" fill="none" viewBox="0 0 24 24"><path fill="#0052FF" d="M23.196.805c-1.058-1.057-2.654-.894-3.93-.514-1.33.396-2.872 1.186-4.488 2.247a10.58 10.58 0 0 0-2.777-.369c-.961 0-1.893.129-2.778.37C7.607 1.476 6.066.686 4.735.29 3.459-.09 1.862-.252.805.805-.05 1.66-.095 2.874.09 3.9c.193 1.07.689 2.284 1.379 3.55.225.411.474.835.746 1.269a10.54 10.54 0 0 0-.798 4.035c0 1.073.16 2.11.458 3.085-.789 1.333-1.371 2.598-1.662 3.71-.312 1.19-.4 2.655.592 3.647.855.855 2.07.9 3.095.715 1.07-.192 2.286-.688 3.552-1.378l.22-.122c1.322.596 2.788.927 4.329.927 1.542 0 3.008-.33 4.33-.925l.218.12c1.266.69 2.482 1.186 3.552 1.378 1.025.185 2.24.14 3.095-.715l.004-.004c.97-.98.899-2.417.6-3.592-.285-1.128-.873-2.411-1.674-3.76a10.55 10.55 0 0 0 .458-3.086c0-1.429-.283-2.792-.797-4.036.271-.433.52-.857.745-1.269.69-1.265 1.186-2.48 1.379-3.55.184-1.024.14-2.238-.715-3.093Zm-2.854 5.437a10.652 10.652 0 0 0-2.765-2.484c.914-.512 1.726-.87 2.402-1.071.528-.157.913-.2 1.168-.183a.796.796 0 0 1 .236.044.13.13 0 0 1 .045.025.095.095 0 0 1 .016.025c.01.02.026.061.038.13.026.146.03.382-.032.728-.125.696-.484 1.64-1.108 2.786Zm-1.44 2.303c-1.228 1.76-2.843 3.689-4.756 5.601v.001A47.312 47.312 0 0 1 12 16.167a47.266 47.266 0 0 1-2.145-2.02c-1.913-1.913-3.528-3.842-4.756-5.602a8.084 8.084 0 0 1 6.902-3.876c2.92 0 5.48 1.553 6.901 3.876Zm-4.96 9.24a50.03 50.03 0 0 0 1.972-1.871 47.279 47.279 0 0 0 4.045-4.584 8.081 8.081 0 0 1-3.562 8.205 32.354 32.354 0 0 1-2.454-1.75Zm-3.884 0a32.305 32.305 0 0 1-2.452 1.749 8.084 8.084 0 0 1-3.564-8.204 47.277 47.277 0 0 0 4.044 4.584c.654.655 1.314 1.28 1.972 1.871Zm.317 2.887a39.028 39.028 0 0 0 1.626-1.236c.548.44 1.092.853 1.626 1.237a8.104 8.104 0 0 1-3.252 0Zm-5.17.19c-.686.31-1.274.503-1.747.588-.347.062-.583.058-.729.032a.507.507 0 0 1-.13-.038.088.088 0 0 1-.026-.017.118.118 0 0 1-.022-.038.69.69 0 0 1-.044-.196c-.022-.215.002-.547.124-1.012a9.19 9.19 0 0 1 .58-1.539c.557.831 1.23 1.578 1.995 2.22ZM2.574 2.572s.01-.01.045-.024a.797.797 0 0 1 .236-.044c.255-.017.64.026 1.167.183.677.201 1.489.56 2.403 1.071A10.653 10.653 0 0 0 3.66 6.242c-.624-1.145-.983-2.09-1.108-2.786-.063-.346-.058-.582-.032-.727a.506.506 0 0 1 .038-.13c.009-.02.015-.025.016-.026Zm17.97 18.878c-.473-.085-1.06-.277-1.745-.587a10.657 10.657 0 0 0 1.995-2.219c.275.59.47 1.116.584 1.57.115.453.136.776.113.985a.69.69 0 0 1-.044.193.15.15 0 0 1-.02.038.115.115 0 0 1-.023.014.507.507 0 0 1-.131.038c-.146.026-.382.03-.729-.032Z"/></svg>