<svg xmlns="http://www.w3.org/2000/svg" fill="none" viewBox="0 0 16 16"><path fill="#0052FF" fill-rule="evenodd" d="M8.145 6.578a1 1 0 0 1 1 1 8.066 8.066 0 0 1-3.69 6.781l-1.578 1.018a1 1 0 0 1-1.084-1.68l1.577-1.018a6.067 6.067 0 0 0 2.775-5.1 1 1 0 0 1 1-1Z" clip-rule="evenodd"/><path fill="#0052FF" fill-rule="evenodd" d="M8.37 5.206a2.392 2.392 0 0 0-1.848.62 1 1 0 0 1-1.34-1.485 4.392 4.392 0 0 1 3.385-1.125c2.338.223 3.957 2.286 3.957 4.519 0 1.177-.183 2.335-.554 3.436a11.054 11.054 0 0 1-2.57 4.252 1 1 0 0 1-1.436-1.392 9.054 9.054 0 0 0 2.106-3.484l.003-.01c.3-.889.451-1.832.451-2.802 0-1.324-.953-2.415-2.149-2.529H8.37Zm4.695-1.996a1 1 0 0 1 1.373.338A7.36 7.36 0 0 1 15.5 7.366v1.745a1 1 0 1 1-2 0V7.366c0-1.02-.283-1.972-.773-2.783a1 1 0 0 1 .338-1.373Z" clip-rule="evenodd"/><path fill="#0052FF" fill-rule="evenodd" d="M8.134 2A5.37 5.37 0 0 0 2.77 7.366v.816a1 1 0 1 1-2 0v-.816A7.37 7.37 0 0 1 11.655.893a1 1 0 0 1-.955 1.758A5.368 5.368 0 0 0 8.134 2Z" clip-rule="evenodd"/><path fill="#0052FF" fill-rule="evenodd" d="M4.744 6.578a1 1 0 0 1 1 1h-1c1 0 1 .001 1 .002v.026a1.95 1.95 0 0 1-.01.172 3.91 3.91 0 0 1-.06.409 4.88 4.88 0 0 1-.445 1.272c-.513 1.004-1.507 2.13-3.36 2.864a1 1 0 0 1-.738-1.86c1.392-.55 2.02-1.333 2.318-1.915.153-.3.228-.566.264-.748a1.915 1.915 0 0 0 .031-.235 1 1 0 0 1 1-.987Z" clip-rule="evenodd"/></svg>