<svg xmlns="http://www.w3.org/2000/svg" fill="none" viewBox="0 0 12 12"><path fill="#0052FF" fill-rule="evenodd" d="M3.93 1.035c-.533.025-.896.11-1.214.235a2.45 2.45 0 0 0-.884.578 2.45 2.45 0 0 0-.575.886c-.123.318-.207.682-.23 1.214-.024.533-.029.704-.026 2.062.002 1.357.008 1.528.034 2.061.025.532.11.895.235 1.213.128.329.3.607.578.884.278.278.557.448.887.575.318.123.682.207 1.214.23.532.024.703.03 2.06.026 1.358-.002 1.53-.008 2.062-.033.534-.026.895-.11 1.213-.235.329-.129.607-.3.884-.579a2.45 2.45 0 0 0 .575-.886c.123-.318.207-.682.23-1.214.023-.534.029-.704.026-2.062-.002-1.357-.008-1.527-.034-2.06-.025-.534-.11-.896-.234-1.214a2.455 2.455 0 0 0-.579-.884 2.44 2.44 0 0 0-.886-.575c-.318-.123-.682-.207-1.214-.23C7.52 1.004 7.348.998 5.99 1c-1.357.002-1.527.008-2.06.034Zm.058 9.039c-.488-.021-.753-.102-.929-.17-.234-.09-.4-.199-.576-.373a1.54 1.54 0 0 1-.375-.574c-.068-.177-.15-.441-.174-.929-.024-.526-.03-.685-.032-2.02-.003-1.334.002-1.492.025-2.02.02-.487.102-.752.17-.928.09-.234.198-.4.373-.576.174-.175.34-.284.574-.375.176-.069.44-.15.928-.174.527-.025.685-.03 2.02-.033 1.335-.002 1.493.003 2.02.026.488.021.753.102.929.17.234.09.4.198.576.373.175.174.284.34.375.574.069.176.15.44.174.928.025.527.03.685.033 2.02.002 1.334-.003 1.493-.026 2.02-.021.487-.102.752-.17.929-.09.233-.198.4-.373.575-.174.176-.34.284-.574.375-.176.07-.44.151-.928.174-.527.025-.685.03-2.02.033-1.335.003-1.493-.002-2.02-.025Zm4.076-6.746a.6.6 0 1 0 1.2-.002.6.6 0 0 0-1.2.002ZM3.433 6.005a2.567 2.567 0 1 0 5.134-.01 2.567 2.567 0 0 0-5.134.01Zm.9-.002a1.667 1.667 0 1 1 3.334-.006 1.667 1.667 0 0 1-3.334.006Z" clip-rule="evenodd"/></svg>