<svg width="156" height="156" viewBox="0 0 156 156" fill="none" xmlns="http://www.w3.org/2000/svg">
<g clip-path="url(#clip0_378_17938)">
<path d="M0 16C0 7.16344 7.16344 0 16 0H140C148.837 0 156 7.16344 156 16V140C156 148.837 148.837 156 140 156H16C7.16344 156 0 148.837 0 140V16Z" fill="#00D17F"/>
<rect x="-6.5" y="30.5" width="169" height="95" fill="#098551"/>
<path d="M94 15L61 141" stroke="#0A0B0D" stroke-width="4"/>
<path d="M48.7619 63.6844V49.8132L-4.49994 68.6775V78.6643H7.70625L48.7619 63.6844Z" fill="white"/>
<path d="M48.762 93.6461V107.517L-4.49988 88.6531V78.6663H7.70631L48.762 93.6461Z" fill="white"/>
<path d="M109.238 63.6847V49.8135L162.5 68.6777V78.6645H150.294L109.238 63.6847Z" fill="white"/>
<path d="M109.238 93.6464V107.518L162.5 88.6533V78.6665H150.294L109.238 93.6464Z" fill="white"/>
</g>
<defs>
<clipPath id="clip0_378_17938">
<path d="M0 16C0 7.16344 7.16344 0 16 0H140C148.837 0 156 7.16344 156 16V140C156 148.837 148.837 156 140 156H16C7.16344 156 0 148.837 0 140V16Z" fill="white"/>
</clipPath>
</defs>
</svg>
