<svg width="156" height="156" viewBox="0 0 156 156" fill="none" xmlns="http://www.w3.org/2000/svg">
<g clip-path="url(#clip0_378_18060)">
<path d="M0 16C0 7.16344 7.16344 0 16 0H140C148.837 0 156 7.16344 156 16V140C156 148.837 148.837 156 140 156H16C7.16344 156 0 148.837 0 140V16Z" fill="#44C28D"/>
<rect x="-6.5" y="30.5" width="169" height="95" fill="#27AD75"/>
<path d="M94 15L61 141" stroke="white" stroke-width="4"/>
<path d="M48.7619 63.6844V49.8132L-4.49994 68.6774V78.6642H7.70625L48.7619 63.6844Z" fill="#0A0B0D"/>
<path d="M48.762 93.6461V107.517L-4.49988 88.653V78.6662H7.70631L48.762 93.6461Z" fill="#0A0B0D"/>
<path d="M109.238 63.6846V49.8134L162.5 68.6777V78.6645H150.294L109.238 63.6846Z" fill="#0A0B0D"/>
<path d="M109.238 93.6463V107.518L162.5 88.6533V78.6665H150.294L109.238 93.6463Z" fill="#0A0B0D"/>
</g>
<defs>
<clipPath id="clip0_378_18060">
<path d="M0 16C0 7.16344 7.16344 0 16 0H140C148.837 0 156 7.16344 156 16V140C156 148.837 148.837 156 140 156H16C7.16344 156 0 148.837 0 140V16Z" fill="white"/>
</clipPath>
</defs>
</svg>
