<svg width="156" height="156" viewBox="0 0 156 156" fill="none" xmlns="http://www.w3.org/2000/svg">
<g clip-path="url(#clip0_378_18055)">
<path d="M0 16C0 7.16344 7.16344 0 16 0H140C148.837 0 156 7.16344 156 16V140C156 148.837 148.837 156 140 156H16C7.16344 156 0 148.837 0 140V16Z" fill="#ECD069"/>
<circle cx="77.9997" cy="78.3493" r="56.3063" fill="#0A0B0D"/>
<circle cx="190.612" cy="78.3493" r="56.3063" fill="#CC9200"/>
<circle cx="-34.6126" cy="78.3493" r="56.3063" fill="#CC9200"/>
<path d="M98.5809 62.2763L55.4235 105.434L51.2827 101.293L94.4399 58.1357L95.2935 57.2821H94.0864H58.9844V51.4262H105.29V97.7322H99.4344V62.6299V61.4228L98.5809 62.2763Z" fill="white" stroke="white"/>
</g>
<defs>
<clipPath id="clip0_378_18055">
<path d="M0 16C0 7.16344 7.16344 0 16 0H140C148.837 0 156 7.16344 156 16V140C156 148.837 148.837 156 140 156H16C7.16344 156 0 148.837 0 140V16Z" fill="white"/>
</clipPath>
</defs>
</svg>
