<svg width="64" height="64" viewBox="0 0 64 64" fill="none" xmlns="http://www.w3.org/2000/svg">
<path d="M58 20H0V16C0 13.79 1.79 12 4 12H58V20Z" fill="#A3A9B6"/>
<path d="M29 32C37.8366 32 45 24.8366 45 16C45 7.16344 37.8366 0 29 0C20.1634 0 13 7.16344 13 16C13 24.8366 20.1634 32 29 32Z" fill="#DEE1E7"/>
<path d="M29 28.5C22.11 28.5 16.5 22.89 16.5 16C16.5 9.11 22.11 3.5 29 3.5C35.89 3.5 41.5 9.11 41.5 16C41.5 22.89 35.89 28.5 29 28.5ZM29 4.5C22.66 4.5 17.5 9.66 17.5 16C17.5 22.34 22.66 27.5 29 27.5C35.34 27.5 40.5 22.34 40.5 16C40.5 9.66 35.34 4.5 29 4.5Z" fill="white"/>
<path d="M58 20H4C1.79 20 0 18.21 0 16V20V60C0 62.21 1.79 64 4 64H58H62V20H58Z" fill="#DEE1E7"/>
<path d="M44.48 20C42.7 26.9 36.45 32 29 32C21.55 32 15.3 26.9 13.52 20H4C1.79 20 0 18.21 0 16V20V60C0 62.21 1.79 64 4 64H58V20H44.48Z" fill="#717886"/>
<path d="M13.52 20C15.3 26.9 21.55 32 29 32C36.45 32 42.7 26.9 44.48 20H13.52Z" fill="#A3A9B6"/>
<path d="M40.8299 20H39.7599C38.0899 24.49 33.7899 27.5 28.9999 27.5C24.2099 27.5 19.9099 24.49 18.2399 20H17.1699L17.2299 20.17C18.9999 25.15 23.7299 28.5 28.9999 28.5C34.2699 28.5 39.0099 25.15 40.7699 20.17L40.8299 20Z" fill="#DEE1E7"/>
<path d="M62 52H46V36H62C63.1 36 64 36.9 64 38V50C64 51.1 63.1 52 62 52Z" fill="#DEE1E7"/>
<path d="M54 46C55.1046 46 56 45.1046 56 44C56 42.8954 55.1046 42 54 42C52.8954 42 52 42.8954 52 44C52 45.1046 52.8954 46 54 46Z" fill="white"/>
</svg>
