<svg width="64" height="64" viewBox="0 0 64 64" fill="none" xmlns="http://www.w3.org/2000/svg">
<path d="M42 48C54.1503 48 64 38.1503 64 26C64 13.8497 54.1503 4 42 4C29.8497 4 20 13.8497 20 26C20 38.1503 29.8497 48 42 48Z" fill="#BFE9FF"/>
<path d="M4 28H44C46.2 28 48 29.8 48 32V56C48 58.2 46.2 60 44 60H4C1.8 60 0 58.2 0 56V32C0 29.8 1.8 28 4 28Z" fill="#56B4FC"/>
<path d="M42.0001 48C44.1001 48 46.1001 47.7 48.0001 47.2V32C48.0001 29.8 46.2001 28 44.0001 28H20.1001C21.1001 39.2 30.5001 48 42.0001 48Z" fill="#1652F0"/>
<path d="M36 30L37.4 34.6L42 36L37.4 37.4L36 42L34.6 37.4L30 36L34.6 34.6L36 30Z" fill="white"/>
</svg>
