<svg width="64" height="64" viewBox="0 0 64 64" fill="none" xmlns="http://www.w3.org/2000/svg">
<g clip-path="url(#clip0)">
<path d="M50 27.9674C57.732 27.9674 64 21.6994 64 13.9674C64 6.23542 57.732 -0.0325928 50 -0.0325928C42.268 -0.0325928 36 6.23542 36 13.9674C36 21.6994 42.268 27.9674 50 27.9674Z" fill="#BFE9FF"/>
<path d="M14 63.9674C21.732 63.9674 28 57.6994 28 49.9674C28 42.2354 21.732 35.9674 14 35.9674C6.26801 35.9674 0 42.2354 0 49.9674C0 57.6994 6.26801 63.9674 14 63.9674Z" fill="#BFE9FF"/>
<path d="M32 56.4474C45.52 56.4474 56.48 45.4874 56.48 31.9674C56.48 18.4475 45.52 7.48743 32 7.48743C18.4801 7.48743 7.52002 18.4475 7.52002 31.9674C7.52002 45.4874 18.4801 56.4474 32 56.4474Z" fill="#56B4FC"/>
<path d="M26.6901 55.8473C29.0901 50.6673 28.1701 44.3373 23.9001 40.0673C19.6301 35.7973 13.3001 34.8773 8.12012 37.2773C9.09012 41.6773 11.2701 45.8573 14.6901 49.2773C18.1101 52.6973 22.2901 54.8773 26.6901 55.8473Z" fill="#1652F0"/>
<path d="M37.31 8.0874C34.91 13.2674 35.83 19.5974 40.1 23.8674C44.37 28.1374 50.7 29.0574 55.88 26.6574C54.91 22.2574 52.73 18.0774 49.31 14.6574C45.89 11.2374 41.71 9.0574 37.31 8.0874Z" fill="#1652F0"/>
<path d="M38.3601 29.4273L36.9501 28.0173L29.8801 35.0873L27.0501 32.2573L25.6401 33.6773L29.8801 37.9173L38.3601 29.4273Z" fill="white"/>
</g>
<defs>
<clipPath id="clip0">
<rect width="64" height="64" fill="white"/>
</clipPath>
</defs>
</svg>
