<svg width="256" height="256" viewBox="0 0 256 256" fill="none" xmlns="http://www.w3.org/2000/svg">
<path d="M0.131104 0H255.135V256H0.131104V0Z" fill="transparent"/>
<path d="M255.004 32C255.004 14.3269 240.677 0 223.004 0H32C14.3269 0 0 14.3269 0 32V224C0 241.673 14.3269 256 32 256H223.004C240.677 256 255.004 241.673 255.004 224V32Z" fill="#1652F0"/>
<path d="M156.841 153.467C150.349 159.985 141.382 164.015 131.475 164.015C111.663 164.015 95.6002 147.89 95.6002 128C95.6002 108.11 111.663 91.985 131.475 91.985C141.382 91.985 150.349 96.015 156.841 102.532L176.571 82.725C165.029 71.1375 149.087 63.9725 131.475 63.9725C96.2526 63.9725 67.6992 92.6375 67.6992 127.997C67.6992 163.357 96.2526 192.022 131.475 192.022C149.087 192.022 165.031 184.855 176.571 173.27L156.841 153.467Z" fill="white"/>
</svg>
