<svg width="563" height="313" viewBox="0 0 563 313" fill="none" xmlns="http://www.w3.org/2000/svg">
<g filter="url(#filter0_d)">
<g clip-path="url(#clip0)">
<rect x="25" y="24" width="513" height="195" rx="4" fill="white"/>
<rect width="529" height="65" transform="translate(25 24)" fill="white"/>
<path d="M49.7727 52.6136V51.3636H58.5V52.6136H54.8409V63H53.4318V52.6136H49.7727ZM62.5967 63.1818C61.8088 63.1818 61.1176 62.9943 60.5229 62.6193C59.932 62.2443 59.4698 61.7197 59.1365 61.0455C58.807 60.3712 58.6422 59.5833 58.6422 58.6818C58.6422 57.7727 58.807 56.9792 59.1365 56.3011C59.4698 55.6231 59.932 55.0966 60.5229 54.7216C61.1176 54.3466 61.8088 54.1591 62.5967 54.1591C63.3846 54.1591 64.074 54.3466 64.6649 54.7216C65.2596 55.0966 65.7217 55.6231 66.0513 56.3011C66.3846 56.9792 66.5513 57.7727 66.5513 58.6818C66.5513 59.5833 66.3846 60.3712 66.0513 61.0455C65.7217 61.7197 65.2596 62.2443 64.6649 62.6193C64.074 62.9943 63.3846 63.1818 62.5967 63.1818ZM62.5967 61.9773C63.1952 61.9773 63.6876 61.8239 64.074 61.517C64.4604 61.2102 64.7463 60.8068 64.932 60.3068C65.1176 59.8068 65.2104 59.2652 65.2104 58.6818C65.2104 58.0985 65.1176 57.5549 64.932 57.0511C64.7463 56.5473 64.4604 56.1402 64.074 55.8295C63.6876 55.5189 63.1952 55.3636 62.5967 55.3636C61.9982 55.3636 61.5058 55.5189 61.1195 55.8295C60.7331 56.1402 60.4471 56.5473 60.2615 57.0511C60.0759 57.5549 59.9831 58.0985 59.9831 58.6818C59.9831 59.2652 60.0759 59.8068 60.2615 60.3068C60.4471 60.8068 60.7331 61.2102 61.1195 61.517C61.5058 61.8239 61.9982 61.9773 62.5967 61.9773Z" fill="#0A0B0D"/>
<path d="M146.409 51.3636H148.091L152.045 61.0227H152.182L156.136 51.3636H157.818V63H156.5V54.1591H156.386L152.75 63H151.477L147.841 54.1591H147.727V63H146.409V51.3636ZM163.831 63.1818C163.043 63.1818 162.352 62.9943 161.757 62.6193C161.166 62.2443 160.704 61.7197 160.371 61.0455C160.041 60.3712 159.877 59.5833 159.877 58.6818C159.877 57.7727 160.041 56.9792 160.371 56.3011C160.704 55.6231 161.166 55.0966 161.757 54.7216C162.352 54.3466 163.043 54.1591 163.831 54.1591C164.619 54.1591 165.308 54.3466 165.899 54.7216C166.494 55.0966 166.956 55.6231 167.286 56.3011C167.619 56.9792 167.786 57.7727 167.786 58.6818C167.786 59.5833 167.619 60.3712 167.286 61.0455C166.956 61.7197 166.494 62.2443 165.899 62.6193C165.308 62.9943 164.619 63.1818 163.831 63.1818ZM163.831 61.9773C164.43 61.9773 164.922 61.8239 165.308 61.517C165.695 61.2102 165.981 60.8068 166.166 60.3068C166.352 59.8068 166.445 59.2652 166.445 58.6818C166.445 58.0985 166.352 57.5549 166.166 57.0511C165.981 56.5473 165.695 56.1402 165.308 55.8295C164.922 55.5189 164.43 55.3636 163.831 55.3636C163.233 55.3636 162.74 55.5189 162.354 55.8295C161.967 56.1402 161.681 56.5473 161.496 57.0511C161.31 57.5549 161.217 58.0985 161.217 58.6818C161.217 59.2652 161.31 59.8068 161.496 60.3068C161.681 60.8068 161.967 61.2102 162.354 61.517C162.74 61.8239 163.233 61.9773 163.831 61.9773ZM169.838 63V51.3636H171.179V55.6591H171.293C171.391 55.5076 171.528 55.3144 171.702 55.0795C171.88 54.8409 172.134 54.6288 172.463 54.4432C172.797 54.2538 173.247 54.1591 173.816 54.1591C174.55 54.1591 175.198 54.3428 175.759 54.7102C176.319 55.0777 176.757 55.5985 177.071 56.2727C177.386 56.947 177.543 57.7424 177.543 58.6591C177.543 59.5833 177.386 60.3845 177.071 61.0625C176.757 61.7367 176.321 62.2595 175.764 62.6307C175.208 62.9981 174.566 63.1818 173.838 63.1818C173.278 63.1818 172.829 63.089 172.492 62.9034C172.155 62.714 171.895 62.5 171.713 62.2614C171.532 62.0189 171.391 61.8182 171.293 61.6591H171.134V63H169.838ZM171.157 58.6364C171.157 59.2955 171.253 59.8769 171.446 60.3807C171.639 60.8807 171.922 61.2727 172.293 61.5568C172.664 61.8371 173.119 61.9773 173.657 61.9773C174.217 61.9773 174.685 61.8295 175.06 61.5341C175.439 61.2348 175.723 60.8333 175.912 60.3295C176.105 59.822 176.202 59.2576 176.202 58.6364C176.202 58.0227 176.107 57.4697 175.918 56.9773C175.732 56.4811 175.45 56.089 175.071 55.8011C174.696 55.5095 174.225 55.3636 173.657 55.3636C173.111 55.3636 172.653 55.5019 172.282 55.7784C171.91 56.0511 171.63 56.4337 171.441 56.9261C171.251 57.4148 171.157 57.9848 171.157 58.6364ZM179.418 63V54.2727H180.759V63H179.418ZM180.1 52.8182C179.838 52.8182 179.613 52.7292 179.424 52.5511C179.238 52.3731 179.145 52.1591 179.145 51.9091C179.145 51.6591 179.238 51.4451 179.424 51.267C179.613 51.089 179.838 51 180.1 51C180.361 51 180.585 51.089 180.77 51.267C180.96 51.4451 181.054 51.6591 181.054 51.9091C181.054 52.1591 180.96 52.3731 180.77 52.5511C180.585 52.7292 180.361 52.8182 180.1 52.8182ZM184.38 51.3636V63H183.039V51.3636H184.38ZM190.319 63.1818C189.478 63.1818 188.753 62.9962 188.143 62.625C187.537 62.25 187.069 61.7273 186.739 61.0568C186.414 60.3826 186.251 59.5985 186.251 58.7045C186.251 57.8106 186.414 57.0227 186.739 56.3409C187.069 55.6553 187.527 55.1212 188.114 54.7386C188.705 54.3523 189.395 54.1591 190.182 54.1591C190.637 54.1591 191.086 54.2348 191.529 54.3864C191.972 54.5379 192.376 54.7841 192.739 55.125C193.103 55.4621 193.393 55.9091 193.609 56.4659C193.825 57.0227 193.932 57.7083 193.932 58.5227V59.0909H187.205V57.9318H192.569C192.569 57.4394 192.47 57 192.273 56.6136C192.08 56.2273 191.804 55.9223 191.444 55.6989C191.088 55.4754 190.667 55.3636 190.182 55.3636C189.648 55.3636 189.186 55.4962 188.796 55.7614C188.41 56.0227 188.112 56.3636 187.904 56.7841C187.696 57.2045 187.592 57.6553 187.592 58.1364V58.9091C187.592 59.5682 187.705 60.1269 187.932 60.5852C188.164 61.0398 188.484 61.3864 188.893 61.625C189.302 61.8598 189.777 61.9773 190.319 61.9773C190.671 61.9773 190.989 61.928 191.273 61.8295C191.561 61.7273 191.809 61.5758 192.018 61.375C192.226 61.1705 192.387 60.9167 192.501 60.6136L193.796 60.9773C193.66 61.4167 193.431 61.803 193.109 62.1364C192.787 62.4659 192.389 62.7235 191.915 62.9091C191.442 63.0909 190.91 63.1818 190.319 63.1818ZM197.796 61.4091L197.705 62.0227C197.641 62.4545 197.542 62.9167 197.41 63.4091C197.281 63.9015 197.147 64.3655 197.007 64.8011C196.866 65.2367 196.751 65.5833 196.66 65.8409H195.637C195.686 65.5985 195.751 65.2784 195.83 64.8807C195.91 64.483 195.989 64.0379 196.069 63.5455C196.152 63.0568 196.221 62.5568 196.274 62.0455L196.342 61.4091H197.796ZM208.088 63.1818C207.247 63.1818 206.521 62.9962 205.912 62.625C205.306 62.25 204.838 61.7273 204.508 61.0568C204.182 60.3826 204.02 59.5985 204.02 58.7045C204.02 57.8106 204.182 57.0227 204.508 56.3409C204.838 55.6553 205.296 55.1212 205.883 54.7386C206.474 54.3523 207.163 54.1591 207.951 54.1591C208.406 54.1591 208.855 54.2348 209.298 54.3864C209.741 54.5379 210.145 54.7841 210.508 55.125C210.872 55.4621 211.162 55.9091 211.378 56.4659C211.593 57.0227 211.701 57.7083 211.701 58.5227V59.0909H204.974V57.9318H210.338C210.338 57.4394 210.239 57 210.042 56.6136C209.849 56.2273 209.573 55.9223 209.213 55.6989C208.857 55.4754 208.436 55.3636 207.951 55.3636C207.417 55.3636 206.955 55.4962 206.565 55.7614C206.179 56.0227 205.881 56.3636 205.673 56.7841C205.465 57.2045 205.36 57.6553 205.36 58.1364V58.9091C205.36 59.5682 205.474 60.1269 205.701 60.5852C205.932 61.0398 206.253 61.3864 206.662 61.625C207.071 61.8598 207.546 61.9773 208.088 61.9773C208.44 61.9773 208.758 61.928 209.042 61.8295C209.33 61.7273 209.578 61.5758 209.787 61.375C209.995 61.1705 210.156 60.9167 210.27 60.6136L211.565 60.9773C211.429 61.4167 211.199 61.803 210.878 62.1364C210.556 62.4659 210.158 62.7235 209.684 62.9091C209.211 63.0909 208.679 63.1818 208.088 63.1818ZM213.565 63V54.2727H214.861V55.6364H214.974C215.156 55.1705 215.45 54.8087 215.855 54.5511C216.26 54.2898 216.747 54.1591 217.315 54.1591C217.891 54.1591 218.37 54.2898 218.753 54.5511C219.139 54.8087 219.44 55.1705 219.656 55.6364H219.747C219.97 55.1856 220.306 54.8277 220.753 54.5625C221.2 54.2936 221.736 54.1591 222.361 54.1591C223.141 54.1591 223.779 54.4034 224.275 54.892C224.772 55.3769 225.02 56.1326 225.02 57.1591V63H223.679V57.1591C223.679 56.5152 223.503 56.0549 223.15 55.7784C222.798 55.5019 222.383 55.3636 221.906 55.3636C221.292 55.3636 220.817 55.5492 220.48 55.9205C220.143 56.2879 219.974 56.7538 219.974 57.3182V63H218.611V57.0227C218.611 56.5265 218.45 56.1269 218.128 55.8239C217.806 55.517 217.391 55.3636 216.883 55.3636C216.535 55.3636 216.209 55.4564 215.906 55.642C215.607 55.8277 215.364 56.0852 215.179 56.4148C214.997 56.7405 214.906 57.1174 214.906 57.5455V63H213.565ZM229.864 63.2045C229.311 63.2045 228.809 63.1004 228.358 62.892C227.907 62.6799 227.549 62.375 227.284 61.9773C227.019 61.5758 226.886 61.0909 226.886 60.5227C226.886 60.0227 226.985 59.6174 227.182 59.3068C227.379 58.9924 227.642 58.7462 227.972 58.5682C228.301 58.3902 228.665 58.2576 229.062 58.1705C229.464 58.0795 229.867 58.0076 230.273 57.9545C230.803 57.8864 231.233 57.8352 231.562 57.8011C231.896 57.7633 232.138 57.7008 232.29 57.6136C232.445 57.5265 232.523 57.375 232.523 57.1591V57.1136C232.523 56.553 232.369 56.1174 232.062 55.8068C231.759 55.4962 231.299 55.3409 230.682 55.3409C230.042 55.3409 229.54 55.4811 229.176 55.7614C228.812 56.0417 228.557 56.3409 228.409 56.6591L227.136 56.2045C227.364 55.6742 227.667 55.2614 228.045 54.9659C228.428 54.6667 228.845 54.4583 229.295 54.3409C229.75 54.2197 230.197 54.1591 230.636 54.1591C230.917 54.1591 231.239 54.1932 231.602 54.2614C231.97 54.3258 232.324 54.4602 232.665 54.6648C233.009 54.8693 233.295 55.178 233.523 55.5909C233.75 56.0038 233.864 56.5568 233.864 57.25V63H232.523V61.8182H232.454C232.364 62.0076 232.212 62.2102 232 62.4261C231.788 62.642 231.506 62.8258 231.153 62.9773C230.801 63.1288 230.371 63.2045 229.864 63.2045ZM230.068 62C230.598 62 231.045 61.8958 231.409 61.6875C231.776 61.4792 232.053 61.2102 232.239 60.8807C232.428 60.5511 232.523 60.2045 232.523 59.8409V58.6136C232.466 58.6818 232.341 58.7443 232.148 58.8011C231.958 58.8542 231.739 58.9015 231.489 58.9432C231.242 58.9811 231.002 59.0152 230.767 59.0455C230.536 59.072 230.348 59.0947 230.204 59.1136C229.856 59.1591 229.53 59.233 229.227 59.3352C228.928 59.4337 228.686 59.5833 228.5 59.7841C228.318 59.9811 228.227 60.25 228.227 60.5909C228.227 61.0568 228.4 61.4091 228.744 61.6477C229.093 61.8826 229.534 62 230.068 62ZM236.135 63V54.2727H237.476V63H236.135ZM236.817 52.8182C236.555 52.8182 236.33 52.7292 236.141 52.5511C235.955 52.3731 235.862 52.1591 235.862 51.9091C235.862 51.6591 235.955 51.4451 236.141 51.267C236.33 51.089 236.555 51 236.817 51C237.078 51 237.302 51.089 237.487 51.267C237.677 51.4451 237.771 51.6591 237.771 51.9091C237.771 52.1591 237.677 52.3731 237.487 52.5511C237.302 52.7292 237.078 52.8182 236.817 52.8182ZM241.097 51.3636V63H239.756V51.3636H241.097ZM245.377 61.4091L245.286 62.0227C245.221 62.4545 245.123 62.9167 244.99 63.4091C244.862 63.9015 244.727 64.3655 244.587 64.8011C244.447 65.2367 244.331 65.5833 244.24 65.8409H243.218C243.267 65.5985 243.331 65.2784 243.411 64.8807C243.49 64.483 243.57 64.0379 243.649 63.5455C243.733 63.0568 243.801 62.5568 243.854 62.0455L243.922 61.4091H245.377ZM255.555 63.1818C254.767 63.1818 254.075 62.9943 253.481 62.6193C252.89 62.2443 252.428 61.7197 252.094 61.0455C251.765 60.3712 251.6 59.5833 251.6 58.6818C251.6 57.7727 251.765 56.9792 252.094 56.3011C252.428 55.6231 252.89 55.0966 253.481 54.7216C254.075 54.3466 254.767 54.1591 255.555 54.1591C256.342 54.1591 257.032 54.3466 257.623 54.7216C258.217 55.0966 258.68 55.6231 259.009 56.3011C259.342 56.9792 259.509 57.7727 259.509 58.6818C259.509 59.5833 259.342 60.3712 259.009 61.0455C258.68 61.7197 258.217 62.2443 257.623 62.6193C257.032 62.9943 256.342 63.1818 255.555 63.1818ZM255.555 61.9773C256.153 61.9773 256.646 61.8239 257.032 61.517C257.418 61.2102 257.704 60.8068 257.89 60.3068C258.075 59.8068 258.168 59.2652 258.168 58.6818C258.168 58.0985 258.075 57.5549 257.89 57.0511C257.704 56.5473 257.418 56.1402 257.032 55.8295C256.646 55.5189 256.153 55.3636 255.555 55.3636C254.956 55.3636 254.464 55.5189 254.077 55.8295C253.691 56.1402 253.405 56.5473 253.219 57.0511C253.034 57.5549 252.941 58.0985 252.941 58.6818C252.941 59.2652 253.034 59.8068 253.219 60.3068C253.405 60.8068 253.691 61.2102 254.077 61.517C254.464 61.8239 254.956 61.9773 255.555 61.9773ZM261.38 63V54.2727H262.675V55.5909H262.766C262.925 55.1591 263.213 54.8087 263.63 54.5398C264.047 54.2708 264.516 54.1364 265.039 54.1364C265.138 54.1364 265.261 54.1383 265.408 54.142C265.556 54.1458 265.668 54.1515 265.744 54.1591V55.5227C265.698 55.5114 265.594 55.4943 265.431 55.4716C265.272 55.4451 265.104 55.4318 264.925 55.4318C264.501 55.4318 264.122 55.5208 263.789 55.6989C263.46 55.8731 263.198 56.1155 263.005 56.4261C262.816 56.733 262.721 57.0833 262.721 57.4773V63H261.38ZM274.049 63.2045C273.496 63.2045 272.994 63.1004 272.544 62.892C272.093 62.6799 271.735 62.375 271.47 61.9773C271.205 61.5758 271.072 61.0909 271.072 60.5227C271.072 60.0227 271.171 59.6174 271.368 59.3068C271.564 58.9924 271.828 58.7462 272.157 58.5682C272.487 58.3902 272.85 58.2576 273.248 58.1705C273.65 58.0795 274.053 58.0076 274.458 57.9545C274.989 57.8864 275.419 57.8352 275.748 57.8011C276.082 57.7633 276.324 57.7008 276.475 57.6136C276.631 57.5265 276.708 57.375 276.708 57.1591V57.1136C276.708 56.553 276.555 56.1174 276.248 55.8068C275.945 55.4962 275.485 55.3409 274.868 55.3409C274.227 55.3409 273.725 55.4811 273.362 55.7614C272.998 56.0417 272.743 56.3409 272.595 56.6591L271.322 56.2045C271.549 55.6742 271.852 55.2614 272.231 54.9659C272.614 54.6667 273.03 54.4583 273.481 54.3409C273.936 54.2197 274.383 54.1591 274.822 54.1591C275.102 54.1591 275.424 54.1932 275.788 54.2614C276.155 54.3258 276.51 54.4602 276.85 54.6648C277.195 54.8693 277.481 55.178 277.708 55.5909C277.936 56.0038 278.049 56.5568 278.049 57.25V63H276.708V61.8182H276.64C276.549 62.0076 276.398 62.2102 276.186 62.4261C275.974 62.642 275.691 62.8258 275.339 62.9773C274.987 63.1288 274.557 63.2045 274.049 63.2045ZM274.254 62C274.784 62 275.231 61.8958 275.595 61.6875C275.962 61.4792 276.239 61.2102 276.424 60.8807C276.614 60.5511 276.708 60.2045 276.708 59.8409V58.6136C276.652 58.6818 276.527 58.7443 276.333 58.8011C276.144 58.8542 275.924 58.9015 275.674 58.9432C275.428 58.9811 275.188 59.0152 274.953 59.0455C274.722 59.072 274.534 59.0947 274.39 59.1136C274.042 59.1591 273.716 59.233 273.413 59.3352C273.114 59.4337 272.871 59.5833 272.686 59.7841C272.504 59.9811 272.413 60.25 272.413 60.5909C272.413 61.0568 272.585 61.4091 272.93 61.6477C273.278 61.8826 273.72 62 274.254 62ZM283.616 63.1818C282.889 63.1818 282.247 62.9981 281.69 62.6307C281.133 62.2595 280.698 61.7367 280.383 61.0625C280.069 60.3845 279.912 59.5833 279.912 58.6591C279.912 57.7424 280.069 56.947 280.383 56.2727C280.698 55.5985 281.135 55.0777 281.696 54.7102C282.256 54.3428 282.904 54.1591 283.639 54.1591C284.207 54.1591 284.656 54.2538 284.986 54.4432C285.319 54.6288 285.573 54.8409 285.747 55.0795C285.925 55.3144 286.063 55.5076 286.162 55.6591H286.275V51.3636H287.616V63H286.321V61.6591H286.162C286.063 61.8182 285.923 62.0189 285.741 62.2614C285.559 62.5 285.3 62.714 284.963 62.9034C284.626 63.089 284.177 63.1818 283.616 63.1818ZM283.798 61.9773C284.336 61.9773 284.79 61.8371 285.162 61.5568C285.533 61.2727 285.815 60.8807 286.008 60.3807C286.201 59.8769 286.298 59.2955 286.298 58.6364C286.298 57.9848 286.203 57.4148 286.014 56.9261C285.825 56.4337 285.544 56.0511 285.173 55.7784C284.802 55.5019 284.344 55.3636 283.798 55.3636C283.23 55.3636 282.756 55.5095 282.378 55.8011C282.003 56.089 281.72 56.4811 281.531 56.9773C281.345 57.4697 281.253 58.0227 281.253 58.6364C281.253 59.2576 281.347 59.822 281.537 60.3295C281.73 60.8333 282.014 61.2348 282.389 61.5341C282.768 61.8295 283.237 61.9773 283.798 61.9773ZM293.378 63.1818C292.65 63.1818 292.008 62.9981 291.452 62.6307C290.895 62.2595 290.459 61.7367 290.145 61.0625C289.83 60.3845 289.673 59.5833 289.673 58.6591C289.673 57.7424 289.83 56.947 290.145 56.2727C290.459 55.5985 290.897 55.0777 291.457 54.7102C292.018 54.3428 292.666 54.1591 293.4 54.1591C293.969 54.1591 294.417 54.2538 294.747 54.4432C295.08 54.6288 295.334 54.8409 295.508 55.0795C295.686 55.3144 295.825 55.5076 295.923 55.6591H296.037V51.3636H297.378V63H296.082V61.6591H295.923C295.825 61.8182 295.685 62.0189 295.503 62.2614C295.321 62.5 295.061 62.714 294.724 62.9034C294.387 63.089 293.938 63.1818 293.378 63.1818ZM293.56 61.9773C294.097 61.9773 294.552 61.8371 294.923 61.5568C295.294 61.2727 295.577 60.8807 295.77 60.3807C295.963 59.8769 296.06 59.2955 296.06 58.6364C296.06 57.9848 295.965 57.4148 295.775 56.9261C295.586 56.4337 295.306 56.0511 294.935 55.7784C294.563 55.5019 294.105 55.3636 293.56 55.3636C292.991 55.3636 292.518 55.5095 292.139 55.8011C291.764 56.089 291.482 56.4811 291.292 56.9773C291.107 57.4697 291.014 58.0227 291.014 58.6364C291.014 59.2576 291.109 59.822 291.298 60.3295C291.491 60.8333 291.775 61.2348 292.15 61.5341C292.529 61.8295 292.999 61.9773 293.56 61.9773ZM299.844 63V54.2727H301.139V55.5909H301.23C301.389 55.1591 301.677 54.8087 302.094 54.5398C302.51 54.2708 302.98 54.1364 303.503 54.1364C303.601 54.1364 303.724 54.1383 303.872 54.142C304.02 54.1458 304.132 54.1515 304.207 54.1591V55.5227C304.162 55.5114 304.058 55.4943 303.895 55.4716C303.736 55.4451 303.567 55.4318 303.389 55.4318C302.965 55.4318 302.586 55.5208 302.253 55.6989C301.923 55.8731 301.662 56.1155 301.469 56.4261C301.279 56.733 301.185 57.0833 301.185 57.4773V63H299.844ZM309.014 63.1818C308.173 63.1818 307.448 62.9962 306.838 62.625C306.232 62.25 305.764 61.7273 305.435 61.0568C305.109 60.3826 304.946 59.5985 304.946 58.7045C304.946 57.8106 305.109 57.0227 305.435 56.3409C305.764 55.6553 306.223 55.1212 306.81 54.7386C307.401 54.3523 308.09 54.1591 308.878 54.1591C309.333 54.1591 309.781 54.2348 310.225 54.3864C310.668 54.5379 311.071 54.7841 311.435 55.125C311.798 55.4621 312.088 55.9091 312.304 56.4659C312.52 57.0227 312.628 57.7083 312.628 58.5227V59.0909H305.901V57.9318H311.264C311.264 57.4394 311.166 57 310.969 56.6136C310.776 56.2273 310.499 55.9223 310.139 55.6989C309.783 55.4754 309.363 55.3636 308.878 55.3636C308.344 55.3636 307.882 55.4962 307.492 55.7614C307.105 56.0227 306.808 56.3636 306.6 56.7841C306.391 57.2045 306.287 57.6553 306.287 58.1364V58.9091C306.287 59.5682 306.401 60.1269 306.628 60.5852C306.859 61.0398 307.179 61.3864 307.588 61.625C307.997 61.8598 308.473 61.9773 309.014 61.9773C309.367 61.9773 309.685 61.928 309.969 61.8295C310.257 61.7273 310.505 61.5758 310.713 61.375C310.922 61.1705 311.083 60.9167 311.196 60.6136L312.492 60.9773C312.355 61.4167 312.126 61.803 311.804 62.1364C311.482 62.4659 311.084 62.7235 310.611 62.9091C310.137 63.0909 309.605 63.1818 309.014 63.1818ZM320.674 56.2273L319.469 56.5682C319.393 56.3674 319.282 56.1723 319.134 55.983C318.99 55.7898 318.793 55.6307 318.543 55.5057C318.293 55.3807 317.973 55.3182 317.583 55.3182C317.049 55.3182 316.604 55.4413 316.247 55.6875C315.895 55.9299 315.719 56.2386 315.719 56.6136C315.719 56.947 315.84 57.2102 316.083 57.4034C316.325 57.5966 316.704 57.7576 317.219 57.8864L318.514 58.2045C319.295 58.3939 319.876 58.6837 320.259 59.0739C320.641 59.4602 320.833 59.9583 320.833 60.5682C320.833 61.0682 320.689 61.5152 320.401 61.9091C320.117 62.303 319.719 62.6136 319.208 62.8409C318.696 63.0682 318.102 63.1818 317.424 63.1818C316.533 63.1818 315.797 62.9886 315.213 62.6023C314.63 62.2159 314.261 61.6515 314.105 60.9091L315.378 60.5909C315.499 61.0606 315.729 61.4129 316.066 61.6477C316.407 61.8826 316.852 62 317.401 62C318.026 62 318.522 61.8674 318.889 61.6023C319.261 61.3333 319.446 61.0114 319.446 60.6364C319.446 60.3333 319.34 60.0795 319.128 59.875C318.916 59.6667 318.59 59.5114 318.151 59.4091L316.696 59.0682C315.897 58.8788 315.31 58.5852 314.935 58.1875C314.564 57.786 314.378 57.2841 314.378 56.6818C314.378 56.1894 314.516 55.7538 314.793 55.375C315.073 54.9962 315.454 54.6989 315.935 54.483C316.42 54.267 316.969 54.1591 317.583 54.1591C318.446 54.1591 319.124 54.3485 319.617 54.7273C320.113 55.1061 320.465 55.6061 320.674 56.2273ZM328.857 56.2273L327.652 56.5682C327.577 56.3674 327.465 56.1723 327.317 55.983C327.173 55.7898 326.976 55.6307 326.726 55.5057C326.476 55.3807 326.156 55.3182 325.766 55.3182C325.232 55.3182 324.787 55.4413 324.431 55.6875C324.079 55.9299 323.902 56.2386 323.902 56.6136C323.902 56.947 324.024 57.2102 324.266 57.4034C324.508 57.5966 324.887 57.7576 325.402 57.8864L326.698 58.2045C327.478 58.3939 328.06 58.6837 328.442 59.0739C328.825 59.4602 329.016 59.9583 329.016 60.5682C329.016 61.0682 328.872 61.5152 328.584 61.9091C328.3 62.303 327.902 62.6136 327.391 62.8409C326.88 63.0682 326.285 63.1818 325.607 63.1818C324.717 63.1818 323.98 62.9886 323.397 62.6023C322.813 62.2159 322.444 61.6515 322.289 60.9091L323.562 60.5909C323.683 61.0606 323.912 61.4129 324.249 61.6477C324.59 61.8826 325.035 62 325.584 62C326.209 62 326.705 61.8674 327.073 61.6023C327.444 61.3333 327.63 61.0114 327.63 60.6364C327.63 60.3333 327.524 60.0795 327.312 59.875C327.099 59.6667 326.774 59.5114 326.334 59.4091L324.88 59.0682C324.08 58.8788 323.493 58.5852 323.118 58.1875C322.747 57.786 322.562 57.2841 322.562 56.6818C322.562 56.1894 322.7 55.7538 322.976 55.375C323.257 54.9962 323.637 54.6989 324.118 54.483C324.603 54.267 325.152 54.1591 325.766 54.1591C326.63 54.1591 327.308 54.3485 327.8 54.7273C328.296 55.1061 328.649 55.6061 328.857 56.2273Z" fill="#5B636E"/>
<line x1="25" y1="88.5" x2="554" y2="88.5" stroke="#8A919E" stroke-opacity="0.2"/>
<rect width="529" height="65" transform="translate(25 89)" fill="white"/>
<path d="M59.6364 116.364V128H58.2727L51.9318 118.864H51.8182V128H50.4091V116.364H51.7727L58.1364 125.523H58.25V116.364H59.6364ZM65.6436 128.182C64.8557 128.182 64.1644 127.994 63.5697 127.619C62.9788 127.244 62.5167 126.72 62.1834 126.045C61.8538 125.371 61.6891 124.583 61.6891 123.682C61.6891 122.773 61.8538 121.979 62.1834 121.301C62.5167 120.623 62.9788 120.097 63.5697 119.722C64.1644 119.347 64.8557 119.159 65.6436 119.159C66.4315 119.159 67.1209 119.347 67.7118 119.722C68.3065 120.097 68.7686 120.623 69.0981 121.301C69.4315 121.979 69.5981 122.773 69.5981 123.682C69.5981 124.583 69.4315 125.371 69.0981 126.045C68.7686 126.72 68.3065 127.244 67.7118 127.619C67.1209 127.994 66.4315 128.182 65.6436 128.182ZM65.6436 126.977C66.2421 126.977 66.7345 126.824 67.1209 126.517C67.5072 126.21 67.7932 125.807 67.9788 125.307C68.1644 124.807 68.2572 124.265 68.2572 123.682C68.2572 123.098 68.1644 122.555 67.9788 122.051C67.7932 121.547 67.5072 121.14 67.1209 120.83C66.7345 120.519 66.2421 120.364 65.6436 120.364C65.0451 120.364 64.5527 120.519 64.1663 120.83C63.78 121.14 63.494 121.547 63.3084 122.051C63.1228 122.555 63.03 123.098 63.03 123.682C63.03 124.265 63.1228 124.807 63.3084 125.307C63.494 125.807 63.78 126.21 64.1663 126.517C64.5527 126.824 65.0451 126.977 65.6436 126.977ZM75.2645 119.273V120.409H70.7418V119.273H75.2645ZM72.0599 117.182H73.4008V125.5C73.4008 125.879 73.4558 126.163 73.5656 126.352C73.6793 126.538 73.8232 126.663 73.9974 126.727C74.1755 126.788 74.363 126.818 74.5599 126.818C74.7077 126.818 74.8289 126.811 74.9236 126.795C75.0183 126.777 75.094 126.761 75.1508 126.75L75.4236 127.955C75.3327 127.989 75.2058 128.023 75.0429 128.057C74.88 128.095 74.6736 128.114 74.4236 128.114C74.0448 128.114 73.6736 128.032 73.3099 127.869C72.9501 127.706 72.6508 127.458 72.4122 127.125C72.1774 126.792 72.0599 126.371 72.0599 125.864V117.182ZM80.6709 128.182C79.83 128.182 79.1046 127.996 78.4947 127.625C77.8887 127.25 77.4209 126.727 77.0913 126.057C76.7656 125.383 76.6027 124.598 76.6027 123.705C76.6027 122.811 76.7656 122.023 77.0913 121.341C77.4209 120.655 77.8792 120.121 78.4663 119.739C79.0572 119.352 79.7466 119.159 80.5345 119.159C80.989 119.159 81.4379 119.235 81.8811 119.386C82.3243 119.538 82.7277 119.784 83.0913 120.125C83.455 120.462 83.7447 120.909 83.9606 121.466C84.1765 122.023 84.2845 122.708 84.2845 123.523V124.091H77.5572V122.932H82.9209C82.9209 122.439 82.8224 122 82.6254 121.614C82.4322 121.227 82.1557 120.922 81.7959 120.699C81.4398 120.475 81.0193 120.364 80.5345 120.364C80.0004 120.364 79.5383 120.496 79.1481 120.761C78.7618 121.023 78.4644 121.364 78.2561 121.784C78.0478 122.205 77.9436 122.655 77.9436 123.136V123.909C77.9436 124.568 78.0572 125.127 78.2845 125.585C78.5156 126.04 78.8356 126.386 79.2447 126.625C79.6538 126.86 80.1292 126.977 80.6709 126.977C81.0231 126.977 81.3413 126.928 81.6254 126.83C81.9133 126.727 82.1614 126.576 82.3697 126.375C82.5781 126.17 82.739 125.917 82.8527 125.614L84.1481 125.977C84.0118 126.417 83.7826 126.803 83.4606 127.136C83.1387 127.466 82.7409 127.723 82.2675 127.909C81.794 128.091 81.2618 128.182 80.6709 128.182Z" fill="#0A0B0D"/>
<path d="M156.227 121.182C156.227 122.409 156.006 123.47 155.562 124.364C155.119 125.258 154.511 125.947 153.739 126.432C152.966 126.917 152.083 127.159 151.091 127.159C150.098 127.159 149.216 126.917 148.443 126.432C147.67 125.947 147.063 125.258 146.619 124.364C146.176 123.47 145.955 122.409 145.955 121.182C145.955 119.955 146.176 118.894 146.619 118C147.063 117.106 147.67 116.417 148.443 115.932C149.216 115.447 150.098 115.205 151.091 115.205C152.083 115.205 152.966 115.447 153.739 115.932C154.511 116.417 155.119 117.106 155.562 118C156.006 118.894 156.227 119.955 156.227 121.182ZM154.864 121.182C154.864 120.174 154.695 119.324 154.358 118.631C154.025 117.938 153.572 117.413 153 117.057C152.432 116.701 151.795 116.523 151.091 116.523C150.386 116.523 149.748 116.701 149.176 117.057C148.608 117.413 148.155 117.938 147.818 118.631C147.485 119.324 147.318 120.174 147.318 121.182C147.318 122.189 147.485 123.04 147.818 123.733C148.155 124.426 148.608 124.951 149.176 125.307C149.748 125.663 150.386 125.841 151.091 125.841C151.795 125.841 152.432 125.663 153 125.307C153.572 124.951 154.025 124.426 154.358 123.733C154.695 123.04 154.864 122.189 154.864 121.182ZM158.239 130.273V118.273H159.534V119.659H159.693C159.792 119.508 159.928 119.314 160.102 119.08C160.28 118.841 160.534 118.629 160.864 118.443C161.197 118.254 161.648 118.159 162.216 118.159C162.951 118.159 163.599 118.343 164.159 118.71C164.72 119.078 165.157 119.598 165.472 120.273C165.786 120.947 165.943 121.742 165.943 122.659C165.943 123.583 165.786 124.384 165.472 125.062C165.157 125.737 164.722 126.259 164.165 126.631C163.608 126.998 162.966 127.182 162.239 127.182C161.678 127.182 161.229 127.089 160.892 126.903C160.555 126.714 160.296 126.5 160.114 126.261C159.932 126.019 159.792 125.818 159.693 125.659H159.58V130.273H158.239ZM159.557 122.636C159.557 123.295 159.654 123.877 159.847 124.381C160.04 124.881 160.322 125.273 160.693 125.557C161.065 125.837 161.519 125.977 162.057 125.977C162.618 125.977 163.085 125.83 163.46 125.534C163.839 125.235 164.123 124.833 164.313 124.33C164.506 123.822 164.602 123.258 164.602 122.636C164.602 122.023 164.508 121.47 164.318 120.977C164.133 120.481 163.851 120.089 163.472 119.801C163.097 119.509 162.625 119.364 162.057 119.364C161.512 119.364 161.053 119.502 160.682 119.778C160.311 120.051 160.03 120.434 159.841 120.926C159.652 121.415 159.557 121.985 159.557 122.636ZM171.608 118.273V119.409H167.086V118.273H171.608ZM168.404 116.182H169.745V124.5C169.745 124.879 169.8 125.163 169.909 125.352C170.023 125.538 170.167 125.663 170.341 125.727C170.519 125.788 170.707 125.818 170.904 125.818C171.051 125.818 171.173 125.811 171.267 125.795C171.362 125.777 171.438 125.761 171.495 125.75L171.767 126.955C171.676 126.989 171.55 127.023 171.387 127.057C171.224 127.095 171.017 127.114 170.767 127.114C170.389 127.114 170.017 127.032 169.654 126.869C169.294 126.706 168.995 126.458 168.756 126.125C168.521 125.792 168.404 125.371 168.404 124.864V116.182ZM173.449 127V118.273H174.79V127H173.449ZM174.131 116.818C173.87 116.818 173.644 116.729 173.455 116.551C173.269 116.373 173.177 116.159 173.177 115.909C173.177 115.659 173.269 115.445 173.455 115.267C173.644 115.089 173.87 115 174.131 115C174.392 115 174.616 115.089 174.802 115.267C174.991 115.445 175.086 115.659 175.086 115.909C175.086 116.159 174.991 116.373 174.802 116.551C174.616 116.729 174.392 116.818 174.131 116.818ZM180.616 127.182C179.828 127.182 179.136 126.994 178.542 126.619C177.951 126.244 177.489 125.72 177.155 125.045C176.826 124.371 176.661 123.583 176.661 122.682C176.661 121.773 176.826 120.979 177.155 120.301C177.489 119.623 177.951 119.097 178.542 118.722C179.136 118.347 179.828 118.159 180.616 118.159C181.403 118.159 182.093 118.347 182.684 118.722C183.278 119.097 183.741 119.623 184.07 120.301C184.403 120.979 184.57 121.773 184.57 122.682C184.57 123.583 184.403 124.371 184.07 125.045C183.741 125.72 183.278 126.244 182.684 126.619C182.093 126.994 181.403 127.182 180.616 127.182ZM180.616 125.977C181.214 125.977 181.707 125.824 182.093 125.517C182.479 125.21 182.765 124.807 182.951 124.307C183.136 123.807 183.229 123.265 183.229 122.682C183.229 122.098 183.136 121.555 182.951 121.051C182.765 120.547 182.479 120.14 182.093 119.83C181.707 119.519 181.214 119.364 180.616 119.364C180.017 119.364 179.525 119.519 179.138 119.83C178.752 120.14 178.466 120.547 178.28 121.051C178.095 121.555 178.002 122.098 178.002 122.682C178.002 123.265 178.095 123.807 178.28 124.307C178.466 124.807 178.752 125.21 179.138 125.517C179.525 125.824 180.017 125.977 180.616 125.977ZM187.782 121.75V127H186.441V118.273H187.736V119.636H187.85C188.055 119.193 188.365 118.837 188.782 118.568C189.199 118.295 189.736 118.159 190.396 118.159C190.986 118.159 191.504 118.28 191.947 118.523C192.39 118.761 192.735 119.125 192.981 119.614C193.227 120.098 193.35 120.712 193.35 121.455V127H192.009V121.545C192.009 120.86 191.831 120.326 191.475 119.943C191.119 119.557 190.63 119.364 190.009 119.364C189.581 119.364 189.199 119.456 188.861 119.642C188.528 119.828 188.265 120.098 188.072 120.455C187.879 120.811 187.782 121.242 187.782 121.75ZM198.193 127.205C197.64 127.205 197.138 127.1 196.687 126.892C196.236 126.68 195.878 126.375 195.613 125.977C195.348 125.576 195.215 125.091 195.215 124.523C195.215 124.023 195.314 123.617 195.511 123.307C195.708 122.992 195.971 122.746 196.301 122.568C196.63 122.39 196.994 122.258 197.391 122.17C197.793 122.08 198.196 122.008 198.602 121.955C199.132 121.886 199.562 121.835 199.891 121.801C200.225 121.763 200.467 121.701 200.619 121.614C200.774 121.527 200.852 121.375 200.852 121.159V121.114C200.852 120.553 200.698 120.117 200.391 119.807C200.088 119.496 199.628 119.341 199.011 119.341C198.371 119.341 197.869 119.481 197.505 119.761C197.141 120.042 196.886 120.341 196.738 120.659L195.465 120.205C195.693 119.674 195.996 119.261 196.374 118.966C196.757 118.667 197.174 118.458 197.624 118.341C198.079 118.22 198.526 118.159 198.965 118.159C199.246 118.159 199.568 118.193 199.931 118.261C200.299 118.326 200.653 118.46 200.994 118.665C201.338 118.869 201.624 119.178 201.852 119.591C202.079 120.004 202.193 120.557 202.193 121.25V127H200.852V125.818H200.783C200.693 126.008 200.541 126.21 200.329 126.426C200.117 126.642 199.835 126.826 199.482 126.977C199.13 127.129 198.7 127.205 198.193 127.205ZM198.397 126C198.927 126 199.374 125.896 199.738 125.688C200.105 125.479 200.382 125.21 200.568 124.881C200.757 124.551 200.852 124.205 200.852 123.841V122.614C200.795 122.682 200.67 122.744 200.477 122.801C200.287 122.854 200.068 122.902 199.818 122.943C199.571 122.981 199.331 123.015 199.096 123.045C198.865 123.072 198.677 123.095 198.533 123.114C198.185 123.159 197.859 123.233 197.556 123.335C197.257 123.434 197.015 123.583 196.829 123.784C196.647 123.981 196.556 124.25 196.556 124.591C196.556 125.057 196.729 125.409 197.073 125.648C197.422 125.883 197.863 126 198.397 126ZM205.805 115.364V127H204.464V115.364H205.805ZM212.409 127V118.273H213.704V119.636H213.818C214 119.17 214.293 118.809 214.699 118.551C215.104 118.29 215.591 118.159 216.159 118.159C216.735 118.159 217.214 118.29 217.596 118.551C217.983 118.809 218.284 119.17 218.5 119.636H218.591C218.814 119.186 219.149 118.828 219.596 118.562C220.043 118.294 220.579 118.159 221.204 118.159C221.985 118.159 222.623 118.403 223.119 118.892C223.615 119.377 223.863 120.133 223.863 121.159V127H222.523V121.159C222.523 120.515 222.346 120.055 221.994 119.778C221.642 119.502 221.227 119.364 220.75 119.364C220.136 119.364 219.661 119.549 219.324 119.92C218.987 120.288 218.818 120.754 218.818 121.318V127H217.454V121.023C217.454 120.527 217.293 120.127 216.971 119.824C216.649 119.517 216.235 119.364 215.727 119.364C215.379 119.364 215.053 119.456 214.75 119.642C214.451 119.828 214.208 120.085 214.023 120.415C213.841 120.741 213.75 121.117 213.75 121.545V127H212.409ZM229.798 127.182C228.957 127.182 228.232 126.996 227.622 126.625C227.016 126.25 226.548 125.727 226.219 125.057C225.893 124.383 225.73 123.598 225.73 122.705C225.73 121.811 225.893 121.023 226.219 120.341C226.548 119.655 227.007 119.121 227.594 118.739C228.185 118.352 228.874 118.159 229.662 118.159C230.116 118.159 230.565 118.235 231.008 118.386C231.452 118.538 231.855 118.784 232.219 119.125C232.582 119.462 232.872 119.909 233.088 120.466C233.304 121.023 233.412 121.708 233.412 122.523V123.091H226.685V121.932H232.048C232.048 121.439 231.95 121 231.753 120.614C231.56 120.227 231.283 119.922 230.923 119.699C230.567 119.475 230.147 119.364 229.662 119.364C229.128 119.364 228.666 119.496 228.276 119.761C227.889 120.023 227.592 120.364 227.383 120.784C227.175 121.205 227.071 121.655 227.071 122.136V122.909C227.071 123.568 227.185 124.127 227.412 124.585C227.643 125.04 227.963 125.386 228.372 125.625C228.781 125.86 229.257 125.977 229.798 125.977C230.151 125.977 230.469 125.928 230.753 125.83C231.041 125.727 231.289 125.576 231.497 125.375C231.705 125.17 231.866 124.917 231.98 124.614L233.276 124.977C233.139 125.417 232.91 125.803 232.588 126.136C232.266 126.466 231.868 126.723 231.395 126.909C230.921 127.091 230.389 127.182 229.798 127.182ZM241.457 120.227L240.253 120.568C240.177 120.367 240.065 120.172 239.918 119.983C239.774 119.79 239.577 119.631 239.327 119.506C239.077 119.381 238.757 119.318 238.367 119.318C237.832 119.318 237.387 119.441 237.031 119.688C236.679 119.93 236.503 120.239 236.503 120.614C236.503 120.947 236.624 121.21 236.867 121.403C237.109 121.597 237.488 121.758 238.003 121.886L239.298 122.205C240.079 122.394 240.66 122.684 241.043 123.074C241.425 123.46 241.617 123.958 241.617 124.568C241.617 125.068 241.473 125.515 241.185 125.909C240.901 126.303 240.503 126.614 239.992 126.841C239.48 127.068 238.885 127.182 238.207 127.182C237.317 127.182 236.581 126.989 235.997 126.602C235.414 126.216 235.045 125.652 234.889 124.909L236.162 124.591C236.283 125.061 236.512 125.413 236.85 125.648C237.19 125.883 237.635 126 238.185 126C238.81 126 239.306 125.867 239.673 125.602C240.045 125.333 240.23 125.011 240.23 124.636C240.23 124.333 240.124 124.08 239.912 123.875C239.7 123.667 239.374 123.511 238.935 123.409L237.48 123.068C236.681 122.879 236.094 122.585 235.719 122.188C235.348 121.786 235.162 121.284 235.162 120.682C235.162 120.189 235.3 119.754 235.577 119.375C235.857 118.996 236.238 118.699 236.719 118.483C237.204 118.267 237.753 118.159 238.367 118.159C239.23 118.159 239.908 118.348 240.401 118.727C240.897 119.106 241.249 119.606 241.457 120.227ZM249.641 120.227L248.436 120.568C248.361 120.367 248.249 120.172 248.101 119.983C247.957 119.79 247.76 119.631 247.51 119.506C247.26 119.381 246.94 119.318 246.55 119.318C246.016 119.318 245.571 119.441 245.215 119.688C244.862 119.93 244.686 120.239 244.686 120.614C244.686 120.947 244.808 121.21 245.05 121.403C245.292 121.597 245.671 121.758 246.186 121.886L247.482 122.205C248.262 122.394 248.843 122.684 249.226 123.074C249.609 123.46 249.8 123.958 249.8 124.568C249.8 125.068 249.656 125.515 249.368 125.909C249.084 126.303 248.686 126.614 248.175 126.841C247.664 127.068 247.069 127.182 246.391 127.182C245.501 127.182 244.764 126.989 244.181 126.602C243.597 126.216 243.228 125.652 243.073 124.909L244.345 124.591C244.467 125.061 244.696 125.413 245.033 125.648C245.374 125.883 245.819 126 246.368 126C246.993 126 247.489 125.867 247.857 125.602C248.228 125.333 248.414 125.011 248.414 124.636C248.414 124.333 248.308 124.08 248.095 123.875C247.883 123.667 247.558 123.511 247.118 123.409L245.664 123.068C244.864 122.879 244.277 122.585 243.902 122.188C243.531 121.786 243.345 121.284 243.345 120.682C243.345 120.189 243.484 119.754 243.76 119.375C244.04 118.996 244.421 118.699 244.902 118.483C245.387 118.267 245.936 118.159 246.55 118.159C247.414 118.159 248.092 118.348 248.584 118.727C249.08 119.106 249.433 119.606 249.641 120.227ZM254.211 127.205C253.658 127.205 253.156 127.1 252.705 126.892C252.254 126.68 251.896 126.375 251.631 125.977C251.366 125.576 251.233 125.091 251.233 124.523C251.233 124.023 251.332 123.617 251.529 123.307C251.726 122.992 251.989 122.746 252.319 122.568C252.648 122.39 253.012 122.258 253.409 122.17C253.811 122.08 254.214 122.008 254.62 121.955C255.15 121.886 255.58 121.835 255.909 121.801C256.243 121.763 256.485 121.701 256.637 121.614C256.792 121.527 256.87 121.375 256.87 121.159V121.114C256.87 120.553 256.716 120.117 256.409 119.807C256.106 119.496 255.646 119.341 255.029 119.341C254.389 119.341 253.887 119.481 253.523 119.761C253.159 120.042 252.904 120.341 252.756 120.659L251.483 120.205C251.711 119.674 252.014 119.261 252.392 118.966C252.775 118.667 253.192 118.458 253.642 118.341C254.097 118.22 254.544 118.159 254.983 118.159C255.264 118.159 255.586 118.193 255.949 118.261C256.317 118.326 256.671 118.46 257.012 118.665C257.356 118.869 257.642 119.178 257.87 119.591C258.097 120.004 258.211 120.557 258.211 121.25V127H256.87V125.818H256.801C256.711 126.008 256.559 126.21 256.347 126.426C256.135 126.642 255.853 126.826 255.5 126.977C255.148 127.129 254.718 127.205 254.211 127.205ZM254.415 126C254.945 126 255.392 125.896 255.756 125.688C256.123 125.479 256.4 125.21 256.586 124.881C256.775 124.551 256.87 124.205 256.87 123.841V122.614C256.813 122.682 256.688 122.744 256.495 122.801C256.305 122.854 256.086 122.902 255.836 122.943C255.589 122.981 255.349 123.015 255.114 123.045C254.883 123.072 254.695 123.095 254.551 123.114C254.203 123.159 253.877 123.233 253.574 123.335C253.275 123.434 253.033 123.583 252.847 123.784C252.665 123.981 252.574 124.25 252.574 124.591C252.574 125.057 252.747 125.409 253.091 125.648C253.44 125.883 253.881 126 254.415 126ZM264.005 130.455C263.357 130.455 262.8 130.371 262.334 130.205C261.868 130.042 261.48 129.826 261.17 129.557C260.863 129.292 260.618 129.008 260.437 128.705L261.505 127.955C261.626 128.114 261.779 128.295 261.965 128.5C262.151 128.708 262.404 128.888 262.726 129.04C263.052 129.195 263.478 129.273 264.005 129.273C264.709 129.273 265.291 129.102 265.749 128.761C266.207 128.42 266.437 127.886 266.437 127.159V125.386H266.323C266.224 125.545 266.084 125.742 265.902 125.977C265.724 126.208 265.467 126.415 265.13 126.597C264.796 126.775 264.346 126.864 263.777 126.864C263.073 126.864 262.44 126.697 261.88 126.364C261.323 126.03 260.882 125.545 260.556 124.909C260.234 124.273 260.073 123.5 260.073 122.591C260.073 121.697 260.23 120.919 260.545 120.256C260.859 119.589 261.296 119.074 261.857 118.71C262.418 118.343 263.065 118.159 263.8 118.159C264.368 118.159 264.819 118.254 265.152 118.443C265.49 118.629 265.747 118.841 265.925 119.08C266.107 119.314 266.247 119.508 266.346 119.659H266.482V118.273H267.777V127.25C267.777 128 267.607 128.61 267.266 129.08C266.929 129.553 266.474 129.9 265.902 130.119C265.334 130.343 264.702 130.455 264.005 130.455ZM263.959 125.659C264.497 125.659 264.952 125.536 265.323 125.29C265.694 125.044 265.976 124.689 266.17 124.227C266.363 123.765 266.459 123.212 266.459 122.568C266.459 121.939 266.365 121.384 266.175 120.903C265.986 120.422 265.706 120.045 265.334 119.773C264.963 119.5 264.505 119.364 263.959 119.364C263.391 119.364 262.918 119.508 262.539 119.795C262.164 120.083 261.882 120.47 261.692 120.955C261.507 121.439 261.414 121.977 261.414 122.568C261.414 123.174 261.509 123.71 261.698 124.176C261.891 124.638 262.175 125.002 262.55 125.267C262.929 125.528 263.399 125.659 263.959 125.659ZM273.715 127.182C272.874 127.182 272.149 126.996 271.539 126.625C270.933 126.25 270.465 125.727 270.136 125.057C269.81 124.383 269.647 123.598 269.647 122.705C269.647 121.811 269.81 121.023 270.136 120.341C270.465 119.655 270.923 119.121 271.511 118.739C272.101 118.352 272.791 118.159 273.579 118.159C274.033 118.159 274.482 118.235 274.925 118.386C275.369 118.538 275.772 118.784 276.136 119.125C276.499 119.462 276.789 119.909 277.005 120.466C277.221 121.023 277.329 121.708 277.329 122.523V123.091H270.601V121.932H275.965C275.965 121.439 275.867 121 275.67 120.614C275.476 120.227 275.2 119.922 274.84 119.699C274.484 119.475 274.064 119.364 273.579 119.364C273.045 119.364 272.583 119.496 272.192 119.761C271.806 120.023 271.509 120.364 271.3 120.784C271.092 121.205 270.988 121.655 270.988 122.136V122.909C270.988 123.568 271.101 124.127 271.329 124.585C271.56 125.04 271.88 125.386 272.289 125.625C272.698 125.86 273.173 125.977 273.715 125.977C274.067 125.977 274.386 125.928 274.67 125.83C274.958 125.727 275.206 125.576 275.414 125.375C275.622 125.17 275.783 124.917 275.897 124.614L277.192 124.977C277.056 125.417 276.827 125.803 276.505 126.136C276.183 126.466 275.785 126.723 275.312 126.909C274.838 127.091 274.306 127.182 273.715 127.182Z" fill="#5B636E"/>
<line x1="25" y1="153.5" x2="554" y2="153.5" stroke="#8A919E" stroke-opacity="0.2"/>
<rect width="529" height="65" transform="translate(25 154)" fill="white"/>
<path d="M50.4091 193V181.364H54.3409C55.2538 181.364 56 181.528 56.5795 181.858C57.1629 182.184 57.5947 182.625 57.875 183.182C58.1553 183.739 58.2955 184.36 58.2955 185.045C58.2955 185.731 58.1553 186.354 57.875 186.915C57.5985 187.475 57.1705 187.922 56.5909 188.256C56.0114 188.585 55.2689 188.75 54.3636 188.75H51.5455V187.5H54.3182C54.9432 187.5 55.4451 187.392 55.8239 187.176C56.2027 186.96 56.4773 186.669 56.6477 186.301C56.822 185.93 56.9091 185.511 56.9091 185.045C56.9091 184.58 56.822 184.163 56.6477 183.795C56.4773 183.428 56.2008 183.14 55.8182 182.932C55.4356 182.72 54.928 182.614 54.2955 182.614H51.8182V193H50.4091ZM62.7757 193.205C62.2227 193.205 61.7208 193.1 61.27 192.892C60.8193 192.68 60.4613 192.375 60.1962 191.977C59.931 191.576 59.7984 191.091 59.7984 190.523C59.7984 190.023 59.8969 189.617 60.0939 189.307C60.2909 188.992 60.5541 188.746 60.8837 188.568C61.2132 188.39 61.5768 188.258 61.9746 188.17C62.3761 188.08 62.7795 188.008 63.1848 187.955C63.7151 187.886 64.145 187.835 64.4746 187.801C64.8079 187.763 65.0503 187.701 65.2018 187.614C65.3571 187.527 65.4348 187.375 65.4348 187.159V187.114C65.4348 186.553 65.2814 186.117 64.9746 185.807C64.6715 185.496 64.2113 185.341 63.5939 185.341C62.9537 185.341 62.4518 185.481 62.0882 185.761C61.7246 186.042 61.4689 186.341 61.3212 186.659L60.0484 186.205C60.2757 185.674 60.5787 185.261 60.9575 184.966C61.3401 184.667 61.7568 184.458 62.2075 184.341C62.6621 184.22 63.109 184.159 63.5484 184.159C63.8287 184.159 64.1507 184.193 64.5143 184.261C64.8818 184.326 65.2359 184.46 65.5768 184.665C65.9215 184.869 66.2075 185.178 66.4348 185.591C66.6621 186.004 66.7757 186.557 66.7757 187.25V193H65.4348V191.818H65.3666C65.2757 192.008 65.1242 192.21 64.9121 192.426C64.6999 192.642 64.4178 192.826 64.0655 192.977C63.7132 193.129 63.2833 193.205 62.7757 193.205ZM62.9803 192C63.5106 192 63.9575 191.896 64.3212 191.688C64.6886 191.479 64.9651 191.21 65.1507 190.881C65.3401 190.551 65.4348 190.205 65.4348 189.841V188.614C65.378 188.682 65.253 188.744 65.0598 188.801C64.8704 188.854 64.6507 188.902 64.4007 188.943C64.1545 188.981 63.914 189.015 63.6791 189.045C63.4481 189.072 63.2606 189.095 63.1166 189.114C62.7681 189.159 62.4424 189.233 62.1393 189.335C61.8401 189.434 61.5977 189.583 61.4121 189.784C61.2303 189.981 61.1393 190.25 61.1393 190.591C61.1393 191.057 61.3117 191.409 61.6564 191.648C62.0049 191.883 62.4462 192 62.9803 192ZM69.5983 196.25C69.371 196.25 69.1684 196.231 68.9903 196.193C68.8123 196.159 68.6892 196.125 68.621 196.091L68.9619 194.909C69.4506 195.034 69.8578 195.03 70.1835 194.898C70.5093 194.769 70.7915 194.379 71.0301 193.727L71.2801 193.045L68.0528 184.273H69.5074L71.9165 191.227H72.0074L74.4165 184.273L75.8824 184.295L72.1665 194.273C71.9998 194.716 71.7934 195.083 71.5471 195.375C71.3009 195.67 71.015 195.89 70.6892 196.034C70.3672 196.178 70.0036 196.25 69.5983 196.25ZM83.7818 193L81.1227 184.273H82.5318L84.4182 190.955H84.5091L86.3727 184.273H87.8045L89.6454 190.932H89.7363L91.6227 184.273H93.0318L90.3727 193H89.0545L87.1454 186.295H87.0091L85.1 193H83.7818ZM94.6285 193V184.273H95.9694V193H94.6285ZM95.3103 182.818C95.049 182.818 94.8236 182.729 94.6342 182.551C94.4486 182.373 94.3558 182.159 94.3558 181.909C94.3558 181.659 94.4486 181.445 94.6342 181.267C94.8236 181.089 95.049 181 95.3103 181C95.5717 181 95.7952 181.089 95.9808 181.267C96.1702 181.445 96.2649 181.659 96.2649 181.909C96.2649 182.159 96.1702 182.373 95.9808 182.551C95.7952 182.729 95.5717 182.818 95.3103 182.818ZM102.045 184.273V185.409H97.5221V184.273H102.045ZM98.8403 182.182H100.181V190.5C100.181 190.879 100.236 191.163 100.346 191.352C100.46 191.538 100.604 191.663 100.778 191.727C100.956 191.788 101.143 191.818 101.34 191.818C101.488 191.818 101.609 191.811 101.704 191.795C101.799 191.777 101.874 191.761 101.931 191.75L102.204 192.955C102.113 192.989 101.986 193.023 101.823 193.057C101.66 193.095 101.454 193.114 101.204 193.114C100.825 193.114 100.454 193.032 100.09 192.869C99.7305 192.706 99.4312 192.458 99.1926 192.125C98.9577 191.792 98.8403 191.371 98.8403 190.864V182.182ZM105.414 187.75V193H104.073V181.364H105.414V185.636H105.528C105.732 185.186 106.039 184.828 106.448 184.562C106.861 184.294 107.411 184.159 108.096 184.159C108.691 184.159 109.212 184.278 109.659 184.517C110.106 184.752 110.452 185.114 110.698 185.602C110.948 186.087 111.073 186.705 111.073 187.455V193H109.732V187.545C109.732 186.852 109.553 186.316 109.193 185.938C108.837 185.555 108.342 185.364 107.71 185.364C107.27 185.364 106.876 185.456 106.528 185.642C106.183 185.828 105.911 186.098 105.71 186.455C105.513 186.811 105.414 187.242 105.414 187.75Z" fill="#0A0B0D"/>
<path d="M146.409 192V180.364H150.477C151.288 180.364 151.956 180.504 152.483 180.784C153.009 181.061 153.402 181.434 153.659 181.903C153.917 182.369 154.045 182.886 154.045 183.455C154.045 183.955 153.956 184.367 153.778 184.693C153.604 185.019 153.373 185.277 153.085 185.466C152.801 185.655 152.492 185.795 152.159 185.886V186C152.515 186.023 152.873 186.148 153.233 186.375C153.593 186.602 153.894 186.928 154.136 187.352C154.379 187.777 154.5 188.295 154.5 188.909C154.5 189.492 154.367 190.017 154.102 190.483C153.837 190.949 153.419 191.318 152.847 191.591C152.275 191.864 151.53 192 150.614 192H146.409ZM147.818 190.75H150.614C151.534 190.75 152.188 190.572 152.574 190.216C152.964 189.856 153.159 189.42 153.159 188.909C153.159 188.515 153.059 188.152 152.858 187.818C152.657 187.481 152.371 187.212 152 187.011C151.629 186.807 151.189 186.705 150.682 186.705H147.818V190.75ZM147.818 185.477H150.432C150.856 185.477 151.239 185.394 151.58 185.227C151.924 185.061 152.197 184.826 152.398 184.523C152.602 184.22 152.705 183.864 152.705 183.455C152.705 182.943 152.527 182.509 152.17 182.153C151.814 181.794 151.25 181.614 150.477 181.614H147.818V185.477ZM156.458 192V183.273H157.798V192H156.458ZM157.139 181.818C156.878 181.818 156.653 181.729 156.463 181.551C156.278 181.373 156.185 181.159 156.185 180.909C156.185 180.659 156.278 180.445 156.463 180.267C156.653 180.089 156.878 180 157.139 180C157.401 180 157.624 180.089 157.81 180.267C157.999 180.445 158.094 180.659 158.094 180.909C158.094 181.159 157.999 181.373 157.81 181.551C157.624 181.729 157.401 181.818 157.139 181.818ZM163.874 183.273V184.409H159.351V183.273H163.874ZM160.669 181.182H162.01V189.5C162.01 189.879 162.065 190.163 162.175 190.352C162.289 190.538 162.433 190.663 162.607 190.727C162.785 190.788 162.972 190.818 163.169 190.818C163.317 190.818 163.438 190.811 163.533 190.795C163.628 190.777 163.703 190.761 163.76 190.75L164.033 191.955C163.942 191.989 163.815 192.023 163.652 192.057C163.489 192.095 163.283 192.114 163.033 192.114C162.654 192.114 162.283 192.032 161.919 191.869C161.559 191.706 161.26 191.458 161.022 191.125C160.787 190.792 160.669 190.371 160.669 189.864V181.182ZM169.167 192.182C168.348 192.182 167.644 191.989 167.053 191.602C166.462 191.216 166.008 190.684 165.689 190.006C165.371 189.328 165.212 188.553 165.212 187.682C165.212 186.795 165.375 186.013 165.701 185.335C166.03 184.653 166.489 184.121 167.076 183.739C167.667 183.352 168.356 183.159 169.144 183.159C169.758 183.159 170.311 183.273 170.803 183.5C171.295 183.727 171.699 184.045 172.013 184.455C172.328 184.864 172.523 185.341 172.598 185.886H171.258C171.155 185.489 170.928 185.136 170.576 184.83C170.227 184.519 169.758 184.364 169.167 184.364C168.644 184.364 168.186 184.5 167.792 184.773C167.401 185.042 167.097 185.422 166.877 185.915C166.661 186.403 166.553 186.977 166.553 187.636C166.553 188.311 166.659 188.898 166.871 189.398C167.087 189.898 167.39 190.286 167.78 190.562C168.174 190.839 168.636 190.977 169.167 190.977C169.515 190.977 169.831 190.917 170.115 190.795C170.4 190.674 170.64 190.5 170.837 190.273C171.034 190.045 171.174 189.773 171.258 189.455H172.598C172.523 189.97 172.335 190.434 172.036 190.847C171.74 191.256 171.348 191.581 170.86 191.824C170.375 192.062 169.811 192.182 169.167 192.182ZM177.928 192.182C177.14 192.182 176.449 191.994 175.854 191.619C175.263 191.244 174.801 190.72 174.468 190.045C174.138 189.371 173.974 188.583 173.974 187.682C173.974 186.773 174.138 185.979 174.468 185.301C174.801 184.623 175.263 184.097 175.854 183.722C176.449 183.347 177.14 183.159 177.928 183.159C178.716 183.159 179.405 183.347 179.996 183.722C180.591 184.097 181.053 184.623 181.383 185.301C181.716 185.979 181.883 186.773 181.883 187.682C181.883 188.583 181.716 189.371 181.383 190.045C181.053 190.72 180.591 191.244 179.996 191.619C179.405 191.994 178.716 192.182 177.928 192.182ZM177.928 190.977C178.527 190.977 179.019 190.824 179.405 190.517C179.792 190.21 180.078 189.807 180.263 189.307C180.449 188.807 180.542 188.265 180.542 187.682C180.542 187.098 180.449 186.555 180.263 186.051C180.078 185.547 179.792 185.14 179.405 184.83C179.019 184.519 178.527 184.364 177.928 184.364C177.33 184.364 176.837 184.519 176.451 184.83C176.064 185.14 175.778 185.547 175.593 186.051C175.407 186.555 175.314 187.098 175.314 187.682C175.314 188.265 175.407 188.807 175.593 189.307C175.778 189.807 176.064 190.21 176.451 190.517C176.837 190.824 177.33 190.977 177.928 190.977ZM183.754 192V183.273H185.094V192H183.754ZM184.435 181.818C184.174 181.818 183.949 181.729 183.759 181.551C183.574 181.373 183.481 181.159 183.481 180.909C183.481 180.659 183.574 180.445 183.759 180.267C183.949 180.089 184.174 180 184.435 180C184.697 180 184.92 180.089 185.106 180.267C185.295 180.445 185.39 180.659 185.39 180.909C185.39 181.159 185.295 181.373 185.106 181.551C184.92 181.729 184.697 181.818 184.435 181.818ZM188.715 186.75V192H187.374V183.273H188.67V184.636H188.783C188.988 184.193 189.299 183.837 189.715 183.568C190.132 183.295 190.67 183.159 191.329 183.159C191.92 183.159 192.437 183.28 192.88 183.523C193.323 183.761 193.668 184.125 193.914 184.614C194.16 185.098 194.283 185.712 194.283 186.455V192H192.943V186.545C192.943 185.86 192.765 185.326 192.408 184.943C192.052 184.557 191.564 184.364 190.943 184.364C190.515 184.364 190.132 184.456 189.795 184.642C189.462 184.828 189.198 185.098 189.005 185.455C188.812 185.811 188.715 186.242 188.715 186.75Z" fill="#0A0B0D"/>
<path d="M502.61 182.05L507.56 187L502.61 191.95L504.03 193.36L510.39 187L504.03 180.64L502.61 182.05Z" fill="#0A0B0D"/>
</g>
<rect x="25.5" y="24.5" width="512" height="194" rx="3.5" stroke="#5B636E" stroke-opacity="0.2"/>
</g>
<g filter="url(#filter1_d)">
<path d="M25 240C25 237.791 26.7909 236 29 236H534C536.209 236 538 237.791 538 240V284C538 286.209 536.209 288 534 288H29C26.7908 288 25 286.209 25 284V240Z" fill="#0052FF"/>
<path d="M260.041 260.254H258.181C258.128 259.949 258.031 259.679 257.888 259.443C257.745 259.205 257.568 259.002 257.356 258.837C257.144 258.671 256.902 258.547 256.63 258.464C256.362 258.378 256.072 258.335 255.76 258.335C255.207 258.335 254.716 258.474 254.289 258.752C253.861 259.027 253.526 259.432 253.284 259.965C253.042 260.496 252.921 261.143 252.921 261.909C252.921 262.688 253.042 263.344 253.284 263.878C253.53 264.408 253.864 264.809 254.289 265.081C254.716 265.349 255.205 265.484 255.755 265.484C256.06 265.484 256.345 265.444 256.61 265.364C256.879 265.281 257.119 265.161 257.331 265.001C257.547 264.842 257.727 264.647 257.873 264.415C258.022 264.183 258.125 263.918 258.181 263.619L260.041 263.629C259.971 264.113 259.82 264.567 259.588 264.991C259.36 265.416 259.06 265.79 258.688 266.115C258.317 266.437 257.883 266.688 257.386 266.871C256.889 267.05 256.337 267.139 255.73 267.139C254.835 267.139 254.037 266.932 253.334 266.518C252.631 266.103 252.078 265.505 251.674 264.723C251.269 263.941 251.067 263.003 251.067 261.909C251.067 260.812 251.271 259.874 251.678 259.095C252.086 258.313 252.641 257.715 253.344 257.3C254.047 256.886 254.842 256.679 255.73 256.679C256.297 256.679 256.824 256.759 257.311 256.918C257.799 257.077 258.233 257.31 258.614 257.619C258.995 257.924 259.308 258.298 259.553 258.742C259.802 259.183 259.964 259.687 260.041 260.254ZM265.065 267.149C264.319 267.149 263.673 266.985 263.126 266.657C262.579 266.329 262.155 265.87 261.854 265.28C261.555 264.69 261.406 264 261.406 263.212C261.406 262.423 261.555 261.732 261.854 261.138C262.155 260.545 262.579 260.085 263.126 259.756C263.673 259.428 264.319 259.264 265.065 259.264C265.811 259.264 266.457 259.428 267.004 259.756C267.551 260.085 267.974 260.545 268.272 261.138C268.573 261.732 268.724 262.423 268.724 263.212C268.724 264 268.573 264.69 268.272 265.28C267.974 265.87 267.551 266.329 267.004 266.657C266.457 266.985 265.811 267.149 265.065 267.149ZM265.075 265.707C265.48 265.707 265.818 265.596 266.089 265.374C266.361 265.149 266.563 264.847 266.696 264.469C266.832 264.092 266.9 263.671 266.9 263.207C266.9 262.739 266.832 262.317 266.696 261.939C266.563 261.558 266.361 261.254 266.089 261.029C265.818 260.804 265.48 260.691 265.075 260.691C264.661 260.691 264.316 260.804 264.041 261.029C263.769 261.254 263.565 261.558 263.43 261.939C263.297 262.317 263.231 262.739 263.231 263.207C263.231 263.671 263.297 264.092 263.43 264.469C263.565 264.847 263.769 265.149 264.041 265.374C264.316 265.596 264.661 265.707 265.075 265.707ZM272.136 262.526V267H270.336V259.364H272.056V260.661H272.145C272.321 260.234 272.601 259.894 272.986 259.642C273.373 259.39 273.852 259.264 274.422 259.264C274.949 259.264 275.409 259.377 275.8 259.602C276.194 259.828 276.499 260.154 276.714 260.582C276.933 261.009 277.041 261.528 277.038 262.138V267H275.238V262.416C275.238 261.906 275.105 261.506 274.84 261.218C274.578 260.93 274.215 260.786 273.751 260.786C273.436 260.786 273.156 260.855 272.911 260.994C272.669 261.13 272.479 261.327 272.339 261.586C272.203 261.844 272.136 262.158 272.136 262.526ZM282.764 259.364V260.756H278.374V259.364H282.764ZM279.458 257.534H281.258V264.703C281.258 264.945 281.294 265.131 281.367 265.26C281.443 265.386 281.543 265.472 281.666 265.518C281.788 265.565 281.924 265.588 282.073 265.588C282.186 265.588 282.289 265.58 282.381 265.563C282.478 265.547 282.551 265.532 282.6 265.518L282.903 266.925C282.807 266.959 282.67 266.995 282.491 267.035C282.315 267.075 282.1 267.098 281.845 267.104C281.394 267.118 280.988 267.05 280.627 266.901C280.265 266.748 279.979 266.513 279.766 266.195C279.558 265.876 279.455 265.479 279.458 265.001V257.534ZM284.353 267V259.364H286.153V267H284.353ZM285.258 258.28C284.97 258.28 284.723 258.185 284.517 257.996C284.315 257.804 284.214 257.574 284.214 257.305C284.214 257.034 284.317 256.803 284.522 256.614C284.728 256.422 284.973 256.326 285.258 256.326C285.543 256.326 285.787 256.422 285.989 256.614C286.195 256.803 286.297 257.034 286.297 257.305C286.297 257.574 286.195 257.804 285.989 257.996C285.787 258.185 285.543 258.28 285.258 258.28ZM289.888 262.526V267H288.088V259.364H289.808V260.661H289.897C290.073 260.234 290.353 259.894 290.738 259.642C291.125 259.39 291.604 259.264 292.174 259.264C292.701 259.264 293.161 259.377 293.552 259.602C293.946 259.828 294.251 260.154 294.466 260.582C294.685 261.009 294.793 261.528 294.79 262.138V267H292.99V262.416C292.99 261.906 292.857 261.506 292.592 261.218C292.33 260.93 291.967 260.786 291.503 260.786C291.188 260.786 290.908 260.855 290.663 260.994C290.421 261.13 290.231 261.327 290.091 261.586C289.955 261.844 289.888 262.158 289.888 262.526ZM301.57 263.788V259.364H303.37V267H301.625V265.643H301.545C301.373 266.07 301.09 266.42 300.695 266.692C300.304 266.964 299.822 267.099 299.249 267.099C298.748 267.099 298.306 266.988 297.921 266.766C297.54 266.541 297.242 266.214 297.026 265.787C296.811 265.356 296.703 264.836 296.703 264.226V259.364H298.503V263.947C298.503 264.431 298.635 264.816 298.901 265.101C299.166 265.386 299.514 265.528 299.945 265.528C300.21 265.528 300.467 265.464 300.715 265.335C300.964 265.205 301.168 265.013 301.327 264.758C301.489 264.499 301.57 264.176 301.57 263.788ZM308.685 267.149C307.92 267.149 307.258 266.99 306.702 266.672C306.148 266.35 305.722 265.896 305.424 265.31C305.126 264.72 304.977 264.025 304.977 263.227C304.977 262.441 305.126 261.752 305.424 261.158C305.726 260.562 306.147 260.098 306.687 259.766C307.227 259.432 307.862 259.264 308.591 259.264C309.062 259.264 309.506 259.34 309.923 259.493C310.344 259.642 310.715 259.874 311.037 260.189C311.362 260.504 311.617 260.905 311.803 261.392C311.988 261.876 312.081 262.453 312.081 263.122V263.674H305.822V262.461H310.356C310.352 262.116 310.278 261.81 310.132 261.541C309.986 261.269 309.782 261.056 309.521 260.9C309.262 260.744 308.96 260.666 308.616 260.666C308.248 260.666 307.925 260.756 307.646 260.935C307.368 261.11 307.151 261.342 306.995 261.631C306.843 261.916 306.765 262.229 306.761 262.57V263.629C306.761 264.073 306.843 264.455 307.005 264.773C307.167 265.088 307.394 265.33 307.686 265.499C307.978 265.664 308.319 265.747 308.71 265.747C308.972 265.747 309.209 265.711 309.421 265.638C309.633 265.562 309.817 265.451 309.973 265.305C310.129 265.159 310.246 264.978 310.326 264.763L312.006 264.952C311.9 265.396 311.698 265.784 311.4 266.115C311.105 266.443 310.727 266.698 310.266 266.881C309.806 267.06 309.279 267.149 308.685 267.149Z" fill="white"/>
</g>
<defs>
<filter id="filter0_d" x="1" y="8" width="561" height="243" filterUnits="userSpaceOnUse" color-interpolation-filters="sRGB">
<feFlood flood-opacity="0" result="BackgroundImageFix"/>
<feColorMatrix in="SourceAlpha" type="matrix" values="0 0 0 0 0 0 0 0 0 0 0 0 0 0 0 0 0 0 127 0"/>
<feOffset dy="8"/>
<feGaussianBlur stdDeviation="12"/>
<feColorMatrix type="matrix" values="0 0 0 0 0.027451 0 0 0 0 0.0784314 0 0 0 0 0.133333 0 0 0 0.12 0"/>
<feBlend mode="normal" in2="BackgroundImageFix" result="effect1_dropShadow"/>
<feBlend mode="normal" in="SourceGraphic" in2="effect1_dropShadow" result="shape"/>
</filter>
<filter id="filter1_d" x="13" y="232" width="537" height="76" filterUnits="userSpaceOnUse" color-interpolation-filters="sRGB">
<feFlood flood-opacity="0" result="BackgroundImageFix"/>
<feColorMatrix in="SourceAlpha" type="matrix" values="0 0 0 0 0 0 0 0 0 0 0 0 0 0 0 0 0 0 127 0"/>
<feOffset dy="8"/>
<feGaussianBlur stdDeviation="6"/>
<feColorMatrix type="matrix" values="0 0 0 0 0.027451 0 0 0 0 0.0784314 0 0 0 0 0.133333 0 0 0 0.02 0"/>
<feBlend mode="normal" in2="BackgroundImageFix" result="effect1_dropShadow"/>
<feBlend mode="normal" in="SourceGraphic" in2="effect1_dropShadow" result="shape"/>
</filter>
<clipPath id="clip0">
<rect x="25" y="24" width="513" height="195" rx="4" fill="white"/>
</clipPath>
</defs>
</svg>
