<svg width="1024" height="397" viewBox="0 0 1024 397" fill="none" xmlns="http://www.w3.org/2000/svg">
<g clip-path="url(#clip0)">
<g filter="url(#filter0_ddd)">
<path d="M392 43C392 37.4772 396.477 33 402 33H622C627.523 33 632 37.4772 632 43V397H392V43Z" fill="#141519"/>
<path d="M632 397.5H632.5V397V43C632.5 37.201 627.799 32.5 622 32.5H402C396.201 32.5 391.5 37.201 391.5 43V397V397.5H392H632Z" stroke="#8A919E" stroke-opacity="0.2"/>
</g>
<path d="M429.056 85.9992C424.632 85.9992 421.049 82.4296 421.039 78.01C421.039 73.5904 424.612 70.0108 429.036 70.0008C433.069 70.0008 436.482 73.0005 436.983 77.0001H444.99C444.45 68.181 436.843 61.4816 428.015 62.0316C419.187 62.5815 412.481 70.1808 413.032 78.9999C413.582 87.819 421.189 94.5184 430.017 93.9684C438.074 93.4685 444.49 87.0491 445 78.9999H436.993C436.492 82.9995 433.089 85.9992 429.056 85.9992Z" fill="white"/>
<path fill-rule="evenodd" clip-rule="evenodd" d="M428 132.049C422.947 132.551 419 136.815 419 142C419 147.523 423.477 152 429 152C434.185 152 438.449 148.053 438.951 143H429.5V143L429 143L428 143V132.049ZM438.951 141H430V132.049C434.724 132.518 438.482 136.276 438.951 141Z" fill="#588AF5"/>
<path d="M454.148 148V136.364H458.511C459.405 136.364 460.155 136.53 460.761 136.864C461.371 137.197 461.831 137.655 462.142 138.239C462.456 138.818 462.614 139.477 462.614 140.216C462.614 140.962 462.456 141.625 462.142 142.205C461.828 142.784 461.364 143.241 460.75 143.574C460.136 143.903 459.381 144.068 458.483 144.068H455.591V142.335H458.199C458.722 142.335 459.15 142.244 459.483 142.062C459.816 141.881 460.063 141.631 460.222 141.312C460.384 140.994 460.466 140.629 460.466 140.216C460.466 139.803 460.384 139.439 460.222 139.125C460.063 138.811 459.814 138.566 459.477 138.392C459.144 138.214 458.714 138.125 458.188 138.125H456.256V148H454.148ZM467.86 148.17C467.007 148.17 466.269 147.983 465.644 147.608C465.019 147.233 464.534 146.708 464.189 146.034C463.848 145.36 463.678 144.572 463.678 143.67C463.678 142.769 463.848 141.979 464.189 141.301C464.534 140.623 465.019 140.097 465.644 139.722C466.269 139.347 467.007 139.159 467.86 139.159C468.712 139.159 469.45 139.347 470.075 139.722C470.7 140.097 471.183 140.623 471.524 141.301C471.869 141.979 472.041 142.769 472.041 143.67C472.041 144.572 471.869 145.36 471.524 146.034C471.183 146.708 470.7 147.233 470.075 147.608C469.45 147.983 468.712 148.17 467.86 148.17ZM467.871 146.523C468.333 146.523 468.719 146.396 469.03 146.142C469.341 145.884 469.572 145.54 469.723 145.108C469.878 144.676 469.956 144.195 469.956 143.665C469.956 143.131 469.878 142.648 469.723 142.216C469.572 141.78 469.341 141.434 469.03 141.176C468.719 140.919 468.333 140.79 467.871 140.79C467.397 140.79 467.003 140.919 466.689 141.176C466.378 141.434 466.145 141.78 465.99 142.216C465.839 142.648 465.763 143.131 465.763 143.665C465.763 144.195 465.839 144.676 465.99 145.108C466.145 145.54 466.378 145.884 466.689 146.142C467.003 146.396 467.397 146.523 467.871 146.523ZM473.611 148V139.273H475.605V140.727H475.696C475.855 140.223 476.128 139.835 476.514 139.562C476.905 139.286 477.35 139.148 477.85 139.148C477.963 139.148 478.09 139.153 478.23 139.165C478.374 139.172 478.494 139.186 478.588 139.205V141.097C478.501 141.066 478.363 141.04 478.174 141.017C477.988 140.991 477.808 140.977 477.634 140.977C477.259 140.977 476.922 141.059 476.622 141.222C476.327 141.381 476.094 141.602 475.924 141.886C475.753 142.17 475.668 142.498 475.668 142.869V148H473.611ZM484.606 139.273V140.864H479.588V139.273H484.606ZM480.827 137.182H482.884V145.375C482.884 145.652 482.926 145.864 483.009 146.011C483.096 146.155 483.21 146.254 483.35 146.307C483.49 146.36 483.645 146.386 483.816 146.386C483.945 146.386 484.062 146.377 484.168 146.358C484.278 146.339 484.361 146.322 484.418 146.307L484.765 147.915C484.655 147.953 484.498 147.994 484.293 148.04C484.092 148.085 483.846 148.112 483.554 148.119C483.039 148.134 482.575 148.057 482.162 147.886C481.749 147.712 481.422 147.443 481.179 147.08C480.941 146.716 480.823 146.261 480.827 145.716V137.182ZM490.57 139.273V140.864H485.411V139.273H490.57ZM486.701 148V138.449C486.701 137.862 486.822 137.373 487.064 136.983C487.311 136.593 487.64 136.301 488.053 136.108C488.466 135.915 488.924 135.818 489.428 135.818C489.784 135.818 490.1 135.847 490.377 135.903C490.653 135.96 490.858 136.011 490.991 136.057L490.582 137.648C490.494 137.621 490.385 137.595 490.252 137.568C490.119 137.538 489.972 137.523 489.809 137.523C489.426 137.523 489.155 137.616 488.996 137.801C488.841 137.983 488.763 138.244 488.763 138.585V148H486.701ZM495.484 148.17C494.631 148.17 493.893 147.983 493.268 147.608C492.643 147.233 492.158 146.708 491.813 146.034C491.472 145.36 491.302 144.572 491.302 143.67C491.302 142.769 491.472 141.979 491.813 141.301C492.158 140.623 492.643 140.097 493.268 139.722C493.893 139.347 494.631 139.159 495.484 139.159C496.336 139.159 497.075 139.347 497.7 139.722C498.325 140.097 498.807 140.623 499.148 141.301C499.493 141.979 499.665 142.769 499.665 143.67C499.665 144.572 499.493 145.36 499.148 146.034C498.807 146.708 498.325 147.233 497.7 147.608C497.075 147.983 496.336 148.17 495.484 148.17ZM495.495 146.523C495.957 146.523 496.343 146.396 496.654 146.142C496.965 145.884 497.196 145.54 497.347 145.108C497.503 144.676 497.58 144.195 497.58 143.665C497.58 143.131 497.503 142.648 497.347 142.216C497.196 141.78 496.965 141.434 496.654 141.176C496.343 140.919 495.957 140.79 495.495 140.79C495.022 140.79 494.628 140.919 494.313 141.176C494.003 141.434 493.77 141.78 493.614 142.216C493.463 142.648 493.387 143.131 493.387 143.665C493.387 144.195 493.463 144.676 493.614 145.108C493.77 145.54 494.003 145.884 494.313 146.142C494.628 146.396 495.022 146.523 495.495 146.523ZM503.292 136.364V148H501.235V136.364H503.292ZM505.231 148V139.273H507.288V148H505.231ZM506.265 138.034C505.936 138.034 505.653 137.926 505.419 137.71C505.188 137.491 505.072 137.227 505.072 136.92C505.072 136.61 505.189 136.347 505.424 136.131C505.659 135.911 505.939 135.801 506.265 135.801C506.591 135.801 506.869 135.911 507.1 136.131C507.335 136.347 507.453 136.61 507.453 136.92C507.453 137.227 507.335 137.491 507.1 137.71C506.869 137.926 506.591 138.034 506.265 138.034ZM513.034 148.17C512.181 148.17 511.443 147.983 510.818 147.608C510.193 147.233 509.708 146.708 509.363 146.034C509.022 145.36 508.852 144.572 508.852 143.67C508.852 142.769 509.022 141.979 509.363 141.301C509.708 140.623 510.193 140.097 510.818 139.722C511.443 139.347 512.181 139.159 513.034 139.159C513.886 139.159 514.625 139.347 515.25 139.722C515.875 140.097 516.358 140.623 516.699 141.301C517.043 141.979 517.216 142.769 517.216 143.67C517.216 144.572 517.043 145.36 516.699 146.034C516.358 146.708 515.875 147.233 515.25 147.608C514.625 147.983 513.886 148.17 513.034 148.17ZM513.045 146.523C513.507 146.523 513.894 146.396 514.204 146.142C514.515 145.884 514.746 145.54 514.897 145.108C515.053 144.676 515.13 144.195 515.13 143.665C515.13 143.131 515.053 142.648 514.897 142.216C514.746 141.78 514.515 141.434 514.204 141.176C513.894 140.919 513.507 140.79 513.045 140.79C512.572 140.79 512.178 140.919 511.863 141.176C511.553 141.434 511.32 141.78 511.164 142.216C511.013 142.648 510.937 143.131 510.937 143.665C510.937 144.195 511.013 144.676 511.164 145.108C511.32 145.54 511.553 145.884 511.863 146.142C512.178 146.396 512.572 146.523 513.045 146.523Z" fill="#588AF5"/>
<path d="M421.5 193.5L426.2 186.5L429.75 191.5L435 184" stroke="white" stroke-width="2" stroke-linecap="square" stroke-linejoin="bevel"/>
<path d="M437.11 187.419L436.208 182.303L431.092 183.205" stroke="white" stroke-width="2"/>
<rect x="420" y="197" width="18" height="2" fill="white"/>
<path d="M453.636 186.131V184.364H462.92V186.131H459.324V196H457.233V186.131H453.636ZM463.537 196V187.273H465.531V188.727H465.622C465.781 188.223 466.054 187.835 466.44 187.562C466.831 187.286 467.276 187.148 467.776 187.148C467.889 187.148 468.016 187.153 468.156 187.165C468.3 187.172 468.42 187.186 468.514 187.205V189.097C468.427 189.066 468.289 189.04 468.1 189.017C467.914 188.991 467.734 188.977 467.56 188.977C467.185 188.977 466.848 189.059 466.548 189.222C466.253 189.381 466.02 189.602 465.85 189.886C465.679 190.17 465.594 190.498 465.594 190.869V196H463.537ZM472.044 196.176C471.491 196.176 470.993 196.078 470.55 195.881C470.111 195.68 469.762 195.384 469.505 194.994C469.251 194.604 469.124 194.123 469.124 193.551C469.124 193.059 469.215 192.652 469.397 192.33C469.578 192.008 469.827 191.75 470.141 191.557C470.455 191.364 470.809 191.218 471.203 191.119C471.601 191.017 472.012 190.943 472.436 190.898C472.948 190.845 473.362 190.797 473.681 190.756C473.999 190.71 474.23 190.642 474.374 190.551C474.522 190.456 474.595 190.311 474.595 190.114V190.08C474.595 189.652 474.469 189.32 474.215 189.085C473.961 188.85 473.595 188.733 473.118 188.733C472.614 188.733 472.215 188.843 471.919 189.062C471.628 189.282 471.431 189.542 471.328 189.841L469.408 189.568C469.559 189.038 469.809 188.595 470.158 188.239C470.506 187.879 470.933 187.61 471.436 187.432C471.94 187.25 472.497 187.159 473.107 187.159C473.527 187.159 473.946 187.208 474.362 187.307C474.779 187.405 475.16 187.568 475.505 187.795C475.849 188.019 476.126 188.324 476.334 188.71C476.546 189.097 476.652 189.58 476.652 190.159V196H474.675V194.801H474.607C474.482 195.044 474.306 195.271 474.078 195.483C473.855 195.691 473.573 195.86 473.232 195.989C472.895 196.114 472.499 196.176 472.044 196.176ZM472.578 194.665C472.991 194.665 473.349 194.583 473.652 194.42C473.955 194.254 474.188 194.034 474.351 193.761C474.518 193.489 474.601 193.191 474.601 192.869V191.841C474.537 191.894 474.427 191.943 474.272 191.989C474.12 192.034 473.95 192.074 473.76 192.108C473.571 192.142 473.383 192.172 473.198 192.199C473.012 192.225 472.851 192.248 472.715 192.267C472.408 192.309 472.133 192.377 471.891 192.472C471.648 192.566 471.457 192.699 471.317 192.869C471.177 193.036 471.107 193.252 471.107 193.517C471.107 193.896 471.245 194.182 471.522 194.375C471.798 194.568 472.15 194.665 472.578 194.665ZM481.783 196.153C481.097 196.153 480.484 195.977 479.942 195.625C479.401 195.273 478.972 194.761 478.658 194.091C478.344 193.42 478.186 192.606 478.186 191.648C478.186 190.678 478.346 189.86 478.664 189.193C478.986 188.523 479.419 188.017 479.965 187.676C480.51 187.331 481.118 187.159 481.789 187.159C482.3 187.159 482.721 187.246 483.05 187.42C483.38 187.591 483.641 187.797 483.834 188.04C484.027 188.278 484.177 188.504 484.283 188.716H484.368V184.364H486.431V196H484.408V194.625H484.283C484.177 194.837 484.024 195.062 483.823 195.301C483.622 195.536 483.357 195.737 483.027 195.903C482.698 196.07 482.283 196.153 481.783 196.153ZM482.357 194.466C482.793 194.466 483.164 194.348 483.471 194.114C483.777 193.875 484.01 193.544 484.169 193.119C484.329 192.695 484.408 192.201 484.408 191.636C484.408 191.072 484.329 190.581 484.169 190.165C484.014 189.748 483.783 189.424 483.476 189.193C483.173 188.962 482.8 188.847 482.357 188.847C481.899 188.847 481.516 188.966 481.209 189.205C480.902 189.443 480.671 189.773 480.516 190.193C480.361 190.614 480.283 191.095 480.283 191.636C480.283 192.182 480.361 192.669 480.516 193.097C480.675 193.521 480.908 193.856 481.215 194.102C481.526 194.345 481.906 194.466 482.357 194.466ZM492.31 196.17C491.435 196.17 490.68 195.989 490.043 195.625C489.411 195.258 488.924 194.739 488.583 194.068C488.242 193.394 488.072 192.6 488.072 191.688C488.072 190.79 488.242 190.002 488.583 189.324C488.928 188.642 489.409 188.112 490.026 187.733C490.644 187.35 491.369 187.159 492.202 187.159C492.74 187.159 493.248 187.246 493.725 187.42C494.206 187.591 494.63 187.856 494.998 188.216C495.369 188.576 495.661 189.034 495.873 189.591C496.085 190.144 496.191 190.803 496.191 191.568V192.199H489.037V190.812H494.219C494.216 190.419 494.13 190.068 493.964 189.761C493.797 189.451 493.564 189.206 493.265 189.028C492.969 188.85 492.625 188.761 492.231 188.761C491.81 188.761 491.441 188.864 491.123 189.068C490.805 189.269 490.556 189.534 490.378 189.864C490.204 190.189 490.115 190.547 490.111 190.938V192.148C490.111 192.655 490.204 193.091 490.39 193.455C490.575 193.814 490.835 194.091 491.168 194.284C491.501 194.473 491.892 194.568 492.339 194.568C492.638 194.568 492.909 194.527 493.151 194.443C493.394 194.356 493.604 194.229 493.782 194.062C493.96 193.896 494.094 193.689 494.185 193.443L496.106 193.659C495.984 194.167 495.753 194.61 495.412 194.989C495.075 195.364 494.644 195.655 494.117 195.864C493.591 196.068 492.988 196.17 492.31 196.17Z" fill="white"/>
<circle cx="426.25" cy="238" r="7.25" stroke="white" stroke-width="2"/>
<path fill-rule="evenodd" clip-rule="evenodd" d="M434.5 245.78C437.704 244.648 440 241.592 440 238C440 234.408 437.704 231.352 434.5 230.219V232.386C436.573 233.403 438 235.535 438 238C438 240.465 436.573 242.596 434.5 243.614V245.78Z" fill="white"/>
<path d="M454.148 244V232.364H458.511C459.405 232.364 460.155 232.53 460.761 232.864C461.371 233.197 461.831 233.655 462.142 234.239C462.456 234.818 462.614 235.477 462.614 236.216C462.614 236.962 462.456 237.625 462.142 238.205C461.828 238.784 461.364 239.241 460.75 239.574C460.136 239.903 459.381 240.068 458.483 240.068H455.591V238.335H458.199C458.722 238.335 459.15 238.244 459.483 238.062C459.816 237.881 460.063 237.631 460.222 237.312C460.384 236.994 460.466 236.629 460.466 236.216C460.466 235.803 460.384 235.439 460.222 235.125C460.063 234.811 459.814 234.566 459.477 234.392C459.144 234.214 458.714 234.125 458.188 234.125H456.256V244H454.148ZM466.533 244.176C465.98 244.176 465.482 244.078 465.038 243.881C464.599 243.68 464.251 243.384 463.993 242.994C463.739 242.604 463.612 242.123 463.612 241.551C463.612 241.059 463.703 240.652 463.885 240.33C464.067 240.008 464.315 239.75 464.629 239.557C464.944 239.364 465.298 239.218 465.692 239.119C466.09 239.017 466.501 238.943 466.925 238.898C467.436 238.845 467.851 238.797 468.169 238.756C468.487 238.71 468.718 238.642 468.862 238.551C469.01 238.456 469.084 238.311 469.084 238.114V238.08C469.084 237.652 468.957 237.32 468.703 237.085C468.449 236.85 468.084 236.733 467.607 236.733C467.103 236.733 466.703 236.843 466.408 237.062C466.116 237.282 465.919 237.542 465.817 237.841L463.896 237.568C464.048 237.038 464.298 236.595 464.646 236.239C464.995 235.879 465.421 235.61 465.925 235.432C466.429 235.25 466.985 235.159 467.595 235.159C468.016 235.159 468.434 235.208 468.851 235.307C469.268 235.405 469.648 235.568 469.993 235.795C470.338 236.019 470.614 236.324 470.823 236.71C471.035 237.097 471.141 237.58 471.141 238.159V244H469.163V242.801H469.095C468.97 243.044 468.794 243.271 468.567 243.483C468.343 243.691 468.061 243.86 467.72 243.989C467.383 244.114 466.987 244.176 466.533 244.176ZM467.067 242.665C467.48 242.665 467.838 242.583 468.141 242.42C468.444 242.254 468.677 242.034 468.84 241.761C469.006 241.489 469.09 241.191 469.09 240.869V239.841C469.025 239.894 468.915 239.943 468.76 239.989C468.609 240.034 468.438 240.074 468.249 240.108C468.059 240.142 467.872 240.172 467.686 240.199C467.501 240.225 467.34 240.248 467.203 240.267C466.896 240.309 466.622 240.377 466.379 240.472C466.137 240.566 465.946 240.699 465.806 240.869C465.665 241.036 465.595 241.252 465.595 241.517C465.595 241.896 465.734 242.182 466.01 242.375C466.287 242.568 466.639 242.665 467.067 242.665ZM473.999 247.256C473.719 247.256 473.459 247.233 473.22 247.188C472.986 247.146 472.798 247.095 472.658 247.034L473.135 245.438C473.582 245.566 473.957 245.587 474.26 245.5C474.567 245.417 474.819 245.134 475.016 244.653L475.192 244.182L472.027 235.273H474.209L476.22 241.864H476.311L478.328 235.273L480.527 235.284L477.022 245.057C476.859 245.511 476.643 245.903 476.374 246.233C476.105 246.562 475.775 246.814 475.385 246.989C474.999 247.167 474.537 247.256 473.999 247.256Z" fill="white"/>
<rect x="431" y="278" width="6" height="16" stroke="white" stroke-width="2"/>
<rect x="421" y="278" width="6" height="5" stroke="white" stroke-width="2"/>
<rect x="421" y="287" width="6" height="7" stroke="white" stroke-width="2"/>
<path d="M454.148 292V280.364H461.602V282.131H456.256V285.29H461.091V287.057H456.256V292H454.148ZM466.422 292.17C465.57 292.17 464.831 291.983 464.206 291.608C463.581 291.233 463.096 290.708 462.752 290.034C462.411 289.36 462.24 288.572 462.24 287.67C462.24 286.769 462.411 285.979 462.752 285.301C463.096 284.623 463.581 284.097 464.206 283.722C464.831 283.347 465.57 283.159 466.422 283.159C467.274 283.159 468.013 283.347 468.638 283.722C469.263 284.097 469.746 284.623 470.087 285.301C470.431 285.979 470.604 286.769 470.604 287.67C470.604 288.572 470.431 289.36 470.087 290.034C469.746 290.708 469.263 291.233 468.638 291.608C468.013 291.983 467.274 292.17 466.422 292.17ZM466.433 290.523C466.895 290.523 467.282 290.396 467.592 290.142C467.903 289.884 468.134 289.54 468.286 289.108C468.441 288.676 468.519 288.195 468.519 287.665C468.519 287.131 468.441 286.648 468.286 286.216C468.134 285.78 467.903 285.434 467.592 285.176C467.282 284.919 466.895 284.79 466.433 284.79C465.96 284.79 465.566 284.919 465.252 285.176C464.941 285.434 464.708 285.78 464.553 286.216C464.401 286.648 464.325 287.131 464.325 287.665C464.325 288.195 464.401 288.676 464.553 289.108C464.708 289.54 464.941 289.884 465.252 290.142C465.566 290.396 465.96 290.523 466.433 290.523ZM472.174 292V283.273H474.168V284.727H474.259C474.418 284.223 474.691 283.835 475.077 283.562C475.467 283.286 475.912 283.148 476.412 283.148C476.526 283.148 476.653 283.153 476.793 283.165C476.937 283.172 477.056 283.186 477.151 283.205V285.097C477.064 285.066 476.925 285.04 476.736 285.017C476.55 284.991 476.371 284.977 476.196 284.977C475.821 284.977 475.484 285.059 475.185 285.222C474.889 285.381 474.657 285.602 474.486 285.886C474.316 286.17 474.23 286.498 474.23 286.869V292H472.174ZM481.43 280.364H483.81L486.657 285.511H486.77L489.617 280.364H491.998L487.765 287.659V292H485.662V287.659L481.43 280.364ZM495.406 292.17C494.553 292.17 493.815 291.983 493.19 291.608C492.565 291.233 492.08 290.708 491.735 290.034C491.394 289.36 491.224 288.572 491.224 287.67C491.224 286.769 491.394 285.979 491.735 285.301C492.08 284.623 492.565 284.097 493.19 283.722C493.815 283.347 494.553 283.159 495.406 283.159C496.258 283.159 496.996 283.347 497.621 283.722C498.246 284.097 498.729 284.623 499.07 285.301C499.415 285.979 499.587 286.769 499.587 287.67C499.587 288.572 499.415 289.36 499.07 290.034C498.729 290.708 498.246 291.233 497.621 291.608C496.996 291.983 496.258 292.17 495.406 292.17ZM495.417 290.523C495.879 290.523 496.265 290.396 496.576 290.142C496.887 289.884 497.118 289.54 497.269 289.108C497.424 288.676 497.502 288.195 497.502 287.665C497.502 287.131 497.424 286.648 497.269 286.216C497.118 285.78 496.887 285.434 496.576 285.176C496.265 284.919 495.879 284.79 495.417 284.79C494.943 284.79 494.549 284.919 494.235 285.176C493.924 285.434 493.691 285.78 493.536 286.216C493.385 286.648 493.309 287.131 493.309 287.665C493.309 288.195 493.385 288.676 493.536 289.108C493.691 289.54 493.924 289.884 494.235 290.142C494.549 290.396 494.943 290.523 495.417 290.523ZM506.72 288.33V283.273H508.776V292H506.782V290.449H506.691C506.494 290.937 506.17 291.337 505.72 291.648C505.273 291.958 504.721 292.114 504.066 292.114C503.494 292.114 502.989 291.987 502.549 291.733C502.114 291.475 501.773 291.102 501.526 290.614C501.28 290.121 501.157 289.527 501.157 288.83V283.273H503.214V288.511C503.214 289.064 503.365 289.504 503.668 289.83C503.971 290.155 504.369 290.318 504.862 290.318C505.165 290.318 505.458 290.244 505.742 290.097C506.026 289.949 506.259 289.729 506.441 289.438C506.627 289.142 506.72 288.773 506.72 288.33Z" fill="white"/>
<path d="M434 334V334.236L434.106 334.447L436 338.236V339H422V338.236L423.894 334.447L424 334.236V334V331C424 328.239 426.239 326 429 326C431.761 326 434 328.239 434 331V334Z" stroke="white" stroke-width="2"/>
<rect x="426" y="341" width="6" height="2" fill="white"/>
<path d="M463.71 328.364V340H461.835L456.352 332.074H456.256V340H454.148V328.364H456.034L461.511 336.295H461.614V328.364H463.71ZM469.547 340.17C468.695 340.17 467.956 339.983 467.331 339.608C466.706 339.233 466.221 338.708 465.877 338.034C465.536 337.36 465.365 336.572 465.365 335.67C465.365 334.769 465.536 333.979 465.877 333.301C466.221 332.623 466.706 332.097 467.331 331.722C467.956 331.347 468.695 331.159 469.547 331.159C470.399 331.159 471.138 331.347 471.763 331.722C472.388 332.097 472.871 332.623 473.212 333.301C473.556 333.979 473.729 334.769 473.729 335.67C473.729 336.572 473.556 337.36 473.212 338.034C472.871 338.708 472.388 339.233 471.763 339.608C471.138 339.983 470.399 340.17 469.547 340.17ZM469.558 338.523C470.02 338.523 470.407 338.396 470.717 338.142C471.028 337.884 471.259 337.54 471.411 337.108C471.566 336.676 471.644 336.195 471.644 335.665C471.644 335.131 471.566 334.648 471.411 334.216C471.259 333.78 471.028 333.434 470.717 333.176C470.407 332.919 470.02 332.79 469.558 332.79C469.085 332.79 468.691 332.919 468.377 333.176C468.066 333.434 467.833 333.78 467.678 334.216C467.526 334.648 467.45 335.131 467.45 335.665C467.45 336.195 467.526 336.676 467.678 337.108C467.833 337.54 468.066 337.884 468.377 338.142C468.691 338.396 469.085 338.523 469.558 338.523ZM479.657 331.273V332.864H474.639V331.273H479.657ZM475.878 329.182H477.935V337.375C477.935 337.652 477.977 337.864 478.06 338.011C478.147 338.155 478.261 338.254 478.401 338.307C478.541 338.36 478.696 338.386 478.867 338.386C478.996 338.386 479.113 338.377 479.219 338.358C479.329 338.339 479.412 338.322 479.469 338.307L479.816 339.915C479.706 339.953 479.549 339.994 479.344 340.04C479.143 340.085 478.897 340.112 478.605 340.119C478.09 340.134 477.626 340.057 477.213 339.886C476.8 339.712 476.473 339.443 476.23 339.08C475.992 338.716 475.874 338.261 475.878 337.716V329.182ZM481.201 340V331.273H483.258V340H481.201ZM482.235 330.034C481.905 330.034 481.623 329.926 481.388 329.71C481.157 329.491 481.042 329.227 481.042 328.92C481.042 328.61 481.159 328.347 481.394 328.131C481.629 327.911 481.909 327.801 482.235 327.801C482.561 327.801 482.839 327.911 483.07 328.131C483.305 328.347 483.422 328.61 483.422 328.92C483.422 329.227 483.305 329.491 483.07 329.71C482.839 329.926 482.561 330.034 482.235 330.034ZM489.617 331.273V332.864H484.458V331.273H489.617ZM485.748 340V330.449C485.748 329.862 485.869 329.373 486.111 328.983C486.358 328.593 486.687 328.301 487.1 328.108C487.513 327.915 487.971 327.818 488.475 327.818C488.831 327.818 489.147 327.847 489.424 327.903C489.7 327.96 489.905 328.011 490.037 328.057L489.628 329.648C489.541 329.621 489.431 329.595 489.299 329.568C489.166 329.538 489.019 329.523 488.856 329.523C488.473 329.523 488.202 329.616 488.043 329.801C487.888 329.983 487.81 330.244 487.81 330.585V340H485.748ZM491.052 340V331.273H493.109V340H491.052ZM492.086 330.034C491.756 330.034 491.474 329.926 491.239 329.71C491.008 329.491 490.893 329.227 490.893 328.92C490.893 328.61 491.01 328.347 491.245 328.131C491.48 327.911 491.76 327.801 492.086 327.801C492.412 327.801 492.69 327.911 492.921 328.131C493.156 328.347 493.273 328.61 493.273 328.92C493.273 329.227 493.156 329.491 492.921 329.71C492.69 329.926 492.412 330.034 492.086 330.034ZM498.855 340.17C497.983 340.17 497.235 339.979 496.61 339.597C495.989 339.214 495.51 338.686 495.173 338.011C494.839 337.333 494.673 336.553 494.673 335.67C494.673 334.784 494.843 334.002 495.184 333.324C495.525 332.642 496.006 332.112 496.627 331.733C497.252 331.35 497.991 331.159 498.843 331.159C499.551 331.159 500.178 331.29 500.724 331.551C501.273 331.809 501.711 332.174 502.036 332.648C502.362 333.117 502.548 333.667 502.593 334.295H500.627C500.548 333.875 500.358 333.525 500.059 333.244C499.764 332.96 499.368 332.818 498.872 332.818C498.451 332.818 498.082 332.932 497.764 333.159C497.445 333.383 497.197 333.705 497.019 334.125C496.845 334.545 496.758 335.049 496.758 335.636C496.758 336.231 496.845 336.742 497.019 337.17C497.194 337.595 497.438 337.922 497.752 338.153C498.07 338.381 498.444 338.494 498.872 338.494C499.175 338.494 499.445 338.437 499.684 338.324C499.926 338.206 500.129 338.038 500.292 337.818C500.455 337.598 500.567 337.331 500.627 337.017H502.593C502.544 337.634 502.362 338.182 502.048 338.659C501.733 339.133 501.305 339.504 500.764 339.773C500.222 340.038 499.586 340.17 498.855 340.17ZM506.617 340.176C506.064 340.176 505.566 340.078 505.123 339.881C504.684 339.68 504.335 339.384 504.078 338.994C503.824 338.604 503.697 338.123 503.697 337.551C503.697 337.059 503.788 336.652 503.97 336.33C504.152 336.008 504.4 335.75 504.714 335.557C505.028 335.364 505.383 335.218 505.777 335.119C506.174 335.017 506.585 334.943 507.009 334.898C507.521 334.845 507.936 334.797 508.254 334.756C508.572 334.71 508.803 334.642 508.947 334.551C509.095 334.456 509.169 334.311 509.169 334.114V334.08C509.169 333.652 509.042 333.32 508.788 333.085C508.534 332.85 508.169 332.733 507.691 332.733C507.188 332.733 506.788 332.843 506.492 333.062C506.201 333.282 506.004 333.542 505.902 333.841L503.981 333.568C504.133 333.038 504.383 332.595 504.731 332.239C505.08 331.879 505.506 331.61 506.009 331.432C506.513 331.25 507.07 331.159 507.68 331.159C508.1 331.159 508.519 331.208 508.936 331.307C509.352 331.405 509.733 331.568 510.078 331.795C510.422 332.019 510.699 332.324 510.907 332.71C511.119 333.097 511.225 333.58 511.225 334.159V340H509.248V338.801H509.18C509.055 339.044 508.879 339.271 508.652 339.483C508.428 339.691 508.146 339.86 507.805 339.989C507.468 340.114 507.072 340.176 506.617 340.176ZM507.152 338.665C507.564 338.665 507.922 338.583 508.225 338.42C508.528 338.254 508.761 338.034 508.924 337.761C509.091 337.489 509.174 337.191 509.174 336.869V335.841C509.11 335.894 509 335.943 508.845 335.989C508.693 336.034 508.523 336.074 508.333 336.108C508.144 336.142 507.956 336.172 507.771 336.199C507.585 336.225 507.424 336.248 507.288 336.267C506.981 336.309 506.706 336.377 506.464 336.472C506.222 336.566 506.03 336.699 505.89 336.869C505.75 337.036 505.68 337.252 505.68 337.517C505.68 337.896 505.818 338.182 506.095 338.375C506.371 338.568 506.723 338.665 507.152 338.665ZM517.476 331.273V332.864H512.458V331.273H517.476ZM513.697 329.182H515.754V337.375C515.754 337.652 515.796 337.864 515.879 338.011C515.966 338.155 516.08 338.254 516.22 338.307C516.36 338.36 516.515 338.386 516.686 338.386C516.815 338.386 516.932 338.377 517.038 338.358C517.148 338.339 517.231 338.322 517.288 338.307L517.635 339.915C517.525 339.953 517.368 339.994 517.163 340.04C516.962 340.085 516.716 340.112 516.424 340.119C515.909 340.134 515.445 340.057 515.032 339.886C514.619 339.712 514.292 339.443 514.049 339.08C513.811 338.716 513.693 338.261 513.697 337.716V329.182ZM519.02 340V331.273H521.077V340H519.02ZM520.054 330.034C519.724 330.034 519.442 329.926 519.207 329.71C518.976 329.491 518.861 329.227 518.861 328.92C518.861 328.61 518.978 328.347 519.213 328.131C519.448 327.911 519.728 327.801 520.054 327.801C520.38 327.801 520.658 327.911 520.889 328.131C521.124 328.347 521.241 328.61 521.241 328.92C521.241 329.227 521.124 329.491 520.889 329.71C520.658 329.926 520.38 330.034 520.054 330.034ZM526.822 340.17C525.97 340.17 525.231 339.983 524.606 339.608C523.981 339.233 523.497 338.708 523.152 338.034C522.811 337.36 522.641 336.572 522.641 335.67C522.641 334.769 522.811 333.979 523.152 333.301C523.497 332.623 523.981 332.097 524.606 331.722C525.231 331.347 525.97 331.159 526.822 331.159C527.675 331.159 528.413 331.347 529.038 331.722C529.663 332.097 530.146 332.623 530.487 333.301C530.832 333.979 531.004 334.769 531.004 335.67C531.004 336.572 530.832 337.36 530.487 338.034C530.146 338.708 529.663 339.233 529.038 339.608C528.413 339.983 527.675 340.17 526.822 340.17ZM526.834 338.523C527.296 338.523 527.682 338.396 527.993 338.142C528.303 337.884 528.535 337.54 528.686 337.108C528.841 336.676 528.919 336.195 528.919 335.665C528.919 335.131 528.841 334.648 528.686 334.216C528.535 333.78 528.303 333.434 527.993 333.176C527.682 332.919 527.296 332.79 526.834 332.79C526.36 332.79 525.966 332.919 525.652 333.176C525.341 333.434 525.108 333.78 524.953 334.216C524.802 334.648 524.726 335.131 524.726 335.665C524.726 336.195 524.802 336.676 524.953 337.108C525.108 337.54 525.341 337.884 525.652 338.142C525.966 338.396 526.36 338.523 526.834 338.523ZM534.631 334.886V340H532.574V331.273H534.54V332.756H534.642C534.843 332.267 535.163 331.879 535.602 331.591C536.046 331.303 536.593 331.159 537.244 331.159C537.847 331.159 538.371 331.288 538.818 331.545C539.269 331.803 539.618 332.176 539.864 332.665C540.114 333.153 540.237 333.746 540.233 334.443V340H538.176V334.761C538.176 334.178 538.025 333.722 537.722 333.392C537.422 333.062 537.008 332.898 536.477 332.898C536.118 332.898 535.797 332.977 535.517 333.136C535.241 333.292 535.023 333.517 534.864 333.812C534.708 334.108 534.631 334.466 534.631 334.886ZM549.046 333.58L547.171 333.784C547.118 333.595 547.025 333.417 546.892 333.25C546.763 333.083 546.589 332.949 546.37 332.847C546.15 332.744 545.881 332.693 545.563 332.693C545.135 332.693 544.775 332.786 544.483 332.972C544.195 333.157 544.053 333.398 544.057 333.693C544.053 333.947 544.146 334.153 544.335 334.312C544.529 334.472 544.847 334.602 545.29 334.705L546.779 335.023C547.604 335.201 548.218 335.483 548.62 335.869C549.025 336.256 549.229 336.761 549.233 337.386C549.229 337.936 549.068 338.42 548.75 338.841C548.436 339.258 547.998 339.583 547.438 339.818C546.877 340.053 546.233 340.17 545.506 340.17C544.438 340.17 543.578 339.947 542.926 339.5C542.275 339.049 541.887 338.422 541.762 337.619L543.767 337.426C543.858 337.82 544.051 338.117 544.347 338.318C544.642 338.519 545.027 338.619 545.5 338.619C545.989 338.619 546.381 338.519 546.676 338.318C546.976 338.117 547.125 337.869 547.125 337.574C547.125 337.324 547.029 337.117 546.835 336.955C546.646 336.792 546.351 336.667 545.949 336.58L544.46 336.267C543.623 336.093 543.004 335.799 542.602 335.386C542.201 334.97 542.002 334.443 542.006 333.807C542.002 333.269 542.148 332.803 542.443 332.409C542.743 332.011 543.157 331.705 543.688 331.489C544.222 331.269 544.837 331.159 545.534 331.159C546.557 331.159 547.362 331.377 547.949 331.812C548.54 332.248 548.906 332.837 549.046 333.58Z" fill="white"/>
</g>
<defs>
<filter id="filter0_ddd" x="373" y="15" width="278" height="402" filterUnits="userSpaceOnUse" color-interpolation-filters="sRGB">
<feFlood flood-opacity="0" result="BackgroundImageFix"/>
<feColorMatrix in="SourceAlpha" type="matrix" values="0 0 0 0 0 0 0 0 0 0 0 0 0 0 0 0 0 0 127 0"/>
<feOffset dy="3"/>
<feGaussianBlur stdDeviation="2.5"/>
<feColorMatrix type="matrix" values="0 0 0 0 0 0 0 0 0 0 0 0 0 0 0 0 0 0 0.2 0"/>
<feBlend mode="normal" in2="BackgroundImageFix" result="effect1_dropShadow"/>
<feColorMatrix in="SourceAlpha" type="matrix" values="0 0 0 0 0 0 0 0 0 0 0 0 0 0 0 0 0 0 127 0"/>
<feOffset dy="1"/>
<feGaussianBlur stdDeviation="9"/>
<feColorMatrix type="matrix" values="0 0 0 0 0 0 0 0 0 0 0 0 0 0 0 0 0 0 0.12 0"/>
<feBlend mode="normal" in2="effect1_dropShadow" result="effect2_dropShadow"/>
<feColorMatrix in="SourceAlpha" type="matrix" values="0 0 0 0 0 0 0 0 0 0 0 0 0 0 0 0 0 0 127 0"/>
<feOffset dy="6"/>
<feGaussianBlur stdDeviation="5"/>
<feColorMatrix type="matrix" values="0 0 0 0 0 0 0 0 0 0 0 0 0 0 0 0 0 0 0.14 0"/>
<feBlend mode="normal" in2="effect2_dropShadow" result="effect3_dropShadow"/>
<feBlend mode="normal" in="SourceGraphic" in2="effect3_dropShadow" result="shape"/>
</filter>
<clipPath id="clip0">
<rect width="1024" height="397" fill="white"/>
</clipPath>
</defs>
</svg>
