<svg width="64" height="64" viewBox="0 0 64 64" fill="none" xmlns="http://www.w3.org/2000/svg">
<path d="M26 52C40.3594 52 52 40.3594 52 26C52 11.6406 40.3594 0 26 0C11.6406 0 0 11.6406 0 26C0 40.3594 11.6406 52 26 52Z" fill="#56B4FC"/>
<path d="M48 64C56.8366 64 64 56.8366 64 48C64 39.1634 56.8366 32 48 32C39.1634 32 32 39.1634 32 48C32 56.8366 39.1634 64 48 64Z" fill="#BFE9FF"/>
<path d="M51.2 32.3C50.2 32.1 49.1 32 48 32C39.2 32 32 39.2 32 48C32 49.1 32.1 50.2 32.3 51.2C41.6 48.9 48.9 41.6 51.2 32.3Z" fill="#1652F0"/>
<path d="M36 28V24L16 24V28L36 28Z" fill="white"/>
<path d="M24 36H28L28 16H24L24 36Z" fill="white"/>
</svg>
