<svg width="524" height="156" viewBox="0 0 524 156" fill="none" xmlns="http://www.w3.org/2000/svg">
<g clip-path="url(#clip0_378_11378)">
<path d="M0 0H524V156H0V0Z" fill="#067044"/>
<path d="M119.002 39.81C119.002 33.5575 124.071 28.4888 130.323 28.4888H417.175C423.427 28.4888 428.496 33.5575 428.496 39.81V57.854C428.496 64.1065 423.427 69.1752 417.175 69.1752H130.323C124.071 69.1752 119.002 64.1065 119.002 57.854V39.81Z" fill="#44C28D"/>
<path d="M136.865 45.8939C136.865 44.1074 138.313 42.6592 140.1 42.6592H373.71C375.497 42.6592 376.945 44.1074 376.945 45.8939V51.746C376.945 53.5324 375.497 54.9806 373.71 54.9806H140.1C138.313 54.9806 136.865 53.5324 136.865 51.746V45.8939Z" fill="white"/>
<path d="M405.877 40.3754V56.3559" stroke="white" stroke-width="2"/>
<path d="M413.867 48.3657L397.887 48.3657" stroke="white" stroke-width="2"/>
<path d="M119.003 98.146C119.003 91.8934 124.072 86.8248 130.324 86.8248H417.176C423.428 86.8248 428.497 91.8934 428.497 98.146V116.19C428.497 122.442 423.428 127.511 417.176 127.511H130.324C124.072 127.511 119.003 122.442 119.003 116.19V98.146Z" fill="#44C28D"/>
<path d="M136.865 104.23C136.865 102.443 138.313 100.995 140.1 100.995H373.71C375.497 100.995 376.945 102.443 376.945 104.23V110.082C376.945 111.868 375.497 113.317 373.71 113.317H140.1C138.313 113.317 136.865 111.868 136.865 110.082V104.23Z" fill="white"/>
<path d="M405.877 98.7123V114.693" stroke="white" stroke-width="2"/>
<path d="M413.867 106.703L397.887 106.703" stroke="white" stroke-width="2"/>
</g>
<defs>
<clipPath id="clip0_378_11378">
<rect width="524" height="156" fill="white"/>
</clipPath>
</defs>
</svg>
