<svg width="524" height="156" viewBox="0 0 524 156" fill="none" xmlns="http://www.w3.org/2000/svg">
<g clip-path="url(#clip0_378_11516)">
<path d="M0 0H524V156H0V0Z" fill="#3CC28A"/>
<path d="M107.286 33.6769C107.286 31.3701 109.156 29.5 111.463 29.5H174.117C176.423 29.5 178.294 31.3701 178.294 33.6769V44.1192C178.294 46.426 176.423 48.2961 174.117 48.2961H111.463C109.156 48.2961 107.286 46.426 107.286 44.1192V33.6769Z" fill="white"/>
<rect x="107.286" y="60.0432" width="309.213" height="67.0337" rx="12.5307" fill="#047043"/>
<path d="M176.834 85.9042L169.134 105.623H167.127L174.827 85.9042H176.834Z" fill="#0A0B0D"/>
<path d="M149.422 85.9043L141.722 105.623H139.715L147.415 85.9043H149.422Z" fill="#0A0B0D"/>
<path fill-rule="evenodd" clip-rule="evenodd" d="M178.298 84.9041L169.817 106.623H165.663L174.144 84.9041H178.298ZM150.886 84.9042L142.405 106.623H138.251L146.732 84.9042H150.886ZM176.834 85.9042H174.827L167.127 105.623H169.134L176.834 85.9042ZM149.422 85.9043H147.415L139.715 105.623H141.722L149.422 85.9043Z" fill="#0A0B0D"/>
<path d="M369.693 86.8272C369.693 84.5204 371.563 82.6503 373.87 82.6503H388.489C390.796 82.6503 392.666 84.5204 392.666 86.8272V101.446C392.666 103.753 390.796 105.623 388.489 105.623H373.87C371.563 105.623 369.693 103.753 369.693 101.446V86.8272Z" fill="white"/>
</g>
<defs>
<clipPath id="clip0_378_11516">
<rect width="524" height="156" fill="white"/>
</clipPath>
</defs>
</svg>
