<svg width="524" height="156" viewBox="0 0 524 156" fill="none" xmlns="http://www.w3.org/2000/svg">
<g clip-path="url(#clip0_378_11306)">
<path d="M0 0H524V156H0V0Z" fill="#141519"/>
<g clip-path="url(#clip1_378_11306)">
<rect x="246" y="68" width="69" height="16" rx="3" stroke="#727886" stroke-width="2"/>
<path d="M212.333 48V103" stroke="#727886" stroke-width="2"/>
<rect x="372.25" y="68" width="69" height="16" rx="3" stroke="#727886" stroke-width="2"/>
<path d="M348.667 48V103" stroke="#727886" stroke-width="2"/>
</g>
<rect x="79" y="49" width="390" height="54" rx="27" stroke="#727886" stroke-width="2"/>
<path d="M77.9941 76C77.9941 60.536 90.5302 48 105.994 48H182.994C198.458 48 210.994 60.536 210.994 76C210.994 91.464 198.458 104 182.994 104H105.994C90.5302 104 77.9941 91.464 77.9941 76Z" fill="#32353D"/>
<rect x="109.994" y="68" width="69" height="16" rx="3" stroke="#727886" stroke-width="2"/>
<rect x="181" y="48" width="30.3418" height="56" fill="#32353D"/>
</g>
<defs>
<clipPath id="clip0_378_11306">
<rect width="524" height="156" fill="white"/>
</clipPath>
<clipPath id="clip1_378_11306">
<rect x="78" y="48" width="392" height="56" rx="28" fill="white"/>
</clipPath>
</defs>
</svg>
