<svg width="524" height="156" viewBox="0 0 524 156" fill="none" xmlns="http://www.w3.org/2000/svg">
<g clip-path="url(#clip0_378_11415)">
<path d="M0 0H524V156H0V0Z" fill="#2138B1"/>
<g clip-path="url(#clip1_378_11415)">
<rect x="78.2627" y="48" width="391" height="56" rx="28" fill="#5C71EE"/>
<rect x="245.263" y="67" width="71" height="18" rx="4" fill="#2138B1"/>
<path d="M212.596 48L212.596 104" stroke="white" stroke-width="2"/>
<rect x="371.513" y="67" width="71" height="18" rx="4" fill="#2138B1"/>
<path d="M348.93 48V104" stroke="white" stroke-width="2"/>
</g>
<path d="M77.9941 76C77.9941 60.536 90.5302 48 105.994 48H182.994C198.458 48 210.994 60.536 210.994 76C210.994 91.464 198.458 104 182.994 104H105.994C90.5302 104 77.9941 91.464 77.9941 76Z" fill="#798AF5"/>
<rect x="108.994" y="67" width="71" height="18" rx="4" fill="white"/>
<rect x="181" y="48" width="30.5938" height="56" fill="#798AF5"/>
</g>
<defs>
<clipPath id="clip0_378_11415">
<rect width="524" height="156" fill="white"/>
</clipPath>
<clipPath id="clip1_378_11415">
<rect x="78.2627" y="48" width="391" height="56" rx="28" fill="white"/>
</clipPath>
</defs>
</svg>
