<svg width="524" height="156" viewBox="0 0 524 156" fill="none" xmlns="http://www.w3.org/2000/svg">
<g clip-path="url(#clip0_378_11392)">
<path d="M0 0H524V156H0V0Z" fill="#5D32B1"/>
<path d="M98.0977 -326.211H426.098V101.978C426.098 112.919 417.228 121.789 406.287 121.789H117.909C106.967 121.789 98.0977 112.919 98.0977 101.978V-326.211Z" fill="#9D6DEE"/>
<rect x="130.394" y="61.3125" width="262.212" height="35.0283" rx="17.5142" fill="#5D32B1"/>
<path d="M141.902 -54.7811C141.902 -57.5448 144.143 -59.7852 146.906 -59.7852H376.092C378.856 -59.7852 381.096 -57.5448 381.096 -54.7811V19.2788C381.096 22.0425 378.856 24.2829 376.092 24.2829H146.906C144.143 24.2829 141.902 22.0425 141.902 19.2788V-54.7811Z" fill="white"/>
</g>
<defs>
<clipPath id="clip0_378_11392">
<rect width="524" height="156" fill="white"/>
</clipPath>
</defs>
</svg>
