<svg width="524" height="156" viewBox="0 0 524 156" fill="none" xmlns="http://www.w3.org/2000/svg">
<g clip-path="url(#clip0_378_11642)">
<path d="M0 0H524V156H0V0Z" fill="#F4B2F0"/>
<path d="M396.805 119.383L386.852 94.2006H345.12L335.407 119.383H329.291L362.748 34.9609H368.984L403.161 119.383H396.805ZM365.626 41.3166L347.039 89.284H384.933L365.866 41.3166H365.626Z" fill="#741A66"/>
<path d="M307.711 119.383L305.672 104.154H272.215L263.821 119.383H242.835L292.121 34.9609H314.666L327.977 119.383H307.711ZM298.957 55.3471L281.449 87.3653H303.514L299.197 55.3471H298.957Z" fill="#952785"/>
<path d="M229.768 119.383L221.733 98.2778H183.24L175.445 119.383H163.453L196.071 34.9609H209.022L242 119.383H229.768ZM202.187 47.0727L186.837 88.4445H218.016L202.427 47.0727H202.187Z" fill="#B33AA2"/>
<path d="M121.049 37.4651C125.244 36.8658 134.473 37.2253 137.828 43.4578V114.172C134.632 116.369 126.802 119.446 121.049 114.172" stroke="#101114" stroke-width="2"/>
<path d="M154.608 37.4651C150.413 36.8658 141.185 37.2253 137.829 43.4578V114.172C141.025 116.369 148.855 119.446 154.608 114.172" stroke="#101114" stroke-width="2"/>
<path d="M126.292 74.9198H149.364" stroke="#101114" stroke-width="2"/>
</g>
<defs>
<clipPath id="clip0_378_11642">
<rect width="524" height="156" fill="white"/>
</clipPath>
</defs>
</svg>
