<svg width="64" height="64" viewBox="0 0 64 64" fill="none" xmlns="http://www.w3.org/2000/svg">
<g clip-path="url(#clip0)">
<path d="M14 7.96741C14 9.06741 13.1 9.96741 12 9.96741H6C4.9 9.96741 4 9.06741 4 7.96741C4 6.86741 4.9 5.96741 6 5.96741H12C13.1 5.96741 14 6.86741 14 7.96741Z" fill="#BFE9FF"/>
<path d="M61 -0.0325928H9V63.9674H61V-0.0325928Z" fill="#56B4FC"/>
<path d="M14 55.9674C14 57.0674 13.1 57.9674 12 57.9674H6C4.9 57.9674 4 57.0674 4 55.9674C4 54.8674 4.9 53.9674 6 53.9674H12C13.1 53.9674 14 54.8674 14 55.9674Z" fill="#BFE9FF"/>
<path d="M14 43.9674C14 45.0674 13.1 45.9674 12 45.9674H6C4.9 45.9674 4 45.0674 4 43.9674C4 42.8674 4.9 41.9674 6 41.9674H12C13.1 41.9674 14 42.8674 14 43.9674Z" fill="#BFE9FF"/>
<path d="M14 31.9674C14 33.0674 13.1 33.9674 12 33.9674H6C4.9 33.9674 4 33.0674 4 31.9674C4 30.8674 4.9 29.9674 6 29.9674H12C13.1 29.9674 14 30.8674 14 31.9674Z" fill="#BFE9FF"/>
<path d="M14 19.9674C14 21.0674 13.1 21.9674 12 21.9674H6C4.9 21.9674 4 21.0674 4 19.9674C4 18.8674 4.9 17.9674 6 17.9674H12C13.1 17.9674 14 18.8674 14 19.9674Z" fill="#BFE9FF"/>
<path d="M14 55.9674C14 54.8674 13.1 53.9674 12 53.9674H9V57.9674H12C13.1 57.9674 14 57.0674 14 55.9674Z" fill="#1652F0"/>
<path d="M14 19.9674C14 18.8674 13.1 17.9674 12 17.9674H9V21.9674H12C13.1 21.9674 14 21.0674 14 19.9674Z" fill="#1652F0"/>
<path d="M14 43.9674C14 42.8674 13.1 41.9674 12 41.9674H9V45.9674H12C13.1 45.9674 14 45.0674 14 43.9674Z" fill="#1652F0"/>
<path d="M14 31.9674C14 30.8674 13.1 29.9674 12 29.9674H9V33.9674H12C13.1 33.9674 14 33.0674 14 31.9674Z" fill="#1652F0"/>
<path d="M9 9.96741H12C13.1 9.96741 14 9.06741 14 7.96741C14 6.86741 13.1 5.96741 12 5.96741H9V9.96741Z" fill="#1652F0"/>
<path d="M35 21.9674C37.2091 21.9674 39 20.1765 39 17.9674C39 15.7583 37.2091 13.9674 35 13.9674C32.7909 13.9674 31 15.7583 31 17.9674C31 20.1765 32.7909 21.9674 35 21.9674Z" fill="white"/>
<path d="M43 33.9674H27V29.9674C27 27.7574 28.79 25.9674 31 25.9674H39C41.21 25.9674 43 27.7574 43 29.9674V33.9674Z" fill="white"/>
</g>
<defs>
<clipPath id="clip0">
<rect width="64" height="64" fill="white"/>
</clipPath>
</defs>
</svg>
