<svg xmlns="http://www.w3.org/2000/svg" fill="none" viewBox="0 0 48 48"><path fill="#CED2DB" d="M20 2a2 2 0 0 1 2-2h24a2 2 0 0 1 2 2v36a2 2 0 0 1-2 2H22a2 2 0 0 1-2-2V2Z"/><path fill="#0052FF" d="M38 20a2 2 0 0 1 2 2v24a2 2 0 0 1-2 2H2a2 2 0 0 1-2-2V22a2 2 0 0 1 2-2h36Z"/><path fill="#0A0B0D" fill-rule="evenodd" d="M40 40H22a2 2 0 0 1-2-2V20h18a2 2 0 0 1 2 2v18Z" clip-rule="evenodd"/><path fill="#FFFFFF" fill-rule="evenodd" d="M29 35V25h2v10h-2Z" clip-rule="evenodd"/><path fill="#FFFFFF" fill-rule="evenodd" d="M25 29h10v2H25v-2Z" clip-rule="evenodd"/><path fill="#FFD200" d="M4 32a1 1 0 0 1 1-1h4a1 1 0 0 1 1 1v4a1 1 0 0 1-1 1H5a1 1 0 0 1-1-1v-4Z"/></svg>