<svg xmlns="http://www.w3.org/2000/svg" fill="none" viewBox="0 0 48 48"><g clip-path="url(#a)"><path fill="#CED2DB" d="M0 44h32.93V26H0v18ZM48 4.9H14.97v18H48v-18Z"/><path fill="#0052FF" d="M14.97 22.9c4.96 0 8.98-4 8.98-8.95A8.97 8.97 0 0 0 14.97 5c-4.96 0-8.98 4-8.98 8.95a8.97 8.97 0 0 0 8.98 8.95Z"/><path fill="#0A0B0D" d="M14.97 5a8.93 8.93 0 0 1 8.98 8.95c0 4.97-4 8.95-8.98 8.95V5Z"/><path fill="#0052FF" d="M32.93 44a9 9 0 1 0-.02-17.98A9 9 0 0 0 32.93 44Z"/><path fill="#0A0B0D" d="M32.93 44c-4.99 0-8.98-4-8.98-9s4-9 8.98-9v18Z"/></g><defs><clipPath id="a"><path fill="#FFFFFF" d="M0 0h48v48H0z"/></clipPath></defs></svg>