<svg xmlns="http://www.w3.org/2000/svg" fill="none" viewBox="0 0 48 48"><path fill="#CED2DB" d="M48 4H0v32h48V4Z"/><path fill="#0A0B0D" d="M4 6h40v30H4V6Z"/><path fill="#0052FF" d="M48 6H0V1.5C0 .675.675 0 1.5 0h45c.825 0 1.5.675 1.5 1.5V6Z"/><path fill="#FFFFFF" d="M4 4a1 1 0 1 0 0-2 1 1 0 0 0 0 2Zm4 0a1 1 0 1 0 0-2 1 1 0 0 0 0 2Zm4 0a1 1 0 1 0 0-2 1 1 0 0 0 0 2Z"/><path fill="#0052FF" d="M4 36h40v12H4V36Z"/><path fill="#00D17F" fill-rule="evenodd" d="M9 23v8H7v-8h2Zm4-4v8h-2v-8h2Zm4-4v8h-2v-8h2Zm12 3v8h-2v-8h2Zm8-3v8h-2v-8h2Zm4-4v8h-2v-8h2Z" clip-rule="evenodd"/><path fill="#FF3344" fill-rule="evenodd" d="M21 19v8h-2v-8h2Zm4 4v8h-2v-8h2Zm8-3v8h-2v-8h2Z" clip-rule="evenodd"/></svg>