<svg xmlns="http://www.w3.org/2000/svg" fill="none" viewBox="0 0 40 40"><path fill="#CED2DB" d="m11.335 24.52-8.51 8.516a1.096 1.096 0 0 0 0 1.558l2.576 2.575a1.082 1.082 0 0 0 1.558 0l8.51-8.516a14.06 14.06 0 0 1-4.134-4.133Z"/><path fill="#0052FF" d="M33.206 6.806c-5.735-5.741-15.02-5.741-20.754 0a14.647 14.647 0 0 0-.05 20.772c5.734 5.741 15.02 5.741 20.754 0a14.647 14.647 0 0 0 .05-20.772ZM22.804 26.995c-5.393 0-9.769-4.383-9.769-9.782 0-5.4 4.376-9.782 9.769-9.782 5.392 0 9.768 4.382 9.768 9.782s-4.376 9.782-9.768 9.782Z"/><path fill="#101114" d="M22.804 10.555a9.97 9.97 0 0 0 6.617 6.608h.042l-.108.041a9.95 9.95 0 0 0-6.535 6.583l-.016.05-.017-.05a9.984 9.984 0 0 0-6.535-6.582l-.108-.034h.042a9.981 9.981 0 0 0 6.618-6.616Zm-8.702 11.141-3.55 3.6c.533.824 1.167 1.557 1.85 2.282a13.223 13.223 0 0 0 2.284 1.85l3.55-3.55a9.817 9.817 0 0 1-4.134-4.182Z"/></svg>