<svg xmlns="http://www.w3.org/2000/svg" fill="none" viewBox="0 0 49 49"><path fill="#CED2DB" fill-rule="evenodd" d="M7.176 7.176a24.5 24.5 0 1 1 34.648 34.648A24.5 24.5 0 0 1 7.176 7.176Z" clip-rule="evenodd"/><path fill="#FFFFFF" d="M12.974 12.974a16.305 16.305 0 0 1 23.052 23.052L12.974 12.974Z"/><path fill="#FFFFFF" d="M38.91 38.91a20.382 20.382 0 0 1-28.82-28.82l28.82 28.82Z"/><path fill="#0052FF" d="M36.026 36.026a16.304 16.304 0 0 1-23.052-23.052l23.052 23.052Z"/><path fill="#FFD200" d="M15.848 15.848a12.25 12.25 0 0 1 17.324 17.324L15.848 15.848Z"/><path fill="#0A0B0D" d="M33.152 33.152a12.25 12.25 0 0 1-17.324-17.324l17.324 17.324Z"/><path fill="#FFD200" d="M18.732 18.732a8.157 8.157 0 1 1 11.536 11.536"/><path fill="#0A0B0D" fill-rule="evenodd" d="M24.5 17.362a7.138 7.138 0 0 0-5.047 2.09l-1.441-1.44a9.176 9.176 0 0 1 12.976 12.976l-1.44-1.44A7.138 7.138 0 0 0 24.5 17.361Z" clip-rule="evenodd"/></svg>