<svg xmlns="http://www.w3.org/2000/svg" fill="none" viewBox="0 0 40 40"><g clip-path="url(#a)"><path fill="#5DE2F8" d="M20 40c11.046 0 20-8.954 20-20S31.046 0 20 0 0 8.954 0 20s8.954 20 20 20"/><path fill="#ED702F" d="M27.016 7.033c4.464 0 8.083 5.806 8.083 12.967s-3.62 12.967-8.083 12.967c-3.01 0-5.635-2.64-7.026-6.556-1.391 3.915-4.014 6.556-7.024 6.556-4.464 0-8.083-5.806-8.083-12.967S8.502 7.034 12.966 7.033c3.01 0 5.633 2.64 7.024 6.555 1.392-3.915 4.016-6.555 7.026-6.555"/><path fill="#FFD200" d="M28.083 17.167H11.899A2.833 2.833 0 0 0 9.066 20v.017a2.833 2.833 0 0 0 2.833 2.833h16.184a2.833 2.833 0 0 0 2.833-2.833V20a2.833 2.833 0 0 0-2.833-2.833"/></g><defs><clipPath id="a"><path fill="#FFFFFF" d="M0 0h40v40H0z"/></clipPath></defs></svg>