<svg xmlns="http://www.w3.org/2000/svg" fill="none" viewBox="0 0 40 40"><g clip-path="url(#a)"><path fill="#FFD200" d="M20 40c11.046 0 20-8.954 20-20S31.046 0 20 0 0 8.954 0 20s8.954 20 20 20"/><path fill="#0052FF" d="M20 32.383c8.938 0 16.184-7.245 16.184-16.183S28.938.017 20 .017 3.817 7.262 3.817 16.2 11.062 32.383 20 32.383"/><path fill="#ED702F" d="M20 21.133c5.836 0 10.567-4.73 10.567-10.566S25.837 0 20 0 9.434 4.73 9.434 10.567 14.164 21.133 20 21.133"/><path fill="#73A2FF" d="M20.001 12.6a6.3 6.3 0 1 0 0-12.6 6.3 6.3 0 0 0 0 12.6"/></g><defs><clipPath id="a"><path fill="#FFFFFF" d="M0 0h40v40H0z"/></clipPath></defs></svg>