<svg xmlns="http://www.w3.org/2000/svg" fill="none" viewBox="0 0 40 40"><g clip-path="url(#a)"><path fill="#ED702F" d="M20 40c11.046 0 20-8.954 20-20S31.046 0 20 0 0 8.954 0 20s8.954 20 20 20"/><path fill="#0052FF" d="M20 0c11.046 0 20 8.955 20 20s-8.954 20-20 20S0 31.046 0 20 8.954 0 20 0"/><path fill="#3CC28A" d="M20 0c8.85 0 16.357 5.75 18.992 13.717H1.007C3.642 5.749 11.15 0 20 0m0 40c-8.85 0-16.357-5.75-18.992-13.717h37.985C36.358 34.252 28.85 40 20 40"/><path fill="#FFD200" d="M20.032 34.3c7.9 0 14.3-6.4 14.3-14.3s-6.4-14.3-14.3-14.3-14.3 6.4-14.3 14.3 6.4 14.3 14.3 14.3"/><path fill="#5DE2F8" d="M7.183 26.267c2.333 4.75 7.2 8.033 12.85 8.033s10.516-3.283 12.85-8.033zm-.002-12.55h25.683c-2.333-4.75-7.2-8.034-12.85-8.034S9.499 8.967 7.165 13.717z"/></g><defs><clipPath id="a"><path fill="#FFFFFF" d="M0 0h40v40H0z"/></clipPath></defs></svg>