<svg xmlns="http://www.w3.org/2000/svg" fill="none" viewBox="0 0 40 40"><g clip-path="url(#a)"><path fill="#FFD200" d="M20 40c11.046 0 20-8.954 20-20S31.046 0 20 0 0 8.954 0 20s8.954 20 20 20"/><path fill="#0052FF" d="M34.15 34.15c3.034-3.034-.84-11.824-8.65-19.634S8.9 2.832 5.866 5.865s.84 11.823 8.65 19.633 16.602 11.683 19.635 8.65"/><path fill="#ED702F" d="M25.5 25.5c7.81-7.811 11.684-16.602 8.65-19.635-3.032-3.033-11.823.84-19.633 8.65S2.833 31.117 5.867 34.15c3.032 3.032 11.823-.84 19.633-8.65"/><path fill="#73A2FF" d="M9.766 20.017a50 50 0 0 0 4.733 5.5 47 47 0 0 0 5.5 4.733 50 50 0 0 0 5.5-4.733 47 47 0 0 0 4.733-5.5 50 50 0 0 0-4.733-5.5 47 47 0 0 0-5.5-4.734 50 50 0 0 0-5.5 4.734 47 47 0 0 0-4.733 5.5"/></g><defs><clipPath id="a"><path fill="#FFFFFF" d="M0 0h40v40H0z"/></clipPath></defs></svg>