<svg xmlns="http://www.w3.org/2000/svg" fill="none" viewBox="0 0 40 40"><g clip-path="url(#a)"><path fill="#FFD200" d="M19.992 39.983c11.04 0 19.991-8.95 19.991-19.991S31.033 0 19.992 0 0 8.95 0 19.992c0 11.04 8.95 19.991 19.992 19.991"/><path fill="#ED702F" d="M14.128 39.117a20 20 0 0 0 5.865.883c2.049 0 3.998-.316 5.864-.883V.883A20 20 0 0 0 19.993 0c-2.05 0-3.999.317-5.865.883z"/><path fill="#0052FF" d="M0 19.992c0 2.032.317 3.998.883 5.864h38.234c.567-1.85.883-3.815.883-5.864s-.316-3.999-.883-5.865H.883A20 20 0 0 0 0 19.992"/><path fill="#73A2FF" d="M25.84 14.144H14.128v11.712H25.84z"/></g><defs><clipPath id="a"><path fill="#FFFFFF" d="M0 0h40v40H0z"/></clipPath></defs></svg>