<svg xmlns="http://www.w3.org/2000/svg" fill="none" viewBox="0 0 50 49"><path fill="#CED2DB" fill-rule="evenodd" d="M25.001 13.15c6.589 0 12.613.798 17.039 2.124 2.203.66 4.097 1.476 5.474 2.45 1.337.947 2.488 2.27 2.488 3.98 0 1.502-.89 2.705-2.012 3.617L35.924 37.95c-.289.548-.75.95-1.144 1.218l-.047.029-8.862 9.277a1.523 1.523 0 0 1-2.21-.01L1.21 24.572l.003-.004C.496 23.777 0 22.824 0 21.704c0-1.71 1.15-3.033 2.488-3.98 1.377-.974 3.27-1.79 5.474-2.45 4.426-1.325 10.45-2.124 17.039-2.124m-.222 32.058 4.107-4.299a33 33 0 0 1-3.885.224 33 33 0 0 1-4.313-.278zm.222-9.646c-2.573 0-4.846.301-6.427.756a7.5 7.5 0 0 0-1.34.506c.314.163.757.34 1.34.508 1.58.454 3.854.757 6.427.757s4.845-.303 6.426-.758a7.5 7.5 0 0 0 1.342-.507 7.5 7.5 0 0 0-1.342-.506c-1.58-.455-3.853-.756-6.426-.756m-10.086-.85a5 5 0 0 1 .307-.23c.678-.46 1.559-.816 2.51-1.09 1.925-.553 4.494-.875 7.269-.875s5.344.322 7.268.875c.952.274 1.833.63 2.51 1.09q.072.05.146.106l5.828-6.099C36.478 29.6 30.972 30.257 25 30.257c-6.083 0-11.685-.681-15.992-1.829zm10.086-18.516c-6.378 0-12.093.775-16.165 1.995-2.045.612-3.59 1.311-4.59 2.018-1.038.736-1.202 1.263-1.202 1.495s.164.76 1.203 1.494c.999.707 2.544 1.407 4.59 2.019 4.07 1.22 9.786 1.995 16.164 1.995s12.094-.776 16.166-1.995c2.045-.612 3.59-1.312 4.588-2.019 1.039-.735 1.202-1.262 1.203-1.494 0-.232-.164-.76-1.203-1.495-.999-.707-2.543-1.406-4.588-2.018-4.072-1.22-9.788-1.995-16.166-1.995" clip-rule="evenodd"/><circle cx="25" cy="11.71" r="11.71" fill="#0000FF"/></svg>