<svg xmlns="http://www.w3.org/2000/svg" fill="none" viewBox="0 0 48 48"><g clip-path="url(#a)"><path fill="#0000FF" d="M12.108 0v12.108H0V0zM3 9.108h6.108V3H3zm27.053 8.837H17.945v12.108h12.108zM47.999 0v12.108H35.891V0zm-9.108 9.108h6.108V3h-6.108zM12.108 35.892v12.109H0V35.892zM3 45.001h6.108v-6.109H3zm44.999-9.109v12.109H35.891V35.892zm-9.108 9.109h6.108v-6.109h-6.108z"/><path fill="#CED2DB" d="m34.203 42.104-3.854 2.642v-1.454h-12.53v1.454l-3.854-2.64 3.854-2.643v1.454h12.53v-1.454zM8.557 17.112H7.105V29.64H8.56l-2.641 3.854-2.643-3.854H4.73V17.112H3.273l2.641-3.854zm35.804 0h-1.455V29.64h1.457l-2.64 3.854-2.643-3.854h1.451V17.112h-1.453l2.64-3.854zM34.203 5.892 30.35 8.534V7.08H17.82v1.454l-3.854-2.64 3.854-2.643v1.454h12.53V3.251z"/></g><defs><clipPath id="a"><path fill="#FFFFFF" d="M0 0h48v48H0z"/></clipPath></defs></svg>