<svg xmlns="http://www.w3.org/2000/svg" fill="none" viewBox="0 0 40 40"><path fill="#CED2DB" d="M32.63 3.75v5H7.37v-5c0-.68.55-1.25 1.24-1.25h22.77c.7 0 1.25.57 1.25 1.25Zm0 27.5v5c0 .7-.55 1.25-1.25 1.25H8.61c-.69 0-1.24-.56-1.24-1.25v-5h25.26Z"/><path fill="#101114" d="M36.53 11.25H3.47a.98.98 0 0 0-.97.98v15.55c0 .54.43.98.97.98h33.06c.53 0 .97-.43.97-.98V12.23a.98.98 0 0 0-.97-.98Z"/><path fill="#0052FF" d="M32.63 11.25H7.37c0 1.07-.88 1.94-1.95 1.94v13.62c1.07 0 1.95.87 1.95 1.94h25.26c0-1.07.88-1.94 1.95-1.94V13.2a1.95 1.95 0 0 1-1.95-1.94v-.01Z"/><path fill="#FFFFFF" d="M21.25 15h-2.5v10h2.5V15Z"/><path fill="#FFFFFF" d="M25 18.75H15v2.5h10v-2.5Z"/></svg>