<svg xmlns="http://www.w3.org/2000/svg" fill="none" viewBox="0 0 48 48"><path fill="#CED2DB" fill-rule="evenodd" d="M31.2 24a7.2 7.2 0 0 0-14.4 0v16.8a7.2 7.2 0 1 0 14.4 0V24Z" clip-rule="evenodd"/><path fill="#0052FF" fill-rule="evenodd" d="M16.91 7.23a7.2 7.2 0 0 0 2 5.06c.17.16.34.31.52.45l15.83 15.83c.14.18.3.35.45.52A7.2 7.2 0 0 0 45.9 18.91a7.22 7.22 0 0 0-.6-.51L29.6 2.7l-.5-.59a7.2 7.2 0 0 0-12.2 5.12Z" clip-rule="evenodd"/><path fill="#CED2DB" fill-rule="evenodd" d="M0 7.2a7.2 7.2 0 1 1 14.4 0V24A7.2 7.2 0 0 1 0 24V7.2Z" clip-rule="evenodd"/><path fill="#CED2DB" d="M45.9 12.3A7.2 7.2 0 1 0 35.7 2.1a7.2 7.2 0 0 0 10.2 10.18Z"/><path fill="#0A0B0D" d="m41.27 14.38-7.65-7.65v.47a7.2 7.2 0 0 0 7.2 7.2l.45-.02Z"/><path fill="#CED2DB" d="M7.2 48a7.2 7.2 0 1 0 0-14.4 7.2 7.2 0 0 0 0 14.4Z"/><path fill="#0A0B0D" d="M7.2 29a5 5 0 1 1 0-10 5 5 0 0 1 0 10Zm0-8a3 3 0 1 0 0 6 3 3 0 0 0 0-6ZM24 16.8h-.5l7.68 7.68v-.5A7.2 7.2 0 0 0 24 16.8Z"/><path fill="#CED2DB" d="M40.8 48a7.2 7.2 0 1 0 0-14.4 7.2 7.2 0 0 0 0 14.4Z"/><path fill="#0A0B0D" d="M7.2 12.2a5 5 0 1 1 0-10 5 5 0 0 1 0 10Zm0-8a3 3 0 1 0 0 6 3 3 0 0 0 0-6ZM24 45.8a5 5 0 1 1 0-10 5 5 0 0 1 0 10Zm0-8a3 3 0 1 0 0 6 3 3 0 0 0 0-6ZM40.8 29a5 5 0 1 1-.02-10 5 5 0 0 1 .02 10Zm-2.12-7.12a3 3 0 1 0 4.24 4.25 3 3 0 0 0-4.24-4.25ZM24 12.2a5 5 0 1 1-.02-10 5 5 0 0 1 .02 10Zm-2.12-7.12a3 3 0 1 0 4.24 4.24 3 3 0 0 0-4.24-4.24Z"/></svg>