<svg xmlns="http://www.w3.org/2000/svg" fill="none" viewBox="0 0 48 48"><path fill="#CED2DB" fill-rule="evenodd" d="M31.2 24a7.2 7.2 0 0 0-14.4 0v16.8a7.2 7.2 0 1 0 14.4 0z" clip-rule="evenodd"/><path fill="#0052FF" fill-rule="evenodd" d="M16.91 7.232a7.2 7.2 0 0 0 2.001 5.058q.25.24.518.451l15.83 15.83q.213.27.452.519a7.2 7.2 0 0 0 10.18-10.18 7 7 0 0 0-.593-.51L29.6 2.703a7 7 0 0 0-.51-.593 7.2 7.2 0 0 0-12.18 5.122" clip-rule="evenodd"/><path fill="#CED2DB" fill-rule="evenodd" d="M0 7.2a7.2 7.2 0 1 1 14.4 0V24A7.2 7.2 0 0 1 0 24z" clip-rule="evenodd"/><path fill="#CED2DB" d="M45.89 12.292A7.2 7.2 0 1 0 35.71 2.11a7.2 7.2 0 0 0 10.18 10.182"/><path fill="#0A0B0D" d="m41.271 14.38-7.65-7.65v.47a7.2 7.2 0 0 0 7.2 7.2z"/><path fill="#CED2DB" d="M7.2 48a7.2 7.2 0 1 0 0-14.4 7.2 7.2 0 0 0 0 14.4"/><path fill="#0A0B0D" d="M7.2 29a5 5 0 1 1 0-10 5 5 0 0 1 0 10m0-8a3 3 0 1 0-.001 6 3 3 0 0 0 0-6M24 16.8h-.5l7.68 7.68v-.5A7.2 7.2 0 0 0 24 16.8"/><path fill="#CED2DB" d="M40.802 48a7.2 7.2 0 1 0 0-14.4 7.2 7.2 0 0 0 0 14.4"/><path fill="#0A0B0D" d="M7.2 12.2a5 5 0 1 1 0-10 5 5 0 0 1 0 10m0-8a3 3 0 1 0 0 6 3 3 0 0 0 0-6M24 45.8a5 5 0 1 1 0-10 5 5 0 0 1 0 10m0-8a3 3 0 1 0 0 6 3 3 0 0 0 0-6M40.802 29a5 5 0 1 1-.018-10 5 5 0 0 1 .018 10m-2.12-7.12a3 3 0 1 0 4.24 4.246 3 3 0 0 0-4.24-4.246M24.001 12.2a5 5 0 1 1-.018-10 5 5 0 0 1 .018 10m-2.12-7.12a3 3 0 1 0 4.24 4.245 3 3 0 0 0-4.24-4.245"/></svg>