<svg xmlns="http://www.w3.org/2000/svg" fill="none" viewBox="0 0 48 48"><path fill="#CED2DB" d="M0 14h48v34H0z"/><path fill="#FFFFFF" d="M6 14h36v28H6z"/><path fill="#0052FF" d="M0 4h48v10H0z"/><path fill="#0A0B0D" d="M6 4h36v10H6z"/><path fill="#0052FF" d="M6 0h36v4H6zm13 9c0 1.1-.9 2-2 2s-2-.9-2-2 .9-2 2-2 2 .9 2 2m14 0c0 1.1-.9 2-2 2s-2-.9-2-2 .9-2 2-2 2 .9 2 2"/><path fill="#E13947" d="M31.102 20.9c3.9 3.9 3.9 10.3 0 14.2s-10.3 3.9-14.2 0-3.9-10.3 0-14.2 10.3-3.9 14.2 0"/><path fill="#0A0B0D" fill-rule="evenodd" d="M23.2 33.2V22.1h1.7v11.1z" clip-rule="evenodd"/><path fill="#E13947" fill-rule="evenodd" d="M18.998 29.2h10v1.7h-10.1z" clip-rule="evenodd"/></svg>