<svg xmlns="http://www.w3.org/2000/svg" fill="none" viewBox="0 0 48 48"><path fill="#CED2DB" d="M0 14h48v34H0V14Z"/><path fill="#FFFFFF" d="M6 14h36v28H6V14Z"/><path fill="#0052FF" d="M0 4h48v10H0V4Z"/><path fill="#0A0B0D" d="M6 4h36v10H6V4Z"/><path fill="#CED2DB" d="M6 0h36v4H6V0Z"/><path fill="#0052FF" d="M19 9a2 2 0 1 1-4 0 2 2 0 0 1 4 0Zm14 0a2 2 0 1 1-4 0 2 2 0 0 1 4 0Z"/><path fill="#00D17F" fill-rule="evenodd" d="M33.707 22.707 21 35.414l-6.707-6.707 1.414-1.414L21 32.586l11.293-11.293 1.414 1.414Z" clip-rule="evenodd"/></svg>