<svg xmlns="http://www.w3.org/2000/svg" fill="none" viewBox="0 0 48 48"><path fill="#0A0B0D" fill-rule="evenodd" d="M27 44v-8h2v8h-2Z" clip-rule="evenodd"/><path fill="#CED2DB" d="M48 16H0v16h48V16Z"/><path fill="#0A0B0D" fill-rule="evenodd" d="M11 16V4h2v12h-2Z" clip-rule="evenodd"/><path fill="#00D17F" d="M16 8H8v24h8V8Z"/><path fill="#101114" fill-rule="evenodd" d="M2 46V0H0v48h48v-2H2Z" clip-rule="evenodd"/><path fill="#0A0B0D" fill-rule="evenodd" d="M8 16h8v16h-3v4h-2v-4H8V16Zm19-4v4h-3v16h8V16h-3v-4h-2Z" clip-rule="evenodd"/><path fill="#FF3344" d="M32 32h-8v8h8v-8Z"/><path fill="#0A0B0D" fill-rule="evenodd" d="M43 12V0h2v12h-2Z" clip-rule="evenodd"/><path fill="#00D17F" d="M48 4h-8v24h8V4Z"/><path fill="#0A0B0D" fill-rule="evenodd" d="M40 16h8v16h-3v4h-2v-4h-3V16Z" clip-rule="evenodd"/><path fill="#101114" d="M11 32h2v4h-2zm16 8h2v4h-2zm16-8h2v4h-2zm0-32h2v4h-2zM27 12h2v4h-2zM11 4h2v4h-2z"/></svg>