<svg xmlns="http://www.w3.org/2000/svg" fill="none" viewBox="0 0 48 48"><path fill="#0052FF" d="M8 2c0-1.1.9-2 2-2h28c1.1 0 2 .9 2 2v44c0 1.1-.9 2-2 2H10c-1.1 0-2-.9-2-2z"/><path fill="#CED2DB" d="M48 8H0v32h48z"/><path fill="#0A0B0D" d="M40 8H8v32h32z"/><path fill="#FFFFFF" d="M15.75 16.427c0-.374.303-.677.677-.677h14.896c.374 0 .677.303.677.677v14.896a.677.677 0 0 1-.677.677H16.427a.677.677 0 0 1-.677-.677z"/><path fill="#0A0B0D" d="M21 44c0-.6.4-1 1-1h4c.6 0 1 .4 1 1s-.4 1-1 1h-4c-.6 0-1-.4-1-1m4-40c0 .6-.4 1-1 1s-1-.4-1-1 .4-1 1-1 1 .4 1 1"/></svg>