<svg xmlns="http://www.w3.org/2000/svg" fill="none" viewBox="0 0 48 48"><path fill="#CED2DB" d="M32 48H0V0h24l8 8v40Z"/><path fill="#0052FF" d="M36 43.5a12 12 0 1 0 0-24 12 12 0 0 0 0 24ZM24 0l8 8h-8V0Z"/><path fill="#0A0B0D" fill-rule="evenodd" d="M26 37H6v-2h20v2Zm0-8H6v-2h20v2Zm0-8H6v-2h20v2Zm0-8H6v-2h20v2Z" clip-rule="evenodd"/><path fill="#0A0B0D" fill-rule="evenodd" d="M32 20.18v22.64a12 12 0 0 1 0-22.64Z" clip-rule="evenodd"/><path fill="#FFFFFF" fill-rule="evenodd" d="M42 33H30v-2h12v2Z" clip-rule="evenodd"/><path fill="#FFFFFF" fill-rule="evenodd" d="M35 38V26h2v12h-2Z" clip-rule="evenodd"/></svg>