<svg xmlns="http://www.w3.org/2000/svg" fill="none" viewBox="0 0 48 48"><path fill="#CED2DB" d="M48 9.21A1.22 1.22 0 0 0 46.79 8h-8.1a2.66 2.66 0 0 0-1.91 1l-1.64 3H8.79a2 2 0 0 0-2 2v30h41.2V9.21Z"/><path fill="#0052FF" d="M41.32 22.06A3.28 3.28 0 0 0 38.7 20H1.51A1.54 1.54 0 0 0 .1 22.06L6.76 44H48l-6.68-21.94Z"/><path fill="#0052FF" d="m48 44-5.44-22.07A2.93 2.93 0 0 0 39.94 20H8L6.76 44H48Z"/><path fill="#0A0B0D" d="M24 20H12a11.6 11.6 0 0 0 3.51 8.49 11.6 11.6 0 0 0 8.5 3.51 11.6 11.6 0 0 0 8.48-3.51A11.6 11.6 0 0 0 36 20H24Z"/><path fill="#FFD200" d="M24 20h12a11.6 11.6 0 0 0-3.5-8.49A11.6 11.6 0 0 0 24 8a11.6 11.6 0 0 0-8.49 3.51 11.6 11.6 0 0 0-3.5 8.49h12Z"/></svg>