<svg xmlns="http://www.w3.org/2000/svg" fill="none" viewBox="0 0 48 48"><path fill="#0A0B0E" d="M16 12H0l8-4z"/><path fill="#CED2DB" d="M16 24H0a15.6 15.6 0 0 0 .33 3.22c.206 1.03.518 2.035.93 3 .399.972.891 1.903 1.47 2.78a16.7 16.7 0 0 0 3.09 3.4c.4.32.81.63 1.23.92a15.8 15.8 0 0 0 5.73 2.4c1.06.205 2.14.299 3.22.28a16 16 0 0 0 16-16z"/><path fill="#0052FF" d="M16 24a16 16 0 1 1 32 0z"/><path fill="#CED2DB" d="M46 24a6 6 0 1 1-12 0"/><path fill="#0A0B0D" d="M34 24a6 6 0 1 1 12 0"/><path fill="#CED2DB" d="M40 32a8 8 0 0 0-8 8v8h16v-8a8 8 0 0 0-8-8"/><path fill="#FFD200" d="M16 24a8 8 0 1 0 12.15-6.84 6 6 0 0 0-.68-.37A7.9 7.9 0 0 0 24 16a8 8 0 0 0-8 8"/><path fill="#0052FF" d="M24 24h-8a8 8 0 0 0 16 0zm-8-12H0v12.41h16z"/></svg>