<svg xmlns="http://www.w3.org/2000/svg" fill="none" viewBox="0 0 40 40"><path fill="#CED2DB" d="M24.92 15.033h-8.907c-.7 0-1.266.567-1.266 1.259V37.5H24.92V15.033ZM3.758 26.258h8.49V37.5h-8.49A1.262 1.262 0 0 1 2.5 36.242v-8.725c0-.692.567-1.259 1.258-1.259Z"/><path fill="#CED2DB" d="M32.451 26.258H14.747V37.5h17.704V26.258Z"/><path fill="#0052FF" d="M24.92 26.267H14.747V37.5H24.92V26.267ZM37.492 3.758V37.5H27.419V3.758c0-.691.567-1.258 1.267-1.258h7.548c.7 0 1.266.567 1.266 1.258h-.008Z"/><path fill="#101114" d="M37.492 26.258H27.419v11.234h10.073V26.258Z"/></svg>