<svg xmlns="http://www.w3.org/2000/svg" fill="none" viewBox="0 0 49 48"><path fill="#CED2DB" d="M24 4.8a19.2 19.2 0 1 1-13.58 5.62A19.11 19.11 0 0 1 24 4.8ZM24 0a24 24 0 1 0 17 7 23.92 23.92 0 0 0-17-7Z"/><path fill="#CED2DB" d="M26.4 45.6h-4.8a57.39 57.39 0 0 1 4-21.35A51.79 51.79 0 0 1 37.1 6.7l3.4 3.4C31.54 19.06 26.4 32 26.4 45.6Z"/><path fill="#0052FF" d="M26.4 45.6h-4.8A49.291 49.291 0 0 0 7.1 10.5l3.4-3.4a54.1 54.1 0 0 1 15.9 38.5Z"/><path fill="#CED2DB" d="M2.4 26.4v-4.8c2.12 0 6-1.23 10.14-4.68a28.25 28.25 0 0 0 9.13-15.09L26.33 3a32.86 32.86 0 0 1-10.69 17.58C11.39 24.17 6.31 26.4 2.4 26.4Z"/><path fill="#0A0B0D" d="M15.946 13.46a28.046 28.046 0 0 1-3.41 3.46c.94 1.32 1.8 2.68 2.6 4.08.17-.14.34-.27.51-.42a31.098 31.098 0 0 0 3.07-3c-.9-1.407-1.823-2.78-2.77-4.12Z"/><path fill="#0052FF" d="M37.33 40.48a34.06 34.06 0 0 1-5.08-19.89c.27-5.84 2.13-11.17 4.85-13.89l3.4 3.4c-1.54 1.54-3.21 5.45-3.45 10.71a29.84 29.84 0 0 0 4.43 17.34l-4.15 2.33Z"/><path fill="#0A0B0D" d="M8.65 41.6a2.4 2.4 0 1 0 0-4.8 2.4 2.4 0 0 0 0 4.8Z"/><path fill="#0A0B0D" d="M8.65 41.6a2.4 2.4 0 1 0 0-4.8 2.4 2.4 0 0 0 0 4.8Z"/><path fill="#00D17F" d="M39.33 41.6a2.4 2.4 0 1 0 0-4.8 2.4 2.4 0 0 0 0 4.8Z"/><path fill="#0A0B0D" d="M41.24 37.75a31.655 31.655 0 0 1-1.47-2.81 19.421 19.421 0 0 1-2.19 2.64c-.41.4-.82.78-1.26 1.14.26.47.52.94.8 1.41.122.288.299.549.52.77a2.4 2.4 0 0 0 3.6-3.15ZM24 4.8A2.4 2.4 0 1 0 24 0a2.4 2.4 0 0 0 0 4.8Zm-.08 24.44A57.913 57.913 0 0 0 21.6 45.6a2.4 2.4 0 0 0 4.8 0 54.81 54.81 0 0 0-2.48-16.36ZM45.6 26.4a2.4 2.4 0 1 0 0-4.8 2.4 2.4 0 0 0 0 4.8Zm-43.2 0a2.4 2.4 0 1 0 0-4.8 2.4 2.4 0 0 0 0 4.8Z"/><path fill="#0A0B0D" fill-rule="evenodd" d="M40.35 10.251a2.4 2.4 0 1 0-3.232-3.533L37.1 6.7c-2.72 2.72-4.58 8.05-4.85 13.89v.004l-.03.856a46.442 46.442 0 0 1 8.13-11.199Z" clip-rule="evenodd"/><path fill="#0A0B0D" d="M7.1 10.5c.58.58 1.15 1.17 1.7 1.78a18.928 18.928 0 0 1 1.62-1.86 21.423 21.423 0 0 1 1.76-1.55c-.547-.58-1.107-1.17-1.68-1.77a2.404 2.404 0 0 0-3.4 3.4Z"/></svg>