<svg xmlns="http://www.w3.org/2000/svg" fill="none" viewBox="0 0 40 40"><path fill="#FFFFFF" d="m20 17.222.978 2.732 2.747.972-2.747.972L20 24.63l-.978-2.732-2.747-.972 2.747-.972.978-2.732Z"/><path fill="#CED2DB" d="M32.745 33.611H7.255V37.5h25.49v-3.889Zm0 3.889V25.833h3.922v10.695a.98.98 0 0 1-.98.972h-2.942Z"/><path fill="#CED2DB" d="M3.333 36.528V25.833h3.922V37.5H4.314a.98.98 0 0 1-.98-.972Z"/><path fill="#0052FF" d="M20 30.694c5.415 0 9.804-4.352 9.804-9.722 0-5.37-4.39-9.722-9.804-9.722-5.414 0-9.804 4.353-9.804 9.722 0 5.37 4.39 9.722 9.804 9.722Z"/><path fill="#CED2DB" d="M20 9.306c4.068 0 7.695 2.09 9.803 5.25V3.472a.98.98 0 0 0-.98-.972H11.176a.98.98 0 0 0-.98.972v11.084a11.802 11.802 0 0 1 9.803-5.25Z"/><path fill="#0A0B0D" d="M20 11.25c-5.392 0-9.804 4.375-9.804 9.722h19.608c0-5.347-4.412-9.722-9.804-9.722Z"/><path fill="#FFFFFF" d="m20 17.083 1.03 2.868 2.892 1.021-2.893 1.021L20 24.861l-1.03-2.868-2.892-1.02 2.893-1.022L20 17.083Z"/></svg>