<svg xmlns="http://www.w3.org/2000/svg" fill="none" viewBox="0 0 48 48"><path fill="#CED2DB" d="M48 9H0v30h48z"/><path fill="#FFFFFE" d="M35 24a11 11 0 1 1-22 0z"/><path fill="#FFD200" d="M33 24a9 9 0 0 1-18 0z"/><path fill="#0052FF" d="M15 24a9 9 0 0 1 18 0z"/><path fill="#CED2DB" d="M0 9a9 9 0 0 1 18 0z"/><path fill="#0052FF" d="M18 9A9 9 0 0 1 0 9z"/><path fill="#0A0B0D" d="M8.999 15.62A6.63 6.63 0 0 1 2.379 9h2a4.62 4.62 0 1 0 9.24 0h2a6.63 6.63 0 0 1-6.62 6.62"/><path fill="#0052FF" d="M30 39a9 9 0 0 1 18 0z"/><path fill="#CED2DB" d="M48 39a9 9 0 0 1-18 0z"/><path fill="#0A0B0D" d="M45.619 39h-2a4.62 4.62 0 1 0-9.24 0h-2a6.62 6.62 0 0 1 13.24 0"/></svg>