<svg xmlns="http://www.w3.org/2000/svg" fill="none" viewBox="0 0 40 40"><path fill="#CED2DB" d="M15.98 5.5 5.5 15.98 24.44 34.9 34.9 24.43 15.98 5.5Z"/><path fill="#0052FF" d="M37.09 3.33h-8.4L3.34 37.08h8.4L37.09 3.33Z"/><path fill="#101114" d="M10.74 18.15a7.4 7.4 0 1 0 0-14.82 7.4 7.4 0 0 0 0 14.82Z"/><path fill="#0052FF" d="M15.99 5.5A7.42 7.42 0 0 0 5.5 16L16 5.5Z"/><path fill="#101114" d="M29.68 37.08a7.4 7.4 0 1 0 0-14.81 7.4 7.4 0 0 0 0 14.81Z"/><path fill="#0052FF" d="M24.43 34.92A7.42 7.42 0 0 0 34.9 24.43L24.43 34.92Z"/><path fill="#0A0B0D" d="m27.1 16.63-8.99 11.96-4.8-4.8 8.98-11.96 4.8 4.8h.01Z"/><path fill="#101114" d="m27.1 16.63-8.99 11.96-4.8-4.8 8.98-11.96 4.8 4.8h.01Z"/></svg>