<svg xmlns="http://www.w3.org/2000/svg" fill="none" viewBox="0 0 48 48"><path fill="#CED2DB" fill-rule="evenodd" d="M42 24.653A13.945 13.945 0 0 1 36 26c-2.147 0-4.181-.483-6-1.347V32h12v-7.347Z" clip-rule="evenodd"/><path fill="#73A2FF" d="M25 32h5v16h-5V32Zm17 0h5v16h-5V32Z"/><path fill="#0052FF" d="M30 32h12v16H30V32Z"/><path fill="#5DE2F8" d="M0 38h22v10H0V38Z"/><path fill="#CED2DB" d="M36 24c6.627 0 12-5.373 12-12S42.627 0 36 0 24 5.373 24 12s5.373 12 12 12Z"/><path fill="#0052FF" d="M36 0c6.63 0 12 5.37 12 12s-5.37 12-12 12V0Zm0 24-7-12 7 2.96V24Z"/><path fill="#0A0B0D" fill-rule="evenodd" d="M36 0v24l8-12-8-12Z" clip-rule="evenodd"/><path fill="#FFFFFF" d="M36 0v15l-7-3.158L36 0Z"/><path fill="#5DE2F8" d="m6 16-1.061-4.939L0 10l4.939-1.061L6 4l1.061 4.939L12 10l-4.939 1.061L6 16Z"/><path fill="#CED2DB" d="M17 22v-3h-2v3h-3v2h3v3h2v-3h3v-2h-3Z"/><path fill="#0A0B0D" d="M0 42h22v2H0zm25 0h22v2H25zm0-6h22v2H25z"/></svg>