<svg xmlns="http://www.w3.org/2000/svg" fill="none" viewBox="0 0 40 40"><path fill="#CED2DB" d="M28.98 20 20 28.98 11.02 20 20 11.03 28.98 20Zm8.2 8.2a1.1 1.1 0 0 1 0 1.55l-7.42 7.43a1.1 1.1 0 0 1-1.55 0l-6.44-6.43 8.98-8.98 6.43 6.43Zm-6.43-9.97-8.98-8.97 6.44-6.43a1.09 1.09 0 0 1 1.55 0l7.42 7.42a1.1 1.1 0 0 1 0 1.55l-6.43 6.43Z"/><path fill="#CED2DB" d="M11.03 20 20 28.99l8.98-8.97L20 11.03l-8.97 8.98Z"/><path fill="#0052FF" d="m11.02 20-8.2 8.2a1.1 1.1 0 0 0 0 1.55l7.42 7.43a1.1 1.1 0 0 0 1.55 0L28.97 20 20 11.03l-8.2-8.2a1.1 1.1 0 0 0-1.56 0l-7.42 7.42a1.1 1.1 0 0 0 0 1.55l8.2 8.2Z"/><path fill="#101114" d="M20 11.02 11.01 20l8.97 8.97L28.97 20l-8.98-8.98Z"/></svg>