<svg xmlns="http://www.w3.org/2000/svg" fill="none" viewBox="0 0 48 48"><path fill="#CED2DB" d="M48 26a20 20 0 1 1-40 0 20 20 0 0 1 40 0Z"/><path fill="#CED2DB" d="M0 11h28v30H0V11Z"/><path fill="#0052FF" fill-rule="evenodd" d="M14.77 41A19.95 19.95 0 0 1 8 26c0-5.97 2.62-11.34 6.77-15H28v30H14.77Z" clip-rule="evenodd"/><path fill="#0A0B0D" d="M43 26a15 15 0 1 1-30 0 15 15 0 0 1 30 0Z"/><path fill="#FFFFFF" d="M30 26a2 2 0 1 1-4 0 2 2 0 0 1 4 0Z"/><path fill="#FFFFFF" fill-rule="evenodd" d="m37.7 17.7-9 9-1.4-1.4 9-9 1.4 1.4Z" clip-rule="evenodd"/><path fill="#CED2DB" d="M27 3h2v4h-2V3Z"/><path fill="#CED2DB" d="M31 2v2h-6V2h6Z"/></svg>