<svg xmlns="http://www.w3.org/2000/svg" fill="none" viewBox="0 0 48 48"><path fill="#CED2DB" d="M35.998 24a11.6 11.6 0 0 1-3.51 8.489A11.6 11.6 0 0 1 24 35.998v11.998a23.1 23.1 0 0 0 16.997-6.999 23.1 23.1 0 0 0 7-16.997z"/><path fill="#0052FF" d="M24 12.002V.004A23.1 23.1 0 0 0 7.003 7.003 23.1 23.1 0 0 0 .003 24h11.999a11.6 11.6 0 0 1 3.51-8.489A11.6 11.6 0 0 1 24 12.002m-5.66 6.338A7.73 7.73 0 0 0 16 24a7.73 7.73 0 0 0 2.34 5.659 7.73 7.73 0 0 0 5.66 2.34V16a7.73 7.73 0 0 0-5.66 2.34"/><path fill="#FFD200" d="M31.999 24a7.73 7.73 0 0 0-2.34-5.66A7.73 7.73 0 0 0 24 16.002v15.997a7.73 7.73 0 0 0 5.66-2.339A7.73 7.73 0 0 0 31.999 24"/><path fill="#0052FF" d="M19.76 37.758a5.78 5.78 0 0 0-1.76 4.24 5.78 5.78 0 0 0 1.76 4.239 5.78 5.78 0 0 0 4.24 1.76v-12a5.78 5.78 0 0 0-4.24 1.76"/><path fill="#0A0B0D" d="M29.999 41.997a5.78 5.78 0 0 0-1.76-4.24A5.78 5.78 0 0 0 24 35.999v11.998a5.78 5.78 0 0 0 4.24-1.76 5.78 5.78 0 0 0 1.759-4.239"/><path fill="#0052FF" d="M46.235 19.76a5.78 5.78 0 0 0-4.24-1.759 5.78 5.78 0 0 0-4.239 1.76 5.78 5.78 0 0 0-1.76 4.24h11.999a5.78 5.78 0 0 0-1.76-4.24"/><path fill="#0A0B0D" d="M41.996 29.999a5.78 5.78 0 0 0 4.24-1.76A5.78 5.78 0 0 0 47.994 24H35.997a5.78 5.78 0 0 0 1.76 4.24 5.78 5.78 0 0 0 4.239 1.759"/><path fill="#CED2DB" d="M1.764 28.24a5.78 5.78 0 0 0 4.24 1.759 5.78 5.78 0 0 0 4.239-1.76A5.78 5.78 0 0 0 12.003 24H.005a5.78 5.78 0 0 0 1.76 4.24"/><path fill="#0A0B0D" d="M6.004 18.001a5.78 5.78 0 0 0-4.24 1.76A5.78 5.78 0 0 0 .004 24h11.999a5.78 5.78 0 0 0-1.76-4.24A5.78 5.78 0 0 0 6.003 18"/><path fill="#CED2DB" d="M28.24 10.242a5.78 5.78 0 0 0 1.759-4.239 5.78 5.78 0 0 0-1.76-4.24A5.78 5.78 0 0 0 24 .005v11.998a5.78 5.78 0 0 0 4.24-1.76"/><path fill="#0A0B0D" d="M18 6.003a5.78 5.78 0 0 0 1.76 4.24 5.78 5.78 0 0 0 4.24 1.76v-12a5.78 5.78 0 0 0-4.24 1.76A5.78 5.78 0 0 0 18 6.004"/></svg>