<svg xmlns="http://www.w3.org/2000/svg" fill="none" viewBox="0 0 48 48"><path fill="#CED2DB" d="M34.13 4H13.87C12.85 4 12 4.9 12 6v40c0 1.1.84 2 1.88 2h20.25c1.03 0 1.87-.9 1.87-2V6c0-1.1-.84-2-1.87-2Z"/><path fill="#CED2DB" d="M40 48v-4H8v4h32Zm8-40H0v24h48V8Z"/><path fill="#0052FF" d="M36 8H12v24h24V8Z"/><path fill="#FEFFFF" d="M18.34 14.36A7.7 7.7 0 0 0 16 20h8v-8a7.7 7.7 0 0 0-5.66 2.35Z"/><path fill="#101114" d="M24 20h-8a7.7 7.7 0 0 0 2.34 5.66A7.71 7.71 0 0 0 24 28a7.72 7.72 0 0 0 5.67-2.35L23.99 20Z"/><path fill="#CED2DB" d="M29.66 14.36A7.72 7.72 0 0 0 23.99 12v8l5.67 5.66A7.7 7.7 0 0 0 32 20a7.7 7.7 0 0 0-2.34-5.65Z"/></svg>