<svg xmlns="http://www.w3.org/2000/svg" fill="none" viewBox="0 0 48 48"><path fill="#CED2DB" d="M48 24H0v24h48V24Z"/><path fill="#101114" d="M47 24h-2a21 21 0 0 0-42 0H1a23 23 0 0 1 46 0Z"/><path fill="#CED2DB" d="M24 7A17 17 0 0 0 7 24h34A17 17 0 0 0 24 7Z"/><path fill="#0052FF" d="M48 24H0v24h48V24Z"/><path fill="#0A0B0D" fill-rule="evenodd" d="M7 24h34a17 17 0 0 1-34 0Z" clip-rule="evenodd"/><path fill="#0052FF" fill-rule="evenodd" d="M32.193 32C30.788 38.548 27.687 43 24 43c-3.687 0-6.788-4.452-8.193-11H8v-2h7.441A39.909 39.909 0 0 1 15 24h2c0 2.162.164 4.173.454 6h13.092c.29-1.827.454-3.838.454-6h2c0 2.105-.154 4.121-.441 6H41v2h-8.807Zm-14.356 0h12.326c-1.266 5.59-3.775 9-6.163 9-2.388 0-4.897-3.41-6.163-9Z" clip-rule="evenodd"/><path fill="#FEFFFF" fill-rule="evenodd" d="M33 24h-2c0-2.162-.164-4.173-.454-6H17.454A38.354 38.354 0 0 0 17 24h-2c0-2.105.156-4.121.446-6H7v-2h8.815C17.232 9.452 20.349 5 24 5c3.687 0 6.788 4.452 8.193 11H41v2h-8.441c.287 1.879.441 3.895.441 6ZM24 7c-2.388 0-4.897 3.41-6.163 9h12.326C28.897 10.41 26.388 7 24 7Z" clip-rule="evenodd"/></svg>