<svg xmlns="http://www.w3.org/2000/svg" fill="none" viewBox="0 0 48 48"><path fill="#CED2DB" d="M24 48c13.255 0 24-10.745 24-24S37.255 0 24 0 0 10.745 0 24s10.745 24 24 24Z"/><path fill="#0052FF" d="M48 24a24 24 0 0 1-48 0h48Z"/><path fill="#0052FF" d="M24 0a24 24 0 0 1 0 48V0Z"/><path fill="#CED2DB" d="M24 24v24a24 24 0 0 0 24-24H24Z"/><path fill="#FEFFFF" d="M24 12.8c-13.25 0-24 5.4-24 12C0 14.9 10.75 6.4 24 6.4"/><path fill="#0052FF" d="M24 15.6a6 6 0 1 1 0-12"/><path fill="#FEFFFF" d="M24 35.2c13.25 0 24-5.4 24-12 0 9.9-10.75 18.4-24 18.4"/><path fill="#0052FF" d="M24 32.4a6 6 0 1 1 0 12"/><path fill="#101114" d="M5.593 39.4h12.492a6 6 0 0 0 5.916 5v-12a6 6 0 0 0-5.916 5H4.09c.464.69.966 1.358 1.503 2ZM42.408 8.6H29.916A6 6 0 0 0 24 3.6v12a6 6 0 0 0 5.916-5h13.995a23.995 23.995 0 0 0-1.503-2Z"/></svg>