<svg xmlns="http://www.w3.org/2000/svg" fill="none" viewBox="0 0 48 48"><path fill="#FFD200" fill-rule="evenodd" d="M13.924 39.326a14.25 14.25 0 1 0 20.152-20.152 14.25 14.25 0 0 0-20.152 20.152" clip-rule="evenodd"/><path fill="#0052FF" d="M32 48V22.47a8 8 0 0 1 16 0V48z"/><path fill="#0052FF" fill-rule="evenodd" d="M35.05 2.05a7 7 0 1 1 9.9 9.9 7 7 0 0 1-9.9-9.9" clip-rule="evenodd"/><path fill="#CED2DB" d="M0 48V22.47a8 8 0 0 1 16 0V48z"/><path fill="#CED2DB" fill-rule="evenodd" d="M3.05 2.05a7 7 0 1 1 9.9 9.9 7 7 0 0 1-9.9-9.9" clip-rule="evenodd"/><path fill="#0052FF" d="M14.845 18.33A8 8 0 0 1 16 22.47v18.572a14.25 14.25 0 0 1-1.155-22.712"/><path fill="#0A0B0D" d="M32 41.043V22.47a8 8 0 0 1 1.155-4.14q.477.4.921.844A14.25 14.25 0 0 1 32 41.042"/><path fill="#0A0B0D" d="M24 39.25a10 10 0 1 1 0-20 10 10 0 0 1 0 20m0-18a8 8 0 1 0 0 16.001 8 8 0 0 0 0-16.001"/></svg>