<svg xmlns="http://www.w3.org/2000/svg" fill="none" viewBox="0 0 48 48"><path fill="#CED2DB" fill-rule="evenodd" d="M31.2 24a7.2 7.2 0 1 0-14.4 0v16.8a7.2 7.2 0 1 0 14.4 0z" clip-rule="evenodd"/><path fill="#E66020" fill-rule="evenodd" d="M16.91 7.232a7.2 7.2 0 0 0 2 5.058q.25.24.518.451l15.83 15.83q.213.27.451.519a7.2 7.2 0 0 0 10.18-10.18 7 7 0 0 0-.593-.51L29.599 2.704a7 7 0 0 0-.51-.594 7.2 7.2 0 0 0-12.18 5.122" clip-rule="evenodd"/><path fill="#CED2DB" fill-rule="evenodd" d="M0 7.2a7.2 7.2 0 1 1 14.4 0V24A7.2 7.2 0 1 1 0 24z" clip-rule="evenodd"/><path fill="#0052FF" d="M45.891 12.292A7.2 7.2 0 1 0 35.71 2.11a7.2 7.2 0 0 0 10.18 10.182"/><path fill="#0A0B0D" d="m41.27 14.38-7.65-7.65v.47a7.2 7.2 0 0 0 7.2 7.2z"/><path fill="#0052FF" d="M7.2 47.999a7.2 7.2 0 1 0 0-14.4 7.2 7.2 0 0 0 0 14.4"/><path fill="#0A0B0D" d="M7.2 29a5 5 0 1 1 0-10 5 5 0 0 1 0 10m0-8a3 3 0 1 0 0 5.999 3 3 0 0 0 0-6M24 16.8h-.5l7.68 7.68v-.5A7.2 7.2 0 0 0 24 16.8"/><path fill="#0052FF" d="M40.8 47.999a7.2 7.2 0 1 0 0-14.4 7.2 7.2 0 0 0 0 14.4"/><path fill="#0A0B0D" d="M7.2 12.2a5 5 0 1 1 0-10 5 5 0 0 1 0 10m0-8a3 3 0 1 0 0 6 3 3 0 0 0 0-6M24 45.8a5 5 0 1 1 0-10 5 5 0 0 1 0 10m0-8a3 3 0 1 0 0 6 3 3 0 0 0 0-6M40.8 29a4.999 4.999 0 1 1-.02-10 4.999 4.999 0 0 1 .02 10m-2.12-7.12a3 3 0 1 0 4.24 4.246 3 3 0 0 0-4.24-4.247M24 12.2a5 5 0 1 1-.018-10.001 5 5 0 0 1 .018 10m-2.12-7.12a3 3 0 1 0 4.24 4.246 3 3 0 0 0-4.24-4.246"/></svg>