<svg xmlns="http://www.w3.org/2000/svg" fill="none" viewBox="0 0 48 48"><path fill="#FFD200" d="M46.8 41.42 21.95 16.56l-4.4 4.4 13.88 13.87-4.38 4.39 3.29 3.29 2.2-2.2 2.19 2.2-2.2 2.2 3.3 3.29 4.39-4.39-1.2-1.2 3.4 3.4 4.38-4.4Z"/><path fill="#0052FF" d="M14.97 27.95a13.97 13.97 0 1 0 0-27.95 13.97 13.97 0 0 0 0 27.95Z"/><path fill="#FFFFFF" d="M11.68 13.79a3.1 3.1 0 1 0 0-6.21 3.1 3.1 0 0 0 0 6.2Z"/><path fill="#0A0B0D" d="m20.45 15.06-4.38 4.39 6.33 6.34a13.64 13.64 0 0 0 4.4-4.4l-6.35-6.33Z"/></svg>