<svg xmlns="http://www.w3.org/2000/svg" fill="none" viewBox="0 0 48 48"><path fill="#CED2DB" d="M48 0H0v16h48z"/><path fill="#CED2DB" fill-rule="evenodd" d="M40 16.02V16H8v1.32c0 2.78 1.76 7.55 3.91 10.6l2.28 3.23a25.3 25.3 0 0 1 4 12h11.63a25.3 25.3 0 0 1 4-12l2.28-3.23c2.15-3 3.91-7.82 3.91-10.6v-1.3z" clip-rule="evenodd"/><path fill="#0052FF" d="M8 16a16 16 0 1 1 32 0z"/><path fill="#FFFFFE" d="M36.5 16a12.5 12.5 0 0 1-25 0z"/><path fill="#CED2DB" d="M11.5 16a12.5 12.5 0 0 1 25 0z"/><path fill="#0052FF" d="M30 42a6 6 0 1 1-12 0z"/><path fill="#0A0B0D" d="M18 42a6 6 0 1 1 12 0z"/><path fill="#0052FF" d="M13.5 16a10.5 10.5 0 1 1 21 0z"/><path fill="#FFD200" d="M34.5 16a10.5 10.5 0 1 1-21 0z"/><path fill="#0A0B0D" fill-rule="evenodd" d="M24 11a5 5 0 1 0 0 10 5 5 0 0 0 0-10m-7 5a7 7 0 1 1 14 0 7 7 0 0 1-14 0" clip-rule="evenodd"/></svg>