<svg xmlns="http://www.w3.org/2000/svg" fill="none" viewBox="0 0 48 48"><path fill="#0052FF" d="M8 2a2 2 0 0 1 2-2h28a2 2 0 0 1 2 2v44a2 2 0 0 1-2 2H10a2 2 0 0 1-2-2z"/><path fill="#CED2DB" d="M48 8H0v32h48z"/><path fill="#0A0B0D" d="M40 8H8v32h32z"/><circle cx="24" cy="24" r="12" fill="#E13947"/><path fill="#0A0B0D" fill-rule="evenodd" d="M23 26v-9h2v9zm0 5v-3h2v3z" clip-rule="evenodd"/><path fill="#0A0B0D" d="M21 44a1 1 0 0 1 1-1h4a1 1 0 1 1 0 2h-4a1 1 0 0 1-1-1m4-40a1 1 0 1 1-2 0 1 1 0 0 1 2 0"/></svg>