<svg xmlns="http://www.w3.org/2000/svg" fill="none" viewBox="0 0 48 48"><path fill="#00D17F" d="M48 20H0v24h48V20Z"/><path fill="#0A0B0D" fill-rule="evenodd" d="M40 20H8v24h32V20Z" clip-rule="evenodd"/><path fill="#FFFFFF" d="M27.697 34.145c0-1.973-1.2-2.633-3.517-2.955-1.71-.248-2.04-.645-2.04-1.448 0-.757.577-1.297 1.695-1.297 1.132 0 1.725.442 1.905 1.477h1.68c-.158-1.567-1.065-2.497-2.58-2.767v-1.763h-1.688v1.733c-1.672.24-2.752 1.35-2.752 2.782 0 1.846 1.117 2.565 3.472 2.88 1.598.263 2.055.608 2.055 1.516 0 .907-.772 1.515-1.86 1.515-1.672 0-2.07-.825-2.19-1.823h-1.762c.12 1.635 1.005 2.865 3.045 3.143v1.755h1.687v-1.755c1.74-.278 2.85-1.493 2.85-2.993Z"/><path fill="#FFFFFF" fill-rule="evenodd" d="M31 31h7v2h-7v-2Zm-21 0h7v2h-7v-2Zm22 4h5v2h-5v-2Zm-21 0h5v2h-5v-2Zm21-8h5v2h-5v-2Zm-21 0h5v2h-5v-2Z" clip-rule="evenodd"/><path fill="#CED2DB" d="M17.814 11.652C19.116 7.047 21.394 4 23.984 4c-5.65 0-10.618 3.047-13.47 7.652h7.3Zm12.342 0h7.3C34.604 7.047 29.636 4 23.986 4c2.59 0 4.868 3.047 6.17 7.652Zm.361 1.391c.474 2.101.768 4.46.808 6.957H40a17.183 17.183 0 0 0-1.77-6.957h-7.713Zm-1.369 0H18.823c-.481 2.018-.788 4.37-.835 6.957h11.988c-.04-2.588-.348-4.94-.828-6.957Z"/><path fill="#CED2DB" d="M23.985 5.391c-1.743 0-3.6 2.366-4.782 6.261h9.564c-1.182-3.895-3.039-6.26-4.782-6.26ZM9.74 13.043A17.184 17.184 0 0 0 7.97 20h8.675c.047-2.497.334-4.856.808-6.957H9.74Z"/></svg>