<svg xmlns="http://www.w3.org/2000/svg" fill="none" viewBox="0 0 48 48"><path fill="#0052FF" d="m1.05 46.44.01-3.82L40.14 3.54l4.52 4.52L5.8 46.93l-4.75-.49Z"/><path fill="#CED2DB" fill-rule="evenodd" d="M16.686 10.76a3.2 3.2 0 0 0-4.663.098L0 22.88v9.05l14.374-14.383 16.73 17.082a3.2 3.2 0 0 0 4.549.023l9.5-9.5a3.2 3.2 0 1 0-4.526-4.525l-7.213 7.213-16.728-17.08Z" clip-rule="evenodd"/><path fill="#FEFFFF" d="M42.399 27.34a3.84 3.84 0 1 0 0-7.68 3.84 3.84 0 0 0 0 7.68Z"/><path fill="#101114" fill-rule="evenodd" d="M42.399 20.66a2.84 2.84 0 1 0 0 5.68 2.84 2.84 0 0 0 0-5.68Zm-4.84 2.84a4.84 4.84 0 1 1 9.68 0 4.84 4.84 0 0 1-9.68 0Z" clip-rule="evenodd"/><path fill="#FEFFFF" d="M42.399 9.64a3.84 3.84 0 1 0 0-7.68 3.84 3.84 0 0 0 0 7.68Z"/><path fill="#101114" fill-rule="evenodd" d="M42.399 2.96a2.84 2.84 0 1 0 0 5.68 2.84 2.84 0 0 0 0-5.68Zm-4.84 2.84a4.84 4.84 0 1 1 9.68 0 4.84 4.84 0 0 1-9.68 0Z" clip-rule="evenodd"/><path fill="#0A0B0D" d="m24.65 28.08 4.53-4.53-4.48-4.58-4.52 4.53 4.47 4.58Z"/><path fill="#101114" d="M2 0H0v48h2V0Z"/><path fill="#101114" d="M48 48v-2H0v2h48Z"/></svg>