<svg xmlns="http://www.w3.org/2000/svg" fill="none" viewBox="0 0 48 48"><path fill="#FFD200" d="M19.5 39C30.27 39 39 30.27 39 19.5S30.27 0 19.5 0 0 8.73 0 19.5 8.73 39 19.5 39Z"/><path fill="#0052FF" d="M36 48c6.627 0 12-5.373 12-12s-5.373-12-12-12-12 5.373-12 12 5.373 12 12 12Z"/><path fill="#0A0B0D" d="M38.4 24.225c-.75-.15-1.575-.225-2.4-.225-6.6 0-12 5.4-12 12 0 .825.075 1.65.225 2.4A19.434 19.434 0 0 0 38.4 24.225Z"/><path fill="#0A0B0D" fill-rule="evenodd" d="M19 27V13h2v14h-2Z" clip-rule="evenodd"/><path fill="#0A0B0D" fill-rule="evenodd" d="M13 19h14v2H13v-2Z" clip-rule="evenodd"/></svg>