<svg xmlns="http://www.w3.org/2000/svg" fill="none" viewBox="0 0 40 40"><path fill="#CED2DB" d="M34.58 2.5v24.07c0 .7-.56 1.27-1.27 1.27h-3.34V7.09H14.26V3.77c0-.7.57-1.27 1.27-1.27h19.05Z"/><path fill="#0052FF" d="M5.83 37.5h20.33c.7 0 1.27-.57 1.27-1.27V9.63H7.1c-.7 0-1.27.56-1.27 1.27v26.6Z"/><path fill="#0052FF" d="M27.43 9.63H14.26v18.22h13.17V9.63Z"/><path fill="#101114" d="M27.43 9.63H14.26v18.22h13.17V9.63Z"/><path fill="#FEFFFF" d="M20.84 13.59a8.38 8.38 0 0 0 5.08 5.07 8.38 8.38 0 0 0-5.08 5.06 8.38 8.38 0 0 0-5.08-5.06 8.38 8.38 0 0 0 5.08-5.07Z"/></svg>