<svg xmlns="http://www.w3.org/2000/svg" fill="none" viewBox="0 0 48 48"><path fill="#CED2DB" d="M35.2 12.76a11.2 11.2 0 1 0-22.4 0H6V48h36V12.76h-6.8Zm-18.2 0a7 7 0 1 1 14 0H17Zm-11 3.2H0v24.8h6v-24.8Z"/><path fill="#0052FF" d="M42 15.96H6v24.8h36v-24.8Z"/><path fill="#CED2DB" d="M48 15.96h-6v24.8h6v-24.8Z"/><path fill="#0A0B0D" d="M29 30.36a2 2 0 1 0 0-4 2 2 0 0 0 0 4Zm5.398 0a2 2 0 1 0 0-4 2 2 0 0 0 0 4Zm-10.726 0a2 2 0 1 0 0-4 2 2 0 0 0 0 4Zm-5.344 0a2 2 0 1 0 0-4 2 2 0 0 0 0 4Zm-5.328 0a2 2 0 1 0 0-4 2 2 0 0 0 0 4Z"/></svg>