<svg xmlns="http://www.w3.org/2000/svg" fill="none" viewBox="0 0 48 48"><path fill="#0052FF" d="M20 0A20 20 0 0 0 0 20h20V0ZM4 24a20 20 0 0 0 20 20V24H4Z"/><path fill="#CED2DB" d="M20 4A16 16 0 0 0 4 20h16V4ZM8 24a16 16 0 0 0 16 16V24H8ZM24 0h24v48H24V0Z"/><path fill="#0A0B0D" fill-rule="evenodd" d="M24 44V4a20 20 0 1 1 0 40Z" clip-rule="evenodd"/><path fill="#0052FF" fill-rule="evenodd" d="M24 40V8a16 16 0 1 1 0 32Z" clip-rule="evenodd"/><path fill="#0052FF" d="M16 13a3 3 0 1 1-6 0 3 3 0 0 1 6 0Zm4 18a3 3 0 1 1-6 0 3 3 0 0 1 6 0Z"/><path fill="#0A0B0D" d="M34 17a3 3 0 1 1-6 0 3 3 0 0 1 6 0Zm0 14a3 3 0 1 1-6 0 3 3 0 0 1 6 0Z"/></svg>