<svg xmlns="http://www.w3.org/2000/svg" fill="none" viewBox="0 0 48 48"><path fill="#0052FF" d="m37 32.84-4.46-1.38 2.18-4.12-3.06-3.06-4.12 2.18L26.16 22h-4.32l-1.38 4.46-4.12-2.18-3.06 3.06 2.18 4.12L11 32.84v4.32l4.46 1.38-2.18 4.12 3.06 3.06 4.12-2.18L21.84 48h4.32l1.38-4.46 4.12 2.18 3.06-3.06-2.18-4.12L37 37.16v-4.32ZM0 2C0 .9.9 0 2 0h44a2 2 0 0 1 2 2v6H0V2Z"/><path fill="#0A0B0D" d="M5 4a1 1 0 1 1-2 0 1 1 0 0 1 2 0Z"/><path fill="#CED2DB" d="M9 4a1 1 0 1 1-2 0 1 1 0 0 1 2 0Z"/><path fill="#FFFFFF" d="M13 4a1 1 0 1 1-2 0 1 1 0 0 1 2 0Z"/><path fill="#CED2DB" d="M48 8H0v27h48V8Z"/><path fill="#FFFFFF" d="M24 39a4 4 0 1 0 0-8 4 4 0 0 0 0 8Z"/><path fill="#0A0B0D" fill-rule="evenodd" d="M37 35v-2.16l-4.46-1.38 2.18-4.12-3.06-3.06-4.12 2.18L26.16 22h-4.32l-1.38 4.46-4.12-2.18-3.06 3.06 2.18 4.12L11 32.84V35h26Z" clip-rule="evenodd"/><path fill="#CED2DB" fill-rule="evenodd" d="M28 35a4 4 0 0 0-8 0h8Z" clip-rule="evenodd"/></svg>