<svg xmlns="http://www.w3.org/2000/svg" fill="none" viewBox="0 0 48 48"><path fill="#CED2DB" d="M38 48V24H10v24zM10 0 0 4.8v14.4L10 24l10-4.8V4.8z"/><path fill="#FFFFFF" d="M10 7.2 6 9.12v5.76l4 1.92 4-1.93V9.12z"/><path fill="#0052FF" d="M10 24 0 28.8v14.4L10 48l10-4.82V28.8z"/><path fill="#CED2DB" d="M10 24 0 28.8v14.4L10 48z"/><path fill="#FFFFFF" d="m10 31.2-4 1.92v5.76l4 1.92 4-1.93v-5.75z"/><path fill="#0A0B0D" fill-rule="evenodd" d="m10 9.6-2 .96v2.88l1 .48v20.16l-1 .48v2.88l2 .96 2-.97v-2.87l-1-.48V13.915l1-.485v-2.87z" clip-rule="evenodd"/><path fill="#CED2DB" d="M38 0 28 4.8v14.4L38 24l10-4.8V4.8z"/><path fill="#FFFFFF" d="m38 7.2-4 1.92v5.76l4 1.92 4-1.93V9.12z"/><path fill="#CED2DB" d="m38 24-10 4.8v14.4L38 48l10-4.82V28.8z"/><path fill="#0052FF" d="m38 24-10 4.8v14.4L38 48z"/><path fill="#FFFFFF" d="m38 31.2-4 1.92v5.76l4 1.92 4-1.93v-5.75z"/><path fill="#0A0B0D" fill-rule="evenodd" d="m38 9.6-2 .96v2.88l1 .48v20.16l-1 .48v2.88l2 .96 2-.97v-2.87l-1-.48V13.915l1-.485v-2.87z" clip-rule="evenodd"/></svg>