<svg xmlns="http://www.w3.org/2000/svg" fill="none" viewBox="0 0 48 48"><path fill="#CED2DB" d="M0 15h36v28H0z"/><path fill="#0A0B0D" fill-rule="evenodd" d="M32 30H4v-2h28zm-12 7H4v-2h16z" clip-rule="evenodd"/><path fill="#0052FF" d="M8 15a8 8 0 0 1 8-8h24a8 8 0 1 1 0 16H16a8 8 0 0 1-8-8"/><path fill="#0A0B0D" fill-rule="evenodd" d="M36 23H16a8 8 0 0 1-8-8h28z" clip-rule="evenodd"/><path fill="#FFFFFF" d="M42 15a2 2 0 1 1-4 0 2 2 0 0 1 4 0m-8 0a2 2 0 1 1-4 0 2 2 0 0 1 4 0m-8 0a2 2 0 1 1-4 0 2 2 0 0 1 4 0m-8 0a2 2 0 1 1-4 0 2 2 0 0 1 4 0"/></svg>