<svg xmlns="http://www.w3.org/2000/svg" fill="none" viewBox="0 0 48 48"><path fill="#0052FF" d="M48 10H0v34h48V10Z"/><path fill="#CED2DB" d="M8 46.5v-39C8 6.67 8.65 6 9.45 6h29.1c.8 0 1.45.67 1.45 1.5v39c0 .83-.65 1.5-1.45 1.5H9.45C8.65 48 8 47.33 8 46.5Z"/><path fill="#0A0B0D" d="M40 10H8v34h32V10Z"/><path fill="#CED2DB" d="M34 6H14c0-1.66 1.5-3 3.33-3h13.34C32.5 3 34 4.34 34 6Z"/><path fill="#CED2DB" d="M24 6a3 3 0 1 0 0-6 3 3 0 0 0 0 6Z"/><path fill="#0052FF" d="M19 23h10v10H19V23Z"/><path fill="#FFFFFF" fill-rule="evenodd" d="M35.7 18.7 23 31.42l-6.7-6.7 1.4-1.42 5.3 5.3 11.3-11.3 1.4 1.42Z" clip-rule="evenodd"/></svg>