<svg xmlns="http://www.w3.org/2000/svg" fill="none" viewBox="0 0 48 48"><path fill="#CED2DB" d="M0 14h48v34H0z"/><path fill="#FFFFFF" d="M6 14h36v28H6z"/><path fill="#0052FF" d="M0 4h48v10H0z"/><path fill="#0A0B0D" d="M6 4h36v10H6z"/><path fill="#0052FF" d="M6 0h36v4H6zm13 9a2 2 0 1 1-4 0 2 2 0 0 1 4 0m14 0a2 2 0 1 1-4 0 2 2 0 0 1 4 0"/><path fill="#0A0B0D" fill-rule="evenodd" d="m30.46 20.293-14 14 1.415 1.414 14-14zM18.335 22a1.333 1.333 0 1 1 0 2.667 1.333 1.333 0 0 1 0-2.667m3.333 1.333a3.333 3.333 0 1 0-6.667 0 3.333 3.333 0 0 0 6.667 0m7.167 8a1.333 1.333 0 1 1 0 2.667 1.333 1.333 0 0 1 0-2.667m3.333 1.334a3.333 3.333 0 1 0-6.667 0 3.333 3.333 0 0 0 6.667 0" clip-rule="evenodd"/></svg>