<svg xmlns="http://www.w3.org/2000/svg" fill="none" viewBox="0 0 48 48"><path fill="#CED2DB" d="M24 48a24 24 0 1 1 0-48"/><path fill="#0052FF" d="M24 0a24 24 0 1 1 0 48"/><path fill="#FEFFFF" d="M24 44a20 20 0 0 1 0-40"/><path fill="#CED2DB" d="M24 4a20 20 0 0 1 0 40"/><path fill="#101114" fill-rule="evenodd" d="M9.6 24.8H5.8v-2h3.8v2Zm32.2 0h-3.79v-2h3.8v2Zm-19 17v-3.79h2v3.79h-2ZM12.1 31.7l-3.39 1.97-1-1.74 3.4-1.96 1 1.74Zm27.8-16.03-3.4 1.96-1-1.74 3.39-1.96 1 1.74ZM17.63 36.5l-1.96 3.4-1.74-1.01 1.96-3.4 1.73 1.01ZM33.66 8.71l-1.96 3.4-1.73-1.01 1.96-3.4 1.73 1.01ZM31.7 35.5l1.96 3.39-1.73 1-1.96-3.39 1.73-1Zm4.8-5.53 3.4 1.96-1.01 1.74-3.39-1.96 1-1.74Z" clip-rule="evenodd"/><path fill="#CED2DB" d="M24 33.6a9.6 9.6 0 0 1 0-19.2"/><path fill="#0052FF" d="M24 14.4a9.6 9.6 0 0 1 0 19.2"/><path fill="#101114" fill-rule="evenodd" d="M30.2 20.6 21.77 29l-3.7-3.7 1.4-1.42 2.3 2.3 7.01-7 1.42 1.4Z" clip-rule="evenodd"/></svg>