<svg xmlns="http://www.w3.org/2000/svg" fill="none" viewBox="0 0 48 48"><path fill="#CED2DB" d="M0 24h48v24H0V24Z"/><path fill="#00D17F" d="M6 8h8v16H6V8Z"/><path fill="#0A0B0D" d="M6 24h8v8H6v-8Z"/><path fill="#FF3344" d="M20 16h8v8h-8v-8Z"/><path fill="#0A0B0D" d="M20 24h8v16h-8V24Z"/><path fill="#00D17F" d="M34 6h8v18h-8V6Z"/><path fill="#0A0B0D" d="M34 24h8v6h-8v-6Z"/><path fill="#FF3344" d="M23 10h2v6h-2v-6Z"/><path fill="#00D17F" d="M9 2h2v6H9V2Zm28-2h2v6h-2V0Z"/><path fill="#0A0B0D" d="M37 30h2v6h-2v-6ZM9 32h2v6H9v-6Zm14 8h2v6h-2v-6Z"/></svg>