<svg xmlns="http://www.w3.org/2000/svg" fill="none" viewBox="0 0 48 48"><path fill="#CED2DB" d="M23 0c10.995 0 20 8.478 20 19.05 0 3.49-1.047 6.882-2.827 9.674-2.113 3.416-5.322 6.122-9.173 7.71V43h-2v-5.86c-1.282.379-2.62.639-4 .767V48h-2z"/><path fill="#FFD200" d="M5 10a5 5 0 0 0-5-5 5 5 0 0 0 5-5 5 5 0 0 0 5 5 5 5 0 0 0-5 5"/><path fill="#CED2DB" d="M38 19c0 8.284-6.716 15-15 15-1.385 0-2.727-.188-4-.54V48h-2V32.752a15 15 0 0 1-2-1.061V37h-2v-6.82A14.96 14.96 0 0 1 8 19c0-8.284 6.716-15 15-15s15 6.716 15 15"/><path fill="#FFD200" d="M23 4c8.287 0 15 6.713 15 15s-6.713 15-15 15z"/><path fill="#0052FF" d="M23 31a12 12 0 1 0 0-23.999A12 12 0 0 0 23 31"/><path fill="#FFFFFF" d="M26.287 20.908c0-1.75-1.065-2.34-3.125-2.623-1.522-.22-1.815-.578-1.815-1.288s.515-1.152 1.5-1.152c.898 0 1.415.312 1.628 1.035a.38.38 0 0 0 .362.277h.788a.35.35 0 0 0 .352-.407c-.25-1.142-1.02-1.83-2.227-2.045V13.5a.375.375 0 0 0-.375-.375h-.75a.375.375 0 0 0-.375.375v1.162c-1.5.21-2.448 1.2-2.448 2.47 0 1.643 1 2.28 3.09 2.563 1.423.232 1.828.54 1.828 1.348 0 .807-.688 1.35-1.658 1.35-1.307 0-1.75-.573-1.897-1.315a.38.38 0 0 0-.368-.305h-.855a.35.35 0 0 0-.347.407c.217 1.25 1.02 2.165 2.655 2.385v1.185a.375.375 0 0 0 .375.375h.75a.375.375 0 0 0 .375-.375v-1.185c1.55-.245 2.537-1.315 2.537-2.658"/><path fill="#FFFFFF" d="M20.429 26.17a7.5 7.5 0 0 1 0-14.09.54.54 0 0 0 .322-.473v-.7a.356.356 0 0 0-.5-.357 9 9 0 0 0 0 17.15.356.356 0 0 0 .5-.358v-.7a.54.54 0 0 0-.322-.472m5.323-15.62a.354.354 0 0 0-.5.357v.7a.54.54 0 0 0 .322.473 7.5 7.5 0 0 1 0 14.09.5.5 0 0 0-.322.472v.7a.356.356 0 0 0 .5.358 9 9 0 0 0 0-17.15"/></svg>