<svg xmlns="http://www.w3.org/2000/svg" fill="none" viewBox="0 0 48 48"><path fill="#0052FF" d="M15 29h18v19l-9-6-9 6z"/><path fill="#CED2DB" d="M24 42V29h9v19z"/><path fill="#CED2DB" d="M24 32c8.837 0 16-7.163 16-16S32.837 0 24 0 8 7.163 8 16s7.163 16 16 16"/><path fill="#FFD200" d="M24 0c8.84 0 16 7.16 16 16s-7.16 16-16 16z"/><path fill="#0052FF" d="M6 36a6 6 0 0 0-6-6 6 6 0 0 0 6-6 6 6 0 0 0 6 6 6 6 0 0 0-6 6"/><path fill="#5DE2F8" d="M42 8a4 4 0 0 0-4-4 4 4 0 0 0 4-4 4 4 0 0 0 4 4 4 4 0 0 0-4 4"/><path fill="#0052FF" d="M24 30a14 14 0 1 0 0-28 14 14 0 0 0 0 28"/><path fill="#FFFFFF" d="M27.837 18.225c0-2.041-1.243-2.73-3.646-3.06-1.776-.256-2.117-.673-2.117-1.501 0-.829.6-1.345 1.75-1.345 1.047 0 1.65.365 1.898 1.208a.45.45 0 0 0 .423.323h.919a.408.408 0 0 0 .411-.475c-.291-1.333-1.19-2.135-2.599-2.386V9.583a.437.437 0 0 0-.437-.437h-.875a.44.44 0 0 0-.437.437v1.357c-1.75.245-2.856 1.4-2.856 2.881 0 1.916 1.167 2.66 3.605 2.99 1.66.271 2.132.63 2.132 1.572s-.802 1.575-1.934 1.575c-1.525 0-2.041-.668-2.213-1.534a.44.44 0 0 0-.43-.356h-.997a.41.41 0 0 0-.405.475c.254 1.459 1.19 2.526 3.098 2.783v1.382a.44.44 0 0 0 .437.438h.875a.437.437 0 0 0 .438-.438v-1.382c1.808-.286 2.96-1.534 2.96-3.1"/><path fill="#FFFFFF" d="M20.999 24.365a8.75 8.75 0 0 1 0-16.439.63.63 0 0 0 .376-.551v-.817a.415.415 0 0 0-.583-.417 10.5 10.5 0 0 0 0 20.009.414.414 0 0 0 .583-.417v-.817a.63.63 0 0 0-.376-.551M27.21 6.141a.414.414 0 0 0-.583.417v.817a.63.63 0 0 0 .376.551 8.75 8.75 0 0 1 0 16.439.58.58 0 0 0-.376.55v.818a.415.415 0 0 0 .583.417 10.5 10.5 0 0 0 0-20.009"/></svg>