<svg xmlns="http://www.w3.org/2000/svg" fill="none" viewBox="0 0 40 40"><path fill="#5DE2F8" d="M20.003 32.408c6.854 0 12.41-5.555 12.41-12.408S26.857 7.592 20.003 7.592 7.593 13.147 7.593 20s5.556 12.408 12.41 12.408Z"/><path fill="#0052FF" d="M7.875 25.874a5.874 5.874 0 1 0 0-11.749 5.874 5.874 0 0 0 0 11.75Z"/><path fill="#101114" d="M9.015 14.24A12.324 12.324 0 0 0 7.593 20c0 2.082.516 4.038 1.422 5.76A5.877 5.877 0 0 0 13.75 20a5.872 5.872 0 0 0-4.735-5.76Z"/><path fill="#0052FF" d="M14.026 13.748a5.874 5.874 0 1 0 0-11.749 5.874 5.874 0 0 0 0 11.749Z"/><path fill="#101114" d="M10.24 12.362a5.872 5.872 0 0 0 9.668-4.482c-.001-.096-.013-.186-.013-.276a12.352 12.352 0 0 0-9.65 4.764l-.006-.006Z"/><path fill="#0052FF" d="M14.026 38a5.874 5.874 0 1 0 0-11.749 5.874 5.874 0 0 0 0 11.749Z"/><path fill="#101114" d="M14.027 26.252a5.837 5.837 0 0 0-3.793 1.392c2.25 2.868 5.73 4.728 9.65 4.764 0-.09.011-.186.011-.276a5.872 5.872 0 0 0-5.874-5.874l.005-.006Z"/><path fill="#0052FF" d="M27.546 13.748a5.874 5.874 0 1 0 .001-11.749 5.874 5.874 0 0 0 0 11.749Z"/><path fill="#101114" d="M21.677 7.718c0 .054-.006.102-.006.156a5.872 5.872 0 0 0 8.624 5.19 12.406 12.406 0 0 0-8.618-5.346Z"/><path fill="#0052FF" d="M27.546 38a5.874 5.874 0 1 0 .001-11.749 5.874 5.874 0 0 0 0 11.749Z"/><path fill="#101114" d="M30.295 26.936a5.872 5.872 0 0 0-8.623 5.19c0 .054.005.102.005.156a12.406 12.406 0 0 0 8.618-5.346Z"/><path fill="#0052FF" d="M32.125 25.874a5.874 5.874 0 1 0 0-11.749 5.874 5.874 0 0 0 0 11.75Z"/><path fill="#101114" d="M32.413 20c0-2.082-.516-4.038-1.422-5.76A5.877 5.877 0 0 0 26.256 20a5.872 5.872 0 0 0 4.735 5.76A12.323 12.323 0 0 0 32.413 20Z"/></svg>