<svg xmlns="http://www.w3.org/2000/svg" fill="none" viewBox="0 0 49 48"><path fill="#CED2DB" d="M46.03 18H2a2 2 0 0 0-2 2v26c0 1.1.9 2 2 2h44.03a2 2 0 0 0 2-2V20a2 2 0 0 0-2-2ZM24 0H8v18h16V0Z"/><path fill="#FFD200" d="M8 18a8 8 0 0 1 16 0"/><path fill="#0052FF" d="M24 18a8 8 0 0 1-16 0"/><path fill="#0A0B0D" fill-rule="evenodd" d="M18.83 15.17a4 4 0 1 1-5.66 5.66 4 4 0 0 1 5.66-5.66ZM22 18a6 6 0 1 1-12 0 6 6 0 0 1 12 0Z" clip-rule="evenodd"/><path fill="#101114" fill-rule="evenodd" d="M6.46 30h2v2.27l1.96-1.14 1 1.74L9.46 34l1.97 1.13-1 1.74-1.97-1.14V38h-2v-2.27l-1.97 1.13-1-1.73L5.46 34 3.5 32.87l1-1.74 1.96 1.13V30Zm13 0h-2v2.27l-1.96-1.13-1 1.73L16.46 34l-1.96 1.13 1 1.74 1.96-1.14V38h2v-2.27l1.97 1.14 1-1.73L20.46 34l1.97-1.13-1-1.73-1.97 1.13V30Zm9 0h2v2.27l1.97-1.13 1 1.73L31.46 34l1.97 1.14-1 1.73-1.97-1.13V38h-2v-2.27l-1.96 1.14-1-1.73L27.46 34l-1.96-1.13 1-1.73 1.96 1.13V30Zm11 0h2v2.27l1.96-1.13 1 1.73L42.46 34l1.97 1.13-1 1.74-1.97-1.14V38h-2v-2.27l-1.97 1.14-1-1.73L38.46 34l-1.96-1.13 1-1.74 1.96 1.14V30Z" clip-rule="evenodd"/></svg>