<svg xmlns="http://www.w3.org/2000/svg" fill="none" viewBox="0 0 49 48"><path fill="#CED2DB" d="M40 6.545H0V3.273C0 1.465 1.01 0 2.257 0H40z"/><path fill="#0052FF" d="M2.483 6.545C1.11 6.545 0 5.447 0 4.091v29.454C0 34.901 1.111 36 2.483 36H44V6.545z"/><circle cx="23" cy="38" r="10" fill="#E13947"/><path fill="#0A0B0D" d="M32.8 36c-.927-4.564-4.963-8-9.8-8-4.839 0-8.874 3.436-9.8 8z"/><path fill="#CED2DB" d="M35 16.363h11.09a2 2 0 0 1 2 2v5.819a2 2 0 0 1-2 2H35z"/><path fill="#0A0B0D" fill-rule="evenodd" d="M44 16.363h-9v9.819h9z" clip-rule="evenodd"/><path fill="#FFFFFF" d="M39.91 22.91a1.636 1.636 0 1 0 0-3.274 1.636 1.636 0 0 0 0 3.273M24 32h-2v8h2zm0 10h-2v3h2z"/></svg>