<svg xmlns="http://www.w3.org/2000/svg" fill="none" viewBox="0 0 48 48"><path fill="#00D17F" d="M42 24a20 20 0 1 1-40 0 20 20 0 0 1 40 0Z"/><path fill="#CED2DB" d="M22 0h24v48H22V0Z"/><path fill="#0052FF" fill-rule="evenodd" d="M12 6.68V14h6v12l6 6 5-5v-5h12.9A20 20 0 0 0 12 6.68Zm-.82 34.14L14 38l-6-6 4-4v-6l-4-4H2.92a20 20 0 0 0 8.26 22.82Z" clip-rule="evenodd"/><path fill="#0052FF" fill-rule="evenodd" d="M22 44V4a20 20 0 1 1 0 40Z" clip-rule="evenodd"/><path fill="#0A0B0D" fill-rule="evenodd" d="M22 30V4a20 20 0 0 1 19.9 18H29v10h-5l-2-2Z" clip-rule="evenodd"/></svg>