<svg width="64" height="64" viewBox="0 0 64 64" fill="none" xmlns="http://www.w3.org/2000/svg">
<path d="M40 4H0V44H40V4Z" fill="#BFE9FF"/>
<path d="M64 56H12V60H64V56Z" fill="#56B4FC"/>
<path d="M64 48H12V52H64V48Z" fill="#56B4FC"/>
<path d="M64 40H12V44H64V40Z" fill="#56B4FC"/>
<path d="M64 32H12V36H64V32Z" fill="#56B4FC"/>
<path d="M64 24H12V28H64V24Z" fill="#56B4FC"/>
<path d="M40 24H12V44H40V24Z" fill="#1652F0"/>
<path d="M28.5 38L26.59 38.59L26 40.5L25.41 38.59L23.5 38L25.41 37.41L26 35.5L26.59 37.41L28.5 38Z" fill="white"/>
<path d="M20.5 38L18.59 38.59L18 40.5L17.41 38.59L15.5 38L17.41 37.41L18 35.5L18.59 37.41L20.5 38Z" fill="white"/>
<path d="M36.5 38L34.59 38.59L34 40.5L33.41 38.59L31.5 38L33.41 37.41L34 35.5L34.59 37.41L36.5 38Z" fill="white"/>
<path d="M28.5 30L26.59 30.59L26 32.5L25.41 30.59L23.5 30L25.41 29.41L26 27.5L26.59 29.41L28.5 30Z" fill="white"/>
<path d="M20.5 30L18.59 30.59L18 32.5L17.41 30.59L15.5 30L17.41 29.41L18 27.5L18.59 29.41L20.5 30Z" fill="white"/>
<path d="M36.5 30L34.59 30.59L34 32.5L33.41 30.59L31.5 30L33.41 29.41L34 27.5L34.59 29.41L36.5 30Z" fill="white"/>
</svg>
