<svg width="64" height="64" viewBox="0 0 64 64" fill="none" xmlns="http://www.w3.org/2000/svg">
<g clip-path="url(#clip0)">
<path d="M52 7.96741H44C44 5.75741 42.21 3.96741 40 3.96741H36C36 1.75741 34.21 -0.0325928 32 -0.0325928C29.79 -0.0325928 28 1.75741 28 3.96741H24C21.79 3.96741 20 5.75741 20 7.96741H12C10.9 7.96741 10 8.86741 10 9.96741V61.9674C10 63.0674 10.9 63.9674 12 63.9674H52C53.1 63.9674 54 63.0674 54 61.9674V9.96741C54 8.86741 53.1 7.96741 52 7.96741Z" fill="#56B4FC"/>
<path d="M64 11.9674H0V59.9674H64V11.9674Z" fill="#BFE9FF"/>
<path d="M54 11.9674H10V59.9674H54V11.9674Z" fill="#1652F0"/>
<path d="M32 50.9674C23.73 50.9674 17 44.2374 17 35.9674C17 27.6974 23.73 20.9674 32 20.9674C40.27 20.9674 47 27.6974 47 35.9674C47 44.2374 40.27 50.9674 32 50.9674ZM32 22.9674C24.83 22.9674 19 28.7974 19 35.9674C19 43.1374 24.83 48.9674 32 48.9674C39.17 48.9674 45 43.1374 45 35.9674C45 28.7974 39.17 22.9674 32 22.9674Z" fill="white"/>
<path d="M36.29 41.6774L31 36.3774V25.9674H33V35.5574L37.71 40.2574L36.29 41.6774Z" fill="white"/>
</g>
<defs>
<clipPath id="clip0">
<rect width="64" height="64" fill="white"/>
</clipPath>
</defs>
</svg>
