<svg xmlns="http://www.w3.org/2000/svg" fill="none" viewBox="0 0 240 240"><path fill="var(--illustration-gray)" d="M240 144H0v64h240v-64Z"/><path fill="var(--illustration-negative)" d="M80 112H32v56h48v-56Z"/><path fill="var(--illustration-negative)" d="M64 112H48v48h16v-48Z"/><path fill="var(--illustration-primary)" d="M64 144H48v48h16v-48Zm64-24h-16v48h16v-48Z"/><path fill="var(--illustration-positive)" d="M128 88h-16v48h16V88Zm64-40h-16v48h16V48Z"/><path fill="var(--illustration-primary)" d="M192 112h-16v48h16v-48ZM80 144H32v48h48v-48Z"/><path fill="var(--illustration-positive)" d="M144 88H96v80h48V88Z"/><path fill="var(--illustration-primary)" d="M144 144H96v24h48v-24Z"/><path fill="var(--illustration-positive)" d="M208.2 48h-48v112h48V48Z"/><path fill="var(--illustration-primary)" d="M208.2 144h-48v16h48v-16Z"/><path fill="var(--illustration-black)" fill-rule="evenodd" d="m192.447 80.894-176 88-.894-1.788 176-88 .894 1.788Z" clip-rule="evenodd"/><path fill="var(--illustration-black)" fill-rule="evenodd" d="m191.792 79.935-14.629-3.563.474-1.944 16.571 4.037-4.036 16.572-1.944-.474 3.564-14.628Z" clip-rule="evenodd"/><path fill="var(--illustration-invert)" fill-rule="evenodd" d="M64 33H32v-2h32v2Zm16 8H32v-2h48v2Z" clip-rule="evenodd"/><path fill="var(--illustration-black)" fill-rule="evenodd" d="M185 32v16h-2V32h2Zm0 128v16h-2v-16h2Zm-64 8v16h-2v-16h2Zm0-96v16h-2V72h2ZM57 96v16h-2V96h2Zm0 96v16h-2v-16h2Z" clip-rule="evenodd"/><path fill="var(--illustration-invert)" fill-rule="evenodd" d="M64 49H32v-2h32v2Z" clip-rule="evenodd"/></svg>