<svg xmlns="http://www.w3.org/2000/svg" fill="none" viewBox="0 0 240 240"><path fill="var(--illustration-accent-4)" d="M240 0v192H0V0h240Z"/><path fill="var(--illustration-primary)" d="M240 0v16H0V0h240Z"/><path fill="var(--illustration-black)" d="M12 8a2 2 0 1 1-4 0 2 2 0 0 1 4 0Zm24 0a2 2 0 1 1-4 0 2 2 0 0 1 4 0ZM24 8a2 2 0 1 1-4 0 2 2 0 0 1 4 0Z"/><path fill="var(--illustration-accent-1)" d="M168 192a48 48 0 1 1-96 0 48 48 0 0 1 96 0Z"/><path fill="var(--illustration-primary)" fill-rule="evenodd" d="M168 192a48 48 0 1 0-96 0h96Z" clip-rule="evenodd"/><path fill="var(--illustration-white)" d="M156 192a36 36 0 1 1-72 0 36 36 0 0 1 72 0Z"/><path fill="var(--illustration-black)" fill-rule="evenodd" d="M116 206a18 18 0 1 0 0-36 18 18 0 0 0 0 36Zm0 2a20 20 0 1 0 0-40 20 20 0 0 0 0 40Z" clip-rule="evenodd"/><path fill="var(--illustration-accent-2)" d="M131 188a15 15 0 1 1-30 0 15 15 0 0 1 30 0Z"/><path fill="var(--illustration-black)" fill-rule="evenodd" d="m133.59 208.41-6-6 2.82-2.82 6 6-2.82 2.82Z" clip-rule="evenodd"/><path fill="var(--illustration-black)" fill-rule="evenodd" d="m139.17 216.83-8-8 5.66-5.66 8 8-5.66 5.66Z" clip-rule="evenodd"/><path fill="var(--illustration-primary)" d="M24 48h88v16H24V48Zm104 0h88v16h-88V48Z"/><path fill="var(--illustration-black)" fill-rule="evenodd" d="M56 41H24v-2h32v2Zm56 48H80v-2h32v2Zm40 16H80v-2h72v2Zm16 0h48v-2h-48v2Zm-16 16H80v-2h72v2Zm16 0h48v-2h-48v2Z" clip-rule="evenodd"/><path fill="var(--illustration-white)" d="M24 104a24 24 0 1 1 48 0 24 24 0 0 1-48 0Z"/><path fill="var(--illustration-accent-1)" d="M69.9 113.85a24 24 0 0 1-43.8 0A29.18 29.18 0 0 1 48 104c8.71 0 16.53 3.8 21.9 9.85Z"/><path fill="var(--illustration-black)" d="M57 92a9 9 0 1 1-18 0 9 9 0 0 1 18 0Z"/></svg>