<svg xmlns="http://www.w3.org/2000/svg" fill="none" viewBox="0 0 240 240"><path fill="var(--illustration-gray)" fill-rule="evenodd" d="M144 0H32v8H0v32h144V24H72v-8h72V0Zm0 200H0v16h64v8H0v16h104v-8h40v-32Z" clip-rule="evenodd"/><path fill="var(--illustration-gray)" d="M143 0h25v16h-25V0Z"/><path fill="var(--illustration-primary)" d="M16 216h112V24H16v192Z"/><path fill="var(--illustration-accent-2)" d="M16 200h112V40H16v160Z"/><path fill="var(--illustration-gray)" d="M72 152c17.673 0 32-14.327 32-32 0-17.673-14.327-32-32-32-17.673 0-32 14.327-32 32 0 17.673 14.327 32 32 32Z"/><path fill="var(--illustration-primary)" d="M72 120v32c17.67 0 32-14.33 32-32H72Z"/><path fill="var(--illustration-white)" d="M72 88c-17.67 0-32 14.33-32 32h32V88Z"/><path fill="var(--illustration-white)" d="M72 144c13.255 0 24-10.745 24-24S85.255 96 72 96s-24 10.745-24 24 10.745 24 24 24Z"/><path fill="var(--illustration-black)" d="M72 96c13.25 0 24 10.75 24 24s-10.75 24-24 24-24-10.75-24-24 10.75-24 24-24Zm0-2c-14.34 0-26 11.66-26 26s11.66 26 26 26 26-11.66 26-26-11.66-26-26-26Z"/><path fill="var(--illustration-primary)" d="M72 112c-4.42 0-8 3.58-8 8s3.58 8 8 8 8-3.58 8-8-3.58-8-8-8Z"/><path fill="var(--illustration-black)" fill-rule="evenodd" d="M71 100v-4h2v4h-2Zm7.726 1.137 1.53-3.69 1.848.766-1.53 3.69-1.848-.766Zm6.707 4.016 2.83-2.83 1.414 1.414-2.83 2.83-1.414-1.414Zm4.664 6.273 3.69-1.53.766 1.848-3.69 1.53-.766-1.848ZM92 119h4v2h-4v-2Zm-1.137 7.726 3.69 1.53-.766 1.848-3.69-1.53.766-1.848Zm-4.016 6.707 2.83 2.83-1.414 1.414-2.83-2.83 1.414-1.414Zm-6.273 4.664 1.53 3.69-1.848.766-1.53-3.69 1.848-.766ZM73 140v4h-2v-4h2Zm-7.726-1.137-1.53 3.69-1.848-.766 1.53-3.69 1.848.766Zm-6.707-4.016-2.83 2.83-1.414-1.414 2.83-2.83 1.414 1.414Zm-4.664-6.273-3.69 1.53-.766-1.848 3.69-1.53.766 1.848ZM52 121h-4v-2h4v2Zm1.137-7.726-3.69-1.53.766-1.848 3.69 1.53-.766 1.848Zm4.016-6.707-2.83-2.83 1.414-1.414 2.83 2.83-1.414 1.414Zm6.273-4.664-1.53-3.69 1.848-.766 1.53 3.69-1.848.766Z" clip-rule="evenodd"/><path fill="var(--illustration-primary)" d="M16 72H0v2h16v-2Zm0 94H0v2h16v-2Z"/><path fill="var(--illustration-black)" d="m230 119.28-.61-1.81-4.44 1.53v-5h-1.9v5l-4.44-1.53-.61 1.81 4.51 1.55-2.81 4.08 1.56 1.09 2.74-3.99 2.74 3.99 1.56-1.09-2.81-4.08 4.51-1.55Zm-16 0-.61-1.81-4.44 1.53v-5h-1.9v5l-4.44-1.53-.61 1.81 4.51 1.55-2.81 4.08 1.56 1.09 2.74-3.99 2.74 3.99 1.56-1.09-2.81-4.08 4.51-1.55Zm-16 0-.61-1.81-4.44 1.53v-5h-1.9v5l-4.44-1.53-.61 1.81 4.51 1.55-2.81 4.08 1.56 1.09 2.74-3.99 2.74 3.99 1.56-1.09-2.81-4.08 4.51-1.55Zm-16 0-.61-1.81-4.44 1.53v-5h-1.9v5l-4.44-1.53-.61 1.81 4.51 1.55-2.81 4.08 1.56 1.09 2.74-3.99 2.74 3.99 1.56-1.09-2.81-4.08 4.51-1.55Zm-16 0-.61-1.81-4.44 1.53v-5h-1.9v5l-4.44-1.53-.61 1.81 4.51 1.55-2.81 4.08 1.56 1.09 2.74-3.99 2.74 3.99 1.56-1.09-2.81-4.08 4.51-1.55Zm-16 0-.61-1.81-4.44 1.53v-5h-1.9v5l-4.44-1.53-.61 1.81 4.51 1.55-2.81 4.08 1.56 1.09 2.74-3.99 2.74 3.99 1.56-1.09-2.81-4.08 4.51-1.55Z"/><path fill="var(--illustration-black)" fill-rule="evenodd" d="M80 209H64v-2h16v2Z" clip-rule="evenodd"/><path fill="var(--illustration-black)" d="M72 34a2 2 0 1 0 0-4 2 2 0 0 0 0 4ZM16 72v2h112v-2H16Zm9 94h-9v2h112v-2H25Z"/><path fill="var(--illustration-primary)" d="M130 58h-2v16h2V58Zm0 20h-2v16h2V78ZM16 58h-2v36h2V58Z"/><path fill="var(--illustration-primary)" fill-rule="evenodd" d="M128 72h112v96h-29.018a27.669 27.669 0 0 0 0-2H238V74H128v-2Zm29.018 94H128v2h29.018a27.669 27.669 0 0 1 0-2Z" clip-rule="evenodd"/><path fill="var(--illustration-positive)" d="M184 191c13.255 0 24-10.745 24-24s-10.745-24-24-24-24 10.745-24 24 10.745 24 24 24Z"/><path fill="var(--illustration-white)" d="M200 166h-32v2h32v-2Z"/><path fill="var(--illustration-white)" d="M185 183v-32h-2v32h2Z"/></svg>