<svg xmlns="http://www.w3.org/2000/svg" fill="none" viewBox="0 0 240 240"><path fill="var(--illustration-accent-4)" d="M232 64H8v16h224V64ZM120 0 24 64h192L120 0Z"/><path fill="var(--illustration-white)" d="M120 56a16 16 0 1 0 0-32 16 16 0 0 0 0 32Z"/><path fill="var(--illustration-black)" fill-rule="evenodd" d="M119 30h2v9.59l5.7 5.7-1.4 1.42-6.3-6.3V30Z" clip-rule="evenodd"/><path fill="var(--illustration-accent-4)" d="M224 160H16v8h208v-8Zm8 8H8v8h224v-8Zm8 8H0v8h240v-8Z"/><path fill="var(--illustration-positive)" d="M120 168a36 36 0 1 0 0 72 36 36 0 0 0 0-72Z"/><path fill="var(--illustration-primary)" fill-rule="evenodd" d="M149.94 184H90.06A35.97 35.97 0 0 1 120 168a35.97 35.97 0 0 1 29.94 16Z" clip-rule="evenodd"/><path fill="var(--illustration-black)" fill-rule="evenodd" d="M119 220v-32h2v32h-2Z" clip-rule="evenodd"/><path fill="var(--illustration-black)" fill-rule="evenodd" d="M104 203h32v2h-32v-2Z" clip-rule="evenodd"/><path fill="var(--illustration-gray)" d="M48 80H24v80h24V80Zm40 0H64v80h24V80Zm88 0h-24v80h24V80Zm40 0h-24v80h24V80Z"/><path fill="var(--illustration-primary)" d="M48 64H24v16h24V64Zm40 0H64v16h24V64Zm88 0h-24v16h24V64Zm40 0h-24v16h24V64ZM48 160H24v24h24v-24Zm40 0H64v24h24v-24Zm88 0h-24v24h24v-24Zm40 0h-24v24h24v-24Z"/><path fill="var(--illustration-gray-2)" d="M132 160h-24v-28a12 12 0 1 1 24 0v28Z"/></svg>