<svg xmlns="http://www.w3.org/2000/svg" fill="none" viewBox="0 0 240 240"><path fill="var(--illustration-accent-4)" d="M232 64H8v16h224zM120 0 24 64h192z"/><path fill="var(--illustration-white)" d="M120 56c8.837 0 16-7.163 16-16s-7.163-16-16-16-16 7.163-16 16 7.163 16 16 16"/><path fill="var(--illustration-black)" fill-rule="evenodd" d="M119 30h2v9.586l5.707 5.707-1.414 1.414L119 40.414z" clip-rule="evenodd"/><path fill="var(--illustration-accent-4)" d="M224 160H16v8h208zm8 8H8v8h224zm8 8H0v8h240z"/><path fill="var(--illustration-positive)" d="M120 168c-19.881 0-36 16.119-36 36s16.119 36 36 36 36-16.119 36-36-16.119-36-36-36"/><path fill="var(--illustration-primary)" fill-rule="evenodd" d="M149.937 184H90.062c6.459-9.648 17.457-16 29.938-16s23.478 6.352 29.937 16" clip-rule="evenodd"/><path fill="var(--illustration-black)" fill-rule="evenodd" d="M119 220v-32h2v32z" clip-rule="evenodd"/><path fill="var(--illustration-black)" fill-rule="evenodd" d="M104 203h32v2h-32z" clip-rule="evenodd"/><path fill="var(--illustration-gray)" d="M48 80H24v80h24zm40 0H64v80h24zm88 0h-24v80h24zm40 0h-24v80h24z"/><path fill="var(--illustration-primary)" d="M48 64H24v16h24zm40 0H64v16h24zm88 0h-24v16h24zm40 0h-24v16h24zM48 160H24v24h24zm40 0H64v24h24zm88 0h-24v24h24zm40 0h-24v24h24z"/><path fill="var(--illustration-gray-2)" d="M132 160h-24v-28c0-6.63 5.37-12 12-12s12 5.37 12 12z"/></svg>