<svg xmlns="http://www.w3.org/2000/svg" fill="none" viewBox="0 0 240 240"><path fill="var(--illustration-gray)" d="M48 48.32H0v143.76h48V48.32Zm192 0h-48v143.76h48V48.32Z"/><path fill="var(--illustration-primary)" d="M200 32.047H40v176.206h160V32.047Z"/><path fill="var(--illustration-black)" d="M200 48.32H40v143.76h160V48.32Z"/><path fill="var(--illustration-positive)" d="M96 135.774H64v23.96h32v-23.96Z"/><path fill="var(--illustration-negative)" d="M136 135.774h-32v39.933h32v-39.933Z"/><path fill="var(--illustration-positive)" d="M176 103.827h-32v47.92h32v-47.92Z"/><path fill="var(--illustration-white)" fill-rule="evenodd" d="M80 65.291H56v-1.996h24v1.996Zm41 62.496v7.987h-2v-7.987h2Zm-40 0v7.987h-2v-7.987h2Zm80-31.947v7.987h-2V95.84h2Zm-80 63.894v7.986h-2v-7.986h2Zm80-7.987v7.987h-2v-7.987h2Zm-40 23.96v7.987h-2v-7.987h2ZM104 73.278H56V71.28h48v1.997Zm77.265 2.028-126.7 49.517-.73-1.859 126.701-49.518.729 1.86Z" clip-rule="evenodd"/><path fill="var(--illustration-white)" fill-rule="evenodd" d="m180.518 74.58-14.159-5.054.674-1.88 16.041 5.727-5.736 16.015-1.883-.672 5.063-14.135Z" clip-rule="evenodd"/></svg>