<svg xmlns="http://www.w3.org/2000/svg" fill="none" viewBox="0 0 240 240"><path fill="var(--illustration-accent-2)" d="M240 136c0 49.706-53.726 90-120 90S0 185.706 0 136s53.726-90 120-90 120 40.294 120 90"/><path fill="var(--illustration-primary)" d="M100 120h40v75c0 11.046-8.954 20-20 20s-20-8.954-20-20z"/><path fill="var(--illustration-accent-2)" d="M5 161.792C1.747 153.621 0 144.964 0 136q.002-3.747.402-7.417A9.99 9.99 0 0 1 5 137z"/><path fill="var(--illustration-gray)" d="M196 79c0 39.765-34.026 72-76 72s-76-32.235-76-72S78.026 7 120 7s76 32.236 76 72"/><path fill="var(--illustration-primary)" d="M5 161.791c-3.253-8.17-5-16.827-5-25.791 0-31.962 22.214-60.032 55.694-76H60v60h6v-4h98v-15h26V62.89c30.281 16.338 50 42.997 50 73.11 0 19.815-8.538 38.134-23.005 53.001C216.729 203.405 204.968 215 190.5 215c-14.636 0-26.5-11.864-26.5-26.5V185h-24v10c0 11.046-8.954 20-20 20s-20-8.954-20-20v-10H84v34c0 11.598-9.402 21-21 21s-21-9.402-21-21v-14.604c-9.358-6.009-17.469-13.079-24-20.962v7.066a6.5 6.5 0 1 1-13 0zM63 0a57.74 57.74 0 0 0 23 23 57.74 57.74 0 0 0-23 23 57.74 57.74 0 0 0-23-23A57.74 57.74 0 0 0 63 0"/><path fill="var(--illustration-black)" d="M78.906 18.422A58 58 0 0 0 86 23a57.74 57.74 0 0 0-23 23 58 58 0 0 0-5.383-8.136c5.684-7.721 12.924-14.338 21.289-19.442"/><path fill="var(--illustration-accent-1)" d="M32 34c2.77 5.07 6.93 9.23 12 12a30.1 30.1 0 0 0-12 12 30.1 30.1 0 0 0-12-12c5.07-2.77 9.23-6.93 12-12"/><path fill="var(--illustration-black)" d="M120 151c41.974 0 76-32.235 76-72 0-4.598-.455-9.096-1.325-13.455C174.182 53.31 148.229 46 120 46c-28.23 0-54.181 7.31-74.675 19.545A68.7 68.7 0 0 0 44 79c0 39.765 34.026 72 76 72"/><path fill="var(--illustration-black)" d="M184 105c0 24.853-28.654 45-64 45s-64-20.147-64-45 28.654-45 64-45 64 20.147 64 45"/><path fill="var(--illustration-positive)" d="M67.914 131.432c11.88-21.188 29.927-38.177 50.137-38.177 20.924 0 39.532 18.213 51.374 40.442C156.137 144.484 138.872 151 120.001 151c-20.159 0-38.484-7.435-52.087-19.568"/><path fill="var(--illustration-black)" d="M152.201 85.78c0 20.401-14.76 46.398-32.968 46.398-18.207 0-32.967-25.997-32.967-46.397s14.76-36.938 32.967-36.938 32.968 16.537 32.968 36.938"/><path fill="var(--illustration-positive)" d="M157.106 71.654c0 20.796-16.904 47.297-37.756 47.297S81.594 92.45 81.594 71.654 98.498 34 119.35 34s37.756 16.858 37.756 37.654"/><path fill="var(--illustration-black)" fill-rule="evenodd" d="M126.932 106.142h-15.56v-3h15.56z" clip-rule="evenodd"/><path fill="var(--illustration-black)" d="M95.691 92.176c-5.744-5.915-10.888-18.613-7.026-22.363s14.341-2.623 20.085 3.293c5.744 5.915 8.195 19.242 4.333 22.992s-11.648 1.993-17.392-3.922m46.985 0c5.744-5.915 10.888-18.613 7.027-22.363-3.862-3.75-14.341-2.623-20.085 3.293-5.745 5.915-8.196 19.242-4.334 22.992s11.648 1.993 17.392-3.922"/><path fill="var(--illustration-accent-2)" d="M84 168a8 8 0 0 1 16 0v23a8 8 0 0 1-16 0zm56 12c0-6.627 5.373-12 12-12s12 5.373 12 12v10c0 6.627-5.373 12-12 12s-12-5.373-12-12z"/><path fill="var(--illustration-white)" d="m64.93 209.107-6.928-9.798L61.27 197l6.927 9.798z"/><path fill="var(--illustration-black)" d="M221.133 115.558 216 104.711l3.615-1.711 5.133 10.847zM183 185.957l6.698-9.957 3.319 2.233-6.698 9.956zM32.43 99.497l-10.491 5.826-1.942-3.497L30.487 96z"/><path fill="var(--illustration-white)" d="m46.594 132 5.28 10.776-3.591 1.76-5.281-10.776z"/><path fill="var(--illustration-black)" d="m123.562 174.706-10.094 6.488-2.163-3.365 10.095-6.488z"/><path fill="var(--illustration-white)" d="m198.258 138.365-10.095 6.488-2.163-3.365L196.095 135z"/><path fill="var(--illustration-accent-2)" d="M41.925 204.348C32.598 198.35 24.514 191.296 18 183.434V163c0-6.627 5.373-12 12-12s12 5.373 12 12v40q0 .685-.075 1.348m175.13-15.408A8 8 0 0 1 217 188v-39a8 8 0 0 1 16 0v17.362c-3.884 8.131-9.285 15.721-15.945 22.578"/></svg>