<svg xmlns="http://www.w3.org/2000/svg" fill="none" viewBox="0 0 240 240"><g clip-path="url(#a)"><path fill="var(--illustration-accent-1)" d="M48 56c0 8.8-7.2 16-16 16v88c8.8 0 16 7.2 16 16h56V56H48Z"/><path fill="var(--illustration-primary)" d="M208 40V8c-26.5 0-48 21.5-48 48h32c0-8.8 7.2-16 16-16Zm-16 136h-32c0 26.5 21.5 48 48 48v-32c-8.8 0-16-7.2-16-16Z"/><path fill="var(--illustration-primary)" d="M176 32H56v16h120V32Z"/><path fill="var(--illustration-accent-1)" d="M208 160V72c-8.8 0-16-7.2-16-16h-56v120h56c0-8.8 7.2-16 16-16Z"/><path fill="var(--illustration-black)" d="M72 40H56v152h16V40ZM56 176V56c-10.1 16.8-16 37.6-16 60s5.9 43.2 16 60Z"/><path fill="var(--illustration-primary)" d="M48 40h144c-20.2-10.1-45.1-16-72-16s-51.8 5.9-72 16Zm0 136c0 8.8-7.2 16-16 16v32c26.5 0 48-21.5 48-48H48Z"/><path fill="var(--illustration-primary)" d="M192 200H48c20.2 10.1 45.1 16 72 16s51.8-5.9 72-16Z"/><path fill="var(--illustration-black)" d="M184 56v120c10.1-16.8 16-37.6 16-60s-5.9-43.2-16-60Zm0-16h-16v152h16V40Z"/><path fill="var(--illustration-primary)" d="M176 184H56v16h120v-16ZM32 8v32c8.8 0 16 7.2 16 16h32C80 29.5 58.5 8 32 8Z"/><path fill="var(--illustration-white)" d="M176 40H64v160h112V40Z"/><path fill="var(--illustration-accent-1)" d="M168 48H72v144h96V48Z"/><path fill="var(--illustration-primary)" d="M192 40h-16v16h16V40ZM64 40H48v16h16V40Zm128 136h-16v32h16v-32Z"/><path fill="var(--illustration-accent-1)" d="M119.9 0c-8.8 0-16 7.2-16 16v16h32V16c0-8.8-7.2-16-16-16Z"/><path fill="var(--illustration-black)" d="M120 24c-5.4 0-10.8.3-16 .7V40h32V24.7c-5.2-.4-10.6-.7-16-.7Z"/><path fill="var(--illustration-accent-1)" d="M119.9 240c8.8 0 16-7.2 16-16v-16h-32v16c0 8.8 7.1 16 16 16Z"/><path fill="var(--illustration-black)" d="M120 216c5.4 0 10.8-.3 16-.7V200h-32v15.3c5.2.4 10.6.7 16 .7Z"/><path fill="var(--illustration-white)" fill-rule="evenodd" d="m200.7 24.7-16 16c-.3.3-.7.4-1.1.2-.4-.2-.6-.5-.6-.9V24h2v13.6l14.3-14.3 1.4 1.4ZM55 37.6 40.7 23.3l-1.4 1.4 16 16c.3.3.7.4 1.1.2.4-.2.6-.5.6-.9V24h-2v13.6Zm1.4 153.5c.4.2.6.5.6.9v16h-2v-13.6l-14.3 14.3-1.4-1.4 16-16c.3-.3.7-.4 1.1-.2Zm127.2 0c.4-.2.8-.1 1.1.2l16 16-1.4 1.4-14.3-14.3V208h-2v-16c0-.4.2-.8.6-.9Z" clip-rule="evenodd"/><path fill="var(--illustration-primary)" d="m56 144 8 8V80l-8 8v56Zm120 8 8-8V88l-8-8v72Z"/><path fill="var(--illustration-positive)" d="M151.7 176.8H112L96 168l-7.9 8.8v-113H120l8 24.2 8-24.2h15.7v113Z"/><path fill="var(--illustration-black)" d="M132 104c2.2 0 4-1.8 4-4s-1.8-4-4-4-4 1.8-4 4 1.8 4 4 4Zm-24 0c2.2 0 4-1.8 4-4s-1.8-4-4-4-4 1.8-4 4 1.8 4 4 4Zm28 8c0 8.8-7.2 16-16 16s-16-7.2-16-16"/><path fill="var(--illustration-black)" fill-rule="evenodd" d="M127 168v-24h2v24h-2Zm16-16v-24h2v24h-2Zm0-64V72h2v16h-2Zm-40-8v-8h2v8h-2Zm0 72v-16h2v16h-2Z" clip-rule="evenodd"/></g><defs><clipPath id="a"><path fill="var(--illustration-white)" d="M0 0h240v240H0z"/></clipPath></defs></svg>