<svg xmlns="http://www.w3.org/2000/svg" fill="none" viewBox="0 0 240 240"><path fill="var(--illustration-gray)" d="m120 240 68.7-75.8C207.5 145.3 216 120.8 216 96s-8.5-49.8-27.3-68.7S144.8 0 120 0 70.7 8.5 51.8 27.3 24 71.2 24 96s8.9 49.3 27.8 68.2z"/><path fill="var(--illustration-primary)" d="M51.8 27.3C32.9 46.2 24 71.2 24 96s8.9 49.3 27.8 68.2L120 240V0C95.2 0 70.7 8.5 51.8 27.3"/><path fill="var(--illustration-primary)" d="M44 96c0-42 34-76 76-76s76 34 76 76-34 76-76 76-76-34-76-76"/><path fill="var(--illustration-invert-2)" d="M59.5 96c0-33.4 27.1-60.5 60.5-60.5s60.5 27.1 60.5 60.5-27.1 60.5-60.5 60.5S59.5 129.4 59.5 96"/><path fill="var(--illustration-black)" fill-rule="evenodd" d="M120 29c-37.048 0-67 29.952-67 67s29.952 67 67 67v2c-38.152 0-69-30.848-69-69s30.848-69 69-69z" clip-rule="evenodd"/><path fill="var(--illustration-accent-2)" d="M120 52c24.3 0 44 19.7 44 44s-19.7 44-44 44z"/><path fill="var(--illustration-accent-1)" d="m120.003 40 13.9 40.4 39.9.2-32.9 22.7 13.1 40.5-34-24.6-34 24.6 16.6-40.5-36.4-22.7 39.9-.2z"/><path fill="var(--illustration-primary)" d="m161.2 80.5-27.3-.1-9.7-28.2c-1.4-.1-2.8-.2-4.2-.2v67.2l21.2 15.3c2.9-1.6 5.5-3.5 7.9-5.6l-8.3-25.6 22.4-15.5c-.4-2.5-1.1-4.9-2-7.3"/><path fill="var(--illustration-accent-1)" d="m106.103 80.4-39.9.2 36.4 22.7-16.6 40.5 34-24.6V40z"/></svg>