<svg xmlns="http://www.w3.org/2000/svg" fill="none" viewBox="0 0 240 241"><path fill="var(--illustration-gray)" d="M80 44h80v52H80V44Z"/><path fill="var(--illustration-primary)" d="M160 48a40 40 0 1 1-80 0 40 40 0 0 1 80 0Z"/><path fill="var(--illustration-accent-2)" d="M120 40a40 40 0 0 0 40-40H80a40 40 0 0 0 40 40Z"/><path fill="var(--illustration-accent-1)" d="M160 96a40 40 0 1 1-80 0 40 40 0 0 1 80 0Z"/><path fill="var(--illustration-invert)" fill-rule="evenodd" d="m192.46 180.24-7.7 3.85-.9-1.78 7.72-3.87a21.56 21.56 0 0 1 24.01 3.51l1.03.95-21 11.55-2.88 1.59-42.9 23.6-.97-1.76 42.9-23.6 2.9-1.59 18.5-10.18a19.56 19.56 0 0 0-20.71-2.27Z" clip-rule="evenodd"/><path fill="var(--illustration-invert)" fill-rule="evenodd" d="M213.78 202.5a19.98 19.98 0 0 0-18.5-7.94l-.24-1.98a21.98 21.98 0 0 1 21.23 10.01l.76 1.19-67.43 15.94-.46-1.94 64.64-15.29Z" clip-rule="evenodd"/><path fill="var(--illustration-invert)" fill-rule="evenodd" d="m182.42 166.66-15.2 14.11-1.36-1.46 15.2-14.11a21.59 21.59 0 0 1 24.04-3.63l1.26.6-19.92 20.28-1.13 1.15-35.23 35.85-1.42-1.4 34.65-35.26v-.01l1.7-1.73 17.93-18.25a19.59 19.59 0 0 0-20.52 3.86Zm-29.76-21.08-.13 1.5a24.36 24.36 0 0 1-15.38 20.63l-23.73 9.3 33.3 12.52-5.49 10.68-26.5-9.96a61.83 61.83 0 0 0-75.03 26.48v.02l-1.73-1.02 6.58-11.17a90.1 90.1 0 0 1 49.66-39.9l58.45-19.08Zm-104.73 57.3a63.85 63.85 0 0 1 67.51-14.5l24.83 9.33 3.65-7.1-36.08-13.57 28.58-11.2a22.33 22.33 0 0 0 13.93-17.4l-55.52 18.12a66.7 66.7 0 0 0-3.34 1.17h-.01a88.09 88.09 0 0 0-43.55 35.15Z" clip-rule="evenodd"/><path fill="var(--illustration-invert)" fill-rule="evenodd" d="m156.21 171.06-9.99 19.47-4.98 9.68-26.49-9.96a61.85 61.85 0 0 0-75.05 26.5l-13.84 23.48-1.72-1.02 13.84-23.48a63.85 63.85 0 0 1 77.47-27.36l24.83 9.34 4.16-8.1 10-19.47a20.51 20.51 0 0 1 21.04-10.93l1.31.18-9.33 21.06-4.15 9.34-10.24 23.12-3.04 6.85H90.06L78 240.23l-1.72-1.02 12.64-21.45h59.81l2.5-5.66 10.25-23.11 4.15-9.36 8.24-18.57a18.51 18.51 0 0 0-17.66 10Z" clip-rule="evenodd"/><path fill="var(--illustration-black)" fill-rule="evenodd" d="M88 24c7.3-9.72 18.92-16 32-16 13.09 0 24.7 6.28 32 16a39.94 39.94 0 0 1-32 16 39.94 39.94 0 0 1-32-16Zm32 102a30 30 0 1 0 0-60 30 30 0 0 0 0 60Zm0 2a32 32 0 1 0 0-64 32 32 0 0 0 0 64Z" clip-rule="evenodd"/><path fill="var(--illustration-black)" fill-rule="evenodd" d="M119 112V80h2v32h-2Z" clip-rule="evenodd"/><path fill="var(--illustration-black)" fill-rule="evenodd" d="M104 95h32v2h-32v-2Z" clip-rule="evenodd"/><path fill="var(--illustration-black)" fill-rule="evenodd" d="m111.29 103.3 16-16 1.41 1.4-16 16-1.41-1.4Z" clip-rule="evenodd"/><path fill="var(--illustration-black)" fill-rule="evenodd" d="m112.7 87.3 16 16-1.41 1.4-16-16 1.41-1.4Z" clip-rule="evenodd"/><path fill="var(--illustration-gray)" d="M24 60h8v48h-8V60Zm8 16h8v32h-8V76Zm8-24h8v56h-8V52Zm8 16h8v40h-8V68Zm8-8h8v48h-8V60Zm121-24h8v48h-8V36Zm8 16h8v32h-8V52Zm8-24h8v56h-8V28Zm8 16h8v40h-8V44Zm8-8h8v48h-8V36Z"/><path fill="var(--illustration-accent-2)" d="M64 108a20 20 0 1 1-40 0 20 20 0 0 1 40 0Z"/><path fill="var(--illustration-positive)" d="M217 84a20 20 0 1 1-40 0 20 20 0 0 1 40 0Z"/><path fill="var(--illustration-primary)" fill-rule="evenodd" d="M44 88a20 20 0 0 0-20 20h40a20 20 0 0 0-20-20Z" clip-rule="evenodd"/><path fill="var(--illustration-black)" fill-rule="evenodd" d="M197 64a20 20 0 0 0-20 20h40a20 20 0 0 0-20-20Z" clip-rule="evenodd"/></svg>