<svg xmlns="http://www.w3.org/2000/svg" fill="none" viewBox="0 0 240 240"><path fill="var(--illustration-positive)" d="M218.13 116H41.88a5.94 5.94 0 0 0-5.88 6v112c0 3.31 2.63 6 5.88 6h176.25a5.94 5.94 0 0 0 5.87-6V122c0-3.31-2.63-6-5.88-6Z"/><path fill="var(--illustration-black)" d="M194.4 156a17.7 17.7 0 0 0-13.01 5.84 20.8 20.8 0 0 0-5.39 14.09v.14a20.8 20.8 0 0 0 5.39 14.1 17.71 17.71 0 0 0 13 5.83H224v-40h-29.6Z"/><path fill="var(--illustration-white)" fill-rule="evenodd" d="M196 165.04a11 11 0 1 0 0 22 11 11 0 0 0 0-22Zm-13 11a13 13 0 1 1 26 0 13 13 0 0 1-26 0Z" clip-rule="evenodd"/><path fill="var(--illustration-primary)" d="M224 156v40h16v-40h-16Z"/><path fill="var(--illustration-gray)" fill-rule="evenodd" d="M48.08 67.92A68 68 0 0 0 0 48V0a116 116 0 0 1 116 116H68a68 68 0 0 0-19.92-48.08Z" clip-rule="evenodd"/><path fill="var(--illustration-gray)" fill-rule="evenodd" d="M0 0h60a116 116 0 0 1 116 116h-48a68 68 0 0 0-68-68H0V0Z" clip-rule="evenodd"/><path fill="var(--illustration-primary)" d="M128 116a24 24 0 0 1 48 0h-48Z"/><path fill="var(--illustration-black)" fill-rule="evenodd" d="M135 116a17 17 0 1 1 34 0h7a24 24 0 0 1-48 0h7Zm2 0a15 15 0 0 1 30 0h-30Z" clip-rule="evenodd"/><path fill="var(--illustration-primary)" d="M116 116H68v60h48v-60Z"/><path fill="var(--illustration-accent-1)" d="M75.03 159.03a24 24 0 1 0 33.94 33.94 24 24 0 0 0-33.94-33.94Z"/><path fill="var(--illustration-black)" fill-rule="evenodd" d="M92 161a15 15 0 1 0 0 30 15 15 0 0 0 0-30Zm-17 15a17 17 0 1 1 34 0 17 17 0 0 1-34 0Z" clip-rule="evenodd"/><path fill="var(--illustration-primary)" d="M103.61 63.88A116.12 116.12 0 0 0 0 0v48h60a67.71 67.71 0 0 1 43.61 15.88Z"/><path fill="var(--illustration-invert)" d="M95.6 30.08A92.68 92.68 0 0 0 60 23H0v2h60a90.68 90.68 0 0 1 63.43 25.8h-8.63v2h12.31V40.49h-2v9.16a92.68 92.68 0 0 0-29.5-19.57Z"/><path fill="var(--illustration-invert)" fill-rule="evenodd" d="m82.75 75.75 3.74-9.61 1.86.72-4.46 11.47-11.47-4.46.72-1.86 9.61 3.74Z" clip-rule="evenodd"/><path fill="var(--illustration-invert)" fill-rule="evenodd" d="M48.39 38.92A91 91 0 0 0 0 25v-2a93 93 0 0 1 83.77 52.57l-1.8.86a91 91 0 0 0-33.58-37.51Z" clip-rule="evenodd"/></svg>