<svg xmlns="http://www.w3.org/2000/svg" fill="none" viewBox="0 0 240 240"><path fill="var(--illustration-gray)" d="M216 0H0v144h216z"/><path fill="var(--illustration-gray)" d="M240 32H24v144h216z"/><path fill="var(--illustration-primary)" d="M24 40c0-4.4 3.6-8 8-8h184v104c0 4.4-3.6 8-8 8H24z"/><path fill="var(--illustration-black)" d="M24 52h192v25H24z"/><path fill="var(--illustration-white)" d="M40 88h72v8H40zm0 16h48v8H40z"/><path fill="var(--illustration-black)" fill-rule="evenodd" d="M72 121H56v-2h16zm-16 0H40v-2h16zm40 0H80v-2h16zm48-34h57v18h-57zm2 2v14h53V89z" clip-rule="evenodd"/><path fill="var(--illustration-negative)" d="M119.898 240c22.092 0 40-17.909 40-40s-17.908-40-40-40-40 17.909-40 40 17.909 40 40 40"/><path fill="var(--illustration-black)" d="M121.087 207.193h-2.996L116.594 185h5.99zm-1.496 9.53c1.633 0 2.995-1.362 2.995-3.132s-1.362-3.131-2.995-3.131-2.996 1.361-2.996 3.131c-.136 1.634 1.226 3.132 2.996 3.132"/></svg>