<svg xmlns="http://www.w3.org/2000/svg" fill="none" viewBox="0 0 240 240"><path fill="var(--illustration-black)" d="M113.924 192.678c-1.786 0-3.182 1.354-3.182 3.167s1.36 3.155 3.182 3.155 3.205-1.366 3.205-3.167c0-1.789-1.36-3.155-3.205-3.155m.012 5.015c-1.017 0-1.763-.788-1.763-1.848 0-1.071.734-1.86 1.751-1.86 1.029 0 1.774.801 1.774 1.86s-.745 1.848-1.762 1.848m3.584-3.637h.887v4.827h1.419v-6.087h-2.306zm-10.35-.071c.745 0 1.337.459 1.561 1.142h1.503c-.273-1.46-1.479-2.449-3.052-2.449-1.786 0-3.182 1.354-3.182 3.167s1.36 3.155 3.182 3.155c1.538 0 2.768-.989 3.04-2.46h-1.491c-.213.682-.804 1.153-1.549 1.153-1.03 0-1.751-.788-1.751-1.848 0-1.071.71-1.86 1.739-1.86m37.318 1.271-1.041-.152c-.496-.071-.851-.236-.851-.624 0-.424.461-.636 1.088-.636.686 0 1.124.294 1.218.777h1.373c-.154-1.224-1.101-1.942-2.555-1.942-1.503 0-2.496.765-2.496 1.848 0 1.036.65 1.636 1.963 1.824l1.041.153c.509.071.793.271.793.648 0 .483-.497.683-1.183.683-.84 0-1.313-.342-1.384-.86h-1.396c.13 1.19 1.065 2.025 2.768 2.025 1.55 0 2.578-.706 2.578-1.919 0-1.083-.745-1.648-1.916-1.825m-25.371-4.968c-.521 0-.911.377-.911.895s.39.894.911.894c.52 0 .911-.376.911-.894s-.391-.895-.911-.895m20.829 4.592c0-1.319-.804-2.201-2.507-2.201-1.609 0-2.508.812-2.685 2.06h1.407c.071-.483.45-.883 1.254-.883.722 0 1.077.318 1.077.706 0 .507-.651.636-1.455.718-1.089.118-2.437.495-2.437 1.908 0 1.095.816 1.801 2.118 1.801 1.017 0 1.655-.424 1.975-1.095.047.6.497.989 1.124.989h.828v-1.26h-.698zm-1.395 1.53c0 .813-.71 1.413-1.574 1.413-.532 0-.982-.224-.982-.694 0-.601.722-.766 1.384-.836.639-.059.994-.2 1.172-.471zm-7.535-3.732c-.793 0-1.455.33-1.928.883v-3.332h-1.42v8.654h1.396v-.801a2.46 2.46 0 0 0 1.952.918c1.703 0 2.993-1.342 2.993-3.155s-1.313-3.167-2.993-3.167m-.213 5.015c-1.017 0-1.763-.788-1.763-1.848 0-1.059.757-1.86 1.775-1.86 1.029 0 1.75.789 1.75 1.86 0 1.06-.745 1.848-1.762 1.848m-6.529-5.015c-.923 0-1.526.377-1.881.907v-.789h-1.408v6.086h1.419v-3.308c0-.93.592-1.589 1.467-1.589.816 0 1.325.577 1.325 1.413v3.485h1.419v-3.591c.001-1.531-.792-2.614-2.341-2.614m28.896 2.967c0-1.742-1.277-2.966-2.992-2.966-1.822 0-3.159 1.365-3.159 3.166 0 1.896 1.432 3.155 3.182 3.155 1.479 0 2.638-.871 2.934-2.107h-1.479c-.213.541-.733.848-1.431.848-.911 0-1.597-.565-1.751-1.554h4.696zm-4.613-.471c.225-.848.864-1.26 1.597-1.26.804 0 1.419.46 1.561 1.26z"/><path fill="var(--illustration-gray)" d="M0 208V0h205v208z"/><path fill="var(--illustration-gray)" d="M88 240V32h152v208z"/><path fill="var(--illustration-primary)" d="M88 208V32h117v176z"/><path fill="var(--illustration-accent-1)" d="M88 80c22.091 0 40 17.909 40 40s-17.909 40-40 40-40-17.909-40-40 17.909-40 40-40"/><path fill="var(--illustration-black)" d="M88 80a40 40 0 0 1 36.955 24.693 40 40 0 0 1-21.648 52.262A40 40 0 0 1 88 160z"/><path fill="var(--illustration-black)" fill-rule="evenodd" d="M118 120c0-16.569-13.431-30-30-30-16.568 0-30 13.431-30 30s13.432 30 30 30c16.569 0 30-13.431 30-30m2 0c0-17.673-14.327-32-32-32s-32 14.327-32 32 14.327 32 32 32 32-14.327 32-32" clip-rule="evenodd"/><path fill="var(--illustration-invert)" fill-rule="evenodd" d="M43.07 155.075a57 57 0 0 1 2.987-73.673h-6.655a1 1 0 1 1 0-2h9a1 1 0 0 1 1 1v9a1 1 0 1 1-2 0v-6.507a55.001 55.001 0 0 0 68.887 84.272l1.029 1.715a57 57 0 0 1-74.249-13.807m92.666-69.748A57 57 0 0 1 132.747 159h6.656a1 1 0 0 1 0 2h-9a1 1 0 0 1-1-1v-9a1 1 0 1 1 2 0v6.507a55.003 55.003 0 0 0-30.543-91.178 55 55 0 0 0-38.344 6.906l-1.03-1.715a57 57 0 0 1 74.249 13.807" clip-rule="evenodd"/><path fill="var(--illustration-accent-1)" d="M72 208.002c-15.467 0-27.997-10.745-27.997-24.002 0 13.257-12.536 24.002-28.003 24.002 15.467 0 28.003 10.746 28.003 23.998 0-13.252 12.53-23.998 27.997-23.998m73-176c-9.114 0-16.498-7.164-16.498-16.002 0 8.838-7.388 16.002-16.502 16.002 9.114 0 16.502 7.163 16.502 15.998 0-8.835 7.384-15.998 16.498-15.998"/><path fill="var(--illustration-white)" d="M102.951 190.683c-1.635 0-2.913 1.241-2.913 2.902s1.246 2.892 2.913 2.892 2.934-1.251 2.934-2.902c0-1.641-1.245-2.892-2.934-2.892m.011 4.597c-.931 0-1.613-.723-1.613-1.694 0-.982.671-1.705 1.602-1.705.942 0 1.624.734 1.624 1.705s-.682 1.694-1.613 1.694m3.28-3.335h.812v4.425h1.299v-5.58h-2.111zm-9.473-.065c.682 0 1.223.421 1.429 1.047h1.375c-.25-1.338-1.354-2.244-2.793-2.244-1.635 0-2.913 1.241-2.913 2.903s1.245 2.892 2.913 2.892c1.407 0 2.533-.907 2.782-2.256h-1.364c-.195.626-.736 1.058-1.419 1.058-.942 0-1.602-.723-1.602-1.694 0-.982.65-1.706 1.592-1.706m34.158 1.166-.952-.14c-.455-.065-.78-.216-.78-.572 0-.389.423-.583.996-.583.628 0 1.029.27 1.115.712h1.256c-.141-1.122-1.007-1.78-2.338-1.78-1.375 0-2.285.701-2.285 1.694 0 .95.596 1.5 1.797 1.673l.953.14c.466.064.726.248.726.594 0 .442-.455.625-1.083.625-.769 0-1.202-.313-1.267-.787h-1.277c.119 1.09.974 1.856 2.533 1.856 1.419 0 2.36-.648 2.36-1.759 0-.993-.682-1.511-1.754-1.673m-23.223-4.554c-.477 0-.834.345-.834.82s.357.82.834.82c.476 0 .834-.345.834-.82s-.358-.82-.834-.82m19.066 4.209c0-1.209-.736-2.018-2.295-2.018-1.473 0-2.295.745-2.458 1.889h1.288c.065-.443.412-.81 1.148-.81.661 0 .985.292.985.648 0 .464-.595.582-1.331.658-.996.108-2.231.453-2.231 1.748 0 1.004.748 1.651 1.939 1.651.931 0 1.515-.388 1.808-1.004.043.551.454.907 1.028.907h.758v-1.155h-.639zm-1.278 1.403c0 .744-.649 1.295-1.44 1.295-.487 0-.899-.205-.899-.637 0-.55.661-.701 1.267-.766.585-.054.91-.183 1.072-.432zm-6.896-3.421c-.726 0-1.332.302-1.765.809v-3.054h-1.299v7.932h1.277v-.734a2.25 2.25 0 0 0 1.787.842c1.559 0 2.739-1.23 2.739-2.892s-1.202-2.903-2.739-2.903m-.195 4.597c-.931 0-1.613-.723-1.613-1.694s.692-1.705 1.623-1.705c.943 0 1.603.723 1.603 1.705 0 .971-.682 1.694-1.613 1.694m-5.977-4.597c-.844 0-1.397.345-1.721.831v-.724h-1.289v5.58h1.299v-3.033c0-.852.542-1.457 1.343-1.457.747 0 1.212.529 1.212 1.295v3.195h1.299v-3.291c.001-1.404-.724-2.396-2.143-2.396m26.45 2.719c0-1.597-1.169-2.719-2.739-2.719-1.667 0-2.891 1.252-2.891 2.903 0 1.737 1.31 2.892 2.913 2.892 1.353 0 2.414-.799 2.685-1.932h-1.354c-.195.497-.671.777-1.31.777-.834 0-1.462-.518-1.602-1.424h4.298zm-4.222-.432c.206-.777.79-1.154 1.461-1.154.737 0 1.3.421 1.43 1.154z"/><path fill="var(--illustration-gray)" d="M176 44h19.231v25H176z"/><path fill="var(--illustration-black)" fill-rule="evenodd" d="M195.231 57.125H176v-1.25h19.231z" clip-rule="evenodd"/><path fill="var(--illustration-black)" fill-rule="evenodd" d="M183.039 44v25h-1.25V44zm6.406 0v25h-1.25V44zm-77.208-12h32.526l.237.002c-9.114 0-16.498 7.163-16.498 15.998 0-8.835-7.388-15.998-16.502-15.998z" clip-rule="evenodd"/><path fill="var(--illustration-primary)" fill-rule="evenodd" d="M71.594 208H16.398C31.68 207.816 44 197.142 44 184c0 13.142 12.314 23.816 27.595 24" clip-rule="evenodd"/><path fill="var(--illustration-black)" fill-rule="evenodd" d="M118 120a30 30 0 0 0-18.52-27.716A30 30 0 0 0 88 90v-2a32 32 0 0 1 0 64v-2a30 30 0 0 0 21.213-8.787A30 30 0 0 0 118 120" clip-rule="evenodd"/></svg>