<svg xmlns="http://www.w3.org/2000/svg" fill="none" viewBox="0 0 240 240"><path fill="var(--illustration-gray)" d="M0 152V32h120zm240-63.8v120H120z"/><path fill="var(--illustration-positive)" d="M208 64H32v112h176z"/><path fill="var(--illustration-positive)" d="M208 64H32v112h176z"/><path fill="var(--illustration-primary)" d="m208.003 120.2-55.8 55.8h55.8zM88 64H32v56z"/><path fill="var(--illustration-black)" fill-rule="evenodd" d="M41 167V73h158v94zm2-2h154V75H43z" clip-rule="evenodd"/><path fill="var(--illustration-black)" d="M199 167H41V73h158zm-156-2h154V75H43z"/><path fill="var(--illustration-black)" fill-rule="evenodd" d="M119.5 94.5v51h-2v-51z" clip-rule="evenodd"/><path fill="var(--illustration-black)" fill-rule="evenodd" d="M143.998 121h-51.1v-2h51.1z" clip-rule="evenodd"/><path fill="var(--illustration-black)" fill-rule="evenodd" d="m138.31 101.506-38.3 38.4-1.416-1.412 38.3-38.4z" clip-rule="evenodd"/><path fill="var(--illustration-black)" fill-rule="evenodd" d="m136.894 139.906-38.3-38.4 1.416-1.412 38.3 38.4zM56 127h24v2H56zm104 0h24v2h-24zm0-16h24v2h-24zm-104 0h24v2H56z" clip-rule="evenodd"/></svg>