<svg xmlns="http://www.w3.org/2000/svg" fill="none" viewBox="0 0 240 240"><path fill="var(--illustration-accent-2)" d="M0 0h240v240H0z"/><path fill="var(--illustration-black)" d="M0 0v240h57.28L64 48 0 0Zm76 0v240h57.28L140 48 76 0Z"/><path fill="var(--illustration-black)" d="M38 112h154.75L224 240H38V112Z"/><path fill="var(--illustration-primary)" d="M127 188h16l-15 52h-16l15-52Z"/><path fill="var(--illustration-black)" d="M117.5 193.5h45v2.5l-55.25 25 10.25-27.5Z"/><path fill="var(--illustration-primary)" d="M240 100c0 55.23-49.98 100-105.2 100C79.55 200 40 155.23 40 100S84.77 0 140 0s100 44.77 100 100Z"/><path fill="var(--illustration-black)" d="M230 100c0 49.7-44.98 90-94.69 90C85.61 190 50 149.7 50 100a90 90 0 0 1 180 0Z"/><path fill="var(--illustration-white)" d="M103.87 135.45c19.84-2.5 34.07-19.22 31.78-37.35-2.28-18.13-20.22-30.8-40.06-28.3-19.84 2.5-34.07 19.23-31.78 37.36 2.29 18.13 20.22 30.8 40.06 28.29Zm82.75-19.97c18.85-3.92 31.12-21.6 27.4-39.5-3.73-17.88-22.03-29.2-40.89-25.27-18.85 3.93-31.12 21.6-27.4 39.5 3.73 17.88 22.04 29.2 40.9 25.27Z"/><path fill="var(--illustration-black)" d="M109.47 124.76c6.37-1.81 8.63-13.46 5.05-26.02-3.57-12.56-11.63-21.27-18-19.46-6.36 1.81-8.62 13.46-5.05 26.02 3.58 12.56 11.64 21.27 18 19.46Zm78-18c6.37-1.81 8.63-13.46 5.05-26.02-3.57-12.56-11.63-21.27-18-19.46-6.36 1.81-8.62 13.46-5.05 26.02 3.58 12.56 11.64 21.27 18 19.46Z"/><path fill="var(--illustration-negative)" fill-rule="evenodd" d="m151.02 151.33-2-12 3.95-.66 2 12-3.95.66Z" clip-rule="evenodd"/><path fill="var(--illustration-negative)" d="m152 143-20-14 32-6-12 20Z"/><ellipse cx="107.81" cy="54.69" fill="var(--illustration-white)" rx="14.25" ry="7.25" transform="rotate(10.319 107.815 54.685)"/><ellipse cx="154.71" cy="41.95" fill="var(--illustration-white)" rx="14.25" ry="7.25" transform="rotate(-37.68 154.71 41.948)"/></svg>