<svg xmlns="http://www.w3.org/2000/svg" fill="none" viewBox="0 0 240 240"><path fill="var(--illustration-gray)" d="M0 168h240v72H0v-72Z"/><path fill="var(--illustration-accent-4)" d="M40 40h160v8H40v-8Z"/><path fill="var(--illustration-primary)" d="M224 72.07v136H16v-136h208Z"/><path fill="var(--illustration-black)" d="M16 168h208v40.011H16V168Z"/><path fill="var(--illustration-white)" d="M36.715 90.805c0-1.932-1.467-3.442-3.431-3.442s-3.418 1.472-3.418 3.442c0 1.971 1.48 3.468 3.43 3.468 1.94 0 3.419-1.471 3.419-3.468Zm-5.434.014c0-1.1.855-1.907 2.002-1.907 1.161 0 2.015.793 2.015 1.893 0 1.114-.867 1.92-2.015 1.92-1.147 0-2.002-.806-2.002-1.906Zm3.941 3.876v.96h-5.229v1.535h6.594v-2.495h-1.365ZM35.3 83.5c0 .807-.497 1.446-1.237 1.69v1.625c1.581-.295 2.653-1.6 2.653-3.302 0-1.932-1.467-3.442-3.432-3.442-1.964 0-3.417 1.472-3.417 3.442 0 1.664 1.071 2.994 2.665 3.289v-1.613c-.74-.23-1.25-.87-1.25-1.676 0-1.114.855-1.894 2.002-1.894 1.161 0 2.016.768 2.016 1.881Zm-1.378 40.37.166-1.126c.076-.538.255-.921.676-.921.46 0 .688.499.688 1.177 0 .742-.318 1.215-.841 1.318v1.484c1.326-.167 2.104-1.19 2.104-2.764 0-1.625-.829-2.7-2.002-2.7-1.122 0-1.773.704-1.977 2.124l-.166 1.126c-.076.551-.293.858-.701.858-.523 0-.74-.538-.74-1.28 0-.908.37-1.42.931-1.497v-1.51c-1.288.141-2.193 1.152-2.193 2.994 0 1.677.765 2.79 2.079 2.79 1.173 0 1.785-.806 1.976-2.073Zm5.383-27.446c0-.563-.409-.986-.97-.986-.56 0-.969.422-.969.986 0 .563.408.985.97.985.56 0 .968-.422.968-.985Zm-4.975 22.532c1.429 0 2.385-.87 2.385-2.712 0-1.74-.88-2.713-2.232-2.905v1.523c.523.077.956.486.956 1.356 0 .781-.344 1.165-.765 1.165-.548 0-.688-.704-.778-1.574-.127-1.177-.535-2.636-2.066-2.636-1.186 0-1.95.883-1.95 2.291 0 1.1.458 1.791 1.185 2.137-.65.051-1.07.537-1.07 1.215v.896h1.364v-.755h2.971v-.001Zm-1.658-1.509c-.88 0-1.53-.768-1.53-1.702 0-.576.242-1.063.752-1.063.65 0 .829.781.905 1.498.064.691.217 1.074.51 1.267h-.637Zm4.044-8.151c0-.858-.358-1.574-.957-2.086h3.61v-1.535h-9.375v1.51h.867a2.661 2.661 0 0 0-.994 2.111c0 1.842 1.453 3.237 3.417 3.237 1.965 0 3.431-1.42 3.431-3.237Zm-5.434-.23c0-1.101.855-1.907 2.002-1.907 1.148 0 2.015.819 2.015 1.919 0 1.114-.854 1.894-2.015 1.894-1.147 0-2.002-.806-2.002-1.906Zm5.434-7.064c0-.998-.409-1.65-.983-2.034h.855v-1.523h-6.594v1.535h3.584c1.008 0 1.722.64 1.722 1.587 0 .883-.625 1.433-1.53 1.433h-3.776v1.535h3.89c1.658.001 2.831-.856 2.831-2.533Zm-3.215 31.26c1.888 0 3.214-1.382 3.214-3.238 0-1.97-1.48-3.416-3.43-3.416-2.054 0-3.418 1.548-3.418 3.442 0 1.6.944 2.853 2.282 3.173v-1.6c-.586-.23-.918-.793-.918-1.548 0-.985.612-1.728 1.684-1.894v5.08h.586v.001Zm.51-4.991c.919.244 1.365.934 1.365 1.728 0 .87-.497 1.535-1.364 1.689v-3.417Z"/><path fill="var(--illustration-gray)" d="M210.133 168.001v20.8H182.4v-20.8h27.733Z"/><path fill="var(--illustration-black)" fill-rule="evenodd" d="M195.766 188.8V168h1v20.8h-1Z" clip-rule="evenodd"/><path fill="var(--illustration-black)" fill-rule="evenodd" d="M210.132 175.434h-27.734v-1h27.734v1Zm0 6.933h-27.734v-1h27.734v1Z" clip-rule="evenodd"/><path fill="var(--illustration-accent-3)" d="M24 56.07h192v16H24v-16Z"/><path fill="var(--illustration-positive)" d="M32 48h176v8H32v-8Z"/><path fill="var(--illustration-gray)" d="M140 .07h44v40h-44v-40Zm-84 0h44v40H56v-40ZM124 24h16v16h-16V24Zm0-24h16v16h-16V0Zm-24 0h16v16h-16V0Zm0 24h16v16h-16V24Z"/><path fill="var(--illustration-white)" d="m42.526 175.046-12.669-2.734v-3.309l12.669 2.734v3.309Zm-8.175 13.929 4.76 1.736-4.76.998v-2.734Zm-4.493 3.696v3.063l12.668-2.676v-2.828a1.45 1.45 0 0 0-.256-.845 1.578 1.578 0 0 0-.673-.563l-11.74-4.964v3.474l1.893.692v4.248l-1.892.399Zm4.145-8.637c3.344.012 3.53-4.67 5.028-4.635.452.012.94.446 1.056 1.409a6.305 6.305 0 0 1-.569 3.262l2.682.575a8.808 8.808 0 0 0 .558-3.098c0-3.274-1.719-5.574-4.192-5.586-1.823-.023-2.845 1.643-3.449 2.899-.615 1.29-1.021 1.725-1.579 1.713-.847-.012-1.219-1.033-1.242-1.983a6.932 6.932 0 0 1 .801-3.403l-2.775-.599a9.964 9.964 0 0 0-.674 3.685c.012 3.473 1.719 5.75 4.355 5.761Zm8.523-13.705-12.669-5.363v-3.497l10.114-2.64a1.377 1.377 0 0 0 1.115-.786 14.194 14.194 0 0 0 1.08-3.262l.371.082v5.632c0 .364-.127.728-.36 1.01a1.534 1.534 0 0 1-.929.528l-7.326 1.396 8.627 3.45-.023 3.45Zm7.904 8.261v1.22c.035.305.012.61-.081.904a2.003 2.003 0 0 1-.453.774 2.13 2.13 0 0 1-.732.516 2.05 2.05 0 0 1-.882.153h-.058a2.133 2.133 0 0 1-.894-.153 2.175 2.175 0 0 1-.743-.516 2.048 2.048 0 0 1-.453-.786 1.992 1.992 0 0 1-.082-.904v-1.208h4.378Zm-3.936 1.197c-.024.234 0 .481.08.704.082.223.21.434.373.61a1.532 1.532 0 0 0 1.288.469h.047a1.532 1.532 0 0 0 1.289-.469 1.55 1.55 0 0 0 .36-.61c.07-.223.093-.47.058-.704v-.622H46.47v.622h.024Zm3.936 3.367v2.699H50v-2.135h-1.486v1.713h-.43v-1.713h-1.59v2.253h-.43v-2.817h4.366Zm0 3.731v1.397c0 .856-.267 1.49-1.138 1.49h-.023a.904.904 0 0 1-.593-.176.862.862 0 0 1-.336-.516c-.151.669-.476.927-1.045.927h-.024c-.824 0-1.219-.599-1.219-1.526v-1.584l4.378-.012Zm-1.905 1.385c0 .681.233.939.767.939h.023c.5 0 .697-.305.697-.951v-.821h-1.498v.833h.011Zm-2.055.188c0 .669.279.986.813.986h.023c.534 0 .801-.317.801-1.057v-.938H46.47v1.009Zm3.96 2.546v.564h-4.378v-.564h4.378Zm-.43 2.77v-1.349h.43v3.25H50v-1.349h-3.936v-.564H50v.012Z"/></svg>