<svg xmlns="http://www.w3.org/2000/svg" fill="none" viewBox="0 0 240 240"><path fill="var(--illustration-gray)" d="m32 63.9 13.1-2.8L47.9 48l2.8 13.1 13.1 2.8-13.1 2.8-2.8 13.1-2.8-13.1L32 63.9Zm128.2-40 13.1-2.8L176.1 8l2.8 13.1 13.1 2.8-13.1 2.8-2.8 13.1-2.8-13.1-13.1-2.8Z"/><path fill="var(--illustration-primary)" fill-rule="evenodd" d="m64 80 56-39.3L176 80H64Zm56-11.8c3 0 5.5-2.5 5.5-5.5s-2.5-5.5-5.5-5.5-5.5 2.5-5.5 5.5 2.5 5.5 5.5 5.5Z" clip-rule="evenodd"/><path fill="var(--illustration-primary)" d="M64 216V80h112v136H64Z"/><path fill="var(--illustration-gray)" d="M44.2 240 208.5 40l-1.3 200h-163Z"/><path fill="var(--illustration-invert)" d="M119 67c0 .6.4 1 1 1s1-.4 1-1h-2Zm2 0V0h-2v67h2Z"/><path fill="var(--illustration-gray)" d="M85 192h86v21H68.8L85 192Z"/><path fill="var(--illustration-black)" d="M64 216 176 80v136H64Z"/><path fill="var(--illustration-primary)" d="M64 176v40l36-43-36 3Z"/><path fill="var(--illustration-white)" d="M120 182a35 35 0 1 0 0-70 35 35 0 0 0 0 70Z"/><path fill="var(--illustration-black)" fill-rule="evenodd" d="M120 122a25 25 0 1 0 0 50 25 25 0 0 0 0-50Zm-27 25a27 27 0 1 1 54 0 27 27 0 0 1-54 0Z" clip-rule="evenodd"/><path fill="var(--illustration-black)" fill-rule="evenodd" d="m136.78 126.63-33 41-1.56-1.26 33-41 1.56 1.26Z" clip-rule="evenodd"/></svg>