<svg xmlns="http://www.w3.org/2000/svg" fill="none" viewBox="0 0 240 241"><path fill="var(--illustration-gray)" d="M120 152V48C62.56 48 16 94.56 16 152h104Z"/><path fill="var(--illustration-gray)" fill-rule="evenodd" d="M0 152C0 85.73 53.73 32 120 32c66.27 0 120 53.73 120 120h-24a96 96 0 0 0-96-96V40C58.14 40 8 90.14 8 152H0Z" clip-rule="evenodd"/><path fill="var(--illustration-accent-2)" fill-rule="evenodd" d="M159.95 5.46A145.77 145.77 0 0 0 120.3 0a145.6 145.6 0 0 0-40.1 5.59L120.05 152h.01l39.9-146.54Z" clip-rule="evenodd"/><path fill="var(--illustration-accent-1)" d="M208 152a88 88 0 1 1-176 0 88 88 0 0 1 176 0Z"/><path fill="var(--illustration-positive)" d="M232 76a20 20 0 0 0-20 20 20 20 0 0 0-20-20 20 20 0 0 0 20-20 20 20 0 0 0 20 20Z"/><path fill="var(--illustration-primary)" fill-rule="evenodd" d="M206.94 69.3c3.84 4.02 7.4 8.31 10.64 12.84A19.94 19.94 0 0 0 212 96a20 20 0 0 0-20-20c5.94 0 11.28-2.6 14.94-6.7Z" clip-rule="evenodd"/><path fill="var(--illustration-accent-1)" d="M71.81 16a16 16 0 0 0-16 16 16 16 0 0 0-16-16 16 16 0 0 0 16-16 16 16 0 0 0 16 16Z"/><path fill="var(--illustration-accent-2)" d="M32 224a16 16 0 0 0-16 16 16 16 0 0 0-16-16 16 16 0 0 0 16-16 16 16 0 0 0 16 16Z"/><path fill="var(--illustration-black)" fill-rule="evenodd" d="M119 53V8h2v45h-2Z" clip-rule="evenodd"/><path fill="var(--illustration-black)" fill-rule="evenodd" d="m120.3 51.89 10.59-10.6 1.42 1.42-12.01 12-12.01-12 1.41-1.42 10.6 10.6Z" clip-rule="evenodd"/><path fill="var(--illustration-primary)" fill-rule="evenodd" d="M143.17 67.08A88.1 88.1 0 0 0 120 64a88.11 88.11 0 0 0-23.08 3.06L120.05 152l23.12-84.92Z" clip-rule="evenodd"/><path fill="var(--illustration-black)" fill-rule="evenodd" d="M120 222a70 70 0 1 0 0-140 70 70 0 0 0 0 140Zm0 2a72 72 0 1 0 0-144 72 72 0 0 0 0 144Z" clip-rule="evenodd"/></svg>