<svg xmlns="http://www.w3.org/2000/svg" fill="none" viewBox="0 0 240 240"><path fill="var(--illustration-gray)" fill-rule="evenodd" d="M120 24c-53.02 0-96 42.98-96 96H0C0 53.726 53.726 0 120 0zm80 96c0 44.183-35.817 80-80 80v40c66.274 0 120-53.726 120-120z" clip-rule="evenodd"/><path fill="var(--illustration-accent-1)" d="M120 192c39.765 0 72-32.236 72-72s-32.235-72-72-72-72 32.236-72 72 32.236 72 72 72"/><path fill="var(--illustration-accent-1)" fill-rule="evenodd" d="M48 120h72V48c-39.764 0-72 32.236-72 72" clip-rule="evenodd"/><path fill="var(--illustration-positive)" fill-rule="evenodd" d="M120 120V48c-39.764 0-72 32.236-72 72z" clip-rule="evenodd"/><path fill="var(--illustration-accent-1)" d="M120 168c26.51 0 48-21.49 48-48s-21.49-48-48-48-48 21.49-48 48 21.49 48 48 48"/><path fill="var(--illustration-primary)" fill-rule="evenodd" d="M192 120h-72v72c39.765 0 72-32.236 72-72" clip-rule="evenodd"/><path fill="var(--illustration-black)" fill-rule="evenodd" d="M120 182c34.242 0 62-27.758 62-62s-27.758-62-62-62-62 27.758-62 62 27.758 62 62 62m64-62c0 35.346-28.654 64-64 64s-64-28.654-64-64 28.654-64 64-64 64 28.654 64 64" clip-rule="evenodd"/><path fill="var(--illustration-accent-1)" d="M120 160c22.091 0 40-17.909 40-40s-17.909-40-40-40-40 17.909-40 40 17.909 40 40 40"/><path fill="var(--illustration-black)" fill-rule="evenodd" d="m111.996 134.586 31.293-31.293 1.414 1.414-32.707 32.707-16.707-16.707 1.414-1.414z" clip-rule="evenodd"/></svg>