<svg xmlns="http://www.w3.org/2000/svg" fill="none" viewBox="0 0 240 240"><path fill="var(--illustration-primary)" d="M48 240h144V0H48v240Z"/><path fill="var(--illustration-black)" d="M120 14a2 2 0 1 0 0-4 2 2 0 0 0 0 4Zm8 212h-16v4h16v-4Z"/><path fill="var(--illustration-gray)" d="M48 216h144V24H48v192Z"/><path fill="var(--illustration-accent-1)" d="M192 113c26.51 0 48 21.49 48 48s-21.49 48-48 48-48-21.49-48-48 21.49-48 48-48Z"/><path fill="var(--illustration-primary)" fill-rule="evenodd" d="M192 113c-26.51 0-48 21.49-48 48s21.49 48 48 48v-96Z" clip-rule="evenodd"/><path fill="var(--illustration-white)" d="M228 161c0 19.882-16.118 36-36 36s-36-16.118-36-36 16.118-36 36-36 36 16.118 36 36Z"/><path fill="var(--illustration-black)" fill-rule="evenodd" d="M100.072 182c18.778 0 34-15.222 34-34s-15.222-34-34-34-34 15.222-34 34 15.222 34 34 34Zm0 2c19.882 0 36-16.118 36-36s-16.118-36-36-36-36 16.118-36 36 16.118 36 36 36Z" clip-rule="evenodd"/><path fill="var(--illustration-white)" d="M184 82c0 15.464-12.536 28-28 28s-28-12.536-28-28 12.536-28 28-28 28 12.536 28 28ZM96 52c0 11.046-8.954 20-20 20s-20-8.954-20-20 8.954-20 20-20 20 8.954 20 20Zm32.072 96c0 15.464-12.536 28-28 28s-28-12.536-28-28 12.536-28 28-28 28 12.536 28 28Z"/><path fill="var(--illustration-white)" fill-rule="evenodd" d="M100.072 174c14.359 0 26-11.641 26-26s-11.641-26-26-26c-14.36 0-26 11.641-26 26s11.64 26 26 26Zm0 2c15.464 0 28-12.536 28-28s-12.536-28-28-28-28 12.536-28 28 12.536 28 28 28Z" clip-rule="evenodd"/><path fill="var(--illustration-black)" fill-rule="evenodd" d="M156 100c9.941 0 18-8.059 18-18s-8.059-18-18-18-18 8.059-18 18 8.059 18 18 18Zm0 2c11.046 0 20-8.954 20-20s-8.954-20-20-20-20 8.954-20 20 8.954 20 20 20ZM90 52c0 7.732-6.268 14-14 14s-14-6.268-14-14 6.268-14 14-14 14 6.268 14 14ZM76 64c6.627 0 12-5.373 12-12s-5.373-12-12-12-12 5.373-12 12 5.373 12 12 12Z" clip-rule="evenodd"/><path fill="var(--illustration-gray)" d="M80 52a4 4 0 1 1-8 0 4 4 0 0 1 8 0Zm32.072 96c0 6.627-5.373 12-12 12-6.628 0-12-5.373-12-12s5.372-12 12-12c6.627 0 12 5.373 12 12Z"/><path fill="var(--illustration-gray)" d="M104.072 148a4 4 0 1 1-8 0 4 4 0 0 1 8 0Z"/><path fill="var(--illustration-black)" fill-rule="evenodd" d="M100.072 145a3 3 0 1 0-.001 6 3 3 0 0 0 .001-6Zm-5 3a5 5 0 1 1 9.999 0 5 5 0 0 1-10 0Z" clip-rule="evenodd"/><path fill="var(--illustration-gray)" d="M160.5 82a4 4 0 1 1-8 0 4 4 0 0 1 8 0Z"/><path fill="var(--illustration-black)" fill-rule="evenodd" d="M156.5 79a3 3 0 1 0 0 6 3 3 0 0 0 0-6Zm-5 3a5 5 0 1 1 10 0 5 5 0 0 1-10 0ZM88.392 45.548l42.5 84-1.784.903-42.5-84 1.784-.903Z" clip-rule="evenodd"/><path fill="var(--illustration-black)" fill-rule="evenodd" d="m139.865 74.002-41.5 71.5-1.73-1.004 41.5-71.5 1.73 1.004Zm27.272 24.769-63 52-1.274-1.542 63-52 1.274 1.542ZM64 51.48l2 98-2 .04-2-98 2-.04ZM192.083 138c-3.764 0-7 3.448-7 7.941V155h14v-9.059c0-4.493-3.237-7.941-7-7.941Zm-9 7.941c0-5.382 3.928-9.941 9-9.941 5.071 0 9 4.559 9 9.941V157h-18v-11.059Z" clip-rule="evenodd"/><path fill="var(--illustration-primary)" d="M212 152h-40v32h40v-32Z"/><path fill="var(--illustration-black)" d="M192 168a4 4 0 1 0 0-8 4 4 0 0 0 0 8Z"/><path fill="var(--illustration-black)" fill-rule="evenodd" d="M191 176v-12h2v12h-2Z" clip-rule="evenodd"/><path fill="var(--illustration-gray)" d="M48 0H0v24h48V0Zm0 216H0v24h48v-24Z"/></svg>