<svg xmlns="http://www.w3.org/2000/svg" fill="none" viewBox="0 0 240 240"><path fill="var(--illustration-gray)" d="M208 32H32v208h176V32Z"/><path fill="var(--illustration-gray)" d="M184 0H56v224h128V0Z"/><path fill="var(--illustration-primary)" d="M184 32H56v192h128V32Z"/><path fill="var(--illustration-accent-1)" d="M152 88c0 5.8-1.6 11.3-4.3 16-5.5 9.6-15.9 16-27.7 16-11.8 0-22.2-6.4-27.7-16-2.7-4.7-4.3-10.2-4.3-16 0-17.7 14.3-32 32-32s32 14.3 32 32Z"/><path fill="var(--illustration-white)" fill-rule="evenodd" d="M151.17 105.99C154.197 100.719 156 94.537 156 88c0-19.91-16.091-36-36-36S84 68.09 84 88c0 6.537 1.802 12.718 4.83 17.989A35.897 35.897 0 0 0 120 124c13.271 0 24.976-7.2 31.17-18.01ZM92.3 104c5.5 9.6 15.9 16 27.7 16 11.8 0 22.2-6.4 27.7-16 2.7-4.7 4.3-10.2 4.3-16 0-17.7-14.3-32-32-32S88 70.3 88 88c0 5.8 1.6 11.3 4.3 16Z" clip-rule="evenodd"/><path fill="var(--illustration-black)" fill-rule="evenodd" d="M92.3 104c5.5-9.6 15.9-16 27.7-16 11.9 0 22.2 6.4 27.7 16-5.5 9.6-15.9 16-27.7 16-11.8 0-22.2-6.4-27.7-16Z" clip-rule="evenodd"/><path fill="var(--illustration-black)" d="M120 86.9c6.1 0 11-4.9 11-11s-4.9-11-11-11-11 4.9-11 11 4.9 11 11 11Z"/><path fill="var(--illustration-black)" fill-rule="evenodd" d="M152 145H88v-2h64v2Zm-48 16H88v-2h16v2Zm48 0h-40v-2h40v2Zm-48 8H88v-2h16v2Zm48 0h-40v-2h40v2Zm-48 8H88v-2h16v2Zm48 0h-40v-2h40v2Z" clip-rule="evenodd"/><path fill="var(--illustration-accent-4)" d="M152 192h-40v8h40v-8Zm-48 0H88v8h16v-8Z"/><path fill="var(--illustration-white)" d="M80 136c-4.4 0-8 3.6-8 8 0-4.4-3.6-8-8-8 4.4 0 8-3.6 8-8 0 4.4 3.6 8 8 8Zm96-88c-4.4 0-8 3.6-8 8 0-4.4-3.6-8-8-8 4.4 0 8-3.6 8-8 0 4.4 3.6 8 8 8Zm0 160c-4.4 0-8 3.6-8 8 0-4.4-3.6-8-8-8 4.4 0 8-3.6 8-8 0 4.4 3.6 8 8 8Z"/></svg>