<svg xmlns="http://www.w3.org/2000/svg" fill="none" viewBox="0 0 240 240"><path fill="var(--illustration-gray)" d="M216 0H0v144h216z"/><path fill="var(--illustration-gray)" d="M240 32H24v144h216z"/><path fill="var(--illustration-primary)" d="M24 40c0-4.4 3.6-8 8-8h184v104c0 4.4-3.6 8-8 8H24z"/><path fill="var(--illustration-black)" d="M24 52h192v25H24z"/><path fill="var(--illustration-white)" d="M40 88h72v8H40zm0 16h48v8H40z"/><path fill="var(--illustration-black)" fill-rule="evenodd" d="M72 121H56v-2h16zm-16 0H40v-2h16zm40 0H80v-2h16zm48-34h57v18h-57zm2 2v14h53V89z" clip-rule="evenodd"/><path fill="var(--illustration-primary)" d="M119.898 240c22.092 0 40-17.909 40-40s-17.908-40-40-40-40 17.909-40 40 17.909 40 40 40"/><path fill="var(--illustration-accent-1)" d="m119.898 177.4 28.6 40h-57.1z"/><path fill="var(--illustration-black)" d="M121.097 205.1h-2.2l-1.1-16.3h4.4zm-1.093 7c1.2 0 2.2-1 2.2-2.3s-1-2.3-2.2-2.3-2.2 1-2.2 2.3c-.1 1.2.9 2.3 2.2 2.3"/></svg>