<svg xmlns="http://www.w3.org/2000/svg" fill="none" viewBox="0 0 240 240"><path fill="var(--illustration-accent-2)" d="M200 40H40v160h160V40Z"/><path fill="var(--illustration-black)" d="M104 136H72v12h32v-12Zm-32 0h-2v40h2v-40Z"/><path fill="var(--illustration-black)" d="M104 136h-2v40h2v-40Zm-40 48a8 8 0 1 0 0-16 8 8 0 0 0 0 16Z"/><path fill="var(--illustration-black)" d="M96 184a8 8 0 1 0 0-16 8 8 0 0 0 0 16Zm8-48H72v12h32v-12Zm-32 0h-2v40h2v-40Z"/><path fill="var(--illustration-black)" d="M104 136h-2v40h2v-40Zm-40 48a8 8 0 1 0 0-16 8 8 0 0 0 0 16Z"/><path fill="var(--illustration-black)" d="M96 184a8 8 0 1 0 0-16 8 8 0 0 0 0 16Z"/><path fill="var(--illustration-accent-1)" d="M200 40h-80v80h80V40Z"/><path fill="var(--illustration-primary)" d="M120 0H0v120h120V0Z"/><path fill="var(--illustration-positive)" d="M240 120H120v120h120V120Z"/><path fill="var(--illustration-black)" d="M200 120h-80v80h80v-80Z"/><path fill="var(--illustration-gray-2)" d="M120 40H40v80h80V40Z"/><path fill="var(--illustration-invert-2)" d="M64 64H40l24-24v24Z"/><path fill="var(--illustration-primary)" d="m28 28 36 12-24 24-12-36Z"/><path fill="var(--illustration-accent-2)" d="M160 108c15.464 0 28-12.536 28-28s-12.536-28-28-28-28 12.536-28 28 12.536 28 28 28Z"/><path fill="var(--illustration-black)" d="M160.002 80c5.467 0 9.9-4.432 9.9-9.9 0-5.467-4.433-9.9-9.9-9.9-5.468 0-9.9 4.433-9.9 9.9 0 5.468 4.432 9.9 9.9 9.9Zm.001 0c-10.9 0-19.8 8.8-19.8 19.8v.1c5.1 5 12 8.2 19.8 8.2 7.7 0 14.7-3.1 19.8-8.2v-.1c0-11-8.9-19.8-19.8-19.8Z"/><path fill="var(--illustration-primary)" d="M160 188c15.464 0 28-12.536 28-28s-12.536-28-28-28-28 12.536-28 28 12.536 28 28 28Z"/><path fill="var(--illustration-invert-2)" d="m175.603 160-24.9 12.4v-24.8l24.9 12.4Z"/><path fill="var(--illustration-invert)" fill-rule="evenodd" d="M223 17h-47v-2h49v210H96v-2h127V17ZM15 15h129v2H17v206h47v2H15V15Zm64 217v-16h2v16h-2Z" clip-rule="evenodd"/><path fill="var(--illustration-invert)" fill-rule="evenodd" d="M72 223h16v2H72v-2Zm87-199V8h2v16h-2Z" clip-rule="evenodd"/><path fill="var(--illustration-invert)" fill-rule="evenodd" d="M152 15h16v2h-16v-2Z" clip-rule="evenodd"/></svg>