<svg xmlns="http://www.w3.org/2000/svg" fill="none" viewBox="0 0 240 240"><path fill="var(--illustration-accent-1)" d="M80 56h144v88c0 8.837-7.163 16-16 16H80z"/><path fill="var(--illustration-accent-2)" d="M16 48c0-8.837 7.163-16 16-16h128v88c0 8.837-7.163 16-16 16H16z"/><path fill="var(--illustration-black)" fill-rule="evenodd" d="M69 61H29v-2h40zm0 12H29v-2h40zm0 12H29v-2h40zm0 12H29v-2h40z" clip-rule="evenodd"/><path fill="var(--illustration-primary)" d="M80 72c0-8.837 7.163-16 16-16h64v64c0 8.837-7.163 16-16 16H80z"/><path fill="var(--illustration-accent-1)" d="M176 160h24l-12 16z"/><path fill="var(--illustration-accent-2)" d="M40 136h24l-12 16z"/><circle cx="108" cy="96" r="4" fill="var(--illustration-white)"/><circle cx="120" cy="96" r="4" fill="var(--illustration-white)"/><circle cx="132" cy="96" r="4" fill="var(--illustration-white)"/><path fill="var(--illustration-accent-2)" d="M227.999 24c0-6.629 5.372-11.999 12.001-11.999-6.629 0-12.001-5.372-12.001-12.001 0 6.629-5.373 12.001-11.999 12.001 6.626 0 11.999 5.37 11.999 11.999"/><path fill="var(--illustration-accent-1)" d="M8 168a8 8 0 0 1 8-7.999A8 8 0 0 1 8 152a8 8 0 0 1-8 8.001A8 8 0 0 1 8 168"/><path fill="var(--illustration-black)" fill-rule="evenodd" d="M212 101h-40v-2h40zm0 12h-40v-2h40zm0 12h-40v-2h40zm0 12h-40v-2h40z" clip-rule="evenodd"/><circle cx="188" cy="212" r="28" fill="var(--illustration-accent-1)"/><circle cx="188.01" cy="200.34" r="9.11" fill="var(--illustration-black)"/><path fill="var(--illustration-black)" d="M166.969 224.626a24.277 24.277 0 0 1 42.059 0c-4.198 7.255-12.044 12.136-21.029 12.136-8.986 0-16.831-4.881-21.03-12.136"/><circle cx="52" cy="212" r="28" fill="var(--illustration-accent-2)"/><circle cx="52.01" cy="200.34" r="9.11" fill="var(--illustration-black)"/><path fill="var(--illustration-black)" d="M30.969 224.626a24.279 24.279 0 0 1 42.06 0c-4.2 7.255-12.045 12.136-21.03 12.136s-16.832-4.881-21.03-12.136"/></svg>