<svg xmlns="http://www.w3.org/2000/svg" fill="none" viewBox="0 0 240 240"><path fill="var(--illustration-gray)" d="M200 0H40v176h160V0Z"/><path fill="var(--illustration-gray)" d="M184 16H56v160.2h128V16Z"/><path fill="var(--illustration-primary)" d="M184 16H56v160.3h128V16Z"/><path fill="var(--illustration-primary)" d="M184 56H56v120h128V56Z"/><path fill="var(--illustration-positive)" d="M120.003 239.3c21.705 0 39.3-17.595 39.3-39.3s-17.595-39.3-39.3-39.3-39.3 17.595-39.3 39.3 17.595 39.3 39.3 39.3Z"/><path fill="var(--illustration-black)" d="M88.797 176.2h62.5c-7.2-9.4-18.5-15.5-31.2-15.5s-24.2 6.1-31.3 15.5Z"/><path fill="var(--illustration-black)" fill-rule="evenodd" d="M119 216v-32h2v32h-2Z" clip-rule="evenodd"/><path fill="var(--illustration-black)" fill-rule="evenodd" d="M104 199h32v2h-32v-2Zm-33.002-88h18v2h-16v6h16v9.994l-17.994.106-.012-2 16.006-.094V121h-16v-10Z" clip-rule="evenodd"/><path fill="var(--illustration-black)" fill-rule="evenodd" d="M79 112v-8h2v8h-2Zm0 24v-8h2v8h-2Zm89-70.5H72v-2h96v2Zm-57.3-9.8H72v-2h38.7v2ZM96 81H72v-2h24v2Zm0 8H72v-2h24v2Zm72 0h-56v-2h56v2Zm0-8h-56v-2h56v2Zm0 64H72v-2h96v2ZM71 32h77.1v9.2H71V32Zm2 2v5.2h73.1V34H73Zm56.908 78.947a.492.492 0 0 0-.161.047l-.008.004-.007.004c-12.232 5.867-23.364 12.925-33.1 20.873l-1.265-1.55c9.863-8.051 21.128-15.191 33.494-21.124a2.473 2.473 0 0 1 2.378.099c.318.198.638.511.791.949a1.55 1.55 0 0 1-.201 1.409l-10.006 15.482 15.427-8.672.535.504c2.416 2.276 6.036 3.838 10.023 4.478 3.98.639 8.229.344 11.846-.988l.691 1.876c-3.982 1.468-8.584 1.773-12.854 1.087-3.989-.641-7.774-2.16-10.525-4.503l-14.637 8.228c-.704.47-1.55.398-2.131.073a1.732 1.732 0 0 1-.777-.866 1.55 1.55 0 0 1 .11-1.353l.014-.024 10.363-16.033Z" clip-rule="evenodd"/></svg>