<svg xmlns="http://www.w3.org/2000/svg" fill="none" viewBox="0 0 240 240"><path fill="var(--illustration-gray)" d="M61 0h124a20 20 0 0 1 20 20v144a20 20 0 0 1-20 20H61V0Z"/><path fill="var(--illustration-primary)" d="M45 0h124a20 20 0 0 1 20 20v144a20 20 0 0 1-20 20H45V0Z"/><path fill="var(--illustration-accent-1)" d="m117 168 42 72H75l42-72Z"/><path fill="var(--illustration-black)" fill-rule="evenodd" d="M57 33H34v-2h23v2Zm0 40H34v-2h23v2Zm0 40H34v-2h23v2Zm0 40H34v-2h23v2Zm0-109H34v-2h23v2Zm0 40H34v-2h23v2Zm0 40H34v-2h23v2Zm0 40H34v-2h23v2Zm0-142H34v-2h23v2Zm0 40H34v-2h23v2Zm0 40H34v-2h23v2Zm0 40H34v-2h23v2Zm100.5-13H77v-2h80.5v2Zm-7.5 16H84v-2h66v2Z" clip-rule="evenodd"/><path fill="var(--illustration-accent-2)" d="M161 68a43.98 43.98 0 0 1-44 44 44.04 44.04 0 0 1-38.1-21.99 44 44 0 1 1 82.11-22Z"/><path fill="var(--illustration-black)" fill-rule="evenodd" d="M79 90a43.97 43.97 0 0 1 38.1-22c16.3 0 30.53 8.85 38.13 22v.01a44.04 44.04 0 0 1-76.23 0Z" clip-rule="evenodd"/><path fill="var(--illustration-black)" d="M116.5 65a14.5 14.5 0 1 0 0-29 14.5 14.5 0 0 0 0 29Zm9.83 119h-18.67l9.34-16 9.33 16ZM119 217.4h-3.3L114 193h6.6l-1.6 24.4Zm-1.7 10.5c1.8 0 3.3-1.6 3.3-3.5s-1.5-3.5-3.3-3.5c-1.8 0-3.3 1.6-3.3 3.5s1.5 3.5 3.3 3.5Z"/></svg>