<svg xmlns="http://www.w3.org/2000/svg" fill="none" viewBox="0 0 240 240"><path fill="var(--illustration-gray)" d="M160 222c0 5.523-4.477 10-10 10H0v-80h160v70Z"/><path fill="var(--illustration-invert)" fill-rule="evenodd" d="M128 47v1h-1a1 1 0 0 1 1-1Zm0 1.962h-1V48h1v-1h1.02v2h-1.019l-.001-.038Zm5.169.038v-2h2.083v2h-2.083Zm6.228 0v-2h2.079v2h-2.079Zm6.232 0v-2h2.074v2h-2.074Zm6.22 0v-2h2.074v2h-2.074Zm6.222 0v-2h2.075v2h-2.075Zm6.225 0v-2h2.075v2h-2.075Zm6.223 0v-2h2.075v2h-2.075Zm6.226 0v-2h2.076v2h-2.076Zm6.226 0v-2H184a1 1 0 0 1 0 2h-1.029ZM129 54.854h-2v-1.96h2v1.96Zm0 5.904h-2v-1.986h2v1.986Zm0 5.907h-2v-1.992h2v1.992Zm0 5.873h-2v-1.95h2v1.95Zm0 5.908h-2V76.47h2v1.975Zm0 5.888h-2V82.38h2v1.955Zm0 5.909h-2v-1.977h2v1.977Zm0 5.89h-2v-1.964h2v1.964Zm0 5.896h-2v-1.962h2v1.962Zm0 5.899h-2v-1.967h2v1.967Zm0 5.897h-2v-1.966h2v1.966Zm0 5.898h-2v-1.968h2v1.968Zm0 5.897h-2v-1.967h2v1.967Zm0 5.891h-2v-1.958h2v1.958Zm0 5.904h-2v-1.969h2v1.969Zm0 5.899h-2v-1.971h2v1.971Zm0 5.885h-2v-1.952h2v1.952Zm0 5.913h-2v-1.981h2v1.981Zm0 4.888a1 1 0 0 1-2 0v-.96h2v.96Zm-9-137v1h1a1 1 0 0 0-1-1Zm-.941 1v-1H120v1h1v.968h-1V25h-.941v-.032H119V24h.059Zm-3.812 1v-2h-1.904v2h1.904Zm-5.716 0v-2h-1.908v2h1.908Zm-5.717 0v-2h-1.905v2h1.905Zm-5.718 0v-2h-1.905v2h1.905Zm-5.716 0v-2h-1.905v2h1.906Zm-5.716 0v-2h-1.903v2h1.903Zm-5.717 0v-2H80a1 1 0 1 0 0 2h.947ZM119 30.86h2v-1.984h-2v1.983Zm0 5.914h2V34.8h-2v1.973Zm0 5.95h2v-2.01h-2v2.01Zm0 5.88h2v-1.939h-2v1.94Zm0 5.927h2v-1.98h-2v1.98Zm0 5.928h2v-1.991h-2v1.991Zm0 5.902h2v-1.967h-2v1.967Zm0 5.912h2v-1.955h-2v1.955Zm0 5.915h2v-1.963h-2v1.963Zm0 5.917h2v-1.968h-2v1.968Zm0 5.917h2v-1.97h-2v1.97Zm0 5.916h2v-1.971h-2v1.971Zm0 5.916h2v-1.972h-2v1.972Zm0 5.915h2v-1.97h-2v1.97Zm0 5.915h2v-1.969h-2v1.969Zm0 5.914h2v-1.967h-2v1.967Zm0 5.911h2v-1.962h-2v1.962Zm0 5.914h2v-1.961h-2v1.961Zm0 5.922h2v-1.971h-2v1.971Zm0 5.923h2v-1.988h-2v1.988Zm0 5.918h2v-1.984h-2v1.984Zm0 5.902h2v-1.957h-2v1.957Zm0 4.912a1 1 0 0 0 2 0v-.961h-2V160Zm-7-57v1h1a1 1 0 0 0-1-1Zm-.938 1H111v1.029h2V104h-1v-1h-.938v1Zm-3.812 1v-2h-1.908v2h1.908Zm-5.725 0v-2h-1.902v2h1.902Zm-5.712 0v-2h-1.906v2h1.906Zm-5.718 0v-2h-1.904v2h1.904Zm-5.718 0v-2H82.47v2h1.907Zm-5.71 0v-2H76.75v2h1.916Zm-5.722 0v-2H72a1 1 0 0 0 0 2h.945ZM111 111.243h2v-2.069h-2v2.069Zm0 6.233h2v-2.071h-2v2.071Zm0 6.224h2v-2.076h-2v2.076Zm0 6.225h2v-2.074h-2v2.074Zm0 6.223h2v-2.075h-2v2.075Zm0 4.151v2.075h2v-2.075h-2Zm0 8.296h2v-2.074h-2v2.074Zm0 4.148v2.076h2v-2.076h-2Zm0 7.257a1 1 0 0 0 2 0v-1.023h-2V160Zm25-49v1h-1a1 1 0 0 1 1-1Zm0 1.984h-1V112h1v-1h1.031v2h-1.03l-.001-.016Zm5.174.016v-2h2.074v2h-2.074Zm6.22 0v-2h2.076v2h-2.076Zm6.227 0v-2h2.075v2h-2.075Zm6.227 0v-2h2.076v2h-2.076Zm6.226 0v-2h2.075v2h-2.075Zm6.227 0v-2h2.075v2h-2.075Zm6.226 0v-2h2.075v2h-2.075Zm6.228 0v-2h2.076v2h-2.076Zm6.222 0v-2H192a1 1 0 0 1 0 2h-1.023ZM137 118.992h-2v-2.006h2v2.006Zm0 6.008h-2v-2.007h2V125Zm0 5.996h-2v-2h2v2Zm0 6.003h-2v-2.001h2v2.001Zm0 6.003h-2v-2.001h2v2.001Zm0 6.004h-2v-2.002h2v2.002Zm0 6.001h-2v-1.999h2v1.999Zm0 4.993a1 1 0 0 1-2 0v-.989h2V160Z" clip-rule="evenodd"/><path fill="var(--illustration-gray)" d="M240 240H72v-80h168v80Z"/><path fill="var(--illustration-primary)" fill-rule="evenodd" d="M168 168v64H72v-64h96Z" clip-rule="evenodd"/><path fill="var(--illustration-black)" d="M140 184h28v32h-28v-32Z"/><path fill="var(--illustration-primary)" d="M168 184h8v32h-8v-32Z"/><path fill="var(--illustration-black)" fill-rule="evenodd" d="M159.998 160H80.812a9.001 9.001 0 0 0-8.945 8h88.131v-8Z" clip-rule="evenodd"/><path fill="var(--illustration-white)" d="m154 194 6 6-6 6-6-6 6-6Z"/><path fill="var(--illustration-primary)" d="M16 78a6 6 0 0 1 6-6h52a6 6 0 0 1 6 6v52a6 6 0 0 1-6 6H22a6 6 0 0 1-6-6V78Z"/><path fill="var(--illustration-black)" d="M70.787 120.959c.057.562.072 1.114.043 1.661a11.196 11.196 0 0 0-6.03-4.47l-.453-4.324C61.059 91.69 45.4 88.884 42.297 88.54 44.92 85.868 49.16 84.325 53 85.384c.544.152 1.065.338 1.56.565a11.242 11.242 0 0 0-4.899 2.462 10.553 10.553 0 0 1 10.052 1.398 11.212 11.212 0 0 0-4.453.953 10.543 10.543 0 0 1 8.287 3.746 11.24 11.24 0 0 0-4.874-.026 10.54 10.54 0 0 1 7.173 3.78c.361.433.68.885.957 1.355a11.247 11.247 0 0 0-4.96-.825 10.551 10.551 0 0 1 6.409 5.031c.278.493.51.997.696 1.507a11.251 11.251 0 0 0-4.68-1.704 10.545 10.545 0 0 1 5.53 5.971c.195.529.344 1.062.45 1.597a11.2 11.2 0 0 0-3.835-2.253 10.531 10.531 0 0 1 4.445 7.915 11.176 11.176 0 0 0-3.668-2.795 10.547 10.547 0 0 1 3.596 6.898Z"/><path fill="var(--illustration-gray)" d="M43.638 93.471a1.912 1.912 0 0 0-.166.41l-.046.16c-.026.095-.06.178-.106.255a1.08 1.08 0 0 0 .103-.255l.046-.16c.04-.146.098-.284.17-.41Zm.249-.341Zm.672-.458Z"/><path fill="var(--illustration-white)" d="M55.739 106.907c-.003-.003-.003-.005-.003-.008-.02-.138-.046-.272-.071-.407a31.03 31.03 0 0 0-.164-.796c-.014-.086-.034-.169-.054-.252a47.717 47.717 0 0 0-.069-.286c-.02-.078-.037-.152-.057-.227a24.98 24.98 0 0 0-.203-.741 20.168 20.168 0 0 0-.227-.73c-.037-.112-.077-.221-.114-.33-.08-.232-.163-.455-.252-.678-.043-.109-.086-.221-.132-.33l-.137-.323a21.922 21.922 0 0 0-.441-.934 16.534 16.534 0 0 0-.647-1.174 9.958 9.958 0 0 0-.35-.553 5.518 5.518 0 0 0-.18-.272c-.06-.088-.12-.177-.183-.266a5.59 5.59 0 0 0-.19-.26 17.172 17.172 0 0 0-1.005-1.246 18.601 18.601 0 0 0-1.306-1.349c-.074-.072-.151-.14-.229-.212-.077-.072-.154-.14-.232-.21-.08-.07-.157-.14-.237-.208a16.377 16.377 0 0 0-.481-.404 21.236 21.236 0 0 0-.493-.395c-.083-.063-.166-.129-.252-.192a24.554 24.554 0 0 0-.776-.57c-.169-.12-.34-.237-.515-.358a24.26 24.26 0 0 0-.533-.355 1.902 1.902 0 0 0-.484-.223 1.734 1.734 0 0 0-.762-.052 1.119 1.119 0 0 0-.134.026c-.046.009-.092.02-.135.034-.043.015-.086.029-.129.046a1.755 1.755 0 0 0-.36.19.652.652 0 0 0-.118.085 1.633 1.633 0 0 0-.198.183c-.094.1-.177.215-.246.341a1.917 1.917 0 0 0-.166.41l-.046.16a1.017 1.017 0 0 1-.26.455 1.038 1.038 0 0 1-1.412.035.964.964 0 0 1-.155-.184.957.957 0 0 1-.117-.229l-2.36-6.543c.014.043.026.086.037.129a6.956 6.956 0 0 1 .144.533c.011.04.02.08.028.12.023.094.04.186.055.275.017.091.031.177.043.263l.008.063c.009.086.017.169.02.25.003.042.003.082.003.122 0 .055-.003.106-.006.158a2.245 2.245 0 0 1-.02.154l-.017.086a.912.912 0 0 1-.06.164l-.017.031a.53.53 0 0 1-.115.146.456.456 0 0 1-.194.103.844.844 0 0 1-.857-.229l-.046-.049a.881.881 0 0 1-.074-.094c-.051-.072-.077-.123-.077-.123l-.095.12-1.13 1.412-1.135 1.412-.003-.003-3.55 4.418c-.213.264-.29.61-.215.942l.303 1.32-6.26 8.947a2.965 2.965 0 0 0-.478 2.273l.195.983a3.204 3.204 0 0 0 2.434 2.505l1.566.358a3.205 3.205 0 0 0 2.463-.435l.985-.639c.34-.223.547-.601.547-1.008v-.612l1.976-5.307c.212.212 1.503 1.466 3.388 1.822 1.01.191 2.19.126 3.468-.499.237-.114.46-.24.672-.369l.207-.132h.002a5.27 5.27 0 0 0 .335-.238c.07-.048.135-.1.198-.154a.493.493 0 0 0 .069-.057 2.82 2.82 0 0 0 .212-.184 4.368 4.368 0 0 0 .246-.232 3.88 3.88 0 0 0 .152-.157c.051-.052.097-.106.143-.158l.135-.16c.043-.054.086-.109.126-.163.042-.055.083-.109.123-.166.114-.164.223-.333.32-.499.098-.169.184-.338.264-.507.498-1.073.644-2.144.67-2.949a6.821 6.821 0 0 0-.077-1.326h.002l.003.003a1.944 1.944 0 0 1 .287.243 3.362 3.362 0 0 1 .427.487 5.27 5.27 0 0 1 .722 1.337c.188.504.337 1.112.4 1.839.023.24.034.495.034.765 0 .733-.086 1.449-.24 2.139a10.884 10.884 0 0 1-.338 1.214c-.012.04-.026.077-.04.117a12.85 12.85 0 0 1-.41 1.034c-.163.372-.343.733-.532 1.08a15.44 15.44 0 0 1-.587.996c-.05.083-.1.163-.155.244a7.23 7.23 0 0 1-.25.369 19.69 19.69 0 0 1-2.451 2.918c-.04.04-.08.077-.114.112a4.9 4.9 0 0 1-.186.172c-.006.008-.012.011-.017.017h-.003a7.272 7.272 0 0 1-.209.24c-3.219 3.594-6.443 4.51-8.342 9.135h20.303l.59-1.875c1.186-6.678 1.297-11.83.61-15.914Zm-27.82 4.359-.438.598a.344.344 0 0 1-.613-.137l-.26-1.32a1.004 1.004 0 0 1 .469-1.057.482.482 0 0 1 .624.112l.19.237c.36.456.372 1.1.028 1.567Zm8.201-13.015a1.914 1.914 0 0 1-1.867.678 1.92 1.92 0 0 1 .26-1.967 1.91 1.91 0 0 1 1.868-.679 1.906 1.906 0 0 1-.26 1.968Zm14.427 21.861-6.116.584c-.562.051-.86-.647-.433-1.014 1.426-1.234 3.01-2.354 4.593-4.121 1.02-1.139 1.673-2.428 2.088-3.688.109-.327.587-.275.618.071l.608 6.527a1.507 1.507 0 0 1-1.358 1.641Z"/><path fill="var(--illustration-white)" d="M27.888 109.7c.361.455.372 1.099.029 1.566l-.438.598a.344.344 0 0 1-.613-.137l-.26-1.32a1.005 1.005 0 0 1 .469-1.057.482.482 0 0 1 .624.112l.19.238Zm6.366-10.77a1.92 1.92 0 0 1 .26-1.968 1.91 1.91 0 0 1 1.867-.679 1.914 1.914 0 0 1-2.128 2.646Zm1.366-6.31-.003-.002 1.134-1.412.02-.023 1.114-1.386-1.13 1.412-1.135 1.412Zm3.539-4.916c-.02-.06-.037-.123-.057-.183l.02.054c.014.043.025.086.037.129Zm3.647 27.6c-.005.008-.011.011-.017.017l.014-.017h.003Zm.62-21.263c-.026.095-.06.178-.106.255a1.08 1.08 0 0 0 .103-.255l.046-.16c.04-.146.098-.284.17-.41a1.912 1.912 0 0 0-.167.41l-.046.16Zm.461-.911Zm.672-.458Zm1.68 7.568h-.005v-.005l.005.005Zm.309 10.253Zm.404-9.525a4.656 4.656 0 0 0-.358-.418c.109.106.232.247.358.418Zm.128 8.445Zm.592-7.107Zm-.016 5.558Zm.211-.816a9.97 9.97 0 0 0 .238-2.139c0-.27-.012-.522-.032-.765.023.241.035.495.035.765 0 .733-.086 1.449-.24 2.139ZM44 119.682c1.425-1.234 3.009-2.354 4.592-4.121 1.02-1.139 1.673-2.428 2.088-3.688.109-.326.587-.275.619.072l.607 6.526a1.507 1.507 0 0 1-1.358 1.641l-6.116.584c-.562.051-.86-.647-.433-1.014Zm-5.035-11.497-2.15 1.397-3.213 2.088 1.976-5.307c.211.212 1.503 1.466 3.387 1.822Z"/><path fill="var(--illustration-black)" d="M39.457 89.33c0 .055-.002.106-.005.158a2.243 2.243 0 0 1-.02.155l-.018.086a.912.912 0 0 1-.06.163l-.017.031a.53.53 0 0 1-.114.146.456.456 0 0 1-.195.103.844.844 0 0 1-.856-.229l-.046-.048a1.516 1.516 0 0 1-.075-.095c-.048-.071-.074-.123-.074-.123h-.003c-.054-.126-1.257-2.775-.364-5.819 0 0 .464.937.925 2.088l.567 1.572v.003l.018.054c.014.043.025.086.037.129a6.86 6.86 0 0 1 .143.533l.029.12c.023.094.04.186.054.275a5.06 5.06 0 0 1 .051.326c.01.086.018.17.02.25.003.042.003.082.003.123Zm-11.54 21.936-.438.598a.344.344 0 0 1-.613-.137l-.26-1.32a1.005 1.005 0 0 1 .469-1.057.482.482 0 0 1 .624.112l.19.238c.36.455.372 1.099.028 1.566Z"/><path fill="var(--illustration-gray)" d="M48.11 104.909c0 .733-.086 1.449-.24 2.139a11.206 11.206 0 0 1-.339 1.214c-.011.04-.026.077-.04.117a22.2 22.2 0 0 1-.249.659 14.178 14.178 0 0 1-.693 1.455 15.44 15.44 0 0 1-.587.996l-.155.244c-.08.126-.163.249-.249.369a19.698 19.698 0 0 1-2.451 2.918l-.115.112a4.57 4.57 0 0 1-.186.172c-.005.008-.011.011-.017.017l.014-.017c2.034-2.443 2.483-5.496 2.532-7.44a1.06 1.06 0 0 0-1.638-.922l-.378.243c.117-.077.226-.154.335-.238.069-.048.134-.1.197-.154a.432.432 0 0 0 .07-.057 2.92 2.92 0 0 0 .211-.184 4.279 4.279 0 0 0 .246-.232 1.94 1.94 0 0 0 .152-.157c.052-.052.097-.106.143-.158.049-.054.092-.106.135-.16a2.08 2.08 0 0 0 .126-.163 1.69 1.69 0 0 0 .123-.166c.12-.164.226-.33.32-.499.098-.169.187-.338.264-.506.501-1.074.65-2.148.67-2.95a6.884 6.884 0 0 0-.074-1.323v-.003l.003.003c.008.006.037.026.077.057a2.17 2.17 0 0 1 .278.255c.109.106.232.246.358.418.043.057.086.12.131.183.207.301.416.682.59 1.155.19.504.338 1.111.401 1.838.023.241.035.495.035.765Z"/><path fill="var(--illustration-black)" d="M36.12 98.25a1.914 1.914 0 0 1-1.866.68 1.92 1.92 0 0 1 .26-1.968 1.91 1.91 0 0 1 1.867-.679 1.906 1.906 0 0 1-.26 1.968Z"/><path fill="var(--illustration-white)" d="m27.508 83.79 8.11 8.828.002.003 2.266-2.824-10.378-6.008Z"/><path fill="var(--illustration-gray)" d="M55.131 122.821c1.186-6.678 1.297-11.83.61-15.913-.003-.003-.003-.006-.003-.009a9.552 9.552 0 0 0-.071-.407c-.015-.094-.035-.186-.052-.277a15.144 15.144 0 0 0-.111-.519 3.572 3.572 0 0 0-.055-.252 41.155 41.155 0 0 0-.126-.512 14.65 14.65 0 0 0-.203-.742 12.486 12.486 0 0 0-.226-.73 7.132 7.132 0 0 0-.115-.33c-.08-.232-.163-.455-.252-.678-.04-.112-.086-.221-.132-.33l-.137-.323a12.384 12.384 0 0 0-.29-.627c-.048-.103-.1-.206-.151-.307-.049-.1-.1-.2-.155-.3a12.326 12.326 0 0 0-.323-.587 9.28 9.28 0 0 0-.17-.287 9.958 9.958 0 0 0-.349-.553 14.59 14.59 0 0 0-.745-1.054 17.05 17.05 0 0 0-.813-.99 3.732 3.732 0 0 0-.203-.226c-.28-.313-.573-.613-.873-.905-.078-.075-.152-.15-.23-.218a5.084 5.084 0 0 0-.229-.212 14.63 14.63 0 0 0-.231-.209 5.45 5.45 0 0 0-.238-.209 12.83 12.83 0 0 0-.481-.404 21.45 21.45 0 0 0-.493-.395c-.083-.063-.166-.129-.252-.192a24.554 24.554 0 0 0-.776-.57 16.55 16.55 0 0 0-.515-.358 24.26 24.26 0 0 0-.533-.355 1.902 1.902 0 0 0-.484-.223 1.732 1.732 0 0 0-.762-.051 1.119 1.119 0 0 0-.134.025.99.99 0 0 0-.135.035.78.78 0 0 0-.129.045 1.39 1.39 0 0 0-.246.118.697.697 0 0 0-.114.071.652.652 0 0 0-.118.086.888.888 0 0 0-.097.083.833.833 0 0 0-.1.1c-.098.1-.18.215-.247.341a1.785 1.785 0 0 0-.169.41l-.045.16c-.026.095-.06.178-.104.255a1.097 1.097 0 0 1-.154.2 1.038 1.038 0 0 1-1.412.035 1.073 1.073 0 0 1-.27-.412L39.11 87.52v-.003a20.869 20.869 0 0 0-.567-1.572c-.46-1.151-.925-2.088-.925-2.088s2.578 1.194 4.147 4.64c0 0 .189.008.535.042 3.104.344 18.763 3.15 22.05 25.286l.453 4.324.684 6.546H54.541l.59-1.875Z"/><path fill="var(--illustration-accent-1)" d="M144 22a6 6 0 0 1 6-6h52a6 6 0 0 1 6 6v52a6 6 0 0 1-6 6h-52a6 6 0 0 1-6-6V22Z"/><path fill="var(--illustration-primary)" d="M158.219 30.222h35.555v35.556h-35.555V30.222Z"/><path fill="var(--illustration-positive)" d="m158.22 30.222-3.556-3.555v42.666l3.556-3.555V30.222Zm35.56 35.556 3.556 3.555V26.667l-3.556 3.555v35.556Z"/><path fill="var(--illustration-black)" d="m193.78 30.222 3.556-3.555h-42.667l3.556 3.555h35.555Zm-35.56 35.556-3.556 3.555h42.667l-3.556-3.555H158.22Z"/><path fill="var(--illustration-white)" d="m175.997 55.111-6.223-6.222-11.555 10.152v6.737h35.555V51.555l-7.111-7.11-10.666 10.666Z"/><path fill="var(--illustration-accent-1)" d="M172.442 39.556a4.889 4.889 0 1 1-9.778 0 4.889 4.889 0 0 1 9.778 0Z"/><path fill="var(--illustration-positive)" d="M182 100a6 6 0 0 1 6-6h24a6 6 0 0 1 6 6v24a6 6 0 0 1-6 6h-24a6 6 0 0 1-6-6v-24Z"/><path fill="var(--illustration-black)" d="M187.141 114.572h5.142v10.285h-5.142v-10.285Zm10.289-5.144h5.143v15.429h-5.143v-15.429Zm10.281-5.142h5.143v20.571h-5.143v-20.571Z"/><path fill="var(--illustration-accent-2)" d="M56 6a6 6 0 0 1 6-6h36a6 6 0 0 1 6 6v36a6 6 0 0 1-6 6H62a6 6 0 0 1-6-6V6Z"/><path fill="var(--illustration-white)" d="M90.912 19.636c0 6.025-4.884 10.91-10.91 10.91-6.024 0-10.908-4.885-10.908-10.91 0-6.024 4.884-10.909 10.909-10.909s10.909 4.884 10.909 10.91Z"/><path fill="var(--illustration-white)" d="M69.094 20.182h21.818v19.09H69.094v-19.09Z"/><path fill="var(--illustration-black)" d="M78.367 18a1.636 1.636 0 1 1-3.273 0 1.636 1.636 0 0 1 3.273 0Zm6.539 0a1.636 1.636 0 1 1-3.273 0 1.636 1.636 0 0 1 3.273 0Z"/><path fill="var(--illustration-accent-2)" d="M73.453 34.91h4.364v4.363h-4.364v-4.364Zm8.727 0h4.363v4.363H82.18v-4.364Z"/><path fill="var(--illustration-black)" fill-rule="evenodd" d="M77.82 21.818a2.182 2.182 0 1 0 4.364 0H77.82Z" clip-rule="evenodd"/></svg>