<svg xmlns="http://www.w3.org/2000/svg" fill="none" viewBox="0 0 240 240"><path fill="var(--illustration-accent-2)" d="M0 60v120h240V60H0Z"/><path fill="var(--illustration-primary)" fill-rule="evenodd" d="M208 32H80v126.834a31.997 31.997 0 0 0-46.627-1.461A31.998 31.998 0 0 0 24 180h64V92h112v66.834A32.022 32.022 0 0 0 176 148a31.996 31.996 0 0 0-22.627 9.373A31.996 31.996 0 0 0 144 180h64V32Z" clip-rule="evenodd"/><path fill="var(--illustration-accent-1)" d="M208 32H80v28h128V32ZM88 180a31.998 31.998 0 0 1-54.627 22.627A31.998 31.998 0 0 1 24 180h64Z"/><path fill="var(--illustration-black)" fill-rule="evenodd" d="M79 180c0-12.703-10.297-23-23-23s-23 10.297-23 23 10.297 23 23 23 23-10.297 23-23Zm0-148v138.186C75.185 161.257 66.323 155 56 155c-13.807 0-25 11.193-25 25s11.193 25 25 25 25-11.193 25-25V32h-2Z" clip-rule="evenodd"/><path fill="var(--illustration-accent-1)" d="M208 180a31.996 31.996 0 0 1-9.373 22.627 31.996 31.996 0 0 1-45.254 0A31.996 31.996 0 0 1 144 180h64Z"/><path fill="var(--illustration-black)" fill-rule="evenodd" d="M199 180c0-12.703-10.297-23-23-23s-23 10.297-23 23 10.297 23 23 23c12.702 0 23-10.297 23-23Zm0-148v138.186C195.185 161.257 186.323 155 176 155c-13.807 0-25 11.193-25 25s11.193 25 25 25 25-11.193 25-25V32h-2Z" clip-rule="evenodd"/><path fill="var(--illustration-invert)" fill-rule="evenodd" d="M176 137a43.001 43.001 0 0 0-30.406 73.406A43.001 43.001 0 0 0 176 223v2a45 45 0 1 1 0-90v2Zm-120 0a43 43 0 1 0 0 86v2a45 45 0 1 1 0-90v2Z" clip-rule="evenodd"/></svg>