<svg xmlns="http://www.w3.org/2000/svg" fill="none" viewBox="0 0 240 240"><path fill="var(--illustration-accent-2)" d="M94 0H10A10 10 0 0 0 0 10v84a10 10 0 0 0 10 10h84a10 10 0 0 0 10-10V10A10 10 0 0 0 94 0Z"/><path fill="var(--illustration-accent-1)" d="M230 0h-84a10 10 0 0 0-10 10v84a10 10 0 0 0 10 10h84a10 10 0 0 0 10-10V10a10 10 0 0 0-10-10Z"/><path fill="var(--illustration-gray)" d="M94 136H10a10 10 0 0 0-10 10v84a10 10 0 0 0 10 10h84a10 10 0 0 0 10-10v-84a10 10 0 0 0-10-10Z"/><path fill="var(--illustration-primary)" d="M230 136h-84a10 10 0 0 0-10 10v84a10 10 0 0 0 10 10h84a10 10 0 0 0 10-10v-84a10 10 0 0 0-10-10Z"/><path fill="var(--illustration-black)" fill-rule="evenodd" d="M52 25a27 27 0 1 0 0 54 27 27 0 0 0 0-54ZM23 52a29 29 0 1 1 58 0 29 29 0 0 1-58 0Zm140 112a1 1 0 0 1 1-1h48a1 1 0 0 1 1 1v48a1 1 0 0 1-1 1h-48a1 1 0 0 1-1-1v-48Zm2 1v46h46v-46h-46Zm23-144c.37 0 .7.2.88.53l28 52A1 1 0 0 1 216 75h-56a1 1 0 0 1-.88-1.47l28-52A1 1 0 0 1 188 21Zm-26.33 52h52.66L188 24.1 161.67 73ZM28.7 163.3l48 48-1.41 1.4-48-48 1.41-1.4Z" clip-rule="evenodd"/><path fill="var(--illustration-black)" fill-rule="evenodd" d="m76.7 164.7-48 48-1.41-1.4 48-48 1.41 1.4Z" clip-rule="evenodd"/><path fill="var(--illustration-accent-1)" d="M120 174a54 54 0 1 0 0-108 54 54 0 0 0 0 108Z"/><path fill="var(--illustration-primary)" d="M68.4 104H94a10 10 0 0 0 10-10V68.41A54.1 54.1 0 0 0 68.4 104ZM136 68.41V94a10 10 0 0 0 10 10h25.59A54.1 54.1 0 0 0 136 68.41ZM94 136H68.4a54.1 54.1 0 0 0 35.6 35.59V146a10 10 0 0 0-10-10Z"/><path fill="var(--illustration-black)" d="M171.59 136H146a10 10 0 0 0-10 10v25.59A54.1 54.1 0 0 0 171.59 136Z"/><path fill="var(--illustration-black)" fill-rule="evenodd" d="M120 84a36 36 0 1 0 0 72 36 36 0 0 0 0-72Zm-38 36a38 38 0 1 1 76 0 38 38 0 0 1-76 0Z" clip-rule="evenodd"/></svg>