<svg xmlns="http://www.w3.org/2000/svg" fill="none" viewBox="0 0 240 240"><path fill="var(--illustration-accent-2)" d="M94 0H10C4.477 0 0 4.477 0 10v84c0 5.523 4.477 10 10 10h84c5.523 0 10-4.477 10-10V10c0-5.523-4.477-10-10-10Z"/><path fill="var(--illustration-accent-1)" d="M230 0h-84c-5.523 0-10 4.477-10 10v84c0 5.523 4.477 10 10 10h84c5.523 0 10-4.477 10-10V10c0-5.523-4.477-10-10-10Z"/><path fill="var(--illustration-gray)" d="M94 136H10c-5.523 0-10 4.477-10 10v84c0 5.523 4.477 10 10 10h84c5.523 0 10-4.477 10-10v-84c0-5.523-4.477-10-10-10Z"/><path fill="var(--illustration-primary)" d="M230 136h-84c-5.523 0-10 4.477-10 10v84c0 5.523 4.477 10 10 10h84c5.523 0 10-4.477 10-10v-84c0-5.523-4.477-10-10-10Z"/><path fill="var(--illustration-black)" fill-rule="evenodd" d="M52 25c-14.912 0-27 12.088-27 27s12.088 27 27 27 27-12.088 27-27-12.088-27-27-27ZM23 52c0-16.016 12.984-29 29-29s29 12.984 29 29-12.984 29-29 29-29-12.984-29-29Zm140 112a1 1 0 0 1 1-1h48a1 1 0 0 1 1 1v48a1 1 0 0 1-1 1h-48a1 1 0 0 1-1-1v-48Zm2 1v46h46v-46h-46Zm23-144c.368 0 .706.202.88.526l28 52A1 1 0 0 1 216 75h-56a1.001 1.001 0 0 1-.88-1.474l28-52A.999.999 0 0 1 188 21Zm-26.326 52h52.652L188 24.11 161.674 73Z" clip-rule="evenodd"/><path fill="var(--illustration-invert)" fill-rule="evenodd" d="m28.707 163.293 48 48-1.414 1.414-48-48 1.414-1.414Z" clip-rule="evenodd"/><path fill="var(--illustration-invert)" fill-rule="evenodd" d="m76.707 164.707-48 48-1.414-1.414 48-48 1.414 1.414Z" clip-rule="evenodd"/><path fill="var(--illustration-accent-1)" d="M120 174c29.823 0 54-24.177 54-54s-24.177-54-54-54-54 24.177-54 54 24.177 54 54 54Z"/><path fill="var(--illustration-primary)" d="M68.41 104H94a9.997 9.997 0 0 0 10-10V68.41A54.1 54.1 0 0 0 68.41 104ZM136 68.41V94a10 10 0 0 0 10 10h25.59A54.096 54.096 0 0 0 136 68.41ZM94 136H68.41A54.103 54.103 0 0 0 104 171.59V146a10.001 10.001 0 0 0-10-10Z"/><path fill="var(--illustration-black)" d="M171.59 136H146a10.001 10.001 0 0 0-10 10v25.59A54.099 54.099 0 0 0 171.59 136Z"/><path fill="var(--illustration-black)" fill-rule="evenodd" d="M120 84c-19.882 0-36 16.118-36 36s16.118 36 36 36 36-16.118 36-36-16.118-36-36-36Zm-38 36c0-20.987 17.013-38 38-38s38 17.013 38 38-17.013 38-38 38-38-17.013-38-38Z" clip-rule="evenodd"/></svg>