<svg xmlns="http://www.w3.org/2000/svg" fill="none" viewBox="0 0 240 240"><path fill="var(--illustration-accent-1)" d="M149.33 193.33A14.67 14.67 0 0 1 134.67 208H120a88 88 0 1 1 88-88 39.12 39.12 0 0 1-39.11 39.11h-34.22a9.78 9.78 0 0 0 0 19.56 14.66 14.66 0 0 1 14.66 14.66Z"/><path fill="var(--illustration-accent-2)" d="M0 120a120 120 0 0 0 120 120V0A120 120 0 0 0 0 120Z"/><path fill="var(--illustration-primary)" d="M32 120a88 88 0 0 0 88 88V32a88 88 0 0 0-88 88Z"/><path fill="var(--illustration-white)" d="M60 132a16 16 0 1 0 0-32 16 16 0 0 0 0 32Zm120 0a16 16 0 1 0 0-32 16 16 0 0 0 0 32ZM80 92a16 16 0 1 0 0-32 16 16 0 0 0 0 32Zm80 0a16 16 0 1 0 0-32 16 16 0 0 0 0 32Z"/><path fill="var(--illustration-white)" d="M60 132a16 16 0 1 0 0-32 16 16 0 0 0 0 32Z"/><path fill="var(--illustration-black)" fill-rule="evenodd" d="M60 106.04a9.96 9.96 0 1 0 0 19.92 9.96 9.96 0 0 0 0-19.92ZM48.04 116a11.96 11.96 0 1 1 23.92 0 11.96 11.96 0 0 1-23.92 0Z" clip-rule="evenodd"/><path fill="var(--illustration-primary)" d="M180 132a16 16 0 1 0 0-32 16 16 0 0 0 0 32Z"/><path fill="var(--illustration-black)" fill-rule="evenodd" d="M180 106.04a9.96 9.96 0 1 0 0 19.92 9.96 9.96 0 0 0 0-19.92ZM168.04 116a11.96 11.96 0 1 1 23.92 0 11.96 11.96 0 0 1-23.92 0Z" clip-rule="evenodd"/><path fill="var(--illustration-white)" d="M160 92a16 16 0 1 0 0-32 16 16 0 0 0 0 32Z"/><path fill="var(--illustration-black)" fill-rule="evenodd" d="M160 66.04a9.96 9.96 0 1 0 0 19.92 9.96 9.96 0 0 0 0-19.92ZM148.04 76a11.96 11.96 0 1 1 23.92 0 11.96 11.96 0 0 1-23.92 0Z" clip-rule="evenodd"/><path fill="var(--illustration-primary)" d="M120 44a16 16 0 0 1 0 32V44Z"/><path fill="var(--illustration-black)" d="M120 76a16 16 0 0 1 0-32v32Z"/><path fill="var(--illustration-black)" fill-rule="evenodd" d="M120 50.04a9.96 9.96 0 1 0 0 19.92 9.96 9.96 0 0 0 0-19.92ZM108.04 60a11.96 11.96 0 1 1 23.92 0 11.96 11.96 0 0 1-23.92 0Z" clip-rule="evenodd"/><path fill="var(--illustration-accent-1)" d="M80 92a16 16 0 1 0 0-32 16 16 0 0 0 0 32Z"/><path fill="var(--illustration-black)" fill-rule="evenodd" d="M80 66.04a9.96 9.96 0 1 0 0 19.92 9.96 9.96 0 0 0 0-19.92ZM68.04 76a11.96 11.96 0 1 1 23.92 0 11.96 11.96 0 0 1-23.92 0Z" clip-rule="evenodd"/><path fill="var(--illustration-white)" d="M80 172a16 16 0 1 0 0-32 16 16 0 0 0 0 32Z"/><path fill="var(--illustration-black)" fill-rule="evenodd" d="M80 146.04a9.96 9.96 0 1 0 0 19.92 9.96 9.96 0 0 0 0-19.92ZM68.04 156a11.96 11.96 0 1 1 23.92 0 11.96 11.96 0 0 1-23.92 0Z" clip-rule="evenodd"/></svg>