<svg xmlns="http://www.w3.org/2000/svg" fill="none" viewBox="0 0 240 240"><path fill="var(--illustration-gray)" d="M180 120a57.84 57.84 0 0 1-17.57 42.43A57.85 57.85 0 0 1 120 180v60c33.14 0 61.42-11.72 84.85-35.15 23.43-23.43 35.14-51.72 35.15-84.85h-60Z"/><path fill="var(--illustration-accent-1)" d="M120 60V0C86.86 0 58.58 11.72 35.15 35.15 11.72 58.58.01 86.87 0 120h60a57.84 57.84 0 0 1 17.57-42.43A57.84 57.84 0 0 1 120 60Z"/><path fill="var(--illustration-invert-2)" d="M70 120a48.2 48.2 0 0 0 14.64 35.36A48.2 48.2 0 0 0 120 170v-50H70Zm85.36-35.36A48.2 48.2 0 0 0 120 70v50h50a48.2 48.2 0 0 0-14.64-35.36Z"/><path fill="var(--illustration-accent-1)" d="M84.64 84.64A48.2 48.2 0 0 0 70 120h50V70a48.2 48.2 0 0 0-35.36 14.64Z"/><path fill="var(--illustration-gray)" d="M120 120v50a48.2 48.2 0 0 0 35.36-14.64A48.2 48.2 0 0 0 170 120h-50Z"/><path fill="var(--illustration-primary)" d="M120 60a30 30 0 1 1 0-60v60Z"/><path fill="var(--illustration-gray)" d="M120 0a30 30 0 0 1 0 60V0Z"/><path fill="var(--illustration-black)" fill-rule="evenodd" d="M120 10.44a19.56 19.56 0 1 0 0 39.12 19.56 19.56 0 0 0 0-39.12ZM98.44 30a21.56 21.56 0 1 1 43.12 0 21.56 21.56 0 0 1-43.12 0Z" clip-rule="evenodd"/><path fill="var(--illustration-primary)" d="M120 180a30 30 0 0 1 0 60v-60Z"/><path fill="var(--illustration-accent-1)" d="M120 240a29.99 29.99 0 0 1-11.48-57.72A29.99 29.99 0 0 1 120 180v60Z"/><path fill="var(--illustration-black)" fill-rule="evenodd" d="M120 190.44a19.56 19.56 0 1 0 0 39.12 19.56 19.56 0 0 0 0-39.12ZM98.44 210a21.56 21.56 0 1 1 43.12 0 21.56 21.56 0 0 1-43.12 0Z" clip-rule="evenodd"/><path fill="var(--illustration-accent-1)" d="M180 120a30 30 0 0 1 60 0h-60Z"/><path fill="var(--illustration-primary)" d="M240 120a30 30 0 0 1-60 0h60Z"/><path fill="var(--illustration-black)" fill-rule="evenodd" d="M210 100.44a19.56 19.56 0 1 0 0 39.12 19.56 19.56 0 0 0 0-39.12ZM188.44 120a21.56 21.56 0 1 1 43.12 0 21.56 21.56 0 0 1-43.12 0Z" clip-rule="evenodd"/><path fill="var(--illustration-gray)" d="M60 120a30 30 0 0 1-60 0h60Z"/><path fill="var(--illustration-primary)" d="M0 120a30 30 0 0 1 60 0H0Z"/><path fill="var(--illustration-black)" fill-rule="evenodd" d="M30 100.44a19.56 19.56 0 1 0 0 39.12 19.56 19.56 0 0 0 0-39.12ZM8.44 120a21.56 21.56 0 1 1 43.12 0 21.56 21.56 0 0 1-43.12 0Z" clip-rule="evenodd"/><path fill="var(--illustration-invert)" fill-rule="evenodd" d="M119 71.04c-6.47.48-12.52 5.6-17.06 14.08a53.2 53.2 0 0 0-2.47 5.31H119v-19.4Zm0 21.39H98.7c-2.73 7.59-4.38 16.71-4.48 26.57H119V92.43Zm2 26.57V92.43h20.3c2.73 7.59 4.38 16.71 4.48 26.57H121Zm-2 2H94.22c.1 9.86 1.75 18.98 4.49 26.57H119V121Zm2 26.57V121h24.78c-.1 9.86-1.75 18.98-4.49 26.57H121Zm-2 2H99.47a53.16 53.16 0 0 0 2.47 5.31c4.54 8.49 10.59 13.6 17.06 14.08v-19.39Zm2 19.4v-19.4h19.53a53.14 53.14 0 0 1-2.47 5.31c-4.54 8.49-10.59 13.6-17.06 14.08Zm0-78.54v-19.4c6.47.49 12.52 5.6 17.06 14.09a53.18 53.18 0 0 1 2.47 5.31H121Zm-10.28-18.55a49 49 0 0 0-29.8 18.55h16.4a55.99 55.99 0 0 1 2.86-6.26c2.88-5.38 6.47-9.67 10.54-12.3ZM71.01 119c.2-9.86 3.3-19 8.5-26.62.1.03.2.05.31.05h16.77c-2.69 7.7-4.27 16.8-4.37 26.57H71Zm8.5 28.62a48.76 48.76 0 0 1-8.5-26.62h21.2c.1 9.76 1.7 18.87 4.38 26.57H79.82a1 1 0 0 0-.3.05Zm31.21 20.5a49 49 0 0 1-29.8-18.55h16.4a56 56 0 0 0 2.86 6.26c2.88 5.38 6.47 9.67 10.54 12.3ZM171 120a51 51 0 1 1-102 0 51 51 0 0 1 102 0Zm-31.18 35.83c-2.88 5.38-6.47 9.67-10.54 12.3a49 49 0 0 0 29.8-18.56h-16.4a55.94 55.94 0 0 1-2.86 6.26ZM169 121c-.2 9.86-3.3 19-8.5 26.62a1 1 0 0 0-.31-.05h-16.77c2.69-7.7 4.27-16.8 4.38-26.57H169Zm-8.5-28.62A48.76 48.76 0 0 1 169 119h-21.2a84.28 84.28 0 0 0-4.38-26.57h16.77a1 1 0 0 0 .3-.05Zm-31.21-20.5a49 49 0 0 1 29.8 18.55h-16.4a55.93 55.93 0 0 0-2.86-6.26c-2.88-5.38-6.47-9.67-10.54-12.3Z" clip-rule="evenodd"/></svg>