<svg xmlns="http://www.w3.org/2000/svg" fill="none" viewBox="0 0 240 240"><path fill="var(--illustration-gray)" d="M240 119.8H0v120h240v-120Z"/><path fill="var(--illustration-accent-2)" d="M40 159.8c22.091 0 40-17.909 40-40s-17.909-40-40-40-40 17.909-40 40 17.909 40 40 40Z"/><path fill="var(--illustration-accent-1)" d="M120 103.6c26.399 0 47.8-21.4 47.8-47.8S146.399 8 120 8C93.6 8 72.2 29.4 72.2 55.8s21.4 47.8 47.8 47.8Z"/><path fill="var(--illustration-accent-1)" d="M120 94c21.097 0 38.2-17.103 38.2-38.2S141.097 17.6 120 17.6 81.8 34.703 81.8 55.8 98.903 94 120 94Z"/><path fill="var(--illustration-black)" fill-rule="evenodd" d="M120 18.6c-20.545 0-37.2 16.655-37.2 37.2S99.455 93 120 93s37.2-16.655 37.2-37.2-16.655-37.2-37.2-37.2ZM80.8 55.8c0-21.65 17.55-39.2 39.2-39.2 21.65 0 39.2 17.55 39.2 39.2 0 21.65-17.55 39.2-39.2 39.2-21.65 0-39.2-17.55-39.2-39.2Z" clip-rule="evenodd"/><path fill="var(--illustration-accent-2)" d="M200 159.8c22.091 0 40-17.909 40-40s-17.909-40-40-40-40 17.909-40 40 17.909 40 40 40Z"/><path fill="var(--illustration-primary)" d="M80 119.8c0 22.1-17.9 40-40 40s-40-17.9-40-40h80Zm160 0c0 22.1-17.9 40-40 40s-40-17.9-40-40h80ZM40 240c22.091 0 40-17.909 40-40s-17.909-40-40-40-40 17.909-40 40 17.909 40 40 40Zm80 0c22.091 0 40-17.909 40-40s-17.909-40-40-40-40 17.909-40 40 17.909 40 40 40Zm80 0c22.091 0 40-17.909 40-40s-17.909-40-40-40-40 17.909-40 40 17.909 40 40 40Z"/><path fill="var(--illustration-black)" fill-rule="evenodd" d="M119 147V37h2v110h-2Z" clip-rule="evenodd"/><path fill="var(--illustration-black)" fill-rule="evenodd" d="m120.045 145.59 12.322-13.27 1.465 1.36-13.678 14.73-14.732-13.575 1.355-1.47 13.268 12.225Z" clip-rule="evenodd"/></svg>