<svg xmlns="http://www.w3.org/2000/svg" fill="none" viewBox="0 0 240 241"><path fill="var(--illustration-gray)" d="M155.954 120.003H83.977v84h71.977v-84Zm-83.976-84H0v84h71.978v-84Z"/><path fill="var(--illustration-positive)" d="m145.252 10.96-50.47 50.488 83.835 83.862 50.471-50.487-83.836-83.862Z"/><path fill="var(--illustration-gray)" d="M229.374 61.455c14.054-14.058 14.054-36.852 0-50.91-14.055-14.06-36.841-14.06-50.896 0-14.054 14.058-14.054 36.852 0 50.91 14.055 14.059 36.841 14.059 50.896 0Z"/><path fill="var(--illustration-primary)" d="m206.232 71.904-38.288-38.3c0 .8-.1 1.6-.1 2.3 0 19.9 16.095 36 35.989 36 .899.1 1.699.1 2.399 0Z"/><path fill="var(--illustration-gray)" d="M35.989 240.003c19.876 0 35.989-16.117 35.989-36 0-19.882-16.113-36-35.99-36-19.875 0-35.988 16.118-35.988 36 0 19.883 16.113 36 35.989 36Z"/><path fill="var(--illustration-positive)" d="M71.978 120.003c0 19.9-16.095 36-35.99 36-19.893 0-35.988-16.1-35.988-36h71.978Z"/><path fill="var(--illustration-primary)" d="M0 120.003c0-19.9 16.095-36 35.989-36s35.989 16.1 35.989 36H0Z"/><path fill="var(--illustration-black)" fill-rule="evenodd" d="M35.991 93.003c-14.906 0-26.991 12.088-26.991 27s12.085 27 26.991 27c14.907 0 26.992-12.088 26.992-27s-12.085-27-26.992-27ZM7 120.003c0-16.016 12.98-29 28.991-29 16.012 0 28.992 12.984 28.992 29s-12.98 29-28.992 29c-16.011 0-28.991-12.984-28.991-29Z" clip-rule="evenodd"/><path fill="var(--illustration-accent-1)" d="M119.965 156.003c19.876 0 35.989-16.117 35.989-36 0-19.882-16.113-36-35.989-36-19.876 0-35.988 16.118-35.988 36 0 19.883 16.112 36 35.988 36Z"/><path fill="var(--illustration-primary)" d="M119.96 84.003c-.8 0-1.699 0-2.499.1l38.388 38.4c.1-.8.1-1.7.1-2.5 0-19.9-16.095-36-35.989-36Z"/><path fill="var(--illustration-gray)" d="M203.934 240.003c19.876 0 35.989-16.117 35.989-36 0-19.882-16.113-36-35.989-36-19.876 0-35.989 16.118-35.989 36 0 19.883 16.113 36 35.989 36Z"/><path fill="var(--illustration-accent-1)" d="M0 36.003c0-19.9 16.095-36 35.989-36s35.989 16.1 35.989 36H0Z"/><path fill="var(--illustration-primary)" d="M71.978 36.003c0 19.9-16.095 36-35.99 36-19.893 0-35.988-16.1-35.988-36h71.978Z"/><path fill="var(--illustration-black)" fill-rule="evenodd" d="M35.991 9.003C21.085 9.003 9 21.091 9 36.003s12.085 27 26.991 27c14.907 0 26.992-12.088 26.992-27s-12.085-27-26.992-27ZM7 36.003c0-16.015 12.98-29 28.991-29 16.012 0 28.992 12.985 28.992 29 0 16.016-12.98 29-28.992 29C19.98 65.003 7 52.02 7 36.003Z" clip-rule="evenodd"/><path fill="var(--illustration-positive)" d="M155.954 204.003c0 19.9-16.095 36-35.989 36-19.893 0-35.988-16.1-35.988-36h71.977Z"/><path fill="var(--illustration-primary)" d="M83.977 204.003c0-19.9 16.095-36 35.988-36 19.894 0 35.989 16.1 35.989 36H83.977Z"/><path fill="var(--illustration-black)" fill-rule="evenodd" d="M119.96 177.003c-14.907 0-26.991 12.088-26.991 27s12.084 27 26.991 27 26.991-12.088 26.991-27-12.084-27-26.991-27Zm-28.991 27c0-16.016 12.979-29 28.991-29s28.991 12.984 28.991 29-12.979 29-28.991 29-28.991-12.984-28.991-29Z" clip-rule="evenodd"/><path fill="var(--illustration-accent-1)" d="M229.431 94.503c14.096 14.1 14.096 36.9 0 50.9-14.096 14.1-36.888 14.1-50.884 0l50.884-50.9Z"/><path fill="var(--illustration-primary)" d="M178.54 145.503c-14.095-14.1-14.095-36.9 0-50.9 14.096-14.1 36.889-14.1 50.885 0-20.394 20.4-36.989 36.9-50.885 50.9Z"/><path fill="var(--illustration-black)" fill-rule="evenodd" d="M203.937 93.003c-14.907 0-26.992 12.088-26.992 27s12.085 27 26.992 27c14.906 0 26.991-12.088 26.991-27s-12.085-27-26.991-27Zm-28.992 27c0-16.016 12.98-29 28.992-29 16.011 0 28.991 12.984 28.991 29s-12.98 29-28.991 29c-16.012 0-28.992-12.984-28.992-29Z" clip-rule="evenodd"/><path fill="var(--illustration-primary)" d="M145.454 10.503c14.096 14.1 14.096 36.9 0 50.9-14.095 14.1-36.888 14.1-50.884 0l50.884-50.9Z"/><path fill="var(--illustration-positive)" d="M94.572 61.503c-14.096-14.1-14.096-36.9 0-50.9 14.095-14.1 36.888-14.1 50.884 0-20.394 20.4-36.989 36.9-50.884 50.9Z"/><path fill="var(--illustration-black)" fill-rule="evenodd" d="M119.96 9.003c-14.907 0-26.991 12.088-26.991 27s12.084 27 26.991 27 26.991-12.088 26.991-27-12.084-27-26.991-27Zm-28.991 27c0-16.015 12.979-29 28.991-29s28.991 12.985 28.991 29c0 16.016-12.979 29-28.991 29s-28.991-12.984-28.991-29Z" clip-rule="evenodd"/><path fill="var(--illustration-white)" d="M143.954 120.003a23.939 23.939 0 0 0-23.993 24c0-13.3-10.696-24-23.992-24a23.938 23.938 0 0 0 23.992-24c0 13.3 10.797 24 23.993 24Z"/></svg>