<svg xmlns="http://www.w3.org/2000/svg" fill="none" viewBox="0 0 240 240"><path fill="var(--illustration-gray)" d="M136 0H20v44h116V0Zm84 196h-63.9v44H220v-44Z"/><path fill="var(--illustration-accent-2)" d="M230 44H10A10 10 0 0 0 0 54v132a10 10 0 0 0 10 10h220a10 10 0 0 0 10-10V54a10 10 0 0 0-10-10Z"/><path fill="var(--illustration-primary)" d="M220 64h-64v132h64V64Z"/><path fill="var(--illustration-primary)" fill-rule="evenodd" d="M136 44H20v112h28.54v-9.19a29.19 29.19 0 1 1 58.38 0V156H136V44Zm-72.72 58.88a20.43 20.43 0 1 0 28.9-28.9 20.43 20.43 0 0 0-28.9 28.9Z" clip-rule="evenodd"/><path fill="var(--illustration-accent-2)" fill-rule="evenodd" d="M176.69 103.31a16 16 0 1 0 22.63-22.63 16 16 0 0 0-22.63 22.63Z" clip-rule="evenodd"/><path fill="var(--illustration-black)" fill-rule="evenodd" d="M197.85 85.85 184.29 99.4l-5.7-5.7 1.41-1.42 4.3 4.3 12.14-12.16 1.41 1.42Z" clip-rule="evenodd"/><path fill="var(--illustration-white)" fill-rule="evenodd" d="M176.69 143.31a16 16 0 1 0 22.63-22.63 16 16 0 0 0-22.63 22.63Z" clip-rule="evenodd"/><path fill="var(--illustration-black)" fill-rule="evenodd" d="m197.85 125.85-13.56 13.56-5.7-5.7 1.41-1.42 4.3 4.3 12.14-12.16 1.41 1.42Z" clip-rule="evenodd"/><path fill="var(--illustration-accent-1)" fill-rule="evenodd" d="M176.69 183.31a16 16 0 1 0 22.63-22.63 16 16 0 0 0-22.63 22.63Z" clip-rule="evenodd"/><path fill="var(--illustration-black)" fill-rule="evenodd" d="m197.85 165.85-13.56 13.56-5.7-5.7 1.41-1.42 4.3 4.3 12.14-12.16 1.41 1.42ZM76 169H20v-2h56v2Zm0 16H20v-2h56v2Zm20-8H20v-2h76v2Z" clip-rule="evenodd"/></svg>