<svg xmlns="http://www.w3.org/2000/svg" fill="none" viewBox="0 0 240 240"><path fill="var(--illustration-gray)" d="M136 0H20v44h116zm83.999 196h-63.89v44h63.89z"/><path fill="var(--illustration-accent-2)" d="M230 44H10C4.477 44 0 48.477 0 54v132c0 5.523 4.477 10 10 10h220c5.523 0 10-4.477 10-10V54c0-5.523-4.477-10-10-10"/><path fill="var(--illustration-primary)" d="M220 64h-64v132h64z"/><path fill="var(--illustration-primary)" fill-rule="evenodd" d="M136 44H20v112h28.54v-9.19c0-16.122 13.069-29.19 29.19-29.19s29.19 13.068 29.19 29.19V156H136zm-72.716 58.876a20.427 20.427 0 0 0 28.892 0 20.43 20.43 0 1 0-28.892 0" clip-rule="evenodd"/><path fill="var(--illustration-accent-2)" fill-rule="evenodd" d="M176.686 103.314a16.004 16.004 0 0 0 22.628 0 16.004 16.004 0 0 0 0-22.628 16 16 0 0 0-22.628 0 16 16 0 0 0 0 22.628" clip-rule="evenodd"/><path fill="var(--illustration-black)" fill-rule="evenodd" d="m197.85 85.846-13.557 13.569-5.707-5.708L180 92.293l4.293 4.292 12.143-12.152z" clip-rule="evenodd"/><path fill="var(--illustration-white)" fill-rule="evenodd" d="M176.686 143.314a16.004 16.004 0 0 0 22.628 0 16.004 16.004 0 0 0 0-22.628 16.004 16.004 0 0 0-22.628 0 16.004 16.004 0 0 0 0 22.628" clip-rule="evenodd"/><path fill="var(--illustration-black)" fill-rule="evenodd" d="m197.85 125.846-13.557 13.568-5.707-5.707 1.414-1.414 4.293 4.292 12.143-12.152z" clip-rule="evenodd"/><path fill="var(--illustration-accent-1)" fill-rule="evenodd" d="M176.686 183.314a16.004 16.004 0 0 0 22.628 0 16.004 16.004 0 0 0 0-22.628 16.004 16.004 0 0 0-22.628 0 16.004 16.004 0 0 0 0 22.628" clip-rule="evenodd"/><path fill="var(--illustration-black)" fill-rule="evenodd" d="m197.85 165.847-13.557 13.568-5.707-5.708 1.414-1.414 4.293 4.293 12.143-12.153zM76 169H20v-2h56zm0 16H20v-2h56zm20-8H20v-2h76z" clip-rule="evenodd"/></svg>