<svg xmlns="http://www.w3.org/2000/svg" fill="none" viewBox="0 0 240 240"><g clip-path="url(#a)"><path fill="var(--illustration-gray)" d="M147.234 80h92.762v32h-92.762zM136 72h104v-8H136z"/><path fill="var(--illustration-accent-1)" d="M16 192.1h48l16 48H0z"/><path fill="var(--illustration-primary)" d="m32 240.1 16.155-48h15.852L80 240.1z"/><path fill="var(--illustration-white)" fill-rule="evenodd" d="m7 240.1 16-48h2l-16 48z" clip-rule="evenodd"/><path fill="var(--illustration-accent-1)" d="M176 192.1h48l16 48h-80z"/><path fill="var(--illustration-primary)" d="m192 240.1 16.155-48h15.852l15.993 48z"/><path fill="var(--illustration-white)" fill-rule="evenodd" d="m167 240.1 16-48h2l-16 48z" clip-rule="evenodd"/><path fill="var(--illustration-accent-1)" d="M96 192.1h48l16 48H80z"/><path fill="var(--illustration-primary)" d="m112 240.1 16.155-48h15.852l15.993 48z"/><path fill="var(--illustration-white)" fill-rule="evenodd" d="m87 240.1 16-48h2l-16 48z" clip-rule="evenodd"/><path fill="var(--illustration-gray)" d="M64 24h48l16 48H48z"/><path fill="var(--illustration-accent-1)" d="M56 144.1h48l16 48H40z"/><path fill="var(--illustration-primary)" d="m72 192.1 16.155-48h15.852l15.993 48z"/><path fill="var(--illustration-white)" fill-rule="evenodd" d="m47 192.1 16-48h2l-16 48z" clip-rule="evenodd"/><path fill="var(--illustration-accent-1)" d="M64 24h48l16 48H48z"/><path fill="var(--illustration-primary)" fill-rule="evenodd" d="m152.16 64.048-39.316-7.402 3.937 40.162zm-8.844 8.19-17.69 16.38 21.627 23.782 17.69-16.38z" clip-rule="evenodd"/><path fill="var(--illustration-black)" fill-rule="evenodd" d="M123.554 58.662 128 72h-13.651l-1.505-15.354z" clip-rule="evenodd"/><path fill="var(--illustration-accent-2)" d="M179.999 24c0-6.628 5.372-11.999 12.001-11.999-6.629 0-12.001-5.372-12.001-12.001 0 6.629-5.373 12.001-11.999 12.001 6.626 0 11.999 5.37 11.999 11.999m44 128a8 8 0 0 1 8.001-7.999 8 8 0 0 1-8.001-8.001 8 8 0 0 1-7.999 8.001 8 8 0 0 1 7.999 7.999"/><path fill="var(--illustration-positive)" d="M23.998 128c0-8.838 7.164-15.998 16.002-15.998-8.838 0-16.002-7.164-16.002-16.002 0 8.838-7.163 16.002-15.998 16.002 8.835 0 15.998 7.16 15.998 15.998"/><path fill="var(--illustration-white)" d="M75.976 24.005 88.006 24 76.03 72.002 64 72.006zm-8.555 0L71.997 24 60.021 72.002l-4.576.005z"/><path fill="var(--illustration-accent-1)" d="M136 144.1h48l16 48h-80z"/><path fill="var(--illustration-primary)" d="m152 192.1 16.155-48h15.852l15.993 48z"/><path fill="var(--illustration-white)" fill-rule="evenodd" d="m127 192.1 16-48h2l-16 48z" clip-rule="evenodd"/><path fill="var(--illustration-white)" d="M103.999 44.1a8 8 0 0 1 8.001-8 8 8 0 0 1-8.001-8 8 8 0 0 1-7.999 8 8 8 0 0 1 7.999 8"/></g><defs><clipPath id="a"><path fill="var(--illustration-white)" d="M0 0h240v240H0z"/></clipPath></defs></svg>