<svg xmlns="http://www.w3.org/2000/svg" fill="none" viewBox="0 0 240 240"><path fill="var(--illustration-primary)" d="M208 184H32v56h176v-56Z"/><path fill="var(--illustration-accent-1)" d="M120 144a40 40 0 1 0 0-80 40 40 0 0 0 0 80Z"/><path fill="var(--illustration-gray)" d="M176 104H64v120h112V104Z"/><path fill="var(--illustration-primary)" d="M120 144c22.1 0 40-17.9 40-40H80c0 22.1 17.9 40 40 40Z"/><path fill="var(--illustration-black)" d="M121.6 109.5h-3L117 87.6h6.1l-1.5 21.9Zm-1.5 10.9c2 0 3.6-1.6 3.6-3.6s-1.6-3.6-3.6-3.6-3.6 1.6-3.6 3.6c-.1 2 1.6 3.6 3.6 3.6Z"/><path fill="var(--illustration-gray)" d="M185.68 57.92 71.53 0 64.3 14.28l114.15 57.9 7.24-14.26Zm-21.26-28.69L107.34.27l-3.62 7.14 57.08 28.95 3.62-7.13Z"/><path fill="var(--illustration-gray)" d="M114.5 3.83 107.35.2 96.5 21.6l7.14 3.62 10.85-21.4Zm49.87 25.37-7.14-3.62-10.85 21.4 7.13 3.63 10.86-21.4Zm-25.13 14.14 7.13 3.62 10.86-21.4-7.13-3.63-10.86 21.4Z"/><path fill="var(--illustration-gray)" d="m103.6 25.26 7.13 3.62 10.85-21.4-7.13-3.62-10.86 21.4Z"/><path stroke="var(--illustration-black)" stroke-miterlimit="10" stroke-width="2" d="M120 136a32 32 0 1 0 0-64 32 32 0 0 0 0 64Zm-40 16v64"/><path stroke="var(--illustration-invert)" stroke-miterlimit="10" stroke-width="2" d="M72 32v32"/><path stroke="var(--illustration-black)" stroke-miterlimit="10" stroke-width="2" d="M96 152v64m16-64v64m16-64v64m16-64v64m16-64v64"/><path stroke="var(--illustration-invert)" stroke-miterlimit="10" stroke-width="2" d="M78.3 58.3 72 64.7l-6.4-6.4"/></svg>