<svg xmlns="http://www.w3.org/2000/svg" fill="none" viewBox="0 0 240 240"><path fill="var(--illustration-gray)" d="M192 120H48v120h144V120Z"/><path fill="var(--illustration-gray)" d="M32 0v136a88 88 0 0 0 176 0V0H32Z"/><path fill="var(--illustration-primary)" d="M192 186.6V32H48v154.6a87.9 87.9 0 0 0 72 37.4 87.9 87.9 0 0 0 72-37.4Z"/><path fill="var(--illustration-black)" fill-rule="evenodd" d="M168 133H72v-2h96v2Zm0-8H72v-2h96v2Zm0-8H72v-2h96v2Zm0-8H72v-2h96v2Zm0-8H72v-2h96v2Zm0-8H72v-2h96v2Zm0-8H72v-2h96v2Zm0 56H72v-2h96v2Zm0 8H72v-2h96v2Zm0 8H72v-2h96v2Zm0 8H72v-2h96v2Zm0 8H72v-2h96v2Zm-24 8H96v-2h48v2ZM71 59h98v18H71V59Zm2 2v14h94V61H73Z" clip-rule="evenodd"/><path fill="var(--illustration-positive)" d="M120 150a30 30 0 1 0 0-60 30 30 0 0 0 0 60Z"/><path fill="var(--illustration-white)" d="M120 92a28 28 0 1 1-.01 56.01A28 28 0 0 1 120 92Zm0-4c-17.64 0-32 14.36-32 32s14.36 32 32 32 32-14.36 32-32-14.36-32-32-32Z"/><path fill="var(--illustration-black)" fill-rule="evenodd" d="m116.73 127.08 15.3-15.3 1.4 1.42-16.7 16.7-8.7-8.7 1.4-1.42 7.3 7.3Z" clip-rule="evenodd"/></svg>