<svg xmlns="http://www.w3.org/2000/svg" fill="none" viewBox="0 0 240 241"><path fill="var(--illustration-accent-2)" d="M0 240.002h144v-240H0v240Z"/><path fill="var(--illustration-gray)" d="M240 0h-96v24h96V0Z"/><path fill="var(--illustration-black)" d="M96 96H48v48h48V96Zm0-16H48v8h48v-8Zm0-16H48v8h48v-8Zm0-16H48v8h48v-8Z"/><path fill="var(--illustration-gray)" d="M240 216h-96v24h96v-24Z"/><path fill="var(--illustration-primary)" d="M0 24h144V0H0v24Zm0 216h144v-24H0v24Z"/><path fill="var(--illustration-black)" d="M72 14a2 2 0 1 0 0-4 2 2 0 0 0 0 4Zm8 212H64v4h16v-4Z"/><path fill="var(--illustration-primary)" d="M162.502 72h58.996C231.705 72 240 80.277 240 90.462v58.872c0 10.185-8.295 18.462-18.502 18.462h-58.996c-10.207 0-18.502-8.277-18.502-18.462V90.462C144 80.277 152.273 72 162.502 72Z"/><path fill="var(--illustration-white)" d="M191.99 152.307c17.924 0 32.467-14.512 32.467-32.398 0-17.885-14.543-32.398-32.467-32.398s-32.467 14.513-32.467 32.398c0 17.886 14.543 32.398 32.467 32.398Z"/><path fill="var(--illustration-primary)" d="M186.052 109.324h11.919a4.617 4.617 0 0 1 4.626 4.616v11.894a4.617 4.617 0 0 1-4.626 4.616h-11.919a4.617 4.617 0 0 1-4.625-4.616V113.94c-.023-2.53 2.045-4.616 4.625-4.616Z"/><path fill="var(--illustration-black)" d="m72 192-48.497-48h96.994L72 192Z"/></svg>