<svg xmlns="http://www.w3.org/2000/svg" fill="none" viewBox="0 0 240 240"><rect width="136" height="208" x="104" y="32" fill="var(--illustration-primary)" rx="8"/><circle cx="76" cy="140" r="52" fill="var(--illustration-accent-1)"/><path fill="var(--illustration-black)" fill-rule="evenodd" d="M76 105a35 35 0 1 0 0 70 35 35 0 0 0 0-70Zm-37 35a37 37 0 1 1 74 0 37 37 0 0 1-74 0Z" clip-rule="evenodd"/><path fill="var(--illustration-gray)" d="M176 60a4 4 0 0 1 4-4h16a4 4 0 0 1 4 4v24a4 4 0 0 1-4 4h-16a4 4 0 0 1-4-4V60Z"/><path fill="var(--illustration-white)" d="M122.5 225.51a3.25 3.25 0 1 0 0 6.49c1.92 0 3.39-1.4 3.39-3.25 0-1.84-1.44-3.24-3.4-3.24Zm0 5.15a1.83 1.83 0 0 1-1.86-1.9c0-1.1.78-1.9 1.86-1.9s1.87.81 1.87 1.9c0 1.09-.79 1.9-1.86 1.9Zm3.8-3.73h.94v4.95h1.5v-6.25h-2.44v1.3Zm-10.95-.08c.8 0 1.42.47 1.65 1.18h1.6c-.3-1.5-1.57-2.52-3.23-2.52a3.25 3.25 0 1 0 0 6.49 3.14 3.14 0 0 0 3.21-2.53H117c-.22.7-.85 1.19-1.64 1.19-1.08 0-1.85-.81-1.85-1.9 0-1.1.75-1.9 1.84-1.9Zm39.47 1.3-1.1-.15c-.53-.07-.9-.24-.9-.64 0-.43.49-.65 1.15-.65.72 0 1.19.3 1.29.8h1.45c-.17-1.26-1.17-2-2.7-2-1.6 0-2.64.79-2.64 1.9 0 1.06.68 1.68 2.07 1.87l1.1.16c.54.07.84.28.84.66 0 .5-.52.7-1.25.7-.89 0-1.39-.35-1.46-.88h-1.48c.14 1.22 1.13 2.08 2.93 2.08 1.64 0 2.72-.72 2.72-1.97 0-1.11-.78-1.7-2.02-1.87Zm-26.83-5.09c-.55 0-.97.39-.97.92s.42.92.97.92.96-.39.96-.92-.41-.92-.96-.92Zm22.02 4.71c0-1.35-.85-2.26-2.65-2.26-1.7 0-2.65.84-2.84 2.12h1.5c.07-.5.47-.9 1.32-.9.76 0 1.14.32 1.14.72 0 .52-.7.65-1.54.73-1.15.12-2.58.51-2.58 1.96 0 1.12.86 1.85 2.24 1.85 1.08 0 1.75-.44 2.09-1.13.05.62.53 1.02 1.19 1.02h.87v-1.3h-.74v-2.8Zm-1.47 1.57c0 .84-.75 1.45-1.66 1.45-.57 0-1.04-.23-1.04-.71 0-.62.76-.79 1.46-.86.68-.06 1.05-.2 1.24-.48v.6Zm-7.97-3.83c-.84 0-1.54.34-2.04.9V223h-1.5v8.88h1.48v-.82c.5.59 1.21.94 2.06.94 1.8 0 3.17-1.38 3.17-3.24a3.15 3.15 0 0 0-3.17-3.25Zm-.22 5.15a1.83 1.83 0 0 1-1.87-1.9c0-1.08.8-1.9 1.88-1.9 1.09 0 1.85.8 1.85 1.9 0 1.09-.79 1.9-1.87 1.9Zm-6.91-5.15c-.97 0-1.61.39-1.99.93v-.8h-1.49v6.24h1.5v-3.4c0-.95.63-1.63 1.55-1.63.87 0 1.4.6 1.4 1.45v3.58h1.5v-3.69c0-1.57-.83-2.68-2.47-2.68Zm30.56 3.05c0-1.8-1.35-3.05-3.16-3.05a3.21 3.21 0 0 0-3.34 3.25c0 1.95 1.5 3.24 3.36 3.24 1.56 0 2.79-.9 3.1-2.16h-1.56c-.23.55-.78.87-1.52.87-.96 0-1.68-.58-1.85-1.6H164v-.55Zm-4.88-.49c.24-.87.91-1.29 1.69-1.29.85 0 1.5.47 1.65 1.3h-3.34Zm52.58-8.37-2.65 12.3h-3.22l2.66-12.3h3.22Zm13.56 7.93 1.69-4.62.97 4.62h-2.66Zm3.6 4.37h2.97l-2.6-12.3h-2.75c-.3 0-.58.07-.82.24-.24.16-.44.4-.55.66l-4.83 11.4h3.38l.67-1.84h4.13l.4 1.84Zm-8.4-4.03c0-3.25-4.55-3.43-4.52-4.88.02-.44.44-.91 1.37-1.03 1.09-.1 2.2.1 3.18.55l.55-2.6a8.57 8.57 0 0 0-3-.54c-3.2 0-5.43 1.67-5.44 4.07-.02 1.77 1.6 2.76 2.82 3.35 1.25.6 1.68 1 1.67 1.53-.02.83-1.01 1.19-1.93 1.2a6.74 6.74 0 0 1-3.31-.77l-.59 2.7a9.8 9.8 0 0 0 3.59.65c3.38-.01 5.59-1.67 5.6-4.23Zm-13.34-8.28-5.21 12.3h-3.4l-2.57-9.81a1.34 1.34 0 0 0-.77-1.09 13.79 13.79 0 0 0-3.17-1.05l.08-.36h5.48a1.49 1.49 0 0 1 1.5 1.25l1.35 7.12 3.36-8.38 3.35.02Zm8.04-7.68h1.18c.3-.03.6 0 .88.08a2.07 2.07 0 0 1 1.25 1.15 2 2 0 0 1 .16.86v.06a2.08 2.08 0 0 1-.66 1.59 2 2 0 0 1-1.64.52h-1.17V212Zm1.16 3.83a1.58 1.58 0 0 0 1.28-.44c.17-.16.3-.36.38-.58.08-.21.1-.45.08-.67v-.05a1.52 1.52 0 0 0-.46-1.25 1.51 1.51 0 0 0-1.28-.4h-.6v3.41h.6v-.02Zm3.28-3.83h2.62v.42h-2.08v1.45h1.67v.41h-1.67v1.55h2.2v.41h-2.75v-4.24Zm3.63 0h1.36c.83 0 1.44.26 1.44 1.11v.02a.87.87 0 0 1-.67.9c.65.15.9.47.9 1.02v.02c0 .8-.58 1.19-1.48 1.19h-1.54l-.01-4.26Zm1.34 1.85c.67 0 .92-.22.92-.74v-.02c0-.49-.3-.68-.93-.68h-.8v1.46h.81v-.02Zm.19 2c.65 0 .96-.27.96-.79v-.02c0-.52-.31-.78-1.03-.78h-.92v1.59h.99Zm2.47-3.85h.54v4.26h-.54V212Zm2.69.42h-1.31v-.42h3.16v.42h-1.31v3.82h-.55v-3.82h.01Z"/><path fill="var(--illustration-black)" d="M104 183.82V96.17A51.96 51.96 0 0 1 128 140a51.96 51.96 0 0 1-24 43.82Z"/><path fill="var(--illustration-accent-2)" d="M20 40a20 20 0 0 1 20-20A20 20 0 0 1 20 0 20 20 0 0 1 0 20a20 20 0 0 1 20 20Z"/><path fill="var(--illustration-positive)" d="M64 68a12 12 0 0 1 12-12 12 12 0 0 1-12-12 12 12 0 0 1-12 12 12 12 0 0 1 12 12Z"/><path fill="var(--illustration-accent-1)" d="M24 230a12 12 0 0 1 12-12 12 12 0 0 1-12-12 12 12 0 0 1-12 12 12 12 0 0 1 12 12Z"/><path fill="var(--illustration-gray)" d="M176 60a4 4 0 0 1 4-4h16a4 4 0 0 1 4 4v24a4 4 0 0 1-4 4h-16a4 4 0 0 1-4-4V60Z"/><path fill="var(--illustration-black)" fill-rule="evenodd" d="m174.55 79.6 9.21-4.6h8.47l9.22 4.6-.9 1.8-8.79-4.4h-7.53l-8.78 4.4-.9-1.8Zm26.9-15.7-9.21 4.6h-8.47l-9.22-4.6.9-1.8 8.79 4.4h7.53l8.78-4.4.9 1.8Z" clip-rule="evenodd"/><path fill="var(--illustration-black)" fill-rule="evenodd" d="M191 68V56h2v12h-2Zm0 20V76h2v12h-2Zm-8-20V56h2v12h-2Zm0 20V76h2v12h-2Z" clip-rule="evenodd"/></svg>