<svg xmlns="http://www.w3.org/2000/svg" fill="none" viewBox="0 0 240 240"><path fill="var(--illustration-gray)" d="M73.64 228.61c.25-.2.49-.39.73-.59l.74-.59c.25-.2.49-.39.73-.59l.74-.59c.25-.2.49-.39.73-.59l.74-.59c.25-.2.49-.39.73-.59.25-.2.49-.39.73-.59.25-.2.49-.39.73-.59l.74-.59.74-.59c.25-.2.49-.39.73-.59.25-.2.49-.39.73-.59.25-.2.49-.39.73-.59l.74-.59c.24-.2.49-.39.73-.59l.74-.59.74-.59c.25-.2.49-.39.73-.59.25-.2.49-.39.73-.59.25-.2.49-.39.73-.59.25-.2.49-.39.73-.59l.74-.59c.25-.2.49-.39.73-.59.25-.2.49-.39.73-.59.25-.2.49-.39.73-.59.25-.2.49-.39.73-.59l.74-.59c.25-.2.49-.39.73-.59.25-.2.49-.39.73-.59l.74-.59c.25-.2.49-.39.73-.59.25-.2.49-.39.73-.59l.74-.59.74-.59c.25-.2.49-.39.73-.59.25-.2.49-.39.73-.59.25-.2.49-.39.73-.59.25-.2.49-.39.73-.59l.74-.59c.25-.2.49-.39.73-.59.25-.2.49-.39.73-.59.25-.2.49-.39.73-.59.25-.2.49-.39.73-.59l.74-.59c.25-.2.49-.39.73-.59.25-.2.49-.39.73-.59l.74-.59c.25-.2.49-.39.73-.59.25-.2.49-.39.73-.59.25-.2.49-.39.73-.59.25-.2.49-.39.73-.59.25-.2.49-.39.73-.59.25-.2.49-.39.73-.59.25-.2.49-.39.73-.59l.74-.59c.25-.2.49-.39.73-.59l.74-.59c.24-.2.49-.39.73-.59l.74-.59c.24-.2.49-.39.73-.59l.74-.59c.25-.2.49-.39.73-.59.25-.2.49-.39.73-.59l.74-.59c.25-.2.49-.39.73-.59.25-.2.49-.39.73-.59l.74-.59c.25-.2.49-.39.73-.59l.74-.59c.25-.2.49-.39.73-.59.24-.2.49-.39.73-.59.25-.2.49-.39.73-.59.25-.2.49-.39.73-.59l.74-.59c.25-.2.49-.39.73-.59l.74-.59c.25-.2.49-.39.73-.59.24-.2.49-.39.73-.59l.74-.59.74-.59c.25-.2.49-.39.73-.59.25-.2.49-.39.73-.59.25-.2.49-.39.73-.59l.74-.59c.24-.2.49-.39.73-.59l.74-.59c.25-.2.49-.39.73-.59.24-.2.49-.39.73-.59l.74-.59c.24-.2.49-.39.73-.59l.74-.59c.24-.2.49-.39.73-.59l.74-.59c.25-.2.49-.39.73-.59.24-.2.49-.39.73-.59l.74-.59c.24-.2.49-.39.73-.59l.74-.59c.25-.2.49-.39.73-.59.24-.2.49-.39.73-.59l.74-.59c.24-.2.49-.39.73-.59l.74-.59c.24-.2.49-.39.73-.59l.74-.59c.25-.2.49-.39.73-.59.24-.2.49-.39.73-.59l.74-.59c.24-.2.49-.39.73-.59l.74-.59.74-.59c.25-.2.49-.39.73-.59.24-.2.49-.39.73-.59.24-.2.49-.39.73-.59l.74-.59c.25-.2.49-.39.73-.59.24-.2.49-.39.73-.59l.74-.59c.24-.2.49-.39.73-.59l.74-.59c.24-.2.49-.39.73-.59l.74-.59c.24-.2.49-.39.73-.59.25-.2.49-.39.73-.59l.74-.59c.24-.2.49-.39.73-.59.24-.2.49-.39.73-.59l.74-.59c.24-.2.49-.39.73-.59.24-.2.49-.39.73-.59l.74-.59c.24-.2.49-.39.73-.59l.74-.59c.24-.2.49-.39.73-.59.25-.2.49-.39.73-.59.25-.2.49-.39.73-.59.24-.2.49-.39.73-.59.24-.2.49-.39.73-.59l.74-.59c.24-.2.49-.39.73-.59l.74-.59c.24-.2.49-.39.73-.59.24-.2.49-.39.73-.59l.74-.59c.24-.2.49-.39.73-.59.24-.2.49-.39.73-.59.24-.2.49-.39.73-.59l.74-.59c.24-.2.49-.39.73-.59l.74-.59c.24-.2.49-.39.73-.59l.74-.59c.24-.2.49-.39.73-.59.24-.2.49-.39.73-.59.24-.2.49-.39.73-.59l.74-.59c.24-.2.49-.39.73-.59.24-.2.49-.39.73-.59l.74-.59c.24-.2.49-.39.73-.59l.74-.59c.24-.2.49-.39.73-.59.24-.2.49-.39.73-.59.24-.2.49-.39.73-.59l.74-.59c.24-.2.49-.39.73-.59l.74-.59c.24-.2.49-.39.73-.59l.74-.59c.24-.2.49-.39.73-.59.24-.2.49-.39.73-.59l.74-.59c.24-.2.49-.39.73-.59l.74-.59c.24-.2.49-.39.73-.59.24-.2.49-.39.73-.59.24-.2.49-.39.73-.59l.74-.59c.24-.2.49-.39.73-.59.24-.2.49-.39.73-.59l.74-.59c.24-.2.49-.39.73-.59.24-.2.49-.39.73-.59.24-.2.49-.39.74-.59.24-.2.49-.39.73-.59l.74-.59c.24-.2.49-.39.73-.59.24-.2.49-.39.73-.59.24-.2.49-.39.74-.59.24-.2.49-.39.73-.59l.74-.59c.24-.2.49-.39.73-.59l.74-.59C230.69 102.09 240 84.14 240 64c0-35.35-28.65-64-64-64-20.14 0-38.09 9.31-49.82 23.85-.2.24-.39.49-.59.74-.2.24-.39.49-.59.73-.2.24-.39.49-.59.74-.2.24-.39.49-.59.73-.2.24-.39.49-.59.73-.2.24-.39.49-.59.74-.2.24-.39.49-.59.73-.2.24-.39.49-.59.74-.2.24-.39.49-.59.73-.2.24-.39.49-.59.73-.2.24-.39.49-.59.74-.2.24-.39.49-.59.73-.2.24-.39.49-.59.73-.2.24-.39.49-.59.74-.2.24-.39.49-.59.73-.2.24-.4.49-.59.74-.2.24-.39.49-.59.73-.2.24-.39.49-.59.74-.2.24-.39.49-.59.73-.2.24-.39.49-.59.74-.2.24-.39.49-.59.73-.2.24-.39.49-.59.73-.2.24-.39.49-.59.74-.2.24-.39.49-.59.73-.2.24-.39.49-.59.73-.2.24-.39.49-.59.74-.2.24-.39.49-.59.73-.2.24-.39.49-.59.74-.2.24-.39.49-.59.73-.2.24-.39.49-.59.73-.2.24-.39.49-.59.74-.2.24-.39.49-.59.73-.2.24-.39.49-.59.74-.2.24-.39.49-.59.73-.2.24-.39.49-.59.73-.2.24-.39.49-.59.73-.2.24-.39.49-.59.73-.2.24-.39.49-.59.74-.2.24-.39.49-.59.73-.2.24-.39.49-.59.73-.2.24-.39.49-.59.74-.2.24-.39.49-.59.73-.2.24-.39.49-.59.74-.2.24-.39.49-.59.73-.2.24-.39.49-.59.73-.2.24-.39.49-.59.73-.2.24-.39.49-.59.73-.2.24-.39.49-.59.74-.2.24-.39.49-.59.73-.2.24-.39.49-.59.73-.2.24-.39.49-.59.73-.2.24-.39.49-.59.74-.2.24-.39.49-.59.73-.2.24-.39.49-.59.73-.2.24-.39.49-.59.73-.2.24-.4.49-.59.74-.2.24-.39.49-.59.73-.2.24-.39.49-.59.73-.2.24-.39.49-.59.73-.2.24-.4.49-.59.74-.2.24-.39.49-.59.73-.2.24-.39.49-.59.74-.2.24-.39.49-.59.73-.2.24-.39.49-.59.74-.2.24-.39.49-.59.73-.2.24-.39.49-.59.74-.2.24-.39.49-.59.73-.2.24-.39.49-.59.73-.2.24-.4.49-.59.74-.2.24-.39.49-.59.73-.2.24-.39.49-.59.73-.2.24-.39.49-.59.73-.2.24-.4.49-.59.74-.2.24-.39.49-.59.73-.2.24-.39.49-.59.73-.2.24-.39.49-.59.73-.2.24-.4.49-.59.74-.2.24-.39.49-.59.73-.2.24-.4.49-.59.74-.2.24-.39.49-.59.73-.2.24-.39.49-.59.74-.2.24-.39.49-.59.73-.2.24-.39.49-.59.74-.2.24-.39.49-.59.73-.2.24-.39.49-.59.73-.2.24-.4.49-.59.74-.2.24-.39.49-.59.73-.2.24-.39.49-.59.73-.2.24-.39.49-.59.73-.2.24-.39.49-.59.74-.2.24-.39.49-.59.73-.2.24-.39.49-.59.73-.2.24-.39.49-.59.73-.2.24-.4.49-.59.74-.2.24-.39.49-.59.73-.2.24-.39.49-.59.73-.2.24-.4.49-.59.74-.2.24-.39.49-.59.73-.2.24-.39.49-.59.73-.2.24-.39.49-.59.73-.2.24-.4.49-.59.74-.2.24-.39.49-.59.73-.2.24-.4.49-.59.74-.2.24-.39.49-.59.73-.2.24-.4.49-.59.74-.2.24-.39.49-.59.73-.2.24-.39.49-.59.73-.2.24-.39.49-.59.73-.2.24-.4.49-.59.74-.2.24-.39.49-.59.73-.2.24-.4.49-.59.74-.2.24-.39.49-.59.73-.2.24-.39.49-.59.73-.2.24-.4.49-.59.74-.2.24-.39.49-.59.73-.2.24-.39.49-.59.73-.2.24-.39.49-.59.73-.2.24-.4.49-.59.74-.2.24-.39.49-.59.73-.2.24-.39.49-.59.73-.2.24-.39.49-.59.73-.2.24-.39.49-.59.73-.2.24-.4.49-.59.74-.2.24-.39.49-.59.73-.2.24-.39.49-.59.73-.2.24-.4.49-.59.74-.2.24-.39.49-.59.73-.2.24-.4.49-.59.74-.2.24-.39.49-.59.73-.2.24-.39.49-.59.73-.2.24-.4.49-.59.74-.2.24-.39.49-.59.73-.2.24-.4.49-.59.74-.2.24-.39.49-.59.73-.2.24-.4.49-.59.74-.2.24-.39.49-.59.73-.2.24-.39.49-.59.73-.2.24-.4.49-.59.74-.2.24-.39.49-.59.73-.2.24-.4.49-.59.74-.2.24-.39.49-.59.73-.2.24-.4.49-.59.74-.2.24-.4.49-.59.73-.2.24-.4.49-.59.73-.2.24-.39.49-.59.73-.2.24-.4.49-.59.73-.2.24-.39.49-.59.73-.2.24-.4.49-.59.74-.2.24-.39.49-.59.73-.2.24-.4.49-.59.74-.2.24-.39.49-.59.73-.2.24-.4.49-.59.74-.2.24-.39.49-.59.73-.2.24-.4.49-.59.73-.2.24-.4.49-.59.74-.2.24-.39.49-.59.73-.2.24-.4.49-.59.74-.2.24-.39.49-.59.73-.2.24-.39.49-.59.73-.2.24-.4.49-.59.74-.2.24-.4.49-.59.73-.2.24-.4.49-.59.73-.2.24-.39.49-.59.73-.2.24-.4.49-.59.73-.2.24-.4.49-.59.74-.2.24-.39.49-.59.73-.2.24-.4.49-.59.74-.2.24-.39.49-.59.73-.2.24-.4.49-.59.74-.2.24-.39.49-.59.73-.2.24-.4.49-.59.73-.2.24-.4.49-.59.73-.2.24-.4.49-.59.74-.2.24-.39.49-.59.73-.2.24-.4.49-.59.74-.2.24-.39.49-.59.73-.2.24-.4.49-.59.73-.2.24-.4.49-.59.73-.2.24-.39.49-.59.73-.2.24-.4.49-.59.73-.2.24-.4.49-.59.74-.2.24-.4.49-.59.73-.2.24-.4.49-.59.73-.2.24-.4.49-.59.73-.2.24-.4.49-.59.73-.2.24-.4.49-.59.73-.2.24-.4.49-.59.73-.2.24-.4.49-.59.73-.2.24-.4.49-.59.73-.2.24-.4.49-.59.74-.2.24-.4.49-.59.73-.2.24-.4.49-.59.73-.2.24-.4.49-.59.73-.2.24-.4.49-.59.74-.2.24-.39.49-.59.73-.2.24-.4.49-.59.74C3.84 175.46 0 185.28 0 196c0 24.3 19.7 44 44 44 10.72 0 20.54-3.84 28.17-10.2l.74-.59c.24-.2.49-.4.73-.6Z"/><path fill="var(--illustration-accent-2)" d="M132 165.33c31.662 0 57.33-25.668 57.33-57.33S163.662 50.67 132 50.67c-31.663 0-57.33 25.668-57.33 57.33s25.667 57.33 57.33 57.33Z"/><path fill="var(--illustration-positive)" d="M88 202.67c27.984 0 50.67-22.686 50.67-50.67S115.984 101.33 88 101.33 37.33 124.016 37.33 152 60.016 202.67 88 202.67Z"/><path fill="var(--illustration-accent-1)" d="M176 128c35.346 0 64-28.654 64-64 0-35.346-28.654-64-64-64-35.346 0-64 28.654-64 64 0 35.346 28.654 64 64 64Z"/><path fill="var(--illustration-black)" fill-rule="evenodd" d="M176 18.333c-25.221 0-45.667 20.446-45.667 45.667h-2c0-26.326 21.341-47.667 47.667-47.667 26.325 0 47.666 21.341 47.666 47.667h-2c0-25.221-20.445-45.667-45.666-45.667Zm0 91.334c25.221 0 45.667-20.446 45.667-45.667h2c0 26.326-21.342 47.667-47.667 47.667-26.326 0-47.667-21.341-47.667-47.667h2c0 25.221 20.446 45.667 45.667 45.667Z" clip-rule="evenodd"/><path fill="var(--illustration-primary)" fill-rule="evenodd" d="M136.955 165.119c-1.633.14-3.286.211-4.955.211-31.663 0-57.33-25.668-57.33-57.33 0-1.669.071-3.322.211-4.955a50.717 50.717 0 0 1 13.12-1.715c27.983 0 50.669 22.686 50.669 50.67 0 4.537-.596 8.934-1.715 13.119Z" clip-rule="evenodd"/><path fill="var(--illustration-black)" fill-rule="evenodd" d="m176.704 64.71-101 100.001-1.408-1.422 101-100 1.408 1.422Z" clip-rule="evenodd"/><path fill="var(--illustration-accent-1)" d="M45 240c24.3 0 44-19.699 44-44s-19.7-44-44-44-44 19.699-44 44 19.7 44 44 44Z"/><path fill="var(--illustration-black)" fill-rule="evenodd" d="M44 164.917c-17.167 0-31.084 13.916-31.084 31.083h-2c0-18.271 14.812-33.083 33.084-33.083 18.271 0 33.083 14.812 33.083 33.083h-2c0-17.167-13.917-31.083-31.083-31.083Zm0 62.166c17.166 0 31.083-13.916 31.083-31.083h2c0 18.271-14.812 33.083-33.083 33.083-18.272 0-33.084-14.812-33.084-33.083h2c0 17.167 13.917 31.083 31.084 31.083Z" clip-rule="evenodd"/><path fill="var(--illustration-black)" fill-rule="evenodd" d="M42.5 217v-41h2v41h-2Z" clip-rule="evenodd"/><path fill="var(--illustration-black)" fill-rule="evenodd" d="M23 195.5h41v2H23v-2Z" clip-rule="evenodd"/><path fill="var(--illustration-black)" fill-rule="evenodd" d="m31.293 207.293 23-23 1.414 1.414-23 23-1.414-1.414Z" clip-rule="evenodd"/><path fill="var(--illustration-black)" fill-rule="evenodd" d="m32.707 184.293 23 23-1.414 1.414-23-23 1.414-1.414ZM144 63h33v32h-2V65h-31v-2Z" clip-rule="evenodd"/></svg>