<svg xmlns="http://www.w3.org/2000/svg" fill="none" viewBox="0 0 240 240"><path fill="var(--illustration-gray)" d="M104 128H64v112h40V128Zm32 0v112h40V128h-40Z"/><path fill="var(--illustration-accent-1)" d="M152 216.002c13.257 0 23.997-10.745 23.997-24.002 0 13.257 10.746 24.002 24.003 24.002-13.257 0-24.003 10.746-24.003 23.998 0-13.252-10.74-23.998-23.997-23.998Z"/><path fill="var(--illustration-primary)" d="M176 192.345v47.31l-.003.345c0-13.252-10.74-23.998-23.997-23.998 13.257 0 23.997-10.745 23.997-24.002l.003.345Z"/><path fill="var(--illustration-gray)" d="M240 144h-8V64h8zm-24 8h-16V64h16zm16 31.7h-8v-120h8zM200 112h-8V64h8z"/><path fill="var(--illustration-primary)" d="M216.008 88V64H240c0 13.248-10.74 24-23.992 24Zm0 0C202.74 88 192 77.248 192 64h24.008v24Z"/><path fill="var(--illustration-accent-1)" d="M240 64h-48c0-13.248 10.74-24 24.008-24C229.26 40 240 50.752 240 64Z"/><path fill="var(--illustration-gray)" d="M40 64h-8V20h8zm-16 8H8V20h16zm8 16h-8V20h8zM8 48H0V20h8z"/><path fill="var(--illustration-positive)" d="M5.858 5.858c7.81-7.81 20.474-7.81 28.284 0 7.81 7.81 7.81 20.474 0 28.284-7.81 7.81-20.474 7.81-28.284 0-7.81-7.81-7.81-20.474 0-28.284Z"/><path fill="var(--illustration-primary)" d="M0 20a20 20 0 0 0 40 0H0Z"/><path fill="var(--illustration-white)" d="M14.343 14.343a8 8 0 1 1 11.314 11.314 8 8 0 0 1-11.314-11.314Z"/><path fill="var(--illustration-accent-1)" d="M40 127.998c-8.838 0-15.998 7.164-15.998 16.002 0-8.838-7.164-16.002-16.002-16.002 8.838 0 16.002-7.163 16.002-15.998 0 8.835 7.16 15.998 15.998 15.998Zm96-96c-8.838 0-15.999 7.164-15.999 16.002 0-8.838-7.163-16.002-16.001-16.002 8.838 0 16.001-7.163 16.001-15.998 0 8.835 7.161 15.998 15.999 15.998Z"/><path fill="var(--illustration-gray)" d="M48 216h-8v-24h8zm-24 16h-8v-40h8zm16 8h-8v-48h8zm-8-24h-8v-24h8z"/><path fill="var(--illustration-accent-2)" d="M16 192.005h16V208c-8.832 0-16-7.16-16-15.995Zm0 0C16 183.16 23.168 176 32 176v16.005H16ZM32 208v-32c8.832 0 16 7.16 16 16.005C48 200.84 40.832 208 32 208Z"/><path fill="var(--illustration-accent-4)" d="M20.686 180.686c6.249-6.248 16.38-6.248 22.628 0 6.248 6.248 6.248 16.379 0 22.627-6.249 6.249-16.38 6.249-22.628 0-6.248-6.248-6.248-16.379 0-22.627Z"/><path fill="var(--illustration-primary)" d="M16 192a15.998 15.998 0 0 0 16 16 15.999 15.999 0 0 0 16-16H16Z"/><path fill="var(--illustration-white)" d="M32 199.943a7.97 7.97 0 0 0-7.972-7.971A7.972 7.972 0 0 0 32.001 184a7.971 7.971 0 0 0 7.97 7.972 7.97 7.97 0 0 0-7.97 7.971Z"/><path fill="var(--illustration-white)" d="M39.86 191.971H24.14A7.971 7.971 0 0 0 32 184a7.971 7.971 0 0 0 7.86 7.971ZM216 52l12 12-12 12-12-12 12-12Z"/><circle cx="120" cy="128.06" r="56" fill="var(--illustration-primary)"/><circle cx="120" cy="128" r="47" stroke="var(--illustration-black)" stroke-width="2"/><path fill="var(--illustration-white)" d="M131.749 134.628c0-6.506-3.96-8.7-11.619-9.75-5.661-.818-6.748-2.148-6.748-4.787 0-2.64 1.915-4.285 5.577-4.285 3.337 0 5.261 1.161 6.051 3.848a1.422 1.422 0 0 0 1.348 1.031h2.928c.191.004.381-.034.556-.111a1.318 1.318 0 0 0 .724-.837c.051-.185.062-.378.03-.567-.929-4.247-3.792-6.804-8.282-7.603v-4.48a1.39 1.39 0 0 0-1.394-1.394h-2.788a1.39 1.39 0 0 0-1.395 1.394v4.322c-5.577.781-9.099 4.462-9.099 9.184 0 6.106 3.718 8.477 11.488 9.527 5.289.864 6.795 2.008 6.795 5.01s-2.556 5.019-6.163 5.019c-4.861 0-6.506-2.128-7.055-4.889a1.408 1.408 0 0 0-1.366-1.134h-3.179a1.305 1.305 0 0 0-1.262.954 1.296 1.296 0 0 0-.03.561c.809 4.648 3.792 8.05 9.871 8.868v4.406a1.395 1.395 0 0 0 1.395 1.394h2.788a1.395 1.395 0 0 0 1.394-1.394v-4.406c5.763-.911 9.435-4.889 9.435-9.881Z"/><path fill="var(--illustration-white)" d="M109.961 154.193a27.885 27.885 0 0 1 0-52.387 2.01 2.01 0 0 0 1.199-1.756v-2.603a1.322 1.322 0 0 0-1.859-1.33 33.46 33.46 0 0 0 0 63.765 1.32 1.32 0 0 0 1.859-1.329v-2.603a2.014 2.014 0 0 0-1.199-1.757Zm19.789-58.075a1.317 1.317 0 0 0-1.747.655 1.335 1.335 0 0 0-.112.674v2.603a2.008 2.008 0 0 0 1.199 1.756 27.887 27.887 0 0 1 0 52.387 1.86 1.86 0 0 0-1.199 1.757v2.603a1.33 1.33 0 0 0 .546 1.201 1.32 1.32 0 0 0 1.313.128 33.46 33.46 0 0 0 16.855-51.627 33.463 33.463 0 0 0-16.855-12.137Z"/></svg>