<svg xmlns="http://www.w3.org/2000/svg" fill="none" viewBox="0 0 240 240"><path fill="var(--illustration-gray)" d="M208 120H32v32h176v-32Z"/><path fill="var(--illustration-positive)" d="M120 240a52 52 0 1 0 0-104 52 52 0 0 0 0 104Z"/><path fill="var(--illustration-black)" fill-rule="evenodd" d="M157.5 152h-75c9.5-9.9 22.8-16 37.5-16s28.1 6.1 37.5 16Z" clip-rule="evenodd"/><path fill="var(--illustration-primary)" d="M208 0h-32v120h32V0Z"/><path fill="var(--illustration-primary)" d="M208 0h-32v56h32V0Zm-96 81H80v39h32V81Zm48-25.1h-32V120h32V55.9ZM64 104H32v16h32v-16Z"/><path fill="var(--illustration-positive)" d="M208 0h-32v55.4h32V0Z"/><path fill="var(--illustration-black)" fill-rule="evenodd" d="M193 16v104h-2V16h2Z" clip-rule="evenodd"/><path fill="var(--illustration-black)" fill-rule="evenodd" d="M192.24 13.21 204.2 25.3l-1.42 1.4L192.17 16l-10.59 9.75-1.35-1.48 12-11.05ZM104 171.4a5.5 5.5 0 1 0 0 11 5.5 5.5 0 0 0 0-11Zm-7.5 5.5a7.5 7.5 0 1 1 15 0 7.5 7.5 0 0 1-15 0Zm37.9 20a5.5 5.5 0 1 0 0 11 5.5 5.5 0 0 0 0-11Zm-7.5 5.5a7.5 7.5 0 1 1 15 0 7.5 7.5 0 0 1-15 0Zm12.73-33.22-39.4 42.3-1.46-1.36 39.4-42.3 1.46 1.36Z" clip-rule="evenodd"/></svg>