<svg xmlns="http://www.w3.org/2000/svg" fill="none" viewBox="0 0 240 240"><path fill="var(--illustration-gray)" d="M112 128h32v112h-32zm-16 0h8v96h-8zm56 0h8v96h-8z"/><path fill="var(--illustration-accent-4)" d="M24 0h192v128H24z"/><path fill="var(--illustration-white)" d="M40 16h64v64H40z"/><path fill="var(--illustration-primary)" d="M120 16h80v16h-80z"/><path fill="var(--illustration-black)" fill-rule="evenodd" d="M168 49h-48v-2h48zm-32 32h-16v-2h16zm24 0h-16v-2h16zm24 0h-16v-2h16zm-32-16h-32v-2h32zm36 3c6.627 0 12-5.373 12-12s-5.373-12-12-12-12 5.373-12 12 5.373 12 12 12m.001-4c0-4.42 3.58-8 7.999-8a8 8 0 0 1-7.999-8A8 8 0 0 1 180 56a8 8 0 0 1 8.001 8" clip-rule="evenodd"/><path fill="var(--illustration-white)" d="M40 16h64v64H40z"/><path fill="var(--illustration-accent-1)" fill-rule="evenodd" d="M104 64.7V80H40V64.7C47.049 54.606 58.753 48 72 48s24.951 6.605 32 16.7" clip-rule="evenodd"/><path fill="var(--illustration-black)" d="M84 32c0 6.627-5.373 12-12 12s-12-5.373-12-12 5.373-12 12-12 12 5.373 12 12"/><path fill="var(--illustration-white)" d="M40 102h64V86H40z"/><path fill="var(--illustration-black)" d="M60.5 99.2h.4c.6 0 1.1-.2 1.4-.6.254-.222.558-.497.894-.8 1.782-1.612 4.465-4.037 5.306-3.7.1 0 .6.3.8 2.6.1.8.6 1.5 1.3 1.8s1.5.2 2.1-.3l4.3-3.7-1.3-1.6-4.3 3.7s-.1 0-.1-.1c-.2-1.5-.5-3.7-2.1-4.3-2.1-.7-4.8 1.6-8.3 5l-1.2-2.5c-.3-.6-.8-1-1.5-1.1s-1.3.2-1.8.7c-2.4 2.6-3.2 2.3-3.2 2.3-.4-.2-1.2-1.7-.6-6.9.1-.7-.3-1.4-1-1.6s-1.4 0-1.8.6L44 97.3l1.7 1 4.7-7.1c-.2 4.1.4 6.4 2 7.1 1.9.9 4-1.2 5.5-2.8l1.2 2.5c.3.6.9 1 1.4 1.2m18.5-.8 1.7 1 4.1-6.6c.8 3.6 2.6 5.9 5 6.3s4.8-1.2 6.6-4.4c0-.1.1-.1.1-.1l2.5 4.3 1.7-1-2.5-4.3c-.4-.6-1.1-1-1.8-1s-1.4.4-1.8 1c-1.4 2.4-3 3.7-4.5 3.4-1.7-.3-3.1-2.5-3.6-5.7-.1-.7-.5-1.2-1.2-1.3-.6-.1-1.3.2-1.6.7z"/><path fill="var(--illustration-accent-1)" d="M160 128c0 17.673-14.327 32-32 32s-32-14.327-32-32 14.327-32 32-32 32 14.327 32 32"/><path fill="var(--illustration-primary)" fill-rule="evenodd" d="M160 128c0-17.673-14.327-32-32-32s-32 14.327-32 32z" clip-rule="evenodd"/><path fill="var(--illustration-black)" fill-rule="evenodd" d="M128 105c-12.703 0-23 10.297-23 23s10.297 23 23 23 23-10.297 23-23-10.297-23-23-23m-25 23c0-13.807 11.193-25 25-25s25 11.193 25 25-11.193 25-25 25-25-11.193-25-25" clip-rule="evenodd"/><path fill="var(--illustration-gray)" d="M32 173h16v67H32zm24 0h16v67H56z"/><path fill="var(--illustration-accent-2)" d="M80 172c0 15.464-12.536 28-28 28s-28-12.536-28-28 12.536-28 28-28 28 12.536 28 28"/><path fill="var(--illustration-white)" fill-rule="evenodd" d="M52.001 160a39.8 39.8 0 0 0 12.002 12A39.8 39.8 0 0 0 52 184a39.8 39.8 0 0 0-12-12 39.8 39.8 0 0 0 12.001-12" clip-rule="evenodd"/><path fill="var(--illustration-gray)" d="M216 176h-40v64h8v-48h24v48h8z"/><path fill="var(--illustration-accent-2)" d="M216 176c0-11.046-8.954-20-20-20s-20 8.954-20 20 8.954 20 20 20 20-8.954 20-20"/><path fill="var(--illustration-primary)" fill-rule="evenodd" d="M216 176h-40c0 11.046 8.954 20 20 20s20-8.954 20-20" clip-rule="evenodd"/><path fill="var(--illustration-white)" d="M196 184a8 8 0 1 0 0-16 8 8 0 0 0 0 16"/></svg>