<svg xmlns="http://www.w3.org/2000/svg" fill="none" viewBox="0 0 240 240"><path fill="var(--illustration-positive)" fill-rule="evenodd" d="M222 16.01v190H32z" clip-rule="evenodd"/><path fill="var(--illustration-gray)" d="M154 64h-32v176h32z"/><path fill="var(--illustration-gray)" d="M154 64h-32v176h32z"/><path fill="var(--illustration-primary)" fill-rule="evenodd" d="M154 84.01v122h-32v-90z" clip-rule="evenodd"/><path fill="var(--illustration-gray)" d="M204 16h-32v224h32z"/><path fill="var(--illustration-primary)" fill-rule="evenodd" d="M204 34.01v172h-32v-140z" clip-rule="evenodd"/><path fill="var(--illustration-gray)" d="M104 112H72v128h32z"/><path fill="var(--illustration-primary)" fill-rule="evenodd" d="M104 134.01v72H72v-40z" clip-rule="evenodd"/><path fill="var(--illustration-gray)" d="M88 128c8.837 0 16-7.163 16-16s-7.163-16-16-16-16 7.163-16 16 7.163 16 16 16"/><path fill="var(--illustration-primary)" fill-rule="evenodd" d="M104 112c0 8.84-7.16 16-16 16s-16-7.16-16-16" clip-rule="evenodd"/><path fill="var(--illustration-accent-1)" d="M138 80c8.837 0 16-7.163 16-16s-7.163-16-16-16-16 7.163-16 16 7.163 16 16 16"/><path fill="var(--illustration-accent-2)" d="M188 32c8.837 0 16-7.163 16-16s-7.163-16-16-16-16 7.163-16 16 7.163 16 16 16"/><path fill="var(--illustration-invert)" d="M240 238H0v2h240z"/><path fill="var(--illustration-primary)" d="M32 238c17.67 0 32-14.33 32-32s-14.33-32-32-32-32 14.33-32 32 14.33 32 32 32"/><path fill="var(--illustration-primary)" fill-rule="evenodd" d="M154 64c0 8.84-7.16 16-16 16s-16-7.16-16-16m82-48c0 8.84-7.16 16-16 16s-16-7.16-16-16" clip-rule="evenodd"/><path fill="var(--illustration-invert)" d="M64 206.01H32l22.63-22.63c5.79 5.79 9.37 13.79 9.37 22.63"/><path stroke="var(--illustration-invert-2)" stroke-miterlimit="10" stroke-width="2" d="M19 198.16c0-2.76 2.24-5 5-5s5 2.24 5 5-2.24 5-5 5-5-2.24-5-5Zm16 15.69c0-2.76 2.24-5 5-5s5 2.24 5 5-2.24 5-5 5-5-2.24-5-5Z" clip-rule="evenodd"/><path stroke="var(--illustration-invert-2)" stroke-miterlimit="10" stroke-width="2" d="m20 218 24-24"/><path fill="var(--illustration-invert-2)" d="M138 71a7 7 0 1 0 0-14 7 7 0 0 0 0 14m50-63.24a20.8 20.8 0 0 0 8.25 8.25c-3.48 1.9-6.34 4.77-8.25 8.25-1.9-3.48-4.77-6.34-8.25-8.25A20.8 20.8 0 0 0 188 7.76"/></svg>