<svg xmlns="http://www.w3.org/2000/svg" fill="none" viewBox="0 0 240 240"><path fill="var(--illustration-primary)" d="M0 240h144V0H0v240Z"/><path fill="var(--illustration-black)" d="M72 14a2 2 0 1 0 0-4 2 2 0 0 0 0 4Zm8 212H64v4h16v-4Z"/><path fill="var(--illustration-accent-2)" d="M0 216h144V24H0v192Z"/><path fill="var(--illustration-gray)" d="M200 72v96H32V72h168Z"/><path fill="var(--illustration-primary)" d="M144 72v96H32V72h112Z"/><path fill="var(--illustration-positive)" d="M200 116c-22.091 0-40-17.909-40-40s17.909-40 40-40 40 17.909 40 40-17.909 40-40 40Z"/><path fill="var(--illustration-primary)" fill-rule="evenodd" d="M160 76c0 22.091 17.909 40 40 40V72h-39.802a40.362 40.362 0 0 0-.198 4Z" clip-rule="evenodd"/><path fill="var(--illustration-black)" fill-rule="evenodd" d="m196.577 80.817-79.068 55.91-78.091-55.914 1.164-1.626 76.934 55.086 77.907-55.09 1.154 1.633Z" clip-rule="evenodd"/><path fill="var(--illustration-black)" fill-rule="evenodd" d="m92.799 117.772-52.163 43-1.272-1.544 52.162-43 1.273 1.544Zm51.675-1.544 52.162 43-1.272 1.544-52.163-43 1.273-1.544Z" clip-rule="evenodd"/></svg>