<svg xmlns="http://www.w3.org/2000/svg" fill="none" viewBox="0 0 240 240"><path fill="var(--illustration-primary)" d="M0 240h144V0H0v240Z"/><path fill="var(--illustration-black)" d="M72 14a2 2 0 1 0 0-4 2 2 0 0 0 0 4Zm8 212H64v4h16v-4Z"/><path fill="var(--illustration-accent-2)" d="M0 216h144V24H0v192Z"/><path fill="var(--illustration-gray)" d="M200 72v96H32V72h168Z"/><path fill="var(--illustration-primary)" d="M144 72v96H32V72h112Z"/><path fill="var(--illustration-positive)" d="M200 116a40 40 0 1 1 0-80 40 40 0 0 1 0 80Z"/><path fill="var(--illustration-primary)" fill-rule="evenodd" d="M160 76a40 40 0 0 0 40 40V72h-39.8c-.13 1.32-.2 2.65-.2 4Z" clip-rule="evenodd"/><path fill="var(--illustration-black)" fill-rule="evenodd" d="m196.57 80.82-79.06 55.9-78.1-55.9 1.17-1.63 76.93 55.08 77.9-55.09 1.16 1.64Z" clip-rule="evenodd"/><path fill="var(--illustration-black)" fill-rule="evenodd" d="m92.8 117.77-52.16 43-1.27-1.54 52.16-43 1.27 1.54Zm51.68-1.54 52.16 43-1.27 1.54-52.16-43 1.27-1.54Z" clip-rule="evenodd"/></svg>