<svg xmlns="http://www.w3.org/2000/svg" fill="none" viewBox="0 0 240 240"><path fill="var(--illustration-accent-2)" d="M240 24H0v192h240V24Z"/><path fill="var(--illustration-gray)" d="M204 240V0H36v240h168Z"/><path fill="var(--illustration-primary)" d="M204 24H36v192h168V24Z"/><path fill="var(--illustration-black)" fill-rule="evenodd" d="M43 31h154v178H43V31Zm2 2v174h150V33H45Z" clip-rule="evenodd"/><path fill="var(--illustration-accent-1)" d="M188 40H52v160h136V40Z"/><path fill="var(--illustration-black)" d="M52 24H36v16h16V24Zm152 0h-16v16h16V24ZM52 200H36v16h16v-16Zm152 0h-16v16h16v-16ZM76 64l28 24h32l28-24v136H76V64Z"/><path fill="var(--illustration-primary)" d="M164 112.78v54.44C153.74 177.44 137.85 184 120 184s-33.74-6.56-44-16.78v-54.44C86.26 102.56 102.15 96 120 96s33.74 6.56 44 16.78Z"/><path fill="var(--illustration-black)" d="M120 172c30.93 0 56-19.7 56-44s-25.07-44-56-44-56 19.7-56 44 25.07 44 56 44Z"/><path fill="var(--illustration-primary)" d="M100.13 83.44c.34-.89 2.93-.95 4.73-.49 3.2.83 8.78 3 15.14 3 6.36 0 11.94-2.17 15.14-3 1.8-.47 4.4-.41 4.73.49C140.82 85.95 137.03 96 120 96s-20.8-10.05-19.87-12.56Z"/><path fill="var(--illustration-primary)" d="M120 56c-9.2 0-16.67 1.49-16.67 3.33V86c0 1.84 7.46 3.33 16.67 3.33 9.2 0 16.67-1.49 16.67-3.33V59.33c0-1.84-7.46-3.33-16.67-3.33Z"/><path fill="var(--illustration-black)" d="M103.33 86c0 1.84 7.46 3.33 16.67 3.33 9.2 0 16.67-1.49 16.67-3.33v-6.67c0 1.84-7.46 3.33-16.67 3.33s-16.67-1.49-16.67-3.33V86Z"/><path fill="var(--illustration-invert-2)" d="M36 168a45.25 45.25 0 0 0 16-16H0v32h52a45.25 45.25 0 0 0-16-16Z"/><path fill="var(--illustration-black)" d="M52 152v32a45.25 45.25 0 0 1 16-16 45.25 45.25 0 0 1-16-16Z"/><path fill="var(--illustration-primary)" d="M36 168a45.25 45.25 0 0 1 16 16v-32a45.25 45.25 0 0 1-16 16Z"/><path fill="var(--illustration-white)" d="M16 120a30.12 30.12 0 0 0 12 12 30.12 30.12 0 0 0-12 12 30.12 30.12 0 0 0-12-12 30.12 30.12 0 0 0 12-12Z"/><path fill="var(--illustration-black)" d="M192 76a30.12 30.12 0 0 1 12 12V64a30.12 30.12 0 0 1-12 12Z"/><path fill="var(--illustration-invert-2)" d="M204 64a30.12 30.12 0 0 0 12 12 30.12 30.12 0 0 0-12 12h36V64h-36Z"/><path fill="var(--illustration-positive)" d="M216 76a30.12 30.12 0 0 1-12-12v24a30.12 30.12 0 0 1 12-12Z"/><path fill="var(--illustration-white)" d="M138 126a10 10 0 1 0 0-20 10 10 0 0 0 0 20Z"/><path fill="var(--illustration-black)" d="M138 124.33c1.38 0 2.5-3.73 2.5-8.33s-1.12-8.33-2.5-8.33-2.5 3.73-2.5 8.33 1.12 8.33 2.5 8.33Z"/><path fill="var(--illustration-white)" d="M102 126a10 10 0 1 0 0-20 10 10 0 0 0 0 20Z"/><path fill="var(--illustration-black)" d="M102 124.33c1.38 0 2.5-3.73 2.5-8.33s-1.12-8.33-2.5-8.33-2.5 3.73-2.5 8.33 1.12 8.33 2.5 8.33Z"/><path fill="var(--illustration-accent-1)" d="m120 132-8-8h16l-8 8Zm0 64a12 12 0 1 0 0-24 12 12 0 0 0 0 24Z"/><path fill="var(--illustration-black)" d="M120 188c2.2 0 4-.9 4-2s-1.8-2-4-2-4 .9-4 2 1.8 2 4 2Z"/><path fill="var(--illustration-black)" fill-rule="evenodd" d="M121 185v15h-2v-15h2Z" clip-rule="evenodd"/></svg>