<svg xmlns="http://www.w3.org/2000/svg" fill="none" viewBox="0 0 240 240"><path fill="var(--illustration-invert)" fill-rule="evenodd" d="M131.5 80V51.5h2V80z" clip-rule="evenodd"/><path fill="var(--illustration-invert)" fill-rule="evenodd" d="m137.703 47.707-50 50-1.414-1.414 50-50z" clip-rule="evenodd"/><path fill="var(--illustration-invert)" fill-rule="evenodd" d="m85.922 45.842 34.526 17.264-.894 1.788L90.08 50.158l13.831 30.428-1.82.828z" clip-rule="evenodd"/><path fill="var(--illustration-invert)" fill-rule="evenodd" d="M90.331 78.891c-1.838 2.505-2.702 4.642-2.839 5.733l-1.984-.248c.197-1.577 1.282-4.04 3.21-6.668 1.953-2.66 4.835-5.583 8.748-8.054l1.068 1.691c-3.687 2.33-6.389 5.074-8.203 7.546m20.792-16.289a22.4 22.4 0 0 0-4.88 4.067 16.9 16.9 0 0 0-3.718 6.727 15 15 0 0 0-.462 2.284c-.032.275-.048.488-.056.629l-.006.154-.001.034v.004l-1-.001h-1v-.029l.001-.06q.002-.077.009-.212c.01-.18.029-.435.067-.754a17 17 0 0 1 .523-2.59 18.9 18.9 0 0 1 4.157-7.524 24.3 24.3 0 0 1 5.32-4.433 21 21 0 0 1 1.824-1.002 13 13 0 0 1 .678-.305l.042-.017.013-.005.004-.001h.002v-.001l.36.933.359.933-.003.001-.024.01-.112.047q-.153.065-.452.207c-.395.19-.964.486-1.645.904m2.237-1.17q.002 0 0 0m18.526-8.438c-14.18-1.576-22.098 2.98-24.158 5.188l-1.462-1.364c2.606-2.793 11.221-7.436 25.841-5.812zm-21.756-6.22c-4.149 3.394-5.133 7.667-5.133 9.226h-2c0-2.108 1.215-6.968 5.866-10.774zm-8.749 8.65c-4.457 1.856-5.752 5.033-5.888 6.66l-1.993-.167c.198-2.374 1.969-6.197 7.112-8.34zM83.367 67.226c4.725-3.866 10.523-3.58 12.893-2.942l-.52 1.932c-1.963-.529-7.031-.776-11.106 2.558zM120 181c-32.198 0-53.759-10.726-60.625-16.219l1.25-1.562C67.091 168.393 88.196 179 120 179s52.908-10.607 59.375-15.781l1.249 1.562C173.758 170.274 152.197 181 120 181" clip-rule="evenodd"/><path fill="var(--illustration-primary)" d="M152 48h16v64h-16zm-80 0h16v64H72z"/><path fill="var(--illustration-accent-1)" d="M152 112v16H88v-16zm0-80v16H88V32z"/><path fill="var(--illustration-black)" d="M88 32v16H72V32zm0 80v16H72v-16zm80-80v16h-16V32zm0 80v16h-16v-16z"/><path fill="var(--illustration-primary)" d="M52 160h8v48h-8zm128 0h8v48h-8z"/><path fill="var(--illustration-accent-1)" d="M64 152a8 8 0 1 1-16 0 8 8 0 0 1 16 0m128 0a8 8 0 1 1-16 0 8 8 0 0 1 16 0"/><path fill="var(--illustration-primary)" d="M44 160h24v4H44zm128 0h24v4h-24z"/><path fill="var(--illustration-black)" d="M52 160h8v4h-8zm128 0h8v4h-8z"/><path fill="var(--illustration-gray)" fill-rule="evenodd" d="M120.002 183.221c-21.377 0-38.157-4.663-49.197-9.47l2.395-5.501c10.328 4.497 26.295 8.971 46.802 8.971z" clip-rule="evenodd"/><path fill="var(--illustration-gray)" fill-rule="evenodd" d="M119.998 183.221c21.377 0 38.157-4.663 49.197-9.47l-2.395-5.501c-10.328 4.497-26.295 8.971-46.802 8.971z" clip-rule="evenodd"/><path fill="var(--illustration-gray)" d="M200 48h16v64h-16zM40 112H24V48h16zm200 0v16h-24v-16zM0 48V32h24v16zm240-16v16h-24V32zM0 128v-16h24v16z"/><path fill="var(--illustration-primary)" d="M216 32v16h-16V32zM24 128v-16h16v16zm192-16v16h-16v-16zM24 48V32h16v16z"/><path fill="var(--illustration-black)" fill-rule="evenodd" d="M144 121H96v-2h48zm-65-17V56h2v48zm80 0V56h2v48zm-15-63H96v-2h48z" clip-rule="evenodd"/><path fill="var(--illustration-invert)" d="M129 80.5a3.5 3.5 0 1 1 7 0v9a3.5 3.5 0 1 1-7 0z"/><path fill="var(--illustration-invert)" fill-rule="evenodd" d="M142.853 76.521 138.894 83H136v-2h1.772l3.375-5.522zm-20.706 0L126.106 83H129v-2h-1.772l-3.375-5.522zm20.659 15.888-3.966-5.41H136v2h1.827l3.367 4.592zm-20.612 0 3.966-5.41H129v2h-1.827l-3.367 4.592zM142 86h-6v-2h6zm-19 0h6v-2h-6z" clip-rule="evenodd"/></svg>