<svg xmlns="http://www.w3.org/2000/svg" fill="none" viewBox="0 0 240 240"><path fill="var(--illustration-invert)" fill-rule="evenodd" d="M131.5 80V51.5h2V80h-2Z" clip-rule="evenodd"/><path fill="var(--illustration-invert)" fill-rule="evenodd" d="m137.7 47.7-50 50-1.41-1.4 50-50 1.41 1.4Z" clip-rule="evenodd"/><path fill="var(--illustration-invert)" fill-rule="evenodd" d="m85.92 45.84 34.53 17.27-.9 1.78-29.47-14.73 13.83 30.43-1.82.82-16.17-35.57Z" clip-rule="evenodd"/><path fill="var(--illustration-invert)" fill-rule="evenodd" d="M90.33 78.9c-1.84 2.5-2.7 4.63-2.84 5.72l-1.98-.24c.2-1.58 1.28-4.04 3.2-6.67a32.17 32.17 0 0 1 8.76-8.06l1.06 1.7a30.18 30.18 0 0 0-8.2 7.54Zm20.79-16.3a22.37 22.37 0 0 0-4.88 4.07 16.89 16.89 0 0 0-4.18 9.01c-.03.27-.05.49-.05.63v.15l-.01.04h-2v-.09l.01-.21a17.15 17.15 0 0 1 .59-3.34c.6-2.12 1.78-4.9 4.16-7.53a24.33 24.33 0 0 1 7.14-5.43 13.29 13.29 0 0 1 .68-.3l.04-.03h.02l.36.93.36.93-.03.01a5.6 5.6 0 0 0-.56.26c-.4.19-.97.48-1.65.9Zm2.24-1.17ZM131.89 53c-14.18-1.58-22.1 2.97-24.16 5.18l-1.46-1.36c2.6-2.8 11.22-7.44 25.84-5.81l-.22 1.98Zm-21.76-6.23c-4.15 3.4-5.13 7.67-5.13 9.23h-2c0-2.1 1.21-6.97 5.86-10.77l1.27 1.54Zm-8.75 8.65c-4.46 1.86-5.75 5.04-5.89 6.66l-1.99-.16c.2-2.38 1.97-6.2 7.11-8.34l.77 1.84ZM83.37 67.23a15.32 15.32 0 0 1 12.89-2.95l-.52 1.94a13.34 13.34 0 0 0-11.1 2.55l-1.27-1.54ZM120 181c-32.2 0-53.76-10.73-60.63-16.22l1.25-1.56C67.1 168.39 88.2 179 120 179c31.8 0 52.9-10.6 59.38-15.78l1.24 1.56C173.76 170.28 152.2 181 120 181Z" clip-rule="evenodd"/><path fill="var(--illustration-primary)" d="M152 48h16v64h-16V48Zm-80 0h16v64H72V48Z"/><path fill="var(--illustration-accent-1)" d="M152 112v16H88v-16h64Zm0-80v16H88V32h64Z"/><path fill="var(--illustration-black)" d="M88 32v16H72V32h16Zm0 80v16H72v-16h16Zm80-80v16h-16V32h16Zm0 80v16h-16v-16h16Z"/><path fill="var(--illustration-primary)" d="M52 160h8v48h-8v-48Zm128 0h8v48h-8v-48Z"/><path fill="var(--illustration-accent-1)" d="M64 152a8 8 0 1 1-16 0 8 8 0 0 1 16 0Zm128 0a8 8 0 1 1-16 0 8 8 0 0 1 16 0Z"/><path fill="var(--illustration-primary)" d="M44 160h24v4H44v-4Zm128 0h24v4h-24v-4Z"/><path fill="var(--illustration-black)" d="M52 160h8v4h-8v-4Zm128 0h8v4h-8v-4Z"/><path fill="var(--illustration-gray)" fill-rule="evenodd" d="M120 183.22c-21.37 0-38.16-4.66-49.2-9.47l2.4-5.5c10.33 4.5 26.3 8.97 46.8 8.97v6Z" clip-rule="evenodd"/><path fill="var(--illustration-gray)" fill-rule="evenodd" d="M120 183.22c21.38 0 38.16-4.66 49.2-9.47l-2.4-5.5c-10.33 4.5-26.3 8.97-46.8 8.97v6Z" clip-rule="evenodd"/><path fill="var(--illustration-gray)" d="M200 48h16v64h-16V48ZM40 112H24V48h16v64Zm200 0v16h-24v-16h24ZM0 48V32h24v16H0Zm240-16v16h-24V32h24ZM0 128v-16h24v16H0Z"/><path fill="var(--illustration-primary)" d="M216 32v16h-16V32h16ZM24 128v-16h16v16H24Zm192-16v16h-16v-16h16ZM24 48V32h16v16H24Z"/><path fill="var(--illustration-black)" fill-rule="evenodd" d="M144 121H96v-2h48v2Zm-65-17V56h2v48h-2Zm80 0V56h2v48h-2Zm-15-63H96v-2h48v2Z" clip-rule="evenodd"/><path fill="var(--illustration-invert)" d="M129 80.5a3.5 3.5 0 1 1 7 0v9a3.5 3.5 0 1 1-7 0v-9Z"/><path fill="var(--illustration-invert)" fill-rule="evenodd" d="M142.85 76.52 138.9 83H136v-2h1.77l3.38-5.52 1.7 1.04Zm-20.7 0L126.1 83h2.9v-2h-1.77l-3.38-5.52-1.7 1.04ZM142.8 92.4l-3.96-5.4H136v2h1.83l3.36 4.6 1.62-1.2Zm-20.6 0 3.96-5.4H129v2h-1.83l-3.36 4.6-1.62-1.2ZM142 86h-6v-2h6v2Zm-19 0h6v-2h-6v2Z" clip-rule="evenodd"/></svg>