<svg xmlns="http://www.w3.org/2000/svg" fill="none" viewBox="0 0 240 240"><path fill="var(--illustration-invert-2)" d="m192 146.4 28 10.27V220l-28-28z"/><path fill="var(--illustration-primary)" d="M168 72H72v96h96z"/><path fill="var(--illustration-black)" d="M168 168H72V72z"/><path fill="var(--illustration-black)" d="M168 99.84H72V168h96z"/><path fill="var(--illustration-black)" d="M168 168H72l96-96z"/><path fill="var(--illustration-primary)" d="M112.281 136.7h15.44l-7.72 6.76z"/><path fill="var(--illustration-accent-1)" d="M100.803 138.48c6.23 0 11.28-5.05 11.28-11.28s-5.05-11.28-11.28-11.28-11.28 5.05-11.28 11.28 5.05 11.28 11.28 11.28"/><path fill="var(--illustration-black)" d="M100.799 135.6c1.524 0 2.76-3.761 2.76-8.4s-1.236-8.4-2.76-8.4-2.76 3.761-2.76 8.4 1.236 8.4 2.76 8.4"/><path fill="var(--illustration-accent-1)" d="M139.202 138.48c6.23 0 11.28-5.05 11.28-11.28s-5.05-11.28-11.28-11.28-11.28 5.05-11.28 11.28 5.05 11.28 11.28 11.28"/><path fill="var(--illustration-black)" d="M139.197 135.6c1.525 0 2.761-3.761 2.761-8.4s-1.236-8.4-2.761-8.4c-1.524 0-2.759 3.761-2.759 8.4s1.235 8.4 2.759 8.4"/><path fill="var(--illustration-gray)" d="M20 20 0 0v76l20 7.33zm0 136.67L0 164v76l20-20zM220 20v63.33L240 76V0z"/><path fill="var(--illustration-accent-2)" d="m220 220 20 20v-76l-20-7.33z"/><path fill="var(--illustration-invert-2)" d="m220.002 20 20-20h-76l-7.33 20zM83.33 20 76 0H0l20 20zM20 220 0 240h76l7.33-20zm136.672 0 7.33 20h76l-20-20zM48 146.4l-28 10.27V220l28-28zM48 48 20 20v63.33L48 93.6zm144 45.6 28-10.27V20l-28 28z"/><path fill="var(--illustration-accent-2)" d="M146.398 48h45.6l28-28h-63.33zM93.6 48 83.33 20H20l28 28z"/><path fill="var(--illustration-gray)" d="m48 192-28 28h63.33l10.27-28zm98.398 0 10.27 28h63.33l-28-28z"/><path fill="var(--illustration-gray)" d="m146.398 192 10.27 28h63.33l-28-28z"/><path fill="var(--illustration-gray)" d="m146.398 192 10.27 28h63.33l-28-28z"/><path fill="var(--illustration-accent-2)" d="M72 137.6V168l-24 24v-45.6zM72 72v30.4l-24-8.8V48z"/><path fill="var(--illustration-gray)" d="M192 48v45.6l-24 8.8V72zm0 98.4V192l-24-24v-30.4z"/><path fill="var(--illustration-invert-2)" d="m192.002 48-24 24h-30.4l8.8-24zM102.4 72H72L48 48h45.6z"/><path fill="var(--illustration-primary)" d="m102.4 168-8.8 24H48l24-24z"/><path fill="var(--illustration-black)" d="M102.4 152H72l-7.68 6.4a12 12 0 0 0-4.32 9.22V170c0 5.52 4.48 10 10 10h21.02c4.2 0 7.94-2.62 9.39-6.56l2-5.44v-16z"/><path fill="var(--illustration-invert-2)" d="M192.002 192h-45.6l-8.8-24h30.4z"/><path fill="var(--illustration-accent-2)" d="M83.33 220 76 240h88l-7.33-20z"/><path fill="var(--illustration-primary)" d="m93.598 192-10.27 28h73.34l-10.27-28z"/><path fill="var(--illustration-accent-2)" d="M146.402 192h-52.8l8.8-24h35.2z"/><path fill="var(--illustration-gray)" d="M156.67 20 164 0H76l7.33 20z"/><path fill="var(--illustration-primary)" d="m146.398 48 10.27-28h-73.34l10.27 28z"/><path fill="var(--illustration-gray)" d="m146.402 48-8.8 24h-35.2l-8.8-24z"/><path fill="var(--illustration-primary)" d="M20 83.33 0 76v88l20-7.33z"/><path fill="var(--illustration-gray)" d="M48 93.6 20 83.33v73.34l28-10.27z"/><path fill="var(--illustration-primary)" d="M72 102.4v35.2l-24 8.8V93.6zM240 76v88l-20-7.33V83.33z"/><path fill="var(--illustration-gray)" d="M220 83.33v73.34l-28-10.27V93.6l20-7.34z"/><path fill="var(--illustration-primary)" d="M192 93.6v52.8l-24-8.8v-35.2zm-2.64 65.4-14.27 16.09-12.42 11.01-2.23 1.98-1.45 1.28L147 147z"/><path fill="var(--illustration-black)" d="M181.632 181.639c8.526-8.526 12.603-18.27 9.108-21.765s-13.24.582-21.765 9.107-12.603 18.27-9.107 21.765c3.495 3.495 13.239-.582 21.764-9.107"/><path fill="var(--illustration-accent-2)" d="M212 56v30.26l-20 7.34V69.33z"/><path fill="var(--illustration-black)" d="M220 83.33V112h20V76z"/><path fill="var(--illustration-primary)" d="M220 112V83.33l-8 2.93V112z"/><path fill="var(--illustration-black)" d="M80 184c6.627 0 12-5.373 12-12s-5.373-12-12-12-12 5.373-12 12 5.373 12 12 12m56-141 4-16h-40l4 16z"/><path fill="var(--illustration-black)" d="m140 27-4 16h-32l-4-16zm-36 171-4 16h40l-4-16z"/><path fill="var(--illustration-primary)" d="M31.82 136 48 132.35v-24.7L31.82 104z"/><path fill="var(--illustration-black)" d="M60.18 129.6v-19.2L48 107.65v24.7z"/><path fill="var(--illustration-white)" d="M192 108.5v27a22.34 22.34 0 0 1 13.5-13.5 22.34 22.34 0 0 1-13.5-13.5"/><path fill="var(--illustration-accent-2)" d="M192 135.5a22.34 22.34 0 0 0-13.5-13.5 22.34 22.34 0 0 0 13.5-13.5z"/><path fill="var(--illustration-primary)" d="M48 64v16c1.33-3.72 4.28-6.67 8-8a13.26 13.26 0 0 1-8-8"/><path fill="var(--illustration-gray)" d="M48 80a13.26 13.26 0 0 0-8-8c3.72-1.33 6.67-4.28 8-8z"/><path fill="var(--illustration-primary)" d="M210.002 202.67c0 2.47-.05 4.87-.14 7.2a187 187 0 0 1-14.4 0c-16.8-.67-29.47-3.64-29.47-7.2s12.67-6.53 29.47-7.2a187 187 0 0 1 14.4 0c.09 2.33.14 4.73.14 7.2"/><path fill="var(--illustration-accent-2)" d="M209.999 202.67c0 2.47-.05 4.87-.14 7.2l-14.39-14.39c.67-16.8 3.64-29.47 7.2-29.47s6.53 12.67 7.2 29.47c.09 2.33.14 4.73.14 7.2z"/><path fill="var(--illustration-primary)" d="M72 213c0 2.76-9.78 5-19.82 5S32 215.76 32 213s10.14-5 20.18-5S72 210.24 72 213"/><path fill="var(--illustration-black)" d="M71.087 214.88c-3.03 3.03-11.3-.33-18.48-7.5-7.17-7.17-10.53-15.45-7.5-18.48l3.79-3.79 25.98 25.98z"/><path fill="var(--illustration-accent-1)" d="M74.888 211.088c3.03-3.031-.328-11.303-7.502-18.477s-15.446-10.533-18.477-7.502c-3.03 3.03.328 11.302 7.502 18.476s15.447 10.533 18.477 7.503M132 28c0 6.63-5.37 12-12 12s-12-5.37-12-12c0-.34.01-.67.04-1h23.92c.03.33.04.66.04 1"/></svg>