<svg xmlns="http://www.w3.org/2000/svg" fill="none" viewBox="0 0 240 241"><path fill="var(--illustration-gray)" d="M167.711 0h-83.09C70.45 0 58.96 11.49 58.96 25.66v188.69c0 14.17 11.49 25.66 25.66 25.66h83.09c14.17 0 25.66-11.49 25.66-25.66V25.66C193.37 11.49 181.88 0 167.71 0"/><path fill="var(--illustration-primary)" d="M187.782 99.79c-10.84 0-19.61 8.78-19.61 19.61s8.78 19.61 19.61 19.61 19.61-8.78 19.61-19.61-8.78-19.61-19.61-19.61m0 28.73c-5.04 0-9.12-4.08-9.12-9.12s4.08-9.12 9.12-9.12 9.12 4.08 9.12 9.12-4.08 9.12-9.12 9.12"/><path fill="var(--illustration-gray)" fill-rule="evenodd" d="m193.59 77.84-2.67-10.64h-6.27l-2.67 10.64-5.73 1.23-6.75-8.62-5.79 2.59 1.86 10.81-4.75 3.46-9.66-5.11-4.24 4.73 6.06 9.12-2.94 5.1-10.89-.73-1.96 6.06 9.23 5.85-.61 5.86-10.24 3.78.66 6.33 10.8 1.56 1.81 5.61-7.82 7.64 3.17 5.52 10.49-3 3.92 4.38-4.05 10.18 5.11 3.74 8.37-7.01 5.36 2.4.42 10.96 6.19 1.32 4.82-9.83h5.86l4.82 9.83 6.19-1.32.42-10.96 5.36-2.4 8.37 7.01 5.11-3.74-4.05-10.18 3.92-4.38 10.49 3 3.17-5.52-7.82-7.64 1.81-5.61 10.8-1.56.66-6.33-10.24-3.78-.61-5.86 9.23-5.85-1.96-6.06-10.89.73-2.94-5.1 6.06-9.12-4.24-4.73-9.66 5.11-4.75-3.46 1.86-10.81-5.79-2.59-6.75 8.62-5.73-1.23zm22.46 41.55c0 15.62-12.65 28.27-28.27 28.27s-28.27-12.65-28.27-28.27 12.65-28.27 28.27-28.27 28.27 12.65 28.27 28.27" clip-rule="evenodd"/><path fill="var(--illustration-primary)" fill-rule="evenodd" d="M193.363 167.18v-20.06c-1.81.36-3.68.55-5.59.55-15.62 0-28.27-12.65-28.27-28.27s12.65-28.27 28.27-28.27c1.91 0 3.78.19 5.59.55V76.94l-2.45-9.74h-6.27l-2.67 10.64-5.73 1.23-6.75-8.62-5.791 2.59 1.86 10.81-4.75 3.46-9.66-5.11-4.239 4.73 6.06 9.12-2.94 5.1-10.89-.73-1.961 6.06 9.231 5.85-.61 5.86-10.241 3.78.661 6.33 10.8 1.56 1.81 5.61-7.821 7.64 3.17 5.52 10.491-3 3.919 4.38-4.05 10.18 5.11 3.74 8.371-7.01 5.36 2.4.42 10.96 6.19 1.32 4.819-9.83h5.861l2.65 5.41z" clip-rule="evenodd"/><path fill="var(--illustration-invert-2)" d="M137.868 10.83h-34.37c-2.07 0-3.74 1.67-3.74 3.74s1.67 3.74 3.74 3.74h34.37c2.07 0 3.74-1.67 3.74-3.74s-1.67-3.74-3.74-3.74m10.391 7.05a3.54 3.54 0 1 0 0-7.08 3.54 3.54 0 0 0 0 7.08"/><path fill="var(--illustration-primary)" fill-rule="evenodd" d="m115.2 158.6-1.67-6.6h-3.89l-1.67 6.6-3.56.75-4.19-5.35-3.59 1.6 1.15 6.71-2.95 2.16-5.99-3.18-2.63 2.94 3.76 5.66-1.82 3.17-6.76-.45-1.21 3.77 5.73 3.63-.38 3.64-6.35 2.35.41 3.93 6.7.97 1.12 3.48-4.85 4.74 1.97 3.42 6.52-1.86 2.43 2.72-2.51 6.33 3.18 2.32 5.2-4.36 3.32 1.49.26 6.8 3.85.82 2.99-6.1h3.64l2.99 6.1 3.85-.82.26-6.8 3.32-1.49 5.2 4.36 3.18-2.32-2.51-6.33 2.43-2.72 6.51 1.86 1.97-3.42-4.85-4.74 1.12-3.48 6.7-.97.41-3.93-6.35-2.35-.38-3.64 5.73-3.63-1.22-3.77-6.76.45-1.82-3.17 3.76-5.66-2.63-2.94-5.99 3.18-2.95-2.16 1.15-6.71-3.59-1.6-4.19 5.35-3.56-.75zm5.81 24.75c0 5.23-4.22 9.47-9.42 9.47s-9.42-4.24-9.42-9.47 4.22-9.48 9.42-9.48 9.42 4.25 9.42 9.48" clip-rule="evenodd"/><path fill="var(--illustration-gray)" fill-rule="evenodd" d="m58.29 33.08 5.27.02 1.16 8.92 5.25.7 3.45-8.34 5.11 1.34-1.11 8.96 4.91 1.97 5.41-7.22L92.35 42l-3.29 8.41 4.26 3.14 7.04-5.64 3.83 3.65-5.27 7.32 3.35 4.1 8.22-3.73 2.81 4.49-6.93 5.78 2.22 4.81 8.89-1.56 1.61 5.05-8.15 3.87.96 5.21 8.99.7.3 5.29-8.85 1.72-.36 5.29 8.53 2.92-1.02 5.19-9-.53-1.66 5.03 7.54 4.95-2.28 4.77-8.58-2.76-2.86 4.45 6.07 6.68-3.4 4.06-7.63-4.81-3.87 3.6 4.23 7.98-4.29 3.09-6.2-6.56-4.65 2.53 2.11 8.78-4.92 1.92-4.37-7.9-5.13 1.29-.13 9.03-5.24.63-2.28-8.74-5.29-.02-2.38 8.71-5.23-.7-.03-9.03-5.11-1.34-4.46 7.85-4.9-1.97 2.21-8.75-4.63-2.58-6.27 6.48-4.26-3.14 4.32-7.93-3.83-3.65-7.68 4.72-3.34-4.09 6.14-6.6-2.81-4.49-8.62 2.66-2.22-4.8 7.59-4.86-1.61-5.05-9.01.43-.96-5.21 8.56-2.82-.3-5.29L0 92.2l.37-5.28 9-.6 1.02-5.2-8.1-3.97 1.66-5.02 8.86 1.66 2.28-4.78-6.86-5.86 2.87-4.45 8.17 3.81 3.4-4.06-5.18-7.38 3.87-3.59 6.96 5.73 4.29-3.09-3.19-8.44 4.65-2.52 5.32 7.29 4.92-1.92-1-8.97 5.13-1.29 3.34 8.38 5.26-.63zm-27.27 87.17a39.6 39.6 0 0 1-10.09-24.52l22.63 1.13c.45 2.39 1.39 4.6 2.71 6.54l-15.24 16.84h-.01zm12.54-29.82-22.62 1.13a39.6 39.6 0 0 1 10.15-24.45l15.19 16.78a17.25 17.25 0 0 0-2.71 6.53h-.01zm-9.6 32.78c6.56 5.94 15.11 9.71 24.53 10.19l-1.14-22.74c-2.39-.45-4.6-1.39-6.54-2.71L33.95 123.2h.01zm16.86-43.87L34.04 64.16c6.55-5.9 15.07-9.65 24.46-10.13l-1.13 22.61c-2.39.45-4.6 1.39-6.54 2.71zm12.98-2.71c2.39.45 4.6 1.39 6.54 2.71l16.77-15.17a39.55 39.55 0 0 0-24.44-10.15l1.13 22.6zm11.09 7.26c1.32 1.93 2.26 4.15 2.71 6.53l22.6 1.13c-.5-9.38-4.24-17.89-10.13-24.43L74.9 83.89zm0 19.52a17.2 17.2 0 0 0 2.71-6.54l22.6-1.13c-.47 9.4-4.2 17.93-10.08 24.5zm-4.55 4.54 16.85 15.24c-6.55 5.94-15.1 9.72-24.52 10.21l1.14-22.74c2.39-.45 4.6-1.39 6.54-2.71zm.63-14.3c0 5.74-4.65 10.39-10.39 10.39s-10.39-4.65-10.39-10.39 4.65-10.39 10.39-10.39 10.39 4.65 10.39 10.39" clip-rule="evenodd"/><path fill="var(--illustration-primary)" fill-rule="evenodd" d="m121.183 92.91-.3-5.29-8.99-.7-.96-5.21 8.15-3.87-1.61-5.05-8.89 1.56-2.22-4.81 6.93-5.78-2.81-4.49-8.22 3.73-3.35-4.1 5.27-7.32-3.83-3.65-7.04 5.64-4.26-3.14 3.29-8.41-4.61-2.57-5.41 7.22-4.91-1.97 1.11-8.96-5.11-1.34-3.45 8.34-5.25-.7-1.16-8.92-4.6-.02v50.31c.53-.08 1.06-.14 1.61-.14 5.74 0 10.39 4.65 10.39 10.39s-4.65 10.39-10.39 10.39c-.55 0-1.09-.06-1.61-.14v41.63l3.96.02 2.28 8.74 5.24-.63.13-9.03 5.13-1.29 4.37 7.9 4.92-1.92-2.11-8.78 4.65-2.53 6.2 6.56 4.29-3.09-4.23-7.98 3.87-3.6 7.63 4.81 3.4-4.06-6.07-6.68 2.86-4.45 8.58 2.76 2.28-4.77-7.54-4.95 1.66-5.03 9 .53 1.02-5.19-8.53-2.92.36-5.29 8.85-1.72zm-50.84-13.57a17.2 17.2 0 0 0-6.54-2.71l-1.13-22.61c9.38.49 17.9 4.24 24.44 10.15zm-7.68 54.06 1.14-22.74c2.39-.45 4.6-1.39 6.54-2.71l16.85 15.24c-6.55 5.94-15.1 9.72-24.52 10.21zm27.46-13.16-15.23-16.83a17.2 17.2 0 0 0 2.71-6.54l22.6-1.13c-.47 9.4-4.2 17.93-10.08 24.5m-12.52-29.81c-.45-2.38-1.39-4.6-2.71-6.53l15.17-16.77a39.58 39.58 0 0 1 10.13 24.43l-22.6-1.13z" clip-rule="evenodd"/><path fill="var(--illustration-gray)" d="M193.367 100.61v11.59a9.09 9.09 0 0 1 3.53 7.2c0 2.93-1.39 5.53-3.53 7.2v11.59c8.11-2.41 14.02-9.9 14.02-18.79s-5.91-16.39-14.02-18.79"/></svg>