<svg xmlns="http://www.w3.org/2000/svg" fill="none" viewBox="0 0 240 240"><path fill="var(--illustration-primary)" d="M48 240h144V0H48v240Z"/><path fill="var(--illustration-black)" d="M120 14a2 2 0 1 0 0-4 2 2 0 0 0 0 4Zm8 212h-16v4h16v-4Z"/><path fill="var(--illustration-gray)" d="M48 216h144V24H48v192Z"/><path fill="var(--illustration-black)" fill-rule="evenodd" d="M100.33 190a34 34 0 1 0 0-68 34 34 0 0 0 0 68Zm0 2a36 36 0 1 0 0-72 36 36 0 0 0 0 72Z" clip-rule="evenodd"/><path fill="var(--illustration-white)" d="M184.25 90a28 28 0 1 1-56 0 28 28 0 0 1 56 0Zm-88-30a20 20 0 1 1-40 0 20 20 0 0 1 40 0Zm32.08 96a28 28 0 1 1-56 0 28 28 0 0 1 56 0Z"/><path fill="var(--illustration-white)" fill-rule="evenodd" d="M100.33 182a26 26 0 1 0 0-52 26 26 0 0 0 0 52Zm0 2a28 28 0 1 0 0-56 28 28 0 0 0 0 56Z" clip-rule="evenodd"/><path fill="var(--illustration-black)" fill-rule="evenodd" d="M156.25 108a18 18 0 1 0 0-36 18 18 0 0 0 0 36Zm0 2a20 20 0 1 0 0-40 20 20 0 0 0 0 40Zm-66-50a14 14 0 1 1-28 0 14 14 0 0 1 28 0Zm-14 12a12 12 0 1 0 0-24 12 12 0 0 0 0 24Z" clip-rule="evenodd"/><path fill="var(--illustration-gray)" d="M80.25 60a4 4 0 1 1-8 0 4 4 0 0 1 8 0Zm32.08 96a12 12 0 1 1-24 0 12 12 0 0 1 24 0Z"/><path fill="var(--illustration-gray)" d="M104.32 156a4 4 0 1 1-8 0 4 4 0 0 1 8 0Z"/><path fill="var(--illustration-black)" fill-rule="evenodd" d="M100.32 153a3 3 0 1 0 0 6 3 3 0 0 0 0-6Zm-5 3a5 5 0 1 1 10 0 5 5 0 0 1-10 0Z" clip-rule="evenodd"/><path fill="var(--illustration-gray)" d="M160.75 90a4 4 0 1 1-8 0 4 4 0 0 1 8 0Z"/><path fill="var(--illustration-black)" fill-rule="evenodd" d="M156.75 87a3 3 0 1 0 0 6 3 3 0 0 0 0-6Zm-5 3a5 5 0 1 1 10 0 5 5 0 0 1-10 0Zm-63.1-36.45 42.5 84-1.79.9-42.5-84 1.79-.9Z" clip-rule="evenodd"/><path fill="var(--illustration-black)" fill-rule="evenodd" d="m140.11 82-41.5 71.5-1.73-1 41.5-71.5 1.73 1Zm27.28 24.77-63 52-1.27-1.54 63-52 1.27 1.54ZM64.25 59.48l2 98-2 .04-2-98 2-.04Z" clip-rule="evenodd"/><path fill="var(--illustration-gray)" d="M48 0H0v24h48V0Zm0 216H0v24h48v-24ZM240 0h-48v24h48V0Zm0 216h-48v24h48v-24Z"/></svg>