<svg xmlns="http://www.w3.org/2000/svg" fill="none" viewBox="0 0 240 240"><path fill="var(--illustration-gray)" d="M240 0v192H0V0h240Z"/><path fill="var(--illustration-primary)" d="M240 0v16H0V0h240Z"/><path fill="var(--illustration-black)" d="M12 8a2 2 0 1 1-4 0 2 2 0 0 1 4 0Zm24 0a2 2 0 1 1-4 0 2 2 0 0 1 4 0ZM24 8a2 2 0 1 1-4 0 2 2 0 0 1 4 0Z"/><path fill="var(--illustration-accent-1)" d="M168 192a48 48 0 1 1-96 0 48 48 0 0 1 96 0Z"/><path fill="var(--illustration-primary)" fill-rule="evenodd" d="M168 192a48 48 0 1 0-96 0h96Z" clip-rule="evenodd"/><path fill="var(--illustration-white)" d="M156 192a36 36 0 1 1-72 0 36 36 0 0 1 72 0Z"/><path fill="var(--illustration-black)" fill-rule="evenodd" d="M116 206a18 18 0 1 0 0-36 18 18 0 0 0 0 36Zm0 2a20 20 0 1 0 0-40 20 20 0 0 0 0 40Z" clip-rule="evenodd"/><path fill="var(--illustration-accent-2)" d="M131 188a15 15 0 1 1-30 0 15 15 0 0 1 30 0Z"/><path fill="var(--illustration-black)" fill-rule="evenodd" d="m134.59 208.41-6-6 2.82-2.82 6 6-2.82 2.82Z" clip-rule="evenodd"/><path fill="var(--illustration-black)" fill-rule="evenodd" d="m138.67 215.83-9-9 5.66-5.66 9 9-5.66 5.66ZM84 142a34 34 0 1 0 0-68 34 34 0 0 0 0 68Zm0 2a36 36 0 1 0 0-72 36 36 0 0 0 0 72Z" clip-rule="evenodd"/><path fill="var(--illustration-white)" d="M184 68a28 28 0 1 1-56 0 28 28 0 0 1 56 0ZM64 52a20 20 0 1 1-40 0 20 20 0 0 1 40 0Z"/><path fill="var(--illustration-black)" fill-rule="evenodd" d="M192.5 142c11.84 0 21.5-9.81 21.5-22s-9.66-22-21.5-22-21.5 9.81-21.5 22 9.66 22 21.5 22Zm0 2c12.98 0 23.5-10.75 23.5-24s-10.52-24-23.5-24-23.5 10.75-23.5 24 10.52 24 23.5 24Z" clip-rule="evenodd"/><path fill="var(--illustration-white)" d="M112 108a28 28 0 1 1-56 0 28 28 0 0 1 56 0Z"/><path fill="var(--illustration-white)" fill-rule="evenodd" d="M84 134a26 26 0 1 0 0-52 26 26 0 0 0 0 52Zm0 2a28 28 0 1 0 0-56 28 28 0 0 0 0 56Z" clip-rule="evenodd"/><path fill="var(--illustration-black)" fill-rule="evenodd" d="M156 86a18 18 0 1 0 0-36 18 18 0 0 0 0 36Zm0 2a20 20 0 1 0 0-40 20 20 0 0 0 0 40ZM58 52a14 14 0 1 1-28 0 14 14 0 0 1 28 0ZM44 64a12 12 0 1 0 0-24 12 12 0 0 0 0 24Z" clip-rule="evenodd"/><path fill="var(--illustration-gray)" d="M48 52a4 4 0 1 1-8 0 4 4 0 0 1 8 0Z"/><path fill="var(--illustration-white)" d="M208 120a16 16 0 1 1-32 0 16 16 0 0 1 32 0Z"/><path fill="var(--illustration-gray)" d="M96 108a12 12 0 1 1-24 0 12 12 0 0 1 24 0Z"/><path fill="var(--illustration-gray)" d="M88 108a4 4 0 1 1-8 0 4 4 0 0 1 8 0Z"/><path fill="var(--illustration-black)" fill-rule="evenodd" d="M84 105a3 3 0 1 0 0 6 3 3 0 0 0 0-6Zm-5 3a5 5 0 1 1 10 0 5 5 0 0 1-10 0Z" clip-rule="evenodd"/><path fill="var(--illustration-gray)" d="M160.5 68a4 4 0 1 1-8 0 4 4 0 0 1 8 0Z"/><path fill="var(--illustration-black)" fill-rule="evenodd" d="M156.5 65a3 3 0 1 0 0 6 3 3 0 0 0 0-6Zm-5 3a5 5 0 1 1 10 0 5 5 0 0 1-10 0Z" clip-rule="evenodd"/><path fill="var(--illustration-gray)" d="M196 120a4 4 0 1 1-8 0 4 4 0 0 1 8 0Z"/><path fill="var(--illustration-black)" fill-rule="evenodd" d="m52.18 40.65 51.78 37.42-1.17 1.62-51.78-37.42 1.17-1.62Zm89.96 15.85-59.91 49.08-1.27-1.55 59.91-49.08 1.27 1.54Zm20.68 30.32L85.5 112.76l-.64-1.9 77.32-25.93.64 1.9Zm-2.76-22.3 47.07 36.7-1.23 1.57-47.08-36.7 1.24-1.57Z" clip-rule="evenodd"/><path fill="var(--illustration-black)" fill-rule="evenodd" d="m153.7 69.04 18.75 58.9-1.9.6-18.75-58.9 1.9-.6ZM32.57 55.65l19.46 63.93-1.92.58-19.46-63.93 1.92-.58Z" clip-rule="evenodd"/></svg>