<svg xmlns="http://www.w3.org/2000/svg" fill="none" viewBox="0 0 240 240"><path fill="var(--illustration-gray)" d="M216 94.142c-7.18 3.743-15.343 5.858-24 5.858s-16.82-2.115-24-5.858V160h48z"/><path fill="var(--illustration-accent-2)" d="M80 184h64v56H80z"/><path fill="var(--illustration-gray)" d="M0 200h64v40H0z"/><path fill="var(--illustration-accent-4)" d="M216 160h8v80h-8zm-56 0h8v80h-8z"/><path fill="var(--illustration-primary)" d="M168 160h48v80h-48z"/><path fill="var(--illustration-black)" fill-rule="evenodd" d="M224 177h-64v-2h64zm0-8h-64v-2h64zm0 16h-64v-2h64zm0 17h-64v-2h64zm0 15h-64v-2h64zm0 16h-64v-2h64zm0-40h-64v-2h64zm-80 0H80v-2h64z" clip-rule="evenodd"/><path fill="var(--illustration-accent-4)" d="M127 161v5h2v-5h5v-2h-5v-5h-2v5h-5v2zM87 81v5h2v-5h5v-2h-5v-5h-2v5h-5v2z"/><path fill="var(--illustration-black)" fill-rule="evenodd" d="M144 201H80v-2h64zm0 16H80v-2h64zm0 16H80v-2h64zm80-24h-64v-2h64zm-80 0H80v-2h64zm-80 0H0v-2h64zm0 8H0v-2h64zm0 16H0v-2h64zm160-8h-64v-2h64zm-80 0H80v-2h64zm-80 0H0v-2h64z" clip-rule="evenodd"/><circle cx="28" cy="180" r="6" fill="var(--illustration-invert)"/><circle cx="76" cy="124" r="6" fill="var(--illustration-invert)"/><circle cx="140" cy="108" r="6" fill="var(--illustration-invert)"/><circle cx="192" cy="48" r="48" fill="var(--illustration-accent-4)"/><path fill="var(--illustration-primary)" d="M168 89.403V49h48v40.403A46.8 46.8 0 0 1 192 96a46.8 46.8 0 0 1-24-6.597"/><path fill="var(--illustration-black)" d="M192 8v80l24-39z"/><path fill="var(--illustration-primary)" d="M192 8v80l-24-39z"/><path fill="var(--illustration-accent-2)" d="m192 66 24-17-24 39z"/><path fill="var(--illustration-white)" d="m192 66-24-17 24 39z"/><path fill="var(--illustration-accent-2)" d="M192 36V8l24 41z"/><path fill="var(--illustration-white)" d="M192 36V8l-24 41z"/><path fill="var(--illustration-accent-2)" d="m112 16 2.83 13.17L128 32l-13.17 2.83L112 48l-2.83-13.17L96 32l13.17-2.83z"/><path fill="var(--illustration-gray)" d="m28 120 2.122 9.878L40 132l-9.878 2.122L28 144l-2.122-9.878L16 132l9.878-2.122z"/><path fill="var(--illustration-accent-4)" d="m216 112 2.83 13.17L232 128l-13.17 2.83L216 144l-2.83-13.17L200 128l13.17-2.83z"/><path fill="var(--illustration-primary)" d="m216 112-2.83 13.17L200 128l13.17 2.83L216 144z"/><path fill="var(--illustration-invert)" d="M159.738 88.782a53 53 0 0 1-3.038-2.602l-17.79 20.527-64.005 15.501-48.42 56.49 3.036 2.603 47.58-55.509 63.994-15.499z"/></svg>