<svg xmlns="http://www.w3.org/2000/svg" fill="none" viewBox="0 0 241 240"><path fill="var(--illustration-positive)" d="M48.313 120.889c0 13.255-10.746 24-24 24-13.255 0-24-10.745-24-24s10.745-24 24-24c13.254 0 24 10.745 24 24Z"/><path fill="var(--illustration-positive)" d="M23.683 144.889c-1.54 0-3.048-.144-4.513-.406 2.296-14.326 13.959-25.645 28.724-27.88a23.35 23.35 0 0 1 .419 4.381c0 13.201-11.028 23.905-24.63 23.905Zm-.19-48c1.449 0 2.869.143 4.248.406C25.58 111.62 14.603 122.94.707 125.175a24.822 24.822 0 0 1-.394-4.381c0-13.202 10.379-23.905 23.18-23.905Z"/><path fill="var(--illustration-positive)" d="M23.493 144.889c1.449 0 2.869-.144 4.248-.406-2.162-14.326-13.138-25.645-27.034-27.88a24.822 24.822 0 0 0-.394 4.381c0 13.201 10.379 23.905 23.18 23.905Zm.19-48c-1.54 0-3.048.143-4.513.406 2.296 14.325 13.959 25.645 28.724 27.88a23.35 23.35 0 0 0 .419-4.381c0-13.202-11.028-23.905-24.63-23.905Z"/><path fill="var(--illustration-gray)" fill-rule="evenodd" d="M48.314 120c.135-19.968 8.342-38.019 21.521-51.052l-34.23-33.946C13.806 56.728.314 86.788.314 120h48.001Z" clip-rule="evenodd"/><path fill="var(--illustration-gray)" d="M56.313 200v16h128l-.001-16h-128Z"/><path fill="var(--illustration-invert)" fill-rule="evenodd" d="M48.32 199h144v2h-144v-2Z" clip-rule="evenodd"/><path fill="var(--illustration-gray)" fill-rule="evenodd" d="M195.382 45.026C176.453 25.288 149.816 13 120.309 13c-29.772 0-56.622 12.51-75.58 32.56l-9.932-9.748C56.563 13.706 86.835 0 120.309 0c33.157 0 63.173 13.447 84.892 35.186l-9.819 9.84Z" clip-rule="evenodd"/><path fill="var(--illustration-gray)" fill-rule="evenodd" d="M176.308 120h64.004c0-33.211-13.492-63.271-35.293-84.999l-45.113 44.74c10.136 10.135 16.406 24.136 16.406 39.602 0 .219-.001.438-.004.657Z" clip-rule="evenodd"/><path fill="var(--illustration-gray)" d="M0 216v24h240v-24H0Z"/><path fill="var(--illustration-accent-1)" d="M64.313 152.002c8.838 0 15.998-7.164 15.998-16.002 0 8.838 7.163 16.002 16.001 16.002-8.837 0-16.001 7.163-16.001 15.998 0-8.835-7.16-15.998-15.998-15.998Z"/><path fill="var(--illustration-accent-1)" fill-rule="evenodd" d="M80.313 136.23v31.54a15.93 15.93 0 0 0-.002.23c0-8.835-7.16-15.998-15.998-15.998 8.838 0 15.998-7.164 15.998-16.002l.001.23Z" clip-rule="evenodd"/><path fill="var(--illustration-positive)" d="M176.321 24.002c8.838 0 15.998-7.164 15.998-16.002 0 8.838 7.163 16.002 16.001 16.002-8.838 0-16.001 7.163-16.001 15.998 0-8.835-7.16-15.998-15.998-15.998Z"/><path fill="var(--illustration-primary)" fill-rule="evenodd" d="M186.804 20.088a120.518 120.518 0 0 1 10.753 8.073A15.956 15.956 0 0 0 192.319 40c0-8.835-7.161-15.998-15.999-15.998a15.94 15.94 0 0 0 10.484-3.913Z" clip-rule="evenodd"/><path fill="var(--illustration-accent-2)" d="M152.313 188.001c6.628 0 11.998-5.372 11.998-12.001 0 6.629 5.373 12.001 12.002 12.001-6.629 0-12.002 5.373-12.002 11.999 0-6.626-5.37-11.999-11.998-11.999Z"/><path fill="var(--illustration-accent-2)" fill-rule="evenodd" d="M164.313 176.194v23.612c-.002.065-.002.129-.002.194 0-6.626-5.37-11.999-11.999-11.999 6.629 0 11.999-5.372 11.999-12.001 0 .065 0 .129.002.194Z" clip-rule="evenodd"/><path fill="var(--illustration-invert)" fill-rule="evenodd" d="M121.313 112v88h-2v-88h2Zm0-99.021V88h-2V12.979h2Z" clip-rule="evenodd"/><path fill="var(--illustration-black)" fill-rule="evenodd" d="M119.312 83.077v-7.385h2v7.385h-2Z" clip-rule="evenodd"/><path fill="var(--illustration-invert)" fill-rule="evenodd" d="m132.141 88.707 2.55-6.15 1.847.766-2.55 6.15-1.847-.766Zm11.031 6.909 4.716-4.716 1.415 1.414-4.717 4.716-1.414-1.414Zm7.555 10.6 6.15-2.55.766 1.848-6.15 2.55-.766-1.848Zm2.921 12.674h6.966v2h-6.966v-2Zm-66.668 2h-7.793v-2h7.793v2Zm2.146-12.826-6.15-2.55.767-1.848 6.15 2.55-.767 1.848Zm6.911-11.034-4.717-4.716 1.415-1.414 4.716 4.716-1.414 1.414Zm10.599-7.557-2.55-6.15 1.847-.766 2.55 6.15-1.847.766Z" clip-rule="evenodd"/><path fill="var(--illustration-invert)" fill-rule="evenodd" d="M120.312 80.684c-22.2 0-40.218 18.013-40.218 40.205h-2c0-23.298 18.913-42.205 42.218-42.205v2Zm40.219 40.205c0-22.192-18.018-40.205-40.218-40.205v-2c23.304 0 42.218 18.907 42.218 42.205h-2Z" clip-rule="evenodd"/><path fill="var(--illustration-primary)" fill-rule="evenodd" d="M48.302 120a23.248 23.248 0 0 0-.674-4.84c-2.57-10.489-12.032-18.271-23.312-18.271-.104 0-.207 0-.31.002a26.06 26.06 0 0 0-.32-.002h-.19c-1.234 0-2.447.1-3.63.291-.232.036-.463.074-.693.115l.001.009C8.682 99.344.687 108.677.328 120h47.974Z" clip-rule="evenodd"/><path fill="var(--illustration-gray)" d="M144.312 120c0 13.255-10.745 24-24 24-13.254 0-24-10.745-24-24s10.746-24 24-24c13.255 0 24 10.745 24 24Z"/><path fill="var(--illustration-invert)" fill-rule="evenodd" d="M120.312 25c-52.467 0-95 42.533-95 95h-2c0-53.572 43.429-97 97-97 53.572 0 97 43.428 97 97h-2c0-52.467-42.532-95-95-95Z" clip-rule="evenodd"/><path fill="var(--illustration-white)" d="M32.313 120a8 8 0 1 1-16 0 8 8 0 0 1 16 0Z"/><path fill="var(--illustration-accent-1)" d="M208.312 152c-17.673 0-32-14.088-32-31.467 0-17.378 14.327-31.466 32-31.466 17.674 0 32 14.088 32 31.466 0 17.379-14.326 31.467-32 31.467Z"/><path fill="var(--illustration-primary)" fill-rule="evenodd" d="M240.311 120c-.289-17.133-14.503-30.933-31.995-30.933S176.61 102.867 176.32 120h63.991Z" clip-rule="evenodd"/><path fill="var(--illustration-black)" fill-rule="evenodd" d="M185.425 120.444c0 12.362 10.214 22.445 22.889 22.445 12.676 0 22.889-10.083 22.889-22.445 0-12.361-10.213-22.444-22.889-22.444-12.675 0-22.889 10.083-22.889 22.444Zm-2 0c0 13.501 11.143 24.445 24.889 24.445 13.746 0 24.889-10.944 24.889-24.445 0-13.5-11.143-24.444-24.889-24.444-13.746 0-24.889 10.944-24.889 24.444Z" clip-rule="evenodd"/></svg>