<svg xmlns="http://www.w3.org/2000/svg" fill="none" viewBox="0 0 241 240"><path fill="var(--illustration-positive)" d="M48.31 120.89a24 24 0 1 1-48 0 24 24 0 0 1 48 0Z"/><path fill="var(--illustration-positive)" d="M23.68 144.89c-1.54 0-3.04-.14-4.51-.4 2.3-14.33 13.96-25.65 28.72-27.89.27 1.43.42 2.88.42 4.38 0 13.2-11.03 23.9-24.63 23.9Zm-.18-48c1.44 0 2.86.14 4.24.4-2.16 14.33-13.14 25.65-27.03 27.88-.26-1.42-.4-2.88-.4-4.38 0-13.2 10.38-23.9 23.18-23.9Z"/><path fill="var(--illustration-positive)" d="M23.5 144.89c1.44 0 2.86-.14 4.24-.4C25.58 130.15 14.6 118.83.71 116.6c-.26 1.43-.4 2.89-.4 4.38 0 13.2 10.38 23.9 23.18 23.9Zm.18-48c-1.54 0-3.04.14-4.51.4 2.3 14.33 13.96 25.65 28.72 27.88.27-1.42.42-2.88.42-4.38 0-13.2-11.03-23.9-24.63-23.9Z"/><path fill="var(--illustration-gray)" fill-rule="evenodd" d="M48.31 120a72.27 72.27 0 0 1 21.53-51.05L35.6 35A119.63 119.63 0 0 0 .3 120h48Z" clip-rule="evenodd"/><path fill="var(--illustration-gray)" d="M56.31 200v16h128v-16h-128Z"/><path fill="var(--illustration-invert)" fill-rule="evenodd" d="M48.32 199h144v2h-144v-2Z" clip-rule="evenodd"/><path fill="var(--illustration-gray)" fill-rule="evenodd" d="M195.38 45.03A103.7 103.7 0 0 0 120.31 13a103.7 103.7 0 0 0-75.58 32.56l-9.93-9.75A119.63 119.63 0 0 1 120.3 0c33.17 0 63.18 13.45 84.9 35.19l-9.82 9.84Z" clip-rule="evenodd"/><path fill="var(--illustration-gray)" fill-rule="evenodd" d="M176.3 120h64.01a119.6 119.6 0 0 0-35.3-85l-45.1 44.74A55.83 55.83 0 0 1 176.3 120Z" clip-rule="evenodd"/><path fill="var(--illustration-gray)" d="M0 216v24h240v-24H0Z"/><path fill="var(--illustration-accent-1)" d="M64.31 152a16 16 0 0 0 16-16 16 16 0 0 0 16 16 16 16 0 0 0-16 16 16 16 0 0 0-16-16Z"/><path fill="var(--illustration-accent-1)" fill-rule="evenodd" d="M80.31 136.23V168a16 16 0 0 0-16-16 16 16 0 0 0 16-15.77Z" clip-rule="evenodd"/><path fill="var(--illustration-positive)" d="M176.32 24a16 16 0 0 0 16-16 16 16 0 0 0 16 16 16 16 0 0 0-16 16 16 16 0 0 0-16-16Z"/><path fill="var(--illustration-primary)" fill-rule="evenodd" d="M186.8 20.09c3.74 2.5 7.33 5.19 10.76 8.07A15.96 15.96 0 0 0 192.32 40a16 16 0 0 0-16-16 15.9 15.9 0 0 0 10.48-3.91Z" clip-rule="evenodd"/><path fill="var(--illustration-accent-2)" d="M152.31 188a12 12 0 0 0 12-12 12 12 0 0 0 12 12 12 12 0 0 0-12 12 12 12 0 0 0-12-12Z"/><path fill="var(--illustration-accent-2)" fill-rule="evenodd" d="M164.31 176.2V200a12 12 0 0 0-12-12 12 12 0 0 0 12-11.8Z" clip-rule="evenodd"/><path fill="var(--illustration-invert)" fill-rule="evenodd" d="M121.31 112v88h-2v-88h2Zm0-99.02V88h-2V12.98h2Z" clip-rule="evenodd"/><path fill="var(--illustration-black)" fill-rule="evenodd" d="M119.31 83.08v-7.39h2v7.39h-2Z" clip-rule="evenodd"/><path fill="var(--illustration-invert)" fill-rule="evenodd" d="m132.14 88.7 2.55-6.14 1.85.76-2.55 6.15-1.85-.76Zm11.03 6.92 4.72-4.72 1.41 1.41-4.71 4.72-1.42-1.41Zm7.56 10.6 6.15-2.55.76 1.84-6.15 2.55-.76-1.84Zm2.92 12.67h6.96v2h-6.96v-2Zm-66.67 2h-7.8v-2h7.8v2Zm2.15-12.83-6.15-2.55.76-1.84 6.15 2.55-.76 1.84Zm6.91-11.03-4.72-4.72 1.41-1.41 4.72 4.72-1.41 1.41Zm10.6-7.56-2.55-6.15 1.84-.76 2.55 6.15-1.84.76Z" clip-rule="evenodd"/><path fill="var(--illustration-invert)" fill-rule="evenodd" d="M120.31 80.68a40.23 40.23 0 0 0-40.22 40.2h-2a42.23 42.23 0 0 1 42.22-42.2v2Zm40.22 40.21c0-22.2-18.02-40.2-40.22-40.2v-2c23.3 0 42.22 18.9 42.22 42.2h-2Z" clip-rule="evenodd"/><path fill="var(--illustration-primary)" fill-rule="evenodd" d="M48.3 120a24 24 0 0 0-24.62-23.11h-.18a22.66 22.66 0 0 0-4.33.4v.01C8.68 99.34.7 108.68.33 120H48.3Z" clip-rule="evenodd"/><path fill="var(--illustration-gray)" d="M144.31 120a24 24 0 1 1-48 0 24 24 0 0 1 48 0Z"/><path fill="var(--illustration-invert)" fill-rule="evenodd" d="M120.31 25a95 95 0 0 0-95 95h-2c0-53.57 43.43-97 97-97s97 43.43 97 97h-2a95 95 0 0 0-95-95Z" clip-rule="evenodd"/><path fill="var(--illustration-white)" d="M32.31 120a8 8 0 1 1-16 0 8 8 0 0 1 16 0Z"/><path fill="var(--illustration-accent-1)" d="M208.31 152c-17.67 0-32-14.09-32-31.47s14.33-31.46 32-31.46c17.68 0 32 14.09 32 31.46 0 17.38-14.32 31.47-32 31.47Z"/><path fill="var(--illustration-primary)" fill-rule="evenodd" d="M240.31 120c-.29-17.13-14.5-30.93-32-30.93-17.49 0-31.7 13.8-31.99 30.93h64Z" clip-rule="evenodd"/><path fill="var(--illustration-black)" fill-rule="evenodd" d="M185.43 120.44c0 12.37 10.2 22.45 22.88 22.45s22.9-10.08 22.9-22.45c0-12.36-10.22-22.44-22.9-22.44-12.67 0-22.88 10.08-22.88 22.44Zm-2 0c0 13.5 11.14 24.45 24.88 24.45 13.75 0 24.9-10.94 24.9-24.45 0-13.5-11.15-24.44-24.9-24.44-13.74 0-24.88 10.94-24.88 24.44Z" clip-rule="evenodd"/></svg>