<svg xmlns="http://www.w3.org/2000/svg" fill="none" viewBox="0 0 240 240"><path fill="var(--illustration-gray)" d="M0 16h168v128H0V16Z"/><path fill="var(--illustration-invert)" fill-rule="evenodd" d="M57 191V73h-2v120h60.5v-2H57Z" clip-rule="evenodd"/><path fill="var(--illustration-accent-1)" d="M240 176c0 35.346-28.654 64-64 64-35.346 0-64-28.654-64-64 0-35.346 28.654-64 64-64 35.346 0 64 28.654 64 64Z"/><path fill="var(--illustration-gray)" d="M24 0h32l8 16H16l8-16Z"/><path fill="var(--illustration-primary)" fill-rule="evenodd" d="M168 112.495V144h-47.438c9.801-16.942 27.144-28.974 47.438-31.505Z" clip-rule="evenodd"/><path fill="var(--illustration-black)" fill-rule="evenodd" d="M176 222c25.405 0 46-20.595 46-46s-20.595-46-46-46-46 20.595-46 46 20.595 46 46 46Zm0 2c26.51 0 48-21.49 48-48s-21.49-48-48-48-48 21.49-48 48 21.49 48 48 48Z" clip-rule="evenodd"/><path fill="var(--illustration-black)" fill-rule="evenodd" d="m199.297 154.216-42.154 42.154 1.414 1.414 42.154-42.154-1.414-1.414Zm-37.94 1.707a6.026 6.026 0 1 1 0 12.052 6.026 6.026 0 0 1 0-12.052Zm8.026 6.026a8.026 8.026 0 1 0-16.051 0 8.026 8.026 0 0 0 16.051 0Zm23.591 22.077a6.025 6.025 0 1 1 .002 12.05 6.025 6.025 0 0 1-.002-12.05Zm8.026 6.025a8.025 8.025 0 0 0-16.051 0 8.025 8.025 0 1 0 16.051 0Z" clip-rule="evenodd"/><path fill="var(--illustration-invert)" fill-rule="evenodd" d="m56.004 73.414 15.293 15.293 1.414-1.414-16.707-16.707-16.707 16.707 1.414 1.414 15.293-15.293Z" clip-rule="evenodd"/><path fill="var(--illustration-black)" fill-rule="evenodd" d="M.5 23H17v8h46v-8h105v2H65v8H15v-8H.5v-2Z" clip-rule="evenodd"/></svg>