<svg xmlns="http://www.w3.org/2000/svg" fill="none" viewBox="0 0 240 240"><path fill="var(--illustration-gray)" d="M193.46 116.8c-23.04-14.46-47.34-27.86-70.89-41.57C109.2 67.47 95.7 59.6 82.32 51.84c-7.45-4.33-14.8-8.67-22.24-12.9C32.1 22.81.3 35.82 0 67.37 0 85.6 11.77 96.5 26.47 103.75c26.16 15.13 52.33 30.35 78.5 45.47 12.17 7.05 24.35 14.1 36.62 21.16 10.67 5.75 20.23 13.91 33.21 13.61 37.04.1 49.57-47.8 18.66-67.2Z"/><path fill="var(--illustration-positive)" d="M240 136H0v72h240v-72Z"/><path fill="var(--illustration-positive)" d="M240 136H0v72h240v-72Z"/><path fill="var(--illustration-gray)" d="M240 184H0v24h240v-24Z"/><path fill="var(--illustration-primary)" d="M105.4 149.5c12.1 7 24.2 14 36.4 21 10.6 5.7 20.1 13.8 33 13.5 27.1 0 41.2-26.7 34.3-48H82.2c7.7 4.5 15.5 9 23.2 13.5Z"/><path fill="var(--illustration-accent-1)" d="M174.8 184a36.2 36.2 0 1 0 0-72.4 36.2 36.2 0 0 0 0 72.4Z"/><path fill="var(--illustration-black)" fill-rule="evenodd" d="M174.8 122.6a25.2 25.2 0 1 0 0 50.4 25.2 25.2 0 0 0 0-50.4Zm-27.2 25.2a27.2 27.2 0 1 1 54.4 0 27.2 27.2 0 0 1-54.4 0Z" clip-rule="evenodd"/><path fill="var(--illustration-black)" fill-rule="evenodd" d="m30.7 63.34 152.4 88.4-1 1.72-152.4-88.4 1-1.73Z" clip-rule="evenodd"/><path fill="var(--illustration-black)" fill-rule="evenodd" d="m181.97 152.4-4.24-15.84 1.94-.52 4.75 17.77-17.76 4.76-.52-1.94 15.84-4.24Z" clip-rule="evenodd"/></svg>