<svg xmlns="http://www.w3.org/2000/svg" fill="none" viewBox="0 0 240 240"><path fill="var(--illustration-gray)" d="M193.46 116.791c-23.039-14.454-47.337-27.854-70.886-41.563-13.385-7.761-26.87-15.624-40.254-23.385-7.447-4.335-14.794-8.67-22.24-12.903C32.102 22.812.301 35.815 0 67.366c0 18.245 11.774 29.131 26.467 36.389 26.165 15.12 52.33 30.341 78.496 45.461 12.177 7.056 24.353 14.112 36.631 21.168 10.667 5.745 20.228 13.91 33.21 13.608 37.034.101 49.571-47.805 18.656-67.201Z"/><path fill="var(--illustration-positive)" d="M240 136H0v72h240v-72Z"/><path fill="var(--illustration-positive)" d="M240 136H0v72h240v-72Z"/><path fill="var(--illustration-gray)" d="M240 184H0v24h240v-24Z"/><path fill="var(--illustration-primary)" d="M105.4 149.5c12.1 7 24.2 14 36.4 21 10.6 5.7 20.1 13.8 33 13.5 27.1 0 41.2-26.7 34.3-48H82.2c7.7 4.5 15.5 9 23.2 13.5Z"/><path fill="var(--illustration-accent-1)" d="M174.8 184c19.992 0 36.2-16.207 36.2-36.2 0-19.993-16.208-36.2-36.2-36.2-19.993 0-36.2 16.207-36.2 36.2 0 19.993 16.207 36.2 36.2 36.2Z"/><path fill="var(--illustration-black)" fill-rule="evenodd" d="M174.8 122.6c-13.918 0-25.2 11.282-25.2 25.2s11.282 25.2 25.2 25.2c13.917 0 25.2-11.282 25.2-25.2s-11.283-25.2-25.2-25.2Zm-27.2 25.2c0-15.022 12.177-27.2 27.2-27.2 15.022 0 27.2 12.178 27.2 27.2 0 15.022-12.178 27.2-27.2 27.2-15.023 0-27.2-12.178-27.2-27.2Z" clip-rule="evenodd"/><path fill="var(--illustration-black)" fill-rule="evenodd" d="m30.702 63.335 152.4 88.4-1.004 1.73-152.4-88.4 1.004-1.73Z" clip-rule="evenodd"/><path fill="var(--illustration-black)" fill-rule="evenodd" d="m181.976 152.393-4.242-15.834 1.932-.518 4.759 17.766-17.766 4.759-.517-1.932 15.834-4.241Z" clip-rule="evenodd"/></svg>