<svg xmlns="http://www.w3.org/2000/svg" fill="none" viewBox="0 0 240 240"><path fill="var(--illustration-gray)" d="M0 240 240 0v240z"/><path fill="var(--illustration-gray)" d="M32 120h176v120H32z"/><path fill="var(--illustration-primary)" fill-rule="evenodd" d="M32 240h176V120h-88l-88 88z" clip-rule="evenodd"/><path fill="var(--illustration-black)" fill-rule="evenodd" d="M191 240v-77h2v77zm-64 0v-77h2v77zm-64 0v-77h2v77zm112 0v-77h2v77zm-64 0v-77h2v77zm-64 0v-77h2v77zm112 0v-77h2v77zm-64 0v-77h2v77zm48 0v-77h2v77zm-64 0v-77h2v77z" clip-rule="evenodd"/><path fill="var(--illustration-accent-1)" d="M208 120c0 48.601-39.399 88-88 88s-88-39.399-88-88 39.399-88 88-88 88 39.399 88 88"/><path fill="var(--illustration-black)" fill-rule="evenodd" d="M120 56c-35.346 0-64 28.654-64 64s28.654 64 64 64 64-28.654 64-64-28.654-64-64-64m-66 64c0-36.45 29.55-66 66-66s66 29.55 66 66-29.549 66-66 66-66-29.549-66-66" clip-rule="evenodd"/><path fill="var(--illustration-positive)" d="M56 0c30.928 0 56 25.072 56 56s-25.072 56-56 56S0 86.928 0 56 25.072 0 56 0"/><path fill="var(--illustration-white)" d="M17.082 55.563C37.938 61.975 50.232 82.722 55.5 109c5.269-26.278 17.562-47.025 38.418-53.437.11 0 .11-.126 0-.126C73.062 49.025 60.768 28.28 55.5 2c-5.269 26.279-17.562 47.025-38.418 53.437-.11 0-.11.126 0 .126"/><path fill="var(--illustration-primary)" fill-rule="evenodd" d="M107.049 32.946A55.8 55.8 0 0 1 111.999 56c0 30.928-25.072 56-56 56a55.8 55.8 0 0 1-23.054-4.95c5.64-38.235 35.87-68.465 74.104-74.104" clip-rule="evenodd"/><path fill="var(--illustration-accent-2)" fill-rule="evenodd" d="M75.402 44.121a88.43 88.43 0 0 0-32.035 32.584c5.68 8.962 9.67 20.026 12.13 32.295 5.27-26.278 17.563-47.025 38.419-53.437.11 0 .11-.126 0-.126-7.16-2.201-13.31-6.092-18.514-11.316" clip-rule="evenodd"/></svg>