<svg xmlns="http://www.w3.org/2000/svg" fill="none" viewBox="0 0 240 241"><path fill="var(--illustration-gray)" d="M184 0H56v240h128z"/><path stroke="var(--illustration-black)" stroke-linecap="square" stroke-width="2" d="m214.009 117.14-17.28-30.18c-2.68 3.69-7.24 12.48-4.02 18.11s11.43 20.82 16.4 27.77m-183.242-15.7 17.28-30.18c2.68 3.69 7.24 12.48 4.02 18.11s-11.43 20.82-16.4 27.77"/><path fill="var(--illustration-positive)" d="M216 48H24v114.96h192z"/><path fill="var(--illustration-primary)" d="M184 48H56v114.96h128z"/><path fill="var(--illustration-accent-2)" d="M0 16c8.84 0 16 7.16 16 16 0-8.84 7.16-16 16-16-8.84 0-16-7.16-16-16 0 8.83-7.16 16-16 16m200 12c6.63 0 12 5.37 12 12 0-6.63 5.37-12 12-12-6.63 0-12-5.37-12-12 0 6.63-5.37 12-12 12"/><path fill="var(--illustration-accent-1)" d="M184 128c13.255 0 24-10.745 24-24s-10.745-24-24-24-24 10.745-24 24 10.745 24 24 24"/><path stroke="var(--illustration-black)" stroke-width="2" d="M184 120c8.837 0 16-7.163 16-16s-7.163-16-16-16-16 7.163-16 16 7.163 16 16 16Z"/><path fill="var(--illustration-black)" d="M184 128c-6.37 0-12.47-2.53-16.97-7.03A24 24 0 0 1 160 104c0-6.36 2.53-12.47 7.03-16.97A24 24 0 0 1 184 80z"/><path fill="var(--illustration-black)" d="m238.477 239.95.62-.09c-5.04-4.85-10.21-9.87-15.61-15.11-8.42-8.17-17.36-16.84-27.1-26.07-3.48-3.29-5.96-8.59-7.7-15.09-1.73-6.48-2.69-14.02-3.19-21.67-.97-14.75-.24-29.68-.18-38.03 2.91-.11 5.62-.26 7.86 1.97 1.26 1.25 2.43 3.34 3.28 6.86.86 3.52 1.38 8.4 1.38 15.15h1l-1 .04c.16 4.58 6.6 5.43 7.95 1.05l9.57-31.07-.96-.29.95.29.09-.28-.08-.28c-1.4-5.07-3.36-13.5-4.95-21.35-.79-3.92-1.49-7.69-1.98-10.8-.49-3.15-.76-5.55-.72-6.8.07-2.33 1.54-4.65 3.56-6.79 1.56-1.65 3.35-3.08 4.86-4.24l14.31 59.19v53.06l.52.28 9.04 4.98v-2.28l-7.56-4.16v-52.11l-.03-.11-14.7-60.79-.36-1.49-1.22.93c-1.65 1.25-4.18 3.13-6.32 5.39-2.12 2.24-4.01 5.01-4.11 8.1-.05 1.46.25 4.05.74 7.17.5 3.16 1.2 6.95 2 10.89 1.57 7.73 3.5 16.05 4.91 21.2l-9.49 30.79c-.69 2.23-3.96 1.8-4.05-.53 0-6.82-.53-11.86-1.43-15.59-.91-3.73-2.21-6.2-3.81-7.81-3.23-3.23-7.42-2.59-10.29-2.53l-.98.02v.98c0 7.97-.83 23.72.18 39.13.51 7.72 1.48 15.41 3.26 22.06 1.77 6.63 4.38 12.36 8.26 16.03 9.73 9.22 18.66 17.87 27.08 26.05 4.9 4.76 9.62 9.34 14.23 13.79.72 0 1.43-.01 2.15-.03z"/><path fill="var(--illustration-primary)" d="M64 80H48v48h16z"/><path fill="var(--illustration-black)" d="M64 80h-8v48h8z"/><path fill="var(--illustration-primary)" d="M80 96H32v16h48z"/><path fill="var(--illustration-black)" d="M80 96H56v16h24z"/><path fill="var(--illustration-primary)" d="M152 16h-14v14h14zm16-16h-14v14h14zm-64 32H90v14h14zm0 152H90v14h14zm64-168h-14v14h14z"/><path fill="var(--illustration-black)" d="M104 48H90v14h14z"/><path fill="var(--illustration-primary)" d="M104 200H90v14h14z"/><path fill="var(--illustration-black)" d="M104 64H90v14h14z"/><path fill="var(--illustration-primary)" d="M104 216H90v14h14zm16 0h-14v14h14z"/><path fill="var(--illustration-black)" d="M136 120h-14v14h14zm0 16h-14v14h14zm16-16h-14v14h14zm0 16h-14v14h14z"/><path fill="var(--illustration-invert-2)" d="M2.2 240c12.75-12.28 26.37-25.69 42.09-40.58 14.7-13.92 11.39-60.39 11.39-76.49-6.15-.14-14.51-2.22-14.51 24.95-.12 3.46-4.98 4.1-6 .79L25.6 117.6c2.82-10.2 7.87-33.83 7.69-39.25-.17-5.42-6.71-10.19-10.03-12.72l-14.7 60.79V179L0 183.72V240z"/><path fill="var(--illustration-invert)" d="m9.56 126.54 14.31-59.19c3.29 2.53 8.28 6.68 8.42 11.03.16 5.1-4.73 28.35-7.66 38.95l-.08.28 9.66 31.35c.7 2.27 2.72 3.05 4.42 2.84 1.7-.22 3.45-1.51 3.53-3.92 0-11.8 1.56-19.03 4.76-22.11 2.18-2.1 4.92-1.99 7.57-1.88h.18c.01 1.96.06 4.29.12 6.93.43 19.61 1.23 56.1-11.2 67.86-10.31 9.76-19.59 18.78-28.57 27.5-4.91 4.77-9.64 9.36-14.27 13.81h2.89c4.15-4 8.4-8.12 12.78-12.38 8.97-8.71 18.25-17.72 28.55-27.48 13.07-12.38 12.26-49.45 11.82-69.36-.07-3.07-.12-5.73-.12-7.85v-.98l-.98-.02c-.37 0-.74-.02-1.12-.04-2.78-.11-6.24-.25-9.04 2.44-3.67 3.52-5.38 11.01-5.37 23.52-.05 1.29-1 1.87-1.8 1.98s-1.87-.21-2.25-1.44l-9.49-30.79c2.74-10.02 7.83-33.64 7.65-39.27-.18-5.71-6.61-10.59-10.06-13.21l-1.58-1.2-15.06 62.28-.03.12v52.11L0 182.58v2.28l9.56-5.26z"/><path fill="var(--illustration-invert)" d="m8.952 179.89.52-.28v-53.06l14.34-59.19c1.52 1.16 3.31 2.6 4.87 4.24 2.03 2.14 3.49 4.46 3.57 6.79.04 1.25-.23 3.65-.72 6.8-.49 3.12-1.19 6.88-1.99 10.8-1.59 7.85-3.56 16.28-4.96 21.35l-.08.28.09.28 9.59 31.07c1.35 4.39 7.8 3.53 7.97-1.05l-1-.04h1c0-6.75.52-11.63 1.38-15.14.86-3.52 2.03-5.61 3.29-6.86 2.24-2.24 4.96-2.08 7.88-1.97.06 8.35.79 23.27-.18 38.03-.5 7.65-1.46 15.2-3.2 21.67-1.74 6.5-4.23 11.8-7.72 15.09-9.76 9.22-18.72 17.89-27.15 26.07-5.46 5.29-10.68 10.35-15.78 15.24h2.89c4.63-4.45 9.36-9.04 14.28-13.8 8.44-8.17 17.38-16.83 27.13-26.05 3.88-3.67 6.5-9.39 8.27-16.03 1.78-6.65 2.76-14.34 3.26-22.06 1.01-15.41.18-31.16.18-39.13v-.98l-.98-.02c-2.88-.06-7.07-.71-10.31 2.52-1.61 1.6-2.91 4.08-3.82 7.81-.91 3.72-1.43 8.77-1.43 15.58-.09 2.33-3.37 2.77-4.06.53l-9.51-30.79c1.41-5.16 3.35-13.47 4.92-21.2.8-3.94 1.51-7.73 2-10.89.49-3.13.79-5.71.75-7.17-.1-3.09-1.99-5.87-4.12-8.1-2.14-2.26-4.68-4.13-6.33-5.39l-1.22-.93-.36 1.49-14.73 60.79-.03.12v52.71h1l.48.88z"/><path fill="var(--illustration-invert-2)" d="M239.999 240v-56.28l-8.56-4.71v-52.58l-14.7-60.79c-3.33 2.53-9.86 7.3-10.03 12.72s4.87 29.05 7.7 39.25l-9.58 31.07c-1.02 3.3-5.88 2.66-6-.79 0-27.17-8.36-25.09-14.51-24.95 0 16.1-3.31 62.57 11.39 76.49 15.73 14.89 29.34 28.3 42.09 40.58h2.2z"/><path fill="var(--illustration-invert)" d="M239.243 240c-4.62-4.44-9.34-9.03-14.25-13.79-8.98-8.72-18.28-17.75-28.6-27.52-12.42-11.76-11.63-48.26-11.2-67.86.06-2.64.11-4.97.12-6.93h.18c2.65-.11 5.39-.22 7.57 1.88 3.2 3.08 4.76 10.31 4.76 22.15.09 2.37 1.84 3.66 3.53 3.89 1.69.22 3.72-.57 4.42-2.84l9.66-31.35-.08-.28c-2.93-10.6-7.82-33.85-7.66-38.95.14-4.36 5.14-8.51 8.42-11.03l14.31 59.19v53.06l9.56 5.26v-2.28l-7.56-4.16v-51.99l-15.09-62.51-1.58 1.21c-3.45 2.62-9.88 7.5-10.06 13.21-.18 5.64 4.91 29.25 7.65 39.27l-9.49 30.79c-.38 1.23-1.45 1.55-2.25 1.44s-1.75-.69-1.8-1.94c0-12.55-1.71-20.03-5.38-23.55-2.8-2.69-6.26-2.55-9.04-2.44-.38.01-.75.03-1.12.04l-.98.02v.98c0 2.13-.06 4.78-.12 7.85-.44 19.92-1.25 56.99 11.82 69.36 10.31 9.76 19.6 18.78 28.58 27.5 4.38 4.25 8.61 8.36 12.76 12.35h2.89z"/></svg>