<svg xmlns="http://www.w3.org/2000/svg" fill="none" viewBox="0 0 240 240"><path fill="var(--illustration-gray)" fill-rule="evenodd" d="m184.464 64.464 12.7-12.7 7.071 7.072-12.7 12.7-7.071-7.072Z" clip-rule="evenodd"/><path fill="var(--illustration-gray)" d="M128 16h-16v28h16V16Z"/><path fill="var(--illustration-gray)" d="M120 240c-55.2 0-100-44.8-100-100S64.8 40 120 40m0 0c55.2 0 100 44.8 100 100s-44.8 100-100 100"/><path fill="var(--illustration-white)" d="M120 224c-46.4 0-84-37.6-84-84s37.6-84 84-84m0 0c46.4 0 84 37.6 84 84s-37.6 84-84 84"/><path fill="var(--illustration-white)" d="m120 140 30-51.9c-28.7-16.6-65.4-6.8-82 21.9-16.6 28.7-6.8 65.4 21.9 82l30.1-52Z"/><path fill="var(--illustration-primary)" d="M150 88.1c28.7 16.6 38.5 53.3 21.9 82-16.6 28.7-53.3 38.5-82 21.9"/><path fill="var(--illustration-gray)" d="m120 140 24-41.5C121.1 85.2 91.7 93 78.5 116 65.2 138.9 73 168.3 96 181.5l24-41.5Z"/><path fill="var(--illustration-accent-1)" d="M144 98.5c22.9 13.3 30.8 42.6 17.5 65.6-13.3 22.9-42.6 30.8-65.6 17.5"/><path fill="var(--illustration-black)" fill-rule="evenodd" d="M150.236 157.497c9.72-16.719 3.987-38.108-12.739-47.832l1.006-1.729c17.674 10.275 23.741 32.886 13.462 50.567-10.276 17.674-32.887 23.741-50.568 13.462l1.006-1.729c16.719 9.72 38.108 3.987 47.833-12.739Z" clip-rule="evenodd"/><path fill="var(--illustration-black)" fill-rule="evenodd" d="M137.597 109.764c-16.719-9.72-38.108-3.987-47.833 12.739-9.72 16.719-3.987 38.108 12.739 47.832l-1.006 1.729c-17.674-10.275-23.741-32.886-13.462-50.567 10.276-17.674 32.887-23.741 50.568-13.462l-1.006 1.729ZM119 76.1V59h2v17.1h-2Zm0 144.9v-17.1h2V221h-2Zm64.9-82H201v2h-17.1v-2ZM39 139h17.1v2H39v-2Zm48.434-53.399-8.8-15.2 1.731-1.002 8.8 15.2-1.73 1.002Zm72.2 125-8.8-15.2 1.731-1.002 8.8 15.2-1.731 1.002ZM64.599 109.165l-15.2-8.8 1.002-1.73 15.2 8.8-1.002 1.73Zm125 72.2-15.2-8.8 1.002-1.731 15.2 8.8-1.002 1.731Zm-123.998-8.8-15.2 8.8-1.002-1.731 15.2-8.8 1.002 1.731Zm125-72.2-15.2 8.8-1.002-1.73 15.2-8.8 1.002 1.73ZM89.165 195.401l-8.8 15.2-1.73-1.002 8.8-15.2 1.73 1.002Z" clip-rule="evenodd"/><path fill="var(--illustration-black)" fill-rule="evenodd" d="m159.467 73.197-38.6 67.3-1.735-.995 38.6-67.3 1.735.995Z" clip-rule="evenodd"/><path fill="var(--illustration-primary)" fill-rule="evenodd" d="m208.465 67.335-19.8-19.8 7.071-7.07 19.8 19.8-7.071 7.07Z" clip-rule="evenodd"/><path fill="var(--illustration-black)" d="M128.9 140c0 4.9-4 8.9-8.9 8.9s-8.9-4-8.9-8.9 4-8.9 8.9-8.9 8.9 4 8.9 8.9Z"/><path fill="var(--illustration-primary)" d="M110 20c-5.5 0-10-4.5-10-10s4.5-10 10-10h20c5.5 0 10 4.5 10 10s-4.5 10-10 10h-20Z"/></svg>