<svg xmlns="http://www.w3.org/2000/svg" fill="none" viewBox="0 0 240 240"><path fill="var(--illustration-positive)" d="M119.805 76h99.386a107.842 107.842 0 0 0-21.411-32h-77.975v32Z"/><path fill="var(--illustration-gray)" d="M.297 120c0 31.826 12.59 62.348 35.001 84.853C57.71 227.357 88.105 240 119.8 240V0C88.106 0 57.71 12.643 35.3 35.147 12.886 57.652.296 88.174.296 120Z"/><path fill="var(--illustration-primary)" d="M27.277 196h92.514v-32H8.555a120.942 120.942 0 0 0 18.722 32Z"/><path fill="var(--illustration-invert)" fill-rule="evenodd" d="M161.332 42.19C150.596 23.2 135.928 12 119.805 12v-2c17.138 0 32.345 11.9 43.21 31.21 10.864 19.31 17.537 46.26 17.537 76.79 0 30.53-6.653 58.45-17.527 78.77-10.875 20.32-26.052 33.23-43.22 33.23v-2c16.083 0 30.762-12.15 41.467-32.17 10.705-20.02 17.288-47.56 17.288-77.83 0-30.27-6.603-56.84-17.228-75.81Z" clip-rule="evenodd"/><path fill="var(--illustration-black)" fill-rule="evenodd" d="M12.25 119h107.552v2H12.25v-2Zm15.93-60h35.85v2H28.18v-2Z" clip-rule="evenodd"/><path fill="var(--illustration-black)" fill-rule="evenodd" d="M10.258 118c0-61.38 48.667-108 109.543-108v2C59.971 12 12.249 57.78 12.249 118S60.05 228 119.802 228v2c-60.926 0-109.543-50.67-109.543-112Z" clip-rule="evenodd"/><path fill="var(--illustration-invert)" fill-rule="evenodd" d="M119.805 59h90.821v2h-90.821v-2Zm0 60h107.552v2H119.805v-2Zm0 60h90.722v2h-90.722v-2Z" clip-rule="evenodd"/><path fill="var(--illustration-invert)" fill-rule="evenodd" d="m170.826 180.65-103.568-120 1.504-1.3 103.568 120-1.504 1.3Z" clip-rule="evenodd"/><path fill="var(--illustration-black)" fill-rule="evenodd" d="M78.245 42.19C67.589 61.16 61.046 87.73 61.046 118c0 30.27 6.543 57.85 17.209 77.83C88.92 215.81 103.569 228 119.802 228v2c-17.278 0-32.475-12.94-43.3-33.23-10.825-20.29-17.447-48.24-17.447-78.77 0-30.53 6.592-57.46 17.457-76.79C87.377 21.88 102.573 10 119.802 10v2c-16.233 0-30.892 11.2-41.557 30.19Z" clip-rule="evenodd"/><path fill="var(--illustration-invert)" fill-rule="evenodd" d="M119.805 10c29.052 0 56.915 11.59 77.459 32.218 20.543 20.63 32.084 48.608 32.084 77.782s-11.541 57.153-32.084 77.782C176.72 218.411 148.857 230 119.805 230v-2c28.524 0 55.88-11.379 76.05-31.632 20.17-20.254 31.502-47.725 31.502-76.368 0-28.643-11.332-56.114-31.502-76.368C175.685 23.38 148.329 12 119.805 12v-2Z" clip-rule="evenodd"/><path fill="var(--illustration-primary)" d="M119.8 44H68.016v32H119.8V44Z"/><path fill="var(--illustration-accent-1)" d="M171.589 164h-51.784v32h51.784v-32Z"/><path fill="var(--illustration-accent-1)" d="M171.588 156a23.83 23.83 0 0 1 13.278 4.045 23.972 23.972 0 0 1 8.803 10.771 24.092 24.092 0 0 1 1.36 13.866 24.028 24.028 0 0 1-6.541 12.289 23.87 23.87 0 0 1-12.237 6.568 23.804 23.804 0 0 1-13.809-1.366 23.917 23.917 0 0 1-10.726-8.839A24.066 24.066 0 0 1 147.688 180a24.034 24.034 0 0 1 1.803-9.194 23.94 23.94 0 0 1 5.179-7.794 23.835 23.835 0 0 1 7.762-5.201 23.744 23.744 0 0 1 9.156-1.811Z"/><path fill="var(--illustration-black)" fill-rule="evenodd" d="M171.586 165c-2.955 0-5.843.88-8.299 2.528a14.985 14.985 0 0 0-5.502 6.732 15.057 15.057 0 0 0-.85 8.666 15.019 15.019 0 0 0 4.088 7.681 14.927 14.927 0 0 0 7.648 4.105c2.898.579 5.902.282 8.631-.854a14.948 14.948 0 0 0 6.704-5.524 15.049 15.049 0 0 0-1.858-18.941A14.905 14.905 0 0 0 171.586 165Zm-16.93 15c0-3.362.993-6.649 2.853-9.445a16.958 16.958 0 0 1 7.598-6.261 16.86 16.86 0 0 1 9.781-.967 16.915 16.915 0 0 1 8.669 4.652 17.028 17.028 0 0 1 4.633 8.704 17.066 17.066 0 0 1-.964 9.823 16.983 16.983 0 0 1-6.235 7.629 16.878 16.878 0 0 1-9.405 2.865c-4.49 0-8.796-1.791-11.971-4.979A17.036 17.036 0 0 1 154.656 180Z" clip-rule="evenodd"/><path fill="var(--illustration-black)" fill-rule="evenodd" d="M29.773 179H155.65v2H29.773v-2Z" clip-rule="evenodd"/><path fill="var(--illustration-black)" fill-rule="evenodd" d="M119.789 179h35.851v2h-35.851v-2Zm-.06-60.6L68.761 59.34l-1.503 1.32 52.471 60.8v-3.06Z" clip-rule="evenodd"/><path fill="var(--illustration-primary)" d="M68.018 84a23.83 23.83 0 0 1-13.279-4.045 23.98 23.98 0 0 1-8.802-10.77 24.093 24.093 0 0 1-1.36-13.867 24.031 24.031 0 0 1 6.54-12.289 23.87 23.87 0 0 1 12.238-6.568 23.808 23.808 0 0 1 13.809 1.366 23.922 23.922 0 0 1 10.726 8.84A24.071 24.071 0 0 1 91.918 60a24.027 24.027 0 0 1-1.803 9.194 23.947 23.947 0 0 1-5.18 7.794 23.833 23.833 0 0 1-7.762 5.201A23.755 23.755 0 0 1 68.018 84Z"/><path fill="var(--illustration-black)" fill-rule="evenodd" d="M68.015 45c-2.954 0-5.842.88-8.299 2.528a14.987 14.987 0 0 0-5.501 6.732 15.058 15.058 0 0 0-.85 8.666 15.019 15.019 0 0 0 4.088 7.68 14.919 14.919 0 0 0 7.648 4.106 14.88 14.88 0 0 0 8.63-.854 14.951 14.951 0 0 0 6.705-5.524 15.045 15.045 0 0 0-1.858-18.94A14.907 14.907 0 0 0 68.015 45Zm-16.93 15c0-3.362.994-6.649 2.854-9.445a16.944 16.944 0 0 1 7.598-6.26 16.864 16.864 0 0 1 9.781-.968c3.284.656 6.3 2.275 8.668 4.652a17.022 17.022 0 0 1 4.634 8.705 17.066 17.066 0 0 1-.964 9.822 16.985 16.985 0 0 1-6.235 7.629A16.88 16.88 0 0 1 68.015 77c-4.49 0-8.796-1.791-11.97-4.98A17.036 17.036 0 0 1 51.084 60Z" clip-rule="evenodd"/></svg>