<svg xmlns="http://www.w3.org/2000/svg" fill="none" viewBox="0 0 240 240"><path fill="var(--illustration-accent-1)" d="M235.934 152h-77.286v24h77.286z"/><path fill="var(--illustration-primary)" d="M40.684 126.78a23 23 0 0 0-7.78 1.657S.009 143.173.009 163.39s32.897 34.952 32.897 34.952a23 23 0 0 0 7.78 1.658h174.908a4.067 4.067 0 0 0 4.068-4.068v-65.085a4.07 4.07 0 0 0-4.068-4.067z"/><path fill="var(--illustration-white)" d="M36.616 187.288c13.198 0 23.898-10.7 23.898-23.898s-10.7-23.899-23.898-23.899-23.897 10.7-23.897 23.899c0 13.198 10.699 23.898 23.897 23.898"/><path fill="var(--illustration-black)" d="M219.661 152H160v23.999h59.661z"/><path fill="var(--illustration-gray)" d="m188.524 57.505-46.026-46.027a4.067 4.067 0 0 0-5.745 0L10.727 137.498a36.61 36.61 0 0 0 0 51.783 36.6 36.6 0 0 0 51.781 0l126.016-126.03a4.07 4.07 0 0 0 0-5.746"/><path fill="var(--illustration-invert)" d="M124.995 126.78h-88.38a36.52 36.52 0 0 0-25.89 10.718c-.428.438-.845.875-1.241 1.312a18 18 0 0 0-.57.662c-.183.223-.406.457-.6.701s-.447.559-.67.844l-.428.549c-.234.315-.458.641-.681.966-.112.163-.234.325-.336.488-.224.325-.437.671-.65 1.017l-.316.499c-.193.335-.386.671-.57 1.016-.182.346-.213.377-.315.56-.101.183-.335.64-.498 1.017l-.325.661-.397.874c-.112.264-.234.519-.335.783-.102.265-.214.53-.316.794-.101.264-.234.6-.345.905-.112.305-.153.468-.234.702s-.224.681-.326 1.017a31 31 0 0 0-.478 1.728c-.05.193-.091.396-.142.59-.081.386-.173.773-.254 1.16 0 .193-.072.396-.102.599-.071.387-.142.763-.193 1.15l-.092.702c-.03.234-.091.712-.132 1.017l-.061.914c0 .295-.05.581-.071.865v3.62c0 .285 0 .569.071.864l.061.916c0 .356.092.712.132 1.017s.051.468.092.702c.04.234.122.762.193 1.149 0 .203.071.407.102.6.081.386.173.772.254 1.159.05.193.091.396.142.59.092.366.193.742.295 1.108s.112.417.183.621c.071.203.214.691.326 1.017.111.325.152.467.234.701.08.234.233.6.345.905s.204.53.316.794c.111.264.223.518.335.783l.397.874.325.661c.163.325.326.651.498 1.017.173.366.204.376.316.559.111.183.376.671.57 1.017l.314.498.641 1.017.356.499c.213.315.437.641.671.956l.427.548.671.845c.194.244.397.478.6.712l.57.651c.396.437.813.875 1.24 1.312s.875.844 1.312 1.24l.661.57c.234.203.458.406.702.599.244.194.56.448.844.672l.55.427.955.681.498.336c.326.223.671.438 1.017.651l.498.315 1.017.57.56.315.956.498.67.325.875.397c.265.112.519.234.783.336l.794.315.905.345.701.235 1.017.326c.203.071.407.121.62.182l1.109.295.59.142 1.159.255.6.102c.386.071.763.142 1.15.192l.69.092 1.078.132.916.062.864.071h1.81a36.5 36.5 0 0 0 14.015-2.777 36.5 36.5 0 0 0 11.876-7.942z"/><path fill="var(--illustration-invert-2)" d="M36.616 187.288c13.198 0 23.898-10.7 23.898-23.898s-10.7-23.899-23.898-23.899-23.897 10.7-23.897 23.899c0 13.198 10.699 23.898 23.897 23.898"/><path fill="var(--illustration-invert)" fill-rule="evenodd" d="M36.616 146.593c-9.276 0-16.796 7.52-16.796 16.797 0 9.276 7.52 16.796 16.796 16.796s16.796-7.52 16.796-16.796-7.52-16.797-16.796-16.797M17.82 163.39c0-10.381 8.415-18.797 18.796-18.797s18.796 8.416 18.796 18.797-8.415 18.796-18.796 18.796-18.796-8.415-18.796-18.796M144 152.187h-32v-2h32zm0 8.135h-32v-2h32zm0 8.136h-32v-2h32zm0 8.135h-32v-2h32z" clip-rule="evenodd"/><path fill="var(--illustration-primary)" fill-rule="evenodd" d="M232 155.829h.004a4 4 0 0 1 7.992 0H240v16h-.004q.004.086.004.171a4 4 0 1 1-7.996-.171H232z" clip-rule="evenodd"/><path fill="var(--illustration-black)" fill-rule="evenodd" d="M235.93 154.83a1 1 0 0 1 1 1v16a1 1 0 0 1-2 0v-16a1 1 0 0 1 1-1" clip-rule="evenodd"/></svg>