<svg xmlns="http://www.w3.org/2000/svg" fill="none" viewBox="0 0 240 240"><path fill="var(--illustration-gray)" d="M56 0h128v104H56V0Z"/><path fill="var(--illustration-primary)" fill-rule="evenodd" d="M56 0c0 35.346 28.654 64 64 64 35.346 0 64-28.654 64-64H56Z" clip-rule="evenodd"/><path fill="var(--illustration-accent-1)" d="M120 168c35.346 0 64-28.654 64-64 0-35.346-28.654-64-64-64-35.346 0-64 28.654-64 64 0 35.346 28.654 64 64 64Z"/><path fill="var(--illustration-gray)" d="M48 144h144v24H48v-24Zm-16 24h144v24H32v-24Z"/><path fill="var(--illustration-primary)" fill-rule="evenodd" d="M151.008 144c-9.186 5.097-19.758 8-31.008 8s-21.822-2.903-31.008-8h62.016Z" clip-rule="evenodd"/><path fill="var(--illustration-primary)" fill-rule="evenodd" d="M169.965 144c-11.729 14.631-29.752 24-49.963 24-20.211 0-38.234-9.369-49.963-24h99.926Z" clip-rule="evenodd"/><path fill="var(--illustration-gray)" d="M64 192h144v24H64v-24Zm-24 24h144v24H40v-24Z"/><path fill="var(--illustration-black)" fill-rule="evenodd" d="M119.428 58C93.787 58 73 78.787 73 104.428h-2C71 77.682 92.682 56 119.428 56s48.429 21.682 48.429 48.428h-2C165.857 78.787 145.07 58 119.428 58Zm.003 92.857c25.642 0 46.428-20.787 46.428-46.428h2c0 26.746-21.682 48.428-48.428 48.428s-48.428-21.682-48.428-48.428h2c0 25.641 20.786 46.428 46.428 46.428Z" clip-rule="evenodd"/><path fill="var(--illustration-black)" fill-rule="evenodd" d="M119.428 58C93.787 58 73 78.787 73 104.428h-2C71 77.682 92.682 56 119.428 56s48.429 21.682 48.429 48.428h-2C165.857 78.787 145.07 58 119.428 58Zm.003 92.857c25.642 0 46.428-20.787 46.428-46.428h2c0 26.746-21.682 48.428-48.428 48.428s-48.428-21.682-48.428-48.428h2c0 25.641 20.786 46.428 46.428 46.428Z" clip-rule="evenodd"/><path fill="var(--illustration-black)" fill-rule="evenodd" d="M119 128V0h2v128h-2Z" clip-rule="evenodd"/><path fill="var(--illustration-black)" fill-rule="evenodd" d="M119 53.5V0h2v53.5h-2Zm-26.71 48.207 1.413-1.414 26.293 26.293 26.293-26.293 1.414 1.414-27.707 27.707-27.707-27.707ZM161 184v8h-2v-8h2Zm-16 0v8h-2v-8h2Zm-16 0v8h-2v-8h2Zm-16 0v8h-2v-8h2Zm-16 0v8h-2v-8h2Zm-16 0v8h-2v-8h2Zm-16 0v8h-2v-8h2Zm-16 0v8h-2v-8h2Zm128-24v8h-2v-8h2Zm-16 0v8h-2v-8h2Zm-80 0v8h-2v-8h2Zm-16 0v8h-2v-8h2Zm128 48v8h-2v-8h2Zm-16 0v8h-2v-8h2Zm-16 0v8h-2v-8h2Zm-16 0v8h-2v-8h2Zm-16 0v8h-2v-8h2Zm-16 0v8h-2v-8h2Zm-16 0v8h-2v-8h2Zm-16 0v8h-2v-8h2Zm88 24v8h-2v-8h2Zm-16 0v8h-2v-8h2Zm-16 0v8h-2v-8h2Zm-16 0v8h-2v-8h2Zm-16 0v8h-2v-8h2Zm-16 0v8h-2v-8h2Zm-16 0v8h-2v-8h2Zm-16 0v8h-2v-8h2Z" clip-rule="evenodd"/><path fill="var(--illustration-black)" fill-rule="evenodd" d="M192 169H48v-2h144v2Zm-16 24H32v-2h144v2Zm32 24H64v-2h144v2Zm-24 23H40v-2h144v2Z" clip-rule="evenodd"/></svg>