<svg xmlns="http://www.w3.org/2000/svg" fill="none" viewBox="0 0 242 240"><path fill="var(--illustration-white)" d="m52.93 208.108-6.928-9.799L49.27 196l6.927 9.799z"/><path fill="var(--illustration-accent-2)" d="M50.75 162h31v25.5c0 8.56-6.94 15.5-15.5 15.5s-15.5-6.94-15.5-15.5z"/><path fill="var(--illustration-accent-2)" d="M150.968 90.883Q151 89.944 151 89c0-30.376-24.848-55-55.5-55S40 58.624 40 89c0 5.148.714 10.13 2.048 14.856C24.868 111.899 13 129.091 13 149c0 27.614 22.834 50 51 50 15.268 0 28.968-6.577 38.315-16.999 2.598 6.715 6.877 12.251 13.101 15.844 22.589 13.042 53.884 1.125 69.9-26.615 16.017-27.741 10.689-60.802-11.9-73.844-7.534-4.35-15.106-6.542-22.448-6.504"/><path fill="var(--illustration-positive)" d="M168 32c-11.046 0-20 8.954-20 20 0 8.955 5.886 16.536 14 19.084V83l14.667-11H206c11.046 0 20-8.954 20-20s-8.954-20-20-20z"/><path fill="var(--illustration-white)" d="M172 52a5 5 0 1 1-10 0 5 5 0 0 1 10 0m20 0a5 5 0 1 1-10 0 5 5 0 0 1 10 0m15 5a5 5 0 1 0 0-10 5 5 0 0 0 0 10"/><path fill="var(--illustration-black)" d="M105.188 171.5h83v4c0 5.523-4.478 10-10 10h-63.001c-5.522 0-9.999-4.477-9.999-10zm-4.142-5.5H193l-28.046-30H73z"/><path fill="var(--illustration-accent-2)" d="M118.914 139.072c-3.74-6.75-7.808-18.368-11.067-25.986L62 108.371c7.97 13.085 15.885 23.233 22.842 31.991 13.073 16.456 21.918 18.497 25.35 18.593 10.928.308 12.094-8.198 11.02-14.38-.343-1.973-1.328-3.751-2.298-5.503"/><path fill="var(--illustration-gray)" d="M146.177 106h92.128l-23.309 60h-91.918z"/><path fill="var(--illustration-primary)" d="M118 176.536h75.206L165.215 136h-30.947z"/><path fill="var(--illustration-gray-2)" d="M0 166h240c-8.928 43.096-46.891 74-90.902 74H92.603C48.237 240 9.786 209.274 0 166"/><path fill="var(--illustration-white)" fill-rule="evenodd" d="M241.5 184H3.5v-2h238z" clip-rule="evenodd"/><path fill="var(--illustration-accent-2)" d="M46 166h31v44.5c0 8.56-6.94 15.5-15.5 15.5S46 219.06 46 210.5zm-20 0h12v22a6 6 0 1 1-12 0z"/><path fill="var(--illustration-primary)" fill-rule="evenodd" d="M38 184H26v-2h12zm39 0H46v-2h31z" clip-rule="evenodd"/><path fill="var(--illustration-white)" d="M166.879 146.598c8.822 2.637 18.301-3.01 21.171-12.612 1.083-3.62 1.071-7.286.164-10.589 5.364 4.087 7.721 12.184 5.325 20.202-2.955 9.886-12.021 15.907-20.248 13.448-5.302-1.585-8.961-6.303-10.103-12.104a15.4 15.4 0 0 0 3.691 1.655"/><path fill="var(--illustration-black)" d="M171.712 147.241a15.4 15.4 0 0 1-4.833-.643 15.4 15.4 0 0 1-3.691-1.655c1.142 5.801 4.801 10.52 10.103 12.104 1.816.543 3.673.673 5.495.439zm-33.597-53.076c-.067 3.313-1.911 5.961-4.12 5.916-2.209-.046-3.945-2.769-3.878-6.082s1.912-5.962 4.121-5.916c2.208.046 3.944 2.769 3.877 6.082m-29.095 7.051c2.209.046 4.054-2.602 4.121-5.915s-1.669-6.036-3.878-6.082-4.054 2.603-4.121 5.916c-.066 3.313 1.67 6.036 3.878 6.081m19.513 6.283-11.005.404-.073-1.999 11.005-.403z"/><path fill="var(--illustration-white)" d="m27.594 142 5.28 10.776-3.591 1.76-5.281-10.776z"/><path fill="var(--illustration-primary)" d="m39.258 117.778-2.334 11.771-3.924-.778L35.334 117z"/><path fill="var(--illustration-white)" d="m79.172 104.305-9.915 6.76-2.253-3.305 9.914-6.76z"/><path fill="var(--illustration-primary)" d="M66.945 65.789 61.58 76.522l-3.577-1.789L63.367 64z"/><path fill="var(--illustration-white)" d="m113.609 45 9.104 7.818-2.606 3.035-9.104-7.818z"/><path fill="var(--illustration-primary)" d="M82 34.048 93.824 32l.683 3.941-11.824 2.048zM156.07 95l11.563 3.21-1.07 3.854L155 98.854z"/></svg>