<svg xmlns="http://www.w3.org/2000/svg" fill="none" viewBox="0 0 240 240"><path fill="var(--illustration-gray)" fill-rule="evenodd" d="M240 40v-8h-32v8h24v24h8V40ZM0 40v-8h32v8H8v24H0V40Zm240 160v8h-32v-8h24v-24h8v24ZM0 200v8h32v-8H8v-24H0v24Z" clip-rule="evenodd"/><path fill="var(--illustration-accent-4)" d="M24 56h192v128H24V56Z"/><path fill="var(--illustration-primary)" d="M24 72h192v24H24V72Z"/><path fill="var(--illustration-gray)" d="M24 72H0v24h24V72Zm216 0h-24v24h24V72Z"/><path fill="var(--illustration-accent-4)" d="M40 147h93v19H40v-19Z"/><path fill="var(--illustration-black)" fill-rule="evenodd" d="M133 112H40v-2h93v2Zm0 9H40v-2h93v2Zm-35 9H40v-2h58v2Z" clip-rule="evenodd"/></svg>