<svg xmlns="http://www.w3.org/2000/svg" fill="none" viewBox="0 0 240 240"><path fill="var(--illustration-gray)" fill-rule="evenodd" d="M240 40v-8h-32v8h24v24h8zM0 40v-8h32v8H8v24H0zm240 160v8h-32v-8h24v-24h8zM0 200v8h32v-8H8v-24H0z" clip-rule="evenodd"/><path fill="var(--illustration-accent-4)" d="M24 56h192v128H24z"/><path fill="var(--illustration-primary)" d="M24 72h192v24H24z"/><path fill="var(--illustration-gray)" d="M24 72H0v24h24zm216 0h-24v24h24z"/><path fill="var(--illustration-accent-4)" d="M40 147h93v19H40z"/><path fill="var(--illustration-black)" fill-rule="evenodd" d="M133 112H40v-2h93zm0 9H40v-2h93zm-35 9H40v-2h58z" clip-rule="evenodd"/></svg>