<svg xmlns="http://www.w3.org/2000/svg" fill="none" viewBox="0 0 240 240"><path fill="var(--illustration-accent-2)" d="M0 24h240v152H0V24Z"/><path fill="var(--illustration-gray-2)" d="M208 0 0 24h208V0Z"/><path fill="var(--illustration-gray)" d="M120 176v50c28.17 0 51-22.38 51-50h-51Z"/><path fill="var(--illustration-gray)" d="M184 176a64 64 0 1 1-128 0h13c0 27.62 22.83 50 51 50v8c33.14 0 60-25.97 60-58h4Z"/><path fill="var(--illustration-gray)" d="M120 176v28c-16.02 0-29-12.53-29-28h29Z"/><path fill="var(--illustration-accent-2)" fill-rule="evenodd" d="M184 176a64 64 0 0 0-128 0h128Z" clip-rule="evenodd"/><path fill="var(--illustration-primary)" fill-rule="evenodd" d="M120 112a64 64 0 0 1 64 64h-13a51 51 0 1 0-102 0H56a64 64 0 0 1 64-64Z" clip-rule="evenodd"/><path fill="var(--illustration-black)" fill-rule="evenodd" d="m89.7 143.8 29 29-1.41 1.4-29-29 1.41-1.4Z" clip-rule="evenodd"/><path fill="var(--illustration-black)" fill-rule="evenodd" d="M128 176a8 8 0 0 0-16 0h16Z" clip-rule="evenodd"/><path fill="var(--illustration-negative)" fill-rule="evenodd" d="M112 176a8 8 0 0 0 16 0h-16Z" clip-rule="evenodd"/><path fill="var(--illustration-negative)" d="M56 176h13a50.8 50.8 0 0 1 14.94-36.06l-9.2-9.2A63.8 63.8 0 0 0 56 176Z"/><path fill="var(--illustration-black)" fill-rule="evenodd" d="M200 100.5A16.5 16.5 0 0 1 216.5 84H240v2h-23.5a14.5 14.5 0 0 0 0 29H240v2h-23.5a16.5 16.5 0 0 1-16.5-16.5Z" clip-rule="evenodd"/><path fill="var(--illustration-primary)" d="M224 100.5a7.5 7.5 0 1 1-15 0 7.5 7.5 0 0 1 15 0Z"/><path fill="var(--illustration-black)" fill-rule="evenodd" d="M29 40v120h-2V40h2Z" clip-rule="evenodd"/></svg>