<svg xmlns="http://www.w3.org/2000/svg" fill="none" viewBox="0 0 240 240"><path fill="var(--illustration-gray)" d="M92 76v124H0v40h240V76H92Z"/><path fill="var(--illustration-positive)" d="M92 192c-22.1 0-40-17.9-40-40s17.9-40 40-40"/><path fill="var(--illustration-primary)" d="M92 112c22.1 0 40 17.9 40 40s-17.9 40-40 40"/><path fill="var(--illustration-black)" fill-rule="evenodd" d="M123 152c0-17.148-13.853-31-31-31v-2c18.252 0 33 14.747 33 33 0 18.252-14.748 33-33 33v-2c17.147 0 31-13.853 31-31Zm-62 0c0 17.147 13.852 31 31 31v2c-18.252 0-33-14.748-33-33h2Zm31-31c-17.148 0-31 13.852-31 31h-2c0-18.253 14.748-33 33-33v2Z" clip-rule="evenodd"/><path fill="var(--illustration-primary)" d="M68 200c0 13.3-10.7 24-24 24s-24-10.7-24-24"/><path fill="var(--illustration-accent-2)" d="M20 200c0-13.3 10.7-24 24-24s24 10.7 24 24"/><path fill="var(--illustration-black)" fill-rule="evenodd" d="M44 185c-8.811 0-15 7.015-15 15h-2c0-9.016 7.011-17 17-17 9.352 0 17 7.647 17 17h-2c0-8.248-6.752-15-15-15Zm-11.491 25.634c2.36 2.645 6.064 4.366 11.49 4.366 8.249 0 15-6.753 15-15h2c0 9.352-7.647 17-17 17-5.872 0-10.168-1.88-12.983-5.035C28.22 208.83 27 204.566 27 200h2c0 4.233 1.13 7.969 3.509 10.634Z" clip-rule="evenodd"/><path fill="var(--illustration-primary)" d="M232 75.9c0 33.1-26.9 60-60 60s-60-26.9-60-60"/><path fill="var(--illustration-accent-1)" d="M112 75.9c0-33.1 26.9-60 60-60s60 26.9 60 60"/><path fill="var(--illustration-black)" fill-rule="evenodd" d="M172 32.9c-23.719 0-43 21.223-43 43h-2c0-22.823 20.119-45 45-45 24.852 0 45 20.148 45 45h-2c0-23.748-19.253-43-43-43Zm0 88c-24.822 0-45-18.118-45-45h2c0 25.718 19.222 43 43 43v2Z" clip-rule="evenodd"/><path fill="var(--illustration-invert)" fill-rule="evenodd" d="M0 239V0h2v237.999l237.999-.099.001 2L1 240a1.003 1.003 0 0 1-1-1Z" clip-rule="evenodd"/><path fill="var(--illustration-black)" fill-rule="evenodd" d="M172 119c23.747 0 43-19.252 43-43h2c0 24.852-20.148 45-45 45v-2ZM61 152v48h-2v-48h2Zm111-31H92v-2h80v2ZM44 217H0v-2h44v2Z" clip-rule="evenodd"/></svg>