<svg xmlns="http://www.w3.org/2000/svg" fill="none" viewBox="0 0 240 240"><path fill="var(--illustration-gray)" d="M69.23 152.145 0 184.29 120 240l120-55.71-69.23-32.145L120 175.71z"/><path fill="var(--illustration-invert)" fill-rule="evenodd" d="M203.156 118.999a1 1 0 0 1 1 1v68.57a1 1 0 1 1-2 0v-68.57a1 1 0 0 1 1-1M120 153.28a1 1 0 0 1 1 1v68.58a1 1 0 0 1-2 0v-68.58a1 1 0 0 1 1-1m-76.281-34.281a1 1 0 0 1 1 1v68.57a1 1 0 1 1-2 0v-68.57a1 1 0 0 1 1-1" clip-rule="evenodd"/><path fill="var(--illustration-accent-1)" d="M170.77 87.855 120 111.43 69.23 87.855 0 120l69.23 32.145L120 128.57l50.77 23.575L240 120z"/><path fill="var(--illustration-primary)" d="m69.227 87.855 50.769 87.854 50.77-87.854-50.77-23.576z"/><path fill="var(--illustration-invert)" fill-rule="evenodd" d="M43.719 50.42a1 1 0 0 1 1 1V120a1 1 0 0 1-2 0V51.42a1 1 0 0 1 1-1m159.437 0a1 1 0 0 1 1 1V120a1 1 0 0 1-2 0V51.42a1 1 0 0 1 1-1" clip-rule="evenodd"/><path fill="var(--illustration-accent-2)" d="M170.77 87.855 240 55.71 120 0 0 55.71l69.23 32.145L120 64.28z"/><path fill="var(--illustration-black)" fill-rule="evenodd" d="m170.766 87.854-50.77 23.576-50.77-23.575h.001L119.996 0z" clip-rule="evenodd"/><path fill="var(--illustration-primary)" d="m69.227 152.145 50.769 23.565 50.77-23.565-50.77-23.575z"/><path fill="var(--illustration-black)" d="m120.003 128.57-21.48 9.969 21.48 37.171 21.48-37.171z"/></svg>