<svg xmlns="http://www.w3.org/2000/svg" fill="none" viewBox="0 0 240 240"><path fill="var(--illustration-gray)" d="M69.23 152.145 0 184.29 120 240l120-55.71-69.23-32.145L120 175.71l-50.77-23.565Z"/><path fill="var(--illustration-invert)" fill-rule="evenodd" d="M203.16 118.999a1 1 0 0 1 1 1v68.57a1 1 0 1 1-2 0v-68.57a1 1 0 0 1 1-1Z" clip-rule="evenodd"/><path fill="var(--illustration-black)" fill-rule="evenodd" d="M120 153.28a1 1 0 0 1 1 1v68.58a1 1 0 0 1-2 0v-68.58a1 1 0 0 1 1-1Z" clip-rule="evenodd"/><path fill="var(--illustration-invert)" fill-rule="evenodd" d="M43.72 118.999a1 1 0 0 1 1 1v68.57a1 1 0 1 1-2 0v-68.57a1 1 0 0 1 1-1Z" clip-rule="evenodd"/><path fill="var(--illustration-accent-1)" d="M170.77 87.855 120 111.43 69.23 87.855 0 120l69.23 32.145L120 128.57l50.77 23.575L240 120l-69.23-32.145Z"/><path fill="var(--illustration-primary)" d="M69.23 87.855 120 175.709l50.77-87.855L120 64.28 69.23 87.856Z"/><path fill="var(--illustration-invert)" fill-rule="evenodd" d="M43.72 50.42a1 1 0 0 1 1 1V120a1 1 0 0 1-2 0V51.42a1 1 0 0 1 1-1Zm159.44 0a1 1 0 0 1 1 1V120a1 1 0 0 1-2 0V51.42a1 1 0 0 1 1-1Z" clip-rule="evenodd"/><path fill="var(--illustration-accent-2)" d="M170.77 87.855 240 55.71 120 0 0 55.71l69.23 32.145L120 64.28l50.77 23.575Z"/><path fill="var(--illustration-black)" fill-rule="evenodd" d="M170.77 87.854 120 111.43 69.23 87.855 120 0l50.769 87.854h.001Z" clip-rule="evenodd"/><path fill="var(--illustration-primary)" d="M69.23 152.145 120 175.71l50.77-23.565L120 128.57l-50.77 23.575Z"/><path fill="var(--illustration-black)" d="m120 128.57-21.48 9.969L120 175.71l21.48-37.171L120 128.57Z"/></svg>