<svg xmlns="http://www.w3.org/2000/svg" fill="none" viewBox="0 0 240 240"><path fill="var(--illustration-invert)" fill-rule="evenodd" d="m27.172 24 14.404 33.891q.036.086.088.164C46.04 64.62 58.438 79.402 73.09 85.914c14.465 6.429 54.463 19.381 72.608 25.041a1 1 0 0 0 1.293-1.054c-.262-2.623-1.274-6.731-3.459-10.662-2.188-3.937-5.597-7.767-10.685-9.675-5.018-1.882-12.278-4.203-18.837-6.294-7.29-2.324-10.854-10.156-7.973-17.282a13.845 13.845 0 0 1 13.29-8.649l3.417.112a18.74 18.74 0 0 1 16.7 11.557l9.38 22.637c4.042 9.754 14.526 15.173 24.821 12.83l-.222-.975.901-.434-10.758-22.342 2.579 2.354a27.93 27.93 0 0 0 27.667 5.87L195 88l-17.218-17.068 2.952 1.25a20.94 20.94 0 0 0 22.969-4.475l.797-1.207-24.549-12.39-.06-.029-36-15.5a1 1 0 0 0-.395-.081H84.219L79.446 24H77.34l5.206 15.813a1 1 0 0 0 .95.687h59.358l16.659 36.416.009.018 12.437 25.832c-8.933 1.442-17.781-3.425-21.287-11.887l-9.381-22.637a20.74 20.74 0 0 0-18.481-12.79l-3.418-.112a15.84 15.84 0 0 0-15.209 9.899c-3.304 8.173.788 17.249 9.22 19.936 6.576 2.097 13.781 4.401 18.742 6.261 4.512 1.692 7.603 5.112 9.639 8.775a28 28 0 0 1 2.998 8.362c-18.799-5.89-56.93-18.287-70.88-24.487-14.091-6.263-26.188-20.591-30.522-27.063L29.345 24zm119.392 19.803 14.683 32.096 6.246 5.702a25.93 25.93 0 0 0 24.107 5.922l-18.875-18.806zm34.95 26.538-7.534-3.19-25.751-24.524 30.841 13.279 22.199 11.335a18.94 18.94 0 0 1-19.755 3.1" clip-rule="evenodd"/><path fill="var(--illustration-invert)" fill-rule="evenodd" d="m143.672 38.486 1.128 2.767 34.63 14.545 5.306.914A16.63 16.63 0 0 0 203.003 46.5zm6.648 2.916 49.632 6.704a14.63 14.63 0 0 1-14.876 6.636l-5.082-.877z" clip-rule="evenodd"/><path fill="var(--illustration-accent-1)" d="M164 210c33.137 0 60-26.863 60-60s-26.863-60-60-60-60 26.863-60 60 26.863 60 60 60"/><path fill="var(--illustration-gray)" d="M104 172.321c7.707 20.709 25.83 36.35 48 40.556V240h-48zm120 0c-7.707 20.709-25.83 36.35-48 40.556V240h48z"/><path fill="var(--illustration-invert)" fill-rule="evenodd" d="M163.999 99.57c-27.851 0-50.429 22.578-50.429 50.429s22.578 50.429 50.429 50.429 50.428-22.578 50.428-50.429-22.577-50.428-50.428-50.428M111.57 150c0-28.955 23.473-52.428 52.429-52.428 28.955 0 52.428 23.473 52.428 52.428 0 28.956-23.473 52.429-52.428 52.429-28.956 0-52.429-23.473-52.429-52.429" clip-rule="evenodd"/><path fill="var(--illustration-invert-2)" d="M146 110c-18.167-5.667-58.1-18.6-72.5-25l58 11 1-5.5c9.6 3.6 13 14.5 13.5 19.5"/><path fill="var(--illustration-invert)" fill-rule="evenodd" d="M145.702 110.955c-18.146-5.66-58.143-18.612-72.608-25.041l.812-1.828c13.95 6.2 52.081 18.597 70.88 24.487a28 28 0 0 0-2.998-8.362c-2.036-3.663-5.127-7.082-9.639-8.775l.702-1.872c5.088 1.908 8.497 5.738 10.685 9.675 2.185 3.931 3.197 8.039 3.459 10.661l.15 1.505z" clip-rule="evenodd"/><path fill="var(--illustration-accent-1)" d="M224.002 232c0-8.838-7.164-15.998-16.002-15.998 8.838 0 16.002-7.164 16.002-16.002 0 8.838 7.163 16.002 15.998 16.002-8.835 0-15.998 7.16-15.998 15.998"/><path fill="var(--illustration-primary)" d="M40.063 131.932c0-8.801 7.133-15.93 15.933-15.93-8.8 0-15.933-7.133-15.933-15.934 0 8.801-7.133 15.934-15.93 15.934 8.797 0 15.93 7.129 15.93 15.93"/><path fill="var(--illustration-primary)" fill-rule="evenodd" d="M224 231.77v-31.54c-.123 8.732-7.239 15.772-16 15.772 8.761 0 15.877 7.036 16 15.768" clip-rule="evenodd"/><path fill="var(--illustration-accent-2)" d="M86.369 32.084 34.495 62.19.015 0h75.617l3.326 9.853z"/><path fill="var(--illustration-primary)" d="m34.493 62.19 51.874-30.106-7.411-22.231-57.683 28.525z"/><path fill="var(--illustration-gray)" d="m34.495 62.19-7.874 4.168-13.894-23.621 8.572-4.366zm58.353-33.348-6.484 3.242-7.41-22.231L82.194 8z"/><path fill="var(--illustration-invert-2)" d="M44.617 49.552a7.41 7.41 0 0 1 2.713-10.123 7.41 7.41 0 0 1-10.124-2.713 7.41 7.41 0 0 1-2.711 10.123 7.41 7.41 0 0 1 10.122 2.712"/></svg>