<svg xmlns="http://www.w3.org/2000/svg" fill="none" viewBox="0 0 240 240"><path fill="var(--illustration-gray)" d="M175.973 39.93H64.063v7.97h111.91v-7.97ZM127.953 240h80v-80l-80 80Z"/><path fill="var(--illustration-primary)" d="M111.789 240h-80v-80l80 80Z"/><path fill="var(--illustration-gray)" d="M206.839 208H31.789v32h175.05v-32Z"/><path fill="var(--illustration-gray)" d="M111.999 240h-80.21v-80L112 240Z"/><path fill="var(--illustration-gray)" d="M207.999 208H31.789v32H208v-32Z"/><path fill="var(--illustration-primary)" d="m159.953 208-32 32h80v-32h-48ZM31.79 208v32h80.209l-32-32H31.79Zm144.14-80H64.07v32h111.86v-32Z"/><path fill="var(--illustration-gray)" d="m176 160-35 40H99l-35-40h112Z"/><path fill="var(--illustration-gray)" d="m176 128-32 40H96l-32-40h112Z"/><path fill="var(--illustration-black)" d="M144 208H96v32h48v-32Z"/><path fill="var(--illustration-gray)" d="M144 192H96v16h48v-16Z"/><path fill="var(--illustration-black)" fill-rule="evenodd" d="M176 161H64v-2h112v2Z" clip-rule="evenodd"/><path fill="var(--illustration-primary)" d="M176 40c-7.19-23.13-29.53-40-56-40S71.19 16.87 64 40h112Z"/><path fill="var(--illustration-accent-1)" d="m112 152 56-80h-56v80Z"/><path fill="var(--illustration-black)" d="M112 128v24l16.8-24H112Z"/><path fill="var(--illustration-accent-1)" d="M128 16 72 96h56V16Z"/><path fill="var(--illustration-black)" d="M128.002 47.9v-7.97h-16.75l-5.58 7.97h22.33Z"/><path fill="var(--illustration-black)" d="M128.003 40V16l-16.8 24h16.8Z"/><path fill="var(--illustration-positive)" d="M207.872 112c-4.23 0-8.28 1.69-11.27 4.69-2.99 3-4.67 7.07-4.67 11.31 0-4.24-1.68-8.31-4.67-11.31s-7.04-4.69-11.27-4.69c4.23 0 8.28-1.69 11.27-4.69 2.99-3 4.67-7.07 4.67-11.31 0 4.24 1.68 8.31 4.67 11.31s7.04 4.69 11.27 4.69ZM63.997 64c-4.23 0-8.28 1.69-11.27 4.69-2.99 3-4.67 7.07-4.67 11.31 0-4.24-1.68-8.31-4.67-11.31S36.347 64 32.117 64c4.23 0 8.28-1.69 11.27-4.69 2.99-3 4.67-7.07 4.67-11.31 0 4.24 1.68 8.31 4.67 11.31S59.767 64 63.997 64Z"/><path fill="var(--illustration-gray)" d="M191.514 60.97c-2.11 0-4.14.84-5.63 2.34a8.04 8.04 0 0 0-2.33 5.66c0-2.12-.84-4.16-2.33-5.66a7.938 7.938 0 0 0-5.63-2.34c2.11 0 4.14-.84 5.63-2.34a8.04 8.04 0 0 0 2.33-5.66c0 2.12.84 4.16 2.33 5.66a7.938 7.938 0 0 0 5.63 2.34ZM87.998 112c-2.11 0-4.14.84-5.63 2.34a8.04 8.04 0 0 0-2.33 5.66c0-2.12-.84-4.16-2.33-5.66a7.938 7.938 0 0 0-5.63-2.34c2.11 0 4.14-.84 5.63-2.34a8.04 8.04 0 0 0 2.33-5.66c0 2.12.84 4.16 2.33 5.66a7.938 7.938 0 0 0 5.63 2.34Z"/><path fill="var(--illustration-black)" fill-rule="evenodd" d="M45.998 191.84a2.81 2.81 0 1 0 0 5.62 2.81 2.81 0 0 0 0-5.62Zm-4.81 2.81a4.81 4.81 0 1 1 9.619 0 4.81 4.81 0 0 1-9.62 0Zm151.895-2.81a2.81 2.81 0 1 0 .001 5.621 2.81 2.81 0 0 0-.001-5.621Zm-4.81 2.81a4.81 4.81 0 1 1 9.62 0 4.81 4.81 0 0 1-9.62 0Z" clip-rule="evenodd"/><path fill="var(--illustration-black)" d="M161.973 227.53a2.66 2.66 0 1 0 0-5.32 2.66 2.66 0 0 0 0 5.32Zm17.757 0a2.66 2.66 0 1 0 0-5.32 2.66 2.66 0 0 0 0 5.32Zm17.75 0a2.66 2.66 0 1 0 0-5.32 2.66 2.66 0 0 0 0 5.32Zm-155.976 0a2.66 2.66 0 1 0 0-5.32 2.66 2.66 0 0 0 0 5.32Zm17.758 0a2.66 2.66 0 1 0 0-5.32 2.66 2.66 0 0 0 0 5.32Zm17.75 0a2.66 2.66 0 1 0 0-5.32 2.66 2.66 0 0 0 0 5.32Zm8.195-53.97a2.66 2.66 0 1 0 0-5.32 2.66 2.66 0 0 0 0 5.32Zm69.391 0a2.66 2.66 0 1 0 0-5.318 2.66 2.66 0 0 0 0 5.318ZM85.207 32.87a2.66 2.66 0 1 0 0-5.32 2.66 2.66 0 0 0 0 5.32Zm69.391 0a2.66 2.66 0 1 0 0-5.319 2.66 2.66 0 0 0 0 5.319Z"/><path fill="var(--illustration-black)" fill-rule="evenodd" d="M99.58 159.83v5.41c0 11.073 8.707 20.105 19.65 20.626V160h2v25.866c10.943-.521 19.65-9.553 19.65-20.626v-5.41h2v5.41c0 12.177-9.602 22.105-21.65 22.628v8.512H144v2h-22.77V208h-2v-9.62H96v-2h23.23v-8.512c-12.048-.523-21.65-10.451-21.65-22.628v-5.41h2ZM207.489 240h-175.7v-2h175.7v2Z" clip-rule="evenodd"/></svg>