<svg xmlns="http://www.w3.org/2000/svg" fill="none" viewBox="0 0 240 240"><path fill="var(--illustration-gray)" fill-rule="evenodd" d="M66.256 66.256C52.508 80.004 44 98.976 44 120H0c0-33.177 13.492-63.205 35.144-84.856z" clip-rule="evenodd"/><path fill="var(--illustration-gray)" fill-rule="evenodd" d="M120 44c21.024 0 39.995 8.508 53.744 22.256C187.492 80.005 196 98.976 196 120s-8.508 39.995-22.256 53.744C159.995 187.492 141.024 196 120 196v12c-24.299 0-46.257-9.799-62.156-25.784l-.03-.03-.03-.03C41.8 166.257 32 144.299 32 120H0c0 33.086 13.388 63.116 35.186 84.814C56.884 226.612 86.914 240 120 240c33.176 0 63.205-13.492 84.856-35.144C226.508 183.205 240 153.176 240 120s-13.492-63.205-35.144-84.856C183.205 13.492 153.176 0 120 0z" clip-rule="evenodd"/><path fill="var(--illustration-gray)" fill-rule="evenodd" d="M152 120c0-8.218-3.158-16.445-9.356-22.644l31.112-31.112C188.558 81.045 196 100.618 196 120c0 19.444-7.481 38.854-22.17 53.682l-.073.075-.075.073C158.854 188.519 139.444 196 120 196v-44c8.125 0 16.283-3.094 22.643-9.357C148.906 136.283 152 128.125 152 120M97.357 97.357C103.717 91.094 111.875 88 120 88V44c-19.444 0-38.854 7.481-53.682 22.17l-.075.073-.073.075C51.481 81.146 44 100.556 44 120h44c0-8.125 3.094-16.283 9.357-22.643" clip-rule="evenodd"/><path fill="var(--illustration-invert)" fill-rule="evenodd" d="M119.999 23c-26.823 0-51.072 10.887-68.593 28.407l-1.414-1.414C67.872 32.113 92.623 21 120 21z" clip-rule="evenodd"/><path fill="var(--illustration-invert)" fill-rule="evenodd" d="M120 33c-48.048 0-87 38.952-87 87h-2c0-49.152 39.848-89 89-89s89 39.848 89 89h-2c0-48.048-38.952-87-87-87m-86.797 87c0 48.048 38.952 87 87 87s87-38.952 87-87h2c0 49.152-39.848 89-89 89s-89-39.848-89-89z" clip-rule="evenodd"/><path fill="var(--illustration-invert)" fill-rule="evenodd" d="M169.797 122c0 28.152-22.848 51-51 51v-2c27.048 0 49-21.952 49-49zM81 120c0 21.548 17.452 39 39 39v2c-22.652 0-41-18.348-41-41zm-28 0c0 37.048 29.952 67 67 67v2c-38.152 0-69-30.848-69-69zm67.003-107c-58.948 0-106.8 47.852-106.8 106.8h-2c0-60.052 48.748-108.8 108.8-108.8z" clip-rule="evenodd"/><path fill="var(--illustration-primary)" d="M44 164c24.3 0 44-19.699 44-44S68.3 76 44 76 0 95.7 0 120s19.7 44 44 44"/><path fill="var(--illustration-primary)" d="M0 120c0-24.3 19.7-44 44-44s44 19.7 44 44zm196 44c24.301 0 44-19.699 44-44s-19.699-44-44-44-44 19.7-44 44 19.699 44 44 44"/><path fill="var(--illustration-black)" fill-rule="evenodd" d="M196 93c-14.912 0-27 12.088-27 27s12.088 27 27 27 27-12.088 27-27-12.088-27-27-27m-29 27c0-16.016 12.984-29 29-29s29 12.984 29 29-12.984 29-29 29-29-12.984-29-29" clip-rule="evenodd"/><path fill="var(--illustration-black)" d="M196.002 120c5.467 0 9.9-4.432 9.9-9.9 0-5.467-4.433-9.9-9.9-9.9s-9.9 4.433-9.9 9.9 4.432 9.9 9.9 9.9"/><path fill="var(--illustration-white)" d="M25.344 104.381a1.5 1.5 0 0 1 1.5-1.5h33a1.5 1.5 0 0 1 1.5 1.5v33a1.5 1.5 0 0 1-1.5 1.5h-33a1.5 1.5 0 0 1-1.5-1.5z"/><path fill="var(--illustration-black)" d="M196.003 120c-10.9 0-19.8 8.8-19.8 19.8v.1c5.1 5 12 8.2 19.8 8.2 7.7 0 14.7-3.1 19.8-8.2v-.1c0-11-8.9-19.8-19.8-19.8"/><path fill="var(--illustration-accent-1)" d="M120 196c-12.2 0-22-9.8-22-22s9.8-22 22-22"/><path fill="var(--illustration-primary)" d="M120 152c12.2 0 22 9.8 22 22s-9.8 22-22 22"/><path fill="var(--illustration-black)" fill-rule="evenodd" d="M120 161c-7.18 0-13 5.82-13 13s5.82 13 13 13 13-5.82 13-13-5.82-13-13-13m-15 13c0-8.284 6.716-15 15-15s15 6.716 15 15-6.716 15-15 15-15-6.716-15-15" clip-rule="evenodd"/><path fill="var(--illustration-primary)" d="M120 88c-12.2 0-22-9.8-22-22s9.8-22 22-22"/><path fill="var(--illustration-positive)" d="M120 44c12.2 0 22 9.8 22 22s-9.8 22-22 22"/><path fill="var(--illustration-black)" fill-rule="evenodd" d="M120 53c-7.18 0-13 5.82-13 13s5.82 13 13 13 13-5.82 13-13-5.82-13-13-13m-15 13c0-8.284 6.716-15 15-15s15 6.716 15 15-6.716 15-15 15-15-6.716-15-15" clip-rule="evenodd"/></svg>