<svg xmlns="http://www.w3.org/2000/svg" fill="none" viewBox="0 0 240 240"><path fill="var(--illustration-gray)" d="M0 25.412h48V240H0V25.412ZM56 72h48v168H56V72Zm56 40h48v128h-48V112Z"/><path fill="var(--illustration-accent-2)" d="M176 160h48v80h-48v-80Z"/><path fill="var(--illustration-accent-1)" d="M160 112c0-13.3-10.7-24-24-24s-24 10.7-24 24h48Z"/><path fill="var(--illustration-primary)" d="M112 112c0 13.3 10.7 24 24 24s24-10.7 24-24h-48Z"/><path fill="var(--illustration-accent-1)" d="M104 72c0-13.3-10.7-24-24-24S56 58.7 56 72h48Z"/><path fill="var(--illustration-primary)" d="M56 72c0 13.3 10.7 24 24 24s24-10.7 24-24H56Zm168 88c0-13.3-10.7-24-24-24s-24 10.7-24 24h48Z"/><path fill="var(--illustration-black)" d="M176 160c0 13.3 10.7 24 24 24s24-10.7 24-24h-48Z"/><path fill="var(--illustration-accent-1)" d="M48.078 24c0-13.3-10.7-24-24-24s-24 10.7-24 24h48Z"/><path fill="var(--illustration-primary)" d="M.078 24c0 13.3 10.7 24 24 24s24-10.7 24-24h-48Z"/><path fill="var(--illustration-invert)" fill-rule="evenodd" d="M193.636 199.491a41.023 41.023 0 0 0 3.903.434l.124-1.996a39.34 39.34 0 0 1-3.711-.413l-.316 1.975Zm7.829.488-.071-1.999a37.688 37.688 0 0 0 3.715-.315l.267 1.982a39.807 39.807 0 0 1-3.911.332Zm7.771-1.048-.461-1.946a37.478 37.478 0 0 0 3.58-1.039l.652 1.891c-1.233.425-2.491.79-3.771 1.094Zm7.415-2.553-.834-1.818a38.126 38.126 0 0 0 3.31-1.72l1.008 1.728a40.309 40.309 0 0 1-3.484 1.81Zm6.774-3.952-1.172-1.621a38.41 38.41 0 0 0 2.914-2.33l1.324 1.499a40.338 40.338 0 0 1-3.066 2.452Zm5.878-5.191-1.464-1.363a38.139 38.139 0 0 0 2.405-2.851l1.59 1.213a39.9 39.9 0 0 1-2.531 3.001Zm4.756-6.236-1.702-1.051a37.536 37.536 0 0 0 1.8-3.265l1.797.878a39.593 39.593 0 0 1-1.895 3.438Zm3.442-7.046-1.875-.696c.43-1.157.805-2.343 1.123-3.555l1.935.508a39.922 39.922 0 0 1-1.183 3.743Zm1.993-7.585-1.975-.317a38.328 38.328 0 0 0 .413-3.711l1.996.125a40.907 40.907 0 0 1-.434 3.903Zm.488-7.829-1.999.07a37.688 37.688 0 0 0-.315-3.715l1.982-.267c.174 1.288.285 2.593.332 3.912Zm-1.048-7.772-1.946.462a37.786 37.786 0 0 0-1.038-3.581l1.891-.651c.424 1.232.79 2.49 1.093 3.77Zm-2.553-7.415-1.818.834a38.1 38.1 0 0 0-1.719-3.309l1.727-1.008a39.87 39.87 0 0 1 1.81 3.483Zm-3.952-6.774-1.621 1.172a37.92 37.92 0 0 0-2.33-2.914l1.499-1.324a40.338 40.338 0 0 1 2.452 3.066Zm-5.191-5.878-1.363 1.464a38.139 38.139 0 0 0-2.851-2.405l1.213-1.59a40.38 40.38 0 0 1 3.001 2.531Zm-6.235-4.756-1.051 1.702a37.684 37.684 0 0 0-3.265-1.8l.878-1.797a39.89 39.89 0 0 1 3.438 1.895Zm-7.047-3.442-.696 1.875a37.87 37.87 0 0 0-3.555-1.123l.508-1.935a39.83 39.83 0 0 1 3.743 1.183Zm-7.585-1.993a41.2 41.2 0 0 0-3.903-.434l-.125 1.996a39.498 39.498 0 0 1 3.711.413l.317-1.975Zm-7.829-.488.071 1.999c-1.253.044-2.492.15-3.716.315l-.267-1.982a39.828 39.828 0 0 1 3.912-.332Zm-7.772 1.048.462 1.946c-1.215.288-2.41.635-3.581 1.039l-.651-1.891a39.54 39.54 0 0 1 3.77-1.094Zm-7.414 2.553.834 1.818a37.983 37.983 0 0 0-3.31 1.72l-1.008-1.728a40.164 40.164 0 0 1 3.484-1.81Zm-6.774 3.952 1.171 1.621a38.147 38.147 0 0 0-2.913 2.33l-1.324-1.499a40.142 40.142 0 0 1 3.066-2.452Zm-5.878 5.191 1.463 1.363a37.888 37.888 0 0 0-2.404 2.851l-1.591-1.213a40.152 40.152 0 0 1 2.532-3.001Zm-4.756 6.236 1.701 1.051a38.076 38.076 0 0 0-1.8 3.265l-1.797-.878a39.87 39.87 0 0 1 1.896-3.438Zm-3.442 7.046 1.875.696a37.583 37.583 0 0 0-1.124 3.555l-1.934-.508c.335-1.276.73-2.525 1.183-3.743Zm-1.993 7.585 1.974.317a38.328 38.328 0 0 0-.412 3.711l-1.997-.125a39.934 39.934 0 0 1 .435-3.903Zm-.488 7.829 1.998-.07c.045 1.252.151 2.492.315 3.715l-1.982.267a39.802 39.802 0 0 1-.331-3.912Zm1.047 7.772 1.946-.462a37.79 37.79 0 0 0 1.039 3.581l-1.891.651a39.663 39.663 0 0 1-1.094-3.77Zm2.554 7.415 1.817-.834a38.108 38.108 0 0 0 1.72 3.309l-1.727 1.008a40.012 40.012 0 0 1-1.81-3.483Zm3.951 6.774 1.621-1.172a38.608 38.608 0 0 0 2.33 2.914l-1.499 1.323a40.371 40.371 0 0 1-2.452-3.065Zm5.192 5.878 1.362-1.464a38.155 38.155 0 0 0 2.852 2.405l-1.213 1.59a40.176 40.176 0 0 1-3.001-2.531Zm6.235 4.756 1.051-1.702a37.684 37.684 0 0 0 3.265 1.8l-.878 1.797a39.593 39.593 0 0 1-3.438-1.895Zm7.046 3.442.696-1.875c1.157.429 2.343.805 3.556 1.123l-.508 1.935a40.24 40.24 0 0 1-3.744-1.183ZM200.602 0v103.513h-2V0h2Z" clip-rule="evenodd"/><path fill="var(--illustration-invert)" fill-rule="evenodd" d="m187.719 94.446 1.351-1.474 10.521 9.644 9.614-9.614 1.415 1.414-10.969 10.968-11.932-10.938Z" clip-rule="evenodd"/><path fill="var(--illustration-white)" d="M188 160c6.627 0 12-5.373 12-12 0 6.627 5.373 12 12 12-6.627 0-12 5.373-12 12 0-6.627-5.373-12-12-12Z"/></svg>