<svg xmlns="http://www.w3.org/2000/svg" fill="none" viewBox="0 0 240 241"><path fill="var(--illustration-gray)" d="M0 0h56v32h96v56H56v32h33.019A27.871 27.871 0 0 0 84 136a27.87 27.87 0 0 0 5.019 16H56v24h152v64H0V0Z"/><path fill="var(--illustration-gray)" d="M124 60c0-15.464 12.536-28 28-28s28 12.536 28 28-12.536 28-28 28-28-12.536-28-28Z"/><path fill="var(--illustration-primary)" d="M0 32.135h56v56H0v-56Z"/><path fill="var(--illustration-invert)" fill-rule="evenodd" d="M16 25H0v-2h16v2Zm0 96H0v-2h16v2Zm0-48H0v-2h16v2Zm0 96H0v-2h16v2Zm0-120H0v-2h16v2Z" clip-rule="evenodd"/><path fill="var(--illustration-invert)" fill-rule="evenodd" d="M16 25H0v-2h16v2Z" clip-rule="evenodd"/><path fill="var(--illustration-primary)" d="M56 176v64H0v-64h56Z"/><path fill="var(--illustration-invert)" fill-rule="evenodd" d="M16 145H0v-2h16v2Zm0-48H0v-2h16v2Zm0 96H0v-2h16v2Zm0 24H0v-2h16v2Z" clip-rule="evenodd"/><path fill="var(--illustration-primary)" fill-rule="evenodd" d="M151.976 32H152v56c-15.464 0-28-12.536-28-28 0-15.456 12.523-27.987 27.976-28Z" clip-rule="evenodd"/><path fill="var(--illustration-white)" d="M130 60.135c0-12.15 9.85-22 22-22s22 9.85 22 22-9.85 22-22 22-22-9.85-22-22Z"/><path fill="var(--illustration-invert)" fill-rule="evenodd" d="M152 26c-18.778 0-34 15.222-34 34s15.222 34 34 34 34-15.222 34-34-15.222-34-34-34Zm0-2c-19.882 0-36 16.118-36 36s16.118 36 36 36 36-16.118 36-36-16.118-36-36-36Z" clip-rule="evenodd"/><path fill="var(--illustration-negative)" d="M88 136c0 13.255 10.745 24 24 24s24-10.745 24-24-10.745-24-24-24-24 10.745-24 24Z"/><path fill="var(--illustration-black)" d="M113 143h-2l-2-22h6l-2 22Zm-.997 8c1.667 0 3-1.333 3-3s-1.333-3-3-3c-1.666 0-3 1.333-3 3-.083 1.667 1.334 3 3 3Z"/><path fill="var(--illustration-gray)" d="M176 208.135c0 17.673 14.327 32 32 32 17.673 0 32-14.327 32-32 0-17.673-14.327-32-32-32-17.673 0-32 14.327-32 32Z"/><path fill="var(--illustration-primary)" fill-rule="evenodd" d="M208 176.272c-.131-.002-.263-.002-.395-.002-17.455 0-31.605 14.296-31.605 31.932 0 17.583 14.065 31.847 31.448 31.933h.314l.238-.002v-63.861Z" clip-rule="evenodd"/><path fill="var(--illustration-black)" fill-rule="evenodd" d="M208 230c-12.15 0-22-9.85-22-22s9.85-22 22-22 22 9.85 22 22-9.85 22-22 22Zm0 2c-13.255 0-24-10.745-24-24s10.745-24 24-24 24 10.745 24 24-10.745 24-24 24ZM151 42h2v18.125l15.773 19.241-1.546 1.268L151 60.84V42Z" clip-rule="evenodd"/></svg>