<svg xmlns="http://www.w3.org/2000/svg" fill="none" viewBox="0 0 241 240"><g clip-path="url(#a)"><path fill="var(--illustration-positive)" d="M240.997 216H.297v24h240.7z"/><path fill="var(--illustration-gray)" d="M60.3 0H28.5v88h31.8zm127.997 0h-32v88h32zm-96 0h-16v88h16zm128 0h-8v88h8zm-204 88 7.9 40 8 40 7.9 40h164.2l8-40 8-40 8-40z"/><path fill="var(--illustration-black)" d="M60.297 88h-32a31.999 31.999 0 0 0 54.627 22.627A32 32 0 0 0 92.297 88z"/><path fill="var(--illustration-primary)" d="M60.297 56a32 32 0 0 0-32 32h64a32 32 0 0 0-32-32"/><path fill="var(--illustration-black)" fill-rule="evenodd" d="M83.297 88a23 23 0 0 0-23-23v-2a25 25 0 0 1 25 25zm-23-23a22.937 22.937 0 0 0-23 23h-2a24.94 24.94 0 0 1 25-25zm-23 23a22.998 22.998 0 0 0 39.263 16.263A23 23 0 0 0 83.297 88h2a25.002 25.002 0 0 1-42.678 17.678A25 25 0 0 1 35.297 88z" clip-rule="evenodd"/><path fill="var(--illustration-primary)" d="M124.297 88h-32a32 32 0 0 0 64 0z"/><path fill="var(--illustration-positive)" d="M124.297 56a32.003 32.003 0 0 0-32 32h64a32.003 32.003 0 0 0-32-32"/><path fill="var(--illustration-black)" fill-rule="evenodd" d="M147.297 88a23 23 0 0 0-23-23v-2a25.003 25.003 0 0 1 25 25zm-23-23a22.94 22.94 0 0 0-21.265 14.189A22.9 22.9 0 0 0 101.297 88h-2a24.94 24.94 0 0 1 25-25zm-23 23a22.999 22.999 0 1 0 46 0h2c0 6.63-2.634 12.989-7.322 17.678a25.004 25.004 0 0 1-35.356 0A25 25 0 0 1 99.297 88z" clip-rule="evenodd"/><path fill="var(--illustration-primary)" d="M188.297 88h-32a31.999 31.999 0 1 0 64 0z"/><path fill="var(--illustration-accent-2)" d="M188.297 56a32.003 32.003 0 0 0-32 32h64a32 32 0 0 0-32-32"/><path fill="var(--illustration-black)" fill-rule="evenodd" d="M211.297 88a23 23 0 0 0-23-23v-2a25.003 25.003 0 0 1 25 25zm-23-23a22.94 22.94 0 0 0-23 23h-2a25 25 0 0 1 25-25zm-23 23a22.999 22.999 0 1 0 46 0h2c0 6.63-2.634 12.989-7.322 17.678a25.004 25.004 0 0 1-35.356 0A25 25 0 0 1 163.297 88zm55 57h-196v-2h196z" clip-rule="evenodd"/><path fill="var(--illustration-black)" d="M72.297 228a20.06 20.06 0 0 0 20-20h-40a20.063 20.063 0 0 0 20 20"/><path fill="var(--illustration-primary)" d="M72.297 188a20.06 20.06 0 0 0-20 20 19.8 19.8 0 0 0 1.7 8h36.6a19.8 19.8 0 0 0 1.7-8 20.063 20.063 0 0 0-20-20"/><path fill="var(--illustration-black)" fill-rule="evenodd" d="M61.297 208a11 11 0 0 0 11 11v2a13 13 0 0 1-13-13zm11 11a11 11 0 0 0 11-11h2a13 13 0 0 1-13 13zm0-22a11 11 0 0 0-11 11h-2a12.999 12.999 0 0 1 22.192-9.192A13 13 0 0 1 85.297 208h-2a11 11 0 0 0-11-11" clip-rule="evenodd"/><path fill="var(--illustration-black)" d="M172.297 228a20.07 20.07 0 0 0 14.125-5.875A20.07 20.07 0 0 0 192.297 208h-40a20.063 20.063 0 0 0 20 20"/><path fill="var(--illustration-primary)" d="M172.297 188a20.063 20.063 0 0 0-20 20 19.8 19.8 0 0 0 1.7 8h36.7a19.8 19.8 0 0 0 1.7-8 20.213 20.213 0 0 0-20.1-20"/><path fill="var(--illustration-black)" fill-rule="evenodd" d="M161.297 208a11 11 0 0 0 11 11v2a13 13 0 0 1-13-13zm11 11a11 11 0 0 0 11-11h2a13 13 0 0 1-13 13zm0-22a11 11 0 0 0-11 11h-2a13 13 0 0 1 13-13 13 13 0 0 1 13 13h-2a11 11 0 0 0-11-11m16-28h-156v-2h156z" clip-rule="evenodd"/><path fill="var(--illustration-black)" fill-rule="evenodd" d="M212.297 169h-64v-2h64zm28.7 60H.297v-2h240.7z" clip-rule="evenodd"/><path fill="var(--illustration-invert)" fill-rule="evenodd" d="M125.297 0v80h-2V0z" clip-rule="evenodd"/><path fill="var(--illustration-black)" fill-rule="evenodd" d="m124.294 78.59-7.29-7.3-1.41 1.42 8.7 8.7 8.71-8.7-1.41-1.42z" clip-rule="evenodd"/><path fill="var(--illustration-black)" fill-rule="evenodd" d="M125.297 56h-2v24h2z" clip-rule="evenodd"/></g><defs><clipPath id="a"><path fill="var(--illustration-white)" d="M0 0h241v240H0z"/></clipPath></defs></svg>