<svg xmlns="http://www.w3.org/2000/svg" fill="none" viewBox="0 0 241 240"><g clip-path="url(#a)"><path fill="var(--illustration-positive)" d="M241 216H.3v24H241v-24Z"/><path fill="var(--illustration-gray)" d="M60.3 0H28.5v88h31.8V0Zm128 0h-32v88h32V0Zm-96 0h-16v88h16V0Zm128 0h-8v88h8V0Zm-204 88 7.9 40 8 40 7.9 40h164.2l8-40 8-40 8-40h-212Z"/><path fill="var(--illustration-black)" d="M60.3 88h-32a32 32 0 1 0 64 0h-32Z"/><path fill="var(--illustration-primary)" d="M60.3 56a32 32 0 0 0-32 32h64a32 32 0 0 0-32-32Z"/><path fill="var(--illustration-black)" fill-rule="evenodd" d="M83.3 88a23 23 0 0 0-23-23v-2a25 25 0 0 1 25 25h-2Zm-23-23a22.94 22.94 0 0 0-23 23h-2a24.94 24.94 0 0 1 25-25v2Zm-23 23a23 23 0 1 0 46 0h2a25 25 0 0 1-50 0h2Z" clip-rule="evenodd"/><path fill="var(--illustration-primary)" d="M124.3 88h-32a32 32 0 0 0 64 0h-32Z"/><path fill="var(--illustration-positive)" d="M124.3 56a32 32 0 0 0-32 32h64a32 32 0 0 0-32-32Z"/><path fill="var(--illustration-black)" fill-rule="evenodd" d="M147.3 88a23 23 0 0 0-23-23v-2a25 25 0 0 1 25 25h-2Zm-23-23a22.94 22.94 0 0 0-23 23h-2a24.94 24.94 0 0 1 25-25v2Zm-23 23a23 23 0 1 0 46 0h2a25 25 0 0 1-50 0h2Z" clip-rule="evenodd"/><path fill="var(--illustration-primary)" d="M188.3 88h-32a32 32 0 1 0 64 0h-32Z"/><path fill="var(--illustration-accent-2)" d="M188.3 56a32 32 0 0 0-32 32h64a32 32 0 0 0-32-32Z"/><path fill="var(--illustration-black)" fill-rule="evenodd" d="M211.3 88a23 23 0 0 0-23-23v-2a25 25 0 0 1 25 25h-2Zm-23-23a22.94 22.94 0 0 0-23 23h-2a25 25 0 0 1 25-25v2Zm-23 23a23 23 0 1 0 46 0h2a25 25 0 0 1-50 0h2Zm55 57h-196v-2h196v2Z" clip-rule="evenodd"/><path fill="var(--illustration-black)" d="M72.3 228a20.06 20.06 0 0 0 20-20h-40a20.06 20.06 0 0 0 20 20Z"/><path fill="var(--illustration-primary)" d="M72.3 188a20.06 20.06 0 0 0-20 20c0 2.76.58 5.48 1.7 8h36.6a19.8 19.8 0 0 0-4.18-22.13A20.06 20.06 0 0 0 72.3 188Z"/><path fill="var(--illustration-black)" fill-rule="evenodd" d="M61.3 208a11 11 0 0 0 11 11v2a13 13 0 0 1-13-13h2Zm11 11a11 11 0 0 0 11-11h2a13 13 0 0 1-13 13v-2Zm0-22a11 11 0 0 0-11 11h-2a13 13 0 1 1 26 0h-2a11 11 0 0 0-11-11Z" clip-rule="evenodd"/><path fill="var(--illustration-black)" d="M172.3 228a20.06 20.06 0 0 0 20-20h-40a20.06 20.06 0 0 0 20 20Z"/><path fill="var(--illustration-primary)" d="M172.3 188a20.06 20.06 0 0 0-20 20c0 2.76.58 5.48 1.7 8h36.7a19.8 19.8 0 0 0 1.7-8 20.21 20.21 0 0 0-20.1-20Z"/><path fill="var(--illustration-black)" fill-rule="evenodd" d="M161.3 208a11 11 0 0 0 11 11v2a13 13 0 0 1-13-13h2Zm11 11a11 11 0 0 0 11-11h2a13 13 0 0 1-13 13v-2Zm0-22a11 11 0 0 0-11 11h-2a13 13 0 0 1 26 0h-2a11 11 0 0 0-11-11Zm16-28h-156v-2h156v2Z" clip-rule="evenodd"/><path fill="var(--illustration-black)" fill-rule="evenodd" d="M212.3 169h-64v-2h64v2Zm28.7 60H.3v-2H241v2Z" clip-rule="evenodd"/><path fill="var(--illustration-invert)" fill-rule="evenodd" d="M125.3 0v80h-2V0h2Z" clip-rule="evenodd"/><path fill="var(--illustration-black)" fill-rule="evenodd" d="m124.3 78.59-7.3-7.3-1.4 1.42 8.7 8.7 8.7-8.7-1.4-1.42-7.3 7.3Z" clip-rule="evenodd"/><path fill="var(--illustration-black)" fill-rule="evenodd" d="M125.3 56h-2v24h2V56Z" clip-rule="evenodd"/></g><defs><clipPath id="a"><path fill="var(--illustration-white)" d="M0 0h241v240H0z"/></clipPath></defs></svg>