<svg xmlns="http://www.w3.org/2000/svg" fill="none" viewBox="0 0 240 240"><path fill="var(--illustration-black)" fill-rule="evenodd" d="M62 192.66a13 13 0 1 0 0 26 13 13 0 0 0 0-26Zm-15 13a15 15 0 1 1 30 0 15 15 0 0 1-30 0Z" clip-rule="evenodd"/><path fill="var(--illustration-gray)" d="M224 88.06H69.64a8 8 0 0 0-8 8v104a8 8 0 0 0 8 8H224a8 8 0 0 0 8-8v-104a8 8 0 0 0-8-8Zm8 79.95h8v-40h-8v40Z"/><path fill="var(--illustration-accent-1)" d="M184.08 45.73 35.3 92.64a8 8 0 0 0-5.22 10.04l31.27 99.18a8 8 0 0 0 10.04 5.23l148.78-46.91a8 8 0 0 0 5.22-10.04l-31.27-99.18a8 8 0 0 0-10.04-5.23Z"/><path fill="var(--illustration-positive)" d="M129.87 17.44 3.52 108.94a8 8 0 0 0-1.79 11.17l61 84.23a8 8 0 0 0 11.17 1.79l126.35-91.5a8 8 0 0 0 1.79-11.17l-61-84.24a8 8 0 0 0-11.17-1.78Z"/><path fill="var(--illustration-primary)" fill-rule="evenodd" d="M232 148v-20h-32.07A19.93 19.93 0 0 0 180 148h39.39v.05l-39.39-.04v.12a19.85 19.85 0 0 0 12.3 18.37c2.42 1 5.01 1.51 7.63 1.51H232V148Z" clip-rule="evenodd"/><path fill="var(--illustration-primary)" d="m164.53 51.9-129 40.67a8 8 0 0 0-5.23 10l31.27 99.2a8 8 0 0 0 10 5.22l1.84-.58.36-.24 126.35-91.5a8 8 0 0 0 1.79-11.17l-37.38-51.6Z"/><path fill="var(--illustration-primary)" d="m225.6 150.07-19.56-62H69.64a8 8 0 0 0-8 8v104c0 1.47.4 2.9 1.17 4.14a8 8 0 0 0 8.78 2.82l148.78-46.9a7.98 7.98 0 0 0 5.22-10.06Z"/><path fill="var(--illustration-black)" d="M180 148v.12a19.93 19.93 0 0 0 16.26 19.58l24.11-7.6a8 8 0 0 0 5.22-10l-6.94-22h-18.72A19.93 19.93 0 0 0 180 148Z"/><path fill="var(--illustration-accent-1)" d="M200 160.11a12 12 0 1 0 0-24 12 12 0 0 0 0 24Z"/><path fill="var(--illustration-black)" d="m73.8 206.2 126.34-91.5a8 8 0 0 0 1.8-11.17l-11.22-15.47H69.64a8 8 0 0 0-8 8v104c0 1.47.4 2.9 1.17 4.14a8.12 8.12 0 0 0 3.81 2.74h.1c.35.11.71.2 1.08.27h.15c.33.06.67.09 1 .1h.12c.37 0 .73-.02 1.1-.07h.24c.38-.06.75-.14 1.11-.25l1.84-.58.43-.2Z"/><path fill="var(--illustration-invert-2)" d="M72 199.66a4 4 0 1 0 0-8 4 4 0 0 0 0 8Z"/><path fill="var(--illustration-invert)" fill-rule="evenodd" d="M62 192.66a13 13 0 1 0 0 26 13 13 0 0 0 0-26Zm-15 13a15 15 0 1 1 30 0 15 15 0 0 1-30 0Z" clip-rule="evenodd"/></svg>