<svg xmlns="http://www.w3.org/2000/svg" fill="none" viewBox="0 0 240 240"><path fill="var(--illustration-accent-2)" d="M180 60H60v120h120z"/><path fill="var(--illustration-gray)" d="M180 0c-33.1 0-60 26.9-60 60s26.9 60 60 60 60-26.9 60-60-26.9-60-60-60M60 120c-33.1 0-60 26.9-60 60s26.9 60 60 60 60-26.9 60-60-26.9-60-60-60"/><path fill="var(--illustration-primary)" d="M60 120v60h60c0-33.1-26.9-60-60-60m120 0V60h-60c0 33.1 26.9 60 60 60"/><path fill="var(--illustration-accent-2)" d="M60 0C26.9 0 0 26.9 0 60s26.9 60 60 60 60-26.9 60-60S93.1 0 60 0"/><path fill="var(--illustration-black)" fill-rule="evenodd" d="M60 13c-25.957 0-47 21.043-47 47s21.043 47 47 47 47-21.043 47-47-21.043-47-47-47M11 60c0-27.062 21.938-49 49-49s49 21.938 49 49-21.938 49-49 49-49-21.938-49-49m169-47c-25.957 0-47 21.043-47 47s21.043 47 47 47 47-21.043 47-47-21.043-47-47-47m-49 47c0-27.062 21.938-49 49-49s49 21.938 49 49-21.938 49-49 49-49-21.938-49-49m-71 73c-25.957 0-47 21.043-47 47s21.043 47 47 47 47-21.043 47-47-21.043-47-47-47m-49 47c0-27.062 21.938-49 49-49s49 21.938 49 49-21.938 49-49 49-49-21.938-49-49" clip-rule="evenodd"/><path fill="var(--illustration-primary)" d="M120 180c0-33.1 26.9-60 60-60s60 26.9 60 60z"/><path fill="var(--illustration-accent-1)" d="M180 120v60h-60c0 33.1 26.9 60 60 60s60-26.9 60-60-26.9-60-60-60"/><path fill="var(--illustration-black)" fill-rule="evenodd" d="M180 133c-25.957 0-47 21.043-47 47s21.043 47 47 47 47-21.043 47-47-21.043-47-47-47m-49 47c0-27.062 21.938-49 49-49s49 21.938 49 49-21.938 49-49 49-49-21.938-49-49" clip-rule="evenodd"/></svg>