<svg xmlns="http://www.w3.org/2000/svg" fill="none" viewBox="0 0 240 240"><path fill="var(--illustration-gray)" d="M216 152H24v16h192v-16Zm0-64H24V72h192v16Zm-8 88H32v64h176v-64Zm0-112H32V0h176v64Zm32 24H0v64h240V88Z"/><path fill="var(--illustration-primary)" d="M24 88v64h192V88H24Z"/><path fill="var(--illustration-white)" d="M88 112h120v16H88v-16Z"/><path fill="var(--illustration-invert-2)" d="M80 120c0 11.046-8.954 20-20 20s-20-8.954-20-20 8.954-20 20-20 20 8.954 20 20Z"/><path fill="var(--illustration-invert)" fill-rule="evenodd" d="M72 120c0 6.627-5.373 12-12 12s-12-5.373-12-12 5.373-12 12-12 12 5.373 12 12Zm-2.05 1c-.501 5.053-4.765 9-9.95 9-5.523 0-10-4.477-10-10 0-5.185 3.947-9.449 9-9.951V121h10.95Zm0-2H61v-8.951A10.004 10.004 0 0 1 69.95 119Z" clip-rule="evenodd"/><path fill="var(--illustration-black)" fill-rule="evenodd" d="M168 121H96v-2h72v2Zm8-2h24v2h-24v-2ZM72 32c0 6.627-5.373 12-12 12s-12-5.373-12-12 5.373-12 12-12 12 5.373 12 12Zm-2.05 1c-.501 5.053-4.765 9-9.95 9-5.523 0-10-4.477-10-10 0-5.185 3.947-9.449 9-9.95V33h10.95Zm0-2H61v-8.95A10.003 10.003 0 0 1 69.95 31ZM152 28H88v-2h64v2Zm48 0h-32v-2h32v2Zm-72 10H88v-2h40v2Zm24 0h-16v-2h16v2Zm40 0h-24v-2h24v2ZM72 208c0 6.627-5.373 12-12 12s-12-5.373-12-12 5.373-12 12-12 12 5.373 12 12Zm-2.05 1c-.501 5.053-4.765 9-9.95 9-5.523 0-10-4.477-10-10 0-5.185 3.947-9.449 9-9.951V209h10.95Zm0-2H61v-8.951A10.004 10.004 0 0 1 69.95 207Zm82.05-3H88v-2h64v2Zm48 0h-32v-2h32v2Zm-72 10H88v-2h40v2Zm24 0h-16v-2h16v2Zm40 0h-24v-2h24v2Z" clip-rule="evenodd"/><path fill="var(--illustration-accent-1)" d="M96 100h16l-8 8-8-8Zm0 40h16l-8-8-8 8Z"/></svg>