<svg xmlns="http://www.w3.org/2000/svg" fill="none" viewBox="0 0 240 241"><path fill="var(--illustration-gray)" d="M.31 216h239.37v24.58H.31z"/><path fill="var(--illustration-accent-1)" d="M80 24h144v88c0 8.837-7.163 16-16 16H80z"/><path fill="var(--illustration-accent-2)" d="M16 16c0-8.837 7.163-16 16-16h128v88c0 8.837-7.163 16-16 16H16z"/><path fill="var(--illustration-black)" fill-rule="evenodd" d="M69 29H29v-2h40zm0 12H29v-2h40zm0 12H29v-2h40zm0 12H29v-2h40z" clip-rule="evenodd"/><path fill="var(--illustration-primary)" d="M80 40c0-8.837 7.163-16 16-16h64v64c0 8.837-7.163 16-16 16H80z"/><path fill="var(--illustration-accent-1)" d="M176 128h24l-12 16z"/><path fill="var(--illustration-accent-2)" d="M40 104h24l-12 16z"/><path fill="var(--illustration-white)" d="M112 64a4 4 0 1 1-8 0 4 4 0 0 1 8 0m12 0a4 4 0 1 1-8 0 4 4 0 0 1 8 0m12 0a4 4 0 1 1-8 0 4 4 0 0 1 8 0"/><path fill="var(--illustration-black)" fill-rule="evenodd" d="M212 69h-40v-2h40zm0 12h-40v-2h40zm0 12h-40v-2h40zm0 12h-40v-2h40z" clip-rule="evenodd"/><circle cx="188" cy="172" r="20" fill="var(--illustration-accent-2)"/><circle cx="52" cy="148" r="20" fill="var(--illustration-positive)"/><path fill="var(--illustration-positive)" d="M32 196c0-11.046 8.954-20 20-20s20 8.954 20 20v44H32z"/><path fill="var(--illustration-primary)" fill-rule="evenodd" d="M72 216v24H32v-24z" clip-rule="evenodd"/><path fill="var(--illustration-accent-2)" d="M168 220c0-11.046 8.954-20 20-20s20 8.954 20 20v20h-40z"/><path fill="var(--illustration-primary)" fill-rule="evenodd" d="M168.4 216c-.262 1.292-.4 2.63-.4 4v20h40v-20c0-1.37-.138-2.708-.4-4z" clip-rule="evenodd"/><path fill="var(--illustration-invert)" fill-rule="evenodd" d="M131.266 207.999h4.822v2h-4.822z" clip-rule="evenodd"/><path fill="var(--illustration-primary)" d="M136 204c0 3.183-1.264 6.235-3.515 8.485a11.996 11.996 0 0 1-16.97 0A12 12 0 0 1 112 204z"/><path fill="var(--illustration-primary)" d="M112 200h24v4.28h-24z"/><path fill="var(--illustration-invert)" fill-rule="evenodd" d="M136 207.998h1a3 3 0 0 0 2.121-.879 2.99 2.99 0 0 0 .651-3.269 3 3 0 0 0-1.624-1.624 3 3 0 0 0-1.148-.228h-1v-2h1a4.999 4.999 0 0 1 1.913 9.619 5 5 0 0 1-1.913.381h-1z" clip-rule="evenodd"/></svg>