<svg xmlns="http://www.w3.org/2000/svg" fill="none" viewBox="0 0 240 240"><path fill="var(--illustration-gray)" d="M91 55h112v185h-24V103h-8v137h-8V100h-32v140h-8V89h-8v151h-8V135h-8v105h-8z"/><path fill="var(--illustration-gray)" d="M99 135.028H27V240h27v-98.61h18V240h27z"/><path fill="var(--illustration-accent-1)" d="M203 56c0 30.928-25.072 56-56 56S91 86.928 91 56s25.072-56 56-56 56 25.072 56 56"/><path fill="var(--illustration-accent-2)" d="M99 208a8 8 0 0 1 8-7.999A8 8 0 0 1 99 192a8 8 0 0 1-8 8.001A8 8 0 0 1 99 208"/><path fill="var(--illustration-primary)" fill-rule="evenodd" d="M99 192.115V208a8 8 0 0 0-8-7.999 8 8 0 0 0 8-7.886" clip-rule="evenodd"/><path fill="var(--illustration-accent-2)" d="M43 48a8 8 0 0 1 8-8 8 8 0 0 1-8-8 8 8 0 0 1-8 8 8 8 0 0 1 8 8"/><path fill="var(--illustration-accent-1)" d="M8 190.5a8 8 0 0 1 8-7.999 8 8 0 0 1-8-8.001 8 8 0 0 1-8 8.001 8 8 0 0 1 8 7.999"/><path fill="var(--illustration-accent-2)" d="M231.999 224a8 8 0 0 1 8.001-7.999 8 8 0 0 1-8.001-8.001 8 8 0 0 1-7.999 8.001 8 8 0 0 1 7.999 7.999"/><path fill="var(--illustration-positive)" d="M218.999 80A8 8 0 0 1 227 72a8 8 0 0 1-8.001-8A8 8 0 0 1 211 72a8 8 0 0 1 7.999 8"/><path fill="var(--illustration-accent-1)" d="M202.998 144c0-13.257 10.745-23.998 24.002-23.998-13.257 0-24.002-10.745-24.002-24.002 0 13.257-10.746 24.002-23.998 24.002 13.252 0 23.998 10.741 23.998 23.998"/><path fill="var(--illustration-primary)" fill-rule="evenodd" d="M203 96.345v47.31q-.003.173-.002.345c0-13.257-10.746-23.998-23.998-23.998 13.252 0 23.998-10.745 23.998-24.002z" clip-rule="evenodd"/><circle cx="147" cy="56" r="56" fill="#D69900"/><path fill="var(--illustration-white)" d="M116.664 56h23.333l7 23.333h-37.333zM154 56h23.333l7 23.333H147zm-18.664-28h23.333l7 23.333h-37.333z"/><circle cx="67" cy="136" r="40" fill="#636363"/><path fill="var(--illustration-white)" d="m66.983 112.774 12.56 24.461c8.106 17.432-15.69 30.274-25.115 13.553-2.244-4.374-2.062-9.47 0-13.553l12.56-24.461z"/></svg>