<svg xmlns="http://www.w3.org/2000/svg" fill="none" viewBox="0 0 240 240"><path fill="var(--illustration-gray)" d="M240 0H48v156h192V0Z"/><path fill="var(--illustration-primary)" d="m144 60.8-96-48V0h192v12.8l-96 48Z"/><path fill="var(--illustration-accent-1)" fill-rule="evenodd" d="M10 84h172c5.523 0 10 4.477 10 10v116c0 5.523-4.477 10-10 10h-66l-20 20-20-20H10c-5.523 0-10-4.477-10-10V94c0-5.523 4.477-10 10-10Z" clip-rule="evenodd"/><path fill="var(--illustration-primary)" d="M183.62 84H48v72h144V92.38a8.4 8.4 0 0 0-8.38-8.38Z"/><path fill="var(--illustration-gray)" d="M48 128v28h28a28 28 0 0 0-28-28Z"/><path fill="var(--illustration-white)" d="M48 156v-28a28 28 0 1 0 28 28H48Zm72-64a28 28 0 1 0 0 56 28 28 0 0 0 0-56Z"/><path fill="var(--illustration-black)" fill-rule="evenodd" d="M136.707 108.707 113.5 131.914l-9.457-9.457 1.414-1.414 8.043 8.043 21.793-21.793 1.414 1.414Z" clip-rule="evenodd"/><path fill="var(--illustration-white)" d="M192 112c15.464 0 28-12.536 28-28s-12.536-28-28-28-28 12.536-28 28 12.536 28 28 28Z"/><path fill="var(--illustration-accent-1)" d="M182 84h-18a28 28 0 0 0 28 28V94a10.001 10.001 0 0 0-10-10Z"/></svg>