<svg xmlns="http://www.w3.org/2000/svg" fill="none" viewBox="0 0 243 243"><path fill="var(--illustration-invert)" d="M98.9 170.81h48.03v13.32H98.9z"/><path fill="var(--illustration-gray)" d="M98.898 240.17h48.034v-40.028H98.898z"/><circle cx="122.92" cy="120.08" r="64.05" fill="var(--illustration-accent-2)"/><path fill="var(--illustration-invert)" fill-rule="evenodd" d="M240.926 120.125c0-.644-.005-1.288-.015-1.931l2.001-.032c.01.654.016 1.309.015 1.964l-2.001-.001Zm-.14-5.791a120.515 120.515 0 0 0-.251-3.853l1.994-.163c.107 1.303.192 2.61.256 3.919l-1.999.097Zm-.629-7.697a116.767 116.767 0 0 0-.502-3.828l1.98-.293c.191 1.294.362 2.592.511 3.893l-1.989.228Zm-1.13-7.639c-.23-1.267-.481-2.53-.752-3.788l1.956-.422c.276 1.28.531 2.564.765 3.853l-1.969.357Zm-1.628-7.549a116.965 116.965 0 0 0-.998-3.73l1.925-.55c.359 1.26.697 2.524 1.015 3.794l-1.942.486Zm-2.118-7.426a118.025 118.025 0 0 0-1.24-3.657l1.885-.674c.44 1.233.861 2.473 1.261 3.72l-1.906.61Zm-2.599-7.272a118.696 118.696 0 0 0-1.477-3.569l1.837-.795c.52 1.202 1.021 2.412 1.502 3.629l-1.862.735Zm-3.069-7.087a119.381 119.381 0 0 0-1.707-3.464l1.781-.914c.598 1.166 1.176 2.34 1.735 3.523l-1.809.855Zm-3.526-6.87a119.817 119.817 0 0 0-1.93-3.345l1.717-1.029a120.824 120.824 0 0 1 1.963 3.402l-1.75.972Zm-3.968-6.625a120.417 120.417 0 0 0-2.145-3.212l1.646-1.139a123.836 123.836 0 0 1 2.181 3.267l-1.682 1.084Zm-4.393-6.352a117.847 117.847 0 0 0-2.35-3.065l1.568-1.244a118.96 118.96 0 0 1 2.39 3.117l-1.608 1.192Zm-4.799-6.05a117.16 117.16 0 0 0-2.545-2.905l1.483-1.343c.879.97 1.742 1.954 2.589 2.953l-1.527 1.294Zm-5.184-5.725a116.22 116.22 0 0 0-2.73-2.731l1.393-1.438c.94.91 1.865 1.837 2.776 2.778l-1.439 1.391Zm-5.547-5.372a118.779 118.779 0 0 0-2.903-2.547l1.295-1.526a120.91 120.91 0 0 1 2.952 2.59l-1.344 1.483Zm-5.887-4.998c-1.008-.8-2.029-1.585-3.063-2.352l1.193-1.607c1.051.78 2.089 1.578 3.114 2.392l-1.244 1.567Zm-6.202-4.602a116.986 116.986 0 0 0-3.21-2.147l1.085-1.682c1.101.71 2.189 1.438 3.265 2.183l-1.14 1.646Zm-6.489-4.188a117.398 117.398 0 0 0-3.343-1.931l.973-1.75c1.145.637 2.278 1.292 3.4 1.965l-1.03 1.716Zm-6.748-3.753a119.303 119.303 0 0 0-3.463-1.71l.856-1.808c1.185.56 2.359 1.14 3.522 1.738l-.915 1.78Zm-6.98-3.304a117.233 117.233 0 0 0-3.568-1.48l.736-1.86a117.225 117.225 0 0 1 3.628 1.504l-.796 1.836Zm-7.182-2.841a118.215 118.215 0 0 0-3.656-1.243l.613-1.905c1.245.4 2.485.822 3.718 1.264l-.675 1.884Zm-7.351-2.365a118.188 118.188 0 0 0-3.73-1l.487-1.942c1.269.318 2.533.658 3.793 1.018l-.55 1.924Zm-7.491-1.879a117.584 117.584 0 0 0-3.787-.755l.359-1.969c1.287.235 2.571.491 3.852.768l-.424 1.956Zm-7.597-1.385c-1.273-.19-2.55-.358-3.829-.505l.23-1.988c1.3.15 2.598.32 3.893.513l-.294 1.98Zm-7.672-.885a117.86 117.86 0 0 0-3.853-.254l.099-1.999c1.308.065 2.614.15 3.919.258l-.165 1.995Zm-7.713-.382c-.643-.01-1.287-.016-1.931-.016l.001-2.002c.655 0 1.309.006 1.964.017l-.034 2.001ZM122.872 240.1c-.655 0-1.31-.006-1.964-.017l.034-2.001c.643.011 1.287.017 1.931.017l-.001 2.001Zm-5.889-.146a118.934 118.934 0 0 1-3.919-.259l.164-1.994c1.282.105 2.567.19 3.854.254l-.099 1.999Zm-7.827-.645a118.04 118.04 0 0 1-3.893-.514l.294-1.979c1.272.189 2.549.357 3.828.505l-.229 1.988Zm-7.768-1.155a121.995 121.995 0 0 1-3.852-.767l.424-1.957c1.257.273 2.52.524 3.787.755l-.359 1.969Zm-7.676-1.66c-1.27-.319-2.535-.658-3.793-1.018l.55-1.925c1.238.354 2.481.688 3.73 1.001l-.487 1.942Zm-7.55-2.16c-1.247-.4-2.487-.822-3.72-1.263l.676-1.884c1.212.434 2.43.848 3.656 1.242l-.613 1.905Zm-7.394-2.648a119.888 119.888 0 0 1-3.628-1.504l.797-1.836a116.23 116.23 0 0 0 3.567 1.479l-.736 1.861Zm-7.205-3.126a120.476 120.476 0 0 1-3.521-1.738l.915-1.78c1.145.589 2.3 1.159 3.463 1.709l-.857 1.809Zm-6.984-3.591a118.38 118.38 0 0 1-3.4-1.964l1.029-1.717c1.105.663 2.22 1.307 3.344 1.932l-.973 1.749Zm-6.735-4.039a123.944 123.944 0 0 1-3.265-2.184l1.14-1.645a121.068 121.068 0 0 0 3.21 2.147l-1.085 1.682Zm-6.457-4.472a121.346 121.346 0 0 1-3.115-2.392l1.245-1.567c1.007.799 2.028 1.584 3.063 2.352l-1.193 1.607Zm-6.15-4.885a117.973 117.973 0 0 1-2.951-2.59l1.344-1.482c.953.864 1.92 1.713 2.903 2.547l-1.295 1.525Zm-5.817-5.276c-.94-.911-1.866-1.837-2.776-2.778l1.439-1.391a118.18 118.18 0 0 0 2.73 2.732l-1.393 1.437Zm-5.46-5.645a123.05 123.05 0 0 1-2.588-2.953l1.527-1.295c.832.982 1.68 1.95 2.545 2.905l-1.483 1.343Zm-5.078-5.99a120.593 120.593 0 0 1-2.39-3.117l1.608-1.191c.767 1.034 1.55 2.056 2.35 3.064l-1.568 1.244Zm-4.676-6.31a119.59 119.59 0 0 1-2.181-3.266l1.682-1.084a116.787 116.787 0 0 0 2.145 3.212l-1.646 1.138Zm-4.254-6.602a119.945 119.945 0 0 1-1.962-3.401l1.75-.972a118.598 118.598 0 0 0 1.93 3.345l-1.718 1.028Zm-3.812-6.865a120.052 120.052 0 0 1-1.736-3.523l1.81-.855c.55 1.165 1.119 2.32 1.706 3.464l-1.78.914Zm-3.356-7.101a120.245 120.245 0 0 1-1.502-3.629l1.862-.735a118.485 118.485 0 0 0 1.477 3.568l-1.837.796ZM9.9 160.478a119.496 119.496 0 0 1-1.26-3.72l1.905-.611c.393 1.224.806 2.444 1.24 3.657l-1.885.674ZM7.5 153c-.359-1.26-.697-2.525-1.015-3.794l1.942-.486c.312 1.249.645 2.492.998 3.731L7.5 153Zm-1.905-7.619c-.276-1.28-.531-2.564-.765-3.852l1.97-.358c.23 1.267.48 2.529.751 3.788l-1.956.422Zm-1.403-7.727a119.72 119.72 0 0 1-.512-3.894l1.989-.228c.146 1.279.314 2.555.502 3.829l-1.98.293Zm-.895-7.802a120.245 120.245 0 0 1-.256-3.919l2-.098c.062 1.286.146 2.571.25 3.854l-1.994.163Zm-.383-7.845c-.01-.654-.016-1.309-.015-1.963H4.9c0 .644.005 1.288.015 1.931l-2 .032Zm207.102-1.892a87.101 87.101 0 0 0-87.072-87.132l.001-2.002a89.103 89.103 0 0 1 89.073 89.134h-2.002ZM37.68 138.023a87.103 87.103 0 0 0 24.33 44.331l-1.399 1.431A89.109 89.109 0 0 1 40.221 86.9a89.103 89.103 0 0 1 18.994-29.12l1.43 1.4a87.101 87.101 0 0 0-22.965 78.843Z" clip-rule="evenodd"/><path fill="var(--illustration-invert)" fill-rule="evenodd" d="M240.928 120.085c0 .644-.005 1.288-.016 1.931l2.001.033c.011-.654.016-1.309.016-1.964h-2.001Zm-.142 5.791a117.673 117.673 0 0 1-.253 3.853l1.995.164c.107-1.304.193-2.61.257-3.919l-1.999-.098Zm-.631 7.696c-.147 1.28-.316 2.556-.504 3.829l1.979.294c.192-1.294.363-2.592.513-3.894l-1.988-.229Zm-1.133 7.639a118.49 118.49 0 0 1-.754 3.788l1.956.422c.277-1.279.532-2.563.767-3.851l-1.969-.359Zm-1.631 7.549a119.82 119.82 0 0 1-.999 3.73l1.924.549c.36-1.258.699-2.523 1.017-3.793l-1.942-.486Zm-2.12 7.425a117.336 117.336 0 0 1-1.242 3.657l1.885.674c.441-1.232.862-2.472 1.262-3.718l-1.905-.613Zm-2.602 7.271a115.42 115.42 0 0 1-1.478 3.568l1.837.796a116.808 116.808 0 0 0 1.502-3.628l-1.861-.736Zm-3.072 7.086a118.192 118.192 0 0 1-1.707 3.463l1.78.915c.598-1.165 1.177-2.34 1.737-3.522l-1.81-.856Zm-3.528 6.869a117.21 117.21 0 0 1-1.931 3.344l1.717 1.029a119.829 119.829 0 0 0 1.964-3.401l-1.75-.972Zm-3.97 6.624a114.908 114.908 0 0 1-2.146 3.211l1.646 1.139a121.824 121.824 0 0 0 2.182-3.265l-1.682-1.085Zm-4.395 6.35a119.409 119.409 0 0 1-2.351 3.064l1.568 1.244c.813-1.024 1.61-2.063 2.39-3.115l-1.607-1.193Zm-4.801 6.049a119.04 119.04 0 0 1-2.546 2.904l1.483 1.344a121.18 121.18 0 0 0 2.589-2.953l-1.526-1.295Zm-5.186 5.722c-.896.926-1.806 1.836-2.731 2.731l1.392 1.438c.94-.91 1.866-1.836 2.777-2.777l-1.438-1.392Zm-5.549 5.371a119.04 119.04 0 0 1-2.904 2.546l1.295 1.526c.998-.847 1.983-1.71 2.953-2.589l-1.344-1.483Zm-5.889 4.996c-1.008.8-2.03 1.584-3.064 2.351l1.193 1.607c1.051-.78 2.09-1.577 3.115-2.39l-1.244-1.568Zm-6.203 4.6a117.94 117.94 0 0 1-3.211 2.146l1.085 1.682c1.101-.71 2.189-1.437 3.265-2.182l-1.139-1.646Zm-6.49 4.185a121.798 121.798 0 0 1-3.344 1.931l.972 1.749a120.45 120.45 0 0 0 3.401-1.963l-1.029-1.717Zm-6.75 3.751a117.077 117.077 0 0 1-3.464 1.708l.856 1.809c1.185-.56 2.359-1.139 3.522-1.736l-.914-1.781Zm-6.981 3.302a115.5 115.5 0 0 1-3.569 1.478l.736 1.861a123.7 123.7 0 0 0 3.629-1.503l-.796-1.836Zm-7.183 2.838c-1.213.434-2.432.848-3.657 1.242l.613 1.905c1.245-.4 2.485-.821 3.719-1.262l-.675-1.885Zm-7.352 2.363c-1.239.353-2.482.687-3.73.999l.486 1.942c1.269-.318 2.534-.657 3.794-1.017l-.55-1.924Zm-7.491 1.876c-1.259.272-2.522.523-3.788.753l.359 1.97c1.287-.235 2.571-.49 3.851-.767l-.422-1.956Zm-7.598 1.383c-1.273.188-2.55.356-3.829.504l.229 1.988c1.301-.15 2.599-.321 3.894-.513l-.294-1.979Zm-7.672.882c-1.283.105-2.567.189-3.853.253l.098 1.999c1.308-.065 2.614-.15 3.919-.257l-.164-1.995Zm-7.713.379c-.644.011-1.287.016-1.931.016v2.001c.655 0 1.309-.005 1.964-.016l-.033-2.001ZM122.915.071c-.655 0-1.31.005-1.964.016l.033 2c.643-.01 1.287-.015 1.931-.015V.071Zm-5.889.144c-1.309.064-2.615.15-3.919.257l.164 1.995c1.281-.105 2.566-.19 3.853-.253l-.098-1.999Zm-7.827.642c-1.302.15-2.6.32-3.894.512l.294 1.98c1.272-.189 2.549-.357 3.829-.504l-.229-1.988Zm-7.769 1.152c-1.288.235-2.572.49-3.852.766l.423 1.957a118.49 118.49 0 0 1 3.788-.754l-.359-1.969Zm-7.676 1.658c-1.27.318-2.535.657-3.794 1.017l.55 1.924c1.238-.353 2.481-.686 3.73-1l-.486-1.94Zm-7.552 2.157c-1.246.4-2.486.821-3.719 1.262l.675 1.885c1.212-.434 2.431-.848 3.656-1.242l-.612-1.905Zm-7.394 2.645c-1.217.481-2.427.982-3.628 1.503l.796 1.837a118.014 118.014 0 0 1 3.567-1.478l-.735-1.862Zm-7.206 3.124a119.97 119.97 0 0 0-3.522 1.737l.915 1.78a118.22 118.22 0 0 1 3.463-1.708l-.856-1.809Zm-6.985 3.588c-1.144.636-2.278 1.29-3.402 1.964l1.03 1.717a117.21 117.21 0 0 1 3.344-1.931l-.972-1.75ZM57.88 19.22a119.405 119.405 0 0 0-3.265 2.182l1.139 1.646a119.116 119.116 0 0 1 3.21-2.146L57.88 19.22Zm-6.458 4.47a120.58 120.58 0 0 0-3.115 2.39l1.244 1.568c1.007-.8 2.029-1.583 3.063-2.35l-1.192-1.608Zm-6.151 4.882c-1 .847-1.983 1.71-2.953 2.59l1.344 1.482c.953-.864 1.921-1.713 2.904-2.546L45.27 28.57Zm-5.82 5.274c-.94.91-1.866 1.837-2.776 2.777l1.438 1.392c.895-.925 1.805-1.835 2.73-2.731l-1.391-1.438Zm-5.46 5.643c-.88.97-1.743 1.955-2.59 2.953l1.526 1.295c.833-.982 1.681-1.95 2.546-2.904l-1.483-1.344Zm-5.082 5.989a119.886 119.886 0 0 0-2.39 3.115l1.607 1.193a118.29 118.29 0 0 1 2.351-3.064l-1.568-1.244Zm-4.678 6.308a119.984 119.984 0 0 0-2.182 3.265l1.682 1.085a118.007 118.007 0 0 1 2.146-3.211l-1.646-1.14Zm-4.256 6.6a119.98 119.98 0 0 0-1.963 3.401l1.749.972c.626-1.126 1.27-2.24 1.93-3.344l-1.716-1.029ZM16.16 65.25a120.171 120.171 0 0 0-1.737 3.522l1.81.856c.55-1.165 1.12-2.32 1.708-3.464l-1.78-.914Zm-3.357 7.1a120.62 120.62 0 0 0-1.503 3.628l1.86.735a117.685 117.685 0 0 1 1.479-3.568l-1.836-.796Zm-2.887 7.303a120.05 120.05 0 0 0-1.262 3.72l1.905.611c.394-1.224.808-2.443 1.242-3.656l-1.885-.675ZM7.514 87.13c-.36 1.26-.699 2.525-1.017 3.794l1.942.486c.312-1.248.645-2.491 1-3.73l-1.925-.55Zm-1.909 7.62c-.276 1.28-.531 2.564-.766 3.851l1.97.359c.23-1.266.48-2.53.753-3.788l-1.957-.422ZM4.2 102.475a119.758 119.758 0 0 0-.513 3.894l1.988.229a117.2 117.2 0 0 1 .504-3.829l-1.98-.294Zm-.898 7.802a120.04 120.04 0 0 0-.257 3.919l2 .098c.062-1.286.147-2.57.252-3.853l-1.995-.164Zm-.385 7.844c-.011.655-.016 1.309-.016 1.964h2.001c0-.644.005-1.288.016-1.931l-2.001-.033Z" clip-rule="evenodd"/><path fill="var(--illustration-positive)" fill-rule="evenodd" d="M31.669 44.816a4.003 4.003 0 0 1-.89-5.59 75.463 75.463 0 0 1 10.72-11.882 75.447 75.447 0 0 1 12.974-9.368 4.003 4.003 0 0 1 3.97 6.953 67.453 67.453 0 0 0-11.6 8.375 67.448 67.448 0 0 0-9.584 10.622 4.003 4.003 0 0 1-5.59.89Zm195.741 131.53a4.004 4.004 0 0 1 1.934 5.321 75.462 75.462 0 0 1-8.276 13.697 75.474 75.474 0 0 1-10.965 11.656 4.004 4.004 0 0 1-5.214-6.075 67.414 67.414 0 0 0 9.802-10.421 67.414 67.414 0 0 0 7.399-12.245 4.002 4.002 0 0 1 5.32-1.933Z" clip-rule="evenodd"/><circle cx="60.87" cy="56.04" r="8.01" fill="var(--illustration-accent-1)" transform="rotate(90 60.871 56.04)"/><circle cx="122.92" cy="32.02" r="8.01" fill="var(--illustration-accent-1)" transform="rotate(90 122.915 32.023)"/><circle cx="146.93" cy="128.09" r="24.02" fill="var(--illustration-primary)" transform="rotate(90 146.932 128.09)"/><circle cx="146.93" cy="128.09" r="8.01" fill="var(--illustration-black)" transform="rotate(90 146.932 128.09)"/><circle cx="211.16" cy="120.08" r="8.01" fill="var(--illustration-accent-1)" transform="rotate(90 211.157 120.085)"/><circle cx="146.93" cy="128.09" r="4" fill="var(--illustration-black)" transform="rotate(90 146.932 128.09)"/><path fill="var(--illustration-primary)" d="M90.89 184.13h64.05v16.01H90.89zm-8 16.01h80.06v16.01H82.89z"/><path fill="var(--illustration-gray)" fill-rule="evenodd" d="m149.763 130.921-26.848 26.847-16.011-16.011L5.661 243 0 237.339l106.904-106.904 16.011 16.012 21.187-21.187 5.661 5.661Z" clip-rule="evenodd"/><path fill="var(--illustration-primary)" fill-rule="evenodd" d="M80.55 168.115a64.538 64.538 0 0 1-5.661-5.661l29.188-29.188 2.83-2.831 2.831 2.831 13.181 13.181 21.186-21.187 5.661 5.661-24.017 24.017-2.83 2.83-2.831-2.83-13.181-13.181-26.357 26.358Z" clip-rule="evenodd"/><path fill="var(--illustration-black)" fill-rule="evenodd" d="m127.356 142.006 16.746-16.746 5.66 5.661-16.746 16.746a24.142 24.142 0 0 1-5.66-5.661Z" clip-rule="evenodd"/><path fill="var(--illustration-invert)" d="M98.9 184.13h48.03v32.02H98.9z"/></svg>