<svg xmlns="http://www.w3.org/2000/svg" fill="none" viewBox="0 0 240 240"><path fill="var(--illustration-invert)" fill-rule="evenodd" d="m192.459 179.486-7.704 3.841-.896-1.781 7.721-3.849c7.969-3.853 17.491-2.475 24.014 3.499l1.024.937-20.989 11.503-2.89 1.583-42.9 23.502-.964-1.745 42.9-23.502 2.89-1.583 18.505-10.141c-5.856-4.636-13.905-5.552-20.711-2.264" clip-rule="evenodd"/><path fill="var(--illustration-invert)" fill-rule="evenodd" d="M213.779 201.649a20.01 20.01 0 0 0-18.495-7.897l-.246-1.977a22.01 22.01 0 0 1 21.236 9.974l.756 1.181-67.429 15.878-.46-1.939z" clip-rule="evenodd"/><path fill="var(--illustration-invert)" fill-rule="evenodd" d="M182.419 165.969 167.22 180.02l-1.361-1.46 15.2-14.051a21.65 21.65 0 0 1 24.044-3.613l1.259.603-19.921 20.193-1.132 1.143v.009l-35.226 35.693-1.427-1.397 34.653-35.111v-.011l1.707-1.723 17.924-18.169a19.65 19.65 0 0 0-20.521 3.843m-29.763-20.995-.129 1.498a24.2 24.2 0 0 1-4.745 12.461 24.3 24.3 0 0 1-10.637 8.079l-23.724 9.252 33.302 12.475-5.491 10.636-26.493-9.922c-28.128-10.532-59.777.592-75.035 26.371l-.012.02-1.723-1.01 6.58-11.124a90 90 0 0 1 46.228-38.537 69 69 0 0 1 3.434-1.2zM47.927 202.038c17.365-17.228 43.666-23.379 67.515-14.449l24.826 9.298 3.65-7.07-36.078-13.516 28.576-11.143a22.3 22.3 0 0 0 9.763-7.416 22.2 22.2 0 0 0 4.173-9.924l-55.523 18.049a67 67 0 0 0-3.34 1.168l-.01.004a88.02 88.02 0 0 0-43.552 34.999" clip-rule="evenodd"/><path fill="var(--illustration-invert)" fill-rule="evenodd" d="m156.212 170.344-9.99 19.389-4.978 9.642-26.494-9.922c-28.125-10.525-59.783.598-75.046 26.392l-13.84 23.382-1.723-1.011 13.84-23.383c15.756-26.627 48.438-38.109 77.473-27.244l24.826 9.298 4.162-8.064 9.99-19.388c3.975-7.707 12.417-12.072 21.046-10.889l1.317.18-9.339 20.968-4.15 9.31-10.239 23.014-3.034 6.826h-59.97l-12.06 20.383-1.722-1.011 12.64-21.363h59.81l2.507-5.641 10.24-23.015 4.15-9.311 8.241-18.502c-7.314-.471-14.277 3.407-17.657 9.96" clip-rule="evenodd"/><path fill="var(--illustration-primary)" d="M44 152a4 4 0 1 1-8 0 4 4 0 0 1 8 0"/><path fill="var(--illustration-accent-2)" d="M52 24a4 4 0 1 1-8 0 4 4 0 0 1 8 0m188 112a4 4 0 1 1-8 0 4 4 0 0 1 8 0"/><path fill="var(--illustration-gray)" d="M170 124a4 4 0 1 1-8 0 4 4 0 0 1 8 0M8 72a4 4 0 1 1-8 0 4 4 0 0 1 8 0M162 4a4 4 0 1 1-8 0 4 4 0 0 1 8 0"/><path fill="var(--illustration-primary)" d="M221 56a4 4 0 1 1-8 0 4 4 0 0 1 8 0"/><path fill="var(--illustration-gray)" d="M176 71.425c0 17.344-14.128 31.413-31.557 31.413a31.48 31.48 0 0 1-23.257-10.199c-5.151-5.595-8.288-13.031-8.288-21.214s3.137-15.63 8.288-21.226A31.5 31.5 0 0 1 144.443 40C161.872 40 176 54.069 176 71.425"/><path fill="var(--illustration-black)" d="M144.446 80.716c5.152 0 9.329-4.16 9.329-9.29 0-5.131-4.177-9.29-9.329-9.29s-9.329 4.159-9.329 9.29 4.177 9.29 9.329 9.29"/><path fill="var(--illustration-gray)" d="M112.899 102.838V136l-4.928-7.67-4.928 7.67-4.927-7.67-4.928 7.67-4.928-7.67-4.928 7.67-4.928-7.67-4.916 7.67-4.927-7.67-4.928 7.67V71.833c.21 17.158 14.256 31.017 31.545 31.017h17.721z"/><path fill="var(--illustration-primary)" d="M144.444 40a31.48 31.48 0 0 0-23.258 10.2c-5.15 5.594-8.287 13.03-8.287 21.213v31.425H95.178c-17.289 0-31.334-13.847-31.545-31.017v-.408c0-2.436.28-4.814.807-7.087v-.011a33 33 0 0 1 1.1-3.695 31.8 31.8 0 0 1 3.465-6.76c.153-.21.293-.42.434-.63.292-.408.596-.804.9-1.2.317-.397.633-.782.96-1.155.164-.198.34-.384.504-.57.374-.386.726-.747 1.077-1.097a31 31 0 0 1 5.162-4.16l.28-.176q.492-.315.984-.594a32 32 0 0 1 5.747-2.611A31.5 31.5 0 0 1 95.189 40z"/><path fill="var(--illustration-accent-2)" d="M144.443 102.839h-31.545V71.425a31.17 31.17 0 0 0 8.288 21.214 31.5 31.5 0 0 0 23.257 10.2"/></svg>