<svg xmlns="http://www.w3.org/2000/svg" fill="none" viewBox="0 0 240 240"><path fill="var(--illustration-gray)" d="M240 144H0v64h240z"/><path fill="var(--illustration-positive)" d="M80 72H32v72h48z"/><path fill="var(--illustration-primary)" d="M128 120h-16v48h16z"/><path fill="var(--illustration-positive)" d="M192 48h-16v48h16z"/><path fill="var(--illustration-primary)" d="M192 112h-16v48h16zM80 144H32v40h48z"/><path fill="var(--illustration-negative)" d="M144 96H96v72h48z"/><path fill="var(--illustration-primary)" d="M144 144H96v40h48z"/><path fill="var(--illustration-positive)" d="M208 32h-48v128h48z"/><path fill="var(--illustration-primary)" d="M208 144h-48v40h48z"/><path fill="var(--illustration-invert)" fill-rule="evenodd" d="M64 34H32v-2h32zm16 8H32v-2h48zm-16 8H32v-2h32zm129.111 23.792-72.441 55.84-65.058-24.521-38.58 24.236-1.063-1.694 39.42-24.764 64.943 24.479 71.558-55.16z" clip-rule="evenodd"/><path fill="var(--illustration-invert)" fill-rule="evenodd" d="m191.6 73.689-14.904-1.695.226-1.988 16.891 1.922-1.921 16.89-1.988-.225z" clip-rule="evenodd"/></svg>