<svg xmlns="http://www.w3.org/2000/svg" fill="none" viewBox="0 0 240 240"><path fill="var(--illustration-accent-2)" d="M48 216.002h144v-192H48v192Z"/><path fill="var(--illustration-white)" d="M84 112c6.627 0 12-5.373 12-12s-5.373-12-12-12c-6.628 0-12 5.373-12 12s5.372 12 12 12Zm36 0c6.627 0 12-5.373 12-12s-5.373-12-12-12c-6.628 0-12 5.373-12 12s5.372 12 12 12Zm36 0c6.627 0 12-5.373 12-12s-5.373-12-12-12c-6.628 0-12 5.373-12 12s5.372 12 12 12ZM84 80c6.627 0 12-5.373 12-12s-5.373-12-12-12c-6.628 0-12 5.373-12 12s5.372 12 12 12Zm36 0c6.627 0 12-5.373 12-12s-5.373-12-12-12c-6.628 0-12 5.373-12 12s5.372 12 12 12Zm36 0c6.627 0 12-5.373 12-12s-5.373-12-12-12c-6.628 0-12 5.373-12 12s5.372 12 12 12Zm-72 64c6.627 0 12-5.373 12-12s-5.373-12-12-12c-6.628 0-12 5.373-12 12s5.372 12 12 12Zm36 0c6.627 0 12-5.373 12-12s-5.373-12-12-12c-6.628 0-12 5.373-12 12s5.372 12 12 12Zm36 0c6.627 0 12-5.373 12-12s-5.373-12-12-12c-6.628 0-12 5.373-12 12s5.372 12 12 12Z"/><path fill="var(--illustration-black)" d="M121 98.63v-5.26h-2v5.26L114 97l-.62 1.9 5 1.63-3.09 4.25 1.62 1.18 3.09-4.26 3.09 4.26 1.62-1.18-3.09-4.25 5-1.63L126 97l-5 1.63Zm-36 0v-5.26h-2v5.26L78 97l-.62 1.9 5 1.63-3.09 4.25 1.62 1.18L84 101.7l3.09 4.26 1.62-1.18-3.09-4.25 5-1.63L90 97l-5 1.63Zm72 0v-5.26h-2v5.26L150 97l-.62 1.9 5 1.63-3.09 4.25 1.62 1.18 3.09-4.26 3.09 4.26 1.62-1.18-3.09-4.25 5-1.63L162 97l-5 1.63Zm-36-32v-5.26h-2v5.26L114 65l-.62 1.9 5 1.63-3.09 4.25 1.62 1.18L120 69.7l3.09 4.26 1.62-1.18-3.09-4.25 5-1.63L126 65l-5 1.63Zm-36 0v-5.26h-2v5.26L78 65l-.62 1.9 5 1.63-3.09 4.25 1.62 1.18L84 69.7l3.09 4.26 1.62-1.18-3.09-4.25 5-1.63L90 65l-5 1.63Zm66.29 6.15 1.62 1.18L156 69.7l3.09 4.26 1.62-1.18-3.09-4.25 5-1.63L162 65l-5 1.63v-5.26h-2v5.26L150 65l-.62 1.9 5 1.63-3.09 4.25ZM126 129l-5 1.62v-5.25h-2v5.25l-5-1.62-.62 1.9 5 1.63-3.09 4.25 1.62 1.18 3.09-4.26 3.09 4.26 1.62-1.18-3.09-4.25 5-1.63-.62-1.9Zm-36 0-5 1.62v-5.25h-2v5.25L78 129l-.62 1.9 5 1.63-3.09 4.25 1.62 1.18L84 133.7l3.09 4.26 1.62-1.18-3.09-4.25 5-1.63L90 129Zm72 0-5 1.62v-5.25h-2v5.25l-5-1.62-.62 1.9 5 1.63-3.09 4.25 1.62 1.18 3.09-4.26 3.09 4.26 1.62-1.18-3.09-4.25 5-1.63-.62-1.9Z"/><path fill="var(--illustration-primary)" d="M48 24h144V0H48v24Zm0 216h144v-24H48v24Z"/><path fill="var(--illustration-gray)" d="M216 0h-24v24h48v-8h-24V0ZM0 0v16h24v8h24V0H0Zm0 216v16h24v8h24v-24H0Z"/><path fill="var(--illustration-black)" d="M120 14a2 2 0 1 0 0-4 2 2 0 0 0 0 4Zm8 212h-16v4h16v-4Zm1-50v-7c0-4.96-4.04-9-9-9s-9 4.04-9 9v7h-7v24h32v-24h-7Zm-8 10.82V192h-2v-5.18a2.996 2.996 0 0 1 1-5.82c1.66 0 3 1.34 3 3 0 1.3-.84 2.4-2 2.82Zm6-10.82h-14v-7c0-3.86 3.14-7 7-7s7 3.14 7 7v7Z"/><path fill="var(--illustration-gray)" d="M240 224h-24v-8h-24v24h48v-16Z"/></svg>