<svg xmlns="http://www.w3.org/2000/svg" fill="none" viewBox="0 0 240 240"><path fill="var(--illustration-gray)" d="M0 88a8 8 0 0 1 8-8h200v16H0z"/><path fill="var(--illustration-primary)" d="M0 88c0 4.414 4.235 7.993 9.462 8H224v144H7.97l-.118-.115c-3.965-.619-7.096-3.66-7.733-7.51L0 232.26z"/><path fill="var(--illustration-primary)" d="M48 80h104v16H48z"/><path fill="var(--illustration-black)" d="M48 96h104v72H48z"/><path fill="var(--illustration-gray)" d="M48 0h104v80H48zm120 0h32v56h-32zM8 0h24v28H8z"/><path fill="var(--illustration-black)" d="M192 136h32v64h-32z"/><path fill="var(--illustration-primary)" d="M224 136h16v64h-16z"/><circle cx="100" cy="164" r="50" fill="var(--illustration-accent-1)" stroke="var(--illustration-invert-2)" stroke-width="4"/><circle cx="100" cy="164" r="39" stroke="var(--illustration-black)" stroke-width="2"/><path stroke="var(--illustration-black)" stroke-width="2" d="M80 164h40m-20 20v-40m-10 10 10 10m0 0 10 10m-10-10-10 10m10-10 10-10"/><path fill="var(--illustration-invert-2)" d="M136 31.998c-8.838 0-15.998 7.164-15.998 16.002 0-8.838-7.164-16.002-16.002-16.002 8.838 0 16.002-7.163 16.002-15.998 0 8.835 7.16 15.998 15.998 15.998"/><path fill="var(--illustration-invert-2)" d="M120 16.226v31.548c-.121-8.734-7.237-15.776-16-15.776 8.763 0 15.879-7.041 16-15.772"/><circle cx="20" cy="28" r="12" fill="var(--illustration-accent-2)"/><path fill="var(--illustration-primary)" d="M32 28c0-6.627-5.373-12-12-12S8 21.373 8 28z"/><circle cx="16" cy="16" r="16" fill="var(--illustration-accent-1)" transform="matrix(1 0 0 -1 168 72)"/><path fill="var(--illustration-primary)" d="M184 40c8.837 0 16 7.163 16 16h-32c0-8.837 7.163-16 16-16"/><path fill="var(--illustration-accent-1)" d="M36 60.001c6.629 0 11.999-5.372 11.999-12.001 0 6.629 5.372 12.001 12.001 12.001-6.629 0-12.001 5.373-12.001 11.999 0-6.626-5.37-11.999-11.999-11.999"/><path fill="var(--illustration-primary)" d="M48 71.83V48.17c.09 6.55 5.428 11.831 12 11.831-6.572 0-11.91 5.282-12 11.83"/><path fill="var(--illustration-white)" d="m200 168 8.485-8.485 8.486 8.485-8.486 8.485z"/></svg>