<svg xmlns="http://www.w3.org/2000/svg" fill="none" viewBox="0 0 240 240"><path fill="var(--illustration-accent-2)" d="M120 240a120 120 0 0 1 0-240"/><path fill="var(--illustration-primary)" d="M120 0a120 120 0 0 1 0 240"/><path fill="var(--illustration-invert-2)" d="M120 220a100 100 0 0 1 0-200"/><path fill="var(--illustration-accent-1)" d="M120 20a100 100 0 0 1 0 200"/><path fill="var(--illustration-black)" fill-rule="evenodd" d="M209 120h-18.95v-2H209v2Z" clip-rule="evenodd"/><path fill="var(--illustration-invert)" fill-rule="evenodd" d="M118 209v-18.95h2V209h-2Zm-59.5-53.91-16.94 9.78-1-1.74 16.94-9.78 1 1.74Z" clip-rule="evenodd"/><path fill="var(--illustration-black)" fill-rule="evenodd" d="m197.44 74.87-16.94 9.78-1-1.74 16.94-9.78 1 1.74Z" clip-rule="evenodd"/><path fill="var(--illustration-invert)" fill-rule="evenodd" d="m84.64 180.5-9.78 16.94-1.73-1 9.78-16.94 1.73 1Z" clip-rule="evenodd"/><path fill="var(--illustration-black)" fill-rule="evenodd" d="m164.86 41.56-9.78 16.94-1.73-1 9.78-16.94 1.73 1Zm-9.78 137.94 9.78 16.94-1.73 1-9.78-16.94 1.73-1Zm25.42-26.15 16.94 9.78-1 1.74-16.94-9.78 1-1.74Z" clip-rule="evenodd"/><path fill="var(--illustration-accent-2)" d="M120 168a48 48 0 1 1 0-96"/><path fill="var(--illustration-primary)" d="M120 72a48 48 0 0 1 0 96"/><path fill="var(--illustration-black)" fill-rule="evenodd" d="m148.14 100.14-39.28 39.27-15.7-15.7 1.41-1.42 14.3 14.3 37.86-37.87 1.41 1.42Z" clip-rule="evenodd"/><path fill="var(--illustration-invert)" fill-rule="evenodd" d="M116.55 40.04A79 79 0 0 0 40 118h7.94v2H29v-2h9a81 81 0 0 1 78.62-79.97l-6.33-6.32 1.42-1.42 8.7 8.71-8.7 8.7-1.42-1.4 6.26-6.26Z" clip-rule="evenodd"/></svg>