<svg xmlns="http://www.w3.org/2000/svg" fill="none" viewBox="0 0 241 240"><path fill="var(--illustration-accent-1)" d="M161.17 131.51A43.83 43.83 0 0 0 131.5 120c-24.3 0-44 19.7-44 44s19.7 44 44 44c11.43 0 21.85-4.36 29.67-11.51-7.87-8.55-12.67-19.96-12.67-32.49s4.8-23.94 12.67-32.49"/><path fill="var(--illustration-accent-1)" d="M79.828 108.49a43.83 43.83 0 0 0 29.67 11.51c24.3 0 44-19.7 44-44s-19.7-44-44-44c-11.43 0-21.85 4.36-29.67 11.51 7.87 8.55 12.67 19.96 12.67 32.49s-4.8 23.94-12.67 32.49"/><path fill="var(--illustration-accent-2)" d="M66.5 120c24.3 0 44 19.7 44 44s-19.7 44-44 44-44-19.7-44-44 19.7-44 44-44"/><path fill="var(--illustration-positive)" fill-rule="evenodd" d="M.5 207.99c.33 0 .67.01 1 .01 24.3 0 44-19.7 44-44s-19.7-44-44-44c-.33 0-.67 0-1 .01z" clip-rule="evenodd"/><path fill="var(--illustration-primary)" fill-rule="evenodd" d="M99 134.34c7.14 7.82 11.5 18.23 11.5 29.66s-4.36 21.84-11.5 29.66c-7.14-7.82-11.5-18.23-11.5-29.66s4.36-21.84 11.5-29.66M34 134c-7.14 7.82-11.5 18.23-11.5 29.66s4.36 21.84 11.5 29.66c7.14-7.82 11.5-18.23 11.5-29.66S41.14 141.82 34 134" clip-rule="evenodd"/><path fill="var(--illustration-accent-2)" d="M174.5 120c-24.3 0-44-19.7-44-44s19.7-44 44-44 44 19.7 44 44-19.7 44-44 44"/><path fill="var(--illustration-positive)" fill-rule="evenodd" d="M240.5 32.01c-.33 0-.67-.01-1-.01-24.3 0-44 19.7-44 44s19.7 44 44 44c.33 0 .67 0 1-.01z" clip-rule="evenodd"/><path fill="var(--illustration-primary)" fill-rule="evenodd" d="M142 105.66c-7.14-7.82-11.5-18.23-11.5-29.66s4.36-21.84 11.5-29.66c7.14 7.82 11.5 18.23 11.5 29.66s-4.36 21.84-11.5 29.66m65 0c7.14-7.82 11.5-18.23 11.5-29.66s-4.36-21.84-11.5-29.66c-7.14 7.82-11.5 18.23-11.5 29.66s4.36 21.84 11.5 29.66" clip-rule="evenodd"/><path fill="var(--illustration-invert)" d="m139.591 162.5-13.09-13.09 1.41-1.41 15.37 15.37-15.37 15.37-1.41-1.41 12.83-12.83H.5v-2z"/><path fill="var(--illustration-invert)" fill-rule="evenodd" d="M92.5 75h148v2h-148z" clip-rule="evenodd"/><path fill="var(--illustration-positive)" d="M196.5 208c24.3 0 44-19.7 44-44s-19.7-44-44-44-44 19.7-44 44 19.7 44 44 44"/><path fill="var(--illustration-white)" fill-rule="evenodd" d="M201.788 167.8c-.3.02-1.86.11-5.34.11-2.78 0-4.73-.08-5.42-.12-10.69-.46-18.67-2.32-18.67-4.55s7.98-4.09 18.67-4.56v7.27c.7.05 2.7.17 5.47.17 3.32 0 4.98-.14 5.29-.17v-7.27c10.67.48 18.63 2.34 18.63 4.56s-7.96 4.08-18.63 4.56m0-9.87v-6.51h14.89v-9.92h-40.54v9.92h14.89v6.5c-12.1.56-21.2 2.95-21.2 5.82s9.1 5.27 21.2 5.82v20.85h10.76v-20.86c12.08-.56 21.16-2.95 21.16-5.82s-9.08-5.26-21.16-5.82z" clip-rule="evenodd"/><path fill="var(--illustration-primary)" d="M196.5 208c8.7 0 17.21-2.58 24.45-7.42a43.96 43.96 0 0 0 16.21-19.75 44.01 44.01 0 0 0-9.54-47.95 44 44 0 0 0-22.53-12.04 44.1 44.1 0 0 0-25.43 2.51 44 44 0 0 0-19.74 16.2A44 44 0 0 0 152.5 164a44 44 0 0 0 12.89 31.11A44 44 0 0 0 196.5 208"/><path fill="var(--illustration-white)" d="M187.068 190.29a27.45 27.45 0 0 1-13.101-10.07 27.5 27.5 0 0 1-4.97-15.76c0-5.64 1.73-11.14 4.97-15.76 3.23-4.62 7.81-8.14 13.101-10.07a1.98 1.98 0 0 0 1.179-1.74v-2.57c.021-.23-.02-.46-.11-.66a1.2 1.2 0 0 0-.429-.52q-.285-.195-.631-.24c-.229-.02-.46.02-.66.11a33.03 33.03 0 0 0-16.619 11.97 33 33 0 0 0-6.36 19.47c0 7 2.229 13.82 6.36 19.47a33.03 33.03 0 0 0 16.619 11.97c.211.09.44.13.66.11q.346-.03.631-.24c.19-.13.33-.31.429-.52.09-.21.131-.44.11-.66v-2.57a2.03 2.03 0 0 0-.339-1.04c-.211-.31-.5-.55-.84-.7z"/><path fill="var(--illustration-white)" d="M208.547 170.99c0-6.42-3.9-8.58-11.46-9.62-5.58-.81-6.66-2.12-6.66-4.72s1.89-4.23 5.5-4.23c3.29 0 5.19 1.15 5.97 3.79.08.29.26.55.5.73s.53.28.83.29h2.89a1.29 1.29 0 0 0 1-.44 1.29 1.29 0 0 0 .29-1.05c-.92-4.19-3.74-6.71-8.17-7.5v-4.42a1.37 1.37 0 0 0-1.37-1.37h-2.75a1.37 1.37 0 0 0-1.37 1.37v4.26c-5.5.77-8.97 4.4-8.97 9.06 0 6.02 3.67 8.36 11.33 9.4 5.22.85 6.7 1.98 6.7 4.94s-2.52 4.95-6.08 4.95c-4.79 0-6.42-2.1-6.96-4.82-.06-.31-.23-.59-.48-.8-.25-.2-.55-.32-.87-.32h-3.13q-.285 0-.54.12c-.17.08-.32.19-.44.33a1.29 1.29 0 0 0-.29 1.04c.8 4.58 3.74 7.94 9.73 8.75v4.35a1.37 1.37 0 0 0 1.37 1.37h2.75a1.37 1.37 0 0 0 1.37-1.37v-4.35c5.68-.9 9.3-4.82 9.3-9.74z"/><path fill="var(--illustration-white)" d="M205.917 132.91c.22-.02.45.02.66.11v.01a33.03 33.03 0 0 1 16.62 11.97 33 33 0 0 1 6.36 19.47 33 33 0 0 1-6.36 19.47 33.03 33.03 0 0 1-16.62 11.97c-.2.09-.43.13-.66.11q-.345-.045-.63-.24a1.2 1.2 0 0 1-.43-.52c-.09-.2-.13-.43-.11-.66v-2.57c0-.37.11-.74.32-1.05s.51-.55.86-.68c5.29-1.93 9.87-5.45 13.1-10.07a27.5 27.5 0 0 0 4.96-15.76c0-5.64-1.73-11.14-4.96-15.76s-7.8-8.14-13.1-10.07a1.97 1.97 0 0 1-1.18-1.74v-2.57a1.28 1.28 0 0 1 .54-1.18q.285-.21.63-.24"/><path fill="var(--illustration-primary)" d="M44 120c24.3 0 44-19.7 44-44S68.3 32 44 32 0 51.7 0 76s19.7 44 44 44"/><path fill="var(--illustration-white)" d="M58.097 89c-7.949-.467-11.358-4.14-11.722-9.005h6.8c.325 2.24 1.283 4.06 4.922 4.527v-7.46c-7.317-.966-10.803-3.205-10.803-8.312 0-4.446 4.233-7.733 10.803-8.12v-3.463h3.256v3.48c6.244.467 10.017 3.093 10.572 8.087h-6.55c-.421-2.014-1.57-3.254-4.003-3.641v6.927c6.895.886 11.128 2.82 11.128 8.2 0 4.64-3.869 8.346-11.128 8.78v4.834h-3.256V89zm0-17.447V65.03c-2.7.306-4.176 1.578-4.176 3.206 0 1.772.786 2.738 4.176 3.318m3.275 5.913v7.04c2.662-.387 4.329-1.74 4.329-3.641-.02-1.853-.939-2.771-4.329-3.4M15.5 89.25h7.237V79.016L33.994 89.25H44L32.073 78.781c6.298-.39 9.649-3.632 9.649-8.28 0-4.962-3.931-8.75-11.347-8.75H15.5zm18.896-18.437c0 2.148-1.519 3.32-4.244 3.32h-7.415v-7.07h7.415c2.725 0 4.244 1.132 4.244 3.359z"/></svg>