<svg xmlns="http://www.w3.org/2000/svg" fill="none" viewBox="0 0 240 240"><path fill="var(--illustration-primary)" d="M96 240h144V0H96v240Z"/><path fill="var(--illustration-black)" d="M168 14a2 2 0 1 0 0-4 2 2 0 0 0 0 4Zm8 212h-16v4h16v-4Z"/><path fill="var(--illustration-accent-2)" d="M96 216h144V24H96v192Z"/><path fill="var(--illustration-accent-4)" d="M0 64h168v112H0V64Z"/><path fill="var(--illustration-primary)" fill-rule="evenodd" d="M168 64H96v112h72V64Z" clip-rule="evenodd"/><path fill="var(--illustration-primary)" d="M168 77H0v20h168V77Z"/><path fill="var(--illustration-black)" d="M168 77H96v20h72V77Z"/><path fill="var(--illustration-gray)" d="M96 0H0v24h96V0Zm0 216H0v24h96v-24Z"/><path fill="var(--illustration-white)" d="M16 120h73v-4H16v4Zm0 12h40v-4H16v4Z"/><path fill="var(--illustration-positive)" d="M204 120c0 19.882-16.118 36-36 36s-36-16.118-36-36 16.118-36 36-36 36 16.118 36 36Z"/><path fill="var(--illustration-white)" fill-rule="evenodd" d="M208 120c0 22.091-17.909 40-40 40s-40-17.909-40-40 17.909-40 40-40 40 17.909 40 40Zm-40 36c19.882 0 36-16.118 36-36s-16.118-36-36-36-36 16.118-36 36 16.118 36 36 36Z" clip-rule="evenodd"/><path fill="var(--illustration-black)" fill-rule="evenodd" d="m191.695 105.719-31.254 30.199-16.609-14.898 1.336-1.489 15.222 13.655 29.915-28.905 1.39 1.438Z" clip-rule="evenodd"/></svg>