<svg xmlns="http://www.w3.org/2000/svg" fill="none" viewBox="0 0 240 241"><path fill="var(--illustration-white)" fill-rule="evenodd" d="M148.284 148.284a39.996 39.996 0 0 1-56.568 0A39.998 39.998 0 0 1 120 80a39.998 39.998 0 0 1 40 40 39.996 39.996 0 0 1-11.716 28.284Z" clip-rule="evenodd"/><path fill="var(--illustration-primary)" d="M120.001 80C97.905 80 80 97.958 80 120.116c0 20.694 15.63 37.725 35.695 39.884v-30.548a37.832 37.832 0 0 0 18.887-17.512v45.478c14.8-5.886 25.418-20.358 25.418-37.302C160 97.958 142.095 80 120.001 80Zm-22.83 49.263v-18.322c9.658 0 17.651-7.067 19.164-16.324h18.386c-1.614 19.395-17.796 34.646-37.55 34.646ZM200 144.5c13.255 0 24-10.745 24-24s-10.745-24-24-24-24 10.745-24 24 10.745 24 24 24Z"/><path fill="var(--illustration-white)" d="M202 123.5a9 9 0 0 0 9-9 9 9 0 0 0-9-9 9 9 0 0 0-9 9 9 9 0 0 0 9 9Z"/><path fill="var(--illustration-black)" d="M200.389 126.7c-5.41-1.1-10.69 2.4-11.79 7.81-.43 2.1-.95 4.16-1.56 6.18 3.74 2.4 8.18 3.8 12.96 3.8 2.44 0 4.8-.37 7.03-1.05.43-1.64.83-3.29 1.17-4.96 1.1-5.4-2.4-10.68-7.81-11.78Z"/><path fill="var(--illustration-positive)" d="M40 144.5c13.255 0 24-10.745 24-24s-10.745-24-24-24-24 10.745-24 24 10.745 24 24 24Z"/><path fill="var(--illustration-black)" d="M38 123.5a9 9 0 0 0 9-9 9 9 0 0 0-9-9 9 9 0 0 0-9 9 9 9 0 0 0 9 9Z"/><path fill="var(--illustration-primary)" d="M39.606 126.7c5.41-1.1 10.69 2.4 11.79 7.81.43 2.1.95 4.16 1.56 6.18-3.74 2.4-8.18 3.8-12.96 3.8-2.44 0-4.8-.37-7.03-1.05a91.64 91.64 0 0 1-1.17-4.96c-1.1-5.4 2.4-10.68 7.81-11.78Z"/><path fill="var(--illustration-accent-2)" d="M53.599 142.666a25.874 25.874 0 0 1-13.596 3.834 26.05 26.05 0 0 1-6.41-.796c10.925 37.4 45.526 64.796 86.41 64.796 40.142 0 75.365-26.845 86.422-64.799a26.046 26.046 0 0 1-6.422.799c-4.978 0-9.63-1.399-13.583-3.826-9.402 28.153-36.109 47.826-66.417 47.826-30.856 0-57.111-20.065-66.404-47.834Z"/><path fill="var(--illustration-gray)" d="M53.599 98.334C62.892 70.565 89.147 50.5 120.003 50.5c30.308 0 57.015 19.673 66.417 47.826a25.879 25.879 0 0 1 13.583-3.826c2.216 0 4.368.277 6.422.799-11.057-37.954-46.28-64.799-86.422-64.799-40.884 0-75.484 27.396-86.41 64.796a26.05 26.05 0 0 1 6.41-.796c4.984 0 9.64 1.402 13.596 3.834Z"/><path fill="var(--illustration-invert)" d="M43.195 146.305c10.776 32.082 41.092 55.195 76.802 55.195 35.711 0 66.029-23.109 76.804-55.195a25.378 25.378 0 0 1-2.002-.325c-10.599 31.131-40.09 53.52-74.802 53.52s-64.198-22.393-74.8-53.52c-.658.134-1.326.242-2.002.325Zm2.002-51.285c10.601-31.127 40.088-53.52 74.8-53.52 34.712 0 64.203 22.389 74.802 53.52a25.947 25.947 0 0 1 2.002-.325C186.026 62.609 155.708 39.5 119.997 39.5c-35.71 0-66.025 23.113-76.802 55.195.676.083 1.344.191 2.002.325Z"/><path fill="var(--illustration-accent-2)" d="M80 96.5a8 8 0 0 0-8-8 8 8 0 0 0 8-8 8 8 0 0 0 8 8 8 8 0 0 0-8 8Z"/><path fill="var(--illustration-invert)" d="M124 194.35v11.25l-8.438-5.273L124 194.35Zm-54.939-18.49-9.147 6.55-.625-9.93 9.772 3.38ZM174.904 170l8.034 7.876-9.673 2.333L174.904 170ZM115.938 46.75V35.5l8.437 5.274-8.437 5.976Zm54.946 18.99 9.147-6.55.625 9.93-9.772-3.38ZM64.034 71.6 56 63.724l9.673-2.333-1.64 10.21Z"/><path fill="var(--illustration-invert)" fill-rule="evenodd" d="m239.984 121.971-2-.032a113.689 113.689 0 0 0 0-3.878l2-.032a117.563 117.563 0 0 1 0 3.942Zm-.126-7.861-1.998.096a117.02 117.02 0 0 0-.249-3.86l1.993-.161c.106 1.302.19 2.611.254 3.925Zm-.634-7.832-1.987.226a120.094 120.094 0 0 0-.499-3.827l1.978-.291c.19 1.291.36 2.588.508 3.892Zm-1.143-7.77-1.968.355c-.23-1.27-.48-2.531-.749-3.786l1.955-.42c.274 1.276.528 2.56.762 3.85Zm-1.651-7.676-1.94.485a116.25 116.25 0 0 0-.998-3.733l1.924-.548c.358 1.257.696 2.523 1.014 3.796Zm-2.153-7.552-1.904.61a116.423 116.423 0 0 0-1.241-3.655l1.884-.674c.44 1.23.861 2.47 1.261 3.718Zm-2.646-7.396-1.86.736a119.133 119.133 0 0 0-1.478-3.566l1.834-.796a117.713 117.713 0 0 1 1.504 3.626Zm-3.127-7.202-1.807.856a116.733 116.733 0 0 0-1.711-3.463l1.778-.915a117.772 117.772 0 0 1 1.74 3.522Zm-3.594-6.983-1.747.973a116.464 116.464 0 0 0-1.934-3.342l1.715-1.03a119.863 119.863 0 0 1 1.966 3.399Zm-4.044-6.733-1.679 1.086a118.394 118.394 0 0 0-2.149-3.21l1.644-1.139a119.234 119.234 0 0 1 2.184 3.263Zm-4.474-6.453-1.606 1.193a117.692 117.692 0 0 0-2.353-3.063l1.566-1.244a121.006 121.006 0 0 1 2.393 3.114Zm-4.886-6.148-1.525 1.294a119.01 119.01 0 0 0-2.547-2.902l1.481-1.344c.88.97 1.743 1.954 2.591 2.952Zm-5.276-5.818-1.437 1.391a117.987 117.987 0 0 0-2.731-2.73l1.391-1.438c.941.91 1.866 1.837 2.777 2.777Zm-5.643-5.462-1.343 1.481a120.522 120.522 0 0 0-2.903-2.547l1.295-1.524c.998.847 1.982 1.71 2.951 2.59Zm-5.986-5.083a118.516 118.516 0 0 0-3.114-2.394l-1.193 1.606c1.034.768 2.055 1.553 3.063 2.353l1.244-1.565Zm-6.304-4.684-1.14 1.644a117.858 117.858 0 0 0-3.208-2.148l1.085-1.68c1.1.71 2.188 1.439 3.263 2.184Zm-6.597-4.262-1.03 1.715a116.496 116.496 0 0 0-3.342-1.934l.973-1.747c1.145.637 2.278 1.293 3.399 1.966Zm-6.86-3.82-.915 1.778a117.844 117.844 0 0 0-3.463-1.71l.856-1.808c1.185.561 2.359 1.141 3.522 1.74Zm-7.098-3.363-.796 1.835a116.678 116.678 0 0 0-3.566-1.479l.736-1.86c1.219.482 2.428.984 3.626 1.504Zm-7.303-2.888-.674 1.883a116.07 116.07 0 0 0-3.656-1.241l.612-1.904c1.248.4 2.488.821 3.718 1.262Zm-7.475-2.4-.548 1.923a118.32 118.32 0 0 0-3.733-.998l.485-1.94c1.274.318 2.539.656 3.796 1.015Zm-7.621-1.904-.42 1.956a118.35 118.35 0 0 0-3.786-.75l.356-1.967c1.291.233 2.574.487 3.85.761Zm-7.729-1.397-.291 1.979a118 118 0 0 0-3.827-.5l.226-1.987a121.3 121.3 0 0 1 3.892.508Zm-7.798-.888-.162 1.993a119.14 119.14 0 0 0-3.86-.249l.096-1.998c1.315.064 2.623.148 3.926.254Zm-7.845-.38-.032 2a120.354 120.354 0 0 0-3.878 0l-.032-2a122.424 122.424 0 0 1 3.942 0Zm-7.862.126.097 1.998c-1.292.062-2.579.146-3.86.25l-.162-1.994c1.303-.106 2.611-.19 3.925-.254Zm-7.831.634.226 1.987a118 118 0 0 0-3.827.5l-.291-1.98c1.291-.189 2.588-.358 3.892-.507ZM98.507 1.92l.356 1.968c-1.27.23-2.531.479-3.786.749l-.42-1.956c1.276-.274 2.56-.528 3.85-.761Zm-7.675 1.65.485 1.94a118.32 118.32 0 0 0-3.733.998l-.548-1.923a119.01 119.01 0 0 1 3.796-1.015Zm-7.553 2.153.612 1.904a119.01 119.01 0 0 0-3.657 1.24l-.673-1.882c1.23-.44 2.47-.861 3.718-1.262Zm-7.395 2.646.736 1.86c-1.199.474-2.387.967-3.566 1.479l-.796-1.835a119.06 119.06 0 0 1 3.626-1.504Zm-7.202 3.127a119.363 119.363 0 0 0-3.522 1.74l.915 1.778a117.072 117.072 0 0 1 3.463-1.71l-.856-1.808Zm-6.983 3.594.973 1.747c-1.126.627-2.24 1.272-3.342 1.934l-1.03-1.715a119.034 119.034 0 0 1 3.399-1.966Zm-6.733 4.044 1.085 1.68a118.362 118.362 0 0 0-3.208 2.148l-1.14-1.644a120.342 120.342 0 0 1 3.263-2.184Zm-6.453 4.474 1.193 1.606a118.596 118.596 0 0 0-3.063 2.353l-1.244-1.565a120.396 120.396 0 0 1 3.114-2.394Zm-6.149 4.887 1.295 1.524c-.981.834-1.95 1.683-2.903 2.547l-1.343-1.481c.97-.88 1.953-1.743 2.951-2.59Zm-5.817 5.275 1.391 1.437a118.58 118.58 0 0 0-2.73 2.731l-1.438-1.39a117.32 117.32 0 0 1 2.777-2.778Zm-5.462 5.643 1.481 1.344c-.865.953-1.714 1.92-2.547 2.902l-1.525-1.294a120.82 120.82 0 0 1 2.59-2.952ZM26 45.4l1.566 1.244c-.8 1.008-1.585 2.029-2.354 3.063l-1.605-1.193A120.64 120.64 0 0 1 26 45.4Zm-4.683 6.304 1.644 1.14a117.9 117.9 0 0 0-2.148 3.209l-1.68-1.086c.71-1.1 1.439-2.188 2.184-3.263ZM17.056 58.3l1.715 1.03a117.649 117.649 0 0 0-1.934 3.342l-1.747-.973a119.636 119.636 0 0 1 1.966-3.399Zm-3.82 6.86 1.778.915a117.477 117.477 0 0 0-1.711 3.463l-1.807-.856a119.743 119.743 0 0 1 1.74-3.522Zm-3.363 7.098 1.834.796a117.582 117.582 0 0 0-1.478 3.566l-1.86-.736c.482-1.219.983-2.427 1.504-3.626ZM6.984 79.56l1.884.674a116.33 116.33 0 0 0-1.241 3.656l-1.904-.612c.4-1.248.821-2.488 1.261-3.718Zm-2.4 7.475 1.924.549a117.03 117.03 0 0 0-.998 3.732l-1.94-.485c.318-1.273.656-2.539 1.014-3.796Zm-1.903 7.621 1.955.42c-.27 1.255-.519 2.517-.749 3.786l-1.968-.356c.234-1.29.488-2.574.762-3.85Zm-1.397 7.729 1.978.291a117.972 117.972 0 0 0-.499 3.827l-1.987-.226c.148-1.304.318-2.601.508-3.892Zm-.888 7.799 1.993.161a119.168 119.168 0 0 0-.25 3.86l-1.997-.096c.064-1.314.148-2.623.254-3.925Zm-.38 7.844a122.437 122.437 0 0 0 0 3.943l2-.033a120.47 120.47 0 0 1 0-3.878l-2-.032Zm.126 7.862 1.998-.097c.062 1.293.145 2.579.25 3.861l-1.994.161a121.17 121.17 0 0 1-.254-3.925Zm.634 7.831 1.987-.226c.146 1.282.313 2.558.5 3.827l-1.98.292c-.19-1.291-.359-2.589-.507-3.893Zm1.143 7.771 1.968-.356c.23 1.27.48 2.532.75 3.786l-1.956.421c-.274-1.276-.528-2.56-.762-3.851Zm1.65 7.675 1.941-.484c.313 1.252.645 2.496.998 3.732l-1.924.548a118.694 118.694 0 0 1-1.014-3.796Zm2.154 7.553 1.904-.611c.394 1.227.808 2.446 1.24 3.656l-1.883.674c-.44-1.231-.86-2.47-1.261-3.719Zm2.646 7.395 1.86-.735c.474 1.198.967 2.387 1.478 3.565l-1.834.797a119.202 119.202 0 0 1-1.504-3.627Zm3.127 7.203 1.807-.857a115.89 115.89 0 0 0 1.711 3.463l-1.778.915a120.558 120.558 0 0 1-1.74-3.521Zm3.594 6.983 1.747-.973a119.293 119.293 0 0 0 1.934 3.342l-1.715 1.029a120.395 120.395 0 0 1-1.966-3.398Zm4.044 6.732 1.68-1.085a119.01 119.01 0 0 0 2.148 3.209l-1.644 1.139a120.49 120.49 0 0 1-2.184-3.263Zm4.474 6.453 1.605-1.192a117.32 117.32 0 0 0 2.354 3.062l-1.566 1.245a120.254 120.254 0 0 1-2.393-3.115Zm4.886 6.149 1.525-1.295a118.84 118.84 0 0 0 2.547 2.903l-1.481 1.343c-.88-.969-1.743-1.953-2.59-2.951Zm5.276 5.817 1.437-1.391c.895.925 1.806 1.836 2.73 2.731l-1.39 1.437a119 119 0 0 1-2.777-2.777Zm5.643 5.463 1.343-1.482a116.91 116.91 0 0 0 2.903 2.547l-1.295 1.525a122.093 122.093 0 0 1-2.951-2.59Zm5.986 5.083 1.244-1.566c1.008.801 2.029 1.586 3.063 2.354l-1.193 1.605a121.011 121.011 0 0 1-3.114-2.393Zm6.304 4.683 1.14-1.643c1.057.733 2.126 1.449 3.208 2.148l-1.085 1.68c-1.1-.711-2.188-1.439-3.263-2.185Zm6.597 4.262 1.03-1.714a118.84 118.84 0 0 0 3.342 1.933l-.973 1.748a119.747 119.747 0 0 1-3.4-1.967Zm6.86 3.82.915-1.778c1.144.589 2.298 1.159 3.463 1.711l-.856 1.808a120.135 120.135 0 0 1-3.522-1.741Zm7.098 3.363.796-1.834c1.179.511 2.367 1.004 3.566 1.478l-.736 1.86a117.713 117.713 0 0 1-3.626-1.504Zm7.303 2.889.673-1.883a116.5 116.5 0 0 0 3.657 1.24l-.612 1.905a120.162 120.162 0 0 1-3.718-1.262Zm7.475 2.4.548-1.923c1.236.352 2.48.685 3.733.997l-.485 1.941a120.041 120.041 0 0 1-3.796-1.015Zm7.62 1.903.421-1.955c1.255.269 2.517.519 3.786.749l-.356 1.968a122.38 122.38 0 0 1-3.85-.762Zm7.73 1.398.291-1.979c1.269.187 2.545.353 3.827.499l-.226 1.987a121.298 121.298 0 0 1-3.892-.507Zm7.798.888.162-1.994c1.281.104 2.568.187 3.86.25l-.096 1.997a120.874 120.874 0 0 1-3.926-.253Zm7.845.379.032-1.999a125.047 125.047 0 0 0 3.878 0l.032 1.999a117.563 117.563 0 0 1-3.942 0Zm7.862-.126-.097-1.997c1.292-.063 2.579-.146 3.86-.25l.162 1.994c-1.303.105-2.611.19-3.925.253Zm7.831-.634-.226-1.987c1.282-.146 2.558-.312 3.827-.499l.291 1.979c-1.291.189-2.588.359-3.892.507Zm7.771-1.143-.356-1.968c1.269-.23 2.531-.48 3.786-.749l.42 1.955c-1.276.274-2.559.528-3.85.762Zm7.675-1.65-.485-1.941c1.253-.312 2.497-.645 3.733-.997l.548 1.923c-1.257.358-2.522.697-3.796 1.015Zm7.553-2.153-.612-1.905c1.228-.394 2.447-.807 3.656-1.24l.674 1.883c-1.23.44-2.47.861-3.718 1.262Zm7.395-2.647-.736-1.86c1.199-.474 2.387-.967 3.566-1.478l.796 1.834a116.565 116.565 0 0 1-3.626 1.504Zm7.202-3.126-.856-1.808a117.098 117.098 0 0 0 3.463-1.711l.915 1.778a119.893 119.893 0 0 1-3.522 1.741Zm6.983-3.594-.973-1.748c1.126-.627 2.24-1.271 3.342-1.933l1.03 1.714a119.063 119.063 0 0 1-3.399 1.967Zm6.733-4.044-1.085-1.68a117.851 117.851 0 0 0 3.208-2.148l1.14 1.643a119.576 119.576 0 0 1-3.263 2.185Zm6.453-4.475-1.193-1.605a118.422 118.422 0 0 0 3.063-2.354l1.244 1.566a118.94 118.94 0 0 1-3.114 2.393Zm6.149-4.886-1.295-1.525a118.77 118.77 0 0 0 2.903-2.547l1.343 1.482c-.969.879-1.953 1.742-2.951 2.59Zm5.817-5.276-1.391-1.437c.925-.895 1.836-1.806 2.731-2.731l1.437 1.391a119.2 119.2 0 0 1-2.777 2.777Zm5.462-5.643-1.481-1.343c.864-.954 1.714-1.921 2.547-2.903l1.525 1.295c-.848.998-1.711 1.982-2.591 2.951Zm5.084-5.985-1.566-1.245a116.644 116.644 0 0 0 2.353-3.062l1.606 1.192a120.69 120.69 0 0 1-2.393 3.115Zm4.683-6.305-1.644-1.139c.733-1.058 1.45-2.127 2.149-3.209l1.679 1.085c-.71 1.1-1.439 2.188-2.184 3.263Zm4.262-6.597-1.715-1.029a117.837 117.837 0 0 0 1.934-3.342l1.747.973a120.377 120.377 0 0 1-1.966 3.398Zm3.82-6.86-1.778-.915a115.89 115.89 0 0 0 1.711-3.463l1.807.857a118.56 118.56 0 0 1-1.74 3.521Zm3.363-7.097-1.834-.797a118.668 118.668 0 0 0 1.478-3.565l1.86.735a117.643 117.643 0 0 1-1.504 3.627Zm2.889-7.303-1.884-.674c.433-1.21.847-2.429 1.241-3.656l1.904.611a117.74 117.74 0 0 1-1.261 3.719Zm2.4-7.476-1.924-.548c.353-1.236.685-2.48.998-3.732l1.94.484a119.591 119.591 0 0 1-1.014 3.796Zm3.3-15.35-1.978-.291c.186-1.269.353-2.545.499-3.827l1.987.226a118.172 118.172 0 0 1-.508 3.892Zm.888-7.798-1.993-.162c.104-1.281.187-2.567.249-3.86l1.998.097a120.993 120.993 0 0 1-.254 3.925Z" clip-rule="evenodd"/><path fill="var(--illustration-accent-2)" fill-rule="evenodd" d="M224.993 175.347a4 4 0 0 1-1.959-5.307 108.206 108.206 0 0 0 8.09-25.469 4 4 0 0 1 7.864 1.468 116.209 116.209 0 0 1-8.688 27.349 4 4 0 0 1-5.307 1.959Z" clip-rule="evenodd"/><path fill="var(--illustration-accent-1)" fill-rule="evenodd" d="M212.485 44.503a11.998 11.998 0 0 1-16.97 0A11.998 11.998 0 0 1 204 24.018a11.998 11.998 0 0 1 12 12c0 3.183-1.264 6.235-3.515 8.485Z" clip-rule="evenodd"/><path fill="var(--illustration-white)" d="M203.999 30.018a6 6 0 0 0 6.001 6 6 6 0 0 0-6.001 6 6 6 0 0 0-5.999-6 5.999 5.999 0 0 0 5.999-6Z"/><path fill="var(--illustration-accent-1)" fill-rule="evenodd" d="M20.485 172.485A11.998 11.998 0 0 1 0 164a11.998 11.998 0 0 1 12-12 11.998 11.998 0 0 1 12 12c0 3.183-1.264 6.235-3.515 8.485Z" clip-rule="evenodd"/><path fill="var(--illustration-white)" d="M12 158a6 6 0 0 0 6 5.999A6 6 0 0 0 12 170a6 6 0 0 0-6-6.001A6 6 0 0 0 12 158Z"/><path fill="var(--illustration-gray)" d="M12.001 33c0-6.628-5.372-11.999-12.001-11.999 6.629 0 12.001-5.373 12.001-12.001 0 6.629 5.373 12.001 11.999 12.001-6.626 0-11.999 5.37-11.999 11.999ZM29 240.5a7.999 7.999 0 0 0-8-7.999 8 8 0 0 0 8-8.001 8 8 0 0 0 8 8.001 8 8 0 0 0-8 7.999Z"/><path fill="var(--illustration-accent-1)" d="M222.001 224.5a8 8 0 0 0-8.001-7.999 8 8 0 0 0 8.001-8.001 8 8 0 0 0 7.999 8.001 7.999 7.999 0 0 0-7.999 7.999Z"/><path fill="var(--illustration-gray)" d="M232.001 56.5a8 8 0 0 0-8.001-8 8 8 0 0 0 8.001-8 8 8 0 0 0 7.999 8 7.999 7.999 0 0 0-7.999 8Z"/><path fill="var(--illustration-positive)" fill-rule="evenodd" d="M66.978 13.155a4 4 0 0 1-1.76 5.376 108.232 108.232 0 0 0-22.155 14.942 4 4 0 1 1-5.253-6.034 116.23 116.23 0 0 1 23.792-16.044 4 4 0 0 1 5.376 1.76Z" clip-rule="evenodd"/></svg>