<svg xmlns="http://www.w3.org/2000/svg" fill="none" viewBox="0 0 240 241"><path fill="var(--illustration-accent-1)" fill-rule="evenodd" d="M148.284 148.284a39.996 39.996 0 0 1-56.568 0A39.998 39.998 0 0 1 120 80a40 40 0 0 1 40 40 40 40 0 0 1-11.716 28.284" clip-rule="evenodd"/><path fill="var(--illustration-white)" d="M120 101c5.009 7.79 11.879 14.322 20 19-8.121 4.678-14.991 11.21-20 19-5.009-7.79-11.879-14.322-20-19 8.121-4.678 14.991-11.21 20-19"/><path fill="var(--illustration-black)" fill-rule="evenodd" d="M141.92 142.42a30.996 30.996 0 0 1-43.84 0 31 31 0 0 1 0-43.84 30.999 30.999 0 1 1 43.84 43.84M120 153.5a33 33 0 0 0 23.335-9.665 33.004 33.004 0 0 0 0-46.67A33.002 33.002 0 0 0 87 120.5a33 33 0 0 0 33 33" clip-rule="evenodd"/><path fill="var(--illustration-primary)" d="M200 144.5c13.255 0 24-10.745 24-24s-10.745-24-24-24-24 10.745-24 24 10.745 24 24 24"/><path fill="var(--illustration-white)" d="M202 123.5a9 9 0 0 0 9-9 9 9 0 0 0-9-9 9 9 0 0 0-9 9 9 9 0 0 0 9 9"/><path fill="var(--illustration-black)" d="M200.389 126.7c-5.41-1.1-10.69 2.4-11.79 7.81q-.645 3.15-1.56 6.18c3.74 2.4 8.18 3.8 12.96 3.8 2.44 0 4.8-.37 7.03-1.05.43-1.64.83-3.29 1.17-4.96 1.1-5.4-2.4-10.68-7.81-11.78"/><path fill="var(--illustration-positive)" d="M40 144.5c13.255 0 24-10.745 24-24s-10.745-24-24-24-24 10.745-24 24 10.745 24 24 24"/><path fill="var(--illustration-black)" d="M38 123.5a9 9 0 0 0 9-9 9 9 0 0 0-9-9 9 9 0 0 0-9 9 9 9 0 0 0 9 9"/><path fill="var(--illustration-primary)" d="M39.606 126.7c5.41-1.1 10.69 2.4 11.79 7.81q.645 3.15 1.56 6.18c-3.74 2.4-8.18 3.8-12.96 3.8-2.44 0-4.8-.37-7.03-1.05a92 92 0 0 1-1.17-4.96c-1.1-5.4 2.4-10.68 7.81-11.78"/><path fill="var(--illustration-accent-2)" d="M53.599 142.666a25.87 25.87 0 0 1-13.596 3.834 26 26 0 0 1-6.41-.796c10.926 37.4 45.526 64.796 86.41 64.796 40.142 0 75.365-26.845 86.422-64.799a26 26 0 0 1-6.422.799c-4.978 0-9.63-1.399-13.583-3.826-9.402 28.153-36.109 47.826-66.417 47.826-30.856 0-57.111-20.065-66.404-47.834"/><path fill="var(--illustration-gray)" d="M53.599 98.334C62.892 70.565 89.147 50.5 120.003 50.5c30.308 0 57.015 19.673 66.417 47.826a25.9 25.9 0 0 1 13.583-3.826c2.216 0 4.368.277 6.422.799-11.057-37.954-46.28-64.799-86.422-64.799-40.884 0-75.484 27.396-86.41 64.796a26 26 0 0 1 6.41-.796c4.984 0 9.64 1.402 13.596 3.834"/><path fill="var(--illustration-invert)" d="M43.195 146.305c10.776 32.082 41.092 55.195 76.802 55.195s66.029-23.109 76.804-55.195a25 25 0 0 1-2.002-.325c-10.599 31.131-40.09 53.52-74.802 53.52s-64.198-22.393-74.8-53.52q-.987.2-2.002.325m2.002-51.285c10.601-31.127 40.088-53.52 74.8-53.52s64.203 22.389 74.802 53.52a26 26 0 0 1 2.002-.325C186.026 62.609 155.708 39.5 119.997 39.5S53.972 62.613 43.195 94.695q1.014.124 2.002.325"/><path fill="var(--illustration-accent-2)" d="M80 96.5a8 8 0 0 0-8-8 8 8 0 0 0 8-8 8 8 0 0 0 8 8 8 8 0 0 0-8 8"/><path fill="var(--illustration-invert)" d="M124 194.35v11.25l-8.438-5.273zm-54.939-18.49-9.147 6.55-.625-9.93zM174.904 170l8.034 7.876-9.673 2.333zM115.938 46.75V35.5l8.437 5.274zm54.946 18.99 9.147-6.55.625 9.93zM64.034 71.6 56 63.724l9.673-2.333z"/><path fill="var(--illustration-invert)" fill-rule="evenodd" d="m239.984 121.971-2-.032a114 114 0 0 0 0-3.878l2-.032a118 118 0 0 1 0 3.942m-.126-7.861-1.998.096a117 117 0 0 0-.249-3.86l1.993-.161q.158 1.954.254 3.925m-.634-7.832-1.987.226a120 120 0 0 0-.499-3.827l1.978-.291q.286 1.936.508 3.892m-1.143-7.77-1.968.355q-.345-1.904-.749-3.786l1.955-.42q.411 1.914.762 3.85m-1.651-7.676-1.94.485a116 116 0 0 0-.998-3.733l1.924-.548q.537 1.886 1.014 3.796m-2.153-7.552-1.904.61a116 116 0 0 0-1.241-3.655l1.884-.674q.66 1.846 1.261 3.718m-2.646-7.396-1.86.736a119 119 0 0 0-1.478-3.566l1.834-.796a118 118 0 0 1 1.504 3.626m-3.127-7.202-1.807.856a117 117 0 0 0-1.711-3.463l1.778-.915a118 118 0 0 1 1.74 3.522m-3.594-6.983-1.747.973a117 117 0 0 0-1.934-3.342l1.715-1.03a120 120 0 0 1 1.966 3.399m-4.044-6.733-1.679 1.086a118 118 0 0 0-2.149-3.21l1.644-1.139a119 119 0 0 1 2.184 3.263m-4.474-6.453-1.606 1.193a118 118 0 0 0-2.353-3.063l1.566-1.244a121 121 0 0 1 2.393 3.114m-4.886-6.148-1.525 1.294a119 119 0 0 0-2.547-2.902l1.481-1.344q1.32 1.455 2.591 2.952m-5.276-5.818-1.437 1.391a118 118 0 0 0-2.731-2.73l1.391-1.438q1.411 1.366 2.777 2.777m-5.643-5.462-1.343 1.481a121 121 0 0 0-2.903-2.547l1.295-1.524q1.497 1.27 2.951 2.59M194.601 26a119 119 0 0 0-3.114-2.394l-1.193 1.606q1.551 1.153 3.063 2.353zm-6.304-4.684-1.14 1.644a118 118 0 0 0-3.208-2.148l1.085-1.68q1.65 1.066 3.263 2.184m-6.597-4.262-1.03 1.715a117 117 0 0 0-3.342-1.934l.973-1.747q1.718.956 3.399 1.966m-6.86-3.82-.915 1.778a118 118 0 0 0-3.463-1.71l.856-1.808q1.778.842 3.522 1.74m-7.098-3.363-.796 1.835a117 117 0 0 0-3.566-1.479l.736-1.86q1.829.723 3.626 1.504m-7.303-2.888-.674 1.883a116 116 0 0 0-3.656-1.241l.612-1.904q1.873.6 3.718 1.262m-7.475-2.4-.548 1.923q-1.854-.528-3.733-.998l.485-1.94q1.91.477 3.796 1.015m-7.621-1.904-.42 1.956q-1.882-.405-3.786-.75l.356-1.967q1.936.35 3.85.761m-7.729-1.397-.291 1.979a118 118 0 0 0-3.827-.5l.226-1.987q1.956.223 3.892.508m-7.798-.888-.162 1.993a119 119 0 0 0-3.86-.249L125.89.14q1.972.096 3.926.254m-7.845-.38-.032 2a120 120 0 0 0-3.878 0l-.032-2a122 122 0 0 1 3.942 0m-7.862.126.097 1.998q-1.938.093-3.86.25l-.162-1.994q1.954-.158 3.925-.254m-7.831.634.226 1.987a118 118 0 0 0-3.827.5l-.291-1.98q1.936-.284 3.892-.507M98.507 1.92l.356 1.968q-1.904.345-3.786.749l-.42-1.956q1.915-.411 3.85-.761m-7.675 1.65.485 1.94q-1.88.47-3.733.998l-.548-1.923a119 119 0 0 1 3.796-1.015m-7.553 2.153.612 1.904q-1.842.591-3.657 1.24l-.673-1.882q1.846-.66 3.718-1.262m-7.395 2.646.736 1.86q-1.798.711-3.566 1.479l-.796-1.835q1.797-.78 3.626-1.504m-7.202 3.127a119 119 0 0 0-3.522 1.74l.915 1.778q1.716-.883 3.463-1.71zm-6.983 3.594.973 1.747q-1.689.94-3.342 1.934l-1.03-1.715q1.681-1.01 3.399-1.966m-6.733 4.044 1.085 1.68a118 118 0 0 0-3.208 2.148l-1.14-1.644a120 120 0 0 1 3.263-2.184m-6.453 4.474 1.193 1.606a119 119 0 0 0-3.063 2.353l-1.244-1.565a120 120 0 0 1 3.114-2.394m-6.149 4.887 1.295 1.524q-1.473 1.251-2.903 2.547l-1.343-1.481q1.454-1.32 2.951-2.59m-5.817 5.275 1.391 1.437a119 119 0 0 0-2.73 2.731l-1.438-1.39q1.365-1.412 2.777-2.778m-5.462 5.643 1.481 1.344q-1.297 1.43-2.547 2.902l-1.525-1.294a121 121 0 0 1 2.59-2.952M26 45.4l1.566 1.244q-1.2 1.512-2.354 3.063l-1.605-1.193Q24.779 46.937 26 45.4m-4.683 6.304 1.644 1.14a118 118 0 0 0-2.148 3.209l-1.68-1.086q1.066-1.65 2.184-3.263M17.056 58.3l1.715 1.03a118 118 0 0 0-1.934 3.342l-1.747-.973a120 120 0 0 1 1.966-3.399m-3.82 6.86 1.778.915a118 118 0 0 0-1.711 3.463l-1.807-.856a120 120 0 0 1 1.74-3.522m-3.363 7.098 1.834.796a118 118 0 0 0-1.478 3.566l-1.86-.736q.723-1.828 1.504-3.626M6.984 79.56l1.884.674q-.65 1.814-1.241 3.656l-1.904-.612q.6-1.872 1.261-3.718m-2.4 7.475 1.924.549a117 117 0 0 0-.998 3.732l-1.94-.485q.477-1.91 1.014-3.796m-1.903 7.621 1.955.42q-.405 1.883-.749 3.786l-1.968-.356q.351-1.935.762-3.85m-1.397 7.729 1.978.291a118 118 0 0 0-.499 3.827l-1.987-.226q.223-1.956.508-3.892m-.888 7.799 1.993.161a119 119 0 0 0-.25 3.86l-1.997-.096q.096-1.972.254-3.925m-.38 7.844a122 122 0 0 0 0 3.943l2-.033a121 121 0 0 1 0-3.878zm.126 7.862 1.998-.097q.093 1.939.25 3.861l-1.994.161a121 121 0 0 1-.254-3.925m.634 7.831 1.987-.226q.22 1.923.5 3.827l-1.98.292q-.285-1.937-.507-3.893m1.143 7.771 1.968-.356q.345 1.905.75 3.786l-1.956.421q-.411-1.914-.762-3.851m1.65 7.675 1.941-.484q.469 1.878.998 3.732l-1.924.548a119 119 0 0 1-1.014-3.796m2.154 7.553 1.904-.611q.592 1.84 1.24 3.656l-1.883.674q-.66-1.846-1.261-3.719m2.646 7.395 1.86-.735q.711 1.797 1.478 3.565l-1.834.797a119 119 0 0 1-1.504-3.627m3.127 7.203 1.807-.857q.828 1.748 1.711 3.463l-1.778.915a121 121 0 0 1-1.74-3.521m3.594 6.983 1.747-.973a119 119 0 0 0 1.934 3.342l-1.715 1.029a120 120 0 0 1-1.966-3.398m4.044 6.732 1.68-1.085a119 119 0 0 0 2.148 3.209l-1.644 1.139a121 121 0 0 1-2.184-3.263m4.474 6.453 1.605-1.192a117 117 0 0 0 2.354 3.062l-1.566 1.245a120 120 0 0 1-2.393-3.115m4.886 6.149 1.525-1.295a119 119 0 0 0 2.547 2.903l-1.481 1.343q-1.32-1.454-2.59-2.951m5.276 5.817 1.437-1.391q1.343 1.388 2.73 2.731l-1.39 1.437a119 119 0 0 1-2.777-2.777m5.643 5.463 1.343-1.482a117 117 0 0 0 2.903 2.547l-1.295 1.525a122 122 0 0 1-2.951-2.59m5.986 5.083 1.244-1.566q1.512 1.202 3.063 2.354l-1.193 1.605a121 121 0 0 1-3.114-2.393m6.304 4.683 1.14-1.643q1.585 1.1 3.208 2.148l-1.085 1.68q-1.65-1.066-3.263-2.185m6.597 4.262 1.03-1.714a119 119 0 0 0 3.342 1.933l-.973 1.748a120 120 0 0 1-3.4-1.967m6.86 3.82.915-1.778q1.716.883 3.463 1.711l-.856 1.808a120 120 0 0 1-3.522-1.741m7.098 3.363.796-1.834q1.768.767 3.566 1.478l-.736 1.86a118 118 0 0 1-3.626-1.504m7.303 2.889.673-1.883a117 117 0 0 0 3.657 1.24l-.612 1.905a120 120 0 0 1-3.718-1.262m7.475 2.4.548-1.923q1.854.529 3.733.997l-.485 1.941a120 120 0 0 1-3.796-1.015m7.62 1.903.421-1.955q1.882.404 3.786.749l-.356 1.968q-1.936-.351-3.85-.762m7.73 1.398.291-1.979q1.904.28 3.827.499l-.226 1.987a121 121 0 0 1-3.892-.507m7.798.888.162-1.994q1.922.156 3.86.25l-.096 1.997a121 121 0 0 1-3.926-.253m7.845.379.032-1.999a125 125 0 0 0 3.878 0l.032 1.999a118 118 0 0 1-3.942 0m7.862-.126-.097-1.997q1.938-.094 3.86-.25l.162 1.994q-1.954.158-3.925.253m7.831-.634-.226-1.987q1.923-.219 3.827-.499l.291 1.979q-1.936.284-3.892.507m7.771-1.143-.356-1.968q1.904-.345 3.786-.749l.42 1.955q-1.914.411-3.85.762m7.675-1.65-.485-1.941q1.88-.469 3.733-.997l.548 1.923q-1.885.537-3.796 1.015m7.553-2.153-.612-1.905q1.842-.59 3.656-1.24l.674 1.883q-1.845.66-3.718 1.262m7.395-2.647-.736-1.86q1.798-.711 3.566-1.478l.796 1.834a117 117 0 0 1-3.626 1.504m7.202-3.126-.856-1.808a117 117 0 0 0 3.463-1.711l.915 1.778a120 120 0 0 1-3.522 1.741m6.983-3.594-.973-1.748q1.689-.94 3.342-1.933l1.03 1.714a119 119 0 0 1-3.399 1.967m6.733-4.044-1.085-1.68a118 118 0 0 0 3.208-2.148l1.14 1.643a120 120 0 0 1-3.263 2.185m6.453-4.475-1.193-1.605a118 118 0 0 0 3.063-2.354l1.244 1.566a119 119 0 0 1-3.114 2.393m6.149-4.886-1.295-1.525a119 119 0 0 0 2.903-2.547l1.343 1.482q-1.454 1.318-2.951 2.59m5.817-5.276-1.391-1.437q1.388-1.343 2.731-2.731l1.437 1.391a119 119 0 0 1-2.777 2.777m5.462-5.643-1.481-1.343q1.297-1.43 2.547-2.903l1.525 1.295q-1.272 1.497-2.591 2.951m5.084-5.985-1.566-1.245a117 117 0 0 0 2.353-3.062l1.606 1.192a121 121 0 0 1-2.393 3.115m4.683-6.305-1.644-1.139q1.1-1.587 2.149-3.209l1.679 1.085q-1.066 1.65-2.184 3.263m4.262-6.597-1.715-1.029a118 118 0 0 0 1.934-3.342l1.747.973a120 120 0 0 1-1.966 3.398m3.82-6.86-1.778-.915a116 116 0 0 0 1.711-3.463l1.807.857a119 119 0 0 1-1.74 3.521m3.363-7.097-1.834-.797a119 119 0 0 0 1.478-3.565l1.86.735a118 118 0 0 1-1.504 3.627m2.889-7.303-1.884-.674q.65-1.815 1.241-3.656l1.904.611a118 118 0 0 1-1.261 3.719m2.4-7.476-1.924-.548q.529-1.854.998-3.732l1.94.484a120 120 0 0 1-1.014 3.796m3.3-15.35-1.978-.291q.28-1.904.499-3.827l1.987.226a118 118 0 0 1-.508 3.892m.888-7.798-1.993-.162q.156-1.921.249-3.86l1.998.097a121 121 0 0 1-.254 3.925" clip-rule="evenodd"/><path fill="var(--illustration-accent-2)" fill-rule="evenodd" d="M224.993 175.347a4 4 0 0 1-1.959-5.307 108.2 108.2 0 0 0 8.09-25.469 4 4 0 0 1 7.864 1.468 116.2 116.2 0 0 1-8.688 27.349 4 4 0 0 1-5.307 1.959" clip-rule="evenodd"/><path fill="var(--illustration-accent-1)" fill-rule="evenodd" d="M212.485 44.503a12 12 0 0 1-16.97 0A11.998 11.998 0 0 1 204 24.018a12 12 0 0 1 12 12c0 3.183-1.264 6.235-3.515 8.485" clip-rule="evenodd"/><path fill="var(--illustration-white)" d="M203.999 30.018a6 6 0 0 0 6.001 6 6 6 0 0 0-6.001 6 6 6 0 0 0-5.999-6 6 6 0 0 0 5.999-6"/><path fill="var(--illustration-accent-1)" fill-rule="evenodd" d="M20.485 172.485A11.998 11.998 0 0 1 0 164a12 12 0 0 1 12-12 12 12 0 0 1 12 12c0 3.183-1.264 6.235-3.515 8.485" clip-rule="evenodd"/><path fill="var(--illustration-white)" d="M12 158a6 6 0 0 0 6 5.999A6 6 0 0 0 12 170a6 6 0 0 0-6-6.001A6 6 0 0 0 12 158"/><path fill="var(--illustration-gray)" d="M12.001 33c0-6.628-5.372-11.999-12.001-11.999 6.629 0 12.001-5.373 12.001-12.001 0 6.629 5.373 12.001 11.999 12.001-6.626 0-11.999 5.37-11.999 11.999M29 240.5a8 8 0 0 0-8-7.999 8 8 0 0 0 8-8.001 8 8 0 0 0 8 8.001 8 8 0 0 0-8 7.999"/><path fill="var(--illustration-accent-1)" d="M222.001 224.5a8 8 0 0 0-8.001-7.999 8 8 0 0 0 8.001-8.001 8 8 0 0 0 7.999 8.001 8 8 0 0 0-7.999 7.999"/><path fill="var(--illustration-gray)" d="M232.001 56.5a8 8 0 0 0-8.001-8 8 8 0 0 0 8.001-8 8 8 0 0 0 7.999 8 8 8 0 0 0-7.999 8"/><path fill="var(--illustration-positive)" fill-rule="evenodd" d="M66.978 13.155a4 4 0 0 1-1.76 5.376 108.2 108.2 0 0 0-22.155 14.942 4 4 0 1 1-5.253-6.034 116.2 116.2 0 0 1 23.792-16.044 4 4 0 0 1 5.376 1.76" clip-rule="evenodd"/></svg>