<svg xmlns="http://www.w3.org/2000/svg" fill="none" viewBox="0 0 240 240"><path fill="var(--illustration-accent-2)" d="M128 200h80V48h-80z"/><path fill="var(--illustration-primary)" d="M128 200h80v-8h-80zm0-136h80V48h-80z"/><path fill="var(--illustration-white)" d="M170 56a2 2 0 1 0-4 0 2 2 0 0 0 4 0"/><path fill="var(--illustration-gray)" d="M56 88h112v64H56zm72 112h80v40h-80z"/><path fill="var(--illustration-accent-2)" d="M112 40H32v152h80z"/><path fill="var(--illustration-primary)" d="M112 40H32v8h80zm0 136H32v16h80z"/><path fill="var(--illustration-white)" d="M70 184a2 2 0 1 0 4 0 2 2 0 0 0-4 0"/><path fill="var(--illustration-gray)" d="M112 40H32V0h80z"/><path fill="var(--illustration-primary)" d="M112 152H72V88h40zm56 0h-40V88h40z"/><path fill="var(--illustration-primary)" fill-rule="evenodd" d="M145.373 97.373A31.998 31.998 0 0 1 200 120a32 32 0 1 1-54.627-22.627m-98 0a32 32 0 1 1 45.254 45.254 32 32 0 0 1-45.254-45.255" clip-rule="evenodd"/><path fill="var(--illustration-white)" fill-rule="evenodd" d="M190.093 120c0 12.145-9.875 22-22.046 22S146 132.145 146 120s9.876-22 22.047-22 22.046 9.855 22.046 22m-17.985-7.188h-8.094c-1.751 0-3.156 1.417-3.14 3.134v8.077a3.134 3.134 0 0 0 3.14 3.134h8.094a3.135 3.135 0 0 0 3.141-3.134v-8.077a3.135 3.135 0 0 0-3.141-3.134m-84.552 23.057a22 22 0 1 1-31.113-31.111 22 22 0 0 1 31.113 31.111" clip-rule="evenodd"/><path fill="var(--illustration-accent-1)" fill-rule="evenodd" d="M85.827 133.95a19.557 19.557 0 0 1-27.656 0 19.556 19.556 0 1 1 27.656 0" clip-rule="evenodd"/><path fill="var(--illustration-black)" fill-rule="evenodd" d="M55.063 129.9c3.379-5.848 9.698-9.778 16.94-9.778 7.241 0 13.56 3.936 16.946 9.778-3.38 5.848-9.705 9.772-16.934 9.772-7.248.006-13.56-3.93-16.952-9.772q0 .009 0 0" clip-rule="evenodd"/><path fill="var(--illustration-black)" d="M72.002 118.899a6.113 6.113 0 0 0 6.11-6.111 6.113 6.113 0 0 0-6.11-6.111 6.113 6.113 0 0 0-6.111 6.111 6.113 6.113 0 0 0 6.11 6.111"/><path fill="var(--illustration-gray)" d="M191.998 0c0 8.838 7.164 15.998 16.002 15.998-8.838 0-16.002 7.164-16.002 16.002 0-8.838-7.163-16.002-15.998-16.002 8.835 0 15.998-7.16 15.998-15.998M48.002 240c0-8.838-7.164-15.998-16.002-15.998 8.838 0 16.002-7.164 16.002-16.002 0 8.838 7.163 16.002 15.998 16.002-8.835 0-15.998 7.16-15.998 15.998m87.999-200A8 8 0 0 0 128 32a8 8 0 0 0 8.001-8A8 8 0 0 0 144 32a8 8 0 0 0-7.999 8m-32 176A8 8 0 0 0 96 208.001a8 8 0 0 0 8.001-8.001 8 8 0 0 0 7.999 8.001 8 8 0 0 0-7.999 7.999"/><path fill="var(--illustration-invert)" fill-rule="evenodd" d="M32.011 120.283a41 41 0 0 1 0-1.94l2 .048a39 39 0 0 0 0 1.844zm.173-4.832 1.991.19q.088-.918.22-1.823l-1.98-.287a40 40 0 0 0-.23 1.92m.75-4.773 1.954.43q.198-.9.438-1.783l-1.93-.524q-.253.93-.462 1.877m1.324-4.646 1.886.664q.306-.869.651-1.716l-1.852-.755a40 40 0 0 0-.685 1.807m1.877-4.451 1.792.888q.408-.824.855-1.625l-1.747-.974a40 40 0 0 0-.9 1.711m2.402-4.19 1.672 1.097q.505-.769 1.045-1.51L39.637 95.8q-.57.78-1.1 1.59m2.89-3.872 1.528 1.29q.593-.702 1.218-1.374l-1.464-1.363q-.659.708-1.283 1.447m3.332-3.497 1.363 1.464q.672-.625 1.374-1.219l-1.29-1.527q-.74.624-1.447 1.282m3.728-3.072 1.177 1.617q.743-.54 1.51-1.045l-1.097-1.672q-.81.53-1.59 1.1m4.07-2.602.974 1.747a38 38 0 0 1 1.625-.855l-.887-1.792q-.869.43-1.712.9m4.355-2.092.755 1.853q.847-.346 1.716-.652l-.664-1.886q-.915.322-1.807.685m4.576-1.547.524 1.93q.883-.24 1.783-.438l-.43-1.953q-.947.208-1.877.46m4.73-.981.287 1.98q.905-.132 1.823-.22l-.19-1.99q-.968.091-1.92.23m4.812-.403.048 1.999q.46-.01.922-.011h1.01v-2H72q-.486 0-.97.011m5.012-.012v2h2.021v-2zm5.053 0v2h2.02v-2zm5.052 0v2h2.021v-2zm5.053 0v2h2.021v-2zm5.053 0v2h2.02v-2zm5.052 0v2h2.021v-2zm5.053 0v2h2.021v-2zm5.053 0v2h2.021v-2zm5.052 0v2h2.021v-2zm5.053 0v2h2.021v-2zm5.052 0v2h2.021v-2zm5.053 0v2h2.021v-2zm5.053 0v2h2.021v-2zm5.052 0v2h2.021v-2zm5.053 0v2h2.021v-2zm5.053 0v2h2.021v-2zm5.052 0v2h2.021v-2zm5.053 0v2h2.021v-2zm5.052 0v2H168q.463 0 .922.01l.048-1.998a41 41 0 0 0-.97-.012zm4.873.184-.19 1.99q.918.09 1.823.22l.287-1.98a40 40 0 0 0-1.92-.23m4.773.75-.43 1.954q.9.198 1.783.438l.524-1.93a40 40 0 0 0-1.877-.462m4.646 1.323-.664 1.887q.869.306 1.716.652l.755-1.853a40 40 0 0 0-1.807-.686m4.451 1.878-.888 1.792q.824.408 1.625.855l.974-1.747a41 41 0 0 0-1.711-.9m4.191 2.402-1.098 1.672q.768.505 1.511 1.045l1.177-1.617a41 41 0 0 0-1.59-1.1m3.871 2.89-1.29 1.528q.702.593 1.374 1.218l1.363-1.464a40 40 0 0 0-1.447-1.282m3.497 3.332-1.464 1.363a39 39 0 0 1 1.219 1.374l1.528-1.29a40 40 0 0 0-1.283-1.447m3.072 3.728-1.617 1.177q.54.743 1.045 1.51l1.672-1.097q-.531-.81-1.1-1.59m2.602 4.07-1.747.974q.447.801.855 1.625l1.792-.888a40 40 0 0 0-.9-1.71m2.092 4.355-1.853.755q.346.847.652 1.716l1.886-.664a40 40 0 0 0-.685-1.807m1.547 4.576-1.93.524q.24.883.438 1.783l1.954-.43a39 39 0 0 0-.462-1.877m.981 4.73-1.979.287q.13.905.219 1.823l1.991-.19a40 40 0 0 0-.231-1.92m.403 4.812-1.999.048a40 40 0 0 1 0 1.844l1.999.048a39 39 0 0 0 0-1.94m-.172 4.832-1.991-.19q-.089.918-.219 1.823l1.979.287q.138-.953.231-1.92m-.75 4.773-1.954-.43q-.198.9-.438 1.783l1.93.524q.254-.93.462-1.877m-1.324 4.646-1.886-.664a37 37 0 0 1-.652 1.716l1.853.755q.363-.893.685-1.807m-1.877 4.451-1.792-.888a38 38 0 0 1-.855 1.625l1.747.974q.47-.844.9-1.711m-2.402 4.191-1.672-1.098a38 38 0 0 1-1.045 1.511l1.617 1.177a41 41 0 0 0 1.1-1.59m-2.889 3.871-1.528-1.29a39 39 0 0 1-1.219 1.374l1.464 1.363q.659-.708 1.283-1.447m-3.333 3.497-1.363-1.464q-.672.626-1.374 1.218l1.29 1.528q.74-.623 1.447-1.282m-3.728 3.072-1.177-1.617q-.743.54-1.511 1.045l1.098 1.672a41 41 0 0 0 1.59-1.1m-4.07 2.602-.974-1.747q-.801.447-1.625.855l.888 1.792a40 40 0 0 0 1.711-.9m-4.355 2.092-.755-1.853q-.847.346-1.716.652l.664 1.886a40 40 0 0 0 1.807-.685m-4.576 1.547-.524-1.93q-.883.24-1.783.438l.43 1.954a39 39 0 0 0 1.877-.462m-4.73.981-.287-1.979q-.905.13-1.823.219l.19 1.991a40 40 0 0 0 1.92-.231m-4.812.403-.048-1.999q-.46.01-.922.011h-1.011v2H168q.486 0 .97-.012m-5.012.012v-2h-2.021v2zm-5.053 0v-2h-2.021v2zm-5.052 0v-2h-2.021v2zm-5.053 0v-2h-2.021v2zm-5.053 0v-2h-2.021v2zm-5.052 0v-2h-2.021v2zm-5.053 0v-2h-2.021v2zm-5.053 0v-2h-2.021v2zm-5.052 0v-2h-2.021v2zm-5.053 0v-2h-2.021v2zm-5.052 0v-2h-2.021v2zm-5.053 0v-2h-2.021v2zm-5.053 0v-2h-2.021v2zm-5.052 0v-2h-2.021v2zm-5.053 0v-2H91.2v2zm-5.053 0v-2h-2.02v2zm-5.052 0v-2h-2.021v2zm-5.053 0v-2h-2.02v2zm-5.052 0v-2H72q-.463 0-.922-.011l-.048 1.999q.484.012.97.012zm-4.873-.184.19-1.991a39 39 0 0 1-1.823-.219l-.287 1.979a40 40 0 0 0 1.92.231m-4.773-.75.43-1.954a38 38 0 0 1-1.783-.438l-.524 1.93q.93.254 1.877.462m-4.646-1.324.664-1.886a38 38 0 0 1-1.716-.652l-.755 1.853a40 40 0 0 0 1.807.685m-4.45-1.877.887-1.792a37 37 0 0 1-1.625-.855l-.974 1.747q.844.47 1.712.9m-4.192-2.402 1.098-1.672a38 38 0 0 1-1.51-1.045l-1.178 1.617q.78.569 1.59 1.1m-3.871-2.89 1.29-1.528a38 38 0 0 1-1.374-1.218l-1.363 1.464q.708.659 1.447 1.282m-3.497-3.332 1.464-1.363a38 38 0 0 1-1.218-1.374l-1.529 1.29q.624.74 1.283 1.447m-3.072-3.728 1.617-1.177q-.54-.743-1.045-1.511l-1.672 1.098q.53.808 1.1 1.59m-2.602-4.07 1.747-.974a38 38 0 0 1-.855-1.625l-1.792.888q.43.867.9 1.711m-2.092-4.355 1.852-.755a37 37 0 0 1-.65-1.716l-1.888.664q.323.914.686 1.807m-1.547-4.576 1.93-.524a38 38 0 0 1-.438-1.783l-1.953.43q.207.947.46 1.877m-.981-4.73 1.98-.287a38 38 0 0 1-.22-1.823l-1.99.19q.091.967.23 1.92" clip-rule="evenodd"/><path fill="var(--illustration-primary)" d="M72.001 32c0-6.628-5.373-11.999-12.001-11.999 6.629 0 12.001-5.373 12.001-12.001 0 6.629 5.373 12.001 11.999 12.001-6.626 0-11.999 5.37-11.999 11.999m96 200c0-6.629-5.372-11.999-12.001-11.999 6.629 0 12.001-5.372 12.001-12.001 0 6.629 5.373 12.001 11.999 12.001-6.626 0-11.999 5.37-11.999 11.999"/></svg>