<svg xmlns="http://www.w3.org/2000/svg" fill="none" viewBox="0 0 240 240"><path fill="var(--illustration-positive)" d="M0 120h240v120H0V120Z"/><path fill="var(--illustration-primary)" d="M224 136h16v32h-16v-32ZM8 184h24v40H8v-40Zm40 16h8v24h-8v-24Zm0-32h8v24h-8v-24Zm0-32h8v24h-8v-24Z"/><path fill="var(--illustration-gray)" d="M128 0h80v120h-80V0Z"/><path fill="var(--illustration-primary)" d="M128 120h80v60h-80v-60Z"/><path fill="var(--illustration-accent-1)" d="M128 180c0-22.091 17.909-40 40-40s40 17.909 40 40-17.909 40-40 40-40-17.909-40-40Z"/><path fill="var(--illustration-black)" fill-rule="evenodd" d="M167.997 208.167c15.556 0 28.167-12.611 28.167-28.167h2c0 16.661-13.506 30.167-30.167 30.167-16.66 0-30.166-13.506-30.166-30.167h2c0 15.556 12.61 28.167 28.166 28.167Zm.006-56.334c-15.556 0-28.167 12.611-28.167 28.167h-2c0-16.661 13.506-30.167 30.167-30.167 16.66 0 30.166 13.506 30.166 30.167h-2c0-15.556-12.61-28.167-28.166-28.167Z" clip-rule="evenodd"/><path fill="var(--illustration-black)" fill-rule="evenodd" d="M167 200v-40h2v40h-2Z" clip-rule="evenodd"/><path fill="var(--illustration-black)" fill-rule="evenodd" d="M148 179h40v2h-40v-2Z" clip-rule="evenodd"/><path fill="var(--illustration-black)" fill-rule="evenodd" d="m156.076 190.513 22.44-22.44 1.414 1.414-22.44 22.44-1.414-1.414Z" clip-rule="evenodd"/><path fill="var(--illustration-black)" fill-rule="evenodd" d="m157.49 168.073 22.44 22.44-1.415 1.414-22.439-22.44 1.414-1.414Z" clip-rule="evenodd"/><path fill="var(--illustration-invert)" fill-rule="evenodd" d="m168.062 120.532-24.765-24.766 1.414-1.414 23.351 23.351 23.352-23.351 1.414 1.414-24.766 24.766Z" clip-rule="evenodd"/><path fill="var(--illustration-invert)" fill-rule="evenodd" d="M167 119V0h2v119h-2Z" clip-rule="evenodd"/><path fill="var(--illustration-gray)" d="M64 28h8v48h-8V28Zm8 8h8v40h-8V36Zm8-16h8v56h-8V20Zm8 24h8v32h-8V44Zm8-16h8v48h-8V28Z"/><path fill="var(--illustration-primary)" d="M104 76c0 11.046-8.954 20-20 20s-20-8.954-20-20 8.954-20 20-20 20 8.954 20 20Z"/><path fill="var(--illustration-black)" fill-rule="evenodd" d="M84 56c-11.046 0-20 8.954-20 20h40c0-11.046-8.954-20-20-20Z" clip-rule="evenodd"/><path fill="var(--illustration-gray)" d="M8 6.421h6.421v38.526H8V6.421Zm6.422 12.842h6.42v25.684h-6.42V19.263ZM20.844 0h6.42v44.947h-6.42V0Zm6.422 12.842h6.42v32.105h-6.42V12.842Zm6.422-6.421h6.42v38.526h-6.42V6.421Z"/><path fill="var(--illustration-positive)" d="M40.105 44.947C40.105 53.813 32.918 61 24.053 61 15.187 61 8 53.813 8 44.947c0-8.865 7.187-16.052 16.053-16.052 8.865 0 16.052 7.187 16.052 16.052Z"/><path fill="var(--illustration-primary)" fill-rule="evenodd" d="M40.105 44.947c0-8.84-7.147-16.012-15.978-16.052h-.149C15.147 28.935 8 36.106 8 44.947h32.105Z" clip-rule="evenodd"/><path fill="var(--illustration-primary)" d="M8 136h24v24H8v-24Z"/></svg>