<svg xmlns="http://www.w3.org/2000/svg" fill="none" viewBox="0 0 240 240"><path fill="var(--illustration-primary)" fill-rule="evenodd" d="m120.358 200-57.755-99.899C36.892 55.626 68.986 0 120.358 0s83.466 55.626 57.754 100.101L120.358 200Z" clip-rule="evenodd"/><path fill="var(--illustration-gray)" d="M0 168h240v72H0v-72Z"/><path fill="var(--illustration-black)" fill-rule="evenodd" d="m101.859 168 18.5 32 18.5-32h-37Z" clip-rule="evenodd"/><path fill="var(--illustration-invert)" fill-rule="evenodd" d="m47.297 144.707-32-32 1.414-1.414 32 32-1.414 1.414Z" clip-rule="evenodd"/><path fill="var(--illustration-invert)" fill-rule="evenodd" d="m15.297 143.293 32-32 1.414 1.414-32 32-1.414-1.414Z" clip-rule="evenodd"/><path fill="var(--illustration-invert)" fill-rule="evenodd" d="M31 131.167V128h2v3.167h-2ZM209 128v3.167h-2V128h2ZM31 143.833V137.5h2v6.333h-2Zm178-6.333v6.333h-2V137.5h2Zm-178 19v-6.333h2v6.333h-2Zm178-6.333v6.333h-2v-6.333h2Zm0 12.666v6.334h-2v-6.334h2Zm-178 6.334v-6.334h2v6.334h-2Zm178 6.333v6.333h-2V175.5h2Zm-178 6.333V175.5h2v6.333h-2Zm0 12.667v-6.333h2v6.333h-2Zm178-6.333v6.333h-2v-6.333h2Zm0 12.666V204c0 .929-.06 1.844-.177 2.742l-1.984-.259c.106-.812.161-1.641.161-2.483v-3.167h2ZM31 204v-3.167h2V204c0 .842.055 1.671.16 2.483l-1.983.259A21.195 21.195 0 0 1 31 204Zm176.406 8.039a20.979 20.979 0 0 1-2.745 4.746l-1.586-1.219a18.986 18.986 0 0 0 2.484-4.293l1.847.766Zm-172.067 4.746a20.98 20.98 0 0 1-2.745-4.746l1.847-.766a18.966 18.966 0 0 0 2.484 4.293l-1.586 1.219Zm8.622 6.621a20.978 20.978 0 0 1-4.746-2.745l1.219-1.586a19.006 19.006 0 0 0 4.293 2.484l-.766 1.847Zm156.824-2.745a20.979 20.979 0 0 1-4.746 2.745l-.766-1.847a18.986 18.986 0 0 0 4.293-2.484l1.219 1.586ZM52 225c-.929 0-1.844-.06-2.742-.177l.26-1.984c.811.106 1.64.161 2.482.161h3.09v2H52Zm138.742-.177c-.898.117-1.813.177-2.742.177h-3.091v-2H188c.842 0 1.671-.055 2.483-.161l.259 1.984ZM67.455 225h-6.182v-2h6.181v2Zm12.363 0h-6.182v-2h6.182v2Zm12.364 0H86v-2h6.182v2Zm12.363 0h-6.181v-2h6.181v2Zm12.364 0h-6.182v-2h6.182v2Zm12.364 0h-6.182v-2h6.182v2Zm12.363 0h-6.181v-2h6.181v2ZM154 225h-6.182v-2H154v2Zm12.364 0h-6.182v-2h6.182v2Zm12.363 0h-6.182v-2h6.182v2Z" clip-rule="evenodd"/><path fill="var(--illustration-invert)" fill-rule="evenodd" d="M208 113c-8.284 0-15 6.716-15 15 0 8.284 6.716 15 15 15 8.284 0 15-6.716 15-15 0-8.284-6.716-15-15-15Zm-17 15c0-9.389 7.611-17 17-17s17 7.611 17 17-7.611 17-17 17-17-7.611-17-17Z" clip-rule="evenodd"/><path fill="var(--illustration-invert)" d="m200 182 8 5.333V198l-8-16Zm16 0-8 5.333V198l8-16Zm-116 34-5.333 8H84l16-8Zm0 16-5.333-8H84l16 8Zm-60-56-8-5.333V160l8 16Zm-16 0 8-5.333V160l-8 16Zm189-48a5 5 0 1 1-10.001-.001A5 5 0 0 1 213 128Z"/><path fill="var(--illustration-accent-1)" d="m120 20 42 72H78l42-72Z"/><path fill="var(--illustration-black)" d="M122 69.4h-3.3L117 45h6.6L122 69.4Zm-1.7 10.5c1.8 0 3.3-1.6 3.3-3.5s-1.5-3.5-3.3-3.5c-1.8 0-3.3 1.6-3.3 3.5s1.5 3.5 3.3 3.5Z"/></svg>