<svg xmlns="http://www.w3.org/2000/svg" fill="none" viewBox="0 0 240 240"><path fill="var(--illustration-primary)" fill-rule="evenodd" d="M120.36 200 62.6 100.1C36.9 55.63 69 0 120.36 0s83.46 55.63 57.75 100.1L120.36 200Z" clip-rule="evenodd"/><path fill="var(--illustration-gray)" d="M0 168h240v72H0v-72Z"/><path fill="var(--illustration-black)" fill-rule="evenodd" d="m101.86 168 18.5 32 18.5-32h-37Z" clip-rule="evenodd"/><path fill="var(--illustration-invert)" fill-rule="evenodd" d="m47.3 144.7-32-32 1.41-1.4 32 32-1.41 1.4Z" clip-rule="evenodd"/><path fill="var(--illustration-invert)" fill-rule="evenodd" d="m15.3 143.3 32-32 1.41 1.4-32 32-1.41-1.4Z" clip-rule="evenodd"/><path fill="var(--illustration-invert)" fill-rule="evenodd" d="M31 131.17V128h2v3.17h-2ZM209 128v3.17h-2V128h2ZM31 143.83v-6.33h2v6.33h-2Zm178-6.33v6.33h-2v-6.33h2Zm-178 19v-6.33h2v6.33h-2Zm178-6.33v6.33h-2v-6.33h2Zm0 12.66v6.34h-2v-6.34h2Zm-178 6.34v-6.34h2v6.34h-2Zm178 6.33v6.33h-2v-6.33h2Zm-178 6.33v-6.33h2v6.33h-2Zm0 12.67v-6.33h2v6.33h-2Zm178-6.33v6.33h-2v-6.33h2Zm0 12.66V204c0 .93-.06 1.84-.18 2.74l-1.98-.26c.1-.8.16-1.64.16-2.48v-3.17h2ZM31 204v-3.17h2V204c0 .84.05 1.67.16 2.48l-1.98.26A21.2 21.2 0 0 1 31 204Zm176.4 8.04c-.7 1.7-1.63 3.3-2.74 4.75l-1.59-1.22a18.77 18.77 0 0 0 2.49-4.3l1.85.77Zm-172.06 4.75a20.98 20.98 0 0 1-2.75-4.75l1.85-.77a18.97 18.97 0 0 0 2.48 4.3l-1.58 1.22Zm8.62 6.62a21.1 21.1 0 0 1-4.74-2.75l1.21-1.59a19 19 0 0 0 4.3 2.49l-.77 1.85Zm156.82-2.75a20.98 20.98 0 0 1-4.74 2.75l-.77-1.85a18.99 18.99 0 0 0 4.3-2.49l1.22 1.6ZM52 225c-.93 0-1.84-.06-2.74-.18l.26-1.98c.8.1 1.64.16 2.48.16h3.1v2H52Zm138.74-.18c-.9.12-1.81.18-2.74.18h-3.1v-2h3.1c.84 0 1.67-.06 2.48-.16l.26 1.98ZM67.45 225h-6.18v-2h6.18v2Zm12.37 0h-6.18v-2h6.18v2Zm12.36 0H86v-2h6.18v2Zm12.36 0h-6.18v-2h6.19v2Zm12.37 0h-6.18v-2h6.18v2Zm12.36 0h-6.18v-2h6.18v2Zm12.37 0h-6.18v-2h6.18v2Zm12.36 0h-6.18v-2H154v2Zm12.36 0h-6.18v-2h6.18v2Zm12.37 0h-6.19v-2h6.19v2Z" clip-rule="evenodd"/><path fill="var(--illustration-invert)" fill-rule="evenodd" d="M208 113a15 15 0 1 0 0 30 15 15 0 0 0 0-30Zm-17 15a17 17 0 1 1 34 0 17 17 0 0 1-34 0Z" clip-rule="evenodd"/><path fill="var(--illustration-invert)" d="m200 182 8 5.33V198l-8-16Zm16 0-8 5.33V198l8-16Zm-116 34-5.33 8H84l16-8Zm0 16-5.33-8H84l16 8Zm-60-56-8-5.33V160l8 16Zm-16 0 8-5.33V160l-8 16Zm189-48a5 5 0 1 1-10 0 5 5 0 0 1 10 0Z"/><path fill="var(--illustration-accent-1)" d="m120 20 42 72H78l42-72Z"/><path fill="var(--illustration-black)" d="M122 69.4h-3.3L117 45h6.6L122 69.4Zm-1.7 10.5c1.8 0 3.3-1.6 3.3-3.5s-1.5-3.5-3.3-3.5c-1.8 0-3.3 1.6-3.3 3.5s1.5 3.5 3.3 3.5Z"/></svg>