<svg xmlns="http://www.w3.org/2000/svg" fill="none" viewBox="0 0 240 240"><path fill="var(--illustration-gray)" d="M214 24h-48v216h48V24Zm-70 60H96v156h48V84Z"/><path fill="var(--illustration-gray)" d="M144 84H96v156h48V84Z"/><path fill="var(--illustration-primary)" d="M144 83.47c0 13.3-10.7 24-24 24s-24-10.7-24-24h48Z"/><path fill="var(--illustration-accent-2)" d="M96 83.47c0-13.3 10.7-24 24-24s24 10.7 24 24H96Z"/><path fill="var(--illustration-black)" fill-rule="evenodd" d="M120 68.47a15 15 0 1 0 .01 30.01 15 15 0 0 0-.01-30.01Zm-17 15a17 17 0 1 1 34 0 17 17 0 0 1-34 0Z" clip-rule="evenodd"/><path fill="var(--illustration-gray)" d="M74 112H26v128h48V112Z"/><path fill="var(--illustration-positive)" d="M240 83.47V202.3H0L240 83.47Z"/><path fill="var(--illustration-black)" d="M214 96.35V202.3h-48v-82.18l48-23.77Z"/><path fill="var(--illustration-primary)" d="M214 96.35V202.3h-48v-82.18l48-23.77Zm-70 34.66v71.29H96v-47.53l48-23.76Zm-70 34.65v36.64H26v-12.87l48-23.77ZM74 112c0 13.3-10.7 24-24 24s-24-10.7-24-24h48Z"/><path fill="var(--illustration-accent-2)" d="M26 112c0-13.3 10.7-24 24-24s24 10.7 24 24H26Z"/><path fill="var(--illustration-black)" fill-rule="evenodd" d="M50 97a15 15 0 1 0 .01 30.01A15 15 0 0 0 50 97Zm-17 15a17 17 0 1 1 34 0 17 17 0 0 1-34 0Z" clip-rule="evenodd"/><path fill="var(--illustration-primary)" d="M190 80a40.04 40.04 0 0 0 36.95-24.69A40 40 0 1 0 190 80Z"/><path fill="var(--illustration-white)" d="M200.96 46.36c0-5.83-3.55-7.8-10.42-8.74-5.07-.73-6.05-1.92-6.05-4.29s1.72-3.84 5-3.84c3 0 4.72 1.04 5.42 3.45a1.27 1.27 0 0 0 1.21.92h2.63c.17 0 .34-.03.5-.1a1.12 1.12 0 0 0 .65-.75c.05-.17.06-.34.03-.51-.83-3.81-3.4-6.1-7.42-6.82v-4.02c0-.33-.13-.65-.37-.88a1.28 1.28 0 0 0-.88-.37h-2.5a1.26 1.26 0 0 0-1.25 1.25v3.87c-5 .7-8.16 4-8.16 8.23 0 5.48 3.33 7.6 10.3 8.54 4.74.77 6.1 1.8 6.1 4.49 0 2.69-2.3 4.5-5.54 4.5-4.36 0-5.83-1.91-6.32-4.38a1.26 1.26 0 0 0-1.22-1.01h-2.85a1.17 1.17 0 0 0-1.16 1.36c.73 4.17 3.4 7.22 8.85 7.95v3.95a1.26 1.26 0 0 0 1.25 1.25h2.5a1.26 1.26 0 0 0 1.25-1.25v-3.95c5.17-.82 8.46-4.38 8.46-8.86v.01Z"/><path fill="var(--illustration-white)" d="M181.42 63.9A25.04 25.04 0 0 1 165 40.42a24.97 24.97 0 0 1 16.42-23.48 1.8 1.8 0 0 0 1.07-1.57v-2.33a1.19 1.19 0 0 0-1.66-1.19 29.96 29.96 0 0 0-20.9 28.58 29.98 29.98 0 0 0 20.9 28.58 1.14 1.14 0 0 0 1.17-.12 1.19 1.19 0 0 0 .49-1.07v-2.33a1.76 1.76 0 0 0-.31-.94c-.2-.28-.45-.5-.76-.63v-.02Zm17.75-52.07a1.14 1.14 0 0 0-1.17.12 1.19 1.19 0 0 0-.5 1.07v2.33c.02.34.13.66.32.94.19.28.45.5.76.63a24.99 24.99 0 0 1 0 46.96c-.32.12-.6.34-.8.62a1.8 1.8 0 0 0-.28.96v2.33a1.19 1.19 0 0 0 1.66 1.19 29.96 29.96 0 0 0 20.89-28.58 29.98 29.98 0 0 0-20.9-28.58l.02.01Z"/><path fill="var(--illustration-invert)" d="M240 238H0v2h240v-2Z"/><path fill="var(--illustration-invert)" fill-rule="evenodd" d="m189.8 87.59 8.7 8.71-1.4 1.41-7.3-7.29-7.28 7.29-1.41-1.41 8.7-8.71h-.01Z" clip-rule="evenodd"/><path fill="var(--illustration-invert)" fill-rule="evenodd" d="M188.8 239V89h2v150h-2Z" clip-rule="evenodd"/><path fill="var(--illustration-primary)" d="M214 142.83v24a19.86 19.86 0 0 1 12-12 19.86 19.86 0 0 1-12-12Z"/><path fill="var(--illustration-black)" d="M214 166.83a19.86 19.86 0 0 0-12-12 19.86 19.86 0 0 0 12-12v24Z"/><path fill="var(--illustration-gray)" d="M136 16a19.86 19.86 0 0 1-12 12 19.86 19.86 0 0 1 12 12 19.86 19.86 0 0 1 12-12 19.86 19.86 0 0 1-12-12Zm96 48a13.26 13.26 0 0 1-8 8 13.26 13.26 0 0 1 8 8 13.26 13.26 0 0 1 8-8 13.26 13.26 0 0 1-8-8Z"/></svg>