<svg xmlns="http://www.w3.org/2000/svg" fill="none" viewBox="0 0 240 240"><path fill="var(--illustration-gray)" d="M240 120H0v120h240V120ZM119 12C59.4 12 11 60.4 11 120h216c0-59.6-48.4-108-108-108Z"/><path fill="var(--illustration-invert-2)" d="M212 124c0-50.8-41.2-92-92-92v184c50.8 0 92-41.2 92-92Z"/><path fill="var(--illustration-positive)" d="M120 120H0v120h120V120Z"/><path fill="var(--illustration-invert-2)" d="M28 124c0 50.8 41.2 92 92 92V32c-50.8 0-92 41.2-92 92Z"/><path fill="var(--illustration-primary)" d="M28 124c0 50.8 41.2 92 92 92v-96.2H28.1c-.1 1.4-.1 2.8-.1 4.2Z"/><path fill="var(--illustration-invert)" fill-rule="evenodd" d="M150.87 67.02C142.87 53.14 131.95 45 120 45v-2c12.95 0 24.42 8.81 32.6 23.03 8.2 14.23 13.2 34.03 13.2 56.47 0 22.44-5 42.98-13.19 57.96C144.46 195.39 133 205 120 205v-2c11.91 0 22.85-8.84 30.86-23.5 8-14.63 12.94-34.84 12.94-57 0-22.16-4.95-41.6-12.93-55.48ZM39 122.5C39 77.32 74.97 43 120 43v2c-43.97 0-79 33.48-79 77.5 0 44.07 35.08 80.5 79 80.5v2c-45.08 0-81-37.37-81-82.5Z" clip-rule="evenodd"/><path fill="var(--illustration-invert)" fill-rule="evenodd" d="M156 75h28v2h-28v-2Zm2.4 88h31v2h-31v-2ZM140 119h100v2H140v-2Zm-89 45a1 1 0 0 1 1-1h68a1 1 0 0 1 0 2H52a1 1 0 0 1-1-1Z" clip-rule="evenodd"/><path fill="var(--illustration-invert)" fill-rule="evenodd" d="M89.06 67.02C81.1 80.9 76.2 100.33 76.2 122.5c0 22.17 4.9 42.37 12.87 57C97.06 194.16 107.99 203 120 203v2c-13.08 0-24.55-9.6-32.69-24.55-8.15-14.97-13.1-35.52-13.1-57.95s4.95-42.24 13.11-56.47C95.48 51.8 106.96 43 120 43v2c-12.05 0-22.97 8.14-30.94 22.02ZM120 43c44.75 0 81 35.84 81 81s-36.25 81-81 81v-2c43.65 0 79-34.96 79-79s-35.35-79-79-79v-2Z" clip-rule="evenodd"/><path fill="var(--illustration-invert)" fill-rule="evenodd" d="m142.58 164-7.3-7.3 1.42-1.4 8.71 8.7-8.7 8.7-1.42-1.4 7.3-7.3Z" clip-rule="evenodd"/><path fill="var(--illustration-invert)" fill-rule="evenodd" d="M72 163h72v2H72v-2Zm70.58-87-7.3-7.3 1.42-1.4 8.71 8.7-8.7 8.7-1.42-1.4 7.3-7.3Z" clip-rule="evenodd"/><path fill="var(--illustration-invert)" fill-rule="evenodd" d="M56 75h88v2H56v-2Zm81.41 45 7.3-7.3-1.42-1.4-8.7 8.7 8.7 8.7 1.42-1.4-7.3-7.3Z" clip-rule="evenodd"/><path fill="var(--illustration-invert)" fill-rule="evenodd" d="M208 121h-72v-2h72v2Z" clip-rule="evenodd"/><path fill="var(--illustration-black)" fill-rule="evenodd" d="M76.22 119.8h-2l-.02 2.7c0 14.65 2.11 28.49 5.85 40.5H52a.99.99 0 0 0-.24.03 81.3 81.3 0 0 1-10.72-43.23h-2c-.03.9-.04 1.8-.04 2.7 0 45.13 35.92 82.5 81 82.5v-2c-12.01 0-22.95-8.84-30.93-23.5A92.11 92.11 0 0 1 82.8 165H120v-2H82.14c-3.78-11.93-5.94-25.78-5.94-40.5 0-.9 0-1.8.02-2.7Zm31.43 82.22c-7.93-3.93-14.88-11.55-20.34-21.57A94.67 94.67 0 0 1 80.69 165H52.93c11.85 19.37 31.56 33.32 54.72 37.02Z" clip-rule="evenodd"/><path fill="var(--illustration-invert)" fill-rule="evenodd" d="M0 119h120v2H0v-2Z" clip-rule="evenodd"/><path fill="var(--illustration-invert)" fill-rule="evenodd" d="M119 205V44h2v161h-2Z" clip-rule="evenodd"/></svg>