<svg xmlns="http://www.w3.org/2000/svg" fill="none" viewBox="0 0 240 240"><path fill="var(--illustration-accent-2)" d="M0 80h240v80H0V80Z"/><path fill="var(--illustration-primary)" d="M24 80h192v80H24V80Z"/><path fill="var(--illustration-black)" fill-rule="evenodd" d="M208 105.4h-96v-2h96v2Zm0 16h-96v-2h96v2Zm0 16h-96v-2h96v2Z" clip-rule="evenodd"/><path fill="var(--illustration-positive)" d="M88 120a24 24 0 1 1-48 0 24 24 0 0 1 48 0Z"/><path fill="var(--illustration-white)" fill-rule="evenodd" d="M92 120a28 28 0 1 1-56 0 28 28 0 0 1 56 0Zm-28 24a24 24 0 1 0 0-48 24 24 0 0 0 0 48Z" clip-rule="evenodd"/><path fill="var(--illustration-gray)" d="M24 0h192v80H24V0Z"/><path fill="var(--illustration-black)" fill-rule="evenodd" d="M208 25.4h-96v-2h96v2Zm0 16h-96v-2h96v2Zm0 16h-96v-2h96v2Z" clip-rule="evenodd"/><path fill="var(--illustration-invert-2)" d="M88 40a24 24 0 1 1-48 0 24 24 0 0 1 48 0Z"/><path fill="var(--illustration-gray)" d="M24 160h192v80H24v-80Z"/><path fill="var(--illustration-black)" fill-rule="evenodd" d="M208 185.4h-96v-2h96v2Zm0 16h-96v-2h96v2Zm0 16h-96v-2h96v2Z" clip-rule="evenodd"/><path fill="var(--illustration-invert-2)" d="M88 200a24 24 0 1 1-48 0 24 24 0 0 1 48 0Z"/><path fill="var(--illustration-black)" fill-rule="evenodd" d="M80.23 110.73 59.59 131.4l-11.82-11.84 1.41-1.42 10.41 10.42 19.23-19.25 1.41 1.42Z" clip-rule="evenodd"/></svg>