<svg xmlns="http://www.w3.org/2000/svg" fill="none" viewBox="0 0 240 240"><path fill="var(--illustration-gray)" d="M228 120h-56v120h56V120Z"/><path fill="var(--illustration-black)" fill-rule="evenodd" d="M41 119.89a78.998 78.998 0 0 0 79 79v2a80.999 80.999 0 0 1-81-81h2Zm134.861-55.631A78.998 78.998 0 0 0 120 41.12v-2a81.001 81.001 0 0 1 81 81h-2a78.998 78.998 0 0 0-23.139-55.861Z" clip-rule="evenodd"/><path fill="var(--illustration-black)" fill-rule="evenodd" d="M120 41a79 79 0 0 0-79 79h-2a81 81 0 0 1 81-81v2Z" clip-rule="evenodd"/><path fill="var(--illustration-gray)" fill-rule="evenodd" d="M120 228a108 108 0 1 1 108-108h-56a52 52 0 0 0-51.5-51.998V68h-.5v.002a52 52 0 0 0 0 103.996V228Z" clip-rule="evenodd"/><path fill="var(--illustration-primary)" d="M120 148a28 28 0 0 1 0-56m0 108v-40a39.998 39.998 0 0 0-40 40v40h40v-40Z"/><path fill="var(--illustration-gray)" fill-rule="evenodd" d="M148.284 171.716A39.996 39.996 0 0 0 120 160v80h40v-40a39.996 39.996 0 0 0-11.716-28.284Z" clip-rule="evenodd"/><path fill="var(--illustration-invert)" fill-rule="evenodd" d="M120.003 92v28l-19.8-19.8a27.907 27.907 0 0 1 19.8-8.2Zm19.799 8.201A28 28 0 0 0 120.003 92v56a28 28 0 0 0 19.799-47.799Zm68.909 63.092-8.707-8.707-8.707 8.707 1.414 1.414 6.293-6.293V240h2v-81.586l6.293 6.293 1.414-1.414Z" clip-rule="evenodd"/><path fill="var(--illustration-accent-1)" fill-rule="evenodd" d="M100.201 59.8a28 28 0 1 0 39.598-39.6A28 28 0 0 0 100.2 59.8Zm-80 40.13a28 28 0 1 0 39.6 39.6 28 28 0 0 0-39.6-39.6Z" clip-rule="evenodd"/><path fill="var(--illustration-black)" fill-rule="evenodd" d="M32.59 101.835a19.351 19.351 0 0 1 14.821 0 19.348 19.348 0 0 1 10.479 10.483 19.361 19.361 0 0 1 1.47 7.412h.505-.504a19.36 19.36 0 1 1-38.72 0h-.504.504a19.363 19.363 0 0 1 11.949-17.895ZM18.64 119.73a21.363 21.363 0 0 1 13.184-19.743 21.36 21.36 0 0 1 29.537 19.744v-.001m-42.72 0a21.357 21.357 0 0 0 13.186 19.734 21.359 21.359 0 0 0 29.534-19.733M112.59 22.11a19.356 19.356 0 0 1 21.104 4.198 19.372 19.372 0 0 1 5.667 13.696h.503-.503a19.36 19.36 0 0 1-38.72 0h-.504.504A19.352 19.352 0 0 1 112.59 22.11ZM98.64 40.003a21.35 21.35 0 0 1 6.253-15.11 21.366 21.366 0 0 1 23.284-4.632 21.355 21.355 0 0 1 13.184 19.743m-42.72 0a21.352 21.352 0 0 0 6.256 15.103 21.358 21.358 0 0 0 36.464-15.103" clip-rule="evenodd"/><path fill="var(--illustration-accent-1)" fill-rule="evenodd" d="M180.201 100.201a28 28 0 1 0 39.598 39.598 28 28 0 0 0-39.598-39.598Z" clip-rule="evenodd"/><path fill="var(--illustration-black)" d="M120 171.5a51.258 51.258 0 0 1-22-4.92A40.003 40.003 0 0 0 80 200v20.35a107.819 107.819 0 0 0 40 7.65v-56.5Z"/><path fill="var(--illustration-primary)" d="M120 172a28 28 0 0 1 0 56"/><path fill="var(--illustration-accent-1)" d="M120 228a28 28 0 0 1 0-56"/><path fill="var(--illustration-black)" fill-rule="evenodd" d="M192.59 102.11a19.347 19.347 0 0 1 14.822 0 19.354 19.354 0 0 1 11.949 17.894l.503.001h-.503a19.358 19.358 0 0 1-19.36 19.36 19.358 19.358 0 0 1-19.36-19.36h-.504l.504-.001a19.354 19.354 0 0 1 11.949-17.894Zm-13.949 17.895a21.344 21.344 0 0 1 1.623-8.177 21.358 21.358 0 0 1 34.844-6.933 21.358 21.358 0 0 1 6.253 15.11m-42.72 0a21.35 21.35 0 0 0 6.256 15.104 21.373 21.373 0 0 0 15.104 6.256 21.36 21.36 0 0 0 21.36-21.36M112.59 182.11a19.347 19.347 0 0 1 14.822 0 19.354 19.354 0 0 1 11.949 17.895h.503-.503a19.358 19.358 0 0 1-19.36 19.36 19.358 19.358 0 0 1-19.36-19.36h-.504.504a19.354 19.354 0 0 1 11.949-17.895Zm-13.95 17.895a21.354 21.354 0 0 1 6.253-15.11 21.358 21.358 0 0 1 30.215 0 21.369 21.369 0 0 1 6.253 15.11m-42.72 0a21.353 21.353 0 0 0 6.256 15.104 21.373 21.373 0 0 0 15.104 6.256 21.36 21.36 0 0 0 21.36-21.36" clip-rule="evenodd"/></svg>