<svg xmlns="http://www.w3.org/2000/svg" fill="none" viewBox="0 0 240 240"><path fill="var(--illustration-gray)" d="M80 48H0v72h80V48Z"/><path fill="var(--illustration-primary)" d="M80 48H0l40-16 40 16Z"/><path fill="var(--illustration-gray)" d="M240 120h-80v120h80V120Z"/><path fill="var(--illustration-accent-1)" d="M160 120a80 80 0 0 1-160 0h160Z"/><path fill="var(--illustration-primary)" d="M80 200v-80H0a80 80 0 0 0 80 80Z"/><path fill="var(--illustration-accent-1)" d="M80 120a80 80 0 0 1 160 0H80Z"/><path fill="var(--illustration-primary)" d="M228 120a28 28 0 0 1-56 0"/><path fill="var(--illustration-black)" d="M172 120a28 28 0 0 1 56 0"/><path fill="var(--illustration-primary)" d="M200 160a40 40 0 0 0-40 40v40h80v-40a40 40 0 0 0-40-40Z"/><path fill="var(--illustration-black)" d="M80 120a40 40 0 1 0 66.9-29.61c-1-.86-1.94-1.68-3-2.44a41.2 41.2 0 0 0-6.59-4.01A40 40 0 0 0 80 120Z"/><path fill="var(--illustration-primary)" fill-rule="evenodd" d="M147 120H93a27 27 0 1 0 54 0Zm2 0a29 29 0 0 1-58 0H80a40 40 0 1 0 80 0h-11Z" clip-rule="evenodd"/><path fill="var(--illustration-black)" fill-rule="evenodd" d="M0 59h80v2H69v46h11v2H0v-2h11V61H0v-2Zm67 48V61H55v46h12ZM41 61h12v46H41V61Zm-2 46V61H27v46h12ZM13 61h12v46H13V61Z" clip-rule="evenodd"/></svg>