<svg xmlns="http://www.w3.org/2000/svg" fill="none" viewBox="0 0 240 240"><path fill="var(--illustration-gray)" d="M80 48H0v72h80V48Z"/><path fill="var(--illustration-primary)" d="M80 48H0l40-16 40 16Z"/><path fill="var(--illustration-gray)" d="M240 120h-80v120h80V120Z"/><path fill="var(--illustration-accent-1)" d="M160 120a80.001 80.001 0 0 1-160 0h160Z"/><path fill="var(--illustration-primary)" d="M80 200v-80H0a80.002 80.002 0 0 0 80 80Z"/><path fill="var(--illustration-accent-1)" d="M80 120a80.001 80.001 0 0 1 136.569-56.569A80.004 80.004 0 0 1 240 120H80Z"/><path fill="var(--illustration-primary)" d="M228 120a28 28 0 0 1-56 0"/><path fill="var(--illustration-black)" d="M172 120a28 28 0 0 1 56 0"/><path fill="var(--illustration-primary)" d="M200 160a39.996 39.996 0 0 0-28.284 11.716A39.996 39.996 0 0 0 160 200v40h80v-40a39.996 39.996 0 0 0-11.716-28.284A39.996 39.996 0 0 0 200 160Z"/><path fill="var(--illustration-black)" d="M80 120a39.998 39.998 0 0 0 40 40 39.996 39.996 0 0 0 28.284-11.716A39.996 39.996 0 0 0 160 120a39.907 39.907 0 0 0-13.1-29.61c-1-.86-1.94-1.68-3-2.44s-2.09-1.49-3.19-2.16c-1.1-.67-2.23-1.28-3.4-1.85A40 40 0 0 0 80 120Z"/><path fill="var(--illustration-primary)" fill-rule="evenodd" d="M147 120H93c0 14.912 12.088 27 27 27s27-12.088 27-27Zm2 0c0 16.016-12.984 29-29 29s-29-12.984-29-29H80a39.998 39.998 0 0 0 40 40 39.996 39.996 0 0 0 28.284-11.716A39.996 39.996 0 0 0 160 120h-11Z" clip-rule="evenodd"/><path fill="var(--illustration-black)" fill-rule="evenodd" d="M0 59h80v2H69v46h11v2H0v-2h11V61H0v-2Zm67 48V61H55v46h12ZM41 61h12v46H41V61Zm-2 46V61H27v46h12ZM13 61h12v46H13V61Z" clip-rule="evenodd"/></svg>