<svg xmlns="http://www.w3.org/2000/svg" fill="none" viewBox="0 0 240 240"><path fill="var(--illustration-accent-1)" d="M208 88.016c0 16.005-4.29 31.071-11.773 44.008C181.01 158.334 152.548 176 120.016 176c-32.564 0-60.995-17.697-76.243-43.976C36.29 119.087 32 104.021 32 88.016 32 39.403 71.39 0 119.984 0 168.611 0 208 39.403 208 88.016Z"/><path fill="var(--illustration-accent-2)" fill-rule="evenodd" d="M32 88h176c-.008-48.605-39.395-88-88.016-88C71.394 0 32.009 39.395 32 88Z" clip-rule="evenodd"/><path fill="var(--illustration-primary)" d="M177 88.01c0 10.367-2.779 20.126-7.626 28.505C159.518 133.557 141.082 145 120.01 145c-21.092 0-39.507-11.463-49.384-28.485C65.778 108.136 63 98.377 63 88.01 63 56.523 88.514 31 119.99 31 151.486 31 177 56.523 177 88.01Z"/><path fill="var(--illustration-white)" d="M120 86c11.046 0 20-8.73 20-19.5S131.046 47 120 47s-20 8.73-20 19.5S108.954 86 120 86Z"/><path fill="var(--illustration-positive)" fill-rule="evenodd" d="M70.625 116.508C80.478 99.466 98.896 88 119.993 88c21.111 0 39.534 11.466 49.388 28.509l-.003.006C159.521 133.557 141.086 145 120.014 145c-21.093 0-39.508-11.463-49.385-28.485a.043.043 0 0 1-.004-.007Z" clip-rule="evenodd"/><path fill="var(--illustration-black)" fill-rule="evenodd" d="M120 17c-39.212 0-71 31.788-71 71s31.788 71 71 71 71-31.788 71-71-31.788-71-71-71ZM47 88c0-40.317 32.683-73 73-73s73 32.683 73 73-32.683 73-73 73-73-32.683-73-73Z" clip-rule="evenodd"/><path fill="var(--illustration-gray)" d="m72 208 48-16 48 16v32H72v-32Z"/><path fill="var(--illustration-primary)" fill-rule="evenodd" d="m120 112-48 96 48-16 48 16-48-96Z" clip-rule="evenodd"/><path fill="var(--illustration-black)" fill-rule="evenodd" d="M135.446 142.886A57.081 57.081 0 0 1 120.013 145a57.03 57.03 0 0 1-15.451-2.12L120.003 112l15.443 30.886Zm-15.477 15.7 17.677 17.677-1.414 1.415-16.263-16.264-16.264 16.264-1.414-1.415 17.678-17.677Z" clip-rule="evenodd"/><path fill="var(--illustration-black)" fill-rule="evenodd" d="M121 161v79h-2v-79h2Z" clip-rule="evenodd"/></svg>