<svg xmlns="http://www.w3.org/2000/svg" fill="none" viewBox="0 0 240 240"><path fill="var(--illustration-accent-2)" d="M0 40h240v168H0V40Z"/><path fill="var(--illustration-gray)" d="M16 0h208v224H16V0Z"/><path fill="var(--illustration-primary)" d="M16 40h208v168H16V40Z"/><path fill="var(--illustration-gray)" d="M16 220h34v20H16v-20Zm95 0h34v20h-34v-20Zm79 0h34v20h-34v-20Z"/><path fill="var(--illustration-black)" d="M32 18h96v190H42a10 10 0 0 1-10-10V18Z"/><path fill="var(--illustration-primary)" fill-rule="evenodd" d="M41.5 18c4.23 4.2 11.45 6.97 19.65 6.98C69.4 25 76.65 22.22 80.9 18H41.5Z" clip-rule="evenodd"/><path fill="var(--illustration-primary)" fill-rule="evenodd" d="M58.4 18c5.82 47.13 15.77 78.21 27.07 78.3 11.34.08 21.33-31.03 27.18-78.3H58.4Z" clip-rule="evenodd"/><path fill="var(--illustration-white)" fill-rule="evenodd" d="M107 18h21v13.65l.16.1v124.27l-.16.15V208H45.54l.05.07H41.6a20 20 0 0 1-15.16-6.95L13.5 186.07H28a28 28 0 0 1 3.91-18.68v-19.57l16.01 6.84a25.7 25.7 0 0 1 12.24-.87c-13.38-16.43-18.91-42.74-12.65-69.63 7.02-30.19 26.86-52.33 48.82-57.57A24.79 24.79 0 0 1 86.67 18H107Z" clip-rule="evenodd"/><path fill="var(--illustration-black)" fill-rule="evenodd" d="M128.23 129.12a23.7 23.7 0 0 0-11.3 13.23l-11.64 33.87L73 200.88l-1.22-1.6L103.6 175l11.44-33.3a25.7 25.7 0 0 1 12.26-14.35l.93 1.77Z" clip-rule="evenodd"/><path fill="var(--illustration-black)" d="m56.97 176.7-6.55 3.8 2.75-10.35 3.8 6.54Z"/><path fill="var(--illustration-accent-1)" d="M47.38 188.06c1.93-3.47.83-7.77-2.46-9.6-3.3-1.84-7.53-.51-9.46 2.96-1.93 3.47-.83 7.77 2.46 9.6 3.3 1.83 7.53.5 9.46-2.96Zm7.49-20.46c1.93-3.47.83-7.77-2.47-9.6-3.29-1.84-7.52-.5-9.46 2.96-1.93 3.47-.83 7.77 2.47 9.6 3.29 1.84 7.52.5 9.46-2.96Z"/><path fill="var(--illustration-black)" d="M45.7 187.08c.67-1.2-.7-3.22-3.05-4.53-2.35-1.31-4.8-1.4-5.46-.21-.67 1.19.7 3.22 3.05 4.53 2.36 1.3 4.8 1.4 5.47.21Zm7.5-20.46c.66-1.19-.71-3.22-3.07-4.53-2.35-1.3-4.8-1.4-5.46-.21-.66 1.2.7 3.22 3.06 4.53 2.35 1.31 4.8 1.4 5.46.21Z"/><path fill="var(--illustration-black)" fill-rule="evenodd" d="M216 20h-48v-2h48v2Zm0 67.84h-48v-2h48v2ZM216 56h-48v-2h48v2Z" clip-rule="evenodd"/><path fill="var(--illustration-white)" d="M137 18h24v22h-24V18Z"/><path fill="var(--illustration-black)" d="M137 40h24v48h-24V40Z"/><path fill="var(--illustration-accent-2)" d="M137 106h78v24h-78v-24Z"/><path fill="var(--illustration-black)" fill-rule="evenodd" d="M66.6 155.74c-7.47-3.32-15.34-2.24-18.83-1.28l-.54-1.92c3.74-1.04 12.13-2.2 20.18 1.38 8.15 3.62 15.72 12 17.94 29.57l-1.99.25c-2.14-17.03-9.38-24.72-16.76-28Z" clip-rule="evenodd"/></svg>