<svg xmlns="http://www.w3.org/2000/svg" fill="none" viewBox="0 0 240 240"><path fill="var(--illustration-gray)" d="M28 91.9h184v56H28z"/><path fill="var(--illustration-invert)" fill-rule="evenodd" d="m139.836 170.602.104 1.206a19.5 19.5 0 0 0 3.82 10.033 19.57 19.57 0 0 0 8.565 6.505l19.102 7.449-25.304 9.479-7.721-14.977c-3.2-6.205-9.998-9.72-16.946-8.767l-1.06.145 5.923 13.304-9.356-8.648a17.44 17.44 0 0 0-19.36-2.91l-1.013.486 13.803 13.992-1.905-.95c-6.416-3.102-14.082-1.993-19.335 2.817l-.824.755 13.997 7.671a17.72 17.72 0 0 0-13.717 8.123l-.609.951 53.888 12.689.056.124h48.285l5.87 9.921h1.869l-6.819-11.524h-48.157l-20.24-45.466c5.889-.38 11.496 2.742 14.217 8.019l12.051 23.375.012-.004.002.004 21.332-7.989a50 50 0 0 1 9.823-2.582c19.825-3.091 40.055 6.031 50.588 23.831L238.078 240h1.869l-7.78-13.144.01-.006-5.298-8.956a72.47 72.47 0 0 0-37.221-31.028 55 55 0 0 0-2.765-.967zm40.173 31.636c16.182-2.508 32.615 2.865 44.15 14.31a70.87 70.87 0 0 0-35.065-28.18l-.009-.004a55 55 0 0 0-2.689-.94l-44.705-14.532a17.9 17.9 0 0 0 3.36 7.99 17.97 17.97 0 0 0 7.861 5.971l23.008 8.972-29.049 10.882 2.937 5.689 19.978-7.482a51.6 51.6 0 0 1 10.223-2.676m-40.089 23.296-11.946-26.837-12.106-11.191a15.82 15.82 0 0 0-16.522-3.094l14.431 14.629 1.374 1.388v.008zm-26.053-24.11-6.086-3.034a15.8 15.8 0 0 0-16.676 1.822l46.959 25.729zm-23.25 14.81a16.12 16.12 0 0 1 14.751-6.375l31.529 17.273zM117.47 56.582c-5.85.377-11.421-2.725-14.125-7.968L91.372 25.39l-.005.001v-.001l-21.195 7.937a50 50 0 0 1-6.177 1.868c-20.805 4.84-42.75-4.219-53.853-22.98L2.912 0H1.055l7.707 13.021-.004.002 5.264 8.899A72 72 0 0 0 51.003 52.75c.911.349 1.828.663 2.747.96l46.754 15.2-.103-1.2a19.36 19.36 0 0 0-3.795-9.968 19.45 19.45 0 0 0-8.51-6.463l-18.978-7.4 25.133-9.416 7.671 14.879c3.179 6.165 9.933 9.656 16.836 8.71l1.054-.144-5.887-13.224 9.301 8.598a17.32 17.32 0 0 0 19.235 2.89l1.007-.482-13.708-13.895 1.88.937c6.374 3.082 13.991 1.98 19.21-2.8l.819-.75-13.907-7.62a17.6 17.6 0 0 0 13.631-8.07l.604-.946-53.54-12.607-.054-.124H50.428L44.622 0h-1.857l6.75 11.408h47.847zm-17.06-42.258 24.616 24.942v.009l1.366 1.379 14.338 14.534a15.72 15.72 0 0 1-16.416-3.074L112.28 40.99zM64.306 36.76a51.5 51.5 0 0 0 6.434-1.94l19.856-7.437 2.918 5.654-28.86 10.813 22.859 8.914a17.86 17.86 0 0 1 7.81 5.932 17.75 17.75 0 0 1 3.339 7.94l-44.417-14.44a54 54 0 0 1-2.672-.934l-.009-.003a70.4 70.4 0 0 1-34.84-27.999c12.346 12.249 30.338 17.498 47.582 13.5m85.091-13.188a16.01 16.01 0 0 1-14.657 6.334l-31.328-17.162zm-47.128-9.636 24.039 24.357 6.035 3.009a15.7 15.7 0 0 0 16.568-1.811z" clip-rule="evenodd"/><circle cx="120" cy="120" r="40" fill="var(--illustration-accent-1)"/><path fill="var(--illustration-accent-1)" d="M160 120c0 22.091-17.909 40-40 40s-40-17.909-40-40 17.909-40 40-40 40 17.909 40 40"/><path fill="var(--illustration-primary)" d="M148.666 147.898C155.68 140.692 160 130.85 160 120c0-10.953-4.403-20.879-11.535-28.102h-56.93C84.403 99.12 80 109.047 80 120c0 10.85 4.32 20.692 11.334 27.898z"/><path fill="var(--illustration-accent-1)" d="M152 120c0 17.673-14.327 32-32 32s-32-14.327-32-32 14.327-32 32-32 32 14.327 32 32"/><path fill="var(--illustration-black)" fill-rule="evenodd" d="M120 89c-17.121 0-31 13.879-31 31s13.879 31 31 31 31-13.879 31-31-13.879-31-31-31m-33 31c0-18.225 14.775-33 33-33s33 14.775 33 33-14.775 33-33 33-33-14.775-33-33" clip-rule="evenodd"/><path fill="var(--illustration-invert)" fill-rule="evenodd" d="M117.86 71.047a50 50 0 0 1 4.278 0l-.086 1.998a48 48 0 0 0-4.106 0zm8.537.368q2.136.28 4.211.738l-.431 1.953a47 47 0 0 0-4.038-.708zm-17.007.738a49 49 0 0 1 4.211-.738l.258 1.983a47 47 0 0 0-4.038.708zm25.347 1.104q2.051.646 4.018 1.462l-.766 1.848a47 47 0 0 0-3.852-1.403zm-33.495 1.462a49 49 0 0 1 4.019-1.462l.6 1.907a47 47 0 0 0-3.852 1.403zm41.388 1.81a49 49 0 0 1 3.7 2.14l-1.076 1.687a47 47 0 0 0-3.549-2.054zm-48.962 2.14a49 49 0 0 1 3.7-2.14l.925 1.773q-1.823.952-3.549 2.054zm56.161 2.456a49 49 0 0 1 3.273 2.749l-1.351 1.474a47 47 0 0 0-3.14-2.637zm-62.934 2.749a49 49 0 0 1 3.274-2.75l1.218 1.587a47 47 0 0 0-3.14 2.637zm-5.771 6.296a49 49 0 0 1 2.749-3.273l1.474 1.351a47 47 0 0 0-2.637 3.14zm75.001-3.273a49 49 0 0 1 2.749 3.273l-1.586 1.218a47 47 0 0 0-2.637-3.14zm5.204 6.772a49 49 0 0 1 2.141 3.7l-1.773.925a47 47 0 0 0-2.054-3.549zm-84.801 3.7a49 49 0 0 1 2.14-3.7l1.687 1.076a47 47 0 0 0-2.054 3.55zm88.752 3.875a49 49 0 0 1 1.462 4.018l-1.907.601a47 47 0 0 0-1.403-3.853zm-92.024 4.018q.646-2.051 1.462-4.018l1.848.766a47 47 0 0 0-1.403 3.853zm94.59 4.129a49 49 0 0 1 .738 4.211l-1.983.258a47 47 0 0 0-.708-4.038zm-96.432 4.211q.28-2.136.738-4.211l1.953.431a47 47 0 0 0-.708 4.038zm97.538 4.259a49 49 0 0 1 0 4.278l-1.998-.086a48 48 0 0 0 0-4.106zM71 120q0-1.076.046-2.139l1.998.086a48 48 0 0 0 0 4.106l-1.998.086A50 50 0 0 1 71 120m97.584 6.398a49 49 0 0 1-.738 4.211l-1.953-.431q.44-1.99.708-4.038zm-96.432 4.211a49 49 0 0 1-.738-4.211l1.983-.258q.268 2.048.708 4.038zm94.59 4.129a49 49 0 0 1-1.462 4.019l-1.848-.767q.783-1.886 1.403-3.852zm-92.024 4.019a49 49 0 0 1-1.462-4.019l1.907-.6q.62 1.966 1.403 3.852zm88.752 3.874a49 49 0 0 1-2.141 3.7l-1.686-1.076a47 47 0 0 0 2.054-3.549zm-84.801 3.7a49 49 0 0 1-2.141-3.7l1.773-.925a47 47 0 0 0 2.054 3.549zm5.204 6.772a49 49 0 0 1-2.75-3.273l1.587-1.218a47 47 0 0 0 2.637 3.14zm75.001-3.273a49 49 0 0 1-2.749 3.273l-1.474-1.351a47 47 0 0 0 2.637-3.14zm-68.705 9.045a49 49 0 0 1-3.273-2.749l1.351-1.474a48 48 0 0 0 3.14 2.638zm62.933-2.749a49 49 0 0 1-3.273 2.749l-1.218-1.586a47 47 0 0 0 3.14-2.637zm-55.734 7.345a49 49 0 0 1-3.7-2.141l1.076-1.686q1.725 1.102 3.55 2.054zm48.962-2.141a49 49 0 0 1-3.7 2.141l-.925-1.773a47 47 0 0 0 3.549-2.054zm-41.069 5.413a49 49 0 0 1-4.018-1.462l.766-1.848q1.887.783 3.852 1.403zm33.494-1.462a49 49 0 0 1-4.018 1.462l-.6-1.907a47 47 0 0 0 3.852-1.403zm-25.154 3.304a49 49 0 0 1-4.211-.738l.431-1.953q1.99.44 4.038.708zm17.007-.738a49 49 0 0 1-4.211.738l-.258-1.983a47 47 0 0 0 4.038-.708zm-10.609 1.152q-1.076 0-2.139-.046l.086-1.998a48 48 0 0 0 4.106 0l.086 1.998q-1.064.046-2.139.046" clip-rule="evenodd"/><path fill="var(--illustration-black)" d="M129.866 125.007c0-4.923-3.017-6.585-8.86-7.377-4.318-.617-5.149-1.624-5.149-3.624s1.459-3.241 4.253-3.241c2.545 0 4.011.877 4.613 2.909.065.221.196.416.386.559.183.143.412.221.641.221h2.231q.218.002.426-.085.198-.088.346-.253a.94.94 0 0 0 .203-.377c.04-.136.046-.285.026-.428-.706-3.215-2.892-5.151-6.314-5.755v-3.39a1.064 1.064 0 0 0-1.066-1.058h-2.127a1.064 1.064 0 0 0-1.066 1.058v3.274c-4.253.591-6.943 3.377-6.943 6.949 0 4.624 2.834 6.416 8.762 7.209 4.03.656 5.182 1.519 5.182 3.792 0 2.274-1.95 3.8-4.698 3.8-3.71 0-4.96-1.611-5.379-3.702a1.04 1.04 0 0 0-.366-.611 1.1 1.1 0 0 0-.674-.246h-2.421c-.144 0-.288.032-.419.091a1 1 0 0 0-.34.259 1.1 1.1 0 0 0-.203.377.9.9 0 0 0-.019.422c.615 3.52 2.892 6.092 7.531 6.716v3.338c0 .279.111.545.314.747.196.194.471.311.752.311h2.127a1.063 1.063 0 0 0 1.066-1.058v-3.338c4.397-.689 7.198-3.702 7.198-7.482z"/><circle cx="28" cy="120" r="28" fill="var(--illustration-primary)"/><circle cx="212" cy="120" r="28" fill="var(--illustration-positive)"/><path fill="var(--illustration-white)" d="M16 104h24v32H16z"/><path fill="var(--illustration-black)" fill-rule="evenodd" d="M34 113H22v-2h12zm0 6H22v-2h12zm-6 6h-6v-2h6zm196.703-12.293-16.707 16.707-8.707-8.707 1.414-1.414 7.293 7.293 15.293-15.293z" clip-rule="evenodd"/></svg>