<svg xmlns="http://www.w3.org/2000/svg" fill="none" viewBox="0 0 240 241"><path fill="var(--illustration-primary)" d="M240 64H0v120h240z"/><path fill="var(--illustration-black)" d="M208 64H32v120h176z"/><path fill="var(--illustration-gray)" d="M208 184H32v56h176zm0-184H32v64h176z"/><path fill="var(--illustration-positive)" d="M128 140h-16v8h16zm-64-40H48v48h16zm-4 48h-8v4h8zm0-52h-8v4h8z"/><path fill="var(--illustration-negative)" d="M96 124H80v40h16z"/><path fill="var(--illustration-negative)" d="M96 140H80v24h16zm-4 24h-8v4h8zm0-44h-8v4h8z"/><path fill="var(--illustration-positive)" d="M128 84h-16v64h16zm-4 64h-8v4h8zm0-68h-8v4h8zm68 36h-16v40h16zm-4 40h-8v4h8zm0-44h-8v4h8z"/><path fill="var(--illustration-negative)" d="M160 100h-16v24h16zm-4 24h-8v4h8zm0-28h-8v4h8z"/><path fill="var(--illustration-positive)" d="M0 48h240v16H0z"/><path fill="var(--illustration-primary)" d="M208 48H32v16h176z"/><path fill="var(--illustration-white)" d="M10.133 56a2 2 0 1 1-4 0 2 2 0 0 1 4 0m16 0a2 2 0 1 1-4 0 2 2 0 0 1 4 0m-8 0a2 2 0 1 1-4 0 2 2 0 0 1 4 0"/></svg>