<svg xmlns="http://www.w3.org/2000/svg" fill="none" viewBox="0 0 240 240"><path fill="var(--illustration-gray)" d="M0 0h240v116H0zm240 162v78H0v-78z"/><path fill="var(--illustration-primary)" fill-rule="evenodd" d="M33 240h176v-78H33z" clip-rule="evenodd"/><path fill="var(--illustration-accent-2)" fill-rule="evenodd" d="M90.824 5.203C100.17 1.836 110.245 0 120.75 0c46.534 0 84.656 36.017 88.01 81.695C195.828 93.676 178.519 101 159.5 101 119.459 101 87 68.54 87 28.5c0-8.15 1.345-15.985 3.824-23.297" clip-rule="evenodd"/><path fill="var(--illustration-black)" d="M90.783 5.325C57.066 17.652 33 50.015 33 88v152h176V88q0-3.217-.228-6.377l-.012.072C195.828 93.676 178.519 101 159.5 101 119.459 101 87 68.54 87 28.5c0-8.104 1.33-15.898 3.783-23.175"/><path fill="var(--illustration-primary)" d="M33 162h87v78H33z"/><path fill="var(--illustration-positive)" d="M118.249 240H62.751C54.901 232.613 50 222.129 50 210.5c0-22.368 18.132-40.5 40.5-40.5s40.5 18.132 40.5 40.5c0 11.629-4.901 22.113-12.751 29.5"/><path fill="var(--illustration-white)" d="M77 214h132v26H77zm20-26h112v26H97zm23-26h89v26h-89zM142.018 2.58a243 243 0 0 0-14.667 8.193C105.375 24.053 87.828 39.27 77.145 52.87c-5.36 6.825-8.72 12.897-10.233 17.826-1.515 4.935-.94 7.803.044 9.432.985 1.628 3.256 3.47 8.33 4.424 5.067.952 12.005.802 20.54-.77 17.008-3.135 38.639-11.594 60.615-24.875 13.028-7.873 24.5-16.428 33.908-24.922a88 88 0 0 1 4.662 6.566c-9.712 8.682-21.364 17.306-34.433 25.203-45.169 27.297-90.15 35.585-100.468 18.511-10.319-17.074 17.934-53.043 63.103-80.34a257 257 0 0 1 6.014-3.524 88 88 0 0 1 12.791 2.178"/><path fill="var(--illustration-primary)" fill-rule="evenodd" d="M116.208 86.662c13.883-4.638 29.116-11.688 44.37-20.907 13.068-7.897 24.721-16.521 34.432-25.203a88 88 0 0 0-4.662-6.566c-9.407 8.495-20.88 17.049-33.908 24.922-16.618 10.043-33.039 17.329-47.413 21.64a73 73 0 0 0 7.181 6.114M88.036 40.791a73 73 0 0 1-1.005-10.08c10.05-9.214 22.319-18.408 36.181-26.785a257 257 0 0 1 6.014-3.524 88 88 0 0 1 12.791 2.178 243 243 0 0 0-14.667 8.193c-15.641 9.452-29.038 19.885-39.314 30.018" clip-rule="evenodd"/><path fill="var(--illustration-accent-2)" fill-rule="evenodd" d="M189.092 32.412 88.056 40.9A73 73 0 0 1 87 28.5c0-8.15 1.345-15.985 3.824-23.297C100.17 1.836 110.245 0 120.75 0c27.554 0 52.159 12.628 68.342 32.412" clip-rule="evenodd"/><path fill="var(--illustration-black)" fill-rule="evenodd" d="M209 188h-89v-2h89z" clip-rule="evenodd"/><path fill="var(--illustration-accent-1)" d="M60.5 162a42.7 42.7 0 0 0 17 17 42.67 42.67 0 0 0-17 17 42.67 42.67 0 0 0-17-17 42.7 42.7 0 0 0 17-17"/><path fill="var(--illustration-black)" fill-rule="evenodd" d="M209 214H97v-2h112z" clip-rule="evenodd"/><path fill="var(--illustration-accent-1)" d="M209 116a57.74 57.74 0 0 0 23 23 57.73 57.73 0 0 0-23 23 57.74 57.74 0 0 0-23-23 57.74 57.74 0 0 0 23-23"/><path fill="var(--illustration-primary)" fill-rule="evenodd" d="M71.268 174.849A43 43 0 0 0 77.499 179a42.7 42.7 0 0 0-17 17 42.7 42.7 0 0 0-4.522-6.687 40.7 40.7 0 0 1 15.29-14.464M209 116v46a57.74 57.74 0 0 0-23-23 57.74 57.74 0 0 0 23-23" clip-rule="evenodd"/></svg>