<svg xmlns="http://www.w3.org/2000/svg" fill="none" viewBox="0 0 240 240"><path fill="var(--illustration-gray)" d="M72 152H24v88h48z"/><path fill="var(--illustration-gray)" d="M72 152H48v88h24zm56-40H80v128h48zm112-88h-48v216h48zm-56 44h-48v172h48z"/><path fill="var(--illustration-primary)" d="M184 68c0 13.3-10.7 24-24 24s-24-10.7-24-24z"/><path fill="var(--illustration-positive)" d="M136 68c0-13.3 10.7-24 24-24s24 10.7 24 24z"/><path fill="var(--illustration-black)" fill-rule="evenodd" d="M160 53c-8.284 0-15 6.716-15 15s6.716 15 15 15 15-6.716 15-15-6.716-15-15-15m-17 15c0-9.389 7.611-17 17-17s17 7.611 17 17-7.611 17-17 17-17-7.611-17-17" clip-rule="evenodd"/><path fill="var(--illustration-primary)" d="M128 112c0 13.3-10.7 24-24 24s-24-10.7-24-24z"/><path fill="var(--illustration-accent-1)" d="M80 112c0-13.3 10.7-24 24-24s24 10.7 24 24z"/><path fill="var(--illustration-black)" fill-rule="evenodd" d="M104 97c-8.284 0-15 6.716-15 15s6.716 15 15 15 15-6.716 15-15-6.716-15-15-15m-17 15c0-9.389 7.611-17 17-17s17 7.611 17 17-7.611 17-17 17-17-7.611-17-17" clip-rule="evenodd"/><path fill="var(--illustration-primary)" d="M72 152c0 13.3-10.7 24-24 24s-24-10.7-24-24z"/><path fill="var(--illustration-gray)" d="M24 152c0-13.3 10.7-24 24-24s24 10.7 24 24z"/><path fill="var(--illustration-black)" fill-rule="evenodd" d="M48 137c-8.284 0-15 6.716-15 15s6.716 15 15 15 15-6.716 15-15-6.716-15-15-15m-17 15c0-9.389 7.611-17 17-17s17 7.611 17 17-7.611 17-17 17-17-7.611-17-17" clip-rule="evenodd"/><path fill="var(--illustration-primary)" d="M240 24c0 13.3-10.7 24-24 24s-24-10.7-24-24z"/><path fill="var(--illustration-accent-2)" d="M192 24c0-13.3 10.7-24 24-24s24 10.7 24 24z"/><path fill="var(--illustration-black)" fill-rule="evenodd" d="M216 9c-8.284 0-15 6.716-15 15s6.716 15 15 15 15-6.716 15-15-6.716-15-15-15m-17 15c0-9.389 7.611-17 17-17s17 7.611 17 17-7.611 17-17 17-17-7.611-17-17" clip-rule="evenodd"/><path fill="var(--illustration-invert)" fill-rule="evenodd" d="m47.996 186.586 8.707 8.707-1.414 1.414-7.293-7.293-7.293 7.293-1.414-1.414z" clip-rule="evenodd"/><path fill="var(--illustration-invert)" fill-rule="evenodd" d="M47 240v-52h2v52zm56.996-89.414 8.707 8.707-1.414 1.414-7.293-7.293-7.293 7.293-1.414-1.414z" clip-rule="evenodd"/><path fill="var(--illustration-invert)" fill-rule="evenodd" d="M103 240v-88h2v88zm56.996-125.414 8.707 8.707-1.414 1.414-7.293-7.293-7.293 7.293-1.414-1.414z" clip-rule="evenodd"/><path fill="var(--illustration-invert)" fill-rule="evenodd" d="M159 240V116h2v124zm56.996-161.414 8.707 8.707-1.414 1.414-7.293-7.293-7.293 7.293-1.414-1.414z" clip-rule="evenodd"/><path fill="var(--illustration-invert)" fill-rule="evenodd" d="M215 240V80h2v160z" clip-rule="evenodd"/></svg>