<svg xmlns="http://www.w3.org/2000/svg" fill="none" viewBox="0 0 240 240"><path fill="var(--illustration-gray)" d="M72 152H24v88h48v-88Z"/><path fill="var(--illustration-gray)" d="M72 152H48v88h24v-88Zm56-40H80v128h48V112Zm112-88h-48v216h48V24Zm-56 44h-48v172h48V68Z"/><path fill="var(--illustration-primary)" d="M184 68c0 13.3-10.7 24-24 24s-24-10.7-24-24h48Z"/><path fill="var(--illustration-positive)" d="M136 68c0-13.3 10.7-24 24-24s24 10.7 24 24h-48Z"/><path fill="var(--illustration-black)" fill-rule="evenodd" d="M160 53a15 15 0 1 0 0 30 15 15 0 0 0 0-30Zm-17 15a17 17 0 1 1 34 0 17 17 0 0 1-34 0Z" clip-rule="evenodd"/><path fill="var(--illustration-primary)" d="M128 112c0 13.3-10.7 24-24 24s-24-10.7-24-24h48Z"/><path fill="var(--illustration-accent-1)" d="M80 112c0-13.3 10.7-24 24-24s24 10.7 24 24H80Z"/><path fill="var(--illustration-black)" fill-rule="evenodd" d="M104 97a15 15 0 1 0 0 30 15 15 0 0 0 0-30Zm-17 15a17 17 0 1 1 34 0 17 17 0 0 1-34 0Z" clip-rule="evenodd"/><path fill="var(--illustration-primary)" d="M72 152c0 13.3-10.7 24-24 24s-24-10.7-24-24h48Z"/><path fill="var(--illustration-gray)" d="M24 152c0-13.3 10.7-24 24-24s24 10.7 24 24H24Z"/><path fill="var(--illustration-black)" fill-rule="evenodd" d="M48 137a15 15 0 1 0 0 30 15 15 0 0 0 0-30Zm-17 15a17 17 0 1 1 34 0 17 17 0 0 1-34 0Z" clip-rule="evenodd"/><path fill="var(--illustration-primary)" d="M240 24c0 13.3-10.7 24-24 24s-24-10.7-24-24h48Z"/><path fill="var(--illustration-accent-2)" d="M192 24c0-13.3 10.7-24 24-24s24 10.7 24 24h-48Z"/><path fill="var(--illustration-black)" fill-rule="evenodd" d="M216 9a15 15 0 1 0 0 30 15 15 0 0 0 0-30Zm-17 15a17 17 0 1 1 34 0 17 17 0 0 1-34 0Z" clip-rule="evenodd"/><path fill="var(--illustration-invert)" fill-rule="evenodd" d="m48 186.59 8.7 8.7-1.41 1.42-7.3-7.3-7.29 7.3-1.41-1.42 8.7-8.7Z" clip-rule="evenodd"/><path fill="var(--illustration-invert)" fill-rule="evenodd" d="M47 240v-52h2v52h-2Zm57-89.41 8.7 8.7-1.41 1.42-7.3-7.3-7.29 7.3-1.41-1.42 8.7-8.7Z" clip-rule="evenodd"/><path fill="var(--illustration-invert)" fill-rule="evenodd" d="M103 240v-88h2v88h-2Zm57-125.41 8.7 8.7-1.41 1.42-7.3-7.3-7.29 7.3-1.41-1.42 8.7-8.7Z" clip-rule="evenodd"/><path fill="var(--illustration-invert)" fill-rule="evenodd" d="M159 240V116h2v124h-2Zm57-161.41 8.7 8.7-1.41 1.42-7.3-7.3-7.29 7.3-1.41-1.42 8.7-8.7Z" clip-rule="evenodd"/><path fill="var(--illustration-invert)" fill-rule="evenodd" d="M215 240V80h2v160h-2Z" clip-rule="evenodd"/></svg>