<svg xmlns="http://www.w3.org/2000/svg" fill="none" viewBox="0 0 240 240"><path fill="var(--illustration-gray)" d="M240 28H32v32h208V28Z"/><path fill="var(--illustration-white)" d="M200 52c-4.4 0-8-3.6-8-8s3.6-8 8-8 8 3.6 8 8-3.6 8-8 8Z"/><path fill="var(--illustration-primary)" d="M240 60H32v168h208V60Z"/><path fill="var(--illustration-black)" d="M240 176v52h-52l52-52Z"/><path fill="var(--illustration-gray)" d="M188 228v-52h52l-52 52Z"/><path fill="var(--illustration-white)" d="M172 143 88 95v96l84-48Z"/><path fill="var(--illustration-gray)" d="M32 28H0v200h32V28Z"/><path fill="var(--illustration-accent-1)" d="M200 7a21 21 0 0 0-21 21h10c0-6.1 4.9-11 11-11s11 4.9 11 11-4.9 11-11 11c-1.8 0-3.5-.4-5-1.2a8.08 8.08 0 0 0-2.1 10c2.2.8 4.6 1.2 7.1 1.2a21 21 0 1 0 0-42Z"/><path fill="var(--illustration-primary)" d="M195 37.8c-3.5-1.8-6-5.5-6-9.8h-10c0 9.1 5.8 16.8 13.9 19.8a7.9 7.9 0 0 1-.9-3.8c0-2.5 1.2-4.8 3-6.2Z"/><path fill="var(--illustration-white)" d="M71 52c-4.4 0-8-3.6-8-8s3.6-8 8-8 8 3.6 8 8-3.6 8-8 8Z"/><path fill="var(--illustration-accent-1)" d="M71 7a21 21 0 0 0-21 21h10c0-6.1 4.9-11 11-11s11 4.9 11 11-4.9 11-11 11c-1.8 0-3.5-.4-5-1.2a8.08 8.08 0 0 0-2.1 10c2.2.8 4.6 1.2 7.1 1.2a21 21 0 1 0 0-42Z"/><path fill="var(--illustration-primary)" d="M66 37.8c-3.5-1.8-6-5.5-6-9.8H50c0 9.1 5.8 16.8 13.9 19.8-.6-1.2-.9-2.4-.9-3.8 0-2.5 1.2-4.8 3-6.2Z"/><path fill="var(--illustration-white)" d="M135 52c-4.4 0-8-3.6-8-8s3.6-8 8-8 8 3.6 8 8-3.6 8-8 8Z"/><path fill="var(--illustration-accent-1)" d="M135 7a21 21 0 0 0-21 21h10c0-6.1 4.9-11 11-11s11 4.9 11 11-4.9 11-11 11c-1.8 0-3.5-.4-5-1.2a8.08 8.08 0 0 0-2.1 10c2.2.8 4.6 1.2 7.1 1.2a21 21 0 1 0 0-42Z"/><path fill="var(--illustration-primary)" d="M130 37.8c-3.5-1.8-6-5.5-6-9.8h-10c0 9.1 5.8 16.8 13.9 19.8a7.9 7.9 0 0 1-.9-3.8c0-2.5 1.2-4.8 3-6.2ZM32 27.5H0V60h32V27.5Z"/><path fill="var(--illustration-invert)" fill-rule="evenodd" d="M7 228V28h2v200H7Zm8 0V28h2v200h-2Zm8 0V28h2v200h-2Z" clip-rule="evenodd"/></svg>