<svg xmlns="http://www.w3.org/2000/svg" fill="none" viewBox="0 0 240 241"><path fill="var(--illustration-positive)" fill-rule="evenodd" d="M51.2 77.026H16v123.2h176v-105.6H68.8v-.167z" clip-rule="evenodd"/><path fill="var(--illustration-accent-2)" fill-rule="evenodd" d="M67.2 50.627H32v125.599h176V68.569H84.8v-.17z" clip-rule="evenodd"/><path fill="var(--illustration-primary)" fill-rule="evenodd" d="M191.878 176.226V95.063H67.528v-.171L49.764 77.026H32v99.2z" clip-rule="evenodd"/><path fill="var(--illustration-gray)" fill-rule="evenodd" d="M83.2 24.227H48v127.999l176 .001V42.512H100.8v-.173z" clip-rule="evenodd"/><path fill="var(--illustration-primary)" fill-rule="evenodd" d="M208 152.227V69.099H83.556v-.175L65.778 50.626H48v101.6z" clip-rule="evenodd"/><path fill="var(--illustration-invert)" fill-rule="evenodd" d="M192.001 152.226v-56.4h-126v-.178L48 77.026v75.2z" clip-rule="evenodd"/><path fill="var(--illustration-accent-1)" d="M11.999 240c0-6.629 5.373-11.999 12.001-11.999-6.628 0-12.001-5.372-12.001-12.001 0 6.629-5.373 12.001-11.999 12.001 6.626 0 11.999 5.37 11.999 11.999m214-212c0-7.733 6.268-13.999 14.001-13.999-7.733 0-14.001-6.268-14.001-14.001 0 7.733-6.269 14.001-13.999 14.001 7.73 0 13.999 6.266 13.999 13.999"/><path fill="var(--illustration-invert)" d="M159.336 188.227a2 2 0 1 1-4 0 2 2 0 0 1 4 0m8.828 0a2 2 0 1 1-4 0 2 2 0 0 1 4 0m8.836 0a2 2 0 1 1-4 0 2 2 0 0 1 4 0"/></svg>