<svg xmlns="http://www.w3.org/2000/svg" fill="none" viewBox="0 0 240 240"><path fill="var(--illustration-accent-2)" d="M96 216h144V24H96z"/><path fill="var(--illustration-invert)" d="M16.828 74.368a4 4 0 0 1 4-4h88a4 4 0 0 1 4 4v88a4 4 0 0 1-4 4h-88a4 4 0 0 1-4-4z"/><path fill="var(--illustration-primary)" d="M96 240h144V0H96z"/><path fill="var(--illustration-accent-2)" d="M240 24v192H96v-49.632h13.828a3 3 0 0 0 3-3v-90a3 3 0 0 0-3-3H96V24z"/><path fill="var(--illustration-black)" fill-rule="evenodd" d="M212 121H49v-2h163z" clip-rule="evenodd"/><path fill="var(--illustration-black)" fill-rule="evenodd" d="M175.703 82.293 213.41 120l-37.707 37.707-1.414-1.414L210.582 120l-36.293-36.293z" clip-rule="evenodd"/><path fill="var(--illustration-gray)" fill-rule="evenodd" d="M96 216v24H0v-24zm0-192V0H0v24z" clip-rule="evenodd"/><path fill="var(--illustration-black)" d="M168 14a2 2 0 1 0 0-4 2 2 0 0 0 0 4m8 212h-16v4h16z"/></svg>