<svg xmlns="http://www.w3.org/2000/svg" fill="none" viewBox="0 0 240 240"><path fill="var(--illustration-gray)" d="M176 68c0-30.9-25.1-56-56-56S64 37.1 64 68H32v152h176V68h-32Zm-88 0c0-17.7 14.3-32 32-32s32 14.3 32 32H88Z"/><path fill="var(--illustration-accent-2)" d="M32 84H0v124h32V84Z"/><path fill="var(--illustration-primary)" d="M208 84H32v124h176V84Z"/><path fill="var(--illustration-accent-2)" d="M240 84h-32v124h32V84Z"/><path fill="var(--illustration-black)" d="M208 164h-34.1c-9.9 0-17.9-8-17.9-17.9v-.1c0-9.9 8-17.9 17.9-17.9H208V164Z"/><path fill="var(--illustration-primary)" fill-rule="evenodd" d="M174 137a9 9 0 0 0-9 9 9 9 0 0 0 9 9 9 9 0 0 0 9-9 9 9 0 0 0-9-9Zm-11 9c0-6.075 4.925-11 11-11s11 4.925 11 11-4.925 11-11 11-11-4.925-11-11Z" clip-rule="evenodd"/><path fill="var(--illustration-primary)" d="M216 128h-8v36h8v-36Z"/><path fill="var(--illustration-invert)" fill-rule="evenodd" d="M120 45c-12.748 0-23 10.252-23 23h-2c0-13.852 11.148-25 25-25s25 11.148 25 25h-2c0-12.748-10.252-23-23-23Z" clip-rule="evenodd"/><path fill="var(--illustration-black)" fill-rule="evenodd" d="M208 229H32v-2h176v2ZM54.9 156v-16h2v16h-2Z" clip-rule="evenodd"/><path fill="var(--illustration-black)" fill-rule="evenodd" d="m63.399 144.867-13.9 8-.998-1.734 13.9-8 .998 1.734Z" clip-rule="evenodd"/><path fill="var(--illustration-black)" fill-rule="evenodd" d="m49.499 143.133 13.9 8-.998 1.734-13.9-8 .998-1.734ZM79.1 156v-16h2v16h-2Z" clip-rule="evenodd"/><path fill="var(--illustration-black)" fill-rule="evenodd" d="m87.499 144.867-13.9 8-.998-1.734 13.9-8 .998 1.734Z" clip-rule="evenodd"/><path fill="var(--illustration-black)" fill-rule="evenodd" d="m73.599 143.133 13.9 8-.998 1.734-13.9-8 .998-1.734ZM102.9 156v-16h2v16h-2Z" clip-rule="evenodd"/><path fill="var(--illustration-black)" fill-rule="evenodd" d="m111.399 144.867-13.9 8-.998-1.734 13.9-8 .998 1.734Z" clip-rule="evenodd"/><path fill="var(--illustration-black)" fill-rule="evenodd" d="m97.499 143.133 13.9 8-.998 1.734-13.9-8 .998-1.734ZM126.9 156v-16h2v16h-2Z" clip-rule="evenodd"/><path fill="var(--illustration-black)" fill-rule="evenodd" d="m135.399 144.867-13.9 8-.998-1.734 13.9-8 .998 1.734Z" clip-rule="evenodd"/><path fill="var(--illustration-black)" fill-rule="evenodd" d="m121.499 143.133 13.9 8-.998 1.734-13.9-8 .998-1.734Z" clip-rule="evenodd"/></svg>