<svg xmlns="http://www.w3.org/2000/svg" fill="none" viewBox="0 0 240 240"><g clip-path="url(#a)"><path fill="var(--illustration-gray)" d="M168 56H0v184h168z"/><path fill="var(--illustration-accent-2)" d="M0 240h167.9L224 128H48z"/><path fill="var(--illustration-primary)" d="M168 128H48L0 240h167.8l.2-3.5z"/><path fill="var(--illustration-accent-2)" d="M182.402 47.7c1.7.7 3.2 1.6 4.6 2.4 1.4.9 2.7 1.8 4 2.7 2.5 1.9 4.8 4 6.9 6.1 4.2 4.3 7.6 9 10.4 14 2.9 5 5.1 10.4 6.5 16.2.7 2.9 1.2 5.9 1.4 9.1.1 1.6.1 3.2.1 4.9-.1 1.7-.2 3.4-.6 5.2-1.1 5.4-6.4 8.9-11.8 7.8-.6-.1-1.1-.3-1.6-.5-1.8-.7-3.3-1.5-4.7-2.3-1.5-.8-2.8-1.8-4.1-2.7-2.6-1.9-4.8-3.9-6.9-6.1-4.1-4.3-7.4-9.1-10.1-14.2s-4.8-10.5-6.2-16.3c-.7-2.9-1.2-5.9-1.5-9.1-.1-1.6-.2-3.2-.2-4.8 0-1.7.1-3.4.4-5.2.9-5.3 5.9-8.9 11.3-8 .7.3 1.4.6 2.1.8"/><path fill="var(--illustration-accent-2)" d="M168.258 51.24c1-1.6 2.1-2.9 3.2-4.1s2.2-2.4 3.4-3.5c2.3-2.2 4.7-4.1 7.2-5.8 4.9-3.4 10.1-6 15.6-8 5.4-2 11.1-3.3 17-3.7 3-.2 6-.2 9.2.1 1.6.2 3.2.4 4.8.7s3.3.8 5.1 1.4c5.2 2 7.8 7.8 5.8 12.9-.2.5-.5 1.1-.7 1.5-1 1.6-2 3-3.1 4.3q-1.65 1.95-3.3 3.6c-2.3 2.2-4.7 4.1-7.1 5.8-4.9 3.4-10.2 5.8-15.7 7.6s-11.2 3-17.1 3.4c-3 .2-6 .2-9.2-.1q-2.4-.15-4.8-.6c-1.6-.3-3.3-.7-5-1.3-5.1-1.8-7.8-7.3-6-12.4 0-.5.4-1.2.7-1.8"/><path fill="var(--illustration-accent-2)" d="M171.896 43.4c-1.7-.7-3.3-1.1-5-1.5-1.6-.4-3.2-.6-4.8-.8-3.1-.4-6.2-.5-9.2-.5-6 .2-11.7 1.1-17.3 2.7s-10.9 3.8-16 7c-2.5 1.6-5 3.4-7.4 5.5-1.2 1.1-2.4 2.2-3.5 3.4s-2.2 2.6-3.3 4.1c-3 4.6-1.7 10.8 2.9 13.9.5.3 1 .6 1.5.8 1.7.7 3.4 1.2 5 1.6q2.4.6 4.8.9c3.2.5 6.2.6 9.2.5 6-.2 11.7-1.3 17.2-3 5.5-1.8 10.8-4.1 15.9-7.3 2.5-1.6 5-3.4 7.4-5.5 1.2-1 2.4-2.1 3.5-3.3s2.3-2.5 3.3-4c3.1-4.4 2-10.5-2.4-13.6-.4-.2-1.1-.6-1.8-.9"/><path fill="var(--illustration-accent-2)" d="M172.801 62.9c.4-1.8.5-3.5.6-5.1q.15-2.55 0-4.8c-.1-3.2-.5-6.2-1.1-9.1-1.1-5.9-3-11.4-5.5-16.6s-5.6-10.1-9.5-14.6c-2-2.2-4.2-4.4-6.7-6.4-1.2-1-2.5-2-4-2.9-1.4-.9-2.9-1.8-4.6-2.5-5.1-2.2-11 .1-13.2 5.2-.2.5-.4 1.1-.5 1.6-.4 1.8-.7 3.5-.8 5.2s-.2 3.3-.1 4.9c.1 3.2.5 6.2 1 9.2 1.2 5.9 3.2 11.3 5.8 16.4s5.9 10 9.8 14.5c2 2.2 4.2 4.4 6.6 6.4 1.2 1 2.5 2 3.9 2.9s2.8 1.8 4.5 2.6c4.9 2.3 10.7.2 13-4.6.4-.8.7-1.6.8-2.3"/><path fill="var(--illustration-positive)" d="M176.403 65.6c10.052 0 18.2-8.148 18.2-18.2s-8.148-18.2-18.2-18.2-18.2 8.149-18.2 18.2 8.149 18.2 18.2 18.2"/><path fill="var(--illustration-positive)" d="M155.498 76.4c6.131 0 11.1-4.97 11.1-11.1s-4.969-11.1-11.1-11.1-11.1 4.97-11.1 11.1 4.97 11.1 11.1 11.1m23.699 9.7c6.02 0 10.9-4.88 10.9-10.9s-4.88-10.9-10.9-10.9-10.9 4.88-10.9 10.9 4.88 10.9 10.9 10.9"/><path fill="var(--illustration-positive)" d="M165.202 86.8c6.682 0 12.1-5.417 12.1-12.1s-5.418-12.1-12.1-12.1c-6.683 0-12.1 5.417-12.1 12.1s5.417 12.1 12.1 12.1"/><path fill="var(--illustration-accent-1)" d="M159.603 61.9c6.02 0 10.9-4.88 10.9-10.9s-4.88-10.9-10.9-10.9-10.9 4.88-10.9 10.9 4.88 10.9 10.9 10.9"/><path fill="var(--illustration-positive)" d="m164.275 61.608-15.83 38.685 11.106 4.545 15.83-38.686z"/><path fill="var(--illustration-accent-1)" d="M184.798 72.2c6.02 0 10.9-4.88 10.9-10.9s-4.88-10.9-10.9-10.9c-6.019 0-10.9 4.88-10.9 10.9s4.881 10.9 10.9 10.9"/><path fill="var(--illustration-positive)" d="m152.998 89.2-10.1 8.8 11.1 4.6zm11.102 4.6 1 13.3-11.1-4.5z"/><path fill="var(--illustration-black)" fill-rule="evenodd" d="M162.371 66.173c.513.206.76.789.553 1.301l-6.7 16.6a1 1 0 1 1-1.854-.748l6.7-16.6a1 1 0 0 1 1.301-.553m11.105 4.502a1 1 0 0 1 .547 1.304l-6.8 16.6a1 1 0 0 1-1.851-.758l6.8-16.6a1 1 0 0 1 1.304-.547" clip-rule="evenodd"/><path fill="var(--illustration-white)" fill-rule="evenodd" d="M38.455 71c11.54-.519 21.504 6.645 28.85 13.992 7.37 7.318 14.989 14.777 23.767 19.32 8.716 4.51 18.574 6.142 30.481 1.75 6.034-2.239 11.289-6.035 15.178-10.702l1.537 1.28c-4.111 4.933-9.655 8.936-16.021 11.297l-.001.001c-12.493 4.608-22.935 2.889-32.094-1.85-9.096-4.707-16.926-12.398-24.257-19.679l-.003-.002c-7.253-7.253-16.688-13.888-27.347-13.408h-.001c-8.632.383-16.373 5.578-21.036 11.989v.001c-12.293 16.841-5.27 41.323 15.382 50.09l-.781 1.841c-21.747-9.232-29.325-35.15-16.218-53.11C20.83 77.023 29.087 71.418 38.455 71" clip-rule="evenodd"/><path fill="var(--illustration-primary)" d="M96 55.8H56V36c0-11 9-20 20-20s20 9 20 20z"/><path fill="var(--illustration-black)" fill-rule="evenodd" d="M76.203 26.8a7 7 0 1 0 0 14 7 7 0 0 0 0-14m-9 7a9 9 0 1 1 18 0 9 9 0 0 1-18 0" clip-rule="evenodd"/></g><defs><clipPath id="a"><path fill="var(--illustration-white)" d="M0 0h240v240H0z"/></clipPath></defs></svg>