<svg xmlns="http://www.w3.org/2000/svg" fill="none" viewBox="0 0 240 240"><path fill="var(--illustration-primary)" d="M96 240h144V0H96v240Z"/><path fill="var(--illustration-accent-2)" d="M96 216h144V24H96v192Z"/><path fill="var(--illustration-black)" fill-rule="evenodd" d="M212 121H49v-2h163v2Z" clip-rule="evenodd"/><path fill="var(--illustration-black)" fill-rule="evenodd" d="M175.703 82.293 213.41 120l-37.707 37.707-1.414-1.414L210.582 120l-36.293-36.293 1.414-1.414Z" clip-rule="evenodd"/><path fill="var(--illustration-gray)" fill-rule="evenodd" d="M96 216v24H0v-24h96Zm0-192V0H0v24h96Z" clip-rule="evenodd"/><path fill="var(--illustration-black)" d="M168 14a2 2 0 1 0 0-4 2 2 0 0 0 0 4Zm8 212h-16v4h16v-4Z"/><path fill="var(--illustration-primary)" d="M64 72c-26.51 0-48 21.49-48 48s21.49 48 48 48 48-21.49 48-48-21.49-48-48-48Z"/><path fill="var(--illustration-black)" d="M96 84.23v71.54c9.82-8.79 16-21.55 16-35.77 0-14.21-6.18-26.98-16-35.77Z"/><path fill="var(--illustration-white)" d="M79.598 129.6c0 3.31-2.69 6-6 6h-19.2c-3.31 0-6-2.69-6-6v-19.2c0-3.31 2.69-6 6-6h19.2c3.31 0 6 2.69 6 6v19.2Z"/></svg>