<svg xmlns="http://www.w3.org/2000/svg" fill="none" viewBox="0 0 240 240"><path fill="var(--illustration-primary)" d="M0 240h144V0H0z"/><path fill="var(--illustration-black)" d="M72 14a2 2 0 1 0 0-4 2 2 0 0 0 0 4m8 212H64v4h16z"/><path fill="var(--illustration-accent-2)" d="M0 216h144V24H0z"/><path fill="var(--illustration-gray)" d="M200 80v80H48V80z"/><path fill="var(--illustration-primary)" d="M144 80v80H48V80z"/><path fill="var(--illustration-positive)" d="M200 124c-22.091 0-40-17.909-40-40s17.909-40 40-40 40 17.909 40 40-17.909 40-40 40"/><path fill="var(--illustration-primary)" fill-rule="evenodd" d="M160 84c0 22.091 17.909 40 40 40V80h-39.802a40 40 0 0 0-.198 4" clip-rule="evenodd"/><path fill="var(--illustration-black)" fill-rule="evenodd" d="M176 105H72v-2h104zm0 16H72v-2h104zm0 16H72v-2h104z" clip-rule="evenodd"/></svg>