<svg xmlns="http://www.w3.org/2000/svg" fill="none" viewBox="0 0 240 240"><g clip-path="url(#a)"><path fill="var(--illustration-black)" d="M155.8 73.81H14v113.44h141.8z"/><path fill="var(--illustration-positive)" d="M155.8 73.81V10L14 73.81z"/><path fill="var(--illustration-primary)" d="M184.173 73.81h-28.361v113.44h28.361z"/><path fill="var(--illustration-primary)" d="M184.173 73.81h-28.361v113.44h28.361z"/><path fill="var(--illustration-positive)" d="M184.173 109.91h-28.361v41.25h28.361z"/><path fill="var(--illustration-primary)" d="M184.172 109.91h14.83v41.25h-14.83z"/><path stroke="var(--illustration-white)" stroke-miterlimit="10" stroke-width="2" d="M14 89.66h141.8m0 81.75H14"/><path fill="var(--illustration-white)" d="M87.883 106.71c4.54 0 9.61 9.77 9.61 23.78s-5.06 23.78-9.61 23.78-9.61-9.77-9.61-23.78 5.06-23.78 9.61-23.78m0-2c-6.41 0-11.61 11.54-11.61 25.78s5.2 25.78 11.61 25.78 11.61-11.54 11.61-25.78-5.2-25.78-11.61-25.78"/><path fill="var(--illustration-white)" d="M87.882 106.71c13.11 0 23.78 10.67 23.78 23.78s-10.67 23.78-23.78 23.78-23.78-10.67-23.78-23.78 10.67-23.78 23.78-23.78m0-2c-14.24 0-25.78 11.54-25.78 25.78s11.54 25.78 25.78 25.78 25.78-11.54 25.78-25.78-11.54-25.78-25.78-25.78"/><path stroke="var(--illustration-white)" stroke-miterlimit="10" stroke-width="2" d="M113.672 130.5h-51.57"/><path fill="var(--illustration-positive)" d="M155.802 151.16c11.394 0 20.63-9.236 20.63-20.63s-9.236-20.63-20.63-20.63-20.63 9.236-20.63 20.63 9.236 20.63 20.63 20.63"/><path fill="var(--illustration-white)" d="M155.8 138.26a7.73 7.73 0 1 0 0-15.46 7.73 7.73 0 0 0 0 15.46"/><path fill="var(--illustration-gray)" d="M194 230c17.673 0 32-14.327 32-32s-14.327-32-32-32-32 14.327-32 32 14.327 32 32 32"/><path fill="var(--illustration-black)" d="M184.162 167.54v19.72h-20.31c3.32-9.33 10.86-16.67 20.31-19.72"/><path fill="var(--illustration-negative)" d="M194 222c13.255 0 24-10.745 24-24s-10.745-24-24-24-24 10.745-24 24 10.745 24 24 24"/><path fill="var(--illustration-black)" d="M195.501 204.193h-2.996L191.008 182h5.99zm-1.496 9.53c1.633 0 2.995-1.362 2.995-3.132s-1.362-3.131-2.995-3.131-2.996 1.361-2.996 3.131c-.136 1.634 1.226 3.132 2.996 3.132"/></g><defs><clipPath id="a"><path fill="var(--illustration-white)" d="M14 10h212v220H14z"/></clipPath></defs></svg>