<svg xmlns="http://www.w3.org/2000/svg" fill="none" viewBox="0 0 240 240"><path fill="var(--illustration-positive)" d="m77.914 93.869 75.918-31.966V93.87H77.914Z"/><path fill="var(--illustration-gray)" d="M136.854 41.965h-33.963v139.848h33.963V41.965Z"/><path fill="var(--illustration-gray)" d="M121 42h-18v198h18V42Zm9.858-.035h5.994V212.78h-5.994V41.965Z"/><path fill="var(--illustration-primary)" d="m119.131 76.507-16.162 6.803v10.548h33.803V69.075l-17.641 7.432Z"/><path fill="var(--illustration-black)" d="M119.142 193.511c-.749-.02-1.498-.04-2.247-.08l.1-1.998c.729.04 1.458.06 2.197.08l-.04 1.998h-.01Zm3.377 0-.04-1.998c.739-.02 1.468-.04 2.197-.08l.1 1.998c-.749.04-1.498.07-2.247.08h-.01Zm-9.001-.33c-.749-.07-1.498-.15-2.237-.25l.25-1.978c.719.09 1.448.17 2.177.24l-.19 1.988Zm14.615 0-.19-1.988c.729-.07 1.458-.15 2.177-.24l.25 1.978c-.739.09-1.488.17-2.237.25Zm-20.199-.729a86.16 86.16 0 0 1-2.217-.41l.389-1.958c.72.14 1.439.28 2.158.4l-.33 1.968Zm25.773 0-.33-1.968c.719-.12 1.438-.25 2.158-.4l.389 1.958c-.739.15-1.468.28-2.217.41Zm-31.287-1.139c-.729-.18-1.458-.37-2.177-.569l.539-1.928c.699.199 1.409.379 2.118.559l-.48 1.938Zm36.791 0-.48-1.938c.709-.18 1.419-.36 2.118-.559l.539 1.928c-.719.199-1.448.389-2.177.569Zm-42.205-1.548c-.719-.23-1.428-.48-2.127-.73l.679-1.878c.69.25 1.378.49 2.078.71l-.62 1.898h-.01Zm47.619 0-.62-1.898c.7-.23 1.389-.47 2.078-.72l.679 1.878c-.709.26-1.418.5-2.137.74Zm-52.903-1.938c-.69-.29-1.378-.58-2.068-.889l.81-1.828c.669.299 1.338.579 2.007.859l-.759 1.848.01.01Zm58.197-.01-.759-1.848c.679-.28 1.348-.57 2.018-.869l.819 1.818c-.69.309-1.379.609-2.078.889v.01Zm-63.301-2.308a72.724 72.724 0 0 1-1.998-1.039l.949-1.758c.639.34 1.288.68 1.948 1.009l-.9 1.788Zm68.435-.03-.889-1.788c.66-.329 1.309-.669 1.948-1.009l.949 1.758c-.659.36-1.328.71-2.008 1.039Zm-73.37-2.667c-.64-.379-1.279-.779-1.918-1.179l1.069-1.688c.62.39 1.239.779 1.868 1.149l-1.03 1.718h.01Zm78.315-.04-1.029-1.718c.63-.379 1.249-.759 1.868-1.159l1.079 1.689c-.629.409-1.269.799-1.918 1.188Zm-83.03-3.007a76.705 76.705 0 0 1-1.828-1.318l1.199-1.598c.59.439 1.178.859 1.778 1.278l-1.149 1.638Zm87.755-.059-1.149-1.639c.6-.419 1.189-.849 1.778-1.288l1.199 1.598c-.599.45-1.209.889-1.828 1.319v.01Zm-92.24-3.337a59.724 59.724 0 0 1-1.718-1.448l1.308-1.509c.55.48 1.11.949 1.678 1.409l-1.268 1.548Zm96.725-.07-1.269-1.548c.57-.46 1.129-.939 1.679-1.419l1.308 1.509c-.569.489-1.139.979-1.718 1.448v.01Zm-100.95-3.646a80.221 80.221 0 0 1-1.619-1.568l1.419-1.409a74.83 74.83 0 0 0 1.568 1.529l-1.369 1.458v-.01Zm105.176-.08-1.379-1.448c.529-.5 1.059-1.019 1.568-1.538l1.419 1.408a81.617 81.617 0 0 1-1.608 1.568v.01Zm-109.132-3.935a60.189 60.189 0 0 1-1.499-1.689l1.519-1.298c.48.549.959 1.099 1.458 1.638l-1.478 1.349Zm113.067-.08-1.478-1.349c.489-.539.979-1.089 1.458-1.638l1.519 1.298c-.49.57-.989 1.129-1.489 1.689h-.01Zm-116.713-4.216c-.46-.589-.92-1.189-1.369-1.788l1.608-1.189c.44.59.88 1.169 1.329 1.749l-1.568 1.238v-.01Zm120.339-.08-1.568-1.228c.45-.58.889-1.159 1.329-1.749l1.608 1.189c-.45.6-.899 1.199-1.359 1.788h-.01Zm-123.666-4.465a87.92 87.92 0 0 1-1.238-1.888l1.688-1.069c.39.62.789 1.229 1.198 1.838l-1.658 1.119h.01Zm126.973-.08-1.658-1.119c.409-.609.809-1.218 1.198-1.838l1.688 1.069c-.399.63-.809 1.259-1.228 1.878v.01Zm-129.95-4.705a59.566 59.566 0 0 1-1.088-1.978l1.758-.939c.35.65.699 1.289 1.059 1.918l-1.729.999Zm132.917-.07-1.739-.989c.36-.629.71-1.268 1.059-1.917l1.758.939a54.177 54.177 0 0 1-1.088 1.967h.01Zm-135.534-4.924c-.33-.68-.639-1.359-.949-2.048l1.828-.809c.3.669.6 1.338.92 1.998l-1.799.869v-.01Zm138.141-.06-1.798-.859c.309-.66.619-1.319.919-1.988l1.828.809c-.3.689-.62 1.368-.939 2.038h-.01Zm-140.388-5.125a76.55 76.55 0 0 1-.79-2.117l1.879-.67c.25.69.5 1.379.769 2.058l-1.858.729Zm142.615-.03-1.858-.719c.26-.679.52-1.368.769-2.058l1.878.67a51.863 51.863 0 0 1-.789 2.107ZM47.63 139.499a76.28 76.28 0 0 1-.63-2.168l1.928-.529c.19.709.4 1.409.61 2.108l-1.908.589Zm146.321-.02-1.908-.589c.21-.699.42-1.399.61-2.108l1.928.529c-.2.73-.41 1.449-.63 2.168Zm-147.77-5.424a77.74 77.74 0 0 1-.47-2.208l1.959-.389c.14.719.29 1.438.46 2.147l-1.949.44v.01Zm149.219-.02-1.948-.44c.16-.709.31-1.428.449-2.147l1.958.379a53.7 53.7 0 0 1-.469 2.208h.01Zm-150.268-5.514c-.11-.739-.21-1.488-.3-2.238l1.989-.239c.09.729.19 1.448.29 2.167l-1.978.3v.01Zm151.307-.02-1.978-.3c.11-.719.21-1.448.289-2.167l1.988.239c-.09.75-.19 1.489-.299 2.238v-.01Zm-151.946-5.574c-.06-.749-.1-1.498-.14-2.248l1.998-.089c.03.729.08 1.458.14 2.187l-1.988.15h-.01Zm152.575-.01-1.988-.15c.06-.729.1-1.458.14-2.187l1.998.09c-.04.749-.08 1.498-.14 2.247h-.01Zm-152.795-5.604v-.29c0-.659 0-1.308.02-1.967l1.998.05c-.02.639-.02 1.278-.02 1.917v.27l-1.998.02Zm153.025-.03H195.3v-.27c0-.649 0-1.288-.03-1.927l1.998-.05c.02.659.03 1.318.03 1.977v.27Zm-150.847-5.464-1.998-.14c.05-.749.12-1.498.19-2.247l1.988.199c-.07.73-.13 1.459-.18 2.188Zm148.669-.02c-.05-.729-.11-1.458-.18-2.188l1.988-.199c.07.739.14 1.488.19 2.247l-1.998.14Zm-148.09-5.434-1.977-.28c.11-.749.22-1.488.35-2.227l1.967.339c-.12.72-.24 1.439-.34 2.168Zm147.511-.02c-.1-.729-.22-1.448-.34-2.168l1.968-.339c.13.739.25 1.478.35 2.227l-1.978.28Zm-146.542-5.374-1.948-.43c.16-.739.33-1.468.52-2.197l1.938.49c-.18.708-.34 1.418-.5 2.137H48Zm145.563-.02c-.16-.709-.33-1.429-.5-2.138l1.938-.49c.18.73.36 1.46.52 2.198l-1.948.43h-.01ZM49.378 95.657l-1.918-.57c.22-.719.44-1.438.68-2.148l1.897.63c-.23.69-.45 1.388-.66 2.088Zm142.815-.02a72.35 72.35 0 0 0-.659-2.088l1.898-.63c.24.71.459 1.429.679 2.148l-1.918.57ZM51.146 90.462l-1.868-.709c.27-.7.54-1.398.83-2.088l1.847.77a68.41 68.41 0 0 0-.809 2.027Zm139.289-.02a45.528 45.528 0 0 0-.819-2.037l1.848-.77c.29.7.569 1.399.839 2.098l-1.868.71ZM53.284 85.438l-1.808-.85c.32-.679.649-1.348.979-2.017l1.788.899c-.33.65-.65 1.308-.96 1.968Zm135.003-.05a69.245 69.245 0 0 0-.959-1.978l1.789-.9c.339.67.669 1.35.988 2.029l-1.808.849h-.01ZM55.781 80.573l-1.738-.979c.37-.66.749-1.299 1.129-1.948l1.708 1.029c-.38.63-.74 1.259-1.099 1.898Zm129.989-.07a69.498 69.498 0 0 0-1.109-1.898l1.709-1.029c.389.65.769 1.289 1.128 1.948l-1.738.979h.01ZM58.638 75.898l-1.668-1.099c.42-.63.839-1.249 1.268-1.858l1.629 1.149c-.42.6-.83 1.199-1.24 1.808h.01Zm124.265-.07c-.409-.61-.819-1.209-1.238-1.808l1.628-1.159c.429.61.859 1.229 1.278 1.858l-1.668 1.11ZM61.824 71.453l-1.578-1.219c.46-.59.93-1.179 1.409-1.758l1.538 1.269c-.46.57-.92 1.138-1.369 1.718v-.01Zm117.873-.08c-.45-.58-.909-1.149-1.369-1.718l1.539-1.269c.479.58.949 1.169 1.408 1.758l-1.578 1.219v.01ZM65.331 67.247l-1.489-1.338c.5-.56 1.01-1.109 1.529-1.648l1.448 1.378c-.5.53-.999 1.069-1.488 1.608Zm110.84-.08a119.01 119.01 0 0 0-1.489-1.608l1.449-1.378c.519.54 1.028 1.099 1.528 1.648l-1.488 1.339ZM69.137 63.303l-1.389-1.439a80.85 80.85 0 0 1 1.648-1.538l1.339 1.478c-.54.49-1.08.99-1.599 1.499Zm103.218-.07a57.008 57.008 0 0 0-1.609-1.499l1.339-1.478c.559.5 1.109 1.019 1.648 1.538l-1.378 1.439Zm-99.133-3.586-1.278-1.539c.579-.48 1.168-.949 1.758-1.418l1.228 1.578c-.58.45-1.149.91-1.708 1.379Zm95.037-.07a56.8 56.8 0 0 0-1.708-1.369l1.229-1.578c.589.46 1.178.929 1.758 1.408l-1.279 1.539ZM77.567 56.3l-1.158-1.628c.609-.44 1.228-.87 1.858-1.279l1.108 1.659c-.609.41-1.208.819-1.808 1.248Zm86.347-.05c-.6-.42-1.199-.839-1.808-1.248l1.109-1.659c.619.42 1.238.84 1.848 1.28l-1.159 1.627h.01Zm-81.772-2.967-1.038-1.708c.639-.39 1.288-.769 1.947-1.138l.99 1.738c-.64.36-1.27.729-1.899 1.108Zm77.187-.04a59.464 59.464 0 0 0-1.888-1.108l.989-1.738c.649.37 1.298.749 1.938 1.138l-1.039 1.709Zm-72.392-2.637-.909-1.778c.67-.34 1.349-.679 2.028-.999l.86 1.808c-.66.31-1.32.64-1.969.97h-.01Zm67.617-.03a70.867 70.867 0 0 0-1.958-.959l.849-1.808c.679.32 1.349.65 2.018.99l-.909 1.777Zm-62.632-2.287-.78-1.838c.69-.29 1.39-.57 2.098-.85l.72 1.869c-.68.27-1.369.54-2.038.819Zm57.677-.02c-.669-.28-1.348-.55-2.027-.82l.719-1.867c.699.27 1.398.55 2.087.839l-.779 1.838v.01ZM97.066 46.34l-.64-1.898c.71-.24 1.43-.47 2.159-.69l.579 1.909c-.7.21-1.398.44-2.098.669v.01Zm47.409 0c-.689-.23-1.389-.46-2.088-.67l.58-1.907c.719.22 1.438.45 2.147.68l-.629 1.897h-.01Zm-42.144-1.548-.49-1.938c.729-.19 1.458-.36 2.188-.52l.439 1.948c-.719.16-1.428.33-2.127.51h-.01Zm36.89 0c-.71-.18-1.419-.35-2.138-.51l.439-1.948c.74.16 1.469.34 2.188.52l-.489 1.938Zm-31.536-1.149-.35-1.968a85.25 85.25 0 0 1 2.218-.36l.289 1.978c-.729.11-1.448.22-2.167.35h.01Zm26.171 0c-.719-.13-1.438-.24-2.167-.35l.289-1.977c.75.11 1.489.23 2.218.36l-.35 1.967h.01Zm-20.747-.75-.21-1.987c.749-.08 1.498-.14 2.248-.2l.14 1.988c-.73.05-1.459.12-2.188.19l.01.01Zm15.313 0c-.729-.07-1.458-.14-2.187-.189l.149-1.988c.75.05 1.499.12 2.248.2l-.2 1.988-.01-.01Zm-9.849-.359-.06-1.998c1.488-.04 2.997-.04 4.495 0l-.06 1.998a79.768 79.768 0 0 0-4.375 0Zm2.564 189.085h-.29c-.569 0-1.138 0-1.708-.01h-.239l.019-1.997h.26c.55.01 1.109.02 1.668.02h.29v1.997-.01Zm3.366-.06-.059-1.997c.739-.02 1.468-.05 2.197-.09l.1 1.998a87.9 87.9 0 0 1-2.238.089Zm-8.97-.06c-.749-.029-1.498-.079-2.237-.119l.129-1.998c.73.05 1.469.09 2.198.12l-.09 1.997Zm14.564-.249-.159-1.988c.729-.06 1.458-.12 2.197-.2l.2 1.988c-.739.08-1.488.14-2.238.2Zm-20.148-.14c-.749-.07-1.488-.15-2.227-.23l.229-1.988c.73.08 1.459.16 2.188.23l-.19 1.988Zm25.722-.44-.259-1.977c.729-.1 1.458-.2 2.177-.31l.3 1.978c-.739.11-1.478.209-2.218.309Zm-31.296-.219c-.739-.11-1.478-.22-2.217-.34l.319-1.968c.72.12 1.449.23 2.178.34l-.29 1.978.01-.01Zm36.83-.64-.359-1.968c.719-.129 1.448-.269 2.167-.409l.39 1.958c-.729.15-1.468.289-2.208.419h.01Zm-42.354-.299c-.739-.14-1.468-.29-2.197-.45l.42-1.958c.718.16 1.438.3 2.157.44l-.38 1.958v.01Zm47.848-.829-.449-1.948c.719-.17 1.428-.34 2.148-.52l.489 1.938c-.719.18-1.448.36-2.178.53h-.01Zm-53.322-.38c-.729-.18-1.448-.37-2.167-.559l.519-1.928c.71.189 1.418.369 2.138.549l-.48 1.938h-.01Zm58.747-1.029-.55-1.918c.709-.2 1.419-.409 2.118-.629l.589 1.908c-.719.22-1.438.429-2.157.639Zm-64.161-.449c-.72-.21-1.428-.44-2.138-.67l.61-1.898c.699.22 1.398.44 2.107.65l-.569 1.918h-.01Zm69.525-1.229-.64-1.888c.7-.24 1.399-.48 2.088-.729l.679 1.878-2.127.749v-.01Zm-74.86-.52a124.97 124.97 0 0 1-2.107-.769l.7-1.868c.689.26 1.378.51 2.067.759l-.67 1.878h.01Zm80.134-1.418-.729-1.858c.689-.27 1.368-.549 2.048-.829l.769 1.848c-.69.29-1.389.569-2.078.849l-.01-.01Zm-85.368-.579c-.689-.28-1.378-.57-2.057-.869l.799-1.828c.67.289 1.338.579 2.018.849l-.76 1.848Zm90.542-1.609-.829-1.818c.67-.309 1.339-.619 1.998-.929l.859 1.798c-.679.32-1.358.64-2.038.949h.01Zm-95.656-.639c-.68-.32-1.349-.639-2.018-.969l.89-1.788c.659.32 1.318.639 1.977.949l-.849 1.808Zm100.711-1.808-.909-1.778a91.32 91.32 0 0 0 1.948-1.029l.949 1.758c-.66.36-1.319.709-1.988 1.049Zm-105.716-.689c-.659-.35-1.318-.709-1.967-1.069l.968-1.748c.64.359 1.28.709 1.928 1.049l-.939 1.768h.01Zm110.641-1.998-.999-1.728c.639-.37 1.268-.739 1.898-1.119l1.038 1.708c-.639.39-1.288.769-1.937 1.149v-.01Zm-115.515-.749c-.64-.38-1.279-.769-1.908-1.169l1.059-1.698c.619.389 1.248.769 1.878 1.149l-1.03 1.718Zm120.299-2.188-1.088-1.678c.619-.4 1.228-.809 1.838-1.219l1.118 1.658c-.619.42-1.248.83-1.878 1.239h.01ZM57.666 212.6c-.62-.41-1.239-.829-1.858-1.259l1.139-1.638c.599.42 1.208.829 1.818 1.239l-1.11 1.668.01-.01Zm129.679-2.357-1.168-1.619c.599-.429 1.188-.859 1.778-1.298l1.198 1.598c-.599.449-1.198.889-1.808 1.328v-.009Zm-134.264-.85a76.01 76.01 0 0 1-1.788-1.348l1.218-1.588c.58.449 1.17.889 1.758 1.318l-1.188 1.608v.01Zm138.74-2.537-1.239-1.568c.579-.46 1.149-.919 1.708-1.389l1.269 1.539c-.58.479-1.159.949-1.738 1.408v.01Zm-143.165-.899a118.99 118.99 0 0 1-1.728-1.428L48.215 203c.56.47 1.119.939 1.688 1.409l-1.258 1.548h.01Zm147.46-2.697-1.319-1.498c.55-.48 1.099-.969 1.639-1.469l1.348 1.479c-.549.499-1.109.999-1.668 1.498v-.01ZM44.4 202.311a80.063 80.063 0 0 1-1.648-1.518l1.368-1.459c.54.5 1.08.999 1.619 1.489l-1.339 1.488Zm155.841-2.847-1.388-1.438a114.51 114.51 0 0 0 1.568-1.549l1.419 1.409c-.53.529-1.059 1.059-1.599 1.578Zm-159.916-.999a119.51 119.51 0 0 1-1.579-1.598l1.439-1.389c.51.53 1.029 1.049 1.548 1.569l-1.408 1.418Zm163.842-2.996-1.458-1.369c.499-.539.999-1.079 1.488-1.618l1.479 1.338c-.5.55-1.009 1.099-1.519 1.649h.01ZM36.439 194.42c-.51-.55-1-1.109-1.498-1.669l1.498-1.318c.49.549.979 1.099 1.468 1.638l-1.468 1.349Zm171.454-3.127-1.518-1.289c.469-.559.949-1.118 1.408-1.688l1.549 1.269c-.47.579-.949 1.149-1.439 1.718v-.01Zm-175.14-1.099c-.48-.579-.95-1.159-1.419-1.748l1.569-1.239c.46.58.919 1.149 1.388 1.709l-1.538 1.278Zm178.656-3.256-1.588-1.219c.45-.579.889-1.169 1.329-1.758l1.608 1.189c-.44.599-.889 1.198-1.349 1.788Zm-182.132-1.149a120.73 120.73 0 0 1-1.329-1.808l1.618-1.169c.43.6.87 1.189 1.309 1.778l-1.598 1.199Zm185.429-3.366-1.638-1.139c.419-.599.829-1.209 1.238-1.818l1.658 1.109c-.419.619-.829 1.238-1.258 1.848ZM26.02 181.224c-.42-.619-.829-1.249-1.238-1.878l1.678-1.089c.4.619.799 1.229 1.218 1.838l-1.658 1.119v.01Zm191.762-3.476-1.698-1.059c.39-.619.769-1.249 1.149-1.878l1.718 1.029a73.827 73.827 0 0 1-1.169 1.908Zm-194.789-1.259c-.39-.639-.769-1.279-1.148-1.928l1.728-.999c.37.64.749 1.269 1.129 1.898l-1.709 1.039v-.01Zm197.636-3.566-1.748-.969c.36-.639.709-1.279 1.049-1.928l1.768.939c-.349.659-.709 1.319-1.069 1.968v-.01Zm-200.423-1.309a72.387 72.387 0 0 1-1.048-1.987l1.778-.919c.34.659.679 1.308 1.029 1.947l-1.759.949v.01Zm203.03-3.636-1.788-.889c.33-.659.64-1.318.959-1.978l1.808.849c-.319.67-.639 1.349-.969 2.008l-.01.01ZM17.659 166.61c-.32-.68-.64-1.359-.949-2.038l1.818-.829c.3.669.62 1.338.93 1.998l-1.799.869Zm207.935-3.706-1.828-.799c.29-.67.579-1.339.859-2.018l1.848.759c-.28.689-.569 1.379-.869 2.058h-.01Zm-210.242-1.429c-.29-.689-.57-1.388-.85-2.077l1.859-.74c.27.69.549 1.369.839 2.048l-1.848.769Zm212.35-3.766-1.868-.709c.259-.689.509-1.378.759-2.068l1.878.67c-.25.699-.51 1.408-.769 2.107Zm-214.388-1.478c-.25-.709-.5-1.408-.75-2.118l1.889-.639c.24.699.48 1.398.729 2.088l-1.878.679.01-.01Zm216.246-3.816-1.898-.609c.229-.699.439-1.399.659-2.098l1.918.569c-.21.72-.44 1.429-.669 2.138h-.01Zm-218.024-1.518c-.22-.719-.43-1.439-.64-2.158l1.918-.549c.2.709.41 1.418.63 2.117l-1.908.59Zm219.612-3.856-1.928-.519c.19-.71.37-1.419.549-2.128l1.938.479c-.179.73-.369 1.449-.559 2.178v-.01Zm-221.13-1.548c-.18-.72-.36-1.449-.53-2.178l1.948-.45c.17.72.34 1.429.52 2.138l-1.938.49Zm222.448-3.896-1.957-.42c.159-.719.299-1.438.449-2.157l1.958.389c-.14.739-.3 1.469-.45 2.198v-.01ZM8.779 140.029a85.87 85.87 0 0 1-.42-2.198l1.968-.36c.13.72.27 1.449.42 2.168l-1.958.39h-.01Zm224.746-3.946-1.968-.33c.12-.719.23-1.448.34-2.177l1.978.289c-.11.739-.22 1.479-.34 2.218h-.01ZM7.81 134.505c-.11-.74-.21-1.479-.31-2.218l1.978-.26c.1.729.2 1.459.31 2.178l-1.978.3Zm226.494-3.966-1.987-.23c.08-.729.159-1.458.229-2.188l1.988.19c-.07.749-.15 1.489-.239 2.238l.009-.01ZM7.111 128.951c-.07-.74-.14-1.489-.2-2.238l1.988-.16c.06.729.13 1.469.2 2.198l-1.988.2Zm227.703-3.996-1.998-.13c.05-.729.09-1.458.12-2.198l1.998.09c-.03.749-.08 1.499-.13 2.238h.01ZM6.691 123.357c-.04-.75-.07-1.489-.09-2.238l1.998-.07c.02.739.06 1.469.09 2.208l-1.998.1Zm228.363-4.006-1.998-.03v-.37c.01-.559.02-1.118.02-1.678v-.16h1.998v.16c0 .57 0 1.139-.01 1.708v.37h-.01ZM6.531 117.753v-.42c0-.569 0-1.139.01-1.708v-.13l1.998.05v.08c0 .599-.01 1.159-.01 1.718v.4H6.531v.01Zm226.485-3.936c-.02-.739-.05-1.468-.09-2.198l1.998-.1c.04.75.07 1.489.09 2.238l-1.998.06ZM8.649 112.249l-1.998-.09c.03-.749.07-1.499.12-2.238l1.998.13c-.05.729-.09 1.468-.12 2.198Zm224.067-3.926c-.06-.729-.12-1.468-.2-2.198l1.988-.199c.07.739.14 1.488.2 2.237l-1.988.16ZM9.019 106.755l-1.988-.19c.07-.749.15-1.489.23-2.228l1.987.22c-.08.729-.16 1.458-.23 2.188v.01Zm223.118-3.916c-.09-.729-.19-1.459-.3-2.178l1.978-.289c.11.739.21 1.478.31 2.217l-1.978.25h-.01Zm-222.48-1.558-1.977-.28c.11-.739.22-1.479.34-2.218l1.968.32c-.12.72-.23 1.448-.33 2.178Zm221.641-3.886c-.13-.72-.27-1.449-.41-2.168l1.958-.39c.15.73.29 1.469.42 2.208l-1.968.35ZM10.567 95.846l-1.958-.38c.14-.738.29-1.468.45-2.197l1.957.42c-.15.719-.3 1.438-.44 2.157h-.01Zm219.622-3.845c-.17-.72-.34-1.429-.519-2.138l1.937-.49c.18.73.36 1.449.53 2.178l-1.948.45ZM11.746 90.472l-1.938-.48c.18-.728.36-1.448.56-2.167l1.927.51c-.19.709-.37 1.418-.55 2.137Zm217.074-3.806a121.34 121.34 0 0 0-.619-2.117l1.908-.58c.22.72.43 1.439.639 2.158l-1.918.54h-.01ZM13.184 85.158l-1.918-.57c.21-.719.44-1.428.66-2.137l1.897.61c-.22.698-.44 1.398-.649 2.107l.01-.01Zm213.998-3.766c-.24-.7-.479-1.398-.729-2.088l1.878-.679c.25.71.499 1.418.739 2.128l-1.888.64Zm-212.29-1.468-1.888-.67c.25-.709.51-1.408.77-2.107l1.867.699c-.26.69-.51 1.378-.749 2.068v.01Zm210.392-3.716c-.269-.69-.549-1.369-.829-2.048l1.848-.77c.29.69.57 1.39.849 2.088l-1.858.73h-.01ZM16.85 74.779l-1.848-.759c.28-.69.57-1.378.87-2.058l1.837.79c-.29.669-.58 1.348-.849 2.027h-.01Zm206.287-3.656c-.3-.67-.61-1.338-.929-2.008l1.808-.859c.319.68.639 1.359.949 2.038l-1.818.82-.01.01Zm-204.08-1.368-1.807-.85c.32-.679.639-1.348.969-2.017l1.788.879c-.32.66-.64 1.318-.95 1.978v.01Zm201.682-3.606c-.339-.66-.679-1.309-1.029-1.958l1.758-.95c.35.66.7 1.32 1.049 1.989l-1.778.909v.01ZM21.505 64.84l-1.768-.939c.35-.66.71-1.319 1.069-1.968l1.748.97a84.8 84.8 0 0 0-1.049 1.927v.01Zm196.597-3.536c-.37-.64-.739-1.269-1.119-1.898l1.708-1.029c.39.64.77 1.289 1.139 1.938l-1.728.999v-.01Zm-193.9-1.259-1.718-1.019c.38-.639.77-1.278 1.169-1.918l1.698 1.06a69.44 69.44 0 0 0-1.139 1.877h-.01Zm191.033-3.456c-.399-.62-.799-1.229-1.209-1.838l1.659-1.119c.419.62.829 1.249 1.238 1.878l-1.678 1.079h-.01ZM27.129 55.39l-1.668-1.108c.41-.62.829-1.24 1.258-1.858l1.639 1.138c-.42.6-.83 1.209-1.23 1.818v.01Zm185.01-3.356c-.43-.6-.86-1.189-1.299-1.778l1.598-1.199c.45.6.889 1.199 1.329 1.808l-1.619 1.169h-.009ZM30.275 50.885l-1.608-1.189c.44-.599.89-1.198 1.349-1.788l1.588 1.219c-.45.58-.889 1.169-1.319 1.758h-.01Zm178.547-3.246c-.459-.58-.919-1.15-1.388-1.719l1.538-1.268c.479.58.949 1.159 1.408 1.748l-1.568 1.239h.01Zm-175.18-1.1-1.548-1.258c.469-.58.948-1.158 1.428-1.728l1.528 1.289c-.47.56-.939 1.119-1.408 1.688v.01Zm171.654-3.136a77.46 77.46 0 0 0-1.468-1.638l1.478-1.349c.499.55.999 1.11 1.498 1.679l-1.508 1.318v-.01ZM37.218 42.354l-1.488-1.338c.5-.55.998-1.109 1.508-1.648l1.458 1.368c-.5.54-.998 1.079-1.488 1.628l.01-.01Zm164.352-3.006c-.509-.53-1.029-1.05-1.548-1.569l1.408-1.418c.53.53 1.049 1.059 1.568 1.598l-1.438 1.389h.01Zm-160.576-1-1.419-1.408c.53-.53 1.06-1.059 1.589-1.578l1.388 1.438c-.53.51-1.049 1.03-1.568 1.549h.01Zm156.66-2.866c-.539-.5-1.079-1-1.618-1.489l1.338-1.478c.55.5 1.099 1.009 1.649 1.518l-1.369 1.459v-.01Zm-152.684-.95-1.349-1.468a83.152 83.152 0 0 1 1.668-1.498l1.319 1.498c-.55.49-1.099.98-1.638 1.469Zm148.579-2.716c-.56-.48-1.119-.95-1.689-1.409l1.269-1.548c.579.47 1.149.949 1.718 1.438l-1.298 1.519Zm-144.434-.9-1.279-1.538c.58-.479 1.16-.948 1.739-1.418l1.248 1.558c-.58.46-1.148.92-1.708 1.389v.01Zm140.158-2.556c-.579-.45-1.168-.89-1.758-1.329l1.189-1.608c.599.45 1.199.899 1.788 1.348l-1.219 1.578v.01ZM53.44 27.5l-1.198-1.598c.6-.45 1.198-.889 1.808-1.328l1.169 1.618c-.6.43-1.19.869-1.779 1.308Zm131.398-2.397c-.599-.42-1.209-.829-1.818-1.239l1.109-1.658c.619.41 1.239.83 1.848 1.259l-1.139 1.638Zm-126.912-.8-1.12-1.657c.62-.42 1.24-.83 1.869-1.239l1.089 1.678c-.62.4-1.23.81-1.838 1.219Zm122.317-2.227c-.619-.39-1.249-.769-1.878-1.148l1.029-1.719c.639.38 1.279.77 1.908 1.17l-1.059 1.697Zm-117.682-.749-1.04-1.708c.64-.39 1.29-.77 1.929-1.149l.998 1.728c-.639.37-1.268.75-1.897 1.13h.01Zm112.947-2.048c-.639-.36-1.278-.709-1.928-1.058l.939-1.759c.66.35 1.309.71 1.958 1.07l-.979 1.747h.01ZM67.335 18.58l-.949-1.758c.66-.36 1.319-.71 1.988-1.049l.92 1.778c-.66.34-1.31.68-1.949 1.04l-.01-.01Zm103.318-1.858c-.659-.33-1.318-.64-1.977-.959l.859-1.808c.669.32 1.338.64 2.007.97l-.889 1.787v.01Zm-98.403-.65-.869-1.797c.67-.32 1.349-.64 2.038-.95l.829 1.819c-.67.31-1.339.62-1.998.939v-.01Zm93.419-1.667c-.669-.29-1.339-.58-2.018-.86l.759-1.847c.689.29 1.379.579 2.058.879l-.799 1.828Zm-88.394-.6-.78-1.838c.69-.29 1.389-.57 2.078-.849l.74 1.858c-.69.27-1.37.55-2.048.84l.01-.01Zm83.299-1.478c-.689-.26-1.378-.51-2.067-.76l.669-1.877c.709.25 1.408.51 2.108.769l-.71 1.868Zm-78.155-.54-.69-1.877c.71-.26 1.41-.51 2.129-.75l.639 1.888c-.7.24-1.389.48-2.078.74ZM155.38 10.5a83.21 83.21 0 0 0-2.098-.66l.58-1.907c.719.22 1.428.44 2.137.669l-.619 1.898Zm-67.717-.47-.589-1.908c.72-.22 1.438-.44 2.158-.639l.55 1.918c-.71.2-1.42.41-2.119.63Zm62.443-1.098c-.71-.19-1.419-.38-2.128-.55l.479-1.938c.73.18 1.449.37 2.168.56l-.519 1.928Zm-57.138-.4-.5-1.938c.72-.19 1.449-.36 2.178-.53l.46 1.949c-.72.17-1.43.34-2.138.519Zm51.784-.899a83.68 83.68 0 0 0-2.158-.45l.389-1.957c.73.15 1.469.3 2.198.46l-.419 1.957-.01-.01Zm-46.42-.32-.4-1.958c.73-.15 1.469-.29 2.208-.42l.359 1.969c-.719.13-1.448.27-2.167.42v-.01Zm41.005-.709c-.719-.12-1.448-.23-2.177-.34l.289-1.977c.74.11 1.479.22 2.218.35l-.33 1.967Zm-35.581-.25-.3-1.977c.739-.11 1.479-.22 2.218-.32l.26 1.978c-.73.1-1.459.2-2.178.31v.01Zm30.127-.52c-.729-.079-1.458-.159-2.187-.229l.189-1.988c.75.07 1.489.15 2.228.24l-.23 1.988v-.01Zm-24.673-.169-.2-1.988c.739-.08 1.489-.14 2.228-.21l.17 1.988c-.73.06-1.469.13-2.198.2v.01Zm19.189-.33c-.729-.05-1.458-.09-2.197-.13l.09-1.997c.749.04 1.498.08 2.237.13l-.13 1.997Zm-13.695-.1-.11-1.997c.749-.04 1.489-.07 2.238-.1l.07 1.998c-.74.03-1.469.06-2.208.1h.01Zm8.201-.14h-.479c-.56-.02-1.119-.02-1.678-.02h-.53V3.088h.53c.569 0 1.138 0 1.708.01h.489l-.04 2.008v-.01Z"/><path fill="var(--illustration-black)" d="M120.808 231.659a113.604 113.604 0 0 1-31.476-4.455c-22.226-6.393-41.745-19.129-56.45-36.84l1.54-1.279c14.454 17.401 33.633 29.918 55.47 36.191 22.325 6.413 45.759 5.764 67.786-1.888l.659 1.888c-12.217 4.246-24.863 6.373-37.519 6.373l-.01.01ZM199.163 36.9C168.486 7.072 124.344-2.737 83.957 11.298l-.659-1.888c41.096-14.285 86.027-4.305 117.253 26.052l-1.388 1.428v.01Z"/><path fill="var(--illustration-accent-1)" d="M212.162 18.71h-28.629a3.306 3.306 0 0 0-3.306 3.306v28.63a3.306 3.306 0 0 0 3.306 3.306h28.629a3.306 3.306 0 0 0 3.306-3.307V22.016a3.306 3.306 0 0 0-3.306-3.306Z"/><path fill="var(--illustration-white)" d="M188.055 26.541h19.578v19.58h-19.578V26.54Z"/><path fill="var(--illustration-primary)" d="m207.633 46.12 1.958 1.958V24.583l-1.958 1.958v19.58Z"/><path fill="var(--illustration-black)" d="m207.638 26.541 1.958-1.957h-23.494l1.957 1.957h19.579ZM188.059 46.12l-1.957 1.958h23.494l-1.958-1.958h-19.579Z"/><path fill="var(--illustration-positive)" d="m197.844 40.247-3.426-3.427-6.363 5.594v3.706h19.578v-7.83l-3.915-3.916-5.874 5.874Z"/><path fill="var(--illustration-accent-1)" d="M195.89 31.676a2.688 2.688 0 0 1-2.687 2.687 2.694 2.694 0 0 1-2.687-2.687 2.694 2.694 0 0 1 2.687-2.687 2.695 2.695 0 0 1 2.687 2.687Z"/><path fill="var(--illustration-primary)" d="m186.102 24.584 1.957 1.957v19.58l-1.957 1.957V24.583Z"/><path fill="var(--illustration-white)" d="M188.055 26.541h19.578v19.58h-19.578V26.54Z"/><path fill="var(--illustration-primary)" d="m207.633 46.12 1.958 1.958V24.583l-1.958 1.958v19.58Z"/><path fill="var(--illustration-black)" d="m207.638 26.541 1.958-1.957h-23.494l1.957 1.957h19.579ZM188.059 46.12l-1.957 1.958h23.494l-1.958-1.958h-19.579Z"/><path fill="var(--illustration-positive)" d="m197.844 40.247-3.426-3.427-6.363 5.594v3.706h19.578v-7.83l-3.915-3.916-5.874 5.874Z"/><path fill="var(--illustration-accent-1)" d="M195.89 31.676a2.688 2.688 0 0 1-2.687 2.687 2.694 2.694 0 0 1-2.687-2.687 2.694 2.694 0 0 1 2.687-2.687 2.695 2.695 0 0 1 2.687 2.687Z"/><path fill="var(--illustration-primary)" d="m186.102 24.584 1.957 1.957v19.58l-1.957 1.957V24.583ZM48.678 168.348h-28.63a3.306 3.306 0 0 0-3.306 3.306v28.629a3.306 3.306 0 0 0 3.307 3.306h28.629a3.306 3.306 0 0 0 3.306-3.306v-28.629a3.306 3.306 0 0 0-3.306-3.306Z"/><path fill="var(--illustration-black)" d="M46.91 195.299c.03.309.04.609.02.919a6.165 6.165 0 0 0-3.317-2.458l-.25-2.377c-1.808-12.187-10.428-13.735-12.136-13.925 1.448-1.469 3.775-2.318 5.893-1.738.3.08.59.19.86.309-1 .22-1.929.69-2.698 1.359a5.824 5.824 0 0 1 5.544.769c-.849 0-1.678.19-2.447.53a5.806 5.806 0 0 1 4.555 2.057 6.122 6.122 0 0 0-2.687-.01 5.808 5.808 0 0 1 4.475 2.827 6.096 6.096 0 0 0-2.727-.449 5.797 5.797 0 0 1 3.906 3.596 6.27 6.27 0 0 0-2.578-.939 5.811 5.811 0 0 1 3.047 3.286c.11.29.19.59.25.879a6.336 6.336 0 0 0-2.108-1.238 5.835 5.835 0 0 1 2.318 3.456c.07.3.11.599.13.899a6.198 6.198 0 0 0-2.018-1.538 5.818 5.818 0 0 1 1.978 3.796l-.01-.01Z"/><path fill="var(--illustration-gray)" d="M31.97 180.165c-.04.07-.07.15-.09.23l-.03.09a.35.35 0 0 1-.06.14c.02-.04.04-.09.06-.14l.03-.09c.02-.08.05-.16.09-.23Zm.123-.19c-.05.06-.1.12-.14.19.04-.07.08-.13.14-.19Zm.383-.249s-.09.04-.14.06a.35.35 0 0 1 .14-.06Z"/><path fill="var(--illustration-white)" d="M38.63 187.567c-.01-.08-.03-.15-.04-.23l-.09-.439c0-.05-.02-.09-.03-.14-.01-.05-.03-.11-.04-.16l-.03-.12c-.04-.14-.069-.279-.109-.409-.04-.13-.08-.25-.12-.37v-.03c-.03-.06-.05-.12-.07-.18a4.142 4.142 0 0 0-.14-.369c-.02-.06-.05-.12-.07-.18-.02-.06-.05-.12-.08-.18-.05-.12-.1-.23-.16-.349-.03-.06-.06-.11-.08-.17-.03-.06-.06-.11-.09-.17a7.786 7.786 0 0 0-.179-.32c-.03-.05-.06-.11-.09-.16-.06-.099-.12-.209-.19-.299-.03-.05-.06-.1-.1-.15-.03-.05-.07-.1-.1-.15-.03-.05-.07-.1-.1-.14-.03-.05-.07-.09-.11-.14a7.9 7.9 0 0 0-.449-.549c-.04-.04-.07-.08-.11-.12-.15-.17-.32-.34-.479-.499-.04-.04-.08-.08-.13-.12a1.52 1.52 0 0 0-.13-.12c-.04-.04-.09-.08-.13-.12-.04-.04-.09-.08-.13-.12-.09-.08-.18-.15-.27-.22-.09-.069-.179-.149-.269-.219-.05-.03-.09-.07-.14-.11-.05-.04-.09-.07-.14-.1-.09-.07-.19-.14-.29-.21-.09-.07-.19-.13-.279-.2-.1-.07-.19-.13-.29-.199-.06-.04-.13-.07-.2-.1-.02 0-.05-.02-.07-.02-.11-.03-.23-.05-.349-.04h-.07c-.03 0-.05 0-.07.01-.03 0-.05.01-.07.02-.02 0-.05.02-.07.03-.05.02-.09.04-.14.06-.02.01-.04.03-.06.04-.02.01-.04.03-.06.049a.12.12 0 0 0-.05.05l-.06.06c-.05.06-.1.12-.14.19a.915.915 0 0 0-.089.23l-.03.09a.35.35 0 0 1-.06.14c-.03.04-.05.08-.09.11a.573.573 0 0 1-.869-.08.31.31 0 0 1-.06-.13l-1.298-3.606s.01.05.02.07c.02.07.04.129.06.199 0 .03.02.06.02.1 0 .02.01.04.02.07l.03.15c0 .05.02.1.02.15v.03s.01.09.02.14v.16c0 .03 0 .059-.01.089v.05s-.03.06-.04.09v.02s-.05.06-.07.08c-.03.03-.06.05-.11.06a.449.449 0 0 1-.47-.13l-.03-.03s-.03-.04-.04-.05c-.03-.04-.04-.07-.04-.07l-.05.07-.619.779-.63.78-1.957 2.427c-.12.15-.16.34-.12.519l.17.73-3.447 4.924c-.25.36-.35.819-.26 1.249l.11.539c.14.69.66 1.229 1.34 1.379l.858.2c.47.11.96.02 1.359-.24l.54-.35a.654.654 0 0 0 .299-.559v-.34l1.089-2.927c.12.12.829.81 1.868.999.56.11 1.208.07 1.908-.279.13-.06.25-.13.37-.2l.11-.07c.059-.04.119-.08.179-.13.04-.03.07-.06.11-.09.01 0 .03-.02.04-.03.04-.03.08-.07.12-.1l.13-.13a.59.59 0 0 0 .08-.089c.03-.03.05-.06.08-.09l.07-.09s.05-.06.07-.09c.02-.03.05-.06.069-.09.06-.09.12-.18.18-.28.05-.09.1-.19.15-.279.27-.59.36-1.179.37-1.629.01-.439-.04-.729-.04-.729s.02.02.04.03c0 0 .02.01.02.02.03.02.06.05.09.08.01.01.03.02.04.04.06.06.129.14.199.23.03.03.05.07.07.1.11.169.23.379.33.639.1.28.19.609.22 1.009.01.13.02.27.02.419 0 .4-.05.8-.13 1.179-.03.15-.07.3-.12.45-.02.07-.04.149-.07.219 0 .02-.01.04-.02.06-.04.12-.09.24-.14.36l-.09.21c-.09.209-.19.399-.29.599-.1.19-.21.37-.32.549-.03.05-.06.09-.09.13-.04.07-.09.14-.14.2-.06.09-.13.19-.199.27a10.27 10.27 0 0 1-1.159 1.328l-.06.06a.58.58 0 0 1-.1.09h-.01v.02l-.12.12c-1.768 1.978-3.546 2.487-4.595 5.035h11.178l.33-1.029c.65-3.676.72-6.513.34-8.761l.01.04Zm-15.313 2.398-.24.329c-.1.13-.31.09-.34-.08l-.139-.729a.543.543 0 0 1 .26-.579.23.23 0 0 1 .14-.04c.08 0 .15.03.21.1l.1.129c.199.25.209.61.02.86l-.01.01Zm4.515-7.163c-.26.32-.659.45-1.029.37a1.044 1.044 0 0 1 1.17-1.449c.149.35.11.77-.14 1.079Zm7.942 12.037-3.367.32c-.31.03-.47-.36-.24-.559.79-.68 1.659-1.299 2.528-2.268a5.776 5.776 0 0 0 1.149-2.028c.06-.18.32-.15.34.04l.329 3.596c.04.46-.29.859-.75.899h.01Z"/><path fill="var(--illustration-white)" d="M23.297 189.105c.2.25.21.61.02.86l-.24.329c-.1.13-.31.09-.34-.08l-.14-.729a.543.543 0 0 1 .26-.579.23.23 0 0 1 .14-.04c.08 0 .15.03.21.1l.1.129-.01.01Zm3.493-5.933c-.15-.35-.11-.77.14-1.079.26-.32.66-.45 1.03-.37.15.35.11.769-.14 1.079-.26.32-.66.45-1.03.37Zm.757-3.476.63-.78h.01l.608-.779-.619.779-.63.78Zm1.952-2.707-.03-.1v.03s.03.05.03.07Zm2.351 3.486a.35.35 0 0 1-.06.14c.02-.04.04-.09.06-.14l.03-.09-.03.09Zm.243-.5c-.05.06-.1.12-.14.19.04-.07.08-.13.14-.19Zm.383-.249s-.09.04-.14.06a.35.35 0 0 1 .14-.06Zm1.086 9.809Zm.224-5.244Zm.074 4.654c-.09.21-.19.4-.29.6.1-.19.2-.39.29-.6Zm.32-3.915Zm-.008 3.057.12-.45c-.03.15-.07.3-.12.45Zm.118-.45c.079-.38.129-.769.129-1.179 0-.15 0-.29-.02-.419.01.129.02.269.02.419 0 .4-.05.799-.13 1.179Zm-2.124 6.962c.789-.679 1.658-1.298 2.527-2.267a5.78 5.78 0 0 0 1.149-2.028c.06-.18.32-.15.34.04l.329 3.596c.04.46-.29.859-.75.899l-3.366.32c-.31.03-.47-.36-.24-.56h.01Zm-2.779-6.333-1.19.769-1.767 1.149 1.088-2.927c.12.12.83.809 1.869.999v.01Z"/><path fill="var(--illustration-black)" d="M29.666 177.888v.09c0 .029 0 .059-.01.089v.05s-.03.06-.04.09v.02s-.05.06-.07.08c-.03.03-.06.05-.11.06a.449.449 0 0 1-.47-.13l-.03-.03s-.03-.04-.04-.05c-.03-.04-.04-.07-.04-.07-.03-.07-.689-1.528-.2-3.206 0 0 .26.519.51 1.149l.31.869v.03s.02.05.03.07c.02.069.04.129.06.199 0 .03.02.06.02.1 0 .02.01.04.02.07l.03.15c0 .05.02.1.02.15v.03s.01.09.02.14v.07l-.01-.02Zm-6.364 12.077-.24.329c-.1.13-.31.09-.34-.08l-.14-.729a.543.543 0 0 1 .26-.579.23.23 0 0 1 .14-.04c.08 0 .15.03.21.1l.1.129c.2.25.21.61.02.86l-.01.01Z"/><path fill="var(--illustration-gray)" d="M34.419 186.468c0 .4-.05.799-.13 1.179-.03.15-.07.3-.12.449-.02.07-.05.15-.07.22 0 .02-.01.04-.02.06-.04.12-.09.24-.14.36l-.09.21c-.09.209-.19.399-.29.599a8.94 8.94 0 0 1-.319.549c-.03.04-.06.09-.09.13-.04.07-.09.14-.14.2-.07.09-.13.19-.2.27a10.288 10.288 0 0 1-1.158 1.328l-.06.06a.58.58 0 0 1-.1.09c1.119-1.348 1.369-3.027 1.399-4.095.01-.47-.51-.77-.9-.51l-.21.13c.06-.04.12-.08.18-.13.04-.03.07-.06.11-.09.01 0 .03-.02.04-.03.04-.03.08-.07.12-.1 0 0 .09-.08.13-.13.03-.03.06-.059.08-.089.03-.03.05-.06.08-.09s.05-.06.07-.09a.55.55 0 0 0 .07-.09.55.55 0 0 0 .07-.09c.07-.09.12-.18.18-.28.05-.09.1-.19.15-.279.28-.59.36-1.179.37-1.629.01-.419-.04-.699-.04-.729 0 0 .02.01.04.03 0 0 .02.01.02.02.029.02.059.05.089.08l.04.04c.06.06.13.14.2.23l.07.1c.11.169.23.379.33.639.1.28.19.609.219 1.009.01.13.02.269.02.419v.05Z"/><path fill="var(--illustration-black)" d="M27.82 182.802c-.26.32-.66.45-1.03.37-.15-.35-.11-.77.14-1.079.26-.32.66-.45 1.03-.37.15.35.11.769-.14 1.079Z"/><path fill="var(--illustration-white)" d="m23.086 174.831 4.465 4.864 1.249-1.548-5.714-3.306v-.01Z"/><path fill="var(--illustration-gray)" d="M38.29 196.328c.65-3.676.72-6.513.34-8.761-.01-.08-.03-.15-.04-.23 0-.05-.02-.1-.03-.15l-.06-.289c0-.05-.02-.09-.03-.14-.01-.05-.03-.11-.04-.16 0-.04-.02-.08-.03-.12a4.92 4.92 0 0 0-.11-.409c-.03-.13-.07-.25-.12-.37v-.03c-.03-.06-.05-.12-.07-.18-.04-.13-.09-.249-.14-.369-.02-.06-.05-.12-.07-.18-.02-.06-.05-.12-.08-.18-.05-.12-.1-.23-.16-.349-.03-.06-.06-.11-.079-.17-.03-.06-.06-.11-.09-.17-.06-.11-.12-.22-.18-.32-.03-.05-.06-.11-.09-.16-.06-.1-.12-.209-.19-.299a1.3 1.3 0 0 0-.1-.15c-.03-.05-.07-.1-.1-.15-.03-.05-.07-.1-.1-.14-.03-.05-.07-.09-.109-.14a7.957 7.957 0 0 0-.56-.669c-.15-.17-.32-.34-.479-.499-.04-.04-.08-.08-.13-.12-.04-.04-.08-.08-.13-.12-.04-.04-.09-.08-.13-.12-.04-.04-.09-.08-.13-.12-.09-.08-.18-.15-.269-.22-.09-.07-.18-.149-.27-.219-.05-.03-.09-.07-.14-.11-.05-.04-.09-.07-.14-.1a7.27 7.27 0 0 0-.29-.21c-.089-.07-.189-.13-.279-.2l-.29-.2a1.33 1.33 0 0 0-.2-.099c-.02 0-.05-.02-.07-.02-.11-.03-.229-.05-.349-.04h-.07c-.03 0-.05 0-.07.01-.03 0-.05.01-.07.02-.02 0-.05.01-.07.03-.05.02-.09.04-.14.06-.02.01-.04.02-.06.039-.02.01-.04.03-.06.05a.12.12 0 0 0-.05.05l-.06.06a.92.92 0 0 0-.23.42l-.029.09a.35.35 0 0 1-.06.14c-.03.04-.05.08-.09.109a.57.57 0 0 1-.779.02c-.03-.03-.06-.059-.09-.099a.31.31 0 0 1-.06-.13l-1.308-3.636c-.09-.29-.2-.59-.31-.869-.25-.63-.51-1.149-.51-1.149s1.42.659 2.288 2.557c0 0 .1 0 .3.02 1.708.19 10.329 1.738 12.137 13.925l.25 2.377.379 3.606h-6.023l.33-1.028-.01.01Z"/><path fill="var(--illustration-positive)" d="M217.344 142.186a3.773 3.773 0 0 1 3.776-3.776h15.103a3.773 3.773 0 0 1 3.776 3.776v15.104a3.773 3.773 0 0 1-3.776 3.776H221.12a3.773 3.773 0 0 1-3.776-3.776v-15.104Z"/><path fill="var(--illustration-black)" d="M220.578 151.356h3.237v6.473h-3.237v-6.473Zm6.477-3.236h3.236v9.709h-3.236v-9.709Zm6.468-3.237h3.237v12.946h-3.237v-12.946Z"/><path fill="var(--illustration-white)" d="M110.878 66.448a3.994 3.994 0 0 1-3.995 3.996 3.994 3.994 0 0 1 3.995 3.996 3.995 3.995 0 0 1 3.996-3.996 3.995 3.995 0 0 1-3.996-3.996Z"/><path fill="var(--illustration-white)" d="M114.874 70.444a3.995 3.995 0 0 1-3.996-3.996 3.994 3.994 0 0 1-3.995 3.996"/><path fill="var(--illustration-accent-2)" d="M44.052 65.659a2.49 2.49 0 0 1-1.189-.45 2.505 2.505 0 0 1-.6-3.506 95.716 95.716 0 0 1 17.801-19.02 2.51 2.51 0 0 1 3.537.37 2.51 2.51 0 0 1-.37 3.537 90.49 90.49 0 0 0-16.862 18.02 2.537 2.537 0 0 1-2.327 1.049h.01Z"/><path fill="var(--illustration-accent-1)" d="M179.728 192.732a2.52 2.52 0 0 1-1.688-.919 2.51 2.51 0 0 1 .369-3.537 91.274 91.274 0 0 0 8.261-7.591 91.33 91.33 0 0 0 8.611-10.419 2.504 2.504 0 0 1 3.506-.599 2.505 2.505 0 0 1 .6 3.506 95.912 95.912 0 0 1-9.09 10.998 96.032 96.032 0 0 1-8.721 8.021 2.507 2.507 0 0 1-1.858.55l.01-.01Z"/><path fill="var(--illustration-white)" d="M127.396 173.702a7.545 7.545 0 0 1 7.551-7.552 7.545 7.545 0 0 1-7.551-7.552 7.546 7.546 0 0 1-7.552 7.552 7.552 7.552 0 0 1 7.552 7.552Z"/><path fill="var(--illustration-white)" d="M119.844 166.15a7.553 7.553 0 0 1 7.552 7.552 7.546 7.546 0 0 1 7.551-7.552"/><path fill="var(--illustration-accent-2)" d="M0 79.883a3.146 3.146 0 0 1 3.147-3.146h18.88a3.146 3.146 0 0 1 3.146 3.146v18.88a3.147 3.147 0 0 1-3.147 3.147H3.146A3.147 3.147 0 0 1 0 98.763v-18.88Z"/><path fill="var(--illustration-white)" d="M19.452 86.576a6.862 6.862 0 1 1-13.725 0 6.868 6.868 0 0 1 6.862-6.862 6.868 6.868 0 0 1 6.863 6.862Z"/><path fill="var(--illustration-white)" d="M5.727 86.926h13.725v12.017H5.727V86.926Z"/><path fill="var(--illustration-black)" d="M11.558 85.547a1.029 1.029 0 1 1-2.057.003 1.029 1.029 0 0 1 2.057-.003Zm4.117 0a1.028 1.028 0 1 1-2.057.003 1.028 1.028 0 0 1 2.057-.003Z"/><path fill="var(--illustration-accent-2)" d="M8.469 96.196h2.747v3.376H8.469v-3.376Zm5.484 0H16.7v3.376h-2.747v-3.376Z"/><path fill="var(--illustration-black)" fill-rule="evenodd" d="M11.205 87.955c0 .76.62 1.369 1.369 1.369s1.368-.62 1.368-1.369h-2.747.01Z" clip-rule="evenodd"/><path fill="var(--illustration-black)" d="m176.865 169.097-1.459-1.358c12.846-13.826 19.929-31.836 19.929-50.716h1.997c0 19.389-7.262 37.889-20.457 52.084l-.01-.01ZM46.31 117.013h-1.998a76.33 76.33 0 0 1 19.959-51.534l1.478 1.349C53.213 80.573 46.31 98.392 46.31 117.013Z"/><path fill="var(--illustration-positive)" d="M176.855 172.443a5.034 5.034 0 1 0 0-10.069 5.034 5.034 0 0 0 0 10.069Z"/><path fill="var(--illustration-primary)" d="M65.48 71.753a5.035 5.035 0 1 0 0-10.07 5.035 5.035 0 0 0 0 10.07Zm108.332 41.095h-7.992v17.981h7.992v-17.981Z"/><path fill="var(--illustration-black)" d="M153.832 93.869H77.914v55.939h75.918v-55.94Z"/><path fill="var(--illustration-white)" d="M119.13 133.825c-3.516 0-6.263-5.643-6.263-12.856 0-7.212 2.747-12.856 6.263-12.856 3.517 0 6.264 5.644 6.264 12.856 0 7.213-2.747 12.856-6.264 12.856Zm0-23.974c-2.147 0-4.535 4.565-4.535 11.118s2.388 11.118 4.535 11.118c2.148 0 4.535-4.565 4.535-11.118s-2.387-11.118-4.535-11.118Z"/><path fill="var(--illustration-white)" d="M119.13 133.825c-7.083 0-12.857-5.763-12.857-12.856 0-7.092 5.764-12.856 12.857-12.856 7.092 0 12.856 5.764 12.856 12.856 0 7.093-5.764 12.856-12.856 12.856Zm0-23.974c-6.134 0-11.118 4.985-11.118 11.118 0 6.134 4.984 11.118 11.118 11.118 6.133 0 11.117-4.984 11.117-11.118 0-6.133-4.984-11.118-11.117-11.118Z"/><path fill="var(--illustration-white)" d="M131.115 120.1h-23.974v1.728h23.974V120.1Z"/><path fill="var(--illustration-white)" d="M153.835 142.695H85.359v-41.724h68.476v1.768H87.127v38.188h66.708v1.768Z"/><path fill="var(--illustration-primary)" d="M165.823 93.869h-11.987v55.939h11.987v-55.94Z"/><path fill="var(--illustration-positive)" d="M153.522 130.829a8.992 8.992 0 0 1 0-17.981h12.296v17.981h-12.296Z"/><path fill="var(--illustration-white)" d="M153.527 125.834a3.996 3.996 0 1 0 0-7.992 3.996 3.996 0 0 0 0 7.992Z"/><path fill="var(--illustration-positive)" d="M119.87 25.523c-9.329 0-16.901 7.571-16.901 16.901s7.572 16.902 16.901 16.902c9.33 0 16.902-7.572 16.902-16.902 0-9.33-7.572-16.901-16.902-16.901Z"/><path fill="var(--illustration-black)" d="m116.271 49.277-6.154-6.333 1.519-1.469 4.635 4.775 10.358-10.658 1.519 1.478-11.877 12.207Z"/><path fill="var(--illustration-primary)" d="M102.969 206.446v12.167a10.077 10.077 0 0 1 6.083-6.083 10.078 10.078 0 0 1-6.083-6.084Z"/><path fill="var(--illustration-positive)" d="M102.966 218.613a10.077 10.077 0 0 0-6.083-6.083 10.079 10.079 0 0 0 6.083-6.084v12.167Z"/></svg>