<svg xmlns="http://www.w3.org/2000/svg" fill="none" viewBox="0 0 244 240"><path fill="var(--illustration-gray)" d="M0 32h244v136H0z"/><path fill="var(--illustration-gray)" d="M212 0v206.555l-44 7.486L124 235l-44-20.959-44-7.486V0z"/><path fill="var(--illustration-primary)" d="M36 32h176v136H36z"/><path fill="var(--illustration-accent-2)" fill-rule="evenodd" d="M26 203.5 36 192l68.018 7.558A22.46 22.46 0 0 1 124 221.882a22.46 22.46 0 0 1 19.982-22.324L212 192l10 11.5-87.5 17.5-10.5 18.5-10.5-18.5z" clip-rule="evenodd"/><path fill="var(--illustration-primary)" fill-rule="evenodd" d="M36 205.5V192l68.018 7.558A22.46 22.46 0 0 1 124 221.882a22.46 22.46 0 0 1 19.982-22.324L212 192v13.5l-35.324 7.065-8.676 1.476-.938.447L134.5 221l-7 12.333L124 235l-3.5-1.667-7-12.333-32.562-6.512-.938-.447-8.677-1.476z" clip-rule="evenodd"/><path fill="var(--illustration-black)" d="M20 200v12l88 15.5c.833 4.167 6 12.5 16 12.5s15.167-8.333 16-12.5l88-15.5v-12l-96 16-8 16-8-16zM44 40h88v80H44zm0 88h88v32H44zm96-88h64v120h-64z"/><path fill="var(--illustration-accent-1)" d="M212.001 17A8 8 0 0 0 204 9a8 8 0 0 0 8.001-8A8 8 0 0 0 220 9a8 8 0 0 0-7.999 8m16 27c0-6.629-5.372-11.999-12.001-11.999 6.629 0 12.001-5.372 12.001-12.001 0 6.628 5.373 12.001 11.999 12.001-6.626 0-11.999 5.37-11.999 11.999"/><path fill="var(--illustration-primary)" fill-rule="evenodd" d="M216 32.001c6.629 0 12.001 5.37 12.001 11.999 0-6.629 5.373-11.999 11.999-11.999l-.172-.001h-23.656z" clip-rule="evenodd"/><path fill="var(--illustration-accent-1)" d="M20 176a8 8 0 0 0-8-7.999A8 8 0 0 0 20 160a8 8 0 0 0 8 8.001A8 8 0 0 0 20 176"/><path fill="var(--illustration-primary)" fill-rule="evenodd" d="M27.887 168h-15.77a8 8 0 0 0 7.886-8 8 8 0 0 0 7.884 8M212 1.115v15.77a8 8 0 0 0-8-7.884 8 8 0 0 0 8-7.886" clip-rule="evenodd"/><path fill="var(--illustration-positive)" d="M68 64h8v40h-8z"/><path fill="var(--illustration-accent-3)" d="M84 72h8v32h-8zM52 88h8v24h-8z"/><path fill="var(--illustration-positive)" d="M100 48h8v40h-8zm16 8h8v40h-8z"/><path fill="var(--illustration-white)" fill-rule="evenodd" d="M121 52v4h-2v-4zm-16-8v4h-2v-4zm0 44v4h-2v-4zM89 68v4h-2v-4zm0 36v4h-2v-4zm-16 0v4h-2v-4zm0-44v4h-2v-4zm-16 52v4h-2v-4zm0-28v4h-2v-4zm64 12v4h-2v-4zm-34 34v-2h2v2zm0 8v-4h2v4zm0 4h2v4h-2zm0 12v-4h2v4zm0 6v-2h2v2z" clip-rule="evenodd"/><path fill="var(--illustration-accent-3)" d="m92 152-3.5 8H132v-32l-16 16h-16v8z"/><path fill="var(--illustration-positive)" d="M60 144h8l8 8h5l6.5 8H44v-32h8l8 8z"/><path fill="var(--illustration-accent-3)" d="M172 48h32v16h-32zm0 40h32v16h-32z"/><path fill="var(--illustration-positive)" d="M140 120h64v16h-64zm32 16h32v16h-32z"/></svg>