<svg xmlns="http://www.w3.org/2000/svg" fill="none" viewBox="0 0 240 120"><path fill="#CED2DB" d="M240 64H0v56h240z"/><path fill="#0052FF" d="M192 64h-32v8h32z"/><path fill="#3CC28A" d="M136 32h-32v32h32zm-8-8h-16v8h16z"/><path fill="#0052FF" d="M128 96h-16v8h16z"/><path fill="#E13947" d="M80 48H48v16h32zm-8-8H56v8h16z"/><path fill="#0052FF" d="M72 112H56v8h16zm8-48H48v48h32zm56 0h-32v32h32z"/><path fill="#3CC28A" d="M192 8h-32v56h32zm-8-8h-16v8h16z"/><path fill="#0052FF" d="M184 72h-16v8h16z"/><path fill="#0A0B0E" fill-rule="evenodd" d="M48 9H16V7h32zm8 8H16v-2h40zm-8 8H16v-2h32zm131.506-1.437-13.125-3.8.556-1.921 15.046 4.356-4.356 15.045-1.921-.556z" clip-rule="evenodd"/><path fill="#0A0B0E" fill-rule="evenodd" d="m39.544 103.209 140.85-81.32 1 1.732-140.85 81.32z" clip-rule="evenodd"/></svg>