<svg xmlns="http://www.w3.org/2000/svg" fill="none" viewBox="0 0 240 120"><path fill="#0052FF" d="M184 0H56v120h128z"/><path fill="#CED2DB" d="M208 16H32v88h176z"/><path fill="#0A0B0D" fill-rule="evenodd" d="M184 16H56v88h128z" clip-rule="evenodd"/><path fill="#FFFFFF" fill-rule="evenodd" d="M155 96V48h2v48zm-72 0V64h2v32zm36 8V64h2v40z" clip-rule="evenodd"/><path fill="#E13947" d="M132 72h-24v24h24z"/><path fill="#3CC28A" d="M168 56h-24v32h24zM96 72H72v16h24z"/><path fill="#FFFFFF" fill-rule="evenodd" d="M80 25H64v-2h16zm8 8H64v-2h24zm82.798-2.643L64.146 63.397l-.592-1.91 106.652-33.04z" clip-rule="evenodd"/><path fill="#FFFFFF" fill-rule="evenodd" d="m171.69 29.353-6.005 10.75-1.746-.976 5.03-9.004-9.004-5.03.976-1.746z" clip-rule="evenodd"/></svg>