<svg xmlns="http://www.w3.org/2000/svg" fill="none" viewBox="0 0 240 120"><path fill="#CED2DB" d="M32 0v16h160V8h16V0zm176 104H48v8H32v8h176z"/><path fill="#5DE2F8" d="M80 0h80v120H80z"/><path fill="#0052FF" d="M80 0h80v16H80zm0 104h80v16H80z"/><path fill="#3CC28A" d="M120 64c11.046 0 20-8.954 20-20s-8.954-20-20-20-20 8.954-20 20 8.954 20 20 20"/><path fill="#0A0B0D" d="M120 64c11.046 0 20-8.954 20-20s-8.954-20-20-20-20 8.954-20 20 8.954 20 20 20"/><path fill="#3CC28A" d="M120 96c12.15 0 22-9.85 22-22s-9.85-22-22-22-22 9.85-22 22 9.85 22 22 22"/><path fill="#FFFFFF" fill-rule="evenodd" d="M120 92c9.941 0 18-8.059 18-18s-8.059-18-18-18-18 8.059-18 18 8.059 18 18 18m22-18c0 12.15-9.85 22-22 22s-22-9.85-22-22 9.85-22 22-22 22 9.85 22 22" clip-rule="evenodd"/><path fill="#0052FF" d="M128 44a8 8 0 1 1-16 0 8 8 0 0 1 16 0"/><path fill="#0052FF" d="M120 64a19.95 19.95 0 0 0 14.665-6.4A21.92 21.92 0 0 0 120 52a21.92 21.92 0 0 0-14.664 5.6A19.95 19.95 0 0 0 120 64"/><path fill="#0A0B0D" fill-rule="evenodd" d="m129.403 68.869-12.384 12.384-6.423-6.423 1.414-1.415 5.009 5.01 10.969-10.97z" clip-rule="evenodd"/><path fill="#0A0B0D" d="M122 8a2 2 0 1 1-4 0 2 2 0 0 1 4 0"/><path fill="#0A0B0D" fill-rule="evenodd" d="M124 113.034h-8v-2h8z" clip-rule="evenodd"/></svg>