<svg xmlns="http://www.w3.org/2000/svg" fill="none" viewBox="0 0 240 120"><path fill="#00D17F" d="M192 20H48v80h144V20Z"/><path fill="#FFFFFF" d="M144 60a24 24 0 0 1-48 0h48Z"/><path fill="#00D17F" d="M96 60a24 24 0 0 1 48 0H96Z"/><path fill="#CED2DB" d="M140 60a20 20 0 1 1-40 0h40Z"/><path fill="#0052FF" d="M100 60a20 20 0 1 1 40 0h-40Z"/><path fill="#0A0B0D" fill-rule="evenodd" d="m184 72.91-4.7-4.7 1.4-1.42 3.3 3.3 3.3-3.3 1.4 1.42-4.7 4.7Z" clip-rule="evenodd"/><path fill="#0A0B0D" fill-rule="evenodd" d="M185 71h-2V29H61.5v-2H185v44Z" clip-rule="evenodd"/><path fill="#CED2DB" d="M48 0H0v40h48V20h20A20 20 0 0 0 48 0Z"/><path fill="#0A0B0D" fill-rule="evenodd" d="m56 47.09 4.7 4.7-1.4 1.42-3.3-3.3-3.3 3.3-1.4-1.42 4.7-4.7Z" clip-rule="evenodd"/><path fill="#0A0B0D" fill-rule="evenodd" d="M55 49h2v42h127v2H55V49Z" clip-rule="evenodd"/><path fill="#0052FF" d="M28 20A20 20 0 0 1 48 0v20h20a20 20 0 1 1-40 0Z"/><path fill="#CED2DB" d="M240 80h-48v20h-20a20 20 0 0 0 20 20h48V80Z"/><path fill="#0052FF" d="M192 80a20 20 0 0 0-20 20h20v20a20 20 0 1 0 0-40Z"/><path fill="#0A0B0D" fill-rule="evenodd" d="M207 100a15 15 0 1 0-15 15v2a17 17 0 1 1 17-17h-2ZM48 35a15 15 0 1 0-15-15h-2a17 17 0 1 1 17 17v-2Zm72 10a15 15 0 1 0 0 30 15 15 0 0 0 0-30Zm-17 15a17 17 0 1 1 34 0 17 17 0 0 1-34 0Z" clip-rule="evenodd"/><path fill="#FFFFFF" d="M76 56c2.2 0 4 1.8 4 4s-1.8 4-4 4-4-1.8-4-4 1.8-4 4-4Zm88 0c2.2 0 4 1.8 4 4s-1.8 4-4 4-4-1.8-4-4 1.8-4 4-4Z"/></svg>