<svg xmlns="http://www.w3.org/2000/svg" fill="none" viewBox="0 0 240 120"><path fill="#73A2FF" d="M200 0H40v120h160V0Z"/><path fill="#CED2DB" d="M40 0H0v16h40V0Zm200 0h-40v16h40V0Z"/><path fill="#0052FF" d="M200 0H40v16h160V0Z"/><path fill="#0A0B0D" fill-rule="evenodd" d="M64.2 41H56v-2h8.2v2Zm0 8H56v-2h8.2v2Zm48-8h-40v-2h40v2Zm0 8h-40v-2h40v2Z" clip-rule="evenodd"/><path fill="#0A0B0D" d="M156 42c14.3 0 26 11.7 26 26s-11.7 26-26 26-26-11.7-26-26 11.7-26 26-26Zm0-2c-15.5 0-28 12.5-28 28s12.5 28 28 28 28-12.5 28-28-12.5-28-28-28Z"/><path fill="#FFFFFF" d="M156 88a20 20 0 1 0 0-40 20 20 0 0 0 0 40Z"/><path fill="#0A0B0D" fill-rule="evenodd" d="M154.2 61h2v10h6.8v2h-8.8V61Z" clip-rule="evenodd"/><path fill="#FFFFFF" d="M88 28H56.2v4H88v-4Z"/><path fill="#0A0B0D" fill-rule="evenodd" d="M64.2 73H56v-2h8.2v2Zm0 8H56v-2h8.2v2Zm48-8h-40v-2h40v2Zm0 8h-40v-2h40v2Z" clip-rule="evenodd"/><path fill="#FFFFFF" d="M88 60H56.2v4H88v-4Z"/><path fill="#0A0B0D" fill-rule="evenodd" d="M64.2 89H56v-2h8.2v2Zm0 8H56v-2h8.2v2Zm48-8h-40v-2h40v2Zm0 8h-40v-2h40v2ZM64 105h-8.2v-2H64v2Zm48 0H72v-2h40v2Z" clip-rule="evenodd"/></svg>