<svg xmlns="http://www.w3.org/2000/svg" fill="none" viewBox="0 0 240 120"><path fill="#CED2DB" d="M160 64H0v32h160V64Zm0-56H0v16h160V8Zm0 24H15v8h145v-8Z"/><path fill="#0052FF" d="M80 0h80v120H80V0Z"/><path fill="#FFFFFF" d="M90.2 108.2c-1.12 0-2 .84-2 1.97 0 1.14.86 1.97 2 1.97 1.13 0 2-.85 2-1.98 0-1.11-.86-1.97-2-1.97Zm0 3.13c-.63 0-1.1-.5-1.1-1.16 0-.67.46-1.16 1.1-1.16.64 0 1.1.5 1.1 1.16 0 .66-.46 1.16-1.1 1.16Zm2.24-2.28h.55v3.02h.89v-3.8h-1.44v.78Zm-6.46-.04a1 1 0 0 1 .97.71h.94a1.86 1.86 0 0 0-1.9-1.53c-1.12 0-1.99.85-1.99 1.98 0 1.14.85 1.97 1.99 1.97.96 0 1.72-.61 1.9-1.53h-.94a1 1 0 0 1-.96.72c-.65 0-1.1-.5-1.1-1.16 0-.67.45-1.16 1.09-1.16Zm23.29.8-.65-.1c-.31-.05-.53-.15-.53-.4 0-.26.28-.39.68-.39.42 0 .7.19.76.49h.85c-.1-.77-.68-1.22-1.6-1.22-.93 0-1.55.48-1.55 1.16 0 .65.4 1.02 1.23 1.14l.65.1c.31.04.5.16.5.4 0 .3-.32.43-.75.43-.52 0-.82-.22-.86-.54h-.87c.08.74.66 1.26 1.73 1.26.96 0 1.6-.44 1.6-1.2 0-.67-.46-1.03-1.2-1.14Zm-15.84-3.11a.55.55 0 0 0-.56.56c0 .32.24.56.56.56.33 0 .57-.24.57-.56a.55.55 0 0 0-.57-.56Zm13 2.87c0-.82-.5-1.38-1.56-1.38-1 0-1.57.51-1.68 1.3h.88c.05-.31.28-.56.78-.56.45 0 .68.2.68.44 0 .32-.41.4-.91.45-.68.07-1.52.3-1.52 1.2 0 .67.5 1.12 1.32 1.12.63 0 1.03-.27 1.23-.69.03.38.31.62.7.62h.52v-.79h-.44v-1.71Zm-.87.96c0 .5-.44.88-.98.88-.33 0-.61-.14-.61-.44 0-.37.45-.47.86-.52.4-.03.62-.12.73-.3v.38Zm-4.7-2.34c-.5 0-.9.2-1.2.55v-2.08h-.89v5.41h.87v-.5c.3.36.72.57 1.22.57 1.06 0 1.87-.83 1.87-1.97 0-1.13-.82-1.98-1.87-1.98Zm-.13 3.14c-.64 0-1.1-.5-1.1-1.16 0-.66.47-1.16 1.1-1.16.65 0 1.1.5 1.1 1.16 0 .66-.47 1.16-1.1 1.16Zm-4.08-3.14c-.57 0-.95.24-1.17.57v-.5h-.88v3.81h.89V110c0-.58.37-1 .91-1 .51 0 .83.37.83.9v2.17h.88v-2.24c0-.96-.49-1.64-1.46-1.64Zm18.04 1.86a1.8 1.8 0 0 0-1.87-1.86c-1.14 0-1.97.86-1.97 1.98 0 1.19.9 1.97 1.98 1.97.93 0 1.65-.54 1.83-1.31h-.92c-.13.34-.46.53-.9.53-.56 0-.99-.36-1.08-.97h2.93v-.34Zm-2.88-.3a1 1 0 0 1 1-.78c.5 0 .88.28.97.78h-1.97Zm32.25-4.91-1.57 7.31h-1.91l1.57-7.3h1.91Zm8.04 4.72 1-2.75.58 2.75h-1.58Zm2.13 2.59H156l-1.54-7.3h-1.64a.84.84 0 0 0-.48.14.92.92 0 0 0-.33.39l-2.86 6.77h2l.4-1.1H154l.23 1.1Zm-4.98-2.4c0-1.92-2.7-2.03-2.67-2.9 0-.25.25-.53.8-.6.65-.06 1.3.05 1.89.33l.33-1.55a5.08 5.08 0 0 0-1.78-.32c-1.9 0-3.22.99-3.23 2.42-.01 1.05.95 1.64 1.67 1.99.75.35 1 .58 1 .9-.01.5-.6.71-1.15.72a3.98 3.98 0 0 1-1.96-.46l-.35 1.6c.68.26 1.4.4 2.13.4 2-.02 3.31-1 3.32-2.52Zm-7.9-4.9-3.1 7.3h-2.02l-1.52-5.84a.8.8 0 0 0-.46-.64 8.2 8.2 0 0 0-1.88-.62l.05-.22h3.25c.21 0 .42.08.58.21.16.14.27.33.3.54l.81 4.23 2-4.98 1.98.01Zm4.75-4.57h.71c.18-.02.35 0 .53.05a1.23 1.23 0 0 1 .74.68c.07.16.1.33.09.5v.04a1.23 1.23 0 0 1-.39.95c-.13.12-.28.2-.45.26-.17.05-.35.07-.52.05h-.7v-2.53Zm.7 2.27a.93.93 0 0 0 .76-.26.9.9 0 0 0 .27-.74v-.03a.88.88 0 0 0-.27-.74.93.93 0 0 0-.76-.24h-.36v2.02h.36Zm1.94-2.27h1.56v.25h-1.23v.86h.99v.24h-1v.92h1.3v.25h-1.62v-2.52Zm2.16 0h.8c.5 0 .86.15.86.66v.01a.52.52 0 0 1-.4.54c.39.08.53.27.53.6v.01c0 .48-.34.7-.88.7h-.9l-.01-2.52Zm.8 1.1c.39 0 .54-.13.54-.44v-.02c0-.28-.18-.4-.55-.4h-.48v.87h.48v-.01Zm.1 1.18c.39 0 .57-.16.57-.47 0-.32-.18-.47-.6-.47h-.55v.94h.58Zm1.47-2.28h.33v2.53h-.33v-2.53Zm1.6.25h-.78v-.25h1.88v.25h-.78v2.27h-.33v-2.27h.01Z"/><path fill="#CED2DB" d="M140 8.14h12v16h-12v-16Z"/><path fill="#0A0B0D" fill-rule="evenodd" d="M152 16.64h-12v-1h12v1Z" clip-rule="evenodd"/><path fill="#0A0B0D" fill-rule="evenodd" d="M144.5 8.14v16h-1v-16h1Zm4 0v16h-1v-16h1Z" clip-rule="evenodd"/><path fill="#00D17F" d="M160 39.52a24 24 0 1 1 0 48 24 24 0 0 1 0-48Z"/><path fill="#0A0B0D" d="M160 39.52v48a24 24 0 1 1 0-48Z"/><path fill="#FFFFFF" d="M178 63.52a18 18 0 1 1-36 0 18 18 0 0 1 36 0Z"/><path fill="#0A0B0D" fill-rule="evenodd" d="M169.7 59.7 157.46 72l-7.16-7.17 1.42-1.4 5.73 5.74L168.3 58.3l1.42 1.42Z" clip-rule="evenodd"/><path fill="#CED2DB" d="M160 96h79v24h-79V96Z"/><path fill="#5DE2F8" d="M56 112a16 16 0 0 1 16-16 16 16 0 0 1-16-16 16 16 0 0 1-16 16 16 16 0 0 1 16 16Z"/><path fill="#0052FF" d="M40.23 96h31.54A16 16 0 0 1 56 80a16 16 0 0 1-15.77 16Z"/><path fill="#5DE2F8" d="M216 80a16 16 0 0 0 16 16 16 16 0 0 0-16 16 16 16 0 0 0-16-16 16 16 0 0 0 16-16Z"/><path fill="#0052FF" d="M200.23 96h31.54A16 16 0 0 0 216 112a16 16 0 0 0-15.77-16Z"/><path fill="#5DE2F8" d="M64 32a8 8 0 0 1 8-8 8 8 0 0 1-8-8 8 8 0 0 1-8 8 8 8 0 0 1 8 8Z"/><path fill="#0052FF" d="M56.11 24H71.9a8 8 0 0 1-7.9-8 8 8 0 0 1-7.88 8Z"/><path fill="#00D17F" d="M228 60a8 8 0 0 1 8-8 8 8 0 0 1-8-8 8 8 0 0 1-8 8 8 8 0 0 1 8 8ZM40 56a12 12 0 0 1 12-12 12 12 0 0 1-12-12 12 12 0 0 1-12 12 12 12 0 0 1 12 12Z"/><path fill="#0052FF" d="M36.94 40h6.11A11.96 11.96 0 0 1 40 32c0 3.07-1.16 5.88-3.06 8Z"/><path fill="#CED2DB" d="M160 0h80v8h-80V0Zm0 24h48v8h-48v-8Z"/></svg>