<svg xmlns="http://www.w3.org/2000/svg" fill="none" viewBox="0 0 240 120"><path fill="#5DE2F8" d="M208 60a59.997 59.997 0 0 0-60-60 60 60 0 0 0-60 60zM32 60a59.998 59.998 0 0 0 102.426 42.426A60 60 0 0 0 152 60z"/><path fill="#CED2DB" d="M32 16h56v44H32z"/><path fill="#0052FF" d="M152 108c0-15.464 12.536-28 28-28s28 12.536 28 28v12h-56zm0-48c0 17.673-14.327 32-32 32S88 77.673 88 60s14.327-32 32-32 32 14.327 32 32"/><path fill="#0A0B0D" fill-rule="evenodd" d="M152.004 60c-.263-17.719-14.489-32-32-32s-31.737 14.281-32 32z" clip-rule="evenodd"/><path fill="#0052FF" d="M196 60c0 8.837-7.163 16-16 16s-16-7.163-16-16 7.163-16 16-16 16 7.163 16 16"/><path fill="#0A0B0D" fill-rule="evenodd" d="M196 59.754C195.869 51.03 188.756 44 180.002 44s-15.867 7.03-15.998 15.754z" clip-rule="evenodd"/><path fill="#0052FF" d="m60 0 28 16H32z"/><path fill="#0A0B0D" fill-rule="evenodd" d="M88 25h-7v26h7v2H32v-2h7V25h-7v-2h56zM41 51h8V25h-8zm10 0h8V25h-8zm10 0h8V25h-8zm10 0h8V25h-8z" clip-rule="evenodd"/><path fill="#FFFFFF" d="M120 87c14.912 0 27-12.088 27-27s-12.088-27-27-27-27 12.088-27 27 12.088 27 27 27"/><path fill="#0052FF" d="M120 36c-13.257 0-24 10.775-24 24.07 0 12.416 9.377 22.634 21.417 23.93V65.671a22.7 22.7 0 0 0 11.332-10.507v27.287C137.629 78.919 144 70.236 144 60.07 144 46.775 133.257 36 120 36m-13.697 29.558V54.565c5.794 0 10.59-4.24 11.498-9.795h11.032c-.969 11.637-10.678 20.788-22.53 20.788"/></svg>