<svg xmlns="http://www.w3.org/2000/svg" fill="none" viewBox="0 0 240 120"><circle cx="143.79" cy="36.79" r="5.96" fill="#FFFFFF" transform="rotate(13.849 143.786 36.786)"/><path fill="#CED2DB" d="M240 40H40v40h200V40Zm-139.68 0L88 26.5H72L57 40h11l4-8h16l8 8h4.32Zm0 40L88 93.5H72L57 80h11l4 8h16l8-8h4.32Z"/><path fill="#0A0B0D" d="M48 48h24l8 8v8l-8 8H48V48Z"/><path fill="#CED2DB" d="M40 88V32h8v56h-8Z"/><path fill="#0052FF" d="M48 56v8l48-2.5v-3L48 56Zm9-16-9 8h16l4-8H57Zm0 40-9-8h16l4 8H57Zm-17-8v8h8V40h-8v8H0v24h40Zm60.32-32H96l8 8v-4l-3.68-4Zm0 40H96l8-8v4l-3.68 4Z"/><path fill="#FFD200" d="M120 73a17.6 17.6 0 0 0 7 7 17.6 17.6 0 0 0-7 7 17.6 17.6 0 0 0-7-7 17.6 17.6 0 0 0 7-7Zm104-41c1.96 3.59 5.41 6.04 9 8-3.59 1.96-7.04 4.41-9 8a18.94 18.94 0 0 0-8-8 18.94 18.94 0 0 0 8-8Z"/><path fill="#0052FF" fill-rule="evenodd" d="M127 80a17.6 17.6 0 0 1-7-7 17.6 17.6 0 0 1-7 7h14Zm106-40c-3.59 1.96-7.04 4.41-9 8a18.94 18.94 0 0 0-8-8h17Z" clip-rule="evenodd"/><path fill="#0052FF" d="M179.01 96h8l9.4-15-11-11-6.4 26ZM155 88h-8l9.4-23h16L155 88Z"/><path fill="#0A0B0D" fill-rule="evenodd" d="M227.2 57.5c.83 1.5.8 3.5-.29 5.91-.45 1-1.06 1.8-1.77 2.44 2.01.13 4.3-.74 6.16-2.57l1.4 1.44c-2.36 2.3-5.44 3.46-8.27 3.07a7.44 7.44 0 0 1-1.77-.47c-1.86.7-4 .8-5.97.61a24 24 0 0 1-5.56-1.26 13.72 13.72 0 0 1-3.76-1.9l1.26-1.55c.52.43 1.65 1.02 3.17 1.57 1.5.53 3.28.98 5.08 1.15 1.24.12 2.44.1 3.52-.08a8.95 8.95 0 0 1-2.36-4.08c-.6-2.1-.11-3.84 1.04-5.01a5.51 5.51 0 0 1 4.22-1.54c1.5.08 3.06.79 3.9 2.27Zm-4.5 7.61a6.35 6.35 0 0 1-2.74-3.89c-.43-1.47-.05-2.44.55-3.05.64-.66 1.66-1 2.67-.95 1.01.06 1.85.51 2.27 1.26.42.74.57 2.04-.36 4.1a5.25 5.25 0 0 1-2.39 2.53Z" clip-rule="evenodd"/><path fill="#73A2FF" fill-rule="evenodd" d="m168 24-16.5-.5c-7-.5-10.63.91-14.46 5.42 0 0-2.14 2.58-4.64 3.08-1.05.21-2.15.33-3.07.4-1.12.04-2.37-.04-3.45-.4l-.34-.12c-1.35-.46-2.47-.84-3.16.62l-.26.54c-1.06 1.99-3.64 6.86-2.24 7.46 1.67.79 3.2 3.94 4.32 6.3 3.59 9.06 13.62 14.76 21.43 18.02L136 87.99h8l11.47-13.59a29.32 29.32 0 0 0 14.78 10.19c5 1.56 15.69 4.26 23.49-.31L192 95.99h8l11.4-15c9.5-12.5 5.6-29.5-8.4-34l-33.02-10.25a26.95 26.95 0 0 0-3.41-4.7l1.43-8.05-.01.01Z" clip-rule="evenodd"/><path fill="#FFFFFF" d="M143.78 42.75a5.96 5.96 0 1 0 0-11.92 5.96 5.96 0 0 0 0 11.92Z"/><path fill="#0A0B0D" d="M143.79 40.43a3.64 3.64 0 1 0 0-7.28 3.64 3.64 0 0 0 0 7.28Z"/><path fill="#0052FF" d="M194.31 44.31c5.86-1.64 6.09-4.99 5.69-7.81-.46-3.22-4-4.67-5.5-4.5 6-5.5 1.5-10.94-3-9.87-9.54 2.38-17.45 8.94-21.52 14.62l24.34 7.55-.01.01Z"/><path fill="#5DE2F8" d="M16 0a20.12 20.12 0 0 0 8 8 20.12 20.12 0 0 0-8 8 20.12 20.12 0 0 0-8-8 20.12 20.12 0 0 0 8-8Z"/><path fill="#0A0B0D" d="m169.98 36.75 24.34 7.55-1.31.33c2.17 2.83 2.71 8.84-4.5 9.5-11 1-21.5-5.5-21.5-10.5 0-1.71 1.1-4.31 2.98-6.88h-.01Z"/><path fill="#0052FF" d="M208 12a10 10 0 0 0 4 4 10 10 0 0 0-4 4 10 10 0 0 0-4-4 10 10 0 0 0 4-4Z"/><path fill="#FFD200" d="M32 104a20.12 20.12 0 0 0 8 8 20.12 20.12 0 0 0-8 8 20.12 20.12 0 0 0-8-8 20.12 20.12 0 0 0 8-8Z"/><path fill="#0052FF" d="M104 100a10 10 0 0 0 4 4 10 10 0 0 0-4 4 10 10 0 0 0-4-4 10 10 0 0 0 4-4Z"/><path fill="#5DE2F8" d="M224 104a20.12 20.12 0 0 0 8 8 20.12 20.12 0 0 0-8 8 20.12 20.12 0 0 0-8-8 20.12 20.12 0 0 0 8-8Z"/></svg>