<svg xmlns="http://www.w3.org/2000/svg" fill="none" viewBox="0 0 240 120"><path fill="#0052FF" fill-rule="evenodd" d="m120 8 40 23.98V120H80V31.98L120 8Zm0 16.15a4 4 0 1 0 0-7.99 4 4 0 0 0 0 8Z" clip-rule="evenodd"/><path fill="#CED2DB" d="M208 0v120H32L208 0Z"/><path fill="#0A0B0D" d="m80 87.27 80-54.54V120H80V87.27Z"/><path fill="#CED2DB" d="m48 40.03 6.64-1.4 1.4-6.63 1.4 6.64 6.56 1.4-6.57 1.4-1.4 6.56-1.4-6.57-6.63-1.4Zm-16 48 6.64-1.4 1.4-6.63 1.4 6.64 6.56 1.4-6.57 1.4-1.4 6.56-1.4-6.57-6.63-1.4Z"/><path fill="#FFFFFF" d="M98.39 50.2a28 28 0 1 1 43.23 35.6 28 28 0 0 1-43.23-35.6Z"/><path fill="#0A0B0D" fill-rule="evenodd" d="M133.39 51.73a21.07 21.07 0 1 0-26.78 32.53 21.07 21.07 0 0 0 26.78-32.53Zm1.27-1.54a23.07 23.07 0 1 0-29.32 35.62 23.07 23.07 0 0 0 29.32-35.62ZM121 0v24h-2V0h2Z" clip-rule="evenodd"/><path fill="#0A0B0D" fill-rule="evenodd" d="M136.94 55.01a.98.98 0 0 0 .18.7l1.63-1.16a1.02 1.02 0 0 1 .07 1.07c-.06.12-.14.2-.17.25a16.46 16.46 0 0 1-1.06.92c-.66.52-1.63 1.25-2.83 2.12a727.14 727.14 0 0 1-9.45 6.79 2987.39 2987.39 0 0 1-22.42 15.69l-1.14-1.64c6-4.16 14.97-10.42 22.4-15.68 3.72-2.64 7.05-5.02 9.43-6.77a112.64 112.64 0 0 0 3.46-2.65l.09-.08-.03.04a.89.89 0 0 0-.16.4Z" clip-rule="evenodd"/></svg>