<svg xmlns="http://www.w3.org/2000/svg" fill="none" viewBox="0 0 240 120"><path fill="#CED2DB" d="M120 32a48 48 0 0 0-48 48h48V32Z"/><path fill="#CED2DB" d="M192 80a72 72 0 0 0-144 0h8a64 64 0 0 1 64-64v8a56 56 0 0 0-56 56h56V32a48 48 0 0 1 48 48h24Z"/><path fill="#FFD200" d="M120 120a40 40 0 1 1 0-80 40 40 0 0 1 0 80Z"/><path fill="#5DE2F8" d="M140.6 2.71a79.62 79.62 0 0 0-41.2 0L120 79.62l20.6-76.9Z"/><path fill="#0052FF" fill-rule="evenodd" d="M130.26 41.33a40.06 40.06 0 0 0-20.52 0L120 79.63l10.26-38.3Z" clip-rule="evenodd"/><path fill="#0A0B0D" fill-rule="evenodd" d="M90 80a30 30 0 1 0 60 0 30 30 0 0 0-60 0Zm-2 0a32 32 0 1 0 64 0 32 32 0 0 0-64 0Zm33-72v24h-2V8h2Z" clip-rule="evenodd"/><path fill="#0A0B0D" fill-rule="evenodd" d="m111.26 24.68 1.42-1.42L120 30.6l7.33-7.33 1.41 1.42L120 33.4l-8.74-8.73Z" clip-rule="evenodd"/><path fill="#5DE2F8" d="M64 104a16 16 0 0 0-16 16 16 16 0 0 0-16-16 16 16 0 0 0 16-16 16 16 0 0 0 16 16Z"/><path fill="#FFD200" d="M208 12a12 12 0 0 0-12 12 12 12 0 0 0-12-12 12 12 0 0 0 12-12 12 12 0 0 0 12 12Z"/><path fill="#5DE2F8" d="M192 80a12 12 0 0 0-12 12 12 12 0 0 0-12-12 12 12 0 0 0 12-12 12 12 0 0 0 12 12Z"/><path fill="#0052FF" d="M191.31 79.98A12 12 0 0 1 180 68a12 12 0 0 1-11.32 11.98h22.63Z"/></svg>