<svg xmlns="http://www.w3.org/2000/svg" fill="none" viewBox="0 0 240 120"><path fill="#CED2DB" d="M32 64h72v56H32V64Z"/><path fill="#0052FF" d="M104 64c-15.45 0-28 12.55-28 28s12.55 28 28 28 28-12.55 28-28-12.55-28-28-28Z"/><path fill="#0A0B0D" fill-rule="evenodd" d="M81 92a23.01 23.01 0 0 1 46 0 23.01 23.01 0 0 1-46 0Zm23-21a21.01 21.01 0 0 0 0 42 21.01 21.01 0 0 0 0-42Z" clip-rule="evenodd"/><path fill="#CED2DB" d="M60 0C44.55 0 32 12.55 32 28s12.55 28 28 28 28-12.55 28-28S75.45 0 60 0Z"/><path fill="#0A0B0D" fill-rule="evenodd" d="M37 28a23.01 23.01 0 0 1 46 0 23.01 23.01 0 0 1-46 0ZM60 7a21.01 21.01 0 0 0 0 42 21.01 21.01 0 0 0 0-42Z" clip-rule="evenodd"/><path fill="#0A0B0D" fill-rule="evenodd" d="M50.8 35.78 67.79 18.8l1.41 1.41L52.22 37.2l-1.41-1.41Z" clip-rule="evenodd"/><path fill="#0A0B0D" fill-rule="evenodd" d="M52.22 18.8 69.2 35.79l-1.41 1.41L50.8 20.22l1.41-1.41Z" clip-rule="evenodd"/><path fill="#CED2DB" d="M60 0C44.55 0 32 12.55 32 28s12.55 28 28 28 28-12.55 28-28S75.45 0 60 0Z"/><path fill="#0A0B0D" fill-rule="evenodd" d="M37 28a23.01 23.01 0 0 1 46 0 23.01 23.01 0 0 1-46 0ZM60 7a21.01 21.01 0 0 0 0 42 21.01 21.01 0 0 0 0-42Z" clip-rule="evenodd"/><path fill="#0A0B0D" d="m58.58 28-7.77 7.78 1.41 1.41L60 29.41l7.78 7.78 1.41-1.41L61.41 28l7.78-7.78-1.41-1.41L60 26.59l-7.78-7.78-1.41 1.41L58.58 28Z"/><path fill="#0A0B0D" fill-rule="evenodd" d="m99.84 101.62-.06.06-8.49-8.49 1.42-1.41 7.13 7.13 15.6-15.62 1.42 1.42-16.97 16.97-.05-.06Z" clip-rule="evenodd"/><path fill="#FFD200" d="M180 64c-15.45 0-28 12.55-28 28s12.55 28 28 28 28-12.55 28-28-12.55-28-28-28Z"/><path fill="#0052FF" d="M208 0h-28v56h28V0Z"/><path fill="#101114" d="M180 0h-28v56h28V0Z"/><path fill="#CED2DB" d="m152 56 28 36 28-36h-56Z"/><path fill="#0052FF" fill-rule="evenodd" d="M197.19 69.9A27.87 27.87 0 0 0 180 64c-6.48 0-12.44 2.2-17.19 5.9l17.2 22.1 17.18-22.1Z" clip-rule="evenodd"/><path fill="#0A0B0D" fill-rule="evenodd" d="M189.33 80h-18.66L180 92l9.33-12Z" clip-rule="evenodd"/></svg>