<svg xmlns="http://www.w3.org/2000/svg" fill="none" viewBox="0 0 240 120"><path fill="#CED2DB" d="M48 24h168v86a10 10 0 0 1-10 10H48V24Z"/><path fill="#CED2DB" d="M192 96H24V10A10 10 0 0 1 34 0h158v96Z"/><path fill="#0052FF" d="M48 24h144v72H48V24Z"/><path fill="#0A0B0D" fill-rule="evenodd" d="M88.5 52h-27v-2h27v2Zm0 9h-27v-2h27v2Zm0 9h-27v-2h27v2Zm90-18h-27v-2h27v2Zm0 9h-27v-2h27v2Zm0 9h-27v-2h27v2Z" clip-rule="evenodd"/><path fill="#FFFFFF" d="M119.14 72h1.9v-3.29c3.33-.3 5.46-2.22 5.46-5 0-2.95-2.06-4.17-4.98-4.7l-2.1-.34c-1.9-.35-3.15-.93-3.15-2.7 0-1.61 1.34-2.94 3.78-2.94 2.49 0 3.76 1.25 3.86 2.97h2.34c-.1-2.32-1.8-4.39-5.2-4.71V48h-1.91v3.29c-3.28.32-5.2 2.37-5.2 4.81 0 2.8 1.97 4.14 4.87 4.66l2.1.4c2.11.37 3.25 1.02 3.25 2.67 0 1.86-1.55 3.14-4.03 3.14-2.57 0-4.2-1.2-4.3-3.32h-2.33c.1 2.74 2.13 4.76 5.64 5.06V72Z"/><path fill="#0A0B0D" fill-rule="evenodd" d="M64.53 88h110.94c0-4.42 3.82-8 8.53-8V40c-4.71 0-8.53-3.58-8.53-8H64.53c0 4.42-3.82 8-8.53 8v40c4.71 0 8.53 3.58 8.53 8ZM58 78.18A10.3 10.3 0 0 1 66.32 86h107.36c.84-4 4.2-7.06 8.32-7.82V41.82a10.3 10.3 0 0 1-8.32-7.82H66.32c-.84 4-4.2 7.06-8.32 7.82v36.36Z" clip-rule="evenodd"/><path fill="#FFD200" d="M240 16a16 16 0 0 0-16 16 16 16 0 0 0-16-16 16 16 0 0 0 16-16 16 16 0 0 0 16 16ZM40 32a16 16 0 0 0-16 16A16 16 0 0 0 8 32a16 16 0 0 0 16-16 16 16 0 0 0 16 16Z"/><path fill="#0052FF" d="M24 47.77V16a16 16 0 0 0 16 16 16 16 0 0 0-16 15.77Z"/><path fill="#00D17F" d="M204 92a12 12 0 0 0 12-12 12 12 0 0 0 12 12 12 12 0 0 0-12 12 12 12 0 0 0-12-12Z"/><path fill="#0052FF" d="M216 80.17V104a12 12 0 0 0-12-12 12 12 0 0 0 12-11.83Z"/><path fill="#00D17F" d="M24 108a12 12 0 0 0-12 12 12 12 0 0 0-12-12 12 12 0 0 0 12-12 12 12 0 0 0 12 12Z"/><path fill="#0A0B0D" fill-rule="evenodd" d="M120 79a19 19 0 1 0 0-38 19 19 0 0 0 0 38Zm0 2a21 21 0 1 0 0-42 21 21 0 0 0 0 42Z" clip-rule="evenodd"/></svg>