<svg xmlns="http://www.w3.org/2000/svg" fill="none" viewBox="0 0 242 125"><path fill="#CED2DB" d="M0 96.23h124.3v24.06H0V96.23Z"/><path fill="#5DE2F8" d="M0 52.12h160.06v36.09H0V52.12Z"/><path fill="#00D17F" d="M96.23 44.11a8.02 8.02 0 0 0 8.02 8.02 8.02 8.02 0 0 0-8.02 8.02 8.02 8.02 0 0 0-8.02-8.02 8.02 8.02 0 0 0 8.02-8.02Z"/><path fill="#0052FF" d="M88.32 52.13h15.81a8.02 8.02 0 0 0-7.9 8.02c0-4.4-3.53-7.96-7.9-8.02Z"/><path fill="#CED2DB" d="M0 0h68.16v24.06H0V0Z"/><path fill="#FFD200" d="M160.4 88.21V52.12a18.04 18.04 0 0 1 0 36.09Z"/><path fill="#0052FF" d="M160.38 88.21V52.12a18.04 18.04 0 0 0 0 36.09Z"/><path fill="#FFFFFF" d="M145.97 70.17c7.97 0 14.43-6.46 14.43-14.44 0 7.98 6.46 14.44 14.44 14.44A14.43 14.43 0 0 0 160.4 84.6c0-7.97-6.46-14.43-14.43-14.43Z"/><path fill="#FFFFFF" d="M160.4 84.39V55.94a14.44 14.44 0 0 0 14.44 14.23c-7.9 0-14.32 6.35-14.44 14.22Z"/><path fill="#00D17F" d="M124.3 120.29V96.23a12.03 12.03 0 0 1 0 24.06Z"/><path fill="#0052FF" d="M124.3 120.29V96.23a12.03 12.03 0 1 0 0 24.06Z"/><path fill="#FFFFFF" d="M128.3 108.52a4 4 0 1 1-8.01 0 4 4 0 0 1 8.02 0Z"/><path fill="#5DE2F8" d="M68.16 24.06V0a12.03 12.03 0 0 1 0 24.06Z"/><path fill="#0052FF" d="M68.16 24.06V0a12.03 12.03 0 0 0 0 24.06Z"/><path fill="#0052FF" d="M68.16 24.06V0a12.03 12.03 0 0 0 0 24.06Z"/><path fill="#FFD200" d="M132.32 8.04c0 6.64 5.39 12.02 12.02 12.02a12.02 12.02 0 0 0-12.02 12.02c0-6.64-5.38-12.02-12.01-12.02 6.63 0 12.01-5.38 12.01-12.02Z"/><path fill="#101114" fill-rule="evenodd" d="m179.3 5.93 19.13 14.91 7.6 6.08 1.95 1.56a6.6 6.6 0 0 1 1.9 2.44l.12.26 2.05 4.5 5.9 13.02 3.25 7.12 2.41 5.31v.01l2.7 5.96-20.41-17.5-5.23-4.48a2.7 2.7 0 0 0-.28-.23l-.27-.17-2.54-6.55-10.1-8.3-8.08-6.9a11.14 11.14 0 0 1-1.35-15.55l1.24-1.5Zm41.46 53.77-1.39-3.05-3.24-7.12-6.19-13.64-1.78-3.9-.1-.25a4.57 4.57 0 0 0-1.32-1.68l-9.56-7.65L179.6 8.7a9.14 9.14 0 0 0 1.11 12.74l8.07 6.89 10.49 8.61 2.5 6.47.22.18 5.22 4.48 13.56 11.62Z" clip-rule="evenodd"/><path fill="#101114" fill-rule="evenodd" d="m206.11.05 7.72 28.7.26.94.23.85 6.93 25.43-1.88.68-3.24-7.12-6.2-13.64h.01l-1.78-3.9-.1-.25a4.59 4.59 0 0 0-1.32-1.68l-1.96-1.57-6.3-5.04-1.98-9.93A11.13 11.13 0 0 1 204.75.38l1.36-.33Zm-1.42 2.42a9.12 9.12 0 0 0-6.22 10.64l1.84 9.23 5.72 4.58 1.95 1.56a6.6 6.6 0 0 1 1.9 2.44l.12.26 2.05 4.5 4 8.82-3.66-13.43-.23-.85-.26-.95-7.21-26.8Z" clip-rule="evenodd"/><path fill="#101114" fill-rule="evenodd" d="m225.46 16.64-.92 46.78-2-.04.88-44.8a9.12 9.12 0 0 0-8.65 8.22l-.4 3.92 6.88 25.25-1.93.53-6.98-25.61.44-4.28a11.12 11.12 0 0 1 11.72-10.02l.96.05Z" clip-rule="evenodd"/><path fill="#101114" fill-rule="evenodd" d="M200.33 44.86a5.93 5.93 0 0 0-4.16-1.16l-30.66 3.06c.06.4.15.8.26 1.18v.01a8.98 8.98 0 0 0 8.56 6.42h.01l-.01 1 .01-1 16.96.24h.03l.16.02h.03l.06.02a60.8 60.8 0 0 1 .77.16 18.15 18.15 0 0 1-8.31 35.34l.46-1.95a16.14 16.14 0 1 0 6.7-31.58l-16.88-.25a10.99 10.99 0 0 1-10.91-10.46l-.05-.95 32.6-3.25a7.94 7.94 0 0 1 6.02 1.89l5.22 4.48 16.99 14.56.45.38c2.28 1.95 3.39 4.79 4.16 7.3v.02l6.88 28.25L242 124l-1.94.48-6.32-25.4-6.87-28.2c-.75-2.44-1.73-4.78-3.53-6.33l-.46-.38L205.9 49.6l-5.23-4.48-.28-.23-.03-.01-.03-.02Z" clip-rule="evenodd"/><path fill="#101114" fill-rule="evenodd" d="M205.65 67.6a18.14 18.14 0 0 1-26.9 20.4 9.1 9.1 0 0 0-9.88.3l-4.05 2.78 2.61 1.81 9.83 6.82a37.14 37.14 0 0 0 19.03 5.55 31.96 31.96 0 0 0 7.55-.85 12.89 12.89 0 0 0 .5-.14h.03l1.15-.4 2.64 20.08-1.98.26-2.34-17.73a33.91 33.91 0 0 1-7.57.78 39.14 39.14 0 0 1-20.07-5.85l-.03-.02-.02-.02-9.86-6.83-2.8-1.94-1-.7.57-.82-.57.82-1.2-.82 6.44-4.43a11.1 11.1 0 0 1 12.06-.36 16.14 16.14 0 0 0 23.93-18.14l1.93-.54Z" clip-rule="evenodd"/></svg>