<svg xmlns="http://www.w3.org/2000/svg" fill="none" viewBox="0 0 240 120"><path fill="#CED2DB" fill-rule="evenodd" d="M90 60H24v16h48.499c4.16-4.886 10.456-8 17.501-8zm0 52v8H0v-16h73.029c4.035 4.886 10.14 8 16.971 8" clip-rule="evenodd"/><path fill="#CED2DB" fill-rule="evenodd" d="M90 120c16.55 0 30-13.45 30-30s-13.45-30-30-30-30 13.45-30 30 13.45 30 30 30m0-8c12.15 0 22-9.85 22-22s-9.85-22-22-22-22 9.85-22 22 9.85 22 22 22m60 8c16.55 0 30-13.45 30-30s-13.45-30-30-30-30 13.45-30 30 13.45 30 30 30m0-8c12.15 0 22-9.85 22-22s-9.85-22-22-22-22 9.85-22 22 9.85 22 22 22m0-60v8h66V44h-48.498c-4.162 4.886-10.457 8-17.502 8m16.971-36H240V0h-90v8c6.832 0 12.936 3.114 16.971 8" clip-rule="evenodd"/><path fill="#CED2DB" fill-rule="evenodd" d="M150 60c16.55 0 30-13.45 30-30S166.55 0 150 0s-30 13.45-30 30 13.45 30 30 30m0-8c12.15 0 22-9.85 22-22s-9.85-22-22-22-22 9.85-22 22 9.85 22 22 22" clip-rule="evenodd"/><path fill="#0052FF" d="M120 30c0 16.55-13.45 30-30 30S60 46.55 60 30 73.45 0 90 0s30 13.45 30 30"/><path fill="#FFD200" d="M120 60H90v30h30z"/><path fill="#5DE2F8" d="M150 30H90v60h60z"/><path fill="#5DE2F8" d="M120 30H90v30h30z"/><path fill="#0A0B0D" d="M120 30H90v30c16.55 0 30-13.45 30-30"/><path fill="#FFD200" d="M90 8c-12.15 0-22 9.85-22 22s9.85 22 22 22 22-9.85 22-22-9.85-22-22-22"/><path fill="#FFD200" d="M90 14c-8.836 0-16 7.164-16 16s7.164 16 16 16 16-7.164 16-16-7.164-16-16-16"/><path fill="#0A0B0D" fill-rule="evenodd" d="M73 30c0-9.389 7.611-17 17-17s17 7.611 17 17-7.611 17-17 17-17-7.611-17-17m17-15c-8.284 0-15 6.716-15 15s6.716 15 15 15 15-6.716 15-15-6.716-15-15-15" clip-rule="evenodd"/><path fill="#5DE2F8" d="M150 60h-30v30h30z"/><path fill="#0A0B0D" d="M150 60c-16.55 0-30 13.45-30 30h30z"/><path fill="#0052FF" fill-rule="evenodd" d="M90 40v12c12.15 0 22-9.85 22-22h-12z" clip-rule="evenodd"/><path fill="#FFFFFF" d="M100 30v10H90z"/><path fill="#0052FF" d="M164 90c0 7.75-6.25 14-14 14s-14-6.25-14-14 6.25-14 14-14 14 6.25 14 14"/><path fill="#0A0B0D" d="M154.951 85.05c0 2.75-2.2 4.95-4.95 4.95a4.93 4.93 0 0 1-4.95-4.95c0-2.75 2.2-4.95 4.95-4.95s4.95 2.25 4.95 4.95"/><path fill="#FFD200" d="M150.002 90c-5.45 0-9.9 4.4-9.9 9.9v.05c2.55 2.5 6 4.1 9.9 4.1 3.85 0 7.35-1.55 9.9-4.1v-.05c0-5.5-4.45-9.9-9.9-9.9"/><path fill="#5DE2F8" d="M150 68c-12.15 0-22 9.85-22 22h22z"/><path fill="#0052FF" fill-rule="evenodd" d="M150 60c16.55 0 30-13.45 30-30S166.55 0 150 0v8c12.15 0 22 9.85 22 22s-9.85 22-22 22-22-9.85-22-22h-8c0 16.55 13.45 30 30 30m-60 0c-16.55 0-30 13.45-30 30s13.45 30 30 30v-8c-12.15 0-22-9.85-22-22s9.85-22 22-22 22 9.85 22 22h8c0-16.55-13.45-30-30-30" clip-rule="evenodd"/><path fill="#5DE2F8" d="M90 68v22h22c0-12.15-9.85-22-22-22"/><path fill="#FFD200" d="m162.198 30-19.55 9.8V20.2z"/><path fill="#5DE2F8" d="M142.65 39.8V30H128c0 12.15 9.85 22 22 22V36.1z"/><path fill="#0052FF" d="M149.998 36.1V30h-7.35v9.8z"/><path fill="#FFD200" d="M99 78H83v17.35c-.75-.85-1.8-1.35-3-1.35-2.2 0-4 1.8-4 4s1.8 4 4 4 4-1.8 4-4V84h15v11.35c-.75-.85-1.8-1.35-3-1.35-2.2 0-4 1.8-4 4s1.8 4 4 4 4-1.8 4-4V78z"/><path fill="#0A0B0D" d="M145.05 85.05c0-2.75 2.2-4.95 4.95-4.95V76c-7.75 0-14 6.25-14 14h14a4.93 4.93 0 0 1-4.95-4.95"/><path fill="#FFD200" d="M154.95 85.05c0-2.75-2.2-4.95-4.95-4.95V90c2.75 0 4.95-2.2 4.95-4.95"/><path fill="#0052FF" d="M145.051 85.05c0 2.75 2.2 4.95 4.95 4.95v-9.9c-2.75 0-4.95 2.25-4.95 4.95M100 78H90v6h9v6h1z"/></svg>