<svg xmlns="http://www.w3.org/2000/svg" fill="none" viewBox="0 0 240 120"><path fill="#00D17F" d="M176 0h32v32h-32V0Z"/><path fill="#CED2DB" d="M32 96h176v24H32V96Z"/><path fill="#0052FF" d="M96 56h32v40H96V56Zm40-24h32v64h-32V32Zm40 0h32v64h-32V32Z"/><path fill="#0A0B0D" fill-rule="evenodd" d="M193 8v88h-2V8h2Z" clip-rule="evenodd"/><path fill="#0A0B0D" fill-rule="evenodd" d="m192 6.586 8.707 8.707-1.414 1.414L192 9.414l-7.293 7.293-1.414-1.414L192 6.586Z" clip-rule="evenodd"/><path fill="#00D17F" d="M32 76c0-15.464 12.536-28 28-28s28 12.536 28 28-12.536 28-28 28-28-12.536-28-28Z"/><path fill="#0A0B0D" fill-rule="evenodd" d="M79.596 96A27.908 27.908 0 0 1 60 104a27.908 27.908 0 0 1-19.596-8h39.192Zm-7.69-30.493-22.4 22.4-1.414-1.414 22.4-22.4 1.414 1.414Zm-4.272 19.596a2.565 2.565 0 1 0 0-5.13 2.565 2.565 0 0 0 0 5.13Zm4.565-2.565a4.565 4.565 0 1 1-9.13 0 4.565 4.565 0 0 1 9.13 0ZM52.365 72.027a2.565 2.565 0 1 0 0-5.13 2.565 2.565 0 0 0 0 5.13Zm4.565-2.565a4.565 4.565 0 1 1-9.13 0 4.565 4.565 0 0 1 9.13 0Z" clip-rule="evenodd"/></svg>