<svg xmlns="http://www.w3.org/2000/svg" fill="none" viewBox="0 0 240 120"><path fill="#CED2DB" d="M32 65.016a32 32 0 0 1 14.627 8.357A32 32 0 0 1 56 96h32a64 64 0 0 0-56-63.498z"/><path fill="#5DE2F8" fill-rule="evenodd" d="M88 96c0-35.267 28.733-64 64-64V0C99.067 0 56 43.067 56 96z" clip-rule="evenodd"/><path fill="#0052FF" d="M88 92H56v28h32z"/><path fill="#0052FF" fill-rule="evenodd" d="M88 96a64 64 0 0 0-19.988-46.464C60.362 63.309 56.002 79.149 56 95.988V96z" clip-rule="evenodd"/><path fill="#CED2DB" d="M168 64h-32v56h32zm-40 16H96v40h32zm80-32h-32v72h32z"/><path fill="#0A0B0D" fill-rule="evenodd" d="M71 95.5c0-10.485 3.077-21.827 7.052-31.423A79.5 79.5 0 0 1 151.5 15v2a77.5 77.5 0 0 0-71.6 47.842C75.983 74.294 73 85.367 73 95.5z" clip-rule="evenodd"/><path fill="#3CC28A" d="M152 0c8.867 0 16 7.133 16 16s-7.133 16-16 16z"/><path fill="#0052FF" d="M152 32c-8.867 0-16-7.133-16-16s7.133-16 16-16z"/><path fill="#0A0B0D" fill-rule="evenodd" d="M152 26c5.523 0 10-4.477 10-10s-4.477-10-10-10-10 4.477-10 10 4.477 10 10 10m0 2c6.627 0 12-5.373 12-12s-5.373-12-12-12-12 5.373-12 12 5.373 12 12 12M32 49.686a47 47 0 0 1 25.234 13.08A47 47 0 0 1 71 96h2a49 49 0 0 0-41-48.342z" clip-rule="evenodd"/></svg>