<svg xmlns="http://www.w3.org/2000/svg" fill="none" viewBox="0 0 240 120"><g clip-path="url(#a)"><path fill="#CED2DB" d="M44 103.5a44 44 0 1 0 0-88 44 44 0 0 0 0 88Z"/><path fill="#CED2DB" d="M152 32H72v56h80V32Zm88-32h-60.3v120H240V0Z"/><path fill="#0A0B0D" d="M179.7 104a44 44 0 1 0 0-88 44 44 0 0 0 0 88Z"/><path fill="#0052FF" d="M179.7 104a44 44 0 0 1 0-88v88Z"/><path fill="#FFFFFF" d="M179.7 96a36 36 0 1 0 0-72 36 36 0 0 0 0 72Z"/><path fill="#8E76FF" d="M43.8 88c15.5 0 28-12.5 28-28s-12.5-28-28-28-28 12.5-28 28 12.5 28 28 28Z"/><path fill="#FFFFFF" d="M43.8 35a25 25 0 0 1 0 50 25 25 0 0 1 0-50Zm0-3c-15.5 0-28 12.5-28 28s12.5 28 28 28 28-12.5 28-28-12.5-28-28-28Z"/><path fill="#FFFFFF" fill-opacity=".6" d="M43.8 39v14.9L56 59.5 43.8 39Z"/><path fill="#FFFFFF" d="M43.8 39 31.6 59.5l12.2-5.6V39Z"/><path fill="#FFFFFF" fill-opacity=".6" d="M43.8 69.1v10.1l12.3-17.4-12.3 7.3Z"/><path fill="#FFFFFF" d="M43.8 79.3V69.1l-12.2-7.3 12.2 17.5Z"/><path fill="#FFFFFF" fill-opacity=".2" d="M43.8 66.8 56 59.5l-12.2-5.6v12.9Z"/><path fill="#FFFFFF" fill-opacity=".6" d="m31.6 59.5 12.2 7.3V53.9l-12.2 5.6Z"/><path stroke="#0A0B0D" stroke-width="2" d="M88 60h31.4m-6.8-6.8 6.8 6.8-6.8 6.8"/><path fill="#FFFFFF" stroke="#0052FF" stroke-width="2" d="M207.2 60.4a27.6 27.6 0 1 1-55.2 0 27.6 27.6 0 0 1 27.6-27.6c15.3 0 27.6 12.3 27.6 27.6Z"/><path fill="#0052FF" d="M179.6 38.3V54l12.9 5.9-12.9-21.6Z"/><path fill="#73A2FF" d="m179.6 38.3-12.9 21.6 12.9-5.9V38.3Z"/><path fill="#0052FF" d="M179.6 70v10.6l12.9-18.3-12.9 7.7Z"/><path fill="#73A2FF" d="M179.6 80.6V70l-12.9-7.7 12.9 18.3Zm0-13.1 12.9-7.7-12.9-5.8v13.5Z"/><path fill="#CCDCFF" d="m166.7 59.9 12.9 7.7V54l-12.9 5.9Z"/></g><defs><clipPath id="a"><path fill="#FFFFFF" d="M0 0h240v120H0z"/></clipPath></defs></svg>