<svg xmlns="http://www.w3.org/2000/svg" fill="none" viewBox="0 0 240 120"><path fill="#8E76FF" d="M59.9 55.8a27.91 27.91 0 0 1 0-55.8 27.91 27.91 0 0 1 0 55.8Z"/><path fill="#FFFFFF" fill-opacity=".6" d="M60.1 8v14.86l12.1 5.67L60.1 8Z"/><path fill="#FFFFFF" d="M60.1 8 48 28.34l12.1-5.67V8Z"/><path fill="#FFFFFF" fill-opacity=".6" d="M60.1 37.92v9.97l12.3-17.4-12.3 7.43Z"/><path fill="#FFFFFF" d="M60.1 48.09V37.92L48 30.68 60.1 48.1Z"/><path fill="#FFFFFF" fill-opacity=".2" d="m60.1 35.57 12.1-7.23-12.1-5.67v12.9Z"/><path fill="#FFFFFF" fill-opacity=".6" d="m48 28.34 12.1 7.23v-12.9L48 28.34Z"/><path fill="#00D17F" d="M82.2 48.5c5 4.5 11.6 7.3 18.8 7.3 15.4 0 27.9-12.5 27.9-27.9A27.98 27.98 0 0 0 101 0c-7.2 0-13.8 2.8-18.8 7.3a30.57 30.57 0 0 1 0 41.2Z"/><path fill="#5DE2F8" d="M183.4 55.8a27.91 27.91 0 0 0 0-55.8 27.91 27.91 0 0 0 0 55.8Z"/><path fill="#FFD200" d="M170 27.9c0 15.4-12.5 27.9-27.9 27.9h-.6a27.91 27.91 0 0 1 0-55.8h.6C157.5 0 170 12.5 170 27.9Z"/><path fill="#0052FF" fill-rule="evenodd" d="M121.6 46.7c-4.5-5-7.3-11.6-7.3-18.8 0-7.2 2.8-13.8 7.3-18.8 4.5 5 7.3 11.6 7.3 18.8a28.6 28.6 0 0 1-7.3 18.8Zm41.1 0c4.5-5 7.3-11.6 7.3-18.8 0-7.2-2.8-13.8-7.3-18.8-4.5 5-7.3 11.6-7.3 18.8.1 7.2 2.8 13.8 7.3 18.8Z" clip-rule="evenodd"/><path fill="#CED2DB" d="M240 4.7c-4.4-2.9-9.7-4.7-15.4-4.7a27.91 27.91 0 0 0 0 55.8c5.7 0 11-1.7 15.4-4.7V4.7Z"/><path fill="#CED2DB" fill-rule="evenodd" d="M225.1 0h-.6a27.91 27.91 0 0 0 0 55.8h.6V0Z" clip-rule="evenodd"/><path fill="#0052FF" fill-rule="evenodd" d="M203.9 46.7c4.5-5 7.3-11.6 7.3-18.8 0-7.2-2.8-13.8-7.3-18.8-4.5 5-7.3 11.6-7.3 18.8 0 7.2 2.8 13.8 7.3 18.8Z" clip-rule="evenodd"/><path fill="#0A0B0D" d="m98.8 27.2 8.1-8.1-.9-.9-9.7 9.7 9.7 9.7.9-.9-8.2-8.2H224v-1.3H98.8Z"/><path fill="#FFFFFF" d="M180.2 64.2a27.91 27.91 0 0 1 0 55.8 27.91 27.91 0 0 1 0-55.8Z"/><path fill="#0052FF" fill-rule="evenodd" d="M205.1 92.1a24.91 24.91 0 0 0-49.8 0 24.91 24.91 0 0 0 49.8 0Zm3 0a27.91 27.91 0 0 0-55.8 0 27.91 27.91 0 0 0 55.8 0Z" clip-rule="evenodd"/><path fill="#0052FF" fill-opacity=".6" d="M180.1 72v14.86l12.1 5.67L180.1 72Z"/><path fill="#0052FF" d="M180.1 72 168 92.34l12.1-5.67V72Z"/><path fill="#0052FF" fill-opacity=".6" d="M180.1 101.92v9.97l12.3-17.4-12.3 7.43Z"/><path fill="#0052FF" d="M180.1 112.09v-10.17L168 94.68l12.1 17.41Z"/><path fill="#0052FF" fill-opacity=".2" d="m180.1 99.57 12.1-7.23-12.1-5.67v12.9Z"/><path fill="#0052FF" fill-opacity=".6" d="m168 92.34 12.1 7.23v-12.9L168 92.34Z"/><path fill="#00D17F" d="M157.8 71.5c-5-4.5-11.6-7.3-18.8-7.3a27.91 27.91 0 0 0 0 55.8c7.2 0 13.8-2.8 18.8-7.3a30.57 30.57 0 0 1 0-41.2Z"/><path fill="#5DE2F8" d="M56.6 64.2a27.91 27.91 0 0 0 0 55.8 27.91 27.91 0 0 0 0-55.8Z"/><path fill="#FFD200" d="M97.9 64.2a27.91 27.91 0 0 0 0 55.8h.6a27.91 27.91 0 0 0 0-55.8h-.6Z"/><path fill="#0052FF" fill-rule="evenodd" d="M118.4 73.3c4.5 5 7.3 11.6 7.3 18.8 0 7.2-2.8 13.8-7.3 18.8-4.5-5-7.3-11.6-7.3-18.8.1-7.2 2.8-13.8 7.3-18.8Zm-41.1 0c-4.5 5-7.3 11.6-7.3 18.8 0 7.2 2.8 13.8 7.3 18.8 4.5-5 7.3-11.6 7.3-18.8a28.6 28.6 0 0 0-7.3-18.8Z" clip-rule="evenodd"/><path fill="#CED2DB" d="M0 115.3c4.4 2.9 9.7 4.7 15.4 4.7a27.91 27.91 0 0 0 0-55.8c-5.7 0-11 1.7-15.4 4.7v46.4Z"/><path fill="#CED2DB" fill-rule="evenodd" d="M14.9 120h.6a27.91 27.91 0 0 0 0-55.8h-.6V120Z" clip-rule="evenodd"/><path fill="#0052FF" fill-rule="evenodd" d="M36.1 73.3c-4.5 5-7.3 11.6-7.3 18.8 0 7.2 2.8 13.8 7.3 18.8 4.5-5 7.3-11.6 7.3-18.8 0-7.2-2.8-13.8-7.3-18.8Z" clip-rule="evenodd"/><path fill="#0A0B0D" d="M141.2 91.4H16.1v1.3h125.2l-8.2 8.2.9.9 9.7-9.7-9.7-9.7-.9.9 8.1 8.1Z"/></svg>