<svg xmlns="http://www.w3.org/2000/svg" fill="none" viewBox="0 0 240 120"><path fill="#CED2DB" d="M32 32h96v16H32zm88-16h96v16h-96zm0 32h96v16h-96zm-8 32h104v16H112zM32 64h96v16H32z"/><path fill="#CED2DB" d="M32 88h96v16H32z"/><path fill="#0A0B0D" fill-rule="evenodd" d="M52.944 93.554h-.999v-2h1zm5.993 0H56.94v-2h1.998zm5.993 0h-1.998v-2h1.998zm5.993 0h-1.998v-2h1.998zm5.993 0h-1.998v-2h1.998zm5.993 0H80.91v-2h1.998zm5.993 0h-1.998v-2h1.998zm5.993 0h-1.998v-2h1.998zm4.994 0h-1v-2h1z" clip-rule="evenodd"/><path fill="#0052FF" d="M0 67a3 3 0 0 1 3-3h50a3 3 0 0 1 3 3v50a3 3 0 0 1-3 3H3a3 3 0 0 1-3-3z"/><path fill="#0A0B0F" d="M47.937 106.839q.075.737.037 1.454a9.8 9.8 0 0 0-5.276-3.912l-.396-3.783c-2.877-19.37-16.578-21.825-19.294-22.125 2.295-2.338 6.006-3.689 9.366-2.762q.715.198 1.366.494a9.84 9.84 0 0 0-4.288 2.155 9.23 9.23 0 0 1 8.795 1.223 9.8 9.8 0 0 0-3.896.834 9.23 9.23 0 0 1 7.252 3.277 9.8 9.8 0 0 0-4.265-.022 9.22 9.22 0 0 1 6.276 3.307q.473.569.837 1.186a9.84 9.84 0 0 0-4.34-.722 9.23 9.23 0 0 1 5.608 4.402q.364.648.61 1.318a9.85 9.85 0 0 0-4.095-1.49 9.23 9.23 0 0 1 4.838 5.224q.255.695.394 1.398a9.8 9.8 0 0 0-3.355-1.972A9.22 9.22 0 0 1 48 103.25a9.8 9.8 0 0 0-3.21-2.446 9.23 9.23 0 0 1 3.147 6.036"/><path fill="#CED2DB" d="M24.184 82.787q-.091.165-.145.359l-.04.14h-.002l.04-.14a1.6 1.6 0 0 1 .147-.359m.806-.699"/><path fill="#FFFFFF" d="M34.77 94.544q-.004-.003-.003-.007-.027-.18-.062-.356a26 26 0 0 0-.143-.697 3 3 0 0 0-.048-.22l-.06-.25-.05-.199q-.085-.33-.178-.649-.088-.3-.183-.589l-.015-.05-.1-.288a15 15 0 0 0-.22-.594q-.056-.144-.116-.288l-.12-.283a19 19 0 0 0-.521-1.08 14 14 0 0 0-.284-.514q-.071-.127-.147-.25a9 9 0 0 0-.306-.484 5 5 0 0 0-.158-.238q-.078-.117-.16-.233a5 5 0 0 0-.166-.228q-.082-.113-.168-.223a15 15 0 0 0-.89-1.065 16 16 0 0 0-.763-.792q-.1-.093-.2-.19l-.201-.186-.203-.182q-.104-.094-.208-.183-.207-.18-.421-.354a19 19 0 0 0-.431-.346q-.108-.084-.22-.167a22 22 0 0 0-.679-.499q-.222-.157-.452-.313a22 22 0 0 0-.466-.31 1.7 1.7 0 0 0-.423-.196 1.5 1.5 0 0 0-.784-.023 1 1 0 0 0-.118.03l-.112.04a1.5 1.5 0 0 0-.317.166.6.6 0 0 0-.102.075 1.4 1.4 0 0 0-.172.16 1.4 1.4 0 0 0-.217.298q-.091.165-.145.359l-.04.14a.9.9 0 0 1-.228.398.91.91 0 0 1-1.235.03 1 1 0 0 1-.136-.16.8.8 0 0 1-.103-.2l-2.064-5.726q.017.056.032.113a6 6 0 0 1 .126.466q.014.052.025.105.03.124.047.24a5 5 0 0 1 .045.286q.013.113.018.218l.002.108q0 .071-.005.138-.007.072-.017.135l-.015.075c-.015.05-.03.1-.053.143l-.015.028a.5.5 0 0 1-.1.128.4.4 0 0 1-.17.09.74.74 0 0 1-.75-.2l-.04-.043a1 1 0 0 1-.065-.083c-.045-.063-.067-.108-.067-.108l-.083.106-.99 1.235-.992 1.235-.003-.002-3.107 3.866a.97.97 0 0 0-.188.824l.266 1.155-5.477 7.828a2.6 2.6 0 0 0-.419 1.99l.17.86a2.8 2.8 0 0 0 2.13 2.192l1.37.313c.74.17 1.52.032 2.156-.381l.862-.559c.298-.195.478-.526.478-.882v-.536l1.73-4.643c.185.185 1.315 1.283 2.963 1.594.885.167 1.917.11 3.035-.436q.311-.151.589-.324l.18-.115h.003q.152-.1.293-.208a2 2 0 0 0 .173-.135q.03-.02.06-.05a2 2 0 0 0 .185-.16q.006.001.01-.008.108-.096.206-.196.068-.067.133-.138.066-.068.125-.137l.117-.14q.058-.072.11-.143.056-.071.108-.146.152-.216.281-.436.126-.221.23-.443c.437-.94.564-1.877.587-2.581a6 6 0 0 0-.068-1.16h.003l.002.002a1 1 0 0 1 .106.08 2 2 0 0 1 .205.193c.095.093.203.216.313.366q.06.075.116.16c.18.264.363.597.516 1.01.165.441.295.973.35 1.609q.03.315.03.67a8.6 8.6 0 0 1-.21 1.87 9 9 0 0 1-.185.715q-.05.176-.11.348-.016.052-.036.103a11 11 0 0 1-.358.905q-.216.489-.466.944-.246.455-.514.872a4 4 0 0 1-.135.213q-.105.165-.218.323-.153.225-.31.436a17.3 17.3 0 0 1-1.835 2.118l-.1.097q-.113.11-.163.151-.007.009-.015.015h-.003l-.012.012q-.084.101-.17.198c-2.817 3.145-5.638 3.947-7.3 7.993H33.72l.516-1.641c1.037-5.843 1.135-10.35.534-13.924m-24.343 3.814-.383.523a.301.301 0 0 1-.537-.12l-.228-1.155a.88.88 0 0 1 .411-.925.42.42 0 0 1 .546.098l.166.208c.316.398.326.962.025 1.37m7.176-11.389a1.68 1.68 0 0 1-1.633.594 1.68 1.68 0 0 1 .228-1.721 1.67 1.67 0 0 1 1.633-.594 1.67 1.67 0 0 1-.228 1.721m12.624 19.129-5.352.511c-.491.045-.752-.566-.379-.887 1.248-1.08 2.634-2.06 4.02-3.606.892-.997 1.463-2.125 1.826-3.227.095-.286.514-.24.541.063l.532 5.71a1.32 1.32 0 0 1-1.188 1.436"/><path fill="#FFFFFF" d="M10.402 96.987c.316.398.326.962.025 1.37l-.383.524a.301.301 0 0 1-.537-.12l-.228-1.155a.88.88 0 0 1 .411-.925.42.42 0 0 1 .546.098zm5.568-9.424a1.68 1.68 0 0 1 .228-1.721 1.67 1.67 0 0 1 1.633-.594 1.675 1.675 0 0 1-1.862 2.315m1.198-5.52-.003-.002.992-1.236.018-.02.975-1.212-.99 1.235zm3.097-4.303-.05-.16.018.048q.017.056.032.113m3.192 24.15q-.008.01-.017.016l.014-.016zm.543-18.605h-.002l.04-.14a1.6 1.6 0 0 1 .147-.359q-.091.165-.145.359zm2.461 5.424h-.003v-.004zm.622.637a4 4 0 0 0-.313-.366c.095.093.203.216.313.366m.801 5.32a8.7 8.7 0 0 0 .208-1.872h.002c0 .641-.075 1.268-.21 1.872m-3.387 11.055c1.248-1.08 2.634-2.06 4.02-3.606.892-.997 1.463-2.125 1.826-3.227.095-.286.514-.24.541.063l.532 5.71a1.32 1.32 0 0 1-1.188 1.436l-5.352.511c-.491.045-.752-.566-.379-.887m-4.4-10.06-4.693 3.049 1.73-4.643c.185.185 1.315 1.283 2.963 1.594"/><path fill="#0A0B0F" d="M20.527 79.164q0 .071-.005.138-.007.072-.017.135l-.015.075q-.02.077-.053.143l-.015.028a.5.5 0 0 1-.1.128.4.4 0 0 1-.17.09.74.74 0 0 1-.75-.2l-.04-.043a1 1 0 0 1-.065-.083 1 1 0 0 1-.065-.108h-.002c-.048-.11-1.1-2.428-.319-5.091 0 0 .406.82.81 1.826l.495 1.376v.003l.016.047q.017.056.032.113a6 6 0 0 1 .126.466l.025.105q.03.124.047.24a5 5 0 0 1 .045.286q.013.113.018.218zm-10.1 19.194-.383.523a.301.301 0 0 1-.537-.12l-.228-1.155a.88.88 0 0 1 .411-.925.42.42 0 0 1 .546.098l.166.208c.316.398.326.962.025 1.37"/><path fill="#CED2DB" d="M28.095 92.795a8.6 8.6 0 0 1-.21 1.872 9 9 0 0 1-.297 1.062q-.015.052-.035.103-.105.292-.218.576-.066.164-.14.329-.216.489-.466.944-.246.455-.514.872l-.135.213q-.105.165-.218.323-.157.225-.31.436a17.3 17.3 0 0 1-1.835 2.118l-.1.097q-.113.11-.163.151-.007.009-.015.015l.013-.015c1.779-2.138 2.172-4.809 2.215-6.51a.928.928 0 0 0-1.433-.807l-.331.213q.152-.1.293-.208a2 2 0 0 0 .173-.135q.03-.02.06-.05.094-.073.185-.16.006.001.01-.008.106-.094.206-.196.071-.067.133-.138.066-.068.125-.137.062-.07.117-.14.061-.072.11-.143.06-.071.108-.146.159-.214.281-.436a5 5 0 0 0 .23-.443c.44-.94.57-1.88.587-2.581a6 6 0 0 0-.065-1.158v-.002l.002.002a1 1 0 0 1 .106.08q.061.05.145.133l.06.06c.095.093.203.216.313.366l.116.16c.18.264.364.597.517 1.01.165.441.296.973.35 1.609q.03.315.03.67"/><path fill="#0A0B0F" d="M17.603 86.97a1.68 1.68 0 0 1-1.633.593 1.68 1.68 0 0 1 .228-1.721 1.67 1.67 0 0 1 1.633-.594 1.67 1.67 0 0 1-.228 1.721"/><path fill="#FFFFFF" d="m10.066 74.316 7.096 7.725.003.002 1.982-2.47z"/><path fill="#CED2DB" d="M34.236 108.468c1.037-5.843 1.135-10.35.534-13.924q-.004-.003-.003-.007-.027-.18-.062-.356-.021-.124-.045-.243a13 13 0 0 0-.098-.454 3 3 0 0 0-.048-.22l-.06-.25a3 3 0 0 0-.05-.199q-.081-.33-.178-.649-.084-.3-.183-.589l-.015-.05a6 6 0 0 0-.1-.288 15 15 0 0 0-.22-.594 6 6 0 0 0-.116-.288l-.12-.283a11 11 0 0 0-.253-.549 9 9 0 0 0-.133-.268 7 7 0 0 0-.135-.263 11 11 0 0 0-.284-.514q-.071-.127-.147-.25a9 9 0 0 0-.306-.484 5 5 0 0 0-.158-.238q-.078-.117-.16-.233a5 5 0 0 0-.166-.228 15 15 0 0 0-1.057-1.288 16 16 0 0 0-.764-.792q-.1-.099-.2-.19-.1-.096-.201-.186l-.203-.182a5 5 0 0 0-.208-.183q-.207-.181-.421-.354a19 19 0 0 0-.431-.346q-.108-.084-.22-.167a22 22 0 0 0-1.13-.812 22 22 0 0 0-.467-.31 1.7 1.7 0 0 0-.423-.196 1.5 1.5 0 0 0-.784-.023 1 1 0 0 0-.118.03 1 1 0 0 0-.112.04q-.111.04-.216.103a.6.6 0 0 0-.1.063.6.6 0 0 0-.103.075 1 1 0 0 0-.086.073 1 1 0 0 0-.087.087 1.3 1.3 0 0 0-.215.298 1.6 1.6 0 0 0-.148.359l-.04.14a1 1 0 0 1-.09.223 1 1 0 0 1-.136.175.91.91 0 0 1-1.235.03.94.94 0 0 1-.235-.36l-2.082-5.773v-.003a18 18 0 0 0-.497-1.376 28 28 0 0 0-.809-1.826s2.255 1.045 3.628 4.059c0 0 .166.007.469.038 2.716.3 16.417 2.756 19.294 22.125l.994 9.511H33.72z"/><path fill="#0A0B0D" d="M96 8h64v104H96z"/><path fill="#FFFFFF" fill-rule="evenodd" d="M128.002 41.662c10.455 0 18.938 8.17 18.938 18.236 0 10.068-8.483 18.237-18.938 18.237s-18.939-8.17-18.94-18.237c0-10.067 8.485-18.236 18.94-18.236m-3.48 12.074c-1.504 0-2.711 1.217-2.698 2.693v6.938a2.694 2.694 0 0 0 2.698 2.693h6.954a2.694 2.694 0 0 0 2.698-2.693V56.43a2.694 2.694 0 0 0-2.698-2.693z" clip-rule="evenodd"/><path fill="#0052FF" d="M96 0h64v16H96z"/><path fill="#0A0B0D" fill-rule="evenodd" d="M69.188 25H68.12v-2h1.067zm6.4 0h-2.134v-2h2.134zm6.4 0h-2.134v-2h2.134zm6.4 0h-2.134v-2h2.134zm6.4 0h-2.134v-2h2.134zm5.333 0h-1.067v-2h1.067zm56.953 12.216h-1.066v-2h1.066zm6.4 0h-2.133v-2h2.133zm6.4 0h-2.133v-2h2.133zm6.4 0h-2.133v-2h2.133zm6.4 0h-2.133v-2h2.133zm5.334 0h-1.067v-2h1.067zM157.007 97h-.999v-2h.999zM163 97h-1.998v-2H163zm5.992 0h-1.997v-2h1.997zm5.993 0h-1.997v-2h1.997zm5.993 0h-1.997v-2h1.997zm5.993 0h-1.997v-2h1.997zm5.993 0h-1.997v-2h1.997zm5.993 0h-1.998v-2h1.998zm4.994 0h-.999v-2h.999z" clip-rule="evenodd"/><path fill="#0052FF" d="M96 104h64v16H96z"/><path fill="#0A0B0D" d="M131 8.23a3 3 0 1 1-6 0 3 3 0 0 1 6 0M120 110h16v4h-16z"/><path fill="#5DE2F8" d="M24 3.273A3.273 3.273 0 0 1 27.273 0h41.454A3.273 3.273 0 0 1 72 3.273v41.454A3.273 3.273 0 0 1 68.727 48H27.273A3.273 3.273 0 0 1 24 44.727z"/><path fill="#FFFFFF" d="M58.895 20.182q.012-.27.013-.546c0-6.024-4.884-10.909-10.91-10.909-6.024 0-10.908 4.884-10.908 10.91q0 .273.013.545h-.013v19.09h21.818v-19.09z"/><path fill="#0A0B0D" d="M46.363 18a1.636 1.636 0 1 1-3.273 0 1.636 1.636 0 0 1 3.273 0m6.547 0a1.636 1.636 0 1 1-3.273 0 1.636 1.636 0 0 1 3.272 0"/><path fill="#0A0B0D" fill-rule="evenodd" d="M45.82 21.818a2.182 2.182 0 1 0 4.364 0z" clip-rule="evenodd"/><path fill="#5DE2F8" d="M41.453 34.91h4.364v4.363h-4.364zm8.727 0h4.363v4.363H50.18z"/><path fill="#FFD200" d="M184 12.667A4.667 4.667 0 0 1 188.667 8h46.666A4.667 4.667 0 0 1 240 12.667v46.666A4.667 4.667 0 0 1 235.333 64h-46.666A4.667 4.667 0 0 1 184 59.333z"/><path fill="#0052FF" d="M196.444 20.444h31.111v31.112h-31.111z"/><path fill="#3CC28A" d="m196.444 20.444-3.111-3.11v37.333l3.111-3.111zm31.111 31.112 3.112 3.11V17.334l-3.112 3.111z"/><path fill="#0A0B0F" d="m227.555 20.444 3.112-3.11h-37.334l3.111 3.11zm-31.111 31.112-3.111 3.11h37.334l-3.112-3.11z"/><path fill="#FFFFFF" d="m211.999 42.222-5.444-5.444-10.111 8.883v5.895h31.111V39.11l-6.222-6.222z"/><path fill="#FFD200" d="M208.889 28.611a4.278 4.278 0 1 1-8.555 0 4.278 4.278 0 0 1 8.555 0"/><path fill="#3CC28A" d="M200 83.429A3.43 3.43 0 0 1 203.429 80h25.142A3.43 3.43 0 0 1 232 83.429v25.142a3.43 3.43 0 0 1-3.429 3.429h-25.142a3.43 3.43 0 0 1-3.429-3.429z"/><path fill="#0A0B0D" d="M204.572 98.286h4.572v9.143h-4.572zm9.141-4.572h4.571v13.715h-4.571zm9.144-4.571h4.572v18.286h-4.572z"/></svg>