<svg xmlns="http://www.w3.org/2000/svg" fill="none" viewBox="0 0 240 120"><path fill="#CED2DB" d="M60 0C44.536 0 32 12.536 32 28c0 12.016 7.569 22.264 18.2 26.237l119.401 47.76 20.797-51.994L70.996 2.242A27.9 27.9 0 0 0 60 0"/><path fill="#CED2DB" d="M0 72h240v48H0z"/><path fill="#3CC28A" d="M0 72h240v32H0z"/><path fill="#0052FF" fill-rule="evenodd" d="m181.6 72-11.999 29.997L94.607 72z" clip-rule="evenodd"/><path fill="#FFD200" d="M152 76c0-15.464 12.536-28 28-28s28 12.536 28 28-12.536 28-28 28-28-12.536-28-28"/><path fill="#0A0B0D" fill-rule="evenodd" d="M180 58.219c-9.82 0-17.781 7.96-17.781 17.781S170.18 93.781 180 93.781s17.781-7.96 17.781-17.781S189.82 58.219 180 58.219m0-2c-10.925 0-19.781 8.856-19.781 19.781S169.075 95.781 180 95.781 199.781 86.925 199.781 76 190.925 56.219 180 56.219" clip-rule="evenodd"/><path fill="#0A0B0E" fill-rule="evenodd" d="m182.526 79.338-10.198 3.8.699 1.874 13.448-5.01-5.01-13.45-1.874.7 3.835 10.293L59.584 27.278l-.752 1.853z" clip-rule="evenodd"/></svg>