<svg xmlns="http://www.w3.org/2000/svg" fill="none" viewBox="0 0 240 121"><path fill="#0052FF" d="M76 60.2a12 12 0 1 1-24 0 12 12 0 0 1 24 0Z"/><path fill="#5DE2F8" d="M14 46.2a14 14 0 1 0 0 28h49.95a14 14 0 0 1 .05-28H14Z"/><path fill="#CED2DB" fill-rule="evenodd" d="M168 60.2a48 48 0 0 1-94.83 10.6 13.97 13.97 0 0 0 0-21.16A48.02 48.02 0 0 1 168 60.2Zm-24 0a24 24 0 1 1-48 0 24 24 0 0 1 48 0Z" clip-rule="evenodd"/><path fill="#FFFFFF" d="M63 61.2v5h2v-5h5v-2h-5v-5h-2v5h-5v2h5Z"/><path fill="#0A0B0D" fill-rule="evenodd" d="M160 59.7h7.26v1H160v-1Z" clip-rule="evenodd"/><path fill="#00D17F" d="M44 120.2a12 12 0 0 0-12-12 12 12 0 0 0 12-12 12 12 0 0 0 12 12 12 12 0 0 0-12 12Zm156-8a8 8 0 0 0-8-8 8 8 0 0 0 8-8 8 8 0 0 0 8 8 8 8 0 0 0-8 8Z"/><path fill="#CED2DB" d="M219.8 80.41a20 20 0 0 0 0-40h-48v40h48Z"/><path fill="#5DE2F8" d="M172.19 23.83c0-6.52-5.3-11.8-11.82-11.8 6.53 0 11.82-5.3 11.82-11.82 0 6.52 5.29 11.81 11.81 11.81a11.81 11.81 0 0 0-11.81 11.81ZM124 28.2a4 4 0 0 0-8 0v31.94a3.98 3.98 0 0 0 1.17 2.9l24 24a4 4 0 0 0 5.66-5.66L124 58.55V28.21Z"/><path fill="#101114" d="m117.91 3.53-2.12-2.12L117.21 0l4.12 4.12-4.04 5.2-1.58-1.23 2.27-2.9-.07-1.66Zm-3.97 2.01c-1.34.15-2.68.35-4 .6l-.37-1.97c1.37-.26 2.76-.46 4.15-.62l.22 2Zm-7.96 1.48a55 55 0 0 0-3.87 1.18l-.65-1.9c1.32-.45 2.66-.85 4.01-1.21l.51 1.93Zm-7.65 2.64c-1.24.53-2.46 1.1-3.66 1.73l-.92-1.78a57 57 0 0 1 3.8-1.8l.78 1.85Zm-8.89 4.82c-.56.37-1.11.76-1.66 1.15l-1.17-1.62a57 57 0 0 1 3.49-2.33l1.05 1.7c-.58.36-1.14.72-1.7 1.1Zm-4.84 3.64a54.93 54.93 0 0 0-3 2.72l-1.4-1.43c1-.98 2.03-1.92 3.1-2.82l1.3 1.53Zm-5.8 5.65a55 55 0 0 0-2.57 3.13l-1.6-1.2c.86-1.12 1.74-2.2 2.67-3.25l1.5 1.32Zm-4.9 6.44a55.01 55.01 0 0 0-2.08 3.48l-1.75-.97a54.27 54.27 0 0 1 2.15-3.6l1.68 1.1Zm-4.71 8.95c-.26.62-.5 1.25-.74 1.88l-1.88-.7a56.8 56.8 0 0 1 1.6-3.87l1.83.83c-.28.62-.55 1.23-.81 1.86Zm-2.45 7.32c.14-.54.28-1.06.44-1.6l-1.92-.55a56.8 56.8 0 0 0-.52 1.9c.68.03 1.35.12 2 .25Zm2.19 34.15c-.5-1.25-.95-2.52-1.36-3.81l-1.9.6c.42 1.34.89 2.65 1.4 3.95l1.86-.74Zm3.55 7.27a55.01 55.01 0 0 1-1.9-3.57l-1.8.88a56.92 56.92 0 0 0 1.97 3.7l1.73-1Zm4.58 6.67a54.91 54.91 0 0 1-2.41-3.25L73 92.45a57 57 0 0 0 2.5 3.37l1.56-1.25Zm4.05 4.53c-.48-.48-.95-.97-1.4-1.46L78.24 99a56.33 56.33 0 0 0 2.97 2.97l1.36-1.47c-.5-.46-.98-.92-1.46-1.4Zm7.78 6.46a54.98 54.98 0 0 1-3.26-2.41l-1.25 1.56c1.1.88 2.22 1.7 3.37 2.5l1.14-1.65Zm6.99 4.07a55.3 55.3 0 0 1-3.57-1.9l-1.01 1.72c1.2.7 2.44 1.37 3.7 1.98l.88-1.8Zm7.52 3.01a49.4 49.4 0 0 1-3.82-1.36l-.74 1.85c1.3.52 2.61 1 3.95 1.42l.6-1.91Zm5.87 1.51c-.66-.13-1.32-.28-1.98-.43l-.46 1.95a58.84 58.84 0 0 0 4.12.81l.31-1.97c-.66-.1-1.33-.23-1.99-.36Zm10.06 1.05a49.9 49.9 0 0 1-4.05-.2l-.17 2c1.4.12 2.8.19 4.2.2l.02-2Zm8.07-.5a55.5 55.5 0 0 1-4.03.4l.13 2c1.4-.09 2.79-.22 4.17-.41l-.27-1.98Zm4-.68c1.31-.28 2.62-.61 3.92-.99l.56 1.92c-1.35.4-2.7.73-4.07 1.02l-.42-1.95Zm9.65-3c-.63.26-1.25.5-1.89.74l.7 1.88a56.87 56.87 0 0 0 3.88-1.61l-.84-1.82c-.6.28-1.23.55-1.85.81Zm5.47-2.62a55.06 55.06 0 0 0 3.47-2.1l1.1 1.69a56.49 56.49 0 0 1-3.6 2.15l-.97-1.75Zm9.92-6.99c-1.02.9-2.06 1.75-3.13 2.57l1.2 1.59c1.12-.85 2.2-1.73 3.25-2.66l-1.32-1.5Zm2.93-2.79c.94-.97 1.85-1.97 2.72-3l1.53 1.29c-.9 1.07-1.85 2.1-2.82 3.1l-1.43-1.4Zm6.36-7.86c-.37.57-.76 1.12-1.15 1.67l1.62 1.17a59.08 59.08 0 0 0 2.33-3.5l-1.7-1.04c-.36.57-.72 1.14-1.1 1.7Zm3.09-5.22c.63-1.2 1.2-2.42 1.73-3.66l1.84.78a56.35 56.35 0 0 1-1.8 3.8l-1.77-.92Z"/><path fill="#0052FF" fill-rule="evenodd" d="m133.9 79.77 7.27 7.27a4 4 0 0 0 5.66-5.66l-7.27-7.26a24.12 24.12 0 0 1-5.66 5.65Z" clip-rule="evenodd"/><path fill="#FFD200" d="M192 60.2a20 20 0 1 1-40 0 20 20 0 0 1 40 0Z"/><path fill="#0052FF" fill-rule="evenodd" d="M164.32 41.74a20 20 0 0 0 0 36.94A47.85 47.85 0 0 0 168 60.2c0-6.55-1.31-12.79-3.68-18.47Z" clip-rule="evenodd"/><path fill="#0A0B0D" fill-rule="evenodd" d="M172 73.2a13 13 0 1 0 0-26 13 13 0 0 0 0 26Zm0 2a15 15 0 1 0 0-30 15 15 0 0 0 0 30Z" clip-rule="evenodd"/><path fill="#FEFFFF" d="M172 70.2a10 10 0 0 0-10-10 10 10 0 0 0 10-10 10 10 0 0 0 10 10 10 10 0 0 0-10 10Z"/><path fill="#0052FF" fill-rule="evenodd" d="M124 36.54a24.16 24.16 0 0 0-8 0V28.2a4 4 0 0 1 8 0v8.33Z" clip-rule="evenodd"/></svg>