<svg xmlns="http://www.w3.org/2000/svg" fill="none" viewBox="0 0 240 120"><path fill="#00D17F" d="M208 80V16H32v64h176Z"/><path fill="#CED2DB" d="M156 8v104h8v8H76v-8h8V8a8 8 0 0 1 8-8h56a8 8 0 0 1 8 8Z"/><path fill="#FEFFFF" d="M148 72V24H92v48h56Z"/><path fill="#0052FF" fill-rule="evenodd" d="M156 80H84V16h72v64Zm-8-52.429V72h-27.967l-.07-23.988L92 68.442V24h27.966l.071 24.113L148 27.57Z" clip-rule="evenodd"/><path fill="#FFD200" fill-rule="evenodd" d="M105.858 62.142a20 20 0 1 0 28.285-28.286 20 20 0 0 0-28.285 28.286Z" clip-rule="evenodd"/><path fill="#101114" d="M103.848 59.79A19.997 19.997 0 0 0 120.045 68l-.042-20-16.155 11.79Z"/><path fill="#0052FF" d="M140 48a20.002 20.002 0 0 0-20-20v20h20Z"/><path fill="#00D17F" d="M140 48a20.002 20.002 0 0 1-20 20V48h20Z"/><path fill="#101114" d="M136.155 36.21A19.999 19.999 0 0 0 119.957 28l.042 20 16.156-11.79Z"/><path fill="#101114" fill-rule="evenodd" d="M164 113H76v-2h88v2Z" clip-rule="evenodd"/><path fill="#101114" d="m173.259 27.544-6.05-4.355-1.168 1.622 6.049 4.356a7 7 0 0 1 2.91 5.68V62h-8a1 1 0 0 1-1-1v-7h-2v7a3 3 0 0 0 3 3h8v28a3 3 0 0 1-3 3h-16v2h16a5 5 0 0 0 5-5V34.848a9 9 0 0 0-3.741-7.304Z"/><path fill="#0052FF" d="M166 40a2 2 0 0 0-2 2v12a2 2 0 0 0 2 2h6v6a2 2 0 0 0 2 2h4a2 2 0 0 0 2-2V42a2 2 0 0 0-2-2h-12Z"/><path fill="#0A0B0D" d="M172 42a2 2 0 0 1 2-2h4a2 2 0 0 1 2 2v4a2 2 0 0 1-2 2h-4a2 2 0 0 1-2-2v-4Z"/></svg>