<svg xmlns="http://www.w3.org/2000/svg" fill="none" viewBox="0 0 240 120"><g clip-path="url(#a)"><path fill="#E66020" d="M240 0h-8v8h8zm0 112h-8v8h8z"/><path fill="#0052FF" d="M176 16H68v88h108z"/><path fill="#0A0B0D" d="M120.8 104c24.3 0 44-19.7 44-44s-19.7-44-44-44-44 19.7-44 44 19.7 44 44 44"/><path fill="#0052FF" d="M129.6 60c0 24.3 19.7 44 44 44s44-19.7 44-44-19.699-44-44-44-44 19.7-44 44"/><path fill="#E66020" d="M129.6 60c0 24.3 19.7 44 44 44s44-19.7 44-44-19.699-44-44-44-44 19.7-44 44"/><path fill="#0052FF" d="M68 104c24.3 0 44-19.7 44-44S92.3 16 68 16 24 35.7 24 60s19.7 44 44 44"/><path fill="#FFFFFF" d="M68 24.8c19.4 0 35.2 15.8 35.2 35.2S87.4 95.2 68 95.2 32.8 79.4 32.8 60 48.6 24.8 68 24.8"/><path fill="#8E76FF" d="M98.2 60c0-16.7-13.5-30.2-30.2-30.2S37.8 43.3 37.8 60 51.3 90.2 68 90.2 98.2 76.7 98.2 60"/><path fill="#FFFFFF" d="M67.1 38.3v16l13.2 6.1z" opacity=".62"/><path fill="#FFFFFF" d="M67.1 38.3 53.9 60.4l13.2-6.1z"/><path fill="#FFFFFF" d="M67.1 70.8v10.9l13.2-18.8z" opacity=".62"/><path fill="#FFFFFF" d="M67.1 81.7V70.8l-13.2-7.9zm0-13.4 13.2-7.9-13.2-6.1z"/><path fill="#FFFFFF" d="m53.9 60.4 13.2 7.9V54.4z" opacity=".62"/><path fill="#FFFFFF" d="M147.2 24.8c10.7 8 17.6 20.8 17.6 35.2s-6.9 27.2-17.6 35.2c-10.7-8-17.6-20.8-17.6-35.2s6.9-27.2 17.6-35.2"/><path fill="#E66020" d="M8 0H0v8h8zm0 112H0v8h8z"/></g><defs><clipPath id="a"><path fill="#FFFFFF" d="M0 0h240v120H0z"/></clipPath></defs></svg>