<svg xmlns="http://www.w3.org/2000/svg" fill="none" viewBox="0 0 240 120"><path fill="#CED2DB" d="M240 42.659v34.903h-30.022a91.5 91.5 0 0 0 1.658-17.446h-8.727a83.3 83.3 0 0 1-1.833 17.446H0V42.659h30.01a92.7 92.7 0 0 0-1.646 17.457h8.727c0-5.945.616-11.785 1.827-17.457z"/><path fill="#0A0B0E" d="m174.578 84.945-.993-.453c.153-.327.3-.66.442-.987l.998.436c-.147.338-.294.671-.453 1.01zm1.293-3.043-1.015-.398q.198-.5.387-1.01l1.026.382q-.189.516-.393 1.031zm-111.928-.47c-.13-.343-.261-.686-.381-1.03l1.025-.37c.12.337.25.675.376 1.014zm113.051-2.639-1.036-.343q.171-.507.327-1.031l1.042.322c-.109.349-.218.703-.338 1.047zM62.852 78.32c-.114-.35-.218-.698-.327-1.053l1.047-.316q.157.515.322 1.03l-1.036.333zm115.091-2.689-1.052-.283q.14-.524.272-1.048l1.058.268q-.13.531-.278 1.063m-116.012-.485q-.138-.531-.268-1.07l1.064-.25q.123.523.262 1.047zm116.781-2.733-1.069-.223c.077-.355.148-.704.213-1.063l1.069.207q-.105.54-.218 1.08zm-117.523-.485q-.108-.54-.208-1.08l1.075-.196c.066.355.13.709.207 1.058l-1.069.218zM179.3 69.162l-1.08-.163c.055-.355.104-.715.153-1.07l1.08.148q-.075.549-.158 1.09zm-118.68-.49q-.081-.542-.147-1.091l1.08-.137q.066.539.148 1.07zm119.09-2.787-1.086-.104q.051-.54.093-1.08l1.085.087q-.04.548-.098 1.097zm-119.477-.491q-.047-.549-.087-1.096l1.085-.077q.04.541.088 1.075zM179.94 62.59l-1.091-.044q.023-.54.038-1.08l1.091.028c-.011.365-.022.736-.038 1.101zM60.032 62.1q-.016-.549-.027-1.096l1.091-.022q.01.54.027 1.08zm118.866-2.798c0-.36-.011-.72-.022-1.08l1.091-.032q.015.547.022 1.096l-1.091.01zm-117.802-.48-1.09-.022q.008-.554.032-1.101l1.09.043-.032 1.086zm117.676-2.754q-.032-.54-.081-1.08l1.085-.092q.05.547.082 1.096l-1.091.07zm-117.529-.485-1.085-.082q.042-.547.093-1.096l1.085.098q-.05.54-.093 1.08m117.229-2.738c-.043-.36-.092-.714-.141-1.074l1.08-.153q.075.541.141 1.09l-1.08.132zm-116.896-.49-1.08-.142c.05-.366.098-.731.153-1.091l1.08.158q-.082.532-.148 1.074zm116.416-2.717-.196-1.063 1.069-.207q.105.54.202 1.08zm-115.914-.49-1.075-.202c.066-.36.137-.725.213-1.085l1.07.218q-.11.531-.208 1.063zm115.26-2.689a67 67 0 0 0-.257-1.053l1.059-.267q.139.531.261 1.07zM62.76 45.974l-1.058-.257q.132-.538.272-1.069l1.053.278q-.138.525-.267 1.048m113.749-2.65c-.104-.344-.208-.693-.317-1.032l1.042-.327c.109.35.218.704.322 1.053l-1.047.31zm-112.893-.48-1.042-.317c.11-.355.218-.703.333-1.053l1.036.339q-.165.515-.322 1.03zm111.889-2.602q-.181-.507-.371-1.014l1.02-.382q.197.514.377 1.036l-1.026.365zm-110.863-.474-1.026-.377q.19-.515.387-1.03l1.02.392q-.194.507-.382 1.014m109.69-2.542q-.204-.498-.425-.987l.998-.442c.147.333.295.671.431 1.01l-1.009.42zm-108.496-.469-1.004-.43c.148-.339.295-.671.448-1.01l.992.448c-.147.327-.294.66-.436.987zm1.364-2.945-.977-.485q.247-.491.502-.982l.971.502q-.255.482-.49.965zm1.522-2.863-.95-.54q.272-.481.551-.954l.939.556q-.279.466-.54.933zm1.68-2.776-.917-.589q.295-.464.606-.921l.905.605q-.301.449-.594.905m1.827-2.677-.884-.639q.32-.448.655-.889l.872.655q-.325.433-.643.867z"/><path fill="#0A0B0D" d="M55.092 42.55h-8.728a7.23 7.23 0 0 1 4.364 4.362 7.23 7.23 0 0 1 4.364-4.363"/><path fill="#0052FF" d="M46.364 42.549a7.23 7.23 0 0 0 4.364-4.363 7.23 7.23 0 0 0 4.363 4.363z"/><path fill="#0A0B0D" d="M185.455 77.451h8.727a7.23 7.23 0 0 1-4.363-4.363 7.23 7.23 0 0 1-4.364 4.363"/><path fill="#0052FF" d="M194.182 77.451a7.23 7.23 0 0 0-4.363 4.363 7.23 7.23 0 0 0-4.364-4.363z"/><path fill="#FFFFFF" d="m158.787 19.666-4.009-4.009.775-.774 3.234 3.24 6.867-6.861.775.769z"/><path fill="#0A0B0E" d="m140.864 8.17-.387-1.042 3.818-1.402-1.408-3.817 1.042-.382 1.789 4.854zM96.071 118.468l-1.789-4.854 4.855-1.789.381 1.042-3.812 1.407 1.407 3.812z"/><path fill="#0A0B0E" d="m73.418 23.952-.878-.682C84.005 8.486 101.307 0 120 0c8.814 0 17.307 1.865 25.238 5.552l-.469 1.009c-7.784-3.616-16.118-5.448-24.775-5.448-18.349 0-35.329 8.327-46.582 22.845zm112.293 94.292-.818-.725q.361-.41.714-.818l.824.714q-.359.416-.726.823zm2.138-2.503-.84-.693c.229-.278.458-.562.682-.84l.851.682q-.342.426-.693.851m2.046-2.58-.868-.66c.218-.289.437-.578.649-.867l.879.649q-.327.444-.66.878m1.947-2.656-.889-.627c.207-.294.414-.594.622-.889l.9.616c-.208.3-.415.606-.628.9zm1.849-2.727-.916-.594c.196-.305.392-.605.583-.911l.922.584a80 80 0 0 1-.595.927zm1.745-2.797-.938-.562q.28-.467.551-.932l.944.545zm1.637-2.863-.955-.524c.175-.316.344-.638.518-.954l.966.512c-.175.322-.344.644-.524.966zm1.527-2.923-.976-.486q.243-.484.48-.976l.981.474q-.238.498-.485.988m1.418-2.978-.993-.447c.148-.333.295-.66.442-.993l.998.436q-.219.507-.447 1.004m1.304-3.027-1.009-.414c.136-.333.272-.671.403-1.004l1.015.398zm1.189-3.07-1.026-.376c.126-.339.246-.682.366-1.02l1.031.36c-.12.343-.246.692-.371 1.036m1.069-3.114-1.036-.338q.164-.514.327-1.036l1.042.321q-.162.524-.333 1.047zm.955-3.152-1.053-.295q.148-.523.289-1.047l1.053.284q-.14.533-.289 1.058m.834-3.185-1.058-.257q.13-.524.245-1.058l1.064.246q-.122.538-.251 1.069m.715-3.218-1.069-.212q.106-.533.207-1.064l1.069.202q-.1.54-.207 1.08zm.589-3.24-1.075-.174q.089-.532.169-1.074l1.08.158q-.08.547-.169 1.085zm.469-3.26-1.08-.137q.066-.54.125-1.08l1.086.12c-.044.366-.082.726-.131 1.091zm.343-3.272-1.085-.093q.048-.54.087-1.08l1.086.082q-.04.547-.088 1.096zm.224-3.289-1.091-.055.049-1.085 1.091.038q-.016.547-.049 1.102m.104-3.294-1.091-.016c0-.36.005-.726.005-1.086h1.091c0 .366 0 .737-.005 1.102m-24.377 58.031c-.245.262-.496.524-.741.786l.081.076h1.342c.038-.038.077-.082.115-.12zM33.273 60h-1.091c0-.365 0-.736.005-1.102l1.091.017c0 .36-.005.725-.005 1.085m.06-3.261-1.091-.038q.015-.551.049-1.102l1.09.055zm.18-3.25-1.086-.082q.04-.549.087-1.096l1.086.092q-.048.538-.087 1.086m.3-3.245-1.086-.12c.044-.366.082-.731.131-1.096l1.08.136q-.067.54-.125 1.08m.425-3.229-1.08-.163q.084-.547.17-1.086l1.074.175q-.089.532-.17 1.074zm.545-3.212-1.069-.202q.099-.54.213-1.08l1.07.219q-.11.532-.208 1.063zm.666-3.19-1.064-.24q.122-.539.251-1.07l1.058.257q-.13.526-.25 1.058zm.785-3.158-1.052-.283q.14-.534.289-1.058l1.053.294q-.15.524-.29 1.047m.906-3.125-1.042-.322c.11-.349.218-.698.333-1.047l1.036.339q-.164.514-.327 1.036zm1.02-3.092-1.031-.36c.12-.343.245-.692.37-1.036l1.026.376c-.125.338-.245.682-.365 1.02m1.14-3.049-1.015-.398c.137-.338.273-.681.41-1.02l1.008.415q-.205.5-.403 1.009zm1.249-3.004-.998-.437c.147-.332.294-.67.447-1.003l.993.447q-.222.492-.442.993m1.364-2.956-.982-.475c.158-.327.322-.66.485-.987l.977.486q-.245.484-.48.976m1.472-2.901-.965-.513c.174-.322.343-.644.523-.965l.955.523c-.175.316-.344.633-.518.954zm1.582-2.842-.944-.545.557-.95.933.563q-.28.465-.551.932zm1.686-2.781-.922-.584c.196-.31.392-.616.594-.927l.917.595q-.297.451-.584.91zm1.789-2.716-.9-.616q.309-.45.627-.9l.889.627c-.207.295-.414.595-.622.889zm1.892-2.645-.878-.649c.218-.294.436-.583.66-.878l.867.66-.654.867zM52.32 5.77l-.851-.682q.342-.425.693-.85l.84.692c-.23.278-.459.562-.682.84m2.084-2.498-.824-.714q.359-.416.725-.824l.813.726q-.361.406-.715.812M57.267.011h-1.39c-.034.033-.06.065-.094.098l.797.742c.245-.262.496-.524.742-.785z"/><path fill="#0A0B0D" d="M207.273 64.363a4.363 4.363 0 1 0 0-8.726 4.364 4.364 0 1 0 0 8.726m-174.545 0a4.363 4.363 0 1 0 0-8.727 4.363 4.363 0 0 0 0 8.727"/><path fill="#0A0B0E" d="M202.909 60a4.36 4.36 0 0 1 4.364-4.363A4.36 4.36 0 0 1 211.636 60M37.091 60a4.36 4.36 0 0 1-4.363 4.363A4.36 4.36 0 0 1 28.364 60"/><path fill="#FFFFFF" d="M207.273 61.091a1.09 1.09 0 1 0 0-2.18 1.09 1.09 0 0 0 0 2.18m-174.546 0a1.09 1.09 0 1 0 0-2.182 1.09 1.09 0 0 0 0 2.182"/><path fill="#0A0B0E" d="M120 120c-8.815 0-17.307-1.865-25.238-5.552l.469-1.009c7.783 3.616 16.118 5.448 24.774 5.448a58.82 58.82 0 0 0 54.273-35.966l1.026.431a59.925 59.925 0 0 1-55.293 36.642z"/><path fill="#0A0B0E" d="m127.667 78.829-2.117 3.298 2.117 3.191v4.377l-2.117 3.336 2.117 3.042v4.909l-7.334 9.665-2.836-3.739-.883-1.165-3.614-4.761V59.989h14.667z"/><path fill="#CED2DB" d="M120.488 25.995c12.788 0 23.153 10.363 23.153 23.15s-10.365 23.15-23.153 23.15c-12.789 0-23.155-10.364-23.155-23.15 0-12.787 10.366-23.15 23.155-23.15m.12 4.515c-10.321 0-18.686 8.363-18.686 18.682s8.365 18.682 18.686 18.682 18.685-8.363 18.685-18.682c0-10.32-8.364-18.682-18.685-18.682"/><path fill="#CED2DB" fill-rule="evenodd" d="M96.333 49.325c0-13.254 10.744-23.996 24-23.996s24 10.742 24 23.996-10.743 23.995-24 23.995-24-10.742-24-23.995m5.589-.133c0-10.32 8.365-18.682 18.686-18.682s18.686 8.363 18.686 18.682c0 10.32-8.365 18.682-18.686 18.682s-18.686-8.363-18.686-18.682" clip-rule="evenodd"/><path fill="#FFFFFE" d="M120.333 19.996c16.201 0 29.333 13.129 29.333 29.329s-13.132 29.328-29.333 29.328S91.001 65.525 91 49.325s13.132-29.33 29.333-29.33m0 5.333c-13.256 0-24 10.742-24 23.996s10.744 23.995 24 23.995 24-10.741 24-23.995-10.743-23.996-24-23.996m.275 5.18c10.321 0 18.685 8.364 18.685 18.683 0 10.32-8.364 18.683-18.685 18.683s-18.686-8.364-18.686-18.683 8.365-18.682 18.686-18.682m0 5.334c-7.377 0-13.353 5.976-13.353 13.35 0 7.372 5.976 13.348 13.353 13.348s13.352-5.976 13.352-13.349-5.976-13.35-13.352-13.35"/><path fill="#0052FF" d="M113 66.653c2.379 2.505 5.026 3.904 7.818 3.905 2.418 0 4.728-1.049 6.849-2.956v10.61c-2.2 1.583-4.54 2.438-6.969 2.438-2.7 0-5.289-1.057-7.698-2.996z"/><path fill="#0A0B0D" d="M126.604 65.132a17 17 0 0 1-5.906 1.05c-2.075 0-4.064-.37-5.904-1.05v-5.44h11.81z"/><path fill="#FFFFFE" d="M118.204 70.295v28.303l-.712-.933v-27.37z"/><path fill="#E66020" d="M173.333 17.33c0-5.89-4.775-10.664-10.666-10.664S152 11.44 152 17.33s4.776 10.665 10.667 10.665 10.666-4.775 10.666-10.665"/><path fill="#0A0B0E" d="M158.477 23.955a.63.63 0 0 1-.532-.288.646.646 0 0 1 .186-.879l1.412-.913a5.7 5.7 0 0 0 2.612-4.793.64.64 0 0 1 .635-.634c.346 0 .634.287.634.634a6.95 6.95 0 0 1-3.196 5.858l-1.413.913a.63.63 0 0 1-.346.102z"/><path fill="#0A0B0E" d="M163.289 24.113a.63.63 0 0 1-.448-1.074 8.5 8.5 0 0 0 1.953-3.22 8.2 8.2 0 0 0 .415-2.604c0-1.302-.956-2.41-2.165-2.528a2.38 2.38 0 0 0-1.86.617.63.63 0 0 1-.897-.042.63.63 0 0 1 .043-.896 3.72 3.72 0 0 1 2.841-.947c1.86.178 3.314 1.843 3.314 3.787a9.4 9.4 0 0 1-.482 2.993 9.7 9.7 0 0 1-2.249 3.711.64.64 0 0 1-.456.195zm5.216-5.021a.64.64 0 0 1-.634-.634v-1.573c0-.93-.253-1.843-.735-2.629a.63.63 0 0 1 .211-.87.633.633 0 0 1 .871.21c.6.99.922 2.131.922 3.29v1.572a.64.64 0 0 1-.635.634"/><path fill="#0A0B0E" d="M157.074 18.256a.64.64 0 0 1-.635-.634v-.736c0-3.5 2.85-6.349 6.351-6.349 1.057 0 2.105.262 3.027.77a.637.637 0 0 1 .253.862.64.64 0 0 1-.862.253 5 5 0 0 0-2.427-.617 5.086 5.086 0 0 0-5.082 5.081v.736a.64.64 0 0 1-.634.634z"/><path fill="#0A0B0E" d="M156.836 21.139a.64.64 0 0 1-.591-.398.633.633 0 0 1 .355-.82c2.443-.963 2.511-2.764 2.511-2.84 0-.347.288-.626.634-.626s.626.28.626.634c0 .11-.034 2.714-3.315 4.008a.6.6 0 0 1-.236.042zm1.641 2.816a.63.63 0 0 1-.532-.288.646.646 0 0 1 .186-.879l1.412-.913a5.7 5.7 0 0 0 2.612-4.793.64.64 0 0 1 .635-.634c.346 0 .634.287.634.634a6.95 6.95 0 0 1-3.196 5.858l-1.413.913a.63.63 0 0 1-.346.102z"/><path fill="#0A0B0E" d="M163.289 24.113a.63.63 0 0 1-.448-1.074 8.5 8.5 0 0 0 1.953-3.22 8.2 8.2 0 0 0 .415-2.604c0-1.302-.956-2.41-2.165-2.528a2.38 2.38 0 0 0-1.86.617.63.63 0 0 1-.897-.042.63.63 0 0 1 .043-.896 3.72 3.72 0 0 1 2.841-.947c1.86.178 3.314 1.843 3.314 3.787a9.4 9.4 0 0 1-.482 2.993 9.7 9.7 0 0 1-2.249 3.711.64.64 0 0 1-.456.195zm5.216-5.021a.64.64 0 0 1-.634-.634v-1.573c0-.93-.253-1.843-.735-2.629a.63.63 0 0 1 .211-.87.633.633 0 0 1 .871.21c.6.99.922 2.131.922 3.29v1.572a.64.64 0 0 1-.635.634"/><path fill="#0A0B0E" d="M157.074 18.256a.64.64 0 0 1-.635-.634v-.736c0-3.5 2.85-6.349 6.351-6.349 1.057 0 2.105.262 3.027.77a.637.637 0 0 1 .253.862.64.64 0 0 1-.862.253 5 5 0 0 0-2.427-.617 5.086 5.086 0 0 0-5.082 5.081v.736a.64.64 0 0 1-.634.634z"/><path fill="#0A0B0E" d="M156.836 21.139a.64.64 0 0 1-.591-.398.633.633 0 0 1 .355-.82c2.443-.963 2.511-2.764 2.511-2.84 0-.347.288-.626.634-.626s.626.28.626.634c0 .11-.034 2.714-3.315 4.008a.6.6 0 0 1-.236.042z"/><path fill="#E66020" d="M74.667 89.317C68.773 89.317 64 94.09 64 99.982s4.773 10.665 10.667 10.665c5.893 0 10.666-4.773 10.666-10.665S80.56 89.317 74.667 89.317"/><path fill="#FFFFFF" d="M69.992 98.15h1.635v-1.164a3.05 3.05 0 0 1 3.04-3.04 3.05 3.05 0 0 1 3.04 3.04v1.164h1.636v7.012h-9.342V98.15zm6.311-1.164c0-.898-.738-1.635-1.635-1.635-.898 0-1.636.737-1.636 1.635v1.164h3.271z"/><path fill="#0A0B0D" d="M120.333 70.654c11.782 0 21.334-9.55 21.334-21.33s-9.552-21.33-21.334-21.33S99 37.545 99 49.325s9.551 21.33 21.333 21.33"/><path fill="#0052FF" d="M120.332 67.104c9.817 0 17.776-7.957 17.776-17.773s-7.959-17.773-17.776-17.773-17.776 7.957-17.776 17.773 7.958 17.773 17.776 17.773"/><path fill="#FFFFFF" d="M120.485 38.467a4.157 4.157 0 1 0 0 8.316 4.157 4.157 0 0 0 4.158-4.158 4.157 4.157 0 0 0-4.158-4.158"/></svg>