<svg xmlns="http://www.w3.org/2000/svg" fill="none" viewBox="0 0 240 121"><path fill="#0A0B0D" fill-rule="evenodd" d="M121 59.5v45h-2v-45h2Z" clip-rule="evenodd"/><path fill="#FFD200" d="M240 0H120v60h120V0Z"/><path fill="#CED2DB" d="M88 80H0v40h88V80Z"/><path fill="#0052FF" d="M120 0v60h60c-.15-33.15-26.95-60-60-60Z"/><path fill="#CED2DB" d="M60 60h60V0C86.85.15 60 26.95 60 60Z"/><path fill="#0052FF" d="M68 60c0-11.05 8.95-20 20-20s20 8.95 20 20H68Z"/><path fill="#FFD200" d="M108 60c0 11.05-8.95 20-20 20s-20-8.95-20-20h40Z"/><path fill="#0052FF" d="M88 120.011c-11.03 0-19.976-8.945-20.011-20.011-.035-11.066 8.945-19.976 20.01-20.011v40.022Z"/><path fill="#00D17F" d="M88 79.989c11.031 0 19.976 8.945 20.011 20.011.036 11.066-8.945 19.976-20.01 20.011V79.989Z"/><path fill="#0052FF" d="M166.142 85.858c7.814 7.813 7.814 20.471 0 28.284-7.813 7.814-20.471 7.814-28.284 0l28.284-28.284Z"/><path fill="#FFD200" d="M137.858 114.142c-7.814-7.813-7.814-20.47 0-28.284 7.813-7.814 20.471-7.814 28.284 0l-28.284 28.284Z"/><path fill="#0A0B0D" d="M132 60c0-11.05 8.95-20 20-20s20 8.95 20 20h-40Z"/><path fill="#00D17F" d="M172 60c0 11.05-8.95 20-20 20s-20-8.95-20-20h40Z"/><path fill="#CED2DB" d="M124 96h-8v24h8V96Z"/><path fill="#0A0B0D" fill-rule="evenodd" d="M88 47c-7.18 0-13 5.82-13 13s5.82 13 13 13 13-5.82 13-13-5.82-13-13-13ZM73 60c0-8.284 6.716-15 15-15 8.284 0 15 6.716 15 15 0 8.284-6.716 15-15 15-8.284 0-15-6.716-15-15Zm79-13c-7.18 0-13 5.82-13 13s5.82 13 13 13 13-5.82 13-13-5.82-13-13-13Zm-15 13c0-8.284 6.716-15 15-15 8.284 0 15 6.716 15 15 0 8.284-6.716 15-15 15-8.284 0-15-6.716-15-15ZM88 87c-7.18 0-13 5.82-13 13s5.82 13 13 13 13-5.82 13-13-5.82-13-13-13Zm-15 13c0-8.284 6.716-15 15-15 8.284 0 15 6.716 15 15 0 8.284-6.716 15-15 15-8.284 0-15-6.716-15-15Zm79-13c-7.18 0-13 5.82-13 13s5.82 13 13 13 13-5.82 13-13-5.82-13-13-13Zm-15 13c0-8.284 6.716-15 15-15 8.284 0 15 6.716 15 15 0 8.284-6.716 15-15 15-8.284 0-15-6.716-15-15Z" clip-rule="evenodd"/><path fill="#0A0B0D" fill-rule="evenodd" d="M86.684 17.666C95.47 6.399 107.444 0 120 0c12.557 0 24.532 6.4 33.316 17.666C162.095 28.926 167 44.156 167 60h-2c0-15.452-4.788-30.236-13.262-41.104C143.269 8.033 131.843 2 120 2S96.731 8.033 88.262 18.896C79.788 29.764 75 44.548 75 60h-2c0-15.843 4.905-31.074 13.684-42.334Z" clip-rule="evenodd"/><path fill="#0A0B0D" fill-rule="evenodd" d="M112.307 4.898C114.548 1.854 117.147 0 120 0c2.853 0 5.452 1.854 7.693 4.898 2.257 3.064 4.286 7.502 5.991 13.09C137.097 29.176 139 44.287 139 60h-2c0-15.581-1.89-30.484-5.229-41.427-1.67-5.477-3.618-9.678-5.688-12.489C123.998 3.254 121.921 2 120 2c-1.921 0-3.998 1.254-6.083 4.084-2.07 2.81-4.018 7.012-5.688 12.489C104.89 29.516 103 44.419 103 60h-2c0-15.714 1.903-30.825 5.316-42.011 1.705-5.589 3.734-10.027 5.991-13.09Z" clip-rule="evenodd"/></svg>