<svg xmlns="http://www.w3.org/2000/svg" fill="none" viewBox="0 0 240 120"><path fill="#CED2DB" d="M16 32.09V40h40v8H32v8H8v8.09h16V72H0v8h48v8h156.24V32.11H32zM8 40H0v7.91h8zm232-7.94c-2.11 0-4.14.84-5.63 2.34a8.04 8.04 0 0 0-2.33 5.66c0-2.12-.84-4.16-2.33-5.66a7.94 7.94 0 0 0-5.63-2.34c2.11 0 4.14-.84 5.63-2.34a8.04 8.04 0 0 0 2.33-5.66c0 2.12.84 4.16 2.33 5.66a7.94 7.94 0 0 0 5.63 2.34"/><path fill="#FFD200" d="M169.36 32h-37.11l8.14-32H90.92L75.65 64.62h30.93L93.49 120z"/><path fill="#0052FF" d="m121.08 88 48.18-55.89H83.33l-7.68 32.51h30.93L101.05 88z"/><path fill="#FFD200" d="M204 88c15.464 0 28-12.536 28-28s-12.536-28-28-28-28 12.536-28 28 12.536 28 28 28"/><path fill="#0A0B0D" fill-rule="evenodd" d="M204 38.68c-11.775 0-21.32 9.545-21.32 21.32s9.545 21.32 21.32 21.32c11.774 0 21.32-9.545 21.32-21.32S215.774 38.68 204 38.68M180.68 60c0-12.88 10.44-23.32 23.32-23.32 12.879 0 23.32 10.44 23.32 23.32S216.879 83.32 204 83.32c-12.88 0-23.32-10.44-23.32-23.32" clip-rule="evenodd"/><path fill="#0A0B0D" d="M196.199 48.6h3.5v-4.17h2.47v4.17h2.77v-4.17h2.5v4.2c3.58.32 6.05 2.51 6.05 5.83 0 2.51-1.44 4.2-3.66 4.86v.03c2.66.69 4.37 2.57 4.37 5.45 0 3.82-2.79 6.17-6.73 6.39v3.65h-2.5v-3.68h-2.77v3.65h-2.5v-3.65h-3.5zm13.6 6.09c0-1.87-1.3-3.05-3.55-3.05h-6.4v6.41h6.4c2.25 0 3.55-1.18 3.55-3.05v-.32zm.67 9.7c0-2.14-1.49-3.42-3.96-3.42h-6.68v7.11h6.7c2.5 0 3.93-1.39 3.93-3.37v-.32z"/></svg>