<svg xmlns="http://www.w3.org/2000/svg" fill="none" viewBox="0 0 240 120"><path fill="#CED2DB" d="M72 120h96V84c0-26.51-21.49-48-48-48S72 57.49 72 84z"/><path fill="#0052FF" d="M152 48.062c0-11.223 0-16.834 2.184-21.12a20.04 20.04 0 0 1 8.757-8.758C167.228 16 172.839 16 184.061 16h23.877c11.223 0 16.834 0 21.121 2.184a20.04 20.04 0 0 1 8.757 8.757C240 31.228 240 36.84 240 48.061V71.94c0 11.222 0 16.833-2.184 21.12a20.04 20.04 0 0 1-8.757 8.757C224.772 104 219.161 104 207.939 104h-23.877c-11.223 0-16.834 0-21.121-2.184a20.04 20.04 0 0 1-8.757-8.757C152 88.772 152 83.16 152 71.939z"/><path fill="#FFFFFF" fill-rule="evenodd" d="M196 31.052c16.569 0 30 12.96 30 28.948s-13.431 28.948-30 28.948S166 75.988 166 60s13.431-28.948 30-28.948m-5.163 19.885c-1.615 0-2.423 0-3.04.29a2.8 2.8 0 0 0-1.26 1.169c-.314.571-.314 1.32-.314 2.817v9.574c0 1.497 0 2.246.314 2.817.277.503.717.912 1.26 1.168.617.292 1.425.291 3.04.291h10.327c1.615 0 2.422 0 3.039-.29a2.8 2.8 0 0 0 1.261-1.168c.314-.572.314-1.321.314-2.818v-9.574c0-1.497 0-2.246-.314-2.818a2.8 2.8 0 0 0-1.261-1.168c-.617-.29-1.424-.29-3.039-.29z" clip-rule="evenodd"/><path fill="#0052FF" d="M0 48.062c0-11.223 0-16.834 2.184-21.12a20.04 20.04 0 0 1 8.757-8.758C15.228 16 20.84 16 32.061 16h23.877c11.223 0 16.834 0 21.12 2.184a20.04 20.04 0 0 1 8.758 8.757C88 31.228 88 36.84 88 48.061V71.94c0 11.222 0 16.833-2.184 21.12a20.04 20.04 0 0 1-8.757 8.757C72.772 104 67.16 104 55.939 104H32.061c-11.223 0-16.834 0-21.12-2.184a20.04 20.04 0 0 1-8.758-8.757C0 88.772 0 83.16 0 71.939z"/><path fill="#FFFFFF" d="M43.557 75.75c-8.441 0-15.278-6.824-15.278-15.25s6.837-15.25 15.278-15.25c7.563 0 13.84 5.503 15.05 12.708H74C72.701 42.302 59.574 30 43.557 30 26.687 30 13 43.661 13 60.5S26.687 91 43.557 91C59.574 91 72.701 78.698 74 63.042H58.607c-1.21 7.205-7.487 12.708-15.05 12.708"/><path fill="#CED2DB" d="M96 0h48v60c0 13.255-10.745 24-24 24S96 73.255 96 60z"/><path fill="#0052FF" d="M144 42.422V60c0 13.255-10.745 24-24 24S96 73.255 96 60V42.422A47.8 47.8 0 0 1 120 36a47.8 47.8 0 0 1 24 6.422"/><path fill="#FFFFFF" d="M136 60c0 8.837-7.163 16-16 16s-16-7.163-16-16 7.163-16 16-16 16 7.163 16 16"/><path fill="#0A0B0D" fill-rule="evenodd" d="M110 60a5 5 0 0 1 5-5h4v2h-4a3 3 0 1 0 0 6h4v2h-4a5 5 0 0 1-5-5m20 0a5 5 0 0 0-5-5h-4v2h4a3 3 0 1 1 0 6h-4v2h4a5 5 0 0 0 5-5" clip-rule="evenodd"/><path fill="#0A0B0D" fill-rule="evenodd" d="M125 61h-10v-2h10z" clip-rule="evenodd"/></svg>