<svg xmlns="http://www.w3.org/2000/svg" fill="none" viewBox="0 0 240 120"><path fill="#0A0B0F" d="M208 0H32v8h176z"/><path fill="#CED2DB" d="M208 8H32v93h176z"/><path fill="#0052FF" d="M192 8H47v93h145.5V8z"/><path fill="#CED2DB" d="M192.5 101H47v19h145.5z"/><path fill="#FFFFFF" d="M80 32H32v16h48z"/><path fill="#0A0B0D" fill-rule="evenodd" d="m46 39.29-.38-1.14-3.01 1V36h-1.2v3.15l-3.01-1-.38 1.14 3.03 1.01-1.88 2.6.98.71 1.86-2.59 1.87 2.59.98-.71-1.88-2.6 3.03-1.01zm14 0-.38-1.14-3.01 1V36h-1.2v3.15l-3.01-1-.38 1.14 3.03 1.01-1.88 2.6.98.71 1.86-2.59 1.87 2.59.98-.71-1.88-2.6 3.03-1.01zm14 0-.38-1.14-3.01 1V36h-1.2v3.15l-3.01-1-.38 1.14 3.03 1.01-1.88 2.6.98.71 1.86-2.59 1.87 2.59.98-.71-1.88-2.6 3.03-1.01z" clip-rule="evenodd"/><path fill="#0052FF" d="M32 32H16v16h16z"/><path fill="#CED2DB" d="M16 32H0v16h16z"/><path fill="#FFFFFF" d="M25 36h-2v8h2z"/><path fill="#FFFFFF" d="M28 39h-8v2h8z"/><path fill="#CED2DB" fill-rule="evenodd" d="M240 90.5h-59.25l-28.25-33H240z" clip-rule="evenodd"/><path fill="#0A0B0D" fill-rule="evenodd" d="M208 57.5v33h-27.25l4.75-4.75-33-28.25z" clip-rule="evenodd"/><path fill="#0052FF" d="M208 57.5h-15.5v33H208z"/><path fill="#FFFFFF" d="M185.5 85.75 173.75 74l11.75-3.5-33-13 13 33 3.75-12 11.5 12z"/><path fill="#3CC28A" d="M120 84c15.464 0 28-12.536 28-28s-12.536-28-28-28-28 12.536-28 28 12.536 28 28 28"/><path fill="#FFFFFF" d="M120 30c14.36 0 26 11.64 26 26s-11.64 26-26 26-26-11.64-26-26 11.64-26 26-26m0-4c-16.54 0-30 13.46-30 30s13.46 30 30 30 30-13.46 30-30-13.46-30-30-30"/><path fill="#0A0B0D" d="M120 56a6 6 0 1 0 0-12 6 6 0 0 0 0 12m12 12c0-6.63-5.37-12-12-12s-12 5.37-12 12z"/></svg>