<svg xmlns="http://www.w3.org/2000/svg" fill="none" viewBox="0 0 240 121"><path fill="#CED2DB" fill-rule="evenodd" d="M72.462 42.08h126.203a4.665 4.665 0 0 1 4.665 4.664v60.645a4.665 4.665 0 0 1-4.665 4.665H72.462a4.665 4.665 0 0 1-4.665-4.665V46.744a4.665 4.665 0 0 1 4.665-4.665Z" clip-rule="evenodd"/><path fill="#CED2DB" d="M203.335 88H208V64h-4.665v24Z"/><path fill="#FFD200" d="M139.203 17.393 52.445 44.748A4.665 4.665 0 0 0 49.4 50.6l18.236 57.838a4.665 4.665 0 0 0 5.852 3.046l86.758-27.354a4.665 4.665 0 0 0 3.046-5.852l-18.236-57.839a4.665 4.665 0 0 0-5.852-3.046Z"/><path fill="#00D17F" d="M107.586.894 33.907 54.248a4.665 4.665 0 0 0-1.042 6.514l35.57 49.119a4.665 4.665 0 0 0 6.514 1.043l73.678-53.354a4.664 4.664 0 0 0 1.042-6.515L114.1 1.936a4.665 4.665 0 0 0-6.514-1.042Z"/><path fill="#0052FF" fill-rule="evenodd" d="M203.334 75.997V64h-19.447a12.2 12.2 0 0 0-4.635.914 12.098 12.098 0 0 0-3.926 2.603 11.93 11.93 0 0 0-2.617 3.892 11.833 11.833 0 0 0-.908 4.588h23.885v.03l-23.885-.024v.072c0 1.566.312 3.117.92 4.563a11.898 11.898 0 0 0 2.62 3.87 12.086 12.086 0 0 0 3.921 2.584c1.466.6 3.037.908 4.625.908h19.447V75.997Z" clip-rule="evenodd"/><path fill="#0052FF" d="M127.807 20.987 52.584 44.71a4.666 4.666 0 0 0-3.05 5.831l18.234 57.84a4.662 4.662 0 0 0 5.832 3.05l1.073-.338.21-.14 73.678-53.356a4.661 4.661 0 0 0 1.043-6.514l-21.797-30.095Z"/><path fill="#0052FF" d="M163.401 78.239 152 42.085H72.462a4.665 4.665 0 0 0-4.665 4.665v60.645c0 .852.236 1.688.682 2.414a4.67 4.67 0 0 0 5.12 1.645l86.758-27.355a4.656 4.656 0 0 0 2.737-2.299 4.667 4.667 0 0 0 .307-3.561Z"/><path fill="#FFD200" d="M184.673 82.998a6.998 6.998 0 1 0 0-13.996 6.998 6.998 0 0 0 0 13.996Z"/><path fill="#0A0B0D" d="m74.882 110.97 73.678-53.357a4.667 4.667 0 0 0 1.044-6.513l-6.537-9.02H72.462a4.665 4.665 0 0 0-4.665 4.664v60.645c0 .853.236 1.688.682 2.414a4.76 4.76 0 0 0 1.009.98c.373.262.781.47 1.213.618h.052c.21.064.421.117.636.157h.087c.194.031.388.051.584.059h.07c.212.001.424-.013.635-.041h.146c.219-.035.435-.083.647-.146l1.073-.338.25-.122Z"/><path fill="#FFFFFF" d="M73.844 107.925a2.333 2.333 0 1 0 0-4.666 2.333 2.333 0 0 0 0 4.666Z"/><path fill="#0A0B0D" fill-rule="evenodd" d="M68.867 105a7 7 0 1 0 0 14 7 7 0 0 0 0-14Zm-9 7a9 9 0 0 1 9-9 9 9 0 0 1 9 9 9 9 0 0 1-9 9 9 9 0 0 1-9-9Z" clip-rule="evenodd"/></svg>