<svg xmlns="http://www.w3.org/2000/svg" fill="none" viewBox="0 0 240 120"><path fill="#CED2DB" d="M32 80a8 8 0 0 1 8-8h160a8 8 0 0 1 0 16H40a8 8 0 0 1-8-8"/><path fill="#0052FF" d="M72 88c0-8.837 7.163-16 16-16h64c8.837 0 16 7.163 16 16z"/><path fill="#FFD200" d="M136 88c0 8.837-7.163 16-16 16s-16-7.163-16-16 7.163-16 16-16 16 7.163 16 16"/><path fill="#E13947" d="M160 24c0 8.837-7.163 16-16 16s-16-7.163-16-16 7.163-16 16-16 16 7.163 16 16"/><path fill="#CED2DB" d="M127.939 8.993q.06-.489.061-.993a8 8 0 1 0-15.939.993C98.228 12.523 88 25.067 88 40v48h64V40c0-14.933-10.228-27.476-24.061-31.007"/><path fill="#0A0B0D" fill-rule="evenodd" d="M134.229 11.33c9.941 4.943 16.947 14.904 17.703 26.569A15.9 15.9 0 0 1 144 40c-8.837 0-16-7.163-16-16 0-5.157 2.44-9.744 6.229-12.67M95 40.029C95 26.206 106.206 15 120.029 15v2C107.31 17 97 27.31 97 40.029V50h-2z" clip-rule="evenodd"/><path fill="#0052FF" d="M88 72h64v16H88z"/><path fill="#0A0B0D" fill-rule="evenodd" d="M144 65H96v-2h48zm-25 55v-12h2v12zm-22.335-10.08 8.485-8.485 1.415 1.414-8.486 8.486zm38.184-8.485 8.485 8.485-1.414 1.415-8.486-8.486z" clip-rule="evenodd"/></svg>