<svg xmlns="http://www.w3.org/2000/svg" fill="none" viewBox="0 0 240 120"><path fill="#CED2DB" d="M32 16h176v96H32V16Z"/><path fill="#0052FF" fill-rule="evenodd" d="M160 112H80V16h80v96Z" clip-rule="evenodd"/><path fill="#CED2DB" d="M160 112H80v8h80v-8Z"/><path fill="#0A0B0D" fill-rule="evenodd" d="M88 47h64v2H88v-2Zm0 8h64v2H88v-2Zm62 19H90v20h60V74Zm-62-2v24h64V72H88Z" clip-rule="evenodd"/><path fill="#0A0B0D" fill-rule="evenodd" d="M150 90H90v4h60v-4Zm-62-2v8h64v-8H88Zm0-25h64v2H88v-2Zm30-29H90v4h28v-4Zm-30-2v8h32v-8H88Z" clip-rule="evenodd"/><path fill="#CED2DB" fill-rule="evenodd" d="M120 0a8 8 0 0 1 8 8h24a8 8 0 0 1 8 8H80a8 8 0 0 1 8-8h24a8 8 0 0 1 8-8Zm0 12a4 4 0 1 0 0-8 4 4 0 0 0 0 8Z" clip-rule="evenodd"/><path fill="#00D17F" d="M120 120c13.255 0 24-10.745 24-24s-10.745-24-24-24-24 10.745-24 24 10.745 24 24 24Z"/><path fill="#FEFFFF" fill-rule="evenodd" d="M120 116c11.046 0 20-8.954 20-20s-8.954-20-20-20-20 8.954-20 20 8.954 20 20 20Zm24-20c0 13.255-10.745 24-24 24s-24-10.745-24-24 10.745-24 24-24 24 10.745 24 24Z" clip-rule="evenodd"/><path fill="#0A0B0D" fill-rule="evenodd" d="m133.211 89.478-16.542 16.542-8.458-8.459 1.414-1.414 7.044 7.044 15.128-15.127 1.414 1.414Z" clip-rule="evenodd"/></svg>