<svg xmlns="http://www.w3.org/2000/svg" fill="none" viewBox="0 0 240 120"><path fill="#5DE2F8" d="M200 16v104H40V16z"/><path fill="#0A0B0D" fill-rule="evenodd" d="M158 97h-58v-2h58zm0 8h-58v-2h58zm26-8h-19v-2h19zm0 8h-19v-2h19z" clip-rule="evenodd"/><path fill="#0052FF" d="M88 16v104H40V16zM40 0h160v16H40z"/><path fill="#0A0B0E" d="M40 0h48v16H40z"/><path fill="#FFFFFE" d="M52 8a2 2 0 1 1-4 0 2 2 0 0 1 4 0m24 0a2 2 0 1 1-4 0 2 2 0 0 1 4 0M64 8a2 2 0 1 1-4 0 2 2 0 0 1 4 0"/><path fill="#CED2DB" d="M0 0h40v8H0zm16 8h24v8H16zm184-8h40v8h-40zm0 8h16v8h-16z"/><path fill="#0A0B0D" fill-rule="evenodd" d="M74 58H50v-2h24zm-8 8H50v-2h16zm4 8H50v-2h20zm4 8H50v-2h24zm-12 8H50v-2h12z" clip-rule="evenodd"/><path fill="#FFFFFF" d="M61 40.418c-3.065 0-5.473-2.408-5.473-5.473s2.408-5.472 5.473-5.472c2.736 0 5.035 1.97 5.418 4.542H72C71.507 28.378 66.801 24 61 24c-6.02 0-11 4.925-11 11s4.925 11 11 11c5.801 0 10.507-4.378 11-10.015h-5.582c-.438 2.463-2.682 4.433-5.418 4.433"/><path fill="#0052FF" d="M240 72.002c-8.838 0-15.998-7.164-15.998-16.002 0 8.838-7.164 16.002-16.002 16.002 8.838 0 16.002 7.163 16.002 15.998 0-8.835 7.16-15.998 15.998-15.998"/><path fill="#5DE2F8" d="M0 96.002c8.838 0 15.998-7.164 15.998-16.002 0 8.838 7.164 16.002 16.002 16.002-8.838 0-16.002 7.163-16.002 15.998 0-8.835-7.16-15.998-15.998-15.998"/><path fill="#FFD200" d="M24 50.002c8.838 0 15.998-7.164 15.998-16.002 0 8.838 7.164 16.002 16.002 16.002-8.838 0-16.002 7.163-16.002 15.998 0-8.835-7.16-15.998-15.998-15.998"/><path fill="#0A0B0D" fill-rule="evenodd" d="m136.011 46.749 31.994 24.495 31.893-24.042 1.204 1.596-33.106 24.958-32.007-24.505-31.895 23.553-1.188-1.608z" clip-rule="evenodd"/><path fill="#FFD200" d="M200.002 64.004V32c8.833 0 16.002 7.161 16.002 16.008 0 8.835-7.169 15.996-16.002 15.996"/><path fill="#0052FF" d="M200.002 64.004V32C191.169 32 184 39.161 184 48.008c0 8.835 7.169 15.996 16.002 15.996"/><path fill="#FFFFFE" d="M208.008 48.007a8.002 8.002 0 1 1-16.004 0 8.002 8.002 0 0 1 16.004 0"/><path fill="#0052FF" d="M204.004 48.005a4 4 0 1 1-8 0 4 4 0 0 1 8 0"/><path fill="#0A0B0D" d="M40 66V34c.123 8.86 7.239 16.002 16 16.002-8.761 0-15.877 7.142-16 15.998"/></svg>