<svg xmlns="http://www.w3.org/2000/svg" fill="none" viewBox="0 0 240 120"><path fill="#FFD200" d="M148 0h-28v120h28c33.15 0 60-26.85 60-60S181.15 0 148 0Z"/><path fill="#CED2DB" d="M32 60C32 26.85 58.85 0 92 0h28v12H92c-26.52 0-48 21.48-48 48s21.48 48 48 48h28v12H92c-33.15 0-60-26.85-60-60Z"/><path fill="#0A0B0D" d="M120 12v62L88 60l32 48 32-48-32-48Z"/><path fill="#101114" d="M92 12v-1h28v2H92a48.36 48.36 0 0 0-28.98 10 47 47 0 0 0 4.58 77.17l-.8-8.07 1.99-.2 1.06 10.68-.18.02.03.14-10.44 2.46-.46-1.95 7.23-1.7a49 49 0 0 1-4.24-80.13A50.35 50.35 0 0 1 92 11l.01 1Z"/><path fill="#0A0B0D" d="m180.28 14.8-10.45 2.46.03.14-.18.02 1.06 10.68 2-.2-.81-8.07A47 47 0 0 1 147.99 107H120v2h28v-1l.01 1a49 49 0 0 0 25.49-90.55l7.23-1.7-.45-1.95Z"/><path fill="#CED2DB" d="M120 12v62L88 60l32-48Z"/><path fill="#0052FF" fill-rule="evenodd" d="M120 47.49V74l13.36-5.84L120 47.49Zm0-3.69 15.21 23.54 4.52-1.97L120 35.34v8.46Zm0-12.1 21.59 32.85L152 60l-32-48v19.7Zm-13.1 36.57-7.02-3.07L120 96.59V88.2l-13.1-19.94Zm13.1 16.3V74l-9.75-4.27L120 84.57Zm0 15.72V108L88 60l8.58 3.75L120 100.3Z" clip-rule="evenodd"/></svg>