<svg xmlns="http://www.w3.org/2000/svg" fill="none" viewBox="0 0 240 120"><path fill="#CED2DB" d="M240 32H0v68h100a20 20 0 1 1 40 0h100V32Z"/><path fill="#101114" fill-rule="evenodd" d="M120 118a18 18 0 1 0 0-36 18 18 0 0 0 0 36Zm0 2a20 20 0 1 0 0-40 20 20 0 0 0 0 40ZM55 88V16h2v72h-2Z" clip-rule="evenodd"/><path fill="#0052FF" d="M48 32h16v48H48V32Z"/><path fill="#101114" fill-rule="evenodd" d="M151 64V0h2v64h-2Z" clip-rule="evenodd"/><path fill="#0052FF" d="M144 32h16v24h-16V32Z"/><path fill="#101114" fill-rule="evenodd" d="M87 64V0h2v64h-2Z" clip-rule="evenodd"/><path fill="#0052FF" d="M80 32h16v24H80V32Z"/><path fill="#101114" fill-rule="evenodd" d="M183 80V8h2v72h-2Z" clip-rule="evenodd"/><path fill="#0052FF" d="M176 32h16v40h-16V32Z"/><path fill="#101114" fill-rule="evenodd" d="M119 72V16h2v56h-2Z" clip-rule="evenodd"/><path fill="#0052FF" d="M112 32h16v32h-16V32Z"/><path fill="#FF3344" d="M48 24h16v8H48v-8Z"/><path fill="#00D17F" d="M144 8h16v24h-16V8ZM80 8h16v24H80V8Zm96 8h16v16h-16V16Z"/><path fill="#FF3344" d="M112 24h16v8h-16v-8Z"/><path fill="#FFFFFF" d="M126 100a6 6 0 1 1-12 0 6 6 0 0 1 12 0Z"/><path fill="#0052FF" d="M117 86h6v3.41c.89.26 1.73.62 2.52 1.07L128 88l4.24 4.24-2.55 2.55c.38.7.68 1.44.9 2.21H134v6h-3.41a10.6 10.6 0 0 1-.9 2.2l2.35 2.36-4.24 4.24-2.28-2.28c-.78.45-1.63.81-2.52 1.07V114h-6v-3.41a10.6 10.6 0 0 1-2.2-.9l-2.36 2.35-4.24-4.24 2.28-2.28a11.5 11.5 0 0 1-1.07-2.52H106v-6h3.41c.26-.89.62-1.73 1.07-2.52L108 92l4.24-4.24 2.55 2.55c.7-.38 1.44-.68 2.21-.9V86Z"/><path fill="#CED2DB" d="M134 100h-28v3h3.41c.26.89.62 1.73 1.07 2.52L108 108l4.24 4.24 2.55-2.55c.7.38 1.44.68 2.21.9V114h6v-3.41c.89-.26 1.73-.62 2.52-1.07L128 112l4.24-4.24-2.55-2.55c.38-.7.68-1.44.9-2.21H134v-3Z"/><path fill="#FEFFFF" d="M126 100a6 6 0 1 1-12 0 6 6 0 0 1 12 0Z"/></svg>