<svg xmlns="http://www.w3.org/2000/svg" fill="none" viewBox="0 0 240 120"><path fill="#CED2DB" d="M20.17 0A115.63 115.63 0 0 0 4 51.48h8V60h94a14 14 0 0 0 14-14V36H18.43A103.76 103.76 0 0 1 34.48 0H20.17Zm199.05 120A115.7 115.7 0 0 0 236 63.52h-8V60h-94a14 14 0 0 0-14 14v10h101.2a103.8 103.8 0 0 1-16.36 36h14.38Z"/><path fill="#101114" d="M148.6 26.56a43.98 43.98 0 0 0-8.28-5.59 43.7 43.7 0 0 0-7.08-2.95v.01a43.82 43.82 0 0 0-18.99-1.65c-1.28.17-2.54.39-3.78.66v.01c-1.24.28-2.48.6-3.7 1v-.02a46.8 46.8 0 0 0-3.61 1.31v.01a43.87 43.87 0 0 0-5.33 2.63A43.75 43.75 0 0 0 82.9 36.37a43.95 43.95 0 0 0-1.93 3.32l1.78.93a42.4 42.4 0 0 1 3.94-6.17 41.7 41.7 0 0 1 4.94-5.4 41.76 41.76 0 0 1 5.8-4.46h.01l1.26-.78a42.21 42.21 0 0 1 19.48-5.76 42.8 42.8 0 0 1 3.66 0 41.83 41.83 0 0 1 7.26.96 42 42 0 0 1 16.48 7.68c.97.75 1.9 1.53 2.8 2.36l1.36-1.48-1.13-1ZM110.9 101a41.99 41.99 0 0 1-16.47-7.68c-.97-.75-1.9-1.53-2.8-2.36l-1.36 1.47a44.14 44.14 0 0 0 6.08 4.67 44.04 44.04 0 0 0 6.8 3.54v.01a43.82 43.82 0 0 0 22.59 2.96v.01c1.29-.17 2.55-.39 3.79-.66v-.01a44.4 44.4 0 0 0 3.7-1v.02a44.34 44.34 0 0 0 7.08-2.94h.01a44.23 44.23 0 0 0 16.79-15.4 43.88 43.88 0 0 0 1.93-3.31l-1.78-.93a42.47 42.47 0 0 1-3.94 6.17 42.3 42.3 0 0 1-2.35 2.8v.02a42.1 42.1 0 0 1-5.4 4.94 42.68 42.68 0 0 1-4.57 3.05 42.22 42.22 0 0 1-19.16 5.59 42.96 42.96 0 0 1-3.67 0 41.56 41.56 0 0 1-7.26-.96ZM87.56 89.72a44.24 44.24 0 0 1-2.47-2.94l1.59-1.22c.74.97 1.53 1.9 2.35 2.8l-1.47 1.36Zm-4.67-6.08a43.95 43.95 0 0 1-1.93-3.32l1.78-.93a41.97 41.97 0 0 0 1.83 3.17l-1.68 1.08Zm-3.55-6.8a43.65 43.65 0 0 1-1.31-3.6l1.9-.6c.37 1.16.79 2.31 1.26 3.43l-1.85.77Zm-2.31-7.31a43.8 43.8 0 0 1-.66-3.78l1.99-.26c.15 1.22.37 2.42.63 3.6l-1.96.44Zm-.99-7.61a44.68 44.68 0 0 1 0-3.84l2 .08a42.8 42.8 0 0 0 0 3.67l-2 .09Zm.33-7.67c.17-1.27.39-2.54.66-3.78l1.96.43a41.85 41.85 0 0 0-.63 3.61l-1.99-.26Zm1.66-7.48c.38-1.23.82-2.43 1.3-3.61l1.86.77a41.62 41.62 0 0 0-1.26 3.44l-1.9-.6Zm74.41-16.49c.87.94 1.69 1.92 2.47 2.94l-1.59 1.22a42.3 42.3 0 0 0-2.35-2.81l1.47-1.35Zm4.67 6.08a43.88 43.88 0 0 1 1.93 3.32l-1.78.93a41.84 41.84 0 0 0-1.83-3.17l1.68-1.08Zm3.55 6.8c.49 1.18.93 2.38 1.31 3.6l-1.9.6a41.77 41.77 0 0 0-1.26-3.43l1.85-.77Zm2.31 7.31c.27 1.24.5 2.5.66 3.78l-1.98.26a41.95 41.95 0 0 0-.64-3.6l1.96-.44Zm.99 7.61a45.35 45.35 0 0 1 0 3.84l-2-.09a42.97 42.97 0 0 0 0-3.67l2-.08Zm-.33 7.67a43.95 43.95 0 0 1-.66 3.78l-1.96-.44c.26-1.18.48-2.38.64-3.6l1.98.26Zm-2.97 11.09c.49-1.18.93-2.38 1.31-3.6l-1.9-.6a41.8 41.8 0 0 1-1.26 3.43l1.85.77Z"/><circle cx="24" cy="24" r="24" fill="#FFD200" transform="matrix(1 0 0 -1 96 84)"/><path fill="#FEFFFF" d="M135 60a15 15 0 0 1-15-15 15 15 0 0 1-15 15 15 15 0 0 1 15 15 15 15 0 0 1 15-15Z"/><circle cx="12" cy="12" r="12" fill="#00D17F" transform="matrix(0 -1 -1 0 24 60)"/><circle cx="12" cy="12" r="12" fill="#0052FF" transform="matrix(0 1 1 0 216 60)"/><path stroke="#0A0B0D" stroke-width="2" d="M12 54V42m-6 6h12"/><path fill="#0052FF" d="M120 36v10a14 14 0 0 1-14 14H96a24 24 0 0 1 24-24Zm0 48V74a14 14 0 0 1 14-14h10a24 24 0 0 1-24 24Z"/><circle cx="2" cy="2" r="2" fill="#FFFFFF" transform="matrix(1 0 0 -1 226 74)"/><path fill="#5DE2F8" d="M146 36a10 10 0 1 0 0-20 10 10 0 0 0 0 20Z"/><path fill="#FFFFFF" d="M148 24h-4v4h4v-4Z"/><path fill="#5DE2F8" d="M56 108a12 12 0 1 0 0-24 12 12 0 0 0 0 24Z"/><path fill="#101114" d="m196 59.8-2 .01a79.02 79.02 0 0 0-.11-3.89l2-.1a77.25 77.25 0 0 1 .11 3.98Zm-.43-7.95a76.14 76.14 0 0 0-.53-3.94l-1.97.31c.2 1.27.37 2.55.5 3.84l2-.21ZM194.3 44l-1.95.41a74.33 74.33 0 0 0-.9-3.76l1.92-.52c.35 1.27.66 2.56.94 3.86Zm-2.06-7.69-1.9.63c-.4-1.23-.84-2.45-1.3-3.65l1.86-.72a79 79 0 0 1 1.34 3.74Zm-2.87-7.41-1.83.81a73.58 73.58 0 0 0-1.68-3.49l1.78-.91c.6 1.18 1.18 2.37 1.73 3.59Zm-3.64-7.08-1.73 1a73.76 73.76 0 0 0-2.03-3.3l1.67-1.09a83.2 83.2 0 0 1 2.09 3.39Zm-4.36-6.66-1.61 1.18a74.42 74.42 0 0 0-2.37-3.06l1.55-1.27a76.68 76.68 0 0 1 2.43 3.15ZM176.35 9l-1.49 1.34c-.86-.96-1.76-1.9-2.67-2.8l1.4-1.42c.95.93 1.87 1.9 2.76 2.88Zm-5.65-5.61-1.33 1.49c-.96-.87-1.95-1.7-2.95-2.51L167.67.8a68.6 68.6 0 0 1 3.03 2.58ZM163.83 120h2.83l1.33-1.06-1.27-1.55a89 89 0 0 1-3.06 2.37l.17.24ZM72.01 1.06 73.34 0h2.83l.17.24a74.3 74.3 0 0 0-3.06 2.37L72 1.06ZM69 3.65l1.34 1.49c-.96.86-1.9 1.76-2.8 2.67l-1.42-1.4c.93-.95 1.9-1.86 2.88-2.76ZM63.39 9.3l1.49 1.33c-.87.96-1.7 1.95-2.51 2.95l-1.56-1.25a68.6 68.6 0 0 1 2.58-3.03Zm-4.99 6.19 1.6 1.17a74.25 74.25 0 0 0-2.19 3.2l-1.67-1.09a76.32 76.32 0 0 1 2.24-3.28Zm-4.33 6.68a75.86 75.86 0 0 0-1.9 3.5l1.8.9c.58-1.15 1.2-2.28 1.84-3.4l-1.74-1Zm-3.6 7.1 1.83.8a73.52 73.52 0 0 0-1.47 3.59l-1.87-.71c.47-1.25.98-2.47 1.51-3.68Zm-2.83 7.43 1.9.61a73.4 73.4 0 0 0-1.09 3.72l-1.93-.51c.34-1.29.71-2.56 1.12-3.82Zm-2.04 7.69 1.96.4c-.26 1.27-.5 2.54-.7 3.82l-1.97-.3c.2-1.32.44-2.63.71-3.92Zm-1.21 7.86 1.99.2a74.3 74.3 0 0 0-.3 3.87l-1.99-.1c.07-1.33.16-2.66.3-3.97ZM44 60.2a77.43 77.43 0 0 0 .12 3.98l2-.1a75.53 75.53 0 0 1-.12-3.89h-2Zm.43 7.95 2-.21c.13 1.29.3 2.57.5 3.84l-1.97.31c-.2-1.3-.38-2.61-.53-3.94ZM45.7 76l1.95-.41c.27 1.26.57 2.52.9 3.76l-1.92.52a75.56 75.56 0 0 1-.94-3.86Zm2.06 7.69 1.9-.63c.26.77.52 1.54.8 2.3a12 12 0 0 0-1.73 1.1 75.5 75.5 0 0 1-.97-2.77Zm12.64 23.48.66.82 1.55-1.27-.38-.46c-.58.35-1.19.66-1.83.9Zm3.26 3.83 1.48-1.34c.86.96 1.76 1.9 2.67 2.8l-1.4 1.42a76.5 76.5 0 0 1-2.75-2.88Zm5.64 5.61c.98.89 2 1.75 3.03 2.58l1.25-1.56c-1-.8-1.99-1.64-2.95-2.5l-1.33 1.48Zm101.7-.27-1.34-1.48a74.5 74.5 0 0 0 2.8-2.67l1.42 1.4a76.2 76.2 0 0 1-2.88 2.75Zm5.61-5.64-1.49-1.33c.87-.96 1.7-1.95 2.51-2.95l1.56 1.25a75.93 75.93 0 0 1-2.58 3.03Zm4.99-6.19-1.61-1.17a73.66 73.66 0 0 0 2.19-3.2l1.67 1.09a75.22 75.22 0 0 1-2.24 3.28Zm4.33-6.68-1.74-1a73.87 73.87 0 0 0 1.85-3.4l1.78.9a77.38 77.38 0 0 1-1.9 3.5Zm3.6-7.1-1.83-.8a73.42 73.42 0 0 0 1.47-3.59l1.87.72a76.05 76.05 0 0 1-1.51 3.67Zm2.83-7.43-1.9-.61c.4-1.23.76-2.47 1.09-3.72l1.93.51a75.4 75.4 0 0 1-1.12 3.82Zm2.04-7.69-1.96-.4c.26-1.27.5-2.54.7-3.82l1.97.3c-.2 1.32-.44 2.63-.71 3.92Zm1.21-7.86-1.99-.2c.13-1.28.23-2.57.3-3.87l1.99.1a76.31 76.31 0 0 1-.3 3.97Z"/><path stroke="#0A0B0D" stroke-width="2" d="M56 100v-8m-4 4h8"/><path fill="#FFD200" d="M228 16a8 8 0 0 1-8-8 8 8 0 0 1-8 8 8 8 0 0 1 8 8 8 8 0 0 1 8-8ZM24 84a4 4 0 0 0-4 4 4 4 0 0 0-4-4 4 4 0 0 0 4-4 4 4 0 0 0 4 4Z"/></svg>