<svg xmlns="http://www.w3.org/2000/svg" fill="none" viewBox="0 0 240 120"><path fill="#CED2DB" d="M240 0H0v20h240V0Zm0 100H0v20h240v-20Zm-148 0a40 40 0 1 0 0-80 40 40 0 0 0 0 80Z"/><path fill="#FFD200" d="M144 100a40 40 0 1 0 0-80 40 40 0 0 0 0 80Z"/><path stroke="#0A0B0D" stroke-miterlimit="10" stroke-width="2" d="M144 92a32 32 0 1 0 0-64 32 32 0 0 0 0 64Zm14.1-46.1-28.2 28.2m28.2 0-28.2-28.2M144 40v40m20-20h-40"/><path fill="#5DE2F8" d="M40 100a40 40 0 1 0 0-80 40 40 0 0 0 0 80Z"/><path fill="#0052FF" d="M66 29.6C74.6 37 80 47.8 80 60s-5.4 23-14 30.4C57.4 83 52 72.2 52 60s5.4-23 14-30.4Z"/><path fill="#FF3344" d="M212 90a28 28 0 1 0 0-56 28 28 0 0 0 0 56Z"/><path stroke="#0A0B0D" stroke-miterlimit="10" stroke-width="2" d="M8 60h92m-8.5-8.5L100 60l-8.5 8.5m130.4-16.4-19.8 19.8m19.8 0-19.8-19.8"/></svg>