<svg xmlns="http://www.w3.org/2000/svg" fill="none" viewBox="0 0 240 120"><path fill="#CED2DB" fill-rule="evenodd" d="M192 32h-39.254A26 26 0 0 0 154 24.004C154 13.193 147.405 3.923 138.016 0H192zM56 0h61.98a26.07 26.07 0 0 0-14.725 16H80V8H56zm46 24H88v8h15.254A26 26 0 0 1 102 24.004zm-86-8h32v16H0v-8h16zm8 24v8h24v-8zm120 24H56v8H8.5v8h51.005c4.757-6.087 12.167-10 20.49-10C94.362 70 105.999 81.64 106 96h38zM55.255 88H40v8h14c0-2.791.44-5.48 1.255-8" clip-rule="evenodd"/><path fill="#0052FF" d="M192 0c-8.837 0-16 7.163-16 16s7.163 16 16 16z"/><path fill="#3CC28A" d="M192 0c8.837 0 16 7.163 16 16s-7.163 16-16 16z"/><path fill="#FFFFFF" d="M205 15.999c-7.181 0-12.999 5.82-12.999 13.001 0-7.18-5.82-13.001-13.001-13.001 7.181 0 13.001-5.82 13.001-12.999 0 7.178 5.818 12.999 12.999 12.999"/><path fill="#5DE2F8" d="M240 80.006c0 5.82-1.56 11.299-4.281 16.002-5.534 9.568-15.883 15.992-27.713 15.992-11.842 0-22.18-6.435-27.725-15.992A31.9 31.9 0 0 1 176 80.007C176 62.328 190.323 48 207.994 48 225.677 48 240 62.328 240 80.006"/><path fill="#0052FF" d="M180.363 96.005C185.895 86.437 196.235 80 208.079 80c11.851 0 22.194 6.437 27.726 16.005l-.002.004C230.27 105.576 219.92 112 208.09 112c-11.841 0-22.18-6.435-27.724-15.992z"/><path fill="#0A0B0D" d="M207.637 77.818c5.824 0 10.546-4.721 10.546-10.545s-4.722-10.546-10.546-10.546-10.545 4.722-10.545 10.546 4.721 10.545 10.545 10.545"/><path fill="#5DE2F8" d="M152 24.004a23.9 23.9 0 0 1-3.211 12.002C144.639 43.182 136.877 48 128.004 48c-8.881 0-16.634-4.827-20.793-11.994A23.9 23.9 0 0 1 104 24.004C104 10.746 114.743 0 127.996 0 141.257 0 152 10.746 152 24.004"/><path fill="#0052FF" d="M107.273 36.004C111.422 28.828 119.177 24 128.06 24c8.889 0 16.646 4.828 20.795 12.004l-.001.002C144.703 43.182 136.941 48 128.069 48c-8.881 0-16.635-4.827-20.794-11.994z"/><path fill="#0A0B0D" d="M127.727 22.364a7.91 7.91 0 1 0-7.909-7.91 7.91 7.91 0 0 0 7.909 7.91"/><path fill="#5DE2F8" d="M104 96.004a23.9 23.9 0 0 1-3.211 12.002C96.639 115.182 88.877 120 80.004 120c-8.88 0-16.635-4.826-20.793-11.994A23.9 23.9 0 0 1 56 96.004C56 82.746 66.743 72 79.996 72 93.257 72 104 82.746 104 96.004"/><path fill="#0052FF" d="M59.273 108.003C63.422 100.828 71.177 96 80.06 96c8.889 0 16.646 4.828 20.795 12.004l-.001.002C96.704 115.182 88.941 120 80.069 120c-8.881 0-16.635-4.826-20.794-11.994z"/><path fill="#0A0B0D" d="M79.728 94.364a7.909 7.909 0 1 0 0-15.818 7.909 7.909 0 0 0 0 15.818"/><path fill="#3CC28A" d="M64 32c0 8.837-7.163 16-16 16s-16-7.163-16-16 7.163-16 16-16 16 7.163 16 16"/><path fill="#FFFFFF" fill-rule="evenodd" d="M47 42V22h2v20z" clip-rule="evenodd"/><path fill="#FFFFFF" fill-rule="evenodd" d="M58 33H38v-2h20z" clip-rule="evenodd"/><path fill="#0052FF" d="M144 64c-8.837 0-16 7.163-16 16s7.163 16 16 16z"/><path fill="#3CC28A" d="M144 64c8.837 0 16 7.163 16 16s-7.163 16-16 16z"/><path fill="#FFFFFF" fill-rule="evenodd" d="M144 91c6.075 0 11-4.925 11-11s-4.925-11-11-11-11 4.925-11 11 4.925 11 11 11m0 2c7.18 0 13-5.82 13-13s-5.82-13-13-13-13 5.82-13 13 5.82 13 13 13" clip-rule="evenodd"/></svg>