<svg xmlns="http://www.w3.org/2000/svg" fill="none" viewBox="0 0 240 121"><path fill="#CED2DB" d="M35.99 119.694h24v-45.36h-24zm48-.689h24v-63h-24zm48-1h24v-78h-24zM204 25.694h-24v93h24z"/><path fill="#0052FF" d="M156 40.005c0 6.65-5.35 12-12 12s-12-5.35-12-12z"/><path fill="#5DE2F8" d="M132 40.005c0-6.65 5.35-12 12-12s12 5.35 12 12z"/><path fill="#0052FF" d="M108 56.005c0 6.65-5.35 12-12 12s-12-5.35-12-12z"/><path fill="#5DE2F8" d="M84 56.005c0-6.65 5.35-12 12-12s12 5.35 12 12z"/><path fill="#5DE2F8" d="M84 56.005c0-6.65 5.35-12 12-12s12 5.35 12 12z"/><path fill="#0052FF" d="M60 74.005c0 6.65-5.35 12-12 12s-12-5.35-12-12z"/><path fill="#5DE2F8" d="M36 74.005c0-6.65 5.35-12 12-12s12 5.35 12 12z"/><path fill="#0A0B0E" d="M240 118.005H0v2h240z"/><path fill="#3CC28A" d="M0 104.005h240v-56z"/><path fill="#0052FF" d="M60 90.005v14H36v-8.4zm48-11.2v25.2H84v-19.6zm48-11.2v36.399h-24v-30.8zm48-11.201v47.6h-24v-42z"/><path fill="#CED2DB" d="M156 7.045v16c1.33-3.72 4.28-6.67 8-8a13.26 13.26 0 0 1-8-8m0 16a13.26 13.26 0 0 0-8-8c3.72-1.33 6.67-4.28 8-8zm64 12.96v8a6.6 6.6 0 0 1 4-4 6.6 6.6 0 0 1-4-4m0 8a6.6 6.6 0 0 0-4-4 6.6 6.6 0 0 0 4-4z"/><path fill="#0052FF" d="M192 40.004c3.96 0 7.82-1.17 11.11-3.37s5.85-5.32 7.37-8.98c1.51-3.65 1.91-7.68 1.14-11.56s-2.68-7.44-5.47-10.24c-2.8-2.8-6.36-4.7-10.24-5.47s-7.9-.38-11.56 1.14a20 20 0 0 0-8.98 7.37 19.99 19.99 0 0 0 2.49 25.25c3.75 3.75 8.84 5.86 14.14 5.86"/><path fill="#FFFFFF" d="M197.479 23.185c0-2.92-1.77-3.9-5.21-4.37-2.54-.37-3.03-.96-3.03-2.15s.86-1.92 2.5-1.92c1.5 0 2.36.52 2.71 1.72a.64.64 0 0 0 .61.46h1.31c.09 0 .17-.02.25-.05s.15-.09.2-.15c.06-.06.1-.14.12-.22a.5.5 0 0 0 .01-.25c-.42-1.9-1.7-3.05-3.71-3.41v-2.01c0-.17-.07-.32-.18-.44a.6.6 0 0 0-.44-.18h-1.25c-.17 0-.32.07-.44.18a.62.62 0 0 0-.18.44v1.94c-2.5.35-4.08 2-4.08 4.12 0 2.74 1.67 3.8 5.15 4.27 2.37.39 3.05.9 3.05 2.25s-1.15 2.25-2.76 2.25c-2.18 0-2.92-.95-3.16-2.19a.65.65 0 0 0-.62-.51h-1.42c-.09 0-.17.02-.25.05-.08.04-.15.09-.2.15-.06.06-.1.14-.12.22a.5.5 0 0 0-.01.25c.36 2.08 1.7 3.61 4.42 3.98v1.98c0 .17.07.32.18.44.12.12.28.18.44.18h1.25c.17 0 .32-.07.44-.18a.62.62 0 0 0 .18-.44v-1.98c2.58-.41 4.23-2.19 4.23-4.43z"/><path fill="#0052FF" d="M204 79.505v16c1.33-3.72 4.28-6.67 8-8a13.26 13.26 0 0 1-8-8"/><path fill="#0A0B0D" d="M204 95.505a13.26 13.26 0 0 0-8-8c3.72-1.33 6.67-4.28 8-8z"/><path fill="#FFFFFF" d="M187.711 31.955a12.52 12.52 0 0 1-8.22-11.74 12.52 12.52 0 0 1 8.22-11.74.9.9 0 0 0 .38-.32c.1-.14.15-.3.16-.47v-1.17c0-.1 0-.21-.05-.3a.6.6 0 0 0-.19-.24.57.57 0 0 0-.29-.11c-.1-.01-.21 0-.3.05-3.03.97-5.68 2.87-7.56 5.44a15 15 0 0 0-2.89 8.85c0 3.18 1.01 6.28 2.89 8.85s4.52 4.47 7.56 5.44c.09.04.2.06.3.05s.2-.05.29-.11a.62.62 0 0 0 .24-.54v-1.17c0-.17-.06-.33-.16-.47a1 1 0 0 0-.38-.32zm8.87-26.03a.6.6 0 0 0-.3-.05c-.1.01-.2.05-.29.11a.62.62 0 0 0-.24.54v1.17c0 .17.06.33.16.47s.23.25.38.32a12.52 12.52 0 0 1 8.22 11.74 12.52 12.52 0 0 1-8.22 11.74c-.16.06-.3.17-.39.31-.1.14-.15.31-.14.48v1.17c0 .1 0 .21.05.3.04.09.11.18.19.24s.18.1.29.11c.1.01.21 0 .3-.05 3.03-.97 5.68-2.87 7.56-5.44s2.89-5.67 2.89-8.85-1.01-6.28-2.89-8.85a15 15 0 0 0-7.56-5.44z"/><path fill="#0A0B0E" fill-rule="evenodd" d="M191 118.454v-73h2v73z" clip-rule="evenodd"/><path fill="#0A0B0E" fill-rule="evenodd" d="m192.001 40.005 4.71 8.71h-9.41l4.71-8.71z" clip-rule="evenodd"/></svg>