<svg xmlns="http://www.w3.org/2000/svg" fill="none" viewBox="0 0 240 120"><path fill="#CED2DB" d="M148 120a60 60 0 1 0-60-60h24a36 36 0 1 1 36 36H64v24h24a12 12 0 1 1 .04 0H112a12 12 0 1 1 .04 0H148Z"/><path fill="#0052FF" d="M172 56a24 24 0 1 0-48 0v40h48V56Z"/><path fill="#5DE2F8" d="M64 32.02H32V96h32V32.02Z"/><path fill="#00D17F" d="M64 32h84v64.04H64V32Z"/><path fill="#0052FF" d="M116 64.02a12 12 0 0 1 12-12h20v24h-20a12 12 0 0 1-12-12Z"/><path fill="#0A0B0D" fill-rule="evenodd" d="M128 70.02a6 6 0 1 0 0-12 6 6 0 0 0 0 12Zm0 2a8 8 0 1 0 0-16 8 8 0 0 0 0 16Z" clip-rule="evenodd"/><circle cx="64.02" cy="108" r="12" fill="#CED2DB"/><path fill="#0052FF" d="M64.02 120a12 12 0 1 0 0-24v24ZM88 120a12 12 0 1 0 0-24v24Zm24 0a12 12 0 1 0 0-24v24Z"/><path fill="#101114" fill-rule="evenodd" d="M148.79 106.87a46.78 46.78 0 0 0 46.78-46.78h2a48.78 48.78 0 0 1-48.78 48.78h-11.21v-2h11.2Z" clip-rule="evenodd"/><path fill="#101114" fill-rule="evenodd" d="m140.24 113.06-4.91-5.35 4.9-5.33 1.48 1.35-3.66 3.98 3.66 4-1.47 1.35Z" clip-rule="evenodd"/><circle cx="196" cy="60" r="12" fill="#FFFFFF"/><circle cx="148" cy="12" r="12" fill="#0052FF"/><path fill="#0052FF" d="M208 60a12 12 0 1 0-24 0h24Z"/><path fill="#101114" fill-rule="evenodd" d="M64.02 101a7 7 0 1 0 0 14 7 7 0 0 0 0-14Zm-9 7a9 9 0 1 1 18 0 9 9 0 0 1-18 0Zm33-7a7 7 0 1 0 0 14 7 7 0 0 0 0-14Zm-9 7a9 9 0 1 1 18 0 9 9 0 0 1-18 0Zm33-7a7 7 0 1 0 0 14 7 7 0 0 0 0-14Zm-9 7a9 9 0 1 1 18 0 9 9 0 0 1-18 0Z" clip-rule="evenodd"/><path fill="#0A0B0D" fill-rule="evenodd" d="M196 53a7 7 0 1 0 0 14 7 7 0 0 0 0-14Zm-9 7a9 9 0 1 1 18 0 9 9 0 0 1-18 0Z" clip-rule="evenodd"/><path fill="#CED2DB" d="M147.95 52.02h8v24h-8v-24Z"/></svg>