<svg xmlns="http://www.w3.org/2000/svg" fill="none" viewBox="0 0 240 120"><path fill="#CED2DB" d="M152 64H48v40h104V64Z"/><path fill="#CED2DB" d="M40 68a28 28 0 1 1 56 0v52H40V68Z"/><path fill="#0052FF" d="M144 68a28 28 0 1 1 56 0v52h-56V68Z"/><path fill="#CED2DB" d="M68 32a16 16 0 1 0 0-32 16 16 0 0 0 0 32Z"/><path fill="#0052FF" d="M172 32a16 16 0 1 0 0-32 16 16 0 0 0 0 32ZM40.28 64a29.2 29.2 0 0 0-.28 4v36h56V68c0-1.36-.1-2.7-.28-4H40.28Z"/><path fill="#0A0B0D" d="M144.28 64a29.2 29.2 0 0 0-.28 4v36h28V64h-27.72Z"/><path fill="#FFFFFF" d="M172 104a20 20 0 1 0 0-40 20 20 0 0 0 0 40Z"/><path fill="#0A0B0D" fill-rule="evenodd" d="M172 94a10 10 0 1 0 0-20 10 10 0 0 0 0 20Zm12-10a12 12 0 1 1-24 0 12 12 0 0 1 24 0Z" clip-rule="evenodd"/><path fill="#00D17F" d="M32 56a16 16 0 0 0-16 16A16 16 0 0 0 0 56a16 16 0 0 0 16-16 16 16 0 0 0 16 16Z"/><path fill="#FFD200" d="M240 40a16 16 0 0 0-16 16 16 16 0 0 0-16-16 16 16 0 0 0 16-16 16 16 0 0 0 16 16Z"/><path fill="#5DE2F8" d="M132 28a12 12 0 0 0-12 12 12 12 0 0 0-12-12 12 12 0 0 0 12-12 12 12 0 0 0 12 12Z"/></svg>