<svg xmlns="http://www.w3.org/2000/svg" fill="none" viewBox="0 0 240 120"><path fill="#CED2DB" d="M150 0h60c16.569 0 30 13.432 30 30 0 16.569-13.431 30-30 30h-60z"/><path fill="#5DE2F8" d="M90 120H30c-16.569 0-30-13.431-30-30 0-16.568 13.432-30 30-30h60z"/><path fill="#FFD200" d="M180 30c0 16.55-13.45 30-30 30s-30-13.45-30-30 13.45-30 30-30 30 13.45 30 30"/><path fill="#CED2DB" d="M120 30c0 16.55-13.45 30-30 30S60 46.55 60 30 73.45 0 90 0s30 13.45 30 30"/><path fill="#FFD200" d="M180 90c0 16.55-13.45 30-30 30s-30-13.45-30-30 13.45-30 30-30 30 13.45 30 30"/><path fill="#0052FF" d="M120 90c0 16.55-13.45 30-30 30s-30-13.45-30-30 13.45-30 30-30 30 13.45 30 30m60-60c0-16.55-13.45-30-30-30v60c16.55 0 30-13.45 30-30"/><path fill="#0A0B0E" fill-rule="evenodd" d="M150 50c11.045 0 20-8.955 20-20s-8.955-20-20-20-20 8.955-20 20 8.955 20 20 20m0 2c12.15 0 22-9.85 22-22s-9.85-22-22-22-22 9.85-22 22 9.85 22 22 22m-60-2c11.045 0 20-8.955 20-20s-8.955-20-20-20-20 8.955-20 20 8.955 20 20 20m0 2c12.15 0 22-9.85 22-22S102.15 8 90 8s-22 9.85-22 22 9.85 22 22 22" clip-rule="evenodd"/><path fill="#0A0B0D" d="M90 60c-16.55 0-30 13.45-30 30s13.45 30 30 30v-8c-12.15 0-22-9.85-22-22s9.85-22 22-22z"/><mask id="a" fill="#FFFFFF"><path fill-rule="evenodd" d="M90 110c11.045 0 20-8.955 20-20s-8.955-20-20-20-20 8.955-20 20 8.955 20 20 20m0 2c12.15 0 22-9.85 22-22s-9.85-22-22-22-22 9.85-22 22 9.85 22 22 22" clip-rule="evenodd"/></mask><path fill="#0A0B0D" fill-rule="evenodd" d="M90 110c11.045 0 20-8.955 20-20s-8.955-20-20-20-20 8.955-20 20 8.955 20 20 20m0 2c12.15 0 22-9.85 22-22s-9.85-22-22-22-22 9.85-22 22 9.85 22 22 22" clip-rule="evenodd"/><path fill="#0A0B0E" d="M108 90c0 9.94-8.06 18-18 18v4c12.15 0 22-9.85 22-22zM90 72c9.94 0 18 8.06 18 18h4c0-12.15-9.85-22-22-22zM72 90c0-9.94 8.06-18 18-18v-4c-12.15 0-22 9.85-22 22zm18 18c-9.94 0-18-8.06-18-18h-4c0 12.15 9.85 22 22 22zm20-18c0 11.045-8.955 20-20 20v4c13.255 0 24-10.745 24-24zM90 70c11.045 0 20 8.955 20 20h4c0-13.255-10.745-24-24-24zM70 90c0-11.045 8.955-20 20-20v-4c-13.255 0-24 10.745-24 24zm20 20c-11.045 0-20-8.955-20-20h-4c0 13.255 10.745 24 24 24z" mask="url(#a)"/><path stroke="#0A0B0E" stroke-width="2" d="M150 69c11.598 0 21 9.402 21 21s-9.402 21-21 21-21-9.402-21-21 9.402-21 21-21Z"/><path fill="#0A0B0E" d="M89 39.586V0h2v39.586l5-5L97.414 36 90 43.414 82.586 36 84 34.586z"/><path fill="#FFFFFF" fill-rule="evenodd" d="M100.707 83.707 86.5 97.914l-6.207-6.207 1.414-1.414 4.793 4.793 12.793-12.793z" clip-rule="evenodd"/></svg>