<svg xmlns="http://www.w3.org/2000/svg" fill="none" viewBox="0 0 240 120"><path fill="#CED2DB" d="M208 0H32v120h176V0Z"/><path fill="#CED2DB" d="M240 16H0v88h240V16Z"/><path fill="#0A0B0D" fill-rule="evenodd" d="M208 16H32v88h176V16Z" clip-rule="evenodd"/><path fill="#0052FF" fill-rule="evenodd" d="M120 16H32v88h88V16Z" clip-rule="evenodd"/><path fill="#FFFFFF" fill-rule="evenodd" d="M119 120V0h2v120h-2Z" clip-rule="evenodd"/><path fill="#00D17F" d="M168 40h-16v8h16v-8Z"/><path fill="#FF3344" d="M184 96h-32v-8h32v8Z"/><path fill="#00D17F" d="M184 48h-32v8h32v-8Z"/><path fill="#FF3344" d="M168 88h-16v-8h16v8Z"/><path fill="#00D17F" d="M176 56h-24v8h24v-8Z"/><path fill="#FF3344" d="M176 80h-24v-8h24v8Z"/><path fill="#FFFFFF" fill-rule="evenodd" d="M144 25h-16v-2h16v2Z" clip-rule="evenodd"/><path fill="#0A0B0D" fill-rule="evenodd" d="M56 25H40v-2h16v2Z" clip-rule="evenodd"/><path fill="#FFFFFF" fill-rule="evenodd" d="M152 33h-24v-2h24v2Z" clip-rule="evenodd"/><path fill="#0A0B0D" fill-rule="evenodd" d="M64 33H40v-2h24v2Z" clip-rule="evenodd"/><path fill="#FFD200" d="M92 60c0 13.255-10.745 24-24 24S44 73.255 44 60s10.745-24 24-24 24 10.745 24 24Z"/><path fill="#0A0B0D" fill-rule="evenodd" d="M68 77.781c9.82 0 17.781-7.96 17.781-17.781 0-9.82-7.96-17.781-17.781-17.781-9.82 0-17.781 7.96-17.781 17.781 0 9.82 7.96 17.781 17.781 17.781Zm0 2c10.925 0 19.781-8.856 19.781-19.781 0-10.925-8.856-19.781-19.781-19.781-10.925 0-19.781 8.856-19.781 19.781 0 10.925 8.856 19.781 19.781 19.781Z" clip-rule="evenodd"/><path fill="#0A0B0D" fill-rule="evenodd" d="M68.998 48.131V71.87h-2V48.13h2Z" clip-rule="evenodd"/><path fill="#0A0B0D" fill-rule="evenodd" d="M79.866 61H56.13v-2h23.737v2Z" clip-rule="evenodd"/><path fill="#0A0B0D" fill-rule="evenodd" d="M77.097 52.315 60.313 69.1l-1.415-1.415L75.683 50.9l1.414 1.415Z" clip-rule="evenodd"/><path fill="#0A0B0D" fill-rule="evenodd" d="M75.683 69.1 58.898 52.315l1.415-1.415 16.784 16.785-1.414 1.415Z" clip-rule="evenodd"/><path fill="#FFFFFF" d="M104 64a8 8 0 0 1 8-8h16a8 8 0 0 1 0 16h-16a8 8 0 0 1-8-8Z"/><path fill="#0052FF" d="M114.127 64a2 2 0 1 1-4 0 2 2 0 0 1 4 0Z"/></svg>