<svg xmlns="http://www.w3.org/2000/svg" fill="none" viewBox="0 0 241 120"><path fill="#CED2DB" d="M40 60h79.997v60H40V60Z"/><path fill="#CED2DB" d="M40 120c22.091 0 40-17.909 40-40a39.816 39.816 0 0 0-5.351-20H5.35A39.816 39.816 0 0 0 0 80c0 22.091 17.909 40 40 40Z"/><path fill="#CED2DB" d="M0 60h119.997v20H0V60ZM120 .005h79.997v60H120v-60Z"/><path fill="#CED2DB" d="M200.003 0c-22.091 0-40 17.909-40 40a39.82 39.82 0 0 0 5.351 20h69.298a39.82 39.82 0 0 0 5.351-20c0-22.091-17.909-40-40-40Z"/><path fill="#CED2DB" d="M240.003 60H120.006V40h119.997v20Z"/><path fill="#5DE2F8" d="M160 96c0 8.837-7.164 16-16 16-8.837 0-16-7.163-16-16s7.163-16 16-16c8.836 0 16 7.163 16 16Z"/><path fill="#00D17F" d="M111.999 24H80c0-8.832 7.16-16 16.005-16 8.835 0 15.994 7.168 15.994 16Z"/><path fill="#0052FF" d="M80 24h31.999c0 8.832-7.159 16-16.005 16C87.16 40 80 32.832 80 24Zm0 36H24c0 15.456 12.53 28 28.009 28 15.46 0 27.99-12.544 27.99-28Z"/><path fill="#FFD200" d="M80 60H24c0-15.456 12.53-28 28.009-28 15.46 0 27.99 12.544 27.99 28Z"/><path fill="#0A0B0D" fill-rule="evenodd" d="M51.61 40C40.78 40 32 48.78 32 59.61s8.78 19.61 19.61 19.61 19.61-8.78 19.61-19.61S62.44 40 51.61 40ZM30 59.61C30 47.675 39.675 38 51.61 38c11.935 0 21.61 9.675 21.61 21.61 0 11.935-9.675 21.61-21.61 21.61C39.675 81.22 30 71.545 30 59.61Z" clip-rule="evenodd"/><path fill="#00D17F" d="M216 60h-56c0-15.456 12.53-28 28.009-28C203.47 32 216 44.544 216 60Z"/><path fill="#0052FF" d="M160 60h56c0 15.456-12.53 28-28.009 28C172.53 88 160 75.456 160 60Z"/><path fill="#FFFFFF" d="M187.998 37.6c0 12.373 10.029 22.398 22.402 22.398-12.373 0-22.402 10.029-22.402 22.402 0-12.373-10.029-22.402-22.398-22.402 12.369 0 22.398-10.025 22.398-22.398Z"/><path fill="#0A0B0D" fill-rule="evenodd" d="M143 106.667V85.334h2v21.333h-2Z" clip-rule="evenodd"/><path fill="#0A0B0D" fill-rule="evenodd" d="M154.667 97h-21.333v-2h21.333v2ZM51.01 120V92.16h2V120h-2Z" clip-rule="evenodd"/><path fill="#0A0B0D" fill-rule="evenodd" d="m52.01 90.59 12.704 12.622-1.41 1.419L52.01 93.409 40.714 104.63l-1.41-1.419L52.01 90.589ZM189 0v27.84h-2V0h2Z" clip-rule="evenodd"/><path fill="#0A0B0D" fill-rule="evenodd" d="m188 29.41-12.705-12.622 1.41-1.419L188 26.591l11.295-11.222 1.41 1.419L188 29.41Z" clip-rule="evenodd"/></svg>