<svg xmlns="http://www.w3.org/2000/svg" fill="none" viewBox="0 0 240 120"><path fill="#0052FF" d="M172 60a52 52 0 1 1-104 0 52 52 0 0 1 104 0Z"/><path fill="#CED2DB" d="M240 60a38 38 0 1 1-76 0 38 38 0 0 1 76 0ZM0 60a38 38 0 1 1 76 0 38 38 0 0 1-76 0Z"/><path fill="#FFFFFF" d="M120.12 73.5c-7.77 0-14.06-6.49-14.06-14.5s6.3-14.5 14.06-14.5c6.54 0 12 4.64 13.57 10.87H148C146.28 41.06 134.47 30 120.12 30 104.58 30 92 42.98 92 59s12.58 29 28.12 29c14.35 0 26.16-11.06 27.88-25.38h-14.3c-1.59 6.24-7.04 10.88-13.58 10.88Z"/><path fill="#0A0B0D" fill-rule="evenodd" d="M168.69 78.3A51.9 51.9 0 0 0 172 60a51.9 51.9 0 0 0-3.31-18.3A37.82 37.82 0 0 0 164 60c0 6.63 1.7 12.87 4.69 18.3ZM71.31 41.7A51.89 51.89 0 0 0 68 60c0 6.44 1.17 12.6 3.31 18.3A37.83 37.83 0 0 0 76 60c0-6.63-1.7-12.87-4.69-18.3Z" clip-rule="evenodd"/><path fill="#FFFFFF" d="m55.56 62.17-5.57-12.1a15.48 15.48 0 1 0-25.54 16.26V80h15.46v-4.5h6.78a4.43 4.43 0 0 0 4.43-4.43v-8.9h4.44Z"/><path fill="#0A0B0D" d="M44.44 57.72a2.22 2.22 0 1 0 0-4.45 2.22 2.22 0 0 0 0 4.45Z"/><path fill="#FFFFFF" d="M181 44h42v8h-42v-8Zm0 28h42v8h-42v-8Zm0-28h42l-21-8-21 8Z"/><path fill="#FFFFFF" fill-rule="evenodd" d="M187 72V52h4v20h-4Zm9 0V52h4v20h-4Zm8 0V52h4v20h-4Zm9 0V52h4v20h-4Z" clip-rule="evenodd"/><path fill="#0A0B0D" fill-rule="evenodd" d="M223 53h-42v-2h42v2Zm0 20h-42v-2h42v2Z" clip-rule="evenodd"/></svg>