<svg xmlns="http://www.w3.org/2000/svg" fill="none" viewBox="0 0 240 120"><g clip-path="url(#a)"><path fill="#CED2DB" d="M180.2 88.4c15.5 0 28.2-12.7 28.2-28.2S195.7 32 180.2 32 152 44.6 152 60.2s12.7 28.2 28.2 28.2"/><path fill="#0052FF" d="M160.1 16H80v88h80.1z"/><path fill="#0A0B0D" d="M160.1 40.4c-5 5.1-8.1 12.1-8.1 19.7s3.1 14.6 8.1 19.7z"/><path fill="#FFFFFF" d="M120.1 70.2c-5.6 0-10-4.4-10-10s4.4-10 10-10c5 0 9.2 3.6 9.9 8.3h10.2c-.9-10.3-9.5-18.3-20.1-18.3-11 0-20.1 9-20.1 20.1s9 20.1 20.1 20.1c10.6 0 19.2-8 20.1-18.3H130c-.8 4.5-4.9 8.1-9.9 8.1"/><path fill="#0A0B0D" d="M180.698 50.201 170.104 60.71l-1.409-1.42 13.007-12.901 12.905 12.904-1.415 1.414-10.494-10.494V73h-2z"/><path fill="#CED2DB" d="M79.9 0H32v16h47.9zm.1 104H32v16h48zM208 0h-56.1v16H208zm0 104h-56.1v16H208z"/><path fill="#0A0B0E" d="M160.1 0H80v16h80.1z"/><path fill="#FFFFFE" d="M120.1 10c1.4 0 2.5-1.1 2.5-2.5S121.4 5 120.1 5c-1.4 0-2.5 1.1-2.5 2.5s1.1 2.5 2.5 2.5"/><path fill="#0A0B0E" d="M160.1 104H80v16h80.1z"/><path fill="#FFFFFE" d="M115 110.3h10c1.4 0 2.5 1.1 2.5 2.5s-1.1 2.5-2.5 2.5h-10c-1.4 0-2.5-1.1-2.5-2.5s1.2-2.5 2.5-2.5"/></g><defs><clipPath id="a"><path fill="#FFFFFF" d="M0 0h240v120H0z"/></clipPath></defs></svg>