<svg xmlns="http://www.w3.org/2000/svg" fill="none" viewBox="0 0 240 124"><path fill="#CED2DB" d="M216 92a12 12 0 0 1-12 12H56V26a10 10 0 0 1 10-10h150v76Z"/><path fill="#CED2DB" d="M176 86a10 10 0 0 1-10 10H24V12A12 12 0 0 1 36 0h140v86Z"/><path fill="#0052FF" d="M184 16v80H56V16h128Z"/><path fill="#0A0B0D" d="M152 35h32v42h-32V35Z"/><path fill="#0052FF" d="M184 35h8v42h-8V35Z"/><path fill="#0A0B0D" d="M176 8H64.95A9 9 0 0 0 56 16h120V8Z"/><path fill="#FFFFFF" d="m168 50 6 6-6 6-6-6 6-6Z"/><path fill="#00D17F" d="M140 100a20 20 0 1 1-40 0 20 20 0 0 1 40 0Z"/><path fill="#FEFFFF" fill-rule="evenodd" d="M144 100a24 24 0 1 1-48 0 24 24 0 0 1 48 0Zm-24 20a20 20 0 1 0 0-40 20 20 0 0 0 0 40Z" clip-rule="evenodd"/><path fill="#0A0B0D" fill-rule="evenodd" d="m133.1 92.57-15.42 17.85-9.04-9.3 1.44-1.4 7.51 7.74 14-16.2 1.5 1.3Z" clip-rule="evenodd"/><path fill="#FFD200" d="M232 16a16 16 0 0 0-16 16 16 16 0 0 0-16-16 16 16 0 0 0 16-16 16 16 0 0 0 16 16Z"/><path fill="#5DE2F8" d="M36 44a12 12 0 0 0-12 12 12 12 0 0 0-12-12 12 12 0 0 0 12-12 12 12 0 0 0 12 12Zm204 44a8 8 0 0 0-8 8 8 8 0 0 0-8-8 8 8 0 0 0 8-8 8 8 0 0 0 8 8Z"/><path fill="#0052FF" d="M24 55.83V32a12 12 0 0 0 12 12 12 12 0 0 0-12 11.83ZM200.23 16H216v15.77A16 16 0 0 0 200.23 16Z"/><path fill="#FFD200" d="M24 104a12 12 0 0 0-12 12 12 12 0 0 0-12-12 12 12 0 0 0 12-12 12 12 0 0 0 12 12Z"/></svg>