<svg xmlns="http://www.w3.org/2000/svg" fill="none" viewBox="0 0 240 120"><path fill="#CED2DB" d="M64 32h120v56H64V32Z"/><path fill="#5DE2F8" d="M32 0h80v120H32V0Z"/><path fill="#0052FF" d="M32 0h80v16H32V0Zm0 104h80v16H32v-16Z"/><path fill="#0A0B0D" d="M74 8a2 2 0 1 1-4 0 2 2 0 0 1 4 0Z"/><path fill="#0A0B0D" fill-rule="evenodd" d="M76 113.034h-8v-2h8v2Z" clip-rule="evenodd"/><path fill="#0052FF" d="M64 32h48v56H64V32Z"/><path fill="#101114" fill-rule="evenodd" d="M168 61H80v-2h88v2Zm0 12H80v-2h88v2Z" clip-rule="evenodd"/><path fill="#00D17F" d="M208 32c0 13.255-10.745 24-24 24s-24-10.745-24-24 10.745-24 24-24 24 10.745 24 24Z"/><path fill="#0052FF" fill-rule="evenodd" d="M184 56V32h-24c0 13.255 10.745 24 24 24Z" clip-rule="evenodd"/><path fill="#101114" fill-rule="evenodd" d="M168 49H80v-2h88v2Z" clip-rule="evenodd"/></svg>