<svg xmlns="http://www.w3.org/2000/svg" fill="none" viewBox="0 0 240 120"><path fill="#5DE2F8" d="M208 0H32v104h176V0Z"/><path fill="#0052FF" d="M208 0H32v8h176V0Z"/><path fill="#0052FF" d="M176 0H64v104h112V0Z"/><path fill="#0A0B0D" d="M176 0H64v8h112V0Z"/><path fill="#FFFFFF" d="M92 52.04c0-15.488 12.512-28 28-28 15.487 0 28 12.512 28 28 0 15.487-12.513 28-28 28-15.488 0-28-12.6-28-28Z"/><path fill="#0A0B0D" d="m136 53-24-14v28l24-14Z"/><circle cx="39.6" cy="4.14" r="1" fill="#FFFFFF"/><circle cx="45.6" cy="4.14" r="1" fill="#FFFFFF"/><circle cx="51.6" cy="4.14" r="1" fill="#FFFFFF"/><path fill="#CED2DB" d="m147.917 104 .083-.103S135.466 88 120 88s-28 15.897-28 15.897l.083.103h55.834Z"/><path fill="#0A0B0D" d="M119.997 117.397c-7.274 0-13.936-3.692-18.845-7.483a54.29 54.29 0 0 1-5.788-5.191 46.304 46.304 0 0 1-1.568-1.705 32.445 32.445 0 0 1-.403-.472l-.1-.121-.024-.029-.005-.007v-.001l-.781.625-.78.626.003.004.008.01.03.037c.026.032.063.078.113.137.098.117.242.288.43.504.377.432.929 1.046 1.638 1.781a56.2 56.2 0 0 0 6.004 5.384c5.049 3.9 12.144 7.901 20.068 7.901 7.924 0 15.019-4.001 20.068-7.901a56.233 56.233 0 0 0 6.004-5.384 48.772 48.772 0 0 0 1.638-1.781c.188-.216.332-.387.431-.504l.112-.137.03-.037.008-.01.004-.004-.78-.626-.781-.625-.006.008-.024.029c-.021.027-.055.067-.1.121-.089.107-.224.267-.402.472-.357.409-.886.997-1.569 1.705a54.223 54.223 0 0 1-5.788 5.191c-4.909 3.791-11.571 7.483-18.845 7.483Z"/><path fill="#00D17F" d="M120 94c-5.536 0-10 4.464-10 10s4.464 10 10 10 10-4.464 10-10-4.464-10-10-10Z"/><path fill="#0052FF" d="M130 104c0-5.535-4.464-10-10-10s-10 4.464-10 10h20Z"/><path fill="#0A0B0D" d="M120 98a5.99 5.99 0 0 0-6 6c0 3.321 2.679 6 6 6s6-2.679 6-6-2.679-6-6-6Z"/></svg>