<svg xmlns="http://www.w3.org/2000/svg" fill="none" viewBox="0 0 240 120"><g clip-path="url(#a)"><path fill="#0052FF" d="M240 0H87v55h153z"/><path fill="#CED2DB" d="M87.211 54.546c15.028 0 27.211-12.21 27.211-27.273S102.239 0 87.212 0C72.181 0 60 12.21 60 27.273s12.183 27.272 27.211 27.272"/><path fill="#0A0B0D" d="M114.285 27.273c0-15-12.109-27.273-27.21-27.273v54.546c15.101 0 27.21-12.137 27.21-27.273"/><path fill="#CED2DB" d="M0 120h153V65H0z"/><path fill="#0052FF" d="M152.789 120C167.817 120 180 107.79 180 92.727s-12.183-27.273-27.211-27.273-27.211 12.211-27.211 27.273c0 15.063 12.183 27.273 27.211 27.273"/><path fill="#0A0B0D" d="M125.715 92.727c0 15 12.109 27.273 27.211 27.273V65.454c-15.102 0-27.211 12.137-27.211 27.273"/><path fill="#8E76FF" d="M87.21 46.5c10.748 0 19.456-8.727 19.456-19.5S97.958 7.5 87.21 7.5c-10.749 0-19.456 8.863-19.456 19.636S76.46 46.5 87.21 46.5"/><path fill="#FFFFFF" d="M87.21 11.727c8.435 0 15.374 6.955 15.374 15.41S95.645 42.544 87.21 42.544 71.836 35.59 71.836 27.135c0-8.454 6.938-15.409 15.374-15.409m0-4.09c-10.749 0-19.456 8.727-19.456 19.5S76.46 46.5 87.21 46.5s19.456-8.727 19.456-19.5S97.958 7.636 87.21 7.636"/><path fill="#FFFFFF" fill-opacity=".6" d="M87.21 12.546v10.363l8.436 3.955z"/><path fill="#FFFFFF" d="m87.21 12.546-8.435 14.181 8.436-3.954z"/><path fill="#FFFFFF" fill-opacity=".6" d="M87.21 33.409v6.955l8.572-12.137z"/><path fill="#FFFFFF" d="M87.21 40.5v-7.091l-8.435-5.046z"/><path fill="#FFFFFF" fill-opacity=".2" d="m87.21 31.773 8.436-5.046-8.435-3.954z"/><path fill="#FFFFFF" fill-opacity=".6" d="m78.775 26.727 8.436 5.046v-9z"/><path fill="#FFFFFF" d="M152.79 112.364c10.745 0 19.456-8.731 19.456-19.5s-8.711-19.5-19.456-19.5-19.456 8.73-19.456 19.5 8.711 19.5 19.456 19.5"/><path fill="#FFFFFF" d="M172.246 92.864c0 10.772-8.708 19.5-19.456 19.5s-19.456-8.728-19.456-19.5 8.708-19.5 19.456-19.5c10.748.136 19.456 8.727 19.456 19.5"/><path fill="#0052FF" d="M152.789 77.318v11.046l9.116 4.09z"/><path fill="#6697FF" d="m152.79 77.318-9.116 15.273 9.116-4.09z"/><path fill="#0052FF" d="M152.789 99.682v7.5l9.116-12.955z"/><path fill="#6697FF" d="M152.79 107.182v-7.5l-9.116-5.455zm-.001-9.272 9.116-5.455-9.116-4.091z"/><path fill="#CCDCFF" d="m143.811 92.59 9.115 5.456V88.5z"/><path fill="#0A0B0D" d="m130.77 25.75 5.627-5.64-1.77-1.766-8.9 8.921 8.893 9.065 1.784-1.75-6.209-6.33h91.806v-2.5zm-21.909 68.5H18v-2.5h91.096l-6.036-6.049 1.77-1.766 8.901 8.921-8.893 9.065-1.785-1.751z"/></g><defs><clipPath id="a"><path fill="#FFFFFF" d="M0 0h240v120H0z"/></clipPath></defs></svg>