<svg xmlns="http://www.w3.org/2000/svg" fill="none" viewBox="0 0 240 120"><path fill="#CED2DB" d="M79.82 0h80v65h-80z"/><path fill="#0052FF" fill-rule="evenodd" d="M79.82 0c0 22.091 17.909 40 40 40s40-17.909 40-40z" clip-rule="evenodd"/><path fill="#FFD200" d="M119.82 104c22.092 0 40-17.909 40-40s-17.908-40-40-40-40 17.909-40 40 17.909 40 40 40"/><path fill="#CED2DB" d="M52 104h108v16H52zm16-16h104v16H68z"/><path fill="#0052FF" fill-rule="evenodd" d="M139.2 90a39.8 39.8 0 0 1-19.381 5 39.8 39.8 0 0 1-19.38-5z" clip-rule="evenodd"/><path fill="#0052FF" fill-rule="evenodd" d="M152.55 87c-7.238 10.282-19.2 17-32.73 17s-25.491-6.718-32.73-17z" clip-rule="evenodd"/><path fill="#0A0B0D" fill-rule="evenodd" d="M119.463 36.625c-15.819 0-28.643 12.824-28.643 28.643h-2c0-16.924 13.72-30.643 30.643-30.643s30.643 13.72 30.643 30.643h-2c0-15.82-12.824-28.643-28.643-28.643m0 57.285c15.819 0 28.642-12.823 28.642-28.642h2c0 16.923-13.719 30.643-30.642 30.643S88.82 82.19 88.82 65.268h2c0 15.819 12.824 28.643 28.643 28.643" clip-rule="evenodd"/><path fill="#0A0B0D" fill-rule="evenodd" d="M119.463 36.625c-15.819 0-28.643 12.824-28.643 28.643h-2c0-16.924 13.72-30.643 30.643-30.643s30.643 13.72 30.643 30.643h-2c0-15.82-12.824-28.643-28.643-28.643m0 57.285c15.819 0 28.642-12.823 28.642-28.642h2c0 16.923-13.719 30.643-30.642 30.643S88.82 82.19 88.82 65.268h2c0 15.819 12.824 28.643 28.643 28.643" clip-rule="evenodd"/><path fill="#0A0B0D" fill-rule="evenodd" d="M118.82 80V0h2v80z" clip-rule="evenodd"/><path fill="#0A0B0D" fill-rule="evenodd" d="M118.82 33.438V0h2v33.438zm-16.582 30.394 1.414-1.414 16.168 16.168 16.168-16.168 1.414 1.414-17.582 17.582z" clip-rule="evenodd"/><path fill="#0A0B0E" fill-rule="evenodd" d="M149 115v5h-2v-5zm-12 0v5h-2v-5zm-12 0v5h-2v-5zm-12 0v5h-2v-5zm-12 0v5h-2v-5zm-12 0v5h-2v-5zm-12 0v5h-2v-5zm-12 0v5h-2v-5zm96.051-16v5h-2v-5zm-11.961 0v5h-2v-5zM93 99v5h-2v-5zm-11.926 0v5h-2v-5z" clip-rule="evenodd"/><path fill="#FFD200" d="M240 71.998c-11.048 0-19.998 8.954-19.998 20.002 0-11.048-8.954-20.002-20.002-20.002 11.048 0 20.002-8.955 20.002-19.998 0 11.044 8.95 19.998 19.998 19.998"/><path fill="#5DE2F8" d="M200 27.999c-6.629 0-11.999 5.372-11.999 12.001 0-6.629-5.372-12.001-12.001-12.001 6.629 0 12.001-5.373 12.001-11.999 0 6.626 5.37 11.999 11.999 11.999"/><path fill="#3CC28A" d="M39.998 16c0 8.838 7.164 15.998 16.002 15.998-8.838 0-16.002 7.164-16.002 16.002 0-8.838-7.163-16.002-15.998-16.002 8.835 0 15.998-7.16 15.998-15.998"/><path fill="#5DE2F8" d="M16 48a8 8 0 0 0 8 8 8 8 0 0 0-8 8 8 8 0 0 0-8-8 8 8 0 0 0 8-8"/><path fill="#0A0B0E" fill-rule="evenodd" d="M159.995 120H52v-2h107.995zm12.019-16H68.006v-2h104.008z" clip-rule="evenodd"/><path fill="#CED2DB" d="M0 88h51.999v16H0zm172 16h68v16h-68z"/></svg>