<svg width="64" height="64" viewBox="0 0 64 64" fill="none" xmlns="http://www.w3.org/2000/svg">
<path d="M2 0H62C63.1 0 64 0.9 64 2V46C64 47.1 63.1 48 62 48H2C0.9 48 0 47.1 0 46V2C0 0.9 0.9 0 2 0Z" fill="#56B4FC"/>
<path d="M56 48H8V64H56V48Z" fill="#BFE9FF"/>
<path d="M56 4H8V48H56V4Z" fill="#1652F0"/>
<path d="M42 24H20C19.6 24 19.23 23.76 19.08 23.38C18.92 23.01 19.01 22.58 19.3 22.29L25.3 16.29L26.71 17.7L22.41 22H42V24Z" fill="white"/>
<path d="M38.71 35.71L37.3 34.3L41.59 30H22V28H44C44.4 28 44.77 28.24 44.92 28.62C45.08 28.99 44.99 29.42 44.7 29.71L38.71 35.71Z" fill="white"/>
<path d="M2 0H62C63.1 0 64 0.9 64 2V4H0V2C0 0.9 0.9 0 2 0Z" fill="#BFE9FF"/>
</svg>
