<svg width="64" height="64" viewBox="0 0 64 64" fill="none" xmlns="http://www.w3.org/2000/svg">
<path d="M32 56L0 28H64L32 56Z" fill="#1652F0"/>
<path d="M32 0L0 28H64L32 0Z" fill="#56B4FC"/>
<path d="M32.0001 4L4.6001 28H59.4001L32.0001 4Z" fill="#1652F0"/>
<path d="M56 0H8V56H56V0Z" fill="#BFE9FF"/>
<path d="M32 56L0 28V64H64V28L32 56Z" fill="#56B4FC"/>
<path d="M8 56H32L8 35V56Z" fill="#1652F0"/>
<path d="M32 56H56V35L32 56Z" fill="#1652F0"/>
<path d="M48 14H16V16H48V14Z" fill="white"/>
<path d="M48 8H16V10H48V8Z" fill="white"/>
<path d="M48 20H16V22H48V20Z" fill="white"/>
<path d="M48 26H16V28H48V26Z" fill="white"/>
<path d="M48 32H16V34H48V32Z" fill="white"/>
<path d="M40 38H24V40H40V38Z" fill="white"/>
</svg>
