<svg xmlns="http://www.w3.org/2000/svg" fill="none" viewBox="0 0 241 240"><path fill="#FFD200" d="M156.395 111.297C163.628 102.893 168 91.957 168 80c0-26.51-21.49-48-48-48S72 53.49 72 80s21.49 48 48 48c7.871 0 15.3-1.894 21.855-5.253L142.969 88c7.065 0 12.857 5.613 13.086 12.686z"/><path fill="#0A0B0E" d="M209.7 239.6h-2v-16.7l3.7-8v-57.8l-7.1-3.6c-1.3-.7-2.9-.7-4.3 0l-4.3 2.2-8.3-4.2c-1.3-.7-2.9-.7-4.3 0l-4.3 2.2-8.3-4.2c-1.3-.7-2.9-.7-4.3 0l-7.9 4h-1.2v-1l-1.7-52.2c-.2-6.2-5-11.2-11.1-11.7l-2.9 90.2c0 1.3-.9 2.4-2.2 2.7s-2.6-.2-3.2-1.3l-11.3-18.9c-3.9-6.6-12.1-9-19-5.8l25.4 49.5 29.1 21.7v12.9h-2v-11.9l-28.6-21.3-.1-.2-26.5-51.5.8-.5c8-4.4 17.9-1.7 22.5 6.1l11.3 18.9c.3.6.9.5 1 .4.2 0 .7-.2.7-.9l3-92.1h1c7.7 0 13.8 6 14.1 13.7l1.6 50.5 6.3-3.2c1.9-1 4.2-1 6.1 0l7.4 3.8 3.4-1.7c1.9-1 4.2-1 6.1 0l7.4 3.8 3.4-1.7c1.9-1 4.2-1 6.1 0l8.2 4.2v59.5l-3.7 8z"/><path fill="#3CC28A" d="M72 160c-17.673 0-32-14.327-32-32s14.327-32 32-32 32 14.327 32 32-14.327 32-32 32"/><path fill="#0052FF" d="M168 64c-17.673 0-32-14.327-32-32s14.327-32 32-32 32 14.327 32 32-14.327 32-32 32"/><path fill="#0A0B0D" fill-rule="evenodd" d="M74.773 96.119c15.461 1.327 27.781 13.647 29.109 29.108C90.338 120.4 79.6 109.662 74.773 96.119m90.452-32.237c-15.46-1.328-27.781-13.648-29.108-29.109 13.543 4.827 24.281 15.565 29.108 29.109m-44.241.298v32h-2v-32z" clip-rule="evenodd"/><path fill="#0A0B0D" fill-rule="evenodd" d="M135.984 81.18h-32v-2h32z" clip-rule="evenodd"/><path fill="#FFD200" d="M40 207.998c-11.048 0-19.998 8.954-19.998 20.002 0-11.048-8.954-20.002-20.002-20.002 11.048 0 20.002-8.954 20.002-19.998 0 11.044 8.95 19.998 19.998 19.998"/><path fill="#0052FF" d="M49 16.498c-9.114 0-16.498 7.388-16.498 16.502 0-9.114-7.388-16.502-16.502-16.502 9.114 0 16.502-7.387 16.502-16.498 0 9.11 7.384 16.498 16.498 16.498"/><path fill="#3CC28A" d="M241 128.499c-6.905 0-12.499 5.596-12.499 12.501 0-6.905-5.596-12.501-12.501-12.501 6.905 0 12.501-5.597 12.501-12.499 0 6.902 5.594 12.499 12.499 12.499"/></svg>