<svg xmlns="http://www.w3.org/2000/svg" fill="none" viewBox="0 0 240 240"><path fill="#CED2DB" d="M240 56H0v128h240V56Z"/><path fill="#0A0B0D" d="M208 56H32v128h176V56Z"/><path fill="#0052FF" d="M208 32H32v24h176V32Zm0 152H32v24h176v-24Z"/><path fill="#00D17F" d="M184 87h-48v8h48v-8Z"/><path fill="#00D17F" d="M160 80h-24v8h24v-8Zm18.8 31H136v9h42.8v-9Zm-7.2-16H136v8h35.6v-8Zm-7.1 8H136v8h28.5v-8Z"/><path fill="#FF3344" d="M171.6 128H136v8h35.6v-8Zm7.2 16H136v8h42.8v-8Zm-17.8-8h-25v8h25v-8Zm7 16h-32v8h32v-8Zm16 8h-48v8h48v-8Z"/><path fill="#00D17F" d="M64 96H48v48h16V96Z"/><path fill="#FF3344" d="M88 128H72v36h16v-36Z"/><path fill="#00D17F" d="M112 96H96v40h16V96Z"/><path fill="#FFFFFF" fill-rule="evenodd" d="M152 65h-16v-2h16v2Zm-88 0H48v-2h16v2Zm8 8H48v-2h24v2ZM55 96v-8h2v8h-2Zm48 0v-8h2v8h-2Zm-48 56v-8h2v8h-2Zm48-8v-8h2v8h-2Zm-24-16v-8h2v8h-2Zm0 44v-8h2v8h-2Z" clip-rule="evenodd"/></svg>