<svg xmlns="http://www.w3.org/2000/svg" fill="none" viewBox="0 0 240 240"><g clip-path="url(#a)"><path fill="#FFD200" d="M48 56c0 8.8-7.2 16-16 16v88c8.8 0 16 7.2 16 16h56V56z"/><path fill="#0052FF" d="M208 40V8c-26.5 0-48 21.5-48 48h32c0-8.8 7.2-16 16-16m-16 136h-32c0 26.5 21.5 48 48 48v-32c-8.8 0-16-7.2-16-16"/><path fill="#0052FF" d="M176 32H56v16h120z"/><path fill="#FFD200" d="M208 160V72c-8.8 0-16-7.2-16-16h-56v120h56c0-8.8 7.2-16 16-16"/><path fill="#0A0B0D" d="M72 40H56v152h16zM56 176V56c-10.1 16.8-16 37.6-16 60s5.9 43.2 16 60"/><path fill="#0052FF" d="M48 40h144c-20.2-10.1-45.1-16-72-16s-51.8 5.9-72 16m0 136c0 8.8-7.2 16-16 16v32c26.5 0 48-21.5 48-48z"/><path fill="#0052FF" d="M192 200H48c20.2 10.1 45.1 16 72 16s51.8-5.9 72-16"/><path fill="#0A0B0D" d="M184 56v120c10.1-16.8 16-37.6 16-60s-5.9-43.2-16-60m0-16h-16v152h16z"/><path fill="#0052FF" d="M176 184H56v16h120zM32 8v32c8.8 0 16 7.2 16 16h32C80 29.5 58.5 8 32 8"/><path fill="#FFFFFE" d="M176 40H64v160h112z"/><path fill="#FFD200" d="M168 48H72v144h96z"/><path fill="#0052FF" d="M192 40h-16v16h16zM64 40H48v16h16zm128 136h-16v32h16z"/><path fill="#FFD200" d="M119.898 0c-8.8 0-16 7.2-16 16v16h32V16c0-8.8-7.2-16-16-16"/><path fill="#0A0B0D" d="M120 24c-5.4 0-10.8.3-16 .7V40h32V24.7c-5.2-.4-10.6-.7-16-.7"/><path fill="#FFD200" d="M119.898 240c8.8 0 16-7.2 16-16v-16h-32v16c0 8.8 7.1 16 16 16"/><path fill="#0A0B0D" d="M120 216c5.4 0 10.8-.3 16-.7V200h-32v15.3c5.2.4 10.6.7 16 .7"/><path fill="#FFFFFF" fill-rule="evenodd" d="m200.7 24.7-16 16c-.3.3-.7.4-1.1.2q-.6-.3-.6-.9V24h2v13.6l14.3-14.3zM54.997 37.6l-14.3-14.3-1.4 1.4 16 16c.3.3.7.4 1.1.2q.6-.3.6-.9V24h-2zm1.4 153.5q.6.3.6.9v16h-2v-13.6l-14.3 14.3-1.4-1.4 16-16c.3-.3.7-.4 1.1-.2m127.203 0c.4-.2.8-.1 1.1.2l16 16-1.4 1.4-14.3-14.3V208h-2v-16c0-.4.2-.8.6-.9" clip-rule="evenodd"/><path fill="#0052FF" d="m56 144 8 8V80l-8 8zm120 8 8-8V88l-8-8z"/><path fill="#3CC28A" d="M151.702 176.8h-39.7l-16-8.8-7.9 8.8v-113h31.9l8 24.2 8-24.2h15.7z"/><path fill="#0A0B0D" d="M132 104c2.2 0 4-1.8 4-4s-1.8-4-4-4-4 1.8-4 4 1.8 4 4 4m-24 0c2.2 0 4-1.8 4-4s-1.8-4-4-4-4 1.8-4 4 1.8 4 4 4m28 8c0 8.8-7.2 16-16 16s-16-7.2-16-16"/><path fill="#0A0B0D" fill-rule="evenodd" d="M127 168v-24h2v24zm16-16v-24h2v24zm0-64V72h2v16zm-40-8v-8h2v8zm0 72v-16h2v16z" clip-rule="evenodd"/></g><defs><clipPath id="a"><path fill="#FFFFFF" d="M0 0h240v240H0z"/></clipPath></defs></svg>