<svg xmlns="http://www.w3.org/2000/svg" fill="none" viewBox="0 0 240 240"><path fill="#CED2DB" d="M0 192h240V0H0v192Z"/><path fill="#FFD200" d="M132 89h24v23h-24V89Z"/><path fill="#0A0B0D" fill-rule="evenodd" d="M203 42H38v92h165V42ZM36 40v96h169V40H36Z" clip-rule="evenodd"/><path fill="#00D17F" fill-rule="evenodd" d="M80 144h80v96H80a48 48 0 1 1 0-96Z" clip-rule="evenodd"/><path fill="#0052FF" fill-rule="evenodd" d="M160 192v-48H80c-26.51 0-48 21.08-48 47.08v.92h128Z" clip-rule="evenodd"/><path fill="#FFD200" d="M208 192a48 48 0 1 1-96 0 48 48 0 0 1 96 0Z"/><path fill="#0A0B0D" fill-rule="evenodd" d="M59 135V65h2v70h-2Zm24 0V65h2v70h-2Zm24 0V41h2v94h-2Zm24 0V41h2v94h-2Zm24-.5V41h2v93.5h-2Zm24-23.5V41h2v70h-2Z" clip-rule="evenodd"/><path fill="#0A0B0D" fill-rule="evenodd" d="M204 65H36v-2h168v2Zm0 25H36v-2h168v2Zm1 23H37v-2h168v2Zm-18 79.5c0-14.65-11.72-26.5-26.15-26.5v-2c15.56 0 28.15 12.77 28.15 28.5S176.4 221 160.85 221c-14.66 0-26.69-11.34-28.03-25.8l-6.04 7.55-1.56-1.25 8.26-10.34 11.17 7.38-1.1 1.67-8.79-5.8c.96 13.75 12.28 24.59 26.09 24.59 14.43 0 26.15-11.85 26.15-26.5Z" clip-rule="evenodd"/><path fill="#0052FF" d="M0 0h240v32H0V0Z"/><path fill="#FFFFFF" d="M48 16a8 8 0 1 1-16 0 8 8 0 0 1 16 0Zm160 0a8 8 0 1 1-16 0 8 8 0 0 1 16 0Z"/></svg>