<svg xmlns="http://www.w3.org/2000/svg" fill="none" viewBox="0 0 240 240"><path fill="#CED2DB" d="M0 192h240V0H0z"/><path fill="#FFD200" d="M132 89h24v23h-24z"/><path fill="#0A0B0D" fill-rule="evenodd" d="M203 42H38v92h165zM36 40v96h169V40z" clip-rule="evenodd"/><path fill="#3CC28A" fill-rule="evenodd" d="M80 144h80v96H80c-26.51 0-48-21.49-48-48s21.49-48 48-48" clip-rule="evenodd"/><path fill="#0052FF" fill-rule="evenodd" d="M160 192v-48H80c-26.51 0-48 21.077-48 47.077q0 .462.009.923z" clip-rule="evenodd"/><path fill="#FFD200" d="M208 192c0 26.51-21.49 48-48 48s-48-21.49-48-48 21.49-48 48-48 48 21.49 48 48"/><path fill="#0A0B0D" fill-rule="evenodd" d="M59 135V65h2v70zm24 0V65h2v70zm24 0V41h2v94zm24 0V41h2v94zm24-.5V41h2v93.5zm24-23.5V41h2v70z" clip-rule="evenodd"/><path fill="#0A0B0D" fill-rule="evenodd" d="M204 65H36v-2h168zm0 25H36v-2h168zm1 23H37v-2h168zm-18 79.5c0-14.648-11.721-26.5-26.153-26.5v-2c15.56 0 28.153 12.772 28.153 28.5S176.407 221 160.847 221c-14.661 0-26.687-11.337-28.029-25.803l-6.037 7.552-1.562-1.248 8.263-10.339 11.171 7.379-1.102 1.668-8.791-5.806C135.722 208.16 147.045 219 160.847 219 175.279 219 187 207.148 187 192.5" clip-rule="evenodd"/><path fill="#0052FF" d="M0 0h240v32H0z"/><path fill="#FFFFFF" d="M48 16a8 8 0 1 1-16 0 8 8 0 0 1 16 0m160 0a8 8 0 1 1-16 0 8 8 0 0 1 16 0"/></svg>