<svg xmlns="http://www.w3.org/2000/svg" fill="none" viewBox="0 0 240 240"><path fill="#00D17F" d="M240 52H0v136h240V52Z"/><path fill="#0A0B0D" fill-rule="evenodd" d="M227 65H12v-2h217v57h-2V65ZM13 175v-55h-2v57h217v-2H13Z" clip-rule="evenodd"/><path fill="#FFFFFF" d="M200 108c6.6 0 12 5.4 12 12s-5.4 12-12 12-12-5.4-12-12 5.4-12 12-12Zm-160 0c6.6 0 12 5.4 12 12s-5.4 12-12 12-12-5.4-12-12 5.4-12 12-12Z"/><path fill="#FEFFFF" d="M168 120c0 26.5-21.5 48-48 48s-48-21.5-48-48h96Z"/><path fill="#00D17F" d="M72 120c0-26.5 21.5-48 48-48s48 21.5 48 48H72Z"/><path fill="#CED2DB" d="M160 120c0 22.1-17.9 40-40 40s-40-17.9-40-40h80Z"/><path fill="#0052FF" d="M80 120c0-22.1 17.9-40 40-40s40 17.9 40 40H80Z"/><path fill="#0A0B0D" fill-rule="evenodd" d="M120 89c-17.121 0-31 13.879-31 31 0 17.121 13.879 31 31 31 17.121 0 31-13.879 31-31 0-17.121-13.879-31-31-31Zm-33 31c0-18.225 14.775-33 33-33s33 14.775 33 33-14.775 33-33 33-33-14.775-33-33Z" clip-rule="evenodd"/><path fill="#CED2DB" d="M4 52c0-22.1 17.9-40 40-40s40 17.9 40 40H4Z"/><path fill="#0052FF" d="M84 52c0 22.1-17.9 40-40 40S4 74.1 4 52h80Z"/><path fill="#0A0B0D" fill-rule="evenodd" d="M44 21c-17.148 0-31 13.852-31 31h-2c0-18.252 14.748-33 33-33 18.252 0 33 14.748 33 33 0 18.252-14.748 33-33 33v-2c17.148 0 31-13.852 31-31S61.148 21 44 21Z" clip-rule="evenodd"/><path fill="#0052FF" d="M156 188c0-22.1 17.9-40 40-40s40 17.9 40 40h-80Z"/><path fill="#CED2DB" d="M236 188c0 22.1-17.9 40-40 40s-40-17.9-40-40h80Z"/><path fill="#0A0B0D" fill-rule="evenodd" d="M196 157c-17.148 0-31 13.852-31 31s13.852 31 31 31 31-13.852 31-31h2c0 18.252-14.748 33-33 33-18.252 0-33-14.748-33-33 0-18.252 14.748-33 33-33v2ZM11.996 86.586l8.707 8.707-1.414 1.414-7.293-7.293-7.293 7.293-1.414-1.414 8.707-8.707Z" clip-rule="evenodd"/><path fill="#0A0B0D" fill-rule="evenodd" d="M11 176V88h2v88h-2Zm216.996-25.414-7.293-7.293-1.414 1.414 8.707 8.707 8.707-8.707-1.414-1.414-7.293 7.293Z" clip-rule="evenodd"/><path fill="#0A0B0D" fill-rule="evenodd" d="M229 64v88h-2V64h2Z" clip-rule="evenodd"/></svg>