<svg xmlns="http://www.w3.org/2000/svg" fill="none" viewBox="0 0 240 240"><path fill="#CED2DB" d="M120 195.86a96 96 0 1 0 0-192 96 96 0 0 0 0 192Z"/><path fill="#FFFFFF" d="M157 101.86H83v120h74v-120Z"/><path fill="#FFD200" d="M120 151.86a52.04 52.04 0 0 0 48.04-32.1 51.93 51.93 0 0 0-11.27-56.66 52.05 52.05 0 0 0-56.66-11.27A52.01 52.01 0 0 0 120 151.87Z"/><path fill="#0052FF" d="M184 235.86H56l8-40h112l8 40Z"/><path fill="#FFFFFF" d="M48 91.86a13.26 13.26 0 0 1-8 8 13.26 13.26 0 0 1 8 8 13.26 13.26 0 0 1 8-8 13.26 13.26 0 0 1-8-8Z"/><path fill="#CED2DB" d="M192 175.86a26.46 26.46 0 0 1 16-16 26.46 26.46 0 0 1-16-16 26.46 26.46 0 0 1-16 16 26.46 26.46 0 0 1 16 16Z"/><path fill="#FFFFFF" d="M68 51.86s.28 18.13 16 24.04v-.07c-15.72 5.91-16 24.04-16 24.04s-.28-18.13-16-24.04v.07c15.72-5.91 16-24.04 16-24.04Z"/><path fill="#CED2DB" d="M48 23.86a19.86 19.86 0 0 1-12 12 19.86 19.86 0 0 1 12 12 19.86 19.86 0 0 1 12-12 19.86 19.86 0 0 1-12-12Z"/><path fill="#0052FF" d="M184 187.86H56a8 8 0 0 0 0 16h128a8 8 0 1 0 0-16Zm-128 32h128a16 16 0 0 1 16 16H40a16 16 0 0 1 16-16Zm143-65.45a96.04 96.04 0 0 1-11.42 13.63c-3.01-3.69-7-6.55-11.58-8.18a26.49 26.49 0 0 0 16-16 26.42 26.42 0 0 0 7 10.55ZM52.79 31.33c2.03 2 4.48 3.55 7.2 4.53a19.84 19.84 0 0 0-12 12 19.91 19.91 0 0 0-3.98-6.66l8.78-9.87Z"/><path fill="#050607" d="M184 235.86H56l3.2-16h121.6l3.2 16Z"/><path fill="#0A0B0D" d="M105.33 86.66c1.91 0 2.52 1.1 2.7 2.05v8.74c.12 0 .3 0 .5.04h-.5v12.24c-.09.59-.44 1.55-1.77 1.55.06.06-4.37 0-4.37 0l.04 5.58h6.1c1.13 0 2.25.02 3.35.04v7.76h4.68v-7.68c1.3.02 2.54.04 3.75.04v7.64h4.7v-7.75c7.87-.45 13.4-2.45 14.08-9.81.56-5.94-2.26-8.59-6.73-9.65 2.72-1.38 4.41-3.81 4.02-7.87-.53-5.52-5.33-7.38-11.38-7.91V74h-4.69v7.46c-1.23 0-2.49.02-3.75.06v-7.51h-4.68v7.67c-1.02.02-2.02.04-2.99.04v-.02h-6.46v4.99s3.48-.09 3.42-.02l-.02-.01Zm10.84.35c2.65 0 10.96-.84 10.96 4.66s-8.3 4.66-10.96 4.66v-9.32Zm0 14.04c3.18 0 13.14-.92 13.14 5.14 0 5.8-9.97 5.14-13.14 5.14v-10.28Z"/><path fill="#0A0B0D" d="M120.1 57.93a41.98 41.98 0 0 1 41.94 41.93 41.98 41.98 0 0 1-41.93 41.93 41.98 41.98 0 0 1-41.93-41.93 41.98 41.98 0 0 1 41.93-41.93Zm0-2.07a44 44 0 1 0 .01 88 44 44 0 0 0 0-88Z"/></svg>