<svg xmlns="http://www.w3.org/2000/svg" fill="none" viewBox="0 0 240 240"><path fill="#CED2DB" d="M223.993 64.2H15.906v40h208.087v-40Z"/><path fill="#00D17F" d="M199.981 64.2H39.914v160h160.067v-160Z"/><path fill="#0052FF" d="M199.981 64.2H39.914V104h160.067V64.2Z"/><path fill="#CED2DB" d="M199.981 208.2H39.914v16h160.067v-16Z"/><path fill="#5DE2F8" d="M151.964 104H87.938v104.2h64.026V104Z"/><path fill="#FFD200" d="m29.812 135.9-11.404 3.5-3.502 11.4-3.501-11.4L0 135.9l11.405-3.5 3.501-11.4 3.502 11.4 11.404 3.5Z"/><path fill="#0052FF" d="m229.898 22.9-11.404 3.5-3.502 11.4-3.501-11.4-11.405-3.5 11.405-3.5L214.992 8l3.502 11.4 11.404 3.5Z"/><path fill="#5DE2F8" d="m240 225.1-11.405 3.5-3.501 11.4-3.502-11.4-11.404-3.5 11.404-3.5 3.502-11.4 3.501 11.4L240 225.1Z"/><path fill="#101114" fill-rule="evenodd" d="m176.47 40.918-56.123 24.2-.792-1.836 56.123-24.2.792 1.836Z" clip-rule="evenodd"/><path fill="#101114" fill-rule="evenodd" d="m119.556 65.118-55.923-24.2.794-1.836 55.923 24.2-.794 1.836Z" clip-rule="evenodd"/><path fill="#101114" fill-rule="evenodd" d="M121.047 0v64h-2V0h2Z" clip-rule="evenodd"/><path fill="#101114" fill-rule="evenodd" d="m119.281 63.36 40.017-48 1.536 1.28-40.017 48-1.536-1.28Z" clip-rule="evenodd"/><path fill="#101114" fill-rule="evenodd" d="m119.282 64.64-40.016-48 1.536-1.28 40.016 48-1.536 1.28Z" clip-rule="evenodd"/><path fill="#FFFFFF" d="M180 128a4 4 0 1 0 0-8 4 4 0 0 0 0 8Zm0 64a4 4 0 1 0 0-8 4 4 0 0 0 0 8ZM52 176a4 4 0 1 0 0-8 4 4 0 0 0 0 8Z"/><path fill="#FFD200" d="m107.72 162-46.697 26.95 8.004 13.856 46.697-26.95L107.72 162Z"/><path fill="#0052FF" d="m88.04 192 27.593-16.152-8.003-13.8L88.04 173.5V192Z"/><path fill="#101114" fill-rule="evenodd" d="M224.095 85H16.008v-2h208.087v2ZM176.07 65H64.023v-2H176.07v2Zm24.012 160H40.016v-2h160.066v2Zm0-16H40.016v-2h160.066v2Z" clip-rule="evenodd"/><path fill="#FFD200" d="m152 121-24 71.5 64-32-40-39.5Z"/><path fill="#0052FF" d="m152 121-24 71.5 24-12V121Z"/><path fill="#101114" fill-rule="evenodd" d="M119.047 104V64h2v40h-2Z" clip-rule="evenodd"/><path fill="#FFD200" d="M88 116c-22.091 0-40 17.909-40 40h80c0-22.091-17.909-40-40-40Z"/><path fill="#0052FF" d="M88 156h40.3c0-22.1-17.9-40-40-40l-.3 40Z"/></svg>