<svg xmlns="http://www.w3.org/2000/svg" fill="none" viewBox="0 0 240 240"><path fill="#0052FF" d="M0 128h112v112H0V128Z"/><path fill="#00D17F" d="M62 140h40v40H62v-40Z"/><path fill="#5DE2F8" d="M10 140h40v40H10v-40Zm52 48h40v40H62v-40Z"/><path fill="#73A2FF" d="M10 188h40v40H10v-40Z"/><path fill="#0052FF" d="M128 0h112v112H128V0Z"/><path fill="#00D17F" d="M190 12h40v40h-40V12Z"/><path fill="#5DE2F8" d="M138 12h40v40h-40V12Zm52 48h40v40h-40V60Z"/><path fill="#73A2FF" d="M138 60h40v40h-40V60Z"/><path fill="#101114" fill-rule="evenodd" d="m141.606 209.705-25.022-25.212 25.029-24.705 1.405 1.424-22.543 22.251 62.525-.948V0h2v184.485l-64.634.979 22.66 22.832-1.42 1.409ZM98.392 28.294l25.028 25.098-25.035 24.593-1.402-1.427 22.572-22.174H57V240h-2V52.385h64.591L96.976 29.706l1.416-1.412Z" clip-rule="evenodd"/><path fill="#CED2DB" d="M184 156h56v56h-56v-56ZM0 25h60v56H0V25Z"/><path fill="#00D17F" d="M184 212c-15.464 0-28-12.536-28-28s12.536-28 28-28 28 12.536 28 28-12.536 28-28 28Z"/><path fill="#0052FF" fill-rule="evenodd" d="M184.159 211.999H184v-55.982c.275 0 .55-.002.825-.005C199.907 156.448 212 168.812 212 184c0 15.411-12.45 27.914-27.841 27.999Z" clip-rule="evenodd"/><path fill="#FFFFFF" d="M156 183.997c15.467 0 27.997 12.536 27.997 28.003 0-15.467 12.536-28.003 28.003-28.003-15.467 0-28.003-12.536-28.003-27.997 0 15.461-12.53 27.997-27.997 27.997Z"/><path fill="#FFD200" d="M19.999 37c0-6.628 5.373-11.999 12.001-11.999-6.628 0-12.001-5.373-12.001-12.001 0 6.628-5.373 12.001-11.999 12.001 6.626 0 11.999 5.37 11.999 11.999Z"/><path fill="#0052FF" fill-rule="evenodd" d="M32 25.001c-6.629 0-12.001 5.37-12.001 11.999 0-6.628-5.373-11.999-11.999-11.999L8.172 25h23.656l.172.001Z" clip-rule="evenodd"/><path fill="#FFD200" d="M60 81c15.464 0 28-12.536 28-28S75.464 25 60 25 32 37.536 32 53s12.536 28 28 28Z"/><path fill="#0A0B0D" fill-rule="evenodd" d="M60 30c-12.703 0-23 10.297-23 23 0 12.702 10.297 23 23 23s23-10.298 23-23c0-12.703-10.297-23-23-23ZM35 53c0-13.808 11.193-25 25-25s25 11.192 25 25c0 13.807-11.193 25-25 25S35 66.806 35 53Z" clip-rule="evenodd"/></svg>