<svg xmlns="http://www.w3.org/2000/svg" fill="none" viewBox="0 0 240 240"><path fill="#CED2DB" d="M168 0H72v240h96V0Z"/><path fill="#CED2DB" d="M168 0H72v240h96V0Z"/><path fill="#CED2DB" d="M168 0H72v240h96V0Z"/><path fill="#CED2DB" d="M144 8.98c-3.46-.29-7.02-.52-10.66-.68v18.53c3.64.16 7.2.39 10.66.68 32.46 2.73 56 10.87 56 20.49V29.48c0-9.62-23.54-17.76-56-20.49v-.01Zm-64 1.9c-12.56 1.95-22.95 4.79-30 8.2V37.6c7.05-3.41 17.44-6.25 30-8.2V10.88Z"/><path fill="#0A0B0D" d="M72 152v16a13.26 13.26 0 0 1 8-8 13.26 13.26 0 0 1-8-8Z"/><path fill="#0052FF" d="M72 168a13.26 13.26 0 0 0-8-8 13.26 13.26 0 0 0 8-8v16Z"/><path fill="#0A0B0D" d="M168 88V72a13.26 13.26 0 0 1-8 8 13.26 13.26 0 0 1 8 8Z"/><path fill="#0052FF" d="M168 72a13.26 13.26 0 0 0 8 8 13.26 13.26 0 0 0-8 8V72Zm-20 48a28 28 0 1 1-56.01-.01A28 28 0 0 1 148 120Z"/><path fill="#CED2DB" d="M40 189.48C40 177.62 75.82 168 120 168s80 9.62 80 21.48V208c0-11.86-35.82-21.48-80-21.48S40 196.14 40 208v-18.52Z"/><path fill="#0052FF" d="M168 172.3v18.52c-13.37-2.71-29.99-4.3-48-4.3s-34.63 1.59-48 4.3V172.3c13.37-2.71 29.99-4.3 48-4.3s34.63 1.59 48 4.3Zm0-160.01v18.53a214.9 214.9 0 0 0-24-3.31c-3.46-.29-7.02-.52-10.66-.68V8.3c3.64.16 7.2.39 10.66.68a214.9 214.9 0 0 1 24 3.31Z"/><path fill="#FFFFFF" d="M160 55.07v-.08a39.99 39.99 0 0 0-79.98 0v.22h.02c.37 5.31 18.13 9.58 39.98 9.58 21.85 0 39.6-4.28 39.98-9.58h.02v-.14H160Z"/><path fill="#5DE2F8" d="M200 210.8c0 11.71-35.82 21.2-80 21.2s-80-9.49-80-21.2V192c0 11.71 35.82 21.2 80 21.2s80-9.49 80-21.2v18.8Z"/><path fill="#5DE2F8" d="M200 210.8c0 11.71-35.82 21.2-80 21.2s-80-9.49-80-21.2V192c0 11.71 35.82 21.2 80 21.2s80-9.49 80-21.2v18.8Z"/><path fill="#FFFFFF" d="M120 104c8.82 0 16 7.18 16 16s-7.18 16-16 16-16-7.18-16-16 7.18-16 16-16Zm0-2a18 18 0 1 0 0 36 18 18 0 0 0 0-36Z"/><path fill="#FFFFFF" d="M120 104c2.55 0 6.1 6.09 6.1 16s-3.56 16-6.1 16c-2.54 0-6.1-6.09-6.1-16s3.56-16 6.1-16Zm0-2c-4.48 0-8.1 8.06-8.1 18s3.63 18 8.1 18 8.1-8.06 8.1-18-3.63-18-8.1-18Z"/><path fill="#FFFFFF" d="M138 119h-36v2h36v-2Z"/><path fill="#101114" d="M120 158c-20.95 0-38-17.05-38-38 0-7.75 2.31-15.21 6.69-21.55a38.05 38.05 0 0 1 62.62-.01A38.05 38.05 0 0 1 120 158Zm0-74a36.04 36.04 0 0 0-29.66 15.58A36.04 36.04 0 0 0 120 156a36.04 36.04 0 0 0 29.66-56.42A36.05 36.05 0 0 0 120 84Z"/><path fill="#101114" d="M95.69 94.1a2 2 0 1 0 0-4 2 2 0 0 0 0 4ZM85 133.78a2 2 0 1 0 0-4 2 2 0 0 0 0 4Zm59.31 16.11a2 2 0 1 0 0-4 2 2 0 0 0 0 4ZM157 122.52a2 2 0 1 0 0-4 2 2 0 0 0 0 4Z"/><path fill="#FFD200" d="M184 112V64h48v48h-48Z"/><path fill="#0052FF" d="M194.67 74.67h26.67v26.67h-26.67V74.67Z"/><path fill="#00D17F" d="M194.67 74.67 192 72v32l2.67-2.67V74.66v.01Zm26.66 26.66L224 104V72l-2.67 2.67v26.67-.01Z"/><path fill="#0A0B0D" d="M221.33 74.67 224 72h-32l2.67 2.67h26.67-.01Zm-26.66 26.66L192 104h32l-2.67-2.67h-26.67.01Z"/><path fill="#FFFFFF" d="m208 93.33-4.67-4.67-8.67 7.61v5.05h26.67V90.65L216 85.32l-8 8v.01Z"/><path fill="#FFD200" d="M205.33 81.67a3.67 3.67 0 1 1-7.33 0 3.67 3.67 0 0 1 7.33 0Z"/><path fill="#00D17F" d="M186 182v-36h36v36h-36Z"/><path fill="#FFFFFF" d="M214 160a10 10 0 1 1-20 0 10 10 0 0 1 20 0Z"/><path fill="#FFFFFF" d="M194 160.5h20V178h-20v-17.5Z"/><path fill="#0A0B0D" d="M202.5 158.5a1.5 1.5 0 1 1-3 0 1.5 1.5 0 0 1 3 0Zm6 0a1.5 1.5 0 1 1-3 0 1.5 1.5 0 0 1 3 0Z"/><path fill="#00D17F" d="M198 174h4v4h-4v-4Zm8 0h4v4h-4v-4Z"/><path fill="#0A0B0D" fill-rule="evenodd" d="M202 162c0 1.1.9 2 2 2a2 2 0 0 0 2-2h-4Z" clip-rule="evenodd"/><path fill="#101114" d="M186 165h-29.48l-13-16.49 1.58-1.24L157.49 163h28.5v2Zm23-43.48h-50.5v-2H207V112h2v9.52Z"/><path fill="#00D17F" d="M26 94V66h28v28H26Z"/><path fill="#0A0B0D" d="M30 82h4v8h-4v-8Zm8-4h4v12h-4V78Zm8-4h4v16h-4V74Z"/><path fill="#CED2DB" d="M10 66h16v-4H10v4Zm24-12h-8v8h8v-8Zm11.81 145.95C42.06 202.44 40 205.16 40 208v-16c0 2.81 2.06 5.49 5.81 7.95ZM200 192v16c0-2.84-2.06-5.56-5.81-8.05 3.75-2.46 5.8-5.14 5.8-7.95Z"/><path fill="#5DE2F8" d="M45.81 199.95C42.06 202.44 40 205.16 40 208v-16c0 2.81 2.06 5.49 5.81 7.95ZM200 192v16c0-2.84-2.06-5.56-5.81-8.05 3.75-2.46 5.8-5.14 5.8-7.95Z"/><path fill="#101114" d="M63.14 145.72H51.25v-2H62.6l21.9-12.81 1.01 1.73-22.37 13.08Z"/><path fill="#FFD200" d="M8 168v-48h48v48H8Z"/><path fill="#0A0B0D" d="M49.09 156.72c.04.42.05.84.03 1.25a8.36 8.36 0 0 0-4.52-3.35l-.34-3.24c-2.47-16.6-14.21-18.71-16.54-18.96 1.97-2 5.15-3.16 8.03-2.37.4.11.8.25 1.17.42-1.36.3-2.62.94-3.67 1.85a7.92 7.92 0 0 1 7.53 1.05c-1.15 0-2.3.25-3.34.72a7.89 7.89 0 0 1 6.22 2.8 8.52 8.52 0 0 0-3.66-.02 7.9 7.9 0 0 1 6.1 3.85 8.32 8.32 0 0 0-3.72-.62 7.95 7.95 0 0 1 5.33 4.9 8.37 8.37 0 0 0-3.51-1.28 7.9 7.9 0 0 1 4.49 5.68 8.39 8.39 0 0 0-2.88-1.69 7.87 7.87 0 0 1 3.33 5.94 8.3 8.3 0 0 0-2.75-2.1 7.92 7.92 0 0 1 2.7 5.17Z"/><path fill="#CED2DB" d="M28.73 136.1c-.05.09-.09.2-.12.31l-.03.12.03-.12c.03-.11.07-.21.13-.31h-.01Zm.17-.25Zm.52-.35a.76.76 0 0 0-.18.09l.18-.09Z"/><path fill="#FFFFFF" d="m37.8 146.18-.05-.31-.12-.6-.04-.19-.05-.21a1.05 1.05 0 0 1-.04-.17l-.15-.56a7.3 7.3 0 0 0-.16-.5v-.04l-.1-.25c-.06-.17-.12-.34-.2-.51a.87.87 0 0 0-.1-.25 2.44 2.44 0 0 1-.1-.24 3.96 3.96 0 0 0-.21-.47 4.6 4.6 0 0 1-.11-.23l-.12-.23-.24-.44a5.7 5.7 0 0 0-.53-.82l-.14-.2-.14-.2-.14-.19a15 15 0 0 0-.61-.74l-.15-.17c-.21-.23-.43-.46-.66-.68l-.17-.16-.17-.16a2.65 2.65 0 0 1-.17-.16l-.18-.16-.36-.3a12 12 0 0 0-.75-.58l-.4-.29-.38-.27-.4-.27-.27-.14-.1-.03a1.24 1.24 0 0 0-.46-.05l-.1.01a.36.36 0 0 0-.1.02l-.1.03-.1.03a.76.76 0 0 0-.18.09l-.1.05-.08.06-.07.06-.08.08a1.43 1.43 0 0 0-.3.57l-.03.12-.08.19a.44.44 0 0 1-.12.15.78.78 0 0 1-1.06.03l-.12-.14-.1-.17-1.76-4.91.03.1.08.27.03.13.02.09.04.21c0 .07.02.13.03.2v.05l.02.19v.21c0 .04 0 .08-.02.12v.06l-.06.12v.02l-.1.11a.36.36 0 0 1-.15.08.65.65 0 0 1-.64-.17l-.03-.04a.43.43 0 0 0-.06-.07l-.06-.09-.07.09-.85 1.06-.85 1.06-2.66 3.31c-.16.2-.22.46-.16.71l.23.99-4.7 6.71a2.2 2.2 0 0 0-.35 1.7l.15.74c.18.93.9 1.67 1.83 1.88l1.17.27c.63.15 1.3.03 1.85-.33l.74-.48a.9.9 0 0 0 .4-.76v-.46l1.49-3.98a5.2 5.2 0 0 0 2.54 1.37 4.14 4.14 0 0 0 3.1-.65l.15-.1.25-.18.15-.12.05-.04.16-.14.18-.17c.04-.04.08-.08.1-.12l.12-.12.1-.12.09-.12.09-.12c.09-.12.17-.25.24-.37l.2-.38a5.8 5.8 0 0 0 .5-2.21c.02-.6-.06-.99-.06-.99l.06.04.03.03.12.11.05.05.27.31.1.14c.15.23.3.51.44.87a5.35 5.35 0 0 1 .33 1.95 7 7 0 0 1-.34 2.21l-.1.3-.02.09a4.2 4.2 0 0 1-.2.49l-.11.28a10.16 10.16 0 0 1-.84 1.56l-.12.18c-.06.09-.12.19-.2.28l-.26.37c-.63.86-1.24 1.49-1.57 1.81l-.1.08-.13.13-.01.01h-.01l-.15.18c-2.41 2.7-4.83 3.38-6.26 6.85h15.23l.44-1.41c.89-5.01.97-8.87.46-11.94l.03.01Zm-20.87 3.27-.33.45c-.13.18-.42.12-.46-.1l-.2-.99a.75.75 0 0 1 .35-.79.41.41 0 0 1 .19-.05c.1 0 .2.05.28.14l.14.18c.27.34.28.83.02 1.18v-.02Zm6.15-9.76c-.35.43-.9.61-1.4.51a1.44 1.44 0 0 1 1.6-1.99c.2.47.15 1.04-.2 1.48Zm10.82 16.4-4.6.44c-.41.04-.63-.49-.31-.76 1.07-.93 2.26-1.77 3.44-3.09a7.9 7.9 0 0 0 1.57-2.77c.08-.24.44-.21.46.05l.46 4.89c.06.62-.4 1.17-1.02 1.23v.01Z"/><path fill="#FFFFFF" d="M16.92 148.27c.27.34.28.83.02 1.18l-.33.45c-.13.18-.42.12-.46-.1l-.2-.99a.75.75 0 0 1 .35-.79.41.41 0 0 1 .2-.05c.1 0 .2.05.27.14l.14.18.01-.02Zm4.78-8.07a1.44 1.44 0 0 1 1.6-1.99 1.44 1.44 0 0 1-1.6 1.99Zm1.01-4.73.85-1.06.02-.02.84-1.04-.85 1.06-.85 1.06Zm2.66-3.69-.04-.14.02.04.03.1h-.01Zm2.73 20.7v.01-.01Zm.47-15.95.03-.12c.03-.11.07-.21.13-.31-.05.09-.09.2-.12.31l-.03.12Zm.33-.68Zm.52-.35a.76.76 0 0 0-.18.09l.18-.09Zm1.48 13.37Zm.3-7.14Zm.1 6.33Zm.45-5.33Zm-.01 4.17.16-.61-.16.61Zm.16-.61a7.7 7.7 0 0 0 .18-1.6c0-.2 0-.39-.02-.57a7 7 0 0 1-.15 2.17h-.01Zm-2.9 9.47c1.07-.93 2.26-1.77 3.44-3.09A7.9 7.9 0 0 0 34 149.9c.08-.24.44-.21.46.05l.46 4.89c.06.62-.4 1.17-1.02 1.23l-4.6.44c-.41.04-.63-.49-.31-.76v.01Zm-3.77-8.62-1.6 1.05-2.42 1.57 1.48-3.98a5.2 5.2 0 0 0 2.54 1.37v-.01Z"/><path fill="#0A0B0D" d="M25.6 133v.12c0 .04 0 .08-.02.12v.06l-.06.12v.02l-.1.11a.36.36 0 0 1-.15.08.65.65 0 0 1-.64-.17l-.03-.04-.06-.07-.06-.09c-.04-.09-.94-2.08-.27-4.36 0 0 .35.7.69 1.57l.43 1.18v.04l.04.1.08.27.03.13.02.09.04.21c0 .07.02.13.03.2v.05l.02.19v.09-.02Zm-8.66 16.45-.33.45c-.13.18-.42.12-.46-.1l-.2-.99a.75.75 0 0 1 .35-.79.41.41 0 0 1 .2-.05c.1 0 .2.05.27.14l.14.18c.27.34.28.83.02 1.18l.01-.02Z"/><path fill="#CED2DB" d="M32.08 144.68a7 7 0 0 1-.34 2.21l-.1.3-.02.09a4.2 4.2 0 0 1-.2.49l-.11.28a10.16 10.16 0 0 1-.84 1.56l-.12.18c-.06.09-.12.19-.2.28l-.26.37a14.53 14.53 0 0 1-1.66 1.89l-.14.13-.01.01a9.23 9.23 0 0 0 1.9-5.59.8.8 0 0 0-1.22-.69l-.28.18.25-.18.15-.12.05-.04a2 2 0 0 0 .16-.14l.18-.17c.04-.04.08-.08.1-.12l.12-.12.1-.12.09-.12.09-.12c.09-.12.17-.25.24-.37l.2-.38a5.45 5.45 0 0 0 .44-3.2l.06.04.03.03.12.11.05.05.27.31.1.14c.15.23.3.51.44.87a5.35 5.35 0 0 1 .33 1.95l.03.01Z"/><path fill="#0A0B0D" d="M23.1 139.69c-.36.43-.9.61-1.4.51a1.44 1.44 0 0 1 1.6-1.99c.2.47.14 1.04-.2 1.48Z"/><path fill="#FFFFFF" d="m16.63 128.84 6.08 6.62 1.7-2.12-7.78-4.51v.01Z"/><path fill="#CED2DB" d="M37.35 158.12c.89-5.01.97-8.87.46-11.94l-.05-.31-.04-.21-.08-.39-.04-.19-.05-.21-.04-.17-.15-.56-.16-.5v-.04l-.1-.25c-.06-.17-.12-.34-.2-.51a.87.87 0 0 0-.1-.25 6.7 6.7 0 0 0-.32-.71l-.1-.23-.12-.23-.24-.44-.13-.21a5.66 5.66 0 0 0-.4-.61l-.14-.2-.14-.2-.14-.19a15 15 0 0 0-.61-.74l-.15-.17a14.1 14.1 0 0 0-.66-.68l-.17-.16-.17-.16-.17-.16-.18-.16-.36-.3-.37-.3c-.06-.05-.12-.1-.2-.14a2.3 2.3 0 0 0-.18-.14l-.4-.29-.38-.27-.4-.27-.27-.14-.1-.03c-.14-.05-.3-.06-.46-.05l-.1.01a.36.36 0 0 0-.1.02l-.1.03-.1.03a.76.76 0 0 0-.18.09l-.1.05-.08.06-.07.06-.08.08a.93.93 0 0 0-.18.26c-.05.09-.1.2-.13.31l-.03.12-.08.19a.44.44 0 0 1-.12.15.78.78 0 0 1-1.06.03 1.74 1.74 0 0 1-.12-.14l-.1-.17-1.77-4.95c-.12-.4-.27-.8-.43-1.18-.35-.86-.7-1.57-.7-1.57s1.94.9 3.12 3.48c0 0 .14 0 .4.03 2.33.26 14.07 2.36 16.54 18.96l.34 3.24.5 4.91h-8.2l.44-1.41v.02Z"/><path fill="#101114" d="M95 92.83 82.6 81l-28.59.18-.02-2L83.4 79l12.98 12.38L95 92.83Z"/><path fill="#0052FF" d="M56 198.73v12.8c6.47 2.27 14.63 4.2 24 5.63v-12.8c-9.37-1.43-17.53-3.36-24-5.63Z"/><path fill="#0052FF" d="M120 213.2c-14.57 0-28.23-1.03-40-2.84v6.8c-2.78-.42-5.44-.9-8-1.41v12.01c13.37 2.67 29.99 4.24 48 4.24s34.63-1.57 48-4.24v-18.8c-13.37 2.67-29.99 4.24-48 4.24Z"/><path fill="#0052FF" d="M80 210.36v-6c-9.37-1.43-17.53-3.36-24-5.63v12.8c4.55 1.6 9.95 3.02 16 4.22v-6.79c2.55.51 5.22.98 8 1.4Zm108 5.82v10.8c-6.94 2.96-16.58 5.43-28 7.18v-10.8c11.42-1.75 21.06-4.22 28-7.18Z"/><path fill="#5DE2F8" d="M184 44.72v18.8c10.04-3.54 16-7.95 16-12.72V32c0 4.77-5.96 9.18-16 12.72Zm-80 8.05v18.8c-15.4-.83-29.2-2.83-40-5.63V47.13c10.8 2.81 24.6 4.81 40 5.64Z"/><path fill="#0052FF" d="M80 10.88V29.4c-2.78.43-5.45.91-8 1.42V12.3c2.55-.51 5.22-.99 8-1.42Zm24 41.89v18.8a228.85 228.85 0 0 1-32-3.82v-18.8c9.3 1.86 20.18 3.18 32 3.82Z"/><path fill="#0A0B0D" d="M168 221.96c-2.55.51-5.22.98-8 1.4v5.8c2.78-.43 5.45-.9 8-1.4v-5.8Z"/><path fill="#FFFFFF" d="M160 55.07v-.08a39.99 39.99 0 0 0-79.98 0v.22h.02c.37 5.31 18.13 9.58 39.98 9.58 21.85 0 39.6-4.28 39.98-9.58h.02v-.14H160Z"/><path fill="#5DE2F8" d="M104 52.77v11.21c-13.92-1.48-23.71-4.84-23.98-8.77H80v-.17l.01-.06c.01-1.55.1-3.08.29-4.58 7.26 1.1 15.24 1.91 23.7 2.37Z"/><path fill="#0A0B0D" d="M72 208.96a118.26 118.26 0 0 1-16-4.23v6.8c4.55 1.6 9.95 3.02 16 4.22 2.56.51 5.22.99 8 1.41v-6.8c-2.78-.43-5.45-.9-8-1.4Zm116 7.22v5.8c-6.94 2.96-16.58 5.43-28 7.18v-5.8c11.42-1.75 21.06-4.22 28-7.18Z"/><path fill="#FFFFFF" d="M160 180.79a40 40 0 0 1-80 0h80Z"/><path fill="#0A0B0D" d="M120 190.71c22.1 0 40-4.37 40-9.75 0-5.39-17.9-9.75-40-9.75s-40 4.36-40 9.75c0 5.38 17.9 9.75 40 9.75Z"/><path fill="#5DE2F8" d="M144.8 212.16a39.84 39.84 0 0 1-24.8 8.63 39.84 39.84 0 0 1-24.81-8.63 287.4 287.4 0 0 0 24.8 1.04c8.67 0 17-.36 24.82-1.04Z"/></svg>