<svg xmlns="http://www.w3.org/2000/svg" fill="none" viewBox="0 0 240 240"><path fill="#CED2DB" d="M96 168H0v-16h96v16Zm0-24v-8H0v8h96ZM0 112v8h96v-8H0Zm96-8V56H0v48h96Z"/><path fill="#5DE2F8" d="M0 24h63v64H0z"/><path fill="#0052FF" d="M96 240h144V0H96v240Z"/><path fill="#5DE2F8" d="M96 216h144V24H96v192Z"/><path fill="#0A0B0D" d="M168 14a2 2 0 1 0 0-4 2 2 0 0 0 0 4Zm8 212h-16v4h16v-4Z"/><path fill="#0052FF" d="M96 56h72.5v128h-54L96 176V56Z"/><path fill="#5DE2F8" d="M115 104H96v8h19v-8Zm0 16H96v16h19v-16Zm17 24H96v8h36v-8Z"/><path fill="#FFD200" d="M232 120c0 35.346-28.654 64-64 64-35.346 0-64-28.654-64-64 0-35.346 28.654-64 64-64 35.346 0 64 28.654 64 64Z"/><path fill="#0A0B0D" fill-rule="evenodd" d="M168 171c28.167 0 51-22.833 51-51 0-28.166-22.833-51-51-51s-51 22.834-51 51c0 28.167 22.833 51 51 51Zm0 2c29.271 0 53-23.729 53-53s-23.729-53-53-53-53 23.729-53 53 23.729 53 53 53Z" clip-rule="evenodd"/><path fill="#0A0B0D" fill-rule="evenodd" d="M167 141V99h2v42h-2Z" clip-rule="evenodd"/><path fill="#0A0B0D" fill-rule="evenodd" d="M147 119h42v2h-42v-2Z" clip-rule="evenodd"/><path fill="#5DE2F8" d="M0 168h97l-13.451 22.875L97 216H0v-48Z"/><path fill="#73A2FF" d="M96 56c0 17.673-14.327 32-32 32-17.673 0-32-14.327-32-32 0-17.673 14.327-32 32-32 17.673 0 32 14.327 32 32Z"/><path fill="#FFFFFF" d="M64 40a53.054 53.054 0 0 0 16 16 53.054 53.054 0 0 0-16 16 53.054 53.054 0 0 0-16-16 53.054 53.054 0 0 0 16-16Z"/><path fill="#00D17F" d="M120 192c0 13.255-10.745 24-24 24s-24-10.745-24-24 10.745-24 24-24 24 10.745 24 24Z"/><path fill="#0052FF" d="M96 216c6.365 0 12.47-2.529 16.971-7.029a24.005 24.005 0 0 0 0-33.942A24.005 24.005 0 0 0 96 168v48Z"/><path fill="#0A0B0D" fill-rule="evenodd" d="M96 178c-7.732 0-14 6.268-14 14s6.268 14 14 14 14-6.268 14-14-6.268-14-14-14Zm-16 14c0-8.837 7.163-16 16-16s16 7.163 16 16-7.163 16-16 16-16-7.163-16-16Z" clip-rule="evenodd"/><path fill="#0A0B0D" fill-rule="evenodd" d="M110 192c0-7.732-6.268-14-14-14v-2c8.837 0 16 7.163 16 16s-7.163 16-16 16v-2c7.732 0 14-6.268 14-14Z" clip-rule="evenodd"/><path fill="#FFFFFF" d="m229 72-13.18-2.82L213 56l-2.84 13.18L197 72l13.16 2.84L213 88l2.82-13.16L229 72Z"/></svg>