<svg xmlns="http://www.w3.org/2000/svg" fill="none" viewBox="0 0 240 240"><path fill="#CED2DB" d="M216 0H0v144h216V0Z"/><path fill="#CED2DB" d="M240 32H24v144h216V32Z"/><path fill="#0052FF" d="M24 40c0-4.4 3.6-8 8-8h184v104c0 4.4-3.6 8-8 8H24V40Z"/><path fill="#0A0B0D" d="M24 52h192v25H24V52Z"/><path fill="#FFFFFF" d="M40 88h72v8H40v-8Zm0 16h48v8H40v-8Z"/><path fill="#0A0B0D" fill-rule="evenodd" d="M72 121H56v-2h16v2Zm-16 0H40v-2h16v2Zm40 0H80v-2h16v2Zm48-34h57v18h-57V87Zm2 2v14h53V89h-53Z" clip-rule="evenodd"/><path fill="#FF3344" d="M119.898 240c22.092 0 40-17.909 40-40s-17.908-40-40-40c-22.091 0-40 17.909-40 40s17.909 40 40 40Z"/><path fill="#0A0B0D" d="M121.087 207.193h-2.996L116.594 185h5.99l-1.497 22.193Zm-1.496 9.53c1.633 0 2.995-1.362 2.995-3.132s-1.362-3.131-2.995-3.131c-1.634 0-2.996 1.361-2.996 3.131-.136 1.634 1.226 3.132 2.996 3.132Z"/></svg>