<svg xmlns="http://www.w3.org/2000/svg" fill="none" viewBox="0 0 240 240"><path fill="#CED2DB" d="M0 152V32h120L0 152Zm240-63.8v120H120l120-120Z"/><path fill="#00D17F" d="M208 64H32v112h176V64Z"/><path fill="#00D17F" d="M208 64H32v112h176V64Z"/><path fill="#0052FF" d="M208 120.2 152.2 176H208v-55.8ZM88 64H32v56l56-56Z"/><path fill="#0A0B0D" fill-rule="evenodd" d="M41 167V73h158v94H41Zm2-2h154V75H43v90Z" clip-rule="evenodd"/><path fill="#0A0B0D" d="M199 167H41V73h158v94Zm-156-2h154V75H43v90Z"/><path fill="#0A0B0D" fill-rule="evenodd" d="M119.5 94.5v51h-2v-51h2Z" clip-rule="evenodd"/><path fill="#0A0B0D" fill-rule="evenodd" d="M144 121H92.9v-2H144v2Z" clip-rule="evenodd"/><path fill="#0A0B0D" fill-rule="evenodd" d="m138.31 101.5-38.3 38.4-1.42-1.4 38.3-38.4 1.42 1.4Z" clip-rule="evenodd"/><path fill="#0A0B0D" fill-rule="evenodd" d="m136.9 139.9-38.3-38.4 1.41-1.4 38.3 38.4-1.42 1.4ZM56 127h24v2H56v-2Zm104 0h24v2h-24v-2Zm0-16h24v2h-24v-2Zm-104 0h24v2H56v-2Z" clip-rule="evenodd"/></svg>