<svg xmlns="http://www.w3.org/2000/svg" fill="none" viewBox="0 0 240 240"><path fill="#3CC28A" d="M239.993 240q.007-.78.007-1.563C240 173.026 204.182 120 160 120s-80 53.026-80 118.437q0 .783.007 1.563z"/><path fill="#5DE2F8" d="M139.993 240q.007-.64.007-1.281C140 189.721 108.66 150 70 150S0 189.721 0 238.719q0 .641.007 1.281z"/><path fill="#0A0B0D" d="M80.007 240h59.986q.007-.64.007-1.28c0-35.048-16.034-65.349-39.313-79.762C87.831 179.973 80 207.851 80 238.437q0 .783.007 1.563m121.6 0q.282-1.839.283-3.75c0-14.498-12.536-26.25-28-26.25s-28 11.752-28 26.25q.002 1.911.284 3.75z"/><path fill="#0A0B0D" d="M127 149h30v91h-30z"/><path fill="#0052FF" d="M181.716 240q.282-1.839.284-3.75c0-14.498-12.536-26.25-28-26.25s-28 11.752-28 26.25q.001 1.911.283 3.75z"/><path fill="#0052FF" d="M107 149h30v91h-30zm33.401-110.654c-1.663-4.945-5.13-8.346-9.139-8.346-3.754 0-7.034 2.983-8.801 7.424-3.731-2.775-7.986-3.592-11.223-1.716-5 2.897-5.673 11.121-1.503 18.37 4.17 7.248 15.958 18.347 20.958 15.45a3.55 3.55 0 0 0 1.098-1.014q.181-.03.36-.082c.317.462.701.832 1.156 1.096 5 2.897 16.788-8.202 20.958-15.45s3.496-15.473-1.503-18.37c-3.571-2.07-8.383-.862-12.361 2.638m-80.621 66.71c2.864-10.916-23.065-37.009-34.045-39.53-10.979-2.524-22.2 4.28-25.065 15.197-2.864 10.916 3.715 21.81 14.694 24.332s41.553 10.916 44.417 0"/><path fill="#0052FF" d="M59.78 108.94c2.864 10.916-23.065 37.008-34.045 39.53-10.979 2.523-22.2-4.282-25.065-15.198-2.864-10.916 3.715-21.81 14.694-24.332s41.553-10.916 44.417 0"/><path fill="#E13947" d="M214.095 109.832c-1.241 4.679 9.995 15.862 14.753 16.943 4.757 1.081 9.62-1.836 10.861-6.514 1.241-4.679-1.61-9.348-6.367-10.429-4.758-1.081-18.006-4.679-19.247 0"/><path fill="#E13947" d="M214.095 108.167c-1.241-4.678 9.995-15.861 14.753-16.942 4.757-1.081 9.62 1.835 10.861 6.514 1.241 4.678-1.61 9.347-6.367 10.429-4.758 1.081-18.006 4.678-19.247-.001"/><path fill="#CED2DB" d="M62 97.5c0 5.799-6.716 10.5-15 10.5s-15-4.701-15-10.5S38.716 87 47 87s15 4.7 15 10.5"/><path fill="#CED2DB" d="M221.399 109.599c0 31.48-36.789 56.999-86.318 56.999-49.53 0-89.682-25.519-89.682-56.999s40.152-57 89.682-57 86.318 25.52 86.318 57"/><path fill="#CED2DB" d="M62 97.5c0 5.799-6.716 10.5-15 10.5s-15-4.701-15-10.5S38.716 87 47 87s15 4.7 15 10.5m0 21c0 5.799-6.716 10.5-15 10.5s-15-4.701-15-10.5S38.716 108 47 108s15 4.701 15 10.5"/><path fill="#0A0B0D" fill-rule="evenodd" d="m160.009 122.786-30.474-15.9.925-1.773 30.474 15.9c9.007 4.699 12.367 15.9 7.433 24.78a18.06 18.06 0 0 1-20.537 8.652l-42.096-11.481.526-1.929 42.096 11.48a16.06 16.06 0 0 0 18.263-7.693c4.387-7.897 1.399-17.857-6.61-22.036" clip-rule="evenodd"/><path fill="#FFFFFF" d="M196 96c0 11.045-8.955 20-20 20s-20-8.955-20-20 8.954-20 20-20 20 8.954 20 20"/><path fill="#0A0B0D" d="M186 96c0 5.523-4.478 10-10 10s-10-4.477-10-10 4.477-10 10-10 10 4.477 10 10"/></svg>