<svg xmlns="http://www.w3.org/2000/svg" fill="none" viewBox="0 0 240 240"><g clip-path="url(#a)"><path fill="#CED2DB" d="M181.091 43.69a35.62 35.62 0 0 0-6.912.676c-1.716-8.377-7.262-15.522-15.048-19.39a29.073 29.073 0 0 0-24.879-.441c-7.171-19.327-28.998-29.307-48.753-22.29-19.753 7.017-29.953 28.374-22.781 47.7-17.304.535-30.973 14.549-30.714 31.485.26 16.939 14.353 30.543 31.667 30.57h117.42C200.369 112 216 96.708 216 77.845c0-18.864-15.631-34.155-34.909-34.155Z"/><circle cx="72" cy="112" r="16" fill="#5DE2F8"/><path fill="#0052FF" d="M87.997 112c0-8.837-7.163-16-16-16-8.527 0-15.497 6.672-15.974 15.08 2.45.597 5.01.916 7.645.92h24.33Z"/><circle cx="120" cy="112" r="16" fill="#00D17F"/><path fill="#0052FF" d="M136 112c0-8.837-7.163-16-16-16s-16 7.163-16 16h32Z"/><circle cx="168" cy="112" r="16" fill="#FFD200"/><path fill="#0052FF" d="M184 111.883C183.937 103.1 176.798 96 168 96c-8.837 0-16 7.163-16 16h29.091c.98 0 1.95-.039 2.909-.117Z"/><path fill="#5DE2F8" d="M0 152h48v48H0z"/><path fill="#00D17F" d="M96 192h48v48H96z"/><path fill="#FFD200" d="M192 152h48v48h-48z"/><path fill="#FFFFFF" d="m119.995 232 14.544-7.385v-17.504L119.995 200l-14.544 7.111v17.504L119.995 232Z"/><path fill="#FFFFFF" d="M120 200.001V232l14.543-7.384v-17.504L120 200.001Z"/><path fill="#0052FF" fill-rule="evenodd" d="m119.996 216 14.543-8.888v17.504L119.996 232v-16Z" clip-rule="evenodd"/><path fill="#0A0B0D" fill-rule="evenodd" d="m119.997 216-14.544-8.888v17.504L119.997 232v-16Z" clip-rule="evenodd"/><circle cx="216" cy="175.77" r="8" fill="#FFFFFF"/><path fill="#0A0B0D" d="M23.997 184.688c-7.942 0-14.38-2.281-14.38-5.093v7.489h.027c.438 2.673 6.696 4.794 14.353 4.794s13.915-2.121 14.353-4.794h.027v-7.489c0 2.812-6.438 5.093-14.38 5.093Zm-14.38-5.393v.3c0-.101.011-.2.027-.3h-.027Zm28.735 0c.016.1.027.199.027.3v-.3h-.027Z"/><path fill="#0052FF" d="M23.997 177.498c-7.942 0-14.38-2.281-14.38-5.093v7.489h.027c.438 2.673 6.696 4.794 14.353 4.794s13.915-2.121 14.353-4.794h.027v-7.489c0 2.812-6.438 5.093-14.38 5.093Zm-14.38-5.393v.3c0-.101.011-.2.027-.3h-.027Zm28.735 0c.016.1.027.199.027.3v-.3h-.027Zm-14.355-1.797c7.942 0 14.38-2.28 14.38-5.093s-6.438-5.093-14.38-5.093c-7.942 0-14.38 2.28-14.38 5.093s6.438 5.093 14.38 5.093Z"/><path fill="#FFFFFF" d="M23.997 170.308c-7.942 0-14.38-2.281-14.38-5.093v7.489h.027c.438 2.673 6.696 4.794 14.353 4.794s13.915-2.121 14.353-4.794h.027v-7.489c0 2.812-6.438 5.093-14.38 5.093Z"/><path fill="#101114" d="M73.008 112v2h-2v-2h2Zm0 6v4h-2v-4h2Zm0 8v4h-2v-4h2Zm0 8v4h-2v-4h2Zm0 8v4h-2v-4h2Zm0 8v4h-2v-4h2Zm0 8v4h-2v-4h2Zm0 8v4h-2v-4h2Zm-2 8h2v3h-3v-2h1v-1Zm-21 3h-2v-2h2v2Zm8 0h-4v-2h4v2Zm8 0h-4v-2h4v2Zm55-65h-2v18h2v-18Zm-2 22v4h2v-4h-2Zm0 8v4h2v-4h-2Zm0 8v4h2v-4h-2Zm0 8v4h2v-4h-2Zm0 8v4h2v-4h-2Zm0 8v4h2v-4h-2Zm0 8v4h2v-4h-2Zm0 8v2h2v-2h-2Zm48-78v2h2v-2h-2Zm0 6v4h2v-4h-2Zm2 8h-2v4h2v-4Zm-2 8v4h2v-4h-2Zm0 8v4h2v-4h-2Zm0 8v4h2v-4h-2Zm0 8v4h2v-4h-2Zm0 8v4h2v-4h-2Zm2 8h-2v3h3v-2h-1v-1Zm5 3h4v-2h-4v2Zm8 0h4v-2h-4v2Zm8 0h2v-2h-2v2ZM9.625 164.915v.3c0-.101.01-.201.027-.3h-.027Zm28.761.3c0-.101-.01-.201-.027-.3h.027v.3Z"/><path fill="#0052FF" d="M232 173.296v5.408l-4.25.523a12.013 12.013 0 0 1-1.163 2.797l2.594 3.335-3.822 3.822-3.335-2.594c-.885.506-1.821.896-2.796 1.163l-.524 4.25h-5.408l-.523-4.25a12.013 12.013 0 0 1-2.797-1.163l-3.335 2.594-3.822-3.822 2.594-3.335a12.013 12.013 0 0 1-1.163-2.797l-4.25-.523v-5.408l4.25-.524c.267-.975.657-1.911 1.163-2.796l-2.594-3.334 3.822-3.823 3.335 2.594a12.013 12.013 0 0 1 2.797-1.163l.523-4.25h5.408l.524 4.25c.975.267 1.911.657 2.796 1.163l3.335-2.594 3.822 3.823-2.594 3.334c.506.885.896 1.821 1.163 2.796l4.25.524Zm-16-3.858a6.569 6.569 0 0 0-6.562 6.562 6.569 6.569 0 0 0 6.562 6.562 6.569 6.569 0 0 0 6.562-6.562 6.569 6.569 0 0 0-6.562-6.562Z"/><circle cx="216" cy="176" r="4" fill="#0A0B0D"/></g><defs><clipPath id="a"><path fill="#FFFFFF" d="M0 0h240v240H0z"/></clipPath></defs></svg>