<svg xmlns="http://www.w3.org/2000/svg" fill="none" viewBox="0 0 240 241"><path fill="#CED2DB" d="M31.75 63.9A20.67 20.67 0 0 0 47.65 48a20.67 20.67 0 0 0 15.9 15.9 20.67 20.67 0 0 0-15.9 15.9 20.67 20.67 0 0 0-15.9-15.9m128.203-40a20.67 20.67 0 0 0 15.9-15.9 20.67 20.67 0 0 0 15.9 15.9 20.67 20.67 0 0 0-15.9 15.9 20.67 20.67 0 0 0-15.9-15.9m-116 216.1 164.3-200-1.3 200z"/><path fill="#0052FF" fill-rule="evenodd" d="m63.75 80 56-39.3 56 39.3v136h-112zm56-11.8c3 0 5.5-2.5 5.5-5.5s-2.5-5.5-5.5-5.5-5.5 2.5-5.5 5.5 2.5 5.5 5.5 5.5" clip-rule="evenodd"/><path fill="#0A0B0E" d="m63.75 216 112-136v136z"/><path fill="#FFFFFE" d="M119.75 182c19.33 0 35-15.67 35-35s-15.67-35-35-35-35 15.67-35 35 15.67 35 35 35"/><path fill="#0A0B0E" d="M129.102 153.85c2.21 0 4 1.79 4 4s-1.79 4-4 4-4-1.79-4-4 1.79-4 4-4m0-2c-3.31 0-6 2.69-6 6s2.69 6 6 6 6-2.69 6-6-2.69-6-6-6m-19-18c2.21 0 4 1.79 4 4s-1.79 4-4 4-4-1.79-4-4 1.79-4 4-4m0-2c-3.31 0-6 2.69-6 6s2.69 6 6 6 6-2.69 6-6-2.69-6-6-6m20.95.577-24.24 30.04 1.557 1.256 24.239-30.04zM118.75 0h2v62.7c0 .55-.45 1-1 1s-1-.45-1-1z"/></svg>