<svg xmlns="http://www.w3.org/2000/svg" fill="none" viewBox="0 0 240 240"><path fill="#CED2DB" d="M208 32H32v208h176V32Z"/><path fill="#0052FF" d="M192 32H48v184h144V32Z"/><path fill="#0A0B0D" d="M120 226c23.196 0 42-18.804 42-42s-18.804-42-42-42-42 18.804-42 42 18.804 42 42 42Z"/><path fill="#FFFFFF" d="M120 144c22.09 0 40 17.91 40 40s-17.91 40-40 40-40-17.91-40-40 17.91-40 40-40Zm0-4c-24.26 0-44 19.74-44 44s19.74 44 44 44 44-19.74 44-44-19.74-44-44-44Z"/><path fill="#FFFFFF" fill-rule="evenodd" d="M121 152v33H96v-2h23v-31h2ZM79.707 50.707 69 61.414l-5.707-5.707 1.414-1.414L69 58.586l9.293-9.293 1.414 1.414Zm0 24L69 85.414l-5.707-5.707 1.414-1.414L69 82.586l9.293-9.293 1.414 1.414Zm0 24L69 109.414l-5.707-5.707 1.414-1.414L69 106.586l9.293-9.293 1.414 1.414Zm0 24L69 133.414l-5.707-5.707 1.414-1.414L69 130.586l9.293-9.293 1.414 1.414Z" clip-rule="evenodd"/><path fill="#0A0B0D" fill-rule="evenodd" d="M88 55h88v2H88v-2Zm0 24h88v2H88v-2Zm0 24h88v2H88v-2Zm0 24h88v2H88v-2Zm0-60h88v2H88v-2Zm0 24h88v2H88v-2Zm0 24h88v2H88v-2Z" clip-rule="evenodd"/><path fill="#CED2DB" d="M120 32c8.837 0 16-7.163 16-16s-7.163-16-16-16-16 7.163-16 16 7.163 16 16 16Z"/><path fill="#CED2DB" d="M192 32H48c0-8.84 7.16-16 16-16h112c8.84 0 16 7.16 16 16Z"/><path fill="#FFFFFF" d="M120 24a8 8 0 1 0 0-16 8 8 0 0 0 0 16Z"/><path fill="#CED2DB" d="m216 44.052 9.956-2.096L228.052 32l2.096 9.956L240 44.052l-9.852 2.096L228.052 56l-2.096-9.852L216 44.052Zm-216 112 9.956-2.096L12.052 144l2.097 9.956L24 156.052l-9.851 2.096L12.052 168l-2.096-9.852L0 156.052Z"/></svg>