<svg xmlns="http://www.w3.org/2000/svg" fill="none" viewBox="0 0 240 240"><path fill="#0A0B0E" d="M139.308 67.83c-1.23-.43-2.49-.82-3.76-1.16l.53-1.93c1.31.36 2.61.76 3.89 1.2l-.65 1.89zm-7.58-2.07c-1.28-.26-2.58-.47-3.88-.65l.26-1.98c1.34.18 2.69.4 4.01.67zm-7.79-1.04c-1.29-.09-2.62-.13-3.93-.13v-2c1.36 0 2.73.04 4.06.13z"/><path fill="#CED2DB" d="M28.273 123.6h51.73l40-40h-91.73z"/><path fill="#0A0B0E" d="M120 218.6c-6.63 0-13.25-.69-19.68-2.04l.41-1.96c6.29 1.33 12.78 2 19.27 2 51.28 0 93-41.72 93-93s-41.72-93-93-93-93 41.72-93 93c0 16.18 4.22 32.12 12.21 46.09l-1.74.99C29.31 156.41 25 140.13 25 123.6c0-52.38 42.62-95 95-95s95 42.62 95 95-42.62 95-95 95"/><path fill="#0A0B0E" d="M61 123.6h-2c0-33.64 27.36-61 61-61v2c-32.53 0-59 26.47-59 59"/><path fill="#CED2DB" d="M159.512 236.25c-1.63 0-3.17-1.01-3.76-2.63-.76-2.08.31-4.37 2.39-5.13 18.09-6.59 34.28-17.86 46.82-32.59a4.005 4.005 0 0 1 5.64-.45 4.005 4.005 0 0 1 .45 5.64c-13.44 15.79-30.79 27.86-50.17 34.92-.45.16-.91.24-1.37.24M19.823 69.78c-.68 0-1.37-.17-2-.54a4.01 4.01 0 0 1-1.46-5.47C37.703 26.9 77.393 4 119.943 4c2.21 0 4 1.79 4 4s-1.79 4-4 4c-39.71 0-76.74 21.37-96.66 55.78-.74 1.28-2.08 2-3.47 2zm48.655 78.3c-4.69-4.69-12.28-4.69-16.97 0 4.69-4.69 4.69-12.29 0-16.97 4.69 4.69 12.29 4.69 16.97 0-4.69 4.69-4.69 12.28 0 16.97M68 175.6H0v56h68z"/><path fill="#0A0B0D" d="M68 231.6c15.464 0 28-12.536 28-28s-12.536-28-28-28-28 12.536-28 28 12.536 28 28 28"/><path fill="#0052FF" d="M68.23 231.6h.05c15.31-.01 27.72-12.54 27.72-28s-12.42-28-27.74-28H68v56z"/><path fill="#FFFFFF" d="M68 226.6c-12.68 0-23-10.32-23-23s10.32-23 23-23 23 10.32 23 23-10.32 23-23 23m0-44c-11.58 0-21 9.42-21 21s9.42 21 21 21 21-9.42 21-21-9.42-21-21-21"/><path fill="#FFFFFF" d="M69 215.6h-2v-9.59l-4.3 4.3-1.41-1.42 4.29-4.29H56v-2h9.58l-4.29-4.29 1.41-1.42 4.3 4.3v-9.59h2v9.59l4.29-4.3 1.41 1.42-4.29 4.29H80v2h-9.59l4.29 4.29-1.41 1.42-4.29-4.3z"/><path fill="#CED2DB" d="M120 163.6h100v-39.73h-60z"/><path fill="#CED2DB" d="M120 163.6c22.091 0 40-17.909 40-40s-17.909-40-40-40-40 17.909-40 40 17.909 40 40 40"/><path fill="#0052FF" fill-rule="evenodd" d="M120 83.6v16c0 13.25-10.74 24-24 24H80c0-22.09 17.91-40 40-40m0 80v-16c0-13.26 10.75-24 24-24h16c0 22.09-17.91 40-40 40" clip-rule="evenodd"/><path fill="#FFFFFF" d="M120 147.6c0-13.26-10.74-24-24-24 13.26 0 24-10.74 24-24 0 13.26 10.75 24 24 24-13.25 0-24 10.74-24 24"/><path fill="#0A0B0D" d="M120 157.6c-18.75 0-34-15.25-34-34s15.25-34 34-34 34 15.25 34 34-15.25 34-34 34m0-66c-17.64 0-32 14.36-32 32s14.36 32 32 32 32-14.36 32-32-14.36-32-32-32"/><path fill="#CED2DB" d="M240 30.94h-64v32h64z"/><path fill="#0052FF" d="M176 62.94c8.837 0 16-7.163 16-16s-7.163-16-16-16-16 7.163-16 16 7.163 16 16 16"/><path fill="#FFFFFF" d="M176 52.94a6 6 0 1 0 0-12 6 6 0 0 0 0 12m48-22c0 4.42 3.58 8 8 8-4.42 0-8 3.58-8 8 0-4.42-3.58-8-8-8 4.42 0 8-3.58 8-8"/><path fill="#0052FF" d="M28.273 123.6c11.046 0 20-8.954 20-20s-8.954-20-20-20-20 8.954-20 20 8.955 20 20 20"/><path fill="#FFFFFF" d="M28.273 107.6a4 4 0 1 0 0-8 4 4 0 0 0 0 8"/><path fill="#CED2DB" d="M220.133 123.87c0 10.97 8.89 19.86 19.86 19.86-10.97 0-19.86 8.89-19.86 19.87"/><path fill="#0052FF" d="M220.128 163.6c0-10.97-8.89-19.87-19.87-19.87 10.97 0 19.87-8.89 19.87-19.86"/><path fill="#0A0B0E" d="M119.999 184.6c-4.26 0-8.51-.44-12.64-1.31l.41-1.96c3.99.84 8.11 1.27 12.23 1.27zm45.569-20.45-1.49-1.33a58.92 58.92 0 0 0 14.92-39.22h2a60.9 60.9 0 0 1-15.43 40.55"/><path fill="#0A0B0E" d="M120 184.6v-2c.87 0 1.73-.02 2.59-.06l.09 2c-.89.04-1.78.06-2.68.06m6.73-.37-.22-1.99c1.31-.14 2.62-.33 3.89-.56l.35 1.97c-1.32.24-2.67.43-4.02.58m8-1.42-.48-1.94c1.27-.31 2.54-.68 3.78-1.07l.61 1.9c-1.28.41-2.6.79-3.91 1.11m7.74-2.48-.74-1.86c1.21-.48 2.42-1.01 3.6-1.57l.86 1.81a58 58 0 0 1-3.73 1.62zm7.34-3.49-.98-1.74c1.13-.64 2.26-1.32 3.36-2.04l1.09 1.68c-1.13.74-2.3 1.45-3.48 2.11zm6.81-4.44-1.2-1.6c1.05-.79 2.08-1.62 3.06-2.47l1.3 1.52c-1.02.88-2.09 1.74-3.17 2.55zm6.16-5.3-1.4-1.42c.94-.93 1.85-1.89 2.71-2.85l1.49 1.33c-.89 1-1.83 1.99-2.8 2.94m1.421-82.57c-5.83-6.59-13.17-11.88-21.24-15.29l.78-1.84c8.34 3.53 15.93 8.99 21.96 15.81z"/><path fill="#0A0B0E" d="M181.001 123.6h-2c0-1.13-.03-2.27-.09-3.38l2-.11c.07 1.15.1 2.33.1 3.5zm-2.45-7.3c-.16-1.29-.36-2.6-.61-3.88l1.96-.38c.25 1.33.47 2.68.63 4.02zm-1.48-7.72c-.33-1.26-.71-2.53-1.12-3.77l1.9-.64c.43 1.28.82 2.59 1.16 3.9zm-2.5-7.45c-.49-1.2-1.04-2.4-1.62-3.58l1.79-.88c.6 1.22 1.16 2.47 1.67 3.71l-1.85.76zm-3.47-7.05-.69-1.17c-.45-.73-.91-1.46-1.39-2.17l1.66-1.12c.49.74.97 1.48 1.44 2.24.24.4.48.8.72 1.21l-1.73 1zm-4.38-6.53c-.79-1.03-1.63-2.05-2.51-3.03l1.5-1.32c.9 1.02 1.77 2.07 2.59 3.13z"/></svg>