<svg xmlns="http://www.w3.org/2000/svg" fill="none" viewBox="0 0 240 240"><path fill="#CED2DB" d="M56 216h152V0H56v216Z"/><path fill="#CED2DB" d="M32 240h152V24H32v216Z"/><path fill="#0052FF" d="M56 24h128v192H56V24Z"/><path fill="#FFFFFF" d="M72.38 196.88a3.12 3.12 0 0 0-3.18 3.16 3.09 3.09 0 0 0 3.18 3.16c1.82 0 3.2-1.37 3.2-3.17a3.1 3.1 0 0 0-3.2-3.15Zm0 5.01c-1 0-1.75-.79-1.75-1.84 0-1.08.73-1.87 1.75-1.87 1.03 0 1.77.8 1.77 1.86s-.74 1.85-1.76 1.85Zm3.6-3.63h.88v4.82h1.42V197h-2.3v1.26Zm-10.36-.07c.75 0 1.34.45 1.56 1.14h1.5a2.98 2.98 0 0 0-3.04-2.45 3.12 3.12 0 0 0-3.19 3.16 3.09 3.09 0 0 0 3.19 3.16 3 3 0 0 0 3.04-2.46h-1.5a1.6 1.6 0 0 1-1.55 1.15c-1.02 0-1.75-.79-1.75-1.84 0-1.08.71-1.87 1.74-1.87Zm37.32 1.27-1.04-.16c-.5-.07-.85-.23-.85-.62 0-.43.46-.64 1.09-.64.68 0 1.12.3 1.22.78h1.37c-.16-1.22-1.1-1.94-2.56-1.94-1.5 0-2.5.76-2.5 1.85 0 1.03.66 1.63 1.97 1.82l1.04.15c.51.07.8.28.8.65 0 .48-.5.68-1.19.68-.84 0-1.31-.34-1.38-.85h-1.4c.13 1.18 1.07 2.02 2.77 2.02 1.55 0 2.58-.7 2.58-1.92 0-1.08-.75-1.65-1.92-1.82Zm-25.37-4.97a.88.88 0 0 0-.91.9c0 .51.39.89.91.89s.91-.38.91-.9c0-.51-.39-.9-.91-.9Zm20.83 4.59c0-1.32-.8-2.2-2.5-2.2-1.62 0-2.52.81-2.7 2.06h1.41c.08-.48.45-.88 1.26-.88.72 0 1.07.31 1.07.7 0 .5-.65.64-1.45.72-1.09.12-2.44.5-2.44 1.9 0 1.1.82 1.8 2.12 1.8 1.02 0 1.66-.42 1.98-1.09.04.6.5 1 1.12 1h.83v-1.27h-.7v-2.74Zm-1.4 1.53c0 .81-.7 1.41-1.57 1.41-.53 0-.98-.22-.98-.7 0-.6.72-.76 1.38-.83.64-.06 1-.2 1.17-.47v.59Zm-7.53-3.73c-.8 0-1.46.33-1.93.88v-3.33h-1.42v8.65h1.4v-.8c.47.58 1.14.92 1.95.92 1.7 0 3-1.34 3-3.16 0-1.8-1.32-3.16-3-3.16Zm-.21 5.01c-1.02 0-1.77-.79-1.77-1.84 0-1.06.76-1.87 1.78-1.87 1.03 0 1.75.8 1.75 1.86s-.75 1.85-1.76 1.85Zm-6.53-5.01c-.93 0-1.53.37-1.88.9V197h-1.41v6.08h1.42v-3.3c0-.94.59-1.6 1.46-1.6.82 0 1.33.58 1.33 1.42v3.48h1.42v-3.59c0-1.53-.8-2.61-2.34-2.61Zm28.9 2.97a2.88 2.88 0 0 0-3-2.97 3.08 3.08 0 0 0-3.16 3.16c0 1.9 1.43 3.16 3.19 3.16 1.47 0 2.63-.87 2.93-2.1h-1.48c-.21.53-.73.84-1.43.84-.91 0-1.6-.56-1.75-1.55h4.7v-.54Zm-4.62-.48a1.6 1.6 0 0 1 1.6-1.26c.8 0 1.42.46 1.56 1.26H107Zm51.69-7.85-2.52 11.69h-3.06l2.52-11.7h3.06Zm12.88 7.54 1.6-4.4.93 4.4h-2.53Zm3.41 4.15h2.84l-2.48-11.7h-2.61c-.28 0-.55.08-.78.24-.23.15-.41.38-.52.62l-4.6 10.84h3.22l.64-1.75h3.93l.37 1.75Zm-7.98-3.83c.01-3.08-4.32-3.25-4.28-4.64 0-.42.4-.87 1.3-.97 1.03-.1 2.08.08 3.01.52l.54-2.47a8.15 8.15 0 0 0-2.87-.52c-3.03 0-5.15 1.59-5.16 3.87-.02 1.68 1.52 2.63 2.68 3.18 1.2.57 1.6.95 1.58 1.46 0 .78-.95 1.13-1.83 1.15a6.41 6.41 0 0 1-3.15-.74l-.55 2.56c1.08.42 2.23.63 3.4.62 3.22 0 5.32-1.58 5.33-4.02Zm-12.67-7.86-4.96 11.69h-3.23l-2.44-9.34a1.27 1.27 0 0 0-.73-1.03 13.1 13.1 0 0 0-3.01-1l.07-.34h5.21c.34 0 .67.12.93.34.26.21.44.52.5.85l1.28 6.77 3.2-7.97 3.18.03Zm7.64-7.3h1.13a1.85 1.85 0 0 1 1.55.5 1.89 1.89 0 0 1 .62 1.49v.04a1.97 1.97 0 0 1-.62 1.51c-.21.2-.46.34-.73.42-.27.09-.55.12-.84.08h-1.11v-4.04Zm1.1 3.63a1.5 1.5 0 0 0 1.22-.42 1.41 1.41 0 0 0 .43-1.19v-.04a1.44 1.44 0 0 0-1.65-1.57h-.57v3.24h.57v-.02Zm3.12-3.63h2.49v.4h-1.97v1.37h1.58v.4h-1.58v1.46h2.08v.4h-2.6v-4.03Zm3.45 0h1.29c.8 0 1.38.24 1.38 1.05v.02a.83.83 0 0 1-.64.86c.61.14.85.44.85.96v.02c0 .76-.55 1.13-1.4 1.13h-1.47l-.01-4.04Zm1.28 1.75c.63 0 .87-.2.87-.7v-.02c0-.46-.29-.65-.88-.65h-.76v1.4h.77v-.02Zm.17 1.9c.62 0 .91-.25.91-.75v-.02c0-.5-.29-.74-.97-.74h-.87v1.51h.93Zm2.35-3.65h.52v4.04h-.52v-4.04Zm2.56.39h-1.24v-.4h3v.4h-1.25v3.64H176v-3.64h.01Z"/><path fill="#CED2DB" d="M152 38h20v26h-20V38Z"/><path fill="#0A0B0D" fill-rule="evenodd" d="M172 51.5h-20v-1h20v1Z" clip-rule="evenodd"/><path fill="#0A0B0D" fill-rule="evenodd" d="M159.16 38v26h-1V38h1Zm6.68 0v26h-1V38h1Z" clip-rule="evenodd"/></svg>