<svg xmlns="http://www.w3.org/2000/svg" fill="none" viewBox="0 0 240 240"><g clip-path="url(#a)"><path fill="#5DE2F8" d="M229.016 27.27C234.133 14.156 224.461 0 210.384 0H29.582C15.512 0 5.841 14.143 10.944 27.254L71.954 184h95.907z"/><path fill="#CED2DB" d="M167.763 200H72.199l-16.277 16H183.74z"/><path fill="#0A0B0D" d="M141.144 224h-41.94v6h41.94z"/><path fill="#CED2DB" d="M71.9 216H55.921v24h15.977zm111.837 0h-17.635v24h17.635z"/><path fill="#0052FF" d="M167.763 184H71.898v56h95.865z"/><path fill="#CED2DB" d="M167.763 184H71.898v16h95.865z"/><path fill="#0A0B0D" d="M167.763 184H71.898c0 5.37 7.15 9.72 15.978 9.72h63.909c8.828 0 15.978-4.35 15.978-9.72"/><path fill="#0A0B0D" fill-rule="evenodd" d="M183.742 216.84H55.773v-2h127.969zm-.001 13.47H55.921v-2h127.82z" clip-rule="evenodd"/><path fill="#0A0B0D" d="M71.052 117.83V84.06s-3.076-42.79 47.203-42.44c0 0 45.276-1.7 44.397 43.18v33.96s-.479 36.28-43.818 37.54c-.199.02-.479.01-.479.01s-44.057 3.42-47.303-38.48"/><path fill="#FFFFFF" d="M71.052 99.73V65.96s-3.076-42.79 47.203-42.44c0 0 45.276-1.7 44.397 43.18v33.96s-.479 36.28-43.818 37.54c-.199.02-.479.01-.479.01s-44.057 3.42-47.303-38.48"/><path fill="#5DE2F8" d="M115.547 45.44h2.757c9.876 0 17.894 8.03 17.894 17.92V98.3c0 9.94-8.058 18.01-17.984 18.01h-2.597c-9.926 0-17.984-8.07-17.984-18.01V63.36c0-9.89 8.018-17.92 17.894-17.92z"/><path fill="#0A0B0D" d="M118.299 45.44h-2.756c-9.886 0-17.895 8.03-17.895 17.92V81.3c0-9.9 8.019-17.92 17.895-17.92h2.756c9.886 0 17.895 8.03 17.895 17.92V63.36c0-9.9-8.019-17.92-17.895-17.92"/><path fill="#0052FF" d="M187.671 27.494c0 9.883 8.043 17.907 17.912 17.938-9.869 0-17.882 8.055-17.912 17.938 0-9.883-8.044-17.907-17.913-17.938 9.869 0 17.882-8.055 17.913-17.938M98.172 161.79c0 3.19 2.597 5.78 5.782 5.79-3.185 0-5.772 2.6-5.782 5.79 0-3.19-2.596-5.78-5.781-5.79 3.185 0 5.771-2.6 5.781-5.79"/><path fill="#0A0B0E" d="M45.977 67.278c4.31-7.672-1.322-19.033-12.58-25.375-11.256-6.342-23.876-5.263-28.186 2.41s1.321 19.034 12.578 25.375 23.877 5.263 28.188-2.41"/><path fill="#0A0B0D" d="M33.401 41.9c-6.36-3.58-13.161-4.8-18.643-3.79l13.86 35.38c7.61 1.17 14.43-.99 17.376-6.22 4.304-7.67-1.329-19.03-12.583-25.37z"/><path fill="#0A0B0E" d="m12.372 41.852-4.395-2.476-2.874 5.116 4.395 2.476zm36.39 20.468-4.395-2.476-2.874 5.116 4.395 2.476z"/><path fill="#FFD200" d="M48.836 62.195c4.31-7.673-1.322-19.034-12.579-25.375S12.38 31.557 8.07 39.23c-4.31 7.672 1.32 19.033 12.579 25.375 11.257 6.341 23.877 5.263 28.187-2.41"/><path fill="#0052FF" d="M36.26 36.82c-8.168-4.6-17.036-5.28-22.947-2.38l12.771 32.61c9.627 3.37 19.133 1.6 22.758-4.85 4.304-7.67-1.328-19.03-12.582-25.37z"/><path fill="#0A0B0E" d="M199.35 167.323c8.776-9.491 10.661-22.033 4.211-28.014-6.451-5.982-18.794-3.137-27.569 6.353-8.776 9.491-10.662 22.033-4.211 28.014 6.45 5.982 18.793 3.137 27.569-6.353"/><path fill="#0A0B0E" d="m171.059 166.131-3.426 3.705 4.301 3.989 3.426-3.706zm28.328-30.695-3.426 3.705 4.301 3.988 3.426-3.705z"/><path fill="#FFD200" d="M195.061 163.356c8.776-9.49 10.661-22.033 4.211-28.014-6.451-5.982-18.794-3.137-27.569 6.353-8.776 9.491-10.662 22.033-4.211 28.015 6.45 5.981 18.793 3.136 27.569-6.354"/><path fill="#0052FF" d="M187.964 132.43c-5.442.811-11.384 4.024-16.247 9.28-8.777 9.5-10.665 22.053-4.214 28.039 1.368 1.271 3.016 2.122 4.833 2.613l15.628-39.942z"/><path fill="#FFD200" d="M58.834 173.17c5.962 0 10.795-4.84 10.795-10.81s-4.834-10.81-10.795-10.81-10.795 4.84-10.795 10.81 4.833 10.81 10.795 10.81"/><path fill="#0052FF" d="m59.195 151.56 7.24 18.47a10.8 10.8 0 0 0 3.206-7.68c0-5.85-4.644-10.6-10.436-10.79zm1.583-136.791c0 5.071 4.128 9.189 9.192 9.205-5.064 0-9.176 4.133-9.192 9.205 0-5.072-4.128-9.19-9.192-9.205 5.064 0 9.176-4.134 9.192-9.205"/></g><defs><clipPath id="a"><path fill="#FFFFFF" d="M0 0h240v240H0z"/></clipPath></defs></svg>