<svg xmlns="http://www.w3.org/2000/svg" fill="none" viewBox="0 0 240 240"><path fill="#CED2DB" d="M151.4 199.4H99.7c-31.4 0-56.8-25.4-56.8-56.8s25.4-56.8 56.8-56.8h51.6c31.4 0 56.8 25.4 56.8 56.8.1 31.3-25.4 56.8-56.7 56.8Z"/><path fill="#CED2DB" d="M112 184.7H80.5v38.8H112v-38.8Zm-48.4-29.8-31.4 4.6v-41.3l31.4 5.3v31.4ZM168 184h-32v40h32v-40Zm-90-73.5H57.3v-31c11.4 0 20.7 9.2 20.7 20.7v10.3ZM168.2 0h-80v87.5h80V0Z"/><path fill="#0052FF" d="M168.2 0h-80v147.5h80V0Z"/><path fill="#0A0B0D" d="M168.2 88.3c-5.3-1.6-10.9-2.5-16.8-2.5H99.7c-4 0-7.8.4-11.6 1.2v60.5h80V88.3h.1Z"/><path fill="#FFFFFF" d="M128.2 187.5c22.091 0 40-17.909 40-40s-17.909-40-40-40-40 17.909-40 40 17.909 40 40 40Z"/><path fill="#0A0B0D" fill-rule="evenodd" d="M128.2 177.7c-16.652 0-30.2-13.548-30.2-30.2h2c0 15.548 12.652 28.2 28.2 28.2s28.2-12.652 28.2-28.2h2c0 16.652-13.548 30.2-30.2 30.2ZM98 147.5c0-16.648 13.443-30.2 30.1-30.2 16.652 0 30.2 13.548 30.2 30.2h-2c0-15.548-12.652-28.2-28.2-28.2-15.543 0-28.1 12.648-28.1 28.2h-2Z" clip-rule="evenodd"/><path fill="#0A0B0D" fill-rule="evenodd" d="M127.2 167.5v-40h2v40h-2Z" clip-rule="evenodd"/><path fill="#0A0B0D" fill-rule="evenodd" d="M108.2 146.5h40v2h-40v-2Z" clip-rule="evenodd"/><path fill="#0A0B0D" fill-rule="evenodd" d="m116.293 157.993 22.4-22.4 1.414 1.414-22.4 22.4-1.414-1.414Z" clip-rule="evenodd"/><path fill="#0A0B0D" fill-rule="evenodd" d="m117.707 135.593 22.4 22.4-1.414 1.414-22.4-22.4 1.414-1.414ZM128.2 78.086l23.393-23.393 1.414 1.414L128.2 80.914l-24.807-24.807 1.414-1.414L128.2 78.086Z" clip-rule="evenodd"/><path fill="#0A0B0D" fill-rule="evenodd" d="M127.2 79.4V0h2v79.4h-2Z" clip-rule="evenodd"/><path fill="#0A0B0D" d="M65.5 124.9a4 4 0 1 0 0-8 4 4 0 0 0 0 8Z"/><path fill="#0052FF" d="M192.2 223.5h-136V240h136v-16.5Z"/><path fill="#CED2DB" d="m184.6 60 9.5-2 2-9.5 2 9.5 9.4 2-9.4 2-2 9.4-2-9.4-9.5-2Zm-152 143 9.5-2 2-9.5 2 9.5 9.4 2-9.4 2-2 9.4-2-9.4-9.5-2Z"/></svg>