<svg xmlns="http://www.w3.org/2000/svg" fill="none" viewBox="0 0 240 240"><path fill="#CED2DB" d="M151.398 199.4h-51.7c-31.4 0-56.8-25.4-56.8-56.8s25.4-56.8 56.8-56.8h51.6c31.4 0 56.8 25.4 56.8 56.8.1 31.3-25.4 56.8-56.7 56.8"/><path fill="#CED2DB" d="M112 184.7H80.5v38.8H112zm-48.397-29.8-31.4 4.6v-41.3l31.4 5.3zM168 184h-32v40h32zm-90.003-73.5h-20.7v-31c11.4 0 20.7 9.2 20.7 20.7zM168.203 0h-80v87.5h80z"/><path fill="#0052FF" d="M168.203 0h-80v147.5h80z"/><path fill="#0A0B0D" d="M168.202 88.3c-5.3-1.6-10.9-2.5-16.8-2.5h-51.7c-4 0-7.8.4-11.6 1.2v60.5h80V88.3z"/><path fill="#FFFFFF" d="M128.203 187.5c22.092 0 40-17.909 40-40s-17.908-40-40-40-40 17.909-40 40 17.909 40 40 40"/><path fill="#0A0B0D" fill-rule="evenodd" d="M128.2 177.7c-16.652 0-30.2-13.548-30.2-30.2h2c0 15.548 12.652 28.2 28.2 28.2s28.2-12.652 28.2-28.2h2c0 16.652-13.548 30.2-30.2 30.2M98 147.5c0-16.648 13.443-30.2 30.1-30.2 16.652 0 30.2 13.548 30.2 30.2h-2c0-15.548-12.652-28.2-28.2-28.2-15.543 0-28.1 12.648-28.1 28.2z" clip-rule="evenodd"/><path fill="#0A0B0D" fill-rule="evenodd" d="M127.203 167.5v-40h2v40z" clip-rule="evenodd"/><path fill="#0A0B0D" fill-rule="evenodd" d="M108.203 146.5h40v2h-40z" clip-rule="evenodd"/><path fill="#0A0B0D" fill-rule="evenodd" d="m116.289 157.993 22.4-22.4 1.414 1.414-22.4 22.4z" clip-rule="evenodd"/><path fill="#0A0B0D" fill-rule="evenodd" d="m117.703 135.593 22.4 22.4-1.414 1.414-22.4-22.4zm10.495-57.507 23.393-23.393 1.414 1.414-24.807 24.807-24.807-24.807 1.414-1.414z" clip-rule="evenodd"/><path fill="#0A0B0D" fill-rule="evenodd" d="M127.203 79.4V0h2v79.4z" clip-rule="evenodd"/><path fill="#0A0B0E" d="M65.5 124.9a4 4 0 1 0 0-8 4 4 0 0 0 0 8"/><path fill="#0052FF" d="M192.203 223.5h-136V240h136z"/><path fill="#CED2DB" d="m184.602 60 9.5-2 2-9.5 2 9.5 9.4 2-9.4 2-2 9.4-2-9.4zm-152 143 9.5-2 2-9.5 2 9.5 9.4 2-9.4 2-2 9.4-2-9.4z"/></svg>