<svg xmlns="http://www.w3.org/2000/svg" fill="none" viewBox="0 0 240 240"><path fill="#0052FF" d="M0 240h144V0H0z"/><path fill="#CED2DB" d="M240 0h-96v24h96zm0 216h-96v24h96z"/><path fill="#0A0B0E" d="M0 24h144V0H0zm0 216h144v-24H0z"/><path fill="#FFFFFE" d="M72 14c1.1 0 2-.9 2-2s-.9-2-2-2-2 .9-2 2 .9 2 2 2m8 212H64v4h16z"/><path fill="#0052FF" fill-rule="evenodd" d="M240 120c0 26.536-21.464 48-48 48s-48-21.464-48-48 21.464-48 48-48 48 21.464 48 48" clip-rule="evenodd"/><path fill="#FFFFFF" d="M36 116c6.6 0 12-5.4 12-12s-5.4-12-12-12-12 5.4-12 12 5.4 12 12 12m36 0c6.6 0 12-5.4 12-12s-5.4-12-12-12-12 5.4-12 12 5.4 12 12 12"/><path fill="#0A0B0D" fill-rule="evenodd" d="M71 104v-6.6h2v6.6z" clip-rule="evenodd"/><path fill="#0A0B0D" fill-rule="evenodd" d="m71.683 104.949-6.3-2.1.632-1.898 6.3 2.1z" clip-rule="evenodd"/><path fill="#0A0B0D" fill-rule="evenodd" d="m72.81 104.586-3.9 5.4-1.62-1.171 3.9-5.4z" clip-rule="evenodd"/><path fill="#0A0B0D" fill-rule="evenodd" d="m72.809 103.415 3.9 5.4-1.621 1.171-3.9-5.4z" clip-rule="evenodd"/><path fill="#0A0B0D" fill-rule="evenodd" d="m71.688 103.051 6.3-2.1.632 1.898-6.3 2.1zM35 104v-6.6h2v6.6z" clip-rule="evenodd"/><path fill="#0A0B0D" fill-rule="evenodd" d="m35.683 104.949-6.3-2.1.632-1.898 6.3 2.1z" clip-rule="evenodd"/><path fill="#0A0B0D" fill-rule="evenodd" d="m36.81 104.586-3.9 5.4-1.62-1.171 3.9-5.4z" clip-rule="evenodd"/><path fill="#0A0B0D" fill-rule="evenodd" d="m36.809 103.415 3.9 5.4-1.622 1.171-3.9-5.4z" clip-rule="evenodd"/><path fill="#0A0B0D" fill-rule="evenodd" d="m35.688 103.051 6.3-2.1.632 1.898-6.3 2.1z" clip-rule="evenodd"/><path fill="#FFFFFF" d="M108 116c6.6 0 12-5.4 12-12s-5.4-12-12-12-12 5.4-12 12 5.4 12 12 12"/><path fill="#0A0B0D" fill-rule="evenodd" d="M107 104v-6.6h2v6.6z" clip-rule="evenodd"/><path fill="#0A0B0D" fill-rule="evenodd" d="m107.683 104.949-6.3-2.1.632-1.898 6.3 2.1z" clip-rule="evenodd"/><path fill="#0A0B0D" fill-rule="evenodd" d="m108.81 104.586-3.9 5.4-1.621-1.171 3.9-5.4z" clip-rule="evenodd"/><path fill="#0A0B0D" fill-rule="evenodd" d="m108.809 103.415 3.9 5.4-1.621 1.171-3.9-5.4z" clip-rule="evenodd"/><path fill="#0A0B0D" fill-rule="evenodd" d="m107.688 103.051 6.3-2.1.632 1.898-6.3 2.1z" clip-rule="evenodd"/><path fill="#FFFFFF" d="M36 84c6.6 0 12-5.4 12-12s-5.4-12-12-12-12 5.4-12 12 5.4 12 12 12m36 0c6.6 0 12-5.4 12-12s-5.4-12-12-12-12 5.4-12 12 5.4 12 12 12"/><path fill="#0A0B0D" fill-rule="evenodd" d="M71 72v-6.6h2V72z" clip-rule="evenodd"/><path fill="#0A0B0D" fill-rule="evenodd" d="m71.698 72.953-6.3-2 .606-1.906 6.3 2z" clip-rule="evenodd"/><path fill="#0A0B0D" fill-rule="evenodd" d="m72.81 72.586-3.9 5.4-1.62-1.171 3.9-5.4z" clip-rule="evenodd"/><path fill="#0A0B0D" fill-rule="evenodd" d="m72.809 71.415 3.9 5.4-1.621 1.17-3.9-5.4z" clip-rule="evenodd"/><path fill="#0A0B0D" fill-rule="evenodd" d="m71.695 71.047 6.3-2 .605 1.906-6.3 2zM35 72v-6.6h2V72z" clip-rule="evenodd"/><path fill="#0A0B0D" fill-rule="evenodd" d="m35.698 72.953-6.3-2 .606-1.906 6.3 2z" clip-rule="evenodd"/><path fill="#0A0B0D" fill-rule="evenodd" d="m36.81 72.586-3.9 5.4-1.62-1.171 3.9-5.4z" clip-rule="evenodd"/><path fill="#0A0B0D" fill-rule="evenodd" d="m36.809 71.415 3.9 5.4-1.622 1.17-3.9-5.4z" clip-rule="evenodd"/><path fill="#0A0B0D" fill-rule="evenodd" d="m35.695 71.047 6.3-2 .605 1.906-6.3 2z" clip-rule="evenodd"/><path fill="#FFFFFF" d="M108 84c6.6 0 12-5.4 12-12s-5.4-12-12-12-12 5.4-12 12 5.4 12 12 12"/><path fill="#0A0B0D" fill-rule="evenodd" d="M107 72v-6.6h2V72z" clip-rule="evenodd"/><path fill="#0A0B0D" fill-rule="evenodd" d="m107.698 72.953-6.3-2 .606-1.906 6.3 2z" clip-rule="evenodd"/><path fill="#0A0B0D" fill-rule="evenodd" d="m108.81 72.586-3.9 5.4-1.621-1.171 3.9-5.4z" clip-rule="evenodd"/><path fill="#0A0B0D" fill-rule="evenodd" d="m108.809 71.415 3.9 5.4-1.621 1.17-3.9-5.4z" clip-rule="evenodd"/><path fill="#0A0B0D" fill-rule="evenodd" d="m107.695 71.047 6.3-2 .605 1.906-6.3 2z" clip-rule="evenodd"/><path fill="#FFFFFF" d="M36 148c6.6 0 12-5.4 12-12s-5.4-12-12-12-12 5.4-12 12 5.4 12 12 12m36 0c6.6 0 12-5.4 12-12s-5.4-12-12-12-12 5.4-12 12 5.4 12 12 12"/><path fill="#0A0B0D" fill-rule="evenodd" d="M71 136v-6.6h2v6.6z" clip-rule="evenodd"/><path fill="#0A0B0D" fill-rule="evenodd" d="m71.683 136.949-6.3-2.1.632-1.898 6.3 2.1z" clip-rule="evenodd"/><path fill="#0A0B0D" fill-rule="evenodd" d="m72.81 136.586-3.9 5.4-1.62-1.171 3.9-5.4z" clip-rule="evenodd"/><path fill="#0A0B0D" fill-rule="evenodd" d="m72.809 135.415 3.9 5.4-1.621 1.171-3.9-5.4z" clip-rule="evenodd"/><path fill="#0A0B0D" fill-rule="evenodd" d="m71.688 135.051 6.3-2.1.632 1.898-6.3 2.1zM35 136v-6.6h2v6.6z" clip-rule="evenodd"/><path fill="#0A0B0D" fill-rule="evenodd" d="m35.683 136.949-6.3-2.1.632-1.898 6.3 2.1z" clip-rule="evenodd"/><path fill="#0A0B0D" fill-rule="evenodd" d="m36.81 136.586-3.9 5.4-1.62-1.171 3.9-5.4z" clip-rule="evenodd"/><path fill="#0A0B0D" fill-rule="evenodd" d="m36.809 135.415 3.9 5.4-1.622 1.171-3.9-5.4z" clip-rule="evenodd"/><path fill="#0A0B0D" fill-rule="evenodd" d="m35.688 135.051 6.3-2.1.632 1.898-6.3 2.1z" clip-rule="evenodd"/><path fill="#FFFFFF" d="M108 148c6.6 0 12-5.4 12-12s-5.4-12-12-12-12 5.4-12 12 5.4 12 12 12"/><path fill="#0A0B0D" fill-rule="evenodd" d="M107 136v-6.6h2v6.6z" clip-rule="evenodd"/><path fill="#0A0B0D" fill-rule="evenodd" d="m107.683 136.949-6.3-2.1.632-1.898 6.3 2.1z" clip-rule="evenodd"/><path fill="#0A0B0D" fill-rule="evenodd" d="m108.81 136.586-3.9 5.4-1.621-1.171 3.9-5.4z" clip-rule="evenodd"/><path fill="#0A0B0D" fill-rule="evenodd" d="m108.809 135.415 3.9 5.4-1.621 1.171-3.9-5.4z" clip-rule="evenodd"/><path fill="#0A0B0D" fill-rule="evenodd" d="m107.688 135.051 6.3-2.1.632 1.898-6.3 2.1z" clip-rule="evenodd"/><path fill="#FFFFFF" d="M72 180c6.6 0 12-5.4 12-12s-5.4-12-12-12-12 5.4-12 12 5.4 12 12 12"/><path fill="#0A0B0D" fill-rule="evenodd" d="M71 168v-6.6h2v6.6z" clip-rule="evenodd"/><path fill="#0A0B0D" fill-rule="evenodd" d="m71.683 168.949-6.3-2.1.632-1.898 6.3 2.1z" clip-rule="evenodd"/><path fill="#0A0B0D" fill-rule="evenodd" d="m72.81 168.586-3.9 5.4-1.62-1.171 3.9-5.4z" clip-rule="evenodd"/><path fill="#0A0B0D" fill-rule="evenodd" d="m72.809 167.415 3.9 5.4-1.621 1.171-3.9-5.4z" clip-rule="evenodd"/><path fill="#0A0B0D" fill-rule="evenodd" d="m71.688 167.051 6.3-2.1.632 1.898-6.3 2.1z" clip-rule="evenodd"/><path fill="#FFFFFF" d="m205.913 90-8.348 29.985H172zm-28.826 60 8.348-29.985H211z"/></svg>