<svg xmlns="http://www.w3.org/2000/svg" fill="none" viewBox="0 0 241 241"><path fill="#CED2DB" d="M168.431.038H84.983c-14.23 0-25.77 11.536-25.77 25.762v189.438c0 14.226 11.54 25.762 25.77 25.762h83.448c14.23 0 25.77-11.536 25.77-25.762V25.8c0-14.226-11.54-25.762-25.77-25.762"/><path fill="#FFFFFF" d="M188.586 148.224c15.647 0 28.321-12.67 28.321-28.312S204.233 91.6 188.586 91.6s-28.321 12.67-28.321 28.312 12.674 28.312 28.321 28.312"/><path fill="#0A0B0D" d="M188.589 101.305c-5.812 0-10.519 4.706-10.519 10.515v15.773h21.037V111.82c0-5.809-4.707-10.515-10.518-10.515m4.601 20.373h-9.203v-9.858c0-2.536 2.064-4.6 4.602-4.6a4.606 4.606 0 0 1 4.601 4.6z"/><path fill="#0052FF" d="M204.362 117.078h-31.555v15.773h31.555z"/><path fill="#CED2DB" fill-rule="evenodd" d="m194.422 78.187-2.681-10.682h-6.297l-2.682 10.682-5.754 1.235-6.779-8.654-5.815 2.6 1.868 10.853-4.771 3.474-9.701-5.13-4.258 4.748 6.086 9.156-2.953 5.121-10.937-.733-1.968 6.084 9.269 5.873-.612 5.883-10.284 3.795.663 6.355 10.846 1.566 1.818 5.633-7.854 7.67 3.184 5.542 10.535-3.012 3.937 4.397-4.068 10.221 5.132 3.754 8.406-7.037 5.383 2.409.422 11.004 6.217 1.325 4.841-9.869h5.885l4.841 9.869 6.216-1.325.422-11.004 5.383-2.409 8.406 7.037 5.132-3.754-4.067-10.221 3.936-4.397 10.535 3.012 3.184-5.542-7.854-7.67 1.818-5.633 10.847-1.566.663-6.355-10.284-3.795-.613-5.883 9.27-5.873-1.969-6.084-10.937.733-2.952-5.12 6.086-9.157-4.258-4.749-9.702 5.13-4.77-3.473 1.868-10.853-5.815-2.6-6.779 8.654-5.755-1.235zm22.557 41.715c0 15.682-12.705 28.382-28.392 28.382s-28.391-12.7-28.391-28.382S172.9 91.52 188.587 91.52s28.392 12.7 28.392 28.382" clip-rule="evenodd"/><path fill="#0052FF" fill-rule="evenodd" d="M194.194 167.881v-20.139a29 29 0 0 1-5.615.552c-15.687 0-28.391-12.7-28.391-28.382s12.704-28.382 28.391-28.382c1.919 0 3.797.19 5.615.552V77.284l-2.461-9.78h-6.297l-2.681 10.683L177 79.422l-6.779-8.654-5.815 2.6 1.868 10.853-4.77 3.474-9.702-5.13-4.258 4.748 6.086 9.156-2.953 5.121-10.937-.733-1.968 6.084 9.27 5.873-.613 5.883-10.284 3.795.663 6.355 10.846 1.566 1.818 5.633-7.854 7.67 3.184 5.542 10.535-3.012 3.937 4.397-4.067 10.221 5.132 3.754 8.406-7.037 5.383 2.409.421 11.004 6.217 1.325 4.841-9.869h5.885l2.661 5.431z" clip-rule="evenodd"/><path fill="#FFFFFE" d="M138.463 10.911h-34.518a3.756 3.756 0 1 0 0 7.51h34.518a3.756 3.756 0 1 0 0-7.51m10.43 7.079a3.554 3.554 0 1 0 .002-7.11 3.554 3.554 0 0 0-.002 7.11"/><path fill="#0052FF" fill-rule="evenodd" d="m115.695 159.267-1.677-6.626h-3.906l-1.678 6.626-3.575.753-4.208-5.371-3.605 1.606 1.154 6.737-2.962 2.168-6.016-3.192-2.641 2.951 3.776 5.683-1.828 3.182-6.789-.451-1.215 3.785 5.754 3.644-.381 3.654-6.377 2.36.411 3.945 6.73.974 1.124 3.494-4.87 4.759 1.978 3.433 6.548-1.867 2.44 2.731-2.52 6.355 3.193 2.329 5.222-4.377 3.335 1.496.261 6.827 3.866.823 3.003-6.124h3.656l3.003 6.124 3.866-.823.261-6.827 3.335-1.496 5.222 4.377 3.194-2.329-2.521-6.355 2.44-2.731 6.538 1.867 1.979-3.433-4.871-4.759 1.125-3.494 6.728-.974.412-3.945-6.377-2.36-.382-3.654 5.755-3.644-1.225-3.785-6.789.451-1.828-3.182 3.776-5.683-2.641-2.951-6.016 3.192-2.963-2.168 1.155-6.737-3.605-1.606-4.208 5.371-3.576-.753zm5.835 24.848c0 5.251-4.238 9.508-9.46 9.508s-9.461-4.257-9.461-9.508 4.239-9.517 9.461-9.517 9.46 4.267 9.46 9.517" clip-rule="evenodd"/><path fill="#CED2DB" fill-rule="evenodd" d="m58.54 33.25 5.293.02 1.165 8.955 5.273.703 3.465-8.373 5.132 1.345-1.115 8.996 4.931 1.977 5.433-7.248 4.63 2.58-3.304 8.443 4.278 3.153 7.071-5.663 3.846 3.665-5.293 7.349 3.365 4.116 8.255-3.745 2.822 4.508-6.96 5.803 2.23 4.83 8.928-1.567 1.617 5.07-8.185 3.885.964 5.231 9.029.703.301 5.31-8.888 1.727-.361 5.312 8.566 2.931-1.024 5.211-9.039-.532-1.667 5.05 7.572 4.969-2.289 4.789-8.617-2.771-2.873 4.468 6.096 6.706-3.414 4.076-7.663-4.829-3.887 3.615 4.249 8.011-4.309 3.102-6.227-6.586-4.67 2.54 2.12 8.815-4.942 1.928-4.388-7.931-5.152 1.295-.131 9.066-5.263.632-2.29-8.775-5.312-.02-2.39 8.745-5.253-.703-.03-9.066-5.132-1.345-4.48 7.881-4.92-1.978 2.22-8.784-4.65-2.591-6.298 6.506-4.278-3.152 4.339-7.962-3.847-3.664-7.713 4.738-3.354-4.106 6.166-6.626-2.822-4.508-8.657 2.671-2.23-4.819 7.623-4.88-1.617-5.07-9.048.432-.965-5.231 8.597-2.83-.301-5.312L0 92.604l.372-5.301 9.038-.602 1.025-5.221L2.3 77.494l1.667-5.04 8.898 1.667 2.29-4.799-6.89-5.883 2.883-4.468 8.205 3.825 3.414-4.076-5.202-7.41 3.887-3.603 6.99 5.752 4.308-3.102-3.203-8.473 4.67-2.53 5.342 7.319 4.942-1.928-1.005-9.006 5.152-1.295 3.355 8.414 5.282-.633zm-27.387 87.515A39.74 39.74 0 0 1 21.02 96.148l22.727 1.135a17.4 17.4 0 0 0 2.722 6.565l-15.306 16.907zm12.594-29.938L21.03 91.961c.502-9.417 4.268-17.97 10.194-24.546L46.479 84.26a17.3 17.3 0 0 0-2.722 6.556zm-9.641 32.91c6.588 5.964 15.175 9.748 24.636 10.23l-1.145-22.83a17.4 17.4 0 0 1-6.568-2.721l-16.933 15.311zm16.932-44.044-16.852-15.24c6.578-5.924 15.135-9.689 24.566-10.17l-1.135 22.7c-2.4.451-4.62 1.395-6.568 2.72zm13.036-2.72c2.4.451 4.62 1.395 6.569 2.72l16.842-15.23a39.73 39.73 0 0 0-24.545-10.19l1.134 22.69zm11.138 7.288a17.3 17.3 0 0 1 2.722 6.556l22.697 1.134a39.7 39.7 0 0 0-10.174-24.526L75.222 84.26zm0 19.597a17.3 17.3 0 0 0 2.722-6.565l22.697-1.135c-.472 9.437-4.218 18.001-10.124 24.597zm-4.57 4.558 16.923 15.301a39.65 39.65 0 0 1-24.625 10.25l1.144-22.83c2.4-.452 4.62-1.395 6.569-2.721zm.633-14.356c0 5.763-4.67 10.431-10.435 10.431-5.764 0-10.434-4.668-10.434-10.431s4.67-10.431 10.435-10.431c5.764 0 10.434 4.668 10.434 10.43" clip-rule="evenodd"/><path fill="#0052FF" fill-rule="evenodd" d="m121.703 93.316-.302-5.31-9.028-.703-.964-5.231 8.185-3.885-1.617-5.07-8.929 1.566-2.229-4.83 6.96-5.802-2.822-4.508-8.256 3.745-3.364-4.116 5.293-7.35-3.847-3.664-7.07 5.662-4.278-3.152 3.304-8.443-4.63-2.58-5.433 7.248-4.932-1.978 1.115-8.995-5.132-1.346-3.465 8.373-5.272-.702-1.165-8.956-4.62-.02v50.51c.532-.08 1.065-.14 1.617-.14 5.765 0 10.435 4.668 10.435 10.43 0 5.763-4.67 10.432-10.435 10.432a11 11 0 0 1-1.617-.141v41.795l3.977.02 2.29 8.775 5.262-.633.131-9.066 5.152-1.295 4.389 7.932 4.941-1.928-2.12-8.815 4.67-2.54 6.228 6.586 4.308-3.102-4.248-8.012 3.886-3.614 7.663 4.829 3.415-4.076-6.096-6.706 2.872-4.468 8.617 2.771 2.29-4.789-7.573-4.97 1.668-5.05 9.038.532 1.025-5.21-8.567-2.932.361-5.31 8.889-1.728zM70.644 79.692a17.2 17.2 0 0 0-6.568-2.72l-1.135-22.7a39.6 39.6 0 0 1 24.545 10.19zm-7.713 54.275 1.145-22.83c2.4-.452 4.62-1.396 6.568-2.721l16.923 15.3a39.65 39.65 0 0 1-24.626 10.251zm27.578-13.212-15.295-16.897a17.3 17.3 0 0 0 2.721-6.566l22.697-1.135c-.472 9.438-4.218 18.002-10.123 24.598M77.935 90.827a17.3 17.3 0 0 0-2.721-6.556l15.235-16.837a39.73 39.73 0 0 1 10.173 24.527l-22.697-1.135z" clip-rule="evenodd"/></svg>