<svg xmlns="http://www.w3.org/2000/svg" fill="none" viewBox="0 0 240 240"><path fill="#3CC28A" d="M184.203 0h-128v168h128z"/><path fill="#CED2DB" d="M208 186h-24v22h24zm0 22H32v32h176z"/><path fill="#CED2DB" d="M56 186H32v23h24z"/><path fill="#0A0B0D" fill-rule="evenodd" d="M88 25H72v-2h16zm-1 49H71v-2h16zm57-49h-40v-2h40zm-1 49h-40v-2h40zm25-49h-16v-2h16zm-1 49h-16v-2h16z" clip-rule="evenodd"/><path fill="#0052FF" d="m159.802 168-39.6 40-39.6-40z"/><path fill="#0A0B0D" d="M136.203 136h-32v32h32z"/><path fill="#0A0B0D" fill-rule="evenodd" d="M71 39h26v10H71zm2 2v6h22v-6z" clip-rule="evenodd"/><path fill="#0A0B0D" fill-rule="evenodd" d="M71 47h26v10H71zm2 2v6h22v-6z" clip-rule="evenodd"/><path fill="#0A0B0D" fill-rule="evenodd" d="M71 55h26v10H71zm2 2v6h22v-6zm-2 22h34v10H71zm2 2v6h30v-6z" clip-rule="evenodd"/><path fill="#0A0B0D" fill-rule="evenodd" d="M71 87h34v10H71zm2 2v6h30v-6z" clip-rule="evenodd"/><path fill="#0A0B0D" fill-rule="evenodd" d="M71 95h34v10H71zm2 2v6h30v-6zm-2 14h34v10H71zm2 2v6h30v-6zm30-74h66v10h-66zm2 2v6h62v-6z" clip-rule="evenodd"/><path fill="#0A0B0D" fill-rule="evenodd" d="M103 47h66v10h-66zm2 2v6h62v-6z" clip-rule="evenodd"/><path fill="#0A0B0D" fill-rule="evenodd" d="M103 55h66v10h-66zm2 2v6h62v-6zm-2 22h66v10h-66zm2 2v6h62v-6z" clip-rule="evenodd"/><path fill="#0A0B0D" fill-rule="evenodd" d="M103 87h66v10h-66zm2 2v6h62v-6z" clip-rule="evenodd"/><path fill="#0A0B0D" fill-rule="evenodd" d="M103 95h66v10h-66zm2 2v6h62v-6zm-2 14h66v10h-66zm2 2v6h62v-6z" clip-rule="evenodd"/></svg>