<svg xmlns="http://www.w3.org/2000/svg" fill="none" viewBox="0 0 240 240"><path fill="#FFD200" d="M216.8 143.2a51.97 51.97 0 1 0-73.5 73.5 51.97 51.97 0 1 0 73.5-73.5Z"/><path fill="#101114" d="M240 120H120V0h119.7l.3 120Z"/><path fill="#0052FF" d="M240 0h-60v120h60V0Z"/><path fill="#CED2DB" d="m120 120 60 60 60-60H120Z"/><path fill="#0052FF" d="M143.2 143.2 180 180l20.8-20.8 16-16a52.09 52.09 0 0 0-73.6 0Z"/><path fill="#0A0B0D" d="m202 158-22 22-22-22"/><path fill="#0052FF" d="M8 180h104c0 28.7-23.3 52-52 52S8 208.7 8 180Zm0 0c0-28.7 23.3-52 52-52s52 23.3 52 52H8Z"/><path fill="#0A0B0D" fill-rule="evenodd" d="m85 163.4-31.2 31.2a1 1 0 0 1-1.4 0l-13.9-13.9 1.4-1.4 13.2 13.19 30.5-30.5 1.4 1.42Z" clip-rule="evenodd"/><path fill="#0A0B0D" fill-rule="evenodd" d="M60 141a39 39 0 1 0 0 78 39 39 0 0 0 0-78Zm-41 39a41 41 0 1 1 82 0 41 41 0 0 1-82 0Z" clip-rule="evenodd"/><path fill="#CED2DB" d="M60 8C31.3 8 8 31.3 8 60s23.3 52 52 52 52-23.3 52-52S88.7 8 60 8Z"/><path fill="#0A0B0D" fill-rule="evenodd" d="M60 21a39 39 0 1 0 0 78 39 39 0 0 0 0-78ZM19 60a41 41 0 1 1 82 0 41 41 0 0 1-82 0Z" clip-rule="evenodd"/><path fill="#0A0B0D" fill-rule="evenodd" d="M77.5 78.9 41.1 42.5l1.4-1.4 36.4 36.4-1.4 1.4Z" clip-rule="evenodd"/><path fill="#0A0B0D" fill-rule="evenodd" d="m41.1 77.5 36.4-36.4 1.4 1.4-36.4 36.4-1.4-1.4Z" clip-rule="evenodd"/></svg>