<svg xmlns="http://www.w3.org/2000/svg" fill="none" viewBox="0 0 240 240"><path fill="#FFD200" d="M216.803 143.2c-20.3-20.3-53.2-20.3-73.5 0s-20.3 53.2 0 73.5 53.2 20.3 73.5 0 20.3-53.2 0-73.5"/><path fill="#0A0B0E" d="M240 120H120V0h119.7z"/><path fill="#0052FF" d="M240 0h-60v120h60z"/><path fill="#CED2DB" d="m120 120 60 60 60-60z"/><path fill="#0052FF" d="m143.203 143.2 36.8 36.8 20.8-20.8 16-16c-20.3-20.3-53.3-20.3-73.6 0"/><path fill="#0A0B0D" d="m202 158-22 22-22-22"/><path fill="#0052FF" d="M8 180h104c0 28.7-23.3 52-52 52S8 208.7 8 180m0 0c0-28.7 23.3-52 52-52s52 23.3 52 52z"/><path fill="#0A0B0D" fill-rule="evenodd" d="m85.006 163.407-31.2 31.2a1 1 0 0 1-1.414 0l-13.9-13.9 1.414-1.414L53.1 192.486l30.493-30.493z" clip-rule="evenodd"/><path fill="#0A0B0D" fill-rule="evenodd" d="M60 141c-21.54 0-39 17.461-39 39s17.46 39 39 39 39-17.461 39-39-17.46-39-39-39m-41 39c0-22.644 18.356-41 41-41s41 18.356 41 41-18.356 41-41 41-41-18.356-41-41" clip-rule="evenodd"/><path fill="#CED2DB" d="M60 8C31.3 8 8 31.3 8 60s23.3 52 52 52 52-23.3 52-52S88.7 8 60 8"/><path fill="#0A0B0D" fill-rule="evenodd" d="M60 21c-21.54 0-39 17.46-39 39s17.46 39 39 39 39-17.46 39-39-17.46-39-39-39M19 60c0-22.644 18.356-41 41-41s41 18.356 41 41-18.356 41-41 41-41-18.356-41-41" clip-rule="evenodd"/><path fill="#0A0B0D" fill-rule="evenodd" d="m77.494 78.907-36.4-36.4 1.414-1.414 36.4 36.4z" clip-rule="evenodd"/><path fill="#0A0B0D" fill-rule="evenodd" d="m41.094 77.493 36.4-36.4 1.414 1.414-36.4 36.4z" clip-rule="evenodd"/></svg>