<svg xmlns="http://www.w3.org/2000/svg" fill="none" viewBox="0 0 240 240"><path fill="#FFD200" d="M240 40H0v148h240V40Z"/><path fill="#0052FF" fill-rule="evenodd" d="M59.63 40v8H36.75a24.75 24.75 0 0 0-12.48 46.12l37.75 22.02a10 10 0 0 1 1.05 15.02A10 10 0 0 1 56 134.1v8a18 18 0 0 0 16.4-10.57c9.5 12.81 23.55 21.69 39.6 23.93V188h16v-32.55c16.05-2.24 30.1-11.12 39.6-23.93a17.98 17.98 0 0 0 16.4 10.57v-8a10 10 0 0 1-8.65-14.98 10 10 0 0 1 2.63-2.97l37.75-22.02A24.75 24.75 0 0 0 203.25 48h-22.88v-8H59.63ZM36.75 56h22.88v36.37c0 4.8.5 9.47 1.46 13.96L28.3 87.22A16.75 16.75 0 0 1 36.75 56Zm174.94 31.22-32.78 19.11a67.2 67.2 0 0 0 1.46-13.96V56h22.88a16.75 16.75 0 0 1 8.44 31.21Z" clip-rule="evenodd"/><path fill="#CED2DB" fill-rule="evenodd" d="M128 188h-16v24h-.14A14.03 14.03 0 0 1 100 227.86v.14a12 12 0 0 0-12 12h64a12 12 0 0 0-12-12v-.14A14 14 0 0 1 128.14 212H128v-24Z" clip-rule="evenodd"/><path fill="#101114" fill-rule="evenodd" d="M165 152v33.59l23.75-23.75 1.41 1.41L166.41 187H200v2h-33.59l23.75 23.75-1.41 1.41L165 190.41V224h-2v-33.59l-23.75 23.75-1.41-1.41L161.59 189H128v-2h33.59l-23.75-23.75 1.41-1.41L163 185.59V152h2ZM61 20v17.59l12.43-12.44 1.42 1.42L62.4 39H80v2H62.41l12.44 12.43-1.42 1.42L61 42.4V60h-2V42.41L46.57 54.85l-1.42-1.42L57.6 41H40v-2h17.59L45.15 26.57l1.42-1.42L59 37.6V20h2Z" clip-rule="evenodd"/><path fill="#0A0B0D" d="M160 40a40 40 0 1 1-80 0h80Z"/><path fill="#FFD200" d="M80 40a40 40 0 0 1 80 0H80Z"/><path stroke="#0A0B0D" stroke-linejoin="round" stroke-width="2" d="M120 66.67a26.67 26.67 0 1 0 0-53.34 26.67 26.67 0 0 0 0 53.34Z"/></svg>