<svg xmlns="http://www.w3.org/2000/svg" fill="none" viewBox="0 0 240 240"><path fill="#CED2DB" d="M240 34a6 6 0 0 0-6-6h-40a13.284 13.284 0 0 0-9.53 4.85L176.36 44H46a10 10 0 0 0-10 10v142h204V34Z"/><path fill="#5DE2F8" d="m237.001 186.45-30-96.9a14.47 14.47 0 0 0-13-9.55h-184c-5.5 0-8.67 4.3-7 9.55L36 196h194c5.5 0 8.67-4.3 7-9.55Z"/><path fill="#0052FF" d="M240 196 207 89.55A14.47 14.47 0 0 0 194 80H36v116h204ZM112 80l42.43-42.43A57.845 57.845 0 0 1 172 80h-60Z"/><path fill="#FFD200" d="M111.999 20a57.841 57.841 0 0 0-42.43 17.57A57.84 57.84 0 0 0 52 80h60l42.43-42.43A57.842 57.842 0 0 0 111.999 20Z"/><path fill="#0A0B0D" fill-rule="evenodd" d="M65 80c0-25.957 21.042-47 46.999-47 25.958 0 47 21.043 47 47h-94Zm-2 0c0-27.062 21.937-49 48.999-49s49 21.938 49 49h11a57.831 57.831 0 0 1-17.57 42.43 57.847 57.847 0 0 1-42.43 17.57 57.844 57.844 0 0 1-42.43-17.57A57.84 57.84 0 0 1 52 80h11Z" clip-rule="evenodd"/></svg>