<svg xmlns="http://www.w3.org/2000/svg" fill="none" viewBox="0 0 240 240"><path fill="#FFD200" d="M120 148a74 74 0 1 0 0-148 74 74 0 0 0 0 148Z"/><path fill="#0A0B0D" fill-rule="evenodd" d="M120 25.67a48.33 48.33 0 1 0 0 96.66 48.33 48.33 0 0 0 0-96.66ZM69.67 74a50.33 50.33 0 1 1 100.66 0 50.33 50.33 0 0 1-100.66 0Z" clip-rule="evenodd"/><path fill="#CED2DB" d="M120 240 0 168V32l120 72v136Z"/><path fill="#0052FF" d="M46 74a74 74 0 0 0 74 74v-44L47.28 60.37A73.75 73.75 0 0 0 46 74Zm74 166 120-72V32l-120 72v136Z"/><path fill="#0A0B0D" fill-rule="evenodd" d="m131.48 199.14 98.33-59 1.03 1.72-98.33 59-1.03-1.72Zm0-24 98.33-59 1.03 1.72-98.33 59-1.03-1.72Z" clip-rule="evenodd"/><path fill="#101114" fill-rule="evenodd" d="m107.49 200.86-98.33-59 1.03-1.72 98.33 59-1.03 1.72Zm0-24-98.33-59 1.03-1.72 98.33 59-1.03 1.72Z" clip-rule="evenodd"/><path fill="#0A0B0D" d="M194 74c0-4.57-.43-9.14-1.28-13.63L120 104v44a74 74 0 0 0 74-74Z"/><path fill="#0A0B0D" fill-rule="evenodd" d="M120 25.67a48.33 48.33 0 1 0 0 96.66 48.33 48.33 0 0 0 0-96.66ZM69.67 74a50.33 50.33 0 1 1 100.66 0 50.33 50.33 0 0 1-100.66 0Z" clip-rule="evenodd"/></svg>