<svg xmlns="http://www.w3.org/2000/svg" fill="none" viewBox="0 0 240 240"><path fill="#CED2DB" d="M159.8 0H136v56h23.8zm-40 0H96v56h23.8z"/><path fill="#FFD200" d="M128 88c17.673 0 32-14.327 32-32s-14.327-32-32-32-32 14.327-32 32 14.327 32 32 32"/><path fill="#FFFFFF" d="M152 56c-13.3 0-24 10.7-24 24 0-13.3-10.7-24-24-24 13.3 0 24-10.7 24-24 0 13.3 10.8 24 24 24"/><path fill="#CED2DB" d="M40 32h-8v88h8zM72 0H48v120h24zm16 0h-8v120h8z"/><path fill="#3CC28A" d="M208 120H32v120h176z"/><path fill="#0052FF" d="M207.997 200h-47.7c-11 0-20-9-20-20s9-20 20-20h47.7z"/><path fill="#CED2DB" d="M208 32h-40v88h40z"/><path fill="#3CC28A" d="M32 120c0-15.5 12.5-28 28-28s28 12.5 28 28"/><path fill="#0052FF" d="M88 120c0 15.5-12.5 28-28 28s-28-12.5-28-28"/><path fill="#0A0B0D" fill-rule="evenodd" d="M60 101c-10.448 0-19 8.552-19 19h-2c0-11.552 9.448-21 21-21s21 9.448 21 21h-2c0-10.448-8.552-19-19-19m-19 19c0 10.448 8.552 19 19 19s19-8.552 19-19h2c0 11.552-9.448 21-21 21s-21-9.448-21-21z" clip-rule="evenodd"/><path fill="#0A0B0D" d="M208.102 120c0 11-9 20-20 20s-20-9-20-20"/><path fill="#0052FF" d="M168.102 120c0-11 9-20 20-20s20 9 20 20z"/><path fill="#0A0B0D" fill-rule="evenodd" d="M160 169c-6.075 0-11 4.925-11 11s4.925 11 11 11 11-4.925 11-11-4.925-11-11-11m-13 11c0-7.18 5.82-13 13-13s13 5.82 13 13-5.82 13-13 13-13-5.82-13-13" clip-rule="evenodd"/><path fill="#FFFFFF" d="M195.998 125.3c0 1.5-1.2 2.7-2.7 2.7h-10.7c-1.5 0-2.7-1.2-2.7-2.7v-10.7c0-1.5 1.2-2.7 2.7-2.7h10.7c1.5 0 2.7 1.2 2.7 2.7z"/><path fill="#CED2DB" d="M216 160h-8v40h8z"/><path fill="#0A0B0E" fill-rule="evenodd" d="M52.102 188v-16h2v16z" clip-rule="evenodd"/><path fill="#0A0B0E" fill-rule="evenodd" d="m60.5 176.867-13.9 8-.998-1.734 13.9-8z" clip-rule="evenodd"/><path fill="#0A0B0E" fill-rule="evenodd" d="m46.6 175.133 13.9 8-.998 1.734-13.9-8zM76.203 188v-16h2v16z" clip-rule="evenodd"/><path fill="#0A0B0E" fill-rule="evenodd" d="m84.6 176.865-13.8 8-1.003-1.73 13.8-8z" clip-rule="evenodd"/><path fill="#0A0B0E" fill-rule="evenodd" d="m70.8 175.135 13.8 8-1.003 1.73-13.8-8zM100.102 188v-16h2v16z" clip-rule="evenodd"/><path fill="#0A0B0E" fill-rule="evenodd" d="m108.499 176.867-13.9 8-.997-1.734 13.9-8z" clip-rule="evenodd"/><path fill="#0A0B0E" fill-rule="evenodd" d="m94.6 175.133 13.899 8-.997 1.734-13.9-8zM124.102 188v-16h2v16z" clip-rule="evenodd"/><path fill="#0A0B0E" fill-rule="evenodd" d="m132.499 176.867-13.9 8-.997-1.734 13.9-8z" clip-rule="evenodd"/><path fill="#0A0B0E" fill-rule="evenodd" d="m118.599 175.133 13.9 8-.997 1.734-13.9-8zM59.996 78.586 44.703 63.293l-1.414 1.414 16.707 16.707 16.707-16.707-1.414-1.414z" clip-rule="evenodd"/><path fill="#0A0B0E" fill-rule="evenodd" d="M61 32v48h-2V32zm126.996 54.586-7.293-7.293-1.414 1.414 8.707 8.707 8.707-8.707-1.414-1.414z" clip-rule="evenodd"/><path fill="#0A0B0E" fill-rule="evenodd" d="M189 16v72h-2V16z" clip-rule="evenodd"/></svg>