<svg xmlns="http://www.w3.org/2000/svg" fill="none" viewBox="0 0 240 240"><path fill="#CED2DB" d="M240 34a6 6 0 0 0-6-6h-40a13.28 13.28 0 0 0-9.53 4.85L176.36 44H46a10 10 0 0 0-10 10v142h204V34Z"/><path fill="#5DE2F8" d="m237 186.45-30-96.9A14.47 14.47 0 0 0 194 80H10c-5.5 0-8.67 4.3-7 9.55L36 196h194c5.5 0 8.67-4.3 7-9.55Z"/><path fill="#0052FF" d="M240 196 207 89.55A14.47 14.47 0 0 0 194 80H36v116h204ZM112 80l42.43-42.43A57.85 57.85 0 0 1 172 80h-60Z"/><path fill="#FFD200" d="M112 20a57.84 57.84 0 0 0-42.43 17.57A57.84 57.84 0 0 0 52 80h60l42.43-42.43A57.84 57.84 0 0 0 112 20Z"/><path fill="#0A0B0D" fill-rule="evenodd" d="M65 80a47 47 0 1 1 94 0H65Zm-2 0a49 49 0 1 1 98 0h11a57.83 57.83 0 0 1-17.57 42.43A57.85 57.85 0 0 1 112 140a57.84 57.84 0 0 1-42.43-17.57A57.84 57.84 0 0 1 52 80h11Z" clip-rule="evenodd"/></svg>