<svg xmlns="http://www.w3.org/2000/svg" fill="none" viewBox="0 0 240 244"><path fill="#CED2DB" d="M240 76.6h-88v114h56V144h-32v-32h40v127.6h24v-163Z"/><path fill="#5DE2F8" d="M152 30a6 6 0 0 1 6-6h76a6 6 0 0 1 6 6v76a6 6 0 0 1-6 6h-76a6 6 0 0 1-6-6V30Z"/><path fill="#CED2DB" d="M32 108h8v136h-8V108Zm40-.4h8v102h-8v-102Zm16 0h16v109H88v-109Zm-40 .4h16v136H48V108Zm-40 0h16v136H8V108Zm80 105H64v31h24v-31Z"/><path fill="#CED2DB" d="M96 244h24v-31H96v31Zm40-53.4h72v49h-16V202h-8v37.6h-24V202h-8v37.6h-16v-49Z"/><path fill="#5DE2F8" d="M131.999 77c0-6.629 5.372-11.999 12.001-11.999-6.629 0-12.001-5.373-12.001-12.001 0 6.629-5.373 12.001-11.999 12.001 6.626 0 11.999 5.37 11.999 11.999Z"/><path fill="#00D17F" d="M23.999 176c0-6.629 5.373-11.999 12.001-11.999-6.628 0-12.001-5.372-12.001-12.001 0 6.629-5.373 12.001-11.999 12.001 6.626 0 11.999 5.37 11.999 11.999Z"/><path fill="#0052FF" fill-rule="evenodd" d="M24 152.172v23.656l-.001.172c0-6.629-5.373-11.999-11.999-11.999 6.626 0 11.999-5.372 11.999-12.001l.001.172Z" clip-rule="evenodd"/><path fill="#5DE2F8" d="M215.999 140c0-6.629 5.372-11.999 12.001-11.999-6.629 0-12.001-5.372-12.001-12.001 0 6.629-5.373 12.001-11.999 12.001 6.626 0 11.999 5.37 11.999 11.999Z"/><path fill="#0052FF" fill-rule="evenodd" d="M216 116.172v23.656l.001.172c0-6.629 5.373-11.999 11.999-11.999-6.626 0-11.999-5.372-11.999-12.001l-.001.172Z" clip-rule="evenodd"/><path fill="#0052FF" d="M0 6a6 6 0 0 1 6-6h100a6 6 0 0 1 6 6v100a6 6 0 0 1-6 6H6a6 6 0 0 1-6-6V6Z"/><path fill="#0A0B0D" d="M95.875 85.679c.1.982.125 1.95.075 2.906a19.592 19.592 0 0 0-10.554-7.822l-.792-7.568c-5.753-38.737-33.155-43.648-38.587-44.25 4.59-4.675 12.012-7.377 18.732-5.522a18.48 18.48 0 0 1 2.732.987 19.67 19.67 0 0 0-8.575 4.31c4.77-1.804 10.258-1.644 15.13.902.876.46 1.698.972 2.46 1.543a19.623 19.623 0 0 0-7.793 1.669 18.448 18.448 0 0 1 12.459 4.49 18.914 18.914 0 0 1 2.044 2.065 19.668 19.668 0 0 0-8.53-.045 18.444 18.444 0 0 1 12.554 6.615 17.992 17.992 0 0 1 1.674 2.37 19.682 19.682 0 0 0-8.68-1.443c4.596 1.278 8.705 4.31 11.216 8.805.486.862.892 1.744 1.218 2.636a19.7 19.7 0 0 0-8.189-2.982 18.456 18.456 0 0 1 9.677 10.449c.34.927.601 1.859.787 2.796a19.594 19.594 0 0 0-6.71-3.944 18.43 18.43 0 0 1 7.356 10.98A18.4 18.4 0 0 1 96 78.497a19.57 19.57 0 0 0-6.42-4.89 18.457 18.457 0 0 1 6.295 12.072Z"/><path fill="#CED2DB" d="M48.367 37.575c-.12.22-.22.46-.29.716l-.08.281c-.046.165-.106.31-.186.446.075-.135.135-.28.18-.446l.08-.28c.07-.256.171-.497.296-.717Zm.431-.597c-.165.176-.31.376-.43.597.115-.22.26-.421.43-.597Zm1.183-.801Z"/><path fill="#FFFFFF" d="M69.54 61.088c-.005-.005-.005-.01-.005-.015-.035-.24-.08-.476-.125-.712a53.47 53.47 0 0 0-.285-1.393 6.24 6.24 0 0 0-.096-.44l-.12-.502c-.035-.135-.065-.266-.1-.396-.115-.44-.23-.872-.356-1.298-.115-.4-.24-.791-.366-1.177l-.03-.1c-.065-.196-.135-.386-.2-.577a27.75 27.75 0 0 0-.441-1.188c-.076-.19-.15-.386-.23-.576l-.242-.566a36.696 36.696 0 0 0-.771-1.634 28.584 28.584 0 0 0-.837-1.553c-.095-.17-.196-.336-.296-.502a17.89 17.89 0 0 0-.611-.967c-.1-.16-.206-.32-.316-.476a25.904 25.904 0 0 0-.987-1.368 30.144 30.144 0 0 0-1.423-1.734 14.963 14.963 0 0 0-.356-.396 32.634 32.634 0 0 0-1.529-1.583 27.06 27.06 0 0 1-.4-.381c-.13-.126-.266-.246-.401-.371a34.077 34.077 0 0 0-.822-.732 28.56 28.56 0 0 0-.842-.706 36.99 36.99 0 0 0-.862-.692c-.145-.11-.29-.225-.441-.336a12.539 12.539 0 0 0-.441-.33c-.3-.226-.607-.446-.917-.667-.296-.21-.597-.416-.902-.626-.306-.21-.617-.416-.932-.622a3.343 3.343 0 0 0-.847-.39 3.028 3.028 0 0 0-1.098-.116c-.08.005-.155.01-.235.025a1.96 1.96 0 0 0-.236.045 1.8 1.8 0 0 0-.235.06c-.076.026-.15.05-.226.08a3.067 3.067 0 0 0-.631.331c-.07.04-.14.09-.206.15-.06.046-.115.09-.17.146a2.878 2.878 0 0 0-.606.772c-.12.22-.221.46-.291.716l-.08.281a1.78 1.78 0 0 1-.456.797c-.657.661-1.78.691-2.471.06-.1-.09-.19-.2-.27-.32a1.655 1.655 0 0 1-.206-.402l-4.13-11.45c.026.074.046.15.066.225.065.215.125.42.175.626.03.1.055.206.075.306.02.07.035.14.05.21.04.166.07.326.096.482.03.16.055.31.075.46l.015.11c.015.151.03.297.035.437.005.075.005.145.005.215 0 .096-.005.186-.01.276a3.973 3.973 0 0 1-.065.42c-.03.101-.06.201-.106.287l-.03.055a.926.926 0 0 1-.2.255.798.798 0 0 1-.34.18c-.712.191-1.204-.105-1.5-.4-.03-.03-.054-.06-.08-.085a1.556 1.556 0 0 1-.13-.166c-.09-.125-.135-.215-.135-.215l-.165.21-1.98 2.47-1.984 2.471-.005-.005-6.215 7.733a1.946 1.946 0 0 0-.375 1.649l.53 2.31-10.954 15.655a5.192 5.192 0 0 0-.837 3.98l.34 1.718a5.607 5.607 0 0 0 4.26 4.385l2.742.627a5.608 5.608 0 0 0 4.31-.762l1.723-1.118a2.11 2.11 0 0 0 .958-1.764v-1.072l3.457-9.286c.371.37 2.631 2.566 5.929 3.187 1.769.336 3.834.22 6.069-.872.416-.2.806-.42 1.177-.646l.361-.23h.005c.206-.136.396-.271.586-.417a4.56 4.56 0 0 0 .346-.27c.04-.025.08-.06.12-.1.13-.1.251-.206.371-.321.005.005.015-.005.02-.015.146-.126.281-.261.411-.391.09-.09.18-.18.266-.276.09-.09.17-.185.25-.275l.236-.281c.075-.095.15-.19.22-.286a5.59 5.59 0 0 0 .216-.29c.2-.286.39-.582.561-.872.17-.296.321-.592.461-.887.872-1.88 1.128-3.754 1.173-5.162.04-1.393-.135-2.32-.135-2.32h.005l.005.005c.015.01.065.045.135.1a3.9 3.9 0 0 1 .366.326c.04.035.08.075.12.12.19.185.406.43.627.731a9.2 9.2 0 0 1 1.263 2.34c.33.883.59 1.945.701 3.218.04.421.06.867.06 1.338 0 1.283-.15 2.536-.42 3.744a18.66 18.66 0 0 1-.372 1.428c-.065.235-.14.466-.22.696-.02.07-.045.136-.07.206a22.724 22.724 0 0 1-.717 1.809 24.468 24.468 0 0 1-.932 1.89 26.595 26.595 0 0 1-1.027 1.743 7.633 7.633 0 0 1-.271.426c-.14.22-.286.436-.436.647a34.52 34.52 0 0 1-4.29 5.107c-.07.07-.14.135-.2.195a6.7 6.7 0 0 1-.326.3c-.01.015-.02.02-.03.03h-.005l-.025.025c-.11.136-.226.266-.34.396-5.634 6.29-11.276 7.893-14.599 15.987h35.53l1.033-3.283c2.075-11.686 2.27-20.702 1.067-27.848Zm-48.685 7.627-.767 1.048a.602.602 0 0 1-1.072-.24l-.456-2.311a1.757 1.757 0 0 1 .822-1.85.845.845 0 0 1 1.093.195l.33.417c.631.797.651 1.924.05 2.741ZM35.208 45.94a3.35 3.35 0 0 1-3.268 1.187 3.36 3.36 0 0 1 .456-3.442 3.343 3.343 0 0 1 3.268-1.188 3.336 3.336 0 0 1-.456 3.443Zm25.247 38.256L49.75 85.218c-.983.09-1.504-1.133-.757-1.774 2.495-2.16 5.267-4.12 8.038-7.212 1.784-1.994 2.927-4.25 3.653-6.454.19-.572 1.028-.481 1.083.125l1.062 11.421a2.636 2.636 0 0 1-2.375 2.871Z"/><path fill="#FFFFFF" d="M20.805 65.974c.631.797.651 1.924.05 2.741l-.767 1.048a.602.602 0 0 1-1.072-.24l-.456-2.311a1.757 1.757 0 0 1 .822-1.85.845.845 0 0 1 1.092.195l.331.417ZM31.94 47.126a3.36 3.36 0 0 1 .456-3.442 3.343 3.343 0 0 1 3.267-1.188 3.35 3.35 0 0 1-3.723 4.63Zm2.39-11.04-.005-.005 1.985-2.47.035-.04 1.95-2.426-1.98 2.47-1.984 2.471Zm6.2-8.604c-.035-.105-.066-.216-.1-.32l.034.094c.026.075.046.15.066.226Zm6.38 48.299c-.01.016-.021.02-.031.03.01-.01.015-.02.025-.03h.005Zm1.086-37.209c-.045.165-.105.31-.185.446.075-.135.135-.28.18-.446l.08-.28c.07-.256.171-.497.296-.717-.12.22-.22.46-.29.716l-.08.281Zm.802-1.594c-.165.176-.31.376-.43.597.115-.22.26-.421.43-.597Zm1.183-.801Zm2.937 13.24h-.005v-.005l.005.005Zm.541 17.945Zm.707-16.668a8.1 8.1 0 0 0-.627-.731c.19.185.406.43.627.731Zm.225 14.779a24.504 24.504 0 0 1-.932 1.89c.326-.607.641-1.239.932-1.89Zm1.037-12.438c.331.882.592 1.944.702 3.217a12.327 12.327 0 0 0-.702-3.217Zm-.03 9.727Zm.372-1.428a17.49 17.49 0 0 0 .415-3.744c0-.47-.02-.912-.055-1.338.04.421.06.867.06 1.338 0 1.283-.15 2.536-.42 3.744Zm-6.776 22.11c2.495-2.16 5.267-4.12 8.038-7.212 1.784-1.994 2.927-4.25 3.653-6.454.19-.572 1.028-.481 1.083.125l1.062 11.421a2.636 2.636 0 0 1-2.375 2.871L49.75 85.218c-.983.09-1.504-1.133-.757-1.774Zm-8.8-20.121L36.43 65.77l-5.623 3.653 3.458-9.286c.371.37 2.631 2.566 5.929 3.187Z"/><path fill="#0A0B0D" d="M41.056 30.328c0 .096-.005.186-.01.276a3.91 3.91 0 0 1-.035.27l-.03.15c-.03.101-.06.201-.106.287l-.03.055a.928.928 0 0 1-.2.255.798.798 0 0 1-.341.18c-.712.191-1.203-.105-1.498-.4-.03-.03-.055-.06-.08-.085a2.588 2.588 0 0 1-.13-.166c-.086-.125-.131-.215-.131-.215h-.005c-.095-.22-2.2-4.856-.637-10.183 0 0 .812 1.638 1.62 3.653l.991 2.751v.005l.03.095c.026.075.046.15.066.226.065.215.125.42.175.626.03.1.055.206.075.306.015.07.035.14.05.21.04.166.07.326.095.482a8.7 8.7 0 0 1 .09.57c.016.151.03.297.036.437.005.075.005.145.005.215ZM20.855 68.715l-.767 1.048a.602.602 0 0 1-1.072-.24l-.456-2.311a1.757 1.757 0 0 1 .822-1.85.845.845 0 0 1 1.092.195l.331.417c.631.797.651 1.924.05 2.741Z"/><path fill="#CED2DB" d="M56.19 57.59c0 1.283-.15 2.536-.42 3.744-.106.486-.232.962-.372 1.428-.07.23-.145.466-.22.697-.02.07-.045.135-.07.205-.14.39-.286.772-.436 1.153-.09.22-.18.436-.281.656a24.468 24.468 0 0 1-.932 1.89 26.595 26.595 0 0 1-1.028 1.743c-.09.14-.18.286-.27.426-.14.22-.286.436-.436.647-.21.3-.416.591-.622.872a34.52 34.52 0 0 1-3.668 4.234l-.2.196a6.7 6.7 0 0 1-.326.3c-.01.015-.02.02-.03.03.01-.01.015-.02.025-.03 3.558-4.274 4.345-9.616 4.43-13.02.04-1.498-1.609-2.43-2.867-1.613l-.661.426c.206-.135.396-.27.586-.416a4.56 4.56 0 0 0 .346-.27c.04-.025.08-.06.12-.1.126-.096.251-.206.371-.321.005.005.015-.005.02-.015.14-.126.28-.256.411-.391.095-.09.186-.18.266-.276.09-.09.17-.185.25-.275a5.84 5.84 0 0 0 .236-.281c.08-.095.155-.19.22-.286.08-.095.15-.19.216-.29a8.29 8.29 0 0 0 .561-.872c.17-.296.326-.592.461-.887.877-1.88 1.138-3.759 1.173-5.162.04-1.328-.115-2.235-.13-2.315v-.005l.005.005c.015.01.065.045.135.1a3.9 3.9 0 0 1 .366.326l.12.12c.19.185.406.43.626.731.076.1.15.211.231.321a9.2 9.2 0 0 1 1.032 2.02c.331.882.592 1.944.702 3.217.04.421.06.867.06 1.338Z"/><path fill="#0A0B0D" d="M35.207 45.939a3.35 3.35 0 0 1-3.267 1.187 3.36 3.36 0 0 1 .456-3.442 3.343 3.343 0 0 1 3.267-1.188 3.336 3.336 0 0 1-.456 3.443Z"/><path fill="#FFFFFF" d="m20.133 20.631 14.192 15.45.005.005 3.964-4.94-18.16-10.515Z"/><path fill="#CED2DB" d="M68.473 88.936c2.075-11.686 2.27-20.702 1.067-27.848-.005-.005-.005-.01-.005-.015-.035-.24-.08-.476-.125-.712-.025-.165-.06-.325-.09-.486a26.5 26.5 0 0 0-.196-.907 6.238 6.238 0 0 0-.095-.44l-.12-.502a5.048 5.048 0 0 0-.1-.396c-.11-.44-.226-.872-.356-1.298-.11-.4-.236-.791-.366-1.177l-.03-.1c-.06-.196-.13-.386-.2-.577-.14-.406-.286-.797-.442-1.188a11.53 11.53 0 0 0-.23-.576l-.24-.566a22.162 22.162 0 0 0-.507-1.098 17.58 17.58 0 0 0-.265-.536c-.085-.175-.176-.35-.271-.526-.18-.35-.37-.692-.566-1.027-.096-.17-.196-.336-.296-.502a17.89 17.89 0 0 0-.611-.967c-.1-.16-.206-.32-.316-.476-.105-.155-.21-.31-.32-.466a9.52 9.52 0 0 0-.331-.456 8.57 8.57 0 0 0-.336-.446 30.101 30.101 0 0 0-1.423-1.734 6.483 6.483 0 0 0-.356-.396 32.541 32.541 0 0 0-1.529-1.583c-.135-.13-.265-.26-.4-.381-.131-.13-.266-.25-.402-.371-.135-.125-.27-.246-.405-.366a9.396 9.396 0 0 0-.416-.366 24.38 24.38 0 0 0-.842-.706 37.037 37.037 0 0 0-.862-.692c-.146-.11-.291-.225-.441-.336a12.539 12.539 0 0 0-.441-.33 45.901 45.901 0 0 0-.917-.667 28.717 28.717 0 0 0-.902-.626c-.306-.21-.617-.416-.932-.622a3.334 3.334 0 0 0-.847-.39 3.03 3.03 0 0 0-1.098-.116c-.08.005-.155.01-.235.025a1.96 1.96 0 0 0-.236.045c-.08.015-.16.035-.236.06-.075.02-.15.046-.225.08-.15.056-.29.12-.431.206a1.21 1.21 0 0 0-.2.125c-.07.04-.14.09-.206.15-.06.046-.115.09-.17.146a1.46 1.46 0 0 0-.176.175c-.17.176-.316.376-.43.597-.126.22-.226.46-.296.716l-.08.281a2.05 2.05 0 0 1-.181.446c-.08.13-.17.25-.27.35-.657.662-1.78.692-2.471.061a1.873 1.873 0 0 1-.471-.722l-4.165-11.546v-.005a36.655 36.655 0 0 0-.992-2.751 56.643 56.643 0 0 0-1.619-3.653s4.51 2.09 7.257 8.118c0 0 .33.015.937.075 5.432.602 32.834 5.513 38.587 44.25l.792 7.568 1.198 11.456H67.44l1.032-3.283Z"/><path fill="#FFFFFF" d="M216 60c0 11.046-8.954 20-20 20s-20-8.954-20-20 8.954-20 20-20 20 8.954 20 20Z"/><path fill="#FFFFFF" d="M176 61h40v35h-40V61Z"/><path fill="#0A0B0D" d="M193 57a3 3 0 1 1-6 0 3 3 0 0 1 6 0Zm12 0a3 3 0 1 1-6 0 3 3 0 0 1 6 0Z"/><path fill="#5DE2F8" d="M184 88h8v8h-8v-8Zm16 0h8v8h-8v-8Z"/><path fill="#0A0B0D" fill-rule="evenodd" d="M192 64a4 4 0 0 0 8 0h-8Z" clip-rule="evenodd"/><path fill="#FFD200" d="M136 142a6 6 0 0 1 6-6h60a6 6 0 0 1 6 6v60a6 6 0 0 1-6 6h-60a6 6 0 0 1-6-6v-60Z"/><path fill="#0052FF" d="M152 152h40v40h-40v-40Z"/><path fill="#00D17F" d="m152 152-4-4v48l4-4v-40Zm40 40 4 4v-48l-4 4v40Z"/><path fill="#0A0B0D" d="m192 152 4-4h-48l4 4h40Zm-40 40-4 4h48l-4-4h-40Z"/><path fill="#FFFFFF" d="m172 180-7-7-13 11.421V192h40v-16l-8-8-12 12Z"/><path fill="#FFD200" d="M168 162.5a5.5 5.5 0 1 1-11 0 5.5 5.5 0 1 1 11 0Z"/><path fill="#00D17F" d="M64 182a6 6 0 0 1 6-6h44a6 6 0 0 1 6 6v44a6 6 0 0 1-6 6H70a6 6 0 0 1-6-6v-44Z"/><path fill="#0A0B0D" d="M72 208h8v16h-8v-16Zm16-8h8v24h-8v-24Zm16-8h8v32h-8v-32Z"/></svg>