<svg xmlns="http://www.w3.org/2000/svg" fill="none" viewBox="0 0 240 240"><path fill="#00D17F" d="M52 240a52 52 0 1 0 0-104 52 52 0 0 0 0 104Z"/><path fill="#FFD200" d="M160 160a80 80 0 1 0 0-160 80 80 0 0 0 0 160Z"/><path fill="#0A0B0D" d="M160 145c-35.8 0-65-29.2-65-65s29.2-65 65-65 65 29.2 65 65-29.2 65-65 65Zm0-128c-34.7 0-63 28.3-63 63s28.3 63 63 63 63-28.3 63-63-28.3-63-63-63Z"/><path fill="#CED2DB" d="M144 120H56v48h88v-48Z"/><path fill="#0052FF" d="M144 158.4V120H90.7a80 80 0 0 0 53.3 38.4Z"/><path fill="#0A0B0D" d="M144 143v-2.1c-13-3.4-24.3-10.9-32.6-20.9h-2.5c8.7 11.2 21 19.4 35.1 23Z"/><path fill="#0052FF" d="M56 136.2V168h44a52.04 52.04 0 0 0-44-31.8Z"/><path fill="#0A0B0D" d="M52 225c-20.4 0-37-16.6-37-37s16.6-37 37-37 37 16.6 37 37-16.6 37-37 37Zm0-72c-19.3 0-35 15.7-35 35s15.7 35 35 35 35-15.7 35-35-15.7-35-35-35Z"/><path fill="#0A0B0D" d="M56 151.2v2c10.2 1.2 19.1 6.7 24.7 14.8h2.4A37.05 37.05 0 0 0 56 151.2Z"/><path fill="#0A0B0D" fill-rule="evenodd" d="M52 177a11 11 0 1 0 0 22 11 11 0 0 0 0-22Zm-13 11a13 13 0 1 1 26 0 13 13 0 0 1-26 0Zm120-68V40h2v80h-2Z" clip-rule="evenodd"/><path fill="#0A0B0D" fill-rule="evenodd" d="M120 79h80v2h-80v-2Z" clip-rule="evenodd"/><path fill="#0A0B0D" fill-rule="evenodd" d="M187.6 109 131 52.4l1.4-1.4 56.6 56.6-1.4 1.4Z" clip-rule="evenodd"/><path fill="#0A0B0D" fill-rule="evenodd" d="M131 107.6 187.6 51l1.4 1.4-56.6 56.6-1.4-1.4Z" clip-rule="evenodd"/></svg>