<svg xmlns="http://www.w3.org/2000/svg" fill="none" viewBox="0 0 241 240"><path fill="#CED2DB" d="M120 24c25.6 0 49.8 10 67.9 28.1 37.4 37.4 37.4 98.3 0 135.8A95.55 95.55 0 0 1 120 216c-25.6 0-49.8-10-67.9-28.1-37.4-37.4-37.4-98.3 0-135.8A95.55 95.55 0 0 1 120 24Zm0-24C89.3 0 58.6 11.7 35.1 35.1-11.7 82-11.7 158 35.1 204.9 58.6 228.3 89.3 240 120 240c30.7 0 61.4-11.7 84.9-35.1 46.9-46.9 46.9-122.8 0-169.7A119.64 119.64 0 0 0 120 0Z"/><path fill="#0A0B0D" fill-rule="evenodd" d="M120 11.5c27.75 0 55.51 10.6 76.7 31.8a108.17 108.17 0 0 1 31.8 75.59l-2 .02c-.3-26.95-10.7-53.7-31.2-74.2A106.14 106.14 0 0 0 120 13.5v-2Zm0 217c-27.76 0-55.52-10.6-76.71-31.8l1.41-1.4a106.14 106.14 0 0 0 75.3 31.2v2Z" clip-rule="evenodd"/><path fill="#CED2DB" d="M132 228h-24c0-37.2 6.8-73.1 20.2-106.7 13.4-33.6 32.7-63.1 57.3-87.8l17 17C157.7 95.3 132 160 132 228Z"/><path fill="#00D17F" d="M132 228h-24c0-66.4-25.7-128.8-72.5-175.5l17-17C103.8 86.8 132 155.1 132 228Z"/><path fill="#0052FF" d="M108 228h24c0-28.2-4.2-55.7-12.4-81.8A289.3 289.3 0 0 0 108 228Z"/><path fill="#CED2DB" d="M12 132v-24c10.6 0 30.2-6.1 50.7-23.4C78.4 71.3 99 47.5 108.3 9.2l23.3 5.7C120.7 59.5 96.5 87.4 78.1 103c-21.2 17.9-46.5 29-66.1 29Z"/><path fill="#0052FF" d="M79.7 67.3c-5.8 7.1-11.7 12.8-17 17.3 4.7 6.6 9 13.4 13 20.4.8-.7 1.7-1.4 2.5-2.1 4.8-4.1 10.1-9 15.4-14.9-4.3-7.1-8.9-14-13.9-20.7Z"/><path fill="#00D17F" d="M186.7 202.4c-24-39.4-26.5-75-25.4-99.5 1.4-29.2 10.7-55.8 24.3-69.4l17 17c-7.7 7.7-16 27.3-17.3 53.6-1 21.1 1.4 52.5 22.2 86.7l-20.8 11.6Z"/><path fill="#0052FF" d="M161.1 107.2c11-21.1 24.9-40.3 41.4-56.8l-17-17c-13.6 13.6-22.9 40.2-24.3 69.4 0 1.5-.1 3-.1 4.4Z"/><path fill="#101114" d="M34.8 187.5a12.01 12.01 0 1 1 17 17 12.01 12.01 0 1 1-17-17Z"/><path fill="#101114" d="M34.8 187.5a12.01 12.01 0 1 1 17 17 12.01 12.01 0 1 1-17-17Z"/><path fill="#00D17F" d="M205.1 187.5a12.01 12.01 0 1 1-17 17 12.01 12.01 0 1 1 17-17Z"/><path fill="#0052FF" d="M206.2 188.8c-2.8-4.7-5.2-9.4-7.4-14-3.2 4.6-6.9 9-11 13.2-2 2-4.1 3.9-6.3 5.7 1.3 2.3 2.6 4.7 4 7a12.01 12.01 0 0 0 19.6 3.9c4.3-4.4 4.7-11.1 1.1-15.8Z"/><path fill="#00D17F" d="M52.5 35.5a12.01 12.01 0 1 1-17 17 12.01 12.01 0 1 1 17-17Z"/><path fill="#101114" d="M228 108c6.6 0 12 5.4 12 12s-5.4 12-12 12-12-5.4-12-12 5.4-12 12-12Z"/><path fill="#0A0B0D" fill-rule="evenodd" d="M119 228c0-72.15 27-139.4 74.3-186.7l1.4 1.4C147.8 89.6 121 156.36 121 228h-2ZM69.78 92.99c20.88-17.63 40.3-44.45 49.25-81.23l1.94.48c-9.05 37.22-28.73 64.4-49.9 82.27C49.93 112.36 27.21 121 12 121v-2c14.6 0 36.87-8.36 57.78-26.01Z" clip-rule="evenodd"/><path fill="#0052FF" d="M35.5 52.5c2.9 2.9 5.7 5.9 8.5 8.9 2.5-3.2 5.2-6.3 8.1-9.3 2.8-2.8 5.7-5.4 8.8-7.8-2.7-3-5.5-5.9-8.4-8.8a12.01 12.01 0 1 0-17 17Z"/><path fill="#101114" d="M108 12c0-6.6 5.4-12 12-12s12 5.4 12 12-5.4 12-12 12-12-5.4-12-12Zm-96 96c6.6 0 12 5.4 12 12s-5.4 12-12 12-12-5.4-12-12 5.4-12 12-12Zm96 120c0-6.6 5.4-12 12-12s12 5.4 12 12-5.4 12-12 12-12-5.4-12-12Zm86.3-198.1c6.6 0 12 5.4 12 12s-5.4 12-12 12-12-5.4-12-12c0-6.7 5.4-12 12-12Z"/></svg>