<svg xmlns="http://www.w3.org/2000/svg" fill="none" viewBox="0 0 240 240"><path fill="#101114" d="M212 28h-92.1v92.4H212V28Z"/><path fill="#FFD200" d="M119.9 28H28v92.5h91.9V28Z"/><path fill="#0052FF" d="M212 120.4h-92.1V212H212v-91.6Z"/><path fill="#CED2DB" d="M119.9 120.4H28V212h91.9v-91.6Z"/><path fill="#FFFFFF" d="M120 104c-15.5 0-28-12.5-28-28s12.5-28 28-28v56Z"/><path fill="#0052FF" d="M120 48c15.5 0 28 12.5 28 28s-12.5 28-28 28V48Z"/><path fill="#0A0B0D" fill-rule="evenodd" d="M120 57a19 19 0 1 0 0 38 19 19 0 0 0 0-38ZM99 76a21 21 0 1 1 42 0 21 21 0 0 1-42 0Z" clip-rule="evenodd"/><path fill="#FFFFFF" d="M104 120c0 15.5-12.5 28-28 28s-28-12.5-28-28h56Z"/><path fill="#0052FF" d="M48 120c0-15.5 12.5-28 28-28s28 12.5 28 28H48Z"/><path fill="#0A0B0D" fill-rule="evenodd" d="M76 101a19 19 0 1 0 0 38 19 19 0 0 0 0-38Zm-21 19a21 21 0 1 1 42 0 21 21 0 0 1-42 0Z" clip-rule="evenodd"/><path fill="#FEFFFF" d="M104 212c0 15.5-12.5 28-28 28s-28-12.5-28-28h56Z"/><path fill="#0052FF" d="M48 212c0-15.5 12.5-28 28-28s28 12.5 28 28H48Z"/><path fill="#101114" fill-rule="evenodd" d="M76 193a19 19 0 1 0 0 38 19 19 0 0 0 0-38Zm-21 19a21 21 0 1 1 42 0 21 21 0 0 1-42 0Z" clip-rule="evenodd"/><path fill="#FEFFFF" d="M28 100C12.5 100 0 87.5 0 72s12.5-28 28-28v56Z"/><path fill="#0052FF" d="M28 44c15.5 0 28 12.5 28 28s-12.5 28-28 28V44Z"/><path fill="#101114" fill-rule="evenodd" d="M28 53a19 19 0 1 0 0 38 19 19 0 0 0 0-38ZM7 72a21 21 0 1 1 42 0 21 21 0 0 1-42 0Z" clip-rule="evenodd"/><path fill="#0052FF" d="M196 28c0 15.5-12.5 28-28 28s-28-12.5-28-28h56Z"/><path fill="#FEFFFF" d="M140 28c0-15.5 12.5-28 28-28s28 12.5 28 28h-56Z"/><path fill="#101114" fill-rule="evenodd" d="M168 9a19 19 0 1 0 0 38 19 19 0 0 0 0-38Zm-21 19a21 21 0 1 1 42 0 21 21 0 0 1-42 0Z" clip-rule="evenodd"/><path fill="#FFFFFF" d="m146.3 167.3 9.4 30 11.9-21.3 14.6 16.3 9.7-9.6-16.4-14.7 21.4-11.9-30-9.4-30-9.4 9.4 30Z"/></svg>