<svg xmlns="http://www.w3.org/2000/svg" fill="none" viewBox="0 0 240 240"><g clip-path="url(#a)"><path fill="#FFD200" d="M119.797 103.6a47.46 47.46 0 0 0 26.446-8.056 47.76 47.76 0 0 0 17.532-21.452 48 48 0 0 0 2.709-27.617A47.86 47.86 0 0 0 153.456 22a47.54 47.54 0 0 0-24.372-13.082 47.4 47.4 0 0 0-27.503 2.72 47.64 47.64 0 0 0-21.363 17.606A47.94 47.94 0 0 0 72.195 55.8a47.9 47.9 0 0 0 13.943 33.8 47.5 47.5 0 0 0 33.659 14"/><path fill="#CED2DB" d="M239.301 119.8H.297v120H239.3z"/><path fill="#5DE2F8" d="M40.13 159.8c7.88 0 15.58-2.346 22.131-6.741a39.96 39.96 0 0 0 14.672-17.952 40.15 40.15 0 0 0 2.266-23.111 40.05 40.05 0 0 0-10.901-20.48 39.8 39.8 0 0 0-20.396-10.947 39.7 39.7 0 0 0-23.015 2.276A39.87 39.87 0 0 0 7.01 97.577 40.1 40.1 0 0 0 .297 119.8a40.08 40.08 0 0 0 11.667 28.284 39.8 39.8 0 0 0 12.923 8.671 39.7 39.7 0 0 0 15.244 3.045"/><path fill="#FFD200" d="M119.792 94a37.93 37.93 0 0 0 21.134-6.438 38.16 38.16 0 0 0 14.011-17.144 38.34 38.34 0 0 0 2.165-22.07 38.25 38.25 0 0 0-10.411-19.56 38 38 0 0 0-19.478-10.454 37.9 37.9 0 0 0-21.979 2.174 38.1 38.1 0 0 0-17.073 14.07A38.3 38.3 0 0 0 81.75 55.8a38.28 38.28 0 0 0 11.142 27.011A37.96 37.96 0 0 0 119.792 94"/><path fill="#0A0B0D" fill-rule="evenodd" d="M119.787 18.6a36.94 36.94 0 0 0-20.581 6.27 37.17 37.17 0 0 0-13.644 16.694 37.34 37.34 0 0 0-2.108 21.493 37.25 37.25 0 0 0 10.138 19.047 37 37 0 0 0 18.968 10.181 36.9 36.9 0 0 0 21.404-2.117 37.1 37.1 0 0 0 16.626-13.7 37.315 37.315 0 0 0-4.61-46.97A36.98 36.98 0 0 0 119.787 18.6M80.75 55.8c0-7.753 2.29-15.332 6.579-21.778a39.07 39.07 0 0 1 17.519-14.438 38.9 38.9 0 0 1 22.555-2.23 39 39 0 0 1 19.988 10.727 39.26 39.26 0 0 1 10.684 20.072 39.35 39.35 0 0 1-2.222 22.648 39.16 39.16 0 0 1-14.378 17.593A38.9 38.9 0 0 1 119.787 95a38.96 38.96 0 0 1-27.603-11.481A39.28 39.28 0 0 1 80.75 55.8" clip-rule="evenodd"/><path fill="#5DE2F8" d="M199.467 159.8c7.878 0 15.58-2.346 22.13-6.741a39.97 39.97 0 0 0 14.672-17.952 40.15 40.15 0 0 0 2.266-23.111 40.05 40.05 0 0 0-10.901-20.48 39.8 39.8 0 0 0-20.396-10.947 39.7 39.7 0 0 0-23.015 2.276 39.87 39.87 0 0 0-17.877 14.732 40.1 40.1 0 0 0-6.713 22.223 40.08 40.08 0 0 0 11.667 28.284 39.75 39.75 0 0 0 28.167 11.716"/><path fill="#0052FF" d="M79.965 119.8a40.08 40.08 0 0 1-11.667 28.284A39.75 39.75 0 0 1 40.13 159.8a39.75 39.75 0 0 1-28.167-11.716A40.08 40.08 0 0 1 .297 119.8zm159.336 0a40.08 40.08 0 0 1-11.667 28.284 39.75 39.75 0 0 1-28.167 11.716 39.75 39.75 0 0 1-28.167-11.716 40.08 40.08 0 0 1-11.667-28.284z"/><path fill="#0052FF" d="M40.13 240c7.88 0 15.58-2.346 22.131-6.741a39.96 39.96 0 0 0 14.672-17.952 40.15 40.15 0 0 0 2.266-23.111 40.05 40.05 0 0 0-10.901-20.48 39.8 39.8 0 0 0-20.396-10.947 39.67 39.67 0 0 0-23.015 2.276A39.87 39.87 0 0 0 7.01 177.777 40.1 40.1 0 0 0 .297 200a40.08 40.08 0 0 0 11.667 28.284 39.8 39.8 0 0 0 12.923 8.671A39.7 39.7 0 0 0 40.131 240"/><path fill="#0052FF" d="M119.803 240c7.878 0 15.58-2.346 22.13-6.741a39.97 39.97 0 0 0 14.672-17.952 40.15 40.15 0 0 0 2.266-23.111 40.05 40.05 0 0 0-10.901-20.48 39.8 39.8 0 0 0-20.396-10.947 39.67 39.67 0 0 0-23.015 2.276 39.87 39.87 0 0 0-17.877 14.732A40.1 40.1 0 0 0 79.969 200a40.08 40.08 0 0 0 11.667 28.284A39.75 39.75 0 0 0 119.803 240"/><path fill="#0052FF" d="M199.467 240c7.878 0 15.58-2.346 22.13-6.741a39.97 39.97 0 0 0 14.672-17.952 40.15 40.15 0 0 0 2.266-23.111 40.05 40.05 0 0 0-10.901-20.48 39.8 39.8 0 0 0-20.396-10.947 39.67 39.67 0 0 0-23.015 2.276 39.86 39.86 0 0 0-17.877 14.732A40.1 40.1 0 0 0 159.633 200a40.08 40.08 0 0 0 11.667 28.284A39.75 39.75 0 0 0 199.467 240"/><path fill="#0A0B0D" fill-rule="evenodd" d="M118.805 103.57h1.991V37h-1.991z" clip-rule="evenodd"/><path fill="#0A0B0E" fill-rule="evenodd" d="m119.841 145.59 12.268-13.27 1.464 1.36-13.623 14.73-14.669-13.57 1.345-1.47z" clip-rule="evenodd"/><path fill="#0A0B0E" fill-rule="evenodd" d="M119.801 103.6h-.996V147h1.991v-43.43z" clip-rule="evenodd"/><path fill="#0A0B0D" fill-rule="evenodd" d="M118.797 96V29.4h2V96z" clip-rule="evenodd"/></g><defs><clipPath id="a"><path fill="#FFFFFF" d="M0 0h240v240H0z"/></clipPath></defs></svg>