<svg xmlns="http://www.w3.org/2000/svg" fill="none" viewBox="0 0 240 241"><path fill="#CED2DB" d="M155.95 120H83.98v84h71.97v-84ZM71.98 36H0v84h71.98V36Z"/><path fill="#00D17F" d="M145.25 10.96 94.78 61.45l83.84 83.86 50.47-50.49-83.84-83.86Z"/><path fill="#CED2DB" d="M229.37 61.46a36 36 0 0 0 0-50.92 35.98 35.98 0 0 0-50.9 0 36 36 0 0 0 0 50.92 35.98 35.98 0 0 0 50.9 0Z"/><path fill="#0052FF" d="m206.23 71.9-38.29-38.3c0 .8-.1 1.6-.1 2.3 0 19.9 16.1 36 36 36 .9.1 1.7.1 2.4 0Z"/><path fill="#CED2DB" d="M35.99 240a36 36 0 1 0-.01-71.98 36 36 0 0 0 0 71.98Z"/><path fill="#00D17F" d="M71.98 120c0 19.9-16.1 36-36 36A35.97 35.97 0 0 1 0 120h71.98Z"/><path fill="#0052FF" d="M0 120c0-19.9 16.1-36 35.99-36 19.9 0 35.99 16.1 35.99 36H0Z"/><path fill="#0A0B0D" fill-rule="evenodd" d="M36 93a27 27 0 1 0 0 54 27 27 0 0 0 0-54ZM7 120a29 29 0 1 1 58 0 29 29 0 0 1-58 0Z" clip-rule="evenodd"/><path fill="#FFD200" d="M119.97 156a36 36 0 1 0-.02-71.99 36 36 0 0 0 .02 72Z"/><path fill="#0052FF" d="M119.96 84c-.8 0-1.7 0-2.5.1l38.39 38.4c.1-.8.1-1.7.1-2.5 0-19.9-16.1-36-35.99-36Z"/><path fill="#CED2DB" d="M203.93 240a36 36 0 1 0 0-71.99 36 36 0 0 0 0 72Z"/><path fill="#FFD200" d="M0 36C0 16.1 16.1 0 35.99 0c19.9 0 35.99 16.1 35.99 36H0Z"/><path fill="#0052FF" d="M71.98 36c0 19.9-16.1 36-36 36A35.97 35.97 0 0 1 0 36h71.98Z"/><path fill="#0A0B0D" fill-rule="evenodd" d="M36 9a27 27 0 1 0 0 54 27 27 0 0 0 0-54ZM7 36a29 29 0 1 1 58 0 29 29 0 0 1-58 0Z" clip-rule="evenodd"/><path fill="#00D17F" d="M155.95 204c0 19.9-16.1 36-35.98 36a35.97 35.97 0 0 1-36-36h71.98Z"/><path fill="#0052FF" d="M83.98 204c0-19.9 16.1-36 35.98-36 19.9 0 36 16.1 36 36H83.97Z"/><path fill="#0A0B0D" fill-rule="evenodd" d="M119.96 177a27 27 0 1 0 0 54 27 27 0 0 0 0-54Zm-29 27a29 29 0 1 1 58 0 29 29 0 0 1-58 0Z" clip-rule="evenodd"/><path fill="#FFD200" d="M229.43 94.5a35.92 35.92 0 0 1 0 50.9 35.9 35.9 0 0 1-50.88 0l50.88-50.9Z"/><path fill="#0052FF" d="M178.54 145.5a35.92 35.92 0 0 1 0-50.9 35.9 35.9 0 0 1 50.89 0c-20.4 20.4-37 36.9-50.89 50.9Z"/><path fill="#0A0B0D" fill-rule="evenodd" d="M203.94 93a27 27 0 1 0 0 54 27 27 0 0 0 0-54Zm-29 27a29 29 0 1 1 58 0 29 29 0 0 1-58 0Z" clip-rule="evenodd"/><path fill="#0052FF" d="M145.45 10.5a35.92 35.92 0 0 1 0 50.9 35.9 35.9 0 0 1-50.88 0l50.88-50.9Z"/><path fill="#00D17F" d="M94.57 61.5a35.92 35.92 0 0 1 0-50.9 35.9 35.9 0 0 1 50.89 0c-20.4 20.4-37 36.9-50.89 50.9Z"/><path fill="#0A0B0D" fill-rule="evenodd" d="M119.96 9a27 27 0 1 0 0 54 27 27 0 0 0 0-54Zm-29 27a29 29 0 1 1 58 0 29 29 0 0 1-58 0Z" clip-rule="evenodd"/><path fill="#FFFFFF" d="M143.95 120a23.93 23.93 0 0 0-23.99 24c0-13.3-10.7-24-24-24 13.3 0 24-10.7 24-24a24 24 0 0 0 24 24Z"/></svg>