<svg xmlns="http://www.w3.org/2000/svg" fill="none" viewBox="0 0 240 241"><path fill="#101114" fill-rule="evenodd" d="m192.459 180.237-7.704 3.857-.896-1.788 7.721-3.866a21.556 21.556 0 0 1 24.014 3.514l1.024.941-20.989 11.551-2.89 1.59-42.9 23.6-.964-1.752 42.9-23.6 2.89-1.59 18.505-10.184a19.56 19.56 0 0 0-20.711-2.273Z" clip-rule="evenodd"/><path fill="#101114" fill-rule="evenodd" d="M213.779 202.493a19.977 19.977 0 0 0-18.495-7.931l-.246-1.984a21.979 21.979 0 0 1 21.236 10.015l.756 1.186-67.429 15.944-.46-1.946 64.638-15.284Z" clip-rule="evenodd"/><path fill="#101114" fill-rule="evenodd" d="M182.419 166.663s.001 0 0 0l-15.199 14.11-1.361-1.466 15.2-14.11a21.585 21.585 0 0 1 24.044-3.628l1.259.605-19.921 20.278-1.132 1.148v.009l-35.226 35.842-1.427-1.402 34.653-35.258v-.011l1.707-1.731 17.924-18.245a19.587 19.587 0 0 0-20.521 3.859Zm-29.763-21.082-.129 1.504a24.359 24.359 0 0 1-4.745 12.513 24.325 24.325 0 0 1-10.637 8.113l-23.724 9.29 33.302 12.528-5.491 10.681-26.493-9.964c-28.128-10.576-59.777.594-75.035 26.481l-.012.02-1.723-1.014 6.58-11.171a90.108 90.108 0 0 1 46.228-38.698 69.173 69.173 0 0 1 3.434-1.205l58.445-19.078ZM47.927 202.884c17.365-17.3 43.666-23.477 67.515-14.51l24.826 9.336 3.65-7.099-36.078-13.572 28.576-11.19a22.334 22.334 0 0 0 13.936-17.412l-55.523 18.124a66.703 66.703 0 0 0-3.34 1.173l-.01.004a88.086 88.086 0 0 0-43.552 35.146Z" clip-rule="evenodd"/><path fill="#101114" fill-rule="evenodd" d="m156.212 171.057-9.99 19.469-4.978 9.684-26.494-9.964c-28.125-10.569-59.783.6-75.046 26.502l-13.84 23.48-1.723-1.016 13.84-23.48c15.756-26.738 48.438-38.269 77.473-27.358l24.826 9.336 4.162-8.097 9.99-19.47c3.975-7.738 12.417-12.121 21.046-10.934l1.317.182-9.339 21.054-4.15 9.35-10.239 23.11-3.034 6.855h-59.97l-12.06 20.468-1.722-1.016 12.64-21.452h59.81l2.507-5.665 10.24-23.11 4.15-9.35 8.241-18.58c-7.314-.473-14.277 3.421-17.657 10.002Z" clip-rule="evenodd"/><path fill="#CED2DB" d="M71.11 0h94.81v71.11H71.11z"/><path fill="#5DE2F8" d="M71.112 129.383a3.95 3.95 0 1 1-7.9 0 3.95 3.95 0 0 1 7.9 0ZM41.48 39.506a3.95 3.95 0 1 1-7.902 0 3.95 3.95 0 0 1 7.901 0Zm168.89 63.21a3.951 3.951 0 1 1-7.902 0 3.951 3.951 0 0 1 7.902 0Zm-16.789-47.407a3.95 3.95 0 1 1-7.902 0 3.95 3.95 0 0 1 7.902 0Z"/><path fill="#0052FF" d="M118.527 123.457 71.109 70.894h31.615l15.803 52.563Z"/><path fill="#5DE2F8" d="M81.976 96.804c6.547 0 11.85 5.313 11.85 11.867 0-6.554 5.307-11.867 11.854-11.867-6.547 0-11.853-5.313-11.853-11.866 0 6.553-5.304 11.866-11.851 11.866Z"/><path fill="#0052FF" d="m165.929 70.894-47.398 52.563 15.803-52.563h31.595Z"/><path fill="#5DE2F8" d="M134.325 91.85c8.729 0 15.801 7.075 15.801 15.804 0-8.729 7.075-15.804 15.804-15.804-8.729 0-15.804-7.075-15.804-15.8 0 8.725-7.072 15.8-15.801 15.8Z"/><path fill="#FFFFFF" d="m86.92 44.444-15.803 26.45h31.605L86.92 44.444Z"/><path fill="#5DE2F8" d="m102.724 70.894 15.803-26.45H86.922l15.802 26.45Z"/><path fill="#0052FF" d="m118.529 44.444-15.802 26.45h31.595l-15.793-26.45Z"/><path fill="#FFFFFF" d="m150.123 44.444-15.803 26.45h31.605l-15.802-26.45Z"/><path fill="#0A0B0D" d="m134.331 70.894-15.802 52.563-15.802-52.563h31.604Z"/><path fill="#5DE2F8" d="m134.324 70.894 15.802-26.45h-31.595l15.793 26.45Z"/><path fill="#0A0B0D" d="M144.025 95.18a15.732 15.732 0 0 0-9.705-3.33c8.729 0 15.801-7.075 15.801-15.8a15.72 15.72 0 0 0 2.912 9.14l-9.008 9.99Zm-46.559 4.931-6.607-7.323a11.83 11.83 0 0 0 2.964-7.85c0 6.553 5.306 11.866 11.853 11.866-3.187 0-6.08 1.259-8.21 3.307Z"/></svg>