<svg xmlns="http://www.w3.org/2000/svg" fill="none" viewBox="0 0 240 240"><path fill="#0052FF" d="M48 240h144V0H48v240Z"/><path fill="#73A2FF" d="M48 216h144V24H48v192Z"/><path fill="#0A0B0D" d="M120.253 14a2 2 0 1 0 0-4 2 2 0 0 0 0 4Zm8 212h-16v4h16v-4Z"/><path fill="#00D17F" fill-rule="evenodd" d="M24 200c13.255 0 24-10.745 24-24s-10.745-24-24-24-24 10.745-24 24 10.745 24 24 24Zm4.8-28.8h-9.6v9.6h9.6v-9.6Z" clip-rule="evenodd"/><path fill="#FFD200" d="M240 64c0 22.091-17.909 40-40 40s-40-17.909-40-40 17.909-40 40-40 40 17.909 40 40Z"/><path fill="#0A0B0D" fill-rule="evenodd" d="M200 35c-16.016 0-29 12.984-29 29s12.984 29 29 29 29-12.984 29-29-12.984-29-29-29Zm-31 29c0-17.12 13.879-31 31-31 17.121 0 31 13.88 31 31 0 17.12-13.879 31-31 31-17.121 0-31-13.88-31-31Z" clip-rule="evenodd"/><path fill="#CED2DB" d="M0 64v112h240V64H0Z"/><path fill="#0052FF" fill-rule="evenodd" d="M48 176c0-13.255-10.745-24-24-24S0 162.745 0 176h19.2v-4.8h9.6v4.8H48ZM240 64.025V64h-80c0 22.091 17.909 40 40 40 22.083 0 39.987-17.895 40-39.975Z" clip-rule="evenodd"/><path fill="#0052FF" d="M16 80h96v16H16V80Z"/><path fill="#0A0B0D" fill-rule="evenodd" d="M224 129H16v-2h208v2Zm-120 32H72v-2h32v2Zm48 0h-36v-2h36v2Zm0-16H16v-2h136v2Z" clip-rule="evenodd"/><path fill="#FFFFFF" d="M224 144h-64v16h64v-16Z"/><path fill="#0A0B0D" d="M180.6 157.3h-.3c-.6-.1-1.2-.5-1.4-1.1l-1.2-2.5c-1.5 1.6-3.5 3.6-5.4 2.9-1.6-.6-2.3-2.6-2.3-6.1 0-1 0-1.7-.1-2.1-.5.9-1.3 2.4-2 3.6-.8 1.6-1.7 3.2-2.6 4.5l-1.7-1.1c.8-1.2 1.7-2.8 2.5-4.3 1.9-3.7 3-5.7 4.5-5.3 1.2.3 1.4 2 1.4 4.7 0 3.1.5 4.1.9 4.2 0 0 .9.3 3.1-2.3.5-.5 1.1-.8 1.8-.7.7.1 1.2.5 1.5 1.1l1.2 2.5c1.1-1 2.3-2.2 3.4-3.1 1.6-1.3 3.4-2.5 4.9-1.8 1.5.7 1.9 2.8 2 4.3 0 .1.1.1.1.1l4.3-3.7 1.3 1.5-4.3 3.7c-.6.5-1.4.6-2.1.3-.7-.3-1.2-1-1.3-1.8-.2-2.3-.7-2.6-.8-2.6-.2-.1-.8-.1-2.9 1.5-1 .9-2.2 2-3.3 3-.2.4-.7.6-1.2.6Zm19.8.2-1.7-1 4.7-7.7c.3-.5 1-.8 1.6-.7.7.1 1.1.6 1.2 1.3.5 3.2 1.9 5.5 3.6 5.8 1.5.3 3.1-1 4.5-3.4.4-.7 1.1-1.1 1.8-1.1s1.4.4 1.8 1l2.5 4.3-1.7 1-2.5-4.3s-.1 0-.1.1c-1.8 3.2-4.2 4.8-6.6 4.4-2.4-.4-4.2-2.7-5-6.3l-4.1 6.6Z"/><path fill="#0A0B0D" fill-rule="evenodd" d="M171 64c0 15.476 12.996 29 29 29 16.004 0 29-13.524 29-29h2c0 16.557-13.867 31-31 31s-31-14.443-31-31h2Z" clip-rule="evenodd"/><path fill="#FFFFFF" d="m24 166 10 10-10 10-10-10 10-10Z"/></svg>