<svg xmlns="http://www.w3.org/2000/svg" fill="none" viewBox="0 0 240 240"><path fill="#CED2DB" d="M73.64 228.61c.25-.2.49-.39.73-.59l.74-.59c.25-.2.49-.39.73-.59l.74-.59c.25-.2.49-.39.73-.59l.74-.59c.25-.2.49-.39.73-.59.25-.2.49-.39.73-.59.25-.2.49-.39.73-.59l.74-.59.74-.59c.25-.2.49-.39.73-.59.25-.2.49-.39.73-.59.25-.2.49-.39.73-.59l.74-.59c.24-.2.49-.39.73-.59l.74-.59.74-.59c.25-.2.49-.39.73-.59.25-.2.49-.39.73-.59.25-.2.49-.39.73-.59.25-.2.49-.39.73-.59l.74-.59c.25-.2.49-.39.73-.59.25-.2.49-.39.73-.59.25-.2.49-.39.73-.59.25-.2.49-.39.73-.59l.74-.59c.25-.2.49-.39.73-.59.25-.2.49-.39.73-.59l.74-.59c.25-.2.49-.39.73-.59.25-.2.49-.39.73-.59l.74-.59.74-.59c.25-.2.49-.39.73-.59.25-.2.49-.39.73-.59.25-.2.49-.39.73-.59.25-.2.49-.39.73-.59l.74-.59c.25-.2.49-.39.73-.59.25-.2.49-.39.73-.59.25-.2.49-.39.73-.59.25-.2.49-.39.73-.59l.74-.59c.25-.2.49-.39.73-.59.25-.2.49-.39.73-.59l.74-.59c.25-.2.49-.39.73-.59.25-.2.49-.39.73-.59.25-.2.49-.39.73-.59.25-.2.49-.39.73-.59.25-.2.49-.39.73-.59.25-.2.49-.39.73-.59.25-.2.49-.39.73-.59l.74-.59c.25-.2.49-.39.73-.59l.74-.59c.24-.2.49-.39.73-.59l.74-.59c.24-.2.49-.39.73-.59l.74-.59c.25-.2.49-.39.73-.59.25-.2.49-.39.73-.59l.74-.59c.25-.2.49-.39.73-.59.25-.2.49-.39.73-.59l.74-.59c.25-.2.49-.39.73-.59l.74-.59c.25-.2.49-.39.73-.59s.49-.39.73-.59c.25-.2.49-.39.73-.59.25-.2.49-.39.73-.59l.74-.59c.25-.2.49-.39.73-.59l.74-.59c.25-.2.49-.39.73-.59s.49-.39.73-.59l.74-.59.74-.59c.25-.2.49-.39.73-.59.25-.2.49-.39.73-.59.25-.2.49-.39.73-.59l.74-.59c.24-.2.49-.39.73-.59l.74-.59c.25-.2.49-.39.73-.59s.49-.39.73-.59l.74-.59c.24-.2.49-.39.73-.59l.74-.59c.24-.2.49-.39.73-.59l.74-.59c.25-.2.49-.39.73-.59s.49-.39.73-.59l.74-.59c.24-.2.49-.39.73-.59l.74-.59c.25-.2.49-.39.73-.59s.49-.39.73-.59l.74-.59c.24-.2.49-.39.73-.59l.74-.59c.24-.2.49-.39.73-.59l.74-.59c.25-.2.49-.39.73-.59s.49-.39.73-.59l.74-.59c.24-.2.49-.39.73-.59l.74-.59.74-.59c.25-.2.49-.39.73-.59s.49-.39.73-.59.49-.39.73-.59l.74-.59c.25-.2.49-.39.73-.59s.49-.39.73-.59l.74-.59c.24-.2.49-.39.73-.59l.74-.59c.24-.2.49-.39.73-.59l.74-.59c.24-.2.49-.39.73-.59.25-.2.49-.39.73-.59l.74-.59c.24-.2.49-.39.73-.59s.49-.39.73-.59l.74-.59c.24-.2.49-.39.73-.59s.49-.39.73-.59l.74-.59c.24-.2.49-.39.73-.59l.74-.59c.24-.2.49-.39.73-.59.25-.2.49-.39.73-.59.25-.2.49-.39.73-.59s.49-.39.73-.59.49-.39.73-.59l.74-.59c.24-.2.49-.39.73-.59l.74-.59c.24-.2.49-.39.73-.59s.49-.39.73-.59l.74-.59c.24-.2.49-.39.73-.59s.49-.39.73-.59.49-.39.73-.59l.74-.59c.24-.2.49-.39.73-.59l.74-.59c.24-.2.49-.39.73-.59l.74-.59c.24-.2.49-.39.73-.59s.49-.39.73-.59.49-.39.73-.59l.74-.59c.24-.2.49-.39.73-.59s.49-.39.73-.59l.74-.59c.24-.2.49-.39.73-.59l.74-.59c.24-.2.49-.39.73-.59s.49-.39.73-.59.49-.39.73-.59l.74-.59c.24-.2.49-.39.73-.59l.74-.59c.24-.2.49-.39.73-.59l.74-.59c.24-.2.49-.39.73-.59s.49-.39.73-.59l.74-.59c.24-.2.49-.39.73-.59l.74-.59c.24-.2.49-.39.73-.59s.49-.39.73-.59.49-.39.73-.59l.74-.59c.24-.2.49-.39.73-.59s.49-.39.73-.59l.74-.59c.24-.2.49-.39.73-.59s.49-.39.73-.59.49-.39.74-.59c.24-.2.49-.39.73-.59l.74-.59c.24-.2.49-.39.73-.59s.49-.39.73-.59.49-.39.74-.59c.24-.2.49-.39.73-.59l.74-.59c.24-.2.49-.39.73-.59l.74-.59C230.69 102.09 240 84.14 240 64c0-35.35-28.65-64-64-64-20.14 0-38.09 9.31-49.82 23.85-.2.24-.39.49-.59.74-.2.24-.39.49-.59.73s-.39.49-.59.74c-.2.24-.39.49-.59.73s-.39.49-.59.73-.39.49-.59.74c-.2.24-.39.49-.59.73s-.39.49-.59.74c-.2.24-.39.49-.59.73s-.39.49-.59.73-.39.49-.59.74c-.2.24-.39.49-.59.73s-.39.49-.59.73-.39.49-.59.74c-.2.24-.39.49-.59.73s-.4.49-.59.74c-.2.24-.39.49-.59.73s-.39.49-.59.74c-.2.24-.39.49-.59.73s-.39.49-.59.74c-.2.24-.39.49-.59.73s-.39.49-.59.73-.39.49-.59.74c-.2.24-.39.49-.59.73s-.39.49-.59.73-.39.49-.59.74c-.2.24-.39.49-.59.73s-.39.49-.59.74c-.2.24-.39.49-.59.73s-.39.49-.59.73-.39.49-.59.74c-.2.24-.39.49-.59.73s-.39.49-.59.74c-.2.24-.39.49-.59.73s-.39.49-.59.73-.39.49-.59.73-.39.49-.59.73-.39.49-.59.74c-.2.24-.39.49-.59.73s-.39.49-.59.73-.39.49-.59.74c-.2.24-.39.49-.59.73s-.39.49-.59.74c-.2.24-.39.49-.59.73s-.39.49-.59.73-.39.49-.59.73-.39.49-.59.73-.39.49-.59.74c-.2.24-.39.49-.59.73s-.39.49-.59.73-.39.49-.59.73-.39.49-.59.74c-.2.24-.39.49-.59.73s-.39.49-.59.73-.39.49-.59.73-.4.49-.59.74c-.2.24-.39.49-.59.73s-.39.49-.59.73-.39.49-.59.73-.4.49-.59.74c-.2.24-.39.49-.59.73s-.39.49-.59.74c-.2.24-.39.49-.59.73s-.39.49-.59.74c-.2.24-.39.49-.59.73s-.39.49-.59.74c-.2.24-.39.49-.59.73s-.39.49-.59.73-.4.49-.59.74c-.2.24-.39.49-.59.73s-.39.49-.59.73-.39.49-.59.73-.4.49-.59.74c-.2.24-.39.49-.59.73s-.39.49-.59.73-.39.49-.59.73-.4.49-.59.74c-.2.24-.39.49-.59.73s-.4.49-.59.74c-.2.24-.39.49-.59.73s-.39.49-.59.74c-.2.24-.39.49-.59.73s-.39.49-.59.74c-.2.24-.39.49-.59.73s-.39.49-.59.73-.4.49-.59.74c-.2.24-.39.49-.59.73s-.39.49-.59.73-.39.49-.59.73-.39.49-.59.74c-.2.24-.39.49-.59.73s-.39.49-.59.73-.39.49-.59.73-.4.49-.59.74c-.2.24-.39.49-.59.73s-.39.49-.59.73-.4.49-.59.74c-.2.24-.39.49-.59.73s-.39.49-.59.73-.39.49-.59.73-.4.49-.59.74c-.2.24-.39.49-.59.73s-.4.49-.59.74c-.2.24-.39.49-.59.73s-.4.49-.59.74c-.2.24-.39.49-.59.73s-.39.49-.59.73-.39.49-.59.73-.4.49-.59.74c-.2.24-.39.49-.59.73s-.4.49-.59.74c-.2.24-.39.49-.59.73s-.39.49-.59.73-.4.49-.59.74c-.2.24-.39.49-.59.73s-.39.49-.59.73-.39.49-.59.73-.4.49-.59.74c-.2.24-.39.49-.59.73s-.39.49-.59.73-.39.49-.59.73-.39.49-.59.73-.4.49-.59.74c-.2.24-.39.49-.59.73s-.39.49-.59.73-.4.49-.59.74c-.2.24-.39.49-.59.73s-.4.49-.59.74c-.2.24-.39.49-.59.73s-.39.49-.59.73-.4.49-.59.74c-.2.24-.39.49-.59.73s-.4.49-.59.74c-.2.24-.39.49-.59.73s-.4.49-.59.74c-.2.24-.39.49-.59.73s-.39.49-.59.73-.4.49-.59.74c-.2.24-.39.49-.59.73s-.4.49-.59.74c-.2.24-.39.49-.59.73s-.4.49-.59.74c-.2.24-.4.49-.59.73-.2.24-.4.49-.59.73-.2.24-.39.49-.59.73s-.4.49-.59.73c-.2.24-.39.49-.59.73s-.4.49-.59.74c-.2.24-.39.49-.59.73s-.4.49-.59.74c-.2.24-.39.49-.59.73s-.4.49-.59.74c-.2.24-.39.49-.59.73s-.4.49-.59.73c-.2.24-.4.49-.59.74-.2.24-.39.49-.59.73s-.4.49-.59.74c-.2.24-.39.49-.59.73s-.39.49-.59.73-.4.49-.59.74c-.2.24-.4.49-.59.73-.2.24-.4.49-.59.73-.2.24-.39.49-.59.73s-.4.49-.59.73c-.2.24-.4.49-.59.74-.2.24-.39.49-.59.73s-.4.49-.59.74c-.2.24-.39.49-.59.73s-.4.49-.59.74c-.2.24-.39.49-.59.73s-.4.49-.59.73c-.2.24-.4.49-.59.73-.2.24-.4.49-.59.74-.2.24-.39.49-.59.73s-.4.49-.59.74c-.2.24-.39.49-.59.73s-.4.49-.59.73c-.2.24-.4.49-.59.73-.2.24-.39.49-.59.73s-.4.49-.59.73c-.2.24-.4.49-.59.74-.2.24-.4.49-.59.73-.2.24-.4.49-.59.73-.2.24-.4.49-.59.73-.2.24-.4.49-.59.73-.2.24-.4.49-.59.73-.2.24-.4.49-.59.73-.2.24-.4.49-.59.73-.2.24-.4.49-.59.73-.2.24-.4.49-.59.74-.2.24-.4.49-.59.73-.2.24-.4.49-.59.73-.2.24-.4.49-.59.73-.2.24-.4.49-.59.74-.2.24-.39.49-.59.73s-.4.49-.59.74C3.84 175.46 0 185.28 0 196c0 24.3 19.7 44 44 44 10.72 0 20.54-3.84 28.17-10.2l.74-.59c.24-.2.49-.4.73-.6"/><path fill="#5DE2F8" d="M132.002 165.33c31.662 0 57.33-25.668 57.33-57.33s-25.668-57.33-57.33-57.33c-31.663 0-57.33 25.668-57.33 57.33s25.667 57.33 57.33 57.33"/><path fill="#3CC28A" d="M87.998 202.67c27.984 0 50.67-22.686 50.67-50.67s-22.686-50.67-50.67-50.67-50.67 22.686-50.67 50.67 22.686 50.67 50.67 50.67"/><path fill="#FFD200" d="M176 128c35.346 0 64-28.654 64-64S211.346 0 176 0s-64 28.654-64 64 28.654 64 64 64"/><path fill="#0A0B0D" fill-rule="evenodd" d="M176.003 18.333c-25.221 0-45.667 20.446-45.667 45.667h-2c0-26.326 21.341-47.667 47.667-47.667 26.325 0 47.666 21.341 47.666 47.667h-2c0-25.221-20.445-45.667-45.666-45.667m-.006 91.334c25.221 0 45.667-20.446 45.667-45.667h2c0 26.326-21.341 47.667-47.667 47.667-26.325 0-47.666-21.341-47.666-47.667h2c0 25.221 20.445 45.667 45.666 45.667" clip-rule="evenodd"/><path fill="#0052FF" fill-rule="evenodd" d="M136.957 165.119q-2.45.21-4.955.211c-31.663 0-57.33-25.668-57.33-57.33q0-2.505.211-4.955a50.7 50.7 0 0 1 13.119-1.715c27.984 0 50.67 22.686 50.67 50.67 0 4.537-.596 8.935-1.715 13.119" clip-rule="evenodd"/><path fill="#0A0B0D" fill-rule="evenodd" d="m176.704 64.71-101 100.001-1.407-1.422 101-100z" clip-rule="evenodd"/><path fill="#FFD200" d="M45 240c24.3 0 44-19.699 44-44s-19.7-44-44-44-44 19.699-44 44 19.7 44 44 44"/><path fill="#0A0B0D" fill-rule="evenodd" d="M43.997 164.917c-17.166 0-31.083 13.916-31.083 31.083h-2c0-18.271 14.812-33.083 33.083-33.083S77.081 177.729 77.081 196h-2c0-17.167-13.917-31.083-31.084-31.083m.006 62.166c17.167 0 31.083-13.916 31.083-31.083h2c0 18.271-14.812 33.083-33.083 33.083S10.919 214.271 10.919 196h2c0 17.167 13.917 31.083 31.084 31.083" clip-rule="evenodd"/><path fill="#0A0B0D" fill-rule="evenodd" d="M42.5 217v-41h2v41z" clip-rule="evenodd"/><path fill="#0A0B0D" fill-rule="evenodd" d="M23 195.5h41v2H23z" clip-rule="evenodd"/><path fill="#0A0B0D" fill-rule="evenodd" d="m31.297 207.293 23-23 1.414 1.414-23 23z" clip-rule="evenodd"/><path fill="#0A0B0D" fill-rule="evenodd" d="m32.71 184.293 23 23-1.413 1.414-23-23zM144 63h33v32h-2V65h-31z" clip-rule="evenodd"/></svg>