<svg xmlns="http://www.w3.org/2000/svg" fill="none" viewBox="0 0 240 240"><path fill="#CED2DB" d="M208 120H32v32h176v-32Z"/><path fill="#00D17F" d="M120 240c28.719 0 52-23.281 52-52s-23.281-52-52-52-52 23.281-52 52 23.281 52 52 52Z"/><path fill="#0A0B0D" fill-rule="evenodd" d="M157.5 152h-75c9.5-9.9 22.8-16 37.5-16s28.1 6.1 37.5 16Z" clip-rule="evenodd"/><path fill="#0052FF" d="M208 0h-32v120h32V0Z"/><path fill="#0052FF" d="M208 0h-32v56h32V0Zm-96 81H80v39h32V81Zm48-25.1h-32V120h32V55.9ZM64 104H32v16h32v-16Z"/><path fill="#00D17F" d="M208 0h-32v55.4h32V0Z"/><path fill="#0A0B0D" fill-rule="evenodd" d="M193 16v104h-2V16h2Z" clip-rule="evenodd"/><path fill="#0A0B0D" fill-rule="evenodd" d="m192.236 13.212 11.978 12.084-1.42 1.408-10.622-10.716-10.591 9.748-1.354-1.472 12.009-11.052ZM104 171.4a5.5 5.5 0 1 0 0 11 5.5 5.5 0 1 0 0-11Zm-7.5 5.5a7.5 7.5 0 1 1 15 0 7.5 7.5 0 0 1-15 0Zm37.898 20a5.5 5.5 0 1 0 0 11 5.5 5.5 0 0 0 0-11Zm-7.5 5.5a7.5 7.5 0 1 1 15 0 7.5 7.5 0 0 1-15 0Zm12.731-33.218-39.4 42.3-1.463-1.364 39.4-42.3 1.463 1.364Z" clip-rule="evenodd"/></svg>