<svg xmlns="http://www.w3.org/2000/svg" fill="none" viewBox="0 0 240 240"><path fill="#CED2DB" fill-rule="evenodd" d="M144 208c.38-15.37 7.82-37.361 16.46-49.601l9.39-13.31c8.88-12.58 16.15-32.25 16.15-43.71V80.53H54v20.849c0 11.46 7.27 31.13 16.15 43.71l9.39 13.31C88.18 170.639 95.62 192.63 96 208zm-48 0h48v16H96z" clip-rule="evenodd"/><path fill="#FFD200" d="M240 0H0v96h240z"/><path fill="#0052FF" d="M54 96a66 66 0 0 1 132 0z"/><path fill="#FFFFFE" d="M175 96a55.001 55.001 0 0 1-110 0z"/><path fill="#FFD200" d="M65 96a55 55 0 1 1 110 0z"/><path fill="#0052FF" d="M136 224a16 16 0 0 1-32 0z"/><path fill="#0A0B0D" fill-rule="evenodd" d="M108.686 212.687A16 16 0 0 0 104 224h4.33c0 6.445 5.225 11.67 11.67 11.67s11.67-5.225 11.67-11.67H136a16 16 0 0 0-27.314-11.313M110.33 224a9.67 9.67 0 0 0 9.67 9.67 9.67 9.67 0 0 0 9.67-9.67zM119 16V0h2v16zM28 97H12v-2h16zm200 0h-16v-2h16z" clip-rule="evenodd"/><path fill="#0A0B0E" fill-rule="evenodd" d="M212 95h16v2h-16zM12 95h16v2H12z" clip-rule="evenodd"/><path fill="#0A0B0D" fill-rule="evenodd" d="m175.859 38.723 11.31-11.31 1.415 1.414-11.31 11.31zM54.242 31.657l-11.32-11.32 1.414-1.414 11.32 11.32zm141.422 141.42-11.32-11.32 1.414-1.414 11.32 11.32z" clip-rule="evenodd"/><path fill="#0A0B0E" fill-rule="evenodd" d="m64.138 153.277-11.31 11.31-1.414-1.414 11.31-11.31zm121.62 7.066 11.32 11.32-1.414 1.414-11.32-11.32z" clip-rule="evenodd"/><path fill="#0A0B0D" fill-rule="evenodd" d="m44.336 18.923 11.32 11.32-1.414 1.414-11.32-11.32z" clip-rule="evenodd"/><path fill="#0052FF" d="M76 96a44 44 0 0 1 88 0z"/><path fill="#FFD200" d="M164 96a44.003 44.003 0 0 1-44 44 44 44 0 0 1-44-44z"/><path fill="#0A0B0D" fill-rule="evenodd" d="M119.998 63.08c-18.181 0-32.92 14.739-32.92 32.92s14.739 32.92 32.92 32.92 32.92-14.739 32.92-32.92-14.739-32.92-32.92-32.92M85.078 96c0-19.286 15.634-34.92 34.92-34.92s34.92 15.634 34.92 34.92-15.634 34.92-34.92 34.92-34.92-15.634-34.92-34.92" clip-rule="evenodd"/><path fill="#0052FF" d="M96 180a24 24 0 0 1 48 0z"/><path fill="#FFD200" d="M144 180a24 24 0 0 1-48 0z"/><path fill="#0A0B0D" fill-rule="evenodd" d="M120 165c-8.284 0-15 6.716-15 15s6.716 15 15 15 15-6.716 15-15-6.716-15-15-15m-17 15c0-9.389 7.611-17 17-17s17 7.611 17 17-7.611 17-17 17-17-7.611-17-17" clip-rule="evenodd"/><path fill="#0A0B0D" fill-rule="evenodd" d="m132.711 115.293-12.707-12.707-12.707 12.707 1.414 1.414 10.293-10.293V224h2V106.414l10.293 10.293z" clip-rule="evenodd"/></svg>