<svg xmlns="http://www.w3.org/2000/svg" fill="none" viewBox="0 0 240 240"><path fill="#0052FF" d="M48 240h144V0H48v240Z"/><path fill="#0A0B0D" d="M120 14a2 2 0 1 0 0-4 2 2 0 0 0 0 4Zm8 212h-16v4h16v-4Z"/><path fill="#CED2DB" d="M48 216h144V24H48v192Z"/><path fill="#0A0B0D" fill-rule="evenodd" d="M100.325 190c18.777 0 34-15.222 34-34s-15.223-34-34-34c-18.778 0-34 15.222-34 34s15.222 34 34 34Zm0 2c19.882 0 36-16.118 36-36s-16.118-36-36-36c-19.883 0-36 16.118-36 36s16.117 36 36 36Z" clip-rule="evenodd"/><path fill="#FFFFFF" d="M184.253 90c0 15.464-12.536 28-28 28s-28-12.536-28-28 12.536-28 28-28 28 12.536 28 28Zm-88-30c0 11.046-8.954 20-20 20s-20-8.954-20-20 8.954-20 20-20 20 8.954 20 20Zm32.072 96c0 15.464-12.536 28-28 28s-28-12.536-28-28 12.536-28 28-28 28 12.536 28 28Z"/><path fill="#FFFFFF" fill-rule="evenodd" d="M100.325 182c14.359 0 26-11.641 26-26s-11.641-26-26-26c-14.36 0-26 11.641-26 26s11.64 26 26 26Zm0 2c15.464 0 28-12.536 28-28s-12.536-28-28-28-28 12.536-28 28 12.536 28 28 28Z" clip-rule="evenodd"/><path fill="#0A0B0D" fill-rule="evenodd" d="M156.253 108c9.941 0 18-8.059 18-18s-8.059-18-18-18-18 8.059-18 18 8.059 18 18 18Zm0 2c11.046 0 20-8.954 20-20s-8.954-20-20-20-20 8.954-20 20 8.954 20 20 20Zm-66-50c0 7.732-6.268 14-14 14s-14-6.268-14-14 6.268-14 14-14 14 6.268 14 14Zm-14 12c6.627 0 12-5.373 12-12s-5.373-12-12-12-12 5.373-12 12 5.373 12 12 12Z" clip-rule="evenodd"/><path fill="#CED2DB" d="M80.253 60a4 4 0 1 1-8 0 4 4 0 0 1 8 0Zm32.072 96c0 6.627-5.373 12-12 12-6.628 0-12-5.373-12-12s5.372-12 12-12c6.627 0 12 5.373 12 12Z"/><path fill="#CED2DB" d="M104.325 156a4 4 0 1 1-8 0 4 4 0 0 1 8 0Z"/><path fill="#0A0B0D" fill-rule="evenodd" d="M100.324 153a3 3 0 1 0 0 6 3 3 0 0 0 0-6Zm-5 3a5 5 0 1 1 10.001 0 5 5 0 0 1-10 0Z" clip-rule="evenodd"/><path fill="#CED2DB" d="M160.753 90a4 4 0 1 1-8 0 4 4 0 0 1 8 0Z"/><path fill="#0A0B0D" fill-rule="evenodd" d="M156.753 87a3 3 0 1 0 0 6 3 3 0 0 0 0-6Zm-5 3a5 5 0 1 1 10 0 5 5 0 0 1-10 0ZM88.645 53.548l42.5 84-1.785.903-42.5-84 1.785-.903Z" clip-rule="evenodd"/><path fill="#0A0B0D" fill-rule="evenodd" d="m140.118 82.002-41.5 71.5-1.73-1.004 41.5-71.5 1.73 1.004Zm27.271 24.769-63 52-1.273-1.542 63-52 1.273 1.542ZM64.252 59.48l2 98-2 .04-2-98 2-.04Z" clip-rule="evenodd"/><path fill="#CED2DB" d="M48 0H0v24h48V0Zm0 216H0v24h48v-24ZM240 0h-48v24h48V0Zm0 216h-48v24h48v-24Z"/></svg>