<svg xmlns="http://www.w3.org/2000/svg" fill="none" viewBox="0 0 240 240"><path fill="#CED2DB" d="M96 0h48v104.08H96V0Z"/><path fill="#CED2DB" fill-rule="evenodd" d="M50.507 85.252A72.368 72.368 0 0 1 64.28 58.41a72.863 72.863 0 0 1 5.105-5.611l2.954 2.954a65.63 65.63 0 0 0-.251.25c-17.75 17.749-23.605 42.89-17.565 65.514l-4.024 1.079a72.862 72.862 0 0 1-1.503-6.947 72.367 72.367 0 0 1 1.511-30.398Zm135.062 1.153c6.011 22.518.239 47.528-17.315 65.263l2.954 2.954a72.838 72.838 0 0 0 4.564-5.06 72.356 72.356 0 0 0 13.851-27.033 72.374 72.374 0 0 0 1.503-30.078 73 73 0 0 0-1.533-7.124l-4.024 1.078Z" clip-rule="evenodd"/><path fill="#CED2DB" d="M176 104.08c0 30.928-25.072 56-56 56s-56-25.072-56-56 25.072-56 56-56 56 25.072 56 56Z"/><path fill="#0052FF" fill-rule="evenodd" d="M144.226 53.577v50.503H95.774V53.577c7.332-3.523 15.548-5.497 24.226-5.497 8.678 0 16.895 1.974 24.226 5.497Z" clip-rule="evenodd"/><path fill="#101114" fill-rule="evenodd" d="m96.322 171 .128 1.506a17.853 17.853 0 0 0 3.472 9.166 17.8 17.8 0 0 0 7.783 5.944l16.407 6.433-21.716 8.179-6.788-13.247a15.049 15.049 0 0 0-15.444-8.034l-1.317.182 4.901 11.064-7.376-6.856a15.809 15.809 0 0 0-17.628-2.664l-1.259.606 11.442 11.662-.203-.102a15.789 15.789 0 0 0-17.606 2.58l-1.024.942 12.07 6.651a16.112 16.112 0 0 0-11.579 7.345l-.756 1.188 48.449 11.47.067.151h43.211l8.604 14.621 1.723-1.016-9.184-15.607H99.647l-17.865-40.348a13.045 13.045 0 0 1 12.046 7.08l10.894 21.243.005-.002.001.002 19.314-7.272a44.516 44.516 0 0 1 5.849-1.756c18.516-4.183 37.977 3.968 47.852 20.745l9.967 16.931 1.723-1.017-9.965-16.927.005-.003-4.739-8.055a65.2 65.2 0 0 0-33.435-28.024 50.643 50.643 0 0 0-2.485-.873h-.001L96.322 171Zm9.369 37.635 17.641-6.643c2.02-.76 4.065-1.37 6.121-1.834 14.71-3.329 29.989.794 41.005 10.66a63.154 63.154 0 0 0-29.861-23.181l-.01-.004a47.893 47.893 0 0 0-2.392-.841l-39.547-12.925a15.828 15.828 0 0 0 9.786 11.884l21.258 8.335-26.371 9.933 2.37 4.616Zm-9.846 10.877L74.84 198.114v-.009l-1.309-1.329-12.607-12.85a13.815 13.815 0 0 1 14.087 2.878l10.795 10.034 10.04 22.674Zm-22.6-20.167 20.271 20.651-39.953-22.009a13.794 13.794 0 0 1 14.282-1.349l5.4 2.707Zm-7.52 7.629a14.098 14.098 0 0 0-12.622 5.288l38.975 9.227-26.353-14.515Z" clip-rule="evenodd"/><path fill="#CED2DB" d="m120 99.928-24.226 10.068L120 124.506V99.928Zm0 0 24.226 10.068L120 124.506V99.928Z"/><path fill="#FFFFFF" d="M120 94.092V64.116l-24.226 39.968L120 94.092Zm0 30.271-24.226-14.401L120 143.465v-19.102Z"/><path fill="#00D17F" d="M120 94.092V64.116l24.226 39.968L120 94.092Zm0 30.271 24.226-14.401L120 143.465v-19.102Z"/><path fill="#0052FF" d="m120 93.96-24.226 10.067L120 118.537V93.96Z"/><path fill="#0A0B0D" d="m120 93.96 24.226 10.067L120 118.537V93.96Z"/><path fill="#00D17F" d="M192 36a4 4 0 1 1-8 0 4 4 0 0 1 8 0ZM24 52.08a4 4 0 1 1-8 0 4 4 0 0 1 8 0Z"/><path fill="#5DE2F8" d="M191.998 192.237c13.258 0 23.998 10.76 23.998 24.034 0-13.274 10.746-24.034 24.004-24.034-13.258 0-24.004-10.759-24.004-24.028 0 13.269-10.74 24.028-23.998 24.028ZM0 196.242c6.629 0 11.999 5.38 11.999 12.017 0-6.637 5.373-12.017 12.001-12.017-6.628 0-12.001-5.379-12.001-12.013 0 6.634-5.37 12.013-11.999 12.013ZM64.3 24.028c8.838 0 15.998 7.173 15.998 16.022 0-8.85 7.164-16.022 16.002-16.022-8.838 0-16.002-7.172-16.002-16.018 0 8.846-7.16 16.018-15.998 16.018Z"/><path fill="#5DE2F8" fill-rule="evenodd" d="M80.3 39.77V8.23c.123 8.729 7.239 15.768 16 15.768-8.761 0-15.877 7.04-16 15.772Z" clip-rule="evenodd"/><path fill="#00D17F" d="M224 116a4 4 0 1 1-8 0 4 4 0 0 1 8 0ZM40 148a4 4 0 1 1-8 0 4 4 0 0 1 8 0Z"/></svg>