<svg xmlns="http://www.w3.org/2000/svg" fill="none" viewBox="0 0 240 240"><path fill="#CED2DB" d="M48 32h144v176H48z"/><path fill="#CED2DB" d="M0 64.535h240v-32H0z"/><path fill="#CED2DB" d="M0 64h240V32H0z"/><path fill="#0052FF" d="M48 64h144V32H48zM16 176v32h16v32h176v-32h16v-32z"/><path fill="#FFD200" d="M152 32c0 17.673-14.327 32-32 32S88 49.673 88 32s14.327-32 32-32 32 14.327 32 32"/><path fill="#0A0B0D" d="M152 32a31.997 31.997 0 0 1-32 32 32 32 0 0 1-32-32zM48 176h144v32H48z"/><path fill="#0A0B0E" fill-rule="evenodd" d="M136 121H64v-2h72zm0-31H64v-2h72zm0 63H64v-2h72zm-16-55H64v-2h56zm0 31H64v-2h56zm16 32H64v-2h72zm37-77h-18v18h18zm-20-2v22h22V82zm20 34h-18v18h18zm-20-2v22h22v-22z" clip-rule="evenodd"/><path fill="#0052FF" d="M152 144h24v24h-24z"/><path fill="#5DE2F8" d="M48 152a8 8 0 0 0-8-7.999A8 8 0 0 0 48 136a8 8 0 0 0 8 8.001A8 8 0 0 0 48 152m152-71.466a8 8 0 0 0-7.999 8.001 8 8 0 0 0-8.001-8 8 8 0 0 0 8.001-8c0 4.418 3.58 8 7.999 8"/><path fill="#FFD200" d="M40 32.533c-8.838 0-15.998 7.164-15.998 16.002 0-8.838-7.164-16.001-16.002-16.001 8.838 0 16.002-7.164 16.002-15.999 0 8.835 7.16 15.998 15.998 15.998"/><path fill="#0052FF" fill-rule="evenodd" d="M39.767 32.535c-8.732.123-15.769 7.239-15.769 16 0-8.761-7.04-15.877-15.771-16z" clip-rule="evenodd"/><path fill="#FFD200" d="M232 151.998c-8.838 0-15.998 7.164-15.998 16.002 0-8.838-7.164-16.002-16.002-16.002 8.838 0 16.002-7.163 16.002-15.998 0 8.835 7.16 15.998 15.998 15.998"/><path fill="#0052FF" fill-rule="evenodd" d="M192 72.58v15.77a8 8 0 0 0-8-7.886 8 8 0 0 0 8-7.884M48 151.778V136c0 4.39 3.583 7.948 8 7.948-4.417 0-8 3.557-8 7.947z" clip-rule="evenodd"/><path fill="#3CC28A" d="M235.674 80a3.907 3.907 0 1 1-7.814 0 3.907 3.907 0 0 1 7.814 0"/><path fill="#FFFFFF" d="M120.002 55c0-12.705-10.297-22.998-23.002-22.998 12.705 0 23.002-10.297 23.002-23.002 0 12.705 10.298 23.002 22.998 23.002-12.7 0-22.998 10.293-22.998 22.998"/><path fill="#FFFFFF" fill-rule="evenodd" d="m172.271 150.637-10.14 12.274-6.772-5.643 1.281-1.536 5.228 4.357 8.861-10.726z" clip-rule="evenodd"/></svg>