<svg xmlns="http://www.w3.org/2000/svg" fill="none" viewBox="0 0 240 240"><path fill="#73A2FF" d="M64 0h112v72H64z"/><path fill="#FFFFFF" d="M73.336 9.334h37.333v37.333H73.336z"/><path fill="#0052FF" d="M120 8h48v8h-48z"/><path fill="#0A0B0D" fill-rule="evenodd" d="M148 33h-28v-2h28zm-18.667 16H120v-2h9.333zm14 0H134v-2h9.333zm14 0H148v-2h9.333zm-28 8H120v-2h9.333zm14 0H134v-2h9.333zm14 0H148v-2h9.333zm-18.666-16H120v-2h18.667zM160 40a8 8 0 1 0 0-16 8 8 0 0 0 0 16m0-2.666A5.333 5.333 0 0 1 165.333 32 5.333 5.333 0 0 1 160 26.667 5.333 5.333 0 0 1 154.667 32 5.333 5.333 0 0 1 160 37.334" clip-rule="evenodd"/><path fill="#FFFFFF" d="M72.336 8h39.666v40H72.336z"/><path fill="#FFD200" fill-rule="evenodd" d="M112.002 38.437V48H72.336v-9.562C76.705 32.128 83.959 28 92.169 28c8.211 0 15.465 4.127 19.833 10.437" clip-rule="evenodd"/><path fill="#0A0B0D" d="M99.602 18c0 4.142-3.33 7.5-7.438 7.5s-7.437-3.358-7.437-7.5 3.33-7.5 7.437-7.5 7.438 3.358 7.438 7.5"/><path fill="#FFFFFF" d="M72 64h40v-8H72z"/><path fill="#0A0B0D" fill-rule="evenodd" d="M78.781 59.692 76.79 62.68l-1.664-1.11 2.833-4.25c.463-.694 1.259-.768 1.803-.567.54.198 1.08.748 1.034 1.546-.042.722-.033 1.355.03 1.856.05.414.13.663.192.793.166-.072.476-.269.946-.743.934-.942 2.69-.874 3.357.498l.157.325h.008l.005-.004a28 28 0 0 1 1.716-1.523c.518-.413 1.051-.778 1.571-.983.522-.207 1.22-.321 1.862.09.593.378.866 1.039 1.008 1.669a.32.32 0 0 0 .176.214q.03.011.042.013l1.816-1.56 1.303 1.518-1.817 1.56c-.667.572-1.505.584-2.151.299a2.32 2.32 0 0 1-1.32-1.604 1.8 1.8 0 0 0-.115-.364q-.03.009-.068.025c-.24.094-.588.31-1.061.687-.462.368-.989.845-1.586 1.411-.977.925-2.59.657-3.188-.575l-.158-.324-.02-.006a.14.14 0 0 0-.116.042c-.64.646-1.293 1.135-1.96 1.304a1.87 1.87 0 0 1-1.117-.042 1.86 1.86 0 0 1-.85-.655c-.375-.508-.54-1.185-.618-1.818a9 9 0 0 1-.058-.71m10.895.64h-.01zm9.425-.166L97.23 63.23l-1.707-1.043 2.39-3.91c.397-.65 1.107-.798 1.64-.683.524.113 1.074.514 1.23 1.195.362 1.575 1.04 2.25 1.52 2.41.373.126 1.075.064 1.93-1.124a2.3 2.3 0 0 1 1.786-.945c.679-.02 1.426.276 1.849 1l1.039 1.783-1.727 1.008-1.04-1.782-.001-.001a.2.2 0 0 0-.06-.008.3.3 0 0 0-.222.112c-1.111 1.544-2.633 2.376-4.19 1.854-1.2-.403-2.061-1.509-2.565-2.93" clip-rule="evenodd"/><path fill="#73A2FF" d="M64 168h112v72H64z"/><path fill="#0A0B0F" d="M64 176h112v16H64z"/><path fill="#0052FF" d="M72 224h64v8H72z"/><path fill="#0A0B0D" fill-rule="evenodd" d="M131 202H72v-2h59zm0 7H72v-2h59zm-22 7H72v-2h37z" clip-rule="evenodd"/><path fill="#73A2FF" d="M166.95 118.367c-.224.672-.561 1.345-1.121 1.905-.448.56-1.12 1.12-1.793 1.569s-1.456.784-2.241 1.008a9.3 9.3 0 0 1-2.465.336c.896 0 1.569.112 2.241.336q1.008.337 1.681 1.009c.448.448.672.896.896 1.457.112.56.112 1.12 0 1.793.225-.673.561-1.233 1.009-1.793.448-.561 1.008-1.009 1.681-1.457.672-.448 1.456-.784 2.241-1.009a9.3 9.3 0 0 1 2.465-.336c-.896 0-1.569-.112-2.241-.336q-1.008-.336-1.681-1.008c-.448-.449-.672-1.009-.896-1.569 0-.56 0-1.233.224-1.905m-93.79 29.134-1.905-5.378h40.34l.336 5.378zm46.503-4.594v-1.345h9.412l-.112 1.345zm14.006 0 .113-1.345h9.412l-.224 1.345zm14.007 0 .336-1.345h9.413l-.336 1.345zm-28.013-5.715v-1.457h9.86l-.112 1.457zm14.567 0 .112-1.457h9.861l-.224 1.457zm14.679 0 .336-1.457h9.861l-.448 1.457zm-29.246-6.275v-1.681h20.618l-.224 1.681zm0-6.723v-1.793h32.271l-.336 1.793zm43.813 5.939c-1.233 0-2.353-.224-3.25-.561-1.008-.336-1.792-.784-2.465-1.456-.672-.561-1.12-1.345-1.344-2.129-.225-.785-.337-1.793-.112-2.802.224-1.008.672-2.017 1.456-2.801.673-.897 1.569-1.681 2.578-2.353s2.241-1.233 3.473-1.681a11.6 11.6 0 0 1 3.922-.672c1.345 0 2.577.224 3.586.672s1.905 1.008 2.465 1.681c.672.672 1.009 1.456 1.233 2.353.112.896.112 1.905-.224 2.801-.337 1.009-.897 1.905-1.681 2.802-.785.784-1.681 1.568-2.69 2.129s-2.129 1.12-3.249 1.456c-1.233.337-2.465.561-3.698.561m-93.902 6.275L56.24 98.197h52.777l1.793 30.591.448 7.62zm50.089-29.022v-9.189h63.871l-3.25 9.189zM198.325 88H41l26.445 64.432h104.323z"/><path fill="#0052FF" d="M183.535 98.197h-63.871v9.189h60.622z"/><path fill="#0A0B0D" d="M151.936 122.401h-32.272v1.793H151.6zm-22.411 13.222h-9.861v1.569h9.749zm14.787 0h-9.861l-.224 1.569h9.748zm14.679 0h-9.861l-.224 1.569h9.749zm-29.914 5.827h-9.413v1.457h9.301zm14.232 0h-9.525l-.112 1.457h9.412zm14.119 0h-9.412l-.336 1.457h9.412zm-17.258-12.102h-20.506v1.569h20.282zm23.978-1.456c.225-.672.225-1.233 0-1.793-.112-.56-.448-1.008-.896-1.457q-.672-.672-1.681-1.008c-.672-.224-1.457-.336-2.241-.336.897 0 1.681-.112 2.465-.336.785-.225 1.569-.561 2.241-1.009s1.345-1.008 1.793-1.569c.449-.56.897-1.232 1.121-1.905a3.74 3.74 0 0 0-.112 1.905c.112.561.448 1.121.896 1.569q.672.672 1.681 1.009c.672.224 1.457.336 2.241.336-.896 0-1.681.112-2.465.336s-1.569.56-2.241 1.008c-.672.449-1.233.897-1.681 1.457-.56.56-1.008 1.233-1.121 1.793m3.586-12.214c-1.344 0-2.689.224-3.922.672-1.232.449-2.465 1.009-3.473 1.681s-1.905 1.457-2.578 2.353-1.12 1.905-1.456 2.802c-.224 1.008-.224 1.905.112 2.801.224.784.784 1.569 1.344 2.129.673.56 1.457 1.121 2.466 1.457 1.008.336 2.017.56 3.249.56s2.465-.224 3.586-.56 2.241-.785 3.249-1.457c1.009-.56 1.905-1.345 2.69-2.129s1.344-1.793 1.681-2.801.448-2.017.224-2.802c-.112-.896-.561-1.681-1.233-2.353a8 8 0 0 0-2.465-1.681c-1.009-.448-2.129-.672-3.474-.672"/><path fill="#FFFFFF" d="M86.497 117.135c-1.233 0-2.465-.225-3.586-.561s-2.24-.896-3.25-1.568c-1.008-.673-1.792-1.457-2.577-2.354-.672-.896-1.232-1.905-1.456-3.025a6 6 0 0 1-.112-3.138 6.1 6.1 0 0 1 1.344-2.689c.673-.784 1.57-1.457 2.69-1.793 1.008-.448 2.24-.672 3.585-.672s2.69.224 3.922.672 2.353 1.121 3.362 1.793c1.008.784 1.793 1.681 2.465 2.689s1.009 2.017 1.233 3.138c.112 1.12.112 2.129-.224 3.025-.337.897-.897 1.681-1.57 2.354a6.65 6.65 0 0 1-2.576 1.568c-.897.448-2.017.561-3.25.561m22.523-18.938H56.242l13.335 38.211h41.684-41.684l-2.69-7.62q1.177-2.016 3.026-3.698c1.233-1.12 2.801-2.129 4.482-2.913 1.68-.784 3.698-1.457 5.715-1.905 2.129-.448 4.37-.672 6.835-.672 2.353 0 4.819.224 7.06.672a40 40 0 0 1 6.499 1.905c2.017.784 3.922 1.793 5.715 2.913 1.681 1.121 3.249 2.354 4.482 3.698z"/><path fill="#FFD200" d="M86.94 119.6c-2.465 0-4.706.224-6.835.672a26.3 26.3 0 0 0-5.715 1.905c-1.68.784-3.25 1.793-4.482 2.913q-1.848 1.682-3.025 3.698l2.69 7.62h41.684l-.449-7.62a29 29 0 0 0-4.482-3.698 27.4 27.4 0 0 0-5.715-2.913 39.7 39.7 0 0 0-6.499-1.905 38 38 0 0 0-7.171-.672"/><path fill="#0A0B0D" d="M83.245 101.222c-1.345 0-2.578.225-3.586.673s-1.905 1.12-2.69 1.793a6.1 6.1 0 0 0-1.344 2.689 6 6 0 0 0 .112 3.137c.336 1.121.784 2.13 1.457 3.026.672.896 1.569 1.681 2.577 2.353s2.017 1.233 3.25 1.569c1.12.336 2.353.56 3.585.56 1.233 0 2.354-.224 3.362-.56a6.65 6.65 0 0 0 2.577-1.569c.673-.672 1.233-1.457 1.569-2.353s.448-1.905.224-3.026c-.112-1.12-.56-2.129-1.232-3.137-.673-1.009-1.457-1.905-2.466-2.689-1.008-.785-2.129-1.457-3.361-1.793a12.7 12.7 0 0 0-4.034-.673"/><path fill="#FFFFFF" d="m97.479 147.053-1.793-.673 1.905-2.577.224-.224c.112-.112.224-.112.336-.112s.224-.112.336-.112h.784c.113 0 .337 0 .449.112.112 0 .336.112.448.224s.224.112.336.224.112.224.224.336l.336.673c.112.224.337.336.449.448s.336.224.448.336c.224.112.336.112.56.112h.336c.112 0 .224-.112.336-.112.113-.112.225-.112.337-.224l.336-.336c.112-.112.224-.224.336-.224.112-.112.336-.112.448-.224.112 0 .336-.112.56-.112h.561c.224 0 .336 0 .56.112.112 0 .336.112.448.112.112.112.336.112.448.224.113.112.225.224.337.224l1.12 1.12-1.569.673-1.12-1.121h-.224c-.224.224-.561.448-.785.673-.224.224-.56.336-.784.448s-.56.112-.784.224h-1.121a2.1 2.1 0 0 1-.896-.224 3.3 3.3 0 0 1-.897-.448 3.4 3.4 0 0 1-.784-.561c-.224-.224-.448-.448-.673-.784zm-19.946-.336-1.905-.673 1.905-2.801c0-.112.112-.112.224-.224s.112-.112.224-.112.224-.112.336-.112h.785c.224 0 .336.112.56.112.112.112.336.112.448.224l.336.336c.112.112.112.224.112.336.112.224.112.56.224.672.112.225.112.337.225.561.112.112.112.224.224.336s.112.112.112.224h.112s.112 0 .224-.112c.112 0 .112-.112.224-.112.112-.112.224-.112.224-.224.112-.112.224-.112.224-.224.112 0 .224-.112.336-.112s.225-.112.337-.112h.896c.112 0 .336 0 .448.112.112 0 .336.112.449.112.112.112.224.112.448.224.112.112.224.224.336.224l.224.224c.336-.336.784-.56 1.12-.784s.673-.449.897-.561c.336-.112.56-.224.896-.336.337-.112.56-.112.785-.112h.448c.224 0 .336.112.56.112.112.112.336.112.448.224l.337.336c.112.113.224.337.336.449l.112.112h.224l1.569-1.009 1.456 1.009-1.568 1.008c-.112 0-.112.112-.224.112s-.225.112-.337.112-.224 0-.336.112h-.784c-.224 0-.336-.112-.56-.112-.224-.112-.337-.112-.449-.224s-.336-.224-.448-.336l-.336-.336v-.224c-.112 0-.224 0-.336.112-.112 0-.224.112-.448.224s-.449.224-.673.448-.56.336-.896.673c-.112.112-.112.112-.224.112s-.224.112-.336.112-.225 0-.337.112h-.784c-.112 0-.336 0-.448-.112-.112 0-.336-.112-.448-.112-.112-.112-.224-.112-.337-.225-.112-.112-.224-.112-.336-.224l-.224-.224h-.112c-.112.112-.224.112-.336.224s-.336.224-.448.337c-.224.112-.449.224-.673.224-.224.112-.448.112-.784.112h-.897c-.224-.112-.448-.112-.672-.224s-.336-.225-.56-.449c-.112-.224-.336-.336-.448-.56s-.224-.448-.337-.784zm34.065-4.483h-40.34l1.905 5.379h38.771z"/><path fill="#0A0B0D" d="M78.65 142.682h-.336c-.112 0-.224 0-.336.113-.112 0-.224.112-.224.112l-.224.224-1.905 2.801 1.905.672 1.345-2.017c.112.337.224.561.336.785s.336.448.448.56c.112.224.336.336.56.448s.449.224.673.224h.896c.224 0 .56 0 .784-.112s.449-.112.673-.224.336-.224.448-.336.224-.224.336-.224h.112l.224.224c.112.112.224.224.337.224.112.112.224.112.336.224s.224.112.448.112c.112 0 .336.112.448.112h.784c.112 0 .225 0 .337-.112.112 0 .224-.112.336-.112s.224-.112.224-.112c.336-.224.672-.448.896-.672s.449-.336.673-.448.336-.224.448-.224.224-.112.336-.112v.224l.336.336c.112.112.224.224.448.336.113.112.337.224.449.224.224.112.336.112.56.112h.784c.112 0 .224 0 .337-.112.111 0 .224-.112.336-.112s.224-.112.224-.112l1.569-1.009-1.457-1.008-1.569 1.569h-.224l-.112-.112c-.112-.224-.224-.336-.336-.449l-.337-.336c-.111-.112-.336-.224-.448-.224-.112-.112-.336-.112-.56-.112h-.448c-.224 0-.56 0-.785.112s-.56.224-.896.336-.56.337-.896.561c-.337.224-.673.448-1.121.784l-.224-.224c-.112-.112-.224-.224-.336-.224-.112-.112-.224-.112-.448-.224-.112-.112-.337-.112-.449-.112s-.336-.112-.448-.112h-.896c-.112 0-.225 0-.337.112-.112 0-.224.112-.336.112a.24.24 0 0 0-.224.224c-.112-.224-.224-.112-.224-.112-.112.112-.112.112-.224.112s-.112.112-.224.112h-.112s-.112-.112-.112-.224c-.112-.112-.112-.224-.224-.336s-.112-.337-.225-.561c-.111-.224-.111-.448-.224-.672 0-.112-.112-.224-.112-.336l-.336-.336c-.112-.112-.224-.224-.448-.224-.112-.113-.336-.113-.56-.113zm20.167.561h-.336c-.112 0-.224 0-.336.112-.112 0-.224.112-.336.112l-.224.224-1.905 2.69 1.793.672 1.456-2.017c.224.224.448.56.673.784.224.225.448.449.784.561.224.112.56.336.896.448.337.112.561.224.897.224h1.12c.225 0 .449-.112.785-.224.224-.112.56-.224.784-.448s.56-.336.785-.673h.224l1.12 1.121 1.569-.672-1.121-1.121c-.112-.112-.224-.224-.336-.224-.112-.112-.224-.112-.448-.224-.112-.112-.336-.112-.448-.112s-.336 0-.56-.112h-.561c-.224 0-.336.112-.56.112-.112 0-.336.112-.448.224s-.224.224-.336.224l-.337.336c-.112.112-.224.224-.336.224-.112.112-.224.112-.336.112h-.336c-.224 0-.336-.112-.56-.112-.224-.112-.336-.224-.449-.336l-.448-.448-.336-.672c0-.113-.112-.225-.224-.337s-.224-.224-.336-.224c-.112-.112-.224-.112-.448-.224-.112 0-.337-.112-.449-.112h-.224c0 .112 0 .112-.112.112q.168 0 0 0"/></svg>