<svg xmlns="http://www.w3.org/2000/svg" fill="none" viewBox="0 0 240 240"><path fill="#0052FF" d="m79.432 93.362 73.184-30.815v30.815z"/><path fill="#CED2DB" d="M136.246 43.328v164.666h-5.779v-29.853h-9.503v56.093h-17.351v-56.093h-.108V43.328z"/><path fill="#FFFFFF" d="m119.163 76.626-15.58 6.558v10.168h32.586v-23.89z"/><path fill="#0A0B0E" d="M119.172 189.416c-.722-.02-1.445-.039-2.167-.077l.097-1.926c.702.038 1.405.058 2.118.077l-.038 1.926zm3.255 0-.039-1.926a78 78 0 0 0 2.119-.077l.096 1.926c-.722.038-1.444.067-2.167.077zm-8.677-.318a51 51 0 0 1-2.157-.241l.241-1.906c.693.086 1.396.163 2.099.231zm14.089 0-.183-1.916a79 79 0 0 0 2.099-.231l.241 1.906c-.713.087-1.435.164-2.157.241m-19.471-.703c-.713-.125-1.426-.25-2.138-.395l.375-1.887c.694.135 1.387.269 2.08.385zm24.844 0-.318-1.897a54 54 0 0 0 2.08-.385l.376 1.887c-.713.145-1.416.27-2.138.395m-30.16-1.098a72 72 0 0 1-2.099-.549l.52-1.858c.674.192 1.358.366 2.041.539zm35.466 0-.463-1.868a71 71 0 0 0 2.042-.539l.52 1.858c-.693.193-1.396.376-2.099.549m-40.685-1.492a67 67 0 0 1-2.051-.703l.654-1.811c.665.241 1.33.472 2.003.684l-.597 1.83zm45.904 0-.597-1.83a72 72 0 0 0 2.003-.693l.655 1.81c-.684.25-1.368.482-2.061.713m-50.998-1.868c-.665-.28-1.33-.559-1.994-.858l.78-1.762c.646.289 1.29.559 1.936.828l-.732 1.782zm56.102-.01-.732-1.782c.655-.269 1.3-.548 1.945-.837l.79 1.752c-.665.299-1.329.588-2.003.857zm-61.023-2.225a71 71 0 0 1-1.926-1.001l.915-1.695a84 84 0 0 0 1.878.973zm65.972-.028-.857-1.724a83 83 0 0 0 1.878-.973l.915 1.695c-.636.347-1.281.684-1.936 1.002m-70.729-2.572c-.616-.365-1.233-.751-1.849-1.136l1.03-1.627c.597.375 1.195.751 1.801 1.107l-.992 1.656zm75.496-.038-.992-1.656a70 70 0 0 0 1.801-1.117l1.04 1.627c-.607.395-1.223.77-1.849 1.146m-80.041-2.899a72 72 0 0 1-1.762-1.271l1.155-1.54c.568.423 1.136.828 1.714 1.232zm84.596-.057-1.108-1.58a68 68 0 0 0 1.714-1.242l1.156 1.541q-.867.65-1.762 1.271zm-88.92-3.217a57 57 0 0 1-1.656-1.396l1.261-1.454q.796.693 1.618 1.358zm93.243-.067-1.223-1.493a56 56 0 0 0 1.618-1.367l1.262 1.454c-.549.472-1.098.944-1.657 1.396zm-97.316-3.515a77 77 0 0 1-1.56-1.512l1.367-1.357c.501.5 1.002.991 1.512 1.473l-1.32 1.406zm101.39-.077-1.329-1.396a57 57 0 0 0 1.512-1.483l1.367 1.358c-.51.51-1.03 1.02-1.55 1.512zm-105.203-3.794a57 57 0 0 1-1.445-1.627l1.464-1.252c.462.53.924 1.059 1.406 1.579zm108.997-.077-1.426-1.3c.472-.52.944-1.05 1.406-1.579l1.464 1.252a111 111 0 0 1-1.435 1.627zm-112.512-4.064a125 125 0 0 1-1.32-1.723l1.55-1.146c.425.568.848 1.126 1.282 1.685l-1.512 1.194zm116.007-.077-1.512-1.184c.434-.559.857-1.117 1.281-1.685l1.55 1.146c-.433.577-.866 1.155-1.309 1.723zm-119.214-4.304q-.605-.896-1.194-1.82l1.627-1.03a70 70 0 0 0 1.156 1.771l-1.599 1.079zm122.402-.077-1.599-1.079a70 70 0 0 0 1.156-1.771l1.627 1.03q-.578.913-1.184 1.81zm-125.271-4.536a61 61 0 0 1-1.05-1.906l1.695-.905c.337.625.674 1.242 1.02 1.848zm128.131-.067-1.676-.953a83 83 0 0 0 1.021-1.849l1.695.905a52 52 0 0 1-1.05 1.897zm-130.654-4.747a74 74 0 0 1-.915-1.974l1.762-.78c.289.645.578 1.29.886 1.925l-1.733.838zm133.167-.058-1.733-.828c.298-.636.597-1.271.885-1.917l1.763.78c-.289.665-.597 1.32-.906 1.965zm-135.334-4.94c-.26-.674-.52-1.358-.76-2.042l1.81-.645c.24.665.481 1.329.741 1.984zm137.481-.029-1.791-.693c.251-.655.501-1.32.742-1.984l1.81.645a51 51 0 0 1-.761 2.032m-139.272-5.113a75 75 0 0 1-.607-2.09l1.859-.51c.183.683.385 1.357.587 2.032zm141.054-.02-1.84-.568a68 68 0 0 0 .588-2.032l1.858.511a72 72 0 0 1-.606 2.089m-142.45-5.228a73 73 0 0 1-.453-2.129l1.887-.375c.135.693.28 1.387.443 2.07l-1.878.424zm143.846-.02-1.878-.423c.154-.684.299-1.377.434-2.071l1.887.366a52 52 0 0 1-.453 2.128zm-144.858-5.315a78 78 0 0 1-.288-2.157l1.916-.231c.087.703.183 1.396.28 2.089l-1.908.289zm145.859-.019-1.906-.289a52 52 0 0 0 .279-2.09l1.916.231a80 80 0 0 1-.289 2.157zM47.21 121.373a82 82 0 0 1-.135-2.166l1.926-.087q.046 1.055.135 2.109l-1.916.144zm147.082-.009-1.916-.145c.058-.703.096-1.406.135-2.109l1.926.087c-.039.722-.077 1.444-.135 2.167zm-147.294-5.403v-.279c0-.635 0-1.261.02-1.897l1.925.048c-.019.617-.019 1.233-.019 1.849v.26zm147.516-.028h-1.926v-.26c0-.626 0-1.243-.029-1.859l1.926-.048q.029.953.029 1.907zm-145.416-5.268-1.926-.135c.048-.722.115-1.444.183-2.166l1.916.192a78 78 0 0 0-.174 2.109m143.316-.019a79 79 0 0 0-.173-2.109l1.916-.193c.068.713.135 1.435.183 2.167zm-142.758-5.239-1.907-.269c.106-.722.212-1.435.337-2.148l1.898.328c-.116.693-.232 1.386-.328 2.089m142.2-.019a70 70 0 0 0-.328-2.089l1.897-.328c.126.713.241 1.425.338 2.148zM50.59 100.207l-1.878-.414a52 52 0 0 1 .501-2.118l1.868.472a71 71 0 0 0-.481 2.06zm140.322-.019c-.154-.684-.318-1.377-.481-2.06l1.868-.472c.173.703.346 1.405.501 2.118l-1.878.414zM51.919 95.085l-1.849-.55c.212-.693.424-1.386.655-2.07l1.83.607a70 70 0 0 0-.636 2.013m137.674-.02a68 68 0 0 0-.636-2.012l1.83-.607c.231.684.443 1.377.655 2.07zm-135.97-4.988-1.8-.684c.26-.674.52-1.348.799-2.012l1.781.741c-.27.645-.53 1.3-.78 1.955m134.275-.02c-.25-.664-.51-1.318-.79-1.964l1.782-.741q.419 1.011.809 2.022zM55.684 85.235l-1.743-.819c.308-.655.626-1.3.944-1.945l1.724.866a69 69 0 0 0-.925 1.898m130.144-.049a70 70 0 0 0-.925-1.906l1.724-.867c.327.645.645 1.3.953 1.955l-1.743.818zM58.092 80.544l-1.676-.944c.356-.635.722-1.252 1.088-1.878l1.647.992a69 69 0 0 0-1.06 1.83m125.309-.067a71 71 0 0 0-1.069-1.83l1.647-.992c.375.626.741 1.242 1.088 1.878l-1.676.944zm-122.555-4.44-1.608-1.059a83 83 0 0 1 1.222-1.791l1.57 1.107c-.404.578-.8 1.156-1.194 1.743zm119.791-.067c-.394-.588-.789-1.165-1.194-1.743l1.57-1.117c.414.587.828 1.184 1.233 1.79zm-116.72-4.218-1.521-1.175c.443-.568.895-1.136 1.358-1.695l1.483 1.223c-.443.55-.886 1.098-1.32 1.657zm113.629-.077c-.433-.558-.876-1.107-1.319-1.656l1.483-1.223a76 76 0 0 1 1.358 1.695l-1.522 1.174zM67.297 67.698l-1.434-1.29q.722-.81 1.473-1.59l1.396 1.33c-.481.51-.963 1.03-1.435 1.55m106.85-.077c-.472-.52-.953-1.04-1.435-1.55l1.397-1.33c.5.52.991 1.06 1.473 1.59zm-103.18-3.727-1.34-1.386c.52-.501 1.05-.992 1.59-1.483l1.29 1.425c-.52.472-1.04.953-1.54 1.444m99.502-.067a56 56 0 0 0-1.551-1.444l1.291-1.426a58 58 0 0 1 1.588 1.483zM74.905 60.37l-1.233-1.483c.559-.462 1.127-.915 1.695-1.367l1.184 1.521q-.837.65-1.646 1.329m91.615-.067a55 55 0 0 0-1.646-1.32l1.184-1.521c.568.443 1.137.895 1.695 1.358zm-87.426-3.159-1.117-1.57a45 45 0 0 1 1.79-1.232l1.07 1.598c-.588.395-1.166.79-1.743 1.204m83.238-.048a114 114 0 0 0-1.743-1.204l1.069-1.598c.597.404 1.194.809 1.781 1.232l-1.117 1.57zm-78.828-2.86-1.002-1.647a60 60 0 0 1 1.878-1.097l.954 1.675a70 70 0 0 0-1.83 1.069m74.408-.039a57 57 0 0 0-1.82-1.069l.953-1.675c.626.356 1.252.722 1.868 1.098zm-69.786-2.542-.876-1.714c.645-.327 1.3-.655 1.955-.963l.828 1.743a69 69 0 0 0-1.897.934zm65.183-.029a68 68 0 0 0-1.888-.924l.819-1.743c.655.308 1.3.626 1.945.953zm-60.378-2.205-.75-1.772q.996-.416 2.021-.818l.694 1.8c-.655.26-1.32.52-1.965.79m55.601-.02c-.645-.269-1.3-.529-1.954-.789l.693-1.8c.674.26 1.348.53 2.013.808l-.752 1.772zM97.89 47.544l-.616-1.83a66 66 0 0 1 2.08-.664l.559 1.84c-.674.202-1.348.423-2.022.645zm45.702 0a70 70 0 0 0-2.012-.645l.558-1.84c.694.213 1.387.434 2.071.656l-.607 1.83zm-40.627-1.492-.472-1.868a56 56 0 0 1 2.109-.501l.424 1.878q-1.04.23-2.051.49zm35.562 0a71 71 0 0 0-2.06-.491l.423-1.878a67 67 0 0 1 2.109.5zm-30.4-1.108-.337-1.897a82 82 0 0 1 2.138-.346l.279 1.906a73 73 0 0 0-2.09.337zm25.229 0a73 73 0 0 0-2.089-.337l.279-1.906q1.083.159 2.138.346l-.337 1.897zm-20-.722-.203-1.916a82 82 0 0 1 2.167-.193l.135 1.917c-.703.048-1.406.115-2.109.182zm14.762 0a78 78 0 0 0-2.109-.183l.144-1.916c.723.048 1.445.115 2.167.193l-.193 1.916zm-9.495-.346-.058-1.926a81 81 0 0 1 4.334 0l-.058 1.925a77 77 0 0 0-4.218 0m2.476 182.279h-.28c-.548 0-1.097 0-1.646-.01h-.231l.019-1.926h.25c.53.01 1.069.02 1.608.02h.28v1.925zm3.245-.058-.058-1.926a77 77 0 0 0 2.119-.086l.096 1.925c-.722.039-1.435.068-2.157.087m-8.648-.058c-.722-.029-1.444-.077-2.157-.115l.126-1.926a75 75 0 0 0 2.118.115zm14.04-.24-.154-1.917a79 79 0 0 0 2.119-.192l.192 1.916c-.712.077-1.434.135-2.157.193m-19.422-.135c-.723-.068-1.435-.145-2.148-.222l.222-1.916c.703.077 1.406.154 2.109.221zm24.796-.424-.251-1.907a134 134 0 0 0 2.1-.298l.288 1.907q-1.069.156-2.137.298m-30.17-.212c-.712-.106-1.425-.212-2.138-.327l.309-1.897c.693.115 1.396.221 2.099.327l-.279 1.907zm35.504-.616-.346-1.897c.693-.125 1.396-.26 2.089-.395l.376 1.887c-.703.145-1.416.28-2.128.405zm-40.829-.289a76 76 0 0 1-2.118-.433l.404-1.888c.693.154 1.387.289 2.08.424l-.366 1.887zm46.126-.799-.434-1.878c.694-.164 1.377-.327 2.071-.501l.472 1.868c-.694.174-1.397.347-2.1.511zm-51.403-.366a128 128 0 0 1-2.09-.539l.501-1.859c.684.183 1.368.356 2.061.53l-.462 1.868zm56.632-.992-.53-1.849a69 69 0 0 0 2.041-.607l.569 1.84c-.694.212-1.387.414-2.08.616m-61.851-.433a74 74 0 0 1-2.06-.646l.587-1.829c.674.212 1.348.424 2.031.626l-.549 1.849zm67.022-1.185-.617-1.82c.674-.231 1.349-.462 2.013-.703l.655 1.811-2.051.722zm-72.164-.501c-.684-.24-1.358-.491-2.032-.741l.674-1.801c.664.251 1.329.491 1.993.732l-.645 1.81zm77.248-1.367-.703-1.791c.665-.26 1.319-.53 1.974-.799l.742 1.781c-.665.279-1.339.549-2.003.819zm-82.294-.558a73 73 0 0 1-1.984-.838l.77-1.762c.646.279 1.29.558 1.946.818zm87.282-1.551-.799-1.752c.645-.299 1.29-.597 1.926-.896l.828 1.733c-.655.309-1.31.617-1.964.915zm-92.212-.616c-.655-.308-1.3-.616-1.946-.934l.857-1.724c.636.308 1.271.616 1.907.915zm97.085-1.743-.877-1.714a83 83 0 0 0 1.878-.992l.915 1.695c-.636.347-1.271.684-1.916 1.011m-101.91-.664c-.636-.338-1.271-.684-1.897-1.031l.934-1.685q.922.52 1.859 1.011l-.906 1.705zm106.657-1.926-.963-1.666c.616-.357 1.223-.713 1.83-1.079l1.001 1.647c-.616.375-1.242.741-1.868 1.107zm-111.356-.723a73 73 0 0 1-1.84-1.126l1.021-1.637c.597.375 1.204.741 1.81 1.107zm115.969-2.108-1.05-1.618c.597-.385 1.184-.78 1.772-1.175l1.078 1.598c-.597.405-1.203.8-1.81 1.195zm-120.534-.771a99 99 0 0 1-1.79-1.213l1.097-1.579c.578.404 1.165.799 1.753 1.194l-1.07 1.608zm125.011-2.272-1.126-1.56c.578-.414 1.146-.829 1.714-1.252l1.155 1.54c-.577.434-1.155.858-1.743 1.281zm-129.43-.819a74 74 0 0 1-1.724-1.3l1.175-1.531c.558.433 1.126.857 1.694 1.271l-1.146 1.55zm133.744-2.446-1.194-1.512a77 77 0 0 0 1.647-1.338l1.223 1.483q-.837.693-1.676 1.358zm-138.01-.867a105 105 0 0 1-1.666-1.377l1.242-1.473c.54.453 1.078.905 1.627 1.358l-1.213 1.492zm142.151-2.599-1.271-1.445q.797-.693 1.579-1.415l1.3 1.425c-.529.481-1.069.963-1.608 1.444zm-146.254-.915a79 79 0 0 1-1.589-1.464l1.32-1.406q.78.725 1.56 1.435zm150.231-2.745-1.338-1.386c.51-.491 1.011-.992 1.512-1.493l1.367 1.358c-.51.51-1.021 1.021-1.541 1.521m-154.16-.963c-.51-.51-1.02-1.02-1.521-1.54l1.387-1.339c.49.51.992 1.011 1.492 1.512zm157.945-2.889-1.406-1.319c.481-.52.963-1.04 1.435-1.56l1.425 1.291a235 235 0 0 1-1.464 1.588zm-161.69-1.011c-.492-.529-.963-1.069-1.445-1.608l1.445-1.271q.707.797 1.415 1.579zm165.281-3.014-1.463-1.242c.452-.539.915-1.078 1.358-1.627l1.492 1.223a74 74 0 0 1-1.387 1.656zM35.896 186.22a112 112 0 0 1-1.367-1.685l1.512-1.194c.443.558.886 1.107 1.338 1.646zm172.225-3.139-1.531-1.175c.433-.559.857-1.127 1.281-1.695l1.55 1.146a73 73 0 0 1-1.3 1.724m-175.576-1.108c-.433-.577-.857-1.155-1.28-1.743l1.56-1.126c.413.578.837 1.146 1.26 1.714zm178.754-3.245-1.579-1.098c.404-.577.799-1.165 1.194-1.752l1.598 1.069c-.404.597-.799 1.194-1.213 1.781m-181.893-1.155c-.404-.597-.8-1.204-1.194-1.811l1.618-1.049c.385.597.77 1.184 1.174 1.772l-1.598 1.078zm184.859-3.351-1.637-1.021c.375-.597.741-1.204 1.107-1.81l1.656.991a72 72 0 0 1-1.126 1.84m-187.777-1.214a121 121 0 0 1-1.107-1.858l1.666-.963c.356.616.722 1.223 1.088 1.829l-1.647 1.002zm190.521-3.437-1.685-.935c.347-.616.684-1.232 1.011-1.858l1.705.905q-.509.956-1.031 1.897zm-193.207-1.262a74 74 0 0 1-1.012-1.916l1.715-.886c.327.635.654 1.261.991 1.878l-1.694.914zm195.72-3.505-1.723-.857c.318-.636.616-1.271.924-1.907l1.743.819c-.308.645-.616 1.3-.934 1.935zm-198.176-1.319c-.308-.655-.616-1.31-.915-1.965l1.753-.799c.289.645.597 1.29.895 1.926zm200.449-3.573-1.762-.77c.279-.645.558-1.291.828-1.945l1.781.731a69 69 0 0 1-.837 1.984zm-202.673-1.377c-.28-.664-.55-1.338-.819-2.003l1.791-.712c.26.664.53 1.319.809 1.974zm204.705-3.63-1.801-.684c.251-.664.491-1.329.732-1.993l1.81.645c-.24.674-.491 1.358-.741 2.032m-206.67-1.425c-.24-.684-.481-1.358-.722-2.042l1.82-.616c.231.674.462 1.348.703 2.012l-1.81.655zm208.461-3.679-1.83-.587c.222-.674.424-1.349.636-2.023l1.849.549c-.202.694-.424 1.377-.645 2.061zm-210.175-1.464c-.212-.693-.414-1.386-.616-2.08l1.849-.529c.192.683.395 1.367.606 2.041zm211.706-3.717-1.858-.5c.183-.684.356-1.368.529-2.052l1.868.463c-.173.703-.356 1.396-.539 2.099zm-213.17-1.492a135 135 0 0 1-.51-2.1l1.878-.433c.164.693.327 1.377.5 2.061zm214.441-3.756-1.887-.404c.154-.694.289-1.387.433-2.08l1.888.375c-.135.713-.289 1.416-.434 2.119zM12.785 137.86a82 82 0 0 1-.404-2.118l1.897-.347c.125.694.26 1.396.404 2.09l-1.887.375zm216.656-3.803-1.897-.318c.115-.693.221-1.396.327-2.099l1.907.279c-.106.713-.212 1.425-.327 2.138zm-217.59-1.522a161 161 0 0 1-.298-2.138l1.906-.25c.097.703.193 1.406.299 2.099zm218.341-3.823-1.916-.221c.077-.703.154-1.406.221-2.109l1.916.183a79 79 0 0 1-.231 2.157zm-219.015-1.531c-.067-.712-.135-1.435-.192-2.157l1.916-.154c.058.703.125 1.416.193 2.119zm219.506-3.852-1.926-.125c.048-.703.087-1.406.116-2.118l1.926.086a79 79 0 0 1-.125 2.157zm-219.91-1.54a81 81 0 0 1-.087-2.157l1.926-.068c.02.713.058 1.416.087 2.128zm220.141-3.862-1.926-.029v-.356c.01-.539.02-1.079.02-1.618v-.154h1.926v.154c0 .549 0 1.098-.01 1.647v.356zm-220.295-1.541v-.404c0-.549 0-1.098.01-1.647v-.125l1.925.048v.077c0 .578-.01 1.117-.01 1.657v.385H10.62zm218.331-3.794a74 74 0 0 0-.087-2.118l1.926-.096c.039.722.067 1.434.087 2.157zm-216.29-1.511-1.926-.087c.03-.722.068-1.445.116-2.157l1.926.125a78 78 0 0 0-.116 2.119m216.001-3.785c-.058-.703-.116-1.415-.193-2.118l1.917-.193c.067.713.134 1.435.192 2.157zm-215.645-1.512-1.916-.183c.068-.722.145-1.434.222-2.147l1.916.212c-.077.703-.154 1.406-.222 2.109zm215.086-3.775a75 75 0 0 0-.288-2.099l1.906-.279c.106.713.202 1.425.299 2.138l-1.907.24zm-214.47-1.502-1.906-.269c.106-.713.212-1.425.327-2.138l1.897.308a73 73 0 0 0-.317 2.099m213.662-3.746c-.126-.693-.26-1.396-.395-2.09l1.887-.375c.145.703.279 1.416.405 2.128zM14.509 95.27l-1.887-.366a72 72 0 0 1 .433-2.119l1.887.405c-.144.693-.289 1.387-.423 2.08zm211.716-3.708c-.164-.693-.328-1.377-.501-2.06l1.868-.472c.173.703.347 1.396.51 2.1zm-210.58-1.473-1.868-.462a75 75 0 0 1 .54-2.09l1.858.491a138 138 0 0 0-.53 2.061m209.26-3.669c-.192-.683-.394-1.367-.597-2.041l1.84-.559q.315 1.04.616 2.08l-1.849.52zM17.032 84.965l-1.849-.549c.202-.693.424-1.377.636-2.06l1.83.587c-.213.674-.425 1.348-.627 2.032zm206.294-3.63c-.231-.674-.462-1.348-.703-2.013l1.811-.655c.24.684.481 1.368.712 2.052zM18.679 79.919l-1.82-.645c.24-.684.49-1.358.741-2.032l1.8.674q-.375.998-.721 1.994zm202.818-3.582c-.26-.664-.53-1.32-.8-1.974l1.782-.742c.279.665.549 1.339.818 2.013l-1.791.703zM20.566 74.96l-1.781-.732c.27-.664.548-1.329.837-1.983l1.772.76c-.28.645-.558 1.3-.818 1.955zm198.86-3.524a88 88 0 0 0-.895-1.936l1.743-.828c.308.655.616 1.31.914 1.964l-1.752.79zm-196.732-1.32-1.743-.818c.308-.655.616-1.3.934-1.945l1.724.847c-.308.636-.616 1.271-.915 1.907zm194.421-3.476c-.327-.636-.655-1.261-.992-1.887l1.695-.915c.337.635.674 1.271 1.011 1.916l-1.714.876zM25.053 65.38l-1.704-.906c.337-.635.684-1.27 1.03-1.897l1.685.934a88 88 0 0 0-1.01 1.859zm189.52-3.41a114 114 0 0 0-1.079-1.829l1.647-.992q.563.927 1.098 1.868l-1.666.963zm-186.92-1.213-1.656-.982a95 95 0 0 1 1.127-1.849l1.637 1.021a70 70 0 0 0-1.098 1.81zm184.156-3.331c-.385-.597-.77-1.185-1.165-1.772l1.599-1.079c.404.597.799 1.204 1.194 1.81l-1.618 1.04zM30.475 56.269 28.867 55.2q.592-.896 1.213-1.79l1.58 1.097c-.405.578-.8 1.165-1.185 1.752zm178.349-3.236c-.414-.577-.828-1.145-1.252-1.714l1.541-1.155c.433.578.857 1.155 1.281 1.743l-1.56 1.127zM33.508 51.927l-1.55-1.146a73 73 0 0 1 1.3-1.724l1.53 1.175a70 70 0 0 0-1.27 1.695zm172.119-3.13c-.443-.558-.886-1.107-1.339-1.656l1.483-1.223c.463.559.915 1.117 1.358 1.685l-1.512 1.195zM36.753 47.738l-1.492-1.213c.452-.559.914-1.117 1.377-1.666L38.11 46.1c-.453.54-.905 1.079-1.358 1.628zm165.475-3.023c-.462-.53-.934-1.06-1.416-1.58l1.425-1.3q.722.795 1.445 1.618l-1.454 1.271zM40.201 43.703l-1.435-1.29c.481-.53.963-1.07 1.454-1.59l1.406 1.32c-.482.52-.963 1.04-1.435 1.57zm158.435-2.899c-.491-.51-.992-1.011-1.493-1.512l1.358-1.367c.51.51 1.011 1.02 1.512 1.54l-1.387 1.339zm-154.795-.963-1.368-1.358c.51-.51 1.021-1.02 1.531-1.521l1.339 1.386c-.51.492-1.011.992-1.512 1.493zm151.02-2.764c-.52-.481-1.04-.963-1.56-1.434l1.291-1.426a235 235 0 0 1 1.588 1.464l-1.319 1.406zm-147.188-.914-1.3-1.416c.53-.491 1.07-.973 1.608-1.444l1.271 1.444q-.797.708-1.579 1.416m143.23-2.62a71 71 0 0 0-1.627-1.358l1.223-1.492c.558.452 1.107.915 1.656 1.387zM51.67 32.677l-1.233-1.483c.558-.463 1.117-.915 1.675-1.368l1.204 1.502a76 76 0 0 0-1.647 1.339zm135.112-2.466c-.559-.433-1.127-.857-1.695-1.28l1.146-1.55c.578.433 1.156.866 1.724 1.3l-1.175 1.52zm-130.943-.828-1.155-1.54c.577-.434 1.155-.858 1.742-1.281l1.127 1.56c-.578.414-1.146.838-1.714 1.261m126.667-2.31c-.577-.405-1.165-.8-1.752-1.195l1.069-1.598c.597.394 1.194.799 1.781 1.213zm-122.343-.771-1.079-1.599a120 120 0 0 1 1.801-1.194l1.05 1.618c-.597.385-1.185.78-1.772 1.175m117.914-2.148c-.597-.375-1.204-.741-1.811-1.107l.992-1.656a72 72 0 0 1 1.84 1.126zm-113.446-.722-1.002-1.646c.617-.376 1.243-.742 1.859-1.108l.963 1.666c-.616.356-1.223.722-1.83 1.088zm108.881-1.974c-.616-.346-1.232-.683-1.858-1.02l.905-1.695c.636.337 1.262.683 1.887 1.03l-.943 1.685zm-104.278-.674-.915-1.695a73 73 0 0 1 1.916-1.01l.886 1.713a58 58 0 0 0-1.878 1.002zm99.598-1.791c-.635-.318-1.271-.616-1.906-.924l.828-1.743c.645.308 1.29.616 1.935.934l-.857 1.723zm-94.86-.626-.838-1.733a94 94 0 0 1 1.964-.915l.8 1.752a118 118 0 0 0-1.926.906zm90.055-1.608c-.645-.28-1.29-.559-1.945-.828l.732-1.782c.664.28 1.329.559 1.984.848zm-85.212-.578-.75-1.772c.664-.279 1.338-.549 2.002-.818l.713 1.79c-.665.26-1.32.53-1.974.81zm80.301-1.425c-.664-.25-1.329-.491-1.993-.732l.645-1.81c.684.24 1.358.49 2.032.741zm-75.342-.52-.664-1.81a75 75 0 0 1 2.051-.723l.616 1.82c-.674.232-1.338.463-2.002.713m70.335-1.242a81 81 0 0 0-2.022-.636l.558-1.839c.693.212 1.377.424 2.061.645zm-65.28-.454-.568-1.84c.693-.21 1.386-.423 2.08-.615l.53 1.848c-.684.193-1.368.395-2.042.607m60.194-1.06a79 79 0 0 0-2.051-.529l.463-1.868q1.051.262 2.089.54zm-55.08-.384-.482-1.868a71 71 0 0 1 2.1-.51l.442 1.877c-.693.164-1.377.327-2.06.5m49.919-.867a80 80 0 0 0-2.08-.433l.376-1.888c.702.145 1.415.29 2.118.443l-.404 1.888zM99.114 9.92l-.385-1.887c.703-.145 1.416-.28 2.128-.405l.347 1.897a80 80 0 0 0-2.09.405zm39.53-.684c-.694-.115-1.397-.221-2.1-.327l.28-1.907c.712.106 1.425.212 2.138.337zm-34.301-.24-.289-1.907a166 166 0 0 1 2.138-.308l.25 1.906c-.702.097-1.405.193-2.099.299zm29.043-.501c-.703-.077-1.406-.154-2.109-.222l.183-1.916q1.081.1 2.147.231l-.221 1.916zm-23.785-.164-.193-1.916c.713-.077 1.435-.135 2.148-.202l.163 1.916c-.702.058-1.415.125-2.118.192zm18.498-.318a148 148 0 0 0-2.118-.125l.087-1.926c.722.039 1.444.077 2.157.125zm-13.202-.096-.106-1.926c.723-.038 1.435-.067 2.157-.096l.068 1.926c-.713.029-1.416.057-2.128.096zm7.906-.135h-.462c-.539-.02-1.079-.02-1.618-.02h-.51V5.85h.51c.549 0 1.098 0 1.647.01h.472l-.039 1.935z"/><path fill="#0A0B0E" d="M120.781 226.193a109.6 109.6 0 0 1-30.343-4.294c-21.426-6.163-40.242-18.441-54.416-35.514l1.482-1.233c13.934 16.775 32.423 28.841 53.473 34.888 21.523 6.182 44.113 5.556 65.347-1.82l.635 1.82c-11.777 4.093-23.968 6.144-36.168 6.144zm75.534-187.747C166.743 9.692 124.19.236 85.258 13.766l-.636-1.82c39.616-13.771 82.93-4.151 113.032 25.113l-1.339 1.377z"/><path fill="#0052FF" d="M208.843 20.911h-27.598a3.19 3.19 0 0 0-3.188 3.188v27.598a3.187 3.187 0 0 0 3.188 3.187h27.598a3.187 3.187 0 0 0 3.187-3.187V24.099a3.187 3.187 0 0 0-3.187-3.188"/><path fill="#FFFFFF" d="M185.607 28.461h18.874v18.874h-18.874z"/><path fill="#0052FF" d="m204.48 47.336 1.888 1.887V26.575l-1.888 1.887z"/><path fill="#0A0B0D" d="m204.48 28.462 1.887-1.887h-22.648l1.887 1.887zm-18.874 18.873-1.887 1.887h22.648l-1.887-1.888z"/><path fill="#0A0B0D" d="m195.044 41.673-3.303-3.303-6.134 5.393v3.573h18.874v-7.55l-3.775-3.775z"/><path fill="#0052FF" d="M193.156 33.409a2.59 2.59 0 0 1-2.59 2.59 2.597 2.597 0 0 1-2.59-2.59 2.597 2.597 0 0 1 2.59-2.59 2.597 2.597 0 0 1 2.59 2.59m-9.437-6.834 1.887 1.887v18.874l-1.887 1.887z"/><path fill="#FFFFFF" d="M185.607 28.461h18.874v18.874h-18.874z"/><path fill="#0052FF" d="m204.48 47.336 1.888 1.887V26.575l-1.888 1.887z"/><path fill="#0A0B0D" d="m204.48 28.462 1.887-1.887h-22.648l1.887 1.887zm-18.874 18.873-1.887 1.887h22.648l-1.887-1.888z"/><path fill="#0A0B0D" d="m195.044 41.673-3.303-3.303-6.134 5.393v3.573h18.874v-7.55l-3.775-3.775z"/><path fill="#0052FF" d="M193.156 33.409a2.59 2.59 0 0 1-2.59 2.59 2.597 2.597 0 0 1-2.59-2.59 2.597 2.597 0 0 1 2.59-2.59 2.597 2.597 0 0 1 2.59 2.59m-9.437-6.834 1.887 1.887v18.874l-1.887 1.887zM51.246 165.161H23.648a3.187 3.187 0 0 0-3.188 3.188v27.598a3.187 3.187 0 0 0 3.188 3.187h27.598a3.187 3.187 0 0 0 3.187-3.187v-27.598a3.187 3.187 0 0 0-3.187-3.188"/><path fill="#0A0B0D" d="M49.541 191.141c.03.298.039.587.02.886a5.94 5.94 0 0 0-3.197-2.369l-.241-2.292c-1.743-11.748-10.053-13.241-11.7-13.424 1.396-1.415 3.64-2.234 5.681-1.675.29.077.569.183.829.298a5.9 5.9 0 0 0-2.6 1.31 5.61 5.61 0 0 1 5.344.741 5.8 5.8 0 0 0-2.36.511 5.6 5.6 0 0 1 4.392 1.984 5.9 5.9 0 0 0-2.59-.01 5.6 5.6 0 0 1 4.313 2.725 5.86 5.86 0 0 0-2.628-.433 5.59 5.59 0 0 1 3.765 3.466 6.1 6.1 0 0 0-2.485-.905 5.6 5.6 0 0 1 2.937 3.168c.106.28.183.569.241.848a6.1 6.1 0 0 0-2.032-1.194 5.62 5.62 0 0 1 2.234 3.332c.068.288.106.577.126.866a6 6 0 0 0-1.946-1.483 5.6 5.6 0 0 1 1.907 3.659z"/><path fill="#0052FF" d="M35.135 176.552a1 1 0 0 0-.087.222l-.029.087a.34.34 0 0 1-.057.135c.019-.039.038-.087.057-.135l.03-.087a1 1 0 0 1 .086-.222m.125-.184a1.3 1.3 0 0 0-.135.184.8.8 0 0 1 .136-.184m.367-.238s-.087.039-.136.058a.35.35 0 0 1 .136-.058"/><path fill="#FFFFFF" d="M41.559 183.69c-.01-.077-.03-.144-.039-.221l-.087-.424c0-.048-.019-.087-.028-.135s-.03-.106-.039-.154l-.029-.116c-.038-.134-.067-.269-.106-.394-.038-.126-.077-.241-.115-.357v-.029a1 1 0 0 1-.068-.173 4 4 0 0 0-.135-.356c-.019-.058-.048-.116-.067-.174a1.4 1.4 0 0 0-.077-.173 6 6 0 0 0-.154-.337c-.029-.058-.058-.106-.077-.164-.029-.057-.058-.106-.087-.163a8 8 0 0 0-.173-.308c-.029-.049-.058-.106-.087-.155-.057-.096-.115-.202-.183-.288a1 1 0 0 0-.096-.145c-.029-.048-.067-.096-.096-.144-.03-.048-.068-.097-.097-.135-.028-.048-.067-.087-.105-.135a8 8 0 0 0-.434-.53c-.038-.038-.067-.077-.106-.115a11 11 0 0 0-.462-.482q-.055-.058-.125-.115a2 2 0 0 0-.125-.116c-.039-.038-.087-.077-.126-.115-.038-.039-.086-.077-.125-.116-.086-.077-.173-.144-.26-.212-.086-.067-.173-.144-.26-.212-.048-.028-.086-.067-.135-.105a1 1 0 0 0-.134-.097 7 7 0 0 0-.28-.202c-.086-.067-.183-.125-.27-.193l-.278-.192a1 1 0 0 0-.193-.096c-.02 0-.048-.02-.067-.02a1 1 0 0 0-.337-.038h-.068a.2.2 0 0 0-.067.009c-.03 0-.048.01-.068.02-.019 0-.048.019-.067.029-.048.019-.087.038-.135.057-.02.01-.038.029-.058.039-.019.009-.038.029-.057.048a.12.12 0 0 0-.049.048l-.057.058a.9.9 0 0 0-.221.404l-.03.087a.34.34 0 0 1-.058.135c-.028.038-.048.077-.086.106a.55.55 0 0 1-.751.019 1 1 0 0 1-.087-.096.3.3 0 0 1-.058-.125l-1.252-3.477s.01.048.02.068c.019.067.038.125.058.192 0 .029.019.058.019.097 0 .019.01.038.019.067l.029.144c0 .049.02.097.02.145v.029s.009.086.018.135v.154c0 .029 0 .057-.01.086v.048s-.028.058-.038.087v.019s-.048.058-.067.077a.2.2 0 0 1-.106.058.43.43 0 0 1-.453-.125l-.029-.029-.038-.048c-.029-.039-.039-.067-.039-.067l-.048.067-.597.751-.607.751-1.887 2.34c-.115.145-.154.328-.115.501l.163.703-3.322 4.747c-.24.347-.337.79-.25 1.204l.106.52a1.7 1.7 0 0 0 1.29 1.329l.828.192c.453.106.925.02 1.31-.231l.52-.337a.63.63 0 0 0 .289-.539v-.327l1.05-2.822c.115.116.799.78 1.8.963.54.106 1.165.068 1.84-.27.124-.057.24-.125.355-.192l.106-.068c.058-.038.116-.077.174-.125.038-.029.067-.057.106-.086.01 0 .029-.02.038-.029.039-.029.077-.068.116-.097l.125-.125c.029-.029.058-.058.077-.086.029-.029.048-.058.077-.087l.068-.087s.048-.058.067-.086c.02-.029.048-.058.067-.087.058-.087.116-.173.174-.27.048-.086.096-.183.144-.269a4 4 0 0 0 .356-1.57c.01-.424-.038-.703-.038-.703s.02.019.038.029c0 0 .02.01.02.019q.043.032.086.077c.01.01.03.02.039.039.058.058.125.135.192.221.03.029.049.068.068.097a3.3 3.3 0 0 1 .318.616c.096.269.182.587.211.972.01.126.02.26.02.405 0 .385-.049.77-.126 1.136a4 4 0 0 1-.115.434c-.02.067-.039.144-.068.211 0 .02-.01.039-.019.058a5 5 0 0 1-.135.347l-.086.202c-.087.202-.183.385-.28.578a9 9 0 0 1-.308.529 1 1 0 0 1-.086.126 1.4 1.4 0 0 1-.135.192 3 3 0 0 1-.193.26 10 10 0 0 1-1.175 1.339c-.048.048-.077.077-.096.086h-.01v.02l-.115.115c-1.704 1.907-3.418 2.398-4.43 4.853h10.776l.318-.991c.626-3.544.693-6.279.327-8.445zm-14.762 2.311-.232.318c-.096.125-.298.087-.327-.077l-.135-.703a.525.525 0 0 1 .25-.559.23.23 0 0 1 .135-.038c.078 0 .145.029.203.096l.096.125a.68.68 0 0 1 .02.828zm4.352-6.904c-.25.308-.635.433-.992.356a1.02 1.02 0 0 1 .135-1.04c.25-.308.636-.433.992-.356a1.02 1.02 0 0 1-.135 1.04m7.656 11.603-3.245.309c-.299.028-.453-.347-.232-.54.761-.655 1.599-1.252 2.437-2.186a5.6 5.6 0 0 0 1.107-1.954c.058-.174.308-.145.328.038l.317 3.467a.79.79 0 0 1-.722.866z"/><path fill="#FFFFFF" d="M26.777 185.173a.68.68 0 0 1 .02.828l-.232.318c-.096.125-.298.087-.327-.077l-.135-.703a.525.525 0 0 1 .25-.559.23.23 0 0 1 .135-.038c.077 0 .145.029.203.096l.096.125zm3.37-5.723a1.02 1.02 0 0 1 .135-1.04c.25-.308.635-.433.991-.356a1.02 1.02 0 0 1-.134 1.04c-.25.308-.636.433-.992.356m.733-3.35.606-.751h.01l.587-.751-.597.751zm1.877-2.611s-.019-.067-.029-.096v.029s.03.048.03.067m2.262 3.364a.34.34 0 0 1-.059.135c.02-.038.04-.087.058-.135l.03-.087zm.24-.485a1.3 1.3 0 0 0-.135.184.8.8 0 0 1 .136-.184m.367-.238s-.087.039-.136.058a.35.35 0 0 1 .136-.058m1.338 8.887c-.087.203-.183.386-.28.579q.148-.274.28-.579m.298-.827.116-.434a4 4 0 0 1-.116.434m.115-.434a5.5 5.5 0 0 0 .125-1.136c0-.144 0-.279-.019-.404.01.125.02.26.02.404 0 .385-.049.77-.126 1.136m-2.051 6.711c.761-.655 1.599-1.252 2.436-2.186.54-.606.886-1.29 1.108-1.955.058-.173.308-.144.327.039l.318 3.467a.79.79 0 0 1-.722.866l-3.245.308c-.299.029-.453-.346-.231-.539zm-2.677-6.104-1.146.742-1.704 1.107 1.05-2.821c.115.115.799.78 1.8.963z"/><path fill="#0A0B0D" d="M32.92 174.356v.086c0 .029 0 .058-.01.087v.048s-.028.058-.038.087v.019s-.048.058-.067.077a.2.2 0 0 1-.106.058.43.43 0 0 1-.453-.125l-.029-.029s-.029-.039-.038-.048c-.03-.039-.039-.068-.039-.068-.029-.067-.664-1.473-.192-3.091 0 0 .25.501.49 1.108l.3.837v.029l.028.068c.02.067.039.125.058.192 0 .029.02.058.02.097 0 .019.009.038.018.067l.03.144c0 .049.019.097.019.145v.029s.01.086.019.135v.067zm-6.133 11.645-.231.318c-.096.125-.299.087-.328-.077l-.134-.703a.525.525 0 0 1 .25-.559.23.23 0 0 1 .135-.038c.077 0 .144.029.202.096l.096.125a.68.68 0 0 1 .02.829z"/><path fill="#0052FF" d="M37.504 182.63c0 .385-.048.77-.125 1.136a4 4 0 0 1-.115.433c-.02.068-.049.145-.068.212 0 .02-.01.039-.02.058-.038.116-.086.231-.134.347l-.087.202c-.086.202-.182.385-.279.578a9 9 0 0 1-.308.529c-.029.039-.058.087-.087.126a1.4 1.4 0 0 1-.134.192c-.068.087-.126.183-.193.26a10 10 0 0 1-1.117 1.281l-.058.058c-.048.048-.077.077-.096.086 1.078-1.3 1.32-2.917 1.348-3.948.01-.452-.491-.741-.867-.491l-.202.125c.058-.038.116-.077.173-.125.039-.029.068-.058.106-.087.01 0 .03-.019.039-.028.038-.029.077-.068.115-.097 0 0 .087-.077.126-.125q.045-.043.077-.087c.029-.028.048-.057.077-.086a.5.5 0 0 0 .067-.087.5.5 0 0 0 .068-.087.5.5 0 0 0 .067-.086c.067-.087.115-.174.173-.27.048-.087.097-.183.145-.269.27-.569.346-1.137.356-1.57.01-.405-.038-.674-.038-.703 0 0 .019.01.038.029 0 0 .02.009.02.019.028.019.057.048.086.077l.038.039c.058.057.126.134.193.221l.067.096c.106.164.222.366.318.617.096.269.183.587.212.972.01.125.02.26.02.405z"/><path fill="#0A0B0D" d="M31.139 179.094c-.25.308-.636.433-.992.356a1.02 1.02 0 0 1 .135-1.04c.25-.308.635-.433.991-.356a1.02 1.02 0 0 1-.134 1.04"/><path fill="#FFFFFF" d="m26.575 171.412 4.305 4.69 1.204-1.493-5.509-3.187z"/><path fill="#0052FF" d="M41.23 192.132c.626-3.543.694-6.278.328-8.445-.01-.077-.029-.144-.039-.221 0-.048-.019-.096-.029-.145l-.057-.279c0-.048-.02-.087-.03-.135s-.028-.106-.038-.154c0-.038-.019-.077-.029-.115a5 5 0 0 0-.105-.395 2 2 0 0 0-.116-.356v-.029c-.029-.058-.048-.116-.068-.174-.038-.125-.086-.24-.134-.356-.02-.058-.048-.116-.068-.173a1.4 1.4 0 0 0-.077-.174 6 6 0 0 0-.154-.337c-.029-.057-.058-.106-.077-.163-.029-.058-.058-.106-.087-.164a7 7 0 0 0-.173-.308c-.029-.048-.058-.106-.087-.154-.057-.097-.115-.203-.182-.289a1.4 1.4 0 0 0-.097-.145c-.029-.048-.067-.096-.096-.144s-.067-.096-.096-.135c-.03-.048-.068-.087-.106-.135a7 7 0 0 0-.434-.529c-.029-.039-.067-.077-.105-.116-.145-.164-.309-.327-.463-.481a2 2 0 0 0-.125-.116 1.4 1.4 0 0 0-.125-.115c-.039-.039-.087-.077-.125-.116s-.087-.077-.125-.116c-.087-.077-.174-.144-.26-.211-.087-.068-.174-.145-.26-.212-.049-.029-.087-.068-.135-.106a1 1 0 0 0-.135-.096q-.133-.102-.28-.203c-.086-.067-.182-.125-.269-.192-.096-.068-.183-.125-.28-.193a1.3 1.3 0 0 0-.192-.096c-.02 0-.048-.019-.067-.019a1 1 0 0 0-.337-.039h-.068c-.029 0-.048 0-.067.01a.14.14 0 0 0-.068.019.1.1 0 0 0-.067.029c-.048.019-.087.038-.135.058a.2.2 0 0 0-.057.038c-.02.01-.039.029-.058.048a.12.12 0 0 0-.048.048l-.058.058c-.048.058-.097.116-.135.183a1 1 0 0 0-.087.222l-.029.086a.34.34 0 0 1-.057.135c-.03.039-.049.077-.087.106a.55.55 0 0 1-.751.019c-.029-.029-.058-.057-.087-.096a.3.3 0 0 1-.058-.125l-1.261-3.505c-.087-.28-.193-.568-.299-.838-.24-.607-.49-1.108-.49-1.108s1.367.636 2.204 2.466c0 0 .097 0 .29.019 1.646.183 9.956 1.675 11.7 13.424l.24 2.291.366 3.477h-5.807l.318-.992z"/><path fill="#0A0B0D" d="M213.84 139.941a3.637 3.637 0 0 1 3.64-3.64h14.56a3.637 3.637 0 0 1 3.64 3.64v14.56a3.637 3.637 0 0 1-3.64 3.64h-14.56a3.637 3.637 0 0 1-3.64-3.64z"/><path fill="#E66020" d="M216.96 148.781h3.12v6.24h-3.12zm6.24-3.118h3.12v9.36h-3.12zm6.239-3.122h3.12v12.48h-3.12z"/><path fill="#FFFFFF" d="M111.209 66.93a3.85 3.85 0 0 1-3.851 3.853 3.85 3.85 0 0 1 3.851 3.852 3.85 3.85 0 0 1 3.852-3.852 3.85 3.85 0 0 1-3.852-3.852"/><path fill="#FFFFFF" d="M115.061 70.783a3.85 3.85 0 0 1-3.852-3.852 3.85 3.85 0 0 1-3.851 3.852"/><path fill="#E66020" d="M46.787 66.17a2.4 2.4 0 0 1-1.146-.434 2.415 2.415 0 0 1-.578-3.38 92.3 92.3 0 0 1 17.16-18.334 2.42 2.42 0 0 1 3.409.356 2.42 2.42 0 0 1-.357 3.409 87.2 87.2 0 0 0-16.254 17.371 2.44 2.44 0 0 1-2.244 1.011zm130.79 122.497a2.43 2.43 0 0 1-1.628-.886 2.42 2.42 0 0 1 .357-3.409 88 88 0 0 0 7.963-7.319 88 88 0 0 0 8.301-10.043 2.415 2.415 0 0 1 3.38-.578 2.415 2.415 0 0 1 .578 3.38 92.5 92.5 0 0 1-17.17 18.335 2.4 2.4 0 0 1-1.791.529z"/><path fill="#FFFFFF" d="M127.126 170.322a7.274 7.274 0 0 1 7.28-7.28 7.274 7.274 0 0 1-7.28-7.28 7.274 7.274 0 0 1-7.28 7.28 7.28 7.28 0 0 1 7.28 7.28"/><path fill="#FFFFFF" d="M119.846 163.045a7.28 7.28 0 0 1 7.28 7.28 7.274 7.274 0 0 1 7.28-7.28"/><path fill="#E66020" d="M4.32 79.883a3.033 3.033 0 0 1 3.034-3.033h18.2a3.033 3.033 0 0 1 3.033 3.033v18.2a3.033 3.033 0 0 1-3.033 3.033h-18.2a3.033 3.033 0 0 1-3.033-3.033z"/><path fill="#FFFFFF" d="M23.07 86.335a6.615 6.615 0 1 1-13.23 0 6.62 6.62 0 0 1 6.615-6.616 6.62 6.62 0 0 1 6.616 6.616"/><path fill="#0A0B0D" d="M15.463 85.343a.99.99 0 0 1-.992.992.99.99 0 0 1-.992-.992.99.99 0 0 1 .992-.992.99.99 0 0 1 .992.992m3.967 0a.99.99 0 0 1-.992.992.99.99 0 0 1-.992-.992.99.99 0 0 1 .992-.992.99.99 0 0 1 .992.992"/><path fill="#FFFFFF" d="M23.07 98.254h-2.648v-2.648h-2.648v2.648h-2.639v-2.648h-2.648v2.648H9.839V86.67h13.232z"/><path fill="#0A0B0D" fill-rule="evenodd" d="M15.125 87.665c0 .731.597 1.319 1.319 1.319s1.32-.597 1.32-1.32h-2.649z" clip-rule="evenodd"/><path fill="#0A0B0E" d="m174.822 165.884-1.406-1.31c12.384-13.327 19.211-30.69 19.211-48.889h1.926c0 18.691-7.001 36.525-19.722 50.208zM48.964 115.676h-1.926a73.58 73.58 0 0 1 19.24-49.679l1.425 1.3c-12.085 13.25-18.74 30.43-18.74 48.379"/><path fill="#0A0B0D" d="M174.812 169.11a4.854 4.854 0 1 0 .001-9.707 4.854 4.854 0 0 0-.001 9.707"/><path fill="#0052FF" d="M67.443 72.044a4.853 4.853 0 1 0 0-9.707 4.853 4.853 0 0 0 0 9.706m104.432 39.616h-7.704v17.333h7.704z"/><path fill="#0A0B0D" d="M152.616 93.362H79.432v53.925h73.184z"/><path fill="#FFFFFF" d="M119.164 131.881c-3.39 0-6.038-5.44-6.038-12.393 0-6.952 2.648-12.393 6.038-12.393s6.038 5.441 6.038 12.393-2.648 12.393-6.038 12.393m0-23.11c-2.07 0-4.372 4.4-4.372 10.717s2.302 10.718 4.372 10.718 4.372-4.401 4.372-10.718-2.302-10.717-4.372-10.717"/><path fill="#FFFFFF" d="M119.163 131.881c-6.827 0-12.393-5.556-12.393-12.393s5.556-12.393 12.393-12.393 12.394 5.556 12.394 12.393-5.557 12.393-12.394 12.393m0-23.11c-5.912 0-10.717 4.805-10.717 10.717s4.805 10.718 10.717 10.718 10.718-4.805 10.718-10.718c0-5.912-4.805-10.717-10.718-10.717"/><path fill="#FFFFFF" d="M130.719 118.652h-23.111v1.666h23.111z"/><path fill="#FFFFFF" d="M152.616 140.43h-66.01v-40.222h66.01v1.704H88.309v36.814h64.307z"/><path fill="#0052FF" d="M164.172 93.362h-11.555v53.925h11.555z"/><path fill="#FFFFFF" d="M152.317 128.992a8.667 8.667 0 0 1 0-17.333h11.854v17.333z"/><path fill="#0A0B0D" d="M152.319 124.175a3.852 3.852 0 1 0-.001-7.705 3.852 3.852 0 0 0 .001 7.705"/><path fill="#0A0B0E" d="M119.876 27.478c-8.994 0-16.293 7.3-16.293 16.293 0 8.994 7.299 16.294 16.293 16.294s16.293-7.3 16.293-16.294-7.299-16.293-16.293-16.293"/><path fill="#FFFFFF" d="m116.409 50.379-5.932-6.106 1.464-1.415 4.468 4.603 9.986-10.275 1.464 1.425z"/><path fill="#0052FF" d="M103.582 201.887v11.729a9.72 9.72 0 0 1 5.865-5.865 9.72 9.72 0 0 1-5.865-5.864"/><path fill="#0A0B0D" d="M103.582 213.616a9.72 9.72 0 0 0-5.865-5.865 9.71 9.71 0 0 0 5.865-5.864z"/></svg>