<svg xmlns="http://www.w3.org/2000/svg" fill="none" viewBox="0 0 240 240"><path fill="#CED2DB" d="M0 0h216v152H0z"/><path fill="#CED2DB" d="M24 24h216v152H24z"/><path fill="#0052FF" d="M24 24h192v128H24z"/><path fill="#FFFFFF" d="M40 40h64v64H40zm0 88h64v-16H40z"/><path fill="#0A0B0D" d="M60.5 125.2h.4c.6 0 1.1-.2 1.4-.6.254-.222.558-.497.894-.801 1.782-1.611 4.465-4.036 5.306-3.699.1 0 .6.3.8 2.6.1.8.6 1.5 1.3 1.8s1.5.2 2.1-.3l4.3-3.7-1.3-1.6-4.3 3.7s-.1 0-.1-.1c-.2-1.5-.5-3.7-2.1-4.3-2.1-.7-4.8 1.6-8.3 5l-1.2-2.5c-.3-.6-.8-1-1.5-1.1s-1.3.2-1.8.7c-2.4 2.6-3.2 2.3-3.2 2.3-.4-.2-1.2-1.7-.6-6.9.1-.7-.3-1.4-1-1.6s-1.4 0-1.8.6l-5.8 8.6 1.7 1 4.7-7.1c-.2 4.1.4 6.4 2 7.1 1.9.9 4-1.2 5.5-2.8l1.2 2.5c.3.6.9 1 1.4 1.2m18.5-.8 1.7 1 4.1-6.6c.8 3.6 2.6 5.9 5 6.3s4.8-1.2 6.6-4.4c0-.1.1-.1.1-.1l2.5 4.3 1.7-1-2.5-4.3c-.4-.6-1.1-1-1.8-1s-1.4.4-1.8 1c-1.4 2.4-3 3.7-4.5 3.4-1.7-.3-3.1-2.5-3.6-5.7-.1-.7-.5-1.2-1.2-1.3-.6-.1-1.3.2-1.6.7z"/><path fill="#FFFFFF" d="M40 40h64v64H40z"/><path fill="#FFD200" fill-rule="evenodd" d="M104 88.7V104H40V88.7C47.049 78.606 58.753 72 72 72s24.951 6.605 32 16.7" clip-rule="evenodd"/><path fill="#0A0B0D" d="M84 56c0 6.627-5.373 12-12 12s-12-5.373-12-12 5.373-12 12-12 12 5.373 12 12"/><path fill="#FFD200" d="M176 185c0 30.376-24.624 55-55 55s-55-24.624-55-55 24.624-55 55-55 55 24.624 55 55"/><path fill="#0052FF" fill-rule="evenodd" d="M175.269 176H66.734c4.296-26.094 26.957-46 54.268-46 27.31 0 49.972 19.906 54.267 46" clip-rule="evenodd"/><path fill="#FFFFFF" d="M162 185c0 22.644-18.356 41-41 41s-41-18.356-41-41 18.356-41 41-41 41 18.356 41 41"/><path fill="#0A0B0D" fill-rule="evenodd" d="M136 105h-16v-2h16zm32 0h-16v-2h16zm32 0h-16v-2h16zm-64 16h-16v-2h16zm32 0h-16v-2h16zm32 0h-16v-2h16zm0-32h-80v-2h80z" clip-rule="evenodd"/><path fill="#FFFFFF" d="M120 40h48v31h-48z"/><path fill="#E13947" d="M152 56a8 8 0 1 1-16 0 8 8 0 0 1 16 0"/><path fill="#0A0B0D" fill-rule="evenodd" d="M188 64c6.627 0 12-5.373 12-12s-5.373-12-12-12-12 5.373-12 12 5.373 12 12 12m.001-4c0-4.42 3.58-8 7.999-8a8 8 0 0 1-7.999-8A8 8 0 0 1 180 52a8 8 0 0 1 8.001 8" clip-rule="evenodd"/><path fill="#0A0B0D" d="M144 180H96v4h48zm0 20H96v4h48zm-24-36-21 16h42z"/><path fill="#0A0B0D" fill-rule="evenodd" d="M102 200v-20h4v20zm8 0v-20h4v20zm8 0v-20h4v20zm8 0v-20h4v20zm8 0v-20h4v20z" clip-rule="evenodd"/></svg>