<svg xmlns="http://www.w3.org/2000/svg" fill="none" viewBox="0 0 240 240"><path fill="#00D17F" d="M104 80a16 16 0 1 0 0-32 16 16 0 0 0 0 32Zm64 0a16 16 0 1 0 0-32 16 16 0 0 0 0 32Z"/><path fill="#050607" d="M56 96H0v8h56v-8Z"/><path fill="#050607" d="M64.4 112H50a2 2 0 0 1-2-2V90c0-1.1.9-2 2-2h14.4v24Z"/><path fill="#0052FF" d="M211.9 128H66a2 2 0 0 1-2-2V74c0-1.1.9-2 2-2h145.9v56Z"/><path fill="#0A0B0D" d="M154.2 72c2.8 4.8 7.9 8 13.8 8s11.1-3.2 13.8-8h-27.6Zm-64 0c2.8 4.8 7.9 8 13.8 8s11.1-3.2 13.8-8H90.2ZM212 128a28 28 0 1 0 0-56 28 28 0 0 0 0 56Z"/><path fill="#FFFFFF" d="M182 112H82a2 2 0 0 1-2-2V90c0-1.1.9-2 2-2h100a2 2 0 0 1 2 2v20a2 2 0 0 1-2 2Z"/><path fill="#CED2DB" d="M176 96H88v8h88v-8Z"/><path fill="#CED2DB" d="m229.1 121.8-115.5 85c-.9.7-2.1.5-2.8-.4l-30.5-41.5c-.7-.9-.5-2.1.4-2.8l115.5-85 32.9 44.7Z"/><path fill="#73A2FF" d="M211.8 72c-7.2 0-13.7 2.8-18.7 7.3L127 128h85c4.7 0 9-1.1 12.9-3.2 1.1-.6 2.2-1.2 3.2-2 1.5-1.1 2.9-2.3 4.2-3.6l.1-.1c.8-.9 1.6-1.8 2.3-2.8 0-.1.1-.1.1-.2.3-.5.6-.9.9-1.4 0 0 0-.1.1-.1.3-.5.6-1 .9-1.6 0-.1.1-.1.1-.2.2-.5.5-.9.7-1.4 0-.1.1-.2.1-.3.5-1.1.9-2.2 1.2-3.3 0-.1.1-.3.1-.4.1-.5.2-.9.4-1.4 0-.1.1-.2.1-.3l.3-1.7v-.4c.1-.5.1-.9.2-1.4v-.5c0-.6.1-1.2.1-1.8 0-15.5-12.5-28-28-28-.1.1-.1.1-.2.1Z"/><path fill="#FFFFFF" d="M212 120a20 20 0 1 0 0-40 20 20 0 0 0 0 40Z"/><path stroke="#0A0B0D" stroke-miterlimit="10" stroke-width="2" d="M212 112a12 12 0 1 0 0-24 12 12 0 0 0 0 24Zm-108 56 44.5-34m-36.9 42.3 44.5-34m-36.9 42.3 44.5-34"/><path stroke="#101114" stroke-miterlimit="10" stroke-width="2" d="M104 32v32m4.7-3.6-4.8 4.8-4.8-4.8M168 32v32m4.7-3.6-4.8 4.8-4.8-4.8"/><path fill="#0A0B0D" d="m207.83 99.93 4.17 4.17 4.17-4.17-4.17-4.17-4.17 4.17Z"/></svg>