<svg xmlns="http://www.w3.org/2000/svg" fill="none" viewBox="0 0 240 240"><g clip-path="url(#a)"><path fill="#3CC28A" d="M54.227 0v67.72c65.3 2.12 117.64 55.75 118.04 121.76h67.41C239.267 86.08 156.767 2.14 54.227 0"/><path fill="#E13947" d="M172.268 189.48h67.409c-.13-32.49-8.37-63.05-22.78-89.77l-59.709 31.46c9.5 17.31 14.95 37.18 15.08 58.31"/><path fill="#FFD200" d="m165.992 39.61-42.07 52.91a123.1 123.1 0 0 1 33.27 38.64l59.71-31.46a191 191 0 0 0-50.91-60.1z"/><path fill="#CED2DB" d="M54.229 67.72v106.83h-4.01v14.93h122.05c-.4-66.01-52.74-119.64-118.04-121.76"/><path fill="#0A0B0D" fill-rule="evenodd" d="M53.875 152.014V0h2v152.014z" clip-rule="evenodd"/><path fill="#CED2DB" d="M239.669 189.48H50.219v28.7h189.45z"/><path fill="#0052FF" d="m47.492 163.307 158.023 19.777.048.999L50.219 219.15z"/><path fill="#73A2FF" d="M49.88 240c27.548 0 49.88-22.332 49.88-49.88s-22.332-49.88-49.88-49.88S0 162.572 0 190.12 22.332 240 49.88 240"/><path fill="#0A0B0D" d="M49.877 224.583c19.033 0 34.463-15.43 34.463-34.463s-15.43-34.463-34.463-34.463-34.463 15.43-34.463 34.463 15.43 34.463 34.463 34.463"/><path fill="#0052FF" d="M49.88 203.798c7.555 0 13.678-6.124 13.678-13.678s-6.123-13.678-13.677-13.678-13.678 6.124-13.678 13.678 6.124 13.678 13.678 13.678"/></g><defs><clipPath id="a"><path fill="#FFFFFF" d="M0 0h240v240H0z"/></clipPath></defs></svg>