<svg xmlns="http://www.w3.org/2000/svg" fill="none" viewBox="0 0 240 240"><path fill="#5DE2F8" d="M80 72c0-22.091 17.909-40 40-40s40 17.909 40 40v72c0 22.091-17.909 40-40 40s-40-17.909-40-40z"/><path fill="#CED2DB" d="M0 0h240v104H0z"/><path fill="#0A0B0E" fill-rule="evenodd" d="M63 119h17v2H65v23c0 30.376 24.624 55 55 55s55-24.624 55-55v-23h-15v-2h17v25c0 31.48-25.52 57-57 57s-57-25.52-57-57z" clip-rule="evenodd"/><path fill="#0052FF" fill-rule="evenodd" d="M160 104H80V72c0-22.091 17.909-40 40-40s40 17.909 40 40z" clip-rule="evenodd"/><path fill="#0A0B0E" fill-rule="evenodd" d="M119 238.5V200h2v38.5z" clip-rule="evenodd"/><path fill="#0A0B0E" fill-rule="evenodd" d="M152 240H88v-2h64z" clip-rule="evenodd"/><path fill="#0A0B0D" d="M100 90a6 6 0 1 1-12 0 6 6 0 0 1 12 0m26 0a6 6 0 1 1-12 0 6 6 0 0 1 12 0m26 0a6 6 0 1 1-12 0 6 6 0 0 1 12 0m-52-20a6 6 0 1 1-12 0 6 6 0 0 1 12 0m26 0a6 6 0 1 1-12 0 6 6 0 0 1 12 0m0-20a6 6 0 1 1-12 0 6 6 0 0 1 12 0m26 20a6 6 0 1 1-12 0 6 6 0 0 1 12 0"/><path fill="#0A0B0D" fill-rule="evenodd" d="M95 144v-24h2v24c0 12.703 10.297 23 23 23v2c-13.807 0-25-11.193-25-25" clip-rule="evenodd"/><path fill="#0A0B0D" fill-rule="evenodd" d="M144.5 144v-24h-2v24c0 12.703-10.297 23-23 23v2c13.807 0 25-11.193 25-25" clip-rule="evenodd"/><path fill="#0A0B0E" fill-rule="evenodd" d="m224.703 56.707-32 32-1.414-1.414 32-32zm-209.406 0 32 32 1.414-1.414-32-32zm209.406 126.586-32-32-1.414 1.414 32 32zm-209.406 0 32-32 1.414 1.414-32 32zM224 121h-32v-2h32zm-208 0h32v-2H16z" clip-rule="evenodd"/></svg>