<svg xmlns="http://www.w3.org/2000/svg" fill="none" viewBox="0 0 240 240"><path fill="#FFD200" d="m120 184 .1-97.9C121 71.5 133.2 60 148 60s27 11.5 27.9 26.1l.1 97.9z"/><path fill="#3CC28A" d="m64 184 .1-97.9C65 71.5 77.2 60 92 60s27 11.5 27.9 26.1l.1 97.9z"/><path fill="#CED2DB" d="m64 240-.1-153.9C63 71.5 50.8 60 36 60S9 71.5 8.1 86.1L8 184c0 30.6 25.1 56 56 56"/><path fill="#0052FF" d="m176 240 .1-153.9C177 71.5 189.2 60 204 60s27 11.5 27.9 26.1l.1 97.9c0 30.6-25.1 56-56 56"/><path fill="#CED2DB" d="M12 28c0 13.3 10.7 24 24 24s24-10.7 24-24m0 0C60 14.7 49.3 4 36 4S12 14.7 12 28"/><path fill="#0052FF" d="M204 52c-13.3 0-24-10.7-24-24s10.7-24 24-24m0 0c13.3 0 24 10.7 24 24s-10.7 24-24 24"/><path fill="#FFD200" d="M148 52c-13.3 0-24-10.7-24-24s10.7-24 24-24m0 0c13.3 0 24 10.7 24 24s-10.7 24-24 24"/><path fill="#3CC28A" d="M92 52c13.3 0 24-10.7 24-24S105.3 4 92 4m0 0C78.7 4 68 14.7 68 28s10.7 24 24 24"/><path fill="#5DE2F8" d="M120 240c-30.9 0-56-25.1-56-56s25.1-56 56-56z"/><path fill="#FFFFFE" d="M120 128c30.9 0 56 25.1 56 56s-25.1 56-56 56z"/><path fill="#0052FF" d="M120 224c-22.1 0-40-17.9-40-40s17.9-40 40-40z"/><path fill="#FFD200" d="M120 144c22.1 0 40 17.9 40 40s-17.9 40-40 40z"/><path fill="#0A0B0D" fill-rule="evenodd" d="M93 184c0 14.948 12.052 27 27 27v2c-16.052 0-29-12.948-29-29zm27 27c14.948 0 27-12.052 27-27h2c0 16.052-12.948 29-29 29zm27-27c0-14.948-12.052-27-27-27v-2c16.052 0 29 12.948 29 29zm-27-27c-14.948 0-27 12.052-27 27h-2c0-16.052 12.948-29 29-29z" clip-rule="evenodd"/><path fill="#FFFFFE" d="M64 240c-30.9 0-56-25.1-56-56s25.1-56 56-56z"/><path fill="#5DE2F8" d="M64 224c-22.1 0-40-17.9-40-40s17.9-40 40-40z"/><path fill="#0A0B0D" fill-rule="evenodd" d="M37 184c0 14.948 12.052 27 27 27v2c-16.052 0-29-12.948-29-29zm27-27c-14.948 0-27 12.052-27 27h-2c0-16.052 12.948-29 29-29z" clip-rule="evenodd"/><path fill="#FFFFFE" d="M176 240c30.9 0 56-25.1 56-56s-25.1-56-56-56z"/><path fill="#0052FF" d="M176 224c22.1 0 40-17.9 40-40s-17.9-40-40-40z"/><path fill="#0A0B0D" fill-rule="evenodd" d="M205 184c0 16.052-12.948 29-29 29v-2c14.948 0 27-12.052 27-27zm-29-29c16.052 0 29 12.948 29 29h-2c0-14.948-12.052-27-27-27z" clip-rule="evenodd"/></svg>