<svg xmlns="http://www.w3.org/2000/svg" fill="none" viewBox="0 0 240 240"><path fill="#0A0B0D" fill-rule="evenodd" d="M62 192.664c-7.18 0-13 5.82-13 13s5.82 13 13 13 13-5.82 13-13-5.82-13-13-13m-15 13c0-8.284 6.716-15 15-15s15 6.716 15 15-6.716 15-15 15-15-6.716-15-15" clip-rule="evenodd"/><path fill="#CED2DB" d="M224.001 88.065H69.641a8 8 0 0 0-8 8v103.999a8 8 0 0 0 8 8H224a8 8 0 0 0 8-8v-104a8 8 0 0 0-8-8m8 79.95h8v-40.01h-8z"/><path fill="#FFD200" d="m184.081 45.731-148.78 46.91a8 8 0 0 0-5.224 10.036l31.274 99.186a8 8 0 0 0 10.035 5.224l148.78-46.91a8 8 0 0 0 5.224-10.035l-31.273-99.187a8 8 0 0 0-10.036-5.224"/><path fill="#3CC28A" d="M129.869 17.437 3.519 108.933a8 8 0 0 0-1.788 11.172l60.998 84.233a8 8 0 0 0 11.171 1.788l126.351-91.497a8 8 0 0 0 1.787-11.171l-60.997-84.234a8 8 0 0 0-11.172-1.787"/><path fill="#0052FF" fill-rule="evenodd" d="M232 148.004v-20h-32.07a19.93 19.93 0 0 0-19.93 20h39.387v.048L180 148.014v.119a19.85 19.85 0 0 0 5.837 14.058 19.98 19.98 0 0 0 14.093 5.823H232z" clip-rule="evenodd"/><path fill="#0052FF" d="m164.527 51.895-129 40.68a8 8 0 0 0-5.23 9.999l31.27 99.19a8 8 0 0 0 10 5.23l1.84-.58.36-.24 126.35-91.5a8 8 0 0 0 1.79-11.17z"/><path fill="#0052FF" d="m225.591 150.074-19.55-62h-136.4a8 8 0 0 0-8 8v104a7.9 7.9 0 0 0 1.17 4.14 8 8 0 0 0 8.78 2.82l148.78-46.91a7.994 7.994 0 0 0 5.22-10.05"/><path fill="#0A0B0D" d="M180 148.004v.12a19.926 19.926 0 0 0 16.26 19.58l24.11-7.6a8 8 0 0 0 5.22-10l-6.94-22h-18.72a19.93 19.93 0 0 0-19.93 19.9"/><path fill="#FFD200" d="M200 160.114c6.627 0 12-5.372 12-12 0-6.627-5.373-12-12-12s-12 5.373-12 12c0 6.628 5.373 12 12 12"/><path fill="#0A0B0D" d="m73.79 206.204 126.351-91.5a8.004 8.004 0 0 0 1.79-11.17l-11.21-15.47H69.641a8 8 0 0 0-8 8v104a7.9 7.9 0 0 0 1.17 4.14 8.1 8.1 0 0 0 1.73 1.68 8.3 8.3 0 0 0 2.08 1.06h.09q.537.165 1.09.27h.15q.496.079 1 .1h.12q.546.002 1.09-.07h.25a9 9 0 0 0 1.11-.25l1.84-.58z"/><path fill="#FFFFFE" d="M72 199.664a4 4 0 1 0 0-8 4 4 0 0 0 0 8"/><path fill="#0A0B0E" fill-rule="evenodd" d="M62 192.664c-7.18 0-13 5.82-13 13s5.82 13 13 13 13-5.82 13-13-5.82-13-13-13m-15 13c0-8.284 6.716-15 15-15s15 6.716 15 15-6.716 15-15 15-15-6.716-15-15" clip-rule="evenodd"/></svg>