<svg xmlns="http://www.w3.org/2000/svg" fill="none" viewBox="0 0 240 240"><path fill="#CED2DB" d="M216 152H24v16h192zm0-64H24V72h192zm-8 88H32v64h176zm0-112H32V0h176zm32 24H0v64h240z"/><path fill="#0052FF" d="M24 88v64h192V88z"/><path fill="#FFFFFF" d="M88 112h120v16H88z"/><path fill="#FFFFFE" d="M80 120c0 11.046-8.954 20-20 20s-20-8.954-20-20 8.954-20 20-20 20 8.954 20 20"/><path fill="#0A0B0E" fill-rule="evenodd" d="M72 120c0 6.627-5.373 12-12 12s-12-5.373-12-12 5.373-12 12-12 12 5.373 12 12m-2.05 1c-.501 5.053-4.765 9-9.95 9-5.523 0-10-4.477-10-10 0-5.185 3.947-9.449 9-9.951V121zm0-2H61v-8.951A10.004 10.004 0 0 1 69.95 119" clip-rule="evenodd"/><path fill="#0A0B0D" fill-rule="evenodd" d="M168 121H96v-2h72zm8-2h24v2h-24zM72 32c0 6.627-5.373 12-12 12s-12-5.373-12-12 5.373-12 12-12 12 5.373 12 12m-2.05 1c-.501 5.053-4.765 9-9.95 9-5.523 0-10-4.477-10-10 0-5.185 3.947-9.449 9-9.95V33zm0-2H61v-8.95A10 10 0 0 1 69.95 31M152 28H88v-2h64zm48 0h-32v-2h32zm-72 10H88v-2h40zm24 0h-16v-2h16zm40 0h-24v-2h24zM72 208c0 6.627-5.373 12-12 12s-12-5.373-12-12 5.373-12 12-12 12 5.373 12 12m-2.05 1c-.501 5.053-4.765 9-9.95 9-5.523 0-10-4.477-10-10 0-5.185 3.947-9.449 9-9.951V209zm0-2H61v-8.951A10.004 10.004 0 0 1 69.95 207m82.05-3H88v-2h64zm48 0h-32v-2h32zm-72 10H88v-2h40zm24 0h-16v-2h16zm40 0h-24v-2h24z" clip-rule="evenodd"/><path fill="#FFD200" d="M96 100h16l-8 8zm0 40h16l-8-8z"/></svg>