<svg xmlns="http://www.w3.org/2000/svg" fill="none" viewBox="0 0 243 243"><path fill="#0A0B0E" d="M98.9 170.81h48.03v13.32H98.9z"/><path fill="#CED2DB" d="M98.898 240.17h48.034v-40.028H98.898z"/><circle cx="122.92" cy="120.08" r="64.05" fill="#5DE2F8"/><path fill="#0A0B0E" fill-rule="evenodd" d="M240.926 120.125q0-.966-.015-1.931l2.001-.032q.016.981.015 1.964zm-.14-5.791a121 121 0 0 0-.251-3.853l1.994-.163q.16 1.955.256 3.919zm-.629-7.697a117 117 0 0 0-.502-3.828l1.98-.293q.287 1.941.511 3.893zm-1.13-7.639q-.345-1.9-.752-3.788l1.956-.422q.414 1.92.765 3.853zm-1.628-7.549a117 117 0 0 0-.998-3.73l1.925-.55q.538 1.89 1.015 3.794zm-2.118-7.426a118 118 0 0 0-1.24-3.657l1.885-.674q.66 1.85 1.261 3.72zm-2.599-7.272a119 119 0 0 0-1.477-3.568l1.837-.796q.78 1.803 1.502 3.629zm-3.069-7.087a119 119 0 0 0-1.707-3.464l1.781-.914q.897 1.749 1.735 3.523zm-3.526-6.87a120 120 0 0 0-1.93-3.345l1.717-1.029a121 121 0 0 1 1.963 3.402zm-3.968-6.625q-.523-.812-1.059-1.615-.537-.804-1.086-1.597l1.646-1.139a124 124 0 0 1 2.181 3.267zm-4.393-6.352a118 118 0 0 0-2.35-3.065l1.568-1.244a119 119 0 0 1 2.39 3.117zm-4.799-6.05a117 117 0 0 0-2.545-2.905l1.483-1.343q1.318 1.455 2.589 2.953zm-5.184-5.725a116 116 0 0 0-2.73-2.731l1.393-1.438q1.41 1.366 2.776 2.778zm-5.547-5.372a119 119 0 0 0-2.903-2.547l1.295-1.526q1.497 1.271 2.952 2.59zm-5.887-4.998q-1.512-1.2-3.063-2.352l1.193-1.607q1.576 1.17 3.114 2.392zm-6.202-4.602a117 117 0 0 0-3.21-2.147l1.085-1.682q1.651 1.065 3.265 2.183zm-6.489-4.188a117 117 0 0 0-3.343-1.931l.973-1.75q1.717.956 3.4 1.965zm-6.748-3.753a119 119 0 0 0-3.463-1.71l.856-1.808q1.778.84 3.522 1.738zm-6.98-3.304a117 117 0 0 0-3.568-1.48l.736-1.86a117 117 0 0 1 3.628 1.504zm-7.182-2.841a118 118 0 0 0-3.656-1.243l.613-1.905q1.868.6 3.718 1.264zm-7.351-2.365a118 118 0 0 0-3.73-1l.487-1.942q1.903.478 3.793 1.018zm-7.491-1.879a118 118 0 0 0-3.787-.755l.359-1.969q1.93.353 3.852.768zm-7.597-1.385q-1.91-.285-3.829-.505l.23-1.988q1.95.224 3.893.513zm-7.672-.885q-1.924-.159-3.853-.254l.099-1.999q1.962.097 3.919.258zm-7.713-.382q-.965-.015-1.931-.016l.001-2.002q.982 0 1.964.017zM122.872 240.1q-.983 0-1.964-.017l.034-2.001q.965.017 1.931.017zm-5.889-.146a119 119 0 0 1-3.919-.259l.164-1.994q1.923.158 3.854.254zm-7.827-.645a118 118 0 0 1-3.893-.514l.294-1.979q1.909.283 3.828.505zm-7.768-1.155a122 122 0 0 1-3.852-.767l.424-1.957q1.886.409 3.787.755zm-7.676-1.66q-1.905-.478-3.793-1.018l.55-1.925q1.857.531 3.73 1.001zm-7.55-2.16q-1.87-.6-3.72-1.263l.676-1.884q1.817.651 3.656 1.242zm-7.394-2.648a120 120 0 0 1-3.628-1.504l.797-1.836a116 116 0 0 0 3.567 1.479zm-7.205-3.126a121 121 0 0 1-3.521-1.738l.915-1.78q1.718.884 3.463 1.709zm-6.984-3.591a118 118 0 0 1-3.4-1.964l1.029-1.717q1.658.994 3.344 1.932zm-6.735-4.039a124 124 0 0 1-3.265-2.184l1.14-1.645a121 121 0 0 0 3.21 2.147zm-6.457-4.472a121 121 0 0 1-3.115-2.392l1.245-1.567q1.51 1.2 3.063 2.352zm-6.15-4.885a118 118 0 0 1-2.951-2.59l1.344-1.482q1.429 1.296 2.903 2.547zm-5.817-5.276q-1.41-1.367-2.776-2.778l1.439-1.391a118 118 0 0 0 2.73 2.732zm-5.46-5.645q-1.317-1.456-2.588-2.953l1.527-1.295q1.248 1.473 2.545 2.905zm-5.078-5.99a121 121 0 0 1-2.39-3.117l1.608-1.191q1.15 1.552 2.35 3.064zm-4.676-6.31a120 120 0 0 1-2.181-3.266l1.682-1.084a117 117 0 0 0 2.145 3.212zm-4.254-6.602a120 120 0 0 1-1.962-3.401l1.75-.972a119 119 0 0 0 1.93 3.345zm-3.812-6.865a120 120 0 0 1-1.736-3.523l1.81-.855q.825 1.748 1.706 3.464zm-3.356-7.101a120 120 0 0 1-1.501-3.629l1.861-.735a119 119 0 0 0 1.477 3.568zM9.9 160.478a120 120 0 0 1-1.26-3.72l1.905-.611q.59 1.837 1.24 3.657zM7.5 153q-.538-1.89-1.015-3.794l1.942-.486q.468 1.873.998 3.731zm-1.905-7.619q-.414-1.92-.765-3.852l1.97-.358q.345 1.9.751 3.788zm-1.403-7.727a120 120 0 0 1-.512-3.894l1.989-.228q.22 1.918.502 3.829zm-.895-7.802a120 120 0 0 1-.256-3.919l2-.098q.093 1.93.25 3.854zm-.383-7.845q-.016-.981-.015-1.963H4.9q0 .966.015 1.931zm207.102-1.892a87.1 87.1 0 0 0-87.072-87.132l.001-2.002a89.103 89.103 0 0 1 89.073 89.134zM37.68 138.023a87.1 87.1 0 0 0 24.33 44.331l-1.399 1.431A89.11 89.11 0 0 1 40.221 86.9a89.1 89.1 0 0 1 18.994-29.12l1.43 1.4a87.1 87.1 0 0 0-22.965 78.843" clip-rule="evenodd"/><path fill="#0A0B0E" fill-rule="evenodd" d="M240.928 120.085q0 .966-.016 1.931l2.001.033q.016-.981.016-1.964zm-.142 5.791a118 118 0 0 1-.253 3.853l1.995.164q.16-1.956.257-3.919zm-.631 7.696q-.221 1.92-.504 3.829l1.979.294q.288-1.941.513-3.894zm-1.133 7.639a119 119 0 0 1-.754 3.788l1.956.422q.415-1.919.767-3.851zm-1.631 7.549a120 120 0 0 1-.999 3.73l1.924.549q.54-1.887 1.017-3.793zm-2.12 7.425a117 117 0 0 1-1.242 3.657l1.885.674q.662-1.849 1.262-3.718zm-2.602 7.271a115 115 0 0 1-1.478 3.568l1.837.796a117 117 0 0 0 1.502-3.628zm-3.072 7.086a118 118 0 0 1-1.707 3.463l1.78.915q.897-1.748 1.737-3.522zm-3.528 6.869a117 117 0 0 1-1.931 3.344l1.717 1.029a120 120 0 0 0 1.964-3.401zm-3.97 6.624a115 115 0 0 1-2.146 3.211l1.646 1.139a122 122 0 0 0 2.182-3.265zm-4.395 6.35a119 119 0 0 1-2.351 3.064l1.568 1.244q1.22-1.536 2.39-3.115zm-4.801 6.049a119 119 0 0 1-2.546 2.904l1.483 1.344a121 121 0 0 0 2.589-2.953zm-5.186 5.722q-1.344 1.389-2.731 2.731l1.392 1.438q1.41-1.365 2.777-2.777zm-5.549 5.371a119 119 0 0 1-2.904 2.546l1.295 1.526q1.497-1.27 2.953-2.589zm-5.889 4.996q-1.513 1.2-3.064 2.351l1.193 1.607q1.577-1.17 3.115-2.39zm-6.203 4.6a118 118 0 0 1-3.211 2.146l1.085 1.682q1.651-1.065 3.265-2.182zm-6.49 4.185a122 122 0 0 1-3.344 1.931l.972 1.749a121 121 0 0 0 3.401-1.963zm-6.75 3.751a117 117 0 0 1-3.464 1.708l.856 1.809q1.778-.84 3.522-1.736zm-6.981 3.302q-.886.384-1.778.754a116 116 0 0 1-1.791.724l.736 1.861a124 124 0 0 0 3.629-1.503zm-7.183 2.838q-1.82.651-3.657 1.242l.613 1.905q1.868-.6 3.719-1.262zm-7.352 2.363q-1.858.53-3.73.999l.486 1.942q1.904-.477 3.794-1.017zm-7.491 1.876q-1.889.408-3.788.753l.359 1.97q1.93-.352 3.851-.767zm-7.598 1.383q-1.91.282-3.829.504l.229 1.988q1.951-.225 3.894-.513zm-7.672.882q-1.924.157-3.853.253l.098 1.999q1.962-.097 3.919-.257zm-7.713.379q-.966.016-1.931.016v2.001q.982 0 1.964-.016zM122.915.071q-.983 0-1.964.016l.033 2q.965-.015 1.931-.015zm-5.889.144q-1.963.096-3.919.257l.164 1.995q1.922-.158 3.853-.253zm-7.827.642q-1.953.224-3.894.512l.294 1.98q1.909-.284 3.829-.504zm-7.769 1.152q-1.932.352-3.852.766l.423 1.957q1.887-.408 3.788-.754zm-7.676 1.658q-1.905.477-3.794 1.017l.55 1.924q1.857-.53 3.73-1zm-7.552 2.157q-1.87.6-3.719 1.262l.675 1.885q1.818-.651 3.656-1.242zm-7.394 2.645q-1.826.721-3.628 1.503l.796 1.837a118 118 0 0 1 3.567-1.478zm-7.206 3.124a120 120 0 0 0-3.522 1.737l.915 1.78q1.718-.882 3.463-1.708zm-6.985 3.588q-1.716.953-3.402 1.964l1.03 1.717q1.658-.994 3.344-1.931zM57.88 19.22a119 119 0 0 0-3.265 2.182l1.139 1.646a119 119 0 0 1 3.21-2.146zm-6.458 4.47q-1.578 1.17-3.115 2.39l1.244 1.568q1.511-1.2 3.063-2.35zm-6.151 4.882q-1.499 1.27-2.953 2.59l1.344 1.482q1.43-1.296 2.904-2.546zm-5.82 5.274q-1.41 1.366-2.776 2.777l1.438 1.392q1.343-1.387 2.73-2.731zm-5.46 5.643q-1.32 1.455-2.59 2.953l1.526 1.295q1.249-1.473 2.546-2.904zm-5.082 5.989a120 120 0 0 0-2.39 3.115l1.607 1.193a118 118 0 0 1 2.351-3.064zm-4.678 6.308a120 120 0 0 0-2.182 3.265l1.682 1.085a118 118 0 0 1 2.146-3.211zm-4.256 6.6a120 120 0 0 0-1.963 3.401l1.749.972q.94-1.688 1.93-3.344zM16.16 65.25a120 120 0 0 0-1.737 3.522l1.81.856q.826-1.748 1.708-3.464zm-3.357 7.1a121 121 0 0 0-1.503 3.628l1.86.735a118 118 0 0 1 1.479-3.568zm-2.887 7.303a120 120 0 0 0-1.262 3.72l1.905.611q.591-1.836 1.242-3.656zM7.514 87.13q-.54 1.89-1.017 3.794l1.942.486q.468-1.872 1-3.73zm-1.909 7.62q-.414 1.92-.766 3.851l1.97.359q.344-1.9.753-3.788zM4.2 102.475a120 120 0 0 0-.513 3.894l1.988.229q.22-1.919.504-3.829zm-.898 7.802a120 120 0 0 0-.257 3.919l2 .098q.094-1.929.252-3.853zm-.385 7.844q-.016.982-.016 1.964h2.001q0-.966.016-1.931z" clip-rule="evenodd"/><path fill="#3CC28A" fill-rule="evenodd" d="M31.669 44.816a4.003 4.003 0 0 1-.89-5.59 75.5 75.5 0 0 1 10.72-11.882 75.5 75.5 0 0 1 12.974-9.368 4.003 4.003 0 0 1 3.97 6.953 67.5 67.5 0 0 0-11.6 8.375 67.5 67.5 0 0 0-9.584 10.622 4.003 4.003 0 0 1-5.59.89m195.741 131.53a4.004 4.004 0 0 1 1.934 5.321 75.5 75.5 0 0 1-8.276 13.697 75.5 75.5 0 0 1-10.965 11.656 4.004 4.004 0 0 1-5.214-6.075 67.4 67.4 0 0 0 9.802-10.421 67.4 67.4 0 0 0 7.399-12.245 4 4 0 0 1 5.32-1.933" clip-rule="evenodd"/><circle cx="60.87" cy="56.04" r="8.01" fill="#FFD200" transform="rotate(90 60.871 56.04)"/><circle cx="122.92" cy="32.02" r="8.01" fill="#FFD200" transform="rotate(90 122.915 32.023)"/><circle cx="146.93" cy="128.09" r="24.02" fill="#0052FF" transform="rotate(90 146.932 128.09)"/><circle cx="146.93" cy="128.09" r="8.01" fill="#0A0B0D" transform="rotate(90 146.932 128.09)"/><circle cx="211.16" cy="120.08" r="8.01" fill="#FFD200" transform="rotate(90 211.157 120.085)"/><circle cx="146.93" cy="128.09" r="4" fill="#0A0B0D" transform="rotate(90 146.932 128.09)"/><path fill="#0052FF" d="M90.89 184.13h64.05v16.01H90.89zm-8 16.01h80.06v16.01H82.89z"/><path fill="#CED2DB" fill-rule="evenodd" d="m149.763 130.921-26.848 26.847-16.011-16.011L5.661 243 0 237.339l106.904-106.904 16.011 16.012 21.187-21.187z" clip-rule="evenodd"/><path fill="#0052FF" fill-rule="evenodd" d="M80.55 168.115a65 65 0 0 1-5.661-5.661l29.188-29.188 2.83-2.831 2.831 2.831 13.181 13.181 21.186-21.187 5.661 5.661-24.017 24.017-2.83 2.83-2.831-2.83-13.181-13.181z" clip-rule="evenodd"/><path fill="#0A0B0D" fill-rule="evenodd" d="m127.356 142.006 16.746-16.746 5.66 5.661-16.746 16.746a24.1 24.1 0 0 1-5.66-5.661" clip-rule="evenodd"/><path fill="#0A0B0E" d="M98.9 184.13h48.03v32.02H98.9z"/></svg>