<svg xmlns="http://www.w3.org/2000/svg" fill="none" viewBox="0 0 240 240"><path fill="#FFFFFF" d="M184 48H56v144h128V48Z"/><path fill="#00D17F" d="M0 192h56V48H0v144Z"/><path fill="#FFD200" d="M184 192h56V48h-56v144Z"/><path fill="#0052FF" d="M184 32H56v16h128V32Zm0 160H56v16h128v-16Z"/><path fill="#00D17F" d="M72 104c0-26.5 21.5-48 48-48s48 21.5 48 48H72Z"/><path fill="#FFD200" d="M168 136c0 26.5-21.5 48-48 48s-48-21.5-48-48h96Z"/><path fill="#0052FF" d="M120 152c17.673 0 32-14.327 32-32 0-17.673-14.327-32-32-32-17.673 0-32 14.327-32 32 0 17.673 14.327 32 32 32Z"/><path fill="#0A0B0D" d="M92.297 136c5.5 9.6 15.9 16 27.7 16 11.8 0 22.2-6.4 27.7-16h-55.4Zm55.4-32c-5.5-9.6-15.9-16-27.7-16-11.8 0-22.2 6.4-27.7 16h55.4Z"/><path fill="#FFFFFF" d="M120 128a8 8 0 1 0 0-16 8 8 0 0 0 0 16Z"/><path fill="#0A0B0D" fill-rule="evenodd" d="M102.5 121H72v-2h30.5v2Zm65.498 0h-30.1v-2h30.1v2ZM121 64v14.2h-2V64h2Zm0 98.1V176h-2v-13.9h2Z" clip-rule="evenodd"/><path fill="#0A0B0D" fill-rule="evenodd" d="m119.996 77.292-4.993-4.905-1.401 1.426 6.407 6.295 6.3-6.3-1.414-1.415-4.899 4.9Zm-18.814 42.614-4.98-4.893 1.401-1.427 6.42 6.307-6.413 6.414-1.415-1.414 4.987-4.987Zm37.626 0 4.899-4.899-1.414-1.414-6.301 6.301 6.295 6.407 1.427-1.402-4.906-4.993Zm-18.799 39.586 6.3 6.301-1.414 1.414-4.899-4.899-4.993 4.906-1.401-1.427 6.407-6.295Z" clip-rule="evenodd"/><path fill="#0052FF" d="M64 40h-8v160h8V40Zm120 0h-8v160h8V40Z"/><path fill="#FFFFFF" d="M176 40H64v16h112V40Zm0 144H64v16h112v-16Z"/><path fill="#CED2DB" d="M168 184c-4.4 0-8 3.6-8 8 0-4.4-3.6-8-8-8 4.4 0 8-3.6 8-8 0 4.4 3.6 8 8 8Zm-80 0c-4.4 0-8 3.6-8 8 0-4.4-3.6-8-8-8 4.4 0 8-3.6 8-8 0 4.4 3.6 8 8 8Zm0-128c-4.4 0-8 3.6-8 8 0-4.4-3.6-8-8-8 4.4 0 8-3.6 8-8 0 4.4 3.6 8 8 8Zm80 0c-4.4 0-8 3.6-8 8 0-4.4-3.6-8-8-8 4.4 0 8-3.6 8-8 0 4.4 3.6 8 8 8Z"/><path fill="#0052FF" d="M128 120c-4.4 0-8 3.6-8 8 0-4.4-3.6-8-8-8 4.4 0 8-3.6 8-8 0 4.4 3.6 8 8 8Z"/><path fill="#0A0B0D" fill-rule="evenodd" d="M7 55h49v2H9v126h47v2H7V55Zm177 0h49v130h-49v-2h47V57h-47v-2Z" clip-rule="evenodd"/><path fill="#0A0B0D" fill-rule="evenodd" d="M56 89c-17.148 0-31 13.852-31 31s13.852 31 31 31v2c-18.252 0-33-14.748-33-33 0-18.252 14.748-33 33-33v2Zm159 31c0-17.148-13.852-31-31-31v-2c18.252 0 33 14.748 33 33 0 18.252-14.748 33-33 33v-2c17.148 0 31-13.852 31-31Z" clip-rule="evenodd"/><path fill="#0A0B0D" d="M64 48h-8v144h8V48Zm120 0h-8v144h8V48Z"/></svg>