<svg xmlns="http://www.w3.org/2000/svg" fill="none" viewBox="0 0 240 240"><path fill="#CED2DB" fill-rule="evenodd" d="M192 200h48a40 40 0 0 1-40 40h-47v-.01A40 40 0 0 0 192 200ZM153 0h47a40 40 0 0 1 40 40h-48A40 40 0 0 0 153 .01V0Z" clip-rule="evenodd"/><path fill="#73A2FF" fill-rule="evenodd" d="M240 200V40H0v160h26a46 46 0 0 1 92 0h122Z" clip-rule="evenodd"/><path fill="#00D17F" d="M72 240a40 40 0 1 1 0-80 40 40 0 0 1 0 80Z"/><path fill="#0052FF" d="M240 40v160h-48V40h48ZM0 56h192v32H0V56Z"/><path fill="#0A0B0D" d="M240 88h-48V56h48v32Z"/><path fill="#0A0B0D" fill-rule="evenodd" d="M92.7 187.7 66 214.42l-15.21-15.2 1.41-1.42L66 211.6l25.29-25.3 1.41 1.42Z" clip-rule="evenodd"/><path fill="#0A0B0D" d="M32 120h104v-8H32v8Z"/><path fill="#0052FF" d="M32 136h48v-8H32v8Z"/></svg>