<svg xmlns="http://www.w3.org/2000/svg" fill="none" viewBox="0 0 240 240"><path fill="#FFD200" d="M152 208c48.601 0 88-39.399 88-88s-39.399-88-88-88-88 39.399-88 88 39.399 88 88 88"/><path fill="#CED2DB" d="M152 72v96H0V72z"/><path fill="#0052FF" fill-rule="evenodd" d="M78.231 168C69.231 154.196 64 137.709 64 120s5.23-34.195 14.231-48H152v96z" clip-rule="evenodd"/><path fill="#3CC28A" d="M152 168c26.51 0 48-21.49 48-48s-21.49-48-48-48-48 21.49-48 48 21.49 48 48 48"/><path fill="#0052FF" fill-rule="evenodd" d="M200 120h-48V72c26.51 0 48 21.49 48 48" clip-rule="evenodd"/><path fill="#FFFFFF" d="M152 152c17.673 0 32-14.327 32-32s-14.327-32-32-32-32 14.327-32 32 14.327 32 32 32"/><path fill="#0A0B0D" fill-rule="evenodd" d="M151.999 52.556c-37.248 0-67.444 30.195-67.444 67.444h-2c0-38.353 31.091-69.444 69.444-69.444s69.445 31.09 69.445 69.444h-2c0-37.249-30.196-67.444-67.445-67.444" clip-rule="evenodd"/><path fill="#0A0B0D" fill-rule="evenodd" d="M152.001 187.444c37.248 0 67.444-30.195 67.444-67.444h2c0 38.353-31.091 69.444-69.444 69.444S82.557 158.353 82.557 120h2c0 37.249 30.195 67.444 67.444 67.444" clip-rule="evenodd"/><path fill="#CED2DB" fill-rule="evenodd" d="M184 120c0-17.673-14.327-32-32-32v32z" clip-rule="evenodd"/><path fill="#0A0B0D" fill-rule="evenodd" d="M153 119V96h-2v25h17v-2z" clip-rule="evenodd"/></svg>