<svg xmlns="http://www.w3.org/2000/svg" fill="none" viewBox="0 0 240 240"><path fill="#CED2DB" d="M240 144H0v64h240v-64Z"/><path fill="#00D17F" d="M80 72H32v72h48V72Z"/><path fill="#0052FF" d="M128 120h-16v48h16v-48Z"/><path fill="#00D17F" d="M192 48h-16v48h16V48Z"/><path fill="#0052FF" d="M192 112h-16v48h16v-48ZM80 144H32v40h48v-40Z"/><path fill="#FF3344" d="M144 96H96v72h48V96Z"/><path fill="#0052FF" d="M144 144H96v40h48v-40Z"/><path fill="#00D17F" d="M208 32h-48v128h48V32Z"/><path fill="#0052FF" d="M208 144h-48v40h48v-40Z"/><path fill="#101114" fill-rule="evenodd" d="M64 34H32v-2h32v2Zm16 8H32v-2h48v2Zm-16 8H32v-2h32v2Zm129.11 23.8-72.44 55.83-65.06-24.52-38.58 24.24-1.06-1.7 39.42-24.76 64.94 24.48L191.9 72.2l1.22 1.58Z" clip-rule="evenodd"/><path fill="#101114" fill-rule="evenodd" d="m191.6 73.69-14.9-1.7.22-1.98 16.9 1.92-1.93 16.89-1.99-.23 1.7-14.9Z" clip-rule="evenodd"/></svg>