<svg xmlns="http://www.w3.org/2000/svg" fill="none" viewBox="0 0 240 240"><path fill="#5DE2F8" d="M48 216h144V24H48v192Z"/><path fill="#0052FF" d="M48 24h144V0H48v24Zm0 216h144v-24H48v24Z"/><path fill="#CED2DB" d="M216 0h-24v24h48v-8h-24V0ZM0 0v16h24v8h24V0H0Zm0 216v16h24v8h24v-24H0Z"/><path fill="#0A0B0D" d="M120 14a2 2 0 1 0 0-4 2 2 0 0 0 0 4Zm8 212h-16v4h16v-4Z"/><path fill="#CED2DB" d="M240 224h-24v-8h-24v24h48v-16Z"/><path fill="#FFD200" d="M158.54 120a38.55 38.55 0 1 1-77.09 0 38.55 38.55 0 0 1 77.1 0Z"/><path fill="#FFFFFF" fill-rule="evenodd" d="M120 154.54a34.55 34.55 0 1 0 0-69.09 34.55 34.55 0 0 0 0 69.1Zm0 4a38.55 38.55 0 1 0 0-77.09 38.55 38.55 0 0 0 0 77.1Z" clip-rule="evenodd"/><path fill="#0A0B0D" d="M116.9 134.69v6.4h6.3v-6.4h-6.3Zm-9.26-21.93h4.83c0-1.35.15-2.6.45-3.75.3-1.16.78-2.16 1.42-3a7.57 7.57 0 0 1 2.5-2.02 7.7 7.7 0 0 1 3.53-.75c2.04 0 3.65.6 4.83 1.79 1.21 1.19 1.9 2.84 2.05 4.96a8.29 8.29 0 0 1-.52 3.63c-.41 1-.98 1.93-1.7 2.77-.68.81-1.44 1.6-2.28 2.37-.8.73-1.57 1.54-2.33 2.42a11.22 11.22 0 0 0-2.72 7.16v2.71h4.83v-2.25a7.94 7.94 0 0 1 1.53-4.85 15.6 15.6 0 0 1 1.6-1.9c.6-.62 1.2-1.21 1.81-1.79.6-.62 1.2-1.25 1.76-1.9a12.4 12.4 0 0 0 1.6-2.14c.45-.77.81-1.61 1.07-2.54.3-.96.46-2.04.46-3.23 0-1.85-.3-3.48-.91-4.9a9.5 9.5 0 0 0-2.44-3.58c-1.06-1-2.33-1.75-3.81-2.25a13.7 13.7 0 0 0-4.83-.81c-1.97 0-3.75.35-5.34 1.04-1.6.69-2.94 1.67-4.04 2.94a13.18 13.18 0 0 0-2.56 4.39 16.1 16.1 0 0 0-.8 5.48Z"/></svg>