<svg xmlns="http://www.w3.org/2000/svg" fill="none" viewBox="0 0 240 240"><g clip-path="url(#a)"><path fill="#CED2DB" d="M22.21 120h73.694a23.852 23.852 0 0 1 16.9 7.029 24.053 24.053 0 0 1 7 16.971v16H22.211v-40Zm197.18 0h-75.685a23.852 23.852 0 0 1-16.9-7.029 24.053 24.053 0 0 1-7-16.971V80h99.585v40Z"/><path fill="#101114" d="M119.803 16a103.316 103.316 0 0 0-45.327 10.526 103.753 103.753 0 0 0-36.178 29.371 104.294 104.294 0 0 0-19.743 42.301 104.524 104.524 0 0 0 .667 46.712h2.051a102.513 102.513 0 0 1-.848-45.93 102.291 102.291 0 0 1 19.29-41.655 101.76 101.76 0 0 1 35.523-28.947A101.329 101.329 0 0 1 119.803 18v-2Zm98.521 79.09a102.484 102.484 0 0 1 .862 45.933 102.255 102.255 0 0 1-19.286 41.66 101.73 101.73 0 0 1-35.526 28.947A101.308 101.308 0 0 1 119.805 222v2a103.289 103.289 0 0 0 45.337-10.511 103.721 103.721 0 0 0 36.186-29.371 104.247 104.247 0 0 0 19.742-42.31 104.5 104.5 0 0 0-.684-46.718h-2.062Z"/><path stroke="#101114" stroke-dasharray="4 4" stroke-width="2" d="M119.799 223c56.649 0 102.573-46.115 102.573-103S176.448 17 119.799 17C63.149 17 17.227 63.115 17.227 120S63.15 223 119.799 223Z"/><path fill="#CED2DB" d="M49.794 55a94.936 94.936 0 0 1 41.47-26.427 94.606 94.606 0 0 1 49.073-2.093l5.358-23.59a118.293 118.293 0 0 0-62.254 2.807A118.719 118.719 0 0 0 31.17 39.77L49.795 55Z"/><path fill="#101114" d="M49.795 105a71.793 71.793 0 0 0 4.49 44.332 71.417 71.417 0 0 0 29.757 33.058A71.843 71.843 0 0 0 99.31 189l.995-1.77c-16.807-4.893-31.162-15.965-40.205-31.009a70.139 70.139 0 0 1-8.591-50.171L49.795 105Z"/><path fill="#101114" stroke="#101114" d="M165.903 173.399a70.23 70.23 0 0 0 14.853-17.965 65.6 65.6 0 0 0 9.269-29.457l.935.034c-1.519 18.519-10.183 35.712-24.148 47.908l-.909-.52Z"/><path fill="#5DE2F8" d="M119.8 240c-3.939 0-7.79-1.173-11.065-3.371a19.973 19.973 0 0 1-7.336-8.975 20.074 20.074 0 0 1-1.133-11.556 20.025 20.025 0 0 1 5.45-10.24 19.854 19.854 0 0 1 21.706-4.336 19.936 19.936 0 0 1 8.938 7.367A20.054 20.054 0 0 1 139.717 220a20.044 20.044 0 0 1-5.834 14.142A19.873 19.873 0 0 1 119.8 240Zm39.833-224c0 3.165-.935 6.258-2.685 8.89a15.952 15.952 0 0 1-7.151 5.892 15.873 15.873 0 0 1-9.206.91 15.918 15.918 0 0 1-8.159-4.378 16.024 16.024 0 0 1-4.36-8.193 16.06 16.06 0 0 1 .907-9.244 15.98 15.98 0 0 1 5.868-7.18 15.886 15.886 0 0 1 20.119 1.99c2.988 3 4.667 7.07 4.667 11.313Z"/><path fill="#0052FF" d="M143.699 0v32h-.149a15.832 15.832 0 0 1-11.191-4.719A15.96 15.96 0 0 1 127.766 16a15.961 15.961 0 0 1 4.593-11.281c2.96-3 6.985-4.698 11.191-4.719h.149Z"/><path fill="#FFD200" d="M231.334 212a19.873 19.873 0 0 0-14.083 5.858A20.04 20.04 0 0 0 211.417 232a20.04 20.04 0 0 0-5.834-14.142A19.873 19.873 0 0 0 191.5 212a19.873 19.873 0 0 0 14.083-5.858A20.04 20.04 0 0 0 211.417 192a20.04 20.04 0 0 0 5.834 14.142A19.873 19.873 0 0 0 231.334 212Z"/><path fill="#00D17F" d="M183.539 64a15.9 15.9 0 0 0-11.267 4.686c-2.988 3-4.667 7.07-4.667 11.314 0-4.243-1.678-8.313-4.666-11.314A15.9 15.9 0 0 0 151.672 64a15.9 15.9 0 0 0 11.267-4.686c2.988-3 4.666-7.07 4.666-11.314 0 4.243 1.679 8.313 4.667 11.314A15.9 15.9 0 0 0 183.539 64Z"/><path fill="#FFD200" d="M40.129 64a15.88 15.88 0 0 1-8.852-2.697 15.985 15.985 0 0 1-5.869-7.18 16.061 16.061 0 0 1-.907-9.244 16.02 16.02 0 0 1 4.361-8.193 15.914 15.914 0 0 1 8.158-4.379c3.091-.617 6.295-.3 9.206.91a15.948 15.948 0 0 1 7.151 5.894A16.047 16.047 0 0 1 56.062 48c0 4.243-1.678 8.313-4.666 11.314A15.9 15.9 0 0 1 40.129 64Z"/><path fill="#00D17F" d="M20.214 160c11 0 19.917-8.954 19.917-20s-8.917-20-19.917-20c-11 0-19.917 8.954-19.917 20s8.917 20 19.917 20Z"/><path fill="#0052FF" d="M219.386 120c11 0 19.917-8.954 19.917-20s-8.917-20-19.917-20c-11 0-19.917 8.954-19.917 20s8.917 20 19.917 20Z"/><path fill="#FFD200" d="M119.803 160c22 0 39.834-17.909 39.834-40s-17.834-40-39.834-40c-22 0-39.834 17.909-39.834 40s17.834 40 39.834 40Z"/><path fill="#0052FF" d="M79.969 120h15.933a23.856 23.856 0 0 1 16.901 7.029 24.053 24.053 0 0 1 7 16.971v16a39.748 39.748 0 0 1-28.167-11.716A40.082 40.082 0 0 1 79.969 120Zm79.67 0h-15.934a23.852 23.852 0 0 1-16.9-7.029 24.053 24.053 0 0 1-7-16.971V80a39.753 39.753 0 0 1 28.167 11.716A40.085 40.085 0 0 1 159.639 120Z"/><path fill="#FEFFFF" d="M143.699 120a23.852 23.852 0 0 0-16.9 7.029 24.053 24.053 0 0 0-7 16.971c0-6.365-2.518-12.47-7-16.971a23.856 23.856 0 0 0-16.9-7.029 23.856 23.856 0 0 0 16.9-7.029 24.053 24.053 0 0 0 7-16.971c0 6.365 2.518 12.47 7 16.971a23.852 23.852 0 0 0 16.9 7.029Z"/><path stroke="#101114" stroke-width="2" d="M119.801 153c18.149 0 32.863-14.775 32.863-33s-14.714-33-32.863-33c-18.15 0-32.864 14.775-32.864 33s14.714 33 32.864 33Z"/><path fill="#FEFFFF" d="M219.39 104c2.2 0 3.983-1.791 3.983-4 0-2.21-1.783-4-3.983-4s-3.984 1.79-3.984 4c0 2.209 1.784 4 3.984 4ZM40.132 52c2.2 0 3.983-1.79 3.983-4s-1.783-4-3.983-4-3.984 1.79-3.984 4 1.784 4 3.984 4Z"/><path stroke="#101114" stroke-width="2" d="M20.216 130v20m-9.958-10h19.917"/><path fill="#FEFFFF" d="M123.787 216h-7.967v8h7.967v-8Z"/><path fill="#101114" d="m150.9 55.07-.866 1.8a63.564 63.564 0 0 0-3.565-1.61l.767-1.85c1.234.52 2.459 1.07 3.664 1.66ZM143.476 52l-.658 1.89a67.218 67.218 0 0 0-3.724-1.19l.547-1.92c1.295.34 2.57.75 3.835 1.22Zm-7.735-2.26-.438 1.95a70.39 70.39 0 0 0-3.834-.76l.328-2c1.325.25 2.639.51 3.944.81Zm-7.925-1.35-.219 2a71.278 71.278 0 0 0-3.894-.32l.11-2c1.344.06 2.659.18 4.003.32Zm-8.028-.39v2h-1.991c-.658 0-1.305 0-1.992.08l-.11-2 1.992-.08h2.101Zm-8.031.4.219 2c-1.305.14-2.589.33-3.874.54l-.329-2c1.315-.2 2.639-.39 3.984-.54Zm-7.926 1.34.438 1.95c-1.274.29-2.539.62-3.784 1l-.547-1.92c1.284-.39 2.579-.77 3.893-1.03ZM96.1 52l.657 1.89c-1.234.43-2.45.9-3.654 1.4l-.767-1.85A53.39 53.39 0 0 1 96.1 52Zm-7.472 3.07.867 1.8c-1.185.57-2.34 1.17-3.476 1.8l-.996-1.75c1.245-.65 2.43-1.27 3.605-1.85ZM81.664 59l.995 1.67c-1.105.7-2.19 1.43-3.246 2.18l-1.155-1.63c1.125-.77 2.24-1.52 3.406-2.22Zm-6.589 4.66 1.245 1.56c-.996.82-1.992 1.66-2.988 2.53l-1.324-1.49c.996-.89 2.021-1.76 3.067-2.6ZM69.079 69l1.414 1.41c-.926.93-1.822 1.88-2.689 2.86L66.32 72c.897-1 1.813-2 2.759-3Zm-5.347 6.06 1.564 1.25a61.15 61.15 0 0 0-2.36 3.13l-1.623-1.15c.766-1.1 1.573-2.18 2.42-3.23Zm-4.655 6.58 1.673 1.07a66.726 66.726 0 0 0-1.992 3.38l-1.742-1a95.507 95.507 0 0 1 2.061-3.45Zm-3.91 7.07 1.802.87a64.085 64.085 0 0 0-1.603 3.58l-1.843-.77a81.13 81.13 0 0 1 1.644-3.68Zm-3.075 7.45 1.882.67a65.394 65.394 0 0 0-1.185 3.74l-1.922-.57c.379-1.28.787-2.57 1.225-3.84Zm44.018 91.77.657-1.89c1.225.43 2.47.83 3.724 1.19l-.548 1.92a68.726 68.726 0 0 1-3.834-1.22Zm7.726 2.23.438-1.95c1.265.29 2.549.55 3.834.77l-.328 2c-1.325-.26-2.639-.52-3.944-.82Zm7.93 1.35.219-2c1.284.14 2.589.25 3.893.32l-.109 2a66.102 66.102 0 0 1-4.003-.32Zm8.023.49v-2h1.992c.657 0 1.304 0 1.991-.08l.11 2c-.667 0-1.344.06-1.992.08-.647.02-1.394 0-2.101 0Zm8.039-.5-.219-2c1.305-.14 2.59-.32 3.874-.54l.329 2c-1.354.2-2.639.39-3.984.54Zm7.923-1.34a82.13 82.13 0 0 0 3.893-1l-.547-1.92c-1.245.36-2.51.69-3.785 1l.439 1.92Zm7.734-2.23-.657-1.89c1.235-.43 2.45-.9 3.655-1.4l.767 1.85c-1.235.513-2.49.993-3.765 1.44Zm7.428-3.09-.866-1.81a71.24 71.24 0 0 0 3.475-1.8l.996 1.75c-1.155.65-2.39 1.27-3.605 1.86Zm7.035-3.92-1.065-1.69c1.105-.7 2.191-1.43 3.246-2.18l1.155 1.63c-1.085.78-2.2 1.53-3.336 2.24Z"/></g><defs><clipPath id="a"><path fill="#FFFFFF" d="M0 0h240v240H0z"/></clipPath></defs></svg>