<svg xmlns="http://www.w3.org/2000/svg" fill="none" viewBox="0 0 240 240"><g clip-path="url(#a)"><path fill="#CED2DB" d="M22.21 120h73.7c6.33 0 12.41 2.53 16.9 7.03 4.48 4.5 7 10.6 7 16.97v16H22.2v-40Zm197.18 0h-75.68a23.85 23.85 0 0 1-16.9-7.03 24 24 0 0 1-7-16.97V80h99.58v40Z"/><path fill="#101114" d="M119.8 16c-15.7.02-31.2 3.61-45.32 10.53A103.75 103.75 0 0 0 38.3 55.9a104.52 104.52 0 0 0-19.08 89.01h2.05a102.51 102.51 0 0 1 18.44-87.59 101.76 101.76 0 0 1 35.53-28.94A101.33 101.33 0 0 1 119.8 18v-2Zm98.52 79.09a102.48 102.48 0 0 1-18.42 87.6 101.73 101.73 0 0 1-35.53 28.94A101.3 101.3 0 0 1 119.81 222v2c15.7 0 31.2-3.6 45.33-10.51a103.72 103.72 0 0 0 36.19-29.37 104.5 104.5 0 0 0 19.06-89.03h-2.07Z"/><path stroke="#101114" stroke-dasharray="4 4" stroke-width="2" d="M119.8 223c56.65 0 102.57-46.12 102.57-103 0-56.89-45.92-103-102.57-103C63.15 17 17.23 63.11 17.23 120c0 56.88 45.92 103 102.57 103Z"/><path fill="#CED2DB" d="M49.8 55a94.94 94.94 0 0 1 41.46-26.43 94.6 94.6 0 0 1 49.08-2.09l5.35-23.59a118.3 118.3 0 0 0-62.25 2.8 118.72 118.72 0 0 0-52.27 34.08L49.8 55Z"/><path fill="#101114" d="M49.8 105a71.8 71.8 0 0 0 4.49 44.33 71.42 71.42 0 0 0 29.75 33.06c4.82 2.79 9.94 5 15.27 6.61l1-1.77a69.64 69.64 0 0 1-40.21-31 70.14 70.14 0 0 1-8.6-50.18L49.8 105Z"/><path fill="#101114" stroke="#101114" d="M165.9 173.4a70.23 70.23 0 0 0 14.86-17.97 65.6 65.6 0 0 0 9.27-29.45l.93.03a71.34 71.34 0 0 1-24.15 47.9l-.9-.51Z"/><path fill="#5DE2F8" d="M119.8 240a19.85 19.85 0 0 1-18.4-12.35 20.07 20.07 0 0 1 4.32-21.8 19.9 19.9 0 0 1 21.7-4.33 19.94 19.94 0 0 1 12.3 18.48c0 5.3-2.1 10.4-5.84 14.14A19.87 19.87 0 0 1 119.8 240Zm39.83-224a16.05 16.05 0 0 1-9.83 14.78 15.87 15.87 0 0 1-17.37-3.47A16.02 16.02 0 0 1 143.7 0a15.9 15.9 0 0 1 11.27 4.69c2.98 3 4.66 7.07 4.66 11.31Z"/><path fill="#0052FF" d="M143.7 0v32h-.15a15.83 15.83 0 0 1-11.2-4.72c-2.95-3-4.6-7.06-4.58-11.28a15.96 15.96 0 0 1 4.59-11.28c2.96-3 6.98-4.7 11.19-4.72h.15Z"/><path fill="#FFD200" d="M231.33 212c-5.28 0-10.34 2.1-14.08 5.86a20.04 20.04 0 0 0-5.83 14.14c0-5.3-2.1-10.4-5.84-14.14A19.87 19.87 0 0 0 191.5 212c5.28 0 10.35-2.1 14.08-5.86a20.04 20.04 0 0 0 5.84-14.14c0 5.3 2.1 10.4 5.83 14.14a19.87 19.87 0 0 0 14.08 5.86Z"/><path fill="#00D17F" d="M183.54 64a15.9 15.9 0 0 0-11.27 4.69c-2.99 3-4.67 7.07-4.67 11.31 0-4.24-1.67-8.31-4.66-11.31A15.9 15.9 0 0 0 151.67 64a15.9 15.9 0 0 0 11.27-4.69c2.99-3 4.66-7.07 4.66-11.31 0 4.24 1.68 8.31 4.67 11.31A15.9 15.9 0 0 0 183.54 64Z"/><path fill="#FFD200" d="M40.13 64a15.89 15.89 0 0 1-14.72-9.88 16.06 16.06 0 0 1 3.45-17.43A15.91 15.91 0 0 1 56.06 48c0 4.24-1.68 8.31-4.66 11.31A15.9 15.9 0 0 1 40.13 64Z"/><path fill="#00D17F" d="M20.21 160c11 0 19.92-8.95 19.92-20s-8.92-20-19.92-20C9.21 120 .3 128.95.3 140s8.91 20 19.91 20Z"/><path fill="#0052FF" d="M219.39 120c11 0 19.91-8.95 19.91-20s-8.91-20-19.91-20-19.92 8.95-19.92 20 8.92 20 19.92 20Z"/><path fill="#FFD200" d="M119.8 160c22 0 39.84-17.9 39.84-40S141.8 80 119.8 80c-22 0-39.83 17.9-39.83 40s17.83 40 39.83 40Z"/><path fill="#0052FF" d="M79.97 120H95.9c6.34 0 12.42 2.53 16.9 7.03 4.48 4.5 7 10.6 7 16.97v16a39.75 39.75 0 0 1-28.16-11.72A40.08 40.08 0 0 1 79.97 120Zm79.67 0H143.7a23.85 23.85 0 0 1-16.9-7.03 24 24 0 0 1-7-16.97V80a39.7 39.7 0 0 1 28.16 11.72A40.09 40.09 0 0 1 159.64 120Z"/><path fill="#FEFFFF" d="M143.7 120a23.85 23.85 0 0 0-16.9 7.03c-4.48 4.5-7 10.6-7 16.97 0-6.37-2.52-12.47-7-16.97A23.86 23.86 0 0 0 95.9 120c6.34 0 12.42-2.53 16.9-7.03 4.48-4.5 7-10.6 7-16.97 0 6.36 2.52 12.47 7 16.97a23.85 23.85 0 0 0 16.9 7.03Z"/><path stroke="#101114" stroke-width="2" d="M119.8 153a32.93 32.93 0 0 0 32.86-33c0-18.22-14.71-33-32.86-33a32.93 32.93 0 0 0-32.86 33c0 18.22 14.71 33 32.86 33Z"/><path fill="#FEFFFF" d="M219.39 104a4 4 0 1 0-.02-7.98 4 4 0 0 0 .02 7.98ZM40.13 52a4 4 0 1 0-.01-7.98 4 4 0 0 0 .01 7.98Z"/><path stroke="#101114" stroke-width="2" d="M20.22 130v20m-9.96-10h19.91"/><path fill="#FEFFFF" d="M123.79 216h-7.97v8h7.97v-8Z"/><path fill="#101114" d="m150.9 55.07-.87 1.8a63.56 63.56 0 0 0-3.56-1.61l.77-1.85c1.23.52 2.45 1.07 3.66 1.66ZM143.48 52l-.66 1.89a67.22 67.22 0 0 0-3.73-1.19l.55-1.92c1.3.34 2.57.75 3.84 1.22Zm-7.74-2.26-.44 1.95a70.4 70.4 0 0 0-3.83-.76l.33-2c1.32.25 2.64.51 3.94.81Zm-7.92-1.35-.22 2a71.28 71.28 0 0 0-3.9-.32l.11-2c1.35.06 2.66.18 4 .32Zm-8.03-.39v2h-2c-.65 0-1.3 0-1.98.08l-.12-2 2-.08h2.1Zm-8.03.4.22 2c-1.3.14-2.6.33-3.88.54l-.33-2c1.32-.2 2.64-.39 3.99-.54Zm-7.93 1.34.44 1.95a54.1 54.1 0 0 0-3.78 1l-.55-1.92c1.28-.39 2.58-.77 3.9-1.03ZM96.1 52l.66 1.89c-1.24.43-2.45.9-3.66 1.4l-.76-1.85c1.23-.53 2.49-1 3.76-1.44Zm-7.47 3.07.86 1.8a67.08 67.08 0 0 0-3.47 1.8l-1-1.75c1.25-.65 2.43-1.27 3.6-1.85ZM81.66 59l1 1.67c-1.1.7-2.2 1.43-3.25 2.18l-1.15-1.63a68.56 68.56 0 0 1 3.4-2.22Zm-6.58 4.66 1.24 1.56c-1 .82-2 1.66-2.99 2.53l-1.32-1.49c1-.89 2.02-1.76 3.06-2.6Zm-6 5.34 1.41 1.41c-.92.93-1.82 1.88-2.69 2.86L66.32 72c.9-1 1.81-2 2.76-3Zm-5.35 6.06 1.57 1.25c-.82 1-1.6 2.07-2.36 3.13l-1.63-1.15c.77-1.1 1.58-2.18 2.42-3.23Zm-4.65 6.58 1.67 1.07c-.7 1.1-1.35 2.23-2 3.38l-1.73-1a95.5 95.5 0 0 1 2.06-3.45Zm-3.91 7.07 1.8.87a64.09 64.09 0 0 0-1.6 3.58l-1.85-.77a81.13 81.13 0 0 1 1.65-3.68Zm-3.07 7.45 1.87.67a65.4 65.4 0 0 0-1.18 3.74l-1.92-.57c.38-1.28.78-2.57 1.22-3.84Zm44 91.77.67-1.89c1.22.43 2.47.83 3.72 1.19l-.55 1.92a65.8 65.8 0 0 1-3.83-1.22Zm7.74 2.23.43-1.95c1.27.29 2.55.55 3.84.77l-.33 2c-1.33-.26-2.64-.52-3.94-.82Zm7.93 1.35.22-2c1.28.14 2.58.25 3.89.32l-.11 2a66.1 66.1 0 0 1-4-.32Zm8.02.49v-2h2c.65 0 1.3 0 1.98-.08l.11 2c-.66 0-1.34.06-1.99.08-.65.02-1.4 0-2.1 0Zm8.04-.5-.22-2a62.1 62.1 0 0 0 3.87-.54l.33 2c-1.35.2-2.64.39-3.98.54Zm7.92-1.34c1.31-.3 2.61-.64 3.9-1l-.55-1.92c-1.25.36-2.51.69-3.79 1l.44 1.92Zm7.74-2.23-.66-1.89c1.23-.43 2.45-.9 3.65-1.4l.77 1.85c-1.24.51-2.49 1-3.76 1.44Zm7.42-3.09-.86-1.81a71.24 71.24 0 0 0 3.47-1.8l1 1.75a67.87 67.87 0 0 1-3.6 1.86Zm7.04-3.92-1.07-1.69c1.1-.7 2.2-1.43 3.25-2.18l1.15 1.63a62.2 62.2 0 0 1-3.33 2.24Z"/></g><defs><clipPath id="a"><path fill="#FFFFFF" d="M0 0h240v240H0z"/></clipPath></defs></svg>