<svg xmlns="http://www.w3.org/2000/svg" fill="none" viewBox="0 0 240 241"><path fill="#101114" fill-rule="evenodd" d="M169 159v15.44a24.994 24.994 0 0 1-12.5 21.646l-36 20.78-1-1.732 36-20.78A22.99 22.99 0 0 0 167 174.44V159h2Z" clip-rule="evenodd"/><path fill="#101114" fill-rule="evenodd" d="m156.5 196.086-36 20.78-1-1.732 36-20.78 1 1.732Z" clip-rule="evenodd"/><path fill="#101114" fill-rule="evenodd" d="M73 168v6.44c0 8.213 4.38 15.803 11.5 19.914l36 20.78-1 1.732-36-20.78A24.993 24.993 0 0 1 71 174.44V168h2Z" clip-rule="evenodd"/><path fill="#00D17F" fill-rule="evenodd" d="M73 128v40h-2v-40h2Z" clip-rule="evenodd"/><path fill="#101114" fill-rule="evenodd" d="M119 216v-56h2v56h-2Z" clip-rule="evenodd"/><path fill="#FFD200" fill-rule="evenodd" d="M119 160V85.01h2V160h-2Z" clip-rule="evenodd"/><path fill="#101114" fill-rule="evenodd" d="M118.086 214.5H144.5c4.972 0 9 4.028 9 9s-4.028 9-9 9a20.308 20.308 0 0 1-14.367-5.953L118.086 214.5Zm4.828 2 8.633 8.633A18.311 18.311 0 0 0 144.5 230.5c3.868 0 7-3.132 7-7s-3.132-7-7-7h-21.586Z" clip-rule="evenodd"/><path fill="#101114" fill-rule="evenodd" d="M86.5 223.5c0-4.972 4.028-9 9-9h26.414l-12.047 12.047A20.308 20.308 0 0 1 95.5 232.5c-4.972 0-9-4.028-9-9Zm9-7c-3.868 0-7 3.132-7 7s3.132 7 7 7a18.31 18.31 0 0 0 12.953-5.367l8.633-8.633H95.5Z" clip-rule="evenodd"/><path fill="#101114" d="m119.038 215.328-6.218 24.183 1.937.498 6.218-24.183-1.937-.498Z"/><path fill="#101114" d="m120.976 215.332-1.937.498 6.213 24.186 1.937-.498-6.213-24.186Z"/><path fill="#5DE2F8" d="M168 168c22.091 0 40-17.909 40-40s-17.909-40-40-40-40 17.909-40 40 17.909 40 40 40Z"/><path fill="#CED2DB" d="M139.723 156.28c-15.62-15.62-15.62-40.95 0-56.57 15.62-15.62 40.95-15.62 56.57 0"/><path fill="#FFFFFF" d="M168 144c8.837 0 16-7.163 16-16s-7.163-16-16-16-16 7.163-16 16 7.163 16 16 16Z"/><path fill="#00D17F" d="M72 144c22.091 0 40-17.909 40-40S94.091 64 72 64s-40 17.909-40 40 17.909 40 40 40Z"/><path fill="#FFFFFF" d="M72 144c22.091 0 40-17.909 40-40S94.091 64 72 64s-40 17.909-40 40 17.909 40 40 40Z"/><path fill="#00D17F" d="M72.002 144c-2.5 0-4.95-.24-7.33-.68 3.73-23.97 22.67-42.91 46.65-46.65.44 2.38.68 4.82.68 7.33 0 22.09-17.91 40-40 40ZM72 64c2.5 0 4.95.24 7.33.68-3.73 23.97-22.67 42.91-46.65 46.65-.44-2.38-.68-4.83-.68-7.33 0-22.09 17.91-40 40-40Z"/><path fill="#00D17F" d="M72 144c2.5 0 4.95-.24 7.33-.68-3.73-23.97-22.67-42.91-46.65-46.65-.44 2.38-.68 4.83-.68 7.33 0 22.09 17.91 40 40 40Z"/><path fill="#FFD200" d="M120 112c30.928 0 56-25.072 56-56S150.928 0 120 0 64 25.072 64 56s25.072 56 56 56Z"/><path fill="#0052FF" d="M72.002 64c-2.5 0-4.95.24-7.33.68 3.73 23.97 22.67 42.91 46.65 46.65.44-2.38.68-4.82.68-7.33 0-22.09-17.91-40-40-40Zm59.92 46.72c14-3.04 26.04-11.31 33.99-22.66-15.01.77-27.83 9.81-33.99 22.66Z"/><path fill="#0A0B0D" fill-rule="evenodd" d="M120 17c-21.54 0-39 17.46-39 39s17.46 39 39 39c21.539 0 39-17.46 39-39s-17.461-39-39-39ZM79 56c0-22.644 18.356-41 41-41s41 18.356 41 41-18.356 41-41 41-41-18.356-41-41Z" clip-rule="evenodd"/><path fill="#FFD200" d="m116 116 4-8 4 8h-8Z"/><path fill="#00D17F" d="m68 148 4-8 4 8h-8Z"/><path fill="#5DE2F8" d="m164 172 4-8 4 8h-8Z"/></svg>