<svg xmlns="http://www.w3.org/2000/svg" fill="none" viewBox="0 0 240 240"><path fill="#0A0B0D" d="M207 120h2a88.49 88.49 0 0 0-8.13-37.16c-.53.43-1.09.82-1.67 1.17A86.5 86.5 0 0 1 207 120Zm-23.34-59.24c.54-.4 1.11-.77 1.71-1.1A88.78 88.78 0 0 0 120 31v2a86.78 86.78 0 0 1 63.66 27.76Z"/><path fill="#CED2DB" d="M138.88 172.73a40 40 0 0 1 8.93 64.02C200.61 224.17 240 176.6 240 120h-64a56.1 56.1 0 0 1-37.13 52.73ZM92.19 3.25C39.39 15.83 0 63.4 0 120h64a56.1 56.1 0 0 1 37.12-52.73A40 40 0 0 1 92.2 3.25Z"/><path fill="#0A0B0D" d="m118.02 33.02-.05-2c.67-.02 1.35-.02 2.02-.02v2l-1.97.02ZM33 120h-2l.02-2.02 2 .05L33 120Z"/><path fill="#101114" d="M15 120c0-44.18 27.43-82.08 66.15-97.55-.2.78-.36 1.57-.5 2.37C43.31 40.3 17 77.14 17 120a102.3 102.3 0 0 0 14.6 52.8c-.55.41-1.06.86-1.54 1.34A104.37 104.37 0 0 1 15 120Zm32.46 75.85A104.64 104.64 0 0 0 120 225v-2c-27.45 0-52.42-10.8-70.9-28.36-.52.44-1.06.85-1.64 1.2ZM120 15v2c56.79 0 103 46.21 103 103h2c0-57.9-47.1-105-105-105Z"/><path fill="#0052FF" d="M120 152a32 32 0 1 0 0-64 32 32 0 0 0 0 64Z"/><path fill="#0A0B0D" d="M87.15 54.82A73.09 73.09 0 0 0 47 120h2a71.08 71.08 0 0 1 39.34-63.55l-1.2-1.63Z"/><path fill="#101114" d="m151.66 183.54 1.2 1.64A73.08 73.08 0 0 0 193 120h-2a71.08 71.08 0 0 1-39.34 63.54ZM80.81 40.06c.14.68.3 1.35.47 2.01l-1.86.95-.93-1.77 2.32-1.19Zm-49.6 73.77 2 .14c.1-1.33.21-2.68.37-4.01l-1.99-.23a81.1 81.1 0 0 0-.38 4.1Zm.94-8.17 1.97.32c.22-1.31.46-2.64.74-3.95l-1.96-.41a89.86 89.86 0 0 0-.75 4.04Zm1.69-8.04 1.94.5c.33-1.29.7-2.6 1.1-3.87l-1.92-.59c-.4 1.31-.78 2.64-1.12 3.96Zm2.43-7.86 1.88.68c.45-1.25.94-2.51 1.45-3.74l-1.85-.77a94.35 94.35 0 0 0-1.48 3.83Zm3.14-7.58 1.81.85a85.9 85.9 0 0 1 1.8-3.59l-1.78-.93a83.58 83.58 0 0 0-1.83 3.67Zm3.84-7.26 1.72 1.01a92.19 92.19 0 0 1 2.12-3.41l-1.67-1.09a84.3 84.3 0 0 0-2.17 3.49Zm4.49-6.88 1.62 1.17A92.91 92.91 0 0 1 51.78 66l-1.56-1.24a85.47 85.47 0 0 0-2.48 3.28Zm5.1-6.44 1.51 1.31a85.2 85.2 0 0 1 2.71-2.97l-1.45-1.38c-.94.99-1.87 2.01-2.77 3.04Zm5.68-5.96 1.38 1.45c.97-.92 1.97-1.83 2.97-2.71l-1.3-1.51a88.25 88.25 0 0 0-3.05 2.77Zm6.2-5.4 1.24 1.57a93.21 93.21 0 0 1 3.21-2.43L68 47.76a78.31 78.31 0 0 0-3.28 2.48Zm6.68-4.8 1.1 1.67a69.8 69.8 0 0 1 3.41-2.12l-1-1.72a78.45 78.45 0 0 0-3.5 2.17Zm87.69 171.11c.1-.44.18-.89.26-1.33 1-.41 2-.84 2.96-1.28l.82 1.82c-1.2.55-2.47 1.08-3.72 1.59l-.32-.8Zm6.81-4.31.9 1.79c1.18-.6 2.38-1.23 3.58-1.88l-.96-1.75a98.9 98.9 0 0 1-3.52 1.84Zm6.95-3.81 1.03 1.71c1.15-.69 2.3-1.41 3.42-2.13l-1.09-1.68c-1.1.71-2.23 1.42-3.36 2.1Zm6.65-4.33 1.15 1.63c1.1-.78 2.18-1.59 3.25-2.39l-1.22-1.59c-1.04.8-2.12 1.59-3.19 2.35Zm6.27-4.83 1.28 1.54a94.77 94.77 0 0 0 3.06-2.64l-1.34-1.49c-.99.88-1.99 1.76-3 2.59Zm5.9-5.3 1.4 1.44a96.5 96.5 0 0 0 2.84-2.87l-1.45-1.38c-.9.95-1.85 1.9-2.79 2.81Zm5.47-5.72 1.5 1.33c.88-1 1.76-2.03 2.62-3.07l-1.55-1.27c-.84 1.02-1.7 2.03-2.57 3.01Zm5.02-6.12 1.6 1.21c.8-1.07 1.6-2.17 2.37-3.27l-1.64-1.14c-.75 1.08-1.54 2.15-2.33 3.2Zm4.54-6.48 1.67 1.08c.72-1.13 1.44-2.28 2.11-3.43l-1.72-1.02a82.07 82.07 0 0 1-2.07 3.37Zm4.01-6.81 1.76.95c.64-1.19 1.26-2.39 1.84-3.58l-1.79-.88a89.78 89.78 0 0 1-1.8 3.51Zm3.49-7.1 1.82.81a103.1 103.1 0 0 0 1.56-3.71l-1.86-.74c-.49 1.22-1 2.45-1.53 3.64Zm2.92-7.34 1.88.67c.45-1.28.88-2.57 1.28-3.84l-1.9-.59a110.3 110.3 0 0 1-1.26 3.76Zm2.35-7.56 1.93.52c.35-1.3.68-2.62.97-3.92l-1.95-.44a102.4 102.4 0 0 1-.95 3.84Zm1.77-7.72 1.96.37c.24-1.32.47-2.66.67-3.98l-1.98-.29c-.19 1.29-.4 2.61-.65 3.9Zm1.16-7.84 1.98.22c.14-1.33.26-2.68.35-4.03l-1.99-.14a85.2 85.2 0 0 1-.35 3.95Zm.54-7.89 2 .06c.04-1.15.06-2.3.05-3.44h-2c0 1.13 0 2.26-.05 3.38Z"/><path fill="#FFD200" d="M120 64a32 32 0 1 0 0-64 32 32 0 0 0 0 64Z"/><path fill="#00D17F" d="M120 240a32 32 0 1 0 0-64 32 32 0 0 0 0 64Z"/><path fill="#0052FF" d="M134.35 210.17v8.9a4.43 4.43 0 0 1-4.43 4.43h-6.78v4.5h-15.46v-13.67a15.49 15.49 0 1 1 25.54-16.25v-.01l5.56 12.09h-4.43v.01Z"/><path fill="#0A0B0D" d="m134.35 206.5-1.92-.47 1.9-7.84 1.93.47-1.91 7.84Z"/><path fill="#0A0B0D" d="M116.93 201.23h17.76v-1.67h-18.45l-4.72 4.72 1.18 1.18 4.23-4.23Z"/><path fill="#0052FF" d="m101.46 32.16 5.57-12.09v.01a15.47 15.47 0 0 1 30 5.4c0 4.23-1.7 8.06-4.46 10.85v13.66h-15.46v-4.5h-6.78a4.43 4.43 0 0 1-4.43-4.43v-8.9h-4.44Z"/><path fill="#0A0B0D" d="M113.24 25.99a2 2 0 0 1-2-2c0-1.1.9-2 2-2a2 2 0 0 1 2 2 2 2 0 0 1-2 2Z"/><path fill="#FFD200" d="M219.62 32h.75c0-6.42 5.2-11.62 11.62-11.62v-.75c-6.42 0-11.62-5.2-11.62-11.62h-.75c0 6.42-5.2 11.62-11.62 11.62v.75c6.42 0 11.62 5.2 11.62 11.62Z"/><path fill="#5DE2F8" d="M20.38 208h-.75c0 6.42-5.2 11.62-11.62 11.62v.75c6.42 0 11.62 5.2 11.62 11.62h.75c0-6.42 5.2-11.62 11.62-11.62v-.75c-6.42 0-11.62-5.2-11.62-11.62Z"/><path fill="#00D17F" d="M159.75 80h.5a7.75 7.75 0 0 1 7.75-7.75v-.5a7.75 7.75 0 0 1-7.75-7.75h-.5a7.75 7.75 0 0 1-7.75 7.75v.5a7.75 7.75 0 0 1 7.75 7.75Z"/><path fill="#0052FF" d="M80.25 168h-.5a7.75 7.75 0 0 1-7.75 7.75v.5a7.75 7.75 0 0 1 7.75 7.75h.5a7.75 7.75 0 0 1 7.75-7.75v-.5a7.75 7.75 0 0 1-7.75-7.75Z"/><path fill="#5DE2F8" d="M192 82a10 10 0 1 0 0-20 10 10 0 0 0 0 20Z"/><path fill="#0A0B0D" d="M193 67h-2v10h2V67Z"/><path fill="#0A0B0D" d="M197 71h-10v2h10v-2Z"/><path fill="#101114" d="M61.25 152h-2v7.5h2V152Z"/><path fill="#101114" d="M64 154.75h-7.5v2H64v-2ZM230.62 56h-2v11.25h2V56Z"/><path fill="#101114" d="M235.25 60.62H224v2h11.25v-2Z"/><path fill="#FFD200" d="M40 194a10 10 0 1 0 0-20 10 10 0 0 0 0 20Z"/><path fill="#0A0B0D" d="M41 179h-2v10h2v-10Z"/><path fill="#0A0B0D" d="M45 183H35v2h10v-2Z"/><path fill="#0A0B0D" fill-rule="evenodd" d="M92.28 136a32.02 32.02 0 0 1 55.45 0 31.97 31.97 0 0 1-27.7 15.99A32 32 0 0 1 92.27 136c0 .01 0 .01 0 0Z" clip-rule="evenodd"/><path fill="#FFFFFF" d="M120 118a10 10 0 1 0 0-20 10 10 0 0 0 0 20Z"/><path fill="#101114" d="M120 161c-22.61 0-41-18.39-41-41s18.39-41 41-41 41 18.39 41 41-18.39 41-41 41Zm0-80c-21.5 0-39 17.5-39 39s17.5 39 39 39 39-17.5 39-39-17.5-39-39-39Z"/><path fill="#0052FF" d="M32 152a32 32 0 1 0 0-64 32 32 0 0 0 0 64Z"/><path fill="#0A0B0D" d="M32 88a32 32 0 0 0-32 32h64a32 32 0 0 0-32-32Z"/><path fill="#FFFFFF" d="M46.95 111.32a14.81 14.81 0 0 0-28.78 6.59 6.37 6.37 0 1 0 4.06 11.42v9.81h14.79V134l7.65-1a3.53 3.53 0 0 0 3.07-3.5v-7.69l4.26-.91-5.05-9.58Z"/><path fill="#0A0B0D" d="M42 114a2 2 0 0 0-2-2 2 2 0 0 0-2 2c0 1.1.9 2 2 2a2 2 0 0 0 2-2Z"/><path fill="#0052FF" d="M208 152a32 32 0 1 0 0-64 32 32 0 0 0 0 64Z"/><path fill="#0A0B0D" d="M176 120a32 32 0 0 0 64 0h-64Z"/><path fill="#FFFFFF" d="M223.99 115.48a15.49 15.49 0 0 0-30.27-4.56l-5.28 10.01 4.44.96v8.04a3.69 3.69 0 0 0 3.2 3.66l8 1.04V140H224l-.01-24.52Z"/><path fill="#0A0B0D" d="M204 114a2 2 0 0 0-2-2 2 2 0 0 0-2 2c0 1.1.9 2 2 2a2 2 0 0 0 2-2Z"/></svg>