<svg xmlns="http://www.w3.org/2000/svg" fill="none" viewBox="0 0 240 240"><path fill="#0A0B0D" d="m121.76 222-.04-1.9 1.89-.06.06 1.91-1.91.05Zm-3.86 0a69 69 0 0 1-1.93-.06l.07-1.9 1.89.05-.04 1.91h.01Zm9.62-.25-.13-1.9c.63-.04 1.26-.1 1.88-.15l.17 1.9-1.92.15Zm-15.39-.03c-.64-.04-1.27-.1-1.91-.16l.17-1.9c.63.06 1.26.12 1.89.16l-.15 1.9Zm21.15-.54-.24-1.9a58.9 58.9 0 0 0 1.87-.25l.28 1.9-1.91.25Zm-26.9-.05-1.9-.27.27-1.89c.63.1 1.25.19 1.88.26l-.25 1.9Zm32.6-.84-.34-1.88 1.86-.35.38 1.87c-.63.12-1.26.25-1.9.36Zm-38.3-.06a70.9 70.9 0 0 1-1.9-.38l.39-1.87c.62.13 1.23.25 1.85.36l-.35 1.88Zm43.96-1.14-.44-1.86c.61-.14 1.22-.3 1.83-.46l.48 1.85-1.87.47ZM95.03 219l-1.87-.47.48-1.85 1.84.47-.45 1.85Zm55.18-1.42-.55-1.83 1.8-.56.59 1.8-1.84.58v.01Zm-60.76-.1-1.84-.58.6-1.81 1.8.57-.55 1.83Zm66.25-1.71-.65-1.8c.6-.2 1.19-.44 1.78-.66l.68 1.79c-.6.23-1.2.46-1.8.67Zm-71.75-.13-1.81-.68.69-1.78 1.77.67-.66 1.8h.01Zm77.12-1.98-.75-1.76 1.73-.75.78 1.74-1.75.77h-.01Zm-82.5-.16c-.6-.25-1.18-.51-1.77-.78l.79-1.73 1.73.76-.75 1.75Zm87.74-2.24-.84-1.7 1.69-.86.87 1.7c-.57.3-1.14.59-1.72.86Zm-93-.19c-.57-.29-1.16-.58-1.72-.88l.88-1.7c.56.3 1.13.59 1.69.86l-.85 1.71v.01Zm98.1-2.5-.94-1.66c.56-.3 1.1-.62 1.63-.94l.97 1.65-1.67.95Zm-103.22-.22c-.56-.31-1.11-.64-1.67-.96l.98-1.65a44 44 0 0 0 1.64.96l-.95 1.66Zm108.16-2.75-1.03-1.61 1.59-1.03 1.05 1.6c-.54.34-1.07.7-1.62 1.04h.01Zm-113.1-.25c-.55-.34-1.08-.7-1.62-1.06l1.06-1.58c.53.35 1.05.7 1.59 1.04l-1.03 1.6Zm117.88-2.97-1.11-1.55c.51-.36 1.02-.74 1.52-1.12l1.15 1.53-1.56 1.14Zm-122.66-.28c-.51-.37-1.04-.76-1.54-1.15l1.14-1.52c.5.38 1.01.75 1.53 1.12l-1.12 1.55Zm127.27-3.2-1.2-1.5a58 58 0 0 0 1.46-1.19l1.22 1.47-1.48 1.22Zm-131.85-.31c-.5-.4-1-.81-1.49-1.23l1.23-1.47c.5.41.98.82 1.46 1.2l-1.2 1.49Zm136.25-3.44-1.27-1.42 1.4-1.27 1.29 1.4-1.42 1.3Zm-140.64-.33a63.1 63.1 0 0 1-1.41-1.31l1.3-1.4c.46.44.92.86 1.39 1.28l-1.28 1.42Zm144.83-3.65-1.36-1.34 1.33-1.36 1.37 1.33-1.34 1.37Zm-149-.35-1.35-1.39 1.39-1.31 1.31 1.35-1.35 1.35Zm152.97-3.85-1.42-1.27 1.25-1.42 1.44 1.25-1.27 1.45Zm-156.91-.37-1.26-1.45 1.45-1.24 1.24 1.42-1.43 1.27Zm160.64-4.05-1.49-1.2 1.17-1.48 1.5 1.16-1.19 1.52h.01Zm-164.36-.38-1.18-1.52 1.52-1.15 1.16 1.49-1.5 1.18Zm167.86-4.23-1.56-1.1 1.09-1.55 1.57 1.08c-.36.52-.73 1.06-1.1 1.57Zm-171.31-.39-1.1-1.58 1.57-1.07 1.08 1.55-1.55 1.1Zm174.53-4.4-1.61-1.03 1-1.61 1.63.99c-.33.55-.67 1.1-1.02 1.64Zm-177.74-.4L30 171.13l1.63-.99c.32.55.66 1.08 1 1.62l-1.62 1Zm180.7-4.58-1.67-.94c.3-.55.61-1.1.9-1.66l1.69.9c-.3.57-.61 1.14-.93 1.7h.01Zm-183.63-.4c-.32-.56-.62-1.12-.92-1.68l1.7-.9.89 1.66-1.67.93Zm186.31-4.74-1.7-.84.82-1.7 1.72.8-.83 1.74Zm-188.97-.38a95 95 0 0 1-.83-1.74l1.74-.8.8 1.71-1.71.83Zm191.37-4.9-1.76-.74c.25-.58.5-1.16.73-1.76l1.78.71-.74 1.78-.01.01Zm-193.74-.35-.73-1.77 1.78-.7.7 1.75-1.76.73Zm195.84-5.04-1.8-.64c.22-.59.43-1.19.63-1.8l1.8.62-.63 1.82Zm-197.91-.34-.63-1.82 1.81-.6.61 1.78-1.8.64Zm199.72-5.16-1.84-.54.53-1.82 1.84.5c-.17.62-.34 1.24-.53 1.86Zm-201.5-.34-.52-1.85 1.84-.5.51 1.82-1.83.53Zm202.97-5.24-1.86-.44c.15-.6.29-1.22.42-1.84l1.87.4a39.4 39.4 0 0 1-.43 1.88Zm-204.44-.34c-.14-.62-.29-1.25-.42-1.88l1.87-.4.41 1.84-1.86.44Zm205.63-5.3-1.88-.35c.11-.62.22-1.24.31-1.86l1.88.3c-.1.64-.2 1.27-.32 1.9Zm-206.78-.36c-.12-.63-.22-1.26-.32-1.9l1.89-.3c.1.62.2 1.25.32 1.87l-1.89.34v-.01Zm207.64-5.36-1.9-.23.22-1.88 1.9.2-.22 1.92Zm-208.48-.35-.21-1.92 1.9-.19.2 1.88-1.9.23Zm209.03-5.4-1.9-.12.1-1.89 1.92.1a64.9 64.9 0 0 1-.12 1.92Zm-209.56-.35c-.04-.64-.08-1.27-.1-1.92l1.9-.09.1 1.89-1.9.12Zm209.79-5.4-1.9-.04v-1.88h1.9v1.91Zm-210-.37V117c0-.64 0-1.29.02-1.93l1.9.04-.01 1.89v1.03l-1.91.02Zm208.01-5.34c-.02-.63-.05-1.26-.1-1.89l1.92-.11.1 1.92-1.92.07v.01Zm-205.96-1.38-1.9-.1.12-1.92 1.9.13-.12 1.89Zm205.57-4.28c-.05-.63-.12-1.26-.2-1.88l1.9-.22c.08.64.15 1.27.2 1.91l-1.9.18v.01Zm-205.1-1.37-1.9-.21a38 38 0 0 1 .22-1.9l1.89.23a113 113 0 0 0-.22 1.88Zm204.4-4.26c-.09-.62-.18-1.25-.29-1.87l1.88-.32.3 1.9-1.88.28v.01Zm-203.64-1.36-1.88-.32c.1-.63.22-1.27.34-1.9l1.88.35-.33 1.86Zm202.64-4.22c-.12-.62-.26-1.23-.4-1.84l1.86-.43c.15.63.28 1.25.41 1.88l-1.87.39ZM19.36 94.49l-1.86-.42.44-1.87 1.85.45-.43 1.84Zm200.26-4.17-.51-1.82 1.83-.53c.18.63.36 1.24.52 1.87l-1.84.5v-.02ZM20.76 89l-1.85-.52.55-1.85 1.82.55c-.18.6-.36 1.2-.52 1.82ZM218 84.89l-.6-1.8 1.8-.63c.22.6.43 1.21.63 1.82l-1.82.6ZM22.45 83.55l-1.8-.62c.2-.62.41-1.23.63-1.83l1.8.65-.63 1.79Zm193.63-4.02a92.9 92.9 0 0 0-.7-1.76l1.76-.72c.25.59.49 1.19.72 1.78l-1.78.7Zm-191.64-1.3-1.76-.72c.23-.6.48-1.19.74-1.78l1.76.75c-.25.59-.5 1.17-.73 1.75Zm189.45-3.9a97.2 97.2 0 0 0-.8-1.71l1.72-.82.82 1.73-1.74.8ZM26.73 73.02 25 72.2l.84-1.74 1.71.85a93.5 93.5 0 0 0-.82 1.7Zm184.68-3.78-.9-1.66 1.68-.92c.3.56.61 1.13.9 1.7l-1.68.88ZM29.3 67.95l-1.68-.9c.3-.57.62-1.13.94-1.7l1.66.95c-.32.55-.62 1.1-.92 1.66v-.01Zm179.34-3.65c-.33-.54-.65-1.07-.99-1.6l1.63-1.01 1 1.64-1.64.97Zm-176.5-1.27-1.62-1c.34-.54.68-1.1 1.03-1.63l1.6 1.03-1 1.6Zm173.47-3.5a42.9 42.9 0 0 0-1.07-1.56l1.57-1.1 1.09 1.58-1.59 1.07ZM35.26 58.27l-1.57-1.09 1.12-1.57 1.55 1.12c-.38.51-.74 1.03-1.1 1.54Zm167.06-3.38-1.16-1.5 1.5-1.18c.4.5.8 1.01 1.18 1.53l-1.53 1.15Zm-163.7-1.2-1.51-1.17 1.2-1.51 1.48 1.2c-.4.49-.8.98-1.17 1.48Zm160.16-3.23-1.24-1.43 1.44-1.26 1.26 1.46-1.46 1.23ZM42.23 49.32l-1.45-1.25c.42-.49.85-.97 1.28-1.44l1.42 1.28-1.25 1.4ZM195 46.25l-1.31-1.37 1.36-1.34 1.34 1.39-1.38 1.3-.01.02Zm-148.93-1.1-1.36-1.33 1.35-1.36 1.35 1.35-1.33 1.35v-.01ZM191 42.23l-1.39-1.3 1.3-1.4c.47.44.94.87 1.4 1.32l-1.32 1.39v-.01ZM50.14 41.19l-1.3-1.4 1.43-1.3 1.27 1.44-1.4 1.27v-.01Zm136.64-2.75a86.9 86.9 0 0 0-1.45-1.21l1.2-1.48 1.49 1.23-1.23 1.45h-.01ZM54.4 37.46 53.19 36c.5-.42 1-.82 1.5-1.22l1.2 1.5c-.5.38-.99.78-1.47 1.18h-.01Zm127.94-2.58-1.52-1.14 1.13-1.53 1.54 1.15-1.15 1.52Zm-123.48-.9-1.13-1.55c.51-.38 1.03-.75 1.56-1.12l1.1 1.55-1.53 1.11Zm118.87-2.41c-.53-.36-1.05-.71-1.58-1.05l1.04-1.6 1.6 1.06-1.06 1.59Zm-114.22-.83-1.05-1.6 1.62-1.04 1.02 1.61-1.59 1.03Zm109.42-2.23-1.63-.95.96-1.65 1.66.97-.99 1.63Zm-104.6-.75-.95-1.65c.55-.33 1.1-.64 1.67-.95l.93 1.67c-.56.3-1.1.62-1.64.94v-.01ZM168 25.73a95.7 95.7 0 0 0-1.69-.87l.86-1.71c.57.28 1.14.58 1.72.89l-.9 1.69Zm-94.67-.67-.87-1.7 1.72-.86.83 1.72-1.7.84h.02Zm89.57-1.85-1.73-.77.77-1.74c.59.25 1.18.52 1.76.79l-.79 1.73Zm-84.46-.59-.78-1.74c.58-.26 1.18-.52 1.77-.76l.73 1.76-1.72.74ZM157.66 21l-1.78-.68.67-1.8 1.8.7-.69 1.77V21Zm-74-.5L83 18.7l1.8-.66.64 1.8c-.59.2-1.18.43-1.77.65Zm68.65-1.44c-.6-.2-1.2-.39-1.81-.57l.56-1.82 1.85.59-.6 1.81Zm-63.29-.42-.57-1.82 1.84-.56.54 1.83-1.82.55h.01Zm57.84-1.2-1.83-.48.46-1.85c.62.15 1.24.32 1.86.49l-.5 1.84h.01Zm-52.38-.34-.47-1.85c.63-.17 1.25-.32 1.88-.46l.44 1.86c-.62.14-1.24.3-1.84.45Zm46.87-.98a64.2 64.2 0 0 0-1.86-.37l.37-1.87 1.89.38-.4 1.87ZM100 15.84l-.37-1.87 1.89-.36.33 1.88c-.62.1-1.24.23-1.86.35h.01Zm35.75-.75c-.62-.1-1.24-.18-1.87-.26l.26-1.9 1.9.28-.28 1.9v-.02Zm-30.16-.2-.26-1.89 1.9-.25.23 1.9-1.87.25Zm24.53-.5-1.88-.17.15-1.9 1.92.18-.18 1.9-.01-.01Zm-18.9-.13-.16-1.9 1.92-.14.13 1.9-1.9.15h.02Zm13.24-.27-1.9-.06.06-1.91 1.92.07-.08 1.9Zm-7.56-.04-.06-1.91 1.93-.04.02 1.9c-.63 0-1.26.03-1.9.05Z"/><path fill="#0052FF" d="M119.51 194.83a78.03 78.03 0 1 0 0-156.06 78.03 78.03 0 0 0 0 156.06Z"/><path fill="#CED2DB" d="M41.48 116.8a78.03 78.03 0 1 1 156.06 0"/><path fill="#FFFFFF" d="M119.51 179.23a62.43 62.43 0 1 0 0-124.86 62.43 62.43 0 0 0 0 124.86Z"/><path fill="#0A0B0D" d="M50.3 116.8h-1.9a71.2 71.2 0 0 1 71.11-71.11 71.07 71.07 0 0 1 67.42 48.42l-1.81.61a69.14 69.14 0 0 0-65.6-47.12 69.28 69.28 0 0 0-69.21 69.2Z"/><path fill="#0052FF" d="M64.02 117.02a13.86 13.86 0 0 1-17.91 13.28A13.87 13.87 0 1 1 64 117.03l.01-.01Z"/><path fill="#0A0B0D" d="M197.55 117.02a7.79 7.79 0 0 1-10.08 7.46 7.8 7.8 0 1 1 10.06-7.46h.02Zm-8.13-23.97-1.49 7.64-5.31-5.57 6.8-2.07Z"/><path fill="#5DE2F8" d="m167.08 100.67-15.7-15.7-.04-.04-15.7-15.7-16.15 16.2v31.34l-.05.06h.05v.05l.04-.05h31.36l16.19-16.16Z"/><path fill="#5DE2F8" d="m71.94 132.93 15.69 15.7.06.04 15.69 15.7 16.15-16.2v-31.34l.06-.06h-.06v-.05l-.05.05H88.14l-16.2 16.16Z"/><path fill="#0A0B0D" d="m135.64 69.23-4.74 4.75 31.38 31.38 4.75-4.74-31.39-31.39Zm-58.95 58.95-4.74 4.75 31.38 31.38 4.75-4.74-31.39-31.39Z"/><path fill="#0052FF" d="m76.68 128.19 42.8-11.42v31.4l-11.42 11.41-31.38-31.4Zm42.8-11.42 42.8-11.4-11.4 11.46-31.4-.06Zm71.91-60.99a15.27 15.27 0 1 0 0-30.54 15.27 15.27 0 0 0 0 30.54Z"/><path fill="#FFFFFF" d="M198.86 47.55h-14.95v-1.58a4.62 4.62 0 0 1 4.62-4.62h5.71a4.62 4.62 0 0 1 4.62 4.62v1.58Zm-7.48-7.25a4.02 4.02 0 1 0 0-8.04 4.02 4.02 0 0 0 0 8.04Z"/><path fill="#0052FF" d="M38.86 55.97a2.86 2.86 0 0 1-2.27-4.61 107.91 107.91 0 0 1 31.35-27.52 2.87 2.87 0 0 1 2.87 4.95 101.24 101.24 0 0 0-29.67 26.04 2.85 2.85 0 0 1-2.28 1.12v.02Z"/><path fill="#00D17F" d="M171.73 209.78a2.87 2.87 0 0 1-1.44-5.34 102.55 102.55 0 0 0 29.68-26.04 2.87 2.87 0 0 1 4.54 3.49 107.85 107.85 0 0 1-31.35 27.52c-.45.26-.95.38-1.43.38Zm-127.59-6.76a15.27 15.27 0 1 0 0-30.53 15.27 15.27 0 0 0 0 30.53Z"/><path fill="#0A0B0D" d="m41.55 194.34-5.8-5.97 1.37-1.33 4.43 4.56 9.13-9.38 1.36 1.33-10.49 10.79Z"/></svg>