<svg xmlns="http://www.w3.org/2000/svg" fill="none" viewBox="0 0 240 240"><path fill="#CED2DB" d="M208 32H32v184h176V32Z"/><path fill="#0052FF" d="M192 32H48v168h144V32Z"/><path fill="#0052FF" d="M192 32H48v168h144V32Z"/><path fill="#FFD200" d="M167 192.5a47.5 47.5 0 1 1-95 0 47.5 47.5 0 0 1 95 0Z"/><path fill="#0A0B0D" fill-rule="evenodd" d="M79 119h82v50H79v-50Zm2 2v46h78v-46H81Z" clip-rule="evenodd"/><path fill="#0A0B0D" fill-rule="evenodd" d="M160 137H80v-2h80v2Zm0 8H80v-2h80v2Zm0 8H80v-2h80v2Zm0 8H80v-2h80v2Z" clip-rule="evenodd"/><path fill="#CED2DB" fill-rule="evenodd" d="M176 16h-40a16 16 0 1 0-32 0H64a16 16 0 0 0-16 16h144a16 16 0 0 0-16-16Zm-48 0a8 8 0 1 1-16 0 8 8 0 0 1 16 0Z" clip-rule="evenodd"/><path fill="#0A0B0D" fill-rule="evenodd" d="M79 47h50v10H79V47Zm2 2v6h46v-6H81Zm-1 22h80v2H80v-2Zm0 8h80v2H80v-2Zm0 8h80v2H80v-2Zm0 8h80v2H80v-2Zm0 8h66.67v2H80v-2Z" clip-rule="evenodd"/><path fill="#0A0B0D" fill-rule="evenodd" d="M63 32h2v151h110V32h2v153H63V32Z" clip-rule="evenodd"/><path fill="#0A0B0D" d="M166.41 200a47.5 47.5 0 1 0-93.82 0h93.82Z"/><path fill="#FFFFFF" d="M155 192.5a35.5 35.5 0 1 1-71 0 35.5 35.5 0 0 1 71 0Z"/><path fill="#0A0B0D" fill-rule="evenodd" d="M117 206.2a16.2 16.2 0 1 0 0-32.4 16.2 16.2 0 0 0 0 32.4Zm0 1.8a18 18 0 1 0 0-36 18 18 0 0 0 0 36Z" clip-rule="evenodd"/><path fill="#5DE2F8" d="M130 190a13 13 0 1 1-26 0 13 13 0 0 1 26 0Z"/><path fill="#0A0B0D" fill-rule="evenodd" d="m133.44 208-5.44-5.44 2.56-2.56 5.44 5.44-2.56 2.56Z" clip-rule="evenodd"/><path fill="#0A0B0D" fill-rule="evenodd" d="m136.37 214-7.37-7.37 4.63-4.63 7.37 7.37-4.63 4.63Z" clip-rule="evenodd"/></svg>