<svg xmlns="http://www.w3.org/2000/svg" fill="none" viewBox="0 0 240 240"><path fill="#CED2DB" d="M126 161.5h-12V198a10 10 0 0 1-10 10h-.34A24 24 0 0 0 80 232a24 24 0 0 0-23.66-24H40C18.24 208 .54 194.63.01 173L0 170.5V200a40 40 0 0 0 40 40h160a40 40 0 0 0 40-40v-29.5l-.01 2.5c-.53 21.63-18.23 35-39.99 35h-12.34A24 24 0 0 0 164 232a24 24 0 0 0-23.66-24H136a10 10 0 0 1-10-10v-36.5Z"/><path fill="#00D17F" fill-rule="evenodd" d="M120 0s-16 15.2-16 38v98h-4a4 4 0 0 0-4 4v32a4 4 0 0 0 4 4h8l-4 16h32l-4-16h8a4 4 0 0 0 4-4v-32a4 4 0 0 0-4-4h-4V38c0-22.8-16-38-16-38Z" clip-rule="evenodd"/><path fill="#CED2DB" fill-rule="evenodd" d="M120 160H56v-17.1a30 30 0 0 1 11.22-23.4l26.26-21.07a10 10 0 0 0 3.62-6.26L104 48h32l6.9 44.17a10 10 0 0 0 3.62 6.26l26.26 21.06A30 30 0 0 1 184 142.9V160h-64Z" clip-rule="evenodd"/><path fill="#0052FF" fill-rule="evenodd" d="M136 48h-32v88h-4a4 4 0 0 0-4 4v20h48v-20a4 4 0 0 0-4-4h-4V48Z" clip-rule="evenodd"/><path fill="#0A0B0D" d="M112 24a8 8 0 0 1 16 0v8h-16v-8Z"/><path fill="#0A0B0D" fill-rule="evenodd" d="M136 65h-32v-2h32v2Zm0 24h-32v-2h32v2Z" clip-rule="evenodd"/><path fill="#FFFFFF" fill-rule="evenodd" d="M136 113h-32v-2h32v2Z" clip-rule="evenodd"/><path fill="#0A0B0D" fill-rule="evenodd" d="M136 113h-32v-2h32v2Z" clip-rule="evenodd"/><path fill="#0A0B0D" fill-rule="evenodd" d="M121 64v72h-2V64h2Zm63 89h-40v-2h40v2Zm-88 0H56v-2h40v2Z" clip-rule="evenodd"/><path fill="#FFD200" d="M224 56a24 24 0 0 0-24 24 24 24 0 0 0-24-24 24 24 0 0 0 24-24 24 24 0 0 0 24 24Z"/><path fill="#5DE2F8" d="M72 48a20 20 0 0 0-20 20 20 20 0 0 0-20-20 20 20 0 0 0 20-20 20 20 0 0 0 20 20Z"/><path fill="#101114" fill-rule="evenodd" d="M171 88v-8h2v8h-2Z" clip-rule="evenodd"/><path fill="#101114" fill-rule="evenodd" d="M168 83h8v2h-8v-2Z" clip-rule="evenodd"/><path fill="#0A0B0D" fill-rule="evenodd" d="M35 112v-8h2v8h-2Z" clip-rule="evenodd"/><path fill="#0A0B0D" fill-rule="evenodd" d="M32 107h8v2h-8v-2Z" clip-rule="evenodd"/><path fill="#101114" fill-rule="evenodd" d="M75 24v-8h2v8h-2Z" clip-rule="evenodd"/><path fill="#101114" fill-rule="evenodd" d="M72 19h8v2h-8v-2Zm147 133v-8h2v8h-2Z" clip-rule="evenodd"/><path fill="#101114" fill-rule="evenodd" d="M216 147h8v2h-8v-2Zm3-131V8h2v8h-2Z" clip-rule="evenodd"/><path fill="#101114" fill-rule="evenodd" d="M216 11h8v2h-8v-2ZM43 192v-8h2v8h-2Z" clip-rule="evenodd"/><path fill="#101114" fill-rule="evenodd" d="M40 187h8v2h-8v-2Z" clip-rule="evenodd"/></svg>