<svg xmlns="http://www.w3.org/2000/svg" fill="none" viewBox="0 0 240 240"><path fill="#CED2DB" fill-rule="evenodd" d="m215.675 83.355-152 76-39.355-78.71 152-76z" clip-rule="evenodd"/><path fill="#5DE2F8" fill-rule="evenodd" d="m63.675 80.645 152 76-39.355 78.71-152-76z" clip-rule="evenodd"/><path fill="#FFD200" d="M196 0a44 44 0 1 0 0 88 43.88 43.88 0 0 0 32.57-14.42c1-1 1.84-2.12 2.69-3.25q1.275-1.695 2.37-3.51a38 38 0 0 0 2-3.74A43.9 43.9 0 0 0 240 44a44.003 44.003 0 0 0-44-44"/><path fill="#0052FF" fill-rule="evenodd" d="M196 0v88a44 44 0 1 1 0-88" clip-rule="evenodd"/><path fill="#FFD200" d="M196 152a44.003 44.003 0 0 0-44 44 44.003 44.003 0 0 0 44 44 43.88 43.88 0 0 0 32.57-14.42c1-1 1.84-2.12 2.69-3.25q1.275-1.695 2.37-3.51a38 38 0 0 0 2-3.74A43.9 43.9 0 0 0 240 196a44.003 44.003 0 0 0-44-44"/><path fill="#0052FF" fill-rule="evenodd" d="M196 152v88a44.003 44.003 0 0 1-44-44 44.003 44.003 0 0 1 44-44m-131.887 7.134A44.002 44.002 0 0 1 0 120a43.9 43.9 0 0 1 4.37-19.08 38 38 0 0 1 2-3.74 42 42 0 0 1 2.37-3.51c.85-1.13 1.74-2.25 2.69-3.25A43.88 43.88 0 0 1 44 76a44 44 0 0 1 20.174 4.897L142.39 120z" clip-rule="evenodd"/><path fill="#0A0B0D" fill-rule="evenodd" d="M196 13a30.997 30.997 0 0 0-31 31 31 31 0 0 0 31 31v2a33 33 0 0 1-33-33 33.003 33.003 0 0 1 33-33zm0 152a31 31 0 0 0-21.92 9.08 30.996 30.996 0 0 0 0 43.84A31 31 0 0 0 196 227v2a33 33 0 0 1-23.335-9.665 33.004 33.004 0 0 1 0-46.67A33 33 0 0 1 196 163zm21.92-142.92A31 31 0 0 0 196 13v-2a33 33 0 0 1 33 33 33 33 0 0 1-33 33v-2a30.997 30.997 0 0 0 31-31 31 31 0 0 0-9.08-21.92m0 152A31 31 0 0 0 196 165v-2a33 33 0 0 1 0 66v-2a31 31 0 0 0 21.92-9.08 30.996 30.996 0 0 0 0-43.84" clip-rule="evenodd"/><path fill="#0A0B0D" fill-rule="evenodd" d="M166.943 57.41q.419.907.895 1.788L73.06 106.587a32 32 0 0 0-.896-1.788zm0 125.179q.419-.907.895-1.789L73.06 133.412q-.421.909-.896 1.788z" clip-rule="evenodd"/><path fill="#0A0B0D" fill-rule="evenodd" d="M44 89c-17.12 0-31 13.879-31 31s13.88 31 31 31 31-13.879 31-31-13.88-31-31-31m-33 31c0-18.225 14.775-33 33-33s33 14.775 33 33-14.775 33-33 33-33-14.775-33-33" clip-rule="evenodd"/></svg>