<svg xmlns="http://www.w3.org/2000/svg" fill="none" viewBox="0 0 240 240"><path fill="#CED2DB" fill-rule="evenodd" d="M64 152V88h120v64zm9.46-32v-16h110.53v16zM0 192v-32h64v64H0v-16h54.53v-16zM0 32V16h64v64H0V48h54.53V32z" clip-rule="evenodd"/><path fill="#0A0B0D" d="m100 192-16-32H44l-16 32 16 32h40z"/><path fill="#0052FF" d="M84 160H44l20 32-20 32h40l16-32z"/><path fill="#FFFFFF" d="m82 192-8-16H54l-8 16 8 16h20z"/><path fill="#0A0B0D" d="m28 120 16 32h40l16-32-16-32H44z"/><path fill="#0052FF" d="M84 88H44l-16 32 16 32h40l-20-32z"/><path fill="#FFFFFF" d="m46 120 8 16h20l8-16-8-16H54z"/><path fill="#0A0B0D" d="M100 48 84 16H44L28 48l16 32h40z"/><path fill="#0052FF" d="M84 16H44l20 32-20 32h40l16-32z"/><path fill="#FFFFFF" d="m82 48-8-16H54l-8 16 8 16h20z"/><path fill="#0A0B0D" d="m68 51-3 1.5V88h-2V52.5L60 51v-5l4-2 4 2zm-5 53v11.5l-3 1.5v5l3 1.5V160h2v-36.5l3-1.5v-5l-3-1.5V104zm2 72h-2v12l-3 1.5v5l3 1.5v44h2v-44l3-1.5v-5l-3-1.5z"/><path fill="#CED2DB" fill-rule="evenodd" d="M240 48v32h-56V16h56v16h-46.53v16zm0 160v16h-56v-64h56v32h-46.53v16z" clip-rule="evenodd"/><path fill="#0052FF" d="m148 48 16 32h40l16-32-16-32h-40z"/><path fill="#FFD200" d="M204 16h-40l-16 32 16 32h40l-20-32z"/><path fill="#FFFFFF" d="m166 48 8 16h20l8-16-8-16h-20z"/><path fill="#0052FF" d="m220 120-16-32h-40l-16 32 16 32h40z"/><path fill="#FFD200" d="M204 88h-40l20 32-20 32h40l16-32z"/><path fill="#FFFFFF" d="m202 120-8-16h-20l-8 16 8 16h20z"/><path fill="#0A0B0D" d="m148 192 16 32h40l16-32-16-32h-40z"/><path fill="#FFD200" d="M204 160h-40l-16 32 16 32h40l-20-32z"/><path fill="#FFFFFF" d="m166 192 8 16h20l8-16-8-16h-20z"/><path fill="#0A0B0D" fill-rule="evenodd" d="M183 0v44l-3 1.5v5l3 1.5v12h2V52l3-1.5v-5l-3-1.5V0zm2 80h-2v36.5l-3 1.5v5l3 1.5V136h2v-11.5l3-1.5v-5l-3-1.5zm0 72h-2v35.5l-3 1.5v5l4 2 4-2v-5l-3-1.5z" clip-rule="evenodd"/></svg>