<svg xmlns="http://www.w3.org/2000/svg" fill="none" viewBox="0 0 240 240"><path fill="#0A0B0E" fill-rule="evenodd" d="M44 27h152v2H44z" clip-rule="evenodd"/><path fill="#0A0B0E" fill-rule="evenodd" d="m219.062 124.351-36-96 1.873-.702 36 96z" clip-rule="evenodd"/><path fill="#0A0B0E" fill-rule="evenodd" d="m147.062 123.649 36-96 1.873.702-36 96z" clip-rule="evenodd"/><path fill="#FFD200" d="M144 136c0-22.1 17.9-40 40-40s40 17.9 40 40z"/><path fill="#0A0B0E" fill-rule="evenodd" d="M183 136V28h2v108z" clip-rule="evenodd"/><path fill="#0052FF" d="M232 136c0 26.5-21.5 48-48 48s-48-21.5-48-48z"/><path fill="#0A0B0D" d="M224 136c0 22.1-17.9 40-40 40s-40-17.9-40-40z"/><path fill="#0A0B0D" fill-rule="evenodd" d="M184 105c-17.121 0-31 13.879-31 31s13.879 31 31 31 31-13.879 31-31-13.879-31-31-31m-33 31c0-18.225 14.775-33 33-33s33 14.775 33 33-14.775 33-33 33-33-14.775-33-33" clip-rule="evenodd"/><path fill="#0A0B0D" fill-rule="evenodd" d="M183 96.012V136h2V96.012a41 41 0 0 0-2 0" clip-rule="evenodd"/><path fill="#0A0B0E" fill-rule="evenodd" d="m19.063 123.649 36-96 1.872.702-36 96z" clip-rule="evenodd"/><path fill="#0A0B0E" fill-rule="evenodd" d="m91.063 124.351-36-96 1.872-.702 36 96z" clip-rule="evenodd"/><path fill="#5DE2F8" d="M16 136c0-22.1 17.9-40 40-40s40 17.9 40 40z"/><path fill="#0A0B0E" fill-rule="evenodd" d="M55 136V28h2v108z" clip-rule="evenodd"/><path fill="#3CC28A" d="M104 136c0 26.5-21.5 48-48 48S8 162.5 8 136z"/><path fill="#0052FF" d="M96 136c0 22.1-17.9 40-40 40s-40-17.9-40-40z"/><path fill="#0A0B0D" fill-rule="evenodd" d="M56 105c-17.12 0-31 13.879-31 31s13.88 31 31 31 31-13.879 31-31-13.88-31-31-31m-33 31c0-18.225 14.775-33 33-33s33 14.775 33 33-14.775 33-33 33-33-14.775-33-33" clip-rule="evenodd"/><path fill="#0A0B0D" fill-rule="evenodd" d="M55 96.012V136h2V96.012a41 41 0 0 0-2 0" clip-rule="evenodd"/><path fill="#CED2DB" d="M128 28h-16v212h16z"/><path fill="#CED2DB" d="M120 16c-6.6 0-12 5.4-12 12s5.4 12 12 12 12-5.4 12-12-5.4-12-12-12M88 240c0-17.7 14.3-32 32-32s32 14.3 32 32z"/><path fill="#0A0B0D" fill-rule="evenodd" d="M121 36v172h-2V36z" clip-rule="evenodd"/></svg>