<svg xmlns="http://www.w3.org/2000/svg" fill="none" viewBox="0 0 240 240"><path fill="#101114" fill-rule="evenodd" d="M44 27h152v2H44v-2Z" clip-rule="evenodd"/><path fill="#101114" fill-rule="evenodd" d="m219.06 124.35-36-96 1.88-.7 36 96-1.88.7Z" clip-rule="evenodd"/><path fill="#101114" fill-rule="evenodd" d="m147.06 123.65 36-96 1.88.7-36 96-1.88-.7Z" clip-rule="evenodd"/><path fill="#FFD200" d="M144 136c0-22.1 17.9-40 40-40s40 17.9 40 40h-80Z"/><path fill="#101114" fill-rule="evenodd" d="M183 136V28h2v108h-2Z" clip-rule="evenodd"/><path fill="#0052FF" d="M232 136a48.01 48.01 0 0 1-96 0h96Z"/><path fill="#0A0B0D" d="M224 136c0 22.1-17.9 40-40 40s-40-17.9-40-40h80Z"/><path fill="#0A0B0D" fill-rule="evenodd" d="M184 105a31 31 0 1 0 0 62 31 31 0 0 0 0-62Zm-33 31a33 33 0 1 1 66 0 33 33 0 0 1-66 0Z" clip-rule="evenodd"/><path fill="#0A0B0D" fill-rule="evenodd" d="M183 96.01V136h2V96.01a41.04 41.04 0 0 0-2 0Z" clip-rule="evenodd"/><path fill="#101114" fill-rule="evenodd" d="m19.06 123.65 36-96 1.88.7-36 96-1.88-.7Z" clip-rule="evenodd"/><path fill="#101114" fill-rule="evenodd" d="m91.06 124.35-36-96 1.88-.7 36 96-1.88.7Z" clip-rule="evenodd"/><path fill="#5DE2F8" d="M16 136c0-22.1 17.9-40 40-40s40 17.9 40 40H16Z"/><path fill="#101114" fill-rule="evenodd" d="M55 136V28h2v108h-2Z" clip-rule="evenodd"/><path fill="#00D17F" d="M104 136a48.01 48.01 0 0 1-96 0h96Z"/><path fill="#0052FF" d="M96 136c0 22.1-17.9 40-40 40s-40-17.9-40-40h80Z"/><path fill="#0A0B0D" fill-rule="evenodd" d="M56 105a31 31 0 1 0 0 62 31 31 0 0 0 0-62Zm-33 31a33 33 0 1 1 66 0 33 33 0 0 1-66 0Z" clip-rule="evenodd"/><path fill="#0A0B0D" fill-rule="evenodd" d="M55 96.01V136h2V96.01a41.04 41.04 0 0 0-2 0Z" clip-rule="evenodd"/><path fill="#CED2DB" d="M128 28h-16v212h16V28Z"/><path fill="#CED2DB" d="M120 16c-6.6 0-12 5.4-12 12s5.4 12 12 12 12-5.4 12-12-5.4-12-12-12ZM88 240c0-17.7 14.3-32 32-32s32 14.3 32 32H88Z"/><path fill="#0A0B0D" fill-rule="evenodd" d="M121 36v172h-2V36h2Z" clip-rule="evenodd"/></svg>