<svg xmlns="http://www.w3.org/2000/svg" fill="none" viewBox="0 0 240 240"><path fill="#CED2DB" d="M240 28H32v32h208z"/><path fill="#FFFFFF" d="M200 52c-4.4 0-8-3.6-8-8s3.6-8 8-8 8 3.6 8 8-3.6 8-8 8"/><path fill="#0052FF" d="M240 60H32v168h208z"/><path fill="#0A0B0D" d="M240 176v52h-52z"/><path fill="#CED2DB" d="M188 228v-52h52z"/><path fill="#FFFFFF" d="M172 143 88 95v96z"/><path fill="#CED2DB" d="M32 28H0v200h32z"/><path fill="#FFD200" d="M200 7c-11.6 0-21 9.4-21 21h10c0-6.1 4.9-11 11-11s11 4.9 11 11-4.9 11-11 11c-1.8 0-3.5-.4-5-1.2-1.8 1.5-3 3.7-3 6.2 0 1.4.3 2.6.9 3.8 2.2.8 4.6 1.2 7.1 1.2 11.6 0 21-9.4 21-21s-9.4-21-21-21"/><path fill="#0052FF" d="M195 37.8c-3.5-1.8-6-5.5-6-9.8h-10c0 9.1 5.8 16.8 13.9 19.8-.6-1.1-.9-2.4-.9-3.8 0-2.5 1.2-4.8 3-6.2"/><path fill="#FFFFFF" d="M71 52c-4.4 0-8-3.6-8-8s3.6-8 8-8 8 3.6 8 8-3.6 8-8 8"/><path fill="#FFD200" d="M71 7c-11.6 0-21 9.4-21 21h10c0-6.1 4.9-11 11-11s11 4.9 11 11-4.9 11-11 11c-1.8 0-3.5-.4-5-1.2-1.8 1.5-3 3.7-3 6.2 0 1.4.3 2.6.9 3.8 2.2.8 4.6 1.2 7.1 1.2 11.6 0 21-9.4 21-21S82.6 7 71 7"/><path fill="#0052FF" d="M66 37.8c-3.5-1.8-6-5.5-6-9.8H50c0 9.1 5.8 16.8 13.9 19.8-.6-1.2-.9-2.4-.9-3.8 0-2.5 1.2-4.8 3-6.2"/><path fill="#FFFFFF" d="M135 52c-4.4 0-8-3.6-8-8s3.6-8 8-8 8 3.6 8 8-3.6 8-8 8"/><path fill="#FFD200" d="M135 7c-11.6 0-21 9.4-21 21h10c0-6.1 4.9-11 11-11s11 4.9 11 11-4.9 11-11 11c-1.8 0-3.5-.4-5-1.2-1.8 1.5-3 3.7-3 6.2 0 1.4.3 2.6.9 3.8 2.2.8 4.6 1.2 7.1 1.2 11.6 0 21-9.4 21-21s-9.4-21-21-21"/><path fill="#0052FF" d="M130 37.8c-3.5-1.8-6-5.5-6-9.8h-10c0 9.1 5.8 16.8 13.9 19.8-.6-1.1-.9-2.4-.9-3.8 0-2.5 1.2-4.8 3-6.2M32 27.5H0V60h32z"/><path fill="#0A0B0E" fill-rule="evenodd" d="M7 228V28h2v200zm8 0V28h2v200zm8 0V28h2v200z" clip-rule="evenodd"/></svg>