<svg xmlns="http://www.w3.org/2000/svg" fill="none" viewBox="0 0 240 240"><path fill="#3CC28A" d="M240 160.5H0V208h240z"/><path fill="#3CC28A" d="M240 160.5H0V208h240zM240 32H0v47.9h240z"/><path fill="#CED2DB" d="M143.902 64c0-17.7-14.3-32-32-32-4.8 0-9.3 1.1-13.4 3-.9.3-98.3 40.3-98.4 40.3v69.1h.1c.9-.3 121.6-49.7 122.5-50.1 12.4-4.5 21.3-16.3 21.2-30.3"/><path fill="#0052FF" d="M112 32.1c-17.7 0-32 14.3-32 32 0 5.6 1.4 10.9 4 15.5h76c-.4-.6-19.5-30.4-20.2-31.3-5.5-9.7-15.9-16.2-27.8-16.2"/><path fill="#0052FF" d="M111.9 32.1c-4.8 0-9.3 1.1-13.4 3-.9.3-1.8.7-2.7 1.1C94.9 36.5.2 75.3 0 75.4v4.2h140c2.5-4.6 4-9.9 4-15.5 0-17.7-14.3-32-32.1-32"/><path fill="#FFD200" d="M80.203 64c0 17.7 14.3 32 32 32s32-14.3 32-32-14.3-32-32-32-32 14.3-32 32"/><path fill="#0A0B0D" fill-rule="evenodd" d="m112.303 60.4-.8.4-29.8 12.8c.2.6.4 1.2.6 1.9l29.2-12.5 17.8 28c.6-.4 1.1-.7 1.7-1.1z" clip-rule="evenodd"/><path fill="#0A0B0D" fill-rule="evenodd" d="m130.303 81.3-1.1-1.7c3.7-4.1 6-9.5 6-15.5 0-12.7-10.3-23-23-23s-23 10.3-23 23c0 .7 0 1.3.1 2l-1.9.8c-.1-.9-.2-1.8-.2-2.8 0-13.8 11.2-25 25-25s25 11.2 25 25c0 6.6-2.6 12.7-6.9 17.2m-38.005-5.8c4 6.9 11.4 11.5 19.9 11.5 3.1 0 6.1-.6 8.8-1.7l1 1.7c-3 1.3-6.4 2-9.8 2-9.3 0-17.5-5.1-21.8-12.7z" clip-rule="evenodd"/><path fill="#CED2DB" d="M139.8 48.3c-5.5-9.7-15.9-16.2-27.8-16.2-17.7 0-32 14.3-32 32 0 7 2.3 13.5 6.1 18.7.6 1.1 69.4 108.2 70.1 109.1 5.5 9.7 15.9 16.2 27.8 16.2 17.7 0 32-14.3 32-32 0-7-2.3-13.5-6.1-18.7-.5-1-69.4-108.1-70.1-109.1"/><path fill="#0052FF" d="M179.197 207.7h9.8c15.4-2.4 27.1-15.6 27.1-31.6 0-5.8-1.6-11.2-4.3-15.9h-76c.5.8 19.7 30.8 20.4 31.7 4.7 8.3 13.1 14.3 23 15.8"/><path fill="#FFD200" d="M152 176.1c0 17.7 14.3 32 32 32s32-14.3 32-32-14.3-32-32-32-32 14.3-32 32"/><path fill="#0A0B0D" fill-rule="evenodd" d="M207 176.1c0-12.7-10.3-23-23-23s-23 10.3-23 23 10.3 23 23 23 23-10.3 23-23m-23-25c13.8 0 25 11.2 25 25s-11.2 25-25 25-25-11.2-25-25 11.2-25 25-25" clip-rule="evenodd"/><path fill="#0A0B0D" fill-rule="evenodd" d="m172.398 182.9.3-2 16.3 2.1 2.1-16.3 2 .3-2.3 18.3z" clip-rule="evenodd"/><path fill="#0A0B0D" d="M106 64.1c0 3.3 2.7 6 6 6s6-2.7 6-6-2.7-6-6-6-6 2.7-6 6"/><path fill="#0052FF" d="M112 32c-17.7 0-32 14.3-32 32 0 5.6 1.4 10.9 4 15.5h76c-.4-.6-19.5-30.4-20.2-31.3C134.3 38.5 123.9 32 112 32"/><path fill="#FFD200" d="M134.697 41.3c-12.5-12.5-32.8-12.5-45.3 0-12.4 12.5-12.4 32.8.1 45.3s32.8 12.5 45.3 0c12.4-12.5 12.4-32.8-.1-45.3"/><path fill="#0A0B0D" fill-rule="evenodd" d="m87.4 68.3 1.9-.8c-.8-5.5.3-11.3 3.6-16.3 7-10.6 21.3-13.4 31.9-6.4s13.4 21.3 6.4 31.9c-.4.5-.8 1.1-1.2 1.6l1.1 1.8c.6-.7 1.2-1.4 1.7-2.2 7.7-11.5 4.6-27-6.9-34.7s-27-4.6-34.7 6.9c-3.7 5.6-4.9 12.1-3.8 18.2m34.8 16.3c-7.1 3.5-15.9 3.2-23-1.5-2.6-1.7-4.7-3.9-6.3-6.3l-1.9.8c1.8 2.8 4.2 5.2 7.1 7.1 7.8 5.2 17.4 5.4 25.2 1.5z" clip-rule="evenodd"/><path fill="#0A0B0D" d="M189.1 181.5 112.3 60.4l-.8.4-111 47.5v2.2l111-47.6 76.1 119.9 1.3.2z"/><path fill="#0A0B0D" d="M111.797 69.5c3.3 0 6-2.7 6-6s-2.7-6-6-6-6 2.7-6 6 2.7 6 6 6"/></svg>