<svg xmlns="http://www.w3.org/2000/svg" fill="none" viewBox="0 0 240 240"><path fill="#CED2DB" d="M240 184V56H0v128z"/><path fill="#CED2DB" d="M224 208V32H16v176z"/><path fill="#0052FF" d="M224 56H16v128h208z"/><path fill="#0A0B0D" d="M224 56H120v128h104z"/><path fill="#FFFFFF" d="M132 136h-24c-6.6 0-12-5.4-12-12s5.4-12 12-12h24c6.6 0 12 5.4 12 12s-5.4 12-12 12"/><path fill="#0052FF" d="M108 128a4 4 0 1 0 0-8 4 4 0 0 0 0 8"/><path fill="#FFD200" d="M60 152c15.464 0 28-12.536 28-28S75.464 96 60 96s-28 12.536-28 28 12.536 28 28 28"/><path fill="#0A0B0D" fill-rule="evenodd" d="M60 105c-10.493 0-19 8.507-19 19s8.507 19 19 19 19-8.507 19-19-8.507-19-19-19m-21 19c0-11.598 9.402-21 21-21s21 9.402 21 21-9.402 21-21 21-21-9.402-21-21" clip-rule="evenodd"/><path fill="#FFFFFF" fill-rule="evenodd" d="M121 32v176h-2V32z" clip-rule="evenodd"/><path fill="#0A0B0D" fill-rule="evenodd" d="M59 135.8v-23.9h2v23.9z" clip-rule="evenodd"/><path fill="#0A0B0D" fill-rule="evenodd" d="M48.102 122.8h23.8v2h-23.8z" clip-rule="evenodd"/><path fill="#0A0B0D" fill-rule="evenodd" d="m67.69 133.005-16.8-16.9 1.419-1.41 16.8 16.9z" clip-rule="evenodd"/><path fill="#0A0B0D" fill-rule="evenodd" d="m50.89 131.595 16.8-16.9 1.419 1.41-16.8 16.9zM40 73H24v-2h16zm26 8H24v-2h42z" clip-rule="evenodd"/><path stroke="#0A0B0D" stroke-miterlimit="10" stroke-width="2" d="M128 72h16"/><path fill="#3CC28A" d="M200 96h-48v8h48z"/><path fill="#3CC28A" d="M176 88h-24v9h24zm22 32h-46v8h46zm-7-17h-39v9h39z"/><path fill="#3CC28A" d="M184 111h-32v10h32z"/><path fill="#E13947" d="M191 136h-39v8h39zm1 16h-40v8h40zm-13-8h-27v8h27zm7 16h-34v8h34zm14 8h-48v8h48z"/><path fill="#FFFFFF" fill-rule="evenodd" d="M150 68h-16v-2h16zm12 9h-28v-2h28z" clip-rule="evenodd"/></svg>