<svg xmlns="http://www.w3.org/2000/svg" fill="none" viewBox="0 0 240 241"><g clip-path="url(#a)"><path fill="#CED2DB" d="m111.554 240.67 55.79-56-15.17-32.5-24.04-24.04-112.54 112.54zM0 223.73l111.86-111.86-24.04-24.04-32.5-15.18L0 127.77z"/><path fill="#5DE2F8" d="M177.756 46.1c-2.28-8.14-.21-17.25 6.18-23.66 6.37-6.34 15.38-8.42 23.47-6.23l-13.71 13.72 3.6 13.42 13.44 3.59 13.72-13.71c2.19 8.1.1 17.1-6.26 23.46-6.65 6.67-16.26 8.63-24.66 5.89l-.08.08-56.42 56.42a11.4 11.4 0 0 1-8.08 3.35c-2.92 0-5.84-1.13-8.08-3.35-4.46-4.46-4.46-11.69 0-16.17l56.89-56.83zm-49.79 71.08c2.4 0 4.34-1.95 4.34-4.37a4.34 4.34 0 0 0-4.34-4.36c-2.4 0-4.39 1.95-4.39 4.36s1.96 4.37 4.39 4.37"/><path fill="#5DE2F8" fill-rule="evenodd" d="M200.262 56 40.002 216.26 23.742 200l160.26-160.26z" clip-rule="evenodd"/><path fill="#3CC28A" d="M220 224c0-11.05 8.95-20 20-20-11.05 0-20-8.95-20-20 0 11.05-8.95 20-20 20 11.04 0 20 8.95 20 20"/><path fill="#FFD200" d="M32 32c0-8.84 7.16-16 16-16-8.84 0-16-7.16-16-16 0 8.84-7.16 16-16 16 8.83 0 16 7.16 16 16"/><path fill="#CED2DB" fill-rule="evenodd" d="m199.999 128.7-9.32 1.46c-7.69 1.3-10.36 11.47-4.37 16.39l7.04 5.8-8.66 14.99-8.61-3.22c-7.32-2.75-14.67 4.7-11.95 11.95l3.23 8.61-14.99 8.66-5.8-7.04c-4.96-6.03-15.1-3.25-16.39 4.37l-1.46 9.32h-17.39l-1.46-9.32c-1.31-7.71-11.47-10.34-16.39-4.37l-5.8 7.04-14.99-8.66 3.22-8.61c2.75-7.32-4.7-14.67-11.95-11.95l-8.61 3.22-8.66-14.99 7.04-5.8c4.62-3.8 3.04-9.24 2.91-9.67v-.03c-.92-3.48-3.77-6.1-7.27-6.7l-9.33-1.46V111.3l9.33-1.46c5.87-.99 7.22-6.44 7.33-6.92v-.03c.93-3.48-.23-7.18-2.97-9.44l-7.04-5.8 8.66-14.99 8.61 3.22c7.3 2.73 14.68-4.66 11.95-11.95l-3.22-8.61 14.99-8.66 5.8 7.04c4.93 6 15.09 3.3 16.39-4.37l1.46-9.32h17.39l1.46 9.32c1.3 7.69 11.47 10.36 16.39 4.37l5.8-7.04 14.99 8.66-3.23 8.61c-2.73 7.3 4.66 14.68 11.95 11.95l8.61-3.22 8.66 14.99-7.04 5.8c-6 4.93-3.3 15.1 4.37 16.39l9.32 1.46zm-40-8.7c0 22.09-17.91 40-40 40s-40-17.91-40-40 17.91-40 40-40 40 17.91 40 40" clip-rule="evenodd"/><path fill="#0052FF" fill-rule="evenodd" d="M166.333 166.33c-2.42 2.42-3.58 6.1-2.22 9.73l3.23 8.61-14.99 8.66-5.8-7.04c-4.96-6.03-15.1-3.25-16.39 4.37l-1.46 9.32h-17.39l-1.46-9.32c-1.31-7.71-11.47-10.34-16.39-4.37l-5.8 7.04-14.99-8.66 3.22-8.61c2.75-7.32-4.7-14.67-11.95-11.95l-8.61 3.22-8.66-14.99 7.04-5.8c4.62-3.8 3.04-9.24 2.91-9.67v-.03c-.92-3.48-3.77-6.1-7.27-6.7l-9.33-1.46v-17.39l9.33-1.46c5.87-.99 7.22-6.44 7.33-6.92v-.03c.93-3.48-.23-7.18-2.97-9.44l-7.04-5.8 8.66-14.99 8.61 3.22c3.65 1.37 7.32.2 9.74-2.22l18.05 18.05c-7.24 7.24-11.72 17.24-11.72 28.28 0 22.09 17.91 40 40 40 11.05 0 21.05-4.48 28.28-11.72l18.05 18.05z" clip-rule="evenodd"/><path fill="#0052FF" d="M120 112c4.42 0 8 3.58 8 8s-3.58 8-8 8-8-3.58-8-8 3.58-8 8-8"/><path fill="#FFFFFF" fill-rule="evenodd" d="M120 108c6.63 0 12 5.37 12 12s-5.37 12-12 12-12-5.37-12-12 5.37-12 12-12m8 12c0-4.42-3.58-8-8-8s-8 3.58-8 8 3.58 8 8 8 8-3.58 8-8" clip-rule="evenodd"/><path fill="#0A0B0D" d="M114.34 114.34A8 8 0 0 0 112 120a7.99 7.99 0 0 0 8 8c2.13 0 4.16-.84 5.66-2.34L120 120zM73.3 182.96l2.58-6.89c2.75-7.32-4.7-14.67-11.95-11.95l-6.89 2.58 27.73-27.73a40.16 40.16 0 0 0 16.259 16.26zm81.929-81.92 27.73-27.73-6.89 2.58c-7.29 2.73-14.69-4.66-11.95-11.95l2.58-6.89-27.73 27.73a40.16 40.16 0 0 1 16.26 16.26"/><path fill="#0A0B0D" fill-rule="evenodd" d="M117.96 68.04c.68-.03 1.36-.04 2.04-.04s1.37.01 2.04.04l-.08 2c-.65-.03-1.31-.04-1.97-.04s-1.31.01-1.97.04l-.08-2zm8.15.32c1.36.16 2.71.37 4.03.63l-.39 1.96c-1.28-.25-2.57-.46-3.88-.61l.23-1.99zm-16.26.63c1.33-.26 2.67-.47 4.03-.63l.23 1.99c-1.31.15-2.6.36-3.88.61l-.39-1.96zm24.27.95c1.32.37 2.61.79 3.88 1.26l-.69 1.88c-1.22-.45-2.47-.86-3.73-1.21zM102 71.2c1.27-.47 2.57-.89 3.88-1.26l.54 1.93c-1.26.36-2.51.76-3.73 1.21zm39.78 1.57c1.24.57 2.45 1.19 3.64 1.86l-.98 1.74c-1.14-.64-2.31-1.23-3.5-1.79l.84-1.82zm-47.19 1.85c1.18-.66 2.4-1.28 3.64-1.86l.84 1.82c-1.19.55-2.36 1.15-3.5 1.79l-.98-1.74zm54.3 2.14q1.695 1.14 3.3 2.4l-1.24 1.57a52 52 0 0 0-3.18-2.31l1.11-1.66zm-61.08 2.4q1.605-1.26 3.3-2.4l1.11 1.66q-1.635 1.095-3.18 2.31l-1.24-1.57zm67.49 2.66c1 .92 1.96 1.89 2.89 2.89l-1.47 1.36c-.89-.96-1.82-1.89-2.78-2.78zM81.82 84.7c.92-1 1.89-1.96 2.89-2.89l1.36 1.47c-.96.89-1.89 1.82-2.78 2.78zm79.02 3.11q1.26 1.605 2.4 3.3l-1.66 1.11a52 52 0 0 0-2.31-3.18l1.57-1.24zm-84.08 3.3q1.14-1.695 2.4-3.3l1.57 1.24a52 52 0 0 0-2.31 3.18l-1.66-1.11zm88.62 3.48c.67 1.18 1.29 2.4 1.86 3.64l-1.82.84c-.55-1.19-1.15-2.36-1.79-3.5l1.74-.98zm-92.61 3.63a50 50 0 0 1 1.86-3.64l1.74.98c-.64 1.14-1.23 2.3-1.79 3.5l-1.82-.84zM168.8 102c.47 1.27.89 2.57 1.26 3.88l-1.93.54c-.36-1.26-.76-2.51-1.21-3.73zm-98.86 3.88c.37-1.32.79-2.61 1.26-3.88l1.88.69c-.45 1.22-.86 2.47-1.21 3.73zm101.07 3.97c.26 1.33.48 2.67.63 4.03l-1.99.23c-.15-1.31-.36-2.6-.61-3.88l1.96-.39zm-102.65 4.04c.16-1.36.37-2.71.63-4.03l1.96.39c-.25 1.28-.46 2.57-.61 3.88l-1.99-.23zm103.6 4.07c.03.68.04 1.36.04 2.04s-.01 1.37-.04 2.04l-2-.08c.02-.65.04-1.31.04-1.97s-.01-1.31-.04-1.97l2-.08zM68 120c0-.68.01-1.36.04-2.04l2 .08c-.03.65-.04 1.31-.04 1.97s.01 1.31.04 1.97l-2 .08c-.03-.68-.04-1.36-.04-2.04zm103.64 6.11c-.16 1.36-.37 2.71-.63 4.03l-1.96-.39c.25-1.27.46-2.57.61-3.88l1.99.23zm-102.65 4.04c-.26-1.33-.47-2.67-.63-4.03l1.99-.23c.15 1.31.36 2.6.61 3.88l-1.96.39zm101.07 3.97c-.37 1.32-.79 2.61-1.26 3.88l-1.88-.69c.45-1.22.85-2.47 1.21-3.73zM71.2 138a52 52 0 0 1-1.26-3.88l1.93-.54c.36 1.27.76 2.51 1.21 3.73zm96.03 3.78a50 50 0 0 1-1.86 3.64l-1.74-.98c.64-1.14 1.24-2.31 1.79-3.5l1.82.84zm-92.61 3.63a57 57 0 0 1-1.86-3.64l1.82-.84c.55 1.19 1.15 2.36 1.79 3.5l-1.74.98zm88.62 3.48q-1.14 1.695-2.4 3.3l-1.57-1.24c.81-1.03 1.58-2.08 2.31-3.17zm-84.08 3.3q-1.26-1.605-2.4-3.3l1.66-1.11c.73 1.09 1.5 2.15 2.31 3.17zm79.02 3.11c-.92 1-1.89 1.96-2.89 2.89l-1.36-1.47c.96-.89 1.89-1.82 2.78-2.78zm-73.48 2.88c-1-.92-1.96-1.89-2.89-2.89l1.47-1.36c.89.96 1.82 1.89 2.78 2.78zm67.49 2.66q-1.605 1.26-3.3 2.4l-1.11-1.66q1.635-1.095 3.18-2.31l1.24 1.57zm-61.08 2.4q-1.695-1.14-3.3-2.4l1.24-1.57q1.545 1.215 3.18 2.31l-1.11 1.66zm54.3 2.14c-1.18.66-2.4 1.28-3.64 1.86l-.84-1.82c1.19-.55 2.36-1.15 3.5-1.79l.98 1.74zm-47.19 1.85a50 50 0 0 1-3.64-1.86l.98-1.74c1.14.64 2.31 1.23 3.5 1.79l-.84 1.82zm7.66 2.83c-1.32-.37-2.61-.79-3.88-1.26l.69-1.88c1.22.45 2.47.86 3.73 1.21zM138 168.8c-1.27.47-2.57.89-3.88 1.26l-.54-1.93c1.26-.36 2.51-.76 3.73-1.21zm-24.11 2.84c-1.36-.16-2.71-.37-4.03-.63l.39-1.96c1.28.25 2.57.46 3.88.61l-.23 1.99zm16.26-.63c-1.33.26-2.67.47-4.03.63l-.23-1.99c1.31-.15 2.6-.36 3.88-.61l.39 1.96zM120 172c-.68 0-1.37-.01-2.04-.04l.08-2c.65.03 1.31.04 1.97.04s1.31-.01 1.97-.04l.08 2c-.68.03-1.36.04-2.04.04z" clip-rule="evenodd"/><path fill="#0052FF" fill-rule="evenodd" d="m182.959 73.3-27.73 27.73a40.16 40.16 0 0 0-16.26-16.26l27.73-27.73-2.58 6.89c-2.73 7.3 4.66 14.68 11.95 11.95z" clip-rule="evenodd"/></g><defs><clipPath id="a"><path fill="#FFFFFF" d="M0 0h240v240.67H0z"/></clipPath></defs></svg>