<svg xmlns="http://www.w3.org/2000/svg" fill="none" viewBox="0 0 240 240"><path fill="#FFD200" d="M196 120c24.301 0 44 19.699 44 44s-19.699 44-44 44-44-19.699-44-44 19.699-44 44-44Z"/><path fill="#00D17F" d="M160.669 131.508C152.846 124.36 142.432 120 131 120c-24.301 0-44 19.699-44 44s19.699 44 44 44c11.432 0 21.846-4.36 29.669-11.508C152.803 187.944 148 176.533 148 164c0-12.533 4.803-23.944 12.669-32.492Z"/><path fill="#FFD200" d="M44 120c-24.3 0-44-19.699-44-44 0-24.3 19.7-44 44-44s44 19.7 44 44c0 24.301-19.7 44-44 44Z"/><path fill="#00D17F" d="M79.328 108.492C87.152 115.64 97.565 120 108.997 120c24.301 0 44-19.699 44-44 0-24.3-19.699-44-44-44-11.432 0-21.845 4.36-29.669 11.508 7.866 8.548 12.67 19.96 12.67 32.492 0 12.533-4.804 23.944-12.67 32.492Z"/><path fill="#0A0B0D" fill-rule="evenodd" d="M164.914 164c0 17.167 13.917 31.083 31.083 31.083v2c-18.271 0-33.083-14.812-33.083-33.083s14.812-33.083 33.083-33.083v2c-17.166 0-31.083 13.916-31.083 31.083Zm62.167 0c0-17.167-13.917-31.083-31.084-31.083v-2c18.272 0 33.084 14.811 33.084 33.083 0 18.271-14.812 33.083-33.084 33.083v-2c17.167 0 31.084-13.916 31.084-31.083ZM75.08 76c0-17.167-13.916-31.083-31.083-31.083v-2c18.272 0 33.084 14.811 33.084 33.083 0 18.271-14.812 33.083-33.084 33.083v-2c17.167 0 31.084-13.916 31.084-31.083Zm-62.166 0c0 17.167 13.917 31.083 31.083 31.083v2c-18.271 0-33.083-14.812-33.083-33.083s14.812-33.083 33.083-33.083v2c-17.166 0-31.083 13.916-31.083 31.083Z" clip-rule="evenodd"/><path fill="#0A0B0D" fill-rule="evenodd" d="M195 184v-40h2v40h-2Z" clip-rule="evenodd"/><path fill="#0A0B0D" fill-rule="evenodd" d="M176 163h40v2h-40v-2Z" clip-rule="evenodd"/><path fill="#0A0B0D" fill-rule="evenodd" d="m184.073 174.513 22.439-22.44 1.415 1.414-22.44 22.44-1.414-1.414Z" clip-rule="evenodd"/><path fill="#0A0B0D" fill-rule="evenodd" d="m185.487 152.073 22.44 22.44-1.415 1.414-22.439-22.44 1.414-1.414ZM45 56v40h-2V56h2Z" clip-rule="evenodd"/><path fill="#0A0B0D" fill-rule="evenodd" d="M64 77H24v-2h40v2Z" clip-rule="evenodd"/><path fill="#0A0B0D" fill-rule="evenodd" d="m55.927 65.487-22.44 22.44-1.414-1.414 22.44-22.44 1.414 1.415Z" clip-rule="evenodd"/><path fill="#0A0B0D" fill-rule="evenodd" d="m54.513 87.927-22.44-22.44 1.415-1.414 22.439 22.44-1.414 1.414Z" clip-rule="evenodd"/><path fill="#5DE2F8" d="M66 120c24.3 0 44 19.699 44 44s-19.7 44-44 44-44-19.699-44-44 19.7-44 44-44Z"/><path fill="#CED2DB" fill-rule="evenodd" d="M0 207.989c.332.007.666.011 1 .011 24.3 0 44-19.699 44-44s-19.7-44-44-44c-.334 0-.668.004-1 .011v87.978Z" clip-rule="evenodd"/><path fill="#0052FF" fill-rule="evenodd" d="M98.5 134.339c7.143 7.823 11.5 18.233 11.5 29.661s-4.357 21.838-11.5 29.661C91.357 185.838 87 175.428 87 164s4.357-21.838 11.5-29.661Zm-65-.339c-7.143 7.823-11.5 18.233-11.5 29.661s4.357 21.838 11.5 29.661c7.143-7.823 11.5-18.233 11.5-29.661S40.643 141.823 33.5 134Z" clip-rule="evenodd"/><path fill="#0A0B0D" fill-rule="evenodd" d="M115 165H0v-2h115v2Z" clip-rule="evenodd"/><path fill="#0A0B0D" fill-rule="evenodd" d="M135 165h-25v-2h25v2Z" clip-rule="evenodd"/><path fill="#0A0B0D" fill-rule="evenodd" d="m133.249 164-13.96 13.96 1.414 1.414L136.077 164l-15.374-15.374-1.414 1.414 13.96 13.96Z" clip-rule="evenodd"/><path fill="#5DE2F8" d="M174 120c-24.301 0-44-19.699-44-44 0-24.3 19.699-44 44-44s44 19.7 44 44c0 24.301-19.699 44-44 44Z"/><path fill="#CED2DB" fill-rule="evenodd" d="M240 32.011a44.92 44.92 0 0 0-1-.011c-24.301 0-44 19.7-44 44 0 24.301 19.699 44 44 44 .334 0 .668-.004 1-.011V32.011Z" clip-rule="evenodd"/><path fill="#0052FF" fill-rule="evenodd" d="M141.5 105.661C134.357 97.838 130 87.428 130 76s4.357-21.839 11.5-29.661C148.643 54.161 153 64.572 153 76s-4.357 21.838-11.5 29.661Z" clip-rule="evenodd"/><path fill="#0A0B0D" fill-rule="evenodd" d="m104.415 76 13.96-13.96-1.414-1.414L101.587 76l15.374 15.374 1.414-1.414L104.415 76Z" clip-rule="evenodd"/><path fill="#0052FF" fill-rule="evenodd" d="M206.5 105.661C213.643 97.838 218 87.428 218 76s-4.357-21.839-11.5-29.661C199.357 54.161 195 64.572 195 76s4.357 21.838 11.5 29.661Z" clip-rule="evenodd"/><path fill="#0A0B0D" fill-rule="evenodd" d="M103.5 75H240v2H103.5v-2Z" clip-rule="evenodd"/></svg>