<svg xmlns="http://www.w3.org/2000/svg" fill="none" viewBox="0 0 240 240"><path fill="#CED2DB" d="M208 32H32v208h176V32Z"/><path fill="#0052FF" d="M192 32H48v184h144V32Z"/><path fill="#0A0B0D" fill-rule="evenodd" d="M79 119h82v50H79v-50Zm2 2v46h78v-46H81Z" clip-rule="evenodd"/><path fill="#0A0B0D" fill-rule="evenodd" d="M160 137H80v-2h80v2Zm0 8H80v-2h80v2Zm0 8H80v-2h80v2Zm0 8H80v-2h80v2Z" clip-rule="evenodd"/><path fill="#0A0B0D" fill-rule="evenodd" d="M65 183V32h-2v153h114V32h-2v151H65Z" clip-rule="evenodd"/><path fill="#CED2DB" fill-rule="evenodd" d="M176 16h-40a16 16 0 1 0-32 0H64a16 16 0 0 0-16 16h144a16 16 0 0 0-16-16Zm-48 0a8 8 0 1 1-16 0 8 8 0 0 1 16 0Z" clip-rule="evenodd"/><path fill="#FFD200" d="M168 200H72l48-72 48 72H72l48-72 48 72Z"/><path fill="#0A0B0D" d="M122 180h-4l-2-28h8l-2 28Zm-2 12a4 4 0 1 0 0-8 4 4 0 0 0 0 8Z"/><path fill="#0A0B0D" fill-rule="evenodd" d="M79 47h50v10H79V47Zm2 2v6h46v-6H81Zm-1 22h80v2H80v-2Zm0 8h80v2H80v-2Zm0 8h80v2H80v-2Zm0 8h80v2H80v-2Zm0 8h66.67v2H80v-2Z" clip-rule="evenodd"/></svg>