<svg xmlns="http://www.w3.org/2000/svg" fill="none" viewBox="0 0 240 240"><path fill="#0052FF" d="M96 240h144V0H96z"/><path fill="#5DE2F8" d="M96 216h144V24H96z"/><path fill="#0A0B0E" d="M.266 76.056a4 4 0 0 1 4-4h88a4 4 0 0 1 4 4v88a4 4 0 0 1-4 4h-88a4 4 0 0 1-4-4z"/><path fill="#CED2DB" fill-rule="evenodd" d="M96 216v24H0v-24zm0-192V0H0v24z" clip-rule="evenodd"/><path fill="#0A0B0D" d="M168 14c1.1 0 2-.9 2-2s-.9-2-2-2-2 .9-2 2 .9 2 2 2m8 212h-16v4h16z"/><path fill="#3CC28A" d="M168.103 208c22.036 0 39.9-17.864 39.9-39.9s-17.864-39.9-39.9-39.9-39.9 17.864-39.9 39.9 17.864 39.9 39.9 39.9"/><path fill="#CED2DB" d="M168.103 160c22.036 0 39.9-17.864 39.9-39.9s-17.864-39.9-39.9-39.9-39.9 17.864-39.9 39.9 17.864 39.9 39.9 39.9"/><path fill="#0052FF" d="M200.003 144.1c-7.3 9.7-18.8 15.9-31.9 15.9-13 0-24.6-6.2-31.9-15.9 7.3-9.7 18.8-15.9 31.9-15.9 13 0 24.6 6.3 31.9 15.9"/><path fill="#FFD200" d="M168.103 112c22.036 0 39.9-17.864 39.9-39.9s-17.864-39.9-39.9-39.9-39.9 17.864-39.9 39.9 17.864 39.9 39.9 39.9"/><path stroke="#0A0B0D" stroke-miterlimit="10" stroke-width="2" d="M168.103 104c17.618 0 31.9-14.282 31.9-31.9s-14.282-31.9-31.9-31.9-31.9 14.282-31.9 31.9 14.282 31.9 31.9 31.9ZM168 56v32m16-16h-32m27.303-11.3-22.6 22.6m22.6 0-22.6-22.6M168 118.2v73.7m-6.102-67.9 6.2-6.5 5.9 6.5"/></svg>