<svg width="64" height="64" viewBox="0 0 64 64" fill="none" xmlns="http://www.w3.org/2000/svg">
<g clip-path="url(#clip0)">
<path d="M44 3.96741L40 -0.0325928L36 3.96741L32 -0.0325928L28 3.96741L24 -0.0325928L20 3.96741L16 -0.0325928V3.96741V27.9674H48V3.96741V-0.0325928L44 3.96741Z" fill="#BFE9FF"/>
<path d="M60 27.9674H4V31.9674H8V63.9674H56V31.9674H60V27.9674Z" fill="#56B4FC"/>
<path d="M16 27.9674V51.9674V55.9674L20 51.9674L24 55.9674L28 51.9674L32 55.9674L36 51.9674L40 55.9674L44 51.9674L48 55.9674V51.9674V27.9674H16Z" fill="#1652F0"/>
<path d="M36.9501 37.0174L29.8801 44.0874L27.0501 41.2574L25.6401 42.6774L29.8801 46.9174L38.3601 38.4274L36.9501 37.0174Z" fill="white"/>
<path d="M31 11.9674L31 27.9674L33 27.9674L33 11.9674L31 11.9674Z" fill="white"/>
<path d="M38 11.9674L38 27.9674L40 27.9674L40 11.9674L38 11.9674Z" fill="white"/>
<path d="M24 11.9674L24 27.9674L26 27.9674L26 11.9674L24 11.9674Z" fill="white"/>
</g>
<defs>
<clipPath id="clip0">
<rect width="64" height="64" fill="white"/>
</clipPath>
</defs>
</svg>
