<svg width="64" height="64" viewBox="0 0 64 64" fill="none" xmlns="http://www.w3.org/2000/svg">
<g clip-path="url(#clip0)">
<path d="M64 -0.0325928H26V63.9674H64V-0.0325928Z" fill="#BFE9FF"/>
<path d="M26 57.9674C40.3594 57.9674 52 46.3268 52 31.9674C52 17.608 40.3594 5.96741 26 5.96741C11.6406 5.96741 0 17.608 0 31.9674C0 46.3268 11.6406 57.9674 26 57.9674Z" fill="#56B4FC"/>
<path d="M26 53.9674C38.1503 53.9674 48 44.1177 48 31.9674C48 19.8171 38.1503 9.96741 26 9.96741C13.8497 9.96741 4 19.8171 4 31.9674C4 44.1177 13.8497 53.9674 26 53.9674Z" fill="#BFE9FF"/>
<path d="M26 27.9674C27.6569 27.9674 29 26.6243 29 24.9674C29 23.3106 27.6569 21.9674 26 21.9674C24.3431 21.9674 23 23.3106 23 24.9674C23 26.6243 24.3431 27.9674 26 27.9674Z" fill="#56B4FC"/>
<path d="M26 5.96741V57.9674C40.36 57.9674 52 46.3274 52 31.9674C52 17.6074 40.36 5.96741 26 5.96741Z" fill="#1652F0"/>
<path d="M26 9.96741V53.9674C38.15 53.9674 48 44.1174 48 31.9674C48 19.8174 38.15 9.96741 26 9.96741Z" fill="#56B4FC"/>
<path d="M32 34.9674C33.6569 34.9674 35 33.6243 35 31.9674C35 30.3106 33.6569 28.9674 32 28.9674C30.3431 28.9674 29 30.3106 29 31.9674C29 33.6243 30.3431 34.9674 32 34.9674Z" fill="#1652F0"/>
<path d="M44 34.9674C45.6569 34.9674 47 33.6243 47 31.9674C47 30.3106 45.6569 28.9674 44 28.9674C42.3431 28.9674 41 30.3106 41 31.9674C41 33.6243 42.3431 34.9674 44 34.9674Z" fill="#1652F0"/>
<path d="M8 34.9674C9.65685 34.9674 11 33.6243 11 31.9674C11 30.3106 9.65685 28.9674 8 28.9674C6.34315 28.9674 5 30.3106 5 31.9674C5 33.6243 6.34315 34.9674 8 34.9674Z" fill="#56B4FC"/>
<path d="M38 27.9674C39.6569 27.9674 41 26.6243 41 24.9674C41 23.3106 39.6569 21.9674 38 21.9674C36.3431 21.9674 35 23.3106 35 24.9674C35 26.6243 36.3431 27.9674 38 27.9674Z" fill="#1652F0"/>
<path d="M15 27.9674C16.6569 27.9674 18 26.6243 18 24.9674C18 23.3106 16.6569 21.9674 15 21.9674C13.3431 21.9674 12 23.3106 12 24.9674C12 26.6243 13.3431 27.9674 15 27.9674Z" fill="#56B4FC"/>
<path d="M20 34.9674C21.6569 34.9674 23 33.6243 23 31.9674C23 30.3106 21.6569 28.9674 20 28.9674C18.3431 28.9674 17 30.3106 17 31.9674C17 33.6243 18.3431 34.9674 20 34.9674Z" fill="#56B4FC"/>
<path d="M32 20.9674C33.6569 20.9674 35 19.6243 35 17.9674C35 16.3106 33.6569 14.9674 32 14.9674C30.3431 14.9674 29 16.3106 29 17.9674C29 19.6243 30.3431 20.9674 32 20.9674Z" fill="#1652F0"/>
<path d="M20 20.9674C21.6569 20.9674 23 19.6243 23 17.9674C23 16.3106 21.6569 14.9674 20 14.9674C18.3431 14.9674 17 16.3106 17 17.9674C17 19.6243 18.3431 20.9674 20 20.9674Z" fill="#56B4FC"/>
<path d="M26 21.9674V27.9674C27.66 27.9674 29 26.6274 29 24.9674C29 23.3074 27.66 21.9674 26 21.9674Z" fill="#1652F0"/>
<path d="M26 41.9674C27.6569 41.9674 29 40.6243 29 38.9674C29 37.3106 27.6569 35.9674 26 35.9674C24.3431 35.9674 23 37.3106 23 38.9674C23 40.6243 24.3431 41.9674 26 41.9674Z" fill="#56B4FC"/>
<path d="M38 41.9674C39.6569 41.9674 41 40.6243 41 38.9674C41 37.3106 39.6569 35.9674 38 35.9674C36.3431 35.9674 35 37.3106 35 38.9674C35 40.6243 36.3431 41.9674 38 41.9674Z" fill="#1652F0"/>
<path d="M15 41.9674C16.6569 41.9674 18 40.6243 18 38.9674C18 37.3106 16.6569 35.9674 15 35.9674C13.3431 35.9674 12 37.3106 12 38.9674C12 40.6243 13.3431 41.9674 15 41.9674Z" fill="#56B4FC"/>
<path d="M32 48.9674C33.6569 48.9674 35 47.6243 35 45.9674C35 44.3106 33.6569 42.9674 32 42.9674C30.3431 42.9674 29 44.3106 29 45.9674C29 47.6243 30.3431 48.9674 32 48.9674Z" fill="#1652F0"/>
<path d="M20 48.9674C21.6569 48.9674 23 47.6243 23 45.9674C23 44.3106 21.6569 42.9674 20 42.9674C18.3431 42.9674 17 44.3106 17 45.9674C17 47.6243 18.3431 48.9674 20 48.9674Z" fill="#56B4FC"/>
<path d="M26 41.9674V35.9674C27.66 35.9674 29 37.3074 29 38.9674C29 40.6274 27.66 41.9674 26 41.9674Z" fill="#1652F0"/>
</g>
<defs>
<clipPath id="clip0">
<rect width="64" height="64" fill="white"/>
</clipPath>
</defs>
</svg>
