<svg xmlns="http://www.w3.org/2000/svg" fill="none" viewBox="0 0 120 120"><path fill="#CED2DB" d="M24 52h72v68H24V52z"/><path fill="#5DE2F8" fill-rule="evenodd" d="M95.78 120H24.22C26.21 102 41.47 88 60 88s33.79 14 35.78 32z" clip-rule="evenodd"/><path fill="#00D17F" d="M96 84c0 19.882-16.118 36-36 36s-36-16.118-36-36 16.118-36 36-36 36 16.118 36 36z"/><path fill="#0052FF" fill-rule="evenodd" d="M30.063 104C36.52 94.352 47.519 88 60 88c12.482 0 23.48 6.352 29.938 16-6.458 9.648-17.456 16-29.938 16-12.481 0-23.48-6.352-29.938-16z" clip-rule="evenodd"/><path fill="#FFD200" d="M96 52c0 19.882-16.118 36-36 36S24 71.882 24 52s16.118-36 36-36 36 16.118 36 36z"/><path fill="#0A0B0D" d="M88 52c0 15.464-12.536 28-28 28S32 67.464 32 52s12.536-28 28-28 28 12.536 28 28z"/><path fill="#fff" d="M60 76c13.255 0 24-10.745 24-24S73.255 28 60 28 36 38.745 36 52s10.745 24 24 24z"/><path fill="#050F1A" fill-rule="evenodd" d="m60.212 39.448.119-.198h3.336l1.546 5.749h3.46l-2.36 4.092 3.437 12.786h-3.507l-2.323-8.638-4.981 8.637h-3.91l7.65-13.252-2.467-9.176zM47.25 61.877l12.958-22.444 1.243 4.623-10.29 17.821H47.25z" clip-rule="evenodd"/></svg>