<svg xmlns="http://www.w3.org/2000/svg" fill="none" viewBox="0 0 240 240"><path fill="#CED2DB" fill-rule="evenodd" d="M104 128H64v112h40V128zm32 0v112h40V128h-40z" clip-rule="evenodd"/><path fill="#FDCF2F" d="M152 216.002c13.257 0 23.998-10.745 23.998-24.002 0 13.257 10.745 24.002 24.002 24.002-13.257 0-24.002 10.746-24.002 23.998 0-13.252-10.741-23.998-23.998-23.998z"/><path fill="#0052FF" fill-rule="evenodd" d="M176 192.345v47.31c-.002.115-.002.23-.002.345 0-13.252-10.741-23.998-23.998-23.998 13.257 0 23.998-10.745 23.998-24.002 0 .115 0 .23.002.345z" clip-rule="evenodd"/><path fill="#CED2DB" d="M240 144h-8V64h8zm-24 8h-16V64h16zm16 31.7h-8v-120h8zM200 112h-8V64h8z"/><path fill="#0052FF" d="M216.008 88V64H240c0 13.248-10.74 24-23.992 24zm0 0C202.74 88 192 77.248 192 64h24.008v24z"/><path fill="#ED702F" d="M240 64h-48c0-13.248 10.74-24 24.008-24C229.26 40 240 50.752 240 64z"/><path fill="#CED2DB" d="M40 64h-8V20h8zm-16 8H8V20h16zm8 16h-8V20h8zM8 48H0V20h8z"/><path fill="#00D17F" d="M5.858 5.858c7.81-7.81 20.474-7.81 28.284 0 7.81 7.81 7.81 20.474 0 28.284-7.81 7.81-20.474 7.81-28.284 0-7.81-7.81-7.81-20.474 0-28.284z"/><path fill="#0052FF" d="M0 20a20 20 0 0 0 40 0H0z"/><path fill="#fff" d="M14.343 14.343a8 8 0 1 1 11.314 11.314 8 8 0 0 1-11.314-11.314z"/><path fill="#FDCF2F" d="M40 127.998c-8.838 0-15.998 7.164-15.998 16.002 0-8.838-7.164-16.002-16.002-16.002 8.838 0 16.002-7.163 16.002-15.998 0 8.835 7.16 15.998 15.998 15.998zm96-96c-8.838 0-15.998 7.164-15.998 16.002 0-8.838-7.164-16.002-16.002-16.002 8.838 0 16.002-7.163 16.002-15.998 0 8.835 7.16 15.998 15.998 15.998z"/><path fill="#CED2DB" d="M48 216h-8v-24h8zm-24 16h-8v-40h8zm16 8h-8v-48h8zm-8-24h-8v-24h8z"/><path fill="#5DE2F8" d="M16 192.005h16V208c-8.832 0-16-7.16-16-15.995zm0 0C16 183.16 23.168 176 32 176v16.005H16zM32 208v-32c8.832 0 16 7.16 16 16.005C48 200.84 40.832 208 32 208z"/><path fill="#73A2FF" d="M20.686 180.686c6.249-6.248 16.38-6.248 22.628 0 6.248 6.249 6.248 16.379 0 22.628-6.249 6.248-16.38 6.248-22.628 0-6.248-6.249-6.248-16.379 0-22.628z"/><path fill="#0052FF" d="M16 192a16.002 16.002 0 0 0 16 16 16.002 16.002 0 0 0 16-16H16z"/><path fill="#fff" d="M32.001 199.943a7.971 7.971 0 0 0-7.972-7.971A7.972 7.972 0 0 0 32 184a7.971 7.971 0 0 0 7.97 7.972 7.97 7.97 0 0 0-7.97 7.971z"/><path fill="#fff" fill-rule="evenodd" d="M39.86 191.971H24.14A7.97 7.97 0 0 0 32 184a7.97 7.97 0 0 0 7.86 7.971z" clip-rule="evenodd"/><path fill="#fff" d="m216 52 12 12-12 12-12-12 12-12z"/><circle cx="120" cy="128.06" r="56" fill="#0052FF"/><circle cx="120" cy="128" r="47" stroke="#0A0B0D" stroke-width="2"/><path fill="#fff" d="M131.749 134.628c0-6.506-3.959-8.7-11.619-9.75-5.66-.818-6.748-2.147-6.748-4.787s1.915-4.285 5.577-4.285c3.337 0 5.261 1.162 6.051 3.848a1.428 1.428 0 0 0 1.348 1.032h2.928a1.297 1.297 0 0 0 1.28-.949 1.31 1.31 0 0 0 .031-.567c-.93-4.247-3.793-6.804-8.282-7.603v-4.48a1.392 1.392 0 0 0-1.395-1.394h-2.788a1.397 1.397 0 0 0-1.394 1.394v4.322c-5.577.781-9.1 4.462-9.1 9.184 0 6.107 3.718 8.477 11.489 9.527 5.288.865 6.794 2.008 6.794 5.01s-2.556 5.019-6.162 5.019c-4.862 0-6.507-2.128-7.055-4.889a1.418 1.418 0 0 0-1.367-1.134h-3.179a1.308 1.308 0 0 0-.998.457 1.312 1.312 0 0 0-.294 1.058c.809 4.648 3.793 8.05 9.872 8.868v4.406a1.397 1.397 0 0 0 1.394 1.394h2.788a1.395 1.395 0 0 0 1.395-1.394v-4.406c5.763-.911 9.434-4.889 9.434-9.881z"/><path fill="#fff" d="M109.961 154.194a27.887 27.887 0 0 1 0-52.388 2.004 2.004 0 0 0 1.199-1.756v-2.603a1.325 1.325 0 0 0-1.186-1.44 1.317 1.317 0 0 0-.673.11 33.46 33.46 0 0 0 0 63.765 1.32 1.32 0 0 0 1.859-1.329v-2.603a2.008 2.008 0 0 0-1.199-1.756zm19.789-58.076a1.32 1.32 0 0 0-1.859 1.33v2.602a2.008 2.008 0 0 0 1.199 1.756 27.887 27.887 0 0 1 0 52.388 1.86 1.86 0 0 0-1.199 1.756v2.603a1.319 1.319 0 0 0 1.859 1.329 33.469 33.469 0 0 0 16.855-12.137 33.469 33.469 0 0 0 0-39.49 33.467 33.467 0 0 0-16.855-12.137z"/></svg>