<svg xmlns="http://www.w3.org/2000/svg" fill="none" viewBox="0 0 48 48"><path fill="#CED2DB" d="M40 0H8v48h32V0z"/><path fill="#00D17F" d="M48 12H0v24h48V12z"/><path fill="#0A0B0D" fill-rule="evenodd" d="M40 12H8v24h32V12z" clip-rule="evenodd"/><path fill="#fff" d="M27.698 26.145c0-1.973-1.2-2.633-3.518-2.955-1.71-.248-2.04-.645-2.04-1.448 0-.757.578-1.297 1.695-1.297 1.133 0 1.725.442 1.905 1.477h1.68c-.157-1.567-1.065-2.497-2.58-2.767v-1.763h-1.687v1.733c-1.673.24-2.753 1.35-2.753 2.782 0 1.846 1.118 2.566 3.473 2.88 1.597.263 2.055.608 2.055 1.515 0 .908-.773 1.515-1.86 1.515-1.673 0-2.07-.825-2.19-1.822h-1.763c.12 1.635 1.005 2.865 3.045 3.142v1.755h1.688v-1.755c1.74-.277 2.85-1.492 2.85-2.992z"/><path fill="#fff" fill-rule="evenodd" d="M31 23h7v2h-7v-2zm-21 0h7v2h-7v-2zm22 4h5v2h-5v-2zm-21 0h5v2h-5v-2zm21-8h5v2h-5v-2zm-21 0h5v2h-5v-2z" clip-rule="evenodd"/></svg>