<svg xmlns="http://www.w3.org/2000/svg" fill="none" viewBox="0 0 240 121"><path fill="#CED2DB" d="M80 64h80v56H80V64z"/><path fill="#FFD200" d="M148 64c0 15.464-12.536 28-28 28S92 79.464 92 64s12.536-28 28-28 28 12.536 28 28z"/><path fill="#0052FF" d="M148 64c0 15.464-12.536 28-28 28S92 79.464 92 64h56z"/><path fill="#0A0B0D" fill-rule="evenodd" d="M120 45c-10.493 0-19 8.507-19 19s8.507 19 19 19 19-8.507 19-19-8.507-19-19-19zM99 64c0-11.598 9.402-21 21-21s21 9.402 21 21-9.402 21-21 21-21-9.402-21-21z" clip-rule="evenodd"/><path fill="#CED2DB" d="m62.585 25.71 77.274-20.706L144 20.46 66.726 41.165 62.585 25.71z"/><path fill="#0A0B0D" fill-rule="evenodd" d="M76.43 12.188A4.384 4.384 0 0 1 81 10.194l19.641 3.854-.052 1.971-19.816 2.817c-3.681.523-6.302-3.487-4.344-6.648zm4.186-.032a2.384 2.384 0 0 0-2.486 1.085c-1.064 1.719.36 3.899 2.363 3.614l13.96-1.984-13.837-2.715z" clip-rule="evenodd"/><path fill="#0A0B0D" fill-rule="evenodd" d="M119.83.559a4.384 4.384 0 0 0-4.956.558L99.792 14.276l1.03 1.68 18.57-7.468c3.449-1.388 3.714-6.17.438-7.93zm-3.641 2.065a2.384 2.384 0 0 1 2.695-.303c1.781.956 1.637 3.557-.239 4.311l-13.081 5.262 10.625-9.27z" clip-rule="evenodd"/><path fill="#0A0B0D" fill-rule="evenodd" d="m104.335 31.084-4.062-15.3 1.933-.514 4.062 15.3-1.933.514zM119 118.098V64h2v54.098h-2z" clip-rule="evenodd"/><path fill="#0A0B0D" fill-rule="evenodd" d="m120 117.175-10.604-10.604-1.415 1.414L120 120.004l12.019-12.019-1.415-1.414L120 117.175z" clip-rule="evenodd"/><path fill="#00D17F" d="M240 59.998c-11.048 0-19.998 8.954-19.998 20.002 0-11.048-8.954-20.002-20.002-20.002 11.048 0 20.002-8.954 20.002-19.998 0 11.044 8.95 19.998 19.998 19.998z"/><path fill="#5DE2F8" d="M0 88.002c8.838 0 15.998-7.164 15.998-16.002 0 8.838 7.164 16.002 16.002 16.002-8.838 0-16.002 7.163-16.002 15.998 0-8.835-7.16-15.998-15.998-15.998zm200-60.003c-6.629 0-11.999 5.372-11.999 12 0-6.628-5.372-12-12.001-12 6.629 0 12.001-5.373 12.001-11.999 0 6.626 5.37 11.999 11.999 11.999z"/><path fill="#FFD200" d="M176 104.001A8 8 0 0 0 183.999 96a8 8 0 0 0 8.001 8.001 8 8 0 0 0-8.001 7.999 7.999 7.999 0 0 0-7.999-7.999z"/><path fill="#00D17F" d="M32 56a8 8 0 0 0 8-8 8 8 0 0 0 8 8 8 8 0 0 0-8 8 8 8 0 0 0-8-8z"/></svg>