<svg xmlns="http://www.w3.org/2000/svg" fill="none" viewBox="0 0 120 120"><path fill="#CED2DB" d="M96 16.15H24V88h72V16.15z"/><path fill="#0A0B0D" fill-rule="evenodd" d="M48 27.028h32v2H48v-2zm0 12h32v2H48v-2zm0 12h32v2H48v-2z" clip-rule="evenodd"/><path fill="#0A0B0D" d="M42 28a2 2 0 1 1-4 0 2 2 0 0 1 4 0zm0 12a2 2 0 1 1-4 0 2 2 0 0 1 4 0zm0 12a2 2 0 1 1-4 0 2 2 0 0 1 4 0z"/><path fill="#0A0B0D" fill-rule="evenodd" d="M48 63.028h32v2H48v-2z" clip-rule="evenodd"/><path fill="#0A0B0D" d="M42 64a2 2 0 1 1-4 0 2 2 0 0 1 4 0z"/><path fill="#5DE2F8" d="M43.925 88.075C43.925 79.197 51.122 72 60 72s16.075 7.197 16.075 16.075c0 8.879-7.197 16.076-16.075 16.076s-16.075-7.197-16.075-16.076z"/><path fill="#0052FF" fill-rule="evenodd" d="M76.075 88c-.04-8.844-7.222-16-16.075-16-8.853 0-16.035 7.156-16.075 16h32.15z" clip-rule="evenodd"/><path fill="#0A0B0D" fill-rule="evenodd" d="M50 88.075c0 5.523 4.477 10 10 10s10-4.477 10-10-4.477-10-10-10-10 4.477-10 10zm10-12c-6.627 0-12 5.373-12 12 0 6.628 5.373 12 12 12s12-5.372 12-12c0-6.627-5.373-12-12-12z" clip-rule="evenodd"/></svg>