<svg xmlns="http://www.w3.org/2000/svg" fill="none" viewBox="0 0 120 120"><path fill="#FFD200" d="M60 96c19.882 0 36-16.118 36-36S79.882 24 60 24 24 40.118 24 60s16.118 36 36 36z"/><path fill="#CED2DB" d="M84.75 54.5c10.632 0 19.25-8.618 19.25-19.25C104 24.619 95.382 16 84.75 16S65.5 24.619 65.5 35.25c0 10.632 8.618 19.25 19.25 19.25z"/><path fill="#0A0B0D" fill-rule="evenodd" d="M60 87c14.912 0 27-12.088 27-27S74.912 33 60 33 33 45.088 33 60s12.088 27 27 27zm0 2c16.016 0 29-12.984 29-29S76.016 31 60 31 31 43.984 31 60s12.984 29 29 29z" clip-rule="evenodd"/><path fill="#0052FF" fill-rule="evenodd" d="M95.002 51.546A19.16 19.16 0 0 1 84.75 54.5c-10.632 0-19.25-8.618-19.25-19.25a19.16 19.16 0 0 1 2.954-10.252c13.092 3.151 23.397 13.456 26.548 26.548z" clip-rule="evenodd"/><path fill="#00D17F" d="M35.25 104c10.632 0 19.25-8.618 19.25-19.25S45.882 65.5 35.25 65.5C24.619 65.5 16 74.118 16 84.75S24.619 104 35.25 104z"/><path fill="#0052FF" fill-rule="evenodd" d="M51.546 95.002A19.16 19.16 0 0 0 54.5 84.75c0-10.632-8.619-19.25-19.25-19.25a19.16 19.16 0 0 0-10.252 2.954c3.15 13.092 13.456 23.397 26.548 26.548z" clip-rule="evenodd"/><path fill="#0A0B0D" fill-rule="evenodd" d="M88.41 54.153C86.092 42.828 77.172 33.908 65.847 31.59a19.23 19.23 0 0 0-.275 1.986c10.44 2.19 18.662 10.412 20.852 20.852a19.23 19.23 0 0 0 1.986-.275zM33.576 65.572c2.19 10.44 10.412 18.662 20.852 20.852a19.28 19.28 0 0 1-.276 1.986C42.828 86.091 33.908 77.172 31.59 65.847a19.23 19.23 0 0 1 1.986-.275z" clip-rule="evenodd"/><path fill="#0A0B0D" d="m60 48 2.47 9.53L72 60l-9.53 2.47L60 72l-2.47-9.53L48 60l9.53-2.47L60 48z"/></svg>