<svg xmlns="http://www.w3.org/2000/svg" fill="none" viewBox="0 0 120 120"><path fill="#0A0B0D" d="M61.964 24.046a40.666 40.666 0 0 0-3.894.001l.096 1.998a38.659 38.659 0 0 1 3.369-.016c9.246.36 17.645 4.023 24.049 9.843a38.24 38.24 0 0 1 2.606 2.61 37.85 37.85 0 0 1 9.8 23.684 38.608 38.608 0 0 1-.002 3.701 37.978 37.978 0 0 1-1.084 7.364l-.001.007 1.94.485.12-.492a39.826 39.826 0 0 0 1.023-7.267l.002-.039a40.572 40.572 0 0 0-.416-8.017 39.8 39.8 0 0 0-3.37-11.014 39.92 39.92 0 0 0-4.038-6.723 40.223 40.223 0 0 0-2.492-3.033l-.03-.033a40.245 40.245 0 0 0-9.042-7.42 39.877 39.877 0 0 0-7.087-3.357 39.652 39.652 0 0 0-7.608-1.9 40.149 40.149 0 0 0-3.941-.382zm-39.902 38.47a37.994 37.994 0 0 1 1.1-7.747c0-.002 0-.005.002-.007l-1.94-.485a39.787 39.787 0 0 0-1.142 7.76 40.705 40.705 0 0 0 .413 8.055 39.8 39.8 0 0 0 3.37 11.014 39.895 39.895 0 0 0 4.038 6.723 40.198 40.198 0 0 0 15.227 12.435 39.91 39.91 0 0 0 7.387 2.597A39.916 39.916 0 0 0 60.033 104c.658 0 1.313-.016 1.964-.047l-.097-1.998a38.53 38.53 0 0 1-3.734 0c-9.102-.44-17.364-4.084-23.683-9.827a38.24 38.24 0 0 1-2.607-2.61c-5.81-6.406-9.464-14.805-9.815-24.05a38.511 38.511 0 0 1 0-2.952zm.299-11.996a39.72 39.72 0 0 1 1.504-3.626l1.808.856a37.773 37.773 0 0 0-1.429 3.444l-1.883-.674zm3.358-7.087a40.053 40.053 0 0 1 2.183-3.262l1.606 1.193a38.09 38.09 0 0 0-2.075 3.1l-1.714-1.03zm4.676-6.295c.88-.97 1.806-1.897 2.776-2.776l1.343 1.481a38.26 38.26 0 0 0-2.638 2.638l-1.481-1.343zm5.809-5.268a40.053 40.053 0 0 1 3.263-2.185l1.03 1.715a38.09 38.09 0 0 0-3.1 2.075l-1.193-1.606zm6.723-4.038a39.72 39.72 0 0 1 3.626-1.504l.674 1.883a37.76 37.76 0 0 0-3.444 1.428l-.856-1.807zm7.383-2.642a39.777 39.777 0 0 1 3.852-.762l.29 1.979a37.79 37.79 0 0 0-3.657.723l-.485-1.94zm47.395 52.29a39.72 39.72 0 0 1-1.504 3.626l-1.807-.856a37.773 37.773 0 0 0 1.428-3.444l1.883.674zm-3.357 7.087a40.053 40.053 0 0 1-2.184 3.262l-1.606-1.193a38.064 38.064 0 0 0 2.075-3.1l1.715 1.03zm-4.676 6.295c-.88.97-1.806 1.897-2.776 2.776l-1.344-1.481a38.26 38.26 0 0 0 2.638-2.638l1.482 1.343zm-5.81 5.268a40.053 40.053 0 0 1-3.262 2.185L79.57 96.6a38.064 38.064 0 0 0 3.1-2.075l1.192 1.606zm-6.722 4.038a39.807 39.807 0 0 1-3.627 1.504l-.674-1.883a37.773 37.773 0 0 0 3.444-1.428l.856 1.807zm-7.384 2.642c-1.261.315-2.546.57-3.851.762l-.291-1.979c1.24-.182 2.46-.424 3.657-.723l.485 1.94z"/><path fill="#CED2DB" d="M64.033 26h-8v40h8z"/><path fill="#CED2DB" d="m96.033 79 2.07-7.727L59.468 60.92l-2.07 7.727z"/><path fill="#CED2DB" d="M60.033 80V64h-40v16z"/><circle r="16" fill="#FFD200" transform="matrix(-1 0 0 1 60.033 64)"/><path fill="#0052FF" d="M60.016 80c-8.829-.01-15.983-7.17-15.983-16h16v16h-.017z"/><path fill="#fff" d="M50.033 63.999c5.524 0 10 4.477 10 10.001 0-5.524 4.476-10.001 10-10.001-5.524 0-10-4.477-10-9.999 0 5.522-4.476 9.999-10 9.999z"/><circle r="8" fill="#0052FF" transform="matrix(0 1 1 0 100.033 76)"/><circle r="8" fill="#00D17F" transform="matrix(0 1 1 0 20.033 72)"/><path fill="#5DE2F8" d="M60.033 32a8 8 0 1 0 0-16 8 8 0 0 0 0 16z"/><path fill="#FFD200" d="M16.033 100a8 8 0 0 1 8 8 8 8 0 0 1 8-8 8 8 0 0 1-8-8 8 8 0 0 1-8 8z"/><path fill="#5DE2F8" d="M88.033 20a8 8 0 0 1 8 8 8 8 0 0 1 8-8 8 8 0 0 1-8-8 8 8 0 0 1-8 8z"/></svg>