<svg xmlns="http://www.w3.org/2000/svg" fill="none" viewBox="0 0 240 240"><path fill="#5DE2F8" d="M120 240a120.009 120.009 0 0 1-84.853-35.147A120 120 0 0 1 120 0"/><path fill="#0052FF" d="M120 0a120.001 120.001 0 0 1 0 240"/><path fill="#fff" d="M120 220a99.999 99.999 0 0 1 0-200"/><path fill="#FFD200" d="M120 20a100 100 0 0 1 0 200"/><path fill="#0A0B0D" fill-rule="evenodd" d="M209 120h-18.95v-2H209v2zm-91 89v-18.95h2V209h-2zm-59.5-53.914-16.94 9.78-1-1.732 16.94-9.78 1 1.732zm138.94-80.22-16.94 9.78-1-1.732 16.94-9.78 1 1.732zM84.646 180.5l-9.78 16.94-1.732-1 9.78-16.94 1.732 1zm80.22-138.94-9.78 16.94-1.732-1 9.78-16.94 1.732 1zm-9.78 137.94 9.78 16.94-1.732 1-9.78-16.94 1.732-1zm25.414-26.146 16.94 9.78-1 1.732-16.94-9.78 1-1.732z" clip-rule="evenodd"/><path fill="#5DE2F8" d="M120 168a48 48 0 1 1 0-96"/><path fill="#0052FF" d="M120 72a48 48 0 0 1 0 96"/><path fill="#0A0B0D" fill-rule="evenodd" d="m148.137 100.137-39.277 39.277-15.707-15.707 1.414-1.414 14.293 14.293 37.863-37.863 1.414 1.414zm-31.589-60.099A79 79 0 0 0 40.006 118h7.944v2H29v-2h9.006a81 81 0 0 1 78.615-79.965l-6.328-6.328 1.414-1.414L120.414 39l-8.707 8.707-1.414-1.414 6.255-6.255z" clip-rule="evenodd"/></svg>