<svg xmlns="http://www.w3.org/2000/svg" fill="none" viewBox="0 0 48 48"><path fill="#CED2DB" d="M0 14h48v34H0V14z"/><path fill="#fff" d="M6 14h36v28H6V14z"/><path fill="#0052FF" d="M0 4h48v10H0V4z"/><path fill="#0A0B0D" d="M6 4h36v10H6V4z"/><path fill="#0052FF" d="M6 0h36v4H6V0zm13 9a2 2 0 1 1-4 0 2 2 0 0 1 4 0zm14 0a2 2 0 1 1-4 0 2 2 0 0 1 4 0z"/><path fill="#CED2DB" d="M10 18h4v4h-4v-4zm0 8h4v4h-4v-4zm0 8h4v4h-4v-4zm8-16h4v4h-4v-4zm0 8h4v4h-4v-4zm0 8h4v4h-4v-4z"/><path fill="#0052FF" d="M26 18h4v4h-4v-4zm0 8h4v4h-4v-4zm0 8h4v4h-4v-4z"/><path fill="#CED2DB" d="M34 18h4v4h-4v-4zm0 8h4v4h-4v-4zm0 8h4v4h-4v-4z"/></svg>