<svg xmlns="http://www.w3.org/2000/svg" fill="none" viewBox="0 0 48 48"><path fill="#CED2DB" d="M21 0v27l19.125 19.125C45 41.175 48 34.425 48 27 48 12.075 35.925 0 21 0z"/><path fill="#0052FF" d="M21 48c11.598 0 21-9.402 21-21S32.598 6 21 6 0 15.402 0 27s9.402 21 21 21z"/><path fill="#0A0B0D" d="M35.85 41.85A20.918 20.918 0 0 0 42 27c0-11.625-9.375-21-21-21v21l14.85 14.85z"/><path fill="#fff" d="M21 29a2 2 0 1 0 0-4 2 2 0 0 0 0 4z"/><path fill="#fff" fill-rule="evenodd" d="M22 14v13h-2V14h2z" clip-rule="evenodd"/><path fill="#fff" fill-rule="evenodd" d="m26.293 33.707-6-6 1.414-1.414 6 6-1.414 1.414zM22 8v3h-2V8h2zm0 35v3h-2v-3h2zm13.142-28.728-2.122 2.121-1.414-1.414 2.121-2.121 1.415 1.414zM10.394 39.02l-2.122 2.122-1.414-1.414 2.121-2.121 1.415 1.414zM40 28h-3v-2h3v2zM5 28H2v-2h3v2zm28.728 13.142-2.121-2.121 1.414-1.414 2.122 2.12-1.415 1.415zM8.98 16.393l-2.122-2.121 1.414-1.414 2.122 2.121-1.415 1.414z" clip-rule="evenodd"/></svg>