<svg width="64" height="64" viewBox="0 0 64 64" fill="none" xmlns="http://www.w3.org/2000/svg">
<path d="M0 3C0 1.34314 1.34315 0 3 0H42C43.6569 0 45 1.34315 45 3V28.7519C45 30.4088 43.6569 31.7519 42 31.7519H3C1.34315 31.7519 0 30.4088 0 28.7519V3Z" fill="#BFE9FF"/>
<path d="M19 26.8218C19 24.6126 20.7909 22.8218 23 22.8218H60C62.2091 22.8218 64 24.6126 64 26.8218V50.5737C64 52.7829 62.2091 54.5737 60 54.5737H23C20.7909 54.5737 19 52.7829 19 50.5737V26.8218Z" fill="#56B4FC"/>
<path d="M6 40.6822V30.2635H14.5L6 40.6822Z" fill="#BFE9FF"/>
<path d="M57.5 64V53.5814H49L57.5 64Z" fill="#56B4FC"/>
<path d="M17 17.8606C18.1046 17.8606 19 16.9721 19 15.8761C19 14.7801 18.1046 13.8916 17 13.8916C15.8954 13.8916 15 14.7801 15 15.8761C15 16.9721 15.8954 17.8606 17 17.8606Z" fill="white"/>
<path d="M23 17.8606C24.1046 17.8606 25 16.9721 25 15.8761C25 14.7801 24.1046 13.8916 23 13.8916C21.8954 13.8916 21 14.7801 21 15.8761C21 16.9721 21.8954 17.8606 23 17.8606Z" fill="white"/>
<path d="M29 17.8606C30.1046 17.8606 31 16.9721 31 15.8761C31 14.7801 30.1046 13.8916 29 13.8916C27.8954 13.8916 27 14.7801 27 15.8761C27 16.9721 27.8954 17.8606 29 17.8606Z" fill="white"/>
<path d="M36 42.6667C37.1046 42.6667 38 41.7783 38 40.6823C38 39.5862 37.1046 38.6978 36 38.6978C34.8954 38.6978 34 39.5862 34 40.6823C34 41.7783 34.8954 42.6667 36 42.6667Z" fill="white"/>
<path d="M42 42.6667C43.1046 42.6667 44 41.7783 44 40.6823C44 39.5862 43.1046 38.6978 42 38.6978C40.8954 38.6978 40 39.5862 40 40.6823C40 41.7783 40.8954 42.6667 42 42.6667Z" fill="white"/>
<path d="M48 42.6667C49.1046 42.6667 50 41.7783 50 40.6823C50 39.5862 49.1046 38.6978 48 38.6978C46.8954 38.6978 46 39.5862 46 40.6823C46 41.7783 46.8954 42.6667 48 42.6667Z" fill="white"/>
<mask id="mask0" mask-type="alpha" maskUnits="userSpaceOnUse" x="0" y="0" width="45" height="32">
<path d="M0 3C0 1.34314 1.34315 0 3 0H42C43.6569 0 45 1.34315 45 3V28.7519C45 30.4088 43.6569 31.7519 42 31.7519H3C1.34315 31.7519 0 30.4088 0 28.7519V3Z" fill="#1652F0"/>
</mask>
<g mask="url(#mask0)">
<path d="M19 26.8218C19 24.6126 20.7909 22.8218 23 22.8218H60C62.2091 22.8218 64 24.6126 64 26.8218V50.5737C64 52.7829 62.2091 54.5737 60 54.5737H23C20.7909 54.5737 19 52.7829 19 50.5737V26.8218Z" fill="#1652F0"/>
</g>
</svg>
