<svg width="64" height="64" viewBox="0 0 64 64" fill="none" xmlns="http://www.w3.org/2000/svg">
<g clip-path="url(#clip0)">
<path d="M58 19.9674H0V15.9674C0 13.7574 1.79 11.9674 4 11.9674H58V19.9674Z" fill="#56B4FC"/>
<path d="M29 31.9674C37.8366 31.9674 45 24.804 45 15.9674C45 7.13085 37.8366 -0.0325928 29 -0.0325928C20.1634 -0.0325928 13 7.13085 13 15.9674C13 24.804 20.1634 31.9674 29 31.9674Z" fill="#BFE9FF"/>
<path d="M29 28.4674C22.11 28.4674 16.5 22.8574 16.5 15.9674C16.5 9.07741 22.11 3.46741 29 3.46741C35.89 3.46741 41.5 9.07741 41.5 15.9674C41.5 22.8574 35.89 28.4674 29 28.4674ZM29 4.46741C22.66 4.46741 17.5 9.62741 17.5 15.9674C17.5 22.3074 22.66 27.4674 29 27.4674C35.34 27.4674 40.5 22.3074 40.5 15.9674C40.5 9.62741 35.34 4.46741 29 4.46741Z" fill="white"/>
<path d="M4 63.9674H58V19.9674H0V59.9674C0 62.1774 1.79 63.9674 4 63.9674Z" fill="#1652F0"/>
<path d="M58 19.9674H4C1.79 19.9674 0 18.1774 0 15.9674V19.9674V59.9674C0 62.1774 1.79 63.9674 4 63.9674H58H62V19.9674H58Z" fill="#BFE9FF"/>
<path d="M44.48 19.9674C42.7 26.8674 36.45 31.9674 29 31.9674C21.55 31.9674 15.3 26.8674 13.52 19.9674H4C1.79 19.9674 0 18.1774 0 15.9674V19.9674V59.9674C0 62.1774 1.79 63.9674 4 63.9674H58V19.9674H44.48Z" fill="#1652F0"/>
<path d="M13.52 19.9674C15.3 26.8674 21.55 31.9674 29 31.9674C36.45 31.9674 42.7 26.8674 44.48 19.9674H13.52Z" fill="#56B4FC"/>
<path d="M40.8299 19.9674H39.7599C38.0899 24.4574 33.7899 27.4674 28.9999 27.4674C24.2099 27.4674 19.9099 24.4574 18.2399 19.9674H17.1699L17.2299 20.1374C18.9999 25.1174 23.7299 28.4674 28.9999 28.4674C34.2699 28.4674 39.0099 25.1174 40.7699 20.1374L40.8299 19.9674Z" fill="#BFE9FF"/>
<path d="M62 51.9674H46V35.9674H62C63.1 35.9674 64 36.8674 64 37.9674V49.9674C64 51.0674 63.1 51.9674 62 51.9674Z" fill="#BFE9FF"/>
<path d="M54 45.9674C55.1046 45.9674 56 45.072 56 43.9674C56 42.8628 55.1046 41.9674 54 41.9674C52.8954 41.9674 52 42.8628 52 43.9674C52 45.072 52.8954 45.9674 54 45.9674Z" fill="white"/>
</g>
<defs>
<clipPath id="clip0">
<rect width="64" height="64" fill="white"/>
</clipPath>
</defs>
</svg>
