<svg xmlns="http://www.w3.org/2000/svg" fill="none" viewBox="0 0 48 48"><path fill="#464B55" d="M8 8h32v40H8V8Zm8 0a4 4 0 0 1 4-4h8a4 4 0 0 1 4 4H16Zm4-4a4 4 0 0 1 8 0h-8Z"/><path fill="#0A0B0D" d="M8 12h32v32H8V12Z"/><path fill="#588AF5" d="M0 12h8v32H0V12Zm40 0h8v32h-8V12Z"/><path fill="#FFFFFF" fill-rule="evenodd" d="m24 14.586 4.707 4.707-1.414 1.414L24 17.414l-3.293 3.293-1.414-1.414L24 14.586Z" clip-rule="evenodd"/><path fill="#FFFFFF" fill-rule="evenodd" d="M23 28V16h2v12h-2Zm13 6H12.5v-2H36v2Zm-4 6H17v-2h15v2Z" clip-rule="evenodd"/></svg>