<svg xmlns="http://www.w3.org/2000/svg" fill="none" viewBox="0 0 48 48"><path fill="#FFFFFF" fill-rule="evenodd" d="m36.741 1.948-6.71 25.8 1.936.504 5.71-21.959 5.35 21.944 1.944-.474-6.29-25.8-.972.237zM10.323 13.247 16.03 36.24l1.94-.482-6.71-27.03-.97.242-.974-.227-6.29 27.03 1.948.453z" clip-rule="evenodd"/><path fill="#578BFA" d="M48 25.5a10 10 0 0 1-20 0z"/><path fill="#464B55" d="M28 25.5a10 10 0 0 1 20 0z"/><path fill="#0A0B0D" fill-rule="evenodd" d="M38 20.25a5.25 5.25 0 0 0-5.25 5.25h-2a7.25 7.25 0 1 1 14.5 0h-2A5.25 5.25 0 0 0 38 20.25" clip-rule="evenodd"/><path fill="#578BFA" d="M20 34a10 10 0 0 1-20 0z"/><path fill="#464B55" d="M0 34a10 10 0 1 1 20 0z"/><path fill="#0A0B0D" fill-rule="evenodd" d="M10 28.75A5.25 5.25 0 0 0 4.75 34h-2a7.25 7.25 0 1 1 14.5 0h-2A5.25 5.25 0 0 0 10 28.75" clip-rule="evenodd"/><path fill="#464B55" fill-rule="evenodd" d="m7.758 8.55 32-8 .485 1.94L25.72 6.12v34.067A8 8 0 0 1 32 48H16a8 8 0 0 1 6.29-7.815V6.978L8.243 10.49z" clip-rule="evenodd"/></svg>