<svg xmlns="http://www.w3.org/2000/svg" fill="none" viewBox="0 0 49 49"><path fill="#464B55" fill-rule="evenodd" d="M7.18 7.18a24.5 24.5 0 1 1 34.64 34.64A24.5 24.5 0 0 1 7.18 7.18Z" clip-rule="evenodd"/><path fill="#0A0B0D" d="M12.98 12.97a16.3 16.3 0 0 1 23.05 23.06L12.98 12.97Z"/><path fill="#0A0B0D" d="M38.91 38.9A20.38 20.38 0 0 1 10.1 10.1l28.82 28.82Z"/><path fill="#588AF5" d="M36.03 36.03a16.3 16.3 0 0 1-23.05-23.06l23.05 23.06Z"/><path fill="#ECD069" d="M15.85 15.85a12.25 12.25 0 0 1 17.33 17.32L15.85 15.85Z"/><path fill="#0A0B0D" d="M33.15 33.15a12.25 12.25 0 0 1-17.32-17.32l17.32 17.32Z"/><path fill="#ECD069" d="M18.73 18.73a8.16 8.16 0 0 1 11.54 11.54"/><path fill="#0A0B0D" fill-rule="evenodd" d="M24.5 17.36c-1.9 0-3.7.75-5.05 2.1L18.01 18A9.18 9.18 0 0 1 31 31l-1.44-1.44a7.14 7.14 0 0 0-5.05-12.19Z" clip-rule="evenodd"/></svg>