<svg xmlns="http://www.w3.org/2000/svg" fill="none" viewBox="0 0 40 40"><g clip-path="url(#a)"><path fill="#578BFA" d="M19.992 39.983c11.04 0 19.991-8.95 19.991-19.991S31.033 0 19.992 0 0 8.95 0 19.992c0 11.04 8.95 19.991 19.992 19.991"/><path fill="#ECD069" d="M14.145 39.117c1.849.567 3.815.883 5.864.883s3.998-.316 5.864-.883V.883A20 20 0 0 0 20.009 0c-2.05 0-3.999.317-5.864.883z"/><path fill="#45D9F5" d="M0 19.992c0 2.032.317 3.998.883 5.864h38.234c.567-1.85.883-3.815.883-5.864s-.316-3.999-.883-5.865H.883A20 20 0 0 0 0 19.992"/><path fill="#84AAFD" d="M25.856 14.144H14.145v11.712h11.711z"/></g><defs><clipPath id="a"><path fill="#FFFFFF" d="M0 0h40v40H0z"/></clipPath></defs></svg>