<svg xmlns="http://www.w3.org/2000/svg" fill="none" viewBox="0 0 40 40"><g clip-path="url(#a)"><path fill="#ECD069" d="M20 40c11.046 0 20-8.954 20-20S31.046 0 20 0 0 8.954 0 20s8.954 20 20 20"/><path fill="#578BFA" d="M20 32.367c8.938 0 16.184-7.246 16.184-16.184C36.184 7.246 28.938 0 20 0S3.817 7.246 3.817 16.183c0 8.938 7.245 16.184 16.183 16.184"/><path fill="#45D9F5" d="M20 21.133c5.836 0 10.567-4.73 10.567-10.566S25.837 0 20 0 9.434 4.73 9.434 10.567 14.164 21.133 20 21.133"/><path fill="#84AAFD" d="M20.001 12.6a6.3 6.3 0 1 0 0-12.6 6.3 6.3 0 0 0 0 12.6"/></g><defs><clipPath id="a"><path fill="#FFFFFF" d="M0 0h40v40H0z"/></clipPath></defs></svg>