<svg xmlns="http://www.w3.org/2000/svg" fill="none" viewBox="0 0 49 49"><path fill="#464B55" fill-rule="evenodd" d="M48.66 13.511h-5.244v4.087h5.245V31.11h-5.245v4.379h5.245V49H35.15V35.489h5.237v-4.38H35.15v-5.132h-6.118v-3.029h6.118v-5.35h5.237v-4.087H35.15V0h13.51zm-10.48 32.46h7.453v-7.453H38.18zm0-35.489h7.453V3.03H38.18z" clip-rule="evenodd"/><path fill="#0A0B0D" d="M43.416 22.946H45.3v3.03h-1.883v1.885h-3.029v-1.886h-1.885v-3.029h1.885v-1.881h3.03z"/><path fill="#0000FF" fill-rule="evenodd" d="M29.92 9.503v29.92H0V9.503zM11.079 23.235l3.576 12.523 3.98-12.524zm-8.523 0 8.578 11.227L7.93 23.234zm19.259 0-3.411 10.728 8.388-10.728zM6.31 15.016c-.221.264-.417.545-.616.82-1.047 1.452-2.102 2.907-3.134 4.37h5.787l1.557-5.19zm5.198 5.19h6.737l-1.554-5.18-3.626-.01zm8.344-5.187 1.556 5.186h5.307c-1.309-1.735-2.651-3.45-3.958-5.186z" clip-rule="evenodd"/></svg>