<svg xmlns="http://www.w3.org/2000/svg" fill="none" viewBox="0 0 48 48"><path fill="#FFFFFF" d="M12 8h24v32H12V8Z"/><path fill="#588AF5" d="M0 0h48v8H0V0Zm0 40h48v8H0v-8Z"/><path fill="#464B55" d="M44 0v48h-8V0h8ZM12 0v48H4V0h8Z"/><path fill="#ECD069" d="m28 14-3.1.9L24 18l-.9-3.1L20 14l3.1-.9.9-3.1.9 3.1 3.1.9Z"/><path fill="#0A0B0D" fill-rule="evenodd" d="M31 23H17v-2h14v2Zm0 5H17v-2h14v2Zm-2 5H19v-2h10v2Z" clip-rule="evenodd"/><path fill="#0A0B0D" d="M36 40h8v8h-8v-8Zm0-40h8v8h-8V0ZM4 40h8v8H4v-8ZM4 0h8v8H4V0Z"/></svg>