<svg xmlns="http://www.w3.org/2000/svg" fill="none" viewBox="0 0 48 48"><path fill="#464B55" fill-rule="evenodd" d="M47.414 39.414A2 2 0 0 0 48 38V12a2 2 0 0 0-2-2H2a2 2 0 0 0-2 2v26a2 2 0 0 0 2 2h18.8v4.8a1.2 1.2 0 0 1-1.2 1.2h-5.2v2h19.2v-2h-5.2a1.2 1.2 0 0 1-1.2-1.2V40H46a2 2 0 0 0 1.414-.586Z" clip-rule="evenodd"/><path fill="#0A0B0D" d="M45.598 12h-43.2v23h43.2V12Z"/><path fill="#588AF5" d="M23.999 31.1a.85.85 0 0 1-.84.84L7.239 32a.85.85 0 0 1-.84-.84V.87a.84.84 0 0 1 .84-.87h15.92a.85.85 0 0 1 .84.84V31.1Z"/><path fill="#0A0B0D" d="M23.998 10h-17.6v2h17.6v-2Z"/><path fill="#ECD069" d="M24 13.8a7 7 0 1 1 0 14v-14Z"/><path fill="#0A0B0D" d="M24 13.8a7 7 0 1 0 0 14v-14Z"/></svg>