<svg xmlns="http://www.w3.org/2000/svg" fill="none" viewBox="0 0 48 48"><path fill="#578BFA" d="M6 2C6 .895 7.007 0 8.25 0h31.5C40.993 0 42 .895 42 2v44c0 1.105-1.007 2-2.25 2H8.25C7.007 48 6 47.105 6 46z"/><path fill="#464B55" d="M0 3h6v12H0zm42 0h6v12h-6z"/><path fill="#0A0B0D" d="M6 3h36v12H6z"/><path fill="#FFFFFF" d="M10 6h28v6H10z"/><circle cx="34" cy="31" r="3" fill="#0A0B0D"/><circle cx="34" cy="21" r="3" fill="#0A0B0D"/><circle cx="24" cy="31" r="3" fill="#0A0B0D"/><circle cx="24" cy="21" r="3" fill="#0A0B0D"/><circle cx="24" cy="41" r="3" fill="#0A0B0D"/><circle cx="14" cy="31" r="3" fill="#0A0B0D"/><circle cx="14" cy="21" r="3" fill="#0A0B0D"/><circle cx="14" cy="41" r="3" fill="#0A0B0D"/><circle cx="34" cy="41" r="3" fill="#0A0B0D"/></svg>