<svg xmlns="http://www.w3.org/2000/svg" fill="none" viewBox="0 0 48 48"><path fill="#588AF5" d="M0 2C0 .9.9 0 2 0h44a2 2 0 0 1 2 2v24a2 2 0 0 1-2 2H2a2 2 0 0 1-2-2V2Z"/><path fill="#F0616D" d="M36 36a12 12 0 1 1-24 0 12 12 0 0 1 24 0Z"/><path fill="#0A0B0D" fill-rule="evenodd" d="M23.2 41.2V30.1h1.7v11.1h-1.7Z" clip-rule="evenodd"/><path fill="#F0616D" fill-rule="evenodd" d="M19 37.2h10v1.7H18.9l.1-1.7Z" clip-rule="evenodd"/><path fill="#0A0B0D" fill-rule="evenodd" d="M32.94 28H15.05a11.97 11.97 0 0 1 17.9 0Z" clip-rule="evenodd"/><path fill="#0A0B0D" d="M0 4h48v6H0V4Z"/><path fill="#FFFFFF" d="M4 14h20v4H4v-4Zm24 0h8v4h-8v-4Z"/></svg>