<svg xmlns="http://www.w3.org/2000/svg" fill="none" viewBox="0 0 40 40"><g clip-path="url(#a)"><path fill="#464B55" d="M31.843 13.619H6.444L.264 40h37.759z"/><path fill="#578BFA" d="M28.63 0s1.065 1.073 2.534 2.857c3.278 3.981 8.572 11.505 8.572 18.56 0 5.809-4.954 10.313-11.105 10.313-6.15 0-11.106-4.504-11.106-10.312 0-7.089 5.29-14.594 8.568-18.565C27.557 1.08 28.62.01 28.63 0"/><path fill="#0A0B0D" d="m31.844 13.62 3.721 15.89c-1.898 1.395-4.306 2.22-6.934 2.22-6.15 0-11.105-4.504-11.106-10.312 0-2.609.719-5.274 1.788-7.799z"/><path fill="#FFFFFF" d="M21.81 20.96a7.76 7.76 0 0 0 5.86 7.523v.236a7.76 7.76 0 0 1-7.758-7.759z"/></g><defs><clipPath id="a"><path fill="#FFFFFF" d="M0 0h40v40H0z"/></clipPath></defs></svg>