<svg xmlns="http://www.w3.org/2000/svg" fill="none" viewBox="0 0 49 48"><path fill="#0A0B0D" d="M48 20H0v11h48V20Z"/><path fill="#464B55" fill-rule="evenodd" d="M34.96 9a6 6 0 0 0-12 0v39h12V9Z" clip-rule="evenodd"/><path fill="#464B55" d="M46.4 15H1.6A1.68 1.68 0 0 0 0 16.74V20h48v-3.26A1.68 1.68 0 0 0 46.4 15ZM0 46.4A1.6 1.6 0 0 0 1.6 48h44.8a1.6 1.6 0 0 0 1.6-1.6V31H0v15.4Z"/><path fill="#588AF5" d="M34.96 15h-12v5h12v-5Zm0 16h-12v17h12V31Z"/><path fill="#464B55" d="M20 0H4v31h16V0Z"/><path fill="#588AF5" d="M20 15H4v5h16v-5Z"/><path fill="#588AF5" fill-rule="evenodd" d="M6.34 25.34a8 8 0 1 0 11.32 11.32A8 8 0 0 0 6.34 25.34Z" clip-rule="evenodd"/><path fill="#FFFFFF" fill-rule="evenodd" d="m24.37 27.27 1.41 1.41L28 26.46V48h2V26.36l2.32 2.32 1.41-1.41-4.68-4.68-4.68 4.68ZM11 0h2v8.59l2.29-2.3 1.42 1.42-4.68 4.68-4.69-4.68 1.42-1.42L11 8.53V0Z" clip-rule="evenodd"/></svg>