<svg xmlns="http://www.w3.org/2000/svg" fill="none" viewBox="0 0 48 48"><path fill="#464B55" d="M28 34a14 14 0 1 1-28 0 14 14 0 0 1 28 0Z"/><path fill="#ECD069" d="M48 16a16 16 0 1 1-32 0 16 16 0 0 1 32 0Z"/><path fill="#0A0B0D" fill-rule="evenodd" d="M27.77 31.43a16.03 16.03 0 0 1-11.2-11.2 14.01 14.01 0 0 1 11.2 11.2Zm.12-19.86a.89.89 0 1 0 0 1.78.89.89 0 0 0 0-1.78Zm-2.89.89a2.89 2.89 0 1 1 5.78 0 2.89 2.89 0 0 1-5.78 0Zm11.74 6.55a.89.89 0 1 0 0 1.78.89.89 0 0 0 0-1.78Zm-2.89.89a2.89 2.89 0 1 1 5.78 0 2.89 2.89 0 0 1-5.78 0Zm4.95-9.22L27.3 23.04l-1.46-1.36L37.33 9.32l1.46 1.36Z" clip-rule="evenodd"/><path fill="#0A0B0D" d="M4.83 44.58c-.5-.44-.97-.9-1.41-1.41l15.37-15.38 1.42 1.42L4.83 44.58Z"/><path fill="#0A0B0D" fill-rule="evenodd" d="M11 27.24h9.49v9.49h-2v-7.49H11v-2Z" clip-rule="evenodd"/></svg>