<svg xmlns="http://www.w3.org/2000/svg" fill="none" viewBox="0 0 48 48"><path fill="#464B55" d="M24 48c13.255 0 24-10.745 24-24S37.255 0 24 0 0 10.745 0 24s10.745 24 24 24"/><path fill="#0A0B0D" d="M24 44c11.046 0 20-8.954 20-20S35.046 4 24 4 4 12.954 4 24s8.954 20 20 20"/><path fill="#578BFA" d="M24 48a24 24 0 0 0 0-48z"/><path fill="#578BFA" d="m24.002 44-13.33-20 13.33 5.83z"/><path fill="#0A0B0D" fill-rule="evenodd" d="M24 4v40l13.33-20z" clip-rule="evenodd"/><path fill="#FFFFFF" d="M24.002 4v25.83L10.672 24z"/></svg>