<svg xmlns="http://www.w3.org/2000/svg" fill="none" viewBox="0 0 48 48"><g clip-path="url(#a)"><g clip-path="url(#b)"><path fill="#464B55" d="M8 16.1h32V32H8z"/><path fill="#44C28D" d="M40 32c0 8.8-7.2 16-16 16S8 40.8 8 32s7.2-16 16-16 16 7.2 16 16"/><path fill="#578BFA" fill-rule="evenodd" d="M10.7 40.9c2.9-4.3 7.8-7.1 13.3-7.1s10.4 2.8 13.3 7.1C34.5 45.2 29.6 48 24 48s-10.4-2.8-13.3-7.1" clip-rule="evenodd"/><path fill="#ECD069" d="M40 16.1c0 8.8-7.2 16-16 16s-16-7.2-16-16 7.2-16 16-16 16 7.1 16 16"/><path fill="#FFFFFF" d="M36.502 16.1c0 6.9-5.6 12.4-12.4 12.4s-12.5-5.5-12.5-12.4 5.6-12.5 12.4-12.5 12.5 5.6 12.5 12.5"/><path fill="#8E76FF" d="M24 26.8c5.9 0 10.7-4.8 10.7-10.7S29.9 5.4 24 5.4s-10.7 4.8-10.7 10.7S18.1 26.8 24 26.8"/><path fill="#FFFFFF" fill-opacity=".6" d="M24 8.1v5.7l4.7 2.1z"/><path fill="#FFFFFF" d="m24 8.1-4.7 7.8 4.7-2.1z"/><path fill="#FFFFFF" fill-opacity=".6" d="M24 19.6v3.9l4.7-6.6z"/><path fill="#FFFFFF" d="M24 23.4v-3.9l-4.7-2.8z"/><path fill="#FFFFFF" fill-opacity=".2" d="m24 18.7 4.7-2.8-4.7-2.1z"/><path fill="#FFFFFF" fill-opacity=".6" d="m19.398 15.9 4.7 2.8v-4.9z"/></g></g><defs><clipPath id="a"><path fill="#FFFFFF" d="M0 0h48v48H0z"/></clipPath><clipPath id="b"><path fill="#FFFFFF" d="M0 0h48v48H0z"/></clipPath></defs></svg>