<svg xmlns="http://www.w3.org/2000/svg" fill="none" viewBox="0 0 40 40"><g clip-path="url(#a)"><path fill="#578BFA" d="M17.385 14.43 4.443 27.338a1.545 1.545 0 0 0 0 2.21l5.94 5.923c.62.707 1.595.707 2.216 0l10.193-10.166c-2.748-3.006-4.609-6.718-5.407-10.873"/><path fill="#578BFA" d="m22.438 14.166-9.84-9.724a1.555 1.555 0 0 0-2.216 0l-5.939 5.923a1.544 1.544 0 0 0 0 2.21L16.5 24.597c.886-3.978 3.014-7.603 5.939-10.431"/><path fill="#464B55" d="m35.557 27.337-12.144-12.11c-1.33 3.624-3.99 6.806-7.269 9.016l11.169 11.138c.71.707 1.596.707 2.216 0l5.94-5.922c.62-.53.62-1.592.088-2.122"/><path fill="#464B55" d="m26.16 21.945 9.397-9.37c.62-.62.62-1.592 0-2.21l-5.94-5.923a1.555 1.555 0 0 0-2.215 0L16.144 15.668a51.4 51.4 0 0 1 10.017 6.277"/><path fill="#464B55" d="M19.956 11.867 11.8 20l8.155 8.133L28.11 20z"/><path fill="#0A0B0D" d="M19.956 11.867 11.8 20l8.155 8.133L28.11 20z"/><path fill="#FFFFFF" d="M19.956 11.867 11.8 20l8.155 8.133L28.11 20z"/></g><defs><clipPath id="a"><path fill="#FFFFFF" d="M4 4h32v32H4z"/></clipPath></defs></svg>