<svg xmlns="http://www.w3.org/2000/svg" fill="none" viewBox="0 0 48 48"><path fill="#464B55" d="M35.998 24a11.597 11.597 0 0 1-3.51 8.489A11.6 11.6 0 0 1 24 35.998v11.998a23.103 23.103 0 0 0 16.997-6.999 23.105 23.105 0 0 0 7-16.997h-12Z"/><path fill="#588AF5" d="M24 12.002V.004A23.106 23.106 0 0 0 7.003 7.003 23.106 23.106 0 0 0 .003 24h11.999a11.598 11.598 0 0 1 3.51-8.489A11.6 11.6 0 0 1 24 12.002Zm-5.66 6.338A7.729 7.729 0 0 0 16.002 24a7.73 7.73 0 0 0 2.34 5.659A7.728 7.728 0 0 0 24 31.999V16a7.73 7.73 0 0 0-5.66 2.34Z"/><path fill="#ECD069" d="M31.999 24a7.73 7.73 0 0 0-2.34-5.66A7.729 7.729 0 0 0 24 16.002V32a7.73 7.73 0 0 0 5.66-2.34A7.73 7.73 0 0 0 31.999 24Z"/><path fill="#588AF5" d="M19.76 37.758a5.78 5.78 0 0 0-1.76 4.24 5.78 5.78 0 0 0 1.76 4.239 5.78 5.78 0 0 0 4.24 1.76v-12a5.778 5.778 0 0 0-4.24 1.76Z"/><path fill="#0A0B0D" d="M29.999 41.997a5.78 5.78 0 0 0-1.76-4.24A5.779 5.779 0 0 0 24 35.999v11.998a5.78 5.78 0 0 0 4.24-1.76 5.78 5.78 0 0 0 1.759-4.239Z"/><path fill="#588AF5" d="M46.236 19.76a5.78 5.78 0 0 0-4.239-1.759 5.778 5.778 0 0 0-4.24 1.76A5.778 5.778 0 0 0 35.999 24h11.998a5.78 5.78 0 0 0-1.76-4.24Z"/><path fill="#0A0B0D" d="M41.997 29.999a5.778 5.778 0 0 0 4.24-1.76A5.78 5.78 0 0 0 47.995 24H35.998a5.778 5.778 0 0 0 1.76 4.24 5.778 5.778 0 0 0 4.239 1.759Z"/><path fill="#464B55" d="M1.764 28.24a5.778 5.778 0 0 0 4.239 1.759 5.778 5.778 0 0 0 4.24-1.76A5.777 5.777 0 0 0 12.001 24H.004a5.779 5.779 0 0 0 1.76 4.24Z"/><path fill="#0A0B0D" d="M6.003 18.001a5.778 5.778 0 0 0-4.24 1.76A5.778 5.778 0 0 0 .004 24h11.999a5.78 5.78 0 0 0-1.76-4.24A5.778 5.778 0 0 0 6.002 18Z"/><path fill="#464B55" d="M28.24 10.242a5.78 5.78 0 0 0 1.759-4.239 5.78 5.78 0 0 0-1.76-4.24A5.78 5.78 0 0 0 24 .005v11.998a5.779 5.779 0 0 0 4.24-1.76Z"/><path fill="#0A0B0D" d="M18 6.003a5.78 5.78 0 0 0 1.76 4.24 5.778 5.778 0 0 0 4.24 1.76v-12a5.779 5.779 0 0 0-4.24 1.76A5.78 5.78 0 0 0 18 6.004Z"/></svg>