<svg xmlns="http://www.w3.org/2000/svg" fill="none" viewBox="0 0 48 48"><path fill="#464B55" d="M20 4c11.046 0 20 8.954 20 20s-8.954 20-20 20S0 35.046 0 24 8.954 4 20 4m0 8c-6.627 0-12 5.373-12 12s5.373 12 12 12 12-5.373 12-12-5.373-12-12-12"/><path fill="#FFFFFF" d="M22 10a2 2 0 0 0-4 0v13.985a2 2 0 0 0 .126.715c.097.26.25.505.46.714l10 10a2 2 0 1 0 2.828-2.828L22 23.172z"/><path fill="#0A0B0D" d="m26.953 33.782 1.633 1.632a2 2 0 1 0 2.828-2.828l-1.633-1.633a12 12 0 0 1-2.828 2.829M18 12.166a12.1 12.1 0 0 1 4 0V10a2 2 0 1 0-4 0z"/><path fill="#5B616E" fill-rule="evenodd" d="M48 24a8 8 0 1 1-16 0 8 8 0 0 1 16 0" clip-rule="evenodd"/><path fill="#FFFFFF" d="M38.405 16.16a8.003 8.003 0 0 0 0 15.681A19.9 19.9 0 0 0 40 24.001c0-2.784-.568-5.434-1.596-7.842"/><path fill="#0A0B0D" d="M40 29a5 5 0 0 0-5-5 5 5 0 0 0 5-5 5 5 0 0 0 5 5 5 5 0 0 0-5 5"/></svg>