<svg xmlns="http://www.w3.org/2000/svg" fill="none" viewBox="0 0 48 48"><path fill="#464B55" d="M34.125 4h-20.25C12.839 4 12 4.895 12 6v40c0 1.105.84 2 1.875 2h20.25C35.161 48 36 47.105 36 46V6c0-1.105-.84-2-1.875-2Z"/><path fill="#464B55" d="M40 48v-4H8v4h32Zm8-40H0v24h48V8Z"/><path fill="#588AF5" d="M36 8H12v24h24V8Z"/><path fill="#0A0B0D" d="M18.343 14.356a7.695 7.695 0 0 0-2.342 5.65h7.993V12a7.706 7.706 0 0 0-5.651 2.355Z"/><path fill="#FFFFFF" d="M23.994 20.006H16a7.693 7.693 0 0 0 2.342 5.65 7.71 7.71 0 0 0 5.65 2.355 7.72 7.72 0 0 0 5.664-2.355l-5.663-5.65Z"/><path fill="#464B55" d="M29.655 14.356A7.721 7.721 0 0 0 23.992 12v8.005l5.663 5.65a7.692 7.692 0 0 0 2.342-5.65 7.694 7.694 0 0 0-2.342-5.65Z"/></svg>