<svg xmlns="http://www.w3.org/2000/svg" fill="none" viewBox="0 0 48 48"><path fill="#FFFFFF" d="m40.262 8.388-1.414 1.414 2.545 2.546 1.414-1.414z"/><path fill="#464B55" fill-rule="evenodd" d="M22.4 3.2h3.2v4.864a20 20 0 0 1 11.396 4.733l2.444-2.444 1.414 1.415-2.404 2.404A20 20 0 1 1 22.4 8.064zm-9.714 13.486a16 16 0 0 1 19.304-2.548L16.01 41.862a16 16 0 0 1-3.323-25.176" clip-rule="evenodd"/><path fill="#464B55" d="M24 48a20 20 0 1 1 0-40m0 0a20 20 0 1 1 0 40"/><path fill="#0A0B0D" d="M24 44a16 16 0 1 1 0-32m0 0a16 16 0 1 1 0 32"/><path fill="#464B55" d="m23.999 28 5-8.65a10 10 0 0 0-10 17.3z"/><path fill="#578BFA" d="M29 19.35a10 10 0 0 1-10 17.3"/><path fill="#FFFFFF" d="M25 13.5h-2v3.05h2zm0 25.95h-2v3.05h2zM38.5 27h-3.05v2h3.05zm-25.95 0H9.5v2h3.05zm5.073-12.06-1.732 1 1.575 2.727 1.732-1zm12.922 22.39-1.733 1 1.575 2.728 1.733-1zM11.941 19.88l-1 1.732 2.728 1.575 1-1.732zm22.387 12.934-1 1.732 2.728 1.575 1-1.732zm-20.658-.002-2.729 1.575 1 1.732 2.728-1.575zM36.064 19.89l-2.728 1.575 1 1.732 2.728-1.574zM17.457 37.328l-1.574 2.728 1.732 1 1.575-2.728z"/><path fill="#FFFFFF" fill-rule="evenodd" d="m23.868 26.225 7.53-13.216 1.737.99L25.6 27.224a1.78 1.78 0 1 1-1.733-.999" clip-rule="evenodd"/><path fill="#FFFFFF" d="M22 4a2 2 0 0 1 0-4h4a2 2 0 0 1 0 4z"/><path fill="#0A0B0D" d="M23.999 29.78a1.78 1.78 0 1 0 0-3.56 1.78 1.78 0 0 0 0 3.56"/></svg>