<svg xmlns="http://www.w3.org/2000/svg" fill="none" viewBox="0 0 40 40"><path fill="#464B55" d="M2 10.182h26.182V33.09H6.76L2 38z"/><path fill="#578BFA" d="M8.545 2H38v24.546H14.546a6 6 0 0 1-6-6z"/><path fill="#0A0B0D" d="M8.545 10.182h13.637a6 6 0 0 1 6 6v10.363H14.545a6 6 0 0 1-6-6z"/><path fill="#FFFFFF" d="M13.823 15.02a2.74 2.74 0 0 1 3.761 0c.521.502.782 1.156.782 1.81 0-.654.26-1.308.777-1.81a2.74 2.74 0 0 1 3.76 0 2.49 2.49 0 0 1 0 3.615c-.377.373-4.537 3.82-4.537 3.82s-4.16-3.446-4.543-3.815a2.494 2.494 0 0 1 0-3.62"/></svg>