<svg xmlns="http://www.w3.org/2000/svg" fill="none" viewBox="0 0 48 48"><path fill="#464B55" d="M39 18a9 9 0 1 0 0-18 9 9 0 0 0 0 18"/><path fill="#ECD069" d="M9 48a9 9 0 1 0 0-18 9 9 0 0 0 0 18"/><path fill="#578BFA" fill-rule="evenodd" d="M36.728 36.728a18 18 0 1 1-25.456-25.456 18 18 0 0 1 25.456 25.456" clip-rule="evenodd"/><path fill="#FFFFFF" d="M18.172 26.094V24.11h4.013c1.533 0 2.502-.699 2.818-1.893h-6.831V20.21h6.808c-.293-1.217-1.262-1.87-2.795-1.87h-4.013v-2.21H30.3v1.961h-3.99a3.9 3.9 0 0 1 1.488 2.12H30.3v2.006h-2.412c-.36 2.276-2.232 3.877-5.455 3.877h-.451L28.654 32h-3.9z"/><path fill="#0A0B0D" d="M17.8 40.898A18 18 0 0 1 7.101 30.201 9 9 0 0 1 17.8 40.899M40.898 17.8A9 9 0 0 1 30.2 7.101a18 18 0 0 1 10.698 10.697"/></svg>