<svg xmlns="http://www.w3.org/2000/svg" fill="none" viewBox="0 0 49 48"><path fill="#464B55" d="M24 4.8a19.2 19.2 0 1 1-13.58 5.62A19.1 19.1 0 0 1 24 4.8M24 0a24 24 0 1 0 17 7 23.92 23.92 0 0 0-17-7"/><path fill="#464B55" d="M26.4 45.6h-4.8a57.4 57.4 0 0 1 4-21.35A51.8 51.8 0 0 1 37.1 6.7l3.4 3.4C31.54 19.06 26.4 32 26.4 45.6"/><path fill="#578BFA" d="M26.4 45.6h-4.8A49.3 49.3 0 0 0 7.1 10.5l3.4-3.4a54.1 54.1 0 0 1 15.9 38.5"/><path fill="#E66020" d="M2.4 26.4v-4.8c2.12 0 6-1.23 10.14-4.68a28.25 28.25 0 0 0 9.13-15.09L26.33 3a32.86 32.86 0 0 1-10.69 17.58C11.39 24.17 6.31 26.4 2.4 26.4"/><path fill="#FFFFFF" d="M15.946 13.46a28 28 0 0 1-3.41 3.46c.94 1.32 1.8 2.68 2.6 4.08.17-.14.34-.27.51-.42a31 31 0 0 0 3.07-3q-1.35-2.11-2.77-4.12"/><path fill="#578BFA" d="M37.33 40.48a34.06 34.06 0 0 1-5.08-19.89c.27-5.84 2.13-11.17 4.85-13.89l3.4 3.4c-1.54 1.54-3.21 5.45-3.45 10.71a29.84 29.84 0 0 0 4.43 17.34z"/><path fill="#0A0B0D" d="M8.65 41.6a2.4 2.4 0 1 0 0-4.8 2.4 2.4 0 0 0 0 4.8"/><path fill="#FFFFFF" d="M8.65 41.6a2.4 2.4 0 1 0 0-4.8 2.4 2.4 0 0 0 0 4.8"/><path fill="#44C28D" d="M39.33 41.6a2.4 2.4 0 1 0 0-4.8 2.4 2.4 0 0 0 0 4.8"/><path fill="#FFFFFF" d="M41.24 37.75a32 32 0 0 1-1.47-2.81 19.4 19.4 0 0 1-2.19 2.64c-.41.4-.82.78-1.26 1.14.26.47.52.94.8 1.41.122.288.299.549.52.77a2.4 2.4 0 0 0 3.6-3.15M24 4.8A2.4 2.4 0 1 0 24 0a2.4 2.4 0 0 0 0 4.8m-.08 24.44A58 58 0 0 0 21.6 45.6a2.4 2.4 0 0 0 4.8 0 54.8 54.8 0 0 0-2.48-16.36"/><path fill="#E66020" d="M45.6 26.4a2.4 2.4 0 1 0 0-4.8 2.4 2.4 0 0 0 0 4.8"/><path fill="#FFFFFF" d="M2.4 26.4a2.4 2.4 0 1 0 0-4.8 2.4 2.4 0 0 0 0 4.8"/><path fill="#FFFFFF" fill-rule="evenodd" d="M40.35 10.251a2.4 2.4 0 1 0-3.232-3.533L37.1 6.7c-2.72 2.72-4.58 8.05-4.85 13.89v.004l-.03.856a46.4 46.4 0 0 1 8.13-11.199" clip-rule="evenodd"/><path fill="#FFFFFF" d="M7.1 10.5c.58.58 1.15 1.17 1.7 1.78a19 19 0 0 1 1.62-1.86 22 22 0 0 1 1.76-1.55A350 350 0 0 0 10.5 7.1a2.404 2.404 0 1 0-3.4 3.4"/></svg>