<svg xmlns="http://www.w3.org/2000/svg" fill="none" viewBox="0 0 48 48"><g clip-path="url(#a)"><path fill="#464B55" d="M31.155.367H2.325v48h28.83z"/><path fill="#E66020" d="M2.324 16.367h36.039c3.982 0 7.207 3.58 7.207 8s-3.225 8-7.207 8H2.324z"/><path fill="#0A0B0D" d="M31.155 16.367H2.325v16h28.83z"/><path fill="#FFFFFF" d="M9.53 23.916c1.14 0 2.063-1.025 2.063-2.29s-.924-2.29-2.063-2.29-2.063 1.025-2.063 2.29.924 2.29 2.063 2.29"/><path fill="#FFFFFF" fill-rule="evenodd" d="M5.926 28.438c0-2.21 1.612-4 3.604-4 1.99 0 3.604 1.79 3.604 4" clip-rule="evenodd"/><path fill="#FFFFFF" d="M39.227 23.11h-5v4.8h6.46v-4.8z"/><path fill="#FFFFFF" d="M35.1 23.268h4.73v-.73c0-1.45-1.063-2.62-2.36-2.62-1.298 0-2.361 1.18-2.361 2.62v.73z"/><path fill="#E66020" d="M38.876 22.476c0-.87-.63-1.57-1.415-1.57-.783 0-1.414.7-1.414 1.57v.64h2.829z"/><path fill="#FFFFFF" stroke="#0A0B0D" stroke-miterlimit="10" d="M17.189 26.367c.995 0 1.802-.895 1.802-2s-.807-2-1.802-2-1.802.896-1.802 2 .806 2 1.802 2Zm4.957 0c.995 0 1.802-.895 1.802-2s-.807-2-1.802-2-1.802.896-1.802 2 .806 2 1.802 2Zm4.953 0c.995 0 1.802-.895 1.802-2s-.807-2-1.802-2-1.802.896-1.802 2 .807 2 1.802 2Z"/><path fill="#0A0B0D" d="M9.53 7.916c1.14 0 2.063-1.025 2.063-2.29s-.924-2.29-2.063-2.29-2.063 1.025-2.063 2.29.924 2.29 2.063 2.29"/><path fill="#0A0B0D" fill-rule="evenodd" d="M5.926 12.438c0-2.21 1.612-4 3.604-4 1.99 0 3.604 1.79 3.604 4" clip-rule="evenodd"/><path fill="#0A0B0D" d="M9.53 40.877c1.14 0 2.063-1.025 2.063-2.29s-.924-2.29-2.063-2.29-2.063 1.025-2.063 2.29.924 2.29 2.063 2.29"/><path fill="#0A0B0D" fill-rule="evenodd" d="M5.926 45.387c0-2.21 1.612-4 3.604-4 1.99 0 3.604 1.79 3.604 4" clip-rule="evenodd"/></g><defs><clipPath id="a"><path fill="#FFFFFF" d="M0 0h48v48H0z"/></clipPath></defs></svg>