<svg xmlns="http://www.w3.org/2000/svg" fill="none" viewBox="0 0 40 40"><path fill="#464B55" d="M18.33 1.67h20v36.67h-20z"/><path fill="#44C28D" d="M35 20c0 9.205-7.462 16.667-16.667 16.667-9.205 0-16.666-7.462-16.666-16.667 0-9.205 7.461-16.667 16.666-16.667S35 10.795 35 20Z"/><path fill="#588AF5" fill-rule="evenodd" d="M10 5.563v6.104h5v10l5 5 4.166-4.167v-4.167h10.751c-.836-8.422-7.942-15-16.584-15A16.59 16.59 0 0 0 10 5.563Zm-.685 28.455 2.351-2.351-5-5L10 23.333v-5L6.667 15H2.43a16.66 16.66 0 0 0-.764 5c0 5.882 3.047 11.052 7.649 14.018Z" clip-rule="evenodd"/><path fill="#588AF5" fill-rule="evenodd" d="M18.334 36.667V3.333C27.538 3.333 35 10.795 35 20c0 9.205-7.462 16.667-16.666 16.667Z" clip-rule="evenodd"/><path fill="#0A0B0D" fill-rule="evenodd" d="M18.334 25V3.333c8.642 0 15.748 6.578 16.584 15H24.167v8.334H20L18.334 25Z" clip-rule="evenodd"/></svg>