<svg xmlns="http://www.w3.org/2000/svg" fill="none" viewBox="0 0 48 48"><path fill="#464B55" d="M40 0H8v45h32V0Z"/><path fill="#588AF5" d="M42.571 16H5.43C4.643 16 4 16.7 4 17.556V44h40V17.556C44 16.7 43.357 16 42.571 16Z"/><path fill="#0A0B0D" d="M40 16H8v28h32V16Z"/><path fill="#588AF5" d="M46.5 48h-45C.675 48 0 47.1 0 46v-2h48v2c0 1.1-.675 2-1.5 2Z"/><path fill="#FFFFFF" d="M21.572 35.295 19.097 25.1l10.197 2.473-7.722 7.722Z"/><path fill="#FFFFFF" d="m24.03 31.445 1.415-1.415 4.95 4.95-1.415 1.414-4.95-4.95Z"/></svg>