<svg xmlns="http://www.w3.org/2000/svg" fill="none" viewBox="0 0 48 48"><path fill="#464B55" d="M48 24H0v24h48V24Z"/><path fill="#588AF5" d="M24 48A24 24 0 0 1 0 24h18a6 6 0 1 0 12 0h18a24 24 0 0 1-24 24Z"/><path fill="#464B55" d="M48 24H30a6 6 0 1 0-12 0H0a24 24 0 1 1 48 0Z"/><path fill="#0A0B0D" d="M9 32.98a9 9 0 1 0 0-18 9 9 0 0 0 0 18Z"/><path fill="#588AF5" d="M0 24a9 9 0 0 1 18 0H0Z"/><path fill="#FFFFFF" d="M11.09 19.89H6.91a2 2 0 0 0-2 2v4.18a2 2 0 0 0 2 2h4.18a2 2 0 0 0 2-2v-4.18a2 2 0 0 0-2-2Z"/><path fill="#588AF5" d="M39 32.98a9 9 0 1 0 0-18 9 9 0 0 0 0 18Z"/><path fill="#0A0B0D" d="M48 24a9 9 0 0 1-18 0h18Z"/><path fill="#FFFFFF" d="M38.98 23.98a3.18 3.18 0 1 0 0-6.36 3.18 3.18 0 0 0 0 6.36ZM39 24a6.351 6.351 0 0 0-6.36 6.35 9 9 0 0 0 12.71 0A6.35 6.35 0 0 0 39 24Z"/></svg>