<svg xmlns="http://www.w3.org/2000/svg" fill="none" viewBox="0 0 48 48"><g clip-path="url(#a)"><path fill="#464B55" d="M32 0H0v48h32V0Z"/><path fill="#588AF5" d="M0 16h40a8 8 0 1 1 0 16H0V16Z"/><path fill="#0A0B0D" d="M32 16H0v16h32V16Z"/><path fill="#FFFFFF" d="M8 23.55a2.29 2.29 0 1 0 0-4.58 2.29 2.29 0 0 0 0 4.58Z"/><path fill="#FFFFFF" fill-rule="evenodd" d="M4 28.07a4 4 0 1 1 8 0" clip-rule="evenodd"/><path fill="#FFFFFF" d="M40.96 22.74h-5.55v4.8h7.17v-4.8h-1.62Z"/><path fill="#FFFFFF" d="M36.38 22.9h5.25v-.73a2.62 2.62 0 0 0-5.24 0v.73h-.01Z"/><path fill="#588AF5" d="M40.57 22.11a1.57 1.57 0 1 0-3.14 0v.64h3.14v-.64Z"/><path fill="#FFFFFF" stroke="#0A0B0D" stroke-miterlimit="10" d="M16.5 26a2 2 0 1 0 0-4 2 2 0 0 0 0 4Zm5.5 0a2 2 0 1 0 0-4 2 2 0 0 0 0 4Zm5.5 0a2 2 0 1 0 0-4 2 2 0 0 0 0 4Z"/><path fill="#464B55" d="M8 39.54a2 2 0 1 0 0-4 2 2 0 0 0 0 4Z"/><path fill="#464B55" fill-rule="evenodd" d="M4.5 43.5a3.5 3.5 0 0 1 7 0" clip-rule="evenodd"/><path fill="#FFFFFF" d="M8 7.55a2.29 2.29 0 1 0 0-4.58 2.29 2.29 0 0 0 0 4.58Z"/><path fill="#FFFFFF" fill-rule="evenodd" d="M4 12.07a4 4 0 1 1 8 0" clip-rule="evenodd"/><path fill="#FFFFFF" d="M8 40.51a2.29 2.29 0 1 0 0-4.58 2.29 2.29 0 0 0 0 4.58Z"/><path fill="#FFFFFF" fill-rule="evenodd" d="M4 45.02a4 4 0 1 1 8 0" clip-rule="evenodd"/></g><defs><clipPath id="a"><path fill="#FFFFFF" d="M0 0h48v48H0z"/></clipPath></defs></svg>