<svg xmlns="http://www.w3.org/2000/svg" fill="none" viewBox="0 0 48 48"><path fill="#464B55" d="M37.58 3.13 2.57 12.51c-1 .27-1.6 1.3-1.33 2.3l6.28 23.43c.26 1 1.3 1.59 2.3 1.32l35-9.38c1-.27 1.6-1.3 1.34-2.3L39.87 4.46a1.87 1.87 0 0 0-2.3-1.32Z"/><path fill="#FFFFFF" fill-rule="evenodd" d="M6.4 35.35a4 4 0 1 0 0 8 4 4 0 0 0 0-8Zm-6 4a6 6 0 1 1 12 0 6 6 0 0 1-12 0Z" clip-rule="evenodd"/><path fill="#ECD069" d="M46.12 12.05H9.88c-1.04 0-1.88.83-1.88 1.86v24.27c0 1.03.84 1.87 1.88 1.87h36.24c1.04 0 1.88-.84 1.88-1.87V13.9c0-1.03-.84-1.86-1.88-1.86Z"/><path fill="#588AF5" fill-rule="evenodd" d="M41.9 12.05H9.89c-1.04 0-1.88.83-1.88 1.86v24.27c0 .48.18.91.48 1.24.4.2.87.26 1.33.14l35.01-9.38c1-.27 1.6-1.3 1.33-2.3l-4.24-15.83Z" clip-rule="evenodd"/><path fill="#FFFFFF" fill-rule="evenodd" d="M6.4 35.35a4 4 0 0 0-4 4 1 1 0 0 1-2 0 6 6 0 0 1 6-6 6 6 0 0 1 4.2 1.72 1 1 0 0 1-1.4 1.43 4 4 0 0 0-2.8-1.15" clip-rule="evenodd"/></svg>