<svg xmlns="http://www.w3.org/2000/svg" fill="none" viewBox="0 0 48 48"><path fill="#588AF5" d="M6 0h31.5C39.99 0 42 2.05 42 4.57v38.86A4.54 4.54 0 0 1 37.5 48H6V0Z"/><path fill="#0A0B0D" d="M6 9h36v22H6V9Z"/><path fill="#464B55" d="M42 9h6v22h-6V9ZM0 9h6v22H0V9Z"/><path fill="#FFFFFF" fill-rule="evenodd" d="M32 20a8 8 0 1 0-16 0 8 8 0 0 0 16 0Zm-11.47 1c.09 1.7.41 3.23.9 4.42A6 6 0 0 1 18.08 21h2.45Zm2 0c.1 1.57.41 2.91.83 3.86.23.54.47.87.64 1.05.17-.18.4-.51.64-1.05.42-.95.73-2.29.83-3.86h-2.94Zm2.94-2h-2.94c.1-1.57.41-2.91.83-3.86.23-.54.47-.87.64-1.05.17.18.4.51.64 1.05.42.95.73 2.29.83 3.86Zm2 2c-.09 1.7-.41 3.23-.9 4.42A6 6 0 0 0 29.92 21h-2.45Zm2.45-2h-2.45c-.09-1.7-.41-3.23-.9-4.42A6 6 0 0 1 29.92 19Zm-9.4 0h-2.44a6 6 0 0 1 3.35-4.42c-.49 1.2-.81 2.72-.9 4.42Z" clip-rule="evenodd"/><path fill="#0A0B0D" fill-rule="evenodd" d="M32 37H16v-2h16v2Zm-4 4h-8v-2h8v2Z" clip-rule="evenodd"/></svg>