<svg xmlns="http://www.w3.org/2000/svg" fill="none" viewBox="0 0 48 48"><path fill="#464B55" fill-rule="evenodd" d="M4 8h28a4 4 0 0 1 4 4v24a4 4 0 0 1-4 4H15.5v5.5L10 40H4a4 4 0 0 1-4-4V12a4 4 0 0 1 4-4Z" clip-rule="evenodd"/><path fill="#588AF5" d="M46 0H26a2 2 0 0 0-2 2v44c0 1.1.9 2 2 2h20a2 2 0 0 0 2-2V2a2 2 0 0 0-2-2Z"/><path fill="#464B55" d="M48 4H24v40h24V4Z"/><path fill="#588AF5" d="M36 36V12a4 4 0 0 0-4-4h-8v32h8a4 4 0 0 0 4-4Z"/><path fill="#ECD069" d="M36 16a8 8 0 0 1 0 16V16Z"/><path fill="#0A0B0D" fill-rule="evenodd" d="M30.34 29.66A8 8 0 0 0 36 32v-3a5 5 0 0 0 0-10v-3a8 8 0 0 0-5.66 13.66ZM36 27a3 3 0 1 0 0-6v6Z" clip-rule="evenodd"/><path fill="#588AF5" d="M12 32a8 8 0 1 0 0-16 8 8 0 0 0 0 16Z"/><path fill="#FFFFFF" d="m12 18.59 1.45 3.55 3.83.28-2.93 2.48.9 3.74L12 26.61l-3.26 2.03.9-3.74-2.92-2.48 3.83-.28L12 18.59Z"/></svg>