<svg xmlns="http://www.w3.org/2000/svg" fill="none" viewBox="0 0 48 48"><path fill="#464B55" d="M25 42a21 21 0 1 0 0-42 21 21 0 0 0 0 42Z"/><path fill="#FFFFFF" d="m27 17.5-4.22 1.28L21.5 23l-1.28-4.22L16 17.5l4.22-1.28L21.5 12l1.28 4.22L27 17.5ZM20 8l-1.5.5L18 10l-.5-1.5L16 8l1.5-.5L18 6l.5 1.5L20 8Zm-5 6.5-1.88.63L12.5 17l-.63-1.88L10 14.5l1.88-.63.62-1.87.63 1.88 1.87.62Z"/><path fill="#588AF5" d="M40 48H10l5.66-16.97A1.5 1.5 0 0 1 17.08 30h15.84c.64 0 1.22.41 1.42 1.03L40 48Z"/><path fill="#0A0B0D" d="M13.23 38.4A21.2 21.2 0 0 0 25 42c4.35 0 8.4-1.35 11.78-3.6l-2.44-7.37A1.5 1.5 0 0 0 32.92 30H17.09a1.5 1.5 0 0 0-1.43 1.03l-2.43 7.37Z"/><path fill="#588AF5" d="M43 48H7a3 3 0 0 1 3-3h30a3 3 0 0 1 3 3Z"/></svg>