<svg xmlns="http://www.w3.org/2000/svg" fill="none" viewBox="0 0 48 48"><path fill="#464B55" d="M0 22.29V48h48V22.29c-17.14-14.98-30.86 14.97-48 0Z"/><path fill="#464B55" d="M24 32.94a12.02 12.02 0 0 0 11.72-9.47c.39-1.78.36-3.62-.08-5.38-7.6.91-14.8 6.95-22.34 8.23A11.99 11.99 0 0 0 24 32.94Z"/><path fill="#588AF5" d="M18 0h12l-6 5.99L18 0Z"/><path fill="#0A0B0D" d="M27 35.94h-6v11.98h6V35.94Z"/><path fill="#588AF5" d="M24 8.98A12.01 12.01 0 0 0 12.23 23.3a11.97 11.97 0 0 0 16.36 8.73A12 12 0 0 0 36 20.96 11.97 11.97 0 0 0 24 8.98Zm0 21.72a9.76 9.76 0 0 1-9.56-11.63 9.73 9.73 0 0 1 13.3-7.1 9.75 9.75 0 0 1 3.15 15.88A9.76 9.76 0 0 1 24 30.7Z"/><path fill="#0A0B0D" d="M25.5 31.45h-3v4.49h3v-4.5Z"/><path fill="#0A0B0D" d="M35.64 18.09c-.76.1-1.5.23-2.25.41.23.8.35 1.63.36 2.46a9.72 9.72 0 0 1-13.49 8.98 9.74 9.74 0 0 1-4.7-4.12c-.74.22-1.5.4-2.26.53a12 12 0 0 0 22.34-8.26Z"/></svg>