<svg xmlns="http://www.w3.org/2000/svg" fill="none" viewBox="0 0 48 48"><path fill="#464B55" d="M36 0H12v48h24V0Z"/><path fill="#588AF5" d="M26 14H2c-1.1 0-2-.9-2-2.02V4.02C0 2.9.9 2 2 2h24c1.1 0 2 .9 2 2.02v8.06A2 2 0 0 1 26 14Z"/><path fill="#0A0B0D" d="M26 2H12v12h14a2 2 0 0 0 2-2V4a2 2 0 0 0-2-2Z"/><path fill="#588AF5" d="M46 29.9H22a2 2 0 0 1-2-2v-8c0-1.1.9-2 2-2h24a2 2 0 0 1 2 2v8a2 2 0 0 1-2 2Z"/><path fill="#0A0B0D" d="M36 17.9H22a2 2 0 0 0-2 2v8c0 1.1.9 2 2 2h14v-12Z"/><path fill="#588AF5" d="M26 45.9H2a2 2 0 0 1-2-2v-8c0-1.1.9-2 2-2h24a2 2 0 0 1 2 2v8a2 2 0 0 1-2 2Z"/><path fill="#0A0B0D" d="M28 43.9v-8a2 2 0 0 0-2-2H12v12h14a2 2 0 0 0 2-2Z"/><path stroke="#FFFFFF" stroke-miterlimit="10" stroke-width="2" d="M24 7.8H4m40 16H24m-.1 16.1h-20"/></svg>