<svg xmlns="http://www.w3.org/2000/svg" fill="none" viewBox="0 0 48 48"><path fill="#578BFA" fill-rule="evenodd" d="M16.93 22.81a5.88 5.88 0 0 0 5.88 5.88V16.93a5.88 5.88 0 0 0-5.88 5.88m8.13-5.433a5.9 5.9 0 0 0-2.25-.447v11.76a5.89 5.89 0 0 0 5.88-5.88 5.88 5.88 0 0 0-3.63-5.433" clip-rule="evenodd"/><path fill="#464B55" fill-rule="evenodd" d="M22.81 45.48a22.67 22.67 0 1 1 22.67-22.67V48H33.639V22.81h-.017A10.81 10.81 0 0 0 22.81 12zm0-11.86a10.81 10.81 0 0 1 0-21.62z" clip-rule="evenodd"/><path fill="#578BFA" fill-rule="evenodd" d="M22.81 39.6v-8.39a8.4 8.4 0 0 0-8.4 8.39V48h8.4zm8.4 8.4v-8.4a8.4 8.4 0 0 0-8.4-8.39V48z" clip-rule="evenodd"/><path fill="#0A0B0D" d="M22.81 33.62a10.74 10.74 0 0 1-4.61-1 8.38 8.38 0 0 0-3.79 7v4.27a22.6 22.6 0 0 0 8.4 1.61z"/><path fill="#ECD069" fill-rule="evenodd" d="M18.632 43.75a5.9 5.9 0 0 0 4.177 1.73V33.667a5.906 5.906 0 0 0-4.177 10.083m8.35-8.35a5.92 5.92 0 0 0-4.173-1.733V45.48a5.906 5.906 0 0 0 5.906-5.906 5.92 5.92 0 0 0-1.733-4.174" clip-rule="evenodd"/></svg>