<svg xmlns="http://www.w3.org/2000/svg" fill="none" viewBox="0 0 48 48"><path fill="#464B55" d="M17.47.899A24.037 24.037 0 0 0 4.504 10h7.621c1.31-3.857 3.151-7 5.347-9.101ZM3.21 12A23.866 23.866 0 0 0 .02 23H10v-1c.15-3.603.677-6.981 1.51-10h-8.3ZM.02 25C.53 37.46 10.54 47.47 23 47.98V25H.02Zm30.508 22.101a24.037 24.037 0 0 0 12.967-9.1h-7.621c-1.31 3.856-3.151 7-5.346 9.1ZM44.788 36a23.867 23.867 0 0 0 3.19-11H38v1c-.15 3.604-.678 6.981-1.511 10h8.3Zm3.191-13C47.468 10.54 37.459.531 24.999.02V23h22.98ZM33.757 38c-2.005 5.548-5.156 9.324-8.758 9.918V38h8.758ZM36 26c-.163 3.621-.722 7.014-1.592 10h-9.409V25h11v1ZM23 .082c-3.602.594-6.753 4.37-8.746 9.918h8.745V.082ZM13.608 12c-.863 2.986-1.412 6.38-1.559 10 0 .329-.012.66-.025.992V23h10.975V12h-9.391Z"/><path fill="#0A0B0D" d="M28 18h-4l-10 6v-5a9 9 0 0 1 9-9h5v8Zm-8 12h4l10-6v5a9 9 0 0 1-9 9h-5v-8Z"/><path fill="#588AF5" d="M48 14 36 6v4H25v8h11v4l12-8ZM12 42 0 34l12-8v4h11v8H12v4Z"/><path fill="#ECD069" d="M24 34c5.523 0 10-4.477 10-10s-4.477-10-10-10-10 4.477-10 10 4.477 10 10 10Z"/><path fill="#0A0B0D" d="M24 18a6 6 0 1 1 0 12 6 6 0 0 1 0-12Zm0-2a8 8 0 1 0 0 16.001A8 8 0 0 0 24 16Z"/></svg>