<svg xmlns="http://www.w3.org/2000/svg" fill="none" viewBox="0 0 48 48"><path fill="#588AF5" d="M3 4v22c0 9.938 18 18 18 18s18-8.062 18-18V4z"/><path fill="#0A0B0D" fill-rule="evenodd" d="M8 8h26v18.4c0 1.79-.917 3.462-2.105 4.897-1.2 1.45-2.774 2.775-4.308 3.888a45 45 0 0 1-4.22 2.69 45 45 0 0 1-1.892 1.006l-.028.014-.008.004h-.003L21 38l-.436.9-.003-.001-.008-.004-.028-.014a27 27 0 0 1-.5-.254 42 42 0 0 1-1.391-.753 45 45 0 0 1-4.221-2.69c-1.534-1.111-3.108-2.437-4.308-3.887C8.917 29.862 8 28.189 8 26.4zm13 30-.436.9.436.21.435-.21zm0-1.12.056-.029c.319-.165.777-.408 1.328-.719a43 43 0 0 0 4.029-2.567c1.466-1.062 2.892-2.275 3.942-3.543C31.417 28.738 32 27.51 32 26.4V10H10v16.4c0 1.11.583 2.338 1.645 3.622 1.05 1.268 2.476 2.48 3.942 3.543a43 43 0 0 0 4.03 2.567c.55.31 1.008.554 1.327.72z" clip-rule="evenodd"/><path fill="#464B55" d="M21 0h24v48H21z"/><path fill="#0A0B0D" fill-rule="evenodd" d="M21 44s18-8.062 18-18V4H21z" clip-rule="evenodd"/><path fill="#FFFFFF" d="m21 39.11.435-.21L21 38l.436.9.003-.001.008-.004.028-.014a27 27 0 0 0 .5-.254 42 42 0 0 0 1.391-.753 45 45 0 0 0 4.221-2.69c1.534-1.111 3.108-2.437 4.308-3.887C33.083 29.862 34 28.189 34 26.4V8H21v2h11v16.4c0 1.11-.583 2.338-1.645 3.622-1.05 1.268-2.476 2.48-3.942 3.543a43 43 0 0 1-4.03 2.567c-.55.31-1.008.554-1.327.72L21 36.88z"/><path fill="#FFFFFF" fill-rule="evenodd" d="M33 17H21v-2h12z" clip-rule="evenodd"/><path fill="#0A0B0D" fill-rule="evenodd" d="M21 17H9v-2h12z" clip-rule="evenodd"/></svg>