<svg xmlns="http://www.w3.org/2000/svg" fill="none" viewBox="0 0 48 48"><path fill="#FFFFFF" d="M36.743.711 30.031 23.92l1.922.556 6.712-23.21z"/><path fill="#FFFFFF" d="m38.684.733-1.93.523 6.287 23.203 1.93-.523zM9.31.745 3.031 23.95l1.93.523 6.28-23.206z"/><path fill="#FFFFFF" d="m11.238.72-1.922.556 6.716 23.208 1.922-.556z"/><path fill="#578BFA" d="M48 25.71a10.5 10.5 0 1 1-21 0z"/><path fill="#464B55" d="M27 25.71a10.5 10.5 0 1 1 21 0z"/><path fill="#FFFFFF" d="M45.061 25.71h-2a5.56 5.56 0 0 0-11.12 0h-2a7.56 7.56 0 0 1 15.12 0"/><path fill="#578BFA" d="M21 25.71a10.5 10.5 0 1 1-21 0z"/><path fill="#464B55" d="M0 25.71a10.5 10.5 0 0 1 21 0z"/><path fill="#FFFFFF" d="M18.061 25.71h-2a5.56 5.56 0 0 0-11.12 0h-2a7.56 7.56 0 0 1 15.12 0"/><path fill="#464B55" fill-rule="evenodd" d="M40.28 0H7.71v2h14.581v39.357A6.86 6.86 0 0 0 17.141 48h13.72a6.86 6.86 0 0 0-5.14-6.64V2h14.56z" clip-rule="evenodd"/></svg>