<svg xmlns="http://www.w3.org/2000/svg" fill="none" viewBox="0 0 48 48"><path fill="#464B55" d="M24 48a24 24 0 1 1 0-48"/><path fill="#578BFA" d="M24 0a24 24 0 1 1 0 48"/><path fill="#0A0B0D" d="M24 44a20 20 0 0 1 0-40"/><path fill="#464B55" d="M24 4a20 20 0 0 1 0 40"/><path fill="#FFFFFF" fill-rule="evenodd" d="M9.59 24.8H5.8v-2h3.79zm32.212 0h-3.79v-2h3.79zM22.8 41.8v-3.79h2v3.79zM12.102 31.706l-3.39 1.96-1.001-1.732 3.39-1.96zm27.789-16.04-3.39 1.96-1.001-1.732 3.39-1.96zM17.625 36.5l-1.96 3.39-1.731-1 1.96-3.39zM33.664 8.71l-1.96 3.39-1.731-1 1.96-3.39zm-1.96 26.79 1.96 3.39-1.731 1-1.96-3.39zm4.797-5.526 3.39 1.96-1.001 1.732-3.39-1.96z" clip-rule="evenodd"/><path fill="#464B55" d="M23.998 33.6a9.6 9.6 0 0 1 0-19.2"/><path fill="#578BFA" d="M24 14.4a9.6 9.6 0 0 1 0 19.2"/><path fill="#FFFFFF" fill-rule="evenodd" d="m30.196 20.597-8.427 8.417-3.706-3.707 1.414-1.414 2.293 2.293 7.013-7.004z" clip-rule="evenodd"/></svg>