<svg xmlns="http://www.w3.org/2000/svg" fill="none" viewBox="0 0 48 48"><path fill="#464B55" d="M0 24h48v24H0z"/><path fill="#44C28D" d="M6 8h8v16H6z"/><path fill="#0A0B0D" d="M6 24h8v8H6z"/><path fill="#F0616D" d="M20 16h8v8h-8z"/><path fill="#0A0B0D" d="M20 24h8v16h-8z"/><path fill="#44C28D" d="M34 6h8v18h-8z"/><path fill="#0A0B0D" d="M34 24h8v6h-8z"/><path fill="#F0616D" d="M23 10h2v6h-2z"/><path fill="#44C28D" d="M9 2h2v6H9zm28-2h2v6h-2z"/><path fill="#0A0B0D" d="M37 30h2v6h-2zM9 32h2v6H9zm14 8h2v6h-2z"/></svg>