<svg xmlns="http://www.w3.org/2000/svg" fill="none" viewBox="0 0 48 48"><path fill="#464B55" d="M0 0h24.25v48H0z"/><path fill="#578BFA" d="M24.25 39.662H0V8.338h24.25zm6.832-16.752c-3.34 0-5.336-2.214-5.336-5.654 0-3.474 2.031-5.756 5.37-5.756 3.306 0 5.371 2.282 5.371 5.756 0 3.406-2.1 5.654-5.405 5.654m-4.82 13.045 8.642-11.92 8.468-12.058h2.823l-8.71 12.057-8.434 11.921zm4.82-15.667c1.515 0 2.238-.988 2.238-3.032 0-2.078-.689-3.133-2.203-3.133-1.515 0-2.204 1.056-2.204 3.133 0 2.044.654 3.032 2.17 3.032M41.41 36.5c-3.34 0-5.37-2.282-5.37-5.722s2.03-5.722 5.37-5.722c3.305 0 5.336 2.282 5.336 5.722S44.715 36.5 41.41 36.5m0-2.623c1.48 0 2.169-1.021 2.169-3.1 0-2.043-.689-3.133-2.169-3.133-1.55 0-2.203 1.09-2.203 3.134 0 2.078.654 3.1 2.203 3.1"/><path fill="#0A0B0D" d="M3.125 36.5v-3.616c0-3.13 1.624-5.216 5.251-7.163l4.872-2.608c2.418-1.32 2.937-2.677 2.937-3.998v-.383c0-1.947-1.244-3.512-4.008-3.512-2.522 0-4.215 1.426-4.284 4.242H3.436c.173-5.006 3.731-7.962 8.74-7.962 5.356 0 8.569 3.234 8.569 7.267 0 2.92-1.347 5.494-5.182 7.615l-5.356 2.99c-1.865 1.043-2.556 1.843-2.556 3.269h13.474V36.5z"/></svg>