<svg xmlns="http://www.w3.org/2000/svg" fill="none" viewBox="0 0 48 48"><path fill="#464B55" d="M40 0H8v48h32z"/><path fill="#578BFA" d="M48 40V8H0v32z"/><path fill="#0A0B0D" d="M40 8H8v32h32z"/><path fill="#FFFFFF" d="M15.438 20.895H13v-1.29h6.525v1.29h-2.437v7.477h-1.643v-7.477zm5.484 4.763h1.567c.113.884.465 1.62 1.95 1.62.968 0 1.658-.54 1.658-1.35s-.405-1.118-1.83-1.35c-2.1-.285-3.09-.923-3.09-2.565 0-1.433 1.222-2.513 3.052-2.513 1.89 0 3.015.855 3.188 2.535h-1.493c-.157-.922-.69-1.312-1.695-1.312-.99 0-1.507.48-1.507 1.155 0 .712.292 1.064 1.815 1.29 2.062.285 3.127.87 3.127 2.625 0 1.522-1.29 2.707-3.225 2.707-2.392 0-3.397-1.192-3.517-2.843"/><path fill="#FFFFFF" fill-rule="evenodd" d="M32.203 16v16h-1.5V16z" clip-rule="evenodd"/><path fill="#FFFFFF" fill-rule="evenodd" d="M34.453 16.75h-6v-1.5h6zm0 16h-6v-1.5h6z" clip-rule="evenodd"/></svg>