<svg xmlns="http://www.w3.org/2000/svg" fill="none" viewBox="0 0 48 48"><path fill="#FFFFFF" fill-rule="evenodd" d="M6 4.2h42v6.4H6zm9.8 3.2a1.6 1.6 0 1 1-3.2 0 1.6 1.6 0 0 1 3.2 0M27 9a1.6 1.6 0 1 0 0-3.2A1.6 1.6 0 0 0 27 9m14.6-1.6a1.6 1.6 0 1 1-3.2 0 1.6 1.6 0 0 1 3.2 0" clip-rule="evenodd"/><path fill="#578BFA" fill-rule="evenodd" d="M6 10.6h42v27L37.6 48H6z" clip-rule="evenodd"/><path fill="#464B55" d="M37.602 48V37.6h10.4z"/><path fill="#FFFFFF" d="m34.402 28.4-16.8-9.6V38z"/><path fill="#464B55" d="M6 4.2H0V48h6z"/><path fill="#578BFA" d="M40 0a4.2 4.2 0 0 0-4.2 4.2h2A2.2 2.2 0 1 1 39 6.16a1.58 1.58 0 0 0-.41 2A4.1 4.1 0 0 0 40 8.4 4.2 4.2 0 1 0 40 0"/><path fill="#0A0B0D" d="M39 6.16a2.22 2.22 0 0 1-1.2-2h-2a4.21 4.21 0 0 0 2.79 4 1.58 1.58 0 0 1 .41-2"/><path fill="#578BFA" d="M14.2 0A4.2 4.2 0 0 0 10 4.2h2a2.2 2.2 0 1 1 1.2 1.96 1.58 1.58 0 0 0-.41 2 4.1 4.1 0 0 0 1.41.25 4.2 4.2 0 1 0 0-8.4z"/><path fill="#0A0B0D" d="M13.2 6.16a2.22 2.22 0 0 1-1.2-2h-2a4.21 4.21 0 0 0 2.79 4 1.58 1.58 0 0 1 .41-2"/><path fill="#578BFA" d="M27 0a4.2 4.2 0 0 0-4.2 4.2h2A2.2 2.2 0 1 1 26 6.16a1.58 1.58 0 0 0-.41 2A4.1 4.1 0 0 0 27 8.4 4.2 4.2 0 1 0 27 0"/><path fill="#0A0B0D" d="M26 6.16a2.22 2.22 0 0 1-1.2-2h-2a4.21 4.21 0 0 0 2.79 4 1.58 1.58 0 0 1 .41-2"/></svg>