<svg xmlns="http://www.w3.org/2000/svg" fill="none" viewBox="0 0 40 40"><path fill="#588AF5" d="M3 20a1 1 0 0 1 1-1h32a1 1 0 0 1 1 1v16a1 1 0 0 1-1 1H4a1 1 0 0 1-1-1V20Z"/><path fill="#0A0B0D" fill-rule="evenodd" d="M30.818 19H26.71a7.003 7.003 0 0 1-13.42 0H9.18a10.94 10.94 0 0 0 1.755 4.235l-2.25 2.25 2.829 2.829 2.25-2.25c1.249.86 2.685 1.47 4.235 1.755V31h4v-3.181a10.938 10.938 0 0 0 4.235-1.755l2.25 2.25 2.828-2.829-2.25-2.25A10.938 10.938 0 0 0 30.818 19Z" clip-rule="evenodd"/><path fill="#464B55" d="M22 3h-4v3.181c-1.55.285-2.986.894-4.235 1.756l-2.25-2.25-2.829 2.828 2.25 2.25A10.94 10.94 0 0 0 9.181 15H6v2h7a7 7 0 1 1 14 0h7v-2h-3.181a10.938 10.938 0 0 0-1.755-4.235l2.25-2.25-2.829-2.829-2.25 2.25A10.94 10.94 0 0 0 22 6.182V3Z"/></svg>