<svg xmlns="http://www.w3.org/2000/svg" fill="none" viewBox="0 0 49 48"><path fill="#464B55" d="M40 6.55H0V3.27C0 1.47 1.01 0 2.26 0H40v6.55Z"/><path fill="#588AF5" d="M2.48 6.55A2.47 2.47 0 0 1 0 4.09v29.46A2.47 2.47 0 0 0 2.48 36H44V6.55H2.48Z"/><circle cx="24" cy="38" r="10" fill="#44C28D"/><path fill="#0A0B0D" d="M33.8 36a10 10 0 0 0-19.6 0h19.6Z"/><path fill="#FFFFFF" fill-rule="evenodd" d="m29.7 35.41-7.2 7.21-4.2-4.2L19.7 37l2.8 2.8 5.8-5.8 1.4 1.41Z" clip-rule="evenodd"/><path fill="#464B55" d="M35 16.36h11.1a2 2 0 0 1 2 2v5.82a2 2 0 0 1-2 2H35v-9.82Z"/><path fill="#0A0B0D" fill-rule="evenodd" d="M44 16.36h-9v9.82h9v-9.82Z" clip-rule="evenodd"/><path fill="#FFFFFF" d="M39.91 22.9a1.64 1.64 0 1 0 0-3.26 1.64 1.64 0 0 0 0 3.27Z"/></svg>