<svg xmlns="http://www.w3.org/2000/svg" fill="none" viewBox="0 0 49 48"><path fill="#464B55" d="M40 6.545H0V3.273C0 1.465 1.01 0 2.257 0H40v6.545Z"/><path fill="#588AF5" d="M2.483 6.545C1.11 6.545 0 5.447 0 4.091v29.454C0 34.901 1.111 36 2.483 36H44V6.545H2.483Z"/><circle cx="23" cy="38" r="10" fill="#F0616D"/><path fill="#0A0B0D" d="M32.8 36c-.927-4.564-4.963-8-9.8-8-4.839 0-8.874 3.436-9.8 8h19.6Z"/><path fill="#464B55" d="M35 16.363h11.09a2 2 0 0 1 2 2v5.819a2 2 0 0 1-2 2H35v-9.819Z"/><path fill="#0A0B0D" fill-rule="evenodd" d="M44 16.363h-9v9.819h9v-9.819Z" clip-rule="evenodd"/><path fill="#FFFFFF" d="M39.91 22.91a1.636 1.636 0 1 0 0-3.274 1.636 1.636 0 0 0 0 3.273ZM24 32h-2v8h2v-8Zm0 10h-2v3h2v-3Z"/></svg>