<svg xmlns="http://www.w3.org/2000/svg" fill="none" viewBox="0 0 40 40"><path fill="#588AF5" d="M3 20a1 1 0 0 1 1-1h32a1 1 0 0 1 1 1v16a1 1 0 0 1-1 1H4a1 1 0 0 1-1-1V20Z"/><path fill="#0A0B0D" fill-rule="evenodd" d="M30.82 19H26.7a7 7 0 0 1-13.42 0h-4.1a10.8 10.8 0 0 0 1.75 4.23L8.69 25.5l2.82 2.82 2.25-2.25c1.25.86 2.69 1.47 4.24 1.76V31h4v-3.18c1.55-.29 2.99-.9 4.23-1.76l2.25 2.25 2.83-2.82-2.25-2.25A10.94 10.94 0 0 0 30.82 19Z" clip-rule="evenodd"/><path fill="#464B55" d="M22 3h-4v3.18c-1.55.29-2.99.9-4.23 1.76L11.5 5.69 8.7 8.5l2.25 2.25A10.94 10.94 0 0 0 9.18 15H6v2h7a7 7 0 1 1 14 0h7v-2h-3.18c-.29-1.55-.9-2.99-1.76-4.23l2.25-2.26L28.5 5.7l-2.25 2.25A10.94 10.94 0 0 0 22 6.18V3Z"/></svg>