<svg xmlns="http://www.w3.org/2000/svg" fill="none" viewBox="0 0 240 120"><path fill="var(--illustration-gray)" d="M32 64h176v56H32V64Z"/><path fill="var(--illustration-primary)" d="M56 48h32v64H56V48Z"/><path fill="var(--illustration-negative)" d="M56 48h32v16H56V48Z"/><path fill="var(--illustration-primary)" d="M104 32h32v64h-32V32Z"/><path fill="var(--illustration-positive)" d="M104 32h32v32h-32V32Z"/><path fill="var(--illustration-primary)" d="M152 64h32v8h-32v-8Z"/><path fill="var(--illustration-positive)" d="M152 8h32v56h-32V8Z"/><path fill="var(--illustration-black)" fill-rule="evenodd" d="M173.642 29.944 48.551 97.288l-.948-1.76 125.091-67.345.948 1.761Z" clip-rule="evenodd"/><path fill="var(--illustration-black)" fill-rule="evenodd" d="m174.628 28.813-4.299 11.539-1.874-.699 3.6-9.664-9.664-3.601.698-1.874 11.539 4.299ZM169 0v8h-2V0h2Zm-48 24v8h-2v-8h2ZM73 40v8h-2v-8h2Zm96 32v8h-2v-8h2Zm-48 24v8h-2v-8h2Zm-48 16v8h-2v-8h2ZM64 9H40V7h24v2Zm0 16H40v-2h24v2Zm8-8H40v-2h32v2Z" clip-rule="evenodd"/></svg>