<svg xmlns="http://www.w3.org/2000/svg" fill="none" viewBox="0 0 240 120"><path fill="var(--illustration-gray)" d="M32 104h176v16H32zM32 0h176v16H32z"/><path fill="var(--illustration-accent-2)" d="M88 0h72v120H88z"/><path fill="var(--illustration-primary)" d="M88 0h72v16H88zm0 104h72v16H88z"/><path fill="var(--illustration-white)" d="M112 36a4 4 0 1 1-8 0 4 4 0 0 1 8 0m32 0a4 4 0 1 1-8 0 4 4 0 0 1 8 0m-16 0a4 4 0 1 1-8 0 4 4 0 0 1 8 0m-16 16a4 4 0 1 1-8 0 4 4 0 0 1 8 0m0 16a4 4 0 1 1-8 0 4 4 0 0 1 8 0m32-16a4 4 0 1 1-8 0 4 4 0 0 1 8 0m0 16a4 4 0 1 1-8 0 4 4 0 0 1 8 0m-16-16a4 4 0 1 1-8 0 4 4 0 0 1 8 0m0 16a4 4 0 1 1-8 0 4 4 0 0 1 8 0m0 16a4 4 0 1 1-8 0 4 4 0 0 1 8 0"/><path fill="var(--illustration-positive)" d="M208 64c0 13.255-10.745 24-24 24s-24-10.745-24-24 10.745-24 24-24 24 10.745 24 24"/><path fill="var(--illustration-black)" d="M183 65v11h2V65h11v-2h-11V52h-2v11h-11v2zM126 8a2 2 0 1 1-4 0 2 2 0 0 1 4 0"/><path fill="var(--illustration-black)" fill-rule="evenodd" d="M128 113.034h-8v-2h8z" clip-rule="evenodd"/></svg>