<svg xmlns="http://www.w3.org/2000/svg" fill="none" viewBox="0 0 240 120"><path fill="var(--illustration-gray)" d="M208 32H32v56h176z"/><path fill="var(--illustration-primary)" fill-rule="evenodd" d="M55 120V48h2v72zm32-32V16h2v72zm32 24V40h2v72zm64-40V0h2v72zm-32 16V16h2v72z" clip-rule="evenodd"/><path fill="var(--illustration-negative)" d="M64 56H48v56h16z"/><path fill="var(--illustration-positive)" d="M96 24H80v56h16z"/><path fill="var(--illustration-negative)" d="M128 48h-16v56h16z"/><path fill="var(--illustration-positive)" d="M192 8h-16v56h16zm-32 16h-16v56h16z"/><path fill="var(--illustration-primary)" d="M160 32h-16v48h16zM64 56H48v32h16zm32-24H80v48h16zm96 0h-16v32h16zm-64 16h-16v40h16z"/><path fill="var(--illustration-invert)" fill-rule="evenodd" d="M31 0h2v118h175v2H31z" clip-rule="evenodd"/></svg>