<svg xmlns="http://www.w3.org/2000/svg" fill="none" viewBox="0 0 240 120"><path fill="var(--illustration-primary)" d="M192 0H48v120h144V0Z"/><path fill="var(--illustration-gray)" d="M240 16H0v88h240V16Z"/><path fill="var(--illustration-black)" fill-rule="evenodd" d="M192 16H48v88h144V16Z" clip-rule="evenodd"/><path fill="var(--illustration-white)" fill-rule="evenodd" d="M95 104V56h2v48h-2Zm24-16V40h2v48h-2Zm-48 8V48h2v48h-2Z" clip-rule="evenodd"/><path fill="var(--illustration-negative)" d="M104 64H88v32h16V64Z"/><path fill="var(--illustration-positive)" d="M128 48h-16v32h16V48Zm32-8h-16v24h24v-8h8v-8h-16v-8Z"/><path fill="var(--illustration-negative)" d="M160 80h8v-8h-24v24h32v-8h-16v-8Z"/><path fill="var(--illustration-positive)" d="M80 56H64v32h16V56Z"/><path fill="var(--illustration-white)" fill-rule="evenodd" d="M80 25H64v-2h16v2Zm80 0h-16v-2h16v2Zm-72 8H64v-2h24v2Z" clip-rule="evenodd"/></svg>