<svg xmlns="http://www.w3.org/2000/svg" fill="none" viewBox="0 0 240 120"><path fill="var(--illustration-gray)" d="M208 32H32v56h176V32Z"/><path fill="var(--illustration-primary)" fill-rule="evenodd" d="M55 120V48h2v72h-2Zm32-32V16h2v72h-2Zm32 24V40h2v72h-2Zm64-40V0h2v72h-2Zm-32 16V16h2v72h-2Z" clip-rule="evenodd"/><path fill="var(--illustration-negative)" d="M64 56H48v56h16V56Z"/><path fill="var(--illustration-positive)" d="M96 24H80v56h16V24Z"/><path fill="var(--illustration-negative)" d="M128 48h-16v56h16V48Z"/><path fill="var(--illustration-positive)" d="M192 8h-16v56h16V8Zm-32 16h-16v56h16V24Z"/><path fill="var(--illustration-primary)" d="M160 32h-16v48h16V32ZM64 56H48v32h16V56Zm32-24H80v48h16V32Zm96 0h-16v32h16V32Zm-64 16h-16v40h16V48Z"/><path fill="var(--illustration-invert)" fill-rule="evenodd" d="M31 0h2v118h175v2H31V0Z" clip-rule="evenodd"/></svg>