<svg xmlns="http://www.w3.org/2000/svg" fill="none" viewBox="0 0 240 120"><path fill="var(--illustration-primary)" d="M240 24H0v72h240z"/><path fill="var(--illustration-black)" d="M112 24H40v72h72z"/><path fill="var(--illustration-gray)" d="M112 0H40v24h72zm88 0h-72v24h72zm-88 96H40v24h72zm88 0h-72v24h72z"/><path fill="var(--illustration-black)" d="M200 24h-72v72h72z"/><path fill="var(--illustration-invert)" fill-rule="evenodd" d="M72.402 107h87.604v2H72.402z" clip-rule="evenodd"/><path fill="var(--illustration-invert)" fill-rule="evenodd" d="m73.414 108 6.998-6.998-1.414-1.414L70.586 108l8.412 8.412 1.414-1.415zm86.19-95H72v-2h87.604z" clip-rule="evenodd"/><path fill="var(--illustration-invert)" fill-rule="evenodd" d="m158.591 12-6.997 6.997 1.414 1.415L161.42 12l-8.412-8.412-1.414 1.415z" clip-rule="evenodd"/><path fill="var(--illustration-positive)" d="M176 56h-40v8h40zm-8-8h-32v8h32zm-8-8h-24v8h24z"/><path fill="var(--illustration-negative)" d="M176 72h-40v8h40zm-16 8h-24v8h24z"/><path fill="var(--illustration-white)" fill-rule="evenodd" d="M64 33H48v-2h16zm88 0h-16v-2h16zm-88 8H48v-2h16zm24-8H72v-2h16z" clip-rule="evenodd"/><path fill="var(--illustration-positive)" d="M72 56h-8v16h8zM56 80h-8v-8h8z"/><path fill="var(--illustration-negative)" d="M88 64h-8v24h8z"/><path fill="var(--illustration-positive)" d="M104 48h-8v16h8z"/></svg>