<svg xmlns="http://www.w3.org/2000/svg" fill="none" viewBox="0 0 240 120"><path fill="var(--illustration-gray)" fill-rule="evenodd" d="M154.35 82.1 120 120 85.9 82.1C76.45 72.65 72 60.4 72 48c0-12.4 4.45-24.95 13.9-34.35C95.35 4.25 107.6 0 120 0c12.4 0 24.95 4.2 34.35 13.65C163.75 23.1 168 35.6 168 48c0 12.4-4.25 24.65-13.65 34.1ZM120 20a28 28 0 1 0 .02 56.02A28 28 0 0 0 120 20Z" clip-rule="evenodd"/><path fill="var(--illustration-primary)" d="M208 12h-87v72h87V12Z"/><path fill="var(--illustration-gray)" d="M120 84H32v36h88V84Z"/><path fill="var(--illustration-black)" d="M152.62 12H120v72h32.63l1.72-1.9C163.75 72.65 168 60.4 168 48c0-12.4-4.25-24.9-13.65-34.35a44.74 44.74 0 0 0-1.73-1.65Z"/><path fill="var(--illustration-primary)" fill-rule="evenodd" d="M120 12c-19.9 0-36 16.1-36 36s16.1 36 36 36 36-16.1 36-36-16.1-36-36-36Zm0 8a28 28 0 1 0 .02 56.02A28 28 0 0 0 120 20Z" clip-rule="evenodd"/><path fill="var(--illustration-primary)" d="M72 48c0-12.4 4.45-24.9 13.9-34.35C95.35 4.25 107.6 0 120 0v20a28 28 0 0 0 0 56v44L85.9 82.1C76.45 72.65 72 60.4 72 48Z"/><path fill="var(--illustration-accent-2)" d="M120 20a28 28 0 0 1 0 56V20Z"/><path fill="var(--illustration-accent-1)" d="m120 24 5.68 17.13 16.32.08-13.45 9.62L133.9 68 120 57.57 106.1 68l6.79-17.17L98 41.21l16.32-.08L120 24Z"/><path fill="var(--illustration-primary)" d="M120 57.57V24l5.68 17.13 16.32.08-13.45 9.62L133.9 68 120 57.57Z"/><path fill="var(--illustration-black)" fill-rule="evenodd" d="M120 13c-19.34 0-35 15.66-35 35s15.66 35 35 35v2c-20.45 0-37-16.55-37-37s16.55-37 37-37v2Z" clip-rule="evenodd"/></svg>