<svg xmlns="http://www.w3.org/2000/svg" fill="none" viewBox="0 0 240 120"><path fill="var(--illustration-gray)" d="M112 24v8H80v8H56V24H40v72h16v-8h24v8h23.5v-8h24.8v8H168V24h-56Z"/><path fill="var(--illustration-primary)" d="M55.9 0H0v120h55.9V0Z"/><path fill="var(--illustration-accent-1)" d="M32 16H16v16h16V16Z"/><path fill="var(--illustration-white)" d="M16 32V16h16L16 32Z"/><path fill="var(--illustration-accent-1)" d="M32 40H16v16h16V40Z"/><path fill="var(--illustration-white)" d="M16 55.9v-16h16l-16 16Z"/><path fill="var(--illustration-accent-1)" d="M32 64H16v16h16V64Zm0 24H16v16h16V88Z"/><path fill="var(--illustration-white)" d="M16 104V88h16l-16 16Zm0-24V64h16L16 80Z"/><path stroke="var(--illustration-black)" stroke-miterlimit="10" stroke-width="2" d="M23.898 0v120"/><path fill="var(--illustration-accent-2)" d="M240.002 0h-55.9v120h55.9V0Z"/><path fill="var(--illustration-black)" d="M56 24H40v72h16V24Z"/><path fill="var(--illustration-accent-1)" d="M164 96c19.882 0 36-16.118 36-36s-16.118-36-36-36-36 16.118-36 36 16.118 36 36 36Z"/><path fill="var(--illustration-primary)" d="M184.102 30.1v59.7c9.6-6.4 15.9-17.4 15.9-29.8 0-12.4-6.3-23.4-15.9-29.9Z"/><path stroke="var(--illustration-black)" stroke-miterlimit="10" stroke-width="2" d="M96.1 48H55.2M164 88c15.464 0 28-12.536 28-28s-12.536-28-28-28-28 12.536-28 28 12.536 28 28 28Zm-43.899-24h-40.3M95.9 80H44.7M164 40.1V80m19.9-20H144m34.098-14.1-28.2 28.2M152 48l26.1 26.1"/><path fill="var(--illustration-black)" d="M32 24h-8v8h8v-8Zm0 24h-8v8h8v-8Zm0 24h-8v8h8v-8Zm0 24h-8v8h8v-8Zm-8-80h-8v8h8v-8Zm0 24h-8v8h8v-8Zm0 24h-8v8h8v-8Zm0 24h-8v8h8v-8Z"/><path fill="var(--illustration-accent-1)" d="M224 16h-16v16h16V16Z"/><path fill="var(--illustration-white)" d="M208 32V16h16l-16 16Z"/><path fill="var(--illustration-accent-1)" d="M224 40h-16v16h16V40Z"/><path fill="var(--illustration-white)" d="M208 55.9v-16h16l-16 16Z"/><path fill="var(--illustration-accent-1)" d="M224 64h-16v16h16V64Zm0 24h-16v16h16V88Z"/><path fill="var(--illustration-white)" d="M208 104V88h16l-16 16Zm0-24V64h16l-16 16Z"/><path stroke="var(--illustration-black)" stroke-miterlimit="10" stroke-width="2" d="M215.898 0v120"/><path fill="var(--illustration-black)" d="M224 24h-8v8h8v-8Zm0 24h-8v8h8v-8Zm0 24h-8v8h8v-8Zm0 24h-8v8h8v-8Zm-8-80h-8v8h8v-8Zm0 24h-8v8h8v-8Zm0 24h-8v8h8v-8Zm0 24h-8v8h8v-8Z"/><path fill="var(--illustration-primary)" d="M56 88H40v16h16V88Zm0-64H40v16h16V24Z"/><path stroke="var(--illustration-black)" stroke-miterlimit="10" stroke-width="2" d="m91.2 42.3 5.6 5.7-5.6 5.6m23.902 4.9 5.7 5.6-5.7 5.7m-23.204 4.5 5.7 5.7-5.7 5.6"/><path fill="var(--illustration-gray)" d="M112 16h-8v8h8v-8Zm0 88h-8v8h8v-8Zm8-8h-8v8h8v-8ZM56 24h16v-8H56v8Zm-8 80h16v-8H48v8Z"/><path fill="var(--illustration-black)" d="M48 104h8v-8h-8v8Zm0-80h8v-8h-8v8Z"/><path fill="var(--illustration-gray)" d="m72.117 104.119-7.996-.243-.243 7.996 7.996.243.243-7.996Z"/><path fill="var(--illustration-black)" d="M24 8c-4.4 0-8-3.6-8-8h16c0 4.4-3.6 8-8 8Zm8 112H16c0-4.4 3.6-8 8-8s8 3.6 8 8ZM216 8c-4.4 0-8-3.6-8-8h16c0 4.4-3.6 8-8 8Zm8 112h-16c0-4.4 3.6-8 8-8s8 3.6 8 8Z"/></svg>