<svg xmlns="http://www.w3.org/2000/svg" fill="none" viewBox="0 0 240 120"><path fill="var(--illustration-accent-4)" d="M200 0H40v120h160z"/><path fill="var(--illustration-gray)" d="M40 0H0v16h40zm200 0h-40v16h40z"/><path fill="var(--illustration-primary)" d="M200 0H40v16h160z"/><path fill="var(--illustration-black)" fill-rule="evenodd" d="M64.2 41H56v-2h8.2zm0 8H56v-2h8.2zm47.999-8h-40v-2h40zm0 8h-40v-2h40z" clip-rule="evenodd"/><path fill="var(--illustration-black)" d="M156 42c14.3 0 26 11.7 26 26s-11.7 26-26 26-26-11.7-26-26 11.7-26 26-26m0-2c-15.5 0-28 12.5-28 28s12.5 28 28 28 28-12.5 28-28-12.5-28-28-28"/><path fill="var(--illustration-white)" d="M156 88c11.046 0 20-8.954 20-20s-8.954-20-20-20-20 8.954-20 20 8.954 20 20 20"/><path fill="var(--illustration-black)" fill-rule="evenodd" d="M154.199 61h2v10h6.8v2h-8.8z" clip-rule="evenodd"/><path fill="var(--illustration-white)" d="M88 28H56.2v4H88z"/><path fill="var(--illustration-black)" fill-rule="evenodd" d="M64.2 73H56v-2h8.2zm0 8H56v-2h8.2zm47.999-8h-40v-2h40zm0 8h-40v-2h40z" clip-rule="evenodd"/><path fill="var(--illustration-white)" d="M88 60H56.2v4H88z"/><path fill="var(--illustration-black)" fill-rule="evenodd" d="M64.2 89H56v-2h8.2zm0 8H56v-2h8.2zm47.999-8h-40v-2h40zm0 8h-40v-2h40zM64 105h-8.2v-2H64zm48 0H72v-2h40z" clip-rule="evenodd"/></svg>