<svg xmlns="http://www.w3.org/2000/svg" fill="none" viewBox="0 0 240 120"><path fill="var(--illustration-gray)" d="M119.999 32a48 48 0 0 0-33.94 14.059 48 48 0 0 0-14.06 33.94h48z"/><path fill="var(--illustration-gray)" d="M191.999 80a72 72 0 0 0-72-72 72 72 0 0 0-72 72h8a64 64 0 0 1 64-64v8a56 56 0 0 0-56 56h56V32a48 48 0 0 1 48 48z"/><path fill="var(--illustration-accent-1)" d="M119.998 120c-22.092 0-40-17.909-40-40s17.908-40.001 40-40.001 40.001 17.909 40.001 40S142.09 120 119.998 120"/><path fill="var(--illustration-accent-2)" d="M140.606 2.713a79.6 79.6 0 0 0-41.214 0l20.607 76.908z"/><path fill="var(--illustration-primary)" fill-rule="evenodd" d="M130.259 41.327A40 40 0 0 0 119.997 40c-3.546 0-6.985.461-10.26 1.328l10.261 38.294z" clip-rule="evenodd"/><path fill="var(--illustration-black)" fill-rule="evenodd" d="M89.998 80c0 16.568 13.432 30 30 30 16.569 0 30.001-13.432 30.001-30 0-16.57-13.432-30.001-30.001-30.001-16.568 0-30 13.432-30 30m-2 0c0 17.673 14.327 32 32 32s32.001-14.327 32.001-32-14.327-32.001-32.001-32.001c-17.673 0-32 14.327-32 32M120.999 8v24h-2V8z" clip-rule="evenodd"/><path fill="var(--illustration-black)" fill-rule="evenodd" d="m111.263 24.676 1.414-1.415 7.324 7.325 7.324-7.325 1.415 1.415-8.739 8.738z" clip-rule="evenodd"/><path fill="var(--illustration-accent-2)" d="M64 103.998c-8.839 0-15.999 7.163-15.999 16.001 0-8.838-7.163-16.001-16.001-16.001 8.838 0 16.001-7.164 16.001-15.999 0 8.835 7.16 15.999 15.999 15.999"/><path fill="var(--illustration-accent-1)" d="M207.998 11.999c-6.628 0-11.998 5.372-11.998 12 0-6.628-5.373-12-12.001-12C190.627 11.999 196 6.626 196 0c0 6.626 5.37 11.999 11.998 11.999"/><path fill="var(--illustration-accent-2)" d="M191.999 79.998C185.37 79.998 180 85.371 180 92c0-6.628-5.373-12-12.001-12C174.627 80 180 74.627 180 68c0 6.627 5.37 12 11.999 12"/><path fill="var(--illustration-primary)" d="M191.313 79.979C185.004 79.624 180 74.396 180 67.999c0 6.397-5.006 11.625-11.316 11.98z"/></svg>