<svg xmlns="http://www.w3.org/2000/svg" fill="none" viewBox="0 0 240 120"><path fill="var(--illustration-gray)" fill-rule="evenodd" d="M152 120h24c17.673 0 32-14.327 32-32 0-17.673-14.327-32-32-32h-24v64Z" clip-rule="evenodd"/><path fill="var(--illustration-primary)" fill-rule="evenodd" d="M152 120H72V0h80v120Z" clip-rule="evenodd"/><path fill="var(--illustration-gray)" fill-rule="evenodd" d="M144 32h-16V8h16v24Z" clip-rule="evenodd"/><path fill="var(--illustration-primary)" d="M184 88c0 17.673-14.327 32-32 32-17.673 0-32-14.327-32-32 0-17.673 14.327-32 32-32 17.673 0 32 14.327 32 32Z"/><path fill="var(--illustration-black)" fill-rule="evenodd" d="M152 56v64c-17.673 0-32-14.327-32-32 0-17.673 14.327-32 32-32Z" clip-rule="evenodd"/><path fill="var(--illustration-white)" d="M176 88c0 13.255-10.745 24-24 24s-24-10.745-24-24 10.745-24 24-24 24 10.745 24 24Zm-91.082 19.47c-1.279 0-2.277.97-2.277 2.269 0 1.299.973 2.261 2.277 2.261 1.303 0 2.293-.979 2.293-2.27 0-1.282-.973-2.26-2.293-2.26Zm.008 3.594c-.728 0-1.261-.566-1.261-1.325 0-.768.525-1.333 1.253-1.333.736 0 1.27.574 1.27 1.333s-.534 1.325-1.262 1.325Zm2.565-2.607h.635v3.459h1.015v-4.362h-1.65v.903Zm-7.406-.051c.533 0 .956.329 1.117.818h1.075c-.195-1.046-1.058-1.754-2.184-1.754-1.278 0-2.277.97-2.277 2.269 0 1.299.974 2.261 2.277 2.261 1.1 0 1.98-.709 2.176-1.763h-1.067a1.145 1.145 0 0 1-1.109.827c-.737 0-1.253-.566-1.253-1.325 0-.768.508-1.333 1.245-1.333Zm26.704.911-.745-.109c-.356-.051-.609-.169-.609-.448 0-.303.33-.455.778-.455.491 0 .804.211.872.557h.982c-.11-.878-.787-1.392-1.828-1.392-1.075 0-1.786.548-1.786 1.324 0 .743.465 1.173 1.405 1.308l.745.109c.364.051.567.195.567.465 0 .345-.356.489-.847.489-.601 0-.939-.245-.99-.616h-.999c.093.852.762 1.451 1.981 1.451 1.109 0 1.845-.506 1.845-1.375 0-.776-.533-1.181-1.371-1.308Zm-18.156-3.56a.629.629 0 0 0-.651.641c0 .371.279.641.651.641.373 0 .652-.27.652-.641a.629.629 0 0 0-.652-.641Zm14.906 3.29c0-.944-.576-1.577-1.795-1.577-1.151 0-1.794.582-1.921 1.476h1.007c.051-.346.322-.632.897-.632.517 0 .771.227.771.506 0 .363-.466.455-1.041.514-.779.085-1.744.355-1.744 1.367 0 .785.584 1.291 1.515 1.291.728 0 1.185-.304 1.414-.785.034.43.355.709.804.709h.592v-.903h-.499v-1.966Zm-.999 1.097c0 .582-.508 1.013-1.126 1.013-.381 0-.703-.161-.703-.498 0-.43.517-.548.991-.599.457-.042.711-.143.838-.338v.422Zm-5.392-2.674a1.77 1.77 0 0 0-1.38.632v-2.387h-1.015v6.201h.999v-.574c.338.413.82.658 1.396.658 1.22 0 2.142-.962 2.142-2.261 0-1.299-.94-2.269-2.142-2.269Zm-.152 3.594c-.728 0-1.261-.566-1.261-1.325s.541-1.333 1.27-1.333c.736 0 1.252.566 1.252 1.333 0 .759-.533 1.325-1.261 1.325Zm-4.672-3.594c-.66 0-1.092.269-1.346.649v-.565H89.97v4.361h1.016v-2.37c0-.667.423-1.139 1.05-1.139.584 0 .948.413.948 1.012v2.498h1.015v-2.573c0-1.097-.566-1.873-1.675-1.873ZM113 109.596c0-1.249-.914-2.126-2.141-2.126-1.303 0-2.26.978-2.26 2.269 0 1.358 1.024 2.261 2.277 2.261 1.058 0 1.887-.624 2.099-1.51h-1.058c-.153.388-.525.607-1.024.607-.652 0-1.143-.405-1.253-1.113H113v-.388Zm-3.301-.338c.161-.607.618-.903 1.143-.903.576 0 1.016.329 1.117.903h-2.26Z"/><path fill="var(--illustration-black)" fill-rule="evenodd" d="M135 32V8h2v24h-2Z" clip-rule="evenodd"/><path fill="var(--illustration-black)" fill-rule="evenodd" d="M144 21h-16v-2h16v2Z" clip-rule="evenodd"/><path fill="var(--illustration-black)" d="M149.918 73.602a5.44 5.44 0 0 1 5.925 1.179 5.43 5.43 0 0 1 1.589 3.648h.003v7.59h-2v-7.394a3.43 3.43 0 0 0-1.006-2.43 3.446 3.446 0 0 0-2.43-1.007 3.437 3.437 0 0 0-3.437 3.437v7.394h-2v-7.59h.004a5.435 5.435 0 0 1 3.352-4.827Z"/><path fill="var(--illustration-primary)" d="M141.645 83.802h20.708v15.531h-20.708V83.802Z"/><path fill="var(--illustration-black)" d="M152.993 91.511a1.586 1.586 0 1 0-2-.012v2.657h2v-2.645Z"/><path fill="var(--illustration-gray)" fill-rule="evenodd" d="M72 32H32V0h40v32Z" clip-rule="evenodd"/></svg>