<svg xmlns="http://www.w3.org/2000/svg" fill="none" viewBox="0 0 240 120"><path fill="var(--illustration-gray)" d="M32 64h72v56H32z"/><path fill="var(--illustration-primary)" d="M104 64c-15.454 0-28 12.546-28 28s12.546 28 28 28 28-12.546 28-28-12.546-28-28-28"/><path fill="var(--illustration-black)" fill-rule="evenodd" d="M81 92c0-12.695 10.305-23 23-23s23 10.305 23 23-10.305 23-23 23-23-10.305-23-23m23-21c-11.59 0-21 9.41-21 21s9.41 21 21 21 21-9.41 21-21-9.41-21-21-21" clip-rule="evenodd"/><path fill="var(--illustration-gray)" d="M60 0C44.546 0 32 12.546 32 28s12.546 28 28 28 28-12.546 28-28S75.454 0 60 0"/><path fill="var(--illustration-black)" fill-rule="evenodd" d="M37 28C37 15.305 47.305 5 60 5s23 10.305 23 23-10.305 23-23 23-23-10.305-23-23M60 7c-11.59 0-21 9.41-21 21s9.41 21 21 21 21-9.41 21-21S71.59 7 60 7" clip-rule="evenodd"/><path fill="var(--illustration-black)" fill-rule="evenodd" d="m50.807 35.778 16.97-16.97 1.415 1.414-16.971 16.97z" clip-rule="evenodd"/><path fill="var(--illustration-black)" fill-rule="evenodd" d="m52.223 18.808 16.97 16.97-1.414 1.414-16.97-16.97z" clip-rule="evenodd"/><path fill="var(--illustration-gray)" d="M60 0C44.546 0 32 12.546 32 28s12.546 28 28 28 28-12.546 28-28S75.454 0 60 0"/><path fill="var(--illustration-black)" fill-rule="evenodd" d="M37 28C37 15.305 47.305 5 60 5s23 10.305 23 23-10.305 23-23 23-23-10.305-23-23M60 7c-11.59 0-21 9.41-21 21s9.41 21 21 21 21-9.41 21-21S71.59 7 60 7" clip-rule="evenodd"/><path fill="var(--illustration-black)" d="m58.585 28-7.778 7.778 1.414 1.414 7.778-7.778 7.778 7.779 1.414-1.415L61.413 28l7.779-7.778-1.415-1.414L60 26.586l-7.778-7.778-1.414 1.414z"/><path fill="var(--illustration-black)" fill-rule="evenodd" d="m99.836 101.62-.058.058-8.485-8.485 1.414-1.415 7.129 7.129 15.613-15.614 1.415 1.414-16.971 16.971z" clip-rule="evenodd"/><path fill="var(--illustration-accent-1)" d="M180 64c-15.454 0-28 12.546-28 28s12.546 28 28 28 28-12.546 28-28-12.546-28-28-28"/><path fill="var(--illustration-primary)" d="M208 0h-28v56h28z"/><path fill="var(--illustration-invert)" d="M180 0h-28v56h28z"/><path fill="var(--illustration-gray)" d="m152 56 28 36 28-36z"/><path fill="var(--illustration-primary)" fill-rule="evenodd" d="M197.189 69.901A27.87 27.87 0 0 0 180.001 64a27.87 27.87 0 0 0-17.189 5.901L180.001 92z" clip-rule="evenodd"/><path fill="var(--illustration-black)" fill-rule="evenodd" d="M189.333 80h-18.667l9.333 12z" clip-rule="evenodd"/></svg>