<svg xmlns="http://www.w3.org/2000/svg" fill="none" viewBox="0 0 240 120"><path fill="var(--illustration-accent-1)" d="M208 24H32v72h176V24Z"/><path fill="var(--illustration-gray)" fill-rule="evenodd" d="M124 94h-8v12c.05.33 0 .66 0 1a7 7 0 0 1-6 6.93v.07a6 6 0 0 0-6 6h32a6 6 0 0 0-6-6v-.07a7 7 0 0 1-6-6.93c0-.34-.05-.67 0-1V94Z" clip-rule="evenodd"/><path fill="var(--illustration-primary)" fill-rule="evenodd" d="M88.14 24v4.43H76.06c-3.46 0-6.78 1.45-9.23 4.02a14.24 14.24 0 0 0-2.1 16.52A13.41 13.41 0 0 0 69.48 54L89.4 66.2c.56.44 1.04 1 1.39 1.64a5.75 5.75 0 0 1-.84 6.68 5.15 5.15 0 0 1-3.73 1.62v4.43a9.28 9.28 0 0 0 6.72-2.92 10 10 0 0 0 1.94-2.93c5 7.1 12.65 12.01 21.12 13.25V96h8v-8.04c8.47-1.24 16.11-6.16 21.12-13.25a10.02 10.02 0 0 0 1.94 2.93 9.28 9.28 0 0 0 6.72 2.92v-4.43c-1.4 0-2.74-.58-3.73-1.62a5.69 5.69 0 0 1 .55-8.32l19.92-12.2a13.46 13.46 0 0 0 4.74-5.02 14.24 14.24 0 0 0-2.09-16.52 12.76 12.76 0 0 0-9.23-4.02h-12.08V24H88.14Zm-12.08 8.86h12.08v20.16c0 2.65.26 5.24.77 7.73L71.6 50.16a9.08 9.08 0 0 1-3.21-3.4 9.64 9.64 0 0 1 1.41-11.18 8.63 8.63 0 0 1 6.25-2.72Zm92.33 17.3-17.3 10.6c.5-2.5.77-5.09.77-7.74V32.86h12.08c2.34 0 4.6.98 6.25 2.72a9.64 9.64 0 0 1 1.42 11.18 9.08 9.08 0 0 1-3.22 3.4Z" clip-rule="evenodd"/><circle cx="120" cy="24" r="24" fill="var(--illustration-accent-1)"/><path fill="var(--illustration-black)" d="M120 48a24 24 0 0 0 24-24H96a24 24 0 0 0 24 24Z"/><path fill="var(--illustration-black)" fill-rule="evenodd" d="M120 7a17 17 0 1 0 0 34 17 17 0 0 0 0-34Zm-19 17a19 19 0 1 1 38 0 19 19 0 0 1-38 0Z" clip-rule="evenodd"/><path fill="var(--illustration-invert)" fill-rule="evenodd" d="M51 21.59V12h2v9.59l6.78-6.78 1.41 1.41L54.41 23H64v2h-9.59l6.78 6.78-1.41 1.41L53 26.41V36h-2v-9.59l-6.78 6.78-1.41-1.41L49.59 25H40v-2h9.59l-6.78-6.78 1.41-1.41L51 21.59Zm112 72V84h2v9.59l6.78-6.78 1.41 1.41-6.78 6.78H176v2h-9.59l6.78 6.78-1.41 1.41-6.78-6.78V108h-2v-9.59l-6.78 6.78-1.41-1.41 6.78-6.78H152v-2h9.59l-6.78-6.78 1.41-1.41 6.78 6.78Z" clip-rule="evenodd"/></svg>