<svg xmlns="http://www.w3.org/2000/svg" fill="none" viewBox="0 0 240 120"><g clip-path="url(#a)"><path fill="var(--illustration-gray)" d="M124 104c24.301 0 44-19.7 44-44s-19.699-44-44-44v6.667c20.619 0 37.333 16.714 37.333 37.333S144.619 97.333 124 97.333V104Zm-1-72v56H41V32z"/><path fill="var(--illustration-gray)" d="M123 88V32h96v56z"/><path fill="var(--illustration-black)" d="m125.967 119.968-.064-1.999a57.287 57.287 0 0 1-3.806 0l-.064 1.999a61.205 61.205 0 0 0 3.934 0Zm-7.85-.253a59.365 59.365 0 0 1-3.895-.508l.323-1.973c1.242.203 2.498.367 3.765.491l-.193 1.99Zm-7.748-1.27a59.201 59.201 0 0 1-3.792-1.014l.58-1.914c1.205.365 2.427.692 3.665.98l-.453 1.948Zm-7.51-2.276a58.89 58.89 0 0 1-3.628-1.504l.826-1.821a58.86 58.86 0 0 0 3.506 1.454l-.704 1.871Zm-7.148-3.243a59.328 59.328 0 0 1-3.399-1.967l1.058-1.697a58.297 58.297 0 0 0 3.285 1.901l-.944 1.763Zm-6.661-4.151a59.93 59.93 0 0 1-3.114-2.393l1.27-1.545a58.37 58.37 0 0 0 3.01 2.313l-1.167 1.625Zm-6.066-4.983a60.423 60.423 0 0 1-2.776-2.776l1.46-1.368c.865.924 1.76 1.819 2.684 2.685l-1.368 1.459Zm-5.366-5.728a60.252 60.252 0 0 1-2.393-3.113l1.625-1.166a58.258 58.258 0 0 0 2.313 3.01l-1.545 1.27Zm-4.578-6.376a59.997 59.997 0 0 1-3.705-6.919 59.613 59.613 0 0 1-5.05-18.886 60.617 60.617 0 0 1-.253-7.85 60.617 60.617 0 0 1 .76-7.811 59.63 59.63 0 0 1 10.433-25.173 60.252 60.252 0 0 1 10.71-11.431 60.252 60.252 0 0 1 9.776-6.544 59.755 59.755 0 0 1 10.866-4.505 59.524 59.524 0 0 1 11.54-2.284c.421-.041.844-.078 1.268-.11V2.18c-13.507 1.063-25.713 6.754-35.033 15.486a58.39 58.39 0 0 0-2.685 2.685c-9.313 9.94-15.166 23.163-15.636 37.745a59.247 59.247 0 0 0 0 3.806 57.688 57.688 0 0 0 8.707 28.727l-1.697 1.058ZM124 0c-.658 0-1.314.01-1.967.032l.064 1.999a59.112 59.112 0 0 1 3.806 0l.064-2A61.078 61.078 0 0 0 124 0Zm5.883.285a60.04 60.04 0 0 1 3.895.508l-.323 1.973a58.066 58.066 0 0 0-3.765-.49l.193-1.991Zm7.748 1.27c1.28.297 2.545.636 3.792 1.014l-.58 1.914a57.35 57.35 0 0 0-3.665-.98l.453-1.948Zm7.51 2.275c1.229.463 2.439.965 3.628 1.505l-.826 1.821a58.019 58.019 0 0 0-3.506-1.454l.704-1.871Zm7.148 3.244a59.89 59.89 0 0 1 3.399 1.967l-1.058 1.697a58.002 58.002 0 0 0-3.285-1.9l.944-1.764Zm6.662 4.151a60.073 60.073 0 0 1 3.113 2.393l-1.269 1.545a58.606 58.606 0 0 0-3.01-2.313l1.166-1.625Zm6.065 4.983a60.423 60.423 0 0 1 2.776 2.777l-1.459 1.367a58.5 58.5 0 0 0-2.685-2.685l1.368-1.46Zm5.366 5.728a59.93 59.93 0 0 1 2.393 3.113l-1.625 1.166a58.37 58.37 0 0 0-2.313-3.01l1.545-1.27Zm4.577 6.376a59.328 59.328 0 0 1 1.967 3.4l-1.763.944a58.332 58.332 0 0 0-1.901-3.286l1.697-1.058Zm3.706 6.918a58.88 58.88 0 0 1 1.504 3.629l-1.871.704a58.449 58.449 0 0 0-1.454-3.506l1.821-.826Zm2.766 7.347a59.242 59.242 0 0 1 1.014 3.792l-1.948.453a58.093 58.093 0 0 0-.98-3.665l1.914-.58Zm1.776 7.645a59.35 59.35 0 0 1 .508 3.895l-1.99.193a58.88 58.88 0 0 0-.491-3.765l1.973-.323Zm.761 7.811a61.225 61.225 0 0 1 0 3.934l-1.999-.064a57.278 57.278 0 0 0 0-3.806l1.999-.064Zm-.253 7.85a59.35 59.35 0 0 1-.508 3.895l-1.973-.323a58.88 58.88 0 0 0 .491-3.765l1.99.193Zm-1.27 7.747a59.242 59.242 0 0 1-1.014 3.793l-1.914-.58a58.06 58.06 0 0 0 .98-3.665l1.948.453Zm-2.276 7.511a58.854 58.854 0 0 1-1.504 3.628l-1.821-.826a58.449 58.449 0 0 0 1.454-3.506l1.871.704Zm-3.243 7.148a59.328 59.328 0 0 1-1.967 3.399l-1.697-1.058a58.297 58.297 0 0 0 1.901-3.285l1.763.944Zm-4.151 6.661a59.93 59.93 0 0 1-2.393 3.114l-1.545-1.27a58.37 58.37 0 0 0 2.313-3.01l1.625 1.167Zm-4.983 6.066a60.561 60.561 0 0 1-2.776 2.776l-1.368-1.459a58.658 58.658 0 0 0 2.685-2.685l1.459 1.368Zm-5.728 5.366a59.752 59.752 0 0 1-3.113 2.393l-1.166-1.625a58.72 58.72 0 0 0 3.01-2.313l1.269 1.545Zm-6.376 4.577a59.293 59.293 0 0 1-3.399 1.967l-.944-1.763a58.387 58.387 0 0 0 3.285-1.901l1.058 1.697Zm-6.919 3.706a58.862 58.862 0 0 1-3.628 1.504l-.704-1.871a58.86 58.86 0 0 0 3.506-1.454l.826 1.821Zm-7.346 2.766a59.201 59.201 0 0 1-3.792 1.014l-.453-1.948a57.879 57.879 0 0 0 3.665-.98l.58 1.914Zm-7.645 1.776a59.365 59.365 0 0 1-3.895.508l-.193-1.99a58.927 58.927 0 0 0 3.765-.491l.323 1.973Z"/><circle cx="124" cy="60" r="28" fill="var(--illustration-black)" transform="rotate(90 124 60)"/><path fill="var(--illustration-black)" d="M124.016 88H124V32h.015C139.472 32.008 152 44.541 152 60s-12.527 27.991-27.984 28Z"/><path fill="var(--illustration-primary)" d="M158.102 32H149c7.628 6.84 12.439 16.85 12.439 28 0 11.15-4.811 21.16-12.439 28h9.102C164.285 80.392 168 70.637 168 60s-3.715-20.392-9.898-28Z"/><circle cx="88" cy="107" r="4" fill="var(--illustration-positive)" transform="rotate(90 88 107)"/><path fill="var(--illustration-accent-2)" d="M200 11.999c-6.629 0-11.999 5.373-11.999 12.001 0-6.628-5.372-12.001-12.001-12.001 6.629 0 12.001-5.373 12.001-11.999 0 6.626 5.37 11.999 11.999 11.999Z"/><path fill="var(--illustration-positive)" d="M223 103.999a8 8 0 0 0-7.999 8.001 8 8 0 0 0-8.001-8.001A8 8 0 0 0 215.001 96a7.999 7.999 0 0 0 7.999 7.999Z"/><path fill="var(--illustration-white)" d="M142.665 60c0 10.31-8.357 18.667-18.666 18.667-10.31 0-18.667-8.358-18.667-18.667 0-10.31 8.357-18.667 18.667-18.667 10.309 0 18.666 8.358 18.666 18.667Z"/><path fill="var(--illustration-black)" fill-rule="evenodd" d="M112.332 60a5.834 5.834 0 0 1 5.833-5.833h4.667V56.5h-4.667a3.5 3.5 0 1 0 0 7h4.667v2.333h-4.667A5.833 5.833 0 0 1 112.332 60Zm23.336 0a5.834 5.834 0 0 0-5.833-5.833h-4.667V56.5h4.667a3.5 3.5 0 1 1 0 7h-4.667v2.333h4.667A5.833 5.833 0 0 0 135.668 60Z" clip-rule="evenodd"/><path fill="var(--illustration-black)" fill-rule="evenodd" d="M129.835 61.167h-11.667v-2.334h11.667v2.334Z" clip-rule="evenodd"/><path fill="var(--illustration-primary)" d="M203 34.333A2.333 2.333 0 0 1 205.333 32H238a2.333 2.333 0 0 1 2.333 2.333v51.334A2.333 2.333 0 0 1 238 88h-32.667A2.333 2.333 0 0 1 203 85.667V34.333Z"/><path fill="var(--illustration-black)" d="M240.333 41.333H203v37.334h37.333V41.333Zm-22.167 42c0-.644.522-1.166 1.167-1.166h4.666a1.167 1.167 0 1 1 0 2.333h-4.666a1.167 1.167 0 0 1-1.167-1.167Zm4.667-46.666a1.166 1.166 0 1 1-2.333 0 1.166 1.166 0 0 1 2.333 0Z"/><path fill="var(--illustration-white)" d="M221.667 53a2.334 2.334 0 1 0 0-4.667 2.334 2.334 0 0 0 0 4.667Zm-9.334 0a2.334 2.334 0 1 0 0-4.667 2.334 2.334 0 0 0 0 4.667Zm18.666 0a2.334 2.334 0 1 0 0-4.667A2.334 2.334 0 0 0 231 53Zm-9.332 9.334a2.334 2.334 0 1 0 0-4.668 2.334 2.334 0 0 0 0 4.668Zm-9.334 0a2.334 2.334 0 1 0 0-4.668 2.334 2.334 0 0 0 0 4.668Zm18.666 0a2.334 2.334 0 1 0 0-4.668 2.334 2.334 0 0 0 0 4.668Zm-9.332 9.332a2.334 2.334 0 1 0 0-4.667 2.334 2.334 0 0 0 0 4.667Zm-9.334 0a2.334 2.334 0 1 0 0-4.667 2.334 2.334 0 0 0 0 4.667Zm18.666 0a2.334 2.334 0 1 0 0-4.667 2.334 2.334 0 0 0 0 4.667Z"/><path fill="var(--illustration-black)" d="M46.687 50.667H.117V88h46.57V50.667Z"/><path fill="var(--illustration-primary)" d="M51.343 50.667H42.03V88h9.314V50.667Z"/><path fill="var(--illustration-positive)" d="M56 74H42.03c-2.561 0-4.657-2.1-4.657-4.667 0-2.566 2.096-4.666 4.657-4.666H56V74ZM.117 50.667 42.03 32v18.667H.117Z"/><path fill="var(--illustration-black)" d="M18.92 78.083c5.006 0 9.022-3.966 9.022-8.808s-4.016-8.808-9.023-8.808c-5.006 0-9.023 3.966-9.023 8.808s4.017 8.808 9.023 8.808Z"/><path fill="var(--illustration-white)" fill-rule="evenodd" d="M9.313 69.275c0-5.175 4.289-9.392 9.606-9.392s9.606 4.217 9.606 9.392-4.29 9.392-9.606 9.392c-5.317 0-9.607-4.217-9.607-9.392Zm9.606-8.225c-4.696 0-8.44 3.717-8.44 8.225 0 4.508 3.744 8.225 8.44 8.225 4.695 0 8.44-3.717 8.44-8.225 0-4.508-3.745-8.225-8.44-8.225Z" clip-rule="evenodd"/><path fill="var(--illustration-white)" fill-rule="evenodd" d="M16.88 60.741c.542-.52 1.192-.858 1.922-.858s1.38.339 1.922.858c.538.517.997 1.236 1.37 2.078.745 1.687 1.191 3.973 1.191 6.456 0 2.483-.446 4.769-1.192 6.456-.372.842-.83 1.561-1.37 2.078-.54.52-1.19.858-1.921.858-.72 0-1.36-.343-1.892-.861-.53-.516-.984-1.234-1.356-2.075-.744-1.685-1.206-3.968-1.236-6.449v-.007c0-2.483.447-4.769 1.193-6.456.372-.842.83-1.561 1.37-2.078Zm-1.395 8.53c.029 2.36.47 4.48 1.136 5.988.334.756.714 1.332 1.103 1.711.387.377.75.53 1.078.53.347 0 .722-.157 1.114-.533.395-.379.777-.954 1.11-1.708.666-1.507 1.093-3.625 1.093-5.984s-.427-4.477-1.093-5.984c-.333-.754-.715-1.33-1.11-1.708-.392-.376-.767-.533-1.114-.533-.347 0-.723.157-1.114.533-.395.379-.777.954-1.11 1.708-.666 1.506-1.092 3.623-1.093 5.98Z" clip-rule="evenodd"/><path fill="var(--illustration-white)" fill-rule="evenodd" d="M27.942 69.858H9.896v-1.166h18.046v1.166Z" clip-rule="evenodd"/><path fill="var(--illustration-white)" d="M41.68 67.583a1.732 1.732 0 0 1 2.037 2.042c-.116.7-.698 1.225-1.397 1.4a1.732 1.732 0 0 1-2.037-2.042c.174-.7.756-1.283 1.397-1.4Z"/><path fill="var(--illustration-primary)" d="M56 64.667h-4.656V74H56v-9.333Z"/><path fill="var(--illustration-white)" fill-rule="evenodd" d="M.117 54.75h51.227v1.167H.117V54.75Zm0 28H51.46v1.167H.117V82.75Z" clip-rule="evenodd"/></g><defs><clipPath id="a"><path fill="var(--illustration-white)" d="M0 0h240v120H0z"/></clipPath></defs></svg>