<svg xmlns="http://www.w3.org/2000/svg" fill="none" viewBox="0 0 240 120"><path fill="var(--illustration-gray)" d="M208 72h-24v32h24V72ZM176 0h-24v48h24V0Zm-32 0h-32v24h32V0ZM96 0H72v48h24V0Zm8 0h-8v48h8V0Z"/><path fill="var(--illustration-positive)" d="M184 48H64v72h120V48Z"/><path fill="var(--illustration-primary)" d="M144 88a16 16 0 0 1 16-16h24v32h-24a16 16 0 0 1-16-16Z"/><path fill="var(--illustration-primary)" d="M148 88a12 12 0 1 1 24 0 12 12 0 0 1-24 0Z"/><path fill="var(--illustration-black)" fill-rule="evenodd" d="M150 88a10 10 0 1 0 20 0 10 10 0 0 0-20 0Zm10-12a12 12 0 1 0 0 24 12 12 0 0 0 0-24Z" clip-rule="evenodd"/><path fill="var(--illustration-black)" d="M176 48c0 6.6-5.4 12-12 12s-12-5.4-12-12"/><path fill="var(--illustration-primary)" d="M152 48c0-6.6 5.4-12 12-12s12 5.4 12 12h-24Z"/><path fill="var(--illustration-white)" d="M168.74 51.18c0 .9-.72 1.62-1.62 1.62h-6.42c-.9 0-1.62-.72-1.62-1.62v-6.42c0-.9.72-1.62 1.62-1.62h6.42c.9 0 1.62.72 1.62 1.62v6.42Z"/><path fill="var(--illustration-positive)" d="M104 48a16 16 0 1 1-32 0 16 16 0 0 1 32 0Z"/><path fill="var(--illustration-accent-1)" d="M144 24a16 16 0 1 1-32 0 16 16 0 0 1 32 0Z"/><path fill="var(--illustration-primary)" d="M88 64a16 16 0 0 0 16-16H72a16 16 0 0 0 16 16Z"/><path fill="var(--illustration-black)" fill-rule="evenodd" d="M88 58a10 10 0 1 0 0-20 10 10 0 0 0 0 20Zm0 2a12 12 0 1 0 0-24 12 12 0 0 0 0 24Z" clip-rule="evenodd"/><path fill="var(--illustration-invert)" fill-rule="evenodd" d="M129.2 81v5.27l4.56-2.64 1 1.74L130.2 88l4.56 2.63-1 1.74-4.56-2.64V95h-2v-5.27l-4.56 2.64-1-1.74L126.2 88l-4.56-2.63 1-1.74 4.56 2.64V81h2Zm-24 0v5.27l4.56-2.64 1 1.74L106.2 88l4.56 2.63-1 1.74-4.56-2.64V95h-2v-5.27l-4.57 2.64-1-1.74L102.2 88l-4.57-2.63 1-1.74 4.57 2.64V81h2Zm-24 0v5.27l4.56-2.64 1 1.74L82.2 88l4.56 2.63-1 1.74-4.56-2.64V95h-2v-5.27l-4.57 2.64-1-1.74L78.2 88l-4.57-2.63 1-1.74 4.57 2.64V81h2Z" clip-rule="evenodd"/><path fill="var(--illustration-white)" d="M140 24c-6.65 0-12 5.35-12 12 0-6.65-5.35-12-12-12 6.65 0 12-5.35 12-12a12 12 0 0 0 12 12Z"/><path fill="var(--illustration-gray)" d="M192 72h-8v32h8V72Z"/><path fill="var(--illustration-gray)" d="M192 72h-8v32h8V72ZM64 80H32v16h32V80Zm0-32H32v16h32V48Zm0 56H32v16h32v-16Z"/></svg>