<svg xmlns="http://www.w3.org/2000/svg" fill="none" viewBox="0 0 240 120"><path fill="var(--illustration-gray)" fill-rule="evenodd" d="M112 108V11.5h16V108z" clip-rule="evenodd"/><path fill="var(--illustration-gray)" fill-rule="evenodd" d="M120 120c-33.137 0-60-26.863-60-60S86.863 0 120 0s60 26.863 60 60-26.863 60-60 60m0-16c-24.3 0-44-19.7-44-44s19.7-44 44-44 44 19.7 44 44-19.699 44-44 44" clip-rule="evenodd"/><path fill="var(--illustration-positive)" fill-rule="evenodd" d="M111.604 19.219c.44-3.928.562-7.737.41-10.233l15.971-.972c.223 3.663.03 8.431-.481 12.986-.5 4.467-1.381 9.43-2.808 13.24A52 52 0 0 1 95 64.404c-3.83 1.504-8.865 2.43-13.351 2.968-4.595.55-9.382.784-13.01.62l.721-15.984c2.537.115 6.416-.047 10.383-.523 4.076-.489 7.498-1.224 9.41-1.974a36 36 0 0 0 20.559-20.884c.738-1.968 1.442-5.393 1.892-9.408" clip-rule="evenodd"/><path fill="var(--illustration-primary)" d="M172 52h60a8 8 0 0 1 0 16h-60z"/><path fill="var(--illustration-gray)" d="M0 8a8 8 0 0 1 8-8h112v16H8a8 8 0 0 1-8-8"/><path fill="var(--illustration-primary)" fill-rule="evenodd" d="M79.207 16C89.912 6.07 104.247 0 120 0v16z" clip-rule="evenodd"/><path fill="var(--illustration-gray)" d="M184 112a8 8 0 0 1-8 8h-56v-16h56a8 8 0 0 1 8 8"/><path fill="var(--illustration-primary)" fill-rule="evenodd" d="M160.793 104c-10.705 9.929-25.04 16-40.793 16v-16zM128 14.662a95 95 0 0 1-.495 6.338c-.501 4.468-1.382 9.43-2.809 13.24A52 52 0 0 1 112 53.523V14.295c.099-2.04.101-3.878.016-5.295H128z" clip-rule="evenodd"/><path fill="var(--illustration-black)" fill-rule="evenodd" d="M118.561 19.998c.471-4.202.624-8.43.441-11.437l1.996-.122c.192 3.153.03 7.501-.45 11.782-.478 4.27-1.282 8.559-2.407 11.563a45 45 0 0 1-25.698 26.104c-2.992 1.175-7.32 2.017-11.627 2.533-4.32.519-8.71.72-11.86.578l.09-1.998c3.013.136 7.29-.056 11.531-.565 4.256-.51 8.383-1.33 11.135-2.41a43 43 0 0 0 24.556-24.943c1.039-2.774 1.821-6.872 2.293-11.085" clip-rule="evenodd"/><path fill="var(--illustration-positive)" fill-rule="evenodd" d="M128.396 100.781c-.44 3.927-.562 7.737-.41 10.233l-15.971.972c-.223-3.663-.03-8.431.481-12.986.5-4.468 1.381-9.43 2.808-13.24A52 52 0 0 1 145 55.596c3.831-1.504 8.865-2.43 13.351-2.968 4.595-.55 9.382-.784 13.01-.62l-.721 15.984c-2.536-.115-6.416.047-10.383.522-4.076.49-7.498 1.225-9.411 1.975a36 36 0 0 0-20.558 20.884c-.738 1.968-1.442 5.393-1.892 9.408" clip-rule="evenodd"/><path fill="var(--illustration-primary)" d="M112 105.338c.09-2.071.259-4.228.495-6.338.501-4.468 1.382-9.43 2.809-13.24A52 52 0 0 1 128 66.477v39.228c-.099 2.041-.101 3.878-.016 5.295H112z"/><path fill="var(--illustration-gray)" d="M29 60a8 8 0 0 0 8 8h32V52H37a8 8 0 0 0-8 8"/><path fill="var(--illustration-black)" fill-rule="evenodd" d="M118 113c-27.614 0-50-22.386-50-50h2c0 26.51 21.49 48 48 48zm4-105c27.614 0 50 22.386 50 50h-2c0-26.51-21.49-48-48-48z" clip-rule="evenodd"/><circle cx="120" cy="8" r="8" fill="var(--illustration-invert)" transform="rotate(90 120 8)"/><circle cx="120" cy="112" r="8" fill="var(--illustration-invert)" transform="rotate(90 120 112)"/><circle cx="172" cy="60" r="8" fill="var(--illustration-invert)" transform="rotate(-180 172 60)"/><circle cx="68" cy="60" r="8" fill="var(--illustration-invert)" transform="rotate(-180 68 60)"/></svg>