<svg xmlns="http://www.w3.org/2000/svg" fill="none" viewBox="0 0 240 120"><path fill="var(--illustration-primary)" d="M160 56a40 40 0 0 1-80 0V8h80v48Z"/><path fill="var(--illustration-gray)" d="m144 120-24-12-24 12V47.78h48V120Z"/><path fill="var(--illustration-black)" fill-rule="evenodd" d="M96 88V47.78h48V88c-6.69 5.02-15 8-24 8s-17.31-2.98-24-8Z" clip-rule="evenodd"/><path fill="var(--illustration-gray)" fill-rule="evenodd" d="M208 0H32v8h176V0Z" clip-rule="evenodd"/><path fill="var(--illustration-accent-1)" d="M96 48a24 24 0 1 1 48 0 24 24 0 0 1-48 0Z"/><path fill="var(--illustration-white)" fill-rule="evenodd" d="M94 48a26 26 0 1 1 52 0 26 26 0 0 1-52 0Zm26-24a24 24 0 1 0 0 48 24 24 0 0 0 0-48Z" clip-rule="evenodd"/><path fill="var(--illustration-black)" fill-rule="evenodd" d="m130.3 39.1-19.2 19.2-1.4-1.4 19.2-19.2 1.4 1.4Zm-3.75 16.56a2.06 2.06 0 1 0 0-4.11 2.06 2.06 0 0 0 0 4.11Zm4.05-2.06a4.06 4.06 0 1 1-8.1 0 4.06 4.06 0 0 1 8.1 0Zm-17.14-9.15a2.06 2.06 0 1 0 0-4.11 2.06 2.06 0 0 0 0 4.11Zm4.05-2.05a4.06 4.06 0 1 1-8.1 0 4.06 4.06 0 0 1 8.1 0Z" clip-rule="evenodd"/></svg>