<svg xmlns="http://www.w3.org/2000/svg" fill="none" viewBox="0 0 240 120"><path fill="var(--illustration-accent-2)" d="M208 12a4 4 0 0 0-4-4H36a4 4 0 0 0-4 4v96a4 4 0 0 0 4 4h168a4 4 0 0 0 4-4z"/><path fill="var(--illustration-gray)" d="M128 0H48v8h80z"/><path fill="var(--illustration-primary)" d="M128 8H48v64h80zm64 24h-48v80h48z"/><path fill="var(--illustration-gray)" d="M192 112h-48v8h48z"/><path fill="var(--illustration-black)" fill-rule="evenodd" d="M96 85H48v-2h48zm16 12H48v-2h64z" clip-rule="evenodd"/><path fill="var(--illustration-accent-2)" fill-rule="evenodd" d="M111.636 72C107.885 62.624 98.716 56 88 56s-19.885 6.624-23.637 16z" clip-rule="evenodd"/><path fill="var(--illustration-accent-2)" d="M104 32c0 8.837-7.163 16-16 16s-16-7.163-16-16 7.163-16 16-16 16 7.163 16 16"/><path fill="var(--illustration-white)" d="M180 56c0 6.627-5.373 12-12 12s-12-5.373-12-12 5.373-12 12-12 12 5.373 12 12"/><path fill="var(--illustration-accent-1)" d="M180 88c0 6.627-5.373 12-12 12s-12-5.373-12-12 5.373-12 12-12 12 5.373 12 12"/><path fill="var(--illustration-black)" fill-rule="evenodd" d="m173.707 52.707-8.207 8.207-4.207-4.207 1.414-1.414 2.793 2.793 6.793-6.793zm0 32-8.207 8.207-4.207-4.207 1.414-1.414 2.793 2.793 6.793-6.793z" clip-rule="evenodd"/></svg>