<svg xmlns="http://www.w3.org/2000/svg" fill="none" viewBox="0 0 240 120"><path fill="var(--illustration-gray)" d="M208 0H32v16c0 48.601 39.399 88 88 88s88-39.399 88-88z"/><path fill="var(--illustration-gray)" d="M72 0h96v120H72z"/><path fill="var(--illustration-primary)" fill-rule="evenodd" d="M168 89.769c-13.804 9-30.291 14.231-48 14.231s-34.195-5.23-48-14.231V0h96z" clip-rule="evenodd"/><path fill="var(--illustration-black)" fill-rule="evenodd" d="M88 79h64v2H88zm0 8h64v2H88zm0-40h64v2H88zm0 8h64v2H88zm0 8h64v2H88zm0-24h64v2H88zm0-8h64v2H88zm0 40h64v2H88zm62-61H90v12h60zM88 8v16h64V8z" clip-rule="evenodd"/><path fill="var(--illustration-positive)" d="M120 84c13.255 0 24-10.745 24-24s-10.745-24-24-24-24 10.745-24 24 10.745 24 24 24"/><path fill="var(--illustration-black)" fill-rule="evenodd" d="M133.211 53.478 116.669 70.02l-8.458-8.459 1.414-1.414 7.044 7.044 15.128-15.127z" clip-rule="evenodd"/><path fill="var(--illustration-white)" fill-rule="evenodd" d="M120 80c11.046 0 20-8.954 20-20s-8.954-20-20-20-20 8.954-20 20 8.954 20 20 20m24-20c0 13.255-10.745 24-24 24S96 73.255 96 60s10.745-24 24-24 24 10.745 24 24" clip-rule="evenodd"/></svg>