<svg xmlns="http://www.w3.org/2000/svg" fill="none" viewBox="0 0 240 120"><path fill="var(--illustration-primary)" d="M48 0h144v16H48z"/><path fill="var(--illustration-gray)" d="M192 0h48v16h-48zM0 0h48v16H0zm48 16h144v72H48z"/><path fill="var(--illustration-primary)" d="M96 72h48v16H96z"/><path fill="var(--illustration-gray)" d="M96 88h48v32H96z"/><path fill="var(--illustration-black)" fill-rule="evenodd" d="M136 113h-32v-2h32zm-16-10.414-7.293-7.293-1.414 1.414 8.707 8.707 8.707-8.707-1.414-1.414z" clip-rule="evenodd"/><path fill="var(--illustration-black)" fill-rule="evenodd" d="M121 80v23.5h-2V80z" clip-rule="evenodd"/><path fill="var(--illustration-accent-1)" d="M224 103.998c-8.838 0-15.998 7.164-15.998 16.002 0-8.838-7.164-16.002-16.002-16.002 8.838 0 16.002-7.163 16.002-15.998 0 8.835 7.16 15.998 15.998 15.998"/><path fill="var(--illustration-primary)" d="M32 55.998c-8.838 0-15.998 7.164-15.998 16.002 0-8.838-7.164-16.002-16.002-16.002 8.838 0 16.002-7.163 16.002-15.998 0 8.835 7.16 15.998 15.998 15.998"/><path fill="var(--illustration-accent-2)" d="M232 48a8 8 0 0 0-7.999 8A8 8 0 0 0 216 48a8 8 0 0 0 8.001-8A8 8 0 0 0 232 48"/><path fill="var(--illustration-positive)" d="M64 24h112v8H64z"/><path fill="var(--illustration-black)" fill-rule="evenodd" d="M176 41H64v-2h112zm0 8H64v-2h112zm0 8H64v-2h112zm0 8H64v-2h112z" clip-rule="evenodd"/></svg>