<svg xmlns="http://www.w3.org/2000/svg" fill="none" viewBox="0 0 240 120"><path fill="var(--illustration-accent-2)" d="M52 0h80v120H52V0Z"/><path fill="var(--illustration-primary)" d="M52 0h80v16H52V0Zm0 104h80v16H52v-16Z"/><path fill="var(--illustration-black)" d="M104 48H80v24h24V48Zm0-8H80v4h24v-4Zm0-8H80v4h24v-4Zm0-8H80v4h24v-4ZM92 96 68 72h48L92 96Z"/><path fill="var(--illustration-primary)" d="M142.793 31.957h34.414c5.954 0 10.793 4.829 10.793 10.77V77.07c0 5.941-4.839 10.77-10.793 10.77h-34.414c-5.954 0-10.793-4.829-10.793-10.77V42.727c0-5.941 4.826-10.77 10.793-10.77Z"/><path fill="var(--illustration-white)" d="M159.994 78.804c10.456 0 18.939-8.466 18.939-18.9 0-10.433-8.483-18.898-18.939-18.898-10.455 0-18.939 8.465-18.939 18.899 0 10.433 8.484 18.899 18.939 18.899Z"/><path fill="var(--illustration-primary)" d="M156.53 53.73h6.953a2.693 2.693 0 0 1 2.698 2.693v6.938a2.693 2.693 0 0 1-2.698 2.692h-6.953a2.693 2.693 0 0 1-2.698-2.692v-6.938c-.013-1.476 1.193-2.693 2.698-2.693Z"/><path fill="var(--illustration-black)" d="M94 8a2 2 0 1 1-4 0 2 2 0 0 1 4 0ZM84 110h16v4H84v-4Z"/><path fill="var(--illustration-gray)" d="M132 0h108v16H132V0ZM0 0h52v16H0V0Zm0 104h52v16H0v-16Zm132 0h108v16H132v-16Zm56-56h52v24h-52V48Z"/><path fill="var(--illustration-black)" fill-rule="evenodd" d="M189 59h51v2h-51v-2Z" clip-rule="evenodd"/><path fill="var(--illustration-black)" fill-rule="evenodd" d="m190.071 59.97 10.95-10.95-1.414-1.413-12.364 12.364 12.364 12.364 1.414-1.415-10.95-10.95Z" clip-rule="evenodd"/></svg>