<svg xmlns="http://www.w3.org/2000/svg" fill="none" viewBox="0 0 240 120"><path fill="var(--illustration-primary)" d="M48 0h144v16H48z"/><path fill="var(--illustration-gray)" d="M192 0h48v16h-48zM0 0h48v16H0zm48 16h144v72H48z"/><path fill="var(--illustration-primary)" d="M96 72h48v16H96z"/><path fill="var(--illustration-gray)" d="M96 88h48v32H96z"/><path fill="var(--illustration-black)" fill-rule="evenodd" d="M136 113h-32v-2h32v2Zm-16-10.41-7.3-7.3-1.4 1.42 8.7 8.7 8.7-8.7-1.4-1.42-7.3 7.3Z" clip-rule="evenodd"/><path fill="var(--illustration-black)" fill-rule="evenodd" d="M121 80v23.5h-2V80h2Z" clip-rule="evenodd"/><path fill="var(--illustration-accent-1)" d="M224 104a16 16 0 0 0-16 16 16 16 0 0 0-16-16 16 16 0 0 0 16-16 16 16 0 0 0 16 16Z"/><path fill="var(--illustration-primary)" d="M32 56a16 16 0 0 0-16 16A16 16 0 0 0 0 56a16 16 0 0 0 16-16 16 16 0 0 0 16 16Z"/><path fill="var(--illustration-accent-2)" d="M232 48a8 8 0 0 0-8 8 8 8 0 0 0-8-8 8 8 0 0 0 8-8 8 8 0 0 0 8 8Z"/><path fill="var(--illustration-positive)" d="M64 24h112v8H64z"/><path fill="var(--illustration-black)" fill-rule="evenodd" d="M176 41H64v-2h112v2Zm0 8H64v-2h112v2Zm0 8H64v-2h112v2Zm0 8H64v-2h112v2Z" clip-rule="evenodd"/></svg>