<svg xmlns="http://www.w3.org/2000/svg" fill="none" viewBox="0 0 240 120"><path fill="var(--illustration-positive)" d="M176 0h32v32h-32V0Z"/><path fill="var(--illustration-gray)" d="M32 96h176v24H32V96Z"/><path fill="var(--illustration-primary)" d="M96 56h32v40H96V56Zm40-24h32v64h-32V32Zm40 0h32v64h-32V32Z"/><path fill="var(--illustration-black)" fill-rule="evenodd" d="M193 8v88h-2V8h2Z" clip-rule="evenodd"/><path fill="var(--illustration-black)" fill-rule="evenodd" d="m192 6.59 8.7 8.7-1.4 1.42-7.3-7.3-7.3 7.3-1.4-1.42 8.7-8.7Z" clip-rule="evenodd"/><path fill="var(--illustration-positive)" d="M32 76a28 28 0 1 1 56 0 28 28 0 0 1-56 0Z"/><path fill="var(--illustration-black)" fill-rule="evenodd" d="M79.6 96a27.9 27.9 0 0 1-19.6 8 27.9 27.9 0 0 1-19.6-8h39.2Zm-7.7-30.5L49.5 87.9l-1.4-1.4 22.4-22.4 1.4 1.4Zm-4.27 19.6a2.56 2.56 0 1 0 0-5.13 2.56 2.56 0 0 0 0 5.13Zm4.57-2.56a4.56 4.56 0 1 1-9.13 0 4.56 4.56 0 0 1 9.13 0ZM52.36 72.03a2.57 2.57 0 1 0 0-5.13 2.57 2.57 0 0 0 0 5.13Zm4.57-2.57a4.56 4.56 0 1 1-9.13 0 4.56 4.56 0 0 1 9.13 0Z" clip-rule="evenodd"/></svg>