<svg xmlns="http://www.w3.org/2000/svg" fill="none" viewBox="0 0 240 120"><path fill="var(--illustration-gray)" d="M48 0h144v16H48V0Z"/><path fill="var(--illustration-positive)" d="M48 0h144v64H48V0Z"/><path fill="var(--illustration-primary)" d="M48 0h144v16H48V0Zm40 48h64v16H88V48Z"/><path fill="var(--illustration-black)" d="M96 52h47.999v8H96v-8Z"/><path fill="var(--illustration-gray)" d="M88 64h64v56H88V64Z"/><path fill="var(--illustration-accent-1)" d="M96.422 96.366h16.119v14.561h-16.12v-14.56Z"/><path fill="var(--illustration-black)" fill-rule="evenodd" d="M95 63h50v50H95V63Zm2 2v46h46V65H97Z" clip-rule="evenodd"/><path fill="var(--illustration-accent-1)" d="M127.477 80.489H144v14.56h-16.523V80.49Z"/><path fill="var(--illustration-black)" fill-rule="evenodd" d="M95 79.32h50v17.36H95V79.32Zm2 2v13.36h46V81.32H97Z" clip-rule="evenodd"/><path fill="var(--illustration-black)" fill-rule="evenodd" d="M128.684 63v50h-17.361V63h17.361Zm-2 2h-13.361v46h13.361V65ZM168 29H72v-2h96v2Zm0 8H72v-2h96v2Z" clip-rule="evenodd"/><path fill="var(--illustration-accent-1)" d="M208 64c0 8.837-7.163 16-16 16s-16-7.163-16-16 7.163-16 16-16 16 7.163 16 16Z"/><path fill="var(--illustration-primary)" fill-rule="evenodd" d="M192 48a16.002 16.002 0 0 0-16 16h16V48Z" clip-rule="evenodd"/><path fill="var(--illustration-accent-1)" d="M48.002 24c0 8.838-7.164 15.998-16.002 15.998 8.838 0 16.002 7.164 16.002 16.002 0-8.838 7.163-16.002 15.998-16.002-8.835 0-15.998-7.16-15.998-15.998Z"/><path fill="var(--illustration-primary)" fill-rule="evenodd" d="M48.022 55.108V24.892c.462 8.424 7.438 15.107 15.974 15.107-8.536 0-15.512 6.687-15.974 15.11Z" clip-rule="evenodd"/></svg>