<svg xmlns="http://www.w3.org/2000/svg" fill="none" viewBox="0 0 240 120"><path fill="var(--illustration-gray)" d="M220 79.202A43.814 43.814 0 0 1 200 84a43.814 43.814 0 0 1-20-4.798V95h40V79.202Z"/><path fill="var(--illustration-accent-4)" d="M168 96h12v24h-12V96Zm52 0h12v24h-12V96Z"/><path fill="var(--illustration-primary)" d="M180 96h40v24h-40V96Z"/><path fill="var(--illustration-accent-2)" d="M84 104h64v16H84v-16Z"/><path fill="var(--illustration-gray)" d="M0 112h64v8H0v-8Z"/><path fill="var(--illustration-black)" fill-rule="evenodd" d="M148 105H84v-2h64v2Zm-84 8H0v-2h64v2Zm168-8h-64v-2h64v2Zm-84 8H84v-2h64v2Zm84 0h-64v-2h64v2Zm0-16h-64v-2h64v2Z" clip-rule="evenodd"/><path fill="var(--illustration-accent-4)" d="M240 40c0 22.091-17.909 40-40 40s-40-17.909-40-40 17.909-40 40-40 40 17.909 40 40Z"/><path fill="var(--illustration-primary)" fill-rule="evenodd" d="M180 74.649V40h40v34.649A39.814 39.814 0 0 1 200 80a39.814 39.814 0 0 1-20-5.351Z" clip-rule="evenodd"/><path fill="var(--illustration-accent-2)" d="M200 8v64l20-32-20-32Z"/><path fill="var(--illustration-white)" d="M200 8v64l-20-32 20-32Z"/><path fill="var(--illustration-primary)" d="M200 29.4v24L180 40l20-10.6Z"/><path fill="var(--illustration-black)" d="M200 29.4v24L220 40l-20-10.6ZM138 67a6 6 0 1 1-12 0 6 6 0 0 1 12 0ZM78 55a6 6 0 1 1-12 0 6 6 0 0 1 12 0ZM22 88a6 6 0 1 1-12 0 6 6 0 0 1 12 0Zm41 1v5h2v-5h5v-2h-5v-5h-2v5h-5v2h5Z"/><path fill="var(--illustration-accent-2)" d="m128 12 2.122 9.878L140 24l-9.878 2.122L128 36l-2.122-9.878L116 24l9.878-2.122L128 12Z"/><path fill="var(--illustration-black)" d="m157.919 52.892-26.231 12.001-59.614-11.522-56.8 31.95 2.452 4.358 55.2-31.05 59.386 11.477 27.347-12.511a43.59 43.59 0 0 1-1.74-4.703Z"/></svg>