<svg xmlns="http://www.w3.org/2000/svg" fill="none" viewBox="0 0 240 120"><path fill="#E5E5E5" d="M220 79.2c-6 3.07-12.8 4.8-20 4.8-7.2 0-14-1.73-20-4.8V95h40V79.2Z"/><path fill="var(--illustration-accent-4)" d="M168 96h12v24h-12V96Zm52 0h12v24h-12V96Z"/><path fill="var(--illustration-primary)" d="M180 96h40v24h-40V96Z"/><path fill="var(--illustration-gray)" d="M220 79.2c-6 3.07-12.8 4.8-20 4.8-7.2 0-14-1.73-20-4.8V95h40V79.2Z"/><path fill="var(--illustration-accent-2)" d="M84 104h64v16H84v-16Z"/><path fill="#E5E5E5" d="M0 112h64v8H0v-8Z"/><path fill="var(--illustration-black)" fill-rule="evenodd" d="M148 105H84v-2h64v2Zm-84 8H0v-2h64v2Zm168-8h-64v-2h64v2Zm-84 8H84v-2h64v2Zm84 0h-64v-2h64v2Zm0-16h-64v-2h64v2Z" clip-rule="evenodd"/><path fill="var(--illustration-accent-4)" d="M240 40a40 40 0 1 1-80 0 40 40 0 0 1 80 0Z"/><path fill="var(--illustration-primary)" fill-rule="evenodd" d="M180 74.65V40h40v34.65A39.81 39.81 0 0 1 200 80a39.81 39.81 0 0 1-20-5.35Z" clip-rule="evenodd"/><path fill="var(--illustration-accent-2)" d="M200 8v64l20-32-20-32Z"/><path fill="var(--illustration-white)" d="M200 8v64l-20-32 20-32Z"/><path fill="var(--illustration-primary)" d="M200 29.4v24L180 40l20-10.6Z"/><path fill="var(--illustration-black)" d="M200 29.4v24L220 40l-20-10.6Z"/><path fill="#8E76FF" d="M240 40c0-22.12-17.88-40-40-40s-40 17.88-40 40 17.88 40 40 40 40-17.88 40-40Z"/><path fill="var(--illustration-white)" fill-opacity=".6" d="M198 11v21.72L216 41l-18-30Z"/><path fill="var(--illustration-white)" d="m198 11-17 30 17-8.28V11Z"/><path fill="var(--illustration-white)" fill-opacity=".6" d="M198 54.5V69l18-25-18 10.5Z"/><path fill="var(--illustration-white)" d="M198 69V54.5L181 44l17 25Z"/><path fill="var(--illustration-white)" fill-opacity=".2" d="m198 52 18-11.29L198 32v20Z"/><path fill="var(--illustration-white)" fill-opacity=".6" d="M181 40.63 198 52V32l-17 8.63Z"/><path fill="var(--illustration-invert)" d="M138 67a6 6 0 1 1-12 0 6 6 0 0 1 12 0ZM78 55a6 6 0 1 1-12 0 6 6 0 0 1 12 0ZM22 88a6 6 0 1 1-12 0 6 6 0 0 1 12 0Zm41 1v5h2v-5h5v-2h-5v-5h-2v5h-5v2h5Z"/><path fill="var(--illustration-accent-2)" d="m128 12 2.12 9.88L140 24l-9.88 2.12L128 36l-2.12-9.88L116 24l9.88-2.12L128 12Z"/><path fill="var(--illustration-invert)" d="m157.92 52.9-26.23 12-59.62-11.53-56.8 31.95 2.45 4.36 55.2-31.05 59.4 11.48 27.34-12.52a43.59 43.59 0 0 1-1.74-4.7Z"/></svg>