<svg xmlns="http://www.w3.org/2000/svg" fill="none" viewBox="0 0 240 120"><path fill="var(--illustration-gray)" d="M0 16h112v80H0V16Z"/><path fill="var(--illustration-accent-2)" d="M39.999 108c0-6.629 5.372-11.999 12.001-11.999-6.629 0-12.001-5.373-12.001-12.001 0 6.629-5.373 12.001-11.999 12.001 6.626 0 11.999 5.37 11.999 11.999Z"/><path fill="var(--illustration-gray)" d="M136 36h104v48H136V36Z"/><path fill="var(--illustration-accent-1)" d="M160 60c0 17.673-14.327 32-32 32-17.673 0-32-14.327-32-32 0-17.673 14.327-32 32-32 17.673 0 32 14.327 32 32Z"/><path fill="var(--illustration-primary)" d="M112 32.281v55.438C102.435 82.186 96 71.845 96 60c0-11.844 6.435-22.186 16-27.719Z"/><path fill="var(--illustration-gray)" d="m16 8-8 8h32l-8-8H16Z"/><path fill="var(--illustration-black)" fill-rule="evenodd" d="M128 82c12.15 0 22-9.85 22-22s-9.85-22-22-22-22 9.85-22 22 9.85 22 22 22Zm0 2c13.255 0 24-10.745 24-24s-10.745-24-24-24-24 10.745-24 24 10.745 24 24 24Z" clip-rule="evenodd"/><path fill="var(--illustration-black)" fill-rule="evenodd" d="M139.293 48.755 118.216 69.83l1.414 1.415 21.077-21.077-1.414-1.414Zm-18.614 1.707a2.513 2.513 0 1 1 0 5.025 2.513 2.513 0 0 1 0-5.026Zm4.513 2.512a4.513 4.513 0 1 0-9.025 0 4.513 4.513 0 0 0 9.025 0Zm11.295 11.539a2.513 2.513 0 1 1 0 5.025 2.513 2.513 0 0 1 0-5.025ZM141 67.026a4.513 4.513 0 1 0-9.025-.001 4.513 4.513 0 0 0 9.025 0ZM7 25H0v-2h9v8h30v-8h73v2H41v8H7v-8Zm169.707 18.293 1.414 1.414L162.828 60l15.293 15.293-1.414 1.414L160 60l16.707-16.707Z" clip-rule="evenodd"/><path fill="var(--illustration-black)" fill-rule="evenodd" d="M240 61h-78v-2h78v2Z" clip-rule="evenodd"/><path fill="var(--illustration-primary)" d="M151.999 120c0-6.629 5.372-11.999 12.001-11.999-6.629 0-12.001-5.372-12.001-12.001 0 6.629-5.373 12.001-11.999 12.001 6.626 0 11.999 5.37 11.999 11.999ZM51.828 96H28.172C34.72 95.908 40 90.571 40 84c0 6.571 5.28 11.908 11.829 12Z"/><path fill="var(--illustration-positive)" d="M193.999 28c0-7.733 6.268-13.999 14.001-13.999-7.733 0-14.001-6.268-14.001-14.001 0 7.733-6.269 14.001-13.999 14.001 7.73 0 13.999 6.266 13.999 13.999Z"/></svg>