<svg xmlns="http://www.w3.org/2000/svg" fill="none" viewBox="0 0 240 121"><path fill="var(--illustration-primary)" d="M76 60.207c0 6.628-5.373 12-12 12s-12-5.372-12-12c0-6.627 5.373-12 12-12s12 5.373 12 12Z"/><path fill="var(--illustration-accent-2)" d="M14 46.207c-7.732 0-14 6.268-14 14s6.268 14 14 14h49.949C56.24 74.179 50 67.922 50 60.207c0-7.732 6.268-14 14-14H14Z"/><path fill="var(--illustration-gray)" fill-rule="evenodd" d="M168 60.207c0 26.51-21.49 48-48 48-22.874 0-42.012-16-46.83-37.42A13.967 13.967 0 0 0 78 60.207a13.97 13.97 0 0 0-4.83-10.58c4.818-21.42 23.956-37.42 46.83-37.42 26.51 0 48 21.49 48 48Zm-24 0c0 13.255-10.745 24-24 24s-24-10.745-24-24 10.745-24 24-24 24 10.745 24 24Z" clip-rule="evenodd"/><path fill="var(--illustration-white)" d="M63 61.207v5h2v-5h5v-2h-5v-5h-2v5h-5v2h5Z"/><path fill="var(--illustration-black)" fill-rule="evenodd" d="M160.006 59.707h7.25v1h-7.25v-1Z" clip-rule="evenodd"/><path fill="var(--illustration-positive)" d="M44.001 120.207c0-6.629-5.372-11.999-12.001-11.999 6.629 0 12.001-5.372 12.001-12.001 0 6.629 5.373 12.001 11.999 12.001-6.626 0-11.999 5.37-11.999 11.999Zm156-8a8 8 0 0 0-8.001-7.999 8 8 0 0 0 8.001-8.001 8 8 0 0 0 7.999 8.001 7.999 7.999 0 0 0-7.999 7.999Z"/><path fill="var(--illustration-gray)" d="M219.809 80.41c11.045 0 20-8.954 20-20 0-11.045-8.955-20-20-20h-48v40h48Z"/><path fill="var(--illustration-accent-2)" d="M172.188 23.834c0-6.525-5.29-11.812-11.815-11.812 6.525 0 11.815-5.29 11.815-11.815 0 6.526 5.289 11.815 11.812 11.815-6.523 0-11.812 5.287-11.812 11.812Zm-48.191 4.373a4 4 0 0 0-8 0v31.935a3.985 3.985 0 0 0 1.171 2.893l24.004 24.004a4 4 0 0 0 5.657-5.657L123.997 58.55V28.207Z"/><path fill="var(--illustration-invert)" d="m117.914 3.535-2.12-2.12L117.208 0l4.124 4.124-4.042 5.197-1.579-1.228 2.264-2.91-.061-1.648Zm-3.975 2.007a55.088 55.088 0 0 0-4.005.594l-.366-1.967a56.987 56.987 0 0 1 4.151-.615l.22 1.988Zm-7.955 1.481a54.992 54.992 0 0 0-3.875 1.175l-.65-1.891a56.981 56.981 0 0 1 4.015-1.218l.51 1.934Zm-7.652 2.632a55.02 55.02 0 0 0-3.66 1.731l-.921-1.775a57.003 57.003 0 0 1 3.793-1.794l.788 1.838Zm-8.887 4.821c-.562.375-1.116.76-1.663 1.155l-1.171-1.62a57.003 57.003 0 0 1 3.489-2.332l1.049 1.703c-.574.354-1.142.718-1.704 1.094Zm-4.855 3.646a54.933 54.933 0 0 0-3 2.72l-1.396-1.432c1-.976 2.037-1.916 3.109-2.818l1.288 1.53Zm-5.791 5.652a54.992 54.992 0 0 0-2.569 3.13l-1.592-1.212A57.024 57.024 0 0 1 77.3 22.45l1.499 1.325Zm-4.9 6.44a55.011 55.011 0 0 0-2.082 3.473l-1.752-.965a56.98 56.98 0 0 1 2.157-3.599l1.677 1.09Zm-4.711 8.945a55.27 55.27 0 0 0-.74 1.885l-1.875-.697a56.802 56.802 0 0 1 1.606-3.877l1.818.833c-.28.613-.55 1.232-.81 1.856Zm-2.445 7.316c.137-.53.282-1.06.434-1.587l-1.92-.557a57.7 57.7 0 0 0-.515 1.895c.681.036 1.35.12 2 .25Zm2.19 34.155a55.026 55.026 0 0 1-1.364-3.813l-1.906.604a57.014 57.014 0 0 0 1.413 3.951l1.857-.743Zm3.55 7.271a55.01 55.01 0 0 1-1.909-3.57l-1.797.877a56.957 56.957 0 0 0 1.978 3.7l1.728-1.007Zm4.577 6.673a54.913 54.913 0 0 1-2.411-3.252l-1.65 1.132a56.999 56.999 0 0 0 2.5 3.37l1.562-1.25Zm4.05 4.524a54.986 54.986 0 0 1-1.405-1.458l-1.465 1.361a56.332 56.332 0 0 0 2.967 2.967l1.361-1.465c-.494-.459-.98-.927-1.458-1.405Zm7.776 6.461a54.978 54.978 0 0 1-3.252-2.411l-1.25 1.561a56.972 56.972 0 0 0 3.37 2.5l1.132-1.65Zm6.991 4.075a55.3 55.3 0 0 1-3.57-1.908l-1.007 1.727a56.945 56.945 0 0 0 3.7 1.979l.877-1.798Zm7.514 3.005a54.664 54.664 0 0 1-3.812-1.364l-.743 1.857c1.298.519 2.615.99 3.951 1.414l.604-1.907Zm5.88 1.511a55.25 55.25 0 0 1-1.978-.431l-.462 1.946a58.432 58.432 0 0 0 4.116.818l.317-1.974a54.774 54.774 0 0 1-1.993-.359Zm10.056 1.053a55.228 55.228 0 0 1-4.044-.199l-.172 1.993c1.396.12 2.794.189 4.191.206l.025-2Zm8.077-.496a55.508 55.508 0 0 1-4.03.397l.123 1.996a57.342 57.342 0 0 0 4.176-.411l-.269-1.982Zm3.989-.692a55.637 55.637 0 0 0 3.927-.984l.557 1.921c-1.345.39-2.703.73-4.07 1.019l-.414-1.956Zm9.656-2.995c-.624.259-1.252.506-1.884.741l.696 1.874a56.87 56.87 0 0 0 3.877-1.605l-.833-1.819c-.613.281-1.231.551-1.856.809Zm5.473-2.629a55.06 55.06 0 0 0 3.473-2.082l1.09 1.677a56.487 56.487 0 0 1-3.599 2.157l-.964-1.752Zm9.913-6.981a55.29 55.29 0 0 1-3.13 2.568l1.211 1.592a56.946 56.946 0 0 0 3.243-2.662l-1.324-1.498Zm2.932-2.792a54.687 54.687 0 0 0 2.719-3l1.53 1.287a56.743 56.743 0 0 1-2.818 3.109l-1.431-1.396Zm6.366-7.855a55.648 55.648 0 0 1-1.156 1.663l1.621 1.171a56.208 56.208 0 0 0 2.331-3.489l-1.703-1.049a54.773 54.773 0 0 1-1.093 1.704Zm3.089-5.226c.623-1.2 1.2-2.421 1.731-3.66l1.838.787a56.352 56.352 0 0 1-1.794 3.794l-1.775-.921Z"/><path fill="var(--illustration-primary)" fill-rule="evenodd" d="m133.904 79.772 7.268 7.267a4 4 0 0 0 5.657-5.656l-7.267-7.267a24.125 24.125 0 0 1-5.658 5.656Z" clip-rule="evenodd"/><path fill="var(--illustration-accent-1)" d="M192 60.207c0 11.046-8.954 20-20 20s-20-8.954-20-20 8.954-20 20-20 20 8.954 20 20Z"/><path fill="var(--illustration-primary)" fill-rule="evenodd" d="M164.317 41.736C157.085 44.748 152 51.884 152 60.207c0 8.324 5.085 15.46 12.317 18.471A47.846 47.846 0 0 0 168 60.207c0-6.546-1.31-12.785-3.683-18.471Z" clip-rule="evenodd"/><path fill="var(--illustration-black)" fill-rule="evenodd" d="M172.006 73.207c7.18 0 13-5.82 13-13s-5.82-13-13-13-13 5.82-13 13 5.82 13 13 13Zm0 2c8.284 0 15-6.716 15-15 0-8.284-6.716-15-15-15-8.284 0-15 6.716-15 15 0 8.284 6.716 15 15 15Z" clip-rule="evenodd"/><path fill="var(--illustration-invert-2)" d="M172.007 70.206c0-5.523-4.477-9.999-10.001-9.999 5.524 0 10.001-4.477 10.001-10 0 5.523 4.477 10 9.999 10-5.522 0-9.999 4.476-9.999 10Z"/><path fill="var(--illustration-primary)" fill-rule="evenodd" d="M123.996 36.538a24.16 24.16 0 0 0-3.996-.331c-1.364 0-2.702.114-4.004.332v-8.332a4 4 0 0 1 8 0v8.33Z" clip-rule="evenodd"/></svg>