<svg xmlns="http://www.w3.org/2000/svg" fill="none" viewBox="0 0 240 120"><path fill="var(--illustration-accent-1)" fill-rule="evenodd" d="M120 108v12H0V60h72c0 26.51 21.49 48 48 48" clip-rule="evenodd"/><path fill="var(--illustration-gray)" fill-rule="evenodd" d="M240 0H120v12c26.51 0 48 21.49 48 48h72z" clip-rule="evenodd"/><path fill="var(--illustration-gray)" fill-rule="evenodd" d="M180 60c0 33.137-26.863 60-60 60S60 93.137 60 60 86.863 0 120 0s60 26.863 60 60m-60 48c26.51 0 48-21.49 48-48s-21.49-48-48-48-48 21.49-48 48 21.49 48 48 48" clip-rule="evenodd"/><path fill="var(--illustration-primary)" d="m168.853 17.31-6.453-6.453-11.291 11.292 6.452 6.452z"/><path fill="var(--illustration-black)" d="m174 22.5 6-6.5-16-16-6.5 6.5z"/><path fill="var(--illustration-primary)" d="M96.345 83.654a33.452 33.452 0 0 0 47.308-47.308L119.999 60z"/><path fill="var(--illustration-accent-1)" d="M139.777 40c10.964 10.957 10.964 28.728 0 39.756-10.963 11.027-28.743 10.957-39.777 0z"/><path fill="var(--illustration-gray)" d="M100.223 80c-10.964-10.957-10.964-28.728 0-39.756 10.963-11.027 28.743-10.957 39.777 0z"/><path fill="var(--illustration-invert)" fill-rule="evenodd" d="m150.707 31.414-30 30L119.293 60l30-30z" clip-rule="evenodd"/><path fill="var(--illustration-black)" fill-rule="evenodd" d="M120 40c-11.046 0-20 8.954-20 20s8.954 20 20 20 20-8.954 20-20-8.954-20-20-20M98 60c0-12.15 9.85-22 22-22s22 9.85 22 22-9.85 22-22 22-22-9.85-22-22" clip-rule="evenodd"/><path fill="var(--illustration-black)" d="M125 60.5a4.5 4.5 0 1 1-9 0 4.5 4.5 0 0 1 9 0"/><path fill="var(--illustration-invert)" fill-rule="evenodd" d="M118.731 18.019a42 42 0 0 1 2.538 0l-.237 7.996a35 35 0 0 0-2.064 0zM89.418 31.212a42 42 0 0 1 1.793-1.794l5.485 5.825q-.749.705-1.453 1.453zm72.563 27.519a41 41 0 0 1 0 2.538l-7.996-.237a35 35 0 0 0 0-2.064zM78 60q0-.637.019-1.27l7.996.238a35 35 0 0 0 0 2.064l-7.996.237A43 43 0 0 1 78 60m72.582 28.789a42 42 0 0 1-1.794 1.793l-5.484-5.825q.749-.705 1.453-1.453zm-59.37 1.793a42 42 0 0 1-1.794-1.793l5.825-5.485q.705.749 1.453 1.453zM120 102q-.637 0-1.269-.019l.237-7.996a35 35 0 0 0 2.064 0l.237 7.996q-.632.02-1.269.019" clip-rule="evenodd"/><path fill="var(--illustration-primary)" d="M180 60c0-33.137-26.863-60-60-60v12c26.51 0 48 21.49 48 48zM72 60H60c0 33.137 26.863 60 60 60v-12c-26.51 0-48-21.49-48-48"/></svg>