<svg xmlns="http://www.w3.org/2000/svg" fill="none" viewBox="0 0 240 121"><path fill="var(--illustration-gray)" d="M80 64h80v56H80V64Z"/><path fill="var(--illustration-accent-1)" d="M148 64a28 28 0 1 1-56 0 28 28 0 0 1 56 0Z"/><path fill="var(--illustration-primary)" d="M148 64a28 28 0 0 1-56 0h56Z"/><path fill="var(--illustration-black)" fill-rule="evenodd" d="M120 45a19 19 0 1 0 0 38 19 19 0 0 0 0-38ZM99 64a21 21 0 1 1 42 0 21 21 0 0 1-42 0Z" clip-rule="evenodd"/><path fill="var(--illustration-gray)" d="m62.58 25.71 77.28-20.7L144 20.45l-77.27 20.7-4.15-15.45Z"/><path fill="var(--illustration-invert)" fill-rule="evenodd" d="M76.43 12.19a4.38 4.38 0 0 1 4.57-2l19.64 3.86-.05 1.97-19.82 2.82a4.38 4.38 0 0 1-4.34-6.65Zm4.19-.03a2.38 2.38 0 1 0-.13 4.7l13.96-1.99-13.83-2.71Z" clip-rule="evenodd"/><path fill="var(--illustration-invert)" fill-rule="evenodd" d="M119.83.56a4.38 4.38 0 0 0-4.95.56l-15.1 13.16 1.03 1.68 18.57-7.47a4.38 4.38 0 0 0 .44-7.93Zm-3.64 2.06a2.38 2.38 0 1 1 2.46 4.01l-13.09 5.26 10.63-9.27Z" clip-rule="evenodd"/><path fill="var(--illustration-invert)" fill-rule="evenodd" d="m104.33 31.08-4.06-15.3 1.94-.51 4.06 15.3-1.94.51ZM119 118.1V64h2v54.1h-2Z" clip-rule="evenodd"/><path fill="var(--illustration-invert)" fill-rule="evenodd" d="m120 117.17-10.6-10.6-1.42 1.42L120 120l12.02-12.02-1.42-1.4-10.6 10.6Z" clip-rule="evenodd"/><path fill="var(--illustration-positive)" d="M240 60a20 20 0 0 0-20 20 20 20 0 0 0-20-20 20 20 0 0 0 20-20 20 20 0 0 0 20 20Z"/><path fill="var(--illustration-accent-2)" d="M0 88a16 16 0 0 0 16-16 16 16 0 0 0 16 16 16 16 0 0 0-16 16A16 16 0 0 0 0 88Zm200-60a12 12 0 0 0-12 12 12 12 0 0 0-12-12 12 12 0 0 0 12-12 12 12 0 0 0 12 12Z"/><path fill="var(--illustration-accent-1)" d="M176 104a8 8 0 0 0 8-8 8 8 0 0 0 8 8 8 8 0 0 0-8 8 8 8 0 0 0-8-8Z"/><path fill="var(--illustration-positive)" d="M32 56a8 8 0 0 0 8-8 8 8 0 0 0 8 8 8 8 0 0 0-8 8 8 8 0 0 0-8-8Z"/></svg>