<svg xmlns="http://www.w3.org/2000/svg" fill="none" viewBox="0 0 240 120"><path fill="var(--illustration-primary)" fill-rule="evenodd" d="M56.002 71.904c-13.255-.01-24.008 10.727-24.018 23.982s10.728 24.008 23.983 24.018L189.22 120a2.747 2.747 0 0 0 2.749-2.745L192 74.749a2.747 2.747 0 0 0-2.745-2.75zM72 96c0 8.837-7.163 16-16 16s-16-7.163-16-16 7.163-16 16-16 16 7.163 16 16" clip-rule="evenodd"/><path fill="var(--illustration-gray)" fill-rule="evenodd" d="M42.398 76.019c-10.92 7.513-13.681 22.456-6.168 33.376 7.514 10.92 22.457 13.681 33.377 6.167l109.776-75.534a2.746 2.746 0 0 0 .706-3.82L155.994 1.19a2.746 2.746 0 0 0-3.819-.706zM72 96c0 8.837-7.163 16-16 16s-16-7.163-16-16 7.163-16 16-16 16 7.164 16 16" clip-rule="evenodd"/><path fill="var(--illustration-accent-1)" d="M206 88h-46v16h46z"/><path fill="var(--illustration-black)" d="M192 88h-32v16h32z"/><path fill="var(--illustration-primary)" d="M204 90a2 2 0 1 1 4 0v12a2 2 0 1 1-4 0z"/><path fill="var(--illustration-invert)" fill-rule="evenodd" d="M36.23 109.395a23.93 23.93 0 0 1-3.773-18.256c2.212-10.98 11.915-19.244 23.545-19.236l76.974.056-63.37 43.603c-10.919 7.514-25.862 4.753-33.375-6.167M72 96c0 8.836-7.163 16-16 16s-16-7.164-16-16 7.163-16 16-16 16 7.163 16 16" clip-rule="evenodd"/><path fill="var(--illustration-invert)" fill-rule="evenodd" d="M56 85.923c-5.565 0-10.076 4.512-10.076 10.077S50.435 106.077 56 106.077 66.078 101.565 66.078 96 61.566 85.923 56 85.923M43.925 96c0-6.67 5.407-12.077 12.077-12.077S68.078 89.33 68.078 96 62.67 108.077 56 108.077 43.924 102.67 43.924 96M128 87h24v2h-24zm0 16h24v2h-24zm0-8h24v2h-24z" clip-rule="evenodd"/></svg>