<svg xmlns="http://www.w3.org/2000/svg" fill="none" viewBox="0 0 240 120"><path fill="var(--illustration-primary)" fill-rule="evenodd" d="M56 71.9a24 24 0 0 0-.03 48l133.25.1a2.75 2.75 0 0 0 2.75-2.75l.03-42.5a2.75 2.75 0 0 0-2.75-2.75L56 71.9ZM72 96a16 16 0 1 1-32 0 16 16 0 0 1 32 0Z" clip-rule="evenodd"/><path fill="var(--illustration-gray)" fill-rule="evenodd" d="M42.4 76.02a24 24 0 1 0 27.2 39.54l109.78-75.53a2.75 2.75 0 0 0 .7-3.82L156 1.19a2.75 2.75 0 0 0-3.81-.7L42.4 76.01ZM72 96a16 16 0 1 1-32 0 16 16 0 0 1 32 0Z" clip-rule="evenodd"/><path fill="var(--illustration-accent-1)" d="M206 88h-46v16h46V88Z"/><path fill="var(--illustration-black)" d="M192 88h-32v16h32V88Z"/><path fill="var(--illustration-primary)" d="M204 90a2 2 0 1 1 4 0v12a2 2 0 1 1-4 0V90Z"/><path fill="var(--illustration-invert)" fill-rule="evenodd" d="M36.23 109.4a23.93 23.93 0 0 1-3.77-18.26A24 24 0 0 1 56 71.9l76.98.06-63.37 43.6a24 24 0 0 1-33.38-6.17ZM72 96a16 16 0 1 1-32 0 16 16 0 0 1 32 0Z" clip-rule="evenodd"/><path fill="var(--illustration-invert)" fill-rule="evenodd" d="M56 85.92a10.08 10.08 0 1 0 0 20.16 10.08 10.08 0 0 0 0-20.16ZM43.92 96a12.08 12.08 0 1 1 24.16 0 12.08 12.08 0 0 1-24.16 0ZM128 87h24v2h-24v-2Zm0 16h24v2h-24v-2Zm0-8h24v2h-24v-2Z" clip-rule="evenodd"/></svg>