<svg xmlns="http://www.w3.org/2000/svg" fill="none" viewBox="0 0 240 121"><path fill="var(--illustration-gray)" d="M32 8h112v64H32z"/><path fill="var(--illustration-primary)" d="M32 80a40 40 0 0 0 0-80z"/><path fill="var(--illustration-gray)" d="M112 96h96.001v24H112z"/><path fill="var(--illustration-black)" fill-rule="evenodd" d="M208.001 120.059H112v-2h96.001z" clip-rule="evenodd"/><path fill="var(--illustration-black)" fill-rule="evenodd" d="M121 110.727V120h-2v-9.273zm40.001 0V120h-2v-9.273zm39.999 0V120h-2v-9.273zm-66.667 0V120h-2v-9.273zm40.001 0V120h-2v-9.273zm-26.668 0V120h-2v-9.273zm40.001 0V120h-2v-9.273z" clip-rule="evenodd"/><path fill="var(--illustration-gray)" d="M96 72h96.001v24H96z"/><path fill="var(--illustration-black)" fill-rule="evenodd" d="M192.001 96.06H96v-2h96.001z" clip-rule="evenodd"/><path fill="var(--illustration-black)" fill-rule="evenodd" d="M105 86.727V96h-2v-9.273zm40.001 0V96h-2v-9.273zm39.999 0V96h-2v-9.273zm-66.667 0V96h-2v-9.273zm40.001 0V96h-2v-9.273zm-26.668 0V96h-2v-9.273zm40.001 0V96h-2v-9.273z" clip-rule="evenodd"/><path fill="var(--illustration-accent-1)" d="M184 40c0 22.091-17.909 40-40 40s-40-17.909-40-40 17.909-40 40-40 40 17.909 40 40"/><path fill="var(--illustration-accent-1)" d="M184 40c0 22.091-17.909 40-40 40s-40-17.909-40-40 17.909-40 40-40 40 17.909 40 40"/><path fill="var(--illustration-gray)" d="M96 72h96.001v24H96z"/><path fill="var(--illustration-black)" fill-rule="evenodd" d="M192.001 96.06H96v-2h96.001z" clip-rule="evenodd"/><path fill="var(--illustration-black)" fill-rule="evenodd" d="M105 86.727V96h-2v-9.273zm40.001 0V96h-2v-9.273zm39.999 0V96h-2v-9.273zm-66.667 0V96h-2v-9.273zm40.001 0V96h-2v-9.273zm-26.668 0V96h-2v-9.273zm40.001 0V96h-2v-9.273z" clip-rule="evenodd"/><path fill="var(--illustration-accent-1)" d="M184 40c0 22.091-17.909 40-40 40s-40-17.909-40-40 17.909-40 40-40 40 17.909 40 40"/><path fill="var(--illustration-primary)" fill-rule="evenodd" d="M168.004 72A39.82 39.82 0 0 1 144 80a39.82 39.82 0 0 1-24.004-8z" clip-rule="evenodd"/><path fill="var(--illustration-black)" fill-rule="evenodd" d="M144 8.5c-17.397 0-31.5 14.103-31.5 31.5s14.103 31.5 31.5 31.5 31.5-14.103 31.5-31.5S161.397 8.5 144 8.5M110.5 40c0-18.501 14.998-33.5 33.5-33.5s33.5 14.999 33.5 33.5c0 18.502-14.998 33.5-33.5 33.5S110.5 58.502 110.5 40" clip-rule="evenodd"/><path fill="var(--illustration-invert)" d="m140.059 49.162 1.414 1.414 10.342-10.342-10.342-10.343-1.414 1.415L147.753 39H32v2h116.221z"/></svg>