<svg xmlns="http://www.w3.org/2000/svg" fill="none" viewBox="0 0 240 120"><path fill="var(--illustration-gray)" d="M240 73.096V46.915H0v26.181z"/><path fill="#E66020" d="M204.322 60c0 3.617-1.462 6.89-3.835 9.257a13.05 13.05 0 0 1-9.256 3.834h-65.455c-7.227 0-13.091-5.864-13.091-13.09 0-3.617 1.468-6.89 3.835-9.257a13.07 13.07 0 0 1 9.256-3.835h65.455c7.232 0 13.091 5.858 13.091 13.091"/><path fill="var(--illustration-accent-2)" d="M120 118.751c32.447 0 58.751-26.304 58.751-58.751S152.447 1.249 120 1.249s-58.751 26.304-58.751 58.75c0 32.448 26.304 58.752 58.751 58.752"/><path fill="var(--illustration-invert)" d="M156.671 97.375H83.067v1.09h73.604zm.262-75.835H83.329v1.09h73.604z"/><path fill="var(--illustration-invert-2)" d="M120 9.273c27.971 0 50.727 22.756 50.727 50.727S147.971 110.727 120 110.727 69.273 87.971 69.273 60 92.029 9.273 120 9.273m0-7.222c-32.002 0-57.95 25.947-57.95 57.95 0 32 25.948 57.948 57.95 57.948S177.949 92.002 177.949 60 152.002 2.051 120 2.051"/><path fill="#E66020" d="M180.131 59.733c0 4.593-.518 9.06-1.495 13.358H61.626a60.2 60.2 0 0 1-1.495-13.358c0-4.593.475-8.695 1.38-12.824h117.24a60 60 0 0 1 1.38 12.824"/><path fill="var(--illustration-invert)" d="M177.949 59.733c0 4.593-.518 9.06-1.495 13.358h-51.769c-7.227 0-13.091-5.864-13.091-13.09 0-3.617 1.468-6.89 3.835-9.257a13.07 13.07 0 0 1 9.256-3.835h51.884a60 60 0 0 1 1.38 12.824"/><path fill="var(--illustration-primary)" d="M120 5.455c30.076 0 54.545 24.469 54.545 54.545S150.076 114.545 120 114.545 65.454 90.076 65.454 60 89.925 5.455 120 5.455M120 0C86.864 0 60 26.864 60 60s26.864 60 60 60 60-26.864 60-60-26.864-60-60-60"/><path fill="var(--illustration-invert-2)" fill-rule="evenodd" d="M125.084 64.364v-8.728h1.091v8.728z" clip-rule="evenodd"/><path fill="var(--illustration-invert-2)" fill-rule="evenodd" d="m129.72 58.293-7.582 4.363-.545-.944 7.582-4.363z" clip-rule="evenodd"/><path fill="var(--illustration-invert-2)" fill-rule="evenodd" d="m122.138 57.349 7.582 4.364-.545.943-7.582-4.364zm16.145 7.015v-8.728h1.091v8.728z" clip-rule="evenodd"/><path fill="var(--illustration-invert-2)" fill-rule="evenodd" d="m142.866 58.293-7.582 4.363-.546-.944 7.582-4.363z" clip-rule="evenodd"/><path fill="var(--illustration-invert-2)" fill-rule="evenodd" d="m135.284 57.349 7.582 4.364-.546.943-7.582-4.364zm15.981 7.015v-8.728h1.091v8.728z" clip-rule="evenodd"/><path fill="var(--illustration-invert-2)" fill-rule="evenodd" d="m155.902 58.293-7.582 4.363-.546-.944 7.582-4.363z" clip-rule="evenodd"/><path fill="var(--illustration-invert-2)" fill-rule="evenodd" d="m148.32 57.349 7.582 4.364-.546.943-7.582-4.364zm16.036 7.015v-8.728h1.091v8.728z" clip-rule="evenodd"/><path fill="var(--illustration-invert-2)" fill-rule="evenodd" d="m168.993 58.293-7.582 4.363-.546-.944 7.582-4.363z" clip-rule="evenodd"/><path fill="var(--illustration-invert-2)" fill-rule="evenodd" d="m161.411 57.349 7.582 4.364-.546.943-7.582-4.364z" clip-rule="evenodd"/><path fill="var(--illustration-invert)" d="M199.958 60a8.727 8.727 0 1 0-17.454 0 8.727 8.727 0 1 0 17.454 0"/><path fill="var(--illustration-invert-2)" d="M193.5 58.926h-6.431v5.563h8.313v-5.564z"/><path fill="var(--illustration-invert-2)" d="M188.188 59.1h6.087v-.84a3.044 3.044 0 0 0-6.087 0z"/><path fill="var(--illustration-invert)" d="M193.047 58.184a1.815 1.815 0 1 0-3.632 0v.741h3.638v-.741zm-92.683-6.911H82.909v17.454h17.455z"/><path fill="var(--illustration-invert-2)" d="M89.455 61.249h4.363a2.94 2.94 0 0 1 2.94 2.94v.72H86.515v-.72c0-1.625 1.32-2.94 2.94-2.94m2.181-1.031a2.564 2.564 0 1 0 0-5.127 2.564 2.564 0 0 0 0 5.127m6.546-31.854H85.09v13.09h13.09z"/><path fill="var(--illustration-invert)" d="M90 35.847h3.273c1.216 0 2.204.987 2.204 2.204v.54H87.79v-.54c0-1.217.987-2.204 2.204-2.204zm1.637-.774a1.92 1.92 0 1 0 0-3.84 1.92 1.92 0 0 0 0 3.84"/><path fill="var(--illustration-invert-2)" d="M98.182 78.747H85.09v13.091h13.09z"/><path fill="var(--illustration-invert)" d="M90 86.231h3.273c1.216 0 2.204.987 2.204 2.204v.54H87.79v-.54c0-1.217.987-2.204 2.204-2.204zm1.637-.78a1.92 1.92 0 1 0 0-3.84 1.92 1.92 0 0 0 0 3.84"/><path fill="var(--illustration-accent-2)" d="M69.273 60c0 4.527.594 8.913 1.712 13.091h-3.943a54.5 54.5 0 0 1-1.588-13.09c0-4.512.551-8.897 1.588-13.092h3.943A50.6 50.6 0 0 0 69.272 60"/><path fill="var(--illustration-invert)" d="M178.565 46.91h-5.607v26.18h5.607A60 60 0 0 0 180 60.001a60 60 0 0 0-1.435-13.092m-117.13 0A60.2 60.2 0 0 0 60 60c0 4.495.496 8.875 1.435 13.091h5.607a54.5 54.5 0 0 1-1.588-13.09c0-4.512.551-8.897 1.588-13.092z"/></svg>