<svg xmlns="http://www.w3.org/2000/svg" fill="none" viewBox="0 0 240 120"><path fill="var(--illustration-accent-1)" d="m32 80 88-40 88 40-88 40-88-40Z"/><path fill="var(--illustration-primary)" d="M120.008 120 76 60.008 120.008 40 164 59.998 120.008 120Z"/><path fill="var(--illustration-black)" fill-rule="evenodd" d="M55 80V48h2v32h-2Zm128 0V48h2v32h-2Zm-64 24V72h2v32h-2Z" clip-rule="evenodd"/><path fill="var(--illustration-accent-2)" d="m32 40 88-40 88 40-88 40-88-40Z"/><path fill="var(--illustration-primary)" d="M120.008 0 76 59.992 120.008 80 164 60.002 120.008 0Z"/><path fill="var(--illustration-black)" fill-rule="evenodd" d="m164 60-44 20-44-20 44-20 44 20Z" clip-rule="evenodd"/></svg>