<svg xmlns="http://www.w3.org/2000/svg" fill="none" viewBox="0 0 240 120"><path fill="var(--illustration-primary)" d="M2 88h210c15.5 0 28-12.5 28-28s-12.5-28-28-28H2c-1.1 0-2 .9-2 2v52c0 1.1.9 2 2 2Z"/><path fill="var(--illustration-gray)" d="M64 120h112V0H64v120Z"/><path fill="var(--illustration-black)" d="M176 32H64v56h112V32Z"/><path fill="var(--illustration-white)" d="M212 80c11.046 0 20-8.954 20-20s-8.954-20-20-20-20 8.954-20 20 8.954 20 20 20Z"/><path stroke="var(--illustration-black)" stroke-miterlimit="10" stroke-width="2" d="M212 72c6.627 0 12-5.373 12-12s-5.373-12-12-12-12 5.373-12 12 5.373 12 12 12Z"/><path fill="var(--illustration-black)" d="m212.066 55.826-4.171 4.172 4.171 4.172 4.172-4.172-4.172-4.172Z"/><path stroke="var(--illustration-black)" stroke-miterlimit="10" stroke-width="2" d="M56 72H24m32-8.1H24M56 56H24m32-8H24m-8 40V32"/><path fill="var(--illustration-accent-1)" d="M160 88H80l40-56 40 56Z"/><path fill="var(--illustration-black)" d="M116.898 47.9h6.2l-1.6 22.8h-3.1l-1.5-22.8Zm6.2 29.3c0-1.8-1.4-3.3-3.1-3.3-1.7 0-3.1 1.5-3.1 3.3 0 1.8 1.4 3.3 3.1 3.3 1.7 0 3.1-1.5 3.1-3.3Z"/></svg>