<svg xmlns="http://www.w3.org/2000/svg" fill="none" viewBox="0 0 240 120"><path fill="var(--illustration-gray)" d="M72 120h96V84a48 48 0 1 0-96 0v36Z"/><path fill="var(--illustration-primary)" d="M152 48.06c0-11.22 0-16.83 2.18-21.12a20.04 20.04 0 0 1 8.76-8.76c4.29-2.18 9.9-2.18 21.12-2.18h23.88c11.22 0 16.83 0 21.12 2.18a20.04 20.04 0 0 1 8.76 8.76c2.18 4.29 2.18 9.9 2.18 21.12v23.88c0 11.22 0 16.83-2.18 21.12a20.04 20.04 0 0 1-8.76 8.76c-4.29 2.18-9.9 2.18-21.12 2.18h-23.88c-11.22 0-16.83 0-21.12-2.18a20.04 20.04 0 0 1-8.76-8.76C152 88.77 152 83.16 152 71.94V48.06Z"/><path fill="var(--illustration-white)" d="M226 60a30 30 0 1 1-60 0 30 30 0 0 1 60 0Z"/><path fill="var(--illustration-primary)" d="M186.22 55.04c0-1.55 0-2.33.32-2.92.27-.52.72-.95 1.26-1.21.61-.3 1.42-.3 3.04-.3h10.32c1.62 0 2.43 0 3.04.3.55.26.99.69 1.26 1.21.32.6.32 1.37.32 2.92v9.92c0 1.55 0 2.33-.32 2.92-.27.52-.71.95-1.26 1.21-.61.3-1.42.3-3.04.3h-10.32c-1.62 0-2.43 0-3.04-.3a2.83 2.83 0 0 1-1.26-1.2c-.32-.6-.32-1.38-.32-2.93v-9.92ZM0 48.06c0-11.22 0-16.83 2.18-21.12a20.04 20.04 0 0 1 8.76-8.76C15.23 16 20.84 16 32.06 16h23.88c11.22 0 16.83 0 21.12 2.18a20.04 20.04 0 0 1 8.76 8.76C88 31.23 88 36.84 88 48.06v23.88c0 11.22 0 16.83-2.18 21.12a20.04 20.04 0 0 1-8.76 8.76C72.77 104 67.16 104 55.94 104H32.06c-11.22 0-16.83 0-21.12-2.18a20.04 20.04 0 0 1-8.76-8.76C0 88.77 0 83.16 0 71.94V48.06Z"/><path fill="var(--illustration-white)" d="M43.56 75.75a15.26 15.26 0 1 1 15.05-17.8H74A30.53 30.53 0 0 0 43.56 30 30.54 30.54 0 0 0 13 60.5 30.54 30.54 0 0 0 43.56 91 30.53 30.53 0 0 0 74 63.04H58.6a15.27 15.27 0 0 1-15.04 12.71Z"/><path fill="var(--illustration-gray)" d="M96 0h48v60a24 24 0 1 1-48 0V0Z"/><path fill="var(--illustration-primary)" d="M144 42.42V60a24 24 0 1 1-48 0V42.42A47.78 47.78 0 0 1 120 36c8.74 0 16.94 2.34 24 6.42Z"/><path fill="var(--illustration-white)" d="M136 60a16 16 0 1 1-32 0 16 16 0 0 1 32 0Z"/><path fill="var(--illustration-black)" fill-rule="evenodd" d="M110 60a5 5 0 0 1 5-5h4v2h-4a3 3 0 1 0 0 6h4v2h-4a5 5 0 0 1-5-5Zm20 0a5 5 0 0 0-5-5h-4v2h4a3 3 0 1 1 0 6h-4v2h4a5 5 0 0 0 5-5Z" clip-rule="evenodd"/><path fill="var(--illustration-black)" fill-rule="evenodd" d="M125 61h-10v-2h10v2Z" clip-rule="evenodd"/></svg>