<svg xmlns="http://www.w3.org/2000/svg" fill="none" viewBox="0 0 241 120"><path fill="var(--illustration-accent-2)" fill-rule="evenodd" d="M108.769 12a28 28 0 0 0 0 48H20.191V12h88.578Z" clip-rule="evenodd"/><path fill="var(--illustration-gray)" d="M28 0H0v120h28v-8h171.111A23.912 23.912 0 0 1 193 96a23.912 23.912 0 0 1 6.111-16H28V0Z"/><path fill="var(--illustration-primary)" d="M28.191 80v32h-28V80h28Zm-28-68h28v48h-28V12Z"/><path fill="var(--illustration-invert)" fill-rule="evenodd" d="M8.191 13.25h-8v-2h8v2Zm0 48h-8v-2h8v2Zm0-16h-8v-2h8v2Zm0-16.068h-8v-2h8v2Zm0 48.001h-8v-2h8v2Zm0 32.067h-8v-2h8v2Zm0-16h-8v-2h8v2Z" clip-rule="evenodd"/><path fill="var(--illustration-negative)" d="M197 96c0 11.046 8.954 20 20 20s20-8.954 20-20-8.954-20-20-20-20 8.954-20 20Z"/><path fill="var(--illustration-black)" d="M217.833 101.834h-1.666L214.5 83.5h5l-1.667 18.334Zm-.83 6.668a2.49 2.49 0 0 0 2.5-2.5 2.49 2.49 0 0 0-2.5-2.5 2.49 2.49 0 0 0-2.5 2.5c-.07 1.389 1.111 2.5 2.5 2.5Z"/><path fill="var(--illustration-gray)" fill-rule="evenodd" d="M123.683 12.17v47.944c-13.163-.09-23.806-10.788-23.806-23.972 0-13.184 10.643-23.883 23.806-23.972Z" clip-rule="evenodd"/><path fill="var(--illustration-primary)" d="M99.809 36c0-13.255 10.745-24 24-24 13.254 0 24 10.745 24 24s-10.746 24-24 24c-13.255 0-24-10.745-24-24Z"/><path fill="var(--illustration-gray)" d="M123.809 12a24 24 0 0 1 0 48V12Z"/><path fill="var(--illustration-invert)" fill-rule="evenodd" d="M123.849 2.183c-18.755 0-33.96 15.204-33.96 33.959 0 18.755 15.205 33.96 33.96 33.96 18.755 0 33.96-15.205 33.96-33.96 0-18.755-15.205-33.96-33.96-33.96Zm0-2c-19.86 0-35.96 16.1-35.96 35.959 0 19.86 16.1 35.96 35.96 35.96s35.96-16.1 35.96-35.96-16.1-35.96-35.96-35.96Z" clip-rule="evenodd"/><path fill="var(--illustration-accent-1)" d="M123.391 60a23.998 23.998 0 0 0 23.538-28.682 23.996 23.996 0 0 0-18.856-18.857A24.001 24.001 0 1 0 123.391 60Z"/><path fill="var(--illustration-black)" d="m123.393 22.855 3.093 10.194 10.195 3.093-10.195 3.093-3.093 10.195-3.093-10.195-10.195-3.093 10.195-3.093 3.093-10.194Z"/></svg>