<svg xmlns="http://www.w3.org/2000/svg" fill="none" viewBox="0 0 240 120"><path fill="var(--illustration-positive)" d="M160 16H80v88h80V16Z"/><path fill="var(--illustration-gray)" d="M145.4 60.9c0 .9-.1 1.7-.2 2.6-.9 5.1-4.4 9.6-9.5 12.6-.4.2-.8.5-1.2.7-.1.1-.3.2-.4.2-.2.1-.3.2-.5.2-.2.1-.3.2-.5.2-.6.2-1.1.5-1.7.7-.2.1-.3.1-.5.2-.7.2-1.3.5-2 .6l-1.2.3c-.1 0-.2.1-.4.1l-1.3.3c-.2 0-.3.1-.5.1h-.1c-.2 0-.4.1-.6.1-.4.1-.8.1-1.2.1h-.4c-.9.1-1.9.1-2.8.1-.8 0-1.6 0-2.4-.1h-.6c-.2 0-.4 0-.6-.1-.3 0-.5-.1-.8-.1-.2 0-.5-.1-.7-.1-.2 0-.4-.1-.6-.1l-1.6-.3c-.2 0-.4-.1-.6-.1-.2-.1-.5-.1-.7-.2-.2-.1-.4-.1-.7-.2-.2-.1-.4-.1-.5-.2-.5-.2-.9-.3-1.4-.5-3.6-3-6.2-9.6-6.8-14.7-.1-.8-.2-1.7-.2-2.6a20.38 20.38 0 0 1 3.5-11.4c.1-.1.2-.3.3-.4.1-.1.2-.2.3-.4 0 0 0-.1.1-.1l.3-.3c.2-.2.4-.5.6-.7l.2-.2.4-.4.6-.6.2-.2c.1-.1.3-.2.4-.4 0 0 .1 0 .1-.1.2-.2.4-.3.5-.4-.2-.6-.3-1.3-.5-1.9-.1-.2-.1-.4-.2-.5 0-.1 0-.1-.1-.2-.1-.2-.1-.4-.2-.6l-.3-1c-.1-.2-.2-.5-.3-.7-.2-.5-.4-1.1-.6-1.6a3 3 0 0 0-.4-.8s0-.1-.1-.1c-.1-.2-.2-.5-.3-.7 1.8 1.6 3.4 3.5 4.8 5.8a42 42 0 0 1 8.4-1.2h.8c2.1 0 4.2.2 6.2.7.8.2 1.5.3 2.3.6 1.3-2.3 2.9-4.2 4.6-5.8 2.6-2.3 5.6-3.8 8.6-4.2l-.2.2c-.2.2-.4.5-.7.8-.1.1-.2.3-.3.4l-.3.3c-.1.2-.2.3-.4.5-.1.1-.2.2-.3.4-.2.3-.4.5-.6.8-.2.3-.4.6-.6.8-.1.1-.2.3-.3.4-.6.9-1.2 1.9-1.7 2.9-.1.2-.2.5-.3.7 0 .1-.1.2-.1.2-.1.2-.2.3-.2.5-.1.1-.1.2-.1.3v.1c-.1.2-.2.3-.2.5-.1.3-.2.5-.3.8-.1.2-.2.5-.3.7-.1.4-.3.7-.4 1.1.2.1.5.3.7.4.2.1.3.2.5.3.1.1.2.1.3.2.2.1.3.2.5.3h.1c.1.1.2.1.2.2.1.1.2.1.2.2h.1c.2.1.3.2.5.4.2.1.3.2.5.4.2.1.3.3.5.4.1.1.3.2.4.4.2.2.3.3.5.4l.4.4c.6.6 1.1 1.2 1.6 1.8 2 3.1 3.3 6.4 3.3 9.8Z"/><path fill="var(--illustration-black)" d="M109 83.3c-5.9 4.8-10 10.7-11.3 20l-.1.7h-8.8l.1-.7c1.9-9.3 7.6-17.3 15.8-22 1.4.8 2.8 1.5 4.3 2Z"/><path fill="var(--illustration-gray)" d="M151.4 104H97.6l.1-.7c1.3-9.2 5.5-15.2 11.3-20 3.4 1.3 7.2 2 11.2 2 1.6 0 3.2-.1 4.8-.3.2 0 .3-.1.5-.1.4-.1.7-.1 1.1-.2.2 0 .3-.1.5-.1.5-.1 1-.2 1.5-.4l.9-.3h.1c.5-.1.9-.3 1.3-.4.6-.2 1.2-.5 1.8-.7.1 0 .1-.1.2-.1s.1 0 .2-.1c.2-.1.3-.2.5-.2.1-.1.3-.1.4-.2.6-.3 1.1-.6 1.6-.9 8.1 4.8 13.8 12.7 15.7 22l.1.7Z"/><path fill="var(--illustration-white)" d="M135.7 76.1v5.2s-.1 0-.1.1c-.5.3-1.1.6-1.6.9-.1.1-.3.1-.4.2-.2.1-.3.2-.5.2-.1 0-.1 0-.2.1-.1 0-.1.1-.2.1-.6.3-1.2.5-1.8.7-.4.2-.9.3-1.3.4h-.1l-.9.3c-.5.1-1 .2-1.5.4-.2 0-.3.1-.5.1-.4.1-.7.1-1.1.2-.2 0-.3.1-.5.1-1.5.2-3.1.3-4.8.3-4 0-7.8-.7-11.2-2v-5.1c.5.2.9.3 1.4.5.2.1.4.1.5.2.2.1.4.1.7.2.2.1.5.1.7.2.2.1.4.1.6.1.5.1 1 .2 1.6.3.2 0 .4.1.6.1.2 0 .5.1.7.1.3 0 .5.1.8.1.2 0 .4 0 .6.1h.6c.8.1 1.6.1 2.4.1.9 0 1.9 0 2.8-.1h.4c.4 0 .8-.1 1.2-.1.2 0 .4-.1.6-.1h.1c.2 0 .3-.1.5-.1l1.3-.3c.1 0 .2-.1.4-.1l1.2-.3c.7-.2 1.4-.4 2-.6.2-.1.3-.1.5-.2.6-.2 1.2-.5 1.7-.7.2-.1.3-.2.5-.2.2-.1.3-.2.5-.2.1-.1.3-.1.4-.2.6-.5 1-.7 1.4-1Zm-1.5-20.8c-.4 1-1.1 1.8-2 2.3-.8.5-1.8.9-2.9.9-1.1 0-2-.3-2.9-.9a5.5 5.5 0 0 1-2-2.3c.8-1.9 2.7-3.2 4.9-3.2s4.1 1.3 4.9 3.2Z"/><path fill="var(--illustration-black)" d="M132.2 57.4v.2c-.8.5-1.8.9-2.9.9-1.1 0-2-.3-2.9-.9v-.2a2.9 2.9 0 0 1 5.8 0Z"/><path fill="var(--illustration-white)" d="M115.9 55.3c-.4 1-1.1 1.8-2 2.3-.8.5-1.8.9-2.9.9-1.1 0-2-.3-2.9-.9a5.5 5.5 0 0 1-2-2.3c.8-1.9 2.7-3.2 4.9-3.2s4.1 1.3 4.9 3.2Z"/><path fill="var(--illustration-black)" d="M113.9 57.4v.2c-.8.5-1.8.9-2.9.9-1.1 0-2-.3-2.9-.9v-.2a2.9 2.9 0 0 1 5.8 0Zm9.9 5.3-2.7 1.4c-.6.3-1.2.3-1.8 0l-2.7-1.4c-.7-.4-.9-1.3-.4-2 .9-1 2.3-1.7 3.9-1.7s3.1.7 3.9 1.7c.7.7.5 1.7-.2 2Z"/><path fill="var(--illustration-black)" fill-rule="evenodd" d="M140.9 57.5 129.2 63l-.6-1.2 11.7-5.5.6 1.2ZM129.2 64l10.1 4.8-.6 1.2-10.1-4.8.6-1.2Zm12.2.2h-9.6v-1.4h9.6v1.4Zm-41.3-8 11.7 5.5-.6 1.2-11.7-5.5.6-1.2Zm11.7 9L101.7 70l-.6-1.2 10.1-4.8.6 1.2ZM99 62.8h9.6v1.4H99v-1.4Z" clip-rule="evenodd"/><path fill="var(--illustration-black)" d="M109 78.2c-.2-.1-.5-.2-.7-.3-.1-.1-.3-.1-.4-.2-.5-.2-1-.5-1.6-.7-.1-.1-.3-.1-.4-.2-.4-.2-.8-.5-1.2-.7-5.1-3-8.6-7.5-9.5-12.6-.1-.8-.2-1.7-.2-2.5 0-3.5 1.2-6.8 3.3-9.6.5-.6 1-1.3 1.6-1.8l.2-.2.2-.2.3-.3c.3-.3.7-.6 1-.9.1-.1.3-.2.4-.3.1-.1.3-.2.4-.3.1-.1.2-.1.3-.2 0 0 .1 0 .1-.1.1-.1.3-.2.4-.3.2-.2.5-.3.7-.5l.6-.3s.1 0 .1-.1c.2-.2.5-.3.7-.4-.1-.4-.2-.7-.4-1.1-.1-.2-.2-.5-.3-.7-.1-.3-.2-.6-.3-.8-.1-.2-.1-.3-.2-.5v-.1c0-.1-.1-.2-.1-.3-.1-.2-.1-.3-.2-.5 0-.1-.1-.2-.1-.2-.1-.2-.2-.5-.3-.7-.3-.5-.6-1.1-.9-1.6-.2-.3-.3-.5-.5-.8-.1-.2-.2-.4-.4-.6-.1-.1-.2-.2-.2-.4-.2-.3-.4-.5-.6-.8-.2-.2-.3-.4-.5-.7a7 7 0 0 0-.8-1c-.2-.2-.3-.4-.5-.6-.1-.1 4.9.8 7.5 3 .1.2.2.5.3.7 0 .1 0 .1.1.1.1.3.2.6.4.8.2.5.4 1.1.6 1.6.1.2.2.5.3.7l.3 1c.1.2.1.4.2.6 0 .1 0 .1.1.2.1.2.1.4.2.5.2.6.3 1.2.5 1.9-.2.1-.4.3-.5.4l-.1.1c-.1.1-.3.2-.4.4l-.2.2-.6.6-.4.4-.2.2c-.2.2-.4.5-.6.7l-.3.3s0 .1-.1.1c-.1.1-.2.2-.3.4-.1.1-.2.3-.3.4-.4.6-.8 1.2-1.1 1.8-1.5 2.8-2.4 6.1-2.4 9.6 0 .9.1 1.7.2 2.6.7 5.2 3.2 11.8 6.8 14.8Z"/><path fill="var(--illustration-black)" fill-rule="evenodd" d="M119.5 70.1v-6.4h1.4v6.4h-1.4Z" clip-rule="evenodd"/><path fill="var(--illustration-black)" d="M124.8 70.1c0 1.2-.6 2.3-1.7 3-.8.6-1.8.9-2.9.9-1.1 0-2.1-.3-2.9-.9-1-.7-1.7-1.8-1.7-3h9.2Z"/><path fill="var(--illustration-accent-1)" d="M125.4 83.3a1 1 0 0 0 0-2 1 1 0 0 0 0 2Zm5.3-1.3a1 1 0 0 0 0-2 1 1 0 0 0 0 2Z"/><path fill="var(--illustration-primary)" d="M109 78.2v5.1c-1.5-.6-2.9-1.3-4.3-2.1V76c.4.2.8.5 1.2.7.1.1.3.2.4.2.5.3 1 .5 1.6.7.1.1.3.1.4.2.3.2.5.3.7.4Z"/><path fill="var(--illustration-accent-1)" d="M115 83.3a1 1 0 0 0 0-2 1 1 0 0 0-1 1c-.1.6.4 1 1 1Zm5.2 0a1 1 0 0 0 0-2 1 1 0 0 0-1 1c0 .6.4 1 1 1ZM109.7 82a1 1 0 0 0 0-2 1 1 0 0 0-1 1c0 .6.4 1 1 1Z"/><path fill="var(--illustration-black)" d="m140.4 49.5-.4-.4-.4-.4c-.3-.3-.6-.5-.9-.8-.2-.1-.3-.3-.5-.4-.2-.1-.3-.2-.5-.4h-.1c-.2-.1-.3-.2-.5-.3-.2-.1-.3-.2-.5-.4-.1-.1-.2-.2-.3-.2-.2-.1-.4-.2-.6-.4-.2-.2-.5-.3-.7-.4.2-.6.4-1.3.7-1.9.1-.2.2-.4.2-.6 0-.1 0-.1.1-.2l.3-.6c.1-.3.3-.7.5-1 .1-.2.2-.5.4-.7.3-.5.6-1.1.9-1.6.2-.3.3-.6.5-.9v-.1c.2-.3.3-.5.5-.8.2-.3.4-.6.6-.8.2-.3.4-.5.6-.8.2-.2.4-.5.6-.7l.1-.1c.2-.2.4-.5.6-.7.2-.3.4-.5.7-.8l.2-.2c1.7 4.7 1.2 10.9-2.1 16.6Z"/><path fill="var(--illustration-black)" fill-rule="evenodd" d="m128.1 68.1 1.3-1.3 1 1-1.3 1.3a6.22 6.22 0 0 1-4.3 1.8h-9.2c-1.6 0-3.1-.7-4.3-1.8l-1.3-1.3 1-1 1.3 1.3c.9.9 2.1 1.4 3.3 1.4h9.1c1.3-.1 2.5-.6 3.4-1.4Z" clip-rule="evenodd"/><path fill="var(--illustration-primary)" d="m103.7 53-8.4 5.7L80 40l8.1 3.1.8-9.9 1.9.6L103.7 53Z"/><path fill="var(--illustration-accent-1)" d="M120.6 41.7 103.7 53l-13-19.2 7.7 2.3.9-10 9.5 3 .9-10 10.9 22.6Z"/><path fill="var(--illustration-white)" d="m106.1 40.9-5.1-1-1 5.1 5.1 1 1-5.1Z"/><path fill="var(--illustration-accent-1)" d="m97.1 47-3.1-.6-.6 3.2 3.2.6.5-3.2Z"/><path fill="var(--illustration-white)" d="m112.8 36.4-3.2-.6-.6 3.2 3.2.6.6-3.2Z"/><path fill="var(--illustration-gray)" d="M80 16H0v88h80V16Z"/><path fill="var(--illustration-positive)" d="M80 16H64v88h16V16Z"/><path fill="var(--illustration-primary)" d="M176 104H64v16h112v-16Zm0-104H64v16h112V0Z"/><path fill="var(--illustration-gray)" d="M240 16h-80v88.1h80V16Z"/><path fill="var(--illustration-positive)" d="M176 16h-16v88h16V16Z"/><path fill="var(--illustration-white)" d="M232 32c-4.4 0-8 3.6-8 8 0-4.4-3.6-8-8-8 4.4 0 8-3.6 8-8 0 4.4 3.6 8 8 8Z"/><path fill="var(--illustration-primary)" d="M24 80c-4.4 0-8 3.6-8 8 0-4.4-3.6-8-8-8 4.4 0 8-3.6 8-8 0 4.4 3.6 8 8 8Z"/><path fill="var(--illustration-accent-1)" d="M192 71.8c-8.7 0-15.8 7.1-15.8 15.8 0-8.7-7.1-15.8-15.8-15.8 8.7 0 15.8-7.1 15.8-15.8 0 8.7 7.1 15.8 15.8 15.8Z"/><path fill="var(--illustration-black)" d="M176.2 87.6c0-8.7-7.1-15.8-15.8-15.8 8.7 0 15.8-7.1 15.8-15.8v31.6Z"/><path fill="var(--illustration-accent-1)" d="M32 28.2c-6.5 0-11.8 5.3-11.8 11.8 0-6.5-5.3-11.8-11.8-11.8 6.5 0 11.8-5.3 11.8-11.8 0 6.5 5.3 11.8 11.8 11.8Z"/><path fill="var(--illustration-white)" d="M56 56c-4.4 0-8 3.6-8 8 0-4.4-3.6-8-8-8 4.4 0 8-3.6 8-8 0 4.4 3.6 8 8 8Z"/><path fill="var(--illustration-primary)" d="M224 88c-4.4 0-8 3.6-8 8 0-4.4-3.6-8-8-8 4.4 0 8-3.6 8-8 0 4.4 3.6 8 8 8Z"/></svg>