<svg xmlns="http://www.w3.org/2000/svg" fill="none" viewBox="0 0 240 120"><path fill="var(--illustration-gray)" fill-rule="evenodd" d="M32 32h176v72H32V32Zm60 36a28 28 0 1 1 56.01.01A28 28 0 0 1 92 68Z" clip-rule="evenodd"/><path fill="var(--illustration-gray)" d="M152 104H88v16h64v-16Z"/><path fill="var(--illustration-accent-1)" d="M152 32H88l32-24 32 24Z"/><path fill="var(--illustration-primary)" fill-rule="evenodd" d="M88 32h64v72H88V32Zm4 36a28 28 0 1 1 56.01.01A28 28 0 0 1 92 68Z" clip-rule="evenodd"/><path fill="var(--illustration-accent-1)" d="M120 44v48a24 24 0 1 0 0-48Z"/><path fill="var(--illustration-accent-2)" d="M120 48c-11.06 0-20 8.94-20 20s8.94 20 20 20 20-8.94 20-20-8.94-20-20-20Z"/><path fill="var(--illustration-black)" fill-rule="evenodd" d="M152 105H88v-2h64v2Zm0 8H88v-2h64v2Z" clip-rule="evenodd"/><path fill="var(--illustration-primary)" d="M120 48v40c11.06 0 20-8.94 20-20s-8.94-20-20-20Z"/><path fill="var(--illustration-black)" d="m121.41 67.96 8.76-9.27-1.45-1.38-8.76 9.28-9.27-8.76-1.38 1.45 9.28 8.76-8.76 9.27 1.45 1.38 8.76-9.28 9.27 8.76 1.38-1.45-9.28-8.76Z"/><path fill="var(--illustration-invert)" d="M121 17.17V0h-2v17.17a3 3 0 0 0 1 5.83 3 3 0 0 0 1-5.83Z"/></svg>