<svg xmlns="http://www.w3.org/2000/svg" fill="none" viewBox="0 0 240 120"><path fill="var(--illustration-gray)" d="M32 16h176v96H32V16Z"/><path fill="var(--illustration-primary)" fill-rule="evenodd" d="M160 112H80V16h80v96Z" clip-rule="evenodd"/><path fill="var(--illustration-gray)" d="M160 112H80v8h80v-8Z"/><path fill="var(--illustration-black)" fill-rule="evenodd" d="M88 47h64v2H88v-2Zm0 8h64v2H88v-2Zm62 19H90v20h60V74Zm-62-2v24h64V72H88Z" clip-rule="evenodd"/><path fill="var(--illustration-black)" fill-rule="evenodd" d="M150 90H90v4h60v-4Zm-62-2v8h64v-8H88Zm0-25h64v2H88v-2Zm30-29H90v4h28v-4Zm-30-2v8h32v-8H88Z" clip-rule="evenodd"/><path fill="var(--illustration-gray)" fill-rule="evenodd" d="M120 0a8 8 0 0 1 8 8h24a8 8 0 0 1 8 8H80a8 8 0 0 1 8-8h24a8 8 0 0 1 8-8Zm0 12a4 4 0 1 0 0-8 4 4 0 0 0 0 8Z" clip-rule="evenodd"/><path fill="var(--illustration-positive)" d="M120 120a24 24 0 1 0 0-48 24 24 0 0 0 0 48Z"/><path fill="var(--illustration-invert-2)" fill-rule="evenodd" d="M120 116a20 20 0 1 0 0-40 20 20 0 0 0 0 40Zm24-20a24 24 0 1 1-48 0 24 24 0 0 1 48 0Z" clip-rule="evenodd"/><path fill="var(--illustration-black)" fill-rule="evenodd" d="m133.21 89.48-16.54 16.54-8.46-8.46 1.42-1.41 7.04 7.04 15.13-15.13 1.41 1.42Z" clip-rule="evenodd"/></svg>