<svg xmlns="http://www.w3.org/2000/svg" fill="none" viewBox="0 0 240 120"><path fill="var(--illustration-gray)" d="M208 0H88v80h120V0Z"/><path fill="var(--illustration-primary)" d="M148 32 88 8V0h120v8l-60 24Z"/><path fill="var(--illustration-accent-1)" fill-rule="evenodd" d="M37 40h110c2.76 0 5 2.31 5 5.16v62.13a5.08 5.08 0 0 1-5 5.16h-47L92 120l-8-7.55H37c-2.76 0-5-2.3-5-5.16V45.16A5.08 5.08 0 0 1 37 40Z" clip-rule="evenodd"/><path fill="var(--illustration-primary)" fill-rule="evenodd" d="M152 80V45.13a5.07 5.07 0 0 0-5-5.13H88v40h64Z" clip-rule="evenodd"/><path fill="var(--illustration-white)" d="M120 44a16 16 0 1 0 0 32 16 16 0 0 0 0-32ZM60 56a16 16 0 1 0 0 32 16 16 0 0 0 0-32Zm120-24a16 16 0 1 0 0 32 16 16 0 0 0 0-32Z"/><path fill="var(--illustration-black)" fill-rule="evenodd" d="m128.73 55.69-11.1 11.77-5.36-5.67 1.46-1.38 3.9 4.13 9.64-10.23 1.46 1.38Z" clip-rule="evenodd"/><path fill="var(--illustration-white)" d="M60 88a16 16 0 1 0 0-32 16 16 0 0 0 0 32Z"/></svg>