<svg xmlns="http://www.w3.org/2000/svg" fill="none" viewBox="0 0 240 120"><path fill="var(--illustration-gray)" d="M192 76H62V44h130zm0-44h-72V0h72z"/><path fill="var(--illustration-accent-2)" d="M32 52a16 16 0 1 1 32 0v68h-8a24.003 24.003 0 0 1-24-24z"/><path fill="var(--illustration-positive)" d="M208 94.48c0 6.365-2.529 12.47-7.029 16.971A24 24 0 0 1 184 118.48h-8v-68a16 16 0 0 1 16-16 16 16 0 0 1 16 16z"/><path fill="var(--illustration-accent-2)" d="M136.07 95.89a24 24 0 0 1-24 24h-8v-68a15.999 15.999 0 0 1 32 0zM64 16a16 16 0 1 1-32 0 16 16 0 0 1 32 0"/><path fill="var(--illustration-positive)" d="M176 16a16 16 0 1 0 32 .001A16 16 0 0 0 176 16"/><path fill="var(--illustration-primary)" d="M104 16a16 16 0 1 0 32 .001A16 16 0 0 0 104 16"/><path fill="var(--illustration-black)" d="M120 0a16 16 0 0 1 16 16 16 16 0 0 1-16 16z"/><path fill="var(--illustration-primary)" d="M192 32a16 16 0 0 1-16-16 16 16 0 0 1 16-16z"/><path fill="var(--illustration-black)" fill-rule="evenodd" d="M133.86 44a15.94 15.94 0 0 1 2.14 8v24h-32V52a15.94 15.94 0 0 1 2.14-8z" clip-rule="evenodd"/><path fill="var(--illustration-primary)" fill-rule="evenodd" d="M32 88v8a24 24 0 0 0 24 24h8V88zm176 0v8c0 6.365-2.529 12.47-7.029 16.971A24 24 0 0 1 184 120h-8V88z" clip-rule="evenodd"/><path fill="var(--illustration-gray)" d="M64 88h112v32H64z"/><path fill="var(--illustration-black)" d="m160.41 104-7.41 7.41-1.41-1.41 5-5H64v-2h92.59l-5-5 1.41-1.41z"/><path fill="var(--illustration-primary)" fill-rule="evenodd" d="M34.14 44A15.94 15.94 0 0 0 32 52v24h32V52a15.94 15.94 0 0 0-2.14-8z" clip-rule="evenodd"/><path fill="var(--illustration-black)" d="M51 52.59 52.41 54l-5 5H176v2H47.41l5 5L51 67.41 43.59 60z"/></svg>