<svg xmlns="http://www.w3.org/2000/svg" fill="none" viewBox="0 0 240 120"><g clip-path="url(#a)"><path fill="var(--illustration-gray)" d="M192 76H62V44h130v32Zm0-44h-72V0h72v32Z"/><path fill="var(--illustration-accent-2)" d="M32 52a16 16 0 1 1 32 0v68h-8a24 24 0 0 1-24-24V52Z"/><path fill="var(--illustration-positive)" d="M208 94.48a24 24 0 0 1-24 24h-8v-68a16 16 0 0 1 32 0v44Z"/><path fill="var(--illustration-accent-2)" d="M136.07 95.89a24 24 0 0 1-24 24h-8v-68a16 16 0 0 1 32 0v44ZM64 16a16 16 0 1 1-32 0 16 16 0 0 1 32 0Z"/><path fill="var(--illustration-positive)" d="M176 16a16 16 0 1 0 32 0 16 16 0 0 0-32 0Z"/><path fill="var(--illustration-primary)" d="M104 16a16 16 0 1 0 32 0 16 16 0 0 0-32 0Z"/><path fill="var(--illustration-black)" d="M120 0a16 16 0 0 1 0 32V0Z"/><path fill="var(--illustration-primary)" d="M192 32a16 16 0 0 1 0-32v32Z"/><path fill="var(--illustration-black)" fill-rule="evenodd" d="M133.86 44c1.4 2.43 2.14 5.2 2.14 8v24h-32V52c0-2.8.73-5.57 2.14-8h27.72Z" clip-rule="evenodd"/><path fill="var(--illustration-primary)" fill-rule="evenodd" d="M32 88v8a24 24 0 0 0 24 24h8V88H32Zm176 0v8a24 24 0 0 1-24 24h-8V88h32Z" clip-rule="evenodd"/><path fill="var(--illustration-gray)" d="M64 88h112v32H64V88Z"/><path fill="var(--illustration-black)" d="m160.41 104-7.41 7.41-1.41-1.41 5-5H64v-2h92.59l-5-5 1.41-1.41 7.41 7.41Z"/><path fill="var(--illustration-primary)" fill-rule="evenodd" d="M34.14 44A15.94 15.94 0 0 0 32 52v24h32V52c0-2.8-.73-5.57-2.14-8H34.14Z" clip-rule="evenodd"/><path fill="var(--illustration-black)" d="M51 52.59 52.41 54l-5 5H176v2H47.41l5 5L51 67.41 43.59 60 51 52.59Z"/></g><defs><clipPath id="a"><path fill="var(--illustration-white)" d="M0 0h240v120H0z"/></clipPath></defs></svg>