<svg xmlns="http://www.w3.org/2000/svg" fill="none" viewBox="0 0 240 120"><path fill="var(--illustration-gray)" d="M32 104h176v16H32v-16ZM32 0h176v16H32V0Z"/><path fill="var(--illustration-accent-2)" d="M80 0h80v120H80V0Z"/><path fill="var(--illustration-primary)" d="M80 0h80v16H80V0Zm0 104h80v16H80v-16Z"/><path fill="var(--illustration-black)" fill-rule="evenodd" d="M118.089 72.394a5.004 5.004 0 0 1 5.449 1.084 4.987 4.987 0 0 1 1.465 3.536h-2a3 3 0 0 0-5.121-2.121 3 3 0 0 0-.879 2.12h-2a4.998 4.998 0 0 1 3.086-4.62Z" clip-rule="evenodd"/><path fill="var(--illustration-black)" fill-rule="evenodd" d="M123.003 81.617v-4.623h2v4.623h-2Zm-8.003 0v-4.623h2v4.623h-2Z" clip-rule="evenodd"/><path fill="var(--illustration-black)" d="M112 80h16v16h-16V80Z"/><path fill="var(--illustration-white)" d="M104 28a4 4 0 1 1-8 0 4 4 0 0 1 8 0Zm0 16a4 4 0 1 1-8 0 4 4 0 0 1 8 0Zm0 16a4 4 0 1 1-8 0 4 4 0 0 1 8 0Zm40-32a4 4 0 1 1-8 0 4 4 0 0 1 8 0Zm0 16a4 4 0 1 1-8 0 4 4 0 0 1 8 0Zm0 16a4 4 0 1 1-8 0 4 4 0 0 1 8 0Zm-20-32a4 4 0 1 1-8 0 4 4 0 0 1 8 0Zm0 16a4 4 0 1 1-8 0 4 4 0 0 1 8 0Zm0 16a4 4 0 1 1-8 0 4 4 0 0 1 8 0Z"/></svg>