<svg xmlns="http://www.w3.org/2000/svg" fill="none" viewBox="0 0 240 120"><path fill="var(--illustration-accent-2)" d="M200 16v104H40V16z"/><path fill="var(--illustration-primary)" d="M40 0h160v16H40z"/><path fill="var(--illustration-black)" d="M52 8a2 2 0 1 1-4 0 2 2 0 0 1 4 0m24 0a2 2 0 1 1-4 0 2 2 0 0 1 4 0M64 8a2 2 0 1 1-4 0 2 2 0 0 1 4 0M40 64.57v-2.325l39.658-23.501L103.7 62.787l32.409-15.955 32.462 24.405 30.814-24.025L200 48v1.267l-31.407 24.487L135.89 49.17l-32.591 16.045-23.958-23.958z"/><path fill="var(--illustration-gray)" d="M0 0h40v8H0zm16 8h24v8H16zm184-8h40v8h-40zm0 8h16v8h-16z"/><path fill="var(--illustration-accent-1)" d="M200.002 64.004V32c8.833 0 16.002 7.161 16.002 16.008 0 8.835-7.169 15.996-16.002 15.996"/><path fill="var(--illustration-primary)" d="M200.002 64.004V32C191.169 32 184 39.161 184 48.008c0 8.835 7.169 15.996 16.002 15.996"/><path fill="var(--illustration-white)" d="M208.008 48.007a8.002 8.002 0 1 1-16.004 0 8.002 8.002 0 0 1 16.004 0"/><path fill="var(--illustration-primary)" d="M204.004 48.005a4 4 0 1 1-8 0 4 4 0 0 1 8 0"/><path fill="var(--illustration-black)" fill-rule="evenodd" d="M152 97H80v-2h72zm0 8H80v-2h72zm32-8h-24v-2h24zm0 8h-24v-2h24z" clip-rule="evenodd"/><path fill="var(--illustration-primary)" d="M72 100a8 8 0 1 1-16 0 8 8 0 0 1 16 0"/><path fill="var(--illustration-accent-2)" d="M240 96.002c-8.838 0-15.998-7.164-15.998-16.002 0 8.838-7.164 16.002-16.002 16.002 8.838 0 16.002 7.163 16.002 15.998 0-8.835 7.16-15.998 15.998-15.998"/><path fill="var(--illustration-accent-1)" d="M32 40.002c-8.838 0-15.998-7.164-15.998-16.002 0 8.838-7.164 16.002-16.002 16.002 8.838 0 16.002 7.163 16.002 15.998 0-8.835 7.16-15.998 15.998-15.998"/><path fill="var(--illustration-primary)" d="M24 96a8 8 0 0 1 8-7.999A8 8 0 0 1 24 80a8 8 0 0 1-8 8.001 8 8 0 0 1 8 8"/></svg>