<svg xmlns="http://www.w3.org/2000/svg" fill="none" viewBox="0 0 240 120"><path fill="var(--illustration-gray)" d="M80 4h80v116H80z"/><path fill="var(--illustration-gray)" d="M72 0h96v120H72z"/><path fill="var(--illustration-black)" fill-rule="evenodd" d="M160 46h-32v-2h32zm0 6h-18v-2h18zm-48-6H80v-2h32z" clip-rule="evenodd"/><path fill="var(--illustration-primary)" d="M72 0h96v8H72z"/><path fill="var(--illustration-gray)" d="M0 58h80v62H0z"/><path fill="var(--illustration-primary)" d="M72 58h96v62H72z"/><path fill="var(--illustration-gray)" d="M120 24h120v16H120z"/><path fill="var(--illustration-primary)" d="M120 24h48v16h-48z"/><path fill="var(--illustration-gray)" d="M168 0h72v8h-72z"/><path fill="var(--illustration-white)" d="M160 36h-32v-8h32z"/><path fill="var(--illustration-primary)" d="M112 36H80v-8h32z"/><path fill="var(--illustration-negative)" d="M136 80h16v4h-16z"/><path fill="var(--illustration-accent-2)" d="M112 80h16v4h-16zm0-12h16v4h-16zm0 36h16v4h-16z"/><path fill="var(--illustration-positive)" d="M88 104h16v4H88z"/><path fill="var(--illustration-negative)" d="M136 68h16v4h-16z"/><path fill="var(--illustration-accent-2)" d="M112 92h16v4h-16z"/><path fill="var(--illustration-positive)" d="M88 92h16v4H88z"/><path fill="var(--illustration-invert)" d="m138 20-6-8h12z"/></svg>