<svg xmlns="http://www.w3.org/2000/svg" fill="none" viewBox="0 0 240 120"><path fill="var(--illustration-gray)" d="M72 8a8 8 0 0 1 8-8h136v16H72V8Z"/><path fill="var(--illustration-primary)" d="M72 8a8 8 0 0 0 8 8h152v104H77.7l-.1-.08a6.62 6.62 0 0 1-5.52-5.43l-.08-.08V8Z"/><path fill="var(--illustration-black)" d="M72 104V32h75v72z"/><path fill="var(--illustration-gray)" d="M0 104V32h72v72zm0-80V8h48v16z"/><path fill="var(--illustration-black)" d="M208 48h24v40h-24V48Z"/><path fill="var(--illustration-gray)" d="M232 48h8v40h-8V48Z"/><path fill="var(--illustration-white)" d="m214 68 5.66-5.66L225.3 68l-5.65 5.66z"/><circle cx="148" cy="68" r="35" fill="var(--illustration-accent-1)" stroke="var(--illustration-invert-2)" stroke-width="2"/><circle cx="148" cy="68" r="27" stroke="var(--illustration-black)" stroke-width="2"/><path stroke="var(--illustration-black)" stroke-width="2" d="M134 67.55h28M147.55 82V54m-6.7 6.5 6.7 7.05 6.95 6.6m-13.77.22 13.64-13.64"/><path fill="var(--illustration-invert-2)" d="M16 48a8 8 0 0 0 8 8 8 8 0 0 0-8 8 8 8 0 0 0-8-8 8 8 0 0 0 8-8Z"/><circle cx="48" cy="16" r="8" fill="var(--illustration-accent-2)" transform="rotate(-90 48 16)"/><path fill="var(--illustration-primary)" d="M48 24V8a8 8 0 0 0 0 16Z"/><path fill="var(--illustration-accent-1)" d="M36 116a12 12 0 0 0-12-12 12 12 0 0 0 12-12 12 12 0 0 0 12 12 12 12 0 0 0-12 12Z"/><path fill="var(--illustration-primary)" d="M48 104H24c6.64-.1 12-5.43 12-12a12.1 12.1 0 0 0 12 12Z"/></svg>