<svg xmlns="http://www.w3.org/2000/svg" fill="none" viewBox="0 0 240 120"><path fill="var(--illustration-gray)" d="M80 0h80v120H80V0Z"/><path fill="var(--illustration-gray)" d="M80 24h160v32H80V24Z"/><path fill="var(--illustration-primary)" d="M80 24v32h80V24H80Z"/><path fill="var(--illustration-gray)" d="M0 64h160v32H0V64Z"/><path fill="var(--illustration-primary)" d="M80 96V64h80v32H80Z"/><path fill="var(--illustration-positive)" d="M74 40c0 8.837-7.163 16-16 16s-16-7.163-16-16 7.163-16 16-16 16 7.163 16 16Z"/><path fill="var(--illustration-negative)" d="M200 80c0 8.837-7.163 16-16 16s-16-7.163-16-16 7.163-16 16-16 16 7.163 16 16Z"/><path fill="var(--illustration-black)" fill-rule="evenodd" d="M67.726 34.688 55.65 47.42l-6.344-6.108 1.387-1.441 4.893 4.71 10.688-11.268 1.45 1.376ZM185 72h-2v12h2V72Zm0 14h-2v2h2v-2Zm-41-53h-40v-2h40v2Zm0 8h-16v-2h16v2Zm0 40h-32v-2h32v2Zm0-32h-16v-2h16v2Zm0 40h-32v-2h32v2Zm-32-16H96v-2h16v2Z" clip-rule="evenodd"/></svg>