<svg xmlns="http://www.w3.org/2000/svg" fill="none" viewBox="0 0 240 124"><path fill="var(--illustration-gray)" d="M80 4h80v120H80V4Z"/><path fill="var(--illustration-gray)" d="M72 0h96v120H72V0Z"/><path fill="var(--illustration-black)" fill-rule="evenodd" d="M160 46h-32v-2h32v2Zm0 6h-18v-2h18v2Zm-48-6H80v-2h32v2Z" clip-rule="evenodd"/><path fill="var(--illustration-primary)" d="M72 0h96v8H72V0Z"/><path fill="var(--illustration-gray)" d="M0 58h80v62H0V58Z"/><path fill="var(--illustration-primary)" d="M72 58h96v62H72V58Z"/><path fill="var(--illustration-gray)" d="M120 24h120v16H120V24Z"/><path fill="var(--illustration-primary)" d="M120 24h48v16h-48V24Z"/><path fill="var(--illustration-gray)" d="M168 0h72v8h-72V0Z"/><path fill="var(--illustration-white)" d="M160 36h-32v-8h32v8Z"/><path fill="var(--illustration-primary)" d="M112 36H80v-8h32v8Z"/><path fill="var(--illustration-negative)" d="M136 80h16v4h-16v-4Z"/><path fill="var(--illustration-accent-2)" d="M112 80h16v4h-16v-4Zm0-12h16v4h-16v-4Zm0 36h16v4h-16v-4Z"/><path fill="var(--illustration-positive)" d="M88 104h16v4H88v-4Z"/><path fill="var(--illustration-negative)" d="M136 68h16v4h-16v-4Z"/><path fill="var(--illustration-accent-2)" d="M112 92h16v4h-16v-4Z"/><path fill="var(--illustration-positive)" d="M88 92h16v4H88v-4Z"/><path fill="var(--illustration-black)" d="m138 20-6-8h12l-6 8Z"/></svg>