<svg xmlns="http://www.w3.org/2000/svg" fill="none" viewBox="0 0 240 120"><path fill="var(--illustration-gray)" d="M80 0h80v120H80z"/><path fill="var(--illustration-gray)" d="M80 24h160v32H80z"/><path fill="var(--illustration-primary)" d="M80 24v32h80V24z"/><path fill="var(--illustration-gray)" d="M0 64h160v32H0z"/><path fill="var(--illustration-primary)" d="M80 96V64h80v32z"/><path fill="var(--illustration-positive)" d="M74 40c0 8.837-7.163 16-16 16s-16-7.163-16-16 7.163-16 16-16 16 7.163 16 16"/><path fill="var(--illustration-negative)" d="M200 80c0 8.837-7.163 16-16 16s-16-7.163-16-16 7.163-16 16-16 16 7.163 16 16"/><path fill="var(--illustration-black)" fill-rule="evenodd" d="M67.726 34.688 55.652 47.42l-6.345-6.108 1.387-1.441 4.893 4.71 10.688-11.268zM185 72h-2v12h2zm0 14h-2v2h2zm-41-53h-40v-2h40zm0 8h-16v-2h16zm0 40h-32v-2h32zm0-32h-16v-2h16zm0 40h-32v-2h32zm-32-16H96v-2h16z" clip-rule="evenodd"/></svg>