<svg xmlns="http://www.w3.org/2000/svg" fill="none" viewBox="0 0 240 120"><path fill="var(--illustration-accent-4)" d="M208 16v80H32V16z"/><path fill="var(--illustration-gray)" d="M32 0v16H0V0z"/><path fill="var(--illustration-primary)" d="M32 0h176v16H32z"/><path fill="var(--illustration-positive)" d="M208 56c17.673 0 32 14.327 32 32s-14.327 32-32 32-32-14.327-32-32 14.327-32 32-32"/><path fill="var(--illustration-primary)" fill-rule="evenodd" d="M208 56c-17.673 0-32 14.327-32 32 0 2.762.35 5.443 1.008 8H208z" clip-rule="evenodd"/><path fill="var(--illustration-white)" d="M232 88c0 13.255-10.745 24-24 24s-24-10.745-24-24 10.745-24 24-24 24 10.745 24 24"/><path fill="var(--illustration-black)" fill-rule="evenodd" d="M184 49H56v-2h128zm0-16H56v-2h128zm-8.379 32.291h-112v-2h112zm-8 16h-96v-2h96zm40.435-8.791a4.834 4.834 0 0 0-4.833 4.833v5.5h9.666v-5.5a4.834 4.834 0 0 0-4.833-4.833m-5.833 4.833a5.834 5.834 0 0 1 11.666 0v6.5h-11.666z" clip-rule="evenodd"/><path fill="var(--illustration-primary)" d="M218.665 81.334h-21.333V100h21.333z"/><path fill="var(--illustration-black)" d="M208 90.667a2 2 0 1 0 0-4 2 2 0 0 0 0 4"/><path fill="var(--illustration-black)" fill-rule="evenodd" d="M207.555 94.667v-5.333h1v5.333z" clip-rule="evenodd"/></svg>