<svg xmlns="http://www.w3.org/2000/svg" fill="none" viewBox="0 0 240 120"><path fill="var(--illustration-gray)" d="M240 0H0v20h240V0Zm0 100H0v20h240v-20Z"/><path fill="var(--illustration-accent-2)" d="M144 100a40 40 0 1 0 0-80 40 40 0 0 0 0 80Z"/><path fill="var(--illustration-gray)" d="M92 100a40 40 0 1 0 0-80 40 40 0 0 0 0 80Z"/><path fill="var(--illustration-primary)" d="M118 29.6c8.6 7.3 14 18.2 14 30.4s-5.4 23-14 30.4A39.7 39.7 0 0 1 104 60c0-12.2 5.4-23 14-30.4Z"/><path fill="var(--illustration-accent-2)" d="M40 100a40 40 0 1 0 0-80 40 40 0 0 0 0 80Z"/><path fill="var(--illustration-primary)" d="M66 29.6C74.6 37 80 47.8 80 60s-5.4 23-14 30.4C57.4 83 52 72.2 52 60s5.4-23 14-30.4Z"/><path fill="var(--illustration-accent-1)" d="M200 100a40 40 0 1 0 0-80 40 40 0 0 0 0 80Z"/><path stroke="var(--illustration-black)" stroke-miterlimit="10" stroke-width="2" d="M200 92a32 32 0 1 0 0-64 32 32 0 0 0 0 64ZM8 60h144m-8-8.5 8.5 8.5-8.5 8.5M200 40v40m20-20h-40m34.1-14.1-28.2 28.2m28.2 0-28.2-28.2"/></svg>