<svg xmlns="http://www.w3.org/2000/svg" fill="none" viewBox="0 0 240 120"><path fill="var(--illustration-gray)" fill-rule="evenodd" d="M192 32h-39.25a26 26 0 0 0-14.73-32H192v32ZM56 0h61.98a26.07 26.07 0 0 0-14.73 16H80V8H56V0Zm46 24H88v8h15.25a26 26 0 0 1-1.25-8Zm-86-8h32v16H0v-8h16v-8Zm8 24v8h24v-8H24Zm120 24H56v8H8.5v8h51A26 26 0 0 1 106 96h38V64ZM55.25 88H40v8h14a26 26 0 0 1 1.25-8Z" clip-rule="evenodd"/><path fill="var(--illustration-primary)" d="M192 0a16 16 0 1 0 0 32V0Z"/><path fill="var(--illustration-positive)" d="M192 0a16 16 0 1 1 0 32V0Z"/><path fill="var(--illustration-white)" d="M205 16a13 13 0 0 0-13 13 13 13 0 0 0-13-13 13 13 0 0 0 13-13 13 13 0 0 0 13 13Z"/><path fill="var(--illustration-accent-2)" d="M240 80a31.98 31.98 0 0 1-32 32 32.02 32.02 0 0 1-32-32 32 32 0 1 1 64 0Z"/><path fill="var(--illustration-primary)" d="M180.36 96a31.99 31.99 0 0 1 55.44 0 32.02 32.02 0 0 1-55.44 0Z"/><path fill="var(--illustration-black)" d="M207.64 77.82a10.55 10.55 0 1 0 0-21.1 10.55 10.55 0 0 0 0 21.1Z"/><path fill="var(--illustration-accent-2)" d="M152 24a23.99 23.99 0 0 1-24 24 24.02 24.02 0 0 1-24-24 24 24 0 1 1 48 0Z"/><path fill="var(--illustration-primary)" d="M107.27 36a23.99 23.99 0 0 1 41.58 0 24.02 24.02 0 0 1-41.58 0Z"/><path fill="var(--illustration-black)" d="M127.73 22.36a7.9 7.9 0 1 0 0-15.81 7.9 7.9 0 0 0 0 15.81Z"/><path fill="var(--illustration-accent-2)" d="M104 96a23.99 23.99 0 0 1-24 24 24.02 24.02 0 0 1-24-24 24 24 0 1 1 48 0Z"/><path fill="var(--illustration-primary)" d="M59.27 108a23.99 23.99 0 0 1 41.59 0 24.02 24.02 0 0 1-41.58 0Z"/><path fill="var(--illustration-black)" d="M79.73 94.36a7.9 7.9 0 1 0 0-15.81 7.9 7.9 0 0 0 0 15.81Z"/><path fill="var(--illustration-positive)" d="M64 32a16 16 0 1 1-32 0 16 16 0 0 1 32 0Z"/><path fill="var(--illustration-white)" fill-rule="evenodd" d="M47 42V22h2v20h-2Z" clip-rule="evenodd"/><path fill="var(--illustration-white)" fill-rule="evenodd" d="M58 33H38v-2h20v2Z" clip-rule="evenodd"/><path fill="var(--illustration-primary)" d="M144 64a16 16 0 1 0 0 32V64Z"/><path fill="var(--illustration-positive)" d="M144 64a16 16 0 1 1 0 32V64Z"/><path fill="var(--illustration-white)" fill-rule="evenodd" d="M144 91a11 11 0 1 0 0-22 11 11 0 0 0 0 22Zm0 2a13 13 0 1 0 0-26 13 13 0 0 0 0 26Z" clip-rule="evenodd"/></svg>