<svg xmlns="http://www.w3.org/2000/svg" fill="none" viewBox="0 0 240 120"><path fill="var(--illustration-invert)" fill-rule="evenodd" d="M120 86c16.569 0 30-13.431 30-30 0-16.568-13.431-30-30-30S90 39.432 90 56c0 16.569 13.431 30 30 30m0 2c17.673 0 32-14.327 32-32s-14.327-32-32-32-32 14.327-32 32 14.327 32 32 32" clip-rule="evenodd"/><path fill="var(--illustration-accent-1)" d="M140.136 56c0 11.121-9.015 20.137-20.136 20.137S99.863 67.12 99.863 56 108.88 35.863 120 35.863 140.136 44.88 140.136 56"/><path fill="var(--illustration-gray)" d="M80 112h80v8H80zM98.57 4.263A56 56 0 0 1 176 56h-8v24h40v32h-48V56a40 40 0 0 0-11.716-28.284l4.243-4.243a46 46 0 0 0-65.054 0l4.243 4.243A40 40 0 0 0 80 56v56H32V80h40V56h-8A56 56 0 0 1 98.57 4.263"/><path fill="var(--illustration-primary)" d="M80 56h80v56H80z"/><path fill="var(--illustration-black)" d="M124 76a4 4 0 1 1-8 0 4 4 0 0 1 8 0"/><path fill="var(--illustration-black)" fill-rule="evenodd" d="M119 96V78.79h2V96z" clip-rule="evenodd"/></svg>