<svg xmlns="http://www.w3.org/2000/svg" fill="none" viewBox="0 0 240 120"><path fill="var(--illustration-gray)" d="M32 60a24 24 0 0 1 24-24h40v48H56a24 24 0 0 1-24-24Z"/><path fill="var(--illustration-gray)" fill-rule="evenodd" d="m86.92 37.79 88-36 18.17 44.42-88 36A24 24 0 0 1 86.92 37.8Z" clip-rule="evenodd"/><path fill="var(--illustration-accent-2)" fill-rule="evenodd" d="m86.92 82.21 88 36 18.17-44.42-88-36A24 24 0 0 0 86.92 82.2Z" clip-rule="evenodd"/><path fill="var(--illustration-primary)" fill-rule="evenodd" d="m86.87 37.81.05-.02h.01a23.92 23.92 0 0 1 18.16 0l54.3 22.22-54.3 22.2a23.92 23.92 0 0 1-18.16.01h-.01l-.05-.02A23.93 23.93 0 0 1 72 60a24.03 24.03 0 0 1 14.87-22.19Z" clip-rule="evenodd"/><path fill="var(--illustration-black)" fill-rule="evenodd" d="m95.63 59.07 88-36 .75 1.86-88 36a1 1 0 0 1-.75-1.86Z" clip-rule="evenodd"/><path fill="var(--illustration-black)" fill-rule="evenodd" d="m95.63 60.93 88 36 .75-1.86-88-36a1 1 0 0 0-.75 1.86Z" clip-rule="evenodd"/><path fill="var(--illustration-primary)" d="M96 44a16 16 0 1 0 11.85 26.76 15 15 0 0 0 2.57-3.82 15.97 15.97 0 0 0-3.1-18.25A16 16 0 0 0 96.01 44Z"/><path fill="var(--illustration-black)" fill-rule="evenodd" d="M96 74a13.96 13.96 0 0 0 10.37-4.59l.03-.03.03-.04c.25-.24.47-.54.8-.97a13.03 13.03 0 0 0 1.37-2.27v-.02l.02-.01a13.97 13.97 0 0 0-2.72-15.97A14 14 0 1 0 96 74Zm16-14a15.97 15.97 0 0 1-3.17 9.57l-.01.02A15.95 15.95 0 0 1 96 76a16 16 0 1 1 16-16Z" clip-rule="evenodd"/><path fill="var(--illustration-accent-1)" d="M184 0a24 24 0 1 0 17.77 40.13c.55-.54 1-1.15 1.47-1.77a22.74 22.74 0 0 0 2.38-3.95 23.94 23.94 0 0 0-4.64-27.38A24 24 0 0 0 184 0Z"/><path fill="var(--illustration-primary)" fill-rule="evenodd" d="M184 0v48a24 24 0 0 1 0-48Z" clip-rule="evenodd"/><path fill="var(--illustration-black)" fill-rule="evenodd" d="M184 38a13.96 13.96 0 0 0 10.37-4.59l.03-.03.03-.04c.25-.24.47-.54.8-.97a13.03 13.03 0 0 0 1.37-2.27v-.02l.02-.01a13.97 13.97 0 0 0-2.72-15.97A14 14 0 1 0 184 38Zm16-14a15.97 15.97 0 0 1-3.17 9.57l-.01.02A15.95 15.95 0 0 1 184 40a16 16 0 1 1 16-16Z" clip-rule="evenodd"/><path fill="var(--illustration-accent-1)" d="M184 72a24 24 0 1 0 17.77 40.14c.55-.55 1-1.16 1.47-1.78a22.84 22.84 0 0 0 2.38-3.95 23.94 23.94 0 0 0-4.64-27.38A24 24 0 0 0 184 72Z"/><path fill="var(--illustration-primary)" fill-rule="evenodd" d="M184 72v48a24 24 0 0 1 0-48Z" clip-rule="evenodd"/><path fill="var(--illustration-black)" fill-rule="evenodd" d="M184 110a13.96 13.96 0 0 0 10.37-4.59l.03-.03.03-.04c.25-.25.47-.54.8-.97a12.93 12.93 0 0 0 1.37-2.27v-.02l.02-.01a13.97 13.97 0 0 0-2.72-15.97A14 14 0 1 0 184 110Zm16-14a15.97 15.97 0 0 1-3.17 9.58h-.01A15.94 15.94 0 0 1 184 112a16 16 0 1 1 16-15.99Z" clip-rule="evenodd"/></svg>