<svg xmlns="http://www.w3.org/2000/svg" fill="none" viewBox="0 0 240 120"><path fill="var(--illustration-invert)" d="M176.31 9h-.62l-15.75 41.36-1.87-.72L173.55 9H66.45l15.49 40.64-1.87.72L64.3 9h-.62L47.94 50.36l-1.87-.72L62 7.82V7h116v.82l15.94 41.82-1.87.72L176.3 9Z"/><path fill="var(--illustration-gray)" d="M112 8c0-4.4 3.6-8 8-8s8 3.6 8 8a8.02 8.02 0 0 1-4 6.92v89.58a16 16 0 0 1 12 15.5h-32a16 16 0 0 1 12-15.5V14.92A8.02 8.02 0 0 1 112 8ZM32 64h64v56H32zm112 0h64v56h-64z"/><path fill="var(--illustration-primary)" d="M96 64c0 17.73-14.27 32-32 32S32 81.73 32 64h64Zm112 0c0 17.73-14.27 32-32 32s-32-14.27-32-32h64Z"/><path fill="var(--illustration-accent-2)" d="M40 64c0-13.3 10.7-24 24-24s24 10.7 24 24H40Z"/><path fill="var(--illustration-accent-1)" d="M152 64c0-13.3 10.7-24 24-24s24 10.7 24 24h-48Z"/><path fill="var(--illustration-black)" d="M88 64c0 13.3-10.7 24-24 24S40 77.3 40 64h48Zm112 0c0 13.3-10.7 24-24 24s-24-10.7-24-24h48Z"/><path fill="var(--illustration-invert)" fill-rule="evenodd" d="M121 16v88h-2V16h2ZM63 64V8h2v56h-2Zm112 0V8h2v56h-2Z" clip-rule="evenodd"/><path fill="var(--illustration-invert)" fill-rule="evenodd" d="M64 46a18 18 0 1 0 0 36 18 18 0 0 0 0-36ZM48 64a16 16 0 1 0 32 0 16 16 0 0 0-32 0Zm128-18a18 18 0 1 0 0 36 18 18 0 0 0 0-36Zm-16 18a16 16 0 1 0 32 0 16 16 0 0 0-32 0Z" clip-rule="evenodd"/></svg>