<svg xmlns="http://www.w3.org/2000/svg" fill="none" viewBox="0 0 240 120"><path fill="var(--illustration-invert)" d="M176.312 9h-.622l-15.755 41.356-1.869-.712L173.55 9H66.452l15.483 40.644-1.869.712L64.312 9h-.622L47.935 50.356l-1.869-.712L62.001 7.816V7h116v.816l15.934 41.828-1.869.712z"/><path fill="var(--illustration-gray)" d="M112 8c0-4.4 3.6-8 8-8s8 3.6 8 8c0 2.945-1.613 5.533-4 6.921v89.581c6.908 1.772 12 8.03 12 15.498h-32c0-7.468 5.092-13.726 12-15.498V14.921c-2.387-1.388-4-3.976-4-6.921M32 64h64v56H32zm112 0h64v56h-64z"/><path fill="var(--illustration-primary)" d="M96 64c0 17.733-14.267 32-32 32S32 81.733 32 64zm112 0c0 17.733-14.267 32-32 32s-32-14.267-32-32z"/><path fill="var(--illustration-accent-2)" d="M40 64c0-13.3 10.7-24 24-24s24 10.7 24 24z"/><path fill="var(--illustration-accent-1)" d="M152 64c0-13.3 10.7-24 24-24s24 10.7 24 24z"/><path fill="var(--illustration-black)" d="M88 64c0 13.3-10.7 24-24 24S40 77.3 40 64zm112 0c0 13.3-10.7 24-24 24s-24-10.7-24-24z"/><path fill="var(--illustration-invert)" fill-rule="evenodd" d="M121 16v88h-2V16zM63 64V8h2v56zm112 0V8h2v56z" clip-rule="evenodd"/><path fill="var(--illustration-invert)" fill-rule="evenodd" d="M64 46a18 18 0 1 0 0 36 18 18 0 0 0 0-36M48 64a16 16 0 1 0 32 0 16 16 0 0 0-32 0m128-18a18 18 0 1 0 0 36 18 18 0 0 0 0-36m-16 18a16 16 0 0 0 16 16 16 16 0 0 0 16-16 16 16 0 0 0-16-16 16 16 0 0 0-16 16" clip-rule="evenodd"/></svg>