<svg xmlns="http://www.w3.org/2000/svg" fill="none" viewBox="0 0 240 120"><path fill="var(--illustration-gray)" d="M80 56H32v64h48V56Z"/><path fill="var(--illustration-primary)" d="M80 56c0 13.3-10.7 24-24 24S32 69.3 32 56h48Z"/><path fill="var(--illustration-accent-1)" d="M32 56c0-13.3 10.7-24 24-24s24 10.7 24 24H32Z"/><path fill="var(--illustration-gray)" d="M144 40H96v80h48V40Z"/><path fill="var(--illustration-primary)" d="M144 40c0 13.3-10.7 24-24 24S96 53.3 96 40h48Z"/><path fill="var(--illustration-positive)" d="M96 40c0-13.3 10.7-24 24-24s24 10.7 24 24H96Z"/><path fill="var(--illustration-gray)" d="M208 24h-48v96h48V24Z"/><path fill="var(--illustration-primary)" d="M208 24c0 13.3-10.7 24-24 24s-24-10.7-24-24h48Z"/><path fill="var(--illustration-accent-2)" d="M160 24c0-13.3 10.7-24 24-24s24 10.7 24 24h-48Z"/><path fill="var(--illustration-invert)" d="m120 64.59 9.41 9.41-1.41 1.41-7-7V120h-2V68.41l-7 7-1.41-1.41 9.41-9.41Zm64-16 9.41 9.41-1.41 1.41-7-7V120h-2V52.41l-7 7-1.41-1.41 9.41-9.41Zm-128 32L65.41 90 64 91.41l-7-7V120h-2V84.41l-7 7L46.59 90 56 80.59Z"/><path fill="var(--illustration-black)" fill-rule="evenodd" d="M184 40a16 16 0 1 0 0-32 16 16 0 0 0 0 32Zm0 2a18 18 0 1 0 0-36 18 18 0 0 0 0 36Zm-64 14a16 16 0 1 0 0-32 16 16 0 0 0 0 32Zm0 2a18 18 0 1 0 0-36 18 18 0 0 0 0 36ZM56 72a16 16 0 1 0 0-32 16 16 0 0 0 0 32Zm0 2a18 18 0 1 0 0-36 18 18 0 0 0 0 36Z" clip-rule="evenodd"/></svg>