<svg xmlns="http://www.w3.org/2000/svg" fill="none" viewBox="0 0 240 120"><path fill="var(--illustration-positive)" d="M84 56H32v60a4 4 0 0 0 4 4h168a4 4 0 0 0 4-4V56h-68a28 28 0 1 1-56 0ZM32 4a4 4 0 0 1 4-4h168a4 4 0 0 1 4 4v20H32V4Z"/><path fill="var(--illustration-accent-1)" d="M112 32a24 24 0 1 1 0 48 24 24 0 0 1 0-48Z"/><path fill="var(--illustration-gray)" d="M89.02 40A27.87 27.87 0 0 0 84 56H32V40h57.02Z"/><path fill="var(--illustration-primary)" d="M84 56H32v16h57.02A27.87 27.87 0 0 1 84 56Zm28 24a24 24 0 0 0 24-24H88a24 24 0 0 0 24 24Z"/><path fill="var(--illustration-invert)" d="M117.59 57H32v-2h85.59l-7-7 1.41-1.41 9.41 9.41-9.41 9.41-1.41-1.41 7-7Z"/><path fill="var(--illustration-gray)" d="M160 56a16 16 0 0 1 16-16h32v32h-32a16 16 0 0 1-16-16Z"/><path fill="var(--illustration-primary)" fill-rule="evenodd" d="M208 72V56h-48a16 16 0 0 0 16 16h32Z" clip-rule="evenodd"/><path fill="var(--illustration-invert)" fill-rule="evenodd" d="M177 66a10 10 0 1 0 0-20 10 10 0 0 0 0 20Zm0 2a12 12 0 1 0 0-24 12 12 0 0 0 0 24Zm-65 6a18 18 0 1 0 0-36 18 18 0 0 0 0 36Zm0 2a20 20 0 1 0 0-40 20 20 0 0 0 0 40Z" clip-rule="evenodd"/></svg>