<svg xmlns="http://www.w3.org/2000/svg" fill="none" viewBox="0 0 240 120"><path fill="var(--illustration-gray)" d="M150 0h60c16.569 0 30 13.431 30 30 0 16.569-13.431 30-30 30h-60V0Z"/><path fill="var(--illustration-accent-2)" d="M90 120H30c-16.569 0-30-13.431-30-30 0-16.569 13.431-30 30-30h60v60Z"/><path fill="var(--illustration-accent-1)" d="M180 30c0 16.55-13.45 30-30 30s-30-13.45-30-30 13.45-30 30-30 30 13.45 30 30Z"/><path fill="var(--illustration-gray)" d="M120 30c0 16.55-13.45 30-30 30S60 46.55 60 30 73.45 0 90 0s30 13.45 30 30Z"/><path stroke="var(--illustration-white)" d="M120 30c0 16.55-13.45 30-30 30S60 46.55 60 30 73.45 0 90 0s30 13.45 30 30Z"/><path fill="var(--illustration-accent-1)" d="M180 90c0 16.55-13.45 30-30 30s-30-13.45-30-30 13.45-30 30-30 30 13.45 30 30Z"/><path fill="var(--illustration-primary)" d="M120 90c0 16.55-13.45 30-30 30s-30-13.45-30-30 13.45-30 30-30 30 13.45 30 30Zm60-60c0-16.55-13.45-30-30-30v60c16.55 0 30-13.45 30-30Z"/><path fill="var(--illustration-black)" fill-rule="evenodd" d="M150 50c11.045 0 20-8.955 20-20s-8.955-20-20-20-20 8.955-20 20 8.955 20 20 20Zm0 2c12.15 0 22-9.85 22-22s-9.85-22-22-22-22 9.85-22 22 9.85 22 22 22Zm-60-2c11.045 0 20-8.955 20-20s-8.955-20-20-20-20 8.955-20 20 8.955 20 20 20Zm0 2c12.15 0 22-9.85 22-22S102.15 8 90 8s-22 9.85-22 22 9.85 22 22 22Z" clip-rule="evenodd"/><path fill="var(--illustration-black)" d="M90 60c-16.55 0-30 13.45-30 30s13.45 30 30 30v-8c-12.15 0-22-9.85-22-22s9.85-22 22-22v-8Z"/><path fill="var(--illustration-black)" fill-rule="evenodd" d="M90 110c11.045 0 20-8.955 20-20s-8.955-20-20-20-20 8.955-20 20 8.955 20 20 20Zm0 2c12.15 0 22-9.85 22-22s-9.85-22-22-22-22 9.85-22 22 9.85 22 22 22Z" clip-rule="evenodd"/><path stroke="var(--illustration-black)" stroke-width="2" d="M171 90c0 11.598-9.402 21-21 21s-21-9.402-21-21 9.402-21 21-21 21 9.402 21 21Z"/><path fill="var(--illustration-black)" d="M89 39.586V0h2v39.586l5-5L97.414 36 90 43.414 82.586 36 84 34.586l5 5Z"/><path fill="var(--illustration-white)" fill-rule="evenodd" d="M100.707 83.707 86.5 97.914l-6.207-6.207 1.414-1.414 4.793 4.793 12.793-12.793 1.414 1.414Z" clip-rule="evenodd"/></svg>