<svg xmlns="http://www.w3.org/2000/svg" fill="none" viewBox="0 0 241 120"><path fill="var(--illustration-gray)" d="M40 60h79.997v60H40z"/><path fill="var(--illustration-gray)" d="M40 120c22.091 0 40-17.909 40-40a39.8 39.8 0 0 0-5.351-20H5.35A39.8 39.8 0 0 0 0 80c0 22.091 17.909 40 40 40"/><path fill="var(--illustration-gray)" d="M0 60h119.997v20H0zM120 .005h79.997v60H120z"/><path fill="var(--illustration-gray)" d="M200.004 0c-22.092 0-40 17.909-40 40a39.8 39.8 0 0 0 5.351 20h69.297a39.8 39.8 0 0 0 5.352-20c0-22.091-17.909-40-40-40"/><path fill="var(--illustration-gray)" d="M240.004 60H120.007V40h119.997z"/><path fill="var(--illustration-accent-2)" d="M160 96c0 8.837-7.164 16-16 16s-16-7.163-16-16 7.163-16 16-16 16 7.163 16 16"/><path fill="var(--illustration-positive)" d="M112 24H80c0-8.832 7.16-16 16.005-16C104.84 8 112 15.168 112 24"/><path fill="var(--illustration-primary)" d="M80 24h31.999c0 8.832-7.159 16-16.005 16C87.16 40 80 32.832 80 24m0 36H24c0 15.456 12.53 28 28.01 28C67.47 88 80 75.456 80 60"/><path fill="var(--illustration-accent-1)" d="M80 60H24c0-15.456 12.53-28 28.01-28C67.47 32 80 44.544 80 60"/><path fill="var(--illustration-black)" fill-rule="evenodd" d="M51.61 40C40.78 40 32 48.78 32 59.61s8.78 19.61 19.61 19.61 19.61-8.78 19.61-19.61S62.44 40 51.61 40M30 59.61C30 47.675 39.675 38 51.61 38s21.61 9.675 21.61 21.61-9.675 21.61-21.61 21.61S30 71.545 30 59.61" clip-rule="evenodd"/><path fill="var(--illustration-positive)" d="M216 60h-56c0-15.456 12.53-28 28.009-28C203.47 32 216 44.544 216 60"/><path fill="var(--illustration-primary)" d="M160 60h56c0 15.456-12.53 28-28.009 28C172.53 88 160 75.456 160 60"/><path fill="var(--illustration-white)" d="M187.997 37.6c0 12.373 10.029 22.398 22.402 22.398-12.373 0-22.402 10.029-22.402 22.402 0-12.373-10.029-22.402-22.397-22.402 12.368 0 22.397-10.025 22.397-22.398"/><path fill="var(--illustration-black)" fill-rule="evenodd" d="M143 106.667V85.334h2v21.333z" clip-rule="evenodd"/><path fill="var(--illustration-black)" fill-rule="evenodd" d="M154.667 97h-21.333v-2h21.333zM51.01 120V92.16h2V120z" clip-rule="evenodd"/><path fill="var(--illustration-black)" fill-rule="evenodd" d="m52.01 90.59 12.704 12.622-1.41 1.419L52.01 93.409 40.714 104.63l-1.41-1.419zM189 0v27.84h-2V0z" clip-rule="evenodd"/><path fill="var(--illustration-black)" fill-rule="evenodd" d="m188 29.41-12.705-12.622 1.41-1.419L188 26.591l11.295-11.222 1.41 1.419z" clip-rule="evenodd"/></svg>