<svg xmlns="http://www.w3.org/2000/svg" fill="none" viewBox="0 0 240 120"><path fill="var(--illustration-gray)" d="M149.292 18.136 131.148 0H208v76.855L187.56 56.41 115 120H33z"/><circle cx="68" cy="84" r="28" fill="var(--illustration-accent-1)"/><path fill="var(--illustration-primary)" d="m49.738 105.227 41.726-36.51A27.87 27.87 0 0 1 95.999 84c0 15.464-12.536 28-28 28a27.9 27.9 0 0 1-18.26-6.773"/><path fill="var(--illustration-black)" fill-rule="evenodd" d="M68 106c12.15 0 22-9.85 22-22s-9.85-22-22-22-22 9.85-22 22 9.85 22 22 22m0 2c13.255 0 24-10.745 24-24S81.255 60 68 60 44 70.745 44 84s10.745 24 24 24" clip-rule="evenodd"/><circle cx="148" cy="92" r="20" fill="var(--illustration-accent-2)"/><path fill="var(--illustration-primary)" d="m162.546 78.274-30.082 26.322A19.92 19.92 0 0 1 128 92c0-11.046 8.954-20 20-20 5.731 0 10.9 2.41 14.546 6.274"/><circle cx="120" cy="40" r="16" fill="var(--illustration-positive)" transform="rotate(-180 120 40)"/><path fill="var(--illustration-primary)" d="m110.004 52.494 23.707-20.744a15.9 15.9 0 0 1 2.288 8.25c0 8.837-7.163 16-16 16a15.93 15.93 0 0 1-9.995-3.506"/><path fill="var(--illustration-black)" fill-rule="evenodd" d="M148 106c7.732 0 14-6.268 14-14s-6.268-14-14-14-14 6.268-14 14 6.268 14 14 14m0 2c8.837 0 16-7.163 16-16s-7.163-16-16-16-16 7.163-16 16 7.163 16 16 16m-28-79c-6.075 0-11 4.925-11 11s4.925 11 11 11 11-4.925 11-11-4.925-11-11-11m0-2c-7.18 0-13 5.82-13 13s5.82 13 13 13 13-5.82 13-13-5.82-13-13-13" clip-rule="evenodd"/></svg>