<svg xmlns="http://www.w3.org/2000/svg" fill="none" viewBox="0 0 240 120"><path fill="var(--illustration-gray)" d="M208 60H32v60h176V60Z"/><path fill="var(--illustration-primary)" fill-rule="evenodd" d="m180 60-60 60V84L96 60H60h120Z" clip-rule="evenodd"/><path fill="var(--illustration-accent-1)" fill-rule="evenodd" d="m60 60 60-60 60 60h-16l-44-44-44 44H60Z" clip-rule="evenodd"/><path fill="var(--illustration-white)" d="M120 112 72 64l48-48 44 44-44 44v8Z"/><path fill="var(--illustration-white)" d="M120 84 96 60h24v24Z"/><path fill="var(--illustration-positive)" d="M120 84a24 24 0 1 0 0-48 24 24 0 0 0 0 48Z"/><path fill="var(--illustration-black)" d="M120 84 96 60a24 24 0 0 0 24 24Z"/><path fill="var(--illustration-primary)" d="M60 60h36l24 24v36L60 60Z"/><path fill="var(--illustration-black)" d="m96 60 24 24a24 24 0 0 1-24-24Z"/><path fill="var(--illustration-black)" fill-rule="evenodd" d="m133.21 53.48-16.54 16.54-8.46-8.46 1.42-1.41 7.04 7.04 15.13-15.13 1.41 1.42Z" clip-rule="evenodd"/></svg>