<svg xmlns="http://www.w3.org/2000/svg" fill="none" viewBox="0 0 240 120"><path fill="var(--illustration-gray)" d="M32 16h176v96H32z"/><path fill="var(--illustration-primary)" d="M160 112H80V16h80z"/><path fill="var(--illustration-gray)" d="M160 112H80v8h80z"/><path fill="var(--illustration-black)" fill-rule="evenodd" d="M88 39h64v2H88zm0 8h64v2H88zm62 27H90v20h60zm-62-2v24h64V72z" clip-rule="evenodd"/><path fill="var(--illustration-black)" fill-rule="evenodd" d="M150 90H90v4h60zm-62-2v8h64v-8zm0-33h64v2H88zm30-29H90v4h28zm-30-2v8h32v-8z" clip-rule="evenodd"/><path fill="var(--illustration-gray)" fill-rule="evenodd" d="M112 8H88a8 8 0 0 0-8 8h80a8 8 0 0 0-8-8h-24a8 8 0 0 0-16 0m12 0a4 4 0 1 1-8 0 4 4 0 0 1 8 0" clip-rule="evenodd"/><path fill="var(--illustration-accent-3)" d="M147.635 104H92.367l27.634-41.45zH92.367l27.634-41.45z"/><path fill="var(--illustration-white)" d="M121.151 92.486h-2.302l-1.152-16.12h4.606zM120 99.394a2.303 2.303 0 1 0 0-4.605 2.303 2.303 0 0 0 0 4.605"/></svg>