<svg xmlns="http://www.w3.org/2000/svg" fill="none" viewBox="0 0 240 120"><path fill="var(--illustration-gray)" d="M32 16h176v96H32V16Z"/><path fill="var(--illustration-primary)" d="M160 112H80V16h80v96Z"/><path fill="var(--illustration-gray)" d="M160 112H80v8h80v-8Z"/><path fill="var(--illustration-black)" fill-rule="evenodd" d="M88 39h64v2H88v-2Zm0 8h64v2H88v-2Zm62 27H90v20h60V74Zm-62-2v24h64V72H88Z" clip-rule="evenodd"/><path fill="var(--illustration-black)" fill-rule="evenodd" d="M150 90H90v4h60v-4Zm-62-2v8h64v-8H88Zm0-33h64v2H88v-2Zm30-29H90v4h28v-4Zm-30-2v8h32v-8H88Z" clip-rule="evenodd"/><path fill="var(--illustration-gray)" fill-rule="evenodd" d="M112 8H88a8 8 0 0 0-8 8h80a8 8 0 0 0-8-8h-24a8 8 0 0 0-16 0Zm12 0a4 4 0 1 1-8 0 4 4 0 0 1 8 0Z" clip-rule="evenodd"/><path fill="var(--illustration-accent-1)" d="M147.635 104H92.367l27.634-41.45L147.635 104H92.367l27.634-41.45L147.635 104Z"/><path fill="var(--illustration-black)" d="M121.151 92.486h-2.302l-1.152-16.12h4.606l-1.152 16.12ZM120 99.394a2.303 2.303 0 1 0 0-4.605 2.303 2.303 0 0 0 0 4.605Z"/></svg>