<svg xmlns="http://www.w3.org/2000/svg" fill="none" viewBox="0 0 240 120"><g clip-path="url(#a)"><path fill="var(--illustration-gray)" d="M216 86c0 5.5-4.5 10-10 10h-94V20c0-6.6 5.4-12 12-12h92z"/><path fill="var(--illustration-primary)" d="M0 120h72V0H0z"/><path fill="var(--illustration-black)" d="M40 111h-8v2h8z"/><path fill="var(--illustration-accent-2)" d="M0 104h72V16H0z"/><path fill="var(--illustration-black)" fill-rule="evenodd" d="M39.3 59.8c-.4.4-.4 1 0 1.4l18 18 1.4-1.4-16.3-16.3H155v-2H42.4l16.3-16.8-1.4-1.4z" clip-rule="evenodd"/><path fill="var(--illustration-invert)" d="M155 59.5H72v2h83z"/><path fill="var(--illustration-black)" d="M36 10c1.1 0 2-.9 2-2s-.9-2-2-2-2 .9-2 2 .9 2 2 2"/><path fill="var(--illustration-gray)" d="M240 100c0 6.6-5.4 12-12 12H128V42c0-5.5 4.5-10 10-10h102z"/><path fill="var(--illustration-black)" d="M216 24h-80c-4.6 0-8.4 3.5-8.9 8h89v-8z"/><path fill="var(--illustration-primary)" d="M224 32v64h-97V32z"/><path fill="var(--illustration-black)" d="M196 48h28v32h-28z"/><path fill="var(--illustration-primary)" d="M224 48h8v32h-8z"/><path fill="var(--illustration-white)" d="m210 58 6 6-6 6-6-6z"/></g><defs><clipPath id="a"><path fill="var(--illustration-white)" d="M0 0h240v120H0z"/></clipPath></defs></svg>