<svg width="407" height="320" viewBox="0 0 407 320" fill="none" xmlns="http://www.w3.org/2000/svg">
<g filter="url(#filter0_ddd)">
<rect x="41" y="42" width="326" height="235" rx="8" fill="#141519"/>
<rect x="40.5" y="41.5" width="327" height="236" rx="8.5" stroke="#8A919E" stroke-opacity="0.2"/>
</g>
<path d="M117.568 86.32H118.736V83.088H121.728V81.968H118.736V78.736H117.568V81.968H114.576V83.088H117.568V86.32ZM125.385 88H126.777V76.56H125.481L122.825 78.48V79.776L125.385 77.936V88ZM136.426 90.368H137.754C136.314 88.576 135.162 86.304 135.162 83.008C135.162 79.712 136.314 77.424 137.754 75.632H136.426C134.954 77.36 133.77 79.824 133.77 83.008C133.77 86.192 134.954 88.64 136.426 90.368ZM142.786 88.144C144.722 88.144 146.722 87.008 146.722 84.72C146.722 83.248 145.858 82.256 144.53 81.776C145.586 81.312 146.29 80.512 146.29 79.36C146.29 77.568 144.562 76.416 142.786 76.416C141.026 76.416 139.266 77.536 139.266 79.392C139.266 80.512 139.906 81.376 140.994 81.792C139.778 82.224 138.834 83.216 138.834 84.752C138.834 87.024 140.914 88.144 142.786 88.144ZM142.834 81.296C141.666 81.296 140.674 80.608 140.674 79.408C140.674 78.224 141.602 77.504 142.786 77.504C143.97 77.504 144.882 78.272 144.882 79.376C144.882 80.592 144.05 81.296 142.834 81.296ZM142.786 87.008C141.458 87.008 140.258 86.208 140.258 84.704C140.258 83.184 141.458 82.4 142.818 82.4C144.178 82.4 145.298 83.168 145.298 84.672C145.298 86.192 144.194 87.008 142.786 87.008ZM152.281 88.144C154.649 88.144 156.345 86.896 156.345 84.816C156.345 83.232 155.481 82.288 154.137 81.936C155.177 81.504 155.945 80.736 155.945 79.44C155.945 77.856 154.681 76.416 152.505 76.416C150.329 76.416 148.841 77.904 148.761 79.712H149.977C150.121 78.416 151.081 77.552 152.505 77.552C153.897 77.552 154.585 78.384 154.585 79.472C154.585 80.72 153.929 81.424 152.441 81.424H151.641V82.592H152.505C154.121 82.592 154.921 83.344 154.921 84.816C154.921 86.16 154.105 87.024 152.313 87.024C150.505 87.024 149.689 85.984 149.561 84.624H148.281C148.361 86.624 149.849 88.144 152.281 88.144ZM160.307 88H161.699V76.56H160.403L157.747 78.48V79.776L160.307 77.936V88ZM163.929 90.32H165.257C166.729 88.592 167.913 86.128 167.913 82.944C167.913 79.76 166.729 77.312 165.257 75.584H163.929C165.369 77.376 166.521 79.648 166.521 82.944C166.521 86.24 165.369 88.528 163.929 90.32ZM179.352 88H180.712V85.6H182.296V84.464H180.712V76.56H178.856L173.624 85.152V85.6H179.352V88ZM175.384 84.464L179.352 77.616V84.464H175.384ZM187.371 88.144C189.547 88.144 191.291 86.672 191.291 84.256C191.291 81.92 189.787 80.464 187.739 80.464C186.651 80.464 185.867 80.816 185.403 81.248V77.76H190.683V76.56H184.251V82.688H184.763C185.371 82 186.139 81.584 187.467 81.584C188.923 81.584 189.867 82.64 189.867 84.256C189.867 85.984 188.907 87.024 187.355 87.024C185.611 87.024 185.115 86.16 184.891 84.912H183.563C183.723 86.784 184.907 88.144 187.371 88.144ZM198.383 88H199.743V85.6H201.327V84.464H199.743V76.56H197.887L192.655 85.152V85.6H198.383V88ZM194.415 84.464L198.383 77.616V84.464H194.415ZM202.866 84.224H206.29V82.976H202.866V84.224ZM212.114 88.144C214.05 88.144 216.05 87.008 216.05 84.72C216.05 83.248 215.186 82.256 213.858 81.776C214.914 81.312 215.618 80.512 215.618 79.36C215.618 77.568 213.89 76.416 212.114 76.416C210.354 76.416 208.594 77.536 208.594 79.392C208.594 80.512 209.234 81.376 210.322 81.792C209.106 82.224 208.162 83.216 208.162 84.752C208.162 87.024 210.242 88.144 212.114 88.144ZM212.162 81.296C210.994 81.296 210.002 80.608 210.002 79.408C210.002 78.224 210.93 77.504 212.114 77.504C213.298 77.504 214.21 78.272 214.21 79.376C214.21 80.592 213.378 81.296 212.162 81.296ZM212.114 87.008C210.786 87.008 209.586 86.208 209.586 84.704C209.586 83.184 210.786 82.4 212.146 82.4C213.506 82.4 214.626 83.168 214.626 84.672C214.626 86.192 213.522 87.008 212.114 87.008ZM218.82 88H220.244L224.532 76.752V76.56H216.996V77.68H222.804L218.82 88ZM230.118 88H231.478V85.6H233.062V84.464H231.478V76.56H229.622L224.39 85.152V85.6H230.118V88ZM226.15 84.464L230.118 77.616V84.464H226.15ZM238.281 88.128C241.017 88.128 242.585 86.032 242.585 82.24V81.52C242.585 78.224 241.177 76.4 238.473 76.4C236.057 76.4 234.521 77.936 234.521 80.224C234.521 82.384 236.057 83.968 238.281 83.968C239.593 83.968 240.697 83.376 241.241 82.448C241.209 85.488 240.137 86.992 238.313 86.992C236.841 86.992 236.201 86.304 235.945 85.184H234.601C234.905 87.024 236.169 88.128 238.281 88.128ZM238.489 82.88C236.937 82.88 235.945 81.808 235.945 80.16C235.945 78.544 236.969 77.488 238.473 77.488C240.009 77.488 241.113 78.528 241.113 80.4C241.113 81.888 240.025 82.88 238.489 82.88Z" fill="white"/>
<g clip-path="url(#clip0)">
<path d="M82.0001 67C73.1734 67 66 74.1734 66 83.0001C66 91.8267 73.1734 99.0001 82.0001 99.0001C90.8267 99.0001 98.0001 91.8267 98.0001 83.0001C98.0001 74.1734 90.8267 67 82.0001 67ZM82.0001 97.6668C73.9067 97.6668 67.3333 91.0934 67.3333 83.0001C67.3333 74.9067 73.9067 68.3333 82.0001 68.3333C90.0934 68.3333 96.6668 74.9067 96.6668 83.0001C96.6668 91.0934 90.0934 97.6668 82.0001 97.6668Z" fill="#1652F0"/>
<path d="M82.6666 87.3866V76.3333H81.3332V87.3866L78.4666 84.5199L77.5199 85.4666L81.5199 89.4666C81.6532 89.6 81.8266 89.6666 81.9999 89.6666C82.1732 89.6666 82.3466 89.6 82.4666 89.4666L86.4666 85.4666L85.5199 84.5199L82.6666 87.3866Z" fill="#1652F0"/>
</g>
<circle cx="82" cy="83" r="15.6667" fill="white" stroke="#F1F3F5" stroke-width="0.666667"/>
<path fill-rule="evenodd" clip-rule="evenodd" d="M84.75 79.75C84.75 81.2688 83.5188 82.5 82 82.5C80.4812 82.5 79.25 81.2688 79.25 79.75C79.25 78.2312 80.4812 77 82 77C83.5188 77 84.75 78.2312 84.75 79.75ZM83.98 83.01C85.21 83.07 86.29 83.87 86.68 85.05L88 89H76L77.31 85.05C77.7 83.87 78.78 83.07 80.01 83.01C80.0125 83.0119 80.0158 83.0144 80.0198 83.0175C80.1443 83.1121 80.983 83.75 82 83.75C83.05 83.75 83.91 83.07 83.98 83.01Z" fill="#1652F0"/>
<circle cx="82" cy="83" r="15.5" fill="#141519" stroke="#8A919E"/>
<rect width="12" height="12" transform="translate(76 77)" fill="#141519"/>
<path fill-rule="evenodd" clip-rule="evenodd" d="M84.75 79.75C84.75 81.2688 83.5188 82.5 82 82.5C80.4812 82.5 79.25 81.2688 79.25 79.75C79.25 78.2312 80.4812 77 82 77C83.5188 77 84.75 78.2312 84.75 79.75ZM83.98 83.01C85.21 83.07 86.29 83.87 86.68 85.05L88 89H76L77.31 85.05C77.7 83.87 78.78 83.07 80.01 83.01C80.0125 83.0119 80.0158 83.0144 80.0198 83.0175C80.1443 83.1121 80.983 83.75 82 83.75C83.05 83.75 83.91 83.07 83.98 83.01Z" fill="#8A919E"/>
<path d="M115.44 152H116.832V147.344H118.688C120.864 147.344 122.688 146.4 122.688 143.968V143.904C122.688 141.52 120.88 140.56 118.688 140.56H115.44V152ZM116.832 146.24V141.68H118.784C120.336 141.68 121.296 142.288 121.296 143.904V143.968C121.296 145.44 120.416 146.24 118.784 146.24H116.832ZM126.659 152.144C127.891 152.144 128.643 151.728 129.267 150.944V152H130.595V146.48C130.595 144.144 129.139 143.488 127.539 143.488C125.923 143.488 124.403 144.192 124.227 146.096H125.555C125.683 145.072 126.323 144.592 127.475 144.592C128.755 144.592 129.267 145.152 129.267 146.48V147.088H128.067C125.923 147.088 123.875 147.744 123.875 149.68C123.875 151.392 125.107 152.144 126.659 152.144ZM126.787 151.088C125.619 151.088 125.203 150.544 125.203 149.68C125.203 148.448 126.435 148.032 128.115 148.032H129.267V149.072C129.267 150.368 128.195 151.088 126.787 151.088ZM133.203 154.912H134.531V150.624C135.011 151.456 135.987 152.144 137.363 152.144C139.667 152.144 141.171 150.384 141.171 147.824V147.696C141.171 145.088 139.555 143.488 137.363 143.488C136.147 143.488 135.011 144.224 134.531 145.04V143.632H133.203V154.912ZM137.235 151.04C135.603 151.04 134.483 150.032 134.483 147.888V147.76C134.483 145.616 135.667 144.592 137.219 144.592C138.627 144.592 139.795 145.648 139.795 147.76V147.888C139.795 149.92 138.899 151.04 137.235 151.04ZM145.331 152.144C146.563 152.144 147.315 151.728 147.939 150.944V152H149.267V146.48C149.267 144.144 147.811 143.488 146.211 143.488C144.595 143.488 143.075 144.192 142.899 146.096H144.227C144.355 145.072 144.995 144.592 146.147 144.592C147.427 144.592 147.939 145.152 147.939 146.48V147.088H146.739C144.595 147.088 142.547 147.744 142.547 149.68C142.547 151.392 143.779 152.144 145.331 152.144ZM145.459 151.088C144.291 151.088 143.875 150.544 143.875 149.68C143.875 148.448 145.107 148.032 146.787 148.032H147.939V149.072C147.939 150.368 146.867 151.088 145.459 151.088ZM156.206 152H157.486V142.368L161.406 152H161.838L165.63 142.368V152H167.022V140.56H165.102L161.678 149.472L158.142 140.56H156.206V152ZM173.285 152.144C175.669 152.144 177.413 150.4 177.413 147.872V147.744C177.413 145.232 175.669 143.488 173.301 143.488C170.933 143.488 169.189 145.248 169.189 147.76V147.888C169.189 150.336 170.901 152.144 173.285 152.144ZM173.301 151.04C171.605 151.04 170.565 149.792 170.565 147.888V147.76C170.565 145.84 171.621 144.592 173.301 144.592C174.965 144.592 176.037 145.84 176.037 147.776V147.888C176.037 149.776 174.981 151.04 173.301 151.04ZM182.941 152.144C184.957 152.144 186.413 150.8 186.589 148.992H185.357C185.213 150.352 184.141 151.04 182.957 151.04C181.341 151.04 180.221 149.952 180.221 147.904V147.776C180.221 145.808 181.389 144.592 182.909 144.592C184.061 144.592 185.021 145.088 185.229 146.416H186.541C186.285 144.288 184.653 143.488 182.909 143.488C180.669 143.488 178.845 145.216 178.845 147.776V147.904C178.845 150.496 180.605 152.144 182.941 152.144ZM188.594 152H189.922V146.928C189.922 145.424 191.026 144.64 192.258 144.64C193.602 144.64 194.226 145.296 194.226 146.768V152H195.554V146.864C195.554 144.432 194.338 143.488 192.61 143.488C191.234 143.488 190.306 144.176 189.922 144.96V139.632H188.594V152ZM198.829 141.888C199.309 141.888 199.709 141.488 199.709 141.008C199.709 140.528 199.309 140.128 198.829 140.128C198.349 140.128 197.949 140.528 197.949 141.008C197.949 141.488 198.349 141.888 198.829 141.888ZM198.189 152H199.517V143.632H198.189V152Z" fill="white"/>
<path d="M116.899 169.635H117.848V167.009H120.279V166.099H117.848V163.473H116.899V166.099H114.468V167.009H116.899V169.635ZM123.25 171H124.381V161.705H123.328L121.17 163.265V164.318L123.25 162.823V171ZM132.221 172.924H133.3C132.13 171.468 131.194 169.622 131.194 166.944C131.194 164.266 132.13 162.407 133.3 160.951H132.221C131.025 162.355 130.063 164.357 130.063 166.944C130.063 169.531 131.025 171.52 132.221 172.924ZM138.331 171H139.436V169.05H140.723V168.127H139.436V161.705H137.928L133.677 168.686V169.05H138.331V171ZM135.107 168.127L138.331 162.563V168.127H135.107ZM143.575 171H144.706V161.705H143.653L141.495 163.265V164.318L143.575 162.823V171ZM149.912 171.117C151.68 171.117 153.097 169.921 153.097 167.958C153.097 166.06 151.875 164.877 150.211 164.877C149.327 164.877 148.69 165.163 148.313 165.514V162.68H152.603V161.705H147.377V166.684H147.793C148.287 166.125 148.911 165.787 149.99 165.787C151.173 165.787 151.94 166.645 151.94 167.958C151.94 169.362 151.16 170.207 149.899 170.207C148.482 170.207 148.079 169.505 147.897 168.491H146.818C146.948 170.012 147.91 171.117 149.912 171.117ZM154.149 172.885H155.228C156.424 171.481 157.386 169.479 157.386 166.892C157.386 164.305 156.424 162.316 155.228 160.912H154.149C155.319 162.368 156.255 164.214 156.255 166.892C156.255 169.57 155.319 171.429 154.149 172.885ZM165.64 171.117C167.603 171.117 168.851 169.869 168.851 168.01C168.851 166.307 167.655 164.968 165.809 164.968C164.73 164.968 163.859 165.475 163.417 166.229C163.469 163.772 164.457 162.511 165.861 162.511C166.901 162.511 167.369 162.979 167.577 163.837H168.656C168.409 162.342 167.382 161.588 165.939 161.588C163.807 161.588 162.299 163.33 162.299 166.671V166.892C162.299 169.219 163.105 171.117 165.64 171.117ZM165.64 170.233C164.392 170.233 163.495 169.427 163.495 167.906C163.495 166.697 164.379 165.852 165.627 165.852C166.888 165.852 167.694 166.723 167.694 168.062C167.694 169.375 166.862 170.233 165.64 170.233ZM171.211 171H172.368L175.852 161.861V161.705H169.729V162.615H174.448L171.211 171ZM180.074 171.117C182.037 171.117 183.285 169.869 183.285 168.01C183.285 166.307 182.089 164.968 180.243 164.968C179.164 164.968 178.293 165.475 177.851 166.229C177.903 163.772 178.891 162.511 180.295 162.511C181.335 162.511 181.803 162.979 182.011 163.837H183.09C182.843 162.342 181.816 161.588 180.373 161.588C178.241 161.588 176.733 163.33 176.733 166.671V166.892C176.733 169.219 177.539 171.117 180.074 171.117ZM180.074 170.233C178.826 170.233 177.929 169.427 177.929 167.906C177.929 166.697 178.813 165.852 180.061 165.852C181.322 165.852 182.128 166.723 182.128 168.062C182.128 169.375 181.296 170.233 180.074 170.233ZM184.718 167.932H187.5V166.918H184.718V167.932ZM192.232 171.117C193.805 171.117 195.43 170.194 195.43 168.335C195.43 167.139 194.728 166.333 193.649 165.943C194.507 165.566 195.079 164.916 195.079 163.98C195.079 162.524 193.675 161.588 192.232 161.588C190.802 161.588 189.372 162.498 189.372 164.006C189.372 164.916 189.892 165.618 190.776 165.956C189.788 166.307 189.021 167.113 189.021 168.361C189.021 170.207 190.711 171.117 192.232 171.117ZM192.271 165.553C191.322 165.553 190.516 164.994 190.516 164.019C190.516 163.057 191.27 162.472 192.232 162.472C193.194 162.472 193.935 163.096 193.935 163.993C193.935 164.981 193.259 165.553 192.271 165.553ZM192.232 170.194C191.153 170.194 190.178 169.544 190.178 168.322C190.178 167.087 191.153 166.45 192.258 166.45C193.363 166.45 194.273 167.074 194.273 168.296C194.273 169.531 193.376 170.194 192.232 170.194ZM199.82 171.104C202.043 171.104 203.317 169.401 203.317 166.32V165.735C203.317 163.057 202.173 161.575 199.976 161.575C198.013 161.575 196.765 162.823 196.765 164.682C196.765 166.437 198.013 167.724 199.82 167.724C200.886 167.724 201.783 167.243 202.225 166.489C202.199 168.959 201.328 170.181 199.846 170.181C198.65 170.181 198.13 169.622 197.922 168.712H196.83C197.077 170.207 198.104 171.104 199.82 171.104ZM199.989 166.84C198.728 166.84 197.922 165.969 197.922 164.63C197.922 163.317 198.754 162.459 199.976 162.459C201.224 162.459 202.121 163.304 202.121 164.825C202.121 166.034 201.237 166.84 199.989 166.84ZM207.936 171.117C209.509 171.117 211.134 170.194 211.134 168.335C211.134 167.139 210.432 166.333 209.353 165.943C210.211 165.566 210.783 164.916 210.783 163.98C210.783 162.524 209.379 161.588 207.936 161.588C206.506 161.588 205.076 162.498 205.076 164.006C205.076 164.916 205.596 165.618 206.48 165.956C205.492 166.307 204.725 167.113 204.725 168.361C204.725 170.207 206.415 171.117 207.936 171.117ZM207.975 165.553C207.026 165.553 206.22 164.994 206.22 164.019C206.22 163.057 206.974 162.472 207.936 162.472C208.898 162.472 209.639 163.096 209.639 163.993C209.639 164.981 208.963 165.553 207.975 165.553ZM207.936 170.194C206.857 170.194 205.882 169.544 205.882 168.322C205.882 167.087 206.857 166.45 207.962 166.45C209.067 166.45 209.977 167.074 209.977 168.296C209.977 169.531 209.08 170.194 207.936 170.194ZM215.524 171.104C217.747 171.104 219.021 169.401 219.021 166.32V165.735C219.021 163.057 217.877 161.575 215.68 161.575C213.717 161.575 212.469 162.823 212.469 164.682C212.469 166.437 213.717 167.724 215.524 167.724C216.59 167.724 217.487 167.243 217.929 166.489C217.903 168.959 217.032 170.181 215.55 170.181C214.354 170.181 213.834 169.622 213.626 168.712H212.534C212.781 170.207 213.808 171.104 215.524 171.104ZM215.693 166.84C214.432 166.84 213.626 165.969 213.626 164.63C213.626 163.317 214.458 162.459 215.68 162.459C216.928 162.459 217.825 163.304 217.825 164.825C217.825 166.034 216.941 166.84 215.693 166.84Z" fill="#8A919E"/>
<path d="M81.9999 156C79.0533 156 76.6666 153.613 76.6666 150.666C76.6666 147.72 79.0533 145.333 81.9999 145.333C84.9466 145.333 87.3332 147.72 87.3332 150.666C87.3332 153.613 84.9466 156 81.9999 156ZM81.9999 146.666C79.7999 146.666 78 148.466 78 150.666C78 152.866 79.7999 154.666 81.9999 154.666C84.1999 154.666 85.9999 152.866 85.9999 150.666C85.9999 148.466 84.1999 146.666 81.9999 146.666Z" fill="#587088"/>
<path d="M81.9998 157.56C76.0665 157.56 73.1465 160.933 71.7732 163.533C72.0799 163.893 72.3999 164.24 72.7332 164.56C73.9332 162.013 76.5198 158.88 81.9998 158.88C87.4798 158.88 90.0664 162.013 91.2664 164.56C91.5998 164.226 91.9331 163.893 92.2264 163.533C90.8531 160.933 87.9331 157.56 81.9998 157.56Z" fill="#587088"/>
<path d="M81.9999 171C73.1733 171 66 163.827 66 155C66 146.173 73.1733 139 81.9999 139C90.8266 139 97.9999 146.173 97.9999 155C97.9999 163.827 90.8266 171 81.9999 171ZM81.9999 140.333C73.9066 140.333 67.3333 146.907 67.3333 155C67.3333 163.093 73.9066 169.667 81.9999 169.667C90.0932 169.667 96.6665 163.093 96.6665 155C96.6665 146.907 90.0932 140.333 81.9999 140.333Z" fill="#587088"/>
<path d="M81.9999 156C79.0533 156 76.6666 153.613 76.6666 150.666C76.6666 147.72 79.0533 145.333 81.9999 145.333C84.9466 145.333 87.3332 147.72 87.3332 150.666C87.3332 153.613 84.9466 156 81.9999 156ZM81.9999 146.666C79.7999 146.666 78 148.466 78 150.666C78 152.866 79.7999 154.666 81.9999 154.666C84.1999 154.666 85.9999 152.866 85.9999 150.666C85.9999 148.466 84.1999 146.666 81.9999 146.666Z" fill="#587088"/>
<path d="M81.9998 157.56C76.0665 157.56 73.1465 160.933 71.7732 163.533C72.0799 163.893 72.3999 164.24 72.7332 164.56C73.9332 162.013 76.5198 158.88 81.9998 158.88C87.4798 158.88 90.0664 162.013 91.2664 164.56C91.5998 164.226 91.9331 163.893 92.2264 163.533C90.8531 160.933 87.9331 157.56 81.9998 157.56Z" fill="#587088"/>
<path d="M81.9999 171C73.1733 171 66 163.827 66 155C66 146.173 73.1733 139 81.9999 139C90.8266 139 97.9999 146.173 97.9999 155C97.9999 163.827 90.8266 171 81.9999 171ZM81.9999 140.333C73.9066 140.333 67.3333 146.907 67.3333 155C67.3333 163.093 73.9066 169.667 81.9999 169.667C90.0932 169.667 96.6665 163.093 96.6665 155C96.6665 146.907 90.0932 140.333 81.9999 140.333Z" fill="#587088"/>
<circle cx="82" cy="155" r="15.6667" fill="white" stroke="#F1F3F5" stroke-width="0.666667"/>
<path d="M81.0422 159.117C82.7582 159.117 83.9152 158.194 83.9152 156.179V149.705H82.1732V156.14C82.1732 157.284 81.6272 157.726 80.7822 157.726C80.2362 157.726 79.9112 157.622 79.5862 157.492V158.844C79.8852 159 80.2752 159.117 81.0422 159.117Z" fill="#0052FF"/>
<circle cx="82" cy="155" r="15.5" fill="#141519" stroke="#8A919E"/>
<rect width="12" height="12" transform="translate(76 149)" fill="#141519"/>
<path fill-rule="evenodd" clip-rule="evenodd" d="M84.75 151.75C84.75 153.269 83.5188 154.5 82 154.5C80.4812 154.5 79.25 153.269 79.25 151.75C79.25 150.231 80.4812 149 82 149C83.5188 149 84.75 150.231 84.75 151.75ZM83.98 155.01C85.21 155.07 86.29 155.87 86.68 157.05L88 161H76L77.31 157.05C77.7 155.87 78.78 155.07 80.01 155.01C80.0125 155.012 80.0158 155.014 80.0198 155.017C80.1443 155.112 80.983 155.75 82 155.75C83.05 155.75 83.91 155.07 83.98 155.01Z" fill="#8A919E"/>
<path d="M119.504 224.144C121.808 224.144 123.312 222.384 123.312 219.824V219.696C123.312 217.088 121.696 215.488 119.504 215.488C118.288 215.488 117.152 216.224 116.672 217.04V211.632H115.344V224H116.672V222.624C117.152 223.456 118.144 224.144 119.504 224.144ZM119.376 223.04C117.744 223.04 116.624 222.032 116.624 219.888V219.76C116.624 217.616 117.808 216.592 119.36 216.592C120.768 216.592 121.936 217.648 121.936 219.76V219.888C121.936 221.92 121.04 223.04 119.376 223.04ZM128.847 224.144C130.863 224.144 132.319 222.8 132.495 220.992H131.263C131.119 222.352 130.047 223.04 128.863 223.04C127.247 223.04 126.127 221.952 126.127 219.904V219.776C126.127 217.808 127.295 216.592 128.815 216.592C129.967 216.592 130.927 217.088 131.135 218.416H132.447C132.191 216.288 130.559 215.488 128.815 215.488C126.575 215.488 124.751 217.216 124.751 219.776V219.904C124.751 222.496 126.511 224.144 128.847 224.144ZM136.244 224H137.636V212.56H136.34L133.684 214.48V215.776L136.244 213.936V224ZM144.683 224.144C146.955 224.144 148.635 222.688 148.635 220.768C148.635 218.608 147.291 217.84 144.747 217.44C142.411 217.088 141.995 216.512 141.995 215.392C141.995 214.32 142.811 213.536 144.379 213.536C145.963 213.536 146.795 214.128 147.067 215.568H148.315C148.091 213.536 146.667 212.416 144.379 212.416C142.219 212.416 140.699 213.76 140.699 215.52C140.699 217.552 142.123 218.304 144.523 218.672C146.699 219.024 147.291 219.568 147.291 220.864C147.291 222.16 146.155 223.024 144.683 223.024C142.379 223.024 141.835 221.872 141.659 220.512H140.315C140.523 222.464 141.627 224.144 144.683 224.144ZM151.35 224.08C151.91 224.08 152.374 223.632 152.374 223.056C152.374 222.48 151.91 222.032 151.35 222.032C150.79 222.032 150.326 222.48 150.326 223.056C150.326 223.632 150.79 224.08 151.35 224.08ZM155.542 224.08C156.102 224.08 156.566 223.632 156.566 223.056C156.566 222.48 156.102 222.032 155.542 222.032C154.982 222.032 154.518 222.48 154.518 223.056C154.518 223.632 154.982 224.08 155.542 224.08ZM159.734 224.08C160.294 224.08 160.758 223.632 160.758 223.056C160.758 222.48 160.294 222.032 159.734 222.032C159.174 222.032 158.71 222.48 158.71 223.056C158.71 223.632 159.174 224.08 159.734 224.08ZM166.692 224.144C169.508 224.144 171.124 221.904 171.124 218.576V217.936C171.124 214.672 169.476 212.416 166.66 212.416C163.86 212.416 162.148 214.592 162.148 217.968V218.608C162.148 221.936 163.956 224.144 166.692 224.144ZM166.692 222.992C164.788 222.992 163.572 221.488 163.572 218.592V217.952C163.572 215.136 164.724 213.536 166.66 213.536C168.596 213.536 169.716 215.264 169.716 217.92V218.56C169.716 221.456 168.692 222.992 166.692 222.992ZM175.518 224.144C176.75 224.144 177.502 223.728 178.126 222.944V224H179.454V218.48C179.454 216.144 177.998 215.488 176.398 215.488C174.782 215.488 173.262 216.192 173.086 218.096H174.414C174.542 217.072 175.182 216.592 176.334 216.592C177.614 216.592 178.126 217.152 178.126 218.48V219.088H176.926C174.782 219.088 172.734 219.744 172.734 221.68C172.734 223.392 173.966 224.144 175.518 224.144ZM175.646 223.088C174.478 223.088 174.062 222.544 174.062 221.68C174.062 220.448 175.294 220.032 176.974 220.032H178.126V221.072C178.126 222.368 177.054 223.088 175.646 223.088ZM181.295 224H182.607L183.711 220.704H188.431L189.551 224H190.927L187.055 212.56H185.231L181.295 224ZM186.079 213.712L188.063 219.6H184.095L186.079 213.712ZM192.844 224H194.172V219.664L197.884 224H199.5L195.612 219.52L199.196 215.632H197.644L194.172 219.488V211.632H192.844V224Z" fill="white"/>
<path d="M115.17 243H118.355C120.214 243 121.41 242.155 121.41 240.4V240.348C121.41 239.139 120.903 238.45 119.551 238.125C120.617 237.761 120.955 237.007 120.955 236.162V236.11C120.955 234.277 119.694 233.705 117.965 233.705H115.17V243ZM116.275 237.761V234.589H117.939C119.239 234.589 119.85 235.018 119.85 236.071V236.123C119.85 237.267 119.33 237.761 117.965 237.761H116.275ZM116.275 242.116V238.645H118.173C119.668 238.645 120.305 239.191 120.305 240.335V240.387C120.305 241.518 119.681 242.116 118.329 242.116H116.275ZM123.725 234.784C124.115 234.784 124.44 234.459 124.44 234.069C124.44 233.679 124.115 233.354 123.725 233.354C123.335 233.354 123.01 233.679 123.01 234.069C123.01 234.459 123.335 234.784 123.725 234.784ZM123.205 243H124.284V236.201H123.205V243ZM128.559 243.091C129.001 243.091 129.261 243.026 129.482 242.948V242.038C129.248 242.129 128.988 242.181 128.65 242.181C128.104 242.181 127.805 241.856 127.805 241.193V237.111H129.391V236.201H127.805V234.654H126.726V236.201H125.751V237.111H126.726V241.297C126.726 242.363 127.324 243.091 128.559 243.091ZM133.934 243.117C135.572 243.117 136.755 242.025 136.898 240.556H135.897C135.78 241.661 134.909 242.22 133.947 242.22C132.634 242.22 131.724 241.336 131.724 239.672V239.568C131.724 237.969 132.673 236.981 133.908 236.981C134.844 236.981 135.624 237.384 135.793 238.463H136.859C136.651 236.734 135.325 236.084 133.908 236.084C132.088 236.084 130.606 237.488 130.606 239.568V239.672C130.606 241.778 132.036 243.117 133.934 243.117ZM141.349 243.117C143.286 243.117 144.703 241.7 144.703 239.646V239.542C144.703 237.501 143.286 236.084 141.362 236.084C139.438 236.084 138.021 237.514 138.021 239.555V239.659C138.021 241.648 139.412 243.117 141.349 243.117ZM141.362 242.22C139.984 242.22 139.139 241.206 139.139 239.659V239.555C139.139 237.995 139.997 236.981 141.362 236.981C142.714 236.981 143.585 237.995 143.585 239.568V239.659C143.585 241.193 142.727 242.22 141.362 242.22ZM146.919 234.784C147.309 234.784 147.634 234.459 147.634 234.069C147.634 233.679 147.309 233.354 146.919 233.354C146.529 233.354 146.204 233.679 146.204 234.069C146.204 234.459 146.529 234.784 146.919 234.784ZM146.399 243H147.478V236.201H146.399V243ZM149.687 243H150.766V238.879C150.766 237.657 151.663 237.02 152.664 237.02C153.756 237.02 154.263 237.553 154.263 238.749V243H155.342V238.827C155.342 236.851 154.354 236.084 152.95 236.084C151.832 236.084 151.078 236.643 150.766 237.28V236.201H149.687V243ZM162.6 243.117C163.601 243.117 164.212 242.779 164.719 242.142V243H165.798V238.515C165.798 236.617 164.615 236.084 163.315 236.084C162.002 236.084 160.767 236.656 160.624 238.203H161.703C161.807 237.371 162.327 236.981 163.263 236.981C164.303 236.981 164.719 237.436 164.719 238.515V239.009H163.744C162.002 239.009 160.338 239.542 160.338 241.115C160.338 242.506 161.339 243.117 162.6 243.117ZM162.704 242.259C161.755 242.259 161.417 241.817 161.417 241.115C161.417 240.114 162.418 239.776 163.783 239.776H164.719V240.621C164.719 241.674 163.848 242.259 162.704 242.259ZM170.478 243.117C171.466 243.117 172.415 242.493 172.805 241.83V243H173.884V232.951H172.805V237.293C172.415 236.63 171.713 236.084 170.582 236.084C168.71 236.084 167.41 237.553 167.41 239.633V239.737C167.41 241.856 168.697 243.117 170.478 243.117ZM170.595 242.22C169.451 242.22 168.528 241.401 168.528 239.685V239.581C168.528 237.93 169.334 236.981 170.686 236.981C172.012 236.981 172.844 237.8 172.844 239.542V239.646C172.844 241.388 171.856 242.22 170.595 242.22ZM178.629 243.117C179.617 243.117 180.566 242.493 180.956 241.83V243H182.035V232.951H180.956V237.293C180.566 236.63 179.864 236.084 178.733 236.084C176.861 236.084 175.561 237.553 175.561 239.633V239.737C175.561 241.856 176.848 243.117 178.629 243.117ZM178.746 242.22C177.602 242.22 176.679 241.401 176.679 239.685V239.581C176.679 237.93 177.485 236.981 178.837 236.981C180.163 236.981 180.995 237.8 180.995 239.542V239.646C180.995 241.388 180.007 242.22 178.746 242.22ZM184.218 243H185.297V239.269C185.297 237.592 186.168 237.163 187.533 237.098V236.084C186.311 236.123 185.726 236.656 185.297 237.423V236.201H184.218V243ZM191.697 243.117C193.231 243.117 194.362 242.402 194.596 241.037H193.517C193.374 241.83 192.763 242.22 191.71 242.22C190.319 242.22 189.578 241.362 189.526 239.815H194.648V239.464C194.648 237.033 193.166 236.084 191.593 236.084C189.721 236.084 188.408 237.514 188.408 239.568V239.672C188.408 241.765 189.773 243.117 191.697 243.117ZM189.565 238.944C189.747 237.735 190.488 236.981 191.593 236.981C192.711 236.981 193.439 237.54 193.543 238.944H189.565ZM198.473 243.117C200.124 243.117 200.969 242.285 200.969 241.05C200.969 239.607 199.981 239.295 198.577 239.035C197.329 238.814 196.991 238.567 196.991 237.956C196.991 237.371 197.498 236.981 198.278 236.981C199.136 236.981 199.552 237.306 199.708 238.047H200.748C200.566 236.578 199.513 236.084 198.291 236.084C197.225 236.084 195.99 236.734 195.99 237.995C195.99 239.178 196.588 239.672 198.356 239.997C199.409 240.192 199.942 240.426 199.942 241.141C199.942 241.869 199.487 242.22 198.46 242.22C197.368 242.22 196.939 241.713 196.861 240.907H195.808C195.873 242.298 196.848 243.117 198.473 243.117ZM204.719 243.117C206.37 243.117 207.215 242.285 207.215 241.05C207.215 239.607 206.227 239.295 204.823 239.035C203.575 238.814 203.237 238.567 203.237 237.956C203.237 237.371 203.744 236.981 204.524 236.981C205.382 236.981 205.798 237.306 205.954 238.047H206.994C206.812 236.578 205.759 236.084 204.537 236.084C203.471 236.084 202.236 236.734 202.236 237.995C202.236 239.178 202.834 239.672 204.602 239.997C205.655 240.192 206.188 240.426 206.188 241.141C206.188 241.869 205.733 242.22 204.706 242.22C203.614 242.22 203.185 241.713 203.107 240.907H202.054C202.119 242.298 203.094 243.117 204.719 243.117Z" fill="#8A919E"/>
<path d="M81.9999 228C79.0533 228 76.6666 225.613 76.6666 222.666C76.6666 219.72 79.0533 217.333 81.9999 217.333C84.9466 217.333 87.3332 219.72 87.3332 222.666C87.3332 225.613 84.9466 228 81.9999 228ZM81.9999 218.666C79.7999 218.666 78 220.466 78 222.666C78 224.866 79.7999 226.666 81.9999 226.666C84.1999 226.666 85.9999 224.866 85.9999 222.666C85.9999 220.466 84.1999 218.666 81.9999 218.666Z" fill="#587088"/>
<path d="M81.9998 229.56C76.0665 229.56 73.1465 232.933 71.7732 235.533C72.0799 235.893 72.3999 236.24 72.7332 236.56C73.9332 234.013 76.5198 230.88 81.9998 230.88C87.4798 230.88 90.0664 234.013 91.2664 236.56C91.5998 236.226 91.9331 235.893 92.2264 235.533C90.8531 232.933 87.9331 229.56 81.9998 229.56Z" fill="#587088"/>
<path d="M81.9999 243C73.1733 243 66 235.827 66 227C66 218.173 73.1733 211 81.9999 211C90.8266 211 97.9999 218.173 97.9999 227C97.9999 235.827 90.8266 243 81.9999 243ZM81.9999 212.333C73.9066 212.333 67.3333 218.907 67.3333 227C67.3333 235.093 73.9066 241.667 81.9999 241.667C90.0932 241.667 96.6665 235.093 96.6665 227C96.6665 218.907 90.0932 212.333 81.9999 212.333Z" fill="#587088"/>
<path d="M81.9999 228C79.0533 228 76.6666 225.613 76.6666 222.666C76.6666 219.72 79.0533 217.333 81.9999 217.333C84.9466 217.333 87.3332 219.72 87.3332 222.666C87.3332 225.613 84.9466 228 81.9999 228ZM81.9999 218.666C79.7999 218.666 78 220.466 78 222.666C78 224.866 79.7999 226.666 81.9999 226.666C84.1999 226.666 85.9999 224.866 85.9999 222.666C85.9999 220.466 84.1999 218.666 81.9999 218.666Z" fill="#587088"/>
<path d="M81.9998 229.56C76.0665 229.56 73.1465 232.933 71.7732 235.533C72.0799 235.893 72.3999 236.24 72.7332 236.56C73.9332 234.013 76.5198 230.88 81.9998 230.88C87.4798 230.88 90.0664 234.013 91.2664 236.56C91.5998 236.226 91.9331 235.893 92.2264 235.533C90.8531 232.933 87.9331 229.56 81.9998 229.56Z" fill="#587088"/>
<path d="M81.9999 243C73.1733 243 66 235.827 66 227C66 218.173 73.1733 211 81.9999 211C90.8266 211 97.9999 218.173 97.9999 227C97.9999 235.827 90.8266 243 81.9999 243ZM81.9999 212.333C73.9066 212.333 67.3333 218.907 67.3333 227C67.3333 235.093 73.9066 241.667 81.9999 241.667C90.0932 241.667 96.6665 235.093 96.6665 227C96.6665 218.907 90.0932 212.333 81.9999 212.333Z" fill="#587088"/>
<circle cx="82" cy="227" r="15.6667" fill="white" stroke="#F1F3F5" stroke-width="0.666667"/>
<path fill-rule="evenodd" clip-rule="evenodd" d="M86 224H78C77.45 224 77 223.55 77 223C77 222.45 77.45 222 78 222H86V224ZM77 230.5V225H87V232H78.5C77.67 232 77 231.33 77 230.5ZM84.25 228.5C84.25 228.91 84.59 229.25 85 229.25C85.41 229.25 85.75 228.91 85.75 228.5C85.75 228.09 85.41 227.75 85 227.75C84.59 227.75 84.25 228.09 84.25 228.5Z" fill="#1652F0"/>
<circle cx="82" cy="227" r="15.5" fill="#141519" stroke="#8A919E"/>
<rect width="12" height="12" transform="translate(76 221)" fill="#141519"/>
<path fill-rule="evenodd" clip-rule="evenodd" d="M86 224H78C77.45 224 77 223.55 77 223C77 222.45 77.45 222 78 222H86V224ZM77 230.5V225H87V232H78.5C77.67 232 77 231.33 77 230.5ZM84.25 228.5C84.25 228.91 84.59 229.25 85 229.25C85.41 229.25 85.75 228.91 85.75 228.5C85.75 228.09 85.41 227.75 85 227.75C84.59 227.75 84.25 228.09 84.25 228.5Z" fill="#8A919E"/>
<defs>
<filter id="filter0_ddd" x="22" y="24" width="364" height="273" filterUnits="userSpaceOnUse" color-interpolation-filters="sRGB">
<feFlood flood-opacity="0" result="BackgroundImageFix"/>
<feColorMatrix in="SourceAlpha" type="matrix" values="0 0 0 0 0 0 0 0 0 0 0 0 0 0 0 0 0 0 127 0"/>
<feOffset dy="3"/>
<feGaussianBlur stdDeviation="2.5"/>
<feColorMatrix type="matrix" values="0 0 0 0 0 0 0 0 0 0 0 0 0 0 0 0 0 0 0.2 0"/>
<feBlend mode="normal" in2="BackgroundImageFix" result="effect1_dropShadow"/>
<feColorMatrix in="SourceAlpha" type="matrix" values="0 0 0 0 0 0 0 0 0 0 0 0 0 0 0 0 0 0 127 0"/>
<feOffset dy="1"/>
<feGaussianBlur stdDeviation="9"/>
<feColorMatrix type="matrix" values="0 0 0 0 0 0 0 0 0 0 0 0 0 0 0 0 0 0 0.12 0"/>
<feBlend mode="normal" in2="effect1_dropShadow" result="effect2_dropShadow"/>
<feColorMatrix in="SourceAlpha" type="matrix" values="0 0 0 0 0 0 0 0 0 0 0 0 0 0 0 0 0 0 127 0"/>
<feOffset dy="6"/>
<feGaussianBlur stdDeviation="5"/>
<feColorMatrix type="matrix" values="0 0 0 0 0 0 0 0 0 0 0 0 0 0 0 0 0 0 0.14 0"/>
<feBlend mode="normal" in2="effect2_dropShadow" result="effect3_dropShadow"/>
<feBlend mode="normal" in="SourceGraphic" in2="effect3_dropShadow" result="shape"/>
</filter>
<clipPath id="clip0">
<rect width="32" height="32" fill="white" transform="translate(66 67)"/>
</clipPath>
</defs>
</svg>
