<svg width="407" height="163" viewBox="0 0 407 163" fill="none" xmlns="http://www.w3.org/2000/svg">
<g filter="url(#filter0_d)">
<rect x="40" y="40" width="327" height="83" rx="8" fill="#141519"/>
<rect x="39.5" y="39.5" width="328" height="84" rx="8.5" stroke="#8A919E" stroke-opacity="0.2"/>
</g>
<path d="M128.135 77.13C130.345 77.13 131.931 75.999 132.204 73.763H130.514C130.332 75.076 129.422 75.726 128.135 75.726C126.419 75.726 125.418 74.491 125.418 72.398V72.294C125.418 70.214 126.484 68.94 128.122 68.94C129.461 68.94 130.15 69.577 130.345 70.812H132.1C131.892 68.628 130.241 67.562 128.109 67.562C125.522 67.562 123.598 69.512 123.598 72.307V72.411C123.598 75.271 125.223 77.13 128.135 77.13ZM135.442 77.13C136.482 77.13 137.08 76.753 137.522 76.168V77H139.069V72.541C139.069 70.682 137.873 70.058 136.352 70.058C134.831 70.058 133.57 70.721 133.44 72.307H134.961C135.039 71.631 135.442 71.241 136.261 71.241C137.184 71.241 137.496 71.696 137.496 72.606V72.957H136.651C134.701 72.957 133.167 73.529 133.167 75.115C133.167 76.532 134.194 77.13 135.442 77.13ZM135.819 75.999C135.039 75.999 134.727 75.622 134.727 75.05C134.727 74.218 135.494 73.945 136.69 73.945H137.496V74.621C137.496 75.492 136.781 75.999 135.819 75.999ZM140.872 77H142.445V73.464C142.445 72.021 143.277 71.579 144.655 71.566V70.097C143.511 70.11 142.874 70.617 142.445 71.475V70.201H140.872V77ZM147.718 77.13C148.758 77.13 149.356 76.753 149.798 76.168V77H151.345V72.541C151.345 70.682 150.149 70.058 148.628 70.058C147.107 70.058 145.846 70.721 145.716 72.307H147.237C147.315 71.631 147.718 71.241 148.537 71.241C149.46 71.241 149.772 71.696 149.772 72.606V72.957H148.927C146.977 72.957 145.443 73.529 145.443 75.115C145.443 76.532 146.47 77.13 147.718 77.13ZM148.095 75.999C147.315 75.999 147.003 75.622 147.003 75.05C147.003 74.218 147.77 73.945 148.966 73.945H149.772V74.621C149.772 75.492 149.057 75.999 148.095 75.999ZM153.148 77H154.721V72.931C154.721 71.891 155.436 71.371 156.216 71.371C156.983 71.371 157.425 71.8 157.425 72.801V77H158.998V72.931C158.998 71.891 159.713 71.371 160.493 71.371C161.273 71.371 161.702 71.8 161.702 72.801V77H163.275V72.697C163.275 70.825 162.261 70.058 161.013 70.058C160.168 70.058 159.232 70.435 158.712 71.28C158.374 70.435 157.672 70.058 156.788 70.058C155.787 70.058 155.046 70.604 154.721 71.241V70.201H153.148V77ZM168.072 77.13C169.814 77.13 170.971 76.35 171.192 74.92H169.671C169.554 75.583 169.06 75.96 168.111 75.96C166.941 75.96 166.291 75.232 166.239 73.945H171.218V73.49C171.218 71.059 169.697 70.058 168.007 70.058C166.07 70.058 164.627 71.462 164.627 73.568V73.672C164.627 75.817 166.07 77.13 168.072 77.13ZM166.265 72.892C166.421 71.839 167.058 71.202 168.007 71.202C168.982 71.202 169.58 71.722 169.658 72.892H166.265ZM172.662 77H174.235V67.055H172.662V77ZM178.479 77.13C180.221 77.13 181.196 76.337 181.196 74.959C181.196 73.516 180.247 73.126 178.648 72.879C177.569 72.697 177.244 72.502 177.244 72.008C177.244 71.527 177.647 71.202 178.323 71.202C179.051 71.202 179.402 71.488 179.532 72.112H180.988C180.819 70.578 179.714 70.058 178.323 70.058C177.049 70.058 175.775 70.734 175.775 72.099C175.775 73.373 176.438 73.88 178.232 74.166C179.233 74.335 179.688 74.543 179.688 75.102C179.688 75.674 179.311 75.973 178.466 75.973C177.543 75.973 177.192 75.57 177.114 74.881H175.632C175.697 76.324 176.724 77.13 178.479 77.13ZM186.479 69.083C186.999 69.083 187.415 68.693 187.415 68.186C187.415 67.666 186.999 67.276 186.479 67.276C185.959 67.276 185.543 67.666 185.543 68.186C185.543 68.693 185.959 69.083 186.479 69.083ZM184.776 79.444C186.661 79.418 187.285 78.612 187.285 77.234V70.201H185.712V77.273C185.712 77.845 185.465 78.183 184.776 78.235V79.444ZM192.193 77.13C193.935 77.13 195.092 76.35 195.313 74.92H193.792C193.675 75.583 193.181 75.96 192.232 75.96C191.062 75.96 190.412 75.232 190.36 73.945H195.339V73.49C195.339 71.059 193.818 70.058 192.128 70.058C190.191 70.058 188.748 71.462 188.748 73.568V73.672C188.748 75.817 190.191 77.13 192.193 77.13ZM190.386 72.892C190.542 71.839 191.179 71.202 192.128 71.202C193.103 71.202 193.701 71.722 193.779 72.892H190.386ZM196.783 77H198.356V67.055H196.783V77ZM200.312 77H201.885V67.055H200.312V77ZM204.556 79.327H206.103L209.808 70.201H208.274L206.61 74.582L204.803 70.201H203.1L205.791 76.311L204.556 79.327ZM217.881 77.13C219.636 77.13 220.897 75.804 220.897 73.62V73.516C220.897 71.319 219.584 70.058 217.881 70.058C216.88 70.058 216.035 70.643 215.658 71.293V67.055H214.085V77H215.658V75.908C216.022 76.597 216.802 77.13 217.881 77.13ZM217.491 75.882C216.347 75.882 215.606 75.167 215.606 73.646V73.542C215.606 72.034 216.386 71.293 217.478 71.293C218.505 71.293 219.285 72.034 219.285 73.542V73.646C219.285 75.102 218.648 75.882 217.491 75.882ZM225.302 77.13C227.044 77.13 228.201 76.35 228.422 74.92H226.901C226.784 75.583 226.29 75.96 225.341 75.96C224.171 75.96 223.521 75.232 223.469 73.945H228.448V73.49C228.448 71.059 226.927 70.058 225.237 70.058C223.3 70.058 221.857 71.462 221.857 73.568V73.672C221.857 75.817 223.3 77.13 225.302 77.13ZM223.495 72.892C223.651 71.839 224.288 71.202 225.237 71.202C226.212 71.202 226.81 71.722 226.888 72.892H223.495ZM231.697 77.13C232.737 77.13 233.335 76.753 233.777 76.168V77H235.324V72.541C235.324 70.682 234.128 70.058 232.607 70.058C231.086 70.058 229.825 70.721 229.695 72.307H231.216C231.294 71.631 231.697 71.241 232.516 71.241C233.439 71.241 233.751 71.696 233.751 72.606V72.957H232.906C230.956 72.957 229.422 73.529 229.422 75.115C229.422 76.532 230.449 77.13 231.697 77.13ZM232.074 75.999C231.294 75.999 230.982 75.622 230.982 75.05C230.982 74.218 231.749 73.945 232.945 73.945H233.751V74.621C233.751 75.492 233.036 75.999 232.074 75.999ZM237.127 77H238.7V72.996C238.7 71.917 239.415 71.371 240.299 71.371C241.235 71.371 241.651 71.839 241.651 72.866V77H243.224V72.723C243.224 70.851 242.262 70.058 240.897 70.058C239.779 70.058 239.025 70.617 238.7 71.28V70.201H237.127V77ZM247.364 77.13C249.106 77.13 250.081 76.337 250.081 74.959C250.081 73.516 249.132 73.126 247.533 72.879C246.454 72.697 246.129 72.502 246.129 72.008C246.129 71.527 246.532 71.202 247.208 71.202C247.936 71.202 248.287 71.488 248.417 72.112H249.873C249.704 70.578 248.599 70.058 247.208 70.058C245.934 70.058 244.66 70.734 244.66 72.099C244.66 73.373 245.323 73.88 247.117 74.166C248.118 74.335 248.573 74.543 248.573 75.102C248.573 75.674 248.196 75.973 247.351 75.973C246.428 75.973 246.077 75.57 245.999 74.881H244.517C244.582 76.324 245.609 77.13 247.364 77.13ZM257.535 77.13C259.381 77.13 260.564 76.025 260.681 74.465H259.238C259.147 75.427 258.432 75.921 257.6 75.921C256.443 75.921 255.715 75.141 255.715 73.659V73.555C255.715 72.151 256.482 71.319 257.561 71.319C258.393 71.319 258.991 71.696 259.121 72.606H260.642C260.46 70.734 259.043 70.058 257.535 70.058C255.637 70.058 254.103 71.423 254.103 73.581V73.685C254.103 75.856 255.585 77.13 257.535 77.13ZM263.829 77.13C264.869 77.13 265.467 76.753 265.909 76.168V77H267.456V72.541C267.456 70.682 266.26 70.058 264.739 70.058C263.218 70.058 261.957 70.721 261.827 72.307H263.348C263.426 71.631 263.829 71.241 264.648 71.241C265.571 71.241 265.883 71.696 265.883 72.606V72.957H265.038C263.088 72.957 261.554 73.529 261.554 75.115C261.554 76.532 262.581 77.13 263.829 77.13ZM264.206 75.999C263.426 75.999 263.114 75.622 263.114 75.05C263.114 74.218 263.881 73.945 265.077 73.945H265.883V74.621C265.883 75.492 265.168 75.999 264.206 75.999ZM269.259 77H270.832V73.464C270.832 72.021 271.664 71.579 273.042 71.566V70.097C271.898 70.11 271.261 70.617 270.832 71.475V70.201H269.259V77ZM274.426 77H275.999V73.464C275.999 72.021 276.831 71.579 278.209 71.566V70.097C277.065 70.11 276.428 70.617 275.999 71.475V70.201H274.426V77ZM282.483 77.13C284.485 77.13 285.98 75.752 285.98 73.633V73.529C285.98 71.449 284.485 70.058 282.496 70.058C280.494 70.058 278.999 71.462 278.999 73.568V73.672C278.999 75.739 280.481 77.13 282.483 77.13ZM282.496 75.908C281.3 75.908 280.611 75.037 280.611 73.646V73.542C280.611 72.138 281.326 71.293 282.496 71.293C283.666 71.293 284.368 72.151 284.368 73.555V73.646C284.368 75.037 283.666 75.908 282.496 75.908ZM289.715 77.117C290.196 77.117 290.534 77.039 290.781 76.948V75.7C290.56 75.791 290.326 75.83 290.014 75.83C289.52 75.83 289.234 75.557 289.234 74.959V71.384H290.729V70.201H289.234V68.706H287.661V70.201H286.751V71.384H287.661V75.102C287.661 76.389 288.363 77.117 289.715 77.117ZM298.274 77.13C300.12 77.13 301.303 76.025 301.42 74.465H299.977C299.886 75.427 299.171 75.921 298.339 75.921C297.182 75.921 296.454 75.141 296.454 73.659V73.555C296.454 72.151 297.221 71.319 298.3 71.319C299.132 71.319 299.73 71.696 299.86 72.606H301.381C301.199 70.734 299.782 70.058 298.274 70.058C296.376 70.058 294.842 71.423 294.842 73.581V73.685C294.842 75.856 296.324 77.13 298.274 77.13ZM304.569 77.13C305.609 77.13 306.207 76.753 306.649 76.168V77H308.196V72.541C308.196 70.682 307 70.058 305.479 70.058C303.958 70.058 302.697 70.721 302.567 72.307H304.088C304.166 71.631 304.569 71.241 305.388 71.241C306.311 71.241 306.623 71.696 306.623 72.606V72.957H305.778C303.828 72.957 302.294 73.529 302.294 75.115C302.294 76.532 303.321 77.13 304.569 77.13ZM304.946 75.999C304.166 75.999 303.854 75.622 303.854 75.05C303.854 74.218 304.621 73.945 305.817 73.945H306.623V74.621C306.623 75.492 305.908 75.999 304.946 75.999ZM309.999 77H311.572V73.659L314.12 77H315.94L313.08 73.321L315.719 70.201H314.003L311.572 73.191V67.055H309.999V77ZM319.704 77.13C321.446 77.13 322.603 76.35 322.824 74.92H321.303C321.186 75.583 320.692 75.96 319.743 75.96C318.573 75.96 317.923 75.232 317.871 73.945H322.85V73.49C322.85 71.059 321.329 70.058 319.639 70.058C317.702 70.058 316.259 71.462 316.259 73.568V73.672C316.259 75.817 317.702 77.13 319.704 77.13ZM317.897 72.892C318.053 71.839 318.69 71.202 319.639 71.202C320.614 71.202 321.212 71.722 321.29 72.892H317.897ZM325.128 77.091C325.713 77.091 326.168 76.649 326.168 76.077C326.168 75.505 325.713 75.05 325.128 75.05C324.556 75.05 324.101 75.505 324.101 76.077C324.101 76.649 324.556 77.091 325.128 77.091ZM124.924 93.117C126.64 93.117 127.797 92.194 127.797 90.179V83.705H126.055V90.14C126.055 91.284 125.509 91.726 124.664 91.726C124.118 91.726 123.793 91.622 123.468 91.492V92.844C123.767 93 124.157 93.117 124.924 93.117ZM131.962 93.13C133.067 93.13 133.782 92.597 134.12 91.934V93H135.693V86.201H134.12V90.244C134.12 91.323 133.379 91.869 132.534 91.869C131.624 91.869 131.195 91.401 131.195 90.374V86.201H129.622V90.556C129.622 92.363 130.623 93.13 131.962 93.13ZM138.364 85.083C138.884 85.083 139.3 84.693 139.3 84.186C139.3 83.666 138.884 83.276 138.364 83.276C137.844 83.276 137.428 83.666 137.428 84.186C137.428 84.693 137.844 85.083 138.364 85.083ZM136.661 95.444C138.546 95.418 139.17 94.612 139.17 93.234V86.201H137.597V93.273C137.597 93.845 137.35 94.183 136.661 94.235V95.444ZM143.362 93.13C144.467 93.13 145.182 92.597 145.52 91.934V93H147.093V86.201H145.52V90.244C145.52 91.323 144.779 91.869 143.934 91.869C143.024 91.869 142.595 91.401 142.595 90.374V86.201H141.022V90.556C141.022 92.363 142.023 93.13 143.362 93.13ZM152.754 93.13C154.509 93.13 155.77 91.804 155.77 89.62V89.516C155.77 87.319 154.457 86.058 152.754 86.058C151.753 86.058 150.908 86.643 150.531 87.293V83.055H148.958V93H150.531V91.908C150.895 92.597 151.675 93.13 152.754 93.13ZM152.364 91.882C151.22 91.882 150.479 91.167 150.479 89.646V89.542C150.479 88.034 151.259 87.293 152.351 87.293C153.378 87.293 154.158 88.034 154.158 89.542V89.646C154.158 91.102 153.521 91.882 152.364 91.882ZM160.175 93.13C161.917 93.13 163.074 92.35 163.295 90.92H161.774C161.657 91.583 161.163 91.96 160.214 91.96C159.044 91.96 158.394 91.232 158.342 89.945H163.321V89.49C163.321 87.059 161.8 86.058 160.11 86.058C158.173 86.058 156.73 87.462 156.73 89.568V89.672C156.73 91.817 158.173 93.13 160.175 93.13ZM158.368 88.892C158.524 87.839 159.161 87.202 160.11 87.202C161.085 87.202 161.683 87.722 161.761 88.892H158.368ZM167.117 93.13C168.859 93.13 169.834 92.337 169.834 90.959C169.834 89.516 168.885 89.126 167.286 88.879C166.207 88.697 165.882 88.502 165.882 88.008C165.882 87.527 166.285 87.202 166.961 87.202C167.689 87.202 168.04 87.488 168.17 88.112H169.626C169.457 86.578 168.352 86.058 166.961 86.058C165.687 86.058 164.413 86.734 164.413 88.099C164.413 89.373 165.076 89.88 166.87 90.166C167.871 90.335 168.326 90.543 168.326 91.102C168.326 91.674 167.949 91.973 167.104 91.973C166.181 91.973 165.83 91.57 165.752 90.881H164.27C164.335 92.324 165.362 93.13 167.117 93.13ZM177.288 93.13C179.134 93.13 180.317 92.025 180.434 90.465H178.991C178.9 91.427 178.185 91.921 177.353 91.921C176.196 91.921 175.468 91.141 175.468 89.659V89.555C175.468 88.151 176.235 87.319 177.314 87.319C178.146 87.319 178.744 87.696 178.874 88.606H180.395C180.213 86.734 178.796 86.058 177.288 86.058C175.39 86.058 173.856 87.423 173.856 89.581V89.685C173.856 91.856 175.338 93.13 177.288 93.13ZM183.582 93.13C184.622 93.13 185.22 92.753 185.662 92.168V93H187.209V88.541C187.209 86.682 186.013 86.058 184.492 86.058C182.971 86.058 181.71 86.721 181.58 88.307H183.101C183.179 87.631 183.582 87.241 184.401 87.241C185.324 87.241 185.636 87.696 185.636 88.606V88.957H184.791C182.841 88.957 181.307 89.529 181.307 91.115C181.307 92.532 182.334 93.13 183.582 93.13ZM183.959 91.999C183.179 91.999 182.867 91.622 182.867 91.05C182.867 90.218 183.634 89.945 184.83 89.945H185.636V90.621C185.636 91.492 184.921 91.999 183.959 91.999ZM189.012 93H190.585V89.659L193.133 93H194.953L192.093 89.321L194.732 86.201H193.016L190.585 89.191V83.055H189.012V93ZM198.718 93.13C200.46 93.13 201.617 92.35 201.838 90.92H200.317C200.2 91.583 199.706 91.96 198.757 91.96C197.587 91.96 196.937 91.232 196.885 89.945H201.864V89.49C201.864 87.059 200.343 86.058 198.653 86.058C196.716 86.058 195.273 87.462 195.273 89.568V89.672C195.273 91.817 196.716 93.13 198.718 93.13ZM196.911 88.892C197.067 87.839 197.704 87.202 198.653 87.202C199.628 87.202 200.226 87.722 200.304 88.892H196.911Z" fill="white"/>
<path d="M68 69V85H92V69H68ZM89.5 73.75V75.75H82.5V73.75H89.5ZM82.5 78.25H89.5V80.25H82.5V78.25ZM70.5 71.5H80V82.5H70.5V71.5Z" fill="#D5AD36"/>
<path d="M75 76.5C75.8284 76.5 76.5 75.8284 76.5 75C76.5 74.1716 75.8284 73.5 75 73.5C74.1716 73.5 73.5 74.1716 73.5 75C73.5 75.8284 74.1716 76.5 75 76.5Z" fill="#D5AD36"/>
<path d="M75 77.5C73.34 77.5 72 78.84 72 80.5H78C78 78.84 76.66 77.5 75 77.5Z" fill="#D5AD36"/>
<defs>
<filter id="filter0_d" x="27" y="35" width="353" height="109" filterUnits="userSpaceOnUse" color-interpolation-filters="sRGB">
<feFlood flood-opacity="0" result="BackgroundImageFix"/>
<feColorMatrix in="SourceAlpha" type="matrix" values="0 0 0 0 0 0 0 0 0 0 0 0 0 0 0 0 0 0 127 0"/>
<feOffset dy="8"/>
<feGaussianBlur stdDeviation="6"/>
<feColorMatrix type="matrix" values="0 0 0 0 0.027451 0 0 0 0 0.0784314 0 0 0 0 0.133333 0 0 0 0.02 0"/>
<feBlend mode="normal" in2="BackgroundImageFix" result="effect1_dropShadow"/>
<feBlend mode="normal" in="SourceGraphic" in2="effect1_dropShadow" result="shape"/>
</filter>
</defs>
</svg>
