<svg width="407" height="256" viewBox="0 0 407 256" fill="none" xmlns="http://www.w3.org/2000/svg">
<g filter="url(#filter0_d)">
<rect x="39.5" y="39.5" width="328" height="177" rx="8.5" fill="white" stroke="#DEE1E7"/>
<path d="M56 152C56 147.582 59.5817 144 64 144H188C192.418 144 196 147.582 196 152V192C196 196.418 192.418 200 188 200H64C59.5817 200 56 196.418 56 192V152Z" fill="white"/>
<path d="M86.4305 177.144C88.5425 177.144 89.9665 176.008 89.9665 173.528V165.56H87.8225V173.48C87.8225 174.888 87.1505 175.432 86.1105 175.432C85.4385 175.432 85.0385 175.304 84.6385 175.144V176.808C85.0065 177 85.4865 177.144 86.4305 177.144ZM95.9414 177.16C98.0854 177.16 99.5094 176.2 99.7814 174.44H97.9094C97.7654 175.256 97.1574 175.72 95.9894 175.72C94.5494 175.72 93.7494 174.824 93.6854 173.24H99.8134V172.68C99.8134 169.688 97.9414 168.456 95.8614 168.456C93.4774 168.456 91.7014 170.184 91.7014 172.776V172.904C91.7014 175.544 93.4774 177.16 95.9414 177.16ZM93.7174 171.944C93.9094 170.648 94.6934 169.864 95.8614 169.864C97.0614 169.864 97.7974 170.504 97.8934 171.944H93.7174ZM101.591 177H103.527V164.76H101.591V177ZM105.934 177H107.87V164.76H105.934V177ZM111.158 179.864H113.062L117.622 168.632H115.734L113.686 174.024L111.462 168.632H109.366L112.678 176.152L111.158 179.864ZM123.046 177H127.446C129.958 177 131.366 175.928 131.366 173.8V173.736C131.366 172.216 130.63 171.368 129.078 171.032C130.374 170.632 130.886 169.736 130.886 168.6V168.536C130.886 166.456 129.494 165.56 127.142 165.56H123.046V177ZM125.126 170.376V167.08H126.854C128.214 167.08 128.838 167.544 128.838 168.632V168.696C128.838 169.864 128.294 170.376 126.886 170.376H125.126ZM125.126 175.48V171.816H127.046C128.614 171.816 129.27 172.408 129.27 173.592V173.656C129.27 174.84 128.614 175.48 127.19 175.48H125.126ZM136.895 177.16C139.039 177.16 140.463 176.2 140.735 174.44H138.863C138.719 175.256 138.111 175.72 136.943 175.72C135.503 175.72 134.703 174.824 134.639 173.24H140.767V172.68C140.767 169.688 138.895 168.456 136.815 168.456C134.431 168.456 132.655 170.184 132.655 172.776V172.904C132.655 175.544 134.431 177.16 136.895 177.16ZM134.671 171.944C134.863 170.648 135.647 169.864 136.815 169.864C138.015 169.864 138.751 170.504 138.847 171.944H134.671ZM144.766 177.16C146.046 177.16 146.782 176.696 147.326 175.976V177H149.23V171.512C149.23 169.224 147.758 168.456 145.886 168.456C144.014 168.456 142.462 169.272 142.302 171.224H144.174C144.27 170.392 144.766 169.912 145.774 169.912C146.91 169.912 147.294 170.472 147.294 171.592V172.024H146.254C143.854 172.024 141.966 172.728 141.966 174.68C141.966 176.424 143.23 177.16 144.766 177.16ZM145.23 175.768C144.27 175.768 143.886 175.304 143.886 174.6C143.886 173.576 144.83 173.24 146.302 173.24H147.294V174.072C147.294 175.144 146.414 175.768 145.23 175.768ZM151.449 177H153.385V172.072C153.385 170.744 154.265 170.072 155.353 170.072C156.505 170.072 157.017 170.648 157.017 171.912V177H158.953V171.736C158.953 169.432 157.769 168.456 156.089 168.456C154.713 168.456 153.785 169.144 153.385 169.96V168.632H151.449V177ZM164.047 177.16C166.191 177.16 167.391 176.184 167.391 174.488C167.391 172.712 166.223 172.232 164.255 171.928C162.927 171.704 162.527 171.464 162.527 170.856C162.527 170.264 163.023 169.864 163.855 169.864C164.751 169.864 165.183 170.216 165.343 170.984H167.135C166.927 169.096 165.567 168.456 163.855 168.456C162.287 168.456 160.719 169.288 160.719 170.968C160.719 172.536 161.535 173.16 163.743 173.512C164.975 173.72 165.535 173.976 165.535 174.664C165.535 175.368 165.071 175.736 164.031 175.736C162.895 175.736 162.463 175.24 162.367 174.392H160.543C160.623 176.168 161.887 177.16 164.047 177.16Z" fill="#0A0B0D"/>
<path d="M64 145H188V143H64V145ZM195 152V192H197V152H195ZM188 199H64V201H188V199ZM57 192V152H55V192H57ZM64 199C60.134 199 57 195.866 57 192H55C55 196.971 59.0294 201 64 201V199ZM195 192C195 195.866 191.866 199 188 199V201C192.971 201 197 196.971 197 192H195ZM188 145C191.866 145 195 148.134 195 152H197C197 147.029 192.971 143 188 143V145ZM64 143C59.0294 143 55 147.029 55 152H57C57 148.134 60.134 145 64 145V143Z" fill="#5B636E" fill-opacity="0.2"/>
<path d="M211 152C211 147.582 214.582 144 219 144H343C347.418 144 351 147.582 351 152V192C351 196.418 347.418 200 343 200H219C214.582 200 211 196.418 211 192V152Z" fill="white"/>
<path d="M233.515 177H235.435V168.36L238.907 177H239.595L243.003 168.36V177H245.131V165.56H242.315L239.371 173.368L236.363 165.56H233.515V177ZM251.271 177.16C253.735 177.16 255.575 175.464 255.575 172.856V172.728C255.575 170.168 253.735 168.456 251.287 168.456C248.823 168.456 246.983 170.184 246.983 172.776V172.904C246.983 175.448 248.807 177.16 251.271 177.16ZM251.287 175.656C249.815 175.656 248.967 174.584 248.967 172.872V172.744C248.967 171.016 249.847 169.976 251.287 169.976C252.727 169.976 253.591 171.032 253.591 172.76V172.872C253.591 174.584 252.727 175.656 251.287 175.656ZM260.988 177.16C263.26 177.16 264.716 175.8 264.86 173.88H263.084C262.972 175.064 262.092 175.672 261.068 175.672C259.644 175.672 258.748 174.712 258.748 172.888V172.76C258.748 171.032 259.692 170.008 261.02 170.008C262.044 170.008 262.78 170.472 262.94 171.592H264.812C264.588 169.288 262.844 168.456 260.988 168.456C258.652 168.456 256.764 170.136 256.764 172.792V172.92C256.764 175.592 258.588 177.16 260.988 177.16ZM266.527 177H268.463V172.072C268.463 170.744 269.343 170.072 270.431 170.072C271.583 170.072 272.095 170.648 272.095 171.912V177H274.031V171.736C274.031 169.432 272.847 168.456 271.167 168.456C269.791 168.456 268.863 169.144 268.463 169.96V164.76H266.527V177ZM277.253 167.256C277.893 167.256 278.405 166.776 278.405 166.152C278.405 165.512 277.893 165.032 277.253 165.032C276.613 165.032 276.101 165.512 276.101 166.152C276.101 166.776 276.613 167.256 277.253 167.256ZM276.309 177H278.245V168.632H276.309V177ZM284.578 177H288.018C292.034 177 293.97 174.632 293.97 171.304V171.16C293.97 167.832 292.034 165.56 288.05 165.56H284.578V177ZM286.706 175.32V167.24H287.938C290.626 167.24 291.746 168.728 291.746 171.192V171.32C291.746 173.848 290.514 175.32 287.954 175.32H286.706ZM299.568 177.16C302.032 177.16 303.872 175.464 303.872 172.856V172.728C303.872 170.168 302.032 168.456 299.584 168.456C297.12 168.456 295.28 170.184 295.28 172.776V172.904C295.28 175.448 297.104 177.16 299.568 177.16ZM299.584 175.656C298.112 175.656 297.264 174.584 297.264 172.872V172.744C297.264 171.016 298.144 169.976 299.584 169.976C301.024 169.976 301.888 171.032 301.888 172.76V172.872C301.888 174.584 301.024 175.656 299.584 175.656ZM305.621 177H307.557V172.072C307.557 170.744 308.437 170.072 309.525 170.072C310.677 170.072 311.189 170.648 311.189 171.912V177H313.125V171.736C313.125 169.432 311.941 168.456 310.261 168.456C308.885 168.456 307.957 169.144 307.557 169.96V168.632H305.621V177ZM318.155 177.16C319.515 177.16 320.395 176.504 320.811 175.688V177H322.747V168.632H320.811V173.608C320.811 174.936 319.899 175.608 318.859 175.608C317.739 175.608 317.211 175.032 317.211 173.768V168.632H315.275V173.992C315.275 176.216 316.507 177.16 318.155 177.16ZM327.891 177.144C328.483 177.144 328.899 177.048 329.203 176.936V175.4C328.931 175.512 328.643 175.56 328.259 175.56C327.651 175.56 327.299 175.224 327.299 174.488V170.088H329.139V168.632H327.299V166.792H325.363V168.632H324.243V170.088H325.363V174.664C325.363 176.248 326.227 177.144 327.891 177.144Z" fill="#0A0B0D"/>
<path d="M219 145H343V143H219V145ZM350 152V192H352V152H350ZM343 199H219V201H343V199ZM212 192V152H210V192H212ZM219 199C215.134 199 212 195.866 212 192H210C210 196.971 214.029 201 219 201V199ZM350 192C350 195.866 346.866 199 343 199V201C347.971 201 352 196.971 352 192H350ZM343 145C346.866 145 350 148.134 350 152H352C352 147.029 347.971 143 343 143V145ZM219 143C214.029 143 210 147.029 210 152H212C212 148.134 215.134 145 219 145V143Z" fill="#5B636E" fill-opacity="0.2"/>
<path d="M61.136 101.144C63.408 101.144 65.088 99.688 65.088 97.768C65.088 95.608 63.744 94.84 61.2 94.44C58.864 94.088 58.448 93.512 58.448 92.392C58.448 91.32 59.264 90.536 60.832 90.536C62.416 90.536 63.248 91.128 63.52 92.568H64.768C64.544 90.536 63.12 89.416 60.832 89.416C58.672 89.416 57.152 90.76 57.152 92.52C57.152 94.552 58.576 95.304 60.976 95.672C63.152 96.024 63.744 96.568 63.744 97.864C63.744 99.16 62.608 100.024 61.136 100.024C58.832 100.024 58.288 98.872 58.112 97.512H56.768C56.976 99.464 58.08 101.144 61.136 101.144ZM70.8473 101.144C73.2313 101.144 74.9753 99.4 74.9753 96.872V96.744C74.9753 94.232 73.2313 92.488 70.8633 92.488C68.4953 92.488 66.7513 94.248 66.7513 96.76V96.888C66.7513 99.336 68.4633 101.144 70.8473 101.144ZM70.8633 100.04C69.1673 100.04 68.1273 98.792 68.1273 96.888V96.76C68.1273 94.84 69.1833 93.592 70.8633 93.592C72.5273 93.592 73.5993 94.84 73.5993 96.776V96.888C73.5993 98.776 72.5433 100.04 70.8633 100.04ZM79.8635 101.144C81.2075 101.144 82.1355 100.456 82.5195 99.672V101H83.8475V92.632H82.5195V97.704C82.5195 99.208 81.3995 99.992 80.2155 99.992C78.9035 99.992 78.2795 99.336 78.2795 97.864V92.632H76.9515V97.928C76.9515 100.232 78.1995 101.144 79.8635 101.144ZM86.8195 101H88.1475V93.752H91.4275V101H92.7555V93.752H94.8035V92.632H92.7555V91.128C92.7555 90.28 93.0915 89.688 93.9395 89.688C94.3075 89.688 94.5635 89.736 94.8035 89.832V88.712C94.5475 88.616 94.3235 88.584 93.8915 88.584C92.2435 88.584 91.4275 89.576 91.4275 91.272V92.632H88.1475V91.24C88.1475 90.392 88.4995 89.8 89.3635 89.8C89.7315 89.8 90.0675 89.88 90.3075 89.976V88.856C89.9715 88.744 89.7475 88.696 89.3155 88.696C87.6515 88.696 86.8195 89.688 86.8195 91.384V92.632H85.6195V93.752H86.8195V101ZM96.4698 101H97.8138V88.632H96.4698V101ZM103.236 91.192H104.228L105.892 88.84H104.228L103.236 91.192ZM103.956 101.144C105.844 101.144 107.236 100.264 107.524 98.584H106.196C106.02 99.56 105.268 100.04 103.972 100.04C102.26 100.04 101.348 98.984 101.284 97.08H107.588V96.648C107.588 93.656 105.764 92.488 103.828 92.488C101.524 92.488 99.9075 94.248 99.9075 96.776V96.904C99.9075 99.48 101.588 101.144 103.956 101.144ZM101.332 96.008C101.556 94.52 102.468 93.592 103.828 93.592C105.204 93.592 106.1 94.28 106.228 96.008H101.332ZM118.02 101.144C120.324 101.144 121.828 99.384 121.828 96.824V96.696C121.828 94.088 120.212 92.488 118.02 92.488C116.804 92.488 115.668 93.224 115.188 94.04V88.632H113.86V101H115.188V99.624C115.668 100.456 116.66 101.144 118.02 101.144ZM117.892 100.04C116.26 100.04 115.14 99.032 115.14 96.888V96.76C115.14 94.616 116.324 93.592 117.876 93.592C119.284 93.592 120.452 94.648 120.452 96.76V96.888C120.452 98.92 119.556 100.04 117.892 100.04ZM124.563 90.888C125.043 90.888 125.443 90.488 125.443 90.008C125.443 89.528 125.043 89.128 124.563 89.128C124.083 89.128 123.683 89.528 123.683 90.008C123.683 90.488 124.083 90.888 124.563 90.888ZM123.923 101H125.251V92.632H123.923V101ZM130.561 101.144C132.593 101.144 133.633 100.12 133.633 98.6C133.633 96.824 132.417 96.44 130.689 96.12C129.153 95.848 128.737 95.544 128.737 94.792C128.737 94.072 129.361 93.592 130.321 93.592C131.377 93.592 131.889 93.992 132.081 94.904H133.361C133.137 93.096 131.841 92.488 130.337 92.488C129.025 92.488 127.505 93.288 127.505 94.84C127.505 96.296 128.241 96.904 130.417 97.304C131.713 97.544 132.369 97.832 132.369 98.712C132.369 99.608 131.809 100.04 130.545 100.04C129.201 100.04 128.673 99.416 128.577 98.424H127.281C127.361 100.136 128.561 101.144 130.561 101.144ZM139.129 101.144C141.145 101.144 142.601 99.8 142.777 97.992H141.545C141.401 99.352 140.329 100.04 139.145 100.04C137.529 100.04 136.409 98.952 136.409 96.904V96.776C136.409 94.808 137.577 93.592 139.097 93.592C140.249 93.592 141.209 94.088 141.417 95.416H142.729C142.473 93.288 140.841 92.488 139.097 92.488C136.857 92.488 135.033 94.216 135.033 96.776V96.904C135.033 99.496 136.793 101.144 139.129 101.144ZM147.614 101.144C148.958 101.144 149.886 100.456 150.27 99.672V101H151.598V92.632H150.27V97.704C150.27 99.208 149.15 99.992 147.966 99.992C146.654 99.992 146.03 99.336 146.03 97.864V92.632H144.702V97.928C144.702 100.232 145.95 101.144 147.614 101.144ZM154.954 90.888C155.434 90.888 155.834 90.488 155.834 90.008C155.834 89.528 155.434 89.128 154.954 89.128C154.474 89.128 154.074 89.528 154.074 90.008C154.074 90.488 154.474 90.888 154.954 90.888ZM154.314 101H155.642V92.632H154.314V101ZM160.904 101.112C161.448 101.112 161.768 101.032 162.04 100.936V99.816C161.752 99.928 161.432 99.992 161.016 99.992C160.344 99.992 159.976 99.592 159.976 98.776V93.752H161.928V92.632H159.976V90.728H158.648V92.632H157.448V93.752H158.648V98.904C158.648 100.216 159.384 101.112 160.904 101.112ZM172.442 101.144C174.746 101.144 176.25 99.384 176.25 96.824V96.696C176.25 94.088 174.634 92.488 172.442 92.488C171.226 92.488 170.09 93.224 169.61 94.04V88.632H168.282V101H169.61V99.624C170.09 100.456 171.082 101.144 172.442 101.144ZM172.314 100.04C170.682 100.04 169.562 99.032 169.562 96.888V96.76C169.562 94.616 170.746 93.592 172.298 93.592C173.706 93.592 174.874 94.648 174.874 96.76V96.888C174.874 98.92 173.978 100.04 172.314 100.04ZM178.313 101H179.641V96.408C179.641 94.344 180.713 93.816 182.393 93.736V92.488C180.889 92.536 180.169 93.192 179.641 94.136V92.632H178.313V101ZM187.566 101.144C189.95 101.144 191.694 99.4 191.694 96.872V96.744C191.694 94.232 189.95 92.488 187.582 92.488C185.214 92.488 183.47 94.248 183.47 96.76V96.888C183.47 99.336 185.182 101.144 187.566 101.144ZM187.582 100.04C185.886 100.04 184.846 98.792 184.846 96.888V96.76C184.846 94.84 185.902 93.592 187.582 93.592C189.246 93.592 190.318 94.84 190.318 96.776V96.888C190.318 98.776 189.262 100.04 187.582 100.04ZM195.274 101H196.73L198.682 94.728L200.426 101H201.898L204.506 92.632H203.146L201.178 99.368L199.274 92.632H198.122L196.09 99.368L194.138 92.632H192.698L195.274 101ZM206.297 101H207.625V95.928C207.625 94.424 208.729 93.64 209.961 93.64C211.305 93.64 211.929 94.296 211.929 95.768V101H213.257V95.864C213.257 93.432 212.041 92.488 210.313 92.488C208.937 92.488 208.009 93.176 207.625 93.96V92.632H206.297V101ZM216.532 90.888C217.012 90.888 217.412 90.488 217.412 90.008C217.412 89.528 217.012 89.128 216.532 89.128C216.052 89.128 215.652 89.528 215.652 90.008C215.652 90.488 216.052 90.888 216.532 90.888ZM215.892 101H217.22V92.632H215.892V101ZM223.362 101.144C225.25 101.144 226.642 100.264 226.93 98.584H225.602C225.426 99.56 224.674 100.04 223.378 100.04C221.666 100.04 220.754 98.984 220.69 97.08H226.994V96.648C226.994 93.656 225.17 92.488 223.234 92.488C220.93 92.488 219.314 94.248 219.314 96.776V96.904C219.314 99.48 220.994 101.144 223.362 101.144ZM220.738 96.008C220.962 94.52 221.874 93.592 223.234 93.592C224.61 93.592 225.506 94.28 225.634 96.008H220.738ZM235.81 101.112C236.354 101.112 236.674 101.032 236.946 100.936V99.816C236.658 99.928 236.338 99.992 235.922 99.992C235.25 99.992 234.882 99.592 234.882 98.776V93.752H236.834V92.632H234.882V90.728H233.554V92.632H232.354V93.752H233.554V98.904C233.554 100.216 234.29 101.112 235.81 101.112ZM242.425 101.144C244.809 101.144 246.553 99.4 246.553 96.872V96.744C246.553 94.232 244.809 92.488 242.441 92.488C240.073 92.488 238.329 94.248 238.329 96.76V96.888C238.329 99.336 240.041 101.144 242.425 101.144ZM242.441 100.04C240.745 100.04 239.705 98.792 239.705 96.888V96.76C239.705 94.84 240.761 93.592 242.441 93.592C244.105 93.592 245.177 94.84 245.177 96.776V96.888C245.177 98.776 244.121 100.04 242.441 100.04ZM252.082 101.144C254.466 101.144 256.21 99.4 256.21 96.872V96.744C256.21 94.232 254.466 92.488 252.098 92.488C249.73 92.488 247.986 94.248 247.986 96.76V96.888C247.986 99.336 249.698 101.144 252.082 101.144ZM252.098 100.04C250.402 100.04 249.362 98.792 249.362 96.888V96.76C249.362 94.84 250.418 93.592 252.098 93.592C253.762 93.592 254.834 94.84 254.834 96.776V96.888C254.834 98.776 253.778 100.04 252.098 100.04ZM260.81 101.112C261.354 101.112 261.674 101.032 261.946 100.936V99.816C261.658 99.928 261.338 99.992 260.922 99.992C260.25 99.992 259.882 99.592 259.882 98.776V93.752H261.834V92.632H259.882V90.728H258.554V92.632H257.354V93.752H258.554V98.904C258.554 100.216 259.29 101.112 260.81 101.112ZM266.545 101.144C268.577 101.144 269.617 100.12 269.617 98.6C269.617 96.824 268.401 96.44 266.673 96.12C265.137 95.848 264.721 95.544 264.721 94.792C264.721 94.072 265.345 93.592 266.305 93.592C267.361 93.592 267.873 93.992 268.065 94.904H269.345C269.121 93.096 267.825 92.488 266.321 92.488C265.009 92.488 263.489 93.288 263.489 94.84C263.489 96.296 264.225 96.904 266.401 97.304C267.697 97.544 268.353 97.832 268.353 98.712C268.353 99.608 267.793 100.04 266.529 100.04C265.185 100.04 264.657 99.416 264.561 98.424H263.265C263.345 100.136 264.545 101.144 266.545 101.144ZM272.313 90.888C272.793 90.888 273.193 90.488 273.193 90.008C273.193 89.528 272.793 89.128 272.313 89.128C271.833 89.128 271.433 89.528 271.433 90.008C271.433 90.488 271.833 90.888 272.313 90.888ZM271.673 101H273.001V92.632H271.673V101ZM279.143 101.144C281.031 101.144 282.423 100.264 282.711 98.584H281.383C281.207 99.56 280.455 100.04 279.159 100.04C277.447 100.04 276.535 98.984 276.471 97.08H282.775V96.648C282.775 93.656 280.951 92.488 279.015 92.488C276.711 92.488 275.095 94.248 275.095 96.776V96.904C275.095 99.48 276.775 101.144 279.143 101.144ZM276.519 96.008C276.743 94.52 277.655 93.592 279.015 93.592C280.391 93.592 281.287 94.28 281.415 96.008H276.519ZM289.047 101H290.375V96.408C290.375 94.344 291.447 93.816 293.127 93.736V92.488C291.623 92.536 290.903 93.192 290.375 94.136V92.632H289.047V101ZM298.3 101.144C300.684 101.144 302.428 99.4 302.428 96.872V96.744C302.428 94.232 300.684 92.488 298.316 92.488C295.948 92.488 294.204 94.248 294.204 96.76V96.888C294.204 99.336 295.916 101.144 298.3 101.144ZM298.316 100.04C296.62 100.04 295.58 98.792 295.58 96.888V96.76C295.58 94.84 296.636 93.592 298.316 93.592C299.98 93.592 301.052 94.84 301.052 96.776V96.888C301.052 98.776 299.996 100.04 298.316 100.04ZM304.517 101H305.861V88.632H304.517V101ZM308.61 101H309.954V88.632H308.61V101ZM313.584 101.08C314.144 101.08 314.608 100.632 314.608 100.056C314.608 99.48 314.144 99.032 313.584 99.032C313.024 99.032 312.56 99.48 312.56 100.056C312.56 100.632 313.024 101.08 313.584 101.08ZM61.136 125.144C63.408 125.144 65.088 123.688 65.088 121.768C65.088 119.608 63.744 118.84 61.2 118.44C58.864 118.088 58.448 117.512 58.448 116.392C58.448 115.32 59.264 114.536 60.832 114.536C62.416 114.536 63.248 115.128 63.52 116.568H64.768C64.544 114.536 63.12 113.416 60.832 113.416C58.672 113.416 57.152 114.76 57.152 116.52C57.152 118.552 58.576 119.304 60.976 119.672C63.152 120.024 63.744 120.568 63.744 121.864C63.744 123.16 62.608 124.024 61.136 124.024C58.832 124.024 58.288 122.872 58.112 121.512H56.768C56.976 123.464 58.08 125.144 61.136 125.144ZM68.899 125H70.355L72.307 118.728L74.051 125H75.523L78.131 116.632H76.771L74.803 123.368L72.899 116.632H71.747L69.715 123.368L67.763 116.632H66.323L68.899 125ZM83.1899 125.144C85.0779 125.144 86.4699 124.264 86.7579 122.584H85.4299C85.2539 123.56 84.5019 124.04 83.2059 124.04C81.4939 124.04 80.5819 122.984 80.5179 121.08H86.8219V120.648C86.8219 117.656 84.9979 116.488 83.0619 116.488C80.7579 116.488 79.1419 118.248 79.1419 120.776V120.904C79.1419 123.48 80.8219 125.144 83.1899 125.144ZM80.5659 120.008C80.7899 118.52 81.7019 117.592 83.0619 117.592C84.4379 117.592 85.3339 118.28 85.4619 120.008H80.5659ZM92.2836 125.144C94.1716 125.144 95.5636 124.264 95.8516 122.584H94.5236C94.3476 123.56 93.5956 124.04 92.2996 124.04C90.5876 124.04 89.6756 122.984 89.6116 121.08H95.9156V120.648C95.9156 117.656 94.0916 116.488 92.1556 116.488C89.8516 116.488 88.2356 118.248 88.2356 120.776V120.904C88.2356 123.48 89.9156 125.144 92.2836 125.144ZM89.6596 120.008C89.8836 118.52 90.7956 117.592 92.1556 117.592C93.5316 117.592 94.4276 118.28 94.5556 120.008H89.6596ZM100.497 125.112C101.041 125.112 101.361 125.032 101.633 124.936V123.816C101.345 123.928 101.025 123.992 100.609 123.992C99.9374 123.992 99.5694 123.592 99.5694 122.776V117.752H101.521V116.632H99.5694V114.728H98.2414V116.632H97.0414V117.752H98.2414V122.904C98.2414 124.216 98.9774 125.112 100.497 125.112ZM107.875 125H109.203V120.408C109.203 118.344 110.275 117.816 111.955 117.736V116.488C110.451 116.536 109.731 117.192 109.203 118.136V116.632H107.875V125ZM117.129 125.144C119.513 125.144 121.257 123.4 121.257 120.872V120.744C121.257 118.232 119.513 116.488 117.145 116.488C114.777 116.488 113.033 118.248 113.033 120.76V120.888C113.033 123.336 114.745 125.144 117.129 125.144ZM117.145 124.04C115.449 124.04 114.409 122.792 114.409 120.888V120.76C114.409 118.84 115.465 117.592 117.145 117.592C118.809 117.592 119.881 118.84 119.881 120.776V120.888C119.881 122.776 118.825 124.04 117.145 124.04ZM123.345 125H124.689V112.632H123.345V125ZM127.439 125H128.783V112.632H127.439V125ZM135.735 127.912H137.063V123.624C137.543 124.456 138.519 125.144 139.895 125.144C142.199 125.144 143.703 123.384 143.703 120.824V120.696C143.703 118.088 142.087 116.488 139.895 116.488C138.679 116.488 137.543 117.224 137.063 118.04V116.632H135.735V127.912ZM139.767 124.04C138.135 124.04 137.015 123.032 137.015 120.888V120.76C137.015 118.616 138.199 117.592 139.751 117.592C141.159 117.592 142.327 118.648 142.327 120.76V120.888C142.327 122.92 141.431 124.04 139.767 124.04ZM146.438 114.888C146.918 114.888 147.318 114.488 147.318 114.008C147.318 113.528 146.918 113.128 146.438 113.128C145.958 113.128 145.558 113.528 145.558 114.008C145.558 114.488 145.958 114.888 146.438 114.888ZM145.798 125H147.126V116.632H145.798V125ZM153.268 125.144C155.156 125.144 156.548 124.264 156.836 122.584H155.508C155.332 123.56 154.58 124.04 153.284 124.04C151.572 124.04 150.66 122.984 150.596 121.08H156.9V120.648C156.9 117.656 155.076 116.488 153.14 116.488C150.836 116.488 149.22 118.248 149.22 120.776V120.904C149.22 123.48 150.9 125.144 153.268 125.144ZM150.644 120.008C150.868 118.52 151.78 117.592 153.14 117.592C154.516 117.592 155.412 118.28 155.54 120.008H150.644ZM167.332 125.144C169.636 125.144 171.14 123.384 171.14 120.824V120.696C171.14 118.088 169.524 116.488 167.332 116.488C166.116 116.488 164.98 117.224 164.5 118.04V112.632H163.172V125H164.5V123.624C164.98 124.456 165.972 125.144 167.332 125.144ZM167.204 124.04C165.572 124.04 164.452 123.032 164.452 120.888V120.76C164.452 118.616 165.636 117.592 167.188 117.592C168.596 117.592 169.764 118.648 169.764 120.76V120.888C169.764 122.92 168.868 124.04 167.204 124.04ZM176.675 125.144C179.059 125.144 180.803 123.4 180.803 120.872V120.744C180.803 118.232 179.059 116.488 176.691 116.488C174.323 116.488 172.579 118.248 172.579 120.76V120.888C172.579 123.336 174.291 125.144 176.675 125.144ZM176.691 124.04C174.995 124.04 173.955 122.792 173.955 120.888V120.76C173.955 118.84 175.011 117.592 176.691 117.592C178.355 117.592 179.427 118.84 179.427 120.776V120.888C179.427 122.776 178.371 124.04 176.691 124.04ZM182.86 125H184.188V119.928C184.188 118.424 185.292 117.64 186.524 117.64C187.868 117.64 188.492 118.296 188.492 119.768V125H189.82V119.864C189.82 117.432 188.604 116.488 186.876 116.488C185.5 116.488 184.572 117.176 184.188 117.96V116.632H182.86V125ZM196.582 125.144C198.886 125.144 200.39 123.384 200.39 120.824V120.696C200.39 118.088 198.774 116.488 196.582 116.488C195.366 116.488 194.23 117.224 193.75 118.04V112.632H192.422V125H193.75V123.624C194.23 124.456 195.222 125.144 196.582 125.144ZM196.454 124.04C194.822 124.04 193.702 123.032 193.702 120.888V120.76C193.702 118.616 194.886 117.592 196.438 117.592C197.846 117.592 199.014 118.648 199.014 120.76V120.888C199.014 122.92 198.118 124.04 196.454 124.04ZM205.925 125.144C208.309 125.144 210.053 123.4 210.053 120.872V120.744C210.053 118.232 208.309 116.488 205.941 116.488C203.573 116.488 201.829 118.248 201.829 120.76V120.888C201.829 123.336 203.541 125.144 205.925 125.144ZM205.941 124.04C204.245 124.04 203.205 122.792 203.205 120.888V120.76C203.205 118.84 204.261 117.592 205.941 117.592C207.605 117.592 208.677 118.84 208.677 120.776V120.888C208.677 122.776 207.621 124.04 205.941 124.04ZM212.11 125H213.438V119.928C213.438 118.424 214.542 117.64 215.774 117.64C217.118 117.64 217.742 118.296 217.742 119.768V125H219.07V119.864C219.07 117.432 217.854 116.488 216.126 116.488C214.75 116.488 213.822 117.176 213.438 117.96V116.632H212.11V125ZM225.907 125H227.235V119.88C227.235 118.376 228.355 117.64 229.443 117.64C230.595 117.64 231.219 118.248 231.219 119.72V125H232.547V119.88C232.547 118.376 233.667 117.64 234.755 117.64C235.907 117.64 236.531 118.248 236.531 119.72V125H237.859V119.816C237.859 117.384 236.547 116.488 235.043 116.488C234.003 116.488 232.755 116.968 232.179 118.056C231.747 116.936 230.803 116.488 229.731 116.488C228.531 116.488 227.619 117.128 227.235 117.912V116.632H225.907V125ZM242.565 125.144C243.797 125.144 244.549 124.728 245.173 123.944V125H246.501V119.48C246.501 117.144 245.045 116.488 243.445 116.488C241.829 116.488 240.309 117.192 240.133 119.096H241.461C241.589 118.072 242.229 117.592 243.381 117.592C244.661 117.592 245.173 118.152 245.173 119.48V120.088H243.973C241.829 120.088 239.781 120.744 239.781 122.68C239.781 124.392 241.013 125.144 242.565 125.144ZM242.693 124.088C241.525 124.088 241.109 123.544 241.109 122.68C241.109 121.448 242.341 121.032 244.021 121.032H245.173V122.072C245.173 123.368 244.101 124.088 242.693 124.088ZM249.11 125H250.438V120.408C250.438 118.344 251.51 117.816 253.19 117.736V116.488C251.686 116.536 250.966 117.192 250.438 118.136V116.632H249.11V125ZM257.639 125.144C259.671 125.144 260.711 124.12 260.711 122.6C260.711 120.824 259.495 120.44 257.767 120.12C256.231 119.848 255.815 119.544 255.815 118.792C255.815 118.072 256.439 117.592 257.399 117.592C258.455 117.592 258.967 117.992 259.159 118.904H260.439C260.215 117.096 258.919 116.488 257.415 116.488C256.103 116.488 254.583 117.288 254.583 118.84C254.583 120.296 255.319 120.904 257.495 121.304C258.791 121.544 259.447 121.832 259.447 122.712C259.447 123.608 258.887 124.04 257.623 124.04C256.279 124.04 255.751 123.416 255.655 122.424H254.359C254.439 124.136 255.639 125.144 257.639 125.144ZM262.735 125H264.063V119.928C264.063 118.424 265.167 117.64 266.399 117.64C267.743 117.64 268.367 118.296 268.367 119.768V125H269.695V119.864C269.695 117.432 268.479 116.488 266.751 116.488C265.375 116.488 264.447 117.176 264.063 117.96V112.632H262.735V125ZM272.297 125H273.625V119.88C273.625 118.376 274.745 117.64 275.833 117.64C276.985 117.64 277.609 118.248 277.609 119.72V125H278.937V119.88C278.937 118.376 280.057 117.64 281.145 117.64C282.297 117.64 282.921 118.248 282.921 119.72V125H284.249V119.816C284.249 117.384 282.937 116.488 281.433 116.488C280.393 116.488 279.145 116.968 278.569 118.056C278.137 116.936 277.193 116.488 276.121 116.488C274.921 116.488 274.009 117.128 273.625 117.912V116.632H272.297V125ZM288.956 125.144C290.188 125.144 290.94 124.728 291.564 123.944V125H292.892V119.48C292.892 117.144 291.436 116.488 289.836 116.488C288.22 116.488 286.7 117.192 286.524 119.096H287.852C287.98 118.072 288.62 117.592 289.772 117.592C291.052 117.592 291.564 118.152 291.564 119.48V120.088H290.364C288.22 120.088 286.172 120.744 286.172 122.68C286.172 124.392 287.404 125.144 288.956 125.144ZM289.084 124.088C287.916 124.088 287.5 123.544 287.5 122.68C287.5 121.448 288.732 121.032 290.412 121.032H291.564V122.072C291.564 123.368 290.492 124.088 289.084 124.088ZM295.532 125H296.876V112.632H295.532V125ZM299.626 125H300.97V112.632H299.626V125ZM307.16 125.144C309.544 125.144 311.288 123.4 311.288 120.872V120.744C311.288 118.232 309.544 116.488 307.176 116.488C304.808 116.488 303.064 118.248 303.064 120.76V120.888C303.064 123.336 304.776 125.144 307.16 125.144ZM307.176 124.04C305.48 124.04 304.44 122.792 304.44 120.888V120.76C304.44 118.84 305.496 117.592 307.176 117.592C308.84 117.592 309.912 118.84 309.912 120.776V120.888C309.912 122.776 308.856 124.04 307.176 124.04ZM314.868 125H316.324L318.276 118.728L320.02 125H321.492L324.1 116.632H322.74L320.772 123.368L318.868 116.632H317.716L315.684 123.368L313.732 116.632H312.292L314.868 125ZM325.678 125.08C326.238 125.08 326.702 124.632 326.702 124.056C326.702 123.48 326.238 123.032 325.678 123.032C325.118 123.032 324.654 123.48 324.654 124.056C324.654 124.632 325.118 125.08 325.678 125.08Z" fill="#0A0B0D"/>
<path d="M81.376 73H83.52V61.56H81.376V73ZM86.0583 73H87.9943V68.072C87.9943 66.744 88.8743 66.072 89.9623 66.072C91.1143 66.072 91.6263 66.648 91.6263 67.912V73H93.5623V67.736C93.5623 65.432 92.3783 64.456 90.6983 64.456C89.3223 64.456 88.3943 65.144 87.9943 65.96V64.632H86.0583V73ZM96.1286 73H98.0646V66.088H99.9686V64.632H98.0646V63.432C98.0646 62.712 98.3846 62.2 99.1686 62.2C99.5206 62.2 99.8246 62.264 100.049 62.344V60.84C99.6966 60.728 99.4086 60.68 98.9446 60.68C97.1526 60.68 96.1286 61.672 96.1286 63.512V64.632H94.9926V66.088H96.1286V73ZM104.958 73.16C107.422 73.16 109.262 71.464 109.262 68.856V68.728C109.262 66.168 107.422 64.456 104.974 64.456C102.51 64.456 100.67 66.184 100.67 68.776V68.904C100.67 71.448 102.494 73.16 104.958 73.16ZM104.974 71.656C103.502 71.656 102.654 70.584 102.654 68.872V68.744C102.654 67.016 103.534 65.976 104.974 65.976C106.414 65.976 107.278 67.032 107.278 68.76V68.872C107.278 70.584 106.414 71.656 104.974 71.656ZM111.011 73H112.947V68.648C112.947 66.872 113.971 66.328 115.667 66.312V64.504C114.259 64.52 113.475 65.144 112.947 66.2V64.632H111.011V73ZM117.371 73H119.307V67.992C119.307 66.712 120.187 66.072 121.147 66.072C122.091 66.072 122.635 66.6 122.635 67.832V73H124.571V67.992C124.571 66.712 125.451 66.072 126.411 66.072C127.371 66.072 127.899 66.6 127.899 67.832V73H129.835V67.704C129.835 65.4 128.587 64.456 127.051 64.456C126.011 64.456 124.859 64.92 124.219 65.96C123.803 64.92 122.939 64.456 121.851 64.456C120.619 64.456 119.707 65.128 119.307 65.912V64.632H117.371V73ZM134.25 73.16C135.53 73.16 136.266 72.696 136.81 71.976V73H138.714V67.512C138.714 65.224 137.242 64.456 135.37 64.456C133.498 64.456 131.946 65.272 131.786 67.224H133.658C133.754 66.392 134.25 65.912 135.258 65.912C136.394 65.912 136.778 66.472 136.778 67.592V68.024H135.738C133.338 68.024 131.45 68.728 131.45 70.68C131.45 72.424 132.714 73.16 134.25 73.16ZM134.714 71.768C133.754 71.768 133.37 71.304 133.37 70.6C133.37 69.576 134.314 69.24 135.786 69.24H136.778V70.072C136.778 71.144 135.898 71.768 134.714 71.768ZM143.766 73.144C144.358 73.144 144.774 73.048 145.078 72.936V71.4C144.806 71.512 144.518 71.56 144.134 71.56C143.526 71.56 143.174 71.224 143.174 70.488V66.088H145.014V64.632H143.174V62.792H141.238V64.632H140.118V66.088H141.238V70.664C141.238 72.248 142.102 73.144 143.766 73.144ZM147.816 63.256C148.456 63.256 148.968 62.776 148.968 62.152C148.968 61.512 148.456 61.032 147.816 61.032C147.176 61.032 146.664 61.512 146.664 62.152C146.664 62.776 147.176 63.256 147.816 63.256ZM146.872 73H148.808V64.632H146.872V73ZM154.896 73.16C157.36 73.16 159.2 71.464 159.2 68.856V68.728C159.2 66.168 157.36 64.456 154.912 64.456C152.448 64.456 150.608 66.184 150.608 68.776V68.904C150.608 71.448 152.432 73.16 154.896 73.16ZM154.912 71.656C153.44 71.656 152.592 70.584 152.592 68.872V68.744C152.592 67.016 153.472 65.976 154.912 65.976C156.352 65.976 157.216 67.032 157.216 68.76V68.872C157.216 70.584 156.352 71.656 154.912 71.656ZM160.949 73H162.885V68.072C162.885 66.744 163.765 66.072 164.853 66.072C166.005 66.072 166.517 66.648 166.517 67.912V73H168.453V67.736C168.453 65.432 167.269 64.456 165.589 64.456C164.213 64.456 163.285 65.144 162.885 65.96V64.632H160.949V73ZM174.656 73H176.784V68.136H181.92V73H184.064V61.56H181.92V66.424H176.784V61.56H174.656V73ZM190.145 73.16C192.289 73.16 193.713 72.2 193.985 70.44H192.113C191.969 71.256 191.361 71.72 190.193 71.72C188.753 71.72 187.953 70.824 187.889 69.24H194.017V68.68C194.017 65.688 192.145 64.456 190.065 64.456C187.681 64.456 185.905 66.184 185.905 68.776V68.904C185.905 71.544 187.681 73.16 190.145 73.16ZM187.921 67.944C188.113 66.648 188.897 65.864 190.065 65.864C191.265 65.864 192.001 66.504 192.097 67.944H187.921ZM198.016 73.16C199.296 73.16 200.032 72.696 200.576 71.976V73H202.48V67.512C202.48 65.224 201.008 64.456 199.136 64.456C197.264 64.456 195.712 65.272 195.552 67.224H197.424C197.52 66.392 198.016 65.912 199.024 65.912C200.16 65.912 200.544 66.472 200.544 67.592V68.024H199.504C197.104 68.024 195.216 68.728 195.216 70.68C195.216 72.424 196.48 73.16 198.016 73.16ZM198.48 71.768C197.52 71.768 197.136 71.304 197.136 70.6C197.136 69.576 198.08 69.24 199.552 69.24H200.544V70.072C200.544 71.144 199.664 71.768 198.48 71.768ZM207.835 73.16C209.067 73.16 210.139 72.424 210.587 71.592V73H212.523V60.76H210.587V65.912C210.123 65.08 209.275 64.456 207.915 64.456C205.739 64.456 204.155 66.152 204.155 68.824V68.952C204.155 71.672 205.739 73.16 207.835 73.16ZM208.315 71.624C207.067 71.624 206.139 70.744 206.139 68.904V68.776C206.139 66.968 206.971 65.976 208.395 65.976C209.803 65.976 210.651 66.888 210.651 68.728V68.856C210.651 70.728 209.659 71.624 208.315 71.624ZM214.872 73H216.808V60.76H214.872V73ZM220.16 63.256C220.8 63.256 221.312 62.776 221.312 62.152C221.312 61.512 220.8 61.032 220.16 61.032C219.52 61.032 219.008 61.512 219.008 62.152C219.008 62.776 219.52 63.256 220.16 63.256ZM219.216 73H221.152V64.632H219.216V73ZM223.511 73H225.447V68.072C225.447 66.744 226.327 66.072 227.415 66.072C228.567 66.072 229.079 66.648 229.079 67.912V73H231.015V67.736C231.015 65.432 229.831 64.456 228.151 64.456C226.775 64.456 225.847 65.144 225.447 65.96V64.632H223.511V73ZM236.926 73.16C239.07 73.16 240.494 72.2 240.766 70.44H238.894C238.75 71.256 238.142 71.72 236.974 71.72C235.534 71.72 234.734 70.824 234.67 69.24H240.798V68.68C240.798 65.688 238.926 64.456 236.846 64.456C234.462 64.456 232.686 66.184 232.686 68.776V68.904C232.686 71.544 234.462 73.16 236.926 73.16ZM234.702 67.944C234.894 66.648 235.678 65.864 236.846 65.864C238.046 65.864 238.782 66.504 238.878 67.944H234.702Z" fill="#071422"/>
<path d="M64 76C68.42 76 72 72.42 72 68C72 63.58 68.42 60 64 60C59.58 60 56 63.58 56 68C56 72.42 59.58 76 64 76ZM63 63.5H65V65.5H63V63.5ZM63 67H65V72.5H63V67Z" fill="#0052FF"/>
</g>
<defs>
<filter id="filter0_d" x="27" y="35" width="353" height="202" filterUnits="userSpaceOnUse" color-interpolation-filters="sRGB">
<feFlood flood-opacity="0" result="BackgroundImageFix"/>
<feColorMatrix in="SourceAlpha" type="matrix" values="0 0 0 0 0 0 0 0 0 0 0 0 0 0 0 0 0 0 127 0"/>
<feOffset dy="8"/>
<feGaussianBlur stdDeviation="6"/>
<feColorMatrix type="matrix" values="0 0 0 0 0.027451 0 0 0 0 0.0784314 0 0 0 0 0.133333 0 0 0 0.02 0"/>
<feBlend mode="normal" in2="BackgroundImageFix" result="effect1_dropShadow"/>
<feBlend mode="normal" in="SourceGraphic" in2="effect1_dropShadow" result="shape"/>
</filter>
</defs>
</svg>
