<svg width="1024" height="300" viewBox="0 0 1024 300" fill="none" xmlns="http://www.w3.org/2000/svg">
<path d="M224.5 108.04L234.287 138.197H266L240.339 156.803L250.161 186.959L224.5 168.319L198.839 186.959L208.661 156.803L183 138.197H214.713L224.5 108.04Z" fill="white"/>
<path d="M643.913 119.629C635.821 111.536 622.679 111.536 614.587 119.629L608.5 125.75L602.379 119.629C594.286 111.536 581.145 111.536 573.052 119.629C564.96 127.721 564.96 140.863 573.052 148.955L608.5 182.743L643.913 148.955C652.04 140.863 652.04 127.721 643.913 119.629Z" fill="white"/>
<path d="M458 114.917H375V121.833H458V114.917Z" fill="white"/>
<path d="M458 146.042H375V152.958H458V146.042Z" fill="white"/>
<path d="M458 177.167H375V184.083H458V177.167Z" fill="white"/>
<path d="M813.664 121.014L767.733 167.505L782.238 182.187L828.169 135.695L813.664 121.014Z" fill="white"/>
<path d="M832.983 130.848L839 124.758C841.667 122.058 841.667 117.698 839 114.999L834.214 110.016C831.547 107.317 827.239 107.317 824.573 110.016L818.487 116.176L832.983 130.848Z" fill="white"/>
<path d="M764.197 173.759L759 191.062L776.094 185.802L764.197 173.759Z" fill="white"/>
</svg>
