<svg width="425" height="125" viewBox="0 0 425 125" fill="none" xmlns="http://www.w3.org/2000/svg">
<g clip-path="url(#clip0)" filter="url(#filter0_d)">
<g filter="url(#filter1_d)">
<path fill-rule="evenodd" clip-rule="evenodd" d="M400 97V25H25V97H400Z" fill="white"/>
<path d="M25.5 25.5H399.5V96.5H25.5V25.5Z" stroke="#DEE1E7"/>
</g>
<path d="M137.5 50.5L142.2 43.5L145.75 48.5L151 41" stroke="black" stroke-width="2" stroke-linecap="square" stroke-linejoin="bevel"/>
<path d="M153.11 44.4188L152.208 39.3026L147.092 40.2047" stroke="black" stroke-width="2"/>
<rect x="351" y="37" width="6" height="16" stroke="black" stroke-width="2"/>
<rect x="341" y="37" width="6" height="5" stroke="black" stroke-width="2"/>
<rect x="341" y="46" width="6" height="7" stroke="black" stroke-width="2"/>
<path d="M78.1305 37.0009C78.0871 37.0003 78.0436 37 78 37C73.0294 37 69 41.0294 69 46C69 50.9706 73.0294 55 78 55C82.9706 55 87 50.9706 87 46C87 45.9565 86.9997 45.913 86.9991 45.8697H78.1305V37.0009Z" fill="#0052FF"/>
<path d="M88.995 44.0001H80V35.0051C80.0996 35.0017 80.1996 35 80.2999 35C85.1049 35 89 38.8952 89 43.7001C89 43.8005 88.9983 43.9005 88.995 44.0001Z" fill="#0052FF"/>
<circle cx="278.5" cy="45.5" r="6.5" stroke="black" stroke-width="2"/>
<mask id="path-11-inside-1" fill="white">
<path fill-rule="evenodd" clip-rule="evenodd" d="M286 52.5732C288.913 51.5436 291 48.7655 291 45.5C291 42.2344 288.913 39.4563 286 38.4268V40.5997C287.781 41.5101 289 43.3627 289 45.5C289 47.6373 287.781 49.4899 286 50.4003V52.5732Z"/>
</mask>
<path d="M286 52.5732H285V53.9873L286.333 53.5161L286 52.5732ZM286 38.4268L286.333 37.4839L285 37.0127V38.4268H286ZM286 40.5997H285V41.2116L285.545 41.4901L286 40.5997ZM286 50.4003L285.545 49.5099L285 49.7884V50.4003H286ZM286.333 53.5161C289.633 52.3497 292 49.2025 292 45.5H290C290 48.3286 288.193 50.7376 285.667 51.6304L286.333 53.5161ZM292 45.5C292 41.7975 289.633 38.6503 286.333 37.4839L285.667 39.3696C288.193 40.2624 290 42.6714 290 45.5H292ZM285 38.4268V40.5997H287V38.4268H285ZM290 45.5C290 42.9726 288.557 40.7839 286.455 39.7093L285.545 41.4901C287.004 42.2362 288 43.7527 288 45.5H290ZM286.455 51.2907C288.557 50.2161 290 48.0274 290 45.5H288C288 47.2473 287.004 48.7638 285.545 49.5099L286.455 51.2907ZM285 50.4003V52.5732H287V50.4003H285Z" fill="black" mask="url(#path-11-inside-1)"/>
<path d="M57.4245 69H58.7545V66.28H59.7545C61.2845 66.28 62.3745 65.61 62.3745 64.1V64.06C62.3745 62.56 61.3245 61.85 59.7245 61.85H57.4245V69ZM58.7545 65.32V62.88H59.7245C60.5745 62.88 61.0745 63.21 61.0745 64.06V64.1C61.0745 64.89 60.6045 65.32 59.7245 65.32H58.7545ZM65.592 69.1C67.132 69.1 68.282 68.04 68.282 66.41V66.33C68.282 64.73 67.132 63.66 65.602 63.66C64.062 63.66 62.912 64.74 62.912 66.36V66.44C62.912 68.03 64.052 69.1 65.592 69.1ZM65.602 68.16C64.682 68.16 64.152 67.49 64.152 66.42V66.34C64.152 65.26 64.702 64.61 65.602 64.61C66.502 64.61 67.042 65.27 67.042 66.35V66.42C67.042 67.49 66.502 68.16 65.602 68.16ZM69.3753 69H70.5853V66.28C70.5853 65.17 71.2253 64.83 72.2853 64.82V63.69C71.4053 63.7 70.9153 64.09 70.5853 64.75V63.77H69.3753V69ZM75.1885 69.09C75.5585 69.09 75.8185 69.03 76.0085 68.96V68C75.8385 68.07 75.6585 68.1 75.4185 68.1C75.0385 68.1 74.8185 67.89 74.8185 67.43V64.68H75.9685V63.77H74.8185V62.62H73.6085V63.77H72.9085V64.68H73.6085V67.54C73.6085 68.53 74.1485 69.09 75.1885 69.09ZM77.2708 69H78.4808V64.68H79.6708V63.77H78.4808V63.02C78.4808 62.57 78.6808 62.25 79.1708 62.25C79.3908 62.25 79.5808 62.29 79.7208 62.34V61.4C79.5008 61.33 79.3208 61.3 79.0308 61.3C77.9108 61.3 77.2708 61.92 77.2708 63.07V63.77H76.5608V64.68H77.2708V69ZM82.7893 69.1C84.3293 69.1 85.4793 68.04 85.4793 66.41V66.33C85.4793 64.73 84.3293 63.66 82.7993 63.66C81.2593 63.66 80.1093 64.74 80.1093 66.36V66.44C80.1093 68.03 81.2493 69.1 82.7893 69.1ZM82.7993 68.16C81.8793 68.16 81.3493 67.49 81.3493 66.42V66.34C81.3493 65.26 81.8993 64.61 82.7993 64.61C83.6993 64.61 84.2393 65.27 84.2393 66.35V66.42C84.2393 67.49 83.6993 68.16 82.7993 68.16ZM86.6025 69H87.8125V61.35H86.6025V69ZM89.9074 62.91C90.3074 62.91 90.6274 62.61 90.6274 62.22C90.6274 61.82 90.3074 61.52 89.9074 61.52C89.5074 61.52 89.1874 61.82 89.1874 62.22C89.1874 62.61 89.5074 62.91 89.9074 62.91ZM89.3174 69H90.5274V63.77H89.3174V69ZM94.3322 69.1C95.8722 69.1 97.0222 68.04 97.0222 66.41V66.33C97.0222 64.73 95.8722 63.66 94.3422 63.66C92.8022 63.66 91.6522 64.74 91.6522 66.36V66.44C91.6522 68.03 92.7922 69.1 94.3322 69.1ZM94.3422 68.16C93.4222 68.16 92.8922 67.49 92.8922 66.42V66.34C92.8922 65.26 93.4422 64.61 94.3422 64.61C95.2422 64.61 95.7822 65.27 95.7822 66.35V66.42C95.7822 67.49 95.2422 68.16 94.3422 68.16Z" fill="#0052FF"/>
<path d="M133.729 69H135.069V62.9H137.059V61.85H131.739V62.9H133.729V69ZM137.668 69H138.878V66.28C138.878 65.17 139.518 64.83 140.578 64.82V63.69C139.698 63.7 139.208 64.09 138.878 64.75V63.77H137.668V69ZM142.935 69.1C143.735 69.1 144.195 68.81 144.535 68.36V69H145.725V65.57C145.725 64.14 144.805 63.66 143.635 63.66C142.465 63.66 141.495 64.17 141.395 65.39H142.565C142.625 64.87 142.935 64.57 143.565 64.57C144.275 64.57 144.515 64.92 144.515 65.62V65.89H143.865C142.365 65.89 141.185 66.33 141.185 67.55C141.185 68.64 141.975 69.1 142.935 69.1ZM143.225 68.23C142.625 68.23 142.385 67.94 142.385 67.5C142.385 66.86 142.975 66.65 143.895 66.65H144.515V67.17C144.515 67.84 143.965 68.23 143.225 68.23ZM149.072 69.1C149.842 69.1 150.512 68.64 150.792 68.12V69H152.002V61.35H150.792V64.57C150.502 64.05 149.972 63.66 149.122 63.66C147.762 63.66 146.772 64.72 146.772 66.39V66.47C146.772 68.17 147.762 69.1 149.072 69.1ZM149.372 68.14C148.592 68.14 148.012 67.59 148.012 66.44V66.36C148.012 65.23 148.532 64.61 149.422 64.61C150.302 64.61 150.832 65.18 150.832 66.33V66.41C150.832 67.58 150.212 68.14 149.372 68.14ZM155.74 69.1C157.08 69.1 157.97 68.5 158.14 67.4H156.97C156.88 67.91 156.5 68.2 155.77 68.2C154.87 68.2 154.37 67.64 154.33 66.65H158.16V66.3C158.16 64.43 156.99 63.66 155.69 63.66C154.2 63.66 153.09 64.74 153.09 66.36V66.44C153.09 68.09 154.2 69.1 155.74 69.1ZM154.35 65.84C154.47 65.03 154.96 64.54 155.69 64.54C156.44 64.54 156.9 64.94 156.96 65.84H154.35Z" fill="#071422"/>
<g clip-path="url(#clip1)">
<rect width="40" height="40" transform="translate(193 36.1699)" fill="white"/>
<path d="M193 56.1699C193 45.1699 202 36.1699 213 36.1699C224 36.1699 233 45.1699 233 56.1699C233 67.1699 224 76.1699 213 76.1699C202 76.1699 193 67.1699 193 56.1699Z" fill="#1652F0"/>
<path d="M209 48L205 52L209 56" stroke="white" stroke-width="2"/>
<path d="M217 64L221 60L217 56" stroke="white" stroke-width="2"/>
<rect x="216" y="51" width="2" height="10" transform="rotate(90 216 51)" fill="white"/>
<rect x="210" y="61" width="2" height="10" transform="rotate(-90 210 61)" fill="white"/>
</g>
<path d="M273.363 69H274.693V66.28H275.693C277.223 66.28 278.313 65.61 278.313 64.1V64.06C278.313 62.56 277.263 61.85 275.663 61.85H273.363V69ZM274.693 65.32V62.88H275.663C276.513 62.88 277.013 63.21 277.013 64.06V64.1C277.013 64.89 276.543 65.32 275.663 65.32H274.693ZM280.629 69.1C281.429 69.1 281.889 68.81 282.229 68.36V69H283.419V65.57C283.419 64.14 282.499 63.66 281.329 63.66C280.159 63.66 279.189 64.17 279.089 65.39H280.259C280.319 64.87 280.629 64.57 281.259 64.57C281.969 64.57 282.209 64.92 282.209 65.62V65.89H281.559C280.059 65.89 278.879 66.33 278.879 67.55C278.879 68.64 279.669 69.1 280.629 69.1ZM280.919 68.23C280.319 68.23 280.079 67.94 280.079 67.5C280.079 66.86 280.669 66.65 281.589 66.65H282.209V67.17C282.209 67.84 281.659 68.23 280.919 68.23ZM285.23 70.79H286.42L289.27 63.77H288.09L286.81 67.14L285.42 63.77H284.11L286.18 68.47L285.23 70.79Z" fill="#071422"/>
<path d="M332.095 69H333.425V66.07H335.865V65.04H333.425V62.91H336.525V61.85H332.095V69ZM339.638 69.1C341.178 69.1 342.328 68.04 342.328 66.41V66.33C342.328 64.73 341.178 63.66 339.648 63.66C338.108 63.66 336.958 64.74 336.958 66.36V66.44C336.958 68.03 338.098 69.1 339.638 69.1ZM339.648 68.16C338.728 68.16 338.198 67.49 338.198 66.42V66.34C338.198 65.26 338.748 64.61 339.648 64.61C340.548 64.61 341.088 65.27 341.088 66.35V66.42C341.088 67.49 340.548 68.16 339.648 68.16ZM343.421 69H344.631V66.28C344.631 65.17 345.271 64.83 346.331 64.82V63.69C345.451 63.7 344.961 64.09 344.631 64.75V63.77H343.421V69ZM351.599 69H352.939V65.91L355.179 61.85H353.879L352.309 64.81L350.699 61.85H349.229L351.599 65.9V69ZM357.607 69.1C359.147 69.1 360.297 68.04 360.297 66.41V66.33C360.297 64.73 359.147 63.66 357.617 63.66C356.077 63.66 354.927 64.74 354.927 66.36V66.44C354.927 68.03 356.067 69.1 357.607 69.1ZM357.617 68.16C356.697 68.16 356.167 67.49 356.167 66.42V66.34C356.167 65.26 356.717 64.61 357.617 64.61C358.517 64.61 359.057 65.27 359.057 66.35V66.42C359.057 67.49 358.517 68.16 357.617 68.16ZM363.14 69.1C363.99 69.1 364.54 68.69 364.8 68.18V69H366.01V63.77H364.8V66.88C364.8 67.71 364.23 68.13 363.58 68.13C362.88 68.13 362.55 67.77 362.55 66.98V63.77H361.34V67.12C361.34 68.51 362.11 69.1 363.14 69.1Z" fill="black"/>
</g>
<defs>
<filter id="filter0_d" x="13" y="21" width="399" height="107" filterUnits="userSpaceOnUse" color-interpolation-filters="sRGB">
<feFlood flood-opacity="0" result="BackgroundImageFix"/>
<feColorMatrix in="SourceAlpha" type="matrix" values="0 0 0 0 0 0 0 0 0 0 0 0 0 0 0 0 0 0 127 0"/>
<feOffset dy="8"/>
<feGaussianBlur stdDeviation="6"/>
<feColorMatrix type="matrix" values="0 0 0 0 0.027451 0 0 0 0 0.0784314 0 0 0 0 0.133333 0 0 0 0.02 0"/>
<feBlend mode="normal" in2="BackgroundImageFix" result="effect1_dropShadow"/>
<feBlend mode="normal" in="SourceGraphic" in2="effect1_dropShadow" result="shape"/>
</filter>
<filter id="filter1_d" x="13" y="21" width="399" height="96" filterUnits="userSpaceOnUse" color-interpolation-filters="sRGB">
<feFlood flood-opacity="0" result="BackgroundImageFix"/>
<feColorMatrix in="SourceAlpha" type="matrix" values="0 0 0 0 0 0 0 0 0 0 0 0 0 0 0 0 0 0 127 0"/>
<feOffset dy="8"/>
<feGaussianBlur stdDeviation="6"/>
<feColorMatrix type="matrix" values="0 0 0 0 0.027451 0 0 0 0 0.0784314 0 0 0 0 0.133333 0 0 0 0.02 0"/>
<feBlend mode="normal" in2="BackgroundImageFix" result="effect1_dropShadow"/>
<feBlend mode="normal" in="SourceGraphic" in2="effect1_dropShadow" result="shape"/>
</filter>
<clipPath id="clip0">
<rect width="375" height="83" fill="white" transform="translate(25 25)"/>
</clipPath>
<clipPath id="clip1">
<rect width="40" height="40" fill="white" transform="translate(193 36.1699)"/>
</clipPath>
</defs>
</svg>
