<svg width="425" height="125" viewBox="0 0 425 125" fill="none" xmlns="http://www.w3.org/2000/svg">
<g filter="url(#filter0_ddd)">
<path fill-rule="evenodd" clip-rule="evenodd" d="M400 97V25H25V97H400Z" fill="#0A0B0D"/>
<g clip-path="url(#clip0)">
<path d="M135 64.0226L141.367 54.5402L146.176 61.3133L154 50.0001" stroke="white" stroke-width="2" stroke-linecap="square" stroke-linejoin="bevel"/>
<path d="M156.146 55.7849L154.924 48.8543L147.993 50.0763" stroke="white" stroke-width="2"/>
</g>
<rect x="351" y="47" width="7" height="18" stroke="white" stroke-width="2"/>
<rect x="340" y="47" width="7" height="5" stroke="white" stroke-width="2"/>
<rect x="340" y="56" width="7" height="9" stroke="white" stroke-width="2"/>
<path fill-rule="evenodd" clip-rule="evenodd" d="M81.125 54.875V44C87.125 44 92 48.875 92 54.875H81.125ZM68 57.125C68 51.125 72.875 46.25 78.875 46.25V57.125H89.75C89.75 63.125 84.875 68 78.875 68C72.875 68 68 63.125 68 57.125Z" fill="#588AF5"/>
<circle cx="278" cy="57" r="8" stroke="white" stroke-width="2"/>
<path fill-rule="evenodd" clip-rule="evenodd" d="M287 65.4883C290.496 64.2528 293 60.9191 293 57.0004C293 53.0817 290.496 49.748 287 48.5125V50.674C289.365 51.7975 291 54.208 291 57.0004C291 59.7928 289.365 62.2033 287 63.3268V65.4883Z" fill="white"/>
<g clip-path="url(#clip1)">
<path d="M193 56.1699C193 45.1699 202 36.1699 213 36.1699C224 36.1699 233 45.1699 233 56.1699C233 67.1699 224 76.1699 213 76.1699C202 76.1699 193 67.1699 193 56.1699Z" fill="#588AF5"/>
<path d="M209 48L205 52L209 56" stroke="#0A0B0D" stroke-width="2"/>
<path d="M217 64L221 60L217 56" stroke="#0A0B0D" stroke-width="2"/>
<rect x="216" y="51" width="2" height="10" transform="rotate(90 216 51)" fill="#0A0B0D"/>
<rect x="210" y="61" width="2" height="10" transform="rotate(-90 210 61)" fill="#0A0B0D"/>
</g>
</g>
<defs>
<filter id="filter0_ddd" x="20" y="21" width="385" height="93" filterUnits="userSpaceOnUse" color-interpolation-filters="sRGB">
<feFlood flood-opacity="0" result="BackgroundImageFix"/>
<feColorMatrix in="SourceAlpha" type="matrix" values="0 0 0 0 0 0 0 0 0 0 0 0 0 0 0 0 0 0 127 0"/>
<feOffset dy="1"/>
<feGaussianBlur stdDeviation="2.5"/>
<feColorMatrix type="matrix" values="0 0 0 0 0 0 0 0 0 0 0 0 0 0 0 0 0 0 0.2 0"/>
<feBlend mode="normal" in2="BackgroundImageFix" result="effect1_dropShadow"/>
<feColorMatrix in="SourceAlpha" type="matrix" values="0 0 0 0 0 0 0 0 0 0 0 0 0 0 0 0 0 0 127 0"/>
<feOffset dy="3"/>
<feGaussianBlur stdDeviation="0.5"/>
<feColorMatrix type="matrix" values="0 0 0 0 0 0 0 0 0 0 0 0 0 0 0 0 0 0 0.12 0"/>
<feBlend mode="normal" in2="effect1_dropShadow" result="effect2_dropShadow"/>
<feColorMatrix in="SourceAlpha" type="matrix" values="0 0 0 0 0 0 0 0 0 0 0 0 0 0 0 0 0 0 127 0"/>
<feOffset dy="2"/>
<feGaussianBlur stdDeviation="1"/>
<feColorMatrix type="matrix" values="0 0 0 0 0 0 0 0 0 0 0 0 0 0 0 0 0 0 0.14 0"/>
<feBlend mode="normal" in2="effect2_dropShadow" result="effect3_dropShadow"/>
<feBlend mode="normal" in="SourceGraphic" in2="effect3_dropShadow" result="shape"/>
</filter>
<clipPath id="clip0">
<rect width="24" height="24" fill="white" transform="translate(133 44)"/>
</clipPath>
<clipPath id="clip1">
<rect width="40" height="40" fill="white" transform="translate(193 36.1699)"/>
</clipPath>
</defs>
</svg>
