<svg width="407" height="287" viewBox="0 0 407 287" fill="none" xmlns="http://www.w3.org/2000/svg">
<g filter="url(#filter0_ddd)">
<rect x="36" y="40" width="335" height="207" rx="8" fill="#141519"/>
<rect x="35.5" y="39.5" width="336" height="208" rx="8.5" stroke="#8A919E" stroke-opacity="0.2"/>
</g>
<path d="M109.566 81H115.26V79.622H111.295V71.705H109.566V81ZM119.459 81.13C121.201 81.13 122.358 80.35 122.579 78.92H121.058C120.941 79.583 120.447 79.96 119.498 79.96C118.328 79.96 117.678 79.232 117.626 77.945H122.605V77.49C122.605 75.059 121.084 74.058 119.394 74.058C117.457 74.058 116.014 75.462 116.014 77.568V77.672C116.014 79.817 117.457 81.13 119.459 81.13ZM117.652 76.892C117.808 75.839 118.445 75.202 119.394 75.202C120.369 75.202 120.967 75.722 121.045 76.892H117.652ZM124.01 81H125.583V76.931C125.583 75.891 126.298 75.371 127.078 75.371C127.845 75.371 128.287 75.8 128.287 76.801V81H129.86V76.931C129.86 75.891 130.575 75.371 131.355 75.371C132.135 75.371 132.564 75.8 132.564 76.801V81H134.137V76.697C134.137 74.825 133.123 74.058 131.875 74.058C131.03 74.058 130.094 74.435 129.574 75.28C129.236 74.435 128.534 74.058 127.65 74.058C126.649 74.058 125.908 74.604 125.583 75.241V74.201H124.01V81ZM138.973 81.13C140.975 81.13 142.47 79.752 142.47 77.633V77.529C142.47 75.449 140.975 74.058 138.986 74.058C136.984 74.058 135.489 75.462 135.489 77.568V77.672C135.489 79.739 136.971 81.13 138.973 81.13ZM138.986 79.908C137.79 79.908 137.101 79.037 137.101 77.646V77.542C137.101 76.138 137.816 75.293 138.986 75.293C140.156 75.293 140.858 76.151 140.858 77.555V77.646C140.858 79.037 140.156 79.908 138.986 79.908ZM143.891 81H145.464V76.996C145.464 75.917 146.179 75.371 147.063 75.371C147.999 75.371 148.415 75.839 148.415 76.866V81H149.988V76.723C149.988 74.851 149.026 74.058 147.661 74.058C146.543 74.058 145.789 74.617 145.464 75.28V74.201H143.891V81ZM157.446 81.13C158.447 81.13 159.318 80.532 159.682 79.856V81H161.255V71.055H159.682V75.241C159.305 74.565 158.616 74.058 157.511 74.058C155.743 74.058 154.456 75.436 154.456 77.607V77.711C154.456 79.921 155.743 81.13 157.446 81.13ZM157.836 79.882C156.822 79.882 156.068 79.167 156.068 77.672V77.568C156.068 76.099 156.744 75.293 157.901 75.293C159.045 75.293 159.734 76.034 159.734 77.529V77.633C159.734 79.154 158.928 79.882 157.836 79.882ZM163.124 81H164.697V77.464C164.697 76.021 165.529 75.579 166.907 75.566V74.097C165.763 74.11 165.126 74.617 164.697 75.475V74.201H163.124V81ZM171.181 81.13C173.183 81.13 174.678 79.752 174.678 77.633V77.529C174.678 75.449 173.183 74.058 171.194 74.058C169.192 74.058 167.697 75.462 167.697 77.568V77.672C167.697 79.739 169.179 81.13 171.181 81.13ZM171.194 79.908C169.998 79.908 169.309 79.037 169.309 77.646V77.542C169.309 76.138 170.024 75.293 171.194 75.293C172.364 75.293 173.066 76.151 173.066 77.555V77.646C173.066 79.037 172.364 79.908 171.194 79.908ZM176.099 83.327H177.672V79.934C178.036 80.597 178.816 81.13 179.895 81.13C181.65 81.13 182.911 79.804 182.911 77.62V77.516C182.911 75.319 181.598 74.058 179.895 74.058C178.894 74.058 178.049 74.643 177.672 75.293V74.201H176.099V83.327ZM179.505 79.882C178.361 79.882 177.62 79.167 177.62 77.646V77.542C177.62 76.034 178.4 75.293 179.492 75.293C180.519 75.293 181.299 76.034 181.299 77.542V77.646C181.299 79.102 180.662 79.882 179.505 79.882ZM186.665 81.13C188.407 81.13 189.382 80.337 189.382 78.959C189.382 77.516 188.433 77.126 186.834 76.879C185.755 76.697 185.43 76.502 185.43 76.008C185.43 75.527 185.833 75.202 186.509 75.202C187.237 75.202 187.588 75.488 187.718 76.112H189.174C189.005 74.578 187.9 74.058 186.509 74.058C185.235 74.058 183.961 74.734 183.961 76.099C183.961 77.373 184.624 77.88 186.418 78.166C187.419 78.335 187.874 78.543 187.874 79.102C187.874 79.674 187.497 79.973 186.652 79.973C185.729 79.973 185.378 79.57 185.3 78.881H183.818C183.883 80.324 184.91 81.13 186.665 81.13ZM197.656 81.13C199.411 81.13 200.672 79.804 200.672 77.62V77.516C200.672 75.319 199.359 74.058 197.656 74.058C196.655 74.058 195.81 74.643 195.433 75.293V71.055H193.86V81H195.433V79.908C195.797 80.597 196.577 81.13 197.656 81.13ZM197.266 79.882C196.122 79.882 195.381 79.167 195.381 77.646V77.542C195.381 76.034 196.161 75.293 197.253 75.293C198.28 75.293 199.06 76.034 199.06 77.542V77.646C199.06 79.102 198.423 79.882 197.266 79.882ZM202.086 81H203.659V77.464C203.659 76.021 204.491 75.579 205.869 75.566V74.097C204.725 74.11 204.088 74.617 203.659 75.475V74.201H202.086V81ZM210.143 81.13C212.145 81.13 213.64 79.752 213.64 77.633V77.529C213.64 75.449 212.145 74.058 210.156 74.058C208.154 74.058 206.659 75.462 206.659 77.568V77.672C206.659 79.739 208.141 81.13 210.143 81.13ZM210.156 79.908C208.96 79.908 208.271 79.037 208.271 77.646V77.542C208.271 76.138 208.986 75.293 210.156 75.293C211.326 75.293 212.028 76.151 212.028 77.555V77.646C212.028 79.037 211.326 79.908 210.156 79.908ZM216.3 81H217.912L219.29 76.424L220.551 81H222.15L224.282 74.201H222.748L221.331 79.115L220.005 74.201H218.692L217.249 79.115L215.897 74.201H214.22L216.3 81ZM225.484 81H227.057V76.996C227.057 75.917 227.772 75.371 228.656 75.371C229.592 75.371 230.008 75.839 230.008 76.866V81H231.581V76.723C231.581 74.851 230.619 74.058 229.254 74.058C228.136 74.058 227.382 74.617 227.057 75.28V74.201H225.484V81ZM234.199 73.083C234.719 73.083 235.135 72.693 235.135 72.186C235.135 71.666 234.719 71.276 234.199 71.276C233.679 71.276 233.263 71.666 233.263 72.186C233.263 72.693 233.679 73.083 234.199 73.083ZM233.432 81H235.005V74.201H233.432V81ZM239.912 81.13C241.654 81.13 242.811 80.35 243.032 78.92H241.511C241.394 79.583 240.9 79.96 239.951 79.96C238.781 79.96 238.131 79.232 238.079 77.945H243.058V77.49C243.058 75.059 241.537 74.058 239.847 74.058C237.91 74.058 236.467 75.462 236.467 77.568V77.672C236.467 79.817 237.91 81.13 239.912 81.13ZM238.105 76.892C238.261 75.839 238.898 75.202 239.847 75.202C240.822 75.202 241.42 75.722 241.498 76.892H238.105ZM250.538 81.13C252.384 81.13 253.567 80.025 253.684 78.465H252.241C252.15 79.427 251.435 79.921 250.603 79.921C249.446 79.921 248.718 79.141 248.718 77.659V77.555C248.718 76.151 249.485 75.319 250.564 75.319C251.396 75.319 251.994 75.696 252.124 76.606H253.645C253.463 74.734 252.046 74.058 250.538 74.058C248.64 74.058 247.106 75.423 247.106 77.581V77.685C247.106 79.856 248.588 81.13 250.538 81.13ZM255.039 81H256.612V76.996C256.612 75.917 257.327 75.371 258.211 75.371C259.147 75.371 259.563 75.839 259.563 76.866V81H261.136V76.723C261.136 74.851 260.174 74.058 258.809 74.058C257.691 74.058 256.937 74.617 256.612 75.28V71.055H255.039V81ZM265.977 81.13C267.979 81.13 269.474 79.752 269.474 77.633V77.529C269.474 75.449 267.979 74.058 265.99 74.058C263.988 74.058 262.493 75.462 262.493 77.568V77.672C262.493 79.739 263.975 81.13 265.977 81.13ZM265.99 79.908C264.794 79.908 264.105 79.037 264.105 77.646V77.542C264.105 76.138 264.82 75.293 265.99 75.293C267.16 75.293 267.862 76.151 267.862 77.555V77.646C267.862 79.037 267.16 79.908 265.99 79.908ZM273.872 81.13C275.718 81.13 276.901 80.025 277.018 78.465H275.575C275.484 79.427 274.769 79.921 273.937 79.921C272.78 79.921 272.052 79.141 272.052 77.659V77.555C272.052 76.151 272.819 75.319 273.898 75.319C274.73 75.319 275.328 75.696 275.458 76.606H276.979C276.797 74.734 275.38 74.058 273.872 74.058C271.974 74.058 270.44 75.423 270.44 77.581V77.685C270.44 79.856 271.922 81.13 273.872 81.13ZM281.402 81.13C283.404 81.13 284.899 79.752 284.899 77.633V77.529C284.899 75.449 283.404 74.058 281.415 74.058C279.413 74.058 277.918 75.462 277.918 77.568V77.672C277.918 79.739 279.4 81.13 281.402 81.13ZM281.415 79.908C280.219 79.908 279.53 79.037 279.53 77.646V77.542C279.53 76.138 280.245 75.293 281.415 75.293C282.585 75.293 283.287 76.151 283.287 77.555V77.646C283.287 79.037 282.585 79.908 281.415 79.908ZM286.359 81H287.932V71.055H286.359V81ZM291.63 81.13C292.67 81.13 293.268 80.753 293.71 80.168V81H295.257V76.541C295.257 74.682 294.061 74.058 292.54 74.058C291.019 74.058 289.758 74.721 289.628 76.307H291.149C291.227 75.631 291.63 75.241 292.449 75.241C293.372 75.241 293.684 75.696 293.684 76.606V76.957H292.839C290.889 76.957 289.355 77.529 289.355 79.115C289.355 80.532 290.382 81.13 291.63 81.13ZM292.007 79.999C291.227 79.999 290.915 79.622 290.915 79.05C290.915 78.218 291.682 77.945 292.878 77.945H293.684V78.621C293.684 79.492 292.969 79.999 292.007 79.999ZM299.361 81.117C299.842 81.117 300.18 81.039 300.427 80.948V79.7C300.206 79.791 299.972 79.83 299.66 79.83C299.166 79.83 298.88 79.557 298.88 78.959V75.384H300.375V74.201H298.88V72.706H297.307V74.201H296.397V75.384H297.307V79.102C297.307 80.389 298.009 81.117 299.361 81.117ZM304.836 81.13C306.578 81.13 307.735 80.35 307.956 78.92H306.435C306.318 79.583 305.824 79.96 304.875 79.96C303.705 79.96 303.055 79.232 303.003 77.945H307.982V77.49C307.982 75.059 306.461 74.058 304.771 74.058C302.834 74.058 301.391 75.462 301.391 77.568V77.672C301.391 79.817 302.834 81.13 304.836 81.13ZM303.029 76.892C303.185 75.839 303.822 75.202 304.771 75.202C305.746 75.202 306.344 75.722 306.422 76.892H303.029ZM109.475 97H111.048V87.055H109.475V97ZM115.955 97.13C117.697 97.13 118.854 96.35 119.075 94.92H117.554C117.437 95.583 116.943 95.96 115.994 95.96C114.824 95.96 114.174 95.232 114.122 93.945H119.101V93.49C119.101 91.059 117.58 90.058 115.89 90.058C113.953 90.058 112.51 91.462 112.51 93.568V93.672C112.51 95.817 113.953 97.13 115.955 97.13ZM114.148 92.892C114.304 91.839 114.941 91.202 115.89 91.202C116.865 91.202 117.463 91.722 117.541 92.892H114.148ZM120.506 97H122.079V92.931C122.079 91.891 122.794 91.371 123.574 91.371C124.341 91.371 124.783 91.8 124.783 92.801V97H126.356V92.931C126.356 91.891 127.071 91.371 127.851 91.371C128.631 91.371 129.06 91.8 129.06 92.801V97H130.633V92.697C130.633 90.825 129.619 90.058 128.371 90.058C127.526 90.058 126.59 90.435 126.07 91.28C125.732 90.435 125.03 90.058 124.146 90.058C123.145 90.058 122.404 90.604 122.079 91.241V90.201H120.506V97ZM135.469 97.13C137.471 97.13 138.966 95.752 138.966 93.633V93.529C138.966 91.449 137.471 90.058 135.482 90.058C133.48 90.058 131.985 91.462 131.985 93.568V93.672C131.985 95.739 133.467 97.13 135.469 97.13ZM135.482 95.908C134.286 95.908 133.597 95.037 133.597 93.646V93.542C133.597 92.138 134.312 91.293 135.482 91.293C136.652 91.293 137.354 92.151 137.354 93.555V93.646C137.354 95.037 136.652 95.908 135.482 95.908ZM140.387 97H141.96V92.996C141.96 91.917 142.675 91.371 143.559 91.371C144.495 91.371 144.911 91.839 144.911 92.866V97H146.484V92.723C146.484 90.851 145.522 90.058 144.157 90.058C143.039 90.058 142.285 90.617 141.96 91.28V90.201H140.387V97ZM153.942 97.13C154.943 97.13 155.814 96.532 156.178 95.856V97H157.751V87.055H156.178V91.241C155.801 90.565 155.112 90.058 154.007 90.058C152.239 90.058 150.952 91.436 150.952 93.607V93.711C150.952 95.921 152.239 97.13 153.942 97.13ZM154.332 95.882C153.318 95.882 152.564 95.167 152.564 93.672V93.568C152.564 92.099 153.24 91.293 154.397 91.293C155.541 91.293 156.23 92.034 156.23 93.529V93.633C156.23 95.154 155.424 95.882 154.332 95.882ZM159.621 97H161.194V93.464C161.194 92.021 162.026 91.579 163.404 91.566V90.097C162.26 90.11 161.623 90.617 161.194 91.475V90.201H159.621V97ZM167.677 97.13C169.679 97.13 171.174 95.752 171.174 93.633V93.529C171.174 91.449 169.679 90.058 167.69 90.058C165.688 90.058 164.193 91.462 164.193 93.568V93.672C164.193 95.739 165.675 97.13 167.677 97.13ZM167.69 95.908C166.494 95.908 165.805 95.037 165.805 93.646V93.542C165.805 92.138 166.52 91.293 167.69 91.293C168.86 91.293 169.562 92.151 169.562 93.555V93.646C169.562 95.037 168.86 95.908 167.69 95.908ZM172.595 99.327H174.168V95.934C174.532 96.597 175.312 97.13 176.391 97.13C178.146 97.13 179.407 95.804 179.407 93.62V93.516C179.407 91.319 178.094 90.058 176.391 90.058C175.39 90.058 174.545 90.643 174.168 91.293V90.201H172.595V99.327ZM176.001 95.882C174.857 95.882 174.116 95.167 174.116 93.646V93.542C174.116 92.034 174.896 91.293 175.988 91.293C177.015 91.293 177.795 92.034 177.795 93.542V93.646C177.795 95.102 177.158 95.882 176.001 95.882ZM183.161 97.13C184.903 97.13 185.878 96.337 185.878 94.959C185.878 93.516 184.929 93.126 183.33 92.879C182.251 92.697 181.926 92.502 181.926 92.008C181.926 91.527 182.329 91.202 183.005 91.202C183.733 91.202 184.084 91.488 184.214 92.112H185.67C185.501 90.578 184.396 90.058 183.005 90.058C181.731 90.058 180.457 90.734 180.457 92.099C180.457 93.373 181.12 93.88 182.914 94.166C183.915 94.335 184.37 94.543 184.37 95.102C184.37 95.674 183.993 95.973 183.148 95.973C182.225 95.973 181.874 95.57 181.796 94.881H180.314C180.379 96.324 181.406 97.13 183.161 97.13Z" fill="white"/>
<path d="M113.635 137.13C115.845 137.13 117.431 135.999 117.704 133.763H116.014C115.832 135.076 114.922 135.726 113.635 135.726C111.919 135.726 110.918 134.491 110.918 132.398V132.294C110.918 130.214 111.984 128.94 113.622 128.94C114.961 128.94 115.65 129.577 115.845 130.812H117.6C117.392 128.628 115.741 127.562 113.609 127.562C111.022 127.562 109.098 129.512 109.098 132.307V132.411C109.098 135.271 110.723 137.13 113.635 137.13ZM120.942 137.13C121.982 137.13 122.58 136.753 123.022 136.168V137H124.569V132.541C124.569 130.682 123.373 130.058 121.852 130.058C120.331 130.058 119.07 130.721 118.94 132.307H120.461C120.539 131.631 120.942 131.241 121.761 131.241C122.684 131.241 122.996 131.696 122.996 132.606V132.957H122.151C120.201 132.957 118.667 133.529 118.667 135.115C118.667 136.532 119.694 137.13 120.942 137.13ZM121.319 135.999C120.539 135.999 120.227 135.622 120.227 135.05C120.227 134.218 120.994 133.945 122.19 133.945H122.996V134.621C122.996 135.492 122.281 135.999 121.319 135.999ZM126.372 137H127.945V133.464C127.945 132.021 128.777 131.579 130.155 131.566V130.097C129.011 130.11 128.374 130.617 127.945 131.475V130.201H126.372V137ZM133.218 137.13C134.258 137.13 134.856 136.753 135.298 136.168V137H136.845V132.541C136.845 130.682 135.649 130.058 134.128 130.058C132.607 130.058 131.346 130.721 131.216 132.307H132.737C132.815 131.631 133.218 131.241 134.037 131.241C134.96 131.241 135.272 131.696 135.272 132.606V132.957H134.427C132.477 132.957 130.943 133.529 130.943 135.115C130.943 136.532 131.97 137.13 133.218 137.13ZM133.595 135.999C132.815 135.999 132.503 135.622 132.503 135.05C132.503 134.218 133.27 133.945 134.466 133.945H135.272V134.621C135.272 135.492 134.557 135.999 133.595 135.999ZM138.648 137H140.221V132.931C140.221 131.891 140.936 131.371 141.716 131.371C142.483 131.371 142.925 131.8 142.925 132.801V137H144.498V132.931C144.498 131.891 145.213 131.371 145.993 131.371C146.773 131.371 147.202 131.8 147.202 132.801V137H148.775V132.697C148.775 130.825 147.761 130.058 146.513 130.058C145.668 130.058 144.732 130.435 144.212 131.28C143.874 130.435 143.172 130.058 142.288 130.058C141.287 130.058 140.546 130.604 140.221 131.241V130.201H138.648V137ZM153.572 137.13C155.314 137.13 156.471 136.35 156.692 134.92H155.171C155.054 135.583 154.56 135.96 153.611 135.96C152.441 135.96 151.791 135.232 151.739 133.945H156.718V133.49C156.718 131.059 155.197 130.058 153.507 130.058C151.57 130.058 150.127 131.462 150.127 133.568V133.672C150.127 135.817 151.57 137.13 153.572 137.13ZM151.765 132.892C151.921 131.839 152.558 131.202 153.507 131.202C154.482 131.202 155.08 131.722 155.158 132.892H151.765ZM158.162 137H159.735V127.055H158.162V137ZM163.979 137.13C165.721 137.13 166.696 136.337 166.696 134.959C166.696 133.516 165.747 133.126 164.148 132.879C163.069 132.697 162.744 132.502 162.744 132.008C162.744 131.527 163.147 131.202 163.823 131.202C164.551 131.202 164.902 131.488 165.032 132.112H166.488C166.319 130.578 165.214 130.058 163.823 130.058C162.549 130.058 161.275 130.734 161.275 132.099C161.275 133.373 161.938 133.88 163.732 134.166C164.733 134.335 165.188 134.543 165.188 135.102C165.188 135.674 164.811 135.973 163.966 135.973C163.043 135.973 162.692 135.57 162.614 134.881H161.132C161.197 136.324 162.224 137.13 163.979 137.13ZM171.979 129.083C172.499 129.083 172.915 128.693 172.915 128.186C172.915 127.666 172.499 127.276 171.979 127.276C171.459 127.276 171.043 127.666 171.043 128.186C171.043 128.693 171.459 129.083 171.979 129.083ZM170.276 139.444C172.161 139.418 172.785 138.612 172.785 137.234V130.201H171.212V137.273C171.212 137.845 170.965 138.183 170.276 138.235V139.444ZM177.693 137.13C179.435 137.13 180.592 136.35 180.813 134.92H179.292C179.175 135.583 178.681 135.96 177.732 135.96C176.562 135.96 175.912 135.232 175.86 133.945H180.839V133.49C180.839 131.059 179.318 130.058 177.628 130.058C175.691 130.058 174.248 131.462 174.248 133.568V133.672C174.248 135.817 175.691 137.13 177.693 137.13ZM175.886 132.892C176.042 131.839 176.679 131.202 177.628 131.202C178.603 131.202 179.201 131.722 179.279 132.892H175.886ZM182.283 137H183.856V127.055H182.283V137ZM185.812 137H187.385V127.055H185.812V137ZM190.056 139.327H191.603L195.308 130.201H193.774L192.11 134.582L190.303 130.201H188.6L191.291 136.311L190.056 139.327ZM203.381 137.13C205.136 137.13 206.397 135.804 206.397 133.62V133.516C206.397 131.319 205.084 130.058 203.381 130.058C202.38 130.058 201.535 130.643 201.158 131.293V127.055H199.585V137H201.158V135.908C201.522 136.597 202.302 137.13 203.381 137.13ZM202.991 135.882C201.847 135.882 201.106 135.167 201.106 133.646V133.542C201.106 132.034 201.886 131.293 202.978 131.293C204.005 131.293 204.785 132.034 204.785 133.542V133.646C204.785 135.102 204.148 135.882 202.991 135.882ZM210.802 137.13C212.544 137.13 213.701 136.35 213.922 134.92H212.401C212.284 135.583 211.79 135.96 210.841 135.96C209.671 135.96 209.021 135.232 208.969 133.945H213.948V133.49C213.948 131.059 212.427 130.058 210.737 130.058C208.8 130.058 207.357 131.462 207.357 133.568V133.672C207.357 135.817 208.8 137.13 210.802 137.13ZM208.995 132.892C209.151 131.839 209.788 131.202 210.737 131.202C211.712 131.202 212.31 131.722 212.388 132.892H208.995ZM217.197 137.13C218.237 137.13 218.835 136.753 219.277 136.168V137H220.824V132.541C220.824 130.682 219.628 130.058 218.107 130.058C216.586 130.058 215.325 130.721 215.195 132.307H216.716C216.794 131.631 217.197 131.241 218.016 131.241C218.939 131.241 219.251 131.696 219.251 132.606V132.957H218.406C216.456 132.957 214.922 133.529 214.922 135.115C214.922 136.532 215.949 137.13 217.197 137.13ZM217.574 135.999C216.794 135.999 216.482 135.622 216.482 135.05C216.482 134.218 217.249 133.945 218.445 133.945H219.251V134.621C219.251 135.492 218.536 135.999 217.574 135.999ZM222.627 137H224.2V132.996C224.2 131.917 224.915 131.371 225.799 131.371C226.735 131.371 227.151 131.839 227.151 132.866V137H228.724V132.723C228.724 130.851 227.762 130.058 226.397 130.058C225.279 130.058 224.525 130.617 224.2 131.28V130.201H222.627V137ZM232.864 137.13C234.606 137.13 235.581 136.337 235.581 134.959C235.581 133.516 234.632 133.126 233.033 132.879C231.954 132.697 231.629 132.502 231.629 132.008C231.629 131.527 232.032 131.202 232.708 131.202C233.436 131.202 233.787 131.488 233.917 132.112H235.373C235.204 130.578 234.099 130.058 232.708 130.058C231.434 130.058 230.16 130.734 230.16 132.099C230.16 133.373 230.823 133.88 232.617 134.166C233.618 134.335 234.073 134.543 234.073 135.102C234.073 135.674 233.696 135.973 232.851 135.973C231.928 135.973 231.577 135.57 231.499 134.881H230.017C230.082 136.324 231.109 137.13 232.864 137.13ZM243.035 137.13C244.881 137.13 246.064 136.025 246.181 134.465H244.738C244.647 135.427 243.932 135.921 243.1 135.921C241.943 135.921 241.215 135.141 241.215 133.659V133.555C241.215 132.151 241.982 131.319 243.061 131.319C243.893 131.319 244.491 131.696 244.621 132.606H246.142C245.96 130.734 244.543 130.058 243.035 130.058C241.137 130.058 239.603 131.423 239.603 133.581V133.685C239.603 135.856 241.085 137.13 243.035 137.13ZM249.329 137.13C250.369 137.13 250.967 136.753 251.409 136.168V137H252.956V132.541C252.956 130.682 251.76 130.058 250.239 130.058C248.718 130.058 247.457 130.721 247.327 132.307H248.848C248.926 131.631 249.329 131.241 250.148 131.241C251.071 131.241 251.383 131.696 251.383 132.606V132.957H250.538C248.588 132.957 247.054 133.529 247.054 135.115C247.054 136.532 248.081 137.13 249.329 137.13ZM249.706 135.999C248.926 135.999 248.614 135.622 248.614 135.05C248.614 134.218 249.381 133.945 250.577 133.945H251.383V134.621C251.383 135.492 250.668 135.999 249.706 135.999ZM254.759 137H256.332V133.464C256.332 132.021 257.164 131.579 258.542 131.566V130.097C257.398 130.11 256.761 130.617 256.332 131.475V130.201H254.759V137ZM259.926 137H261.499V133.464C261.499 132.021 262.331 131.579 263.709 131.566V130.097C262.565 130.11 261.928 130.617 261.499 131.475V130.201H259.926V137ZM267.983 137.13C269.985 137.13 271.48 135.752 271.48 133.633V133.529C271.48 131.449 269.985 130.058 267.996 130.058C265.994 130.058 264.499 131.462 264.499 133.568V133.672C264.499 135.739 265.981 137.13 267.983 137.13ZM267.996 135.908C266.8 135.908 266.111 135.037 266.111 133.646V133.542C266.111 132.138 266.826 131.293 267.996 131.293C269.166 131.293 269.868 132.151 269.868 133.555V133.646C269.868 135.037 269.166 135.908 267.996 135.908ZM275.215 137.117C275.696 137.117 276.034 137.039 276.281 136.948V135.7C276.06 135.791 275.826 135.83 275.514 135.83C275.02 135.83 274.734 135.557 274.734 134.959V131.384H276.229V130.201H274.734V128.706H273.161V130.201H272.251V131.384H273.161V135.102C273.161 136.389 273.863 137.117 275.215 137.117ZM283.774 137.13C285.62 137.13 286.803 136.025 286.92 134.465H285.477C285.386 135.427 284.671 135.921 283.839 135.921C282.682 135.921 281.954 135.141 281.954 133.659V133.555C281.954 132.151 282.721 131.319 283.8 131.319C284.632 131.319 285.23 131.696 285.36 132.606H286.881C286.699 130.734 285.282 130.058 283.774 130.058C281.876 130.058 280.342 131.423 280.342 133.581V133.685C280.342 135.856 281.824 137.13 283.774 137.13ZM290.069 137.13C291.109 137.13 291.707 136.753 292.149 136.168V137H293.696V132.541C293.696 130.682 292.5 130.058 290.979 130.058C289.458 130.058 288.197 130.721 288.067 132.307H289.588C289.666 131.631 290.069 131.241 290.888 131.241C291.811 131.241 292.123 131.696 292.123 132.606V132.957H291.278C289.328 132.957 287.794 133.529 287.794 135.115C287.794 136.532 288.821 137.13 290.069 137.13ZM290.446 135.999C289.666 135.999 289.354 135.622 289.354 135.05C289.354 134.218 290.121 133.945 291.317 133.945H292.123V134.621C292.123 135.492 291.408 135.999 290.446 135.999ZM295.499 137H297.072V133.659L299.62 137H301.44L298.58 133.321L301.219 130.201H299.503L297.072 133.191V127.055H295.499V137ZM305.204 137.13C306.946 137.13 308.103 136.35 308.324 134.92H306.803C306.686 135.583 306.192 135.96 305.243 135.96C304.073 135.96 303.423 135.232 303.371 133.945H308.35V133.49C308.35 131.059 306.829 130.058 305.139 130.058C303.202 130.058 301.759 131.462 301.759 133.568V133.672C301.759 135.817 303.202 137.13 305.204 137.13ZM303.397 132.892C303.553 131.839 304.19 131.202 305.139 131.202C306.114 131.202 306.712 131.722 306.79 132.892H303.397ZM310.628 137.091C311.213 137.091 311.668 136.649 311.668 136.077C311.668 135.505 311.213 135.05 310.628 135.05C310.056 135.05 309.601 135.505 309.601 136.077C309.601 136.649 310.056 137.091 310.628 137.091ZM110.424 153.117C112.14 153.117 113.297 152.194 113.297 150.179V143.705H111.555V150.14C111.555 151.284 111.009 151.726 110.164 151.726C109.618 151.726 109.293 151.622 108.968 151.492V152.844C109.267 153 109.657 153.117 110.424 153.117ZM117.462 153.13C118.567 153.13 119.282 152.597 119.62 151.934V153H121.193V146.201H119.62V150.244C119.62 151.323 118.879 151.869 118.034 151.869C117.124 151.869 116.695 151.401 116.695 150.374V146.201H115.122V150.556C115.122 152.363 116.123 153.13 117.462 153.13ZM123.864 145.083C124.384 145.083 124.8 144.693 124.8 144.186C124.8 143.666 124.384 143.276 123.864 143.276C123.344 143.276 122.928 143.666 122.928 144.186C122.928 144.693 123.344 145.083 123.864 145.083ZM122.161 155.444C124.046 155.418 124.67 154.612 124.67 153.234V146.201H123.097V153.273C123.097 153.845 122.85 154.183 122.161 154.235V155.444ZM128.862 153.13C129.967 153.13 130.682 152.597 131.02 151.934V153H132.593V146.201H131.02V150.244C131.02 151.323 130.279 151.869 129.434 151.869C128.524 151.869 128.095 151.401 128.095 150.374V146.201H126.522V150.556C126.522 152.363 127.523 153.13 128.862 153.13ZM138.254 153.13C140.009 153.13 141.27 151.804 141.27 149.62V149.516C141.27 147.319 139.957 146.058 138.254 146.058C137.253 146.058 136.408 146.643 136.031 147.293V143.055H134.458V153H136.031V151.908C136.395 152.597 137.175 153.13 138.254 153.13ZM137.864 151.882C136.72 151.882 135.979 151.167 135.979 149.646V149.542C135.979 148.034 136.759 147.293 137.851 147.293C138.878 147.293 139.658 148.034 139.658 149.542V149.646C139.658 151.102 139.021 151.882 137.864 151.882ZM145.675 153.13C147.417 153.13 148.574 152.35 148.795 150.92H147.274C147.157 151.583 146.663 151.96 145.714 151.96C144.544 151.96 143.894 151.232 143.842 149.945H148.821V149.49C148.821 147.059 147.3 146.058 145.61 146.058C143.673 146.058 142.23 147.462 142.23 149.568V149.672C142.23 151.817 143.673 153.13 145.675 153.13ZM143.868 148.892C144.024 147.839 144.661 147.202 145.61 147.202C146.585 147.202 147.183 147.722 147.261 148.892H143.868ZM152.617 153.13C154.359 153.13 155.334 152.337 155.334 150.959C155.334 149.516 154.385 149.126 152.786 148.879C151.707 148.697 151.382 148.502 151.382 148.008C151.382 147.527 151.785 147.202 152.461 147.202C153.189 147.202 153.54 147.488 153.67 148.112H155.126C154.957 146.578 153.852 146.058 152.461 146.058C151.187 146.058 149.913 146.734 149.913 148.099C149.913 149.373 150.576 149.88 152.37 150.166C153.371 150.335 153.826 150.543 153.826 151.102C153.826 151.674 153.449 151.973 152.604 151.973C151.681 151.973 151.33 151.57 151.252 150.881H149.77C149.835 152.324 150.862 153.13 152.617 153.13ZM162.788 153.13C164.634 153.13 165.817 152.025 165.934 150.465H164.491C164.4 151.427 163.685 151.921 162.853 151.921C161.696 151.921 160.968 151.141 160.968 149.659V149.555C160.968 148.151 161.735 147.319 162.814 147.319C163.646 147.319 164.244 147.696 164.374 148.606H165.895C165.713 146.734 164.296 146.058 162.788 146.058C160.89 146.058 159.356 147.423 159.356 149.581V149.685C159.356 151.856 160.838 153.13 162.788 153.13ZM169.082 153.13C170.122 153.13 170.72 152.753 171.162 152.168V153H172.709V148.541C172.709 146.682 171.513 146.058 169.992 146.058C168.471 146.058 167.21 146.721 167.08 148.307H168.601C168.679 147.631 169.082 147.241 169.901 147.241C170.824 147.241 171.136 147.696 171.136 148.606V148.957H170.291C168.341 148.957 166.807 149.529 166.807 151.115C166.807 152.532 167.834 153.13 169.082 153.13ZM169.459 151.999C168.679 151.999 168.367 151.622 168.367 151.05C168.367 150.218 169.134 149.945 170.33 149.945H171.136V150.621C171.136 151.492 170.421 151.999 169.459 151.999ZM174.512 153H176.085V149.659L178.633 153H180.453L177.593 149.321L180.232 146.201H178.516L176.085 149.191V143.055H174.512V153ZM184.218 153.13C185.96 153.13 187.117 152.35 187.338 150.92H185.817C185.7 151.583 185.206 151.96 184.257 151.96C183.087 151.96 182.437 151.232 182.385 149.945H187.364V149.49C187.364 147.059 185.843 146.058 184.153 146.058C182.216 146.058 180.773 147.462 180.773 149.568V149.672C180.773 151.817 182.216 153.13 184.218 153.13ZM182.411 148.892C182.567 147.839 183.204 147.202 184.153 147.202C185.128 147.202 185.726 147.722 185.804 148.892H182.411Z" fill="white"/>
<path d="M113.635 201.13C115.845 201.13 117.431 199.999 117.704 197.763H116.014C115.832 199.076 114.922 199.726 113.635 199.726C111.919 199.726 110.918 198.491 110.918 196.398V196.294C110.918 194.214 111.984 192.94 113.622 192.94C114.961 192.94 115.65 193.577 115.845 194.812H117.6C117.392 192.628 115.741 191.562 113.609 191.562C111.022 191.562 109.098 193.512 109.098 196.307V196.411C109.098 199.271 110.723 201.13 113.635 201.13ZM119.072 201H120.645V196.996C120.645 195.917 121.36 195.371 122.244 195.371C123.18 195.371 123.596 195.839 123.596 196.866V201H125.169V196.723C125.169 194.851 124.207 194.058 122.842 194.058C121.724 194.058 120.97 194.617 120.645 195.28V191.055H119.072V201ZM130.01 201.13C132.012 201.13 133.507 199.752 133.507 197.633V197.529C133.507 195.449 132.012 194.058 130.023 194.058C128.021 194.058 126.526 195.462 126.526 197.568V197.672C126.526 199.739 128.008 201.13 130.01 201.13ZM130.023 199.908C128.827 199.908 128.138 199.037 128.138 197.646V197.542C128.138 196.138 128.853 195.293 130.023 195.293C131.193 195.293 131.895 196.151 131.895 197.555V197.646C131.895 199.037 131.193 199.908 130.023 199.908ZM137.905 201.13C139.751 201.13 140.934 200.025 141.051 198.465H139.608C139.517 199.427 138.802 199.921 137.97 199.921C136.813 199.921 136.085 199.141 136.085 197.659V197.555C136.085 196.151 136.852 195.319 137.931 195.319C138.763 195.319 139.361 195.696 139.491 196.606H141.012C140.83 194.734 139.413 194.058 137.905 194.058C136.007 194.058 134.473 195.423 134.473 197.581V197.685C134.473 199.856 135.955 201.13 137.905 201.13ZM145.435 201.13C147.437 201.13 148.932 199.752 148.932 197.633V197.529C148.932 195.449 147.437 194.058 145.448 194.058C143.446 194.058 141.951 195.462 141.951 197.568V197.672C141.951 199.739 143.433 201.13 145.435 201.13ZM145.448 199.908C144.252 199.908 143.563 199.037 143.563 197.646V197.542C143.563 196.138 144.278 195.293 145.448 195.293C146.618 195.293 147.32 196.151 147.32 197.555V197.646C147.32 199.037 146.618 199.908 145.448 199.908ZM150.392 201H151.965V191.055H150.392V201ZM155.663 201.13C156.703 201.13 157.301 200.753 157.743 200.168V201H159.29V196.541C159.29 194.682 158.094 194.058 156.573 194.058C155.052 194.058 153.791 194.721 153.661 196.307H155.182C155.26 195.631 155.663 195.241 156.482 195.241C157.405 195.241 157.717 195.696 157.717 196.606V196.957H156.872C154.922 196.957 153.388 197.529 153.388 199.115C153.388 200.532 154.415 201.13 155.663 201.13ZM156.04 199.999C155.26 199.999 154.948 199.622 154.948 199.05C154.948 198.218 155.715 197.945 156.911 197.945H157.717V198.621C157.717 199.492 157.002 199.999 156.04 199.999ZM163.395 201.117C163.876 201.117 164.214 201.039 164.461 200.948V199.7C164.24 199.791 164.006 199.83 163.694 199.83C163.2 199.83 162.914 199.557 162.914 198.959V195.384H164.409V194.201H162.914V192.706H161.341V194.201H160.431V195.384H161.341V199.102C161.341 200.389 162.043 201.117 163.395 201.117ZM168.869 201.13C170.611 201.13 171.768 200.35 171.989 198.92H170.468C170.351 199.583 169.857 199.96 168.908 199.96C167.738 199.96 167.088 199.232 167.036 197.945H172.015V197.49C172.015 195.059 170.494 194.058 168.804 194.058C166.867 194.058 165.424 195.462 165.424 197.568V197.672C165.424 199.817 166.867 201.13 168.869 201.13ZM167.062 196.892C167.218 195.839 167.855 195.202 168.804 195.202C169.779 195.202 170.377 195.722 170.455 196.892H167.062ZM180.314 201.13C182.069 201.13 183.33 199.804 183.33 197.62V197.516C183.33 195.319 182.017 194.058 180.314 194.058C179.313 194.058 178.468 194.643 178.091 195.293V191.055H176.518V201H178.091V199.908C178.455 200.597 179.235 201.13 180.314 201.13ZM179.924 199.882C178.78 199.882 178.039 199.167 178.039 197.646V197.542C178.039 196.034 178.819 195.293 179.911 195.293C180.938 195.293 181.718 196.034 181.718 197.542V197.646C181.718 199.102 181.081 199.882 179.924 199.882ZM186.526 201.13C187.566 201.13 188.164 200.753 188.606 200.168V201H190.153V196.541C190.153 194.682 188.957 194.058 187.436 194.058C185.915 194.058 184.654 194.721 184.524 196.307H186.045C186.123 195.631 186.526 195.241 187.345 195.241C188.268 195.241 188.58 195.696 188.58 196.606V196.957H187.735C185.785 196.957 184.251 197.529 184.251 199.115C184.251 200.532 185.278 201.13 186.526 201.13ZM186.903 199.999C186.123 199.999 185.811 199.622 185.811 199.05C185.811 198.218 186.578 197.945 187.774 197.945H188.58V198.621C188.58 199.492 187.865 199.999 186.903 199.999ZM191.956 201H193.529V197.464C193.529 196.021 194.361 195.579 195.739 195.566V194.097C194.595 194.11 193.958 194.617 193.529 195.475V194.201H191.956V201ZM203.197 201.13C205.043 201.13 206.226 200.025 206.343 198.465H204.9C204.809 199.427 204.094 199.921 203.262 199.921C202.105 199.921 201.377 199.141 201.377 197.659V197.555C201.377 196.151 202.144 195.319 203.223 195.319C204.055 195.319 204.653 195.696 204.783 196.606H206.304C206.122 194.734 204.705 194.058 203.197 194.058C201.299 194.058 199.765 195.423 199.765 197.581V197.685C199.765 199.856 201.247 201.13 203.197 201.13ZM209.491 201.13C210.531 201.13 211.129 200.753 211.571 200.168V201H213.118V196.541C213.118 194.682 211.922 194.058 210.401 194.058C208.88 194.058 207.619 194.721 207.489 196.307H209.01C209.088 195.631 209.491 195.241 210.31 195.241C211.233 195.241 211.545 195.696 211.545 196.606V196.957H210.7C208.75 196.957 207.216 197.529 207.216 199.115C207.216 200.532 208.243 201.13 209.491 201.13ZM209.868 199.999C209.088 199.999 208.776 199.622 208.776 199.05C208.776 198.218 209.543 197.945 210.739 197.945H211.545V198.621C211.545 199.492 210.83 199.999 209.868 199.999ZM214.921 201H216.494V197.464C216.494 196.021 217.326 195.579 218.704 195.566V194.097C217.56 194.11 216.923 194.617 216.494 195.475V194.201H214.921V201ZM221.768 201.13C222.808 201.13 223.406 200.753 223.848 200.168V201H225.395V196.541C225.395 194.682 224.199 194.058 222.678 194.058C221.157 194.058 219.896 194.721 219.766 196.307H221.287C221.365 195.631 221.768 195.241 222.587 195.241C223.51 195.241 223.822 195.696 223.822 196.606V196.957H222.977C221.027 196.957 219.493 197.529 219.493 199.115C219.493 200.532 220.52 201.13 221.768 201.13ZM222.145 199.999C221.365 199.999 221.053 199.622 221.053 199.05C221.053 198.218 221.82 197.945 223.016 197.945H223.822V198.621C223.822 199.492 223.107 199.999 222.145 199.999ZM227.198 201H228.771V196.931C228.771 195.891 229.486 195.371 230.266 195.371C231.033 195.371 231.475 195.8 231.475 196.801V201H233.048V196.931C233.048 195.891 233.763 195.371 234.543 195.371C235.323 195.371 235.752 195.8 235.752 196.801V201H237.325V196.697C237.325 194.825 236.311 194.058 235.063 194.058C234.218 194.058 233.282 194.435 232.762 195.28C232.424 194.435 231.722 194.058 230.838 194.058C229.837 194.058 229.096 194.604 228.771 195.241V194.201H227.198V201ZM242.121 201.13C243.863 201.13 245.02 200.35 245.241 198.92H243.72C243.603 199.583 243.109 199.96 242.16 199.96C240.99 199.96 240.34 199.232 240.288 197.945H245.267V197.49C245.267 195.059 243.746 194.058 242.056 194.058C240.119 194.058 238.676 195.462 238.676 197.568V197.672C238.676 199.817 240.119 201.13 242.121 201.13ZM240.314 196.892C240.47 195.839 241.107 195.202 242.056 195.202C243.031 195.202 243.629 195.722 243.707 196.892H240.314ZM246.711 201H248.284V191.055H246.711V201ZM252.529 201.13C254.271 201.13 255.246 200.337 255.246 198.959C255.246 197.516 254.297 197.126 252.698 196.879C251.619 196.697 251.294 196.502 251.294 196.008C251.294 195.527 251.697 195.202 252.373 195.202C253.101 195.202 253.452 195.488 253.582 196.112H255.038C254.869 194.578 253.764 194.058 252.373 194.058C251.099 194.058 249.825 194.734 249.825 196.099C249.825 197.373 250.488 197.88 252.282 198.166C253.283 198.335 253.738 198.543 253.738 199.102C253.738 199.674 253.361 199.973 252.516 199.973C251.593 199.973 251.242 199.57 251.164 198.881H249.682C249.747 200.324 250.774 201.13 252.529 201.13ZM262.7 201.13C264.546 201.13 265.729 200.025 265.846 198.465H264.403C264.312 199.427 263.597 199.921 262.765 199.921C261.608 199.921 260.88 199.141 260.88 197.659V197.555C260.88 196.151 261.647 195.319 262.726 195.319C263.558 195.319 264.156 195.696 264.286 196.606H265.807C265.625 194.734 264.208 194.058 262.7 194.058C260.802 194.058 259.268 195.423 259.268 197.581V197.685C259.268 199.856 260.75 201.13 262.7 201.13ZM268.994 201.13C270.034 201.13 270.632 200.753 271.074 200.168V201H272.621V196.541C272.621 194.682 271.425 194.058 269.904 194.058C268.383 194.058 267.122 194.721 266.992 196.307H268.513C268.591 195.631 268.994 195.241 269.813 195.241C270.736 195.241 271.048 195.696 271.048 196.606V196.957H270.203C268.253 196.957 266.719 197.529 266.719 199.115C266.719 200.532 267.746 201.13 268.994 201.13ZM269.371 199.999C268.591 199.999 268.279 199.622 268.279 199.05C268.279 198.218 269.046 197.945 270.242 197.945H271.048V198.621C271.048 199.492 270.333 199.999 269.371 199.999ZM274.424 201H275.997V197.464C275.997 196.021 276.829 195.579 278.207 195.566V194.097C277.063 194.11 276.426 194.617 275.997 195.475V194.201H274.424V201ZM279.591 201H281.164V197.464C281.164 196.021 281.996 195.579 283.374 195.566V194.097C282.23 194.11 281.593 194.617 281.164 195.475V194.201H279.591V201ZM287.648 201.13C289.65 201.13 291.145 199.752 291.145 197.633V197.529C291.145 195.449 289.65 194.058 287.661 194.058C285.659 194.058 284.164 195.462 284.164 197.568V197.672C284.164 199.739 285.646 201.13 287.648 201.13ZM287.661 199.908C286.465 199.908 285.776 199.037 285.776 197.646V197.542C285.776 196.138 286.491 195.293 287.661 195.293C288.831 195.293 289.533 196.151 289.533 197.555V197.646C289.533 199.037 288.831 199.908 287.661 199.908ZM294.88 201.117C295.361 201.117 295.699 201.039 295.946 200.948V199.7C295.725 199.791 295.491 199.83 295.179 199.83C294.685 199.83 294.399 199.557 294.399 198.959V195.384H295.894V194.201H294.399V192.706H292.826V194.201H291.916V195.384H292.826V199.102C292.826 200.389 293.528 201.117 294.88 201.117ZM303.439 201.13C305.285 201.13 306.468 200.025 306.585 198.465H305.142C305.051 199.427 304.336 199.921 303.504 199.921C302.347 199.921 301.619 199.141 301.619 197.659V197.555C301.619 196.151 302.386 195.319 303.465 195.319C304.297 195.319 304.895 195.696 305.025 196.606H306.546C306.364 194.734 304.947 194.058 303.439 194.058C301.541 194.058 300.007 195.423 300.007 197.581V197.685C300.007 199.856 301.489 201.13 303.439 201.13ZM309.734 201.13C310.774 201.13 311.372 200.753 311.814 200.168V201H313.361V196.541C313.361 194.682 312.165 194.058 310.644 194.058C309.123 194.058 307.862 194.721 307.732 196.307H309.253C309.331 195.631 309.734 195.241 310.553 195.241C311.476 195.241 311.788 195.696 311.788 196.606V196.957H310.943C308.993 196.957 307.459 197.529 307.459 199.115C307.459 200.532 308.486 201.13 309.734 201.13ZM310.111 199.999C309.331 199.999 309.019 199.622 309.019 199.05C309.019 198.218 309.786 197.945 310.982 197.945H311.788V198.621C311.788 199.492 311.073 199.999 310.111 199.999ZM315.164 201H316.737V197.659L319.285 201H321.105L318.245 197.321L320.884 194.201H319.168L316.737 197.191V191.055H315.164V201ZM324.869 201.13C326.611 201.13 327.768 200.35 327.989 198.92H326.468C326.351 199.583 325.857 199.96 324.908 199.96C323.738 199.96 323.088 199.232 323.036 197.945H328.015V197.49C328.015 195.059 326.494 194.058 324.804 194.058C322.867 194.058 321.424 195.462 321.424 197.568V197.672C321.424 199.817 322.867 201.13 324.869 201.13ZM323.062 196.892C323.218 195.839 323.855 195.202 324.804 195.202C325.779 195.202 326.377 195.722 326.455 196.892H323.062ZM111.75 217.117C112.231 217.117 112.569 217.039 112.816 216.948V215.7C112.595 215.791 112.361 215.83 112.049 215.83C111.555 215.83 111.269 215.557 111.269 214.959V211.384H112.764V210.201H111.269V208.706H109.696V210.201H108.786V211.384H109.696V215.102C109.696 216.389 110.398 217.117 111.75 217.117ZM115.041 209.083C115.561 209.083 115.977 208.693 115.977 208.186C115.977 207.666 115.561 207.276 115.041 207.276C114.521 207.276 114.105 207.666 114.105 208.186C114.105 208.693 114.521 209.083 115.041 209.083ZM114.274 217H115.847V210.201H114.274V217ZM117.764 217H119.337V213.464C119.337 212.021 120.169 211.579 121.547 211.566V210.097C120.403 210.11 119.766 210.617 119.337 211.475V210.201H117.764V217ZM124.611 217.13C125.651 217.13 126.249 216.753 126.691 216.168V217H128.238V212.541C128.238 210.682 127.042 210.058 125.521 210.058C124 210.058 122.739 210.721 122.609 212.307H124.13C124.208 211.631 124.611 211.241 125.43 211.241C126.353 211.241 126.665 211.696 126.665 212.606V212.957H125.82C123.87 212.957 122.336 213.529 122.336 215.115C122.336 216.532 123.363 217.13 124.611 217.13ZM124.988 215.999C124.208 215.999 123.896 215.622 123.896 215.05C123.896 214.218 124.663 213.945 125.859 213.945H126.665V214.621C126.665 215.492 125.95 215.999 124.988 215.999ZM130.04 217H131.613V212.931C131.613 211.891 132.328 211.371 133.108 211.371C133.875 211.371 134.317 211.8 134.317 212.801V217H135.89V212.931C135.89 211.891 136.605 211.371 137.385 211.371C138.165 211.371 138.594 211.8 138.594 212.801V217H140.167V212.697C140.167 210.825 139.153 210.058 137.905 210.058C137.06 210.058 136.124 210.435 135.604 211.28C135.266 210.435 134.564 210.058 133.68 210.058C132.679 210.058 131.938 210.604 131.613 211.241V210.201H130.04V217ZM142.78 209.083C143.3 209.083 143.716 208.693 143.716 208.186C143.716 207.666 143.3 207.276 142.78 207.276C142.26 207.276 141.844 207.666 141.844 208.186C141.844 208.693 142.26 209.083 142.78 209.083ZM142.013 217H143.586V210.201H142.013V217ZM147.83 217.13C149.572 217.13 150.547 216.337 150.547 214.959C150.547 213.516 149.598 213.126 147.999 212.879C146.92 212.697 146.595 212.502 146.595 212.008C146.595 211.527 146.998 211.202 147.674 211.202C148.402 211.202 148.753 211.488 148.883 212.112H150.339C150.17 210.578 149.065 210.058 147.674 210.058C146.4 210.058 145.126 210.734 145.126 212.099C145.126 213.373 145.789 213.88 147.583 214.166C148.584 214.335 149.039 214.543 149.039 215.102C149.039 215.674 148.662 215.973 147.817 215.973C146.894 215.973 146.543 215.57 146.465 214.881H144.983C145.048 216.324 146.075 217.13 147.83 217.13ZM154.202 217.13C155.307 217.13 156.022 216.597 156.36 215.934V217H157.933V210.201H156.36V214.244C156.36 215.323 155.619 215.869 154.774 215.869C153.864 215.869 153.435 215.401 153.435 214.374V210.201H151.862V214.556C151.862 216.363 152.863 217.13 154.202 217.13Z" fill="white"/>
<path fill-rule="evenodd" clip-rule="evenodd" d="M72.5 75.5V78H69.5V75.5C69.5 71.92 72.42 69 76 69C79.58 69 82.5 71.92 82.5 75.5V78H79.5V75.5C79.5 73.57 77.93 72 76 72C74.07 72 72.5 73.57 72.5 75.5ZM66 93V79H86V93H66ZM77 90V85.72C77.6 85.38 78 84.74 78 84C78 82.9 77.1 82 76 82C74.9 82 74 82.9 74 84C74 84.74 74.4 85.38 75 85.72V90H77Z" fill="white"/>
<path fill-rule="evenodd" clip-rule="evenodd" d="M81.5 130.5C81.5 133.538 79.0376 136 76 136C72.9624 136 70.5 133.538 70.5 130.5C70.5 127.462 72.9624 125 76 125C79.0376 125 81.5 127.462 81.5 130.5ZM79.96 137.02C82.42 137.14 84.58 138.74 85.37 141.1L88 149H64L66.63 141.1C67.42 138.74 69.58 137.14 72.04 137.02C72.26 137.14 73.94 138 76 138C78.06 138 79.74 137.14 79.96 137.02Z" fill="white"/>
<path d="M65 190.5V211.5H89V190.5H65ZM86 199.74L79.28 206.46L72.875 200.43L68 205.035V200.91L72.875 196.305L79.22 202.275L86 195.51V199.74Z" fill="white"/>
<defs>
<filter id="filter0_ddd" x="17" y="22" width="373" height="245" filterUnits="userSpaceOnUse" color-interpolation-filters="sRGB">
<feFlood flood-opacity="0" result="BackgroundImageFix"/>
<feColorMatrix in="SourceAlpha" type="matrix" values="0 0 0 0 0 0 0 0 0 0 0 0 0 0 0 0 0 0 127 0"/>
<feOffset dy="3"/>
<feGaussianBlur stdDeviation="2.5"/>
<feColorMatrix type="matrix" values="0 0 0 0 0 0 0 0 0 0 0 0 0 0 0 0 0 0 0.2 0"/>
<feBlend mode="normal" in2="BackgroundImageFix" result="effect1_dropShadow"/>
<feColorMatrix in="SourceAlpha" type="matrix" values="0 0 0 0 0 0 0 0 0 0 0 0 0 0 0 0 0 0 127 0"/>
<feOffset dy="1"/>
<feGaussianBlur stdDeviation="9"/>
<feColorMatrix type="matrix" values="0 0 0 0 0 0 0 0 0 0 0 0 0 0 0 0 0 0 0.12 0"/>
<feBlend mode="normal" in2="effect1_dropShadow" result="effect2_dropShadow"/>
<feColorMatrix in="SourceAlpha" type="matrix" values="0 0 0 0 0 0 0 0 0 0 0 0 0 0 0 0 0 0 127 0"/>
<feOffset dy="6"/>
<feGaussianBlur stdDeviation="5"/>
<feColorMatrix type="matrix" values="0 0 0 0 0 0 0 0 0 0 0 0 0 0 0 0 0 0 0.14 0"/>
<feBlend mode="normal" in2="effect2_dropShadow" result="effect3_dropShadow"/>
<feBlend mode="normal" in="SourceGraphic" in2="effect3_dropShadow" result="shape"/>
</filter>
</defs>
</svg>
