<svg width="407" height="287" viewBox="0 0 407 287" fill="none" xmlns="http://www.w3.org/2000/svg">
<g filter="url(#filter0_ddd)">
<rect x="40" y="38" width="327" height="209" rx="8" fill="#141519"/>
<rect x="39.5" y="37.5" width="328" height="210" rx="8.5" stroke="#8A919E" stroke-opacity="0.2"/>
</g>
<path d="M113.566 81H119.26V79.622H115.295V71.705H113.566V81ZM123.459 81.13C125.201 81.13 126.358 80.35 126.579 78.92H125.058C124.941 79.583 124.447 79.96 123.498 79.96C122.328 79.96 121.678 79.232 121.626 77.945H126.605V77.49C126.605 75.059 125.084 74.058 123.394 74.058C121.457 74.058 120.014 75.462 120.014 77.568V77.672C120.014 79.817 121.457 81.13 123.459 81.13ZM121.652 76.892C121.808 75.839 122.445 75.202 123.394 75.202C124.369 75.202 124.967 75.722 125.045 76.892H121.652ZM128.01 81H129.583V76.931C129.583 75.891 130.298 75.371 131.078 75.371C131.845 75.371 132.287 75.8 132.287 76.801V81H133.86V76.931C133.86 75.891 134.575 75.371 135.355 75.371C136.135 75.371 136.564 75.8 136.564 76.801V81H138.137V76.697C138.137 74.825 137.123 74.058 135.875 74.058C135.03 74.058 134.094 74.435 133.574 75.28C133.236 74.435 132.534 74.058 131.65 74.058C130.649 74.058 129.908 74.604 129.583 75.241V74.201H128.01V81ZM142.973 81.13C144.975 81.13 146.47 79.752 146.47 77.633V77.529C146.47 75.449 144.975 74.058 142.986 74.058C140.984 74.058 139.489 75.462 139.489 77.568V77.672C139.489 79.739 140.971 81.13 142.973 81.13ZM142.986 79.908C141.79 79.908 141.101 79.037 141.101 77.646V77.542C141.101 76.138 141.816 75.293 142.986 75.293C144.156 75.293 144.858 76.151 144.858 77.555V77.646C144.858 79.037 144.156 79.908 142.986 79.908ZM147.891 81H149.464V76.996C149.464 75.917 150.179 75.371 151.063 75.371C151.999 75.371 152.415 75.839 152.415 76.866V81H153.988V76.723C153.988 74.851 153.026 74.058 151.661 74.058C150.543 74.058 149.789 74.617 149.464 75.28V74.201H147.891V81ZM161.446 81.13C162.447 81.13 163.318 80.532 163.682 79.856V81H165.255V71.055H163.682V75.241C163.305 74.565 162.616 74.058 161.511 74.058C159.743 74.058 158.456 75.436 158.456 77.607V77.711C158.456 79.921 159.743 81.13 161.446 81.13ZM161.836 79.882C160.822 79.882 160.068 79.167 160.068 77.672V77.568C160.068 76.099 160.744 75.293 161.901 75.293C163.045 75.293 163.734 76.034 163.734 77.529V77.633C163.734 79.154 162.928 79.882 161.836 79.882ZM167.124 81H168.697V77.464C168.697 76.021 169.529 75.579 170.907 75.566V74.097C169.763 74.11 169.126 74.617 168.697 75.475V74.201H167.124V81ZM175.181 81.13C177.183 81.13 178.678 79.752 178.678 77.633V77.529C178.678 75.449 177.183 74.058 175.194 74.058C173.192 74.058 171.697 75.462 171.697 77.568V77.672C171.697 79.739 173.179 81.13 175.181 81.13ZM175.194 79.908C173.998 79.908 173.309 79.037 173.309 77.646V77.542C173.309 76.138 174.024 75.293 175.194 75.293C176.364 75.293 177.066 76.151 177.066 77.555V77.646C177.066 79.037 176.364 79.908 175.194 79.908ZM180.099 83.327H181.672V79.934C182.036 80.597 182.816 81.13 183.895 81.13C185.65 81.13 186.911 79.804 186.911 77.62V77.516C186.911 75.319 185.598 74.058 183.895 74.058C182.894 74.058 182.049 74.643 181.672 75.293V74.201H180.099V83.327ZM183.505 79.882C182.361 79.882 181.62 79.167 181.62 77.646V77.542C181.62 76.034 182.4 75.293 183.492 75.293C184.519 75.293 185.299 76.034 185.299 77.542V77.646C185.299 79.102 184.662 79.882 183.505 79.882ZM190.665 81.13C192.407 81.13 193.382 80.337 193.382 78.959C193.382 77.516 192.433 77.126 190.834 76.879C189.755 76.697 189.43 76.502 189.43 76.008C189.43 75.527 189.833 75.202 190.509 75.202C191.237 75.202 191.588 75.488 191.718 76.112H193.174C193.005 74.578 191.9 74.058 190.509 74.058C189.235 74.058 187.961 74.734 187.961 76.099C187.961 77.373 188.624 77.88 190.418 78.166C191.419 78.335 191.874 78.543 191.874 79.102C191.874 79.674 191.497 79.973 190.652 79.973C189.729 79.973 189.378 79.57 189.3 78.881H187.818C187.883 80.324 188.91 81.13 190.665 81.13ZM201.656 81.13C203.411 81.13 204.672 79.804 204.672 77.62V77.516C204.672 75.319 203.359 74.058 201.656 74.058C200.655 74.058 199.81 74.643 199.433 75.293V71.055H197.86V81H199.433V79.908C199.797 80.597 200.577 81.13 201.656 81.13ZM201.266 79.882C200.122 79.882 199.381 79.167 199.381 77.646V77.542C199.381 76.034 200.161 75.293 201.253 75.293C202.28 75.293 203.06 76.034 203.06 77.542V77.646C203.06 79.102 202.423 79.882 201.266 79.882ZM206.086 81H207.659V77.464C207.659 76.021 208.491 75.579 209.869 75.566V74.097C208.725 74.11 208.088 74.617 207.659 75.475V74.201H206.086V81ZM214.143 81.13C216.145 81.13 217.64 79.752 217.64 77.633V77.529C217.64 75.449 216.145 74.058 214.156 74.058C212.154 74.058 210.659 75.462 210.659 77.568V77.672C210.659 79.739 212.141 81.13 214.143 81.13ZM214.156 79.908C212.96 79.908 212.271 79.037 212.271 77.646V77.542C212.271 76.138 212.986 75.293 214.156 75.293C215.326 75.293 216.028 76.151 216.028 77.555V77.646C216.028 79.037 215.326 79.908 214.156 79.908ZM220.3 81H221.912L223.29 76.424L224.551 81H226.15L228.282 74.201H226.748L225.331 79.115L224.005 74.201H222.692L221.249 79.115L219.897 74.201H218.22L220.3 81ZM229.484 81H231.057V76.996C231.057 75.917 231.772 75.371 232.656 75.371C233.592 75.371 234.008 75.839 234.008 76.866V81H235.581V76.723C235.581 74.851 234.619 74.058 233.254 74.058C232.136 74.058 231.382 74.617 231.057 75.28V74.201H229.484V81ZM238.199 73.083C238.719 73.083 239.135 72.693 239.135 72.186C239.135 71.666 238.719 71.276 238.199 71.276C237.679 71.276 237.263 71.666 237.263 72.186C237.263 72.693 237.679 73.083 238.199 73.083ZM237.432 81H239.005V74.201H237.432V81ZM243.912 81.13C245.654 81.13 246.811 80.35 247.032 78.92H245.511C245.394 79.583 244.9 79.96 243.951 79.96C242.781 79.96 242.131 79.232 242.079 77.945H247.058V77.49C247.058 75.059 245.537 74.058 243.847 74.058C241.91 74.058 240.467 75.462 240.467 77.568V77.672C240.467 79.817 241.91 81.13 243.912 81.13ZM242.105 76.892C242.261 75.839 242.898 75.202 243.847 75.202C244.822 75.202 245.42 75.722 245.498 76.892H242.105ZM254.538 81.13C256.384 81.13 257.567 80.025 257.684 78.465H256.241C256.15 79.427 255.435 79.921 254.603 79.921C253.446 79.921 252.718 79.141 252.718 77.659V77.555C252.718 76.151 253.485 75.319 254.564 75.319C255.396 75.319 255.994 75.696 256.124 76.606H257.645C257.463 74.734 256.046 74.058 254.538 74.058C252.64 74.058 251.106 75.423 251.106 77.581V77.685C251.106 79.856 252.588 81.13 254.538 81.13ZM259.039 81H260.612V76.996C260.612 75.917 261.327 75.371 262.211 75.371C263.147 75.371 263.563 75.839 263.563 76.866V81H265.136V76.723C265.136 74.851 264.174 74.058 262.809 74.058C261.691 74.058 260.937 74.617 260.612 75.28V71.055H259.039V81ZM269.977 81.13C271.979 81.13 273.474 79.752 273.474 77.633V77.529C273.474 75.449 271.979 74.058 269.99 74.058C267.988 74.058 266.493 75.462 266.493 77.568V77.672C266.493 79.739 267.975 81.13 269.977 81.13ZM269.99 79.908C268.794 79.908 268.105 79.037 268.105 77.646V77.542C268.105 76.138 268.82 75.293 269.99 75.293C271.16 75.293 271.862 76.151 271.862 77.555V77.646C271.862 79.037 271.16 79.908 269.99 79.908ZM277.872 81.13C279.718 81.13 280.901 80.025 281.018 78.465H279.575C279.484 79.427 278.769 79.921 277.937 79.921C276.78 79.921 276.052 79.141 276.052 77.659V77.555C276.052 76.151 276.819 75.319 277.898 75.319C278.73 75.319 279.328 75.696 279.458 76.606H280.979C280.797 74.734 279.38 74.058 277.872 74.058C275.974 74.058 274.44 75.423 274.44 77.581V77.685C274.44 79.856 275.922 81.13 277.872 81.13ZM285.402 81.13C287.404 81.13 288.899 79.752 288.899 77.633V77.529C288.899 75.449 287.404 74.058 285.415 74.058C283.413 74.058 281.918 75.462 281.918 77.568V77.672C281.918 79.739 283.4 81.13 285.402 81.13ZM285.415 79.908C284.219 79.908 283.53 79.037 283.53 77.646V77.542C283.53 76.138 284.245 75.293 285.415 75.293C286.585 75.293 287.287 76.151 287.287 77.555V77.646C287.287 79.037 286.585 79.908 285.415 79.908ZM290.359 81H291.932V71.055H290.359V81ZM295.63 81.13C296.67 81.13 297.268 80.753 297.71 80.168V81H299.257V76.541C299.257 74.682 298.061 74.058 296.54 74.058C295.019 74.058 293.758 74.721 293.628 76.307H295.149C295.227 75.631 295.63 75.241 296.449 75.241C297.372 75.241 297.684 75.696 297.684 76.606V76.957H296.839C294.889 76.957 293.355 77.529 293.355 79.115C293.355 80.532 294.382 81.13 295.63 81.13ZM296.007 79.999C295.227 79.999 294.915 79.622 294.915 79.05C294.915 78.218 295.682 77.945 296.878 77.945H297.684V78.621C297.684 79.492 296.969 79.999 296.007 79.999ZM303.361 81.117C303.842 81.117 304.18 81.039 304.427 80.948V79.7C304.206 79.791 303.972 79.83 303.66 79.83C303.166 79.83 302.88 79.557 302.88 78.959V75.384H304.375V74.201H302.88V72.706H301.307V74.201H300.397V75.384H301.307V79.102C301.307 80.389 302.009 81.117 303.361 81.117ZM308.836 81.13C310.578 81.13 311.735 80.35 311.956 78.92H310.435C310.318 79.583 309.824 79.96 308.875 79.96C307.705 79.96 307.055 79.232 307.003 77.945H311.982V77.49C311.982 75.059 310.461 74.058 308.771 74.058C306.834 74.058 305.391 75.462 305.391 77.568V77.672C305.391 79.817 306.834 81.13 308.836 81.13ZM307.029 76.892C307.185 75.839 307.822 75.202 308.771 75.202C309.746 75.202 310.344 75.722 310.422 76.892H307.029ZM113.475 97H115.048V87.055H113.475V97ZM119.955 97.13C121.697 97.13 122.854 96.35 123.075 94.92H121.554C121.437 95.583 120.943 95.96 119.994 95.96C118.824 95.96 118.174 95.232 118.122 93.945H123.101V93.49C123.101 91.059 121.58 90.058 119.89 90.058C117.953 90.058 116.51 91.462 116.51 93.568V93.672C116.51 95.817 117.953 97.13 119.955 97.13ZM118.148 92.892C118.304 91.839 118.941 91.202 119.89 91.202C120.865 91.202 121.463 91.722 121.541 92.892H118.148ZM124.506 97H126.079V92.931C126.079 91.891 126.794 91.371 127.574 91.371C128.341 91.371 128.783 91.8 128.783 92.801V97H130.356V92.931C130.356 91.891 131.071 91.371 131.851 91.371C132.631 91.371 133.06 91.8 133.06 92.801V97H134.633V92.697C134.633 90.825 133.619 90.058 132.371 90.058C131.526 90.058 130.59 90.435 130.07 91.28C129.732 90.435 129.03 90.058 128.146 90.058C127.145 90.058 126.404 90.604 126.079 91.241V90.201H124.506V97ZM139.469 97.13C141.471 97.13 142.966 95.752 142.966 93.633V93.529C142.966 91.449 141.471 90.058 139.482 90.058C137.48 90.058 135.985 91.462 135.985 93.568V93.672C135.985 95.739 137.467 97.13 139.469 97.13ZM139.482 95.908C138.286 95.908 137.597 95.037 137.597 93.646V93.542C137.597 92.138 138.312 91.293 139.482 91.293C140.652 91.293 141.354 92.151 141.354 93.555V93.646C141.354 95.037 140.652 95.908 139.482 95.908ZM144.387 97H145.96V92.996C145.96 91.917 146.675 91.371 147.559 91.371C148.495 91.371 148.911 91.839 148.911 92.866V97H150.484V92.723C150.484 90.851 149.522 90.058 148.157 90.058C147.039 90.058 146.285 90.617 145.96 91.28V90.201H144.387V97ZM157.942 97.13C158.943 97.13 159.814 96.532 160.178 95.856V97H161.751V87.055H160.178V91.241C159.801 90.565 159.112 90.058 158.007 90.058C156.239 90.058 154.952 91.436 154.952 93.607V93.711C154.952 95.921 156.239 97.13 157.942 97.13ZM158.332 95.882C157.318 95.882 156.564 95.167 156.564 93.672V93.568C156.564 92.099 157.24 91.293 158.397 91.293C159.541 91.293 160.23 92.034 160.23 93.529V93.633C160.23 95.154 159.424 95.882 158.332 95.882ZM163.621 97H165.194V93.464C165.194 92.021 166.026 91.579 167.404 91.566V90.097C166.26 90.11 165.623 90.617 165.194 91.475V90.201H163.621V97ZM171.677 97.13C173.679 97.13 175.174 95.752 175.174 93.633V93.529C175.174 91.449 173.679 90.058 171.69 90.058C169.688 90.058 168.193 91.462 168.193 93.568V93.672C168.193 95.739 169.675 97.13 171.677 97.13ZM171.69 95.908C170.494 95.908 169.805 95.037 169.805 93.646V93.542C169.805 92.138 170.52 91.293 171.69 91.293C172.86 91.293 173.562 92.151 173.562 93.555V93.646C173.562 95.037 172.86 95.908 171.69 95.908ZM176.595 99.327H178.168V95.934C178.532 96.597 179.312 97.13 180.391 97.13C182.146 97.13 183.407 95.804 183.407 93.62V93.516C183.407 91.319 182.094 90.058 180.391 90.058C179.39 90.058 178.545 90.643 178.168 91.293V90.201H176.595V99.327ZM180.001 95.882C178.857 95.882 178.116 95.167 178.116 93.646V93.542C178.116 92.034 178.896 91.293 179.988 91.293C181.015 91.293 181.795 92.034 181.795 93.542V93.646C181.795 95.102 181.158 95.882 180.001 95.882ZM187.161 97.13C188.903 97.13 189.878 96.337 189.878 94.959C189.878 93.516 188.929 93.126 187.33 92.879C186.251 92.697 185.926 92.502 185.926 92.008C185.926 91.527 186.329 91.202 187.005 91.202C187.733 91.202 188.084 91.488 188.214 92.112H189.67C189.501 90.578 188.396 90.058 187.005 90.058C185.731 90.058 184.457 90.734 184.457 92.099C184.457 93.373 185.12 93.88 186.914 94.166C187.915 94.335 188.37 94.543 188.37 95.102C188.37 95.674 187.993 95.973 187.148 95.973C186.225 95.973 185.874 95.57 185.796 94.881H184.314C184.379 96.324 185.406 97.13 187.161 97.13Z" fill="white"/>
<path d="M117.635 137.13C119.845 137.13 121.431 135.999 121.704 133.763H120.014C119.832 135.076 118.922 135.726 117.635 135.726C115.919 135.726 114.918 134.491 114.918 132.398V132.294C114.918 130.214 115.984 128.94 117.622 128.94C118.961 128.94 119.65 129.577 119.845 130.812H121.6C121.392 128.628 119.741 127.562 117.609 127.562C115.022 127.562 113.098 129.512 113.098 132.307V132.411C113.098 135.271 114.723 137.13 117.635 137.13ZM124.942 137.13C125.982 137.13 126.58 136.753 127.022 136.168V137H128.569V132.541C128.569 130.682 127.373 130.058 125.852 130.058C124.331 130.058 123.07 130.721 122.94 132.307H124.461C124.539 131.631 124.942 131.241 125.761 131.241C126.684 131.241 126.996 131.696 126.996 132.606V132.957H126.151C124.201 132.957 122.667 133.529 122.667 135.115C122.667 136.532 123.694 137.13 124.942 137.13ZM125.319 135.999C124.539 135.999 124.227 135.622 124.227 135.05C124.227 134.218 124.994 133.945 126.19 133.945H126.996V134.621C126.996 135.492 126.281 135.999 125.319 135.999ZM130.372 137H131.945V133.464C131.945 132.021 132.777 131.579 134.155 131.566V130.097C133.011 130.11 132.374 130.617 131.945 131.475V130.201H130.372V137ZM137.218 137.13C138.258 137.13 138.856 136.753 139.298 136.168V137H140.845V132.541C140.845 130.682 139.649 130.058 138.128 130.058C136.607 130.058 135.346 130.721 135.216 132.307H136.737C136.815 131.631 137.218 131.241 138.037 131.241C138.96 131.241 139.272 131.696 139.272 132.606V132.957H138.427C136.477 132.957 134.943 133.529 134.943 135.115C134.943 136.532 135.97 137.13 137.218 137.13ZM137.595 135.999C136.815 135.999 136.503 135.622 136.503 135.05C136.503 134.218 137.27 133.945 138.466 133.945H139.272V134.621C139.272 135.492 138.557 135.999 137.595 135.999ZM142.648 137H144.221V132.931C144.221 131.891 144.936 131.371 145.716 131.371C146.483 131.371 146.925 131.8 146.925 132.801V137H148.498V132.931C148.498 131.891 149.213 131.371 149.993 131.371C150.773 131.371 151.202 131.8 151.202 132.801V137H152.775V132.697C152.775 130.825 151.761 130.058 150.513 130.058C149.668 130.058 148.732 130.435 148.212 131.28C147.874 130.435 147.172 130.058 146.288 130.058C145.287 130.058 144.546 130.604 144.221 131.241V130.201H142.648V137ZM157.572 137.13C159.314 137.13 160.471 136.35 160.692 134.92H159.171C159.054 135.583 158.56 135.96 157.611 135.96C156.441 135.96 155.791 135.232 155.739 133.945H160.718V133.49C160.718 131.059 159.197 130.058 157.507 130.058C155.57 130.058 154.127 131.462 154.127 133.568V133.672C154.127 135.817 155.57 137.13 157.572 137.13ZM155.765 132.892C155.921 131.839 156.558 131.202 157.507 131.202C158.482 131.202 159.08 131.722 159.158 132.892H155.765ZM162.162 137H163.735V127.055H162.162V137ZM167.979 137.13C169.721 137.13 170.696 136.337 170.696 134.959C170.696 133.516 169.747 133.126 168.148 132.879C167.069 132.697 166.744 132.502 166.744 132.008C166.744 131.527 167.147 131.202 167.823 131.202C168.551 131.202 168.902 131.488 169.032 132.112H170.488C170.319 130.578 169.214 130.058 167.823 130.058C166.549 130.058 165.275 130.734 165.275 132.099C165.275 133.373 165.938 133.88 167.732 134.166C168.733 134.335 169.188 134.543 169.188 135.102C169.188 135.674 168.811 135.973 167.966 135.973C167.043 135.973 166.692 135.57 166.614 134.881H165.132C165.197 136.324 166.224 137.13 167.979 137.13ZM175.979 129.083C176.499 129.083 176.915 128.693 176.915 128.186C176.915 127.666 176.499 127.276 175.979 127.276C175.459 127.276 175.043 127.666 175.043 128.186C175.043 128.693 175.459 129.083 175.979 129.083ZM174.276 139.444C176.161 139.418 176.785 138.612 176.785 137.234V130.201H175.212V137.273C175.212 137.845 174.965 138.183 174.276 138.235V139.444ZM181.693 137.13C183.435 137.13 184.592 136.35 184.813 134.92H183.292C183.175 135.583 182.681 135.96 181.732 135.96C180.562 135.96 179.912 135.232 179.86 133.945H184.839V133.49C184.839 131.059 183.318 130.058 181.628 130.058C179.691 130.058 178.248 131.462 178.248 133.568V133.672C178.248 135.817 179.691 137.13 181.693 137.13ZM179.886 132.892C180.042 131.839 180.679 131.202 181.628 131.202C182.603 131.202 183.201 131.722 183.279 132.892H179.886ZM186.283 137H187.856V127.055H186.283V137ZM189.812 137H191.385V127.055H189.812V137ZM194.056 139.327H195.603L199.308 130.201H197.774L196.11 134.582L194.303 130.201H192.6L195.291 136.311L194.056 139.327ZM207.381 137.13C209.136 137.13 210.397 135.804 210.397 133.62V133.516C210.397 131.319 209.084 130.058 207.381 130.058C206.38 130.058 205.535 130.643 205.158 131.293V127.055H203.585V137H205.158V135.908C205.522 136.597 206.302 137.13 207.381 137.13ZM206.991 135.882C205.847 135.882 205.106 135.167 205.106 133.646V133.542C205.106 132.034 205.886 131.293 206.978 131.293C208.005 131.293 208.785 132.034 208.785 133.542V133.646C208.785 135.102 208.148 135.882 206.991 135.882ZM214.802 137.13C216.544 137.13 217.701 136.35 217.922 134.92H216.401C216.284 135.583 215.79 135.96 214.841 135.96C213.671 135.96 213.021 135.232 212.969 133.945H217.948V133.49C217.948 131.059 216.427 130.058 214.737 130.058C212.8 130.058 211.357 131.462 211.357 133.568V133.672C211.357 135.817 212.8 137.13 214.802 137.13ZM212.995 132.892C213.151 131.839 213.788 131.202 214.737 131.202C215.712 131.202 216.31 131.722 216.388 132.892H212.995ZM221.197 137.13C222.237 137.13 222.835 136.753 223.277 136.168V137H224.824V132.541C224.824 130.682 223.628 130.058 222.107 130.058C220.586 130.058 219.325 130.721 219.195 132.307H220.716C220.794 131.631 221.197 131.241 222.016 131.241C222.939 131.241 223.251 131.696 223.251 132.606V132.957H222.406C220.456 132.957 218.922 133.529 218.922 135.115C218.922 136.532 219.949 137.13 221.197 137.13ZM221.574 135.999C220.794 135.999 220.482 135.622 220.482 135.05C220.482 134.218 221.249 133.945 222.445 133.945H223.251V134.621C223.251 135.492 222.536 135.999 221.574 135.999ZM226.627 137H228.2V132.996C228.2 131.917 228.915 131.371 229.799 131.371C230.735 131.371 231.151 131.839 231.151 132.866V137H232.724V132.723C232.724 130.851 231.762 130.058 230.397 130.058C229.279 130.058 228.525 130.617 228.2 131.28V130.201H226.627V137ZM236.864 137.13C238.606 137.13 239.581 136.337 239.581 134.959C239.581 133.516 238.632 133.126 237.033 132.879C235.954 132.697 235.629 132.502 235.629 132.008C235.629 131.527 236.032 131.202 236.708 131.202C237.436 131.202 237.787 131.488 237.917 132.112H239.373C239.204 130.578 238.099 130.058 236.708 130.058C235.434 130.058 234.16 130.734 234.16 132.099C234.16 133.373 234.823 133.88 236.617 134.166C237.618 134.335 238.073 134.543 238.073 135.102C238.073 135.674 237.696 135.973 236.851 135.973C235.928 135.973 235.577 135.57 235.499 134.881H234.017C234.082 136.324 235.109 137.13 236.864 137.13ZM247.035 137.13C248.881 137.13 250.064 136.025 250.181 134.465H248.738C248.647 135.427 247.932 135.921 247.1 135.921C245.943 135.921 245.215 135.141 245.215 133.659V133.555C245.215 132.151 245.982 131.319 247.061 131.319C247.893 131.319 248.491 131.696 248.621 132.606H250.142C249.96 130.734 248.543 130.058 247.035 130.058C245.137 130.058 243.603 131.423 243.603 133.581V133.685C243.603 135.856 245.085 137.13 247.035 137.13ZM253.329 137.13C254.369 137.13 254.967 136.753 255.409 136.168V137H256.956V132.541C256.956 130.682 255.76 130.058 254.239 130.058C252.718 130.058 251.457 130.721 251.327 132.307H252.848C252.926 131.631 253.329 131.241 254.148 131.241C255.071 131.241 255.383 131.696 255.383 132.606V132.957H254.538C252.588 132.957 251.054 133.529 251.054 135.115C251.054 136.532 252.081 137.13 253.329 137.13ZM253.706 135.999C252.926 135.999 252.614 135.622 252.614 135.05C252.614 134.218 253.381 133.945 254.577 133.945H255.383V134.621C255.383 135.492 254.668 135.999 253.706 135.999ZM258.759 137H260.332V133.464C260.332 132.021 261.164 131.579 262.542 131.566V130.097C261.398 130.11 260.761 130.617 260.332 131.475V130.201H258.759V137ZM263.926 137H265.499V133.464C265.499 132.021 266.331 131.579 267.709 131.566V130.097C266.565 130.11 265.928 130.617 265.499 131.475V130.201H263.926V137ZM271.983 137.13C273.985 137.13 275.48 135.752 275.48 133.633V133.529C275.48 131.449 273.985 130.058 271.996 130.058C269.994 130.058 268.499 131.462 268.499 133.568V133.672C268.499 135.739 269.981 137.13 271.983 137.13ZM271.996 135.908C270.8 135.908 270.111 135.037 270.111 133.646V133.542C270.111 132.138 270.826 131.293 271.996 131.293C273.166 131.293 273.868 132.151 273.868 133.555V133.646C273.868 135.037 273.166 135.908 271.996 135.908ZM279.215 137.117C279.696 137.117 280.034 137.039 280.281 136.948V135.7C280.06 135.791 279.826 135.83 279.514 135.83C279.02 135.83 278.734 135.557 278.734 134.959V131.384H280.229V130.201H278.734V128.706H277.161V130.201H276.251V131.384H277.161V135.102C277.161 136.389 277.863 137.117 279.215 137.117ZM287.774 137.13C289.62 137.13 290.803 136.025 290.92 134.465H289.477C289.386 135.427 288.671 135.921 287.839 135.921C286.682 135.921 285.954 135.141 285.954 133.659V133.555C285.954 132.151 286.721 131.319 287.8 131.319C288.632 131.319 289.23 131.696 289.36 132.606H290.881C290.699 130.734 289.282 130.058 287.774 130.058C285.876 130.058 284.342 131.423 284.342 133.581V133.685C284.342 135.856 285.824 137.13 287.774 137.13ZM294.069 137.13C295.109 137.13 295.707 136.753 296.149 136.168V137H297.696V132.541C297.696 130.682 296.5 130.058 294.979 130.058C293.458 130.058 292.197 130.721 292.067 132.307H293.588C293.666 131.631 294.069 131.241 294.888 131.241C295.811 131.241 296.123 131.696 296.123 132.606V132.957H295.278C293.328 132.957 291.794 133.529 291.794 135.115C291.794 136.532 292.821 137.13 294.069 137.13ZM294.446 135.999C293.666 135.999 293.354 135.622 293.354 135.05C293.354 134.218 294.121 133.945 295.317 133.945H296.123V134.621C296.123 135.492 295.408 135.999 294.446 135.999ZM299.499 137H301.072V133.659L303.62 137H305.44L302.58 133.321L305.219 130.201H303.503L301.072 133.191V127.055H299.499V137ZM309.204 137.13C310.946 137.13 312.103 136.35 312.324 134.92H310.803C310.686 135.583 310.192 135.96 309.243 135.96C308.073 135.96 307.423 135.232 307.371 133.945H312.35V133.49C312.35 131.059 310.829 130.058 309.139 130.058C307.202 130.058 305.759 131.462 305.759 133.568V133.672C305.759 135.817 307.202 137.13 309.204 137.13ZM307.397 132.892C307.553 131.839 308.19 131.202 309.139 131.202C310.114 131.202 310.712 131.722 310.79 132.892H307.397ZM314.628 137.091C315.213 137.091 315.668 136.649 315.668 136.077C315.668 135.505 315.213 135.05 314.628 135.05C314.056 135.05 313.601 135.505 313.601 136.077C313.601 136.649 314.056 137.091 314.628 137.091ZM114.424 153.117C116.14 153.117 117.297 152.194 117.297 150.179V143.705H115.555V150.14C115.555 151.284 115.009 151.726 114.164 151.726C113.618 151.726 113.293 151.622 112.968 151.492V152.844C113.267 153 113.657 153.117 114.424 153.117ZM121.462 153.13C122.567 153.13 123.282 152.597 123.62 151.934V153H125.193V146.201H123.62V150.244C123.62 151.323 122.879 151.869 122.034 151.869C121.124 151.869 120.695 151.401 120.695 150.374V146.201H119.122V150.556C119.122 152.363 120.123 153.13 121.462 153.13ZM127.864 145.083C128.384 145.083 128.8 144.693 128.8 144.186C128.8 143.666 128.384 143.276 127.864 143.276C127.344 143.276 126.928 143.666 126.928 144.186C126.928 144.693 127.344 145.083 127.864 145.083ZM126.161 155.444C128.046 155.418 128.67 154.612 128.67 153.234V146.201H127.097V153.273C127.097 153.845 126.85 154.183 126.161 154.235V155.444ZM132.862 153.13C133.967 153.13 134.682 152.597 135.02 151.934V153H136.593V146.201H135.02V150.244C135.02 151.323 134.279 151.869 133.434 151.869C132.524 151.869 132.095 151.401 132.095 150.374V146.201H130.522V150.556C130.522 152.363 131.523 153.13 132.862 153.13ZM142.254 153.13C144.009 153.13 145.27 151.804 145.27 149.62V149.516C145.27 147.319 143.957 146.058 142.254 146.058C141.253 146.058 140.408 146.643 140.031 147.293V143.055H138.458V153H140.031V151.908C140.395 152.597 141.175 153.13 142.254 153.13ZM141.864 151.882C140.72 151.882 139.979 151.167 139.979 149.646V149.542C139.979 148.034 140.759 147.293 141.851 147.293C142.878 147.293 143.658 148.034 143.658 149.542V149.646C143.658 151.102 143.021 151.882 141.864 151.882ZM149.675 153.13C151.417 153.13 152.574 152.35 152.795 150.92H151.274C151.157 151.583 150.663 151.96 149.714 151.96C148.544 151.96 147.894 151.232 147.842 149.945H152.821V149.49C152.821 147.059 151.3 146.058 149.61 146.058C147.673 146.058 146.23 147.462 146.23 149.568V149.672C146.23 151.817 147.673 153.13 149.675 153.13ZM147.868 148.892C148.024 147.839 148.661 147.202 149.61 147.202C150.585 147.202 151.183 147.722 151.261 148.892H147.868ZM156.617 153.13C158.359 153.13 159.334 152.337 159.334 150.959C159.334 149.516 158.385 149.126 156.786 148.879C155.707 148.697 155.382 148.502 155.382 148.008C155.382 147.527 155.785 147.202 156.461 147.202C157.189 147.202 157.54 147.488 157.67 148.112H159.126C158.957 146.578 157.852 146.058 156.461 146.058C155.187 146.058 153.913 146.734 153.913 148.099C153.913 149.373 154.576 149.88 156.37 150.166C157.371 150.335 157.826 150.543 157.826 151.102C157.826 151.674 157.449 151.973 156.604 151.973C155.681 151.973 155.33 151.57 155.252 150.881H153.77C153.835 152.324 154.862 153.13 156.617 153.13ZM166.788 153.13C168.634 153.13 169.817 152.025 169.934 150.465H168.491C168.4 151.427 167.685 151.921 166.853 151.921C165.696 151.921 164.968 151.141 164.968 149.659V149.555C164.968 148.151 165.735 147.319 166.814 147.319C167.646 147.319 168.244 147.696 168.374 148.606H169.895C169.713 146.734 168.296 146.058 166.788 146.058C164.89 146.058 163.356 147.423 163.356 149.581V149.685C163.356 151.856 164.838 153.13 166.788 153.13ZM173.082 153.13C174.122 153.13 174.72 152.753 175.162 152.168V153H176.709V148.541C176.709 146.682 175.513 146.058 173.992 146.058C172.471 146.058 171.21 146.721 171.08 148.307H172.601C172.679 147.631 173.082 147.241 173.901 147.241C174.824 147.241 175.136 147.696 175.136 148.606V148.957H174.291C172.341 148.957 170.807 149.529 170.807 151.115C170.807 152.532 171.834 153.13 173.082 153.13ZM173.459 151.999C172.679 151.999 172.367 151.622 172.367 151.05C172.367 150.218 173.134 149.945 174.33 149.945H175.136V150.621C175.136 151.492 174.421 151.999 173.459 151.999ZM178.512 153H180.085V149.659L182.633 153H184.453L181.593 149.321L184.232 146.201H182.516L180.085 149.191V143.055H178.512V153ZM188.218 153.13C189.96 153.13 191.117 152.35 191.338 150.92H189.817C189.7 151.583 189.206 151.96 188.257 151.96C187.087 151.96 186.437 151.232 186.385 149.945H191.364V149.49C191.364 147.059 189.843 146.058 188.153 146.058C186.216 146.058 184.773 147.462 184.773 149.568V149.672C184.773 151.817 186.216 153.13 188.218 153.13ZM186.411 148.892C186.567 147.839 187.204 147.202 188.153 147.202C189.128 147.202 189.726 147.722 189.804 148.892H186.411Z" fill="white"/>
<path d="M117.635 201.13C119.845 201.13 121.431 199.999 121.704 197.763H120.014C119.832 199.076 118.922 199.726 117.635 199.726C115.919 199.726 114.918 198.491 114.918 196.398V196.294C114.918 194.214 115.984 192.94 117.622 192.94C118.961 192.94 119.65 193.577 119.845 194.812H121.6C121.392 192.628 119.741 191.562 117.609 191.562C115.022 191.562 113.098 193.512 113.098 196.307V196.411C113.098 199.271 114.723 201.13 117.635 201.13ZM123.072 201H124.645V196.996C124.645 195.917 125.36 195.371 126.244 195.371C127.18 195.371 127.596 195.839 127.596 196.866V201H129.169V196.723C129.169 194.851 128.207 194.058 126.842 194.058C125.724 194.058 124.97 194.617 124.645 195.28V191.055H123.072V201ZM134.01 201.13C136.012 201.13 137.507 199.752 137.507 197.633V197.529C137.507 195.449 136.012 194.058 134.023 194.058C132.021 194.058 130.526 195.462 130.526 197.568V197.672C130.526 199.739 132.008 201.13 134.01 201.13ZM134.023 199.908C132.827 199.908 132.138 199.037 132.138 197.646V197.542C132.138 196.138 132.853 195.293 134.023 195.293C135.193 195.293 135.895 196.151 135.895 197.555V197.646C135.895 199.037 135.193 199.908 134.023 199.908ZM141.905 201.13C143.751 201.13 144.934 200.025 145.051 198.465H143.608C143.517 199.427 142.802 199.921 141.97 199.921C140.813 199.921 140.085 199.141 140.085 197.659V197.555C140.085 196.151 140.852 195.319 141.931 195.319C142.763 195.319 143.361 195.696 143.491 196.606H145.012C144.83 194.734 143.413 194.058 141.905 194.058C140.007 194.058 138.473 195.423 138.473 197.581V197.685C138.473 199.856 139.955 201.13 141.905 201.13ZM149.435 201.13C151.437 201.13 152.932 199.752 152.932 197.633V197.529C152.932 195.449 151.437 194.058 149.448 194.058C147.446 194.058 145.951 195.462 145.951 197.568V197.672C145.951 199.739 147.433 201.13 149.435 201.13ZM149.448 199.908C148.252 199.908 147.563 199.037 147.563 197.646V197.542C147.563 196.138 148.278 195.293 149.448 195.293C150.618 195.293 151.32 196.151 151.32 197.555V197.646C151.32 199.037 150.618 199.908 149.448 199.908ZM154.392 201H155.965V191.055H154.392V201ZM159.663 201.13C160.703 201.13 161.301 200.753 161.743 200.168V201H163.29V196.541C163.29 194.682 162.094 194.058 160.573 194.058C159.052 194.058 157.791 194.721 157.661 196.307H159.182C159.26 195.631 159.663 195.241 160.482 195.241C161.405 195.241 161.717 195.696 161.717 196.606V196.957H160.872C158.922 196.957 157.388 197.529 157.388 199.115C157.388 200.532 158.415 201.13 159.663 201.13ZM160.04 199.999C159.26 199.999 158.948 199.622 158.948 199.05C158.948 198.218 159.715 197.945 160.911 197.945H161.717V198.621C161.717 199.492 161.002 199.999 160.04 199.999ZM167.395 201.117C167.876 201.117 168.214 201.039 168.461 200.948V199.7C168.24 199.791 168.006 199.83 167.694 199.83C167.2 199.83 166.914 199.557 166.914 198.959V195.384H168.409V194.201H166.914V192.706H165.341V194.201H164.431V195.384H165.341V199.102C165.341 200.389 166.043 201.117 167.395 201.117ZM172.869 201.13C174.611 201.13 175.768 200.35 175.989 198.92H174.468C174.351 199.583 173.857 199.96 172.908 199.96C171.738 199.96 171.088 199.232 171.036 197.945H176.015V197.49C176.015 195.059 174.494 194.058 172.804 194.058C170.867 194.058 169.424 195.462 169.424 197.568V197.672C169.424 199.817 170.867 201.13 172.869 201.13ZM171.062 196.892C171.218 195.839 171.855 195.202 172.804 195.202C173.779 195.202 174.377 195.722 174.455 196.892H171.062ZM184.314 201.13C186.069 201.13 187.33 199.804 187.33 197.62V197.516C187.33 195.319 186.017 194.058 184.314 194.058C183.313 194.058 182.468 194.643 182.091 195.293V191.055H180.518V201H182.091V199.908C182.455 200.597 183.235 201.13 184.314 201.13ZM183.924 199.882C182.78 199.882 182.039 199.167 182.039 197.646V197.542C182.039 196.034 182.819 195.293 183.911 195.293C184.938 195.293 185.718 196.034 185.718 197.542V197.646C185.718 199.102 185.081 199.882 183.924 199.882ZM190.526 201.13C191.566 201.13 192.164 200.753 192.606 200.168V201H194.153V196.541C194.153 194.682 192.957 194.058 191.436 194.058C189.915 194.058 188.654 194.721 188.524 196.307H190.045C190.123 195.631 190.526 195.241 191.345 195.241C192.268 195.241 192.58 195.696 192.58 196.606V196.957H191.735C189.785 196.957 188.251 197.529 188.251 199.115C188.251 200.532 189.278 201.13 190.526 201.13ZM190.903 199.999C190.123 199.999 189.811 199.622 189.811 199.05C189.811 198.218 190.578 197.945 191.774 197.945H192.58V198.621C192.58 199.492 191.865 199.999 190.903 199.999ZM195.956 201H197.529V197.464C197.529 196.021 198.361 195.579 199.739 195.566V194.097C198.595 194.11 197.958 194.617 197.529 195.475V194.201H195.956V201ZM207.197 201.13C209.043 201.13 210.226 200.025 210.343 198.465H208.9C208.809 199.427 208.094 199.921 207.262 199.921C206.105 199.921 205.377 199.141 205.377 197.659V197.555C205.377 196.151 206.144 195.319 207.223 195.319C208.055 195.319 208.653 195.696 208.783 196.606H210.304C210.122 194.734 208.705 194.058 207.197 194.058C205.299 194.058 203.765 195.423 203.765 197.581V197.685C203.765 199.856 205.247 201.13 207.197 201.13ZM213.491 201.13C214.531 201.13 215.129 200.753 215.571 200.168V201H217.118V196.541C217.118 194.682 215.922 194.058 214.401 194.058C212.88 194.058 211.619 194.721 211.489 196.307H213.01C213.088 195.631 213.491 195.241 214.31 195.241C215.233 195.241 215.545 195.696 215.545 196.606V196.957H214.7C212.75 196.957 211.216 197.529 211.216 199.115C211.216 200.532 212.243 201.13 213.491 201.13ZM213.868 199.999C213.088 199.999 212.776 199.622 212.776 199.05C212.776 198.218 213.543 197.945 214.739 197.945H215.545V198.621C215.545 199.492 214.83 199.999 213.868 199.999ZM218.921 201H220.494V197.464C220.494 196.021 221.326 195.579 222.704 195.566V194.097C221.56 194.11 220.923 194.617 220.494 195.475V194.201H218.921V201ZM225.768 201.13C226.808 201.13 227.406 200.753 227.848 200.168V201H229.395V196.541C229.395 194.682 228.199 194.058 226.678 194.058C225.157 194.058 223.896 194.721 223.766 196.307H225.287C225.365 195.631 225.768 195.241 226.587 195.241C227.51 195.241 227.822 195.696 227.822 196.606V196.957H226.977C225.027 196.957 223.493 197.529 223.493 199.115C223.493 200.532 224.52 201.13 225.768 201.13ZM226.145 199.999C225.365 199.999 225.053 199.622 225.053 199.05C225.053 198.218 225.82 197.945 227.016 197.945H227.822V198.621C227.822 199.492 227.107 199.999 226.145 199.999ZM231.198 201H232.771V196.931C232.771 195.891 233.486 195.371 234.266 195.371C235.033 195.371 235.475 195.8 235.475 196.801V201H237.048V196.931C237.048 195.891 237.763 195.371 238.543 195.371C239.323 195.371 239.752 195.8 239.752 196.801V201H241.325V196.697C241.325 194.825 240.311 194.058 239.063 194.058C238.218 194.058 237.282 194.435 236.762 195.28C236.424 194.435 235.722 194.058 234.838 194.058C233.837 194.058 233.096 194.604 232.771 195.241V194.201H231.198V201ZM246.121 201.13C247.863 201.13 249.02 200.35 249.241 198.92H247.72C247.603 199.583 247.109 199.96 246.16 199.96C244.99 199.96 244.34 199.232 244.288 197.945H249.267V197.49C249.267 195.059 247.746 194.058 246.056 194.058C244.119 194.058 242.676 195.462 242.676 197.568V197.672C242.676 199.817 244.119 201.13 246.121 201.13ZM244.314 196.892C244.47 195.839 245.107 195.202 246.056 195.202C247.031 195.202 247.629 195.722 247.707 196.892H244.314ZM250.711 201H252.284V191.055H250.711V201ZM256.529 201.13C258.271 201.13 259.246 200.337 259.246 198.959C259.246 197.516 258.297 197.126 256.698 196.879C255.619 196.697 255.294 196.502 255.294 196.008C255.294 195.527 255.697 195.202 256.373 195.202C257.101 195.202 257.452 195.488 257.582 196.112H259.038C258.869 194.578 257.764 194.058 256.373 194.058C255.099 194.058 253.825 194.734 253.825 196.099C253.825 197.373 254.488 197.88 256.282 198.166C257.283 198.335 257.738 198.543 257.738 199.102C257.738 199.674 257.361 199.973 256.516 199.973C255.593 199.973 255.242 199.57 255.164 198.881H253.682C253.747 200.324 254.774 201.13 256.529 201.13ZM266.7 201.13C268.546 201.13 269.729 200.025 269.846 198.465H268.403C268.312 199.427 267.597 199.921 266.765 199.921C265.608 199.921 264.88 199.141 264.88 197.659V197.555C264.88 196.151 265.647 195.319 266.726 195.319C267.558 195.319 268.156 195.696 268.286 196.606H269.807C269.625 194.734 268.208 194.058 266.7 194.058C264.802 194.058 263.268 195.423 263.268 197.581V197.685C263.268 199.856 264.75 201.13 266.7 201.13ZM272.994 201.13C274.034 201.13 274.632 200.753 275.074 200.168V201H276.621V196.541C276.621 194.682 275.425 194.058 273.904 194.058C272.383 194.058 271.122 194.721 270.992 196.307H272.513C272.591 195.631 272.994 195.241 273.813 195.241C274.736 195.241 275.048 195.696 275.048 196.606V196.957H274.203C272.253 196.957 270.719 197.529 270.719 199.115C270.719 200.532 271.746 201.13 272.994 201.13ZM273.371 199.999C272.591 199.999 272.279 199.622 272.279 199.05C272.279 198.218 273.046 197.945 274.242 197.945H275.048V198.621C275.048 199.492 274.333 199.999 273.371 199.999ZM278.424 201H279.997V197.464C279.997 196.021 280.829 195.579 282.207 195.566V194.097C281.063 194.11 280.426 194.617 279.997 195.475V194.201H278.424V201ZM283.591 201H285.164V197.464C285.164 196.021 285.996 195.579 287.374 195.566V194.097C286.23 194.11 285.593 194.617 285.164 195.475V194.201H283.591V201ZM291.648 201.13C293.65 201.13 295.145 199.752 295.145 197.633V197.529C295.145 195.449 293.65 194.058 291.661 194.058C289.659 194.058 288.164 195.462 288.164 197.568V197.672C288.164 199.739 289.646 201.13 291.648 201.13ZM291.661 199.908C290.465 199.908 289.776 199.037 289.776 197.646V197.542C289.776 196.138 290.491 195.293 291.661 195.293C292.831 195.293 293.533 196.151 293.533 197.555V197.646C293.533 199.037 292.831 199.908 291.661 199.908ZM298.88 201.117C299.361 201.117 299.699 201.039 299.946 200.948V199.7C299.725 199.791 299.491 199.83 299.179 199.83C298.685 199.83 298.399 199.557 298.399 198.959V195.384H299.894V194.201H298.399V192.706H296.826V194.201H295.916V195.384H296.826V199.102C296.826 200.389 297.528 201.117 298.88 201.117ZM307.439 201.13C309.285 201.13 310.468 200.025 310.585 198.465H309.142C309.051 199.427 308.336 199.921 307.504 199.921C306.347 199.921 305.619 199.141 305.619 197.659V197.555C305.619 196.151 306.386 195.319 307.465 195.319C308.297 195.319 308.895 195.696 309.025 196.606H310.546C310.364 194.734 308.947 194.058 307.439 194.058C305.541 194.058 304.007 195.423 304.007 197.581V197.685C304.007 199.856 305.489 201.13 307.439 201.13ZM313.734 201.13C314.774 201.13 315.372 200.753 315.814 200.168V201H317.361V196.541C317.361 194.682 316.165 194.058 314.644 194.058C313.123 194.058 311.862 194.721 311.732 196.307H313.253C313.331 195.631 313.734 195.241 314.553 195.241C315.476 195.241 315.788 195.696 315.788 196.606V196.957H314.943C312.993 196.957 311.459 197.529 311.459 199.115C311.459 200.532 312.486 201.13 313.734 201.13ZM314.111 199.999C313.331 199.999 313.019 199.622 313.019 199.05C313.019 198.218 313.786 197.945 314.982 197.945H315.788V198.621C315.788 199.492 315.073 199.999 314.111 199.999ZM319.164 201H320.737V197.659L323.285 201H325.105L322.245 197.321L324.884 194.201H323.168L320.737 197.191V191.055H319.164V201ZM328.869 201.13C330.611 201.13 331.768 200.35 331.989 198.92H330.468C330.351 199.583 329.857 199.96 328.908 199.96C327.738 199.96 327.088 199.232 327.036 197.945H332.015V197.49C332.015 195.059 330.494 194.058 328.804 194.058C326.867 194.058 325.424 195.462 325.424 197.568V197.672C325.424 199.817 326.867 201.13 328.869 201.13ZM327.062 196.892C327.218 195.839 327.855 195.202 328.804 195.202C329.779 195.202 330.377 195.722 330.455 196.892H327.062ZM115.75 217.117C116.231 217.117 116.569 217.039 116.816 216.948V215.7C116.595 215.791 116.361 215.83 116.049 215.83C115.555 215.83 115.269 215.557 115.269 214.959V211.384H116.764V210.201H115.269V208.706H113.696V210.201H112.786V211.384H113.696V215.102C113.696 216.389 114.398 217.117 115.75 217.117ZM119.041 209.083C119.561 209.083 119.977 208.693 119.977 208.186C119.977 207.666 119.561 207.276 119.041 207.276C118.521 207.276 118.105 207.666 118.105 208.186C118.105 208.693 118.521 209.083 119.041 209.083ZM118.274 217H119.847V210.201H118.274V217ZM121.764 217H123.337V213.464C123.337 212.021 124.169 211.579 125.547 211.566V210.097C124.403 210.11 123.766 210.617 123.337 211.475V210.201H121.764V217ZM128.611 217.13C129.651 217.13 130.249 216.753 130.691 216.168V217H132.238V212.541C132.238 210.682 131.042 210.058 129.521 210.058C128 210.058 126.739 210.721 126.609 212.307H128.13C128.208 211.631 128.611 211.241 129.43 211.241C130.353 211.241 130.665 211.696 130.665 212.606V212.957H129.82C127.87 212.957 126.336 213.529 126.336 215.115C126.336 216.532 127.363 217.13 128.611 217.13ZM128.988 215.999C128.208 215.999 127.896 215.622 127.896 215.05C127.896 214.218 128.663 213.945 129.859 213.945H130.665V214.621C130.665 215.492 129.95 215.999 128.988 215.999ZM134.04 217H135.613V212.931C135.613 211.891 136.328 211.371 137.108 211.371C137.875 211.371 138.317 211.8 138.317 212.801V217H139.89V212.931C139.89 211.891 140.605 211.371 141.385 211.371C142.165 211.371 142.594 211.8 142.594 212.801V217H144.167V212.697C144.167 210.825 143.153 210.058 141.905 210.058C141.06 210.058 140.124 210.435 139.604 211.28C139.266 210.435 138.564 210.058 137.68 210.058C136.679 210.058 135.938 210.604 135.613 211.241V210.201H134.04V217ZM146.78 209.083C147.3 209.083 147.716 208.693 147.716 208.186C147.716 207.666 147.3 207.276 146.78 207.276C146.26 207.276 145.844 207.666 145.844 208.186C145.844 208.693 146.26 209.083 146.78 209.083ZM146.013 217H147.586V210.201H146.013V217ZM151.83 217.13C153.572 217.13 154.547 216.337 154.547 214.959C154.547 213.516 153.598 213.126 151.999 212.879C150.92 212.697 150.595 212.502 150.595 212.008C150.595 211.527 150.998 211.202 151.674 211.202C152.402 211.202 152.753 211.488 152.883 212.112H154.339C154.17 210.578 153.065 210.058 151.674 210.058C150.4 210.058 149.126 210.734 149.126 212.099C149.126 213.373 149.789 213.88 151.583 214.166C152.584 214.335 153.039 214.543 153.039 215.102C153.039 215.674 152.662 215.973 151.817 215.973C150.894 215.973 150.543 215.57 150.465 214.881H148.983C149.048 216.324 150.075 217.13 151.83 217.13ZM158.202 217.13C159.307 217.13 160.022 216.597 160.36 215.934V217H161.933V210.201H160.36V214.244C160.36 215.323 159.619 215.869 158.774 215.869C157.864 215.869 157.435 215.401 157.435 214.374V210.201H155.862V214.556C155.862 216.363 156.863 217.13 158.202 217.13Z" fill="white"/>
<path d="M90 128.5V141.5H86.4H85.35L84.62 142.25L80.49 146.45L76.27 142.23L75.54 141.5H74.5H71V128.5H90ZM92.5 126H68.5V144H74.5L80.5 150L86.4 144H92.5V126Z" fill="white"/>
<path fill-rule="evenodd" clip-rule="evenodd" d="M77 76.5V79H74V76.5C74 72.92 76.92 70 80.5 70C84.08 70 87 72.92 87 76.5V79H84V76.5C84 74.57 82.43 73 80.5 73C78.57 73 77 74.57 77 76.5ZM70.5 94V80H90.5V94H70.5ZM81.5 91V86.72C82.1 86.38 82.5 85.74 82.5 85C82.5 83.9 81.6 83 80.5 83C79.4 83 78.5 83.9 78.5 85C78.5 85.74 78.9 86.38 79.5 86.72V91H81.5Z" fill="white"/>
<path d="M73.4 205.6L67.74 200.9L69.34 198.98L72.86 201.9L79.31 192.24L85.72 199.16L89.28 194.58L91.25 196.11L85.89 203.01L79.63 196.26L73.4 205.6Z" fill="white"/>
<defs>
<filter id="filter0_ddd" x="21" y="20" width="365" height="247" filterUnits="userSpaceOnUse" color-interpolation-filters="sRGB">
<feFlood flood-opacity="0" result="BackgroundImageFix"/>
<feColorMatrix in="SourceAlpha" type="matrix" values="0 0 0 0 0 0 0 0 0 0 0 0 0 0 0 0 0 0 127 0"/>
<feOffset dy="3"/>
<feGaussianBlur stdDeviation="2.5"/>
<feColorMatrix type="matrix" values="0 0 0 0 0 0 0 0 0 0 0 0 0 0 0 0 0 0 0.2 0"/>
<feBlend mode="normal" in2="BackgroundImageFix" result="effect1_dropShadow"/>
<feColorMatrix in="SourceAlpha" type="matrix" values="0 0 0 0 0 0 0 0 0 0 0 0 0 0 0 0 0 0 127 0"/>
<feOffset dy="1"/>
<feGaussianBlur stdDeviation="9"/>
<feColorMatrix type="matrix" values="0 0 0 0 0 0 0 0 0 0 0 0 0 0 0 0 0 0 0.12 0"/>
<feBlend mode="normal" in2="effect1_dropShadow" result="effect2_dropShadow"/>
<feColorMatrix in="SourceAlpha" type="matrix" values="0 0 0 0 0 0 0 0 0 0 0 0 0 0 0 0 0 0 127 0"/>
<feOffset dy="6"/>
<feGaussianBlur stdDeviation="5"/>
<feColorMatrix type="matrix" values="0 0 0 0 0 0 0 0 0 0 0 0 0 0 0 0 0 0 0.14 0"/>
<feBlend mode="normal" in2="effect2_dropShadow" result="effect3_dropShadow"/>
<feBlend mode="normal" in="SourceGraphic" in2="effect3_dropShadow" result="shape"/>
</filter>
</defs>
</svg>
