<svg width="563" height="313" viewBox="0 0 563 313" fill="none" xmlns="http://www.w3.org/2000/svg">
<g clip-path="url(#clip0)">
<g filter="url(#filter0_d)">
<g clip-path="url(#clip1)">
<rect x="25" y="25" width="513" height="195" rx="4" fill="#141519"/>
<rect width="529" height="65" transform="translate(25 25)" fill="#141519"/>
<path d="M49.7727 53.6136V52.3636H58.5V53.6136H54.8409V64H53.4318V53.6136H49.7727ZM62.5967 64.1818C61.8088 64.1818 61.1176 63.9943 60.5229 63.6193C59.932 63.2443 59.4698 62.7197 59.1365 62.0455C58.807 61.3712 58.6422 60.5833 58.6422 59.6818C58.6422 58.7727 58.807 57.9792 59.1365 57.3011C59.4698 56.6231 59.932 56.0966 60.5229 55.7216C61.1176 55.3466 61.8088 55.1591 62.5967 55.1591C63.3846 55.1591 64.074 55.3466 64.6649 55.7216C65.2596 56.0966 65.7217 56.6231 66.0513 57.3011C66.3846 57.9792 66.5513 58.7727 66.5513 59.6818C66.5513 60.5833 66.3846 61.3712 66.0513 62.0455C65.7217 62.7197 65.2596 63.2443 64.6649 63.6193C64.074 63.9943 63.3846 64.1818 62.5967 64.1818ZM62.5967 62.9773C63.1952 62.9773 63.6876 62.8239 64.074 62.517C64.4604 62.2102 64.7463 61.8068 64.932 61.3068C65.1176 60.8068 65.2104 60.2652 65.2104 59.6818C65.2104 59.0985 65.1176 58.5549 64.932 58.0511C64.7463 57.5473 64.4604 57.1402 64.074 56.8295C63.6876 56.5189 63.1952 56.3636 62.5967 56.3636C61.9982 56.3636 61.5058 56.5189 61.1195 56.8295C60.7331 57.1402 60.4471 57.5473 60.2615 58.0511C60.0759 58.5549 59.9831 59.0985 59.9831 59.6818C59.9831 60.2652 60.0759 60.8068 60.2615 61.3068C60.4471 61.8068 60.7331 62.2102 61.1195 62.517C61.5058 62.8239 61.9982 62.9773 62.5967 62.9773Z" fill="white"/>
<path d="M143.409 51.3636H145.091L149.045 61.0227H149.182L153.136 51.3636H154.818V63H153.5V54.1591H153.386L149.75 63H148.477L144.841 54.1591H144.727V63H143.409V51.3636ZM160.831 63.1818C160.043 63.1818 159.352 62.9943 158.757 62.6193C158.166 62.2443 157.704 61.7197 157.371 61.0455C157.041 60.3712 156.877 59.5833 156.877 58.6818C156.877 57.7727 157.041 56.9792 157.371 56.3011C157.704 55.6231 158.166 55.0966 158.757 54.7216C159.352 54.3466 160.043 54.1591 160.831 54.1591C161.619 54.1591 162.308 54.3466 162.899 54.7216C163.494 55.0966 163.956 55.6231 164.286 56.3011C164.619 56.9792 164.786 57.7727 164.786 58.6818C164.786 59.5833 164.619 60.3712 164.286 61.0455C163.956 61.7197 163.494 62.2443 162.899 62.6193C162.308 62.9943 161.619 63.1818 160.831 63.1818ZM160.831 61.9773C161.43 61.9773 161.922 61.8239 162.308 61.517C162.695 61.2102 162.981 60.8068 163.166 60.3068C163.352 59.8068 163.445 59.2652 163.445 58.6818C163.445 58.0985 163.352 57.5549 163.166 57.0511C162.981 56.5473 162.695 56.1402 162.308 55.8295C161.922 55.5189 161.43 55.3636 160.831 55.3636C160.233 55.3636 159.74 55.5189 159.354 55.8295C158.967 56.1402 158.681 56.5473 158.496 57.0511C158.31 57.5549 158.217 58.0985 158.217 58.6818C158.217 59.2652 158.31 59.8068 158.496 60.3068C158.681 60.8068 158.967 61.2102 159.354 61.517C159.74 61.8239 160.233 61.9773 160.831 61.9773ZM166.838 63V51.3636H168.179V55.6591H168.293C168.391 55.5076 168.528 55.3144 168.702 55.0795C168.88 54.8409 169.134 54.6288 169.463 54.4432C169.797 54.2538 170.247 54.1591 170.816 54.1591C171.55 54.1591 172.198 54.3428 172.759 54.7102C173.319 55.0777 173.757 55.5985 174.071 56.2727C174.386 56.947 174.543 57.7424 174.543 58.6591C174.543 59.5833 174.386 60.3845 174.071 61.0625C173.757 61.7367 173.321 62.2595 172.764 62.6307C172.208 62.9981 171.566 63.1818 170.838 63.1818C170.278 63.1818 169.829 63.089 169.492 62.9034C169.155 62.714 168.895 62.5 168.713 62.2614C168.532 62.0189 168.391 61.8182 168.293 61.6591H168.134V63H166.838ZM168.157 58.6364C168.157 59.2955 168.253 59.8769 168.446 60.3807C168.639 60.8807 168.922 61.2727 169.293 61.5568C169.664 61.8371 170.119 61.9773 170.657 61.9773C171.217 61.9773 171.685 61.8295 172.06 61.5341C172.439 61.2348 172.723 60.8333 172.912 60.3295C173.105 59.822 173.202 59.2576 173.202 58.6364C173.202 58.0227 173.107 57.4697 172.918 56.9773C172.732 56.4811 172.45 56.089 172.071 55.8011C171.696 55.5095 171.225 55.3636 170.657 55.3636C170.111 55.3636 169.653 55.5019 169.282 55.7784C168.91 56.0511 168.63 56.4337 168.441 56.9261C168.251 57.4148 168.157 57.9848 168.157 58.6364ZM176.418 63V54.2727H177.759V63H176.418ZM177.1 52.8182C176.838 52.8182 176.613 52.7292 176.424 52.5511C176.238 52.3731 176.145 52.1591 176.145 51.9091C176.145 51.6591 176.238 51.4451 176.424 51.267C176.613 51.089 176.838 51 177.1 51C177.361 51 177.585 51.089 177.77 51.267C177.96 51.4451 178.054 51.6591 178.054 51.9091C178.054 52.1591 177.96 52.3731 177.77 52.5511C177.585 52.7292 177.361 52.8182 177.1 52.8182ZM181.38 51.3636V63H180.039V51.3636H181.38ZM187.319 63.1818C186.478 63.1818 185.753 62.9962 185.143 62.625C184.537 62.25 184.069 61.7273 183.739 61.0568C183.414 60.3826 183.251 59.5985 183.251 58.7045C183.251 57.8106 183.414 57.0227 183.739 56.3409C184.069 55.6553 184.527 55.1212 185.114 54.7386C185.705 54.3523 186.395 54.1591 187.182 54.1591C187.637 54.1591 188.086 54.2348 188.529 54.3864C188.972 54.5379 189.376 54.7841 189.739 55.125C190.103 55.4621 190.393 55.9091 190.609 56.4659C190.825 57.0227 190.932 57.7083 190.932 58.5227V59.0909H184.205V57.9318H189.569C189.569 57.4394 189.47 57 189.273 56.6136C189.08 56.2273 188.804 55.9223 188.444 55.6989C188.088 55.4754 187.667 55.3636 187.182 55.3636C186.648 55.3636 186.186 55.4962 185.796 55.7614C185.41 56.0227 185.112 56.3636 184.904 56.7841C184.696 57.2045 184.592 57.6553 184.592 58.1364V58.9091C184.592 59.5682 184.705 60.1269 184.932 60.5852C185.164 61.0398 185.484 61.3864 185.893 61.625C186.302 61.8598 186.777 61.9773 187.319 61.9773C187.671 61.9773 187.989 61.928 188.273 61.8295C188.561 61.7273 188.809 61.5758 189.018 61.375C189.226 61.1705 189.387 60.9167 189.501 60.6136L190.796 60.9773C190.66 61.4167 190.431 61.803 190.109 62.1364C189.787 62.4659 189.389 62.7235 188.915 62.9091C188.442 63.0909 187.91 63.1818 187.319 63.1818ZM194.796 61.4091L194.705 62.0227C194.641 62.4545 194.542 62.9167 194.41 63.4091C194.281 63.9015 194.147 64.3655 194.007 64.8011C193.866 65.2367 193.751 65.5833 193.66 65.8409H192.637C192.686 65.5985 192.751 65.2784 192.83 64.8807C192.91 64.483 192.989 64.0379 193.069 63.5455C193.152 63.0568 193.221 62.5568 193.274 62.0455L193.342 61.4091H194.796ZM205.088 63.1818C204.247 63.1818 203.521 62.9962 202.912 62.625C202.306 62.25 201.838 61.7273 201.508 61.0568C201.182 60.3826 201.02 59.5985 201.02 58.7045C201.02 57.8106 201.182 57.0227 201.508 56.3409C201.838 55.6553 202.296 55.1212 202.883 54.7386C203.474 54.3523 204.163 54.1591 204.951 54.1591C205.406 54.1591 205.855 54.2348 206.298 54.3864C206.741 54.5379 207.145 54.7841 207.508 55.125C207.872 55.4621 208.162 55.9091 208.378 56.4659C208.593 57.0227 208.701 57.7083 208.701 58.5227V59.0909H201.974V57.9318H207.338C207.338 57.4394 207.239 57 207.042 56.6136C206.849 56.2273 206.573 55.9223 206.213 55.6989C205.857 55.4754 205.436 55.3636 204.951 55.3636C204.417 55.3636 203.955 55.4962 203.565 55.7614C203.179 56.0227 202.881 56.3636 202.673 56.7841C202.465 57.2045 202.36 57.6553 202.36 58.1364V58.9091C202.36 59.5682 202.474 60.1269 202.701 60.5852C202.932 61.0398 203.253 61.3864 203.662 61.625C204.071 61.8598 204.546 61.9773 205.088 61.9773C205.44 61.9773 205.758 61.928 206.042 61.8295C206.33 61.7273 206.578 61.5758 206.787 61.375C206.995 61.1705 207.156 60.9167 207.27 60.6136L208.565 60.9773C208.429 61.4167 208.199 61.803 207.878 62.1364C207.556 62.4659 207.158 62.7235 206.684 62.9091C206.211 63.0909 205.679 63.1818 205.088 63.1818ZM210.565 63V54.2727H211.861V55.6364H211.974C212.156 55.1705 212.45 54.8087 212.855 54.5511C213.26 54.2898 213.747 54.1591 214.315 54.1591C214.891 54.1591 215.37 54.2898 215.753 54.5511C216.139 54.8087 216.44 55.1705 216.656 55.6364H216.747C216.97 55.1856 217.306 54.8277 217.753 54.5625C218.2 54.2936 218.736 54.1591 219.361 54.1591C220.141 54.1591 220.779 54.4034 221.275 54.892C221.772 55.3769 222.02 56.1326 222.02 57.1591V63H220.679V57.1591C220.679 56.5152 220.503 56.0549 220.15 55.7784C219.798 55.5019 219.383 55.3636 218.906 55.3636C218.292 55.3636 217.817 55.5492 217.48 55.9205C217.143 56.2879 216.974 56.7538 216.974 57.3182V63H215.611V57.0227C215.611 56.5265 215.45 56.1269 215.128 55.8239C214.806 55.517 214.391 55.3636 213.883 55.3636C213.535 55.3636 213.209 55.4564 212.906 55.642C212.607 55.8277 212.364 56.0852 212.179 56.4148C211.997 56.7405 211.906 57.1174 211.906 57.5455V63H210.565ZM226.864 63.2045C226.311 63.2045 225.809 63.1004 225.358 62.892C224.907 62.6799 224.549 62.375 224.284 61.9773C224.019 61.5758 223.886 61.0909 223.886 60.5227C223.886 60.0227 223.985 59.6174 224.182 59.3068C224.379 58.9924 224.642 58.7462 224.972 58.5682C225.301 58.3902 225.665 58.2576 226.062 58.1705C226.464 58.0795 226.867 58.0076 227.273 57.9545C227.803 57.8864 228.233 57.8352 228.562 57.8011C228.896 57.7633 229.138 57.7008 229.29 57.6136C229.445 57.5265 229.523 57.375 229.523 57.1591V57.1136C229.523 56.553 229.369 56.1174 229.062 55.8068C228.759 55.4962 228.299 55.3409 227.682 55.3409C227.042 55.3409 226.54 55.4811 226.176 55.7614C225.812 56.0417 225.557 56.3409 225.409 56.6591L224.136 56.2045C224.364 55.6742 224.667 55.2614 225.045 54.9659C225.428 54.6667 225.845 54.4583 226.295 54.3409C226.75 54.2197 227.197 54.1591 227.636 54.1591C227.917 54.1591 228.239 54.1932 228.602 54.2614C228.97 54.3258 229.324 54.4602 229.665 54.6648C230.009 54.8693 230.295 55.178 230.523 55.5909C230.75 56.0038 230.864 56.5568 230.864 57.25V63H229.523V61.8182H229.454C229.364 62.0076 229.212 62.2102 229 62.4261C228.788 62.642 228.506 62.8258 228.153 62.9773C227.801 63.1288 227.371 63.2045 226.864 63.2045ZM227.068 62C227.598 62 228.045 61.8958 228.409 61.6875C228.776 61.4792 229.053 61.2102 229.239 60.8807C229.428 60.5511 229.523 60.2045 229.523 59.8409V58.6136C229.466 58.6818 229.341 58.7443 229.148 58.8011C228.958 58.8542 228.739 58.9015 228.489 58.9432C228.242 58.9811 228.002 59.0152 227.767 59.0455C227.536 59.072 227.348 59.0947 227.204 59.1136C226.856 59.1591 226.53 59.233 226.227 59.3352C225.928 59.4337 225.686 59.5833 225.5 59.7841C225.318 59.9811 225.227 60.25 225.227 60.5909C225.227 61.0568 225.4 61.4091 225.744 61.6477C226.093 61.8826 226.534 62 227.068 62ZM233.135 63V54.2727H234.476V63H233.135ZM233.817 52.8182C233.555 52.8182 233.33 52.7292 233.141 52.5511C232.955 52.3731 232.862 52.1591 232.862 51.9091C232.862 51.6591 232.955 51.4451 233.141 51.267C233.33 51.089 233.555 51 233.817 51C234.078 51 234.302 51.089 234.487 51.267C234.677 51.4451 234.771 51.6591 234.771 51.9091C234.771 52.1591 234.677 52.3731 234.487 52.5511C234.302 52.7292 234.078 52.8182 233.817 52.8182ZM238.097 51.3636V63H236.756V51.3636H238.097ZM242.377 61.4091L242.286 62.0227C242.221 62.4545 242.123 62.9167 241.99 63.4091C241.862 63.9015 241.727 64.3655 241.587 64.8011C241.447 65.2367 241.331 65.5833 241.24 65.8409H240.218C240.267 65.5985 240.331 65.2784 240.411 64.8807C240.49 64.483 240.57 64.0379 240.649 63.5455C240.733 63.0568 240.801 62.5568 240.854 62.0455L240.922 61.4091H242.377ZM252.555 63.1818C251.767 63.1818 251.075 62.9943 250.481 62.6193C249.89 62.2443 249.428 61.7197 249.094 61.0455C248.765 60.3712 248.6 59.5833 248.6 58.6818C248.6 57.7727 248.765 56.9792 249.094 56.3011C249.428 55.6231 249.89 55.0966 250.481 54.7216C251.075 54.3466 251.767 54.1591 252.555 54.1591C253.342 54.1591 254.032 54.3466 254.623 54.7216C255.217 55.0966 255.68 55.6231 256.009 56.3011C256.342 56.9792 256.509 57.7727 256.509 58.6818C256.509 59.5833 256.342 60.3712 256.009 61.0455C255.68 61.7197 255.217 62.2443 254.623 62.6193C254.032 62.9943 253.342 63.1818 252.555 63.1818ZM252.555 61.9773C253.153 61.9773 253.646 61.8239 254.032 61.517C254.418 61.2102 254.704 60.8068 254.89 60.3068C255.075 59.8068 255.168 59.2652 255.168 58.6818C255.168 58.0985 255.075 57.5549 254.89 57.0511C254.704 56.5473 254.418 56.1402 254.032 55.8295C253.646 55.5189 253.153 55.3636 252.555 55.3636C251.956 55.3636 251.464 55.5189 251.077 55.8295C250.691 56.1402 250.405 56.5473 250.219 57.0511C250.034 57.5549 249.941 58.0985 249.941 58.6818C249.941 59.2652 250.034 59.8068 250.219 60.3068C250.405 60.8068 250.691 61.2102 251.077 61.517C251.464 61.8239 251.956 61.9773 252.555 61.9773ZM258.38 63V54.2727H259.675V55.5909H259.766C259.925 55.1591 260.213 54.8087 260.63 54.5398C261.047 54.2708 261.516 54.1364 262.039 54.1364C262.138 54.1364 262.261 54.1383 262.408 54.142C262.556 54.1458 262.668 54.1515 262.744 54.1591V55.5227C262.698 55.5114 262.594 55.4943 262.431 55.4716C262.272 55.4451 262.104 55.4318 261.925 55.4318C261.501 55.4318 261.122 55.5208 260.789 55.6989C260.46 55.8731 260.198 56.1155 260.005 56.4261C259.816 56.733 259.721 57.0833 259.721 57.4773V63H258.38ZM271.049 63.2045C270.496 63.2045 269.994 63.1004 269.544 62.892C269.093 62.6799 268.735 62.375 268.47 61.9773C268.205 61.5758 268.072 61.0909 268.072 60.5227C268.072 60.0227 268.171 59.6174 268.368 59.3068C268.564 58.9924 268.828 58.7462 269.157 58.5682C269.487 58.3902 269.85 58.2576 270.248 58.1705C270.65 58.0795 271.053 58.0076 271.458 57.9545C271.989 57.8864 272.419 57.8352 272.748 57.8011C273.082 57.7633 273.324 57.7008 273.475 57.6136C273.631 57.5265 273.708 57.375 273.708 57.1591V57.1136C273.708 56.553 273.555 56.1174 273.248 55.8068C272.945 55.4962 272.485 55.3409 271.868 55.3409C271.227 55.3409 270.725 55.4811 270.362 55.7614C269.998 56.0417 269.743 56.3409 269.595 56.6591L268.322 56.2045C268.549 55.6742 268.852 55.2614 269.231 54.9659C269.614 54.6667 270.03 54.4583 270.481 54.3409C270.936 54.2197 271.383 54.1591 271.822 54.1591C272.102 54.1591 272.424 54.1932 272.788 54.2614C273.155 54.3258 273.51 54.4602 273.85 54.6648C274.195 54.8693 274.481 55.178 274.708 55.5909C274.936 56.0038 275.049 56.5568 275.049 57.25V63H273.708V61.8182H273.64C273.549 62.0076 273.398 62.2102 273.186 62.4261C272.974 62.642 272.691 62.8258 272.339 62.9773C271.987 63.1288 271.557 63.2045 271.049 63.2045ZM271.254 62C271.784 62 272.231 61.8958 272.595 61.6875C272.962 61.4792 273.239 61.2102 273.424 60.8807C273.614 60.5511 273.708 60.2045 273.708 59.8409V58.6136C273.652 58.6818 273.527 58.7443 273.333 58.8011C273.144 58.8542 272.924 58.9015 272.674 58.9432C272.428 58.9811 272.188 59.0152 271.953 59.0455C271.722 59.072 271.534 59.0947 271.39 59.1136C271.042 59.1591 270.716 59.233 270.413 59.3352C270.114 59.4337 269.871 59.5833 269.686 59.7841C269.504 59.9811 269.413 60.25 269.413 60.5909C269.413 61.0568 269.585 61.4091 269.93 61.6477C270.278 61.8826 270.72 62 271.254 62ZM280.616 63.1818C279.889 63.1818 279.247 62.9981 278.69 62.6307C278.133 62.2595 277.698 61.7367 277.383 61.0625C277.069 60.3845 276.912 59.5833 276.912 58.6591C276.912 57.7424 277.069 56.947 277.383 56.2727C277.698 55.5985 278.135 55.0777 278.696 54.7102C279.256 54.3428 279.904 54.1591 280.639 54.1591C281.207 54.1591 281.656 54.2538 281.986 54.4432C282.319 54.6288 282.573 54.8409 282.747 55.0795C282.925 55.3144 283.063 55.5076 283.162 55.6591H283.275V51.3636H284.616V63H283.321V61.6591H283.162C283.063 61.8182 282.923 62.0189 282.741 62.2614C282.559 62.5 282.3 62.714 281.963 62.9034C281.626 63.089 281.177 63.1818 280.616 63.1818ZM280.798 61.9773C281.336 61.9773 281.79 61.8371 282.162 61.5568C282.533 61.2727 282.815 60.8807 283.008 60.3807C283.201 59.8769 283.298 59.2955 283.298 58.6364C283.298 57.9848 283.203 57.4148 283.014 56.9261C282.825 56.4337 282.544 56.0511 282.173 55.7784C281.802 55.5019 281.344 55.3636 280.798 55.3636C280.23 55.3636 279.756 55.5095 279.378 55.8011C279.003 56.089 278.72 56.4811 278.531 56.9773C278.345 57.4697 278.253 58.0227 278.253 58.6364C278.253 59.2576 278.347 59.822 278.537 60.3295C278.73 60.8333 279.014 61.2348 279.389 61.5341C279.768 61.8295 280.237 61.9773 280.798 61.9773ZM290.378 63.1818C289.65 63.1818 289.008 62.9981 288.452 62.6307C287.895 62.2595 287.459 61.7367 287.145 61.0625C286.83 60.3845 286.673 59.5833 286.673 58.6591C286.673 57.7424 286.83 56.947 287.145 56.2727C287.459 55.5985 287.897 55.0777 288.457 54.7102C289.018 54.3428 289.666 54.1591 290.4 54.1591C290.969 54.1591 291.417 54.2538 291.747 54.4432C292.08 54.6288 292.334 54.8409 292.508 55.0795C292.686 55.3144 292.825 55.5076 292.923 55.6591H293.037V51.3636H294.378V63H293.082V61.6591H292.923C292.825 61.8182 292.685 62.0189 292.503 62.2614C292.321 62.5 292.061 62.714 291.724 62.9034C291.387 63.089 290.938 63.1818 290.378 63.1818ZM290.56 61.9773C291.097 61.9773 291.552 61.8371 291.923 61.5568C292.294 61.2727 292.577 60.8807 292.77 60.3807C292.963 59.8769 293.06 59.2955 293.06 58.6364C293.06 57.9848 292.965 57.4148 292.775 56.9261C292.586 56.4337 292.306 56.0511 291.935 55.7784C291.563 55.5019 291.105 55.3636 290.56 55.3636C289.991 55.3636 289.518 55.5095 289.139 55.8011C288.764 56.089 288.482 56.4811 288.292 56.9773C288.107 57.4697 288.014 58.0227 288.014 58.6364C288.014 59.2576 288.109 59.822 288.298 60.3295C288.491 60.8333 288.775 61.2348 289.15 61.5341C289.529 61.8295 289.999 61.9773 290.56 61.9773ZM296.844 63V54.2727H298.139V55.5909H298.23C298.389 55.1591 298.677 54.8087 299.094 54.5398C299.51 54.2708 299.98 54.1364 300.503 54.1364C300.601 54.1364 300.724 54.1383 300.872 54.142C301.02 54.1458 301.132 54.1515 301.207 54.1591V55.5227C301.162 55.5114 301.058 55.4943 300.895 55.4716C300.736 55.4451 300.567 55.4318 300.389 55.4318C299.965 55.4318 299.586 55.5208 299.253 55.6989C298.923 55.8731 298.662 56.1155 298.469 56.4261C298.279 56.733 298.185 57.0833 298.185 57.4773V63H296.844ZM306.014 63.1818C305.173 63.1818 304.448 62.9962 303.838 62.625C303.232 62.25 302.764 61.7273 302.435 61.0568C302.109 60.3826 301.946 59.5985 301.946 58.7045C301.946 57.8106 302.109 57.0227 302.435 56.3409C302.764 55.6553 303.223 55.1212 303.81 54.7386C304.401 54.3523 305.09 54.1591 305.878 54.1591C306.333 54.1591 306.781 54.2348 307.225 54.3864C307.668 54.5379 308.071 54.7841 308.435 55.125C308.798 55.4621 309.088 55.9091 309.304 56.4659C309.52 57.0227 309.628 57.7083 309.628 58.5227V59.0909H302.901V57.9318H308.264C308.264 57.4394 308.166 57 307.969 56.6136C307.776 56.2273 307.499 55.9223 307.139 55.6989C306.783 55.4754 306.363 55.3636 305.878 55.3636C305.344 55.3636 304.882 55.4962 304.492 55.7614C304.105 56.0227 303.808 56.3636 303.6 56.7841C303.391 57.2045 303.287 57.6553 303.287 58.1364V58.9091C303.287 59.5682 303.401 60.1269 303.628 60.5852C303.859 61.0398 304.179 61.3864 304.588 61.625C304.997 61.8598 305.473 61.9773 306.014 61.9773C306.367 61.9773 306.685 61.928 306.969 61.8295C307.257 61.7273 307.505 61.5758 307.713 61.375C307.922 61.1705 308.083 60.9167 308.196 60.6136L309.492 60.9773C309.355 61.4167 309.126 61.803 308.804 62.1364C308.482 62.4659 308.084 62.7235 307.611 62.9091C307.137 63.0909 306.605 63.1818 306.014 63.1818ZM317.674 56.2273L316.469 56.5682C316.393 56.3674 316.282 56.1723 316.134 55.983C315.99 55.7898 315.793 55.6307 315.543 55.5057C315.293 55.3807 314.973 55.3182 314.583 55.3182C314.049 55.3182 313.604 55.4413 313.247 55.6875C312.895 55.9299 312.719 56.2386 312.719 56.6136C312.719 56.947 312.84 57.2102 313.083 57.4034C313.325 57.5966 313.704 57.7576 314.219 57.8864L315.514 58.2045C316.295 58.3939 316.876 58.6837 317.259 59.0739C317.641 59.4602 317.833 59.9583 317.833 60.5682C317.833 61.0682 317.689 61.5152 317.401 61.9091C317.117 62.303 316.719 62.6136 316.208 62.8409C315.696 63.0682 315.102 63.1818 314.424 63.1818C313.533 63.1818 312.797 62.9886 312.213 62.6023C311.63 62.2159 311.261 61.6515 311.105 60.9091L312.378 60.5909C312.499 61.0606 312.729 61.4129 313.066 61.6477C313.407 61.8826 313.852 62 314.401 62C315.026 62 315.522 61.8674 315.889 61.6023C316.261 61.3333 316.446 61.0114 316.446 60.6364C316.446 60.3333 316.34 60.0795 316.128 59.875C315.916 59.6667 315.59 59.5114 315.151 59.4091L313.696 59.0682C312.897 58.8788 312.31 58.5852 311.935 58.1875C311.564 57.786 311.378 57.2841 311.378 56.6818C311.378 56.1894 311.516 55.7538 311.793 55.375C312.073 54.9962 312.454 54.6989 312.935 54.483C313.42 54.267 313.969 54.1591 314.583 54.1591C315.446 54.1591 316.124 54.3485 316.617 54.7273C317.113 55.1061 317.465 55.6061 317.674 56.2273ZM325.857 56.2273L324.652 56.5682C324.577 56.3674 324.465 56.1723 324.317 55.983C324.173 55.7898 323.976 55.6307 323.726 55.5057C323.476 55.3807 323.156 55.3182 322.766 55.3182C322.232 55.3182 321.787 55.4413 321.431 55.6875C321.079 55.9299 320.902 56.2386 320.902 56.6136C320.902 56.947 321.024 57.2102 321.266 57.4034C321.508 57.5966 321.887 57.7576 322.402 57.8864L323.698 58.2045C324.478 58.3939 325.06 58.6837 325.442 59.0739C325.825 59.4602 326.016 59.9583 326.016 60.5682C326.016 61.0682 325.872 61.5152 325.584 61.9091C325.3 62.303 324.902 62.6136 324.391 62.8409C323.88 63.0682 323.285 63.1818 322.607 63.1818C321.717 63.1818 320.98 62.9886 320.397 62.6023C319.813 62.2159 319.444 61.6515 319.289 60.9091L320.562 60.5909C320.683 61.0606 320.912 61.4129 321.249 61.6477C321.59 61.8826 322.035 62 322.584 62C323.209 62 323.705 61.8674 324.073 61.6023C324.444 61.3333 324.63 61.0114 324.63 60.6364C324.63 60.3333 324.524 60.0795 324.312 59.875C324.099 59.6667 323.774 59.5114 323.334 59.4091L321.88 59.0682C321.08 58.8788 320.493 58.5852 320.118 58.1875C319.747 57.786 319.562 57.2841 319.562 56.6818C319.562 56.1894 319.7 55.7538 319.976 55.375C320.257 54.9962 320.637 54.6989 321.118 54.483C321.603 54.267 322.152 54.1591 322.766 54.1591C323.63 54.1591 324.308 54.3485 324.8 54.7273C325.296 55.1061 325.649 55.6061 325.857 56.2273Z" fill="#8A919E"/>
<line x1="25" y1="89.5" x2="554" y2="89.5" stroke="#8A919E" stroke-opacity="0.2"/>
<rect width="529" height="65" transform="translate(25 90)" fill="#141519"/>
<path d="M59.6364 117.364V129H58.2727L51.9318 119.864H51.8182V129H50.4091V117.364H51.7727L58.1364 126.523H58.25V117.364H59.6364ZM65.6436 129.182C64.8557 129.182 64.1644 128.994 63.5697 128.619C62.9788 128.244 62.5167 127.72 62.1834 127.045C61.8538 126.371 61.6891 125.583 61.6891 124.682C61.6891 123.773 61.8538 122.979 62.1834 122.301C62.5167 121.623 62.9788 121.097 63.5697 120.722C64.1644 120.347 64.8557 120.159 65.6436 120.159C66.4315 120.159 67.1209 120.347 67.7118 120.722C68.3065 121.097 68.7686 121.623 69.0981 122.301C69.4315 122.979 69.5981 123.773 69.5981 124.682C69.5981 125.583 69.4315 126.371 69.0981 127.045C68.7686 127.72 68.3065 128.244 67.7118 128.619C67.1209 128.994 66.4315 129.182 65.6436 129.182ZM65.6436 127.977C66.2421 127.977 66.7345 127.824 67.1209 127.517C67.5072 127.21 67.7932 126.807 67.9788 126.307C68.1644 125.807 68.2572 125.265 68.2572 124.682C68.2572 124.098 68.1644 123.555 67.9788 123.051C67.7932 122.547 67.5072 122.14 67.1209 121.83C66.7345 121.519 66.2421 121.364 65.6436 121.364C65.0451 121.364 64.5527 121.519 64.1663 121.83C63.78 122.14 63.494 122.547 63.3084 123.051C63.1228 123.555 63.03 124.098 63.03 124.682C63.03 125.265 63.1228 125.807 63.3084 126.307C63.494 126.807 63.78 127.21 64.1663 127.517C64.5527 127.824 65.0451 127.977 65.6436 127.977ZM75.2645 120.273V121.409H70.7418V120.273H75.2645ZM72.0599 118.182H73.4008V126.5C73.4008 126.879 73.4558 127.163 73.5656 127.352C73.6793 127.538 73.8232 127.663 73.9974 127.727C74.1755 127.788 74.363 127.818 74.5599 127.818C74.7077 127.818 74.8289 127.811 74.9236 127.795C75.0183 127.777 75.094 127.761 75.1508 127.75L75.4236 128.955C75.3327 128.989 75.2058 129.023 75.0429 129.057C74.88 129.095 74.6736 129.114 74.4236 129.114C74.0448 129.114 73.6736 129.032 73.3099 128.869C72.9501 128.706 72.6508 128.458 72.4122 128.125C72.1774 127.792 72.0599 127.371 72.0599 126.864V118.182ZM80.6709 129.182C79.83 129.182 79.1046 128.996 78.4947 128.625C77.8887 128.25 77.4209 127.727 77.0913 127.057C76.7656 126.383 76.6027 125.598 76.6027 124.705C76.6027 123.811 76.7656 123.023 77.0913 122.341C77.4209 121.655 77.8792 121.121 78.4663 120.739C79.0572 120.352 79.7466 120.159 80.5345 120.159C80.989 120.159 81.4379 120.235 81.8811 120.386C82.3243 120.538 82.7277 120.784 83.0913 121.125C83.455 121.462 83.7447 121.909 83.9606 122.466C84.1765 123.023 84.2845 123.708 84.2845 124.523V125.091H77.5572V123.932H82.9209C82.9209 123.439 82.8224 123 82.6254 122.614C82.4322 122.227 82.1557 121.922 81.7959 121.699C81.4398 121.475 81.0193 121.364 80.5345 121.364C80.0004 121.364 79.5383 121.496 79.1481 121.761C78.7618 122.023 78.4644 122.364 78.2561 122.784C78.0478 123.205 77.9436 123.655 77.9436 124.136V124.909C77.9436 125.568 78.0572 126.127 78.2845 126.585C78.5156 127.04 78.8356 127.386 79.2447 127.625C79.6538 127.86 80.1292 127.977 80.6709 127.977C81.0231 127.977 81.3413 127.928 81.6254 127.83C81.9133 127.727 82.1614 127.576 82.3697 127.375C82.5781 127.17 82.739 126.917 82.8527 126.614L84.1481 126.977C84.0118 127.417 83.7826 127.803 83.4606 128.136C83.1387 128.466 82.7409 128.723 82.2675 128.909C81.794 129.091 81.2618 129.182 80.6709 129.182Z" fill="white"/>
<path d="M153.227 122.182C153.227 123.409 153.006 124.47 152.562 125.364C152.119 126.258 151.511 126.947 150.739 127.432C149.966 127.917 149.083 128.159 148.091 128.159C147.098 128.159 146.216 127.917 145.443 127.432C144.67 126.947 144.063 126.258 143.619 125.364C143.176 124.47 142.955 123.409 142.955 122.182C142.955 120.955 143.176 119.894 143.619 119C144.063 118.106 144.67 117.417 145.443 116.932C146.216 116.447 147.098 116.205 148.091 116.205C149.083 116.205 149.966 116.447 150.739 116.932C151.511 117.417 152.119 118.106 152.562 119C153.006 119.894 153.227 120.955 153.227 122.182ZM151.864 122.182C151.864 121.174 151.695 120.324 151.358 119.631C151.025 118.938 150.572 118.413 150 118.057C149.432 117.701 148.795 117.523 148.091 117.523C147.386 117.523 146.748 117.701 146.176 118.057C145.608 118.413 145.155 118.938 144.818 119.631C144.485 120.324 144.318 121.174 144.318 122.182C144.318 123.189 144.485 124.04 144.818 124.733C145.155 125.426 145.608 125.951 146.176 126.307C146.748 126.663 147.386 126.841 148.091 126.841C148.795 126.841 149.432 126.663 150 126.307C150.572 125.951 151.025 125.426 151.358 124.733C151.695 124.04 151.864 123.189 151.864 122.182ZM155.239 131.273V119.273H156.534V120.659H156.693C156.792 120.508 156.928 120.314 157.102 120.08C157.28 119.841 157.534 119.629 157.864 119.443C158.197 119.254 158.648 119.159 159.216 119.159C159.951 119.159 160.599 119.343 161.159 119.71C161.72 120.078 162.157 120.598 162.472 121.273C162.786 121.947 162.943 122.742 162.943 123.659C162.943 124.583 162.786 125.384 162.472 126.062C162.157 126.737 161.722 127.259 161.165 127.631C160.608 127.998 159.966 128.182 159.239 128.182C158.678 128.182 158.229 128.089 157.892 127.903C157.555 127.714 157.296 127.5 157.114 127.261C156.932 127.019 156.792 126.818 156.693 126.659H156.58V131.273H155.239ZM156.557 123.636C156.557 124.295 156.654 124.877 156.847 125.381C157.04 125.881 157.322 126.273 157.693 126.557C158.065 126.837 158.519 126.977 159.057 126.977C159.618 126.977 160.085 126.83 160.46 126.534C160.839 126.235 161.123 125.833 161.313 125.33C161.506 124.822 161.602 124.258 161.602 123.636C161.602 123.023 161.508 122.47 161.318 121.977C161.133 121.481 160.851 121.089 160.472 120.801C160.097 120.509 159.625 120.364 159.057 120.364C158.512 120.364 158.053 120.502 157.682 120.778C157.311 121.051 157.03 121.434 156.841 121.926C156.652 122.415 156.557 122.985 156.557 123.636ZM168.608 119.273V120.409H164.086V119.273H168.608ZM165.404 117.182H166.745V125.5C166.745 125.879 166.8 126.163 166.909 126.352C167.023 126.538 167.167 126.663 167.341 126.727C167.519 126.788 167.707 126.818 167.904 126.818C168.051 126.818 168.173 126.811 168.267 126.795C168.362 126.777 168.438 126.761 168.495 126.75L168.767 127.955C168.676 127.989 168.55 128.023 168.387 128.057C168.224 128.095 168.017 128.114 167.767 128.114C167.389 128.114 167.017 128.032 166.654 127.869C166.294 127.706 165.995 127.458 165.756 127.125C165.521 126.792 165.404 126.371 165.404 125.864V117.182ZM170.449 128V119.273H171.79V128H170.449ZM171.131 117.818C170.87 117.818 170.644 117.729 170.455 117.551C170.269 117.373 170.177 117.159 170.177 116.909C170.177 116.659 170.269 116.445 170.455 116.267C170.644 116.089 170.87 116 171.131 116C171.392 116 171.616 116.089 171.802 116.267C171.991 116.445 172.086 116.659 172.086 116.909C172.086 117.159 171.991 117.373 171.802 117.551C171.616 117.729 171.392 117.818 171.131 117.818ZM177.616 128.182C176.828 128.182 176.136 127.994 175.542 127.619C174.951 127.244 174.489 126.72 174.155 126.045C173.826 125.371 173.661 124.583 173.661 123.682C173.661 122.773 173.826 121.979 174.155 121.301C174.489 120.623 174.951 120.097 175.542 119.722C176.136 119.347 176.828 119.159 177.616 119.159C178.403 119.159 179.093 119.347 179.684 119.722C180.278 120.097 180.741 120.623 181.07 121.301C181.403 121.979 181.57 122.773 181.57 123.682C181.57 124.583 181.403 125.371 181.07 126.045C180.741 126.72 180.278 127.244 179.684 127.619C179.093 127.994 178.403 128.182 177.616 128.182ZM177.616 126.977C178.214 126.977 178.707 126.824 179.093 126.517C179.479 126.21 179.765 125.807 179.951 125.307C180.136 124.807 180.229 124.265 180.229 123.682C180.229 123.098 180.136 122.555 179.951 122.051C179.765 121.547 179.479 121.14 179.093 120.83C178.707 120.519 178.214 120.364 177.616 120.364C177.017 120.364 176.525 120.519 176.138 120.83C175.752 121.14 175.466 121.547 175.28 122.051C175.095 122.555 175.002 123.098 175.002 123.682C175.002 124.265 175.095 124.807 175.28 125.307C175.466 125.807 175.752 126.21 176.138 126.517C176.525 126.824 177.017 126.977 177.616 126.977ZM184.782 122.75V128H183.441V119.273H184.736V120.636H184.85C185.055 120.193 185.365 119.837 185.782 119.568C186.199 119.295 186.736 119.159 187.396 119.159C187.986 119.159 188.504 119.28 188.947 119.523C189.39 119.761 189.735 120.125 189.981 120.614C190.227 121.098 190.35 121.712 190.35 122.455V128H189.009V122.545C189.009 121.86 188.831 121.326 188.475 120.943C188.119 120.557 187.63 120.364 187.009 120.364C186.581 120.364 186.199 120.456 185.861 120.642C185.528 120.828 185.265 121.098 185.072 121.455C184.879 121.811 184.782 122.242 184.782 122.75ZM195.193 128.205C194.64 128.205 194.138 128.1 193.687 127.892C193.236 127.68 192.878 127.375 192.613 126.977C192.348 126.576 192.215 126.091 192.215 125.523C192.215 125.023 192.314 124.617 192.511 124.307C192.708 123.992 192.971 123.746 193.301 123.568C193.63 123.39 193.994 123.258 194.391 123.17C194.793 123.08 195.196 123.008 195.602 122.955C196.132 122.886 196.562 122.835 196.891 122.801C197.225 122.763 197.467 122.701 197.619 122.614C197.774 122.527 197.852 122.375 197.852 122.159V122.114C197.852 121.553 197.698 121.117 197.391 120.807C197.088 120.496 196.628 120.341 196.011 120.341C195.371 120.341 194.869 120.481 194.505 120.761C194.141 121.042 193.886 121.341 193.738 121.659L192.465 121.205C192.693 120.674 192.996 120.261 193.374 119.966C193.757 119.667 194.174 119.458 194.624 119.341C195.079 119.22 195.526 119.159 195.965 119.159C196.246 119.159 196.568 119.193 196.931 119.261C197.299 119.326 197.653 119.46 197.994 119.665C198.338 119.869 198.624 120.178 198.852 120.591C199.079 121.004 199.193 121.557 199.193 122.25V128H197.852V126.818H197.783C197.693 127.008 197.541 127.21 197.329 127.426C197.117 127.642 196.835 127.826 196.482 127.977C196.13 128.129 195.7 128.205 195.193 128.205ZM195.397 127C195.927 127 196.374 126.896 196.738 126.688C197.105 126.479 197.382 126.21 197.568 125.881C197.757 125.551 197.852 125.205 197.852 124.841V123.614C197.795 123.682 197.67 123.744 197.477 123.801C197.287 123.854 197.068 123.902 196.818 123.943C196.571 123.981 196.331 124.015 196.096 124.045C195.865 124.072 195.677 124.095 195.533 124.114C195.185 124.159 194.859 124.233 194.556 124.335C194.257 124.434 194.015 124.583 193.829 124.784C193.647 124.981 193.556 125.25 193.556 125.591C193.556 126.057 193.729 126.409 194.073 126.648C194.422 126.883 194.863 127 195.397 127ZM202.805 116.364V128H201.464V116.364H202.805ZM209.409 128V119.273H210.704V120.636H210.818C211 120.17 211.293 119.809 211.699 119.551C212.104 119.29 212.591 119.159 213.159 119.159C213.735 119.159 214.214 119.29 214.596 119.551C214.983 119.809 215.284 120.17 215.5 120.636H215.591C215.814 120.186 216.149 119.828 216.596 119.562C217.043 119.294 217.579 119.159 218.204 119.159C218.985 119.159 219.623 119.403 220.119 119.892C220.615 120.377 220.863 121.133 220.863 122.159V128H219.523V122.159C219.523 121.515 219.346 121.055 218.994 120.778C218.642 120.502 218.227 120.364 217.75 120.364C217.136 120.364 216.661 120.549 216.324 120.92C215.987 121.288 215.818 121.754 215.818 122.318V128H214.454V122.023C214.454 121.527 214.293 121.127 213.971 120.824C213.649 120.517 213.235 120.364 212.727 120.364C212.379 120.364 212.053 120.456 211.75 120.642C211.451 120.828 211.208 121.085 211.023 121.415C210.841 121.741 210.75 122.117 210.75 122.545V128H209.409ZM226.798 128.182C225.957 128.182 225.232 127.996 224.622 127.625C224.016 127.25 223.548 126.727 223.219 126.057C222.893 125.383 222.73 124.598 222.73 123.705C222.73 122.811 222.893 122.023 223.219 121.341C223.548 120.655 224.007 120.121 224.594 119.739C225.185 119.352 225.874 119.159 226.662 119.159C227.116 119.159 227.565 119.235 228.008 119.386C228.452 119.538 228.855 119.784 229.219 120.125C229.582 120.462 229.872 120.909 230.088 121.466C230.304 122.023 230.412 122.708 230.412 123.523V124.091H223.685V122.932H229.048C229.048 122.439 228.95 122 228.753 121.614C228.56 121.227 228.283 120.922 227.923 120.699C227.567 120.475 227.147 120.364 226.662 120.364C226.128 120.364 225.666 120.496 225.276 120.761C224.889 121.023 224.592 121.364 224.383 121.784C224.175 122.205 224.071 122.655 224.071 123.136V123.909C224.071 124.568 224.185 125.127 224.412 125.585C224.643 126.04 224.963 126.386 225.372 126.625C225.781 126.86 226.257 126.977 226.798 126.977C227.151 126.977 227.469 126.928 227.753 126.83C228.041 126.727 228.289 126.576 228.497 126.375C228.705 126.17 228.866 125.917 228.98 125.614L230.276 125.977C230.139 126.417 229.91 126.803 229.588 127.136C229.266 127.466 228.868 127.723 228.395 127.909C227.921 128.091 227.389 128.182 226.798 128.182ZM238.457 121.227L237.253 121.568C237.177 121.367 237.065 121.172 236.918 120.983C236.774 120.79 236.577 120.631 236.327 120.506C236.077 120.381 235.757 120.318 235.367 120.318C234.832 120.318 234.387 120.441 234.031 120.688C233.679 120.93 233.503 121.239 233.503 121.614C233.503 121.947 233.624 122.21 233.867 122.403C234.109 122.597 234.488 122.758 235.003 122.886L236.298 123.205C237.079 123.394 237.66 123.684 238.043 124.074C238.425 124.46 238.617 124.958 238.617 125.568C238.617 126.068 238.473 126.515 238.185 126.909C237.901 127.303 237.503 127.614 236.992 127.841C236.48 128.068 235.885 128.182 235.207 128.182C234.317 128.182 233.581 127.989 232.997 127.602C232.414 127.216 232.045 126.652 231.889 125.909L233.162 125.591C233.283 126.061 233.512 126.413 233.85 126.648C234.19 126.883 234.635 127 235.185 127C235.81 127 236.306 126.867 236.673 126.602C237.045 126.333 237.23 126.011 237.23 125.636C237.23 125.333 237.124 125.08 236.912 124.875C236.7 124.667 236.374 124.511 235.935 124.409L234.48 124.068C233.681 123.879 233.094 123.585 232.719 123.188C232.348 122.786 232.162 122.284 232.162 121.682C232.162 121.189 232.3 120.754 232.577 120.375C232.857 119.996 233.238 119.699 233.719 119.483C234.204 119.267 234.753 119.159 235.367 119.159C236.23 119.159 236.908 119.348 237.401 119.727C237.897 120.106 238.249 120.606 238.457 121.227ZM246.641 121.227L245.436 121.568C245.361 121.367 245.249 121.172 245.101 120.983C244.957 120.79 244.76 120.631 244.51 120.506C244.26 120.381 243.94 120.318 243.55 120.318C243.016 120.318 242.571 120.441 242.215 120.688C241.862 120.93 241.686 121.239 241.686 121.614C241.686 121.947 241.808 122.21 242.05 122.403C242.292 122.597 242.671 122.758 243.186 122.886L244.482 123.205C245.262 123.394 245.843 123.684 246.226 124.074C246.609 124.46 246.8 124.958 246.8 125.568C246.8 126.068 246.656 126.515 246.368 126.909C246.084 127.303 245.686 127.614 245.175 127.841C244.664 128.068 244.069 128.182 243.391 128.182C242.501 128.182 241.764 127.989 241.181 127.602C240.597 127.216 240.228 126.652 240.073 125.909L241.345 125.591C241.467 126.061 241.696 126.413 242.033 126.648C242.374 126.883 242.819 127 243.368 127C243.993 127 244.489 126.867 244.857 126.602C245.228 126.333 245.414 126.011 245.414 125.636C245.414 125.333 245.308 125.08 245.095 124.875C244.883 124.667 244.558 124.511 244.118 124.409L242.664 124.068C241.864 123.879 241.277 123.585 240.902 123.188C240.531 122.786 240.345 122.284 240.345 121.682C240.345 121.189 240.484 120.754 240.76 120.375C241.04 119.996 241.421 119.699 241.902 119.483C242.387 119.267 242.936 119.159 243.55 119.159C244.414 119.159 245.092 119.348 245.584 119.727C246.08 120.106 246.433 120.606 246.641 121.227ZM251.211 128.205C250.658 128.205 250.156 128.1 249.705 127.892C249.254 127.68 248.896 127.375 248.631 126.977C248.366 126.576 248.233 126.091 248.233 125.523C248.233 125.023 248.332 124.617 248.529 124.307C248.726 123.992 248.989 123.746 249.319 123.568C249.648 123.39 250.012 123.258 250.409 123.17C250.811 123.08 251.214 123.008 251.62 122.955C252.15 122.886 252.58 122.835 252.909 122.801C253.243 122.763 253.485 122.701 253.637 122.614C253.792 122.527 253.87 122.375 253.87 122.159V122.114C253.87 121.553 253.716 121.117 253.409 120.807C253.106 120.496 252.646 120.341 252.029 120.341C251.389 120.341 250.887 120.481 250.523 120.761C250.159 121.042 249.904 121.341 249.756 121.659L248.483 121.205C248.711 120.674 249.014 120.261 249.392 119.966C249.775 119.667 250.192 119.458 250.642 119.341C251.097 119.22 251.544 119.159 251.983 119.159C252.264 119.159 252.586 119.193 252.949 119.261C253.317 119.326 253.671 119.46 254.012 119.665C254.356 119.869 254.642 120.178 254.87 120.591C255.097 121.004 255.211 121.557 255.211 122.25V128H253.87V126.818H253.801C253.711 127.008 253.559 127.21 253.347 127.426C253.135 127.642 252.853 127.826 252.5 127.977C252.148 128.129 251.718 128.205 251.211 128.205ZM251.415 127C251.945 127 252.392 126.896 252.756 126.688C253.123 126.479 253.4 126.21 253.586 125.881C253.775 125.551 253.87 125.205 253.87 124.841V123.614C253.813 123.682 253.688 123.744 253.495 123.801C253.305 123.854 253.086 123.902 252.836 123.943C252.589 123.981 252.349 124.015 252.114 124.045C251.883 124.072 251.695 124.095 251.551 124.114C251.203 124.159 250.877 124.233 250.574 124.335C250.275 124.434 250.033 124.583 249.847 124.784C249.665 124.981 249.574 125.25 249.574 125.591C249.574 126.057 249.747 126.409 250.091 126.648C250.44 126.883 250.881 127 251.415 127ZM261.005 131.455C260.357 131.455 259.8 131.371 259.334 131.205C258.868 131.042 258.48 130.826 258.17 130.557C257.863 130.292 257.618 130.008 257.437 129.705L258.505 128.955C258.626 129.114 258.779 129.295 258.965 129.5C259.151 129.708 259.404 129.888 259.726 130.04C260.052 130.195 260.478 130.273 261.005 130.273C261.709 130.273 262.291 130.102 262.749 129.761C263.207 129.42 263.437 128.886 263.437 128.159V126.386H263.323C263.224 126.545 263.084 126.742 262.902 126.977C262.724 127.208 262.467 127.415 262.13 127.597C261.796 127.775 261.346 127.864 260.777 127.864C260.073 127.864 259.44 127.697 258.88 127.364C258.323 127.03 257.882 126.545 257.556 125.909C257.234 125.273 257.073 124.5 257.073 123.591C257.073 122.697 257.23 121.919 257.545 121.256C257.859 120.589 258.296 120.074 258.857 119.71C259.418 119.343 260.065 119.159 260.8 119.159C261.368 119.159 261.819 119.254 262.152 119.443C262.49 119.629 262.747 119.841 262.925 120.08C263.107 120.314 263.247 120.508 263.346 120.659H263.482V119.273H264.777V128.25C264.777 129 264.607 129.61 264.266 130.08C263.929 130.553 263.474 130.9 262.902 131.119C262.334 131.343 261.702 131.455 261.005 131.455ZM260.959 126.659C261.497 126.659 261.952 126.536 262.323 126.29C262.694 126.044 262.976 125.689 263.17 125.227C263.363 124.765 263.459 124.212 263.459 123.568C263.459 122.939 263.365 122.384 263.175 121.903C262.986 121.422 262.706 121.045 262.334 120.773C261.963 120.5 261.505 120.364 260.959 120.364C260.391 120.364 259.918 120.508 259.539 120.795C259.164 121.083 258.882 121.47 258.692 121.955C258.507 122.439 258.414 122.977 258.414 123.568C258.414 124.174 258.509 124.71 258.698 125.176C258.891 125.638 259.175 126.002 259.55 126.267C259.929 126.528 260.399 126.659 260.959 126.659ZM270.715 128.182C269.874 128.182 269.149 127.996 268.539 127.625C267.933 127.25 267.465 126.727 267.136 126.057C266.81 125.383 266.647 124.598 266.647 123.705C266.647 122.811 266.81 122.023 267.136 121.341C267.465 120.655 267.923 120.121 268.511 119.739C269.101 119.352 269.791 119.159 270.579 119.159C271.033 119.159 271.482 119.235 271.925 119.386C272.369 119.538 272.772 119.784 273.136 120.125C273.499 120.462 273.789 120.909 274.005 121.466C274.221 122.023 274.329 122.708 274.329 123.523V124.091H267.601V122.932H272.965C272.965 122.439 272.867 122 272.67 121.614C272.476 121.227 272.2 120.922 271.84 120.699C271.484 120.475 271.064 120.364 270.579 120.364C270.045 120.364 269.583 120.496 269.192 120.761C268.806 121.023 268.509 121.364 268.3 121.784C268.092 122.205 267.988 122.655 267.988 123.136V123.909C267.988 124.568 268.101 125.127 268.329 125.585C268.56 126.04 268.88 126.386 269.289 126.625C269.698 126.86 270.173 126.977 270.715 126.977C271.067 126.977 271.386 126.928 271.67 126.83C271.958 126.727 272.206 126.576 272.414 126.375C272.622 126.17 272.783 125.917 272.897 125.614L274.192 125.977C274.056 126.417 273.827 126.803 273.505 127.136C273.183 127.466 272.785 127.723 272.312 127.909C271.838 128.091 271.306 128.182 270.715 128.182Z" fill="#8A919E"/>
<line x1="25" y1="154.5" x2="554" y2="154.5" stroke="#8A919E" stroke-opacity="0.2"/>
<rect width="529" height="65" transform="translate(25 155)" fill="#141519"/>
<path d="M50.4091 194V182.364H54.3409C55.2538 182.364 56 182.528 56.5795 182.858C57.1629 183.184 57.5947 183.625 57.875 184.182C58.1553 184.739 58.2955 185.36 58.2955 186.045C58.2955 186.731 58.1553 187.354 57.875 187.915C57.5985 188.475 57.1705 188.922 56.5909 189.256C56.0114 189.585 55.2689 189.75 54.3636 189.75H51.5455V188.5H54.3182C54.9432 188.5 55.4451 188.392 55.8239 188.176C56.2027 187.96 56.4773 187.669 56.6477 187.301C56.822 186.93 56.9091 186.511 56.9091 186.045C56.9091 185.58 56.822 185.163 56.6477 184.795C56.4773 184.428 56.2008 184.14 55.8182 183.932C55.4356 183.72 54.928 183.614 54.2955 183.614H51.8182V194H50.4091ZM62.7757 194.205C62.2227 194.205 61.7208 194.1 61.27 193.892C60.8193 193.68 60.4613 193.375 60.1962 192.977C59.931 192.576 59.7984 192.091 59.7984 191.523C59.7984 191.023 59.8969 190.617 60.0939 190.307C60.2909 189.992 60.5541 189.746 60.8837 189.568C61.2132 189.39 61.5768 189.258 61.9746 189.17C62.3761 189.08 62.7795 189.008 63.1848 188.955C63.7151 188.886 64.145 188.835 64.4746 188.801C64.8079 188.763 65.0503 188.701 65.2018 188.614C65.3571 188.527 65.4348 188.375 65.4348 188.159V188.114C65.4348 187.553 65.2814 187.117 64.9746 186.807C64.6715 186.496 64.2113 186.341 63.5939 186.341C62.9537 186.341 62.4518 186.481 62.0882 186.761C61.7246 187.042 61.4689 187.341 61.3212 187.659L60.0484 187.205C60.2757 186.674 60.5787 186.261 60.9575 185.966C61.3401 185.667 61.7568 185.458 62.2075 185.341C62.6621 185.22 63.109 185.159 63.5484 185.159C63.8287 185.159 64.1507 185.193 64.5143 185.261C64.8818 185.326 65.2359 185.46 65.5768 185.665C65.9215 185.869 66.2075 186.178 66.4348 186.591C66.6621 187.004 66.7757 187.557 66.7757 188.25V194H65.4348V192.818H65.3666C65.2757 193.008 65.1242 193.21 64.9121 193.426C64.6999 193.642 64.4178 193.826 64.0655 193.977C63.7132 194.129 63.2833 194.205 62.7757 194.205ZM62.9803 193C63.5106 193 63.9575 192.896 64.3212 192.688C64.6886 192.479 64.9651 192.21 65.1507 191.881C65.3401 191.551 65.4348 191.205 65.4348 190.841V189.614C65.378 189.682 65.253 189.744 65.0598 189.801C64.8704 189.854 64.6507 189.902 64.4007 189.943C64.1545 189.981 63.914 190.015 63.6791 190.045C63.4481 190.072 63.2606 190.095 63.1166 190.114C62.7681 190.159 62.4424 190.233 62.1393 190.335C61.8401 190.434 61.5977 190.583 61.4121 190.784C61.2303 190.981 61.1393 191.25 61.1393 191.591C61.1393 192.057 61.3117 192.409 61.6564 192.648C62.0049 192.883 62.4462 193 62.9803 193ZM69.5983 197.25C69.371 197.25 69.1684 197.231 68.9903 197.193C68.8123 197.159 68.6892 197.125 68.621 197.091L68.9619 195.909C69.4506 196.034 69.8578 196.03 70.1835 195.898C70.5093 195.769 70.7915 195.379 71.0301 194.727L71.2801 194.045L68.0528 185.273H69.5074L71.9165 192.227H72.0074L74.4165 185.273L75.8824 185.295L72.1665 195.273C71.9998 195.716 71.7934 196.083 71.5471 196.375C71.3009 196.67 71.015 196.89 70.6892 197.034C70.3672 197.178 70.0036 197.25 69.5983 197.25ZM83.7818 194L81.1227 185.273H82.5318L84.4182 191.955H84.5091L86.3727 185.273H87.8045L89.6454 191.932H89.7363L91.6227 185.273H93.0318L90.3727 194H89.0545L87.1454 187.295H87.0091L85.1 194H83.7818ZM94.6285 194V185.273H95.9694V194H94.6285ZM95.3103 183.818C95.049 183.818 94.8236 183.729 94.6342 183.551C94.4486 183.373 94.3558 183.159 94.3558 182.909C94.3558 182.659 94.4486 182.445 94.6342 182.267C94.8236 182.089 95.049 182 95.3103 182C95.5717 182 95.7952 182.089 95.9808 182.267C96.1702 182.445 96.2649 182.659 96.2649 182.909C96.2649 183.159 96.1702 183.373 95.9808 183.551C95.7952 183.729 95.5717 183.818 95.3103 183.818ZM102.045 185.273V186.409H97.5221V185.273H102.045ZM98.8403 183.182H100.181V191.5C100.181 191.879 100.236 192.163 100.346 192.352C100.46 192.538 100.604 192.663 100.778 192.727C100.956 192.788 101.143 192.818 101.34 192.818C101.488 192.818 101.609 192.811 101.704 192.795C101.799 192.777 101.874 192.761 101.931 192.75L102.204 193.955C102.113 193.989 101.986 194.023 101.823 194.057C101.66 194.095 101.454 194.114 101.204 194.114C100.825 194.114 100.454 194.032 100.09 193.869C99.7305 193.706 99.4312 193.458 99.1926 193.125C98.9577 192.792 98.8403 192.371 98.8403 191.864V183.182ZM105.414 188.75V194H104.073V182.364H105.414V186.636H105.528C105.732 186.186 106.039 185.828 106.448 185.562C106.861 185.294 107.411 185.159 108.096 185.159C108.691 185.159 109.212 185.278 109.659 185.517C110.106 185.752 110.452 186.114 110.698 186.602C110.948 187.087 111.073 187.705 111.073 188.455V194H109.732V188.545C109.732 187.852 109.553 187.316 109.193 186.938C108.837 186.555 108.342 186.364 107.71 186.364C107.27 186.364 106.876 186.456 106.528 186.642C106.183 186.828 105.911 187.098 105.71 187.455C105.513 187.811 105.414 188.242 105.414 188.75Z" fill="white"/>
<path d="M179.409 193V181.364H183.477C184.288 181.364 184.956 181.504 185.483 181.784C186.009 182.061 186.402 182.434 186.659 182.903C186.917 183.369 187.045 183.886 187.045 184.455C187.045 184.955 186.956 185.367 186.778 185.693C186.604 186.019 186.373 186.277 186.085 186.466C185.801 186.655 185.492 186.795 185.159 186.886V187C185.515 187.023 185.873 187.148 186.233 187.375C186.593 187.602 186.894 187.928 187.136 188.352C187.379 188.777 187.5 189.295 187.5 189.909C187.5 190.492 187.367 191.017 187.102 191.483C186.837 191.949 186.419 192.318 185.847 192.591C185.275 192.864 184.53 193 183.614 193H179.409ZM180.818 191.75H183.614C184.534 191.75 185.188 191.572 185.574 191.216C185.964 190.856 186.159 190.42 186.159 189.909C186.159 189.515 186.059 189.152 185.858 188.818C185.657 188.481 185.371 188.212 185 188.011C184.629 187.807 184.189 187.705 183.682 187.705H180.818V191.75ZM180.818 186.477H183.432C183.856 186.477 184.239 186.394 184.58 186.227C184.924 186.061 185.197 185.826 185.398 185.523C185.602 185.22 185.705 184.864 185.705 184.455C185.705 183.943 185.527 183.509 185.17 183.153C184.814 182.794 184.25 182.614 183.477 182.614H180.818V186.477ZM189.458 193V184.273H190.798V193H189.458ZM190.139 182.818C189.878 182.818 189.653 182.729 189.463 182.551C189.278 182.373 189.185 182.159 189.185 181.909C189.185 181.659 189.278 181.445 189.463 181.267C189.653 181.089 189.878 181 190.139 181C190.401 181 190.624 181.089 190.81 181.267C190.999 181.445 191.094 181.659 191.094 181.909C191.094 182.159 190.999 182.373 190.81 182.551C190.624 182.729 190.401 182.818 190.139 182.818ZM196.874 184.273V185.409H192.351V184.273H196.874ZM193.669 182.182H195.01V190.5C195.01 190.879 195.065 191.163 195.175 191.352C195.289 191.538 195.433 191.663 195.607 191.727C195.785 191.788 195.972 191.818 196.169 191.818C196.317 191.818 196.438 191.811 196.533 191.795C196.628 191.777 196.703 191.761 196.76 191.75L197.033 192.955C196.942 192.989 196.815 193.023 196.652 193.057C196.489 193.095 196.283 193.114 196.033 193.114C195.654 193.114 195.283 193.032 194.919 192.869C194.559 192.706 194.26 192.458 194.022 192.125C193.787 191.792 193.669 191.371 193.669 190.864V182.182ZM202.167 193.182C201.348 193.182 200.644 192.989 200.053 192.602C199.462 192.216 199.008 191.684 198.689 191.006C198.371 190.328 198.212 189.553 198.212 188.682C198.212 187.795 198.375 187.013 198.701 186.335C199.03 185.653 199.489 185.121 200.076 184.739C200.667 184.352 201.356 184.159 202.144 184.159C202.758 184.159 203.311 184.273 203.803 184.5C204.295 184.727 204.699 185.045 205.013 185.455C205.328 185.864 205.523 186.341 205.598 186.886H204.258C204.155 186.489 203.928 186.136 203.576 185.83C203.227 185.519 202.758 185.364 202.167 185.364C201.644 185.364 201.186 185.5 200.792 185.773C200.401 186.042 200.097 186.422 199.877 186.915C199.661 187.403 199.553 187.977 199.553 188.636C199.553 189.311 199.659 189.898 199.871 190.398C200.087 190.898 200.39 191.286 200.78 191.562C201.174 191.839 201.636 191.977 202.167 191.977C202.515 191.977 202.831 191.917 203.115 191.795C203.4 191.674 203.64 191.5 203.837 191.273C204.034 191.045 204.174 190.773 204.258 190.455H205.598C205.523 190.97 205.335 191.434 205.036 191.847C204.74 192.256 204.348 192.581 203.86 192.824C203.375 193.062 202.811 193.182 202.167 193.182ZM210.928 193.182C210.14 193.182 209.449 192.994 208.854 192.619C208.263 192.244 207.801 191.72 207.468 191.045C207.138 190.371 206.974 189.583 206.974 188.682C206.974 187.773 207.138 186.979 207.468 186.301C207.801 185.623 208.263 185.097 208.854 184.722C209.449 184.347 210.14 184.159 210.928 184.159C211.716 184.159 212.405 184.347 212.996 184.722C213.591 185.097 214.053 185.623 214.383 186.301C214.716 186.979 214.883 187.773 214.883 188.682C214.883 189.583 214.716 190.371 214.383 191.045C214.053 191.72 213.591 192.244 212.996 192.619C212.405 192.994 211.716 193.182 210.928 193.182ZM210.928 191.977C211.527 191.977 212.019 191.824 212.405 191.517C212.792 191.21 213.078 190.807 213.263 190.307C213.449 189.807 213.542 189.265 213.542 188.682C213.542 188.098 213.449 187.555 213.263 187.051C213.078 186.547 212.792 186.14 212.405 185.83C212.019 185.519 211.527 185.364 210.928 185.364C210.33 185.364 209.837 185.519 209.451 185.83C209.064 186.14 208.778 186.547 208.593 187.051C208.407 187.555 208.314 188.098 208.314 188.682C208.314 189.265 208.407 189.807 208.593 190.307C208.778 190.807 209.064 191.21 209.451 191.517C209.837 191.824 210.33 191.977 210.928 191.977ZM216.754 193V184.273H218.094V193H216.754ZM217.435 182.818C217.174 182.818 216.949 182.729 216.759 182.551C216.574 182.373 216.481 182.159 216.481 181.909C216.481 181.659 216.574 181.445 216.759 181.267C216.949 181.089 217.174 181 217.435 181C217.697 181 217.92 181.089 218.106 181.267C218.295 181.445 218.39 181.659 218.39 181.909C218.39 182.159 218.295 182.373 218.106 182.551C217.92 182.729 217.697 182.818 217.435 182.818ZM221.715 187.75V193H220.374V184.273H221.67V185.636H221.783C221.988 185.193 222.299 184.837 222.715 184.568C223.132 184.295 223.67 184.159 224.329 184.159C224.92 184.159 225.437 184.28 225.88 184.523C226.323 184.761 226.668 185.125 226.914 185.614C227.16 186.098 227.283 186.712 227.283 187.455V193H225.943V187.545C225.943 186.86 225.765 186.326 225.408 185.943C225.052 185.557 224.564 185.364 223.943 185.364C223.515 185.364 223.132 185.456 222.795 185.642C222.462 185.828 222.198 186.098 222.005 186.455C221.812 186.811 221.715 187.242 221.715 187.75Z" fill="white"/>
<path d="M154 199C160.627 199 166 193.627 166 187C166 180.373 160.627 175 154 175C147.373 175 142 180.373 142 187C142 193.627 147.373 199 154 199Z" fill="#F7931A"/>
<path d="M159.274 185.515C159.509 183.943 158.312 183.098 156.675 182.534L157.206 180.404L155.91 180.081L155.393 182.155C155.052 182.069 154.703 181.99 154.354 181.91L154.875 179.823L153.579 179.5L153.048 181.629C152.766 181.565 152.489 181.502 152.22 181.434L152.222 181.427L150.434 180.981L150.089 182.366C150.089 182.366 151.051 182.586 151.031 182.6C151.556 182.731 151.65 183.078 151.635 183.354L151.03 185.78C151.066 185.789 151.112 185.803 151.165 185.823L151.028 185.789L150.18 189.188C150.116 189.347 149.953 189.587 149.585 189.496C149.599 189.515 148.644 189.261 148.644 189.261L148 190.745L149.687 191.166C150.001 191.244 150.308 191.327 150.611 191.404L150.075 193.558L151.37 193.88L151.901 191.75C152.255 191.846 152.598 191.934 152.934 192.018L152.405 194.139L153.701 194.462L154.237 192.312C156.448 192.731 158.11 192.562 158.81 190.562C159.374 188.953 158.782 188.024 157.619 187.419C158.466 187.224 159.104 186.666 159.274 185.515ZM156.312 189.669C155.912 191.279 153.2 190.408 152.321 190.19L153.034 187.336C153.913 187.556 156.731 187.99 156.312 189.669ZM156.713 185.492C156.348 186.957 154.091 186.212 153.36 186.03L154.005 183.442C154.736 183.624 157.094 183.964 156.713 185.492Z" fill="white"/>
<path d="M502.61 183.05L507.56 188L502.61 192.95L504.03 194.36L510.39 188L504.03 181.64L502.61 183.05Z" fill="white"/>
</g>
<rect x="25.5" y="25.5" width="512" height="194" rx="3.5" stroke="#5B636E" stroke-opacity="0.2"/>
</g>
<g filter="url(#filter1_d)">
<path d="M25 240C25 237.791 26.7909 236 29 236H534C536.209 236 538 237.791 538 240V284C538 286.209 536.209 288 534 288H29C26.7908 288 25 286.209 25 284V240Z" fill="#588AF5"/>
<path d="M260.041 260.254H258.181C258.128 259.949 258.031 259.679 257.888 259.443C257.745 259.205 257.568 259.002 257.356 258.837C257.144 258.671 256.902 258.547 256.63 258.464C256.362 258.378 256.072 258.335 255.76 258.335C255.207 258.335 254.716 258.474 254.289 258.752C253.861 259.027 253.526 259.432 253.284 259.965C253.042 260.496 252.921 261.143 252.921 261.909C252.921 262.688 253.042 263.344 253.284 263.878C253.53 264.408 253.864 264.809 254.289 265.081C254.716 265.349 255.205 265.484 255.755 265.484C256.06 265.484 256.345 265.444 256.61 265.364C256.879 265.281 257.119 265.161 257.331 265.001C257.547 264.842 257.727 264.647 257.873 264.415C258.022 264.183 258.125 263.918 258.181 263.619L260.041 263.629C259.971 264.113 259.82 264.567 259.588 264.991C259.36 265.416 259.06 265.79 258.688 266.115C258.317 266.437 257.883 266.688 257.386 266.871C256.889 267.05 256.337 267.139 255.73 267.139C254.835 267.139 254.037 266.932 253.334 266.518C252.631 266.103 252.078 265.505 251.674 264.723C251.269 263.941 251.067 263.003 251.067 261.909C251.067 260.812 251.271 259.874 251.678 259.095C252.086 258.313 252.641 257.715 253.344 257.3C254.047 256.886 254.842 256.679 255.73 256.679C256.297 256.679 256.824 256.759 257.311 256.918C257.799 257.077 258.233 257.31 258.614 257.619C258.995 257.924 259.308 258.298 259.553 258.742C259.802 259.183 259.964 259.687 260.041 260.254ZM265.065 267.149C264.319 267.149 263.673 266.985 263.126 266.657C262.579 266.329 262.155 265.87 261.854 265.28C261.555 264.69 261.406 264 261.406 263.212C261.406 262.423 261.555 261.732 261.854 261.138C262.155 260.545 262.579 260.085 263.126 259.756C263.673 259.428 264.319 259.264 265.065 259.264C265.811 259.264 266.457 259.428 267.004 259.756C267.551 260.085 267.974 260.545 268.272 261.138C268.573 261.732 268.724 262.423 268.724 263.212C268.724 264 268.573 264.69 268.272 265.28C267.974 265.87 267.551 266.329 267.004 266.657C266.457 266.985 265.811 267.149 265.065 267.149ZM265.075 265.707C265.48 265.707 265.818 265.596 266.089 265.374C266.361 265.149 266.563 264.847 266.696 264.469C266.832 264.092 266.9 263.671 266.9 263.207C266.9 262.739 266.832 262.317 266.696 261.939C266.563 261.558 266.361 261.254 266.089 261.029C265.818 260.804 265.48 260.691 265.075 260.691C264.661 260.691 264.316 260.804 264.041 261.029C263.769 261.254 263.565 261.558 263.43 261.939C263.297 262.317 263.231 262.739 263.231 263.207C263.231 263.671 263.297 264.092 263.43 264.469C263.565 264.847 263.769 265.149 264.041 265.374C264.316 265.596 264.661 265.707 265.075 265.707ZM272.136 262.526V267H270.336V259.364H272.056V260.661H272.145C272.321 260.234 272.601 259.894 272.986 259.642C273.373 259.39 273.852 259.264 274.422 259.264C274.949 259.264 275.409 259.377 275.8 259.602C276.194 259.828 276.499 260.154 276.714 260.582C276.933 261.009 277.041 261.528 277.038 262.138V267H275.238V262.416C275.238 261.906 275.105 261.506 274.84 261.218C274.578 260.93 274.215 260.786 273.751 260.786C273.436 260.786 273.156 260.855 272.911 260.994C272.669 261.13 272.479 261.327 272.339 261.586C272.203 261.844 272.136 262.158 272.136 262.526ZM282.764 259.364V260.756H278.374V259.364H282.764ZM279.458 257.534H281.258V264.703C281.258 264.945 281.294 265.131 281.367 265.26C281.443 265.386 281.543 265.472 281.666 265.518C281.788 265.565 281.924 265.588 282.073 265.588C282.186 265.588 282.289 265.58 282.381 265.563C282.478 265.547 282.551 265.532 282.6 265.518L282.903 266.925C282.807 266.959 282.67 266.995 282.491 267.035C282.315 267.075 282.1 267.098 281.845 267.104C281.394 267.118 280.988 267.05 280.627 266.901C280.265 266.748 279.979 266.513 279.766 266.195C279.558 265.876 279.455 265.479 279.458 265.001V257.534ZM284.353 267V259.364H286.153V267H284.353ZM285.258 258.28C284.97 258.28 284.723 258.185 284.517 257.996C284.315 257.804 284.214 257.574 284.214 257.305C284.214 257.034 284.317 256.803 284.522 256.614C284.728 256.422 284.973 256.326 285.258 256.326C285.543 256.326 285.787 256.422 285.989 256.614C286.195 256.803 286.297 257.034 286.297 257.305C286.297 257.574 286.195 257.804 285.989 257.996C285.787 258.185 285.543 258.28 285.258 258.28ZM289.888 262.526V267H288.088V259.364H289.808V260.661H289.897C290.073 260.234 290.353 259.894 290.738 259.642C291.125 259.39 291.604 259.264 292.174 259.264C292.701 259.264 293.161 259.377 293.552 259.602C293.946 259.828 294.251 260.154 294.466 260.582C294.685 261.009 294.793 261.528 294.79 262.138V267H292.99V262.416C292.99 261.906 292.857 261.506 292.592 261.218C292.33 260.93 291.967 260.786 291.503 260.786C291.188 260.786 290.908 260.855 290.663 260.994C290.421 261.13 290.231 261.327 290.091 261.586C289.955 261.844 289.888 262.158 289.888 262.526ZM301.57 263.788V259.364H303.37V267H301.625V265.643H301.545C301.373 266.07 301.09 266.42 300.695 266.692C300.304 266.964 299.822 267.099 299.249 267.099C298.748 267.099 298.306 266.988 297.921 266.766C297.54 266.541 297.242 266.214 297.026 265.787C296.811 265.356 296.703 264.836 296.703 264.226V259.364H298.503V263.947C298.503 264.431 298.635 264.816 298.901 265.101C299.166 265.386 299.514 265.528 299.945 265.528C300.21 265.528 300.467 265.464 300.715 265.335C300.964 265.205 301.168 265.013 301.327 264.758C301.489 264.499 301.57 264.176 301.57 263.788ZM308.685 267.149C307.92 267.149 307.258 266.99 306.702 266.672C306.148 266.35 305.722 265.896 305.424 265.31C305.126 264.72 304.977 264.025 304.977 263.227C304.977 262.441 305.126 261.752 305.424 261.158C305.726 260.562 306.147 260.098 306.687 259.766C307.227 259.432 307.862 259.264 308.591 259.264C309.062 259.264 309.506 259.34 309.923 259.493C310.344 259.642 310.715 259.874 311.037 260.189C311.362 260.504 311.617 260.905 311.803 261.392C311.988 261.876 312.081 262.453 312.081 263.122V263.674H305.822V262.461H310.356C310.352 262.116 310.278 261.81 310.132 261.541C309.986 261.269 309.782 261.056 309.521 260.9C309.262 260.744 308.96 260.666 308.616 260.666C308.248 260.666 307.925 260.756 307.646 260.935C307.368 261.11 307.151 261.342 306.995 261.631C306.843 261.916 306.765 262.229 306.761 262.57V263.629C306.761 264.073 306.843 264.455 307.005 264.773C307.167 265.088 307.394 265.33 307.686 265.499C307.978 265.664 308.319 265.747 308.71 265.747C308.972 265.747 309.209 265.711 309.421 265.638C309.633 265.562 309.817 265.451 309.973 265.305C310.129 265.159 310.246 264.978 310.326 264.763L312.006 264.952C311.9 265.396 311.698 265.784 311.4 266.115C311.105 266.443 310.727 266.698 310.266 266.881C309.806 267.06 309.279 267.149 308.685 267.149Z" fill="#0A0B0D"/>
</g>
</g>
<defs>
<filter id="filter0_d" x="1" y="9" width="561" height="243" filterUnits="userSpaceOnUse" color-interpolation-filters="sRGB">
<feFlood flood-opacity="0" result="BackgroundImageFix"/>
<feColorMatrix in="SourceAlpha" type="matrix" values="0 0 0 0 0 0 0 0 0 0 0 0 0 0 0 0 0 0 127 0"/>
<feOffset dy="8"/>
<feGaussianBlur stdDeviation="12"/>
<feColorMatrix type="matrix" values="0 0 0 0 0.027451 0 0 0 0 0.0784314 0 0 0 0 0.133333 0 0 0 0.12 0"/>
<feBlend mode="normal" in2="BackgroundImageFix" result="effect1_dropShadow"/>
<feBlend mode="normal" in="SourceGraphic" in2="effect1_dropShadow" result="shape"/>
</filter>
<filter id="filter1_d" x="1" y="220" width="561" height="100" filterUnits="userSpaceOnUse" color-interpolation-filters="sRGB">
<feFlood flood-opacity="0" result="BackgroundImageFix"/>
<feColorMatrix in="SourceAlpha" type="matrix" values="0 0 0 0 0 0 0 0 0 0 0 0 0 0 0 0 0 0 127 0"/>
<feOffset dy="8"/>
<feGaussianBlur stdDeviation="12"/>
<feColorMatrix type="matrix" values="0 0 0 0 0.027451 0 0 0 0 0.0784314 0 0 0 0 0.133333 0 0 0 0.12 0"/>
<feBlend mode="normal" in2="BackgroundImageFix" result="effect1_dropShadow"/>
<feBlend mode="normal" in="SourceGraphic" in2="effect1_dropShadow" result="shape"/>
</filter>
<clipPath id="clip0">
<rect width="563" height="313" fill="white"/>
</clipPath>
<clipPath id="clip1">
<rect x="25" y="25" width="513" height="195" rx="4" fill="white"/>
</clipPath>
</defs>
</svg>
