<svg xmlns="http://www.w3.org/2000/svg" fill="none" viewBox="0 0 240 240"><path fill="url(#a)" d="M77.75 0v187h85V0h-85z"/><path fill="#fff" fill-opacity=".35" d="M130.25 237v-1h-1v1h1zM154.25 225v-1h-1v1h1zM142.25 225v-1h-1v1h1zM130.25 225v-1h-1v1h1zM178.25 213v-1h-1v1h1zM166.25 213v-1h-1v1h1zM154.25 213v-1h-1v1h1zM142.25 213v-1h-1v1h1zM130.25 213v-1h-1v1h1zM202.25 201v-1h-1v1h1zM190.25 201v-1h-1v1h1zM178.25 201v-1h-1v1h1zM166.25 201v-1h-1v1h1zM154.25 201v-1h-1v1h1zM142.25 201v-1h-1v1h1zM130.25 201v-1h-1v1h1zM202.25 189v-1h-1v1h1zM190.25 189v-1h-1v1h1zM178.25 189v-1h-1v1h1zM166.25 189v-1h-1v1h1zM154.25 189v-1h-1v1h1zM142.25 189v-1h-1v1h1zM130.25 189v-1h-1v1h1zM202.25 177v-1h-1v1h1zM190.25 177v-1h-1v1h1zM178.25 177v-1h-1v1h1zM166.25 177v-1h-1v1h1zM154.25 177v-1h-1v1h1zM142.25 177v-1h-1v1h1zM130.25 177v-1h-1v1h1zM202.25 165v-1h-1v1h1zM190.25 165v-1h-1v1h1zM178.25 165v-1h-1v1h1zM166.25 165v-1h-1v1h1zM154.25 165v-1h-1v1h1zM142.25 165v-1h-1v1h1zM130.25 165v-1h-1v1h1zM202.25 153v-1h-1v1h1zM190.25 153v-1h-1v1h1zM178.25 153v-1h-1v1h1zM166.25 153v-1h-1v1h1zM154.25 153v-1h-1v1h1zM142.25 153v-1h-1v1h1zM130.25 153v-1h-1v1h1zM202.25 141v-1h-1v1h1zM190.25 141v-1h-1v1h1zM178.25 141v-1h-1v1h1zM166.25 141v-1h-1v1h1zM154.25 141v-1h-1v1h1zM142.25 141v-1h-1v1h1zM130.25 141v-1h-1v1h1zM202.25 129v-1h-1v1h1zM190.25 129v-1h-1v1h1zM178.25 129v-1h-1v1h1zM166.25 129v-1h-1v1h1zM154.25 129v-1h-1v1h1zM142.25 129v-1h-1v1h1zM130.25 129v-1h-1v1h1zM202.25 117v-1h-1v1h1zM190.25 117v-1h-1v1h1zM178.25 117v-1h-1v1h1zM166.25 117v-1h-1v1h1zM154.25 117v-1h-1v1h1zM142.25 117v-1h-1v1h1zM130.25 117v-1h-1v1h1zM202.25 105v-1h-1v1h1zM190.25 105v-1h-1v1h1zM178.25 105v-1h-1v1h1zM166.25 105v-1h-1v1h1zM154.25 105v-1h-1v1h1zM142.25 105v-1h-1v1h1zM130.25 105v-1h-1v1h1zM202.25 93v-1h-1v1h1zM190.25 93v-1h-1v1h1zM178.25 93v-1h-1v1h1zM166.25 93v-1h-1v1h1zM154.25 93v-1h-1v1h1zM142.25 93v-1h-1v1h1zM130.25 93v-1h-1v1h1zM202.25 81v-1h-1v1h1zM190.25 81v-1h-1v1h1zM178.25 81v-1h-1v1h1zM166.25 81v-1h-1v1h1zM154.25 81v-1h-1v1h1zM142.25 81v-1h-1v1h1zM130.25 81v-1h-1v1h1zM202.25 69v-1h-1v1h1zM190.25 69v-1h-1v1h1zM178.25 69v-1h-1v1h1zM166.25 69v-1h-1v1h1zM154.25 69v-1h-1v1h1zM142.25 69v-1h-1v1h1zM130.25 69v-1h-1v1h1zM202.25 57v-1h-1v1h1zM190.25 57v-1h-1v1h1zM178.25 57v-1h-1v1h1zM166.25 57v-1h-1v1h1zM154.25 57v-1h-1v1h1zM142.25 57v-1h-1v1h1zM130.25 57v-1h-1v1h1zM202.25 45v-1h-1v1h1zM190.25 45v-1h-1v1h1zM178.25 45v-1h-1v1h1zM166.25 45v-1h-1v1h1zM154.25 45v-1h-1v1h1zM142.25 45v-1h-1v1h1zM130.25 45v-1h-1v1h1zM202.25 33v-1h-1v1h1zM178.25 33v-1h-1v1h1zM166.25 33v-1h-1v1h1zM154.25 33v-1h-1v1h1zM142.25 33v-1h-1v1h1zM130.25 33v-1h-1v1h1zM130.25 21v-1h-1v1h1zM130.25 9V8h-1v1h1zM142.25 21v-1h-1v1h1z"/><path fill="#fff" d="M220.25 96V76h-24l-76-44-76 44h-24v20h26v64h-14v16h-12v16h200v-16h-12v-16h-14V96h26zm-158 64V96h16v64h-16zm32 0V96h52v64h-52zm68 0V96h16v64h-16z"/><path fill="#0A0B0D" d="M132.25 160h-24v-24c0-6.63 5.37-12 12-12s12 5.37 12 12v24z"/><path fill="url(#b)" d="M178.25 96h16v40h-16V96zm-32 40h16V96h-16v40z"/><path fill="url(#c)" d="M78.25 96h16v40h-16V96zm-32 40h16V96h-16v40z"/><path fill="#3ACC8A" d="M120.25 224c15.464 0 28-12.536 28-28s-12.536-28-28-28-28 12.536-28 28 12.536 28 28 28z"/><path fill="#fff" d="M121.25 184h-2v24h2v-24z"/><path fill="#fff" d="M132.25 195h-24v2h24v-2z"/><defs><linearGradient id="a" x1="120.25" x2="120.25" y1="-.26" y2="188.36" gradientUnits="userSpaceOnUse"><stop stop-color="#0A0B0D" stop-opacity="0"/><stop offset=".4" stop-color="#1652F0"/><stop offset=".88" stop-color="#154BD9"/><stop offset="1" stop-color="#0A0B0D" stop-opacity=".3"/></linearGradient><linearGradient id="b" x1="170.25" x2="170.25" y1="92.08" y2="119.12" gradientUnits="userSpaceOnUse"><stop stop-color="#D4EEFF"/><stop offset="1" stop-color="#fff"/></linearGradient><linearGradient id="c" x1="70.25" x2="70.25" y1="92.08" y2="119.12" gradientUnits="userSpaceOnUse"><stop stop-color="#D4EEFF"/><stop offset="1" stop-color="#fff"/></linearGradient></defs></svg>