<svg xmlns="http://www.w3.org/2000/svg" fill="none" viewBox="0 0 240 240"><path fill="url(#a)" d="M144 204V0H60v204h84z"/><path fill="#fff" fill-opacity=".35" d="M112 226v-1h-1v1h1zM136 214v-1h-1v1h1zM124 214v-1h-1v1h1zM112 214v-1h-1v1h1zM160 202v-1h-1v1h1zM148 202v-1h-1v1h1zM136 202v-1h-1v1h1zM124 202v-1h-1v1h1zM112 202v-1h-1v1h1zM184 190v-1h-1v1h1zM172 190v-1h-1v1h1zM160 190v-1h-1v1h1zM148 190v-1h-1v1h1zM136 190v-1h-1v1h1zM124 190v-1h-1v1h1zM112 190v-1h-1v1h1zM184 178v-1h-1v1h1zM172 178v-1h-1v1h1zM160 178v-1h-1v1h1zM148 178v-1h-1v1h1zM136 178v-1h-1v1h1zM124 178v-1h-1v1h1zM112 178v-1h-1v1h1zM184 166v-1h-1v1h1zM172 166v-1h-1v1h1zM160 166v-1h-1v1h1zM148 166v-1h-1v1h1zM136 166v-1h-1v1h1zM124 166v-1h-1v1h1zM112 166v-1h-1v1h1zM184 154v-1h-1v1h1zM172 154v-1h-1v1h1zM160 154v-1h-1v1h1zM148 154v-1h-1v1h1zM136 154v-1h-1v1h1zM124 154v-1h-1v1h1zM112 154v-1h-1v1h1zM184 142v-1h-1v1h1zM172 142v-1h-1v1h1zM160 142v-1h-1v1h1zM148 142v-1h-1v1h1zM136 142v-1h-1v1h1zM124 142v-1h-1v1h1zM112 142v-1h-1v1h1zM184 130v-1h-1v1h1zM172 130v-1h-1v1h1zM160 130v-1h-1v1h1zM148 130v-1h-1v1h1zM136 130v-1h-1v1h1zM124 130v-1h-1v1h1zM112 130v-1h-1v1h1zM184 118v-1h-1v1h1zM172 118v-1h-1v1h1zM160 118v-1h-1v1h1zM148 118v-1h-1v1h1zM136 118v-1h-1v1h1zM124 118v-1h-1v1h1zM112 118v-1h-1v1h1zM184 106v-1h-1v1h1zM172 106v-1h-1v1h1zM160 106v-1h-1v1h1zM148 106v-1h-1v1h1zM136 106v-1h-1v1h1zM124 106v-1h-1v1h1zM112 106v-1h-1v1h1zM184 94v-1h-1v1h1zM172 94v-1h-1v1h1zM160 94v-1h-1v1h1zM148 94v-1h-1v1h1zM136 94v-1h-1v1h1zM124 94v-1h-1v1h1zM112 94v-1h-1v1h1zM184 82v-1h-1v1h1zM172 82v-1h-1v1h1zM160 82v-1h-1v1h1zM148 82v-1h-1v1h1zM136 82v-1h-1v1h1zM124 82v-1h-1v1h1zM112 82v-1h-1v1h1zM184 70v-1h-1v1h1zM172 70v-1h-1v1h1zM160 70v-1h-1v1h1zM148 70v-1h-1v1h1zM136 70v-1h-1v1h1zM124 70v-1h-1v1h1zM112 70v-1h-1v1h1zM184 58v-1h-1v1h1zM172 58v-1h-1v1h1zM160 58v-1h-1v1h1zM148 58v-1h-1v1h1zM136 58v-1h-1v1h1zM124 58v-1h-1v1h1zM112 58v-1h-1v1h1zM184 46v-1h-1v1h1zM172 46v-1h-1v1h1zM160 46v-1h-1v1h1zM148 46v-1h-1v1h1zM136 46v-1h-1v1h1zM124 46v-1h-1v1h1zM112 46v-1h-1v1h1zM184 34v-1h-1v1h1zM172 34v-1h-1v1h1zM160 34v-1h-1v1h1zM148 34v-1h-1v1h1zM136 34v-1h-1v1h1zM124 34v-1h-1v1h1zM112 34v-1h-1v1h1zM184 22v-1h-1v1h1zM160 22v-1h-1v1h1zM148 22v-1h-1v1h1zM136 22v-1h-1v1h1zM124 22v-1h-1v1h1zM112 22v-1h-1v1h1zM112 10V9h-1v1h1zM124 10V9h-1v1h1z"/><g filter="url(#b)"><path fill="#fff" d="M28 156V56c0-2.21 1.79-4 4-4h176c2.21 0 4 1.79 4 4v100c0 2.21-1.79 4-4 4H32c-2.21 0-4-1.79-4-4z"/><path fill="url(#c)" d="M40 122h68v8H40v-8zm22 14H40v8h22v-8zm28 0H68v8h22v-8zm28 0H96v8h22v-8zm28 0h-22v8h22v-8z"/><path fill="#1652F0" d="M212 68H28v24h184V68z"/></g><path fill="#3ACC8A" d="M120 188c15.464 0 28-12.536 28-28s-12.536-28-28-28-28 12.536-28 28 12.536 28 28 28z"/><path fill="#fff" d="M121 148h-2v24h2v-24z"/><path fill="#fff" d="M132 159h-24v2h24v-2z"/><defs><linearGradient id="a" x1="102" x2="102" y1="-.28" y2="205.48" gradientUnits="userSpaceOnUse"><stop stop-color="#0A0B0D" stop-opacity="0"/><stop offset=".34" stop-color="#1652F0"/><stop offset=".7" stop-color="#154BD9" stop-opacity=".93"/><stop offset="1" stop-color="#0A0B0D" stop-opacity=".3"/></linearGradient><linearGradient id="c" x1="93" x2="93" y1="122.69" y2="155.69" gradientUnits="userSpaceOnUse"><stop stop-color="#D4EEFF"/><stop offset="1" stop-color="#fff"/></linearGradient><filter id="b" width="192" height="116" x="24" y="48" color-interpolation-filters="sRGB" filterUnits="userSpaceOnUse"><feFlood flood-opacity="0" result="BackgroundImageFix"/><feColorMatrix in="SourceAlpha" result="hardAlpha" values="0 0 0 0 0 0 0 0 0 0 0 0 0 0 0 0 0 0 127 0"/><feOffset/><feGaussianBlur stdDeviation="2"/><feColorMatrix values="0 0 0 0 0.0862745 0 0 0 0 0.321569 0 0 0 0 0.941176 0 0 0 0.2 0"/><feBlend in2="BackgroundImageFix" result="effect1_dropShadow"/><feBlend in="SourceGraphic" in2="effect1_dropShadow" result="shape"/></filter></defs></svg>