<svg xmlns="http://www.w3.org/2000/svg" fill="none" viewBox="0 0 48 48"><path fill="#144FCE" d="M37.5 48h-36C.675 48 0 47.325 0 46.5v-24c0-.825.675-1.5 1.5-1.5h36c.825 0 1.5.675 1.5 1.5v24c0 .825-.675 1.5-1.5 1.5z"/><path fill="#fff" d="M9 43.5H3V45h6v-1.5zM16.5 43.5h-6V45h6v-1.5zM24 43.5h-6V45h6v-1.5zM31.5 43.5h-6V45h6v-1.5z"/><path fill="#A5C1FD" d="M21 37.5v-36c0-.825.675-1.5 1.5-1.5h24c.825 0 1.5.675 1.5 1.5v36c0 .825-.675 1.5-1.5 1.5h-24c-.825 0-1.5-.675-1.5-1.5z"/><path fill="#588AF5" d="M37.5 21H21v16.5c0 .825.675 1.5 1.5 1.5H39V22.5c0-.825-.675-1.5-1.5-1.5zM16.5 40.5H3V42h13.5v-1.5z"/><path fill="#fff" d="M30.75 34.5v-9h-1.5v9h1.5z"/><path fill="#fff" d="M25.5 30.75h9v-1.5h-9v1.5z"/></svg>