<svg xmlns="http://www.w3.org/2000/svg" fill="none" viewBox="0 0 48 49"><path fill="#A5C1FD" d="M10.5 6c0 .825-.675 1.5-1.5 1.5H4.5C3.675 7.5 3 6.825 3 6s.675-1.5 1.5-1.5H9c.825 0 1.5.675 1.5 1.5z"/><path fill="#144FCE" d="M45.75 0h-39v48h39V0z"/><path fill="#A5C1FD" d="M10.5 42c0 .825-.675 1.5-1.5 1.5H4.5c-.825 0-1.5-.675-1.5-1.5s.675-1.5 1.5-1.5H9c.825 0 1.5.675 1.5 1.5zM10.5 33c0 .825-.675 1.5-1.5 1.5H4.5c-.825 0-1.5-.675-1.5-1.5s.675-1.5 1.5-1.5H9c.825 0 1.5.675 1.5 1.5zM10.5 24c0 .825-.675 1.5-1.5 1.5H4.5c-.825 0-1.5-.675-1.5-1.5s.675-1.5 1.5-1.5H9c.825 0 1.5.675 1.5 1.5zM10.5 15c0 .825-.675 1.5-1.5 1.5H4.5c-.825 0-1.5-.675-1.5-1.5s.675-1.5 1.5-1.5H9c.825 0 1.5.675 1.5 1.5z"/><path fill="#588AF5" d="M10.5 42c0-.825-.675-1.5-1.5-1.5H6.75v3H9c.825 0 1.5-.675 1.5-1.5zM10.5 15c0-.825-.675-1.5-1.5-1.5H6.75v3H9c.825 0 1.5-.675 1.5-1.5zM10.5 33c0-.825-.675-1.5-1.5-1.5H6.75v3H9c.825 0 1.5-.675 1.5-1.5zM10.5 24c0-.825-.675-1.5-1.5-1.5H6.75v3H9c.825 0 1.5-.675 1.5-1.5zM6.75 7.5H9c.825 0 1.5-.675 1.5-1.5S9.825 4.5 9 4.5H6.75v3z"/><path fill="#fff" d="M26.25 16.5a3 3 0 1 0 0-6 3 3 0 0 0 0 6zM32.25 25.5h-12v-3a3 3 0 0 1 3-3h6a3 3 0 0 1 3 3v3z"/></svg>