<svg xmlns="http://www.w3.org/2000/svg" fill="none" viewBox="0 0 48 48"><path fill="#A5C1FD" d="M43.5 8.976H0v-3a3 3 0 0 1 3-3h40.5v6z"/><path fill="#588AF5" d="M3 44.976h40.5v-36H0v33a3 3 0 0 0 3 3z"/><path fill="#144FCE" d="M43.5 8.976H3a3 3 0 0 1-3-3v36a3 3 0 0 0 3 3h43.5v-36h-3z"/><path fill="#588AF5" d="M3 8.976a3 3 0 0 1-3-3v36a3 3 0 0 0 3 3h40.5v-36H3z"/><path fill="#144FCE" d="M46.5 34.476h-12v-12h12c.825 0 1.5.675 1.5 1.5v9c0 .825-.675 1.5-1.5 1.5z"/><path fill="#fff" d="M40.5 29.976a1.5 1.5 0 1 0 0-3 1.5 1.5 0 0 0 0 3zM15.75 33.726h1.5v-12h-1.5v12z"/><path fill="#fff" d="M10.5 26.976v1.5h12v-1.5h-12z"/></svg>