<svg xmlns="http://www.w3.org/2000/svg" fill="none" viewBox="0 0 120 120"><path fill="url(#a)" d="M74 40H0v42h74V40z"/><path fill="url(#b)" d="M48 52H0v18h48V52z"/><path fill="#FFD066" d="M67 93c17.673 0 32-14.327 32-32 0-17.673-14.327-32-32-32-17.673 0-32 14.327-32 32 0 17.673 14.327 32 32 32z"/><path fill="url(#c)" d="M97.62 70.31c-2.71 8.91-9.2 16.17-17.6 19.92L38.44 46.57c4.14-8.17 11.68-14.33 20.76-16.61l38.42 40.35zM68.48 92.96c2.25-.1 4.44-.43 6.55-.98L36.44 51.47c-.65 2.08-1.08 4.25-1.3 6.49l33.34 35z" opacity=".3"/><path fill="url(#d)" d="M67 30.19c16.99 0 30.81 13.82 30.81 30.81S83.99 91.81 67 91.81 36.19 77.99 36.19 61 50.01 30.19 67 30.19zM67 29c-17.67 0-32 14.33-32 32s14.33 32 32 32 32-14.33 32-32-14.33-32-32-32z" opacity=".3"/><path fill="url(#e)" d="M67 29.3c17.48 0 31.7 14.22 31.7 31.7 0 17.48-14.22 31.7-31.7 31.7-17.48 0-31.7-14.22-31.7-31.7 0-17.48 14.22-31.7 31.7-31.7zm0-.3c-17.67 0-32 14.33-32 32s14.33 32 32 32 32-14.33 32-32-14.33-32-32-32z"/><path fill="url(#f)" d="M94.63 61c0 15.24-12.4 27.63-27.63 27.63-15.23 0-27.63-12.39-27.63-27.63 0-15.24 12.39-27.63 27.63-27.63 15.24 0 27.63 12.39 27.63 27.63zm-54.08 0c0 14.58 11.87 26.45 26.45 26.45S93.45 75.58 93.45 61 81.58 34.55 67 34.55 40.55 46.42 40.55 61z" opacity=".5"/><path fill="#fff" d="M75.32 60.11h-17.8v1.78h17.8v-1.78z"/><path fill="#fff" d="m70.14 68.59-1.26-1.26L75.22 61l-6.34-6.34 1.26-1.26 6.97 6.97c.35.35.35.91 0 1.26l-6.97 6.96z"/><path fill="url(#g)" d="m39.01 35.018 5.772-1.234 1.24-5.747 1.24 5.747 5.77 1.234-5.77 1.235L46.021 42l-1.24-5.747-5.771-1.235z"/><path fill="#FFD066" d="M35.068 18.871v3.056H32v.87h3.068v3.056h.875v-3.055h3.068v-.871h-3.068V18.87h-.875z"/><path fill="#88ADF5" d="M50.402 19.743c.483 0 .875-.39.875-.872a.873.873 0 0 0-.875-.871.873.873 0 0 0-.875.871c0 .482.392.872.875.872zM33.75 35.89c.483 0 .875-.39.875-.872a.873.873 0 0 0-.875-.87.873.873 0 0 0-.875.87c0 .482.392.872.875.872z"/><defs><linearGradient id="a" x1="-6.58" x2="70.57" y1="61" y2="61" gradientUnits="userSpaceOnUse"><stop stop-color="#0A0B0D" stop-opacity="0"/><stop offset="1" stop-color="#fff" stop-opacity=".8"/></linearGradient><linearGradient id="b" x1="-4.27" x2="45.77" y1="61" y2="61" gradientUnits="userSpaceOnUse"><stop stop-color="#0A0B0D" stop-opacity="0"/><stop offset="1" stop-color="#fff" stop-opacity=".6"/></linearGradient><linearGradient id="c" x1="52.8" x2="75.21" y1="50.42" y2="72.84" gradientUnits="userSpaceOnUse"><stop stop-color="#fff" stop-opacity=".15"/><stop offset=".5" stop-color="#fff"/><stop offset="1" stop-color="#fff" stop-opacity="0"/></linearGradient><linearGradient id="d" x1="90.85" x2="43.15" y1="82.34" y2="39.66" gradientUnits="userSpaceOnUse"><stop stop-color="#fff" stop-opacity=".2"/><stop offset=".5" stop-color="#fff"/><stop offset="1" stop-color="#fff" stop-opacity="0"/></linearGradient><linearGradient id="e" x1="90.85" x2="43.15" y1="82.34" y2="39.66" gradientUnits="userSpaceOnUse"><stop stop-color="#fff" stop-opacity=".2"/><stop offset=".5" stop-color="#fff"/><stop offset="1" stop-color="#fff" stop-opacity="0"/></linearGradient><linearGradient id="f" x1="39.37" x2="94.64" y1="61" y2="61" gradientUnits="userSpaceOnUse"><stop stop-color="#fff" stop-opacity="0"/><stop offset="1" stop-color="#fff"/></linearGradient><linearGradient id="g" x1="46.02" x2="46.02" y1="28.04" y2="42" gradientUnits="userSpaceOnUse"><stop stop-color="#1652F0"/><stop offset="1" stop-color="#fff" stop-opacity="0"/></linearGradient></defs></svg>