<svg xmlns="http://www.w3.org/2000/svg" fill="none" viewBox="0 0 48 48"><g clip-path="url(#a)"><path fill="#464B55" fill-rule="evenodd" d="M31.2 24a7.2 7.2 0 0 0-14.4 0v16.8a7.2 7.2 0 0 0 14.4 0V24z" clip-rule="evenodd"/><path fill="#588AF5" fill-rule="evenodd" d="M16.91 7.232a7.2 7.2 0 0 0 2 5.058c.166.16.34.31.518.451l15.83 15.83c.142.18.293.353.452.519a7.2 7.2 0 0 0 10.18-10.18 7.203 7.203 0 0 0-.593-.51L29.6 2.703a7.197 7.197 0 0 0-.51-.593 7.2 7.2 0 0 0-12.18 5.122z" clip-rule="evenodd"/><path fill="#464B55" fill-rule="evenodd" d="M0 7.2a7.2 7.2 0 1 1 14.4 0V24A7.2 7.2 0 0 1 0 24V7.2z" clip-rule="evenodd"/><path fill="#464B55" d="M45.892 12.292A7.2 7.2 0 1 0 35.71 2.11a7.2 7.2 0 0 0 10.182 10.182z"/><path fill="#0A0B0D" d="m41.27 14.38-7.65-7.65v.47a7.2 7.2 0 0 0 7.2 7.2l.45-.02z"/><path fill="#464B55" d="M7.2 48a7.2 7.2 0 1 0 0-14.4 7.2 7.2 0 0 0 0 14.4z"/><path fill="#0A0B0D" d="M7.2 29a5 5 0 1 1 0-10 5 5 0 0 1 0 10zm0-8a3 3 0 1 0 0 6 3 3 0 0 0 0-6zM24 16.8h-.5l7.68 7.68v-.5A7.2 7.2 0 0 0 24 16.8z"/><path fill="#464B55" d="M40.8 48a7.2 7.2 0 1 0 0-14.4 7.2 7.2 0 0 0 0 14.4z"/><path fill="#0A0B0D" d="M7.2 12.2a5 5 0 1 1 0-9.998 5 5 0 0 1 0 9.998zm0-8a3 3 0 1 0 0 6 3 3 0 0 0 0-6zM24 45.8a5 5 0 1 1 0-10 5 5 0 0 1 0 10zm0-8a3 3 0 1 0 0 6 3 3 0 0 0 0-6zM40.8 29a5 5 0 1 1-.018-10 5 5 0 0 1 .018 10zm-2.12-7.12a2.999 2.999 0 1 0 4.238 4.244 2.999 2.999 0 0 0-4.238-4.244zM24 12.2a5 5 0 1 1-.018-10 5 5 0 0 1 .018 10zm-2.12-7.12a3 3 0 1 0 4.238 4.245A3 3 0 0 0 21.88 5.08z"/></g><defs><clipPath id="a"><path fill="#fff" d="M0 0h48v48H0z"/></clipPath></defs></svg>