<svg xmlns="http://www.w3.org/2000/svg" fill="none" viewBox="0 0 240 240"><path fill="url(#a)" d="M175.78 130.32H64.22V240h111.56V130.32z"/><path fill="#fff" d="M48 132V60h144v72H48z"/><path fill="#1652F0" d="M52 124V68c2.21 0 4-1.79 4-4h128c0 2.21 1.79 4 4 4v56c-2.21 0-4 1.79-4 4H56c0-2.21-1.79-4-4-4z"/><path fill="#fff" d="M172 95h-28v2h28v-2zM168 102h-20v2h20v-2zM168 88h-20v2h20v-2zM68 97h28v-2H68v2zM72 104h20v-2H72v2zM72 90h20v-2H72v2zM128.17 100.76c0-4.68-2.66-6.24-7.81-7-3.8-.59-4.54-1.53-4.54-3.44 0-1.8 1.29-3.08 3.77-3.08 2.51 0 3.84 1.05 4.23 3.49h3.74c-.35-3.72-2.36-5.92-5.74-6.56V80h-3.75v4.09c-3.71.56-6.12 3.2-6.12 6.59 0 4.39 2.49 6.08 7.72 6.84 3.55.63 4.56 1.44 4.56 3.6s-1.71 3.6-4.14 3.6c-3.71 0-4.6-1.96-4.87-4.32h-3.93c.26 3.88 2.24 6.79 6.76 7.44V112h3.75v-4.16c3.89-.65 6.37-3.53 6.37-7.08z"/><path fill="#FFAE24" d="m192 48 2.12 9.89L204 60l-9.89 2.11L192 72l-2.11-9.88L180 60l9.88-2.11L192 48z"/><path fill="url(#b)" d="m197.62 181.41-1.36 6.59-1.37-6.59-2.63-.58V240h8v-59.17l-2.64.58z"/><path fill="#fff" d="M210.42 61.75c.61 0 1.12-.54 1.12-1.19 0-.65-.5-1.19-1.12-1.19-.61 0-1.12.54-1.12 1.19.01.65.51 1.19 1.12 1.19zM214.88 34.38c.61 0 1.12-.54 1.12-1.19 0-.65-.5-1.19-1.12-1.19-.62 0-1.12.54-1.12 1.19 0 .65.51 1.19 1.12 1.19zM189.22 39.14c.61 0 1.11-.54 1.11-1.19 0-.65-.5-1.19-1.11-1.19-.61 0-1.12.54-1.12 1.19.01.65.51 1.19 1.12 1.19z" opacity=".3"/><path fill="#fff" d="M198.15 45.68h3.9v-4.17h1.11v4.17h3.91v1.19h-3.91v4.17h-1.11v-4.17h-3.9v-1.19z" opacity=".5"/><path fill="#fff" fill-opacity=".5" d="m196.26 172 1.37 6.59L204 180l-6.38 1.41-1.37 6.59-1.37-6.59-6.38-1.41 6.38-1.41 1.38-6.59z"/><path fill="url(#c)" d="m221.62 145.41-1.36 6.59-1.37-6.59-2.63-.58V240h8v-95.17l-2.64.58z"/><path fill="#1652F0" d="m220.26 136 1.37 6.59L228 144l-6.38 1.41-1.37 6.59-1.37-6.59-6.38-1.41 6.38-1.41 1.38-6.59z"/><path fill="url(#d)" d="m42.38 181.41 1.36 6.59 1.37-6.59 2.63-.58V240h-8v-59.17l2.64.58z"/><path fill="#1652F0" d="m45.11 178.59 6.38 1.41-6.38 1.41-1.37 6.59-1.37-6.59L36 180l6.38-1.41 1.37-6.59 1.36 6.59z"/><path fill="url(#e)" d="m18.38 145.41 1.36 6.59 1.37-6.59 2.63-.58V240h-8v-95.17l2.64.58z"/><path fill="#fff" fill-opacity=".5" d="m21.11 142.59 6.38 1.41-6.38 1.41-1.37 6.59-1.37-6.59L12 144l6.38-1.41 1.37-6.59 1.36 6.59z"/><path fill="#fff" fill-opacity=".5" d="M133 188v-1h-1v1h1zM121 188v-1h-1v1h1zM109 188v-1h-1v1h1zM157 176v-1h-1v1h1zM145 176v-1h-1v1h1zM133 176v-1h-1v1h1zM121 176v-1h-1v1h1zM109 176v-1h-1v1h1zM181 164v-1h-1v1h1zM169 164v-1h-1v1h1zM157 164v-1h-1v1h1zM145 164v-1h-1v1h1zM133 164v-1h-1v1h1zM121 164v-1h-1v1h1zM109 164v-1h-1v1h1zM181 152v-1h-1v1h1zM169 152v-1h-1v1h1zM157 152v-1h-1v1h1zM145 152v-1h-1v1h1zM133 152v-1h-1v1h1zM121 152v-1h-1v1h1zM109 152v-1h-1v1h1zM181 140v-1h-1v1h1zM169 140v-1h-1v1h1zM157 140v-1h-1v1h1zM145 140v-1h-1v1h1zM133 140v-1h-1v1h1zM121 140v-1h-1v1h1zM109 140v-1h-1v1h1z" opacity=".5"/><defs><linearGradient id="a" x1="120" x2="120" y1="248.12" y2="130.32" gradientUnits="userSpaceOnUse"><stop stop-color="#0A0B0D" stop-opacity="0"/><stop offset="1" stop-color="#1652F0" stop-opacity=".4"/></linearGradient><linearGradient id="b" x1="196.25" x2="196.25" y1="180.83" y2="240" gradientUnits="userSpaceOnUse"><stop stop-color="#1652F0" stop-opacity=".6"/><stop offset="1" stop-color="#0A0B0D" stop-opacity="0"/></linearGradient><linearGradient id="c" x1="220.25" x2="220.25" y1="144.83" y2="240" gradientUnits="userSpaceOnUse"><stop stop-color="#1652F0" stop-opacity=".6"/><stop offset="1" stop-color="#0A0B0D" stop-opacity="0"/></linearGradient><linearGradient id="d" x1="43.74" x2="43.74" y1="180.83" y2="240" gradientUnits="userSpaceOnUse"><stop stop-color="#1652F0" stop-opacity=".6"/><stop offset="1" stop-color="#0A0B0D" stop-opacity="0"/></linearGradient><linearGradient id="e" x1="19.75" x2="19.75" y1="144.83" y2="240" gradientUnits="userSpaceOnUse"><stop stop-color="#1652F0" stop-opacity=".6"/><stop offset="1" stop-color="#0A0B0D" stop-opacity="0"/></linearGradient></defs></svg>