<svg xmlns="http://www.w3.org/2000/svg" fill="none" viewBox="0 0 240 240"><path fill="#0A0B0D" d="M0 0h240v240H0z"/><path fill="#fff" d="M144 0H0v240h144V0z"/><path fill="#0A0B0D" d="M0 240h144V0H0v240z"/><path fill="#464B55" d="M240 24h-96v192h96V24z"/><path fill="#588AF5" d="M0 24h144v192H0V24z"/><path fill="#464B55" d="M0 24h144V0H0v24zm0 216h144v-24H0v24z"/><path fill="#fff" d="M72 14c1.1 0 2-.9 2-2s-.9-2-2-2-2 .9-2 2 .9 2 2 2zm8 212H64v4h16v-4z"/><path fill="#588AF5" fill-rule="evenodd" d="M240 120c0 26.536-21.464 48-48 48s-48-21.464-48-48 21.464-48 48-48 48 21.464 48 48z" clip-rule="evenodd"/><path fill="#fff" d="M36 116c6.6 0 12-5.4 12-12s-5.4-12-12-12-12 5.4-12 12 5.4 12 12 12zm36 0c6.6 0 12-5.4 12-12s-5.4-12-12-12-12 5.4-12 12 5.4 12 12 12z"/><path stroke="#0A0B0D" stroke-miterlimit="10" stroke-width="2" d="M72 97.4v6.6m-6.3-2.1L72 104m-3.9 5.4L72 104m3.9 5.4L72 104m6.3-2.1L72 104m-36-6.6v6.6m-6.3-2.1L36 104m-3.9 5.4L36 104m3.9 5.4L36 104m6.3-2.1L36 104"/><path fill="#fff" d="M108 116c6.6 0 12-5.4 12-12s-5.4-12-12-12-12 5.4-12 12 5.4 12 12 12z"/><path stroke="#0A0B0D" stroke-miterlimit="10" stroke-width="2" d="M108 97.4v6.6m-6.3-2.1 6.3 2.1m-3.9 5.4 3.9-5.4m3.9 5.4L108 104m6.3-2.1L108 104"/><path fill="#fff" d="M36 84c6.6 0 12-5.4 12-12s-5.4-12-12-12-12 5.4-12 12 5.4 12 12 12zm36 0c6.6 0 12-5.4 12-12s-5.4-12-12-12-12 5.4-12 12 5.4 12 12 12z"/><path stroke="#0A0B0D" stroke-miterlimit="10" stroke-width="2" d="M72 65.4V72m-6.3-2 6.3 2m-3.9 5.4L72 72m3.9 5.4L72 72m6.3-2L72 72m-36-6.6V72m-6.3-2 6.3 2m-3.9 5.4L36 72m3.9 5.4L36 72m6.3-2L36 72"/><path fill="#fff" d="M108 84c6.6 0 12-5.4 12-12s-5.4-12-12-12-12 5.4-12 12 5.4 12 12 12z"/><path stroke="#0A0B0D" stroke-miterlimit="10" stroke-width="2" d="M108 65.4V72m-6.3-2 6.3 2m-3.9 5.4L108 72m3.9 5.4L108 72m6.3-2-6.3 2"/><path fill="#fff" d="M36 148c6.6 0 12-5.4 12-12s-5.4-12-12-12-12 5.4-12 12 5.4 12 12 12zm36 0c6.6 0 12-5.4 12-12s-5.4-12-12-12-12 5.4-12 12 5.4 12 12 12z"/><path stroke="#0A0B0D" stroke-miterlimit="10" stroke-width="2" d="M72 129.4v6.6m-6.3-2.1L72 136m-3.9 5.4L72 136m3.9 5.4L72 136m6.3-2.1L72 136m-36-6.6v6.6m-6.3-2.1L36 136m-3.9 5.4L36 136m3.9 5.4L36 136m6.3-2.1L36 136"/><path fill="#fff" d="M108 148c6.6 0 12-5.4 12-12s-5.4-12-12-12-12 5.4-12 12 5.4 12 12 12z"/><path stroke="#0A0B0D" stroke-miterlimit="10" stroke-width="2" d="M108 129.4v6.6m-6.3-2.1 6.3 2.1m-3.9 5.4 3.9-5.4m3.9 5.4L108 136m6.3-2.1L108 136"/><path fill="#fff" d="M72 180c6.6 0 12-5.4 12-12s-5.4-12-12-12-12 5.4-12 12 5.4 12 12 12z"/><path stroke="#0A0B0D" stroke-miterlimit="10" stroke-width="2" d="M72 161.4v6.6m-6.3-2.1L72 168m-3.9 5.4L72 168m3.9 5.4L72 168m6.3-2.1L72 168"/><path fill="#fff" d="m205.913 90-8.348 29.985H172L205.913 90zm-28.826 60 8.348-29.985H211L177.087 150z"/></svg>