<svg xmlns="http://www.w3.org/2000/svg" fill="none" viewBox="0 0 240 240"><path fill="#ECD069" d="M156 204c0 19.882-16.118 36-36 36s-36-16.118-36-36 16.118-36 36-36 36 16.118 36 36z"/><path fill="#0A0B0D" fill-rule="evenodd" d="M122 189v20h-4v-20h4z" clip-rule="evenodd"/><path fill="#0A0B0D" d="M123 216a3 3 0 1 1-6 0 3 3 0 0 1 6 0z"/><path fill="#464B55" d="M64 0h124c11.046 0 20 8.954 20 20v144c0 11.046-8.954 20-20 20H64V0z"/><path fill="#588AF5" d="M48 0h124c11.046 0 20 8.954 20 20v144c0 11.046-8.954 20-20 20H48V0z"/><path fill="#0A0B0D" fill-rule="evenodd" d="M60 33H37v-2h23v2zm0 40H37v-2h23v2zm0 40H37v-2h23v2zm0 40H37v-2h23v2zm0-109H37v-2h23v2zm0 40H37v-2h23v2zm0 40H37v-2h23v2zm0 40H37v-2h23v2zm0-142H37v-2h23v2zm0 40H37v-2h23v2zm0 40H37v-2h23v2zm0 40H37v-2h23v2zm89.938 42H90.062c6.458-9.648 17.456-16 29.938-16 12.481 0 23.48 6.352 29.938 16zm10.562-55H80v-2h80.5v2zm-7.5 16H87v-2h66v2z" clip-rule="evenodd"/><path fill="#45DAF6" d="M164 68.008a43.852 43.852 0 0 1-5.887 22.004C150.505 103.167 136.274 112 120.008 112c-16.282 0-30.497-8.849-38.121-21.988A43.855 43.855 0 0 1 76 68.008C76 43.702 95.695 24 119.992 24 144.305 24 164 43.702 164 68.008z"/><path fill="#0A0B0D" fill-rule="evenodd" d="M82 90.006C89.606 76.851 103.823 68 120.109 68c16.296 0 30.517 8.85 38.124 22.007l-.003.005C150.622 103.167 136.391 112 120.124 112c-16.281 0-30.497-8.849-38.12-21.988L82 90.006z" clip-rule="evenodd"/><path fill="#0A0B0D" d="M119.5 65c8.008 0 14.5-6.492 14.5-14.5S127.508 36 119.5 36 105 42.492 105 50.5 111.492 65 119.5 65z"/></svg>