<svg xmlns="http://www.w3.org/2000/svg" fill="none" viewBox="0 0 240 240"><path fill="#1652F0" fill-opacity=".5" d="M163.144 22.91v-1h-1.004v1h1.004zm-12.04 0v-1H150.1v1h1.004z"/><path fill="url(#a)" d="M210.5 210.3V21h-47.2v189.4h47.2v-.1z"/><path fill="#fff" fill-opacity=".5" d="M176.9 192.8v-1h-1v1h1zm-11.9 0v-1h-1v1h1zm-12 0v-1h-1v1h1zm47.7-11.9v-1h-1v1h1zm-11.9 0v-1h-1v1h1zm-11.9 0v-1h-1v1h1zm-11.9 0v-1h-1v1h1zm-12 0v-1h-1v1h1zm59.6-11.9v-1h-1v1h1zm-11.9 0v-1h-1v1h1zm-11.9 0v-1h-1v1h1z" opacity=".5"/><path fill="#1652F0" fill-opacity=".5" d="M176.9 169v-1h-1v1h1z"/><path fill="#fff" fill-opacity=".5" d="M165 169v-1h-1v1h1z" opacity=".5"/><path fill="#1652F0" fill-opacity=".5" d="M153 169v-1h-1v1h1z"/><path fill="#fff" fill-opacity=".5" d="M212.6 157.1v-1h-1v1h1zm-11.9 0v-1h-1v1h1zm-11.9 0v-1h-1v1h1zm-11.9 0v-1h-1v1h1z" opacity=".5"/><path fill="#1652F0" fill-opacity=".5" d="M165 157.1v-1h-1v1h1zm-12 0v-1h-1v1h1z"/><path fill="#fff" fill-opacity=".5" d="M212.6 145.1v-1h-1v1h1z" opacity=".5"/><path fill="#1652F0" fill-opacity=".5" d="M200.7 145.1v-1h-1v1h1zm-11.9 0v-1h-1v1h1zm-11.9 0v-1h-1v1h1zm-11.9 0v-1h-1v1h1zm-12 0v-1h-1v1h1zm59.6-11.9v-1h-1v1h1zm-11.9 0v-1h-1v1h1zm-11.9 0v-1h-1v1h1zm-11.9 0v-1h-1v1h1zm-11.9 0v-1h-1v1h1zm-12 0v-1h-1v1h1zm59.6-11.9v-1h-1v1h1zm-11.9 0v-1h-1v1h1zm-11.9 0v-1h-1v1h1zm-11.9 0v-1h-1v1h1zm-11.9 0v-1h-1v1h1zm-12 0v-1h-1v1h1zm59.6-11.9v-1h-1v1h1zm-11.9 0v-1h-1v1h1zm-11.9 0v-1h-1v1h1zm-11.9 0v-1h-1v1h1zm-11.9 0v-1h-1v1h1zm-12 0v-1h-1v1h1zm62.8-12.7v-1.1h-1.1v1.1h1.1zm-13.4 0v-1.1h-1.1v1.1h1.1zm-13.3 0v-1.1H188v1.1h1.1zm-13.4 0v-1.1h-1.1v1.1h1.1zm-13.4 0v-1.1h-1.1v1.1h1.1zm-9.3.8v-1h-1v1h1zm59.6-11.9v-1h-1v1h1zm-11.9 0v-1h-1v1h1zm-11.9 0v-1h-1v1h1zm-11.9 0v-1h-1v1h1zm-11.9 0v-1h-1v1h1zm-12 0v-1h-1v1h1zm59.6-11.9v-1h-1v1h1zm-11.9 0v-1h-1v1h1zm-11.9 0v-1h-1v1h1zm-11.9 0v-1h-1v1h1zm-11.9 0v-1h-1v1h1z"/><path fill="#fff" fill-opacity=".5" d="M153 73.7v-1h-1v1h1zm59.6-12v-1h-1v1h1z" opacity=".5"/><path fill="#1652F0" fill-opacity=".5" d="M200.7 61.7v-1h-1v1h1zm-11.9 0v-1h-1v1h1zm-11.9 0v-1h-1v1h1z"/><path fill="#fff" fill-opacity=".5" d="M165 61.7v-1h-1v1h1z" opacity=".5"/><path fill="#1652F0" fill-opacity=".5" d="M145.4 61.8v-1.4H144v1.4h1.4z"/><path fill="#fff" fill-opacity=".5" d="M212.6 49.8v-1h-1v1h1zm-11.9 0v-1h-1v1h1zm-11.9 0v-1h-1v1h1zm-11.9 0v-1h-1v1h1zm-11.9 0v-1h-1v1h1zm-12 0v-1h-1v1h1zm35.8-11.9v-1h-1v1h1zm-11.9 0v-1h-1v1h1zm-11.9 0v-1h-1v1h1zm-12 0v-1h-1v1h1z" opacity=".5"/><path fill="#1652F0" d="M187.9 135.8c19.7 0 35.7-16 35.7-35.7 0-19.7-16-35.7-35.7-35.7-19.7 0-35.7 16-35.7 35.7.1 19.7 16 35.7 35.7 35.7z"/><path fill="url(#b)" d="M187.9 65.5c19.1 0 34.6 15.5 34.6 34.6s-15.5 34.6-34.6 34.6-34.6-15.5-34.6-34.6c.1-19.1 15.6-34.6 34.6-34.6zm0-1.1c-19.7 0-35.7 15.9-35.7 35.7 0 19.7 15.9 35.7 35.7 35.7 19.7 0 35.7-15.9 35.7-35.7 0-19.8-15.9-35.7-35.7-35.7z" opacity=".3"/><path stroke="url(#c)" stroke-miterlimit="10" stroke-width="45" d="m24 203.3 54.3-60.6 38.1 32.4 61.1-60.6"/><path fill="url(#d)" d="m161.7 101.3 28.9 29.1-73 72.4-35.8-30.4-1.5-1.3-1.3 1.4-38.4 42.8L10 188.1l66.3-74 37.6 31.9 1.4 1.2 1.3-1.3 45.1-44.6zm0-2.8-46.4 46-39.1-33.2-69 76.9 33.5 30L80.4 174l37.2 31.6 75.8-75.1-31.7-32z"/><path stroke="url(#e)" stroke-miterlimit="10" stroke-width="16" d="m24 203.3 54.3-60.6 38.1 32.4 61.1-60.6"/><path stroke="url(#f)" stroke-miterlimit="10" stroke-width="16" d="m24 203.3 54.3-60.6 38.1 32.4 61.1-60.6"/><path stroke="url(#g)" stroke-miterlimit="10" stroke-width="4" d="m24 203.3 54.3-60.6 38.1 32.4 34.7-34.2"/><path fill="#FFD066" d="M186.7 148.4c24.7 0 44.7-20 44.7-44.7 0-24.7-20-44.7-44.7-44.7C162 59 142 79 142 103.7c0 24.7 20 44.7 44.7 44.7z"/><path fill="url(#h)" d="M143.4 103.6c0-11.6 4.5-22.5 12.7-30.7 16.9-16.9 44.4-16.9 61.3 0 8.2 8.2 12.7 19.1 12.7 30.7 0 11.6-4.5 22.5-12.7 30.7-16.9 16.9-44.4 16.9-61.3 0-8.2-8.2-12.7-19.1-12.7-30.7zm11.7 31.7c8.1 8.1 19.3 13.1 31.6 13.1 24.7 0 44.7-20 44.7-44.7 0-12.4-5-23.5-13.1-31.6C210.2 64 199 59 186.7 59 162 59 142 79 142 103.7c0 12.3 5 23.5 13.1 31.6z"/><path fill="url(#i)" d="M186.5 143.1c-21.8 0-39.5-17.7-39.5-39.5s17.7-39.5 39.5-39.5S226 81.9 226 103.6s-17.7 39.5-39.5 39.5zm0-77.6c-21 0-38.1 17.1-38.1 38.1s17.1 38.1 38.1 38.1 38.1-17.1 38.1-38.1-17.1-38.1-38.1-38.1z" opacity=".5"/><path stroke="#fff" stroke-miterlimit="10" stroke-width="5" d="M199.3 121.8c3.6.1 6.6-2.8 6.7-6.4.1-3.6-2.8-6.6-6.4-6.7-3.6-.1-6.6 2.8-6.7 6.4 0 3.6 2.9 6.6 6.4 6.7zm-25.1-24.7c3.6.1 6.6-2.8 6.7-6.4.1-3.6-2.8-6.6-6.4-6.7-3.6-.1-6.6 2.8-6.7 6.4 0 3.6 2.9 6.6 6.4 6.7zm-6.7 26.4 36.2-38.4"/><path fill="#FFD066" d="M152.4 60.3h-7v-7h-2v7h-7v2h7v7h2v-7h7v-2zm77.7 83.3h-4.8v-4.8h-1.4v4.8h-4.8v1.4h4.8v4.8h1.4V145h4.8v-1.4z"/><path fill="#fff" d="m223.5 39.7 1.7 7.8 7.8 1.7-7.8 1.7-1.7 7.8-1.7-7.8-7.8-1.7 7.8-1.7 1.7-7.8zM180 161.1l1.4 6.6 6.6 1.4-6.6 1.4-1.4 6.6-1.4-6.6-6.6-1.4 6.6-1.4 1.4-6.6z" opacity=".54"/><path fill="#1652F0" d="m155.6 135.7-1.1 5.3-1.1 5.3-4.1-3.6-4-3.6 5.1-1.7 5.2-1.7z"/><defs><linearGradient id="a" x1="186.91" x2="186.91" y1="24.11" y2="209.56" gradientUnits="userSpaceOnUse"><stop stop-color="#1652F0" stop-opacity="0"/><stop offset=".52" stop-color="#1652F0"/><stop offset="1" stop-color="#1652F0" stop-opacity="0"/></linearGradient><linearGradient id="b" x1="161.75" x2="216.42" y1="72.59" y2="129.96" gradientUnits="userSpaceOnUse"><stop stop-color="#fff"/><stop offset="1" stop-color="#fff" stop-opacity="0"/></linearGradient><linearGradient id="c" x1="7.21" x2="193.35" y1="158.4" y2="158.4" gradientUnits="userSpaceOnUse"><stop stop-color="#231F20" stop-opacity="0"/><stop offset=".1" stop-color="#231F22" stop-opacity=".25"/><stop offset=".14" stop-color="#222129" stop-opacity=".34"/><stop offset=".16" stop-color="#222434" stop-opacity=".4"/><stop offset=".18" stop-color="#212845" stop-opacity=".45"/><stop offset=".2" stop-color="#1F2E5B" stop-opacity=".5"/><stop offset=".22" stop-color="#1E3477" stop-opacity=".54"/><stop offset=".23" stop-color="#1C3C97" stop-opacity=".57"/><stop offset=".25" stop-color="#1945BD" stop-opacity=".6"/><stop offset=".26" stop-color="#1750E6" stop-opacity=".63"/><stop offset=".26" stop-color="#1652F0" stop-opacity=".64"/><stop offset=".63" stop-color="#1652F0"/><stop offset=".97" stop-color="#1652F0"/></linearGradient><linearGradient id="d" x1="7.21" x2="193.35" y1="158.4" y2="158.4" gradientUnits="userSpaceOnUse"><stop offset=".25" stop-color="#231F20" stop-opacity="0"/><stop offset=".33" stop-color="#1652F0" stop-opacity=".64"/><stop offset=".49" stop-color="#1652F0" stop-opacity=".77"/><stop offset=".71" stop-color="#1652F0"/><stop offset=".88" stop-color="#1652F0"/></linearGradient><linearGradient id="e" x1="18.01" x2="183.15" y1="158.7" y2="158.7" gradientUnits="userSpaceOnUse"><stop stop-color="#231F20" stop-opacity="0"/><stop offset="1" stop-color="#231F20"/></linearGradient><linearGradient id="f" x1="18.01" x2="183.15" y1="158.7" y2="158.7" gradientUnits="userSpaceOnUse"><stop stop-color="#231F20" stop-opacity="0"/><stop offset="1" stop-color="#231F20"/></linearGradient><linearGradient id="g" x1="22.47" x2="152.53" y1="172.05" y2="172.05" gradientUnits="userSpaceOnUse"><stop stop-color="#231F20" stop-opacity="0"/><stop offset=".59" stop-color="#1652F0"/><stop offset="1" stop-color="#1652F0" stop-opacity=".7"/></linearGradient><linearGradient id="h" x1="156.87" x2="216.55" y1="136.97" y2="70.26" gradientUnits="userSpaceOnUse"><stop stop-color="#fff" stop-opacity=".2"/><stop offset=".5" stop-color="#fff"/><stop offset="1" stop-color="#fff" stop-opacity="0"/></linearGradient><linearGradient id="i" x1="147" x2="225.96" y1="103.62" y2="103.62" gradientUnits="userSpaceOnUse"><stop stop-color="#fff" stop-opacity="0"/><stop offset="1" stop-color="#fff"/></linearGradient></defs></svg>