<svg xmlns="http://www.w3.org/2000/svg" fill="none" viewBox="0 0 120 120"><g clip-path="url(#a)"><path fill="#B3E0FF" d="M19 24.77h40v51H19z"/><path fill="url(#b)" d="M19 24.77h40v51H19z"/><path fill="#fff" d="m39 33.765 3.7 12.2 12.3 3.8-12.3 3.8-3.7 12.2-3.8-12.2-12.2-3.8 12.2-3.8 3.8-12.2z"/><path fill="#1652F0" d="M39 43.77h61v51H39z"/><path fill="#fff" d="M42 46.77h55v45H42z"/><path fill="#1652F0" d="M60 78.77h8v9h-8z"/><path fill="#3ACC8A" d="M72 67.77h8v20h-8z"/><path fill="#FFCC76" d="M84 54.77h8v33h-8z"/><circle cx="56" cy="61.77" r="9" fill="url(#c)"/><path fill="url(#d)" d="M0 0h40v25H0z" transform="matrix(1 0 0 -1 19 24.765)"/><path fill="url(#e)" d="M0 0h61v26H0z" transform="matrix(-1 0 0 1 100 94.765)"/><path fill="#FFAE24" d="m68 39.765 1.763 8.238L78 49.765l-8.237 1.763L68 59.765l-1.763-8.237L58 49.765l8.237-1.762L68 39.765z"/><path fill="#fff" d="M81 40.765a1 1 0 1 0 0-2 1 1 0 0 0 0 2z"/><path fill="#fff" fill-opacity=".5" d="M73 33.765a1 1 0 1 0 0-2 1 1 0 0 0 0 2z"/></g><defs><linearGradient id="b" x1="39" x2="39" y1="24.77" y2="75.77" gradientUnits="userSpaceOnUse"><stop stop-color="#1652F0"/><stop offset="1" stop-color="#1652F0" stop-opacity="0"/></linearGradient><linearGradient id="c" x1="56" x2="56" y1="52.77" y2="70.77" gradientUnits="userSpaceOnUse"><stop stop-color="#1652F0"/><stop offset="1" stop-color="#1652F0" stop-opacity="0"/></linearGradient><linearGradient id="d" x1="20" x2="20" y1="0" y2="25" gradientUnits="userSpaceOnUse"><stop stop-color="#0052FF" stop-opacity=".4"/><stop offset="1" stop-color="#0A0B0D" stop-opacity="0"/></linearGradient><linearGradient id="e" x1="30.5" x2="30.5" y1="0" y2="26" gradientUnits="userSpaceOnUse"><stop stop-color="#0052FF" stop-opacity=".4"/><stop offset="1" stop-color="#fff" stop-opacity="0"/><stop offset="1" stop-color="#0A0B0D" stop-opacity="0"/></linearGradient><clipPath id="a"><path fill="#fff" d="M0 0h120v120H0z"/></clipPath></defs></svg>