<svg xmlns="http://www.w3.org/2000/svg" fill="none" viewBox="0 0 240 241"><path fill="url(#a)" d="M89 193.001v-184H39v184h50z"/><path fill="#fff" fill-opacity=".5" d="M228.32 186.97h-1v1h1v-1zM216.32 186.97h-1v1h1v-1zM216.32 198.97h-1v1h1v-1zM204.32 174.97h-1v1h1v-1zM204.32 186.97h-1v1h1v-1zM204.32 198.97h-1v1h1v-1zM192.32 174.97h-1v1h1v-1zM192.32 186.97h-1v1h1v-1zM192.32 198.97h-1v1h1v-1zM180.32 174.97h-1v1h1v-1zM180.32 186.97h-1v1h1v-1zM180.32 198.97h-1v1h1v-1z" opacity=".25"/><path fill="#1652EF" fill-opacity=".5" d="M168.32 174.97h-1v1h1v-1zM168.32 186.97h-1v1h1v-1zM168.32 198.97h-1v1h1v-1zM156.32 174.97h-1v1h1v-1zM156.32 186.97h-1v1h1v-1zM156.32 198.97h-1v1h1v-1zM144.32 174.97h-1v1h1v-1zM144.32 186.97h-1v1h1v-1zM144.32 198.97h-1v1h1v-1zM132.32 174.97h-1v1h1v-1zM132.32 186.97h-1v1h1v-1zM132.32 198.97h-1v1h1v-1zM120.32 174.97h-1v1h1v-1zM120.32 186.97h-1v1h1v-1zM120.32 198.97h-1v1h1v-1zM108.32 174.97h-1v1h1v-1zM108.32 186.97h-1v1h1v-1zM108.32 198.97h-1v1h1v-1zM96.32 174.97h-1v1h1v-1zM96.32 186.97h-1v1h1v-1zM96.32 198.97h-1v1h1v-1zM84.32 174.97h-1v1h1v-1zM84.32 186.97h-1v1h1v-1zM84.32 198.97h-1v1h1v-1zM72.32 174.97h-1v1h1v-1zM72.32 186.97h-1v1h1v-1zM72.32 198.97h-1v1h1v-1z"/><path fill="#fff" fill-opacity=".5" d="M60.32 174.97h-1v1h1v-1zM60.32 186.97h-1v1h1v-1zM60.32 198.97h-1v1h1v-1zM48.32 174.97h-1v1h1v-1zM48.32 186.97h-1v1h1v-1zM48.32 198.97h-1v1h1v-1zM36.32 186.97h-1v1h1v-1zM36.32 198.97h-1v1h1v-1zM24.32 198.97h-1v1h1v-1zM12.32 198.97h-1v1h1v-1zM11.32 85.97h1v-1h-1v1zM23.32 97.97h1v-1h-1v1zM23.32 85.97h1v-1h-1v1zM35.32 109.97h1v-1h-1v1zM35.32 97.97h1v-1h-1v1zM35.32 85.97h1v-1h-1v1zM35.32 73.97h1v-1h-1v1zM47.32 109.97h1v-1h-1v1zM47.32 97.97h1v-1h-1v1zM47.32 85.97h1v-1h-1v1zM47.32 73.97h1v-1h-1v1zM47.32 61.97h1v-1h-1v1zM59.32 109.97h1v-1h-1v1zM59.32 97.97h1v-1h-1v1zM59.32 85.97h1v-1h-1v1zM59.32 73.97h1v-1h-1v1zM59.32 61.97h1v-1h-1v1z" opacity=".25"/><path fill="#1652EF" fill-opacity=".5" d="M71.32 109.97h1v-1h-1v1zM71.32 97.97h1v-1h-1v1zM71.32 85.97h1v-1h-1v1zM71.32 73.97h1v-1h-1v1zM71.32 61.97h1v-1h-1v1zM83.32 109.97h1v-1h-1v1zM83.32 97.97h1v-1h-1v1zM83.32 85.97h1v-1h-1v1zM83.32 73.97h1v-1h-1v1zM83.32 61.97h1v-1h-1v1zM95.32 109.97h1v-1h-1v1zM95.32 97.97h1v-1h-1v1zM95.32 85.97h1v-1h-1v1zM95.32 73.97h1v-1h-1v1zM95.32 61.97h1v-1h-1v1zM107.32 109.97h1v-1h-1v1zM107.32 61.97h1v-1h-1v1zM119.32 109.97h1v-1h-1v1zM119.32 61.97h1v-1h-1v1zM131.32 109.97h1v-1h-1v1zM131.32 61.97h1v-1h-1v1zM143.32 109.97h1v-1h-1v1zM143.32 61.97h1v-1h-1v1zM155.32 109.97h1v-1h-1v1zM155.32 97.97h1v-1h-1v1zM155.32 85.97h1v-1h-1v1zM155.32 73.97h1v-1h-1v1zM155.32 61.97h1v-1h-1v1zM167.32 109.97h1v-1h-1v1zM167.32 97.97h1v-1h-1v1zM167.32 85.97h1v-1h-1v1zM167.32 73.97h1v-1h-1v1zM167.32 61.97h1v-1h-1v1z"/><path fill="#fff" fill-opacity=".5" d="M179.32 109.97h1v-1h-1v1zM179.32 97.97h1v-1h-1v1zM179.32 85.97h1v-1h-1v1zM179.32 73.97h1v-1h-1v1zM179.32 61.97h1v-1h-1v1zM191.32 109.97h1v-1h-1v1zM191.32 97.97h1v-1h-1v1zM191.32 85.97h1v-1h-1v1zM191.32 73.97h1v-1h-1v1zM191.32 61.97h1v-1h-1v1zM203.32 109.97h1v-1h-1v1zM203.32 97.97h1v-1h-1v1zM203.32 85.97h1v-1h-1v1zM203.32 74.47h1v-1h-1v1zM203.32 62.97h1v-1h-1v1zM215.32 97.97h1v-1h-1v1zM215.32 85.97h1v-1h-1v1zM215.32 73.97h1v-1h-1v1zM227.32 73.97h1v-1h-1v1zM227.32 85.97h1v-1h-1v1z" opacity=".25"/><path d="M52.15 17.92h134.4v222.24H52.15z"/><path fill="#1652F0" d="M167.32 224.97h-96c-2.21 0-4-1.79-4-4v-184c0-2.21 1.79-4 4-4h96c2.21 0 4 1.79 4 4v184c0 2.21-1.79 4-4 4z"/><path fill="#fff" d="M171.32 44.97h-104v168h104v-168z"/><path fill="#D3EDFF" d="M132.32 220.97h-26c-1.1 0-2-.9-2-2s.9-2 2-2h26c1.1 0 2 .9 2 2s-.9 2-2 2zM119.32 41.49c1.17 0 2.11-.94 2.11-2.11s-.94-2.11-2.11-2.11-2.11.94-2.11 2.11c0 1.16.94 2.11 2.11 2.11z"/><path fill="#fff" d="M73.32 50.97h-2v2h2v-2zM76.32 49.97h-2v3h2v-3zM79.32 48.97h-2v4h2v-4zM167.32 49.22h-6v3.5h6v-3.5zM160.82 51.97v-2c-.28 0-.5.22-.5.5v1c0 .28.22.5.5.5zM147.94 117.29l-28.62 28.62-28.62-28.62h57.24z"/><path fill="url(#b)" d="m145.52 118.29-26.21 26.21-26.21-26.21h52.42zm2.42-1H90.7l28.62 28.62 28.62-28.62z"/><path fill="#99D6FF" d="m147.94 117.29-28.62 28.62-28.62-28.62h57.24z"/><path fill="url(#c)" d="M106.05 156.97h26.53c4.59 0 8.32 3.73 8.32 8.32v26.53c0 4.59-3.73 8.32-8.32 8.32h-26.53c-4.59 0-8.32-3.73-8.32-8.32v-26.53c0-4.6 3.72-8.32 8.32-8.32z"/><path fill="#fff" d="M119.31 193.16c8.07 0 14.6-6.54 14.6-14.6 0-8.06-6.54-14.6-14.6-14.6-8.06 0-14.6 6.54-14.6 14.6 0 8.06 6.54 14.6 14.6 14.6z"/><path fill="#1652EF" d="M116.63 173.79H122c1.15 0 2.08.93 2.08 2.08v5.36c0 1.15-.93 2.08-2.08 2.08h-5.36c-1.15 0-2.08-.93-2.08-2.08v-5.36c-.01-1.15.92-2.08 2.07-2.08z"/><path fill="url(#d)" d="M130.04 100.37h-21.45v-6.69h21.45v6.69zm-21.45-15.32v5.82h21.45v-5.82h-21.45zm0-8.64v4.94h21.45v-4.94h-21.45zm0 25.91v29.28h21.45v-29.28h-21.45zm0-34.54v4.07h21.45v-4.07h-21.45z"/><defs><linearGradient id="a" x1="64" x2="64" y1="8.75" y2="194.34" gradientUnits="userSpaceOnUse"><stop stop-color="#0A0B0D" stop-opacity="0"/><stop offset=".34" stop-color="#1343BF" stop-opacity=".38"/><stop offset=".65" stop-color="#154BD9" stop-opacity=".38"/><stop offset="1" stop-color="#0A0B0D" stop-opacity=".3"/></linearGradient><linearGradient id="b" x1="112.16" x2="131.71" y1="104.89" y2="138.75" gradientUnits="userSpaceOnUse"><stop stop-color="#D3EDFF" stop-opacity="0"/><stop offset=".35" stop-color="#fff"/><stop offset=".5" stop-color="#ECF7FF"/><stop offset=".8" stop-color="#BBE4FF"/><stop offset=".99" stop-color="#99D6FF"/></linearGradient><linearGradient id="c" x1="119.31" x2="119.31" y1="156.97" y2="200.14" gradientUnits="userSpaceOnUse"><stop stop-color="#3663F1"/><stop offset="1" stop-color="#2049D5"/></linearGradient><linearGradient id="d" x1="119.32" x2="119.32" y1="67.78" y2="131.6" gradientUnits="userSpaceOnUse"><stop stop-color="#D3EDFF" stop-opacity="0"/><stop offset=".09" stop-color="#BEE5FF" stop-opacity=".09"/><stop offset=".19" stop-color="#ADDEFF" stop-opacity=".19"/><stop offset=".32" stop-color="#A2D9FF" stop-opacity=".32"/><stop offset=".5" stop-color="#9BD7FF" stop-opacity=".5"/><stop offset="1" stop-color="#99D6FF"/></linearGradient></defs></svg>