<svg xmlns="http://www.w3.org/2000/svg" fill="none" viewBox="0 0 48 48"><path fill="#DEE1E7" d="M34.493 27.015c7.46 0 13.507-6.048 13.507-13.508C48 6.047 41.953 0 34.493 0S20.985 6.047 20.985 13.507s6.048 13.508 13.508 13.508z"/><path fill="#A3A9B6" d="M38.737 9.262c-6.742-6.742-17.67-6.742-24.412 0-6.435 6.435-6.713 16.665-.87 23.445l-1.635 1.635-1.208-1.207L0 43.755 4.245 48l10.612-10.613-1.207-1.207 1.635-1.635c6.78 5.842 17.017 5.565 23.445-.87 6.75-6.743 6.75-17.67.007-24.413z"/><path fill="#717886" d="M38.737 9.262C34.874 5.4 29.647 3.757 24.614 4.32c-4.935 5.295-4.83 13.582.33 18.742s13.448 5.258 18.743.33c.555-5.04-1.088-10.267-4.95-14.13z"/><path fill="#fff" d="m32.25 10.524 1.178 3.628h3.815l-3.086 2.242 1.179 3.628-3.086-2.242-3.086 2.242 1.179-3.628-3.086-2.242h3.814l1.179-3.628z"/></svg>