<svg xmlns="http://www.w3.org/2000/svg" fill="none" viewBox="0 0 240 240"><path fill="#464B55" d="M0 16h168v128H0z"/><path stroke="#fff" stroke-width="2" d="M115.5 192H56v-48"/><circle cx="176" cy="176" r="64" fill="#FFD200"/><path fill="#464B55" d="M24 0h32l8 16H16l8-16z"/><path fill="#588AF5" fill-rule="evenodd" d="M168 112.495V144h-47.438c9.8-16.942 27.144-28.974 47.438-31.505z" clip-rule="evenodd"/><circle cx="176" cy="176" r="47" stroke="#0A0B0D" stroke-width="2"/><path fill="#0A0B0D" fill-rule="evenodd" d="m199.293 154.216-42.154 42.154 1.414 1.414 42.154-42.154-1.414-1.414zm-37.934 1.707a6.026 6.026 0 1 1 0 12.052 6.026 6.026 0 0 1 0-12.052zm8.026 6.026a8.026 8.026 0 1 0-16.052 0 8.026 8.026 0 0 0 16.052 0zm23.59 22.077a6.025 6.025 0 1 1 0 12.05 6.025 6.025 0 0 1 0-12.05zm8.025 6.025a8.025 8.025 0 1 0-8.025 8.026 8.025 8.025 0 0 0 8.025-8.026z" clip-rule="evenodd"/><path stroke="#fff" stroke-width="2" d="m40 160 16-16 16 16"/><path stroke="#0A0B0D" stroke-width="2" d="M.5 24H16v8h48v-8h104"/><circle cx="84" cy="84" r="38" fill="#27AD75" stroke="#fff" stroke-width="4"/><path stroke="#0A0B0D" stroke-width="2" d="m66 84 12 12 24-24"/></svg>