<svg xmlns="http://www.w3.org/2000/svg" fill="none" viewBox="0 0 240 120"><path fill="url(#a)" d="M95 30.61H0v52h95v-52z"/><path fill="url(#b)" d="M92 36H0v24h92V36z"/><path fill="url(#c)" d="M144 112h96V60h-96v52z"/><path fill="url(#d)" d="M148 104h92V80h-92v24z"/><path fill="#fff" fill-opacity=".75" d="M70 28h-1v1h1v-1zM70 40h-1v1h1v-1zM70 52h-1v1h1v-1zM70 64h-1v1h1v-1zM70 76h-1v1h1v-1zM58 28h-1v1h1v-1zM58 40h-1v1h1v-1zM58 52h-1v1h1v-1zM58 64h-1v1h1v-1zM58 76h-1v1h1v-1zM46 28h-1v1h1v-1zM46 40h-1v1h1v-1zM46 52h-1v1h1v-1zM46 64h-1v1h1v-1zM46 76h-1v1h1v-1zM34 28h-1v1h1v-1zM34 40h-1v1h1v-1zM34 52h-1v1h1v-1zM34 64h-1v1h1v-1zM34 76h-1v1h1v-1zM22 40h-1v1h1v-1zM22 52h-1v1h1v-1zM22 64h-1v1h1v-1zM10 40H9v1h1v-1zM10 52H9v1h1v-1zM170 52h1v-1h-1v1zM170 64h1v-1h-1v1zM170 76h1v-1h-1v1zM170 88h1v-1h-1v1zM170 100h1v-1h-1v1zM182 52h1v-1h-1v1zM182 64h1v-1h-1v1zM182 76h1v-1h-1v1zM182 88h1v-1h-1v1zM182 100h1v-1h-1v1zM194 52h1v-1h-1v1zM194 64h1v-1h-1v1zM194 76h1v-1h-1v1zM194 88h1v-1h-1v1zM194 100h1v-1h-1v1zM206 52h1v-1h-1v1zM206 64h1v-1h-1v1zM206 76h1v-1h-1v1zM206 88h1v-1h-1v1zM206 100h1v-1h-1v1zM218 64h1v-1h-1v1zM218 76h1v-1h-1v1zM218 88h1v-1h-1v1zM230 64h1v-1h-1v1zM230 76h1v-1h-1v1z" opacity=".5"/><path fill="#282B31" d="M169.36 16.76C168.08 11.54 163.22 8 157.85 8H144.4c6.44 0 11.68 5.24 11.68 11.68 0 6.44-5.24 11.68-11.68 11.68h13.63c7.4 0 13.2-6.9 11.33-14.6zM70.64 16.76C71.92 11.54 76.78 8 82.15 8H95.6c-6.44 0-11.68 5.24-11.68 11.68 0 6.44 5.24 11.68 11.68 11.68H81.97c-7.4 0-13.2-6.9-11.33-14.6z"/><path fill="#1652F0" d="M129.04 30.61S144.54 8 158.11 8h-15.5c-13.57 0-29.07 22.61-29.07 22.61h15.5z"/><path fill="#1652F0" d="M110.96 30.61S95.46 8 81.89 8h15.5c13.57 0 29.07 22.61 29.07 22.61h-15.5z"/><g filter="url(#e)"><path fill="#fff" d="M166.72 42.67H71.77V112h94.96V42.67h-.01z"/></g><path fill="url(#f)" d="M165.72 43.67V111H72.77V43.67h92.95zm1-1H71.77V112h94.96V42.67h-.01z"/><path fill="#FFD066" d="M120 108.69c16.34 0 29.59-13.25 29.59-29.59S136.34 49.5 120 49.5 90.41 62.75 90.41 79.09s13.25 29.6 29.59 29.6z"/><path fill="url(#g)" d="m112.11 105.05 34.21-32.58c-1.93-7.7-7.15-14.09-14.08-17.6L95.22 90.14c3.18 7.12 9.33 12.62 16.89 14.91z"/><path fill="url(#h)" d="M92.9 80.35c.09 1.91.37 3.77.83 5.55l34.35-32.71c-1.76-.55-3.61-.92-5.5-1.1L92.9 80.35z"/><path fill="url(#i)" d="M120 50.78c15.61 0 28.31 12.7 28.31 28.31S135.61 107.4 120 107.4 91.69 94.7 91.69 79.09s12.7-28.31 28.31-28.31zm0-1.28c-16.34 0-29.59 13.25-29.59 29.59s13.25 29.59 29.59 29.59 29.59-13.25 29.59-29.59S136.34 49.5 120 49.5z" opacity=".3"/><g filter="url(#j)"><path fill="#fff" d="M174.26 30.61H65.74v15.07h108.52V30.61z"/></g><path fill="url(#k)" d="M173.26 31.61v13.07H66.74V31.61h106.52zm1-1H65.74v15.07h108.52V30.61z"/><path fill="#1652F0" d="M129.04 112h-18.09V30.61l8.95-3.01 9.13 3.01V112h.01z"/><path fill="url(#l)" d="m95.9 55.64 1.07 4.97 4.97 1.06-4.97 1.07-1.07 4.96-1.07-4.96-4.97-1.07 4.97-1.06 1.07-4.97z"/><path fill="url(#m)" d="M90.41 56.53c0 .26-.22.48-.48.48s-.48-.22-.48-.48.22-.48.48-.48.48.2.48.48zm1.28-7.72c-.26 0-.48.22-.48.48s.22.48.48.48.48-.22.48-.48c.01-.26-.2-.48-.48-.48zm-9 9.96c-.26 0-.48.22-.48.48s.22.48.48.48.48-.22.48-.48a.48.48 0 0 0-.48-.48zm.96-8.68c-.26 0-.48.22-.48.48s.22.48.48.48.48-.22.48-.48a.474.474 0 0 0-.48-.48z"/><defs><linearGradient id="a" x1="-1.5" x2="95" y1="82.99" y2="82.99" gradientUnits="userSpaceOnUse"><stop stop-color="#0A0B0D" stop-opacity="0"/><stop offset="1" stop-color="#154BD9" stop-opacity=".93"/></linearGradient><linearGradient id="b" x1="0" x2="92" y1="60.17" y2="60.17" gradientUnits="userSpaceOnUse"><stop stop-color="#0A0B0D" stop-opacity="0"/><stop offset=".9" stop-color="#154BD9" stop-opacity=".93"/></linearGradient><linearGradient id="c" x1="240" x2="153.5" y1="112.38" y2="112.38" gradientUnits="userSpaceOnUse"><stop stop-color="#0A0B0D" stop-opacity="0"/><stop offset="1" stop-color="#154BD9" stop-opacity=".61"/></linearGradient><linearGradient id="d" x1="152.5" x2="240" y1="104.17" y2="104.17" gradientUnits="userSpaceOnUse"><stop stop-color="#1652F0" stop-opacity=".61"/><stop offset=".96" stop-color="#0A0B0D" stop-opacity=".3"/></linearGradient><linearGradient id="f" x1="119.25" x2="119.25" y1="112" y2="42.67" gradientUnits="userSpaceOnUse"><stop stop-color="#99D6FF" stop-opacity=".3"/><stop offset="1" stop-color="#fff" stop-opacity="0"/></linearGradient><linearGradient id="g" x1="95.22" x2="146.32" y1="79.97" y2="79.97" gradientUnits="userSpaceOnUse"><stop offset="0" stop-color="#fff" stop-opacity="0"/><stop offset=".47" stop-color="#fff" stop-opacity=".57"/><stop offset=".5" stop-color="#fff" stop-opacity=".6"/><stop offset=".55" stop-color="#fff" stop-opacity=".54"/><stop offset="1" stop-color="#fff" stop-opacity="0"/></linearGradient><linearGradient id="h" x1="92.9" x2="128.08" y1="68.99" y2="68.99" gradientUnits="userSpaceOnUse"><stop offset="0" stop-color="#fff" stop-opacity="0"/><stop offset=".47" stop-color="#fff" stop-opacity=".57"/><stop offset=".5" stop-color="#fff" stop-opacity=".6"/><stop offset=".55" stop-color="#fff" stop-opacity=".54"/><stop offset="1" stop-color="#fff" stop-opacity="0"/></linearGradient><linearGradient id="i" x1="100.27" x2="139.74" y1="101.14" y2="57.04" gradientUnits="userSpaceOnUse"><stop stop-color="#fff" stop-opacity=".2"/><stop offset=".5" stop-color="#fff"/><stop offset="1" stop-color="#fff" stop-opacity="0"/></linearGradient><linearGradient id="k" x1="120" x2="120" y1="45.68" y2="30.61" gradientUnits="userSpaceOnUse"><stop stop-color="#99D6FF" stop-opacity=".3"/><stop offset="1" stop-color="#fff" stop-opacity="0"/></linearGradient><linearGradient id="l" x1="91.15" x2="97.35" y1="57.57" y2="62.92" gradientUnits="userSpaceOnUse"><stop offset="0" stop-color="#56B4FC"/><stop offset=".17" stop-color="#5AB6FC" stop-opacity=".93"/><stop offset=".33" stop-color="#64BAFC" stop-opacity=".87"/><stop offset=".47" stop-color="#77C2FD" stop-opacity=".81"/><stop offset=".62" stop-color="#90CEFD" stop-opacity=".75"/><stop offset=".76" stop-color="#B1DCFE" stop-opacity=".7"/><stop offset=".89" stop-color="#D9EEFE" stop-opacity=".64"/><stop offset="1" stop-color="#fff" stop-opacity=".6"/></linearGradient><linearGradient id="m" x1="89.56" x2="77.47" y1="56.35" y2="45.74" gradientUnits="userSpaceOnUse"><stop stop-color="#D4EEFF"/><stop offset=".3" stop-color="#D8F0FF" stop-opacity=".7"/><stop offset=".61" stop-color="#E4F4FF" stop-opacity=".39"/><stop offset=".92" stop-color="#F9FCFF" stop-opacity=".08"/><stop offset="1" stop-color="#fff" stop-opacity="0"/></linearGradient><filter id="e" width="104.96" height="79.33" x="66.77" y="37.67" color-interpolation-filters="sRGB" filterUnits="userSpaceOnUse"><feFlood flood-opacity="0" result="BackgroundImageFix"/><feColorMatrix in="SourceAlpha" values="0 0 0 0 0 0 0 0 0 0 0 0 0 0 0 0 0 0 127 0"/><feOffset/><feGaussianBlur stdDeviation="2.5"/><feColorMatrix values="0 0 0 0 0.0862745 0 0 0 0 0.321569 0 0 0 0 0.941176 0 0 0 0.35 0"/><feBlend in2="BackgroundImageFix" result="effect1_dropShadow"/><feBlend in="SourceGraphic" in2="effect1_dropShadow" result="shape"/></filter><filter id="j" width="118.52" height="25.07" x="60.74" y="25.61" color-interpolation-filters="sRGB" filterUnits="userSpaceOnUse"><feFlood flood-opacity="0" result="BackgroundImageFix"/><feColorMatrix in="SourceAlpha" values="0 0 0 0 0 0 0 0 0 0 0 0 0 0 0 0 0 0 127 0"/><feOffset/><feGaussianBlur stdDeviation="2.5"/><feColorMatrix values="0 0 0 0 0.0862745 0 0 0 0 0.321569 0 0 0 0 0.941176 0 0 0 0.35 0"/><feBlend in2="BackgroundImageFix" result="effect1_dropShadow"/><feBlend in="SourceGraphic" in2="effect1_dropShadow" result="shape"/></filter></defs></svg>