<svg xmlns="http://www.w3.org/2000/svg" fill="none" viewBox="0 0 48 49"><path fill="#A5C1FD" d="M42 0H6v45h36V0z"/><path fill="#144FCE" d="M43.5 18.024h-39c-.825 0-1.5.675-1.5 1.5v25.5h42v-25.5c0-.825-.675-1.5-1.5-1.5z"/><path fill="#A5C1FD" d="M42 21.024H6v24h36v-24z"/><path fill="#588AF5" d="M42 18.024H6v27h36v-27z"/><path fill="#fff" d="m18 25.524 2.475 10.2 2.4-2.4 4.275 4.2 2.85-2.85-4.2-4.275 2.4-2.4L18 25.524z"/><path fill="#144FCE" d="M46.5 48.024h-45c-.825 0-1.5-.675-1.5-1.5v-1.5h48v1.5c0 .825-.675 1.5-1.5 1.5z"/></svg>