<svg xmlns="http://www.w3.org/2000/svg" fill="none" viewBox="0 0 48 48"><path fill="#27AD75" d="M48 20H0v24h48V20z"/><path fill="#588AF5" fill-rule="evenodd" d="M40 20H8v24h32V20z" clip-rule="evenodd"/><path fill="#fff" d="M27.698 34.145c0-1.972-1.2-2.632-3.518-2.955-1.71-.247-2.04-.645-2.04-1.447 0-.758.578-1.298 1.695-1.298 1.133 0 1.725.443 1.905 1.478h1.68c-.157-1.568-1.065-2.498-2.58-2.768v-1.762h-1.687v1.732c-1.673.24-2.753 1.35-2.753 2.783 0 1.845 1.118 2.565 3.473 2.88 1.597.262 2.055.607 2.055 1.515 0 .907-.773 1.515-1.86 1.515-1.673 0-2.07-.825-2.19-1.823h-1.763c.12 1.635 1.005 2.865 3.045 3.143v1.755h1.688v-1.755c1.74-.278 2.85-1.493 2.85-2.993z"/><path fill="#fff" fill-rule="evenodd" d="M31 31h7v2h-7v-2zm-21 0h7v2h-7v-2zm22 4h5v2h-5v-2zm-21 0h5v2h-5v-2zm21-8h5v2h-5v-2zm-21 0h5v2h-5v-2z" clip-rule="evenodd"/><path fill="#464B55" d="M17.813 11.652C19.116 7.047 21.393 4 23.984 4c-5.65 0-10.619 3.047-13.47 7.652h7.3zm12.342 0h7.3C34.603 7.047 29.635 4 23.985 4c2.59 0 4.868 3.047 6.17 7.652zm.362 1.391c.474 2.101.768 4.46.808 6.957H40a17.183 17.183 0 0 0-1.77-6.957h-7.713zm-1.37 0H18.822c-.48 2.018-.788 4.37-.835 6.957h11.988c-.04-2.588-.347-4.94-.828-6.957z"/><path fill="#464B55" d="M23.985 5.391c-1.743 0-3.6 2.365-4.782 6.261h9.564c-1.182-3.896-3.039-6.26-4.782-6.26zM9.74 13.043A17.184 17.184 0 0 0 7.97 20h8.675c.047-2.497.334-4.856.808-6.957H9.74z"/></svg>