<svg xmlns="http://www.w3.org/2000/svg" fill="none" viewBox="0 0 48 48"><path fill="#FFD066" d="M39 9.75a.75.75 0 1 0 0-1.5.75.75 0 0 0 0 1.5z"/><path fill="#A5C1FD" d="M46.5 14.25a.75.75 0 1 0 0-1.5.75.75 0 0 0 0 1.5z"/><path fill="#144FCE" d="M0 46.5v-39C0 6.675.675 6 1.5 6h30c.825 0 1.5.675 1.5 1.5v39c0 .825-.675 1.5-1.5 1.5h-30C.675 48 0 47.325 0 46.5z"/><path fill="#A5C1FD" d="M30 9H3v33h27V9z"/><path fill="#fff" d="M28.5 27H6v1.5h22.5V27zM28.5 31.5H6V33h22.5v-1.5zM28.5 22.5H6V24h22.5v-1.5zM28.5 18H6v1.5h22.5V18zM28.5 13.5H6V15h22.5v-1.5zM24 36H9v1.5h15V36z"/><path fill="#588AF5" d="M25.5 6h-18a3 3 0 0 1 3-3h12a3 3 0 0 1 3 3z"/><path fill="#588AF5" d="M16.5 6a3 3 0 1 0 0-6 3 3 0 0 0 0 6z"/><path fill="#FFD066" d="M36 44.25c6.627 0 12-5.373 12-12s-5.373-12-12-12-12 5.373-12 12 5.373 12 12 12z"/><path fill="#588AF5" d="M33 20.64c-5.175 1.335-9 6.023-9 11.61s3.825 10.275 9 11.61V20.64z"/><path fill="#fff" d="m34.875 37.733-4.657-4.658 1.065-1.058 3.592 3.593 7.343-7.343 1.065 1.058-8.408 8.408z"/><path fill="#A5C1FD" d="M41.25 15.375h-1.875V13.5h-.75v1.875H36.75v.75h1.875V18h.75v-1.875h1.875v-.75z"/></svg>