<svg xmlns="http://www.w3.org/2000/svg" fill="none" viewBox="0 0 120 120"><g clip-path="url(#a)"><path fill="url(#b)" d="M24 72h48v54H24V72z"/><path fill="url(#c)" d="M96 49H48V-5h48v54z"/><path fill="#fff" stroke="url(#d)" d="M95.5 48c0 12.979-10.521 23.5-23.5 23.5S48.5 60.979 48.5 48 59.021 24.5 72 24.5 95.5 35.021 95.5 48z"/><path fill="url(#e)" fill-rule="evenodd" d="M73 39h-2v8h-8v2h8v8h2v-8h8v-2h-8v-8z" clip-rule="evenodd"/><path fill="#0052FF" d="M71.74 75.5C69.808 88.613 57.61 97.674 44.5 95.74 31.387 93.808 22.326 81.61 24.26 68.5c1.932-13.112 14.13-22.173 27.24-20.24C64.61 50.196 73.67 62.39 71.74 75.5z"/><path fill="url(#f)" fill-rule="evenodd" d="M48 95c12.703 0 23-10.297 23-23S60.703 49 48 49 25 59.297 25 72s10.297 23 23 23zm24-23c0 13.255-10.745 24-24 24S24 85.255 24 72s10.745-24 24-24 24 10.745 24 24z" clip-rule="evenodd"/><path fill="#fff" d="M47 63h2v18h-2V63z"/><path fill="#fff" d="M57 71v2H39v-2h18z"/></g><defs><linearGradient id="b" x1="48" x2="48" y1="72" y2="126" gradientUnits="userSpaceOnUse"><stop stop-color="#0052FF" stop-opacity=".75"/><stop offset="1" stop-color="#0A0B0D" stop-opacity="0"/></linearGradient><linearGradient id="c" x1="72" x2="72" y1="49" y2="-5" gradientUnits="userSpaceOnUse"><stop stop-color="#0052FF" stop-opacity=".75"/><stop offset="1" stop-color="#0A0B0D" stop-opacity="0"/></linearGradient><linearGradient id="d" x1="72" x2="72" y1="24" y2="72" gradientUnits="userSpaceOnUse"><stop stop-color="#0052FF" stop-opacity=".1"/><stop offset="1" stop-color="#0052FF" stop-opacity=".25"/></linearGradient><linearGradient id="e" x1="72" x2="72" y1="39" y2="57" gradientUnits="userSpaceOnUse"><stop stop-color="#0052FF" stop-opacity=".45"/><stop offset="1" stop-color="#fff" stop-opacity="0"/></linearGradient><linearGradient id="f" x1="48" x2="48" y1="96" y2="46.8" gradientUnits="userSpaceOnUse"><stop stop-color="#fff" stop-opacity="0"/><stop offset="1" stop-color="#fff" stop-opacity=".7"/></linearGradient><clipPath id="a"><path fill="#fff" d="M0 0h120v120H0z"/></clipPath></defs></svg>