<svg xmlns="http://www.w3.org/2000/svg" fill="none" viewBox="0 0 240 240"><path fill="#6DF4E1" d="M48 216.002h144v-192H48v192z"/><path fill="#588AF5" d="M48 24h144V0H48v24zm0 216h144v-24H48v24z"/><path fill="#464B55" d="M216 0h-24v24h48v-8h-24V0zM0 0v16h24v8h24V0H0zm0 216v16h24v8h24v-24H0z"/><path fill="#0A0B0D" d="M120 14a2 2 0 1 0 0-4 2 2 0 0 0 0 4zm8 212h-16v4h16v-4z"/><path fill="#464B55" d="M240 224h-24v-8h-24v24h48v-16z"/><path fill="#ECD069" d="M158.545 120c0 21.288-17.257 38.545-38.545 38.545S81.454 141.288 81.454 120 98.712 81.455 120 81.455 158.545 98.712 158.545 120z"/><path fill="#fff" fill-rule="evenodd" d="M120 154.545c19.078 0 34.545-15.466 34.545-34.545S139.078 85.455 120 85.455c-19.079 0-34.546 15.466-34.546 34.545s15.467 34.545 34.546 34.545zm0 4c21.288 0 38.545-17.257 38.545-38.545S141.288 81.455 120 81.455 81.454 98.712 81.454 120 98.712 158.545 120 158.545z" clip-rule="evenodd"/><path fill="#0A0B0D" d="M116.905 134.686v6.405h6.308v-6.405h-6.308zm-9.265-21.928h4.831c0-1.346.152-2.596.455-3.751.303-1.154.777-2.154 1.421-3a7.57 7.57 0 0 1 2.501-2.02c.985-.5 2.159-.75 3.524-.75 2.046 0 3.656.596 4.831 1.789 1.212 1.192 1.894 2.847 2.046 4.962.076 1.424-.095 2.636-.512 3.636a10.49 10.49 0 0 1-1.705 2.77 26.545 26.545 0 0 1-2.273 2.365 28.12 28.12 0 0 0-2.331 2.424 14.22 14.22 0 0 0-1.875 3.058c-.493 1.116-.777 2.482-.853 4.097v2.712h4.831v-2.25c0-1 .133-1.885.398-2.654a9.917 9.917 0 0 1 1.137-2.193 15.487 15.487 0 0 1 1.591-1.904 80.052 80.052 0 0 1 1.819-1.789 42.32 42.32 0 0 0 1.762-1.904 12.403 12.403 0 0 0 1.591-2.136c.455-.769.815-1.615 1.08-2.539.303-.961.455-2.038.455-3.231 0-1.847-.303-3.481-.909-4.905-.569-1.423-1.383-2.616-2.444-3.577-1.061-1.001-2.331-1.751-3.808-2.251-1.44-.538-3.051-.808-4.831-.808-1.971 0-3.752.346-5.343 1.039-1.591.692-2.937 1.673-4.035 2.943-1.099 1.231-1.952 2.693-2.558 4.385-.568 1.693-.834 3.52-.796 5.482z"/></svg>