<svg xmlns="http://www.w3.org/2000/svg" fill="none" viewBox="0 0 120 120"><mask id="c" fill="#fff"><path fill-rule="evenodd" d="M67.59 57.175 18.578 27.438c-5.507-3.855-7.71-11.014-3.854-17.072 3.304-5.506 11.013-7.159 16.52-3.854L91.82 43.408c-2.203.55-3.855 1.101-5.507 2.203L67.59 57.175zM16.375 31.293c-1.101-.55-2.203-1.652-3.304-2.754v74.343c0 6.609 5.507 12.115 12.115 12.115 6.608 0 12.115-5.506 12.115-12.115V43.959L16.375 31.293zm88.662 22.027c-3.304-5.507-11.014-7.71-16.52-3.855l-46.81 28.636v24.23c0 .826-.137 1.515-.275 2.203-.137.689-.275 1.377-.275 2.203l60.576-36.896c4.956-3.304 7.159-10.463 3.304-16.52z" clip-rule="evenodd"/></mask><path fill="url(#a)" fill-rule="evenodd" d="M67.59 57.175 18.578 27.438c-5.507-3.855-7.71-11.014-3.854-17.072 3.304-5.506 11.013-7.159 16.52-3.854L91.82 43.408c-2.203.55-3.855 1.101-5.507 2.203L67.59 57.175zM16.375 31.293c-1.101-.55-2.203-1.652-3.304-2.754v74.343c0 6.609 5.507 12.115 12.115 12.115 6.608 0 12.115-5.506 12.115-12.115V43.959L16.375 31.293zm88.662 22.027c-3.304-5.507-11.014-7.71-16.52-3.855l-46.81 28.636v24.23c0 .826-.137 1.515-.275 2.203-.137.689-.275 1.377-.275 2.203l60.576-36.896c4.956-3.304 7.159-10.463 3.304-16.52z" clip-rule="evenodd"/><path fill="url(#b)" d="m18.578 27.438-.286.41.013.009.014.008.26-.427zM67.59 57.175l-.26.427.262.16.26-.162-.262-.425zM14.723 10.366l.422.269.007-.011-.428-.258zm16.521-3.854.26-.427-.003-.002-.257.429zM91.82 43.408l.121.485 1.16-.29-1.021-.622-.26.427zm-5.507 2.203.263.425.007-.005.007-.005-.277-.416zM13.071 28.539l.354-.353-.854-.854v1.207h.5zm3.304 2.754.26-.428-.018-.01-.018-.01-.224.448zm20.926 12.666h.5v-.282l-.24-.146-.26.428zm51.215 5.506.261.427.013-.008.013-.01-.287-.409zm16.521 3.855-.429.257.007.012.422-.269zm-63.33 24.781-.26-.426-.24.146v.28h.5zm-.275 26.433.49.098-.49-.098zm-.275 2.203h-.5v.89l.76-.463-.26-.427zm60.576-36.896.26.427.008-.005.009-.006-.277-.416zM18.319 27.865 67.33 57.602l.519-.854L18.838 27.01l-.52.855zm-4.017-17.767c-4.022 6.32-1.7 13.767 3.99 17.75l.573-.82c-5.325-3.727-7.407-10.598-3.72-16.393l-.843-.537zm17.2-4.015c-5.727-3.436-13.75-1.735-17.207 4.026l.857.515C18.304 5.37 25.7 3.768 30.987 6.94l.514-.857zM92.08 42.98 31.504 6.085l-.52.854L91.56 43.835l.52-.854zm-5.49 3.045c1.58-1.053 3.167-1.587 5.351-2.133l-.242-.97c-2.222.555-3.94 1.122-5.663 2.271l.554.832zM67.852 57.6l18.724-11.564-.526-.85L67.327 56.75l.525.85zM12.717 28.893c1.082 1.081 2.245 2.252 3.435 2.847l.447-.894c-1.013-.507-2.053-1.539-3.174-2.66l-.708.707zm.854 73.989V28.539h-1v74.343h1zm11.615 11.615c-6.332 0-11.615-5.283-11.615-11.615h-1c0 6.885 5.73 12.615 12.615 12.615v-1zm11.615-11.615c0 6.332-5.283 11.615-11.615 11.615v1c6.885 0 12.615-5.73 12.615-12.615h-1zm0-58.923v58.923h1V43.959h-1zM16.116 31.72l20.926 12.665.518-.855-20.926-12.666-.518.856zm72.687 18.154c5.242-3.67 12.632-1.586 15.805 3.702l.858-.514c-3.436-5.726-11.465-8.048-17.237-4.007l.574.819zM41.969 78.528l46.808-28.636-.522-.853-46.808 28.636.521.853zm.239 23.803v-24.23h-1v24.23h1zm-.285 2.301c.137-.686.285-1.419.285-2.301h-1c0 .771-.128 1.414-.266 2.105l.98.196zm-.266 2.105c0-.771.127-1.414.266-2.105l-.981-.196c-.137.686-.285 1.419-.285 2.301h1zm59.816-37.323L40.897 106.31l.52.854 60.576-36.896-.52-.854zm3.142-15.825c3.699 5.812 1.586 12.672-3.16 15.836l.555.832c5.166-3.445 7.46-10.902 3.449-17.205l-.844.537z" mask="url(#c)"/><path fill="url(#d)" d="M60 96c19.882 0 36-16.118 36-36S79.882 24 60 24 24 40.118 24 60s16.118 36 36 36z"/><path fill="#02D6B4" d="M60 92c17.673 0 32-14.327 32-32 0-17.673-14.327-32-32-32-17.673 0-32 14.327-32 32 0 17.673 14.327 32 32 32z"/><path fill="#fff" fill-rule="evenodd" d="m64.907 59.107-16.014-9.716c-1.799-1.26-2.519-3.598-1.26-5.578 1.08-1.799 3.6-2.339 5.399-1.26L72.824 54.61c-.72.18-1.26.36-1.8.72l-6.117 3.778zm-16.733-8.456c-.36-.18-.72-.54-1.08-.9v24.29c0 2.16 1.8 3.959 3.958 3.959 2.16 0 3.959-1.8 3.959-3.958V54.789l-6.837-4.138zm28.968 7.197c-1.08-1.8-3.598-2.52-5.397-1.26L56.45 65.945v7.917c0 .27-.044.494-.09.72-.044.224-.09.45-.09.72l19.793-12.056a3.926 3.926 0 0 0 1.08-5.398z" clip-rule="evenodd"/><path stroke="url(#e)" stroke-opacity=".5" stroke-width="1.5" d="M91.25 60c0 17.259-13.991 31.25-31.25 31.25S28.75 77.259 28.75 60 42.741 28.75 60 28.75 91.25 42.74 91.25 60z"/><path stroke="url(#f)" stroke-width=".5" d="M91.75 60c0 17.535-14.215 31.75-31.75 31.75S28.25 77.535 28.25 60 42.465 28.25 60 28.25 91.75 42.465 91.75 60z"/><path fill="#fff" d="m38 29-1.41 6.59L30 37l6.59 1.41L38 45l1.41-6.59L46 37l-6.59-1.41L38 29z"/><path fill="#0052FF" d="M21 33a1 1 0 1 1 0-2 1 1 0 0 1 0 2z"/><path fill="#0052FF" fill-opacity=".5" d="M34 21a1 1 0 1 1 0-2 1 1 0 0 1 0 2z"/><defs><linearGradient id="a" x1="59.89" x2="59.89" y1="4.82" y2="115" gradientUnits="userSpaceOnUse"><stop stop-color="#fff" stop-opacity=".6"/><stop offset="1" stop-color="#0A0B0D" stop-opacity="0"/></linearGradient><linearGradient id="b" x1="59.89" x2="59.89" y1="4.82" y2="115" gradientUnits="userSpaceOnUse"><stop stop-color="#fff" stop-opacity=".75"/><stop offset="1" stop-color="#0A0B0D" stop-opacity="0"/></linearGradient><linearGradient id="d" x1="60" x2="60" y1="24" y2="96" gradientUnits="userSpaceOnUse"><stop stop-color="#0A0B0D" stop-opacity=".6"/><stop offset="1" stop-color="#0A0B0D" stop-opacity="0"/></linearGradient><linearGradient id="e" x1="83.5" x2="37.5" y1="80.5" y2="36" gradientUnits="userSpaceOnUse"><stop stop-color="#fff" stop-opacity="0"/><stop offset="1" stop-color="#fff"/></linearGradient><linearGradient id="f" x1="36" x2="88" y1="35.5" y2="87.5" gradientUnits="userSpaceOnUse"><stop stop-color="#fff"/><stop offset="1" stop-color="#fff" stop-opacity="0"/></linearGradient></defs></svg>