<svg xmlns="http://www.w3.org/2000/svg" fill="none" viewBox="0 0 240 120"><g clip-path="url(#a)"><path fill="url(#b)" d="M0 94.8h240V30H0v64.8z"/><path fill="#fff" fill-opacity=".25" d="M228.2 85.107h-.94v.94h.94v-.94zM216.923 62.554h-.94v.94h.94v-.94zM216.923 73.83h-.94v.94h.94v-.94zM216.923 85.107h-.94v.94h.94v-.94zM205.646 40h-.939v.94h.939V40zM205.646 51.277h-.939v.94h.939v-.94zM205.646 62.554h-.939v.94h.939v-.94zM205.646 73.83h-.939v.94h.939v-.94zM205.646 85.107h-.939v.94h.939v-.94zM194.369 40h-.939v.94h.939V40zM194.369 51.277h-.939v.94h.939v-.94zM194.369 62.554h-.939v.94h.939v-.94zM194.369 73.83h-.939v.94h.939v-.94zM194.369 85.107h-.939v.94h.939v-.94zM183.093 40h-.94v.94h.94V40zM183.093 51.277h-.94v.94h.94v-.94zM183.093 62.554h-.94v.94h.94v-.94zM183.093 73.83h-.94v.94h.94v-.94zM183.093 85.107h-.94v.94h.94v-.94zM171.816 40h-.94v.94h.94V40zM171.816 51.277h-.94v.94h.94v-.94zM171.816 62.554h-.94v.94h.94v-.94zM171.816 73.83h-.94v.94h.94v-.94zM171.816 85.107h-.94v.94h.94v-.94zM160.539 40h-.94v.94h.94V40zM160.539 51.277h-.94v.94h.94v-.94zM160.539 62.554h-.94v.94h.94v-.94zM160.539 73.83h-.94v.94h.94v-.94zM160.539 85.107h-.94v.94h.94v-.94zM149.262 40h-.94v.94h.94V40zM149.262 51.277h-.94v.94h.94v-.94zM149.262 62.554h-.94v.94h.94v-.94zM149.262 73.83h-.94v.94h.94v-.94zM149.262 85.107h-.94v.94h.94v-.94zM137.985 40h-.94v.94h.94V40zM137.985 51.277h-.94v.94h.94v-.94zM137.985 62.554h-.94v.94h.94v-.94zM137.985 73.83h-.94v.94h.94v-.94zM137.985 85.107h-.94v.94h.94v-.94zM126.708 40h-.939v.94h.939V40zM126.708 51.277h-.939v.94h.939v-.94zM126.708 62.554h-.939v.94h.939v-.94zM126.708 73.83h-.939v.94h.939v-.94zM126.708 85.107h-.939v.94h.939v-.94zM115.431 40h-.939v.94h.939V40zM115.431 51.277h-.939v.94h.939v-.94zM115.431 62.554h-.939v.94h.939v-.94zM115.431 73.83h-.939v.94h.939v-.94zM115.431 85.107h-.939v.94h.939v-.94zM104.155 40h-.94v.94h.94V40zM104.155 51.277h-.94v.94h.94v-.94zM104.155 62.554h-.94v.94h.94v-.94zM104.155 73.83h-.94v.94h.94v-.94zM104.155 85.107h-.94v.94h.94v-.94zM92.878 40h-.94v.94h.94V40zM92.878 51.277h-.94v.94h.94v-.94zM92.878 62.554h-.94v.94h.94v-.94zM92.878 73.83h-.94v.94h.94v-.94zM92.878 85.107h-.94v.94h.94v-.94zM81.6 40h-.939v.94h.94V40zM81.6 51.277h-.939v.94h.94v-.94zM81.6 62.554h-.939v.94h.94v-.94zM81.6 73.83h-.939v.94h.94v-.94zM81.6 85.107h-.939v.94h.94v-.94zM70.324 40h-.94v.94h.94V40zM70.324 51.277h-.94v.94h.94v-.94zM70.324 62.554h-.94v.94h.94v-.94zM70.324 73.83h-.94v.94h.94v-.94zM70.324 85.107h-.94v.94h.94v-.94zM59.047 40h-.94v.94h.94V40zM59.047 51.277h-.94v.94h.94v-.94zM59.047 62.554h-.94v.94h.94v-.94zM59.047 73.83h-.94v.94h.94v-.94zM59.047 85.107h-.94v.94h.94v-.94zM47.77 40h-.94v.94h.94V40zM47.77 51.277h-.94v.94h.94v-.94zM47.77 62.554h-.94v.94h.94v-.94zM47.77 73.83h-.94v.94h.94v-.94zM47.77 85.107h-.94v.94h.94v-.94zM36.493 40h-.94v.94h.94V40zM36.493 51.277h-.94v.94h.94v-.94zM36.493 62.554h-.94v.94h.94v-.94zM36.493 73.83h-.94v.94h.94v-.94zM36.493 85.107h-.94v.94h.94v-.94zM25.217 85.107h-.94v.94h.94v-.94zM13.94 85.107H13v.94h.94v-.94zM25.217 73.83h-.94v.94h.94v-.94z"/><path fill="url(#c)" d="M21.6 76.8a9.6 9.6 0 1 0 0-19.2 9.6 9.6 0 0 0 0 19.2z"/><path fill="url(#d)" d="M21.6 58.286c4.917 0 8.914 3.997 8.914 8.914 0 4.916-3.997 8.914-8.914 8.914s-8.914-3.998-8.914-8.914c0-4.917 3.997-8.914 8.914-8.914zm0-.686c-5.3 0-9.6 4.3-9.6 9.6s4.3 9.6 9.6 9.6 9.6-4.3 9.6-9.6-4.3-9.6-9.6-9.6z"/><path fill="#FFD066" d="M211.782 45.564c10.263 0 18.582-8.32 18.582-18.582S222.045 8.4 211.782 8.4c-10.262 0-18.582 8.32-18.582 18.582 0 10.263 8.32 18.582 18.582 18.582z"/><path fill="url(#e)" d="M211.782 9.96c9.44 0 17.096 7.657 17.096 17.096 0 9.44-7.656 17.096-17.096 17.096-9.439 0-17.095-7.656-17.095-17.096 0-9.44 7.73-17.095 17.095-17.095zm0-1.486c-10.257 0-18.582 8.325-18.582 18.582 0 10.258 8.325 18.582 18.582 18.582 10.258 0 18.582-8.324 18.582-18.582 0-10.331-8.324-18.582-18.582-18.582z"/><path fill="url(#f)" d="m220.925 18.211-6.541 9.143 6.541 9.142-9.143-6.54-9.068 6.54 6.541-9.142-6.541-9.143 9.068 6.541 9.143-6.54z"/><path fill="url(#g)" d="m211.782 14.495 1.858 11.075 11.075 1.784-11.075 1.858-1.858 11.075-1.784-11.075-11.075-1.858 11.075-1.784 1.784-11.075z"/><path fill="#FFD066" d="M31.8 110.4c8.284 0 15-6.716 15-15 0-8.284-6.716-15-15-15-8.284 0-15 6.716-15 15 0 8.284 6.716 15 15 15z"/><path fill="url(#h)" d="m27.415 109.745 18.93-18.025a15.018 15.018 0 0 0-7.8-9.715l-20.455 19.48c1.75 3.94 5.15 6.99 9.325 8.26z" opacity=".3"/><path fill="url(#i)" d="M16.815 96.065c.045 1.055.2 2.085.455 3.075l18.975-18.07a14.915 14.915 0 0 0-3.05-.605l-16.38 15.6z" opacity=".3"/><path fill="url(#j)" d="M31.8 80.65c8.135 0 14.75 6.615 14.75 14.75s-6.615 14.75-14.75 14.75-14.75-6.615-14.75-14.75 6.615-14.75 14.75-14.75zm0-.25c-8.285 0-15 6.715-15 15s6.715 15 15 15 15-6.715 15-15-6.715-15-15-15z"/><path fill="#fff" d="M31.8 83.4c6.625 0 12 5.375 12 12s-5.375 12-12 12-12-5.375-12-12 5.375-12 12-12zm0-.5c-6.895 0-12.5 5.605-12.5 12.5s5.605 12.5 12.5 12.5 12.5-5.605 12.5-12.5-5.605-12.5-12.5-12.5z"/><path fill="#fff" d="M42 101.638V16.601a3.4 3.4 0 0 1 3.401-3.401h149.666a3.4 3.4 0 0 1 3.401 3.401v85.037a3.4 3.4 0 0 1-3.401 3.402H45.401A3.4 3.4 0 0 1 42 101.638z"/><path fill="#1652F0" d="M198.468 16.601a3.4 3.4 0 0 0-3.401-3.401H45.401A3.4 3.4 0 0 0 42 16.601v10.205h156.468V16.6z"/><path fill="url(#k)" fill-rule="evenodd" d="M49.114 75.251c1.72 2.393 4.497 4.549 9.6 4.549 5.591 0 9.765-4.253 14.408-8.985C78.942 64.884 85.5 58.2 96.514 58.2c10.489 0 15.759 3.536 20.714 6.862 4.399 2.952 8.55 5.738 15.886 5.738 8.653 0 12.869-6.795 17.248-13.851 4.729-7.622 9.648-15.549 20.552-15.549 11.626 0 17.218-3.448 20.752-6.765.158.286.248.615.248.965v60.8a2 2 0 0 1-2 2h-138.8a2 2 0 0 1-2-2V75.251z" clip-rule="evenodd"/><path stroke="#fff" d="M78.914 66.13V99m29-38.956V99m29-28v28m29-56v56"/><circle cx="50.41" cy="76.5" r="2.5" fill="#1652F0"/><circle cx="190.41" cy="34.5" r="2.5" fill="#1652F0"/><circle cx="78.41" cy="66.5" r="2.5" fill="#1652F0"/><circle cx="106.41" cy="60.5" r="2.5" fill="#1652F0"/><circle cx="135.41" cy="71.5" r="2.5" fill="#1652F0"/><circle cx="164.41" cy="42.5" r="2.5" fill="#1652F0"/><path stroke="#1652F0" d="M49.914 76.416C51.706 77.61 54.096 80 59.474 80c10.754 0 19.118-21.507 37.64-21.507 16.131 0 19.715 12.546 36.444 12.546 16.729 0 19.119-28.675 32.263-28.675 13.861 0 22.106-2.987 25.093-8.364"/></g><defs><linearGradient id="b" x1="240.33" x2="-1.74" y1="62.4" y2="62.4" gradientUnits="userSpaceOnUse"><stop stop-color="#0A0B0D" stop-opacity="0"/><stop offset=".19" stop-color="#1652F0"/><stop offset=".82" stop-color="#154BD9" stop-opacity=".93"/><stop offset="1" stop-color="#0A0B0D" stop-opacity=".3"/></linearGradient><linearGradient id="c" x1="21.6" x2="21.6" y1="76.8" y2="57.6" gradientUnits="userSpaceOnUse"><stop stop-color="#1652F0"/><stop offset="1" stop-color="#99D6FF"/></linearGradient><linearGradient id="d" x1="21.6" x2="21.6" y1="76.8" y2="57.6" gradientUnits="userSpaceOnUse"><stop stop-color="#99D6FF" stop-opacity="0"/><stop offset=".2" stop-color="#9DD8FF" stop-opacity=".1"/><stop offset=".39" stop-color="#A9DDFF" stop-opacity=".2"/><stop offset=".6" stop-color="#BEE5FF" stop-opacity=".3"/><stop offset=".8" stop-color="#DAF0FF" stop-opacity=".4"/><stop offset="1" stop-color="#fff" stop-opacity=".5"/><stop offset="1" stop-color="#fff" stop-opacity=".5"/></linearGradient><linearGradient id="e" x1="193.25" x2="230.36" y1="27.01" y2="27.01" gradientUnits="userSpaceOnUse"><stop stop-color="#fff" stop-opacity=".2"/><stop offset=".5" stop-color="#fff" stop-opacity=".5"/><stop offset="1" stop-color="#fff" stop-opacity="0"/></linearGradient><linearGradient id="f" x1="202.71" x2="220.94" y1="18.24" y2="36.47" gradientUnits="userSpaceOnUse"><stop stop-color="#fff" stop-opacity="0"/><stop offset="1" stop-color="#fff"/></linearGradient><linearGradient id="g" x1="205.38" x2="218.27" y1="20.91" y2="33.8" gradientUnits="userSpaceOnUse"><stop stop-color="#fff" stop-opacity=".4"/><stop offset="1" stop-color="#fff"/></linearGradient><linearGradient id="h" x1="22.15" x2="42.88" y1="106.67" y2="85.94" gradientUnits="userSpaceOnUse"><stop stop-color="#fff" stop-opacity="0"/><stop offset=".5" stop-color="#fff"/><stop offset="1" stop-color="#fff" stop-opacity="0"/></linearGradient><linearGradient id="i" x1="15.29" x2="36.02" y1="99.81" y2="79.07" gradientUnits="userSpaceOnUse"><stop stop-color="#fff" stop-opacity="0"/><stop offset=".5" stop-color="#fff"/><stop offset="1" stop-color="#fff" stop-opacity="0"/></linearGradient><linearGradient id="j" x1="21.8" x2="41.8" y1="106.58" y2="84.22" gradientUnits="userSpaceOnUse"><stop stop-color="#fff" stop-opacity=".2"/><stop offset=".5" stop-color="#fff"/><stop offset="1" stop-color="#fff" stop-opacity="0"/></linearGradient><linearGradient id="k" x1="119.91" x2="119.91" y1="98.4" y2="33.5" gradientUnits="userSpaceOnUse"><stop stop-color="#CEECFF"/><stop offset=".91" stop-color="#E4F4FF"/></linearGradient><clipPath id="a"><path fill="#fff" d="M0 0h240v120H0z"/></clipPath></defs></svg>