<svg xmlns="http://www.w3.org/2000/svg" fill="none" viewBox="0 0 249 240"><path fill="#fff" fill-opacity=".35" d="M49 98.71v1h1v-1h-1zM25 110.71v1h1v-1h-1zM37 110.71v1h1v-1h-1zM49 110.71v1h1v-1h-1zM13 122.71v1h1v-1h-1zM25 122.71v1h1v-1h-1zM37 122.71v1h1v-1h-1zM49 122.71v1h1v-1h-1zM13 134.71v1h1v-1h-1zM25 134.71v1h1v-1h-1zM37 134.71v1h1v-1h-1zM49 134.71v1h1v-1h-1zM25 146.71v1h1v-1h-1zM37 146.71v1h1v-1h-1zM49 146.71v1h1v-1h-1zM49 158.71v1h1v-1h-1zM37 158.71v1h1v-1h-1z" opacity=".5"/><path fill="url(#a)" d="M240 76h-40v104h40V76z"/><path fill="url(#b)" d="M249 100H64v56h185v-56z"/><path fill="url(#c)" d="M249 106.84H64v8h185v-8z"/><path fill="url(#d)" d="M249 140H64v8h185v-8z"/><path fill="#fff" fill-opacity=".75" d="M231 98.71v1h1v-1h-1zM219 98.71v1h1v-1h-1zM207 98.71v1h1v-1h-1zM231 110.71v1h1v-1h-1zM219 110.71v1h1v-1h-1zM207 110.71v1h1v-1h-1zM231 122.71v1h1v-1h-1zM219 122.71v1h1v-1h-1zM207 122.71v1h1v-1h-1zM219 134.71v1h1v-1h-1zM207 134.71v1h1v-1h-1zM207 146.71v1h1v-1h-1z" opacity=".5"/><path fill="#fff" d="M200 60H64v120h136V60z"/><path fill="url(#e)" d="M64 76h136v4H64v-4z"/><path fill="#1652F0" d="M200 60H64v16h136V60z"/><path fill="url(#f)" d="M120 100h-8v-8h8v8zm16-8h-8v8h8v-8zm16 0h-8v8h8v-8zm32 0h-8v8h8v-8zm-96 16h-8v8h8v-8zm16 0h-8v8h8v-8zm16 0h-8v8h8v-8zm16 0h-8v8h8v-8zm16 0h-8v8h8v-8zm32 0h-8v8h8v-8zm-96 16h-8v8h8v-8zm16 0h-8v8h8v-8zm16 0h-8v8h8v-8zm16 0h-8v8h8v-8zm16 0h-8v8h8v-8zm32 0h-8v8h8v-8zm-96 16h-8v8h8v-8zm16 0h-8v8h8v-8zm16 0h-8v8h8v-8zm16 0h-8v8h8v-8zm16 0h-8v8h8v-8zm32 0h-8v8h8v-8zm-96 16h-8v8h8v-8zm16 0h-8v8h8v-8zm16 0h-8v8h8v-8zm16 0h-8v8h8v-8zm16 0h-8v8h8v-8z"/><path fill="url(#g)" d="M200 100H64v56h136v-56z"/><path fill="url(#h)" d="M200 106.84H64v8h136v-8z"/><path fill="url(#i)" d="M200 140H64v8h136v-8z"/><path fill="#FFD066" d="M64 164c19.882 0 36-16.118 36-36S83.882 92 64 92s-36 16.118-36 36 16.118 36 36 36z"/><path fill="url(#j)" d="M29.12 128c0-9.32 3.63-18.07 10.21-24.66 13.6-13.6 35.72-13.6 49.32 0 6.59 6.59 10.21 15.34 10.21 24.66s-3.63 18.07-10.21 24.66c-13.6 13.6-35.72 13.6-49.32 0-6.58-6.59-10.21-15.34-10.21-24.66zm9.42 25.46C45.06 159.97 54.06 164 64 164c19.88 0 36-16.12 36-36 0-9.94-4.03-18.94-10.54-25.46A35.865 35.865 0 0 0 64 92c-19.88 0-36 16.12-36 36 0 9.94 4.03 18.94 10.54 25.46z"/><path fill="url(#k)" d="M63.81 159.76c-17.51 0-31.76-14.25-31.76-31.76S46.3 96.24 63.81 96.24 95.58 110.49 95.58 128s-14.25 31.76-31.77 31.76zm0-62.4c-16.89 0-30.64 13.74-30.64 30.64s13.74 30.64 30.64 30.64S94.45 144.89 94.45 128 80.71 97.36 63.81 97.36z" opacity=".5"/><path fill="#fff" d="M64 145.16c-6.69 0-12.81-3.93-15.6-10.01l2.05-.94c2.42 5.28 7.75 8.7 13.55 8.7 8.22 0 14.91-6.69 14.91-14.91 0-8.22-6.69-14.91-14.91-14.91-8.22 0-14.91 6.69-14.91 14.91h-2.25c0-9.46 7.7-17.16 17.16-17.16s17.16 7.7 17.16 17.16-7.7 17.16-17.16 17.16z"/><path fill="#fff" d="M49.76 141.5h-2.25v-6.82c0-.62.5-1.12 1.12-1.12h6.82v2.25h-5.7v5.69h.01zM65.13 122.94h-2.25v10.12h2.25v-10.12z"/><path fill="#fff" d="M69.06 126.88H58.94v2.25h10.12v-2.25z"/><path fill="url(#l)" d="m30 102 8.23-1.77L40 92l1.77 8.23L50 102l-8.23 1.77L40 112l-1.77-8.23L30 102z"/><path fill="#1652F0" fill-opacity=".3" d="M44 82c.55 0 1-.45 1-1s-.45-1-1-1-1 .45-1 1 .45 1 1 1zM23 104c.55 0 1-.45 1-1s-.45-1-1-1-1 .45-1 1 .45 1 1 1z" opacity=".5"/><path fill="#404753" d="M31.5 87.5H28V84h-1v3.5h-3.5v1H27V92h1v-3.5h3.5v-1z"/><path fill="#FFD066" d="M168 92h-8v8h8v-8zM168 108h-8v8h8v-8zM168 124h-8v8h8v-8zM168 140h-8v8h8v-8zM168 156h-8v8h8v-8z"/><defs><linearGradient id="a" x1="240" x2="180" y1="137" y2="137" gradientUnits="userSpaceOnUse"><stop stop-color="#0A0B0D" stop-opacity="0"/><stop offset=".73" stop-color="#154BD9" stop-opacity=".93"/><stop offset=".88" stop-color="#1652F0"/><stop offset=".96" stop-color="#0A0B0D" stop-opacity=".3"/></linearGradient><linearGradient id="b" x1="125.5" x2="240" y1="99.92" y2="99.92" gradientUnits="userSpaceOnUse"><stop stop-color="#0A0B0D" stop-opacity="0"/><stop offset=".64" stop-color="#154CDE" stop-opacity=".94"/><stop offset=".98" stop-color="#0A0B0D" stop-opacity=".3"/></linearGradient><linearGradient id="c" x1="156.5" x2="240" y1="106.83" y2="106.83" gradientUnits="userSpaceOnUse"><stop stop-color="#0A0B0D" stop-opacity="0"/><stop offset=".19" stop-color="#1652F0"/><stop offset=".96" stop-color="#0A0B0D" stop-opacity=".3"/></linearGradient><linearGradient id="d" x1="114" x2="240" y1="139.99" y2="139.99" gradientUnits="userSpaceOnUse"><stop stop-color="#0A0B0D" stop-opacity="0"/><stop offset=".19" stop-color="#1652F0"/><stop offset=".46" stop-color="#154CDE" stop-opacity=".94"/><stop offset="1" stop-color="#0A0B0D" stop-opacity=".3"/></linearGradient><linearGradient id="e" x1="200" x2="64" y1="78" y2="78" gradientUnits="userSpaceOnUse"><stop stop-color="#D4EEFF" stop-opacity="0"/><stop offset=".28" stop-color="#D4EEFF"/><stop offset="1" stop-color="#D4EEFF" stop-opacity=".3"/></linearGradient><linearGradient id="f" x1="132" x2="132" y1="92.88" y2="194.99" gradientUnits="userSpaceOnUse"><stop stop-color="#D4EEFF"/><stop offset="1" stop-color="#D4EEFF" stop-opacity="0"/></linearGradient><linearGradient id="g" x1="200.19" x2="63.01" y1="128" y2="128" gradientUnits="userSpaceOnUse"><stop stop-color="#fff" stop-opacity="0"/><stop offset="1" stop-color="#D4EEFF" stop-opacity=".6"/></linearGradient><linearGradient id="h" x1="200.19" x2="63.01" y1="110.84" y2="110.84" gradientUnits="userSpaceOnUse"><stop offset=".07" stop-color="#fff" stop-opacity="0"/><stop offset="1" stop-color="#D4EEFF" stop-opacity=".8"/></linearGradient><linearGradient id="i" x1="200.19" x2="63.01" y1="144" y2="144" gradientUnits="userSpaceOnUse"><stop offset=".08" stop-color="#fff" stop-opacity="0"/><stop offset="1" stop-color="#D4EEFF" stop-opacity=".8"/></linearGradient><linearGradient id="j" x1="39.99" x2="88.01" y1="154.83" y2="101.17" gradientUnits="userSpaceOnUse"><stop stop-color="#fff" stop-opacity=".2"/><stop offset=".5" stop-color="#fff"/><stop offset="1" stop-color="#fff" stop-opacity="0"/></linearGradient><linearGradient id="k" x1="32.05" x2="95.58" y1="128" y2="128" gradientUnits="userSpaceOnUse"><stop stop-color="#fff" stop-opacity="0"/><stop offset="1" stop-color="#fff"/></linearGradient><linearGradient id="l" x1="40" x2="40" y1="92" y2="112" gradientUnits="userSpaceOnUse"><stop stop-color="#1652F0"/><stop offset="1" stop-color="#fff" stop-opacity="0"/></linearGradient></defs></svg>