<svg xmlns="http://www.w3.org/2000/svg" fill="none" viewBox="0 0 240 240"><path fill="url(#a)" d="M170 240V0H70v240h100z"/><path fill="#fff" fill-opacity=".35" d="M216 225v-1h-1v1h1zM156 225v-1h-1v1h1zM144 225v-1h-1v1h1zM132 225v-1h-1v1h1zM120 225v-1h-1v1h1zM216 213v-1h-1v1h1zM168 213v-1h-1v1h1zM156 213v-1h-1v1h1zM144 213v-1h-1v1h1zM132 213v-1h-1v1h1zM120 213v-1h-1v1h1zM216 201v-1h-1v1h1zM204 201v-1h-1v1h1zM180 201v-1h-1v1h1zM168 201v-1h-1v1h1zM156 201v-1h-1v1h1zM144 201v-1h-1v1h1zM132 201v-1h-1v1h1zM120 201v-1h-1v1h1zM216 189v-1h-1v1h1zM204 189v-1h-1v1h1zM192 189v-1h-1v1h1zM180 189v-1h-1v1h1zM168 189v-1h-1v1h1zM156 189v-1h-1v1h1zM144 189v-1h-1v1h1zM132 189v-1h-1v1h1zM120 189v-1h-1v1h1zM216 177v-1h-1v1h1zM204 177v-1h-1v1h1zM192 177v-1h-1v1h1zM180 177v-1h-1v1h1zM168 177v-1h-1v1h1zM156 177v-1h-1v1h1zM144 177v-1h-1v1h1zM132 177v-1h-1v1h1zM120 177v-1h-1v1h1zM216 165v-1h-1v1h1zM204 165v-1h-1v1h1zM192 165v-1h-1v1h1zM180 165v-1h-1v1h1zM168 165v-1h-1v1h1zM156 165v-1h-1v1h1zM144 165v-1h-1v1h1zM132 165v-1h-1v1h1zM120 165v-1h-1v1h1zM216 153v-1h-1v1h1zM204 153v-1h-1v1h1zM192 153v-1h-1v1h1zM180 153v-1h-1v1h1zM168 153v-1h-1v1h1zM156 153v-1h-1v1h1zM144 153v-1h-1v1h1zM132 153v-1h-1v1h1zM120 153v-1h-1v1h1zM216 141v-1h-1v1h1zM204 141v-1h-1v1h1zM192 141v-1h-1v1h1zM180 141v-1h-1v1h1zM168 141v-1h-1v1h1zM156 141v-1h-1v1h1zM144 141v-1h-1v1h1zM132 141v-1h-1v1h1zM120 141v-1h-1v1h1zM216 129v-1h-1v1h1zM204 129v-1h-1v1h1zM192 129v-1h-1v1h1zM180 129v-1h-1v1h1zM168 129v-1h-1v1h1zM156 129v-1h-1v1h1zM144 129v-1h-1v1h1zM132 129v-1h-1v1h1zM120 129v-1h-1v1h1zM216 117v-1h-1v1h1zM204 117v-1h-1v1h1zM192 117v-1h-1v1h1zM180 117v-1h-1v1h1zM168 117v-1h-1v1h1zM156 117v-1h-1v1h1zM144 117v-1h-1v1h1zM132 117v-1h-1v1h1zM120 117v-1h-1v1h1zM216 105v-1h-1v1h1zM204 105v-1h-1v1h1zM192 105v-1h-1v1h1zM180 105v-1h-1v1h1zM168 105v-1h-1v1h1zM156 105v-1h-1v1h1zM144 105v-1h-1v1h1zM132 105v-1h-1v1h1zM120 105v-1h-1v1h1zM216 93v-1h-1v1h1zM204 93v-1h-1v1h1zM192 93v-1h-1v1h1zM180 93v-1h-1v1h1zM168 93v-1h-1v1h1zM156 93v-1h-1v1h1zM144 93v-1h-1v1h1zM132 93v-1h-1v1h1zM120 93v-1h-1v1h1zM216 81v-1h-1v1h1zM204 81v-1h-1v1h1zM192 81v-1h-1v1h1zM180 81v-1h-1v1h1zM168 81v-1h-1v1h1zM156 81v-1h-1v1h1zM144 81v-1h-1v1h1zM132 81v-1h-1v1h1zM120 81v-1h-1v1h1zM216 69v-1h-1v1h1zM204 69v-1h-1v1h1zM192 69v-1h-1v1h1zM180 69v-1h-1v1h1zM168 69v-1h-1v1h1zM156 69v-1h-1v1h1zM144 69v-1h-1v1h1zM132 69v-1h-1v1h1zM120 69v-1h-1v1h1zM216 57v-1h-1v1h1zM204 57v-1h-1v1h1zM192 57v-1h-1v1h1zM180 57v-1h-1v1h1zM168 57v-1h-1v1h1zM156 57v-1h-1v1h1zM144 57v-1h-1v1h1zM132 57v-1h-1v1h1zM120 57v-1h-1v1h1zM216 45v-1h-1v1h1zM204 45v-1h-1v1h1zM192 45v-1h-1v1h1zM180 45v-1h-1v1h1zM168 45v-1h-1v1h1zM156 45v-1h-1v1h1zM144 45v-1h-1v1h1zM132 45v-1h-1v1h1zM120 45v-1h-1v1h1zM216 33v-1h-1v1h1zM204 33v-1h-1v1h1zM192 33v-1h-1v1h1zM180 33v-1h-1v1h1zM168 33v-1h-1v1h1zM156 33v-1h-1v1h1zM144 33v-1h-1v1h1zM132 33v-1h-1v1h1zM120 33v-1h-1v1h1zM216 21v-1h-1v1h1zM204 21v-1h-1v1h1zM180 21v-1h-1v1h1zM168 21v-1h-1v1h1zM156 21v-1h-1v1h1zM144 21v-1h-1v1h1zM132 21v-1h-1v1h1zM120 21v-1h-1v1h1zM216 9V8h-1v1h1zM144 9V8h-1v1h1zM132 9V8h-1v1h1zM120 9V8h-1v1h1z"/><path fill="#1652F0" d="M48 44v67.1c0 75.51 72 96.9 72 96.9s72-21.07 72-96.59V44l-72-12-72 12z"/><path fill="#fff" d="m120 32 72 12v67.41c0 75.51-72 96.59-72 96.59s-72-21.39-72-96.9V44l72-12zm0-8.11-1.32.22-72 12L40 37.22v73.88c0 42.13 21.17 68.36 38.92 82.95 19.03 15.63 38 21.38 38.8 21.62l2.26.67 2.26-.66c.8-.23 19.78-5.9 38.81-21.46 17.76-14.51 38.94-40.66 38.94-82.8v-74.2l-6.68-1.11-72-12-1.31-.22z"/><path fill="#fff" d="M142 99.25h-8V82c0-7.72-6.28-14-14-14s-14 6.28-14 14v17.25h-8V82c0-12.13 9.87-22 22-22s22 9.87 22 22v17.25z"/><path fill="url(#b)" d="M142 99.25h-8V82c0-7.72-6.28-14-14-14s-14 6.28-14 14v17.25h-8V82c0-12.13 9.87-22 22-22s22 9.87 22 22v17.25z"/><path fill="#fff" d="M156 92H84v56h72V92z"/><path fill="#0A0B0D" d="M120 120a6 6 0 1 0 0-12 6 6 0 0 0 0 12z"/><path fill="#0A0B0D" d="m120 114-6 20h12l-6-20z"/><defs><linearGradient id="a" x1="120" x2="120" y1="-.33" y2="241.74" gradientUnits="userSpaceOnUse"><stop stop-color="#0A0B0D" stop-opacity="0"/><stop offset=".19" stop-color="#1652F0"/><stop offset=".72" stop-color="#154BD9" stop-opacity=".93"/><stop offset=".96" stop-color="#0A0B0D" stop-opacity=".3"/></linearGradient><linearGradient id="b" x1="98" x2="142" y1="79.63" y2="79.63" gradientUnits="userSpaceOnUse"><stop stop-color="#D4EEFF"/><stop offset="1" stop-color="#fff"/></linearGradient></defs></svg>