<svg xmlns="http://www.w3.org/2000/svg" fill="none" viewBox="0 0 240 240"><path fill="#464B55" d="M240 183.505a64.6 64.6 0 0 1-8 .495c-35.346 0-64-28.654-64-64 0-35.346 28.654-64 64-64a64.6 64.6 0 0 1 8 .495V104h-24v32h24v47.505zm-240 0c2.62.327 5.29.495 8 .495 35.346 0 64-28.654 64-64 0-35.346-28.654-64-64-64-2.71 0-5.38.168-8 .495v49.442A17.34 17.34 0 0 1 8 104c9.389 0 17 7.387 17 16.5S17.389 137 8 137a17.34 17.34 0 0 1-8-1.937v48.442z"/><path fill="#ECD069" d="M187.998 48c0-11.048 8.954-19.998 20.002-19.998-11.048 0-20.002-8.954-20.002-20.002 0 11.048-8.954 20.002-19.998 20.002 11.044 0 19.998 8.95 19.998 19.998z"/><path fill="#588AF5" d="M47.998 224c0-8.838 7.164-15.998 16.002-15.998-8.838 0-16.002-7.164-16.002-16.002 0 8.838-7.163 16.002-15.998 16.002 8.835 0 15.998 7.16 15.998 15.998z"/><path fill="#ECD069" d="M200 120c0 44.183-35.817 80-80 80s-80-35.817-80-80 35.817-80 80-80 80 35.817 80 80z"/><path fill="#588AF5" d="M53.709 164.797c11.314-11.544 18.29-27.356 18.29-44.797 0-17.441-6.976-33.253-18.29-44.796C45.055 87.985 40 103.402 40 120s5.055 32.015 13.709 44.797z"/><path fill="#588AF5" d="M53.709 164.797c11.314-11.544 18.29-27.356 18.29-44.797 0-17.441-6.976-33.253-18.29-44.796C45.055 87.985 40 103.402 40 120s5.055 32.015 13.709 44.797z"/><path fill="#588AF5" d="M53.709 164.797c11.314-11.544 18.29-27.356 18.29-44.797 0-17.441-6.976-33.253-18.29-44.796C45.055 87.985 40 103.402 40 120s5.055 32.015 13.709 44.797zm132.582 0C174.977 153.253 168 137.441 168 120c0-17.441 6.977-33.253 18.291-44.796C194.945 87.985 200 103.402 200 120s-5.055 32.015-13.709 44.797z"/><path fill="#588AF5" d="M186.291 164.797C174.977 153.253 168 137.441 168 120c0-17.441 6.977-33.253 18.291-44.796C194.945 87.985 200 103.402 200 120s-5.055 32.015-13.709 44.797z"/><path fill="#588AF5" d="M186.291 164.797C174.977 153.253 168 137.441 168 120c0-17.441 6.977-33.253 18.291-44.796C194.945 87.985 200 103.402 200 120s-5.055 32.015-13.709 44.797z"/><path fill="#fff" d="M120 83.221c9.684 15.08 22.964 27.723 38.664 36.779-15.7 9.056-28.98 21.699-38.664 36.779-9.684-15.08-22.964-27.723-38.663-36.779 15.7-9.056 28.979-21.7 38.663-36.779z"/><path fill="#0A0B0D" fill-rule="evenodd" d="M120.5 185c36.175 0 65.5-29.325 65.5-65.5S156.675 54 120.5 54 55 83.325 55 119.5 84.325 185 120.5 185zm0 2c37.279 0 67.5-30.221 67.5-67.5 0-37.28-30.221-67.5-67.5-67.5C83.22 52 53 82.22 53 119.5c0 37.279 30.22 67.5 67.5 67.5z" clip-rule="evenodd"/><path fill="#44C28D" d="M120 24 96 0h48l-24 24z"/><path fill="#44C28D" d="M120 24 96 0h48l-24 24zm0 192-24 24h48l-24-24z"/><path fill="#44C28D" d="m120 216-24 24h48l-24-24z"/></svg>