<svg xmlns="http://www.w3.org/2000/svg" fill="none" viewBox="0 0 240 240"><path fill="url(#a)" d="M173.2 219.6V20.3H64.5v199.4h108.7v-.1z"/><path fill="#fff" fill-opacity=".35" d="M158.8 197.3v-1h-1v1h1zm-12 0v-1h-1v1h1zm-12 0v-1h-1v1h1zm-12 0v-1h-1v1h1zm-12 0v-1h-1v1h1zm-12 0v-1h-1v1h1zm-12 0v-1h-1v1h1zm72-12v-1h-1v1h1zm-12 0v-1h-1v1h1zm-12 0v-1h-1v1h1zm-12 0v-1h-1v1h1zm-12 0v-1h-1v1h1zm-12 0v-1h-1v1h1zm-12 0v-1h-1v1h1z"/><path fill="#1652F0" d="M158.8 173.3v-1h-1v1h1zm-12 0v-1h-1v1h1zm-12 0v-1h-1v1h1zm-12 0v-1h-1v1h1zm-12 0v-1h-1v1h1zm-12 0v-1h-1v1h1zm-12 0v-1h-1v1h1zm72-111v-1h-1v1h1zm-12 0v-1h-1v1h1z" opacity=".5"/><path fill="#fff" fill-opacity=".35" d="M146.8 50.3v-1h-1v1h1z"/><path fill="#1652F0" d="M134.8 62.3v-1h-1v1h1zm-12 0v-1h-1v1h1zm-12 0v-1h-1v1h1zm-12 0v-1h-1v1h1zm-12 0v-1h-1v1h1z" opacity=".5"/><path fill="#fff" fill-opacity=".35" d="M158.8 50.3v-1h-1v1h1zm-24 0v-1h-1v1h1zm-12 0v-1h-1v1h1zm-12 0v-1h-1v1h1zm-12 0v-1h-1v1h1zm-12 0v-1h-1v1h1zm0-12v-1h-1v1h1zm12 0v-1h-1v1h1zm60 170v-1h-1v1h1zm-12 0v-1h-1v1h1zm-12 0v-1h-1v1h1zm-12 0v-1h-1v1h1zm-12 0v-1h-1v1h1zm-12 0v-1h-1v1h1zm-12 0v-1h-1v1h1z"/><path fill="#fff" stroke="url(#b)" d="M47.3 175.8v-115h143v115h-143z"/><path fill="#fff" d="M135.4 129.2c4.1 0 7.4-3.1 7.4-7s-3.3-7-7.4-7c-4.1 0-7.4 3.1-7.4 7 0 3.8 3.3 7 7.4 7z"/><path fill="#D4EEFF" d="M73.1 112.1h-2.6v53.6h2.6v-53.6zm18.7-20.3h-2.6v45.4h2.6V91.8zm18.7 9.9h-2.6v44.4h2.6v-44.4zm18.6-29.4h-2.6v56.6h2.6V72.3zm19.1 10.9h-2.6v34.1h2.6V83.2zm18.9 9.3h-2.6v43.1h2.6V92.5z"/><path fill="#3ACC8A" d="M78.1 119.1H65.5v39.6h12.6v-39.6zm18.7-19.4H84.2v29.7h12.6V99.7z"/><path fill="#F46767" d="M115.5 109.1h-12.6v29.7h12.6v-29.7z"/><path fill="#3ACC8A" d="M134 79.5h-12.6v39.6H134V79.5z"/><path fill="#F46767" d="M153.2 89.4h-12.6v19.8h12.6V89.4z"/><path fill="#3ACC8A" d="M172.1 99.3h-12.6V129h12.6V99.3z"/><path fill="url(#c)" d="M71.5 119.1h-6v39.6h6v-39.6z" opacity=".68"/><path fill="url(#d)" d="M90.2 99.5h-6v29.8h6V99.5z" opacity=".68"/><path fill="url(#e)" d="M108.9 109.1h-6v29.6h6v-29.6z" opacity=".68"/><path fill="url(#f)" d="M127.5 79.5h-6v39.6h6V79.5z" opacity=".68"/><path fill="url(#g)" d="M146.8 89.5h-6.1v19.7h6.1V89.5z" opacity=".68"/><path fill="url(#h)" d="M165.7 99.4h-6.2V129h6.2V99.4z" opacity=".68"/><path fill="url(#i)" d="M179.7 155h-36.5v3.3h36.5V155z"/><path fill="url(#j)" d="M165.7 161.7h-22.5v3.3h22.5v-3.3z"/><defs><linearGradient id="a" x1="118.83" x2="118.83" y1="20.01" y2="221.09" gradientUnits="userSpaceOnUse"><stop stop-opacity="0"/><stop offset=".01" stop-color="#01050F" stop-opacity=".02"/><stop offset=".04" stop-color="#06153E" stop-opacity=".08"/><stop offset=".07" stop-color="#0A2468" stop-opacity=".15"/><stop offset=".11" stop-color="#0D308D" stop-opacity=".23"/><stop offset=".15" stop-color="#103BAC" stop-opacity=".31"/><stop offset=".19" stop-color="#1243C5" stop-opacity=".39"/><stop offset=".23" stop-color="#144AD8" stop-opacity=".49"/><stop offset=".29" stop-color="#154EE6" stop-opacity=".6"/><stop offset=".35" stop-color="#1651EE" stop-opacity=".74"/><stop offset=".48" stop-color="#1652F0"/><stop offset=".63" stop-color="#1651EE" stop-opacity=".71"/><stop offset=".7" stop-color="#154FE6" stop-opacity=".57"/><stop offset=".76" stop-color="#144AD9" stop-opacity=".46"/><stop offset=".8" stop-color="#1244C7" stop-opacity=".37"/><stop offset=".85" stop-color="#103CAE" stop-opacity=".29"/><stop offset=".89" stop-color="#0D3191" stop-opacity=".22"/><stop offset=".92" stop-color="#0A256D" stop-opacity=".15"/><stop offset=".96" stop-color="#061744" stop-opacity=".08"/><stop offset=".99" stop-color="#020817" stop-opacity=".03"/><stop offset="1" stop-opacity="0"/></linearGradient><linearGradient id="b" x1="118.82" x2="118.82" y1="60.29" y2="176.29" gradientUnits="userSpaceOnUse"><stop stop-color="#D4EEFF"/><stop offset="1" stop-color="#99D6FF"/></linearGradient><linearGradient id="c" x1="68.52" x2="68.52" y1="158.66" y2="119.09" gradientUnits="userSpaceOnUse"><stop stop-color="#D4EEFF"/><stop offset="1" stop-color="#D4EEFF" stop-opacity="0"/></linearGradient><linearGradient id="d" x1="87.21" x2="87.21" y1="129.36" y2="99.52" gradientUnits="userSpaceOnUse"><stop stop-color="#D4EEFF"/><stop offset="1" stop-color="#D4EEFF" stop-opacity="0"/></linearGradient><linearGradient id="e" x1="105.94" x2="105.94" y1="138.72" y2="109.09" gradientUnits="userSpaceOnUse"><stop stop-color="#D4EEFF"/><stop offset="1" stop-color="#D4EEFF" stop-opacity="0"/></linearGradient><linearGradient id="f" x1="124.52" x2="124.52" y1="119.14" y2="79.51" gradientUnits="userSpaceOnUse"><stop stop-color="#D4EEFF"/><stop offset="1" stop-color="#D4EEFF" stop-opacity="0"/></linearGradient><linearGradient id="g" x1="143.72" x2="143.72" y1="109.21" y2="89.51" gradientUnits="userSpaceOnUse"><stop stop-color="#D4EEFF"/><stop offset="1" stop-color="#D4EEFF" stop-opacity="0"/></linearGradient><linearGradient id="h" x1="162.63" x2="162.63" y1="128.96" y2="99.36" gradientUnits="userSpaceOnUse"><stop stop-color="#D4EEFF"/><stop offset="1" stop-color="#D4EEFF" stop-opacity="0"/></linearGradient><linearGradient id="i" x1="143.16" x2="179.65" y1="156.67" y2="156.67" gradientUnits="userSpaceOnUse"><stop stop-color="#D4EEFF"/><stop offset=".85" stop-color="#D4EEFF" stop-opacity=".15"/><stop offset="1" stop-color="#D4EEFF" stop-opacity="0"/></linearGradient><linearGradient id="j" x1="143.16" x2="165.63" y1="163.39" y2="163.39" gradientUnits="userSpaceOnUse"><stop stop-color="#D4EEFF"/><stop offset=".85" stop-color="#D4EEFF" stop-opacity=".15"/><stop offset="1" stop-color="#D4EEFF" stop-opacity="0"/></linearGradient></defs></svg>