<svg xmlns="http://www.w3.org/2000/svg" fill="none" viewBox="0 0 120 120"><g clip-path="url(#a)"><path fill="url(#b)" d="m47.5 34.2 2.8 2.1c.5.4 1.1.5 1.7.3l4.1-1c.9-.2 1.7.2 2.2.9l2.2 3.7c.3.5.8.9 1.4.9l4.2.6c.9.1 1.6.8 1.7 1.7l.6 4.2c.1.6.4 1.1.9 1.4l3.7 2.2c.8.5 1.1 1.3.9 2.2l-1 4.1c-.1.6 0 1.2.3 1.7l2.5 3.4c.5.7.5 1.7 0 2.4l-2.5 3.4c-.2.6-.3 1.2-.2 1.8l1 4.1c.2.9-.2 1.7-.9 2.2l-3.7 2.2c-.5.3-.9.8-.9 1.4l-.6 4.2c-.1.9-.8 1.6-1.7 1.7l-4.2.7c-.6.1-1.1.4-1.4.9l-2.2 3.7c-.5.8-1.3 1.1-2.2.9l-4.1-1c-.6-.1-1.2 0-1.7.3L46.9 94h73.4V34.2H47.5z" opacity=".2"/><path fill="url(#c)" d="M73.2 51.3c.8.5 1.1 1.3.9 2.2l-1 4.1c-.1.6 0 1.2.3 1.7l2.5 3.4c.5.7.5 1.7 0 2.4l-2.5 3.4c-.4.5-.5 1.1-.4 1.7l1 4.1c.2.9-.2 1.7-.9 2.2l-.7.5h48V51.2l-47.2.1z" opacity=".2"/><path fill="url(#d)" d="M69.5 78.7c-.5.3-.9.8-.9 1.4l-.3 1.9h52.1v-5h-48l-2.9 1.7z" opacity=".5"/><path fill="url(#e)" d="m68.3 46.2.2 1.4c.1.6.4 1.1.9 1.4l3.6 2.2h47.2v-5H68.3z" opacity=".5"/><path fill="#fff" d="m46.4 28.3 5.3 3.9c.2.2.5.2.8.2l6.4-1.6c.4-.1.9.1 1.1.5l3.4 5.6c.2.3.4.4.7.5l6.5 1c.4.1.8.4.8.8l1 6.5c0 .3.2.6.5.7l5.6 3.4c.4.2.6.7.5 1.1l-1.6 6.4c-.1.3 0 .6.2.8l3.9 5.3c.3.4.3.8 0 1.2l-3.9 5.3c-.2.2-.2.5-.2.8l1.6 6.4c.1.4-.1.9-.5 1.1l-5.6 3.4c-.3.2-.4.4-.5.7l-1 6.5c-.1.4-.4.8-.8.8l-6.5 1c-.3 0-.6.2-.7.5L60 96.7c-.2.4-.7.6-1.1.5l-6.4-1.6c-.3-.1-.6 0-.8.2l-5.3 3.9c-.4.3-.8.3-1.2 0l-5.3-3.9c-.2-.2-.5-.2-.8-.2L32.7 97c-.4.1-.9-.1-1.1-.5l-3.4-5.6c-.2-.3-.4-.4-.7-.5l-6.5-1c-.4-.1-.8-.4-.8-.8l-1-6.5c0-.3-.2-.6-.5-.7L13.1 78c-.4-.2-.6-.7-.5-1.1l1.6-6.4c.1-.3 0-.6-.2-.8l-3.9-5.3c-.3-.4-.3-.8 0-1.2l4-5.2c.2-.2.2-.5.2-.8l-1.6-6.4c-.1-.4.1-.9.5-1.1l5.6-3.4c.3-.2.4-.4.5-.7l1-6.5c.1-.4.4-.8.8-.8l6.5-1c.3 0 .6-.2.7-.5l3.4-5.6c.2-.4.7-.6 1.1-.5l6.4 1.6c.3.1.6 0 .8-.2l5.3-3.9c.2-.1.7-.1 1.1.1z"/><path fill="url(#f)" d="m39.5 91.2-4.1 1c-.9.2-1.7-.2-2.2-.9L31 87.6c-.3-.5-.8-.9-1.4-.9l-4.2-.6c-.9-.1-1.6-.8-1.7-1.7l-.7-4.2c-.1-.6-.4-1.1-.9-1.4l-3.7-2.2c-.8-.5-1.1-1.3-.9-2.2l1-4.1c.1-.6 0-1.2-.3-1.7l-2.5-3.4c-.5-.7-.5-1.7 0-2.4l2.5-3.4c.4-.5.5-1.1.3-1.7l-1-4.1c-.2-.9.2-1.7.9-2.2l3.7-2.2c.5-.3.9-.8.9-1.4l.6-4.2c.1-.9.8-1.6 1.7-1.7l4.2-.6c.6-.1 1.1-.4 1.4-.9l2.2-3.7c.5-.8 1.3-1.1 2.2-.9l4.1 1c.6.1 1.2 0 1.7-.3l3.4-2.5c.7-.5 1.7-.5 2.4 0l3.4 2.5c.5.4 1.1.5 1.7.3l4.1-1c.9-.2 1.7.2 2.2.9l2.2 3.7c.3.5.8.9 1.4.9l4.2.6c.9.1 1.6.8 1.7 1.7l.6 4.2c.1.6.4 1.1.9 1.4l3.7 2.2c.8.5 1.1 1.3.9 2.2l-1 4.1c-.1.6 0 1.2.3 1.7l2.5 3.4c.5.7.5 1.7 0 2.4l-2.5 3.4c-.2.4-.3 1-.2 1.6l1 4.1c.2.9-.2 1.7-.9 2.2l-3.7 2.2c-.5.3-.9.8-.9 1.4l-.6 4.2c-.1.9-.8 1.6-1.7 1.7l-4.2.7c-.6.1-1.1.4-1.4.9l-2.2 3.7c-.5.8-1.3 1.1-2.2.9l-4.1-1c-.6-.1-1.2 0-1.7.3L46.9 94c-.7.5-1.7.5-2.4 0l-3.4-2.5c-.4-.3-1.1-.5-1.6-.3z"/><path fill="#fff" d="m45.8 47.9 3.7 12.2 12.3 3.8-12.3 3.8-3.7 12.2L42 67.7l-12.2-3.8L42 60.1l3.8-12.2zM79 88.4c0 .3-.2.5-.5.5s-.5-.2-.5-.5.2-.5.5-.5c.2 0 .5.2.5.5zm5.9-18.6c-.3 0-.5.2-.5.5s.2.5.5.5.5-.2.5-.5-.3-.5-.5-.5zm-9.1-27.5c-.3 0-.5.2-.5.5s.2.5.5.5.5-.2.5-.5-.2-.5-.5-.5zm15.4 35.1c-.3 0-.5.2-.5.5s.2.5.5.5.5-.2.5-.5-.2-.5-.5-.5zm5.1-16.2c-.3 0-.5.2-.5.5s.2.5.5.5.5-.2.5-.5-.3-.5-.5-.5zm4.4 12.4c-.3 0-.5.2-.5.5s.2.5.5.5.5-.2.5-.5-.2-.5-.5-.5zm-12 16.2c-.3 0-.5.2-.5.5s.2.5.5.5.5-.2.5-.5c0-.2-.2-.5-.5-.5zm-4.3-33c-.3 0-.5.2-.5.5s.2.5.5.5.5-.2.5-.5-.3-.5-.5-.5zm12.9-14.5c-.3 0-.5.2-.5.5s.2.5.5.5.5-.2.5-.5-.3-.5-.5-.5zm-14-3.9c-.3 0-.5.2-.5.5s.2.5.5.5.5-.2.5-.5-.2-.5-.5-.5zm13 22.8c-.3 0-.5.2-.5.5s.2.5.5.5.5-.2.5-.5-.3-.5-.5-.5z"/><path fill="#FFAE24" d="m21 31-1.41 6.59L13 39l6.59 1.41L21 47l1.41-6.59L29 39l-6.59-1.41L21 31z"/><path fill="#0052FF" d="M4 35a1 1 0 1 1 0-2 1 1 0 0 1 0 2z"/><path fill="#0052FF" fill-opacity=".5" d="M17 23a1 1 0 1 1 0-2 1 1 0 0 1 0 2z"/></g><defs><linearGradient id="b" x1="46.95" x2="120.32" y1="64.13" y2="64.13" gradientUnits="userSpaceOnUse"><stop stop-color="#0A0B0D"/><stop offset="1" stop-color="#1652F0"/></linearGradient><linearGradient id="c" x1="68.04" x2="120.32" y1="64.13" y2="64.13" gradientUnits="userSpaceOnUse"><stop stop-color="#0A0B0D"/><stop offset="1" stop-color="#1652F0"/></linearGradient><linearGradient id="d" x1="68.27" x2="120.32" y1="79.52" y2="79.52" gradientUnits="userSpaceOnUse"><stop stop-color="#0A0B0D"/><stop offset="1" stop-color="#1652F0"/></linearGradient><linearGradient id="e" x1="68.27" x2="120.32" y1="48.73" y2="48.73" gradientUnits="userSpaceOnUse"><stop stop-color="#0A0B0D"/><stop offset="1" stop-color="#1652F0"/></linearGradient><linearGradient id="f" x1="15.22" x2="76.3" y1="63.9" y2="63.9" gradientUnits="userSpaceOnUse"><stop stop-color="#1652F0"/><stop offset="1" stop-color="#1652F0"/></linearGradient><clipPath id="a"><path fill="#fff" d="M0 0h120v120H0z"/></clipPath></defs></svg>