<svg xmlns="http://www.w3.org/2000/svg" fill="none" viewBox="0 0 240 240"><path fill="url(#a)" d="M80 76H0v56h80V76z"/><path fill="#fff" fill-opacity=".75" d="M240 119.76h-1v1h1v-1zM228 95.76h-1v1h1v-1zM228 107.76h-1v1h1v-1zM228 119.76h-1v1h1v-1zM216 71.76h-1v1h1v-1zM216 83.76h-1v1h1v-1zM216 95.76h-1v1h1v-1zM216 107.76h-1v1h1v-1zM216 119.76h-1v1h1v-1zM204 47.76h-1v1h1v-1zM204 59.76h-1v1h1v-1zM204 71.76h-1v1h1v-1zM204 83.76h-1v1h1v-1zM204 95.76h-1v1h1v-1zM204 107.76h-1v1h1v-1zM204 119.76h-1v1h1v-1zM192 47.76h-1v1h1v-1zM192 59.76h-1v1h1v-1zM192 71.76h-1v1h1v-1zM192 83.76h-1v1h1v-1zM192 95.76h-1v1h1v-1zM192 107.76h-1v1h1v-1zM192 119.76h-1v1h1v-1zM180 47.76h-1v1h1v-1zM180 59.76h-1v1h1v-1zM180 71.76h-1v1h1v-1zM180 83.76h-1v1h1v-1zM180 95.76h-1v1h1v-1zM180 107.76h-1v1h1v-1zM180 119.76h-1v1h1v-1zM168 47.76h-1v1h1v-1zM168 59.76h-1v1h1v-1zM168 71.76h-1v1h1v-1zM168 83.76h-1v1h1v-1zM168 95.76h-1v1h1v-1zM168 107.76h-1v1h1v-1zM168 119.76h-1v1h1v-1zM156 47.76h-1v1h1v-1zM156 59.76h-1v1h1v-1zM156 71.76h-1v1h1v-1zM156 83.76h-1v1h1v-1zM156 95.76h-1v1h1v-1zM156 107.76h-1v1h1v-1zM156 119.76h-1v1h1v-1zM128 155h-1v1h1v-1zM128 167h-1v1h1v-1zM128 179h-1v1h1v-1zM116 155h-1v1h1v-1zM116 167h-1v1h1v-1zM116 179h-1v1h1v-1zM104 155h-1v1h1v-1zM104 167h-1v1h1v-1zM104 179h-1v1h1v-1zM104 191h-1v1h1v-1zM116 191h-1v1h1v-1zM92 155h-1v1h1v-1zM140 155h-1v1h1v-1zM140 167h-1v1h1v-1zM140 143h-1v1h1v-1zM152 155h-1v1h1v-1zM152 167h-1v1h1v-1zM152 143h-1v1h1v-1zM164 155h-1v1h1v-1zM164 167h-1v1h1v-1zM164 143h-1v1h1v-1zM176 155h-1v1h1v-1zM176 167h-1v1h1v-1zM176 143h-1v1h1v-1zM92 167h-1v1h1v-1zM92 179h-1v1h1v-1zM92 191h-1v1h1v-1zM80 155h-1v1h1v-1zM80 167h-1v1h1v-1zM80 179h-1v1h1v-1zM80 191h-1v1h1v-1zM80 203h-1v1h1v-1zM68 155h-1v1h1v-1zM68 167h-1v1h1v-1zM68 179h-1v1h1v-1zM68 191h-1v1h1v-1zM68 203h-1v1h1v-1zM56 155h-1v1h1v-1zM56 167h-1v1h1v-1zM56 179h-1v1h1v-1zM56 191h-1v1h1v-1zM56 203h-1v1h1v-1zM44 167h-1v1h1v-1zM44 179h-1v1h1v-1zM44 191h-1v1h1v-1zM44 203h-1v1h1v-1zM32 191h-1v1h1v-1zM32 203h-1v1h1v-1zM20 203h-1v1h1v-1zM20 191h-1v1h1v-1zM8 203H7v1h1v-1z" opacity=".5"/><path fill="#fff" d="M120 40c-50.81 0-92 41.19-92 92h184c0-50.81-41.19-92-92-92z"/><path fill="url(#b)" d="M120 40c-50.81 0-92 41.19-92 92h1c0-50.18 40.82-91 91-91s91 40.82 91 91h1c0-50.81-41.19-92-92-92z"/><path fill="url(#c)" d="M120 51.16c-44.65 0-80.84 36.19-80.84 80.84H120l57.16-57.16C162.53 60.21 142.32 51.16 120 51.16z"/><path fill="url(#d)" d="M120 48c-46.39 0-84 37.61-84 84h8c0-41.97 34.03-76 76-76s76 34.03 76 76h8c0-46.39-37.61-84-84-84z"/><path fill="url(#e)" d="M183.89 68.11 120.6 131.4h89.76c-.18-24.71-10.25-47.07-26.47-63.29z"/><path fill="#0A0B0D" d="M212 132H28v6h184v-6z"/><path fill="url(#f)" d="M200 176v-44H24v44h176z"/><path fill="url(#g)" d="M148 196v-32H72v32h76z"/><path fill="#fff" d="M148 196c8.837 0 16-7.163 16-16 0-8.836-7.163-16-16-16s-16 7.164-16 16c0 8.837 7.163 16 16 16z"/><path fill="url(#h)" d="M158.61 169.395a14.923 14.923 0 0 1 4.398 10.607c0 8.273-6.724 14.997-14.997 14.997a14.905 14.905 0 0 1-10.607-4.398 14.921 14.921 0 0 1-4.398-10.606c0-8.274 6.724-14.998 14.998-14.998a14.925 14.925 0 0 1 10.606 4.398zm.707-.707a15.922 15.922 0 0 0-11.313-4.681c-8.839 0-16.002 7.163-16.002 16.002 0 4.412 1.789 8.421 4.681 11.313a15.917 15.917 0 0 0 11.313 4.681c8.839 0 16.002-7.163 16.002-16.001a15.922 15.922 0 0 0-4.681-11.314z"/><path fill="url(#i)" d="M153.5 170.474c5.257 3.035 7.061 9.769 4.026 15.026s-9.769 7.061-15.026 4.026-7.061-9.769-4.026-15.026 9.769-7.061 15.026-4.026zm.5-.866c-5.742-3.315-13.077-1.35-16.392 4.392-3.315 5.742-1.35 13.077 4.392 16.392 5.742 3.315 13.077 1.35 16.392-4.392 3.315-5.742 1.35-13.077-4.392-16.392z"/><path fill="#fff" stroke="url(#j)" d="M135.5 132c0 8.56-6.94 15.5-15.5 15.5-8.56 0-15.5-6.94-15.5-15.5 0-8.56 6.94-15.5 15.5-15.5 8.56 0 15.5 6.94 15.5 15.5z"/><path fill="#1652F0" d="M165.25 86.75s-45.25 28.28-53.74 36.77c-4.69 4.69-4.69 12.28 0 16.97 4.69 4.69 12.28 4.69 16.97 0 8.49-8.49 36.77-53.74 36.77-53.74z"/><path fill="url(#k)" d="M111.51 123.51c-4.69 4.69-4.69 12.28 0 16.97l53.74-53.74c0 .01-45.25 28.29-53.74 36.77z"/><path fill="#FFD066" d="M210 184c16.569 0 30-13.431 30-30 0-16.569-13.431-30-30-30-16.569 0-30 13.431-30 30 0 16.569 13.431 30 30 30z"/><path fill="url(#l)" d="m201.23 182.69 37.86-36.05c-2.15-8.51-7.93-15.57-15.6-19.43l-40.91 38.96c3.5 7.88 10.3 13.98 18.65 16.52z" opacity=".3"/><path fill="url(#m)" d="M180.03 155.33c.09 2.11.4 4.17.91 6.15l37.95-36.14a29.83 29.83 0 0 0-6.1-1.21l-32.76 31.2z" opacity=".3"/><path fill="url(#n)" d="M210 124.5c16.27 0 29.5 13.23 29.5 29.5s-13.23 29.5-29.5 29.5-29.5-13.23-29.5-29.5 13.23-29.5 29.5-29.5zm0-.5c-16.57 0-30 13.43-30 30s13.43 30 30 30 30-13.43 30-30-13.43-30-30-30z"/><path fill="#fff" d="M210 130c13.25 0 24 10.75 24 24s-10.75 24-24 24-24-10.75-24-24 10.75-24 24-24zm0-1c-13.79 0-25 11.21-25 25s11.21 25 25 25 25-11.21 25-25-11.21-25-25-25z"/><defs><linearGradient id="a" x1="110" x2="0" y1="132" y2="132" gradientUnits="userSpaceOnUse"><stop stop-color="#0A0B0D" stop-opacity="0"/><stop offset=".19" stop-color="#1652F0"/><stop offset=".55" stop-color="#154BD9" stop-opacity=".93"/><stop offset=".96" stop-color="#0A0B0D" stop-opacity=".3"/></linearGradient><linearGradient id="b" x1="120" x2="120" y1="132" y2="40" gradientUnits="userSpaceOnUse"><stop stop-color="#99D6FF" stop-opacity=".3"/><stop offset="1" stop-color="#fff" stop-opacity="0"/></linearGradient><linearGradient id="c" x1="66.86" x2="154.96" y1="127.98" y2="39.88" gradientUnits="userSpaceOnUse"><stop stop-color="#fff"/><stop offset=".54" stop-color="#C8E7FE"/></linearGradient><linearGradient id="d" x1="97.25" x2="168.63" y1="137.35" y2="65.97" gradientUnits="userSpaceOnUse"><stop stop-color="#56B4FC" stop-opacity=".6"/><stop offset=".94" stop-color="#1652F0"/></linearGradient><linearGradient id="e" x1="151.46" x2="189.19" y1="98.98" y2="136.71" gradientUnits="userSpaceOnUse"><stop stop-color="#fff" stop-opacity=".69"/><stop offset="1" stop-color="#fff"/></linearGradient><linearGradient id="f" x1="223.83" x2="24" y1="176" y2="176" gradientUnits="userSpaceOnUse"><stop stop-color="#0A0B0D" stop-opacity="0"/><stop offset=".18" stop-color="#1652F0"/><stop offset=".96" stop-color="#0A0B0D" stop-opacity=".3"/></linearGradient><linearGradient id="g" x1="153" x2="72" y1="196" y2="196" gradientUnits="userSpaceOnUse"><stop offset=".1" stop-color="#154BD9" stop-opacity=".93"/><stop offset=".96" stop-color="#0A0B0D" stop-opacity=".3"/></linearGradient><linearGradient id="h" x1="132" x2="164" y1="180" y2="180" gradientUnits="userSpaceOnUse"><stop stop-color="#D4EEFF" stop-opacity="0"/><stop offset="1" stop-color="#D4EEFF"/></linearGradient><linearGradient id="i" x1="137.61" x2="158.39" y1="174" y2="186" gradientUnits="userSpaceOnUse"><stop stop-color="#D4EEFF" stop-opacity="0"/><stop offset="1" stop-color="#D4EEFF"/></linearGradient><linearGradient id="j" x1="120" x2="120" y1="116" y2="148" gradientUnits="userSpaceOnUse"><stop stop-color="#BFE9FF"/><stop offset="1" stop-color="#D4EEFF"/></linearGradient><linearGradient id="k" x1="108" x2="165.25" y1="113.61" y2="113.61" gradientUnits="userSpaceOnUse"><stop offset=".06" stop-color="#1652F0"/><stop offset="1" stop-color="#56B4FC"/></linearGradient><linearGradient id="l" x1="190.7" x2="232.17" y1="176.54" y2="135.07" gradientUnits="userSpaceOnUse"><stop stop-color="#fff" stop-opacity="0"/><stop offset=".5" stop-color="#fff"/><stop offset="1" stop-color="#fff" stop-opacity="0"/></linearGradient><linearGradient id="m" x1="176.98" x2="218.45" y1="162.82" y2="121.35" gradientUnits="userSpaceOnUse"><stop stop-color="#fff" stop-opacity="0"/><stop offset=".5" stop-color="#fff"/><stop offset="1" stop-color="#fff" stop-opacity="0"/></linearGradient><linearGradient id="n" x1="189.99" x2="230.01" y1="176.35" y2="131.65" gradientUnits="userSpaceOnUse"><stop stop-color="#fff" stop-opacity=".2"/><stop offset=".5" stop-color="#fff"/><stop offset="1" stop-color="#fff" stop-opacity="0"/></linearGradient></defs></svg>