<svg xmlns="http://www.w3.org/2000/svg" fill="none" viewBox="0 0 240 240"><path fill="#ECD069" d="M0 120 120 0l120 120-120 120L0 120z"/><path fill="#0A0B0D" d="M120 224 16 120 120 16v208z"/><path fill="#464B55" d="M240 120H0v120h240V120z"/><path fill="#588AF5" d="m0 120 120 120 120-120H0z"/><path fill="#588AF5" d="m0 120 120 120 120-120H0z"/><path fill="#0A0B0D" d="m120 208 88-88h-88v88zm0-88h88l-88-88v88z"/><path fill="#fff" d="m120 168-48-48h48v48z"/><path fill="#44C28D" d="M120 168c26.51 0 48-21.49 48-48s-21.49-48-48-48-48 21.49-48 48 21.49 48 48 48z"/><path fill="#0A0B0D" d="m120 168-48-48c0 26.51 21.49 48 48 48z"/><path fill="#0A0B0D" fill-rule="evenodd" d="m113.46 135.556 31.293-31.293 1.414 1.414-32.707 32.708-16.707-16.708 1.414-1.414 15.293 15.293z" clip-rule="evenodd"/></svg>