<svg xmlns="http://www.w3.org/2000/svg" fill="none" viewBox="0 0 240 240"><path fill="#fff" fill-opacity=".75" d="M160.227 220.003v-1h-1v1h1zM172.227 208.003v-1h-1v1h1zM160.227 208.003v-1h-1v1h1zM148.227 208.003v-1h-1v1h1zM208.227 196.003v-1h-1v1h1zM196.227 196.003v-1h-1v1h1zM184.227 196.003v-1h-1v1h1zM184.227 208.003v-1h-1v1h1zM172.227 196.003v-1h-1v1h1zM160.227 196.003v-1h-1v1h1zM148.227 196.003v-1h-1v1h1zM136.227 196.003v-1h-1v1h1zM208.227 184.003v-1h-1v1h1zM196.227 184.003v-1h-1v1h1zM184.227 184.003v-1h-1v1h1zM172.227 184.003v-1h-1v1h1zM160.227 184.003v-1h-1v1h1zM148.227 184.003v-1h-1v1h1zM136.227 184.003v-1h-1v1h1zM208.227 172.003v-1h-1v1h1zM196.227 172.003v-1h-1v1h1zM184.227 172.003v-1h-1v1h1zM172.227 172.003v-1h-1v1h1zM160.227 172.003v-1h-1v1h1zM148.227 172.003v-1h-1v1h1zM136.227 172.003v-1h-1v1h1zM208.227 160.003v-1h-1v1h1zM196.227 160.003v-1h-1v1h1zM184.227 160.003v-1h-1v1h1zM172.227 160.003v-1h-1v1h1zM160.227 160.003v-1h-1v1h1zM148.227 160.003v-1h-1v1h1zM136.227 160.003v-1h-1v1h1zM208.227 148.003v-1h-1v1h1zM196.227 148.003v-1h-1v1h1zM184.227 148.003v-1h-1v1h1zM172.227 148.003v-1h-1v1h1zM160.227 148.003v-1h-1v1h1zM148.227 148.003v-1h-1v1h1zM136.227 148.003v-1h-1v1h1zM208.227 136.003v-1h-1v1h1zM196.227 136.003v-1h-1v1h1zM184.227 136.003v-1h-1v1h1zM172.227 136.003v-1h-1v1h1zM160.227 136.003v-1h-1v1h1zM148.227 136.003v-1h-1v1h1zM136.227 136.003v-1h-1v1h1zM208.227 94.003v-1h-1v1h1zM196.227 94.003v-1h-1v1h1zM184.227 94.003v-1h-1v1h1zM172.227 94.003v-1h-1v1h1zM160.227 94.003v-1h-1v1h1zM148.227 94.003v-1h-1v1h1zM136.227 94.003v-1h-1v1h1zM124.227 94.003v-1h-1v1h1zM208.227 82.003v-1h-1v1h1zM196.227 82.003v-1h-1v1h1zM184.227 82.003v-1h-1v1h1zM172.227 82.003v-1h-1v1h1zM160.227 82.003v-1h-1v1h1zM148.227 82.003v-1h-1v1h1zM136.227 82.003v-1h-1v1h1zM124.227 82.003v-1h-1v1h1zM208.227 70.003v-1h-1v1h1zM196.227 70.003v-1h-1v1h1zM184.227 70.003v-1h-1v1h1zM172.227 70.003v-1h-1v1h1zM160.227 70.003v-1h-1v1h1zM148.227 70.003v-1h-1v1h1zM136.227 70.003v-1h-1v1h1zM124.227 70.003v-1h-1v1h1zM208.227 58.003v-1h-1v1h1zM196.227 58.003v-1h-1v1h1zM184.227 58.003v-1h-1v1h1zM172.227 58.003v-1h-1v1h1zM160.227 58.003v-1h-1v1h1zM148.227 58.003v-1h-1v1h1zM136.227 58.003v-1h-1v1h1zM124.227 58.003v-1h-1v1h1zM208.227 46.003v-1h-1v1h1zM196.227 46.003v-1h-1v1h1zM184.227 46.003v-1h-1v1h1zM172.227 46.003v-1h-1v1h1zM160.227 46.003v-1h-1v1h1zM148.227 46.003v-1h-1v1h1zM136.227 46.003v-1h-1v1h1zM124.227 46.003v-1h-1v1h1zM208.227 34.003v-1h-1v1h1zM196.227 34.003v-1h-1v1h1zM184.227 34.003v-1h-1v1h1zM172.227 34.003v-1h-1v1h1zM160.227 34.003v-1h-1v1h1zM148.227 34.003v-1h-1v1h1zM136.227 34.003v-1h-1v1h1zM124.227 34.003v-1h-1v1h1zM196.227 22.003v-1h-1v1h1zM184.227 22.003v-1h-1v1h1zM172.227 22.003v-1h-1v1h1zM160.227 22.003v-1h-1v1h1zM148.227 22.003v-1h-1v1h1zM136.227 22.003v-1h-1v1h1zM124.227 22.003v-1h-1v1h1zM184.227 10.003v-1h-1v1h1zM160.227 10.003v-1h-1v1h1zM148.227 10.003v-1h-1v1h1zM136.227 10.003v-1h-1v1h1z" opacity=".5"/><path fill="url(#a)" d="M188.21 116.11H51.79V240h136.42V116.11z"/><path fill="url(#b)" d="M51.79 0h136.42v52.06H51.79V0z"/><path fill="#fff" d="M215.88 116.11H24.12c-4.48 0-8.12-3.53-8.12-7.88V59.99c0-4.35 3.63-7.88 8.12-7.88h191.77c4.48 0 8.12 3.53 8.12 7.88v48.25c-.01 4.34-3.64 7.87-8.13 7.87z"/><path fill="url(#c)" d="M215.88 53.11c3.92 0 7.12 3.08 7.12 6.88v48.25c0 3.79-3.19 6.88-7.12 6.88H24.12c-3.92 0-7.12-3.08-7.12-6.88V59.99c0-3.79 3.19-6.88 7.12-6.88h191.76zm0-1H24.12c-4.48 0-8.12 3.53-8.12 7.88v48.25c0 4.35 3.63 7.88 8.12 7.88h191.77c4.48 0 8.12-3.53 8.12-7.88V59.99c-.01-4.35-3.64-7.88-8.13-7.88z"/><path fill="#1652F0" d="M51 105.11c11.598 0 21-9.402 21-21s-9.402-21-21-21-21 9.402-21 21 9.402 21 21 21z"/><path fill="url(#d)" d="M51 64.11c11.03 0 20 8.97 20 20s-8.97 20-20 20-20-8.97-20-20 8.97-20 20-20zm0-1c-11.6 0-21 9.4-21 21s9.4 21 21 21 21-9.4 21-21-9.4-21-21-21z" opacity=".3"/><path fill="#fff" d="m56.73 79.38-7.64 7.64-3.82-3.82-1.91 1.91 5.73 5.73 9.55-9.55-1.91-1.91z"/><path fill="url(#e)" d="M153.16 80.08H91.11c-1.66 0-3-1.34-3-3s1.34-3 3-3h62.05c1.66 0 3 1.34 3 3s-1.34 3-3 3z"/><path fill="url(#f)" d="M201.2 94.09H91.11c-1.66 0-3-1.34-3-3s1.34-3 3-3H201.2c1.66 0 3 1.34 3 3s-1.35 3-3 3z"/><path fill="#fff" d="M215.88 192.12H24.12c-4.48 0-8.12-3.53-8.12-7.88V136c0-4.35 3.63-7.88 8.12-7.88h191.77c4.48 0 8.12 3.53 8.12 7.88v48.25c-.01 4.34-3.64 7.87-8.13 7.87z"/><path fill="url(#g)" d="M215.88 129.12c3.92 0 7.12 3.08 7.12 6.88v48.25c0 3.79-3.19 6.88-7.12 6.88H24.12c-3.92 0-7.12-3.08-7.12-6.88V136c0-3.79 3.19-6.88 7.12-6.88h191.76zm0-1H24.12c-4.48 0-8.12 3.53-8.12 7.88v48.25c0 4.35 3.63 7.88 8.12 7.88h191.77c4.48 0 8.12-3.53 8.12-7.88V136c-.01-4.35-3.64-7.88-8.13-7.88z"/><path fill="#3ACC8A" d="M51 181.04c11.598 0 21-9.402 21-21s-9.402-21-21-21-21 9.402-21 21 9.402 21 21 21z"/><path fill="url(#h)" d="M51 140.04c11.03 0 20 8.97 20 20s-8.97 20-20 20-20-8.97-20-20 8.97-20 20-20zm0-1c-11.6 0-21 9.4-21 21s9.4 21 21 21 21-9.4 21-21-9.4-21-21-21z" opacity=".3"/><path fill="#fff" d="m56.73 155.31-7.64 7.63-3.82-3.81-1.91 1.91 5.73 5.72 9.55-9.54-1.91-1.91z"/><path fill="url(#i)" d="M153.16 157.14H91.11c-1.66 0-3-1.34-3-3v-1c0-1.66 1.34-3 3-3h62.05c1.66 0 3 1.34 3 3v1c0 1.66-1.34 3-3 3z"/><path fill="url(#j)" d="M201.2 170.29H91.11c-1.66 0-3-1.34-3-3s1.34-3 3-3H201.2c1.66 0 3 1.34 3 3s-1.35 3-3 3z"/><defs><linearGradient id="a" x1="120" x2="120" y1="115.94" y2="240.9" gradientUnits="userSpaceOnUse"><stop stop-color="#1652F0" stop-opacity=".56"/><stop offset=".6" stop-color="#1341B9" stop-opacity=".69"/><stop offset=".96" stop-color="#0A0B0D" stop-opacity=".3"/></linearGradient><linearGradient id="b" x1="120" x2="120" y1="-.07" y2="52.44" gradientUnits="userSpaceOnUse"><stop stop-color="#0A0B0D" stop-opacity="0"/><stop offset="1" stop-color="#154BD9" stop-opacity=".93"/></linearGradient><linearGradient id="c" x1="120" x2="120" y1="116.11" y2="52.11" gradientUnits="userSpaceOnUse"><stop stop-color="#fff" stop-opacity="0"/><stop offset="1" stop-color="#99D6FF" stop-opacity=".3"/></linearGradient><linearGradient id="d" x1="37" x2="65" y1="99.76" y2="68.46" gradientUnits="userSpaceOnUse"><stop stop-color="#fff" stop-opacity=".2"/><stop offset=".5" stop-color="#fff"/><stop offset="1" stop-color="#fff" stop-opacity="0"/></linearGradient><linearGradient id="e" x1="106.23" x2="138.03" y1="94.74" y2="59.42" gradientUnits="userSpaceOnUse"><stop offset=".18" stop-color="#99D6FF"/><stop offset="1" stop-color="#D4EEFF"/></linearGradient><linearGradient id="f" x1="119.5" x2="172.81" y1="120.69" y2="61.49" gradientUnits="userSpaceOnUse"><stop offset=".18" stop-color="#D4EEFF"/><stop offset="1" stop-color="#fff"/></linearGradient><linearGradient id="g" x1="120" x2="120" y1="192.12" y2="128.12" gradientUnits="userSpaceOnUse"><stop stop-color="#fff" stop-opacity="0"/><stop offset="1" stop-color="#99D6FF" stop-opacity=".3"/></linearGradient><linearGradient id="h" x1="37" x2="65" y1="175.68" y2="144.39" gradientUnits="userSpaceOnUse"><stop stop-color="#fff" stop-opacity=".2"/><stop offset=".5" stop-color="#fff"/><stop offset="1" stop-color="#fff" stop-opacity="0"/></linearGradient><linearGradient id="i" x1="105.98" x2="138.28" y1="171.57" y2="135.71" gradientUnits="userSpaceOnUse"><stop offset=".18" stop-color="#99D6FF"/><stop offset="1" stop-color="#D4EEFF"/></linearGradient><linearGradient id="j" x1="119.5" x2="172.81" y1="196.89" y2="137.69" gradientUnits="userSpaceOnUse"><stop offset=".18" stop-color="#D4EEFF"/><stop offset="1" stop-color="#fff"/></linearGradient></defs></svg>