<svg width="64" height="64" viewBox="0 0 64 64" fill="none" xmlns="http://www.w3.org/2000/svg">
<path d="M24 0H40L32 8L24 0Z" fill="#1652F0"/>
<path d="M32 64C45.2548 64 56 53.2548 56 40C56 26.7452 45.2548 16 32 16C18.7452 16 8 26.7452 8 40C8 53.2548 18.7452 64 32 64Z" fill="#BFE9FF"/>
<path d="M35.4001 12.2C34.3001 12.1 33.2001 12 32.0001 12C30.8001 12 29.7001 12.1 28.6001 12.2L32.0001 38.2L35.4001 12.2Z" fill="#56B4FC"/>
<path d="M29.1001 16.2L32.0001 38.2L34.9001 16.2C33.9001 16.1 33.0001 16 32.0001 16C31.0001 16 30.1001 16.1 29.1001 16.2Z" fill="#1652F0"/>
</svg>
