<svg xmlns="http://www.w3.org/2000/svg" fill="none" viewBox="0 0 48 48"><path fill="#0052FF" d="M8 2a2 2 0 0 1 2-2h28a2 2 0 0 1 2 2v44a2 2 0 0 1-2 2H10a2 2 0 0 1-2-2V2z"/><path fill="#CED2DB" d="M48 8H0v32h48V8z"/><path fill="#0A0B0D" d="M40 8H8v32h32V8z"/><path fill="#fff" d="M15 25.5a1.5 1.5 0 1 0 0-3 1.5 1.5 0 0 0 0 3zm4.5 0a1.5 1.5 0 1 0 0-3 1.5 1.5 0 0 0 0 3zm4.5 0a1.5 1.5 0 1 0 0-3 1.5 1.5 0 0 0 0 3zm4.5 0a1.5 1.5 0 1 0 0-3 1.5 1.5 0 0 0 0 3zm4.5 0a1.5 1.5 0 1 0 0-3 1.5 1.5 0 0 0 0 3z"/><path fill="#0A0B0D" d="M21 44a1 1 0 0 1 1-1h4a1 1 0 1 1 0 2h-4a1 1 0 0 1-1-1zm4-40a1 1 0 1 1-2 0 1 1 0 0 1 2 0z"/></svg>