<svg xmlns="http://www.w3.org/2000/svg" fill="none" viewBox="0 0 240 240"><path fill="#5DE2F8" d="M240 136c0 49.706-53.726 90-120 90S0 185.706 0 136s53.726-90 120-90 120 40.294 120 90Z"/><path fill="#0052FF" d="M100 120h40v75c0 11.046-8.954 20-20 20s-20-8.954-20-20v-75Z"/><path fill="#5DE2F8" d="M5 161.791c-3.253-8.17-5-16.827-5-25.791 0-2.497.136-4.971.402-7.417A9.992 9.992 0 0 1 5 137v24.791Z"/><path fill="#CED2DB" d="M196 79c0 39.765-34.026 72-76 72s-76-32.235-76-72c0-39.764 34.026-72 76-72s76 32.236 76 72Z"/><path fill="#0052FF" d="M5 161.791c-3.253-8.17-5-16.827-5-25.791 0-31.962 22.214-60.032 55.694-76H60v60h6v-4h98v-15h26V62.89c30.281 16.338 50 42.997 50 73.11 0 19.815-8.538 38.134-23.005 53.001C216.729 203.405 204.968 215 190.5 215c-14.636 0-26.5-11.864-26.5-26.5V185h-24v10c0 11.046-8.954 20-20 20s-20-8.954-20-20v-10H84v34c0 11.598-9.402 21-21 21s-21-9.402-21-21v-14.604c-9.358-6.009-17.469-13.079-24-20.962v7.066a6.5 6.5 0 1 1-13 0v-28.709ZM63 0a57.738 57.738 0 0 0 23 23 57.738 57.738 0 0 0-23 23 57.738 57.738 0 0 0-23-23A57.738 57.738 0 0 0 63 0Z"/><path fill="#0A0B0D" d="M78.906 18.422A57.735 57.735 0 0 0 86 23a57.738 57.738 0 0 0-23 23 57.81 57.81 0 0 0-5.383-8.136c5.684-7.721 12.924-14.338 21.289-19.442Z"/><path fill="#FFD200" d="M32 34c2.77 5.07 6.93 9.23 12 12a30.124 30.124 0 0 0-12 12 30.124 30.124 0 0 0-12-12c5.07-2.77 9.23-6.93 12-12Z"/><path fill="#0A0B0D" d="M120 151c41.974 0 76-32.235 76-72 0-4.598-.455-9.096-1.325-13.455C174.182 53.31 148.229 46 120 46c-28.23 0-54.181 7.31-74.675 19.545A68.694 68.694 0 0 0 44 79c0 39.765 34.026 72 76 72Z"/><path fill="#0A0B0D" d="M184 105c0 24.853-28.654 45-64 45-35.346 0-64-20.147-64-45s28.654-45 64-45c35.346 0 64 20.147 64 45Z"/><path fill="#00D17F" d="M67.913 131.432c11.88-21.188 29.927-38.177 50.137-38.177 20.924 0 39.532 18.213 51.374 40.442C156.136 144.484 138.871 151 120 151c-20.159 0-38.484-7.435-52.087-19.568Z"/><path fill="#0A0B0D" d="M152.197 85.78c0 20.401-14.76 46.398-32.968 46.398-18.207 0-32.967-25.997-32.967-46.397s14.76-36.938 32.967-36.938c18.208 0 32.968 16.538 32.968 36.938Z"/><path fill="#00D17F" d="M157.107 71.654c0 20.796-16.904 47.297-37.756 47.297S81.595 92.45 81.595 71.654C81.595 50.858 98.499 34 119.35 34s37.756 16.858 37.756 37.654Z"/><path fill="#0A0B0D" fill-rule="evenodd" d="M126.93 106.143h-15.56v-3h15.56v3Z" clip-rule="evenodd"/><path fill="#0A0B0D" d="M95.689 92.176c-5.744-5.915-10.888-18.613-7.026-22.363 3.861-3.75 14.341-2.622 20.085 3.293 5.744 5.916 8.195 19.242 4.333 22.992-3.861 3.75-11.648 1.994-17.392-3.922Zm46.99 0c5.744-5.915 10.888-18.613 7.027-22.363-3.862-3.75-14.341-2.622-20.086 3.293-5.744 5.916-8.195 19.242-4.333 22.992 3.861 3.75 11.648 1.994 17.392-3.922Z"/><path fill="#5DE2F8" d="M84 168a8 8 0 0 1 16 0v23a8 8 0 0 1-16 0v-23Zm56 12c0-6.627 5.373-12 12-12s12 5.373 12 12v10c0 6.627-5.373 12-12 12s-12-5.373-12-12v-10Z"/><path fill="#fff" d="M64.928 209.108 58 199.309 61.267 197l6.927 9.799-3.266 2.309Z"/><path fill="#0A0B0D" d="M221.133 115.558 216 104.711l3.615-1.711 5.133 10.847-3.615 1.711ZM183 185.957l6.698-9.957 3.319 2.233-6.698 9.956-3.319-2.232ZM32.433 99.497l-10.491 5.826L20 101.826 30.49 96l1.943 3.497Z"/><path fill="#fff" d="m46.592 132 5.28 10.776-3.591 1.76L43 133.76l3.592-1.76Z"/><path fill="#0A0B0D" d="m123.564 174.706-10.094 6.488-2.163-3.364 10.095-6.489 2.162 3.365Z"/><path fill="#fff" d="m198.258 138.365-10.095 6.488-2.163-3.365L196.095 135l2.163 3.365Z"/><path fill="#5DE2F8" d="M41.925 204.348C32.598 198.35 24.514 191.296 18 183.434V163c0-6.627 5.373-12 12-12s12 5.373 12 12v40c0 .456-.025.906-.075 1.348Zm175.13-15.408A8.112 8.112 0 0 1 217 188v-39a8 8 0 0 1 16 0v17.362c-3.884 8.131-9.285 15.721-15.945 22.578Z"/></svg>