<svg xmlns="http://www.w3.org/2000/svg" fill="none" viewBox="0 0 48 48"><path fill="#CED2DB" d="m14.095 29.165-9.72 9.733c-.5.5-.5 1.279 0 1.78l2.944 2.947c.5.5 1.277.5 1.777 0l9.72-9.733a15.95 15.95 0 0 1-4.72-4.727Z"/><path fill="#0052FF" d="M39.091 8.922c-6.554-6.563-17.164-6.563-23.718 0-6.61 6.562-6.61 17.184-.055 23.747 6.554 6.562 17.163 6.562 23.718 0 6.61-6.563 6.61-17.185.055-23.747Zm-11.887 23.08c-6.165 0-11.164-5.006-11.164-11.179S21.039 9.645 27.204 9.645c6.166 0 11.165 5.005 11.165 11.178 0 6.173-4.999 11.178-11.165 11.178Z"/><path fill="#0A0B0D" d="m27.204 13.204 1.778 5.784 5.832 1.78-5.832 1.835-1.777 5.784-1.778-5.784-5.832-1.836 5.832-1.78 1.777-5.783ZM17.261 25.94l-4.054 4.115c.61.945 1.333 1.78 2.11 2.614a15.538 15.538 0 0 0 2.61 2.113l4.056-4.06a11.205 11.205 0 0 1-4.722-4.783Z"/></svg>