<svg xmlns="http://www.w3.org/2000/svg" fill="none" viewBox="0 0 48 48"><path fill="#0A0B0D" d="M42.889 14H5.11C4.5 14 4 14.5 4 15.111V32.89C4 33.5 4.5 34 5.111 34H42.89c.61 0 1.11-.5 1.11-1.111V15.11c0-.61-.5-1.11-1.111-1.11Z"/><path fill="#0052FF" d="M38.445 14H9.555c0 1.222-1 2.222-2.221 2.222v15.556c1.222 0 2.222 1 2.222 2.222h28.889c0-1.222 1-2.222 2.222-2.222V16.222c-1.222 0-2.222-1-2.222-2.222Z"/><path fill="#fff" d="M24.833 18.444h-1.666v11.112h1.666V18.444Z"/><path fill="#fff" d="M29.555 23.167h-11.11v1.666h11.11v-1.666Z"/><path fill="#CED2DB" d="M9.556 42.889c0 .611.5 1.111 1.11 1.111h26.667c.612 0 1.112-.5 1.112-1.111v-6.667H9.555v6.667ZM37.333 4H10.667c-.611 0-1.111.5-1.111 1.111v6.667h28.889V5.11c0-.611-.5-1.111-1.112-1.111Z"/></svg>