<svg xmlns="http://www.w3.org/2000/svg" fill="none" viewBox="0 0 240 240"><path fill="#5DE2F8" d="M32 64h176v120H32V64Z"/><path fill="#0052FF" d="M32 96h176v88H32V96Z"/><path fill="#CED2DB" d="M32 184h176v24H32v-24ZM0 96h32v112H0V96Zm208 0h32v112h-32V96Z"/><path fill="#fff" d="M164 124c0 24.301-19.699 44-44 44-24.3 0-44-19.699-44-44 0-24.3 19.7-44 44-44 24.301 0 44 19.7 44 44Z"/><path fill="#0A0B0D" d="M152 124c0 17.673-14.327 32-32 32-17.673 0-32-14.327-32-32 0-17.673 14.327-32 32-32 17.673 0 32 14.327 32 32Z"/><path fill="#5DE2F8" d="M80 48h80l8 16H72l8-16Z"/><path fill="#0A0B0D" fill-rule="evenodd" d="M39 55h26v9h-2v-7H41v7h-2v-9Z" clip-rule="evenodd"/><path fill="#fff" d="M168 72h32v16h-32V72Z"/><path fill="#0A0B0D" fill-rule="evenodd" d="M55 184V96h2v88h-2Zm128 0V96h2v88h-2Zm6-152v24h-2V32h2Zm20.389 7.958-8.5 16.5-1.778-.916 8.5-16.5 1.778.916Zm-42.278 0 8.5 16.5 1.778-.916-8.5-16.5-1.778.916ZM152 65H88.5v-2H152v2Z" clip-rule="evenodd"/></svg>