<svg xmlns="http://www.w3.org/2000/svg" fill="none" viewBox="0 0 240 240"><path fill="#CED2DB" d="M160 222c0 5.523-4.477 10-10 10H0v-80h160v70z"/><path fill="#CED2DB" d="M160 222c0 5.523-4.477 10-10 10H0v-80h160v70z"/><path fill="#0A0B0D" fill-rule="evenodd" d="M128 47v1h-1a1 1 0 0 1 1-1zm0 1.962h-1V48h1v-1h1.02v2h-1.019l-.001-.038zm5.169.038v-2h2.083v2h-2.083zm6.228 0v-2h2.079v2h-2.079zm6.232 0v-2h2.074v2h-2.074zm6.22 0v-2h2.074v2h-2.074zm6.222 0v-2h2.075v2h-2.075zm6.225 0v-2h2.075v2h-2.075zm6.223 0v-2h2.075v2h-2.075zm6.226 0v-2h2.076v2h-2.076zm6.226 0v-2H184a1 1 0 0 1 0 2h-1.029zM129 54.854h-2v-1.96h2v1.96zm0 5.904h-2v-1.986h2v1.986zm0 5.907h-2v-1.992h2v1.992zm0 5.873h-2v-1.95h2v1.95zm0 5.908h-2V76.47h2v1.975zm0 5.888h-2V82.38h2v1.955zm0 5.909h-2v-1.977h2v1.977zm0 5.89h-2v-1.964h2v1.964zm0 5.896h-2v-1.962h2v1.962zm0 5.899h-2v-1.967h2v1.967zm0 5.897h-2v-1.966h2v1.966zm0 5.898h-2v-1.968h2v1.968zm0 5.897h-2v-1.967h2v1.967zm0 5.891h-2v-1.958h2v1.958zm0 5.904h-2v-1.969h2v1.969zm0 5.899h-2v-1.971h2v1.971zm0 5.885h-2v-1.952h2v1.952zm0 5.913h-2v-1.981h2v1.981zm0 4.888a1 1 0 0 1-2 0v-.96h2v.96zm-9-137v1h1a1 1 0 0 0-1-1zm-.941 1v-1H120v1h1v.968h-1V25h-.941v-.032H119V24h.059zm-3.812 1v-2h-1.904v2h1.904zm-5.716 0v-2h-1.908v2h1.908zm-5.717 0v-2h-1.905v2h1.905zm-5.718 0v-2h-1.905v2h1.905zm-5.716 0v-2h-1.905v2h1.906zm-5.716 0v-2h-1.903v2h1.903zm-5.717 0v-2H80a1 1 0 1 0 0 2h.947zM119 30.86h2v-1.984h-2v1.983zm0 5.914h2V34.8h-2v1.973zm0 5.95h2v-2.01h-2v2.01zm0 5.88h2v-1.939h-2v1.94zm0 5.927h2v-1.98h-2v1.98zm0 5.928h2v-1.991h-2v1.991zm0 5.902h2v-1.967h-2v1.967zm0 5.912h2v-1.955h-2v1.955zm0 5.915h2v-1.963h-2v1.963zm0 5.917h2v-1.968h-2v1.968zm0 5.917h2v-1.97h-2v1.97zm0 5.916h2v-1.971h-2v1.971zm0 5.916h2v-1.972h-2v1.972zm0 5.915h2v-1.97h-2v1.97zm0 5.915h2v-1.969h-2v1.969zm0 5.914h2v-1.967h-2v1.967zm0 5.911h2v-1.962h-2v1.962zm0 5.914h2v-1.961h-2v1.961zm0 5.922h2v-1.971h-2v1.971zm0 5.923h2v-1.988h-2v1.988zm0 5.918h2v-1.984h-2v1.984zm0 5.902h2v-1.957h-2v1.957zm0 4.912a1 1 0 0 0 2 0v-.961h-2V160zm-7-57v1h1a1 1 0 0 0-1-1zm-.938 1H111v1.029h2V104h-1v-1h-.938v1zm-3.812 1v-2h-1.908v2h1.908zm-5.725 0v-2h-1.902v2h1.902zm-5.712 0v-2h-1.906v2h1.906zm-5.718 0v-2h-1.904v2h1.904zm-5.718 0v-2H82.47v2h1.907zm-5.71 0v-2H76.75v2h1.916zm-5.722 0v-2H72a1 1 0 0 0 0 2h.945zM111 111.243h2v-2.069h-2v2.069zm0 6.233h2v-2.071h-2v2.071zm0 6.224h2v-2.076h-2v2.076zm0 6.225h2v-2.074h-2v2.074zm0 6.223h2v-2.075h-2v2.075zm0 4.151v2.075h2v-2.075h-2zm0 8.296h2v-2.074h-2v2.074zm0 4.148v2.076h2v-2.076h-2zm0 7.257a1 1 0 0 0 2 0v-1.023h-2V160zm25-49v1h-1a1 1 0 0 1 1-1zm0 1.984h-1V112h1v-1h1.031v2h-1.03l-.001-.016zm5.174.016v-2h2.074v2h-2.074zm6.22 0v-2h2.076v2h-2.076zm6.227 0v-2h2.075v2h-2.075zm6.227 0v-2h2.076v2h-2.076zm6.226 0v-2h2.075v2h-2.075zm6.227 0v-2h2.075v2h-2.075zm6.226 0v-2h2.075v2h-2.075zm6.228 0v-2h2.076v2h-2.076zm6.222 0v-2H192a1 1 0 0 1 0 2h-1.023zM137 118.992h-2v-2.006h2v2.006zm0 6.008h-2v-2.007h2V125zm0 5.996h-2v-2h2v2zm0 6.003h-2v-2.001h2v2.001zm0 6.003h-2v-2.001h2v2.001zm0 6.004h-2v-2.002h2v2.002zm0 6.001h-2v-1.999h2v1.999zm0 4.993a1 1 0 0 1-2 0v-.989h2V160z" clip-rule="evenodd"/><path fill="#CED2DB" d="M240 240H72v-80h168v80z"/><path fill="#CED2DB" d="M240 240H72v-80h168v80z"/><path fill="#0052FF" fill-rule="evenodd" d="M168 168v64H72v-64h96z" clip-rule="evenodd"/><path fill="#0A0B0D" d="M140 184h28v32h-28v-32z"/><path fill="#0052FF" d="M168 184h8v32h-8v-32z"/><path fill="#0A0B0D" fill-rule="evenodd" d="M160 160H80.814a9.001 9.001 0 0 0-8.945 8H160v-8z" clip-rule="evenodd"/><path fill="#fff" d="m154 194 6 6-6 6-6-6 6-6z"/><path fill="#0052FF" d="M16 78a6 6 0 0 1 6-6h52a6 6 0 0 1 6 6v52a6 6 0 0 1-6 6H22a6 6 0 0 1-6-6V78z"/><path fill="#0A0B0D" d="M70.785 120.959c.058.562.072 1.114.043 1.661a11.197 11.197 0 0 0-6.03-4.47l-.453-4.324C61.057 91.69 45.399 88.884 42.295 88.54c2.623-2.672 6.864-4.215 10.704-3.156.544.152 1.066.338 1.56.564a11.241 11.241 0 0 0-4.899 2.463 10.552 10.552 0 0 1 10.052 1.398 11.213 11.213 0 0 0-4.453.953 10.543 10.543 0 0 1 8.287 3.746 11.239 11.239 0 0 0-4.874-.026 10.54 10.54 0 0 1 7.174 3.78c.36.433.678.885.956 1.355a11.245 11.245 0 0 0-4.96-.825 10.55 10.55 0 0 1 6.409 5.031c.278.493.51.997.696 1.507a11.252 11.252 0 0 0-4.68-1.704 10.547 10.547 0 0 1 5.53 5.97c.195.53.344 1.063.45 1.598a11.185 11.185 0 0 0-3.835-2.253 10.528 10.528 0 0 1 4.445 7.915 11.175 11.175 0 0 0-3.668-2.795 10.547 10.547 0 0 1 3.596 6.898z"/><path fill="#CED2DB" d="M43.638 93.471a1.912 1.912 0 0 0-.166.41l-.046.16c-.026.095-.06.178-.106.255a1.08 1.08 0 0 0 .103-.255l.046-.16c.04-.146.098-.284.17-.41zm.247-.341zm.675-.458z"/><path fill="#fff" d="M55.737 106.907c-.003-.002-.003-.005-.003-.008-.02-.138-.046-.272-.071-.407a30.196 30.196 0 0 0-.164-.796c-.014-.086-.034-.169-.054-.252a41.155 41.155 0 0 0-.069-.286c-.02-.078-.037-.152-.057-.226a20.404 20.404 0 0 0-.412-1.415l-.017-.057-.115-.33c-.08-.232-.163-.455-.252-.678-.043-.109-.086-.221-.132-.33l-.137-.323a20.67 20.67 0 0 0-.596-1.235 16.434 16.434 0 0 0-.493-.873 9.956 9.956 0 0 0-.349-.553 5.593 5.593 0 0 0-.18-.272c-.06-.088-.12-.177-.184-.266a5.4 5.4 0 0 0-.188-.26 17.215 17.215 0 0 0-1.209-1.472c-.28-.313-.573-.613-.873-.905-.078-.072-.152-.144-.23-.218-.074-.072-.151-.14-.228-.212a15.578 15.578 0 0 0-.47-.418 16.095 16.095 0 0 0-.481-.404 21.231 21.231 0 0 0-.493-.395c-.083-.063-.166-.129-.252-.192a24.654 24.654 0 0 0-.776-.57c-.169-.12-.34-.237-.515-.358-.175-.12-.352-.237-.533-.355a1.907 1.907 0 0 0-.484-.223 1.73 1.73 0 0 0-.762-.052 1.116 1.116 0 0 0-.134.026c-.046.009-.092.02-.135.034a1.76 1.76 0 0 0-.49.235.643.643 0 0 0-.117.086 1.663 1.663 0 0 0-.198.183c-.094.1-.177.215-.246.341a1.92 1.92 0 0 0-.166.41l-.046.16a1.019 1.019 0 0 1-.26.455 1.038 1.038 0 0 1-1.412.035.971.971 0 0 1-.155-.184.958.958 0 0 1-.117-.229l-2.36-6.543c.015.043.026.086.038.129a6.826 6.826 0 0 1 .143.533c.011.04.02.08.028.12.023.094.04.186.055.275a5.043 5.043 0 0 1 .051.326c.009.086.018.17.02.25.003.042.003.082.003.122 0 .055-.003.106-.005.158a2.31 2.31 0 0 1-.038.24.91.91 0 0 1-.06.164l-.017.031a.529.529 0 0 1-.115.146.455.455 0 0 1-.194.103.844.844 0 0 1-.857-.229l-.045-.048a.897.897 0 0 1-.075-.095c-.051-.072-.077-.123-.077-.123l-.095.12-1.13 1.412-1.135 1.412-.003-.003-3.55 4.419a1.11 1.11 0 0 0-.215.942l.303 1.32-6.26 8.946a2.964 2.964 0 0 0-.478 2.273l.195.983a3.202 3.202 0 0 0 2.434 2.505l1.566.358a3.2 3.2 0 0 0 2.463-.435l.985-.639c.34-.223.547-.601.547-1.008v-.612l1.976-5.307c.212.212 1.503 1.467 3.388 1.822 1.01.191 2.19.126 3.467-.499.238-.114.462-.24.673-.369l.207-.132h.003c.117-.077.226-.154.335-.237a2.8 2.8 0 0 0 .197-.155.384.384 0 0 0 .069-.057 2.82 2.82 0 0 0 .212-.184 4.294 4.294 0 0 0 .246-.232c.052-.051.103-.103.152-.157.051-.052.097-.106.143-.158l.135-.16.126-.163a7.293 7.293 0 0 0 .444-.665c.097-.169.183-.337.263-.506.498-1.074.644-2.145.67-2.95a6.821 6.821 0 0 0-.077-1.326h.003l.002.003a1.944 1.944 0 0 1 .287.243 3.362 3.362 0 0 1 .427.487 5.229 5.229 0 0 1 .722 1.338c.188.504.337 1.111.4 1.838.023.241.034.495.034.765a9.77 9.77 0 0 1-.24 2.139c-.06.278-.132.55-.212.816-.037.134-.08.266-.126.398-.011.04-.026.077-.04.117a12.849 12.849 0 0 1-.41 1.034 14.14 14.14 0 0 1-.532 1.08 15.35 15.35 0 0 1-.587.996 4.66 4.66 0 0 1-.155.244 7.23 7.23 0 0 1-.25.369 19.698 19.698 0 0 1-2.451 2.918c-.04.04-.08.077-.114.112a4.71 4.71 0 0 1-.186.172c-.006.008-.011.011-.017.017h-.003l-.014.014a7.011 7.011 0 0 1-.195.226c-3.219 3.594-6.443 4.511-8.342 9.135h20.303l.59-1.875c1.186-6.678 1.297-11.83.61-15.914zm-27.82 4.359-.438.598a.344.344 0 0 1-.613-.137l-.26-1.32a1.005 1.005 0 0 1 .469-1.057.482.482 0 0 1 .624.112l.19.237c.36.456.372 1.1.028 1.567zm8.201-13.015a1.914 1.914 0 0 1-1.867.678 1.92 1.92 0 0 1 .26-1.967 1.91 1.91 0 0 1 1.868-.679 1.906 1.906 0 0 1-.26 1.968zm14.427 21.861-6.116.584c-.562.051-.86-.647-.433-1.014 1.426-1.234 3.01-2.354 4.593-4.121 1.02-1.139 1.673-2.428 2.088-3.688.109-.326.587-.275.619.072l.607 6.526a1.507 1.507 0 0 1-1.358 1.641z"/><path fill="#fff" d="M27.888 109.699c.361.456.372 1.1.029 1.567l-.438.598a.344.344 0 0 1-.613-.137l-.26-1.32a1.005 1.005 0 0 1 .469-1.057.482.482 0 0 1 .624.112l.19.237zM34.25 98.93a1.92 1.92 0 0 1 .261-1.968 1.91 1.91 0 0 1 1.867-.679 1.915 1.915 0 0 1-2.128 2.646zm1.367-6.31-.003-.002 1.134-1.412.02-.023 1.114-1.386-1.13 1.412-1.135 1.412zm3.542-4.916c-.02-.06-.037-.123-.057-.183l.02.054c.014.043.025.086.037.129zm3.645 27.6c-.005.008-.011.011-.017.017.006-.006.009-.012.015-.017h.002zm.622-21.263c-.026.095-.06.178-.106.255a1.08 1.08 0 0 0 .103-.255l.046-.16c.04-.146.098-.284.17-.41a1.912 1.912 0 0 0-.167.41l-.046.16zm.459-.911zm.675-.458zm1.68 7.568h-.005v-.005l.005.005zm.308 10.253zm.404-9.525a4.656 4.656 0 0 0-.358-.418c.109.106.232.246.358.418zm.128 8.445zm.593-7.107zm-.017 5.558zm.211-.816a9.97 9.97 0 0 0 .238-2.139c0-.27-.012-.522-.032-.765.023.241.035.495.035.765 0 .733-.086 1.449-.24 2.139zm-3.871 12.634c1.426-1.234 3.01-2.354 4.593-4.121 1.02-1.139 1.673-2.428 2.088-3.688.109-.326.587-.275.619.072l.607 6.526a1.507 1.507 0 0 1-1.358 1.641l-6.116.584c-.562.051-.86-.647-.433-1.014zm-5.029-11.497-2.15 1.397-3.214 2.088 1.976-5.307c.212.212 1.504 1.467 3.388 1.822z"/><path fill="#000" d="M39.46 89.33c0 .055-.002.106-.005.158a2.248 2.248 0 0 1-.02.155l-.018.085a.922.922 0 0 1-.06.164l-.017.031a.528.528 0 0 1-.115.146.456.456 0 0 1-.194.103.844.844 0 0 1-.856-.229c-.018-.017-.032-.034-.046-.048a1.178 1.178 0 0 1-.149-.218h-.003c-.054-.126-1.257-2.775-.364-5.819 0 0 .464.936.925 2.088l.567 1.572v.003l.017.054c.015.043.026.086.038.129a6.826 6.826 0 0 1 .143.533c.008.04.02.08.029.12.022.094.04.186.054.275.017.091.031.177.043.263l.008.063c.009.086.018.17.02.25.003.042.003.082.003.122zm-11.543 21.936-.438.598a.344.344 0 0 1-.613-.137l-.26-1.32a1.005 1.005 0 0 1 .469-1.057.482.482 0 0 1 .624.112l.19.237c.36.456.372 1.1.028 1.567z"/><path fill="#CED2DB" d="M48.108 104.909c0 .733-.086 1.449-.24 2.139-.06.278-.133.55-.213.816-.04.132-.083.266-.126.398-.011.04-.026.077-.04.117-.08.224-.163.441-.249.659a14.14 14.14 0 0 1-.693 1.455 15.44 15.44 0 0 1-.587.996l-.155.244c-.08.126-.163.249-.249.369a19.698 19.698 0 0 1-2.451 2.918l-.115.112c-.086.083-.148.14-.186.172-.005.008-.011.011-.017.017l.014-.017c2.034-2.443 2.483-5.496 2.532-7.44a1.06 1.06 0 0 0-1.638-.922l-.378.243c.117-.077.226-.154.335-.237a2.8 2.8 0 0 0 .197-.155.384.384 0 0 0 .07-.057 2.92 2.92 0 0 0 .211-.184 4.208 4.208 0 0 0 .246-.232c.055-.051.106-.103.152-.157.052-.052.098-.106.143-.158a2.73 2.73 0 0 0 .135-.16c.046-.054.089-.109.126-.163a1.69 1.69 0 0 0 .123-.166c.12-.164.226-.33.32-.499.098-.169.187-.337.264-.506.501-1.074.65-2.148.67-2.95a6.879 6.879 0 0 0-.074-1.323v-.003l.003.003a1.944 1.944 0 0 1 .286.243l.069.069c.109.106.232.246.358.418.043.058.086.121.132.184.206.3.415.681.59 1.154.188.504.337 1.111.4 1.838.023.241.035.495.035.765z"/><path fill="#000" d="M36.118 98.25a1.915 1.915 0 0 1-1.867.68 1.92 1.92 0 0 1 .26-1.968 1.91 1.91 0 0 1 1.867-.679 1.906 1.906 0 0 1-.26 1.968z"/><path fill="#fff" d="m27.504 83.79 8.11 8.828.003.003 2.265-2.824-10.378-6.008z"/><path fill="#CED2DB" d="M55.127 122.821c1.186-6.678 1.297-11.83.61-15.914-.003-.002-.003-.005-.003-.008a8.855 8.855 0 0 0-.071-.407c-.014-.094-.035-.186-.052-.278a15.367 15.367 0 0 0-.111-.518 3.516 3.516 0 0 0-.055-.252 41.155 41.155 0 0 0-.126-.512 14.65 14.65 0 0 0-.203-.742 12.213 12.213 0 0 0-.226-.73 7.132 7.132 0 0 0-.115-.33c-.08-.232-.163-.455-.252-.678-.04-.112-.086-.221-.132-.33-.045-.109-.091-.214-.137-.323a12.384 12.384 0 0 0-.29-.627 8.941 8.941 0 0 0-.151-.307c-.049-.1-.1-.2-.155-.301-.103-.2-.212-.395-.323-.587a9.395 9.395 0 0 0-.17-.286 9.958 9.958 0 0 0-.349-.553 14.939 14.939 0 0 0-.744-1.054 17.18 17.18 0 0 0-.814-.99 3.702 3.702 0 0 0-.203-.226c-.28-.313-.572-.613-.873-.905-.078-.075-.152-.15-.23-.218a5.272 5.272 0 0 0-.228-.212c-.078-.072-.155-.14-.232-.209a5.381 5.381 0 0 0-.238-.209 12.83 12.83 0 0 0-.481-.404 21.45 21.45 0 0 0-.493-.395c-.083-.063-.166-.129-.252-.192a24.554 24.554 0 0 0-.776-.57c-.169-.123-.34-.24-.515-.358a24.87 24.87 0 0 0-.533-.355 1.911 1.911 0 0 0-.484-.223 1.732 1.732 0 0 0-.761-.052 1.14 1.14 0 0 0-.135.026c-.046.009-.092.02-.135.034a.77.77 0 0 0-.129.046 1.384 1.384 0 0 0-.246.118.702.702 0 0 0-.114.071.65.65 0 0 0-.118.086.888.888 0 0 0-.097.083.825.825 0 0 0-.1.1c-.098.1-.18.215-.247.341a1.785 1.785 0 0 0-.169.41l-.045.16c-.026.095-.06.178-.103.255a1.096 1.096 0 0 1-.155.2 1.038 1.038 0 0 1-1.412.035 1.066 1.066 0 0 1-.27-.412l-2.379-6.598v-.003a20.869 20.869 0 0 0-.567-1.572c-.46-1.152-.925-2.088-.925-2.088s2.578 1.194 4.147 4.64c0 0 .189.008.535.042 3.105.344 18.763 3.15 22.05 25.286l.453 4.324.684 6.546H54.537l.59-1.875z"/><path fill="#FFD200" d="M144 22a6 6 0 0 1 6-6h52a6 6 0 0 1 6 6v52a6 6 0 0 1-6 6h-52a6 6 0 0 1-6-6V22z"/><path fill="#0052FF" d="M158.222 30.222h35.555v35.556h-35.555V30.222z"/><path fill="#00D17F" d="m158.222 30.222-3.556-3.555v42.666l3.556-3.555V30.222zm35.555 35.556 3.556 3.555V26.667l-3.556 3.555v35.556z"/><path fill="#0A0B0D" d="m193.777 30.222 3.556-3.555h-42.667l3.556 3.555h35.555zm-35.555 35.556-3.556 3.555h42.667l-3.556-3.555h-35.555z"/><path fill="#fff" d="m175.999 55.111-6.222-6.222-11.555 10.152v6.737h35.555V51.555l-7.111-7.11-10.667 10.666z"/><path fill="#FFD200" d="M172.444 39.556a4.889 4.889 0 1 1-9.778 0 4.889 4.889 0 0 1 9.778 0z"/><path fill="#00D17F" d="M182 100a6 6 0 0 1 6-6h24a6 6 0 0 1 6 6v24a6 6 0 0 1-6 6h-24a6 6 0 0 1-6-6v-24z"/><path fill="#0A0B0D" d="M187.143 114.571h5.142v10.286h-5.142v-10.286zm10.286-5.142h5.143v15.428h-5.143v-15.428zm10.285-5.143h5.143v20.571h-5.143v-20.571z"/><path fill="#5DE2F8" d="M56 6a6 6 0 0 1 6-6h36a6 6 0 0 1 6 6v36a6 6 0 0 1-6 6H62a6 6 0 0 1-6-6V6z"/><path fill="#fff" d="M90.909 19.636c0 6.025-4.884 10.91-10.91 10.91-6.024 0-10.908-4.885-10.908-10.91 0-6.024 4.884-10.909 10.909-10.909s10.909 4.884 10.909 10.91z"/><path fill="#fff" d="M69.09 20.182h21.82v19.09H69.091v-19.09z"/><path fill="#0A0B0D" d="M78.364 18a1.636 1.636 0 1 1-3.273 0 1.636 1.636 0 0 1 3.273 0zm6.546 0a1.636 1.636 0 1 1-3.273 0 1.636 1.636 0 0 1 3.272 0z"/><path fill="#5DE2F8" d="M73.454 34.91h4.364v4.363h-4.364v-4.364zm8.728 0h4.363v4.363h-4.363v-4.364z"/><path fill="#0A0B0D" fill-rule="evenodd" d="M77.818 21.818a2.182 2.182 0 1 0 4.364 0h-4.364z" clip-rule="evenodd"/></svg>