<svg xmlns="http://www.w3.org/2000/svg" fill="none" viewBox="0 0 240 120"><path fill="#FFD200" d="M120 80c22.091 0 40-17.909 40-40S142.091 0 120 0 80 17.909 80 40s17.909 40 40 40Z"/><path fill="#CED2DB" d="M120 120 32 84V16l88 36v68Z"/><path fill="#0052FF" fill-rule="evenodd" d="M120 80V52L80.225 35.728A40.449 40.449 0 0 0 80 40c0 22.091 17.909 40 40 40Z" clip-rule="evenodd"/><path fill="#0052FF" d="m120 120 88-36V16l-88 36v68Z"/><path fill="#0A0B0D" fill-rule="evenodd" d="M160 40c0 22.091-17.909 40-40 40V52l39.775-16.272c.149 1.404.225 2.829.225 4.272Z" clip-rule="evenodd"/><path fill="#0A0B0D" fill-rule="evenodd" d="M120 70c16.569 0 30-13.431 30-30 0-16.569-13.431-30-30-30-16.569 0-30 13.431-30 30 0 16.569 13.431 30 30 30Zm32-30c0 17.673-14.327 32-32 32-17.673 0-32-14.327-32-32 0-17.673 14.327-32 32-32 17.673 0 32 14.327 32 32ZM42.62 77.842l66 27.083.759-1.85-66-27.084-.759 1.85Zm0-11.917 66 27.083.759-1.85-66-27.083-.759 1.85Zm154.759 11.917-66 27.083-.759-1.85 66-27.084.759 1.85Zm0-11.917-66 27.083-.759-1.85 66-27.083.759 1.85Z" clip-rule="evenodd"/></svg>