<svg xmlns="http://www.w3.org/2000/svg" fill="none" viewBox="0 0 240 240"><path fill="#CED2DB" d="M180 120a57.842 57.842 0 0 1-17.57 42.43 57.852 57.852 0 0 1-19.396 13.177A57.85 57.85 0 0 1 120 180v60c33.14 0 61.423-11.717 84.85-35.15 23.427-23.433 35.143-51.717 35.15-84.85h-60z"/><path fill="#FFD200" d="M120 60V0C86.86 0 58.577 11.717 35.15 35.15 11.723 58.583.007 86.867 0 120h60a57.84 57.84 0 0 1 17.57-42.43A57.84 57.84 0 0 1 120 60z"/><path fill="#fff" d="M70 120a48.197 48.197 0 0 0 14.64 35.36A48.205 48.205 0 0 0 120 170v-50H70zm85.36-35.36A48.195 48.195 0 0 0 120 70v50h50a48.202 48.202 0 0 0-14.64-35.36z"/><path fill="#FFD200" d="M84.64 84.64A48.199 48.199 0 0 0 70 120h50V70a48.199 48.199 0 0 0-35.36 14.64z"/><path fill="#CED2DB" d="M120 120v50a48.202 48.202 0 0 0 35.36-14.64A48.201 48.201 0 0 0 170 120h-50z"/><path fill="#0052FF" d="M120 60a29.992 29.992 0 0 1-21.213-8.787 30.002 30.002 0 0 1 9.733-48.93A29.993 29.993 0 0 1 120 0v60z"/><path fill="#CED2DB" d="M120 0a30 30 0 0 1 0 60V0z"/><path fill="#0A0B0D" fill-rule="evenodd" d="M119.999 10.44c-10.802 0-19.56 8.757-19.56 19.56 0 10.803 8.758 19.56 19.56 19.56 10.803 0 19.56-8.757 19.56-19.56 0-10.803-8.757-19.56-19.56-19.56zM98.439 30c0-11.907 9.653-21.56 21.56-21.56 11.908 0 21.56 9.653 21.56 21.56 0 11.907-9.652 21.56-21.56 21.56-11.907 0-21.56-9.653-21.56-21.56z" clip-rule="evenodd"/><path fill="#0052FF" d="M120 180a30 30 0 0 1 0 60v-60z"/><path fill="#FFD200" d="M120 240a29.99 29.99 0 0 1-27.716-18.52 29.994 29.994 0 0 1 6.503-32.693A29.99 29.99 0 0 1 120 180v60z"/><path fill="#0A0B0D" fill-rule="evenodd" d="M119.999 190.44c-10.802 0-19.56 8.757-19.56 19.56 0 10.803 8.758 19.56 19.56 19.56 10.803 0 19.56-8.757 19.56-19.56 0-10.803-8.757-19.56-19.56-19.56zM98.439 210c0-11.907 9.653-21.56 21.56-21.56 11.908 0 21.56 9.653 21.56 21.56 0 11.907-9.652 21.56-21.56 21.56-11.907 0-21.56-9.653-21.56-21.56z" clip-rule="evenodd"/><path fill="#FFD200" d="M180 120a30.002 30.002 0 0 1 30-30 30 30 0 0 1 30 30h-60z"/><path fill="#0052FF" d="M240 120a30 30 0 0 1-60 0h60z"/><path fill="#0A0B0D" fill-rule="evenodd" d="M209.999 100.44c-10.802 0-19.56 8.757-19.56 19.56 0 10.803 8.758 19.56 19.56 19.56 10.803 0 19.56-8.757 19.56-19.56 0-10.803-8.757-19.56-19.56-19.56zM188.439 120c0-11.907 9.653-21.56 21.56-21.56 11.908 0 21.56 9.653 21.56 21.56 0 11.907-9.652 21.56-21.56 21.56-11.907 0-21.56-9.653-21.56-21.56z" clip-rule="evenodd"/><path fill="#CED2DB" d="M60 120a30 30 0 0 1-60 0h60z"/><path fill="#0052FF" d="M0 120a30.001 30.001 0 0 1 51.213-21.213A30.001 30.001 0 0 1 60 120H0z"/><path fill="#0A0B0D" fill-rule="evenodd" d="M30 100.44c-10.803 0-19.56 8.757-19.56 19.56 0 10.803 8.757 19.56 19.56 19.56 10.802 0 19.56-8.757 19.56-19.56 0-10.803-8.758-19.56-19.56-19.56zM8.44 120c0-11.907 9.652-21.56 21.56-21.56 11.907 0 21.56 9.653 21.56 21.56 0 11.907-9.653 21.56-21.56 21.56-11.908 0-21.56-9.653-21.56-21.56zM119 71.037c-6.475.48-12.517 5.597-17.062 14.08a53.2 53.2 0 0 0-2.467 5.313H119V71.037zm0 21.393H98.71c-2.742 7.59-4.39 16.714-4.495 26.57H119V92.43zm2 26.57V92.43h20.291c2.74 7.59 4.389 16.714 4.494 26.57H121zm-2 2H94.215c.105 9.856 1.753 18.98 4.494 26.57H119V121zm2 26.57V121h24.785c-.105 9.856-1.753 18.98-4.494 26.57H121zm-2 2H99.47a53.163 53.163 0 0 0 2.468 5.313c4.545 8.483 10.587 13.601 17.062 14.08V149.57zm2 19.393V149.57h19.529a53.141 53.141 0 0 1-2.467 5.313c-4.545 8.483-10.587 13.601-17.062 14.08zm0-78.533V71.037c6.475.48 12.517 5.597 17.062 14.08a53.178 53.178 0 0 1 2.467 5.313H121zm-10.278-18.553c-12.106 2.32-22.63 9.095-29.797 18.553H97.32a55.985 55.985 0 0 1 2.854-6.258c2.884-5.382 6.471-9.67 10.547-12.295zM71.01 119a48.756 48.756 0 0 1 8.508-26.616c.095.03.197.046.302.046h16.767c-2.684 7.696-4.27 16.806-4.372 26.57H71.01zm8.508 28.616A48.755 48.755 0 0 1 71.01 121h21.205c.102 9.764 1.688 18.874 4.372 26.57H79.82c-.105 0-.207.016-.302.046zm31.204 20.507c-12.106-2.32-22.63-9.095-29.797-18.553H97.32a55.997 55.997 0 0 0 2.854 6.258c2.884 5.382 6.471 9.669 10.547 12.295zM171 120c0 28.167-22.833 51-51 51-28.166 0-51-22.833-51-51 0-28.166 22.834-51 51-51 28.167 0 51 22.834 51 51zm-31.175 35.828c-2.884 5.382-6.471 9.669-10.547 12.295 12.106-2.32 22.629-9.095 29.797-18.553h-16.397a55.942 55.942 0 0 1-2.853 6.258zM168.99 121a48.755 48.755 0 0 1-8.508 26.616 1.004 1.004 0 0 0-.302-.046h-16.767c2.684-7.696 4.27-16.806 4.372-26.57h21.205zm-8.508-28.616A48.755 48.755 0 0 1 168.99 119h-21.205c-.102-9.764-1.688-18.874-4.372-26.57h16.767a.998.998 0 0 0 .302-.046zm-31.204-20.507c12.106 2.32 22.629 9.095 29.797 18.553h-16.397a55.93 55.93 0 0 0-2.853-6.258c-2.884-5.382-6.471-9.67-10.547-12.295z" clip-rule="evenodd"/></svg>