<svg xmlns="http://www.w3.org/2000/svg" fill="none" viewBox="0 0 240 120"><path fill="#0A0B0D" fill-rule="evenodd" d="M164.596 18.422A46.888 46.888 0 0 0 147 15h-1v2h1a44.887 44.887 0 0 1 16.845 3.276 44.086 44.086 0 0 1 14.276 9.326 42.97 42.97 0 0 1 9.533 13.95A42.159 42.159 0 0 1 191 60h2a44.145 44.145 0 0 0-3.505-17.228 44.946 44.946 0 0 0-9.976-14.6 46.093 46.093 0 0 0-14.923-9.75Z" clip-rule="evenodd"/><path fill="#0A0B0D" fill-rule="evenodd" d="M153 6.586 143.586 16 145 17.414 154.414 8 153 6.586Z" clip-rule="evenodd"/><path fill="#0A0B0D" fill-rule="evenodd" d="M153 25.414 143.586 16 145 14.586 154.414 24 153 25.414Z" clip-rule="evenodd"/><path fill="#CED2DB" d="M176 60c0 15.45-12.55 28-28 28h-28v32h28c33.15 0 60-26.85 60-60h-32ZM92 0C58.85 0 32 26.85 32 60h32c0-15.45 12.55-28 28-28h28V0H92Z"/><path fill="#0052FF" d="M120 40c11.062 0 20 8.938 20 20 0 11.063-8.938 20-20 20V40Zm0 40c-11.062 0-20-8.938-20-20 0-11.063 8.938-20 20-20v40Z"/><path fill="#00D17F" d="M176 60c0-8.85 7.15-16 16-16s16 7.15 16 16h-32Z"/><path fill="#0052FF" d="M208 60c0 8.85-7.15 16-16 16s-16-7.15-16-16h32Z"/><path fill="#FFD200" d="M120 32c8.837 0 16-7.163 16-16s-7.163-16-16-16-16 7.163-16 16 7.163 16 16 16Zm-72 0c8.837 0 16-7.163 16-16S56.837 0 48 0 32 7.163 32 16s7.163 16 16 16Z"/><path fill="#0052FF" d="M40.077 29.904A15.926 15.926 0 0 0 48 32c8.837 0 16-7.163 16-16 0-2.883-.762-5.587-2.096-7.923a60.257 60.257 0 0 0-21.827 21.827Z"/><path fill="#FFD200" d="M192 88c-8.837 0-16 7.163-16 16s7.163 16 16 16 16-7.163 16-16-7.163-16-16-16Z"/><path fill="#0052FF" d="M199.923 90.096A15.926 15.926 0 0 0 192 88c-8.837 0-16 7.163-16 16 0 2.883.762 5.587 2.096 7.923a60.25 60.25 0 0 0 21.827-21.827Z"/><path fill="#FFD200" d="M120 120c8.837 0 16-7.163 16-16s-7.163-16-16-16-16 7.163-16 16 7.163 16 16 16Z"/><path fill="#0052FF" d="M48 76c8.837 0 16-7.163 16-16s-7.163-16-16-16-16 7.163-16 16 7.163 16 16 16Z"/><path fill="#00D17F" d="M64 60c0 8.85-7.15 16-16 16s-16-7.15-16-16h32Z"/><path fill="#fff" d="M132 104c-6.65 0-12 5.35-12 12 0-6.65-5.35-12-12-12 6.65 0 12-5.35 12-12 0 6.65 5.4 12 12 12ZM60 60c-6.65 0-12 5.35-12 12 0-6.65-5.35-12-12-12 6.65 0 12-5.35 12-12 0 6.65 5.4 12 12 12Z"/><path fill="#0A0B0D" fill-rule="evenodd" d="M120 26c5.523 0 10-4.477 10-10s-4.477-10-10-10-10 4.477-10 10 4.477 10 10 10Zm0 2c6.627 0 12-5.373 12-12s-5.373-12-12-12-12 5.373-12 12 5.373 12 12 12Zm0 45c7.18 0 13-5.82 13-13s-5.82-13-13-13-13 5.82-13 13 5.82 13 13 13Zm0 2c8.284 0 15-6.716 15-15 0-8.284-6.716-15-15-15-8.284 0-15 6.716-15 15 0 8.284 6.716 15 15 15Zm72-5c5.523 0 10-4.477 10-10s-4.477-10-10-10-10 4.477-10 10 4.477 10 10 10Zm0 2c6.627 0 12-5.373 12-12s-5.373-12-12-12-12 5.373-12 12 5.373 12 12 12Z" clip-rule="evenodd"/></svg>