<svg xmlns="http://www.w3.org/2000/svg" fill="none" viewBox="0 0 48 48"><path fill="#0052FF" d="M34 38.94V18.575L14.849 8.394c-.425-.182-.849.06-.849.545v20.364l19.151 10.182c.364.181.849-.122.849-.546Z"/><path fill="#BFC4CF" d="M43.394 12.879 24.849 3.06c-.425-.181-.849.061-.849.546v6.909l11.151 5.94 1.273.666v13.455l6.727 3.575c.425.182.849-.06.849-.545V13.969c0-.484-.242-.848-.606-1.09Z"/><path fill="#0A0B0D" d="m24 23.909 10 5.333V18.576l-10-5.334V23.91Z"/><path fill="#BFC4CF" d="M4 14.212v19.636c0 .425.242.849.606 1.03l18.485 9.88c.424.181.848-.061.848-.546V23.909L4.85 13.727c-.364-.242-.849.06-.849.485Z"/><path fill="#fff" d="m14 29.242 10 5.333V23.91l-10-5.333v10.666Z"/></svg>