<svg xmlns="http://www.w3.org/2000/svg" fill="none" viewBox="0 0 97 97"><path fill="#CED2DB" fill-rule="evenodd" d="M0 61.112V30.743a50.117 50.117 0 0 1 32.333 46.855H6.467A24.25 24.25 0 0 0 0 61.113Z" clip-rule="evenodd"/><path fill="#CED2DB" d="M64.666 56.58H40.415V97h24.251V56.58Z"/><path fill="#0052FF" d="M32.333 77.6H6.467V97h25.866V77.6Z"/><path fill="#CED2DB" d="M97 40.415H72.747v56.584H97V40.415Z"/><path fill="#5DE2F8" fill-rule="evenodd" d="M84.067 0a77.6 77.6 0 0 0-77.6 77.6h25.866a51.734 51.734 0 0 1 51.734-51.733V0Z" clip-rule="evenodd"/><path fill="#0052FF" fill-rule="evenodd" d="M32.333 77.587A50.117 50.117 0 0 0 15.91 40.5a77.594 77.594 0 0 0-9.443 37.09v.01h25.866v-.012Z" clip-rule="evenodd"/><path fill="#00D17F" d="M84.067 0A12.902 12.902 0 0 1 97 12.933a12.902 12.902 0 0 1-12.933 12.933V0Z"/><path fill="#0052FF" d="M84.067 25.866a12.902 12.902 0 0 1-12.934-12.933A12.902 12.902 0 0 1 84.067 0v25.866Z"/></svg>