<svg xmlns="http://www.w3.org/2000/svg" fill="none" viewBox="0 0 48 48"><path fill="#CED2DB" d="M19.172 6.6 6.602 19.17l22.72 22.72 12.57-12.57L19.172 6.6Z"/><path fill="#0053FF" d="M44.503 4h-10.08L4.003 44.5h10.08L44.503 4Z"/><path fill="#0A0B0D" d="M12.893 21.78a8.89 8.89 0 0 0 8.89-8.89A8.89 8.89 0 0 0 12.893 4a8.89 8.89 0 0 0-8.89 8.89 8.89 8.89 0 0 0 8.89 8.89Z"/><path fill="#0053FF" d="M19.183 6.61c-3.47-3.47-9.1-3.47-12.58 0-3.47 3.47-3.47 9.1 0 12.58l12.58-12.58Z"/><path fill="#0A0B0D" d="M35.613 44.5a8.89 8.89 0 0 0 8.89-8.89 8.89 8.89 0 0 0-8.89-8.89 8.89 8.89 0 0 0-8.89 8.89 8.89 8.89 0 0 0 8.89 8.89Z"/><path fill="#0053FF" d="M29.313 41.9c3.47 3.47 9.1 3.47 12.58 0 3.47-3.47 3.47-9.1 0-12.58L29.313 41.9Z"/><path fill="#0A0B0D" d="m32.523 19.95-10.79 14.36-5.76-5.76 10.78-14.36 5.76 5.76h.01Z"/><path fill="#0A0B0D" d="m32.523 19.95-10.79 14.36-5.76-5.76 10.78-14.36 5.76 5.76h.01Z"/></svg>