<svg xmlns="http://www.w3.org/2000/svg" fill="none" viewBox="0 0 96 96"><path fill="#FFD200" d="M96 0H0v38.4h96V0Z"/><path fill="#0052FF" d="M19.2 38.4a28.8 28.8 0 0 1 57.6 0H19.2Z"/><path fill="#CED2DB" fill-rule="evenodd" d="M63.838 54.239a22.4 22.4 0 0 0 6.561-15.84h6.4v2.153c0 4.584-3.172 12.452-7.047 17.483l-4.097 5.325c-3.77 4.895-7.89 13.691-8.055 19.84v3.2H38.4v-3.2c-.166-6.149-4.285-14.945-8.055-19.84l-4.098-5.325c-3.875-5.031-7.047-12.9-7.047-17.483V38.4h6.4a22.4 22.4 0 0 0 38.238 15.839Z" clip-rule="evenodd"/><path fill="#FFD200" d="M25.6 38.4a22.4 22.4 0 0 1 44.799 0h-44.8Z"/><path fill="#0052FF" d="M32 38.4a16 16 0 1 1 32 0H32Z"/><path fill="#FFD200" d="M64 38.4a16 16 0 0 1-32 0h32Z"/><path fill="#0052FF" d="M38.4 86.4a9.6 9.6 0 0 1 19.2 0H38.4Z"/><path fill="#FFD200" d="M57.6 86.4a9.6 9.6 0 0 1-19.2 0h19.2Z"/><path fill="#0A0B0D" d="M53.32 43.647 48 38.326l-5.322 5.321 1.131 1.131 3.39-3.39V86.39h1.6v-45l3.39 3.388 1.131-1.131Z"/><path fill="#0A0B0D" fill-rule="evenodd" d="m86.39 42.491 3.199.073a42.332 42.332 0 0 0 0-1.928l-3.2.072-3.198.073a36.501 36.501 0 0 1 0 1.637l3.199.073Zm-10.617-27.41 2.314-2.21a41.762 41.762 0 0 0-1.359-1.358l-2.21 2.314-2.21 2.314a35.5 35.5 0 0 1 1.151 1.151l2.314-2.21ZM48.891 3.212l.073-3.2a42.402 42.402 0 0 0-1.928 0l.073 3.2.072 3.198a36.03 36.03 0 0 1 1.638 0l.072-3.199Zm-30.978 9.66a41.86 41.86 0 0 1 1.359-1.358l2.21 2.314 2.21 2.314a35.4 35.4 0 0 0-1.151 1.151l-2.314-2.21-2.314-2.21ZM6.4 41.6c0-.322.004-.644.011-.964l3.2.072 3.198.073a35.915 35.915 0 0 0 0 1.637l-3.199.073-3.199.073a44.13 44.13 0 0 1-.01-.964Zm13.827 26.518-2.314 2.21c.442.463.895.916 1.359 1.359l2.21-2.314 2.21-2.314a35.4 35.4 0 0 1-1.151-1.151l-2.314 2.21Zm54.291 1.255 2.21 2.314c.464-.443.917-.896 1.36-1.359l-2.315-2.21-2.314-2.21a35.66 35.66 0 0 1-1.151 1.15l2.21 2.315Z" clip-rule="evenodd"/></svg>