<svg xmlns="http://www.w3.org/2000/svg" fill="none" viewBox="0 0 240 240"><path fill="#0052FF" d="M48 240h144V0H48v240z"/><path fill="#0A0B0D" d="M120 14a2 2 0 1 0 0-4 2 2 0 0 0 0 4zm8 212h-16v4h16v-4z"/><path fill="#CED2DB" d="M48 216h144V24H48v192zM48 0H0v24h48V0zm0 216H0v24h48v-24z"/><path fill="#FFD200" d="M192 113c26.51 0 48 21.49 48 48s-21.49 48-48 48-48-21.49-48-48 21.49-48 48-48z"/><path fill="#0052FF" fill-rule="evenodd" d="M192 113v96c-26.51 0-48-21.49-48-48s21.49-48 48-48z" clip-rule="evenodd"/><path fill="#fff" d="M228 161c0 19.882-16.118 36-36 36s-36-16.118-36-36 16.118-36 36-36 36 16.118 36 36z"/><path fill="#0A0B0D" fill-rule="evenodd" d="M100.071 182c18.778 0 34-15.222 34-34s-15.222-34-34-34c-18.777 0-34 15.222-34 34s15.223 34 34 34zm0 2c19.883 0 36-16.118 36-36s-16.117-36-36-36c-19.882 0-36 16.118-36 36s16.118 36 36 36z" clip-rule="evenodd"/><path fill="#fff" d="M184 82c0 15.464-12.536 28-28 28s-28-12.536-28-28 12.536-28 28-28 28 12.536 28 28zM96 52c0 11.046-8.954 20-20 20s-20-8.954-20-20 8.954-20 20-20 20 8.954 20 20zm32.071 96c0 15.464-12.536 28-28 28s-28-12.536-28-28 12.536-28 28-28 28 12.536 28 28z"/><path fill="#fff" fill-rule="evenodd" d="M100.071 174c14.36 0 26-11.641 26-26s-11.64-26-26-26-26 11.641-26 26 11.64 26 26 26zm0 2c15.464 0 28-12.536 28-28s-12.536-28-28-28-28 12.536-28 28 12.536 28 28 28z" clip-rule="evenodd"/><path fill="#0A0B0D" fill-rule="evenodd" d="M156 100c9.941 0 18-8.059 18-18s-8.059-18-18-18-18 8.059-18 18 8.059 18 18 18zm0 2c11.046 0 20-8.954 20-20s-8.954-20-20-20-20 8.954-20 20 8.954 20 20 20zM90 52c0 7.732-6.268 14-14 14s-14-6.268-14-14 6.268-14 14-14 14 6.268 14 14zM76 64c6.627 0 12-5.373 12-12s-5.373-12-12-12-12 5.373-12 12 5.373 12 12 12z" clip-rule="evenodd"/><path fill="#CED2DB" d="M80 52a4 4 0 1 1-8 0 4 4 0 0 1 8 0zm32.071 96c0 6.627-5.372 12-12 12-6.627 0-12-5.373-12-12s5.373-12 12-12c6.628 0 12 5.373 12 12z"/><path fill="#CED2DB" d="M104.072 148a4 4 0 1 1-8 0 4 4 0 0 1 8 0z"/><path fill="#0A0B0D" fill-rule="evenodd" d="M100.071 145a3 3 0 1 0 0 6 3 3 0 0 0 0-6zm-5 3a5 5 0 1 1 10.001 0 5 5 0 0 1-10 0z" clip-rule="evenodd"/><path fill="#CED2DB" d="M160.5 82a4 4 0 1 1-8 0 4 4 0 0 1 8 0z"/><path fill="#0A0B0D" fill-rule="evenodd" d="M156.5 79a3 3 0 1 0 0 6 3 3 0 0 0 0-6zm-5 3a5 5 0 1 1 10 0 5 5 0 0 1-10 0zM88.392 45.548l42.5 84.001-1.785.902-42.5-84 1.785-.903z" clip-rule="evenodd"/><path fill="#0A0B0D" fill-rule="evenodd" d="m139.865 74.002-41.5 71.5-1.73-1.004 41.5-71.5 1.73 1.004zm27.271 24.769-63 52-1.273-1.542 63-52 1.273 1.542zM64 51.48l1.999 98-2 .04-2-98 2-.04z" clip-rule="evenodd"/><path fill="#0A0B0D" d="M209 161a16.002 16.002 0 0 1-27.314 11.314A16.016 16.016 0 0 1 177 161h32z"/><path fill="#0A0B0D" fill-rule="evenodd" d="M192 192v-17h2v17h-2z" clip-rule="evenodd"/><path fill="#CED2DB" fill-rule="evenodd" d="M199 154v-18h4v18h-4zm-16 0v-18h4v18h-4z" clip-rule="evenodd"/><path fill="#0A0B0D" fill-rule="evenodd" d="M189 184v-16h8v16h-8z" clip-rule="evenodd"/><path fill="#0A0B0D" d="M177 152h32v9h-32v-9z"/></svg>