<svg xmlns="http://www.w3.org/2000/svg" fill="none" viewBox="0 0 48 48"><path fill="#CED2DB" fill-rule="evenodd" d="M25.716 35.95 35.95 25.716l7.676 7.676c.5.499.5 1.248 0 1.684l-8.55 8.55c-.498.499-1.247.499-1.684 0l-7.676-7.676Zm17.91-23.026-8.55-8.55c-.499-.499-1.248-.499-1.684 0l-7.676 7.676L35.95 22.284l7.676-7.676c.499-.436.499-1.185 0-1.684Zm-9.36 11.107L24.03 13.797l10.234 10.234Z" clip-rule="evenodd"/><path fill="#0A0B0D" d="M24.031 13.797 13.797 24.031l10.234 10.234 10.234-10.234-10.234-10.234Z"/><path fill="#0052FF" d="m12.924 4.437-8.55 8.549c-.499.5-.499 1.248 0 1.685l9.36 9.36L23.97 13.797l-9.36-9.36c-.437-.5-1.186-.5-1.685 0Zm.873 19.594-9.36 9.36c-.5.5-.5 1.249 0 1.686l8.549 8.549c.5.499 1.248.499 1.685 0l9.36-9.36L13.797 24.03Z"/></svg>