<svg xmlns="http://www.w3.org/2000/svg" fill="none" viewBox="0 0 240 240"><path fill="#00D17F" d="M120 76h99.8c-5.2-12-12.6-22.8-21.5-32H120v32Z"/><path fill="#CED2DB" d="M0 120c0 66.3 53.7 120 120 120V0C53.7 0 0 53.7 0 120Z"/><path fill="#0052FF" d="M27.1 196H120v-32H8.3c4.6 11.7 11 22.4 18.8 32Z"/><path fill="#0A0B0D" fill-rule="evenodd" d="M161.654 42.192C150.92 23.202 136.192 12 120 12v-2c17.208 0 32.48 11.898 43.396 31.208C174.323 60.539 181 87.468 181 118c0 30.532-6.677 58.451-17.594 78.773C152.51 217.055 137.245 230 120 230v-2c16.155 0 30.89-12.155 41.644-32.173C172.377 175.849 179 148.268 179 118c0-30.267-6.623-56.84-17.346-75.808ZM12 119h108v2H12v-2Zm16-60h36v2H28v-2Z" clip-rule="evenodd"/><path fill="#0A0B0D" fill-rule="evenodd" d="M10 118C10 56.622 58.873 10 120 10v2C59.927 12 12 57.778 12 118c0 60.27 47.975 110 108 110v2c-61.175 0-110-50.67-110-112Zm110-59h91.2v2H120v-2Zm0 60h108v2H120v-2Zm0 60h91.1v2H120v-2Z" clip-rule="evenodd"/><path fill="#0A0B0D" fill-rule="evenodd" d="M78.271 42.191C67.573 61.16 61 87.731 61 118s6.574 57.85 17.281 77.828C89.01 215.844 103.744 228 120 228v2c-17.344 0-32.61-12.944-43.481-33.228C65.626 176.45 59 148.531 59 118c0-30.532 6.626-57.46 17.529-76.791C87.42 21.897 102.693 10 120 10v2c-16.293 0-31.02 11.203-41.729 30.191ZM120 10c60.749 0 110 48.644 110 110s-49.251 110-110 110v-2c59.651 0 108-47.756 108-108S179.651 12 120 12v-2Z" clip-rule="evenodd"/><path fill="#0052FF" d="M120 44H68v32h52V44Z"/><path fill="#0A0B0D" fill-rule="evenodd" d="m171.244 180.655-104-120 1.511-1.31 104.001 120-1.512 1.31Z" clip-rule="evenodd"/><path fill="#0052FF" d="M68 84c-13.3 0-24-10.7-24-24s10.7-24 24-24 24 10.7 24 24-10.7 24-24 24Z"/><path fill="#0A0B0D" fill-rule="evenodd" d="M68 45c-8.284 0-15 6.716-15 15 0 8.284 6.716 15 15 15 8.284 0 15-6.716 15-15 0-8.284-6.716-15-15-15ZM51 60c0-9.389 7.611-17 17-17s17 7.611 17 17-7.611 17-17 17-17-7.611-17-17Z" clip-rule="evenodd"/><path fill="#FFD200" d="M172 164h-52v32h52v-32Z"/><path fill="#FFD200" d="M172 156c13.3 0 24 10.7 24 24s-10.7 24-24 24-24-10.7-24-24 10.7-24 24-24Z"/><path fill="#0A0B0D" fill-rule="evenodd" d="M172 165c-8.284 0-15 6.716-15 15 0 8.284 6.716 15 15 15 8.284 0 15-6.716 15-15 0-8.284-6.716-15-15-15Zm-17 15c0-9.389 7.611-17 17-17s17 7.611 17 17-7.611 17-17 17-17-7.611-17-17Z" clip-rule="evenodd"/><path fill="#0A0B0D" fill-rule="evenodd" d="M29.6 179H156v2H29.6v-2Z" clip-rule="evenodd"/></svg>