<svg xmlns="http://www.w3.org/2000/svg" fill="none" viewBox="0 0 48 48"><path fill="#0052FF" d="M5.333 4h28c.734 0 1.334.595 1.334 1.323v25.129H5.333A1.332 1.332 0 0 1 4 29.129V5.323C4 4.595 4.6 4 5.333 4Z"/><path fill="#0A0B0D" d="M34.667 10.613h-24v19.839h24v-19.84Z"/><path fill="#CED2DB" d="M42.667 10.613h-5.333v22.484H10.667v5.29c0 .727.6 1.323 1.333 1.323h25.434L44 45V11.935c0-.727-.6-1.322-1.333-1.322Z"/><path fill="#fff" d="M28.36 16.207a3.355 3.355 0 0 0-4.713 0 3.287 3.287 0 0 0-.98 2.341c0-.846-.327-1.692-.974-2.34a3.355 3.355 0 0 0-4.713 0 3.29 3.29 0 0 0 0 4.675c.473.483 5.686 4.94 5.686 4.94s5.214-4.457 5.694-4.934a3.298 3.298 0 0 0 0-4.682Z"/></svg>