<svg xmlns="http://www.w3.org/2000/svg" fill="none" viewBox="0 0 242 240"><path fill="#fff" d="M52.928 208.108 46 198.309 49.267 196l6.927 9.799-3.266 2.309Z"/><path fill="#5DE2F8" d="M115 149c0 27.614-22.834 50-51 50s-51-22.386-51-50 22.834-50 51-50 51 22.386 51 50Z"/><path fill="#5DE2F8" d="M50.75 162h31v25.5c0 8.56-6.94 15.5-15.5 15.5-8.56 0-15.5-6.94-15.5-15.5V162Zm122.666-64.614c22.589 13.042 27.917 46.103 11.9 73.844-16.016 27.74-47.311 39.657-69.9 26.615-22.589-13.041-19.558-51.669-3.542-79.41 16.016-27.74 38.953-34.09 61.542-21.049Z"/><path fill="#5DE2F8" d="M151 89c0 30.376-24.848 55-55.5 55S40 119.376 40 89s24.848-55 55.5-55S151 58.624 151 89Z"/><path fill="#00D17F" d="M168 32c-11.046 0-20 8.954-20 20 0 8.955 5.886 16.536 14 19.084V83l14.667-11H206c11.046 0 20-8.954 20-20s-8.954-20-20-20h-38Z"/><path fill="#fff" d="M172 52a5 5 0 1 1-10 0 5 5 0 0 1 10 0Zm20 0a5 5 0 1 1-10 0 5 5 0 0 1 10 0Zm15 5a5 5 0 1 0 0-10 5 5 0 0 0 0 10Z"/><path fill="#0A0B0D" fill-rule="evenodd" d="m128.537 107.499-11.005.404-.073-1.999 11.005-.404.073 1.999Z" clip-rule="evenodd"/><path fill="#0A0B0D" d="M105.19 171.5h83v4c0 5.523-4.477 10-10 10h-63c-5.522 0-10-4.477-10-10v-4Zm-4.144-5.5H193l-28.046-30H73l28.046 30Z"/><path fill="#5DE2F8" d="M118.914 139.072c-3.74-6.75-7.808-18.369-11.067-25.986L62 108.37c7.97 13.086 15.885 23.234 22.842 31.991 13.073 16.456 21.918 18.498 25.35 18.594 10.928.308 12.094-8.198 11.02-14.38-.343-1.973-1.328-3.752-2.298-5.503Z"/><path fill="#CED2DB" d="M146.181 106h92.128L215 166h-91.918l23.099-60Z"/><path fill="#0052FF" d="M118 176.536h75.206L165.215 136h-30.947L118 176.536Z"/><path fill="#0A0B0D" d="M0 166h240c-8.928 43.096-46.891 74-90.902 74H92.603C48.237 240 9.786 209.274 0 166Z"/><path fill="#fff" fill-rule="evenodd" d="M241.5 184H3.5v-2h238v2Z" clip-rule="evenodd"/><path fill="#5DE2F8" d="M46 166h31v44.5c0 8.56-6.94 15.5-15.5 15.5-8.56 0-15.5-6.94-15.5-15.5V166Zm-20 0h12v22a6 6 0 1 1-12 0v-22Z"/><path fill="#0052FF" fill-rule="evenodd" d="M38 184H26v-2h12v2Zm39 0H46v-2h31v2Z" clip-rule="evenodd"/><path fill="#fff" d="M166.882 146.598c8.822 2.637 18.301-3.01 21.171-12.612 1.082-3.62 1.071-7.286.164-10.589 5.364 4.087 7.721 12.184 5.325 20.202-2.956 9.886-12.021 15.907-20.248 13.448-5.302-1.585-8.961-6.303-10.104-12.104a15.417 15.417 0 0 0 3.692 1.655Z"/><path fill="#0A0B0D" d="M171.715 147.241a15.456 15.456 0 0 1-8.525-2.298c1.143 5.801 4.802 10.519 10.104 12.104 1.816.543 3.672.673 5.495.439l-7.074-10.245Zm-62.691-46.025c2.209.046 4.054-2.603 4.121-5.916.067-3.313-1.67-6.036-3.878-6.082-2.209-.045-4.054 2.603-4.121 5.916-.067 3.313 1.669 6.036 3.878 6.082Zm24.975-1.136c2.208.046 4.053-2.602 4.12-5.915.067-3.313-1.669-6.036-3.878-6.082-2.208-.046-4.053 2.603-4.12 5.916-.067 3.313 1.669 6.036 3.878 6.081Z"/><path fill="#fff" d="m27.592 142 5.28 10.776-3.591 1.76L24 143.76l3.592-1.76Z"/><path fill="#0052FF" d="m39.258 117.778-2.334 11.771-3.924-.778L35.334 117l3.924.778Z"/><path fill="#fff" d="m79.168 104.305-9.915 6.76L67 107.76l9.915-6.76 2.253 3.305Z"/><path fill="#0052FF" d="m66.943 65.789-5.365 10.733L58 74.733 63.365 64l3.578 1.789Z"/><path fill="#fff" d="m113.605 45 9.104 7.818-2.606 3.035-9.104-7.818L113.605 45Z"/><path fill="#0052FF" d="M82 34.048 93.824 32l.683 3.941-11.824 2.048L82 34.048ZM156.07 95l11.563 3.21-1.07 3.854L155 98.854 156.07 95Z"/></svg>