<svg xmlns="http://www.w3.org/2000/svg" fill="none" viewBox="0 0 48 48"><path fill="#0A0B0D" d="m40.983 36.362 1.108-.64 5.637 9.764-3.948 2.28-5.638-9.764 1.108-.64L35 30l1.732-1 4.25 7.362Z"/><path fill="#CED2DB" d="M0 0h32v48H0V0Z"/><path fill="#CED2DB" d="M48 20c0 8.837-7.163 16-16 16s-16-7.163-16-16S23.163 4 32 4s16 7.163 16 16Z"/><path fill="#0052FF" d="M32 36a16.001 16.001 0 0 1 0-32v32Z"/><path fill="#0A0B0D" fill-rule="evenodd" d="M28 19H4v-2h24v2Zm0-6H4v-2h24v2Zm0 18H4v-2h24v2Zm-8 6h-8v-2h8v2Zm8-12H4v-2h24v2Z" clip-rule="evenodd"/></svg>