<svg xmlns="http://www.w3.org/2000/svg" fill="none" viewBox="0 0 48 48"><path fill="#CED2DB" d="M40.63 24c0 11.34-8.98 20.58-20.21 21a.79.79 0 0 1-.81-.79v-4.6c8.61 0 15.61-7 15.61-15.61s-7-15.61-15.61-15.61v-4.6c0-.44.37-.8.81-.79 11.23.42 20.21 9.66 20.21 21Z"/><path fill="#0053FF" d="M19.61 36.61c6.96 0 12.61-5.65 12.61-12.61 0-6.96-5.65-12.61-12.61-12.61C12.65 11.39 7 17.04 7 24c0 6.96 5.65 12.61 12.61 12.61Z"/><path fill="#0A0B0D" d="M19.61 11.39v25.22c6.96 0 12.61-5.65 12.61-12.61 0-6.96-5.65-12.61-12.61-12.61Z"/><path fill="#fff" d="m19.61 18.75 1.38 3.88 3.88 1.38-3.88 1.38-1.38 3.88-1.38-3.88-3.88-1.38 3.88-1.38 1.38-3.88Z"/></svg>