<svg xmlns="http://www.w3.org/2000/svg" fill="none" viewBox="0 0 240 240"><path fill="#0A0B0D" fill-rule="evenodd" d="M207 120h2c0-13.257-2.914-25.848-8.135-37.164-.524.43-1.08.822-1.663 1.172C204.209 94.982 207 107.172 207 120Zm-23.344-59.243a13.967 13.967 0 0 1 1.716-1.092C169.101 42.05 145.818 31 120 31v2c25.105 0 47.761 10.69 63.656 27.757Z" clip-rule="evenodd"/><path fill="#CED2DB" fill-rule="evenodd" d="M138.878 172.726C151.45 179.469 160 192.737 160 208c0 11.283-4.672 21.475-12.187 28.747C200.616 224.17 240 176.599 240 120h-64c0 24.259-15.503 44.963-37.122 52.726ZM92.187 3.253C39.384 15.83 0 63.4 0 120h64c0-24.26 15.503-44.963 37.122-52.727C88.55 60.531 80 47.263 80 32c0-11.283 4.672-21.475 12.187-28.747Z" clip-rule="evenodd"/><path fill="#0A0B0D" d="m118.021 33.02-.05-2c.67-.02 1.35-.02 2.02-.02v2c-.65 0-1.31.01-1.97.02ZM33 120h-2c0-.68.01-1.35.02-2.02l2 .05c-.01.65-.02 1.31-.02 1.97Z"/><path fill="#0A0B0D" d="M15 120c0-44.182 27.425-82.075 66.148-97.551-.192.78-.36 1.57-.504 2.367C43.32 40.308 17 77.141 17 120c0 19.287 5.33 37.353 14.594 52.804-.543.408-1.056.855-1.533 1.336C20.504 158.322 15 139.792 15 120Zm32.46 75.849C66.325 213.898 91.89 225 120 225v-2c-27.446 0-52.421-10.793-70.903-28.358-.515.44-1.062.844-1.637 1.207ZM120 15v2c56.79 0 103 46.21 103 103h2c0-57.9-47.1-105-105-105Z"/><path fill="#0052FF" d="M120 152c17.673 0 32-14.327 32-32 0-17.673-14.327-32-32-32-17.673 0-32 14.327-32 32 0 17.673 14.327 32 32 32Z"/><path fill="#0A0B0D" fill-rule="evenodd" d="M87.145 54.82C63.351 66.865 47 91.56 47 120h2c0-27.782 16.04-51.889 39.345-63.545a40.157 40.157 0 0 1-1.2-1.634Z" clip-rule="evenodd"/><path fill="#0052FF" d="M32 152c17.673 0 32-14.327 32-32 0-17.673-14.327-32-32-32-17.673 0-32 14.327-32 32 0 17.673 14.327 32 32 32Z"/><path fill="#0A0B0D" d="M151.655 183.545c.413.534.814 1.079 1.2 1.634C176.649 173.136 193 148.44 193 120h-2c0 27.782-16.039 51.889-39.345 63.545ZM32 88c-17.67 0-32 14.33-32 32h64c0-17.67-14.33-32-32-32Z"/><path fill="#0052FF" d="M208 152c17.673 0 32-14.327 32-32 0-17.673-14.327-32-32-32-17.673 0-32 14.327-32 32 0 17.673 14.327 32 32 32Z"/><path fill="#0A0B0D" d="M176 120c0 17.67 14.33 32 32 32s32-14.33 32-32h-64ZM80.814 40.065c.138.675.293 1.343.465 2.006-.623.31-1.244.628-1.859.949l-.93-1.77a86.693 86.693 0 0 1 2.324-1.185ZM31.21 113.83l2 .14c.09-1.33.21-2.68.37-4.01l-1.99-.23c-.16 1.36-.29 2.74-.38 4.1Zm.94-8.17 1.97.32c.22-1.31.46-2.64.74-3.95l-1.96-.41c-.28 1.33-.53 2.69-.75 4.04Zm1.69-8.04 1.94.5c.33-1.29.7-2.6 1.09-3.87l-1.91-.59c-.4 1.31-.78 2.64-1.12 3.96Zm2.43-7.86 1.88.68c.45-1.25.94-2.51 1.45-3.74l-1.85-.77c-.52 1.27-1.02 2.55-1.48 3.83Zm3.14-7.58 1.81.85c.57-1.2 1.17-2.41 1.79-3.59l-1.77-.93a83.58 83.58 0 0 0-1.83 3.67Zm3.84-7.26 1.72 1.01c.68-1.15 1.39-2.29 2.12-3.41l-1.67-1.09c-.75 1.14-1.48 2.32-2.17 3.49Zm4.49-6.88 1.62 1.17c.78-1.08 1.59-2.16 2.42-3.21l-1.56-1.24c-.85 1.07-1.69 2.18-2.48 3.28Zm5.1-6.44 1.51 1.31c.88-1.01 1.79-2.01 2.71-2.97l-1.45-1.38c-.94.99-1.87 2.01-2.77 3.04Zm5.68-5.96 1.38 1.45c.97-.92 1.97-1.83 2.97-2.71l-1.31-1.51c-1.03.89-2.05 1.83-3.04 2.77Zm6.2-5.4 1.24 1.57a93.21 93.21 0 0 1 3.21-2.43L68 47.76c-1.11.79-2.21 1.63-3.28 2.48Zm6.68-4.8 1.09 1.67c1.11-.73 2.26-1.45 3.42-2.12l-1.01-1.72c-1.18.69-2.36 1.42-3.5 2.17Zm87.684 171.107c.096-.44.185-.884.266-1.33a93.391 93.391 0 0 0 2.959-1.277l.82 1.82c-1.21.55-2.47 1.08-3.72 1.59l-.325-.803Zm6.815-4.307.89 1.79c1.19-.6 2.39-1.23 3.59-1.88l-.96-1.75c-1.17.64-2.35 1.26-3.52 1.84Zm6.95-3.81 1.03 1.71c1.15-.69 2.3-1.41 3.42-2.13l-1.09-1.68c-1.1.71-2.23 1.42-3.36 2.1Zm6.64-4.33 1.16 1.63c1.09-.78 2.18-1.59 3.25-2.39l-1.22-1.59c-1.04.8-2.12 1.59-3.19 2.35Zm6.28-4.83 1.28 1.54a94.77 94.77 0 0 0 3.06-2.64l-1.34-1.49c-.99.88-1.99 1.76-3 2.59Zm5.9-5.3 1.39 1.44c.96-.93 1.92-1.89 2.85-2.87l-1.45-1.38c-.91.95-1.85 1.9-2.79 2.81Zm5.47-5.72 1.5 1.33c.88-1 1.76-2.03 2.62-3.07l-1.55-1.27c-.84 1.02-1.7 2.03-2.57 3.01Zm5.02-6.12 1.59 1.21c.81-1.07 1.61-2.17 2.38-3.27l-1.64-1.14c-.75 1.08-1.54 2.15-2.33 3.2Zm4.53-6.48 1.68 1.08c.72-1.13 1.44-2.28 2.11-3.43l-1.72-1.02c-.66 1.14-1.36 2.27-2.07 3.37Zm4.02-6.81 1.76.95c.64-1.19 1.26-2.39 1.84-3.58l-1.79-.88c-.57 1.17-1.18 2.35-1.81 3.51Zm3.48-7.1 1.83.81c.54-1.21 1.06-2.46 1.56-3.71l-1.86-.74c-.49 1.22-1 2.45-1.53 3.64Z"/><path fill="#0A0B0D" d="m217.119 154.4 1.88.67c.45-1.28.88-2.57 1.28-3.84l-1.91-.59c-.39 1.25-.81 2.51-1.25 3.76Zm2.35-7.56 1.93.52c.35-1.3.68-2.62.97-3.92l-1.95-.44c-.29 1.28-.61 2.57-.95 3.84Zm1.77-7.72 1.96.37c.24-1.32.47-2.66.67-3.98l-1.98-.29c-.19 1.29-.41 2.61-.65 3.9Zm1.15-7.84 1.99.22c.14-1.33.26-2.68.35-4.03l-1.99-.14c-.09 1.32-.21 2.65-.35 3.95Zm.55-7.89 2 .06c.04-1.15.06-2.3.05-3.44h-2c0 1.13-.01 2.26-.05 3.38Z"/><path fill="#FFD200" d="M120 64c17.673 0 32-14.327 32-32 0-17.673-14.327-32-32-32-17.673 0-32 14.327-32 32 0 17.673 14.327 32 32 32Z"/><path fill="#00D17F" d="M120 240c17.673 0 32-14.327 32-32 0-17.673-14.327-32-32-32-17.673 0-32 14.327-32 32 0 17.673 14.327 32 32 32Z"/><path fill="#0052FF" d="M134.349 210.17v8.9c0 2.44-1.98 4.43-4.43 4.43h-6.78v4.5h-15.46v-13.67a15.425 15.425 0 0 1-4.45-10.85c0-8.54 6.93-15.48 15.48-15.48 6.65 0 12.32 4.19 14.51 10.08v-.01l5.56 12.09h-4.43v.01Z"/><path fill="#0A0B0D" d="m134.35 206.5-1.92-.47 1.91-7.84 1.92.47-1.91 7.84Z"/><path fill="#0A0B0D" d="M116.929 201.23h17.76v-1.67h-18.45l-4.72 4.72 1.18 1.18 4.23-4.23Z"/><path fill="#0052FF" d="m101.46 32.16 5.57-12.09v.01c2.19-5.89 7.85-10.08 14.51-10.08 8.55 0 15.48 6.93 15.48 15.48 0 4.23-1.7 8.06-4.45 10.85v13.66h-15.46v-4.5h-6.78c-2.44 0-4.43-1.98-4.43-4.43v-8.9h-4.44Z"/><path fill="#0A0B0D" d="M113.24 25.99c-1.1 0-2-.9-2-2s.9-2 2-2 2 .9 2 2-.9 2-2 2Z"/><path fill="#fff" d="M46.95 111.32c-1.86-6.05-7.49-10.45-14.16-10.45-8.18 0-14.81 6.63-14.81 14.81 0 .76.08 1.5.19 2.23-3.42.11-6.17 2.91-6.17 6.36 0 3.52 2.85 6.37 6.37 6.37 1.45 0 2.79-.49 3.86-1.31v9.81h14.79V134l7.65-1a3.528 3.528 0 0 0 3.07-3.5v-7.69l4.26-.91-5.05-9.58Z"/><path fill="#0A0B0D" d="M42 114c0-1.1-.9-2-2-2s-2 .9-2 2 .9 2 2 2 2-.9 2-2Z"/><path fill="#fff" d="M223.989 115.48c0-8.54-6.93-15.48-15.48-15.48-6.96 0-12.85 4.6-14.79 10.92l-5.28 10.01 4.44.96v8.04a3.69 3.69 0 0 0 3.21 3.66l7.99 1.04V140h19.92l-.01-24.52Z"/><path fill="#0A0B0D" d="M204 114c0-1.1-.9-2-2-2s-2 .9-2 2 .9 2 2 2 2-.9 2-2Z"/><path fill="#FFD200" d="M219.62 32h.75c0-6.42 5.2-11.62 11.62-11.62v-.75c-6.42 0-11.62-5.2-11.62-11.62h-.75c0 6.42-5.2 11.62-11.62 11.62v.75c6.42 0 11.62 5.2 11.62 11.62Z"/><path fill="#5DE2F8" d="M20.38 208h-.75c0 6.42-5.2 11.62-11.62 11.62v.75c6.42 0 11.62 5.2 11.62 11.62h.75c0-6.42 5.2-11.62 11.62-11.62v-.75c-6.42 0-11.62-5.2-11.62-11.62Z"/><path fill="#00D17F" d="M159.75 80h.5a7.75 7.75 0 0 1 7.75-7.75v-.5a7.75 7.75 0 0 1-7.75-7.75h-.5a7.75 7.75 0 0 1-7.75 7.75v.5a7.75 7.75 0 0 1 7.75 7.75Z"/><path fill="#0052FF" d="M80.25 168h-.5a7.75 7.75 0 0 1-7.75 7.75v.5a7.75 7.75 0 0 1 7.75 7.75h.5a7.75 7.75 0 0 1 7.75-7.75v-.5a7.75 7.75 0 0 1-7.75-7.75Z"/><path fill="#5DE2F8" d="M192 82c5.523 0 10-4.477 10-10s-4.477-10-10-10-10 4.477-10 10 4.477 10 10 10Z"/><path fill="#0A0B0D" d="M193 67h-2v10h2V67Z"/><path fill="#0A0B0D" d="M197 71h-10v2h10v-2ZM61.25 152h-2v7.5h2V152Z"/><path fill="#0A0B0D" d="M64 154.75h-7.5v2H64v-2ZM230.62 56h-2v11.25h2V56Z"/><path fill="#0A0B0D" d="M235.25 60.62H224v2h11.25v-2Z"/><path fill="#FFD200" d="M40 194c5.523 0 10-4.477 10-10s-4.477-10-10-10-10 4.477-10 10 4.477 10 10 10Z"/><path fill="#0A0B0D" d="M41 179h-2v10h2v-10Z"/><path fill="#0A0B0D" d="M45 183H35v2h10v-2Z"/><path fill="#0A0B0D" fill-rule="evenodd" d="M92.28 136c5.53-9.57 15.869-16 27.719-16 11.85 0 22.19 6.44 27.73 16-5.53 9.57-15.88 15.99-27.71 15.99-11.86.01-22.19-6.43-27.74-15.99 0 .01 0 .01 0 0Z" clip-rule="evenodd"/><path fill="#fff" d="M119.999 118c5.52 0 10-4.48 10-10s-4.48-10-10-10-10 4.48-10 10 4.48 10 10 10Z"/><path fill="#0A0B0D" d="M120 161c-22.61 0-41-18.39-41-41s18.39-41 41-41 41 18.39 41 41-18.39 41-41 41Zm0-80c-21.5 0-39 17.5-39 39s17.5 39 39 39 39-17.5 39-39-17.5-39-39-39Z"/></svg>