<svg xmlns="http://www.w3.org/2000/svg" fill="none" viewBox="0 0 240 241"><path fill="#CED2DB" d="M0 0h240v116H0V0Zm240 162v78H0v-78h240Z"/><path fill="#0A0B0D" d="M33 88c0-48.601 39.399-88 88-88s88 39.399 88 88v152H33V88Z"/><path fill="#0052FF" fill-rule="evenodd" d="M33 240h176v-78H33v78Z" clip-rule="evenodd"/><path fill="#5DE2F8" fill-rule="evenodd" d="M90.824 5.203C100.17 1.836 110.245 0 120.75 0c46.534 0 84.656 36.017 88.01 81.695C195.828 93.676 178.519 101 159.5 101 119.459 101 87 68.54 87 28.5c0-8.15 1.345-15.985 3.824-23.297Z" clip-rule="evenodd"/><path fill="#00D17F" fill-rule="evenodd" d="M117.147 241H63.853C55.363 233.576 50 222.664 50 210.5c0-22.368 18.132-40.5 40.5-40.5s40.5 18.132 40.5 40.5c0 12.164-5.363 23.076-13.853 30.5Z" clip-rule="evenodd"/><path fill="#fff" d="M77 214h132v26H77v-26Zm20-26h112v26H97v-26Zm23-26h89v26h-89v-26ZM142.019 2.58a242.936 242.936 0 0 0-14.667 8.193C105.376 24.053 87.829 39.27 77.146 52.87c-5.36 6.825-8.72 12.898-10.233 17.826-1.515 4.935-.94 7.803.044 9.432.985 1.629 3.256 3.471 8.33 4.424 5.067.952 12.005.802 20.54-.77 17.008-3.134 38.639-11.594 60.615-24.874 13.028-7.874 24.5-16.428 33.908-24.923a88.117 88.117 0 0 1 4.662 6.566c-9.712 8.682-21.364 17.306-34.433 25.203C115.41 93.053 70.429 101.34 60.11 84.266c-10.318-17.073 17.935-53.043 63.104-80.34a256.414 256.414 0 0 1 6.014-3.524 88.012 88.012 0 0 1 12.791 2.178Z"/><path fill="#0052FF" fill-rule="evenodd" d="M116.21 86.662c13.883-4.638 29.116-11.688 44.37-20.907 13.068-7.897 24.72-16.521 34.432-25.203a88.115 88.115 0 0 0-4.662-6.566c-9.408 8.495-20.88 17.049-33.908 24.922-16.618 10.043-33.039 17.329-47.413 21.64a72.861 72.861 0 0 0 7.181 6.114ZM88.038 40.791a72.815 72.815 0 0 1-1.005-10.08c10.05-9.214 22.319-18.408 36.181-26.785a256.466 256.466 0 0 1 6.014-3.524 87.99 87.99 0 0 1 12.791 2.178 242.962 242.962 0 0 0-14.667 8.193c-15.641 9.452-29.038 19.885-39.314 30.018Z" clip-rule="evenodd"/><path fill="#5DE2F8" fill-rule="evenodd" d="M189.092 32.412 88.056 40.9A72.972 72.972 0 0 1 87 28.5c0-8.15 1.345-15.985 3.824-23.297C100.17 1.836 110.245 0 120.75 0c27.554 0 52.159 12.628 68.342 32.412Z" clip-rule="evenodd"/><path fill="#0A0B0D" fill-rule="evenodd" d="M209 188h-89v-2h89v2Z" clip-rule="evenodd"/><path fill="#FFD200" d="M60.5 162a42.678 42.678 0 0 0 17 17 42.672 42.672 0 0 0-17 17 42.672 42.672 0 0 0-17-17 42.678 42.678 0 0 0 17-17Z"/><path fill="#0A0B0D" fill-rule="evenodd" d="M209 214H97v-2h112v2Z" clip-rule="evenodd"/><path fill="#FFD200" d="M209 116a57.735 57.735 0 0 0 23 23 57.73 57.73 0 0 0-23 23 57.735 57.735 0 0 0-23-23 57.742 57.742 0 0 0 23-23Z"/><path fill="#0052FF" fill-rule="evenodd" d="M71.269 174.848a42.694 42.694 0 0 0 6.23 4.152 42.678 42.678 0 0 0-17 17 42.743 42.743 0 0 0-4.522-6.688 40.697 40.697 0 0 1 15.292-14.464ZM209 116v46a57.735 57.735 0 0 0-23-23 57.742 57.742 0 0 0 23-23Z" clip-rule="evenodd"/></svg>