<svg xmlns="http://www.w3.org/2000/svg" fill="none" viewBox="0 0 96 96"><path fill="#00D17F" d="M0 28a4 4 0 0 1 4-4h88a4 4 0 0 1 4 4v8H0v-8Zm0 36h96v28a4 4 0 0 1-4 4H4a4 4 0 0 1-4-4V64Z"/><path fill="#CED2DB" d="M8 64h32V0H8v64Zm48 0c0-8.837 7.163-16 16-16h24v32H72c-8.837 0-16-7.163-16-16Z"/><path fill="#0052FF" fill-rule="evenodd" d="M96 64v16H72c-8.837 0-16-7.163-16-16h40Z" clip-rule="evenodd"/><path fill="#0052FF" d="M8 24h32v12H8V24Z"/><path fill="#FFD200" d="M24 48c-8.837 0-16 7.163-16 16h32c0-8.837-7.163-16-16-16Z"/><path fill="#0052FF" d="M24 80c8.837 0 16-7.163 16-16H8c0 8.837 7.163 16 16 16Z"/><path fill="#0A0B0D" fill-rule="evenodd" d="M24 77c7.18 0 13-5.82 13-13s-5.82-13-13-13-13 5.82-13 13 5.82 13 13 13Zm10.878-13c0 6.007-4.87 10.878-10.878 10.878S13.122 70.008 13.122 64 17.992 53.122 24 53.122 34.878 57.992 34.878 64Zm38.168 12.25c6.765 0 12.25-5.484 12.25-12.25s-5.485-12.25-12.25-12.25c-6.766 0-12.25 5.484-12.25 12.25s5.484 12.25 12.25 12.25ZM83.296 64c0 5.66-4.59 10.25-10.25 10.25-5.661 0-10.25-4.59-10.25-10.25s4.589-10.25 10.25-10.25c5.66 0 10.25 4.59 10.25 10.25Z" clip-rule="evenodd"/></svg>