<svg xmlns="http://www.w3.org/2000/svg" fill="none" viewBox="0 0 240 240"><path fill="#CED2DB" d="M208 24H32v152h176V24z"/><path fill="#CED2DB" d="M184 0H56v176h128V0z"/><path fill="#0052FF" d="M184 24H56v152h128V24z"/><path fill="#FFD200" d="M120.3 240c26.509 0 48-21.49 48-48s-21.491-48-48-48c-26.51 0-48 21.49-48 48s21.49 48 48 48z"/><path fill="#0A0B0D" fill-rule="evenodd" d="M120.3 162.7c-16.148 0-29.3 13.152-29.3 29.3h-2c0-17.252 14.048-31.3 31.3-31.3 17.252 0 31.3 14.048 31.3 31.3 0 17.252-14.048 31.3-31.3 31.3-12.503 0-23.243-7.337-28.301-17.867l1.802-.866c4.742 9.87 14.802 16.733 26.499 16.733 16.148 0 29.3-13.152 29.3-29.3 0-16.148-13.152-29.3-29.3-29.3z" clip-rule="evenodd"/><path fill="#0A0B0D" fill-rule="evenodd" d="m91.3 202.733 18.084 3.384-.368 1.966-16.117-3.016-3.016 16.117-1.966-.368 3.384-18.083zm25.1-21.833h2v16.4h11.4v2h-13.4v-18.4zM104 65H88v-2h16v2zm40 0h-32v-2h32v2zm24 0h-16v-2h16v2zm-24 8h-32v-2h32v2zm24 0h-16v-2h16v2zm-64 8H88v-2h16v2zm40 0h-32v-2h32v2zm24 0h-16v-2h16v2zm-24 8h-32v-2h32v2zm24 0h-16v-2h16v2zm-64 8H88v-2h16v2zm40 0h-32v-2h32v2zm24 0h-16v-2h16v2zm-24 8h-32v-2h32v2zm24 0h-16v-2h16v2zm-64 8H88v-2h16v2zm40 0h-32v-2h32v2zm24 0h-16v-2h16v2zm-24 8h-32v-2h32v2zm24 0h-16v-2h16v2z" clip-rule="evenodd"/><path fill="#0A0B0D" d="M166 42v4H74v-4h92zm2-2H72v8h96v-8z"/><path fill="#fff" d="M75 176c6.6-18.6 24.4-32 45.3-32s38.7 13.4 45.3 32h4.2c-6.8-20.9-26.4-36-49.5-36s-42.7 15.1-49.5 36H75z"/><path fill="#FFD200" d="M76 67.9a4 4 0 1 0 0-8 4 4 0 0 0 0 8zM75.9 84a4 4 0 1 0 0-8 4 4 0 0 0 0 8zm-.1 16a4 4 0 1 0 0-8 4 4 0 0 0 0 8zm0 16a4 4 0 1 0 0-8 4 4 0 0 0 0 8z"/><path fill="#0A0B0D" fill-rule="evenodd" d="M104.2 128.9h-16v-2h16v2zm40 0h-32v-2h32v2zm24 0h-16v-2h16v2z" clip-rule="evenodd"/><path fill="#FFD200" d="M76 131.8a4 4 0 1 0 0-8 4 4 0 0 0 0 8z"/></svg>