<svg xmlns="http://www.w3.org/2000/svg" fill="none" viewBox="0 0 240 240"><g clip-path="url(#a)"><path fill="#00D17F" d="M131 120c24.301 0 44 19.699 44 44s-19.699 44-44 44-44-19.699-44-44 19.699-44 44-44zm-22 0c-24.3 0-44-19.699-44-44 0-24.3 19.7-44 44-44 24.301 0 44 19.7 44 44 0 24.301-19.699 44-44 44z"/><path fill="#FFD200" d="M196 120c24.301 0 44 19.699 44 44s-19.699 44-44 44-44-19.699-44-44 19.699-44 44-44z"/><path fill="#fff" fill-rule="evenodd" d="M196 116c26.51 0 48 21.49 48 48s-21.49 48-48 48-48-21.49-48-48 21.49-48 48-48zm44 48c0-24.301-19.699-44-44-44s-44 19.699-44 44 19.699 44 44 44 44-19.699 44-44z" clip-rule="evenodd"/><path fill="#FFD200" d="M44 120c-24.3 0-44-19.699-44-44 0-24.3 19.7-44 44-44s44 19.7 44 44c0 24.301-19.7 44-44 44z"/><path fill="#fff" fill-rule="evenodd" d="M44 124c-26.51 0-48-21.49-48-48s21.49-48 48-48 48 21.49 48 48-21.49 48-48 48zM0 76c0 24.301 19.7 44 44 44s44-19.699 44-44c0-24.3-19.7-44-44-44S0 51.7 0 76z" clip-rule="evenodd"/><path fill="#0A0B0D" fill-rule="evenodd" d="M164.916 164c0 17.167 13.916 31.083 31.083 31.083v2c-18.271 0-33.083-14.812-33.083-33.083s14.812-33.083 33.083-33.083v2c-17.166 0-31.083 13.916-31.083 31.083zm62.167 0c0-17.167-13.916-31.083-31.083-31.083v-2c18.271 0 33.083 14.812 33.083 33.083S214.271 197.083 196 197.083v-2c17.167 0 31.083-13.916 31.083-31.083zM75.084 76c0-17.167-13.917-31.083-31.083-31.083v-2c18.271 0 33.083 14.811 33.083 33.083 0 18.271-14.812 33.083-33.083 33.083v-2c17.166 0 31.083-13.916 31.083-31.083zm-62.167 0c0 17.167 13.917 31.083 31.083 31.083v2c-18.271 0-33.083-14.811-33.083-33.083 0-18.271 14.812-33.083 33.083-33.083v2c-17.166 0-31.083 13.916-31.083 31.083z" clip-rule="evenodd"/><path fill="#0A0B0D" fill-rule="evenodd" d="M195 184v-40h2v40h-2z" clip-rule="evenodd"/><path fill="#0A0B0D" fill-rule="evenodd" d="M176 163h40v2h-40v-2z" clip-rule="evenodd"/><path fill="#0A0B0D" fill-rule="evenodd" d="m184.073 174.513 22.44-22.44 1.414 1.414-22.439 22.44-1.415-1.414z" clip-rule="evenodd"/><path fill="#0A0B0D" fill-rule="evenodd" d="m185.487 152.073 22.44 22.44-1.414 1.414-22.44-22.44 1.414-1.414zM45 56v40h-2V56h2z" clip-rule="evenodd"/><path fill="#0A0B0D" fill-rule="evenodd" d="M64 77H24v-2h40v2z" clip-rule="evenodd"/><path fill="#0A0B0D" fill-rule="evenodd" d="m55.927 65.487-22.44 22.44-1.414-1.415 22.44-22.439 1.414 1.414z" clip-rule="evenodd"/><path fill="#0A0B0D" fill-rule="evenodd" d="m54.513 87.927-22.44-22.44 1.414-1.414 22.44 22.44-1.414 1.414z" clip-rule="evenodd"/><path fill="#5DE2F8" d="M66 120c24.3 0 44 19.699 44 44s-19.7 44-44 44-44-19.699-44-44 19.7-44 44-44z"/><path fill="#CED2DB" fill-rule="evenodd" d="M0 207.989c.332.007.666.011 1 .011 24.3 0 44-19.699 44-44s-19.7-44-44-44c-.334 0-.668.004-1 .011v87.978z" clip-rule="evenodd"/><path fill="#0052FF" fill-rule="evenodd" d="M98.5 134.339c7.143 7.823 11.5 18.233 11.5 29.661s-4.357 21.838-11.5 29.661C91.357 185.838 87 175.428 87 164s4.357-21.838 11.5-29.661zm-65-.339c-7.143 7.823-11.5 18.233-11.5 29.661s4.357 21.838 11.5 29.661c7.143-7.823 11.5-18.233 11.5-29.661S40.643 141.823 33.5 134z" clip-rule="evenodd"/><path fill="#0A0B0D" fill-rule="evenodd" d="M115 165H0v-2h115v2z" clip-rule="evenodd"/><path fill="#0A0B0D" fill-rule="evenodd" d="M135 165h-25v-2h25v2z" clip-rule="evenodd"/><path fill="#0A0B0D" fill-rule="evenodd" d="m133.253 164-13.96 13.96 1.414 1.414L136.081 164l-15.374-15.374-1.414 1.414 13.96 13.96z" clip-rule="evenodd"/><path fill="#5DE2F8" d="M174 120c-24.301 0-44-19.699-44-44 0-24.3 19.699-44 44-44s44 19.7 44 44c0 24.301-19.699 44-44 44z"/><path fill="#CED2DB" fill-rule="evenodd" d="M240 32.011a44.92 44.92 0 0 0-1-.011c-24.301 0-44 19.7-44 44 0 24.301 19.699 44 44 44 .334 0 .668-.004 1-.011V32.011z" clip-rule="evenodd"/><path fill="#0052FF" fill-rule="evenodd" d="M141.5 105.661C134.357 97.838 130 87.428 130 76s4.357-21.839 11.5-29.661C148.643 54.161 153 64.572 153 76s-4.357 21.838-11.5 29.661z" clip-rule="evenodd"/><path fill="#0A0B0D" fill-rule="evenodd" d="m104.414 76 13.96-13.96-1.414-1.414L101.586 76l15.374 15.374 1.414-1.414L104.414 76z" clip-rule="evenodd"/><path fill="#0052FF" fill-rule="evenodd" d="M206.5 105.661C213.643 97.838 218 87.428 218 76s-4.357-21.839-11.5-29.661C199.357 54.161 195 64.572 195 76s4.357 21.838 11.5 29.661z" clip-rule="evenodd"/><path fill="#0A0B0D" fill-rule="evenodd" d="M103.5 75H240v2H103.5v-2z" clip-rule="evenodd"/></g><defs><clipPath id="a"><path fill="#fff" d="M0 0h240v240H0z"/></clipPath></defs></svg>