<svg xmlns="http://www.w3.org/2000/svg" fill="none" viewBox="0 0 48 48"><path fill="#CED2DB" d="M0 24h48v24H0V24z"/><path fill="#00D17F" d="M6 8h8v16H6V8z"/><path fill="#0A0B0D" d="M6 24h8v8H6v-8z"/><path fill="#F34" d="M20 16h8v8h-8v-8z"/><path fill="#0A0B0D" d="M20 24h8v16h-8V24z"/><path fill="#00D17F" d="M34 6h8v18h-8V6z"/><path fill="#0A0B0D" d="M34 24h8v6h-8v-6z"/><path fill="#F34" d="M23 10h2v6h-2v-6z"/><path fill="#00D17F" d="M9 2h2v6H9V2zm28-2h2v6h-2V0z"/><path fill="#0A0B0D" d="M37 30h2v6h-2v-6zM9 32h2v6H9v-6zm14 8h2v6h-2v-6z"/></svg>