<svg xmlns="http://www.w3.org/2000/svg" fill="none" viewBox="0 0 120 120"><path fill="#0052FF" d="M84 46.7c-11 0-20 9-20 20V104h40V66.7c0-11.1-9-20-20-20z"/><path fill="#CED2DB" d="M36 40c6.627 0 12-5.373 12-12s-5.373-12-12-12-12 5.373-12 12 5.373 12 12 12z"/><path fill="#0052FF" d="M84 40c6.627 0 12-5.373 12-12s-5.373-12-12-12-12 5.373-12 12 5.373 12 12 12z"/><path fill="#CED2DB" d="M36 46.7c-11 0-20 9-20 20V104h40V66.7c0-11.1-9-20-20-20z"/><path fill="#CED2DB" d="M84.5 64H32v24h52.5V64z"/><path fill="#0052FF" d="M16 88h40V66.7c0-.9-.167-1.8-.333-2.7H16v24z"/><path fill="#0A0B0D" d="M84.5 88V64H64.2c-.1.9-.2 1.8-.2 2.7V88h20.5z"/><path fill="#fff" d="M84 88c6.627 0 12-5.373 12-12s-5.373-12-12-12-12 5.373-12 12 5.373 12 12 12z"/><path fill="#0A0B0D" d="M84 69.8c3.4 0 6.2 2.8 6.2 6.2 0 3.4-2.8 6.2-6.2 6.2-3.4 0-6.2-2.8-6.2-6.2 0-3.4 2.8-6.2 6.2-6.2zm0-2c-4.5 0-8.2 3.7-8.2 8.2 0 4.5 3.7 8.2 8.2 8.2 4.5 0 8.2-3.7 8.2-8.2 0-4.5-3.7-8.2-8.2-8.2z"/></svg>