<svg xmlns="http://www.w3.org/2000/svg" fill="none" viewBox="0 0 240 240"><g clip-path="url(#a)"><path fill="#CED2DB" d="M-4 32h244v136H-4V32Z"/><path fill="#CED2DB" d="M208 0v206.555l-44 7.486L120 235l-44-20.959-44-7.486V0h176Z"/><path fill="#0052FF" d="M32 32h176v136H32V32Z"/><path fill="#5DE2F8" fill-rule="evenodd" d="M22 203.5 32 192l68.018 7.558A22.461 22.461 0 0 1 120 221.882a22.461 22.461 0 0 1 19.982-22.324L208 192l10 11.5-87.5 17.5-10.5 18.5-10.5-18.5L22 203.5Z" clip-rule="evenodd"/><path fill="#0052FF" fill-rule="evenodd" d="M32 205.5V192l68.018 7.558A22.461 22.461 0 0 1 120 221.882a22.461 22.461 0 0 1 19.982-22.324L208 192v13.5l-35.324 7.065-8.676 1.476-.938.447L130.5 221l-7 12.333L120 235l-3.5-1.667-7-12.333-32.562-6.512-.938-.447-8.677-1.476L32 205.5Z" clip-rule="evenodd"/><path fill="#0A0B0D" d="M16 200v12l88 15.5c.833 4.167 6 12.5 16 12.5s15.167-8.333 16-12.5l88-15.5v-12l-96 16-8 16-8-16-96-16ZM40 40h88v80H40V40Zm0 88h88v32H40v-32Zm96-88h64v120h-64V40Z"/><path fill="#FDCF2F" d="M208.001 17A8 8 0 0 0 200 9a8 8 0 0 0 8.001-8A8 8 0 0 0 216 9a7.999 7.999 0 0 0-7.999 8Zm16 27c0-6.629-5.372-11.999-12.001-11.999 6.629 0 12.001-5.372 12.001-12.001 0 6.628 5.373 12.001 11.999 12.001-6.626 0-11.999 5.37-11.999 11.999Z"/><path fill="#0052FF" fill-rule="evenodd" d="M212 32.001c6.629 0 12.001 5.37 12.001 11.999 0-6.629 5.373-11.999 11.999-11.999l-.172-.001h-23.656l-.172.001Z" clip-rule="evenodd"/><path fill="#FDCF2F" d="M16 176a7.999 7.999 0 0 0-8-7.999A8 8 0 0 0 16 160a8 8 0 0 0 8 8.001A8 8 0 0 0 16 176Z"/><path fill="#0052FF" fill-rule="evenodd" d="M23.885 168H8.115a8 8 0 0 0 7.886-8 8 8 0 0 0 7.884 8ZM208 1.115v15.77A8 8 0 0 0 200 9a8 8 0 0 0 8-7.886Z" clip-rule="evenodd"/><path fill="#00D17F" d="M64 64h8v40h-8V64Z"/><path fill="#FF7800" d="M80 72h8v32h-8V72ZM48 88h8v24h-8V88Z"/><path fill="#00D17F" d="M96 48h8v40h-8V48Zm16 8h8v40h-8V56Z"/><path fill="#fff" fill-rule="evenodd" d="M117 52v4h-2v-4h2Zm-16-8v4h-2v-4h2Zm0 44v4h-2v-4h2ZM85 68v4h-2v-4h2Zm0 36v4h-2v-4h2Zm-16 0v4h-2v-4h2Zm0-44v4h-2v-4h2Zm-16 52v4h-2v-4h2Zm0-28v4h-2v-4h2Zm64 12v4h-2v-4h2Zm-34 34v-2h2v2h-2Zm0 8v-4h2v4h-2Zm0 4h2v4h-2v-4Zm0 12v-4h2v4h-2Zm0 6v-2h2v2h-2Z" clip-rule="evenodd"/><path fill="#FF7800" d="m88 152-3.5 8H128v-32l-16 16H96v8h-8Z"/><path fill="#00D17F" d="M56 144h8l8 8h5l6.5 8H40v-32h8l8 8v8Z"/><path fill="#FF7800" d="M168 48h32v16h-32V48Zm0 40h32v16h-32V88Z"/><path fill="#00D17F" d="M136 120h64v16h-64v-16Zm32 16h32v16h-32v-16Z"/></g><defs><clipPath id="a"><path fill="#fff" d="M0 0h240v240H0z"/></clipPath></defs></svg>