<svg xmlns="http://www.w3.org/2000/svg" fill="none" viewBox="0 0 120 120"><path fill="#CED2DB" d="M64 40H16v64h48V40z"/><path fill="#CED2DB" d="M56 104h48V80H56v24z"/><path fill="#0052FF" d="M64 80h-8v24h8V80z"/><path fill="#FFD200" d="M40 64c13.255 0 24-10.745 24-24S53.255 16 40 16 16 26.745 16 40s10.745 24 24 24z"/><path fill="#0A0B0D" d="M40 24c8.8 0 16 7.2 16 16s-7.2 16-16 16-16-7.2-16-16 7.2-16 16-16zm0-2c-9.9 0-18 8.1-18 18s8.1 18 18 18 18-8.1 18-18-8.1-18-18-18z"/><path fill="#00D17F" d="M80 104c13.255 0 24-10.745 24-24S93.255 56 80 56 56 66.745 56 80s10.745 24 24 24z"/><path fill="#0052FF" d="M64 62.1c-4.9 4.4-8 10.8-8 17.9 0 7.1 3.1 13.5 8 17.9V62.1z"/><path fill="#0A0B0D" d="M80 72c4.4 0 8 3.6 8 8s-3.6 8-8 8-8-3.6-8-8 3.6-8 8-8zm0-2c-5.5 0-10 4.5-10 10s4.5 10 10 10 10-4.5 10-10-4.5-10-10-10z"/><path fill="#0A0B0D" fill-rule="evenodd" d="M39 48V32h2v16h-2z" clip-rule="evenodd"/><path fill="#0A0B0D" fill-rule="evenodd" d="M32 39h16v2H32v-2z" clip-rule="evenodd"/><path fill="#0A0B0D" fill-rule="evenodd" d="m33.593 44.993 11.4-11.4 1.414 1.414-11.4 11.4-1.414-1.414z" clip-rule="evenodd"/><path fill="#0A0B0D" fill-rule="evenodd" d="m35.007 33.593 11.4 11.4-1.414 1.414-11.4-11.4 1.414-1.414zM88 37h-8v-2h8v2z" clip-rule="evenodd"/><path fill="#0A0B0D" fill-rule="evenodd" d="M83 40v-8h2v8h-2zM32 85h-8v-2h8v2z" clip-rule="evenodd"/><path fill="#0A0B0D" fill-rule="evenodd" d="M27 88v-8h2v8h-2z" clip-rule="evenodd"/></svg>