<svg width="64" height="64" viewBox="0 0 64 64" fill="none" xmlns="http://www.w3.org/2000/svg">
<path d="M40 16H24V44H40V16Z" fill="#BFE9FF"/>
<path d="M64 28H0V64H64V28Z" fill="#56B4FC"/>
<path d="M60 57V35C58.3 35 57 33.7 57 32H7C7 33.7 5.7 35 4 35V57C5.7 57 7 58.3 7 60H57C57 58.3 58.3 57 60 57Z" fill="#BFE9FF"/>
<path d="M16 16L32 0L48 16H16Z" fill="#BFE9FF"/>
<path d="M40 28H24V32H40V28Z" fill="#1652F0"/>
<path d="M24 32V48C24 52.4 27.6 56 32 56C36.4 56 40 52.4 40 48V32H24Z" fill="#56B4FC"/>
</svg>
