<svg width="1024" height="362" viewBox="0 0 1024 362" fill="none" xmlns="http://www.w3.org/2000/svg">
<rect width="1024" height="362" fill="white"/>
<rect width="80" height="56" transform="matrix(-1 0 0 1 842 143)" fill="url(#paint0_linear_1398_47880)"/>
<rect x="217" y="251" width="22" height="30" rx="3" fill="#FBF7FF"/>
<path d="M227.847 270.117C229.771 270.117 231.149 269.103 231.149 267.413C231.149 266.126 230.447 265.359 229.355 265.073C230.2 264.722 230.824 264.098 230.824 263.045C230.824 261.758 229.797 260.588 228.029 260.588C226.261 260.588 225.052 261.797 224.987 263.266H225.975C226.092 262.213 226.872 261.511 228.029 261.511C229.16 261.511 229.719 262.187 229.719 263.071C229.719 264.085 229.186 264.657 227.977 264.657H227.327V265.606H228.029C229.342 265.606 229.992 266.217 229.992 267.413C229.992 268.505 229.329 269.207 227.873 269.207C226.404 269.207 225.741 268.362 225.637 267.257H224.597C224.662 268.882 225.871 270.117 227.847 270.117Z" fill="#5A30AD"/>
<rect x="217" y="251" width="22" height="30" rx="3" stroke="#B184F7" stroke-width="2"/>
<path d="M228 205.226L222.226 211L228 216.774L233.774 211L228 205.226ZM229 250L229 211L227 211L227 250L229 250Z" fill="#B184F7"/>
<path d="M228 156.774L233.774 151L228 145.226L222.226 151L228 156.774ZM229 151L229 112L227 112L227 151L229 151Z" fill="#B184F7"/>
<rect x="218" y="81" width="20" height="30" rx="3" fill="#FBF7FF"/>
<path d="M227.913 100H229.044V90.705H227.991L225.833 92.265V93.318L227.913 91.823V100Z" fill="#5A30AD"/>
<rect x="218" y="81" width="20" height="30" rx="3" stroke="#B184F7" stroke-width="2"/>
<rect x="110" y="183" width="22" height="30" rx="3" fill="#FBF7FF"/>
<path d="M117.648 202H123.875V201.077H119.39L121.951 198.581C123.095 197.463 123.823 196.345 123.823 195.201C123.823 193.602 122.731 192.588 121.015 192.588C119.247 192.588 118.142 193.745 117.999 195.565H119.052C119.234 194.109 119.936 193.498 121.015 193.498C122.068 193.498 122.679 194.122 122.679 195.162C122.679 196.111 122.185 196.956 121.34 197.853L117.648 201.74V202Z" fill="#5A30AD"/>
<rect x="110" y="183" width="22" height="30" rx="3" stroke="#B184F7" stroke-width="2"/>
<path d="M177.774 198L172 192.226L166.226 198L172 203.774L177.774 198ZM172 197H133V199H172V197Z" fill="#B184F7"/>
<rect x="341" y="251" width="23" height="30" rx="3" fill="#FBF7FF"/>
<path d="M353.649 270H354.754V268.05H356.041V267.127H354.754V260.705H353.246L348.995 267.686V268.05H353.649V270ZM350.425 267.127L353.649 261.563V267.127H350.425Z" fill="#5A30AD"/>
<rect x="341" y="251" width="23" height="30" rx="3" stroke="#B184F7" stroke-width="2"/>
<path d="M352.5 205.226L346.726 211L352.5 216.774L358.274 211L352.5 205.226ZM353.5 250L353.5 211L351.5 211L351.5 250L353.5 250Z" fill="#B184F7"/>
<rect x="771" y="251" width="22" height="30" rx="3" fill="#FBF7FF"/>
<path d="M781.838 270.117C783.606 270.117 785.023 268.921 785.023 266.958C785.023 265.06 783.801 263.877 782.137 263.877C781.253 263.877 780.616 264.163 780.239 264.514V261.68H784.529V260.705H779.303V265.684H779.719C780.213 265.125 780.837 264.787 781.916 264.787C783.099 264.787 783.866 265.645 783.866 266.958C783.866 268.362 783.086 269.207 781.825 269.207C780.408 269.207 780.005 268.505 779.823 267.491H778.744C778.874 269.012 779.836 270.117 781.838 270.117Z" fill="#5A30AD"/>
<rect x="771" y="251" width="22" height="30" rx="3" stroke="#B184F7" stroke-width="2"/>
<path d="M782 205.226L776.226 211L782 216.774L787.774 211L782 205.226ZM783 250L783 211L781 211L781 250L783 250Z" fill="#B184F7"/>
<rect x="812" y="251" width="23" height="30" rx="3" fill="#FBF7FF"/>
<path d="M823.597 270.117C825.56 270.117 826.808 268.869 826.808 267.01C826.808 265.307 825.612 263.968 823.766 263.968C822.687 263.968 821.816 264.475 821.374 265.229C821.426 262.772 822.414 261.511 823.818 261.511C824.858 261.511 825.326 261.979 825.534 262.837H826.613C826.366 261.342 825.339 260.588 823.896 260.588C821.764 260.588 820.256 262.33 820.256 265.671V265.892C820.256 268.219 821.062 270.117 823.597 270.117ZM823.597 269.233C822.349 269.233 821.452 268.427 821.452 266.906C821.452 265.697 822.336 264.852 823.584 264.852C824.845 264.852 825.651 265.723 825.651 267.062C825.651 268.375 824.819 269.233 823.597 269.233Z" fill="#5A30AD"/>
<rect x="812" y="251" width="23" height="30" rx="3" stroke="#B184F7" stroke-width="2"/>
<path d="M823.5 205.226L817.726 211L823.5 216.774L829.274 211L823.5 205.226ZM824.5 250L824.5 211L822.5 211L822.5 250L824.5 250Z" fill="#B184F7"/>
<path d="M183.328 177H185.472V172.696H188.416C190.96 172.696 192.336 171.24 192.336 169.224C192.336 167.208 190.96 165.736 188.416 165.736H183.328V177ZM190.16 169.304C190.16 170.296 189.536 170.872 188.352 170.872H185.472V167.576H188.352C189.536 167.576 190.16 168.136 190.16 169.128V169.304ZM193.807 177H195.887V172.312C195.887 171.192 196.383 170.504 197.807 170.504H199.215V168.6H198.191C196.703 168.6 196.015 169.384 195.807 170.088H195.791V168.616H193.807V177ZM202.425 167.64C203.129 167.64 203.689 167.08 203.689 166.408C203.689 165.704 203.129 165.16 202.425 165.16H202.281C201.561 165.16 201.001 165.704 201.001 166.408C201.001 167.08 201.561 167.64 202.281 167.64H202.425ZM200.009 170.28H201.305V177H203.385V168.616H200.009V170.28ZM205.557 177H207.637V171.928C207.637 170.728 208.421 170.152 209.269 170.152C210.085 170.152 210.837 170.696 210.837 171.832V177H212.917V171.928C212.917 170.728 213.701 170.152 214.549 170.152C215.381 170.152 216.133 170.696 216.133 171.832V177H218.213V171.608C218.213 169.592 216.949 168.392 215.237 168.392C214.053 168.392 213.045 168.952 212.581 170.008H212.565C212.117 168.968 211.157 168.392 209.957 168.392C208.837 168.392 207.941 168.888 207.525 169.848H207.509V168.616H205.557V177ZM220.035 171.048H222.083C222.147 170.344 222.659 169.896 223.651 169.896C224.723 169.896 225.091 170.408 225.091 170.968C225.091 171.496 224.755 171.752 223.971 171.864L222.947 172.024C220.979 172.296 219.763 173.064 219.763 174.696C219.763 176.28 220.963 177.224 222.707 177.224C224.083 177.224 225.075 176.568 225.475 175.56H225.491V175.64C225.475 176.472 225.923 177 227.075 177H228.227V175.384H227.731C227.347 175.384 227.171 175.288 227.171 174.824V171.352C227.171 169.224 225.603 168.392 223.683 168.392C221.491 168.392 220.211 169.464 220.035 171.048ZM225.123 173.608C225.123 174.824 224.355 175.656 223.139 175.656C222.291 175.656 221.779 175.24 221.779 174.584V174.488C221.779 173.848 222.339 173.48 223.267 173.336L224.147 173.208C224.627 173.144 224.947 172.968 225.123 172.824V173.608ZM229.51 177H231.59V172.312C231.59 171.192 232.086 170.504 233.51 170.504H234.918V168.6H233.894C232.406 168.6 231.718 169.384 231.51 170.088H231.494V168.616H229.51V177ZM240.591 177.672L243.967 168.616H241.871L239.839 174.408H239.823L237.775 168.616H235.487L238.735 176.744L238.463 177.48C238.191 178.216 237.887 178.376 237.231 178.376H235.567V180.056H237.327C239.007 180.056 239.919 179.416 240.591 177.672ZM247.741 168.616V170.312H249.565V174.792C249.565 176.232 250.301 177 251.853 177H254.237V175.32H252.333C251.853 175.32 251.645 175.112 251.645 174.616V170.312H254.237V168.616H251.645V166.264H249.565V168.616H247.741ZM255.488 171.048H257.536C257.6 170.344 258.112 169.896 259.104 169.896C260.176 169.896 260.544 170.408 260.544 170.968C260.544 171.496 260.208 171.752 259.424 171.864L258.4 172.024C256.432 172.296 255.216 173.064 255.216 174.696C255.216 176.28 256.416 177.224 258.16 177.224C259.536 177.224 260.528 176.568 260.928 175.56H260.944V175.64C260.928 176.472 261.376 177 262.528 177H263.68V175.384H263.184C262.8 175.384 262.624 175.288 262.624 174.824V171.352C262.624 169.224 261.056 168.392 259.136 168.392C256.944 168.392 255.664 169.464 255.488 171.048ZM260.576 173.608C260.576 174.824 259.808 175.656 258.592 175.656C257.744 175.656 257.232 175.24 257.232 174.584V174.488C257.232 173.848 257.792 173.48 258.72 173.336L259.6 173.208C260.08 173.144 260.4 172.968 260.576 172.824V173.608ZM264.979 177H266.931V175.592H266.947C267.427 176.6 268.307 177.224 269.683 177.224C272.099 177.224 273.347 175.176 273.347 172.808C273.347 170.456 272.099 168.392 269.683 168.392C268.419 168.392 267.555 168.952 267.075 169.832H267.059V165.128H264.979V177ZM271.267 173.192C271.267 174.68 270.323 175.528 269.155 175.528C267.987 175.528 267.059 174.648 267.059 173.192V172.456C267.059 171 267.987 170.12 269.155 170.12C270.323 170.12 271.267 170.968 271.267 172.456V173.192Z" fill="#0052FF"/>
<line x1="183" y1="198" x2="273" y2="198" stroke="#0052FF" stroke-width="2" stroke-linecap="square"/>
<path d="M307.328 177H309.472V172.696H312.416C314.96 172.696 316.336 171.24 316.336 169.224C316.336 167.208 314.96 165.736 312.416 165.736H307.328V177ZM314.16 169.304C314.16 170.296 313.536 170.872 312.352 170.872H309.472V167.576H312.352C313.536 167.576 314.16 168.136 314.16 169.128V169.304ZM317.807 177H319.887V172.312C319.887 171.192 320.383 170.504 321.807 170.504H323.215V168.6H322.191C320.703 168.6 320.015 169.384 319.807 170.088H319.791V168.616H317.807V177ZM326.425 167.64C327.129 167.64 327.689 167.08 327.689 166.408C327.689 165.704 327.129 165.16 326.425 165.16H326.281C325.561 165.16 325.001 165.704 325.001 166.408C325.001 167.08 325.561 167.64 326.281 167.64H326.425ZM324.009 170.28H325.305V177H327.385V168.616H324.009V170.28ZM329.557 177H331.637V171.928C331.637 170.728 332.421 170.152 333.269 170.152C334.085 170.152 334.837 170.696 334.837 171.832V177H336.917V171.928C336.917 170.728 337.701 170.152 338.549 170.152C339.381 170.152 340.133 170.696 340.133 171.832V177H342.213V171.608C342.213 169.592 340.949 168.392 339.237 168.392C338.053 168.392 337.045 168.952 336.581 170.008H336.565C336.117 168.968 335.157 168.392 333.957 168.392C332.837 168.392 331.941 168.888 331.525 169.848H331.509V168.616H329.557V177ZM344.035 171.048H346.083C346.147 170.344 346.659 169.896 347.651 169.896C348.723 169.896 349.091 170.408 349.091 170.968C349.091 171.496 348.755 171.752 347.971 171.864L346.947 172.024C344.979 172.296 343.763 173.064 343.763 174.696C343.763 176.28 344.963 177.224 346.707 177.224C348.083 177.224 349.075 176.568 349.475 175.56H349.491V175.64C349.475 176.472 349.923 177 351.075 177H352.227V175.384H351.731C351.347 175.384 351.171 175.288 351.171 174.824V171.352C351.171 169.224 349.603 168.392 347.683 168.392C345.491 168.392 344.211 169.464 344.035 171.048ZM349.123 173.608C349.123 174.824 348.355 175.656 347.139 175.656C346.291 175.656 345.779 175.24 345.779 174.584V174.488C345.779 173.848 346.339 173.48 347.267 173.336L348.147 173.208C348.627 173.144 348.947 172.968 349.123 172.824V173.608ZM353.51 177H355.59V172.312C355.59 171.192 356.086 170.504 357.51 170.504H358.918V168.6H357.894C356.406 168.6 355.718 169.384 355.51 170.088H355.494V168.616H353.51V177ZM364.591 177.672L367.967 168.616H365.871L363.839 174.408H363.823L361.775 168.616H359.487L362.735 176.744L362.463 177.48C362.191 178.216 361.887 178.376 361.231 178.376H359.567V180.056H361.327C363.007 180.056 363.919 179.416 364.591 177.672ZM371.741 168.616V170.312H373.565V174.792C373.565 176.232 374.301 177 375.853 177H378.237V175.32H376.333C375.853 175.32 375.645 175.112 375.645 174.616V170.312H378.237V168.616H375.645V166.264H373.565V168.616H371.741ZM379.488 171.048H381.536C381.6 170.344 382.112 169.896 383.104 169.896C384.176 169.896 384.544 170.408 384.544 170.968C384.544 171.496 384.208 171.752 383.424 171.864L382.4 172.024C380.432 172.296 379.216 173.064 379.216 174.696C379.216 176.28 380.416 177.224 382.16 177.224C383.536 177.224 384.528 176.568 384.928 175.56H384.944V175.64C384.928 176.472 385.376 177 386.528 177H387.68V175.384H387.184C386.8 175.384 386.624 175.288 386.624 174.824V171.352C386.624 169.224 385.056 168.392 383.136 168.392C380.944 168.392 379.664 169.464 379.488 171.048ZM384.576 173.608C384.576 174.824 383.808 175.656 382.592 175.656C381.744 175.656 381.232 175.24 381.232 174.584V174.488C381.232 173.848 381.792 173.48 382.72 173.336L383.6 173.208C384.08 173.144 384.4 172.968 384.576 172.824V173.608ZM388.979 177H390.931V175.592H390.947C391.427 176.6 392.307 177.224 393.683 177.224C396.099 177.224 397.347 175.176 397.347 172.808C397.347 170.456 396.099 168.392 393.683 168.392C392.419 168.392 391.555 168.952 391.075 169.832H391.059V165.128H388.979V177ZM395.267 173.192C395.267 174.68 394.323 175.528 393.155 175.528C391.987 175.528 391.059 174.648 391.059 173.192V172.456C391.059 171 391.987 170.12 393.155 170.12C394.323 170.12 395.267 170.968 395.267 172.456V173.192Z" fill="#0A0B0D"/>
<path d="M431.328 177H433.472V172.696H436.416C438.96 172.696 440.336 171.24 440.336 169.224C440.336 167.208 438.96 165.736 436.416 165.736H431.328V177ZM438.16 169.304C438.16 170.296 437.536 170.872 436.352 170.872H433.472V167.576H436.352C437.536 167.576 438.16 168.136 438.16 169.128V169.304ZM441.807 177H443.887V172.312C443.887 171.192 444.383 170.504 445.807 170.504H447.215V168.6H446.191C444.703 168.6 444.015 169.384 443.807 170.088H443.791V168.616H441.807V177ZM450.425 167.64C451.129 167.64 451.689 167.08 451.689 166.408C451.689 165.704 451.129 165.16 450.425 165.16H450.281C449.561 165.16 449.001 165.704 449.001 166.408C449.001 167.08 449.561 167.64 450.281 167.64H450.425ZM448.009 170.28H449.305V177H451.385V168.616H448.009V170.28ZM453.557 177H455.637V171.928C455.637 170.728 456.421 170.152 457.269 170.152C458.085 170.152 458.837 170.696 458.837 171.832V177H460.917V171.928C460.917 170.728 461.701 170.152 462.549 170.152C463.381 170.152 464.133 170.696 464.133 171.832V177H466.213V171.608C466.213 169.592 464.949 168.392 463.237 168.392C462.053 168.392 461.045 168.952 460.581 170.008H460.565C460.117 168.968 459.157 168.392 457.957 168.392C456.837 168.392 455.941 168.888 455.525 169.848H455.509V168.616H453.557V177ZM468.035 171.048H470.083C470.147 170.344 470.659 169.896 471.651 169.896C472.723 169.896 473.091 170.408 473.091 170.968C473.091 171.496 472.755 171.752 471.971 171.864L470.947 172.024C468.979 172.296 467.763 173.064 467.763 174.696C467.763 176.28 468.963 177.224 470.707 177.224C472.083 177.224 473.075 176.568 473.475 175.56H473.491V175.64C473.475 176.472 473.923 177 475.075 177H476.227V175.384H475.731C475.347 175.384 475.171 175.288 475.171 174.824V171.352C475.171 169.224 473.603 168.392 471.683 168.392C469.491 168.392 468.211 169.464 468.035 171.048ZM473.123 173.608C473.123 174.824 472.355 175.656 471.139 175.656C470.291 175.656 469.779 175.24 469.779 174.584V174.488C469.779 173.848 470.339 173.48 471.267 173.336L472.147 173.208C472.627 173.144 472.947 172.968 473.123 172.824V173.608ZM477.51 177H479.59V172.312C479.59 171.192 480.086 170.504 481.51 170.504H482.918V168.6H481.894C480.406 168.6 479.718 169.384 479.51 170.088H479.494V168.616H477.51V177ZM488.591 177.672L491.967 168.616H489.871L487.839 174.408H487.823L485.775 168.616H483.487L486.735 176.744L486.463 177.48C486.191 178.216 485.887 178.376 485.231 178.376H483.567V180.056H485.327C487.007 180.056 487.919 179.416 488.591 177.672ZM495.741 168.616V170.312H497.565V174.792C497.565 176.232 498.301 177 499.853 177H502.237V175.32H500.333C499.853 175.32 499.645 175.112 499.645 174.616V170.312H502.237V168.616H499.645V166.264H497.565V168.616H495.741ZM503.488 171.048H505.536C505.6 170.344 506.112 169.896 507.104 169.896C508.176 169.896 508.544 170.408 508.544 170.968C508.544 171.496 508.208 171.752 507.424 171.864L506.4 172.024C504.432 172.296 503.216 173.064 503.216 174.696C503.216 176.28 504.416 177.224 506.16 177.224C507.536 177.224 508.528 176.568 508.928 175.56H508.944V175.64C508.928 176.472 509.376 177 510.528 177H511.68V175.384H511.184C510.8 175.384 510.624 175.288 510.624 174.824V171.352C510.624 169.224 509.056 168.392 507.136 168.392C504.944 168.392 503.664 169.464 503.488 171.048ZM508.576 173.608C508.576 174.824 507.808 175.656 506.592 175.656C505.744 175.656 505.232 175.24 505.232 174.584V174.488C505.232 173.848 505.792 173.48 506.72 173.336L507.6 173.208C508.08 173.144 508.4 172.968 508.576 172.824V173.608ZM512.979 177H514.931V175.592H514.947C515.427 176.6 516.307 177.224 517.683 177.224C520.099 177.224 521.347 175.176 521.347 172.808C521.347 170.456 520.099 168.392 517.683 168.392C516.419 168.392 515.555 168.952 515.075 169.832H515.059V165.128H512.979V177ZM519.267 173.192C519.267 174.68 518.323 175.528 517.155 175.528C515.987 175.528 515.059 174.648 515.059 173.192V172.456C515.059 171 515.987 170.12 517.155 170.12C518.323 170.12 519.267 170.968 519.267 172.456V173.192Z" fill="#0A0B0D"/>
<path d="M555.328 177H557.472V172.696H560.416C562.96 172.696 564.336 171.24 564.336 169.224C564.336 167.208 562.96 165.736 560.416 165.736H555.328V177ZM562.16 169.304C562.16 170.296 561.536 170.872 560.352 170.872H557.472V167.576H560.352C561.536 167.576 562.16 168.136 562.16 169.128V169.304ZM565.807 177H567.887V172.312C567.887 171.192 568.383 170.504 569.807 170.504H571.215V168.6H570.191C568.703 168.6 568.015 169.384 567.807 170.088H567.791V168.616H565.807V177ZM574.425 167.64C575.129 167.64 575.689 167.08 575.689 166.408C575.689 165.704 575.129 165.16 574.425 165.16H574.281C573.561 165.16 573.001 165.704 573.001 166.408C573.001 167.08 573.561 167.64 574.281 167.64H574.425ZM572.009 170.28H573.305V177H575.385V168.616H572.009V170.28ZM577.557 177H579.637V171.928C579.637 170.728 580.421 170.152 581.269 170.152C582.085 170.152 582.837 170.696 582.837 171.832V177H584.917V171.928C584.917 170.728 585.701 170.152 586.549 170.152C587.381 170.152 588.133 170.696 588.133 171.832V177H590.213V171.608C590.213 169.592 588.949 168.392 587.237 168.392C586.053 168.392 585.045 168.952 584.581 170.008H584.565C584.117 168.968 583.157 168.392 581.957 168.392C580.837 168.392 579.941 168.888 579.525 169.848H579.509V168.616H577.557V177ZM592.035 171.048H594.083C594.147 170.344 594.659 169.896 595.651 169.896C596.723 169.896 597.091 170.408 597.091 170.968C597.091 171.496 596.755 171.752 595.971 171.864L594.947 172.024C592.979 172.296 591.763 173.064 591.763 174.696C591.763 176.28 592.963 177.224 594.707 177.224C596.083 177.224 597.075 176.568 597.475 175.56H597.491V175.64C597.475 176.472 597.923 177 599.075 177H600.227V175.384H599.731C599.347 175.384 599.171 175.288 599.171 174.824V171.352C599.171 169.224 597.603 168.392 595.683 168.392C593.491 168.392 592.211 169.464 592.035 171.048ZM597.123 173.608C597.123 174.824 596.355 175.656 595.139 175.656C594.291 175.656 593.779 175.24 593.779 174.584V174.488C593.779 173.848 594.339 173.48 595.267 173.336L596.147 173.208C596.627 173.144 596.947 172.968 597.123 172.824V173.608ZM601.51 177H603.59V172.312C603.59 171.192 604.086 170.504 605.51 170.504H606.918V168.6H605.894C604.406 168.6 603.718 169.384 603.51 170.088H603.494V168.616H601.51V177ZM612.591 177.672L615.967 168.616H613.871L611.839 174.408H611.823L609.775 168.616H607.487L610.735 176.744L610.463 177.48C610.191 178.216 609.887 178.376 609.231 178.376H607.567V180.056H609.327C611.007 180.056 611.919 179.416 612.591 177.672ZM619.741 168.616V170.312H621.565V174.792C621.565 176.232 622.301 177 623.853 177H626.237V175.32H624.333C623.853 175.32 623.645 175.112 623.645 174.616V170.312H626.237V168.616H623.645V166.264H621.565V168.616H619.741ZM627.488 171.048H629.536C629.6 170.344 630.112 169.896 631.104 169.896C632.176 169.896 632.544 170.408 632.544 170.968C632.544 171.496 632.208 171.752 631.424 171.864L630.4 172.024C628.432 172.296 627.216 173.064 627.216 174.696C627.216 176.28 628.416 177.224 630.16 177.224C631.536 177.224 632.528 176.568 632.928 175.56H632.944V175.64C632.928 176.472 633.376 177 634.528 177H635.68V175.384H635.184C634.8 175.384 634.624 175.288 634.624 174.824V171.352C634.624 169.224 633.056 168.392 631.136 168.392C628.944 168.392 627.664 169.464 627.488 171.048ZM632.576 173.608C632.576 174.824 631.808 175.656 630.592 175.656C629.744 175.656 629.232 175.24 629.232 174.584V174.488C629.232 173.848 629.792 173.48 630.72 173.336L631.6 173.208C632.08 173.144 632.4 172.968 632.576 172.824V173.608ZM636.979 177H638.931V175.592H638.947C639.427 176.6 640.307 177.224 641.683 177.224C644.099 177.224 645.347 175.176 645.347 172.808C645.347 170.456 644.099 168.392 641.683 168.392C640.419 168.392 639.555 168.952 639.075 169.832H639.059V165.128H636.979V177ZM643.267 173.192C643.267 174.68 642.323 175.528 641.155 175.528C639.987 175.528 639.059 174.648 639.059 173.192V172.456C639.059 171 639.987 170.12 641.155 170.12C642.323 170.12 643.267 170.968 643.267 172.456V173.192Z" fill="#0A0B0D"/>
<path d="M679.328 177H681.472V172.696H684.416C686.96 172.696 688.336 171.24 688.336 169.224C688.336 167.208 686.96 165.736 684.416 165.736H679.328V177ZM686.16 169.304C686.16 170.296 685.536 170.872 684.352 170.872H681.472V167.576H684.352C685.536 167.576 686.16 168.136 686.16 169.128V169.304ZM689.807 177H691.887V172.312C691.887 171.192 692.383 170.504 693.807 170.504H695.215V168.6H694.191C692.703 168.6 692.015 169.384 691.807 170.088H691.791V168.616H689.807V177ZM698.425 167.64C699.129 167.64 699.689 167.08 699.689 166.408C699.689 165.704 699.129 165.16 698.425 165.16H698.281C697.561 165.16 697.001 165.704 697.001 166.408C697.001 167.08 697.561 167.64 698.281 167.64H698.425ZM696.009 170.28H697.305V177H699.385V168.616H696.009V170.28ZM701.557 177H703.637V171.928C703.637 170.728 704.421 170.152 705.269 170.152C706.085 170.152 706.837 170.696 706.837 171.832V177H708.917V171.928C708.917 170.728 709.701 170.152 710.549 170.152C711.381 170.152 712.133 170.696 712.133 171.832V177H714.213V171.608C714.213 169.592 712.949 168.392 711.237 168.392C710.053 168.392 709.045 168.952 708.581 170.008H708.565C708.117 168.968 707.157 168.392 705.957 168.392C704.837 168.392 703.941 168.888 703.525 169.848H703.509V168.616H701.557V177ZM716.035 171.048H718.083C718.147 170.344 718.659 169.896 719.651 169.896C720.723 169.896 721.091 170.408 721.091 170.968C721.091 171.496 720.755 171.752 719.971 171.864L718.947 172.024C716.979 172.296 715.763 173.064 715.763 174.696C715.763 176.28 716.963 177.224 718.707 177.224C720.083 177.224 721.075 176.568 721.475 175.56H721.491V175.64C721.475 176.472 721.923 177 723.075 177H724.227V175.384H723.731C723.347 175.384 723.171 175.288 723.171 174.824V171.352C723.171 169.224 721.603 168.392 719.683 168.392C717.491 168.392 716.211 169.464 716.035 171.048ZM721.123 173.608C721.123 174.824 720.355 175.656 719.139 175.656C718.291 175.656 717.779 175.24 717.779 174.584V174.488C717.779 173.848 718.339 173.48 719.267 173.336L720.147 173.208C720.627 173.144 720.947 172.968 721.123 172.824V173.608ZM725.51 177H727.59V172.312C727.59 171.192 728.086 170.504 729.51 170.504H730.918V168.6H729.894C728.406 168.6 727.718 169.384 727.51 170.088H727.494V168.616H725.51V177ZM736.591 177.672L739.967 168.616H737.871L735.839 174.408H735.823L733.775 168.616H731.487L734.735 176.744L734.463 177.48C734.191 178.216 733.887 178.376 733.231 178.376H731.567V180.056H733.327C735.007 180.056 735.919 179.416 736.591 177.672ZM743.741 168.616V170.312H745.565V174.792C745.565 176.232 746.301 177 747.853 177H750.237V175.32H748.333C747.853 175.32 747.645 175.112 747.645 174.616V170.312H750.237V168.616H747.645V166.264H745.565V168.616H743.741ZM751.488 171.048H753.536C753.6 170.344 754.112 169.896 755.104 169.896C756.176 169.896 756.544 170.408 756.544 170.968C756.544 171.496 756.208 171.752 755.424 171.864L754.4 172.024C752.432 172.296 751.216 173.064 751.216 174.696C751.216 176.28 752.416 177.224 754.16 177.224C755.536 177.224 756.528 176.568 756.928 175.56H756.944V175.64C756.928 176.472 757.376 177 758.528 177H759.68V175.384H759.184C758.8 175.384 758.624 175.288 758.624 174.824V171.352C758.624 169.224 757.056 168.392 755.136 168.392C752.944 168.392 751.664 169.464 751.488 171.048ZM756.576 173.608C756.576 174.824 755.808 175.656 754.592 175.656C753.744 175.656 753.232 175.24 753.232 174.584V174.488C753.232 173.848 753.792 173.48 754.72 173.336L755.6 173.208C756.08 173.144 756.4 172.968 756.576 172.824V173.608ZM760.979 177H762.931V175.592H762.947C763.427 176.6 764.307 177.224 765.683 177.224C768.099 177.224 769.347 175.176 769.347 172.808C769.347 170.456 768.099 168.392 765.683 168.392C764.419 168.392 763.555 168.952 763.075 169.832H763.059V165.128H760.979V177ZM767.267 173.192C767.267 174.68 766.323 175.528 765.155 175.528C763.987 175.528 763.059 174.648 763.059 173.192V172.456C763.059 171 763.987 170.12 765.155 170.12C766.323 170.12 767.267 170.968 767.267 172.456V173.192Z" fill="#0A0B0D"/>
<path d="M802 171C802 159.954 810.954 151 822 151V151C833.046 151 842 159.954 842 171V171C842 182.046 833.046 191 822 191V191C810.954 191 802 182.046 802 171V171Z" fill="#EEF0F3"/>
<path d="M819.013 166.053L823.96 171L819.013 175.947L820.193 177.127L826.32 171L820.193 164.873L819.013 166.053Z" fill="#0A0B0D"/>
<rect opacity="0.25" x="182" y="143" width="92" height="56" fill="#C5A0FB"/>
<rect opacity="0.25" x="306" y="143" width="92" height="56" fill="#C5A0FB"/>
<defs>
<linearGradient id="paint0_linear_1398_47880" x1="0" y1="28" x2="80" y2="28" gradientUnits="userSpaceOnUse">
<stop offset="0.502325" stop-color="#B184F7"/>
<stop offset="1" stop-color="white" stop-opacity="0"/>
</linearGradient>
</defs>
</svg>
