<svg width="1024" height="350" viewBox="0 0 1024 350" fill="none" xmlns="http://www.w3.org/2000/svg">
<rect width="1024" height="350" fill="white"/>
<path d="M105.46 179.3C108.86 179.3 111.18 177.54 111.18 174.88C111.18 172.18 109.28 171.14 106.8 170.78L104.98 170.5C103.52 170.28 102.66 169.86 102.66 168.66C102.66 167.64 103.5 166.74 105.42 166.74C107.36 166.74 108.22 167.6 108.26 168.8H110.98C110.92 166.54 109.02 164.6 105.44 164.6C101.94 164.6 99.94 166.52 99.94 168.88C99.94 171.46 101.7 172.62 104.2 173L106.06 173.28C107.64 173.52 108.46 173.9 108.46 175.08C108.46 176.3 107.4 177.16 105.48 177.16C103.56 177.16 102.38 176.34 102.34 174.82H99.62C99.66 177.46 101.9 179.3 105.46 179.3ZM117.99 179.28C120.57 179.28 122.43 177.9 122.77 175.9H120.17C120.07 176.6 119.37 177.34 118.05 177.34C116.49 177.34 115.33 176.26 115.31 174.42H122.95V173.48C122.95 170.7 121.27 168.24 117.89 168.24C114.47 168.24 112.71 170.82 112.71 173.76C112.71 176.72 114.45 179.28 117.99 179.28ZM117.89 170.18C119.29 170.18 120.29 171.08 120.35 172.68H115.33C115.49 171.1 116.53 170.18 117.89 170.18ZM127.087 173.32C127.087 171.5 128.207 170.38 129.667 170.38C130.947 170.38 131.627 171.16 131.847 172.02H134.367C134.027 169.74 132.287 168.24 129.687 168.24C126.227 168.24 124.507 170.76 124.507 173.76C124.507 176.76 126.207 179.28 129.687 179.28C132.287 179.28 134.007 177.8 134.367 175.5H131.847C131.627 176.38 130.947 177.16 129.667 177.16C128.207 177.16 127.087 176.06 127.087 174.24V173.32ZM141.095 179.28C144.575 179.28 146.335 176.7 146.335 173.76C146.335 170.84 144.555 168.24 141.095 168.24C137.615 168.24 135.835 170.82 135.835 173.76C135.835 176.7 137.595 179.28 141.095 179.28ZM143.735 174.22C143.735 176.08 142.575 177.14 141.095 177.14C139.595 177.14 138.435 176.04 138.435 174.22V173.32C138.435 171.48 139.595 170.38 141.095 170.38C142.575 170.38 143.735 171.44 143.735 173.32V174.22ZM151.065 172.84C151.065 171.22 152.145 170.44 153.325 170.44C154.445 170.44 155.465 171.18 155.465 172.72V179H158.065V172.44C158.065 169.8 156.425 168.24 154.185 168.24C152.705 168.24 151.485 168.9 150.925 170.2H150.905V168.52H148.465V179H151.065V172.84ZM170.553 179V164.16H167.953V170.04H167.933C167.313 168.94 166.253 168.24 164.673 168.24C161.653 168.24 160.093 170.82 160.093 173.76C160.093 176.72 161.653 179.28 164.673 179.28C166.373 179.28 167.493 178.5 168.093 177.24H168.113V179H170.553ZM162.693 174.24V173.32C162.693 171.46 163.873 170.4 165.333 170.4C166.793 170.4 167.953 171.5 167.953 173.32V174.24C167.953 176.06 166.793 177.16 165.333 177.16C163.873 177.16 162.693 176.1 162.693 174.24ZM172.95 171.56H175.51C175.59 170.68 176.23 170.12 177.47 170.12C178.81 170.12 179.27 170.76 179.27 171.46C179.27 172.12 178.85 172.44 177.87 172.58L176.59 172.78C174.13 173.12 172.61 174.08 172.61 176.12C172.61 178.1 174.11 179.28 176.29 179.28C178.01 179.28 179.25 178.46 179.75 177.2H179.77V177.3C179.75 178.34 180.31 179 181.75 179H183.19V176.98H182.57C182.09 176.98 181.87 176.86 181.87 176.28V171.94C181.87 169.28 179.91 168.24 177.51 168.24C174.77 168.24 173.17 169.58 172.95 171.56ZM179.31 174.76C179.31 176.28 178.35 177.32 176.83 177.32C175.77 177.32 175.13 176.8 175.13 175.98V175.86C175.13 175.06 175.83 174.6 176.99 174.42L178.09 174.26C178.69 174.18 179.09 173.96 179.31 173.78V174.76ZM184.794 179H187.394V173.14C187.394 171.74 188.014 170.88 189.794 170.88H191.554V168.5H190.274C188.414 168.5 187.554 169.48 187.294 170.36H187.274V168.52H184.794V179ZM198.645 179.84L202.865 168.52H200.245L197.705 175.76H197.685L195.125 168.52H192.265L196.325 178.68L195.985 179.6C195.645 180.52 195.265 180.72 194.445 180.72H192.365V182.82H194.565C196.665 182.82 197.805 182.02 198.645 179.84ZM207.583 168.52V170.64H209.863V176.24C209.863 178.04 210.783 179 212.723 179H215.703V176.9H213.323C212.723 176.9 212.463 176.64 212.463 176.02V170.64H215.703V168.52H212.463V165.58H209.863V168.52H207.583ZM217.267 171.56H219.827C219.907 170.68 220.547 170.12 221.787 170.12C223.127 170.12 223.587 170.76 223.587 171.46C223.587 172.12 223.167 172.44 222.187 172.58L220.907 172.78C218.447 173.12 216.927 174.08 216.927 176.12C216.927 178.1 218.427 179.28 220.607 179.28C222.327 179.28 223.567 178.46 224.067 177.2H224.087V177.3C224.067 178.34 224.627 179 226.067 179H227.507V176.98H226.887C226.407 176.98 226.187 176.86 226.187 176.28V171.94C226.187 169.28 224.227 168.24 221.827 168.24C219.087 168.24 217.487 169.58 217.267 171.56ZM223.627 174.76C223.627 176.28 222.667 177.32 221.147 177.32C220.087 177.32 219.447 176.8 219.447 175.98V175.86C219.447 175.06 220.147 174.6 221.307 174.42L222.407 174.26C223.007 174.18 223.407 173.96 223.627 173.78V174.76ZM229.13 179H231.57V177.24H231.59C232.19 178.5 233.29 179.28 235.01 179.28C238.03 179.28 239.59 176.72 239.59 173.76C239.59 170.82 238.03 168.24 235.01 168.24C233.43 168.24 232.35 168.94 231.75 170.04H231.73V164.16H229.13V179ZM236.99 174.24C236.99 176.1 235.81 177.16 234.35 177.16C232.89 177.16 231.73 176.06 231.73 174.24V173.32C231.73 171.5 232.89 170.4 234.35 170.4C235.81 170.4 236.99 171.46 236.99 173.32V174.24Z" fill="#0A0B0D"/>
<path d="M279.36 179.28C282.64 179.28 284.82 177.6 284.82 175.04C284.82 172.6 283.1 171.52 280.66 171.12L278.68 170.82C277.06 170.56 276.04 169.98 276.04 168.58C276.04 167.22 277.16 166.16 279.34 166.16C281.5 166.16 282.58 167.18 282.68 168.6H284.6C284.5 166.48 282.8 164.62 279.36 164.62C276 164.62 274.12 166.44 274.12 168.7C274.12 171.12 275.8 172.22 278.16 172.58L280.18 172.9C281.92 173.18 282.88 173.76 282.88 175.16C282.88 176.7 281.54 177.74 279.38 177.74C277.16 177.74 275.76 176.76 275.68 175H273.76C273.84 177.48 275.88 179.28 279.36 179.28ZM291.615 179.28C294.115 179.28 295.795 177.92 296.175 176H294.315C294.155 176.9 293.255 177.84 291.655 177.84C289.815 177.84 288.455 176.48 288.455 174.3V174.24H296.375V173.58C296.375 170.64 294.655 168.38 291.555 168.38C288.475 168.38 286.615 170.74 286.615 173.82C286.615 176.88 288.375 179.28 291.615 179.28ZM291.555 169.8C293.235 169.8 294.435 170.92 294.515 172.92H288.475C288.635 170.96 289.955 169.8 291.555 169.8ZM300.037 173.44C300.037 171.26 301.417 169.92 303.157 169.92C304.677 169.92 305.517 170.82 305.797 171.88H307.617C307.237 169.78 305.617 168.38 303.177 168.38C300.017 168.38 298.197 170.7 298.197 173.82C298.197 176.92 299.977 179.28 303.177 179.28C305.617 179.28 307.217 177.86 307.617 175.72H305.817C305.517 176.84 304.637 177.74 303.157 177.74C301.417 177.74 300.037 176.38 300.037 174.22V173.44ZM314.37 179.28C317.57 179.28 319.39 176.88 319.39 173.82C319.39 170.76 317.51 168.38 314.37 168.38C311.21 168.38 309.35 170.76 309.35 173.82C309.35 176.88 311.17 179.28 314.37 179.28ZM317.53 174.2C317.53 176.44 316.11 177.74 314.37 177.74C312.63 177.74 311.19 176.36 311.19 174.2V173.44C311.19 171.26 312.63 169.92 314.37 169.92C316.11 169.92 317.53 171.22 317.53 173.44V174.2ZM323.685 172.94C323.685 170.9 325.005 169.94 326.445 169.94C327.825 169.94 329.005 170.84 329.005 172.7V179H330.845V172.54C330.845 169.82 329.145 168.38 326.985 168.38C325.465 168.38 324.205 169.04 323.605 170.42H323.585V168.66H321.845V179H323.685V172.94ZM343.137 179V164.16H341.297V170.5H341.277C340.637 169.18 339.437 168.38 337.757 168.38C334.917 168.38 333.197 170.76 333.197 173.82C333.197 176.9 334.877 179.28 337.757 179.28C339.517 179.28 340.737 178.42 341.357 177.04H341.377V179H343.137ZM335.037 174.22V173.46C335.037 171.22 336.457 169.92 338.157 169.92C339.877 169.92 341.297 171.26 341.297 173.46V174.22C341.297 176.38 339.877 177.74 338.157 177.74C336.457 177.74 335.037 176.46 335.037 174.22ZM345.88 171.54H347.7C347.82 170.44 348.6 169.78 350.08 169.78C351.72 169.78 352.28 170.62 352.28 171.44C352.28 172.24 351.74 172.58 350.68 172.76L349.12 173.02C346.94 173.36 345.5 174.32 345.5 176.22C345.5 178.16 347 179.28 349.04 179.28C350.78 179.28 352.06 178.4 352.56 177.12H352.58V177.32C352.56 178.42 353.08 179 354.38 179H355.56V177.52H354.92C354.42 177.52 354.16 177.36 354.16 176.72V171.82C354.16 169.48 352.48 168.38 350.12 168.38C347.52 168.38 346.06 169.68 345.88 171.54ZM352.34 174.7C352.34 176.58 351.12 177.84 349.38 177.84C348.14 177.84 347.3 177.24 347.3 176.16V176.04C347.3 175.04 348.12 174.5 349.44 174.28L350.96 174.02C351.68 173.9 352.14 173.62 352.34 173.34V174.7ZM357.333 179H359.173V173C359.173 171.48 359.733 170.3 361.693 170.3H363.413V168.6H362.033C360.273 168.6 359.433 169.48 359.113 170.4H359.093V168.66H357.333V179ZM369.815 180.16L374.295 168.66H372.415L369.435 176.6H369.415L366.355 168.66H364.335L368.435 178.72L367.975 179.9C367.515 181.06 367.195 181.3 366.115 181.3H364.395V182.84H366.175C368.235 182.84 369.075 182.08 369.815 180.16ZM379.396 168.66V170.18H381.756V176.54C381.756 178.18 382.536 179 384.296 179H386.996V177.48H384.636C383.896 177.48 383.596 177.16 383.596 176.42V170.18H386.976V168.66H383.596V165.56H381.756V168.66H379.396ZM388.712 171.54H390.532C390.652 170.44 391.432 169.78 392.912 169.78C394.552 169.78 395.112 170.62 395.112 171.44C395.112 172.24 394.572 172.58 393.512 172.76L391.952 173.02C389.772 173.36 388.332 174.32 388.332 176.22C388.332 178.16 389.832 179.28 391.872 179.28C393.612 179.28 394.892 178.4 395.392 177.12H395.412V177.32C395.392 178.42 395.912 179 397.212 179H398.392V177.52H397.752C397.252 177.52 396.992 177.36 396.992 176.72V171.82C396.992 169.48 395.312 168.38 392.952 168.38C390.352 168.38 388.892 169.68 388.712 171.54ZM395.172 174.7C395.172 176.58 393.952 177.84 392.212 177.84C390.972 177.84 390.132 177.24 390.132 176.16V176.04C390.132 175.04 390.952 174.5 392.272 174.28L393.792 174.02C394.512 173.9 394.972 173.62 395.172 173.34V174.7ZM400.224 179H401.984V177.04H402.004C402.604 178.42 403.844 179.28 405.584 179.28C408.484 179.28 410.164 176.9 410.164 173.82C410.164 170.76 408.444 168.38 405.584 168.38C403.924 168.38 402.724 169.18 402.084 170.5H402.064V164.16H400.224V179ZM408.304 174.22C408.304 176.46 406.904 177.74 405.184 177.74C403.464 177.74 402.064 176.38 402.064 174.22V173.46C402.064 171.26 403.464 169.92 405.184 169.92C406.904 169.92 408.304 171.22 408.304 173.46V174.22Z" fill="#5B616E"/>
<path d="M450.36 179.28C453.64 179.28 455.82 177.6 455.82 175.04C455.82 172.6 454.1 171.52 451.66 171.12L449.68 170.82C448.06 170.56 447.04 169.98 447.04 168.58C447.04 167.22 448.16 166.16 450.34 166.16C452.5 166.16 453.58 167.18 453.68 168.6H455.6C455.5 166.48 453.8 164.62 450.36 164.62C447 164.62 445.12 166.44 445.12 168.7C445.12 171.12 446.8 172.22 449.16 172.58L451.18 172.9C452.92 173.18 453.88 173.76 453.88 175.16C453.88 176.7 452.54 177.74 450.38 177.74C448.16 177.74 446.76 176.76 446.68 175H444.76C444.84 177.48 446.88 179.28 450.36 179.28ZM462.615 179.28C465.115 179.28 466.795 177.92 467.175 176H465.315C465.155 176.9 464.255 177.84 462.655 177.84C460.815 177.84 459.455 176.48 459.455 174.3V174.24H467.375V173.58C467.375 170.64 465.655 168.38 462.555 168.38C459.475 168.38 457.615 170.74 457.615 173.82C457.615 176.88 459.375 179.28 462.615 179.28ZM462.555 169.8C464.235 169.8 465.435 170.92 465.515 172.92H459.475C459.635 170.96 460.955 169.8 462.555 169.8ZM471.037 173.44C471.037 171.26 472.417 169.92 474.157 169.92C475.677 169.92 476.517 170.82 476.797 171.88H478.617C478.237 169.78 476.617 168.38 474.177 168.38C471.017 168.38 469.197 170.7 469.197 173.82C469.197 176.92 470.977 179.28 474.177 179.28C476.617 179.28 478.217 177.86 478.617 175.72H476.817C476.517 176.84 475.637 177.74 474.157 177.74C472.417 177.74 471.037 176.38 471.037 174.22V173.44ZM485.37 179.28C488.57 179.28 490.39 176.88 490.39 173.82C490.39 170.76 488.51 168.38 485.37 168.38C482.21 168.38 480.35 170.76 480.35 173.82C480.35 176.88 482.17 179.28 485.37 179.28ZM488.53 174.2C488.53 176.44 487.11 177.74 485.37 177.74C483.63 177.74 482.19 176.36 482.19 174.2V173.44C482.19 171.26 483.63 169.92 485.37 169.92C487.11 169.92 488.53 171.22 488.53 173.44V174.2ZM494.685 172.94C494.685 170.9 496.005 169.94 497.445 169.94C498.825 169.94 500.005 170.84 500.005 172.7V179H501.845V172.54C501.845 169.82 500.145 168.38 497.985 168.38C496.465 168.38 495.205 169.04 494.605 170.42H494.585V168.66H492.845V179H494.685V172.94ZM514.137 179V164.16H512.297V170.5H512.277C511.637 169.18 510.437 168.38 508.757 168.38C505.917 168.38 504.197 170.76 504.197 173.82C504.197 176.9 505.877 179.28 508.757 179.28C510.517 179.28 511.737 178.42 512.357 177.04H512.377V179H514.137ZM506.037 174.22V173.46C506.037 171.22 507.457 169.92 509.157 169.92C510.877 169.92 512.297 171.26 512.297 173.46V174.22C512.297 176.38 510.877 177.74 509.157 177.74C507.457 177.74 506.037 176.46 506.037 174.22ZM516.88 171.54H518.7C518.82 170.44 519.6 169.78 521.08 169.78C522.72 169.78 523.28 170.62 523.28 171.44C523.28 172.24 522.74 172.58 521.68 172.76L520.12 173.02C517.94 173.36 516.5 174.32 516.5 176.22C516.5 178.16 518 179.28 520.04 179.28C521.78 179.28 523.06 178.4 523.56 177.12H523.58V177.32C523.56 178.42 524.08 179 525.38 179H526.56V177.52H525.92C525.42 177.52 525.16 177.36 525.16 176.72V171.82C525.16 169.48 523.48 168.38 521.12 168.38C518.52 168.38 517.06 169.68 516.88 171.54ZM523.34 174.7C523.34 176.58 522.12 177.84 520.38 177.84C519.14 177.84 518.3 177.24 518.3 176.16V176.04C518.3 175.04 519.12 174.5 520.44 174.28L521.96 174.02C522.68 173.9 523.14 173.62 523.34 173.34V174.7ZM528.333 179H530.173V173C530.173 171.48 530.733 170.3 532.693 170.3H534.413V168.6H533.033C531.273 168.6 530.433 169.48 530.113 170.4H530.093V168.66H528.333V179ZM540.815 180.16L545.295 168.66H543.415L540.435 176.6H540.415L537.355 168.66H535.335L539.435 178.72L538.975 179.9C538.515 181.06 538.195 181.3 537.115 181.3H535.395V182.84H537.175C539.235 182.84 540.075 182.08 540.815 180.16ZM550.396 168.66V170.18H552.756V176.54C552.756 178.18 553.536 179 555.296 179H557.996V177.48H555.636C554.896 177.48 554.596 177.16 554.596 176.42V170.18H557.976V168.66H554.596V165.56H552.756V168.66H550.396ZM559.712 171.54H561.532C561.652 170.44 562.432 169.78 563.912 169.78C565.552 169.78 566.112 170.62 566.112 171.44C566.112 172.24 565.572 172.58 564.512 172.76L562.952 173.02C560.772 173.36 559.332 174.32 559.332 176.22C559.332 178.16 560.832 179.28 562.872 179.28C564.612 179.28 565.892 178.4 566.392 177.12H566.412V177.32C566.392 178.42 566.912 179 568.212 179H569.392V177.52H568.752C568.252 177.52 567.992 177.36 567.992 176.72V171.82C567.992 169.48 566.312 168.38 563.952 168.38C561.352 168.38 559.892 169.68 559.712 171.54ZM566.172 174.7C566.172 176.58 564.952 177.84 563.212 177.84C561.972 177.84 561.132 177.24 561.132 176.16V176.04C561.132 175.04 561.952 174.5 563.272 174.28L564.792 174.02C565.512 173.9 565.972 173.62 566.172 173.34V174.7ZM571.224 179H572.984V177.04H573.004C573.604 178.42 574.844 179.28 576.584 179.28C579.484 179.28 581.164 176.9 581.164 173.82C581.164 170.76 579.444 168.38 576.584 168.38C574.924 168.38 573.724 169.18 573.084 170.5H573.064V164.16H571.224V179ZM579.304 174.22C579.304 176.46 577.904 177.74 576.184 177.74C574.464 177.74 573.064 176.38 573.064 174.22V173.46C573.064 171.26 574.464 169.92 576.184 169.92C577.904 169.92 579.304 171.22 579.304 173.46V174.22Z" fill="#5B616E"/>
<path d="M621.36 179.28C624.64 179.28 626.82 177.6 626.82 175.04C626.82 172.6 625.1 171.52 622.66 171.12L620.68 170.82C619.06 170.56 618.04 169.98 618.04 168.58C618.04 167.22 619.16 166.16 621.34 166.16C623.5 166.16 624.58 167.18 624.68 168.6H626.6C626.5 166.48 624.8 164.62 621.36 164.62C618 164.62 616.12 166.44 616.12 168.7C616.12 171.12 617.8 172.22 620.16 172.58L622.18 172.9C623.92 173.18 624.88 173.76 624.88 175.16C624.88 176.7 623.54 177.74 621.38 177.74C619.16 177.74 617.76 176.76 617.68 175H615.76C615.84 177.48 617.88 179.28 621.36 179.28ZM633.615 179.28C636.115 179.28 637.795 177.92 638.175 176H636.315C636.155 176.9 635.255 177.84 633.655 177.84C631.815 177.84 630.455 176.48 630.455 174.3V174.24H638.375V173.58C638.375 170.64 636.655 168.38 633.555 168.38C630.475 168.38 628.615 170.74 628.615 173.82C628.615 176.88 630.375 179.28 633.615 179.28ZM633.555 169.8C635.235 169.8 636.435 170.92 636.515 172.92H630.475C630.635 170.96 631.955 169.8 633.555 169.8ZM642.037 173.44C642.037 171.26 643.417 169.92 645.157 169.92C646.677 169.92 647.517 170.82 647.797 171.88H649.617C649.237 169.78 647.617 168.38 645.177 168.38C642.017 168.38 640.197 170.7 640.197 173.82C640.197 176.92 641.977 179.28 645.177 179.28C647.617 179.28 649.217 177.86 649.617 175.72H647.817C647.517 176.84 646.637 177.74 645.157 177.74C643.417 177.74 642.037 176.38 642.037 174.22V173.44ZM656.37 179.28C659.57 179.28 661.39 176.88 661.39 173.82C661.39 170.76 659.51 168.38 656.37 168.38C653.21 168.38 651.35 170.76 651.35 173.82C651.35 176.88 653.17 179.28 656.37 179.28ZM659.53 174.2C659.53 176.44 658.11 177.74 656.37 177.74C654.63 177.74 653.19 176.36 653.19 174.2V173.44C653.19 171.26 654.63 169.92 656.37 169.92C658.11 169.92 659.53 171.22 659.53 173.44V174.2ZM665.685 172.94C665.685 170.9 667.005 169.94 668.445 169.94C669.825 169.94 671.005 170.84 671.005 172.7V179H672.845V172.54C672.845 169.82 671.145 168.38 668.985 168.38C667.465 168.38 666.205 169.04 665.605 170.42H665.585V168.66H663.845V179H665.685V172.94ZM685.137 179V164.16H683.297V170.5H683.277C682.637 169.18 681.437 168.38 679.757 168.38C676.917 168.38 675.197 170.76 675.197 173.82C675.197 176.9 676.877 179.28 679.757 179.28C681.517 179.28 682.737 178.42 683.357 177.04H683.377V179H685.137ZM677.037 174.22V173.46C677.037 171.22 678.457 169.92 680.157 169.92C681.877 169.92 683.297 171.26 683.297 173.46V174.22C683.297 176.38 681.877 177.74 680.157 177.74C678.457 177.74 677.037 176.46 677.037 174.22ZM687.88 171.54H689.7C689.82 170.44 690.6 169.78 692.08 169.78C693.72 169.78 694.28 170.62 694.28 171.44C694.28 172.24 693.74 172.58 692.68 172.76L691.12 173.02C688.94 173.36 687.5 174.32 687.5 176.22C687.5 178.16 689 179.28 691.04 179.28C692.78 179.28 694.06 178.4 694.56 177.12H694.58V177.32C694.56 178.42 695.08 179 696.38 179H697.56V177.52H696.92C696.42 177.52 696.16 177.36 696.16 176.72V171.82C696.16 169.48 694.48 168.38 692.12 168.38C689.52 168.38 688.06 169.68 687.88 171.54ZM694.34 174.7C694.34 176.58 693.12 177.84 691.38 177.84C690.14 177.84 689.3 177.24 689.3 176.16V176.04C689.3 175.04 690.12 174.5 691.44 174.28L692.96 174.02C693.68 173.9 694.14 173.62 694.34 173.34V174.7ZM699.333 179H701.173V173C701.173 171.48 701.733 170.3 703.693 170.3H705.413V168.6H704.033C702.273 168.6 701.433 169.48 701.113 170.4H701.093V168.66H699.333V179ZM711.815 180.16L716.295 168.66H714.415L711.435 176.6H711.415L708.355 168.66H706.335L710.435 178.72L709.975 179.9C709.515 181.06 709.195 181.3 708.115 181.3H706.395V182.84H708.175C710.235 182.84 711.075 182.08 711.815 180.16ZM721.396 168.66V170.18H723.756V176.54C723.756 178.18 724.536 179 726.296 179H728.996V177.48H726.636C725.896 177.48 725.596 177.16 725.596 176.42V170.18H728.976V168.66H725.596V165.56H723.756V168.66H721.396ZM730.712 171.54H732.532C732.652 170.44 733.432 169.78 734.912 169.78C736.552 169.78 737.112 170.62 737.112 171.44C737.112 172.24 736.572 172.58 735.512 172.76L733.952 173.02C731.772 173.36 730.332 174.32 730.332 176.22C730.332 178.16 731.832 179.28 733.872 179.28C735.612 179.28 736.892 178.4 737.392 177.12H737.412V177.32C737.392 178.42 737.912 179 739.212 179H740.392V177.52H739.752C739.252 177.52 738.992 177.36 738.992 176.72V171.82C738.992 169.48 737.312 168.38 734.952 168.38C732.352 168.38 730.892 169.68 730.712 171.54ZM737.172 174.7C737.172 176.58 735.952 177.84 734.212 177.84C732.972 177.84 732.132 177.24 732.132 176.16V176.04C732.132 175.04 732.952 174.5 734.272 174.28L735.792 174.02C736.512 173.9 736.972 173.62 737.172 173.34V174.7ZM742.224 179H743.984V177.04H744.004C744.604 178.42 745.844 179.28 747.584 179.28C750.484 179.28 752.164 176.9 752.164 173.82C752.164 170.76 750.444 168.38 747.584 168.38C745.924 168.38 744.724 169.18 744.084 170.5H744.064V164.16H742.224V179ZM750.304 174.22C750.304 176.46 748.904 177.74 747.184 177.74C745.464 177.74 744.064 176.38 744.064 174.22V173.46C744.064 171.26 745.464 169.92 747.184 169.92C748.904 169.92 750.304 171.22 750.304 173.46V174.22Z" fill="#5B616E"/>
<path d="M792.36 179.28C795.64 179.28 797.82 177.6 797.82 175.04C797.82 172.6 796.1 171.52 793.66 171.12L791.68 170.82C790.06 170.56 789.04 169.98 789.04 168.58C789.04 167.22 790.16 166.16 792.34 166.16C794.5 166.16 795.58 167.18 795.68 168.6H797.6C797.5 166.48 795.8 164.62 792.36 164.62C789 164.62 787.12 166.44 787.12 168.7C787.12 171.12 788.8 172.22 791.16 172.58L793.18 172.9C794.92 173.18 795.88 173.76 795.88 175.16C795.88 176.7 794.54 177.74 792.38 177.74C790.16 177.74 788.76 176.76 788.68 175H786.76C786.84 177.48 788.88 179.28 792.36 179.28ZM804.615 179.28C807.115 179.28 808.795 177.92 809.175 176H807.315C807.155 176.9 806.255 177.84 804.655 177.84C802.815 177.84 801.455 176.48 801.455 174.3V174.24H809.375V173.58C809.375 170.64 807.655 168.38 804.555 168.38C801.475 168.38 799.615 170.74 799.615 173.82C799.615 176.88 801.375 179.28 804.615 179.28ZM804.555 169.8C806.235 169.8 807.435 170.92 807.515 172.92H801.475C801.635 170.96 802.955 169.8 804.555 169.8ZM813.037 173.44C813.037 171.26 814.417 169.92 816.157 169.92C817.677 169.92 818.517 170.82 818.797 171.88H820.617C820.237 169.78 818.617 168.38 816.177 168.38C813.017 168.38 811.197 170.7 811.197 173.82C811.197 176.92 812.977 179.28 816.177 179.28C818.617 179.28 820.217 177.86 820.617 175.72H818.817C818.517 176.84 817.637 177.74 816.157 177.74C814.417 177.74 813.037 176.38 813.037 174.22V173.44ZM827.37 179.28C830.57 179.28 832.39 176.88 832.39 173.82C832.39 170.76 830.51 168.38 827.37 168.38C824.21 168.38 822.35 170.76 822.35 173.82C822.35 176.88 824.17 179.28 827.37 179.28ZM830.53 174.2C830.53 176.44 829.11 177.74 827.37 177.74C825.63 177.74 824.19 176.36 824.19 174.2V173.44C824.19 171.26 825.63 169.92 827.37 169.92C829.11 169.92 830.53 171.22 830.53 173.44V174.2ZM836.685 172.94C836.685 170.9 838.005 169.94 839.445 169.94C840.825 169.94 842.005 170.84 842.005 172.7V179H843.845V172.54C843.845 169.82 842.145 168.38 839.985 168.38C838.465 168.38 837.205 169.04 836.605 170.42H836.585V168.66H834.845V179H836.685V172.94ZM856.137 179V164.16H854.297V170.5H854.277C853.637 169.18 852.437 168.38 850.757 168.38C847.917 168.38 846.197 170.76 846.197 173.82C846.197 176.9 847.877 179.28 850.757 179.28C852.517 179.28 853.737 178.42 854.357 177.04H854.377V179H856.137ZM848.037 174.22V173.46C848.037 171.22 849.457 169.92 851.157 169.92C852.877 169.92 854.297 171.26 854.297 173.46V174.22C854.297 176.38 852.877 177.74 851.157 177.74C849.457 177.74 848.037 176.46 848.037 174.22ZM858.88 171.54H860.7C860.82 170.44 861.6 169.78 863.08 169.78C864.72 169.78 865.28 170.62 865.28 171.44C865.28 172.24 864.74 172.58 863.68 172.76L862.12 173.02C859.94 173.36 858.5 174.32 858.5 176.22C858.5 178.16 860 179.28 862.04 179.28C863.78 179.28 865.06 178.4 865.56 177.12H865.58V177.32C865.56 178.42 866.08 179 867.38 179H868.56V177.52H867.92C867.42 177.52 867.16 177.36 867.16 176.72V171.82C867.16 169.48 865.48 168.38 863.12 168.38C860.52 168.38 859.06 169.68 858.88 171.54ZM865.34 174.7C865.34 176.58 864.12 177.84 862.38 177.84C861.14 177.84 860.3 177.24 860.3 176.16V176.04C860.3 175.04 861.12 174.5 862.44 174.28L863.96 174.02C864.68 173.9 865.14 173.62 865.34 173.34V174.7ZM870.333 179H872.173V173C872.173 171.48 872.733 170.3 874.693 170.3H876.413V168.6H875.033C873.273 168.6 872.433 169.48 872.113 170.4H872.093V168.66H870.333V179ZM882.815 180.16L887.295 168.66H885.415L882.435 176.6H882.415L879.355 168.66H877.335L881.435 178.72L880.975 179.9C880.515 181.06 880.195 181.3 879.115 181.3H877.395V182.84H879.175C881.235 182.84 882.075 182.08 882.815 180.16ZM892.396 168.66V170.18H894.756V176.54C894.756 178.18 895.536 179 897.296 179H899.996V177.48H897.636C896.896 177.48 896.596 177.16 896.596 176.42V170.18H899.976V168.66H896.596V165.56H894.756V168.66H892.396ZM901.712 171.54H903.532C903.652 170.44 904.432 169.78 905.912 169.78C907.552 169.78 908.112 170.62 908.112 171.44C908.112 172.24 907.572 172.58 906.512 172.76L904.952 173.02C902.772 173.36 901.332 174.32 901.332 176.22C901.332 178.16 902.832 179.28 904.872 179.28C906.612 179.28 907.892 178.4 908.392 177.12H908.412V177.32C908.392 178.42 908.912 179 910.212 179H911.392V177.52H910.752C910.252 177.52 909.992 177.36 909.992 176.72V171.82C909.992 169.48 908.312 168.38 905.952 168.38C903.352 168.38 901.892 169.68 901.712 171.54ZM908.172 174.7C908.172 176.58 906.952 177.84 905.212 177.84C903.972 177.84 903.132 177.24 903.132 176.16V176.04C903.132 175.04 903.952 174.5 905.272 174.28L906.792 174.02C907.512 173.9 907.972 173.62 908.172 173.34V174.7ZM913.224 179H914.984V177.04H915.004C915.604 178.42 916.844 179.28 918.584 179.28C921.484 179.28 923.164 176.9 923.164 173.82C923.164 170.76 921.444 168.38 918.584 168.38C916.924 168.38 915.724 169.18 915.084 170.5H915.064V164.16H913.224V179ZM921.304 174.22C921.304 176.46 919.904 177.74 918.184 177.74C916.464 177.74 915.064 176.38 915.064 174.22V173.46C915.064 171.26 916.464 169.92 918.184 169.92C919.904 169.92 921.304 171.22 921.304 173.46V174.22Z" fill="#5B616E"/>
<rect x="845" y="151" width="80" height="40" fill="url(#paint0_linear_1412_40938)"/>
<rect opacity="0.25" x="99" y="151" width="142" height="40" fill="#C5A0FB"/>
<rect opacity="0.25" x="270" y="151" width="142" height="40" fill="#C5A0FB"/>
<path d="M170 156.774L175.774 151L170 145.226L164.226 151L170 156.774ZM171 151L171 112L169 112L169 151L171 151Z" fill="#B184F7"/>
<rect x="160" y="81" width="20" height="30" rx="3" fill="#FBF7FF"/>
<path d="M169.913 100H171.044V90.705H169.991L167.833 92.265V93.318L169.913 91.823V100Z" fill="#5A30AD"/>
<rect x="160" y="81" width="20" height="30" rx="3" stroke="#B184F7" stroke-width="2"/>
<rect x="159" y="239" width="22" height="30" rx="3" fill="#FBF7FF"/>
<path d="M166.648 258H172.875V257.077H168.39L170.951 254.581C172.095 253.463 172.823 252.345 172.823 251.201C172.823 249.602 171.731 248.588 170.015 248.588C168.247 248.588 167.142 249.745 166.999 251.565H168.052C168.234 250.109 168.936 249.498 170.015 249.498C171.068 249.498 171.679 250.122 171.679 251.162C171.679 252.111 171.185 252.956 170.34 253.853L166.648 257.74V258Z" fill="#5A30AD"/>
<rect x="159" y="239" width="22" height="30" rx="3" stroke="#B184F7" stroke-width="2"/>
<path d="M170 193.226L164.226 199L170 204.774L175.774 199L170 193.226ZM171 238L171 199L169 199L169 238L171 238Z" fill="#B184F7"/>
<rect x="330" y="239" width="22" height="30" rx="3" fill="#FBF7FF"/>
<path d="M340.847 258.117C342.771 258.117 344.149 257.103 344.149 255.413C344.149 254.126 343.447 253.359 342.355 253.073C343.2 252.722 343.824 252.098 343.824 251.045C343.824 249.758 342.797 248.588 341.029 248.588C339.261 248.588 338.052 249.797 337.987 251.266H338.975C339.092 250.213 339.872 249.511 341.029 249.511C342.16 249.511 342.719 250.187 342.719 251.071C342.719 252.085 342.186 252.657 340.977 252.657H340.327V253.606H341.029C342.342 253.606 342.992 254.217 342.992 255.413C342.992 256.505 342.329 257.207 340.873 257.207C339.404 257.207 338.741 256.362 338.637 255.257H337.597C337.662 256.882 338.871 258.117 340.847 258.117Z" fill="#5A30AD"/>
<rect x="330" y="239" width="22" height="30" rx="3" stroke="#B184F7" stroke-width="2"/>
<path d="M341 193.226L335.226 199L341 204.774L346.774 199L341 193.226ZM342 238L342 199L340 199L340 238L342 238Z" fill="#B184F7"/>
<rect x="844" y="239" width="23" height="30" rx="3" fill="#FBF7FF"/>
<path d="M856.649 258H857.754V256.05H859.041V255.127H857.754V248.705H856.246L851.995 255.686V256.05H856.649V258ZM853.425 255.127L856.649 249.563V255.127H853.425Z" fill="#5A30AD"/>
<rect x="844" y="239" width="23" height="30" rx="3" stroke="#B184F7" stroke-width="2"/>
<path d="M855.5 193.226L849.726 199L855.5 204.774L861.274 199L855.5 193.226ZM856.5 238L856.5 199L854.5 199L854.5 238L856.5 238Z" fill="#B184F7"/>
<defs>
<linearGradient id="paint0_linear_1412_40938" x1="935" y1="171" x2="828.333" y2="171" gradientUnits="userSpaceOnUse">
<stop stop-color="#B184F7"/>
<stop offset="1" stop-color="white" stop-opacity="0"/>
</linearGradient>
</defs>
</svg>
