<svg width="1024" height="350" viewBox="0 0 1024 350" fill="none" xmlns="http://www.w3.org/2000/svg">
<rect width="1024" height="350" fill="#0A0B0D"/>
<rect width="80" height="56" transform="matrix(-1 0 0 1 860 143)" fill="url(#paint0_linear_1398_48061)"/>
<rect opacity="0.25" x="165" y="151" width="142" height="40" fill="#7443CE"/>
<rect opacity="0.25" x="336" y="151" width="142" height="40" fill="#7443CE"/>
<rect x="225" y="239" width="22" height="30" rx="3" fill="#190D33"/>
<path d="M232.648 258H238.875V257.077H234.39L236.951 254.581C238.095 253.463 238.823 252.345 238.823 251.201C238.823 249.602 237.731 248.588 236.015 248.588C234.247 248.588 233.142 249.745 232.999 251.565H234.052C234.234 250.109 234.936 249.498 236.015 249.498C237.068 249.498 237.679 250.122 237.679 251.162C237.679 252.111 237.185 252.956 236.34 253.853L232.648 257.74V258Z" fill="#DDC3FD"/>
<rect x="225" y="239" width="22" height="30" rx="3" stroke="#8956E1" stroke-width="2"/>
<path d="M236 193.226L230.226 199L236 204.774L241.774 199L236 193.226ZM237 238L237 199L235 199L235 238L237 238Z" fill="#8956E1"/>
<path d="M236 156.774L241.774 151L236 145.226L230.226 151L236 156.774ZM237 151L237 112L235 112L235 151L237 151Z" fill="#8956E1"/>
<rect x="226" y="81" width="20" height="30" rx="3" fill="#190D33"/>
<path d="M235.913 100H237.044V90.705H235.991L233.833 92.265V93.318L235.913 91.823V100Z" fill="#DDC3FD"/>
<rect x="226" y="81" width="20" height="30" rx="3" stroke="#8956E1" stroke-width="2"/>
<rect x="396" y="239" width="22" height="30" rx="3" fill="#190D33"/>
<path d="M406.847 258.117C408.771 258.117 410.149 257.103 410.149 255.413C410.149 254.126 409.447 253.359 408.355 253.073C409.2 252.722 409.824 252.098 409.824 251.045C409.824 249.758 408.797 248.588 407.029 248.588C405.261 248.588 404.052 249.797 403.987 251.266H404.975C405.092 250.213 405.872 249.511 407.029 249.511C408.16 249.511 408.719 250.187 408.719 251.071C408.719 252.085 408.186 252.657 406.977 252.657H406.327V253.606H407.029C408.342 253.606 408.992 254.217 408.992 255.413C408.992 256.505 408.329 257.207 406.873 257.207C405.404 257.207 404.741 256.362 404.637 255.257H403.597C403.662 256.882 404.871 258.117 406.847 258.117Z" fill="#DDC3FD"/>
<rect x="396" y="239" width="22" height="30" rx="3" stroke="#8956E1" stroke-width="2"/>
<path d="M407 193.226L401.226 199L407 204.774L412.774 199L407 193.226ZM408 238L408 199L406 199L406 238L408 238Z" fill="#8956E1"/>
<path d="M171.46 179.3C174.86 179.3 177.18 177.54 177.18 174.88C177.18 172.18 175.28 171.14 172.8 170.78L170.98 170.5C169.52 170.28 168.66 169.86 168.66 168.66C168.66 167.64 169.5 166.74 171.42 166.74C173.36 166.74 174.22 167.6 174.26 168.8H176.98C176.92 166.54 175.02 164.6 171.44 164.6C167.94 164.6 165.94 166.52 165.94 168.88C165.94 171.46 167.7 172.62 170.2 173L172.06 173.28C173.64 173.52 174.46 173.9 174.46 175.08C174.46 176.3 173.4 177.16 171.48 177.16C169.56 177.16 168.38 176.34 168.34 174.82H165.62C165.66 177.46 167.9 179.3 171.46 179.3ZM183.99 179.28C186.57 179.28 188.43 177.9 188.77 175.9H186.17C186.07 176.6 185.37 177.34 184.05 177.34C182.49 177.34 181.33 176.26 181.31 174.42H188.95V173.48C188.95 170.7 187.27 168.24 183.89 168.24C180.47 168.24 178.71 170.82 178.71 173.76C178.71 176.72 180.45 179.28 183.99 179.28ZM183.89 170.18C185.29 170.18 186.29 171.08 186.35 172.68H181.33C181.49 171.1 182.53 170.18 183.89 170.18ZM193.087 173.32C193.087 171.5 194.207 170.38 195.667 170.38C196.947 170.38 197.627 171.16 197.847 172.02H200.367C200.027 169.74 198.287 168.24 195.687 168.24C192.227 168.24 190.507 170.76 190.507 173.76C190.507 176.76 192.207 179.28 195.687 179.28C198.287 179.28 200.007 177.8 200.367 175.5H197.847C197.627 176.38 196.947 177.16 195.667 177.16C194.207 177.16 193.087 176.06 193.087 174.24V173.32ZM207.095 179.28C210.575 179.28 212.335 176.7 212.335 173.76C212.335 170.84 210.555 168.24 207.095 168.24C203.615 168.24 201.835 170.82 201.835 173.76C201.835 176.7 203.595 179.28 207.095 179.28ZM209.735 174.22C209.735 176.08 208.575 177.14 207.095 177.14C205.595 177.14 204.435 176.04 204.435 174.22V173.32C204.435 171.48 205.595 170.38 207.095 170.38C208.575 170.38 209.735 171.44 209.735 173.32V174.22ZM217.065 172.84C217.065 171.22 218.145 170.44 219.325 170.44C220.445 170.44 221.465 171.18 221.465 172.72V179H224.065V172.44C224.065 169.8 222.425 168.24 220.185 168.24C218.705 168.24 217.485 168.9 216.925 170.2H216.905V168.52H214.465V179H217.065V172.84ZM236.553 179V164.16H233.953V170.04H233.933C233.313 168.94 232.253 168.24 230.673 168.24C227.653 168.24 226.093 170.82 226.093 173.76C226.093 176.72 227.653 179.28 230.673 179.28C232.373 179.28 233.493 178.5 234.093 177.24H234.113V179H236.553ZM228.693 174.24V173.32C228.693 171.46 229.873 170.4 231.333 170.4C232.793 170.4 233.953 171.5 233.953 173.32V174.24C233.953 176.06 232.793 177.16 231.333 177.16C229.873 177.16 228.693 176.1 228.693 174.24ZM238.95 171.56H241.51C241.59 170.68 242.23 170.12 243.47 170.12C244.81 170.12 245.27 170.76 245.27 171.46C245.27 172.12 244.85 172.44 243.87 172.58L242.59 172.78C240.13 173.12 238.61 174.08 238.61 176.12C238.61 178.1 240.11 179.28 242.29 179.28C244.01 179.28 245.25 178.46 245.75 177.2H245.77V177.3C245.75 178.34 246.31 179 247.75 179H249.19V176.98H248.57C248.09 176.98 247.87 176.86 247.87 176.28V171.94C247.87 169.28 245.91 168.24 243.51 168.24C240.77 168.24 239.17 169.58 238.95 171.56ZM245.31 174.76C245.31 176.28 244.35 177.32 242.83 177.32C241.77 177.32 241.13 176.8 241.13 175.98V175.86C241.13 175.06 241.83 174.6 242.99 174.42L244.09 174.26C244.69 174.18 245.09 173.96 245.31 173.78V174.76ZM250.794 179H253.394V173.14C253.394 171.74 254.014 170.88 255.794 170.88H257.554V168.5H256.274C254.414 168.5 253.554 169.48 253.294 170.36H253.274V168.52H250.794V179ZM264.645 179.84L268.865 168.52H266.245L263.705 175.76H263.685L261.125 168.52H258.265L262.325 178.68L261.985 179.6C261.645 180.52 261.265 180.72 260.445 180.72H258.365V182.82H260.565C262.665 182.82 263.805 182.02 264.645 179.84ZM273.583 168.52V170.64H275.863V176.24C275.863 178.04 276.783 179 278.723 179H281.703V176.9H279.323C278.723 176.9 278.463 176.64 278.463 176.02V170.64H281.703V168.52H278.463V165.58H275.863V168.52H273.583ZM283.267 171.56H285.827C285.907 170.68 286.547 170.12 287.787 170.12C289.127 170.12 289.587 170.76 289.587 171.46C289.587 172.12 289.167 172.44 288.187 172.58L286.907 172.78C284.447 173.12 282.927 174.08 282.927 176.12C282.927 178.1 284.427 179.28 286.607 179.28C288.327 179.28 289.567 178.46 290.067 177.2H290.087V177.3C290.067 178.34 290.627 179 292.067 179H293.507V176.98H292.887C292.407 176.98 292.187 176.86 292.187 176.28V171.94C292.187 169.28 290.227 168.24 287.827 168.24C285.087 168.24 283.487 169.58 283.267 171.56ZM289.627 174.76C289.627 176.28 288.667 177.32 287.147 177.32C286.087 177.32 285.447 176.8 285.447 175.98V175.86C285.447 175.06 286.147 174.6 287.307 174.42L288.407 174.26C289.007 174.18 289.407 173.96 289.627 173.78V174.76ZM295.13 179H297.57V177.24H297.59C298.19 178.5 299.29 179.28 301.01 179.28C304.03 179.28 305.59 176.72 305.59 173.76C305.59 170.82 304.03 168.24 301.01 168.24C299.43 168.24 298.35 168.94 297.75 170.04H297.73V164.16H295.13V179ZM302.99 174.24C302.99 176.1 301.81 177.16 300.35 177.16C298.89 177.16 297.73 176.06 297.73 174.24V173.32C297.73 171.5 298.89 170.4 300.35 170.4C301.81 170.4 302.99 171.46 302.99 173.32V174.24Z" fill="white"/>
<path d="M345.36 179.28C348.64 179.28 350.82 177.6 350.82 175.04C350.82 172.6 349.1 171.52 346.66 171.12L344.68 170.82C343.06 170.56 342.04 169.98 342.04 168.58C342.04 167.22 343.16 166.16 345.34 166.16C347.5 166.16 348.58 167.18 348.68 168.6H350.6C350.5 166.48 348.8 164.62 345.36 164.62C342 164.62 340.12 166.44 340.12 168.7C340.12 171.12 341.8 172.22 344.16 172.58L346.18 172.9C347.92 173.18 348.88 173.76 348.88 175.16C348.88 176.7 347.54 177.74 345.38 177.74C343.16 177.74 341.76 176.76 341.68 175H339.76C339.84 177.48 341.88 179.28 345.36 179.28ZM357.615 179.28C360.115 179.28 361.795 177.92 362.175 176H360.315C360.155 176.9 359.255 177.84 357.655 177.84C355.815 177.84 354.455 176.48 354.455 174.3V174.24H362.375V173.58C362.375 170.64 360.655 168.38 357.555 168.38C354.475 168.38 352.615 170.74 352.615 173.82C352.615 176.88 354.375 179.28 357.615 179.28ZM357.555 169.8C359.235 169.8 360.435 170.92 360.515 172.92H354.475C354.635 170.96 355.955 169.8 357.555 169.8ZM366.037 173.44C366.037 171.26 367.417 169.92 369.157 169.92C370.677 169.92 371.517 170.82 371.797 171.88H373.617C373.237 169.78 371.617 168.38 369.177 168.38C366.017 168.38 364.197 170.7 364.197 173.82C364.197 176.92 365.977 179.28 369.177 179.28C371.617 179.28 373.217 177.86 373.617 175.72H371.817C371.517 176.84 370.637 177.74 369.157 177.74C367.417 177.74 366.037 176.38 366.037 174.22V173.44ZM380.37 179.28C383.57 179.28 385.39 176.88 385.39 173.82C385.39 170.76 383.51 168.38 380.37 168.38C377.21 168.38 375.35 170.76 375.35 173.82C375.35 176.88 377.17 179.28 380.37 179.28ZM383.53 174.2C383.53 176.44 382.11 177.74 380.37 177.74C378.63 177.74 377.19 176.36 377.19 174.2V173.44C377.19 171.26 378.63 169.92 380.37 169.92C382.11 169.92 383.53 171.22 383.53 173.44V174.2ZM389.685 172.94C389.685 170.9 391.005 169.94 392.445 169.94C393.825 169.94 395.005 170.84 395.005 172.7V179H396.845V172.54C396.845 169.82 395.145 168.38 392.985 168.38C391.465 168.38 390.205 169.04 389.605 170.42H389.585V168.66H387.845V179H389.685V172.94ZM409.137 179V164.16H407.297V170.5H407.277C406.637 169.18 405.437 168.38 403.757 168.38C400.917 168.38 399.197 170.76 399.197 173.82C399.197 176.9 400.877 179.28 403.757 179.28C405.517 179.28 406.737 178.42 407.357 177.04H407.377V179H409.137ZM401.037 174.22V173.46C401.037 171.22 402.457 169.92 404.157 169.92C405.877 169.92 407.297 171.26 407.297 173.46V174.22C407.297 176.38 405.877 177.74 404.157 177.74C402.457 177.74 401.037 176.46 401.037 174.22ZM411.88 171.54H413.7C413.82 170.44 414.6 169.78 416.08 169.78C417.72 169.78 418.28 170.62 418.28 171.44C418.28 172.24 417.74 172.58 416.68 172.76L415.12 173.02C412.94 173.36 411.5 174.32 411.5 176.22C411.5 178.16 413 179.28 415.04 179.28C416.78 179.28 418.06 178.4 418.56 177.12H418.58V177.32C418.56 178.42 419.08 179 420.38 179H421.56V177.52H420.92C420.42 177.52 420.16 177.36 420.16 176.72V171.82C420.16 169.48 418.48 168.38 416.12 168.38C413.52 168.38 412.06 169.68 411.88 171.54ZM418.34 174.7C418.34 176.58 417.12 177.84 415.38 177.84C414.14 177.84 413.3 177.24 413.3 176.16V176.04C413.3 175.04 414.12 174.5 415.44 174.28L416.96 174.02C417.68 173.9 418.14 173.62 418.34 173.34V174.7ZM423.333 179H425.173V173C425.173 171.48 425.733 170.3 427.693 170.3H429.413V168.6H428.033C426.273 168.6 425.433 169.48 425.113 170.4H425.093V168.66H423.333V179ZM435.815 180.16L440.295 168.66H438.415L435.435 176.6H435.415L432.355 168.66H430.335L434.435 178.72L433.975 179.9C433.515 181.06 433.195 181.3 432.115 181.3H430.395V182.84H432.175C434.235 182.84 435.075 182.08 435.815 180.16ZM445.396 168.66V170.18H447.756V176.54C447.756 178.18 448.536 179 450.296 179H452.996V177.48H450.636C449.896 177.48 449.596 177.16 449.596 176.42V170.18H452.976V168.66H449.596V165.56H447.756V168.66H445.396ZM454.712 171.54H456.532C456.652 170.44 457.432 169.78 458.912 169.78C460.552 169.78 461.112 170.62 461.112 171.44C461.112 172.24 460.572 172.58 459.512 172.76L457.952 173.02C455.772 173.36 454.332 174.32 454.332 176.22C454.332 178.16 455.832 179.28 457.872 179.28C459.612 179.28 460.892 178.4 461.392 177.12H461.412V177.32C461.392 178.42 461.912 179 463.212 179H464.392V177.52H463.752C463.252 177.52 462.992 177.36 462.992 176.72V171.82C462.992 169.48 461.312 168.38 458.952 168.38C456.352 168.38 454.892 169.68 454.712 171.54ZM461.172 174.7C461.172 176.58 459.952 177.84 458.212 177.84C456.972 177.84 456.132 177.24 456.132 176.16V176.04C456.132 175.04 456.952 174.5 458.272 174.28L459.792 174.02C460.512 173.9 460.972 173.62 461.172 173.34V174.7ZM466.224 179H467.984V177.04H468.004C468.604 178.42 469.844 179.28 471.584 179.28C474.484 179.28 476.164 176.9 476.164 173.82C476.164 170.76 474.444 168.38 471.584 168.38C469.924 168.38 468.724 169.18 468.084 170.5H468.064V164.16H466.224V179ZM474.304 174.22C474.304 176.46 472.904 177.74 471.184 177.74C469.464 177.74 468.064 176.38 468.064 174.22V173.46C468.064 171.26 469.464 169.92 471.184 169.92C472.904 169.92 474.304 171.22 474.304 173.46V174.22Z" fill="#8A919E"/>
<path d="M516.36 179.28C519.64 179.28 521.82 177.6 521.82 175.04C521.82 172.6 520.1 171.52 517.66 171.12L515.68 170.82C514.06 170.56 513.04 169.98 513.04 168.58C513.04 167.22 514.16 166.16 516.34 166.16C518.5 166.16 519.58 167.18 519.68 168.6H521.6C521.5 166.48 519.8 164.62 516.36 164.62C513 164.62 511.12 166.44 511.12 168.7C511.12 171.12 512.8 172.22 515.16 172.58L517.18 172.9C518.92 173.18 519.88 173.76 519.88 175.16C519.88 176.7 518.54 177.74 516.38 177.74C514.16 177.74 512.76 176.76 512.68 175H510.76C510.84 177.48 512.88 179.28 516.36 179.28ZM528.615 179.28C531.115 179.28 532.795 177.92 533.175 176H531.315C531.155 176.9 530.255 177.84 528.655 177.84C526.815 177.84 525.455 176.48 525.455 174.3V174.24H533.375V173.58C533.375 170.64 531.655 168.38 528.555 168.38C525.475 168.38 523.615 170.74 523.615 173.82C523.615 176.88 525.375 179.28 528.615 179.28ZM528.555 169.8C530.235 169.8 531.435 170.92 531.515 172.92H525.475C525.635 170.96 526.955 169.8 528.555 169.8ZM537.037 173.44C537.037 171.26 538.417 169.92 540.157 169.92C541.677 169.92 542.517 170.82 542.797 171.88H544.617C544.237 169.78 542.617 168.38 540.177 168.38C537.017 168.38 535.197 170.7 535.197 173.82C535.197 176.92 536.977 179.28 540.177 179.28C542.617 179.28 544.217 177.86 544.617 175.72H542.817C542.517 176.84 541.637 177.74 540.157 177.74C538.417 177.74 537.037 176.38 537.037 174.22V173.44ZM551.37 179.28C554.57 179.28 556.39 176.88 556.39 173.82C556.39 170.76 554.51 168.38 551.37 168.38C548.21 168.38 546.35 170.76 546.35 173.82C546.35 176.88 548.17 179.28 551.37 179.28ZM554.53 174.2C554.53 176.44 553.11 177.74 551.37 177.74C549.63 177.74 548.19 176.36 548.19 174.2V173.44C548.19 171.26 549.63 169.92 551.37 169.92C553.11 169.92 554.53 171.22 554.53 173.44V174.2ZM560.685 172.94C560.685 170.9 562.005 169.94 563.445 169.94C564.825 169.94 566.005 170.84 566.005 172.7V179H567.845V172.54C567.845 169.82 566.145 168.38 563.985 168.38C562.465 168.38 561.205 169.04 560.605 170.42H560.585V168.66H558.845V179H560.685V172.94ZM580.137 179V164.16H578.297V170.5H578.277C577.637 169.18 576.437 168.38 574.757 168.38C571.917 168.38 570.197 170.76 570.197 173.82C570.197 176.9 571.877 179.28 574.757 179.28C576.517 179.28 577.737 178.42 578.357 177.04H578.377V179H580.137ZM572.037 174.22V173.46C572.037 171.22 573.457 169.92 575.157 169.92C576.877 169.92 578.297 171.26 578.297 173.46V174.22C578.297 176.38 576.877 177.74 575.157 177.74C573.457 177.74 572.037 176.46 572.037 174.22ZM582.88 171.54H584.7C584.82 170.44 585.6 169.78 587.08 169.78C588.72 169.78 589.28 170.62 589.28 171.44C589.28 172.24 588.74 172.58 587.68 172.76L586.12 173.02C583.94 173.36 582.5 174.32 582.5 176.22C582.5 178.16 584 179.28 586.04 179.28C587.78 179.28 589.06 178.4 589.56 177.12H589.58V177.32C589.56 178.42 590.08 179 591.38 179H592.56V177.52H591.92C591.42 177.52 591.16 177.36 591.16 176.72V171.82C591.16 169.48 589.48 168.38 587.12 168.38C584.52 168.38 583.06 169.68 582.88 171.54ZM589.34 174.7C589.34 176.58 588.12 177.84 586.38 177.84C585.14 177.84 584.3 177.24 584.3 176.16V176.04C584.3 175.04 585.12 174.5 586.44 174.28L587.96 174.02C588.68 173.9 589.14 173.62 589.34 173.34V174.7ZM594.333 179H596.173V173C596.173 171.48 596.733 170.3 598.693 170.3H600.413V168.6H599.033C597.273 168.6 596.433 169.48 596.113 170.4H596.093V168.66H594.333V179ZM606.815 180.16L611.295 168.66H609.415L606.435 176.6H606.415L603.355 168.66H601.335L605.435 178.72L604.975 179.9C604.515 181.06 604.195 181.3 603.115 181.3H601.395V182.84H603.175C605.235 182.84 606.075 182.08 606.815 180.16ZM616.396 168.66V170.18H618.756V176.54C618.756 178.18 619.536 179 621.296 179H623.996V177.48H621.636C620.896 177.48 620.596 177.16 620.596 176.42V170.18H623.976V168.66H620.596V165.56H618.756V168.66H616.396ZM625.712 171.54H627.532C627.652 170.44 628.432 169.78 629.912 169.78C631.552 169.78 632.112 170.62 632.112 171.44C632.112 172.24 631.572 172.58 630.512 172.76L628.952 173.02C626.772 173.36 625.332 174.32 625.332 176.22C625.332 178.16 626.832 179.28 628.872 179.28C630.612 179.28 631.892 178.4 632.392 177.12H632.412V177.32C632.392 178.42 632.912 179 634.212 179H635.392V177.52H634.752C634.252 177.52 633.992 177.36 633.992 176.72V171.82C633.992 169.48 632.312 168.38 629.952 168.38C627.352 168.38 625.892 169.68 625.712 171.54ZM632.172 174.7C632.172 176.58 630.952 177.84 629.212 177.84C627.972 177.84 627.132 177.24 627.132 176.16V176.04C627.132 175.04 627.952 174.5 629.272 174.28L630.792 174.02C631.512 173.9 631.972 173.62 632.172 173.34V174.7ZM637.224 179H638.984V177.04H639.004C639.604 178.42 640.844 179.28 642.584 179.28C645.484 179.28 647.164 176.9 647.164 173.82C647.164 170.76 645.444 168.38 642.584 168.38C640.924 168.38 639.724 169.18 639.084 170.5H639.064V164.16H637.224V179ZM645.304 174.22C645.304 176.46 643.904 177.74 642.184 177.74C640.464 177.74 639.064 176.38 639.064 174.22V173.46C639.064 171.26 640.464 169.92 642.184 169.92C643.904 169.92 645.304 171.22 645.304 173.46V174.22Z" fill="#8A919E"/>
<path d="M687.36 179.28C690.64 179.28 692.82 177.6 692.82 175.04C692.82 172.6 691.1 171.52 688.66 171.12L686.68 170.82C685.06 170.56 684.04 169.98 684.04 168.58C684.04 167.22 685.16 166.16 687.34 166.16C689.5 166.16 690.58 167.18 690.68 168.6H692.6C692.5 166.48 690.8 164.62 687.36 164.62C684 164.62 682.12 166.44 682.12 168.7C682.12 171.12 683.8 172.22 686.16 172.58L688.18 172.9C689.92 173.18 690.88 173.76 690.88 175.16C690.88 176.7 689.54 177.74 687.38 177.74C685.16 177.74 683.76 176.76 683.68 175H681.76C681.84 177.48 683.88 179.28 687.36 179.28ZM699.615 179.28C702.115 179.28 703.795 177.92 704.175 176H702.315C702.155 176.9 701.255 177.84 699.655 177.84C697.815 177.84 696.455 176.48 696.455 174.3V174.24H704.375V173.58C704.375 170.64 702.655 168.38 699.555 168.38C696.475 168.38 694.615 170.74 694.615 173.82C694.615 176.88 696.375 179.28 699.615 179.28ZM699.555 169.8C701.235 169.8 702.435 170.92 702.515 172.92H696.475C696.635 170.96 697.955 169.8 699.555 169.8ZM708.037 173.44C708.037 171.26 709.417 169.92 711.157 169.92C712.677 169.92 713.517 170.82 713.797 171.88H715.617C715.237 169.78 713.617 168.38 711.177 168.38C708.017 168.38 706.197 170.7 706.197 173.82C706.197 176.92 707.977 179.28 711.177 179.28C713.617 179.28 715.217 177.86 715.617 175.72H713.817C713.517 176.84 712.637 177.74 711.157 177.74C709.417 177.74 708.037 176.38 708.037 174.22V173.44ZM722.37 179.28C725.57 179.28 727.39 176.88 727.39 173.82C727.39 170.76 725.51 168.38 722.37 168.38C719.21 168.38 717.35 170.76 717.35 173.82C717.35 176.88 719.17 179.28 722.37 179.28ZM725.53 174.2C725.53 176.44 724.11 177.74 722.37 177.74C720.63 177.74 719.19 176.36 719.19 174.2V173.44C719.19 171.26 720.63 169.92 722.37 169.92C724.11 169.92 725.53 171.22 725.53 173.44V174.2ZM731.685 172.94C731.685 170.9 733.005 169.94 734.445 169.94C735.825 169.94 737.005 170.84 737.005 172.7V179H738.845V172.54C738.845 169.82 737.145 168.38 734.985 168.38C733.465 168.38 732.205 169.04 731.605 170.42H731.585V168.66H729.845V179H731.685V172.94ZM751.137 179V164.16H749.297V170.5H749.277C748.637 169.18 747.437 168.38 745.757 168.38C742.917 168.38 741.197 170.76 741.197 173.82C741.197 176.9 742.877 179.28 745.757 179.28C747.517 179.28 748.737 178.42 749.357 177.04H749.377V179H751.137ZM743.037 174.22V173.46C743.037 171.22 744.457 169.92 746.157 169.92C747.877 169.92 749.297 171.26 749.297 173.46V174.22C749.297 176.38 747.877 177.74 746.157 177.74C744.457 177.74 743.037 176.46 743.037 174.22ZM753.88 171.54H755.7C755.82 170.44 756.6 169.78 758.08 169.78C759.72 169.78 760.28 170.62 760.28 171.44C760.28 172.24 759.74 172.58 758.68 172.76L757.12 173.02C754.94 173.36 753.5 174.32 753.5 176.22C753.5 178.16 755 179.28 757.04 179.28C758.78 179.28 760.06 178.4 760.56 177.12H760.58V177.32C760.56 178.42 761.08 179 762.38 179H763.56V177.52H762.92C762.42 177.52 762.16 177.36 762.16 176.72V171.82C762.16 169.48 760.48 168.38 758.12 168.38C755.52 168.38 754.06 169.68 753.88 171.54ZM760.34 174.7C760.34 176.58 759.12 177.84 757.38 177.84C756.14 177.84 755.3 177.24 755.3 176.16V176.04C755.3 175.04 756.12 174.5 757.44 174.28L758.96 174.02C759.68 173.9 760.14 173.62 760.34 173.34V174.7ZM765.333 179H767.173V173C767.173 171.48 767.733 170.3 769.693 170.3H771.413V168.6H770.033C768.273 168.6 767.433 169.48 767.113 170.4H767.093V168.66H765.333V179ZM777.815 180.16L782.295 168.66H780.415L777.435 176.6H777.415L774.355 168.66H772.335L776.435 178.72L775.975 179.9C775.515 181.06 775.195 181.3 774.115 181.3H772.395V182.84H774.175C776.235 182.84 777.075 182.08 777.815 180.16ZM787.396 168.66V170.18H789.756V176.54C789.756 178.18 790.536 179 792.296 179H794.996V177.48H792.636C791.896 177.48 791.596 177.16 791.596 176.42V170.18H794.976V168.66H791.596V165.56H789.756V168.66H787.396ZM796.712 171.54H798.532C798.652 170.44 799.432 169.78 800.912 169.78C802.552 169.78 803.112 170.62 803.112 171.44C803.112 172.24 802.572 172.58 801.512 172.76L799.952 173.02C797.772 173.36 796.332 174.32 796.332 176.22C796.332 178.16 797.832 179.28 799.872 179.28C801.612 179.28 802.892 178.4 803.392 177.12H803.412V177.32C803.392 178.42 803.912 179 805.212 179H806.392V177.52H805.752C805.252 177.52 804.992 177.36 804.992 176.72V171.82C804.992 169.48 803.312 168.38 800.952 168.38C798.352 168.38 796.892 169.68 796.712 171.54ZM803.172 174.7C803.172 176.58 801.952 177.84 800.212 177.84C798.972 177.84 798.132 177.24 798.132 176.16V176.04C798.132 175.04 798.952 174.5 800.272 174.28L801.792 174.02C802.512 173.9 802.972 173.62 803.172 173.34V174.7ZM808.224 179H809.984V177.04H810.004C810.604 178.42 811.844 179.28 813.584 179.28C816.484 179.28 818.164 176.9 818.164 173.82C818.164 170.76 816.444 168.38 813.584 168.38C811.924 168.38 810.724 169.18 810.084 170.5H810.064V164.16H808.224V179ZM816.304 174.22C816.304 176.46 814.904 177.74 813.184 177.74C811.464 177.74 810.064 176.38 810.064 174.22V173.46C810.064 171.26 811.464 169.92 813.184 169.92C814.904 169.92 816.304 171.22 816.304 173.46V174.22Z" fill="#8A919E"/>
<path d="M820 171C820 159.954 828.954 151 840 151V151C851.046 151 860 159.954 860 171V171C860 182.046 851.046 191 840 191V191C828.954 191 820 182.046 820 171V171Z" fill="#32353D"/>
<path d="M837.013 166.053L841.96 171L837.013 175.947L838.193 177.127L844.32 171L838.193 164.873L837.013 166.053Z" fill="white"/>
<rect x="789" y="239" width="23" height="30" rx="3" fill="#190D33"/>
<path d="M801.649 258H802.754V256.05H804.041V255.127H802.754V248.705H801.246L796.995 255.686V256.05H801.649V258ZM798.425 255.127L801.649 249.563V255.127H798.425Z" fill="#DDC3FD"/>
<rect x="789" y="239" width="23" height="30" rx="3" stroke="#8956E1" stroke-width="2"/>
<path d="M800.5 193.226L794.726 199L800.5 204.774L806.274 199L800.5 193.226ZM801.5 238L801.5 199L799.5 199L799.5 238L801.5 238Z" fill="#8956E1"/>
<rect x="829" y="239" width="22" height="30" rx="3" fill="#190D33"/>
<path d="M839.838 258.117C841.606 258.117 843.023 256.921 843.023 254.958C843.023 253.06 841.801 251.877 840.137 251.877C839.253 251.877 838.616 252.163 838.239 252.514V249.68H842.529V248.705H837.303V253.684H837.719C838.213 253.125 838.837 252.787 839.916 252.787C841.099 252.787 841.866 253.645 841.866 254.958C841.866 256.362 841.086 257.207 839.825 257.207C838.408 257.207 838.005 256.505 837.823 255.491H836.744C836.874 257.012 837.836 258.117 839.838 258.117Z" fill="#DDC3FD"/>
<rect x="829" y="239" width="22" height="30" rx="3" stroke="#8956E1" stroke-width="2"/>
<path d="M840 193.226L834.226 199L840 204.774L845.774 199L840 193.226ZM841 238L841 199L839 199L839 238L841 238Z" fill="#8956E1"/>
<defs>
<linearGradient id="paint0_linear_1398_48061" x1="40" y1="28" x2="80" y2="28" gradientUnits="userSpaceOnUse">
<stop stop-color="#8956E1"/>
<stop offset="1" stop-color="#24193D" stop-opacity="0"/>
</linearGradient>
</defs>
</svg>
