<svg width="64" height="64" viewBox="0 0 64 64" fill="none" xmlns="http://www.w3.org/2000/svg">
<g clip-path="url(#clip0)">
<path d="M28 -0.0325928V35.9674L53.5 61.4674C60 54.8674 64 45.8674 64 35.9674C64 16.0674 47.9 -0.0325928 28 -0.0325928Z" fill="#BFE9FF"/>
<path d="M28 63.9674C43.464 63.9674 56 51.4314 56 35.9674C56 20.5034 43.464 7.96741 28 7.96741C12.536 7.96741 0 20.5034 0 35.9674C0 51.4314 12.536 63.9674 28 63.9674Z" fill="#56B4FC"/>
<path d="M47.8 55.7674C52.9 50.6674 56 43.6674 56 35.9674C56 20.4674 43.5 7.96741 28 7.96741V35.9674L47.8 55.7674Z" fill="#1652F0"/>
<path d="M28.5 11.9674H27.5V13.9674H28.5V11.9674Z" fill="white"/>
<path d="M16.4406 14.9486L15.5747 15.4487L16.5749 17.1805L17.4408 16.6804L16.4406 14.9486Z" fill="white"/>
<path d="M7.47412 23.5177L6.97412 24.3837L8.70612 25.3837L9.20612 24.5177L7.47412 23.5177Z" fill="white"/>
<path d="M6 35.4674H4V36.4674H6V35.4674Z" fill="white"/>
<path d="M8.71109 46.5239L6.97949 47.5245L7.47979 48.3903L9.21139 47.3897L8.71109 46.5239Z" fill="white"/>
<path d="M16.552 54.759L15.5522 56.4912L16.4183 56.9911L17.4181 55.2589L16.552 54.759Z" fill="white"/>
<path d="M28.5 57.9674H27.5V59.9674H28.5V57.9674Z" fill="white"/>
<path d="M39.4196 54.7524L38.5537 55.2525L39.5539 56.9843L40.4198 56.4842L39.4196 54.7524Z" fill="white"/>
<path d="M47.2915 46.5499L46.7915 47.4159L48.5235 48.4159L49.0235 47.5499L47.2915 46.5499Z" fill="white"/>
<path d="M52 35.4674H50V36.4674H52V35.4674Z" fill="white"/>
<path d="M48.5158 23.5449L46.7842 24.5455L47.2845 25.4113L49.0161 24.4107L48.5158 23.5449Z" fill="white"/>
<path d="M39.5823 14.9407L38.5825 16.6729L39.4486 17.1728L40.4484 15.4406L39.5823 14.9407Z" fill="white"/>
<path d="M28 37.9674C29.1046 37.9674 30 37.072 30 35.9674C30 34.8628 29.1046 33.9674 28 33.9674C26.8954 33.9674 26 34.8628 26 35.9674C26 37.072 26.8954 37.9674 28 37.9674Z" fill="white"/>
<path d="M28.5 19.9674H27.5V35.9674H28.5V19.9674Z" fill="white"/>
<path d="M28.3223 35.5833L27.6152 36.2904L35.6055 44.2806L36.3126 43.5735L28.3223 35.5833Z" fill="white"/>
</g>
<defs>
<clipPath id="clip0">
<rect width="64" height="64" fill="white"/>
</clipPath>
</defs>
</svg>
