<svg xmlns="http://www.w3.org/2000/svg" fill="none" viewBox="0 0 32 32"><g clip-path="url(#a)"><rect width="24" height="24" y="8" fill="var(--illustration-gray)" rx="3"/><path fill="var(--illustration-primary)" d="M32 0H8v24h24V0Z"/><path fill="var(--illustration-black)" d="M24 24V10.996a3 3 0 0 0-3-3H8V24h16Z"/><path fill="var(--illustration-white)" d="M13 16a1 1 0 1 1-2 0 1 1 0 0 1 2 0Zm3 1a1 1 0 1 0 0-2 1 1 0 0 0 0 2Zm4 0a1 1 0 1 0 0-2 1 1 0 0 0 0 2Z"/></g><defs><clipPath id="a"><path fill="var(--illustration-white)" d="M0 0h32v32H0z"/></clipPath></defs></svg>