<svg xmlns="http://www.w3.org/2000/svg" fill="none" viewBox="0 0 32 32"><g clip-path="url(#a)"><path fill="var(--illustration-gray)" d="M19-.004a3 3 0 0 1 3 3v10a3 3 0 0 1-3 3H5l-5 5v-18a3 3 0 0 1 3-3z"/><path fill="var(--illustration-primary)" d="M13 10.996a3 3 0 0 0-3 3v10a3 3 0 0 0 3 3h14l5 5v-18a3 3 0 0 0-3-3z"/><path fill="var(--illustration-black)" d="M22 10.996v2a3 3 0 0 1-3 3h-9v-2a3 3 0 0 1 3-3z"/></g><defs><clipPath id="a"><path fill="var(--illustration-white)" d="M0 0h32v32H0z"/></clipPath></defs></svg>