<svg width="64" height="64" viewBox="0 0 64 64" fill="none" xmlns="http://www.w3.org/2000/svg">
<path d="M32 16C36.4183 16 40 12.4183 40 8C40 3.58172 36.4183 0 32 0C27.5817 0 24 3.58172 24 8C24 12.4183 27.5817 16 32 16Z" fill="#BFE9FF"/>
<path d="M32 20C23.163 20 16 27.163 16 36V56H48V36C48 27.163 40.837 20 32 20Z" fill="#BFE9FF"/>
<path d="M64 36H0V64H64V36Z" fill="#56B4FC"/>
<path d="M48 36H16V64H48V36Z" fill="#1652F0"/>
<path d="M42 40H22V42H42V40Z" fill="white"/>
<path d="M42 46H22V48H42V46Z" fill="white"/>
<path d="M42 52H22V54H42V52Z" fill="white"/>
<path d="M42 58H22V60H42V58Z" fill="white"/>
</svg>
