<svg width="64" height="64" viewBox="0 0 64 64" fill="none" xmlns="http://www.w3.org/2000/svg">
<path d="M64 8H0V56H64V8Z" fill="#BFE9FF"/>
<path d="M50 64H14C12.9 64 12 63.1 12 62V2C12 0.9 12.9 0 14 0H50C51.1 0 52 0.9 52 2V62C52 63.1 51.1 64 50 64Z" fill="#56B4FC"/>
<path d="M28 60C28 60.6 28.4 61 29 61H35C35.6 61 36 60.6 36 60C36 59.4 35.6 59 35 59H29C28.4 59 28 59.4 28 60Z" fill="#1652F0"/>
<path d="M32 5C32.5523 5 33 4.55228 33 4C33 3.44772 32.5523 3 32 3C31.4477 3 31 3.44772 31 4C31 4.55228 31.4477 5 32 5Z" fill="#1652F0"/>
<path d="M52 8H12V56H52V8Z" fill="#1652F0"/>
<path d="M32 22C33.1046 22 34 21.1046 34 20C34 18.8954 33.1046 18 32 18C30.8954 18 30 18.8954 30 20C30 21.1046 30.8954 22 32 22Z" fill="white"/>
<path d="M24 22C25.1046 22 26 21.1046 26 20C26 18.8954 25.1046 18 24 18C22.8954 18 22 18.8954 22 20C22 21.1046 22.8954 22 24 22Z" fill="white"/>
<path d="M40 22C41.1046 22 42 21.1046 42 20C42 18.8954 41.1046 18 40 18C38.8954 18 38 18.8954 38 20C38 21.1046 38.8954 22 40 22Z" fill="white"/>
<path d="M32 30C33.1046 30 34 29.1046 34 28C34 26.8954 33.1046 26 32 26C30.8954 26 30 26.8954 30 28C30 29.1046 30.8954 30 32 30Z" fill="white"/>
<path d="M24 30C25.1046 30 26 29.1046 26 28C26 26.8954 25.1046 26 24 26C22.8954 26 22 26.8954 22 28C22 29.1046 22.8954 30 24 30Z" fill="white"/>
<path d="M40 30C41.1046 30 42 29.1046 42 28C42 26.8954 41.1046 26 40 26C38.8954 26 38 26.8954 38 28C38 29.1046 38.8954 30 40 30Z" fill="white"/>
<path d="M32 38C33.1046 38 34 37.1046 34 36C34 34.8954 33.1046 34 32 34C30.8954 34 30 34.8954 30 36C30 37.1046 30.8954 38 32 38Z" fill="white"/>
<path d="M24 38C25.1046 38 26 37.1046 26 36C26 34.8954 25.1046 34 24 34C22.8954 34 22 34.8954 22 36C22 37.1046 22.8954 38 24 38Z" fill="white"/>
<path d="M40 38C41.1046 38 42 37.1046 42 36C42 34.8954 41.1046 34 40 34C38.8954 34 38 34.8954 38 36C38 37.1046 38.8954 38 40 38Z" fill="white"/>
<path d="M32 46C33.1046 46 34 45.1046 34 44C34 42.8954 33.1046 42 32 42C30.8954 42 30 42.8954 30 44C30 45.1046 30.8954 46 32 46Z" fill="white"/>
</svg>
