<svg width="64" height="64" viewBox="0 0 64 64" fill="none" xmlns="http://www.w3.org/2000/svg">
<path d="M50 28C57.732 28 64 21.732 64 14C64 6.26801 57.732 0 50 0C42.268 0 36 6.26801 36 14C36 21.732 42.268 28 50 28Z" fill="#BFE9FF"/>
<path d="M14 64C21.732 64 28 57.732 28 50C28 42.268 21.732 36 14 36C6.26801 36 0 42.268 0 50C0 57.732 6.26801 64 14 64Z" fill="#BFE9FF"/>
<path d="M32 57C45.8071 57 57 45.8071 57 32C57 18.1929 45.8071 7 32 7C18.1929 7 7 18.1929 7 32C7 45.8071 18.1929 57 32 57Z" fill="#56B4FC"/>
<path fill-rule="evenodd" clip-rule="evenodd" d="M26.4626 56.3846C27.4453 54.4702 27.9999 52.2999 27.9999 50C27.9999 42.268 21.7319 36 13.9999 36C11.7 36 9.52963 36.5546 7.61523 37.5373C9.73201 46.8986 17.1013 54.2679 26.4626 56.3846Z" fill="#1652F0"/>
<path fill-rule="evenodd" clip-rule="evenodd" d="M56.3846 26.4627C54.4702 27.4454 52.2999 28 50 28C42.268 28 36 21.732 36 14C36 11.7001 36.5546 9.52976 37.5373 7.61536C46.8986 9.73213 54.2679 17.1014 56.3846 26.4627Z" fill="#1652F0"/>
<path d="M38 33L38 31L26 31L26 33L38 33Z" fill="white"/>
<path d="M31 38L33 38L33 26L31 26L31 38Z" fill="white"/>
</svg>
