<svg width="64" height="64" viewBox="0 0 64 64" fill="none" xmlns="http://www.w3.org/2000/svg">
<path d="M32 64C49.6731 64 64 49.6731 64 32C64 14.3269 49.6731 0 32 0C14.3269 0 0 14.3269 0 32C0 49.6731 14.3269 64 32 64Z" fill="#BFE9FF"/>
<path d="M32 60C47.464 60 60 47.464 60 32C60 16.536 47.464 4 32 4C16.536 4 4 16.536 4 32C4 47.464 16.536 60 32 60Z" fill="#1652F0"/>
<path d="M30 40H34V20H30L30 40Z" fill="white"/>
<path d="M39.1001 31.2L32.0001 38.2L24.9001 31.2L22.1001 34L32.0001 43.9L41.9001 34L39.1001 31.2Z" fill="white"/>
</svg>
