<svg width="64" height="64" viewBox="0 0 64 64" fill="none" xmlns="http://www.w3.org/2000/svg">
<path d="M32 56C47.464 56 60 43.464 60 28C60 12.536 47.464 0 32 0C16.536 0 4 12.536 4 28C4 43.464 16.536 56 32 56Z" fill="#BFE9FF"/>
<path d="M32 22L27.4 23.4L26 28L24.6 23.4L20 22L24.6 20.6L26 16L27.4 20.6L32 22Z" fill="white"/>
<path d="M24 10L22.5 10.5L22 12L21.5 10.5L20 10L21.5 9.5L22 8L22.5 9.5L24 10Z" fill="white"/>
<path d="M16 18L14.5 18.5L14 20L13.5 18.5L12 18L13.5 17.5L14 16L14.5 17.5L16 18Z" fill="white"/>
<path d="M52 64H12L19.5442 41.3675C19.8164 40.5509 20.5807 40 21.4415 40H42.5585C43.4193 40 44.1836 40.5509 44.4558 41.3675L52 64Z" fill="#56B4FC"/>
<path d="M16.2998 51.2C20.7998 54.2 26.1998 56 31.9998 56C37.7998 56 43.1998 54.2 47.6998 51.2L44.4533 41.3726C44.1826 40.5533 43.417 40 42.5542 40H21.4454C20.5826 40 19.817 40.5533 19.5463 41.3726L16.2998 51.2Z" fill="#1652F0"/>
<path d="M56 64H8C8 61.8 9.8 60 12 60H52C54.2 60 56 61.8 56 64Z" fill="#56B4FC"/>
</svg>
