<svg width="64" height="64" viewBox="0 0 64 64" fill="none" xmlns="http://www.w3.org/2000/svg">
<path d="M40 44.5V43.51C40 42.62 39.41 41.83 38.55 41.59L29.34 38.96C27.21 38.35 24.92 38.65 23.03 39.79L16 44V52V56H31.65C34.53 56 37.38 55.48 40.08 54.47L60 47C60.9 44.74 59.07 42.33 56.65 42.61L40 44.5Z" fill="#56B4FC"/>
<path d="M16 40H0V60H16V40Z" fill="#BFE9FF"/>
<path d="M16 44H0V56H16V44Z" fill="#1652F0"/>
<path d="M28 24C33.5228 24 38 19.5228 38 14C38 8.47715 33.5228 4 28 4C22.4772 4 18 8.47715 18 14C18 19.5228 22.4772 24 28 24Z" fill="#56B4FC"/>
<path d="M48 40C53.5228 40 58 35.5228 58 30C58 24.4772 53.5228 20 48 20C42.4772 20 38 24.4772 38 30C38 35.5228 42.4772 40 48 40Z" fill="#1652F0"/>
<path d="M29 10H27V18H29V10Z" fill="white"/>
<path d="M32 15V13L24 13V15L32 15Z" fill="white"/>
<path d="M52 31V29H44V31H52Z" fill="white"/>
</svg>
