<svg width="64" height="64" viewBox="0 0 64 64" fill="none" xmlns="http://www.w3.org/2000/svg">
<path d="M50 28C57.732 28 64 21.732 64 14C64 6.26801 57.732 0 50 0C42.268 0 36 6.26801 36 14C36 21.732 42.268 28 50 28Z" fill="#BFE9FF"/>
<path d="M14 64C21.732 64 28 57.732 28 50C28 42.268 21.732 36 14 36C6.26801 36 0 42.268 0 50C0 57.732 6.26801 64 14 64Z" fill="#BFE9FF"/>
<path d="M32 56.5C45.531 56.5 56.5 45.531 56.5 32C56.5 18.469 45.531 7.5 32 7.5C18.469 7.5 7.5 18.469 7.5 32C7.5 45.531 18.469 56.5 32 56.5Z" fill="#56B4FC"/>
<path d="M26.7001 55.8999C29.1001 50.6999 28.2001 44.3999 23.9001 40.0999C19.6001 35.7999 13.3001 34.8999 8.1001 37.2999C9.1001 41.6999 11.2001 45.8999 14.7001 49.2999C18.2001 52.6999 22.3001 54.8999 26.7001 55.8999Z" fill="#1652F0"/>
<path d="M37.2999 8.09998C34.8999 13.3 35.7999 19.6 40.0999 23.9C44.3999 28.2 50.6999 29.1 55.8999 26.7C54.8999 22.3 52.7999 18.1 49.2999 14.7C45.8999 11.3 41.6999 9.09998 37.2999 8.09998Z" fill="#1652F0"/>
<path d="M38 32L33.4 33.4L32 38L30.6 33.4L26 32L30.6 30.6L32 26L33.4 30.6L38 32Z" fill="white"/>
</svg>
