<svg width="64" height="64" viewBox="0 0 64 64" fill="none" xmlns="http://www.w3.org/2000/svg">
<path d="M12 10C10.9 10 10 9.1 10 8V4C10 2.9 10.9 2 12 2C13.1 2 14 2.9 14 4V8C14 9.1 13.1 10 12 10Z" fill="#56B4FC"/>
<path d="M22 10C20.9 10 20 9.1 20 8V4C20 2.9 20.9 2 22 2C23.1 2 24 2.9 24 4V8C24 9.1 23.1 10 22 10Z" fill="#56B4FC"/>
<path d="M32 10C30.9 10 30 9.1 30 8V4C30 2.9 30.9 2 32 2C33.1 2 34 2.9 34 4V8C34 9.1 33.1 10 32 10Z" fill="#56B4FC"/>
<path d="M42 10C40.9 10 40 9.1 40 8V4C40 2.9 40.9 2 42 2C43.1 2 44 2.9 44 4V8C44 9.1 43.1 10 42 10Z" fill="#56B4FC"/>
<path d="M52 10C50.9 10 50 9.1 50 8V4C50 2.9 50.9 2 52 2C53.1 2 54 2.9 54 4V8C54 9.1 53.1 10 52 10Z" fill="#56B4FC"/>
<path d="M58 54H6C4.9 54 4 53.1 4 52V6H60V52C60 53.1 59.1 54 58 54Z" fill="#56B4FC"/>
<path d="M60 6H4V14H60V6Z" fill="#BFE9FF"/>
<path d="M54 14H10V62H54V14Z" fill="#BFE9FF"/>
<path d="M54 14H10V54H54V14Z" fill="#1652F0"/>
<path d="M40.2651 34.995L40.2651 32.995L22.9951 32.995L22.9951 34.995L40.2651 34.995Z" fill="white"/>
<path d="M34.5098 28.3401L40.1698 34.0001L34.5098 39.6601L35.9298 41.0701L42.9998 34.0001L35.9298 26.9301L34.5098 28.3401Z" fill="white"/>
<path d="M12 10C10.9 10 10 9.1 10 8V6H14V8C14 9.1 13.1 10 12 10Z" fill="#1652F0"/>
<path d="M22 10C20.9 10 20 9.1 20 8V6H24V8C24 9.1 23.1 10 22 10Z" fill="#1652F0"/>
<path d="M32 10C30.9 10 30 9.1 30 8V6H34V8C34 9.1 33.1 10 32 10Z" fill="#1652F0"/>
<path d="M42 10C40.9 10 40 9.1 40 8V6H44V8C44 9.1 43.1 10 42 10Z" fill="#1652F0"/>
<path d="M52 10C50.9 10 50 9.1 50 8V6H54V8C54 9.1 53.1 10 52 10Z" fill="#1652F0"/>
</svg>
