<svg width="64" height="64" viewBox="0 0 64 64" fill="none" xmlns="http://www.w3.org/2000/svg">
<path d="M14 64C21.732 64 28 57.732 28 50C28 42.268 21.732 36 14 36C6.26801 36 0 42.268 0 50C0 57.732 6.26801 64 14 64Z" fill="#56B4FC"/>
<path d="M50 28C57.732 28 64 21.732 64 14C64 6.26801 57.732 0 50 0C42.268 0 36 6.26801 36 14C36 21.732 42.268 28 50 28Z" fill="#56B4FC"/>
<path d="M32 58C46.3594 58 58 46.3594 58 32C58 17.6406 46.3594 6 32 6C17.6406 6 6 17.6406 6 32C6 46.3594 17.6406 58 32 58Z" fill="#FFD066"/>
<path d="M13.9998 36C12.0698 36 10.2198 36.39 8.5498 37.1C10.5298 46.26 17.7398 53.47 26.8998 55.45C27.6098 53.78 27.9998 51.93 27.9998 50C27.9998 42.27 21.7298 36 13.9998 36Z" fill="#1652F0"/>
<path d="M55.45 26.9C53.47 17.74 46.26 10.53 37.1 8.54999C36.39 10.22 36 12.07 36 14C36 21.73 42.27 28 50 28C51.93 28 53.78 27.61 55.45 26.9Z" fill="#1652F0"/>
<path d="M48 64C48.5523 64 49 63.5523 49 63C49 62.4477 48.5523 62 48 62C47.4477 62 47 62.4477 47 63C47 63.5523 47.4477 64 48 64Z" fill="#FFD066"/>
<path d="M63 49C63.5523 49 64 48.5523 64 48C64 47.4477 63.5523 47 63 47C62.4477 47 62 47.4477 62 48C62 48.5523 62.4477 49 63 49Z" fill="#1652F0"/>
<path d="M63 64C63.5523 64 64 63.5523 64 63C64 62.4477 63.5523 62 63 62C62.4477 62 62 62.4477 62 63C62 63.5523 62.4477 64 63 64Z" fill="#BFE9FF"/>
<path d="M58 54.5H55.5V52H54.5V54.5H52V55.5H54.5V58H55.5V55.5H58V54.5Z" fill="#BFE9FF"/>
<path d="M1 17C1.55228 17 2 16.5523 2 16C2 15.4477 1.55228 15 1 15C0.447715 15 0 15.4477 0 16C0 16.5523 0.447715 17 1 17Z" fill="#56B4FC"/>
<path d="M16 2C16.5523 2 17 1.55228 17 1C17 0.447715 16.5523 0 16 0C15.4477 0 15 0.447715 15 1C15 1.55228 15.4477 2 16 2Z" fill="#FFD066"/>
<path d="M1 2C1.55228 2 2 1.55228 2 1C2 0.447715 1.55228 0 1 0C0.447715 0 0 0.447715 0 1C0 1.55228 0.447715 2 1 2Z" fill="#BFE9FF"/>
<path d="M6 9.5H8.5V12H9.5V9.5H12V8.5H9.5V6H8.5V8.5H6V9.5Z" fill="#1652F0"/>
<path d="M32 20L34.12 29.88L44 32L34.12 34.12L32 44L29.88 34.12L20 32L29.88 29.88L32 20Z" fill="white"/>
</svg>
