<svg xmlns="http://www.w3.org/2000/svg" fill="none" viewBox="0 0 16 16"><path fill="#0A0B0D" d="M9.239 3.495a3 3 0 1 1-6 0 3 3 0 0 1 6 0m-1.6 0a1.4 1.4 0 1 0-2.8 0 1.4 1.4 0 0 0 2.8 0m-1.4 4c2.782 0 5.102 2.748 5.635 6.4q.114.777.115 1.6H.489q.001-.823.115-1.6c.533-3.652 2.853-6.4 5.635-6.4m4.015 6.4c-.213-1.237-.664-2.31-1.249-3.123C8.18 9.623 7.18 9.095 6.24 9.095s-1.941.528-2.767 1.677c-.584.813-1.035 1.886-1.248 3.123zm1.685-8.7v-1.95h1.6v1.95h1.95v1.6h-1.95v1.95h-1.6v-1.95h-1.95v-1.6z"/></svg>