<svg xmlns="http://www.w3.org/2000/svg" fill="none" viewBox="0 0 12 12"><path fill="#0A0B0D" d="M3.489 2.245a1.25 1.25 0 1 1-2.5 0 1.25 1.25 0 0 1 2.5 0m0 7.5a1.25 1.25 0 1 1-2.5 0 1.25 1.25 0 0 1 2.5 0m0-3.75a1.25 1.25 0 1 1-2.5 0 1.25 1.25 0 0 1 2.5 0m3.75-3.75a1.25 1.25 0 1 1-2.5 0 1.25 1.25 0 0 1 2.5 0m0 7.5a1.25 1.25 0 1 1-2.5 0 1.25 1.25 0 0 1 2.5 0m0-3.75a1.25 1.25 0 1 1-2.5 0 1.25 1.25 0 0 1 2.5 0m3.75-3.75a1.25 1.25 0 1 1-2.5 0 1.25 1.25 0 0 1 2.5 0m0 7.5a1.25 1.25 0 1 1-2.5 0 1.25 1.25 0 0 1 2.5 0m0-3.75a1.25 1.25 0 1 1-2.5 0 1.25 1.25 0 0 1 2.5 0"/></svg>