<svg xmlns="http://www.w3.org/2000/svg" fill="none" viewBox="0 0 16 16"><path fill="#0A0B0D" d="M4.489 2.745a1.75 1.75 0 1 1-3.5 0 1.75 1.75 0 0 1 3.5 0m10.5 0a1.75 1.75 0 1 1-3.5 0 1.75 1.75 0 0 1 3.5 0m-7 1.75a1.75 1.75 0 1 0 0-3.5 1.75 1.75 0 0 0 0 3.5m-3.5 8.75a1.75 1.75 0 1 1-3.5 0 1.75 1.75 0 0 1 3.5 0m8.75 1.75a1.75 1.75 0 1 0 0-3.5 1.75 1.75 0 0 0 0 3.5m-3.5-1.75a1.75 1.75 0 1 1-3.5 0 1.75 1.75 0 0 1 3.5 0m-7-3.5a1.75 1.75 0 1 0 0-3.5 1.75 1.75 0 0 0 0 3.5m12.25-1.75a1.75 1.75 0 1 1-3.5 0 1.75 1.75 0 0 1 3.5 0m-7 1.75a1.75 1.75 0 1 0 0-3.5 1.75 1.75 0 0 0 0 3.5"/></svg>