<svg xmlns="http://www.w3.org/2000/svg" fill="none" viewBox="0 0 24 24"><path fill="#0A0B0D" d="M4.239 21.995a2.25 2.25 0 1 1 0-4.5 2.25 2.25 0 0 1 0 4.5m0-15.5a2.25 2.25 0 1 1 0-4.5 2.25 2.25 0 0 1 0 4.5m0 7.75a2.25 2.25 0 1 1 0-4.5 2.25 2.25 0 0 1 0 4.5m7.75 7.75a2.25 2.25 0 1 1 0-4.5 2.25 2.25 0 0 1 0 4.5m0-15.5a2.25 2.25 0 1 1 0-4.5 2.25 2.25 0 0 1 0 4.5m0 7.75a2.25 2.25 0 1 1 0-4.5 2.25 2.25 0 0 1 0 4.5m7.75 7.75a2.25 2.25 0 1 1 0-4.5 2.25 2.25 0 0 1 0 4.5m0-15.5a2.25 2.25 0 1 1 0-4.5 2.25 2.25 0 0 1 0 4.5m0 7.75a2.25 2.25 0 1 1 0-4.5 2.25 2.25 0 0 1 0 4.5"/></svg>