<svg xmlns="http://www.w3.org/2000/svg" fill="none" viewBox="0 0 24 24"><path fill="#0A0B0D" d="M17.989 11.495a1.5 1.5 0 1 1-3 0 1.5 1.5 0 0 1 3 0m-3.5-2.5a1.5 1.5 0 1 0 0-3 1.5 1.5 0 0 0 0 3m-3.5-1.5a1.5 1.5 0 1 1-3 0 1.5 1.5 0 0 1 3 0m-3.5 5.5a1.5 1.5 0 1 0 0-3 1.5 1.5 0 0 0 0 3"/><path fill="#0A0B0D" d="M21.224 16.995a10.45 10.45 0 0 0 1.265-5c0-5.799-4.701-10.5-10.5-10.5s-10.5 4.701-10.5 10.5c0 5.115 3.657 9.376 8.5 10.31q.972.189 2 .19v-4.5a1 1 0 0 1 1-1zm-1.28-2H12.99a3 3 0 0 0-3 3v2.264a8.5 8.5 0 1 1 10.5-8.263 8.5 8.5 0 0 1-.544 3"/></svg>