<svg xmlns="http://www.w3.org/2000/svg" fill="none" viewBox="0 0 16 16"><path fill="#0A0B0D" d="M7.989 4.532c0 1.99-1.604 3.463-3.5 3.463 1.896 0 3.5 1.474 3.5 3.463 0-1.99 1.604-3.463 3.5-3.463-1.896 0-3.5-1.474-3.5-3.463"/><path fill="#0A0B0D" d="M7.989 4.495v-.037c0-1.99-1.604-3.463-3.5-3.463s-3.5 1.547-3.5 3.537 1.531 3.463 3.5 3.463c-1.896 0-3.5 1.604-3.5 3.5a3.5 3.5 0 0 0 7 0 3.5 3.5 0 0 0 7 0c0-1.969-1.532-3.5-3.5-3.5 1.896 0 3.5-1.547 3.5-3.537S13.385.995 11.489.995c-1.884 0-3.48 1.528-3.5 3.5m0 0h3.5v7h-7v-7z"/></svg>