<svg xmlns="http://www.w3.org/2000/svg" fill="none" viewBox="0 0 24 24"><path fill="#0A0B0D" d="M17.646 17.652a7.98 7.98 0 0 0 2.343-5.657 7.97 7.97 0 0 0-2.265-5.577l1.415-1.414a10 10 0 0 0-1.54-1.288 9.95 9.95 0 0 0-5.61-1.72c-5.523 0-10 4.476-10 10a9.97 9.97 0 0 0 2.929 7.07l-2.93 2.93h20zM12.74 8.573a3.75 3.75 0 1 0-.426 6.576l3.739 3.739a7.96 7.96 0 0 1-4.064 1.107 8 8 0 1 1 0-16c1.525 0 2.95.426 4.163 1.167zm1.347 1.482 2.223-2.223a5.98 5.98 0 0 1 1.679 4.163 5.98 5.98 0 0 1-1.758 4.243l-2.388-2.388c.408-.6.646-1.325.646-2.105 0-.608-.145-1.182-.402-1.69m-5.098 1.69a1.75 1.75 0 1 1 3.5 0 1.75 1.75 0 0 1-3.5 0"/></svg>