<svg xmlns="http://www.w3.org/2000/svg" fill="none" viewBox="0 0 16 16"><path fill="#0A0B0D" d="M9.989 5.995a2 2 0 1 1-4 0 2 2 0 0 1 4 0"/><path fill="#0A0B0D" d="M4.33 13.964a6.97 6.97 0 0 0 3.659 1.031c3.867 0 7-3.132 7-7s-3.133-7-7-7-7 3.133-7 7c0 1.912.766 3.645 2.007 4.908a7 7 0 0 0 1.333 1.061m7.89-2.613C11.193 9.724 9.678 8.696 7.99 8.696s-3.205 1.03-4.232 2.656A5.38 5.38 0 0 1 2.59 7.995c0-2.984 2.416-5.4 5.4-5.4s5.4 2.416 5.4 5.4a5.38 5.38 0 0 1-1.169 3.356m-1.198 1.113a5.4 5.4 0 0 1-3.033.931 5.4 5.4 0 0 1-3.033-.93q.172-.306.367-.573c.795-1.094 1.757-1.597 2.666-1.597.908 0 1.87.503 2.666 1.597q.195.267.367.572"/></svg>