<svg xmlns="http://www.w3.org/2000/svg" fill="none" viewBox="0 0 24 24"><path fill="#0A0B0D" d="M11.989 11.995a3 3 0 1 1 0-6 3 3 0 0 1 0 6m0-2a1 1 0 1 0 0-2 1 1 0 0 0 0 2"/><path fill="#0A0B0D" d="M19.12 19.007a9.97 9.97 0 0 0 2.869-7.012c0-5.525-4.475-10-10-10s-10 4.475-10 10 4.475 10 10 10c2.023 0 3.905-.6 5.478-1.632a10 10 0 0 0 1.654-1.357m-.928-1.958c-1.467-2.474-3.7-4.054-6.203-4.054s-4.737 1.58-6.204 4.054a7.97 7.97 0 0 1-1.796-5.054c0-4.42 3.58-8 8-8s8 3.58 8 8a7.97 7.97 0 0 1-1.797 5.054m-1.497 1.418a7.97 7.97 0 0 1-4.706 1.528 7.97 7.97 0 0 1-4.706-1.528q.307-.579.666-1.074c1.175-1.615 2.628-2.398 4.04-2.398s2.864.783 4.04 2.398q.36.495.666 1.074"/></svg>