<svg xmlns="http://www.w3.org/2000/svg" fill="none" viewBox="0 0 12 12"><g clip-path="url(#a)"><path fill="#0A0B0D" fill-rule="evenodd" d="M8.25.9c.746 0 1.35.604 1.35 1.35v1.655c.837.052 1.5.745 1.5 1.595v4a1.6 1.6 0 0 1-1.6 1.6h-6A2.6 2.6 0 0 1 .913 8.766L.9 8.5V2.998A2.1 2.1 0 0 1 3 .9zM2.1 8.5l.007.144A1.4 1.4 0 0 0 3.5 9.9h6a.4.4 0 0 0 .4-.4v-4a.4.4 0 0 0-.4-.4H3c-.323 0-.627-.075-.9-.205zM3 2.1a.9.9 0 0 0 0 1.8h5.4V2.25a.15.15 0 0 0-.15-.15z" clip-rule="evenodd"/></g><defs><clipPath id="a"><path fill="#fff" d="M0 0h12v12H0z"/></clipPath></defs></svg>