<svg xmlns="http://www.w3.org/2000/svg" fill="none" viewBox="0 0 16 16"><path fill="#0A0B0D" fill-rule="evenodd" d="M5.932 8.66a1.41 1.41 0 0 1 1.409 1.408v3.523A1.41 1.41 0 0 1 5.93 15H2.41A1.41 1.41 0 0 1 1 13.59v-3.522a1.41 1.41 0 0 1 1.41-1.409zM2.5 13.5h3.34v-3.34H2.5zm11.09-4.84A1.41 1.41 0 0 1 15 10.067v3.523A1.41 1.41 0 0 1 13.59 15h-3.522a1.41 1.41 0 0 1-1.409-1.41v-3.522a1.41 1.41 0 0 1 1.41-1.409zm-3.43 4.84h3.34v-3.34h-3.34zM5.932 1a1.41 1.41 0 0 1 1.409 1.41v3.522A1.41 1.41 0 0 1 5.93 7.34H2.41A1.41 1.41 0 0 1 1 5.93V2.41C1 1.631 1.631 1 2.41 1zM2.5 5.84h3.34V2.5H2.5zM13.59 1c.78 0 1.41.631 1.41 1.41v3.522a1.41 1.41 0 0 1-1.41 1.409h-3.522A1.41 1.41 0 0 1 8.66 5.93V2.41A1.41 1.41 0 0 1 10.07 1zm-3.43 4.84h3.34V2.5h-3.34z" clip-rule="evenodd"/></svg>