<svg xmlns="http://www.w3.org/2000/svg" fill="none" viewBox="0 0 16 16"><path fill="#0A0B0D" d="M14.944 8.795a7.01 7.01 0 0 1-4.728 5.838 14.9 14.9 0 0 0 1.536-5.838zm0-1.6a7.01 7.01 0 0 0-4.728-5.838 14.9 14.9 0 0 1 1.536 5.838zm-4.794 0A13.3 13.3 0 0 0 8.187.998a7 7 0 0 0-.398 0 13.3 13.3 0 0 0-1.962 6.197zm-4.322 1.6a13.3 13.3 0 0 0 1.962 6.197 7 7 0 0 0 .398 0 13.3 13.3 0 0 0 1.961-6.197zm-1.603 0c.108 2.006.62 3.995 1.536 5.838a7.01 7.01 0 0 1-4.727-5.838zm0-1.6a14.9 14.9 0 0 1 1.536-5.838 7.01 7.01 0 0 0-4.727 5.838z"/></svg>