<svg xmlns="http://www.w3.org/2000/svg" fill="none" viewBox="0 0 24 24"><path fill="#0A0B0D" d="M21.989 11.995c0 5.523-4.477 10-10 10s-10-4.477-10-10 4.477-10 10-10 10 4.477 10 10m-17.938-1H7.6c.16-2.331.88-4.632 2.16-6.686a8.01 8.01 0 0 0-5.71 6.686m3.55 2H4.05a8.01 8.01 0 0 0 5.71 6.686c-1.28-2.054-2-4.355-2.16-6.686m2.006 0c.18 2.265.974 4.491 2.382 6.411a12.5 12.5 0 0 0 2.382-6.41zm4.764-2a12.5 12.5 0 0 0-2.382-6.41 12.5 12.5 0 0 0-2.382 6.41zm2.005 2a14.5 14.5 0 0 1-2.16 6.686 8.01 8.01 0 0 0 5.71-6.686zm3.55-2a8.01 8.01 0 0 0-5.71-6.686 14.5 14.5 0 0 1 2.16 6.686z"/></svg>