<svg xmlns="http://www.w3.org/2000/svg" fill="none" viewBox="0 0 16 17"><path fill="#0A0B0D" d="M4.444 6.742c0-.488.398-.884.89-.884.49 0 .888.396.888.884a.887.887 0 0 1-.889.885.887.887 0 0 1-.889-.885M8 5.858a.887.887 0 0 0-.889.884c0 .489.398.885.889.885.49 0 .889-.396.889-.885A.887.887 0 0 0 8 5.858m2.667 0a.887.887 0 0 0-.89.884c0 .489.399.885.89.885.49 0 .889-.396.889-.885a.887.887 0 0 0-.89-.884M5.333 8.953a.887.887 0 0 0-.889.884c0 .488.398.884.89.884.49 0 .888-.396.888-.884a.887.887 0 0 0-.889-.884m2.667 0a.887.887 0 0 0-.889.884c0 .488.398.884.889.884.49 0 .889-.396.889-.884A.887.887 0 0 0 8 8.953m2.667 0a.887.887 0 0 0-.89.884c0 .488.399.884.89.884.49 0 .889-.396.889-.884a.887.887 0 0 0-.89-.884m-5.333 3.094a.886.886 0 0 0-.889.884c0 .489.398.884.89.884.49 0 .888-.395.888-.884a.886.886 0 0 0-.889-.884m2.667 0a.886.886 0 0 0-.889.884c0 .489.398.884.889.884.49 0 .889-.395.889-.884A.886.886 0 0 0 8 12.047m2.667 0a.887.887 0 0 0-.89.884c0 .489.399.884.89.884.49 0 .889-.395.889-.884a.887.887 0 0 0-.89-.884m.834-9.5h-7v2h7z"/><path fill="#0A0B0D" d="M2 0v16h12V0zm10.4 1.6v12.8H3.6V1.6z"/></svg>