<svg xmlns="http://www.w3.org/2000/svg" fill="none" viewBox="0 0 24 25"><path fill="#0A0B0D" d="M2.989 0h18v24h-18zm3 3.634v4h12v-4zM7.489 13a1.5 1.5 0 1 0 0-3 1.5 1.5 0 0 0 0 3m6-1.5a1.5 1.5 0 1 0-3 0 1.5 1.5 0 0 0 3 0m3 1.5a1.5 1.5 0 1 0 0-3 1.5 1.5 0 0 0 0 3m-7.5 2.5a1.5 1.5 0 1 0-3 0 1.5 1.5 0 0 0 3 0m3 1.5a1.5 1.5 0 1 0 0-3 1.5 1.5 0 0 0 0 3m6-1.5a1.5 1.5 0 1 0-3 0 1.5 1.5 0 0 0 3 0M7.489 21a1.5 1.5 0 1 0 0-3 1.5 1.5 0 0 0 0 3m6-1.5a1.5 1.5 0 1 0-3 0 1.5 1.5 0 0 0 3 0m3 1.5a1.5 1.5 0 1 0 0-3 1.5 1.5 0 0 0 0 3"/></svg>