<svg xmlns="http://www.w3.org/2000/svg" fill="none" viewBox="0 0 24 25"><path fill="#0A0B0D" d="M8.989 11.5a1.5 1.5 0 1 1-3 0 1.5 1.5 0 0 1 3 0m-1.5 5.5a1.5 1.5 0 1 0 0-3 1.5 1.5 0 0 0 0 3m1.5 2.5a1.5 1.5 0 1 1-3 0 1.5 1.5 0 0 1 3 0m3-6.5a1.5 1.5 0 1 0 0-3 1.5 1.5 0 0 0 0 3m1.5 2.5a1.5 1.5 0 1 1-3 0 1.5 1.5 0 0 1 3 0m-1.5 5.5a1.5 1.5 0 1 0 0-3 1.5 1.5 0 0 0 0 3m6-9.5a1.5 1.5 0 1 1-3 0 1.5 1.5 0 0 1 3 0m-1.5 5.5a1.5 1.5 0 1 0 0-3 1.5 1.5 0 0 0 0 3m1.5 2.5a1.5 1.5 0 1 1-3 0 1.5 1.5 0 0 1 3 0m0-15.866h-12v4h12z"/><path fill="#0A0B0D" d="M2.989 0v24h18V0zm16 2v20h-14V2z"/></svg>