<svg xmlns="http://www.w3.org/2000/svg" fill="none" viewBox="0 0 12 12"><path fill="#0A0B0D" d="M9.6 4.363V3.115h-.984a2.46 2.46 0 0 0-.976-1.211c-.522-.34-1.215-.493-2.047-.493H3.42v1.704H2.377v1.248H3.42v.468H2.377V6.08H3.42v4.5h1.596V7.783h.372c.584 0 1.097-.075 1.531-.234l.005-.002c.425-.165.784-.39 1.067-.683q.34-.351.538-.785H9.6V4.831h-.767a4 4 0 0 0 .008-.468zm-4.583 0H7.18c.012.128.01.305-.003.468h-2.16zm.312 1.932h-.312V6.08h1.475a1 1 0 0 1-.101.047c-.265.108-.615.17-1.062.17m1.153-3.222.08.042H5.016V2.9h.54c.394 0 .697.064.925.174"/></svg>