<svg xmlns="http://www.w3.org/2000/svg" fill="none" viewBox="0 0 12 12"><path fill="#0A0B0D" d="M.797 2.111v6.232H2.47V6.49l1.873 1.853h2.054V9.88h1.64V8.147l.036.026q.396.281.976.282c.718 0 1.265-.31 1.623-.8.351-.48.51-1.111.51-1.756 0-.651-.159-1.285-.51-1.765-.359-.49-.906-.799-1.623-.799-.419 0-.77.112-1.05.322l-.042.033v-.243h-1.56v4.599L4.253 6.052c.427-.073.789-.235 1.068-.487.395-.355.588-.856.588-1.426S5.711 3.052 5.31 2.68c-.399-.37-.968-.569-1.66-.569zm3.424 2.004v.088c0 .183-.055.292-.13.359-.08.07-.224.133-.474.133H2.47v-1.08h1.148c.252 0 .396.062.474.132.073.065.13.175.13.368m5.1.9c.126.137.22.36.22.692v.368c0 .328-.094.552-.22.69a.7.7 0 0 1-.537.218.68.68 0 0 1-.53-.221c-.127-.142-.218-.367-.218-.687v-.368c0-.32.091-.545.217-.686a.68.68 0 0 1 .531-.222c.235 0 .415.08.538.215"/></svg>