<svg xmlns="http://www.w3.org/2000/svg" fill="none" viewBox="0 0 16 16"><path fill="#0A0B0D" d="M11.357 13.592v-1.486c-.689-.104-1.26-.365-1.68-.76-.476-.448-.737-1.05-.762-1.728l-.011-.311h1.595l.016.282c.023.391.175.673.419.863.25.196.63.318 1.14.318.496 0 .864-.128 1.101-.318a.94.94 0 0 0 .36-.768c0-.282-.09-.442-.245-.561-.178-.137-.47-.24-.917-.321h-.003l-.91-.176h-.002c-.654-.121-1.242-.342-1.67-.725-.44-.392-.686-.932-.686-1.627 0-1.188.862-2.147 2.255-2.385v-1.49h1.425v1.489c.665.11 1.192.38 1.57.76.43.432.649.99.673 1.569l.014.313H13.43l-.017-.283c-.018-.31-.134-.556-.337-.727-.206-.175-.535-.3-1.024-.3-.48 0-.816.131-1.026.31a.88.88 0 0 0-.313.689c0 .308.099.473.253.59.178.134.458.227.864.302l.902.154c.659.12 1.262.325 1.703.701.456.389.71.935.71 1.663 0 .696-.263 1.297-.737 1.737-.414.385-.974.636-1.627.739v1.487zm-4.225-1.419-.726-1.936H3.271l-.704 1.936H.831l3.212-8.344h1.61l3.26 8.344zM3.81 8.757h2.043l-1.034-2.77z"/></svg>