<svg xmlns="http://www.w3.org/2000/svg" fill="none" viewBox="0 0 24 24"><path fill="#0A0B0D" d="M17.288 20.48v-2.299c-1.089-.172-1.995-.593-2.649-1.22-.71-.68-1.107-1.585-1.125-2.623l-.005-.305h2.79l.008.292c.015.56.22.96.56 1.227.351.274.88.436 1.588.436.693 0 1.19-.172 1.506-.425.31-.249.472-.594.472-1.01 0-.209-.035-.36-.09-.475a.74.74 0 0 0-.262-.29c-.262-.179-.682-.299-1.323-.418l-1.307-.238c-1.037-.183-1.958-.516-2.622-1.1-.677-.597-1.06-1.43-1.06-2.544 0-1.81 1.328-3.31 3.519-3.677V3.51h2.334v2.322c2.187.395 3.397 1.863 3.45 3.578l.01.31h-2.814l-.005-.295c-.007-.422-.154-.765-.435-1.006-.286-.245-.748-.416-1.441-.416-.662 0-1.114.176-1.395.417a1.15 1.15 0 0 0-.413.898c0 .416.137.647.367.812.259.184.661.303 1.235.405l1.291.204c1.015.164 1.953.465 2.64 1.038.703.586 1.114 1.431 1.114 2.607 0 1.032-.39 1.922-1.077 2.589-.632.612-1.502 1.025-2.527 1.204v2.304zm-7.084-2.192-.9-2.533h-4.66l-.884 2.533H.751L5.482 5.72H8.55l4.749 12.568zm-4.687-5.02h2.91L6.95 9.138z"/></svg>