<svg xmlns="http://www.w3.org/2000/svg" fill="none" viewBox="0 0 12 12"><path fill="#0A0B0D" d="M5.32 10.106v1.486h1.425v-1.487c.654-.103 1.214-.354 1.627-.739.475-.44.738-1.04.738-1.737 0-.728-.254-1.274-.71-1.663-.441-.376-1.044-.581-1.703-.7l-.903-.155c-.405-.075-.685-.168-.863-.302-.154-.117-.254-.282-.254-.59 0-.273.107-.513.314-.689.21-.179.545-.31 1.025-.31.49 0 .819.125 1.025.3.203.171.319.417.337.727l.016.283h1.608l-.013-.313a2.34 2.34 0 0 0-.673-1.568c-.378-.381-.905-.65-1.57-.761V.398H5.32v1.49c-1.393.24-2.255 1.198-2.255 2.386 0 .695.246 1.235.686 1.627.429.383 1.017.604 1.67.724l.913.176h.003c.447.082.739.185.917.322.155.119.244.28.244.56a.94.94 0 0 1-.359.769c-.237.19-.605.318-1.1.318-.512 0-.89-.122-1.142-.318-.243-.19-.395-.472-.418-.863l-.017-.282H2.867l.011.31c.025.68.286 1.28.763 1.729.42.395.991.656 1.68.76"/></svg>