<svg xmlns="http://www.w3.org/2000/svg" fill="none" viewBox="0 0 12 12"><path fill="#0A0B0D" d="M5.185 10.087v1.505h1.722v-1.509c.643-.126 1.195-.395 1.603-.791.466-.452.73-1.055.73-1.751 0-.789-.278-1.367-.759-1.768-.466-.389-1.095-.588-1.76-.695l-.834-.132c-.37-.066-.61-.14-.755-.244-.118-.084-.194-.2-.194-.44 0-.19.075-.367.23-.5.159-.135.425-.244.834-.244.432 0 .704.106.864.244.155.133.24.324.244.572l.006.295H9.15l-.01-.31c-.036-1.143-.829-2.113-2.233-2.4V.4H5.185v1.506c-1.407.27-2.277 1.261-2.277 2.468 0 .748.26 1.317.722 1.725.45.397 1.069.617 1.748.737l.845.154c.416.077.667.152.816.254a.4.4 0 0 1 .133.146.6.6 0 0 1 .048.262q-.002.358-.265.57c-.181.145-.476.252-.909.252-.443 0-.76-.102-.961-.26-.193-.15-.314-.378-.323-.713l-.007-.292H2.738l.005.305c.013.7.281 1.312.761 1.772.424.405.999.68 1.681.802"/></svg>