<svg xmlns="http://www.w3.org/2000/svg" fill="none" viewBox="0 0 24 24"><path fill="#0A0B0D" d="M19.189 8.27V6.32h-1.955c-.37-1.096-1.03-1.959-1.982-2.576-1.016-.66-2.39-.974-4.088-.974h-4.2v3.55H4.789v1.95h2.175v1.625H4.789v1.95h2.175v9.375h2.675v-5.825h1.1c1.19 0 2.22-.153 3.078-.468l.005-.002c.85-.33 1.556-.777 2.107-1.346a5.4 5.4 0 0 0 1.14-1.734h2.12v-1.95h-1.632c.062-.543.048-1.08.03-1.625zm-4.432 1.625H9.64V8.27h5.14c.05.54.05 1.088-.022 1.625m-4.143 3.05H9.64v-1.1h4.33a2.6 2.6 0 0 1-1.019.723c-.603.247-1.377.377-2.336.377m2.544-7.33q.542.263.9.705h-4.42v-1.1h1.45c.854 0 1.54.137 2.07.395"/></svg>