<svg xmlns="http://www.w3.org/2000/svg" fill="none" viewBox="0 0 25 24"><path fill="#0A0B0D" d="M19.585 16.444v1.654h1.875V16.44c.7-.138 1.302-.431 1.746-.862A2.6 2.6 0 0 0 24 13.671c0-.859-.302-1.488-.826-1.925-.508-.424-1.193-.64-1.916-.758l-.91-.143c-.402-.072-.662-.152-.822-.266-.128-.091-.21-.217-.21-.478a.7.7 0 0 1 .25-.545c.173-.147.463-.266.909-.266.47 0 .766.116.94.265.17.145.262.353.266.623l.006.321h2.216l-.011-.337c-.04-1.244-.903-2.3-2.432-2.613V5.893h-1.875v1.64c-1.532.294-2.48 1.374-2.48 2.688 0 .814.282 1.434.786 1.879.491.432 1.164.672 1.904.802l.92.168c.453.084.727.166.889.276.072.05.116.101.145.16.03.062.052.15.052.285 0 .259-.1.469-.29.62-.196.158-.518.275-.988.275-.483 0-.828-.11-1.048-.283-.21-.164-.341-.411-.35-.777l-.01-.318H16.92l.005.333c.014.761.306 1.429.829 1.93.461.441 1.088.74 1.83.873m-5.592-1.692.635 1.785h2.428L13.622 7.45H11.3l-3.42 9.087h2.369l.623-1.785zm-1.575-4.43.875 2.447h-1.725zm-4.202 2.902H5.878l-.05.267c-.06.32-.21.606-.454.81-.242.204-.6.349-1.118.349a1.8 1.8 0 0 1-1.367-.588c-.347-.386-.582-.976-.582-1.78v-.588c0-.805.235-1.395.582-1.78a1.8 1.8 0 0 1 1.367-.589c.478 0 .823.12 1.062.302.236.18.394.44.463.77l.055.258h2.357l-.07-.384c-.317-1.773-1.78-3-3.819-3-1.39 0-2.478.528-3.213 1.402C.36 9.54 0 10.719 0 11.993c0 1.28.357 2.457 1.086 3.32.735.87 1.824 1.392 3.218 1.392 1.018 0 1.9-.302 2.57-.85.67-.547 1.112-1.326 1.274-2.247z"/></svg>