<svg xmlns="http://www.w3.org/2000/svg" fill="none" viewBox="0 0 12 12"><path fill="#0A0B0D" d="M9.55 4.313V3.165h-.969a2.4 2.4 0 0 0-.968-1.22c-.512-.331-1.193-.484-2.02-.484H3.47v1.704H2.427v1.148H3.47v.568H2.427V6.03H3.47v4.5h1.496V7.733h.422c.58 0 1.087-.074 1.514-.231l.004-.002q.632-.243 1.05-.67.345-.357.54-.8H9.55V4.88h-.772c.015-.189.024-.379.008-.568zm-4.583 0h2.26c0 .191.015.376-.004.568H4.967zm.362 2.032h-.362V6.03h1.702a1.2 1.2 0 0 1-.26.143c-.272.112-.629.173-1.08.173m1.175-3.317q.12.06.22.137H4.967V2.85h.59c.399 0 .71.064.947.18"/></svg>