<svg xmlns="http://www.w3.org/2000/svg" fill="none" viewBox="0 0 12 12"><path fill="#0A0B0D" d="m3.39 8.874.002.002c.503.578 1.175.862 1.986.862a2.7 2.7 0 0 0 .904-.138q.446-.156.773-.447l.086.475h1.342V2.973h.836V1.647h-.836V.668H6.915v.98H4.572v1.325h2.343c0 .178-.003.357.004.535a2.2 2.2 0 0 0-.643-.316 2.7 2.7 0 0 0-.898-.137c-.804 0-1.476.285-1.985.86l-.001.002c-.507.583-.734 1.434-.734 2.496 0 1.036.228 1.873.732 2.461m2.153-.539c-.454 0-.747-.155-.938-.438-.211-.32-.335-.8-.335-1.473 0-.672.124-1.162.338-1.5.196-.308.484-.466.913-.466.6 0 .924.173 1.089.433.198.311.316.806.316 1.522V6.6c0 .654-.124 1.086-.324 1.347l-.002.004c-.17.23-.49.384-1.057.384m-2.225 1.683v1.304h5.528v-1.304z"/></svg>