<svg xmlns="http://www.w3.org/2000/svg" fill="none" viewBox="0 0 16 16"><path fill="#0A0B0D" d="M13.08 5.658V3.94h-1.386a3.46 3.46 0 0 0-1.38-1.72c-.734-.477-1.71-.694-2.886-.694H4.376V3.94h-1.48v1.718h1.48v.713h-1.48V8.09h1.48v6.375h2.21v-3.96h.553c.825 0 1.549-.107 2.16-.331l.007-.003c.6-.232 1.105-.55 1.503-.961q.485-.5.764-1.12h1.508V6.371h-1.09v-.013c.018-.243.027-.472.012-.7zm-6.493.713v-.713H9.7l-.005.713zm.467 2.074h-.467V8.09h2.211q-.107.064-.23.114c-.379.155-.878.242-1.514.242m1.644-4.612q.1.049.19.107H6.587v-.356h.79c.56 0 .995.09 1.321.249"/></svg>