<svg xmlns="http://www.w3.org/2000/svg" fill="none" viewBox="0 0 13 12"><path fill="#0A0B0D" d="M9.905 8.286v.834h.77v-.835c.37-.056.684-.196.916-.412A1.28 1.28 0 0 0 12 6.91c0-.404-.141-.706-.393-.92-.244-.209-.58-.323-.947-.39l-.506-.086c-.227-.043-.387-.095-.49-.172-.09-.069-.147-.166-.147-.342 0-.157.061-.295.18-.396.121-.103.312-.177.584-.177.276 0 .464.07.583.17q.177.151.193.418l.009.145h.873L11.932 5a1.3 1.3 0 0 0-.373-.87c-.211-.213-.508-.364-.884-.424V2.87h-.77v.837c-.782.129-1.263.663-1.263 1.324 0 .385.136.684.38.901.237.212.563.335.928.402h.001l.51.099h.002c.25.046.417.104.52.183.09.07.142.164.142.325a.54.54 0 0 1-.206.441c-.136.11-.346.181-.626.181-.288 0-.504-.068-.648-.18a.64.64 0 0 1-.24-.494l-.008-.145h-.866l.006.16c.014.376.159.71.423.958.235.221.556.367.945.424M7.127 7.237l.407 1.084h.967L6.686 3.675h-.882L4.015 8.321h.942l.395-1.084zM6.228 4.83l.6 1.606H5.642zm-2.17 1.901H3.13l-.027.121a.92.92 0 0 1-.306.52c-.157.13-.379.216-.677.216-.335 0-.635-.128-.852-.368-.218-.241-.362-.605-.362-1.092v-.265c0-.487.144-.852.362-1.092.217-.24.517-.369.852-.369.287 0 .502.075.655.192a.85.85 0 0 1 .304.496l.027.12h.942l-.04-.187c-.182-.857-.876-1.44-1.876-1.44-.698 0-1.238.279-1.599.728C.175 4.757 0 5.36 0 5.998c0 .643.175 1.243.533 1.687.362.447.901.723 1.599.723 1.002 0 1.707-.599 1.889-1.492z"/></svg>