<svg xmlns="http://www.w3.org/2000/svg" fill="none" viewBox="0 0 16 16"><path fill="#0A0B0D" d="M6.104 9.228c-.228-.177-.586-.298-1.1-.38l-1.201-.19c-.722-.11-1.367-.337-1.834-.744-.476-.414-.748-.997-.748-1.772 0-.735.307-1.401.885-1.88.576-.477 1.406-.758 2.443-.758 1.06 0 1.877.287 2.439.757s.856 1.113.888 1.787l.011.22H6.329l-.014-.195a1.16 1.16 0 0 0-.453-.874c-.28-.217-.713-.358-1.325-.358-.616 0-1.056.152-1.338.375-.278.22-.416.519-.416.854 0 .356.126.588.343.755.23.177.58.295 1.052.37l1.177.191c.744.116 1.406.342 1.885.748.489.414.768.998.768 1.78 0 .828-.355 1.52-.974 1.999-.614.476-1.476.734-2.485.734-1.07 0-1.94-.274-2.555-.76a2.57 2.57 0 0 1-.987-1.978L1 9.692h1.56l.01.2c.02.459.209.803.532 1.038.33.24.82.38 1.459.38.611 0 1.083-.147 1.397-.383.308-.231.475-.556.475-.953 0-.355-.116-.581-.329-.746m5.026 4.842v-1.608c-.771-.1-1.4-.384-1.854-.814-.492-.468-.763-1.096-.789-1.809l-.008-.22h1.5l.01.2c.027.457.205.797.497 1.028.298.234.735.37 1.305.37.555 0 .98-.144 1.263-.372.277-.225.431-.542.431-.93 0-.339-.11-.55-.309-.704-.216-.168-.554-.284-1.041-.373h-.003l-.986-.192c-.697-.13-1.311-.366-1.753-.765-.45-.405-.703-.963-.703-1.692 0-1.257.92-2.283 2.44-2.507V2.07h1.312v1.61c.745.108 1.325.4 1.733.815.441.45.668 1.03.694 1.637l.01.221h-1.513l-.011-.2c-.021-.365-.158-.665-.405-.876-.25-.213-.634-.354-1.182-.354-.54 0-.931.148-1.184.365-.25.215-.38.51-.38.841 0 .368.121.585.32.737.216.165.542.27.983.352l.976.169c.705.129 1.334.348 1.789.74.465.4.728.963.728 1.728 0 .73-.273 1.355-.762 1.814-.447.42-1.065.693-1.796.792v1.61z"/></svg>