<svg xmlns="http://www.w3.org/2000/svg" fill="none" viewBox="0 0 12 12"><path fill="#0A0B0D" d="M10.252 7.501h-1.76l-.052.236c-.092.424-.274.778-.55 1.026-.27.244-.655.406-1.196.406-.506 0-.939-.155-1.28-.447-.27-.23-.494-.556-.647-.98H7.45V6.324H4.546v-.672h2.916V4.237H4.77c.156-.42.38-.741.65-.97.342-.29.778-.446 1.297-.446.505 0 .874.141 1.138.364.267.225.452.555.55.976l.053.232h1.776l-.08-.364c-.175-.794-.563-1.48-1.15-1.968-.59-.49-1.361-.764-2.275-.764-1.042 0-1.878.336-2.505.915-.567.524-.946 1.23-1.162 2.025H1.738v1.416H2.85a8 8 0 0 0 0 .672H1.725v1.416H3.05c.215.8.594 1.51 1.164 2.036.628.58 1.468.916 2.515.916.915 0 1.697-.281 2.293-.786.596-.504.99-1.216 1.157-2.047z"/></svg>