<svg xmlns="http://www.w3.org/2000/svg" fill="none" viewBox="0 0 24 24"><path fill="#0A0B0D" d="m7.02 17.558.001.002c.943 1.084 2.202 1.621 3.747 1.621.64 0 1.212-.084 1.706-.26q.723-.255 1.273-.683l.006-.005q.306-.254.561-.54l.229 1.268h2.135V5.651h1.672V3.6h-1.672V1.641h-2.536V3.6H9.456v2.052h4.686c0 .665-.006 1.327.045 1.99l.005.067a4.06 4.06 0 0 0-1.723-1.035c-.494-.175-1.062-.258-1.701-.258-1.531 0-2.789.538-3.745 1.62l-.002.001c-.947 1.09-1.393 2.706-1.393 4.795 0 2.033.448 3.626 1.392 4.727m6.435-1.477-.003.004c-.419.567-1.17.89-2.354.89-.99 0-1.679-.346-2.127-1.01-.468-.71-.72-1.735-.72-3.112 0-1.376.252-2.42.724-3.16.452-.712 1.129-1.072 2.079-1.072 1.252 0 2.024.364 2.43 1.005.992 1.562 1.135 4.925-.03 6.455M6.948 22.35h10.456v-2.01H6.948z"/></svg>