<svg xmlns="http://www.w3.org/2000/svg" fill="none" viewBox="0 0 16 16"><path fill="#0A0B0D" d="M13.89 10.254h-2.24l-.052.236c-.135.618-.403 1.147-.817 1.52-.41.369-.986.607-1.78.607-.743 0-1.386-.23-1.894-.664-.436-.372-.787-.908-1.01-1.61h3.85V8.589H5.834V7.386h4.13V5.63H6.101c.229-.694.579-1.224 1.016-1.594.51-.432 1.157-.662 1.918-.662.74 0 1.293.207 1.694.545.402.34.677.834.819 1.45l.053.232h2.261l-.08-.365c-.242-1.101-.778-2.047-1.587-2.718-.81-.672-1.874-1.053-3.143-1.053-1.446 0-2.6.466-3.463 1.263-.805.743-1.339 1.756-1.635 2.902H2.105v1.756h1.582q-.016.306-.018.618.001.301.017.584H2.088v1.756h1.849c.296 1.153.83 2.171 1.637 2.916.866.8 2.024 1.266 3.478 1.266 1.27 0 2.349-.39 3.169-1.085.819-.693 1.364-1.674 1.596-2.828z"/></svg>