<svg xmlns="http://www.w3.org/2000/svg" fill="none" viewBox="0 0 12 12"><path fill="#0A0B0D" d="M3.264 1.218H2.047l.191 6.818h1.217zm5.562 2.271-.14-.192-1.027.67.15.211q.509.721.746 1.153v.002c.163.29.257.504.296.65l.003.01c.049.158.068.276.068.36q0 .155-.078.263l-.002.003c-.036.053-.109.112-.253.16l-.003.001c-.133.046-.335.075-.617.075a2.1 2.1 0 0 1-1.103-.287l-.22-.143-.597 1.028.175.134q.215.163.487.279l.007.003q.273.106.587.163.324.058.664.057c.509 0 .937-.072 1.264-.24.31-.158.551-.37.699-.643l.001-.002q.205-.388.206-.807a2.5 2.5 0 0 0-.135-.745 5 5 0 0 0-.416-.966q-.286-.541-.762-1.197M6.604 6.994l.126-.216-.136.21zm.233-.154a1 1 0 0 1-.107-.062zm-1.911-.445a.85.85 0 0 0-.86.86.85.85 0 0 0 .86.861.85.85 0 0 0 .86-.86.85.85 0 0 0-.86-.861m-3.04 2.79a1 1 0 0 0 .173.566l-.22.051.215.97.249-.062q.25-.063.545-.143a17 17 0 0 0 1.102-.343l.221-.083-.29-.928-.247.091a6 6 0 0 1-.364.118l-.012.004-.122.04-.02-.01-.006-.002a.7.7 0 0 1-.195-.144.22.22 0 0 1-.05-.152q0-.026.003-.026 0-.003.009-.01a.34.34 0 0 1 .17-.033q.075 0 .123.012l.174.037.255.05.144-.902-.194-.07a1.4 1.4 0 0 0-.258-.066 1.4 1.4 0 0 0-.79.087l-.004.002a1.1 1.1 0 0 0-.437.344l-.008.012a1.04 1.04 0 0 0-.166.59"/></svg>