<svg xmlns="http://www.w3.org/2000/svg" fill="none" viewBox="0 0 24 24"><path fill="#0A0B0D" d="M17.32 20.48v-2.274c-1.1-.141-2-.543-2.647-1.152-.703-.66-1.09-1.549-1.127-2.557l-.011-.311h2.14l.017.282c.038.646.292 1.128.71 1.454.425.33 1.05.525 1.864.525.793 0 1.4-.205 1.803-.527.397-.318.617-.767.617-1.315 0-.48-.157-.778-.442-.997-.308-.237-.792-.401-1.488-.527h-.003l-1.409-.272c-.997-.184-1.873-.518-2.504-1.08-.642-.574-1.005-1.363-1.005-2.394 0-1.779 1.315-3.229 3.485-3.547V3.51h1.875v2.277c1.065.152 1.893.565 2.475 1.152.631.635.956 1.456.992 2.315l.014.313h-2.16l-.017-.283c-.03-.517-.225-.941-.578-1.24-.357-.3-.905-.5-1.69-.5-.77 0-1.33.21-1.69.517-.357.304-.542.72-.542 1.189 0 .52.173.827.457 1.042.307.233.773.38 1.404.498l1.394.238c1.007.183 1.906.493 2.555 1.047.665.566 1.04 1.363 1.04 2.445 0 1.032-.389 1.916-1.087 2.565-.64.595-1.523.98-2.567 1.12v2.276zm-6.58-2.192-1.12-2.992H4.546l-1.088 2.992h-2.33L5.966 5.72H8.23l4.909 12.568zm-5.483-4.952h3.627L7.05 8.42z"/></svg>