<svg xmlns="http://www.w3.org/2000/svg" fill="none" viewBox="0 0 16 16"><path fill="#0A0B0D" d="M.963 2.767v8.344h2.074V8.406l2.734 2.705h2.89v2.112h2.03V10.71q.105.102.227.189c.341.241.765.367 1.277.367.95 0 1.67-.41 2.141-1.055.465-.634.678-1.478.678-2.347 0-.88-.213-1.726-.678-2.36-.472-.646-1.191-1.053-2.14-1.053-.556 0-1.015.148-1.376.42a2 2 0 0 0-.239.212v-.478h-1.92v6.469L5.353 7.993c.671-.073 1.229-.301 1.642-.674.515-.463.772-1.12.772-1.877 0-.758-.263-1.437-.787-1.923s-1.277-.753-2.208-.753zM5.671 5.41v.121c0 .276-.085.46-.216.577-.137.122-.366.212-.727.212h-1.69V4.61h1.69c.363 0 .591.089.727.21.13.116.216.3.216.59m6.983 1.16c.196.215.33.551.33 1.03v.505c0 .472-.134.809-.33 1.025-.194.214-.473.336-.822.336-.345 0-.62-.125-.814-.342-.195-.22-.327-.558-.327-1.019V7.6c0-.46.132-.8.327-1.019.193-.216.469-.342.814-.342.35 0 .63.121.822.333"/></svg>