<svg xmlns="http://www.w3.org/2000/svg" fill="none" viewBox="0 0 24 24"><path fill="#0A0B0D" d="M5.837 3.962V20.05h4.07v2.838h2.866V20.05h.096c1.496 0 2.813-.428 3.762-1.244.953-.82 1.51-2.01 1.51-3.478 0-1.042-.312-1.909-.87-2.581a4.1 4.1 0 0 0-1.518-1.12c1.186-.638 1.926-1.748 1.926-3.185 0-1.38-.53-2.51-1.448-3.292-.873-.743-2.076-1.151-3.458-1.185V1.102H9.907v2.86zm8.492 4.59v.22c0 .515-.168.908-.455 1.175-.289.269-.73.44-1.335.44H9.187v-3.47h3.352c.604 0 1.046.17 1.334.44.287.269.456.668.456 1.195m.44 6.468v.22c0 .549-.18.993-.504 1.3-.325.31-.827.512-1.528.512h-3.55V13.12h3.506c.695 0 1.208.189 1.545.5.333.31.53.773.53 1.4"/></svg>