<svg xmlns="http://www.w3.org/2000/svg" fill="none" viewBox="0 0 24 24"><path fill="#0A0B0D" d="M6.54 2.44H4.106l.382 13.638h2.434zm11.123 4.543-.28-.385-2.054 1.34.3.424q1.018 1.44 1.492 2.306l.002.003c.324.58.512 1.008.59 1.3l.003.01.003.01c.098.316.137.552.137.72a.9.9 0 0 1-.158.527l-.003.004c-.072.106-.218.225-.506.321l-.005.002c-.267.092-.67.15-1.235.15-.527 0-.966-.066-1.329-.187-.405-.135-.69-.267-.877-.387l-.44-.287-1.194 2.058.35.267q.43.325.974.557l.007.003.007.003q.547.214 1.173.327h.003q.646.115 1.326.115c1.017 0 1.874-.146 2.528-.48.622-.317 1.103-.74 1.398-1.287l.003-.005a3.4 3.4 0 0 0 .411-1.613c0-.445-.096-.945-.269-1.49-.166-.575-.448-1.22-.834-1.932q-.571-1.083-1.523-2.394m-7.799 5.811c-.967 0-1.721.755-1.721 1.722a1.7 1.7 0 0 0 1.72 1.72 1.7 1.7 0 0 0 1.722-1.72c0-.967-.755-1.722-1.721-1.722m-6.08 5.58a2 2 0 0 0 .345 1.133l-.441.102.431 1.94.498-.124q.502-.124 1.09-.285.592-.162 1.166-.341.594-.18 1.038-.346l.443-.166-.582-1.856-.493.182a11 11 0 0 1-.728.237l-.012.003-.013.005q-.118.04-.243.08l-.041-.02-.01-.005a1.3 1.3 0 0 1-.39-.289.44.44 0 0 1-.103-.303c0-.035.007-.05.008-.053l.018-.02c.045-.028.145-.064.342-.064q.149.001.245.023.165.037.347.073l.51.102.289-1.806-.389-.14a2.7 2.7 0 0 0-.516-.13 3 3 0 0 0-.486-.043q-.574 0-1.095.216l-.007.003q-.528.23-.874.69l-.008.01-.008.012c-.23.344-.331.746-.331 1.18"/></svg>