<svg xmlns="http://www.w3.org/2000/svg" fill="none" viewBox="0 0 12 12"><path fill="#0A0B0D" d="M.976 2.111v6.232h1.368V6.312l2.248 2.031h1.834V9.88h1.336V8.098q.034.027.07.052c.284.2.633.305 1.038.305.68 0 1.226-.287 1.594-.762.362-.468.538-1.098.538-1.778 0-.675-.172-1.305-.531-1.773-.366-.478-.912-.767-1.601-.767-.427 0-.793.113-1.086.328l-.07.054v-.27H6.426V8.21L3.84 5.949c.58-.022 1.07-.189 1.424-.505.386-.343.576-.831.576-1.393s-.192-1.058-.58-1.41c-.386-.35-.931-.53-1.584-.53zm3.488 1.9v.104c0 .222-.07.372-.178.469-.113.101-.31.183-.634.183H2.344V3.36h1.308c.326 0 .523.08.635.181.107.096.177.244.177.471m4.916.871c.162.184.278.473.278.881v.304c0 .404-.115.691-.278.874a.87.87 0 0 1-.67.282.86.86 0 0 1-.67-.288c-.163-.185-.278-.473-.278-.868v-.304c0-.39.114-.681.28-.87A.86.86 0 0 1 8.71 4.6c.282 0 .51.103.67.283"/></svg>