<svg xmlns="http://www.w3.org/2000/svg" fill="none" viewBox="0 0 16 16"><path fill="#0A0B0D" d="M4.633 9.006h-.114l3.762 3.29H5.892L2.645 9.361v2.933H.989V3.951h3.6c.878 0 1.598.24 2.102.698.507.46.76 1.11.76 1.857s-.25 1.384-.753 1.832c-.498.443-1.207.668-2.065.668m-.077-3.564H2.645v2.161h1.91c.465 0 .766-.117.949-.28.177-.16.28-.399.28-.729v-.143c0-.336-.103-.574-.28-.731-.181-.162-.483-.278-.948-.278m6.643 8.15v-1.486c-.688-.104-1.26-.365-1.68-.76-.476-.448-.737-1.05-.762-1.728l-.011-.311h1.595l.016.282c.023.391.175.673.419.863.25.196.63.318 1.14.318.497 0 .864-.128 1.102-.318a.94.94 0 0 0 .359-.768c0-.282-.09-.442-.245-.561-.178-.137-.47-.24-.917-.321h-.003l-.91-.176H11.3c-.654-.121-1.242-.342-1.67-.725-.44-.392-.686-.932-.686-1.627 0-1.188.862-2.147 2.255-2.385v-1.49h1.425v1.489c.665.11 1.192.38 1.57.76.43.432.649.99.673 1.569l.014.313h-1.608l-.017-.283c-.018-.31-.134-.556-.337-.727-.206-.175-.535-.3-1.024-.3-.48 0-.816.131-1.025.31a.88.88 0 0 0-.314.689c0 .308.1.473.254.59.177.134.457.227.863.302l.902.154c.659.12 1.262.325 1.703.701.456.389.71.935.71 1.663 0 .696-.263 1.297-.737 1.737-.414.385-.973.636-1.627.739v1.487z"/></svg>