<svg xmlns="http://www.w3.org/2000/svg" fill="none" viewBox="0 0 16 16"><path fill="#0A0B0D" d="M7.021 8.452c-.414.373-.971.6-1.642.674l3.35 3.117H5.796L3.063 9.538v2.705H.989V3.899h3.809c.93 0 1.684.267 2.207.752.525.487.788 1.165.788 1.924s-.257 1.414-.772 1.877m-2.267-2.71H3.063v1.71h1.69c.361 0 .59-.09.727-.212.132-.118.217-.3.217-.577v-.121c0-.29-.086-.474-.217-.59-.135-.122-.364-.21-.726-.21m6.181 7.85v-1.505c-.683-.122-1.258-.397-1.681-.802a2.46 2.46 0 0 1-.761-1.772l-.006-.305h2.017l.008.292c.009.335.13.563.322.713.202.158.518.26.962.26.432 0 .727-.107.908-.252a.7.7 0 0 0 .266-.57.6.6 0 0 0-.048-.261.4.4 0 0 0-.133-.147c-.15-.102-.4-.177-.816-.254l-.845-.154c-.68-.12-1.298-.34-1.748-.737-.463-.408-.722-.977-.722-1.725 0-1.207.87-2.198 2.277-2.468V2.4h1.722v1.52c1.403.287 2.197 1.257 2.233 2.4l.01.31h-2.035l-.005-.295c-.005-.248-.09-.44-.245-.572-.16-.138-.431-.244-.863-.244-.41 0-.676.109-.834.244a.64.64 0 0 0-.23.5c0 .24.075.356.193.44.146.104.385.178.755.244l.835.132c.664.107 1.293.306 1.76.695.48.401.758.98.758 1.768 0 .696-.264 1.3-.73 1.75-.407.397-.96.666-1.602.792v1.509z"/></svg>