<svg xmlns="http://www.w3.org/2000/svg" fill="none" viewBox="0 0 24 24"><path fill="#0A0B0D" d="M1.673 4.08v12.567h2.232V11.91l5.246 4.738h3.192L6.53 11.564h.612c1.3 0 2.352-.34 3.084-.992.735-.655 1.11-1.593 1.11-2.708s-.38-2.073-1.123-2.749C9.47 4.443 8.402 4.08 7.073 4.08zm7.412 3.7V8c0 .546-.172.963-.489 1.247-.32.288-.83.476-1.574.476H3.905V6.056h3.117c.745 0 1.255.184 1.575.47.315.282.488.698.488 1.253m6.232.311V7.003h-2.062v12.908h2.164v-4.27q.29.38.681.658c.54.38 1.21.586 2.011.586 1.342 0 2.403-.561 3.121-1.489.712-.92 1.072-2.18 1.072-3.57 0-1.382-.351-2.642-1.058-3.564-.714-.931-1.776-1.497-3.135-1.497-.845 0-1.55.224-2.109.632a3.1 3.1 0 0 0-.685.693m4.13 1.316c.412.465.676 1.166.676 2.096v.646c0 .921-.263 1.618-.676 2.08-.41.46-.989.714-1.676.714-.684 0-1.263-.26-1.675-.725-.414-.468-.677-1.166-.677-2.069v-.646c0-.894.263-1.597.678-2.072.413-.472.993-.739 1.674-.739.687 0 1.266.254 1.676.715"/></svg>