<svg xmlns="http://www.w3.org/2000/svg" fill="none" viewBox="0 0 24 24"><path fill="#0A0B0D" d="M8.634 13.907c-.28-.192-.73-.317-1.4-.42l-1.58-.237c-1.09-.166-2.06-.502-2.76-1.112-.712-.62-1.116-1.496-1.116-2.67 0-1.093.465-2.087 1.33-2.802.863-.713 2.104-1.136 3.645-1.136 1.574 0 2.81.423 3.666 1.12.858.698 1.315 1.66 1.343 2.691l.008.308H8.86l-.01-.29c-.014-.413-.174-.75-.49-.991-.325-.248-.847-.419-1.624-.419-.773 0-1.286.182-1.6.429a1.13 1.13 0 0 0-.446.92c0 .423.143.672.394.85.277.197.71.325 1.321.418h.002l1.547.22c1.076.166 2.069.479 2.797 1.075.743.608 1.18 1.487 1.18 2.707 0 1.227-.538 2.253-1.464 2.964-.919.707-2.203 1.093-3.697 1.093-1.562 0-2.864-.399-3.787-1.112-.93-.718-1.459-1.742-1.477-2.94l-.005-.305H4.41l.008.292c.014.54.231.935.61 1.205.39.278.979.441 1.759.441.774 0 1.339-.178 1.701-.443.354-.26.532-.613.532-1.025 0-.22-.038-.385-.1-.511a.8.8 0 0 0-.286-.32m7.926 6.663v-2.303c-1.088-.172-1.994-.595-2.648-1.222-.71-.68-1.107-1.588-1.125-2.628l-.006-.306h2.79l.008.293c.015.561.22.962.561 1.23.35.274.88.436 1.588.436.693 0 1.19-.172 1.506-.426.31-.249.472-.595.472-1.01 0-.21-.035-.362-.091-.477a.74.74 0 0 0-.26-.29c-.263-.18-.683-.3-1.325-.42l-1.306-.238c-1.037-.183-1.958-.516-2.622-1.103-.677-.597-1.06-1.431-1.06-2.547 0-1.812 1.328-3.316 3.519-3.683V3.57h2.334v2.326c2.187.396 3.396 1.867 3.45 3.585l.01.31h-2.814l-.005-.295c-.008-.423-.154-.766-.435-1.008-.287-.245-.748-.417-1.441-.417-.662 0-1.114.177-1.395.418a1.16 1.16 0 0 0-.413.9c0 .417.136.648.367.813.258.184.66.304 1.235.405l1.29.205c1.016.165 1.954.466 2.642 1.04.702.587 1.113 1.433 1.113 2.61 0 1.035-.39 1.926-1.078 2.594-.63.613-1.501 1.027-2.526 1.207v2.307z"/></svg>