<svg xmlns="http://www.w3.org/2000/svg" fill="none" viewBox="0 0 12 12"><path fill="#0A0B0D" d="M2.608 6.413c0 1.042.23 1.893.744 2.494l.002.002c.513.59 1.2.88 2.024.88q.509.002.92-.142c.262-.093.51-.22.723-.398l.078.43h1.434V3.022h.836V1.597h-.836V.618H6.865v.98H4.522v1.425h.512a2.53 2.53 0 0 0-1.678.86l-.002.002c-.518.596-.746 1.46-.746 2.528m2.935 1.872c-.44 0-.716-.15-.897-.416-.203-.31-.326-.778-.326-1.445s.123-1.146.33-1.473c.186-.292.457-.443.871-.443.59 0 .895.17 1.047.41.19.3.308.783.308 1.495V6.6c0 .649-.124 1.068-.313 1.317l-.003.004c-.157.212-.457.364-1.017.364m1.323-4.874a2.3 2.3 0 0 0-.574-.267q-.258-.09-.556-.12h1.13c0 .128-.003.258 0 .387M3.268 9.968v1.404h5.628V9.968z"/></svg>