<svg xmlns="http://www.w3.org/2000/svg" fill="none" viewBox="0 0 12 12"><path fill="#0A0B0D" d="M4.646 6.897c-.163-.126-.419-.213-.786-.271l-.858-.136c-.516-.079-.976-.24-1.31-.531-.34-.296-.534-.713-.534-1.266 0-.525.22-1 .632-1.343.411-.34 1.005-.541 1.745-.541.758 0 1.34.205 1.742.54.402.337.612.795.635 1.277l.007.157H4.806l-.01-.139a.83.83 0 0 0-.323-.625c-.2-.154-.51-.256-.947-.256-.44 0-.754.11-.955.269a.76.76 0 0 0-.297.61c0 .254.09.42.244.539.165.126.415.21.752.265l.841.136c.531.082 1.004.244 1.346.534.35.295.548.713.548 1.271 0 .591-.253 1.085-.695 1.428-.439.34-1.054.524-1.775.524-.764 0-1.386-.195-1.825-.542a1.83 1.83 0 0 1-.705-1.413L1 7.229h1.114l.007.143c.015.327.15.573.38.74.236.173.586.273 1.042.273.437 0 .774-.106.998-.274a.82.82 0 0 0 .34-.681c0-.253-.083-.415-.235-.533m3.589 3.423V9.181c-.55-.07-1-.272-1.323-.577a1.8 1.8 0 0 1-.564-1.28l-.006-.157h1.07l.01.142c.018.324.145.565.354.728.212.166.525.263.932.263.396 0 .7-.102.902-.264a.81.81 0 0 0 .308-.659c0-.24-.078-.39-.22-.499-.155-.119-.397-.2-.745-.264h-.001l-.705-.136c-.498-.092-.936-.26-1.252-.541-.32-.288-.503-.683-.503-1.2 0-.89.658-1.616 1.743-1.775V1.82h.937v1.141c.533.076.947.283 1.238.577.316.318.478.73.496 1.16l.007.156h-1.08l-.008-.142a.85.85 0 0 0-.29-.62c-.178-.151-.452-.251-.844-.251-.386 0-.665.105-.845.259a.76.76 0 0 0-.272.595c0 .261.087.414.229.522.154.117.387.19.702.25l.697.12c.504.09.953.246 1.278.523.332.284.52.683.52 1.225 0 .517-.195.96-.544 1.285-.32.298-.761.49-1.284.56v1.14z"/></svg>