<svg xmlns="http://www.w3.org/2000/svg" fill="none" viewBox="0 0 16 16"><path fill="#0A0B0D" d="M3.988 1.162H2.353l.272 9.727h1.636zm8.044 3.256-.168-.231-1.382.901.18.255q.736 1.041 1.081 1.67l.001.003c.235.42.374.734.432.953l.004.012c.072.232.101.408.101.537a.7.7 0 0 1-.124.416l-.002.003c-.062.09-.18.183-.397.255l-.003.001c-.202.07-.501.112-.912.112a3.1 3.1 0 0 1-1.626-.425l-.265-.172-.802 1.384.21.16q.303.23.69.396l.009.003q.387.153.836.233h.001q.462.082.947.082c.73 0 1.338-.105 1.798-.34.441-.225.778-.523.984-.904l.002-.003q.288-.547.29-1.137c0-.313-.068-.667-.192-1.058q-.18-.615-.598-1.384a14.4 14.4 0 0 0-1.095-1.722M6.448 8.64c-.664 0-1.182.518-1.182 1.182s.518 1.182 1.182 1.182c.665 0 1.182-.518 1.182-1.182S7.113 8.64 6.448 8.64m-4.33 3.969c0 .317.1.606.291.857l-.348.08.285 1.282.298-.075q.362-.09.786-.206a24 24 0 0 0 1.586-.494l.266-.1-.384-1.223-.295.109q-.232.084-.53.172l-.008.002-.007.003-.2.066-.053-.026-.006-.003a1 1 0 0 1-.301-.223.38.38 0 0 1-.09-.26c0-.052.014-.078.043-.102a.54.54 0 0 1 .284-.058q.114 0 .19.019.119.026.25.052l.305.061.191-1.191-.233-.085a2 2 0 0 0-.362-.091q-.174-.03-.341-.03-.403 0-.768.151l-.004.002a1.5 1.5 0 0 0-.606.479l-.005.007-.004.006c-.158.237-.23.515-.23.819m1.96-1.434h-.004z"/></svg>