<svg xmlns="http://www.w3.org/2000/svg" fill="none" viewBox="0 0 16 16"><path fill="#0A0B0D" d="M3.935 1.218H2.399l.27 9.627h1.535zm8.051 3.235-.14-.193-1.298.847.15.212q.737 1.043 1.084 1.676l.001.002c.236.42.377.74.437.965l.001.005.002.005c.072.234.103.416.103.552a.75.75 0 0 1-.133.444l-.002.003c-.07.102-.2.2-.422.274l-.003.001c-.21.072-.514.114-.928.114a3.15 3.15 0 0 1-1.653-.432l-.22-.144-.755 1.3.176.134q.296.225.68.39h.003l.003.002q.383.15.827.23.458.082.94.081c.726 0 1.324-.104 1.774-.334.435-.221.763-.513.963-.883l.002-.003q.282-.536.284-1.113-.002-.46-.19-1.044-.177-.609-.594-1.375a14 14 0 0 0-1.092-1.716M6.443 8.696c-.636 0-1.132.495-1.132 1.132s.496 1.132 1.132 1.132c.637 0 1.132-.496 1.132-1.132 0-.637-.495-1.132-1.132-1.132M3.73 11.201q-.394 0-.748.147H2.98l-.002.002a1.44 1.44 0 0 0-.586.462l-.004.006-.004.006a1.4 1.4 0 0 0-.22.79q.002.5.329.888l-.136.032-.242.056.263 1.183.25-.063q.36-.09.784-.206a24 24 0 0 0 1.582-.492l.221-.084-.354-1.128-.246.091a8 8 0 0 1-.533.174l-.006.001-.006.002q-.106.037-.22.073l-.072-.034-.003-.002-.003-.001a1 1 0 0 1-.316-.235.43.43 0 0 1-.102-.293c0-.068.02-.108.063-.143.055-.036.15-.067.313-.067q.118 0 .201.02l.248.052.255.05.176-1.1-.194-.07q-.165-.06-.352-.088a2 2 0 0 0-.334-.029"/></svg>