<svg xmlns="http://www.w3.org/2000/svg" fill="none" viewBox="0 0 16 16"><path fill="#0A0B0D" d="m4.744 11.606.001.002c.623.716 1.456 1.07 2.467 1.07q.627.002 1.122-.172.629-.224 1.065-.654l.124.685h1.559v-8.47h1.064V2.543h-1.064V1.297H9.25v1.246H6.268v1.524H9.25c0 .313-.005.626.013.938l-.074-.06a2.7 2.7 0 0 0-.86-.44 3.4 3.4 0 0 0-1.117-.17c-1.003 0-1.834.354-2.465 1.067l-.002.002c-.627.721-.913 1.781-.913 3.123 0 1.308.288 2.351.912 3.08m4.52-2.84c0 .839-.16 1.41-.429 1.764l-.002.003c-.238.322-.676.522-1.411.522-.6 0-1.002-.207-1.263-.594-.28-.427-.44-1.055-.44-1.92 0-.864.16-1.505.444-1.953.266-.418.66-.63 1.23-.63.778 0 1.225.224 1.455.588.264.415.416 1.063.416 1.981zm-4.592 5.926v-1.496h6.872v1.496z"/></svg>