<svg xmlns="http://www.w3.org/2000/svg" fill="none" viewBox="0 0 12 12"><path fill="#0A0B0D" d="M3.318 1.162H2l.194 6.919h.71a1.4 1.4 0 0 0-.42.104l-.003.002q-.277.12-.457.36l-.005.007-.005.007a1.1 1.1 0 0 0-.174.618q.002.292.143.534l-.2.046.237 1.069c.75-.187 1.493-.391 2.217-.662l-.32-1.023-.297.109a6 6 0 0 1-.36.117l-.008.002-.007.003-.101.034-.002-.002-.007-.003a.6.6 0 0 1-.178-.132.17.17 0 0 1-.039-.118.5.5 0 0 1 .246-.008l.174.036.306.061.159-.995-.233-.084a1.4 1.4 0 0 0-.376-.082h.317zm5.553 2.292-.167-.23-1.111.724.18.254q.509.72.743 1.148l.001.002c.162.288.253.499.29.639l.004.012c.048.155.066.268.066.344a.4.4 0 0 1-.07.235l-.001.003c-.028.041-.09.095-.228.141l-.003.001c-.126.044-.321.072-.601.072a2.06 2.06 0 0 1-1.076-.279l-.265-.172-.644 1.113.21.16q.22.167.497.285l.009.004q.278.108.595.166h.002q.329.058.672.058c.512 0 .95-.073 1.287-.245.317-.162.566-.38.72-.665l.001-.003q.211-.396.212-.83c0-.228-.05-.484-.137-.76a5 5 0 0 0-.42-.974 10 10 0 0 0-.766-1.203M4.931 6.34a.9.9 0 0 0-.91.91c0 .51.4.91.91.91a.9.9 0 0 0 .91-.91.9.9 0 0 0-.91-.91"/></svg>