<svg xmlns="http://www.w3.org/2000/svg" fill="none" viewBox="0 0 16 16"><path fill="#0A0B0D" d="M7.047 13.135v1.901h2.028v-1.905c.834-.153 1.545-.495 2.065-.999a2.95 2.95 0 0 0 .903-2.17c0-.982-.343-1.693-.935-2.187-.577-.48-1.36-.73-2.2-.867L7.845 6.74c-.472-.083-.793-.18-.995-.324-.175-.125-.28-.298-.28-.626a.9.9 0 0 1 .321-.7c.22-.187.579-.33 1.114-.33.563 0 .93.14 1.153.33q.329.284.34.79l.005.294h2.424l-.01-.31c-.045-1.428-1.046-2.648-2.842-2.989V.955H7.047v1.903C5.25 3.176 4.15 4.422 4.15 5.93c0 .931.321 1.633.891 2.135.558.49 1.327.767 2.185.919l1.076.195c.529.099.865.196 1.07.336a.56.56 0 0 1 .197.219c.042.085.07.202.07.368a.97.97 0 0 1-.37.79c-.248.199-.644.338-1.207.338-.575 0-.998-.131-1.274-.347-.267-.21-.43-.523-.442-.97l-.007-.293H3.934l.005.305c.016.87.349 1.628.943 2.198.54.516 1.28.864 2.165 1.012"/></svg>