<svg xmlns="http://www.w3.org/2000/svg" fill="none" viewBox="0 0 12 12"><path fill="#0A0B0D" d="M5.377 6.407c-.28.252-.642.415-1.068.487l2.463 2.291H4.397L2.525 7.333v1.852H.853V2.953h2.852c.692 0 1.262.2 1.66.57.402.371.6.887.6 1.458 0 .57-.194 1.071-.588 1.426m-1.704-1.95H2.525v1.08h1.148c.25 0 .394-.062.474-.133.074-.067.13-.175.13-.359v-.088c0-.193-.057-.303-.13-.368-.079-.07-.223-.132-.474-.132"/><path fill="#0A0B0D" d="M8.013 10.147V9.04c-.48-.097-.89-.298-1.198-.592A1.87 1.87 0 0 1 6.237 7.1l-.006-.305h1.63l.007.292c.006.223.085.364.203.457.128.1.338.171.65.171.301 0 .496-.075.609-.165a.43.43 0 0 0 .163-.35.35.35 0 0 0-.027-.155.2.2 0 0 0-.07-.075c-.092-.063-.258-.115-.562-.172l-.614-.111c-.5-.089-.967-.253-1.31-.556-.357-.313-.553-.75-.553-1.316 0-.904.64-1.64 1.656-1.861v-1.11h1.416v1.121c1.012.232 1.596.953 1.623 1.809l.01.31H9.418l-.005-.296a.45.45 0 0 0-.15-.355c-.097-.083-.273-.158-.574-.158-.284 0-.457.076-.554.158a.39.39 0 0 0-.138.302c0 .151.044.209.106.253.09.064.247.116.515.163l.607.096c.488.08.963.227 1.319.524.37.309.58.753.58 1.348 0 .529-.2.989-.555 1.333-.295.286-.688.483-1.14.583v1.112z"/></svg>