<svg xmlns="http://www.w3.org/2000/svg" fill="none" viewBox="0 0 16 16"><path fill="#0A0B0D" d="M14.09 10.1h-2.865l-.049.241c-.102.5-.312.943-.656 1.258-.34.311-.838.525-1.566.525-.65 0-1.173-.172-1.577-.487-.322-.251-.584-.606-.773-1.072h3.16V8.418H6.262v-.88h3.502V5.393H6.611c.194-.456.457-.802.777-1.048.404-.31.923-.477 1.566-.477.669 0 1.154.176 1.496.453.343.278.568.68.676 1.18l.05.237h2.88l-.064-.354c-.418-2.29-2.264-3.918-4.97-3.918-1.464 0-2.628.427-3.505 1.174-.819.697-1.367 1.655-1.687 2.753H1.888V7.54h1.613a9 9 0 0 0-.015.465v.005q0 .2.003.409h-1.6v2.147H3.81c.313 1.113.862 2.08 1.686 2.782.882.752 2.054 1.179 3.526 1.179 1.353 0 2.499-.402 3.363-1.122s1.427-1.742 1.642-2.95z"/></svg>