<svg xmlns="http://www.w3.org/2000/svg" fill="none" viewBox="0 0 24 24"><path fill="#0A0B0D" d="M6.273 2.718H4.339l.368 13.137H6.64zm11.164 4.439-.14-.192-1.638 1.068.15.212q1.023 1.445 1.507 2.33l.001.002c.328.584.528 1.034.614 1.358l.003.01c.102.329.148.591.148.793q-.001.387-.203.67l-.001.003c-.113.165-.313.31-.634.417h-.003c-.304.106-.739.164-1.316.164q-.818-.001-1.408-.2c-.415-.138-.723-.277-.934-.414l-.22-.144-.95 1.64.175.133q.4.305.92.527l.007.003q.521.204 1.126.314h.001q.625.11 1.283.11c.998 0 1.81-.143 2.414-.452.588-.3 1.027-.692 1.293-1.183v-.003a3.2 3.2 0 0 0 .383-1.497c0-.411-.089-.885-.258-1.418q-.242-.83-.815-1.885-.56-1.065-1.505-2.366M9.84 13.072c-.828 0-1.471.643-1.471 1.471s.643 1.471 1.47 1.471c.83 0 1.472-.643 1.472-1.471s-.643-1.471-1.471-1.471M6.083 16.54q-.525 0-1 .197l-.003.002q-.467.203-.773.61l-.007.011c-.198.296-.29.648-.29 1.041 0 .454.16.86.47 1.21l.003.004.069.072-.348.081-.242.056.322 1.449.249-.063q.498-.125 1.085-.284.588-.16 1.158-.339.589-.178 1.023-.34l.221-.084-.432-1.379-.247.09q-.326.121-.744.243l-.012.004q-.165.057-.34.111a2 2 0 0 1-.139-.063l-.005-.003a1.5 1.5 0 0 1-.47-.348.7.7 0 0 1-.165-.47.32.32 0 0 1 .127-.275c.097-.066.251-.112.49-.112q.172 0 .3.03.161.036.341.072l.255.05.215-1.345-.194-.07a2.5 2.5 0 0 0-.47-.119 3 3 0 0 0-.447-.038"/></svg>