<svg xmlns="http://www.w3.org/2000/svg" fill="none" viewBox="0 0 24 24"><path fill="#0A0B0D" d="M20.51 15.458H17.5l-.051.236c-.203.93-.61 1.737-1.245 2.31-.632.569-1.514.929-2.712.929-1.123 0-2.102-.348-2.877-1.01-.703-.6-1.254-1.472-1.584-2.615h5.711v-2.3H8.697a29 29 0 0 1 0-2.05h6.071v-2.3H9.036c.34-1.131.89-1.997 1.595-2.593.778-.66 1.763-1.007 2.912-1.007 1.116 0 1.963.313 2.582.835.62.524 1.037 1.28 1.25 2.207l.054.233h3.037l-.08-.365c-.35-1.593-1.124-2.955-2.286-3.92s-2.695-1.515-4.532-1.515c-2.094 0-3.756.674-4.997 1.82-1.183 1.092-1.966 2.596-2.39 4.305H3.493v2.3h2.333a20 20 0 0 0-.033 1.05c0 .346.014.677.032 1H3.468v2.3h2.688c.424 1.72 1.206 3.23 2.393 4.326 1.244 1.15 2.913 1.824 5.019 1.824 1.839 0 3.39-.565 4.569-1.562 1.177-.996 1.964-2.41 2.3-4.079z"/></svg>