<svg xmlns="http://www.w3.org/2000/svg" fill="none" viewBox="0 0 24 24"><path fill="#0A0B0D" d="M10.68 19.925v2.963h2.843v-2.967c1.345-.222 2.48-.756 3.297-1.548.873-.846 1.367-1.974 1.367-3.287 0-1.498-.521-2.565-1.408-3.305-.872-.727-2.068-1.113-3.376-1.325l-1.67-.264c-.745-.131-1.283-.288-1.635-.54-.325-.23-.513-.558-.513-1.122 0-.466.185-.904.566-1.23.384-.327.99-.56 1.862-.56.911 0 1.531.225 1.923.56.386.332.584.8.593 1.367l.005.295H18l-.01-.31c-.069-2.19-1.624-4.073-4.466-4.56v-2.99H10.68v2.965C7.835 4.514 6.125 6.44 6.125 8.75c0 1.42.487 2.473 1.342 3.226.843.742 2.016 1.168 3.35 1.404l1.692.307c.829.155 1.39.312 1.747.555.17.116.289.25.367.41.08.164.126.374.126.654 0 .563-.22 1.036-.643 1.375-.43.344-1.094.57-2.005.57-.927 0-1.634-.212-2.108-.583-.465-.364-.74-.908-.76-1.656l-.008-.292H5.79l.005.305c.024 1.321.529 2.47 1.43 3.333.845.81 2.027 1.354 3.454 1.567"/></svg>