<svg xmlns="http://www.w3.org/2000/svg" fill="none" viewBox="0 0 12 12"><path fill="#0A0B0D" d="M2.884 1.829v8.344H4.93v1.419h1.425v-1.42h.04c.756 0 1.43-.22 1.921-.65.495-.434.778-1.06.778-1.816 0-.567-.165-1.047-.475-1.421a2.1 2.1 0 0 0-.585-.485q.243-.17.421-.4c.26-.339.397-.76.397-1.236 0-.707-.266-1.3-.736-1.713-.45-.397-1.067-.609-1.761-.622V.4H4.93v1.43zm4.378 2.346v.11c0 .298-.098.511-.255.653-.16.145-.416.246-.787.246H4.474v-1.92H6.22c.369 0 .625.103.786.25.158.145.256.362.256.66m.242 3.41v.11c0 .323-.11.568-.295.734-.187.17-.483.286-.901.286H4.474v-2.16h1.834c.409 0 .705.111.895.28.186.165.3.411.3.75"/></svg>