<svg xmlns="http://www.w3.org/2000/svg" fill="none" viewBox="0 0 16 16"><path fill="#0A0B0D" d="M4.119 2.774V13.23h2.604v1.806h1.65V13.23h.134c.945 0 1.784-.276 2.39-.808.611-.535.962-1.31.962-2.25 0-.704-.205-1.296-.586-1.756a2.65 2.65 0 0 0-.84-.663c.245-.152.458-.341.63-.565.32-.415.488-.933.488-1.524 0-.878-.33-1.61-.909-2.119-.573-.504-1.368-.77-2.27-.77V.954h-1.65v1.82zM9.69 5.678v.14c0 .399-.132.694-.351.892-.223.202-.571.334-1.057.334H5.979V4.438h2.304c.484 0 .832.135 1.055.34.22.202.353.501.353.9m.308 4.34v.14c0 .431-.148.766-.402.995-.257.233-.655.385-1.202.385H5.979V8.624h2.416c.535 0 .933.146 1.193.378.257.227.41.564.41 1.016"/></svg>