<svg xmlns="http://www.w3.org/2000/svg" fill="none" viewBox="0 0 16 16"><path fill="#0A0B0D" d="m10.074 8.03 2.475-2.474a1.5 1.5 0 1 0-2.121-2.121l-1.52 1.52L7.494 3.54l1.52-1.52a3.5 3.5 0 0 1 4.95 4.95l-2.475 2.475a3.5 3.5 0 0 1-5.075-.132l1.418-1.419q.056.072.121.137a1.5 1.5 0 0 0 2.121 0"/><path fill="#0A0B0D" d="m5.903 7.96-2.475 2.475a1.5 1.5 0 0 0 2.121 2.12l1.356-1.354 1.414 1.414-1.355 1.355a3.5 3.5 0 0 1-4.95-4.95l2.475-2.475a3.5 3.5 0 0 1 4.815-.127l-1.42 1.418a1.5 1.5 0 0 0-1.981.124"/></svg>