<svg xmlns="http://www.w3.org/2000/svg" fill="none" viewBox="0 0 16 16"><path fill="#0A0B0D" d="m10.357 8.314 2.475-2.475a1.9 1.9 0 1 0-2.687-2.687l-1.52 1.52L7.494 3.54l1.52-1.52a3.5 3.5 0 1 1 4.95 4.95l-2.475 2.475a3.5 3.5 0 0 1-5.064-.12l1.134-1.133q.053.063.111.122a1.9 1.9 0 0 0 2.687 0"/><path fill="#0A0B0D" d="m5.62 7.677-2.475 2.475a1.9 1.9 0 1 0 2.687 2.687l1.356-1.356 1.13 1.132-1.354 1.355a3.5 3.5 0 0 1-4.95-4.95l2.475-2.475a3.5 3.5 0 0 1 4.815-.127L8.169 7.552a1.9 1.9 0 0 0-2.549.125"/></svg>