<svg xmlns="http://www.w3.org/2000/svg" fill="none" viewBox="0 0 12 12"><path fill="#0A0B0D" d="m7.635 6.01 1.768-1.768a1.05 1.05 0 1 0-1.485-1.484L6.832 3.843 5.807 2.818l1.085-1.086a2.5 2.5 0 0 1 3.536 3.536L8.66 7.036a2.5 2.5 0 0 1-3.63-.1l1.03-1.029q.04.054.09.103c.41.41 1.075.41 1.485 0"/><path fill="#0A0B0D" d="M4.686 5.99 2.918 7.758a1.05 1.05 0 0 0 1.485 1.484l.968-.968L6.396 9.3l-.968.968a2.5 2.5 0 0 1-3.535-3.536L3.66 4.964a2.5 2.5 0 0 1 3.439-.09L6.07 5.901a1.05 1.05 0 0 0-1.385.088"/></svg>