<svg xmlns="http://www.w3.org/2000/svg" fill="none" viewBox="0 0 24 24"><path fill="#0A0B0D" d="M8.769 10.131c-.756 0-1.308.564-1.308 1.5v.612c0 .948.552 1.5 1.308 1.5.672 0 1.008-.408 1.104-.828h1.812c-.192 1.428-1.272 2.352-2.904 2.352-2.196 0-3.192-1.572-3.192-3.336s.996-3.336 3.192-3.336c1.632 0 2.712.924 2.904 2.364H9.873c-.096-.42-.432-.828-1.104-.828m6.644 0c-.756 0-1.308.564-1.308 1.5v.612c0 .948.552 1.5 1.308 1.5.672 0 1.008-.408 1.104-.828h1.812c-.192 1.428-1.272 2.352-2.904 2.352-2.196 0-3.192-1.572-3.192-3.336s.996-3.336 3.192-3.336c1.632 0 2.712.924 2.904 2.364h-1.812c-.096-.42-.432-.828-1.104-.828"/><path fill="#0A0B0D" d="M1.989 18.995v-14h20v14zm2-12v10h16v-10z"/></svg>