<svg xmlns="http://www.w3.org/2000/svg" fill="none" viewBox="0 0 16 16"><path fill="#0A0B0D" d="M2.989 4.995a2.5 2.5 0 0 0-2.45 2h14.9a2.5 2.5 0 0 0-2.972-1.945 4.5 4.5 0 0 0-8.956 0 2.5 2.5 0 0 0-.522-.055m9.447 5.522c-.17.249-.085.58 0 .83l.599 1.326-1.112 1.078-1.283-.663a1.5 1.5 0 0 0-.855 0 1.02 1.02 0 0 0-.599.58l-.427 1.327H7.134l-.428-1.327a.96.96 0 0 0-.599-.663c-.256-.166-.598-.083-.855 0l-1.368.663-1.112-1.078.684-1.244a1.4 1.4 0 0 0 0-.829 1.02 1.02 0 0 0-.599-.58L1.49 9.522V8.195h13v1.327l-1.369.415c-.342.083-.513.331-.684.58m-1.492.518c-.025-.34.014-.838.338-1.311l.026-.038q.026-.04.062-.09H4.553q.137.21.227.466a2.8 2.8 0 0 1 .04 1.611h.001c.157-.05.438-.136.762-.158.29-.02.704.004 1.12.219a2.36 2.36 0 0 1 1.249 1.26c.132-.278.314-.508.495-.683.228-.222.536-.435.907-.555a2.9 2.9 0 0 1 1.746.01 3 3 0 0 1-.156-.731"/></svg>