<svg xmlns="http://www.w3.org/2000/svg" fill="none" viewBox="0 0 24 24"><path fill="#0A0B0D" d="M19.41 8.21c1.684 0 3.158 1.178 3.579 2.785h-22c.316-1.607 1.895-2.893 3.579-2.893.316 0 .737.107 1.052.215.21-3.536 2.948-6.322 6.421-6.322s6.316 2.786 6.421 6.322c.158 0 .316-.027.474-.054s.316-.054.474-.054m-5.29 4.518c0-.244 0-.488-.118-.732h6.987v1.951l-1.895.61c-.474.122-.71.488-.947.854s-.119.853 0 1.22l.829 1.95-1.54 1.586-1.776-.976a1.96 1.96 0 0 0-1.184 0c-.356.122-.71.488-.83.854l-.591 1.951h-2.25l-.592-1.951c-.119-.488-.474-.854-.83-.976-.355-.244-.828-.122-1.184 0l-1.894.976-1.54-1.585.947-1.83a2.14 2.14 0 0 0 0-1.22c-.118-.365-.473-.731-.828-.853l-1.895-.61v-1.95h6.987c-.119.243-.119.487-.119.73 0 1.22.948 2.196 2.132 2.196s2.131-.976 2.131-2.195"/></svg>