<svg xmlns="http://www.w3.org/2000/svg" fill="none" viewBox="0 0 12 12"><path fill="#0A0B0D" d="M9.7 3.602c.841 0 1.578.59 1.789 1.393h-11c.158-.803.947-1.446 1.79-1.446.157 0 .368.053.526.107.105-1.768 1.473-3.16 3.21-3.16s3.158 1.392 3.21 3.16c.08 0 .159-.014.237-.027.08-.013.158-.027.237-.027m.053 4.271c-.145.201-.072.47 0 .67l.506 1.074-.94.872-1.086-.537a1.33 1.33 0 0 0-.723 0 .85.85 0 0 0-.507.47l-.362 1.073H5.265l-.362-1.073a.79.79 0 0 0-.506-.537c-.217-.134-.507-.067-.724 0l-1.158.537-.94-.872.578-1.006c.073-.201.073-.47 0-.67a.85.85 0 0 0-.506-.47L.489 7.068V5.995h11v1.073l-1.158.336c-.29.067-.434.268-.58.47m-.904 1.098a2.3 2.3 0 0 1-.174-.685 1.5 1.5 0 0 1 .266-.997l.021-.03c.046-.064.114-.16.208-.264H2.77c.128.146.247.327.323.54.151.42.151.927 0 1.347a1 1 0 0 1-.074.16l-.034.06.267-.124a1 1 0 0 1 .125-.048c.128-.04.345-.102.59-.118.221-.014.53.003.84.158.474.188.89.606 1.05 1.156l.095.278.101-.302.007-.018a1.75 1.75 0 0 1 .46-.68c.18-.167.415-.321.692-.407.41-.126.905-.126 1.314 0a1 1 0 0 1 .148.059l.278.137z"/></svg>