<svg xmlns="http://www.w3.org/2000/svg" fill="none" viewBox="0 0 16 16"><path fill="#0A0B0D" d="M9.37 1.996 8.35 1.13a.54.54 0 0 0-.7 0l-1.02.86c-.33.284-.778.426-1.226.381l-1.35-.127a.53.53 0 0 0-.566.396l-.29 1.264a1.57 1.57 0 0 1-.762.994l-1.17.658a.485.485 0 0 0-.22.636l.542 1.196c.18.396.18.845 0 1.234L1.046 9.81a.5.5 0 0 0 .22.636l1.17.658c.392.217.667.575.762.994l.29 1.264a.52.52 0 0 0 .566.396l1.35-.127a1.7 1.7 0 0 1 1.226.381l1.02.86a.54.54 0 0 0 .7 0l1.02-.86c.33-.284.778-.426 1.226-.381l1.35.127a.53.53 0 0 0 .566-.396l.29-1.264c.103-.418.377-.777.762-.994l1.17-.658a.485.485 0 0 0 .22-.636l-.542-1.188a1.47 1.47 0 0 1 0-1.234l.542-1.189a.5.5 0 0 0-.22-.635l-1.17-.658a1.52 1.52 0 0 1-.762-.995l-.29-1.263a.52.52 0 0 0-.566-.397l-1.35.128a1.7 1.7 0 0 1-1.226-.382M6.253 8a1.752 1.752 0 0 0 3.481.292H11.5A3.504 3.504 0 0 1 8.007 11.5 3.504 3.504 0 0 1 4.5 8c0-1.932 1.57-3.5 3.507-3.5A3.504 3.504 0 0 1 11.5 7.708H9.734A1.752 1.752 0 0 0 6.254 8"/></svg>