<svg xmlns="http://www.w3.org/2000/svg" fill="none" viewBox="0 0 24 24"><path fill="#0A0B0D" d="m13.958 3.423-1.459-1.239a.77.77 0 0 0-.998 0l-1.459 1.229a2.34 2.34 0 0 1-1.75.544l-1.93-.181c-.381-.032-.729.213-.807.566l-.416 1.805a2.25 2.25 0 0 1-1.088 1.42l-1.672.94a.693.693 0 0 0-.314.908l.774 1.71a2.1 2.1 0 0 1 0 1.761l-.774 1.699a.715.715 0 0 0 .314.908l1.672.94c.561.31.954.822 1.088 1.42l.416 1.805c.078.363.426.598.807.566l1.93-.181a2.42 2.42 0 0 1 1.75.544l1.459 1.229a.77.77 0 0 0 .998 0l1.459-1.229a2.34 2.34 0 0 1 1.75-.544l1.93.181c.381.032.729-.213.807-.566l.416-1.805a2.25 2.25 0 0 1 1.088-1.42l1.672-.94a.693.693 0 0 0 .314-.908l-.774-1.699a2.1 2.1 0 0 1 0-1.762l.774-1.698a.715.715 0 0 0-.314-.908l-1.672-.94a2.17 2.17 0 0 1-1.088-1.42l-.416-1.806c-.078-.363-.426-.598-.807-.566l-1.93.182a2.4 2.4 0 0 1-1.75-.545M9.255 12c0 1.52 1.233 2.75 2.755 2.75a2.75 2.75 0 0 0 2.714-2.292H17.5a5.506 5.506 0 0 1-5.49 5.042A5.507 5.507 0 0 1 6.5 12c0-3.036 2.468-5.5 5.51-5.5a5.506 5.506 0 0 1 5.49 5.042h-2.776A2.75 2.75 0 0 0 12.01 9.25 2.75 2.75 0 0 0 9.255 12"/></svg>