<svg xmlns="http://www.w3.org/2000/svg" fill="none" viewBox="0 0 16 16"><path fill="#0A0B0D" d="M6.503 8a1.501 1.501 0 0 0 2.983.25H11A3.003 3.003 0 0 1 8.006 11 3.004 3.004 0 0 1 5 8c0-1.656 1.346-3 3.006-3A3.003 3.003 0 0 1 11 7.75H9.486A1.502 1.502 0 0 0 6.503 8"/><path fill="#0A0B0D" d="M12.512 2.647a.52.52 0 0 0-.566-.397l-1.35.128a1.7 1.7 0 0 1-1.226-.382L8.35 1.13a.54.54 0 0 0-.7 0l-1.02.86c-.33.284-.778.426-1.226.381l-1.35-.127a.53.53 0 0 0-.566.396l-.29 1.264a1.57 1.57 0 0 1-.762.994l-1.17.658a.485.485 0 0 0-.22.636l.542 1.196c.18.396.18.845 0 1.234L1.046 9.81a.5.5 0 0 0 .22.636l1.17.658c.392.217.667.575.762.994l.29 1.264a.52.52 0 0 0 .566.396l1.35-.127a1.7 1.7 0 0 1 1.226.381l1.02.86a.54.54 0 0 0 .7 0l1.02-.86c.33-.284.778-.426 1.226-.381l1.35.127a.53.53 0 0 0 .566-.396l.29-1.264c.103-.418.377-.777.762-.994l1.17-.658a.485.485 0 0 0 .22-.636l-.542-1.188a1.47 1.47 0 0 1 0-1.234l.542-1.189a.5.5 0 0 0-.22-.635l-1.17-.658a1.52 1.52 0 0 1-.762-.995zm-4.91.485.395-.334.402.341.006.005a3.2 3.2 0 0 0 2.318.728l.52-.049.097.42a3.02 3.02 0 0 0 1.493 1.972l.37.208-.154.338a2.97 2.97 0 0 0-.002 2.482l.156.342-.375.211a3.07 3.07 0 0 0-1.483 1.946l-.002.01-.1.432-.503-.047a3.14 3.14 0 0 0-2.341.731L8 13.204l-.405-.34a3.2 3.2 0 0 0-2.318-.729l-.52.05-.097-.421a3.02 3.02 0 0 0-1.493-1.971l-.37-.208.154-.338c.365-.792.36-1.695.002-2.48v-.002l-.158-.349.377-.212a3.07 3.07 0 0 0 1.483-1.946l.002-.01.1-.432.503.047a3.14 3.14 0 0 0 2.341-.731"/></svg>