<svg xmlns="http://www.w3.org/2000/svg" fill="none" viewBox="0 0 12 12"><path fill="#0A0B0D" d="M5.002 6a1 1 0 0 0 1.989.167H8A2 2 0 0 1 6.004 8 2 2 0 0 1 4 6a2.003 2.003 0 0 1 4-.167H6.99A1.001 1.001 0 0 0 5.003 6"/><path fill="#0A0B0D" d="M9.223 2.176a.373.373 0 0 0-.404-.283l-.965.091a1.2 1.2 0 0 1-.875-.272l-.73-.62a.384.384 0 0 0-.499 0l-.729.614a1.17 1.17 0 0 1-.875.273l-.965-.091a.38.38 0 0 0-.404.283l-.207.902c-.073.3-.27.556-.544.71l-.836.47a.347.347 0 0 0-.157.455l.387.854c.129.283.129.604 0 .881l-.387.85a.36.36 0 0 0 .157.453l.836.47c.28.155.476.412.544.71l.207.903c.04.182.213.3.404.283l.965-.09c.314-.027.634.069.875.272l.73.614c.14.123.353.123.499 0l.729-.614a1.17 1.17 0 0 1 .875-.273l.965.091a.38.38 0 0 0 .404-.283l.207-.902c.073-.3.27-.556.544-.71l.836-.47a.347.347 0 0 0 .157-.455l-.387-.849a1.05 1.05 0 0 1 0-.88l.387-.85a.357.357 0 0 0-.157-.454l-.836-.47a1.1 1.1 0 0 1-.544-.71zm-3.425.445.2-.168.204.173.004.004a2.4 2.4 0 0 0 1.75.55l.26-.025.044.19c.147.648.567 1.18 1.13 1.492l.16.09-.06.134a2.25 2.25 0 0 0-.002 1.88l.063.137-.166.093a2.32 2.32 0 0 0-1.12 1.471l-.002.008-.046.2-.248-.023a2.37 2.37 0 0 0-1.767.552L6 9.55l-.206-.174a2.4 2.4 0 0 0-1.75-.55l-.26.025-.044-.187V8.66a2.3 2.3 0 0 0-1.13-1.492l-.16-.09.06-.134c.277-.6.273-1.284.002-1.878v-.002l-.064-.14.167-.095c.556-.313.967-.84 1.12-1.471l.002-.008.046-.2.248.023a2.37 2.37 0 0 0 1.767-.552"/></svg>