<svg xmlns="http://www.w3.org/2000/svg" fill="none" viewBox="0 0 16 16"><path fill="#0A0B0D" d="m8.926 7.136-.937-1.64-.86 1.64-1.64.86 1.64.859.86 1.64.937-1.64 1.563-.86z"/><path fill="#0A0B0D" d="M12.975 10.057a.5.5 0 0 0 .006.42l.81 1.623-1.698 1.691-1.625-.809a.515.515 0 0 0-.706.292l-.572 1.721H6.793l-.578-1.727a.48.48 0 0 0-.28-.298.52.52 0 0 0-.426.006l-1.624.809-1.692-1.69.81-1.625a.515.515 0 0 0-.292-.705L.989 9.193V6.797l1.722-.572a.5.5 0 0 0 .292-.261l.03-.067a.52.52 0 0 0-.03-.377l-.81-1.624L3.891 2.2l1.625.81c.127.066.28.066.413.011.146-.06.25-.17.292-.304l.572-1.72H9.19l.578 1.726a.48.48 0 0 0 .28.298.5.5 0 0 0 .42-.006l1.625-.809 1.697 1.691-.809 1.624a.5.5 0 0 0-.012.407c.06.146.17.25.304.292l1.716.572v2.396l-1.716.59a.48.48 0 0 0-.298.28m-1.432 1.12-.006-.012a2.1 2.1 0 0 1-.04-1.719c.223-.542.675-.99 1.267-1.186l.625-.215v-.1l-.615-.205a2.1 2.1 0 0 1-1.282-1.197l-.004-.01a2.1 2.1 0 0 1 .061-1.728h.001l.293-.59-.066-.065-.608.303-.013.006a2.1 2.1 0 0 1-1.718.04 2.08 2.08 0 0 1-1.19-1.276l-.21-.628h-.09l-.206.62a2.1 2.1 0 0 1-1.198 1.282l-.01.004a2.1 2.1 0 0 1-1.741-.065l-.585-.291-.069.068.302.606.006.013c.221.463.294 1.068.084 1.627l-.019.05-.052.115c-.244.54-.705.94-1.244 1.12h-.001l-.626.208v.087l.62.205c.62.202 1.062.667 1.283 1.197l.004.01c.229.56.202 1.182-.049 1.708l-.006.012-.302.606.063.063.607-.303.013-.006a2.12 2.12 0 0 1 1.724-.04c.545.225.994.68 1.189 1.276l.21.628h.091l.206-.62a2.1 2.1 0 0 1 1.197-1.282l.01-.004a2.12 2.12 0 0 1 1.707.048l.013.007.608.303.066-.066z"/></svg>