<svg xmlns="http://www.w3.org/2000/svg" fill="none" viewBox="0 0 12 12"><path fill="#0A0B0D" d="m9.763 7.268 1.226-.421V5.135l-1.226-.408a.36.36 0 0 1-.217-.209.36.36 0 0 1 .009-.29l.578-1.16L8.92 1.86l-1.16.577a.36.36 0 0 1-.3.005.35.35 0 0 1-.2-.213L6.847.995H5.135l-.409 1.23a.36.36 0 0 1-.208.217.35.35 0 0 1-.296-.009l-1.16-.578-1.213 1.212.578 1.16a.37.37 0 0 1 .022.27l-.022.047a.35.35 0 0 1-.208.187l-1.23.408v1.712l1.23.408c.095.03.174.105.217.209a.37.37 0 0 1-.009.295l-.578 1.16 1.208 1.208 1.16-.578a.37.37 0 0 1 .305-.004c.096.039.17.117.2.212l.413 1.234h1.712l.409-1.23a.37.37 0 0 1 .504-.209l1.16.58 1.213-1.209-.578-1.16a.36.36 0 0 1-.005-.3.35.35 0 0 1 .213-.199M6.74 5.308l1.25.687-1.25.688-.75 1.312-.69-1.312-1.31-.688 1.31-.687.688-1.313z"/></svg>