<svg xmlns="http://www.w3.org/2000/svg" fill="none" viewBox="0 0 24 24"><path fill="#0A0B0D" d="m19.538 14.54 2.45-.842v-3.423l-2.45-.817a.7.7 0 0 1-.435-.417.7.7 0 0 1 .017-.582l1.156-2.32-2.425-2.415-2.32 1.156a.72.72 0 0 1-.6.008.7.7 0 0 1-.4-.425l-.826-2.468h-3.424l-.817 2.459a.71.71 0 0 1-.417.434.7.7 0 0 1-.591-.017L6.135 3.715 3.71 6.14l1.156 2.32c.087.183.095.4.043.539l-.043.095a.7.7 0 0 1-.417.374l-2.46.817v3.423l2.46.816a.71.71 0 0 1 .434.418.74.74 0 0 1-.017.59l-1.156 2.32 2.416 2.415 2.32-1.155a.74.74 0 0 1 .61-.009.7.7 0 0 1 .4.426l.825 2.467h3.424l.818-2.459a.71.71 0 0 1 .417-.434.74.74 0 0 1 .59.017l2.321 1.156 2.425-2.415-1.155-2.32a.72.72 0 0 1-.01-.6.7.7 0 0 1 .427-.4m-6.174-3.92 2.5 1.375-2.5 1.375-1.5 2.625-1.375-2.625-2.625-1.375 2.625-1.375 1.375-2.625z"/></svg>