<svg xmlns="http://www.w3.org/2000/svg" fill="none" viewBox="0 0 16 16"><path fill="#0A0B0D" d="m13.273 9.777 1.716-.59V6.791l-1.716-.572a.5.5 0 0 1-.304-.292.5.5 0 0 1 .012-.407l.81-1.624-1.698-1.69-1.625.808a.5.5 0 0 1-.42.006.48.48 0 0 1-.28-.298L9.19.995H6.793l-.572 1.721a.5.5 0 0 1-.292.304.5.5 0 0 1-.413-.012L3.89 2.2 2.193 3.896l.81 1.624a.52.52 0 0 1 .03.377l-.03.067a.5.5 0 0 1-.292.261l-1.722.572v2.396l1.722.572a.515.515 0 0 1 .292.705l-.81 1.624 1.692 1.69 1.624-.808a.52.52 0 0 1 .426-.006.48.48 0 0 1 .28.298l.578 1.727H9.19l.572-1.72a.515.515 0 0 1 .706-.292l1.625.808 1.697-1.69-.809-1.625a.5.5 0 0 1-.006-.42.48.48 0 0 1 .298-.279M8.926 7.136l1.563.86-1.563.859-.937 1.64-.86-1.64-1.64-.86 1.64-.86.86-1.64z"/></svg>