<svg xmlns="http://www.w3.org/2000/svg" fill="none" viewBox="0 0 24 24"><path fill="#0A0B0D" d="M7.989 4.995c0 .463-.105.902-.293 1.294l1.535 1.535a5 5 0 0 1 2.758-.829 4.98 4.98 0 0 1 3.322 1.264l.97-.97a3 3 0 1 1 1.414 1.414L16.52 9.878c.3.643.469 1.36.469 2.117 0 1.02-.305 1.967-.829 2.758l1.535 1.535a3 3 0 1 1-1.414 1.414l-1.535-1.535a5 5 0 0 1-2.757.828 4.98 4.98 0 0 1-3.438-1.369l-.678.542a3.002 3.002 0 0 1-2.884 3.827 3 3 0 1 1 1.72-5.457l.691-.553a5 5 0 0 1-.411-1.99c0-1.019.305-1.967.828-2.757L6.282 7.703A3 3 0 1 1 7.99 4.995m4 10a3 3 0 1 0 0-6 3 3 0 0 0 0 6"/></svg>