<svg xmlns="http://www.w3.org/2000/svg" fill="none" viewBox="0 0 12 12"><path fill="#0A0B0D" d="M9.807 2.457a9 9 0 0 0-2.27-.712 6 6 0 0 0-.29.603 8.3 8.3 0 0 0-2.519 0 6 6 0 0 0-.29-.603 9 9 0 0 0-2.272.714C.73 4.625.341 6.738.536 8.82a9.1 9.1 0 0 0 2.783 1.424 7 7 0 0 0 .596-.98 6 6 0 0 1-.939-.457q.119-.088.23-.176a6.43 6.43 0 0 0 5.565 0q.113.094.23.176-.45.271-.94.458.257.515.596.98a9 9 0 0 0 2.785-1.425c.228-2.415-.39-4.508-1.635-6.364M4.16 7.54c-.542 0-.99-.502-.99-1.12 0-.617.432-1.123.989-1.123s1 .506.991 1.123c-.01.618-.437 1.12-.99 1.12m3.655 0c-.543 0-.99-.502-.99-1.12 0-.617.433-1.123.99-1.123s.998.506.989 1.123c-.01.618-.436 1.12-.989 1.12"/></svg>