<svg xmlns="http://www.w3.org/2000/svg" fill="none" viewBox="0 0 24 24"><path fill="#0A0B0D" d="M19.625 4.919a18 18 0 0 0-4.539-1.424q-.321.587-.581 1.205a16.6 16.6 0 0 0-5.037 0 13 13 0 0 0-.582-1.205 18 18 0 0 0-4.542 1.427C1.472 9.255.693 13.481 1.082 17.646a18.2 18.2 0 0 0 5.567 2.85q.677-.93 1.192-1.96a12 12 0 0 1-1.877-.915q.236-.176.46-.353a12.9 12.9 0 0 0 5.565 1.268c1.924 0 3.824-.433 5.565-1.268q.225.19.46.353-.901.542-1.881.916.514 1.03 1.192 1.958a18.1 18.1 0 0 0 5.57-2.847c.457-4.83-.78-9.017-3.27-12.73M8.335 15.084c-1.086 0-1.982-1.003-1.982-2.238s.865-2.248 1.978-2.248 2.002 1.013 1.983 2.247c-.02 1.236-.874 2.24-1.98 2.24m7.308 0c-1.086 0-1.98-1.003-1.98-2.238s.866-2.248 1.98-2.248c1.115 0 1.997 1.013 1.978 2.247-.019 1.236-.872 2.24-1.978 2.24"/></svg>