<svg xmlns="http://www.w3.org/2000/svg" fill="none" viewBox="0 0 16 16"><path fill="#0A0B0D" d="M13.195 3.17a12.2 12.2 0 0 0-3.094-.97q-.22.4-.397.821a11.3 11.3 0 0 0-3.434 0 9 9 0 0 0-.397-.821c-1.069.186-2.11.513-3.097.973C.818 6.127.287 9.008.552 11.848a12.4 12.4 0 0 0 3.796 1.943q.462-.634.813-1.337a8 8 0 0 1-1.28-.623q.16-.12.314-.24a8.77 8.77 0 0 0 7.588 0q.155.129.314.24a8 8 0 0 1-1.283.624q.352.703.813 1.336a12.3 12.3 0 0 0 3.798-1.942c.311-3.293-.532-6.148-2.23-8.679m-7.698 6.931c-.74 0-1.35-.684-1.35-1.526s.589-1.533 1.348-1.533c.758 0 1.365.69 1.352 1.533-.013.842-.596 1.526-1.35 1.526m4.983 0c-.74 0-1.35-.684-1.35-1.526s.59-1.533 1.35-1.533 1.362.69 1.349 1.533c-.013.842-.595 1.526-1.349 1.526"/></svg>