<svg xmlns="http://www.w3.org/2000/svg" fill="none" viewBox="0 0 12 12"><path fill="#0A0B0D" d="M6.989.995 6.33 2.774a4.98 4.98 0 0 1-2.216 2.655l-1.126.54 1.126.748A4.98 4.98 0 0 1 6.33 9.372l.636 1.623.022-.06.021.06.637-1.623a4.98 4.98 0 0 1 2.215-2.655l1.127-.747-1.127-.541a4.98 4.98 0 0 1-2.215-2.655zm-.052 3.262a6.5 6.5 0 0 0 1.597 1.8c-.388.28-1.268 1.16-1.597 1.833-.329-.672-1.21-1.553-1.597-1.833a6.5 6.5 0 0 0 1.597-1.8M3.093 1.303l-.104-.23-.104.23A3.33 3.33 0 0 1 1.219 2.97l-.23.104.23.104a3.33 3.33 0 0 1 1.666 1.666l.104.23.104-.23a3.33 3.33 0 0 1 1.666-1.666l.23-.104-.23-.104a3.33 3.33 0 0 1-1.666-1.666"/></svg>