<svg xmlns="http://www.w3.org/2000/svg" fill="none" viewBox="0 0 24 24"><path fill="#0A0B0D" d="m5.989 1.995-.179.395a6.84 6.84 0 0 1-2.39 2.846 7 7 0 0 1-1.036.58l-.395.18.395.177a7 7 0 0 1 1.036.581A6.86 6.86 0 0 1 5.81 9.6l.179.395.178-.395a6.85 6.85 0 0 1 3.427-3.427l.395-.178-.395-.178A6.85 6.85 0 0 1 6.167 2.39zm0 2.595c.41.524.881.996 1.405 1.405-.524.41-.996.881-1.405 1.405a8.2 8.2 0 0 0-1.405-1.405A8.2 8.2 0 0 0 5.989 4.59m9.235.683a13.4 13.4 0 0 0 4.768 5.553q.42.278.861.528l1.136.641-1.136.641a14 14 0 0 0-1.08.678 13.4 13.4 0 0 0-4.71 5.767l-.012.026q-.133.317-.25.64l-.812 2.248-.812-2.248q-.117-.323-.25-.64l-.012-.026a13.4 13.4 0 0 0-4.93-5.916q-.42-.279-.86-.529l-1.136-.64 1.135-.642a14 14 0 0 0 1.08-.678 13.4 13.4 0 0 0 4.711-5.767l.011-.026q.135-.316.25-.64l.813-2.248.812 2.248q.117.324.25.64l.011.026q.078.183.162.364m-1.235 11.472a15.45 15.45 0 0 1 4.193-4.75 15.45 15.45 0 0 1-4.193-4.75 15.45 15.45 0 0 1-4.194 4.75 15.45 15.45 0 0 1 4.194 4.75M5.81 14.39a7 7 0 0 1-.58 1.036 6.86 6.86 0 0 1-2.846 2.39l-.395.18.395.177a7 7 0 0 1 1.036.581A6.86 6.86 0 0 1 5.81 21.6l.179.395.178-.395a7 7 0 0 1 .58-1.036 6.86 6.86 0 0 1 2.847-2.39l.395-.179-.395-.178a7 7 0 0 1-1.036-.581 6.86 6.86 0 0 1-2.39-2.846l-.18-.395zm-1.226 3.605a8.2 8.2 0 0 0 1.405-1.405c.41.524.881.996 1.405 1.405A8.2 8.2 0 0 0 5.989 19.4a8.2 8.2 0 0 0-1.405-1.405"/></svg>