<svg xmlns="http://www.w3.org/2000/svg" fill="none" viewBox="0 0 16 16"><path fill="#0A0B0D" d="M13.33 6.83q.776.651 1.659 1.165a11.8 11.8 0 0 0-4.4 4.503 11.6 11.6 0 0 0-.778 1.737l-.267.76-.267-.76-.078-.215a11.6 11.6 0 0 0-.699-1.522 11.8 11.8 0 0 0-4.4-4.503 11.8 11.8 0 0 0 4.4-4.503 11.6 11.6 0 0 0 .777-1.737l.267-.76.267.76a11.4 11.4 0 0 0 .777 1.737 11.8 11.8 0 0 0 2.743 3.338M3.711.995l.121.269a4.67 4.67 0 0 0 2.332 2.332l.27.121-.27.122A4.67 4.67 0 0 0 3.832 6.17l-.121.269-.121-.27A4.67 4.67 0 0 0 1.257 3.84L.99 3.717l.268-.121A4.67 4.67 0 0 0 3.59 1.264zm0 8.555.121.27a4.67 4.67 0 0 0 2.332 2.332l.27.12-.27.122a4.67 4.67 0 0 0-2.332 2.332l-.121.27-.121-.27a4.67 4.67 0 0 0-2.333-2.332l-.268-.121.268-.121A4.67 4.67 0 0 0 3.59 9.819z"/></svg>