<svg xmlns="http://www.w3.org/2000/svg" fill="none" viewBox="0 0 24 24"><path fill="#0A0B0D" d="m6 1.995.178.395a6.86 6.86 0 0 0 3.427 3.427l.395.178-.395.178A6.86 6.86 0 0 0 6.178 9.6L6 9.995 5.822 9.6a6.86 6.86 0 0 0-3.427-3.427L2 5.995l.395-.178A6.86 6.86 0 0 0 5.822 2.39zm8 0-.812 2.248a13 13 0 0 1-.423 1.03 13.4 13.4 0 0 1-4.55 5.403q-.52.363-1.08.678L6 11.995l1.136.641q.558.316 1.08.678a13.4 13.4 0 0 1 4.721 5.793q.135.317.25.64L14 21.996l.812-2.248a13 13 0 0 1 .423-1.03 13.4 13.4 0 0 1 4.55-5.403q.52-.363 1.08-.678l1.135-.64-1.136-.642q-.558-.315-1.08-.678a13.4 13.4 0 0 1-4.721-5.793q-.135-.316-.25-.64zM6.178 14.39 6 13.995l-.178.395a6.86 6.86 0 0 1-3.427 3.427L2 17.995l.395.178A6.86 6.86 0 0 1 5.822 21.6l.178.395.178-.395a6.86 6.86 0 0 1 3.427-3.427l.395-.178-.395-.178a6.86 6.86 0 0 1-3.427-3.427"/></svg>