<svg xmlns="http://www.w3.org/2000/svg" fill="none" viewBox="0 0 24 24"><path fill="#0A0B0D" d="m18.853 10.476 2.81-2.905a1.11 1.11 0 0 0 .103-1.452L18.02 2.384c-.416-.519-.936-.519-1.457 0L13.338 5.6l5.203 5.188zM2.401 17.995a1 1 0 0 1 0-1.445l4.534-4.542-4.637-4.645a1 1 0 0 1 0-1.445l3.607-3.613c.412-.413 1.03-.413 1.34 0l4.636 4.439 5.153 5.16-7.935 7.95-1.546 1.754c-.412.516-1.03.516-1.442 0zm5.232.492 6.57-6.582-3.727-3.734L6.59 4.452 4.407 6.64l5.358 5.368-5.245 5.255 2.256 2.197zm14.029-2.068-2.81-2.905-.311-.311-5.203 5.187 3.225 3.216c.52.519 1.041.519 1.457 0l3.746-3.735a1.11 1.11 0 0 0-.104-1.452"/></svg>