<svg xmlns="http://www.w3.org/2000/svg" fill="none" viewBox="0 0 12 12"><path fill="#0A0B0D" d="m9.42 5.236 1.406-1.453a.554.554 0 0 0 .051-.726L9.005 1.19c-.208-.26-.468-.26-.728 0L6.663 2.798 9.265 5.39zM4.544 9.924 8.51 5.95 5.935 3.37 3.616 1.15c-.154-.206-.463-.206-.67 0L1.144 2.956a.5.5 0 0 0 0 .723l2.319 2.323-2.267 2.27a.5.5 0 0 0 0 .723l1.855 1.807c.206.258.515.258.721 0zm6.282-1.717L9.42 6.755l-.156-.156-2.602 2.594L8.276 10.8c.26.259.52.259.728 0l1.874-1.868a.554.554 0 0 0-.053-.726"/></svg>