<svg xmlns="http://www.w3.org/2000/svg" fill="none" viewBox="0 0 16 16"><path fill="#0A0B0D" d="m14.76 4.899-1.966 2.033-.219.218-3.642-3.631 2.258-2.251c.364-.364.728-.364 1.02 0l2.622 2.614a.776.776 0 0 1-.073 1.017m-1.966 4.159 1.966 2.034c.292.29.292.726.073 1.016l-2.622 2.615c-.292.363-.656.363-1.02 0l-2.258-2.251 3.642-3.632zM1.205 3.741 3.73 1.212c.288-.29.721-.29.937 0l3.246 3.107 3.607 3.613-5.554 5.564-1.082 1.228c-.289.361-.721.361-1.01 0l-2.597-2.529a.7.7 0 0 1 0-1.011l3.174-3.18-3.246-3.251a.7.7 0 0 1 0-1.012m3.007-.889L2.82 4.247l3.75 3.757-3.67 3.678 1.434 1.397.537-.61 4.53-4.537-2.537-2.541z"/></svg>