<svg xmlns="http://www.w3.org/2000/svg" fill="none" viewBox="0 0 24 24"><path fill="#0A0B0D" d="m18.853 10.476 2.81-2.905a1.11 1.11 0 0 0 .103-1.452L18.02 2.384c-.416-.519-.936-.519-1.457 0L13.338 5.6l5.203 5.188zM9.1 19.853l7.934-7.948-5.153-5.161-4.637-4.44c-.309-.412-.927-.412-1.34 0L2.299 5.919a1 1 0 0 0 0 1.445l4.637 4.645-4.534 4.542a1 1 0 0 0 0 1.445l3.71 3.613c.412.516 1.03.516 1.442 0zm12.562-3.434-2.81-2.905-.311-.311-5.203 5.187 3.225 3.216c.52.519 1.041.519 1.457 0l3.746-3.735a1.11 1.11 0 0 0-.104-1.452"/></svg>