<svg xmlns="http://www.w3.org/2000/svg" fill="none" viewBox="0 0 12 12"><path fill="#0A0B0D" d="M7.237 6.745a1.28 1.28 0 0 1-1.25-1h2.5c-.128.572-.639 1-1.25 1M8.989 4.12c0 .483-.28.875-.625.875s-.625-.392-.625-.875.28-.875.625-.875.625.392.625.875m-2.875.875c.345 0 .625-.392.625-.875s-.28-.875-.625-.875-.625.392-.625.875.28.875.625.875"/><path fill="#0A0B0D" d="M3.489 4.745a3.75 3.75 0 1 1 7.5 0 3.75 3.75 0 0 1-7.5 0m3.75 2.55a2.55 2.55 0 1 0 0-5.1 2.55 2.55 0 0 0 0 5.1m-4.25-1.8a1 1 0 1 1-2 0 1 1 0 0 1 2 0m1.75 3.625a1.875 1.875 0 1 1-3.75 0 1.875 1.875 0 0 1 3.75 0m-1.2 0a.675.675 0 1 0-1.35 0 .675.675 0 0 0 1.35 0"/></svg>