<svg xmlns="http://www.w3.org/2000/svg" fill="none" viewBox="0 0 16 16"><path fill="#0A0B0D" d="M9.736 9.045c-.855 0-1.57-.599-1.75-1.4h3.5a1.79 1.79 0 0 1-1.75 1.4m2.453-3.675c0 .677-.392 1.225-.875 1.225s-.875-.548-.875-1.225c0-.676.392-1.225.875-1.225s.875.549.875 1.225M8.164 6.595c.483 0 .875-.548.875-1.225 0-.676-.392-1.225-.875-1.225s-.875.549-.875 1.225c0 .677.392 1.225.875 1.225"/><path fill="#0A0B0D" d="M4.489 6.245a5.25 5.25 0 1 1 10.5 0 5.25 5.25 0 0 1-10.5 0m5.25 3.65a3.65 3.65 0 1 0 0-7.3 3.65 3.65 0 0 0 0 7.3m-5.75-2.4a1.5 1.5 0 1 1-3 0 1.5 1.5 0 0 1 3 0m2.25 4.875a2.625 2.625 0 1 1-5.25 0 2.625 2.625 0 0 1 5.25 0m-1.6 0a1.025 1.025 0 1 0-2.05 0 1.025 1.025 0 0 0 2.05 0"/></svg>