<svg xmlns="http://www.w3.org/2000/svg" fill="none" viewBox="0 0 24 24"><path fill="#0A0B0D" d="M14.489 1.995a7.5 7.5 0 1 0 0 15 7.5 7.5 0 0 0 0-15m-.004 11.5a2.56 2.56 0 0 1-2.5-2h5a2.56 2.56 0 0 1-2.5 2m3.504-5.25c0 .967-.56 1.75-1.25 1.75s-1.25-.783-1.25-1.75c0-.966.56-1.75 1.25-1.75s1.25.784 1.25 1.75m-5.75 1.75c-.69 0-1.25-.783-1.25-1.75 0-.966.56-1.75 1.25-1.75s1.25.784 1.25 1.75c0 .967-.56 1.75-1.25 1.75m-6.25 1a2 2 0 1 1-4 0 2 2 0 0 1 4 0m-.25 11a3.75 3.75 0 1 0 0-7.5 3.75 3.75 0 0 0 0 7.5"/></svg>