<svg xmlns="http://www.w3.org/2000/svg" fill="none" viewBox="0 0 12 12"><path fill="#0A0B0D" d="M4.489.995h-1.2a2.3 2.3 0 0 0-2.3 2.3v1.2h1.6v-1.2a.7.7 0 0 1 .7-.7h1.2zm-3.5 7.7v-1.2h1.6v1.2a.7.7 0 0 0 .7.7h1.2v1.6h-1.2a2.3 2.3 0 0 1-2.3-2.3m8.4-1.2v1.2a.7.7 0 0 1-.7.7h-1.2v1.6h1.2a2.3 2.3 0 0 0 2.3-2.3v-1.2zm1.6-4.2v1.2h-1.6v-1.2a.7.7 0 0 0-.7-.7h-1.2v-1.6h1.2a2.3 2.3 0 0 1 2.3 2.3m-5 5.7c-1.07 0-1.944-.885-2-2h4c-.056 1.115-.93 2-2 2"/><path fill="#0A0B0D" d="M4.989 4.745c0 .69-.448 1.25-1 1.25-.553 0-1-.56-1-1.25s.447-1.25 1-1.25 1 .56 1 1.25m3 1.25c.552 0 1-.56 1-1.25s-.448-1.25-1-1.25c-.553 0-1 .56-1 1.25s.447 1.25 1 1.25"/></svg>