<svg xmlns="http://www.w3.org/2000/svg" fill="none" viewBox="0 0 16 16"><path fill="#0A0B0D" d="M5.989.995h-1.8a3.2 3.2 0 0 0-3.2 3.2v1.8h2.4v-1.8a.8.8 0 0 1 .8-.8h1.8zm-5 10.8v-1.8h2.4v1.8a.8.8 0 0 0 .8.8h1.8v2.4h-1.8a3.2 3.2 0 0 1-3.2-3.2m11.6-1.8v1.8a.8.8 0 0 1-.8.8h-1.8v2.4h1.8a3.2 3.2 0 0 0 3.2-3.2v-1.8zm2.4-5.8v1.8h-2.4v-1.8a.8.8 0 0 0-.8-.8h-1.8v-2.4h1.8a3.2 3.2 0 0 1 3.2 3.2m-7 7.3c-1.338 0-2.43-1.107-2.5-2.5h5c-.07 1.393-1.163 2.5-2.5 2.5m3.5-5.25c0 .967-.56 1.75-1.25 1.75s-1.25-.783-1.25-1.75c0-.966.56-1.75 1.25-1.75s1.25.784 1.25 1.75m-5.75 1.75c.69 0 1.25-.783 1.25-1.75 0-.966-.56-1.75-1.25-1.75s-1.25.784-1.25 1.75c0 .967.56 1.75 1.25 1.75"/></svg>