<svg xmlns="http://www.w3.org/2000/svg" fill="none" viewBox="0 0 24 24"><path fill="#0A0B0D" d="M12.063 4.523c-3.725 0-6.74 3.056-6.74 6.831 0 .836-.668 1.514-1.492 1.514a1.503 1.503 0 0 1-1.493-1.514c0-5.447 4.351-9.859 9.725-9.859 1.677 0 3.257.43 4.638 1.195.723.401.99 1.321.593 2.054a1.483 1.483 0 0 1-2.026.602 6.6 6.6 0 0 0-3.205-.823m8.281 1.666a1.48 1.48 0 0 0-2.07-.425 1.526 1.526 0 0 0-.419 2.098c.978 1.495 1.413 3.443.98 5.462a1.514 1.514 0 0 0 1.142 1.8 1.49 1.49 0 0 0 1.776-1.158c.609-2.84.002-5.62-1.409-7.777"/><path fill="#0A0B0D" d="M14.95 11.829c0-2.668-3.065-3.987-4.84-2.352a1.48 1.48 0 0 1-2.109-.101 1.53 1.53 0 0 1 .1-2.139c3.892-3.587 9.834-.428 9.834 4.592 0 3.841-1.492 7.512-4.099 10.211a1.48 1.48 0 0 1-2.111.023 1.53 1.53 0 0 1-.023-2.14 11.67 11.67 0 0 0 3.247-8.094"/><path fill="#0A0B0D" d="M12.062 10.123c.825 0 1.493.678 1.493 1.514 0 5.206-3.319 8.541-7.025 10.46a1.484 1.484 0 0 1-2.009-.659 1.524 1.524 0 0 1 .65-2.037c3.154-1.633 5.398-4.127 5.398-7.764 0-.836.669-1.514 1.493-1.514"/><path fill="#0A0B0D" d="M9.176 11.637c0-.836-.669-1.514-1.493-1.514-.817 0-1.48.665-1.493 1.49l-.003.036a2 2 0 0 1-.035.238 3.6 3.6 0 0 1-.323.925c-.363.718-1.14 1.708-2.896 2.413a1.52 1.52 0 0 0-.84 1.964 1.487 1.487 0 0 0 1.939.85c2.444-.98 3.767-2.488 4.454-3.846a6.7 6.7 0 0 0 .596-1.719 5 5 0 0 0 .08-.558c0-.006.016-.273.014-.279"/></svg>