<svg xmlns="http://www.w3.org/2000/svg" fill="none" viewBox="0 0 16 16"><path fill="#0A0B0D" d="M8.039 3.015a4.55 4.55 0 0 0-4.547 4.553 1.01 1.01 0 1 1-2.018 0A6.566 6.566 0 0 1 8.04.995c1.132 0 2.199.286 3.13.797a1.01 1.01 0 0 1-.967 1.772 4.5 4.5 0 0 0-2.163-.549m5.589 1.109a1.008 1.008 0 1 0-1.682 1.116c.66.997.953 2.295.662 3.64a1.01 1.01 0 0 0 1.97.43 6.77 6.77 0 0 0-.95-5.186"/><path fill="#0A0B0D" d="M9.986 7.884c0-1.777-2.068-2.656-3.264-1.566a1.01 1.01 0 0 1-1.425-.068 1.01 1.01 0 0 1 .068-1.427c2.627-2.392 6.638-.285 6.638 3.061a9.75 9.75 0 0 1-2.767 6.808 1.01 1.01 0 0 1-1.426.015 1.01 1.01 0 0 1-.015-1.428 7.73 7.73 0 0 0 2.19-5.395"/><path fill="#0A0B0D" d="M8.039 6.746a1.01 1.01 0 0 1 1.008 1.01c0 3.47-2.24 5.694-4.741 6.974a1.01 1.01 0 0 1-.918-1.799c2.128-1.088 3.642-2.75 3.642-5.175 0-.557.452-1.01 1.009-1.01"/><path fill="#0A0B0D" d="M6.028 8.315a4 4 0 0 0 .054-.372c.064-.73-.402-1.197-1-1.197-.597 0-.907.536-1.033 1.177-.03.148-.09.367-.218.616-.245.479-.77 1.138-1.954 1.608a1.01 1.01 0 0 0 .742 1.878c1.65-.654 2.543-1.659 3.007-2.564.227-.443.342-.846.402-1.146"/></svg>