<svg xmlns="http://www.w3.org/2000/svg" fill="none" viewBox="0 0 12 12"><path fill="#0A0B0D" d="M6.685.495S6.09.74 5.448 1.47c-.518.588-1.067 1.492-1.36 2.837l-.01.046q-.054.255-.096.532l-.007.051c-.065.455-.102.954-.102 1.5a2.2 2.2 0 0 1-.51-.597c-.482-.828-.267-1.722-.267-1.722q-.135.157-.256.316c-.346.455-.608.93-.79 1.408-1.047 2.768.6 5.655 4.098 5.655 2.128 0 4.09-1.404 4.09-3.75 0-1.525-.9-2.418-1.801-3.31C7.7 3.703 6.963 2.973 6.72 1.897A3.8 3.8 0 0 1 6.685.495m-1.612 5.94c0-1.618.356-2.709.757-3.43q.055.123.118.245c.402.778.986 1.38 1.465 1.859l.075.075c.996.993 1.55 1.546 1.55 2.561 0 1.51-1.237 2.55-2.89 2.55-1.683 0-2.645-.809-3.017-1.755a2.9 2.9 0 0 1-.18-1.318q.076.07.159.139l.59.486 1.373-1.321z"/></svg>