<svg xmlns="http://www.w3.org/2000/svg" fill="none" viewBox="0 0 16 16"><path fill="#0A0B0D" d="M8.93.495s-.79.312-1.651 1.279C6.568 2.57 5.81 3.813 5.41 5.69l-.012.057q-.071.343-.126.715l-.005.037a15 15 0 0 0-.141 2.095 3 3 0 0 1-.706-.841c-.632-1.121-.346-2.32-.346-2.32q-.168.195-.32.395a7.7 7.7 0 0 0-1.08 1.919c-1.446 3.784.78 7.747 5.53 7.747 2.878 0 5.534-1.915 5.534-5.113 0-2.08-1.22-3.298-2.439-4.515-1.008-1.007-2.016-2.014-2.333-3.508A5.2 5.2 0 0 1 8.931.495m-2.203 8.1c0-2.264.492-3.772 1.04-4.756q.087.2.185.391c.541 1.055 1.328 1.874 1.976 2.526l.11.112c1.339 1.345 2.1 2.11 2.1 3.514 0 2.094-1.7 3.513-3.933 3.513-2.279 0-3.593-1.104-4.103-2.412a4.1 4.1 0 0 1-.241-1.874q.115.11.243.216l1.055.877L6.727 9.18z"/></svg>