<svg xmlns="http://www.w3.org/2000/svg" fill="none" viewBox="0 0 24 24"><path fill="#0A0B0D" d="M9.385 9.495a4.25 4.25 0 1 0 0-8.5 4.25 4.25 0 0 0 0 8.5m0-2a2.25 2.25 0 1 1 0-4.5 2.25 2.25 0 0 1 0 4.5m8.383 13.5c-.675-5.675-4.171-10-8.383-10s-7.708 4.325-8.382 10q-.118.977-.118 2h17q0-1.023-.117-2m-14.75 0c.287-2.112 1.014-3.953 1.989-5.33 1.275-1.8 2.852-2.67 4.378-2.67s3.103.87 4.379 2.67c.975 1.378 1.702 3.218 1.988 5.33zm14.367-8.085 5.707-5.708-1.414-1.414-4.293 4.293-1.793-1.793-1.414 1.414z"/></svg>