<svg xmlns="http://www.w3.org/2000/svg" fill="none" viewBox="0 0 16 16"><path fill="#0A0B0D" d="M6.33 6.495a3 3 0 1 0 0-6 3 3 0 0 0 0 6m0-1.6a1.4 1.4 0 1 1 0-2.8 1.4 1.4 0 0 1 0 2.8m5.636 9c-.533-3.651-2.853-6.4-5.635-6.4s-5.102 2.749-5.635 6.4a11 11 0 0 0-.115 1.6h11.5q-.001-.823-.115-1.6m-9.65 0c.213-1.237.664-2.31 1.248-3.123.826-1.149 1.825-1.677 2.767-1.677.941 0 1.94.528 2.766 1.677.585.813 1.036 1.886 1.249 3.123zm9.014-4.768 4.066-4.066-1.13-1.131-2.935 2.934-1.184-1.184-1.132 1.13z"/></svg>