<svg xmlns="http://www.w3.org/2000/svg" fill="none" viewBox="0 0 12 12"><path fill="#0A0B0D" d="M4.652 4.745a2.125 2.125 0 1 0 0-4.25 2.125 2.125 0 0 0 0 4.25m0-1.2a.925.925 0 1 1 0-1.85.925.925 0 0 1 0 1.85m4.165 6.75c-.394-2.739-2.11-4.8-4.165-4.8S.88 7.556.487 10.295a8.4 8.4 0 0 0-.085 1.2h8.5q-.001-.616-.085-1.2m-7.116 0c.158-.931.492-1.738.925-2.349.611-.863 1.345-1.25 2.026-1.25s1.414.387 2.026 1.25c.432.61.766 1.418.924 2.35zm9.875-6.875-.849-.85-2.075 2.077-.826-.826-.849.848 1.675 1.675z"/></svg>