<svg xmlns="http://www.w3.org/2000/svg" fill="none" viewBox="0 0 16 16"><path fill="#0A0B0D" d="M10.195 4.658a4 4 0 0 0-1.406-.583v-2.08h-1.6v2.08a4 4 0 0 0-1.406.583L4.054 2.929l-1.13 1.132L4.65 5.789c-.278.42-.479.895-.582 1.406h-2.08v1.6h2.08c.103.51.304.986.583 1.406L2.923 11.93l1.131 1.13 1.729-1.728c.42.278.895.48 1.406.583v2.08h1.6v-2.08a4 4 0 0 0 1.406-.582l1.728 1.728 1.132-1.131-1.729-1.729a4 4 0 0 0 .583-1.406h2.08v-1.6h-2.08a4 4 0 0 0-.583-1.406l1.729-1.728-1.132-1.131zm.194 3.337a2.4 2.4 0 1 1-4.8 0 2.4 2.4 0 0 1 4.8 0"/></svg>