<svg xmlns="http://www.w3.org/2000/svg" fill="none" viewBox="0 0 16 16"><path fill="#0A0B0D" d="M10.02 4.549a4 4 0 0 0-1.031-.428V1.995h-2v2.126c-.367.095-.714.24-1.032.428L4.196 2.788 2.782 4.202l1.76 1.761a4 4 0 0 0-.427 1.032H1.989v2h2.126c.094.367.24.714.428 1.032l-1.761 1.761 1.414 1.414 1.76-1.76c.32.188.666.333 1.033.427v2.126h2V11.87c.367-.094.713-.24 1.032-.428l1.76 1.761 1.415-1.414-1.761-1.76q.284-.481.428-1.033h2.126v-2h-2.126a4 4 0 0 0-.428-1.032l1.761-1.76-1.414-1.415zm-.03 3.446a2 2 0 1 1-4 0 2 2 0 0 1 4 0"/></svg>