<svg xmlns="http://www.w3.org/2000/svg" fill="none" viewBox="0 0 24 24"><path fill="#0A0B0D" d="M17.743 8.008c.56.806.954 1.734 1.135 2.737h3.11v2.5h-3.11a7 7 0 0 1-1.135 2.737l2.2 2.2-1.767 1.768-2.2-2.2a7 7 0 0 1-2.737 1.134v3.111h-2.5v-3.111a7 7 0 0 1-2.737-1.134l-2.2 2.2-1.768-1.768 2.2-2.2A7 7 0 0 1 5.1 13.245H1.99v-2.5H5.1a7 7 0 0 1 1.134-2.737l-2.2-2.2L5.802 4.04l2.2 2.2a7 7 0 0 1 2.737-1.134v-3.11h2.5v3.11a7 7 0 0 1 2.736 1.135l2.2-2.2 1.769 1.767zm-5.754 8.487a4.5 4.5 0 1 0 0-9 4.5 4.5 0 0 0 0 9"/></svg>