<svg xmlns="http://www.w3.org/2000/svg" fill="none" viewBox="0 0 16 16"><path fill="#0A0B0D" d="m5.04 1.337.086-.282L3.27.995l.013.246c.01.17-.009.397-.03.61l-.038.359h-.208c-.607 0-1.48-.083-1.839-.135l-.26-.038.042 1.695.208.01c.13.005.286.014.454.022h.004c.438.024.965.052 1.36.052h.08q-.04.468-.066.95C1.575 5.514.489 6.96.489 8.399c0 .585.168 1.034.468 1.338.298.303.7.434 1.116.434.5 0 .99-.136 1.44-.338l.056.182.067.21 1.504-.462.582.959.147-.024c1.282-.207 2.17-.69 2.737-1.339.568-.65.794-1.445.794-2.241 0-1.27-.764-2.255-1.91-2.722.043-.13.084-.245.113-.313l.104-.244-.978-.248c.489-.058.95-.125 1.351-.202l.183-.034L8.25 1.66l-.273.069c-1.008.254-2.01.382-3.127.44l.053-.29q.014-.053.026-.109a7 7 0 0 1 .112-.434m-.4 2.43c.424-.024.86-.055 1.286-.094a4 4 0 0 1-.05.422h-.002c-.417 0-.854.046-1.274.128q.018-.23.04-.456m.488 5.36-.082.01-.075-.267c.736-.67 1.474-1.695 2.006-2.988.48.266.718.7.718 1.171 0 .463-.176.92-.575 1.293-.402.375-1.044.674-1.992.781M2.133 8.123c0-.238.104-.547.314-.872.14-.216.32-.43.533-.625.03.539.09 1.065.17 1.556-.304.166-.572.245-.772.245-.13 0-.173-.034-.19-.055-.025-.029-.055-.096-.055-.249m2.41-2.325c.25-.073.528-.131.832-.161a6 6 0 0 1-.775 1.25q-.05-.506-.057-1.089m8.467 7.64.538 1.557h1.94l-2.877-7.907h-1.886l-2.856 7.907h1.88l.528-1.557zm-2.163-1.68.778-2.287.8 2.287z"/></svg>