<svg xmlns="http://www.w3.org/2000/svg" fill="none" viewBox="0 0 24 24"><path fill="#0A0B0D" d="m5.597 1.994 2.274.07-.048.157a10 10 0 0 0-.172.645l-.04.163a18 18 0 0 0-.124.682c1.793-.078 3.39-.265 4.999-.66l.147-.035.018 2.035-.1.019c-1.463.27-3.463.464-5.32.557q-.058.552-.098 1.119a10.4 10.4 0 0 1 2.328-.235c.057-.297.1-.625.11-.827l.006-.15 2.16.534-.06.135a10 10 0 0 0-.24.658q.33.117.63.269c1.399.71 2.291 1.984 2.291 3.58 0 1.121-.328 2.23-1.14 3.134-.81.902-2.093 1.587-3.981 1.884l-.078.012-1.17-1.873.194-.021c1.456-.16 2.467-.61 3.112-1.194.644-.583.93-1.306.93-2.035 0-.833-.474-1.587-1.402-1.993-.715 1.763-1.703 3.188-2.709 4.177a9 9 0 0 1-.431.397l.019.069q.145.515.303 1.003l.04.121-1.986.594-.037-.112q-.075-.232-.151-.494-.134.065-.272.123c-.641.275-1.332.455-2.026.455-.58 0-1.124-.177-1.524-.571-.4-.395-.641-.994-.641-1.808 0-2.036 1.621-4.121 3.749-5.168l.006-.11c.03-.543.072-1.087.12-1.612l-.352.001c-.588 0-1.376-.04-2.035-.074h-.003L2.21 5.58l-.112-.005-.053-2.037.14.02c.546.077 1.868.2 2.792.2q.254 0 .503-.002l.031-.278.022-.192m1.533 5.347c.002.822.055 1.562.143 2.241a9.1 9.1 0 0 0 1.66-2.553 7.2 7.2 0 0 0-1.803.312m-3.112 2.16c-.327.493-.505.982-.505 1.383 0 .242.048.399.132.495.081.093.217.154.45.154.38 0 .868-.156 1.391-.456a22 22 0 0 1-.294-2.803 5.1 5.1 0 0 0-1.174 1.228m7.783 11.202 4.135-11.12h2.531l4.167 11.12h-2.457l-.809-2.27h-4.408l-.793 2.27zm5.334-8.485-1.463 4.176h2.967z"/></svg>