<svg xmlns="http://www.w3.org/2000/svg" fill="none" viewBox="0 0 12 12"><path fill="#0A0B0D" d="M1.953 4.01A4.02 4.02 0 0 1 5.95.494h.076a4.02 4.02 0 0 1 3.998 3.515l.705 5.65c.11.883-.9 1.464-1.614.93a1.014 1.014 0 0 0-1.218 0l-.65.486a2.1 2.1 0 0 1-2.518 0l-.65-.487c-.36-.27-.858-.27-1.219 0-.714.535-1.724-.046-1.614-.929zM5.87 6.245c.829 0 1.5-.336 1.5-.75h-3c0 .414.672.75 1.5.75m-.5-2c0-.414-.224-.75-.5-.75s-.5.336-.5.75.224.75.5.75.5-.336.5-.75m1.5.75c.276 0 .5-.336.5-.75s-.224-.75-.5-.75-.5.336-.5.75.224.75.5.75"/></svg>