<svg xmlns="http://www.w3.org/2000/svg" fill="none" viewBox="0 0 16 16"><path fill="#0A0B0D" d="M2.46 5.313A5.51 5.51 0 0 1 7.934.495h.111a5.51 5.51 0 0 1 5.473 4.818l.96 7.664c.152 1.212-1.23 2.012-2.21 1.28a1.39 1.39 0 0 0-1.663 0l-.892.666a2.88 2.88 0 0 1-3.447 0l-.891-.665a1.39 1.39 0 0 0-1.664 0c-.98.732-2.362-.069-2.21-1.28zm5.41 4.182c1.105 0 2-.448 2-1h-4c0 .552.896 1 2 1m2-3.25c0-.69-.335-1.25-.75-1.25-.414 0-.75.56-.75 1.25s.336 1.25.75 1.25c.415 0 .75-.56.75-1.25m-3.25 1.25c.415 0 .75-.56.75-1.25s-.335-1.25-.75-1.25c-.414 0-.75.56-.75 1.25s.336 1.25.75 1.25"/></svg>