<svg xmlns="http://www.w3.org/2000/svg" fill="none" viewBox="0 0 24 24"><path fill="#0A0B0D" d="M3.916 8.024C4.418 4.009 7.846.995 11.913.995h.152c4.066 0 7.495 3.014 7.996 7.029l1.411 11.301c.22 1.766-1.8 2.929-3.228 1.858a2.03 2.03 0 0 0-2.437 0l-1.3.974a4.2 4.2 0 0 1-5.036 0l-1.3-.974a2.03 2.03 0 0 0-2.437 0c-1.429 1.07-3.45-.092-3.229-1.858zM9.87 9.995c.553 0 1-.672 1-1.5s-.447-1.5-1-1.5-1 .672-1 1.5.448 1.5 1 1.5m5-1.5c0-.828-.447-1.5-1-1.5s-1 .672-1 1.5.448 1.5 1 1.5c.553 0 1-.672 1-1.5m-3 4c1.657 0 3-.671 3-1.5h-6c0 .829 1.344 1.5 3 1.5"/></svg>