<svg xmlns="http://www.w3.org/2000/svg" fill="none" viewBox="0 0 24 24"><path fill="#0A0B0D" d="M9.88 14.221v1.317h1.086v-3.769H8.243v1.076H9.65c0 .814-.382 1.688-1.317 1.688-.844 0-1.457-.734-1.457-2.261v-.523c0-1.528.633-2.261 1.477-2.261.704 0 1.015.502 1.096 1.045h1.467c-.2-1.347-1.095-2.221-2.543-2.221-1.9 0-2.884 1.517-2.884 3.688 0 2.141.894 3.679 2.603 3.679 1.075 0 1.568-.643 1.729-1.458zm1.807-5.759h1.346v7.076h-1.346zm2.128 0h4.674v1.166h-3.327v1.85h3.035v1.165h-3.035v2.895h-1.347z"/><path fill="#0A0B0D" d="M1.989 21.995v-20h20v20zm2-18v16h16v-16z"/></svg>