<svg xmlns="http://www.w3.org/2000/svg" fill="none" viewBox="0 0 16 16"><path fill="#0A0B0D" d="M14.989.995h-14v14h14zm-2.5 4.554v.808h-2.303v1.28h2.1v.807h-2.1v2.004h-.933V5.549zm-4.71 0h.933v4.899H7.78zM6.53 9.536h-.041c-.111.564-.452 1.01-1.197 1.01-1.183 0-1.802-1.065-1.802-2.547 0-1.503.682-2.554 1.997-2.554 1.002 0 1.621.605 1.76 1.538H6.23c-.055-.376-.271-.724-.758-.724-.584 0-1.023.508-1.023 1.566v.362c0 1.057.425 1.565 1.01 1.565.646 0 .91-.605.91-1.169h-.974V7.84h1.886v2.609H6.53z"/></svg>