<svg xmlns="http://www.w3.org/2000/svg" fill="none" viewBox="0 0 12 12"><path fill="#0A0B0D" fill-rule="evenodd" d="M6.004 1.083C3.237 1.083 1 3.337 1 6.125a5.04 5.04 0 0 0 3.422 4.782c.248.05.34-.108.34-.242 0-.117-.009-.517-.009-.935-1.392.3-1.682-.6-1.682-.6-.223-.585-.555-.735-.555-.735-.456-.309.033-.309.033-.309.506.033.77.518.77.518.448.767 1.169.55 1.459.417.041-.326.174-.551.315-.676-1.11-.117-2.279-.551-2.279-2.488 0-.55.2-1.001.514-1.352-.05-.125-.224-.642.05-1.335 0 0 .422-.134 1.375.517.408-.11.829-.166 1.251-.167.423 0 .853.059 1.251.167.953-.65 1.375-.517 1.375-.517.274.693.1 1.21.05 1.335.323.35.514.802.514 1.353 0 1.936-1.168 2.362-2.287 2.487.182.158.34.459.34.935 0 .676-.008 1.218-.008 1.385 0 .134.09.292.34.242A5.04 5.04 0 0 0 11 6.125c.008-2.788-2.237-5.042-4.996-5.042" clip-rule="evenodd"/></svg>