<svg xmlns="http://www.w3.org/2000/svg" fill="none" viewBox="0 0 16 16"><path fill="#0A0B0D" d="m2.157 8.162 5.831 6.333 5.837-6.333a3.857 3.857 0 0 0 0-5.521 4 4 0 0 0-1.288-.848 4 4 0 0 0-1.522-.298c-.525 0-1.038.097-1.522.298a4 4 0 0 0-1.29.848l-.215.206-.21-.206a4 4 0 0 0-1.289-.848 4.1 4.1 0 0 0-1.522-.298c-.525 0-1.038.103-1.522.298a4 4 0 0 0-1.288.848 3.847 3.847 0 0 0 0 5.52m5.832 3.972L3.305 7.047l-.03-.029a2.247 2.247 0 0 1-.002-3.232l.005-.004c.223-.22.484-.392.764-.505a2.5 2.5 0 0 1 .925-.182q.472 0 .925.182c.28.113.541.286.765.505l1.316 1.292L9.317 3.79l.008-.008c.223-.22.485-.392.765-.505l.007-.003.008-.003q.421-.175.91-.176.486.001.91.176l.007.003.007.003c.28.113.542.286.765.505a2.257 2.257 0 0 1 0 3.238l-.028.028z"/></svg>