<svg xmlns="http://www.w3.org/2000/svg" fill="none" viewBox="0 0 12 12"><path fill="#0A0B0D" d="m4.97 7.639.003.295h1.69v-.298c0-.797.47-1.14 1.098-1.597l.033-.024c.312-.227.66-.488.926-.85.273-.37.45-.835.45-1.456 0-.756-.287-1.443-.839-1.939-.55-.493-1.34-.775-2.314-.775-.938 0-1.733.284-2.301.793-.57.512-.89 1.232-.903 2.058l-.006.303h1.764l.013-.285c.017-.375.141-.689.361-.908.218-.216.56-.37 1.072-.37.496 0 .825.146 1.03.344.204.198.312.478.312.805 0 .323-.114.553-.301.763-.16.18-.362.334-.598.515l-.19.146c-.306.239-.64.523-.891.919-.256.402-.416.903-.41 1.56m-.283 2.194c0 .65.489 1.163 1.15 1.163.646 0 1.15-.51 1.15-1.163a1.14 1.14 0 0 0-1.15-1.151c-.658 0-1.15.511-1.15 1.15"/></svg>