<svg xmlns="http://www.w3.org/2000/svg" fill="none" viewBox="0 0 12 12"><path fill="#0A0B0D" d="M4.74 7.779h2.118V7.48c0-.636.42-.931 1.039-1.366l.08-.057c.313-.22.66-.478.925-.834.272-.365.449-.821.449-1.425 0-.793-.317-1.503-.903-2.011C7.865 1.283 7.035.995 6.03.995c-.982 0-1.825.292-2.43.823-.608.534-.954 1.29-.968 2.17l-.005.303H4.88l.014-.283c.016-.336.127-.588.3-.755.172-.166.437-.28.823-.28.363 0 .615.097.772.235.152.134.247.334.247.617 0 .254-.098.439-.278.623-.142.145-.312.27-.513.418l-.25.186c-.299.228-.621.505-.864.895-.247.396-.4.89-.394 1.537zm-.287 1.846c0 .759.611 1.37 1.37 1.37.748 0 1.357-.614 1.357-1.37 0-.772-.611-1.37-1.357-1.37a1.36 1.36 0 0 0-1.37 1.37"/></svg>