<svg xmlns="http://www.w3.org/2000/svg" fill="none" viewBox="0 0 24 24"><path fill="#0A0B0D" d="m5.127 19.988 1.724 1.014 1.446-2.457a7 7 0 0 0 8.642-1l5.05-5.05-5.05-5.05a7 7 0 0 0-1.456-1.118l1.368-2.325-1.724-1.014-1.526 2.594-1.083 1.84-1.677 2.851-1.351 2.298zM9.31 16.82l1.312-2.23a2.5 2.5 0 1 0 2.533-4.306l1.313-2.232c.377.216.733.485 1.055.807l3.636 3.636-3.636 3.636a5 5 0 0 1-6.213.689m-.857-7.96a5 5 0 0 1 1.51-1.038l1.412-2.4A6.97 6.97 0 0 0 7.04 7.444l-5.05 5.05 3.29 3.29 1.047-1.78-1.509-1.51z"/></svg>