<svg xmlns="http://www.w3.org/2000/svg" fill="none" viewBox="0 0 12 12"><path fill="#0A0B0D" d="M9.356 8.974c.66 0 1.046.483 1.046 1.012 0 .53-.382 1.014-1.046 1.014-.663 0-1.043-.484-1.043-1.014s.383-1.012 1.043-1.012m-3.888-.002q.123 0 .232.021l.02.005q.1.021.188.057l.015.007q.04.016.078.037l.009.005q.081.045.15.103l.031.028.03.028c.188.189.29.448.29.72q0 .099-.018.195H5.038a.5.5 0 0 0 .104.163l.023.02a.44.44 0 0 0 .302.113h.002a.5.5 0 0 0 .187-.037.4.4 0 0 0 .179-.145l.044-.072h.605a.96.96 0 0 1-.587.696q-.162.066-.364.076l-.064.002h-.002q-.054 0-.107-.005l-.109-.013a1 1 0 0 1-.182-.05q-.006-.001-.013-.005l-.077-.032-.011-.006-.073-.04-.006-.003a.99.99 0 0 1-.463-.857q0-.098.017-.194h1.453a.44.44 0 0 0-.427-.296h-.002a.44.44 0 0 0-.41.254h-.605c.096-.428.457-.775 1.016-.775m2.068.054a.7.7 0 0 1 .724.717c0 .26-.133.497-.353.62l.386.585h-.675l-.327-.491h-.107v.491H6.61V9.026zm-5.01 1.143.337-1.145h.456l.335 1.145.344-1.145h.605l-.693 1.918h-.5l-.318-1.044-.321 1.044h-.499l-.69-1.918h.603zm6.83-.674c-.294 0-.464.236-.464.491s.173.492.464.492.465-.236.465-.492c0-.255-.17-.49-.465-.49m-2.172.52h.237c.153 0 .256-.124.256-.272s-.1-.272-.253-.272h-.24zm3.236-2.158a.08.08 0 0 1 .08.08.08.08 0 0 1-.08.079H1.58a.08.08 0 0 1-.081-.08.08.08 0 0 1 .081-.079zM6.094 1c2.714 0 3.119 1.715 3.119 2.735 0 1.77-1.11 2.746-3.12 2.746h-2.86a.456.456 0 0 1-.46-.45v-4.58c0-.25.206-.452.46-.452zm-2.862.15a.304.304 0 0 0-.306.302V6.03c0 .167.136.302.306.302h2.86c1.913 0 2.967-.922 2.968-2.596 0-2.247-1.86-2.585-2.967-2.585zm.426 3.227a.33.33 0 0 1 .321.34v1.202h-.001c-.356 0-.642-.303-.642-.675v-.527c0-.186.143-.34.322-.34m2.639-2.783c1.607 0 2.305.881 2.306 2.141s-.698 2.152-2.306 2.152h-1.77V1.895c0-.165.136-.301.306-.301zM3.704 3.198c.254 0 .459.203.46.453a.46.46 0 0 1-.46.454.457.457 0 0 1-.46-.454c0-.25.206-.453.46-.453m2.942.893h.211l.076-.214h.356l.073.214h.218l-.356-.964h-.218zm1.066 0h.672v-.179H7.92v-.785h-.208zm-1.916-.002h.723V3.91h-.514v-.235h.462v-.164h-.462v-.207h.502v-.18h-.711zm-.975-.001h.41a.5.5 0 0 0 .19-.038.4.4 0 0 0 .134-.102.5.5 0 0 0 .08-.155.7.7 0 0 0-.008-.403.5.5 0 0 0-.09-.148.4.4 0 0 0-.139-.088.5.5 0 0 0-.171-.028v-.002H4.82zm.356-.781q.076 0 .129.021a.2.2 0 0 1 .085.065.3.3 0 0 1 .046.1.6.6 0 0 1-.006.266.3.3 0 0 1-.054.09.2.2 0 0 1-.075.05.3.3 0 0 1-.09.013v.003h-.185v-.608zm2.058.41H6.99l.124-.353h.003z"/></svg>