<svg xmlns="http://www.w3.org/2000/svg" fill="none" viewBox="0 0 16 16"><path fill="#0A0B0D" d="M12.698 12.164c.925 0 1.465.676 1.465 1.417 0 .742-.536 1.419-1.465 1.419-.928 0-1.46-.678-1.46-1.419 0-.742.536-1.417 1.46-1.417m-5.444-.004q.171.001.325.031l.03.007q.14.03.262.08l.02.01q.057.023.11.05l.012.008q.114.063.21.144l.045.04.042.038-.001.001c.263.264.406.626.406 1.007q0 .139-.025.273H6.653a.7.7 0 0 0 .145.228l.032.03c.108.095.25.156.424.156h.002a.7.7 0 0 0 .26-.052.6.6 0 0 0 .253-.202 1 1 0 0 0 .061-.102h.848q-.045.202-.144.38a1.35 1.35 0 0 1-.679.595 1.6 1.6 0 0 1-.6.11h-.002q-.153-.001-.291-.025l-.01-.001a1.5 1.5 0 0 1-.38-.121q-.01-.004-.018-.01a1 1 0 0 1-.103-.055l-.007-.005a1.39 1.39 0 0 1-.65-1.199q.001-.139.026-.271h2.034a.62.62 0 0 0-.598-.414l-.002-.001a.62.62 0 0 0-.575.356h-.846c.134-.599.638-1.086 1.42-1.086m2.895.076a.98.98 0 0 1 1.014 1.004.98.98 0 0 1-.493.868l.539.819h-.943l-.458-.688h-.15v.688h-.803v-2.69zm-7.013 1.6.472-1.602h.64l.468 1.603.481-1.603h.846l-.97 2.685h-.699l-.446-1.461-.45 1.46H2.78l-.969-2.684h.846zm9.562-.942c-.412 0-.65.33-.651.687 0 .357.243.688.651.689.409 0 .653-.331.653-.689s-.24-.687-.653-.687m-3.04.726h.33c.216 0 .359-.172.359-.38 0-.207-.139-.38-.355-.38h-.335zm4.53-3.02c.061 0 .112.05.112.11 0 .062-.05.111-.113.111H1.813a.11.11 0 0 1-.113-.11c0-.061.05-.111.113-.111zM8.13 1c3.8 0 4.367 2.4 4.367 3.83 0 2.478-1.553 3.844-4.367 3.844H4.125a.64.64 0 0 1-.645-.632v-6.41A.64.64 0 0 1 4.125 1zm-4.006.21a.425.425 0 0 0-.43.423v6.409c0 .234.192.422.43.422H8.13c2.677 0 4.152-1.291 4.152-3.635 0-3.147-2.602-3.618-4.152-3.618zm.596 4.518c.25 0 .45.211.45.475v1.684h-.003c-.498 0-.897-.424-.897-.946v-.738c0-.26.199-.475.45-.475M8.415 1.83c2.25 0 3.228 1.235 3.228 3 0 1.763-.977 3.01-3.228 3.01H5.937V2.25c0-.23.191-.42.43-.42zm-3.63 2.246a.64.64 0 0 1 .644.635.64.64 0 0 1-.644.635.64.64 0 0 1-.643-.635c0-.351.288-.635.643-.635m4.12 1.25H9.2l.106-.3h.499l.101.3h.305l-.498-1.35h-.306zm1.49 0h.942v-.25h-.65v-1.1h-.291zm-2.681-.003h1.012v-.249h-.72v-.329h.646v-.23h-.646v-.29h.703v-.251h-.995zm-1.364 0h.574c.102 0 .19-.021.265-.054a.55.55 0 0 0 .188-.143.6.6 0 0 0 .111-.217 1 1 0 0 0-.01-.565.7.7 0 0 0-.127-.206.54.54 0 0 0-.194-.123.7.7 0 0 0-.24-.04v-.002H6.35zm.498-1.095a.5.5 0 0 1 .18.03c.05.02.089.054.118.09a.4.4 0 0 1 .066.14c.013.053.02.117.02.183q0 .112-.03.19a.4.4 0 0 1-.075.126.25.25 0 0 1-.106.07.4.4 0 0 1-.125.02v.002h-.258v-.85zm2.881.576h-.344l.174-.495h.003z"/></svg>