<svg xmlns="http://www.w3.org/2000/svg" fill="none" viewBox="0 0 12 12"><path fill="#0A0B0D" d="M.489 1.23h5.673c3.85 0 5.327 2.102 5.327 4.755 0 3.18-2.061 4.776-5.327 4.776H.49zm.55.55v8.432h5.123c3.093 0 4.776-1.442 4.776-4.227 0-2.863-1.824-4.206-4.776-4.206z"/><path fill="#0A0B0D" d="M1.726 6.605h1.64v2.919h-1.64zm.82-.452a1.02 1.02 0 1 0 0-2.038 1.02 1.02 0 0 0 0 2.038m4.26-.543v.473H5.637V4.187h1.131v.472H6.11v.22h.623v.472H6.11v.26zm.204.474.572-1.898h.672l.572 1.898h-.492l-.107-.367h-.618l-.108.367zm.737-.84h.342l-.157-.536h-.028zm1.316-1.058h.473v1.425h.7c-.192-2.585-2.225-3.144-4.074-3.144h-1.97v1.72h.292c.531 0 .861.36.861.94 0 .6-.322.957-.861.957h-.292v3.441h1.97c3.005 0 4.05-1.395 4.088-3.442H9.063zm-4.871.474v.95h.292c.202 0 .389-.058.389-.482 0-.415-.208-.468-.39-.468z"/></svg>