<svg xmlns="http://www.w3.org/2000/svg" fill="none" viewBox="0 0 17 17"><path fill="#0A0B0D" d="M7.645 0h1.698v2.654H7.645zm.849 13.272a4.778 4.778 0 1 0 0-9.556 4.778 4.778 0 0 0 0 9.556m0-1.699a3.079 3.079 0 1 1 0-6.158 3.079 3.079 0 0 1 0 6.158M3.089 1.887 1.887 3.088l1.877 1.877 1.202-1.2zM0 9.343V7.645h2.654v1.698zM1.887 13.9l1.202 1.2 1.877-1.876-1.202-1.201zm5.758.434h1.698v2.654H7.645zm5.579-2.311-1.201 1.2 1.877 1.878 1.2-1.201zm1.11-2.68V7.645h2.654v1.698zm-2.311-5.579 1.201 1.201 1.877-1.877-1.201-1.2z"/></svg>