<svg xmlns="http://www.w3.org/2000/svg" fill="none" viewBox="0 0 16 16"><path fill="#0A0B0D" d="M13.007 6.362c.967-1.774 1.212-3.3.49-4.022-.75-.752-2.374-.456-4.24.611a5.35 5.35 0 0 0-2.546-.005C4.85 1.883 3.231 1.59 2.48 2.34c-.718.717-.48 2.23.473 3.99a5.34 5.34 0 0 0-.155 3.08c-1.067 1.866-1.363 3.49-.612 4.24.722.723 2.25.478 4.023-.49a5.35 5.35 0 0 0 3.549-.005c1.778.972 3.31 1.22 4.033.496.756-.756.452-2.394-.631-4.275a5.35 5.35 0 0 0-.153-3.014m-.691-2.84-.002.059c-.01.243-.085.61-.276 1.095a5.4 5.4 0 0 0-.924-.858c.507-.205.89-.285 1.142-.295zm-1.108 2.741c-.567.892-1.338 1.86-2.288 2.81q-.465.465-.931.871a19 19 0 0 1-.932-.87C6.1 8.115 5.323 7.138 4.755 6.24a3.73 3.73 0 0 1 3.22-1.844 3.73 3.73 0 0 1 3.233 1.867m-1.945 4.69A20.5 20.5 0 0 0 11.7 8.338a3.73 3.73 0 0 1-1.847 3.015 14 14 0 0 1-.591-.4m-2.548 0a14 14 0 0 1-.605.409 3.73 3.73 0 0 1-1.864-3.063 20.4 20.4 0 0 0 2.468 2.655M4.52 12.193c-.484.19-.851.266-1.095.276h-.059l.001-.059c.01-.25.091-.634.295-1.141q.375.511.858.924m8.086.218.001.059-.059-.001c-.247-.01-.62-.088-1.114-.284a5.4 5.4 0 0 0 .867-.941c.212.52.295.911.305 1.167m-7.763-8.6a5.4 5.4 0 0 0-.915.843c-.184-.473-.257-.832-.267-1.072l-.001-.06.06.002c.248.01.625.088 1.123.287"/></svg>