<svg xmlns="http://www.w3.org/2000/svg" fill="none" viewBox="0 0 24 24"><path fill="#0A0B0D" d="M20.12 3.51c1.019 1.018.65 3.202-.754 5.77a8.02 8.02 0 0 1 .391 4.877c1.66 2.805 2.162 5.232 1.07 6.323-1.02 1.021-3.211.648-5.787-.763a8 8 0 0 1-3.072.61 8 8 0 0 1-3.049-.6c-2.568 1.403-4.75 1.772-5.77.753-1.084-1.084-.595-3.489 1.04-6.273a8 8 0 0 1-.221-1.88c0-1.095.22-2.14.62-3.091-1.384-2.55-1.744-4.713-.731-5.726C4.94 2.427 7.34 2.913 10.12 4.543a8 8 0 0 1 3.728.007c2.784-1.635 5.189-2.125 6.274-1.04m-.647 15.51-.01.006zm-.081.024a1.5 1.5 0 0 0 .011-.349c-.029-.479-.21-1.194-.631-2.122l-.01-.02a8 8 0 0 1-1.693 1.938c.856.374 1.52.538 1.973.565.173.01.284 0 .35-.012m-4.28-1.605a6 6 0 0 0 2.807-5.882 30 30 0 0 1-3.102 3.62q-.625.625-1.257 1.192.796.598 1.551 1.07m3.223-12.504c-.476.028-1.185.207-2.104.623a8 8 0 0 1 1.912 1.683c.366-.842.526-1.498.553-1.946.01-.172 0-.283-.012-.35a1.5 1.5 0 0 0-.349-.01m-4.932 8.828c1.544-1.544 2.791-3.12 3.69-4.557a6 6 0 0 0-5.125-2.878 6 6 0 0 0-5.104 2.844c.9 1.446 2.154 3.035 3.71 4.59q.707.706 1.415 1.327a30 30 0 0 0 1.414-1.326M9.16 15.177a30 30 0 0 1-3.137-3.67 6 6 0 0 0 2.822 5.945q.766-.478 1.573-1.083a32 32 0 0 1-1.258-1.192m-4.225 3.879c.448-.027 1.103-.187 1.946-.553a8 8 0 0 1-1.684-1.911c-.415.919-.594 1.627-.622 2.103-.01.173-.001.284.01.35.067.011.178.021.35.01M5.82 7.208a8 8 0 0 1 1.902-1.662c-.907-.408-1.608-.583-2.08-.611a1.6 1.6 0 0 0-.349.01 1.5 1.5 0 0 0-.011.35c.026.442.182 1.086.538 1.913m-.503-2.344-.006.01zm-.106.106.011-.006zm14.162 14.145-.005.011zm-.712-14.25.005.01zM4.504 19.02l.01.005zm.106.105-.006-.01zM18.756 4.964l.01.006z"/></svg>