<svg xmlns="http://www.w3.org/2000/svg" fill="none" viewBox="0 0 12 12"><path fill="#0A0B0D" d="M9.754 4.77c.725-1.33.909-2.476.367-3.018-.563-.563-1.78-.341-3.18.46a4 4 0 0 0-1.91-.004C3.633 1.41 2.418 1.19 1.855 1.753c-.538.538-.36 1.673.355 2.993a4 4 0 0 0-.116 2.311c-.8 1.4-1.023 2.617-.46 3.18.542.542 1.688.358 3.018-.367a4 4 0 0 0 2.662-.005c1.335.73 2.484.916 3.027.373.567-.567.338-1.796-.474-3.207a4 4 0 0 0-.114-2.261m-.52-2.13v.044c-.008.182-.065.458-.207.82a4 4 0 0 0-.694-.643c.381-.153.668-.214.857-.221zm-.83 2.056a12.6 12.6 0 0 1-1.716 2.108q-.35.348-.7.653a14 14 0 0 1-.698-.653 12.6 12.6 0 0 1-1.727-2.126 2.798 2.798 0 0 1 4.84.018m-1.46 3.518a15.4 15.4 0 0 0 1.83-1.962 2.8 2.8 0 0 1-1.386 2.262 10 10 0 0 1-.444-.3m-1.91 0q-.232.165-.455.306a2.8 2.8 0 0 1-1.398-2.297 15 15 0 0 0 1.852 1.991m-1.646.93c-.363.142-.638.199-.821.206l-.044.001v-.044c.008-.189.068-.476.222-.857q.28.385.643.693m6.066.163.001.044h-.044c-.186-.008-.466-.066-.836-.214q.367-.313.65-.706c.16.39.222.684.23.876M3.63 2.856a4 4 0 0 0-.686.632c-.138-.355-.193-.624-.2-.804l-.001-.045.045.001c.186.007.469.067.842.216"/></svg>