<svg xmlns="http://www.w3.org/2000/svg" fill="none" viewBox="0 0 12 12"><path fill="#0A0B0D" d="M9.802 4.77c.735-1.33.921-2.476.373-3.018-.571-.563-1.805-.341-3.222.46a4.1 4.1 0 0 0-1.935-.004C3.603 1.41 2.373 1.19 1.803 1.753c-.545.538-.365 1.673.36 2.994a3.95 3.95 0 0 0-.118 2.31c-.811 1.4-1.036 2.617-.465 3.18.548.542 1.709.358 3.056-.367.42.146.872.225 1.342.225a4.1 4.1 0 0 0 1.355-.23c1.35.73 2.515.916 3.065.373.574-.567.343-1.796-.48-3.207a3.96 3.96 0 0 0-.116-2.261m-1.367-.074a12.7 12.7 0 0 1-1.738 2.108q-.355.348-.708.653a14 14 0 0 1-.708-.653 12.6 12.6 0 0 1-1.75-2.126 2.84 2.84 0 0 1 2.447-1.383c1.05 0 1.967.563 2.457 1.4M6.957 8.214a15.5 15.5 0 0 0 1.852-1.962 2.8 2.8 0 0 1-1.403 2.262 11 11 0 0 1-.45-.3m-1.936 0q-.234.165-.46.306a2.8 2.8 0 0 1-1.416-2.297A15 15 0 0 0 5.02 8.214"/></svg>