<svg xmlns="http://www.w3.org/2000/svg" fill="none" viewBox="0 0 24 24"><path fill="#0A0B0D" d="M17.757 12.83c2.011-2.625 3.39-5.698 4.023-8.733q.212-1.012.311-2.011v-.013l-.085.004-.091.006q-.923.057-1.86.209c-3.13.505-6.333 1.786-9.088 3.749L7.57 2.645 6.155 4.059l13.514 13.51 1.414-1.414zm-1.429-1.43-1.025-1.025q.105-.069.198-.159c.543-.525.565-1.39.046-1.926a1.363 1.363 0 0 0-2.123.206l-1.02-1.02a20 20 0 0 1 7.256-3.082 20 20 0 0 1-3.332 7.006m-.823 4.8-.574 5.718-3.555-3.678-.959-1.005a3.21 3.21 0 0 1-2.72 1.387l-2.82-.065.066-2.82a3.21 3.21 0 0 1 1.514-2.653l-.997-1.045.006-.009-3.58-3.703 5.389-.355 2.103 2.103a16 16 0 0 0-1.39 1.716l3.75 3.93q.993-.632 1.885-1.402zm-8.562-.416-.02.82.821.019a1.21 1.21 0 0 0 1.206-.925l-1.026-1.076a1.21 1.21 0 0 0-.981 1.162"/></svg>