<svg xmlns="http://www.w3.org/2000/svg" fill="none" viewBox="0 0 24 24"><path fill="#0A0B0D" d="M22.091 2.073c-3.745.197-7.767 1.577-11.124 3.968L7.57 2.645 6.155 4.059l.063.062.017-.017 13.45 13.448 1.398-1.397-3.326-3.326c2.458-3.207 3.97-7.083 4.334-10.743zm-8.667 6.425a1.363 1.363 0 0 1 2.123-.207 1.364 1.364 0 0 1-.244 2.085zm2.081 7.702-8.23-8.228-5.389.355 3.58 3.703-.006.01.997 1.044a3.21 3.21 0 0 0-1.514 2.654l-.065 2.82 2.82.064a3.21 3.21 0 0 0 2.72-1.386l.957 1.004 3.556 3.678z"/></svg>