<svg xmlns="http://www.w3.org/2000/svg" fill="none" viewBox="0 0 16 16"><path fill="#0A0B0D" d="m7.938 10.278-2.307-2.36q.288-.402.611-.779L4.44 5.381l-3.298.258 2.466 2.49-.004.005.46.47a2.5 2.5 0 0 0-1.1 2.048L2.94 12.89l2.239.024a2.5 2.5 0 0 0 2.069-1.053l.433.443 2.45 2.472.31-3.54L8.796 9.63q-.411.345-.857.648m-2.226.012-.001.124a.504.504 0 0 1-.511.5l-.238-.002.002-.239a.504.504 0 0 1 .51-.5l.125.002zm7.591 1.502 1.047-1.074-2.302-2.246a14.9 14.9 0 0 0 2.542-5.633q.174-.813.245-1.616v-.009l-.059.004-.061.005a13 13 0 0 0-1.51.203A14.9 14.9 0 0 0 7.4 3.936L5.045 1.64 3.927 2.785l.07-.072zM9.064 5.56l-.5-.487a13.4 13.4 0 0 1 4.31-1.936 13.4 13.4 0 0 1-1.984 4.205l-.508-.496.038-.035a.93.93 0 0 0 .015-1.311.927.927 0 0 0-1.371.06"/></svg>