<svg xmlns="http://www.w3.org/2000/svg" fill="none" viewBox="0 0 12 12"><path fill="#0A0B0D" d="m3.108 2.15.76-.778 1.71 1.668a10.8 10.8 0 0 1 4.154-1.801q.571-.113 1.135-.156l.045-.003.042-.003v.007q-.052.601-.186 1.212a10.8 10.8 0 0 1-1.823 4.029l1.672 1.63-.838.86.078-.08zM6.78 4.214l.035-.036a.67.67 0 0 1 .947.008.673.673 0 0 1-.01.95l-.014.013.337.328a9.7 9.7 0 0 0 1.4-2.95 9.7 9.7 0 0 0-3.024 1.366zm-3.391-.113-2.366.185 1.789 1.806-.002.004.422.431a1.69 1.69 0 0 0-.762 1.396l-.016 1.498 1.498.016a1.69 1.69 0 0 0 1.41-.73l.391.4 1.79 1.806.223-2.542L6.53 7.165a8 8 0 0 1-.572.434L4.33 5.935a8 8 0 0 1 .407-.518zm.746 3.35.325.332a.49.49 0 0 1-.495.455l-.298-.004.003-.298a.49.49 0 0 1 .465-.485"/></svg>