<svg xmlns="http://www.w3.org/2000/svg" fill="none" viewBox="0 0 16 16"><path fill="#0A0B0D" d="m11.668.995-9 14h1.6l2.238-3.482 1.483 1.482 2.284-2.284a3.98 3.98 0 0 0-2.813-.681l1.216-1.892a5.4 5.4 0 0 1 2.911 1.33l1.133-1.132a7 7 0 0 0-3.11-1.652l1.062-1.651a8.4 8.4 0 0 1 3.256 2.022l1.132-1.13a10 10 0 0 0-3.5-2.273L13.268.995zM7.806 4.597 8.814 3.03A9.97 9.97 0 0 0 .918 5.924l1.131 1.131a8.37 8.37 0 0 1 5.757-2.458M4.96 9.023l1.521-2.365a7 7 0 0 0-3.148 1.61L4.467 9.4q.236-.202.493-.378"/></svg>