<svg xmlns="http://www.w3.org/2000/svg" fill="none" viewBox="0 0 24 24"><path fill="#0A0B0D" d="m16.573 2.495-10.97 19h3.31l1.806-3.128 1.27 1.27 3.23-3.23a5.6 5.6 0 0 0-2.794-.996l1.043-1.807a6.9 6.9 0 0 1 3.087 1.568l2.124-2.124a9.9 9.9 0 0 0-3.66-2.13l.972-1.683a11.15 11.15 0 0 1 3.876 2.523l2.122-2.121a14.2 14.2 0 0 0-4.483-3.026l2.376-4.116zm-5.738 6.059 1.791-3.045q-.317-.015-.637-.014a14.1 14.1 0 0 0-10 4.142l2.121 2.121a11.1 11.1 0 0 1 6.725-3.204m-3.64 6.188 2.349-3.993a9.9 9.9 0 0 0-4.14 2.202z"/></svg>