<svg xmlns="http://www.w3.org/2000/svg" fill="none" viewBox="0 0 12 12"><path fill="#0A0B0D" d="M6.782 2.887 3 6.454a1.67 1.67 0 0 0-.535 1.211c0 .447.188.884.535 1.211.348.329.828.52 1.335.52s.987-.191 1.336-.52l4.218-3.979.824.873-4.219 3.98a3.15 3.15 0 0 1-2.159.845c-.803 0-1.58-.3-2.158-.846a2.87 2.87 0 0 1-.912-2.084c0-.789.332-1.538.912-2.084l3.782-3.567c.424-.4.991-.619 1.576-.619s1.153.219 1.577.619c.425.4.67.952.67 1.535a2.1 2.1 0 0 1-.67 1.535L5.325 8.65a1.45 1.45 0 0 1-.994.39 1.45 1.45 0 0 1-.994-.39 1.36 1.36 0 0 1-.43-.986c0-.377.16-.73.43-.986l3.931-3.703.823.874-3.93 3.702a.16.16 0 0 0-.053.113c0 .035.014.077.053.113.04.037.1.064.17.064a.25.25 0 0 0 .17-.064s3.36-3.141 3.787-3.567.342-.936 0-1.324c-.388-.442-.889-.582-1.506 0"/></svg>