<svg xmlns="http://www.w3.org/2000/svg" fill="none" viewBox="0 0 16 16"><path fill="#0A0B0D" d="M9.922 3.745c-.36 0-.699.136-.941.365L4.253 8.568c-.434.41-.67.955-.67 1.514 0 .56.236 1.105.67 1.514.436.411 1.035.65 1.67.65.633 0 1.233-.239 1.668-.65l5.274-4.973 1.029 1.091-5.273 4.974a3.94 3.94 0 0 1-2.699 1.057 3.94 3.94 0 0 1-2.698-1.057 3.58 3.58 0 0 1-1.14-2.606c0-.986.415-1.922 1.14-2.605L7.95 3.018c.53-.5 1.24-.773 1.971-.773s1.44.274 1.97.773c.532.501.839 1.19.839 1.919s-.307 1.418-.839 1.919L7.16 11.315a1.8 1.8 0 0 1-1.243.488 1.8 1.8 0 0 1-1.243-.488 1.7 1.7 0 0 1-.536-1.233c0-.47.198-.913.536-1.232l4.914-4.629 1.029 1.092-4.913 4.629a.2.2 0 0 0-.066.14c0 .044.018.096.066.141a.3.3 0 0 0 .213.08.3.3 0 0 0 .213-.08l4.733-4.459c.241-.227.368-.526.368-.827s-.127-.6-.368-.827a1.37 1.37 0 0 0-.941-.365"/></svg>