<svg xmlns="http://www.w3.org/2000/svg" fill="none" viewBox="0 0 24 24"><path fill="#0A0B0D" d="M13.688 4.903a2.252 2.252 0 0 1 3.842 1.588 2.24 2.24 0 0 1-.658 1.586l-8.046 8.027a.501.501 0 0 1-.855-.352c0-.131.053-.258.146-.351l8.31-8.288-1.766-1.77-8.31 8.289a2.997 2.997 0 0 0 2.12 5.118 3 3 0 0 0 2.121-.878l8.046-8.025a4.743 4.743 0 0 0-3.358-8.102c-1.26 0-2.467.5-3.358 1.39L3.884 11.16a6.49 6.49 0 0 0 0 9.184 6.504 6.504 0 0 0 9.192 0l8.922-8.91-1.767-1.768-8.922 8.909a4.004 4.004 0 0 1-5.658 0 3.99 3.99 0 0 1 0-5.646z"/></svg>