<svg xmlns="http://www.w3.org/2000/svg" fill="none" viewBox="0 0 16 16"><path fill="#0A0B0D" d="M4.618.745c-.552 0-1.026.402-1.111.95v.002L1.97 11.429v.002a1.055 1.055 0 0 0 1.042 1.215h1.399l-.218 1.38a1.054 1.054 0 0 0 1.042 1.22h1.956c.556 0 1.023-.406 1.11-.947v-.002l.466-2.952H9.6a4.43 4.43 0 0 0 4.375-3.75c.228-1.453-.417-2.785-1.547-3.556C12.23 2.164 10.595.745 8.529.745zm6.048 2.637a4 4 0 0 0-.566-.036H6.84c-.557 0-1.024.405-1.111.947v.001l-.613 3.88-.003.018v.004l-.14.866h.003l-.328 2.084H3.534l1.404-8.9h3.59c.992 0 1.752.471 2.138 1.136M6.781 7.245l.379-2.4h2.94c.281 0 .543.04.783.109a2.93 2.93 0 0 1-2.857 2.291zm-.62 3.937.385-2.437h1.48a4.43 4.43 0 0 0 4.146-2.875c.283.424.406.944.32 1.492A2.93 2.93 0 0 1 9.6 9.845H8.448c-.552 0-1.026.401-1.111.95v.001l-.466 2.95H5.757z"/></svg>