<svg xmlns="http://www.w3.org/2000/svg" fill="none" viewBox="0 0 24 24"><path fill="#0A0B0D" d="M12 10a4 4 0 1 0 0-8 4 4 0 0 0 0 8m-.011-6.005a2 2 0 1 1 0 4 2 2 0 0 1 0-4M19.868 20c-.684-5.12-3.946-9-7.868-9s-7.184 3.88-7.868 9A15 15 0 0 0 4 22h16q0-1.026-.132-2m-3.829-4.602c.869 1.194 1.526 2.78 1.809 4.602H6.152c.283-1.822.94-3.408 1.809-4.602C9.135 13.783 10.588 13 12 13s2.865.783 4.04 2.398"/><path fill="#0A0B0D" d="M19.5 13a3.5 3.5 0 1 0 0-7 3.5 3.5 0 0 0 0 7m0-2a1.5 1.5 0 1 1 0-3 1.5 1.5 0 0 1 0 3m-15 2a3.5 3.5 0 1 0 0-7 3.5 3.5 0 0 0 0 7m0-5a1.5 1.5 0 1 1 0 3 1.5 1.5 0 0 1 0-3"/></svg>