<svg xmlns="http://www.w3.org/2000/svg" fill="none" viewBox="0 0 16 16"><path fill="#0A0B0D" d="M7.394 2.666q.307 0 .606.03v5.97h5.333c0 3.098-2.336 5.646-5.333 5.964v.006a6 6 0 0 1-1.036.014v-1.806q.211.021.43.022l.212-.006.03-.003.174-.017a4.17 4.17 0 0 0 3.32-2.373H6.2V4.634c-1.695.486-2.939 1.98-3.055 3.76H1.34c.144-3.187 2.8-5.728 6.054-5.728"/><path fill="#0A0B0D" d="m6.731 11.573-2.693 2.698L2.765 13l.526-.527h-1.99v-1.801h1.988l-.524-.526 1.273-1.272zm2.602-10.24c2.994.303 5.333 2.874 5.333 6H9.333z"/></svg>