<svg xmlns="http://www.w3.org/2000/svg" fill="none" viewBox="0 0 16 16"><path fill="#0A0B0D" d="M7.394 2.666q.307 0 .606.03v5.97h5.333c0 3.098-2.336 5.646-5.333 5.964v.006a6 6 0 0 1-1.036.013v-1.603q.211.02.43.02l.222-.006.043-.003.172-.018a4.38 4.38 0 0 0 3.604-2.772H6.399v-5.89c-1.905.427-3.334 2.056-3.457 4.017H1.34c.144-3.187 2.8-5.728 6.054-5.728"/><path fill="#0A0B0D" d="m6.59 11.573-.564.565L3.968 14.2l-1.133-1.13.697-.699H1.301v-1.6h2.23l-.696-.697 1.133-1.13zm2.743-10.24c2.994.303 5.333 2.874 5.333 6H9.333zm1.6 4.4h1.842a4.42 4.42 0 0 0-1.842-2.218z"/></svg>