<svg xmlns="http://www.w3.org/2000/svg" fill="none" viewBox="0 0 24 24"><path fill="#0A0B0D" d="M11.09 4q.462 0 .91.045V13h8c0 4.648-3.504 8.468-8 8.945v.01q-.449.044-.91.045a9 9 0 0 1-1.09-.067v-2.016q.534.082 1.09.083l.355-.01.073-.006.271-.028c2.813-.299 5.134-2.292 5.922-4.956H10V6.082c-3.277.498-5.793 3.208-5.986 6.509H2.01C2.227 7.81 6.209 4 11.09 4"/><path fill="#0A0B0D" d="m9.603 16.709-3.793 3.8-1.416-1.412 1.384-1.388H1.752v-2h4.026l-1.384-1.388 1.416-1.413zM14 2c4.492.454 8 4.31 8 9h-8zm2 7h3.719A7.02 7.02 0 0 0 16 4.604z"/></svg>