<svg xmlns="http://www.w3.org/2000/svg" fill="none" viewBox="0 0 24 24"><path fill="#0A0B0D" d="M20.068 8.026A9 9 0 0 0 3.006 12.56c-1.421.934-2.18 1.847-1.987 2.569.196.735 1.348 1.147 3.1 1.236a9 9 0 0 0 16.868-4.556c1.412-.931 2.165-1.84 1.972-2.56-.189-.704-1.257-1.113-2.89-1.223m-1.145 4.936a7.001 7.001 0 0 1-12.441 3.355c1.845-.145 4.02-.523 6.308-1.136 2.335-.625 4.445-1.404 6.133-2.22m-.046-2.222c-1.634.886-3.938 1.795-6.604 2.51-2.617.7-5.024 1.065-6.87 1.125a7 7 0 1 1 13.473-3.635"/></svg>