<svg xmlns="http://www.w3.org/2000/svg" fill="none" viewBox="0 0 16 16"><path fill="#0A0B0D" d="M5.072 3.329h-1.75v1.75h1.75z"/><path fill="#0A0B0D" d="M.989.995v6.417h6.416V.995zm4.958 1.459v3.5h-3.5v-3.5zm-2.625 8.458h1.75v1.75h-1.75z"/><path fill="#0A0B0D" d="M.989 8.579v6.416h6.416V8.58zm4.958 1.458v3.5h-3.5v-3.5zm4.958-6.708h1.75v1.75h-1.75z"/><path fill="#0A0B0D" d="M8.572 7.412V.995h6.417v6.417zm1.458-4.958v3.5h3.5v-3.5zM8.572 8.579h3.938v2.624h1.02V8.58h1.459v4.083H11.05v-2.625h-1.02v4.958H8.571zm4.958 4.958h1.459v1.458H13.53z"/><path fill="#0A0B0D" d="M11.051 13.537h1.459v1.458h-1.46z"/></svg>