<svg xmlns="http://www.w3.org/2000/svg" fill="none" viewBox="0 0 24 24"><path fill="#0A0B0D" d="M7.544 5.329H5.322V7.55h2.222z"/><path fill="#0A0B0D" d="M1.989 1.995v8.89h8.889v-8.89zm6.666 2.222v4.445H4.211V4.217zM5.322 16.44h2.222v2.222H5.322z"/><path fill="#0A0B0D" d="M1.989 13.106v8.89h8.889v-8.89zm6.666 2.223v4.444H4.211v-4.444zm7.778-10h2.222V7.55h-2.222z"/><path fill="#0A0B0D" d="M13.1 10.884V1.995h8.889v8.89zm2.222-6.667v4.445h4.445V4.217zM13.1 13.106v8.89h2.222v-6.667h1.111v3.333h5.556v-5.556h-2.222v3.334h-1.112v-3.334z"/><path fill="#0A0B0D" d="M19.767 19.773h2.222v2.222h-2.222zm-3.334 0h2.222v2.222h-2.222z"/></svg>