<svg xmlns="http://www.w3.org/2000/svg" fill="none" viewBox="0 0 24 24"><path fill="#0A0B0D" d="M22 11.995c0 5.525-4.475 10-10 10s-10-4.475-10-10 4.475-10 10-10 10 4.475 10 10m-11.622 4.176c0 .706.594 1.252 1.333 1.252.723 0 1.3-.562 1.317-1.252 0-.707-.594-1.253-1.317-1.253-.739 0-1.333.546-1.333 1.253m3.57-4.485.252-.237c.626-.61 1.188-1.268 1.188-2.28 0-1.526-1.092-2.602-3.211-2.602-2.04 0-3.485 1.189-3.565 3.196h2.007c.096-.915.626-1.493 1.43-1.493.754 0 1.107.417 1.107 1.075 0 .579-.45 1.044-.98 1.542l-.08.08c-.652.65-1.349 1.345-1.349 2.425v.434h1.944v-.353c.07-.678.649-1.219 1.257-1.787"/></svg>