<svg xmlns="http://www.w3.org/2000/svg" fill="none" viewBox="0 0 16 16"><path fill="#0A0B0D" d="M6.713 11.28c0 .556.467.986 1.048.986.569 0 1.024-.443 1.036-.986 0-.556-.467-.985-1.036-.985-.58 0-1.048.43-1.048.985m2.808-3.528.199-.186c.492-.48.935-.999.935-1.795 0-1.2-.86-2.047-2.527-2.047-1.605 0-2.742.935-2.805 2.515h1.58c.075-.72.492-1.175 1.124-1.175.593 0 .871.328.871.846 0 .455-.353.822-.77 1.213l-.063.063c-.514.512-1.062 1.059-1.062 1.908v.342h1.529v-.278c.056-.533.511-.959.99-1.406"/><path fill="#0A0B0D" d="M7.989 14.995a7 7 0 1 0 0-14 7 7 0 0 0 0 14m5.4-7a5.4 5.4 0 1 1-10.8 0 5.4 5.4 0 0 1 10.8 0"/></svg>