<svg xmlns="http://www.w3.org/2000/svg" fill="none" viewBox="0 0 24 24"><path fill="#0A0B0D" d="M10.367 16.17c0 .707.594 1.253 1.333 1.253.722 0 1.3-.562 1.317-1.253 0-.706-.595-1.252-1.317-1.252-.739 0-1.333.546-1.333 1.252m3.57-4.484.252-.237c.626-.61 1.188-1.268 1.188-2.28 0-1.526-1.092-2.602-3.212-2.602-2.04 0-3.484 1.189-3.565 3.196h2.008c.096-.915.626-1.493 1.429-1.493.755 0 1.108.417 1.108 1.075 0 .579-.45 1.044-.98 1.542l-.08.08c-.652.65-1.349 1.345-1.349 2.425v.434h1.943v-.353c.07-.678.65-1.219 1.258-1.787"/><path fill="#0A0B0D" d="M11.989 21.995c-5.525 0-10-4.475-10-10s4.475-10 10-10 10 4.475 10 10-4.475 10-10 10m8-10c0-4.42-3.58-8-8-8s-8 3.58-8 8 3.58 8 8 8 8-3.58 8-8"/></svg>