<svg xmlns="http://www.w3.org/2000/svg" fill="none" viewBox="0 0 12 12"><path fill="#0A0B0D" d="M6.815 4.177a.67.67 0 0 1 .948.008.673.673 0 0 1-.959.943.673.673 0 0 1 .011-.95"/><path fill="#0A0B0D" d="M9.731 1.239c-1.909.376-3.847 1.336-5.33 2.783l-3.377.264 1.788 1.806-.002.004.422.432a1.69 1.69 0 0 0-.762 1.395L2.454 9.42l1.498.016a1.69 1.69 0 0 0 1.41-.73l.39.4 1.79 1.806.29-3.306c1.5-1.456 2.514-3.392 2.935-5.31q.135-.612.186-1.213v-.007l-.042.003-.045.003q-.562.042-1.135.156m-3.774 6.36L4.331 5.936c1.23-1.714 3.175-2.907 5.143-3.41C8.93 4.485 7.696 6.406 5.957 7.6m-1.823-.15.327.335a.49.49 0 0 1-.496.452l-.298-.003.003-.298a.49.49 0 0 1 .464-.486"/></svg>