<svg xmlns="http://www.w3.org/2000/svg" fill="none" viewBox="0 0 24 24"><path fill="#0A0B0D" d="M11.989 13.384a1.944 1.944 0 1 0 0-3.889 1.944 1.944 0 0 0 0 3.89"/><path fill="#0A0B0D" d="M1.989 1.995h20v20h-4.445v-1.11H6.434v1.11H1.988zm13.889 9.445c0-.361-.05-.71-.141-1.042l2.03-1.172-.972-1.684-2.031 1.173A3.9 3.9 0 0 0 13.1 7.712V5.329h-1.945V7.64a3.9 3.9 0 0 0-1.838.974L7.252 7.422 6.28 9.106l2.002 1.156a3.9 3.9 0 0 0-.041 2.219l-2.03 1.172.971 1.684 2.032-1.173c.52.53 1.19.911 1.941 1.075v2.312H13.1v-2.383a3.9 3.9 0 0 0 1.762-1.107l2.002 1.156.973-1.684-2.064-1.192q.104-.435.105-.901"/></svg>