<svg xmlns="http://www.w3.org/2000/svg" fill="none" viewBox="0 0 16 16"><path fill="#0A0B0D" d="M8.92 3.91H7.053v1.32c-.37.124-.706.32-.993.573l-1.143-.66-.933 1.617 1.142.66a2.9 2.9 0 0 0 0 1.147l-1.142.66.933 1.616 1.143-.66c.287.252.624.45.993.574v1.32H8.92v-1.32a2.9 2.9 0 0 0 .993-.574l1.143.66.934-1.616-1.143-.66a2.9 2.9 0 0 0 0-1.147l1.143-.66-.934-1.617-1.143.66a2.9 2.9 0 0 0-.993-.574zm.35 4.083a1.283 1.283 0 1 1-2.567 0 1.283 1.283 0 0 1 2.567 0"/><path fill="#0A0B0D" d="M.989.995v14h14v-14zm12.133 1.867v10.267H2.855V2.862z"/></svg>