<svg xmlns="http://www.w3.org/2000/svg" fill="none" viewBox="0 0 12 12"><path fill="#0A0B0D" d="M2.466 5.768a1.477 1.477 0 1 0 0-2.955 1.477 1.477 0 0 0 0 2.955m0-1a.477.477 0 1 1 0-.955.477.477 0 0 1 0 .955m7.046 1a1.477 1.477 0 1 1 0-2.955 1.477 1.477 0 0 1 0 2.955m0-1a.477.477 0 1 0 0-.955.477.477 0 0 0 0 .955M7.466 4.29a1.477 1.477 0 1 1-2.955 0 1.477 1.477 0 0 1 2.955 0m-1 0a.477.477 0 1 0-.955 0 .477.477 0 0 0 .955 0m1.341 4.887a1.477 1.477 0 1 0 0-2.955 1.477 1.477 0 0 0 0 2.955m0-1a.477.477 0 1 1 0-.955.477.477 0 0 1 0 .955M5.648 7.7a1.477 1.477 0 1 1-2.955 0 1.477 1.477 0 0 1 2.955 0m-1 0a.477.477 0 1 0-.955 0 .477.477 0 0 0 .955 0"/></svg>