<svg xmlns="http://www.w3.org/2000/svg" fill="none" viewBox="0 0 16 16"><path fill="#0A0B0D" d="M3.057 7.677a2.068 2.068 0 1 0 0-4.136 2.068 2.068 0 0 0 0 4.136m0-1.3a.768.768 0 1 1 0-1.536.768.768 0 0 1 0 1.536m9.863 1.3a2.068 2.068 0 1 0 0-4.136 2.068 2.068 0 0 0 0 4.136m0-1.3a.768.768 0 1 1 0-1.536.768.768 0 0 1 0 1.536m-2.863-.768a2.068 2.068 0 1 1-4.136 0 2.068 2.068 0 0 1 4.136 0m-1.3 0a.768.768 0 1 0-1.536 0 .768.768 0 0 0 1.536 0m1.777 6.841a2.068 2.068 0 1 0 0-4.137 2.068 2.068 0 0 0 0 4.137m0-1.3a.768.768 0 1 1 0-1.537.768.768 0 0 1 0 1.537m-3.023-.768a2.068 2.068 0 1 1-4.136 0 2.068 2.068 0 0 1 4.136 0m-1.3 0a.768.768 0 1 0-1.536 0 .768.768 0 0 0 1.536 0"/></svg>