<svg xmlns="http://www.w3.org/2000/svg" fill="none" viewBox="0 0 24 24"><path fill="#0A0B0D" d="M4.239 11.495a3.25 3.25 0 1 0 0-6.5 3.25 3.25 0 0 0 0 6.5m0-2a1.25 1.25 0 1 1 0-2.5 1.25 1.25 0 0 1 0 2.5m15.5 2a3.25 3.25 0 1 0 0-6.5 3.25 3.25 0 0 0 0 6.5m0-2a1.25 1.25 0 1 1 0-2.5 1.25 1.25 0 0 1 0 2.5m-4.5-1.25a3.25 3.25 0 1 1-6.5 0 3.25 3.25 0 0 1 6.5 0m-2 0a1.25 1.25 0 1 0-2.5 0 1.25 1.25 0 0 0 2.5 0m2.75 10.75a3.25 3.25 0 1 1 0-6.5 3.25 3.25 0 0 1 0 6.5m0-2a1.25 1.25 0 1 0 0-2.5 1.25 1.25 0 0 0 0 2.5m-4.75-1.25a3.25 3.25 0 1 1-6.5 0 3.25 3.25 0 0 1 6.5 0m-2 0a1.25 1.25 0 1 0-2.5 0 1.25 1.25 0 0 0 2.5 0"/></svg>