<svg xmlns="http://www.w3.org/2000/svg" fill="none" viewBox="0 0 12 12"><path fill="#0A0B0D" d="M7.738 3.256a3.2 3.2 0 0 0-1.05-.435V.995h-1.4v1.826a3.2 3.2 0 0 0-1.049.435L2.734 1.75l-.99.99 1.505 1.506c-.202.316-.352.67-.435 1.05H.99v1.4h1.825c.084.378.233.732.435 1.049L1.744 9.25l.99.99 1.505-1.505c.317.202.671.351 1.05.435v1.825h1.4V9.17a3.2 3.2 0 0 0 1.05-.435l1.505 1.505.99-.99-1.506-1.505c.203-.317.352-.671.435-1.05h1.826v-1.4H9.163a3.2 3.2 0 0 0-.435-1.05l1.506-1.505-.99-.99zm.1 2.74a1.85 1.85 0 1 1-3.7 0 1.85 1.85 0 0 1 3.7 0"/></svg>