<svg xmlns="http://www.w3.org/2000/svg" fill="none" viewBox="0 0 12 12"><path fill="#0A0B0D" d="M4.394 8.276H2.55l.042.337c.087.704.42 1.322.968 1.762.546.438 1.289.685 2.176.685 1.251 0 2.233-.488 2.89-1.4.648-.898.96-2.175.96-3.723 0-1.274-.218-2.515-.793-3.447C8.205 1.538 7.257.93 5.878.93 3.78.93 2.393 2.479 2.393 4.417c0 .953.304 1.798.874 2.407.573.61 1.393.96 2.377.96.804 0 1.553-.274 2.056-.812-.067.692-.228 1.254-.476 1.666-.325.538-.804.835-1.489.835-.459 0-.774-.125-.976-.291a.93.93 0 0 1-.337-.636zm-.153-3.808v-.143c0-.506.157-.96.434-1.282.271-.318.672-.524 1.203-.524 1.037 0 1.702.845 1.702 1.806v.143c0 1.018-.685 1.754-1.689 1.754-.575 0-.976-.199-1.237-.496-.266-.303-.413-.74-.413-1.258"/></svg>