<svg xmlns="http://www.w3.org/2000/svg" fill="none" viewBox="0 0 16 16"><path fill="#0A0B0D" d="M12.146 6.844a3.1 3.1 0 0 1-1.09.804c.513.206.955.517 1.302.919.53.615.824 1.426.824 2.36 0 1.164-.494 2.21-1.399 2.96-.902.748-2.195 1.188-3.785 1.188s-2.887-.44-3.794-1.187c-.91-.75-1.408-1.796-1.408-2.96 0-.935.294-1.747.827-2.362.35-.403.795-.714 1.313-.92a3.1 3.1 0 0 1-1.086-.802c-.47-.55-.721-1.264-.721-2.077 0-1.102.483-2.075 1.342-2.766C5.326 1.313 6.539.915 7.998.915c1.45 0 2.663.398 3.52 1.086.86.69 1.35 1.663 1.35 2.766 0 .813-.252 1.527-.722 2.077m-6.05-1.781c0 .757.708 1.439 1.902 1.439 1.174 0 1.883-.68 1.883-1.44V4.86c0-.396-.169-.736-.48-.984-.314-.251-.789-.418-1.403-.418s-1.094.167-1.414.42a1.22 1.22 0 0 0-.487.982zm-.258 5.772c0 .496.198.921.556 1.226.36.308.902.509 1.604.509s1.244-.201 1.604-.509a1.57 1.57 0 0 0 .556-1.226v-.222c0-.905-.747-1.717-2.16-1.717s-2.16.812-2.16 1.717z"/></svg>