<svg xmlns="http://www.w3.org/2000/svg" fill="none" viewBox="0 0 12 12"><path fill="#0A0B0D" d="M8.978 5.244a2.2 2.2 0 0 1-.624.503c.298.146.56.345.772.592.388.45.601 1.041.601 1.717 0 .844-.359 1.604-1.015 2.148-.653.541-1.584.856-2.717.856s-2.066-.315-2.722-.855a2.74 2.74 0 0 1-1.023-2.15c0-.675.213-1.267.603-1.717a2.4 2.4 0 0 1 .78-.593 2.2 2.2 0 0 1-.62-.5c-.346-.405-.529-.928-.529-1.518 0-.803.353-1.512.977-2.013.62-.5 1.493-.783 2.534-.783 1.035 0 1.908.284 2.53.782.625.501.981 1.21.981 2.014 0 .59-.183 1.113-.528 1.517m-4.23-1.31c0 .466.438.923 1.247.923.794 0 1.234-.455 1.234-.922v-.143a.77.77 0 0 0-.303-.622c-.202-.162-.515-.274-.93-.274-.417 0-.734.112-.94.275a.77.77 0 0 0-.308.62zm-.182 4.057c0 .323.129.596.36.794.234.2.592.336 1.07.336.476 0 .835-.137 1.069-.336.23-.198.36-.471.36-.794v-.156c0-.575-.474-1.117-1.43-1.117s-1.429.542-1.429 1.117z"/></svg>