<svg xmlns="http://www.w3.org/2000/svg" fill="none" viewBox="0 0 16 16"><path fill="#0A0B0D" d="M3.197 12.781v2.164h9.63v-2.511H6.092c.025-.246.095-.446.218-.628.16-.24.421-.469.832-.734l2.64-1.629c1.019-.638 1.735-1.285 2.195-1.987.463-.706.66-1.455.66-2.28 0-1.144-.444-2.182-1.264-2.932-.818-.749-1.997-1.199-3.447-1.199-1.344 0-2.513.402-3.36 1.155-.85.755-1.359 1.848-1.408 3.193l-.008.224h2.851l.006-.21c.017-.67.223-1.144.544-1.451s.788-.474 1.375-.474c.648 0 1.094.196 1.377.485.285.29.43.7.43 1.172v.206c0 .32-.066.62-.27.927-.209.313-.57.65-1.182 1.024l-2.34 1.442c-.939.56-1.628 1.121-2.081 1.773-.458.657-.664 1.39-.664 2.27"/></svg>