<svg xmlns="http://www.w3.org/2000/svg" fill="none" viewBox="0 0 24 24"><path fill="#0A0B0D" d="M18.412 7.406c0 1.882-1.07 3.408-2.786 4.091 1.897.665 3.228 2.345 3.228 4.723 0 1.627-.699 3.037-1.913 4.035-1.211.994-2.92 1.57-4.94 1.57-2.03 0-3.746-.575-4.96-1.57-1.218-.998-1.917-2.408-1.917-4.035 0-2.379 1.332-4.058 3.245-4.723-1.728-.684-2.777-2.21-2.777-4.09 0-1.536.66-2.856 1.8-3.786 1.136-.926 2.735-1.455 4.61-1.455 1.862 0 3.46.53 4.6 1.455 1.142.93 1.81 2.248 1.81 3.785m-9.828.286c0 1.42 1.315 2.664 3.418 2.664 2.078 0 3.418-1.245 3.418-2.664v-.26c0-1.497-1.29-2.69-3.418-2.69-1.076 0-1.934.303-2.517.783a2.41 2.41 0 0 0-.901 1.907zm-.416 8.476c0 .885.37 1.653 1.024 2.205.658.554 1.619.901 2.81.901 1.19 0 2.144-.347 2.795-.9a2.83 2.83 0 0 0 1.013-2.206v-.312c0-1.69-1.406-3.08-3.808-3.08-1.217 0-2.177.354-2.828.907a2.8 2.8 0 0 0-1.006 2.173z"/></svg>