<svg xmlns="http://www.w3.org/2000/svg" fill="none" viewBox="0 0 24 24"><path fill="#0A0B0D" d="M5.337 18.638v3.004h13.366v-3.486H9.358a1.84 1.84 0 0 1 .302-.872c.223-.333.585-.65 1.155-1.018l3.664-2.26.002-.002c1.412-.884 2.406-1.783 3.045-2.758.643-.98.917-2.02.917-3.164 0-1.588-.617-3.028-1.755-4.07-1.136-1.04-2.772-1.664-4.785-1.664-1.866 0-3.488.558-4.664 1.603C6.059 5 5.353 6.516 5.286 8.383l-.012.311h3.958l.007-.292c.025-.93.31-1.588.756-2.014.447-.427 1.093-.658 1.908-.658.9 0 1.518.272 1.912.674.395.404.596.972.596 1.626v.286c0 .446-.092.86-.375 1.287-.289.434-.79.901-1.64 1.422l-3.248 2c-1.303.777-2.26 1.557-2.89 2.461-.634.913-.92 1.93-.92 3.152"/></svg>