<svg xmlns="http://www.w3.org/2000/svg" fill="none" viewBox="0 0 16 16"><path fill="#0A0B0D" d="M3.39 13.11v1.836h9.202v-2.08H5.7c.026-.364.134-.662.329-.945.233-.34.6-.671 1.145-1.062l2.55-1.718c.964-.653 1.625-1.297 2.044-1.981.421-.69.585-1.403.585-2.171 0-1.116-.43-2.11-1.21-2.82-.779-.711-1.886-1.125-3.216-1.125-1.272 0-2.398.39-3.215 1.13-.819.744-1.302 1.82-1.321 3.143l-.005.305h2.303l.004-.297c.008-.754.238-1.31.61-1.677.37-.367.917-.58 1.624-.58.734 0 1.244.221 1.57.545s.498.784.498 1.32v.24c0 .362-.072.699-.286 1.05-.218.356-.594.743-1.229 1.182L6.076 9.013c-.892.592-1.567 1.172-2.017 1.83-.455.668-.67 1.399-.67 2.267"/></svg>