<svg xmlns="http://www.w3.org/2000/svg" fill="none" viewBox="0 0 16 16"><path fill="#0A0B0D" d="M5.837 6.668v2.108h2.058c.697 0 1.207.19 1.539.48.327.289.51.702.51 1.218v.204c0 .48-.157.902-.463 1.204-.305.3-.787.512-1.494.512-.745 0-1.218-.213-1.512-.501-.298-.292-.45-.697-.482-1.145l-.02-.278H2.935l.016.316c.06 1.147.531 2.192 1.39 2.947.857.755 2.079 1.204 3.608 1.204 1.545 0 2.818-.437 3.71-1.206.894-.772 1.382-1.86 1.382-3.109 0-1.174-.411-2.174-1.157-2.9-.623-.606-1.464-1.005-2.457-1.164l3.077-3.044v-2.46h-8.96v2.635H8.85z"/></svg>