<svg xmlns="http://www.w3.org/2000/svg" fill="none" viewBox="0 0 16 16"><path fill="#0A0B0D" d="M5.605 11.367H3.237l.042.337c.12.971.578 1.82 1.33 2.424s1.78.947 3.019.947c1.743 0 3.1-.677 4.01-1.94.9-1.247 1.34-3.034 1.34-5.223 0-1.802-.308-3.54-1.108-4.838-.812-1.318-2.12-2.16-4.038-2.16-2.913 0-4.833 2.142-4.833 4.833 0 1.331.423 2.5 1.21 3.339.788.841 1.92 1.327 3.29 1.327 1.259 0 2.408-.484 3.083-1.42-.07 1.182-.313 2.14-.727 2.827-.484.803-1.207 1.25-2.227 1.25-.676 0-1.155-.184-1.47-.443a1.45 1.45 0 0 1-.526-.99zm-.23-5.546v-.203c0-.745.231-1.422.647-1.907.411-.48 1.017-.79 1.81-.79 1.559 0 2.548 1.274 2.548 2.697v.203c0 1.514-1.026 2.623-2.53 2.623-.85 0-1.457-.294-1.856-.748-.403-.46-.619-1.115-.619-1.875"/></svg>