<svg xmlns="http://www.w3.org/2000/svg" fill="none" viewBox="0 0 16 16"><path fill="#0A0B0D" d="M13.145 6.08c0-1.56-.483-2.859-1.39-3.768C10.85 1.402 9.55.915 7.98.915c-1.562 0-2.856.488-3.76 1.397-.905.91-1.387 2.208-1.387 3.768v3.811c0 1.588.487 2.892 1.394 3.8.907.906 2.201 1.384 3.753 1.384 1.56 0 2.858-.477 3.768-1.384.91-.908 1.397-2.212 1.397-3.8zm-3.042 3.793c0 .785-.2 1.397-.55 1.808-.345.405-.862.648-1.573.648-.712 0-1.224-.243-1.563-.647-.346-.41-.542-1.023-.542-1.81V6.1c0-.767.196-1.375.542-1.786.34-.405.852-.652 1.563-.652.72 0 1.237.248 1.579.652.348.411.544 1.02.544 1.786z"/></svg>