<svg xmlns="http://www.w3.org/2000/svg" fill="none" viewBox="0 0 12 12"><path fill="#0A0B0D" d="M9.493 4.572c0-1.093-.323-2.009-.943-2.654-.62-.646-1.508-.987-2.568-.987-1.054 0-1.937.341-2.556.988-.618.644-.942 1.56-.942 2.653v2.82c0 1.118.327 2.041.947 2.687.621.646 1.505.98 2.551.98 1.053 0 1.94-.333 2.563-.98.622-.646.948-1.57.948-2.686zm-1.822 2.82c0 .661-.17 1.156-.449 1.48-.274.32-.683.509-1.24.509-.55 0-.955-.19-1.228-.508-.278-.325-.448-.82-.448-1.48V4.585c0-.646.17-1.139.448-1.464.274-.32.68-.511 1.228-.511.556 0 .965.191 1.24.511.28.326.45.818.45 1.464z"/></svg>