<svg xmlns="http://www.w3.org/2000/svg" fill="none" viewBox="0 0 24 24"><path fill="#0A0B0D" d="M15.449 7.134h3.08l-.041-.337c-.166-1.334-.794-2.499-1.826-3.327-1.031-.826-2.447-1.304-4.166-1.304-2.415 0-4.284.937-5.538 2.676-1.243 1.725-1.86 4.208-1.86 7.27 0 2.522.432 4.94 1.54 6.736 1.12 1.816 2.919 2.976 5.572 2.976 4.022 0 6.67-2.951 6.67-6.67 0-1.844-.586-3.456-1.667-4.609-1.083-1.155-2.641-1.827-4.535-1.827-1.9 0-3.603.796-4.475 2.32.059-1.88.411-3.406 1.06-4.481.7-1.164 1.755-1.815 3.233-1.815.972 0 1.674.264 2.143.65.468.385.725.91.782 1.473zm.335 7.916v.286c0 1.071-.333 2.052-.939 2.76-.602.702-1.486 1.152-2.635 1.152-2.272 0-3.704-1.859-3.704-3.912v-.286c0-2.189 1.491-3.808 3.678-3.808 1.225 0 2.113.426 2.7 1.094.59.674.9 1.624.9 2.714"/></svg>