<svg xmlns="http://www.w3.org/2000/svg" fill="none" viewBox="0 0 12 12"><path fill="#0A0B0D" d="M4.618 5.073v1.274h1.288c.57 0 .995.157 1.272.4.273.237.43.58.43 1.016v.156c0 .408-.136.767-.39 1.023-.25.254-.644.432-1.208.432-.595 0-.99-.175-1.24-.414-.253-.241-.388-.574-.41-.942l-.018-.282h-1.82l.016.316c.043.8.367 1.534.961 2.067.594.532 1.437.843 2.485.843 1.029 0 1.897-.311 2.513-.865.618-.556.959-1.337.959-2.23 0-.868-.312-1.61-.878-2.141-.44-.413-1.019-.685-1.693-.802l2.233-2.44V1.029H2.954v1.64h3.858z"/></svg>