<svg xmlns="http://www.w3.org/2000/svg" fill="none" viewBox="0 0 24 24"><path fill="#0A0B0D" d="M5.724 2.361v11.13h3.508l.08-.175c.266-.58.634-1.02 1.096-1.315.461-.296 1.033-.46 1.726-.46.945 0 1.63.306 2.082.824.457.523.712 1.302.712 2.308v.286c0 1.003-.266 1.808-.754 2.36-.482.544-1.213.876-2.222.876-.901 0-1.582-.267-2.048-.676-.467-.41-.74-.98-.8-1.625l-.024-.273H4.966l.031.329c.33 3.43 3.11 5.68 6.877 5.68 2.199 0 3.988-.72 5.23-1.95 1.24-1.23 1.908-2.948 1.908-4.903 0-1.944-.584-3.593-1.637-4.76-1.056-1.17-2.563-1.832-4.357-1.832-1.368 0-2.784.4-3.73 1.594V5.82h8.71V2.36z"/></svg>