<svg xmlns="http://www.w3.org/2000/svg" fill="none" viewBox="0 0 16 16"><path fill="#0A0B0D" d="M12.646 4.73c0 1.303-.703 2.372-1.84 2.906 1.275.53 2.154 1.719 2.154 3.365 0 1.184-.51 2.212-1.393 2.938-.88.723-2.117 1.136-3.569 1.136-1.46 0-2.702-.413-3.585-1.136a3.72 3.72 0 0 1-1.395-2.938c0-1.647.88-2.836 2.165-3.365C4.04 7.1 3.35 6.03 3.35 4.73c0-1.12.481-2.083 1.313-2.76C5.49 1.296 6.648.915 7.998.915c1.34 0 2.499.381 3.327 1.055a3.49 3.49 0 0 1 1.32 2.76m-6.993.203c0 .948.88 1.81 2.345 1.81 1.448 0 2.346-.864 2.346-1.81v-.185c0-1.002-.862-1.827-2.346-1.827-.75 0-1.34.21-1.735.537a1.63 1.63 0 0 0-.61 1.29zm-.296 6.031c0 .604.25 1.127.698 1.503.45.379 1.112.62 1.943.62.83 0 1.488-.241 1.933-.62.442-.375.69-.897.69-1.503v-.222c0-1.142-.948-2.105-2.623-2.105-.85 0-1.511.247-1.956.625a1.9 1.9 0 0 0-.685 1.48z"/></svg>