<svg xmlns="http://www.w3.org/2000/svg" fill="none" viewBox="0 0 24 24"><path fill="#0A0B0D" d="M9.54 10.267v2.132h2.275c1.195 0 2.12.33 2.74.872.618.539.964 1.311.964 2.26v.312c0 .882-.295 1.68-.865 2.256-.569.574-1.436.954-2.63.954-1.253 0-2.122-.37-2.69-.911-.57-.544-.863-1.287-.912-2.083l-.017-.282H5.363l.016.316c.082 1.528.698 2.919 1.822 3.926s2.734 1.61 4.77 1.61c1.997 0 3.659-.604 4.826-1.653 1.168-1.052 1.818-2.532 1.818-4.237 0-1.661-.594-3.062-1.661-4.063-.947-.888-2.247-1.445-3.789-1.604l4.774-5.214V2.36H6.211v2.68h8.096z"/></svg>