<svg xmlns="http://www.w3.org/2000/svg" fill="none" viewBox="0 0 16 16"><path fill="#0A0B0D" d="M12.849 9.984V5.969c0-1.529-.453-2.799-1.307-3.688C10.687 1.391 9.46.915 7.98.915c-1.473 0-2.694.476-3.547 1.367-.851.889-1.304 2.158-1.304 3.687v4.015c0 1.565.457 2.845 1.311 3.734.856.891 2.078 1.357 3.54 1.357 1.47 0 2.697-.465 3.555-1.356.857-.89 1.314-2.17 1.314-3.735m-2.339 0c0 .96-.247 1.697-.67 2.188-.418.486-1.037.768-1.86.768-.814 0-1.429-.281-1.845-.767-.42-.492-.667-1.229-.667-2.19V5.989c0-.94.246-1.673.667-2.166.417-.487 1.032-.772 1.845-.772.822 0 1.442.286 1.86.772.424.493.67 1.226.67 2.166z"/></svg>