<svg xmlns="http://www.w3.org/2000/svg" fill="none" viewBox="0 0 16 16"><path fill="#0A0B0D" d="m10.345 4.353.028.27h2.367l-.041-.337c-.12-.97-.578-1.82-1.331-2.424-.752-.603-1.779-.947-3.018-.947-1.744 0-3.1.678-4.01 1.94-.9 1.247-1.341 3.035-1.341 5.223 0 1.802.308 3.54 1.108 4.838.813 1.318 2.12 2.16 4.039 2.16 2.913 0 4.833-2.142 4.833-4.833 0-1.33-.424-2.5-1.21-3.339-.789-.841-1.92-1.327-3.29-1.327-1.259 0-2.408.484-3.083 1.42.07-1.181.313-2.14.727-2.827.484-.803 1.207-1.25 2.227-1.25.676 0 1.154.184 1.47.444.314.258.486.61.525.99m.257 5.816v.203c0 .745-.23 1.422-.647 1.907-.41.48-1.016.79-1.809.79-1.56 0-2.549-1.274-2.549-2.697v-.203c0-1.514 1.027-2.623 2.53-2.623.85 0 1.458.294 1.856.749.404.46.62 1.114.62 1.874"/></svg>