<svg xmlns="http://www.w3.org/2000/svg" fill="none" viewBox="0 0 12 12"><path fill="#0A0B0D" d="M7.583 3.715H9.43l-.042-.337a2.64 2.64 0 0 0-.968-1.762C7.872 1.177 7.129.93 6.242.93c-1.25 0-2.232.488-2.89 1.4-.647.898-.959 2.175-.959 3.723 0 1.274.218 2.514.792 3.446.588.952 1.535 1.56 2.914 1.56 2.099 0 3.485-1.548 3.485-3.485 0-.954-.303-1.799-.874-2.407-.572-.611-1.392-.961-2.377-.961-.803 0-1.552.275-2.056.812.068-.692.229-1.254.477-1.666.325-.538.804-.834 1.488-.834.46 0 .774.124.976.29a.93.93 0 0 1 .338.636zm.153 3.808v.143c0 .505-.157.96-.433 1.282-.272.317-.672.524-1.204.524-1.036 0-1.702-.845-1.702-1.806v-.143c0-1.019.686-1.754 1.69-1.754.574 0 .975.198 1.236.495.266.304.413.74.413 1.259"/></svg>