<svg xmlns="http://www.w3.org/2000/svg" fill="none" viewBox="0 0 24 24"><path fill="#0A0B0D" d="M8.529 16.856h-3.08l.041.337c.165 1.335.794 2.499 1.826 3.327 1.031.827 2.446 1.304 4.166 1.304 2.414 0 4.283-.936 5.537-2.676 1.244-1.724 1.86-4.207 1.86-7.27 0-2.522-.431-4.939-1.539-6.735-1.12-1.817-2.92-2.977-5.572-2.977-4.023 0-6.67 2.952-6.67 6.67 0 1.845.586 3.456 1.667 4.61 1.083 1.155 2.64 1.826 4.535 1.826 1.9 0 3.603-.796 4.475-2.32-.06 1.88-.412 3.406-1.06 4.482-.701 1.164-1.756 1.814-3.233 1.814-.973 0-1.674-.264-2.143-.65a2.16 2.16 0 0 1-.783-1.472zM8.194 8.94v-.286c0-1.071.332-2.051.938-2.759.602-.702 1.487-1.153 2.636-1.153 2.271 0 3.704 1.86 3.704 3.912v.286c0 2.189-1.492 3.808-3.678 3.808-1.225 0-2.114-.426-2.7-1.094-.59-.673-.9-1.624-.9-2.714"/></svg>