<svg xmlns="http://www.w3.org/2000/svg" fill="none" viewBox="0 0 16 16"><path fill="#0A0B0D" d="M6.162 6.732v1.637h1.706c.834 0 1.47.23 1.893.6.419.365.656.89.656 1.542v.222c0 .608-.204 1.153-.591 1.544-.386.39-.98.654-1.81.654-.873 0-1.47-.258-1.854-.625-.387-.369-.589-.875-.622-1.424l-.017-.282H3.185l.017.316c.06 1.108.506 2.12 1.325 2.853.818.733 1.986 1.168 3.452 1.168 1.438 0 2.642-.435 3.49-1.199.852-.765 1.324-1.842 1.324-3.079 0-1.204-.432-2.224-1.21-2.954-.654-.614-1.537-1.008-2.577-1.144l3.306-3.61V1.053H3.794v2.08h5.65z"/></svg>