<svg xmlns="http://www.w3.org/2000/svg" fill="none" viewBox="0 0 16 16"><path fill="#0A0B0D" d="M13.556 5.213q.01.18.008.362c0 3.697-2.89 7.962-8.172 7.962v-.002A8.3 8.3 0 0 1 .989 12.28q.34.04.683.04a5.87 5.87 0 0 0 3.568-1.2c-1.23-.022-2.307-.803-2.684-1.943.43.08.874.064 1.297-.048-1.34-.264-2.304-1.411-2.304-2.743V6.35c.4.217.846.337 1.304.35-1.263-.82-1.653-2.456-.89-3.735a8.23 8.23 0 0 0 5.92 2.924 2.76 2.76 0 0 1 .831-2.674 2.93 2.93 0 0 1 4.064.121 5.9 5.9 0 0 0 1.824-.68 2.82 2.82 0 0 1-1.263 1.549 5.8 5.8 0 0 0 1.65-.44 5.8 5.8 0 0 1-1.434 1.449"/></svg>