<svg xmlns="http://www.w3.org/2000/svg" fill="none" viewBox="0 0 12 12"><path fill="#0A0B0D" d="M9.965 4.008q.008.128.006.258c0 2.641-2.064 5.688-5.837 5.688v-.002a5.9 5.9 0 0 1-3.145-.896q.243.028.488.029a4.2 4.2 0 0 0 2.548-.858A2.05 2.05 0 0 1 2.108 6.84c.308.058.625.046.927-.034-.957-.189-1.646-1.008-1.646-1.96V4.82c.285.155.604.24.931.25a1.97 1.97 0 0 1-.635-2.669A5.88 5.88 0 0 0 5.913 4.49a1.97 1.97 0 0 1 .594-1.91 2.09 2.09 0 0 1 2.903.087c.46-.089.9-.253 1.303-.486a2.02 2.02 0 0 1-.902 1.106 4.2 4.2 0 0 0 1.178-.315 4.1 4.1 0 0 1-1.024 1.036"/></svg>