<svg xmlns="http://www.w3.org/2000/svg" fill="none" viewBox="0 0 24 24"><path fill="#0A0B0D" d="M19.941 8.02c.012.172.012.344.012.517 0 5.283-4.127 11.375-11.675 11.375v-.003c-2.23.003-4.412-.62-6.29-1.793q.487.058.977.058a8.38 8.38 0 0 0 5.096-1.714c-1.755-.033-3.295-1.148-3.833-2.777a4.2 4.2 0 0 0 1.853-.069c-1.915-.376-3.292-2.015-3.292-3.918v-.05a4.16 4.16 0 0 0 1.862.5c-1.803-1.174-2.358-3.511-1.27-5.338 2.084 2.497 5.157 4.016 8.457 4.176a3.94 3.94 0 0 1 1.187-3.82c1.653-1.513 4.252-1.435 5.806.174a8.4 8.4 0 0 0 2.605-.97 4.03 4.03 0 0 1-1.803 2.21 8.3 8.3 0 0 0 2.356-.629A8.2 8.2 0 0 1 19.94 8.02"/></svg>