<svg xmlns="http://www.w3.org/2000/svg" fill="none" viewBox="0 0 24 24"><path fill="#0A0B0D" d="M12.989 15.87v2.125h-2V15.87a4 4 0 0 1-1.032-.428l-1.261 1.261-1.414-1.414 1.26-1.26a4 4 0 0 1-.427-1.033H5.989v-2h2.126c.094-.367.24-.713.428-1.032l-1.261-1.26 1.414-1.415 1.26 1.261a4 4 0 0 1 1.033-.428V5.995h2v2.126q.552.144 1.032.428l1.26-1.26 1.415 1.413-1.261 1.261q.284.48.428 1.032h2.126v2h-2.126a4 4 0 0 1-.428 1.032l1.26 1.261-1.413 1.414-1.261-1.26a4 4 0 0 1-1.032.427m1-3.875a2 2 0 1 0-4 0 2 2 0 0 0 4 0"/><path fill="#0A0B0D" d="M21.989 6.495v11l-10 5.5-10-5.5v-11l10-5.5zm-10-3.217-8 4.4v8.635l8 4.4 8-4.4V7.678z"/></svg>