<svg xmlns="http://www.w3.org/2000/svg" fill="none" viewBox="0 0 24 24"><path fill="#0A0B0D" d="M13.99 11.995a2 2 0 1 1-4.001 0 2 2 0 0 1 4 0"/><path fill="#0A0B0D" d="m11.989 22.995 10.002-5.5v-11L11.989.995l-10.002 5.5v11zm1-7.126v2.126h-2V15.87a4 4 0 0 1-1.033-.428l-1.26 1.261-1.415-1.414 1.26-1.26a4 4 0 0 1-.427-1.033H5.988v-2h2.126c.094-.367.24-.713.428-1.032L7.28 8.703l1.414-1.415L9.956 8.55a4 4 0 0 1 1.033-.428V5.995h2v2.126c.367.095.714.24 1.032.428l1.261-1.26 1.415 1.413-1.261 1.261q.284.48.428 1.032h2.126v2h-2.126c-.095.367-.24.714-.428 1.032l1.26 1.261-1.414 1.414-1.26-1.26a4 4 0 0 1-1.033.427"/></svg>