<svg xmlns="http://www.w3.org/2000/svg" fill="none" viewBox="0 0 24 24"><path fill="#0A0B0D" d="M10.239 15.597h2.806v-.3c0-1.757 1.063-2.532 2.3-3.433l.1-.072c.628-.458 1.294-.96 1.798-1.644.511-.696.846-1.567.846-2.755 0-1.443-.545-2.742-1.588-3.678-1.041-.934-2.554-1.484-4.458-1.484-1.828 0-3.353.552-4.431 1.52-1.08.97-1.691 2.338-1.719 3.923l-.005.305h2.958l.013-.286c.037-.814.308-1.523.815-2.027.506-.502 1.275-.833 2.37-.833 1.057 0 1.802.313 2.28.777.479.464.721 1.11.721 1.835 0 .739-.267 1.27-.682 1.737-.345.387-.778.718-1.257 1.083l-.37.285c-.61.475-1.247 1.021-1.724 1.773-.482.758-.79 1.707-.777 2.977zm-.576 4.12c0 1.148.857 2.042 2.016 2.042 1.131 0 2.016-.891 2.016-2.042a2 2 0 0 0-2.016-2.016c-1.156 0-2.016.892-2.016 2.016"/></svg>