<svg xmlns="http://www.w3.org/2000/svg" fill="none" viewBox="0 0 12 12"><path fill="#0A0B0D" d="M4.732 7.79h2.131v-.3c0-.64.423-.937 1.046-1.374l.081-.058c.315-.221.664-.48.93-.838.274-.368.452-.827.452-1.435 0-.799-.318-1.513-.908-2.024C7.877 1.253 7.042.963 6.03.963c-.988 0-1.836.294-2.445.829-.612.536-.96 1.297-.975 2.183l-.005.305h2.268l.014-.285c.016-.338.128-.591.302-.76.173-.167.44-.28.828-.28.365 0 .619.096.777.235.153.135.25.337.25.621 0 .256-.1.442-.28.627-.143.146-.315.272-.517.42q-.12.087-.253.189c-.3.228-.624.507-.869.9-.248.398-.403.895-.396 1.546zm-.289 1.858a1.374 1.374 0 1 0 2.745 0c0-.776-.615-1.379-1.366-1.379-.761 0-1.379.6-1.379 1.38"/></svg>