<svg xmlns="http://www.w3.org/2000/svg" fill="none" viewBox="0 0 24 24"><path fill="#0A0B0D" d="M9.77 15.285h3.665v-.3c0-1.438.977-2.123 2.18-2.967l.202-.142c.628-.442 1.291-.937 1.793-1.611.509-.684.843-1.54.843-2.69 0-1.514-.6-2.858-1.712-3.821-1.109-.96-2.704-1.523-4.672-1.523-1.918 0-3.54.57-4.692 1.583C6.22 4.828 5.557 6.268 5.529 7.96l-.005.305H9.47l.014-.285c.036-.734.28-1.32.695-1.72s1.029-.647 1.865-.647c.782 0 1.367.208 1.752.546.381.335.6.826.6 1.468 0 .61-.245 1.054-.645 1.463-.303.311-.675.584-1.089.888q-.233.17-.481.358c-.59.45-1.206.982-1.666 1.721-.464.745-.76 1.682-.747 2.932zm-.575 4.016a2.453 2.453 0 0 0 2.458 2.458c1.338 0 2.432-1.099 2.432-2.458a2.43 2.43 0 0 0-2.432-2.458 2.436 2.436 0 0 0-2.458 2.458"/></svg>