<svg xmlns="http://www.w3.org/2000/svg" fill="none" viewBox="0 0 16 16"><path fill="#0A0B0D" d="M6.728 10.59H8.75v-.216c0-1.266.766-1.824 1.658-2.473l.07-.052c.453-.33.934-.691 1.296-1.185.369-.5.61-1.129.61-1.985 0-1.04-.392-1.976-1.144-2.65C10.49 1.357 9.4.96 8.028.96c-1.317 0-2.416.398-3.193 1.095-.779.699-1.218 1.685-1.238 2.827l-.004.22h2.132l.009-.207c.026-.586.222-1.097.587-1.46.364-.362.919-.6 1.707-.6.762 0 1.299.225 1.643.56.345.334.52.8.52 1.322 0 .532-.192.915-.492 1.251-.248.279-.56.517-.905.78l-.267.206c-.44.342-.898.736-1.242 1.277-.347.546-.57 1.23-.56 2.146zm-.415 2.969c0 .827.617 1.471 1.453 1.471.814 0 1.452-.642 1.452-1.471a1.44 1.44 0 0 0-1.452-1.453c-.834 0-1.453.643-1.453 1.453"/></svg>