<svg xmlns="http://www.w3.org/2000/svg" fill="none" viewBox="0 0 12 12"><path fill="#0A0B0D" d="m4.963 7.65.004.296h1.701v-.3c0-.802.473-1.146 1.104-1.607l.034-.024c.313-.228.665-.491.932-.855.275-.373.452-.84.452-1.466 0-.76-.288-1.452-.844-1.95-.553-.497-1.348-.78-2.329-.78-.944 0-1.744.285-2.316.797-.573.515-.894 1.24-.909 2.071l-.005.305h1.775l.013-.286c.017-.378.142-.694.364-.914.219-.218.563-.373 1.078-.373.5 0 .83.147 1.036.346.206.2.315.481.315.81 0 .326-.115.557-.303.769-.162.181-.364.336-.602.518l-.191.147c-.308.24-.644.526-.897.925-.257.404-.419.908-.412 1.57m-.286 2.207c0 .654.493 1.171 1.158 1.171.65 0 1.158-.514 1.158-1.17a1.15 1.15 0 0 0-1.158-1.159c-.662 0-1.158.515-1.158 1.158"/></svg>