<svg xmlns="http://www.w3.org/2000/svg" fill="none" viewBox="0 0 12 12"><path fill="#0A0B0D" d="M4.794 2.677a3.491 3.491 0 0 0 0 6.547v1.568A4.99 4.99 0 0 1 1.02 6.209l-.008-.257A4.99 4.99 0 0 1 4.794 1.11zM7.207 1.11a4.99 4.99 0 0 1 3.781 4.842l-.006.257a4.99 4.99 0 0 1-3.775 4.582V9.224a3.49 3.49 0 0 0 0-6.546z"/><path fill="#0A0B0D" d="M6.226 2.644a.4.4 0 0 1 .393.394v.467c.271.07.508.186.697.36.2.181.341.415.421.693l.03.122.003.008a.4.4 0 0 1-.01.17.376.376 0 0 1-.371.276H6.98a.39.39 0 0 1-.378-.284L6.6 4.847a.48.48 0 0 0-.203-.295c-.095-.06-.236-.098-.448-.098-.228 0-.372.052-.455.117-.076.06-.122.15-.122.28 0 .153.03.218.098.271.091.071.28.141.67.197.54.074.989.192 1.304.434.33.252.484.617.487 1.11l.002.011c0 .759-.526 1.352-1.315 1.54v.45a.4.4 0 0 1-.113.275l-.002.004-.001-.001a.4.4 0 0 1-.277.117h-.39a.396.396 0 0 1-.394-.395V8.42q-.56-.115-.9-.441a1.65 1.65 0 0 1-.472-.93V7.04a.4.4 0 0 1 .087-.302.4.4 0 0 1 .291-.134h.443l.069.006a.4.4 0 0 1 .315.309l.001.003.03.115a.5.5 0 0 0 .166.253c.103.083.28.151.59.151a.78.78 0 0 0 .493-.148.44.44 0 0 0 .167-.35c0-.17-.04-.243-.117-.3-.1-.075-.292-.14-.657-.2l-.391-.066c-.371-.077-.68-.192-.911-.373-.324-.254-.471-.614-.471-1.086 0-.724.508-1.276 1.267-1.445v-.435c0-.105.044-.203.114-.274l.003-.004a.4.4 0 0 1 .278-.116z"/></svg>