<svg xmlns="http://www.w3.org/2000/svg" fill="none" viewBox="0 0 16 16"><path fill="#0A0B0D" d="M6.393 3.146a5.05 5.05 0 0 0-3.444 4.789 5.05 5.05 0 0 0 3.444 4.788v1.665a6.65 6.65 0 0 1-5.044-6.453A6.654 6.654 0 0 1 6.393 1.48zM9.61 1.48a6.653 6.653 0 0 1 0 12.907v-1.665a5.05 5.05 0 0 0 3.44-4.787 5.05 5.05 0 0 0-3.44-4.788z"/><path fill="#0A0B0D" d="M8.3 3.491c.117 0 .223.037.31.095l.08.065.074.087a.56.56 0 0 1 .095.312v.594c.356.095.667.254.92.484a2 2 0 0 1 .569.94l.042.163.003.012a.55.55 0 0 1-.123.445.5.5 0 0 1-.194.143.6.6 0 0 1-.224.046h-.544a.56.56 0 0 1-.538-.402l-.001-.004c-.056-.193-.144-.304-.255-.374-.12-.075-.301-.125-.58-.125-.3 0-.485.068-.587.15-.093.072-.149.18-.149.346 0 .2.039.273.117.335.115.089.358.181.88.257.718.098 1.324.256 1.751.584.449.343.66.84.663 1.502l.003.019c0 1.022-.702 1.818-1.753 2.08v.573a.56.56 0 0 1-.16.39v.001a.55.55 0 0 1-.398.169h-.519a.56.56 0 0 1-.39-.161q-.001-.003-.004-.004a.56.56 0 0 1-.164-.395v-.566q-.738-.158-1.19-.59c-.354-.338-.555-.775-.64-1.257l-.001-.014a.55.55 0 0 1 .124-.428l.088-.083a.56.56 0 0 1 .326-.109h.59a.56.56 0 0 1 .52.359l.026.088v.005c.043.215.121.367.25.47.13.105.356.196.766.196.282 0 .497-.08.636-.192a.55.55 0 0 0 .21-.441c0-.22-.05-.305-.142-.373-.128-.095-.377-.181-.868-.26-.73-.1-1.328-.266-1.745-.593-.442-.345-.64-.837-.64-1.473 0-.976.68-1.718 1.69-1.953V4.05a.56.56 0 0 1 .558-.559z"/></svg>