<svg xmlns="http://www.w3.org/2000/svg" fill="none" viewBox="0 0 16 16"><path fill="#0A0B0D" d="M6.309 2.961a5.32 5.32 0 0 0-3.624 5.04 5.32 5.32 0 0 0 3.624 5.039v1.752A7 7 0 0 1 1 8.001a7 7 0 0 1 5.309-6.793zm3.385-1.753a7.002 7.002 0 0 1 0 13.585v-1.754A5.32 5.32 0 0 0 13.316 8a5.32 5.32 0 0 0-3.622-5.039z"/><path fill="#0A0B0D" d="M8.317 3.324c.122 0 .233.039.325.1l.085.068.077.092a.6.6 0 0 1 .101.328v.625c.374.1.702.268.967.51.286.26.485.594.6.988l.044.173.003.012a.58.58 0 0 1-.13.469.6.6 0 0 1-.203.15.6.6 0 0 1-.237.048h-.572a.59.59 0 0 1-.566-.423l-.002-.004c-.059-.203-.15-.32-.268-.394-.126-.079-.317-.131-.61-.131-.316 0-.51.071-.618.157-.098.077-.156.19-.156.365 0 .21.04.288.123.352.12.094.376.192.925.27.757.104 1.394.27 1.844.615.472.362.693.884.698 1.582l.003.02c0 1.075-.74 1.913-1.845 2.188v.604a.6.6 0 0 1-.17.41l.001.001a.58.58 0 0 1-.419.178h-.546a.6.6 0 0 1-.41-.17l-.005-.004a.58.58 0 0 1-.173-.415v-.596c-.517-.109-.935-.319-1.253-.622-.371-.355-.583-.815-.672-1.322l-.002-.015a.58.58 0 0 1 .13-.45l.094-.088a.6.6 0 0 1 .343-.114h.62a.59.59 0 0 1 .548.378l.028.092v.005c.045.227.127.387.262.496.137.11.375.205.807.205.297 0 .523-.084.669-.201a.57.57 0 0 0 .221-.465c0-.23-.053-.321-.15-.392-.134-.1-.396-.19-.913-.275-.768-.104-1.397-.28-1.837-.623-.465-.364-.674-.88-.674-1.55 0-1.028.716-1.809 1.78-2.056v-.583a.59.59 0 0 1 .587-.588z"/></svg>