<svg xmlns="http://www.w3.org/2000/svg" fill="none" viewBox="0 0 16 16"><path fill="#0A0B0D" d="M6.309 3.295a5.002 5.002 0 0 0 0 9.411v2.086A7 7 0 0 1 1 8a7 7 0 0 1 5.309-6.793zm3.384-2.087a7 7 0 0 1 0 13.584v-2.086a5.002 5.002 0 0 0 0-9.41z"/><path fill="#0A0B0D" d="M8.318 3.219c.145 0 .276.046.383.118l.1.08.092.108a.7.7 0 0 1 .118.387v.544c.356.106.672.275.933.513.301.275.511.626.63 1.037l.045.18.004.017a.7.7 0 0 1-.152.554.67.67 0 0 1-.52.237h-.573a.7.7 0 0 1-.414-.139l-.008-.005-.002-.001a.7.7 0 0 1-.243-.353l-.002-.007c-.053-.182-.132-.277-.223-.334-.103-.064-.272-.114-.554-.114-.301 0-.469.068-.552.134-.07.054-.117.135-.117.282 0 .194.036.233.083.27.097.075.327.17.874.248.76.104 1.422.274 1.895.636.493.379.722.921.736 1.622q.005.03.005.063c0 1.105-.745 1.962-1.845 2.268v.525a.7.7 0 0 1-.204.49l-.002-.002a.7.7 0 0 1-.487.206h-.546a.7.7 0 0 1-.483-.199l-.006-.005a.7.7 0 0 1-.204-.49v-.513q-.744-.176-1.22-.63c-.392-.373-.612-.854-.703-1.379l-.004-.02a.7.7 0 0 1 .156-.532l.054-.056a.7.7 0 0 1 .158-.107l-.002-.002a.65.65 0 0 1 .306-.073h.62c.127 0 .246.036.346.094l.093.064.088.086q.077.092.119.2l.033.109v.006c.043.212.116.346.225.434.112.09.323.182.74.182.278 0 .48-.077.604-.177a.47.47 0 0 0 .181-.383c0-.21-.045-.264-.106-.309-.111-.082-.348-.17-.857-.253l-.285-.043c-.651-.109-1.204-.285-1.61-.602-.497-.388-.716-.94-.716-1.634 0-1.058.722-1.86 1.78-2.137v-.502c0-.185.077-.357.198-.482l.006-.007a.7.7 0 0 1 .49-.204z"/></svg>