<svg xmlns="http://www.w3.org/2000/svg" fill="none" viewBox="0 0 24 24"><path fill="#0A0B0D" d="M14.413 2.32c4.343 1.079 7.563 5.003 7.564 9.68l-.014.514c-.226 4.448-3.367 8.128-7.55 9.168v-2.713A7.38 7.38 0 0 0 19.376 12a7.38 7.38 0 0 0-4.963-6.97zM9.588 5.028a7.377 7.377 0 0 0 0 13.941v2.712C5.244 20.6 2.024 16.678 2.023 12c0-4.678 3.22-8.603 7.565-9.682z"/><path fill="#0A0B0D" d="M12.45 5.385c.219 0 .412.093.551.226a.78.78 0 0 1 .238.563v.928c.543.14 1.014.379 1.394.725.4.365.68.832.84 1.387l.062.243.004.016q.03.174-.02.34a.75.75 0 0 1-.426.486.8.8 0 0 1-.315.065h-.817a.78.78 0 0 1-.472-.158l-.006-.004-.003-.002a.8.8 0 0 1-.278-.403L13.2 9.79c-.087-.299-.224-.476-.403-.589-.19-.12-.473-.194-.897-.194-.456 0-.745.103-.91.234-.153.12-.243.297-.243.559 0 .307.06.436.195.542.183.142.557.282 1.338.394 1.078.148 1.979.384 2.61.867.652.5.962 1.221.973 2.193q.004.024.005.05c0 1.517-1.05 2.704-2.629 3.08v.9a.8.8 0 0 1-.227.55v.001a.78.78 0 0 1-.562.238h-.776a.79.79 0 0 1-.79-.789v-.89c-.747-.15-1.347-.45-1.8-.882-.52-.498-.817-1.143-.942-1.857l-.003-.018a.78.78 0 0 1 .174-.604l.061-.063a.78.78 0 0 1 .522-.206h.885c.143 0 .278.04.392.106l.107.074.098.097q.089.106.137.229l.037.125v.005l.06.23c.071.215.177.381.33.505.207.167.56.304 1.182.304.432 0 .767-.121.985-.297a.87.87 0 0 0 .333-.702c0-.339-.078-.485-.231-.6-.203-.15-.588-.28-1.325-.4-1.093-.148-1.98-.396-2.595-.877-.648-.507-.941-1.228-.941-2.171 0-1.448 1.016-2.553 2.535-2.891v-.87a.79.79 0 0 1 .789-.788z"/></svg>