<svg xmlns="http://www.w3.org/2000/svg" fill="none" viewBox="0 0 12 12"><path fill="#0A0B0D" d="M4.791 2.4a3.798 3.798 0 0 0 0 7.2v1.252a5 5 0 0 1-3.783-4.594L1 6.001a5.004 5.004 0 0 1 3.791-4.853zM7.21 1.148A5 5 0 0 1 11 6l-.006.257A5 5 0 0 1 7.21 10.85V9.6a3.8 3.8 0 0 0 2.588-3.598 3.8 3.8 0 0 0-2.588-3.6z"/><path fill="#0A0B0D" d="M6.226 2.735a.35.35 0 0 1 .345.345v.507c.28.067.523.183.715.358q.29.265.407.673l.03.118v.006a.32.32 0 0 1-.075.273.33.33 0 0 1-.256.116h-.41a.34.34 0 0 1-.206-.07l-.004-.003a.35.35 0 0 1-.121-.177l-.001-.003a.53.53 0 0 0-.224-.324c-.106-.066-.259-.105-.476-.105-.235 0-.392.054-.487.129a.38.38 0 0 0-.141.32c0 .16.032.245.117.311.103.08.303.151.696.208.539.073.977.19 1.282.424.316.242.467.591.47 1.074l.001.01c0 .746-.524 1.33-1.317 1.504v.49a.347.347 0 0 1-.345.346h-.39a.35.35 0 0 1-.345-.345v-.49c-.386-.071-.691-.219-.918-.435-.252-.24-.396-.554-.457-.904l-.002-.006v-.001a.34.34 0 0 1 .077-.263.33.33 0 0 1 .254-.117h.443a.35.35 0 0 1 .337.276v.002c.035.172.098.306.213.398.116.094.306.163.625.163a.83.83 0 0 0 .524-.16.49.49 0 0 0 .186-.39c0-.18-.043-.271-.137-.341-.112-.083-.314-.15-.681-.21-.548-.075-.983-.197-1.281-.43-.31-.243-.453-.587-.454-1.049 0-.71.507-1.253 1.271-1.408V3.08a.35.35 0 0 1 .346-.345z"/></svg>