<svg xmlns="http://www.w3.org/2000/svg" fill="none" viewBox="0 0 12 12"><path fill="#0A0B0D" d="M1.365 7.73a7.6 7.6 0 0 1 .864-1.748 9.3 9.3 0 0 1-.864-1.721C.292 1.639 1.59.329 4.268 1.333c.567.236 1.149.552 1.72.93a10.5 10.5 0 0 1 1.721-.93c2.677-1.004 3.976.306 2.904 2.928a9.3 9.3 0 0 1-.864 1.721c.377.58.675 1.17.864 1.748 1.072 2.622-.227 3.932-2.904 2.927a7.8 7.8 0 0 1-1.72-.847 7.8 7.8 0 0 1-1.72.847C1.59 11.662.291 10.352 1.364 7.73m1.14.373-.013.041-.016.04c-.228.556-.294.96-.287 1.218a.8.8 0 0 0 .04.246.2.2 0 0 0 .034.06c.002.003.07.073.328.086.27.012.686-.046 1.256-.26l.02-.008.022-.007a6 6 0 0 0 1.05-.477 13.2 13.2 0 0 1-1.955-1.995 6 6 0 0 0-.479 1.056m.497-3.166a14 14 0 0 1 1.946-1.912 9 9 0 0 0-1.12-.576c-.56-.207-.97-.265-1.237-.252-.259.012-.326.083-.328.085a.2.2 0 0 0-.034.06.8.8 0 0 0-.04.246c-.007.26.06.663.287 1.218l.007.02.008.02q.2.537.511 1.091M8.15 2.45a9 9 0 0 0-1.12.576 14 14 0 0 1 1.945 1.912q.312-.554.512-1.092l.007-.02.008-.019c.227-.555.293-.959.286-1.218a.8.8 0 0 0-.04-.246.2.2 0 0 0-.033-.06c-.002-.002-.07-.073-.328-.085-.267-.013-.677.045-1.237.252m1.322 5.654a6 6 0 0 0-.479-1.056 13.2 13.2 0 0 1-1.955 1.995c.361.204.714.365 1.05.477l.022.007.02.008c.57.214.986.272 1.257.26.258-.013.326-.083.328-.086a.2.2 0 0 0 .034-.06.8.8 0 0 0 .04-.246c.006-.259-.06-.662-.287-1.218l-.016-.04zM6.858 6.867c.508-.459.508-1.239 0-1.743-.462-.505-1.247-.505-1.755 0-.462.504-.508 1.284 0 1.743.462.504 1.247.504 1.755 0"/></svg>