<svg xmlns="http://www.w3.org/2000/svg" fill="none" viewBox="0 0 12 12"><path fill="#0A0B0D" d="M9.509 3.977a2.01 2.01 0 0 0-.77-2.711 2.04 2.04 0 0 0-2.75.693 2.04 2.04 0 0 0-2.75-.693 2.01 2.01 0 0 0-.77 2.711 2.026 2.026 0 0 0-1.98 2.018c0 1.097.882 1.99 1.98 2.018a2.01 2.01 0 0 0 .77 2.712 2.04 2.04 0 0 0 2.75-.694 2.04 2.04 0 0 0 2.75.694 2.01 2.01 0 0 0 .77-2.712 2.026 2.026 0 0 0 1.98-2.018c0-1.096-.883-1.99-1.98-2.018m-.848-.956a4 4 0 0 0-1.413-.812.95.95 0 0 1 .944-.003c.302.174.471.49.47.815m-2.672 4.9a2.03 2.03 0 0 0-1.68-.963 2 2 0 0 0 0-1.926 2.03 2.03 0 0 0 1.68-.964 2.03 2.03 0 0 0 1.68.963 2 2 0 0 0 0 1.928 2.03 2.03 0 0 0-1.68.963m-2.02.168a.94.94 0 0 1 .756.08.93.93 0 0 1 .448.61 2.9 2.9 0 0 1-1.204-.69m-.652.88c.405.36.885.639 1.413.812a.95.95 0 0 1-.944.003.93.93 0 0 1-.47-.815m4.875.815a.95.95 0 0 1-.944-.003 4 4 0 0 0 1.413-.812.93.93 0 0 1-.47.815M6.805 8.78a.93.93 0 0 1 .448-.61.94.94 0 0 1 .756-.08 2.9 2.9 0 0 1-1.204.69m2.02-2.094a.927.927 0 0 1 0-1.381 2.9 2.9 0 0 1 0 1.38m1.095.12a4 4 0 0 0 0-1.621c.283.16.475.464.475.81s-.192.65-.475.81M6.805 3.21c.458.132.869.372 1.204.69a.94.94 0 0 1-.756-.08.93.93 0 0 1-.448-.61m-3.488-.19a.93.93 0 0 1 .469-.814.95.95 0 0 1 .944.002 4 4 0 0 0-1.413.812M1.583 5.995a.93.93 0 0 1 .475-.81 4 4 0 0 0 0 1.62.93.93 0 0 1-.475-.81m1.486 0q.001-.358.083-.69a.927.927 0 0 1 0 1.38 3 3 0 0 1-.083-.69m2.104-2.784a.93.93 0 0 1-.448.61.94.94 0 0 1-.756.08 2.9 2.9 0 0 1 1.204-.69"/></svg>