<svg xmlns="http://www.w3.org/2000/svg" fill="none" viewBox="0 0 24 24"><path fill="#0A0B0D" d="m18.917 8.018.002.003.07-.001c2.207 0 4 1.781 4 3.975s-1.793 3.975-4 3.975h-.07l-.002.002.036.06a3.964 3.964 0 0 1-1.464 5.43 4.014 4.014 0 0 1-5.464-1.455l-.036-.061h-.001l-.035.061c-1.104 1.9-3.552 2.552-5.464 1.455a3.964 3.964 0 0 1-1.429-5.49l-.001-.002h-.07c-2.208 0-4-1.78-4-3.975 0-2.194 1.792-3.975 4-3.975h.07l.001-.002-.035-.06a3.964 3.964 0 0 1 1.464-5.43c1.912-1.097 4.36-.445 5.464 1.455l.035.062h.002l.035-.062c1.104-1.9 3.552-2.552 5.464-1.455a3.964 3.964 0 0 1 1.428 5.49m-4.626-3.64a8 8 0 0 1 3.183 1.83 1.99 1.99 0 0 0-.985-1.959 2.01 2.01 0 0 0-2.198.13M4.2 10.169a1.99 1.99 0 0 0-1.212 1.827c0 .819.5 1.523 1.212 1.827a7.9 7.9 0 0 1 0-3.654m2 3.407a1.98 1.98 0 0 0 0-3.16 5.94 5.94 0 0 0 0 3.16m2.215.47a4 4 0 0 1 3.573 2.05 4 4 0 0 1 3.573-2.05 3.94 3.94 0 0 1-.573-2.05c0-.75.21-1.451.573-2.05a4 4 0 0 1-3.573-2.05 4 4 0 0 1-3.573 2.05c.363.599.573 1.3.573 2.05s-.21 1.452-.573 2.05M9.489 16.3a2.01 2.01 0 0 0-1.769-.113 6 6 0 0 0 2.752 1.58 1.99 1.99 0 0 0-.983-1.467m.198 3.313a8 8 0 0 1-3.184-1.83c-.092.766.272 1.55.986 1.96.713.408 1.576.33 2.198-.13m4.604 0c.621.46 1.485.538 2.198.13a1.99 1.99 0 0 0 .985-1.96 8 8 0 0 1-3.183 1.83m1.967-3.426a2.01 2.01 0 0 0-1.77.113c-.56.321-.905.874-.982 1.467a6 6 0 0 0 2.752-1.58m.73-4.19c0 .643.31 1.215.788 1.579a5.93 5.93 0 0 0 0-3.16 1.98 1.98 0 0 0-.787 1.58m3 0c0 .628-.073 1.24-.212 1.826a1.99 1.99 0 0 0 1.213-1.827c0-.818-.5-1.522-1.213-1.827q.212.882.213 1.827m-3.73-4.191a6 6 0 0 0-2.752-1.58c.077.593.422 1.145.983 1.467a2.01 2.01 0 0 0 1.768.113M6.502 6.208a8 8 0 0 1 3.184-1.83 2.01 2.01 0 0 0-2.198-.129 1.99 1.99 0 0 0-.986 1.96M7.72 7.805c.556.23 1.209.208 1.769-.113.56-.322.905-.874.983-1.467a6 6 0 0 0-2.752 1.58"/></svg>