<svg xmlns="http://www.w3.org/2000/svg" fill="none" viewBox="0 0 16 16"><path fill="#0A0B0D" d="m7.989 2.587.062-.115a2.697 2.697 0 0 1 3.689-.99 2.71 2.71 0 0 1 .92 3.81q.065-.004.13-.004c1.49 0 2.7 1.213 2.7 2.707a2.705 2.705 0 0 1-2.83 2.704l.068.112a2.71 2.71 0 0 1-.988 3.698 2.697 2.697 0 0 1-3.751-1.106q-.03.058-.063.115a2.697 2.697 0 0 1-3.688.99 2.71 2.71 0 0 1-.92-3.809l-.13.003a2.704 2.704 0 0 1-2.7-2.707 2.705 2.705 0 0 1 2.83-2.704L3.25 5.18a2.71 2.71 0 0 1 .988-3.698 2.697 2.697 0 0 1 3.75 1.106m1.175.53a1.4 1.4 0 0 0-.091.187 4.8 4.8 0 0 1 2.425 1.405 1.422 1.422 0 0 0-.4-2.112 1.415 1.415 0 0 0-1.934.52M12.582 9.4q.102.016.207.016a1.419 1.419 0 1 0-.207-2.824c.135.444.207.916.207 1.404 0 .489-.072.96-.207 1.404m-3.42 3.475a1.417 1.417 0 0 0 1.935.52 1.423 1.423 0 0 0 .4-2.113 4.8 4.8 0 0 1-2.425 1.405q.037.096.09.188M4.48 11.281a1.423 1.423 0 0 0 .4 2.113 1.415 1.415 0 0 0 2.025-.708 4.8 4.8 0 0 1-2.425-1.405M3.187 6.576a1.419 1.419 0 1 0 .208 2.823 4.8 4.8 0 0 1-.208-1.404c0-.488.073-.96.208-1.404a1.4 1.4 0 0 0-.208-.015M4.48 4.709a4.8 4.8 0 0 1 2.425-1.405 1.415 1.415 0 0 0-2.025-.707 1.423 1.423 0 0 0-.4 2.112m3.509.449c-.233.423-.581.79-1.03 1.05-.447.26-.938.378-1.421.368.25.415.393.9.393 1.42 0 .518-.144 1.004-.393 1.418a2.73 2.73 0 0 1 2.45 1.419 2.73 2.73 0 0 1 2.452-1.42c-.25-.413-.393-.899-.393-1.418s.143-1.004.393-1.419a2.7 2.7 0 0 1-1.422-.368 2.73 2.73 0 0 1-1.03-1.05"/></svg>