<svg xmlns="http://www.w3.org/2000/svg" fill="none" viewBox="0 0 16 16"><path fill="#0A0B0D" d="M8.977 3.94c.783.191 1.48.605 2.019 1.17a1.41 1.41 0 0 1-1.315-.054 1.42 1.42 0 0 1-.704-1.116M7 3.94c-.037.45-.285.874-.704 1.116a1.41 1.41 0 0 1-1.314.054A4.16 4.16 0 0 1 7 3.94m.961-1.403-.036-.065a2.696 2.696 0 0 0-3.687-.99 2.71 2.71 0 0 0-.95 3.76l-.028.048h-.074A2.704 2.704 0 0 0 .487 7.994 2.704 2.704 0 0 0 3.26 10.7l.028.049-.038.064a2.71 2.71 0 0 0 .988 3.696 2.696 2.696 0 0 0 3.723-1.056h.055l.037.066a2.696 2.696 0 0 0 3.687.99 2.71 2.71 0 0 0 .95-3.76l.028-.049.074.001a2.704 2.704 0 0 0 2.699-2.706 2.704 2.704 0 0 0-2.773-2.705l-.028-.048.037-.064a2.71 2.71 0 0 0-.987-3.697 2.696 2.696 0 0 0-3.724 1.056zm1.51.205a1.417 1.417 0 0 1 2.314 1.341 5.4 5.4 0 0 0-2.314-1.34m2.515 4.084a4.2 4.2 0 0 1 0 2.338 1.422 1.422 0 0 1 0-2.338m1.28 2.509a5.5 5.5 0 0 0 0-2.68 1.423 1.423 0 0 1 0 2.68m-2.27 1.546a4.16 4.16 0 0 1-2.019 1.17c.037-.45.286-.874.704-1.117a1.41 1.41 0 0 1 1.315-.053m-1.525 2.367a5.44 5.44 0 0 0 2.314-1.341 1.417 1.417 0 0 1-2.314 1.341M7 12.05a4.16 4.16 0 0 1-2.02-1.17 1.41 1.41 0 0 1 1.315.054c.419.243.667.667.704 1.116m-2.808-.143a5.4 5.4 0 0 0 2.314 1.341 1.417 1.417 0 0 1-2.314-1.341M3.99 9.164a4.2 4.2 0 0 1 0-2.338 1.422 1.422 0 0 1 0 2.338M2.711 6.656a5.5 5.5 0 0 0 0 2.679 1.423 1.423 0 0 1 0-2.68m3.796-3.914a5.4 5.4 0 0 0-2.314 1.341 1.417 1.417 0 0 1 2.314-1.341m3.586 5.253c0 .541.158 1.045.431 1.468a2.69 2.69 0 0 0-2.536 1.468 2.69 2.69 0 0 0-2.535-1.468c.273-.423.432-.927.432-1.468s-.159-1.045-.432-1.468a2.7 2.7 0 0 0 1.484-.359c.467-.27.823-.66 1.052-1.109A2.7 2.7 0 0 0 9.04 6.17c.467.27.982.384 1.483.358a2.7 2.7 0 0 0-.431 1.468"/></svg>