<svg xmlns="http://www.w3.org/2000/svg" fill="none" viewBox="0 0 12 12"><path fill="#0A0B0D" d="M6.489.495h-1l-.3.854a.57.57 0 0 1-.35.402.59.59 0 0 1-.5-.05l-.8-.402-.7.753.4.804c.1.2.1.352.05.552-.1.151-.25.302-.45.352l-.85.301v.704H5.16a.898.898 0 0 1 .828-1.104.898.898 0 0 1 .828 1.104h3.172V4.06l-.85-.301c-.2-.05-.35-.2-.45-.352a.7.7 0 0 1 .05-.552l.4-.804-.7-.753-.8.402c-.15.1-.35.1-.5.05s-.3-.201-.35-.402zm-5.5 11V5.97h10v5.525zm3.3-4.119-.8.402-.652-.602h-.648v3.114h7.6V7.176h-.651l-.722.714-.677-.514c-.186-.136-.35-.15-.55-.05-.15.05-.3.201-.35.402l-.3.854h-1l-.3-.854c-.1-.15-.2-.301-.4-.402-.2-.05-.35-.05-.55.05"/></svg>