<svg xmlns="http://www.w3.org/2000/svg" fill="none" viewBox="0 0 24 24"><path fill="#0A0B0D" d="M12.989.995h-2l-.6 1.72c-.1.404-.4.707-.7.808s-.7.101-1-.1l-1.6-.81-1.4 1.517.8 1.618c.2.404.2.708.1 1.112-.2.304-.5.607-.9.708l-1.7.607v1.82h6.485a1.84 1.84 0 0 1-.185-.809c0-.977.747-1.766 1.7-1.817.953.051 1.7.84 1.7 1.817 0 .291-.067.566-.185.81h6.485V8.174l-1.7-.607c-.4-.1-.7-.404-.9-.708-.1-.404-.1-.708.1-1.112l.8-1.618-1.4-1.517-1.6.81c-.3.201-.7.201-1 .1-.3-.1-.6-.404-.7-.809zm-11 22v-11h20v11zm6.6-8.2-1.6.8-1.74-1.6H3.99v7h16v-7h-1.295l-1.605 1.6-1.6-.8c-.3-.3-.7-.3-1.1-.1-.3.1-.6.4-.7.8l-.6 1.7h-2l-.6-1.7c-.2-.3-.4-.6-.8-.8-.4-.1-.7-.1-1.1.1"/></svg>