<svg xmlns="http://www.w3.org/2000/svg" fill="none" viewBox="0 0 16 16"><path fill="#0A0B0D" d="M8.736.995H7.242L6.834 2.15a.78.78 0 0 1-.475.543c-.204.068-.475.068-.679-.068l-1.086-.543-.95 1.018.542 1.087c.136.271.136.475.068.746-.136.204-.34.408-.61.476l-1.155.407v.58H6.77a1.217 1.217 0 0 1 1.218-1.123c.645 0 1.168.49 1.218 1.122h4.282v-.579l-1.155-.407c-.271-.068-.475-.272-.61-.476-.069-.271-.069-.475.067-.746l.543-1.087-.95-1.018-1.087.543c-.203.136-.475.136-.679.068a.78.78 0 0 1-.475-.543zm-7.747 7v7h14v-7zm3.537 2.846 1.086-.543c.272-.136.475-.136.747-.068.272.136.407.34.543.543l.408 1.154h1.358l.407-1.154a.78.78 0 0 1 .475-.543c.272-.136.544-.136.747.068l1.087.543 1.188-1.246h.817v3.8h-10.8v-3.8h.771z"/></svg>