<svg xmlns="http://www.w3.org/2000/svg" fill="none" viewBox="0 0 12 12"><path fill="#0A0B0D" d="m2.789 6.397.15.477a1.336 1.336 0 1 0 1.738 1.328.5.5 0 0 1 .51-.479l2.64.046a.943.943 0 1 1 .1 1.001l-2.323-.04q-.082.321-.259.62a2.335 2.335 0 1 1-2.708-3.428zm2.866-3.8a.942.942 0 0 1 1.263 1.314l1.125 2.03a2.335 2.335 0 1 1-.947 3.973l.336-.368.338-.37a1.336 1.336 0 1 0 .281-2.17.5.5 0 0 1-.67-.199L6.026 4.362a.944.944 0 0 1-.372-1.765M4.98 1.382a2.336 2.336 0 0 1 3.413 2.545l-.976-.215a1.336 1.336 0 1 0-2.019.84.5.5 0 0 1 .16.68L4.14 7.591a.943.943 0 1 1-.906-.43l1.245-2.07a2.336 2.336 0 0 1 .502-3.71"/></svg>