<svg xmlns="http://www.w3.org/2000/svg" fill="none" viewBox="0 0 24 24"><path fill="#0A0B0D" d="m5.578 12.796.27.857a2.772 2.772 0 1 0 3.214 4.07c.243-.404.376-.897.394-1.358a.9.9 0 0 1 .9-.864l5.316-.002a1.887 1.887 0 1 1 1.635 2.769 1.89 1.89 0 0 1-1.614-.968h-4.554a4.6 4.6 0 0 1-.534 1.349 4.572 4.572 0 1 1-5.3-6.712zm5.732-7.6a1.888 1.888 0 0 1 2.498 2.677l2.238 4.124a4.572 4.572 0 0 1 5.866 4.463 4.571 4.571 0 0 1-7.654 3.295l1.215-1.329a2.77 2.77 0 1 0 .582-4.501.9.9 0 0 1-1.209-.368l-2.62-4.824a1.886 1.886 0 0 1-.916-3.538m-1.301-2.347a4.571 4.571 0 0 1 6.68 4.98l-1.758-.388a2.77 2.77 0 1 0-4.19 1.746.9.9 0 0 1 .301 1.208l-2.748 4.812a1.887 1.887 0 1 1-1.559-.9l2.36-4.13a4.57 4.57 0 0 1 .914-7.329"/></svg>