<svg xmlns="http://www.w3.org/2000/svg" fill="none" viewBox="0 0 24 24"><path fill="#0A0B0D" d="m5.577 12.796.347 1.096a2.522 2.522 0 1 0 2.923 3.702c.22-.364.342-.816.36-1.24a1.15 1.15 0 0 1 1.148-1.104h5.475a1.888 1.888 0 1 1 .028 2.3h-4.524c-.113.42-.281.84-.515 1.228a4.821 4.821 0 1 1-5.589-7.08zm5.732-7.6a1.89 1.89 0 0 1 2.567.736c.298.537.303 1.154.073 1.676l2.223 4.095a4.822 4.822 0 1 1-2.081 8.237l1.55-1.698a2.521 2.521 0 1 0 .53-4.096 1.15 1.15 0 0 1-1.544-.47L11.93 8.71a1.888 1.888 0 0 1-.62-3.514M9.89 2.63a4.82 4.82 0 0 1 7.044 5.253l-2.246-.495a2.521 2.521 0 1 0-3.812 1.588 1.15 1.15 0 0 1 .384 1.543l-2.83 4.956c.22.533.196 1.16-.124 1.692a1.888 1.888 0 1 1-1.869-2.843l2.346-4.105a4.82 4.82 0 0 1 1.106-7.59"/></svg>