<svg xmlns="http://www.w3.org/2000/svg" fill="none" viewBox="0 0 16 16"><path fill="#0A0B0D" d="m3.718 8.531.242.762a1.649 1.649 0 1 0 1.91 2.42c.142-.238.223-.534.234-.812a.8.8 0 0 1 .8-.767l3.675-.001a1.257 1.257 0 0 1 2.24.81 1.259 1.259 0 0 1-2.22.79H7.582a3.2 3.2 0 0 1-.34.804 3.248 3.248 0 1 1-3.765-4.769zM7.54 3.463a1.258 1.258 0 0 1 1.776 1.572l1.481 2.729q.396-.097.821-.091a3.248 3.248 0 1 1-2.247 5.645l.54-.591.54-.59a1.648 1.648 0 1 0 .346-2.676.8.8 0 0 1-1.076-.327L7.911 5.8a1.26 1.26 0 0 1-.371-2.336m-.964-1.738a3.247 3.247 0 0 1 4.745 3.538l-.781-.172-.781-.173a1.647 1.647 0 1 0-2.491 1.039.8.8 0 0 1 .267 1.072l-1.9 3.325a1.26 1.26 0 1 1-1.386-.799l1.564-2.737a3.248 3.248 0 0 1 .763-5.093"/></svg>