<svg xmlns="http://www.w3.org/2000/svg" fill="none" viewBox="0 0 24 24"><path fill="#0A0B0D" d="M19.989 11.995c0 5.523-4.477 10-10 10v-2a8 8 0 0 0 0-16v-2c5.523 0 10 4.477 10 10"/><path fill="#0A0B0D" d="M15.989 11.995a6 6 0 1 1-12 0 6 6 0 0 1 12 0M10.094 9.33a.11.11 0 0 0-.21 0l-.09.282a3.19 3.19 0 0 1-2.376 2.15c-.097.021-.1.161-.002.182a3.08 3.08 0 0 1 2.327 2.18l.133.472a.117.117 0 0 0 .225 0l.133-.473a3.08 3.08 0 0 1 2.328-2.18c.097-.02.095-.16-.003-.18a3.19 3.19 0 0 1-2.376-2.151z"/></svg>