<svg width="64" height="64" viewBox="0 0 64 64" fill="none" xmlns="http://www.w3.org/2000/svg">
<path d="M50 18L32 0L14 18H22V38H42V18H50Z" fill="#56B4FC"/>
<path d="M64 34H0V64H64V34Z" fill="#BFE9FF"/>
<path d="M22 64H42L42 34H22L22 64Z" fill="#1652F0"/>
<path d="M36.4998 51.38C36.4998 49.04 35.0798 48.26 32.3298 47.88C30.2998 47.59 29.9098 47.11 29.9098 46.16C29.9098 45.26 30.5998 44.62 31.9198 44.62C33.2598 44.62 33.9598 45.14 34.1798 46.37H36.1698C35.9798 44.51 34.9098 43.41 33.1098 43.09V41H31.1098V43.05C29.1298 43.33 27.8498 44.65 27.8498 46.34C27.8498 48.53 29.1698 49.38 31.9698 49.76C33.8698 50.07 34.4098 50.48 34.4098 51.56C34.4098 52.64 33.4898 53.36 32.1998 53.36C30.2198 53.36 29.7498 52.38 29.5998 51.2H27.5098C27.6498 53.14 28.7098 54.6 31.1198 54.92V57H33.1198V54.92C35.1798 54.59 36.4998 53.15 36.4998 51.38Z" fill="white"/>
<path d="M57 43H49V45H57V43Z" fill="white"/>
<path d="M57 53H49V55H57V53Z" fill="white"/>
<path d="M60 48H46V50H60V48Z" fill="white"/>
<path d="M7 45L15 45L15 43L7 43L7 45Z" fill="white"/>
<path d="M7 55L15 55L15 53L7 53L7 55Z" fill="white"/>
<path d="M4 50L18 50L18 48L4 48L4 50Z" fill="white"/>
</svg>
