<svg width="64" height="64" viewBox="0 0 64 64" fill="none" xmlns="http://www.w3.org/2000/svg">
<path d="M32 64C49.6731 64 64 49.6731 64 32C64 14.3269 49.6731 0 32 0C14.3269 0 0 14.3269 0 32C0 49.6731 14.3269 64 32 64Z" fill="#00C57F" fill-opacity="0.2"/>
<path d="M32 60C47.464 60 60 47.464 60 32C60 16.536 47.464 4 32 4C16.536 4 4 16.536 4 32C4 47.464 16.536 60 32 60Z" fill="#00C57F"/>
<path d="M46.4095 24.9035L43.5811 22.0751L26.6107 39.0455L29.4391 41.8739L46.4095 24.9035Z" fill="white"/>
<path d="M29.5105 41.9042L32.3389 39.0758L22.4395 29.1764L19.6111 32.0048L29.5105 41.9042Z" fill="white"/>
</svg>
