<svg width="64" height="64" viewBox="0 0 64 64" fill="none" xmlns="http://www.w3.org/2000/svg">
<path d="M38 64H2C0.9 64 0 63.1 0 62V2C0 0.9 0.9 0 2 0H38C39.1 0 40 0.9 40 2V62C40 63.1 39.1 64 38 64Z" fill="#BFE9FF"/>
<path d="M16 60C16 60.55 16.45 61 17 61H23C23.55 61 24 60.55 24 60C24 59.45 23.55 59 23 59H17C16.45 59 16 59.45 16 60Z" fill="#56B4FC"/>
<path d="M20 5C20.5523 5 21 4.55228 21 4C21 3.44772 20.5523 3 20 3C19.4477 3 19 3.44772 19 4C19 4.55228 19.4477 5 20 5Z" fill="#56B4FC"/>
<path d="M40 8H0V56H40V8Z" fill="#56B4FC"/>
<path d="M53 46H6C4.9 46 4 45.1 4 44V20C4 18.9 4.9 18 6 18H53C54.1 18 55 18.9 55 20V44C55 45.1 54.1 46 53 46Z" fill="#56B4FC"/>
<path d="M40 46H6C4.9 46 4 45.1 4 44V20C4 18.9 4.9 18 6 18H40V46Z" fill="#1652F0"/>
<path d="M55 26C59.9706 26 64 21.9706 64 17C64 12.0294 59.9706 8 55 8C50.0294 8 46 12.0294 46 17C46 21.9706 50.0294 26 55 26Z" fill="#FC9390"/>
<path d="M31 25H9V27H31V25Z" fill="white"/>
<path d="M31 31H9V33H31V31Z" fill="white"/>
<path d="M31 37H9V39H31V37Z" fill="white"/>
</svg>
