<svg width="64" height="64" viewBox="0 0 64 64" fill="none" xmlns="http://www.w3.org/2000/svg">
<g clip-path="url(#clip0)">
<path d="M59.5001 9.5C65.6001 15.6 65.6001 25.4 59.5001 31.5L47.1001 43.9L25.1001 21.9L37.5001 9.5C43.6001 3.5 53.4001 3.5 59.5001 9.5Z" fill="#56B4FC"/>
<path d="M4.5 9.50005C10.6 3.40005 20.4 3.40005 26.5 9.50005L40.9 24L18.9 46L4.5 31.5C-1.5 25.4 -1.5 15.6 4.5 9.50005Z" fill="#BFE9FF"/>
<path d="M32.0704 15.0092L10.0796 37L32.0704 58.9908L54.0612 37L32.0704 15.0092Z" fill="#1652F0"/>
<path d="M31.9999 25.4L34.6999 34.3L43.5999 37L34.6999 39.7L31.9999 48.6L29.2999 39.7L20.3999 37L29.2999 34.3L31.9999 25.4Z" fill="white"/>
</g>
<defs>
<clipPath id="clip0">
<rect width="64" height="64" fill="white"/>
</clipPath>
</defs>
</svg>
