<svg xmlns="http://www.w3.org/2000/svg" fill="none" viewBox="0 0 240 240"><path fill="#A5C1FD" d="M240 0v192H0V0h240Z"/><path fill="#588AF5" d="M240 0v16H0V0h240Z"/><path fill="#0A0B0D" d="M12 8a2 2 0 1 1-4 0 2 2 0 0 1 4 0Zm24 0a2 2 0 1 1-4 0 2 2 0 0 1 4 0ZM24 8a2 2 0 1 1-4 0 2 2 0 0 1 4 0Z"/><path fill="#ECD069" d="M168 192c0 26.51-21.49 48-48 48s-48-21.49-48-48 21.49-48 48-48 48 21.49 48 48Z"/><path fill="#588AF5" fill-rule="evenodd" d="M168 192c0-26.51-21.49-48-48-48s-48 21.49-48 48h96Z" clip-rule="evenodd"/><path fill="#FFFFFF" d="M156 192c0 19.882-16.118 36-36 36s-36-16.118-36-36 16.118-36 36-36 36 16.118 36 36Z"/><path fill="#0A0B0D" fill-rule="evenodd" d="M116 206c9.941 0 18-8.059 18-18s-8.059-18-18-18-18 8.059-18 18 8.059 18 18 18Zm0 2c11.046 0 20-8.954 20-20s-8.954-20-20-20-20 8.954-20 20 8.954 20 20 20Z" clip-rule="evenodd"/><path fill="#45DAF6" d="M131 188c0 8.284-6.716 15-15 15-8.284 0-15-6.716-15-15 0-8.284 6.716-15 15-15 8.284 0 15 6.716 15 15Z"/><path fill="#0A0B0D" fill-rule="evenodd" d="m133.586 208.414-6-6 2.828-2.828 6 6-2.828 2.828Z" clip-rule="evenodd"/><path fill="#0A0B0D" fill-rule="evenodd" d="m139.172 216.828-8-8 5.656-5.656 8 8-5.656 5.656Z" clip-rule="evenodd"/><path fill="#588AF5" d="M24 48h88v16H24V48Zm104 0h88v16h-88V48Z"/><path fill="#0A0B0D" fill-rule="evenodd" d="M56 41H24v-2h32v2Zm56 48H80v-2h32v2Zm40 16H80v-2h72v2Zm16 0h48v-2h-48v2Zm-16 16H80v-2h72v2Zm16 0h48v-2h-48v2Z" clip-rule="evenodd"/><path fill="#FFFFFF" d="M24 104c0-13.255 10.745-24 24-24s24 10.745 24 24-10.745 24-24 24-24-10.745-24-24Z"/><path fill="#ECD069" d="M69.892 113.851C66.132 122.193 57.744 128 48 128s-18.132-5.807-21.892-14.149C31.467 107.808 39.288 104 48 104c8.711 0 16.533 3.808 21.892 9.851Z"/><path fill="#0A0B0D" d="M57 92a9 9 0 1 1-18 0 9 9 0 0 1 18 0Z"/></svg>