<svg xmlns="http://www.w3.org/2000/svg" fill="none" viewBox="0 0 240 240"><path fill="#464B55" fill-rule="evenodd" d="M48 200H0c0 22.09 17.91 40 40 40h47v-.012c-21.63-.531-39-18.231-39-39.988ZM87 0H40C17.91 0 0 17.91 0 40h48C48 18.243 65.37.543 87 .012V0Z" clip-rule="evenodd"/><path fill="#A5C1FD" fill-rule="evenodd" d="M0 200V40h240v160h-26c0-25.405-20.595-46-46-46s-46 20.595-46 46H0Z" clip-rule="evenodd"/><path fill="#44C28D" d="M168 240c22.091 0 40-17.909 40-40s-17.909-40-40-40-40 17.909-40 40 17.909 40 40 40Z"/><path fill="#588AF5" d="M0 40v160h48V40H0Z"/><path fill="#0A0B0D" fill-rule="evenodd" d="M120 178H0v-2h120v2Z" clip-rule="evenodd"/><path fill="#0A0B0D" fill-rule="evenodd" d="M98.077 153.663 121.414 177l-23.337 23.337-1.414-1.414L118.586 177l-21.923-21.923 1.414-1.414Z" clip-rule="evenodd"/><path fill="#588AF5" d="M240 56H48v32h192V56Z"/><path fill="#0A0B0D" d="M0 88h48V56H0v32Z"/><path fill="#0A0B0D" fill-rule="evenodd" d="M167 216v-32h2v32h-2Z" clip-rule="evenodd"/><path fill="#0A0B0D" fill-rule="evenodd" d="M152 199h32v2h-32v-2Z" clip-rule="evenodd"/><path fill="#0A0B0D" d="M48 129H0v8h48v-8Z"/><path fill="#588AF5" d="M48 137h56v-8H48v8Z"/><path fill="#0A0B0D" d="M48 144H0v8h48v-8Z"/><path fill="#588AF5" d="M48 152h24v-8H48v8Z"/></svg>