<svg xmlns="http://www.w3.org/2000/svg" fill="none" viewBox="0 0 240 240"><path fill="#464B55" d="M48 48.32H0v143.76h48zm192 0h-48v143.76h48z"/><path fill="#578BFA" d="M200 32.047H40v176.206h160z"/><path fill="#0A0B0D" d="M200 48.32H40v143.76h160z"/><path fill="#44C28D" d="M96 135.774H64v23.96h32z"/><path fill="#F0616D" d="M136 135.774h-32v39.933h32z"/><path fill="#44C28D" d="M176 103.827h-32v47.92h32z"/><path fill="#FFFFFF" fill-rule="evenodd" d="M80 65.291H56v-1.996h24zm41 62.496v7.987h-2v-7.987zm-40 0v7.987h-2v-7.987zm80-31.947v7.987h-2V95.84zm-80 63.894v7.986h-2v-7.986zm80-7.987v7.987h-2v-7.987zm-40 23.96v7.987h-2v-7.987zM104 73.278H56V71.28h48zm77.265 2.028-126.7 49.517-.73-1.859 126.701-49.518z" clip-rule="evenodd"/><path fill="#FFFFFF" fill-rule="evenodd" d="m180.518 74.58-14.159-5.054.674-1.88 16.041 5.727-5.736 16.015-1.883-.672z" clip-rule="evenodd"/></svg>