<svg xmlns="http://www.w3.org/2000/svg" fill="none" viewBox="0 0 240 240"><path fill="#464B55" d="M48 48.32H0v143.76h48V48.32Zm192 0h-48v143.76h48V48.32Z"/><path fill="#588AF5" d="M200 32.05H40v176.2h160V32.05Z"/><path fill="#0A0B0D" d="M200 48.32H40v143.76h160V48.32Z"/><path fill="#44C28D" d="M96 135.77H64v23.96h32v-23.96Z"/><path fill="#F0616D" d="M136 135.77h-32v39.94h32v-39.94Z"/><path fill="#44C28D" d="M176 103.83h-32v47.92h32v-47.92Z"/><path fill="#FFFFFF" fill-rule="evenodd" d="M80 65.3H56v-2h24v2Zm41 62.49v7.98h-2v-7.98h2Zm-40 0v7.98h-2v-7.98h2Zm80-31.95v7.99h-2v-7.99h2Zm-80 63.89v7.99h-2v-7.99h2Zm80-7.98v7.98h-2v-7.98h2Zm-40 23.95v8h-2v-8h2ZM104 73.28H56v-2h48v2Zm77.26 2.02-126.7 49.52-.72-1.86 126.7-49.51.72 1.86Z" clip-rule="evenodd"/><path fill="#FFFFFF" fill-rule="evenodd" d="m180.52 74.58-14.16-5.05.67-1.88 16.04 5.72-5.73 16.02-1.88-.67 5.06-14.14Z" clip-rule="evenodd"/></svg>