<svg xmlns="http://www.w3.org/2000/svg" fill="none" viewBox="0 0 240 241"><path fill="#464B55" d="M48 48.4H0v144h48v-144Zm192 0h-48v144h48v-144Z"/><path fill="#588AF5" d="M200 32.1H40v176.5h160V32.1Z"/><path fill="#0A0B0D" d="M200 48.4H40v144h160v-144Z"/><path fill="#44C28D" d="M96 136H64v24h32v-24Z"/><path fill="#F0616D" d="M136 136h-32v40h32v-40Z"/><path fill="#44C28D" d="M176 104h-32v48h32v-48Z"/><path fill="#FFFFFF" fill-rule="evenodd" d="M80 65.4H56v-2h24v2Zm41 62.6v8h-2v-8h2Zm-40 0v8h-2v-8h2Zm80-32v8h-2v-8h2Zm-80 64v8h-2v-8h2Zm80-8v8h-2v-8h2Zm-40 24v8h-2v-8h2ZM104 73.4H56v-2h48v2Zm77.265 2.031-126.7 49.6-.73-1.862 126.7-49.6.73 1.862Z" clip-rule="evenodd"/><path fill="#FFFFFF" fill-rule="evenodd" d="m180.522 74.705-14.159-5.063.674-1.884 16.041 5.737-5.736 16.042-1.884-.674 5.064-14.158Z" clip-rule="evenodd"/></svg>