<svg xmlns="http://www.w3.org/2000/svg" fill="none" viewBox="0 0 240 240"><path fill="#464B55" fill-rule="evenodd" d="m85.32 79.768 79.943 140.061 69.479-39.658-79.944-140.06z" clip-rule="evenodd"/><path fill="#44C28D" fill-rule="evenodd" d="M228.284 228.284a39.996 39.996 0 0 1-56.568 0 39.996 39.996 0 0 1 0-56.568 39.996 39.996 0 0 1 56.568 0 39.996 39.996 0 0 1 0 56.568" clip-rule="evenodd"/><path fill="#464B55" fill-rule="evenodd" d="M154.743 79.768 74.799 219.83 5.32 180.171l79.944-140.06z" clip-rule="evenodd"/><path fill="#0A0B0D" fill-rule="evenodd" d="m95.884 102.473-54.952 98.016-1.745-.978 54.953-98.017zm47.088.774 32.261 56.347 1.736-.994-32.262-56.346z" clip-rule="evenodd"/><path fill="#578BFA" d="m120.031 140.581 34.711-60.813-34.711-19.812-34.71 19.812z"/><path fill="#FFFFFF" fill-rule="evenodd" d="M68.284 228.284a40 40 0 0 1-56.568 0 40 40 0 0 1 0-56.568 40 40 0 0 1 56.568 0 40 40 0 0 1 0 56.568" clip-rule="evenodd"/><path fill="#0A0B0D" fill-rule="evenodd" d="M200.484 201.811V216h-2v-14.102l-6.089 6.089-1.415-1.414 6.09-6.089H184v-2h13.156l-6.045-6.367 1.45-1.377 5.923 6.238V184h2v13.07l6.089-6.09 1.414 1.415-6.089 6.089H216v2h-14.009l6.126 5.812-1.377 1.451z" clip-rule="evenodd"/><path fill="#578BFA" fill-rule="evenodd" d="M153.941 27.23a47.999 47.999 0 1 0-67.882 67.882A48 48 0 1 0 153.94 27.23" clip-rule="evenodd"/><path fill="#0A0B0D" fill-rule="evenodd" d="M148.284 32.887A39.998 39.998 0 0 0 80 61.17a40 40 0 1 0 68.284-28.284" clip-rule="evenodd"/><path fill="#FFFFFF" d="M136.211 51.753c-2.017-6.56-8.122-11.331-15.355-11.331-8.87 0-16.059 7.189-16.059 16.059 0 .824.087 1.627.206 2.418-3.709.12-6.69 3.156-6.69 6.897a6.905 6.905 0 0 0 6.907 6.907 6.87 6.87 0 0 0 4.186-1.42V81.92h16.037v-5.573l8.296-1.085a3.826 3.826 0 0 0 3.329-3.795v-8.339l4.619-.987z"/><path fill="#FFFFFF" fill-rule="evenodd" d="M119.673.171a62 62 0 0 1 3.998.11l-.12 1.996a60 60 0 0 0-3.869-.106zm-7.959.556a61 61 0 0 1 3.973-.407l.139 1.995a59 59 0 0 0-3.842.394zm15.929-.08q1.992.249 3.944.624l-.378 1.964a59 59 0 0 0-3.815-.604zM103.895 2.32a61 61 0 0 1 3.882-.925l.399 1.96a59 59 0 0 0-3.754.894zm31.586-.167q1.94.507 3.826 1.136l-.632 1.897a58 58 0 0 0-3.7-1.098zm-39.13 2.774A61 61 0 0 1 100.08 3.5l.654 1.89q-1.83.633-3.606 1.381zm46.701-.252a61 61 0 0 1 3.645 1.63l-.876 1.798a59 59 0 0 0-3.525-1.576zM89.216 8.501a61 61 0 0 1 3.51-1.904l.895 1.788a59 59 0 0 0-3.394 1.842zm61.01-.33a61 61 0 0 1 3.4 2.092l-1.104 1.668a59 59 0 0 0-3.288-2.024zm-67.617 4.804a61 61 0 0 1 3.23-2.345l1.122 1.656a59 59 0 0 0-3.125 2.269zm74.272-.4a61 61 0 0 1 3.097 2.517l-1.311 1.51a60 60 0 0 0-2.996-2.436zM76.639 18.27a61 61 0 0 1 2.9-2.745l1.326 1.496a59 59 0 0 0-2.804 2.655zm86.266-.464a61 61 0 0 1 2.745 2.899l-1.497 1.327a59 59 0 0 0-2.654-2.804zm-91.498 6.488a61 61 0 0 1 2.518-3.097l1.51 1.311A59 59 0 0 0 73 25.504zm96.793-.518a61 61 0 0 1 2.345 3.23l-1.656 1.122a59 59 0 0 0-2.269-3.125zM67.003 30.95a61 61 0 0 1 2.094-3.4l1.667 1.104a59 59 0 0 0-2.024 3.288zm105.671-.566a61 61 0 0 1 1.904 3.51l-1.788.895a59 59 0 0 0-1.842-3.394zm-109.166 7.74a61 61 0 0 1 1.63-3.645l1.798.876a59 59 0 0 0-1.576 3.525zm112.74-.605a61 61 0 0 1 1.428 3.729l-1.891.653a58 58 0 0 0-1.381-3.605zM60.986 45.694a61 61 0 0 1 1.136-3.826l1.898.632a59 59 0 0 0-1.099 3.7zm117.869-.632q.524 1.918.925 3.882l-1.96.4a59 59 0 0 0-.894-3.755zM59.48 53.532q.25-1.992.624-3.944l1.965.378a59 59 0 0 0-.605 3.815zm120.967-.65q.269 1.967.408 3.971l-1.995.14a59 59 0 0 0-.394-3.842zm-121.42 6.62q.027-1.002.087-1.998l1.996.12a60 60 0 0 0-.106 3.868l-2 .01a62 62 0 0 1 .023-2m121.977 1.338a61 61 0 0 1-.11 3.997l-1.996-.119a62 62 0 0 0 .106-3.869zM59.561 69.46a61 61 0 0 1-.408-3.972l1.995-.139q.136 1.938.394 3.842zm120.967-.65a62 62 0 0 1-.624 3.943l-1.964-.377q.362-1.887.604-3.815zM61.153 77.28a61 61 0 0 1-.925-3.882l1.96-.4q.387 1.9.894 3.755zm117.869-.632a61 61 0 0 1-1.136 3.826l-1.898-.632q.608-1.825 1.099-3.7zM63.761 84.824a61 61 0 0 1-1.429-3.73l1.89-.653q.633 1.83 1.382 3.606zm112.739-.605a61 61 0 0 1-1.63 3.645l-1.798-.876a59 59 0 0 0 1.576-3.525zm-109.166 7.74a61 61 0 0 1-1.904-3.51l1.788-.895a59 59 0 0 0 1.842 3.394zm105.671-.566a61 61 0 0 1-2.093 3.4l-1.668-1.104a59 59 0 0 0 2.024-3.288zM71.808 98.566a61 61 0 0 1-2.345-3.23l1.657-1.122a59 59 0 0 0 2.268 3.125zm96.793-.518a61 61 0 0 1-2.518 3.097l-1.51-1.311a60 60 0 0 0 2.436-2.996zm-91.498 6.488a62 62 0 0 1-2.745-2.899l1.497-1.327q1.282 1.445 2.654 2.804zm86.266-.464a62 62 0 0 1-2.899 2.745l-1.327-1.497a59 59 0 0 0 2.804-2.655zm-80.242 5.696a61 61 0 0 1-3.097-2.518l1.311-1.51q1.457 1.266 2.996 2.435zm74.272-.401a61 61 0 0 1-3.23 2.344l-1.122-1.656a59 59 0 0 0 3.125-2.268zm-67.617 4.805a61 61 0 0 1-3.4-2.094l1.104-1.667a59 59 0 0 0 3.288 2.024zm61.01-.331a61 61 0 0 1-3.509 1.904l-.896-1.788a59 59 0 0 0 3.394-1.842zm-53.836 3.826a61 61 0 0 1-3.645-1.63l.876-1.798a59 59 0 0 0 3.525 1.576zm46.701-.253a61 61 0 0 1-3.729 1.429l-.653-1.891a58 58 0 0 0 3.605-1.381zm-39.13 2.775a60 60 0 0 1-3.826-1.136l.632-1.898a59 59 0 0 0 3.7 1.099zm31.586-.167a61 61 0 0 1-3.882.925l-.399-1.96a59 59 0 0 0 3.754-.894zm-23.747 1.673a62 62 0 0 1-3.944-.624l.377-1.965q1.886.363 3.815.605zm15.928-.081a60 60 0 0 1-3.973.408l-.139-1.995a59 59 0 0 0 3.842-.394zm-9.958.534a60 60 0 0 1-1.998-.087l.119-1.996a62 62 0 0 0 3.869.106l.009 2a64 64 0 0 1-1.999-.023" clip-rule="evenodd"/><path fill="#44C28D" d="M36 180H20v40h16zm-4 40h-8v4h8zm0-44h-8v4h8z"/><path fill="#F0616D" d="M60 192H44v16h16zm-4 16h-8v4h8zm0-20h-8v4h8z"/><path fill="#0A0B0D" fill-rule="evenodd" d="M200 169a31 31 0 0 1 21.92 9.08 30.996 30.996 0 0 1 0 43.84 30.996 30.996 0 0 1-43.84 0 30.996 30.996 0 0 1 0-43.84A31 31 0 0 1 200 169m23.335 7.665a33.004 33.004 0 0 0-46.67 0 33.004 33.004 0 0 0 0 46.67 33.004 33.004 0 0 0 46.67 0 33.004 33.004 0 0 0 0-46.67m-63.981-20.517 18.039 2.147-.237 1.986-18.039-2.147z" clip-rule="evenodd"/><path fill="#0A0B0D" fill-rule="evenodd" d="m179.895 143.05-4.564 16.736 1.929.526 4.564-16.736z" clip-rule="evenodd"/></svg>