<svg xmlns="http://www.w3.org/2000/svg" fill="none" viewBox="0 0 240 240"><path fill="#464B55" d="M228.729 230.061h-56.338v-8h48.338V19.566H19.313v202.495h47.522v8H11.313V11.566h217.416z"/><path fill="#464B55" d="M88.353 193.638h-13.26v42.736h13.26zm18.937 0H94.031v42.736h13.259z"/><path fill="#77FE7A" d="M126.251 193.638h-13.259v42.736h13.259zm18.937 0H131.93v42.736h13.258zm18.954 0h-13.259v42.736h13.259z"/><path fill="#464B55" d="M27.345 3.626H3.625v23.72h23.72zm209.031 0h-23.72v23.72h23.72zM27.345 212.653H3.625v23.721h23.72zm209.031 0h-23.72v23.721h23.72z"/><path fill="#77FE7A" d="M189.861 95.453c.391 3.003.594 6.065.594 9.174 0 38.878-31.517 70.395-70.395 70.395-13.987 0-27.021-4.08-37.978-11.114l38.162-50.293zm-75.968 13.298L75.605 159.21c-15.83-12.908-25.94-32.565-25.94-54.583 0-36.8 28.238-67.005 64.228-70.129zm8-74.496c32.187.822 59.001 23.25 66.482 53.32l-66.482 17.343z"/><path fill="#0000FF" d="M190.26 95.35c.395 3.02.602 6.099.602 9.226 0 38.878-31.517 70.396-70.395 70.396-14.093 0-27.217-4.143-38.225-11.275l38.001-50.082z"/><path fill="#464B55" d="M121.891 34.256c32.186.823 58.999 23.25 66.48 53.32l-66.48 17.342z"/></svg>