<svg xmlns="http://www.w3.org/2000/svg" fill="none" viewBox="0 0 240 240"><path fill="#464B55" d="M120 195.86c53.019 0 96-42.98 96-96 0-53.019-42.981-96-96-96-53.02 0-96 42.981-96 96 0 53.02 42.98 96 96 96"/><path fill="#FFFFFF" d="M157 101.86H83v120h74z"/><path fill="#ECD069" d="M119.998 151.861c10.28 0 20.34-3.05 28.89-8.76a51.96 51.96 0 0 0 19.15-23.34c3.94-9.5 4.97-19.96 2.96-30.04a52 52 0 0 0-14.23-26.62 52.05 52.05 0 0 0-26.62-14.23 51.9 51.9 0 0 0-30.04 2.96 52.1 52.1 0 0 0-23.34 19.15 52.01 52.01 0 0 0 6.47 65.66 52 52 0 0 0 36.77 15.23z"/><path fill="#578BFA" d="M184 235.86H56l8-40h112z"/><path fill="#FFFFFF" d="M48 91.86a13.26 13.26 0 0 1-8 8c3.72 1.33 6.67 4.28 8 8 1.33-3.72 4.28-6.67 8-8a13.26 13.26 0 0 1-8-8"/><path fill="#464B55" d="M192 175.86a26.46 26.46 0 0 1 16-16 26.46 26.46 0 0 1-16-16 26.46 26.46 0 0 1-16 16 26.46 26.46 0 0 1 16 16"/><path fill="#FFFFFF" d="M68 51.86s.28 18.13 16 24.04v-.07c-15.72 5.91-16 24.04-16 24.04s-.28-18.13-16-24.04v.07c15.72-5.91 16-24.04 16-24.04"/><path fill="#464B55" d="M48 23.86a19.86 19.86 0 0 1-12 12 19.86 19.86 0 0 1 12 12 19.86 19.86 0 0 1 12-12 19.86 19.86 0 0 1-12-12"/><path fill="#578BFA" d="M184 187.86H56a8 8 0 0 0 0 16h128a8 8 0 1 0 0-16m-128 32h128c8.83 0 16 7.17 16 16H40c0-8.83 7.17-16 16-16m143-65.45c-3.38 4.89-7.2 9.45-11.42 13.63-3.01-3.69-7-6.55-11.58-8.18a26.49 26.49 0 0 0 16-16c1.46 4.07 3.88 7.69 7 10.55M52.788 31.33c2.03 2 4.48 3.55 7.21 4.53a19.84 19.84 0 0 0-12 12c-.89-2.49-2.26-4.75-3.99-6.66z"/><path fill="#464B55" d="M184 235.86H56l3.2-16h121.6z"/><path fill="#0A0B0D" d="M105.331 86.66c1.91 0 2.52 1.1 2.69 2.05v8.74c.13 0 .31 0 .51.04h-.51v12.24c-.08.59-.43 1.55-1.76 1.55.06.06-4.37 0-4.37 0l.04 5.58h6.1c1.13 0 2.25.02 3.35.04v7.76h4.68v-7.68c1.3.02 2.54.04 3.75.04v7.64h4.69v-7.75c7.88-.45 13.4-2.45 14.09-9.81.56-5.94-2.26-8.59-6.73-9.65 2.72-1.38 4.41-3.81 4.02-7.87-.53-5.52-5.33-7.38-11.38-7.91V74h-4.69v7.46c-1.23 0-2.49.02-3.75.06v-7.51h-4.68v7.67c-1.02.02-2.02.04-2.99.04v-.02h-6.46v4.99s3.48-.09 3.42-.02zm10.84.35c2.65 0 10.96-.84 10.96 4.66s-8.31 4.66-10.96 4.66zm0 14.04c3.18 0 13.14-.92 13.14 5.14 0 5.8-9.97 5.14-13.14 5.14z"/><path fill="#0A0B0D" d="M120.109 57.93c23.12 0 41.93 18.81 41.93 41.93s-18.81 41.93-41.93 41.93-41.93-18.81-41.93-41.93 18.81-41.93 41.93-41.93m0-2.07c-24.3 0-44 19.7-44 44s19.7 44 44 44 44-19.7 44-44-19.7-44-44-44"/></svg>