<svg xmlns="http://www.w3.org/2000/svg" fill="none" viewBox="0 0 240 240"><path fill="#44C28D" d="M218.125 116H41.875C38.63 116 36 118.686 36 122v112c0 3.314 2.63 6 5.875 6h176.25c3.245 0 5.875-2.686 5.875-6V122c0-3.314-2.63-6-5.875-6"/><path fill="#0A0B0D" d="M194.397 156c-4.879 0-9.559 2.1-13.009 5.837-3.45 3.738-5.388 8.807-5.388 14.093v.14c0 5.286 1.938 10.355 5.388 14.093s8.13 5.837 13.009 5.837H224v-40z"/><path fill="#FFFFFF" fill-rule="evenodd" d="M196 165.04c-6.075 0-11 4.925-11 11s4.925 11 11 11 11-4.925 11-11-4.925-11-11-11m-13 11c0-7.18 5.82-13 13-13s13 5.82 13 13-5.82 13-13 13-13-5.82-13-13" clip-rule="evenodd"/><path fill="#578BFA" d="M224 156v40h16v-40z"/><path fill="#464B55" fill-rule="evenodd" d="M48.083 67.917A68 68 0 0 0 0 48V0a116 116 0 0 1 116 116H68a68 68 0 0 0-19.917-48.083" clip-rule="evenodd"/><path fill="#464B55" fill-rule="evenodd" d="M0 0h60a116 116 0 0 1 116 116h-48a68 68 0 0 0-68-68H0z" clip-rule="evenodd"/><path fill="#578BFA" d="M128 116a24.001 24.001 0 0 1 48 0z"/><path fill="#0A0B0D" fill-rule="evenodd" d="M135 116c0-9.389 7.611-17 17-17s17 7.611 17 17h7a24 24 0 0 1-48 0zm2 0c0-8.284 6.716-15 15-15s15 6.716 15 15z" clip-rule="evenodd"/><path fill="#578BFA" d="M116 116H68v60h48z"/><path fill="#ECD069" d="M75.03 159.029A24.002 24.002 0 0 0 92 200a24 24 0 1 0-16.97-40.971"/><path fill="#0A0B0D" fill-rule="evenodd" d="M92 161c-8.284 0-15 6.716-15 15s6.716 15 15 15 15-6.716 15-15-6.716-15-15-15m-17 15c0-9.389 7.611-17 17-17s17 7.611 17 17-7.611 17-17 17-17-7.611-17-17" clip-rule="evenodd"/><path fill="#578BFA" d="M103.61 63.88A116.12 116.12 0 0 0 0 0v48h60a67.7 67.7 0 0 1 43.61 15.88"/><path fill="#FFFFFF" d="M95.605 30.08A92.7 92.7 0 0 0 59.999 23H0v2h60a90.68 90.68 0 0 1 63.427 25.8H114.8v2h12.31V40.49h-2v9.16a92.7 92.7 0 0 0-29.505-19.57"/><path fill="#FFFFFF" fill-rule="evenodd" d="m82.75 75.746 3.738-9.608 1.864.724-4.462 11.473-11.472-4.463.725-1.864z" clip-rule="evenodd"/><path fill="#FFFFFF" fill-rule="evenodd" d="M48.389 38.918A91 91 0 0 0 0 25v-2a93 93 0 0 1 83.77 52.565l-1.8.87a91 91 0 0 0-33.581-37.517" clip-rule="evenodd"/></svg>