<svg xmlns="http://www.w3.org/2000/svg" fill="none" viewBox="0 0 240 240"><path fill="#464B55" d="M96 168H0v-16h96v16Zm0-24v-8H0v8h96ZM0 112v8h96v-8H0Zm96-8V56H0v48h96Z"/><path fill="#45DAF6" d="M0 24h63v64H0z"/><path fill="#588AF5" d="M96 240h144V0H96v240Z"/><path fill="#45DAF6" d="M96 216h144V24H96v192Z"/><path fill="#0A0B0D" d="M168 14a2 2 0 1 0 0-4 2 2 0 0 0 0 4Zm8 212h-16v4h16v-4Z"/><path fill="#588AF5" d="M96 56h72.5v128h-54L96 176V56Z"/><path fill="#45DAF6" d="M115 104H96v8h19v-8Zm0 16H96v16h19v-16Zm17 24H96v8h36v-8Z"/><path fill="#ECD069" d="M232 120a64 64 0 1 1-128 0 64 64 0 0 1 128 0Z"/><path fill="#0A0B0D" fill-rule="evenodd" d="M168 171a51 51 0 1 0 0-102 51 51 0 0 0 0 102Zm0 2a53 53 0 1 0 0-106 53 53 0 0 0 0 106Z" clip-rule="evenodd"/><path fill="#0A0B0D" fill-rule="evenodd" d="M167 141V99h2v42h-2Z" clip-rule="evenodd"/><path fill="#0A0B0D" fill-rule="evenodd" d="M147 119h42v2h-42v-2Z" clip-rule="evenodd"/><path fill="#45DAF6" d="M0 168h97l-13.45 22.88L97 216H0v-48Z"/><path fill="#A5C1FD" d="M96 56a32 32 0 1 1-64 0 32 32 0 0 1 64 0Z"/><path fill="#FFFFFF" d="M64 40a53.05 53.05 0 0 0 16 16 53.05 53.05 0 0 0-16 16 53.05 53.05 0 0 0-16-16 53.05 53.05 0 0 0 16-16Z"/><path fill="#44C28D" d="M120 192a24 24 0 1 1-48 0 24 24 0 0 1 48 0Z"/><path fill="#588AF5" d="M96 216a24 24 0 0 0 0-48v48Z"/><path fill="#0A0B0D" fill-rule="evenodd" d="M96 178a14 14 0 1 0 0 28 14 14 0 0 0 0-28Zm-16 14a16 16 0 1 1 32 0 16 16 0 0 1-32 0Z" clip-rule="evenodd"/><path fill="#0A0B0D" fill-rule="evenodd" d="M110 192a14 14 0 0 0-14-14v-2a16 16 0 1 1 0 32v-2a14 14 0 0 0 14-14Z" clip-rule="evenodd"/><path fill="#FFFFFF" d="m229 72-13.18-2.82L213 56l-2.84 13.18L197 72l13.16 2.84L213 88l2.82-13.16L229 72Z"/></svg>