<svg xmlns="http://www.w3.org/2000/svg" fill="none" viewBox="0 0 240 241"><path fill="#464B55" d="M214 24h-48v216h48V24Z"/><path fill="#ECD069" d="M144 84H96v156h48V84Z"/><path fill="#464B55" d="M144 84H96v156h48V84Z"/><path fill="#588AF5" d="M144 83.47c0 13.3-10.7 24-24 24s-24-10.7-24-24h48Z"/><path fill="#464B55" d="M96 83.47c0-13.3 10.7-24 24-24s24 10.7 24 24H96Z"/><path fill="#0A0B0D" fill-rule="evenodd" d="M120 68.47c-8.28 0-15 6.72-15 15 0 8.28 6.72 15 15 15 8.28 0 15-6.72 15-15 0-8.28-6.72-15-15-15Zm-17 15c0-9.39 7.61-17 17-17s17 7.61 17 17-7.61 17-17 17-17-7.61-17-17Z" clip-rule="evenodd"/><path fill="#464B55" d="M74 112H26v128h48V112Z"/><path fill="#464B55" d="M240 83.47V202.3H0L240 83.47Z"/><path fill="#0A0B0D" d="M214 96.35V202.3h-48v-82.18l48-23.77Z"/><path fill="#588AF5" d="M214 96.35V202.3h-48v-82.18l48-23.77Zm-70 34.66v71.29H96v-47.53l48-23.76Zm-70 34.65v36.64H26v-12.87l48-23.77ZM74 112c0 13.3-10.7 24-24 24s-24-10.7-24-24h48Z"/><path fill="#464B55" d="M26 112c0-13.3 10.7-24 24-24s24 10.7 24 24H26Z"/><path fill="#0A0B0D" fill-rule="evenodd" d="M50 97c-8.28 0-15 6.72-15 15 0 8.28 6.72 15 15 15 8.28 0 15-6.72 15-15 0-8.28-6.72-15-15-15Zm-17 15c0-9.39 7.61-17 17-17s17 7.61 17 17-7.61 17-17 17-17-7.61-17-17Z" clip-rule="evenodd"/><path fill="#0A0B0D" d="M240 238H0v2h240v-2Z"/><path fill="#0A0B0D" fill-rule="evenodd" d="m189.8 87.58 8.71 8.71-1.41 1.41-7.29-7.29-7.29 7.29-1.41-1.41 8.71-8.71h-.02Z" clip-rule="evenodd"/><path fill="#0A0B0D" fill-rule="evenodd" d="M188.8 239V89h2v150h-2Z" clip-rule="evenodd"/><path fill="#588AF5" d="M214 142.83v24a19.86 19.86 0 0 1 12-12 19.86 19.86 0 0 1-12-12Z"/><path fill="#0A0B0D" d="M214 166.83a19.86 19.86 0 0 0-12-12 19.86 19.86 0 0 0 12-12v24Z"/><path fill="#464B55" d="M136 16a19.86 19.86 0 0 1-12 12 19.86 19.86 0 0 1 12 12 19.86 19.86 0 0 1 12-12 19.86 19.86 0 0 1-12-12Zm96 48a13.257 13.257 0 0 1-8 8c3.72 1.33 6.67 4.28 8 8 1.33-3.72 4.28-6.67 8-8a13.257 13.257 0 0 1-8-8Z"/><path fill="#588AF5" d="M189.8 80c22.091 0 40-17.909 40-40s-17.909-40-40-40-40 17.909-40 40 17.909 40 40 40Z"/><path fill="#0A0B0D" d="M189.8 6.79c18.31 0 33.21 14.9 33.21 33.21 0 18.31-14.9 33.21-33.21 33.21-18.31 0-33.21-14.9-33.21-33.21 0-18.31 14.9-33.21 33.21-33.21Zm0-2c-19.44 0-35.21 15.76-35.21 35.21 0 19.45 15.76 35.21 35.21 35.21 19.45 0 35.21-15.76 35.21-35.21 0-19.45-15.76-35.21-35.21-35.21Z"/><path fill="#FFFFFF" d="M210.29 40h-40.98a33.912 33.912 0 0 1 20.49 20.49A33.912 33.912 0 0 1 210.29 40Zm-40.98 0a33.912 33.912 0 0 0 20.49-20.49A33.912 33.912 0 0 0 210.29 40h-40.98Z"/></svg>