<svg xmlns="http://www.w3.org/2000/svg" fill="none" viewBox="0 0 240 240"><path fill="#464B55" d="M0 168h240v72H0v-72Z"/><path fill="#A5C1FD" d="M40 40h160v8H40v-8Z"/><path fill="#588AF5" d="M224 72.07v136H16v-136h208Z"/><path fill="#0A0B0D" d="M16 168h208v40.01H16V168Z"/><path fill="#FFFFFF" d="M36.71 90.8a3.37 3.37 0 0 0-3.43-3.44 3.34 3.34 0 0 0-3.41 3.45 3.38 3.38 0 0 0 3.43 3.46 3.36 3.36 0 0 0 3.41-3.46Zm-5.43.02c0-1.1.86-1.9 2-1.9 1.16 0 2.02.79 2.02 1.89 0 1.1-.87 1.91-2.02 1.91-1.14 0-2-.8-2-1.9Zm3.94 3.88v.96H30v1.53h6.6v-2.5h-1.37Zm.08-11.2c0 .8-.5 1.45-1.24 1.69v1.62a3.22 3.22 0 0 0 2.65-3.3 3.37 3.37 0 0 0-3.43-3.44 3.34 3.34 0 0 0-3.41 3.44c0 1.67 1.07 3 2.66 3.3v-1.62a1.73 1.73 0 0 1-1.25-1.68c0-1.11.86-1.9 2-1.9 1.16 0 2.02.78 2.02 1.89Zm-1.38 40.37.17-1.13c.07-.53.25-.92.67-.92.46 0 .7.5.7 1.18 0 .74-.33 1.21-.85 1.32v1.48c1.33-.17 2.1-1.19 2.1-2.76 0-1.63-.83-2.7-2-2.7-1.12 0-1.77.7-1.98 2.12l-.16 1.13c-.08.55-.3.85-.7.85-.53 0-.74-.53-.74-1.27 0-.91.37-1.42.93-1.5v-1.51c-1.29.14-2.2 1.15-2.2 3 0 1.67.77 2.78 2.08 2.78 1.18 0 1.79-.8 1.98-2.07Zm5.38-27.45c0-.56-.4-.98-.97-.98a.95.95 0 0 0-.96.98c0 .57.4.99.96.99.57 0 .97-.42.97-.99Zm-4.97 22.53c1.43 0 2.38-.87 2.38-2.7 0-1.75-.88-2.72-2.23-2.91v1.52c.52.08.96.49.96 1.36 0 .78-.35 1.16-.77 1.16-.55 0-.69-.7-.77-1.57-.13-1.18-.54-2.64-2.07-2.64-1.19 0-1.95.89-1.95 2.3 0 1.1.46 1.78 1.18 2.13-.65.05-1.07.54-1.07 1.22v.9h1.37v-.76h2.97Zm-1.66-1.5c-.88 0-1.53-.77-1.53-1.7 0-.58.24-1.07.75-1.07.65 0 .83.78.9 1.5.07.69.23 1.07.52 1.27h-.64Zm4.04-8.16c0-.85-.35-1.57-.95-2.08h3.6v-1.54H30v1.51h.87c-.62.51-1 1.24-1 2.11 0 1.85 1.46 3.24 3.42 3.24 1.97 0 3.43-1.42 3.43-3.23Zm-5.43-.23c0-1.1.86-1.9 2-1.9 1.15 0 2.02.82 2.02 1.92 0 1.11-.86 1.9-2.02 1.9-1.14 0-2-.81-2-1.92Zm5.43-7.06c0-1-.4-1.65-.98-2.03h.86v-1.53h-6.6v1.54h3.59c1 0 1.72.64 1.72 1.59 0 .88-.63 1.43-1.53 1.43h-3.78v1.53h3.9c1.65 0 2.82-.85 2.82-2.53Zm-3.21 31.26a3.12 3.12 0 0 0 3.21-3.24 3.34 3.34 0 0 0-3.43-3.41 3.33 3.33 0 0 0-3.41 3.44c0 1.6.94 2.85 2.28 3.17v-1.6c-.59-.23-.92-.8-.92-1.55 0-.98.61-1.72 1.68-1.89v5.08h.59Zm.51-4.99c.92.24 1.37.93 1.37 1.73 0 .87-.5 1.53-1.37 1.69v-3.42Z"/><path fill="#464B55" d="M210.13 168v20.8H182.4V168h27.73Z"/><path fill="#0A0B0D" fill-rule="evenodd" d="M195.77 188.8V168h1v20.8h-1Z" clip-rule="evenodd"/><path fill="#0A0B0D" fill-rule="evenodd" d="M210.13 175.43H182.4v-1h27.73v1Zm0 6.94H182.4v-1h27.73v1Z" clip-rule="evenodd"/><path fill="#F07836" d="M24 56.07h192v16H24v-16Z"/><path fill="#44C28D" d="M32 48h176v8H32v-8Z"/><path fill="#464B55" d="M140 .07h44v40h-44v-40Zm-84 0h44v40H56v-40ZM124 24h16v16h-16V24Zm0-24h16v16h-16V0Zm-24 0h16v16h-16V0Zm0 24h16v16h-16V24Z"/><path fill="#FFFFFF" d="m42.53 175.05-12.67-2.74v-3.3l12.67 2.73v3.3Zm-8.18 13.92 4.76 1.74-4.76 1v-2.74Zm-4.5 3.7v3.06l12.68-2.67v-2.83c0-.3-.09-.6-.26-.84-.16-.25-.4-.45-.67-.57l-11.74-4.96v3.47l1.89.7v4.24l-1.9.4Zm4.15-8.64c3.35.02 3.53-4.67 5.03-4.63.45.01.94.44 1.06 1.4a6.3 6.3 0 0 1-.57 3.27l2.68.58a8.8 8.8 0 0 0 .56-3.1c0-3.28-1.72-5.58-4.2-5.59-1.82-.02-2.84 1.64-3.44 2.9-.62 1.29-1.02 1.72-1.58 1.71-.85 0-1.22-1.03-1.24-1.98a6.93 6.93 0 0 1 .8-3.4l-2.78-.6a9.96 9.96 0 0 0-.67 3.68c.01 3.48 1.72 5.75 4.35 5.76Zm8.53-13.7-12.67-5.36v-3.5l10.11-2.64a1.38 1.38 0 0 0 1.12-.79c.48-1.04.85-2.13 1.08-3.26l.37.08v5.63a1.53 1.53 0 0 1-1.29 1.54l-7.33 1.4 8.63 3.45-.02 3.45Zm7.9 8.26v1.22c.03.3.01.61-.08.9a2.13 2.13 0 0 1-1.18 1.29 2.1 2.1 0 0 1-.89.16h-.06a2.13 2.13 0 0 1-1.63-.67c-.21-.23-.36-.5-.46-.79a2 2 0 0 1-.08-.9v-1.21h4.38Zm-3.94 1.2c-.02.23 0 .48.08.7.09.22.21.44.38.61a1.53 1.53 0 0 0 1.29.47h.04a1.56 1.56 0 0 0 1.65-1.08c.07-.22.1-.47.06-.7v-.63h-3.52v.63h.02Zm3.94 3.36v2.7H50v-2.13h-1.49v1.71h-.43v-1.71H46.5v2.25h-.43v-2.82h4.37Zm0 3.73v1.4c0 .86-.27 1.5-1.14 1.5h-.02a.9.9 0 0 1-.93-.7c-.15.67-.48.93-1.05.93h-.02c-.82 0-1.22-.6-1.22-1.53v-1.58l4.38-.02Zm-1.9 1.39c0 .68.23.94.76.94h.02c.5 0 .7-.3.7-.95v-.82h-1.5v.83h.02Zm-2.06.19c0 .67.28.98.81.98h.03c.53 0 .8-.31.8-1.05v-.94h-1.64v1Zm3.96 2.54v.57h-4.38V191h4.38Zm-.43 2.77v-1.34h.43v3.25H50v-1.35h-3.94v-.57H50v.01Z"/></svg>