<svg xmlns="http://www.w3.org/2000/svg" fill="none" viewBox="0 0 240 240"><path fill="#464B55" fill-rule="evenodd" d="M120 24a96 96 0 0 0-96 96H0C0 53.73 53.73 0 120 0v24Zm80 96a80 80 0 0 1-80 80v40c66.27 0 120-53.73 120-120h-40Z" clip-rule="evenodd"/><path fill="#ECD069" d="M120 192a72 72 0 1 0 0-144 72 72 0 0 0 0 144Z"/><path fill="#ECD069" fill-rule="evenodd" d="M48 120h72V48a72 72 0 0 0-72 72Z" clip-rule="evenodd"/><path fill="#44C28D" fill-rule="evenodd" d="M120 120V48a72 72 0 0 0-72 72h72Z" clip-rule="evenodd"/><path fill="#ECD069" d="M120 168a48 48 0 1 0 0-96 48 48 0 0 0 0 96Z"/><path fill="#588AF5" fill-rule="evenodd" d="M192 120h-72v72a72 72 0 0 0 72-72Z" clip-rule="evenodd"/><path fill="#0A0B0D" fill-rule="evenodd" d="M120 182a62 62 0 1 0 0-124 62 62 0 0 0 0 124Zm64-62a64 64 0 1 1-128 0 64 64 0 0 1 128 0Z" clip-rule="evenodd"/><path fill="#ECD069" d="M120 160a40 40 0 1 0 0-80 40 40 0 0 0 0 80Z"/><path fill="#0A0B0D" fill-rule="evenodd" d="m112 134.59 31.29-31.3 1.41 1.42-32.7 32.7-16.71-16.7 1.41-1.42 15.3 15.3Z" clip-rule="evenodd"/></svg>