<svg xmlns="http://www.w3.org/2000/svg" fill="none" viewBox="0 0 240 240"><path fill="#464B55" d="M0 168h240v72H0v-72Z"/><path fill="#A5C1FD" d="M40 40h160v8H40v-8Z"/><path fill="#588AF5" d="M224 72.07v136H16v-136h208Z"/><path fill="#0A0B0D" d="M16 168h208v40.01H16V168Z"/><path fill="#FFFFFF" d="M36.716 90.805c0-1.932-1.467-3.442-3.43-3.442-1.964 0-3.419 1.472-3.419 3.442 0 1.97 1.48 3.468 3.431 3.468 1.938 0 3.418-1.472 3.418-3.468Zm-5.433.013c0-1.1.854-1.906 2.002-1.906 1.16 0 2.015.793 2.015 1.893 0 1.114-.867 1.92-2.015 1.92-1.148 0-2.002-.806-2.002-1.907Zm3.94 3.877v.96h-5.229v1.535h6.594v-2.495h-1.364Zm.077-11.196c0 .806-.497 1.446-1.237 1.69v1.624c1.581-.294 2.653-1.6 2.653-3.3 0-1.933-1.467-3.443-3.431-3.443s-3.418 1.472-3.418 3.442c0 1.664 1.071 2.994 2.666 3.289v-1.613c-.74-.23-1.25-.87-1.25-1.676 0-1.114.854-1.894 2.002-1.894 1.16 0 2.015.768 2.015 1.881Zm-1.377 40.369.165-1.125c.077-.538.255-.922.676-.922.46 0 .689.5.689 1.177 0 .743-.319 1.216-.842 1.319v1.484c1.327-.167 2.104-1.19 2.104-2.764 0-1.625-.829-2.7-2.002-2.7-1.122 0-1.773.704-1.977 2.124l-.165 1.126c-.076.55-.294.857-.702.857-.523 0-.74-.537-.74-1.279 0-.909.37-1.42.931-1.497v-1.51c-1.288.141-2.193 1.151-2.193 2.994 0 1.676.765 2.789 2.08 2.789 1.172 0 1.785-.806 1.976-2.073Zm5.382-27.445c0-.563-.408-.986-.97-.986-.56 0-.968.422-.968.986 0 .563.408.985.969.985.56 0 .969-.422.969-.985Zm-4.974 22.532c1.428 0 2.384-.87 2.384-2.712 0-1.74-.88-2.713-2.232-2.905v1.523c.523.077.957.486.957 1.356 0 .781-.344 1.165-.765 1.165-.549 0-.689-.704-.778-1.574-.128-1.177-.536-2.636-2.066-2.636-1.187 0-1.951.883-1.951 2.29 0 1.101.459 1.792 1.186 2.137-.65.052-1.072.538-1.072 1.216v.896h1.365v-.755h2.972v-.001Zm-1.658-1.51c-.88 0-1.53-.767-1.53-1.702 0-.576.241-1.062.751-1.062.65 0 .83.781.906 1.497.063.691.217 1.075.51 1.267h-.637Zm4.043-8.15c0-.858-.357-1.574-.957-2.086h3.61v-1.535h-9.375v1.509h.868a2.665 2.665 0 0 0-.995 2.112c0 1.842 1.454 3.237 3.418 3.237 1.964 0 3.43-1.42 3.43-3.237Zm-5.433-.231c0-1.1.854-1.906 2.002-1.906 1.148 0 2.015.819 2.015 1.919 0 1.113-.855 1.894-2.015 1.894-1.148 0-2.002-.806-2.002-1.907Zm5.433-7.063c0-.998-.408-1.651-.982-2.035h.854v-1.522h-6.593v1.535h3.583c1.008 0 1.722.64 1.722 1.587 0 .883-.624 1.433-1.53 1.433h-3.776v1.535h3.89c1.659.001 2.832-.856 2.832-2.533Zm-3.214 31.259c1.887 0 3.213-1.381 3.213-3.237 0-1.97-1.479-3.416-3.43-3.416-2.053 0-3.418 1.548-3.418 3.442 0 1.599.944 2.853 2.283 3.173v-1.6c-.587-.23-.918-.793-.918-1.548 0-.986.612-1.728 1.683-1.894v5.08h.587Zm.51-4.99c.918.243 1.364.934 1.364 1.727 0 .871-.497 1.536-1.364 1.689v-3.416Z"/><path fill="#464B55" d="M210.133 168v20.8H182.4V168h27.733Z"/><path fill="#0A0B0D" fill-rule="evenodd" d="M195.766 188.8V168h1v20.8h-1Z" clip-rule="evenodd"/><path fill="#0A0B0D" fill-rule="evenodd" d="M210.133 175.433H182.4v-1h27.733v1Zm0 6.934H182.4v-1h27.733v1Z" clip-rule="evenodd"/><path fill="#F07836" d="M24 56.07h192v16H24v-16Z"/><path fill="#44C28D" d="M32 48h176v8H32v-8Z"/><path fill="#464B55" d="M140 .07h44v40h-44v-40Zm-84 0h44v40H56v-40ZM124 24h16v16h-16V24Zm0-24h16v16h-16V0Zm-24 0h16v16h-16V0Zm0 24h16v16h-16V24Z"/><path fill="#FFFFFF" d="m42.524 175.046-12.668-2.734v-3.31l12.668 2.735v3.309Zm-8.174 13.928 4.76 1.737-4.76.997v-2.734Zm-4.494 3.697v3.062l12.668-2.675v-2.828c0-.305-.081-.599-.255-.845a1.578 1.578 0 0 0-.674-.563l-11.739-4.964v3.473l1.893.693v4.248l-1.893.399Zm4.145-8.637c3.344.012 3.53-4.67 5.028-4.635.453.012.94.446 1.057 1.408a6.303 6.303 0 0 1-.57 3.262l2.683.575a8.797 8.797 0 0 0 .557-3.098c0-3.273-1.718-5.573-4.191-5.585-1.823-.024-2.845 1.643-3.449 2.898-.615 1.291-1.022 1.725-1.58 1.713-.847-.011-1.218-1.032-1.242-1.983a6.934 6.934 0 0 1 .802-3.403l-2.775-.598a9.957 9.957 0 0 0-.674 3.685c.012 3.473 1.719 5.749 4.354 5.761Zm8.523-13.706-12.668-5.362v-3.497l10.113-2.64a1.388 1.388 0 0 0 1.115-.786 14.15 14.15 0 0 0 1.08-3.263l.372.083v5.632c0 .364-.128.728-.36 1.009-.233.282-.57.47-.93.528l-7.326 1.397 8.627 3.45-.023 3.449Zm7.907 8.261v1.221c.035.305.012.61-.081.903a2 2 0 0 1-.453.775 2.131 2.131 0 0 1-.731.516c-.279.117-.58.164-.883.152h-.058a2.147 2.147 0 0 1-.894-.152 2.175 2.175 0 0 1-.743-.516 2.045 2.045 0 0 1-.453-.787 1.985 1.985 0 0 1-.081-.903v-1.209h4.377Zm-3.936 1.197c-.023.235 0 .481.081.704.082.223.21.434.372.61a1.537 1.537 0 0 0 1.289.47h.046c.232.023.476 0 .697-.082.22-.083.43-.212.592-.388a1.594 1.594 0 0 0 .418-1.314v-.622h-3.518v.622h.023Zm3.936 3.368v2.699h-.43v-2.136h-1.486v1.714h-.43v-1.714h-1.59v2.253h-.43v-2.816h4.366Zm0 3.731v1.397c0 .856-.267 1.49-1.138 1.49h-.023a.91.91 0 0 1-.592-.176.862.862 0 0 1-.337-.517c-.151.669-.476.927-1.045.927h-.023c-.825 0-1.22-.598-1.22-1.525v-1.584l4.378-.012Zm-1.904 1.385c0 .68.232.939.766.939h.023c.5 0 .697-.306.697-.951v-.821h-1.498v.833h.012Zm-2.055.188c0 .668.278.985.812.985h.024c.534 0 .8-.317.8-1.056v-.939h-1.636v1.01Zm3.959 2.546v.563h-4.377v-.563h4.377Zm-.43 2.77v-1.35h.43v3.251h-.43v-1.35h-3.936v-.563h3.936v.012Z"/></svg>