<svg xmlns="http://www.w3.org/2000/svg" fill="none" viewBox="0 0 240 241"><path fill="#464B55" d="M120 152V48C62.562 48 16 94.562 16 152h104Z"/><path fill="#464B55" fill-rule="evenodd" d="M0 152C0 85.73 53.73 32 120 32c66.27 0 120 53.73 120 120h-24c0-53.02-42.98-96-96-96V40C58.14 40 8 90.14 8 152H0Z" clip-rule="evenodd"/><path fill="#45DAF6" fill-rule="evenodd" d="M159.949 5.459C147.356 1.904 134.054 0 120.3 0c-13.92 0-27.378 1.95-40.107 5.589L120.048 152h.01L159.949 5.459Z" clip-rule="evenodd"/><path fill="#ECD069" d="M208 152c0 48.601-39.399 88-88 88s-88-39.399-88-88 39.399-88 88-88 88 39.399 88 88Z"/><path fill="#44C28D" d="M232 75.998c-11.048 0-19.998 8.954-19.998 20.002 0-11.048-8.954-20.002-20.002-20.002 11.048 0 20.002-8.955 20.002-19.998 0 11.043 8.95 19.998 19.998 19.998Z"/><path fill="#588AF5" fill-rule="evenodd" d="M206.943 69.293a120.535 120.535 0 0 1 10.635 12.849A19.94 19.94 0 0 0 212.002 96c0-11.048-8.954-20.002-20.002-20.002 5.943 0 11.28-2.591 14.943-6.705Z" clip-rule="evenodd"/><path fill="#ECD069" d="M71.81 15.998c-8.839 0-16 7.164-16 16.002 0-8.838-7.163-16.002-16-16.002 8.837 0 16-7.163 16-15.998 0 8.835 7.161 15.998 16 15.998Z"/><path fill="#45DAF6" d="M32 223.998c-8.838 0-15.998 7.164-15.998 16.002 0-8.838-7.164-16.002-16.002-16.002 8.838 0 16.002-7.163 16.002-15.998 0 8.835 7.16 15.998 15.998 15.998Z"/><path fill="#0A0B0D" fill-rule="evenodd" d="M119 53V8h2v45h-2Z" clip-rule="evenodd"/><path fill="#0A0B0D" fill-rule="evenodd" d="m120.3 51.886 10.593-10.593 1.414 1.414L120.3 54.714l-12.007-12.007 1.414-1.414L120.3 51.886Z" clip-rule="evenodd"/><path fill="#588AF5" fill-rule="evenodd" d="M143.174 67.083A88.1 88.1 0 0 0 120 64a88.112 88.112 0 0 0-23.074 3.056L120.049 152h.01l23.115-84.917Z" clip-rule="evenodd"/><path fill="#0A0B0D" fill-rule="evenodd" d="M120 222c38.66 0 70-31.34 70-70s-31.34-70-70-70-70 31.34-70 70 31.34 70 70 70Zm0 2c39.765 0 72-32.235 72-72s-32.235-72-72-72c-39.764 0-72 32.235-72 72s32.236 72 72 72Z" clip-rule="evenodd"/></svg>