<svg xmlns="http://www.w3.org/2000/svg" fill="none" viewBox="0 0 240 240"><path fill="#464B55" d="M120 195.86c53.019 0 96-42.98 96-96 0-53.019-42.981-96-96-96-53.02 0-96 42.981-96 96 0 53.02 42.98 96 96 96"/><path fill="#FFFFFF" d="M157 101.86H83v120h74z"/><path fill="#578BFA" d="M119.998 151.861c10.28 0 20.34-3.05 28.89-8.76a51.96 51.96 0 0 0 19.15-23.34c3.94-9.5 4.97-19.96 2.96-30.04a52 52 0 0 0-14.23-26.62 52.05 52.05 0 0 0-26.62-14.23 51.9 51.9 0 0 0-30.04 2.96 52.1 52.1 0 0 0-23.34 19.15 52.01 52.01 0 0 0 6.47 65.66 52 52 0 0 0 36.77 15.23z"/><path fill="#FFFFFF" d="M134.251 108.12c0-7.58-4.61-10.14-13.54-11.36-6.6-.95-7.87-2.5-7.87-5.58s2.23-4.99 6.5-4.99c3.89 0 6.13 1.35 7.05 4.48.1.34.3.64.59.86.28.22.63.34.98.34h3.41c.22 0 .44-.04.65-.13a1.49 1.49 0 0 0 .84-.97c.06-.21.07-.44.04-.66-1.08-4.95-4.42-7.93-9.65-8.86v-5.22c0-.43-.17-.84-.48-1.15a1.62 1.62 0 0 0-1.15-.48h-3.25c-.43 0-.84.17-1.15.48-.3.3-.48.72-.48 1.15v5.04c-6.5.91-10.61 5.2-10.61 10.7 0 7.12 4.33 9.88 13.39 11.1 6.16 1.01 7.92 2.34 7.92 5.84s-2.98 5.85-7.18 5.85c-5.67 0-7.58-2.48-8.22-5.7-.07-.37-.27-.7-.56-.94s-.65-.37-1.03-.38h-3.7c-.22 0-.44.05-.64.14s-.38.23-.52.4-.25.37-.31.58-.07.44-.03.65c.94 5.42 4.42 9.38 11.51 10.34v5.14c0 .43.17.84.48 1.15.3.3.72.48 1.15.48h3.25c.43 0 .84-.17 1.15-.48.3-.3.48-.72.48-1.15v-5.14c6.72-1.06 11-5.7 11-11.52z"/><path fill="#FFFFFF" d="M108.85 130.92a32.47 32.47 0 0 1-15.48-11.9 32.5 32.5 0 0 1-5.87-18.63c0-6.67 2.05-13.17 5.87-18.63s9.22-9.62 15.48-11.9a2.34 2.34 0 0 0 1.4-2.04v-3.03c.03-.27-.02-.54-.13-.79s-.29-.46-.51-.61a1.54 1.54 0 0 0-1.53-.15 39.01 39.01 0 0 0-19.64 60.17 39.04 39.04 0 0 0 19.64 14.15 1.54 1.54 0 0 0 1.53-.15c.22-.16.39-.37.51-.61.11-.25.16-.52.13-.79v-3.03c-.02-.44-.16-.86-.41-1.22s-.59-.65-.99-.82zm23.073-67.68a1.56 1.56 0 0 0-1.54.15c-.22.16-.39.37-.51.61-.11.25-.16.52-.13.79v3.03c.02.44.16.86.41 1.22s.59.65.99.82a32.47 32.47 0 0 1 15.48 11.9 32.5 32.5 0 0 1 5.87 18.63c0 6.67-2.05 13.17-5.87 18.63a32.46 32.46 0 0 1-15.48 11.9c-.41.16-.77.44-1.02.8-.25.37-.38.8-.38 1.24v3.03c-.03.27.02.54.13.79s.29.46.51.61a1.56 1.56 0 0 0 1.54.15 39.01 39.01 0 0 0 19.64-60.17 39.04 39.04 0 0 0-19.64-14.15z"/><path fill="#578BFA" d="M184 235.86H56l8-40h112z"/><path fill="#FFFFFF" d="M48 91.86a13.26 13.26 0 0 1-8 8c3.72 1.33 6.67 4.28 8 8 1.33-3.72 4.28-6.67 8-8a13.26 13.26 0 0 1-8-8"/><path fill="#464B55" d="M192 175.86a26.46 26.46 0 0 1 16-16 26.46 26.46 0 0 1-16-16 26.46 26.46 0 0 1-16 16 26.46 26.46 0 0 1 16 16"/><path fill="#FFFFFF" d="M68 51.86s.28 18.13 16 24.04v-.07c-15.72 5.91-16 24.04-16 24.04s-.28-18.13-16-24.04v.07c15.72-5.91 16-24.04 16-24.04"/><path fill="#464B55" d="M48 23.86a19.86 19.86 0 0 1-12 12 19.86 19.86 0 0 1 12 12 19.86 19.86 0 0 1 12-12 19.86 19.86 0 0 1-12-12"/><path fill="#578BFA" d="M184 187.86H56a8 8 0 0 0 0 16h128a8 8 0 1 0 0-16m-128 32h128c8.83 0 16 7.17 16 16H40c0-8.83 7.17-16 16-16m143-65.45c-3.38 4.89-7.2 9.45-11.42 13.63-3.01-3.69-7-6.55-11.58-8.18a26.49 26.49 0 0 0 16-16c1.46 4.07 3.88 7.69 7 10.55M52.788 31.33c2.03 2 4.48 3.55 7.21 4.53a19.84 19.84 0 0 0-12 12c-.89-2.49-2.26-4.75-3.99-6.66z"/><path fill="#464B55" d="M184 235.86H56l3.2-16h121.6z"/></svg>