<svg xmlns="http://www.w3.org/2000/svg" fill="none" viewBox="0 0 240 240"><path fill="#464B55" d="M240 240c0-66.27-53.73-120-120-120S0 173.73 0 240z"/><path fill="#464B55" d="M240 240c0-66.27-53.73-120-120-120S0 173.73 0 240z"/><path fill="#588AF5" d="M48 0h144v216H48z"/><path fill="#0A0B0D" fill-rule="evenodd" d="M192 143.994V216H48v-72.006C68.056 128.928 92.986 120 120 120s51.944 8.928 72 23.994" clip-rule="evenodd"/><path fill="#FFFFFF" d="M66.351 194.747c-2.006 0-3.574 1.523-3.574 3.562 0 2.04 1.528 3.55 3.574 3.55s3.601-1.537 3.601-3.563c0-2.013-1.528-3.549-3.6-3.549m.014 5.642c-1.143 0-1.98-.887-1.98-2.079 0-1.206.823-2.093 1.966-2.093 1.156 0 1.993.901 1.993 2.093s-.837 2.079-1.98 2.079m4.026-4.092h.996v5.43h1.595v-6.848H70.39zm-11.627-.08c.837 0 1.502.516 1.754 1.285h1.688c-.306-1.643-1.662-2.755-3.428-2.755-2.007 0-3.575 1.523-3.575 3.563s1.528 3.549 3.575 3.549c1.727 0 3.109-1.112 3.415-2.768h-1.675c-.24.768-.904 1.298-1.74 1.298-1.157 0-1.967-.887-1.967-2.079 0-1.206.797-2.093 1.953-2.093m41.922 1.43-1.17-.172c-.557-.079-.956-.264-.956-.701 0-.477.519-.715 1.222-.715.771 0 1.263.33 1.369.873h1.542c-.173-1.377-1.236-2.185-2.87-2.185-1.688 0-2.804.861-2.804 2.08 0 1.165.73 1.841 2.206 2.052l1.169.172c.571.08.89.305.89.729 0 .543-.558.768-1.329.768-.943 0-1.475-.384-1.554-.967h-1.568c.146 1.338 1.196 2.278 3.109 2.278 1.741 0 2.897-.794 2.897-2.159 0-1.218-.837-1.854-2.153-2.053m-28.502-5.589c-.584 0-1.023.424-1.023 1.007 0 .582.438 1.006 1.023 1.006s1.024-.424 1.024-1.006-.439-1.007-1.023-1.007m23.4 5.166c0-1.483-.904-2.477-2.817-2.477-1.807 0-2.817.914-3.016 2.318h1.58c.08-.543.506-.993 1.41-.993.81 0 1.209.358 1.209.795 0 .569-.731.715-1.635.808-1.222.132-2.737.556-2.737 2.145 0 1.232.917 2.026 2.379 2.026 1.142 0 1.86-.477 2.219-1.232.053.676.558 1.113 1.262 1.113h.93v-1.417h-.784zm-1.568 1.722c0 .914-.797 1.589-1.767 1.589-.599 0-1.104-.252-1.104-.781 0-.676.811-.861 1.555-.94.718-.066 1.116-.225 1.316-.53zm-8.464-4.199a2.78 2.78 0 0 0-2.166.993v-3.748H81.79v9.735h1.568v-.901a2.77 2.77 0 0 0 2.193 1.033c1.913 0 3.362-1.509 3.362-3.549s-1.475-3.563-3.362-3.563m-.24 5.642c-1.142 0-1.98-.887-1.98-2.079s.851-2.093 1.994-2.093c1.156 0 1.966.888 1.966 2.093 0 1.192-.837 2.079-1.98 2.079m-7.334-5.642c-1.037 0-1.715.424-2.113 1.02v-.888h-1.582v6.847h1.595v-3.721c0-1.046.664-1.788 1.647-1.788.917 0 1.489.649 1.489 1.589v3.921h1.594v-4.039c0-1.723-.89-2.941-2.63-2.941m32.461 3.338c0-1.96-1.435-3.338-3.362-3.338-2.046 0-3.548 1.537-3.548 3.563 0 2.132 1.608 3.549 3.575 3.549 1.661 0 2.963-.98 3.295-2.37h-1.661c-.239.609-.824.953-1.608.953-1.023 0-1.794-.636-1.966-1.748h5.275zm-5.182-.53c.253-.954.97-1.417 1.794-1.417.903 0 1.594.516 1.754 1.417zm58.062-8.84-2.839 13.155h-3.437l2.84-13.155zm14.464 8.489 1.804-4.944 1.036 4.944zm3.839 4.666h3.18l-2.778-13.155h-2.937c-.317 0-.621.084-.877.265a1.64 1.64 0 0 0-.585.7l-5.155 12.19h3.607l.719-1.965h4.412zm-8.969-4.304c.012-3.473-4.85-3.666-4.813-5.222.012-.47.463-.976 1.462-1.097a6.56 6.56 0 0 1 3.388.591l.597-2.785a9.1 9.1 0 0 0-3.217-.579c-3.4 0-5.788 1.784-5.8 4.353-.025 1.893 1.706 2.954 3.009 3.581 1.341.639 1.792 1.061 1.779 1.64-.012.88-1.072 1.266-2.059 1.29a7.2 7.2 0 0 1-3.534-.832l-.621 2.882c1.218.47 2.51.711 3.826.699 3.607-.012 5.971-1.784 5.983-4.521m-14.233-8.851-5.568 13.155h-3.632l-2.742-10.502a1.44 1.44 0 0 0-.255-.688 1.5 1.5 0 0 0-.561-.47 14.7 14.7 0 0 0-3.388-1.121l.086-.386h5.849c.378 0 .755.133 1.048.374.292.241.487.591.548.964l1.45 7.609 3.583-8.959zm8.581-8.211h1.267c.317-.037.634-.013.939.084q.456.144.804.47c.231.217.414.47.536.76.122.289.171.603.158.916v.061c.013.313-.036.627-.158.928a2.3 2.3 0 0 1-.536.772 2.1 2.1 0 0 1-.817.47 2.06 2.06 0 0 1-.938.084H167zm1.243 4.087c.244.024.5 0 .731-.084.232-.085.451-.217.634-.386s.317-.386.402-.615.11-.482.085-.724v-.048a1.59 1.59 0 0 0-.487-1.338 1.6 1.6 0 0 0-.634-.374 1.7 1.7 0 0 0-.731-.06h-.646v3.653h.646zm3.491-4.087h2.803v.446h-2.218v1.543h1.779v.446h-1.779v1.652h2.34v.446h-2.925zm3.875 0h1.45c.89 0 1.548.277 1.548 1.181v.024a.94.94 0 0 1-.183.615.9.9 0 0 1-.536.35c.695.157.963.494.963 1.085v.024c0 .857-.622 1.267-1.584 1.267h-1.645zm1.438 1.977c.707 0 .975-.241.975-.796v-.024c0-.518-.317-.723-.987-.723h-.853v1.555h.865zm.195 2.134c.695 0 1.024-.289 1.024-.844v-.024c0-.554-.329-.832-1.097-.832h-.975v1.7zm2.649-4.111h.585v4.546h-.585zm2.878.446h-1.402v-.446h3.376v.446h-1.402v4.087h-.585v-4.087z"/><path fill="#464B55" d="M156 14.66h21.6v28.799H156z"/><path fill="#0A0B0D" fill-rule="evenodd" d="M177.6 29.559H156v-1h21.6z" clip-rule="evenodd"/><path fill="#0A0B0D" fill-rule="evenodd" d="M163.703 14.66v28.8h-1v-28.8zm7.195 0v28.8h-1v-28.8z" clip-rule="evenodd"/><path fill="#F07836" d="m120 172.8 48 67.2H72z"/><path fill="#FFFFFF" d="M121.908 219.244h-3.73l-1.866-27.419h7.461zm-1.865 11.752c2.06 0 3.73-1.754 3.73-3.917s-1.67-3.917-3.73-3.917-3.731 1.754-3.731 3.917 1.671 3.917 3.731 3.917"/></svg>