<svg xmlns="http://www.w3.org/2000/svg" fill="none" viewBox="0 0 240 240"><path fill="#464B55" d="M240 240c0-66.27-53.73-120-120-120C53.73 120 0 173.73 0 240h240Z"/><path fill="#464B55" d="M240 240c0-66.27-53.73-120-120-120C53.73 120 0 173.73 0 240h240Z"/><path fill="#588AF5" d="M48 0h144v216H48V0Z"/><path fill="#0A0B0D" fill-rule="evenodd" d="M192 144v72H48v-72a119.46 119.46 0 0 1 72-24c27.01 0 51.94 8.93 72 24Z" clip-rule="evenodd"/><path fill="#FFFFFF" d="M66.35 194.75a3.5 3.5 0 0 0-3.57 3.56 3.47 3.47 0 0 0 3.57 3.55 3.5 3.5 0 0 0 3.6-3.56 3.5 3.5 0 0 0-3.6-3.55Zm.01 5.64c-1.14 0-1.98-.89-1.98-2.08 0-1.2.83-2.1 1.97-2.1 1.16 0 2 .9 2 2.1 0 1.2-.84 2.08-1.99 2.08Zm4.03-4.1h1v5.44h1.6v-6.85h-2.6v1.42Zm-11.63-.07c.84 0 1.5.51 1.76 1.28h1.69a3.35 3.35 0 0 0-3.43-2.75 3.5 3.5 0 0 0-3.58 3.56 3.47 3.47 0 0 0 3.58 3.55c1.72 0 3.1-1.11 3.41-2.77h-1.67a1.8 1.8 0 0 1-1.74 1.3c-1.16 0-1.97-.89-1.97-2.08 0-1.2.8-2.1 1.95-2.1Zm41.93 1.43-1.17-.18c-.56-.07-.96-.26-.96-.7 0-.47.52-.71 1.22-.71.77 0 1.27.33 1.37.87h1.54c-.17-1.38-1.23-2.18-2.87-2.18-1.69 0-2.8.86-2.8 2.08 0 1.16.73 1.84 2.2 2.05l1.17.17c.58.08.9.3.9.73 0 .54-.56.77-1.33.77-.95 0-1.48-.39-1.56-.97h-1.57c.15 1.34 1.2 2.28 3.11 2.28 1.74 0 2.9-.8 2.9-2.16 0-1.22-.84-1.85-2.15-2.05Zm-28.5-5.6a.99.99 0 0 0-1.03 1.01.99.99 0 0 0 1.02 1.01.99.99 0 0 0 1.03-1 .99.99 0 0 0-1.03-1.01Zm23.4 5.17c0-1.48-.91-2.47-2.82-2.47-1.81 0-2.82.91-3.02 2.31h1.58c.08-.54.5-.99 1.41-.99.81 0 1.21.36 1.21.8 0 .57-.73.71-1.63.8-1.23.14-2.74.56-2.74 2.15 0 1.23.92 2.03 2.38 2.03 1.14 0 1.86-.48 2.22-1.24.05.68.55 1.12 1.26 1.12h.93v-1.42h-.79v-3.09Zm-1.57 1.73c0 .91-.8 1.59-1.77 1.59-.6 0-1.1-.26-1.1-.79 0-.67.8-.86 1.55-.94.72-.06 1.12-.22 1.32-.53v.67Zm-8.47-4.2c-.89 0-1.63.37-2.16.99v-3.75h-1.6v9.74h1.57v-.9a2.77 2.77 0 0 0 2.2 1.03c1.9 0 3.35-1.51 3.35-3.55s-1.47-3.56-3.36-3.56Zm-.24 5.64c-1.14 0-1.98-.89-1.98-2.08 0-1.2.85-2.1 2-2.1s1.96.9 1.96 2.1c0 1.2-.83 2.08-1.98 2.08Zm-7.33-5.64c-1.04 0-1.72.42-2.12 1.02v-.9h-1.58v6.86h1.6V198c0-1.05.66-1.8 1.65-1.8.91 0 1.48.66 1.48 1.6v3.92h1.6v-4.04c0-1.72-.9-2.94-2.63-2.94Zm32.46 3.34a3.24 3.24 0 0 0-3.36-3.34 3.47 3.47 0 0 0-3.55 3.56c0 2.13 1.6 3.55 3.57 3.55 1.67 0 2.97-.98 3.3-2.37h-1.66c-.24.6-.83.95-1.61.95-1.02 0-1.8-.63-1.97-1.75h5.28v-.6Zm-5.18-.53c.25-.96.97-1.42 1.8-1.42.9 0 1.58.51 1.75 1.42h-3.55Zm58.06-8.84-2.84 13.15h-3.44l2.84-13.16h3.44Zm14.46 8.48 1.8-4.94 1.04 4.94h-2.84Zm3.84 4.67h3.18l-2.78-13.16h-2.93c-.32 0-.63.09-.88.27-.26.17-.46.42-.59.7l-5.15 12.19h3.6l.72-1.97h4.42l.41 1.97Zm-8.97-4.3c.01-3.48-4.85-3.67-4.81-5.23.01-.47.46-.97 1.46-1.1a6.6 6.6 0 0 1 3.39.6l.6-2.79a9.14 9.14 0 0 0-3.22-.58c-3.4 0-5.79 1.79-5.8 4.36-.03 1.89 1.7 2.95 3 3.58 1.35.64 1.8 1.06 1.79 1.64-.02.88-1.07 1.26-2.06 1.29a7.2 7.2 0 0 1-3.54-.83l-.62 2.88c1.22.47 2.51.7 3.83.7 3.6-.02 5.97-1.79 5.98-4.52Zm-14.23-8.85-5.57 13.15h-3.63l-2.74-10.5a1.44 1.44 0 0 0-.82-1.16 14.7 14.7 0 0 0-3.39-1.12l.09-.39h5.85a1.58 1.58 0 0 1 1.59 1.34l1.45 7.61 3.59-8.96 3.58.03Zm8.58-8.22h1.27c.31-.03.63 0 .94.09a2.22 2.22 0 0 1 1.34 1.23c.12.29.17.6.15.91v.06a2.21 2.21 0 0 1-.69 1.7c-.23.22-.51.38-.82.47a2 2 0 0 1-.94.09H167v-4.55Zm1.24 4.1a1.68 1.68 0 0 0 1.37-.48 1.65 1.65 0 0 0 .49-1.34v-.05a1.62 1.62 0 0 0-1.86-1.77h-.64v3.66h.64v-.03Zm3.49-4.1h2.8v.45h-2.21v1.54h1.78v.45h-1.78v1.65h2.34v.45h-2.93v-4.54Zm3.87 0h1.46c.89 0 1.55.28 1.55 1.19v.02a.94.94 0 0 1-.72.96c.7.16.96.5.96 1.09v.02c0 .86-.62 1.27-1.58 1.27h-1.65l-.01-4.55Zm1.45 1.98c.7 0 .97-.24.97-.8v-.02c0-.52-.31-.72-.99-.72h-.85v1.55h.87Zm.2 2.14c.69 0 1.02-.3 1.02-.85v-.02c0-.56-.33-.84-1.1-.84h-.98v1.7h1.05Zm2.65-4.12h.58v4.55h-.59v-4.55Zm2.87.45h-1.4v-.45h3.37v.45h-1.4v4.09h-.58v-4.09Z"/><path fill="#464B55" d="M156 14.66h21.6v28.8H156v-28.8Z"/><path fill="#0A0B0D" fill-rule="evenodd" d="M177.6 29.56H156v-1h21.6v1Z" clip-rule="evenodd"/><path fill="#0A0B0D" fill-rule="evenodd" d="M163.7 14.66v28.8h-1v-28.8h1Zm7.2 0v28.8h-1v-28.8h1Z" clip-rule="evenodd"/><path fill="#ECD069" d="m120 172.8 48 67.2H72l48-67.2Z"/><path fill="#0A0B0D" d="M121.9 219.24h-3.72l-1.87-27.42h7.46l-1.86 27.42ZM120.04 231a3.83 3.83 0 0 0 3.73-3.92 3.83 3.83 0 0 0-3.73-3.92 3.83 3.83 0 0 0-3.73 3.92 3.83 3.83 0 0 0 3.73 3.92Z"/></svg>