<svg xmlns="http://www.w3.org/2000/svg" fill="none" viewBox="0 0 240 240"><g clip-path="url(#a)"><path fill="#FFFFFF" d="M172.203 132.6v23.7h22.5v-23.7z"/><path fill="#464B55" d="m64 88 136-56v56z"/><path fill="#578BFA" d="M200 88H64v119.8h136z"/><path fill="#464B55" d="M232 88h-32v119.8h32z"/><path fill="#0A0B0D" d="M231.997 128.1h-52.3c-11 0-19.9 8.9-19.9 19.9s8.9 19.9 19.9 19.9h52.3z"/><path fill="#FFFFFF" d="M180 160c6.6 0 12-5.4 12-12s-5.4-12-12-12-12 5.4-12 12 5.4 12 12 12"/><path fill="#0A0B0D" d="M180 152c2.2 0 4-1.8 4-4s-1.8-4-4-4-4 1.8-4 4 1.8 4 4 4"/><path fill="#F0616D" d="M36 183.9c19.9 0 36-16.1 36-36s-16.1-36-36-36-36 16.1-36 36 16.1 36 36 36"/><path fill="#464B55" d="M128 148c0 19.9-16.1 36-36 36s-36-16.1-36-36 16.1-36 36-36 36 16.1 36 36"/><path fill="#0A0B0D" d="M56 148c0 8.6 3 16.4 8 22.6 5-6.2 8-14.1 8-22.7s-3-16.4-8-22.6c-5 6.2-8 14.1-8 22.7m-19.297 6.1h-3.3l-1.7-24.1h6.6zM35 166.1c2.2 0 4-1.8 4-4s-1.8-4-4-4-4 1.8-4 4 1.8 4 4 4"/><path stroke="#FFFFFF" stroke-miterlimit="10" stroke-width="2" d="M110.603 148.1h-29.4"/><path stroke="#0A0B0D" stroke-miterlimit="10" stroke-width="2" d="M232 104H64m168 88H64"/><path stroke="#FFFFFF" stroke-miterlimit="10" stroke-width="2" d="M91.4 159.2 80 147.9l11.4-11.3"/><path fill="#464B55" d="M240 128h-8v40.1h8z"/></g><defs><clipPath id="a"><path fill="#FFFFFF" d="M0 0h240v240H0z"/></clipPath></defs></svg>