<svg xmlns="http://www.w3.org/2000/svg" fill="none" viewBox="0 0 240 240"><path fill="#44C28D" d="M184.2 0h-128v168h128V0Z"/><path fill="#464B55" d="M208 186h-24v22h24v-22Zm0 22H32v32h176v-32Z"/><path fill="#464B55" d="M56 186H32v23h24v-23Z"/><path fill="#0A0B0D" fill-rule="evenodd" d="M88 25H72v-2h16v2Zm-1 49H71v-2h16v2Zm57-49h-40v-2h40v2Zm-1 49h-40v-2h40v2Zm25-49h-16v-2h16v2Zm-1 49h-16v-2h16v2Z" clip-rule="evenodd"/><path fill="#588AF5" d="m159.8 168-39.6 40-39.6-40h79.2Z"/><path fill="#0A0B0D" d="M136.2 136h-32v32h32v-32Z"/><path fill="#0A0B0D" fill-rule="evenodd" d="M71 39h26v10H71V39Zm2 2v6h22v-6H73Z" clip-rule="evenodd"/><path fill="#0A0B0D" fill-rule="evenodd" d="M71 47h26v10H71V47Zm2 2v6h22v-6H73Z" clip-rule="evenodd"/><path fill="#0A0B0D" fill-rule="evenodd" d="M71 55h26v10H71V55Zm2 2v6h22v-6H73Zm-2 22h34v10H71V79Zm2 2v6h30v-6H73Z" clip-rule="evenodd"/><path fill="#0A0B0D" fill-rule="evenodd" d="M71 87h34v10H71V87Zm2 2v6h30v-6H73Z" clip-rule="evenodd"/><path fill="#0A0B0D" fill-rule="evenodd" d="M71 95h34v10H71V95Zm2 2v6h30v-6H73Zm-2 14h34v10H71v-10Zm2 2v6h30v-6H73Zm30-74h66v10h-66V39Zm2 2v6h62v-6h-62Z" clip-rule="evenodd"/><path fill="#0A0B0D" fill-rule="evenodd" d="M103 47h66v10h-66V47Zm2 2v6h62v-6h-62Z" clip-rule="evenodd"/><path fill="#0A0B0D" fill-rule="evenodd" d="M103 55h66v10h-66V55Zm2 2v6h62v-6h-62Zm-2 22h66v10h-66V79Zm2 2v6h62v-6h-62Z" clip-rule="evenodd"/><path fill="#0A0B0D" fill-rule="evenodd" d="M103 87h66v10h-66V87Zm2 2v6h62v-6h-62Z" clip-rule="evenodd"/><path fill="#0A0B0D" fill-rule="evenodd" d="M103 95h66v10h-66V95Zm2 2v6h62v-6h-62Zm-2 14h66v10h-66v-10Zm2 2v6h62v-6h-62Z" clip-rule="evenodd"/></svg>