<svg xmlns="http://www.w3.org/2000/svg" fill="none" viewBox="0 0 240 240"><path fill="#464B55" fill-rule="evenodd" d="M18.315 69.231c-14.059-14.059-14.059-36.853 0-50.911 14.06-14.06 36.853-14.06 50.912 0l65.305 65.304c14.059 14.06 14.059 36.853 0 50.912s-36.853 14.059-50.912 0zM29.63 29.633c-7.81 7.81-7.81 20.474 0 28.284l65.305 65.305c7.81 7.811 20.474 7.811 28.284 0 7.811-7.81 7.811-20.473 0-28.284L57.913 29.633c-7.81-7.81-20.474-7.81-28.284 0" clip-rule="evenodd"/><path fill="#45D9F5" fill-rule="evenodd" d="M105.456 156.375c-14.059-14.059-14.059-36.853 0-50.911 14.059-14.06 36.853-14.06 50.912 0l65.391 65.391c14.059 14.059 14.059 36.853 0 50.912s-36.852 14.059-50.911 0zm11.314-39.598c-7.811 7.811-7.811 20.474 0 28.285l65.391 65.391c7.811 7.811 20.474 7.811 28.285 0 7.81-7.81 7.81-20.473 0-28.284l-65.392-65.392c-7.811-7.81-20.474-7.81-28.284 0" clip-rule="evenodd"/><path fill="#578BFA" fill-rule="evenodd" d="M142.996 96.998a36.16 36.16 0 0 0-19.134-1.385c3.939 4.319 5.646 9.947 5.12 15.399 5.453-.526 11.08 1.181 15.399 5.121a36.15 36.15 0 0 0-1.385-19.135m-26.869 47.389a36.15 36.15 0 0 1-19.134-1.386 36.15 36.15 0 0 1-1.385-19.134c4.319 3.94 9.946 5.646 15.399 5.12-.526 5.453 1.181 11.081 5.12 15.4" clip-rule="evenodd"/><path fill="#FFFFFF" fill-rule="evenodd" d="M36.944 41H35v-2h1.944zm7.778 0h-3.889v-2h3.89zm7.778 0h-3.889v-2H52.5zm7.778 0h-3.89v-2h3.89zm7.778 0h-3.89v-2h3.89zm7.777 0h-3.889v-2h3.89zm7.778 0h-3.889v-2h3.89zm7.778 0H87.5v-2h3.889zm7.778 0h-3.89v-2h3.89zm7.777 0h-3.888v-2h3.888zm7.778 0h-3.889v-2h3.889zm7.778 0h-3.889v-2h3.889zm7.778 0h-3.889v-2h3.889zm7.778 0h-3.889v-2h3.889zm7.777 0h-3.889v-2h3.889zm7.778 0h-3.889v-2h3.889zm7.778 0H157.5v-2h3.889zm7.778 0h-3.889v-2h3.889zM175 41h-1.945v-2H175z" clip-rule="evenodd"/><path fill="#44C28D" d="M34 40a6 6 0 1 1 12 0 6 6 0 0 1-12 0"/><path fill="#FFFFFF" fill-rule="evenodd" d="M195.059 201H197v-2h-1.941zm-7.765 0h3.882v-2h-3.882zm-7.765 0h3.883v-2h-3.883zm-7.764 0h3.882v-2h-3.882zM164 201h3.882v-2H164zm-7.765 0h3.883v-2h-3.883zm-7.764 0h3.882v-2h-3.882zm-7.765 0h3.882v-2h-3.882zm-7.765 0h3.883v-2h-3.883zm-7.765 0h3.883v-2h-3.883zm-7.764 0h3.882v-2h-3.882zm-7.765 0h3.882v-2h-3.882zm-7.765 0h3.883v-2h-3.883zm-7.764 0H98v-2h-3.882zm-7.765 0h3.882v-2h-3.882zm-7.765 0h3.883v-2h-3.883zm-7.764 0h3.882v-2h-3.883zM65 201h1.941v-2H65z" clip-rule="evenodd"/><path fill="#578BFA" d="M206 200a6 6 0 1 0-12 0 6 6 0 0 0 12 0"/><path fill="#44C28D" fill-rule="evenodd" d="M200 0c-22.091 0-40 17.909-40 40s17.909 40 40 40 40-17.909 40-40-17.909-40-40-40m-17.313 28.087-6.686 14.512h5.329V53.28a5.32 5.32 0 0 0 5.318 5.318h8.138v5.4h18.556V47.605a18.5 18.5 0 0 0 5.342-13.023c0-10.263-8.319-18.581-18.581-18.581-7.994 0-14.788 5.03-17.416 12.099z" clip-rule="evenodd"/><path fill="#578BFA" fill-rule="evenodd" d="M40 160c22.091 0 40 17.909 40 40s-17.909 40-40 40-40-17.909-40-40 17.909-40 40-40m17.314 28.087L64 202.599h-5.33v10.682a5.32 5.32 0 0 1-5.317 5.318h-8.138V224H26.66v-16.396a18.5 18.5 0 0 1-5.342-13.023c0-10.263 8.318-18.581 18.581-18.581 7.994 0 14.788 5.029 17.416 12.099z" clip-rule="evenodd"/></svg>