<svg xmlns="http://www.w3.org/2000/svg" fill="none" viewBox="0 0 240 240"><path fill="#464B55" d="M240 34a6 6 0 0 0-6-6h-40a13.28 13.28 0 0 0-9.53 4.85L176.36 44H46a10 10 0 0 0-10 10v142h204z"/><path fill="#45D9F5" d="m237.001 186.45-30-96.9a14.47 14.47 0 0 0-13-9.55h-184c-5.5 0-8.67 4.3-7 9.55L36 196h194c5.5 0 8.67-4.3 7-9.55"/><path fill="#578BFA" d="M240 196 207 89.55A14.47 14.47 0 0 0 194 80H36v116zM112 80l42.43-42.43A57.85 57.85 0 0 1 172 80z"/><path fill="#ECD069" d="M111.999 20a57.84 57.84 0 0 0-42.43 17.57A57.84 57.84 0 0 0 52 80h60l42.43-42.43A57.84 57.84 0 0 0 111.999 20"/><path fill="#0A0B0D" fill-rule="evenodd" d="M65 80c0-25.957 21.042-47 46.999-47s47 21.043 47 47h-94m-2 0c0-27.062 21.937-49 48.999-49s49 21.938 49 49h11a57.83 57.83 0 0 1-17.57 42.43 57.85 57.85 0 0 1-42.43 17.57 57.84 57.84 0 0 1-42.43-17.57A57.84 57.84 0 0 1 52 80z" clip-rule="evenodd"/></svg>