<svg xmlns="http://www.w3.org/2000/svg" fill="none" viewBox="0 0 240 240"><path fill="#464B55" d="M64 55h112v185h-24V103h-8v137h-8V100h-32v140h-8V89h-8v151h-8V135h-8v105h-8V55Zm128 127h16v58h-16v-58Zm32 0h16v58h-16v-58Z"/><path fill="#464B55" d="M72 141H8v99h24v-93h16v93h24v-99Z"/><path fill="#ECD069" d="M176 56a56 56 0 1 1-112 0 56 56 0 0 1 112 0Z"/><path fill="#0A0B0D" fill-rule="evenodd" d="M120 101a45 45 0 1 0 0-90 45 45 0 0 0 0 90Zm0 2a47 47 0 1 0 0-94 47 47 0 0 0 0 94Z" clip-rule="evenodd"/><path fill="#45DAF6" d="M200 224a40 40 0 1 1 0-80 40 40 0 0 1 0 80Z"/><path fill="#588AF5" d="M228.28 212.28a40 40 0 1 0-56.56-56.56L200 184l28.28 28.28Z"/><path fill="#44C28D" d="M80 136a40 40 0 1 1-80 0 40 40 0 0 1 80 0Z"/><path fill="#FFFFFF" d="M12.06 135.55C27.5 140.28 36.6 155.6 40.5 175c3.9-19.4 13-34.72 28.44-39.45.08 0 .08-.1 0-.1C53.5 130.72 44.4 115.4 40.5 96c-3.9 19.4-13 34.72-28.44 39.45-.08 0-.08.1 0 .1ZM216 184a16 16 0 1 1-32 0 16 16 0 0 1 32 0Z"/><path fill="#45DAF6" d="M164 31a12 12 0 0 1 12-12 12 12 0 0 1-12-12 12 12 0 0 1-12 12 12 12 0 0 1 12 12Z"/><path fill="#588AF5" fill-rule="evenodd" d="M159.54 16.34a56.34 56.34 0 0 1 6.57 7.87A11.94 11.94 0 0 0 164 31a12 12 0 0 0-12-12 12 12 0 0 0 7.54-2.66Z" clip-rule="evenodd"/><path fill="#ECD069" d="M12 120a12 12 0 0 1 12-12 12 12 0 0 1-12-12 12 12 0 0 1-12 12 12 12 0 0 1 12 12Z"/><path fill="#588AF5" fill-rule="evenodd" d="M24 108a12 12 0 0 0-12 12c0-3.35-1.37-6.38-3.58-8.55a40.2 40.2 0 0 1 7.03-7.03A11.97 11.97 0 0 0 24 108Z" clip-rule="evenodd"/><path fill="#45DAF6" d="M228 168a12 12 0 0 1 12-12 12 12 0 0 1-12-12 12 12 0 0 1-12 12 12 12 0 0 1 12 12Z"/><path fill="#0A0B0D" fill-rule="evenodd" d="M224.55 152.42A11.96 11.96 0 0 1 216 156a12 12 0 0 1 12 12c0-3.35 1.37-6.37 3.58-8.55a40.07 40.07 0 0 0-7.03-7.03Z" clip-rule="evenodd"/><path fill="#45DAF6" d="M72 208a8 8 0 0 1 8-8 8 8 0 0 1-8-8 8 8 0 0 1-8 8 8 8 0 0 1 8 8Z"/><path fill="#588AF5" fill-rule="evenodd" d="M72 192.12V208a8 8 0 0 0-8-8 8 8 0 0 0 8-7.88Z" clip-rule="evenodd"/><path fill="#45DAF6" d="M40 48a8 8 0 0 1 8-8 8 8 0 0 1-8-8 8 8 0 0 1-8 8 8 8 0 0 1 8 8Z"/><path fill="#44C28D" d="M216 80a8 8 0 0 1 8-8 8 8 0 0 1-8-8 8 8 0 0 1-8 8 8 8 0 0 1 8 8Z"/><path fill="#ECD069" d="M176 144a24 24 0 0 1 24-24 24 24 0 0 1-24-24 24 24 0 0 1-24 24 24 24 0 0 1 24 24Z"/><path fill="#588AF5" fill-rule="evenodd" d="M176 96.34V144a24 24 0 0 0-24-24 24 24 0 0 0 24-24v.34Z" clip-rule="evenodd"/></svg>