<svg xmlns="http://www.w3.org/2000/svg" fill="none" viewBox="0 0 240 244"><path fill="#464B55" d="M240 76.6h-88v114h56V144h-32v-32h40v127.6h24v-163Z"/><path fill="#45DAF6" d="M152 30a6 6 0 0 1 6-6h76a6 6 0 0 1 6 6v76a6 6 0 0 1-6 6h-76a6 6 0 0 1-6-6V30Z"/><path fill="#464B55" d="M32 108h8v136h-8V108Zm40-.4h8v102h-8v-102Zm16 0h16v109H88v-109Zm-40 .4h16v136H48V108Zm-40 0h16v136H8V108Zm80 105H64v31h24v-31Z"/><path fill="#464B55" d="M96 244h24v-31H96v31Zm40-53.4h72v49h-16V202h-8v37.6h-24V202h-8v37.6h-16v-49Z"/><path fill="#45DAF6" d="M131.999 77c0-6.629 5.372-11.999 12.001-11.999-6.629 0-12.001-5.373-12.001-12.001 0 6.629-5.373 12.001-11.999 12.001 6.626 0 11.999 5.37 11.999 11.999Z"/><path fill="#44C28D" d="M23.999 176c0-6.629 5.373-11.999 12.001-11.999-6.628 0-12.001-5.372-12.001-12.001 0 6.629-5.373 12.001-11.999 12.001 6.626 0 11.999 5.37 11.999 11.999Z"/><path fill="#588AF5" fill-rule="evenodd" d="M24 152.172v23.656l-.001.172c0-6.629-5.373-11.999-11.999-11.999 6.626 0 11.999-5.372 11.999-12.001l.001.172Z" clip-rule="evenodd"/><path fill="#45DAF6" d="M215.999 140c0-6.629 5.372-11.999 12.001-11.999-6.629 0-12.001-5.372-12.001-12.001 0 6.629-5.373 12.001-11.999 12.001 6.626 0 11.999 5.37 11.999 11.999Z"/><path fill="#588AF5" fill-rule="evenodd" d="M216 116.172v23.656l.001.172c0-6.629 5.373-11.999 11.999-11.999-6.626 0-11.999-5.372-11.999-12.001l-.001.172Z" clip-rule="evenodd"/><path fill="#588AF5" d="M0 6a6 6 0 0 1 6-6h100a6 6 0 0 1 6 6v100a6 6 0 0 1-6 6H6a6 6 0 0 1-6-6V6Z"/><path fill="#0A0B0D" d="M95.874 85.679c.1.982.125 1.95.075 2.906a19.592 19.592 0 0 0-10.554-7.822l-.792-7.568c-5.753-38.737-33.155-43.648-38.587-44.25 4.59-4.675 12.012-7.377 18.732-5.522.952.265 1.864.591 2.731.987a19.671 19.671 0 0 0-8.574 4.31c4.77-1.804 10.258-1.644 15.13.902.876.46 1.698.972 2.46 1.543a19.621 19.621 0 0 0-7.793 1.669 18.45 18.45 0 0 1 12.458 4.49 18.922 18.922 0 0 1 2.045 2.065 19.668 19.668 0 0 0-8.53-.045 18.444 18.444 0 0 1 12.554 6.615 17.986 17.986 0 0 1 1.674 2.37 19.68 19.68 0 0 0-8.68-1.443c4.596 1.278 8.705 4.31 11.216 8.805.486.862.892 1.744 1.217 2.636a19.7 19.7 0 0 0-8.188-2.982 18.455 18.455 0 0 1 9.677 10.449c.34.927.601 1.859.787 2.796a19.592 19.592 0 0 0-6.71-3.944A18.46 18.46 0 0 1 96 78.497a19.57 19.57 0 0 0-6.42-4.89 18.457 18.457 0 0 1 6.294 12.072Z"/><path fill="#464B55" d="M48.369 37.575c-.12.22-.22.46-.29.716l-.081.281c-.045.165-.105.31-.185.446.075-.135.135-.28.18-.446l.08-.28c.07-.256.17-.497.296-.717Zm.429-.597c-.165.176-.31.376-.43.597.114-.22.26-.421.43-.597Zm1.18-.802Z"/><path fill="#FFFFFF" d="M69.54 61.088c-.006-.005-.006-.01-.006-.015-.035-.24-.08-.476-.125-.712a53.47 53.47 0 0 0-.285-1.393 6.24 6.24 0 0 0-.096-.44l-.12-.502c-.035-.135-.065-.266-.1-.396-.116-.44-.23-.872-.356-1.298-.115-.4-.24-.791-.366-1.177l-.03-.1c-.065-.196-.135-.386-.2-.577-.14-.406-.286-.797-.441-1.188-.076-.19-.15-.386-.23-.576l-.242-.566a36.333 36.333 0 0 0-.771-1.634 28.742 28.742 0 0 0-.837-1.553c-.095-.17-.196-.336-.296-.502a17.89 17.89 0 0 0-.611-.967 9.78 9.78 0 0 0-.316-.476 25.898 25.898 0 0 0-.987-1.368 30.135 30.135 0 0 0-1.423-1.734 14.963 14.963 0 0 0-.356-.396 32.587 32.587 0 0 0-1.529-1.583c-.135-.126-.265-.25-.4-.381-.13-.126-.266-.246-.401-.371a34.077 34.077 0 0 0-1.664-1.438 36.99 36.99 0 0 0-.862-.692c-.146-.11-.29-.225-.441-.336a12.566 12.566 0 0 0-.441-.33c-.3-.226-.606-.446-.917-.667-.296-.21-.597-.416-.902-.626-.306-.21-.617-.416-.932-.622a3.34 3.34 0 0 0-.847-.39 3.028 3.028 0 0 0-1.098-.116c-.08.005-.155.01-.235.025a1.96 1.96 0 0 0-.236.045c-.08.015-.16.035-.235.06-.076.025-.15.05-.226.08a3.073 3.073 0 0 0-.631.331c-.07.04-.14.09-.206.15-.06.046-.115.09-.17.146a2.877 2.877 0 0 0-.606.772c-.12.22-.221.46-.291.716l-.08.281a1.78 1.78 0 0 1-.457.797c-.656.661-1.779.691-2.47.06-.1-.09-.19-.2-.27-.32a1.655 1.655 0 0 1-.206-.402l-4.13-11.45c.026.074.046.15.066.225.065.215.125.42.175.626.03.1.055.206.075.306.02.07.035.14.05.21.04.166.07.326.096.482a8.703 8.703 0 0 1 .09.57c.015.151.03.297.035.437.005.075.005.145.005.215 0 .096-.005.186-.01.276a3.906 3.906 0 0 1-.065.42c-.03.101-.06.201-.106.287l-.03.055a.926.926 0 0 1-.2.255.798.798 0 0 1-.34.18c-.712.191-1.204-.105-1.5-.4-.03-.03-.054-.06-.08-.085a1.53 1.53 0 0 1-.13-.166c-.09-.125-.135-.215-.135-.215l-.165.21-1.98 2.47-1.984 2.471-.005-.005-6.215 7.733a1.946 1.946 0 0 0-.375 1.649l.53 2.31-10.954 15.655a5.192 5.192 0 0 0-.837 3.98l.34 1.718a5.607 5.607 0 0 0 4.26 4.385l2.742.627a5.607 5.607 0 0 0 4.31-.762l1.723-1.118a2.11 2.11 0 0 0 .958-1.764v-1.072l3.457-9.286c.371.37 2.631 2.566 5.929 3.187 1.769.336 3.834.22 6.069-.872.416-.2.806-.42 1.177-.646l.361-.23h.005c.206-.136.396-.272.587-.417a4.6 4.6 0 0 0 .345-.27c.04-.026.08-.06.12-.1.13-.1.251-.206.371-.321.005.005.015-.005.02-.015.146-.126.281-.261.411-.391.09-.09.18-.18.266-.276.09-.09.17-.185.25-.275l.236-.281c.075-.095.15-.19.22-.286a6.12 6.12 0 0 0 .216-.29c.2-.286.39-.582.561-.872.17-.296.321-.592.461-.887.872-1.88 1.128-3.754 1.173-5.162.04-1.393-.135-2.32-.135-2.32h.005l.005.005c.015.01.065.045.135.1a3.918 3.918 0 0 1 .366.326c.04.035.08.075.12.12.19.185.406.43.627.731a9.2 9.2 0 0 1 1.263 2.34c.33.883.59 1.945.701 3.218.04.421.06.867.06 1.338 0 1.283-.15 2.536-.42 3.744a18.66 18.66 0 0 1-.372 1.428c-.065.235-.14.466-.22.696-.02.07-.045.136-.07.206a22.665 22.665 0 0 1-.717 1.809 24.54 24.54 0 0 1-.932 1.89 26.611 26.611 0 0 1-1.027 1.743 7.599 7.599 0 0 1-.271.426c-.14.22-.286.436-.436.647-.205.3-.41.591-.621.872a34.495 34.495 0 0 1-3.669 4.234l-.2.196a6.7 6.7 0 0 1-.326.3c-.01.015-.02.02-.03.03h-.005l-.025.025c-.11.136-.225.266-.34.396-5.634 6.29-11.276 7.893-14.599 15.987h35.53l1.033-3.283c2.075-11.686 2.27-20.702 1.067-27.848Zm-48.686 7.627-.767 1.048a.602.602 0 0 1-1.072-.24l-.456-2.311a1.757 1.757 0 0 1 .822-1.85.845.845 0 0 1 1.092.195l.33.417c.632.797.652 1.924.051 2.741ZM35.207 45.94a3.35 3.35 0 0 1-3.268 1.187 3.36 3.36 0 0 1 .456-3.442 3.343 3.343 0 0 1 3.268-1.188 3.336 3.336 0 0 1-.456 3.443Zm25.247 38.256-10.705 1.023c-.982.09-1.503-1.133-.756-1.774 2.495-2.16 5.267-4.12 8.038-7.212 1.784-1.994 2.927-4.25 3.653-6.454.19-.572 1.028-.481 1.083.125l1.062 11.42a2.636 2.636 0 0 1-2.375 2.872Z"/><path fill="#FFFFFF" d="M20.802 65.974c.632.797.652 1.924.05 2.741l-.766 1.048a.602.602 0 0 1-1.073-.24l-.456-2.311a1.757 1.757 0 0 1 .822-1.85.846.846 0 0 1 1.092.195l.331.417Zm11.134-18.847a3.36 3.36 0 0 1 .456-3.443 3.343 3.343 0 0 1 3.268-1.188 3.336 3.336 0 0 1-.456 3.443 3.35 3.35 0 0 1-3.268 1.188Zm2.397-11.04-.005-.006 1.985-2.47.035-.04 1.95-2.426-1.98 2.47-1.985 2.471Zm6.197-8.605c-.035-.105-.065-.216-.1-.32l.035.094c.025.075.045.15.065.226Zm6.383 48.299c-.01.016-.02.02-.03.03.01-.01.015-.02.025-.03h.005Zm1.085-37.209c-.045.165-.105.31-.185.446.075-.135.135-.28.18-.446l.08-.28c.07-.256.17-.497.296-.717-.12.22-.22.46-.29.716l-.081.281Zm.8-1.594c-.165.176-.31.376-.43.597.114-.22.26-.421.43-.597Zm1.18-.802Zm2.942 13.241h-.006v-.005l.006.005Zm.537 17.945Zm.709-16.667a8.086 8.086 0 0 0-.627-.732c.19.185.406.43.627.732Zm.227 14.778a24.505 24.505 0 0 1-.932 1.89c.326-.607.641-1.239.932-1.89Zm1.037-12.438c.33.882.591 1.944.701 3.217a12.335 12.335 0 0 0-.701-3.217Zm-.032 9.727c.14-.471.261-.947.371-1.428-.105.486-.23.962-.37 1.428Zm.368-1.428a17.49 17.49 0 0 0 .416-3.744c0-.47-.02-.912-.056-1.338.04.421.06.867.06 1.338 0 1.283-.15 2.536-.42 3.744Zm-6.771 22.11c2.495-2.16 5.267-4.12 8.038-7.212 1.784-1.994 2.926-4.25 3.653-6.454.19-.572 1.028-.481 1.083.125l1.062 11.42a2.636 2.636 0 0 1-2.375 2.872L49.75 85.218c-.982.09-1.503-1.133-.756-1.774Zm-8.804-20.121-3.764 2.446-5.622 3.653 3.458-9.286c.37.37 2.63 2.566 5.928 3.187Z"/><path fill="#0A0B0D" d="M41.058 30.328c0 .096-.005.186-.01.276-.01.095-.02.186-.035.27l-.03.151c-.03.1-.06.2-.105.286l-.03.055a.926.926 0 0 1-.2.255.799.799 0 0 1-.341.18c-.712.191-1.203-.104-1.499-.4-.03-.03-.055-.06-.08-.085a2.662 2.662 0 0 1-.13-.166 2.083 2.083 0 0 1-.13-.215h-.006c-.095-.22-2.2-4.856-.636-10.183 0 0 .812 1.638 1.619 3.653l.992 2.751v.005l.03.095c.025.076.045.15.065.226.065.216.125.42.176.626.03.1.055.206.075.306.015.07.035.14.05.21.04.166.07.326.095.482a8.824 8.824 0 0 1 .09.57c.015.151.03.297.035.437.005.075.005.145.005.215ZM20.852 68.715l-.766 1.048a.602.602 0 0 1-1.073-.24l-.456-2.311a1.757 1.757 0 0 1 .822-1.85.846.846 0 0 1 1.092.195l.331.417c.632.797.652 1.924.05 2.741Z"/><path fill="#464B55" d="M56.194 57.59c0 1.283-.15 2.536-.421 3.744-.105.486-.23.962-.37 1.428-.071.23-.146.466-.221.697-.02.07-.046.135-.07.205-.14.39-.286.772-.437 1.153a24.468 24.468 0 0 1-1.213 2.546 26.595 26.595 0 0 1-1.027 1.743c-.09.14-.18.286-.27.426-.14.22-.286.436-.436.647-.21.3-.416.591-.622.872a34.52 34.52 0 0 1-3.668 4.234l-.2.196a7.22 7.22 0 0 1-.326.3c-.01.015-.02.02-.03.03.01-.01.015-.02.025-.03 3.558-4.274 4.345-9.616 4.43-13.02.04-1.498-1.609-2.43-2.867-1.613l-.661.426c.205-.135.396-.27.586-.416.12-.085.236-.175.346-.27.04-.025.08-.06.12-.1a4.55 4.55 0 0 0 .371-.321c.005.005.015-.005.02-.015.14-.126.28-.256.411-.391.095-.09.185-.18.266-.276.09-.09.17-.185.25-.275.086-.096.16-.186.236-.281.08-.095.155-.19.22-.286.08-.095.15-.19.216-.29a8.28 8.28 0 0 0 .561-.872 10.7 10.7 0 0 0 .461-.887c.877-1.88 1.138-3.759 1.173-5.162.04-1.328-.115-2.235-.13-2.315v-.005l.005.005c.015.01.065.045.135.1a3.9 3.9 0 0 1 .366.326l.12.12c.19.185.406.43.626.731.076.1.15.211.23.321a9.2 9.2 0 0 1 1.033 2.02c.33.882.591 1.944.702 3.217.04.421.06.867.06 1.338Z"/><path fill="#0A0B0D" d="M35.204 45.939a3.35 3.35 0 0 1-3.268 1.188 3.36 3.36 0 0 1 .456-3.443 3.343 3.343 0 0 1 3.268-1.188 3.336 3.336 0 0 1-.456 3.443Z"/><path fill="#FFFFFF" d="m20.133 20.631 14.192 15.45.005.005 3.964-4.94L20.133 20.63Z"/><path fill="#464B55" d="M68.47 88.936c2.075-11.686 2.27-20.702 1.067-27.848-.005-.005-.005-.01-.005-.015-.035-.24-.08-.476-.125-.712-.025-.165-.06-.325-.09-.486a27.03 27.03 0 0 0-.196-.907 6.238 6.238 0 0 0-.095-.44l-.12-.502a5.092 5.092 0 0 0-.1-.396c-.11-.44-.226-.872-.356-1.298-.11-.4-.236-.791-.366-1.177a11.162 11.162 0 0 0-.23-.676 25.6 25.6 0 0 0-.442-1.188 11.49 11.49 0 0 0-.23-.577l-.24-.566a22.162 22.162 0 0 0-.507-1.098c-.085-.18-.175-.36-.265-.536-.086-.175-.176-.35-.271-.526-.18-.35-.37-.692-.566-1.027-.096-.17-.196-.336-.296-.502a18.29 18.29 0 0 0-.611-.967c-.1-.16-.206-.32-.316-.476a25.904 25.904 0 0 0-.987-1.368 30.143 30.143 0 0 0-1.423-1.734 6.518 6.518 0 0 0-.356-.396 32.587 32.587 0 0 0-1.529-1.583c-.135-.13-.265-.26-.4-.381-.131-.13-.266-.25-.402-.371-.135-.125-.27-.245-.406-.366a9.396 9.396 0 0 0-.416-.366c-.275-.24-.556-.48-.841-.706a36.99 36.99 0 0 0-.862-.692c-.146-.11-.291-.225-.441-.336a12.566 12.566 0 0 0-.441-.33 45.901 45.901 0 0 0-.917-.667 28.721 28.721 0 0 0-.903-.626c-.305-.21-.616-.416-.932-.622a3.34 3.34 0 0 0-.846-.39 3.028 3.028 0 0 0-1.098-.116c-.08.005-.155.01-.235.025a1.96 1.96 0 0 0-.236.045c-.08.015-.16.035-.236.06-.075.02-.15.046-.225.08-.15.056-.29.121-.431.206a1.21 1.21 0 0 0-.2.125c-.07.04-.14.09-.206.15-.06.046-.115.091-.17.146a1.445 1.445 0 0 0-.176.175c-.17.176-.316.376-.43.597-.126.22-.226.46-.297.716l-.08.281a1.98 1.98 0 0 1-.18.446c-.08.13-.17.25-.27.35-.657.662-1.78.692-2.471.061a1.868 1.868 0 0 1-.471-.722L40.43 27.161v-.005a36.61 36.61 0 0 0-.992-2.751c-.807-2.015-1.619-3.653-1.619-3.653s4.51 2.09 7.257 8.118c0 0 .33.015.937.075 5.432.602 32.834 5.513 38.587 44.25l.792 7.568 1.198 11.456H67.438l1.032-3.283Z"/><path fill="#FFFFFF" d="M216 60c0 11.046-8.954 20-20 20s-20-8.954-20-20 8.954-20 20-20 20 8.954 20 20Z"/><path fill="#FFFFFF" d="M176 61h40v35h-40V61Z"/><path fill="#0A0B0D" d="M193 57a3 3 0 1 1-6 0 3 3 0 0 1 6 0Zm12 0a3 3 0 1 1-6 0 3 3 0 0 1 6 0Z"/><path fill="#45DAF6" d="M184 88h8v8h-8v-8Zm16 0h8v8h-8v-8Z"/><path fill="#0A0B0D" fill-rule="evenodd" d="M192 64a4 4 0 0 0 8 0h-8Z" clip-rule="evenodd"/><path fill="#ECD069" d="M136 142a6 6 0 0 1 6-6h60a6 6 0 0 1 6 6v60a6 6 0 0 1-6 6h-60a6 6 0 0 1-6-6v-60Z"/><path fill="#588AF5" d="M152 152h40v40h-40v-40Z"/><path fill="#44C28D" d="m152 152-4-4v48l4-4v-40Zm40 40 4 4v-48l-4 4v40Z"/><path fill="#0A0B0D" d="m192 152 4-4h-48l4 4h40Zm-40 40-4 4h48l-4-4h-40Z"/><path fill="#FFFFFF" d="m172 180-7-7-13 11.421V192h40v-16l-8-8-12 12Z"/><path fill="#ECD069" d="M168 162.5a5.5 5.5 0 1 1-11 0 5.5 5.5 0 1 1 11 0Z"/><path fill="#44C28D" d="M64 182a6 6 0 0 1 6-6h44a6 6 0 0 1 6 6v44a6 6 0 0 1-6 6H70a6 6 0 0 1-6-6v-44Z"/><path fill="#0A0B0D" d="M72 208h8v16h-8v-16Zm16-8h8v24h-8v-24Zm16-8h8v32h-8v-32Z"/></svg>