<svg xmlns="http://www.w3.org/2000/svg" fill="none" viewBox="0 0 240 240"><path fill="#45DAF6" d="M94 0H10C4.477 0 0 4.477 0 10v84c0 5.523 4.477 10 10 10h84c5.523 0 10-4.477 10-10V10c0-5.523-4.477-10-10-10"/><path fill="#ECD069" d="M230 0h-84c-5.523 0-10 4.477-10 10v84c0 5.523 4.477 10 10 10h84c5.523 0 10-4.477 10-10V10c0-5.523-4.477-10-10-10"/><path fill="#464B55" d="M94 136H10c-5.523 0-10 4.477-10 10v84c0 5.523 4.477 10 10 10h84c5.523 0 10-4.477 10-10v-84c0-5.523-4.477-10-10-10"/><path fill="#588AF5" d="M230 136h-84c-5.523 0-10 4.477-10 10v84c0 5.523 4.477 10 10 10h84c5.523 0 10-4.477 10-10v-84c0-5.523-4.477-10-10-10"/><path fill="#0A0B0D" fill-rule="evenodd" d="M52 25c-14.912 0-27 12.088-27 27s12.088 27 27 27 27-12.088 27-27-12.088-27-27-27M23 52c0-16.016 12.984-29 29-29s29 12.984 29 29-12.984 29-29 29-29-12.984-29-29m140 112a1 1 0 0 1 1-1h48a1 1 0 0 1 1 1v48a1 1 0 0 1-1 1h-48a1 1 0 0 1-1-1zm2 1v46h46v-46zm23-144c.368 0 .706.202.88.526l28 52A1 1 0 0 1 216 75h-56a1 1 0 0 1-.88-1.474l28-52A1 1 0 0 1 188 21m-26.326 52h52.652L188 24.11zM28.703 163.293l48 48-1.414 1.414-48-48z" clip-rule="evenodd"/><path fill="#0A0B0D" fill-rule="evenodd" d="m76.703 164.707-48 48-1.414-1.414 48-48z" clip-rule="evenodd"/><path fill="#ECD069" d="M120 174c29.823 0 54-24.177 54-54s-24.177-54-54-54-54 24.177-54 54 24.177 54 54 54"/><path fill="#588AF5" d="M68.406 104h25.59a9.996 9.996 0 0 0 10-10V68.41A54.1 54.1 0 0 0 68.406 104M136 68.41V94a10 10 0 0 0 10 10h25.59A54.1 54.1 0 0 0 136 68.41M93.996 136h-25.59a54.1 54.1 0 0 0 35.59 35.59V146a9.997 9.997 0 0 0-10-10"/><path fill="#0A0B0D" d="M171.59 136H146a10 10 0 0 0-10 10v25.59A54.1 54.1 0 0 0 171.59 136"/><path fill="#0A0B0D" fill-rule="evenodd" d="M120 84c-19.882 0-36 16.118-36 36s16.118 36 36 36 36-16.118 36-36-16.118-36-36-36m-38 36c0-20.987 17.013-38 38-38s38 17.013 38 38-17.013 38-38 38-38-17.013-38-38" clip-rule="evenodd"/></svg>