<svg xmlns="http://www.w3.org/2000/svg" fill="none" viewBox="0 0 241 240"><path fill="#464B55" d="M120 24c25.6 0 49.8 10 67.9 28.1 37.4 37.4 37.4 98.3 0 135.8C169.8 206 145.6 216 120 216s-49.8-10-67.9-28.1c-37.4-37.4-37.4-98.3 0-135.8C70.2 34 94.4 24 120 24m0-24C89.3 0 58.6 11.7 35.1 35.1-11.7 82-11.7 158 35.1 204.9 58.6 228.3 89.3 240 120 240s61.4-11.7 84.9-35.1c46.9-46.9 46.9-122.8 0-169.7C181.4 11.7 150.7 0 120 0"/><path fill="#0A0B0D" fill-rule="evenodd" d="M120 11.5c27.755 0 55.512 10.598 76.707 31.793 20.892 20.892 31.49 48.145 31.793 75.596l-2 .022c-.297-26.95-10.699-53.696-31.207-74.204C174.488 23.902 147.245 13.5 120 13.5zm-.004 217c-27.755 0-55.512-10.598-76.707-31.793l1.414-1.414c20.805 20.805 48.048 31.207 75.293 31.207z" clip-rule="evenodd"/><path fill="#464B55" d="M132 228h-24c0-37.2 6.8-73.1 20.2-106.7s32.7-63.1 57.3-87.8l17 17C157.7 95.3 132 160 132 228"/><path fill="#44C28D" d="M132 228h-24c0-66.4-25.7-128.8-72.5-175.5l17-17C103.8 86.8 132 155.1 132 228"/><path fill="#578BFA" d="M108 228h24c0-28.2-4.2-55.7-12.4-81.8-7.7 26.2-11.6 53.6-11.6 81.8"/><path fill="#464B55" d="M12 132v-24c10.6 0 30.2-6.1 50.7-23.4C78.4 71.3 99 47.5 108.3 9.2l23.3 5.7C120.7 59.5 96.5 87.4 78.1 103c-21.2 17.9-46.5 29-66.1 29"/><path fill="#578BFA" d="M79.703 67.3c-5.8 7.1-11.7 12.8-17 17.3 4.7 6.6 9 13.4 13 20.4.8-.7 1.7-1.4 2.5-2.1 4.8-4.1 10.1-9 15.4-14.9-4.3-7.1-8.9-14-13.9-20.7"/><path fill="#44C28D" d="M186.703 202.4c-24-39.4-26.5-75-25.4-99.5 1.4-29.2 10.7-55.8 24.3-69.4l17 17c-7.7 7.7-16 27.3-17.3 53.6-1 21.1 1.4 52.5 22.2 86.7z"/><path fill="#578BFA" d="M161.102 107.2c11-21.1 24.9-40.3 41.4-56.8l-17-17c-13.6 13.6-22.9 40.2-24.3 69.4 0 1.5-.1 3-.1 4.4"/><path fill="#FFFFFF" d="M34.798 187.5c4.7-4.7 12.3-4.7 17 0s4.7 12.3 0 17-12.3 4.7-17 0-4.7-12.3 0-17"/><path fill="#FFFFFF" d="M34.798 187.5c4.7-4.7 12.3-4.7 17 0s4.7 12.3 0 17-12.3 4.7-17 0-4.7-12.3 0-17"/><path fill="#44C28D" d="M205.103 187.5c4.7 4.7 4.7 12.3 0 17s-12.3 4.7-17 0-4.7-12.3 0-17c4.8-4.7 12.4-4.7 17 0"/><path fill="#578BFA" d="M206.2 188.8c-2.8-4.7-5.2-9.4-7.4-14-3.2 4.6-6.9 9-11 13.2q-3 3-6.3 5.7c1.3 2.3 2.6 4.7 4 7 .6 1.4 1.4 2.7 2.6 3.9 4.7 4.7 12.3 4.7 17 0 4.3-4.4 4.7-11.1 1.1-15.8"/><path fill="#44C28D" d="M52.502 35.5c4.7 4.7 4.7 12.3 0 17s-12.3 4.7-17 0-4.7-12.3 0-17 12.3-4.7 17 0"/><path fill="#FFFFFF" d="M228 108c6.6 0 12 5.4 12 12s-5.4 12-12 12-12-5.4-12-12 5.4-12 12-12"/><path fill="#0A0B0D" fill-rule="evenodd" d="M119 228c0-72.146 26.992-139.406 74.293-186.707l1.414 1.414C147.808 89.607 121 156.346 121 228zM69.78 92.986c20.876-17.624 40.302-44.445 49.248-81.222l1.944.472C111.918 49.46 92.244 76.638 71.07 94.514 49.93 112.362 27.208 121 12 121v-2c14.592 0 36.871-8.362 57.78-26.014" clip-rule="evenodd"/><path fill="#578BFA" d="M35.502 52.5c2.9 2.9 5.7 5.9 8.5 8.9q3.75-4.8 8.1-9.3c2.8-2.8 5.7-5.4 8.8-7.8-2.7-3-5.5-5.9-8.4-8.8-4.7-4.7-12.3-4.7-17 0s-4.7 12.3 0 17"/><path fill="#FFFFFF" d="M108 12c0-6.6 5.4-12 12-12s12 5.4 12 12-5.4 12-12 12-12-5.4-12-12m-96 96c6.6 0 12 5.4 12 12s-5.4 12-12 12-12-5.4-12-12 5.4-12 12-12m96 120c0-6.6 5.4-12 12-12s12 5.4 12 12-5.4 12-12 12-12-5.4-12-12m86.297-198.1c6.6 0 12 5.4 12 12s-5.4 12-12 12-12-5.4-12-12c0-6.7 5.4-12 12-12"/></svg>