<svg xmlns="http://www.w3.org/2000/svg" fill="none" viewBox="0 0 240 240"><path fill="#578BFA" fill-rule="evenodd" d="M120.4 184h-.7C80.1 184 48 151.9 48 112.4V8h144v104.4c0 39.5-32.1 71.6-71.6 71.6" clip-rule="evenodd"/><path fill="#464B55" d="m168 240-48-24-48 24V80h96z"/><path fill="#0A0B0D" d="M72 165.9c12.7 11.3 29.3 18.1 47.6 18.1h.7c18.3 0 35-6.9 47.7-18.2V80H72z"/><path fill="#ECD069" d="M120 128c26.51 0 48-21.49 48-48s-21.49-48-48-48-48 21.49-48 48 21.49 48 48 48"/><path fill="#FFFFFF" fill-rule="evenodd" d="M172 80c0 28.719-23.281 52-52 52s-52-23.281-52-52 23.281-52 52-52 52 23.281 52 52m-4 0c0 26.51-21.49 48-48 48s-48-21.49-48-48 21.49-48 48-48 48 21.49 48 48" clip-rule="evenodd"/><path fill="#0A0B0D" fill-rule="evenodd" d="M120 41c-21.54 0-39 17.46-39 39s17.46 39 39 39 39-17.461 39-39-17.461-39-39-39M79 80c0-22.644 18.356-41 41-41s41 18.356 41 41-18.356 41-41 41-41-18.356-41-41" clip-rule="evenodd"/><path fill="#0A0B0D" fill-rule="evenodd" d="M106.7 65.9a4.7 4.7 0 1 0 0 9.4 4.7 4.7 0 0 0 0-9.4m-6.7 4.7a6.7 6.7 0 1 1 13.4 0 6.7 6.7 0 0 1-13.4 0m35.403 15.9a4.7 4.7 0 1 0 0 9.4 4.7 4.7 0 0 0 0-9.4m-6.7 4.7a6.7 6.7 0 1 1 13.4 0 6.7 6.7 0 0 1-13.4 0m8.398-30.306-30.5 41.3-1.609-1.188 30.5-41.3z" clip-rule="evenodd"/><path fill="#464B55" d="M208 0H32v16h176z"/></svg>