<svg xmlns="http://www.w3.org/2000/svg" fill="none" viewBox="0 0 240 240"><path fill="#45DAF6" fill-rule="evenodd" d="M36.54 240c2.28-5.878 5.858-11.438 11.427-15.31v.001a27.432 27.432 0 0 1 3.933-2.282 29.765 29.765 0 0 1 4.36-1.648l25.197-9.527.217-.088.175-.07.318-.477a22.962 22.962 0 0 1 11.003-8.736l5.27-1.99c.496-1.784.816-3.642 1.017-5.416.099-.871.169-1.723.217-2.536-5.123-5.938-9.59-14.327-10.27-25.133-3.7.846-5.897-2.5-6.215-4.82a17.694 17.694 0 0 0-.694-3.043c-.21-.647-.527-1.386-.87-2.185-1.374-3.193-3.15-7.324.027-10.209 1.462-1.328 4.593-.81 6.14-.029.06-.339.128-.676.206-1.011v-13.782c0-17.44 14.4-31.709 32.001-31.709a32 32 0 0 1 9.711 1.504c12.89 4.099 22.288 16.116 22.288 30.205v13.777c.079.337.148.675.206 1.015 1.549-.78 4.677-1.298 6.139.03 3.177 2.885 1.4 7.016.027 10.209v.001l-.001.002v.001c-.343.797-.66 1.535-.869 2.181a17.666 17.666 0 0 0-.694 3.043c-.318 2.32-2.515 5.665-6.213 4.82-.68 10.806-5.148 19.196-10.271 25.135.146 2.466.494 5.289 1.234 7.95l5.166 1.978a22.959 22.959 0 0 1 10.9 8.698l.288.431.331.133.31.125 25.169 9.517a29.755 29.755 0 0 1 4.396 1.663 27.383 27.383 0 0 1 3.942 2.293c5.551 3.871 9.12 9.422 11.397 15.289H36.539Z" clip-rule="evenodd"/><path fill="#464B55" d="M240 40v160H0V40h240Z"/><path fill="#588AF5" d="M240 40v16H0V40h240Z"/><path fill="#0A0B0D" d="M12 48a2 2 0 1 1-4 0 2 2 0 0 1 4 0Zm24 0a2 2 0 1 1-4 0 2 2 0 0 1 4 0Zm-12 0a2 2 0 1 1-4 0 2 2 0 0 1 4 0Z"/><path fill="#45DAF6" d="M77.999 24c0-6.628 5.373-11.999 12.001-11.999-6.629 0-12.001-5.372-12.001-12.001 0 6.629-5.373 12.001-11.999 12.001 6.626 0 11.999 5.37 11.999 11.999Zm129.999 32c0-8.838 7.164-15.998 16.002-15.998-8.838 0-16.002-7.164-16.002-16.002 0 8.838-7.163 16.002-15.998 16.002 8.835 0 15.998 7.16 15.998 15.998Z"/><path fill="#0A0B0D" fill-rule="evenodd" d="M224 40.002c-8.838 0-16.002 7.16-16.002 15.998 0-8.838-7.163-15.998-15.998-15.998.077 0 .153 0 .23-.002h31.54l.23.002ZM56 81H24v-2h32v2Zm48 16H24v-2h80v2Zm-16 16H24v-2h64v2Zm-8 16H56v-2h24v2Zm-32 0H24v-2h24v2Zm28 16H24v-2h52v2Zm0 16H24v-2h52v2Zm-36 16H24v-2h16v2Zm44 0H48v-2h36v2Zm132-96H64v-2h152v2Zm0 16h-80v-2h80v2Zm0 32h-56v-2h56v2Zm0 16h-52v-2h52v2Zm0-32h-24v-2h24v2Zm-32 0h-32v-2h32v2Zm-8 48h-12v-2h12v2Zm.094 16h-20v-2h20v2Z" clip-rule="evenodd"/><path fill="#588AF5" fill-rule="evenodd" d="m98.105 200 .337-.127c.496-1.784.816-3.642 1.017-5.416.1-.871.17-1.723.217-2.536-5.123-5.938-9.59-14.327-10.27-25.133-3.7.846-5.897-2.5-6.215-4.82a17.694 17.694 0 0 0-.694-3.043c-.209-.647-.527-1.386-.87-2.185-1.373-3.193-3.15-7.324.027-10.209 1.463-1.328 4.593-.81 6.14-.029.06-.339.128-.676.206-1.011v-13.782C88 114.269 102.4 100 120.001 100c3.382 0 6.645.529 9.711 1.504 12.89 4.099 22.289 16.116 22.289 30.205v13.777c.078.337.147.675.206 1.015 1.548-.78 4.676-1.298 6.138.03 3.177 2.885 1.401 7.016.028 10.209l-.001.001-.001.002v.001c-.343.797-.66 1.535-.869 2.181a17.666 17.666 0 0 0-.694 3.043c-.318 2.32-2.515 5.665-6.213 4.82-.679 10.806-5.147 19.196-10.271 25.135.146 2.466.494 5.289 1.234 7.95l.332.127H98.105Z" clip-rule="evenodd"/><path fill="#0A0B0D" fill-rule="evenodd" d="m195.055 179.97 8-24 1.897.632-8 24-1.897-.632Zm-3.762-20.677 1.414 1.414-7.293 7.293 7.293 7.293-1.414 1.414-8.707-8.707 8.707-8.707Zm17.414 0-1.414 1.414 7.293 7.293-7.293 7.293 1.414 1.414 8.707-8.707-8.707-8.707Z" clip-rule="evenodd"/></svg>