<svg xmlns="http://www.w3.org/2000/svg" fill="none" viewBox="0 0 240 240"><path fill="#464B55" d="M32 192h176V0H32z"/><path fill="#F07836" d="m120 112 80 128H40z"/><path fill="#588AF5" fill-rule="evenodd" d="m170 192-50-80-50 80z" clip-rule="evenodd"/><path fill="#FFFFFF" d="M123.5 200h-7l-3.5-48h14zm-3.5 24a8 8 0 1 0 0-16 8 8 0 0 0 0 16"/><path fill="#0A0B0D" fill-rule="evenodd" d="M176 33H64v-2h112zm-64 12H64v-2h48zm64 0h-56v-2h56zm0 24H64v-2h112zM96 57H64v-2h32zm40 0h-32v-2h32zm40 0h-32v-2h32zm-64 24H64v-2h48zm70 17H58v36h124zM56 96v40h128V96z" clip-rule="evenodd"/></svg>