<svg xmlns="http://www.w3.org/2000/svg" fill="none" viewBox="0 0 240 240"><path fill="#464B55" d="M184 0H32v208h152z"/><path fill="#464B55" d="M208 32H56v208h152z"/><path fill="#578BFA" d="M184 32H56v176h128z"/><path fill="#0A0B0D" fill-rule="evenodd" d="M71 71h98v122H71zm2 2v118h94V73z" clip-rule="evenodd"/><path fill="#0A0B0D" fill-rule="evenodd" d="M79 87h82v18H79zm2 2v14h78V89zm79 32H80v-2h80zm0 8H80v-2h80zm0 8H80v-2h80zm0 8H80v-2h80zm0 8H80v-2h80zm0 8H80v-2h80zm0 8H80v-2h80zm-16 8H96v-2h48z" clip-rule="evenodd"/><path fill="#FFFFFF" d="m136 168-16-16-16 16V88h32z"/><path fill="#44C28D" d="m120 50 5.2 5.16 6.54-3.3 3.36 6.51 7.24-1.11 1.17 7.23 7.23 1.17-1.11 7.24 6.51 3.36-3.3 6.54L158 88l-5.16 5.2 3.3 6.54-6.51 3.36 1.11 7.24-7.23 1.17-1.17 7.23-7.24-1.11-3.36 6.51-6.54-3.3L120 126l-5.2-5.16-6.54 3.3-3.36-6.51-7.24 1.11-1.17-7.23-7.23-1.17 1.11-7.24-6.51-3.36 3.3-6.54L82 88l5.16-5.2-3.3-6.54 6.51-3.36-1.11-7.24 7.23-1.17 1.17-7.23 7.24 1.11 3.36-6.51 6.54 3.3z"/><path fill="#FFFFFF" d="M120 64c13.25 0 24 10.75 24 24s-10.75 24-24 24-24-10.75-24-24 10.75-24 24-24m0-4c-15.44 0-28 12.56-28 28s12.56 28 28 28 28-12.56 28-28-12.56-28-28-28"/><path fill="#0A0B0D" fill-rule="evenodd" d="m116.731 95.076 15.292-15.293 1.415 1.414-16.707 16.707-8.708-8.707 1.415-1.414z" clip-rule="evenodd"/></svg>