<svg xmlns="http://www.w3.org/2000/svg" fill="none" viewBox="0 0 240 241"><path fill="#45D9F5" d="M0 240.003h144v-240H0z"/><path fill="#464B55" d="M240 0h-96v24h96z"/><path fill="#0A0B0D" d="M96 96H48v48h48zm0-16H48v8h48zm0-16H48v8h48zm0-16H48v8h48z"/><path fill="#464B55" d="M240 216h-96v24h96z"/><path fill="#578BFA" d="M0 24h144V0H0zm0 216h144v-24H0z"/><path fill="#0A0B0D" d="M72 14a2 2 0 1 0 0-4 2 2 0 0 0 0 4m8 212H64v4h16zm-7.997-34-48.498-48H120.5z"/><path fill="#FFFFFF" d="M143.891 76.9a4 4 0 0 1 4-4h88a4 4 0 0 1 4 4v87.999a4 4 0 0 1-4 4h-88c-2.21 0-4-1.79-4-4z"/></svg>