<svg xmlns="http://www.w3.org/2000/svg" fill="none" viewBox="0 0 240 240"><path fill="#464B55" fill-rule="evenodd" d="M144 208c.38-15.37 7.82-37.36 16.46-49.6l9.39-13.31c8.88-12.58 16.15-32.25 16.15-43.71V80.53H54v20.85c0 11.46 7.27 31.13 16.15 43.7l9.39 13.32C88.18 170.64 95.62 192.63 96 208h48Zm-48 0h48v16H96v-16Z" clip-rule="evenodd"/><path fill="#ECD069" d="M240 0H0v96h240V0Z"/><path fill="#588AF5" d="M54 96a66 66 0 0 1 132 0H54Z"/><path fill="#0A0B0D" d="M175 96a55 55 0 0 1-110 0h110Z"/><path fill="#ECD069" d="M65 96a55 55 0 1 1 110 0H65Z"/><path fill="#588AF5" d="M136 224a16 16 0 0 1-32 0h32Z"/><path fill="#0A0B0D" fill-rule="evenodd" d="M108.69 212.69A16 16 0 0 0 104 224h4.33a11.67 11.67 0 0 0 23.34 0H136a16 16 0 0 0-27.31-11.31Zm1.64 11.31a9.67 9.67 0 1 0 19.34 0h-19.34ZM119 16V0h2v16h-2ZM28 97H12v-2h16v2Zm200 0h-16v-2h16v2Z" clip-rule="evenodd"/><path fill="#FFFFFF" fill-rule="evenodd" d="M212 95h16v2h-16v-2ZM12 95h16v2H12v-2Z" clip-rule="evenodd"/><path fill="#0A0B0D" fill-rule="evenodd" d="m175.86 38.72 11.3-11.3 1.42 1.4-11.3 11.32-1.42-1.42ZM54.24 31.66 42.92 20.34l1.42-1.42 11.32 11.32-1.42 1.42Zm141.42 141.42-11.32-11.32 1.42-1.42 11.32 11.32-1.42 1.42Z" clip-rule="evenodd"/><path fill="#FFFFFF" fill-rule="evenodd" d="m64.14 153.28-11.31 11.3-1.42-1.4 11.31-11.32 1.42 1.42Zm121.62 7.06 11.32 11.32-1.42 1.42-11.32-11.32 1.42-1.42Z" clip-rule="evenodd"/><path fill="#0A0B0D" fill-rule="evenodd" d="m44.34 18.92 11.32 11.32-1.42 1.42-11.32-11.32 1.42-1.42Z" clip-rule="evenodd"/><path fill="#588AF5" d="M76 96a44 44 0 0 1 88 0H76Z"/><path fill="#ECD069" d="M164 96a44 44 0 0 1-88 0h88Z"/><path fill="#0A0B0D" fill-rule="evenodd" d="M120 63.08a32.92 32.92 0 1 0 0 65.84 32.92 32.92 0 0 0 0-65.84ZM85.08 96a34.92 34.92 0 1 1 69.84 0 34.92 34.92 0 0 1-69.84 0Z" clip-rule="evenodd"/><path fill="#588AF5" d="M96 180a24 24 0 0 1 48 0H96Z"/><path fill="#ECD069" d="M144 180a24 24 0 0 1-48 0h48Z"/><path fill="#0A0B0D" fill-rule="evenodd" d="M120 165a15 15 0 1 0 0 30 15 15 0 0 0 0-30Zm-17 15a17 17 0 1 1 34 0 17 17 0 0 1-34 0Z" clip-rule="evenodd"/><path fill="#0A0B0D" fill-rule="evenodd" d="m132.71 115.3-12.7-12.71-12.71 12.7 1.41 1.42 10.3-10.3V224h2V106.41l10.29 10.3 1.41-1.42Z" clip-rule="evenodd"/></svg>