<svg xmlns="http://www.w3.org/2000/svg" fill="none" viewBox="0 0 240 240"><path fill="#44C28D" fill-rule="evenodd" d="M222 16.01v190H32l190-190Z" clip-rule="evenodd"/><path fill="#464B55" d="M154 64h-32v176h32V64Z"/><path fill="#464B55" d="M154 64h-32v176h32V64Z"/><path fill="#588AF5" fill-rule="evenodd" d="M154 84.01v122h-32v-90l32-32Z" clip-rule="evenodd"/><path fill="#464B55" d="M204 16h-32v224h32V16Z"/><path fill="#588AF5" fill-rule="evenodd" d="M204 34.01v172h-32v-140l32-32Z" clip-rule="evenodd"/><path fill="#464B55" d="M104 112H72v128h32V112Z"/><path fill="#588AF5" fill-rule="evenodd" d="M104 134.01v72H72v-40l32-32Z" clip-rule="evenodd"/><path fill="#464B55" d="M88 128a16 16 0 1 0 0-32 16 16 0 0 0 0 32Z"/><path fill="#588AF5" fill-rule="evenodd" d="M104 112a16 16 0 1 1-32 0" clip-rule="evenodd"/><path fill="#ECD069" d="M138 80a16 16 0 1 0 0-32 16 16 0 0 0 0 32Z"/><path fill="#45DAF6" d="M188 32a16 16 0 1 0 0-32 16 16 0 0 0 0 32Z"/><path fill="#FFFFFF" d="M240 238H0v2h240v-2Z"/><path fill="#588AF5" d="M32 238a32 32 0 1 0 0-64 32 32 0 0 0 0 64Z"/><path fill="#588AF5" fill-rule="evenodd" d="M154 64a16 16 0 1 1-32 0m82-48a16 16 0 1 1-32 0" clip-rule="evenodd"/><path fill="#FFFFFF" d="M64 206.01H32l22.63-22.63A31.9 31.9 0 0 1 64 206.01Z"/><path stroke="#0A0B0D" stroke-miterlimit="10" stroke-width="2" d="M19 198.16a5 5 0 1 1 10 0 5 5 0 0 1-10 0Zm16 15.69a5 5 0 1 1 10 0 5 5 0 0 1-10 0Z" clip-rule="evenodd"/><path stroke="#0A0B0D" stroke-miterlimit="10" stroke-width="2" d="m20 218 24-24"/><path fill="#0A0B0D" d="M138 71a7 7 0 1 0 0-14 7 7 0 0 0 0 14Zm50-63.24a20.79 20.79 0 0 0 8.25 8.25 20.79 20.79 0 0 0-8.25 8.25 20.79 20.79 0 0 0-8.25-8.25A20.79 20.79 0 0 0 188 7.76Z"/></svg>