<svg xmlns="http://www.w3.org/2000/svg" fill="none" viewBox="0 0 240 240"><rect width="136" height="208" x="104" y="32" fill="#578BFA" rx="8"/><circle cx="76" cy="140" r="52" fill="#ECD069"/><path fill="#0A0B0D" fill-rule="evenodd" d="M76 105c-19.33 0-35 15.67-35 35s15.67 35 35 35 35-15.67 35-35-15.67-35-35-35m-37 35c0-20.435 16.566-37 37-37s37 16.565 37 37-16.565 37-37 37-37-16.565-37-37" clip-rule="evenodd"/><path fill="#464B55" d="M176 60a4 4 0 0 1 4-4h16a4 4 0 0 1 4 4v24a4 4 0 0 1-4 4h-16a4 4 0 0 1-4-4z"/><path fill="#FFFFFF" d="M122.495 225.513c-1.889 0-3.365 1.389-3.365 3.249s1.439 3.238 3.365 3.238 3.39-1.402 3.39-3.25c0-1.836-1.439-3.237-3.39-3.237m.013 5.146c-1.076 0-1.864-.809-1.864-1.897 0-1.099.775-1.908 1.851-1.908 1.088 0 1.876.821 1.876 1.908 0 1.088-.788 1.897-1.863 1.897m3.79-3.733h.938v4.953h1.501v-6.246h-2.439zm-10.946-.072a1.7 1.7 0 0 1 1.651 1.171h1.589c-.288-1.498-1.564-2.512-3.227-2.512-1.889 0-3.365 1.389-3.365 3.249s1.439 3.238 3.365 3.238c1.626 0 2.927-1.015 3.215-2.525h-1.577a1.684 1.684 0 0 1-1.638 1.184c-1.089 0-1.852-.809-1.852-1.897.001-1.099.751-1.908 1.839-1.908m39.466 1.304-1.101-.157c-.525-.072-.9-.241-.9-.64 0-.435.488-.652 1.151-.652.725 0 1.188.302 1.288.797h1.451c-.163-1.256-1.163-1.993-2.702-1.993-1.588 0-2.639.785-2.639 1.897 0 1.063.688 1.679 2.076 1.872l1.101.157c.538.072.838.278.838.664 0 .496-.525.701-1.251.701-.888 0-1.388-.35-1.463-.882h-1.476c.138 1.22 1.125 2.078 2.927 2.078 1.639 0 2.727-.725 2.727-1.969 0-1.112-.788-1.692-2.027-1.873m-26.832-5.098c-.55 0-.963.387-.963.918 0 .532.413.918.963.918.551 0 .964-.386.964-.918 0-.531-.413-.918-.964-.918m22.029 4.712c0-1.353-.851-2.259-2.652-2.259-1.701 0-2.652.834-2.84 2.114h1.489c.075-.495.475-.906 1.326-.906.763 0 1.139.326 1.139.725 0 .52-.689.652-1.539.737-1.151.121-2.577.507-2.577 1.957 0 1.124.863 1.848 2.239 1.848 1.076 0 1.751-.435 2.089-1.124.05.616.526 1.015 1.189 1.015h.876v-1.292h-.739zm-1.476 1.57c0 .834-.751 1.45-1.664 1.45-.563 0-1.038-.229-1.038-.712 0-.616.763-.786 1.463-.858.676-.06 1.051-.205 1.239-.483zm-7.968-3.829c-.839 0-1.539.338-2.04.906V223h-1.501v8.879h1.476v-.821c.501.592 1.214.942 2.065.942 1.801 0 3.165-1.377 3.165-3.238s-1.389-3.249-3.165-3.249m-.226 5.146c-1.075 0-1.864-.809-1.864-1.897 0-1.087.801-1.908 1.877-1.908 1.088 0 1.851.809 1.851 1.908 0 1.088-.788 1.897-1.864 1.897m-6.905-5.146c-.975 0-1.614.386-1.989.93v-.81h-1.489v6.246h1.501v-3.395c0-.954.626-1.63 1.551-1.63.864 0 1.401.591 1.401 1.449v3.576h1.501v-3.684c.001-1.571-.837-2.682-2.476-2.682m30.56 3.044c0-1.788-1.351-3.044-3.165-3.044-1.926 0-3.34 1.401-3.34 3.249 0 1.946 1.514 3.238 3.365 3.238 1.564 0 2.79-.894 3.102-2.162h-1.564c-.225.555-.775.87-1.513.87-.964 0-1.689-.58-1.852-1.595H164zm-4.879-.483c.238-.87.914-1.293 1.689-1.293.851 0 1.501.471 1.651 1.293zm52.588-8.38-2.659 12.302h-3.218l2.659-12.302zm13.547 7.938 1.689-4.623.97 4.623zm3.595 4.364h2.979l-2.603-12.302h-2.75c-.297 0-.582.079-.822.248a1.54 1.54 0 0 0-.547.654l-4.828 11.4h3.378l.674-1.838h4.131zm-8.4-4.025c.012-3.248-4.542-3.428-4.508-4.883.012-.44.434-.913 1.37-1.026a6.14 6.14 0 0 1 3.173.552l.559-2.604a8.6 8.6 0 0 0-3.013-.542c-3.184 0-5.421 1.669-5.432 4.071-.023 1.77 1.597 2.763 2.818 3.349 1.256.598 1.678.993 1.667 1.534-.012.823-1.005 1.184-1.929 1.206a6.74 6.74 0 0 1-3.31-.778l-.582 2.695a9.7 9.7 0 0 0 3.584.654c3.378-.011 5.592-1.669 5.603-4.228m-13.329-8.277-5.216 12.302h-3.401l-2.568-9.821a1.34 1.34 0 0 0-.239-.643 1.4 1.4 0 0 0-.525-.44 13.8 13.8 0 0 0-3.173-1.049l.08-.36h5.478c.354 0 .707.124.981.349.274.226.457.553.514.902l1.358 7.116 3.355-8.379zm8.034-7.679h1.187c.297-.034.594-.011.879.079q.427.135.753.44c.217.203.388.439.502.71.115.271.16.564.149.857v.056c.011.294-.034.587-.149.869-.114.27-.285.518-.502.721a2 2 0 0 1-.764.44c-.286.09-.582.124-.879.079h-1.176zm1.164 3.823c.229.022.468 0 .685-.079a1.8 1.8 0 0 0 .594-.361c.171-.158.296-.361.376-.575s.103-.451.08-.677v-.045a1.5 1.5 0 0 0-.456-1.252 1.5 1.5 0 0 0-.594-.349 1.6 1.6 0 0 0-.685-.057h-.604v3.417h.604zm3.274-3.823h2.625v.417h-2.077v1.444h1.666v.417h-1.666v1.545h2.191v.417h-2.739zm3.633 0h1.358c.833 0 1.449.259 1.449 1.105v.023a.87.87 0 0 1-.673.902c.65.147.901.462.901 1.015v.022c0 .801-.582 1.184-1.483 1.184h-1.541zm1.346 1.849c.662 0 .913-.225.913-.744v-.022c0-.485-.296-.677-.924-.677h-.799v1.455h.81zm.183 1.996c.65 0 .959-.27.959-.789v-.022c0-.519-.309-.779-1.028-.779h-.913v1.59zm2.471-3.845h.547v4.251h-.547zm2.695.417h-1.313v-.417h3.162v.417h-1.313v3.823h-.548v-3.823z"/><path fill="#0A0B0D" d="M104 183.825v-87.65c14.433 9.24 24 25.415 24 43.825s-9.567 34.585-24 43.825"/><path fill="#45D9F5" d="M19.998 40c0-11.048 8.954-19.998 20.002-19.998-11.048 0-20.002-8.954-20.002-20.002 0 11.048-8.955 20.002-19.998 20.002 11.044 0 19.998 8.95 19.998 19.998"/><path fill="#44C28D" d="M63.999 68c0-6.629 5.372-11.999 12.001-11.999-6.629 0-12.001-5.372-12.001-12.001 0 6.629-5.373 12.001-11.999 12.001 6.626 0 11.999 5.37 11.999 11.999"/><path fill="#ECD069" d="M23.999 230c0-6.629 5.373-11.999 12.001-11.999-6.628 0-12.001-5.372-12.001-12.001 0 6.629-5.373 12.001-11.999 12.001 6.626 0 11.999 5.37 11.999 11.999"/><path fill="#464B55" d="M176 60a4 4 0 0 1 4-4h16a4 4 0 0 1 4 4v24a4 4 0 0 1-4 4h-16a4 4 0 0 1-4-4z"/><path fill="#0A0B0D" fill-rule="evenodd" d="M174.551 79.606 183.762 75h8.472l9.211 4.606-.894 1.788L191.762 77h-7.528l-8.789 4.394zm26.898-15.712-9.211 4.606h-8.472l-9.211-4.606.894-1.788 8.789 4.394h7.528l8.789-4.395z" clip-rule="evenodd"/><path fill="#0A0B0D" fill-rule="evenodd" d="M191 68V56h2v12zm0 20V76h2v12zm-8-20V56h2v12zm0 20V76h2v12z" clip-rule="evenodd"/></svg>