<svg xmlns="http://www.w3.org/2000/svg" fill="none" viewBox="0 0 240 240"><path fill="#464B55" d="m73.64 228.61.73-.59.74-.59.73-.59.74-.59.73-.59.74-.59.73-.59.73-.59.73-.59.74-.59.74-.59.73-.59.73-.59.73-.59.74-.59.73-.59.74-.59.74-.59.73-.59.73-.59.73-.59.73-.59.74-.59.73-.59.73-.59.73-.59.73-.59.74-.59.73-.59.73-.59.74-.59.73-.59.73-.59.74-.59.74-.59.73-.59.73-.59.73-.59.73-.59.74-.59.73-.59.73-.59.73-.59.73-.59.74-.59.73-.59.73-.59.74-.59.73-.59.73-.59.73-.59.73-.59.73-.59.73-.59.73-.59.74-.59.73-.59.74-.59.73-.59.74-.59.73-.59.74-.59.73-.59.73-.59.74-.59.73-.59.73-.59.74-.59.73-.59.74-.59.73-.59.73-.59.73-.59.73-.59.74-.59.73-.59.74-.59.73-.59.73-.59.74-.59.74-.59.73-.59.73-.59.73-.59.74-.59.73-.59.74-.59.73-.59.73-.59.74-.59.73-.59.74-.59.73-.59.74-.59.73-.59.73-.59.74-.59.73-.59.74-.59.73-.59.73-.59.74-.59.73-.59.74-.59.73-.59.74-.59.73-.59.73-.59.74-.59.73-.59.74-.59.74-.59.73-.59.73-.59.73-.59.74-.59.73-.59.73-.59.74-.59.73-.59.74-.59.73-.59.74-.59.73-.59.73-.59.74-.59.73-.59.73-.59.74-.59.73-.59.73-.59.74-.59.73-.59.74-.59.73-.59.73-.59.73-.59.73-.59.73-.59.74-.59.73-.59.74-.59.73-.59.73-.59.74-.59.73-.59.73-.59.73-.59.74-.59.73-.59.74-.59.73-.59.74-.59.73-.59.73-.59.73-.59.74-.59.73-.59.73-.59.74-.59.73-.59.74-.59.73-.59.73-.59.73-.59.74-.59.73-.59.74-.59.73-.59.74-.59.73-.59.73-.59.74-.59.73-.59.74-.59.73-.59.73-.59.73-.59.74-.59.73-.59.73-.59.74-.59.73-.59.73-.59.74-.59.73-.59.74-.59.73-.59.73-.59.74-.59.73-.59.74-.59.73-.59.74-.59C230.69 102.09 240 84.14 240 64a64 64 0 0 0-113.82-40.15l-.59.74-.59.73-.59.74-.59.73-.59.73-.59.74-.59.73-.59.74-.59.73-.59.73-.59.74-.59.73-.59.73-.59.74-.59.73-.59.74-.59.73-.59.74-.59.73-.59.74-.59.73-.59.73-.59.74-.59.73-.59.73-.59.74-.59.73-.59.74-.59.73-.59.73-.59.74-.59.73-.59.74-.59.73-.59.73-.59.73-.59.73-.59.74-.59.73-.59.73-.59.74-.59.73-.59.74-.59.73-.59.73-.59.73-.59.73-.59.74-.59.73-.59.73-.59.73-.59.74-.59.73-.59.73-.59.73-.59.74-.59.73-.59.73-.59.73-.59.74-.59.73-.59.74-.59.73-.59.74-.59.73-.59.74-.59.73-.59.73-.59.74-.59.73-.59.73-.59.73-.59.74-.59.73-.59.73-.59.73-.59.74-.59.73-.59.74-.59.73-.59.74-.59.73-.59.74-.59.73-.59.73-.59.74-.59.73-.59.73-.59.73-.59.74-.59.73-.59.73-.59.73-.59.74-.59.73-.59.73-.59.74-.59.73-.59.73-.59.73-.59.74-.59.73-.59.74-.59.73-.59.74-.59.73-.59.73-.59.73-.59.74-.59.73-.59.74-.59.73-.59.73-.59.74-.59.73-.59.73-.59.73-.59.74-.59.73-.59.73-.59.73-.59.73-.59.74-.59.73-.59.73-.59.74-.59.73-.59.74-.59.73-.59.73-.59.74-.59.73-.59.74-.59.73-.59.74-.59.73-.59.73-.59.74-.59.73-.59.74-.59.73-.59.74a37.76 37.76 0 0 0-1.18 1.46l-.59.73-.59.73-.59.73-.59.74-.59.73-.59.74-.59.73-.59.74-.59.73a37.76 37.76 0 0 0-1.18 1.47l-.59.73-.59.74-.59.73-.59.73-.59.74a37.76 37.76 0 0 0-1.18 1.46l-.59.73a37.76 37.76 0 0 0-1.18 1.47l-.59.73-.59.74-.59.73-.59.74-.59.73A37.76 37.76 0 0 0 24.7 150l-.59.74-.59.73-.59.74-.59.73a37.76 37.76 0 0 0-1.18 1.46l-.59.73a37.76 37.76 0 0 0-1.18 1.47 37.76 37.76 0 0 0-1.18 1.46 37.76 37.76 0 0 0-1.18 1.46 37.76 37.76 0 0 0-1.18 1.46 37.76 37.76 0 0 0-1.18 1.46l-.59.74a37.76 37.76 0 0 0-1.18 1.46 37.76 37.76 0 0 0-1.18 1.47l-.59.73-.59.74A43.5 43.5 0 0 0 0 196a44 44 0 0 0 72.17 33.8l.74-.59.73-.6Z"/><path fill="#45DAF6" d="M132 165.33a57.33 57.33 0 1 0 0-114.66 57.33 57.33 0 0 0 0 114.66Z"/><path fill="#44C28D" d="M88 202.67a50.67 50.67 0 1 0 0-101.34 50.67 50.67 0 0 0 0 101.34Z"/><path fill="#ECD069" d="M176 128a64 64 0 1 0 0-128 64 64 0 0 0 0 128Z"/><path fill="#0A0B0D" fill-rule="evenodd" d="M176 18.33A45.67 45.67 0 0 0 130.34 64h-2a47.67 47.67 0 1 1 95.33 0h-2A45.67 45.67 0 0 0 176 18.33Zm0 91.34A45.67 45.67 0 0 0 221.66 64h2a47.67 47.67 0 1 1-95.33 0h2A45.67 45.67 0 0 0 176 109.67Z" clip-rule="evenodd"/><path fill="#588AF5" fill-rule="evenodd" d="M136.96 165.12a57.33 57.33 0 0 1-62.07-62.07 50.67 50.67 0 0 1 62.07 62.07Z" clip-rule="evenodd"/><path fill="#0A0B0D" fill-rule="evenodd" d="m176.7 64.71-101 100-1.4-1.42 101-100 1.4 1.42Z" clip-rule="evenodd"/><path fill="#ECD069" d="M45 240a44 44 0 1 0 0-88 44 44 0 0 0 0 88Z"/><path fill="#0A0B0D" fill-rule="evenodd" d="M44 164.92A31.08 31.08 0 0 0 12.9 196h-2a33.08 33.08 0 0 1 66.17 0h-2A31.08 31.08 0 0 0 44 164.92Zm0 62.16A31.08 31.08 0 0 0 75.1 196h2a33.08 33.08 0 0 1-66.17 0h2A31.08 31.08 0 0 0 44 227.08Z" clip-rule="evenodd"/><path fill="#0A0B0D" fill-rule="evenodd" d="M42.5 217v-41h2v41h-2Z" clip-rule="evenodd"/><path fill="#0A0B0D" fill-rule="evenodd" d="M23 195.5h41v2H23v-2Z" clip-rule="evenodd"/><path fill="#0A0B0D" fill-rule="evenodd" d="m31.3 207.3 23-23 1.41 1.4-23 23-1.41-1.4Z" clip-rule="evenodd"/><path fill="#0A0B0D" fill-rule="evenodd" d="m32.71 184.3 23 23-1.41 1.4-23-23 1.41-1.4ZM144 63h33v32h-2V65h-31v-2Z" clip-rule="evenodd"/></svg>