<svg xmlns="http://www.w3.org/2000/svg" fill="none" viewBox="0 0 240 240"><path fill="#45D9F5" d="M120 96c-26.51 0-48-21.49-48-48S93.49 0 120 0s48 21.49 48 48-21.49 48-48 48"/><path fill="#ECD069" d="M56 80c-17.673 0-32-14.327-32-32s14.327-32 32-32 32 14.327 32 32-14.327 32-32 32"/><path fill="#578BFA" fill-rule="evenodd" d="M77.993 71.244A47.8 47.8 0 0 1 72 48a47.8 47.8 0 0 1 5.993-23.244C84.156 30.589 88 38.846 88 48s-3.844 17.412-10.007 23.244" clip-rule="evenodd"/><path fill="#44C28D" d="M184 80c-17.673 0-32-14.327-32-32s14.327-32 32-32 32 14.327 32 32-14.327 32-32 32"/><path fill="#0A0B0D" fill-rule="evenodd" d="M176 47.007h16v2h-16z" clip-rule="evenodd"/><path fill="#0A0B0D" fill-rule="evenodd" d="M182.992 56V40h2v16z" clip-rule="evenodd"/><path fill="#578BFA" fill-rule="evenodd" d="M162.006 24.756A47.8 47.8 0 0 1 168 48a47.8 47.8 0 0 1-5.994 23.244C155.844 65.412 152 57.154 152 48s3.844-17.411 10.006-23.244" clip-rule="evenodd"/><path fill="#464B55" d="M139.862 172.131c0 10.973-8.895 19.869-19.868 19.869-10.974 0-19.869-8.896-19.869-19.869s8.895-19.869 19.869-19.869 19.868 8.896 19.868 19.869M160 240a40 40 0 0 0-11.716-28.284 39.996 39.996 0 0 0-56.568 0A40 40 0 0 0 80 240zm-76.137-83.607c0 10.973-8.896 19.869-19.87 19.869s-19.868-8.896-19.868-19.869 8.895-19.869 19.869-19.869 19.868 8.896 19.868 19.869"/><path fill="#464B55" d="M104 224.262a40 40 0 1 0-80 0z"/><path fill="#578BFA" fill-rule="evenodd" d="M99.43 205.694a40 40 0 0 1 4.571 18.568H83.226a40 40 0 0 1 16.204-18.568" clip-rule="evenodd"/><path fill="#464B55" d="M195.862 156.393c0 10.973-8.895 19.869-19.868 19.869-10.974 0-19.869-8.896-19.869-19.869s8.895-19.869 19.869-19.869 19.868 8.896 19.868 19.869M216 224.262a40 40 0 0 0-40-40 40 40 0 0 0-40 40z"/><path fill="#578BFA" fill-rule="evenodd" d="M156.774 224.262a40 40 0 0 0-16.203-18.568A40 40 0 0 0 136 224.262z" clip-rule="evenodd"/><path fill="#ECD069" d="M223.998 120c0-8.838 7.164-15.998 16.002-15.998-8.838 0-16.002-7.164-16.002-16.002 0 8.838-7.163 16.002-15.998 16.002 8.835 0 15.998 7.16 15.998 15.998m-208 32c0-8.838 7.164-15.998 16.002-15.998-8.838 0-16.002-7.164-16.002-16.002 0 8.838-7.163 16.002-15.998 16.002 8.835 0 15.998 7.16 15.998 15.998"/><path fill="#45D9F5" d="m120 128-8-40h16z"/><path fill="#ECD069" d="m56 104-8-40h16z"/><path fill="#44C28D" d="m184 104-8-40h16z"/><path fill="#FFFFFF" d="M107.875 40.155v23.754zm24.002 0c2.386 0 4.32 2.028 4.32 4.53v14.694c0 2.502-1.934 4.53-4.32 4.53h-29.666V40.155h5.664l5.251-9.848c.593-1.243 1.805-2.029 3.131-2.029 1.933 0 3.501 1.643 3.501 3.67v8.207z"/><path fill="#578BFA" d="M100.758 40.107h7.167V64h-7.167zm-39.817-.827c-2.282 0-4.218 1.6-4.939 3.83-.72-2.23-2.656-3.83-4.938-3.83-2.896 0-5.224 2.572-5.244 5.745-.036 5.797 10.182 11.696 10.182 11.696s10.146-5.9 10.182-11.696c.02-3.173-2.347-5.745-5.243-5.745"/></svg>