<svg xmlns="http://www.w3.org/2000/svg" fill="none" viewBox="0 0 240 240"><path fill="#45DAF6" d="M120 96c-26.51 0-48-21.49-48-48S93.49 0 120 0s48 21.49 48 48-21.49 48-48 48Z"/><path fill="#ECD069" d="M56 80c-17.673 0-32-14.327-32-32 0-17.673 14.327-32 32-32 17.673 0 32 14.327 32 32 0 17.673-14.327 32-32 32Z"/><path fill="#588AF5" fill-rule="evenodd" d="M77.993 71.244A47.784 47.784 0 0 1 72 48a47.784 47.784 0 0 1 5.993-23.244C84.156 30.589 88 38.846 88 48c0 9.155-3.844 17.412-10.007 23.244Z" clip-rule="evenodd"/><path fill="#44C28D" d="M184 80c-17.673 0-32-14.327-32-32 0-17.673 14.327-32 32-32 17.673 0 32 14.327 32 32 0 17.673-14.327 32-32 32Z"/><path fill="#0A0B0D" fill-rule="evenodd" d="M176 47.007h16v2h-16v-2Z" clip-rule="evenodd"/><path fill="#0A0B0D" fill-rule="evenodd" d="M182.992 56V40h2v16h-2Z" clip-rule="evenodd"/><path fill="#588AF5" fill-rule="evenodd" d="M162.006 24.756A47.783 47.783 0 0 1 168 48a47.783 47.783 0 0 1-5.994 23.244C155.844 65.412 152 57.154 152 48c0-9.155 3.844-17.411 10.006-23.244Z" clip-rule="evenodd"/><path fill="#464B55" d="M139.862 172.131c0 10.973-8.895 19.869-19.868 19.869-10.974 0-19.869-8.896-19.869-19.869 0-10.973 8.895-19.869 19.869-19.869 10.973 0 19.868 8.896 19.868 19.869ZM160 240a39.996 39.996 0 0 0-11.716-28.284 39.996 39.996 0 0 0-56.568 0A39.998 39.998 0 0 0 80 240h80Zm-76.138-83.607c0 10.973-8.895 19.869-19.868 19.869-10.974 0-19.869-8.896-19.869-19.869 0-10.973 8.895-19.869 19.869-19.869 10.973 0 19.868 8.896 19.868 19.869Z"/><path fill="#464B55" d="M104 224.262a40 40 0 1 0-80 0h80Z"/><path fill="#588AF5" fill-rule="evenodd" d="M99.43 205.694a40.001 40.001 0 0 1 4.571 18.568H83.226a39.994 39.994 0 0 1 16.204-18.568Z" clip-rule="evenodd"/><path fill="#464B55" d="M195.862 156.393c0 10.973-8.895 19.869-19.868 19.869-10.974 0-19.869-8.896-19.869-19.869 0-10.973 8.895-19.869 19.869-19.869 10.973 0 19.868 8.896 19.868 19.869ZM216 224.262a39.998 39.998 0 0 0-40-40 39.998 39.998 0 0 0-40 40h80Z"/><path fill="#588AF5" fill-rule="evenodd" d="M156.774 224.262a39.988 39.988 0 0 0-16.203-18.568A39.988 39.988 0 0 0 136 224.262h20.774Z" clip-rule="evenodd"/><path fill="#ECD069" d="M223.998 120c0-8.838 7.164-15.998 16.002-15.998-8.838 0-16.002-7.164-16.002-16.002 0 8.838-7.163 16.002-15.998 16.002 8.835 0 15.998 7.16 15.998 15.998Zm-208 32c0-8.838 7.164-15.998 16.002-15.998-8.838 0-16.002-7.164-16.002-16.002 0 8.838-7.163 16.002-15.998 16.002 8.835 0 15.998 7.16 15.998 15.998Z"/><path fill="#45DAF6" d="m120 128-8-40h16l-8 40Z"/><path fill="#ECD069" d="m56 104-8-40h16l-8 40Z"/><path fill="#44C28D" d="m184 104-8-40h16l-8 40Z"/><path fill="#FFFFFF" d="M107.875 40.155v23.754-23.754Zm24.002 0c2.386 0 4.32 2.028 4.32 4.53v14.694c0 2.502-1.934 4.53-4.32 4.53h-29.666V40.155h5.664l5.251-9.848c.593-1.243 1.805-2.029 3.131-2.029 1.933 0 3.501 1.643 3.501 3.67v8.207h12.119Z"/><path fill="#588AF5" d="M100.758 40.107h7.167V64h-7.167V40.107Zm-39.817-.827c-2.282 0-4.218 1.6-4.939 3.83-.72-2.23-2.656-3.83-4.938-3.83-2.896 0-5.224 2.572-5.244 5.745-.036 5.797 10.182 11.696 10.182 11.696s10.146-5.9 10.182-11.696c.02-3.173-2.347-5.745-5.243-5.745Z"/></svg>