<svg xmlns="http://www.w3.org/2000/svg" fill="none" viewBox="0 0 241 241"><path fill="#464B55" d="M168.158.165H84.847c-14.208 0-25.729 11.521-25.729 25.729v189.193c0 14.208 11.52 25.728 25.729 25.728h83.311c14.208 0 25.728-11.52 25.728-25.728V25.894c0-14.208-11.52-25.729-25.728-25.729"/><path fill="#FFFFFF" d="M188.286 148.159c15.622 0 28.276-12.654 28.276-28.275 0-15.622-12.654-28.275-28.276-28.275s-28.275 12.653-28.275 28.275 12.654 28.275 28.275 28.275"/><path fill="#578BFA" d="M189.306 127.644c-4.422 0-8.011-3.569-8.021-7.991a8.005 8.005 0 0 1 8.001-8.011c4.031 0 7.45 2.998 7.951 6.998h8.011c-.541-8.823-8.151-15.521-16.985-14.969-8.833.551-15.541 8.151-14.99 16.975.552 8.823 8.162 15.521 16.996 14.969a16.01 16.01 0 0 0 14.989-14.969h-8.011c-.501 4-3.9 6.998-7.941 6.998"/><path fill="#464B55" fill-rule="evenodd" d="m194.106 78.213-2.677-10.668h-6.287l-2.677 10.668-5.745 1.233-6.768-8.643-5.805 2.597 1.865 10.84-4.763 3.468-9.686-5.123-4.251 4.742 6.076 9.145-2.948 5.113-10.919-.732-1.965 6.076 9.255 5.866-.612 5.876-10.267 3.79.661 6.347 10.829 1.564 1.815 5.625-7.841 7.66 3.179 5.535 10.518-3.008 3.93 4.391-4.061 10.208 5.124 3.75 8.392-7.029 5.374 2.406.422 10.99 6.206 1.323 4.833-9.856h5.876l4.832 9.856 6.207-1.323.421-10.99 5.374-2.406 8.393 7.029 5.123-3.75-4.061-10.208 3.931-4.391 10.518 3.008 3.178-5.535-7.841-7.66 1.815-5.625 10.829-1.564.662-6.347-10.267-3.79-.612-5.876 9.254-5.866-1.965-6.076-10.919.732-2.948-5.113 6.077-9.145-4.252-4.742-9.686 5.123-4.762-3.469 1.865-10.839-5.806-2.597-6.768 8.643-5.745-1.233zm22.52 41.661c0 15.662-12.684 28.345-28.345 28.345-15.662 0-28.346-12.683-28.346-28.345s12.684-28.345 28.346-28.345c15.661 0 28.345 12.683 28.345 28.345" clip-rule="evenodd"/><path fill="#578BFA" fill-rule="evenodd" d="M193.878 167.791v-20.113c-1.815.361-3.69.551-5.605.551-15.662 0-28.345-12.683-28.345-28.345s12.683-28.345 28.345-28.345c1.915 0 3.79.19 5.605.551V77.31l-2.457-9.765h-6.286l-2.677 10.668-5.746 1.233-6.768-8.643-5.805 2.597 1.865 10.84-4.763 3.468-9.686-5.123-4.251 4.742 6.076 9.145-2.948 5.113-10.919-.732-1.965 6.076 9.255 5.866-.612 5.876-10.267 3.79.662 6.347 10.828 1.564 1.815 5.625-7.841 7.66 3.179 5.535 10.518-3.008 3.93 4.391-4.061 10.208 5.124 3.75 8.392-7.029 5.375 2.406.421 10.99 6.206 1.323 4.833-9.856h5.876l2.657 5.424z" clip-rule="evenodd"/><path fill="#0A0B0D" d="M138.243 11.024h-34.462a3.75 3.75 0 0 0 0 7.5h34.462a3.75 3.75 0 0 0 0-7.5m10.419 7.069a3.55 3.55 0 1 0 0-7.099 3.55 3.55 0 0 0 0 7.099"/><path fill="#578BFA" fill-rule="evenodd" d="m115.507 159.188-1.675-6.617h-3.9l-1.675 6.617-3.569.752-4.201-5.364-3.6 1.604 1.153 6.728-2.958 2.166-6.005-3.189-2.638 2.948 3.77 5.675-1.824 3.179-6.778-.451-1.214 3.78 5.746 3.639-.381 3.65-6.367 2.356.41 3.941 6.719.972 1.123 3.49-4.863 4.752 1.975 3.429 6.537-1.865 2.437 2.728-2.517 6.346 3.189 2.327 5.214-4.372 3.328 1.494.261 6.818 3.86.822 2.998-6.116h3.65l2.998 6.116 3.86-.822.261-6.818 3.329-1.494 5.214 4.372 3.188-2.327-2.517-6.346 2.437-2.728 6.527 1.865 1.975-3.429-4.862-4.752 1.123-3.49 6.717-.972.411-3.941-6.366-2.356-.381-3.65 5.745-3.639-1.223-3.78-6.778.451-1.825-3.179 3.77-5.675-2.637-2.948-6.006 3.189-2.958-2.166 1.153-6.728-3.6-1.604-4.201 5.364-3.569-.752zm5.825 24.816c0 5.244-4.231 9.495-9.445 9.495s-9.445-4.251-9.445-9.495 4.231-9.505 9.445-9.505 9.445 4.261 9.445 9.505" clip-rule="evenodd"/><path fill="#464B55" fill-rule="evenodd" d="m58.445 33.334 5.284.02 1.163 8.944 5.264.701 3.46-8.362 5.123 1.344-1.113 8.984 4.923 1.975 5.425-7.24 4.622 2.578-3.299 8.432 4.272 3.148 7.058-5.655 3.841 3.66-5.284 7.34 3.359 4.11 8.241-3.74 2.818 4.502-6.948 5.796 2.225 4.823 8.914-1.565 1.614 5.064-8.171 3.88.962 5.224 9.014.702.301 5.304-8.874 1.725-.361 5.304 8.553 2.928-1.023 5.203-9.024-.531-1.664 5.043 7.56 4.964-2.286 4.782-8.603-2.767-2.867 4.462 6.086 6.698-3.409 4.07-7.65-4.822-3.88 3.609 4.24 8.001-4.301 3.099-6.217-6.578-4.662 2.537 2.116 8.803-4.933 1.926-4.382-7.922-5.144 1.294-.13 9.054-5.254.632-2.286-8.764-5.304-.02-2.387 8.734-5.244-.702-.03-9.054-5.123-1.344-4.472 7.871-4.913-1.975 2.216-8.774-4.643-2.587-6.286 6.498-4.272-3.149 4.332-7.951-3.84-3.659-7.7 4.732-3.35-4.101 6.157-6.617-2.818-4.502-8.643 2.667-2.226-4.813 7.61-4.873-1.614-5.063-9.034.431-.962-5.224 8.582-2.828-.3-5.304L0 92.611l.371-5.294 9.024-.601 1.023-5.214-8.122-3.98 1.665-5.034 8.883 1.664 2.286-4.793-6.878-5.875 2.878-4.462 8.191 3.82 3.41-4.07-5.194-7.4 3.88-3.6 6.978 5.745 4.302-3.098-3.199-8.462 4.663-2.527 5.334 7.31 4.933-1.926-1.003-8.994 5.144-1.293 3.349 8.402 5.274-.631zm-27.342 87.402a39.7 39.7 0 0 1-10.117-24.585l22.69 1.133a17.3 17.3 0 0 0 2.717 6.557l-15.28 16.885zm12.573-29.9-22.68 1.134a39.7 39.7 0 0 1 10.177-24.516l15.23 16.825a17.3 17.3 0 0 0-2.717 6.547zm-9.626 32.868c6.578 5.956 15.15 9.736 24.596 10.217l-1.143-22.801a17.3 17.3 0 0 1-6.558-2.717l-16.904 15.291zm16.905-43.987-16.824-15.22c6.567-5.916 15.11-9.676 24.525-10.157l-1.133 22.67a17.3 17.3 0 0 0-6.558 2.717zM63.97 77a17.35 17.35 0 0 1 6.558 2.717l16.814-15.21a39.66 39.66 0 0 0-24.505-10.178l1.133 22.66zm11.12 7.28a17.3 17.3 0 0 1 2.717 6.546l22.66 1.134A39.66 39.66 0 0 0 90.31 67.465L75.1 84.279zm0 19.571a17.3 17.3 0 0 0 2.717-6.557l22.66-1.133c-.471 9.425-4.211 17.978-10.107 24.565zm-4.562 4.552 16.894 15.281c-6.567 5.956-15.14 9.746-24.585 10.237l1.143-22.801a17.3 17.3 0 0 0 6.557-2.717zm.631-14.338c0 5.755-4.662 10.418-10.418 10.418S50.325 99.82 50.325 94.065s4.662-10.418 10.418-10.418S71.16 88.31 71.16 94.065" clip-rule="evenodd"/><path fill="#578BFA" fill-rule="evenodd" d="m121.506 93.323-.301-5.304-9.014-.702-.962-5.224 8.172-3.88-1.615-5.064-8.913 1.564-2.226-4.823 6.948-5.795-2.817-4.502-8.242 3.74-3.36-4.11 5.285-7.34-3.84-3.66-7.06 5.655-4.27-3.148 3.298-8.433-4.622-2.577-5.424 7.24-4.924-1.976L78.733 36l-5.123-1.343-3.46 8.362-5.263-.702-1.163-8.944-4.613-.02v50.444a11 11 0 0 1 1.614-.14c5.756 0 10.418 4.662 10.418 10.418s-4.662 10.417-10.417 10.417c-.552 0-1.093-.06-1.615-.14v41.741l3.97.02 2.287 8.763 5.254-.631.13-9.054 5.144-1.294 4.382 7.921 4.933-1.925-2.116-8.803 4.662-2.537 6.217 6.577 4.301-3.098-4.24-8.001 3.88-3.61 7.65 4.823 3.409-4.071-6.086-6.697 2.867-4.462 8.603 2.767 2.286-4.783-7.56-4.963 1.665-5.043 9.024.531 1.022-5.204-8.553-2.927.361-5.305 8.874-1.724zM70.531 79.717a17.2 17.2 0 0 0-6.558-2.718L62.84 54.33a39.54 39.54 0 0 1 24.505 10.177zm-7.7 54.204 1.142-22.801a17.35 17.35 0 0 0 6.558-2.717l16.894 15.28a39.58 39.58 0 0 1-24.585 10.238zm27.532-13.195-15.27-16.875a17.3 17.3 0 0 0 2.717-6.558l22.66-1.133c-.471 9.425-4.211 17.978-10.107 24.566M77.81 90.836a17.3 17.3 0 0 0-2.717-6.547l15.21-16.815a39.7 39.7 0 0 1 10.157 24.495L77.8 90.836z" clip-rule="evenodd"/></svg>