<svg xmlns="http://www.w3.org/2000/svg" fill="none" viewBox="0 0 240 240"><path fill="#464B55" d="M240 32v176H0V32h240Z"/><path fill="#588AF5" d="M240 32v16H0V32h240Z"/><path fill="#0A0B0D" fill-rule="evenodd" d="M84 182c18.778 0 34-15.222 34-34s-15.222-34-34-34-34 15.222-34 34 15.222 34 34 34Zm0 2c19.882 0 36-16.118 36-36s-16.118-36-36-36-36 16.118-36 36 16.118 36 36 36Z" clip-rule="evenodd"/><path fill="#FFFFFF" d="M184 108c0 15.464-12.536 28-28 28s-28-12.536-28-28 12.536-28 28-28 28 12.536 28 28ZM64 92c0 11.046-8.954 20-20 20s-20-8.954-20-20 8.954-20 20-20 20 8.954 20 20Z"/><path fill="#0A0B0D" fill-rule="evenodd" d="M192.5 182c11.835 0 21.5-9.81 21.5-22s-9.665-22-21.5-22-21.5 9.81-21.5 22 9.665 22 21.5 22Zm0 2c12.979 0 23.5-10.745 23.5-24s-10.521-24-23.5-24-23.5 10.745-23.5 24 10.521 24 23.5 24Z" clip-rule="evenodd"/><path fill="#FFFFFF" d="M112 148c0 15.464-12.536 28-28 28s-28-12.536-28-28 12.536-28 28-28 28 12.536 28 28Z"/><path fill="#FFFFFF" fill-rule="evenodd" d="M84 174c14.36 0 26-11.641 26-26s-11.64-26-26-26-26 11.641-26 26 11.64 26 26 26Zm0 2c15.464 0 28-12.536 28-28s-12.536-28-28-28-28 12.536-28 28 12.536 28 28 28Z" clip-rule="evenodd"/><path fill="#0A0B0D" fill-rule="evenodd" d="M156 126c9.941 0 18-8.059 18-18s-8.059-18-18-18-18 8.059-18 18 8.059 18 18 18Zm0 2c11.046 0 20-8.954 20-20s-8.954-20-20-20-20 8.954-20 20 8.954 20 20 20ZM58 92c0 7.732-6.268 14-14 14s-14-6.268-14-14 6.268-14 14-14 14 6.268 14 14Zm-14 12c6.627 0 12-5.373 12-12s-5.373-12-12-12-12 5.373-12 12 5.373 12 12 12Z" clip-rule="evenodd"/><path fill="#464B55" d="M48 92a4 4 0 1 1-8 0 4 4 0 0 1 8 0Z"/><path fill="#FFFFFF" d="M208 160c0 8.837-7.163 16-16 16s-16-7.163-16-16 7.163-16 16-16 16 7.163 16 16Z"/><path fill="#464B55" d="M96 148c0 6.627-5.373 12-12 12s-12-5.373-12-12 5.373-12 12-12 12 5.373 12 12Z"/><path fill="#464B55" d="M88 148a4 4 0 1 1-8 0 4 4 0 0 1 8 0Z"/><path fill="#0A0B0D" fill-rule="evenodd" d="M84 145a3 3 0 1 0 0 6 3 3 0 0 0 0-6Zm-5 3a5 5 0 1 1 9.999 0 5 5 0 0 1-10 0Z" clip-rule="evenodd"/><path fill="#464B55" d="M160.5 108a4 4 0 1 1-8 0 4 4 0 0 1 8 0Z"/><path fill="#0A0B0D" fill-rule="evenodd" d="M156.5 105a3 3 0 1 0 0 6 3 3 0 0 0 0-6Zm-5 3a5 5 0 1 1 10.001.001A5 5 0 0 1 151.5 108Z" clip-rule="evenodd"/><path fill="#464B55" d="M196 160a4 4 0 1 1-8 0 4 4 0 0 1 8 0Z"/><path fill="#0A0B0D" fill-rule="evenodd" d="m52.181 80.65 51.782 37.415-1.172 1.622L51.01 82.272l1.171-1.621Zm89.961 15.843L82.233 145.58l-1.267-1.547 59.909-49.088 1.267 1.547Zm20.676 30.33-77.32 25.941-.636-1.897 77.32-25.94.636 1.896Zm-2.765-22.304 47.078 36.693-1.229 1.577-47.079-36.693 1.23-1.577Z" clip-rule="evenodd"/><path fill="#0A0B0D" fill-rule="evenodd" d="m153.699 109.039 18.746 58.899-1.905.607-18.747-58.9 1.906-.606ZM32.569 95.646l19.46 63.933-1.914.583-19.46-63.933 1.914-.583Z" clip-rule="evenodd"/><path fill="#0A0B0D" d="M12 40a2 2 0 1 1-4 0 2 2 0 0 1 4 0Zm24 0a2 2 0 1 1-4 0 2 2 0 0 1 4 0Zm-12 0a2 2 0 1 1-4 0 2 2 0 0 1 4 0Z"/></svg>