<svg xmlns="http://www.w3.org/2000/svg" fill="none" viewBox="0 0 240 240"><path fill="#464B55" d="M216 94.14a51.78 51.78 0 0 1-24 5.86 51.78 51.78 0 0 1-24-5.86V160h48V94.14Z"/><path fill="#45DAF6" d="M80 184h64v56H80v-56Z"/><path fill="#464B55" d="M0 200h64v40H0v-40Z"/><path fill="#A5C1FD" d="M216 160h8v80h-8v-80Zm-56 0h8v80h-8z"/><path fill="#588AF5" d="M168 160h48v80h-48z"/><path fill="#0A0B0D" fill-rule="evenodd" d="M224 177h-64v-2h64v2Zm0-8h-64v-2h64v2Zm0 16h-64v-2h64v2Zm0 17h-64v-2h64v2Zm0 15h-64v-2h64v2Zm0 16h-64v-2h64v2Zm0-40h-64v-2h64v2Zm-80 0H80v-2h64v2Z" clip-rule="evenodd"/><path fill="#A5C1FD" d="M127 161v5h2v-5h5v-2h-5v-5h-2v5h-5v2h5ZM87 81v5h2v-5h5v-2h-5v-5h-2v5h-5v2h5Z"/><path fill="#0A0B0D" fill-rule="evenodd" d="M144 201H80v-2h64v2Zm0 16H80v-2h64v2Zm0 16H80v-2h64v2Zm80-24h-64v-2h64v2Zm-80 0H80v-2h64v2Zm-80 0H0v-2h64v2Zm0 8H0v-2h64v2Zm0 16H0v-2h64v2Zm160-8h-64v-2h64v2Zm-80 0H80v-2h64v2Zm-80 0H0v-2h64v2Z" clip-rule="evenodd"/><circle cx="28" cy="180" r="6" fill="#FFFFFF"/><circle cx="76" cy="124" r="6" fill="#FFFFFF"/><circle cx="140" cy="108" r="6" fill="#FFFFFF"/><circle cx="192" cy="48" r="48" fill="#A5C1FD"/><path fill="#588AF5" d="M168 89.4V49h48v40.4a46.8 46.8 0 0 1-24 6.6 46.8 46.8 0 0 1-24-6.6Z"/><path fill="#0A0B0D" d="M192 8v80l24-39-24-41Z"/><path fill="#588AF5" d="M192 8v80l-24-39 24-41Z"/><path fill="#45DAF6" d="m192 66 24-17-24 39V66Z"/><path fill="#FFFFFF" d="m192 66-24-17 24 39V66Z"/><path fill="#45DAF6" d="M192 36V8l24 41-24-13Z"/><path fill="#FFFFFF" d="M192 36V8l-24 41 24-13Z"/><path fill="#45DAF6" d="m112 16 2.83 13.17L128 32l-13.17 2.83L112 48l-2.83-13.17L96 32l13.17-2.83L112 16Z"/><path fill="#464B55" d="m28 120 2.12 9.88L40 132l-9.88 2.12L28 144l-2.12-9.88L16 132l9.88-2.12L28 120Z"/><path fill="#A5C1FD" d="m216 112 2.83 13.17L232 128l-13.17 2.83L216 144l-2.83-13.17L200 128l13.17-2.83L216 112Z"/><path fill="#588AF5" d="m216 112-2.83 13.17L200 128l13.17 2.83L216 144v-32Z"/><path fill="#FFFFFF" d="M159.74 88.78a52.47 52.47 0 0 1-3.04-2.6l-17.79 20.53-64 15.5-48.43 56.49 3.04 2.6 47.58-55.5 64-15.5 18.64-21.52Z"/></svg>