<svg xmlns="http://www.w3.org/2000/svg" fill="none" viewBox="0 0 240 240"><path fill="#464B55" d="M96 0h48v104.08H96V0Z"/><path fill="#464B55" fill-rule="evenodd" d="M50.5 85.25A72.36 72.36 0 0 1 69.38 52.8l2.96 2.95-.26.25a67.8 67.8 0 0 0-17.56 65.52l-4.02 1.08a72.37 72.37 0 0 1 0-37.35Zm135.07 1.15a67.8 67.8 0 0 1-17.32 65.27l2.96 2.95a72.36 72.36 0 0 0 18.41-32.1 72.37 72.37 0 0 0-.03-37.2l-4.02 1.08Z" clip-rule="evenodd"/><path fill="#464B55" d="M176 104.08a56 56 0 1 1-112 0 56 56 0 0 1 112 0Z"/><path fill="#588AF5" fill-rule="evenodd" d="M144.22 53.58v50.5H95.77v-50.5a55.78 55.78 0 0 1 24.23-5.5c8.68 0 16.9 1.97 24.22 5.5Z" clip-rule="evenodd"/><path fill="#FFFFFF" fill-rule="evenodd" d="m96.32 171 .13 1.5a17.85 17.85 0 0 0 11.25 15.12l16.41 6.43-21.72 8.18-6.78-13.25a15.05 15.05 0 0 0-15.45-8.03l-1.31.18 4.9 11.06-7.38-6.85a15.8 15.8 0 0 0-17.63-2.67l-1.26.6 11.45 11.67-.2-.1a15.79 15.79 0 0 0-17.61 2.58l-1.03.94 12.07 6.65a16.11 16.11 0 0 0-11.58 7.35l-.75 1.18 48.45 11.47.06.16h43.22l8.6 14.62 1.72-1.02-9.18-15.6H99.65l-17.87-40.35c5-.17 9.73 2.55 12.05 7.08l10.89 21.24 19.32-7.27a44.25 44.25 0 0 1 53.7 18.99l9.97 16.93 1.72-1.02-9.96-16.93-4.74-8.06a65.2 65.2 0 0 0-35.92-28.9L96.32 171Zm9.37 37.63 17.64-6.64a46.24 46.24 0 0 1 47.13 8.83 63.16 63.16 0 0 0-29.86-23.18h-.01a47.9 47.9 0 0 0-2.4-.85l-39.54-12.92a15.83 15.83 0 0 0 9.78 11.88l21.26 8.34-26.37 9.93 2.37 4.61Zm-9.85 10.88-21-21.4-1.31-1.33-12.6-12.85A13.81 13.81 0 0 1 75 186.8l10.8 10.04 10.03 22.67Zm-22.6-20.16L93.52 220l-39.96-22.01a13.8 13.8 0 0 1 14.28-1.35l5.4 2.7Zm-7.52 7.62a14.1 14.1 0 0 0-12.62 5.3l38.98 9.22-26.36-14.52Z" clip-rule="evenodd"/><path fill="#464B55" d="M120 99.93 95.77 110 120 124.5V99.94Zm0 0L144.23 110 120 124.5V99.94Z"/><path fill="#FFFFFF" d="M120 94.1V64.11l-24.23 39.96L120 94.1Zm0 30.26-24.23-14.4 24.23 33.5v-19.1Z"/><path fill="#44C28D" d="M120 94.1V64.11l24.23 39.96L120 94.1Zm0 30.26 24.23-14.4-24.23 33.5v-19.1Z"/><path fill="#588AF5" d="m120 93.96-24.23 10.07 24.23 14.5V93.97Z"/><path fill="#0A0B0D" d="m120 93.96 24.23 10.07-24.23 14.5V93.97Z"/><path fill="#44C28D" d="M192 36a4 4 0 1 1-8 0 4 4 0 0 1 8 0ZM24 52.08a4 4 0 1 1-8 0 4 4 0 0 1 8 0Z"/><path fill="#45DAF6" d="M192 192.24c13.26 0 24 10.76 24 24.03a24.02 24.02 0 0 1 24-24.03c-13.26 0-24-10.76-24-24.03a24.01 24.01 0 0 1-24 24.03Zm-192 4a12 12 0 0 1 12 12.02 12 12 0 0 1 12-12.02 12 12 0 0 1-12-12.01 12 12 0 0 1-12 12.01ZM64.3 24.03a16 16 0 0 1 16 16.02 16 16 0 0 1 16-16.02 16 16 0 0 1-16-16.02 16 16 0 0 1-16 16.02Z"/><path fill="#45DAF6" fill-rule="evenodd" d="M80.3 39.77V8.23A16 16 0 0 0 96.3 24a16 16 0 0 0-16 15.77Z" clip-rule="evenodd"/><path fill="#44C28D" d="M224 116a4 4 0 1 1-8 0 4 4 0 0 1 8 0ZM40 148a4 4 0 1 1-8 0 4 4 0 0 1 8 0Z"/></svg>