<svg xmlns="http://www.w3.org/2000/svg" fill="none" viewBox="0 0 240 240"><path fill="#464B55" d="M96 0h48v104.08H96z"/><path fill="#464B55" fill-rule="evenodd" d="M50.504 85.252A72.4 72.4 0 0 1 64.277 58.41a73 73 0 0 1 5.106-5.611l2.953 2.954-.251.25c-17.75 17.749-23.604 42.89-17.565 65.514l-4.024 1.079a73 73 0 0 1-1.503-6.947 72.4 72.4 0 0 1 1.511-30.398m135.062 1.153c6.011 22.518.24 47.528-17.315 65.263l2.954 2.954a73 73 0 0 0 4.564-5.06 72.4 72.4 0 0 0 13.851-27.033 72.4 72.4 0 0 0 1.503-30.078 73 73 0 0 0-1.533-7.124z" clip-rule="evenodd"/><path fill="#464B55" d="M176 104.08c0 30.928-25.072 56-56 56s-56-25.072-56-56 25.072-56 56-56 56 25.072 56 56"/><path fill="#578BFA" fill-rule="evenodd" d="M144.225 53.577v50.503H95.773V53.577c7.332-3.523 15.548-5.497 24.226-5.497s16.895 1.974 24.226 5.497" clip-rule="evenodd"/><path fill="#FFFFFF" fill-rule="evenodd" d="m96.32 171 .13 1.506a17.85 17.85 0 0 0 3.471 9.166 17.8 17.8 0 0 0 7.783 5.944l16.406 6.433-21.715 8.179-6.789-13.247a15.05 15.05 0 0 0-15.444-8.034l-1.316.182 4.901 11.064-7.377-6.856a15.81 15.81 0 0 0-17.627-2.664l-1.259.606 11.442 11.662-.203-.102a15.79 15.79 0 0 0-17.606 2.58l-1.024.942 12.07 6.651a16.11 16.11 0 0 0-11.579 7.345l-.756 1.188 48.448 11.47.068.151h43.211l8.604 14.621 1.723-1.016-9.185-15.607H99.646L81.78 182.816a13.05 13.05 0 0 1 12.046 7.08l10.893 21.243.006-.002.001.002 19.314-7.272a44.5 44.5 0 0 1 5.849-1.756c18.515-4.183 37.977 3.968 47.851 20.745l9.968 16.931 1.723-1.017-9.966-16.927.005-.003-4.739-8.055a65.2 65.2 0 0 0-33.434-28.024 51 51 0 0 0-2.485-.873h-.001zm9.37 37.635 17.641-6.643c2.02-.76 4.065-1.37 6.121-1.834 14.71-3.329 29.989.794 41.005 10.66a63.16 63.16 0 0 0-29.861-23.181l-.01-.004a48 48 0 0 0-2.392-.841l-39.547-12.925a15.83 15.83 0 0 0 9.786 11.884l21.258 8.335-26.371 9.933zm-9.846 10.877L74.84 198.114v-.009l-1.309-1.329-12.607-12.85a13.82 13.82 0 0 1 14.087 2.878l10.795 10.034zm-22.6-20.167 20.271 20.651-39.953-22.009a13.79 13.79 0 0 1 14.282-1.349zm-7.52 7.629a14.1 14.1 0 0 0-12.623 5.288l38.976 9.227z" clip-rule="evenodd"/><path fill="#464B55" d="m119.999 99.929-24.226 10.067L120 124.506zm.002 0 24.226 10.067-24.226 14.51z"/><path fill="#FFFFFF" d="M119.999 94.092V64.116l-24.226 39.968zm0 30.271-24.226-14.401L120 143.465z"/><path fill="#44C28D" d="M120.001 94.092V64.116l24.226 39.968zm0 30.271 24.226-14.401-24.226 33.503z"/><path fill="#578BFA" d="m119.999 93.96-24.226 10.067L120 118.537z"/><path fill="#0A0B0D" d="m120.001 93.96 24.226 10.067-24.226 14.51z"/><path fill="#44C28D" d="M192 36a4 4 0 1 1-8 0 4 4 0 0 1 8 0M24 52.08a4 4 0 1 1-8 0 4 4 0 0 1 8 0"/><path fill="#45D9F5" d="M191.998 192.237c13.258 0 23.998 10.76 23.998 24.034 0-13.274 10.746-24.034 24.004-24.034-13.258 0-24.004-10.759-24.004-24.028 0 13.269-10.74 24.028-23.998 24.028M0 196.242c6.629 0 11.999 5.38 11.999 12.017 0-6.637 5.373-12.017 12.001-12.017-6.628 0-12.001-5.379-12.001-12.013 0 6.634-5.37 12.013-11.999 12.013M64.297 24.028c8.838 0 15.998 7.173 15.998 16.022 0-8.85 7.164-16.022 16.002-16.022-8.838 0-16.002-7.172-16.002-16.018 0 8.846-7.16 16.018-15.998 16.018"/><path fill="#45D9F5" fill-rule="evenodd" d="M80.297 39.77V8.23c.123 8.729 7.239 15.768 16 15.768-8.761 0-15.877 7.04-16 15.772" clip-rule="evenodd"/><path fill="#44C28D" d="M224 116a4 4 0 1 1-8 0 4 4 0 0 1 8 0M40 148a4 4 0 1 1-8 0 4 4 0 0 1 8 0"/></svg>