<svg xmlns="http://www.w3.org/2000/svg" fill="none" viewBox="0 0 240 240"><path fill="#ECD069" d="M160 120c0 22.091-17.909 40-40 40s-40-17.909-40-40 17.909-40 40-40 40 17.909 40 40m24 108c0 6.627-5.373 12-12 12s-12-5.373-12-12 5.373-12 12-12 12 5.373 12 12M80 12c0 6.627-5.373 12-12 12s-12-5.373-12-12S61.373 0 68 0s12 5.373 12 12"/><path fill="#FFFFFF" d="M119.998 144c0-13.257 10.745-23.998 24.002-23.998-13.257 0-24.002-10.745-24.002-24.002 0 13.257-10.746 24.002-23.998 24.002 13.252 0 23.998 10.741 23.998 23.998"/><path fill="#45D9F5" d="M211.999 48c0-6.629 5.372-11.999 12.001-11.999-6.629 0-12.001-5.372-12.001-12.001 0 6.628-5.373 12.001-11.999 12.001 6.626 0 11.999 5.37 11.999 11.999m-184 168c0-6.629 5.372-11.999 12.001-11.999-6.629 0-12.001-5.372-12.001-12.001 0 6.629-5.373 12.001-11.999 12.001 6.626 0 11.999 5.37 11.999 11.999"/><path fill="#44C28D" fill-rule="evenodd" d="m168 56-24-24v24H32v40h176z" clip-rule="evenodd"/><path fill="#578BFA" fill-rule="evenodd" d="M152.006 96c-7.298-9.716-18.917-16-32.003-16C106.916 80 95.298 86.284 88 96z" clip-rule="evenodd"/><path fill="#44C28D" fill-rule="evenodd" d="m72 184 24 24v-24h112v-40H32z" clip-rule="evenodd"/><path fill="#578BFA" fill-rule="evenodd" d="M152.006 144c-7.298 9.716-18.916 16-32.003 16S95.298 153.716 88 144z" clip-rule="evenodd"/><path fill="#464B55" d="M0 56h32v40H0zm208 88h32v40h-32zM96 192h144v16H96zM0 32h144v16H0zm172 184h68v24h-68z"/><path fill="#578BFA" fill-rule="evenodd" d="M172 240c6.627 0 12-5.373 12-12s-5.373-12-12-12z" clip-rule="evenodd"/><path fill="#464B55" d="M0 0h68v24H0z"/><path fill="#578BFA" fill-rule="evenodd" d="M68 24V0c-6.627 0-12 5.373-12 12s5.373 12 12 12" clip-rule="evenodd"/><path fill="#0A0B0D" fill-rule="evenodd" d="M120 89c-17.121 0-31 13.879-31 31s13.879 31 31 31 31-13.879 31-31-13.879-31-31-31m-33 31c0-18.225 14.775-33 33-33s33 14.775 33 33-14.775 33-33 33-33-14.775-33-33" clip-rule="evenodd"/></svg>