<svg xmlns="http://www.w3.org/2000/svg" fill="none" viewBox="0 0 240 240"><path fill="#FFFFFF" d="M107.7 23h1.9v2h-1.9v-2Zm7.6 0h-1.9v2h1.9v-2Zm4.7 0h-1v2h2v-1c0-.6-.4-1-1-1Zm-1 5.9v2h2v-2h-2Zm0 7.9v-2h2v2h-2Zm0 3.9v2h2v-2h-2Zm0 7.9v-1.9h2v1.9h-2Zm0 4v2h2v-2h-2Zm0 7.9v-2h2v2h-2Zm0 3.9v2h2v-2h-2Zm0 7.9v-2h2v2h-2Zm0 3.9v2h2v-2h-2Zm0 7.9v-2h2v2h-2Zm0 4v2h2v-2h-2Zm0 7.9v-2h2v2h-2Zm0 3.9v2h2v-2h-2Zm0 8.1v-2h2v2h-2Zm0 3v2h2v-2h-2Zm0 8.8v-2h2v2h-2Zm0 3.9v2h2v-2h-2Zm0 7.8v-2h2v2h-2Zm0 3.9v2h2v-2h-2Zm8-86.4v-1c0-.6.5-1 1-1h1v2h-2Zm8.3-2h-2.1v2h2.1v-2Zm4.1 0h2.1v2h-2.1v-2ZM127 52.9v2h2v-2h-2Zm0 7.9v-2h2v2h-2Zm0 3.9v2h2v-2h-2Zm0 7.9v-2h2v2h-2Zm0 3.9v2h2v-2h-2Zm0 7.9v-2h2v2h-2Zm0 3.9v2h2v-2h-2Zm0 7.9v-2h2v2h-2Zm0 3.9v2h2v-2h-2Zm0 7.9v-2h2v2h-2Zm0 3v2h2v-2h-2Zm0 8.8v-2h2v2h-2Zm0 3.9v2h2v-2h-2Zm0 7.9v-2h2v2h-2Zm0 3.8v2h2v-2h-2Zm-16-29.5h1c.6 0 1 .4 1 1v1h-2v-2Zm-3.7 0h-1.9v2h1.9v-2Zm-7.6 0h1.9v2h-1.9v-2Zm-3.9 0h-1.9v2h1.9v-2Zm-7.6 0h1.9v2h-1.9v-2Zm-3.8 0h-1.9v2h1.9v-2ZM111 111h2v2.1h-2V111Zm2 6.7h-2v2.1h2v-2.1Zm-2 5.8h2v2.1h-2v-2.1Zm2 5.9h-2v2.1h2v-2.1Zm-2 5.9h2v2.1h-2v-2.1Zm24-23.3v1h2v-2h-1c-.5 0-1 .4-1 1Zm6.2-1h2.1v2h-2.1v-2Zm8.3 0h-2.1v2h2.1v-2Zm4.2 0h2.1v2h-2.1v-2Zm8.3 0h-2.1v2h2.1v-2Zm4.1 0h2.1v2h-2.1v-2Zm8.3 0h-2.1v2h2.1v-2Zm4.2 0h2.1v2h-2.1v-2Zm-43.6 6.7v2h2v-2h-2Zm0 7.9v-2h2v2h-2Zm0 3.9v2h2v-2h-2Zm0 7.9v-2h2v2h-2Z"/><path fill="#0A0B0D" d="M92 136h64v104H92V136Z"/><path fill="#588AF5" d="M92 136h64v16H92v-16Zm0 88h64v16H92v-16Z"/><path fill="#464B55" d="M156 152h84v72h-84v-72ZM0 152h92v72H0v-72Z"/><path fill="#0A0B0D" d="M127 144a3 3 0 1 1-6 0 3 3 0 0 1 6 0Zm-12 86h18v4h-18v-4Z"/><path fill="#45DAF6" d="M56 6a6 6 0 0 1 6-6h36a6 6 0 0 1 6 6v36a6 6 0 0 1-6 6H62a6 6 0 0 1-6-6V6Z"/><path fill="#FFFFFF" d="M90.909 19.636c0 6.025-4.884 10.91-10.91 10.91-6.024 0-10.908-4.885-10.908-10.91 0-6.024 4.884-10.909 10.909-10.909s10.909 4.884 10.909 10.91Z"/><path fill="#FFFFFF" d="M69.09 20.182h21.82v19.09H69.091v-19.09Z"/><path fill="#0A0B0D" d="M78.364 18a1.636 1.636 0 1 1-3.273 0 1.636 1.636 0 0 1 3.273 0Zm6.545 0a1.636 1.636 0 1 1-3.273 0 1.636 1.636 0 0 1 3.273 0Z"/><path fill="#45DAF6" d="M73.454 34.91h4.364v4.363h-4.364v-4.364Zm8.728 0h4.363v4.363h-4.363v-4.364Z"/><path fill="#0A0B0D" fill-rule="evenodd" d="M77.818 21.818a2.182 2.182 0 1 0 4.364 0h-4.364Z" clip-rule="evenodd"/><path fill="#588AF5" d="M16 78a6 6 0 0 1 6-6h52a6 6 0 0 1 6 6v52a6 6 0 0 1-6 6H22a6 6 0 0 1-6-6V78Z"/><path fill="#0A0B0D" d="M70.786 120.959c.058.562.072 1.114.043 1.661a11.197 11.197 0 0 0-6.03-4.47l-.453-4.324C61.058 91.69 45.4 88.884 42.296 88.54c2.623-2.672 6.864-4.215 10.704-3.156a10.65 10.65 0 0 1 1.56.564 11.241 11.241 0 0 0-4.899 2.463 10.552 10.552 0 0 1 10.051 1.398 11.212 11.212 0 0 0-4.452.953 10.543 10.543 0 0 1 8.287 3.746 11.239 11.239 0 0 0-4.874-.026 10.54 10.54 0 0 1 7.173 3.78c.361.433.68.885.957 1.355a11.245 11.245 0 0 0-4.96-.825 10.551 10.551 0 0 1 6.409 5.031c.278.493.51.997.696 1.507a11.252 11.252 0 0 0-4.68-1.704 10.547 10.547 0 0 1 5.53 5.97c.195.53.344 1.063.45 1.598a11.184 11.184 0 0 0-3.835-2.253 10.529 10.529 0 0 1 4.445 7.915 11.176 11.176 0 0 0-3.669-2.795 10.547 10.547 0 0 1 3.597 6.898Z"/><path fill="#464B55" d="M43.639 93.471a1.912 1.912 0 0 0-.166.41l-.046.16c-.026.095-.06.178-.106.255.043-.077.077-.16.103-.255l.046-.16c.04-.146.097-.284.169-.41Zm.246-.341Zm.675-.458Z"/><path fill="#FFFFFF" d="M55.738 106.907c-.003-.002-.003-.005-.003-.008-.02-.138-.046-.272-.072-.407a30.196 30.196 0 0 0-.163-.796c-.014-.086-.035-.169-.054-.252a41.155 41.155 0 0 0-.07-.286c-.02-.078-.036-.152-.056-.226a20.404 20.404 0 0 0-.43-1.472c-.037-.112-.077-.221-.115-.33-.08-.232-.163-.455-.252-.678-.043-.109-.086-.221-.131-.33l-.138-.323a20.67 20.67 0 0 0-.595-1.235 16.535 16.535 0 0 0-.493-.873 9.956 9.956 0 0 0-.35-.553 5.593 5.593 0 0 0-.18-.272c-.06-.088-.12-.177-.183-.266a5.4 5.4 0 0 0-.189-.26 17.215 17.215 0 0 0-1.209-1.472c-.28-.313-.572-.613-.873-.905l-.229-.218c-.074-.072-.152-.14-.23-.212a16.222 16.222 0 0 0-.95-.822 21.231 21.231 0 0 0-.492-.395c-.083-.063-.166-.129-.252-.192a24.654 24.654 0 0 0-.776-.57c-.17-.12-.341-.237-.516-.358a24.88 24.88 0 0 0-.532-.355 1.907 1.907 0 0 0-.484-.223 1.73 1.73 0 0 0-.762-.052 1.116 1.116 0 0 0-.135.026c-.046.009-.091.02-.134.034a1.76 1.76 0 0 0-.49.235.643.643 0 0 0-.117.086 1.663 1.663 0 0 0-.198.183 1.63 1.63 0 0 0-.246.341 1.92 1.92 0 0 0-.166.41l-.046.16a1.019 1.019 0 0 1-.26.455 1.038 1.038 0 0 1-1.413.035.974.974 0 0 1-.154-.184.958.958 0 0 1-.118-.229l-2.36-6.543c.015.043.026.086.038.129a6.826 6.826 0 0 1 .143.533c.012.04.02.08.029.12.023.094.04.186.054.275a5.043 5.043 0 0 1 .052.326c.008.086.017.17.02.25.003.042.003.082.003.122 0 .055-.003.106-.006.158a2.248 2.248 0 0 1-.02.155l-.017.085a.96.96 0 0 1-.06.164l-.018.031a.529.529 0 0 1-.114.146.456.456 0 0 1-.195.103.844.844 0 0 1-.856-.229l-.046-.048a.897.897 0 0 1-.074-.095c-.052-.072-.078-.123-.078-.123l-.094.12-1.131 1.412-1.134 1.412-.003-.003-3.551 4.419a1.11 1.11 0 0 0-.215.942l.304 1.32-6.26 8.946a2.965 2.965 0 0 0-.479 2.273l.195.983a3.202 3.202 0 0 0 2.434 2.505l1.567.358a3.201 3.201 0 0 0 2.462-.435l.986-.639c.34-.223.547-.601.547-1.008v-.612l1.976-5.307c.211.212 1.503 1.467 3.387 1.822 1.011.191 2.19.126 3.468-.499.238-.114.461-.24.673-.369l.206-.132h.003c.117-.077.226-.154.335-.237a2.8 2.8 0 0 0 .198-.155.388.388 0 0 0 .068-.057c.075-.058.144-.118.212-.184a4.294 4.294 0 0 0 .246-.232 3.21 3.21 0 0 0 .152-.157c.052-.052.098-.106.143-.158l.135-.16c.043-.054.086-.109.126-.163a7.253 7.253 0 0 0 .444-.665c.097-.169.183-.337.263-.506.499-1.074.645-2.145.67-2.95a6.821 6.821 0 0 0-.077-1.326h.003l.003.003a1.944 1.944 0 0 1 .286.243 3.362 3.362 0 0 1 .427.487 5.229 5.229 0 0 1 .722 1.338c.189.504.337 1.111.4 1.838.023.241.035.495.035.765 0 .733-.086 1.449-.24 2.139-.06.278-.132.55-.213.816-.037.134-.08.266-.126.398-.011.04-.025.077-.04.117a12.943 12.943 0 0 1-.41 1.034 14.14 14.14 0 0 1-.532 1.08 15.44 15.44 0 0 1-.587.996c-.049.083-.1.163-.154.244-.08.126-.164.249-.25.369a19.698 19.698 0 0 1-2.451 2.918c-.04.04-.08.077-.114.112-.086.083-.15.14-.187.172-.005.008-.011.011-.017.017h-.003l-.014.014a7.14 7.14 0 0 1-.195.226c-3.218 3.594-6.443 4.511-8.342 9.135h20.304l.59-1.875c1.185-6.678 1.297-11.83.61-15.914Zm-27.82 4.359-.439.598a.344.344 0 0 1-.613-.137l-.26-1.32a1.005 1.005 0 0 1 .47-1.057.482.482 0 0 1 .624.112l.189.237c.36.456.372 1.1.028 1.567Zm8.2-13.015a1.914 1.914 0 0 1-1.866.678 1.92 1.92 0 0 1 .26-1.967 1.91 1.91 0 0 1 1.867-.679 1.906 1.906 0 0 1-.26 1.968Zm14.428 21.861-6.117.584c-.561.051-.859-.647-.432-1.014 1.426-1.234 3.01-2.354 4.593-4.121 1.02-1.139 1.672-2.428 2.087-3.688.11-.326.588-.275.62.072l.606 6.526a1.507 1.507 0 0 1-1.357 1.641Z"/><path fill="#FFFFFF" d="M27.889 109.699c.36.456.372 1.1.028 1.567l-.438.598a.344.344 0 0 1-.613-.137l-.26-1.32a1.005 1.005 0 0 1 .47-1.057.482.482 0 0 1 .624.112l.189.237Zm6.363-10.769a1.92 1.92 0 0 1 .26-1.968 1.91 1.91 0 0 1 1.867-.679 1.914 1.914 0 0 1-2.128 2.646Zm1.366-6.31-.003-.002 1.134-1.412.02-.023 1.114-1.386-1.131 1.412-1.134 1.412Zm3.542-4.916c-.02-.06-.037-.123-.057-.183l.02.054c.014.043.025.086.037.129Zm3.646 27.6c-.006.008-.012.011-.018.017.006-.006.009-.012.015-.017h.003Zm.621-21.263c-.026.095-.06.178-.106.255.043-.077.077-.16.103-.255l.046-.16c.04-.146.097-.284.169-.41a1.912 1.912 0 0 0-.166.41l-.046.16Zm.458-.911Zm.675-.458Zm1.68 7.568h-.004v-.005l.005.005Zm.308 10.253Zm.404-9.525a4.656 4.656 0 0 0-.358-.418c.109.106.232.246.358.418Zm.128 8.445Zm.594-7.107Zm-.018 5.558Zm.212-.816a9.977 9.977 0 0 0 .238-2.139c0-.27-.012-.522-.032-.765.023.241.035.495.035.765 0 .733-.086 1.449-.24 2.139Zm-3.872 12.634c1.427-1.234 3.01-2.354 4.594-4.121 1.02-1.139 1.672-2.428 2.087-3.688.11-.326.587-.275.619.072l.607 6.526a1.507 1.507 0 0 1-1.357 1.641l-6.117.584c-.561.051-.86-.647-.433-1.014Zm-5.028-11.497-2.15 1.397-3.213 2.088 1.975-5.307c.212.212 1.504 1.467 3.388 1.822Z"/><path fill="#0A0B0D" d="M39.46 89.33c0 .055-.002.106-.005.158a2.31 2.31 0 0 1-.02.155l-.017.085a.907.907 0 0 1-.06.164l-.018.031a.53.53 0 0 1-.114.146.456.456 0 0 1-.195.103.844.844 0 0 1-.856-.229l-.046-.048a1.516 1.516 0 0 1-.074-.095 1.055 1.055 0 0 1-.075-.123h-.003c-.054-.126-1.257-2.775-.363-5.819 0 0 .464.936.925 2.088l.566 1.572v.003l.018.054c.014.043.026.086.037.129a6.826 6.826 0 0 1 .143.533l.029.12c.023.094.04.186.054.275a5.046 5.046 0 0 1 .052.326c.008.086.017.17.02.25.003.042.003.082.003.122Zm-11.543 21.936-.438.598a.344.344 0 0 1-.613-.137l-.26-1.32a1.005 1.005 0 0 1 .47-1.057.482.482 0 0 1 .624.112l.189.237c.36.456.372 1.1.028 1.567Z"/><path fill="#464B55" d="M48.109 104.909c0 .733-.086 1.449-.24 2.139a11.074 11.074 0 0 1-.339 1.214c-.011.04-.026.077-.04.117a22.2 22.2 0 0 1-.249.659 14.178 14.178 0 0 1-.693 1.455 15.44 15.44 0 0 1-.587.996l-.155.244c-.08.126-.163.249-.249.369a19.69 19.69 0 0 1-2.451 2.918l-.115.112c-.085.083-.148.14-.186.172-.005.008-.011.011-.017.017l.014-.017c2.034-2.443 2.483-5.496 2.532-7.44a1.06 1.06 0 0 0-1.638-.922l-.378.243a5.899 5.899 0 0 0 .532-.392.384.384 0 0 0 .07-.057 2.92 2.92 0 0 0 .211-.184 4.243 4.243 0 0 0 .246-.232c.055-.051.106-.103.152-.157.052-.052.097-.106.143-.158.049-.054.092-.106.135-.16.046-.054.089-.109.126-.163a1.69 1.69 0 0 0 .123-.166c.12-.164.226-.33.32-.499.098-.169.187-.337.264-.506.501-1.074.65-2.148.67-2.95a6.879 6.879 0 0 0-.074-1.323v-.003l.003.003a1.944 1.944 0 0 1 .286.243l.069.069c.109.106.232.246.358.418.043.058.086.121.132.184.206.3.415.681.59 1.154.188.504.337 1.111.4 1.838.023.241.035.495.035.765Z"/><path fill="#0A0B0D" d="M36.119 98.25a1.914 1.914 0 0 1-1.867.68 1.92 1.92 0 0 1 .26-1.968 1.91 1.91 0 0 1 1.867-.679 1.907 1.907 0 0 1-.26 1.968Z"/><path fill="#FFFFFF" d="m27.505 83.79 8.11 8.828.003.003 2.265-2.824-10.378-6.008Z"/><path fill="#464B55" d="M55.127 122.821c1.186-6.678 1.297-11.83.61-15.914-.003-.002-.003-.005-.003-.008a8.855 8.855 0 0 0-.071-.407c-.014-.094-.035-.186-.052-.278a15.367 15.367 0 0 0-.111-.518 3.516 3.516 0 0 0-.055-.252 41.155 41.155 0 0 0-.126-.512 14.65 14.65 0 0 0-.203-.742 12.213 12.213 0 0 0-.226-.73 7.132 7.132 0 0 0-.115-.33c-.08-.232-.163-.455-.252-.678-.04-.112-.086-.221-.132-.33-.045-.109-.091-.214-.137-.323a12.384 12.384 0 0 0-.29-.627 8.941 8.941 0 0 0-.151-.307c-.049-.1-.1-.2-.155-.301-.103-.2-.212-.395-.323-.587a9.395 9.395 0 0 0-.17-.286 9.958 9.958 0 0 0-.349-.553 14.939 14.939 0 0 0-.744-1.054 17.18 17.18 0 0 0-.814-.99 3.702 3.702 0 0 0-.203-.226c-.28-.313-.572-.613-.873-.905-.078-.075-.152-.15-.23-.218a5.272 5.272 0 0 0-.228-.212c-.078-.072-.155-.14-.232-.209a5.381 5.381 0 0 0-.238-.209 12.83 12.83 0 0 0-.481-.404 21.45 21.45 0 0 0-.493-.395c-.083-.063-.166-.129-.252-.192a24.554 24.554 0 0 0-.776-.57c-.169-.123-.34-.24-.515-.358a24.87 24.87 0 0 0-.533-.355 1.911 1.911 0 0 0-.484-.223 1.732 1.732 0 0 0-.761-.052 1.14 1.14 0 0 0-.135.026c-.046.009-.092.02-.135.034a.77.77 0 0 0-.129.046 1.384 1.384 0 0 0-.246.118.702.702 0 0 0-.114.071.65.65 0 0 0-.118.086.888.888 0 0 0-.097.083.825.825 0 0 0-.1.1c-.098.1-.18.215-.247.341a1.785 1.785 0 0 0-.169.41l-.045.16c-.026.095-.06.178-.103.255a1.096 1.096 0 0 1-.155.2 1.038 1.038 0 0 1-1.412.035 1.066 1.066 0 0 1-.27-.412l-2.379-6.598v-.003a20.869 20.869 0 0 0-.567-1.572c-.46-1.152-.925-2.088-.925-2.088s2.578 1.194 4.147 4.64c0 0 .189.008.535.042 3.105.344 18.763 3.15 22.05 25.286l.453 4.324.684 6.546H54.537l.59-1.875Z"/><path fill="#ECD069" d="M144 22a6 6 0 0 1 6-6h52a6 6 0 0 1 6 6v52a6 6 0 0 1-6 6h-52a6 6 0 0 1-6-6V22Z"/><path fill="#588AF5" d="M158.222 30.222h35.556v35.556h-35.556V30.222Z"/><path fill="#44C28D" d="m158.222 30.222-3.555-3.555v42.666l3.555-3.555V30.222Zm35.556 35.556 3.555 3.555V26.667l-3.555 3.555v35.556Z"/><path fill="#0A0B0D" d="m193.778 30.222 3.555-3.555h-42.666l3.555 3.555h35.556Zm-35.556 35.556-3.555 3.555h42.666l-3.555-3.555h-35.556Z"/><path fill="#FFFFFF" d="m176 55.111-6.222-6.222-11.556 10.152v6.737h35.556V51.555l-7.111-7.11L176 55.11Z"/><path fill="#ECD069" d="M172.444 39.556a4.889 4.889 0 1 1-9.778 0 4.889 4.889 0 0 1 9.778 0Z"/><path fill="#44C28D" d="M182 100a6 6 0 0 1 6-6h24a6 6 0 0 1 6 6v24a6 6 0 0 1-6 6h-24a6 6 0 0 1-6-6v-24Z"/><path fill="#0A0B0D" d="M187.143 114.571h5.143v10.286h-5.143v-10.286Zm10.285-5.142h5.143v15.428h-5.143v-15.428Zm10.286-5.143h5.143v20.571h-5.143v-20.571Z"/><path fill="#FFFFFF" d="M124.046 208.006c11.066 0 20.045-8.96 20.045-20.003S135.112 168 124.046 168C112.979 168 104 176.96 104 188.003s8.979 20.003 20.046 20.003Z"/><path fill="#0A0B0D" d="M120.379 181.468h7.36a2.85 2.85 0 0 1 2.855 2.85v7.343a2.85 2.85 0 0 1-2.855 2.85h-7.36a2.85 2.85 0 0 1-2.855-2.85v-7.343c-.014-1.562 1.263-2.85 2.855-2.85Z"/></svg>