<svg xmlns="http://www.w3.org/2000/svg" fill="none" viewBox="0 0 240 240"><path fill="#464B55" d="M0 16h168v128H0V16Z"/><path fill="#FFFFFF" fill-rule="evenodd" d="M57 191V73h-2v120h60.5v-2H57Z" clip-rule="evenodd"/><path fill="#ECD069" d="M240 176a64 64 0 1 1-128 0 64 64 0 0 1 128 0Z"/><path fill="#464B55" d="M24 0h32l8 16H16l8-16Z"/><path fill="#588AF5" fill-rule="evenodd" d="M168 112.5V144h-47.44A64.03 64.03 0 0 1 168 112.5Z" clip-rule="evenodd"/><path fill="#0A0B0D" fill-rule="evenodd" d="M176 222a46 46 0 1 0 0-92 46 46 0 0 0 0 92Zm0 2a48 48 0 1 0 0-96 48 48 0 0 0 0 96Z" clip-rule="evenodd"/><path fill="#0A0B0D" fill-rule="evenodd" d="m199.3 154.22-42.16 42.15 1.42 1.41 42.15-42.15-1.41-1.41Zm-37.94 1.7a6.03 6.03 0 1 1 0 12.06 6.03 6.03 0 0 1 0-12.06Zm8.02 6.03a8.03 8.03 0 1 0-16.05 0 8.03 8.03 0 0 0 16.05 0Zm23.59 22.08a6.03 6.03 0 1 1 0 12.05 6.03 6.03 0 0 1 0-12.05Zm8.03 6.02a8.03 8.03 0 1 0-16.05 0 8.03 8.03 0 0 0 16.05 0Z" clip-rule="evenodd"/><path fill="#FFFFFF" fill-rule="evenodd" d="m56 73.41 15.3 15.3 1.41-1.42-16.7-16.7-16.71 16.7 1.41 1.42 15.3-15.3Z" clip-rule="evenodd"/><path fill="#0A0B0D" fill-rule="evenodd" d="M.5 23H17v8h46v-8h105v2H65v8H15v-8H.5v-2Z" clip-rule="evenodd"/></svg>