<svg xmlns="http://www.w3.org/2000/svg" fill="none" viewBox="0 0 240 240"><path fill="#464B55" d="m228 104-36-92-36 92m-72 44L48 56l-36 92"/><path fill="#FFFFFF" fill-rule="evenodd" d="M192.96 11.7a1 1 0 0 1-.67 1.26l-144 44a1 1 0 0 1-.58-1.92l144-44a1 1 0 0 1 1.25.67Z" clip-rule="evenodd"/><path fill="#45DAF6" d="M240 120a48 48 0 0 1-96 0h96Z"/><path fill="#588AF5" d="M232 120a40 40 0 1 1-80 0h80Z"/><path fill="#ECD069" d="M152 120a40 40 0 1 1 80 0h-80Z"/><path fill="#0A0B0D" fill-rule="evenodd" d="M192 89a31 31 0 1 0 0 62 31 31 0 0 0 0-62Zm-33 31a33 33 0 1 1 66 0 33 33 0 0 1-66 0Z" clip-rule="evenodd"/><path fill="#ECD069" d="M96 164a48 48 0 0 1-96 0h96Z"/><path fill="#588AF5" d="M88 164a40 40 0 1 1-80 0h80Z"/><path fill="#45DAF6" d="M8 164a40 40 0 1 1 80 0H8Z"/><path fill="#0A0B0D" fill-rule="evenodd" d="M48 133a31 31 0 1 0 0 62 31 31 0 0 0 0-62Zm-33 31a33 33 0 1 1 66 0 33 33 0 0 1-66 0Z" clip-rule="evenodd"/><path fill="#464B55" d="M128 40h-16v200h16V40Z"/><path fill="#588AF5" d="M120 44a12 12 0 1 0 0-24 12 12 0 0 0 0 24ZM88 240a32 32 0 1 1 64 0H88Z"/><path fill="#FFFFFF" fill-rule="evenodd" d="m200.71 67.3-8.7-8.71-8.71 8.7 1.41 1.42 6.3-6.3V108h2V62.41l6.29 6.3 1.41-1.42ZM49 149.59V104h-2v45.59l-6.29-6.3-1.41 1.42 8.7 8.7 8.71-8.7-1.41-1.42-6.3 6.3Z" clip-rule="evenodd"/></svg>