<svg xmlns="http://www.w3.org/2000/svg" fill="none" viewBox="0 0 240 240"><path fill="#464B55" d="m228 104-36-92-36 92m-72 44L48 56l-36 92"/><path fill="#FFFFFF" fill-rule="evenodd" d="M192.957 11.708a1 1 0 0 1-.665 1.248l-144 44a1 1 0 0 1-.584-1.912l144-44a1 1 0 0 1 1.249.664" clip-rule="evenodd"/><path fill="#45D9F5" d="M240 120a48 48 0 0 1-96 0z"/><path fill="#578BFA" d="M232 120a40 40 0 0 1-11.716 28.284 39.996 39.996 0 0 1-56.568 0A40 40 0 0 1 152 120z"/><path fill="#ECD069" d="M152 120a39.997 39.997 0 0 1 40-40 40 40 0 0 1 40 40z"/><path fill="#0A0B0D" fill-rule="evenodd" d="M192 89c-17.121 0-31 13.879-31 31s13.879 31 31 31 31-13.879 31-31-13.879-31-31-31m-33 31c0-18.225 14.775-33 33-33s33 14.775 33 33-14.775 33-33 33-33-14.775-33-33" clip-rule="evenodd"/><path fill="#ECD069" d="M96 164a48 48 0 0 1-96 0z"/><path fill="#578BFA" d="M88 164a40 40 0 0 1-40 40 40 40 0 0 1-40-40z"/><path fill="#45D9F5" d="M8 164a40 40 0 0 1 40-40 40 40 0 0 1 40 40z"/><path fill="#0A0B0D" fill-rule="evenodd" d="M48 133c-17.12 0-31 13.879-31 31s13.88 31 31 31 31-13.879 31-31-13.88-31-31-31m-33 31c0-18.225 14.775-33 33-33s33 14.775 33 33-14.775 33-33 33-33-14.775-33-33" clip-rule="evenodd"/><path fill="#464B55" d="M128 40h-16v200h16z"/><path fill="#578BFA" d="M120 44c6.627 0 12-5.373 12-12s-5.373-12-12-12-12 5.373-12 12 5.373 12 12 12M88 240a31.998 31.998 0 0 1 54.627-22.627A32 32 0 0 1 152 240z"/><path fill="#FFFFFF" fill-rule="evenodd" d="m200.711 67.293-8.707-8.707-8.707 8.707 1.414 1.414 6.293-6.293V108h2V62.414l6.293 6.293zM49.004 149.586V104h-2v45.586l-6.293-6.293-1.414 1.414 8.707 8.707 8.707-8.707-1.414-1.414z" clip-rule="evenodd"/></svg>