<svg xmlns="http://www.w3.org/2000/svg" fill="none" viewBox="0 0 240 240"><path fill="#464B55" d="M40 0h160v200H40z"/><path fill="#464B55" d="M8 240h224v-77H8z"/><path fill="#45D9F5" d="M215.998 80c0-13.257 10.745-23.998 24.002-23.998-13.257 0-24.002-10.745-24.002-24.002 0 13.257-10.746 24.002-23.998 24.002 13.252 0 23.998 10.74 23.998 23.998"/><path fill="#FFFFFF" fill-rule="evenodd" d="M216.001 32.408v47.184l-.003.408c0-13.257-10.746-23.998-23.998-23.998 13.252 0 23.998-10.745 23.998-24.002z" clip-rule="evenodd"/><path fill="#ECD069" d="M23.998 115c0-13.257 10.745-23.998 24.002-23.998-13.257 0-24.002-10.745-24.002-24.002 0 13.257-10.746 24.002-23.998 24.002 13.252 0 23.998 10.741 23.998 23.998"/><path fill="#FFFFFF" fill-rule="evenodd" d="M24 114.655v-47.31c.184 13.098 10.858 23.657 24 23.657-13.142 0-23.816 10.555-24 23.653" clip-rule="evenodd"/><path fill="#0A0B0D" d="M52 32h64v64H52z"/><path fill="#FFFFFF" fill-rule="evenodd" d="M75 88V56h2v32z" clip-rule="evenodd"/><path fill="#F0616D" d="M80 60h-8v24h8z"/><path fill="#FFFFFF" fill-rule="evenodd" d="M91 72V40h2v32z" clip-rule="evenodd"/><path fill="#44C28D" d="M96 44h-8v24h8zm28-12h64v64h-64z"/><path fill="#578BFA" d="m134.45 66.599 6.686-14.512v.012c2.629-7.07 9.422-12.098 17.416-12.098 10.263 0 18.581 8.318 18.581 18.58 0 5.077-2.041 9.674-5.341 13.023V88h-18.557v-5.4h-8.138a5.32 5.32 0 0 1-5.317-5.317V66.599z"/><path fill="#44C28D" d="M52 104h64v64H52z"/><path fill="#578BFA" d="M124 104h64v64h-64z"/><path fill="#45D9F5" d="M136 116h40v40h-40z"/><path fill="#0A0B0D" d="M152.125 58a2 2 0 1 1-4 0 2 2 0 0 1 4 0"/><path fill="#ECD069" d="M64 136c0 11.046 8.954 20 20 20s20-8.954 20-20-8.954-20-20-20-20 8.954-20 20"/><path fill="#FFFFFF" d="M83.998 152c0-8.838 7.164-15.998 16.002-15.998-8.838 0-16.002-7.164-16.002-16.002 0 8.838-7.163 16.002-15.998 16.002 8.835 0 15.998 7.16 15.998 15.998"/><path fill="#0A0B0D" fill-rule="evenodd" d="M168 133h-24v-2h24zm0 8h-24v-2h24zm0-16h-24v-2h24z" clip-rule="evenodd"/><path fill="#578BFA" d="M8 163h224v-16H8z"/><path fill="#0A0B0D" d="M40 163h160v-16H40z"/><path fill="#578BFA" d="M40 163h160v77H40z"/><path fill="#0A0B0D" d="M18 155a2 2 0 1 1-4 0 2 2 0 0 1 4 0m8 0a2 2 0 1 1-4 0 2 2 0 0 1 4 0m8 0a2 2 0 1 1-4 0 2 2 0 0 1 4 0"/><path fill="#FFFFFF" d="M134 214.5v-5l-5.65-1.883a14.3 14.3 0 0 0-1.1-2.65l2.667-5.334-3.534-3.533-5.333 2.667a15 15 0 0 0-2.65-1.1L116.5 192h-5l-1.883 5.65c-.934.283-1.817.667-2.65 1.1l-5.334-2.667-3.55 3.55 2.667 5.334c-.45.833-.817 1.733-1.1 2.65L94 209.5v5l5.65 1.883q.425 1.4 1.1 2.65l-2.667 5.334 3.534 3.533 5.333-2.667c.833.45 1.733.817 2.65 1.1l1.9 5.667h5l1.883-5.65q1.4-.425 2.65-1.1l5.334 2.667 3.533-3.534-2.667-5.333c.45-.833.817-1.733 1.1-2.65zm-10.833-2.5c0 5.05-4.117 9.167-9.167 9.167s-9.167-4.117-9.167-9.167 4.117-9.167 9.167-9.167 9.167 4.117 9.167 9.167M146 185.5v-3l-3.39-1.13q-.255-.84-.66-1.59l1.6-3.2-2.12-2.12-3.2 1.6c-.5-.27-1.04-.49-1.59-.66l-1.14-3.4h-3l-1.13 3.39c-.56.17-1.09.4-1.59.66l-3.2-1.6-2.13 2.13 1.6 3.2c-.27.5-.49 1.04-.66 1.59L122 182.5v3l3.39 1.13q.255.84.66 1.59l-1.6 3.2 2.12 2.12 3.2-1.6c.5.27 1.04.49 1.59.66l1.14 3.4h3l1.13-3.39q.84-.255 1.59-.66l3.2 1.6 2.12-2.12-1.6-3.2c.27-.5.49-1.04.66-1.59zm-6.5-1.5c0 3.03-2.47 5.5-5.5 5.5a5.51 5.51 0 0 1-5.5-5.5c0-3.03 2.47-5.5 5.5-5.5s5.5 2.47 5.5 5.5"/></svg>