<svg xmlns="http://www.w3.org/2000/svg" fill="none" viewBox="0 0 240 240"><path fill="#ECD069" d="M235.93 152h-77.28v24h77.28v-24Z"/><path fill="#588AF5" d="M40.68 126.78c-2.67.1-5.3.66-7.78 1.66 0 0-32.9 14.73-32.9 34.95 0 20.22 32.9 34.95 32.9 34.95a23.1 23.1 0 0 0 7.78 1.66H215.6a4.07 4.07 0 0 0 4.07-4.07v-65.08a4.07 4.07 0 0 0-4.07-4.07H40.7Z"/><path fill="#FFFFFF" d="M36.62 187.29a23.9 23.9 0 1 0 0-47.8 23.9 23.9 0 0 0 0 47.8Z"/><path fill="#0A0B0D" d="M219.66 152H160v24h59.66v-24Z"/><path fill="#464B55" d="M188.52 57.5 142.5 11.49a4.07 4.07 0 0 0-5.75 0L10.73 137.5a36.61 36.61 0 1 0 51.78 51.78L188.52 63.25a4.07 4.07 0 0 0 0-5.74Z"/><path fill="#FFFFFF" d="M125 126.78H36.62a36.52 36.52 0 0 0-27.7 12.7c-.19.22-.41.45-.6.7l-.68.84-.42.55c-.24.31-.46.64-.69.96l-.33.49c-.22.32-.44.67-.65 1.02l-.32.5-.57 1.01c-.18.35-.21.38-.31.56-.1.18-.34.64-.5 1.02l-.33.66-.4.87c-.1.27-.23.52-.33.79l-.31.8-.35.9c-.11.3-.15.46-.23.7a32.29 32.29 0 0 0-.8 2.74l-.15.6-.25 1.15c0 .2-.07.4-.1.6-.08.39-.15.77-.2 1.15l-.09.7-.13 1.02-.06.91c0 .3-.05.59-.07.87v3.62c0 .28 0 .57.07.86l.06.92c0 .36.1.71.13 1.02.04.3.05.47.1.7.03.23.11.76.19 1.15 0 .2.07.4.1.6l.25 1.16.14.59.3 1.1.18.63.33 1.01.23.7c.08.24.24.6.35.9.1.31.2.54.31.8l.34.79.4.87.32.66c.16.33.33.65.5 1.02.17.36.2.37.31.56.12.18.38.67.57 1.01l.32.5.64 1.02.35.5c.22.31.44.64.68.95l.42.55.67.85.6.7.57.66a29.63 29.63 0 0 0 2.55 2.55l.67.57c.23.2.45.4.7.6l.84.67.55.43.96.68.5.34c.32.22.67.43 1.01.65l.5.31 1.02.57.56.32.95.5.67.32.88.4.78.33.8.32.9.34.7.24 1.02.33c.2.07.4.12.62.18l1.1.3.6.13 1.16.26.6.1 1.15.2.69.09 1.08.13.91.06.87.07h1.8a36.49 36.49 0 0 0 25.9-10.72L125 126.78Z"/><path fill="#0A0B0D" d="M36.62 187.29a23.9 23.9 0 1 0 0-47.8 23.9 23.9 0 0 0 0 47.8Z"/><path fill="#FFFFFF" fill-rule="evenodd" d="M36.62 146.6a16.8 16.8 0 1 0 0 33.59 16.8 16.8 0 0 0 0-33.6Zm-18.8 16.79a18.8 18.8 0 1 1 37.6 0 18.8 18.8 0 0 1-37.6 0ZM144 152.19h-32v-2h32v2Zm0 8.13h-32v-2h32v2Zm0 8.14h-32v-2h32v2Zm0 8.14h-32v-2h32v2Z" clip-rule="evenodd"/><path fill="#588AF5" fill-rule="evenodd" d="M232 155.83a4 4 0 0 1 8 0V172a4 4 0 1 1-8-.17v-16Z" clip-rule="evenodd"/><path fill="#0A0B0D" fill-rule="evenodd" d="M235.93 154.83a1 1 0 0 1 1 1v16a1 1 0 0 1-2 0v-16a1 1 0 0 1 1-1Z" clip-rule="evenodd"/></svg>