<svg xmlns="http://www.w3.org/2000/svg" fill="none" viewBox="0 0 240 240"><path fill="#FFFFFF" fill-rule="evenodd" d="m120 .1 72.32 23.95-.63 1.9L120 2.21 48.32 25.95l-.63-1.9L120 .1Z" clip-rule="evenodd"/><path fill="#ECD069" fill-rule="evenodd" d="M192 48H48v144h144V48ZM24 24v192h192V24H24Z" clip-rule="evenodd"/><path fill="#588AF5" d="M48 48h144v16H48V48Z"/><path fill="#464B55" d="M64 56h112v128H64V56Z"/><path fill="#0A0B0D" d="M64 56h112v8H64v-8Z"/><path fill="#FFFFFF" fill-rule="evenodd" d="M119 234v-50h2v50h-2Z" clip-rule="evenodd"/><path fill="#FFFFFF" d="M124 236a4 4 0 1 1-8 0 4 4 0 0 1 8 0Z"/><path fill="#FFFFFF" fill-rule="evenodd" d="M184 185H56v-2h128v2Z" clip-rule="evenodd"/><path fill="#FFFFFF" fill-rule="evenodd" d="M80.1 119.5a46.1 46.1 0 0 1 39.95-23.06A46.1 46.1 0 0 1 160 119.5a46.1 46.1 0 0 1-39.95 23.06A46.1 46.1 0 0 1 80.1 119.5Z" clip-rule="evenodd"/><path fill="#588AF5" d="M136 120a16 16 0 1 1-32 0 16 16 0 0 1 32 0Z"/><path fill="#FFFFFF" d="M126 120a6 6 0 1 1-12 0 6 6 0 0 1 12 0Z"/><path fill="#0A0B0D" fill-rule="evenodd" d="m160.7 80.7-80 80-1.41-1.4 80-80 1.41 1.4ZM203 212V28h2v184h-2Zm-168 0V28h2v184h-2Z" clip-rule="evenodd"/><path fill="#0A0B0D" fill-rule="evenodd" d="M28 36h184v2H28v-2Zm0 167h84v2H28v-2Zm100 0h84v2h-84v-2Z" clip-rule="evenodd"/></svg>