<svg xmlns="http://www.w3.org/2000/svg" fill="none" viewBox="0 0 240 240"><path fill="#FFFFFF" fill-rule="evenodd" d="m120.002.103 72.314 23.948-.628 1.899-71.686-23.74-71.686 23.74-.629-1.9z" clip-rule="evenodd"/><path fill="#ECD069" fill-rule="evenodd" d="M192 48H48v144h144zM24 24v192h192V24z" clip-rule="evenodd"/><path fill="#578BFA" d="M48 48h144v16H48z"/><path fill="#464B55" d="M64 56h112v128H64z"/><path fill="#0A0B0D" d="M64 56h112v8H64z"/><path fill="#FFFFFF" fill-rule="evenodd" d="M119 234v-50h2v50z" clip-rule="evenodd"/><path fill="#FFFFFF" d="M124 236a4 4 0 1 1-8 0 4 4 0 0 1 8 0"/><path fill="#FFFFFF" fill-rule="evenodd" d="M184 185H56v-2h128z" clip-rule="evenodd"/><path fill="#FFFFFF" fill-rule="evenodd" d="M80.102 119.5c7.974-13.785 22.879-23.06 39.95-23.06 17.07 0 31.975 9.275 39.949 23.06-7.974 13.785-22.879 23.06-39.949 23.06-17.071 0-31.976-9.275-39.95-23.06" clip-rule="evenodd"/><path fill="#578BFA" d="M136 120c0 8.837-7.163 16-16 16s-16-7.163-16-16 7.163-16 16-16 16 7.163 16 16"/><path fill="#FFFFFF" d="M126 120a6 6 0 1 1-12 0 6 6 0 0 1 12 0"/><path fill="#0A0B0D" fill-rule="evenodd" d="m160.703 80.707-80 80-1.414-1.414 80-80zM203 212V28h2v184zm-168 0V28h2v184z" clip-rule="evenodd"/><path fill="#0A0B0D" fill-rule="evenodd" d="M28 36h184v2H28zm0 167h84v2H28zm100 0h84v2h-84z" clip-rule="evenodd"/></svg>