<svg xmlns="http://www.w3.org/2000/svg" fill="none" viewBox="0 0 240 240"><path fill="#A5C1FD" d="M24 56h192v128H24V56Z"/><path fill="#FFFFFF" d="M40 72h64v64H40V72Z"/><path fill="#ECD069" d="M120 72h80v16h-80V72Z"/><path fill="#0A0B0D" fill-rule="evenodd" d="M168 105h-48v-2h48v2Zm-32 32h-16v-2h16v2Zm24 0h-16v-2h16v2Zm24 0h-16v-2h16v2Zm-48 16h-16v-2h16v2Zm24 0h-16v-2h16v2Zm24 0h-16v-2h16v2Zm-32-32h-32v-2h32v2Zm36 3a12 12 0 1 0 0-24 12 12 0 0 0 0 24Zm0-4a8 8 0 0 1 8-8 8 8 0 0 1-8-8 8 8 0 0 1-8 8 8 8 0 0 1 8 8Z" clip-rule="evenodd"/><path fill="#464B55" fill-rule="evenodd" d="M240 40v-8h-32v8h24v24h8V40ZM0 40v-8h32v8H8v24H0V40Zm240 160v8h-32v-8h24v-24h8v24ZM0 200v8h32v-8H8v-24H0v24Z" clip-rule="evenodd"/><path fill="#FFFFFF" d="M40 72h64v64H40V72Z"/><path fill="#588AF5" fill-rule="evenodd" d="M104 120.7V136H40v-15.3A38.96 38.96 0 0 1 72 104c13.25 0 24.95 6.6 32 16.7Z" clip-rule="evenodd"/><path fill="#0A0B0D" d="M84 88a12 12 0 1 1-24 0 12 12 0 0 1 24 0Z"/><path fill="#FFFFFF" d="M40 160h64v-16H40v16Z"/><path fill="#0A0B0D" d="M60.5 157.18h.4c.6 0 1.1-.2 1.4-.6l.9-.8c1.78-1.62 4.46-4.04 5.3-3.7.1 0 .6.3.8 2.6.1.8.6 1.5 1.3 1.8.7.3 1.5.2 2.1-.3l4.3-3.7-1.3-1.6-4.3 3.7s-.1 0-.1-.1c-.2-1.5-.5-3.7-2.1-4.3-2.1-.7-4.8 1.6-8.3 5l-1.2-2.5c-.3-.6-.8-1-1.5-1.1-.7-.1-1.3.2-1.8.7-2.4 2.6-3.2 2.3-3.2 2.3-.4-.2-1.2-1.7-.6-6.9.1-.7-.3-1.4-1-1.6-.7-.2-1.4 0-1.8.6l-5.8 8.6 1.7 1 4.7-7.1c-.2 4.1.4 6.4 2 7.1 1.9.9 4-1.2 5.5-2.8l1.2 2.5c.3.6.9 1 1.4 1.2Zm18.5-.8 1.7 1 4.1-6.6c.8 3.6 2.6 5.9 5 6.3 2.4.4 4.8-1.2 6.6-4.4 0-.1.1-.1.1-.1l2.5 4.3 1.7-1-2.5-4.3c-.4-.6-1.1-1-1.8-1s-1.4.4-1.8 1c-1.4 2.4-3 3.7-4.5 3.4-1.7-.3-3.1-2.5-3.6-5.7-.1-.7-.5-1.2-1.2-1.3-.6-.1-1.3.2-1.6.7l-4.7 7.7Z"/></svg>