<svg xmlns="http://www.w3.org/2000/svg" fill="none" viewBox="0 0 241 240"><path fill="#464B55" d="M99.307 240h-10.38V129.93h10.38zm125.234 0h-8V85.736h-16V240h-40V74.379h64zm-112-125.168h40V240h-40zM40.541 240h40v-72h-40zm-16 0v-72h-8v72z"/><path fill="#FFFFFF" fill-rule="evenodd" d="m239.842 47.67-3.387 2.183-1.083-1.681 3.386-2.183zm-6.774 4.365-3.386 2.183-1.084-1.681 3.387-2.183zm-6.773 4.366-3.387 2.182-1.083-1.681 3.387-2.183zm-6.773 4.365-3.387 2.182-1.083-1.68 3.386-2.183zm-6.773 4.365-3.387 2.182-1.084-1.68 3.387-2.183zm-6.774 4.365-3.386 2.183-1.084-1.682 3.387-2.182zm-6.773 4.365-3.387 2.183-1.083-1.682 3.387-2.182zm-6.773 4.365-3.387 2.183-1.083-1.681 3.386-2.183zm-6.774 4.365-3.386 2.183-1.084-1.681 3.387-2.183zm-6.773 4.365-3.387 2.183-1.083-1.681 3.387-2.183zm-6.773 4.365-3.387 2.183-1.083-1.681 3.386-2.183zm-6.773 4.365-3.387 2.183-1.084-1.681 3.387-2.183zm-6.774 4.366-3.386 2.182-1.084-1.681 3.387-2.182zm-6.773 4.365-3.387 2.182-1.083-1.681 3.387-2.182zm-6.773 4.365-3.387 2.182-1.083-1.681 3.386-2.182zm-6.774 4.365-3.386 2.182-1.084-1.681 3.387-2.182zm-6.773 4.365-3.387 2.183-1.083-1.682 3.387-2.182zm-6.773 4.365-3.387 2.183-1.083-1.682 3.386-2.182zm-6.773 4.365-3.387 2.183-1.084-1.681 3.387-2.183zm-6.774 4.365-3.386 2.183-1.084-1.681 3.387-2.183zm-6.773 4.365-3.387 2.183-1.083-1.681 3.387-2.183zm-6.773 4.365-3.387 2.183-1.083-1.681 3.386-2.183zm-6.774 4.366-3.386 2.182-1.084-1.681 3.387-2.183zm-6.773 4.365-3.386 2.182-1.084-1.681 3.387-2.182zm-6.773 4.365-3.387 2.182-1.083-1.681 3.386-2.182zm-6.773 4.365-3.387 2.182-1.084-1.681 3.387-2.182zm-6.774 4.365-3.386 2.183-1.084-1.682 3.387-2.182zm-6.773 4.365-3.387 2.183-1.083-1.682 3.387-2.182zm-6.773 4.365-3.387 2.183-1.083-1.681 3.386-2.183zm-6.774 4.365-3.386 2.183-1.084-1.681 3.387-2.183zm-6.773 4.365-3.386 2.183-1.084-1.681 3.387-2.183zm-6.773 4.365-3.387 2.183-1.083-1.681 3.387-2.183zm-6.773 4.366-3.387 2.182-1.084-1.681 3.387-2.183zm-6.774 4.365-3.386 2.182-1.084-1.681 3.387-2.183zm-6.773 4.365-3.387 2.182-1.083-1.681 3.387-2.182zm-6.773 4.365-1.694 1.091L0 199.859l1.693-1.091z" clip-rule="evenodd"/><path fill="#578BFA" d="M12.54 48c0-6.629 5.373-11.999 12.001-11.999-6.628 0-12-5.372-12-12.001 0 6.628-5.373 12.001-12 12.001 6.627 0 12 5.37 12 11.999"/><circle cx="48.54" cy="108" r="16" fill="#E66020"/><path fill="#464B55" d="M32.54 108.8h32v64h-32z"/><path fill="#578BFA" d="M48.541 124c8.837 0 16-7.164 16-16h-32c0 8.836 7.164 16 16 16"/><path fill="#464B55" d="m48.538 207.999 31.996-16.245v-38.508l-31.996-15.644-31.997 15.644v38.508z"/><path fill="#464B55" d="M48.546 137.603V208l31.996-16.245v-38.508z"/><path fill="#578BFA" d="M64.542 145.427v27.374h-32v-27.378l15.996-7.821z"/><path fill="#464B55" fill-rule="evenodd" d="m48.541 172.671-31.994-19.554v38.508L48.54 207.87z" clip-rule="evenodd"/><path fill="#578BFA" fill-rule="evenodd" d="m48.542 172.671 31.995-19.554v38.508L48.542 207.87z" clip-rule="evenodd"/><path fill="#FFFFFF" d="M48.54 118.666c0-5.892 4.776-10.665 10.668-10.665-5.892 0-10.668-4.776-10.668-10.668 0 5.892-4.775 10.668-10.665 10.668 5.89 0 10.665 4.773 10.665 10.665"/><path fill="#464B55" d="M104.54 60.8h32v64h-32z"/><path fill="#464B55" d="m120.537 159.999 31.997-16.245v-38.509l-31.997-15.644-31.996 15.644v38.509z"/><path fill="#578BFA" d="M136.541 97.426v27.375h-31.999V97.422l15.995-7.82z"/><path fill="#464B55" fill-rule="evenodd" d="m120.541 124.672-31.995-19.554v38.508l31.995 16.245z" clip-rule="evenodd"/><path fill="#578BFA" fill-rule="evenodd" d="m120.542 124.672 31.995-19.554v38.508l-31.995 16.245z" clip-rule="evenodd"/><path fill="#E66020" d="M136.541 60c0 8.837-7.163 16-16 16s-16-7.163-16-16 7.164-16 16-16 16 7.163 16 16"/><path fill="#0A0B0D" d="M125.747 52.995a5.203 5.203 0 1 1-10.405 0 5.203 5.203 0 0 1 10.405 0"/><path fill="#0A0B0D" fill-rule="evenodd" d="M108.526 66.872a13.875 13.875 0 0 1 24.034 0c-2.4 4.146-6.883 6.935-12.017 6.935a13.87 13.87 0 0 1-12.017-6.935" clip-rule="evenodd"/><circle cx="192.54" cy="16" r="16" fill="#E66020"/><path fill="#464B55" d="M176.54 16h32v64h-32z"/><path fill="#0A0B0D" d="M192.541 32c8.837 0 16-7.163 16-16h-32c0 8.837 7.164 16 16 16"/><path fill="#464B55" d="m192.537 115.198 31.997-16.245V60.445L192.537 44.8l-31.996 15.644v38.508z"/><path fill="#464B55" d="M192.546 44.803v70.396l31.995-16.245V60.446z"/><path fill="#578BFA" d="M208.541 52.626V80h-32V52.622l15.996-7.821z"/><path fill="#464B55" fill-rule="evenodd" d="m192.541 79.87-31.995-19.554v38.509l31.995 16.244z" clip-rule="evenodd"/><path fill="#578BFA" fill-rule="evenodd" d="m192.542 79.87 31.995-19.554v38.509l-31.995 16.244z" clip-rule="evenodd"/><path fill="#FFFFFF" d="M186 8h13.09v16H186z"/><path fill="#0A0B0D" fill-rule="evenodd" d="M196.638 13h-8.335v-2h8.335zm0 4h-8.335v-2h8.335zm0 4h-8.335v-2h8.335z" clip-rule="evenodd"/></svg>