<svg xmlns="http://www.w3.org/2000/svg" fill="none" viewBox="0 0 240 240"><path fill="#464B55" d="M0 0h216v152H0V0Z"/><path fill="#464B55" d="M24 24h216v152H24V24Z"/><path fill="#588AF5" d="M24 24h192v128H24V24Z"/><path fill="#FFFFFF" d="M40 40h64v64H40V40Zm0 88h64v-16H40v16Z"/><path fill="#0A0B0D" d="M60.5 125.2h.4c.6 0 1.1-.2 1.4-.6l.9-.8c1.78-1.61 4.46-4.04 5.3-3.7.1 0 .6.3.8 2.6.1.8.6 1.5 1.3 1.8.7.3 1.5.2 2.1-.3l4.3-3.7-1.3-1.6-4.3 3.7s-.1 0-.1-.1c-.2-1.5-.5-3.7-2.1-4.3-2.1-.7-4.8 1.6-8.3 5l-1.2-2.5c-.3-.6-.8-1-1.5-1.1-.7-.1-1.3.2-1.8.7-2.4 2.6-3.2 2.3-3.2 2.3-.4-.2-1.2-1.7-.6-6.9.1-.7-.3-1.4-1-1.6-.7-.2-1.4 0-1.8.6l-5.8 8.6 1.7 1 4.7-7.1c-.2 4.1.4 6.4 2 7.1 1.9.9 4-1.2 5.5-2.8l1.2 2.5c.3.6.9 1 1.4 1.2Zm18.5-.8 1.7 1 4.1-6.6c.8 3.6 2.6 5.9 5 6.3 2.4.4 4.8-1.2 6.6-4.4 0-.1.1-.1.1-.1l2.5 4.3 1.7-1-2.5-4.3c-.4-.6-1.1-1-1.8-1s-1.4.4-1.8 1c-1.4 2.4-3 3.7-4.5 3.4-1.7-.3-3.1-2.5-3.6-5.7-.1-.7-.5-1.2-1.2-1.3-.6-.1-1.3.2-1.6.7l-4.7 7.7Z"/><path fill="#FFFFFF" d="M40 40h64v64H40V40Z"/><path fill="#ECD069" fill-rule="evenodd" d="M104 88.7V104H40V88.7A38.96 38.96 0 0 1 72 72c13.25 0 24.95 6.6 32 16.7Z" clip-rule="evenodd"/><path fill="#0A0B0D" d="M84 56a12 12 0 1 1-24 0 12 12 0 0 1 24 0Z"/><path fill="#ECD069" d="M176 185a55 55 0 1 1-110 0 55 55 0 0 1 110 0Z"/><path fill="#588AF5" fill-rule="evenodd" d="M175.27 176H66.73a55.02 55.02 0 0 1 108.54 0Z" clip-rule="evenodd"/><path fill="#FFFFFF" d="M162 185a41 41 0 1 1-82 0 41 41 0 0 1 82 0Z"/><path fill="#0A0B0D" fill-rule="evenodd" d="M136 105h-16v-2h16v2Zm32 0h-16v-2h16v2Zm32 0h-16v-2h16v2Zm-64 16h-16v-2h16v2Zm32 0h-16v-2h16v2Zm32 0h-16v-2h16v2Zm0-32h-80v-2h80v2Z" clip-rule="evenodd"/><path fill="#FFFFFF" d="M120 40h48v31h-48V40Z"/><path fill="#F0616D" d="M152 56a8 8 0 1 1-16 0 8 8 0 0 1 16 0Z"/><path fill="#0A0B0D" fill-rule="evenodd" d="M188 64a12 12 0 1 0 0-24 12 12 0 0 0 0 24Zm0-4a8 8 0 0 1 8-8 8 8 0 0 1-8-8 8 8 0 0 1-8 8 8 8 0 0 1 8 8Z" clip-rule="evenodd"/><path fill="#0A0B0D" d="M144 180H96v4h48v-4Zm0 20H96v4h48v-4Zm-24-36-21 16h42l-21-16Z"/><path fill="#0A0B0D" fill-rule="evenodd" d="M102 200v-20h4v20h-4Zm8 0v-20h4v20h-4Zm8 0v-20h4v20h-4Zm8 0v-20h4v20h-4Zm8 0v-20h4v20h-4Z" clip-rule="evenodd"/></svg>