<svg xmlns="http://www.w3.org/2000/svg" fill="none" viewBox="0 0 240 240"><path fill="#464B55" d="M72 32 32 51.556v48.888L72 120l40-19.556V51.556z"/><path fill="#0A0B0D" fill-rule="evenodd" d="M94 62.53v26.94l-22 10.756-22-10.755V62.529l22-10.755zm-4 2.496-18-8.8-18 8.8v21.948l18 8.8 18-8.8z" clip-rule="evenodd"/><path fill="#464B55" d="m176 120 40-19.556V51.556L176 32l-40 19.556v48.888z"/><path fill="#0A0B0D" fill-rule="evenodd" d="M154 89.47V62.53l22-10.756 22 10.755V89.47l-22 10.756zm4-2.496 18 8.8 18-8.8V65.026l-18-8.8-18 8.8z" clip-rule="evenodd"/><path fill="#464B55" d="M0 120h240v88H0z"/><path fill="#ECD069" d="M72 120h104v88H72z"/><path fill="#578BFA" d="m72 120-40 19.556v48.888L72 208l40-19.556v-48.888zm104 88 40-19.556v-48.888L176 120l-40 19.556v48.888z"/><path fill="#FFFFFF" fill-rule="evenodd" d="M72 120v88l40-19.556v-48.888zm104 88v-88l-40 19.556v48.888z" clip-rule="evenodd"/><path fill="#0A0B0D" d="m72 142-20 9.778v24.444L72 186l20-9.778v-24.444zm104 44 20-9.778v-24.444L176 142l-20 9.778v24.444z"/><path fill="#FFFFFF" d="M172.147 162.92H75.853a4.002 4.002 0 0 0-7.706 0H0v2h68.106a4.001 4.001 0 0 0 7.788 0h96.212a4.002 4.002 0 0 0 7.788 0H240v-2h-60.147a4.003 4.003 0 0 0-7.706 0"/></svg>