<svg xmlns="http://www.w3.org/2000/svg" fill="none" viewBox="0 0 240 240"><path fill="#464B55" d="M160 202h64V56h-64z"/><path fill="#464B55" fill-rule="evenodd" d="M192 0h-32v56h64V0h-16v46.53h-16zM48 0h32v56H16V0h16v46.53h16z" clip-rule="evenodd"/><path fill="#464B55" d="M16 57h64v145H16zm72 15h64v168H88z"/><path fill="#44C28D" d="m48 88 32-16V32L48 16 16 32v40z"/><path fill="#578BFA" d="M80 72V32L48 52 16 32v40l32 16z"/><path fill="#0A0B0D" d="m48 70 16-8V42l-16-8-16 8v20z"/><path fill="#ECD069" d="m120 127.915-32-15.981V71.981l32-15.98 32 15.98v39.953z"/><path fill="#578BFA" d="M152 72.066v39.953L120 128l-32-15.981V72.066l32 19.977z"/><path fill="#0A0B0D" d="m120.345 110.128-16.171-8.076v-20.19l16.171-8.075 16.171 8.076v20.189z"/><path fill="#45D9F5" d="m192 88 32-16V32l-32-16-32 16v40z"/><path fill="#578BFA" d="M224 72V32l-32 20-32-20v40l32 16z"/><path fill="#0A0B0D" d="m192 70 16-8V42l-16-8-16 8v20z"/><path fill="#578BFA" d="m192 148-32 16v40l32 16 32-16v-40z"/><path fill="#FFFFFF" d="M224 204v-40l-32-16-32 16v40l32-20z"/><path fill="#0A0B0D" d="m192 166-16 8v20l16 8 16-8v-20z"/><path fill="#FFFFFF" d="m120 220 32-16v-40l-32-16-32 16v40z"/><path fill="#FFFFFF" d="M152 204v-40l-32 20-32-20v40l32 16z"/><path fill="#0A0B0D" d="m120 202 16-8v-20l-16-8-16 8v20z"/><path fill="#578BFA" d="m48 148-32 16v40l32 16 32-16v-40z"/><path fill="#FFFFFF" d="M80 204v-40l-32-16-32 16v40l32-20z"/><path fill="#0A0B0D" d="m48 166-16 8v20l16 8 16-8v-20z"/><path fill="#44C28D" d="M16.002 144c0-8.838-7.164-15.998-16.002-15.998 8.838 0 16.002-7.164 16.002-16.002 0 8.838 7.163 16.002 15.998 16.002-8.835 0-15.998 7.16-15.998 15.998"/><path fill="#578BFA" fill-rule="evenodd" d="M15.703 140.908v-25.816c.196-1 .299-2.034.299-3.092 0 8.838 7.163 16.002 15.998 16.002-8.835 0-15.998 7.16-15.998 15.998 0-1.058-.103-2.092-.299-3.092" clip-rule="evenodd"/><path fill="#ECD069" d="M223.998 128c0-8.838 7.164-15.998 16.002-15.998-8.838 0-16.002-7.164-16.002-16.002 0 8.838-7.163 16.002-15.998 16.002 8.835 0 15.998 7.16 15.998 15.998"/><path fill="#578BFA" fill-rule="evenodd" d="M224.297 124.908V99.092c-.196-1-.299-2.034-.299-3.092 0 8.838-7.163 16.002-15.998 16.002 8.835 0 15.998 7.16 15.998 15.998 0-1.058.103-2.092.299-3.092" clip-rule="evenodd"/><path fill="#44C28D" d="M144 20a4 4 0 1 1-8 0 4 4 0 0 1 8 0"/><path fill="#45D9F5" d="M104 44a4 4 0 1 1-8 0 4 4 0 0 1 8 0"/><path fill="#FFFFFF" d="M49 55.874v124.252A4.01 4.01 0 0 1 51.874 183h64.252a4 4 0 0 1 2.874-2.874V95.874a4.002 4.002 0 0 1 0-7.748V0h2v88.126a4.002 4.002 0 0 1 0 7.748v84.252a4 4 0 0 1 2.874 2.874h64.252a4 4 0 0 1 2.874-2.874V55.874a4.002 4.002 0 0 1 0-7.748V0h2v48.126a4.002 4.002 0 0 1 0 7.748v124.252a4.002 4.002 0 0 1-1 7.874 4 4 0 0 1-3.874-3h-64.252a4.002 4.002 0 0 1-7.748 0H51.874A4 4 0 1 1 47 180.126V55.874a4.002 4.002 0 0 1 0-7.748V0h2v48.126a4.002 4.002 0 0 1 0 7.748"/></svg>