<svg xmlns="http://www.w3.org/2000/svg" fill="none" viewBox="0 0 240 242"><path fill="#464B55" d="M36 16.135h168v224H36z"/><path fill="#578BFA" d="M36 16.135h168v-16H36z"/><path fill="#44C28D" d="M156 124c0 19.882-16.118 36-36 36s-36-16.118-36-36 16.118-36 36-36 36 16.118 36 36"/><path fill="#44C28D" d="M147.04 124c0 14.936-12.108 27.043-27.043 27.043-14.936 0-27.044-12.107-27.044-27.043s12.108-27.043 27.044-27.043S147.04 109.064 147.04 124"/><path fill="#0A0B0D" fill-rule="evenodd" d="M119.997 149.043c13.831 0 25.043-11.212 25.043-25.043s-11.212-25.043-25.043-25.043c-13.832 0-25.044 11.212-25.044 25.043s11.212 25.043 25.044 25.043m0 2c14.935 0 27.043-12.107 27.043-27.043s-12.108-27.043-27.043-27.043c-14.936 0-27.044 12.107-27.044 27.043s12.108 27.043 27.044 27.043" clip-rule="evenodd"/><path fill="#45D9F5" d="M72 172c0 19.882-16.118 36-36 36S0 191.882 0 172s16.118-36 36-36 36 16.118 36 36"/><path fill="#578BFA" fill-rule="evenodd" d="M36 208v-72c19.882 0 36 16.118 36 36s-16.118 36-36 36" clip-rule="evenodd"/><path fill="#0A0B0D" fill-rule="evenodd" d="M36 198.135c14.36 0 26-11.641 26-26s-11.64-26-26-26-26 11.64-26 26 11.64 26 26 26m0 2c15.464 0 28-12.536 28-28s-12.536-28-28-28-28 12.536-28 28 12.536 28 28 28" clip-rule="evenodd"/><path fill="#FFFFFF" d="M45 172.135a9 9 0 1 1-18 0 9 9 0 0 1 18 0"/><path fill="#ECD069" d="M240 60c0 19.882-16.118 36-36 36s-36-16.118-36-36 16.118-36 36-36 36 16.118 36 36"/><path fill="#578BFA" fill-rule="evenodd" d="M204 24.135v72c-19.882 0-36-16.118-36-36s16.118-36 36-36" clip-rule="evenodd"/><path fill="#0A0B0D" fill-rule="evenodd" d="M203.997 85.178c13.831 0 25.043-11.212 25.043-25.043S217.828 35.09 203.997 35.09c-13.832 0-25.044 11.213-25.044 25.044 0 13.83 11.212 25.043 25.044 25.043m0 2c14.935 0 27.043-12.108 27.043-27.043 0-14.936-12.108-27.044-27.043-27.044-14.936 0-27.044 12.108-27.044 27.044s12.108 27.043 27.044 27.043" clip-rule="evenodd"/><path fill="#FFFFFF" d="M204.002 78.135c0-9.943-8.059-17.998-18.002-17.998 9.943 0 18.002-8.06 18.002-18.002 0 9.943 8.059 18.002 17.998 18.002-9.939 0-17.998 8.055-17.998 17.998"/><path fill="#0A0B0D" d="M112.002 48.135c0-8.838-7.164-15.999-16.002-15.999 8.838 0 16.002-7.163 16.002-16.001 0 8.838 7.163 16.001 15.998 16.001-8.835 0-15.998 7.16-15.998 15.999m-48 48c0-8.838-7.164-15.999-16.002-15.999 8.838 0 16.002-7.163 16.002-16.001 0 8.838 7.163 16.001 15.998 16.001-8.835 0-15.998 7.16-15.998 15.999"/><path fill="#45D9F5" d="M168 96h72v144h-72z"/><path fill="#578BFA" d="M84 160h72v82H84z"/><path fill="#ECD069" d="M0 208h72v32H0z"/><path fill="#578BFA" d="M168 96.135h36v144h-36zm-132 112h36v32H36z"/><path fill="#0A0B0D" fill-rule="evenodd" d="M240 113.135h-72v-2h72zm0 64h-72v-2h72zm-84 16H84v-2h72zm84-48h-72v-2h72zm0 64h-72v-2h72zm-84 16H84v-2h72zm-84 0H0v-2h72zm168-96h-72v-2h72zm0 64h-72v-2h72zm-84 16H84v-2h72zm84-48h-72v-2h72zm-84 16H84v-2h72zm84 48h-72v-2h72z" clip-rule="evenodd"/><path fill="#0A0B0D" d="M119 125v11h2v-11h11v-2h-11v-11h-2v11h-11v2z"/></svg>