<svg xmlns="http://www.w3.org/2000/svg" fill="none" viewBox="0 0 240 241"><path fill="#44C28D" d="M40 120v32h80v-32z"/><path fill="#464B55" d="M124 60c0-15.464 12.536-28 28-28s28 12.536 28 28-12.536 28-28 28-28-12.536-28-28"/><path fill="#45D9F5" d="M152 88H24V32h128z"/><path fill="#464B55" d="M0 0h56v240H0z"/><path fill="#578BFA" d="M0 32.135h56v56H0z"/><path fill="#FFFFFF" fill-rule="evenodd" d="M16 25H0v-2h16zm0 96H0v-2h16zm0-48H0v-2h16zm0 96H0v-2h16zm0-120H0v-2h16z" clip-rule="evenodd"/><path fill="#FFFFFF" fill-rule="evenodd" d="M16 25H0v-2h16z" clip-rule="evenodd"/><path fill="#578BFA" d="M56 176v64H0v-64z"/><path fill="#FFFFFF" fill-rule="evenodd" d="M16 145H0v-2h16zm0-48H0v-2h16zm0 96H0v-2h16zm0 24H0v-2h16z" clip-rule="evenodd"/><path fill="#578BFA" fill-rule="evenodd" d="M151.976 32H152v56c-15.464 0-28-12.536-28-28 0-15.456 12.523-27.987 27.976-28" clip-rule="evenodd"/><path fill="#FFFFFF" d="M130 60.135c0-12.15 9.85-22 22-22s22 9.85 22 22-9.85 22-22 22-22-9.85-22-22"/><path fill="#FFFFFF" fill-rule="evenodd" d="M152 26c-18.778 0-34 15.222-34 34s15.222 34 34 34 34-15.222 34-34-15.222-34-34-34m0-2c-19.882 0-36 16.118-36 36s16.118 36 36 36 36-16.118 36-36-16.118-36-36-36" clip-rule="evenodd"/><path fill="#464B55" d="M56 176.135v64h152v-64z"/><path fill="#45D9F5" d="M104 136.135c0 8.836 7.163 16 16 16s16-7.164 16-16-7.163-16-16-16-16 7.163-16 16"/><path fill="#ECD069" d="M176 208.135c0 17.673 14.327 32 32 32s32-14.327 32-32-14.327-32-32-32-32 14.327-32 32"/><path fill="#578BFA" fill-rule="evenodd" d="m120 120.136-.2-.001c-8.836 0-16 7.163-16 16 0 8.81 7.121 15.957 15.921 16h.159l.12-.001zm88 56.136q-.197-.002-.395-.002c-17.455 0-31.605 14.296-31.605 31.932 0 17.583 14.065 31.847 31.448 31.933h.314l.238-.002z" clip-rule="evenodd"/><path fill="#0A0B0D" fill-rule="evenodd" d="M120 146c-5.523 0-10-4.477-10-10s4.477-10 10-10 10 4.477 10 10-4.477 10-10 10m0 2c-6.627 0-12-5.373-12-12s5.373-12 12-12 12 5.373 12 12-5.373 12-12 12m88 82c-12.15 0-22-9.85-22-22s9.85-22 22-22 22 9.85 22 22-9.85 22-22 22m0 2c-13.255 0-24-10.745-24-24s10.745-24 24-24 24 10.745 24 24-10.745 24-24 24" clip-rule="evenodd"/><path fill="#45D9F5" d="M224.002 32c0-8.838-7.164-15.998-16.002-15.998 8.838 0 16.002-7.164 16.002-16.002 0 8.838 7.163 16.002 15.998 16.002-8.835 0-15.998 7.16-15.998 15.998"/><path fill="#ECD069" d="M72 112a8 8 0 0 0-8-7.999A8 8 0 0 0 72 96a8 8 0 0 0 8 8.001A8 8 0 0 0 72 112"/><path fill="#44C28D" d="M192.002 160c0-8.838-7.164-15.998-16.002-15.998 8.838 0 16.002-7.164 16.002-16.002 0 8.838 7.163 16.002 15.998 16.002-8.835 0-15.998 7.16-15.998 15.998"/><path fill="#0A0B0D" fill-rule="evenodd" d="M151 42h2v18.125l15.773 19.241-1.546 1.268L151 60.84z" clip-rule="evenodd"/></svg>