<svg xmlns="http://www.w3.org/2000/svg" fill="none" viewBox="0 0 240 241"><path fill="#44C28D" d="M64 104h112v136H64z"/><path fill="#464B55" d="M64 0h16v104H64z"/><path fill="#0A0B0D" fill-rule="evenodd" d="M73 40v40h-2V40z" clip-rule="evenodd"/><path fill="#464B55" d="M160 0h16v104h-16zM96 0h48v104H96z"/><path fill="#0A0B0D" fill-rule="evenodd" d="M81 16v56h-2V16zm24 8v32h-2V24zm16-16v48.5h-2V8zm8 16.5v32h-2v-32zm40 7.5v56.5h-2V32z" clip-rule="evenodd"/><path fill="#464B55" fill-rule="evenodd" d="m236.582 184-23.293 23.293 1.414 1.414L239.41 184l-24.707-24.707-1.414 1.414zM3.418 184l23.293 23.293-1.414 1.414L.59 184l24.707-24.707 1.414 1.414z" clip-rule="evenodd"/><path fill="#0A0B0D" fill-rule="evenodd" d="M176 200.23v31.54l-.002.23c0-8.838-7.163-15.998-15.998-15.998 8.835 0 15.998-7.164 15.998-16.002z" clip-rule="evenodd"/><path fill="#578BFA" fill-rule="evenodd" d="M64 190.23v31.54l.002.23c0-8.838 7.163-15.998 15.998-15.998-8.835 0-15.998-7.164-15.998-16.002z" clip-rule="evenodd"/><path fill="#464B55" fill-rule="evenodd" d="M151 149v-5h2v5zm0 15v-5h2v5c0 1.27.125 2.51.362 3.709l-1.962.388A21 21 0 0 1 151 164m9.331 17.462a21.1 21.1 0 0 1-5.793-5.793l1.662-1.113a19.1 19.1 0 0 0 5.244 5.244zM172 185c-1.401 0-2.771-.137-4.097-.4l.388-1.962c1.199.237 2.439.362 3.709.362h4.062v2zm20.312 0h-8.124v-2h8.124zm16.25 0h-8.124v-2h8.124zm16.25 0h-8.124v-2h8.124zM237 185h-4.062v-2H237zM89 149v-5h-2v5zm0 15v-5h-2v5c0 1.27-.124 2.51-.362 3.709l1.962.388c.263-1.326.4-2.696.4-4.097m-9.331 17.462a21.1 21.1 0 0 0 5.793-5.793l-1.662-1.113a19.1 19.1 0 0 1-5.244 5.244zM68 185c1.401 0 2.771-.137 4.097-.4l-.388-1.962A19 19 0 0 1 68 183h-4.062v2zm-20.312 0h8.124v-2h-8.124zm-16.25 0h8.125v-2h-8.126zm-16.25 0h8.124v-2h-8.125zM3 185h4.063v-2H3z" clip-rule="evenodd"/><path fill="#44C28D" fill-rule="evenodd" d="M64 104h112v96.23l-.002-.23c0 8.838-7.163 16.002-15.998 16.002 8.835 0 15.998 7.16 15.998 15.998l.002-.23V240H64v-18.23l.002.23c0-8.838 7.163-15.998 15.998-15.998-8.835 0-15.998-7.164-15.998-16.002l-.002.23zm0 86.23c-.123 8.732-7.239 15.772-16 15.772 8.761 0 15.877 7.036 16 15.768zm112 41.54c.123-8.732 7.239-15.768 16-15.768-8.761 0-15.877-7.04-16-15.772z" clip-rule="evenodd"/><path fill="#0A0B0D" d="M176 183v2h-4c-1.401 0-2.771-.137-4.097-.4l.388-1.962c1.199.237 2.439.362 3.709.362zm-25-39v5h2v-5zm0 15v5c0 1.401.137 2.771.4 4.097l1.962-.388A19 19 0 0 1 153 164v-5zm3.538 16.669a21.1 21.1 0 0 0 5.793 5.793l1.113-1.662a19.1 19.1 0 0 1-5.244-5.244zM64 185v-2h4c1.27 0 2.51-.125 3.71-.362l.387 1.962c-1.326.263-2.696.4-4.097.4zm25-41v5h-2v-5zm0 15v5c0 1.401-.137 2.771-.4 4.097l-1.962-.388c.237-1.199.362-2.439.362-3.709v-5zm-3.538 16.669a21.1 21.1 0 0 1-5.793 5.793l-1.113-1.662a19.1 19.1 0 0 0 5.244-5.244zM121 236.582l22.289-22.289 1.414 1.414-24.707 24.707-24.707-24.707 1.414-1.414L119 236.59V160h2z"/><path fill="#ECD069" d="M120 160c30.928 0 56-25.072 56-56s-25.072-56-56-56-56 25.072-56 56 25.072 56 56 56"/><path fill="#0A0B0D" fill-rule="evenodd" d="M120.001 61.444c-23.503 0-42.556 19.053-42.556 42.556h-2c0-24.607 19.949-44.556 44.556-44.556S164.556 79.392 164.556 104h-2c0-23.503-19.052-42.556-42.555-42.556m-.002 85.112c23.503 0 42.556-19.053 42.556-42.556h2c0 24.607-19.949 44.556-44.556 44.556S75.444 128.607 75.444 104h2c0 23.503 19.052 42.556 42.555 42.556" clip-rule="evenodd"/><path fill="#0A0B0D" d="M122.238 111.655h-4.258L115.852 81h8.515zm-2.129 15.327a5.109 5.109 0 1 0 .001-10.217 5.109 5.109 0 0 0-.001 10.217"/><path fill="#FFFFFF" fill-rule="evenodd" d="m232.78 80.625-32 40-1.561-1.25 32-40z" clip-rule="evenodd"/><path fill="#ECD069" d="M208 120a8 8 0 1 1-16 0 8 8 0 0 1 16 0"/><path fill="#FFFFFF" fill-rule="evenodd" d="m8.828 88.56 32.5-48-1.656-1.12-32.5 48z" clip-rule="evenodd"/><path fill="#FFFFFF" fill-rule="evenodd" d="m6.646 88.522 24.5 40 1.706-1.044-24.5-40z" clip-rule="evenodd"/><path fill="#44C28D" d="M0 88a8 8 0 1 0 16 0 8 8 0 0 0-16 0"/><path fill="#FFFFFF" fill-rule="evenodd" d="m200.828 31.445 32 48-1.664 1.11-32-48z" clip-rule="evenodd"/><path fill="#578BFA" d="M240 80a8 8 0 1 1-16 0 8 8 0 0 1 16 0"/><path fill="#FFFFFF" fill-rule="evenodd" d="m32.992 128.091 8-88L39 39.91l-8 88z" clip-rule="evenodd"/><path fill="#ECD069" d="M32 40a8 8 0 1 0 16 0 8 8 0 0 0-16 0"/><path fill="#578BFA" d="M24 128a8 8 0 1 0 16 0 8 8 0 0 0-16 0"/><path fill="#FFFFFF" fill-rule="evenodd" d="M201 32v48.5h-2V32z" clip-rule="evenodd"/><path fill="#44C28D" d="M208 32a8 8 0 1 1-16 0 8 8 0 0 1 16 0"/><path fill="#464B55" d="M208 80a8 8 0 1 1-16 0 8 8 0 0 1 16 0"/></svg>