<svg xmlns="http://www.w3.org/2000/svg" fill="none" viewBox="0 0 240 240"><path fill="#464B55" d="M208 56H0v124h224v-12H80v-16h160v-48H80V88h128z"/><path fill="#464B55" d="M136 68H24v156h112z"/><path fill="#578BFA" d="M136 56H24v124h112z"/><path fill="#ECD069" fill-rule="evenodd" d="M80 12 24 56h112zm0 30c3.3 0 6-2.7 6-6s-2.7-6-6-6-6 2.7-6 6 2.7 6 6 6" clip-rule="evenodd"/><path fill="#FFFFFF" fill-rule="evenodd" d="M79 36V0h2v36z" clip-rule="evenodd"/><path fill="#FFFFFF" d="M80 72c-26.5 0-48 21.5-48 48s21.5 48 48 48 48-21.5 48-48-21.5-48-48-48"/><path fill="#ECD069" d="M80 72v96c26.52 0 48-21.48 48-48s-21.48-48-48-48"/><path fill="#45D9F5" d="M80 88c-17.7 0-32 14.3-32 32s14.3 32 32 32 32-14.3 32-32-14.3-32-32-32"/><path fill="#578BFA" d="M80 88v64c17.7 0 32-14.3 32-32S97.7 88 80 88"/><path fill="#0A0B0D" d="M24 181h112v-2H24zm0 12h112v-2H24zm112 12H24v-2h112zM24 217h112v-2H24z"/><path fill="#0A0B0D" fill-rule="evenodd" d="m63.297 135.293 32-32 1.414 1.414-32 32zM70 105a5 5 0 1 0 0 10 5 5 0 0 0 0-10m-7 5a7 7 0 1 1 14 0 7 7 0 0 1-14 0m27 15a5 5 0 1 0 0 10 5 5 0 0 0 0-10m-7 5a7 7 0 1 1 14 0 7 7 0 0 1-14 0" clip-rule="evenodd"/><path fill="#ECD069" d="M223.998 240c0-8.838 7.164-15.998 16.002-15.998-8.838 0-16.002-7.164-16.002-16.002 0 8.838-7.163 16.002-15.998 16.002 8.835 0 15.998 7.16 15.998 15.998m-48-168c0-8.838 7.164-15.998 16.002-15.998-8.838 0-16.002-7.164-16.002-16.002 0 8.838-7.163 16.002-15.998 16.002 8.835 0 15.998 7.16 15.998 15.998"/><path fill="#578BFA" fill-rule="evenodd" d="M192 56.002c-8.838 0-16.002 7.16-16.002 15.998 0-8.838-7.163-15.998-15.998-15.998l.23-.002h31.54z" clip-rule="evenodd"/></svg>