<svg xmlns="http://www.w3.org/2000/svg" fill="none" viewBox="0 0 240 240"><path fill="#F0616D" d="M192 48a24 24 0 1 1-48 0 24 24 0 0 1 48 0Z"/><path fill="#464B55" d="M64 80a56 56 0 0 1 112 0v96H64V80Z"/><path fill="#464B55" d="M136 16a16 16 0 1 1-32 0 16 16 0 0 1 32 0Z"/><path fill="#0A0B0D" fill-rule="evenodd" d="M120.5 41A40.5 40.5 0 0 0 80 81.5v7h-2v-7A42.5 42.5 0 0 1 120.5 39v2Z" clip-rule="evenodd"/><path fill="#464B55" d="M32 166a30 30 0 0 1 30-30h116a30 30 0 0 1 30 30v10H32v-10Z"/><path fill="#ECD069" d="M120 200a24 24 0 0 0 24-24H96a24 24 0 0 0 24 24Z"/><path fill="#FFFFFF" fill-rule="evenodd" d="M121 216v24h-2v-24h2Zm20.87-6.5 12 20.78-1.74 1-12-20.78 1.74-1Zm12.63-13.37 20.78 12-1 1.74-20.78-12 1-1.74Zm-69 0-20.78 12 1 1.74 20.78-12-1-1.74Zm12.64 13.37-12 20.78 1.73 1 12-20.78-1.73-1Z" clip-rule="evenodd"/><path fill="#588AF5" fill-rule="evenodd" d="M64 176h112v-40H64v40Z" clip-rule="evenodd"/><path fill="#0A0B0D" fill-rule="evenodd" d="M149.68 32.5a56.03 56.03 0 0 1 25.58 38.38 24 24 0 0 1-25.59-38.38ZM160 121H80v-2h80v2Z" clip-rule="evenodd"/></svg>