<svg xmlns="http://www.w3.org/2000/svg" fill="none" viewBox="0 0 240 240"><path fill="#464B55" d="M208 32H32v208h176z"/><path fill="#578BFA" d="M192 32H48v184h144z"/><path fill="#0A0B0D" fill-rule="evenodd" d="M79 127h82v50H79zm2 2v46h78v-46z" clip-rule="evenodd"/><path fill="#0A0B0D" fill-rule="evenodd" d="M160 145H80v-2h80zm0 8H80v-2h80zm0 8H80v-2h80zm0 8H80v-2h80z" clip-rule="evenodd"/><path fill="#0A0B0D" fill-rule="evenodd" d="M65 191V32h-2v161h114V32h-2v159z" clip-rule="evenodd"/><path fill="#464B55" fill-rule="evenodd" d="M176 16h-40c0-8.837-7.163-16-16-16s-16 7.163-16 16H64c-8.84 0-16 7.16-16 16h144c0-8.84-7.16-16-16-16m-48 0a8 8 0 1 1-16 0 8 8 0 0 1 16 0" clip-rule="evenodd"/><path fill="#0A0B0D" fill-rule="evenodd" d="M79 55h50v10H79zm2 2v6h46v-6zm-1 22h80v2H80zm0 8h80v2H80zm0 8h80v2H80zm0 8h80v2H80zm0 8h66.67v2H80z" clip-rule="evenodd"/><path fill="#44C28D" d="M120 226c23.196 0 42-18.804 42-42s-18.804-42-42-42-42 18.804-42 42 18.804 42 42 42"/><path fill="#FFFFFF" d="M120 144c22.09 0 40 17.91 40 40s-17.91 40-40 40-40-17.91-40-40 17.91-40 40-40m0-4c-24.26 0-44 19.74-44 44s19.74 44 44 44 44-19.74 44-44-19.74-44-44-44"/><path fill="#0A0B0D" fill-rule="evenodd" d="m137.525 174.29-22.029 23.134-11.394-11.16 1.399-1.428 9.945 9.74 20.631-21.666z" clip-rule="evenodd"/></svg>