<svg xmlns="http://www.w3.org/2000/svg" fill="none" viewBox="0 0 240 240"><path fill="#464B55" d="M240 0H48v156h192V0Z"/><path fill="#588AF5" d="m144 60.8-96-48V0h192v12.8l-96 48Z"/><path fill="#ECD069" fill-rule="evenodd" d="M10 84h172a10 10 0 0 1 10 10v116a10 10 0 0 1-10 10h-66l-20 20-20-20H10a10 10 0 0 1-10-10V94a10 10 0 0 1 10-10Z" clip-rule="evenodd"/><path fill="#588AF5" d="M183.62 84H48v72h144V92.38a8.4 8.4 0 0 0-8.38-8.38Z"/><path fill="#464B55" d="M48 128v28h28a28 28 0 0 0-28-28Z"/><path fill="#FFFFFF" d="M48 156v-28a28 28 0 1 0 28 28H48Zm72-64a28 28 0 1 0 0 56 28 28 0 0 0 0-56Z"/><path fill="#0A0B0D" fill-rule="evenodd" d="m136.7 108.7-23.2 23.21-9.46-9.45 1.41-1.42 8.05 8.05 21.79-21.8 1.41 1.42Z" clip-rule="evenodd"/><path fill="#FFFFFF" d="M192 112a28 28 0 1 0 0-56 28 28 0 0 0 0 56Z"/><path fill="#ECD069" d="M182 84h-18a28 28 0 0 0 28 28V94a10 10 0 0 0-10-10Z"/></svg>