<svg xmlns="http://www.w3.org/2000/svg" fill="none" viewBox="0 0 240 241"><path fill="#464B55" d="M180 96H60v56h120z"/><path fill="#578BFA" d="m92 240 .1-148c1-15.6 14-28 29.9-28s28.9 12.4 29.9 28l.1 88c0 32.8-26.9 60-60 60"/><path fill="#464B55" d="M208 0h-88v56h88z"/><path fill="#45D9F5" d="m60 240-.1-148c-1-15.6-14-28-29.9-28S1.1 76.4.1 92L0 180c0 32.8 26.9 60 60 60M4 28c0 15.5 12.5 28 28 28s28-12.5 28-28m0 0C60 12.5 47.5 0 32 0S4 12.5 4 28"/><path fill="#44C28D" d="m180 240 .1-148c1-15.6 14-28 29.9-28s28.9 12.4 29.9 28l.1 88c0 32.8-26.9 60-60 60"/><path fill="#464B55" d="m60 180 120 .1V240H60z"/><path fill="#578BFA" d="M15.4 220c.1.1.1.2.2.2.4.5.9.9 1.3 1.4.3.3.5.5.7.8l.8.8 1.3 1.3c.1.1.2.1.3.2 9.9 8.9 22.8 14.6 36.9 15.3 1 .1 2 .1 3.1.1v-60H0c0 1 0 2 .1 3.1.7 13.9 6.4 26.8 15.3 36.8M208 56c-15.5 0-28-12.5-28-28s12.5-28 28-28"/><path fill="#44C28D" d="M208 0c15.5 0 28 12.5 28 28s-12.5 28-28 28"/><path fill="#0A0B0D" d="M92 152h59.9V96H92z"/><path fill="#578BFA" d="M120 56c-15.5 0-28-12.5-28-28s12.5-28 28-28"/><path fill="#0A0B0D" d="M120 0c15.5 0 28 12.5 28 28s-12.5 28-28 28"/><path fill="#578BFA" d="M60 152c-15.5 0-28-12.5-28-28s12.5-28 28-28"/><path fill="#0A0B0D" d="M180 180c16.6 0 30 13.4 30 30s-13.4 30-30 30"/><path fill="#464B55" d="M180 240c-16.6 0-30-13.4-30-30s13.4-30 30-30"/><path fill="#0A0B0D" fill-rule="evenodd" d="M180 125H80v-2h100zm-36 88H60v-2h84zm-98.586-89 7.293-7.293-1.414-1.414L42.586 124l8.707 8.707 1.414-1.414z" clip-rule="evenodd"/><path fill="#0A0B0D" fill-rule="evenodd" d="M96 125H44v-2h52zm66.582 87-7.293-7.293 1.414-1.414L165.41 212l-8.707 8.707-1.414-1.414z" clip-rule="evenodd"/><path fill="#0A0B0D" fill-rule="evenodd" d="M112 211h52v2h-52z" clip-rule="evenodd"/></svg>