<svg xmlns="http://www.w3.org/2000/svg" fill="none" viewBox="0 0 240 240"><path fill="#45DAF6" d="M48 216.002h144v-192H48v192Z"/><path fill="#588AF5" d="M48 24h144V0H48v24Zm0 216h144v-24H48v24Z"/><path fill="#464B55" d="M216 0h-24v24h48v-8h-24V0ZM0 0v16h24v8h24V0H0Zm0 216v16h24v8h24v-24H0Z"/><path fill="#0A0B0D" d="M120 14a2 2 0 1 0 0-4 2 2 0 0 0 0 4Zm8 212h-16v4h16v-4Z"/><path fill="#464B55" d="M240 224h-24v-8h-24v24h48v-16Z"/><path fill="#ECD069" d="M158.545 120c0 21.288-17.257 38.545-38.545 38.545S81.454 141.288 81.454 120 98.712 81.455 120 81.455 158.545 98.712 158.545 120Z"/><path fill="#FFFFFF" fill-rule="evenodd" d="M120 154.545c19.079 0 34.545-15.466 34.545-34.545S139.079 85.455 120 85.455 85.454 100.92 85.454 120s15.467 34.545 34.546 34.545Zm0 4c21.288 0 38.545-17.257 38.545-38.545S141.288 81.455 120 81.455 81.454 98.712 81.454 120 98.712 158.545 120 158.545Z" clip-rule="evenodd"/><path fill="#0A0B0D" d="M116.904 134.686v6.405h6.309v-6.405h-6.309Zm-9.264-21.928h4.831c0-1.346.151-2.597.455-3.751.303-1.154.776-2.154 1.42-3a7.57 7.57 0 0 1 2.501-2.02c.985-.5 2.16-.75 3.524-.75 2.046 0 3.657.596 4.831 1.789 1.213 1.192 1.895 2.846 2.046 4.962.076 1.424-.094 2.635-.511 3.636-.417 1-.985 1.923-1.705 2.769a26.293 26.293 0 0 1-2.274 2.366 28.112 28.112 0 0 0-2.33 2.424 14.263 14.263 0 0 0-1.876 3.058c-.492 1.116-.776 2.482-.852 4.097v2.712h4.831v-2.25c0-1 .132-1.885.398-2.655a9.971 9.971 0 0 1 1.136-2.192 15.58 15.58 0 0 1 1.592-1.905 78.004 78.004 0 0 1 1.819-1.788 41.787 41.787 0 0 0 1.761-1.905 12.401 12.401 0 0 0 1.592-2.135c.455-.769.815-1.615 1.08-2.539.303-.961.454-2.039.454-3.231 0-1.847-.303-3.482-.909-4.905-.568-1.423-1.383-2.616-2.444-3.578-1.061-1-2.33-1.75-3.808-2.25-1.44-.539-3.05-.808-4.831-.808-1.97 0-3.751.346-5.343 1.039a11.128 11.128 0 0 0-4.035 2.943c-1.099 1.231-1.951 2.693-2.557 4.385-.569 1.693-.834 3.52-.796 5.482Z"/></svg>