<svg xmlns="http://www.w3.org/2000/svg" fill="none" viewBox="0 0 240 245"><path fill="#FFFFFF" fill-rule="evenodd" d="m171.561 190.342-7.01 3.51-.915-1.827 7.027-3.518a19.727 19.727 0 0 1 21.975 3.216l1.045.961-19.233 10.585-2.63 1.447-39.036 21.474-.984-1.79 39.035-21.474 2.63-1.446 16.69-9.186a17.687 17.687 0 0 0-18.594-1.952Z" clip-rule="evenodd"/><path fill="#FFFFFF" fill-rule="evenodd" d="M190.717 210.424a18.068 18.068 0 0 0-16.625-7.036l-.251-2.027a20.11 20.11 0 0 1 19.431 9.164l.772 1.211-61.508 14.544-.47-1.988 58.651-13.868Z" clip-rule="evenodd"/><path fill="#FFFFFF" fill-rule="evenodd" d="m162.45 177.973-13.83 12.839-1.39-1.497 13.831-12.839a19.75 19.75 0 0 1 22.002-3.32l1.285.618-18.233 18.561-1 1.013v.008l-32.085 32.646-1.457-1.432 31.5-32.049v-.01l1.586-1.609 16.189-16.48a17.71 17.71 0 0 0-18.398 3.551Zm-27.034-19.423-.132 1.536a22.272 22.272 0 0 1-14.066 18.863l-21.317 8.347 30.147 11.341-5.098 9.918-24.2-9.101c-25.545-9.605-54.288.541-68.143 24.052a.173.173 0 0 1-.008.014l-1.76-1.036v-.002l.007-.01 5.98-10.152a82.104 82.104 0 0 1 42.12-35.26 63.75 63.75 0 0 1 3.13-1.098l53.34-17.412Zm-94.78 51.517a80.042 80.042 0 0 1 39.027-31.094l.01-.004a61.09 61.09 0 0 1 3.034-1.065h.002l50.347-16.435a20.21 20.21 0 0 1-12.583 15.578l-26.272 10.287 32.983 12.408-3.219 6.261-22.496-8.461c-21.416-8.052-45.002-2.71-60.833 12.525Z" clip-rule="evenodd"/><path fill="#FFFFFF" fill-rule="evenodd" d="m138.624 181.94-9.09 17.716-4.575 8.899-24.2-9.101c-25.541-9.598-54.29.545-68.151 24.067l-12.594 21.365-1.76-1.038 12.594-21.364c14.365-24.377 44.16-34.889 70.63-24.942l22.497 8.46 3.742-7.279 9.09-17.716c3.638-7.084 11.365-11.096 19.264-10.009l1.345.186-8.558 19.293-13.093 29.535-2.79 6.304H78.399l-10.941 18.569-1.76-1.037 11.534-19.574h54.413l2.252-5.088 13.094-29.537 7.433-16.759c-6.552-.361-12.77 3.149-15.8 9.05Z" clip-rule="evenodd"/><path fill="#464B55" d="M180 60h60v60h-60V60Z"/><path fill="#0A0B0D" d="M180 70v-2h60v2h-60Zm0 14v-2h60v2h-60Zm0 14v-2h60v2h-60Zm0 14v-2h60v2h-60Z"/><path fill="#44C28D" fill-rule="evenodd" d="M179.991 120c-.542-33.24-27.186-60-59.991-60h60v60h-.009Z" clip-rule="evenodd"/><path fill="#ECD069" fill-rule="evenodd" d="M120 60H60v60h.009C60.552 86.788 87.187 60.044 120 60Z" clip-rule="evenodd"/><path fill="#ECD069" d="M180 60h-60V0h60v60Z"/><path fill="#44C28D" d="M0 120h60V0H0v120Z"/><path fill="#588AF5" d="M180.766 59.234H240V0h-59.234v59.234Z"/><path fill="#0A0B0D" d="M180 60h60V0h-60v60Z"/><path fill="#FFFFFF" d="M0 60C0 26.855 26.855 0 60 0v60H0Z"/><path fill="#0A0B0D" fill-rule="evenodd" d="M60 25c-19.334 0-35 15.665-35 35h-2c0-20.44 16.561-37 37-37v2Z" clip-rule="evenodd"/><path fill="#0A0B0D" fill-rule="evenodd" d="M60 13c-25.963 0-47 21.036-47 47h-2c0-27.069 21.932-49 49-49v2Zm0 24c-12.706 0-23 10.294-23 23h-2c0-13.81 11.19-25 25-25v2Z" clip-rule="evenodd"/><path fill="#464B55" d="M60.256 60c0 33.286-26.97 60.255-60.256 60.255V60h60.256Z"/><path fill="#588AF5" d="M240 60c0-33.145-26.855-60-60-60v60h60Z"/><path fill="#0A0B0D" d="M60 60h60V0H60v60Z"/><path fill="#FFFFFF" d="M180 60h-60l60-60v60Z"/><path fill="#464B55" fill-rule="evenodd" d="M174.638 119.999h-110c.001-30.375 24.625-55 55.001-55 30.375 0 54.999 24.625 54.999 55Z" clip-rule="evenodd"/><path fill="#588AF5" d="M118.99 88v32H87c0-17.664 14.32-32 31.99-32Z"/><path fill="#588AF5" d="M118.989 88c17.69 0 32.01 14.336 32.01 32h-32.01V88Z"/><path fill="#ECD069" d="M87 119.999h64c0 17.664-14.32 32-32.01 32-17.67 0-31.99-14.336-31.99-32Z"/><path fill="#0A0B0D" fill-rule="evenodd" d="M119.01 97.455c-12.449 0-22.552 10.1-22.552 22.545h-2c0-13.55 10.999-24.545 24.552-24.545v2ZM96.458 120c0 12.444 10.103 22.544 22.552 22.544s22.552-10.1 22.552-22.544h2c0 13.549-10.999 24.544-24.552 24.544-13.553 0-24.552-10.995-24.552-24.544h2Zm45.104 0c0-12.445-10.103-22.545-22.552-22.545v-2c13.553 0 24.552 10.995 24.552 24.545h-2Z" clip-rule="evenodd"/></svg>