<svg xmlns="http://www.w3.org/2000/svg" fill="none" viewBox="0 0 240 240"><path stroke="#44C28D" stroke-width="24" d="M120.003 28.808c-.069 33.096-18.497 97.668-91.667 91.192"/><path fill="#464B55" fill-rule="evenodd" d="M120 224c57.438 0 104-46.562 104-104S177.438 16 120 16 16 62.562 16 120s46.562 104 104 104m0-24c44.183 0 80-35.817 80-80s-35.817-80-80-80-80 35.817-80 80 35.817 80 80 80" clip-rule="evenodd"/><path stroke="#44C28D" stroke-width="24" d="M119.997 212.385c-.814-27.608 9.422-97.537 64.112-156.385"/><path fill="#464B55" fill-rule="evenodd" d="M47.055 64.17c52.072 56.03 61.651 122.637 60.907 147.861l23.99.707c.884-29.992-10.009-103.242-67.317-164.907z" clip-rule="evenodd"/><path fill="#578BFA" d="M119.979 141.747c-8.742 26.471-11.732 49.845-12.001 65.319.032 1.586.03 3.066-.001 4.431l.01.535 11.992.353 11.992-.353.01-.535a104 104 0 0 1-.001-4.431c-.269-15.474-3.259-38.848-12.001-65.319m-34.516-21.38a232 232 0 0 0-11.58-21.039c7.381-4.513 13.173-10.374 17.76-16.818a255 255 0 0 1 12.859 22.246c-5.414 5.967-11.736 11.276-19.039 15.611"/><path fill="#0A0B0D" fill-rule="evenodd" d="M100.76 88.666c13.611-19.256 18.203-43.453 18.237-59.86l2 .004c-.034 16.69-4.69 41.326-18.604 61.01-13.961 19.754-37.201 34.447-74.15 31.176l.176-1.992c36.22 3.206 58.779-11.15 72.341-30.338m84.081-31.986c-54.471 58.614-64.653 128.266-63.845 155.675l-1.999.059c-.82-27.806 9.471-98.012 64.379-157.095z" clip-rule="evenodd"/><path fill="#0A0B0D" fill-rule="evenodd" d="M212 120c0-50.81-41.19-92-92-92v-2c51.915 0 94 42.085 94 94z" clip-rule="evenodd"/><circle cx="120" cy="28" r="12" fill="#FFFFFF"/><path fill="#FFFFFF" d="M136 0a16 16 0 0 1-16 16 16 16 0 0 1-16-16zm-32 240c0-4.243 1.686-8.313 4.686-11.314a16.004 16.004 0 0 1 22.628 0c3 3.001 4.686 7.071 4.686 11.314zm136-104a16 16 0 0 1-11.314-4.686 16.004 16.004 0 0 1 0-22.628c3.001-3 7.071-4.686 11.314-4.686zM0 104a16 16 0 0 1 16 16 16 16 0 0 1-16 16z"/><path fill="#45D9F5" d="M216.166 46.46a15.998 15.998 0 0 1-27.313-11.313c0-4.243 1.685-8.313 4.686-11.313zM23.834 193.539a16 16 0 0 1 22.627 0 16 16 0 0 1 0 22.628z"/><path fill="#44C28D" d="M193.537 216.166a15.997 15.997 0 0 1 0-22.627 15.996 15.996 0 0 1 22.627 0zM46.463 23.834A16 16 0 0 1 23.836 46.46z"/><circle cx="212" cy="120" r="12" fill="#FFFFFF" transform="rotate(90 212 120)"/><circle cx="185.06" cy="54.95" r="12" fill="#578BFA" transform="rotate(45 185.055 54.946)"/><circle cx="185.05" cy="185.05" r="12" fill="#578BFA" transform="rotate(135 185.053 185.054)"/><circle cx="54.94" cy="54.95" r="12" fill="#578BFA" transform="rotate(135 54.944 54.946)"/><path fill="#0A0B0D" fill-rule="evenodd" d="M28 120c0 50.81 41.19 92 92 92v2c-51.915 0-94-42.085-94-94z" clip-rule="evenodd"/><circle cx="54.95" cy="185.05" r="12" fill="#578BFA" transform="rotate(45 54.945 185.054)"/><circle cx="120" cy="212" r="12" fill="#FFFFFF"/><circle cx="28" cy="120" r="12" fill="#FFFFFF" transform="rotate(90 28 120)"/></svg>