<svg xmlns="http://www.w3.org/2000/svg" fill="none" viewBox="0 0 240 240"><path fill="#464B55" d="M80 108.83h80V240H80z"/><path stroke="#FFFFFF" stroke-linecap="square" stroke-width="2" d="M200 120.227c0 44.183-35.817 80-80 80m56-137.132c-14.43-14.146-34.196-22.868-56-22.868-44.183 0-80 35.817-80 80 0 22.379 9.19 42.612 24 57.131"/><path stroke="#FFFFFF" stroke-linecap="square" stroke-width="2" d="M120 64.227c30.928 0 56 25.072 56 56s-25.072 56-56 56-56-25.072-56-56C64 104.44 70.532 90.18 81.041 80"/><path fill="#45D9F5" d="M224.998 30.227c0-8.286 6.716-14.999 15.002-14.999-8.286 0-15.002-6.716-15.002-15.001 0 8.285-6.715 15.001-14.998 15.001 8.283 0 14.998 6.713 14.998 14.999M14.999 240c0-8.286 6.715-14.998 15.001-14.998-8.286 0-15.001-6.716-15.001-15.002 0 8.286-6.716 15.002-14.999 15.002 8.283 0 14.999 6.712 14.999 14.998"/><path stroke="#FFFFFF" stroke-linecap="square" stroke-width="2" d="M120 41.127V64m0 113.126V200m-55.828-22.426-16.174 16.174"/><path stroke="#FFFFFF" stroke-width="2" d="M40 120H16"/><path stroke="#FFFFFF" stroke-linecap="square" stroke-width="2" d="M200 120h-24"/><path fill="#ECD069" d="m225.068 216.189-26.796-27.05-11.314 11.313 26.743 26.997a8 8 0 0 0 11.367-11.26"/><path fill="#ECD069" fill-rule="evenodd" d="M16 120c0 57.438 46.562 104 104 104s104-46.562 104-104S177.438 16 120 16 16 62.562 16 120m8 0c0 53.019 42.98 96 96 96 53.019 0 96-42.981 96-96 0-53.02-42.981-96-96-96-53.02 0-96 42.98-96 96" clip-rule="evenodd"/><path fill="#578BFA" fill-rule="evenodd" d="M160 216.456v-8.789c-12.191 5.542-25.735 8.63-40 8.63s-27.809-3.088-40-8.63v8.789c12.326 5.093 25.835 7.903 40 7.903s27.674-2.81 40-7.903" clip-rule="evenodd"/><path fill="#45D9F5" d="M120.006 152 160 108.809 144.562 88H95.438L80 108.809 119.994 152z"/><path fill="#578BFA" fill-rule="evenodd" d="m113.393 88-7.791 20.809L120 151.987v.002-.001l.004.012 14.403-43.191-7.789-20.804v-.003h-.001l-.001-.002v.002h-13.222l1.23 11.922zm11.268 18.924L120.004 152l-.002-.025z" clip-rule="evenodd"/><path fill="#578BFA" fill-rule="evenodd" d="M159.99 108.823 120.009 152h-.012l-39.981-43.177z" clip-rule="evenodd"/><path fill="#FFFFFF" fill-rule="evenodd" d="M134.406 108.823h-9.938L120.007 152l-.002-.025 4.463-43.152h-18.859l14.394 43.164v.002-.001l.004.012z" clip-rule="evenodd"/></svg>