<svg xmlns="http://www.w3.org/2000/svg" fill="none" viewBox="0 0 240 240"><path fill="#ECD069" d="M224 68c-6.6 0-12 5.4-12 12 0-6.6-5.4-12-12-12 6.6 0 12-5.4 12-12 0 6.6 5.4 12 12 12Z"/><path fill="#464B55" d="M24 35.94a12 12 0 0 0-12 11.94A12 12 0 0 0 0 35.94 12 12 0 0 0 12 24a12 12 0 0 0 12 11.94Z"/><path fill="#588AF5" fill-rule="evenodd" d="M59.32 99.31a16 16 0 0 0 0-22.62L48 87.99 36.69 99.32a16 16 0 0 0 22.63 0Z" clip-rule="evenodd"/><path fill="#44C28D" d="M59.31 76.69 36.7 99.3a16 16 0 0 1 22.6-22.6Z"/><path fill="#45DAF6" fill-rule="evenodd" d="M180 24a12 12 0 1 0 0 24 12 12 0 1 0 0-24Z" clip-rule="evenodd"/><path fill="#0A0B0D" fill-rule="evenodd" d="M179 37v5h2v-5h5v-2h-5v-5h-2v5h-5v2h5Z" clip-rule="evenodd"/><path fill="#464B55" d="m200 120 20 12.62v47.78L200 168v-48ZM0 160l20 12.62v47.78L0 208v-48Z"/><path fill="#ECD069" d="M88 216c-4.4 0-8 3.6-8 8 0-4.4-3.6-8-8-8 4.4 0 8-3.6 8-8 0 4.4 3.6 8 8 8Zm152-96-20 12.61v47.83l20-12.4V120Z"/><path fill="#588AF5" d="m240 119.98-20-12.5-20 12.5 20 12.6 20-12.6Z"/><path fill="#464B55" d="m240 168-20-12.5-20 12.5 20 12.61 20-12.6Z"/><path fill="#588AF5" d="M220 155.5v25.11l-20-12.6 20-12.5Z"/><path fill="#FFFFFF" fill-rule="evenodd" d="M221 88v32.04h-2V88h2Zm0 79.96V200h-2v-32.04h2Z" clip-rule="evenodd"/><path fill="#FFFFFF" fill-rule="evenodd" d="M219 122.05v-2.01h2v2.01h-2Zm0 8.07v-4.03h2v4.03h-2Zm0 8.07v-4.03h2v4.03h-2Zm0 8.07v-4.03h2v4.03h-2Zm0 8.07v-4.03h2v4.03h-2Zm0 8.07v-4.03h2v4.03h-2Zm0 6.05v-2.01h2v2.01h-2Z" clip-rule="evenodd"/><path fill="#45DAF6" d="m40 159.95-20 12.62v47.83L40 208v-48.05Z"/><path fill="#588AF5" d="m40 159.98-20-12.5-20 12.5 20 12.6 20-12.6Z"/><path fill="#464B55" d="m40 208-20-12.5L0 208l20 12.61 20-12.6Z"/><path fill="#588AF5" d="M20 195.5v25.11l-20-12.6 20-12.5Z"/><path fill="#FFFFFF" fill-rule="evenodd" d="M21 128v34h-2v-34h2Zm0 79.96V240h-2v-32.04h2Z" clip-rule="evenodd"/><path fill="#FFFFFF" fill-rule="evenodd" d="M19 162.03v-2h2v2h-2Zm0 7.99v-4h2v4h-2Zm0 7.98v-3.99h2v4h-2Zm0 8v-4h2v4h-2Zm0 7.98v-4h2v4h-2Zm0 7.98v-3.99h2v4h-2Zm0 6v-2h2v2h-2Z" clip-rule="evenodd"/><path fill="#464B55" d="M184 167.81 120 128l-64 39.81L120 208l64-40.19Z"/><path fill="#44C28D" d="M152 51.91 120 72v95.75l32-19.84v-96Z"/><path fill="#464B55" d="M88 51.82 120 72v95.75L88 147.9V51.82Z"/><path fill="#588AF5" d="M152 51.9 120 32 88 51.9 120 72l32-20.1Z"/><path fill="#0A0B0D" d="M152 147.9 120 128l-32 19.9 32 20.1 32-20.1Z"/><path fill="#588AF5" d="M120 128v40l-32-20.1 32-19.9Z"/><path fill="#FFFFFF" fill-rule="evenodd" d="M121 0v51.26h-2V0h2Zm0 127.95v56h-2v-56h2Z" clip-rule="evenodd"/><path fill="#FFFFFF" fill-rule="evenodd" d="M119 53.28v-2.02h2v2.02h-2Zm0 8.06v-4.03h2v4.03h-2Zm0 8.06v-4.03h2v4.03h-2Zm0 8.07v-4.04h2v4.04h-2Zm0 8.06V81.5h2v4.03h-2Zm0 8.06v-4.03h2v4.03h-2Zm0 8.06v-4.03h2v4.03h-2Zm0 8.07v-4.03h2v4.03h-2Zm0 8.06v-4.03h2v4.03h-2Zm0 8.06v-4.03h2v4.03h-2Zm0 8.07v-4.03h2v4.03h-2Zm0 6.04v-2.01h2v2.01h-2Z" clip-rule="evenodd"/></svg>