<svg xmlns="http://www.w3.org/2000/svg" fill="none" viewBox="0 0 240 240"><path fill="#ECD069" d="M224 68c-6.6 0-12 5.4-12 12 0-6.6-5.4-12-12-12 6.6 0 12-5.4 12-12 0 6.6 5.4 12 12 12Z"/><path fill="#464B55" d="M24 35.94c-6.6 0-12 5.374-12 11.942C12 41.314 6.6 35.94 0 35.94c6.6 0 12-5.374 12-11.941 0 6.567 5.4 11.94 12 11.94Z"/><path fill="#588AF5" fill-rule="evenodd" d="M59.316 99.311h.001c6.247-6.247 6.242-16.379-.004-22.624l-11.31 11.31-11.318 11.317c6.245 6.245 16.377 6.252 22.631-.003Z" clip-rule="evenodd"/><path fill="#44C28D" d="m59.313 76.686-22.627 22.63c-6.246-6.246-6.251-16.377.003-22.632 6.248-6.247 16.38-6.242 22.624.003Z"/><path fill="#45DAF6" fill-rule="evenodd" d="M180 24c-6.624 0-12 5.37-12 12.005h.001C168.001 42.63 173.377 48 180 48c6.624 0 12-5.37 12-11.996C192 29.37 186.624 24 180 24Z" clip-rule="evenodd"/><path fill="#0A0B0D" fill-rule="evenodd" d="M179 37v5h2v-5h5v-2h-5v-5h-2v5h-5v2h5Z" clip-rule="evenodd"/><path fill="#464B55" d="m200 120.003 20 12.612v47.788l-20-12.402v-47.998Zm-200 40 20 12.612v47.788L0 208.001v-47.998Z"/><path fill="#ECD069" d="M88 216c-4.4 0-8 3.6-8 8 0-4.4-3.6-8-8-8 4.4 0 8-3.6 8-8 0 4.4 3.6 8 8 8Z"/><path fill="#588AF5" d="m240 119.978-19.999-12.494L200 119.978l20.001 12.611L240 119.978Z"/><path fill="#0A0B0D" d="m240 168.001-19.999-12.494L200 168.001l20.001 12.612L240 168.001Z"/><path fill="#588AF5" d="M220 155.508v25.104l-20-12.611 20-12.493Z"/><path fill="#FFFFFF" fill-rule="evenodd" d="M221 88v32.036h-2V88h2Zm0 79.964V200h-2v-32.036h2Z" clip-rule="evenodd"/><path fill="#0A0B0D" fill-rule="evenodd" d="M219 122.054v-2.018h2v2.018h-2Zm0 8.069v-4.035h2v4.035h-2Zm0 8.07v-4.035h2v4.035h-2Zm0 8.07v-4.035h2v4.035h-2Zm0 8.069v-4.035h2v4.035h-2Zm0 8.07v-4.035h2v4.035h-2Zm0 6.052v-2.017h2v2.017h-2Z" clip-rule="evenodd"/><path fill="#45DAF6" d="m40 159.953-20 12.612v47.83l20-12.402v-48.04Z"/><path fill="#588AF5" d="m40 159.978-19.999-12.494L0 159.978l20.001 12.611L40 159.978Z"/><path fill="#0A0B0D" d="m40 208.001-19.999-12.494L0 208.001l20.001 12.612L40 208.001Z"/><path fill="#588AF5" d="M20 195.508v25.104L0 208.001l20-12.493Z"/><path fill="#FFFFFF" fill-rule="evenodd" d="M21 128v32.036h-2V128h2Zm0 79.964V240h-2v-32.036h2Z" clip-rule="evenodd"/><path fill="#0A0B0D" fill-rule="evenodd" d="M19 162.033v-1.997h2v1.997h-2Zm0 7.986v-3.993h2v3.993h-2Zm0 7.986v-3.993h2v3.993h-2Zm0 7.987v-3.993h2v3.993h-2Zm0 7.986v-3.993h2v3.993h-2Zm0 7.986v-3.993h2v3.993h-2Zm0 5.99v-1.997h2v1.997h-2Z" clip-rule="evenodd"/><path fill="#464B55" d="M184 167.814 120.001 128l-64.005 39.814L120 208l64-40.186Z"/><path fill="#44C28D" d="m152 51.91-32.002 20.088v95.754L152 147.907V51.911Z"/><path fill="#464B55" d="M87.996 51.82 119.998 72v95.748l-32.002-19.845V51.82Z"/><path fill="#588AF5" d="M152 51.907 119.999 32 87.996 51.907 119.999 72 152 51.907Z"/><path fill="#0A0B0D" d="m152.004 147.907-32-19.907L88 147.907 120.004 168l32-20.093Z"/><path fill="#588AF5" d="M119.998 128v40l-32.002-20.093L119.998 128Z"/><path fill="#0A0B0D" fill-rule="evenodd" d="M120.998 0v51.262h-2V0h2Z" clip-rule="evenodd"/><path fill="#FFFFFF" fill-rule="evenodd" d="M120.998 127.951v56.003h-2v-56.003h2Z" clip-rule="evenodd"/><path fill="#0A0B0D" fill-rule="evenodd" d="M118.998 53.277v-2.015h2v2.015h-2Zm0 8.063v-4.03h2v4.031h-2Zm0 8.063v-4.031h2v4.031h-2Zm0 8.063v-4.031h2v4.031h-2Zm0 8.063v-4.031h2v4.031h-2Zm0 8.063v-4.031h2v4.031h-2Zm0 8.063v-4.031h2v4.031h-2Zm0 8.063v-4.032h2v4.032h-2Zm0 8.063v-4.032h2v4.032h-2Zm0 8.063v-4.032h2v4.032h-2Zm0 8.063v-4.032h2v4.032h-2Zm0 6.047v-2.016h2v2.016h-2Z" clip-rule="evenodd"/></svg>