<svg xmlns="http://www.w3.org/2000/svg" fill="none" viewBox="0 0 240 240"><path fill="#464B55" d="M208 32H32v184h176V32Z"/><path fill="#588AF5" d="M192 32H48v168h144V32Z"/><path fill="#588AF5" d="M192 32H48v168h144V32Z"/><path fill="#ECD069" d="M167 192.5c0 26.234-21.266 47.5-47.5 47.5S72 218.734 72 192.5 93.266 145 119.5 145s47.5 21.266 47.5 47.5Z"/><path fill="#0A0B0D" fill-rule="evenodd" d="M79 119h82v50H79v-50Zm2 2v46h78v-46H81Z" clip-rule="evenodd"/><path fill="#0A0B0D" fill-rule="evenodd" d="M160 137H80v-2h80v2Zm0 8H80v-2h80v2Zm0 8H80v-2h80v2Zm0 8H80v-2h80v2Z" clip-rule="evenodd"/><path fill="#464B55" fill-rule="evenodd" d="M176 16h-40c0-8.837-7.163-16-16-16s-16 7.163-16 16H64c-8.84 0-16 7.16-16 16h144c0-8.84-7.16-16-16-16Zm-48 0a8 8 0 1 1-16 0 8 8 0 0 1 16 0Z" clip-rule="evenodd"/><path fill="#0A0B0D" fill-rule="evenodd" d="M79 47h50v10H79V47Zm2 2v6h46v-6H81Zm-1 22h80v2H80v-2Zm0 8h80v2H80v-2Zm0 8h80v2H80v-2Zm0 8h80v2H80v-2Zm0 8h66.67v2H80v-2Z" clip-rule="evenodd"/><path fill="#0A0B0D" fill-rule="evenodd" d="M63 32h2v151h110V32h2v153H63V32Z" clip-rule="evenodd"/><path fill="#0A0B0D" d="M166.411 200a47.79 47.79 0 0 0 .589-7.5c0-26.234-21.266-47.5-47.5-47.5S72 166.266 72 192.5c0 2.552.201 5.057.589 7.5h93.822Z"/><path fill="#FFFFFF" d="M155 192.5c0 19.606-15.894 35.5-35.5 35.5S84 212.106 84 192.5 99.894 157 119.5 157s35.5 15.894 35.5 35.5Z"/><path fill="#0A0B0D" fill-rule="evenodd" d="M117 206.2c8.947 0 16.2-7.253 16.2-16.2s-7.253-16.2-16.2-16.2-16.2 7.253-16.2 16.2 7.253 16.2 16.2 16.2Zm0 1.8c9.941 0 18-8.059 18-18s-8.059-18-18-18-18 8.059-18 18 8.059 18 18 18Z" clip-rule="evenodd"/><path fill="#45DAF6" d="M130 190c0 7.18-5.82 13-13 13s-13-5.82-13-13 5.82-13 13-13 13 5.82 13 13Z"/><path fill="#0A0B0D" fill-rule="evenodd" d="M133.437 208 128 202.563l2.563-2.563 5.437 5.437-2.563 2.563Z" clip-rule="evenodd"/><path fill="#0A0B0D" fill-rule="evenodd" d="M136.369 214 129 206.631l4.631-4.631 7.369 7.369-4.631 4.631Z" clip-rule="evenodd"/></svg>