<svg xmlns="http://www.w3.org/2000/svg" fill="none" viewBox="0 0 240 241"><path fill="#588AF5" d="M88 8a8 8 0 0 1 8-8h136a8 8 0 0 1 8 8v224a8 8 0 0 1-8 8H96a8 8 0 0 1-8-8V8Z"/><path fill="#ECD069" d="M103 119.5c0 28.443-23.057 51.5-51.5 51.5S0 147.943 0 119.5 23.057 68 51.5 68 103 91.057 103 119.5Z"/><path fill="#464B55" d="M180 24a4 4 0 0 1 4-4h19.692a4 4 0 0 1 4 4v28a4 4 0 0 1-4 4H184a4 4 0 0 1-4-4V24Z"/><path fill="#FFFFFF" d="M115.11 216.792c-2.18 0-3.883 1.544-3.883 3.61 0 2.067 1.66 3.597 3.883 3.597 2.222 0 3.911-1.556 3.911-3.61 0-2.04-1.66-3.597-3.911-3.597Zm.014 5.718c-1.241 0-2.151-.899-2.151-2.107 0-1.222.895-2.121 2.137-2.121 1.256 0 2.165.913 2.165 2.121s-.909 2.107-2.151 2.107Zm4.373-4.147h1.083v5.503h1.732v-6.94h-2.815v1.437Zm-12.629-.081c.91 0 1.631.523 1.905 1.302h1.833c-.332-1.665-1.804-2.792-3.723-2.792-2.18 0-3.883 1.544-3.883 3.611s1.66 3.597 3.883 3.597c1.876 0 3.377-1.128 3.709-2.806h-1.819c-.26.779-.981 1.316-1.891 1.316-1.256 0-2.136-.899-2.136-2.107.001-1.222.867-2.121 2.122-2.121Zm45.538 1.449-1.27-.174c-.607-.08-1.04-.268-1.04-.711 0-.483.563-.725 1.328-.725.837 0 1.372.336 1.487.886h1.674c-.188-1.396-1.342-2.215-3.117-2.215-1.834 0-3.046.873-3.046 2.108 0 1.181.794 1.866 2.396 2.08l1.27.174c.621.081.967.309.967.739 0 .55-.606.778-1.443.778-1.025 0-1.602-.389-1.689-.98h-1.703c.159 1.356 1.299 2.309 3.377 2.309 1.891 0 3.147-.805 3.147-2.188 0-1.235-.909-1.879-2.338-2.081Zm-30.96-5.664c-.635 0-1.112.429-1.112 1.02 0 .59.476 1.02 1.112 1.02.635 0 1.112-.43 1.112-1.02 0-.591-.477-1.02-1.112-1.02Zm25.417 5.235c0-1.503-.981-2.51-3.059-2.51-1.963 0-3.06.927-3.277 2.35h1.718c.086-.551.548-1.007 1.53-1.007.88 0 1.313.362 1.313.805 0 .578-.794.725-1.775.819-1.328.134-2.973.563-2.973 2.174 0 1.249.996 2.054 2.583 2.054 1.242 0 2.021-.483 2.411-1.249.058.685.606 1.128 1.371 1.128h1.011v-1.436h-.852v-3.128h-.001Zm-1.703 1.745c0 .926-.866 1.611-1.92 1.611-.649 0-1.198-.255-1.198-.792 0-.684.881-.872 1.689-.953.779-.067 1.212-.228 1.429-.537v.671Zm-9.194-4.255c-.967 0-1.775.376-2.353 1.006V214h-1.732v9.866h1.703v-.913c.578.658 1.401 1.047 2.382 1.047 2.078 0 3.652-1.53 3.652-3.597s-1.602-3.611-3.652-3.611Zm-.26 5.718c-1.241 0-2.15-.899-2.15-2.107 0-1.208.923-2.121 2.164-2.121 1.256 0 2.137.9 2.137 2.121 0 1.208-.909 2.107-2.151 2.107Zm-7.967-5.718c-1.126 0-1.862.429-2.295 1.033v-.899h-1.718v6.939h1.732v-3.771c0-1.061.721-1.812 1.789-1.812.997 0 1.617.657 1.617 1.611v3.973h1.732v-4.094c0-1.745-.966-2.98-2.857-2.98ZM163 220.175c0-1.987-1.559-3.383-3.652-3.383-2.223 0-3.854 1.557-3.854 3.611 0 2.161 1.747 3.597 3.883 3.597 1.804 0 3.219-.993 3.579-2.403h-1.804c-.26.618-.895.967-1.747.967-1.111 0-1.948-.644-2.136-1.772h5.73v-.617H163Zm-5.629-.538c.274-.966 1.053-1.436 1.948-1.436.982 0 1.732.524 1.905 1.436h-3.853Zm43.371-9.76-3.069 14.196h-3.713l3.068-14.196h3.714Zm15.63 9.16 1.949-5.334 1.119 5.334h-3.068Zm4.148 5.036h3.437l-3.002-14.196h-3.174c-.342 0-.671.091-.948.287-.276.182-.5.455-.632.754l-5.57 13.155h3.898l.777-2.121h4.767l.447 2.121Zm-9.692-4.645c.014-3.748-5.241-3.956-5.201-5.634.013-.508.5-1.054 1.58-1.184a7.092 7.092 0 0 1 3.661.637l.645-3.005a9.876 9.876 0 0 0-3.476-.625c-3.674 0-6.255 1.926-6.268 4.697-.027 2.043 1.843 3.188 3.252 3.865 1.449.689 1.936 1.145 1.923 1.769-.013.95-1.159 1.366-2.226 1.392a7.79 7.79 0 0 1-3.818-.897l-.672 3.109c1.317.508 2.713.768 4.135.755 3.898-.013 6.452-1.926 6.465-4.879Zm-15.38-9.551-6.018 14.196h-3.924l-2.963-11.333a1.547 1.547 0 0 0-.276-.742 1.627 1.627 0 0 0-.606-.507 15.855 15.855 0 0 0-3.661-1.21l.092-.417h6.321c.408 0 .816.144 1.132.404.316.26.527.637.593 1.041l1.567 8.21 3.871-9.668 3.872.026Zm9.27-8.86h1.37a2.433 2.433 0 0 1 1.014.091 2.385 2.385 0 0 1 1.448 1.327c.132.313.185.651.172.989v.065c.013.339-.04.677-.172 1.002a2.429 2.429 0 0 1-.579.833c-.25.234-.553.403-.882.507-.33.105-.672.144-1.014.092h-1.357v-4.906Zm1.344 4.411c.263.026.539 0 .79-.091.25-.091.487-.234.684-.416a1.72 1.72 0 0 0 .435-.664c.092-.247.119-.52.092-.781v-.052c.027-.26 0-.533-.092-.78a1.706 1.706 0 0 0-.435-.664 1.73 1.73 0 0 0-.684-.403 1.803 1.803 0 0 0-.79-.065h-.698v3.942h.698v-.026Zm3.779-4.41h3.029v.481h-2.397v1.665h1.922v.482h-1.922v1.782h2.528v.482h-3.16v-4.892Zm4.187 0h1.567c.962 0 1.673.299 1.673 1.275v.026c.013.234-.053.468-.198.663a.97.97 0 0 1-.579.378c.75.169 1.04.533 1.04 1.171v.026c0 .923-.672 1.366-1.712 1.366h-1.778l-.013-4.905Zm1.554 2.133c.764 0 1.054-.26 1.054-.858v-.026c0-.56-.343-.781-1.067-.781h-.922v1.678h.935v-.013Zm.211 2.303c.75 0 1.106-.312 1.106-.91v-.026c0-.599-.356-.898-1.185-.898h-1.054v1.834h1.133Zm2.857-4.436h.632v4.905h-.632v-4.905Zm3.108.481h-1.514v-.481h3.647v.481h-1.514v4.411h-.632v-4.411h.013Z"/><path fill="#0A0B0D" fill-rule="evenodd" d="M88 155.832V83.168c9.27 9.313 15 22.153 15 36.332 0 14.179-5.73 27.019-15 36.332Z" clip-rule="evenodd"/><path fill="#0A0B0D" d="M216 119.5c0 28.443-23.057 51.5-51.5 51.5S113 147.943 113 119.5 136.057 68 164.5 68 216 91.057 216 119.5Z"/><path fill="#44C28D" d="M164.495 171c0-28.448 23.057-51.495 51.505-51.495-28.448 0-51.505-23.057-51.505-51.505 0 28.448-23.058 51.505-51.495 51.505 28.437 0 51.495 23.047 51.495 51.495Z"/><path fill="#0A0B0D" fill-rule="evenodd" d="M52 85c-19.33 0-35 15.67-35 35s15.67 35 35 35 35-15.67 35-35-15.67-35-35-35Zm-37 35c0-20.434 16.566-37 37-37s37 16.566 37 37c0 20.435-16.566 37-37 37s-37-16.565-37-37Z" clip-rule="evenodd"/><path fill="#FFFFFF" fill-rule="evenodd" d="M108 41c-19.494 0-37.336 7.06-51.114 18.762l-1.295-1.524C69.717 46.239 88.014 39 108 39v2Zm0 0c19.494 0 37.336 7.06 51.114 18.762l1.295-1.524C146.283 46.239 127.986 39 108 39v2Z" clip-rule="evenodd"/><path fill="#FFFFFF" fill-rule="evenodd" d="M71.403 63.064 54.807 59.38l3.685-16.596 1.953.434-3.252 14.643 14.643 3.252-.433 1.952Zm73.282 0 16.596-3.685-3.685-16.596-1.953.434 3.252 14.643-14.643 3.252.433 1.952Zm-36.597 136.024c19.494 0 37.336-7.059 51.114-18.762l1.295 1.524c-14.126 11.998-32.423 19.238-52.409 19.238v-2Zm0 0c-19.494 0-37.336-7.059-51.114-18.762l-1.295 1.524c14.126 11.998 32.423 19.238 52.409 19.238v-2Z" clip-rule="evenodd"/><path fill="#FFFFFF" fill-rule="evenodd" d="m144.685 177.024 16.596 3.685-3.685 16.596-1.953-.434 3.252-14.643-14.643-3.252.433-1.952Zm-73.282 0-16.596 3.685 3.685 16.596 1.953-.434-3.252-14.643 14.643-3.252-.433-1.952Z" clip-rule="evenodd"/><path fill="#0A0B0D" fill-rule="evenodd" d="M191 43v13h-2V43h2Zm6-10V20h2v13h-2Zm2 10v13h-2V43h2Zm-10-10V20h2v13h-2Z" clip-rule="evenodd"/><path fill="#464B55" d="M180 24a4 4 0 0 1 4-4h19.692a4 4 0 0 1 4 4v28a4 4 0 0 1-4 4H184a4 4 0 0 1-4-4V24Z"/><path fill="#FFFFFF" fill-rule="evenodd" d="M188.764 42H194v2h-4.764l-9.789 4.894-.894-1.788L188.764 42Zm10.472 0H194v2h4.764l9.789 4.894.894-1.788L199.236 42Zm0-8H194v-2h4.764l9.789-4.894.894 1.788L199.236 34Zm-10.472 0H194v-2h-4.764l-9.789-4.894-.894 1.788L188.764 34Z" clip-rule="evenodd"/><path fill="#45DAF6" d="M19.998 40c0-11.048 8.954-19.998 20.002-19.998-11.048 0-20.002-8.954-20.002-20.002 0 11.048-8.955 20.002-19.998 20.002 11.043 0 19.998 8.95 19.998 19.998Z"/><path fill="#44C28D" d="M19.999 241c0-6.629 5.373-11.999 12.001-11.999-6.628 0-12.001-5.372-12.001-12.001 0 6.629-5.373 12.001-11.999 12.001 6.626 0 11.999 5.37 11.999 11.999Z"/><path fill="#ECD069" d="M31.999 206c0-6.629 5.372-11.999 12.001-11.999-6.629 0-12.001-5.372-12.001-12.001 0 6.629-5.373 12.001-11.999 12.001 6.626 0 11.999 5.37 11.999 11.999Z"/><path fill="#0A0B0D" fill-rule="evenodd" d="M51 140v-40h2v40h-2Z" clip-rule="evenodd"/><path fill="#0A0B0D" fill-rule="evenodd" d="M32 119h40v2H32v-2Z" clip-rule="evenodd"/><path fill="#0A0B0D" fill-rule="evenodd" d="m40.293 130.293 22-22 1.414 1.414-22 22-1.414-1.414Z" clip-rule="evenodd"/><path fill="#0A0B0D" fill-rule="evenodd" d="m41.707 108.293 22 22-1.414 1.414-22-22 1.414-1.414Z" clip-rule="evenodd"/></svg>