<svg xmlns="http://www.w3.org/2000/svg" fill="none" viewBox="0 0 240 240"><path fill="#45D9F5" d="M188 0H52v40h136z"/><path fill="#464B55" d="M185.6 112H0v128h239.9l.1-128zm34.4 0c0-55.2-44.8-100-100-100S20 56.8 20 112"/><path fill="#578BFA" d="M52 112h136V38.7C170.2 22.1 146.3 12 120 12S69.8 22.1 52 38.7z"/><path fill="#45D9F5" d="M188 112c0-37.6-30.4-68-68-68s-68 30.4-68 68"/><path fill="#FFFFFF" fill-rule="evenodd" d="M35 112c0-46.55 38.045-85 85-85s85 38.45 85 85h-2c0-45.45-37.155-83-83-83s-83 37.55-83 83z" clip-rule="evenodd"/><path fill="#578BFA" d="M188 112H52v72h136z"/><path fill="#0A0B0D" d="M120 56c-30.9 0-56 25.1-56 56s25.1 56 56 56 56-25.1 56-56-25.1-56-56-56"/><path fill="#ECD069" d="M72 112c0-26.5 21.5-48 48-48s48 21.5 48 48z"/><path fill="#578BFA" d="M168 112c0 26.5-21.5 48-48 48s-48-21.5-48-48z"/><path fill="#0A0B0D" fill-rule="evenodd" d="M120 77c-19.33 0-35 15.67-35 35s15.67 35 35 35 35-15.67 35-35-15.67-35-35-35m-37 35c0-20.434 16.566-37 37-37s37 16.566 37 37-16.565 37-37 37-37-16.565-37-37" clip-rule="evenodd"/><path fill="#FFFFFF" fill-rule="evenodd" d="m35.996 182.586-7.293-7.293-1.414 1.414 8.707 8.707 8.707-8.707-1.414-1.414z" clip-rule="evenodd"/><path fill="#FFFFFF" fill-rule="evenodd" d="M37 112v72h-2v-72z" clip-rule="evenodd"/></svg>