<svg xmlns="http://www.w3.org/2000/svg" fill="none" viewBox="0 0 240 240"><path fill="#578BFA" d="M120 188v-22.2 17c21.8 0 41-11.1 52.2-28v-34.6c0-28.8-23.4-52.2-52.2-52.2s-52 23.2-52 52h52z"/><path fill="#464B55" d="M180 120c0 33.1-26.9 60-60 60v-15 63c59.6 0 108-48.4 108-108z"/><path fill="#FFFFFF" d="M120 180c-13.3 0-24 10.7-24 24s10.7 24 24 24 24-10.7 24-24-10.7-24-24-24"/><path fill="#464B55" d="M12 120h48c0-33.1 26.9-60 60-60V12C62.6 12 12 62.6 12 120M120 12v48c33.1 0 60 26.9 60 60h48c0-57.4-50.6-108-108-108"/><path fill="#578BFA" d="M120 60c13.255 0 24-10.745 24-24s-10.745-24-24-24-24 10.745-24 24 10.745 24 24 24"/><path fill="#FFFFFF" fill-rule="evenodd" d="m154.254 194.832 4.104-13.338-1.912-.588-4.696 15.262 15.264 4.59.576-1.916z" clip-rule="evenodd"/><path fill="#FFFFFF" fill-rule="evenodd" d="M152.711 194.178c28.941-12.15 49.287-40.794 49.287-74.178h2c0 34.216-20.854 63.572-50.513 76.022z" clip-rule="evenodd"/><path fill="#44C28D" d="M120 116H0v88h120z"/><path fill="#464B55" d="M128 144h-8v32h8z"/><path fill="#578BFA" d="M96 144c-8.8 0-16 7.2-16 16s7.2 16 16 16h24v-32zM0 204c0-13.3 10.7-24 24-24s24 10.7 24 24z"/><path fill="#464B55" d="M48 204c0 13.3-10.7 24-24 24S0 217.3 0 204z"/><path fill="#0A0B0D" fill-rule="evenodd" d="M24 189c-8.284 0-15 6.716-15 15s6.716 15 15 15 15-6.716 15-15-6.716-15-15-15M7 204c0-9.389 7.611-17 17-17s17 7.611 17 17-7.611 17-17 17-17-7.611-17-17" clip-rule="evenodd"/><path fill="#578BFA" d="M48 204c0-13.3 10.7-24 24-24s24 10.7 24 24z"/><path fill="#464B55" d="M96 204c0 13.3-10.7 24-24 24s-24-10.7-24-24z"/><path fill="#0A0B0D" fill-rule="evenodd" d="M72 189c-8.284 0-15 6.716-15 15s6.716 15 15 15 15-6.716 15-15-6.716-15-15-15m-17 15c0-9.389 7.611-17 17-17s17 7.611 17 17-7.611 17-17 17-17-7.611-17-17" clip-rule="evenodd"/><path fill="#578BFA" d="M180 120c0-13.3 10.7-24 24-24s24 10.7 24 24z"/><path fill="#FFFFFF" d="M228 120c0 13.3-10.7 24-24 24s-24-10.7-24-24z"/><path fill="#0A0B0D" fill-rule="evenodd" d="M204 105c-8.284 0-15 6.716-15 15s6.716 15 15 15 15-6.716 15-15-6.716-15-15-15m-17 15c0-9.389 7.611-17 17-17s17 7.611 17 17-7.611 17-17 17-17-7.611-17-17" clip-rule="evenodd"/><path fill="#578BFA" d="M96 204h24v-24c-13.2 0-24 10.7-24 24"/><path fill="#0A0B0D" fill-rule="evenodd" d="M120 189c-8.284 0-15 6.716-15 15s6.716 15 15 15 15-6.716 15-15-6.716-15-15-15m-17 15c0-9.389 7.611-17 17-17s17 7.611 17 17-7.611 17-17 17-17-7.611-17-17m-7-51a7 7 0 1 0 0 14 7 7 0 0 0 0-14m-9 7a9 9 0 0 1 9-9 9 9 0 0 1 9 9 9 9 0 0 1-9 9 9 9 0 0 1-9-9" clip-rule="evenodd"/></svg>