<svg xmlns="http://www.w3.org/2000/svg" fill="none" viewBox="0 0 240 240"><path fill="#464B55" d="M228 120h-56v120h56V120Z"/><path fill="#0A0B0D" fill-rule="evenodd" d="M41 119.89a79 79 0 0 0 79 79v2a81 81 0 0 1-81-81h2Zm134.86-55.63A79 79 0 0 0 120 41.12v-2a81 81 0 0 1 81 81h-2a79 79 0 0 0-23.14-55.86Z" clip-rule="evenodd"/><path fill="#0A0B0D" fill-rule="evenodd" d="M120 41a79 79 0 0 0-79 79h-2a81 81 0 0 1 81-81v2Z" clip-rule="evenodd"/><path fill="#464B55" fill-rule="evenodd" d="M120 228a108 108 0 1 1 108-108h-56a52 52 0 0 0-51.5-52h-.5a52 52 0 0 0 0 104v56Z" clip-rule="evenodd"/><path fill="#588AF5" d="M120 148a28 28 0 0 1 0-56m0 108v-40a40 40 0 0 0-40 40v40h40v-40Z"/><path fill="#464B55" fill-rule="evenodd" d="M148.28 171.72A40 40 0 0 0 120 160v80h40v-40a40 40 0 0 0-11.72-28.28Z" clip-rule="evenodd"/><path fill="#FFFFFF" fill-rule="evenodd" d="M120 92v28l-19.8-19.8A27.9 27.9 0 0 1 120 92Zm19.8 8.2A28 28 0 0 0 120 92v56a28 28 0 0 0 19.8-47.8Zm68.91 63.1-8.7-8.71-8.71 8.7 1.41 1.42 6.3-6.3V240h2v-81.59l6.29 6.3 1.41-1.42Z" clip-rule="evenodd"/><path fill="#ECD069" fill-rule="evenodd" d="M100.2 59.8a28 28 0 1 0 39.6-39.6 28 28 0 0 0-39.6 39.6Zm-80 40.13a28 28 0 1 0 39.6 39.6 28 28 0 0 0-39.6-39.6Z" clip-rule="evenodd"/><path fill="#0A0B0D" fill-rule="evenodd" d="M32.59 101.83a19.35 19.35 0 0 1 26.77 17.9h.5-.5a19.36 19.36 0 1 1-38.72 0h-.5.5a19.36 19.36 0 0 1 11.95-17.9Zm-13.95 17.9a21.36 21.36 0 1 1 42.72 0m-42.72 0a21.36 21.36 0 0 0 42.72 0m51.23-97.63A19.36 19.36 0 0 1 139.36 40h.5-.5a19.36 19.36 0 0 1-38.72 0h-.5.5a19.33 19.33 0 0 1 11.95-17.9ZM98.64 40a21.35 21.35 0 1 1 42.72 0m-42.72 0a21.35 21.35 0 1 0 42.72 0" clip-rule="evenodd"/><path fill="#ECD069" fill-rule="evenodd" d="M180.2 100.2a28 28 0 1 0 39.6 39.6 28 28 0 0 0-39.6-39.6Z" clip-rule="evenodd"/><path fill="#0A0B0D" d="M120 171.5a51.26 51.26 0 0 1-22-4.92A40 40 0 0 0 80 200v20.35a107.82 107.82 0 0 0 40 7.65v-56.5Z"/><path fill="#588AF5" d="M120 172a28 28 0 0 1 0 56"/><path fill="#ECD069" d="M120 228a28 28 0 0 1 0-56"/><path fill="#0A0B0D" fill-rule="evenodd" d="M192.59 102.11a19.35 19.35 0 0 1 26.77 17.9h.5-.5a19.36 19.36 0 0 1-38.72 0h-.5.5a19.33 19.33 0 0 1 11.95-17.9Zm-13.95 17.9a21.34 21.34 0 0 1 36.47-15.12 21.36 21.36 0 0 1 6.25 15.11m-42.72 0a21.35 21.35 0 1 0 42.72 0m-108.77 62.11a19.35 19.35 0 0 1 26.77 17.9h.5-.5a19.36 19.36 0 0 1-38.72 0h-.5.5a19.33 19.33 0 0 1 11.95-17.9Zm-13.95 17.9a21.35 21.35 0 1 1 42.72 0m-42.72 0a21.35 21.35 0 1 0 42.72 0" clip-rule="evenodd"/></svg>