<svg xmlns="http://www.w3.org/2000/svg" fill="none" viewBox="0 0 240 240"><path fill="#ECD069" d="M208 88.02A87.95 87.95 0 0 1 120.02 176c-32.57 0-61-17.7-76.25-43.98a87.71 87.71 0 0 1-11.77-44 88 88 0 1 1 176 0Z"/><path fill="#45DAF6" fill-rule="evenodd" d="M32 88h176a88 88 0 0 0-176 0Z" clip-rule="evenodd"/><path fill="#588AF5" d="M177 88.01A56.97 56.97 0 0 1 120.01 145a57.05 57.05 0 0 1-49.38-28.48A57 57 0 1 1 177 88.02Z"/><path fill="#FFFFFF" d="M120 86c11.05 0 20-8.73 20-19.5S131.05 47 120 47s-20 8.73-20 19.5S108.95 86 120 86Z"/><path fill="#44C28D" fill-rule="evenodd" d="M70.63 116.5A56.96 56.96 0 0 1 119.98 88a56.98 56.98 0 0 1 49.4 28.5l-.01.02a57.05 57.05 0 0 1-98.75 0Z" clip-rule="evenodd"/><path fill="#0A0B0D" fill-rule="evenodd" d="M120 17a71 71 0 1 0 0 142 71 71 0 0 0 0-142ZM47 88a73 73 0 1 1 146 0 73 73 0 0 1-146 0Z" clip-rule="evenodd"/><path fill="#464B55" d="m72 208 48-16 48 16v32H72v-32Z"/><path fill="#588AF5" fill-rule="evenodd" d="m120 112-48 96 48-16 48 16-48-96Z" clip-rule="evenodd"/><path fill="#0A0B0D" fill-rule="evenodd" d="M135.45 142.89a57.08 57.08 0 0 1-30.89-.01L120 112l15.45 30.89Zm-15.48 15.7 17.68 17.67-1.42 1.42-16.26-16.27-16.27 16.27-1.4-1.42 17.67-17.67Z" clip-rule="evenodd"/><path fill="#0A0B0D" fill-rule="evenodd" d="M121 161v79h-2v-79h2Z" clip-rule="evenodd"/></svg>