<svg xmlns="http://www.w3.org/2000/svg" fill="none" viewBox="0 0 240 241"><path fill="#464B55" d="M0 0h240v116H0V0Zm240 162v78H0v-78h240Z"/><path fill="#0A0B0D" d="M33 88a88 88 0 1 1 176 0v152H33V88Z"/><path fill="#588AF5" fill-rule="evenodd" d="M33 240h176v-78H33v78Z" clip-rule="evenodd"/><path fill="#45DAF6" fill-rule="evenodd" d="M90.82 5.2a88.26 88.26 0 0 1 117.94 76.5A72.5 72.5 0 0 1 90.82 5.2Z" clip-rule="evenodd"/><path fill="#44C28D" fill-rule="evenodd" d="M117.15 241h-53.3a40.5 40.5 0 1 1 53.3 0Z" clip-rule="evenodd"/><path fill="#FFFFFF" d="M77 214h132v26H77v-26Zm20-26h112v26H97v-26Zm23-26h89v26h-89v-26ZM142.02 2.58a242.96 242.96 0 0 0-14.67 8.2c-21.97 13.27-39.52 28.49-50.2 42.1-5.37 6.82-8.72 12.89-10.24 17.82-1.51 4.93-.94 7.8.05 9.43.98 1.63 3.25 3.47 8.33 4.42 5.06.95 12 .8 20.54-.77 17-3.13 38.64-11.6 60.61-24.87a223.27 223.27 0 0 0 33.9-24.92 83.8 83.8 0 0 1 4.67 6.56 232.17 232.17 0 0 1-34.43 25.2C115.4 93.06 70.43 101.35 60.1 84.28 49.79 67.19 78.04 31.22 123.2 3.93c2-1.22 4.02-2.4 6.02-3.53a88.5 88.5 0 0 1 12.79 2.18Z"/><path fill="#588AF5" fill-rule="evenodd" d="M116.2 86.66c13.9-4.64 29.12-11.69 44.38-20.9A232.16 232.16 0 0 0 195 40.56a88.12 88.12 0 0 0-4.66-6.57 223.22 223.22 0 0 1-33.91 24.92c-16.62 10.04-33.04 17.33-47.41 21.64a72.86 72.86 0 0 0 7.18 6.11ZM88.05 40.8c-.57-3.29-.9-6.65-1-10.08A229.84 229.84 0 0 1 123.2 3.93c2-1.22 4.01-2.4 6.02-3.53a88.5 88.5 0 0 1 12.79 2.18 242.96 242.96 0 0 0-14.67 8.2C111.7 20.22 98.3 30.66 88.03 40.79Z" clip-rule="evenodd"/><path fill="#45DAF6" fill-rule="evenodd" d="M189.1 32.41 88.05 40.9a72.97 72.97 0 0 1 2.76-35.7A88.1 88.1 0 0 1 120.75 0a88.07 88.07 0 0 1 68.34 32.41Z" clip-rule="evenodd"/><path fill="#0A0B0D" fill-rule="evenodd" d="M209 188h-89v-2h89v2Z" clip-rule="evenodd"/><path fill="#ECD069" d="M60.5 162a42.68 42.68 0 0 0 17 17 42.67 42.67 0 0 0-17 17 42.67 42.67 0 0 0-17-17 42.68 42.68 0 0 0 17-17Z"/><path fill="#0A0B0D" fill-rule="evenodd" d="M209 214H97v-2h112v2Z" clip-rule="evenodd"/><path fill="#ECD069" d="M209 116a57.74 57.74 0 0 0 23 23 57.73 57.73 0 0 0-23 23 57.74 57.74 0 0 0-23-23 57.74 57.74 0 0 0 23-23Z"/><path fill="#588AF5" fill-rule="evenodd" d="M71.27 174.85A42.77 42.77 0 0 0 77.5 179a42.68 42.68 0 0 0-17 17 42.7 42.7 0 0 0-4.52-6.69 40.69 40.69 0 0 1 15.29-14.46ZM209 116v46a57.74 57.74 0 0 0-23-23 57.74 57.74 0 0 0 23-23Z" clip-rule="evenodd"/></svg>