<svg xmlns="http://www.w3.org/2000/svg" fill="none" viewBox="0 0 240 240"><path fill="#464B55" d="M0 0h48v136H0zm72 0h24v136H72zm136 0h32v136h-32z"/><path fill="#578BFA" d="M0 184h240v16H0z"/><path fill="#464B55" d="M144 0h32v136h-32zm40 0h16v136h-16z"/><path fill="#ECD069" d="M96 136c0 26.51-21.49 48-48 48S0 162.51 0 136s21.49-48 48-48 48 21.49 48 48"/><path fill="#578BFA" d="M96 136a48.005 48.005 0 0 0-29.631-44.346A48 48 0 0 0 0 136z"/><path fill="#FFFFFF" d="M47.998 160.001c0-13.257 10.746-23.998 24.004-23.998-13.258 0-24.004-10.746-24.004-24.003 0 13.257-10.745 24.003-23.998 24.003 13.253 0 23.998 10.741 23.998 23.998"/><path fill="#0A0B0D" fill-rule="evenodd" d="M48.002 98.6c-20.656 0-37.4 16.745-37.4 37.4 0 20.656 16.744 37.4 37.4 37.4s37.4-16.744 37.4-37.4-16.745-37.4-37.4-37.4M8.602 136c0-21.76 17.64-39.4 39.4-39.4s39.4 17.64 39.4 39.4-17.64 39.4-39.4 39.4-39.4-17.64-39.4-39.4" clip-rule="evenodd"/><path fill="#44C28D" d="M240 136c0 26.51-21.49 48-48 48s-48-21.49-48-48 21.49-48 48-48 48 21.49 48 48"/><path fill="#578BFA" d="M240 136a48 48 0 0 0-14.059-33.941 48 48 0 0 0-67.882 0A48 48 0 0 0 144 136z"/><path fill="#44C28D" d="M230.402 136c0 21.207-17.193 38.4-38.4 38.4-21.208 0-38.4-17.193-38.4-38.4 0-21.208 17.192-38.4 38.4-38.4s38.4 17.192 38.4 38.4"/><path fill="#0A0B0D" d="M190.588 156v-5.483c-5.732-.498-9.055-3.863-9.221-8.432h3.822c.166 3.531 2.824 5.525 7.019 5.525 4.071 0 6.605-2.119 6.605-5.234 0-2.742-1.869-3.821-5.317-4.445l-3.448-.664c-4.735-.872-7.975-3.115-7.975-7.768 0-4.07 3.157-7.476 8.515-8.016V116h3.116v5.483c5.566.54 8.349 3.987 8.515 7.85h-3.822c-.166-2.866-2.243-4.943-6.313-4.943-3.988 0-6.189 2.202-6.189 4.902 0 2.949 2.035 3.904 5.15 4.486l3.448.581c4.777.873 8.141 2.908 8.141 7.809 0 4.652-3.489 7.851-8.93 8.349V156z"/><path fill="#0A0B0D" fill-rule="evenodd" d="M192.002 98.6c-20.656 0-37.4 16.744-37.4 37.4s16.744 37.4 37.4 37.4 37.4-16.745 37.4-37.4c0-20.656-16.745-37.4-37.4-37.4m-39.4 37.4c0-21.76 17.64-39.4 39.4-39.4s39.4 17.64 39.4 39.4-17.64 39.4-39.4 39.4-39.4-17.64-39.4-39.4" clip-rule="evenodd"/><path fill="#ECD069" d="M143.998 64c0-13.257 10.745-23.998 24.002-23.998-13.257 0-24.002-10.745-24.002-24.002 0 13.257-10.746 24.002-23.998 24.002 13.252 0 23.998 10.74 23.998 23.998"/><path fill="#578BFA" fill-rule="evenodd" d="M144 63.655v-47.31c.184 13.098 10.858 23.657 24 23.657-13.142 0-23.816 10.555-24 23.653" clip-rule="evenodd"/><path fill="#45D9F5" d="M112 76a4 4 0 1 1-8 0 4 4 0 0 1 8 0"/><path fill="#FFFFFF" d="M32 28a4 4 0 1 1-8 0 4 4 0 0 1 8 0"/><path fill="#578BFA" d="m120 184 32 56H88z"/><path fill="#0A0B0D" fill-rule="evenodd" d="M129.145 200h-18.286l9.143-16z" clip-rule="evenodd"/></svg>