<svg xmlns="http://www.w3.org/2000/svg" fill="none" viewBox="0 0 240 240"><path fill="#44C28D" d="M232 76H8c-4.4 0-8 3.6-8 8v16h240V84c0-4.4-3.6-8-8-8M0 232c0 4.4 3.6 8 8 8h224c4.4 0 8-3.6 8-8v-80H0z"/><path fill="#0A0B0D" d="M240 100H0v52h240z"/><path fill="#464B55" d="M176 48h-64v192h64z"/><path fill="#578BFA" d="M176 76h-64v24h64zm0 76h-64v88h64z"/><path fill="#ECD069" d="M112 44c0-17.7 14.3-32 32-32s32 14.3 32 32zm64 0c0 17.7-14.3 32-32 32s-32-14.3-32-32z"/><path fill="#ECD069" d="M169 64h-50c5.9 7.3 14.9 12 25 12s19.1-4.7 25-12"/><path fill="#0A0B0D" fill-rule="evenodd" d="M144 21c-12.703 0-23 10.298-23 23s10.297 23 23 23 23-10.297 23-23-10.297-23-23-23m-25 23c0-13.807 11.193-25 25-25s25 11.193 25 25-11.193 25-25 25-25-11.193-25-25" clip-rule="evenodd"/><path fill="#464B55" d="M100 0H20v152h80z"/><path fill="#578BFA" d="M100 76H20v24h80zm0 76c0 22.1-17.9 40-40 40s-40-17.9-40-40z"/><path fill="#ECD069" d="M20 152c0-22.1 17.9-40 40-40s40 17.9 40 40z"/><path fill="#0A0B0D" fill-rule="evenodd" d="M60 121c-17.12 0-31 13.879-31 31s13.88 31 31 31 31-13.879 31-31-13.88-31-31-31m-33 31c0-18.225 14.775-33 33-33s33 14.775 33 33-14.775 33-33 33-33-14.775-33-33M143.996 38.586l8.707 8.707-1.414 1.414-7.293-7.293-7.293 7.293-1.414-1.414z" clip-rule="evenodd"/><path fill="#0A0B0D" fill-rule="evenodd" d="M143 128V40h2v88zm-83.004 14.586-7.293-7.293-1.414 1.414 8.707 8.707 8.707-8.707-1.414-1.414z" clip-rule="evenodd"/><path fill="#0A0B0D" fill-rule="evenodd" d="M61 16v128h-2V16z" clip-rule="evenodd"/><path fill="#FFFFFF" d="M240 170h-34.1c-9.9 0-17.9-8-17.9-17.9v-.1c0-9.9 8-17.9 17.9-17.9H240z"/><path fill="#464B55" d="M188 151.9h52V132h-32.1c-11 0-19.9 8.9-19.9 19.9"/><path fill="#578BFA" d="M188 152v.1c0 11 8.9 19.9 19.9 19.9H240v-20z"/><path fill="#0A0B0D" fill-rule="evenodd" d="M208 141c-6.075 0-11 4.925-11 11s4.925 11 11 11 11-4.925 11-11-4.925-11-11-11m-13 11c0-7.18 5.82-13 13-13s13 5.82 13 13-5.82 13-13 13-13-5.82-13-13" clip-rule="evenodd"/></svg>