<svg xmlns="http://www.w3.org/2000/svg" fill="none" viewBox="0 0 240 240"><path fill="#45D9F5" d="M180 60H0v180h180z"/><path fill="#ECD069" d="M180 0c-33.1 0-60 26.9-60 60s26.9 60 60 60 60-26.9 60-60-26.9-60-60-60"/><path fill="#578BFA" d="M60 120c-33.1 0-60 26.9-60 60s26.9 60 60 60 60-26.9 60-60-26.9-60-60-60"/><path fill="#0A0B0D" fill-rule="evenodd" d="m88.703 160.707-36 36a1 1 0 0 1-1.414 0l-16-16 1.414-1.414 15.293 15.293 35.293-35.293z" clip-rule="evenodd"/><path fill="#ECD069" d="M180 120c33.1 0 60 26.9 60 60s-26.9 60-60 60z"/><path fill="#578BFA" d="M180 240c-33.1 0-60-26.9-60-60s26.9-60 60-60zm0-120V60h-60c0 33.1 26.9 60 60 60"/><path fill="#464B55" d="M0 60C0 26.9 26.9 0 60 0s60 26.9 60 60z"/><path fill="#578BFA" d="M120 60c0 33.1-26.9 60-60 60S0 93.1 0 60z"/><path fill="#0A0B0D" fill-rule="evenodd" d="M60 13c-25.957 0-47 21.043-47 47s21.043 47 47 47 47-21.043 47-47-21.043-47-47-47M11 60c0-27.062 21.938-49 49-49s49 21.938 49 49-21.938 49-49 49-49-21.938-49-49m169 73c-25.957 0-47 21.043-47 47s21.043 47 47 47 47-21.043 47-47-21.043-47-47-47m-49 47c0-27.062 21.938-49 49-49s49 21.938 49 49-21.938 49-49 49-49-21.938-49-49m49-167c-25.957 0-47 21.043-47 47s21.043 47 47 47 47-21.043 47-47-21.043-47-47-47m-49 47c0-27.062 21.938-49 49-49s49 21.938 49 49-21.938 49-49 49-49-21.938-49-49m-71 73c-25.957 0-47 21.043-47 47s21.043 47 47 47 47-21.043 47-47-21.043-47-47-47m-49 47c0-27.062 21.938-49 49-49s49 21.938 49 49-21.938 49-49 49-49-21.938-49-49" clip-rule="evenodd"/><path fill="#0A0B0D" fill-rule="evenodd" d="m59.996 82.586-7.293-7.293-1.414 1.414 8.707 8.707 8.707-8.707-1.414-1.414z" clip-rule="evenodd"/><path fill="#0A0B0D" fill-rule="evenodd" d="M61 0v84h-2V0z" clip-rule="evenodd"/></svg>