<svg xmlns="http://www.w3.org/2000/svg" fill="none" viewBox="0 0 240 240"><path fill="#464B55" d="M48 8v56h8v76H16V32h16V8z"/><path fill="#578BFA" d="M51 140.02c0 8.284-6.716 15-15 15s-15-6.716-15-15c0-8.285 6.716-15 15-15s15 6.715 15 15"/><path fill="#464B55" d="M208 0h16v116h-40V64h16V32h8z"/><path fill="#FFFFFF" fill-rule="evenodd" d="m152.657 144.981-.128 1.504a24.36 24.36 0 0 1-4.746 12.513 24.33 24.33 0 0 1-10.636 8.113l-23.725 9.29 31.426 11.822 9.584-18.68c3.975-7.738 12.417-12.121 21.046-10.934l1.317.181-7.364 16.604 11.631-10.797a21.585 21.585 0 0 1 24.044-3.628l1.258.605-17.14 17.449 2.361-1.183a21.56 21.56 0 0 1 24.014 3.514l1.024.941-17.384 9.567a21.99 21.99 0 0 1 17.037 10.131l.755 1.186-66.929 15.826-.069.155h-59.97l-12.06 20.468-1.722-1.016 12.64-21.452h59.81l25.138-56.705c-7.314-.473-14.277 3.421-17.657 10.002l-14.968 29.153-.008-.004-.002.004-26.494-9.964a62 62 0 0 0-9.317-2.696c-25.525-5.254-52.125 6.129-65.72 29.198l-13.84 23.48-1.722-1.016 13.837-23.475-.008-.005 6.58-11.17a90.1 90.1 0 0 1 46.229-38.698 69 69 0 0 1 3.434-1.205zm-12.385 52.126-24.818-9.333a64 64 0 0 0-9.718-2.802c-21.04-4.307-42.773 2.334-57.807 17.312a88.1 88.1 0 0 1 43.551-35.147l.01-.004a68 68 0 0 1 3.34-1.172l55.524-18.124a22.33 22.33 0 0 1-13.936 17.412l-28.576 11.19 36.078 13.572zm12.264 16.398 30.776-31.314v-.011l1.707-1.731 17.923-18.245a19.59 19.59 0 0 0-20.52 3.859l-15.049 13.97zm32.373-30.085-30.052 30.576 58.318-32.086a19.56 19.56 0 0 0-20.711-2.273zm10.552 10.521a19.98 19.98 0 0 1 18.32 7.952l-57.48 13.591z" clip-rule="evenodd"/><path fill="#ECD069" d="M32 79.998c-8.838 0-15.998 7.164-15.998 16.002 0-8.838-7.164-16.002-16.002-16.002 8.838 0 16.002-7.163 16.002-15.998 0 8.835 7.16 15.998 15.998 15.998"/><path fill="#578BFA" fill-rule="evenodd" d="M16 95.763V64.237l.002-.237c0 8.835 7.16 15.998 15.998 15.998-8.838 0-15.998 7.164-15.998 16.002z" clip-rule="evenodd"/><path fill="#ECD069" d="M208 24.002c8.838 0 15.998-7.164 15.998-16.002 0 8.838 7.164 16.002 16.002 16.002-8.838 0-16.002 7.163-16.002 15.998 0-8.835-7.16-15.998-15.998-15.998"/><path fill="#578BFA" fill-rule="evenodd" d="M224 8.23v31.54l-.002.23c0-8.835-7.16-15.998-15.998-15.998 8.838 0 15.998-7.164 15.998-16.002z" clip-rule="evenodd"/><path fill="#464B55" d="M72 0h96v64H72z"/><path fill="#578BFA" d="M120 112c26.51 0 48-21.49 48-48s-21.49-48-48-48-48 21.49-48 48 21.49 48 48 48"/><path fill="#FFFFFF" fill-rule="evenodd" d="M119.997 30.714c-18.384 0-33.286 14.903-33.286 33.286h-2c0-19.488 15.798-35.286 35.286-35.286 19.487 0 35.285 15.798 35.285 35.286h-2c0-18.383-14.902-33.286-33.285-33.286m.006 66.572c18.384 0 33.286-14.903 33.286-33.286h2c0 19.488-15.798 35.286-35.286 35.286-19.487 0-35.285-15.798-35.285-35.286h2c0 18.383 14.902 33.286 33.285 33.286" clip-rule="evenodd"/><path fill="#FFFFFF" d="M117.132 76.216v5.328h5.328v-5.328zm-7.824-18.24h4.08q0-1.68.384-3.12t1.2-2.496a6.4 6.4 0 0 1 2.112-1.68q1.248-.624 2.976-.624 2.592 0 4.08 1.488 1.536 1.488 1.728 4.128.096 1.776-.432 3.024a8.7 8.7 0 0 1-1.44 2.304 22 22 0 0 1-1.92 1.968 24 24 0 0 0-1.968 2.016 11.8 11.8 0 0 0-1.584 2.544q-.624 1.392-.72 3.408v2.256h4.08V71.32q0-1.248.336-2.208a8.2 8.2 0 0 1 .96-1.824q.624-.864 1.344-1.584a66 66 0 0 1 1.536-1.488 35 35 0 0 0 1.488-1.584q.768-.816 1.344-1.776a9 9 0 0 0 .912-2.112q.384-1.2.384-2.688 0-2.304-.768-4.08-.72-1.776-2.064-2.976-1.344-1.248-3.216-1.872-1.824-.672-4.08-.672-2.496 0-4.512.864a9.4 9.4 0 0 0-3.408 2.448q-1.392 1.536-2.16 3.648-.72 2.112-.672 4.56"/><path fill="#578BFA" d="M203.993 96v20H184c0-11.04 8.95-20 19.993-20"/><path fill="#578BFA" d="M203.992 96c11.057 0 20.007 8.96 20.007 20h-20.007z"/><path fill="#ECD069" d="M184 116h40c0 11.04-8.95 20-20.007 20C192.95 136 184 127.04 184 116"/><path fill="#FFFFFF" d="M220 115.998c-8.838 0-16.002-7.16-16.002-15.998 0 8.838-7.163 15.998-15.998 15.998l.236.002h-.007c8.729.123 15.769 7.239 15.769 16 0-8.148 6.088-14.872 13.964-15.873q.112-.015.226-.027.78-.088 1.581-.1h-.006z"/><path fill="#578BFA" d="m48 134 8 3v6l-8 3z"/><path fill="#578BFA" d="m40.242 127.272 7.778-3.535 4.243 4.242-3.535 7.778z"/><path fill="#578BFA" d="m30 128 3-8h6l3 8z"/><path fill="#578BFA" d="m23.273 135.757-3.535-7.778 4.243-4.242 7.778 3.535z"/><path fill="#578BFA" d="m24 134-8 3v6l8 3z"/><path fill="#578BFA" d="m23.273 144.243-3.535 7.778 4.243 4.242 7.778-3.535z"/><path fill="#578BFA" d="m30 152 3 8h6l3-8z"/><path fill="#578BFA" d="m40.242 152.728 7.778 3.535 4.243-4.242-3.535-7.778z"/><path fill="#ECD069" d="M104 131.999c-6.629 0-11.999 5.372-11.999 12.001 0-6.629-5.373-12.001-12.001-12.001 6.629 0 12.001-5.373 12.001-11.999 0 6.626 5.37 11.999 11.999 11.999"/><path fill="#FFFFFF" d="M47 140c0 6.075-4.925 11-11 11s-11-4.925-11-11 4.925-11 11-11 11 4.925 11 11"/><path fill="#FFFFFF" fill-rule="evenodd" d="M36 149a9 9 0 0 0 9-9 9 9 0 0 0-9-9 9 9 0 0 0-9 9 9 9 0 0 0 9 9m0 2c6.075 0 11-4.925 11-11s-4.925-11-11-11-11 4.925-11 11 4.925 11 11 11" clip-rule="evenodd"/><path fill="#0A0B0D" fill-rule="evenodd" d="M42 140a6 6 0 1 1-12 0 6 6 0 0 1 12 0m-6 4a4 4 0 1 0 0-8 4 4 0 0 0 0 8" clip-rule="evenodd"/></svg>