<svg xmlns="http://www.w3.org/2000/svg" fill="none" viewBox="0 0 240 240"><g clip-path="url(#a)"><path fill="#464B55" d="M85.17 0h69.67v137.63H85.17z"/><path fill="#464B55" d="M60.71 87.67h117.44v127.39H60.71z"/><path fill="#FFFFFF" d="M154.833 137.627H85.167V87.666h69.666zM60.71 182.21h117.44v32.84H60.71z"/><circle cx="120" cy="136.54" r="34.83" fill="#578BFA"/><path fill="#FFFFFF" fill-rule="evenodd" d="M112 112.683a.986.986 0 0 1 .883 1.073v1.938a1.5 1.5 0 0 1-.893 1.309 20.76 20.76 0 0 0-13.642 19.503 20.77 20.77 0 0 0 13.642 19.505 1.5 1.5 0 0 1 .893 1.309v1.937a.98.98 0 0 1-1.384.991 24.922 24.922 0 0 1-12.551-38.444 24.92 24.92 0 0 1 12.551-9.038c.157-.071.33-.1.501-.083m14.225 0a1 1 0 0 1 .501.083 24.92 24.92 0 0 1 17.352 23.74 24.92 24.92 0 0 1-17.352 23.742.986.986 0 0 1-1.384-.991v-1.937a1.38 1.38 0 0 1 .893-1.309 20.76 20.76 0 0 0 13.642-19.505 20.76 20.76 0 0 0-13.642-19.503 1.51 1.51 0 0 1-.893-1.309v-1.938a1 1 0 0 1 .083-.502.99.99 0 0 1 .8-.571m-6.074 7.213a1.036 1.036 0 0 1 1.038 1.038v3.336c3.343.595 5.476 2.499 6.168 5.662a.97.97 0 0 1-.977 1.128h-2.179a1.06 1.06 0 0 1-1.004-.768c-.589-2-2.022-2.866-4.506-2.866-2.727 0-4.153 1.226-4.153 3.192 0 1.965.81 2.955 5.025 3.564 5.703.782 8.651 2.416 8.651 7.261 0 3.717-2.734 6.679-7.025 7.357v3.281a1.04 1.04 0 0 1-1.038 1.038h-2.076a1.04 1.04 0 0 1-1.038-1.038V148.8c-4.527-.609-6.749-3.142-7.351-6.603a.968.968 0 0 1 .962-1.128h2.367a1.05 1.05 0 0 1 1.018.845c.408 2.055 1.633 3.64 5.253 3.64 2.685 0 4.589-1.502 4.589-3.738-.001-2.235-1.122-3.087-5.06-3.73-5.786-.783-8.555-2.548-8.555-7.095 0-3.516 2.624-6.257 6.777-6.838v-3.219a1.04 1.04 0 0 1 1.038-1.038z" clip-rule="evenodd"/><path fill="#F07836" d="m99.026 206.098-9.455-14.929h18.909z"/><path fill="#44C28D" d="m140.825 191.169 9.455 14.929h-18.91zm83.789-62.727c0 8.008-6.492 14.5-14.5 14.5h-40.381v-17h37.881V68.98h17z"/><path fill="#F07836" d="M15.385 140.474c0-8.008 6.492-14.499 14.5-14.5h39.183v17H32.385v56.962h-17z"/><path fill="#0A0B0D" d="M169.73 125.99h8.38v17h-8.38zm-109.02 0h8.38v17h-8.38z"/><path fill="#44C28D" d="M216.114 37.132 240 68.98h-47.771z"/><path fill="#F07836" d="M23.886 231.784 0 199.936h47.771z"/><path fill="#0A0B0D" fill-rule="evenodd" d="M120.428 76.829h-2V8.615h2z" clip-rule="evenodd"/><path fill="#0A0B0D" d="m100.88 56.867 18.548 18.549 18.548-18.549 1.415 1.415-19.963 19.962-19.963-19.962z"/></g><defs><clipPath id="a"><path fill="#FFFFFF" d="M0 0h240v240H0z"/></clipPath></defs></svg>