<svg xmlns="http://www.w3.org/2000/svg" fill="none" viewBox="0 0 240 240"><path fill="#464B55" d="M208 24H32v152h176V24Z"/><path fill="#464B55" d="M184 0H56v176h128V0Z"/><path fill="#588AF5" d="M184 24H56v152h128V24Z"/><path fill="#ECD069" d="M120.3 240a48 48 0 1 0 0-96 48 48 0 0 0 0 96Z"/><path fill="#0A0B0D" fill-rule="evenodd" d="M120.3 162.7A29.34 29.34 0 0 0 91 192h-2a31.34 31.34 0 0 1 31.3-31.3 31.34 31.34 0 0 1 31.3 31.3 31.34 31.34 0 0 1-31.3 31.3A31.4 31.4 0 0 1 92 205.43l1.8-.86a29.4 29.4 0 0 0 26.5 16.73 29.34 29.34 0 0 0 29.3-29.3 29.34 29.34 0 0 0-29.3-29.3Z" clip-rule="evenodd"/><path fill="#0A0B0D" fill-rule="evenodd" d="m91.3 202.73 18.08 3.39-.37 1.96-16.11-3.01-3.02 16.11-1.97-.36 3.39-18.09Zm25.1-21.83h2v16.4h11.4v2h-13.4v-18.4ZM104 65H88v-2h16v2Zm40 0h-32v-2h32v2Zm24 0h-16v-2h16v2Zm-24 8h-32v-2h32v2Zm24 0h-16v-2h16v2Zm-64 8H88v-2h16v2Zm40 0h-32v-2h32v2Zm24 0h-16v-2h16v2Zm-24 8h-32v-2h32v2Zm24 0h-16v-2h16v2Zm-64 8H88v-2h16v2Zm40 0h-32v-2h32v2Zm24 0h-16v-2h16v2Zm-24 8h-32v-2h32v2Zm24 0h-16v-2h16v2Zm-64 8H88v-2h16v2Zm40 0h-32v-2h32v2Zm24 0h-16v-2h16v2Zm-24 8h-32v-2h32v2Zm24 0h-16v-2h16v2Z" clip-rule="evenodd"/><path fill="#0A0B0D" d="M166 42v4H74v-4h92Zm2-2H72v8h96v-8Z"/><path fill="#0A0B0D" d="M75 176c6.6-18.6 24.4-32 45.3-32s38.7 13.4 45.3 32h4.2a52.1 52.1 0 0 0-49.5-36 52.1 52.1 0 0 0-49.5 36H75Z"/><path fill="#ECD069" d="M76 67.9a4 4 0 1 0 0-8 4 4 0 0 0 0 8ZM75.9 84a4 4 0 1 0 0-8 4 4 0 0 0 0 8Zm-.1 16a4 4 0 1 0 0-8 4 4 0 0 0 0 8Zm0 16a4 4 0 1 0 0-8 4 4 0 0 0 0 8Z"/><path fill="#0A0B0D" fill-rule="evenodd" d="M104.2 128.9h-16v-2h16v2Zm40 0h-32v-2h32v2Zm24 0h-16v-2h16v2Z" clip-rule="evenodd"/><path fill="#ECD069" d="M76 131.8a4 4 0 1 0 0-8 4 4 0 0 0 0 8Z"/></svg>