<svg xmlns="http://www.w3.org/2000/svg" fill="none" viewBox="0 0 240 240"><path fill="#464B55" d="M168 192H0v24h80v24h88v-48Z"/><path fill="#464B55" fill-rule="evenodd" d="M24 120H0c0-33.23 13.507-63.305 35.33-85.035a120.693 120.693 0 0 1 8.339-7.563C63.476 11.056 88.617.942 116.09.062 117.388.022 118.692 0 120 0c33.231 0 63.307 13.508 85.037 35.332L172.68 68.03C159.261 54.43 140.615 46 120 46c-20.256 0-38.61 8.139-51.973 21.324L52.389 51.848C34.857 69.24 24 93.353 24 120Z" clip-rule="evenodd"/><path fill="#44C28D" fill-rule="evenodd" d="M171 120h69c0-33.211-13.492-63.271-35.293-84.999l-48.995 48.59C165.147 92.846 171 105.74 171 120Z" clip-rule="evenodd"/><path fill="#464B55" fill-rule="evenodd" d="M204 120H24v33h96v39h84v-72Z" clip-rule="evenodd"/><path fill="#ECD069" d="M240 156c0 19.882-15.849 36-35.4 36s-35.4-16.118-35.4-36 15.849-36 35.4-36 35.4 16.118 35.4 36Z"/><path fill="#588AF5" fill-rule="evenodd" d="M204.479 191.912c-.173.003-.347.004-.521.004-19.859 0-35.958-16.099-35.958-35.958C168 136.099 184.099 120 203.958 120c.174 0 .348.001.521.004v71.908Z" clip-rule="evenodd"/><path fill="#0A0B0D" fill-rule="evenodd" d="M204.4 181c13.434 0 24.4-11.15 24.4-25s-10.966-25-24.4-25-24.4 11.15-24.4 25 10.966 25 24.4 25Zm0 2c14.58 0 26.4-12.088 26.4-27s-11.82-27-26.4-27c-14.58 0-26.4 12.088-26.4 27s11.82 27 26.4 27Z" clip-rule="evenodd"/><path fill="#ECD069" d="M136 120c0 8.837-7.163 16-16 16s-16-7.163-16-16 7.163-16 16-16 16 7.163 16 16Z"/><path fill="#588AF5" fill-rule="evenodd" d="M120 136c8.837 0 16-7.163 16-16h-32c0 8.837 7.163 16 16 16Z" clip-rule="evenodd"/><path fill="#0A0B0D" fill-rule="evenodd" d="m205 35-77.293 77.293-1.414-1.414 77.293-77.293L205 35Z" clip-rule="evenodd"/><path fill="#0A0B0D" fill-rule="evenodd" d="M120 130c5.523 0 10-4.477 10-10s-4.477-10-10-10-10 4.477-10 10 4.477 10 10 10Zm0 2c6.627 0 12-5.373 12-12s-5.373-12-12-12-12 5.373-12 12 5.373 12 12 12Z" clip-rule="evenodd"/><path fill="#FFFFFF" d="M192 216c0 13.255-10.745 24-24 24s-24-10.745-24-24 10.745-24 24-24 24 10.745 24 24Z"/><path fill="#ECD069" d="M167.371 240c-1.54 0-3.048-.143-4.514-.406 2.297-14.326 13.959-25.645 28.724-27.88a23.35 23.35 0 0 1 .419 4.381C192 229.296 180.972 240 167.371 240Zm-.19-48c1.448 0 2.868.143 4.248.406-2.162 14.326-13.138 25.645-27.035 27.88a24.82 24.82 0 0 1-.394-4.381C144 202.704 154.379 192 167.181 192Z"/><path fill="#ECD069" d="M167.181 240c1.448 0 2.868-.143 4.248-.406-2.162-14.326-13.138-25.645-27.035-27.88a24.82 24.82 0 0 0-.394 4.381C144 229.296 154.379 240 167.181 240Zm.19-48c-1.54 0-3.048.143-4.514.406 2.297 14.326 13.959 25.645 28.724 27.88a23.35 23.35 0 0 0 .419-4.381C192 202.704 180.972 192 167.371 192Z"/></svg>