<svg xmlns="http://www.w3.org/2000/svg" fill="none" viewBox="0 0 240 240"><path fill="#464B55" d="M168 192H0v24h80v24h88v-48Z"/><path fill="#464B55" fill-rule="evenodd" d="M24 120H0a119.63 119.63 0 0 1 43.67-92.6A119.47 119.47 0 0 1 120 0c33.23 0 63.3 13.5 85.04 35.33l-32.36 32.7A73.78 73.78 0 0 0 120 46a73.76 73.76 0 0 0-51.97 21.32L52.39 51.85A95.7 95.7 0 0 0 24 120Z" clip-rule="evenodd"/><path fill="#44C28D" fill-rule="evenodd" d="M171 120h69c0-33.21-13.5-63.27-35.3-85l-48.99 48.6A50.84 50.84 0 0 1 171 120Z" clip-rule="evenodd"/><path fill="#464B55" fill-rule="evenodd" d="M204 120H24v33h96v39h84v-72Z" clip-rule="evenodd"/><path fill="#ECD069" d="M240 156c0 19.88-15.85 36-35.4 36-19.55 0-35.4-16.12-35.4-36s15.85-36 35.4-36c19.55 0 35.4 16.12 35.4 36Z"/><path fill="#588AF5" fill-rule="evenodd" d="M204.48 191.91h-.52a35.96 35.96 0 1 1 .52-71.9v71.9Z" clip-rule="evenodd"/><path fill="#0A0B0D" fill-rule="evenodd" d="M204.4 181c13.43 0 24.4-11.15 24.4-25s-10.97-25-24.4-25c-13.43 0-24.4 11.15-24.4 25s10.97 25 24.4 25Zm0 2c14.58 0 26.4-12.09 26.4-27s-11.82-27-26.4-27c-14.58 0-26.4 12.09-26.4 27s11.82 27 26.4 27Z" clip-rule="evenodd"/><path fill="#ECD069" d="M136 120a16 16 0 1 1-32 0 16 16 0 0 1 32 0Z"/><path fill="#588AF5" fill-rule="evenodd" d="M120 136a16 16 0 0 0 16-16h-32a16 16 0 0 0 16 16Z" clip-rule="evenodd"/><path fill="#FFFFFF" fill-rule="evenodd" d="m205 35-77.3 77.3-1.41-1.42 77.3-77.3 1.4 1.42Z" clip-rule="evenodd"/><path fill="#FFFFFF" fill-rule="evenodd" d="M120 130a10 10 0 1 0 0-20 10 10 0 0 0 0 20Zm0 2a12 12 0 1 0 0-24 12 12 0 0 0 0 24Z" clip-rule="evenodd"/><path fill="#FFFFFF" d="M192 216a24 24 0 1 1-48 0 24 24 0 0 1 48 0Z"/><path fill="#ECD069" d="M167.37 240c-1.54 0-3.05-.14-4.51-.4 2.3-14.33 13.96-25.65 28.72-27.89.27 1.43.42 2.88.42 4.38 0 13.2-11.03 23.91-24.63 23.91Zm-.19-48c1.45 0 2.87.14 4.25.4-2.16 14.33-13.14 25.65-27.04 27.89-.25-1.43-.39-2.9-.39-4.38 0-13.2 10.38-23.91 23.18-23.91Z"/><path fill="#ECD069" d="M167.18 240c1.45 0 2.87-.14 4.25-.4-2.16-14.33-13.14-25.65-27.04-27.89-.25 1.43-.39 2.9-.39 4.38 0 13.2 10.38 23.91 23.18 23.91Zm.19-48c-1.54 0-3.05.14-4.51.4 2.3 14.33 13.96 25.65 28.72 27.89.27-1.43.42-2.88.42-4.38 0-13.2-11.03-23.91-24.63-23.91Z"/></svg>