<svg xmlns="http://www.w3.org/2000/svg" fill="none" viewBox="0 0 240 240"><path fill="#588AF5" d="M48 112h192v128H48V112Z"/><path fill="#FFFFFF" d="M160 128h64v64h-64v-64Z"/><path fill="#ECD069" fill-rule="evenodd" d="M224 176.7V192h-64v-15.3a38.96 38.96 0 0 1 32-16.7c13.25 0 24.95 6.6 32 16.7Z" clip-rule="evenodd"/><path fill="#0A0B0D" d="M204 144a12 12 0 1 1-24 0 12 12 0 0 1 24 0Z"/><path fill="#0A0B0D" fill-rule="evenodd" d="M144 145H64v-2h80v2Zm0 24H64v-2h80v2Zm0 24H64v-2h80v2Z" clip-rule="evenodd"/><path fill="#0A0B0D" d="M65 208h6v16h-6v-16Zm120 0h6v16h-6v-16Zm-112 0h6v16h-6v-16Zm120 0h6v16h-6v-16Zm-112 0h6v16h-6v-16Zm120 0h6v16h-6v-16Zm-112 0h6v16h-6v-16Zm120 0h6v16h-6v-16Zm-112 0h6v16h-6v-16Zm120 0h6v16h-6v-16Zm-40 0h6v16h-6v-16Zm-64 0h6v16h-6v-16Zm24 0h6v16h-6v-16Z"/><path fill="#A5C1FD" d="M0 0h192v128H0V0Z"/><path fill="#FFFFFF" d="M16 16h64v64H16V16Z"/><path fill="#ECD069" d="M96 16h80v16H96V16Z"/><path fill="#0A0B0D" fill-rule="evenodd" d="M144 49H96v-2h48v2Zm-32 32H96v-2h16v2Zm24 0h-16v-2h16v2Zm24 0h-16v-2h16v2Zm-48 16H96v-2h16v2Zm24 0h-16v-2h16v2Zm24 0h-16v-2h16v2Zm-32-32H96v-2h32v2Zm36 7a12 12 0 1 0 0-24 12 12 0 0 0 0 24Zm0-4a8 8 0 0 1 8-8 8 8 0 0 1-8-8 8 8 0 0 1-8 8 8 8 0 0 1 8 8Z" clip-rule="evenodd"/><path fill="#FFFFFF" d="M16 16h64v64H16V16Z"/><path fill="#588AF5" fill-rule="evenodd" d="M80 64.7V80H16V64.7A38.96 38.96 0 0 1 48 48c13.25 0 24.95 6.6 32 16.7Z" clip-rule="evenodd"/><path fill="#0A0B0D" d="M60 32a12 12 0 1 1-24 0 12 12 0 0 1 24 0Z"/><path fill="#FFFFFF" d="M16 104h64V88H16v16Z"/><path fill="#0A0B0D" d="M36.5 101.2h.4c.6 0 1.1-.2 1.4-.6l.9-.8c1.78-1.61 4.46-4.04 5.3-3.7.1 0 .6.3.8 2.6.1.8.6 1.5 1.3 1.8.7.3 1.5.2 2.1-.3l4.3-3.7-1.3-1.6-4.3 3.7s-.1 0-.1-.1c-.2-1.5-.5-3.7-2.1-4.3-2.1-.7-4.8 1.6-8.3 5l-1.2-2.5c-.3-.6-.8-1-1.5-1.1-.7-.1-1.3.2-1.8.7-2.4 2.6-3.2 2.3-3.2 2.3-.4-.2-1.2-1.7-.6-6.9.1-.7-.3-1.4-1-1.6-.7-.2-1.4 0-1.8.6L20 99.3l1.7 1 4.7-7.1c-.2 4.1.4 6.4 2 7.1 1.9.9 4-1.2 5.5-2.8l1.2 2.5c.3.6.9 1 1.4 1.2Zm18.5-.8 1.7 1 4.1-6.6c.8 3.6 2.6 5.9 5 6.3 2.4.4 4.8-1.2 6.6-4.4 0-.1.1-.1.1-.1l2.5 4.3 1.7-1-2.5-4.3c-.4-.6-1.1-1-1.8-1s-1.4.4-1.8 1c-1.4 2.4-3 3.7-4.5 3.4-1.7-.3-3.1-2.5-3.6-5.7-.1-.7-.5-1.2-1.2-1.3-.6-.1-1.3.2-1.6.7l-4.7 7.7ZM48 112h144v16H48v-16Z"/></svg>