<svg xmlns="http://www.w3.org/2000/svg" fill="none" viewBox="0 0 240 240"><path fill="#464B55" d="M0 0h216v152H0z"/><path fill="#464B55" d="M24 24h216v152H24z"/><path fill="#588AF5" d="M24 24h192v128H24z"/><path fill="#FFFFFF" d="M40 40h64v64H40z"/><path fill="#ECD069" d="M120 40h80v16h-80z"/><path fill="#0A0B0D" fill-rule="evenodd" d="M168 73h-48v-2h48zm-32 32h-16v-2h16zm24 0h-16v-2h16zm24 0h-16v-2h16zm-48 16h-16v-2h16zm24 0h-16v-2h16zm24 0h-16v-2h16zm-32-32h-32v-2h32zm36 3c6.627 0 12-5.373 12-12s-5.373-12-12-12-12 5.373-12 12 5.373 12 12 12m.001-4c0-4.42 3.58-8 7.999-8a8 8 0 0 1-7.999-8A8 8 0 0 1 180 80a8 8 0 0 1 8.001 8" clip-rule="evenodd"/><path fill="#FFFFFF" d="M40 128h64v-16H40z"/><path fill="#0A0B0D" d="M60.9 125.2h-.4c-.5-.2-1.1-.6-1.4-1.2l-1.2-2.5c-1.5 1.6-3.6 3.7-5.5 2.8-1.6-.7-2.2-3-2-7.1l-4.7 7.1-1.7-1 5.8-8.6c.4-.6 1.1-.8 1.8-.6s1.1.9 1 1.6c-.6 5.2.2 6.7.6 6.9 0 0 .8.3 3.2-2.3.5-.5 1.1-.8 1.8-.7s1.2.5 1.5 1.1l1.2 2.5c3.5-3.4 6.2-5.7 8.3-5 1.6.6 1.9 2.8 2.1 4.3 0 .1.1.1.1.1l4.3-3.7 1.3 1.6-4.3 3.7c-.6.5-1.4.6-2.1.3s-1.2-1-1.3-1.8c-.2-2.3-.7-2.6-.8-2.6-1-.4-4.6 3.1-6.2 4.5-.3.4-.8.6-1.4.6m19.8.2-1.7-1 4.7-7.7c.3-.5 1-.8 1.6-.7.7.1 1.1.6 1.2 1.3.5 3.2 1.9 5.4 3.6 5.7 1.5.3 3.1-1 4.5-3.4.4-.6 1.1-1 1.8-1s1.4.4 1.8 1l2.5 4.3-1.7 1-2.5-4.3s-.1 0-.1.1c-1.8 3.2-4.2 4.8-6.6 4.4s-4.2-2.7-5-6.3z"/><path fill="#FFFFFF" d="M40 40h64v64H40z"/><path fill="#ECD069" fill-rule="evenodd" d="M104 88.7V104H40V88.7C47.049 78.606 58.753 72 72 72s24.951 6.605 32 16.7" clip-rule="evenodd"/><path fill="#0A0B0D" d="M84 56c0 6.627-5.373 12-12 12s-12-5.373-12-12 5.373-12 12-12 12 5.373 12 12"/><path fill="#ECD069" d="M176 185c0 30.376-24.624 55-55 55s-55-24.624-55-55 24.624-55 55-55 55 24.624 55 55"/><path fill="#588AF5" fill-rule="evenodd" d="M175.269 176H66.734c4.296-26.094 26.957-46 54.268-46 27.31 0 49.972 19.906 54.267 46" clip-rule="evenodd"/><path fill="#FFFFFF" d="M162 185c0 22.644-18.356 41-41 41s-41-18.356-41-41 18.356-41 41-41 41 18.356 41 41"/><path fill="#0A0B0D" fill-rule="evenodd" d="M118 200c9.941 0 18-8.059 18-18s-8.059-18-18-18-18 8.059-18 18 8.059 18 18 18m0 2c11.046 0 20-8.954 20-20s-8.954-20-20-20-20 8.954-20 20 8.954 20 20 20" clip-rule="evenodd"/><path fill="#45DAF6" d="M133 182c0 8.284-6.716 15-15 15s-15-6.716-15-15 6.716-15 15-15 15 6.716 15 15"/><path fill="#0A0B0D" fill-rule="evenodd" d="m136.586 202.414-6-6 2.828-2.828 6 6z" clip-rule="evenodd"/><path fill="#0A0B0D" fill-rule="evenodd" d="m140.672 209.828-9-9 5.657-5.656 9 9z" clip-rule="evenodd"/></svg>