<svg xmlns="http://www.w3.org/2000/svg" fill="none" viewBox="0 0 240 240"><path fill="#464B55" d="M239 166c0 5.523-4.477 10-10 10H39V42c0-5.523 4.477-10 10-10h190z"/><path fill="#464B55" d="M192 134c0 5.523-4.477 10-10 10H0V10C0 4.477 4.477 0 10 0h182z"/><path fill="#578BFA" fill-rule="evenodd" d="M200 40v104H40V40z" clip-rule="evenodd"/><path fill="#0A0B0D" d="M159 63h41v56h-41z"/><path fill="#578BFA" d="M200 63h8v56h-8z"/><path fill="#0A0B0D" fill-rule="evenodd" d="M192 32H48.945A9 9 0 0 0 40 40h152z" clip-rule="evenodd"/><path fill="#FFFFFF" d="m179.867 82 8.869 8.868-8.869 8.869-8.868-8.868z"/><path fill="#578BFA" d="M160 200c0 22.091-17.909 40-40 40s-40-17.909-40-40 17.909-40 40-40 40 17.909 40 40"/><path fill="#0A0B0D" fill-rule="evenodd" d="M152.006 176H88c7.298-9.716 18.916-16 32.003-16s24.705 6.284 32.003 16" clip-rule="evenodd"/><path fill="#FFFFFF" d="M152 200c0 17.673-14.327 32-32 32s-32-14.327-32-32 14.327-32 32-32 32 14.327 32 32m-53.917 0c0 12.104 9.813 21.917 21.917 21.917s21.917-9.813 21.917-21.917-9.813-21.917-21.917-21.917S98.083 187.896 98.083 200"/><path fill="#45D9F5" d="M120 168a32 32 0 0 1 31.82 28.611 32 32 0 1 1-44.999-25.771l4.153 9.188a21.917 21.917 0 1 0 9.026-1.945z"/></svg>