<svg xmlns="http://www.w3.org/2000/svg" fill="none" viewBox="0 0 240 240"><path fill="#588AF5" d="M96 240h144V0H96z"/><path fill="#45DAF6" d="M96 216h144V24H96z"/><path fill="#0A0B0D" fill-rule="evenodd" d="M212 121H49v-2h163z" clip-rule="evenodd"/><path fill="#0A0B0D" fill-rule="evenodd" d="M175.703 82.293 213.41 120l-37.707 37.707-1.414-1.414L210.582 120l-36.293-36.293z" clip-rule="evenodd"/><path fill="#464B55" fill-rule="evenodd" d="M96 216v24H0v-24zm0-192V0H0v24z" clip-rule="evenodd"/><path fill="#0A0B0D" d="M168 14a2 2 0 1 0 0-4 2 2 0 0 0 0 4m8 212h-16v4h16z"/><path fill="#588AF5" d="M64 72c-26.51 0-48 21.49-48 48s21.49 48 48 48 48-21.49 48-48-21.49-48-48-48"/><path fill="#0A0B0D" d="M96 84.23v71.54c9.82-8.79 16-21.55 16-35.77 0-14.21-6.18-26.98-16-35.77"/><path fill="#FFFFFF" d="M79.598 129.6c0 3.31-2.69 6-6 6h-19.2c-3.31 0-6-2.69-6-6v-19.2c0-3.31 2.69-6 6-6h19.2c3.31 0 6 2.69 6 6z"/></svg>