<svg xmlns="http://www.w3.org/2000/svg" fill="none" viewBox="0 0 240 240"><g clip-path="url(#a)"><path fill="#464B55" d="M168 56H0v184h168V56Z"/><path fill="#45DAF6" d="M0 240h167.9L224 128H48L0 240Z"/><path fill="#588AF5" d="M168 128H48L0 240h167.8l.2-3.5V128Z"/><path fill="#45DAF6" d="M182.4 47.7c1.7.7 3.2 1.6 4.6 2.4 1.4.9 2.7 1.8 4 2.7 2.5 1.9 4.8 4 6.9 6.1 4.2 4.3 7.6 9 10.4 14 2.9 5 5.1 10.4 6.5 16.2.7 2.9 1.2 5.9 1.4 9.1.1 1.6.1 3.2.1 4.9-.1 1.7-.2 3.4-.6 5.2-1.1 5.4-6.4 8.9-11.8 7.8-.6-.1-1.1-.3-1.6-.5-1.8-.7-3.3-1.5-4.7-2.3-1.5-.8-2.8-1.8-4.1-2.7-2.6-1.9-4.8-3.9-6.9-6.1-4.1-4.3-7.4-9.1-10.1-14.2-2.7-5.1-4.8-10.5-6.2-16.3a64 64 0 0 1-1.5-9.1c-.1-1.6-.2-3.2-.2-4.8 0-1.7.1-3.4.4-5.2.9-5.3 5.9-8.9 11.3-8 .7.3 1.4.6 2.1.8Z"/><path fill="#45DAF6" d="M168.26 51.24c1-1.6 2.1-2.9 3.2-4.1 1.1-1.2 2.2-2.4 3.4-3.5 2.3-2.2 4.7-4.1 7.2-5.8 4.9-3.4 10.1-6 15.6-8 5.4-2 11.1-3.3 17-3.7 3-.2 6-.2 9.2.1 1.6.2 3.2.4 4.8.7 1.6.3 3.3.8 5.1 1.4 5.2 2 7.8 7.8 5.8 12.9-.2.5-.5 1.1-.7 1.5-1 1.6-2 3-3.1 4.3-1.1 1.3-2.2 2.5-3.3 3.6-2.3 2.2-4.7 4.1-7.1 5.8-4.9 3.4-10.2 5.8-15.7 7.6-5.5 1.8-11.2 3-17.1 3.4-3 .2-6 .2-9.2-.1a39.34 39.34 0 0 1-9.8-1.9 9.7 9.7 0 0 1-6-12.4c0-.5.4-1.2.7-1.8Z"/><path fill="#45DAF6" d="M171.9 43.4c-1.7-.7-3.3-1.1-5-1.5-1.6-.4-3.2-.6-4.8-.8-3.1-.4-6.2-.5-9.2-.5a71 71 0 0 0-17.3 2.7c-5.6 1.6-10.9 3.8-16 7-2.5 1.6-5 3.4-7.4 5.5-1.2 1.1-2.4 2.2-3.5 3.4-1.1 1.2-2.2 2.6-3.3 4.1a10.13 10.13 0 0 0 4.4 14.7 40.48 40.48 0 0 0 9.8 2.5c3.2.5 6.2.6 9.2.5 6-.2 11.7-1.3 17.2-3 5.5-1.8 10.8-4.1 15.9-7.3 2.5-1.6 5-3.4 7.4-5.5 1.2-1 2.4-2.1 3.5-3.3 1.1-1.2 2.3-2.5 3.3-4 3.1-4.4 2-10.5-2.4-13.6-.4-.2-1.1-.6-1.8-.9Z"/><path fill="#45DAF6" d="M172.8 62.9c.4-1.8.5-3.5.6-5.1.1-1.7.1-3.3 0-4.8-.1-3.2-.5-6.2-1.1-9.1-1.1-5.9-3-11.4-5.5-16.6-2.5-5.2-5.6-10.1-9.5-14.6-2-2.2-4.2-4.4-6.7-6.4-1.2-1-2.5-2-4-2.9-1.4-.9-2.9-1.8-4.6-2.5-5.1-2.2-11 .1-13.2 5.2-.2.5-.4 1.1-.5 1.6-.4 1.8-.7 3.5-.8 5.2-.1 1.7-.2 3.3-.1 4.9.1 3.2.5 6.2 1 9.2 1.2 5.9 3.2 11.3 5.8 16.4 2.6 5.1 5.9 10 9.8 14.5 2 2.2 4.2 4.4 6.6 6.4 1.2 1 2.5 2 3.9 2.9 1.4.9 2.8 1.8 4.5 2.6a9.8 9.8 0 0 0 13-4.6c.4-.8.7-1.6.8-2.3Z"/><path fill="#44C28D" d="M176.4 65.6a18.2 18.2 0 1 0 0-36.4 18.2 18.2 0 0 0 0 36.4Z"/><path fill="#44C28D" d="M155.5 76.4a11.1 11.1 0 1 0 0-22.2 11.1 11.1 0 0 0 0 22.2Zm23.7 9.7a10.9 10.9 0 1 0 0-21.8 10.9 10.9 0 0 0 0 21.8Z"/><path fill="#44C28D" d="M165.2 86.8a12.1 12.1 0 1 0 0-24.2 12.1 12.1 0 0 0 0 24.2Z"/><path fill="#ECD069" d="M159.6 61.9a10.9 10.9 0 1 0 0-21.8 10.9 10.9 0 0 0 0 21.8Z"/><path fill="#44C28D" d="m164.28 61.6-15.84 38.7 11.11 4.54 15.83-38.69-11.1-4.54Z"/><path fill="#ECD069" d="M184.8 72.2a10.9 10.9 0 1 0 0-21.8 10.9 10.9 0 0 0 0 21.8Z"/><path fill="#44C28D" d="M153 89.2 142.9 98l11.1 4.6-1-13.4Zm11.1 4.6 1 13.3-11.1-4.5 10.1-8.8Z"/><path fill="#0A0B0D" fill-rule="evenodd" d="M162.37 66.17a1 1 0 0 1 .55 1.3l-6.7 16.6a1 1 0 1 1-1.85-.74l6.7-16.6a1 1 0 0 1 1.3-.56Zm11.11 4.5c.5.21.75.8.54 1.3l-6.8 16.6a1 1 0 0 1-1.85-.75l6.8-16.6a1 1 0 0 1 1.3-.55Z" clip-rule="evenodd"/><path fill="#FFFFFF" fill-rule="evenodd" d="M38.46 71c11.53-.52 21.5 6.65 28.85 14 7.36 7.31 14.98 14.77 23.76 19.31 8.72 4.51 18.58 6.14 30.48 1.75a36.3 36.3 0 0 0 15.18-10.7l1.54 1.28a38.29 38.29 0 0 1-16.02 11.3c-12.5 4.6-22.94 2.89-32.1-1.85-9.1-4.7-16.92-12.4-24.26-19.68C58.64 79.15 49.2 72.5 38.54 73c-8.63.38-16.37 5.58-21.03 11.99-12.3 16.84-5.27 41.32 15.38 50.09l-.78 1.84c-21.75-9.23-29.33-35.15-16.22-53.1 4.94-6.8 13.2-12.4 22.56-12.82" clip-rule="evenodd"/><path fill="#588AF5" d="M96 55.8H56V36c0-11 9-20 20-20s20 9 20 20v19.8Z"/><path fill="#0A0B0D" fill-rule="evenodd" d="M76.2 26.8a7 7 0 1 0 0 14 7 7 0 0 0 0-14Zm-9 7a9 9 0 1 1 18 0 9 9 0 0 1-18 0Z" clip-rule="evenodd"/></g><defs><clipPath id="a"><path fill="#FFFFFF" d="M0 0h240v240H0z"/></clipPath></defs></svg>