<svg xmlns="http://www.w3.org/2000/svg" fill="none" viewBox="0 0 240 240"><g clip-path="url(#a)"><path fill="#588AF5" d="M0 220h120v-20H0v20Z"/><path fill="#45DAF6" d="M120 40H0v160h120V40Z"/><path fill="#588AF5" d="M209.99 96H60v48h149.98V96Z"/><path fill="#464B55" d="M210 96h-90v48h90V96Z"/><path fill="#588AF5" d="M120 20H0v20h120V20Z"/><path fill="#0A0B0D" d="M60 216.67a6.67 6.67 0 1 0 0-13.34 6.67 6.67 0 0 0 0 13.34Z"/><path stroke="#0A0B0D" stroke-miterlimit="10" stroke-width="2" d="M75 30H45"/><path fill="#44C28D" d="M216 109.17a24 24 0 1 0 0-48 24 24 0 0 0 0 48Z"/><path fill="#588AF5" d="M210 95.8v12.61a23.99 23.99 0 0 1-15.5-12.61H210Z"/><path fill="#0A0B0D" fill-rule="evenodd" d="m212.47 90.13 12.67-13.04 1.43 1.4L212.47 93l-7.22-7.42 1.43-1.4 5.79 5.95Z" clip-rule="evenodd"/><path fill="#0A0B0D" d="M84 120a24 24 0 1 1-47.99.01A24 24 0 0 1 84 120Z"/><path fill="#FFFFFF" d="M48.02 129.93h24v-2.53a7.42 7.42 0 0 0-7.42-7.43h-9.17a7.42 7.42 0 0 0-7.4 7.43v2.53Zm11.99-11.12a6.45 6.45 0 0 1-6.44-6.46 6.45 6.45 0 1 1 12.88 0 6.45 6.45 0 0 1-6.44 6.46Z"/><path fill="#0A0B0D" fill-rule="evenodd" d="M132.48 109.9Zm.16.73.03.3c.1 1.09.05 2.66-.02 4.37l-.04.99a91.53 91.53 0 0 0-.11 3.96c0 .74.03 1.42.1 1.98.04.28.09.56.17.81.07.23.19.52.4.77.36.4.84.62 1.39.57.46-.05.85-.28 1.14-.5a9.83 9.83 0 0 0 1.64-1.73l.51-.65a25.04 25.04 0 0 1 1.17-1.42l.14.43.01.05c.09.27.19.58.32.9a5 5 0 0 0 1.29 1.96c.68.6 1.6.97 2.77.97 1.32 0 2.45-.7 3.38-1.54a22.57 22.57 0 0 0 2.84-3.29c.72-.93 1.36-1.77 2-2.4.74-.75 1.25-1 1.6-1 .16 0 .21.04.24.07.06.05.15.17.25.43.16.45.24 1 .34 1.71l.1.67c.15.93.37 2.06.96 2.95a3.58 3.58 0 0 0 3.2 1.62h5.26v-2h-5.27c-.85 0-1.25-.3-1.52-.71a5.7 5.7 0 0 1-.65-2.17l-.08-.52c-.1-.73-.23-1.57-.46-2.23a3 3 0 0 0-.8-1.25 2.32 2.32 0 0 0-1.58-.57c-1.2 0-2.22.78-3 1.58-.74.74-1.47 1.69-2.17 2.6l-.25.32c-.8 1.04-1.57 2-2.35 2.7-.79.71-1.45 1.03-2.04 1.03-.73 0-1.16-.21-1.45-.47a3.06 3.06 0 0 1-.75-1.2l-.28-.78c0-.02 0-.04-.02-.06-.07-.24-.16-.5-.25-.73-.1-.24-.24-.55-.46-.81a1.5 1.5 0 0 0-1.16-.53c-.5 0-.9.28-1.15.47-.27.21-.53.49-.77.76-.33.38-.7.85-1.04 1.3l-.45.57a9.65 9.65 0 0 1-1.15 1.28 14.58 14.58 0 0 1-.12-1.95c0-1.12.05-2.46.1-3.84l.05-1.02c.07-1.69.12-3.38.01-4.62-.04-.6-.14-1.2-.35-1.67-.1-.23-.3-.55-.63-.75-.4-.24-.82-.24-1.2-.1-.49.17-.91.58-1.23.94-.35.4-.71.9-1.07 1.44a68 68 0 0 0-1.95 3.28l-.26.46a43.4 43.4 0 0 1-2.13 3.47c-.33.45-.6.79-.84 1l-.22.17H95.24v2h29.6c.64 0 1.17-.38 1.51-.7.38-.34.76-.8 1.12-1.3.72-1.01 1.5-2.34 2.24-3.64l.26-.46a58.5 58.5 0 0 1 1.89-3.18c.29-.44.55-.8.78-1.09Zm6.73 9.15Zm48.97-4.04c.8-.8 1.8-1.58 3.01-1.58.61 0 1.15.2 1.58.57a3 3 0 0 1 .8 1.25c.24.66.36 1.5.47 2.23l.07.52c.15.93.33 1.67.66 2.17.26.4.66.71 1.51.71h5.27v2h-5.27a3.6 3.6 0 0 1-3.19-1.62c-.58-.9-.8-2.02-.95-2.95l-.1-.66c-.1-.7-.2-1.27-.35-1.71-.1-.27-.2-.39-.25-.44-.03-.03-.08-.07-.25-.07-.34 0-.85.24-1.59.99a26.5 26.5 0 0 0-2 2.41l-.25.33a22.64 22.64 0 0 1-2.59 2.96 5.16 5.16 0 0 1-3.38 1.54 4.05 4.05 0 0 1-2.77-.97 4.99 4.99 0 0 1-1.3-1.96l-.31-.9-.01-.04-.15-.43c0 .02-.02.03-.03.05-.2.23-.39.49-.6.79l-.5.66a8.99 8.99 0 0 1-1.56 1.67c-.64.5-1.44.89-2.4.89h-3.3v-2h3.3c.39 0 .76-.15 1.17-.47.41-.32.8-.78 1.2-1.3l.4-.54c.25-.35.52-.71.76-1 .19-.22.41-.46.67-.65.25-.18.61-.38 1.06-.38.52 0 .9.25 1.16.53.22.26.36.57.46.81a11.67 11.67 0 0 1 .27.8l.28.78c.2.5.43.91.75 1.2.29.25.72.46 1.45.46.59 0 1.25-.32 2.04-1.03a20.5 20.5 0 0 0 2.35-2.7l.25-.32c.7-.91 1.43-1.86 2.16-2.6Zm-11.01 4.04Z" clip-rule="evenodd"/></g><defs><clipPath id="a"><path fill="#FFFFFF" d="M0 20h240v200H0z"/></clipPath></defs></svg>