<svg xmlns="http://www.w3.org/2000/svg" fill="none" viewBox="0 0 241 240"><path fill="#578BFA" d="M120 193c-40.25 0-73-32.75-73-73s32.75-73 73-73v10c-34.74 0-63 28.26-63 63s28.26 63 63 63 63-28.26 63-63h10c0 40.25-32.75 73-73 73"/><path fill="#464B55" d="M193 120h-10c0-34.74-28.26-63-63-63V47c40.25 0 73 32.75 73 73"/><path fill="#0A0B0D" d="M186.28 109.75c-2.4-15.67-10.36-30.04-22.41-40.47A67 67 0 0 0 120 52.94v-1.89c16.57 0 32.59 5.97 45.11 16.8 12.39 10.72 20.57 25.5 23.04 41.61z"/><path fill="#578BFA" d="M118.703 60a8 8 0 1 0 0-16 8 8 0 0 0 0 16"/><path fill="#0A0B0D" d="M188 125a5 5 0 1 0-.001-10.001A5 5 0 0 0 188 125m-5.141-17.51 7.98-.84-3.1 7.06z"/><path fill="#FFFFFF" d="M120.09 240H120v-2zm3.87-.06-.07-2c.63-.02 1.27-.05 1.9-.08l.1 2c-.64.03-1.29.06-1.93.08m5.8-.33-.16-1.99c.63-.05 1.27-.11 1.9-.17l.19 1.99c-.64.06-1.28.12-1.93.17m5.77-.61-.26-1.98c.63-.08 1.26-.17 1.89-.26l.29 1.98c-.64.09-1.28.18-1.92.26m5.74-.88-.35-1.97c.62-.11 1.25-.23 1.87-.35l.38 1.96zm5.69-1.16-.45-1.95c.62-.14 1.24-.29 1.85-.44l.48 1.94c-.63.16-1.25.3-1.88.45m5.63-1.44-.54-1.93c.61-.17 1.22-.35 1.83-.53l.57 1.92q-.93.285-1.86.54m5.55-1.71-.64-1.9c.6-.2 1.2-.41 1.8-.62l.67 1.89zm5.46-1.98-.73-1.86c.59-.23 1.18-.47 1.77-.71l.76 1.85zm5.34-2.24-.81-1.83c.58-.26 1.15-.52 1.72-.79l.85 1.81c-.58.27-1.17.54-1.75.8zm5.23-2.49-.9-1.79c.56-.29 1.13-.58 1.68-.87l.93 1.77c-.57.3-1.14.59-1.71.89m5.1-2.74-.99-1.74c.55-.31 1.1-.63 1.64-.95l1.02 1.72c-.55.33-1.11.65-1.67.97m4.97-2.99-1.07-1.69c.53-.34 1.07-.68 1.59-1.03l1.1 1.67zm4.82-3.22-1.15-1.63c.52-.37 1.03-.73 1.54-1.11l1.18 1.62c-.52.38-1.04.75-1.57 1.13zm4.66-3.45-1.23-1.58c.5-.39 1-.78 1.49-1.18l1.25 1.56c-.5.4-1.01.8-1.51 1.2m4.49-3.67-1.3-1.52c.48-.41.96-.83 1.43-1.25l1.33 1.49c-.48.43-.97.85-1.46 1.27zm4.31-3.89-1.37-1.45c.46-.44.92-.88 1.37-1.32l1.4 1.43c-.46.45-.93.9-1.4 1.34m4.12-4.09-1.45-1.38c.44-.46.88-.92 1.31-1.38l1.46 1.36c-.44.47-.88.94-1.33 1.41zm3.92-4.28-1.51-1.31c.42-.48.83-.96 1.24-1.45l1.53 1.29zm3.71-4.47-1.57-1.24 1.17-1.5 1.59 1.21c-.39.51-.79 1.02-1.19 1.53m3.49-4.64-1.63-1.16c.37-.52.73-1.04 1.1-1.56l1.65 1.14-1.11 1.59zm3.26-4.81-1.68-1.08c.34-.53.68-1.07 1.02-1.61l1.7 1.05c-.34.55-.69 1.1-1.04 1.64m3.03-4.96-1.73-1c.32-.55.63-1.1.94-1.66l1.75.97c-.31.57-.63 1.13-.96 1.69m2.79-5.11-1.78-.91c.29-.57.58-1.13.86-1.7l1.79.89c-.29.58-.58 1.16-.87 1.73zm2.53-5.24-1.82-.83.78-1.74 1.83.8c-.26.59-.52 1.18-.79 1.77m2.28-5.36-1.86-.74c.24-.59.46-1.18.69-1.78l1.87.71c-.23.61-.46 1.21-.7 1.81m2.01-5.47-1.89-.64c.21-.6.41-1.21.6-1.81l1.9.61c-.2.62-.4 1.23-.61 1.84m1.74-5.55-1.92-.55.51-1.83 1.93.52c-.17.62-.34 1.24-.52 1.86m1.47-5.62-1.95-.46c.14-.62.29-1.24.42-1.86l1.95.43c-.14.63-.28 1.26-.43 1.89zm1.19-5.68-1.97-.36c.12-.62.22-1.25.33-1.87l1.97.33-.33 1.91zm.91-5.73-1.98-.27.24-1.89 1.99.23-.24 1.92zm.63-5.77-1.99-.17.15-1.9 1.99.14c-.04.64-.09 1.29-.15 1.93m.36-5.79-2-.08c.03-.63.04-1.26.06-1.9l2 .04c-.01.65-.03 1.29-.06 1.94m-1.92-5.78c0-.64-.02-1.27-.04-1.9l2-.05c.02.64.03 1.29.04 1.93zm-.19-5.7-.12-1.89 1.99-.15c.05.64.09 1.28.13 1.92zm-.46-5.68c-.07-.63-.14-1.26-.22-1.89l1.98-.24c.08.64.15 1.28.22 1.92l-1.99.21zm-.74-5.65c-.1-.63-.2-1.25-.31-1.88l1.97-.34c.11.63.21 1.27.31 1.9l-1.98.31zm-1.01-5.61c-.13-.62-.26-1.24-.4-1.86l1.95-.43c.14.63.27 1.26.4 1.89l-1.96.4zm-1.28-5.56c-.16-.61-.32-1.22-.49-1.83l1.93-.53c.17.62.34 1.24.5 1.87l-1.94.5zm-1.55-5.49c-.19-.61-.38-1.21-.57-1.81l1.9-.62c.2.61.4 1.23.59 1.84l-1.91.59zM231 79.69c-.22-.6-.44-1.19-.67-1.78l1.87-.71c.23.6.45 1.2.67 1.81l-1.88.69zm-2.08-5.31c-.24-.58-.49-1.17-.75-1.75l1.83-.8c.26.59.51 1.18.76 1.78l-1.85.77zm-2.33-5.21c-.27-.57-.55-1.14-.83-1.71l1.79-.89c.29.58.57 1.16.85 1.74l-1.8.86zm-2.58-5.09c-.3-.56-.61-1.11-.92-1.67l1.74-.98c.32.56.63 1.13.93 1.7l-1.76.95zm-2.83-4.96c-.33-.54-.66-1.08-1-1.62l1.7-1.06c.34.55.68 1.1 1.01 1.65zm-3.06-4.81c-.35-.53-.71-1.05-1.07-1.57l1.64-1.14c.37.53.73 1.06 1.09 1.6l-1.66 1.12zm-3.29-4.66c-.38-.51-.76-1.01-1.15-1.52l1.59-1.22c.39.51.78 1.03 1.17 1.54l-1.61 1.19zM35.15 204.85c-.46-.46-.91-.92-1.36-1.38l1.44-1.39c.44.46.89.91 1.34 1.36l-1.41 1.41zm-4-4.2-1.29-1.44 1.5-1.32c.42.48.84.95 1.27 1.42zm-3.8-4.39c-.41-.5-.82-1-1.22-1.5l1.56-1.25c.4.5.8.99 1.2 1.48zm-3.58-4.57c-.38-.52-.77-1.04-1.14-1.56l1.62-1.17c.37.51.75 1.03 1.13 1.54l-1.6 1.2zm-3.36-4.73c-.36-.53-.72-1.07-1.07-1.61l1.68-1.09 1.05 1.59-1.66 1.12zm-3.12-4.89c-.33-.55-.66-1.11-.99-1.66l1.73-1.01c.32.55.64 1.09.97 1.63zm-2.89-5.04c-.31-.57-.61-1.13-.91-1.71l1.77-.92c.29.56.59 1.12.89 1.68l-1.76.95zm-2.64-5.17c-.28-.58-.55-1.16-.82-1.75l1.82-.84c.27.58.53 1.15.81 1.72l-1.8.87zm-2.38-5.29c-.25-.59-.5-1.19-.74-1.79l1.86-.75c.24.59.48 1.17.72 1.76zm-2.12-5.4c-.22-.6-.44-1.21-.65-1.82l1.89-.66c.21.6.42 1.2.64 1.79zm-1.86-5.49c-.19-.61-.38-1.23-.56-1.85l1.92-.56c.18.61.36 1.21.55 1.82zm-1.59-5.58c-.16-.62-.32-1.25-.47-1.87l1.94-.47c.15.62.3 1.23.46 1.84l-1.94.5zm-1.31-5.65c-.13-.63-.25-1.26-.38-1.89l1.96-.38c.12.62.24 1.24.37 1.86l-1.96.4zm-1.04-5.7c-.1-.63-.19-1.27-.28-1.91l1.98-.28c.09.63.18 1.25.28 1.88zm-.76-5.74c-.07-.64-.13-1.28-.19-1.92l1.99-.18c.06.63.12 1.26.19 1.89zm-.48-5.78c-.04-.64-.07-1.29-.1-1.93l2-.09c.03.63.06 1.27.1 1.9zM0 121.45v-1.94h2v1.91zm2.07-5.73-2-.07c.02-.65.05-1.29.08-1.93l2 .1c-.03.63-.06 1.27-.08 1.9m.34-5.7-1.99-.17q.075-.96.18-1.92l1.99.2c-.06.63-.12 1.26-.17 1.9zm.61-5.67-1.98-.26q.12-.96.27-1.92l1.98.3zm.89-5.64-1.97-.36.36-1.9 1.96.39-.36 1.87zm1.16-5.59-1.95-.46c.15-.63.3-1.26.45-1.88l1.94.48c-.15.61-.3 1.23-.45 1.85zm1.43-5.53-1.92-.55c.18-.62.36-1.24.55-1.86l1.91.58zm1.7-5.46-1.89-.64c.21-.61.42-1.23.64-1.83l1.88.67zm1.97-5.38-1.86-.73c.24-.6.48-1.2.73-1.8l1.85.76c-.24.59-.48 1.18-.71 1.77zm2.23-5.27-1.82-.82c.27-.59.54-1.18.81-1.76l1.81.85c-.27.58-.54 1.15-.8 1.73m2.48-5.15-1.78-.91c.29-.58.59-1.15.9-1.72l1.76.94c-.3.56-.59 1.12-.88 1.69m2.73-5.03-1.73-1c.32-.56.65-1.12.98-1.67l1.72 1.02c-.32.55-.65 1.09-.96 1.65zm2.97-4.89-1.68-1.08c.35-.54.7-1.08 1.06-1.62l1.67 1.11c-.35.53-.7 1.06-1.04 1.6zm3.2-4.74-1.63-1.16c.37-.53.75-1.05 1.14-1.57l1.61 1.19c-.38.51-.75 1.03-1.12 1.54m3.42-4.58-1.57-1.24c.4-.51.8-1.01 1.21-1.51l1.55 1.26c-.4.49-.8.99-1.19 1.49m3.64-4.4-1.51-1.31c.42-.49.85-.97 1.28-1.45l1.49 1.33c-.42.47-.84.95-1.26 1.43m3.84-4.22-1.45-1.38c.45-.47.89-.93 1.35-1.39L36 37.1c-.45.45-.89.91-1.33 1.37zm4.04-4.03-1.38-1.45 1.41-1.32 1.36 1.47c-.47.43-.93.86-1.39 1.3m4.23-3.83-1.31-1.51c.49-.42.98-.84 1.47-1.25l1.28 1.54c-.49.41-.97.82-1.45 1.23zm4.41-3.62-1.23-1.57c.51-.4 1.02-.79 1.53-1.18l1.21 1.6c-.51.38-1.01.77-1.51 1.16zm4.58-3.4-1.16-1.63c.53-.37 1.06-.74 1.59-1.1l1.13 1.65zm4.73-3.18-1.07-1.69c.54-.34 1.09-.69 1.64-1.02l1.05 1.7c-.54.33-1.08.67-1.61 1.01zm4.88-2.95-.99-1.74c.56-.32 1.12-.63 1.68-.94l.96 1.75c-.55.31-1.11.62-1.66.93zm5.01-2.7-.91-1.78c.57-.29 1.15-.58 1.73-.86l.88 1.8c-.57.28-1.13.56-1.7.85zm5.13-2.46-.82-1.82c.59-.26 1.17-.52 1.77-.78l.79 1.84c-.58.25-1.16.5-1.74.76m5.25-2.21-.73-1.86c.6-.24 1.2-.47 1.81-.69l.7 1.87c-.59.22-1.19.45-1.78.68m5.36-1.95-.64-1.89c.61-.21 1.22-.41 1.84-.6l.61 1.91c-.61.19-1.21.39-1.81.59zm5.45-1.69-.54-1.92c.62-.18 1.24-.35 1.87-.51l.51 1.93c-.61.16-1.23.33-1.84.5m5.53-1.42-.45-1.95q.945-.225 1.89-.42l.42 1.96c-.62.13-1.24.27-1.86.41m5.59-1.15-.36-1.97c.63-.11 1.27-.22 1.91-.33l.33 1.97c-.63.1-1.25.21-1.88.32zm5.64-.88-.26-1.98 1.92-.24.23 1.99c-.63.07-1.26.15-1.89.23m5.68-.61L110.02.4c.64-.05 1.29-.1 1.93-.14l.13 2c-.63.04-1.26.09-1.9.14zm5.7-.33-.07-2c.64-.02 1.29-.04 1.93-.05l.04 2c-.63.01-1.27.03-1.9.05"/><path fill="#464B55" d="M9.957 77.61c-.38 0-.77-.07-1.14-.23a3.006 3.006 0 0 1-1.63-3.92c1.83-4.44 3.96-8.82 6.31-13.02 3.07-5.48 6.6-10.77 10.48-15.72a3.003 3.003 0 0 1 4.21-.51c1.3 1.02 1.53 2.91.51 4.21a117 117 0 0 0-9.97 14.94 117 117 0 0 0-6 12.38 3.01 3.01 0 0 1-2.77 1.86z"/><path fill="#FFFFFF" d="M213.61 48.15C191.06 18.82 156.94 2 120 2V0c37.57 0 72.27 17.1 95.19 46.93l-1.59 1.22zM119.998 240c-32.05 0-62.19-12.48-84.85-35.15l1.41-1.41c22.29 22.29 51.92 34.56 83.44 34.56zm94.932-123.59c-.02-.63-.05-1.27-.09-1.9l2-.11c.04.64.07 1.29.09 1.94l-2 .08zm-.38-5.69c-.06-.63-.13-1.26-.2-1.89l1.99-.23c.08.64.14 1.29.21 1.93l-1.99.19zm-.72-5.65c-.1-.63-.2-1.25-.31-1.87l1.97-.35c.11.64.22 1.27.32 1.91zm-1.06-5.6c-.14-.62-.28-1.24-.43-1.85l1.94-.47c.15.63.3 1.26.44 1.89zm-1.39-5.52c-.17-.61-.35-1.22-.54-1.82l1.91-.59c.19.62.37 1.24.55 1.86l-1.92.54zm-1.72-5.43c-.21-.6-.43-1.19-.65-1.79l1.87-.7c.23.6.45 1.21.66 1.82l-1.89.66zm-2.05-5.31c-.24-.58-.5-1.16-.75-1.74l1.83-.81c.26.59.52 1.18.77 1.78l-1.84.77zm-2.36-5.17c-.28-.57-.57-1.13-.86-1.69l1.78-.92c.3.57.59 1.15.87 1.72l-1.79.88zm-2.66-5.02c-.31-.55-.63-1.1-.96-1.64l1.72-1.03c.33.55.66 1.11.98 1.67l-1.74.99zm-2.97-4.86c-.34-.53-.7-1.05-1.05-1.58l1.65-1.13c.36.53.72 1.07 1.07 1.61l-1.68 1.09zm-3.25-4.67c-.38-.51-.76-1.01-1.15-1.51l1.58-1.22c.39.51.78 1.03 1.17 1.54l-1.61 1.19zm-3.53-4.47q-.615-.735-1.23-1.44l1.51-1.31 1.26 1.47-1.53 1.28zm-3.79-4.25c-.44-.46-.88-.92-1.32-1.37l1.43-1.4c.45.46.9.93 1.35 1.4l-1.45 1.37zM54.14 51.52l-1.39-1.44c.47-.45.94-.89 1.41-1.33l1.36 1.47c-.47.43-.93.87-1.38 1.3m130.88-.78c-.46-.43-.93-.86-1.4-1.29l1.34-1.49c.48.43.96.87 1.43 1.31l-1.37 1.46zM58.37 47.69l-1.3-1.52c.49-.42.99-.83 1.49-1.24l1.27 1.55c-.49.4-.98.81-1.46 1.22zm122.38-.73q-.735-.615-1.47-1.2l1.25-1.56c.5.4 1.01.81 1.5 1.23l-1.28 1.54zM62.81 44.12l-1.21-1.6c.52-.39 1.04-.77 1.56-1.15l1.18 1.62c-.51.37-1.02.75-1.53 1.13m113.45-.68c-.51-.38-1.02-.75-1.54-1.11l1.15-1.63c.53.37 1.05.75 1.58 1.14l-1.19 1.61zM67.45 40.82l-1.11-1.67c.54-.36 1.08-.71 1.62-1.06l1.07 1.69c-.54.34-1.07.69-1.59 1.04zm104.11-.62c-.53-.34-1.07-.68-1.61-1.02l1.05-1.7c.55.34 1.1.69 1.64 1.04l-1.09 1.68zm-99.28-2.39-1.01-1.73c.56-.33 1.12-.64 1.69-.96l.97 1.75c-.55.31-1.1.62-1.65.94m94.4-.57c-.55-.31-1.11-.62-1.67-.92l.95-1.76c.57.31 1.14.62 1.7.94l-.99 1.74zM77.29 35.1l-.9-1.79c.58-.29 1.16-.58 1.74-.85l.86 1.8c-.57.27-1.14.55-1.7.84m84.34-.52c-.57-.28-1.14-.55-1.72-.82l.84-1.81c.59.27 1.17.55 1.75.84l-.88 1.8zm-79.18-1.89-.79-1.84c.59-.26 1.19-.51 1.79-.75l.75 1.85c-.59.24-1.17.48-1.75.73zm73.97-.46c-.59-.24-1.17-.48-1.77-.71l.73-1.86c.6.24 1.21.48 1.8.73l-.77 1.85zm-68.67-1.64-.68-1.88c.61-.22 1.22-.43 1.83-.64l.64 1.9c-.6.2-1.2.41-1.79.62m63.34-.4c-.6-.21-1.2-.41-1.81-.61l.62-1.9c.62.2 1.23.41 1.85.62l-.65 1.89zm-57.93-1.37-.56-1.92c.62-.18 1.24-.36 1.86-.53l.53 1.93c-.61.17-1.22.34-1.83.52m52.48-.33c-.61-.17-1.22-.33-1.83-.49l.5-1.94c.63.16 1.25.33 1.88.5l-.54 1.93zm-46.97-1.11-.45-1.95c.63-.14 1.26-.28 1.89-.41l.41 1.96c-.62.13-1.24.26-1.85.4m41.44-.26c-.62-.13-1.24-.26-1.86-.38l.38-1.96c.64.12 1.27.25 1.9.39l-.42 1.96zm-35.86-.84-.33-1.97c.64-.11 1.27-.21 1.91-.3l.29 1.98c-.63.09-1.25.19-1.87.29m30.26-.19c-.62-.1-1.25-.19-1.88-.27l.27-1.98c.64.09 1.28.18 1.92.28l-.3 1.98zm-24.62-.58-.21-1.99c.64-.07 1.28-.13 1.93-.18l.17 1.99q-.945.075-1.89.18m18.96-.12c-.63-.06-1.26-.11-1.89-.16l.15-1.99c.65.05 1.29.1 1.93.16l-.18 1.99zm-13.28-.31-.09-2c.64-.03 1.29-.05 1.94-.07l.05 2c-.64.02-1.27.04-1.9.07m7.6-.05c-.63-.02-1.26-.03-1.9-.04l.03-2c.65 0 1.29.02 1.94.04l-.06 2z"/><path fill="#FFFFFF" d="M25 120h-2c0-26.62 10.57-51.46 29.77-69.92l1.39 1.44C35.36 69.6 25.01 93.92 25.01 120zm169.853 61.7-1.541-1.27c13.99-16.95 21.691-38.41 21.691-60.43h2c0 22.48-7.87 44.39-22.15 61.7m-76.59 35.28c-.65-.01-1.29-.03-1.94-.05l.07-2c.63.02 1.27.04 1.9.05l-.04 2zm3.88 0-.04-2q.945-.015 1.89-.06l.08 2c-.64.03-1.29.05-1.93.06m-9.7-.27c-.65-.05-1.29-.11-1.93-.17l.19-1.99c.63.06 1.26.12 1.9.17l-.15 1.99zm15.5-.03-.16-1.99c.63-.05 1.26-.11 1.89-.17l.2 1.99-1.93.18zm-21.29-.59c-.64-.09-1.28-.18-1.92-.28l.31-1.98c.63.1 1.25.19 1.88.28zm27.08-.05-.28-1.98c.63-.09 1.25-.18 1.88-.29l.32 1.97c-.64.1-1.28.2-1.92.29zm-32.82-.91c-.64-.13-1.27-.26-1.9-.4l.43-1.95q.93.21 1.86.39zm38.55-.08-.4-1.96c.62-.12 1.24-.26 1.85-.4l.44 1.95c-.63.14-1.26.28-1.89.41m-44.22-1.24-1.88-.51.55-1.92c.61.17 1.22.34 1.83.5l-.51 1.93zm49.87-.09-.52-1.93q.915-.24 1.83-.51l.55 1.92c-.62.18-1.24.35-1.86.52m-55.46-1.56c-.62-.2-1.23-.41-1.84-.63l.67-1.89c.6.21 1.2.41 1.8.61l-.62 1.9zm61.02-.11-.63-1.9c.6-.2 1.2-.41 1.79-.62l.67 1.88q-.915.33-1.83.63zm-66.5-1.87c-.6-.24-1.2-.48-1.8-.74l.78-1.84c.58.25 1.17.49 1.76.72zm71.95-.13-.75-1.86c.59-.24 1.17-.48 1.75-.72l.78 1.84c-.59.25-1.19.5-1.79.74zm-77.29-2.18c-.59-.28-1.17-.56-1.75-.84l.89-1.79c.57.28 1.14.55 1.71.82zm82.62-.14-.86-1.81c.57-.27 1.14-.55 1.71-.83l.89 1.79c-.58.29-1.16.57-1.74.85m-87.81-2.49c-.57-.31-1.13-.62-1.7-.95l.99-1.74c.55.31 1.1.62 1.66.93l-.96 1.76zm92.99-.16-.96-1.75c.56-.31 1.11-.62 1.66-.93l1 1.73c-.56.32-1.12.64-1.69.95zm-98.02-2.78c-.55-.34-1.09-.69-1.63-1.04l1.09-1.68c.53.35 1.07.69 1.6 1.02zm103.03-.18-1.07-1.69c.54-.34 1.07-.68 1.6-1.03l1.1 1.67c-.54.36-1.08.71-1.63 1.05m-107.87-3.06c-.53-.38-1.05-.76-1.57-1.14l1.19-1.61c.51.38 1.02.75 1.54 1.12zm112.69-.19-1.17-1.62c.52-.37 1.03-.74 1.53-1.12l1.2 1.6c-.52.39-1.04.77-1.56 1.15zm-117.33-3.33-1.5-1.23 1.29-1.53c.49.41.97.81 1.47 1.21l-1.26 1.56zm121.95-.21-1.26-1.55c.49-.4.98-.8 1.46-1.21l1.29 1.53c-.49.42-.99.83-1.49 1.24zm-126.37-3.58c-.48-.44-.95-.88-1.42-1.32l1.37-1.45c.46.43.92.87 1.39 1.29l-1.35 1.48zm130.77-.22-1.35-1.47c.47-.43.93-.86 1.39-1.3l1.38 1.45c-.47.45-.94.89-1.42 1.32m-134.96-3.82c-.45-.46-.9-.93-1.34-1.4l1.46-1.37c.43.46.87.92 1.31 1.37zm139.13-.23-1.44-1.39c.44-.46.88-.92 1.31-1.38l1.46 1.36c-.44.47-.89.94-1.33 1.41m-143.07-4.05c-.42-.49-.84-.98-1.25-1.48l1.54-1.28c.4.49.81.97 1.23 1.45l-1.51 1.31zm146.99-.25-1.52-1.3c.41-.48.82-.96 1.22-1.45l1.54 1.27c-.41.5-.83 1-1.25 1.49zm-150.66-4.27c-.39-.51-.78-1.03-1.16-1.55l1.61-1.19c.38.51.76 1.02 1.14 1.52l-1.59 1.21zm-3.4-4.72c-.36-.54-.72-1.08-1.07-1.62l1.68-1.09q.51.795 1.05 1.59zm-3.11-4.92c-.33-.56-.65-1.12-.97-1.68l1.74-.98c.31.55.63 1.1.95 1.64zm-2.81-5.09-.18-.34c-.23-.46-.47-.93-.69-1.39l1.8-.88c.22.46.45.92.68 1.37l.17.33-1.78.92zm-2.5-5.26c-.26-.59-.51-1.19-.76-1.78l1.85-.77c.24.58.49 1.17.75 1.75l-1.83.8zm-2.17-5.4c-.22-.61-.44-1.21-.65-1.83l1.89-.66c.21.6.42 1.2.64 1.79l-1.88.69zm-1.84-5.52q-.285-.93-.54-1.86l1.93-.54c.17.61.35 1.22.53 1.82l-1.91.58zm-1.51-5.62c-.15-.63-.29-1.26-.43-1.89l1.96-.42c.13.62.27 1.24.42 1.85zm-1.17-5.7c-.11-.63-.21-1.27-.31-1.91l1.98-.3c.1.63.2 1.25.31 1.87l-1.97.34zm-.82-5.76c-.07-.64-.14-1.28-.2-1.93l1.99-.18c.06.63.12 1.26.19 1.89l-1.99.22zm-.48-5.79c-.03-.64-.06-1.29-.08-1.94l2-.06c.02.63.05 1.27.08 1.9z"/><path fill="#44C28D" d="M209 28c-6.63 0-12 5.37-12 12s5.37 12 12 12 12-5.37 12-12-5.37-12-12-12"/><path fill="#0A0B0D" d="m206.448 44.87-4.37-4.5 1.08-1.04 3.29 3.38 7.35-7.56 1.08 1.05z"/><path fill="#44C28D" d="M34.18 190.39c-6.63 0-12 5.37-12 12s5.37 12 12 12 12-5.37 12-12-5.37-12-12-12"/><path fill="#464B55" d="M192 197c6.63 0 12-5.37 12-12s-5.37-12-12-12-12 5.37-12 12 5.37 12 12 12"/><path fill="#578BFA" d="M56.61 60c6.63 0 12-5.37 12-12s-5.37-12-12-12-12 5.37-12 12 5.37 12 12 12"/><path fill="#FFFFFF" d="M62.82 53.85H50.39v-1.31c0-2.12 1.72-3.84 3.84-3.84h4.75c2.12 0 3.84 1.72 3.84 3.84zm-6.207-6.01a3.34 3.34 0 0 0 3.34-3.34c0-1.85-1.49-3.34-3.34-3.34s-3.34 1.49-3.34 3.34 1.49 3.34 3.34 3.34M34.912 197.41v5.66h-5.66l-2.83-2.83 5.66-5.66z"/><path fill="#FFFFFF" d="M33.492 207.31v-5.66h5.66l2.83 2.83-5.66 5.66z"/><path fill="#0A0B0D" d="m41.243 202.38-7.071 7.071 1.414 1.414 7.071-7.071zm-8.477-8.463-7.07 7.071 1.413 1.414 7.072-7.071z"/><path fill="#578BFA" d="M166 115h-8v18h8z"/><path fill="#464B55" d="M146 96H78v56h68z"/><path fill="#FFFFFF" d="M113.364 136.87c-3.52 0-6.27-5.65-6.27-12.87s2.75-12.87 6.27-12.87 6.27 5.65 6.27 12.87-2.75 12.87-6.27 12.87m0-24c-2.15 0-4.54 4.57-4.54 11.13s2.39 11.13 4.54 11.13 4.54-4.57 4.54-11.13-2.39-11.13-4.54-11.13"/><path fill="#FFFFFF" d="M113.362 136.87c-7.09 0-12.87-5.77-12.87-12.87s5.77-12.87 12.87-12.87 12.87 5.77 12.87 12.87-5.77 12.87-12.87 12.87m0-24c-6.14 0-11.13 4.99-11.13 11.13s4.99 11.13 11.13 11.13 11.13-4.99 11.13-11.13-4.99-11.13-11.13-11.13"/><path fill="#FFFFFF" d="M125.359 123.13h-24v1.73h24z"/><path fill="#FFFFFF" d="M146.003 144.89h-60.55v-41.78h60.55v1.78h-58.78v38.22h58.78z"/><path fill="#578BFA" d="M158 96h-12v56h12z"/><path fill="#0A0B0D" d="M145.688 133a9 9 0 0 1 0-18h12.309v18z"/><path fill="#FFFFFF" d="M145.688 128a4 4 0 1 0 0-8 4 4 0 0 0 0 8"/><path fill="#0A0B0D" d="m78 96 68-22v22z"/><path fill="#FFFFFF" d="M73.61 205.21A97.5 97.5 0 0 1 37 170.23l1.71-1.04a95.35 95.35 0 0 0 35.86 34.26z"/><path fill="#578BFA" d="M213.661 196.42c-.65 0-1.3-.21-1.85-.64a3.003 3.003 0 0 1-.51-4.21c3.69-4.71 7.05-9.73 9.97-14.95 2.24-3.99 4.25-8.16 6-12.38a3.006 3.006 0 0 1 3.92-1.63c1.53.63 2.26 2.39 1.63 3.92-1.83 4.44-3.96 8.83-6.31 13.02-3.07 5.48-6.6 10.77-10.48 15.72-.59.75-1.47 1.15-2.36 1.15z"/><path fill="#0A0B0D" d="M189.778 179.37c1.49 0 2.7 1.21 2.7 2.7s-1.21 2.7-2.7 2.7-2.7-1.21-2.7-2.7 1.21-2.7 2.7-2.7m0-2a4.7 4.7 0 1 0 .002 9.402 4.7 4.7 0 0 0-.002-9.402"/><path fill="#0A0B0D" d="M193.414 184.288 192 185.703l5.339 5.338 1.414-1.414z"/><path fill="#0A0B0D" d="m194.675 188.204-1.909 1.909 1.414 1.414 1.909-1.909z"/><path fill="#45D9F5" d="M46.113 162.075c0-6.967-5.648-12.615-12.615-12.615s-12.615 5.648-12.615 12.615 5.648 12.615 12.615 12.615 12.615-5.648 12.615-12.615"/><path fill="#ECD069" d="M217.652 78.075c0-6.967-5.648-12.615-12.615-12.615s-12.615 5.648-12.615 12.615 5.648 12.615 12.615 12.615 12.615-5.648 12.615-12.615"/><path fill="#0A0B0D" d="M199.781 75.03h1.84v-1.31c0-1.88 1.54-3.42 3.42-3.42s3.42 1.54 3.42 3.42v1.31h1.84v7.89h-10.51v-7.89zm7.1-1.31c0-1.01-.83-1.84-1.84-1.84s-1.84.83-1.84 1.84v1.31h3.68zM28.544 169.91a.74.74 0 0 1-.63-.34.765.765 0 0 1 .22-1.04l1.67-1.08a6.74 6.74 0 0 0 3.09-5.67c0-.41.34-.75.75-.75s.75.34.75.75c0 2.81-1.41 5.4-3.78 6.93l-1.67 1.08c-.12.08-.27.12-.41.12z"/><path fill="#0A0B0D" d="M34.224 170.1a.745.745 0 0 1-.53-1.27c1.04-1.07 1.84-2.39 2.31-3.81.33-.99.49-2.03.49-3.08 0-1.54-1.13-2.85-2.56-2.99-.82-.08-1.6.18-2.2.73-.3.28-.78.26-1.06-.05a.746.746 0 0 1 .05-1.06c.91-.83 2.13-1.23 3.36-1.12 2.2.21 3.92 2.18 3.92 4.48 0 1.21-.19 2.4-.57 3.54a11.45 11.45 0 0 1-2.66 4.39c-.15.15-.34.23-.54.23zm6.163-5.94c-.41 0-.75-.34-.75-.75v-1.86c0-1.1-.3-2.18-.87-3.11-.22-.35-.1-.82.25-1.03.35-.22.82-.1 1.03.25a7.5 7.5 0 0 1 1.09 3.89v1.86c0 .41-.34.75-.75.75"/><path fill="#0A0B0D" d="M26.883 163.17c-.41 0-.75-.34-.75-.75v-.87c0-4.14 3.37-7.51 7.51-7.51 1.25 0 2.49.31 3.58.91.36.2.5.65.3 1.02-.2.36-.66.5-1.02.3-.87-.48-1.86-.73-2.87-.73-3.31 0-6.01 2.69-6.01 6.01v.87c0 .41-.34.75-.75.75z"/><path fill="#0A0B0D" d="M26.587 166.58c-.3 0-.58-.18-.7-.47a.75.75 0 0 1 .42-.97c2.89-1.14 2.97-3.27 2.97-3.36 0-.41.34-.74.75-.74s.74.33.74.75c0 .13-.04 3.21-3.92 4.74-.09.04-.18.05-.28.05zm1.957 3.33a.74.74 0 0 1-.63-.34.765.765 0 0 1 .22-1.04l1.67-1.08a6.74 6.74 0 0 0 3.09-5.67c0-.41.34-.75.75-.75s.75.34.75.75c0 2.81-1.41 5.4-3.78 6.93l-1.67 1.08c-.12.08-.27.12-.41.12z"/><path fill="#0A0B0D" d="M34.224 170.1a.745.745 0 0 1-.53-1.27c1.04-1.07 1.84-2.39 2.31-3.81.33-.99.49-2.03.49-3.08 0-1.54-1.13-2.85-2.56-2.99-.82-.08-1.6.18-2.2.73-.3.28-.78.26-1.06-.05a.746.746 0 0 1 .05-1.06c.91-.83 2.13-1.23 3.36-1.12 2.2.21 3.92 2.18 3.92 4.48 0 1.21-.19 2.4-.57 3.54a11.45 11.45 0 0 1-2.66 4.39c-.15.15-.34.23-.54.23zm6.163-5.94c-.41 0-.75-.34-.75-.75v-1.86c0-1.1-.3-2.18-.87-3.11-.22-.35-.1-.82.25-1.03.35-.22.82-.1 1.03.25a7.5 7.5 0 0 1 1.09 3.89v1.86c0 .41-.34.75-.75.75"/><path fill="#0A0B0D" d="M26.883 163.17c-.41 0-.75-.34-.75-.75v-.87c0-4.14 3.37-7.51 7.51-7.51 1.25 0 2.49.31 3.58.91.36.2.5.65.3 1.02-.2.36-.66.5-1.02.3-.87-.48-1.86-.73-2.87-.73-3.31 0-6.01 2.69-6.01 6.01v.87c0 .41-.34.75-.75.75z"/><path fill="#0A0B0D" d="M26.587 166.58c-.3 0-.58-.18-.7-.47a.75.75 0 0 1 .42-.97c2.89-1.14 2.97-3.27 2.97-3.36 0-.41.34-.74.75-.74s.74.33.74.75c0 .13-.04 3.21-3.92 4.74-.09.04-.18.05-.28.05z"/></svg>