<svg width="1024" height="246" viewBox="0 0 1024 246" fill="none" xmlns="http://www.w3.org/2000/svg">
<rect width="1024" height="246" rx="24" fill="#141519"/>
<path d="M363 115C363 112.791 364.791 111 367 111H462C464.209 111 466 112.791 466 115V131C466 133.209 464.209 135 462 135H367C364.791 135 363 133.209 363 131V115Z" fill="#001033"/>
<path d="M368.549 118.144V128H370.425V118.144H368.549ZM374.356 123.688C374.356 122.554 375.112 122.008 375.938 122.008C376.722 122.008 377.436 122.526 377.436 123.604V128H379.256V123.408C379.256 121.56 378.108 120.468 376.54 120.468C375.504 120.468 374.65 120.93 374.258 121.84H374.244V120.664H372.536V128H374.356V123.688ZM381.867 128H383.687V122.148H386.137V120.664H383.673V119.6C383.673 119.166 383.855 118.998 384.275 118.998H386.151V117.584H383.869C382.511 117.584 381.867 118.256 381.867 119.516V120.664H380.285V122.148H381.867V128ZM390.345 128.196C392.781 128.196 394.013 126.39 394.013 124.332C394.013 122.288 392.767 120.468 390.345 120.468C387.909 120.468 386.663 122.274 386.663 124.332C386.663 126.39 387.895 128.196 390.345 128.196ZM392.193 124.654C392.193 125.956 391.381 126.698 390.345 126.698C389.295 126.698 388.483 125.928 388.483 124.654V124.024C388.483 122.736 389.295 121.966 390.345 121.966C391.381 121.966 392.193 122.708 392.193 124.024V124.654ZM395.505 128H397.325V123.898C397.325 122.918 397.759 122.316 399.005 122.316H400.237V120.65H399.341C398.039 120.65 397.437 121.336 397.255 121.952H397.241V120.664H395.505V128ZM401.493 128H403.313V123.562C403.313 122.512 403.999 122.008 404.741 122.008C405.455 122.008 406.113 122.484 406.113 123.478V128H407.933V123.562C407.933 122.512 408.619 122.008 409.361 122.008C410.089 122.008 410.747 122.484 410.747 123.478V128H412.567V123.282C412.567 121.518 411.461 120.468 409.963 120.468C408.927 120.468 408.045 120.958 407.639 121.882H407.625C407.233 120.972 406.393 120.468 405.343 120.468C404.363 120.468 403.579 120.902 403.215 121.742H403.201V120.664H401.493V128ZM414.162 122.792H415.954C416.01 122.176 416.458 121.784 417.326 121.784C418.264 121.784 418.586 122.232 418.586 122.722C418.586 123.184 418.292 123.408 417.606 123.506L416.71 123.646C414.988 123.884 413.924 124.556 413.924 125.984C413.924 127.37 414.974 128.196 416.5 128.196C417.704 128.196 418.572 127.622 418.922 126.74H418.936V126.81C418.922 127.538 419.314 128 420.322 128H421.33V126.586H420.896C420.56 126.586 420.406 126.502 420.406 126.096V123.058C420.406 121.196 419.034 120.468 417.354 120.468C415.436 120.468 414.316 121.406 414.162 122.792ZM418.614 125.032C418.614 126.096 417.942 126.824 416.878 126.824C416.136 126.824 415.688 126.46 415.688 125.886V125.802C415.688 125.242 416.178 124.92 416.99 124.794L417.76 124.682C418.18 124.626 418.46 124.472 418.614 124.346V125.032ZM421.383 120.664V122.148H422.979V126.068C422.979 127.328 423.623 128 424.981 128H427.067V126.53H425.401C424.981 126.53 424.799 126.348 424.799 125.914V122.148H427.067V120.664H424.799V118.606H422.979V120.664H421.383ZM430.006 119.81C430.622 119.81 431.112 119.32 431.112 118.732C431.112 118.116 430.622 117.64 430.006 117.64H429.88C429.25 117.64 428.76 118.116 428.76 118.732C428.76 119.32 429.25 119.81 429.88 119.81H430.006ZM427.892 122.12H429.026V128H430.846V120.664H427.892V122.12ZM436.023 128.196C438.459 128.196 439.691 126.39 439.691 124.332C439.691 122.288 438.445 120.468 436.023 120.468C433.587 120.468 432.341 122.274 432.341 124.332C432.341 126.39 433.573 128.196 436.023 128.196ZM437.871 124.654C437.871 125.956 437.059 126.698 436.023 126.698C434.973 126.698 434.161 125.928 434.161 124.654V124.024C434.161 122.736 434.973 121.966 436.023 121.966C437.059 121.966 437.871 122.708 437.871 124.024V124.654ZM443.002 123.688C443.002 122.554 443.758 122.008 444.584 122.008C445.368 122.008 446.082 122.526 446.082 123.604V128H447.902V123.408C447.902 121.56 446.754 120.468 445.186 120.468C444.15 120.468 443.296 120.93 442.904 121.84H442.89V120.664H441.182V128H443.002V123.688ZM449.503 122.792H451.295C451.351 122.176 451.799 121.784 452.667 121.784C453.605 121.784 453.927 122.232 453.927 122.722C453.927 123.184 453.633 123.408 452.947 123.506L452.051 123.646C450.329 123.884 449.265 124.556 449.265 125.984C449.265 127.37 450.315 128.196 451.841 128.196C453.045 128.196 453.913 127.622 454.263 126.74H454.277V126.81C454.263 127.538 454.655 128 455.663 128H456.671V126.586H456.237C455.901 126.586 455.747 126.502 455.747 126.096V123.058C455.747 121.196 454.375 120.468 452.695 120.468C450.777 120.468 449.657 121.406 449.503 122.792ZM453.955 125.032C453.955 126.096 453.283 126.824 452.219 126.824C451.477 126.824 451.029 126.46 451.029 125.886V125.802C451.029 125.242 451.519 124.92 452.331 124.794L453.101 124.682C453.521 124.626 453.801 124.472 453.955 124.346V125.032ZM457.628 126.068C457.628 127.328 458.272 128 459.63 128H461.38V126.502H460.162C459.672 126.502 459.448 126.278 459.448 125.788V117.612H457.628V126.068Z" fill="#3773F5"/>
<path d="M547 123C547 117.477 551.477 113 557 113H654C659.523 113 664 117.477 664 123V123C664 128.523 659.523 133 654 133H557C551.477 133 547 128.523 547 123V123Z" fill="#3773F5"/>
<path d="M556.677 128H558.419V124.503H560.811C562.878 124.503 563.996 123.32 563.996 121.682C563.996 120.044 562.878 118.848 560.811 118.848H556.677V128ZM562.228 121.747C562.228 122.553 561.721 123.021 560.759 123.021H558.419V120.343H560.759C561.721 120.343 562.228 120.798 562.228 121.604V121.747ZM565.704 128H567.446V124.36H567.511H567.498L571.177 128H573.595L569.669 124.347H569.955C571.944 124.347 573.036 123.281 573.036 121.656C573.036 120.031 571.918 118.848 569.851 118.848H565.704V128ZM571.268 121.76C571.268 122.566 570.761 123.047 569.799 123.047H567.446V120.317H569.799C570.761 120.317 571.268 120.785 571.268 121.617V121.76ZM578.767 128.182C581.575 128.182 583.096 126.063 583.096 123.424C583.096 120.785 581.562 118.653 578.767 118.653C575.985 118.653 574.438 120.785 574.438 123.424C574.438 126.063 575.972 128.182 578.767 128.182ZM578.767 126.661C577.376 126.661 576.232 125.621 576.232 123.736V123.099C576.232 121.214 577.376 120.174 578.767 120.174C580.171 120.174 581.315 121.214 581.315 123.099V123.736C581.315 125.621 580.171 126.661 578.767 126.661ZM585.051 128H586.65V120.694H586.702L589.25 128.013H590.537L593.085 120.642H593.137V128H594.814V118.848H592.24L589.965 125.439H589.913L587.625 118.848H585.051V128ZM601.073 128.182C603.881 128.182 605.402 126.063 605.402 123.424C605.402 120.785 603.868 118.653 601.073 118.653C598.291 118.653 596.744 120.785 596.744 123.424C596.744 126.063 598.278 128.182 601.073 128.182ZM601.073 126.661C599.682 126.661 598.538 125.621 598.538 123.736V123.099C598.538 121.214 599.682 120.174 601.073 120.174C602.477 120.174 603.621 121.214 603.621 123.099V123.736C603.621 125.621 602.477 126.661 601.073 126.661ZM609.029 120.356V128H610.771V120.356H613.696V118.848H606.104V120.356H609.029ZM615.241 118.848V128H616.983V118.848H615.241ZM623.252 128.182C626.06 128.182 627.581 126.063 627.581 123.424C627.581 120.785 626.047 118.653 623.252 118.653C620.47 118.653 618.923 120.785 618.923 123.424C618.923 126.063 620.457 128.182 623.252 128.182ZM623.252 126.661C621.861 126.661 620.717 125.621 620.717 123.736V123.099C620.717 121.214 621.861 120.174 623.252 120.174C624.656 120.174 625.8 121.214 625.8 123.099V123.736C625.8 125.621 624.656 126.661 623.252 126.661ZM629.536 128H631.213V121.162H631.252L635.36 128H637.297V118.848H635.659V125.452H635.607L631.577 118.848H629.536V128ZM645.761 128H647.633L644.175 118.848H642.147L638.702 128H640.509L641.185 126.063H645.072L645.761 128ZM643.083 120.616H643.135L644.565 124.62H641.692L643.083 120.616ZM649.036 118.848V128H655.237V126.492H650.778V118.848H649.036Z" fill="#001033"/>
<path d="M667.226 123L673 128.774L678.774 123L673 117.226L667.226 123ZM710 122H673V124H710V122Z" fill="#8956E1"/>
<rect x="711" y="108" width="22" height="30" rx="3" fill="#190D33"/>
<path d="M718.648 127H724.875V126.077H720.39L722.951 123.581C724.095 122.463 724.823 121.345 724.823 120.201C724.823 118.602 723.731 117.588 722.015 117.588C720.247 117.588 719.142 118.745 718.999 120.565H720.052C720.234 119.109 720.936 118.498 722.015 118.498C723.068 118.498 723.679 119.122 723.679 120.162C723.679 121.111 723.185 121.956 722.34 122.853L718.648 126.74V127Z" fill="#DDC3FD"/>
<rect x="711" y="108" width="22" height="30" rx="3" stroke="#8956E1" stroke-width="2"/>
<rect x="290" y="108" width="20" height="30" rx="3" fill="#190D33"/>
<path d="M299.913 127H301.044V117.705H299.991L297.833 119.265V120.318L299.913 118.823V127Z" fill="#DDC3FD"/>
<rect x="290" y="108" width="20" height="30" rx="3" stroke="#8956E1" stroke-width="2"/>
<path d="M357.774 123L352 117.226L346.226 123L352 128.774L357.774 123ZM352 122L311 122L311 124L352 124L352 122Z" fill="#8956E1"/>
</svg>
