<svg width="64" height="64" viewBox="0 0 64 64" fill="none" xmlns="http://www.w3.org/2000/svg">
<path d="M50 0H14V64H50V0Z" fill="#BFE9FF"/>
<path d="M64 50L64 14L0 14V50L64 50Z" fill="#56B4FC"/>
<path d="M50 14H14V50H50V14Z" fill="#1652F0"/>
<path d="M23.98 27.86H20.73V26.14H29.43V27.86H26.18V37.83H23.99V27.86H23.98Z" fill="white"/>
<path d="M31.29 34.21H33.38C33.53 35.39 34 36.37 35.98 36.37C37.27 36.37 38.19 35.65 38.19 34.57C38.19 33.49 37.65 33.08 35.75 32.77C32.95 32.39 31.63 31.54 31.63 29.35C31.63 27.44 33.26 26 35.7 26C38.22 26 39.72 27.14 39.95 29.38H37.96C37.75 28.15 37.04 27.63 35.7 27.63C34.38 27.63 33.69 28.27 33.69 29.17C33.69 30.12 34.08 30.59 36.11 30.89C38.86 31.27 40.28 32.05 40.28 34.39C40.28 36.42 38.56 38 35.98 38C32.79 38 31.45 36.41 31.29 34.21Z" fill="white"/>
<path d="M46.5 23V22H45.5C44.95 22 44.5 22.45 44.5 23C44.5 22.45 44.05 22 43.5 22H42.5V23H44V41H42.5V42H43.5C44.05 42 44.5 41.55 44.5 41C44.5 41.55 44.95 42 45.5 42H46.5V41H45V23H46.5Z" fill="white"/>
</svg>
