<svg width="64" height="64" viewBox="0 0 64 64" fill="none" xmlns="http://www.w3.org/2000/svg">
<path d="M50 64H2C0.9 64 0 63.1 0 62V30C0 28.9 0.9 28 2 28H50C51.1 28 52 28.9 52 30V62C52 63.1 51.1 64 50 64Z" fill="#56B4FC"/>
<path d="M12 58H4V60H12V58Z" fill="white"/>
<path d="M22 58H14V60H22V58Z" fill="white"/>
<path d="M32 58H24V60H32V58Z" fill="white"/>
<path d="M42 58H34V60H42V58Z" fill="white"/>
<path d="M28 50V2C28 0.9 28.9 0 30 0H62C63.1 0 64 0.9 64 2V50C64 51.1 63.1 52 62 52H30C28.9 52 28 51.1 28 50Z" fill="#BFE9FF"/>
<path d="M50 28H28V50C28 51.1 28.9 52 30 52H52V30C52 28.9 51.1 28 50 28Z" fill="#1652F0"/>
<path d="M22 54H4V56H22V54Z" fill="#1652F0"/>
<path d="M41 46V34H39V46H41Z" fill="white"/>
<path d="M34 41H46V39H34V41Z" fill="white"/>
</svg>
