<svg width="64" height="64" viewBox="0 0 64 64" fill="none" xmlns="http://www.w3.org/2000/svg">
<g clip-path="url(#clip0)">
<path d="M18.0005 38H62.0005C63.1005 38 64.0005 37.1 64.0005 36V6C64.0005 4.9 63.1005 4 62.0005 4H18.0005C16.9005 4 16.0005 4.9 16.0005 6V36C16.0005 37.1 16.9005 38 18.0005 38Z" fill="#56B4FC"/>
<path d="M64.0005 8H16.0005V12H64.0005V8Z" fill="#1652F0"/>
<path d="M60.0005 22H36.0005V24H60.0005V22Z" fill="white"/>
<path d="M60.0005 28H36.0005V30H60.0005V28Z" fill="white"/>
<path d="M16.9704 40.2001L0 57.1705L2.8284 59.9989L19.7988 43.0285L16.9704 40.2001Z" fill="#BFE9FF"/>
<path d="M26.0005 52C35.9416 52 44.0005 43.9411 44.0005 34C44.0005 24.0589 35.9416 16 26.0005 16C16.0594 16 8.00049 24.0589 8.00049 34C8.00049 43.9411 16.0594 52 26.0005 52Z" fill="#BFE9FF"/>
<path d="M26.0005 16C22.3005 16 18.8605 17.12 16.0005 19.04V36C16.0005 37.1 16.9005 38 18.0005 38H43.5405C43.8305 36.71 44.0005 35.38 44.0005 34C44.0005 24.06 35.9405 16 26.0005 16Z" fill="#1652F0"/>
<path d="M23.0005 30.5C23.8289 30.5 24.5005 29.8284 24.5005 29C24.5005 28.1716 23.8289 27.5 23.0005 27.5C22.1721 27.5 21.5005 28.1716 21.5005 29C21.5005 29.8284 22.1721 30.5 23.0005 30.5Z" fill="white"/>
<path d="M29.0005 30.5C29.8289 30.5 30.5005 29.8284 30.5005 29C30.5005 28.1716 29.8289 27.5 29.0005 27.5C28.1721 27.5 27.5005 28.1716 27.5005 29C27.5005 29.8284 28.1721 30.5 29.0005 30.5Z" fill="white"/>
<path d="M35.0005 30.5C35.8289 30.5 36.5005 29.8284 36.5005 29C36.5005 28.1716 35.8289 27.5 35.0005 27.5C34.1721 27.5 33.5005 28.1716 33.5005 29C33.5005 29.8284 34.1721 30.5 35.0005 30.5Z" fill="white"/>
</g>
<defs>
<clipPath id="clip0">
<rect width="64" height="64" fill="white"/>
</clipPath>
</defs>
</svg>
