<svg width="64" height="64" viewBox="0 0 64 64" fill="none" xmlns="http://www.w3.org/2000/svg">
<path d="M60 4H16V48H60V4Z" fill="#BFE9FF"/>
<path d="M48 16H4V60H48V16Z" fill="#56B4FC"/>
<path d="M48 16H16V48H48V16Z" fill="#1652F0"/>
<path d="M38.23 29.53L37.53 30.23L38.79 31.5H32.5V25.21L33.77 26.47L34.47 25.77L32 23.29L29.53 25.77L30.23 26.47L31.5 25.21V31.5H25.21L26.47 30.23L25.77 29.53L23.29 32L25.77 34.47L26.47 33.77L25.21 32.5H31.5V38.79L30.23 37.53L29.53 38.23L32 40.71L34.47 38.23L33.77 37.53L32.5 38.79V32.5H38.79L37.53 33.77L38.23 34.47L40.71 32L38.23 29.53Z" fill="white"/>
</svg>
