<svg xmlns="http://www.w3.org/2000/svg" fill="none" viewBox="0 0 48 48"><path fill="#144FCE" d="M48 12.726H0v29.25h48v-29.25z"/><path fill="#588AF5" d="M48 12.726H0v-4.5c0-.825.675-1.5 1.5-1.5h45c.825 0 1.5.675 1.5 1.5v4.5z"/><path fill="#fff" d="M3.75 10.476a.75.75 0 1 0 0-1.5.75.75 0 0 0 0 1.5zM6.75 10.476a.75.75 0 1 0 0-1.5.75.75 0 0 0 0 1.5zM9.75 10.476a.75.75 0 1 0 0-1.5.75.75 0 0 0 0 1.5z"/><path fill="#A5C1FD" d="M25.125 30h-2.25v7.5h2.25V30zM20.625 23.25h-2.25v9h2.25v-9z"/><path fill="#fff" d="M16.125 18.75h-2.25v9h2.25v-9zM11.625 23.25h-2.25v6h2.25v-6zM7.125 26.25h-2.25v6h2.25v-6zM43.125 16.5h-2.25v5.25h2.25V16.5zM38.625 20.25h-2.25v8.25h2.25v-8.25z"/><path fill="#A5C1FD" d="M34.125 24h-2.25v5.25h2.25V24z"/><path fill="#fff" d="M29.625 25.5h-2.25v6.75h2.25V25.5z"/></svg>