<svg xmlns="http://www.w3.org/2000/svg" fill="none" viewBox="0 0 240 240"><path fill="#fff" fill-opacity=".75" d="M5.5 145.5h1v-1h-1v1zM17.5 169.5h1v-1h-1v1zM17.5 157.5h1v-1h-1v1zM17.5 145.5h1v-1h-1v1zM29.5 193.5h1v-1h-1v1zM29.5 181.5h1v-1h-1v1zM29.5 169.5h1v-1h-1v1zM29.5 157.5h1v-1h-1v1zM29.5 145.5h1v-1h-1v1zM41.5 217.5h1v-1h-1v1zM41.5 205.5h1v-1h-1v1zM41.5 193.5h1v-1h-1v1zM41.5 181.5h1v-1h-1v1zM41.5 169.5h1v-1h-1v1zM41.5 157.5h1v-1h-1v1zM41.5 145.5h1v-1h-1v1zM53.5 217.5h1v-1h-1v1zM53.5 205.5h1v-1h-1v1zM53.5 193.5h1v-1h-1v1zM53.5 181.5h1v-1h-1v1zM53.5 169.5h1v-1h-1v1zM53.5 157.5h1v-1h-1v1zM53.5 145.5h1v-1h-1v1zM65.5 217.5h1v-1h-1v1zM65.5 205.5h1v-1h-1v1zM65.5 193.5h1v-1h-1v1zM65.5 181.5h1v-1h-1v1zM65.5 169.5h1v-1h-1v1zM65.5 157.5h1v-1h-1v1zM65.5 145.5h1v-1h-1v1zM77.5 217.5h1v-1h-1v1zM77.5 205.5h1v-1h-1v1zM77.5 193.5h1v-1h-1v1zM77.5 181.5h1v-1h-1v1zM77.5 169.5h1v-1h-1v1zM77.5 157.5h1v-1h-1v1zM77.5 145.5h1v-1h-1v1zM89.5 217.5h1v-1h-1v1zM89.5 205.5h1v-1h-1v1zM89.5 193.5h1v-1h-1v1zM89.5 181.5h1v-1h-1v1zM89.5 169.5h1v-1h-1v1zM89.5 157.5h1v-1h-1v1zM89.5 145.5h1v-1h-1v1zM101.5 217.5h1v-1h-1v1zM101.5 205.5h1v-1h-1v1zM101.5 193.5h1v-1h-1v1zM101.5 181.5h1v-1h-1v1zM101.5 169.5h1v-1h-1v1zM101.5 157.5h1v-1h-1v1zM101.5 145.5h1v-1h-1v1zM113.5 217.5h1v-1h-1v1zM113.5 205.5h1v-1h-1v1zM113.5 193.5h1v-1h-1v1zM113.5 181.5h1v-1h-1v1zM113.5 169.5h1v-1h-1v1zM113.5 157.5h1v-1h-1v1zM113.5 145.5h1v-1h-1v1zM125.5 217.5h1v-1h-1v1zM125.5 205.5h1v-1h-1v1zM125.5 193.5h1v-1h-1v1zM125.5 181.5h1v-1h-1v1zM125.5 169.5h1v-1h-1v1zM125.5 157.5h1v-1h-1v1zM125.5 145.5h1v-1h-1v1zM137.5 217.5h1v-1h-1v1zM137.5 205.5h1v-1h-1v1zM137.5 193.5h1v-1h-1v1zM137.5 181.5h1v-1h-1v1zM137.5 169.5h1v-1h-1v1zM137.5 157.5h1v-1h-1v1zM137.5 145.5h1v-1h-1v1zM149.5 217.5h1v-1h-1v1zM149.5 205.5h1v-1h-1v1zM149.5 193.5h1v-1h-1v1zM149.5 181.5h1v-1h-1v1zM149.5 169.5h1v-1h-1v1zM149.5 157.5h1v-1h-1v1zM149.5 145.5h1v-1h-1v1zM161.5 217.5h1v-1h-1v1zM161.5 205.5h1v-1h-1v1zM161.5 193.5h1v-1h-1v1zM161.5 181.5h1v-1h-1v1zM161.5 169.5h1v-1h-1v1zM161.5 157.5h1v-1h-1v1zM161.5 145.5h1v-1h-1v1zM173.5 217.5h1v-1h-1v1zM173.5 205.5h1v-1h-1v1zM173.5 193.5h1v-1h-1v1zM173.5 181.5h1v-1h-1v1zM173.5 169.5h1v-1h-1v1zM173.5 157.5h1v-1h-1v1zM173.5 145.5h1v-1h-1v1zM185.5 217.5h1v-1h-1v1zM185.5 205.5h1v-1h-1v1zM185.5 193.5h1v-1h-1v1zM185.5 181.5h1v-1h-1v1zM185.5 169.5h1v-1h-1v1zM185.5 157.5h1v-1h-1v1zM185.5 145.5h1v-1h-1v1zM197.5 217.5h1v-1h-1v1zM197.5 205.5h1v-1h-1v1zM197.5 193.5h1v-1h-1v1zM197.5 181.5h1v-1h-1v1zM197.5 169.5h1v-1h-1v1zM197.5 157.5h1v-1h-1v1zM197.5 145.5h1v-1h-1v1zM209.5 217.5h1v-1h-1v1zM209.5 193.5h1v-1h-1v1zM209.5 181.5h1v-1h-1v1zM209.5 169.5h1v-1h-1v1zM209.5 157.5h1v-1h-1v1zM209.5 145.5h1v-1h-1v1zM221.5 145.5h1v-1h-1v1zM233.5 145.5h1v-1h-1v1zM221.5 157.5h1v-1h-1v1z" opacity=".5"/><path fill="url(#a)" d="M150 122 240 0H0l90 122h60z"/><path fill="url(#b)" d="m30 0 78 132h24L210 0H30z"/><path fill="url(#c)" d="m80 0 34 140h12L160 0H80z"/><g filter="url(#d)"><path fill="#FFD066" d="M120 131c13.255 0 24-10.745 24-24s-10.745-24-24-24-24 10.745-24 24 10.745 24 24 24z"/></g><path fill="url(#e)" fill-rule="evenodd" d="M122.283 83.107c1.678.159 3.306.49 4.866.976l-30.387 28.94a23.98 23.98 0 0 1-.737-4.908l26.258-25.008zm-24.21 33.667 32.757-31.197c6.128 3.104 10.745 8.76 12.451 15.57l-30.262 28.822a24.063 24.063 0 0 1-14.945-13.195z" clip-rule="evenodd" opacity=".3"/><path fill="url(#f)" d="M120 85c12.13 0 22 9.87 22 22s-9.87 22-22 22-22-9.87-22-22 9.87-22 22-22zm0-2c-13.25 0-24 10.75-24 24s10.75 24 24 24 24-10.75 24-24-10.75-24-24-24z" opacity=".3"/><path fill="url(#g)" d="M120 83.5c12.96 0 23.5 10.54 23.5 23.5s-10.54 23.5-23.5 23.5-23.5-10.54-23.5-23.5 10.54-23.5 23.5-23.5zm0-.5c-13.25 0-24 10.75-24 24s10.75 24 24 24 24-10.75 24-24-10.75-24-24-24z"/><path stroke="#fff" stroke-miterlimit="10" d="M120 127.28c11.2 0 20.28-9.08 20.28-20.28 0-11.2-9.08-20.28-20.28-20.28-11.2 0-20.28 9.08-20.28 20.28 0 11.2 9.08 20.28 20.28 20.28z"/><path fill="#0F38A3" d="M95 58c8.837 0 16-7.163 16-16s-7.163-16-16-16-16 7.163-16 16 7.163 16 16 16z"/><path fill="url(#h)" stroke="url(#i)" d="M110.5 42c0-8.546-6.954-15.5-15.5-15.5M110.5 42c0 8.546-6.954 15.5-15.5 15.5M110.5 42c0 8.564-6.936 15.5-15.5 15.5M110.5 42c0-8.564-6.936-15.5-15.5-15.5m0 0c-8.546 0-15.5 6.954-15.5 15.5M95 26.5c-8.564 0-15.5 6.936-15.5 15.5M95 57.5c-8.546 0-15.5-6.954-15.5-15.5M95 57.5c-8.564 0-15.5-6.936-15.5-15.5"/><path fill="url(#j)" stroke="url(#k)" d="M106.5 42c0-1.279-.207-2.526-.605-3.702a11.491 11.491 0 0 1-4.173 13.04c.497-.36.969-.762 1.412-1.204A11.421 11.421 0 0 0 106.5 42zm-23 0c0 1.279.207 2.526.605 3.702a11.493 11.493 0 0 1 4.173-13.04c-.497.36-.969.762-1.412 1.205A11.422 11.422 0 0 0 83.5 42z"/><path fill="url(#l)" d="M163 68a8 8 0 1 0 0-16 8 8 0 0 0 0 16z"/><path fill="url(#m)" d="M163 53c1.87 0 3.63.73 4.95 2.05a7.007 7.007 0 0 1 0 9.9A6.96 6.96 0 0 1 163 67a6.96 6.96 0 0 1-4.95-2.05 7.007 7.007 0 0 1 0-9.9A6.96 6.96 0 0 1 163 53zm0-1c-2.05 0-4.09.78-5.66 2.34-3.12 3.12-3.12 8.19 0 11.31a7.98 7.98 0 0 0 5.66 2.34c2.05 0 4.09-.78 5.66-2.34 3.12-3.12 3.12-8.19 0-11.31A7.997 7.997 0 0 0 163 52z"/><path fill="#fff" d="M150 240H90c-1.1 0-2-.9-2-2V124c0-1.1.9-2 2-2h60c1.1 0 2 .9 2 2v114c0 1.1-.9 2-2 2z"/><path fill="#1652F0" d="M152 130H88v102h64V130z"/><path fill="#D4EEFF" d="M120 126.94a1 1 0 1 0 0-2 1 1 0 0 0 0 2zM127 237h-14c-.55 0-1-.45-1-1s.45-1 1-1h14c.55 0 1 .45 1 1s-.45 1-1 1z"/><path fill="url(#n)" d="M128 166a9 9 0 1 1-.001 18.001A9 9 0 0 1 128 166zm-13-28c6.63 0 12 5.37 12 12s-5.37 12-12 12-12-5.37-12-12 5.37-12 12-12zm0 49c-3.31 0-6 2.69-6 6s2.69 6 6 6 6-2.69 6-6-2.69-6-6-6z"/><path fill="#1652F0" fill-opacity=".6" d="M127.9 170.15v4.09l3.36 1.55-3.36-5.64z"/><path fill="#1652F0" d="m127.9 170.15-3.36 5.64 3.36-1.55v-4.09z"/><path fill="#1652F0" fill-opacity=".6" d="M127.9 178.45v2.78l3.37-4.79-3.37 2.01z"/><path fill="#1652F0" d="M127.9 181.23v-2.78l-3.36-2.01 3.36 4.79z"/><path fill="#1652F0" fill-opacity=".2" d="m127.9 177.8 3.36-2.01-3.36-1.55v3.56z"/><path fill="#1652F0" fill-opacity=".6" d="m124.54 175.79 3.36 2.01v-3.56l-3.36 1.55z"/><path fill="#1652F0" d="M119.12 148.86c.19-1.27-.78-1.96-2.1-2.41l.43-1.72-1.05-.26-.42 1.68c-.28-.07-.56-.13-.84-.2l.42-1.69-1.05-.26-.43 1.72c-.23-.05-.45-.1-.67-.16v-.01l-1.44-.35-.28 1.12s.78.18.76.19c.42.11.5.39.49.61l-.49 1.96c.03.01.07.02.11.03l-.11-.03-.69 2.75c-.05.13-.18.32-.48.25.01.02-.76-.19-.76-.19l-.52 1.2 1.37.34c.25.06.5.13.75.19l-.43 1.74 1.05.26.43-1.72c.29.08.56.15.84.22l-.43 1.72 1.05.26.43-1.74c1.79.34 3.13.2 3.7-1.42.46-1.3-.02-2.05-.96-2.54.67-.15 1.18-.6 1.32-1.54zm-2.4 3.36c-.32 1.3-2.52.6-3.23.42l.58-2.31c.71.19 2.99.54 2.65 1.89zm.33-3.37c-.3 1.18-2.12.58-2.71.44l.52-2.09c.59.14 2.5.41 2.19 1.65zM114.97 193.36l-.52 1.75h2.78c.02 0 .04.01.06.02.02.01.04.02.05.04l.03.06v.07l-.24.83c-.01.04-.04.07-.07.1-.03.02-.07.04-.12.04h-4.24l.72-2.43-.79.24.18-.57.8-.24 1.01-3.41c.01-.04.03-.08.07-.1a.15.15 0 0 1 .11-.04h1.08c.02 0 .04 0 .06.01.02.01.04.02.05.04 0 .03.01.05.01.08v.07l-.85 2.88.79-.24-.17.58-.8.22z"/><path fill="#fff" d="M128 215h-7v-7h-2v7h-7v2h7v7h2v-7h7v-2z"/><path fill="url(#o)" d="m100.64 86.99-6.59-1.41-1.41-6.59-1.42 6.59-6.58 1.41 6.58 1.42 1.42 6.58 1.41-6.58 6.59-1.42z"/><path fill="#88ADF5" d="M78.22 70.53h2.63v-2.62h.75v2.62h2.62v.75H81.6v2.63h-.75v-2.63h-2.63v-.75z"/><path fill="#123FB4" d="M90.97 70.91a.75.75 0 1 0 0-1.5.75.75 0 0 0 0 1.5z"/><path fill="#1443BF" d="M155.98 84.91a.75.75 0 1 0 0-1.5.75.75 0 0 0 0 1.5zM152.98 104.91a.75.75 0 1 0 0-1.5.75.75 0 0 0 0 1.5z"/><path fill="#0F328D" d="M151.98 40.91a.75.75 0 1 0 0-1.5.75.75 0 0 0 0 1.5zM195.98 44.91a.75.75 0 1 0 0-1.5.75.75 0 0 0 0 1.5z"/><path fill="#0F2C77" d="M69.97 34.91a.75.75 0 1 0 0-1.5.75.75 0 0 0 0 1.5zM61.98 53.91a.75.75 0 1 0 0-1.5.75.75 0 0 0 0 1.5z"/><path fill="#0F37A0" d="M43.98 36.91a.75.75 0 1 0 0-1.5.75.75 0 0 0 0 1.5z" opacity=".5"/><path fill="#1443BF" d="M123.97 71.91a.75.75 0 1 0 0-1.5.75.75 0 0 0 0 1.5z"/><path fill="#0F328D" d="M140.98 48.91a.75.75 0 1 0 0-1.5.75.75 0 0 0 0 1.5z"/><path fill="#081D53" d="M165.98 27.91a.75.75 0 1 0 0-1.5.75.75 0 0 0 0 1.5z"/><path fill="#0F37A0" d="M74.97 19.91a.75.75 0 1 0 0-1.5.75.75 0 0 0 0 1.5z" opacity=".5"/><path fill="#1443BF" d="M80.97 100.91a.75.75 0 1 0 0-1.5.75.75 0 0 0 0 1.5z"/><path fill="#0F2C77" d="M68.97 41.91a.75.75 0 1 0 0-1.5.75.75 0 0 0 0 1.5z"/><path fill="#534422" d="M77.47 82.91a.75.75 0 1 0 0-1.5.75.75 0 0 0 0 1.5z"/><defs><linearGradient id="a" x1="120" x2="120" y1="-.17" y2="122.89" gradientUnits="userSpaceOnUse"><stop stop-color="#0A0B0D" stop-opacity="0"/><stop offset="1" stop-color="#154BD9" stop-opacity=".49"/></linearGradient><linearGradient id="b" x1="120" x2="120" y1="-.18" y2="132.96" gradientUnits="userSpaceOnUse"><stop stop-color="#0A0B0D" stop-opacity="0"/><stop offset=".86" stop-color="#154BD9" stop-opacity=".34"/></linearGradient><linearGradient id="c" x1="120" x2="120" y1="-.19" y2="141.02" gradientUnits="userSpaceOnUse"><stop stop-color="#0A0B0D" stop-opacity="0"/><stop offset=".65" stop-color="#1652F0" stop-opacity=".34"/></linearGradient><linearGradient id="e" x1="102.27" x2="135.58" y1="123.59" y2="86.36" gradientUnits="userSpaceOnUse"><stop stop-color="#fff" stop-opacity=".2"/><stop offset=".5" stop-color="#fff"/><stop offset="1" stop-color="#fff" stop-opacity="0"/></linearGradient><linearGradient id="f" x1="104" x2="136" y1="124.88" y2="89.12" gradientUnits="userSpaceOnUse"><stop stop-color="#fff" stop-opacity=".2"/><stop offset=".5" stop-color="#fff"/><stop offset="1" stop-color="#fff" stop-opacity="0"/></linearGradient><linearGradient id="g" x1="104" x2="136" y1="124.88" y2="89.12" gradientUnits="userSpaceOnUse"><stop stop-color="#fff" stop-opacity=".2"/><stop offset=".5" stop-color="#fff"/><stop offset="1" stop-color="#fff" stop-opacity="0"/></linearGradient><linearGradient id="h" x1="95" x2="95" y1="25.96" y2="58.23" gradientUnits="userSpaceOnUse"><stop stop-color="#0A0B0D" stop-opacity="0"/><stop offset="1" stop-color="#154BD9" stop-opacity=".93"/></linearGradient><linearGradient id="i" x1="95" x2="95" y1="25.96" y2="58.23" gradientUnits="userSpaceOnUse"><stop stop-color="#0A0B0D" stop-opacity="0"/><stop offset="1" stop-color="#1652F0"/></linearGradient><linearGradient id="j" x1="95" x2="95" y1="29.97" y2="54.17" gradientUnits="userSpaceOnUse"><stop stop-color="#0A0B0D" stop-opacity=".3"/><stop offset=".48" stop-color="#154BD9" stop-opacity=".93"/></linearGradient><linearGradient id="k" x1="95" x2="95" y1="29.97" y2="54.17" gradientUnits="userSpaceOnUse"><stop stop-color="#0A0B0D" stop-opacity="0"/><stop offset="1" stop-color="#1652F0"/></linearGradient><linearGradient id="l" x1="163" x2="163" y1="68" y2="52" gradientUnits="userSpaceOnUse"><stop stop-color="#88ADF5"/><stop offset="1" stop-color="#99D6FF"/></linearGradient><linearGradient id="m" x1="168.66" x2="157.34" y1="54.34" y2="65.66" gradientUnits="userSpaceOnUse"><stop stop-color="#D4EEFF" stop-opacity="0"/><stop offset="1" stop-color="#D4EEFF"/></linearGradient><linearGradient id="n" x1="120" x2="120" y1="138" y2="199" gradientUnits="userSpaceOnUse"><stop stop-color="#fff"/><stop offset="1" stop-color="#fff" stop-opacity=".1"/></linearGradient><linearGradient id="o" x1="99.31" x2="89.44" y1="93.66" y2="83.79" gradientUnits="userSpaceOnUse"><stop offset="0" stop-color="#fff" stop-opacity="0"/><stop offset="1" stop-color="#fff"/></linearGradient><filter id="d" width="58" height="58" x="91" y="78" color-interpolation-filters="sRGB" filterUnits="userSpaceOnUse"><feFlood flood-opacity="0" result="BackgroundImageFix"/><feColorMatrix in="SourceAlpha" result="hardAlpha" values="0 0 0 0 0 0 0 0 0 0 0 0 0 0 0 0 0 0 127 0"/><feOffset/><feGaussianBlur stdDeviation="2.5"/><feColorMatrix values="0 0 0 0 0.0862745 0 0 0 0 0.321569 0 0 0 0 0.941176 0 0 0 0.3 0"/><feBlend in2="BackgroundImageFix" result="effect1_dropShadow"/><feBlend in="SourceGraphic" in2="effect1_dropShadow" result="shape"/></filter></defs></svg>