<svg xmlns="http://www.w3.org/2000/svg" fill="none" viewBox="0 0 48 48"><path fill="#A5C1FD" d="M46.5 30h-45C.675 30 0 29.325 0 28.5v-27C0 .675.675 0 1.5 0h45c.825 0 1.5.675 1.5 1.5v27c0 .825-.675 1.5-1.5 1.5z"/><path fill="#588AF5" d="M18 13.5H4.5V15H18v-1.5z"/><path fill="#fff" d="M10.5 18h-6v1.5h6V18zM18 18h-6v1.5h6V18zM25.5 18h-6v1.5h6V18zM33 18h-6v1.5h6V18z"/><path fill="#588AF5" d="M48 4.5H0v6h48v-6z"/><path fill="#FFD066" d="M23.01 23.07 9.667 46.282a1.142 1.142 0 0 0 .99 1.718H37.35c.877 0 1.425-.953.99-1.718L24.99 23.07a1.147 1.147 0 0 0-1.98 0L9.667 46.282a1.142 1.142 0 0 0 .99 1.718H37.35c.877 0 1.425-.953.99-1.718L24.99 23.07a1.147 1.147 0 0 0-1.98 0z"/><path fill="#FFD066" d="M23.01 23.07 19.027 30h9.945l-3.982-6.93a1.147 1.147 0 0 0-1.98 0z"/><path fill="#fff" d="M24.75 28.5h-1.5v12h1.5v-12zM24.75 42h-1.5v3h1.5v-3z"/></svg>