<svg xmlns="http://www.w3.org/2000/svg" fill="none" viewBox="0 0 126 120"><path fill="url(#a)" d="M51 25h75v74H51z"/><path fill="url(#b)" d="M51 44h75v36H51z"/><path fill="#0052FF" d="M82.836 43.155 51.401 25.006a2 2 0 0 0-2.732.732L18.431 78.112a2 2 0 0 0 .732 2.732l31.435 18.15a2 2 0 0 0 2.732-.733l30.238-52.374a2 2 0 0 0-.732-2.732z"/><path fill="url(#c)" d="M82.836 43.155 51.401 25.006a2 2 0 0 0-2.732.732L18.431 78.112a2 2 0 0 0 .732 2.732l31.435 18.15a2 2 0 0 0 2.732-.733l30.238-52.374a2 2 0 0 0-.732-2.732z"/><path fill="#000" d="m54.033 26.52 6.98 4.03-32.24 55.841-6.98-4.03z"/><path fill="url(#d)" fill-rule="evenodd" d="M41.888 87.683 59.014 58.02l3.49 2.015-17.127 29.664-3.49-2.015zm5.235 3.023 3.022-5.235 1.745 1.007-3.023 5.235-1.744-1.007zm7.052-12.215-3.023 5.235 1.745 1.007L55.92 79.5l-1.745-1.008zm1.007-1.745 3.022-5.235 1.745 1.008-3.022 5.235-1.745-1.008zm7.052-12.215-3.022 5.235 1.745 1.008 3.022-5.235-1.745-1.008z" clip-rule="evenodd"/><path stroke="url(#e)" stroke-width=".5" d="M51.276 25.223 82.711 43.37a1.75 1.75 0 0 1 .64 2.391L53.114 98.136a1.75 1.75 0 0 1-2.39.64L19.288 80.629a1.75 1.75 0 0 1-.64-2.39l30.238-52.375a1.75 1.75 0 0 1 2.39-.64z"/><path fill="#FFAE24" d="m34 22-1.41 6.59L26 30l6.59 1.41L34 38l1.41-6.59L42 30l-6.59-1.41L34 22z"/><path fill="#0052FF" d="M17 26a1 1 0 1 1 0-2 1 1 0 0 1 0 2zM30 14a1 1 0 1 1 0-2 1 1 0 0 1 0 2z"/><defs><linearGradient id="a" x1="49.96" x2="109.85" y1="62" y2="62" gradientUnits="userSpaceOnUse"><stop stop-color="#fff" stop-opacity=".3"/><stop offset="1" stop-color="#fff" stop-opacity="0"/></linearGradient><linearGradient id="b" x1="49.96" x2="109.85" y1="62" y2="62" gradientUnits="userSpaceOnUse"><stop stop-color="#fff" stop-opacity=".4"/><stop offset="1" stop-color="#fff" stop-opacity="0"/></linearGradient><linearGradient id="c" x1="67.12" x2="34.88" y1="34.08" y2="89.92" gradientUnits="userSpaceOnUse"><stop stop-color="#fff"/><stop offset="1" stop-color="#fff" stop-opacity=".8"/></linearGradient><linearGradient id="d" x1="48.11" x2="67.25" y1="93.02" y2="59.87" gradientUnits="userSpaceOnUse"><stop stop-color="#0052FF" stop-opacity=".6"/><stop offset="1" stop-color="#0052FF" stop-opacity="0"/></linearGradient><linearGradient id="e" x1="67.12" x2="34.88" y1="34.08" y2="89.92" gradientUnits="userSpaceOnUse"><stop stop-color="#fff" stop-opacity="0"/><stop offset="1" stop-color="#fff" stop-opacity=".7"/></linearGradient></defs></svg>