<svg xmlns="http://www.w3.org/2000/svg" fill="none" viewBox="0 0 240 240"><path fill="#fff" fill-opacity=".75" d="M5.5 145.5h1v-1h-1v1zM17.5 169.5h1v-1h-1v1zM17.5 157.5h1v-1h-1v1zM17.5 145.5h1v-1h-1v1zM29.5 193.5h1v-1h-1v1zM29.5 181.5h1v-1h-1v1zM29.5 169.5h1v-1h-1v1zM29.5 157.5h1v-1h-1v1zM29.5 145.5h1v-1h-1v1zM41.5 217.5h1v-1h-1v1zM41.5 205.5h1v-1h-1v1zM41.5 193.5h1v-1h-1v1zM41.5 181.5h1v-1h-1v1zM41.5 169.5h1v-1h-1v1zM41.5 157.5h1v-1h-1v1zM41.5 145.5h1v-1h-1v1zM53.5 217.5h1v-1h-1v1zM53.5 205.5h1v-1h-1v1zM53.5 193.5h1v-1h-1v1zM53.5 181.5h1v-1h-1v1zM53.5 169.5h1v-1h-1v1zM53.5 157.5h1v-1h-1v1zM53.5 145.5h1v-1h-1v1zM65.5 217.5h1v-1h-1v1zM65.5 205.5h1v-1h-1v1zM65.5 193.5h1v-1h-1v1zM65.5 181.5h1v-1h-1v1zM65.5 169.5h1v-1h-1v1zM65.5 157.5h1v-1h-1v1zM65.5 145.5h1v-1h-1v1zM77.5 217.5h1v-1h-1v1zM77.5 205.5h1v-1h-1v1zM77.5 193.5h1v-1h-1v1zM77.5 181.5h1v-1h-1v1zM77.5 169.5h1v-1h-1v1zM77.5 157.5h1v-1h-1v1zM77.5 145.5h1v-1h-1v1zM89.5 217.5h1v-1h-1v1zM89.5 205.5h1v-1h-1v1zM89.5 193.5h1v-1h-1v1zM89.5 181.5h1v-1h-1v1zM89.5 169.5h1v-1h-1v1zM89.5 157.5h1v-1h-1v1zM89.5 145.5h1v-1h-1v1zM101.5 217.5h1v-1h-1v1zM101.5 205.5h1v-1h-1v1zM101.5 193.5h1v-1h-1v1zM101.5 181.5h1v-1h-1v1zM101.5 169.5h1v-1h-1v1zM101.5 157.5h1v-1h-1v1zM101.5 145.5h1v-1h-1v1zM113.5 217.5h1v-1h-1v1zM113.5 205.5h1v-1h-1v1zM113.5 193.5h1v-1h-1v1zM113.5 181.5h1v-1h-1v1zM113.5 169.5h1v-1h-1v1zM113.5 157.5h1v-1h-1v1zM113.5 145.5h1v-1h-1v1zM125.5 217.5h1v-1h-1v1zM125.5 205.5h1v-1h-1v1zM125.5 193.5h1v-1h-1v1zM125.5 181.5h1v-1h-1v1zM125.5 169.5h1v-1h-1v1zM125.5 157.5h1v-1h-1v1zM125.5 145.5h1v-1h-1v1zM137.5 217.5h1v-1h-1v1zM137.5 205.5h1v-1h-1v1zM137.5 193.5h1v-1h-1v1zM137.5 181.5h1v-1h-1v1zM137.5 169.5h1v-1h-1v1zM137.5 157.5h1v-1h-1v1zM137.5 145.5h1v-1h-1v1zM149.5 217.5h1v-1h-1v1zM149.5 205.5h1v-1h-1v1zM149.5 193.5h1v-1h-1v1zM149.5 181.5h1v-1h-1v1zM149.5 169.5h1v-1h-1v1zM149.5 157.5h1v-1h-1v1zM149.5 145.5h1v-1h-1v1zM161.5 217.5h1v-1h-1v1zM161.5 205.5h1v-1h-1v1zM161.5 193.5h1v-1h-1v1zM161.5 181.5h1v-1h-1v1zM161.5 169.5h1v-1h-1v1zM161.5 157.5h1v-1h-1v1zM161.5 145.5h1v-1h-1v1zM173.5 217.5h1v-1h-1v1zM173.5 205.5h1v-1h-1v1zM173.5 193.5h1v-1h-1v1zM173.5 181.5h1v-1h-1v1zM173.5 169.5h1v-1h-1v1zM173.5 157.5h1v-1h-1v1zM173.5 145.5h1v-1h-1v1zM185.5 217.5h1v-1h-1v1zM185.5 205.5h1v-1h-1v1zM185.5 193.5h1v-1h-1v1zM185.5 181.5h1v-1h-1v1zM185.5 169.5h1v-1h-1v1zM185.5 157.5h1v-1h-1v1zM185.5 145.5h1v-1h-1v1zM197.5 217.5h1v-1h-1v1zM197.5 205.5h1v-1h-1v1zM197.5 193.5h1v-1h-1v1zM197.5 181.5h1v-1h-1v1zM197.5 169.5h1v-1h-1v1zM197.5 157.5h1v-1h-1v1zM197.5 145.5h1v-1h-1v1zM209.5 217.5h1v-1h-1v1zM209.5 193.5h1v-1h-1v1zM209.5 181.5h1v-1h-1v1zM209.5 169.5h1v-1h-1v1zM209.5 157.5h1v-1h-1v1zM209.5 145.5h1v-1h-1v1zM221.5 145.5h1v-1h-1v1zM233.5 145.5h1v-1h-1v1zM221.5 157.5h1v-1h-1v1z" opacity=".5"/><path fill="url(#a)" d="M150 122 240 0H0l90 122h60z"/><path fill="url(#b)" d="m30 0 78 132h24L210 0H30z"/><path fill="url(#c)" d="m80 0 34 140h12L160 0H80z"/><mask id="d" width="48" height="48" x="96" y="83" mask-type="alpha" maskUnits="userSpaceOnUse"><path fill="#FFD066" d="M120 131c13.255 0 24-10.745 24-24s-10.745-24-24-24-24 10.745-24 24 10.745 24 24 24z"/></mask><g mask="url(#d)"><path fill="#FFD066" d="M120 131c13.255 0 24-10.745 24-24s-10.745-24-24-24-24 10.745-24 24 10.745 24 24 24z"/><path fill="url(#e)" d="M139.5 77.32h28.8l-63 60H76.5l63-60zm-5.25 0h-5.89l-63 60h5.89l63-60z" opacity=".3"/></g><path fill="url(#f)" d="M120 85c12.13 0 22 9.87 22 22s-9.87 22-22 22-22-9.87-22-22 9.87-22 22-22zm0-2c-13.25 0-24 10.75-24 24s10.75 24 24 24 24-10.75 24-24-10.75-24-24-24z" opacity=".3"/><path fill="url(#g)" d="M120 83.5c12.96 0 23.5 10.54 23.5 23.5s-10.54 23.5-23.5 23.5-23.5-10.54-23.5-23.5 10.54-23.5 23.5-23.5zm0-.5c-13.25 0-24 10.75-24 24s10.75 24 24 24 24-10.75 24-24-10.75-24-24-24z"/><path stroke="#fff" stroke-miterlimit="10" d="M120 127.28c11.2 0 20.28-9.08 20.28-20.28 0-11.2-9.08-20.28-20.28-20.28-11.2 0-20.28 9.08-20.28 20.28 0 11.2 9.08 20.28 20.28 20.28z"/><path fill="#0F38A3" d="M95 58c8.837 0 16-7.163 16-16s-7.163-16-16-16-16 7.163-16 16 7.163 16 16 16z"/><path fill="url(#h)" d="M95 27c8.27 0 15 6.73 15 15s-6.73 15-15 15-15-6.73-15-15 6.73-15 15-15zm0-1c-8.84 0-16 7.16-16 16s7.16 16 16 16 16-7.16 16-16-7.16-16-16-16z"/><path fill="url(#i)" d="M95 31c2.94 0 5.7 1.14 7.78 3.22S106 39.06 106 42c0 2.94-1.14 5.7-3.22 7.78A10.922 10.922 0 0 1 95 53c-2.94 0-5.7-1.14-7.78-3.22A10.922 10.922 0 0 1 84 42c0-2.94 1.14-5.7 3.22-7.78S92.06 31 95 31zm0-1c-3.07 0-6.14 1.17-8.49 3.51-4.69 4.69-4.69 12.28 0 16.97C88.86 52.83 91.93 54 95 54c3.07 0 6.14-1.17 8.49-3.51 4.69-4.69 4.69-12.28 0-16.97A11.964 11.964 0 0 0 95 30z"/><path fill="url(#j)" d="M163 68a8 8 0 1 0 0-16 8 8 0 0 0 0 16z"/><path fill="url(#k)" d="M163 53c1.87 0 3.63.73 4.95 2.05a7.007 7.007 0 0 1 0 9.9A6.96 6.96 0 0 1 163 67a6.96 6.96 0 0 1-4.95-2.05 7.007 7.007 0 0 1 0-9.9A6.96 6.96 0 0 1 163 53zm0-1c-2.05 0-4.09.78-5.66 2.34-3.12 3.12-3.12 8.19 0 11.31a7.98 7.98 0 0 0 5.66 2.34c2.05 0 4.09-.78 5.66-2.34 3.12-3.12 3.12-8.19 0-11.31A7.997 7.997 0 0 0 163 52z"/><path fill="url(#l)" d="m100.64 86.99-6.59-1.41-1.41-6.59-1.42 6.59-6.58 1.41 6.58 1.42 1.42 6.58 1.41-6.58 6.59-1.42z"/><path fill="#88ADF5" d="M78.22 70.53h2.63v-2.62h.75v2.62h2.62v.75H81.6v2.63h-.75v-2.63h-2.63v-.75z"/><path fill="#123FB4" d="M90.97 70.91a.75.75 0 1 0 0-1.5.75.75 0 0 0 0 1.5z"/><path fill="#1D55E7" d="M155.98 84.91a.75.75 0 1 0 0-1.5.75.75 0 0 0 0 1.5zM152.98 104.91a.75.75 0 1 0 0-1.5.75.75 0 0 0 0 1.5z"/><path fill="#123FB4" d="M151.98 40.91a.75.75 0 1 0 0-1.5.75.75 0 0 0 0 1.5zM195.98 44.91a.75.75 0 1 0 0-1.5.75.75 0 0 0 0 1.5zM69.97 34.91a.75.75 0 1 0 0-1.5.75.75 0 0 0 0 1.5z"/><path fill="#081D53" d="M61.98 53.91a.75.75 0 1 0 0-1.5.75.75 0 0 0 0 1.5z"/><path fill="#123FB4" d="M43.98 36.91a.75.75 0 1 0 0-1.5.75.75 0 0 0 0 1.5z" opacity=".5"/><path fill="#1D55E7" d="M123.97 71.91a.75.75 0 1 0 0-1.5.75.75 0 0 0 0 1.5z"/><path fill="#123FB4" d="M140.98 48.91a.75.75 0 1 0 0-1.5.75.75 0 0 0 0 1.5z"/><path fill="#081D53" d="M165.98 27.91a.75.75 0 1 0 0-1.5.75.75 0 0 0 0 1.5z"/><path fill="#081D53" d="M74.97 19.91a.75.75 0 1 0 0-1.5.75.75 0 0 0 0 1.5z" opacity=".5"/><path fill="#1D55E7" d="M80.97 100.91a.75.75 0 1 0 0-1.5.75.75 0 0 0 0 1.5z"/><path fill="#123FB4" d="M68.97 41.91a.75.75 0 1 0 0-1.5.75.75 0 0 0 0 1.5z"/><path fill="#534422" d="M77.47 82.91a.75.75 0 1 0 0-1.5.75.75 0 0 0 0 1.5z"/><path fill="#0052FF" d="M157.5 123v114c0 1.658-1.342 3-3 3h-69c-1.657 0-3-1.342-3-3V123c0-1.658 1.343-3 3-3h69c1.658 0 3 1.342 3 3z"/><path fill="#fff" d="m140.138 227.002-1.748 8.183h-2.115l1.747-8.183h2.116zm8.902 5.28 1.11-3.075.637 3.075h-1.747zm2.362 2.903h1.958l-1.71-8.183h-1.808a.918.918 0 0 0-.539.165 1.019 1.019 0 0 0-.361.435l-3.172 7.583h2.22l.442-1.223h2.715l.255 1.223zm-5.52-2.678c.008-2.16-2.985-2.28-2.962-3.247.007-.293.285-.608.9-.683.712-.067 1.44.06 2.085.368l.367-1.733a5.575 5.575 0 0 0-1.98-.36c-2.092 0-3.562 1.11-3.57 2.708-.015 1.177 1.051 1.837 1.853 2.227.825.398 1.102.66 1.095 1.02-.008.548-.66.788-1.268.803a4.396 4.396 0 0 1-2.175-.518l-.382 1.793c.75.292 1.545.442 2.355.435 2.22-.008 3.675-1.11 3.682-2.813zm-8.76-5.505-3.427 8.183h-2.235l-1.688-6.533a.895.895 0 0 0-.502-.72 8.956 8.956 0 0 0-2.085-.697l.052-.24h3.6c.233 0 .465.082.645.232.18.15.3.368.338.6l.892 4.733 2.205-5.573 2.205.015zM142.402 221.895h.78a1.38 1.38 0 0 1 .578.052c.187.06.352.158.495.293.142.135.255.293.33.473.075.18.105.375.097.57v.037c.008.195-.022.39-.097.578-.075.18-.188.345-.33.48a1.306 1.306 0 0 1-.503.292c-.187.06-.382.083-.577.053h-.773v-2.828zm.765 2.543c.15.015.308-.001.45-.053.143-.053.278-.135.39-.24a.994.994 0 0 0 .3-.832v-.03a.99.99 0 0 0-.3-.833.982.982 0 0 0-.39-.233 1.02 1.02 0 0 0-.45-.037h-.397v2.273h.397v-.015zM145.32 221.895h1.725v.278h-1.365v.96h1.095v.277h-1.095v1.028h1.44v.277h-1.8v-2.82zM147.705 221.895h.893c.547 0 .952.173.952.735v.015a.59.59 0 0 1-.112.383.554.554 0 0 1-.33.217c.427.098.592.308.592.675v.015c0 .533-.382.788-.975.788h-1.012l-.008-2.828zm.885 1.23c.435 0 .6-.15.6-.495v-.015c0-.322-.195-.45-.607-.45h-.525v.968h.532v-.008zm.12 1.328c.428 0 .63-.18.63-.525v-.015c0-.345-.202-.518-.675-.518h-.6v1.058h.645zM150.338 221.895h.36v2.828h-.36v-2.828zM152.107 222.173h-.862v-.278h2.077v.278h-.862v2.542h-.36v-2.542h.007z"/><g clip-path="url(#m)"><path fill="#fff" d="M93.136 231.416c-1.105 0-1.968.839-1.968 1.961s.842 1.954 1.968 1.954 1.982-.846 1.982-1.961c0-1.108-.841-1.954-1.982-1.954zm.007 3.106c-.629 0-1.09-.489-1.09-1.145 0-.663.454-1.151 1.083-1.151.636 0 1.097.495 1.097 1.151s-.46 1.145-1.09 1.145zm2.216-2.253h.549v2.989h.877v-3.769H95.36v.78zm-6.4-.044c.462 0 .828.285.966.707h.93c-.17-.903-.915-1.516-1.888-1.516-1.104 0-1.967.839-1.967 1.961 0 1.123.841 1.954 1.967 1.954.951 0 1.712-.613 1.88-1.524h-.922a.99.99 0 0 1-.958.715c-.636 0-1.082-.489-1.082-1.145 0-.663.439-1.152 1.075-1.152zm23.075.788-.644-.095c-.307-.044-.526-.146-.526-.386 0-.263.285-.394.672-.394.425 0 .695.182.754.481h.848c-.095-.758-.68-1.203-1.579-1.203-.929 0-1.544.474-1.544 1.145 0 .641.403 1.013 1.214 1.13l.644.094c.314.044.49.168.49.401 0 .299-.307.423-.731.423-.52 0-.812-.211-.856-.532h-.863c.08.736.658 1.254 1.711 1.254.958 0 1.594-.438 1.594-1.189 0-.67-.46-1.02-1.184-1.129zm-15.688-3.077a.544.544 0 0 0-.563.554c0 .321.242.554.564.554a.543.543 0 0 0 .563-.554.544.544 0 0 0-.563-.554zm12.879 2.843c0-.816-.497-1.363-1.55-1.363-.995 0-1.55.504-1.66 1.276h.87c.044-.299.278-.546.775-.546.447 0 .666.196.666.437 0 .313-.402.394-.9.445-.672.072-1.506.306-1.506 1.18 0 .679.505 1.116 1.309 1.116.629 0 1.024-.263 1.222-.678.029.371.307.612.694.612h.512v-.78h-.431v-1.699h-.001zm-.862.948c0 .503-.439.875-.973.875-.33 0-.607-.139-.607-.43 0-.372.446-.474.855-.517.395-.037.615-.124.725-.292v.364zm-4.659-2.311c-.49 0-.9.204-1.192.547V229.9h-.878v5.358h.863v-.496c.293.357.71.569 1.207.569 1.053 0 1.85-.831 1.85-1.954 0-1.122-.812-1.961-1.85-1.961zm-.132 3.106c-.629 0-1.09-.489-1.09-1.145s.468-1.151 1.097-1.151c.637 0 1.083.488 1.083 1.151 0 .656-.461 1.145-1.09 1.145zm-4.037-3.106c-.57 0-.944.233-1.163.562v-.489h-.87v3.769h.877v-2.049c0-.576.366-.984.907-.984.505 0 .819.357.819.875v2.158h.878v-2.223c0-.948-.49-1.619-1.448-1.619zm17.867 1.837c0-1.078-.79-1.837-1.85-1.837-1.127 0-1.953.846-1.953 1.961 0 1.174.885 1.954 1.967 1.954.914 0 1.631-.54 1.814-1.305h-.914c-.132.335-.454.525-.886.525-.563 0-.987-.35-1.082-.962h2.904v-.336zm-2.853-.291c.14-.525.534-.78.988-.78.497 0 .877.284.965.78h-1.953z"/></g><path fill="#C5C0B8" d="M132.893 136.86v11.04c0 1.072-.87 1.942-1.943 1.942h-7.597a1.943 1.943 0 0 1-1.943-1.942v-11.04c0-1.073.87-1.943 1.943-1.943h7.597c1.08 0 1.943.87 1.943 1.943z"/><path fill="url(#n)" d="M132.893 136.86v11.04c0 1.072-.87 1.942-1.943 1.942h-7.597a1.943 1.943 0 0 1-1.943-1.942v-11.04c0-1.073.87-1.943 1.943-1.943h7.597c1.08 0 1.943.87 1.943 1.943z"/><path fill="#151213" d="M130.958 150.023h-7.598a2.125 2.125 0 0 1-2.122-2.123v-11.04c0-1.17.952-2.122 2.122-2.122h7.598c.57 0 1.102.217 1.5.622.397.398.622.93.622 1.5v11.04c0 .57-.217 1.103-.622 1.5a2.136 2.136 0 0 1-1.5.623zm-7.605-14.918c-.968 0-1.755.788-1.755 1.755v11.04c0 .968.787 1.755 1.755 1.755h7.597c.473 0 .908-.18 1.245-.517.33-.33.518-.773.518-1.245v-11.04c0-.473-.18-.908-.518-1.245a1.732 1.732 0 0 0-1.245-.518l-7.597.015z"/><path fill="#151213" fill-rule="evenodd" d="m130.522 142.695 2.348 1.073-.15.33-2.348-1.073a.787.787 0 0 0-1.117.713v.36a1.15 1.15 0 0 1-1.155 1.147h-1.605v-.36h1.605a.787.787 0 0 0 .787-.787v-.36c0-.833.87-1.395 1.635-1.043z" clip-rule="evenodd"/><path fill="#151213" fill-rule="evenodd" d="m123.735 142.695-2.348 1.073.15.33 2.348-1.073a.788.788 0 0 1 1.117.72v.36c0 .638.518 1.155 1.148 1.155h1.605v-.36h-1.605a.787.787 0 0 1-.788-.787v-.36c0-.848-.862-1.41-1.627-1.058zM123.735 141.863l-2.348-1.073.15-.322 2.348 1.072a.788.788 0 0 0 1.117-.72v-.36c0-.638.518-1.148 1.148-1.148h1.605v.36h-1.605a.788.788 0 0 0-.788.788v.36c0 .84-.87 1.395-1.627 1.043z" clip-rule="evenodd"/><path fill="#151213" fill-rule="evenodd" d="m130.515 141.863 2.347-1.073-.15-.322-2.347 1.072a.789.789 0 0 1-1.118-.72v-.36c0-.638-.517-1.148-1.147-1.148h-1.605v.36h1.605c.435 0 .787.353.787.788v.36c0 .84.87 1.395 1.628 1.043z" clip-rule="evenodd"/><path fill="#151213" d="M128.678 145.027h-.36v4.815h.36v-4.815zM125.993 145.027h-.36v4.815h.36v-4.815zM128.678 134.917h-.36v4.575h.36v-4.575zM125.993 134.917h-.36v4.575h.36v-4.575z"/><defs><linearGradient id="a" x1="120" x2="120" y1="-.17" y2="122.89" gradientUnits="userSpaceOnUse"><stop stop-color="#0A0B0D" stop-opacity="0"/><stop offset="1" stop-color="#154BD9" stop-opacity=".55"/></linearGradient><linearGradient id="b" x1="120" x2="120" y1="-.18" y2="132.96" gradientUnits="userSpaceOnUse"><stop stop-color="#0A0B0D" stop-opacity="0"/><stop offset=".73" stop-color="#154BD9" stop-opacity=".28"/></linearGradient><linearGradient id="c" x1="120" x2="120" y1="-.19" y2="141.02" gradientUnits="userSpaceOnUse"><stop stop-color="#0A0B0D" stop-opacity="0"/><stop offset=".59" stop-color="#154BD9" stop-opacity=".32"/></linearGradient><linearGradient id="e" x1="102.27" x2="135.58" y1="123.59" y2="86.36" gradientUnits="userSpaceOnUse"><stop stop-color="#fff" stop-opacity=".2"/><stop offset=".5" stop-color="#fff"/><stop offset="1" stop-color="#fff" stop-opacity="0"/></linearGradient><linearGradient id="f" x1="104" x2="136" y1="124.88" y2="89.12" gradientUnits="userSpaceOnUse"><stop stop-color="#fff" stop-opacity=".2"/><stop offset=".5" stop-color="#fff"/><stop offset="1" stop-color="#fff" stop-opacity="0"/></linearGradient><linearGradient id="g" x1="104" x2="136" y1="124.88" y2="89.12" gradientUnits="userSpaceOnUse"><stop stop-color="#fff" stop-opacity=".2"/><stop offset=".5" stop-color="#fff"/><stop offset="1" stop-color="#fff" stop-opacity="0"/></linearGradient><linearGradient id="h" x1="95" x2="95" y1="25.96" y2="58.23" gradientUnits="userSpaceOnUse"><stop stop-color="#0A0B0D" stop-opacity="0"/><stop offset="1" stop-color="#154BD9" stop-opacity=".93"/></linearGradient><linearGradient id="i" x1="95" x2="95" y1="29.97" y2="54.17" gradientUnits="userSpaceOnUse"><stop stop-color="#0A0B0D" stop-opacity=".3"/><stop offset="1" stop-color="#1652F0"/></linearGradient><linearGradient id="j" x1="163" x2="163" y1="68" y2="52" gradientUnits="userSpaceOnUse"><stop stop-color="#88ADF5"/><stop offset="1" stop-color="#99D6FF"/></linearGradient><linearGradient id="k" x1="168.66" x2="157.34" y1="54.34" y2="65.66" gradientUnits="userSpaceOnUse"><stop stop-color="#D4EEFF" stop-opacity="0"/><stop offset="1" stop-color="#D4EEFF"/></linearGradient><linearGradient id="l" x1="99.31" x2="89.44" y1="93.66" y2="83.79" gradientUnits="userSpaceOnUse"><stop offset="0" stop-color="#fff" stop-opacity="0"/><stop offset="1" stop-color="#fff"/></linearGradient><linearGradient id="n" x1="127.13" x2="127.13" y1="150.55" y2="134.91" gradientUnits="userSpaceOnUse"><stop stop-color="#F7F1E8"/><stop offset="1" stop-color="#fff" stop-opacity="0"/></linearGradient><clipPath id="m"><path fill="#fff" d="M0 0h30.4v5.43H0z" transform="translate(87 229.9)"/></clipPath></defs></svg>