<svg xmlns="http://www.w3.org/2000/svg" fill="none" viewBox="0 0 48 48"><path fill="#588AF5" d="M24 42 0 21h48L24 42z"/><path fill="#144FCE" d="M24 0 0 21h48L24 0z"/><path fill="#588AF5" d="M24 3 3.45 21h41.1L24 3z"/><path fill="#A5C1FD" d="M42 0H6v42h36V0z"/><path fill="#144FCE" d="M24 42 0 21v27h48V21L24 42z"/><path fill="#588AF5" d="M6 42h18L6 26.25V42zM24 42h18V26.25L24 42z"/><path fill="#fff" d="M36 10.5H12V12h24v-1.5zM36 6H12v1.5h24V6zM36 15H12v1.5h24V15zM36 19.5H12V21h24v-1.5zM36 24H12v1.5h24V24zM30 28.5H18V30h12v-1.5z"/></svg>