<svg xmlns="http://www.w3.org/2000/svg" fill="none" viewBox="0 0 48 48"><path fill="#A5C1FD" d="M0 9v1.5h12.75V12H6v1.5h4.5V15h-9v1.5h2.25V18H0v1.5h28.5V9H0zM1.5 21v1.5h3.75V24H0v1.5h6.75V27h-3v1.5H28.5V21h-27zM0 30v1.5h3V33H1.5v1.5h27V30H0zM3 36v1.5h5.25V39H0v1.5h4.5V42h24v-6H3z"/><path fill="#588AF5" d="M29.25 4.5h-1.5v3h1.5v-3z"/><path fill="#144FCE" d="M28.5 45C39.27 45 48 36.27 48 25.5S39.27 6 28.5 6 9 14.73 9 25.5 17.73 45 28.5 45z"/><path fill="#588AF5" d="M28.5 9H18.113C12.637 12.45 9 18.547 9 25.5c0 6.953 3.637 13.05 9.113 16.5H28.5C37.612 42 45 34.612 45 25.5 45 16.387 37.612 9 28.5 9z"/><path fill="#144FCE" d="M31.5 3h-6v1.5h6V3z"/><path fill="#fff" d="M28.5 27a1.5 1.5 0 1 0 0-3 1.5 1.5 0 0 0 0 3z"/><path fill="#fff" d="M28.5 42C19.402 42 12 34.597 12 25.5 12 16.402 19.402 9 28.5 9 37.597 9 45 16.402 45 25.5 45 34.597 37.597 42 28.5 42zm0-32.25c-8.685 0-15.75 7.065-15.75 15.75 0 8.685 7.065 15.75 15.75 15.75 8.685 0 15.75-7.065 15.75-15.75 0-8.685-7.065-15.75-15.75-15.75z"/><path fill="#fff" d="m36.858 16.61-8.623 8.624.53.53 8.624-8.623-.53-.53z"/><path fill="#A5C1FD" d="M0 9v1.5h12.75V12H6v1.5h4.5V15h-9v1.5h2.25V18H0v1.5h28.5V9H0zM1.5 21v1.5h3.75V24H0v1.5h6.75V27h-3v1.5H28.5V21h-27zM0 30v1.5h3V33H1.5v1.5h27V30H0zM3 36v1.5h5.25V39H0v1.5h4.5V42h24v-6H3z"/><path fill="#588AF5" d="M29.25 4.5h-1.5v3h1.5v-3z"/><path fill="#144FCE" d="M28.5 45C39.27 45 48 36.27 48 25.5S39.27 6 28.5 6 9 14.73 9 25.5 17.73 45 28.5 45z"/><path fill="#588AF5" d="M28.5 9H18.113C12.637 12.45 9 18.547 9 25.5c0 6.953 3.637 13.05 9.113 16.5H28.5C37.612 42 45 34.612 45 25.5 45 16.387 37.612 9 28.5 9z"/><path fill="#144FCE" d="M31.5 3h-6v1.5h6V3z"/><path fill="#fff" d="M28.5 27a1.5 1.5 0 1 0 0-3 1.5 1.5 0 0 0 0 3z"/><path fill="#fff" d="M28.5 42C19.402 42 12 34.597 12 25.5 12 16.402 19.402 9 28.5 9 37.597 9 45 16.402 45 25.5 45 34.597 37.597 42 28.5 42zm0-32.25c-8.685 0-15.75 7.065-15.75 15.75 0 8.685 7.065 15.75 15.75 15.75 8.685 0 15.75-7.065 15.75-15.75 0-8.685-7.065-15.75-15.75-15.75z"/><path fill="#fff" d="m36.858 16.61-8.623 8.624.53.53 8.624-8.623-.53-.53z"/></svg>