<svg xmlns="http://www.w3.org/2000/svg" fill="none" viewBox="0 0 48 49"><path fill="#A5C1FD" d="M48 6H0v36h48V6z"/><path fill="#144FCE" d="M37.5 48h-27c-.825 0-1.5-.675-1.5-1.5v-45C9 .675 9.675 0 10.5 0h27c.825 0 1.5.675 1.5 1.5v45c0 .825-.675 1.5-1.5 1.5z"/><path fill="#588AF5" d="M21 45c0 .413.337.75.75.75h4.5c.413 0 .75-.337.75-.75a.752.752 0 0 0-.75-.75h-4.5A.752.752 0 0 0 21 45zM24 3.75a.75.75 0 1 0 0-1.5.75.75 0 0 0 0 1.5zM39 6H9v36h30V6z"/><path fill="#fff" fill-rule="evenodd" d="M24 15.75a8.25 8.25 0 1 0 0 16.5 8.25 8.25 0 0 0 0-16.5zM14.25 24c0-5.385 4.365-9.75 9.75-9.75s9.75 4.365 9.75 9.75-4.365 9.75-9.75 9.75-9.75-4.365-9.75-9.75z" clip-rule="evenodd"/><path fill="#fff" fill-rule="evenodd" d="M29.837 30.898 17.102 18.163l1.061-1.06 12.735 12.734-1.06 1.06z" clip-rule="evenodd"/><path fill="#fff" fill-rule="evenodd" d="m17.102 29.837 12.735-12.735 1.061 1.06-12.735 12.736-1.06-1.06z" clip-rule="evenodd"/><path fill="#588AF5" d="M24 28.5a4.5 4.5 0 1 0 0-9 4.5 4.5 0 0 0 0 9z"/><path fill="#fff" fill-rule="evenodd" d="M24 20.25a3.75 3.75 0 1 0 0 7.5 3.75 3.75 0 0 0 0-7.5zM18.75 24a5.25 5.25 0 1 1 10.5 0 5.25 5.25 0 0 1-10.5 0z" clip-rule="evenodd"/></svg>