<svg xmlns="http://www.w3.org/2000/svg" fill="none" viewBox="0 0 120 120"><path fill="url(#a)" d="M69.711 14.756v21.977L88.111 26l-18.4-11.244z"/><path fill="url(#b)" d="M87.6 26v21.978L106 36.733 87.6 26z" opacity=".9"/><path fill="url(#c)" d="M69.711 36.733v21.978l18.4-10.733-18.4-11.245z" opacity=".8"/><path fill="url(#d)" d="M87.6 47.978v21.977L106 58.711 87.6 47.978z" opacity=".8"/><path fill="url(#e)" d="M69.711 58.71V80.69l18.4-10.734-18.4-11.244z" opacity=".8"/><path fill="url(#f)" d="M87.6 69.955v21.978L106 80.689 87.6 69.955z"/><path fill="url(#g)" d="M44.156 74.555v21.978L62.045 85.29 44.156 74.555z" opacity=".9"/><path fill="url(#h)" d="M69.711 84.266v21.978L87.601 95 69.71 84.266z" opacity=".7"/><path fill="url(#i)" d="M69.711 14.756v21.977L51.311 26l18.4-11.244z" opacity=".8"/><path fill="url(#j)" d="M66.644 35.2v21.978l-18.4-11.245 18.4-10.733z" opacity=".6"/><path fill="url(#k)" d="M69.712 58.71V80.69l-17.89-10.734 17.89-11.244z" opacity=".6"/><path fill="url(#l)" d="M32.4 63.822V85.8L14 75.066l18.4-11.244z" opacity=".55"/><path fill="url(#m)" d="M106 36.733v21.978L87.6 47.978 106 36.733z"/><path fill="url(#n)" d="M87.6 47.978v21.977L69.2 58.711l18.4-10.733z" opacity=".95"/><path fill="url(#o)" d="M106 58.71V80.69L87.6 69.955 106 58.711z" opacity=".9"/><path fill="url(#p)" d="M87.6 69.955v21.978L69.2 80.689l18.4-10.734z" opacity=".7"/><path fill="url(#q)" d="M65.622 79.155v21.978L47.733 89.888l17.89-10.733z" opacity=".4"/><path fill="url(#r)" d="M87.6 26v21.978L69.2 36.733 87.6 26z"/><path fill="url(#s)" d="M60 96c19.882 0 36-16.118 36-36S79.882 24 60 24 24 40.118 24 60s16.118 36 36 36z"/><path fill="#19263B" d="M60 92c17.673 0 32-14.327 32-32 0-17.673-14.327-32-32-32-17.673 0-32 14.327-32 32 0 17.673 14.327 32 32 32z"/><path fill="url(#t)" d="M61.8 42.6v8.6L69 47l-7.2-4.4z"/><path fill="url(#u)" d="M68.8 47v8.6l7.2-4.4-7.2-4.2z" opacity=".9"/><path fill="url(#v)" d="M61.8 51.2v8.6l7.2-4.2-7.2-4.4z" opacity=".8"/><path fill="url(#w)" d="M68.8 55.6v8.6l7.2-4.4-7.2-4.2z" opacity=".8"/><path fill="url(#x)" d="M61.8 59.8v8.6l7.2-4.2-7.2-4.4z" opacity=".8"/><path fill="url(#y)" d="M68.8 64.2v8.6l7.2-4.4-7.2-4.2z"/><path fill="url(#z)" d="M43.4 51v8.6l7.2-4.4-7.2-4.2z" opacity=".4"/><path fill="url(#A)" d="M52.4 54.2v8.6l7-4.2-7-4.4z" opacity=".2"/><path fill="url(#B)" d="M47.2 59.6v8.6l7.2-4.4-7.2-4.2z" opacity=".3"/><path fill="url(#C)" d="M51.8 66v8.6l7-4.4-7-4.2z" opacity=".9"/><path fill="url(#D)" d="M61.8 69.8v8.6l7-4.4-7-4.2z" opacity=".7"/><path fill="url(#E)" d="M53.6 49.8v8.6l7-4.2-7-4.4z" opacity=".9"/><path fill="url(#F)" d="M61.8 42.6v8.6L54.6 47l7.2-4.4z" opacity=".8"/><path fill="url(#G)" d="M53.6 46.2v8.6l-7.2-4.4 7.2-4.2z" opacity=".6"/><path fill="url(#H)" d="M60.6 50.6v8.6l-7.2-4.4 7.2-4.2z" opacity=".6"/><path fill="url(#I)" d="M52.4 54.2v8.6l-7.2-4.2 7.2-4.4z" opacity=".95"/><path fill="url(#J)" d="M61.8 59.8v8.6l-7-4.2 7-4.4z" opacity=".6"/><path fill="url(#K)" d="M47.2 61.8v8.6L40 66.2l7.2-4.4z" opacity=".55"/><path fill="url(#L)" d="M76 51.2v8.6l-7.2-4.2 7.2-4.4z"/><path fill="url(#M)" d="M68.8 55.6v8.6l-7.2-4.4 7.2-4.2z" opacity=".95"/><path fill="url(#N)" d="M76 59.8v8.6l-7.2-4.2 7.2-4.4z" opacity=".9"/><path fill="url(#O)" d="M68.8 64.2v8.6l-7.2-4.4 7.2-4.2z" opacity=".7"/><path fill="url(#P)" d="M60.2 67.8v8.6l-7-4.4 7-4.2z" opacity=".4"/><path fill="url(#Q)" d="M68.8 47v8.6l-7.2-4.4 7.2-4.2z"/><path stroke="url(#R)" stroke-opacity=".5" stroke-width="1.5" d="M91.25 60c0 17.259-13.991 31.25-31.25 31.25S28.75 77.259 28.75 60 42.741 28.75 60 28.75 91.25 42.74 91.25 60z"/><path stroke="url(#S)" stroke-width=".5" d="M91.75 60c0 17.535-14.215 31.75-31.75 31.75S28.25 77.535 28.25 60 42.465 28.25 60 28.25 91.75 42.465 91.75 60z"/><path fill="#fff" d="m38 29-1.41 6.59L30 37l6.59 1.41L38 45l1.41-6.59L46 37l-6.59-1.41L38 29z"/><path fill="#0052FF" d="M21 33a1 1 0 1 1 0-2 1 1 0 0 1 0 2z"/><path fill="#0052FF" fill-opacity=".5" d="M34 21a1 1 0 1 1 0-2 1 1 0 0 1 0 2z"/><defs><linearGradient id="a" x1="78.75" x2="78.75" y1="14.81" y2="36.81" gradientUnits="userSpaceOnUse"><stop stop-color="#fff" stop-opacity=".4"/><stop offset="1" stop-color="#0A0B0D" stop-opacity="0"/></linearGradient><linearGradient id="b" x1="96.64" x2="96.64" y1="26.06" y2="48.06" gradientUnits="userSpaceOnUse"><stop stop-color="#fff" stop-opacity=".4"/><stop offset="1" stop-color="#0A0B0D" stop-opacity="0"/></linearGradient><linearGradient id="c" x1="78.75" x2="78.75" y1="36.79" y2="58.79" gradientUnits="userSpaceOnUse"><stop stop-color="#fff" stop-opacity=".4"/><stop offset="1" stop-color="#0A0B0D" stop-opacity="0"/></linearGradient><linearGradient id="d" x1="96.64" x2="96.64" y1="48.03" y2="70.03" gradientUnits="userSpaceOnUse"><stop stop-color="#fff" stop-opacity=".4"/><stop offset="1" stop-color="#0A0B0D" stop-opacity="0"/></linearGradient><linearGradient id="e" x1="78.75" x2="78.75" y1="58.77" y2="80.77" gradientUnits="userSpaceOnUse"><stop stop-color="#fff" stop-opacity=".4"/><stop offset="1" stop-color="#0A0B0D" stop-opacity="0"/></linearGradient><linearGradient id="f" x1="96.64" x2="96.64" y1="70.01" y2="92.01" gradientUnits="userSpaceOnUse"><stop stop-color="#fff" stop-opacity=".4"/><stop offset="1" stop-color="#0A0B0D" stop-opacity="0"/></linearGradient><linearGradient id="g" x1="52.95" x2="52.95" y1="74.61" y2="96.61" gradientUnits="userSpaceOnUse"><stop stop-color="#fff" stop-opacity=".4"/><stop offset="1" stop-color="#0A0B0D" stop-opacity="0"/></linearGradient><linearGradient id="h" x1="78.5" x2="78.5" y1="84.32" y2="106.32" gradientUnits="userSpaceOnUse"><stop stop-color="#fff" stop-opacity=".4"/><stop offset="1" stop-color="#0A0B0D" stop-opacity="0"/></linearGradient><linearGradient id="i" x1="60.35" x2="60.35" y1="14.81" y2="36.81" gradientUnits="userSpaceOnUse"><stop stop-color="#fff" stop-opacity=".4"/><stop offset="1" stop-color="#0A0B0D" stop-opacity="0"/></linearGradient><linearGradient id="j" x1="57.29" x2="57.29" y1="35.26" y2="57.26" gradientUnits="userSpaceOnUse"><stop stop-color="#fff" stop-opacity=".4"/><stop offset="1" stop-color="#0A0B0D" stop-opacity="0"/></linearGradient><linearGradient id="k" x1="60.61" x2="60.61" y1="58.77" y2="80.77" gradientUnits="userSpaceOnUse"><stop stop-color="#fff" stop-opacity=".4"/><stop offset="1" stop-color="#0A0B0D" stop-opacity="0"/></linearGradient><linearGradient id="l" x1="23.04" x2="23.04" y1="63.88" y2="85.88" gradientUnits="userSpaceOnUse"><stop stop-color="#fff" stop-opacity=".4"/><stop offset="1" stop-color="#0A0B0D" stop-opacity="0"/></linearGradient><linearGradient id="m" x1="96.64" x2="96.64" y1="36.79" y2="58.79" gradientUnits="userSpaceOnUse"><stop stop-color="#fff" stop-opacity=".4"/><stop offset="1" stop-color="#0A0B0D" stop-opacity="0"/></linearGradient><linearGradient id="n" x1="78.24" x2="78.24" y1="48.03" y2="70.03" gradientUnits="userSpaceOnUse"><stop stop-color="#fff" stop-opacity=".4"/><stop offset="1" stop-color="#0A0B0D" stop-opacity="0"/></linearGradient><linearGradient id="o" x1="96.64" x2="96.64" y1="58.77" y2="80.77" gradientUnits="userSpaceOnUse"><stop stop-color="#fff" stop-opacity=".4"/><stop offset="1" stop-color="#0A0B0D" stop-opacity="0"/></linearGradient><linearGradient id="p" x1="78.24" x2="78.24" y1="70.01" y2="92.01" gradientUnits="userSpaceOnUse"><stop stop-color="#fff" stop-opacity=".4"/><stop offset="1" stop-color="#0A0B0D" stop-opacity="0"/></linearGradient><linearGradient id="q" x1="56.52" x2="56.52" y1="79.21" y2="101.21" gradientUnits="userSpaceOnUse"><stop stop-color="#fff" stop-opacity=".4"/><stop offset="1" stop-color="#0A0B0D" stop-opacity="0"/></linearGradient><linearGradient id="r" x1="78.24" x2="78.24" y1="26.06" y2="48.06" gradientUnits="userSpaceOnUse"><stop stop-color="#fff" stop-opacity=".4"/><stop offset="1" stop-color="#0A0B0D" stop-opacity="0"/></linearGradient><linearGradient id="s" x1="60" x2="60" y1="24" y2="96" gradientUnits="userSpaceOnUse"><stop stop-color="#0A0B0D" stop-opacity=".4"/><stop offset="1" stop-color="#0A0B0D" stop-opacity="0"/></linearGradient><linearGradient id="t" x1="65.34" x2="65.34" y1="42.61" y2="51.22" gradientUnits="userSpaceOnUse"><stop stop-color="#44FFAE"/><stop offset="1" stop-color="#29DCB5"/></linearGradient><linearGradient id="u" x1="72.45" x2="72.45" y1="46.92" y2="55.53" gradientUnits="userSpaceOnUse"><stop stop-color="#44FFAE"/><stop offset="1" stop-color="#29DCB5"/></linearGradient><linearGradient id="v" x1="65.34" x2="65.34" y1="51.22" y2="59.83" gradientUnits="userSpaceOnUse"><stop stop-color="#44FFAE"/><stop offset="1" stop-color="#29DCB5"/></linearGradient><linearGradient id="w" x1="72.45" x2="72.45" y1="55.53" y2="64.14" gradientUnits="userSpaceOnUse"><stop stop-color="#44FFAE"/><stop offset="1" stop-color="#29DCB5"/></linearGradient><linearGradient id="x" x1="65.34" x2="65.34" y1="59.83" y2="68.44" gradientUnits="userSpaceOnUse"><stop stop-color="#44FFAE"/><stop offset="1" stop-color="#29DCB5"/></linearGradient><linearGradient id="y" x1="72.45" x2="72.45" y1="64.14" y2="72.75" gradientUnits="userSpaceOnUse"><stop stop-color="#44FFAE"/><stop offset="1" stop-color="#29DCB5"/></linearGradient><linearGradient id="z" x1="46.96" x2="46.96" y1="50.93" y2="59.54" gradientUnits="userSpaceOnUse"><stop stop-color="#44FFAE"/><stop offset="1" stop-color="#29DCB5"/></linearGradient><linearGradient id="A" x1="55.93" x2="55.93" y1="54.13" y2="62.74" gradientUnits="userSpaceOnUse"><stop stop-color="#44FFAE"/><stop offset="1" stop-color="#29DCB5"/></linearGradient><linearGradient id="B" x1="50.66" x2="50.66" y1="59.58" y2="68.19" gradientUnits="userSpaceOnUse"><stop stop-color="#44FFAE"/><stop offset="1" stop-color="#29DCB5"/></linearGradient><linearGradient id="C" x1="55.34" x2="55.34" y1="66.07" y2="74.68" gradientUnits="userSpaceOnUse"><stop stop-color="#44FFAE"/><stop offset="1" stop-color="#29DCB5"/></linearGradient><linearGradient id="D" x1="65.28" x2="65.28" y1="69.78" y2="78.39" gradientUnits="userSpaceOnUse"><stop stop-color="#44FFAE"/><stop offset="1" stop-color="#29DCB5"/></linearGradient><linearGradient id="E" x1="57.11" x2="57.11" y1="49.88" y2="58.49" gradientUnits="userSpaceOnUse"><stop stop-color="#44FFAE"/><stop offset="1" stop-color="#29DCB5"/></linearGradient><linearGradient id="F" x1="58.23" x2="58.23" y1="42.61" y2="51.22" gradientUnits="userSpaceOnUse"><stop stop-color="#44FFAE"/><stop offset="1" stop-color="#29DCB5"/></linearGradient><linearGradient id="G" x1="50.01" x2="50.01" y1="46.27" y2="54.88" gradientUnits="userSpaceOnUse"><stop stop-color="#44FFAE"/><stop offset="1" stop-color="#29DCB5"/></linearGradient><linearGradient id="H" x1="57.11" x2="57.11" y1="50.53" y2="59.14" gradientUnits="userSpaceOnUse"><stop stop-color="#44FFAE"/><stop offset="1" stop-color="#29DCB5"/></linearGradient><linearGradient id="I" x1="48.79" x2="48.79" y1="54.13" y2="62.74" gradientUnits="userSpaceOnUse"><stop stop-color="#44FFAE"/><stop offset="1" stop-color="#29DCB5"/></linearGradient><linearGradient id="J" x1="58.23" x2="58.23" y1="59.83" y2="68.44" gradientUnits="userSpaceOnUse"><stop stop-color="#44FFAE"/><stop offset="1" stop-color="#29DCB5"/></linearGradient><linearGradient id="K" x1="43.55" x2="43.55" y1="61.83" y2="70.44" gradientUnits="userSpaceOnUse"><stop stop-color="#44FFAE"/><stop offset="1" stop-color="#29DCB5"/></linearGradient><linearGradient id="L" x1="72.45" x2="72.45" y1="51.22" y2="59.83" gradientUnits="userSpaceOnUse"><stop stop-color="#44FFAE"/><stop offset="1" stop-color="#29DCB5"/></linearGradient><linearGradient id="M" x1="65.34" x2="65.34" y1="55.53" y2="64.14" gradientUnits="userSpaceOnUse"><stop stop-color="#44FFAE"/><stop offset="1" stop-color="#29DCB5"/></linearGradient><linearGradient id="N" x1="72.45" x2="72.45" y1="59.83" y2="68.44" gradientUnits="userSpaceOnUse"><stop stop-color="#44FFAE"/><stop offset="1" stop-color="#29DCB5"/></linearGradient><linearGradient id="O" x1="65.34" x2="65.34" y1="64.14" y2="72.75" gradientUnits="userSpaceOnUse"><stop stop-color="#44FFAE"/><stop offset="1" stop-color="#29DCB5"/></linearGradient><linearGradient id="P" x1="56.66" x2="56.66" y1="67.73" y2="76.34" gradientUnits="userSpaceOnUse"><stop stop-color="#44FFAE"/><stop offset="1" stop-color="#29DCB5"/></linearGradient><linearGradient id="Q" x1="65.34" x2="65.34" y1="46.92" y2="55.53" gradientUnits="userSpaceOnUse"><stop stop-color="#44FFAE"/><stop offset="1" stop-color="#29DCB5"/></linearGradient><linearGradient id="R" x1="83.5" x2="37.5" y1="80.5" y2="36" gradientUnits="userSpaceOnUse"><stop stop-color="#fff" stop-opacity="0"/><stop offset="1" stop-color="#fff"/></linearGradient><linearGradient id="S" x1="36" x2="88" y1="35.5" y2="87.5" gradientUnits="userSpaceOnUse"><stop stop-color="#fff"/><stop offset="1" stop-color="#fff" stop-opacity="0"/></linearGradient></defs></svg>