<svg xmlns="http://www.w3.org/2000/svg" fill="none" viewBox="0 0 240 241"><path fill="url(#a)" d="M153 0v187H81V0h72z"/><path fill="#fff" fill-opacity=".35" d="M136 241v-1h-1v1h1zM160 229v-1h-1v1h1zM148 229v-1h-1v1h1zM136 229v-1h-1v1h1zM184 217v-1h-1v1h1zM172 217v-1h-1v1h1zM160 217v-1h-1v1h1zM148 217v-1h-1v1h1zM136 217v-1h-1v1h1zM208 205v-1h-1v1h1zM196 205v-1h-1v1h1zM184 205v-1h-1v1h1zM172 205v-1h-1v1h1zM160 205v-1h-1v1h1zM148 205v-1h-1v1h1zM136 205v-1h-1v1h1zM208 193v-1h-1v1h1zM196 193v-1h-1v1h1zM184 193v-1h-1v1h1zM172 193v-1h-1v1h1zM160 193v-1h-1v1h1zM148 193v-1h-1v1h1zM136 193v-1h-1v1h1zM208 181v-1h-1v1h1zM196 181v-1h-1v1h1zM184 181v-1h-1v1h1zM172 181v-1h-1v1h1zM160 181v-1h-1v1h1zM148 181v-1h-1v1h1zM136 181v-1h-1v1h1zM208 169v-1h-1v1h1zM196 169v-1h-1v1h1zM184 169v-1h-1v1h1zM172 169v-1h-1v1h1zM160 169v-1h-1v1h1zM148 169v-1h-1v1h1zM136 169v-1h-1v1h1zM208 157v-1h-1v1h1zM196 157v-1h-1v1h1zM184 157v-1h-1v1h1zM172 157v-1h-1v1h1zM160 157v-1h-1v1h1zM148 157v-1h-1v1h1zM136 157v-1h-1v1h1zM208 145v-1h-1v1h1zM196 145v-1h-1v1h1zM184 145v-1h-1v1h1zM172 145v-1h-1v1h1zM160 145v-1h-1v1h1zM148 145v-1h-1v1h1zM136 145v-1h-1v1h1zM208 133v-1h-1v1h1zM196 133v-1h-1v1h1zM184 133v-1h-1v1h1zM172 133v-1h-1v1h1zM160 133v-1h-1v1h1zM148 133v-1h-1v1h1zM136 133v-1h-1v1h1zM208 121v-1h-1v1h1zM196 121v-1h-1v1h1zM184 121v-1h-1v1h1zM172 121v-1h-1v1h1zM160 121v-1h-1v1h1zM148 121v-1h-1v1h1zM136 121v-1h-1v1h1zM208 109v-1h-1v1h1zM196 109v-1h-1v1h1zM184 109v-1h-1v1h1zM172 109v-1h-1v1h1zM160 109v-1h-1v1h1zM148 109v-1h-1v1h1zM136 109v-1h-1v1h1zM208 97v-1h-1v1h1zM196 97v-1h-1v1h1zM184 97v-1h-1v1h1zM172 97v-1h-1v1h1zM160 97v-1h-1v1h1zM148 97v-1h-1v1h1zM136 97v-1h-1v1h1zM208 85v-1h-1v1h1zM196 85v-1h-1v1h1zM184 85v-1h-1v1h1zM172 85v-1h-1v1h1zM160 85v-1h-1v1h1zM148 85v-1h-1v1h1zM136 85v-1h-1v1h1zM208 73v-1h-1v1h1zM196 73v-1h-1v1h1zM184 73v-1h-1v1h1zM172 73v-1h-1v1h1zM160 73v-1h-1v1h1zM148 73v-1h-1v1h1zM136 73v-1h-1v1h1zM208 61v-1h-1v1h1zM196 61v-1h-1v1h1zM184 61v-1h-1v1h1zM172 61v-1h-1v1h1zM160 61v-1h-1v1h1zM148 61v-1h-1v1h1zM136 61v-1h-1v1h1zM208 49v-1h-1v1h1zM196 49v-1h-1v1h1zM184 49v-1h-1v1h1zM172 49v-1h-1v1h1zM160 49v-1h-1v1h1zM148 49v-1h-1v1h1zM136 49v-1h-1v1h1zM208 37v-1h-1v1h1zM184 37v-1h-1v1h1zM172 37v-1h-1v1h1zM160 37v-1h-1v1h1zM148 37v-1h-1v1h1zM136 37v-1h-1v1h1zM136 25v-1h-1v1h1zM136 13v-1h-1v1h1zM148 25v-1h-1v1h1z"/><path fill="#fff" d="M189 100V88l-72-20-72 20v12h16v44h-8v12h-8v12h144v-12h-8v-12h-8v-44h16zm-48 0v44h-8v-44h8zm-20 0v44h-8v-44h8zm-20 44h-8v-44h8v44zm-28-44h8v44h-8v-44zm88 44h-8v-44h8v44z"/><path fill="#fff" stroke="url(#b)" d="M69.5 206v-52c0-.824.676-1.5 1.5-1.5h92c.824 0 1.5.676 1.5 1.5v52c0 .824-.676 1.5-1.5 1.5H71c-.824 0-1.5-.676-1.5-1.5z"/><path fill="#1652F0" d="M165 154c0-1.1-.9-2-2-2H71c-1.1 0-2 .9-2 2v6h96v-6zM101 166H77v26h24v-26z"/><path fill="#fff" d="M97 178c0-4.42-3.58-8-8-8s-8 3.58-8 8v8h12v-1.07c2.39-1.39 4-3.97 4-6.93z"/><path fill="#fff" d="m87.07 178 6.19-6.77A8.063 8.063 0 0 0 89 170c-4.42 0-8 3.58-8 8v7.14h12v-.21c.09-.05.17-.11.25-.16L87.07 178z"/><path fill="url(#c)" d="m87.07 178 6.19-6.77A8.063 8.063 0 0 0 89 170c-4.42 0-8 3.58-8 8v7.14h12v-.21c.09-.05.17-.11.25-.16L87.07 178z"/><path fill="#fff" d="m87.07 178 6.19-6.77c-.32-.2-.65-.38-1-.53l-6.67 7.3 6.52 7.13H93v-.21c.09-.05.17-.11.25-.16L87.07 178z"/><path fill="#56B4FC" d="M97 178c0-2.96-1.61-5.54-4-6.93L86.67 178l6.33 6.93c2.39-1.39 4-3.97 4-6.93z"/><path fill="#fff" d="M93 185H81v1h12v-1z"/><path fill="#0A0B0D" d="m92.52 171.6-5.85 6.4 4.67 5.1v-2.44h2c.37 0 .67-.3.67-.67v-3h1.33l-2.82-5.39z"/><path fill="#fff" d="M86.67 179.33a1.33 1.33 0 1 0 0-2.66 1.33 1.33 0 0 0 0 2.66z"/><path fill="#D4EEFF" d="M86.67 178.67a.67.67 0 1 0 0-1.34.67.67 0 0 0 0 1.34z" opacity=".5"/><path fill="url(#d)" d="m90.89 182.62 2.11 2.31c2.39-1.38 4-3.97 4-6.93 0-2.96-1.61-5.54-4-6.93l-2.13 2.33c1.46.95 2.44 2.66 2.44 4.61 0 1.95-.97 3.65-2.42 4.61z" opacity=".5"/><path fill="url(#e)" d="M157 176h-52v-8h52v8zm-22 4h-30v2h30v-2zm22 0h-18v2h18v-2zm-32 4h-20v2h20v-2zm32 0h-28v2h28v-2zm-20 4h-32v2h32v-2zm20 0h-16v2h16v-2zm0 12H77v-4h80v4z"/><path fill="#fff" d="M113 32H77v24h36V32z"/><path fill="#F46767" d="M95 50a6 6 0 1 0 0-12 6 6 0 0 0 0 12z"/><path fill="#fff" d="M118 32h-2v40h2V32z"/><path fill="url(#f)" d="M173 100h-12v44h12v-44z"/><path fill="url(#g)" d="M153 100h-12v44h12v-44z"/><path fill="url(#h)" d="M133 100h-12v44h12v-44z"/><path fill="url(#i)" d="M113 100h-12v44h12v-44z"/><path fill="url(#j)" d="M93 100H81v44h12v-44z"/><path fill="url(#k)" d="M73 100H61v44h12v-44z"/><defs><linearGradient id="a" x1="117" x2="117" y1="-.26" y2="188.36" gradientUnits="userSpaceOnUse"><stop stop-color="#0A0B0D" stop-opacity="0"/><stop offset=".46" stop-color="#1652F0"/><stop offset=".78" stop-color="#154BD9" stop-opacity=".93"/><stop offset="1" stop-color="#0A0B0D" stop-opacity=".3"/></linearGradient><linearGradient id="b" x1="117" x2="117" y1="152" y2="208" gradientUnits="userSpaceOnUse"><stop stop-color="#BFE9FF"/><stop offset="1" stop-color="#D4EEFF"/></linearGradient><linearGradient id="c" x1="90.92" x2="81.96" y1="175.99" y2="184.95" gradientUnits="userSpaceOnUse"><stop stop-color="#D4EEFF" stop-opacity="0"/><stop offset=".31" stop-color="#D4EEFF"/><stop offset="1" stop-color="#D4EEFF" stop-opacity=".3"/></linearGradient><linearGradient id="d" x1="93.93" x2="93.93" y1="172.04" y2="188.28" gradientUnits="userSpaceOnUse"><stop stop-color="#fff"/><stop offset=".1" stop-color="#fff" stop-opacity=".9"/><stop offset="1" stop-color="#fff" stop-opacity="0"/></linearGradient><linearGradient id="e" x1="117" x2="117" y1="168.31" y2="207.53" gradientUnits="userSpaceOnUse"><stop stop-color="#D4EEFF"/><stop offset="1" stop-color="#fff"/></linearGradient><linearGradient id="f" x1="167" x2="167" y1="87.54" y2="122.96" gradientUnits="userSpaceOnUse"><stop stop-color="#D4EEFF"/><stop offset="1" stop-color="#fff"/></linearGradient><linearGradient id="g" x1="147" x2="147" y1="87.54" y2="122.96" gradientUnits="userSpaceOnUse"><stop stop-color="#D4EEFF"/><stop offset="1" stop-color="#fff"/></linearGradient><linearGradient id="h" x1="127" x2="127" y1="87.54" y2="122.96" gradientUnits="userSpaceOnUse"><stop stop-color="#D4EEFF"/><stop offset="1" stop-color="#fff"/></linearGradient><linearGradient id="i" x1="107" x2="107" y1="87.54" y2="122.96" gradientUnits="userSpaceOnUse"><stop stop-color="#D4EEFF"/><stop offset="1" stop-color="#fff"/></linearGradient><linearGradient id="j" x1="87" x2="87" y1="87.54" y2="122.96" gradientUnits="userSpaceOnUse"><stop stop-color="#D4EEFF"/><stop offset="1" stop-color="#fff"/></linearGradient><linearGradient id="k" x1="67" x2="67" y1="87.54" y2="122.96" gradientUnits="userSpaceOnUse"><stop stop-color="#D4EEFF"/><stop offset="1" stop-color="#fff"/></linearGradient></defs></svg>