<svg xmlns="http://www.w3.org/2000/svg" fill="none" viewBox="0 0 52 52"><path fill="#A5C1FD" d="M52 4H14.286v37.714H52V4z"/><path fill="#144FCE" d="M41.714 14.286H4V52h37.714V14.286z"/><path fill="#588AF5" d="M41.714 14.286H14.286v27.428h27.428V14.286z"/><path fill="#fff" d="m33.34 25.883-.6.6 1.08 1.088h-5.392V22.18l1.089 1.08.6-.6L28 20.534l-2.117 2.126.6.6 1.088-1.08v5.391H22.18l1.08-1.088-.6-.6L20.534 28l2.126 2.117.6-.6-1.08-1.089h5.391v5.392l-1.088-1.08-.6.6L28 35.465l2.117-2.125-.6-.6-1.089 1.08v-5.392h5.392l-1.08 1.089.6.6L35.465 28l-2.125-2.117z"/></svg>