<svg xmlns="http://www.w3.org/2000/svg" fill="none" viewBox="0 0 240 240"><path fill="url(#a)" d="M81.2 131.5h-60v108h60v-108z"/><path fill="#fff" fill-opacity=".35" d="M68.2 239.5v-1h-1v1h1zm-9-12v-1h-1v1h1zm0-12v-1h-1v1h1zm0-12v-1h-1v1h1zm-12 0v-1h-1v1h1zm12-12v-1h-1v1h1zm-12 0v-1h-1v1h1zm12-12v-1h-1v1h1zm-12 0v-1h-1v1h1zm12-12v-1h-1v1h1zm-12 0v-1h-1v1h1zm12-12v-1h-1v1h1zm-12 0v-1h-1v1h1zm12-12v-1h-1v1h1zm-12 0v-1h-1v1h1z"/><path fill="url(#b)" d="M81.2 67.3v172.2h88V67.3h-88z"/><path fill="url(#c)" d="M109.2 71.7v167.8h32V71.7h-32z"/><path fill="#fff" fill-opacity=".35" d="M165.2 235.5v-1h-1v1h1zm-12 0v-1h-1v1h1zm-12 0v-1h-1v1h1zm48-12v-1h-1v1h1zm-12 0v-1h-1v1h1zm-12 0v-1h-1v1h1zm-12 0v-1h-1v1h1zm-12 0v-1h-1v1h1zm72-12v-1h-1v1h1zm-12 0v-1h-1v1h1zm-12 0v-1h-1v1h1zm-12 0v-1h-1v1h1zm-12 0v-1h-1v1h1zm-12 0v-1h-1v1h1zm-12 0v-1h-1v1h1zm-12 24v-1h-1v1h1zm0-12v-1h-1v1h1zm84-24v-1h-1v1h1zm-12 0v-1h-1v1h1zm-12 0v-1h-1v1h1zm-12 0v-1h-1v1h1zm-12 0v-1h-1v1h1zm-12 0v-1h-1v1h1zm60-12v-1h-1v1h1zm-12 0v-1h-1v1h1zm-12 0v-1h-1v1h1zm-12 0v-1h-1v1h1zm-12 0v-1h-1v1h1zm-12 0v-1h-1v1h1zm60-12v-1h-1v1h1zm-12 0v-1h-1v1h1zm-12 0v-1h-1v1h1zm-12 0v-1h-1v1h1zm-12 0v-1h-1v1h1zm48-12v-1h-1v1h1zm-12 0v-1h-1v1h1zm-12 0v-1h-1v1h1zm-12 0v-1h-1v1h1zm-12 0v-1h-1v1h1zm24-12v-1h-1v1h1zm-12 0v-1h-1v1h1zm-12 0v-1h-1v1h1zm24-12v-1h-1v1h1zm-12 0v-1h-1v1h1zm-12 0v-1h-1v1h1zm24-12v-1h-1v1h1zm-12 0v-1h-1v1h1zm-12 0v-1h-1v1h1zm12-12v-1h-1v1h1zm-12 0v-1h-1v1h1zm12-12v-1h-1v1h1zm-12 0v-1h-1v1h1zm12-12v-1h-1v1h1zm-12 0v-1h-1v1h1zm12-12v-1h-1v1h1zm-12 0v-1h-1v1h1z"/><path fill="url(#d)" d="M217.2 163.5h-60v76h60v-76z"/><path fill="#fff" d="M187.2 193.5c16.6 0 30-13.4 30-30s-13.4-30-30-30-30 13.4-30 30 13.4 30 30 30z"/><path fill="url(#e)" d="M187.2 134.5c7.8 0 15 3 20.5 8.5s8.5 12.8 8.5 20.5c0 7.7-3 15-8.5 20.5s-12.8 8.5-20.5 8.5c-7.7 0-15-3-20.5-8.5s-8.5-12.8-8.5-20.5c0-7.7 3-15 8.5-20.5 5.5-5.4 12.7-8.5 20.5-8.5zm0-1c-7.7 0-15.4 2.9-21.2 8.8-11.7 11.7-11.7 30.7 0 42.4 5.9 5.9 13.5 8.8 21.2 8.8 7.7 0 15.4-2.9 21.2-8.8 11.7-11.7 11.7-30.7 0-42.4-5.9-5.8-13.5-8.8-21.2-8.8z"/><path fill="url(#f)" d="M187.2 142c11.9 0 21.5 9.6 21.5 21.5S199 185 187.2 185s-21.5-9.6-21.5-21.5 9.6-21.5 21.5-21.5zm0-1c-12.4 0-22.5 10.1-22.5 22.5s10.1 22.5 22.5 22.5 22.5-10.1 22.5-22.5-10.1-22.5-22.5-22.5z"/><path fill="url(#g)" d="M51.2 161.5c16.6 0 30-13.4 30-30s-13.4-30-30-30-30 13.4-30 30 13.4 30 30 30z"/><path fill="url(#h)" d="M51.2 102.5c7.8 0 15 3 20.5 8.5s8.5 12.8 8.5 20.5c0 7.7-3 15-8.5 20.5s-12.8 8.5-20.5 8.5c-7.7 0-15-3-20.5-8.5s-8.5-12.8-8.5-20.5c0-7.7 3-15 8.5-20.5 5.5-5.4 12.7-8.5 20.5-8.5zm0-1c-7.7 0-15.4 2.9-21.2 8.8-11.7 11.7-11.7 30.7 0 42.4 5.9 5.9 13.5 8.8 21.2 8.8 7.7 0 15.4-2.9 21.2-8.8 11.7-11.7 11.7-30.7 0-42.4-5.9-5.8-13.5-8.8-21.2-8.8z"/><path fill="#FFD066" d="M125.2 115.5c28.7 0 52-23.3 52-52s-23.3-52-52-52-52 23.3-52 52 23.3 52 52 52z"/><path fill="url(#i)" d="m77.7 84.7 70.9-67.6c13.3 6.7 23.3 19 27 33.7L110 113.2c-14.4-4.3-26.2-14.8-32.3-28.5zm-4.5-18.8c.2 3.7.7 7.2 1.6 10.6l65.8-62.7c-3.4-1.1-6.9-1.8-10.6-2.1L73.2 65.9z" opacity=".6"/><path fill="#FFD066" d="M125.2 15.9c26.3 0 47.7 21.4 47.7 47.7 0 26.3-21.4 47.7-47.7 47.7-26.3 0-47.7-21.5-47.7-47.8 0-26.3 21.4-47.6 47.7-47.6zm0-4.4c-28.7 0-52 23.3-52 52s23.3 52 52 52 52-23.3 52-52-23.3-52-52-52z"/><path fill="#FFD066" d="M125.2 13.7c27.5 0 49.8 22.4 49.8 49.8s-22.4 49.8-49.8 49.8S75.4 91 75.4 63.5c0-27.5 22.3-49.8 49.8-49.8zm0-2.2c-28.7 0-52 23.3-52 52s23.3 52 52 52 52-23.3 52-52-23.3-52-52-52z"/><path fill="url(#j)" d="M125.2 15.9c26.3 0 47.7 21.4 47.7 47.7 0 26.3-21.4 47.7-47.7 47.7-26.3 0-47.7-21.5-47.7-47.8 0-26.3 21.4-47.6 47.7-47.6zm0-4.4c-28.7 0-52 23.3-52 52s23.3 52 52 52 52-23.3 52-52-23.3-52-52-52z" opacity=".3"/><path fill="url(#k)" d="M125.2 13.7c27.5 0 49.8 22.4 49.8 49.8s-22.4 49.8-49.8 49.8S75.4 91 75.4 63.5c0-27.5 22.3-49.8 49.8-49.8zm0-2.2c-28.7 0-52 23.3-52 52s23.3 52 52 52 52-23.3 52-52-23.3-52-52-52z"/><path fill="#1652F0" d="M233.2 123.1c.4 0 .8-.3.8-.8s-.3-.8-.8-.8-.8.3-.8.8.4.8.8.8z" opacity=".5"/><path fill="url(#l)" d="m125.7 33.2 4.4 26.5 26.5 4.3-26.5 4.4-4.4 26.5-4.3-26.5L94.9 64l26.5-4.3 4.3-26.5z"/><path fill="url(#m)" d="m103.9 42.3 21.9 15.6 21.7-15.7-15.6 21.9L147.5 86l-21.7-15.7-21.9 15.6 15.7-21.7-15.7-21.9z"/><defs><linearGradient id="a" x1="51.18" x2="51.18" y1="131.39" y2="240.32" gradientUnits="userSpaceOnUse"><stop stop-color="#1652F0"/><stop offset=".13" stop-color="#154BD9" stop-opacity=".93"/><stop offset="1" stop-color="#0A0B0D" stop-opacity=".3"/></linearGradient><linearGradient id="b" x1="125.18" x2="125.18" y1="67.07" y2="240.79" gradientUnits="userSpaceOnUse"><stop stop-color="#0A0B0D" stop-opacity="0"/><stop offset=".15" stop-color="#154BD9" stop-opacity=".93"/><stop offset="1" stop-color="#0A0B0D" stop-opacity=".3"/></linearGradient><linearGradient id="c" x1="125.18" x2="125.18" y1="71.46" y2="240.76" gradientUnits="userSpaceOnUse"><stop stop-color="#0A0B0D" stop-opacity="0"/><stop offset=".19" stop-color="#154BD9" stop-opacity=".93"/><stop offset="1" stop-color="#0A0B0D" stop-opacity=".3"/></linearGradient><linearGradient id="d" x1="187.18" x2="187.18" y1="163.43" y2="240.09" gradientUnits="userSpaceOnUse"><stop offset=".27" stop-color="#154BD9" stop-opacity=".93"/><stop offset=".96" stop-color="#0A0B0D" stop-opacity=".3"/></linearGradient><linearGradient id="e" x1="208.4" x2="165.97" y1="184.76" y2="142.33" gradientUnits="userSpaceOnUse"><stop stop-color="#D4EEFF" stop-opacity="0"/><stop offset="1" stop-color="#D4EEFF"/></linearGradient><linearGradient id="f" x1="187.18" x2="187.18" y1="186.04" y2="141.04" gradientUnits="userSpaceOnUse"><stop stop-color="#1652F0" stop-opacity="0"/><stop offset="1" stop-color="#1652F0" stop-opacity=".2"/></linearGradient><linearGradient id="g" x1="81.18" x2="21.18" y1="131.54" y2="131.54" gradientUnits="userSpaceOnUse"><stop stop-color="#88ADF5"/><stop offset="1" stop-color="#99D6FF"/></linearGradient><linearGradient id="h" x1="29.97" x2="72.39" y1="110.33" y2="152.75" gradientUnits="userSpaceOnUse"><stop stop-color="#D4EEFF" stop-opacity="0"/><stop offset="1" stop-color="#D4EEFF"/></linearGradient><linearGradient id="i" x1="85.94" x2="144.92" y1="24.29" y2="83.28" gradientUnits="userSpaceOnUse"><stop stop-color="#fff" stop-opacity="0"/><stop offset=".37" stop-color="#fff" stop-opacity=".89"/><stop offset=".41" stop-color="#fff"/><stop offset="1" stop-color="#fff" stop-opacity="0"/></linearGradient><linearGradient id="j" x1="90.5" x2="159.86" y1="102.29" y2="24.79" gradientUnits="userSpaceOnUse"><stop stop-color="#fff" stop-opacity=".2"/><stop offset=".5" stop-color="#fff"/><stop offset="1" stop-color="#fff" stop-opacity="0"/></linearGradient><linearGradient id="k" x1="90.5" x2="159.86" y1="102.29" y2="24.79" gradientUnits="userSpaceOnUse"><stop stop-color="#fff" stop-opacity=".2"/><stop offset=".5" stop-color="#fff"/><stop offset="1" stop-color="#fff" stop-opacity="0"/></linearGradient><linearGradient id="l" x1="110.32" x2="141.15" y1="48.6" y2="79.43" gradientUnits="userSpaceOnUse"><stop stop-color="#fff" stop-opacity=".4"/><stop offset="1" stop-color="#fff"/></linearGradient><linearGradient id="m" x1="103.89" x2="147.5" y1="64.03" y2="64.03" gradientUnits="userSpaceOnUse"><stop stop-color="#fff" stop-opacity=".4"/><stop offset="1" stop-color="#fff"/></linearGradient></defs></svg>