<svg xmlns="http://www.w3.org/2000/svg" fill="none" viewBox="0 0 48 48"><path fill="#144FCE" d="M10.5 48C16.299 48 21 43.299 21 37.5S16.299 27 10.5 27 0 31.701 0 37.5 4.701 48 10.5 48zM37.5 21C43.299 21 48 16.299 48 10.5S43.299 0 37.5 0 27 4.701 27 10.5 31.701 21 37.5 21z"/><path fill="#FFD066" d="M24 43.5c10.77 0 19.5-8.73 19.5-19.5S34.77 4.5 24 4.5 4.5 13.23 4.5 24 13.23 43.5 24 43.5z"/><path fill="#588AF5" d="M10.5 27c-1.448 0-2.835.293-4.088.825a18.009 18.009 0 0 0 13.763 13.762c.532-1.252.825-2.64.825-4.087C21 31.703 16.297 27 10.5 27zM41.587 20.175A18.009 18.009 0 0 0 27.825 6.412 10.443 10.443 0 0 0 27 10.5C27 16.297 31.703 21 37.5 21c1.447 0 2.835-.293 4.087-.825z"/><path fill="#FFD066" d="M36 48a.75.75 0 1 0 0-1.5.75.75 0 0 0 0 1.5z"/><path fill="#588AF5" d="M47.25 36.75a.75.75 0 1 0 0-1.5.75.75 0 0 0 0 1.5z"/><path fill="#A5C1FD" d="M47.25 48a.75.75 0 1 0 0-1.5.75.75 0 0 0 0 1.5zM43.5 40.875h-1.875V39h-.75v1.875H39v.75h1.875V43.5h.75v-1.875H43.5v-.75z"/><path fill="#144FCE" d="M.75 12.75a.75.75 0 1 0 0-1.5.75.75 0 0 0 0 1.5z"/><path fill="#FFD066" d="M12 1.5A.75.75 0 1 0 12 0a.75.75 0 0 0 0 1.5z"/><path fill="#A5C1FD" d="M.75 1.5a.75.75 0 1 0 0-1.5.75.75 0 0 0 0 1.5z"/><path fill="#588AF5" d="M4.5 7.125h1.875V9h.75V7.125H9v-.75H7.125V4.5h-.75v1.875H4.5v.75z"/><path fill="#fff" d="m24 15 1.59 7.41L33 24l-7.41 1.59L24 33l-1.59-7.41L15 24l7.41-1.59L24 15z"/></svg>