<svg xmlns="http://www.w3.org/2000/svg" fill="none" viewBox="0 0 240 240"><g clip-path="url(#a)"><path fill="url(#b)" d="M104 172V0H20v172h84z"/><path fill="url(#c)" d="M221 243V56h-84v187h84z"/><path fill="#fff" fill-opacity=".75" d="M62 25h-1v1h1v-1zm0 12h-1v1h1v-1zm0 12h-1v1h1v-1zm0 12h-1v1h1v-1zm0 12h-1v1h1v-1zm0 12h-1v1h1v-1zm0 12h-1v1h1v-1zM50 25h-1v1h1v-1zm0 12h-1v1h1v-1zm0 12h-1v1h1v-1zm0 12h-1v1h1v-1zm0 12h-1v1h1v-1zm0 12h-1v1h1v-1zm0 12h-1v1h1v-1zM38 25h-1v1h1v-1zm0 12h-1v1h1v-1zm0 12h-1v1h1v-1zm0 12h-1v1h1v-1zm-12 0h-1v1h1v-1zm12 12h-1v1h1v-1zm0 12h-1v1h1v-1zm0 12h-1v1h1v-1zM26 37h-1v1h1v-1zm0 12h-1v1h1v-1zm0 36h-1v1h1v-1zm0 12h-1v1h1v-1zM14 37h-1v1h1v-1zm0 12h-1v1h1v-1zm0 48h-1v1h1v-1z" opacity=".5"/><mask id="d" width="49" height="72" x="175" y="15" mask-type="alpha" maskUnits="userSpaceOnUse"><path fill="#1652F0" d="m175 55 24.4 31.5L223.7 55h-13.8V15h-21.1v40H175z"/></mask><g mask="url(#d)"><path fill="#F46767" d="m175 55 24.4 31.5L223.7 55h-13.8V15h-21.1v40H175z"/></g><g filter="url(#e)"><path fill="#fff" d="M60 20h120v200H60z"/></g><mask id="f" width="120" height="200" x="60" y="20" mask-type="alpha" maskUnits="userSpaceOnUse"><path fill="#fff" d="M60 20h120v200H60z"/></mask><g mask="url(#f)"><path fill="url(#g)" d="M160.718 120H181v100h-63.887v-11.134h7.098v-11.133H109v-11.134h42.592v-11.133h-13.184v-11.134h-10.14v-11.134h-11.155v-11.133h7.098v-11.134h36.507V120z"/><path fill="url(#h)" d="M117.222 76.353h7.087V65.082H99v-11.27h52.642V42.54h-13.161V31.27h-20.246V20H181v100h-29.358v-9.836h-13.161v-11.27h-10.123V87.622h-11.136v-11.27z"/></g><mask id="i" width="63" height="92" x="8" y="136" mask-type="alpha" maskUnits="userSpaceOnUse"><path fill="#3ACC8A" d="M70.2 176.3 39.1 136 8 176.3h17.6v51h27v-51h17.6z"/></mask><g mask="url(#i)"><path fill="#3ACC8A" d="M70.2 176.3 39.1 136 8 176.3h17.6v51h27v-51h17.6z"/></g><g filter="url(#j)"><path fill="#fff" d="M43 107h156v27H43z"/></g><path fill="url(#k)" fill-rule="evenodd" d="M54.795 122.239h5.845c.498 0 .87-.498.995-.995v-.249c0-.622-.497-.995-.995-.995h-5.845c-.622 0-.995.497-.995.995v.249c0 .621.498.995.995.995zm9.825 0h5.845c.497 0 .995-.498.995-.995v-.249c0-.622-.498-.995-.995-.995H64.62c-.622 0-.995.497-.995.995v.249c0 .621.497.995.995.995zm15.67 0h-5.846c-.497 0-.995-.374-.995-.995v-.249c0-.498.374-.995.995-.995h5.846c.497 0 .994.373.994.995v.249c0 .497-.497.995-.995.995zm3.98 0h5.844c.622 0 .995-.498.995-.995v-.249c0-.622-.497-.995-.995-.995H84.27c-.622 0-.995.497-.995.995v.249c0 .621.498.995.995.995z" clip-rule="evenodd"/><path fill="url(#l)" fill-rule="evenodd" d="M104.54 122.239h5.845c.498 0 .871-.498.995-.995v-.249c0-.622-.497-.995-.995-.995h-5.845c-.621 0-.995.497-.995.995v.249c0 .621.498.995.995.995zm9.825 0h5.845c.498 0 .995-.498.995-.995v-.249c0-.622-.497-.995-.995-.995h-5.845c-.622 0-.995.497-.995.995v.249c0 .621.498.995.995.995zm15.67 0h-5.845c-.498 0-.995-.374-.995-.995v-.249c0-.498.373-.995.995-.995h5.845c.497 0 .995.373.995.995v.249c0 .497-.498.995-.995.995zm3.98 0h5.845c.621 0 .995-.498.995-.995v-.249c0-.622-.498-.995-.995-.995h-5.845c-.622 0-.995.497-.995.995v.249c0 .621.497.995.995.995z" clip-rule="evenodd"/><path fill="url(#m)" fill-rule="evenodd" d="M154.286 122.239h5.845c.497 0 .87-.498.995-.995v-.249c0-.622-.498-.995-.995-.995h-5.845c-.622 0-.995.497-.995.995v.249c0 .621.497.995.995.995zm9.825 0h5.845c.497 0 .995-.498.995-.995v-.249c0-.622-.498-.995-.995-.995h-5.845c-.622 0-.995.497-.995.995v.249c0 .621.497.995.995.995zm15.669 0h-5.845c-.497 0-.995-.374-.995-.995v-.249c0-.498.373-.995.995-.995h5.845c.498 0 .995.373.995.995v.249c0 .497-.497.995-.995.995zm3.98 0h5.845c.622 0 .995-.498.995-.995v-.249c0-.622-.497-.995-.995-.995h-5.845c-.622 0-.995.497-.995.995v.249c0 .621.498.995.995.995z" clip-rule="evenodd"/><path fill="#fff" fill-opacity=".75" d="M191 220h1v-1h-1v1zm0-12h1v-1h-1v1zm0-12h1v-1h-1v1zm0-12h1v-1h-1v1zm0-12h1v-1h-1v1zm0-12h1v-1h-1v1zm0-12h1v-1h-1v1zm12 72h1v-1h-1v1zm0-12h1v-1h-1v1zm0-12h1v-1h-1v1zm0-12h1v-1h-1v1zm0-12h1v-1h-1v1zm0-12h1v-1h-1v1zm0-12h1v-1h-1v1zm12 72h1v-1h-1v1zm0-12h1v-1h-1v1zm0-12h1v-1h-1v1zm0-12h1v-1h-1v1zm12 0h1v-1h-1v1zm-12-12h1v-1h-1v1zm0-12h1v-1h-1v1zm0-12h1v-1h-1v1zm12 60h1v-1h-1v1zm0-12h1v-1h-1v1zm0-36h1v-1h-1v1zm0-12h1v-1h-1v1zm12 60h1v-1h-1v1zm0-12h1v-1h-1v1zm0-48h1v-1h-1v1z" opacity=".5"/></g><defs><linearGradient id="b" x1="96.44" x2="96.44" y1="172" y2="-5.33" gradientUnits="userSpaceOnUse"><stop stop-color="#1652FF" stop-opacity=".7"/><stop offset=".96" stop-color="#0A0B0D" stop-opacity="0"/></linearGradient><linearGradient id="c" x1="217" x2="217" y1="44.78" y2="243" gradientUnits="userSpaceOnUse"><stop stop-color="#0052FF" stop-opacity=".7"/><stop offset=".96" stop-color="#0A0B0D" stop-opacity="0"/></linearGradient><linearGradient id="g" x1="96" x2="183.5" y1="220" y2="220" gradientUnits="userSpaceOnUse"><stop stop-color="#F46767"/><stop offset="1" stop-color="#F46767" stop-opacity="0"/></linearGradient><linearGradient id="h" x1="101.5" x2="198.5" y1="109.5" y2="109.5" gradientUnits="userSpaceOnUse"><stop stop-color="#3ACC8A"/><stop offset="1" stop-color="#3ACC8A" stop-opacity="0"/></linearGradient><linearGradient id="k" x1="83.27" x2="91.11" y1="122.77" y2="122.77" gradientUnits="userSpaceOnUse"><stop stop-color="#D4EEFF"/><stop offset="1" stop-color="#fff"/></linearGradient><linearGradient id="l" x1="133.02" x2="140.85" y1="122.77" y2="122.77" gradientUnits="userSpaceOnUse"><stop stop-color="#D4EEFF"/><stop offset="1" stop-color="#fff"/></linearGradient><linearGradient id="m" x1="182.76" x2="190.6" y1="122.77" y2="122.77" gradientUnits="userSpaceOnUse"><stop stop-color="#D4EEFF"/><stop offset="1" stop-color="#fff"/></linearGradient><filter id="e" width="130" height="210" x="55" y="15" color-interpolation-filters="sRGB" filterUnits="userSpaceOnUse"><feFlood flood-opacity="0" result="BackgroundImageFix"/><feColorMatrix in="SourceAlpha" result="hardAlpha" values="0 0 0 0 0 0 0 0 0 0 0 0 0 0 0 0 0 0 127 0"/><feOffset/><feGaussianBlur stdDeviation="2.5"/><feColorMatrix values="0 0 0 0 0.0862745 0 0 0 0 0.321569 0 0 0 0 0.941176 0 0 0 0.35 0"/><feBlend in2="BackgroundImageFix" result="effect1_dropShadow"/><feBlend in="SourceGraphic" in2="effect1_dropShadow" result="shape"/></filter><filter id="j" width="166" height="37" x="38" y="102" color-interpolation-filters="sRGB" filterUnits="userSpaceOnUse"><feFlood flood-opacity="0" result="BackgroundImageFix"/><feColorMatrix in="SourceAlpha" result="hardAlpha" values="0 0 0 0 0 0 0 0 0 0 0 0 0 0 0 0 0 0 127 0"/><feOffset/><feGaussianBlur stdDeviation="2.5"/><feColorMatrix values="0 0 0 0 0.0862745 0 0 0 0 0.321569 0 0 0 0 0.941176 0 0 0 0.35 0"/><feBlend in2="BackgroundImageFix" result="effect1_dropShadow"/><feBlend in="SourceGraphic" in2="effect1_dropShadow" result="shape"/></filter><clipPath id="a"><path fill="#fff" d="M0 0h240v240H0z"/></clipPath></defs></svg>