<svg xmlns="http://www.w3.org/2000/svg" fill="none" viewBox="0 0 48 49"><path fill="#A5C1FD" d="M40.41 12.195c.585-3.735-.007-6.277-2.025-8.572C36.165 1.087 32.145 0 27.008 0H12.09c-1.057 0-1.95.765-2.115 1.8l-6.21 39.398a1.28 1.28 0 0 0 1.268 1.477h9.21l-.638 4.028A1.124 1.124 0 0 0 14.715 48h7.763c.922 0 1.702-.667 1.845-1.575l.075-.397 1.462-9.27.098-.51a1.864 1.864 0 0 1 1.845-1.575h1.162c7.523 0 13.41-3.053 15.128-11.896.72-3.69.345-6.772-1.553-8.94-.585-.66-1.297-1.2-2.13-1.642z"/><path fill="#144FCE" d="M19.043 12.248a1.89 1.89 0 0 1 1.035-1.396c.247-.12.517-.18.802-.18h11.693c1.387 0 2.677.09 3.855.278.337.053.667.12.982.188.323.067.63.15.93.24.15.044.3.09.443.134.577.195 1.117.42 1.62.683.585-3.735-.008-6.277-2.025-8.572C36.165 1.087 32.145 0 27.008 0H12.09c-1.057 0-1.95.765-2.115 1.8l-6.21 39.398a1.28 1.28 0 0 0 1.268 1.477h9.21l2.31-14.67 2.49-15.757z"/><path fill="#588AF5" d="M38.348 11.377c-.3-.09-.607-.165-.93-.24-.322-.067-.645-.135-.982-.187-1.178-.188-2.475-.277-3.855-.277H20.888a1.859 1.859 0 0 0-1.838 1.575l-2.482 15.757-.075.457a2.128 2.128 0 0 1 2.1-1.8h4.38c8.595 0 15.33-3.494 17.295-13.59.06-.3.105-.592.15-.87a10.615 10.615 0 0 0-1.62-.682c-.15-.053-.3-.105-.45-.143z"/></svg>