<svg xmlns="http://www.w3.org/2000/svg" fill="none" viewBox="0 0 240 240"><path fill="url(#a)" d="M240 106.5H0v68h240v-68z"/><path fill="#fff" fill-opacity=".75" d="M4.5 119.5h1v-1h-1v1zM16.5 143.5h1v-1h-1v1zM16.5 131.5h1v-1h-1v1zM16.5 119.5h1v-1h-1v1zM28.5 167.5h1v-1h-1v1zM28.5 155.5h1v-1h-1v1zM28.5 143.5h1v-1h-1v1zM28.5 131.5h1v-1h-1v1zM28.5 119.5h1v-1h-1v1zM40.5 191.5h1v-1h-1v1zM40.5 179.5h1v-1h-1v1zM40.5 167.5h1v-1h-1v1zM40.5 155.5h1v-1h-1v1zM40.5 143.5h1v-1h-1v1zM40.5 131.5h1v-1h-1v1zM40.5 119.5h1v-1h-1v1zM52.5 191.5h1v-1h-1v1zM52.5 179.5h1v-1h-1v1zM52.5 167.5h1v-1h-1v1zM52.5 155.5h1v-1h-1v1zM52.5 143.5h1v-1h-1v1zM52.5 131.5h1v-1h-1v1zM52.5 119.5h1v-1h-1v1zM64.5 191.5h1v-1h-1v1zM64.5 179.5h1v-1h-1v1zM64.5 167.5h1v-1h-1v1zM64.5 155.5h1v-1h-1v1zM64.5 143.5h1v-1h-1v1zM64.5 131.5h1v-1h-1v1zM64.5 119.5h1v-1h-1v1zM163.5 191.5h1v-1h-1v1zM163.5 179.5h1v-1h-1v1zM163.5 167.5h1v-1h-1v1zM163.5 155.5h1v-1h-1v1zM163.5 143.5h1v-1h-1v1zM163.5 131.5h1v-1h-1v1zM163.5 119.5h1v-1h-1v1zM175.5 191.5h1v-1h-1v1zM175.5 179.5h1v-1h-1v1zM175.5 167.5h1v-1h-1v1zM175.5 155.5h1v-1h-1v1zM175.5 143.5h1v-1h-1v1zM175.5 131.5h1v-1h-1v1zM175.5 119.5h1v-1h-1v1zM187.5 191.5h1v-1h-1v1zM187.5 179.5h1v-1h-1v1zM187.5 167.5h1v-1h-1v1zM187.5 155.5h1v-1h-1v1zM187.5 143.5h1v-1h-1v1zM187.5 131.5h1v-1h-1v1zM187.5 119.5h1v-1h-1v1zM199.5 191.5h1v-1h-1v1zM199.5 167.5h1v-1h-1v1zM199.5 155.5h1v-1h-1v1zM199.5 143.5h1v-1h-1v1zM199.5 131.5h1v-1h-1v1zM199.5 119.5h1v-1h-1v1zM211.5 119.5h1v-1h-1v1zM223.5 119.5h1v-1h-1v1zM211.5 131.5h1v-1h-1v1z" opacity=".5"/><path fill="#fff" d="M168 216H72c-2.21 0-4-1.79-4-4V28c0-2.21 1.79-4 4-4h96c2.21 0 4 1.79 4 4v184c0 2.21-1.79 4-4 4z"/><path fill="#1652F0" d="M172 36H68v168h104V36z"/><path fill="#D4EEFF" d="M133 212h-26c-1.1 0-2-.9-2-2s.9-2 2-2h26c1.1 0 2 .9 2 2s-.9 2-2 2zM120 32.52a2.11 2.11 0 1 0 0-4.22 2.11 2.11 0 0 0 0 4.22z"/><path fill="#fff" d="M74 42h-2v2h2v-2zM77 41h-2v3h2v-3zM80 40h-2v4h2v-4zM168 40.25h-6v3.5h6v-3.5zM161.5 43v-2c-.28 0-.5.22-.5.5v1c0 .28.22.5.5.5zM48.25 158.989v-77.98c0-1.72 1.4-3.12 3.12-3.12h137.26c1.72 0 3.12 1.4 3.12 3.12V159c0 1.72-1.4 3.12-3.12 3.12H51.37a3.133 3.133 0 0 1-3.12-3.13z"/><path fill="url(#b)" d="M140.28 132.479H57.61v6.24h82.67v-6.24z"/><path fill="url(#c)" d="M68.39 143.399H57.61v6.24h10.78v-6.24zm15.94 0H73.55v6.24h10.78v-6.24zm15.94 0H89.49v6.24h10.78v-6.24z"/><path fill="url(#d)" d="M180.55 94h-63v10.789h63v-10.79z"/><path fill="#FFD066" d="M74.55 108.759H61.27c-1.5 0-2.72-1.22-2.72-2.72v-13.29c0-1.5 1.22-2.72 2.72-2.72h13.28c1.5 0 2.72 1.22 2.72 2.72v13.28c0 1.51-1.21 2.73-2.72 2.73z"/><path fill="#fff" d="M77.27 98.89H72.3V95h-3.89v-4.97h-1V95h-3.89v3.89h-4.97v1h4.97v3.889h3.89v4.97h1v-4.97h3.89v-3.89h4.97v-1zm-5.97 3.889h-6.78v-6.78h6.78v6.78z"/><g filter="url(#e)"><path fill="#3ACC8A" d="M120 188c15.464 0 28-12.536 28-28s-12.536-28-28-28-28 12.536-28 28 12.536 28 28 28z"/></g><path fill="#fff" d="m109.115 160.397-1.414 1.414 8.379 8.379 1.414-1.414-8.379-8.379z"/><path fill="#fff" d="m131.636 151.807-16.97 16.97 1.414 1.415 16.97-16.971-1.414-1.414z"/><defs><linearGradient id="a" x1="240" x2="0" y1="174" y2="174" gradientUnits="userSpaceOnUse"><stop stop-color="#0A0B0D" stop-opacity="0"/><stop offset=".35" stop-color="#1652F0"/><stop offset=".65" stop-color="#154BD9" stop-opacity=".93"/><stop offset="1" stop-color="#0A0B0D" stop-opacity=".3"/></linearGradient><linearGradient id="b" x1="54.93" x2="128.38" y1="135.6" y2="135.6" gradientUnits="userSpaceOnUse"><stop stop-color="#fff"/><stop offset="1" stop-color="#D4EEFF"/></linearGradient><linearGradient id="c" x1="55.69" x2="93.94" y1="146.52" y2="146.52" gradientUnits="userSpaceOnUse"><stop stop-color="#fff"/><stop offset="1" stop-color="#D4EEFF"/></linearGradient><linearGradient id="d" x1="117.55" x2="180.55" y1="99.39" y2="99.39" gradientUnits="userSpaceOnUse"><stop stop-color="#D4EEFF"/><stop offset="1" stop-color="#fff"/></linearGradient><filter id="e" width="66" height="66" x="87" y="127" color-interpolation-filters="sRGB" filterUnits="userSpaceOnUse"><feFlood flood-opacity="0" result="BackgroundImageFix"/><feColorMatrix in="SourceAlpha" values="0 0 0 0 0 0 0 0 0 0 0 0 0 0 0 0 0 0 127 0"/><feOffset/><feGaussianBlur stdDeviation="2.5"/><feColorMatrix values="0 0 0 0 0.0862745 0 0 0 0 0.321569 0 0 0 0 0.941176 0 0 0 0.35 0"/><feBlend in2="BackgroundImageFix" result="effect1_dropShadow"/><feBlend in="SourceGraphic" in2="effect1_dropShadow" result="shape"/></filter></defs></svg>