<svg xmlns="http://www.w3.org/2000/svg" fill="none" viewBox="0 0 120 120"><g clip-path="url(#a)"><path fill="url(#b)" stroke="url(#c)" stroke-width=".5" d="M59.324 40.95H14.25v-22.7h47.103c13.819 0 24.916 4.08 32.555 11.108 7.638 7.026 11.842 17.021 11.842 28.9 0 13.577-5.212 23.739-13.606 30.512-8.4 6.779-20.009 10.18-32.82 10.18H39.456v34.8H14.25V77.608l25.46-.676H60c6.475 0 11.613-1.89 15.135-5.097 3.524-3.208 5.41-7.713 5.41-12.894 0-5.863-2.055-10.374-5.758-13.414-3.695-3.033-9.001-4.577-15.464-4.577z"/><path fill="url(#d)" d="M60 96c19.882 0 36-16.118 36-36S79.882 24 60 24 24 40.118 24 60s16.118 36 36 36z"/><path fill="#1348E4" d="M60 92c17.673 0 32-14.327 32-32 0-17.673-14.327-32-32-32-17.673 0-32 14.327-32 32 0 17.673 14.327 32 32 32z"/><path fill="#fff" d="m82 48.759-.089-1.483-.435 1.235-2.452 2.146-2.848.366-.771-.692 2.422-3.451 3.105-.86-3.302.168-4.034 2.828-3.679-.307L64.647 46l.01.02-3.016.593-9.7 8.029-4.577 1.532-1.889 2.017-3.421.04-1.681 3.144-2.373.682 2.235.366 2.096-2.778 3.154.633.01 2.956-1.612 4.34-.92 4.015-.988 1.602 2.55-.524-.325-1.671 2.125-4.4 4.123-1.661 1.592-2.64 2.69-1.968 5.418.91 5.211-2.413-.83 3.659-2.433.148-.642 3.144 2.056-1.374 3.382-1.473 2.709-4.133.109-1.998 1.433 1.483 4.143 2.591 2.472-1.137-.267-5.478-.623-2.007 3.026-.89L82 48.76z"/><path stroke="url(#e)" stroke-opacity=".5" stroke-width="1.5" d="M91.25 60c0 17.259-13.991 31.25-31.25 31.25S28.75 77.259 28.75 60 42.741 28.75 60 28.75 91.25 42.74 91.25 60z"/><path stroke="url(#f)" stroke-width=".5" d="M91.75 60c0 17.535-14.215 31.75-31.75 31.75S28.25 77.535 28.25 60 42.465 28.25 60 28.25 91.75 42.465 91.75 60z"/><path fill="#fff" d="m38 29-1.41 6.59L30 37l6.59 1.41L38 45l1.41-6.59L46 37l-6.59-1.41L38 29z"/><path fill="#0052FF" d="M21 33a1 1 0 1 1 0-2 1 1 0 0 1 0 2z"/><path fill="#0052FF" fill-opacity=".5" d="M34 21a1 1 0 1 1 0-2 1 1 0 0 1 0 2z"/></g><defs><linearGradient id="b" x1="60" x2="60" y1="18" y2="134" gradientUnits="userSpaceOnUse"><stop stop-color="#fff" stop-opacity=".3"/><stop offset="1" stop-color="#fff" stop-opacity="0"/></linearGradient><linearGradient id="c" x1="60" x2="60" y1="18" y2="134" gradientUnits="userSpaceOnUse"><stop stop-color="#fff" stop-opacity=".6"/><stop offset="1" stop-color="#fff" stop-opacity="0"/></linearGradient><linearGradient id="d" x1="60" x2="60" y1="24" y2="96" gradientUnits="userSpaceOnUse"><stop stop-color="#0A0B0D" stop-opacity=".4"/><stop offset="1" stop-color="#0A0B0D" stop-opacity="0"/></linearGradient><linearGradient id="e" x1="83.5" x2="37.5" y1="80.5" y2="36" gradientUnits="userSpaceOnUse"><stop stop-color="#fff" stop-opacity="0"/><stop offset="1" stop-color="#fff"/></linearGradient><linearGradient id="f" x1="36" x2="88" y1="35.5" y2="87.5" gradientUnits="userSpaceOnUse"><stop stop-color="#fff"/><stop offset="1" stop-color="#fff" stop-opacity="0"/></linearGradient><clipPath id="a"><path fill="#fff" d="M0 0h120v120H0z"/></clipPath></defs></svg>