<svg xmlns="http://www.w3.org/2000/svg" fill="none" viewBox="0 0 240 240"><path fill="url(#a)" d="M78 206c-18.78 0-34 15.22-34 34h68c0-18.78-15.22-34-34-34z" opacity=".5"/><path fill="url(#b)" d="M144 200V16H96v184h48z"/><path fill="#fff" fill-opacity=".75" d="M209 144h-1v1h1v-1zM197 120h-1v1h1v-1zM197 132h-1v1h1v-1zM197 144h-1v1h1v-1zM185 96h-1v1h1v-1zM185 108h-1v1h1v-1zM185 120h-1v1h1v-1zM185 132h-1v1h1v-1zM185 144h-1v1h1v-1zM173 72h-1v1h1v-1zM173 84h-1v1h1v-1zM173 96h-1v1h1v-1zM173 108h-1v1h1v-1zM173 120h-1v1h1v-1zM173 132h-1v1h1v-1zM173 144h-1v1h1v-1zM161 72h-1v1h1v-1zM161 84h-1v1h1v-1zM161 96h-1v1h1v-1zM161 108h-1v1h1v-1zM161 120h-1v1h1v-1zM161 132h-1v1h1v-1zM161 144h-1v1h1v-1zM149 72h-1v1h1v-1zM149 84h-1v1h1v-1zM149 96h-1v1h1v-1zM149 108h-1v1h1v-1zM149 120h-1v1h1v-1zM149 132h-1v1h1v-1zM149 144h-1v1h1v-1zM137 72h-1v1h1v-1zM137 84h-1v1h1v-1zM137 96h-1v1h1v-1zM137 108h-1v1h1v-1zM137 120h-1v1h1v-1zM137 132h-1v1h1v-1zM137 144h-1v1h1v-1zM125 72h-1v1h1v-1zM125 84h-1v1h1v-1zM125 96h-1v1h1v-1zM125 108h-1v1h1v-1zM125 120h-1v1h1v-1zM125 132h-1v1h1v-1zM125 144h-1v1h1v-1zM116 72h-1v1h1v-1zM116 84h-1v1h1v-1zM116 96h-1v1h1v-1zM116 108h-1v1h1v-1zM116 120h-1v1h1v-1zM116 132h-1v1h1v-1zM116 144h-1v1h1v-1zM104 72h-1v1h1v-1zM104 84h-1v1h1v-1zM104 96h-1v1h1v-1zM104 108h-1v1h1v-1zM104 120h-1v1h1v-1zM104 132h-1v1h1v-1zM104 144h-1v1h1v-1zM92 72h-1v1h1v-1zM92 84h-1v1h1v-1zM92 96h-1v1h1v-1zM92 108h-1v1h1v-1zM92 120h-1v1h1v-1zM92 132h-1v1h1v-1zM92 144h-1v1h1v-1zM80 72h-1v1h1v-1zM80 84h-1v1h1v-1zM80 96h-1v1h1v-1zM80 108h-1v1h1v-1zM80 120h-1v1h1v-1zM80 132h-1v1h1v-1zM80 144h-1v1h1v-1zM68 72h-1v1h1v-1zM68 84h-1v1h1v-1zM68 96h-1v1h1v-1zM68 108h-1v1h1v-1zM68 120h-1v1h1v-1zM68 132h-1v1h1v-1zM68 144h-1v1h1v-1zM56 72h-1v1h1v-1zM56 96h-1v1h1v-1zM56 108h-1v1h1v-1zM56 120h-1v1h1v-1zM56 132h-1v1h1v-1zM56 144h-1v1h1v-1zM44 144h-1v1h1v-1zM32 144h-1v1h1v-1zM44 132h-1v1h1v-1z" opacity=".5"/><path fill="#fff" d="M144 140s-4 4-4 12l-11.77-16.48C130.69 123.43 132 110.88 132 98c0-23.34-4.27-45.61-12-66-7.73 20.39-12 42.66-12 66 0 12.88 1.31 25.43 3.77 37.52L100 152c0-8-4-12-4-12s-4 4-4 12v16h8v-4l15.75-12.6c.5 1.67 1.01 3.34 1.56 4.99L112 168h16l-5.31-11.61c.54-1.65 1.06-3.31 1.56-4.99L140 164v4h8v-16c0-8-4-12-4-12z"/><path fill="url(#c)" d="M162 206c-18.78 0-34 15.22-34 34h68c0-18.78-15.22-34-34-34z" opacity=".5"/><path fill="url(#d)" d="M184 224c-9.33 0-17.9 3.21-24.7 8.56-3.03-16.12-15.73-28.82-31.86-31.86L120 176l-7.44 24.7c-16.12 3.03-28.82 15.74-31.86 31.86C73.9 227.21 65.33 224 56 224c-13.09 0-24.7 6.29-32 16h192c-7.3-9.71-18.91-16-32-16z"/><path fill="#D4EEFF" d="m120 124 20 28v12l-20-16v-24zM120 124l-20 28v12l20-16v-24z"/><path fill="#fff" d="M120 164s12-29.549 12-66c0-36.45-12-66-12-66s-12 29.55-12 66c0 36.451 12 66 12 66z"/><path fill="url(#e)" d="M120 164s12-29.549 12-66c0-36.45-12-66-12-66s-12 29.55-12 66c0 36.451 12 66 12 66z"/><path fill="#fff" d="M128 168h-16l5.48-12h5.04l5.48 12z"/><path fill="url(#f)" d="M128 168h-16l5.48-12h5.04l5.48 12z"/><path fill="#56B4FC" d="M148 164h-8v4h8v-4z"/><path fill="url(#g)" d="M144 140s-4 4-4 12v12h8v-12c0-8-4-12-4-12z"/><path fill="#56B4FC" d="M92.001 168h8v-4h-8v4z"/><path fill="url(#h)" d="M96 140s4 4 4 12v12h-8v-12c0-8 4-12 4-12z"/><path fill="#1652F0" d="M120 32c-2.94 7.74-5.37 15.76-7.26 24h14.53c-1.9-8.24-4.33-16.26-7.27-24z"/><path fill="#56B4FC" d="M112.3 58h15.41c-.29-1.34-.6-2.67-.92-4h-13.57c-.32 1.33-.63 2.66-.92 4z"/><path fill="#D4EEFF" d="M120 82a6 6 0 1 0 0-12 6 6 0 0 0 0 12z" opacity=".5"/><path fill="url(#i)" d="M120 80a4 4 0 1 0 0-8 4 4 0 0 0 0 8z"/><defs><linearGradient id="a" x1="99" x2="78" y1="192" y2="240.25" gradientUnits="userSpaceOnUse"><stop stop-color="#0A0B0D" stop-opacity="0"/><stop offset=".34" stop-color="#1652F0" stop-opacity=".51"/><stop offset=".67" stop-color="#154BD9" stop-opacity=".31"/><stop offset="1" stop-color="#0A0B0D" stop-opacity=".3"/></linearGradient><linearGradient id="b" x1="120" x2="120" y1="15.74" y2="201.34" gradientUnits="userSpaceOnUse"><stop stop-color="#0A0B0D" stop-opacity="0"/><stop offset=".28" stop-color="#1652F0" stop-opacity=".21"/><stop offset=".72" stop-color="#154BD9" stop-opacity=".41"/><stop offset=".96" stop-color="#0A0B0D" stop-opacity=".3"/></linearGradient><linearGradient id="c" x1="183" x2="162" y1="192" y2="240.25" gradientUnits="userSpaceOnUse"><stop stop-color="#0A0B0D" stop-opacity="0"/><stop offset=".34" stop-color="#1652F0" stop-opacity=".51"/><stop offset=".67" stop-color="#154BD9" stop-opacity=".31"/><stop offset="1" stop-color="#0A0B0D" stop-opacity=".3"/></linearGradient><linearGradient id="d" x1="120" x2="120" y1="175.91" y2="240.46" gradientUnits="userSpaceOnUse"><stop stop-color="#0A0B0D" stop-opacity="0"/><stop offset=".37" stop-color="#1652F0" stop-opacity=".61"/><stop offset=".69" stop-color="#154BD9" stop-opacity=".35"/><stop offset="1" stop-color="#0A0B0D" stop-opacity=".3"/></linearGradient><linearGradient id="e" x1="108.03" x2="136.53" y1="57.88" y2="153.38" gradientUnits="userSpaceOnUse"><stop stop-color="#fff"/><stop offset=".35" stop-color="#FCFEFF" stop-opacity=".72"/><stop offset=".62" stop-color="#F2FAFF" stop-opacity=".51"/><stop offset=".85" stop-color="#E2F4FF" stop-opacity=".32"/><stop offset="1" stop-color="#D4EEFF" stop-opacity=".2"/></linearGradient><linearGradient id="f" x1="112.6" x2="122.88" y1="154.04" y2="171.59" gradientUnits="userSpaceOnUse"><stop stop-color="#fff"/><stop offset=".35" stop-color="#FCFEFF" stop-opacity=".72"/><stop offset=".62" stop-color="#F2FAFF" stop-opacity=".51"/><stop offset=".85" stop-color="#E2F4FF" stop-opacity=".32"/><stop offset="1" stop-color="#D4EEFF" stop-opacity=".2"/></linearGradient><linearGradient id="g" x1="140" x2="148" y1="152" y2="152" gradientUnits="userSpaceOnUse"><stop stop-color="#fff"/><stop offset=".35" stop-color="#FCFEFF" stop-opacity=".72"/><stop offset=".62" stop-color="#F2FAFF" stop-opacity=".51"/><stop offset=".85" stop-color="#E2F4FF" stop-opacity=".32"/><stop offset="1" stop-color="#D4EEFF" stop-opacity=".2"/></linearGradient><linearGradient id="h" x1="92" x2="100" y1="152" y2="152" gradientUnits="userSpaceOnUse"><stop stop-color="#fff"/><stop offset=".35" stop-color="#FCFEFF" stop-opacity=".72"/><stop offset=".62" stop-color="#F2FAFF" stop-opacity=".51"/><stop offset=".85" stop-color="#E2F4FF" stop-opacity=".32"/><stop offset="1" stop-color="#D4EEFF" stop-opacity=".2"/></linearGradient><linearGradient id="i" x1="118.71" x2="123.21" y1="71.77" y2="86.52" gradientUnits="userSpaceOnUse"><stop stop-color="#fff"/><stop offset=".1" stop-color="#fff" stop-opacity=".9"/><stop offset="1" stop-color="#fff" stop-opacity="0"/></linearGradient></defs></svg>