<svg xmlns="http://www.w3.org/2000/svg" fill="none" viewBox="0 0 48 48"><path fill="#144FCE" d="M31.876 35.275v-.79c0-.709-.47-1.338-1.156-1.53l-7.34-2.095a6.356 6.356 0 0 0-5.028.661l-5.602 3.355v9.563h12.471c2.296 0 4.567-.414 6.718-1.22l15.875-5.952c.717-1.801-.741-3.722-2.67-3.499l-13.268 1.507z"/><path fill="#A5C1FD" d="M12.75 31.689H0v15.938h12.75V31.688z"/><path fill="#588AF5" d="M12.75 34.876H0v9.563h12.75v-9.563z"/><path fill="#144FCE" d="M22.314 18.938a7.97 7.97 0 1 0 0-15.938 7.97 7.97 0 0 0 0 15.938z"/><path fill="#588AF5" d="M38.251 31.689a7.969 7.969 0 1 0 0-15.939 7.969 7.969 0 0 0 0 15.939z"/><path fill="#fff" d="M23.11 7.781h-1.593v6.376h1.593V7.78z"/><path fill="#fff" d="M25.501 11.766v-1.594h-6.375v1.594H25.5zM41.438 24.516v-1.593h-6.375v1.593h6.375z"/></svg>