<svg xmlns="http://www.w3.org/2000/svg" fill="none" viewBox="0 0 240 120"><path fill="#fff" fill-opacity=".75" d="M25 114v-1h-1v1h1zM37 102v-1h-1v1h1zM25 102v-1h-1v1h1zM13 102v-1h-1v1h1zM73 90v-1h-1v1h1zM61 90v-1h-1v1h1zM49 90v-1h-1v1h1zM49 102v-1h-1v1h1zM37 90v-1h-1v1h1zM25 90v-1h-1v1h1zM13 90v-1h-1v1h1zM1 90v-1H0v1h1zM73 78v-1h-1v1h1zM61 78v-1h-1v1h1zM49 78v-1h-1v1h1zM37 78v-1h-1v1h1zM25 78v-1h-1v1h1zM13 78v-1h-1v1h1zM1 78v-1H0v1h1zM156 60v-1h-1v1h1zM168 60v-1h-1v1h1zM180 60v-1h-1v1h1zM192 60v-1h-1v1h1zM204 60v-1h-1v1h1zM216 60v-1h-1v1h1zM228 60v-1h-1v1h1zM240 60v-1h-1v1h1zM168 48v-1h-1v1h1zM180 48v-1h-1v1h1zM192 48v-1h-1v1h1zM204 48v-1h-1v1h1zM216 48v-1h-1v1h1zM228 48v-1h-1v1h1zM240 48v-1h-1v1h1zM192 36v-1h-1v1h1zM216 36v-1h-1v1h1zM228 36v-1h-1v1h1zM240 36v-1h-1v1h1z" opacity=".5"/><path fill="url(#a)" d="M91.98 11.55C78.73 19.19 69.8 31.47 66.03 45.16a15.942 15.942 0 0 1 15.98 2.37c2.97-9.02 9.12-17.02 17.97-22.13 19.1-11.03 43.61-4.46 54.64 14.64l13.86-8C153.04 5.3 118.72-3.89 91.98 11.55z"/><path fill="url(#b)" d="M93.98 15.01c-11.6 6.7-19.64 17.22-23.46 29.06.49-.04.98-.07 1.48-.07 2.32 0 4.53.51 6.52 1.4 3.37-9.56 10.02-18.01 19.46-23.46 21.01-12.13 47.97-4.91 60.11 16.11l6.93-4C150.68 9.21 118.81.67 93.98 15.01z"/><path fill="url(#c)" d="M120 76c-3.8 0-7.29-1.33-10.03-3.54-2.97 9-9.12 16.99-17.95 22.09-19.1 11.03-43.61 4.46-54.64-14.64l-13.86 8c15.44 26.74 49.76 35.94 76.5 20.5 13.22-7.64 22.15-19.89 25.93-33.56A16.12 16.12 0 0 1 120 76z"/><path fill="url(#d)" d="M120 76c-2.33 0-4.54-.51-6.54-1.41-3.37 9.54-10.01 17.98-19.44 23.42-21.02 12.13-47.98 4.91-60.11-16.1l-6.93 4c14.34 24.83 46.2 33.37 71.03 19.03 11.58-6.69 19.62-17.19 23.44-29.01-.47.04-.96.07-1.45.07z"/><path fill="#FFD066" d="M120 76c8.837 0 16-7.163 16-16s-7.163-16-16-16-16 7.163-16 16 7.163 16 16 16z"/><path fill="#1652F0" d="M72 76c8.837 0 16-7.163 16-16s-7.163-16-16-16-16 7.163-16 16 7.163 16 16 16z"/><path fill="#3ACC8A" d="M30.45 99.91c8.836 0 16-7.163 16-16 0-8.836-7.164-16-16-16-8.837 0-16 7.164-16 16 0 8.837 7.163 16 16 16z"/><path fill="url(#e)" d="M120 45c8.27 0 15 6.73 15 15s-6.73 15-15 15-15-6.73-15-15 6.73-15 15-15zm0-1c-8.84 0-16 7.16-16 16s7.16 16 16 16 16-7.16 16-16-7.16-16-16-16z"/><path fill="url(#f)" d="M72 45c8.27 0 15 6.73 15 15s-6.73 15-15 15-15-6.73-15-15 6.73-15 15-15zm0-1c-8.84 0-16 7.16-16 16s7.16 16 16 16 16-7.16 16-16-7.16-16-16-16z"/><path fill="#135" d="M216 76c8.837 0 16-7.163 16-16s-7.163-16-16-16-16 7.163-16 16 7.163 16 16 16z"/><path fill="url(#g)" d="m216 52.57-7.26 12.57h14.52L216 52.57l-7.26 12.57h14.52L216 52.57z"/><path fill="#fff" d="m208.74 65.14 7.26-4.19v-8.38l-7.26 12.57z"/><path fill="url(#h)" d="M223.26 65.14 216 60.95v-8.38l7.26 12.57z"/><path fill="url(#i)" d="M216 45c4.01 0 7.77 1.56 10.61 4.39 5.85 5.85 5.85 15.36 0 21.21-2.84 2.84-6.6 4.4-10.61 4.4s-7.77-1.56-10.61-4.39c-5.85-5.85-5.85-15.36 0-21.21 2.84-2.84 6.6-4.4 10.61-4.4zm0-1c-4.09 0-8.19 1.56-11.31 4.69-6.25 6.25-6.25 16.38 0 22.63C207.81 74.44 211.91 76 216 76c4.09 0 8.19-1.56 11.31-4.69 6.25-6.25 6.25-16.38 0-22.63A15.953 15.953 0 0 0 216 44z"/><path fill="url(#j)" d="M72 51.51 63.51 60 72 68.49 80.49 60 72 51.51zM69 60l3-3 3 3-3 3-3-3z"/><path fill="url(#k)" d="M72 52.93 79.07 60 72 67.07 64.93 60 72 52.93zm0-1.42L63.51 60 72 68.49 80.49 60 72 51.51z"/><path fill="url(#l)" d="M30.45 68.91c8.27 0 15 6.73 15 15s-6.73 15-15 15-15-6.73-15-15 6.72-15 15-15zm0-1c-8.84 0-16 7.16-16 16s7.16 16 16 16 16-7.16 16-16-7.17-16-16-16z"/><path fill="url(#m)" d="M32.45 76.91h-4v14h4v-14z"/><path fill="url(#n)" d="M26.45 79.91h-4v8h4v-8z"/><path fill="url(#o)" d="M38.45 79.91h-4v8h4v-8z"/><path fill="url(#p)" d="M38.45 86.91h-4v1h4v-1z"/><path fill="url(#q)" d="M26.45 86.91h-4v1h4v-1z"/><path fill="url(#r)" d="M32.45 76.91h-4v1h4v-1z"/><path fill="url(#s)" d="m126.7 53.3-4.81 6.7 4.81 6.7-6.7-4.81-6.7 4.81 4.81-6.7-4.81-6.7 6.7 4.81 6.7-4.81z"/><path fill="url(#t)" d="m120 50.53 1.34 8.13 8.13 1.34-8.13 1.34-1.34 8.13-1.34-8.13-8.13-1.34 8.13-1.34 1.34-8.13z"/><path fill="#56B4FC" d="M161.55 52.04c8.837 0 16-7.163 16-16s-7.163-16-16-16-16 7.163-16 16 7.163 16 16 16z"/><path fill="url(#u)" d="m161.55 36.04 6.85-3.96-6.85-3.95-6.86 3.95 6.86 3.96z"/><path fill="url(#v)" d="M161.53 21.04c5.35 0 10.33 2.87 13 7.5 2 3.47 2.54 7.51 1.5 11.38-1.04 3.87-3.52 7.1-6.99 9.11a14.963 14.963 0 0 1-7.49 2.01c-5.35 0-10.33-2.87-13.01-7.5-2-3.47-2.54-7.51-1.5-11.38 1.04-3.87 3.52-7.1 6.99-9.11 2.3-1.31 4.89-2.01 7.5-2.01zm0-1c-2.71 0-5.47.69-7.98 2.15-7.65 4.42-10.27 14.2-5.86 21.86 2.96 5.13 8.34 8 13.87 8 2.71 0 5.47-.69 7.99-2.15 7.65-4.42 10.27-14.2 5.86-21.86-2.97-5.13-8.35-8-13.88-8z"/><path fill="url(#w)" d="M154.69 32.08V40l6.86 3.96v-7.92l-6.86-3.96z"/><path fill="url(#x)" d="M161.55 36.04v7.92L168.4 40v-7.92l-6.85 3.96z"/><path fill="url(#y)" d="m161.55 29.28 5.86 3.38v6.76l-5.86 3.38-5.86-3.38v-6.76l5.86-3.38zm0-1.15-6.86 3.96V40l6.86 3.96L168.4 40v-7.92l-6.85-3.95z"/><path fill="url(#z)" d="M154.05 23.05c7.16-4.14 16.35-1.67 20.49 5.49 4.14 7.16 1.67 16.35-5.49 20.49-7.16 4.14-16.35 1.67-20.49-5.49-4.14-7.16-1.68-16.35 5.49-20.49zm-.5-.86c-7.65 4.42-10.27 14.2-5.86 21.86 4.41 7.66 14.2 10.27 21.86 5.86 7.65-4.42 10.27-14.2 5.86-21.86-4.41-7.66-14.21-10.28-21.86-5.86z"/><defs><linearGradient id="a" x1="165.5" x2="61.5" y1="47.85" y2="48" gradientUnits="userSpaceOnUse"><stop stop-color="#1652F0"/><stop offset=".82" stop-color="#0A0B0D" stop-opacity=".3"/></linearGradient><linearGradient id="b" x1="160.5" x2="67.5" y1="45.67" y2="45.67" gradientUnits="userSpaceOnUse"><stop offset=".12" stop-color="#1652F0"/><stop offset=".96" stop-color="#0A0B0D" stop-opacity=".3"/></linearGradient><linearGradient id="c" x1="24" x2="128" y1="116.22" y2="116.22" gradientUnits="userSpaceOnUse"><stop stop-color="#1652F0"/><stop offset=".86" stop-color="#0A0B0D" stop-opacity=".3"/></linearGradient><linearGradient id="d" x1="28.5" x2="121" y1="112.17" y2="112.17" gradientUnits="userSpaceOnUse"><stop stop-color="#1652F0"/><stop offset="1" stop-color="#0A0B0D" stop-opacity=".3"/></linearGradient><linearGradient id="e" x1="104" x2="136" y1="60" y2="60" gradientUnits="userSpaceOnUse"><stop stop-color="#fff" stop-opacity=".2"/><stop offset=".5" stop-color="#fff" stop-opacity=".5"/><stop offset="1" stop-color="#fff" stop-opacity="0"/></linearGradient><linearGradient id="f" x1="56" x2="88" y1="60" y2="60" gradientUnits="userSpaceOnUse"><stop stop-color="#fff" stop-opacity=".2"/><stop offset=".5" stop-color="#fff" stop-opacity=".5"/><stop offset="1" stop-color="#fff" stop-opacity="0"/></linearGradient><linearGradient id="g" x1="224.71" x2="214.73" y1="64.61" y2="59.96" gradientUnits="userSpaceOnUse"><stop stop-color="#fff"/><stop offset="1" stop-color="#135"/></linearGradient><linearGradient id="h" x1="216.41" x2="220.27" y1="61.45" y2="58.34" gradientUnits="userSpaceOnUse"><stop stop-color="#fff"/><stop offset="1" stop-color="#135"/></linearGradient><linearGradient id="i" x1="227.31" x2="204.69" y1="48.69" y2="71.31" gradientUnits="userSpaceOnUse"><stop stop-color="#fff" stop-opacity=".2"/><stop offset=".5" stop-color="#fff" stop-opacity=".5"/><stop offset="1" stop-color="#fff" stop-opacity="0"/></linearGradient><linearGradient id="j" x1="63.51" x2="80.49" y1="60" y2="60" gradientUnits="userSpaceOnUse"><stop stop-color="#fff"/><stop offset="1" stop-color="#1652F0"/></linearGradient><linearGradient id="k" x1="80.49" x2="63.51" y1="60" y2="60" gradientUnits="userSpaceOnUse"><stop stop-color="#fff"/><stop offset="1" stop-color="#1652F0"/></linearGradient><linearGradient id="l" x1="14.45" x2="46.45" y1="83.91" y2="83.91" gradientUnits="userSpaceOnUse"><stop stop-color="#fff" stop-opacity=".2"/><stop offset=".5" stop-color="#fff" stop-opacity=".5"/><stop offset="1" stop-color="#fff" stop-opacity="0"/></linearGradient><linearGradient id="m" x1="30.45" x2="30.45" y1="75.54" y2="89.99" gradientUnits="userSpaceOnUse"><stop stop-color="#fff"/><stop offset="1" stop-color="#3ACC8A"/></linearGradient><linearGradient id="n" x1="24.45" x2="24.45" y1="92.28" y2="77.82" gradientUnits="userSpaceOnUse"><stop stop-color="#fff"/><stop offset="1" stop-color="#3ACC8A"/></linearGradient><linearGradient id="o" x1="36.45" x2="36.45" y1="92.28" y2="77.82" gradientUnits="userSpaceOnUse"><stop stop-color="#fff"/><stop offset="1" stop-color="#3ACC8A"/></linearGradient><linearGradient id="p" x1="36.45" x2="36.45" y1="88.45" y2="86.65" gradientUnits="userSpaceOnUse"><stop stop-color="#fff"/><stop offset="1" stop-color="#fff" stop-opacity=".4"/></linearGradient><linearGradient id="q" x1="24.45" x2="24.45" y1="88.45" y2="86.65" gradientUnits="userSpaceOnUse"><stop stop-color="#fff"/><stop offset="1" stop-color="#fff" stop-opacity=".4"/></linearGradient><linearGradient id="r" x1="30.45" x2="30.45" y1="76.36" y2="78.17" gradientUnits="userSpaceOnUse"><stop stop-color="#fff"/><stop offset="1" stop-color="#fff" stop-opacity=".4"/></linearGradient><linearGradient id="s" x1="113.29" x2="126.69" y1="53.29" y2="66.69" gradientUnits="userSpaceOnUse"><stop stop-color="#fff" stop-opacity="0"/><stop offset="1" stop-color="#fff"/></linearGradient><linearGradient id="t" x1="115.26" x2="124.73" y1="55.26" y2="64.73" gradientUnits="userSpaceOnUse"><stop stop-color="#fff" stop-opacity=".4"/><stop offset="1" stop-color="#fff"/></linearGradient><linearGradient id="u" x1="157.56" x2="164.41" y1="34.78" y2="30.16" gradientUnits="userSpaceOnUse"><stop stop-color="#fff"/><stop offset="1" stop-color="#fff" stop-opacity="0"/></linearGradient><linearGradient id="v" x1="147.69" x2="175.4" y1="44.04" y2="28.04" gradientUnits="userSpaceOnUse"><stop stop-color="#fff" stop-opacity=".2"/><stop offset=".5" stop-color="#fff" stop-opacity=".5"/><stop offset="1" stop-color="#fff" stop-opacity="0"/></linearGradient><linearGradient id="w" x1="154.82" x2="160.57" y1="42.5" y2="34.7" gradientUnits="userSpaceOnUse"><stop stop-color="#fff" stop-opacity="0"/><stop offset="1" stop-color="#fff"/></linearGradient><linearGradient id="x" x1="158.78" x2="169.58" y1="46.42" y2="31.79" gradientUnits="userSpaceOnUse"><stop stop-color="#fff" stop-opacity="0"/><stop offset="1" stop-color="#fff"/></linearGradient><linearGradient id="y" x1="155.22" x2="167.88" y1="31.37" y2="40.72" gradientUnits="userSpaceOnUse"><stop stop-color="#56B4FC" stop-opacity="0"/><stop offset="1" stop-color="#fff"/></linearGradient><linearGradient id="z" x1="147.69" x2="175.4" y1="44.04" y2="28.04" gradientUnits="userSpaceOnUse"><stop stop-color="#fff" stop-opacity=".2"/><stop offset=".5" stop-color="#fff" stop-opacity=".5"/><stop offset="1" stop-color="#fff" stop-opacity="0"/></linearGradient></defs></svg>