<svg xmlns="http://www.w3.org/2000/svg" fill="none" viewBox="0 0 120 132"><mask id="a" width="122" height="123" x="-1" y="10" mask-type="alpha" maskUnits="userSpaceOnUse"><rect width="121" height="121" x="-.5" y="10.93" fill="#3A6FFA" stroke="#F1F3F5" rx="11.5"/></mask><g mask="url(#a)"><mask id="d" fill="#fff"><path fill-rule="evenodd" d="M101.053 70.376V0H18.947v70.376c0 22.673 18.38 41.053 41.053 41.053s41.053-18.38 41.053-41.053z" clip-rule="evenodd"/></mask><path fill="url(#b)" fill-rule="evenodd" d="M101.053 70.376V0H18.947v70.376c0 22.673 18.38 41.053 41.053 41.053s41.053-18.38 41.053-41.053z" clip-rule="evenodd"/><path fill="url(#c)" d="M101.053 0v-.5h.5V0h-.5zM18.947 0h-.5v-.5h.5V0zm81.606 70.376V0h1v70.376h-1zm.5-69.876H18.947v-1h82.106v1zM19.447 0v70.376h-1V0h1zM60 111.929c-22.949 0-41.553-18.604-41.553-41.553h1c0 22.397 18.156 40.553 40.553 40.553v1zm41.553-41.553c0 22.949-18.604 41.553-41.553 41.553v-1c22.397 0 40.553-18.156 40.553-40.553h1z" mask="url(#d)"/><path fill="url(#e)" d="M60 107.429c19.882 0 36-16.118 36-36 0-19.883-16.118-36-36-36s-36 16.117-36 36c0 19.882 16.118 36 36 36z"/></g><path fill="#1A5AFF" d="M60 39.429c17.6 0 32 14.4 32 32s-14.4 32-32 32-32-14.4-32-32 14.4-32 32-32z"/><path fill="#fff" fill-rule="evenodd" d="M67.378 61.384c.71-1.244 2.133-1.955 3.555-1.955H80v8h-6.756L64.178 83.25c-.711 1.244-2.134 1.955-3.556 1.955h-9.066v-8h6.755l9.067-15.822zM40 81.295l6.933 3.911L57.067 67.43h6.755v-7.823h-9.067c-1.422 0-2.666.712-3.377 1.956L40 81.295zm.71-21.866v8c4.445 0 8-3.556 8-8h-8zM80 76.318c0 2.133-1.778 3.91-3.911 3.91-2.311 0-3.911-1.777-3.911-3.91 0-2.134 1.778-3.912 3.91-3.912 2.134 0 3.912 1.778 3.912 3.912z" clip-rule="evenodd"/><path stroke="url(#f)" stroke-opacity=".5" stroke-width="1.5" d="M91.25 71.429c0 17.258-13.991 31.25-31.25 31.25s-31.25-13.992-31.25-31.25c0-17.26 13.991-31.25 31.25-31.25s31.25 13.99 31.25 31.25z"/><path stroke="url(#g)" stroke-width=".5" d="M91.75 71.429c0 17.535-14.215 31.75-31.75 31.75s-31.75-14.215-31.75-31.75S42.465 39.679 60 39.679s31.75 14.215 31.75 31.75z"/><path fill="#fff" d="m38 40.429-1.41 6.59-6.59 1.41 6.59 1.41 1.41 6.59 1.41-6.59 6.59-1.41-6.59-1.41-1.41-6.59z"/><path fill="#0052FF" d="M21 44.429a1 1 0 1 1 0-2 1 1 0 0 1 0 2z"/><path fill="#0052FF" fill-opacity=".5" d="M34 32.429a1 1 0 1 1 0-2 1 1 0 0 1 0 2z"/><defs><linearGradient id="b" x1="60" x2="60" y1="111.43" y2="23.68" gradientUnits="userSpaceOnUse"><stop stop-color="#fff" stop-opacity=".4"/><stop offset="1" stop-color="#0A0B0D" stop-opacity="0"/></linearGradient><linearGradient id="c" x1="60" x2="60" y1="111.43" y2="19.57" gradientUnits="userSpaceOnUse"><stop stop-color="#fff" stop-opacity=".3"/><stop offset="1" stop-color="#0A0B0D" stop-opacity="0"/></linearGradient><linearGradient id="e" x1="60" x2="60" y1="35.43" y2="107.43" gradientUnits="userSpaceOnUse"><stop stop-color="#0A0B0D" stop-opacity=".6"/><stop offset="1" stop-color="#0A0B0D" stop-opacity="0"/></linearGradient><linearGradient id="f" x1="83.5" x2="37.5" y1="91.93" y2="47.43" gradientUnits="userSpaceOnUse"><stop stop-color="#243134" stop-opacity="0"/><stop offset="1" stop-color="#fff"/></linearGradient><linearGradient id="g" x1="36" x2="88" y1="46.93" y2="98.93" gradientUnits="userSpaceOnUse"><stop stop-color="#fff"/><stop offset="1" stop-color="#243134" stop-opacity="0"/></linearGradient></defs></svg>