<svg xmlns="http://www.w3.org/2000/svg" fill="none" viewBox="0 0 240 240"><path fill="url(#a)" d="M220 120H0v52h220v-52z"/><path fill="#fff" fill-opacity=".35" d="M228 68h-1v1h1v-1zM228 80h-1v1h1v-1zM228 92h-1v1h1v-1zM228 104h-1v1h1v-1zM216 68h-1v1h1v-1zM216 80h-1v1h1v-1zM216 92h-1v1h1v-1zM216 104h-1v1h1v-1zM216 116h-1v1h1v-1zM216 140h-1v1h1v-1zM204 56h-1v1h1v-1zM204 68h-1v1h1v-1zM204 80h-1v1h1v-1zM204 92h-1v1h1v-1zM204 104h-1v1h1v-1zM204 116h-1v1h1v-1zM204 128h-1v1h1v-1zM204 140h-1v1h1v-1zM192 44h-1v1h1v-1zM192 56h-1v1h1v-1zM192 68h-1v1h1v-1zM192 80h-1v1h1v-1zM192 92h-1v1h1v-1zM192 104h-1v1h1v-1zM192 116h-1v1h1v-1zM192 128h-1v1h1v-1zM192 140h-1v1h1v-1zM180 44h-1v1h1v-1zM180 56h-1v1h1v-1zM180 68h-1v1h1v-1zM180 80h-1v1h1v-1zM180 92h-1v1h1v-1zM180 104h-1v1h1v-1zM180 116h-1v1h1v-1zM180 128h-1v1h1v-1zM180 140h-1v1h1v-1zM168 44h-1v1h1v-1zM168 56h-1v1h1v-1zM168 68h-1v1h1v-1zM168 80h-1v1h1v-1zM168 92h-1v1h1v-1zM168 104h-1v1h1v-1zM168 116h-1v1h1v-1zM168 128h-1v1h1v-1zM168 140h-1v1h1v-1zM156 44h-1v1h1v-1zM156 56h-1v1h1v-1zM156 68h-1v1h1v-1zM156 80h-1v1h1v-1zM156 92h-1v1h1v-1zM156 104h-1v1h1v-1zM156 116h-1v1h1v-1zM156 128h-1v1h1v-1zM156 140h-1v1h1v-1zM144 44h-1v1h1v-1zM144 56h-1v1h1v-1zM144 68h-1v1h1v-1zM144 80h-1v1h1v-1zM144 92h-1v1h1v-1zM144 104h-1v1h1v-1zM144 116h-1v1h1v-1zM144 128h-1v1h1v-1zM144 140h-1v1h1v-1zM132 44h-1v1h1v-1zM132 56h-1v1h1v-1zM132 68h-1v1h1v-1zM132 80h-1v1h1v-1zM132 92h-1v1h1v-1zM132 104h-1v1h1v-1zM132 116h-1v1h1v-1zM132 128h-1v1h1v-1zM132 140h-1v1h1v-1zM120 44h-1v1h1v-1zM120 56h-1v1h1v-1zM120 68h-1v1h1v-1zM120 80h-1v1h1v-1zM120 92h-1v1h1v-1zM120 104h-1v1h1v-1zM120 116h-1v1h1v-1zM120 128h-1v1h1v-1zM120 140h-1v1h1v-1zM108 44h-1v1h1v-1zM108 56h-1v1h1v-1zM108 68h-1v1h1v-1zM108 80h-1v1h1v-1zM108 92h-1v1h1v-1zM108 104h-1v1h1v-1zM108 116h-1v1h1v-1zM108 128h-1v1h1v-1zM108 140h-1v1h1v-1zM96 44h-1v1h1v-1zM96 56h-1v1h1v-1zM96 68h-1v1h1v-1zM96 80h-1v1h1v-1zM96 92h-1v1h1v-1zM96 104h-1v1h1v-1zM96 116h-1v1h1v-1zM96 128h-1v1h1v-1zM96 140h-1v1h1v-1zM84 44h-1v1h1v-1zM84 56h-1v1h1v-1zM84 68h-1v1h1v-1zM84 80h-1v1h1v-1zM84 92h-1v1h1v-1zM84 104h-1v1h1v-1zM84 116h-1v1h1v-1zM84 128h-1v1h1v-1zM84 140h-1v1h1v-1zM72 44h-1v1h1v-1zM72 56h-1v1h1v-1zM72 68h-1v1h1v-1zM72 80h-1v1h1v-1zM72 92h-1v1h1v-1zM72 104h-1v1h1v-1zM72 116h-1v1h1v-1zM72 128h-1v1h1v-1zM72 140h-1v1h1v-1zM60 44h-1v1h1v-1zM60 56h-1v1h1v-1zM60 68h-1v1h1v-1zM60 80h-1v1h1v-1zM60 92h-1v1h1v-1zM60 104h-1v1h1v-1zM60 116h-1v1h1v-1zM60 128h-1v1h1v-1zM60 140h-1v1h1v-1zM48 44h-1v1h1v-1zM48 56h-1v1h1v-1zM48 68h-1v1h1v-1zM48 80h-1v1h1v-1zM48 92h-1v1h1v-1zM48 104h-1v1h1v-1zM36 104h-1v1h1v-1zM48 116h-1v1h1v-1zM48 128h-1v1h1v-1zM48 140h-1v1h1v-1zM36 44h-1v1h1v-1zM36 56h-1v1h1v-1zM36 80h-1v1h1v-1zM36 92h-1v1h1v-1zM36 116h-1v1h1v-1zM24 104h-1v1h1v-1zM24 116h-1v1h1v-1zM36 128h-1v1h1v-1zM36 140h-1v1h1v-1zM24 56h-1v1h1v-1zM24 80h-1v1h1v-1zM24 92h-1v1h1v-1zM24 128h-1v1h1v-1zM24 140h-1v1h1v-1zM12 80h-1v1h1v-1zM12 92h-1v1h1v-1zM12 140h-1v1h1v-1z" opacity=".5"/><path fill="#0B283F" d="M120 43.98 44 120l75.76 78.07L196 120l-76-76.02z"/><path fill="#fff" d="M188 24H52v183h136V24z"/><path fill="url(#b)" d="M168 96H72v-4h96v4zm0 8H72v4h96v-4zm0 12H72v4h96v-4zm0 12H72v4h96v-4zm-16 12H88v4h64v-4zm-12 12h-40v4h40v-4z"/><path fill="#fff" d="M139 58c0-9.94-8.06-18-18-18s-18 8.06-18 18v18.76h27V73.6c5.38-3.13 9-8.94 9-15.6z"/><path fill="url(#c)" d="m116.65 58 13.92-15.23A17.947 17.947 0 0 0 121 40c-9.94 0-18 8.06-18 18v17.05h27v-1.46c.19-.11.38-.24.57-.36L116.65 58z"/><path fill="#D4EEFF" d="M139 58c0-6.66-3.62-12.47-9-15.59L115.75 58 130 73.59c5.38-3.12 9-8.93 9-15.59z"/><path fill="url(#d)" d="M128.92 43.6 115.75 58l10.5 11.49V64h4.5c.83 0 1.5-.67 1.5-1.5v-6.75h3l-6.33-12.15z"/><path fill="#fff" d="M115.75 61a3 3 0 1 0 0-6 3 3 0 0 0 0 6z"/><path fill="#D4EEFF" d="M115.75 59.5a1.5 1.5 0 1 0 0-3 1.5 1.5 0 0 0 0 3z" opacity=".5"/><path fill="url(#e)" d="m125.25 68.39 4.75 5.2c5.38-3.11 9-8.92 9-15.59s-3.62-12.47-9-15.59l-4.8 5.25c3.29 2.15 5.49 5.99 5.49 10.38.01 4.37-2.17 8.2-5.44 10.35z" opacity=".5"/><path fill="#1652F0" d="M120 196.08 44 120v92h152v-92l-76 76.08z"/><path fill="#3ACC8A" d="M120 202c11.046 0 20-8.954 20-20s-8.954-20-20-20-20 8.954-20 20 8.954 20 20 20z"/><path fill="#fff" d="m128.486 174.343-14.142 14.142 2.828 2.828 14.142-14.142-2.828-2.828z"/><path fill="#fff" d="m111.513 180.004-2.829 2.829 8.486 8.485 2.828-2.829-8.485-8.485z"/><defs><linearGradient id="a" x1="0" x2="220.5" y1="146" y2="146" gradientUnits="userSpaceOnUse"><stop stop-color="#0A0B0D" stop-opacity="0"/><stop offset=".28" stop-color="#1652F0"/><stop offset=".89" stop-color="#1444C4" stop-opacity=".86"/><stop offset="1" stop-color="#0A0B0D" stop-opacity=".3"/></linearGradient><linearGradient id="b" x1="120" x2="120" y1="94" y2="190" gradientUnits="userSpaceOnUse"><stop stop-color="#D4EEFF"/><stop offset="1" stop-color="#fff"/></linearGradient><linearGradient id="c" x1="123.08" x2="100.73" y1="56.22" y2="78.57" gradientUnits="userSpaceOnUse"><stop stop-color="#D4EEFF" stop-opacity="0"/><stop offset=".31" stop-color="#D4EEFF"/><stop offset="1" stop-color="#D4EEFF" stop-opacity=".3"/></linearGradient><linearGradient id="d" x1="125.5" x2="125.5" y1="43.6" y2="69.49" gradientUnits="userSpaceOnUse"><stop/><stop offset="1" stop-opacity=".8"/></linearGradient><linearGradient id="e" x1="132.1" x2="132.1" y1="44.59" y2="81.13" gradientUnits="userSpaceOnUse"><stop stop-color="#fff"/><stop offset=".1" stop-color="#fff" stop-opacity=".9"/><stop offset="1" stop-color="#fff" stop-opacity="0"/></linearGradient></defs></svg>