<svg xmlns="http://www.w3.org/2000/svg" fill="none" viewBox="0 0 120 120"><path fill="#464B55" d="M72 40H48v64h24V40z"/><path fill="#44C28D" d="M104 64H16v40h88V64z"/><path fill="#588AF5" d="M91 64H29c0 2.8-1.9 5-5 5v30c3.1 0 5 2.2 5 5h62c0-2.8 1.9-5 5-5V69c-3.1 0-5-2.2-5-5z"/><path fill="#0A0B0D" fill-rule="evenodd" d="M88 92h-8v-2h8v2zm0-14h-8v-2h8v2zm2 7H78v-2h12v2zm-50 7h-8v-2h8v2zm0-14h-8v-2h8v2zm2 7H30v-2h12v2z" clip-rule="evenodd"/><path fill="#464B55" d="m32 40 28-24 28 24H32z"/><path fill="#0A0B0D" d="M72 64H48v40h24V64z"/><path fill="#fff" fill-rule="evenodd" d="m52.593 89.993 13.4-13.4 1.414 1.414-13.4 13.4-1.414-1.414z" clip-rule="evenodd"/><path fill="#fff" fill-rule="evenodd" d="m54.007 76.593 13.4 13.4-1.414 1.414-13.4-13.4 1.414-1.414z" clip-rule="evenodd"/><path fill="#fff" fill-rule="evenodd" d="M59 93.5v-19h2v19h-2z" clip-rule="evenodd"/><path fill="#fff" fill-rule="evenodd" d="M50.5 83h19v2h-19v-2zM96 56v-8h2v8h-2z" clip-rule="evenodd"/><path fill="#fff" fill-rule="evenodd" d="M93 51h8v2h-8v-2zM27 32v-8h2v8h-2z" clip-rule="evenodd"/><path fill="#fff" fill-rule="evenodd" d="M24 27h8v2h-8v-2z" clip-rule="evenodd"/></svg>