<svg xmlns="http://www.w3.org/2000/svg" fill="none" viewBox="0 0 120 120"><path fill="#588AF5" d="M108.255 28v48H28.251V28h80.004z"/><path fill="#464B55" d="M44.253 76c0 8.837-7.163 16-16 16-8.835 0-15.998-7.163-15.998-16 0-8.835 7.163-15.998 15.999-15.998s15.999 7.163 15.999 15.999zM28.255 36h80v8h-80v-8z"/><path fill="#fff" d="M36.255 52h40v4h-40v-4zm48 0h16v2h-16v-2zm0 6h16v2h-16v-2z"/><path fill="#464B55" d="M44.253 76.001c0 8.836-7.163 16-16 16-8.835 0-15.998-7.164-15.998-16s7.163-15.999 15.999-15.999 15.999 7.163 15.999 16z"/><path fill="#0A0B0D" d="M44.253 76H28.25V60.002h.004c8.835 0 15.998 7.163 15.999 15.998z"/><path fill="#ECD069" d="M41.254 76.001c0 7.18-5.82 13-13 13s-13-5.82-13-13 5.82-13 13-13 13 5.82 13 13z"/><path fill="#000" fill-rule="evenodd" d="M27.255 79.001v-10h2v10h-2zm0 4v-2h2v2h-2z" clip-rule="evenodd"/></svg>