<svg xmlns="http://www.w3.org/2000/svg" fill="none" viewBox="0 0 240 240"><path fill="#fff" d="M144 0H0v240h144V0z"/><path fill="#0A0B0D" d="M0 240h144V0H0v240z"/><path fill="#464B55" d="M240 24h-96v192h96V24z"/><path fill="#588AF5" d="M0 24h144v192H0V24z"/><path fill="#464B55" d="M0 24h144V0H0v24zm0 216h144v-24H0v24z"/><path fill="#fff" d="M72 14c1.1 0 2-.9 2-2s-.9-2-2-2-2 .9-2 2 .9 2 2 2zm8 212H64v4h16v-4z"/><path fill="#588AF5" fill-rule="evenodd" d="M240 120c0 26.536-21.464 48-48 48s-48-21.464-48-48 21.464-48 48-48 48 21.464 48 48z" clip-rule="evenodd"/><path fill="#fff" d="M36 116c6.6 0 12-5.4 12-12s-5.4-12-12-12-12 5.4-12 12 5.4 12 12 12zm36 0c6.6 0 12-5.4 12-12s-5.4-12-12-12-12 5.4-12 12 5.4 12 12 12z"/><path fill="#0A0B0D" fill-rule="evenodd" d="M71 104v-6.6h2v6.6h-2z" clip-rule="evenodd"/><path fill="#0A0B0D" fill-rule="evenodd" d="m71.684 104.949-6.3-2.1.632-1.898 6.3 2.1-.632 1.898z" clip-rule="evenodd"/><path fill="#0A0B0D" fill-rule="evenodd" d="m72.81 104.586-3.9 5.4-1.62-1.171 3.9-5.4 1.62 1.171z" clip-rule="evenodd"/><path fill="#0A0B0D" fill-rule="evenodd" d="m72.81 103.415 3.9 5.4-1.62 1.171-3.9-5.4 1.62-1.171z" clip-rule="evenodd"/><path fill="#0A0B0D" fill-rule="evenodd" d="m71.684 103.051 6.3-2.1.632 1.898-6.3 2.1-.632-1.898zM35 104v-6.6h2v6.6h-2z" clip-rule="evenodd"/><path fill="#0A0B0D" fill-rule="evenodd" d="m35.684 104.949-6.3-2.1.632-1.898 6.3 2.1-.632 1.898z" clip-rule="evenodd"/><path fill="#0A0B0D" fill-rule="evenodd" d="m36.81 104.586-3.9 5.4-1.62-1.171 3.9-5.4 1.62 1.171z" clip-rule="evenodd"/><path fill="#0A0B0D" fill-rule="evenodd" d="m36.81 103.415 3.9 5.4-1.62 1.171-3.9-5.4 1.62-1.171z" clip-rule="evenodd"/><path fill="#0A0B0D" fill-rule="evenodd" d="m35.684 103.051 6.3-2.1.632 1.898-6.3 2.1-.632-1.898z" clip-rule="evenodd"/><path fill="#fff" d="M108 116c6.6 0 12-5.4 12-12s-5.4-12-12-12-12 5.4-12 12 5.4 12 12 12z"/><path fill="#0A0B0D" fill-rule="evenodd" d="M107 104v-6.6h2v6.6h-2z" clip-rule="evenodd"/><path fill="#0A0B0D" fill-rule="evenodd" d="m107.684 104.949-6.3-2.1.632-1.898 6.3 2.1-.632 1.898z" clip-rule="evenodd"/><path fill="#0A0B0D" fill-rule="evenodd" d="m108.81 104.586-3.9 5.4-1.621-1.171 3.9-5.4 1.621 1.171z" clip-rule="evenodd"/><path fill="#0A0B0D" fill-rule="evenodd" d="m108.811 103.415 3.9 5.4-1.622 1.171-3.9-5.4 1.622-1.171z" clip-rule="evenodd"/><path fill="#0A0B0D" fill-rule="evenodd" d="m107.684 103.051 6.3-2.1.632 1.898-6.3 2.1-.632-1.898z" clip-rule="evenodd"/><path fill="#fff" d="M36 84c6.6 0 12-5.4 12-12s-5.4-12-12-12-12 5.4-12 12 5.4 12 12 12zm36 0c6.6 0 12-5.4 12-12s-5.4-12-12-12-12 5.4-12 12 5.4 12 12 12z"/><path fill="#0A0B0D" fill-rule="evenodd" d="M71 72v-6.6h2V72h-2z" clip-rule="evenodd"/><path fill="#0A0B0D" fill-rule="evenodd" d="m71.698 72.953-6.3-2 .605-1.906 6.3 2-.605 1.906z" clip-rule="evenodd"/><path fill="#0A0B0D" fill-rule="evenodd" d="m72.81 72.585-3.9 5.4-1.62-1.17 3.9-5.4 1.62 1.17z" clip-rule="evenodd"/><path fill="#0A0B0D" fill-rule="evenodd" d="m72.81 71.415 3.9 5.4-1.62 1.17-3.9-5.4 1.62-1.17z" clip-rule="evenodd"/><path fill="#0A0B0D" fill-rule="evenodd" d="m71.697 71.047 6.3-2 .605 1.906-6.3 2-.605-1.906zM35 72v-6.6h2V72h-2z" clip-rule="evenodd"/><path fill="#0A0B0D" fill-rule="evenodd" d="m35.697 72.953-6.3-2 .606-1.906 6.3 2-.605 1.906z" clip-rule="evenodd"/><path fill="#0A0B0D" fill-rule="evenodd" d="m36.81 72.585-3.9 5.4-1.62-1.17 3.9-5.4 1.62 1.17z" clip-rule="evenodd"/><path fill="#0A0B0D" fill-rule="evenodd" d="m36.81 71.415 3.9 5.4-1.62 1.17-3.9-5.4 1.62-1.17z" clip-rule="evenodd"/><path fill="#0A0B0D" fill-rule="evenodd" d="m35.697 71.047 6.3-2 .605 1.906-6.3 2-.605-1.906z" clip-rule="evenodd"/><path fill="#fff" d="M108 84c6.6 0 12-5.4 12-12s-5.4-12-12-12-12 5.4-12 12 5.4 12 12 12z"/><path fill="#0A0B0D" fill-rule="evenodd" d="M107 72v-6.6h2V72h-2z" clip-rule="evenodd"/><path fill="#0A0B0D" fill-rule="evenodd" d="m107.697 72.953-6.3-2 .606-1.906 6.3 2-.606 1.906z" clip-rule="evenodd"/><path fill="#0A0B0D" fill-rule="evenodd" d="m108.81 72.585-3.9 5.4-1.621-1.17 3.9-5.4 1.621 1.17z" clip-rule="evenodd"/><path fill="#0A0B0D" fill-rule="evenodd" d="m108.811 71.415 3.9 5.4-1.622 1.17-3.9-5.4 1.622-1.17z" clip-rule="evenodd"/><path fill="#0A0B0D" fill-rule="evenodd" d="m107.697 71.047 6.3-2 .605 1.906-6.3 2-.605-1.906z" clip-rule="evenodd"/><path fill="#fff" d="M36 148c6.6 0 12-5.4 12-12s-5.4-12-12-12-12 5.4-12 12 5.4 12 12 12zm36 0c6.6 0 12-5.4 12-12s-5.4-12-12-12-12 5.4-12 12 5.4 12 12 12z"/><path fill="#0A0B0D" fill-rule="evenodd" d="M71 136v-6.6h2v6.6h-2z" clip-rule="evenodd"/><path fill="#0A0B0D" fill-rule="evenodd" d="m71.684 136.949-6.3-2.1.632-1.898 6.3 2.1-.632 1.898z" clip-rule="evenodd"/><path fill="#0A0B0D" fill-rule="evenodd" d="m72.81 136.586-3.9 5.4-1.62-1.171 3.9-5.4 1.62 1.171z" clip-rule="evenodd"/><path fill="#0A0B0D" fill-rule="evenodd" d="m72.81 135.415 3.9 5.4-1.62 1.171-3.9-5.4 1.62-1.171z" clip-rule="evenodd"/><path fill="#0A0B0D" fill-rule="evenodd" d="m71.684 135.051 6.3-2.1.632 1.898-6.3 2.1-.632-1.898zM35 136v-6.6h2v6.6h-2z" clip-rule="evenodd"/><path fill="#0A0B0D" fill-rule="evenodd" d="m35.684 136.949-6.3-2.1.632-1.898 6.3 2.1-.632 1.898z" clip-rule="evenodd"/><path fill="#0A0B0D" fill-rule="evenodd" d="m36.81 136.586-3.9 5.4-1.62-1.171 3.9-5.4 1.62 1.171z" clip-rule="evenodd"/><path fill="#0A0B0D" fill-rule="evenodd" d="m36.81 135.415 3.9 5.4-1.62 1.171-3.9-5.4 1.62-1.171z" clip-rule="evenodd"/><path fill="#0A0B0D" fill-rule="evenodd" d="m35.684 135.051 6.3-2.1.632 1.898-6.3 2.1-.632-1.898z" clip-rule="evenodd"/><path fill="#fff" d="M108 148c6.6 0 12-5.4 12-12s-5.4-12-12-12-12 5.4-12 12 5.4 12 12 12z"/><path fill="#0A0B0D" fill-rule="evenodd" d="M107 136v-6.6h2v6.6h-2z" clip-rule="evenodd"/><path fill="#0A0B0D" fill-rule="evenodd" d="m107.684 136.949-6.3-2.1.632-1.898 6.3 2.1-.632 1.898z" clip-rule="evenodd"/><path fill="#0A0B0D" fill-rule="evenodd" d="m108.81 136.586-3.9 5.4-1.621-1.171 3.9-5.4 1.621 1.171z" clip-rule="evenodd"/><path fill="#0A0B0D" fill-rule="evenodd" d="m108.811 135.415 3.9 5.4-1.622 1.171-3.9-5.4 1.622-1.171z" clip-rule="evenodd"/><path fill="#0A0B0D" fill-rule="evenodd" d="m107.684 135.051 6.3-2.1.632 1.898-6.3 2.1-.632-1.898z" clip-rule="evenodd"/><path fill="#fff" d="M72 180c6.6 0 12-5.4 12-12s-5.4-12-12-12-12 5.4-12 12 5.4 12 12 12z"/><path fill="#0A0B0D" fill-rule="evenodd" d="M71 168v-6.6h2v6.6h-2z" clip-rule="evenodd"/><path fill="#0A0B0D" fill-rule="evenodd" d="m71.684 168.949-6.3-2.1.632-1.898 6.3 2.1-.632 1.898z" clip-rule="evenodd"/><path fill="#0A0B0D" fill-rule="evenodd" d="m72.81 168.586-3.9 5.4-1.62-1.171 3.9-5.4 1.62 1.171z" clip-rule="evenodd"/><path fill="#0A0B0D" fill-rule="evenodd" d="m72.81 167.415 3.9 5.4-1.62 1.171-3.9-5.4 1.62-1.171z" clip-rule="evenodd"/><path fill="#0A0B0D" fill-rule="evenodd" d="m71.684 167.051 6.3-2.1.632 1.898-6.3 2.1-.632-1.898z" clip-rule="evenodd"/><path fill="#fff" d="m205.913 90-8.348 29.985H172L205.913 90zm-28.826 60 8.348-29.985H211L177.087 150z"/></svg>