<svg xmlns="http://www.w3.org/2000/svg" fill="none" viewBox="0 0 48 48"><g clip-path="url(#a)"><path fill="#588AF5" d="M48 24.484c0 7.447-6.19 13.485-13.825 13.485-7.636 0-13.826-6.038-13.826-13.485 0-7.447 6.19-13.484 13.826-13.484C41.81 11 48 17.037 48 24.484z"/><path fill="#0A0B0D" d="M36.877 17.533v14.022l-3.596.01v-8.7h-3.623v-2.848h3.623v-2.484h3.596z"/><path fill="#A5AAB6" d="M13.684 31.338a6.973 6.973 0 0 1-3.681-1.041 6.715 6.715 0 0 1-2.527-2.806 6.5 6.5 0 0 1-.578-3.69A6.573 6.573 0 0 1 8.45 20.39a6.853 6.853 0 0 1 3.195-2.063 7.015 7.015 0 0 1 3.832-.065 6.87 6.87 0 0 1 3.266 1.954 6.586 6.586 0 0 1 1.673 3.358h6.895c-.294-3.424-1.936-6.605-4.583-8.878-2.647-2.273-6.093-3.462-9.62-3.32-3.525.144-6.858 1.609-9.301 4.088C1.364 17.943 0 21.246 0 24.683c0 3.435 1.364 6.738 3.807 9.218 2.443 2.48 5.776 3.944 9.302 4.087 3.526.144 6.972-1.045 9.619-3.319 2.647-2.272 4.288-5.453 4.582-8.877h-6.894a6.607 6.607 0 0 1-2.323 3.974 6.938 6.938 0 0 1-4.41 1.573z"/><path fill="#0A0B0D" fill-rule="evenodd" d="M23.914 33.518a13.145 13.145 0 0 0 3.397-7.727h-6.869a13.274 13.274 0 0 0 3.472 7.727zm-3.499-9.952a13.257 13.257 0 0 1 3.346-7.885 13.152 13.152 0 0 1 3.55 7.892h-6.895l-.001-.007z" clip-rule="evenodd"/></g><defs><clipPath id="a"><path fill="#fff" d="M0 0h48v48H0z"/></clipPath></defs></svg>