<svg xmlns="http://www.w3.org/2000/svg" fill="none" viewBox="0 0 48 48"><g clip-path="url(#a)"><path fill="#464B55" d="M42.4 5.6H23.99v18.47H42.4V5.6z"/><path fill="#588AF5" d="M23.99 5.6H5.6v18.5h18.39V5.6z"/><path fill="#588AF5" d="M42.4 24.07H23.99V42.4H42.4V24.07z"/><path fill="#464B55" d="M23.99 24.07H5.6V42.4h18.39V24.07z"/><path fill="#ECD069" d="M20.8 42.4a5.6 5.6 0 0 1-11.2 0h11.2z"/><path fill="#588AF5" d="M9.6 42.4a5.6 5.6 0 1 1 11.2 0H9.6z"/><path fill="#ECD069" d="M5.6 20a5.6 5.6 0 0 1 0-11.2V20z"/><path fill="#0A0B0D" d="M5.6 8.8a5.6 5.6 0 0 1 0 11.2V8.8z"/><path fill="#588AF5" d="M39.2 5.6a5.6 5.6 0 0 1-11.2 0h11.2z"/><path fill="#ECD069" d="M28 5.6a5.6 5.6 0 0 1 11.2 0H28z"/><path fill="#0A0B0D" d="m29.26 33.46 1.88 6 2.38-4.27 2.93 3.26 1.92-1.92-3.26-2.93 4.27-2.37-6-1.89-6-1.88 1.88 6z"/></g><defs><clipPath id="a"><path fill="#fff" d="M0 0h48v48H0z"/></clipPath></defs></svg>