<svg xmlns="http://www.w3.org/2000/svg" fill="none" viewBox="0 0 243 244"><path fill="#F0F1F4" fill-rule="evenodd" d="m194.868 182.49-7.801 3.905-.906-1.811 7.817-3.913a21.825 21.825 0 0 1 24.314 3.557l1.037.953-21.251 11.695-2.926 1.61-43.437 23.895-.976-1.774 43.436-23.895 2.927-1.61 18.735-10.311a19.804 19.804 0 0 0-20.969-2.301z" clip-rule="evenodd"/><path fill="#F0F1F4" fill-rule="evenodd" d="M216.451 205.024a20.23 20.23 0 0 0-18.727-8.03l-.249-2.01a22.256 22.256 0 0 1 21.502 10.141l.765 1.201-68.272 16.143-.466-1.97 65.447-15.475z" clip-rule="evenodd"/><path fill="#F0F1F4" fill-rule="evenodd" d="m184.701 168.746-15.39 14.286-1.377-1.484 15.39-14.286a21.855 21.855 0 0 1 24.344-3.674l1.274.613-20.169 20.531-1.146 1.163v.009l-35.667 36.29-1.444-1.42 35.086-35.699v-.011l1.728-1.752 18.148-18.473a19.83 19.83 0 0 0-20.777 3.907zM154.564 147.4l-.131 1.524a24.657 24.657 0 0 1-4.804 12.669 24.623 24.623 0 0 1-10.77 8.214l-24.02 9.407 33.718 12.684-5.559 10.814-26.825-10.088c-28.48-10.708-60.524.602-75.973 26.812l-.012.021-1.745-1.028 6.663-11.31a91.23 91.23 0 0 1 46.806-39.181 69.858 69.858 0 0 1 3.477-1.221l59.175-19.317zM48.526 205.42c17.582-17.517 44.212-23.771 68.359-14.692l25.137 9.454 3.695-7.189-36.529-13.741 28.933-11.33a22.604 22.604 0 0 0 9.885-7.54 22.607 22.607 0 0 0 4.225-10.09l-56.216 18.351c-1.143.371-2.27.76-3.383 1.187l-.01.004a89.19 89.19 0 0 0-44.096 35.586z" clip-rule="evenodd"/><path fill="#F0F1F4" fill-rule="evenodd" d="m158.162 173.195-10.114 19.713-5.04 9.804-26.825-10.088c-28.477-10.701-60.531.608-75.985 26.833l-14.013 23.774-1.745-1.029 14.013-23.773c15.954-27.073 49.044-38.748 78.442-27.7l25.137 9.453 4.214-8.198 10.115-19.714c4.024-7.835 12.572-12.273 21.309-11.071l1.333.184-9.456 21.318-4.201 9.467-10.368 23.398-3.071 6.941h-60.72l-12.21 20.724-1.745-1.028 12.798-21.721h60.558l2.538-5.735 10.368-23.4 4.202-9.467 8.344-18.811c-7.405-.48-14.455 3.463-17.878 10.126z" clip-rule="evenodd"/><path fill="#464B55" d="M72 0h96v72H72z"/><path fill="#45DAF6" d="M72 131a4 4 0 1 1-8 0 4 4 0 0 1 8 0zM42 40a4 4 0 1 1-8 0 4 4 0 0 1 8 0zm171 64a4 4 0 1 1-8 0 4 4 0 0 1 8 0zm-17-48a4 4 0 1 1-8 0 4 4 0 0 1 8 0z"/><path fill="#588AF5" d="M120.01 125 72 71.78h32.01l16 53.22z"/><path fill="#45DAF6" d="M83 98.014c6.629 0 11.999 5.379 11.999 12.016 0-6.637 5.372-12.016 12.001-12.016-6.629 0-12.001-5.38-12.001-12.014 0 6.634-5.37 12.014-11.999 12.014z"/><path fill="#588AF5" d="M168 71.78 120.01 125l16-53.22H168z"/><path fill="#45DAF6" d="M136 92.998c8.838 0 15.998 7.164 15.998 16.002 0-8.838 7.164-16.002 16.002-16.002-8.838 0-16.002-7.163-16.002-15.998 0 8.835-7.16 15.998-15.998 15.998z"/><path fill="#fff" d="m88.01 45-16 26.78h32L88.01 45z"/><path fill="#45DAF6" d="m104.01 71.78 16-26.78h-32l16 26.78z"/><path fill="#588AF5" d="m120.01 45-16 26.78H136L120.01 45z"/><path fill="#fff" d="m152 45-16 26.78h32L152 45z"/><path fill="#0A0B0D" d="m136.01 71.78-16 53.22-16-53.22h32z"/><path fill="#45DAF6" d="M136 71.78 152 45h-31.99L136 71.78z"/><path fill="#0A0B0D" fill-rule="evenodd" d="M145.826 96.37A15.927 15.927 0 0 0 136 92.998c8.838 0 15.998-7.163 15.998-15.998 0 3.449 1.092 6.643 2.949 9.255l-9.121 10.115zm-47.139 4.993-6.689-7.415c1.868-2.118 3-4.9 3-7.948 0 6.634 5.373 12.014 12.002 12.014a11.953 11.953 0 0 0-8.313 3.349z" clip-rule="evenodd"/></svg>