<svg xmlns="http://www.w3.org/2000/svg" fill="none" viewBox="0 0 240 240"><path fill="#464B55" d="M136 0H20v44h116V0zm84 196h-63.89v44H220v-44z"/><path fill="#45DAF6" d="M230 44H10C4.477 44 0 48.477 0 54v132c0 5.523 4.477 10 10 10h220c5.523 0 10-4.477 10-10V54c0-5.523-4.477-10-10-10z"/><path fill="#588AF5" d="M220 64h-64v132h64V64z"/><path fill="#588AF5" fill-rule="evenodd" d="M136 44H20v112h28.54v-9.19c0-16.122 13.069-29.19 29.19-29.19 16.121 0 29.19 13.068 29.19 29.19V156H136V44zm-72.716 58.876a20.427 20.427 0 0 0 28.892 0 20.43 20.43 0 1 0-28.892 0z" clip-rule="evenodd"/><path fill="#45DAF6" fill-rule="evenodd" d="M176.686 103.314a16.004 16.004 0 0 0 22.628 0 16.004 16.004 0 0 0 0-22.628 16.002 16.002 0 0 0-22.628 0 16.002 16.002 0 0 0 0 22.628z" clip-rule="evenodd"/><path fill="#0A0B0D" fill-rule="evenodd" d="M197.848 85.846 184.29 99.414l-5.707-5.707 1.414-1.414 4.293 4.292 12.143-12.152 1.415 1.413z" clip-rule="evenodd"/><path fill="#fff" fill-rule="evenodd" d="M176.686 143.314a16.004 16.004 0 0 0 22.628 0 16.004 16.004 0 0 0 0-22.628 16.004 16.004 0 0 0-22.628 0 16.004 16.004 0 0 0 0 22.628z" clip-rule="evenodd"/><path fill="#0A0B0D" fill-rule="evenodd" d="m197.848 125.846-13.558 13.568-5.707-5.707 1.414-1.414 4.293 4.292 12.143-12.152 1.415 1.413z" clip-rule="evenodd"/><path fill="#ECD069" fill-rule="evenodd" d="M176.686 183.314a16.004 16.004 0 0 0 22.628 0 16.004 16.004 0 0 0 0-22.628 16.004 16.004 0 0 0-22.628 0 16.004 16.004 0 0 0 0 22.628z" clip-rule="evenodd"/><path fill="#0A0B0D" fill-rule="evenodd" d="m197.848 165.846-13.558 13.568-5.707-5.707 1.414-1.414 4.293 4.292 12.143-12.152 1.415 1.413zM76 169H20v-2h56v2zm0 16H20v-2h56v2zm20-8H20v-2h76v2z" clip-rule="evenodd"/></svg>