<svg xmlns="http://www.w3.org/2000/svg" fill="none" viewBox="0 0 120 120"><path fill="#A3A9B6" d="M60.5 93C81.763 93 99 75.763 99 54.5S81.763 16 60.5 16 22 33.237 22 54.5 39.237 93 60.5 93z"/><path fill="#fff" d="m64 48-7.667 2.333L54 58l-2.333-7.667L44 48l7.667-2.333L54 38l2.333 7.667L64 48zM52 30.5l-3 .875L48 34l-1-2.625-3-.875 3-.875L48 27l1 2.625 3 .875zm-9 12-3.75 1.125L38 47l-1.25-3.375L33 42.5l3.75-1.125L38 38l1.25 3.375L43 42.5z"/><path fill="#606671" d="M88 104H33l10.373-31.12a2.75 2.75 0 0 1 2.61-1.88h29.035a2.75 2.75 0 0 1 2.609 1.88L88 104z"/><path fill="#464B55" d="M38.84 86.488c6.209 4.139 13.658 6.622 21.66 6.622s15.451-2.483 21.66-6.622L77.68 72.93a2.76 2.76 0 0 0-2.62-1.893H45.94a2.76 2.76 0 0 0-2.62 1.893l-4.48 13.558z"/><path fill="#606671" d="M94 104H27c0-2.75 2.512-5 5.583-5h55.834c3.07 0 5.583 2.25 5.583 5z"/></svg>