<svg xmlns="http://www.w3.org/2000/svg" fill="none" viewBox="0 0 240 240"><path fill="#464B55" d="M96 0h48v104.08H96V0z"/><path fill="#464B55" d="M176 104.08c0 30.928-25.072 56-56 56s-56-25.072-56-56 25.072-56 56-56 56 25.072 56 56z"/><path fill="#464B55" fill-rule="evenodd" d="M50.507 85.252A72.368 72.368 0 0 1 64.28 58.41a72.861 72.861 0 0 1 5.105-5.61l2.916 2.915a73.85 73.85 0 0 0-.251.25c-17.764 17.763-23.623 42.923-17.58 65.567l-3.972 1.064a72.862 72.862 0 0 1-1.503-6.947 72.366 72.366 0 0 1 1.511-30.398zm135.114 1.14c6.016 22.536.24 47.566-17.329 65.315l2.916 2.915a72.838 72.838 0 0 0 4.564-5.06 72.348 72.348 0 0 0 13.851-27.033 72.373 72.373 0 0 0 1.503-30.077 72.996 72.996 0 0 0-1.533-7.125l-3.972 1.064z" clip-rule="evenodd"/><path fill="#588AF5" fill-rule="evenodd" d="M144.226 53.577v50.503H95.774V53.577c7.332-3.524 15.548-5.497 24.226-5.497 8.678 0 16.895 1.973 24.226 5.497z" clip-rule="evenodd"/><path fill="#fff" fill-rule="evenodd" d="m96.322 171 .13 1.504a17.816 17.816 0 0 0 11.253 15.091l16.407 6.425-21.715 8.169-6.789-13.23a15.053 15.053 0 0 0-15.444-8.024l-1.316.181 4.901 11.051-7.377-6.848a15.825 15.825 0 0 0-17.627-2.66l-1.259.605 11.442 11.647-.203-.101a15.804 15.804 0 0 0-17.606 2.576l-1.024.942 12.07 6.642a16.113 16.113 0 0 0-11.579 7.336l-.756 1.186 48.448 11.456.067.151h43.212l8.604 14.603 1.723-1.015-9.185-15.588H99.647l-17.864-40.298a13.051 13.051 0 0 1 12.046 7.071l10.893 21.217.006-.002.001.002 19.314-7.263a44.563 44.563 0 0 1 5.877-1.759c18.507-4.164 37.954 3.977 47.823 20.725l9.968 16.91 1.723-1.015-9.966-16.907.005-.003-4.739-8.045a65.173 65.173 0 0 0-33.435-27.989 49.218 49.218 0 0 0-2.484-.872h-.001L96.322 171zm9.37 37.588 17.64-6.634a46.62 46.62 0 0 1 6.146-1.838c14.703-3.314 29.971.804 40.981 10.653a63.152 63.152 0 0 0-29.861-23.153l-.01-.004a48.907 48.907 0 0 0-2.392-.839l-.001-.001-39.546-12.909a15.79 15.79 0 0 0 2.877 6.6 15.797 15.797 0 0 0 6.909 5.27l21.258 8.325-26.371 9.92 2.37 4.61zm-9.846 10.864L74.841 198.08v-.008l-1.31-1.328-12.606-12.833a13.824 13.824 0 0 1 14.087 2.874l10.795 10.021 10.04 22.646zm-22.6-20.142 20.271 20.625-39.953-21.982a13.81 13.81 0 0 1 14.282-1.347l5.4 2.704zm-7.52 7.619a14.11 14.11 0 0 0-12.623 5.282l38.976 9.216-26.353-14.498z" clip-rule="evenodd"/><path fill="#464B55" d="m120 99.929-24.226 10.067L120 124.506V99.929zm.001 0 24.226 10.067-24.226 14.51V99.929z"/><path fill="#fff" d="M120 94.092V64.116l-24.226 39.968L120 94.092zm0 30.271-24.226-14.401L120 143.465v-19.102z"/><path fill="#44C28D" d="M120.001 94.092V64.116l24.226 39.968-24.226-9.992zm0 30.271 24.226-14.401-24.226 33.503v-19.102z"/><path fill="#588AF5" d="m120 93.96-24.226 10.068L120 118.537V93.96z"/><path fill="#0A0B0D" d="m120.001 93.96 24.226 10.068-24.226 14.509V93.96z"/><path fill="#44C28D" d="M192 36a4 4 0 1 1-8 0 4 4 0 0 1 8 0zM24 52.08a4 4 0 1 1-8 0 4 4 0 0 1 8 0z"/><path fill="#45DAF6" d="M191.998 191.999c13.258 0 23.998 10.745 23.998 24.003 0-13.258 10.746-24.003 24.004-24.003-13.258 0-24.004-10.746-24.004-23.999 0 13.253-10.74 23.999-23.998 23.999zM0 195.999c6.629 0 11.999 5.372 11.999 12.001 0-6.629 5.373-12.001 12.001-12.001-6.628 0-12.001-5.373-12.001-11.999 0 6.626-5.37 11.999-11.999 11.999zM64.3 23.998c8.838 0 15.998 7.164 15.998 16.002 0-8.838 7.164-16.002 16.002-16.002-8.838 0-16.002-7.163-16.002-15.998 0 8.835-7.16 15.998-15.998 15.998z"/><path fill="#45DAF6" fill-rule="evenodd" d="M80.3 39.77V8.23c.123 8.728 7.239 15.768 16 15.768-8.761 0-15.877 7.04-16 15.772z" clip-rule="evenodd"/><path fill="#44C28D" d="M224 116a4 4 0 1 1-8 0 4 4 0 0 1 8 0zM40 148a4 4 0 1 1-8 0 4 4 0 0 1 8 0z"/></svg>