<svg xmlns="http://www.w3.org/2000/svg" fill="none" viewBox="0 0 240 240"><path fill="#44C28D" d="M240 216H0v24h240v-24z"/><path fill="#464B55" d="M60 0H28.2v88H60V0zm128 0h-32v88h32V0zM92 0H76v88h16V0zm128 0h-8v88h8V0z"/><path fill="#588AF5" d="m204 208 24-120H16l23.8 120H204z"/><path fill="#464B55" d="m16 88 7.9 40 8 40 7.9 40H204l8-40 8-40 8-40H16z"/><path fill="#0A0B0D" d="M60 88H28c0 17.7 14.3 32 32 32s32-14.3 32-32H60z"/><path fill="#588AF5" d="M60 56c-17.7 0-32 14.3-32 32h64c0-17.7-14.3-32-32-32z"/><path fill="#0A0B0D" fill-rule="evenodd" d="M83 88c0-12.748-10.252-23-23-23v-2c13.852 0 25 11.148 25 25h-2zM60 65c-12.748 0-23 10.252-23 23h-2c0-13.852 11.148-25 25-25v2zM37 88c0 12.748 10.252 23 23 23s23-10.252 23-23h2c0 13.852-11.148 25-25 25s-25-11.148-25-25h2z" clip-rule="evenodd"/><path fill="#588AF5" d="M124 88H92c0 17.7 14.3 32 32 32s32-14.3 32-32h-32z"/><path fill="#44C28D" d="M124 56c-17.7 0-32 14.3-32 32h64c0-17.7-14.3-32-32-32z"/><path fill="#0A0B0D" fill-rule="evenodd" d="M147 88c0-12.748-10.252-23-23-23v-2c13.852 0 25 11.148 25 25h-2zm-23-23c-12.748 0-23 10.252-23 23h-2c0-13.852 11.148-25 25-25v2zm-23 23c0 12.748 10.252 23 23 23s23-10.252 23-23h2c0 13.852-11.148 25-25 25s-25-11.148-25-25h2z" clip-rule="evenodd"/><path fill="#588AF5" d="M188 88h-32c0 17.7 14.3 32 32 32s32-14.3 32-32h-32z"/><path fill="#45DAF6" d="M188 56c-17.7 0-32 14.3-32 32h64c0-17.7-14.3-32-32-32z"/><path fill="#0A0B0D" fill-rule="evenodd" d="M211 88c0-12.748-10.252-23-23-23v-2c13.852 0 25 11.148 25 25h-2zm-23-23c-12.748 0-23 10.252-23 23h-2c0-13.852 11.148-25 25-25v2zm-23 23c0 12.748 10.252 23 23 23s23-10.252 23-23h2c0 13.852-11.148 25-25 25s-25-11.148-25-25h2zm55 57H24v-2h196v2z" clip-rule="evenodd"/><path fill="#0A0B0D" d="M72 228c11 0 20-9 20-20H52c0 11 9 20 20 20z"/><path fill="#588AF5" d="M72 188c-11 0-20 9-20 20 0 2.8.6 5.5 1.7 8h36.6c1.1-2.5 1.7-5.2 1.7-8 0-11-9-20-20-20z"/><path fill="#0A0B0D" fill-rule="evenodd" d="M61 208c0 6.048 4.952 11 11 11v2c-7.152 0-13-5.848-13-13h2zm11 11c6.048 0 11-4.952 11-11h2c0 7.152-5.848 13-13 13v-2zm0-22c-6.048 0-11 4.952-11 11h-2c0-7.152 5.848-13 13-13s13 5.848 13 13h-2c0-6.048-4.952-11-11-11z" clip-rule="evenodd"/><path fill="#0A0B0D" d="M172 228c11 0 20-9 20-20h-40c0 11 9 20 20 20z"/><path fill="#588AF5" d="M172 188c-11 0-20 9-20 20 0 2.8.6 5.5 1.7 8h36.7c1.1-2.5 1.7-5.2 1.7-8-.1-11-9.1-20-20.1-20z"/><path fill="#0A0B0D" fill-rule="evenodd" d="M161 208c0 6.048 4.952 11 11 11v2c-7.152 0-13-5.848-13-13h2zm11 11c6.048 0 11-4.952 11-11h2c0 7.152-5.848 13-13 13v-2zm0-22c-6.048 0-11 4.952-11 11h-2c0-7.152 5.848-13 13-13s13 5.848 13 13h-2c0-6.048-4.952-11-11-11zm16-28H32v-2h156v2z" clip-rule="evenodd"/><path fill="#0A0B0D" fill-rule="evenodd" d="M212 169h-64v-2h64v2zm28 60H0v-2h240v2zM124 78.586l-7.293-7.293-1.414 1.414L124 81.414l8.707-8.707-1.414-1.414L124 78.586z" clip-rule="evenodd"/><path fill="#0A0B0D" fill-rule="evenodd" d="M125 0v80h-2V0h2z" clip-rule="evenodd"/><path fill="#fff" fill-rule="evenodd" d="M125 0v56h-2V0h2z" clip-rule="evenodd"/></svg>