<svg xmlns="http://www.w3.org/2000/svg" fill="none" viewBox="0 0 240 240"><path fill="#45DAF6" d="M180 60H60v120h120V60z"/><path fill="#464B55" d="M180 0c-33.1 0-60 26.9-60 60s26.9 60 60 60 60-26.9 60-60-26.9-60-60-60zM60 120c-33.1 0-60 26.9-60 60s26.9 60 60 60 60-26.9 60-60-26.9-60-60-60z"/><path fill="#588AF5" d="M60 120v60h60c0-33.1-26.9-60-60-60zm120 0V60h-60c0 33.1 26.9 60 60 60z"/><path fill="#45DAF6" d="M60 0C26.9 0 0 26.9 0 60s26.9 60 60 60 60-26.9 60-60S93.1 0 60 0z"/><path fill="#0A0B0D" fill-rule="evenodd" d="M60 13c-25.957 0-47 21.043-47 47s21.043 47 47 47 47-21.043 47-47-21.043-47-47-47zM11 60c0-27.062 21.938-49 49-49s49 21.938 49 49-21.938 49-49 49-49-21.938-49-49zm169-47c-25.957 0-47 21.043-47 47s21.043 47 47 47 47-21.043 47-47-21.043-47-47-47zm-49 47c0-27.062 21.938-49 49-49s49 21.938 49 49-21.938 49-49 49-49-21.938-49-49zm-71 73c-25.957 0-47 21.043-47 47s21.043 47 47 47 47-21.043 47-47-21.043-47-47-47zm-49 47c0-27.062 21.938-49 49-49s49 21.938 49 49-21.938 49-49 49-49-21.938-49-49z" clip-rule="evenodd"/><path fill="#588AF5" d="M120 180c0-33.1 26.9-60 60-60s60 26.9 60 60H120z"/><path fill="#ECD069" d="M180 120v60h-60c0 33.1 26.9 60 60 60s60-26.9 60-60-26.9-60-60-60z"/><path fill="#0A0B0D" fill-rule="evenodd" d="M180 133c-25.957 0-47 21.043-47 47s21.043 47 47 47 47-21.043 47-47-21.043-47-47-47zm-49 47c0-27.062 21.938-49 49-49s49 21.938 49 49-21.938 49-49 49-49-21.938-49-49z" clip-rule="evenodd"/></svg>