<svg xmlns="http://www.w3.org/2000/svg" fill="none" viewBox="0 0 240 240"><path fill="#464B55" d="M240 144H0v64h240v-64z"/><path fill="#44C28D" d="M80 72H32v72h48V72z"/><path fill="#0052FF" d="M128 120h-16v48h16v-48z"/><path fill="#00D17F" d="M192 48h-16v48h16V48z"/><path fill="#0052FF" d="M192 112h-16v48h16v-48z"/><path fill="#588AF5" d="M80 144H32v40h48v-40z"/><path fill="#F0616D" d="M144 96H96v72h48V96z"/><path fill="#588AF5" d="M144 144H96v40h48v-40z"/><path fill="#44C28D" d="M208 32h-48v128h48V32z"/><path fill="#588AF5" d="M208 144h-48v40h48v-40z"/><path fill="#fff" fill-rule="evenodd" d="M64 34H32v-2h32v2zm16 8H32v-2h48v2zm-16 8H32v-2h32v2zm129.11 23.792-72.441 55.84-65.058-24.521-38.58 24.236-1.063-1.694 39.42-24.764 64.943 24.479 71.558-55.16 1.221 1.584z" clip-rule="evenodd"/><path fill="#fff" fill-rule="evenodd" d="m191.599 73.689-14.904-1.695.226-1.988 16.891 1.922-1.921 16.89-1.988-.225 1.696-14.904z" clip-rule="evenodd"/></svg>