<svg xmlns="http://www.w3.org/2000/svg" fill="none" viewBox="0 0 240 120"><path fill="#464B55" d="M240 0H0v20h240V0zm0 100H0v20h240v-20z"/><path fill="#45DAF6" d="M144 100c22.091 0 40-17.909 40-40s-17.909-40-40-40-40 17.909-40 40 17.909 40 40 40z"/><path fill="#464B55" d="M92 100c22.091 0 40-17.909 40-40s-17.909-40-40-40-40 17.909-40 40 17.909 40 40 40z"/><path fill="#588AF5" d="M118 29.6c8.6 7.3 14 18.2 14 30.4s-5.4 23-14 30.4c-8.6-7.3-14-18.2-14-30.4s5.4-23 14-30.4z"/><path fill="#45DAF6" d="M40 100c22.091 0 40-17.909 40-40S62.091 20 40 20 0 37.909 0 60s17.909 40 40 40z"/><path fill="#588AF5" d="M66 30c8.6 7.4 14 18.2 14 30.4s-5.4 23-14 30.4c-8.6-7.4-14-18.2-14-30.4s5.4-23 14-30.4z"/><path fill="#ECD069" d="M200 100c22.091 0 40-17.909 40-40s-17.909-40-40-40-40 17.909-40 40 17.909 40 40 40z"/><path stroke="#000" stroke-miterlimit="10" stroke-width="2" d="M200 92c17.673 0 32-14.327 32-32 0-17.673-14.327-32-32-32-17.673 0-32 14.327-32 32 0 17.673 14.327 32 32 32zM8 60h144m-8-8.5 8.5 8.5-8.5 8.5M200 40v40m20-20h-40m34.1-14.1-28.2 28.2m28.2 0-28.2-28.2"/></svg>