<svg xmlns="http://www.w3.org/2000/svg" fill="none" viewBox="0 0 48 48"><path fill="#464B55" fill-rule="evenodd" d="M25 1h-6v12h6V1zm0 0c12.25 0 23 10.75 23 23a18.24 18.24 0 0 1-18 18V30a6.33 6.33 0 0 0 6-6 11.43 11.43 0 0 0-11-11V1z" clip-rule="evenodd"/><path fill="#fff" d="M19 39.58v-4.67 3.57a13.15 13.15 0 0 0 11-5.9V25.3a11 11 0 0 0-21.93 0H19v14.28z"/><path fill="#fff" fill-rule="evenodd" d="M19.01 1h.01a6 6 0 0 1 0 12H19a6 6 0 0 1 0-12h.01z" clip-rule="evenodd"/><path fill="#588AF5" d="M30 24.42H0V48h30V24.42z"/><path fill="#0A0B0D" fill-rule="evenodd" d="M6 40H0v-8h6a4 4 0 0 1 0 8z" clip-rule="evenodd"/><path fill="#588AF5" d="M6 38a2 2 0 1 0 0-4 2 2 0 0 0 0 4zm24-8a6 6 0 1 1 0 12V30z"/><path fill="#0A0B0D" d="M30 42a6 6 0 1 1 0-12v12z"/></svg>