<svg xmlns="http://www.w3.org/2000/svg" fill="none" viewBox="0 0 48 49"><path fill="#27AD75" d="M37.5 21C43.299 21 48 16.299 48 10.5S43.299 0 37.5 0 27 4.701 27 10.5 31.701 21 37.5 21z"/><path fill="#588AF5" d="M10.5 48C16.299 48 21 43.299 21 37.5S16.299 27 10.5 27 0 31.701 0 37.5 4.701 48 10.5 48z"/><path fill="#ECD069" d="M24 42.36c10.14 0 18.36-8.22 18.36-18.36 0-10.14-8.22-18.36-18.36-18.36C13.86 5.64 5.64 13.86 5.64 24c0 10.14 8.22 18.36 18.36 18.36z"/><path fill="#0A0B0D" d="M20.017 41.91c1.8-3.885 1.11-8.632-2.092-11.835-3.203-3.202-7.95-3.892-11.835-2.092a18.225 18.225 0 0 0 4.927 9 18.22 18.22 0 0 0 9 4.927z"/><path fill="#588AF5" d="M27.983 6.09c-1.8 3.885-1.11 8.632 2.092 11.835 3.203 3.202 7.95 3.892 11.835 2.092a18.225 18.225 0 0 0-4.927-9 18.225 18.225 0 0 0-9-4.927z"/><path fill="#0A0B0D" fill-rule="evenodd" d="M29.707 21.74 22.5 28.947l-4.207-4.207 1.414-1.414 2.793 2.793 5.793-5.793 1.414 1.414z" clip-rule="evenodd"/></svg>