<svg xmlns="http://www.w3.org/2000/svg" fill="none" viewBox="0 0 240 124"><path fill="#464B55" d="M216 92c0 6.627-5.373 12-12 12H56V26c0-5.523 4.477-10 10-10h150v76z"/><path fill="#464B55" d="M176 86c0 5.523-4.477 10-10 10H24V12c0-6.627 5.373-12 12-12h140v86z"/><path fill="#588AF5" d="M184 16v80H56V16h128z"/><path fill="#0A0B0D" d="M152 35h32v42h-32V35z"/><path fill="#588AF5" d="M184 35h8v42h-8V35z"/><path fill="#0A0B0D" d="M176 8H64.945A9.001 9.001 0 0 0 56 16h120V8z"/><path fill="#fff" d="m168 50 6 6-6 6-6-6 6-6z"/><path fill="#44C28D" d="M140 100c0 11.046-8.954 20-20 20s-20-8.954-20-20 8.954-20 20-20 20 8.954 20 20z"/><path fill="#0A0B0D" fill-rule="evenodd" d="M144 100c0 13.255-10.745 24-24 24s-24-10.745-24-24 10.745-24 24-24 24 10.745 24 24zm-24 20c11.046 0 20-8.954 20-20s-8.954-20-20-20-20 8.954-20 20 8.954 20 20 20z" clip-rule="evenodd"/><path fill="#0A0B0D" fill-rule="evenodd" d="m133.098 92.569-15.42 17.847-9.033-9.293 1.434-1.394 7.512 7.728 13.993-16.196 1.514 1.308z" clip-rule="evenodd"/><path fill="#ECD069" d="M232 15.998c-8.838 0-15.998 7.164-15.998 16.002 0-8.838-7.164-16.002-16.002-16.002 8.838 0 16.002-7.163 16.002-15.998 0 8.835 7.16 15.998 15.998 15.998z"/><path fill="#45DAF6" d="M36 43.999c-6.628 0-11.999 5.372-11.999 12.001 0-6.629-5.373-12.001-12.001-12.001 6.628 0 12.001-5.373 12.001-11.999 0 6.626 5.37 11.999 11.999 11.999zM240 88a7.999 7.999 0 0 0-7.999 8A8 8 0 0 0 224 88a8 8 0 0 0 8.001-8A8 8 0 0 0 240 88z"/><path fill="#588AF5" d="M24 55.825v-23.65l.001-.175c0 6.626 5.37 11.999 11.999 11.999-6.628 0-11.999 5.372-11.999 12.001L24 55.825zM200.225 16H216v15.77c-.122-8.657-7.117-15.65-15.775-15.77z"/><path fill="#ECD069" d="M24 103.999c-6.628 0-11.999 5.372-11.999 12.001 0-6.629-5.372-12.001-12.001-12.001 6.629 0 12.001-5.373 12.001-11.999 0 6.626 5.37 11.999 11.999 11.999z"/></svg>