<svg xmlns="http://www.w3.org/2000/svg" fill="none" viewBox="0 0 240 240"><path fill="#464B55" fill-rule="evenodd" d="M120.3 240c66.1 0 119.7-53.6 119.7-119.7S186.4.6 120.3.6.6 54.2.6 120.3 54.2 240 120.3 240zm108.2-119.4s-48.3-57-107.9-57l-107.9 57s48.3 57 107.9 57c59.6 0 107.9-57 107.9-57z" clip-rule="evenodd"/><path fill="#44C28D" d="M120 76.6c-24.3 0-44 19.7-44 44s19.7 44 44 44c9.1 0 17.6-2.8 24.6-7.5 1.2-.8 2.3-1.6 3.4-2.5 1.6-1.3 3.2-2.8 4.6-4.4 2.8-3.1 5.2-6.7 7.1-10.5 1.2-2.6 2.2-5.3 3-8.1.4-1.4.7-2.8.9-4.3.3-2.2.5-4.4.5-6.7-.1-24.3-19.8-44-44.1-44z"/><path fill="#588AF5" d="M120 92.6c-15.5 0-28 12.5-28 28s12.5 28 28 28 28-12.5 28-28-12.5-28-28-28z"/><path fill="#0A0B0D" fill-rule="evenodd" d="M42.494 146.295C63.108 161.501 91.02 176.6 120.5 176.6c29.493 0 56.259-14.111 75.711-28.308 9.715-7.09 17.578-14.182 23.012-19.5a177.284 177.284 0 0 0 6.25-6.42 106.951 106.951 0 0 0 2.03-2.262l.102-.119.025-.029.006-.007.001-.001.704.596.059.05c.763.647.763.647.762.648l-.009.011-.028.033-.109.126a115.84 115.84 0 0 1-2.072 2.309 178.777 178.777 0 0 1-6.322 6.494c-5.486 5.369-13.422 12.527-23.232 19.687-19.599 14.304-46.783 28.692-76.89 28.692-30.12 0-58.458-15.4-79.193-30.695-10.383-7.658-18.892-15.314-24.807-21.056a208.492 208.492 0 0 1-6.84-6.944 129.2 129.2 0 0 1-2.256-2.468l-.118-.134-.03-.035-.01-.012s-.001-.001.754-.656l.756-.655.008.009.027.032.112.127a130.648 130.648 0 0 0 2.216 2.425 206.351 206.351 0 0 0 6.775 6.876c5.866 5.695 14.307 13.289 24.6 20.881z" clip-rule="evenodd"/><path fill="#45DAF6" d="M120 .6H0v120h120V.6z"/><path fill="#fff" d="M28 60.6c0-17.7 14.3-32 32-32s32 14.3 32 32-14.3 32-32 32-32-14.4-32-32z"/><path fill="#0A0B0D" d="M75.5 60.6 52.2 45.1v31l23.3-15.5z"/><path fill="#588AF5" d="M76 120.6h44v-44c-24.3 0-44 19.7-44 44z"/><path fill="#0A0B0D" d="M92 120.6h28v-28c-15.5 0-28 12.5-28 28z"/></svg>