<svg width="380" height="380" viewBox="0 0 380 380" fill="none" xmlns="http://www.w3.org/2000/svg">
<rect width="380" height="380" fill="#EEF0F3"/>
<path d="M135.667 114H137.187V109.328H139.907C142.307 109.328 143.635 108 143.635 106.032C143.635 104.064 142.307 102.736 139.907 102.736H135.667V114ZM142.083 106.128C142.083 107.28 141.347 108.016 139.875 108.016H137.187V104.048H139.875C141.347 104.048 142.083 104.768 142.083 105.936V106.128ZM147.997 112.032C147.997 113.344 148.621 114 150.029 114H153.757V112.752H150.365C149.741 112.752 149.469 112.48 149.469 111.84V102H145.789V103.216H147.997V112.032ZM161.368 107.776C161.368 108.448 160.936 108.736 160.088 108.88L158.84 109.088C157.096 109.36 155.944 110.16 155.944 111.712C155.944 113.296 157.128 114.224 158.776 114.224C160.152 114.224 161.176 113.552 161.56 112.448H161.656L161.624 112.576C161.624 113.504 161.992 114 163.048 114H164.072V112.816H163.48C163.064 112.816 162.872 112.688 162.872 112.176V108.128C162.872 106.16 161.528 105.264 159.624 105.264C157.56 105.264 156.376 106.256 156.248 107.648H157.704C157.784 106.864 158.424 106.4 159.608 106.4C160.92 106.4 161.368 107.088 161.368 107.776ZM161.416 110.56C161.416 112.064 160.44 113.072 159.048 113.072C158.056 113.072 157.384 112.56 157.384 111.664V111.568C157.384 110.736 158.04 110.272 159.096 110.096L160.312 109.888C160.888 109.792 161.256 109.536 161.416 109.312V110.56ZM167.698 109.44C167.698 107.632 168.802 106.528 170.274 106.528C171.602 106.528 172.29 107.232 172.466 108.064H173.922C173.666 106.384 172.354 105.264 170.29 105.264C167.682 105.264 166.226 107.184 166.226 109.744C166.226 112.288 167.634 114.224 170.29 114.224C172.338 114.224 173.634 113.104 173.922 111.392H172.482C172.29 112.272 171.57 112.976 170.274 112.976C168.802 112.976 167.698 111.856 167.698 110.064V109.44ZM180.38 114.224C182.412 114.224 183.74 113.2 184.044 111.728H182.54C182.428 112.384 181.74 113.072 180.396 113.072C178.86 113.072 177.82 111.936 177.82 110.128V110.064H184.188V109.552C184.188 107.136 182.86 105.264 180.332 105.264C177.82 105.264 176.348 107.216 176.348 109.744C176.348 112.256 177.724 114.224 180.38 114.224ZM180.332 106.432C181.756 106.432 182.668 107.36 182.716 109.04H177.836C177.948 107.392 178.972 106.432 180.332 106.432ZM188.407 108.976C188.407 107.36 189.447 106.544 190.615 106.544C191.703 106.544 192.647 107.248 192.647 108.72V114H194.119V108.576C194.119 106.432 192.743 105.264 191.031 105.264C189.767 105.264 188.839 105.872 188.455 106.96H188.375V102H186.935V114H188.407V108.976ZM200.737 114.224C203.345 114.224 204.737 112.272 204.737 109.744C204.737 107.2 203.313 105.264 200.737 105.264C198.161 105.264 196.737 107.2 196.737 109.744C196.737 112.272 198.129 114.224 200.737 114.224ZM203.249 110.064C203.249 111.92 202.193 112.976 200.737 112.976C199.281 112.976 198.225 111.872 198.225 110.064V109.44C198.225 107.616 199.281 106.528 200.737 106.528C202.193 106.528 203.249 107.584 203.249 109.44V110.064ZM209.404 112.032C209.404 113.344 210.028 114 211.436 114H215.164V112.752H211.772C211.148 112.752 210.876 112.48 210.876 111.84V102H207.196V103.216H209.404V112.032ZM224.982 114V102H223.51V107.12H223.43C222.966 105.984 222.102 105.264 220.71 105.264C218.39 105.264 217.078 107.216 217.078 109.744C217.078 112.272 218.358 114.224 220.71 114.224C222.182 114.224 223.094 113.44 223.51 112.256H223.59V114H224.982ZM218.55 110.064V109.44C218.55 107.6 219.622 106.528 221.03 106.528C222.454 106.528 223.51 107.632 223.51 109.44V110.064C223.51 111.856 222.454 112.976 221.03 112.976C219.622 112.976 218.55 111.904 218.55 110.064ZM231.552 114.224C233.584 114.224 234.912 113.2 235.216 111.728H233.712C233.6 112.384 232.912 113.072 231.568 113.072C230.032 113.072 228.992 111.936 228.992 110.128V110.064H235.36V109.552C235.36 107.136 234.032 105.264 231.504 105.264C228.992 105.264 227.52 107.216 227.52 109.744C227.52 112.256 228.896 114.224 231.552 114.224ZM231.504 106.432C232.928 106.432 233.84 107.36 233.888 109.04H229.008C229.12 107.392 230.144 106.432 231.504 106.432ZM238.907 114H240.379V109.008C240.379 107.776 240.843 106.816 242.443 106.816H245.275V105.44H242.715C241.291 105.44 240.619 106.208 240.395 106.992H240.315V105.488H238.907V114Z" fill="#0052FF"/>
<rect x="55" y="173" width="125" height="34" rx="8" fill="#5B616E" fill-opacity="0.2"/>
<rect x="200" y="173" width="125" height="34" rx="8" fill="#5B616E" fill-opacity="0.2"/>
</svg>
