<svg width="64" height="64" viewBox="0 0 64 64" fill="none" xmlns="http://www.w3.org/2000/svg">
<path d="M52 13C52.5523 13 53 12.5523 53 12C53 11.4477 52.5523 11 52 11C51.4477 11 51 11.4477 51 12C51 12.5523 51.4477 13 52 13Z" fill="#FFD066"/>
<path d="M62 19C62.5523 19 63 18.5523 63 18C63 17.4477 62.5523 17 62 17C61.4477 17 61 17.4477 61 18C61 18.5523 61.4477 19 62 19Z" fill="#BFE9FF"/>
<path d="M0 62V10C0 8.9 0.9 8 2 8H42C43.1 8 44 8.9 44 10V62C44 63.1 43.1 64 42 64H2C0.9 64 0 63.1 0 62Z" fill="#56B4FC"/>
<path d="M40 12H4V56H40V12Z" fill="#BFE9FF"/>
<path d="M38 36H8V38H38V36Z" fill="white"/>
<path d="M38 42H8V44H38V42Z" fill="white"/>
<path d="M38 30H8V32H38V30Z" fill="white"/>
<path d="M38 24H8V26H38V24Z" fill="white"/>
<path d="M38 18H8V20H38V18Z" fill="white"/>
<path d="M32 48H12V50H32V48Z" fill="white"/>
<path d="M34 8H10C10 5.79 11.79 4 14 4H30C32.21 4 34 5.79 34 8Z" fill="#1652F0"/>
<path d="M22 8C24.2091 8 26 6.20914 26 4C26 1.79086 24.2091 0 22 0C19.7909 0 18 1.79086 18 4C18 6.20914 19.7909 8 22 8Z" fill="#1652F0"/>
<path d="M48 59C56.8366 59 64 51.8366 64 43C64 34.1634 56.8366 27 48 27C39.1634 27 32 34.1634 32 43C32 51.8366 39.1634 59 48 59Z" fill="#FFD066"/>
<path d="M44 27.52C37.1 29.3 32 35.55 32 43C32 50.45 37.1 56.7 44 58.48V27.52Z" fill="#1652F0"/>
<path d="M46.5 50.31L40.29 44.1L41.71 42.69L46.5 47.48L56.29 37.69L57.71 39.1L46.5 50.31Z" fill="white"/>
<path d="M55 20.5H52.5V18H51.5V20.5H49V21.5H51.5V24H52.5V21.5H55V20.5Z" fill="#BFE9FF"/>
</svg>
