<svg width="64" height="64" viewBox="0 0 64 64" fill="none" xmlns="http://www.w3.org/2000/svg">
<path d="M32 52C43.0457 52 52 43.0457 52 32C52 20.9543 43.0457 12 32 12C20.9543 12 12 20.9543 12 32C12 43.0457 20.9543 52 32 52Z" fill="#56B4FC"/>
<path d="M32 64C38.0751 64 43 59.0751 43 53C43 46.9249 38.0751 42 32 42C25.9249 42 21 46.9249 21 53C21 59.0751 25.9249 64 32 64Z" fill="#BFE9FF"/>
<path d="M32 22C38.0751 22 43 17.0751 43 11C43 4.92487 38.0751 0 32 0C25.9249 0 21 4.92487 21 11C21 17.0751 25.9249 22 32 22Z" fill="#BFE9FF"/>
<path d="M32 12C28.23 12 24.72 13.06 21.71 14.87C23.28 19.03 27.29 22 32 22C36.71 22 40.72 19.03 42.29 14.87C39.28 13.06 35.77 12 32 12Z" fill="#1652F0"/>
<path d="M32 52C35.77 52 39.28 50.94 42.29 49.13C40.72 44.97 36.71 42 32 42C27.29 42 23.28 44.97 21.71 49.13C24.72 50.94 28.23 52 32 52Z" fill="#1652F0"/>
<path d="M33 26H31V38H33V26Z" fill="white"/>
<path d="M38 33V31L26 31V33H38Z" fill="white"/>
</svg>
