<svg width="64" height="64" viewBox="0 0 64 64" fill="none" xmlns="http://www.w3.org/2000/svg">
<path d="M62 40H2C0.9 40 0 39.1 0 38V2C0 0.9 0.9 0 2 0H62C63.1 0 64 0.9 64 2V38C64 39.1 63.1 40 62 40Z" fill="#BFE9FF"/>
<path d="M24 18H6V20H24V18Z" fill="#1652F0"/>
<path d="M14 24H6V26H14V24Z" fill="white"/>
<path d="M24 24H16V26H24V24Z" fill="white"/>
<path d="M34 24H26V26H34V24Z" fill="white"/>
<path d="M44 24H36V26H44V24Z" fill="white"/>
<path d="M64 6H0V14H64V6Z" fill="#1652F0"/>
<path d="M32 64C40.8366 64 48 56.8366 48 48C48 39.1634 40.8366 32 32 32C23.1634 32 16 39.1634 16 48C16 56.8366 23.1634 64 32 64Z" fill="#56B4FC"/>
<path d="M18.2 40H45.9C43.1 35.2 37.9999 32 32.0999 32C26.1999 32 20.9 35.2 18.2 40Z" fill="#1652F0"/>
<path d="M33 42H31V56H33V42Z" fill="white"/>
<path d="M39 50V48H25V50H39Z" fill="white"/>
</svg>
