<svg width="64" height="64" viewBox="0 0 64 64" fill="none" xmlns="http://www.w3.org/2000/svg">
<g clip-path="url(#clip0)">
<path d="M64 -0.0325928H8V47.9674H64V-0.0325928Z" fill="#BFE9FF"/>
<path d="M0 63.9674L12.03 55.9674H52C54.21 55.9674 56 54.1774 56 51.9674V19.9674C56 17.7574 54.21 15.9674 52 15.9674H4C1.79 15.9674 0 17.7574 0 19.9674V63.9674Z" fill="#56B4FC"/>
<path d="M52 15.9674H8V47.9674H56V19.9674C56 17.7574 54.21 15.9674 52 15.9674Z" fill="#1652F0"/>
<path d="M32 33.9674C33.1046 33.9674 34 33.072 34 31.9674C34 30.8628 33.1046 29.9674 32 29.9674C30.8954 29.9674 30 30.8628 30 31.9674C30 33.072 30.8954 33.9674 32 33.9674Z" fill="white"/>
<path d="M40 33.9674C41.1046 33.9674 42 33.072 42 31.9674C42 30.8628 41.1046 29.9674 40 29.9674C38.8954 29.9674 38 30.8628 38 31.9674C38 33.072 38.8954 33.9674 40 33.9674Z" fill="white"/>
<path d="M48 33.9674C49.1046 33.9674 50 33.072 50 31.9674C50 30.8628 49.1046 29.9674 48 29.9674C46.8954 29.9674 46 30.8628 46 31.9674C46 33.072 46.8954 33.9674 48 33.9674Z" fill="white"/>
<path d="M16 33.9674C17.1046 33.9674 18 33.072 18 31.9674C18 30.8628 17.1046 29.9674 16 29.9674C14.8954 29.9674 14 30.8628 14 31.9674C14 33.072 14.8954 33.9674 16 33.9674Z" fill="white"/>
<path d="M24 33.9674C25.1046 33.9674 26 33.072 26 31.9674C26 30.8628 25.1046 29.9674 24 29.9674C22.8954 29.9674 22 30.8628 22 31.9674C22 33.072 22.8954 33.9674 24 33.9674Z" fill="white"/>
</g>
<defs>
<clipPath id="clip0">
<rect width="64" height="64" fill="white"/>
</clipPath>
</defs>
</svg>
