<svg width="64" height="64" viewBox="0 0 64 64" fill="none" xmlns="http://www.w3.org/2000/svg">
<path opacity="0.15" d="M32 64C49.6731 64 64 49.6731 64 32C64 14.3269 49.6731 0 32 0C14.3269 0 0 14.3269 0 32C0 49.6731 14.3269 64 32 64Z" fill="#E5212E"/>
<path d="M32 60C47.464 60 60 47.464 60 32C60 16.536 47.464 4 32 4C16.536 4 4 16.536 4 32C4 47.464 16.536 60 32 60Z" fill="#E5212E"/>
<path d="M39.0715 41.8994L41.8999 39.071L24.9295 22.1006L22.1011 24.929L39.0715 41.8994Z" fill="white"/>
<path d="M22.1006 39.0714L24.929 41.8998L41.8994 24.9294L39.071 22.101L22.1006 39.0714Z" fill="white"/>
</svg>
