<svg width="64" height="64" viewBox="0 0 64 64" fill="none" xmlns="http://www.w3.org/2000/svg">
<path d="M38 52V32H26V52H20L32 64L44 52H38Z" fill="#BFE9FF"/>
<path d="M26 52L38 52L38 24L26 24L26 52Z" fill="#BFE9FF"/>
<path d="M52 0H12V44H52V0Z" fill="#56B4FC"/>
<path d="M38 32H26V44H38V32Z" fill="#1652F0"/>
<path d="M46 8H18V10H46V8Z" fill="white"/>
<path d="M47 14H17V16H47V14Z" fill="white"/>
<path d="M46 20H18V22H46V20Z" fill="white"/>
<path d="M46 26H18V28H46V26Z" fill="white"/>
<path d="M46 32H18V34H46V32Z" fill="white"/>
</svg>
