<svg width="13" height="12" viewBox="0 0 13 12" fill="none" xmlns="http://www.w3.org/2000/svg">
<path fill-rule="evenodd" clip-rule="evenodd" d="M7.7525 6C7.7525 6.97 6.9725 7.75 6.0025 7.75C5.9775 7.75 5.955 7.7475 5.9325 7.745C5.91 7.7425 5.8875 7.74 5.8625 7.74L3.4025 12L2.1025 11.25L3.1125 9.5C1.8725 8.83 0.7925 7.75 0.0825 6.34C-0.0275 6.12 -0.0275 5.87 0.0825 5.66C1.3025 3.25 3.5725 1.75 6.0025 1.75C6.5025 1.75 6.9925 1.82 7.4725 1.95L8.6025 0L9.9025 0.75L7.4425 5.01C7.6325 5.29 7.7525 5.63 7.7525 6ZM6.0025 3.25C4.2225 3.25 2.6025 4.27 1.6025 6C2.1825 6.99 2.9625 7.74 3.8625 8.2L4.5625 6.99C4.3725 6.71 4.2525 6.37 4.2525 6C4.2525 5.03 5.0325 4.25 6.0025 4.25C6.0275 4.25 6.05 4.2525 6.0725 4.255C6.095 4.2575 6.1175 4.26 6.1425 4.26L6.6825 3.32C6.64369 3.31471 6.60457 3.3091 6.56519 3.30346C6.38135 3.27713 6.19193 3.25 6.0025 3.25ZM9.8025 3.08997C10.6525 3.74997 11.3925 4.60997 11.9225 5.65997C12.0325 5.86997 12.0325 6.12997 11.9225 6.32997C10.7025 8.73997 8.4325 10.24 6.0025 10.24C5.901 10.24 5.80802 10.2315 5.70784 10.2223C5.69944 10.2215 5.691 10.2207 5.6825 10.22L6.5525 8.70997C8.1125 8.51997 9.50249 7.54997 10.4025 5.99997C10.0325 5.35997 9.5725 4.80997 9.0525 4.37997L9.8025 3.08997Z" fill="#1652F0"/>
</svg>
