<svg width="12" height="12" viewBox="0 0 12 12" fill="none" xmlns="http://www.w3.org/2000/svg">
<path d="M12 6.75V5.25L10.28 4.68C10.2 4.41 10.09 4.16 9.96 3.91L10.77 2.29L9.71 1.23L8.09 2.04C7.85 1.91 7.59 1.8 7.32 1.72L6.75 0H5.25L4.68 1.72C4.41 1.8 4.15 1.91 3.91 2.04L2.29 1.23L1.23 2.29L2.04 3.91C1.91 4.15 1.8 4.41 1.72 4.68L0 5.25V6.75L1.72 7.32C1.8 7.59 1.91 7.85 2.04 8.09L1.23 9.71L2.29 10.77L3.91 9.96C4.15 10.09 4.41 10.19 4.68 10.28L5.25 12H6.75L7.32 10.28C7.59 10.2 7.84 10.09 8.09 9.96L9.71 10.77L10.77 9.71L9.96 8.09C10.09 7.85 10.19 7.59 10.28 7.32L12 6.75ZM6 8.5C4.62 8.5 3.5 7.38 3.5 6C3.5 4.62 4.62 3.5 6 3.5C7.38 3.5 8.5 4.62 8.5 6C8.5 7.38 7.38 8.5 6 8.5Z" fill="#1652F0"/>
</svg>
