<svg width="12" height="12" viewBox="0 0 12 12" fill="none" xmlns="http://www.w3.org/2000/svg">
<path d="M2.67002 7.98H4.48002C4.60002 8.57 4.95002 8.94 5.76002 8.94C6.90002 8.94 7.46002 8.04 7.50002 6.29C7.10002 6.91 6.48002 7.33 5.45002 7.33C3.80002 7.33 2.58002 6.3 2.58002 4.56C2.58002 2.78 3.85002 1.59 5.90002 1.59C8.26002 1.59 9.40002 3.18 9.40002 5.66V6.04C9.40002 8.85 8.12002 10.42 5.81002 10.42C3.97002 10.41 2.86002 9.53 2.67002 7.98ZM7.35002 4.6C7.35002 3.6 6.76002 2.99 5.89002 2.99C5.04002 2.99 4.47002 3.61 4.47002 4.51C4.47002 5.41 5.02002 6.03 5.89002 6.03C6.76002 6.04 7.35002 5.44 7.35002 4.6Z" fill="#1652F0"/>
</svg>
