<svg width="16" height="16" viewBox="0 0 16 16" fill="none" xmlns="http://www.w3.org/2000/svg">
<path d="M3.56 10.64H5.98C6.14 11.42 6.6 11.92 7.69 11.92C9.21 11.92 9.96 10.72 10.01 8.37999C9.48 9.21999 8.65 9.77999 7.27 9.77999C5.06 9.77999 3.44 8.39999 3.44 6.07999C3.44 3.70999 5.14 2.10999 7.87 2.10999C11.02 2.10999 12.54 4.23999 12.54 7.53999V8.04999C12.54 11.8 10.83 13.89 7.75 13.89C5.29 13.89 3.82 12.71 3.56 10.64ZM9.8 6.12999C9.8 4.79999 9.01 3.98999 7.85 3.98999C6.71 3.98999 5.96 4.81999 5.96 6.01999C5.96 7.21999 6.7 8.04999 7.85 8.04999C9.02 8.04999 9.8 7.24999 9.8 6.12999Z" fill="#1652F0"/>
</svg>
