<svg width="16" height="16" viewBox="0 0 16 16" fill="none" xmlns="http://www.w3.org/2000/svg">
<path d="M3.57999 7.39H4.49999C4.34999 6.88 4.24999 6.31999 4.24999 5.66C4.24999 3.45 6.02999 2.12 8.32999 2.12C10.95 2.12 12.24 3.54 12.36 5.67H9.97999C9.80999 4.64 9.37999 4.11 8.39999 4.11C7.46999 4.11 6.82999 4.77 6.82999 5.78C6.82999 6.36 6.88999 6.88 6.98999 7.4H10.05V8.97999H7.30999C7.36999 9.39999 7.41999 9.84 7.41999 10.31C7.41999 10.68 7.33999 11 7.22999 11.29C7.99999 11.51 8.63999 11.83 9.16999 11.83C9.85999 11.83 10.29 11.53 10.34 10.73H12.64C12.54 12.54 11.52 13.88 9.62999 13.88C8.08999 13.88 7.01999 12.98 6.19999 12.98C5.61999 12.98 5.36999 13.33 5.31999 13.73H3.35999C3.43999 12.67 3.96999 11.59 5.05999 11.22C5.13999 10.96 5.19999 10.68 5.19999 10.31C5.19999 9.86 5.09999 9.42999 4.97999 8.97999H3.57999V7.39Z" fill="#1652F0"/>
</svg>
