<svg width="24" height="24" viewBox="0 0 24 24" fill="none" xmlns="http://www.w3.org/2000/svg">
<path d="M9 6C8.45 6 8 6.45 8 7C8 7.55 8.45 8 9 8C9.55 8 10 7.55 10 7C10 6.45 9.55 6 9 6Z" fill="#1652F0"/>
<path d="M12 6C11.45 6 11 6.45 11 7C11 7.55 11.45 8 12 8C12.55 8 13 7.55 13 7C13 6.45 12.55 6 12 6Z" fill="#1652F0"/>
<path d="M15 6C14.45 6 14 6.45 14 7C14 7.55 14.45 8 15 8C15.55 8 16 7.55 16 7C16 6.45 15.55 6 15 6Z" fill="#1652F0"/>
<path d="M9 9C8.45 9 8 9.45 8 10C8 10.55 8.45 11 9 11C9.55 11 10 10.55 10 10C10 9.45 9.55 9 9 9Z" fill="#1652F0"/>
<path d="M12 9C11.45 9 11 9.45 11 10C11 10.55 11.45 11 12 11C12.55 11 13 10.55 13 10C13 9.45 12.55 9 12 9Z" fill="#1652F0"/>
<path d="M15 9C14.45 9 14 9.45 14 10C14 10.55 14.45 11 15 11C15.55 11 16 10.55 16 10C16 9.45 15.55 9 15 9Z" fill="#1652F0"/>
<path d="M9 12C8.45 12 8 12.45 8 13C8 13.55 8.45 14 9 14C9.55 14 10 13.55 10 13C10 12.45 9.55 12 9 12Z" fill="#1652F0"/>
<path d="M12 12C11.45 12 11 12.45 11 13C11 13.55 11.45 14 12 14C12.55 14 13 13.55 13 13C13 12.45 12.55 12 12 12Z" fill="#1652F0"/>
<path d="M15 12C14.45 12 14 12.45 14 13C14 13.55 14.45 14 15 14C15.55 14 16 13.55 16 13C16 12.45 15.55 12 15 12Z" fill="#1652F0"/>
<path d="M12 15C11.45 15 11 15.45 11 16C11 16.55 11.45 17 12 17C12.55 17 13 16.55 13 16C13 15.45 12.55 15 12 15Z" fill="#1652F0"/>
<path d="M4 0V24H20V0H4ZM14 22.75H10V21.25H14V22.75ZM18 20H6V2H18V20Z" fill="#1652F0"/>
</svg>
