<svg width="16" height="16" viewBox="0 0 16 16" fill="none" xmlns="http://www.w3.org/2000/svg">
<path d="M7.54002 13.59C4.77002 13.4 3.59002 11.88 3.46002 9.86003H5.83002C5.94002 10.79 6.28002 11.54 7.54002 11.73V8.64003C4.99002 8.24003 3.77002 7.31003 3.77002 5.20003C3.77002 3.36003 5.24002 2.00003 7.53002 1.84003V0.410034H8.67002V1.85003C10.85 2.04003 12.16 3.13003 12.35 5.19003H10.06C9.92002 4.36003 9.52002 3.85003 8.67002 3.69003V6.55003C11.07 6.92003 12.54 7.72003 12.54 9.94003C12.54 11.86 11.2 13.4 8.67002 13.57V15.57H7.54002V13.59ZM7.54002 6.37003V3.66003C6.59002 3.79003 6.08002 4.32003 6.08002 4.99003C6.08002 5.73003 6.35002 6.13003 7.54002 6.37003ZM8.67002 8.82003V11.73C9.60002 11.57 10.17 11.01 10.17 10.23C10.18 9.46003 9.86002 9.07003 8.67002 8.82003Z" fill="#1652F0"/>
</svg>
