<svg width="16" height="16" viewBox="0 0 16 16" fill="none" xmlns="http://www.w3.org/2000/svg">
<path d="M3.53003 10.48C3.53003 9.08999 4.33003 8.07999 5.64003 7.60999C4.60003 7.17999 3.97003 6.37999 3.97003 5.22999C3.97003 3.23999 5.87003 2.10999 8.02003 2.10999C10.21 2.10999 12.04 3.25999 12.04 5.20999C12.04 6.35999 11.38 7.14999 10.38 7.59999C11.73 8.05999 12.48 9.05999 12.48 10.42C12.48 12.66 10.56 13.89 8.01003 13.89C5.48003 13.89 3.53003 12.72 3.53003 10.48ZM9.91003 10.23C9.91003 9.10999 9.10003 8.47999 8.02003 8.47999C6.97003 8.47999 6.10003 9.09999 6.10003 10.24C6.10003 11.38 6.95003 12 8.01003 12C9.10003 12 9.91003 11.36 9.91003 10.23ZM9.64003 5.38999C9.64003 4.50999 8.94003 3.91999 8.02003 3.91999C7.11003 3.91999 6.39003 4.47999 6.39003 5.40999C6.39003 6.33999 7.14003 6.89999 8.04003 6.89999C8.97003 6.89999 9.64003 6.33999 9.64003 5.38999Z" fill="#1652F0"/>
</svg>
