<svg width="25" height="24" viewBox="0 0 25 24" fill="none" xmlns="http://www.w3.org/2000/svg">
<path fill-rule="evenodd" clip-rule="evenodd" d="M16.7425 4.03999L19.0625 0.109985L21.2125 1.37999L7.9325 23.88L5.7825 22.61L7.3425 19.97C4.3525 18.65 1.7725 16.09 0.1425 12.64C-0.0475 12.24 -0.0475 11.77 0.1425 11.36C2.5825 6.19999 7.1325 2.99999 12.0025 2.99999C13.6425 2.99999 15.2425 3.36999 16.7425 4.03999ZM12.0025 5.99999C8.4425 5.99999 5.1825 8.22999 3.1825 12C4.5725 14.63 6.5825 16.48 8.8825 17.38L10.2725 15.02C9.2225 14.42 8.5025 13.3 8.5025 12C8.5025 10.07 10.0725 8.49999 12.0025 8.49999C12.6725 8.49999 13.2825 8.68999 13.8125 9.01999L15.2025 6.65999C14.1825 6.23998 13.1125 5.99999 12.0025 5.99999ZM20.2625 6.40002C21.7025 7.72002 22.9325 9.40002 23.8625 11.36C24.0525 11.76 24.0525 12.24 23.8525 12.63C21.4125 17.79 16.8725 20.99 11.9925 20.99C11.9325 20.99 11.875 20.9875 11.8175 20.985C11.76 20.9825 11.7025 20.98 11.6425 20.98L13.4925 17.85C16.4625 17.32 19.1025 15.23 20.8225 12C20.2225 10.87 19.4925 9.90002 18.6925 9.06002L20.2625 6.40002Z" fill="#3453EB"/>
</svg>
