<svg width="12" height="12" viewBox="0 0 12 12" fill="none" xmlns="http://www.w3.org/2000/svg">
<path d="M9.25 6.05001C9.2 6.05001 9.17 6.04001 9.12 6.03001C10.03 1.68002 10.03 1.43002 10.03 1.31002C10.03 0.760017 9.73 0.290018 9.2 0.0800181C8.54 -0.139982 7.95 0.120018 7.58001 0.850017L6.82001 3.12001C6.36001 1.09002 6.31001 0.980017 6.27001 0.900017C5.87001 -0.0199818 5.18001 -0.0199817 4.81001 0.0600182C4.50001 0.130018 3.79001 0.420018 3.87001 1.59002L4.13001 4.45001C3.78001 4.35001 3.40001 4.40001 3.03001 4.63001L2.94001 4.69001C2.62001 5.00001 2.40001 5.50001 2.57001 6.07001C2.37001 6.16001 2.17001 6.31001 1.99001 6.56001C1.58001 7.08001 1.68001 7.82001 2.23001 8.35001L2.72001 8.81001C2.91001 10.84 4.40001 12 6.87001 12C9.58 12 10.02 9.31 10.22 8.06001C10.45 6.69001 9.75 6.23001 9.25 6.05001ZM5.04001 1.04002C5.16001 1.02002 5.24001 1.01002 5.36001 1.31002C5.39001 1.39002 5.53001 1.93002 6.25001 5.11001L7.21001 5.16001L8.49 1.25002C8.63 0.980017 8.74 0.990017 8.87 1.03002C9 1.07002 9.03 1.20002 9.03 1.30002C9.03 1.43002 8.9 2.22002 8.14001 5.82001C7.41001 5.67001 6.90001 5.56001 6.65001 5.50001C6.15001 5.38001 5.74001 5.51001 5.44001 5.75001L5.21001 5.45001L4.87001 1.51002C4.83001 1.08002 4.96001 1.05002 5.04001 1.04002ZM4.71001 8.84C4.51001 9.09 4.43001 9.04 4.35001 8.99L2.93001 7.63001C2.85001 7.55001 2.66001 7.33001 2.79001 7.17001C2.91001 7.00001 2.99001 6.97001 3.07001 6.97001C3.30001 7.29001 3.61001 7.69001 4.02001 8.21001C4.28001 8.45001 4.53001 8.57 4.76001 8.61C4.78001 8.72 4.75001 8.79 4.71001 8.84ZM3.60001 5.45001C3.80001 5.34001 3.90001 5.37001 3.96001 5.42001L4.94001 6.75001C4.92001 7.05001 5.00001 7.32001 5.14001 7.55001C5.13001 7.57001 5.11001 7.59001 5.10001 7.59001C5.03001 7.63001 4.94001 7.69001 4.75001 7.52001C4.21001 6.85001 3.83001 6.33001 3.61001 5.99001C3.52001 5.85001 3.43001 5.65001 3.60001 5.45001ZM9.23 7.90001L9.22 8.00001C8.97 9.52 8.58 11 6.87001 11C5.55001 11 4.65001 10.65 4.15001 9.97C4.26001 10 4.37001 10.03 4.48001 10.03C4.85001 10.03 5.20001 9.84 5.48001 9.48C5.70001 9.21 5.85001 8.81001 5.74001 8.34001C5.80001 8.29001 5.86001 8.23001 5.91001 8.17001L6.56001 8.32001C6.27001 8.65 6.12001 9.09 6.12001 9.64H7.12001C7.12001 9.3 7.20001 9.05 7.35001 8.9C7.58001 8.68 8.02001 8.66 8.34 8.68001L8.4 7.68001C8.33 7.68001 8.27 7.68001 8.21 7.68001L6.18001 7.22001C5.94001 7.09001 5.85001 6.94001 5.97001 6.60001C5.98001 6.58001 6.08001 6.40001 6.43001 6.48001C6.79001 6.56001 7.66 6.75001 8.98 7.02001C9.09 7.06001 9.36 7.15001 9.23 7.90001Z" fill="#1652F0"/>
</svg>
