<svg width="24" height="24" viewBox="0 0 24 24" fill="none" xmlns="http://www.w3.org/2000/svg">
<path d="M18.6498 12.2801L18.5298 12.2502C18.3998 12.2202 18.2698 12.2002 18.1398 12.1702C19.9997 3.25027 20.0097 2.75027 20.0097 2.51028C20.0097 1.45029 19.4297 0.550301 18.4298 0.140307C17.1398 -0.269688 16.0098 0.230305 15.3498 1.49029L13.6198 6.69022C12.5998 2.12028 12.4998 1.90028 12.4298 1.73029C11.6898 0.0503078 10.4999 -0.0796906 9.63987 0.120307C9.03988 0.250305 7.6699 0.810298 7.82989 3.06027L8.35989 9.01019C7.6399 8.7402 6.84991 8.85019 6.05992 9.33019L5.90992 9.45019C5.27993 10.0602 4.84993 11.0702 5.21993 12.2202C4.75993 12.4001 4.33994 12.7401 3.99994 13.2201C3.19995 14.2201 3.39995 15.6301 4.47994 16.6601L5.47992 17.6201C5.82992 21.68 8.81988 24 13.7498 24C19.1097 24 19.9597 18.8301 20.3597 16.3401L20.3897 16.1501C20.8397 13.4801 19.4997 12.5801 18.6498 12.2801ZM10.0199 1.83028C10.3699 1.75029 10.5599 1.82029 10.8399 2.45028C10.9099 2.65027 11.2299 3.91026 12.6398 10.1402L14.3198 10.2202L16.9498 2.23028C17.2398 1.70029 17.5098 1.67029 17.8498 1.77029C18.2198 1.92028 18.2698 2.29028 18.2698 2.48028C18.2598 2.76027 17.9998 4.36025 16.4398 11.8002C14.8598 11.4702 13.8098 11.2402 13.2798 11.1202C12.2498 10.8802 11.4098 11.1502 10.8299 11.6502L10.2699 10.9002L9.56987 2.93027C9.49987 1.95028 9.82987 1.87028 10.0199 1.83028ZM7.0699 10.7702C7.5099 10.5202 7.76989 10.5902 8.03989 10.8102L9.99987 13.4401C9.93987 14.0901 10.0699 14.6801 10.3999 15.1701C10.3599 15.2301 10.3099 15.2901 10.2599 15.3301C10.1099 15.4201 9.85987 15.5701 9.32987 15.1101C8.25989 13.7701 7.4999 12.7401 7.0599 12.0502C6.92991 11.8702 6.57991 11.3102 7.0699 10.7702ZM5.38992 14.2801C5.68992 13.8701 5.92992 13.8001 6.13992 13.8201C6.60991 14.4901 7.2299 15.3001 7.99989 16.2701L8.08989 16.3701C8.63988 16.8701 9.15988 17.0901 9.61987 17.1601C9.71987 17.4901 9.59987 17.7001 9.48987 17.8301C9.05988 18.3701 8.81988 18.3101 8.51989 18.1101L5.67992 15.4101C5.44992 15.1801 5.08993 14.6601 5.38992 14.2801ZM18.6698 15.8601L18.6398 16.0501C18.1298 19.1801 17.3298 22.24 13.7498 22.24C10.8199 22.24 8.88988 21.39 7.91989 19.7501C8.24989 19.9101 8.58988 20.0001 8.90988 20.0001C9.61987 20.0001 10.2899 19.6401 10.8499 18.9401C11.2798 18.4301 11.5698 17.6301 11.3198 16.7201C11.4998 16.5801 11.6598 16.4201 11.7898 16.2501L13.3698 16.6201C12.7298 17.2801 12.3998 18.2001 12.3998 19.3801H14.1498C14.1498 18.6401 14.3198 18.1101 14.6598 17.7901C15.0598 17.4101 15.7798 17.2501 16.7698 17.3101L16.8798 15.5601C16.7398 15.5501 16.6198 15.5601 16.4898 15.5601L12.3198 14.5901C11.7898 14.3101 11.5498 13.9601 11.8298 13.1501C11.9398 12.9101 12.2898 12.6901 12.9098 12.8301C13.6398 13.0001 15.3798 13.3701 18.1398 13.9401C18.3998 14.0501 18.9198 14.3401 18.6698 15.8601Z" fill="#1652F0"/>
</svg>
