<svg width="25" height="24" viewBox="0 0 25 24" fill="none" xmlns="http://www.w3.org/2000/svg">
<path fill-rule="evenodd" clip-rule="evenodd" d="M0.1425 12.64C2.5825 17.8 7.1325 21 12.0025 21C16.8825 21 21.4225 17.8 23.8625 12.64C24.0525 12.24 24.0525 11.77 23.8625 11.36C21.4225 6.2 16.8825 3 12.0025 3C7.1325 3 2.5825 6.2 0.1425 11.36C-0.0475 11.76 -0.0475 12.23 0.1425 12.64ZM12.0025 18C8.4425 18 5.1925 15.77 3.1825 12C5.1825 8.23 8.4425 6 12.0025 6C15.5625 6 18.8225 8.23 20.8225 12C18.8225 15.77 15.5625 18 12.0025 18ZM15.5025 12C15.5025 13.933 13.9355 15.5 12.0025 15.5C10.0695 15.5 8.5025 13.933 8.5025 12C8.5025 10.067 10.0695 8.5 12.0025 8.5C13.9355 8.5 15.5025 10.067 15.5025 12Z" fill="#3453EB"/>
</svg>
