<svg width="24" height="24" viewBox="0 0 24 24" fill="none" xmlns="http://www.w3.org/2000/svg">
<path d="M5.16998 12.65V12.22C5.16998 6.40998 8.30998 3.16998 12.51 3.16998C15.92 3.16998 18.08 4.77998 18.46 7.91998H14.86C14.62 6.78998 14.04 6.09998 12.56 6.09998C10.42 6.09998 9.09998 7.96998 9.00998 11.5C9.79998 10.23 11.1 9.35998 13.16 9.35998C16.4 9.35998 18.82 11.47 18.82 14.93C18.82 18.46 16.3 20.83 12.22 20.83C7.03998 20.83 5.16998 17.33 5.16998 12.65ZM15.01 14.98C15.01 13.18 13.93 11.93 12.18 11.93C10.45 11.93 9.24998 13.15 9.24998 14.86C9.24998 16.83 10.45 18.03 12.18 18.03C13.88 18.02 15.01 16.78 15.01 14.98Z" fill="#1652F0"/>
</svg>
