<svg width="16" height="16" viewBox="0 0 16 16" fill="none" xmlns="http://www.w3.org/2000/svg">
<path fill-rule="evenodd" clip-rule="evenodd" d="M2.80468 15.0002L11.4626 0L13.1947 0.999754L4.5368 15.9999L2.80468 15.0002ZM3.49984 2.00064C4.3298 2.00064 4.99977 2.67061 4.99977 3.50057C4.99977 4.33053 4.3298 5.0005 3.49984 5.0005C2.66988 5.0005 1.99991 4.33053 1.99991 3.50057C1.99991 2.67061 2.66988 2.00064 3.49984 2.00064ZM3.49984 0.000729862C1.56993 0.000729862 0 1.57066 0 3.50057C0 5.43048 1.56993 7.00041 3.49984 7.00041C5.42975 7.00041 6.99968 5.43048 6.99968 3.50057C6.99968 1.57066 5.42975 0.000729862 3.49984 0.000729862ZM12.4994 11.0002C13.3294 11.0002 13.9994 11.6702 13.9994 12.5002C13.9994 13.3301 13.3294 14.0001 12.4994 14.0001C11.6695 14.0001 10.9995 13.3301 10.9995 12.5002C10.9995 11.6702 11.6695 11.0002 12.4994 11.0002ZM12.4994 9.00032C10.5695 9.00032 8.99959 10.5702 8.99959 12.5002C8.99959 14.4301 10.5695 16 12.4994 16C14.4293 16 15.9993 14.4301 15.9993 12.5002C15.9993 10.5702 14.4293 9.00032 12.4994 9.00032Z" fill="#1652F0"/>
</svg>
