<svg width="24" height="24" viewBox="0 0 24 24" fill="none" xmlns="http://www.w3.org/2000/svg">
<path fill-rule="evenodd" clip-rule="evenodd" d="M12 1.5C15.92 1.5 19.34 3.66 21.14 6.86L24 4V12H22.5H19.5H16L18.91 9.09C17.77 6.39 15.1 4.5 12 4.5C8.88 4.5 6.2 6.42 5.07 9.13L2.3 7.98C3.88 4.18 7.63 1.5 12 1.5ZM5.09 14.91C6.23 17.61 8.9 19.5 12 19.5C15.12 19.5 17.8 17.58 18.93 14.87L21.7 16.02C20.12 19.82 16.37 22.5 12 22.5C8.08 22.5 4.66 20.33 2.86 17.14L0 20V12H1.5H4.5H8L5.09 14.91Z" fill="#1652F0"/>
</svg>
