<svg width="24" height="24" viewBox="0 0 24 24" fill="none" xmlns="http://www.w3.org/2000/svg">
<path fill-rule="evenodd" clip-rule="evenodd" d="M12 0C7.31 0 3.5 3.81 3.5 8.5C3.5 13.19 7.31 17 12 17C16.69 17 20.5 13.19 20.5 8.5C20.5 3.81 16.69 0 12 0ZM12 15C8.41 15 5.5 12.09 5.5 8.5C5.5 4.91 8.41 2 12 2C15.59 2 18.5 4.91 18.5 8.5C18.5 12.09 15.59 15 12 15ZM24 16H20.5V20.5H3.5V16H0V24H24V20V16ZM17.5 8.5C17.5 11.5376 15.0376 14 12 14C8.96243 14 6.5 11.5376 6.5 8.5C6.5 5.46243 8.96243 3 12 3C15.0376 3 17.5 5.46243 17.5 8.5Z" fill="#1652F0"/>
</svg>
