<svg width="24" height="24" viewBox="0 0 24 24" fill="none" xmlns="http://www.w3.org/2000/svg">
<path d="M11.3 20.38C7.14999 20.09 5.36999 17.81 5.17999 14.79H8.72999C8.89999 16.18 9.39999 17.31 11.3 17.6V12.97C7.47999 12.37 5.65999 10.98 5.65999 7.81C5.65999 5.05 7.86999 3.01 11.3 2.77V0.619995H13V2.77999C16.26 3.06999 18.23 4.7 18.52 7.8H15.1C14.88 6.55 14.28 5.77999 13.01 5.54V9.84C16.61 10.39 18.82 11.59 18.82 14.93C18.82 17.81 16.8 20.11 13.01 20.38V23.38H11.31V20.38H11.3ZM11.3 9.55V5.5C9.88999 5.69 9.11999 6.47999 9.11999 7.49C9.11999 8.58999 9.52999 9.19 11.3 9.55ZM13.01 13.22V17.59C14.4 17.35 15.27 16.51 15.27 15.33C15.26 14.18 14.78 13.61 13.01 13.22Z" fill="#1652F0"/>
</svg>
