<svg width="12" height="12" viewBox="0 0 12 12" fill="none" xmlns="http://www.w3.org/2000/svg">
<path d="M2.82 10.18C2 9.37 1.5 8.24 1.5 7C1.5 4.52 3.52 2.5 6 2.5C8.48 2.5 10.5 4.52 10.5 7C10.5 8.24 10 9.37 9.18 10.18L10.24 11.24C11.33 10.16 12 8.66 12 7C12 3.69 9.31 1 6 1C2.69 1 0 3.69 0 7C0 8.66 0.67 10.16 1.76 11.24L2.82 10.18Z" fill="#1652F0"/>
<path d="M9.03 8.97L7.22 7.16C7.23 7.1 7.25 7.06 7.25 7C7.25 6.31 6.69 5.75 6 5.75C5.31 5.75 4.75 6.31 4.75 7C4.75 7.69 5.31 8.25 6 8.25C6.06 8.25 6.1 8.23 6.16 8.22L7.97 10.03L9.03 8.97Z" fill="#1652F0"/>
</svg>
