<svg width="16" height="16" viewBox="0 0 16 16" fill="none" xmlns="http://www.w3.org/2000/svg">
<path d="M0 1H8.25215C13.8531 1 16 4.05863 16 7.91702C16 12.5436 13.002 14.8651 8.25215 14.8651H0V1ZM0.8 1.8V14.0656H8.25215C12.7513 14.0656 15.1993 11.9691 15.1993 7.91702C15.1993 3.75267 12.5456 1.79975 8.25215 1.79975H0.8V1.8Z" fill="#1652F0"/>
<path d="M1.79987 8.81909H4.18543V13.0649H1.79987V8.81909Z" fill="#1652F0"/>
<path d="M2.99231 8.16247C3.81113 8.16247 4.47491 7.49868 4.47491 6.67987C4.47491 5.86105 3.81113 5.19727 2.99231 5.19727C2.17349 5.19727 1.5097 5.86105 1.5097 6.67987C1.5097 7.49868 2.17349 8.16247 2.99231 8.16247Z" fill="#1652F0"/>
<path d="M9.18812 7.37333V8.06082H7.48834V5.30203H9.13383V5.98928H8.17559V6.3087H9.08173V6.99619H8.17559V7.37357L9.18812 7.37333ZM9.48553 8.06131L10.3173 5.30106H11.2951L12.1267 8.06131H11.4113L11.2553 7.52741H10.3562L10.1999 8.06131H9.48553ZM10.5577 6.84065H11.0552L10.827 6.06095H10.7854L10.5577 6.84065ZM12.4723 5.3013H13.16V7.37357H14.1779C13.8986 3.6135 10.9412 2.80103 8.25239 2.80103H5.38672V5.30277H5.81081C6.58415 5.30277 7.06425 5.82713 7.06425 6.67091C7.06425 7.54159 6.59565 8.06131 5.81081 8.06131H5.38672V13.0668H8.25263C12.6222 13.0668 14.1439 11.0373 14.1977 8.06082H12.4723V5.3013ZM5.38623 5.99002V7.37357H5.81081C6.10503 7.37357 6.377 7.28846 6.377 6.67067C6.377 6.0673 6.07446 5.99002 5.81081 5.99002H5.38623Z" fill="#1652F0"/>
</svg>
