<svg width="12" height="12" viewBox="0 0 12 12" fill="none" xmlns="http://www.w3.org/2000/svg">
<path d="M2.65002 7.86C2.65002 6.82 3.25002 6.06 4.23002 5.71C3.45002 5.39 2.98002 4.79 2.98002 3.93C2.98002 2.44 4.41002 1.59 6.01002 1.59C7.65002 1.59 9.02002 2.45 9.02002 3.92C9.02002 4.78 8.53002 5.37 7.77002 5.71C8.78002 6.06 9.34002 6.8 9.34002 7.82C9.34002 9.5 7.90002 10.42 5.99002 10.42C4.11002 10.41 2.65002 9.54 2.65002 7.86ZM7.43002 7.67C7.43002 6.83 6.82002 6.36 6.01002 6.36C5.22002 6.36 4.57002 6.83 4.57002 7.68C4.57002 8.53 5.21002 9 6.00002 9C6.82002 9 7.43002 8.52 7.43002 7.67ZM7.23002 4.05C7.23002 3.39 6.70002 2.95 6.02002 2.95C5.34002 2.95 4.79002 3.36 4.79002 4.06C4.79002 4.76 5.35002 5.18 6.03002 5.18C6.72002 5.17 7.23002 4.75 7.23002 4.05Z" fill="#1652F0"/>
</svg>
