<svg width="16" height="16" viewBox="0 0 16 16" fill="none" xmlns="http://www.w3.org/2000/svg">
<path d="M2.85999 6.47999H3.92999C4.26999 3.94999 5.99999 2.10999 8.65999 2.10999C11.22 2.10999 12.79 3.48999 13.05 6.01999H10.63C10.47 4.76999 9.76999 4.07999 8.63999 4.07999C7.35999 4.07999 6.65999 5.01999 6.44999 6.47999H9.42999L9.22999 7.53999H6.39999V8.52999H9.05999L8.85999 9.57999H6.44999C6.65999 11.04 7.34999 11.87 8.65999 11.87C9.88999 11.87 10.56 11.15 10.76 9.72999H13.14C12.84 12.35 11.3 13.89 8.60999 13.89C5.86999 13.89 4.25999 12.1 3.93999 9.57999H2.85999V8.52999H3.86999V7.53999H2.85999V6.47999Z" fill="#1652F0"/>
</svg>
