<svg width="16" height="16" viewBox="0 0 16 16" fill="none" xmlns="http://www.w3.org/2000/svg">
<path d="M14.13 4.43C14.01 4.29 13.88 4.17 13.72 4.05C13.73 3.96 13.72 3.89 13.72 3.8C13.72 3.68 13.72 3.56 13.72 3.45C13.71 3.28 13.69 3.13 13.66 2.97C13.64 2.87 13.63 2.77 13.6 2.67C13.56 2.51 13.49 2.36 13.42 2.2C13.39 2.12 13.36 2.04 13.32 1.97C13.2 1.75 13.05 1.54 12.88 1.34C12.1 0.45 10.75 0 8.88002 0H4.37002C3.68002 0 3.10002 0.5 3.00002 1.18L1.12002 13.08C1.07002 13.41 1.16002 13.74 1.38002 14C1.60002 14.25 1.91002 14.4 2.25002 14.4H4.15002L4.09002 14.75C4.04002 15.07 4.13002 15.38 4.34002 15.63C4.55002 15.86 4.85002 16 5.17002 16H7.52002C8.17002 16 8.72002 15.53 8.81002 14.92L9.28002 11.99L9.48002 11.97C12.42 11.97 14.25 10.52 14.79 7.77C15.05 6.36 14.84 5.23 14.13 4.43ZM10.56 4.72C10.94 4.72 11.3 4.75 11.6 4.8C11.69 4.81 11.77 4.83 11.85 4.85C11.93 4.86 12 4.88 12.06 4.9C11.53 7.04 10.13 8.06 7.66002 8.06H6.67002L7.20002 4.73H10.56V4.72ZM2.67002 12.89L4.46002 1.5H8.88002C10.28 1.5 11.27 1.79 11.75 2.34C11.83 2.43 11.9 2.54 11.97 2.64C11.99 2.67 12 2.69 12.02 2.72C12.08 2.83 12.13 2.95 12.17 3.09C12.17 3.11 12.18 3.12 12.18 3.14C12.2 3.21 12.2 3.31 12.21 3.39C12.2 3.39 12.2 3.39 12.19 3.38C12.08 3.36 11.97 3.33 11.85 3.32C11.46 3.26 11.03 3.23 10.56 3.23H7.03002C6.83002 3.23 6.64002 3.28 6.46002 3.36C6.07002 3.54 5.80002 3.91 5.73002 4.33L4.98002 9.09L4.38002 12.89H2.67002ZM13.3 7.49C12.9 9.53 11.69 10.48 9.47002 10.48H9.12002C8.47002 10.48 7.92002 10.95 7.82002 11.57L7.36002 14.5H5.65002L5.77002 13.76L6.43002 9.56H7.66002C10.52 9.56 12.44 8.33 13.3 6C13.41 6.39 13.42 6.88 13.3 7.49Z" fill="#1652F0"/>
</svg>
