<svg width="16" height="16" viewBox="0 0 16 16" fill="none" xmlns="http://www.w3.org/2000/svg">
<path fill-rule="evenodd" clip-rule="evenodd" d="M8 0.75C10.77 0.75 13.18 2.31 14.4 4.6L16 3V8H15.25H12.75H11L12.49 6.51C11.86 4.62 10.1 3.25 8 3.25C6.02 3.25 4.33 4.46 3.61 6.19L1.3 5.23C2.4 2.6 4.98 0.75 8 0.75ZM3.51 9.49C4.14 11.38 5.9 12.75 8 12.75C9.98 12.75 11.67 11.54 12.39 9.81L14.7 10.77C13.6 13.4 11.02 15.25 8 15.25C5.23 15.25 2.82 13.69 1.6 11.4L0 13V8H0.75H3.25H5L3.51 9.49Z" fill="#1652F0"/>
</svg>
