<svg width="24" height="24" viewBox="0 0 24 24" fill="none" xmlns="http://www.w3.org/2000/svg">
<path d="M5.53003 15.34H9.11003C9.33003 16.78 9.90003 17.74 11.87 17.74C13.62 17.74 14.56 16.52 14.56 14.69C14.56 12.84 13.5 11.69 11.78 11.69C10.17 11.69 9.19003 12.27 8.49003 13.06H6.32003L6.56003 3.28998H17.43V6.23998H9.47003L9.40003 10.54C10.07 9.71998 11.27 8.95998 13.22 8.95998C16.34 8.95998 18.48 11.1 18.48 14.74C18.48 18.39 15.86 20.72 11.9 20.72C7.67003 20.71 5.70003 18.41 5.53003 15.34Z" fill="#1652F0"/>
</svg>
