<svg width="24" height="24" viewBox="0 0 24 24" fill="none" xmlns="http://www.w3.org/2000/svg">
<path fill-rule="evenodd" clip-rule="evenodd" d="M5 2.5C6.38 2.5 7.5 3.62 7.5 5C7.5 6.38 6.38 7.5 5 7.5C3.62 7.5 2.5 6.38 2.5 5C2.5 3.62 3.62 2.5 5 2.5ZM5 0C2.24 0 0 2.24 0 5C0 7.76 2.24 10 5 10C7.76 10 10 7.76 10 5C10 2.24 7.76 0 5 0ZM19 16.5C20.38 16.5 21.5 17.62 21.5 19C21.5 20.38 20.38 21.5 19 21.5C17.62 21.5 16.5 20.38 16.5 19C16.5 17.62 17.62 16.5 19 16.5ZM19 14C16.24 14 14 16.24 14 19C14 21.76 16.24 24 19 24C21.76 24 24 21.76 24 19C24 16.24 21.76 14 19 14ZM4.42432 22.6257L17.4091 0.124454L19.5744 1.37395L6.58957 23.8752L4.42432 22.6257Z" fill="#1652F0"/>
</svg>
