<svg width="24" height="24" viewBox="0 0 24 24" fill="none" xmlns="http://www.w3.org/2000/svg">
<path fill-rule="evenodd" clip-rule="evenodd" d="M12 5C10.6193 5 9.5 3.88071 9.5 2.5C9.5 1.11929 10.6193 -1.69631e-07 12 -1.09278e-07C13.3807 -4.89256e-08 14.5 1.11929 14.5 2.5C14.5 3.88071 13.3807 5 12 5ZM9.5 12C9.5 13.3807 10.6193 14.5 12 14.5C13.3807 14.5 14.5 13.3807 14.5 12C14.5 10.6193 13.3807 9.5 12 9.5C10.6193 9.5 9.5 10.6193 9.5 12ZM9.5 21.5C9.5 22.8807 10.6193 24 12 24C13.3807 24 14.5 22.8807 14.5 21.5C14.5 20.1193 13.3807 19 12 19C10.6193 19 9.5 20.1193 9.5 21.5Z" fill="#1652F0"/>
</svg>
