<svg width="17" height="16" viewBox="0 0 17 16" fill="none" xmlns="http://www.w3.org/2000/svg">
<path d="M15.8925 7.47997C15.3125 6.19997 14.5325 5.09997 13.6425 4.21997L12.3425 6.46997C12.7225 6.91997 13.0625 7.42997 13.3625 7.99997C12.4025 9.82997 10.9925 11.07 9.41248 11.53L7.85248 14.23C7.90248 14.23 7.95248 14.24 8.00248 14.24C11.2525 14.24 14.2825 12.04 15.8925 8.50997C16.0425 8.18997 16.0425 7.80997 15.8925 7.47997Z" fill="#1652F0"/>
<path d="M12.2425 0L10.8725 2.37C9.9625 1.98 8.9925 1.75 8.0025 1.75C4.7525 1.75 1.7225 3.95 0.1125 7.48C-0.0375 7.81 -0.0375 8.19 0.1125 8.52C1.1225 10.74 2.7025 12.41 4.5325 13.36L3.5725 15.02L5.2725 16L13.9425 0.98L12.2425 0ZM2.6425 8C3.8925 5.64 5.8625 4.25 8.0025 4.25C8.5625 4.25 9.1025 4.36 9.6225 4.54L8.7025 6.14C8.4825 6.06 8.2525 6 8.0025 6C6.9025 6 6.0025 6.9 6.0025 8C6.0025 8.62 6.2925 9.17 6.7425 9.54L5.7725 11.22C4.5325 10.61 3.4425 9.51 2.6425 8Z" fill="#1652F0"/>
</svg>
