<svg width="12" height="12" viewBox="0 0 12 12" fill="none" xmlns="http://www.w3.org/2000/svg">
<path d="M2.59003 6.32003V6.11003C2.59003 3.21003 4.16003 1.59003 6.26003 1.59003C7.96003 1.59003 9.04003 2.39003 9.23003 3.97003H7.43003C7.31003 3.40003 7.02003 3.05003 6.28003 3.05003C5.21003 3.05003 4.55003 3.99003 4.51003 5.75003C4.91003 5.11003 5.55003 4.68003 6.58003 4.68003C8.20003 4.68003 9.41003 5.74003 9.41003 7.46003C9.41003 9.22003 8.15003 10.41 6.11003 10.41C3.52003 10.41 2.59003 8.66003 2.59003 6.32003ZM7.50003 7.49003C7.50003 6.59003 6.96003 5.97003 6.08003 5.97003C5.22003 5.97003 4.62003 6.58003 4.62003 7.43003C4.62003 8.41003 5.22003 9.01003 6.08003 9.01003C6.94003 9.01003 7.50003 8.39003 7.50003 7.49003Z" fill="#1652F0"/>
</svg>
