<svg width="16" height="16" viewBox="0 0 16 16" fill="none" xmlns="http://www.w3.org/2000/svg">
<path d="M8 1C3.58 1 0 4.58 0 9C0 11.19 0.88 13.17 2.3 14.61L3.72 13.19C2.66 12.11 2 10.63 2 9C2 5.69 4.69 3 8 3C11.31 3 14 5.69 14 9C14 10.63 13.34 12.11 12.28 13.2L13.7 14.62C15.12 13.17 16 11.19 16 9C16 4.58 12.42 1 8 1Z" fill="#1652F0"/>
<path d="M9.66996 8.99996C9.66996 8.07996 8.91996 7.32996 7.99996 7.32996C7.07996 7.32996 6.32996 8.07996 6.32996 8.99996C6.32996 9.91996 7.07996 10.67 7.99996 10.67C8.07996 10.67 8.14996 10.66 8.22996 10.65L10.63 13.05L12.04 11.64L9.63996 9.23996C9.64996 9.14996 9.66996 9.07996 9.66996 8.99996Z" fill="#1652F0"/>
</svg>
