<svg width="24" height="24" viewBox="0 0 24 24" fill="none" xmlns="http://www.w3.org/2000/svg">
<path d="M0 1.5H12.3782C20.7797 1.5 24 6.08795 24 11.8755C24 18.8154 19.503 22.2977 12.3782 22.2977H0V1.5ZM1.2 2.7V21.0984H12.3782C19.127 21.0984 22.7989 17.9537 22.7989 11.8755C22.7989 5.62901 18.8185 2.69963 12.3782 2.69963H1.2V2.7Z" fill="#1652F0"/>
<path d="M2.69977 13.2286H6.27812V19.5973H2.69977V13.2286Z" fill="#1652F0"/>
<path d="M4.48849 12.2437C5.71672 12.2437 6.7124 11.248 6.7124 10.0198C6.7124 8.79157 5.71672 7.7959 4.48849 7.7959C3.26026 7.7959 2.26459 8.79157 2.26459 10.0198C2.26459 11.248 3.26026 12.2437 4.48849 12.2437Z" fill="#1652F0"/>
<path d="M13.7822 11.06V12.0912H11.2325V7.95305H13.7007V8.98393H12.2634V9.46305H13.6226V10.4943H12.2634V11.0604L13.7822 11.06ZM14.2283 12.092L15.476 7.95158H16.9427L18.19 12.092H17.1169L16.8829 11.2911H15.5343L15.2999 12.092H14.2283ZM15.8366 10.261H16.5828L16.2405 9.09142H16.1781L15.8366 10.261ZM18.7084 7.95195H19.74V11.0604H21.2669C20.8479 5.42025 16.4118 4.20154 12.3786 4.20154H8.08008V7.95415H8.71621C9.87623 7.95415 10.5964 8.7407 10.5964 10.0064C10.5964 11.3124 9.89347 12.092 8.71621 12.092H8.08008V19.6001H12.3789C18.9333 19.6001 21.2159 16.5559 21.2966 12.0912H18.7084V7.95195ZM8.07935 8.98503V11.0604H8.71621C9.15755 11.0604 9.5655 10.9327 9.5655 10.006C9.5655 9.10096 9.11169 8.98503 8.71621 8.98503H8.07935Z" fill="#1652F0"/>
</svg>
