<svg width="24" height="24" viewBox="0 0 24 24" fill="none" xmlns="http://www.w3.org/2000/svg">
<path d="M5.33998 15.96H8.95998C9.19998 17.14 9.89998 17.88 11.53 17.88C13.81 17.88 14.94 16.08 15.01 12.58C14.22 13.83 12.97 14.67 10.91 14.67C7.59998 14.67 5.16998 12.61 5.16998 9.12999C5.16998 5.57999 7.70998 3.17999 11.82 3.17999C16.55 3.17999 18.83 6.36999 18.83 11.32V12.09C18.83 17.71 16.26 20.85 11.65 20.85C7.92998 20.83 5.71998 19.06 5.33998 15.96ZM14.7 9.18999C14.7 7.19999 13.52 5.96999 11.77 5.96999C10.07 5.96999 8.93998 7.21999 8.93998 9.01999C8.93998 10.82 10.04 12.07 11.77 12.07C13.52 12.07 14.7 10.87 14.7 9.18999Z" fill="#1652F0"/>
</svg>
