<svg width="24" height="24" viewBox="0 0 24 24" fill="none" xmlns="http://www.w3.org/2000/svg">
<path d="M5.37998 11.09H6.74998C6.52998 10.32 6.37998 9.47995 6.37998 8.49995C6.37998 5.18995 9.03998 3.19995 12.5 3.19995C16.44 3.19995 18.36 5.33995 18.55 8.52995H14.97C14.71 6.96995 14.06 6.17995 12.59 6.17995C11.2 6.17995 10.24 7.15995 10.24 8.67995C10.24 9.53995 10.34 10.34 10.48 11.1H15.06V13.48H10.96C11.06 14.1 11.13 14.78 11.13 15.47C11.13 16.02 11.01 16.5 10.84 16.93C11.99 17.27 12.95 17.75 13.74 17.75C14.77 17.75 15.42 17.29 15.49 16.09H18.95C18.81 18.8 17.27 20.82 14.44 20.82C12.14 20.82 10.53 19.4799 9.29998 19.4799C8.43998 19.4799 8.04998 20.01 7.97998 20.61H5.03998C5.15998 19.03 5.94998 17.39 7.57998 16.84C7.69998 16.46 7.79998 16.02 7.79998 15.47C7.79998 14.8 7.65998 14.15 7.45998 13.48H5.37998V11.09Z" fill="#1652F0"/>
</svg>
