<svg width="12" height="12" viewBox="0 0 12 12" fill="none" xmlns="http://www.w3.org/2000/svg">
<path d="M2.15002 4.85997H2.95002C3.21002 2.96997 4.50002 1.58997 6.49002 1.58997C8.41002 1.58997 9.58002 2.61997 9.78002 4.51997H7.97002C7.85002 3.57997 7.32002 3.05997 6.48002 3.05997C5.52002 3.05997 4.99002 3.76997 4.84002 4.85997H7.07002L6.92002 5.64997H4.80002V6.39997H6.79002L6.65002 7.18997H4.84002C4.99002 8.27997 5.51002 8.89997 6.49002 8.89997C7.41002 8.89997 7.92002 8.35997 8.06002 7.28997H9.85002C9.62002 9.25997 8.47002 10.41 6.46002 10.41C4.41002 10.41 3.20002 9.06997 2.96002 7.17997H2.16002V6.39997H2.92002V5.64997H2.15002V4.85997Z" fill="#1652F0"/>
</svg>
