<svg xmlns="http://www.w3.org/2000/svg" fill="none" viewBox="0 0 240 240"><path fill="#1652F0" fill-opacity=".5" d="M202.21 121.09h-1.08v1.08h1.08v-1.08zM202.21 134.07h-1.08v1.08h1.08v-1.08zM202.21 147.05h-1.08v1.08h1.08v-1.08zM202.21 160.03h-1.08v1.08h1.08v-1.08zM189.23 108.12h-1.08v1.08h1.08v-1.08zM189.23 121.09h-1.08v1.08h1.08v-1.08zM189.23 134.07h-1.08v1.08h1.08v-1.08zM189.23 147.05h-1.08v1.08h1.08v-1.08zM189.23 160.03h-1.08v1.08h1.08v-1.08zM176.25 82.16h-1.08v1.08h1.08v-1.08zM176.25 95.14h-1.08v1.08h1.08v-1.08zM176.25 108.12h-1.08v1.08h1.08v-1.08zM176.25 121.09h-1.08v1.08h1.08v-1.08zM176.25 134.07h-1.08v1.08h1.08v-1.08zM176.25 147.05h-1.08v1.08h1.08v-1.08zM176.25 160.03h-1.08v1.08h1.08v-1.08zM163.27 82.16h-1.08v1.08h1.08v-1.08zM163.27 95.14h-1.08v1.08h1.08v-1.08zM163.27 108.12h-1.08v1.08h1.08v-1.08zM163.27 121.09h-1.08v1.08h1.08v-1.08zM163.27 134.07h-1.08v1.08h1.08v-1.08zM163.27 147.05h-1.08v1.08h1.08v-1.08zM163.27 160.03h-1.08v1.08h1.08v-1.08zM150.29 82.16h-1.08v1.08h1.08v-1.08zM150.29 95.14h-1.08v1.08h1.08v-1.08zM150.29 108.12h-1.08v1.08h1.08v-1.08zM150.29 121.09h-1.08v1.08h1.08v-1.08zM150.29 134.07h-1.08v1.08h1.08v-1.08zM150.29 147.05h-1.08v1.08h1.08v-1.08zM150.29 160.03h-1.08v1.08h1.08v-1.08zM137.32 82.16h-1.08v1.08h1.08v-1.08zM137.32 95.14h-1.08v1.08h1.08v-1.08zM137.32 108.12h-1.08v1.08h1.08v-1.08zM137.32 121.09h-1.08v1.08h1.08v-1.08zM137.32 134.07h-1.08v1.08h1.08v-1.08zM137.32 147.05h-1.08v1.08h1.08v-1.08zM137.32 160.03h-1.08v1.08h1.08v-1.08zM124.34 82.16h-1.08v1.08h1.08v-1.08zM124.34 95.14h-1.08v1.08h1.08v-1.08zM124.34 108.12h-1.08v1.08h1.08v-1.08zM124.34 121.09h-1.08v1.08h1.08v-1.08zM124.34 134.07h-1.08v1.08h1.08v-1.08zM124.34 147.05h-1.08v1.08h1.08v-1.08zM124.34 160.03h-1.08v1.08h1.08v-1.08zM111.36 82.16h-1.08v1.08h1.08v-1.08zM111.36 95.14h-1.08v1.08h1.08v-1.08zM111.36 108.12h-1.08v1.08h1.08v-1.08zM111.36 121.09h-1.08v1.08h1.08v-1.08zM111.36 134.07h-1.08v1.08h1.08v-1.08zM111.36 147.05h-1.08v1.08h1.08v-1.08zM111.36 160.03h-1.08v1.08h1.08v-1.08zM98.38 82.16H97.3v1.08h1.08v-1.08zM98.38 95.14H97.3v1.08h1.08v-1.08zM98.38 108.12H97.3v1.08h1.08v-1.08zM98.38 121.09H97.3v1.08h1.08v-1.08zM98.38 134.07H97.3v1.08h1.08v-1.08zM98.38 147.05H97.3v1.08h1.08v-1.08zM98.38 160.03H97.3v1.08h1.08v-1.08zM85.4 82.16h-1.08v1.08h1.08v-1.08zM85.4 95.14h-1.08v1.08h1.08v-1.08zM85.4 108.12h-1.08v1.08h1.08v-1.08zM85.4 121.09h-1.08v1.08h1.08v-1.08zM85.4 134.07h-1.08v1.08h1.08v-1.08zM85.4 147.05h-1.08v1.08h1.08v-1.08zM85.4 160.03h-1.08v1.08h1.08v-1.08zM72.42 82.16h-1.08v1.08h1.08v-1.08zM72.42 95.14h-1.08v1.08h1.08v-1.08zM72.42 108.12h-1.08v1.08h1.08v-1.08zM72.42 121.09h-1.08v1.08h1.08v-1.08zM72.42 134.07h-1.08v1.08h1.08v-1.08zM72.42 147.05h-1.08v1.08h1.08v-1.08zM72.42 160.03h-1.08v1.08h1.08v-1.08zM59.44 82.16h-1.08v1.08h1.08v-1.08zM59.44 95.14h-1.08v1.08h1.08v-1.08zM59.44 108.12h-1.08v1.08h1.08v-1.08zM59.44 121.09h-1.08v1.08h1.08v-1.08zM59.44 134.07h-1.08v1.08h1.08v-1.08zM59.44 147.05h-1.08v1.08h1.08v-1.08zM59.44 160.03h-1.08v1.08h1.08v-1.08zM46.46 82.16h-1.08v1.08h1.08v-1.08zM46.46 95.14h-1.08v1.08h1.08v-1.08zM46.46 108.12h-1.08v1.08h1.08v-1.08zM46.46 121.09h-1.08v1.08h1.08v-1.08zM46.46 134.07h-1.08v1.08h1.08v-1.08zM46.46 147.05h-1.08v1.08h1.08v-1.08zM46.46 160.03h-1.08v1.08h1.08v-1.08zM33.49 121.09H32.4v1.08h1.08v-1.08h.01zM33.49 134.07H32.4v1.08h1.08v-1.08h.01zM33.49 147.05H32.4v1.08h1.08v-1.08h.01zM33.49 160.03H32.4v1.08h1.08v-1.08h.01zM20.51 121.09h-1.08v1.08h1.08v-1.08zM20.51 134.07h-1.08v1.08h1.08v-1.08z"/><path fill="url(#a)" d="M162.37 47.51v169.37H70.08V47.51h92.29z"/><path fill="#99D6FF" d="M70.08 86.93h-2.96v111.41h2.96V86.93zM101.83 49.76h-2.96v111.41h2.96V49.76zM133.58 93.19h-2.96v85.02h2.96V93.19zM165.33 39.54h-2.96v111.41h2.96V39.54z"/><path fill="#3ACC8A" d="M80.99 108.41H56.21v72.85h24.78v-72.85z"/><path fill="url(#b)" d="M68.6 108.41H56.21v72.85H68.6v-72.85z"/><path fill="#3ACC8A" d="M112.74 76.14H87.96v63.59h24.78V76.14z"/><path fill="#F26767" d="M144.49 117.8h-24.78v39.01h24.78V117.8z"/><path fill="#3ACC8A" d="M176.24 66.88h-24.78v50.93h24.78V66.88z"/><path fill="url(#c)" d="M100.35 76.14H87.96v63.59h12.39V76.14z"/><path fill="url(#d)" d="M132.1 117.8h-12.39v39.01h12.39V117.8z"/><path fill="url(#e)" d="M163.85 79.43h-12.39v38.38h12.39V79.43z"/><defs><linearGradient id="a" x1="116.23" x2="116.23" y1="47.51" y2="217.27" gradientUnits="userSpaceOnUse"><stop stop-color="#D4EEFF" stop-opacity="0"/><stop offset=".28" stop-color="#D4EEFF"/><stop offset="1" stop-color="#D4EEFF" stop-opacity="0"/></linearGradient><linearGradient id="b" x1="62.41" x2="62.41" y1="108.41" y2="181.26" gradientUnits="userSpaceOnUse"><stop offset=".06" stop-color="#3ACC8A"/><stop offset=".2" stop-color="#3ECD8C"/><stop offset=".34" stop-color="#49D093"/><stop offset=".47" stop-color="#5CD59E"/><stop offset=".6" stop-color="#77DCAE"/><stop offset=".72" stop-color="#99E5C2"/><stop offset=".85" stop-color="#C3F0DB"/><stop offset=".97" stop-color="#F4FCF9"/><stop offset="1" stop-color="#fff"/></linearGradient><linearGradient id="c" x1="94.16" x2="94.16" y1="76.14" y2="139.72" gradientUnits="userSpaceOnUse"><stop offset=".06" stop-color="#3ACC8A"/><stop offset=".2" stop-color="#3ECD8C"/><stop offset=".34" stop-color="#49D093"/><stop offset=".47" stop-color="#5CD59E"/><stop offset=".6" stop-color="#77DCAE"/><stop offset=".72" stop-color="#99E5C2"/><stop offset=".85" stop-color="#C3F0DB"/><stop offset=".97" stop-color="#F4FCF9"/><stop offset="1" stop-color="#fff"/></linearGradient><linearGradient id="d" x1="125.91" x2="125.91" y1="117.81" y2="156.81" gradientUnits="userSpaceOnUse"><stop offset=".06" stop-color="#F46767"/><stop offset=".22" stop-color="#F46B6B"/><stop offset=".37" stop-color="#F57676"/><stop offset=".52" stop-color="#F68989"/><stop offset=".67" stop-color="#F8A4A4"/><stop offset=".81" stop-color="#FBC6C6"/><stop offset=".95" stop-color="#FEEFEF"/><stop offset="1" stop-color="#fff"/></linearGradient><linearGradient id="e" x1="157.66" x2="157.66" y1="79.43" y2="117.81" gradientUnits="userSpaceOnUse"><stop offset=".06" stop-color="#3ACC8A"/><stop offset=".2" stop-color="#3ECD8C"/><stop offset=".34" stop-color="#49D093"/><stop offset=".47" stop-color="#5CD59E"/><stop offset=".6" stop-color="#77DCAE"/><stop offset=".72" stop-color="#99E5C2"/><stop offset=".85" stop-color="#C3F0DB"/><stop offset=".97" stop-color="#F4FCF9"/><stop offset="1" stop-color="#fff"/></linearGradient></defs></svg>