<svg xmlns="http://www.w3.org/2000/svg" fill="none" viewBox="0 0 240 240"><path fill="url(#a)" d="M240 85H0v84h240V85z"/><path fill="#1652F0" d="M105 232v-1h-1v1h1zM81 220v-1h-1v1h1zM93 220v-1h-1v1h1zM105 220v-1h-1v1h1zM57 208v-1h-1v1h1zM69 208v-1h-1v1h1zM81 208v-1h-1v1h1zM93 208v-1h-1v1h1zM105 208v-1h-1v1h1zM45 196v-1h-1v1h1zM57 196v-1h-1v1h1zM69 196v-1h-1v1h1zM81 196v-1h-1v1h1zM93 196v-1h-1v1h1zM105 196v-1h-1v1h1zM45 184v-1h-1v1h1zM57 184v-1h-1v1h1zM69 184v-1h-1v1h1zM81 184v-1h-1v1h1zM93 184v-1h-1v1h1zM105 184v-1h-1v1h1zM45 172v-1h-1v1h1zM57 172v-1h-1v1h1zM69 172v-1h-1v1h1zM81 172v-1h-1v1h1zM93 172v-1h-1v1h1zM105 172v-1h-1v1h1zM45 160v-1h-1v1h1zM57 160v-1h-1v1h1zM69 160v-1h-1v1h1zM81 160v-1h-1v1h1zM93 160v-1h-1v1h1zM105 160v-1h-1v1h1zM45 148v-1h-1v1h1zM57 148v-1h-1v1h1zM69 148v-1h-1v1h1zM81 148v-1h-1v1h1zM93 148v-1h-1v1h1zM105 148v-1h-1v1h1zM45 136v-1h-1v1h1zM57 136v-1h-1v1h1zM69 136v-1h-1v1h1zM81 136v-1h-1v1h1zM93 136v-1h-1v1h1zM105 136v-1h-1v1h1zM45 124v-1h-1v1h1zM57 124v-1h-1v1h1zM69 124v-1h-1v1h1zM81 124v-1h-1v1h1zM93 124v-1h-1v1h1zM105 124v-1h-1v1h1zM45 112v-1h-1v1h1zM57 112v-1h-1v1h1zM69 112v-1h-1v1h1zM81 112v-1h-1v1h1zM93 112v-1h-1v1h1zM105 112v-1h-1v1h1zM45 100v-1h-1v1h1zM57 100v-1h-1v1h1zM69 100v-1h-1v1h1zM81 100v-1h-1v1h1zM93 100v-1h-1v1h1zM105 100v-1h-1v1h1zM45 88v-1h-1v1h1zM57 88v-1h-1v1h1zM69 88v-1h-1v1h1zM81 88v-1h-1v1h1zM93 88v-1h-1v1h1zM105 88v-1h-1v1h1zM45 76v-1h-1v1h1zM57 76v-1h-1v1h1zM69 76v-1h-1v1h1zM81 76v-1h-1v1h1zM93 76v-1h-1v1h1zM105 76v-1h-1v1h1zM45 64v-1h-1v1h1zM57 64v-1h-1v1h1zM69 64v-1h-1v1h1zM81 64v-1h-1v1h1zM93 64v-1h-1v1h1zM105 64v-1h-1v1h1zM45 52v-1h-1v1h1zM57 52v-1h-1v1h1zM69 52v-1h-1v1h1zM81 52v-1h-1v1h1zM93 52v-1h-1v1h1zM105 52v-1h-1v1h1zM45 40v-1h-1v1h1zM57 40v-1h-1v1h1zM69 40v-1h-1v1h1zM81 40v-1h-1v1h1zM93 40v-1h-1v1h1zM105 40v-1h-1v1h1zM57 28v-1h-1v1h1zM69 28v-1h-1v1h1zM81 28v-1h-1v1h1zM93 28v-1h-1v1h1zM105 28v-1h-1v1h1zM105 16v-1h-1v1h1zM105 4V3h-1v1h1zM93 16v-1h-1v1h1z" opacity=".5"/><path fill="#fff" stroke="url(#b)" d="M152.5 72v-.5h-101v85h101V72z"/><path fill="#fff" d="M184.71 223.19c1.93 0 1.93-3 0-3s-1.93 3 0 3z"/><path fill="#fff" stroke="url(#c)" d="M232 179.5H76a3.499 3.499 0 0 1-3.5-3.5V40c0-1.934 1.566-3.5 3.5-3.5h156c1.934 0 3.5 1.566 3.5 3.5v136c0 1.934-1.566 3.5-3.5 3.5z"/><path fill="url(#d)" d="M224 132h-88v-16h88v16zm0 8h-88v8h88v-8zm0-48h-88V76h88v16zm0 8h-88v8h88v-8zm0-44h-16v4h16v-4zm-24 0h-16v4h16v-4zm-24 0h-16v4h16v-4zm-24 0h-16v4h16v-4zm72 100h-16v4h16v-4zm-24 0h-16v4h16v-4zm-24 0h-16v4h16v-4z"/><path fill="#fff" d="M89.38 55.1C75.1 55.1 62.05 60.31 52 68.93v87.37c10.05 8.61 23.11 13.83 37.38 13.83 31.76 0 57.51-25.75 57.51-57.51 0-31.76-25.74-57.52-57.51-57.52z"/><path fill="#1652F0" d="M120 76H60v68h60V76z"/><path fill="#fff" d="M110 108c0-11.05-8.95-20-20-20s-20 8.95-20 20v20h30v-2.68c5.98-3.46 10-9.92 10-17.32z"/><path fill="#fff" d="m85.17 108 15.47-16.92A19.942 19.942 0 0 0 90 88c-11.05 0-20 8.95-20 20v17.84h30v-.52c.22-.13.42-.26.64-.4L85.17 108z"/><path fill="url(#e)" d="m85.17 108 15.47-16.92A19.942 19.942 0 0 0 90 88c-11.05 0-20 8.95-20 20v17.84h30v-.52c.22-.13.42-.26.64-.4L85.17 108z"/><path fill="#fff" d="m85.17 108 15.47-16.92c-.79-.5-1.63-.95-2.49-1.33L81.46 108l16.3 17.83H100v-.52c.22-.13.42-.26.64-.4L85.17 108z"/><path fill="#56B4FC" d="M110 108c0-7.4-4.02-13.86-10-17.32L84.17 108 100 125.32c5.98-3.46 10-9.92 10-17.32z"/><path fill="#fff" d="M100 125.5H70v2.5h30v-2.5z"/><path fill="url(#f)" d="m98.79 92-14.63 16 11.67 12.76v-6.1h5c.92 0 1.67-.75 1.67-1.67v-7.5h3.33L98.79 92z"/><path fill="#fff" d="M84.17 111.33a3.33 3.33 0 1 0 0-6.66 3.33 3.33 0 0 0 0 6.66z"/><path fill="#D4EEFF" d="M84.17 109.67a1.67 1.67 0 1 0 0-3.34 1.67 1.67 0 0 0 0 3.34z" opacity=".5"/><path fill="url(#g)" d="m94.72 119.55 5.28 5.77c5.98-3.46 10-9.92 10-17.32s-4.02-13.86-10-17.32l-5.33 5.83c3.66 2.39 6.1 6.66 6.1 11.54 0 4.85-2.42 9.1-6.05 11.5z" opacity=".5"/><path fill="url(#h)" d="M137.57 144H128v-28h18.79c-.6 10.3-3.91 19.86-9.22 28zM128 76v32h18.69a57.222 57.222 0 0 0-12.96-32H128z"/><path fill="#fff" d="m50.478 155.812-4.299-4.299-10.034 10.033 4.3 4.3 10.033-10.034z"/><circle cx="89" cy="113" r="54" fill="url(#i)" fill-opacity=".4"/><circle cx="89" cy="113" r="62" fill="url(#j)" fill-opacity=".3"/><path fill="#fff" d="M130.78 71.22c-22.96-22.96-60.2-22.96-83.16 0-22.96 22.96-22.96 60.2 0 83.16 22.96 22.96 60.2 22.96 83.16 0 22.96-22.96 22.96-60.19 0-83.16zm-78.86 78.86c-20.59-20.59-20.59-53.97 0-74.56 20.59-20.59 53.97-20.59 74.56 0 20.59 20.59 20.59 53.97 0 74.56-20.59 20.59-53.97 20.59-74.56 0z"/><path fill="#1652F0" d="m45.48 163.71-7.19-7.19a.996.996 0 0 0-1.41 0L4.29 189.1a.996.996 0 0 0 0 1.41l7.19 7.19c.39.39 1.02.39 1.41 0l32.58-32.58c.4-.38.4-1.02.01-1.41z"/><path stroke="url(#k)" d="M47.974 71.574c22.765-22.765 59.688-22.765 82.453 0 22.765 22.774 22.765 59.688 0 82.453-22.765 22.764-59.688 22.764-82.453 0-22.765-22.765-22.765-59.689 0-82.453z"/><path fill="#1652F0" d="M232 36H76c-2.21 0-4 1.79-4 4v8.08h164V40c0-2.21-1.79-4-4-4z"/><defs><linearGradient id="a" x1="240.33" x2="-1.74" y1="127" y2="127" gradientUnits="userSpaceOnUse"><stop stop-color="#D4EEFF" stop-opacity="0"/><stop offset=".31" stop-color="#D4EEFF"/><stop offset="1" stop-color="#D4EEFF" stop-opacity=".3"/></linearGradient><linearGradient id="b" x1="102" x2="102" y1="72" y2="156" gradientUnits="userSpaceOnUse"><stop stop-color="#D4EEFF"/><stop offset="1" stop-color="#99D6FF"/></linearGradient><linearGradient id="c" x1="154" x2="154" y1="36" y2="180" gradientUnits="userSpaceOnUse"><stop stop-color="#D4EEFF"/><stop offset="1" stop-color="#99D6FF"/></linearGradient><linearGradient id="d" x1="180" x2="180" y1="52.99" y2="180.47" gradientUnits="userSpaceOnUse"><stop stop-color="#D4EEFF"/><stop offset="1" stop-color="#fff"/></linearGradient><linearGradient id="e" x1="94.79" x2="72.4" y1="102.98" y2="125.38" gradientUnits="userSpaceOnUse"><stop stop-color="#D4EEFF" stop-opacity="0"/><stop offset=".31" stop-color="#D4EEFF"/><stop offset="1" stop-color="#D4EEFF" stop-opacity=".3"/></linearGradient><linearGradient id="f" x1="95" x2="95" y1="92" y2="120.76" gradientUnits="userSpaceOnUse"><stop/><stop offset="1" stop-opacity=".8"/></linearGradient><linearGradient id="g" x1="102.33" x2="102.33" y1="93.1" y2="133.7" gradientUnits="userSpaceOnUse"><stop stop-color="#fff"/><stop offset=".1" stop-color="#fff" stop-opacity=".9"/><stop offset="1" stop-color="#fff" stop-opacity="0"/></linearGradient><linearGradient id="h" x1="137.39" x2="137.39" y1="78.48" y2="150.77" gradientUnits="userSpaceOnUse"><stop stop-color="#D4EEFF"/><stop offset="1" stop-color="#fff"/></linearGradient><linearGradient id="k" x1="89.2" x2="89.2" y1="54" y2="171.6" gradientUnits="userSpaceOnUse"><stop stop-color="#D4EEFF"/><stop offset="1" stop-color="#99D6FF"/></linearGradient><radialGradient id="i" cx="0" cy="0" r="1" gradientTransform="matrix(0 54 -54 0 89 113)" gradientUnits="userSpaceOnUse"><stop offset=".91" stop-color="#fff" stop-opacity="0"/><stop offset="1" stop-color="#1652F0"/></radialGradient><radialGradient id="j" cx="0" cy="0" r="1" gradientTransform="matrix(0 62 -62 0 89 113)" gradientUnits="userSpaceOnUse"><stop offset=".82" stop-color="#fff" stop-opacity="0"/><stop offset=".91" stop-color="#1652F0"/><stop offset="1" stop-color="#fff" stop-opacity="0"/></radialGradient></defs></svg>