<svg xmlns="http://www.w3.org/2000/svg" fill="none" viewBox="0 0 240 241"><path fill="url(#a)" d="M62.7 89.8h141V26.1h-141v63.7z" opacity=".81"/><path fill="url(#b)" d="M107.2 89h52V0h-52v89z"/><path fill="url(#c)" d="m157.8 206.4 21.1 1.2 37.6-18.4c.8-.4.7-1.6-.2-1.9l-3.1-.8c-3.5-.9-7.2-.7-10.5.7l-44.9 19.2z"/><path fill="url(#d)" d="M153.3 210.5H171c2.9 0 5.7-1 7.9-2.9l41.2-34.8c.7-.6.2-1.8-.7-1.8l-8.6.5c-3.9.2-7.8 1.6-10.9 4l-46.6 35z"/><path fill="url(#e)" d="M153.3 210.5h10c3.8 0 7.4-1.8 9.7-4.8l35-45.5c.5-.7 0-1.7-.9-1.6l-5.8.4c-4.5.3-8.6 2.5-11.4 5.9l-36.6 45.6z"/><path fill="url(#f)" d="m159 186-33.8-10.2 20.6-1.6c8-.6 15.4-4.4 20.5-10.5l1.4-1.6c.6-.7.1-1.7-.8-1.7h-53.1c-18.5 0-36.4 6.3-50.8 17.9l-20.9 16.8h117.8l-.9-9.1z"/><path fill="url(#g)" d="m65.6 238.3 19.7-27.8h64.1c7.4 0 14.1-4 17.6-10.5l21.4-39.8c.4-.7-.2-1.6-1-1.5l-6.3.9c-3.1.4-6 2.1-7.9 4.6l-19.9 26.2L92 173.8c-16.3-4.4-33.7 1-44.6 14L5.2 238.3h60.4z"/><path fill="url(#h)" d="m65.6 238.3 19.7-27.8h64.1c7.4 0 14.1-4 17.6-10.5l21.4-39.8c.4-.7-.2-1.6-1-1.5l-6.3.9c-3.1.4-6 2.1-7.9 4.6l-19.9 26.2L92 173.8c-16.3-4.4-33.7 1-44.6 14L5.2 238.3h60.4z"/><path fill="#fff" stroke="url(#i)" d="M203.1 76.5v69.9H63.4V76.5h139.7z"/><path fill="#1652F0" d="M199.3 84.3v54.3c-2.1 0-3.9 1.7-3.9 3.9H71.2c0-2.1-1.7-3.9-3.9-3.9V84.3c2.1 0 3.9-1.7 3.9-3.9h124.2c0 2.2 1.7 3.9 3.9 3.9z"/><path fill="#fff" d="M82.8 112.4H110v-1.9H82.8v1.9zm3.9-6.8h19.4v-1.9H86.7v1.9zm0 13.6h19.4v-1.9H86.7v1.9zm97-8.7h-27.2v1.9h27.2v-1.9zm-3.8-6.8h-19.4v1.9h19.4v-1.9zm0 13.6h-19.4v1.9h19.4v-1.9zm-54.5-10.4c0 4.5 2.6 6.1 7.6 6.8 3.7.6 4.4 1.5 4.4 3.3 0 1.7-1.3 3-3.7 3-2.4 0-3.7-1-4.1-3.4H126c.3 3.6 2.3 5.7 5.6 6.4v4h3.6v-4c3.6-.5 5.9-3.1 5.9-6.4 0-4.3-2.4-5.9-7.5-6.6-3.4-.6-4.4-1.4-4.4-3.5s1.7-3.5 4-3.5c3.6 0 4.5 1.9 4.7 4.2h3.8c-.3-3.8-2.2-6.6-6.6-7.2v-4h-3.6v4c-3.7.6-6.1 3.4-6.1 6.9z"/><path fill="#FFD066" d="m63.6 120.1 1.8 8.3 8.3 1.8-8.3 1.8-1.8 8.3-1.8-8.3-8.3-1.8 8.3-1.8 1.8-8.3z"/><path fill="#fff" d="m120.5 51.3 1.8 8.3 8.3 1.8-8.3 1.8-1.8 8.3-1.8-8.3-8.3-1.8 8.3-1.8 1.8-8.3z"/><path fill="#1652F0" d="M75.9 57.2H75v.9h.9v-.9zm9.2 10.9h-.9v.9h.9v-.9zm-9.2.1H75v.9h.9v-.9zm-22 10.5H53v.9h.9v-.9zm0 11H53v.9h.9v-.9zm-11-11H42v.9h.9v-.9zm0 11H42v.9h.9v-.9zm22-32.5H64v.9h.9v-.9zm0 11H64v.9h.9v-.9zm-11-11H53v.9h.9v-.9zm0 11H53v.9h.9v-.9zm-11 0H42v.9h.9v-.9zm11.5 54.1h-.9v.9h.9v-.9zm-11 0h-.9v.9h.9v-.9zm11-21.4h-.9v.9h.9v-.9zm0 11h-.9v.9h.9v-.9zm-11-11h-.9v.9h.9v-.9zm0 11h-.9v.9h.9v-.9zM211 145v-.9h-.9v.9h.9zm-.1-9.2v-.9h-.9v.9h.9zm-11.5-22v-.9h-.9v.9h.9zm-11 0v-.9h-.9v.9h.9zm11-11v-.9h-.9v.9h.9zm-11 0v-.9h-.9v.9h.9zm22.5 22v-.9h-.9v.9h.9zm0-11v-.9h-.9v.9h.9zm0-11v-.9h-.9v.9h.9zm-55 11.5v-.9h-.9v.9h.9zm0-11.1v-.9h-.9v.9h.9zm21.3 11.1v-.9h-.9v.9h.9zm-11 0v-.9h-.9v.9h.9zm11-11.1v-.9h-.9v.9h.9zm-11 0v-.9h-.9v.9h.9z" opacity=".5"/><path fill="#FFD066" d="m182.8 84 1.4 6.4 6.4 1.4-6.4 1.4-1.4 6.4-1.4-6.4-6.4-1.4 6.4-1.4 1.4-6.4z"/><defs><linearGradient id="a" x1="133.17" x2="133.17" y1="21.34" y2="89.82" gradientUnits="userSpaceOnUse"><stop stop-color="#D4EEFF" stop-opacity="0"/><stop offset="1" stop-color="#D4EEFF"/></linearGradient><linearGradient id="b" x1="133.17" x2="133.17" y1="-6.59" y2="88.97" gradientUnits="userSpaceOnUse"><stop stop-color="#D4EEFF" stop-opacity="0"/><stop offset="1" stop-color="#D4EEFF"/></linearGradient><linearGradient id="c" x1="191.47" x2="225.86" y1="195.1" y2="173.35" gradientUnits="userSpaceOnUse"><stop stop-color="#fff"/><stop offset=".49" stop-color="#E8F6FF"/><stop offset="1" stop-color="#D4EEFF"/></linearGradient><linearGradient id="d" x1="184.51" x2="217.02" y1="193.58" y2="165.26" gradientUnits="userSpaceOnUse"><stop stop-color="#fff"/><stop offset=".49" stop-color="#E8F6FF"/><stop offset="1" stop-color="#D4EEFF"/></linearGradient><linearGradient id="e" x1="170.59" x2="212.36" y1="194.68" y2="158.88" gradientUnits="userSpaceOnUse"><stop stop-color="#fff"/><stop offset=".49" stop-color="#E8F6FF"/><stop offset="1" stop-color="#D4EEFF"/></linearGradient><linearGradient id="f" x1="103.06" x2="105.13" y1="154.39" y2="179.46" gradientUnits="userSpaceOnUse"><stop stop-color="#D4EEFF"/><stop offset="1" stop-color="#fff"/></linearGradient><linearGradient id="g" x1="96.84" x2="96.84" y1="239.98" y2="191.22" gradientUnits="userSpaceOnUse"><stop stop-color="#D4EEFF" stop-opacity="0"/><stop offset=".86" stop-color="#D4EEFF" stop-opacity=".86"/><stop offset="1" stop-color="#D4EEFF"/></linearGradient><linearGradient id="h" x1="136.82" x2="19.52" y1="191.29" y2="216.22" gradientUnits="userSpaceOnUse"><stop stop-color="#D4EEFF" stop-opacity="0"/><stop offset=".67" stop-color="#D4EEFF" stop-opacity=".86"/><stop offset=".77" stop-color="#D4EEFF"/></linearGradient><linearGradient id="i" x1="133.3" x2="133.3" y1="146.9" y2="76.04" gradientUnits="userSpaceOnUse"><stop stop-color="#D4EEFF"/><stop offset="1" stop-color="#99D6FF"/></linearGradient></defs></svg>