<svg xmlns="http://www.w3.org/2000/svg" fill="none" viewBox="0 0 48 48"><path fill="#F46767" d="M24 48c6.63 0 12-5.37 12-12s-5.37-12-12-12-12 5.37-12 12 5.37 12 12 12z"/><path fill="#BFE9FF" d="M46.5 30h-45C.675 30 0 29.325 0 28.5v-27C0 .675.675 0 1.5 0h45c.825 0 1.5.675 1.5 1.5v27c0 .825-.675 1.5-1.5 1.5z"/><path fill="#1652F0" d="M18 13.5H4.5V15H18v-1.5z"/><path fill="#fff" d="M10.5 18h-6v1.5h6V18zM18 18h-6v1.5h6V18zM25.5 18h-6v1.5h6V18zM33 18h-6v1.5h6V18z"/><path fill="#1652F0" d="M48 4.5H0v6h48v-6zM13.612 30h20.775c-2.1-3.6-5.925-6-10.35-6s-8.4 2.4-10.425 6z"/><path fill="#fff" d="m29.033 32.032-1.065-1.064L24 34.943l-3.967-3.975-1.065 1.064L22.943 36l-3.975 3.968 1.065 1.064L24 37.058l3.968 3.974 1.065-1.064L25.058 36l3.975-3.968z"/></svg>