<svg xmlns="http://www.w3.org/2000/svg" fill="none" viewBox="0 0 120 120"><g clip-path="url(#a)"><mask id="b" width="122" height="122" x="-1" y="-1" mask-type="alpha" maskUnits="userSpaceOnUse"><rect width="121" height="121" x="-.5" y="-.5" fill="#3A6FFA" stroke="#F1F3F5" rx="11.5"/></mask><g mask="url(#b)"><path fill="url(#c)" stroke="url(#d)" stroke-width=".5" d="M125.497 65.828h9.253v7.523H123.38l-.058.168c-5.591 15.951-20.626 27.231-38.164 27.231H50.305V73.351H39.25v-7.523h11.055V54.172H39.25V46.65h11.055V19.25h34.853c17.537 0 32.573 11.474 38.164 27.232l.059.167h11.369v7.72h-9.532l.03.276c.195 1.763.387 3.511.387 5.453 0 1.746-.193 3.69-.387 5.452l-.03.278h.279zM58.006 26.774h-.25v19.875h57.659l-.164-.355c-5.274-11.434-16.802-19.52-30.093-19.52H58.006zm-.25 66.006v.25h27.402c13.484 0 25.014-8.085 30.095-19.523l.156-.351H57.756V92.78zm59.789-27.148h.224l.025-.223v-.004c.194-1.76.389-3.532.389-5.699v-.013c0-1.752 0-3.732-.393-5.52l-.044-.196H57.95v11.655h59.595z"/><path fill="url(#e)" d="M52 95c19.33 0 35-15.67 35-35S71.33 25 52 25 17 40.67 17 60s15.67 35 35 35z"/></g><path fill="#FFC926" d="M52 92c17.673 0 32-14.327 32-32 0-17.673-14.327-32-32-32-17.673 0-32 14.327-32 32 0 17.673 14.327 32 32 32z"/><path fill="#fff" d="M72 54.982h-4.29C65.6 49.09 59.926 44.8 53.31 44.8H40.144v10.182H36v2.982h4.145v4.145H36v2.982h4.145v10.182H53.31c6.618 0 12.291-4.218 14.4-10.182H72v-2.982h-3.564c.073-.654.146-1.382.146-2.036 0-.727-.073-1.382-.146-2.037H72v-3.054zm-28.873-7.2H53.31c4.946 0 9.236 2.982 11.2 7.2H43.127v-7.2zM53.31 72.218H43.127v-7.2H64.51c-1.89 4.218-6.182 7.2-11.2 7.2zm12.145-10.182H43.2v-4.145h22.254c.146.654.146 1.382.146 2.036 0 .8-.073 1.455-.145 2.11z"/><path stroke="url(#f)" stroke-opacity=".5" stroke-width="1.5" d="M83.25 60c0 17.259-13.991 31.25-31.25 31.25S20.75 77.259 20.75 60 34.741 28.75 52 28.75 83.25 42.741 83.25 60z"/><path stroke="url(#g)" stroke-width=".5" d="M83.75 60c0 17.535-14.215 31.75-31.75 31.75S20.25 77.535 20.25 60 34.465 28.25 52 28.25 83.75 42.465 83.75 60z"/><path fill="#0052FF" d="m31 29-1.41 6.59L23 37l6.59 1.41L31 45l1.41-6.59L39 37l-6.59-1.41L31 29zM14 33a1 1 0 1 1 0-2 1 1 0 0 1 0 2z"/><path fill="#0052FF" fill-opacity=".5" d="M27 21a1 1 0 1 1 0-2 1 1 0 0 1 0 2z"/></g><defs><linearGradient id="c" x1="54.43" x2="139" y1="60" y2="60" gradientUnits="userSpaceOnUse"><stop stop-color="#0052FF" stop-opacity=".3"/><stop offset="1" stop-color="#fff" stop-opacity="0"/></linearGradient><linearGradient id="d" x1="45" x2="132.27" y1="59.46" y2="59.46" gradientUnits="userSpaceOnUse"><stop stop-color="#fff" stop-opacity=".7"/><stop offset="1" stop-color="#fff" stop-opacity="0"/></linearGradient><linearGradient id="e" x1="77" x2="27" y1="87" y2="37" gradientUnits="userSpaceOnUse"><stop stop-color="#0052FF" stop-opacity=".3"/><stop offset=".78" stop-color="#fff" stop-opacity="0"/></linearGradient><linearGradient id="f" x1="75.5" x2="29.5" y1="80.5" y2="36" gradientUnits="userSpaceOnUse"><stop stop-color="#fff" stop-opacity="0"/><stop offset="1" stop-color="#fff"/></linearGradient><linearGradient id="g" x1="28" x2="80" y1="35.5" y2="87.5" gradientUnits="userSpaceOnUse"><stop stop-color="#fff"/><stop offset="1" stop-color="#fff" stop-opacity="0"/></linearGradient><clipPath id="a"><path fill="#fff" d="M0 0h120v120H0z"/></clipPath></defs></svg>