<svg xmlns="http://www.w3.org/2000/svg" fill="none" viewBox="0 0 120 120"><path fill="#0A0B0D" d="M47 92c17.673 0 32-14.327 32-32 0-17.673-14.327-32-32-32-17.673 0-32 14.327-32 32 0 17.673 14.327 32 32 32z"/><path fill="url(#a)" d="M47 92c17.673 0 32-14.327 32-32 0-17.673-14.327-32-32-32-17.673 0-32 14.327-32 32 0 17.673 14.327 32 32 32z"/><path stroke="url(#b)" stroke-opacity=".5" stroke-width="1.5" d="M78.25 60c0 17.259-13.991 31.25-31.25 31.25S15.75 77.259 15.75 60 29.741 28.75 47 28.75 78.25 42.741 78.25 60z"/><path stroke="url(#c)" stroke-width=".5" d="M78.75 60c0 17.535-14.215 31.75-31.75 31.75S15.25 77.535 15.25 60 29.465 28.25 47 28.25 78.75 42.465 78.75 60z"/><path fill="#0052FF" d="m25 29-1.41 6.59L17 37l6.59 1.41L25 45l1.41-6.59L33 37l-6.59-1.41L25 29z"/><path fill="#fff" d="M8 33a1 1 0 1 1 0-2 1 1 0 0 1 0 2z"/><path fill="#fff" fill-opacity=".5" d="M21 21a1 1 0 1 1 0-2 1 1 0 0 1 0 2z"/><defs><linearGradient id="b" x1="70.5" x2="24.5" y1="80.5" y2="36" gradientUnits="userSpaceOnUse"><stop stop-color="#0A0B0D" stop-opacity="0"/><stop offset=".69" stop-color="#fff"/></linearGradient><linearGradient id="c" x1="23" x2="75" y1="35.5" y2="87.5" gradientUnits="userSpaceOnUse"><stop stop-color="#fff"/><stop offset="1" stop-color="#0A0B0D" stop-opacity="0"/></linearGradient><radialGradient id="a" cx="0" cy="0" r="1" gradientTransform="rotate(-137.291 46.455 25.934) scale(53.0754)" gradientUnits="userSpaceOnUse"><stop offset=".44" stop-color="#0A0B0D" stop-opacity="0"/><stop offset=".96" stop-color="#fff"/></radialGradient></defs></svg>