<svg xmlns="http://www.w3.org/2000/svg" fill="none" viewBox="0 0 240 240"><path fill="url(#a)" d="M142.6 23.1H89.9v84.2h52.7V23.1z"/><path fill="url(#b)" d="M127.8 23.1h-24.3v84.2h24.3V23.1z"/><path fill="#99D6FF" d="M177.9 159.4c14.6 0 26.4-11.8 26.4-26.4 0-14.6-11.8-26.4-26.4-26.4-14.6 0-26.4 11.8-26.4 26.4 0 14.6 11.8 26.4 26.4 26.4z"/><path fill="url(#c)" d="M187.3 108.4c-.9-.3-1.8-.6-2.8-.9l-32.1 32.1c.2 1 .5 1.9.9 2.8l34-34z"/><path fill="url(#d)" d="m188.7 109-34.9 34.9c2.4 5.4 6.6 9.8 11.8 12.5l35.6-35.6c-2.6-5.1-7.1-9.3-12.5-11.8z"/><path fill="url(#e)" d="m184.5 107.5-32.1 32.1 32.1-32.1z"/><path fill="url(#f)" d="m188.7 109-34.9 34.9c2.4 5.4 6.6 9.8 11.8 12.5l35.6-35.6c-2.6-5.1-7.1-9.3-12.5-11.8z"/><path fill="url(#g)" d="m184.5 107.5-32.1 32.1 32.1-32.1z"/><path fill="url(#h)" d="m188.7 109-34.9 34.9c2.4 5.4 6.6 9.8 11.8 12.5l35.6-35.6c-2.6-5.1-7.1-9.3-12.5-11.8z"/><path fill="url(#i)" d="M177.9 107.1c14.3 0 26 11.7 26 26s-11.7 26-26 26-26-11.7-26-26 11.7-26 26-26zm0-.4c-14.6 0-26.4 11.8-26.4 26.4 0 14.6 11.8 26.4 26.4 26.4 14.6 0 26.4-11.8 26.4-26.4 0-14.6-11.8-26.4-26.4-26.4z"/><path fill="#99D6FF" d="M56.1 159.4c14.6 0 26.4-11.8 26.4-26.4 0-14.6-11.8-26.4-26.4-26.4-14.6 0-26.4 11.8-26.4 26.4 0 14.6 11.8 26.4 26.4 26.4z"/><path fill="url(#j)" d="M65.4 108.4c-.9-.3-1.8-.6-2.8-.9l-32.1 32.1c.2 1 .5 1.9.9 2.8l34-34z"/><path fill="url(#k)" d="M66.9 109 32 143.9c2.4 5.4 6.6 9.8 11.8 12.5l35.6-35.6c-2.7-5.1-7.1-9.3-12.5-11.8z"/><path fill="url(#l)" d="m62.6 107.5-32.1 32.1 32.1-32.1z"/><path fill="url(#m)" d="M66.9 109 32 143.9c2.4 5.4 6.6 9.8 11.8 12.5l35.6-35.6c-2.7-5.1-7.1-9.3-12.5-11.8z"/><path fill="url(#n)" d="m62.6 107.5-32.1 32.1 32.1-32.1z"/><path fill="url(#o)" d="M66.9 109 32 143.9c2.4 5.4 6.6 9.8 11.8 12.5l35.6-35.6c-2.7-5.1-7.1-9.3-12.5-11.8z"/><path fill="url(#p)" d="M56.1 107.1c14.3 0 26 11.7 26 26s-11.7 26-26 26-26-11.7-26-26 11.6-26 26-26zm0-.4c-14.6 0-26.4 11.8-26.4 26.4 0 14.6 11.8 26.4 26.4 26.4 14.6 0 26.4-11.8 26.4-26.4 0-14.6-11.9-26.4-26.4-26.4z"/><path fill="#99D6FF" d="M56.1 216.2c14.6 0 26.4-11.8 26.4-26.4 0-14.6-11.8-26.4-26.4-26.4-14.6 0-26.4 11.8-26.4 26.4 0 14.6 11.8 26.4 26.4 26.4z"/><path fill="url(#q)" d="M65.4 165.2c-.9-.3-1.8-.6-2.8-.9l-32.1 32.1c.2 1 .5 1.9.9 2.8l34-34z"/><path fill="url(#r)" d="M66.9 165.8 32 200.7c2.4 5.4 6.6 9.8 11.8 12.5l35.6-35.6c-2.7-5.2-7.1-9.4-12.5-11.8z"/><path fill="url(#s)" d="m62.6 164.3-32.1 32.1 32.1-32.1z"/><path fill="url(#t)" d="M66.9 165.8 32 200.7c2.4 5.4 6.6 9.8 11.8 12.5l35.6-35.6c-2.7-5.2-7.1-9.4-12.5-11.8z"/><path fill="url(#u)" d="m62.6 164.3-32.1 32.1 32.1-32.1z"/><path fill="url(#v)" d="M66.9 165.8 32 200.7c2.4 5.4 6.6 9.8 11.8 12.5l35.6-35.6c-2.7-5.2-7.1-9.4-12.5-11.8z"/><path fill="url(#w)" d="m62.6 164.3-32.1 32.1 32.1-32.1z"/><path fill="url(#x)" d="M66.9 165.8 32 200.7c2.4 5.4 6.6 9.8 11.8 12.5l35.6-35.6c-2.7-5.2-7.1-9.4-12.5-11.8z"/><path fill="url(#y)" d="M56.1 163.8c14.3 0 26 11.7 26 26s-11.7 26-26 26-26-11.7-26-26 11.6-26 26-26zm0-.3c-14.6 0-26.4 11.8-26.4 26.4 0 14.6 11.8 26.4 26.4 26.4 14.6 0 26.4-11.8 26.4-26.4-.1-14.6-11.9-26.4-26.4-26.4z"/><path fill="#99D6FF" d="M116.2 216.2c14.6 0 26.4-11.8 26.4-26.4 0-14.6-11.8-26.4-26.4-26.4-14.6 0-26.4 11.8-26.4 26.4 0 14.6 11.8 26.4 26.4 26.4z"/><path fill="url(#z)" d="M125.6 165.2c-.9-.3-1.8-.6-2.8-.9l-32.1 32.1c.2 1 .5 1.9.9 2.8l34-34z"/><path fill="url(#A)" d="m127 165.8-34.9 34.9c2.4 5.4 6.6 9.8 11.8 12.5l35.6-35.6c-2.7-5.2-7.1-9.4-12.5-11.8z"/><path fill="url(#B)" d="m122.8 164.3-32.1 32.1 32.1-32.1z"/><path fill="url(#C)" d="m127 165.8-34.9 34.9c2.4 5.4 6.6 9.8 11.8 12.5l35.6-35.6c-2.7-5.2-7.1-9.4-12.5-11.8z"/><path fill="url(#D)" d="m122.8 164.3-32.1 32.1 32.1-32.1z"/><path fill="url(#E)" d="m127 165.8-34.9 34.9c2.4 5.4 6.6 9.8 11.8 12.5l35.6-35.6c-2.7-5.2-7.1-9.4-12.5-11.8z"/><path fill="url(#F)" d="M116.2 163.8c14.3 0 26 11.7 26 26s-11.7 26-26 26-26-11.7-26-26 11.7-26 26-26zm0-.3c-14.6 0-26.4 11.8-26.4 26.4 0 14.6 11.8 26.4 26.4 26.4 14.6 0 26.4-11.8 26.4-26.4 0-14.6-11.8-26.4-26.4-26.4z"/><path fill="#99D6FF" d="M177.1 216.2c14.6 0 26.4-11.8 26.4-26.4 0-14.6-11.8-26.4-26.4-26.4-14.6 0-26.4 11.8-26.4 26.4 0 14.6 11.8 26.4 26.4 26.4z"/><path fill="url(#G)" d="M186.4 165.2c-.9-.3-1.8-.6-2.8-.9l-32.1 32.1c.2 1 .5 1.9.9 2.8l34-34z"/><path fill="url(#H)" d="M187.9 165.8 153 200.7c2.4 5.4 6.6 9.8 11.8 12.5l35.6-35.6c-2.7-5.2-7.1-9.4-12.5-11.8z"/><path fill="url(#I)" d="m183.6 164.3-32.1 32.1 32.1-32.1z"/><path fill="url(#J)" d="M187.9 165.8 153 200.7c2.4 5.4 6.6 9.8 11.8 12.5l35.6-35.6c-2.7-5.2-7.1-9.4-12.5-11.8z"/><path fill="url(#K)" d="m183.6 164.3-32.1 32.1 32.1-32.1z"/><path fill="url(#L)" d="M187.9 165.8 153 200.7c2.4 5.4 6.6 9.8 11.8 12.5l35.6-35.6c-2.7-5.2-7.1-9.4-12.5-11.8z"/><path fill="url(#M)" d="M177.1 163.8c14.3 0 26 11.7 26 26s-11.7 26-26 26-26-11.7-26-26 11.6-26 26-26zm0-.3c-14.6 0-26.4 11.8-26.4 26.4 0 14.6 11.8 26.4 26.4 26.4 14.6 0 26.4-11.8 26.4-26.4-.1-14.6-11.9-26.4-26.4-26.4z"/><path fill="#FFD066" d="M116.3 131.9c14.6 0 26.4-11.8 26.4-26.4 0-14.6-11.8-26.4-26.4-26.4-14.6 0-26.4 11.8-26.4 26.4 0 14.6 11.8 26.4 26.4 26.4z"/><path fill="#1652F0" fill-opacity=".5" d="M92.9 150.4h1v-1h-1v1zm0-12.7h1v-1h-1v1zm11.5 12.7h1v-1h-1v1zm0-12.7h1v-1h-1v1zm11.6 12.7h1v-1h-1v1zm0-12.7h1v-1h-1v1zm11.5 12.7h1v-1h-1v1zm0-12.7h1v-1h-1v1zm11.5 12.7h1v-1h-1v1zm-46.1 6.4h1v-1h-1v1zm11.5 0h1v-1h-1v1zm11.6 0h1v-1h-1v1zm11.5 0h1v-1h-1v1zm11.5 0h1v-1h-1v1zm0-19.1h1v-1h-1v1zm-46.1 6.4h1v-1h-1v1zm11.5 0h1v-1h-1v1zm11.6 0h1v-1h-1v1zm11.5 0h1v-1h-1v1zm11.5 0h1v-1h-1v1z"/><path fill="url(#N)" d="M125.6 81c-.9-.3-1.8-.6-2.8-.9l-32.1 32.1c.2 1 .5 1.9.9 2.8l34-34z"/><path fill="url(#O)" d="m127 81.6-34.9 34.9c2.4 5.4 6.6 9.8 11.8 12.5l35.6-35.6c-2.7-5.2-7.1-9.4-12.5-11.8z"/><path stroke="#fff" stroke-miterlimit="10" stroke-width="3.24" d="M115.9 90v26.9m8.6-6.2-8.6 8.7-8.7-8.7"/><path fill="#1652F0" d="M140.2 155.5H92.8v2.9h47.4v-2.9z"/><defs><linearGradient id="a" x1="116.26" x2="116.26" y1="105.86" y2="23.45" gradientUnits="userSpaceOnUse"><stop stop-color="#D4EEFF" stop-opacity="0"/><stop offset=".08" stop-color="#D4EEFF" stop-opacity=".15"/><stop offset=".52" stop-color="#D4EEFF"/><stop offset=".93" stop-color="#D4EEFF" stop-opacity=".15"/><stop offset="1" stop-color="#D4EEFF" stop-opacity="0"/></linearGradient><linearGradient id="b" x1="115.65" x2="115.65" y1="105.86" y2="23.45" gradientUnits="userSpaceOnUse"><stop stop-color="#fff" stop-opacity="0"/><stop offset="1" stop-color="#fff"/></linearGradient><linearGradient id="c" x1="169.81" x2="169.81" y1="142.44" y2="107.53" gradientUnits="userSpaceOnUse"><stop stop-color="#fff" stop-opacity="0"/><stop offset="1" stop-color="#99D6FF" stop-opacity=".3"/></linearGradient><linearGradient id="d" x1="177.57" x2="177.57" y1="156.45" y2="109.05" gradientUnits="userSpaceOnUse"><stop stop-color="#fff" stop-opacity="0"/><stop offset="1" stop-color="#99D6FF" stop-opacity=".3"/></linearGradient><linearGradient id="e" x1="168.41" x2="168.41" y1="139.64" y2="107.53" gradientUnits="userSpaceOnUse"><stop stop-color="#fff" stop-opacity="0"/><stop offset="1" stop-color="#99D6FF" stop-opacity=".3"/></linearGradient><linearGradient id="f" x1="177.57" x2="177.57" y1="156.45" y2="109.05" gradientUnits="userSpaceOnUse"><stop stop-color="#fff" stop-opacity="0"/><stop offset="1" stop-color="#99D6FF" stop-opacity=".3"/></linearGradient><linearGradient id="g" x1="168.41" x2="168.41" y1="139.64" y2="107.53" gradientUnits="userSpaceOnUse"><stop stop-color="#fff" stop-opacity="0"/><stop offset="1" stop-color="#99D6FF" stop-opacity=".3"/></linearGradient><linearGradient id="h" x1="177.57" x2="177.57" y1="156.45" y2="109.05" gradientUnits="userSpaceOnUse"><stop stop-color="#fff" stop-opacity="0"/><stop offset="1" stop-color="#99D6FF" stop-opacity=".3"/></linearGradient><linearGradient id="i" x1="177.9" x2="177.9" y1="159.44" y2="106.71" gradientUnits="userSpaceOnUse"><stop stop-color="#fff" stop-opacity="0"/><stop offset="1" stop-color="#99D6FF" stop-opacity=".3"/></linearGradient><linearGradient id="j" x1="47.98" x2="47.98" y1="142.44" y2="107.53" gradientUnits="userSpaceOnUse"><stop stop-color="#fff" stop-opacity="0"/><stop offset="1" stop-color="#99D6FF" stop-opacity=".3"/></linearGradient><linearGradient id="k" x1="55.74" x2="55.74" y1="156.45" y2="109.05" gradientUnits="userSpaceOnUse"><stop stop-color="#fff" stop-opacity="0"/><stop offset="1" stop-color="#99D6FF" stop-opacity=".3"/></linearGradient><linearGradient id="l" x1="46.58" x2="46.58" y1="139.64" y2="107.53" gradientUnits="userSpaceOnUse"><stop stop-color="#fff" stop-opacity="0"/><stop offset="1" stop-color="#99D6FF" stop-opacity=".3"/></linearGradient><linearGradient id="m" x1="55.74" x2="55.74" y1="156.45" y2="109.05" gradientUnits="userSpaceOnUse"><stop stop-color="#fff" stop-opacity="0"/><stop offset="1" stop-color="#99D6FF" stop-opacity=".3"/></linearGradient><linearGradient id="n" x1="46.58" x2="46.58" y1="139.64" y2="107.53" gradientUnits="userSpaceOnUse"><stop stop-color="#fff" stop-opacity="0"/><stop offset="1" stop-color="#99D6FF" stop-opacity=".3"/></linearGradient><linearGradient id="o" x1="55.74" x2="55.74" y1="156.45" y2="109.05" gradientUnits="userSpaceOnUse"><stop stop-color="#fff" stop-opacity="0"/><stop offset="1" stop-color="#99D6FF" stop-opacity=".3"/></linearGradient><linearGradient id="p" x1="56.07" x2="56.07" y1="159.44" y2="106.71" gradientUnits="userSpaceOnUse"><stop stop-color="#fff" stop-opacity="0"/><stop offset="1" stop-color="#99D6FF" stop-opacity=".3"/></linearGradient><linearGradient id="q" x1="47.98" x2="47.98" y1="199.19" y2="164.29" gradientUnits="userSpaceOnUse"><stop stop-color="#fff" stop-opacity="0"/><stop offset="1" stop-color="#99D6FF" stop-opacity=".3"/></linearGradient><linearGradient id="r" x1="55.74" x2="55.74" y1="213.21" y2="165.81" gradientUnits="userSpaceOnUse"><stop stop-color="#fff" stop-opacity="0"/><stop offset="1" stop-color="#99D6FF" stop-opacity=".3"/></linearGradient><linearGradient id="s" x1="46.58" x2="46.58" y1="196.39" y2="164.29" gradientUnits="userSpaceOnUse"><stop stop-color="#fff" stop-opacity="0"/><stop offset="1" stop-color="#99D6FF" stop-opacity=".3"/></linearGradient><linearGradient id="t" x1="55.74" x2="55.74" y1="213.21" y2="165.81" gradientUnits="userSpaceOnUse"><stop stop-color="#fff" stop-opacity="0"/><stop offset="1" stop-color="#99D6FF" stop-opacity=".3"/></linearGradient><linearGradient id="u" x1="46.58" x2="46.58" y1="196.39" y2="164.29" gradientUnits="userSpaceOnUse"><stop stop-color="#fff" stop-opacity="0"/><stop offset="1" stop-color="#99D6FF" stop-opacity=".3"/></linearGradient><linearGradient id="v" x1="55.74" x2="55.74" y1="213.21" y2="165.81" gradientUnits="userSpaceOnUse"><stop stop-color="#fff" stop-opacity="0"/><stop offset="1" stop-color="#99D6FF" stop-opacity=".3"/></linearGradient><linearGradient id="w" x1="46.58" x2="46.58" y1="196.39" y2="164.29" gradientUnits="userSpaceOnUse"><stop stop-color="#fff" stop-opacity="0"/><stop offset="1" stop-color="#99D6FF" stop-opacity=".3"/></linearGradient><linearGradient id="x" x1="55.74" x2="55.74" y1="213.21" y2="165.81" gradientUnits="userSpaceOnUse"><stop stop-color="#fff" stop-opacity="0"/><stop offset="1" stop-color="#99D6FF" stop-opacity=".3"/></linearGradient><linearGradient id="y" x1="56.07" x2="56.07" y1="216.2" y2="163.47" gradientUnits="userSpaceOnUse"><stop stop-color="#fff" stop-opacity="0"/><stop offset="1" stop-color="#99D6FF" stop-opacity=".3"/></linearGradient><linearGradient id="z" x1="108.11" x2="108.11" y1="199.19" y2="164.29" gradientUnits="userSpaceOnUse"><stop stop-color="#fff" stop-opacity="0"/><stop offset="1" stop-color="#99D6FF" stop-opacity=".3"/></linearGradient><linearGradient id="A" x1="115.87" x2="115.87" y1="213.21" y2="165.81" gradientUnits="userSpaceOnUse"><stop stop-color="#fff" stop-opacity="0"/><stop offset="1" stop-color="#99D6FF" stop-opacity=".3"/></linearGradient><linearGradient id="B" x1="106.71" x2="106.71" y1="196.39" y2="164.29" gradientUnits="userSpaceOnUse"><stop stop-color="#fff" stop-opacity="0"/><stop offset="1" stop-color="#99D6FF" stop-opacity=".3"/></linearGradient><linearGradient id="C" x1="115.87" x2="115.87" y1="213.21" y2="165.81" gradientUnits="userSpaceOnUse"><stop stop-color="#fff" stop-opacity="0"/><stop offset="1" stop-color="#99D6FF" stop-opacity=".3"/></linearGradient><linearGradient id="D" x1="106.71" x2="106.71" y1="196.39" y2="164.29" gradientUnits="userSpaceOnUse"><stop stop-color="#fff" stop-opacity="0"/><stop offset="1" stop-color="#99D6FF" stop-opacity=".3"/></linearGradient><linearGradient id="E" x1="115.87" x2="115.87" y1="213.21" y2="165.81" gradientUnits="userSpaceOnUse"><stop stop-color="#fff" stop-opacity="0"/><stop offset="1" stop-color="#99D6FF" stop-opacity=".3"/></linearGradient><linearGradient id="F" x1="116.2" x2="116.2" y1="216.2" y2="163.47" gradientUnits="userSpaceOnUse"><stop stop-color="#fff" stop-opacity="0"/><stop offset="1" stop-color="#99D6FF" stop-opacity=".3"/></linearGradient><linearGradient id="G" x1="168.96" x2="168.96" y1="199.19" y2="164.29" gradientUnits="userSpaceOnUse"><stop stop-color="#fff" stop-opacity="0"/><stop offset="1" stop-color="#99D6FF" stop-opacity=".3"/></linearGradient><linearGradient id="H" x1="176.73" x2="176.73" y1="213.21" y2="165.81" gradientUnits="userSpaceOnUse"><stop stop-color="#fff" stop-opacity="0"/><stop offset="1" stop-color="#99D6FF" stop-opacity=".3"/></linearGradient><linearGradient id="I" x1="167.56" x2="167.56" y1="196.39" y2="164.29" gradientUnits="userSpaceOnUse"><stop stop-color="#fff" stop-opacity="0"/><stop offset="1" stop-color="#99D6FF" stop-opacity=".3"/></linearGradient><linearGradient id="J" x1="176.73" x2="176.73" y1="213.21" y2="165.81" gradientUnits="userSpaceOnUse"><stop stop-color="#fff" stop-opacity="0"/><stop offset="1" stop-color="#99D6FF" stop-opacity=".3"/></linearGradient><linearGradient id="K" x1="167.56" x2="167.56" y1="196.39" y2="164.29" gradientUnits="userSpaceOnUse"><stop stop-color="#fff" stop-opacity="0"/><stop offset="1" stop-color="#99D6FF" stop-opacity=".3"/></linearGradient><linearGradient id="L" x1="176.73" x2="176.73" y1="213.21" y2="165.81" gradientUnits="userSpaceOnUse"><stop stop-color="#fff" stop-opacity="0"/><stop offset="1" stop-color="#99D6FF" stop-opacity=".3"/></linearGradient><linearGradient id="M" x1="177.06" x2="177.06" y1="216.2" y2="163.47" gradientUnits="userSpaceOnUse"><stop stop-color="#fff" stop-opacity="0"/><stop offset="1" stop-color="#99D6FF" stop-opacity=".3"/></linearGradient><linearGradient id="N" x1="108.11" x2="108.11" y1="114.97" y2="80.07" gradientUnits="userSpaceOnUse"><stop stop-color="#fff" stop-opacity="0"/><stop offset="1" stop-color="#fff" stop-opacity=".3"/></linearGradient><linearGradient id="O" x1="115.87" x2="115.87" y1="128.99" y2="81.58" gradientUnits="userSpaceOnUse"><stop stop-color="#fff" stop-opacity="0"/><stop offset="1" stop-color="#fff" stop-opacity=".3"/></linearGradient></defs></svg>