<svg xmlns="http://www.w3.org/2000/svg" fill="none" viewBox="0 0 240 240"><path fill="url(#a)" d="M240 64H22v68h218V64z"/><path fill="#1652F0" d="M184 136h-1v1h1v-1zM172 124h-1v1h1v-1zM172 136h-1v1h1v-1zM172 148h-1v1h1v-1zM160 88h-1v1h1v-1zM160 100h-1v1h1v-1zM160 112h-1v1h1v-1zM172 112h-1v1h1v-1zM160 124h-1v1h1v-1zM160 136h-1v1h1v-1zM160 148h-1v1h1v-1zM160 160h-1v1h1v-1zM148 88h-1v1h1v-1zM148 100h-1v1h1v-1zM148 112h-1v1h1v-1zM148 124h-1v1h1v-1zM148 136h-1v1h1v-1zM148 148h-1v1h1v-1zM148 160h-1v1h1v-1zM148 172h-1v1h1v-1zM136 88h-1v1h1v-1zM136 100h-1v1h1v-1zM136 112h-1v1h1v-1zM136 124h-1v1h1v-1zM136 136h-1v1h1v-1zM136 148h-1v1h1v-1zM136 160h-1v1h1v-1zM136 172h-1v1h1v-1zM124 88h-1v1h1v-1zM124 100h-1v1h1v-1zM124 112h-1v1h1v-1zM124 124h-1v1h1v-1zM124 136h-1v1h1v-1zM124 148h-1v1h1v-1zM124 160h-1v1h1v-1zM124 172h-1v1h1v-1zM112 88h-1v1h1v-1zM112 100h-1v1h1v-1zM112 112h-1v1h1v-1zM112 124h-1v1h1v-1zM112 136h-1v1h1v-1zM112 148h-1v1h1v-1zM112 160h-1v1h1v-1zM112 172h-1v1h1v-1zM100 88h-1v1h1v-1zM100 100h-1v1h1v-1zM100 112h-1v1h1v-1zM100 124h-1v1h1v-1zM100 136h-1v1h1v-1zM100 148h-1v1h1v-1zM100 160h-1v1h1v-1zM100 172h-1v1h1v-1zM88 88h-1v1h1v-1zM88 100h-1v1h1v-1zM88 112h-1v1h1v-1zM88 124h-1v1h1v-1zM88 136h-1v1h1v-1zM88 148h-1v1h1v-1zM88 160h-1v1h1v-1zM88 172h-1v1h1v-1zM76 88h-1v1h1v-1zM76 100h-1v1h1v-1zM76 112h-1v1h1v-1zM76 124h-1v1h1v-1zM76 136h-1v1h1v-1zM76 148h-1v1h1v-1zM76 160h-1v1h1v-1zM76 172h-1v1h1v-1zM64 88h-1v1h1v-1zM64 100h-1v1h1v-1zM64 112h-1v1h1v-1zM64 124h-1v1h1v-1zM64 136h-1v1h1v-1zM64 148h-1v1h1v-1zM64 160h-1v1h1v-1zM64 172h-1v1h1v-1zM52 88h-1v1h1v-1zM52 100h-1v1h1v-1zM52 112h-1v1h1v-1zM52 124h-1v1h1v-1zM52 136h-1v1h1v-1zM52 148h-1v1h1v-1zM52 160h-1v1h1v-1zM52 172h-1v1h1v-1zM40 88h-1v1h1v-1zM40 100h-1v1h1v-1zM40 112h-1v1h1v-1zM40 124h-1v1h1v-1zM40 136h-1v1h1v-1zM40 148h-1v1h1v-1zM40 160h-1v1h1v-1zM40 172h-1v1h1v-1zM28 88h-1v1h1v-1zM28 100h-1v1h1v-1zM28 112h-1v1h1v-1zM28 124h-1v1h1v-1zM28 136h-1v1h1v-1zM28 148h-1v1h1v-1zM28 160h-1v1h1v-1zM28 172h-1v1h1v-1zM16 100h-1v1h1v-1zM16 112h-1v1h1v-1zM16 124h-1v1h1v-1zM16 136h-1v1h1v-1zM16 148h-1v1h1v-1zM16 160h-1v1h1v-1zM16 172h-1v1h1v-1zM4 112H3v1h1v-1zM4 136H3v1h1v-1zM4 148H3v1h1v-1zM4 160H3v1h1v-1z" opacity=".5"/><path fill="#fff" stroke="url(#b)" d="M194.5 120c0 41.145-33.355 74.5-74.5 74.5S45.5 161.145 45.5 120 78.855 45.5 120 45.5s74.5 33.355 74.5 74.5z"/><path fill="url(#c)" d="M120 46c40.8 0 74 33.2 74 74s-33.2 74-74 74-74-33.2-74-74 33.2-74 74-74zm0-1c-41.42 0-75 33.58-75 75s33.58 75 75 75 75-33.58 75-75-33.58-75-75-75z"/><path fill="#D4EEFF" d="M120 184.5c-35.57 0-64.5-28.93-64.5-64.5S84.43 55.5 120 55.5s64.5 28.93 64.5 64.5-28.93 64.5-64.5 64.5zm0-125c-33.36 0-60.5 27.14-60.5 60.5s27.14 60.5 60.5 60.5 60.5-27.14 60.5-60.5-27.14-60.5-60.5-60.5z"/><path fill="#D4EEFF" d="M120 184.5c-35.57 0-64.5-28.93-64.5-64.5S84.43 55.5 120 55.5s64.5 28.93 64.5 64.5-28.93 64.5-64.5 64.5zm0-125c-33.36 0-60.5 27.14-60.5 60.5s27.14 60.5 60.5 60.5 60.5-27.14 60.5-60.5-27.14-60.5-60.5-60.5z"/><path fill="url(#d)" d="M120 184.5v-4c33.36 0 60.5-27.14 60.5-60.5S153.36 59.5 120 59.5v-4c35.57 0 64.5 28.93 64.5 64.5s-28.93 64.5-64.5 64.5z"/><path fill="#1652F0" d="m134.73 109.27-16.97 16.97-8.49-8.48-4.24 4.24 12.73 12.73 21.21-21.22-4.24-4.24zM120 184.5c-35.57 0-64.5-28.93-64.5-64.5 0-1.1.9-2 2-2s2 .9 2 2c0 33.36 27.14 60.5 60.5 60.5 1.1 0 2 .9 2 2s-.9 2-2 2z"/><path fill="#fff" stroke="url(#e)" d="M64.5 117.5a7 7 0 1 1-14 0 7 7 0 0 1 14 0z"/><path fill="url(#f)" d="M57.5 122.36a4.86 4.86 0 1 0 0-9.72 4.86 4.86 0 0 0 0 9.72z"/><defs><linearGradient id="a" x1="240" x2="21.5" y1="98" y2="98" gradientUnits="userSpaceOnUse"><stop stop-color="#D4EEFF" stop-opacity="0"/><stop offset=".28" stop-color="#D4EEFF"/><stop offset="1" stop-color="#D4EEFF" stop-opacity=".3"/></linearGradient><linearGradient id="b" x1="120" x2="120" y1="45" y2="195" gradientUnits="userSpaceOnUse"><stop stop-color="#BFE9FF"/><stop offset="1" stop-color="#D4EEFF"/></linearGradient><linearGradient id="c" x1="120" x2="120" y1="195" y2="45" gradientUnits="userSpaceOnUse"><stop stop-color="#fff" stop-opacity="0"/><stop offset="1" stop-color="#99D6FF" stop-opacity=".3"/></linearGradient><linearGradient id="d" x1="152.25" x2="152.25" y1="184.5" y2="55.5" gradientUnits="userSpaceOnUse"><stop stop-color="#fff"/><stop offset="1" stop-color="#fff" stop-opacity="0"/></linearGradient><linearGradient id="e" x1="57.5" x2="57.5" y1="110" y2="125" gradientUnits="userSpaceOnUse"><stop stop-color="#D4EEFF"/><stop offset="1" stop-color="#99D6FF"/></linearGradient><radialGradient id="f" cx="0" cy="0" r="1" gradientTransform="translate(58.522 118.441) scale(6.4877)" gradientUnits="userSpaceOnUse"><stop stop-color="#fff" stop-opacity="0"/><stop offset=".39" stop-color="#FDFEFF" stop-opacity=".23"/><stop offset=".53" stop-color="#F6FBFF" stop-opacity=".32"/><stop offset=".64" stop-color="#EAF6FF" stop-opacity=".39"/><stop offset=".73" stop-color="#D9EEFE" stop-opacity=".44"/><stop offset=".8" stop-color="#C3E4FE" stop-opacity=".48"/><stop offset=".87" stop-color="#A7D8FD" stop-opacity=".52"/><stop offset=".93" stop-color="#86C9FD" stop-opacity=".56"/><stop offset=".99" stop-color="#61B9FC" stop-opacity=".59"/><stop offset="1" stop-color="#56B4FC" stop-opacity=".6"/></radialGradient></defs></svg>