<svg xmlns="http://www.w3.org/2000/svg" fill="none" viewBox="0 0 240 240"><path fill="#1652F0" d="M229 159h-1v1h1v-1zM217 147h-1v1h1v-1zM217 159h-1v1h1v-1zM217 171h-1v1h1v-1zM205 111h-1v1h1v-1zM205 123h-1v1h1v-1zM205 135h-1v1h1v-1zM217 135h-1v1h1v-1zM205 147h-1v1h1v-1zM205 159h-1v1h1v-1zM205 171h-1v1h1v-1zM205 183h-1v1h1v-1zM193 111h-1v1h1v-1zM193 123h-1v1h1v-1zM193 135h-1v1h1v-1zM193 147h-1v1h1v-1zM193 159h-1v1h1v-1zM193 171h-1v1h1v-1zM193 183h-1v1h1v-1zM193 195h-1v1h1v-1zM181 111h-1v1h1v-1zM181 123h-1v1h1v-1zM181 135h-1v1h1v-1zM181 147h-1v1h1v-1zM181 159h-1v1h1v-1zM181 171h-1v1h1v-1zM181 183h-1v1h1v-1zM181 195h-1v1h1v-1zM169 111h-1v1h1v-1zM169 123h-1v1h1v-1zM169 135h-1v1h1v-1zM169 147h-1v1h1v-1zM169 159h-1v1h1v-1zM169 171h-1v1h1v-1zM169 183h-1v1h1v-1zM169 195h-1v1h1v-1zM157 111h-1v1h1v-1zM157 123h-1v1h1v-1zM157 135h-1v1h1v-1zM157 147h-1v1h1v-1zM157 159h-1v1h1v-1zM157 171h-1v1h1v-1zM157 183h-1v1h1v-1zM157 195h-1v1h1v-1zM145 111h-1v1h1v-1zM145 123h-1v1h1v-1zM145 135h-1v1h1v-1zM145 147h-1v1h1v-1zM145 159h-1v1h1v-1zM145 171h-1v1h1v-1zM145 183h-1v1h1v-1zM145 195h-1v1h1v-1zM133 111h-1v1h1v-1zM133 123h-1v1h1v-1zM133 135h-1v1h1v-1zM133 147h-1v1h1v-1zM133 159h-1v1h1v-1zM133 171h-1v1h1v-1zM133 183h-1v1h1v-1zM133 195h-1v1h1v-1zM85 111h-1v1h1v-1zM85 123h-1v1h1v-1zM85 135h-1v1h1v-1zM85 147h-1v1h1v-1zM85 159h-1v1h1v-1zM85 171h-1v1h1v-1zM85 183h-1v1h1v-1zM85 195h-1v1h1v-1zM73 111h-1v1h1v-1zM73 123h-1v1h1v-1zM73 135h-1v1h1v-1zM73 147h-1v1h1v-1zM73 159h-1v1h1v-1zM73 171h-1v1h1v-1zM73 183h-1v1h1v-1zM73 195h-1v1h1v-1zM61 111h-1v1h1v-1zM61 123h-1v1h1v-1zM61 135h-1v1h1v-1zM61 147h-1v1h1v-1zM61 159h-1v1h1v-1zM61 171h-1v1h1v-1zM61 183h-1v1h1v-1zM61 195h-1v1h1v-1zM49 111h-1v1h1v-1zM49 123h-1v1h1v-1zM49 135h-1v1h1v-1zM49 147h-1v1h1v-1zM49 159h-1v1h1v-1zM49 171h-1v1h1v-1zM49 183h-1v1h1v-1zM49 195h-1v1h1v-1zM37 111h-1v1h1v-1zM37 123h-1v1h1v-1zM37 135h-1v1h1v-1zM37 147h-1v1h1v-1zM37 159h-1v1h1v-1zM37 171h-1v1h1v-1zM37 183h-1v1h1v-1zM37 195h-1v1h1v-1zM25 111h-1v1h1v-1zM25 123h-1v1h1v-1zM25 135h-1v1h1v-1zM25 147h-1v1h1v-1zM25 159h-1v1h1v-1zM25 171h-1v1h1v-1zM25 183h-1v1h1v-1zM25 195h-1v1h1v-1zM13 123h-1v1h1v-1zM13 135h-1v1h1v-1zM13 159h-1v1h1v-1zM13 171h-1v1h1v-1zM13 183h-1v1h1v-1zM1 171H0v1h1v-1z" opacity=".5"/><path fill="url(#a)" d="M30.19 85.97V240h179.62V85.97H30.19z"/><path fill="#fff" stroke="url(#b)" d="M173.58 215.69v.002a3.648 3.648 0 0 1-3.65 3.658H70.07a3.657 3.657 0 0 1-3.66-3.66V24.31a3.657 3.657 0 0 1 3.66-3.66h99.85a3.657 3.657 0 0 1 3.66 3.66v191.38z"/><path fill="#1652F0" d="M174.08 32.63H65.91v174.74h108.17V32.63z"/><path fill="url(#c)" d="M174.08 164.29H65.91v17.65h108.17v-17.65z"/><path fill="#D4EEFF" d="M133.52 215.69h-27.04c-1.15 0-2.08-.93-2.08-2.08s.93-2.08 2.08-2.08h27.04c1.15 0 2.08.93 2.08 2.08s-.93 2.08-2.08 2.08zM120 29.01a2.2 2.2 0 1 0 0-4.4 2.2 2.2 0 0 0 0 4.4z"/><path fill="#fff" d="M72.15 38.87h-2.08v2.08h2.08v-2.08zM75.27 37.83h-2.08v3.12h2.08v-3.12zM78.39 36.79h-2.08v4.16h2.08v-4.16zM169.93 37.05h-6.24v3.64h6.24v-3.64zM163.16 39.91v-2.08c-.29 0-.52.23-.52.52v1.04c0 .29.24.52.52.52z"/><path fill="url(#d)" d="M174.08 40.95h-37.44v166.42h37.44V40.95z"/><path fill="#fff" stroke="url(#e)" d="M30.69 57.82h178.62v102.653l-178.62-9.447V57.82z"/><path fill="url(#f)" stroke="url(#g)" d="m119.686 130 .314.252.313-.252 88.997-71.636V165.54H30.69V58.364L119.686 130z"/><path fill="#fff" d="M207.32 86.24c15.58 0 28.21-12.63 28.21-28.21s-12.63-28.21-28.21-28.21-28.21 12.63-28.21 28.21 12.63 28.21 28.21 28.21z" opacity=".2"/><path fill="#fff" d="M207.32 74.49c9.091 0 16.46-7.37 16.46-16.46s-7.369-16.46-16.46-16.46c-9.09 0-16.46 7.37-16.46 16.46s7.37 16.46 16.46 16.46z"/><path fill="#3ACC8A" d="M207.32 67.43a9.4 9.4 0 0 0 9.4-9.4 9.4 9.4 0 1 0-9.4 9.4z"/><path fill="#3ACC8A" d="M207.32 72.21c-7.82 0-14.18-6.36-14.18-14.18 0-7.82 6.36-14.18 14.18-14.18 7.82 0 14.18 6.36 14.18 14.18 0 7.82-6.36 14.18-14.18 14.18zm0-21.23c-3.89 0-7.05 3.16-7.05 7.05 0 3.89 3.16 7.05 7.05 7.05 3.89 0 7.05-3.16 7.05-7.05 0-3.89-3.16-7.05-7.05-7.05z"/><path fill="url(#h)" d="M207.32 68.81c5.954 0 10.78-4.826 10.78-10.78s-4.826-10.78-10.78-10.78-10.78 4.826-10.78 10.78 4.826 10.78 10.78 10.78z"/><defs><linearGradient id="a" x1="120" x2="120" y1="85.97" y2="240.35" gradientUnits="userSpaceOnUse"><stop stop-color="#D4EEFF"/><stop offset="1" stop-color="#D4EEFF" stop-opacity="0"/></linearGradient><linearGradient id="b" x1="120" x2="120" y1="20.15" y2="219.85" gradientUnits="userSpaceOnUse"><stop stop-color="#BFE9FF"/><stop offset="1" stop-color="#D4EEFF"/></linearGradient><linearGradient id="c" x1="120" x2="120" y1="180.83" y2="166.69" gradientUnits="userSpaceOnUse"><stop stop-color="#1652F0" stop-opacity="0"/><stop offset="1" stop-color="#1652F0" stop-opacity=".3"/></linearGradient><linearGradient id="d" x1="138.06" x2="172.51" y1="124.16" y2="124.16" gradientUnits="userSpaceOnUse"><stop stop-color="#1652F0" stop-opacity="0"/><stop offset="1" stop-color="#1652F0"/></linearGradient><linearGradient id="e" x1="120" x2="120" y1="57.32" y2="161" gradientUnits="userSpaceOnUse"><stop stop-color="#BFE9FF"/><stop offset="1" stop-color="#D4EEFF"/></linearGradient><linearGradient id="f" x1="120" x2="120" y1="142.44" y2="57.38" gradientUnits="userSpaceOnUse"><stop offset=".43" stop-color="#fff"/><stop offset="1" stop-color="#E9F6FF"/></linearGradient><linearGradient id="g" x1="120" x2="120" y1="57.32" y2="166.04" gradientUnits="userSpaceOnUse"><stop stop-color="#BFE9FF"/><stop offset="1" stop-color="#D4EEFF"/></linearGradient><radialGradient id="h" cx="0" cy="0" r="1" gradientTransform="rotate(-131.348 119.151 -16.83) scale(16.6508)" gradientUnits="userSpaceOnUse"><stop offset=".48" stop-color="#fff" stop-opacity="0"/><stop offset="1" stop-color="#fff"/></radialGradient></defs></svg>