<svg xmlns="http://www.w3.org/2000/svg" fill="none" viewBox="0 0 240 240"><path fill="url(#a)" d="M208.04 178.45H40.99v-63.13h167.05v63.13z"/><path fill="url(#b)" d="m153.5 139.98-33.82-66.54-17.23 29.38a5.885 5.885 0 0 1-5.35 2.91 5.91 5.91 0 0 1-5.08-3.37L78.51 73.82H41.22v-11.8h41.03c2.28 0 4.36 1.32 5.34 3.38l10.33 21.83 17.04-29.06a5.908 5.908 0 0 1 5.27-2.91c2.16.06 4.11 1.3 5.08 3.23l38.71 76.17-10.52 5.32z"/><path fill="#405FAB" d="M196.26 145.86h-4.15v-2.49h4.15v2.49zm-11.61 0h-4.15v-2.49h4.15v2.49zm-11.6 0h-4.15v-2.49h4.15v2.49zm-11.61 0h-4.15v-2.49h4.15v2.49zm-11.61 0h-4.15v-2.49h4.15v2.49zm-11.61 0h-4.15v-2.49h4.15v2.49zm-11.61 0h-4.15v-2.49h4.15v2.49zm-11.6 0h-4.15v-2.49h4.15v2.49zm-11.61 0h-4.15v-2.49h4.15v2.49zm-11.61 0h-4.15v-2.49h4.15v2.49zm-11.61 0h-4.15v-2.49h4.15v2.49zm-11.61 0h-4.15v-2.49h4.15v2.49zm-11.6 0h-4.15v-2.49h4.15v2.49zm-11.61 0h-4.15v-2.49h4.15v2.49z"/><path fill="#fff" d="M162.84 158.47c7.671 0 13.89-6.219 13.89-13.89s-6.219-13.89-13.89-13.89-13.89 6.219-13.89 13.89 6.219 13.89 13.89 13.89z"/><path d="M148.48 130.32h28.56v28.56h-28.56z"/><path fill="#52BC86" d="M162.841 152.72a8.14 8.14 0 1 0 0-16.28 8.14 8.14 0 0 0 0 16.28z"/><path fill="url(#c)" d="M162.84 151.3a6.68 6.68 0 0 0 6.68-6.68 6.68 6.68 0 0 0-6.68-6.68 6.68 6.68 0 0 0-6.68 6.68c-.01 3.69 2.99 6.68 6.68 6.68z"/><path fill="#1652F0" fill-opacity=".5" d="M126.26 154.02h-.98v.98h.98v-.98zM126.26 165.75h-.98v.97h.98v-.97zM114.53 154.02h-.98v.98h.98v-.98zM114.53 165.75h-.98v.97h.98v-.97zM102.81 154.02h-.98v.98h.98v-.98zM102.81 165.75h-.98v.97h.98v-.97zM126.26 178.45h-.98v.97h.98v-.97zM114.53 178.45h-.98v.97h.98v-.97zM126.26 189.68h-.98v.97h.98v-.97zM114.53 189.68h-.98v.97h.98v-.97zM102.81 178.45h-.98v.97h.98v-.97zM91.09 154.02h-.98v.98h.98v-.98zM91.09 165.75h-.98v.97h.98v-.97zM79.37 154.02h-.98v.98h.98v-.98zM79.37 165.75h-.98v.97h.98v-.97zM67.64 154.02h-.98v.98h.98v-.98zM67.64 165.75h-.98v.97h.98v-.97zM55.92 154.02h-.98v.98h.98v-.98zM55.92 165.75h-.98v.97h.98v-.97zM44.2 154.02h-.98v.98h.98v-.98zM44.2 165.75h-.98v.97h.98v-.97zM160.45 99.35h.98v-.97h-.98v.97zM160.45 87.62h.98v-.97h-.98v.97zM160.45 75.91h.98v-.98h-.98v.98zM160.45 64.18h.98v-.97h-.98v.97zM172.17 99.35h.98v-.97h-.98v.97zM172.17 87.62h.98v-.97h-.98v.97zM172.17 75.91h.98v-.98h-.98v.98zM172.17 64.18h.98v-.97h-.98v.97zM183.89 99.35h.98v-.97h-.98v.97zM183.89 87.62h.98v-.97h-.98v.97zM183.89 75.91h.98v-.98h-.98v.98zM183.89 64.18h.98v-.97h-.98v.97zM230.78 64.18h.98v-.97h-.98v.97z"/><defs><linearGradient id="a" x1="208.04" x2="40.61" y1="146.88" y2="146.88" gradientUnits="userSpaceOnUse"><stop stop-color="#fff" stop-opacity="0"/><stop offset=".08" stop-color="#ECF8FF" stop-opacity=".16"/><stop offset=".17" stop-color="#DFF2FF" stop-opacity=".35"/><stop offset=".29" stop-color="#D6EFFF" stop-opacity=".58"/><stop offset=".5" stop-color="#D4EEFF"/><stop offset=".71" stop-color="#D6EFFF" stop-opacity=".58"/><stop offset=".83" stop-color="#DEF2FF" stop-opacity=".34"/><stop offset=".92" stop-color="#ECF8FF" stop-opacity=".16"/><stop offset="1" stop-color="#fff" stop-opacity="0"/></linearGradient><linearGradient id="b" x1="41.22" x2="164.02" y1="97.61" y2="97.61" gradientUnits="userSpaceOnUse"><stop stop-color="#56B4FC"/><stop offset=".94" stop-color="#9FD4F3"/></linearGradient><radialGradient id="c" cx="0" cy="0" r="1" gradientTransform="rotate(-131.634 116.848 36.92) scale(15.0875)" gradientUnits="userSpaceOnUse"><stop stop-color="#fff" stop-opacity="0"/><stop offset=".6" stop-color="#fff" stop-opacity=".13"/><stop offset="1" stop-color="#fff"/></radialGradient></defs></svg>