<svg xmlns="http://www.w3.org/2000/svg" fill="none" viewBox="0 0 48 48"><path fill="#56B4FC" d="M37.5 13.5 24 0 10.5 13.5h6v15h15v-15h6z"/><path fill="#BFE9FF" d="M48 25.5H0V48h48V25.5z"/><path fill="#1652F0" d="M16.5 48h15V25.5h-15V48z"/><path fill="#fff" d="M27.375 38.535c0-1.755-1.065-2.34-3.127-2.625-1.523-.217-1.815-.577-1.815-1.29 0-.675.517-1.155 1.507-1.155 1.005 0 1.53.39 1.695 1.313h1.493c-.143-1.395-.945-2.22-2.295-2.46V30.75h-1.5v1.538c-1.485.21-2.445 1.2-2.445 2.467 0 1.642.99 2.28 3.09 2.565 1.425.233 1.83.54 1.83 1.35s-.69 1.35-1.658 1.35c-1.485 0-1.837-.735-1.95-1.62h-1.567c.105 1.455.9 2.55 2.707 2.79v1.56h1.5v-1.56c1.545-.247 2.535-1.328 2.535-2.655zM42.75 32.25h-6v1.5h6v-1.5zM42.75 39.75h-6v1.5h6v-1.5zM45 36H34.5v1.5H45V36zM5.25 33.75h6v-1.5h-6v1.5zM5.25 41.25h6v-1.5h-6v1.5zM3 37.5h10.5V36H3v1.5z"/></svg>