<svg xmlns="http://www.w3.org/2000/svg" fill="none" viewBox="0 0 240 120"><path fill="url(#a)" d="M95 22.61H0v52h95v-52z"/><path fill="url(#b)" d="M65 53H0v21.61h65V53z"/><path fill="#1652F0" d="M70 20h-1v1h1v-1zm0 12h-1v1h1v-1zm0 12h-1v1h1v-1zm0 12h-1v1h1v-1zm0 12h-1v1h1v-1zM58 20h-1v1h1v-1zm0 12h-1v1h1v-1zm0 12h-1v1h1v-1zm0 12h-1v1h1v-1zm0 12h-1v1h1v-1zM46 20h-1v1h1v-1zm0 12h-1v1h1v-1zm0 12h-1v1h1v-1zm0 12h-1v1h1v-1zm0 12h-1v1h1v-1zM34 20h-1v1h1v-1zm0 12h-1v1h1v-1zm0 12h-1v1h1v-1zm0 12h-1v1h1v-1zm0 12h-1v1h1v-1zM22 32h-1v1h1v-1zm0 12h-1v1h1v-1zm0 12h-1v1h1v-1zM10 32H9v1h1v-1zm0 12H9v1h1v-1zm169 42h1v-1h-1v1zm0-12h1v-1h-1v1zm0-12h1v-1h-1v1zm0-12h1v-1h-1v1zm12 36h1v-1h-1v1zm0-12h1v-1h-1v1zm0-12h1v-1h-1v1zm0-12h1v-1h-1v1zm12 36h1v-1h-1v1zm0-12h1v-1h-1v1zm0-12h1v-1h-1v1zm0-12h1v-1h-1v1zm12 36h1v-1h-1v1zm0-12h1v-1h-1v1zm0-12h1v-1h-1v1zm12 12h1v-1h-1v1zm0-12h1v-1h-1v1zm12 12h1v-1h-1v1z" opacity=".5"/><path fill="#fff" d="M120 11.4c-44.18 0-80 36.19-80 80.84h160c0-44.65-35.82-80.84-80-80.84z"/><path fill="url(#c)" d="M173.97 37.54C160.14 23.61 141.07 15 120 15c-42.21 0-76.43 34.58-76.43 77.23H120l42.92-43.52 11.05-11.17z"/><path fill="url(#d)" d="M167.67 43.91C155.46 31.61 138.61 24 120 24c-37.29 0-67.53 30.55-67.53 68.23H120l42.92-43.52 4.75-4.8z"/><path stroke="url(#e)" d="M199.498 91.74H40.502C40.767 47.59 76.266 11.9 120 11.9s79.232 35.691 79.498 79.84z"/><path fill="#1652F0" d="m164.6 48.73-.65-.68-.68-.65-47.95 39.69 4.83 4.76 4.76 4.83 39.69-47.95z"/><path fill="url(#f)" d="m163.27 47.4.68.65-43.8 43.8-4.83-4.76 47.95-39.69z"/><path fill="#fff" stroke="url(#g)" d="M133.72 92.23c0 7.665-6.148 13.87-13.72 13.87-7.572 0-13.72-6.205-13.72-13.87 0-7.665 6.148-13.87 13.72-13.87 7.572 0 13.72 6.205 13.72 13.87z"/><path fill="url(#h)" d="M130.16 92.22c.03 5.61-4.5 10.14-10.11 10.11-5.61-.03-10.19-4.6-10.22-10.22-.03-5.61 4.5-10.14 10.11-10.11 5.62.03 10.19 4.6 10.22 10.22z"/><defs><linearGradient id="a" x1="0" x2="95.22" y1="48.61" y2="48.61" gradientUnits="userSpaceOnUse"><stop stop-color="#D4EEFF" stop-opacity="0"/><stop offset="1" stop-color="#99D6FF" stop-opacity=".5"/></linearGradient><linearGradient id="b" x1="0" x2="65.15" y1="63.8" y2="63.8" gradientUnits="userSpaceOnUse"><stop stop-color="#D4EEFF" stop-opacity="0"/><stop offset="1" stop-color="#99D6FF" stop-opacity=".5"/></linearGradient><linearGradient id="c" x1="43.57" x2="173.97" y1="53.62" y2="53.62" gradientUnits="userSpaceOnUse"><stop stop-color="#fff"/><stop offset="1" stop-color="#F46767"/></linearGradient><linearGradient id="d" x1="85.27" x2="135.81" y1="78.96" y2="28.43" gradientUnits="userSpaceOnUse"><stop stop-color="#fff"/><stop offset=".54" stop-color="#C8E7FE"/></linearGradient><linearGradient id="e" x1="120" x2="120" y1="11.4" y2="92.24" gradientUnits="userSpaceOnUse"><stop stop-color="#D4EEFF" stop-opacity=".4"/><stop offset="1" stop-color="#D6EFFF"/></linearGradient><linearGradient id="f" x1="121.15" x2="151.88" y1="86.06" y2="55.32" gradientUnits="userSpaceOnUse"><stop offset=".06" stop-color="#1652F0"/><stop offset="1" stop-color="#56B4FC"/></linearGradient><linearGradient id="g" x1="120" x2="120" y1="77.86" y2="106.6" gradientUnits="userSpaceOnUse"><stop stop-color="#D4EEFF" stop-opacity=".4"/><stop offset="1" stop-color="#D6EFFF"/></linearGradient><linearGradient id="h" x1="120" x2="120" y1="82" y2="102.33" gradientUnits="userSpaceOnUse"><stop stop-color="#fff" stop-opacity="0"/><stop offset="1" stop-color="#1652F0" stop-opacity=".3"/></linearGradient></defs></svg>