<svg xmlns="http://www.w3.org/2000/svg" fill="none" viewBox="0 0 240 240"><path fill="#fff" stroke="url(#a)" d="M24.5 172V68c0-1.924 1.576-3.5 3.5-3.5h184c1.924 0 3.5 1.576 3.5 3.5v104c0 1.924-1.576 3.5-3.5 3.5H28a3.512 3.512 0 0 1-3.5-3.5z"/><path fill="#1652F0" d="M216 68c0-2.2-1.8-4-4-4H28c-2.2 0-4 1.8-4 4v12h192V68zM88 92H40v52h48V92z"/><path fill="#fff" d="M80 116c0-8.84-7.16-16-16-16s-16 7.16-16 16v16h24v-2.14c4.78-2.78 8-7.94 8-13.86z"/><path fill="#fff" d="m60.14 116 12.38-13.54c-2.48-1.54-5.4-2.46-8.52-2.46-8.84 0-16 7.16-16 16v14.28h24v-.42c.18-.1.34-.22.5-.32L60.14 116z"/><path fill="url(#b)" d="m60.14 116 12.38-13.54c-2.48-1.54-5.4-2.46-8.52-2.46-8.84 0-16 7.16-16 16v14.28h24v-.42c.18-.1.34-.22.5-.32L60.14 116z"/><path fill="#fff" d="m60.14 116 12.38-13.54c-.64-.4-1.3-.76-2-1.06L57.16 116l13.04 14.26H72v-.42c.18-.1.34-.22.5-.32L60.14 116z"/><path fill="#56B4FC" d="M80 116c0-5.92-3.22-11.08-8-13.86L59.34 116 72 129.86c4.78-2.78 8-7.94 8-13.86z"/><path fill="#fff" d="M72 130H48v2h24v-2z"/><path fill="url(#c)" d="M71.04 103.2 59.34 116l9.34 10.2v-4.88h4c.74 0 1.34-.6 1.34-1.34v-6h2.66l-5.64-10.78z"/><path fill="#fff" d="M59.34 118.66a2.66 2.66 0 1 0 0-5.32 2.66 2.66 0 0 0 0 5.32z"/><path fill="#D4EEFF" d="M59.34 117.34a1.34 1.34 0 1 0 0-2.68 1.34 1.34 0 0 0 0 2.68z" opacity=".5"/><path fill="url(#d)" d="m67.78 125.24 4.22 4.62c4.78-2.76 8-7.94 8-13.86 0-5.92-3.22-11.08-8-13.86l-4.26 4.66c2.92 1.9 4.88 5.32 4.88 9.22 0 3.9-1.94 7.3-4.84 9.22z" opacity=".5"/><path fill="url(#e)" d="M200 112H96V96h104v16zm-44 8H96v4h60v-4zm44 0h-36v4h36v-4zm-64 8H96v4h40v-4zm64 0h-56v4h56v-4zm-40 8H96v4h64v-4zm40 0h-32v4h32v-4zm0 24H40v-8h160v8z"/><defs><linearGradient id="a" x1="120" x2="120" y1="64" y2="176" gradientUnits="userSpaceOnUse"><stop stop-color="#BFE9FF"/><stop offset="1" stop-color="#D4EEFF"/></linearGradient><linearGradient id="b" x1="67.83" x2="49.92" y1="111.99" y2="129.9" gradientUnits="userSpaceOnUse"><stop stop-color="#D4EEFF" stop-opacity="0"/><stop offset=".31" stop-color="#D4EEFF"/><stop offset="1" stop-color="#D4EEFF" stop-opacity=".3"/></linearGradient><linearGradient id="c" x1="68" x2="68" y1="103.2" y2="126.21" gradientUnits="userSpaceOnUse"><stop/><stop offset="1" stop-opacity=".8"/></linearGradient><linearGradient id="d" x1="73.87" x2="73.87" y1="104.08" y2="136.56" gradientUnits="userSpaceOnUse"><stop stop-color="#fff"/><stop offset=".1" stop-color="#fff" stop-opacity=".9"/><stop offset="1" stop-color="#fff" stop-opacity="0"/></linearGradient><linearGradient id="e" x1="120" x2="120" y1="96.61" y2="175.06" gradientUnits="userSpaceOnUse"><stop stop-color="#D4EEFF"/><stop offset="1" stop-color="#fff"/></linearGradient></defs></svg>