<svg xmlns="http://www.w3.org/2000/svg" fill="none" viewBox="0 0 48 48"><path fill="#BFE9FF" d="M43.494 17.96H4.513v17.992h38.981V17.96z"/><path fill="#56B4FC" d="M45.001 41.95v-3h-5.997V15.007l8.974.03.007-3.074-23.951-8.996L.007 11.963 0 14.887l9.018.03V38.95H3.021v3H.022v2.998H48v-2.999h-2.999zm-11.994-3H27.01V14.97l5.997.022V38.95zM15.016 14.932l5.997.022V38.95h-5.998V14.932z"/><path fill="#1652F0" d="M39.005 17.96H9.018v17.992h29.986V17.96z"/><path fill="#fff" d="M27.295 28.74c0-1.754-1.065-2.339-3.126-2.623-1.522-.218-1.814-.578-1.814-1.29 0-.675.517-1.154 1.507-1.154 1.004 0 1.529.39 1.694 1.312h1.492c-.143-1.395-.945-2.22-2.294-2.46V20.96h-1.5v1.537c-1.484.21-2.444 1.2-2.444 2.466 0 1.642.99 2.279 3.09 2.564 1.423.232 1.828.54 1.828 1.35 0 .809-.69 1.349-1.657 1.349-1.484 0-1.836-.735-1.949-1.62h-1.566c.105 1.455.9 2.55 2.706 2.79v1.558h1.5v-1.559c1.543-.247 2.533-1.327 2.533-2.654z"/></svg>