<svg xmlns="http://www.w3.org/2000/svg" fill="none" viewBox="0 0 48 48"><path fill="#56B4FC" d="M1.5 4h45c.825 0 1.5.675 1.5 1.5v33c0 .825-.675 1.5-1.5 1.5h-45C.675 40 0 39.325 0 38.5v-33C0 4.675.675 4 1.5 4z"/><path fill="#BFE9FF" d="M1.5 4h45c.825 0 1.5.675 1.5 1.5V7H0V5.5C0 4.675.675 4 1.5 4z"/><path fill="#1652F0" d="M42 7H6v33h36V7z"/><path fill="#BFE9FF" d="M42 40H6v6h36v-6z"/><path fill="#fff" d="M24 33.25c5.4 0 9.75-4.35 9.75-9.75S29.4 13.75 24 13.75a9.73 9.73 0 0 0-9.75 9.75c0 5.4 4.35 9.75 9.75 9.75zm-8.175-9h3c.075 2.775.825 5.175 1.875 6.75-2.7-1.2-4.65-3.75-4.875-6.75zm8.925 7.275V24.25h3c-.15 3.825-1.575 6.6-3 7.275zm0-8.775v-7.275c1.425.75 2.85 3.525 3 7.275h-3zm-1.5-7.275v7.275h-3c.15-3.825 1.575-6.6 3-7.275zm0 8.775v7.275c-1.425-.75-2.85-3.525-3-7.275h3zM27.375 31c1.05-1.65 1.725-4.05 1.875-6.75h3c-.3 3-2.25 5.55-4.875 6.75zm4.8-8.25h-3C29.1 19.975 28.35 17.575 27.3 16c2.7 1.2 4.65 3.75 4.875 6.75zM20.625 16c-1.05 1.65-1.725 4.05-1.875 6.75h-3c.3-3 2.25-5.55 4.875-6.75z"/></svg>