<svg xmlns="http://www.w3.org/2000/svg" fill="none" viewBox="0 0 240 240"><path fill="url(#a)" d="M162 140V0H78v140h84z"/><path fill="#1652F0" d="M100 240v-1h-1v1h1zM124 228v-1h-1v1h1zM112 228v-1h-1v1h1zM100 228v-1h-1v1h1zM148 216v-1h-1v1h1zM136 216v-1h-1v1h1zM124 216v-1h-1v1h1zM112 216v-1h-1v1h1zM100 216v-1h-1v1h1zM172 204v-1h-1v1h1zM160 204v-1h-1v1h1zM148 204v-1h-1v1h1zM136 204v-1h-1v1h1zM124 204v-1h-1v1h1zM112 204v-1h-1v1h1zM100 204v-1h-1v1h1zM172 192v-1h-1v1h1zM160 192v-1h-1v1h1zM148 192v-1h-1v1h1zM136 192v-1h-1v1h1zM124 192v-1h-1v1h1zM112 192v-1h-1v1h1zM100 192v-1h-1v1h1zM60 89v-1h-1v1h1zM72 89v-1h-1v1h1zM84 89v-1h-1v1h1zM96 89v-1h-1v1h1zM108 89v-1h-1v1h1zM120 89v-1h-1v1h1zM132 89v-1h-1v1h1zM60 77v-1h-1v1h1zM72 77v-1h-1v1h1zM84 77v-1h-1v1h1zM96 77v-1h-1v1h1zM108 77v-1h-1v1h1zM120 77v-1h-1v1h1zM132 77v-1h-1v1h1zM60 65v-1h-1v1h1zM72 65v-1h-1v1h1zM84 65v-1h-1v1h1zM96 65v-1h-1v1h1zM108 65v-1h-1v1h1zM120 65v-1h-1v1h1zM132 65v-1h-1v1h1zM60 53v-1h-1v1h1zM72 53v-1h-1v1h1zM84 53v-1h-1v1h1zM96 53v-1h-1v1h1zM108 53v-1h-1v1h1zM120 53v-1h-1v1h1zM132 53v-1h-1v1h1zM60 41v-1h-1v1h1zM72 41v-1h-1v1h1zM84 41v-1h-1v1h1zM96 41v-1h-1v1h1zM108 41v-1h-1v1h1zM120 41v-1h-1v1h1zM132 41v-1h-1v1h1zM60 29v-1h-1v1h1zM84 29v-1h-1v1h1zM96 29v-1h-1v1h1zM108 29v-1h-1v1h1zM120 29v-1h-1v1h1zM132 29v-1h-1v1h1zM132 17v-1h-1v1h1zM120 17v-1h-1v1h1z" opacity=".5"/><path fill="#000" d="M185.49 61.62C183.8 54.7 177.35 50 170.22 50h-17.84c8.55 0 15.5 6.95 15.5 15.5S160.93 81 152.38 81h18.08c9.82 0 17.52-9.15 15.03-19.38zM54.51 61.62C56.2 54.7 62.65 50 69.78 50h17.84c-8.55 0-15.5 6.95-15.5 15.5S79.07 81 87.62 81H69.54c-9.82 0-17.52-9.15-15.03-19.38z"/><path fill="#1652F0" d="M132 80s20.57-30 38.57-30H150c-18 0-38.57 30-38.57 30H132z"/><path fill="#1652F0" d="M108 80S87.43 50 69.43 50H90c18 0 38.57 30 38.57 30H108z"/><path fill="#fff" stroke="#D4EEFF" d="M56.5 195.5v-99h125v99h-125z"/><path fill="url(#b)" d="M181 97v98H57V97h124zm1-1H56v100h126V96z"/><path fill="#FFD066" d="M120 187.61c21.69 0 39.27-17.58 39.27-39.27 0-21.69-17.58-39.27-39.27-39.27-21.69 0-39.27 17.58-39.27 39.27 0 21.69 17.58 39.27 39.27 39.27z"/><path fill="url(#c)" d="m109.53 182.78 45.39-43.23c-2.56-10.22-9.49-18.7-18.68-23.35l-49.12 46.78c4.22 9.45 12.39 16.76 22.41 19.8z"/><path fill="url(#d)" d="M84.05 150c.12 2.53.49 5 1.1 7.36l45.57-43.4c-2.34-.73-4.79-1.22-7.3-1.45L84.05 150z"/><path fill="url(#e)" d="M120 110.77c20.71 0 37.56 16.85 37.56 37.56s-16.85 37.56-37.56 37.56-37.56-16.85-37.56-37.56 16.85-37.56 37.56-37.56zm0-1.71c-21.68 0-39.27 17.58-39.27 39.27 0 21.69 17.59 39.27 39.27 39.27 21.68 0 39.27-17.59 39.27-39.27 0-21.68-17.59-39.27-39.27-39.27z" opacity=".3"/><path fill="#fff" stroke="#D4EEFF" d="M48.5 99.5v-19h143v19h-143z"/><path fill="url(#f)" d="M191 81v18H49V81h142zm1-1H48v20h144V80z"/><path fill="#1652F0" d="M132 196h-24V80l11.88-4L132 80v116z"/><path fill="url(#g)" d="m88.02 117.22 1.42 6.59 6.59 1.41-6.59 1.42-1.42 6.59-1.42-6.59-6.59-1.42 6.59-1.41 1.42-6.59z"/><path fill="url(#h)" d="M80.73 118.39c0 .35-.29.64-.64.64-.35 0-.64-.29-.64-.64 0-.35.29-.64.64-.64.35 0 .64.28.64.64zm1.71-10.24c-.35 0-.64.29-.64.64 0 .35.29.64.64.64.35 0 .64-.29.64-.64 0-.35-.28-.64-.64-.64zm-11.95 13.22c-.35 0-.64.29-.64.64 0 .35.29.64.64.64.35 0 .64-.29.64-.64 0-.35-.28-.64-.64-.64zm1.28-11.52c-.35 0-.64.29-.64.64 0 .35.29.64.64.64.35 0 .64-.29.64-.64.01-.34-.29-.64-.64-.64z"/><defs><linearGradient id="a" x1="120" x2="120" y1="-.19" y2="141.02" gradientUnits="userSpaceOnUse"><stop stop-color="#D4EEFF" stop-opacity="0"/><stop offset=".31" stop-color="#D4EEFF"/><stop offset="1" stop-color="#D4EEFF" stop-opacity=".3"/></linearGradient><linearGradient id="b" x1="119" x2="119" y1="96" y2="196" gradientUnits="userSpaceOnUse"><stop stop-color="#D4EEFF"/><stop offset="1" stop-color="#99D6FF"/></linearGradient><linearGradient id="c" x1="87.12" x2="154.92" y1="149.5" y2="149.5" gradientUnits="userSpaceOnUse"><stop offset="0" stop-color="#fff" stop-opacity="0"/><stop offset=".47" stop-color="#fff" stop-opacity=".57"/><stop offset=".5" stop-color="#fff" stop-opacity=".6"/><stop offset=".55" stop-color="#fff" stop-opacity=".54"/><stop offset="1" stop-color="#fff" stop-opacity="0"/></linearGradient><linearGradient id="d" x1="84.05" x2="130.72" y1="134.93" y2="134.93" gradientUnits="userSpaceOnUse"><stop offset="0" stop-color="#fff" stop-opacity="0"/><stop offset=".47" stop-color="#fff" stop-opacity=".57"/><stop offset=".5" stop-color="#fff" stop-opacity=".6"/><stop offset=".55" stop-color="#fff" stop-opacity=".54"/><stop offset="1" stop-color="#fff" stop-opacity="0"/></linearGradient><linearGradient id="e" x1="93.81" x2="146.19" y1="177.59" y2="119.07" gradientUnits="userSpaceOnUse"><stop stop-color="#fff" stop-opacity=".2"/><stop offset=".5" stop-color="#fff"/><stop offset="1" stop-color="#fff" stop-opacity="0"/></linearGradient><linearGradient id="f" x1="120" x2="120" y1="80" y2="100" gradientUnits="userSpaceOnUse"><stop stop-color="#D4EEFF"/><stop offset="1" stop-color="#99D6FF"/></linearGradient><linearGradient id="g" x1="81.72" x2="89.94" y1="119.77" y2="126.88" gradientUnits="userSpaceOnUse"><stop offset="0" stop-color="#56B4FC"/><stop offset=".17" stop-color="#5AB6FC" stop-opacity=".93"/><stop offset=".33" stop-color="#64BAFC" stop-opacity=".87"/><stop offset=".47" stop-color="#77C2FD" stop-opacity=".81"/><stop offset=".62" stop-color="#90CEFD" stop-opacity=".75"/><stop offset=".76" stop-color="#B1DCFE" stop-opacity=".7"/><stop offset=".89" stop-color="#D9EEFE" stop-opacity=".64"/><stop offset="1" stop-color="#fff" stop-opacity=".6"/></linearGradient><linearGradient id="h" x1="79.61" x2="63.57" y1="118.16" y2="104.07" gradientUnits="userSpaceOnUse"><stop stop-color="#D4EEFF"/><stop offset=".3" stop-color="#D8F0FF" stop-opacity=".7"/><stop offset=".61" stop-color="#E4F4FF" stop-opacity=".39"/><stop offset=".92" stop-color="#F9FCFF" stop-opacity=".08"/><stop offset="1" stop-color="#fff" stop-opacity="0"/></linearGradient></defs></svg>