<svg xmlns="http://www.w3.org/2000/svg" fill="none" viewBox="0 0 240 240"><path fill="url(#a)" d="M240 63.75H20.25V132H240V63.75z"/><path fill="#1652F0" d="M216 136.001h-1v1h1v-1zM204 124.001h-1v1h1v-1zM204 136.001h-1v1h1v-1zM204 148.001h-1v1h1v-1zM192 88.001h-1v1h1v-1zM192 100.001h-1v1h1v-1zM192 112.001h-1v1h1v-1zM204 112.001h-1v1h1v-1zM192 124.001h-1v1h1v-1zM192 136.001h-1v1h1v-1zM192 148.001h-1v1h1v-1zM192 160.001h-1v1h1v-1zM180 88.001h-1v1h1v-1zM180 100.001h-1v1h1v-1zM180 112.001h-1v1h1v-1zM180 124.001h-1v1h1v-1zM180 136.001h-1v1h1v-1zM180 148.001h-1v1h1v-1zM180 160.001h-1v1h1v-1zM180 172.001h-1v1h1v-1zM168 88.001h-1v1h1v-1zM168 100.001h-1v1h1v-1zM168 112.001h-1v1h1v-1zM168 124.001h-1v1h1v-1zM168 136.001h-1v1h1v-1zM168 148.001h-1v1h1v-1zM168 160.001h-1v1h1v-1zM168 172.001h-1v1h1v-1zM156 88.001h-1v1h1v-1zM156 100.001h-1v1h1v-1zM156 112.001h-1v1h1v-1zM156 124.001h-1v1h1v-1zM156 136.001h-1v1h1v-1zM156 148.001h-1v1h1v-1zM156 160.001h-1v1h1v-1zM156 172.001h-1v1h1v-1zM144 88.001h-1v1h1v-1zM144 100.001h-1v1h1v-1zM144 112.001h-1v1h1v-1zM144 124.001h-1v1h1v-1zM144 136.001h-1v1h1v-1zM144 148.001h-1v1h1v-1zM144 160.001h-1v1h1v-1zM144 172.001h-1v1h1v-1zM132 88.001h-1v1h1v-1zM132 100.001h-1v1h1v-1zM132 112.001h-1v1h1v-1zM132 124.001h-1v1h1v-1zM132 136.001h-1v1h1v-1zM132 148.001h-1v1h1v-1zM132 160.001h-1v1h1v-1zM132 172.001h-1v1h1v-1zM120 88.001h-1v1h1v-1zM120 100.001h-1v1h1v-1zM120 112.001h-1v1h1v-1zM120 124.001h-1v1h1v-1zM120 136.001h-1v1h1v-1zM120 148.001h-1v1h1v-1zM120 160.001h-1v1h1v-1zM120 172.001h-1v1h1v-1zM108 88.001h-1v1h1v-1zM108 100.001h-1v1h1v-1zM108 112.001h-1v1h1v-1zM108 124.001h-1v1h1v-1zM108 136.001h-1v1h1v-1zM108 148.001h-1v1h1v-1zM108 160.001h-1v1h1v-1zM108 172.001h-1v1h1v-1zM96 88.001h-1v1h1v-1zM96 100.001h-1v1h1v-1zM96 112.001h-1v1h1v-1zM96 124.001h-1v1h1v-1zM96 136.001h-1v1h1v-1zM96 148.001h-1v1h1v-1zM96 160.001h-1v1h1v-1zM96 172.001h-1v1h1v-1zM84 88.001h-1v1h1v-1zM84 100.001h-1v1h1v-1zM84 112.001h-1v1h1v-1zM84 124.001h-1v1h1v-1zM84 136.001h-1v1h1v-1zM84 148.001h-1v1h1v-1zM84 160.001h-1v1h1v-1zM84 172.001h-1v1h1v-1zM72 88.001h-1v1h1v-1zM72 100.001h-1v1h1v-1zM72 112.001h-1v1h1v-1zM72 124.001h-1v1h1v-1zM72 136.001h-1v1h1v-1zM72 148.001h-1v1h1v-1zM72 160.001h-1v1h1v-1zM72 172.001h-1v1h1v-1zM60 88.001h-1v1h1v-1zM60 100.001h-1v1h1v-1zM60 112.001h-1v1h1v-1zM60 124.001h-1v1h1v-1zM60 136.001h-1v1h1v-1zM60 148.001h-1v1h1v-1zM60 160.001h-1v1h1v-1zM60 172.001h-1v1h1v-1zM48 88.001h-1v1h1v-1zM48 100.001h-1v1h1v-1zM48 112.001h-1v1h1v-1zM48 124.001h-1v1h1v-1zM48 136.001h-1v1h1v-1zM48 148.001h-1v1h1v-1zM48 160.001h-1v1h1v-1zM48 172.001h-1v1h1v-1zM36 100.001h-1v1h1v-1zM36 112.001h-1v1h1v-1zM36 136.001h-1v1h1v-1zM36 148.001h-1v1h1v-1zM36 160.001h-1v1h1v-1zM24 148.001h-1v1h1v-1z" opacity=".5"/><path fill="#fff" stroke="url(#b)" d="M168 215.5H72a3.499 3.499 0 0 1-3.5-3.5V28c0-1.934 1.566-3.5 3.5-3.5h96c1.934 0 3.5 1.566 3.5 3.5v184c0 1.934-1.566 3.5-3.5 3.5z"/><path fill="#1652F0" d="M172 36H68v168h104V36z"/><path fill="#D4EEFF" d="M133 212h-26c-1.1 0-2-.9-2-2s.9-2 2-2h26c1.1 0 2 .9 2 2s-.9 2-2 2zM120 32.52a2.11 2.11 0 1 0 0-4.22 2.11 2.11 0 0 0 0 4.22z"/><path fill="#fff" d="M74 42h-2v2h2v-2zM77 41h-2v3h2v-3zM80 40h-2v4h2v-4z"/><path fill="url(#c)" d="M87.62 91.87v108.38H76.38V80.63l11.24 11.24zM92 96.25l-3.62-3.62v107.62h11.25V88.63L92 96.25zm12-12-3.62 3.62v112.38h11.25V90.92L104 84.25zm-36-12v128h7.62V79.87L68 72.25zm80.38 27.62v100.38h11.25V88.63l-11.25 11.24zm12 100.38H172v-124l-11.62 11.62v112.38zm-48-108.67v108.67h11.25v-98.83l-11.25-9.84zm24 20.29v88.38h11.25v-99.62l-11.25 11.24zm-12-9.79v98.17h11.25v-88.33l-11.25-9.84z"/><path fill="#fff" d="M91.47 96.78c.29.29.77.29 1.06 0l11.5-11.5 32.04 28.029.99-1.13-32.56-28.49a.744.744 0 0 0-1.02.03L92 95.19l-24-24v2.12l23.47 23.47z"/><path fill="url(#d)" d="M172 40.249h-60v160h60v-160z"/><path fill="#fff" d="M166.28 112.5h-.95v-.5h.95v.5zm-2.87 0h-.95v-.5h.95v.5zm5.73 0h-.95v-.5h.95v.5zm2.86 0h-.95v-.5h.95v.5zm-11.45 0h-.95v-.5h.95v.5zm-2.86 0h-.95v-.5h.95v.5zm-2.86 0h-.95v-.5h.95v.5zm-2.87 0h-.95v-.5h.95v.5zm-2.86 0h-.95v-.5h.95v.5zm-2.86 0h-.95v-.5h.95v.5zm-2.86 0h-.95v-.5h.95v.5zm-2.87 0h-.95v-.5h.95v.5zm-2.86 0h-.95v-.5h.95v.5zm-2.86 0h-.95v-.5h.95v.5zm-2.86 0h-.95v-.5h.95v.5zm-2.87 0h-.95v-.5h.95v.5zm-2.86 0h-.95v-.5h.95v.5zm-2.86 0h-.95v-.5h.95v.5zm-2.86 0h-.95v-.5h.95v.5zm-2.87 0h-.95v-.5h.95v.5zm-2.86 0h-.95v-.5h.95v.5zm-2.86 0h-.95v-.5h.95v.5zm-2.86 0h-.95v-.5h.95v.5zm-2.86 0h-.95v-.5h.95v.5zm-2.87 0h-.95v-.5h.95v.5zm-2.86 0h-.95v-.5h.95v.5zm-2.86 0h-.95v-.5h.95v.5zm-2.86 0h-.95v-.5h.95v.5zm-2.87 0h-.95v-.5h.95v.5zm-2.86 0h-.95v-.5h.95v.5zm-2.86 0h-.95v-.5h.95v.5zm-2.86 0h-.95v-.5h.95v.5zm-2.87 0h-.95v-.5h.95v.5zm-2.86 0h-.95v-.5h.95v.5zm-2.86 0h-.95v-.5h.95v.5zm-2.86 0h-.95v-.5h.95v.5zm-2.87 0H68v-.5h.95v.5z"/><path fill="#fff" d="M136 132.249c11.046 0 20-8.954 20-19.999 0-11.046-8.954-20-20-20s-20 8.954-20 20c0 11.045 8.954 19.999 20 19.999z" opacity=".1"/><path fill="#fff" d="M136 124.249c6.627 0 12-5.373 12-12s-5.373-12-12-12-12 5.373-12 12 5.373 12 12 12z" opacity=".2"/><path d="M117 93.25h38v38h-38z"/><path fill="#fff" d="M136 119.25a7 7 0 1 0 0-14 7 7 0 0 0 0 14z"/><path fill="#3ACC8A" d="M136 116.25a4 4 0 1 0 0-8 4 4 0 0 0 0 8z"/><path fill="#3ACC8A" d="M136 117.249c-2.76 0-5-2.24-5-4.999 0-2.76 2.24-5 5-5s5 2.24 5 5a5.002 5.002 0 0 1-5 4.999zm0-7.999c-1.65 0-3 1.35-3 3s1.35 2.999 3 2.999 3-1.349 3-2.999c0-1.65-1.35-3-3-3z"/><path fill="url(#e)" d="M136 116.25a4 4 0 1 0 0-8 4 4 0 0 0 0 8z"/><path fill="#fff" d="M168 40.25h-6v3.5h6v-3.5zM161.5 43v-2c-.28 0-.5.22-.5.5v1c0 .28.22.5.5.5z"/><defs><linearGradient id="a" x1="240" x2="19.75" y1="97.88" y2="97.88" gradientUnits="userSpaceOnUse"><stop offset=".11" stop-color="#D4EEFF" stop-opacity="0"/><stop offset=".53" stop-color="#D4EEFF"/><stop offset="1" stop-color="#D4EEFF" stop-opacity=".3"/></linearGradient><linearGradient id="b" x1="120" x2="120" y1="24" y2="216" gradientUnits="userSpaceOnUse"><stop stop-color="#D4EEFF"/><stop offset="1" stop-color="#99D6FF"/></linearGradient><linearGradient id="c" x1="120" x2="120" y1="75.09" y2="197.03" gradientUnits="userSpaceOnUse"><stop stop-color="#99D6FF" stop-opacity=".4"/><stop offset="1" stop-color="#D4EEFF" stop-opacity="0"/></linearGradient><linearGradient id="d" x1="114.27" x2="169.47" y1="120.25" y2="120.25" gradientUnits="userSpaceOnUse"><stop stop-color="#1652F0" stop-opacity="0"/><stop offset="1" stop-color="#1652F0"/></linearGradient><radialGradient id="e" cx="0" cy="0" r="1" gradientTransform="rotate(-131.634 94.952 26.306) scale(9.03119)" gradientUnits="userSpaceOnUse"><stop stop-color="#fff" stop-opacity="0"/><stop offset=".6" stop-color="#fff" stop-opacity=".13"/><stop offset="1" stop-color="#fff"/></radialGradient></defs></svg>