<svg xmlns="http://www.w3.org/2000/svg" fill="none" viewBox="0 0 48 48"><path fill="#BFE9FF" d="M30 4H0v30h30V4z"/><path fill="#56B4FC" d="M48 43H9v3h39v-3zM48 37H9v3h39v-3zM48 31H9v3h39v-3zM48 25H9v3h39v-3zM48 19H9v3h39v-3z"/><path fill="#1652F0" d="M30 19H9v15h21V19z"/><path fill="#fff" d="m21.375 29.5-1.433.442-.442 1.433-.442-1.433-1.433-.442 1.433-.442.442-1.433.442 1.433 1.433.442zM15.375 29.5l-1.432.442-.443 1.433-.443-1.433-1.432-.442 1.432-.442.443-1.433.443 1.433 1.432.442zM27.375 29.5l-1.433.442-.442 1.433-.442-1.433-1.433-.442 1.433-.442.442-1.433.442 1.433 1.433.442zM21.375 23.5l-1.433.442-.442 1.433-.442-1.433-1.433-.442 1.433-.442.442-1.433.442 1.433 1.433.442zM15.375 23.5l-1.432.442-.443 1.433-.443-1.433-1.432-.442 1.432-.442.443-1.433.443 1.433 1.432.442zM27.375 23.5l-1.433.442-.442 1.433-.442-1.433-1.433-.442 1.433-.442.442-1.433.442 1.433 1.433.442z"/></svg>