<svg xmlns="http://www.w3.org/2000/svg" fill="none" viewBox="0 0 120 120"><path fill="url(#a)" d="M48.827 89.334c-1.288 8.74-9.42 14.781-18.16 13.493-8.742-1.288-14.782-9.42-13.494-18.16 1.289-8.742 9.42-14.782 18.16-13.494 8.74 1.291 14.78 9.42 13.494 18.16z"/><path fill="url(#b)" d="M102.827 35.334c-1.288 8.74-9.42 14.781-18.16 13.493-8.742-1.288-14.782-9.42-13.494-18.16 1.288-8.742 9.42-14.782 18.16-13.494 8.74 1.291 14.78 9.42 13.494 18.16z"/><path fill="#fff" stroke="url(#c)" stroke-width=".75" d="M93.625 60c0 18.57-15.054 33.625-33.625 33.625-18.57 0-33.625-15.054-33.625-33.625 0-18.57 15.054-33.625 33.625-33.625 18.57 0 33.625 15.054 33.625 33.625z"/><path fill="#0052FF" d="M89.675 64.376c-2.415 16.39-17.662 27.715-34.051 25.3-16.39-2.416-27.715-17.663-25.3-34.052 2.416-16.39 17.663-27.715 34.052-25.3 16.385 2.421 27.71 17.663 25.3 34.052z"/><path stroke="url(#d)" d="M89.5 60c0 16.293-13.208 29.5-29.5 29.5S30.5 76.293 30.5 60c0-16.292 13.208-29.5 29.5-29.5S89.5 43.708 89.5 60z"/><path fill="#fff" d="m60 44 3.293 12.707L76 60l-12.707 3.293L60 76l-3.293-12.707L44 60l12.707-3.293L60 44z"/><path stroke="url(#e)" stroke-opacity=".5" stroke-width=".5" d="M91.75 59c0 17.535-14.215 31.75-31.75 31.75S28.25 76.535 28.25 59 42.465 27.25 60 27.25 91.75 41.465 91.75 59z"/><defs><linearGradient id="a" x1="44" x2="15" y1="76" y2="104.5" gradientUnits="userSpaceOnUse"><stop stop-color="#0052FF" stop-opacity=".3"/><stop offset="1" stop-color="#fff" stop-opacity="0"/></linearGradient><linearGradient id="b" x1="82" x2="102.5" y1="40.5" y2="20" gradientUnits="userSpaceOnUse"><stop stop-color="#0052FF" stop-opacity=".3"/><stop offset=".91" stop-color="#fff" stop-opacity="0"/></linearGradient><linearGradient id="c" x1="60" x2="60" y1="26" y2="94" gradientUnits="userSpaceOnUse"><stop stop-color="#0052FF" stop-opacity=".1"/><stop offset="1" stop-color="#0052FF" stop-opacity=".25"/></linearGradient><linearGradient id="d" x1="60" x2="60" y1="90" y2="28.5" gradientUnits="userSpaceOnUse"><stop stop-color="#fff" stop-opacity="0"/><stop offset="1" stop-color="#fff" stop-opacity=".7"/></linearGradient><linearGradient id="e" x1="36" x2="88" y1="34.5" y2="86.5" gradientUnits="userSpaceOnUse"><stop stop-color="#fff"/><stop offset="1" stop-color="#fff" stop-opacity="0"/></linearGradient></defs></svg>