<svg xmlns="http://www.w3.org/2000/svg" fill="none" viewBox="0 0 240 240"><path fill="url(#a)" d="M220 120H0v52h220v-52z"/><path fill="#1652F0" d="M228 68h-1v1h1v-1zM228 80h-1v1h1v-1zM228 92h-1v1h1v-1zM228 104h-1v1h1v-1zM216 68h-1v1h1v-1zM216 80h-1v1h1v-1zM216 92h-1v1h1v-1zM216 104h-1v1h1v-1zM216 116h-1v1h1v-1zM216 140h-1v1h1v-1zM204 56h-1v1h1v-1zM204 68h-1v1h1v-1zM204 80h-1v1h1v-1zM204 92h-1v1h1v-1zM204 104h-1v1h1v-1zM204 116h-1v1h1v-1zM204 128h-1v1h1v-1zM204 140h-1v1h1v-1zM192 44h-1v1h1v-1zM192 56h-1v1h1v-1zM192 68h-1v1h1v-1zM192 80h-1v1h1v-1zM192 92h-1v1h1v-1zM192 104h-1v1h1v-1zM192 116h-1v1h1v-1zM192 128h-1v1h1v-1zM192 140h-1v1h1v-1zM180 44h-1v1h1v-1zM180 56h-1v1h1v-1zM180 68h-1v1h1v-1zM180 80h-1v1h1v-1zM180 92h-1v1h1v-1zM180 104h-1v1h1v-1zM180 116h-1v1h1v-1zM180 128h-1v1h1v-1zM180 140h-1v1h1v-1zM168 44h-1v1h1v-1zM168 56h-1v1h1v-1zM168 68h-1v1h1v-1zM168 80h-1v1h1v-1zM168 92h-1v1h1v-1zM168 104h-1v1h1v-1zM168 116h-1v1h1v-1zM168 128h-1v1h1v-1zM168 140h-1v1h1v-1zM156 44h-1v1h1v-1zM156 56h-1v1h1v-1zM156 68h-1v1h1v-1zM156 80h-1v1h1v-1zM156 92h-1v1h1v-1zM156 104h-1v1h1v-1zM156 116h-1v1h1v-1zM156 128h-1v1h1v-1zM156 140h-1v1h1v-1zM144 44h-1v1h1v-1zM144 56h-1v1h1v-1zM144 68h-1v1h1v-1zM144 80h-1v1h1v-1zM144 92h-1v1h1v-1zM144 104h-1v1h1v-1zM144 116h-1v1h1v-1zM144 128h-1v1h1v-1zM144 140h-1v1h1v-1zM132 44h-1v1h1v-1zM132 56h-1v1h1v-1zM132 68h-1v1h1v-1zM132 80h-1v1h1v-1zM132 92h-1v1h1v-1zM132 104h-1v1h1v-1zM132 116h-1v1h1v-1zM132 128h-1v1h1v-1zM132 140h-1v1h1v-1zM120 44h-1v1h1v-1zM120 56h-1v1h1v-1zM120 68h-1v1h1v-1zM120 80h-1v1h1v-1zM120 92h-1v1h1v-1zM120 104h-1v1h1v-1zM120 116h-1v1h1v-1zM120 128h-1v1h1v-1zM120 140h-1v1h1v-1zM108 44h-1v1h1v-1zM108 56h-1v1h1v-1zM108 68h-1v1h1v-1zM108 80h-1v1h1v-1zM108 92h-1v1h1v-1zM108 104h-1v1h1v-1zM108 116h-1v1h1v-1zM108 128h-1v1h1v-1zM108 140h-1v1h1v-1zM96 44h-1v1h1v-1zM96 56h-1v1h1v-1zM96 68h-1v1h1v-1zM96 80h-1v1h1v-1zM96 92h-1v1h1v-1zM96 104h-1v1h1v-1zM96 116h-1v1h1v-1zM96 128h-1v1h1v-1zM96 140h-1v1h1v-1zM84 44h-1v1h1v-1zM84 56h-1v1h1v-1zM84 68h-1v1h1v-1zM84 80h-1v1h1v-1zM84 92h-1v1h1v-1zM84 104h-1v1h1v-1zM84 116h-1v1h1v-1zM84 128h-1v1h1v-1zM84 140h-1v1h1v-1zM72 44h-1v1h1v-1zM72 56h-1v1h1v-1zM72 68h-1v1h1v-1zM72 80h-1v1h1v-1zM72 92h-1v1h1v-1zM72 104h-1v1h1v-1zM72 116h-1v1h1v-1zM72 128h-1v1h1v-1zM72 140h-1v1h1v-1zM60 44h-1v1h1v-1zM60 56h-1v1h1v-1zM60 68h-1v1h1v-1zM60 80h-1v1h1v-1zM60 92h-1v1h1v-1zM60 104h-1v1h1v-1zM60 116h-1v1h1v-1zM60 128h-1v1h1v-1zM60 140h-1v1h1v-1zM48 44h-1v1h1v-1zM48 56h-1v1h1v-1zM48 68h-1v1h1v-1zM48 80h-1v1h1v-1zM48 92h-1v1h1v-1zM48 104h-1v1h1v-1zM36 104h-1v1h1v-1zM48 116h-1v1h1v-1zM48 128h-1v1h1v-1zM48 140h-1v1h1v-1zM36 44h-1v1h1v-1zM36 56h-1v1h1v-1zM36 80h-1v1h1v-1zM36 92h-1v1h1v-1zM36 116h-1v1h1v-1zM24 104h-1v1h1v-1zM24 116h-1v1h1v-1zM36 128h-1v1h1v-1zM36 140h-1v1h1v-1zM24 56h-1v1h1v-1zM24 80h-1v1h1v-1zM24 92h-1v1h1v-1zM24 128h-1v1h1v-1zM24 140h-1v1h1v-1zM12 80h-1v1h1v-1zM12 92h-1v1h1v-1zM12 140h-1v1h1v-1z" opacity=".5"/><path fill="#fff" stroke="#000" d="M187.5 112v.207l.146.147 7.854 7.853V211.5h-151v-91.293l7.854-7.853.146-.147V24.5h135V112z"/><path fill="#0B283F" d="M120 43.98 44 120l75.76 78.07L196 120l-76-76.02z"/><path fill="#fff" stroke="url(#b)" d="M188.5 24v-.5h-137v184h137V24z"/><path fill="url(#c)" d="M168 94H72v-4h96v4zm0-12H72v-4h96v4zm0-12H72v-4h96v4zm0-12H72v-4h96v4zm0-12H72v-4h96v4zm0 56H72v4h96v-4zm0 12H72v4h96v-4zm0 12H72v4h96v-4zm-12 12H84v4h72v-4zm-12 12H96v4h48v-4z"/><path fill="#1652F0" d="M120 196.08 44 120v92h152v-92l-76 76.08z"/><defs><linearGradient id="a" x1="0" x2="220.5" y1="146" y2="146" gradientUnits="userSpaceOnUse"><stop stop-color="#D4EEFF" stop-opacity="0"/><stop offset=".28" stop-color="#D4EEFF"/><stop offset="1" stop-color="#D4EEFF" stop-opacity=".3"/></linearGradient><linearGradient id="b" x1="120" x2="120" y1="24" y2="207" gradientUnits="userSpaceOnUse"><stop stop-color="#BFE9FF"/><stop offset="1" stop-color="#D4EEFF"/></linearGradient><linearGradient id="c" x1="120" x2="120" y1="45.5" y2="213.5" gradientUnits="userSpaceOnUse"><stop stop-color="#D4EEFF"/><stop offset="1" stop-color="#fff"/></linearGradient></defs></svg>