<svg xmlns="http://www.w3.org/2000/svg" fill="none" viewBox="0 0 120 126"><path fill="url(#a)" d="M36 72h48v54H36z"/><rect width="48" height="80" x="36" y="20" fill="#fff" rx="2"/><path fill="#0052FF" d="M36 26h48v68H36z"/><rect width="47" height="79" x="36.5" y="20.5" stroke="url(#b)" rx="1.5"/><path fill="#fff" d="M60.026 67c-3.875 0-7.013-3.133-7.013-7s3.139-7 7.013-7a7.007 7.007 0 0 1 6.908 5.833H74C73.404 51.647 67.378 46 60.026 46 52.283 46 46 52.27 46 60s6.283 14 14.026 14C67.378 74 73.404 68.353 74 61.167h-7.072A7.001 7.001 0 0 1 60.026 67z"/><path fill="#fff" stroke="url(#c)" d="M25.5 50a1.5 1.5 0 0 1 1.5-1.5h20a1.5 1.5 0 0 1 1.5 1.5v20a1.5 1.5 0 0 1-1.5 1.5H27a1.5 1.5 0 0 1-1.5-1.5V50z"/><path fill="#0052FF" d="M36.65 52.35c3.11 0 5.88 1.85 7.07 4.72l-1.85.77a5.64 5.64 0 0 0-5.22-3.49C33.54 54.35 31 56.89 31 60c0 3.11 2.53 5.65 5.65 5.65 2.43 0 4.61-1.6 5.36-3.9l-2.51-2.5H45v5.5l-1.45-1.45c-1.26 2.61-3.94 4.34-6.9 4.34C32.43 67.65 29 64.22 29 60s3.43-7.65 7.65-7.65z"/><path fill="#FFAE24" d="m25 40-1.41 6.59L17 48l6.59 1.41L25 56l1.41-6.59L33 48l-6.59-1.41L25 40z"/><path fill="#0052FF" d="M8 44a1 1 0 1 1 0-2 1 1 0 0 1 0 2zM21 32a1 1 0 1 1 0-2 1 1 0 0 1 0 2z"/><defs><linearGradient id="a" x1="60" x2="60" y1="72" y2="126" gradientUnits="userSpaceOnUse"><stop stop-color="#0052FF" stop-opacity=".5"/><stop offset="1" stop-color="#fff" stop-opacity="0"/></linearGradient><linearGradient id="b" x1="60" x2="60" y1="20" y2="100" gradientUnits="userSpaceOnUse"><stop stop-color="#D4EEFF"/><stop offset="1" stop-color="#99D6FF"/></linearGradient><linearGradient id="c" x1="37" x2="37" y1="48" y2="72" gradientUnits="userSpaceOnUse"><stop stop-color="#D4EEFF"/><stop offset="1" stop-color="#99D6FF"/></linearGradient></defs></svg>