<svg xmlns="http://www.w3.org/2000/svg" fill="none" viewBox="0 0 240 241"><path fill="url(#a)" d="M127.55.005h-64v92h64v-92z"/><path fill="url(#b)" d="M115.55.005h-40v92h40v-92z"/><path fill="url(#c)" d="M87.55.005h-20v92h20v-92z"/><path fill="#1652F0" d="M47.54 37.005h1v-1h-1v1zM47.54 49.005h1v-1h-1v1zM47.54 61.005h1v-1h-1v1zM59.54 13.005h1v-1h-1v1zM59.54 25.005h1v-1h-1v1zM47.54 25.005h1v-1h-1v1zM59.54 37.005h1v-1h-1v1zM59.54 49.005h1v-1h-1v1zM59.54 61.005h1v-1h-1v1zM59.54 73.005h1v-1h-1v1zM71.54 1.005h1v-1h-1v1zM71.54 13.005h1v-1h-1v1zM71.54 25.005h1v-1h-1v1zM71.54 37.005h1v-1h-1v1zM71.54 49.005h1v-1h-1v1zM71.54 61.005h1v-1h-1v1zM71.54 73.005h1v-1h-1v1zM83.54 1.005h1v-1h-1v1zM83.54 13.005h1v-1h-1v1zM83.54 25.005h1v-1h-1v1zM83.54 37.005h1v-1h-1v1zM83.54 49.005h1v-1h-1v1zM83.54 61.005h1v-1h-1v1zM83.54 73.005h1v-1h-1v1zM95.545 0v1h1V0h-1zM107.545 0v1h1V0h-1zM119.545 0v1h1V0h-1zM131.545 0v1h1V0h-1zM143.545 0v1h1V0h-1zM95.545 12v1h1v-1h-1zM107.545 12v1h1v-1h-1zM119.545 12v1h1v-1h-1zM131.545 12v1h1v-1h-1zM143.545 12v1h1v-1h-1zM95.545 24v1h1v-1h-1zM107.545 24v1h1v-1h-1zM119.545 24v1h1v-1h-1zM131.545 24v1h1v-1h-1zM107.545 36v1h1v-1h-1zM119.545 36v1h1v-1h-1z" opacity=".5"/><path fill="url(#d)" d="M208.05 150.005h-177v24h177v-24z"/><path fill="url(#e)" d="m56.99 229.875 142.84-51.99-26-71.41L31 158.455l25.99 71.42z"/><path fill="url(#f)" d="m33.74 165.975 142.83-51.99-2.74-7.51L31 158.455l2.74 7.52z"/><path fill="url(#g)" d="m56.99 229.875 142.84-51.99-2.74-7.51-142.83 51.98 2.73 7.52z"/><path fill="url(#h)" d="m158.48 192.935 33.83-12.31-25.99-71.42-33.83 12.32 25.99 71.41z"/><path fill="#3ACC8A" d="m181.351 127.148-15.035 5.472 8.208 22.553 15.035-5.472-8.208-22.553z"/><path fill="url(#i)" d="m110.28 142.375 15.04-5.47 1.37 3.76-15.04 5.47-1.37-3.76zm-17.43 10.6 15.04-5.47-1.37-3.76-15.04 5.47 1.37 3.76zm-18.79 6.84 15.04-5.47-1.37-3.76-15.04 5.47 1.37 3.76zm-18.79 6.84 15.04-5.47-1.37-3.76-15.04 5.47 1.37 3.76z"/><path fill="url(#j)" d="M139.85 183.285c13.255 0 24-10.745 24-24s-10.745-24-24-24-24 10.745-24 24 10.745 24 24 24z"/><path fill="url(#k)" d="m176.18 112.015-142.84 51.99.69 1.88 142.83-51.99-.68-1.88z"/><path fill="url(#l)" d="m58.67 234.865 146.82-39.34-19.67-73.41L39 161.455l19.67 73.41z"/><path fill="url(#m)" d="M178.76 119.995 38 157.715l1 3.74 141.09-37.8-1.33-3.66z"/><path fill="url(#n)" d="m41.07 169.185 146.82-39.34-2.07-7.73L39 161.455l2.07 7.73z"/><path fill="url(#o)" d="m58.67 234.865 146.82-39.34-2.07-7.72-146.82 39.34 2.07 7.72z"/><path fill="url(#p)" d="m162.99 206.915 34.77-9.32-19.67-73.41-34.77 9.32 19.67 73.41z"/><path fill="#FFD066" d="m191.506 143.373-15.454 4.141 6.211 23.181 15.454-4.14-6.211-23.182z"/><path fill="url(#q)" d="m119.38 152.345 15.45-4.14 1.04 3.86-15.45 4.14-1.04-3.86zm-18.28 9.04 15.45-4.14-1.04-3.86-15.45 4.14 1.04 3.86zm-19.32 5.18 15.45-4.14-1.04-3.86-15.45 4.14 1.04 3.86zm-19.32 5.17 15.45-4.14-1.04-3.86-15.45 4.14 1.04 3.86z"/><path fill="url(#r)" d="M147.36 195.765c13.255 0 24-10.745 24-24s-10.745-24-24-24-24 10.745-24 24 10.745 24 24 24z"/><path fill="url(#s)" d="m187.67 127.845-146.82 39.34.52 1.94 146.82-39.35-.52-1.93z"/><path fill="url(#t)" d="M208.05 162.005h-177v4h177v-4z"/><path fill="#fff" d="M208.05 166.005h-177v72h177v-72z"/><path fill="#9BD7FF" d="M31 237h177v1H31z"/><path fill="url(#u)" d="M31.05 150.005c8.84 0 16 7.16 16 16v56c0 8.84-7.16 16-16 16v-88z"/><path fill="url(#v)" d="M208.05 150.005c-8.84 0-16 7.16-16 16v56c0 8.84 7.16 16 16 16v-88z"/><path fill="#fff" stroke="url(#w)" d="M31.55 237.312v-86.611l3.13 1.057.002.001a11.491 11.491 0 0 1 7.868 10.906v62.7a11.5 11.5 0 0 1-7.868 10.905l-3.132 1.042z"/><path fill="#fff" stroke="url(#x)" d="M207.54 150.698v86.614l-3.131-1.041 3.131-85.573zm0 0-3.132 1.041a11.5 11.5 0 0 0-7.868 10.906v62.699a11.53 11.53 0 0 0 7.868 10.926l3.132-85.572z"/><path fill="url(#y)" d="M95.55 124.005c17.673 0 32-14.327 32-32 0-17.673-14.327-32-32-32-17.673 0-32 14.327-32 32 0 17.673 14.327 32 32 32z"/><path fill="url(#z)" d="M95.55 61.505c16.82 0 30.5 13.68 30.5 30.5s-13.68 30.5-30.5 30.5-30.5-13.68-30.5-30.5 13.68-30.5 30.5-30.5zm0-1.5c-17.67 0-32 14.33-32 32s14.33 32 32 32 32-14.33 32-32-14.33-32-32-32z"/><path fill="url(#A)" d="m108.94 78.605-9.61 13.4 9.61 13.4-13.39-9.61-13.4 9.61 9.61-13.4-9.61-13.4 13.4 9.61 13.39-9.61z"/><path fill="url(#B)" d="m95.55 73.055 2.67 16.27 16.27 2.68-16.27 2.68-2.67 16.27-2.68-16.27-16.27-2.68 16.27-2.68 2.68-16.27z"/><path fill="url(#C)" d="M167.55.005h-20v60h20v-60z"/><path fill="url(#D)" d="M155.55.005h-4v60h4v-60z"/><path fill="url(#E)" d="M163.55 8.005h-2v60h2v-60z"/><path fill="url(#F)" d="M157.55 72.005c7.732 0 14-6.268 14-14s-6.268-14-14-14-14 6.268-14 14 6.268 14 14 14z"/><path fill="url(#G)" d="M157.55 45.005c7.17 0 13 5.83 13 13s-5.83 13-13 13-13-5.83-13-13 5.83-13 13-13zm0-1c-7.73 0-14 6.27-14 14s6.27 14 14 14 14-6.27 14-14-6.27-14-14-14z"/><defs><linearGradient id="a" x1="95.55" x2="95.55" y1="92.23" y2="2.69" gradientUnits="userSpaceOnUse"><stop stop-color="#56B4FC" stop-opacity=".3"/><stop offset=".15" stop-color="#5AB6FC" stop-opacity=".25"/><stop offset=".31" stop-color="#66BBFC" stop-opacity=".21"/><stop offset=".46" stop-color="#7BC4FD" stop-opacity=".16"/><stop offset=".62" stop-color="#97D1FD" stop-opacity=".11"/><stop offset=".78" stop-color="#BCE1FE" stop-opacity=".07"/><stop offset=".93" stop-color="#E9F5FF" stop-opacity=".02"/><stop offset="1" stop-color="#fff" stop-opacity="0"/></linearGradient><linearGradient id="b" x1="95.55" x2="95.55" y1="92.23" y2="2.69" gradientUnits="userSpaceOnUse"><stop stop-color="#56B4FC" stop-opacity=".3"/><stop offset=".15" stop-color="#5AB6FC" stop-opacity=".25"/><stop offset=".31" stop-color="#66BBFC" stop-opacity=".21"/><stop offset=".46" stop-color="#7BC4FD" stop-opacity=".16"/><stop offset=".62" stop-color="#97D1FD" stop-opacity=".11"/><stop offset=".78" stop-color="#BCE1FE" stop-opacity=".07"/><stop offset=".93" stop-color="#E9F5FF" stop-opacity=".02"/><stop offset="1" stop-color="#fff" stop-opacity="0"/></linearGradient><linearGradient id="c" x1="77.55" x2="77.55" y1="92.23" y2="2.69" gradientUnits="userSpaceOnUse"><stop stop-color="#56B4FC" stop-opacity=".3"/><stop offset=".15" stop-color="#5AB6FC" stop-opacity=".25"/><stop offset=".31" stop-color="#66BBFC" stop-opacity=".21"/><stop offset=".46" stop-color="#7BC4FD" stop-opacity=".16"/><stop offset=".62" stop-color="#97D1FD" stop-opacity=".11"/><stop offset=".78" stop-color="#BCE1FE" stop-opacity=".07"/><stop offset=".93" stop-color="#E9F5FF" stop-opacity=".02"/><stop offset="1" stop-color="#fff" stop-opacity="0"/></linearGradient><linearGradient id="d" x1="119.55" x2="119.55" y1="174" y2="150" gradientUnits="userSpaceOnUse"><stop stop-color="#0B283F"/><stop offset="1" stop-color="#0B283F" stop-opacity=".5"/></linearGradient><linearGradient id="e" x1="187.19" x2="44.1" y1="142.05" y2="194.13" gradientUnits="userSpaceOnUse"><stop stop-color="#BDF2D8"/><stop offset=".24" stop-color="#C1F3DA"/><stop offset=".49" stop-color="#CDF5E2"/><stop offset=".74" stop-color="#E2F9EE"/><stop offset=".99" stop-color="#FEFFFE"/><stop offset="1" stop-color="#fff"/></linearGradient><linearGradient id="f" x1="32.36" x2="175.2" y1="162.22" y2="110.23" gradientUnits="userSpaceOnUse"><stop stop-color="#2BAF6C" stop-opacity=".3"/><stop offset=".13" stop-color="#2FB16F" stop-opacity=".26"/><stop offset=".27" stop-color="#3BB577" stop-opacity=".22"/><stop offset=".41" stop-color="#50BD85" stop-opacity=".18"/><stop offset=".55" stop-color="#6CC899" stop-opacity=".13"/><stop offset=".69" stop-color="#91D6B3" stop-opacity=".09"/><stop offset=".83" stop-color="#BFE7D2" stop-opacity=".05"/><stop offset=".97" stop-color="#F3FAF7" stop-opacity=".01"/><stop offset="1" stop-color="#fff" stop-opacity="0"/></linearGradient><linearGradient id="g" x1="55.62" x2="198.45" y1="226.12" y2="174.13" gradientUnits="userSpaceOnUse"><stop stop-color="#2BAF6C" stop-opacity=".3"/><stop offset=".13" stop-color="#2FB16F" stop-opacity=".26"/><stop offset=".27" stop-color="#3BB577" stop-opacity=".22"/><stop offset=".41" stop-color="#50BD85" stop-opacity=".18"/><stop offset=".55" stop-color="#6CC899" stop-opacity=".13"/><stop offset=".69" stop-color="#91D6B3" stop-opacity=".09"/><stop offset=".83" stop-color="#BFE7D2" stop-opacity=".05"/><stop offset=".97" stop-color="#F3FAF7" stop-opacity=".01"/><stop offset="1" stop-color="#fff" stop-opacity="0"/></linearGradient><linearGradient id="h" x1="175.01" x2="150.9" y1="185.74" y2="119.48" gradientUnits="userSpaceOnUse"><stop stop-color="#BDF2D8" stop-opacity="0"/><stop offset=".24" stop-color="#C1F3DA" stop-opacity=".24"/><stop offset=".49" stop-color="#CDF5E2" stop-opacity=".49"/><stop offset=".74" stop-color="#E2F9EE" stop-opacity=".74"/><stop offset=".99" stop-color="#FEFFFE" stop-opacity=".99"/><stop offset="1" stop-color="#fff"/></linearGradient><linearGradient id="i" x1="54.77" x2="126.51" y1="164.48" y2="138.83" gradientUnits="userSpaceOnUse"><stop stop-color="#fff" stop-opacity="0"/><stop offset=".03" stop-color="#F3FAF7" stop-opacity=".01"/><stop offset=".17" stop-color="#BFE7D2" stop-opacity=".05"/><stop offset=".31" stop-color="#91D6B3" stop-opacity=".09"/><stop offset=".45" stop-color="#6CC899" stop-opacity=".13"/><stop offset=".59" stop-color="#50BD85" stop-opacity=".18"/><stop offset=".73" stop-color="#3BB577" stop-opacity=".22"/><stop offset=".87" stop-color="#2FB16F" stop-opacity=".26"/><stop offset="1" stop-color="#2BAF6C" stop-opacity=".3"/></linearGradient><linearGradient id="j" x1="146.03" x2="132.69" y1="176.28" y2="139.65" gradientUnits="userSpaceOnUse"><stop stop-color="#BDF2D8" stop-opacity="0"/><stop offset=".24" stop-color="#C1F3DA" stop-opacity=".24"/><stop offset=".49" stop-color="#CDF5E2" stop-opacity=".49"/><stop offset=".74" stop-color="#E2F9EE" stop-opacity=".74"/><stop offset=".99" stop-color="#FEFFFE" stop-opacity=".99"/><stop offset="1" stop-color="#fff"/></linearGradient><linearGradient id="k" x1="176.52" x2="33.69" y1="112.97" y2="164.95" gradientUnits="userSpaceOnUse"><stop stop-color="#BDF2D8" stop-opacity=".1"/><stop offset=".21" stop-color="#D3F6E5" stop-opacity=".29"/><stop offset=".5" stop-color="#EBFBF3" stop-opacity=".55"/><stop offset=".78" stop-color="#FAFEFC" stop-opacity=".8"/><stop offset="1" stop-color="#fff"/></linearGradient><linearGradient id="l" x1="196.02" x2="48.94" y1="158.72" y2="198.13" gradientUnits="userSpaceOnUse"><stop stop-color="#FFDB92"/><stop offset=".19" stop-color="#FFDC96"/><stop offset=".38" stop-color="#FFE0A2"/><stop offset=".58" stop-color="#FFE7B7"/><stop offset=".77" stop-color="#FFF1D3"/><stop offset=".97" stop-color="#FFFDF8"/><stop offset="1" stop-color="#fff"/></linearGradient><linearGradient id="m" x1="109.5" x2="108.5" y1="142.41" y2="138.79" gradientUnits="userSpaceOnUse"><stop stop-color="#1652F0" stop-opacity=".3"/><stop offset="1" stop-color="#1652F0" stop-opacity="0"/></linearGradient><linearGradient id="n" x1="40.03" x2="186.85" y1="165.32" y2="125.98" gradientUnits="userSpaceOnUse"><stop stop-color="#F7A94C" stop-opacity=".3"/><stop offset=".15" stop-color="#F7AB50" stop-opacity=".26"/><stop offset=".3" stop-color="#F8B15C" stop-opacity=".21"/><stop offset=".45" stop-color="#F9BB71" stop-opacity=".17"/><stop offset=".6" stop-color="#FAC88D" stop-opacity=".12"/><stop offset=".75" stop-color="#FCDAB2" stop-opacity=".07"/><stop offset=".9" stop-color="#FEF0DF" stop-opacity=".03"/><stop offset="1" stop-color="#fff" stop-opacity="0"/></linearGradient><linearGradient id="o" x1="57.63" x2="204.45" y1="231" y2="191.66" gradientUnits="userSpaceOnUse"><stop stop-color="#F7A94C" stop-opacity=".3"/><stop offset=".15" stop-color="#F7AB50" stop-opacity=".26"/><stop offset=".3" stop-color="#F8B15C" stop-opacity=".21"/><stop offset=".45" stop-color="#F9BB71" stop-opacity=".17"/><stop offset=".6" stop-color="#FAC88D" stop-opacity=".12"/><stop offset=".75" stop-color="#FCDAB2" stop-opacity=".07"/><stop offset=".9" stop-color="#FEF0DF" stop-opacity=".03"/><stop offset="1" stop-color="#fff" stop-opacity="0"/></linearGradient><linearGradient id="p" x1="180.08" x2="161.83" y1="201.17" y2="133.07" gradientUnits="userSpaceOnUse"><stop stop-color="#FFDB92" stop-opacity="0"/><stop offset=".19" stop-color="#FFDC96" stop-opacity=".19"/><stop offset=".38" stop-color="#FFE0A2" stop-opacity=".38"/><stop offset=".58" stop-color="#FFE7B7" stop-opacity=".58"/><stop offset=".77" stop-color="#FFF1D3" stop-opacity=".77"/><stop offset=".97" stop-color="#FFFDF8" stop-opacity=".97"/><stop offset="1" stop-color="#fff"/></linearGradient><linearGradient id="q" x1="62.14" x2="135.85" y1="169.52" y2="150.23" gradientUnits="userSpaceOnUse"><stop stop-color="#fff" stop-opacity="0"/><stop offset=".1" stop-color="#FEF0DF" stop-opacity=".03"/><stop offset=".25" stop-color="#FCDAB2" stop-opacity=".07"/><stop offset=".4" stop-color="#FAC88D" stop-opacity=".12"/><stop offset=".55" stop-color="#F9BB71" stop-opacity=".17"/><stop offset=".7" stop-color="#F8B15C" stop-opacity=".21"/><stop offset=".85" stop-color="#F7AB50" stop-opacity=".26"/><stop offset="1" stop-color="#F7A94C" stop-opacity=".3"/></linearGradient><linearGradient id="r" x1="152.03" x2="141.94" y1="189.23" y2="151.58" gradientUnits="userSpaceOnUse"><stop stop-color="#FFDB92" stop-opacity="0"/><stop offset=".19" stop-color="#FFDC96" stop-opacity=".19"/><stop offset=".38" stop-color="#FFE0A2" stop-opacity=".38"/><stop offset=".58" stop-color="#FFE7B7" stop-opacity=".58"/><stop offset=".77" stop-color="#FFF1D3" stop-opacity=".77"/><stop offset=".97" stop-color="#FFFDF8" stop-opacity=".97"/><stop offset="1" stop-color="#fff"/></linearGradient><linearGradient id="s" x1="187.92" x2="41.1" y1="128.82" y2="168.16" gradientUnits="userSpaceOnUse"><stop stop-color="#FFDB92" stop-opacity=".1"/><stop offset=".17" stop-color="#FFE5B0" stop-opacity=".26"/><stop offset=".41" stop-color="#FFF0D2" stop-opacity=".47"/><stop offset=".63" stop-color="#FFF8EB" stop-opacity=".67"/><stop offset=".83" stop-color="#FFFDFA" stop-opacity=".85"/><stop offset="1" stop-color="#fff"/></linearGradient><linearGradient id="t" x1="119.55" x2="119.55" y1="166.07" y2="162.7" gradientUnits="userSpaceOnUse"><stop stop-color="#0B283F" stop-opacity=".3"/><stop offset="1" stop-color="#0B283F" stop-opacity="0"/></linearGradient><linearGradient id="u" x1="31.05" x2="47.05" y1="194" y2="194" gradientUnits="userSpaceOnUse"><stop stop-color="#1652F0" stop-opacity=".5"/><stop offset="1" stop-color="#fff" stop-opacity="0"/></linearGradient><linearGradient id="v" x1="208.04" x2="192.04" y1="194" y2="194" gradientUnits="userSpaceOnUse"><stop stop-color="#1652F0" stop-opacity=".4"/><stop offset="1" stop-color="#fff" stop-opacity="0"/></linearGradient><linearGradient id="w" x1="37.05" x2="37.05" y1="150" y2="238" gradientUnits="userSpaceOnUse"><stop stop-color="#D4EEFF"/><stop offset="1" stop-color="#99D6FF"/></linearGradient><linearGradient id="x" x1="202.04" x2="202.04" y1="150" y2="238" gradientUnits="userSpaceOnUse"><stop stop-color="#D4EEFF"/><stop offset="1" stop-color="#99D6FF"/></linearGradient><linearGradient id="y" x1="95.55" x2="95.55" y1="63.67" y2="120.51" gradientUnits="userSpaceOnUse"><stop offset="0" stop-color="#99D6FF"/><stop offset=".23" stop-color="#96D3FF"/><stop offset=".4" stop-color="#8DCAFE"/><stop offset=".55" stop-color="#7DBAFC"/><stop offset=".69" stop-color="#67A3F9"/><stop offset=".82" stop-color="#4A86F6"/><stop offset=".95" stop-color="#2763F2"/><stop offset="1" stop-color="#1652F0"/></linearGradient><linearGradient id="z" x1="95.55" x2="95.55" y1="60" y2="124" gradientUnits="userSpaceOnUse"><stop stop-color="#fff" stop-opacity=".5"/><stop offset="1" stop-color="#fff" stop-opacity="0"/></linearGradient><linearGradient id="A" x1="87.61" x2="97.97" y1="80.37" y2="95.56" gradientUnits="userSpaceOnUse"><stop stop-color="#fff" stop-opacity=".4"/><stop offset="1" stop-color="#fff"/></linearGradient><linearGradient id="B" x1="95.55" x2="95.55" y1="72.97" y2="111.74" gradientUnits="userSpaceOnUse"><stop stop-color="#fff" stop-opacity=".4"/><stop offset="1" stop-color="#fff"/></linearGradient><linearGradient id="C" x1="157.54" x2="157.54" y1="57.44" y2=".79" gradientUnits="userSpaceOnUse"><stop stop-color="#56B4FC" stop-opacity=".3"/><stop offset=".03" stop-color="#62B9FC" stop-opacity=".32"/><stop offset=".14" stop-color="#8CCCFD" stop-opacity=".4"/><stop offset=".25" stop-color="#AFDCFE" stop-opacity=".47"/><stop offset=".37" stop-color="#CCE8FE" stop-opacity=".56"/><stop offset=".5" stop-color="#E3F2FE" stop-opacity=".65"/><stop offset=".63" stop-color="#F3FAFF" stop-opacity=".74"/><stop offset=".79" stop-color="#FCFEFF" stop-opacity=".85"/><stop offset="1" stop-color="#fff"/></linearGradient><linearGradient id="D" x1="153.54" x2="153.54" y1="57.44" y2=".79" gradientUnits="userSpaceOnUse"><stop stop-color="#56B4FC" stop-opacity=".3"/><stop offset=".15" stop-color="#5AB6FC" stop-opacity=".25"/><stop offset=".31" stop-color="#66BBFC" stop-opacity=".21"/><stop offset=".46" stop-color="#7BC4FD" stop-opacity=".16"/><stop offset=".62" stop-color="#97D1FD" stop-opacity=".11"/><stop offset=".78" stop-color="#BCE1FE" stop-opacity=".07"/><stop offset=".93" stop-color="#E9F5FF" stop-opacity=".02"/><stop offset="1" stop-color="#fff" stop-opacity="0"/></linearGradient><linearGradient id="E" x1="162.54" x2="162.54" y1="65.44" y2="8.79" gradientUnits="userSpaceOnUse"><stop stop-color="#56B4FC" stop-opacity=".3"/><stop offset=".15" stop-color="#5AB6FC" stop-opacity=".25"/><stop offset=".31" stop-color="#66BBFC" stop-opacity=".21"/><stop offset=".46" stop-color="#7BC4FD" stop-opacity=".16"/><stop offset=".62" stop-color="#97D1FD" stop-opacity=".11"/><stop offset=".78" stop-color="#BCE1FE" stop-opacity=".07"/><stop offset=".93" stop-color="#E9F5FF" stop-opacity=".02"/><stop offset="1" stop-color="#fff" stop-opacity="0"/></linearGradient><linearGradient id="F" x1="157.54" x2="157.54" y1="72" y2="44" gradientUnits="userSpaceOnUse"><stop stop-color="#1652F0"/><stop offset="1" stop-color="#99D6FF"/></linearGradient><linearGradient id="G" x1="157.54" x2="157.54" y1="72" y2="44" gradientUnits="userSpaceOnUse"><stop stop-color="#99D6FF" stop-opacity="0"/><stop offset=".2" stop-color="#9DD8FF" stop-opacity=".1"/><stop offset=".39" stop-color="#A9DDFF" stop-opacity=".2"/><stop offset=".6" stop-color="#BEE5FF" stop-opacity=".3"/><stop offset=".8" stop-color="#DAF0FF" stop-opacity=".4"/><stop offset="1" stop-color="#fff" stop-opacity=".5"/><stop offset="1" stop-color="#fff" stop-opacity=".5"/></linearGradient></defs></svg>