<svg xmlns="http://www.w3.org/2000/svg" fill="none" viewBox="0 0 48 48"><path fill="#BFE9FF" d="M48 3H0v42h48V3z"/><path fill="#56B4FC" d="M37.5 48h-27c-.825 0-1.5-.675-1.5-1.5v-45C9 .675 9.675 0 10.5 0h27c.825 0 1.5.675 1.5 1.5v45c0 .825-.675 1.5-1.5 1.5z"/><path fill="#1652F0" d="M39 3H9v42h30V3z"/><path fill="#fff" d="m28.766 21.34-1.06-1.06-6.365 6.364 1.06 1.06 6.365-6.363z"/><path fill="#fff" d="m22.401 27.742 1.06-1.06L20.28 23.5l-1.06 1.06 3.181 3.183z"/><path fill="#56B4FC" d="M31.5 4.5h-15c-.825 0-1.5-.675-1.5-1.5V1.5h18V3c0 .825-.675 1.5-1.5 1.5z"/><path fill="#fff" d="M21 42.75c0 .45.3.75.75.75h4.5c.45 0 .75-.3.75-.75s-.3-.75-.75-.75h-4.5c-.45 0-.75.3-.75.75z"/></svg>