<svg xmlns="http://www.w3.org/2000/svg" fill="none" viewBox="0 0 120 120"><mask id="a" width="122" height="122" x="-1" y="-1" mask-type="alpha" maskUnits="userSpaceOnUse"><rect width="121" height="121" x="-.5" y="-.5" fill="#3A6FFA" stroke="#F1F3F5" rx="11.5"/></mask><g mask="url(#a)"><path fill="url(#b)" stroke="url(#c)" stroke-width=".5" d="m55.19 68.061-.25-.003v.112a14.782 14.782 0 0 0 .096 1.389c.104.894.322 2.09.776 3.29.454 1.2 1.149 2.415 2.215 3.333 1.071.92 2.503 1.528 4.404 1.529h.152c.1-.001.244-.006.429-.02.369-.028.898-.092 1.547-.236 1.209-.27 2.833-.819 4.606-1.934v2.806c0 .987-.493 1.903-1.277 2.387l-.007.004-.006.004c-1.955 1.373-4.239 2.16-6.594 2.423-5.758.494-10.252-1.042-13.305-3.957-3.056-2.918-4.7-7.246-4.7-12.393V33.48H29.25v-5.816c0-.116.081-.232.25-.283h13.71v-9.85c0-1.11-.278-1.959-.708-2.604a3.986 3.986 0 0 0-1.558-1.352 5.468 5.468 0 0 0-1.533-.49 5.452 5.452 0 0 0-.69-.07h-.016v.25-.25h-.747V10.87L54.94 7.308v20.14h47.511a.56.56 0 0 1 .548.55v2.697L77.414 56.419l-.073.074v.125c-.001.113-.002.28.14.42l.035.037.048.02.326.127c1.788.698 8.072 3.15 14.227 7.634 6.622 4.823 13.049 11.962 13.608 21.751V86.616l.001.013.003.057.011.227c.006.2.013.493.009.868-.008.75-.054 1.824-.212 3.116-.315 2.585-1.074 6.036-2.843 9.506-1.769 3.469-4.548 6.959-8.909 9.628-4.361 2.67-10.32 4.527-18.459 4.71-14.375.232-21.012-3.969-24.072-8.155a13.627 13.627 0 0 1-2.448-5.801 12.317 12.317 0 0 1-.173-1.918 8.547 8.547 0 0 1 .021-.67l.003-.035.001-.007v-.002l.002-.012v-.011c.064-3.928 3.34-7.085 7.257-7.02h.004c2.504 0 4.31.797 5.493 2.054 1.185 1.26 1.768 3.01 1.768 4.962v.006c.064 2.357-1.397 4.529-3.56 5.426a.562.562 0 0 0-.344.324.663.663 0 0 0-.005.455l.004.012.005.011c.635 1.431 1.988 2.441 3.61 3.155 1.624.716 3.551 1.151 5.39 1.415 1.842.265 3.605.359 4.908.387a42.258 42.258 0 0 0 1.997-.004l.115-.004.03-.001H75.34l-.01-.25.01.25.007-.001c5.178-.353 8.926-1.918 11.63-4.082 2.7-2.162 4.342-4.911 5.33-7.605.988-2.693 1.325-5.339 1.416-7.308.046-.986.03-1.804.002-2.376a17.591 17.591 0 0 0-.06-.843l-.005-.046v-.002c-.007-2.22-1.576-6.967-5.925-11.63-4.367-4.682-11.544-9.289-22.79-11.198 0-.522.007-2.797.064-5.65l24.325-24.66.42-.426H54.94v34.58h.25zm0 0v-34.08l13.975 41.244c-3.678 2.363-6.73 2.236-6.73 2.236-7.378 0-7.245-9.4-7.245-9.4zm22.4-11.465 25.659-25.798v-2.8a.81.81 0 0 0-.798-.8H55.19V7.255l22.4 49.34zm0 0c0 .133 0 .2.067.266m-.066-.266.066.266m0 0 .325.128m-.325-.128.325.128m0 0c3.712 1.448 26.902 10.497 27.992 29.603 0 0 2.061 27.664-30.643 28.398l2.651-58.001zM54.94 7.052l-17.232 3.614v2.35L54.94 7.052z"/><path fill="url(#d)" d="M52 95c19.33 0 35-15.67 35-35S71.33 25 52 25 17 40.67 17 60s15.67 35 35 35z"/></g><path fill="#0D61FF" d="M52 92c17.673 0 32-14.327 32-32 0-17.673-14.327-32-32-32-17.673 0-32 14.327-32 32 0 17.673 14.327 32 32 32z"/><path fill="#fff" d="M65.61 69.5c-.42-7.338-9.66-10.674-10.525-11.02-.025-.024-.025-.049-.025-.098l9.537-9.562v-1.037a.3.3 0 0 0-.296-.297H46.734V40l-6.497 1.359v.963h.37s1.581 0 1.581 1.582v3.557h-5.015c-.099.025-.173.1-.173.198v2.248h5.213v12.255c0 3.854 2.47 6.522 6.794 6.152a5.37 5.37 0 0 0 2.496-.914 1.13 1.13 0 0 0 .519-.964v-1.21c-1.409.938-2.595.889-2.595.889-2.742 0-2.693-3.484-2.693-3.484V49.907H59.36l-9.067 9.167c-.025 1.21-.025 2.149-.025 2.174 0 .024.025.05.05.05h.025c8.326 1.407 10.599 6.793 10.599 8.375 0 0 .914 7.634-6.72 8.153 0 0-4.991.222-5.88-1.78-.025-.073 0-.147.073-.172.84-.346 1.409-1.186 1.384-2.1 0-1.483-.89-2.693-2.792-2.693a2.753 2.753 0 0 0-2.792 2.693s-.716 6.424 10.007 6.25C66.376 79.754 65.61 69.5 65.61 69.5z"/><path stroke="url(#e)" stroke-opacity=".5" stroke-width="1.5" d="M83.25 60c0 17.259-13.991 31.25-31.25 31.25S20.75 77.259 20.75 60 34.741 28.75 52 28.75 83.25 42.741 83.25 60z"/><path stroke="url(#f)" stroke-width=".5" d="M83.75 60c0 17.535-14.215 31.75-31.75 31.75S20.25 77.535 20.25 60 34.465 28.25 52 28.25 83.75 42.465 83.75 60z"/><path fill="#FFAE24" d="m31 29-1.41 6.59L23 37l6.59 1.41L31 45l1.41-6.59L39 37l-6.59-1.41L31 29z"/><path fill="#0052FF" d="M14 33a1 1 0 1 1 0-2 1 1 0 0 1 0 2z"/><path fill="#0052FF" fill-opacity=".5" d="M27 21a1 1 0 1 1 0-2 1 1 0 0 1 0 2z"/><defs><linearGradient id="b" x1="67.5" x2="67.5" y1="7" y2="115" gradientUnits="userSpaceOnUse"><stop offset=".67" stop-color="#0052FF" stop-opacity=".3"/><stop offset="1" stop-color="#fff" stop-opacity="0"/></linearGradient><linearGradient id="c" x1="67.5" x2="67.5" y1="7" y2="115" gradientUnits="userSpaceOnUse"><stop stop-color="#fff" stop-opacity=".7"/><stop offset="1" stop-color="#fff" stop-opacity="0"/></linearGradient><linearGradient id="d" x1="77" x2="27" y1="87" y2="37" gradientUnits="userSpaceOnUse"><stop stop-color="#0052FF" stop-opacity=".3"/><stop offset=".78" stop-color="#fff" stop-opacity="0"/></linearGradient><linearGradient id="e" x1="75.5" x2="29.5" y1="80.5" y2="36" gradientUnits="userSpaceOnUse"><stop stop-color="#fff" stop-opacity="0"/><stop offset="1" stop-color="#fff"/></linearGradient><linearGradient id="f" x1="28" x2="80" y1="35.5" y2="87.5" gradientUnits="userSpaceOnUse"><stop stop-color="#fff"/><stop offset="1" stop-color="#fff" stop-opacity="0"/></linearGradient></defs></svg>