<svg xmlns="http://www.w3.org/2000/svg" fill="none" viewBox="0 0 120 120"><mask id="c" fill="#fff"><path fill-rule="evenodd" d="m98.702 43.991-.65.65c-1.946 1.297-4.541 1.946-9.732 1.946-7.138.649-17.52 1.298-28.551 1.298-11.031 0-21.413-.65-28.551-1.298-5.191 0-7.787-.65-9.733-1.947l-.65-.649c-1.297-1.946-1.297-5.19-1.297-10.382 0-5.19 0-8.435 1.298-10.382l.649-.649c1.946-1.298 4.542-1.947 9.733-1.947 7.786-.648 17.52-1.297 28.55-1.297 5.995 0 11.607.191 16.73.366 4.305.147 8.266.283 11.822.283.766.095 1.477.177 2.136.253 3.807.438 5.938.683 7.597 2.342l.649.649c1.297 1.947 1.297 5.191 1.297 10.382 0 5.84 0 8.436-1.297 10.382zM38.356 66.702c-.73-.364-1.458-.524-2.302-.709-.658-.144-1.387-.304-2.24-.588-2.596 0-3.894 0-5.84-.65-3.245 0-5.192 0-6.49.65-1.297 1.297-1.946 3.244-1.946 6.488-.649 4.543-1.298 11.031-1.298 18.818 0 5.84 0 10.382.65 14.924.095.767.177 1.477.252 2.137.439 3.807.684 5.937 2.343 7.597 1.946 1.297 5.19 1.297 10.382 1.297h9.084c3.245 0 5.191 0 5.84-1.297 1.298-1.298 1.298-2.596 1.298-5.84V81.627c0-5.191 0-7.787-2.596-11.031-1.46-1.947-2.92-2.434-4.927-3.103-.67-.223-1.4-.466-2.21-.79zm60.622 3.12c-.347-2.048-.58-3.423-1.573-4.418-1.947-.648-3.894-.648-7.138-.648-.584 0-1.298.13-2.084.275-.964.177-2.036.373-3.107.373-1.54 0-2.675.407-4.045.898-.362.13-.74.265-1.146.4-.562.225-1.066.41-1.528.581-2.205.814-3.464 1.279-5.61 3.962-2.596 3.244-2.596 5.84-2.596 11.03v27.902c0 3.245 0 5.192 1.298 5.84 1.298.649 2.596.649 5.84.649h9.085c5.84 0 8.435 0 10.382-1.946 1.659-1.659 1.904-3.79 2.342-7.597v-.001c.076-.659.157-1.369.253-2.136.649-3.893.649-9.084.649-14.924 0-3.97-.2-7.74-.379-11.085-.142-2.67-.27-5.068-.27-7.084a67.771 67.771 0 0 1-.373-2.07z" clip-rule="evenodd"/></mask><path fill="url(#a)" fill-rule="evenodd" d="m98.702 43.991-.65.65c-1.946 1.297-4.541 1.946-9.732 1.946-7.138.649-17.52 1.298-28.551 1.298-11.031 0-21.413-.65-28.551-1.298-5.191 0-7.787-.65-9.733-1.947l-.65-.649c-1.297-1.946-1.297-5.19-1.297-10.382 0-5.19 0-8.435 1.298-10.382l.649-.649c1.946-1.298 4.542-1.947 9.733-1.947 7.786-.648 17.52-1.297 28.55-1.297 5.995 0 11.607.191 16.73.366 4.305.147 8.266.283 11.822.283.766.095 1.477.177 2.136.253 3.807.438 5.938.683 7.597 2.342l.649.649c1.297 1.947 1.297 5.191 1.297 10.382 0 5.84 0 8.436-1.297 10.382zM38.356 66.702c-.73-.364-1.458-.524-2.302-.709-.658-.144-1.387-.304-2.24-.588-2.596 0-3.894 0-5.84-.65-3.245 0-5.192 0-6.49.65-1.297 1.297-1.946 3.244-1.946 6.488-.649 4.543-1.298 11.031-1.298 18.818 0 5.84 0 10.382.65 14.924.095.767.177 1.477.252 2.137.439 3.807.684 5.937 2.343 7.597 1.946 1.297 5.19 1.297 10.382 1.297h9.084c3.245 0 5.191 0 5.84-1.297 1.298-1.298 1.298-2.596 1.298-5.84V81.627c0-5.191 0-7.787-2.596-11.031-1.46-1.947-2.92-2.434-4.927-3.103-.67-.223-1.4-.466-2.21-.79zm60.622 3.12c-.347-2.048-.58-3.423-1.573-4.418-1.947-.648-3.894-.648-7.138-.648-.584 0-1.298.13-2.084.275-.964.177-2.036.373-3.107.373-1.54 0-2.675.407-4.045.898-.362.13-.74.265-1.146.4-.562.225-1.066.41-1.528.581-2.205.814-3.464 1.279-5.61 3.962-2.596 3.244-2.596 5.84-2.596 11.03v27.902c0 3.245 0 5.192 1.298 5.84 1.298.649 2.596.649 5.84.649h9.085c5.84 0 8.435 0 10.382-1.946 1.659-1.659 1.904-3.79 2.342-7.597v-.001c.076-.659.157-1.369.253-2.136.649-3.893.649-9.084.649-14.924 0-3.97-.2-7.74-.379-11.085-.142-2.67-.27-5.068-.27-7.084a67.771 67.771 0 0 1-.373-2.07z" clip-rule="evenodd"/><path fill="url(#b)" d="m98.053 44.64.277.416.041-.027.035-.035-.353-.354zm.649-.649.353.354.035-.035.028-.041-.416-.278zM88.32 46.587v-.5h-.023l-.023.002.046.498zm-57.102 0 .045-.498-.023-.002h-.022v.5zm-9.733-1.947-.354.354.035.035.041.027.278-.416zm-.65-.649-.415.278.027.04.035.036.354-.354zm0-20.764-.353-.354-.035.035-.027.042.416.277zm.65-.649-.278-.416-.04.028-.036.035.354.353zm9.733-1.947v.5h.02l.021-.001-.041-.498zm45.28-.93.018-.5-.017.5zm11.822.282.062-.497-.031-.003h-.031v.5zm2.136.253-.057.497.057-.497zm7.597 2.342.353-.353-.353.353zm.649.649.416-.277-.028-.041-.035-.035-.353.353zM36.054 65.993l.107-.488-.107.488zm2.302.71-.224.447.019.009.019.007.186-.464zm-4.543-1.299.158-.474-.076-.026h-.082v.5zm-5.84-.648.159-.475-.077-.025h-.081v.5zm-6.488.648-.224-.447-.072.037-.058.057.354.353zm-1.947 6.49.495.07.005-.035v-.036h-.5zm-.649 33.741.496-.062v-.008l-.496.07zm.253 2.137-.496.057v.002l.496-.059zm0 0 .497-.057v-.002l-.496.059zm2.343 7.597-.354.353.035.035.041.028.278-.416zm25.306 0-.353-.354-.058.057-.036.073.447.224zm-1.298-44.773-.4.3.005.006.005.006.39-.312zm-4.927-3.103-.158.475.158-.475zm58.412 2.33-.493.083.004.027.008.027.48-.138zm0 0 .493-.084-.005-.027-.008-.027-.48.137zm-1.573-4.418.353-.354-.083-.084-.112-.037-.159.474zm-9.222-.374.082.493.008-.001-.09-.492zm0 0-.083-.493-.008.001.09.492zm-7.153 1.27-.168-.47.169.47zm-1.145.401-.159-.474-.013.005-.014.005.186.464zm-1.528.581-.173-.469.173.47zm-5.61 3.962.39.312-.39-.313zm-1.298 44.772-.223.448.223-.448zm27.649-8.894.496.057v-.004l-.496-.053zm0-.001-.497-.057v.004l.497.053zm.253-2.136-.493-.082-.002.01-.001.01.496.062zm.27-26.01h-.5v.027l.5-.026zm0 0h.5v-.013l-.001-.013-.499.026zm-.27-7.083h.5v-.05l-.01-.048-.49.098zm-.945-26.9.65-.648-.708-.707-.649.649.707.707zM88.32 47.088c5.22 0 7.939-.65 10.01-2.03l-.555-.833c-1.821 1.215-4.294 1.863-9.455 1.863v1zm-28.551 1.298c11.049 0 21.446-.65 28.596-1.3l-.09-.996c-7.127.648-17.493 1.296-28.506 1.296v1zm-28.596-1.3c7.15.65 17.547 1.3 28.596 1.3v-1c-11.013 0-21.38-.648-28.506-1.296l-.09.996zm-9.966-2.029c2.072 1.381 4.79 2.03 10.01 2.03v-1c-5.16 0-7.633-.648-9.455-1.862l-.555.832zm-.725-.711.649.649.707-.707-.649-.65-.707.708zm-1.444-10.736c0 2.587 0 4.723.164 6.455.165 1.73.5 3.128 1.218 4.205l.832-.555c-.58-.87-.894-2.068-1.054-3.745-.16-1.674-.16-3.755-.16-6.36h-1zm1.382-10.66c-.718 1.078-1.053 2.475-1.218 4.205-.165 1.732-.164 3.868-.164 6.455h1c0-2.604 0-4.686.16-6.36.16-1.677.474-2.875 1.054-3.745l-.832-.554zm.711-.724-.649.648.707.708.65-.65-.708-.706zm10.087-2.094c-5.221 0-7.94.65-10.01 2.031l.554.832c1.822-1.214 4.295-1.863 9.456-1.863v-1zm28.55-1.297c-11.05 0-20.798.65-28.592 1.3l.083.996c7.78-.649 17.498-1.296 28.51-1.296v-1zm16.748.367c-5.124-.175-10.743-.367-16.747-.367v1c5.985 0 11.588.191 16.712.366l.035-1zm11.804.282c-3.545 0-7.497-.135-11.804-.282l-.035.999c4.303.147 8.273.283 11.839.283v-1zm2.193.256c-.66-.076-1.367-.157-2.131-.253l-.125.993c.77.096 1.483.178 2.142.254l.114-.994zm7.893 2.486c-1.807-1.808-4.142-2.054-7.893-2.486l-.114.994c3.864.444 5.79.688 7.3 2.199l.707-.707zm.65.648-.65-.648-.707.707.65.649.706-.707zm1.443 10.736c0-2.587.001-4.723-.164-6.455-.165-1.73-.5-3.127-1.217-4.204l-.832.554c.58.87.894 2.068 1.053 3.745.16 1.674.16 3.756.16 6.36h1zm-1.381 10.66c.712-1.069 1.05-2.295 1.217-3.96.165-1.652.164-3.79.164-6.7h-1c0 2.931 0 5.01-.16 6.601-.157 1.58-.468 2.625-1.053 3.504l.832.555zm-63.17 22.213c.852.186 1.52.335 2.184.668l.447-.895c-.793-.396-1.583-.567-2.418-.75l-.214.977zm-2.293-.603c.882.294 1.634.458 2.292.603l.214-.977c-.658-.145-1.364-.3-2.19-.575l-.316.949zm-5.84-.649c2.033.678 3.407.674 5.998.674v-1c-2.599 0-3.821-.002-5.681-.623l-.317.949zm-6.107.622c.563-.282 1.298-.437 2.33-.517 1.03-.079 2.306-.08 3.936-.08v-1c-1.616 0-2.935 0-4.013.083-1.077.083-1.965.252-2.7.62l.447.894zm-1.67 6.041c0-3.187.639-4.973 1.8-6.135l-.707-.707c-1.434 1.434-2.093 3.54-2.093 6.842h1zM18.74 90.711c0-7.76.647-14.224 1.293-18.747l-.99-.141c-.652 4.561-1.303 11.074-1.303 18.888h1zm.644 14.854c-.643-4.501-.644-9.006-.644-14.854h-1c0 5.832 0 10.411.654 14.995l.99-.141zm.255 2.15c-.076-.66-.158-1.372-.254-2.142l-.992.124c.095.764.177 1.472.253 2.132l.993-.114zm0-.002-.993.118.993-.118zm2.2 7.302c-1.512-1.511-1.755-3.437-2.2-7.3l-.993.114c.431 3.751.678 6.086 2.485 7.893l.707-.707zm10.028 1.151c-2.605 0-4.686 0-6.36-.16-1.677-.159-2.875-.474-3.745-1.053l-.555.832c1.077.718 2.475 1.052 4.205 1.217 1.732.165 3.868.164 6.455.164v-1zm0 0v1-1zm.649 0h-.65v1h.65v-1zm8.435 0h-8.435v1h8.435v-1zm0 0v1-1zm5.393-1.021c-.217.433-.664.713-1.582.866-.922.154-2.171.155-3.81.155v1c1.604 0 2.95.002 3.975-.169 1.029-.171 1.88-.54 2.311-1.405l-.894-.447zm1.245-5.616c0 1.641-.002 2.723-.154 3.56-.145.798-.424 1.353-.998 1.926l.708.707c.724-.724 1.094-1.467 1.274-2.454.172-.947.17-2.136.17-3.739h-1zm0-15.574v15.574h1V93.955h-1zm0-12.328v12.328h1V81.627h-1zm-2.486-10.719c1.25 1.562 1.862 2.947 2.17 4.567.314 1.647.316 3.54.316 6.152h1c0-2.58.002-4.58-.333-6.34-.34-1.787-1.026-3.321-2.372-5.004l-.781.625zm-4.695-2.94c1.999.666 3.325 1.114 4.685 2.928l.8-.6c-1.56-2.08-3.153-2.605-5.169-3.277l-.316.948zm-2.238-.802c.826.331 1.57.579 2.238.802l.316-.95a37.99 37.99 0 0 1-2.183-.78l-.371.928zm60.327 2.794.961-.275-.961.275zm-1.446-4.202c.859.859 1.079 2.05 1.433 4.148l.987-.167c-.338-1.998-.583-3.558-1.713-4.688l-.707.707zm-6.784-.502c3.268 0 5.125.005 6.98.623l.316-.949c-2.04-.68-4.075-.674-7.296-.674v1zm-1.994.267c.802-.147 1.466-.267 1.994-.267v-1c-.64 0-1.404.142-2.175.283l.18.984zm-.008.001-.165-.986.165.986zm-3.19.38c1.125 0 2.241-.206 3.198-.381l-.18-.984c-.971.178-1.999.365-3.017.365v1zm-3.876.869c1.374-.493 2.433-.868 3.877-.868v-1c-1.638 0-2.847.436-4.214.926l.337.942zm-1.156.404c.412-.138.795-.275 1.156-.404l-.337-.942c-.362.13-.735.264-1.135.397l.316.949zm-1.513.575c.462-.17.971-.358 1.54-.585l-.371-.929c-.555.222-1.053.406-1.515.576l.346.939zm-5.393 3.805c1.052-1.315 1.865-2.059 2.664-2.573.805-.519 1.618-.821 2.73-1.231l-.347-.939c-1.094.404-2.013.741-2.925 1.329-.919.592-1.808 1.422-2.903 2.79l.781.624zm-2.486 10.718c0-2.61.002-4.505.316-6.151.308-1.62.921-3.005 2.17-4.567l-.78-.625c-1.347 1.683-2.032 3.217-2.372 5.004-.335 1.76-.334 3.76-.334 6.34h1zm0 12.33v-12.33h-1v12.33h1zm0 15.572V94.604h-1v15.573h1zm1.022 5.393c-.433-.216-.713-.664-.866-1.581-.154-.923-.156-2.172-.156-3.812h-1c0 1.605-.001 2.952.17 3.976.17 1.029.54 1.879 1.405 2.312l.447-.895zm5.616.596c-3.292 0-4.448-.012-5.616-.596l-.447.895c1.427.713 2.866.701 6.063.701v-1zm8.436 0h-8.436v1h8.436v-1zm.649 0h-.65v1h.65v-1zm10.028-1.8c-.877.877-1.902 1.33-3.452 1.563-1.576.236-3.64.237-6.576.237v1c2.903 0 5.057.002 6.725-.249 1.695-.254 2.94-.774 4.01-1.844l-.707-.707zm2.199-7.3c-.444 3.864-.688 5.789-2.199 7.3l.707.707c1.808-1.807 2.054-4.142 2.485-7.893l-.993-.114zm0 .003v.001l.994.106-.994-.107zm.254-2.145c-.096.77-.178 1.482-.254 2.141l.993.115c.076-.66.158-1.368.253-2.132l-.992-.124zm.645-14.862c0 5.856-.001 10.999-.642 14.842l.986.165c.658-3.944.656-9.183.656-15.007h-1zm-.378-11.059c.178 3.347.378 7.104.378 11.06h1c0-3.987-.202-7.769-.38-11.113l-.998.053zm0-.027h.999-1zm-.27-7.083c0 2.032.128 4.445.27 7.11l.998-.053c-.142-2.673-.269-5.057-.269-7.057h-1zm-.367-1.987c.105.624.222 1.319.376 2.085l.98-.196c-.15-.75-.265-1.43-.37-2.056l-.986.167z" mask="url(#c)"/><path fill="url(#d)" d="M60 96c19.882 0 36-16.118 36-36S79.882 24 60 24 24 40.118 24 60s16.118 36 36 36z"/><path fill="#178DD0" d="M60 92c17.673 0 32-14.327 32-32 0-17.673-14.327-32-32-32-17.673 0-32 14.327-32 32 0 17.673 14.327 32 32 32z"/><path fill="#fff" fill-rule="evenodd" d="m73.76 51.12-.24.24c-.72.48-1.68.72-3.6.72-2.64.24-6.48.48-10.56.48s-7.92-.24-10.56-.48c-1.92 0-2.88-.24-3.6-.72l-.24-.24c-.48-.72-.48-1.92-.48-3.84s0-3.12.48-3.84l.24-.24c.72-.48 1.68-.72 3.6-.72 2.88-.24 6.48-.48 10.56-.48 2.217 0 4.293.07 6.188.136 1.592.054 3.057.104 4.372.104.284.035.546.066.79.094 1.408.162 2.196.252 2.81.866l.24.24c.48.72.48 1.92.48 3.84 0 2.16 0 3.12-.48 3.84zm-22.32 8.4c-.27-.135-.54-.194-.851-.262a7.641 7.641 0 0 1-.829-.218c-.96 0-1.44 0-2.16-.24-1.2 0-1.92 0-2.4.24-.48.48-.72 1.2-.72 2.4-.24 1.68-.48 4.08-.48 6.96 0 2.16 0 3.84.24 5.52.035.284.066.546.094.79.162 1.408.252 2.196.866 2.81.72.48 1.92.48 3.84.48H52.4c1.2 0 1.92 0 2.16-.48.48-.48.48-.96.48-2.16V65.04c0-1.92 0-2.88-.96-4.08-.54-.72-1.08-.9-1.822-1.148-.248-.082-.518-.172-.818-.292zM74 61.44c-.056-.28-.099-.535-.138-.766-.128-.758-.214-1.266-.582-1.634-.72-.24-1.44-.24-2.64-.24-.216 0-.48.049-.77.102-.357.065-.753.138-1.15.138-.57 0-.989.15-1.496.332-.134.048-.273.098-.424.148-.208.083-.394.152-.565.215-.816.301-1.281.473-2.075 1.465-.96 1.2-.96 2.16-.96 4.08V75.6c0 1.2 0 1.92.48 2.16.48.24.96.24 2.16.24H69.2c2.16 0 3.12 0 3.84-.72.614-.614.704-1.402.866-2.81.028-.244.059-.506.094-.79.24-1.44.24-3.36.24-5.52 0-1.468-.074-2.863-.14-4.1-.052-.987-.1-1.875-.1-2.62z" clip-rule="evenodd"/><path stroke="url(#e)" stroke-opacity=".5" stroke-width="1.5" d="M91.25 60c0 17.259-13.991 31.25-31.25 31.25S28.75 77.259 28.75 60 42.741 28.75 60 28.75 91.25 42.74 91.25 60z"/><path stroke="url(#f)" stroke-width=".5" d="M91.75 60c0 17.535-14.215 31.75-31.75 31.75S28.25 77.535 28.25 60 42.465 28.25 60 28.25 91.75 42.465 91.75 60z"/><path fill="#FFAE24" d="m38 29-1.41 6.59L30 37l6.59 1.41L38 45l1.41-6.59L46 37l-6.59-1.41L38 29z"/><path fill="#0052FF" d="M21 33a1 1 0 1 1 0-2 1 1 0 0 1 0 2z"/><path fill="#0052FF" fill-opacity=".5" d="M34 21a1 1 0 1 1 0-2 1 1 0 0 1 0 2z"/><defs><linearGradient id="a" x1="59.12" x2="59.12" y1="42" y2="96.5" gradientUnits="userSpaceOnUse"><stop stop-color="#0052FF" stop-opacity=".3"/><stop offset="1" stop-color="#0052FF" stop-opacity="0"/></linearGradient><linearGradient id="b" x1="59.12" x2="59.12" y1="42" y2="78" gradientUnits="userSpaceOnUse"><stop stop-color="#0052FF" stop-opacity=".3"/><stop offset="1" stop-color="#fff" stop-opacity="0"/></linearGradient><linearGradient id="d" x1="60" x2="60" y1="24" y2="96" gradientUnits="userSpaceOnUse"><stop stop-color="#fff" stop-opacity=".6"/><stop offset="1" stop-color="#fff" stop-opacity="0"/></linearGradient><linearGradient id="e" x1="83.5" x2="37.5" y1="80.5" y2="36" gradientUnits="userSpaceOnUse"><stop stop-color="#fff" stop-opacity="0"/><stop offset="1" stop-color="#fff"/></linearGradient><linearGradient id="f" x1="36" x2="88" y1="35.5" y2="87.5" gradientUnits="userSpaceOnUse"><stop stop-color="#fff"/><stop offset="1" stop-color="#fff" stop-opacity="0"/></linearGradient></defs></svg>