<svg xmlns="http://www.w3.org/2000/svg" fill="none" viewBox="0 0 240 240"><path fill="url(#a)" d="M60 204V0h84v204H60z"/><path fill="#1652F0" fill-opacity=".5" d="M86 232v-1h-1v1h1zM62 220v-1h-1v1h1zM74 220v-1h-1v1h1zM86 220v-1h-1v1h1zM38 208v-1h-1v1h1zM50 208v-1h-1v1h1zM62 208v-1h-1v1h1zM74 208v-1h-1v1h1zM86 208v-1h-1v1h1zM26 196v-1h-1v1h1zM38 196v-1h-1v1h1zM50 196v-1h-1v1h1zM62 196v-1h-1v1h1zM74 196v-1h-1v1h1zM86 196v-1h-1v1h1zM26 184v-1h-1v1h1zM38 184v-1h-1v1h1zM50 184v-1h-1v1h1zM62 184v-1h-1v1h1zM74 184v-1h-1v1h1zM86 184v-1h-1v1h1zM26 172v-1h-1v1h1zM38 172v-1h-1v1h1zM50 172v-1h-1v1h1zM62 172v-1h-1v1h1zM74 172v-1h-1v1h1zM86 172v-1h-1v1h1zM26 160v-1h-1v1h1zM38 160v-1h-1v1h1zM50 160v-1h-1v1h1zM62 160v-1h-1v1h1zM74 160v-1h-1v1h1zM86 160v-1h-1v1h1zM26 148v-1h-1v1h1zM38 148v-1h-1v1h1zM50 148v-1h-1v1h1zM62 148v-1h-1v1h1zM74 148v-1h-1v1h1zM86 148v-1h-1v1h1zM26 136v-1h-1v1h1zM38 136v-1h-1v1h1zM50 136v-1h-1v1h1zM62 136v-1h-1v1h1zM74 136v-1h-1v1h1zM86 136v-1h-1v1h1zM26 124v-1h-1v1h1zM38 124v-1h-1v1h1zM50 124v-1h-1v1h1zM62 124v-1h-1v1h1zM74 124v-1h-1v1h1zM86 124v-1h-1v1h1zM26 112v-1h-1v1h1zM38 112v-1h-1v1h1zM50 112v-1h-1v1h1zM62 112v-1h-1v1h1zM74 112v-1h-1v1h1zM86 112v-1h-1v1h1zM26 100v-1h-1v1h1zM38 100v-1h-1v1h1zM50 100v-1h-1v1h1zM62 100v-1h-1v1h1zM74 100v-1h-1v1h1zM86 100v-1h-1v1h1zM26 88v-1h-1v1h1zM38 88v-1h-1v1h1zM50 88v-1h-1v1h1zM62 88v-1h-1v1h1zM74 88v-1h-1v1h1zM86 88v-1h-1v1h1zM26 76v-1h-1v1h1zM38 76v-1h-1v1h1zM50 76v-1h-1v1h1zM62 76v-1h-1v1h1zM74 76v-1h-1v1h1zM86 76v-1h-1v1h1zM26 64v-1h-1v1h1zM38 64v-1h-1v1h1zM50 64v-1h-1v1h1zM62 64v-1h-1v1h1zM74 64v-1h-1v1h1zM86 64v-1h-1v1h1zM26 52v-1h-1v1h1zM38 52v-1h-1v1h1zM50 52v-1h-1v1h1zM62 52v-1h-1v1h1zM74 52v-1h-1v1h1zM86 52v-1h-1v1h1zM26 40v-1h-1v1h1zM38 40v-1h-1v1h1zM50 40v-1h-1v1h1zM62 40v-1h-1v1h1zM74 40v-1h-1v1h1zM86 40v-1h-1v1h1zM38 28v-1h-1v1h1zM50 28v-1h-1v1h1zM62 28v-1h-1v1h1zM74 28v-1h-1v1h1zM86 28v-1h-1v1h1zM86 16v-1h-1v1h1zM86 4V3h-1v1h1zM74 16v-1h-1v1h1z"/><path fill="#fff" d="m99.823 154.425-4.242-4.243-9.9 9.9 4.243 4.242 9.9-9.899z"/><path fill="#fff" stroke="url(#b)" d="M44.5 88V38c0-.824.676-1.5 1.5-1.5h88c.824 0 1.5.676 1.5 1.5v50c0 .824-.676 1.5-1.5 1.5H46c-.824 0-1.5-.676-1.5-1.5z"/><path fill="#1652F0" d="M74.25 50h-24v26h24V50zM136 38c0-1.1-.9-2-2-2H46c-1.1 0-2 .9-2 2v6h92v-6z"/><path fill="#fff" d="M70.25 62c0-4.42-3.58-8-8-8s-8 3.58-8 8v8h12v-1.07c2.39-1.39 4-3.97 4-6.93z"/><path fill="#fff" d="m60.32 62 6.19-6.77A8.063 8.063 0 0 0 62.25 54c-4.42 0-8 3.58-8 8v7.14h12v-.21c.09-.05.17-.11.25-.16L60.32 62z"/><path fill="url(#c)" d="m60.32 62 6.19-6.77A8.063 8.063 0 0 0 62.25 54c-4.42 0-8 3.58-8 8v7.14h12v-.21c.09-.05.17-.11.25-.16L60.32 62z"/><path fill="#fff" d="m60.32 62 6.19-6.77c-.32-.2-.65-.38-1-.53L58.83 62l6.52 7.13h.9v-.21c.09-.05.17-.11.25-.16L60.32 62z"/><path fill="#56B4FC" d="M70.25 62c0-2.96-1.61-5.54-4-6.93L59.92 62l6.33 6.93c2.39-1.39 4-3.97 4-6.93z"/><path fill="#fff" d="M66.25 69h-12v1h12v-1z"/><path fill="url(#d)" d="M65.77 55.6 59.92 62l4.67 5.1v-2.44h2c.37 0 .67-.3.67-.67V61h1.33l-2.82-5.4z"/><path fill="#fff" d="M59.92 63.33a1.33 1.33 0 1 0 0-2.66 1.33 1.33 0 0 0 0 2.66z"/><path fill="#D4EEFF" d="M59.92 62.67a.67.67 0 1 0 0-1.34.67.67 0 0 0 0 1.34z" opacity=".5"/><path fill="url(#e)" d="m64.14 66.62 2.11 2.31c2.39-1.38 4-3.97 4-6.93 0-2.96-1.61-5.54-4-6.93l-2.13 2.33c1.46.95 2.44 2.66 2.44 4.61 0 1.95-.97 3.65-2.42 4.61z" opacity=".5"/><path fill="url(#f)" d="M130 60H78v-8h52v8zm-22 4H78v2h30v-2zm22 0h-18v2h18v-2zm-32 4H78v2h20v-2zm32 0h-28v2h28v-2zm-20 4H78v2h32v-2zm20 0h-16v2h16v-2zm0 12H50v-4h80v4z"/><path fill="#fff" stroke="url(#g)" d="M82.5 112c0-30.654 24.846-55.5 55.5-55.5a55.211 55.211 0 0 1 23.5 5.217V138c0 1.934-1.566 3.5-3.5 3.5H90.996A55.255 55.255 0 0 1 82.5 112z"/><path fill="url(#h)" d="M150 94h-36v-4h36v4zm0 16v-4h-32v4h32zm-56-8h56v-4H94v4zm-9.03-8H106v-4H86.49c-.56 1.31-1.06 2.64-1.52 4zm5.75-12H150V66h-43.92a56.422 56.422 0 0 0-15.36 16zM150 130v-8H82.91c.49 2.74 1.19 5.41 2.07 8H150zm-64-28v-4h-2.24c-.34 1.31-.61 2.65-.86 4H86zm24 8v-4H82.32a52.65 52.65 0 0 0-.27 4H110z"/><circle cx="138" cy="112" r="54" fill="url(#i)" fill-opacity=".4"/><circle cx="138" cy="112" r="62" fill="url(#j)" fill-opacity=".3"/><path fill="#fff" d="M179.01 70.99c-22.65-22.65-59.37-22.65-82.02 0s-22.65 59.37 0 82.02 59.37 22.65 82.02 0 22.65-59.37 0-82.02zm-77.78 77.78c-20.31-20.31-20.31-53.23 0-73.54 20.31-20.31 53.23-20.31 73.54 0 20.31 20.31 20.31 53.23 0 73.54-20.31 20.31-53.23 20.31-73.54 0z"/><path stroke="url(#k)" d="M97.344 71.344c22.454-22.455 58.858-22.455 81.312 0 22.455 22.454 22.455 58.858 0 81.312-22.454 22.455-58.858 22.455-81.313 0-22.454-22.454-22.454-58.858 0-81.313z"/><path fill="#1652F0" d="m94.87 162.2-7.07-7.07a.996.996 0 0 0-1.41 0L50.32 191.2a.996.996 0 0 0 0 1.41l7.07 7.07c.39.39 1.02.39 1.41 0l36.06-36.06c.4-.39.4-1.02.01-1.42z"/><defs><linearGradient id="a" x1="102" x2="102" y1="-.28" y2="205.48" gradientUnits="userSpaceOnUse"><stop stop-color="#D4EEFF" stop-opacity="0"/><stop offset=".31" stop-color="#D4EEFF"/><stop offset="1" stop-color="#D4EEFF" stop-opacity=".3"/></linearGradient><linearGradient id="b" x1="90" x2="90" y1="36" y2="90" gradientUnits="userSpaceOnUse"><stop stop-color="#D4EEFF"/><stop offset="1" stop-color="#99D6FF"/></linearGradient><linearGradient id="c" x1="64.17" x2="55.21" y1="59.99" y2="68.95" gradientUnits="userSpaceOnUse"><stop stop-color="#D4EEFF" stop-opacity="0"/><stop offset=".31" stop-color="#D4EEFF"/><stop offset="1" stop-color="#D4EEFF" stop-opacity=".3"/></linearGradient><linearGradient id="d" x1="64.25" x2="64.25" y1="55.6" y2="67.1" gradientUnits="userSpaceOnUse"><stop/><stop offset="1" stop-opacity=".8"/></linearGradient><linearGradient id="e" x1="67.18" x2="67.18" y1="56.04" y2="72.28" gradientUnits="userSpaceOnUse"><stop stop-color="#fff"/><stop offset=".1" stop-color="#fff" stop-opacity=".9"/><stop offset="1" stop-color="#fff" stop-opacity="0"/></linearGradient><linearGradient id="f" x1="90" x2="90" y1="52.31" y2="91.53" gradientUnits="userSpaceOnUse"><stop stop-color="#D4EEFF"/><stop offset="1" stop-color="#fff"/></linearGradient><linearGradient id="g" x1="122" x2="122" y1="56" y2="142" gradientUnits="userSpaceOnUse"><stop stop-color="#D4EEFF"/><stop offset="1" stop-color="#99D6FF"/></linearGradient><linearGradient id="h" x1="116.03" x2="116.03" y1="66.61" y2="145.06" gradientUnits="userSpaceOnUse"><stop stop-color="#D4EEFF"/><stop offset="1" stop-color="#fff"/></linearGradient><linearGradient id="k" x1="138" x2="138" y1="54" y2="170" gradientUnits="userSpaceOnUse"><stop stop-color="#D4EEFF"/><stop offset="1" stop-color="#99D6FF"/></linearGradient><radialGradient id="i" cx="0" cy="0" r="1" gradientTransform="matrix(0 54 -54 0 138 112)" gradientUnits="userSpaceOnUse"><stop offset=".91" stop-color="#fff" stop-opacity="0"/><stop offset="1" stop-color="#1652F0"/></radialGradient><radialGradient id="j" cx="0" cy="0" r="1" gradientTransform="matrix(0 62 -62 0 138 112)" gradientUnits="userSpaceOnUse"><stop offset=".82" stop-color="#fff" stop-opacity="0"/><stop offset=".91" stop-color="#1652F0"/><stop offset="1" stop-color="#fff" stop-opacity="0"/></radialGradient></defs></svg>