<svg xmlns="http://www.w3.org/2000/svg" fill="none" viewBox="0 0 48 48"><path fill="#BFE9FF" d="M21 0v27l19.125 19.125C45 41.175 48 34.425 48 27 48 12.075 35.925 0 21 0z"/><path fill="#56B4FC" d="M21 48c11.598 0 21-9.402 21-21S32.598 6 21 6 0 15.402 0 27s9.402 21 21 21z"/><path fill="#1652F0" d="M35.85 41.85A20.918 20.918 0 0 0 42 27c0-11.625-9.375-21-21-21v21l14.85 14.85z"/><path fill="#fff" d="M21.375 9h-.75v1.5h.75V9zM12.33 11.236l-.65.375.75 1.299.65-.375-.75-1.299zM5.605 17.663l-.375.65 1.3.75.374-.65-1.299-.75zM4.5 26.625H3v.75h1.5v-.75zM6.533 34.917l-1.299.75.376.65 1.298-.75-.375-.65zM12.414 41.094l-.75 1.299.65.375.75-1.3-.65-.374zM21.375 43.5h-.75V45h.75v-1.5zM29.564 41.089l-.649.375.75 1.299.65-.375-.75-1.3zM35.469 34.937l-.375.65 1.299.75.375-.65-1.3-.75zM39 26.625h-1.5v.75H39v-.75zM36.387 17.683l-1.3.75.376.65 1.299-.75-.375-.65zM29.686 11.23l-.75 1.3.65.374.75-1.3-.65-.374zM21 28.5a1.5 1.5 0 1 0 0-3 1.5 1.5 0 0 0 0 3z"/><path fill="#fff" d="M21.375 15h-.75v12h.75V15z"/><path fill="#fff" d="m21.242 26.712-.53.53 5.993 5.993.53-.53-5.993-5.993z"/></svg>