<svg xmlns="http://www.w3.org/2000/svg" fill="none" viewBox="0 0 96 96"><g clip-path="url(#a)"><path fill="#464B55" d="M0 88h96v8H0v-8Z"/><path fill="#588AF5" d="M16 88h64v8H16v-8Z"/><path fill="#464B55" d="M0 88h96v8H0v-8ZM0 0h96v8H0V0Z"/><path fill="#588AF5" d="M16 88h64v8H16v-8Zm0-88h64v8H16V0Z"/><path fill="#45DAF6" d="M16 8h64v80H16V8Z"/><path fill="#44C28D" d="M48 64c8.837 0 16-7.163 16-16s-7.163-16-16-16-16 7.163-16 16 7.163 16 16 16Z"/><path fill="#FFFFFF" fill-rule="evenodd" d="M68 48c0 11.046-8.954 20-20 20s-20-8.954-20-20 8.954-20 20-20 20 8.954 20 20Zm-4 0c0 8.837-7.163 16-16 16s-16-7.163-16-16 7.163-16 16-16 16 7.163 16 16Z" clip-rule="evenodd"/><path fill="#0A0B0D" fill-rule="evenodd" d="m55.02 44.647-9.154 8.785-4.854-4.267 1.32-1.502 3.474 3.054 7.829-7.513 1.385 1.443Z" clip-rule="evenodd"/></g><defs><clipPath id="a"><path fill="#FFFFFF" d="M0 0h96v96H0z"/></clipPath></defs></svg>