<svg xmlns="http://www.w3.org/2000/svg" fill="none" viewBox="0 0 96 96"><path fill="#464B55" d="M16 32h64v32H16V32Z"/><path fill="#588AF5" d="M80 64c0 17.673-14.327 32-32 32-17.673 0-32-14.327-32-32 0-17.673 14.327-32 32-32 17.673 0 32 14.327 32 32Z"/><path fill="#ECD069" d="M80 32c0 17.673-14.327 32-32 32-17.673 0-32-14.327-32-32C16 14.327 30.327 0 48 0c17.673 0 32 14.327 32 32Z"/><path fill="#0A0B0D" d="M20.281 80C25.814 70.435 36.156 64 48 64c11.844 0 22.186 6.435 27.719 16C70.186 89.565 59.845 96 48 96c-11.844 0-22.186-6.435-27.719-16Z"/><path fill="#0A0B0D" fill-rule="evenodd" d="M48 14.81c-9.494 0-17.19 7.209-17.19 16.703H29C29 21.019 37.507 13 48 13s19 8.507 19 19-8.507 19-19 19a18.942 18.942 0 0 1-13.3-5.431l1.267-1.293A17.132 17.132 0 0 0 48 49.19c9.494 0 17.19-7.696 17.19-17.19 0-9.494-7.696-17.19-17.19-17.19Z" clip-rule="evenodd"/><path fill="#0A0B0D" fill-rule="evenodd" d="M34 44.144 41.372 43l.283 1.824-5.548.86.86 5.549-1.823.283L34 44.144ZM47 40V24h2v16h-2Z" clip-rule="evenodd"/><path fill="#0A0B0D" fill-rule="evenodd" d="M40 31h16v2H40v-2Z" clip-rule="evenodd"/></svg>