<svg xmlns="http://www.w3.org/2000/svg" fill="none" viewBox="0 0 97 96"><path fill="#0000FF" d="M55.107 57.107H40.895a2 2 0 0 1-2-2V40.893a2 2 0 0 1 2-2h14.212a2 2 0 0 1 2 2v14.214a2 2 0 0 1-2 2"/><path fill="#464B55" d="M94.002 96H79.79a2 2 0 0 1-2-2V79.786a2 2 0 0 1 2-2h14.212a2 2 0 0 1 2 2V94a2 2 0 0 1-2 2m0-77.786H79.79a2 2 0 0 1-2-2V2a2 2 0 0 1 2-2h14.212a2 2 0 0 1 2 2v14.214a2 2 0 0 1-2 2m0 38.893H79.79a2 2 0 0 1-2-2V40.893a2 2 0 0 1 2-2h14.212a2 2 0 0 1 2 2v14.214a2 2 0 0 1-2 2M55.107 96H40.895a2 2 0 0 1-2-2V79.786a2 2 0 0 1 2-2h14.212a2 2 0 0 1 2 2V94a2 2 0 0 1-2 2m0-77.786H40.895a2 2 0 0 1-2-2V2a2 2 0 0 1 2-2h14.212a2 2 0 0 1 2 2v14.214a2 2 0 0 1-2 2M16.212 96H2a2 2 0 0 1-2-2V79.786a2 2 0 0 1 2-2h14.212a2 2 0 0 1 2 2V94a2 2 0 0 1-2 2m0-77.786H2a2 2 0 0 1-2-2V2a2 2 0 0 1 2-2h14.212a2 2 0 0 1 2 2v14.214a2 2 0 0 1-2 2m0 38.893H2a2 2 0 0 1-2-2V40.893a2 2 0 0 1 2-2h14.212a2 2 0 0 1 2 2v14.214a2 2 0 0 1-2 2"/></svg>