<svg xmlns="http://www.w3.org/2000/svg" fill="none" viewBox="0 0 96 96"><path fill="#464B55" d="M47.998.88c24.831 0 45.116 19.474 46.415 43.981h.074v5H84.56v-5h4.843C88.16 23.944 71.417 7.201 50.5 5.956v5.78h-5v-5.78C24.581 7.2 7.838 23.94 6.595 44.861h4.918v5H1.584v-2.5h-.066C1.518 21.684 22.328.88 47.998.88"/><path fill="#77FE7A" d="M58.07 22.503a9.343 9.343 0 0 1 9.343 9.343v4.507h3.265a4.027 4.027 0 0 1 4.027 4.028v7.382a4.03 4.03 0 0 1-4.027 4.027h-3.265v3.682a9.343 9.343 0 0 1-9.343 9.342H36.446a9.343 9.343 0 0 1-9.342-9.342V51.79H23.84a4.03 4.03 0 0 1-4.027-4.027V40.38a4.03 4.03 0 0 1 4.027-4.028h3.264v-4.507a9.343 9.343 0 0 1 9.342-9.343z"/><path fill="#0000FF" d="M41.184 37.478H35.2v5.983h5.983zm18.082 0h-5.983v5.983h5.983zm-2.348 10.746c0 5.347-4.337 9.685-9.685 9.685-5.347 0-9.684-4.338-9.684-9.685z"/><path fill="#464B55" d="M42.566 86.405h-4.998v-5.14h4.998zm7.192 0H44.76v-5.14h4.998zm7.192 0h-5v-5.14h4.998zm18.267-7.415a4.482 4.482 0 1 1 0 8.965 4.482 4.482 0 0 1 0-8.965"/><path fill="#464B55" fill-rule="evenodd" d="M90.497 95.749H5.506V71.195h84.991zm-55.296-5h24.133V76.196H35.201zm29.133 0h21.163V76.196H64.334zm-38.287-1.916h5.132v-9.997h-5.132zm-16.512-.001h5.132v-9.996H9.535zm8.254 0h5.132v-9.996h-5.132z" clip-rule="evenodd"/></svg>