<svg xmlns="http://www.w3.org/2000/svg" fill="none" viewBox="0 0 96 96"><path fill="#464B55" fill-rule="evenodd" d="M48 0c26.507 0 48 21.483 48 47.997C96 74.512 74.513 96 48 96S0 74.506 0 47.997 21.493 0 48 0m0 5C24.253 5 5 24.25 5 47.997 5 71.745 24.25 91 48 91c23.751 0 43-19.25 43-43.003C91 24.245 71.747 5 48 5" clip-rule="evenodd"/><path fill="#464B55" fill-rule="evenodd" d="M49.121 23.523c13.505.342 24.352 11.384 24.352 24.95l-.01.644C73.122 62.6 62.064 73.43 48.478 73.43l-.646-.008c-13.504-.342-24.35-11.384-24.35-24.95 0-13.78 11.188-24.956 24.996-24.956zm-.644 4.993c-11.053 0-19.996 8.944-19.996 19.957S37.427 68.43 48.477 68.43s19.996-8.945 19.996-19.957-8.948-19.957-19.996-19.957" clip-rule="evenodd"/><path fill="#464B55" d="m56.62 83.965-2.95.55-.66-3.54 2.949-.551zm6.985-2.365-2.778 1.134-1.36-3.33 2.777-1.135zm6.371-3.725-2.49 1.674-2.011-2.991 2.49-1.674zm5.474-4.933-2.104 2.138-2.567-2.527 2.106-2.137zm4.38-5.926-1.635 2.515-3.021-1.963 1.635-2.515zm3.104-6.685-1.093 2.793-3.357-1.314 1.094-2.792zm1.673-7.178-.502 2.957-3.552-.604.504-2.957zm.299-4.359-3.601.115-.096-2.999 3.602-.114zm-.676-7.335-3.507.834-.694-2.918 3.506-.834zm-2.145-7.054-3.26 1.529-1.274-2.717 3.261-1.528zm-3.529-6.472-2.886 2.152-1.793-2.404 2.886-2.153zm-4.763-5.623-2.397 2.687-2.238-1.996 2.396-2.687zm-5.792-4.56-1.806 3.116-2.595-1.504 1.805-3.116zm-6.595-3.305-1.14 3.416-2.846-.95 1.14-3.415zm-7.133-1.905-.425 3.576-2.979-.354.425-3.575z"/><path fill="#F8BDF5" d="M11.379 48.479c0-20.451 16.598-37.018 37.071-37.018v5c-17.719 0-32.071 14.336-32.071 32.018 0 17.681 14.357 32.022 32.076 32.022 1.039 0 2.075-.051 3.093-.148l.476 4.976a38 38 0 0 1-3.569.172c-20.473 0-37.076-16.572-37.076-37.023"/><path fill="#0000FF" d="M55.51 38.363H41.452a2 2 0 0 0-2 2v14.029a2 2 0 0 0 2 2H55.51a2 2 0 0 0 2-2V40.363a2 2 0 0 0-2-2"/></svg>