<svg xmlns="http://www.w3.org/2000/svg" fill="none" viewBox="0 0 97 97"><path fill="#464B55" d="M45.27 0H6.47v36.38h38.8V0Z"/><path fill="#0A0B0D" d="M25.87 25.87 6.47 35.93v25.14l19.4 10.06 19.4-10.06V35.93l-19.4-10.06Z"/><path fill="#588AF5" fill-rule="evenodd" d="M25.87 48.5 6.47 61.07V35.93l19.4-10.06 19.4 10.06v25.14L25.87 48.5Z" clip-rule="evenodd"/><path fill="#ECD069" fill-rule="evenodd" d="m25.87 48.5 19.4-12.57v25.14l-19.4 10.06-19.4-10.06V35.93l19.4 12.57Z" clip-rule="evenodd"/><path fill="#0A0B0D" d="m25.87 36.37-10.51 5.4v13.47l10.5 5.38 10.52-5.38V41.76l-10.51-5.39Z"/><path fill="#FFFFFF" d="m29.5 48.5-1.82 3.23h-3.63l-1.82-3.23 1.82-3.23h3.63l1.82 3.23Z"/><path fill="#464B55" d="M51.73 97h38.8V60.62h-38.8V97Z"/><path fill="#0A0B0D" d="m71.13 71.13 19.4-10.06V35.93l-19.4-10.06-19.4 10.06v25.14l19.4 10.06Z"/><path fill="#588AF5" fill-rule="evenodd" d="m71.13 48.5 19.4-12.57v25.14l-19.4 10.06-19.4-10.06V35.93l19.4 12.57Z" clip-rule="evenodd"/><path fill="#464B55" fill-rule="evenodd" d="m71.13 48.5-19.4 12.57V35.93l19.4-10.06 19.4 10.06v25.14L71.13 48.5Z" clip-rule="evenodd"/><path fill="#0A0B0D" d="m71.13 36.37-10.5 5.4v13.47l10.5 5.38 10.51-5.38V41.76l-10.5-5.39Z"/><path fill="#FFFFFF" fill-rule="evenodd" d="M97 49.51h-6.47v-2.02H97v2.02Zm-15.35 0H45.27v-2.02h36.38v2.02Zm-45.27 0H0v-2.02h36.38v2.02Z" clip-rule="evenodd"/><path fill="#FFFFFF" d="m74.77 48.5-1.82 3.23h-3.64L67.5 48.5l1.81-3.23h3.64l1.82 3.23Z"/></svg>