<svg xmlns="http://www.w3.org/2000/svg" fill="none" viewBox="0 0 96 96"><path fill="#464B55" d="M96 56H0v40h96z"/><path fill="#44C28D" d="M43 16H27v40h16z"/><path fill="#578BFA" d="M43 56H27v24h16z"/><path fill="#F0616D" d="M16 48H0v8h16z"/><path fill="#578BFA" d="M16 56H0v32h16z"/><path fill="#F0616D" d="M70 24H54v32h16z"/><path fill="#578BFA" d="M70 56H54v8h16zm26 0H80v5h16z"/><path fill="#44C28D" d="M96 4H80v52h16zm-57 8h-8v4h8z"/><path fill="#578BFA" d="M39 80h-8v4h8z"/><path fill="#F0616D" d="M12 44H4v4h8z"/><path fill="#578BFA" d="M12 88H4v4h8z"/><path fill="#F0616D" d="M66 20h-8v4h8z"/><path fill="#578BFA" d="M66 64h-8v4h8z"/><path fill="#44C28D" d="M92 0h-8v4h8z"/><path fill="#578BFA" d="M92 61h-8v4h8z"/><path fill="#0A0B0D" fill-rule="evenodd" d="M86.814 27.47 9.273 64l-.968-1.825 77.541-36.529z" clip-rule="evenodd"/><path fill="#0A0B0D" fill-rule="evenodd" d="m85.384 27.035-4.587-1.053.512-1.982L88 25.536l-1.63 6.304-2.103-.483z" clip-rule="evenodd"/></svg>