<svg xmlns="http://www.w3.org/2000/svg" fill="none" viewBox="0 0 96 96"><path fill="#588AF5" d="M96 16v48H15.996V16H96Z"/><circle cx="16" cy="64" r="16" fill="#464B55"/><path fill="#0A0B0D" d="M16 24h80v8H16v-8Z"/><path fill="#FFFFFF" d="M24 40h40v4H24v-4Zm48 0h16v2H72v-2Zm0 6h16v2H72v-2Z"/><circle cx="16" cy="64" r="16" fill="#464B55"/><path fill="#0A0B0D" d="M31.998 64H15.996V48.002H16c8.836 0 15.999 7.162 16 15.998Z"/><circle cx="16" cy="64" r="13" fill="#ECD069"/><path fill="#0A0B0D" fill-rule="evenodd" d="M15 67.001v-10h2v10h-2Zm0 4v-2h2v2h-2Z" clip-rule="evenodd"/></svg>