<svg xmlns="http://www.w3.org/2000/svg" fill="none" viewBox="0 0 96 96"><g clip-path="url(#a)"><path fill="#464B55" d="M0 56h96v40H0V56Z"/><path fill="#44C28D" d="M72 16v8H24v-8h48Z"/><path fill="#F07836" d="M80 24v8H16v-8h64Z"/><path fill="#588AF5" d="M88 32v24H8V32h80Z"/><path fill="#0A0B0D" d="M8 56h80v24H8V56Z"/><path fill="#464B55" d="M80.006 64v8h-12v-8h12Z"/><path fill="#0A0B0D" fill-rule="evenodd" d="M80.006 69h-12v-2h12v2Z" clip-rule="evenodd"/><path fill="#0A0B0D" fill-rule="evenodd" d="M73.006 72v-8h2v8h-2Z" clip-rule="evenodd"/><path fill="#464B55" d="M64 0v16H49V9h7V7h-7V0h15ZM47 0H32v16h15V9h-7V7h7V0Z"/></g><defs><clipPath id="a"><path fill="#FFFFFF" d="M0 0h96v96H0z"/></clipPath></defs></svg>