<svg xmlns="http://www.w3.org/2000/svg" fill="none" viewBox="0 0 96 96"><g clip-path="url(#a)"><path fill="#FFFFFF" fill-rule="evenodd" d="M13.027 42.428v25.016h.017C15.402 98.48 47.62 95.95 47.62 95.95h.344c31.683-.942 32.027-27.808 32.027-27.808V42.987c.654-33.238-32.457-31.98-32.457-31.98-36.76-.263-34.506 31.421-34.506 31.421M46.566 14h-.132C39.017 14 33 20.436 33 28.37v24.19C33 60.53 39.05 67 46.5 67S60 60.53 60 52.56V28.37C60 20.436 53.983 14 46.566 14" clip-rule="evenodd"/><path fill="#45D9F5" fill-rule="evenodd" d="M13.027 30.689v24.426h.017C15.402 85.423 47.62 82.952 47.62 82.952h.344c31.683-.92 32.027-27.154 32.027-27.154V31.234C80.644-1.22 47.533.006 47.533.006 10.773-.25 13.027 30.69 13.027 30.69M46.566 14h-.132C39.017 14 33 20.436 33 28.37v24.19C33 60.53 39.05 67 46.5 67S60 60.53 60 52.56V28.37C60 20.436 53.983 14 46.566 14" clip-rule="evenodd"/><path fill="#FFFFFF" d="M47.465 14h-1.93C38.608 14 33 20.035 33 27.491V41c0-7.456 5.608-13.491 12.535-13.491h1.93C54.392 27.509 60 33.544 60 41V27.491C60 20.035 54.392 14 47.465 14"/><path fill="#ECD069" d="M79.973 25v1.32c0 7 5.835 12.654 13.027 12.68-7.192 0-13 5.68-13 12.68 0-7-5.835-12.654-13-12.68 7.192 0 13-5.68 13-12.68V25z"/><path fill="#578BFA" fill-rule="evenodd" d="M79.924 27.702q.103 1.695.066 3.532v19.954C79.725 44.417 73.997 39.026 67 39c6.712 0 12.22-4.947 12.924-11.298" clip-rule="evenodd"/></g><defs><clipPath id="a"><path fill="#FFFFFF" d="M0 0h96v96H0z"/></clipPath></defs></svg>