<svg xmlns="http://www.w3.org/2000/svg" fill="none" viewBox="0 0 97 97"><path fill="#464B55" fill-rule="evenodd" d="M0 61.112V30.743q.701.267 1.395.554a50.12 50.12 0 0 1 30.938 46.302H6.466A24.25 24.25 0 0 0 0 61.112" clip-rule="evenodd"/><path fill="#464B55" d="M64.667 56.581H40.415V97h24.252z"/><path fill="#578BFA" d="M32.334 75.266H6.467V97h25.867z"/><path fill="#464B55" d="M97 40.415H72.748V97h24.254z"/><path fill="#45D9F5" fill-rule="evenodd" d="M84.066 0a77.6 77.6 0 0 0-77.6 77.6h25.867a51.734 51.734 0 0 1 51.733-51.733z" clip-rule="evenodd"/><path fill="#578BFA" fill-rule="evenodd" d="M32.334 77.588A50.12 50.12 0 0 0 15.91 40.5a77.6 77.6 0 0 0-9.443 37.09v.01h25.867z" clip-rule="evenodd"/><path fill="#FFFFFF" d="M84.066 0A12.9 12.9 0 0 1 97 12.933a12.9 12.9 0 0 1-12.934 12.934zm0 25.867a12.9 12.9 0 0 1-12.933-12.934A12.9 12.9 0 0 1 84.066 0z"/><path fill="#578BFA" d="M84.068 0c-7.144 0-12.933 5.806-12.933 12.97 0 6.691 5.053 12.198 11.54 12.896v-9.877a12.23 12.23 0 0 0 6.107-5.662v14.704C93.567 23.128 97 18.449 97 12.97 97 5.805 91.211 0 84.068 0m-7.381 15.928v-5.924c3.122 0 5.707-2.285 6.196-5.278h5.944c-.522 6.27-5.754 11.202-12.14 11.202"/></svg>