<svg xmlns="http://www.w3.org/2000/svg" fill="none" viewBox="0 0 96 96"><g clip-path="url(#a)"><path fill="#464B55" d="M96 63.42H0V96h96V63.42Z"/><path fill="#FFFFFF" d="M47.861 63.42H0V96h47.861V63.42Z"/><path fill="#588AF5" d="M23.93 39.605c6.608 0 11.965-5.332 11.965-11.909 0-6.576-5.357-11.908-11.965-11.908S11.965 21.12 11.965 27.696c0 6.577 5.357 11.909 11.965 11.909Z"/><path fill="#FFFFFF" d="M23.93 15.788c-6.608 0-11.965 5.332-11.965 11.908h23.93c0-6.576-5.357-11.908-11.965-11.908Z"/><path fill="#588AF5" d="M0 63.42c0-13.148 10.719-23.816 23.93-23.816 13.212 0 23.93 10.668 23.93 23.817H0Z"/><path fill="#45DAF6" d="M95.872 0H52v28.778h43.872V0Z"/><path fill="#45DAF6" d="M52 40.686v-16.87h16.95L52 40.686Z"/></g><defs><clipPath id="a"><path fill="#FFFFFF" d="M0 0h96v96H0z"/></clipPath></defs></svg>