<svg xmlns="http://www.w3.org/2000/svg" fill="none" viewBox="0 0 96 96"><g clip-path="url(#a)"><path fill="#464B55" d="M67.197 73.42h-38.4V96h38.4z"/><path fill="#588AF5" d="M73.598 86.22h-51.2V96h51.2z"/><path fill="#464B55" d="M67.198 80h-38.4l-6.4 6.22h51.2z"/><path fill="#588AF5" fill-rule="evenodd" d="M67.197 80h-38.4v6.22h38.4z" clip-rule="evenodd"/><path fill="#464B55" d="M28.799 86.22h-6.4V96h6.4zm44.804 0h-6.4V96h6.4z"/><path fill="#0A0B0D" d="M73.598 89.187h-51.2v2.4h51.2z"/><path fill="#45DAF6" d="M90.645 13.652C93.218 7.092 88.382 0 81.335 0h-66.67C7.618 0 2.782 7.092 5.355 13.652L28.8 73.42h38.4z"/><path fill="#0A0B0D" d="M28.547 48.11V33.78s-1.31-18.15 20.05-18c0 0 19.24-.72 18.86 18.32v14.41s-.2 15.39-18.61 15.93h-.2s-18.72 1.45-20.09-16.33z"/><path fill="#FFFFFF" d="M28.547 40.43V26.1s-1.31-18.15 20.05-18c0 0 19.24-.72 18.86 18.32v14.41s-.2 15.39-18.61 15.93h-.2s-18.72 1.45-20.09-16.33z"/><path fill="#45DAF6" d="M48.002 17.4h.08c4.5 0 8.15 3.65 8.15 8.15v13.72c0 4.52-3.67 8.19-8.19 8.19s-8.19-3.67-8.19-8.19V25.55c0-4.5 3.65-8.15 8.15-8.15"/><path fill="#0A0B0D" d="M48.622 17.4h-1.17c-4.2 0-7.6 3.4-7.6 7.6v7.61c0-4.2 3.4-7.6 7.6-7.6h1.17c4.2 0 7.6 3.4 7.6 7.6V25c0-4.2-3.4-7.6-7.6-7.6"/></g><defs><clipPath id="a"><path fill="#FFFFFF" d="M0 0h96v96H0z"/></clipPath></defs></svg>