<svg xmlns="http://www.w3.org/2000/svg" fill="none" viewBox="0 0 96 96"><g clip-path="url(#a)"><path fill="#464B55" fill-rule="evenodd" d="M96 72a48 48 0 0 0-96 0h11.077A36.92 36.92 0 0 1 48 35.077v8.111a28.825 28.825 0 0 0-28.825 28.826h70.4V72z" clip-rule="evenodd"/><path fill="#45D9F5" d="M33.482 2.453c9.507-3.27 19.517-3.27 29.024 0L47.994 72z"/><path fill="#ECD069" d="M24 72a24 24 0 0 1 48 0zm48 0a24 24 0 0 1-48 0z"/><path fill="#45D9F5" d="M96 71.999c-6.629 0-11.999 5.373-11.999 12.001 0-6.629-5.373-12.001-12.001-12.001 6.629 0 12.001-5.373 12.001-11.999 0 6.626 5.37 11.999 11.999 11.999"/><path fill="#578BFA" d="M95.315 71.98C89.005 71.624 84 66.396 84 60c0 6.396-5.006 11.624-11.316 11.98z"/><path fill="#0A0B0D" fill-rule="evenodd" d="M49 52.957V0h-2v52.957c-10.107.517-18.143 8.876-18.143 19.112 0 10.57 8.569 19.138 19.138 19.138s19.138-8.568 19.138-19.138c0-10.232-8.03-18.589-18.132-19.112m-2 2.003v21.818l-8.199-8.773-1.46 1.366 9.284 9.935-.01.011.17.16 1.127 1.206.082-.077.081.077 1.127-1.206.171-.16-.01-.011 9.284-9.935-1.461-1.365L49 76.764V54.96c8.997.52 16.132 7.982 16.132 17.11 0 9.464-7.673 17.137-17.138 17.137s-17.138-7.673-17.138-17.138c0-9.131 7.142-16.594 16.144-17.11" clip-rule="evenodd"/></g><defs><clipPath id="a"><path fill="#FFFFFF" d="M0 0h96v96H0z"/></clipPath></defs></svg>