<svg xmlns="http://www.w3.org/2000/svg" fill="none" viewBox="0 0 96 96"><g clip-path="url(#a)"><path fill="#464B55" d="M0 96h96v-8H0v8Z"/><path fill="#464B55" d="M0 96h16V72H0v24Zm80 0h16V72H80v24Z"/><path fill="#44C28D" d="M16 0h64v72H16V0Z"/><path fill="#0A0B0D" fill-rule="evenodd" d="M23 15h18v18H23V15Zm2 2v14h14V17H25Z" clip-rule="evenodd"/><path fill="#0A0B0D" fill-rule="evenodd" d="M23 31h18v18H23V31Zm2 2v14h14V33H25Zm22-18h26v18H47V15Zm2 2v14h22V17H49Z" clip-rule="evenodd"/><path fill="#0A0B0D" fill-rule="evenodd" d="M47 31h26v18H47V31Zm2 2v14h22V33H49Z" clip-rule="evenodd"/><path stroke="#0A0B0D" stroke-linecap="square" stroke-width="2" d="M24 8h16m8 0h24"/><path fill="#0A0B0D" fill-rule="evenodd" d="M56 72H40v-8h16v8Z" clip-rule="evenodd"/><path fill="#588AF5" d="M48 88 32 72h32L48 88Z"/></g><defs><clipPath id="a"><path fill="#FFFFFF" d="M0 0h96v96H0z"/></clipPath></defs></svg>