<svg xmlns="http://www.w3.org/2000/svg" fill="none" viewBox="0 0 96 96"><g clip-path="url(#a)"><path fill="#464B55" d="M0 0h96v72H0V0Z"/><path fill="#588AF5" d="M16 0h64v72H16V0Z"/><path fill="#44C28D" d="M48 96a20 20 0 1 0 0-40 20 20 0 0 0 0 40Z"/><path fill="#FFFFFF" fill-rule="evenodd" d="M70 76a22 22 0 1 1-44 0 22 22 0 0 1 44 0Zm-2 0a20 20 0 1 1-40 0 20 20 0 0 1 40 0Z" clip-rule="evenodd"/><path fill="#0A0B0D" fill-rule="evenodd" d="M70 10H26v12h44V10ZM24 8v16h48V8H24Zm23 78V66h2v20h-2Z" clip-rule="evenodd"/><path fill="#0A0B0D" fill-rule="evenodd" d="M38 75h20v2H38v-2Z" clip-rule="evenodd"/><path fill="#0A0B0D" d="M28.61 32v3.1h3.15v2h-6.27v2H32v6h-3.39V48h-2v-2.9h-2.85v-2H30v-2h-6.5v-6h3.11V32h2Z"/><path fill="#0A0B0D" fill-rule="evenodd" d="M51.1 39.35a203.98 203.98 0 0 0-9.92 6.82L40 44.56a198.9 198.9 0 0 1 10.03-6.9 61.38 61.38 0 0 1 4.76-2.8c.67-.34 1.29-.62 1.8-.8.27-.09.53-.16.79-.19.23-.03.55-.05.87.07a1 1 0 0 1 .55 1.4l-3.51 6.77 5.52-3a1 1 0 0 1 1.17.16c1.1 1.08 4.9 3.23 10.38 1.93l.46 1.95c-5.55 1.32-9.73-.47-11.66-1.96l-7.78 4.23A1 1 0 0 1 52 44.08l3.93-7.56-.24.12a61.2 61.2 0 0 0-4.6 2.7Zm6.6-3.5h-.01Z" clip-rule="evenodd"/></g><defs><clipPath id="a"><path fill="#FFFFFF" d="M0 0h96v96H0z"/></clipPath></defs></svg>