<svg xmlns="http://www.w3.org/2000/svg" fill="none" viewBox="0 0 96 96"><g clip-path="url(#a)"><path fill="#464B55" d="M80 50.76h16V152.3H80V50.76ZM64 56h8v96.3h-8V56ZM32 40h16v101.53H32V40Zm-16 5.24h8v96.29h-8v-96.3Zm-16 0h8v96.29H0v-96.3Z"/><path fill="#588AF5" d="M0 2.57A2.57 2.57 0 0 1 2.57 0h42.86A2.57 2.57 0 0 1 48 2.57v42.86A2.57 2.57 0 0 1 45.43 48H2.57A2.57 2.57 0 0 1 0 45.43V2.57Z"/><path fill="#0A0B0D" d="M41.09 36.72c.04.42.05.83.03 1.24a8.4 8.4 0 0 0-4.52-3.35l-.34-3.24c-2.47-16.6-14.21-18.7-16.54-18.97 1.97-2 5.15-3.16 8.03-2.36.4.11.8.25 1.17.42a8.4 8.4 0 0 0-3.68 1.85 7.91 7.91 0 0 1 7.54 1.05c-1.15 0-2.29.25-3.34.71a7.9 7.9 0 0 1 6.22 2.81 8.43 8.43 0 0 0-3.66-.02 7.9 7.9 0 0 1 6.1 3.85 8.44 8.44 0 0 0-3.72-.62 7.91 7.91 0 0 1 5.33 4.9 8.44 8.44 0 0 0-3.51-1.27 7.91 7.91 0 0 1 4.48 5.68 8.4 8.4 0 0 0-2.87-1.7 7.9 7.9 0 0 1 3.33 5.94 8.39 8.39 0 0 0-2.75-2.1 7.91 7.91 0 0 1 2.7 5.18Z"/><path fill="#464B55" d="M20.73 16.1c-.05.1-.1.2-.13.31l-.03.12.03-.12c.03-.1.07-.21.13-.3Zm.18-.25Zm.51-.35Z"/><path fill="#FFFFFF" d="m29.8 26.18-.05-.31-.13-.6c0-.06-.02-.12-.04-.19l-.05-.21-.04-.17a18.9 18.9 0 0 0-.32-1.1l-.09-.25-.19-.51-.1-.25-.1-.24a15.43 15.43 0 0 0-1.35-2.4l-.14-.2-.15-.19a12.93 12.93 0 0 0-1.41-1.59l-.18-.16-.17-.16-.17-.16a10.94 10.94 0 0 0-.91-.75l-.19-.15a5.41 5.41 0 0 0-.58-.42l-.39-.27c-.13-.1-.26-.18-.4-.27a1.43 1.43 0 0 0-.36-.17 1.3 1.3 0 0 0-.77.01l-.1.03a1.33 1.33 0 0 0-.7.6c-.04.1-.09.2-.12.31l-.03.12a.76.76 0 0 1-.2.34.78.78 0 0 1-1.06.03.73.73 0 0 1-.11-.14.72.72 0 0 1-.09-.17l-1.77-4.9.03.09a5.08 5.08 0 0 1 .2.94l.02.19v.21l-.01.11-.02.07a.69.69 0 0 1-.04.12l-.02.02a.4.4 0 0 1-.08.11.34.34 0 0 1-.15.08.63.63 0 0 1-.64-.17l-.03-.04a.67.67 0 0 1-.06-.07l-.06-.1-.07.1-.85 1.06-.85 1.06-2.66 3.3a.83.83 0 0 0-.16.71l.22 1-4.7 6.7c-.34.5-.47 1.12-.35 1.7l.15.75c.18.93.9 1.66 1.82 1.87l1.18.27c.63.15 1.3.03 1.84-.32l.74-.48a.9.9 0 0 0 .41-.76v-.46l1.48-3.98a5.2 5.2 0 0 0 2.55 1.37c.75.14 1.64.1 2.6-.38.17-.08.34-.18.5-.27l.16-.1a4.36 4.36 0 0 0 .62-.48l.17-.17.12-.12.1-.12.1-.12a4.38 4.38 0 0 0 .63-1 5.72 5.72 0 0 0 .44-3.2 1.13 1.13 0 0 1 .1.07 1.67 1.67 0 0 1 .17.16 2.53 2.53 0 0 1 .37.45 5.18 5.18 0 0 1 .77 2.82 7.33 7.33 0 0 1-.43 2.52l-.03.08a9.62 9.62 0 0 1-.71 1.59 11.42 11.42 0 0 1-1 1.58c-.64.86-1.25 1.5-1.58 1.81l-.09.09-.14.13-.01.01-.01.01-.15.17c-2.41 2.7-4.83 3.38-6.25 6.85H28.9l.44-1.4c.9-5.01.98-8.88.46-11.94ZM8.94 29.45l-.33.45a.26.26 0 0 1-.46-.1l-.2-1a.75.75 0 0 1 .36-.79.36.36 0 0 1 .47.08l.14.18c.27.35.27.83.02 1.18Zm6.15-9.76c-.35.43-.9.6-1.4.5a1.44 1.44 0 0 1 1.6-1.98c.2.48.15 1.05-.2 1.48Zm10.82 16.4-4.59.43c-.42.04-.64-.48-.32-.76 1.07-.92 2.25-1.76 3.44-3.09a7.75 7.75 0 0 0 1.57-2.77c.08-.24.44-.2.46.06l.46 4.9c.05.61-.4 1.17-1.02 1.22Z"/><path fill="#FFFFFF" d="M8.92 28.27c.27.35.28.83.02 1.18l-.33.45a.26.26 0 0 1-.46-.1l-.2-1a.75.75 0 0 1 .36-.79.36.36 0 0 1 .47.08l.14.18Zm4.77-8.07a1.44 1.44 0 0 1 1.6-1.99 1.43 1.43 0 0 1-1.6 1.99Zm1.02-4.73.85-1.07.02-.01.83-1.04-.85 1.06-.85 1.06Zm2.66-3.69-.04-.14.01.04.03.1Zm2.73 20.7-.01.01.01-.01Zm.47-15.95.03-.12-.03.12Zm.34-.68Zm.51-.35Zm1.26 5.68Zm.22 7.69Zm.31-7.14Zm.1 6.33Zm.45-5.33Zm-.02 4.17Zm.16-.61ZM21 35.76c1.07-.92 2.25-1.76 3.44-3.09a7.75 7.75 0 0 0 1.57-2.77c.08-.24.44-.2.46.06l.46 4.9c.06.61-.4 1.17-1.02 1.22l-4.59.44c-.42.04-.64-.48-.32-.76Zm-3.78-8.62-1.6 1.05-2.42 1.56 1.48-3.98a5.2 5.2 0 0 0 2.54 1.37Z"/><path fill="#0A0B0D" d="M17.6 13a2.05 2.05 0 0 1-.02.23l-.02.07-.04.12-.02.02a.4.4 0 0 1-.08.11.34.34 0 0 1-.15.08.63.63 0 0 1-.64-.17l-.03-.04a1.1 1.1 0 0 1-.12-.16c-.04-.1-.94-2.08-.27-4.37 0 0 .35.7.7 1.57l.42 1.18.01.04.03.1a5.18 5.18 0 0 1 .1.4l.03.09a2.76 2.76 0 0 1 .07.4v.05l.02.19V13ZM8.94 29.45l-.33.45a.26.26 0 0 1-.46-.1l-.2-1a.75.75 0 0 1 .36-.79.36.36 0 0 1 .47.08l.14.18c.27.35.28.83.02 1.18Z"/><path fill="#464B55" d="M24.08 24.68a7.33 7.33 0 0 1-.43 2.52l-.03.08a16.77 16.77 0 0 1-.31.78 10.55 10.55 0 0 1-.84 1.56l-.12.18a6.24 6.24 0 0 1-.45.65 13.8 13.8 0 0 1-1.57 1.81l-.09.09-.14.13-.01.01.01-.01A9.13 9.13 0 0 0 22 26.9a.8.8 0 0 0-1.23-.7l-.28.19a4.43 4.43 0 0 0 .9-.77l.11-.12a2.5 2.5 0 0 0 .2-.24l.1-.12a3.54 3.54 0 0 0 .43-.76 5.6 5.6 0 0 0 .45-3.2.98.98 0 0 1 .09.07l.12.11.05.05c.09.08.18.19.27.32l.1.13a5.18 5.18 0 0 1 .77 2.82Z"/><path fill="#0A0B0D" d="M15.09 19.69c-.35.43-.9.6-1.4.5a1.44 1.44 0 0 1 1.6-1.98c.2.48.15 1.05-.2 1.48Z"/><path fill="#FFFFFF" d="m8.63 8.84 6.08 6.62 1.7-2.11-7.78-4.5Z"/><path fill="#464B55" d="M29.35 38.12c.89-5.01.97-8.88.45-11.94l-.05-.31-.04-.2a11.34 11.34 0 0 0-.22-.97 10.97 10.97 0 0 0-.32-1.1l-.09-.25-.19-.51-.1-.25-.1-.24a9.5 9.5 0 0 0-.45-.93 9.8 9.8 0 0 0-.76-1.27 10.96 10.96 0 0 0-1.19-1.5c-.2-.23-.43-.46-.65-.68l-.17-.16a3.93 3.93 0 0 0-.35-.32l-.18-.15a9.55 9.55 0 0 0-.73-.6l-.19-.15a5.5 5.5 0 0 0-.58-.42 12.22 12.22 0 0 0-1.05-.67 1.3 1.3 0 0 0-.87-.03 1.03 1.03 0 0 0-.37.18.48.48 0 0 0-.09.06.64.64 0 0 0-.07.06 1.1 1.1 0 0 0-.26.33c-.05.1-.1.2-.13.31l-.03.12a.85.85 0 0 1-.08.2.78.78 0 0 1-1.17.18.8.8 0 0 1-.2-.3l-1.79-4.97c-.12-.4-.27-.8-.43-1.18-.34-.86-.69-1.57-.69-1.57s1.93.9 3.11 3.48c0 0 .14 0 .4.04 2.33.25 14.07 2.36 16.54 18.96l.34 3.24.51 4.91h-8.2l.44-1.4Z"/><path fill="#44C28D" d="M16 80a8 8 0 0 1 8-8 8 8 0 0 1-8-8 8 8 0 0 1-8 8 8 8 0 0 1 8 8Z"/><path fill="#588AF5" fill-rule="evenodd" d="M15.99 64.47v15.06A8 8 0 0 0 8 72a8 8 0 0 0 7.99-7.53Z" clip-rule="evenodd"/><path fill="#44C28D" d="M64 51.43c0-1.9 1.53-3.43 3.43-3.43h25.14c1.9 0 3.43 1.53 3.43 3.43v25.14c0 1.9-1.53 3.43-3.43 3.43H67.43A3.43 3.43 0 0 1 64 76.57V51.43Z"/><path fill="#0A0B0D" d="M68.57 66.29h4.57v9.14h-4.57v-9.14Zm9.14-4.58h4.58v13.72H77.7V61.7Zm9.15-4.57h4.57v18.29h-4.57V57.14Z"/><path fill="#45DAF6" d="M80 24a8 8 0 0 1 8-8 8 8 0 0 1-8-8 8 8 0 0 1-8 8 8 8 0 0 1 8 8Z"/></g><defs><clipPath id="a"><path fill="#FFFFFF" d="M0 0h96v96H0z"/></clipPath></defs></svg>