<svg xmlns="http://www.w3.org/2000/svg" fill="none" viewBox="0 0 96 96"><path fill="#45DAF6" fill-rule="evenodd" d="M14.484 62.133 50.95 77.274 45.376 95.63 7.708 79.813a9.6 9.6 0 1 1 6.776-17.68Z" clip-rule="evenodd"/><path fill="#ECD069" fill-rule="evenodd" d="M88.276 16.183 49.199 0l-3.2 18.8 35.453 15.029a9.6 9.6 0 0 0 14.546-8.23c0-4.659-3.319-8.543-7.722-9.416Z" clip-rule="evenodd"/><path fill="#464B55" d="m17.623 20.321 38.134 60.455L40.4 92 1.3 30.411l16.323-10.09ZM55.748 3.98l38.336 60.676-15.34 11.57-39.028-61.772L55.748 3.98Z"/><path fill="#FFFFFF" d="M47.657 4.373 3.514 26.052l1.101 1.697L48.76 6.07l-1.102-1.696Zm43.237 64.251-43.701 21.48 1.102 1.697 43.7-21.48-1.102-1.697Z"/><path fill="#464B55" d="M57.6 9.6A9.6 9.6 0 1 1 48 0a9.6 9.6 0 0 1 9.6 9.6Z"/><path fill="#588AF5" fill-rule="evenodd" d="M56.412 4.973 71.948 29.8 45.99 18.99c-4.337-.924-7.59-4.777-7.59-9.39a9.6 9.6 0 0 1 17.388-5.613l.005-.003.056.088c.204.289.392.59.563.9Zm-17.369 84.89L23.928 66.054l26.896 11.168A9.6 9.6 0 0 1 48 95.999a9.603 9.603 0 0 1-8.956-6.136Z" clip-rule="evenodd"/><path fill="#FFFFFF" d="M19.2 25.6a9.6 9.6 0 0 1-9.6 9.6 9.6 9.6 0 1 1 9.6-9.6ZM96 70.4a9.6 9.6 0 0 1-9.6 9.6 9.6 9.6 0 0 1-9.6-9.6 9.6 9.6 0 1 1 19.2 0Z"/></svg>