<svg xmlns="http://www.w3.org/2000/svg" fill="none" viewBox="0 0 96 96"><path fill="#464B55" d="M22.4 0h44.8v51.2H22.4V0Z"/><path fill="#45DAF6" d="M.17 57.26a4.8 4.8 0 0 1 4.67-6.06h73.05a6.44 6.44 0 0 1 6.18 4.6L96 96H10.8L.17 57.26Z"/><path fill="#464B55" d="M96 25.6V96H12.8V32a6.4 6.4 0 0 1 6.4-6.4h48.05l1.58-3a6.4 6.4 0 0 1 5.66-3.4H89.6a6.4 6.4 0 0 1 6.4 6.4Z"/><path fill="#588AF5" d="M67.2 25.6v25.6H22.4V25.6h44.8Z"/><path fill="#588AF5" d="M96 96 84.21 55.8a6.4 6.4 0 0 0-6.14-4.6H12.8V96H96Z"/><path fill="#ECD069" d="M67.2 51.2a22.4 22.4 0 1 1-44.8 0 22.4 22.4 0 0 1 44.8 0Z"/><path fill="#0A0B0D" d="M44.8 73.6a22.4 22.4 0 0 0 22.4-22.4H22.4a22.4 22.4 0 0 0 22.4 22.4Z"/></svg>