<svg xmlns="http://www.w3.org/2000/svg" fill="none" viewBox="0 0 96 96"><path fill="#588AF5" d="M48 96C21.6 96 0 74.4 0 48S21.6 0 48 0v96Z"/><path fill="#464B55" d="M48 0c26.4 0 48 21.6 48 48S74.4 96 48 96V0Z"/><path fill="#0A0B0D" fill-rule="evenodd" d="M48 .05h-.8l-.24.01v.01c-8.84.4-16.7 5.82-22.38 14.17a48.52 48.52 0 0 0-2.49 4.1H10.33l-.08.09c-.41.52-.81 1.06-1.2 1.6l-.28.4h12.26c-3.65 7.54-5.83 16.68-5.97 26.53h-15v.24a48.91 48.91 0 0 0 0 1.6v.24h15.1c.15 9.85 2.32 18.99 5.95 26.54H8.77l.28.4 1.2 1.59.08.1h11.84c.77 1.43 1.6 2.8 2.48 4.1 5.66 8.34 13.49 13.76 22.29 14.17a48.87 48.87 0 0 0 1.86 0h.24v-.01c8.84-.4 16.7-5.83 22.38-14.18a46.8 46.8 0 0 0 2.49-4.09h11.77l.07-.1c.41-.52.81-1.05 1.2-1.59l.28-.4H74.97c3.65-7.54 5.83-16.68 5.97-26.53h15v-.24a49.41 49.41 0 0 0 0-1.6v-.24h-15.1c-.15-9.85-2.32-19-5.95-26.54h12.34l-.28-.4c-.39-.53-.79-1.07-1.2-1.59l-.07-.1H73.83a47.2 47.2 0 0 0-2.48-4.1C65.7 5.9 57.87.48 49.08.07L48 .05Zm1.04 18.29V2.15c7.93.4 15.2 5.3 20.58 13.26a37.1 37.1 0 0 1 1.82 2.93h-22.4ZM26.3 15.42C31.71 7.47 39 2.56 46.96 2.16v16.18H24.48a44.4 44.4 0 0 1 1.82-2.92Zm-9.15 31.54c.15-9.97 2.44-19.13 6.2-26.54h23.6v26.54h-29.8Zm31.9 0V20.42h23.52c3.74 7.4 6.03 16.57 6.18 26.54h-29.7ZM23.43 75.58c-3.75-7.4-6.04-16.57-6.19-26.54h29.7v26.54H23.45Zm25.6 0V49.04h29.82c-.15 9.97-2.45 19.13-6.21 26.54h-23.6Zm-22.66 5.01a44.44 44.44 0 0 1-1.82-2.93h22.4v16.19c-7.93-.4-15.2-5.3-20.58-13.26Zm22.66 13.25V77.66h22.48a44.4 44.4 0 0 1-1.82 2.92C64.29 88.53 57 93.44 49.04 93.84Z" clip-rule="evenodd"/><path fill="#45DAF6" d="M48 72c-13.2 0-24-10.8-24-24s10.8-24 24-24v48Z"/><path fill="#FFFFFF" d="M48 24c13.2 0 24 10.8 24 24S61.2 72 48 72V24Z"/><path fill="#588AF5" d="M48 64c-8.8 0-16-7.2-16-16s7.2-16 16-16v32Z"/><path fill="#ECD069" d="M48 32c8.8 0 16 7.2 16 16s-7.2 16-16 16V32Z"/></svg>