<svg xmlns="http://www.w3.org/2000/svg" fill="none" viewBox="0 0 96 96"><path fill="#464B55" d="M80.033 32H.199v64h79.834z"/><path fill="#578BFA" d="M88.018 32H72.05v64h15.966z"/><path fill="#44C28D" d="M96 72H72.05c-4.391 0-7.984-3.6-7.984-8s3.593-8 7.984-8H96zM.2 32 72.05 0v32z"/><path fill="#464B55" d="M32.433 79C41.015 79 47.9 72.2 47.9 63.9s-6.885-15.1-15.467-15.1-15.468 6.8-15.468 15.1S23.85 79 32.433 79"/><path fill="#FFFFFF" fill-rule="evenodd" d="M15.965 63.9c0-8.872 7.353-16.1 16.468-16.1S48.9 55.028 48.9 63.9c0 8.871-7.352 16.1-16.467 16.1s-16.468-7.23-16.468-16.1m16.468-14.1c-8.05 0-14.468 6.371-14.468 14.1S24.383 78 32.433 78C40.482 78 46.9 71.628 46.9 63.9c0-7.729-6.418-14.1-14.467-14.1" clip-rule="evenodd"/><path fill="#FFFFFF" fill-rule="evenodd" d="M28.938 49.27c.928-.89 2.043-1.47 3.295-1.47s2.367.58 3.295 1.47c.923.886 1.709 2.119 2.347 3.563 1.278 2.892 2.044 6.81 2.044 11.067 0 4.256-.766 8.175-2.044 11.067-.638 1.444-1.424 2.677-2.347 3.562-.928.89-2.043 1.47-3.295 1.47-1.235 0-2.333-.587-3.244-1.475-.908-.885-1.686-2.116-2.323-3.557-1.277-2.888-2.068-6.802-2.119-11.055V63.9c0-4.257.766-8.175 2.044-11.067.638-1.444 1.424-2.677 2.347-3.563m-2.391 14.624c.05 4.044.805 7.678 1.948 10.264.572 1.296 1.223 2.284 1.89 2.933.663.647 1.287.909 1.848.909.595 0 1.239-.27 1.91-.914.677-.649 1.331-1.635 1.903-2.928 1.142-2.583 1.873-6.215 1.873-10.258 0-4.044-.731-7.675-1.873-10.258-.572-1.294-1.226-2.28-1.903-2.928-.672-.645-1.315-.914-1.91-.914-.594 0-1.238.27-1.91.914-.677.649-1.332 1.635-1.903 2.928-1.141 2.582-1.872 6.21-1.873 10.252" clip-rule="evenodd"/><path fill="#FFFFFF" fill-rule="evenodd" d="M47.9 64.9H16.965v-2H47.9z" clip-rule="evenodd"/><path fill="#FFFFFF" d="M71.451 61a2.97 2.97 0 0 1 3.493 3.5c-.2 1.2-1.198 2.1-2.395 2.4a2.97 2.97 0 0 1-3.493-3.5c.3-1.2 1.297-2.2 2.395-2.4"/><path fill="#578BFA" d="M96 56h-7.982v16H96z"/><path fill="#FFFFFF" fill-rule="evenodd" d="M.2 39h87.816v2H.2zm0 48h88.016v2H.199z" clip-rule="evenodd"/></svg>