<svg xmlns="http://www.w3.org/2000/svg" fill="none" viewBox="0 0 97 96"><path fill="#44C28D" d="M0 24C0 10.745 10.745 0 24 0s24 10.745 24 24-10.745 24-24 24S0 37.255 0 24"/><path fill="#578BFA" d="M24 24h72v72H24z"/><path fill="#44C28D" d="M0 24C0 10.745 10.745 0 24 0s24 10.745 24 24-10.745 24-24 24S0 37.255 0 24"/><path fill="#578BFA" d="M24 24h72v72H24z"/><path fill="#0A0B0D" d="M48 24H24v24c13.255 0 24-10.745 24-24"/><path fill="#ECD069" d="M40 64h8v24h-8z"/><path fill="#FFFFFF" d="M56 48h8v40h-8z"/><path fill="#44C28D" d="M72 40h8v48h-8z"/><path fill="#FFFFFF" d="M48 23.998c-13.257 0-23.998 10.745-23.998 24.002 0-13.257-10.745-24.002-24.002-24.002 13.257 0 24.002-10.746 24.002-23.998 0 13.252 10.74 23.998 23.998 23.998"/></svg>