<svg xmlns="http://www.w3.org/2000/svg" fill="none" viewBox="0 0 97 96"><path fill="#588AF5" d="M51.2 25.6c0 14.123-11.477 25.6-25.6 25.6C11.477 51.2 0 39.723 0 25.6 0 11.477 11.477 0 25.6 0c14.123 0 25.6 11.477 25.6 25.6Z"/><path fill="#45DAF6" d="M70.4 25.6H25.6v44.8h44.8V25.6Z"/><path fill="#464B55" d="M96 70.4C96 84.523 84.523 96 70.4 96c-14.122 0-25.6-11.477-25.6-25.6 0-14.123 11.478-25.6 25.6-25.6C84.523 44.8 96 56.277 96 70.4Z"/><path fill="#588AF5" d="M89.6 70.4c0 10.629-8.57 19.2-19.2 19.2a19.168 19.168 0 0 1-19.2-19.2c0-10.629 8.572-19.2 19.2-19.2 10.63 0 19.2 8.572 19.2 19.2Z"/><path fill="#588AF5" fill-rule="evenodd" d="M70.4 44.8c-14.122 0-25.6 11.477-25.6 25.6h25.6V44.8Z" clip-rule="evenodd"/><path fill="#0A0B0D" fill-rule="evenodd" d="M70.4 51.2a19.168 19.168 0 0 0-19.2 19.2h19.2V51.2Zm-44.8 0c14.122 0 25.6-11.477 25.6-25.6H25.6v25.6Z" clip-rule="evenodd"/><path fill="#ECD069" d="M25.6 6.4c-10.603 0-19.2 8.596-19.2 19.2s8.597 19.2 19.2 19.2c10.604 0 19.2-8.596 19.2-19.2S36.204 6.4 25.6 6.4Z"/><path fill="#588AF5" fill-rule="evenodd" d="M44.8 25.6H25.6v19.2c10.603 0 19.2-8.596 19.2-19.2Z" clip-rule="evenodd"/><path fill="#ECD069" d="m25.6 33.6-2.4-10.4 10.4 2.4-8 8Z"/><path fill="#FFFFFF" d="M33.599 25.6v8h-8l8-8Z"/><path fill="#ECD069" d="M76.802 64a6.4 6.4 0 1 1-12.8 0 6.4 6.4 0 0 1 12.8 0Z"/><path fill="#588AF5" fill-rule="evenodd" d="M70.402 57.6a6.4 6.4 0 0 0 0 12.8V57.6Z" clip-rule="evenodd"/><path fill="#ECD069" fill-rule="evenodd" d="M57.7 84.818c-.067-.53-.1-1.07-.1-1.618 0-7.086 5.714-12.8 12.8-12.8a12.78 12.78 0 0 1 12.8 12.8c0 .548-.035 1.088-.101 1.618a19.136 19.136 0 0 1-12.7 4.782 19.136 19.136 0 0 1-12.7-4.782Z" clip-rule="evenodd"/></svg>