<svg xmlns="http://www.w3.org/2000/svg" fill="none" viewBox="0 0 96 96"><path fill="#A5C1FD" d="M12.8 51.41h70.4v32H12.8z"/><path fill="#0A0B0D" fill-rule="evenodd" d="M19.2 67.41h32v-1.6h-32v1.6Zm0-6.19h38.4v-1.6H19.2v1.6Z" clip-rule="evenodd"/><path fill="#FFFFFF" fill-rule="evenodd" d="M64 56.21h16v4.8H64v-4.8Z" clip-rule="evenodd"/><path fill="#0A0B0D" fill-rule="evenodd" d="M19.2 75.41h25.6v1.6H19.2v-1.6Zm41.6 0h16v1.6h-16v-1.6Z" clip-rule="evenodd"/><path fill="#464B55" d="M60.8 44.8a12.8 12.8 0 1 1-25.6 0 12.8 12.8 0 0 1 25.6 0Z"/><path fill="#ECD069" d="M60.8 25.6a12.8 12.8 0 1 1-25.6 0 12.8 12.8 0 0 1 25.6 0Z"/><path fill="#588AF5" fill-rule="evenodd" d="M56.47 35.2a12.75 12.75 0 0 1-16.93 0 12.75 12.75 0 0 1 16.93 0ZM37.04 51.41a12.8 12.8 0 0 0 21.92 0H37.04Z" clip-rule="evenodd"/><path fill="#FFFFFF" fill-rule="evenodd" d="M19.2 23.41h6.4v-1.6h-6.4v1.6Z" clip-rule="evenodd"/><path fill="#FFFFFF" fill-rule="evenodd" d="M23.2 25.81v-6.4h-1.6v6.4h1.6Zm47.2 16.8h6.4v-1.6h-6.4v1.6Z" clip-rule="evenodd"/><path fill="#FFFFFF" fill-rule="evenodd" d="M74.4 45.01v-6.4h-1.6v6.4h1.6Z" clip-rule="evenodd"/></svg>