<svg xmlns="http://www.w3.org/2000/svg" fill="none" viewBox="0 0 96 96"><path fill="#ECD069" d="M96 0H0v38.4h96V0Z"/><path fill="#588AF5" d="M19.2 38.4a28.8 28.8 0 0 1 57.6 0H19.2Z"/><path fill="#464B55" fill-rule="evenodd" d="M63.838 54.24A22.4 22.4 0 0 0 70.4 38.4h6.4v2.152c0 4.584-3.172 12.452-7.047 17.483l-4.097 5.325c-3.77 4.895-7.89 13.692-8.055 19.84v3.2H38.4v-3.2c-.166-6.148-4.285-14.945-8.055-19.84l-4.098-5.325c-3.875-5.031-7.047-12.9-7.047-17.483V38.4h6.4a22.4 22.4 0 0 0 38.238 15.84Z" clip-rule="evenodd"/><path fill="#ECD069" d="M25.599 38.4a22.4 22.4 0 0 1 44.8 0h-44.8Z"/><path fill="#588AF5" d="M32.001 38.4a16 16 0 1 1 32 0h-32Z"/><path fill="#ECD069" d="M64.001 38.4a16 16 0 0 1-32 0h32Z"/><path fill="#588AF5" d="M38.4 86.4a9.6 9.6 0 1 1 19.2 0H38.4Z"/><path fill="#ECD069" d="M57.6 86.4a9.6 9.6 0 0 1-19.2 0h19.2Z"/><path fill="#0A0B0D" d="m53.32 43.647-5.322-5.321-5.32 5.321 1.13 1.132 3.391-3.391V86.39h1.6v-45l3.39 3.389 1.13-1.132Z"/><path fill="#FFFFFF" fill-rule="evenodd" d="m86.39 42.491 3.2.073a42.911 42.911 0 0 0 0-1.928l-3.2.073-3.199.072a35.915 35.915 0 0 1 0 1.637l3.2.073ZM6.4 41.6c0-.322.004-.644.012-.964l3.199.073 3.199.072a35.915 35.915 0 0 0 0 1.637l-3.2.073-3.198.073a38.62 38.62 0 0 1-.011-.964Zm13.827 26.518-2.314 2.21c.443.463.896.916 1.36 1.359l2.21-2.314 2.21-2.314a35.5 35.5 0 0 1-1.152-1.151l-2.314 2.21Zm54.291 1.255 2.21 2.314a41.86 41.86 0 0 0 1.36-1.359l-2.314-2.21-2.314-2.21a35.4 35.4 0 0 1-1.152 1.15l2.21 2.315Z" clip-rule="evenodd"/><path fill="#0A0B0D" fill-rule="evenodd" d="m75.773 15.082 2.314-2.21a41.762 41.762 0 0 0-1.359-1.36l-2.21 2.315-2.21 2.314c.392.375.776.759 1.151 1.151l2.314-2.21ZM48.891 3.21l.073-3.2a42.41 42.41 0 0 0-1.928 0l.073 3.2.072 3.2a36.03 36.03 0 0 1 1.638 0l.072-3.2Zm-30.978 9.662a40.53 40.53 0 0 1 1.359-1.36l2.21 2.315 2.21 2.314a35.5 35.5 0 0 0-1.151 1.151l-2.314-2.21-2.314-2.21Z" clip-rule="evenodd"/></svg>