<svg xmlns="http://www.w3.org/2000/svg" fill="none" viewBox="0 0 96 96"><path fill="#464B55" fill-rule="evenodd" d="M76.8 49.044a22.313 22.313 0 0 1-9.6 2.156c-3.436 0-6.69-.773-9.6-2.156V60.8h19.2V49.044Z" clip-rule="evenodd"/><path fill="#A5C1FD" d="M51.2 60.8h6.4v25.6h-6.4V60.8Zm25.599 0h6.4v25.6h-6.4V60.8Z"/><path fill="#588AF5" d="M57.6 60.8h19.2v25.6H57.6V60.8Z"/><path fill="#45DAF6" d="M9.6 73.6h32v12.8h-32V73.6Z"/><path fill="#0A0B0D" fill-rule="evenodd" d="M9.6 79.2h32v1.6h-32v-1.6Zm41.6 0h32v1.6h-32v-1.6Zm0-6.4h32v1.6h-32v-1.6Zm0-6.4h32V68h-32v-1.6Z" clip-rule="evenodd"/><path fill="#A5C1FD" d="M86.4 28.8c0 10.604-8.596 19.2-19.2 19.2S48 39.404 48 28.8 56.596 9.6 67.2 9.6s19.2 8.596 19.2 19.2Z"/><path fill="#588AF5" d="M57.6 45.432V28.8h19.2v16.632A19.112 19.112 0 0 1 67.2 48c-3.498 0-6.776-.935-9.6-2.568Z"/><path fill="#45DAF6" d="M67.2 14.4v28.8l9.6-14.4-9.6-14.4Z"/><path fill="#FFFFFF" d="M67.2 14.4v28.8l-9.6-14.4 9.6-14.4Z"/><path fill="#588AF5" d="M67.2 24.03v10.8l-9.6-6.03 9.6-4.77Z"/><path fill="#0A0B0D" d="M67.199 24.03v10.8l9.6-6.03-9.6-4.77Z"/><path fill="#FFFFFF" d="M22.4 64a3.2 3.2 0 1 1-6.4 0 3.2 3.2 0 0 1 6.4 0Zm22.4-9.6a3.2 3.2 0 1 1-6.4 0 3.2 3.2 0 0 1 6.4 0Z"/><path fill="#45DAF6" d="m38.4 12.8 1.132 5.268L44.8 19.2l-5.268 1.132L38.4 25.6l-1.132-5.268L32 19.2l5.268-1.132L38.4 12.8Z"/><path fill="#464B55" d="M24.8 39.2v2.4h1.6v-2.4h2.4v-1.6h-2.4v-2.4h-1.6v2.4h-2.4v1.6h2.4Z"/><path fill="#FFFFFF" d="M52.233 45.465a22.53 22.53 0 0 1-1.697-1.697l-9.62 9.62-22.187 9.509.945 2.206 22.612-9.691 9.947-9.947Z"/></svg>