<svg xmlns="http://www.w3.org/2000/svg" fill="none" viewBox="0 0 96 96"><path fill="#FFFFFF" fill-rule="evenodd" d="M77.2 1.97 19.37 13.92l-.4-1.96L76.8.01l.4 1.96Z" clip-rule="evenodd"/><path fill="#464B55" d="M19.2 12.8 6.4 51.2H32L19.2 12.8ZM76.8 0 64 38.4h25.6L76.8 0Z"/><path fill="#ECD069" d="M38.4 51.2a19.2 19.2 0 1 1-38.4 0h38.4Z"/><path fill="#45DAF6" d="M96 38.4a19.2 19.2 0 1 1-38.4 0H96ZM32 50.88a12.8 12.8 0 1 1-25.6 0 12.8 12.8 0 0 1 25.6 0Z"/><path fill="#ECD069" d="M89.6 38.4a12.8 12.8 0 1 1-25.6 0 12.8 12.8 0 0 1 25.6 0Z"/><path fill="#588AF5" fill-rule="evenodd" d="M19.2 64A12.8 12.8 0 0 0 32 51.2H6.4A12.8 12.8 0 0 0 19.2 64Zm57.6-12.8a12.8 12.8 0 0 0 12.8-12.8H64a12.8 12.8 0 0 0 12.8 12.8Z" clip-rule="evenodd"/><path fill="#464B55" d="M51.2 3.2A3.2 3.2 0 0 0 48 0"/><path fill="#464B55" fill-rule="evenodd" d="M44.99 87V3.52A3.47 3.47 0 0 1 48.44 0a3.47 3.47 0 0 1 3.45 3.52V87" clip-rule="evenodd"/><path fill="#588AF5" d="M32 95.81c0-8.85 7.15-16 16-16s16 7.15 16 16H32Z"/><path fill="#0A0B0D" fill-rule="evenodd" d="M19.2 57.88a7 7 0 1 0 0-14 7 7 0 0 0 0 14Zm0 2a9 9 0 1 0 0-18 9 9 0 0 0 0 18ZM76.8 45.4a7 7 0 1 0 0-14 7 7 0 0 0 0 14Zm0 2a9 9 0 1 0 0-18 9 9 0 0 0 0 18Z" clip-rule="evenodd"/></svg>