<svg xmlns="http://www.w3.org/2000/svg" fill="none" viewBox="0 0 96 97"><path fill="#ECD069" d="M23.11 73.116a35.2 35.2 0 1 0 49.781-49.78l-24.89 24.89-24.89 24.89Z"/><path fill="#588AF5" d="M36.686 59.54a16 16 0 1 0 22.628-22.628L36.686 59.54Z"/><path fill="#464B55" d="M59.314 36.912A16 16 0 0 0 36.686 59.54l22.628-22.628Zm28.501-23.449-5.168-5.168-9.556 9.555 5.168 5.168 9.556-9.555Z"/><path fill="#588AF5" d="M90.832 17.394 96 12.226 83.774 0l-5.168 5.168 12.226 12.226Z"/><path fill="#FFFFFF" d="m73.954 23.956-1.684-1.684-26.223 26.224 1.684 1.683 26.223-26.223Z"/><path fill="#0A0B0D" d="M56 48.226a8 8 0 1 1-16 0 8 8 0 0 1 16 0Z"/><path fill="#464B55" fill-rule="evenodd" d="M48 96.226c26.51 0 48-21.49 48-48s-21.49-48-48-48-48 21.49-48 48 21.49 48 48 48Zm0-16c17.673 0 32-14.327 32-32 0-17.673-14.327-32-32-32-17.673 0-32 14.327-32 32 0 17.673 14.327 32 32 32Z" clip-rule="evenodd"/></svg>