<svg xmlns="http://www.w3.org/2000/svg" fill="none" viewBox="0 0 96 96"><path fill="#588AF5" d="M40 40h56v56H40V40Z"/><path fill="#ECD069" d="M64 56h8v32h-8V56Z"/><path fill="#44C28D" d="M48 72h8v16h-8V72Z"/><path fill="#45DAF6" d="M80 48h8v40h-8V48Z"/><path fill="#464B55" d="M0 0h56v64H0V0Z"/><path fill="#0A0B0D" fill-rule="evenodd" d="M56 40v24H40V40h16Z" clip-rule="evenodd"/><path fill="#FFFFFF" d="M8 8h39v48H8V8Z"/><path fill="#0A0B0D" fill-rule="evenodd" d="M45.778 10.182H10.222v43.636h35.556V10.182ZM8 8v48h40V8H8Z" clip-rule="evenodd"/><path fill="#ECD069" d="M34.364 31.364a9 9 0 1 1-12.728-12.728 9 9 0 0 1 12.728 12.728Z"/><path fill="#45DAF6" d="M34.364 45.364a9 9 0 1 1-12.728-12.728 9 9 0 0 1 12.728 12.728Z"/><path fill="#588AF5" d="M33.658 32a9.003 9.003 0 0 1-11.316 0 9.003 9.003 0 0 1 11.316 0Z"/></svg>