<svg xmlns="http://www.w3.org/2000/svg" fill="none" viewBox="0 0 96 96"><path fill="#464B55" d="M76.8 12.92H19.2V70.4h57.6V12.92Z"/><path fill="#0A0B0D" fill-rule="evenodd" d="M38.4 21.62H64v1.6H38.4v-1.6Zm0 9.6H64v1.6H38.4v-1.6Zm0 9.6H64v1.6H38.4v-1.6Z" clip-rule="evenodd"/><path fill="#0A0B0D" d="M33.6 22.4a1.6 1.6 0 1 1-3.2 0 1.6 1.6 0 0 1 3.2 0Zm0 9.6a1.6 1.6 0 1 1-3.2 0 1.6 1.6 0 0 1 3.2 0Zm0 9.6a1.6 1.6 0 1 1-3.2 0 1.6 1.6 0 0 1 3.2 0Z"/><path fill="#0A0B0D" fill-rule="evenodd" d="M38.4 50.42H64v1.6H38.4v-1.6Z" clip-rule="evenodd"/><path fill="#0A0B0D" d="M33.6 51.2a1.6 1.6 0 1 1-3.2 0 1.6 1.6 0 0 1 3.2 0Z"/><path fill="#45DAF6" d="M35.14 70.46a12.86 12.86 0 1 1 25.72 0 12.86 12.86 0 0 1-25.72 0Z"/><path fill="#588AF5" fill-rule="evenodd" d="M60.86 70.4a12.86 12.86 0 0 0-25.72 0h25.72Z" clip-rule="evenodd"/><path fill="#FFFFFF" fill-rule="evenodd" d="M40 70.46a8 8 0 1 0 16 0 8 8 0 0 0-16 0Zm8-9.6a9.6 9.6 0 1 0 0 19.2 9.6 9.6 0 0 0 0-19.2Z" clip-rule="evenodd"/></svg>