<svg xmlns="http://www.w3.org/2000/svg" fill="none" viewBox="0 0 96 96"><path fill="#464B55" d="M16 32h64v32H16z"/><path fill="#E66020" d="M80 64c0 17.673-14.327 32-32 32S16 81.673 16 64s14.327-32 32-32 32 14.327 32 32"/><path fill="#578BFA" d="M80 32c0 17.673-14.327 32-32 32S16 49.673 16 32 30.327 0 48 0s32 14.327 32 32"/><path fill="#FFFFFF" d="M75 32c0 14.912-12.088 27-27 27S21 46.912 21 32 33.088 5 48 5s27 12.088 27 27"/><path fill="#8E76FF" d="M48 56c13.255 0 24-10.745 24-24S61.255 8 48 8 24 18.745 24 32s10.745 24 24 24"/><path fill="#578BFA" d="M47.998 14.4v12.606l10.495 4.76z"/><path fill="#FFFFFF" d="M47.997 14.4 37.5 31.767l10.497-4.761z"/><path fill="#578BFA" d="M47.998 39.935V48.5L58.5 33.75z"/><path fill="#FFFFFF" d="M47.997 48.5v-8.567L37.5 33.75z"/><path fill="#0A0B0D" d="m47.998 37.952 10.495-6.186-10.495-4.758z"/><path fill="#578BFA" d="m37.5 31.766 10.497 6.186V27.008zM20.281 80c5.533-9.565 15.875-16 27.72-16s22.185 6.435 27.718 16C70.186 89.565 59.845 96 48 96c-11.844 0-22.186-6.435-27.719-16"/></svg>