<svg xmlns="http://www.w3.org/2000/svg" fill="none" viewBox="0 0 96 96"><path fill="#464B55" d="m0 73.6 48-22.4 48 22.4L48 96 0 73.6Z"/><path fill="#FFFFFF" d="M20.25 50.95h-2.1v22.9h2.1v-22.9Zm57.6 0h-2.1v22.9h2.1v-22.9Zm-28.8 12.8h-2.1v22.9h2.1v-22.9Z"/><path fill="#45DAF6" d="M0 22.4 48 0l48 22.4-48 22.4L0 22.4Z"/><path fill="#ECD069" d="m0 48 48-22.4L96 48 48 70.4 0 48Z"/><path fill="#588AF5" fill-rule="evenodd" d="M68.57 60.8 48 70.4l-20.57-9.6L48 51.2l20.57 9.6Z" clip-rule="evenodd"/><path fill="#0A0B0D" fill-rule="evenodd" d="M68.65 35.24 48 44.8l-20.66-9.64 20.34-9.56 20.97 9.64Z" clip-rule="evenodd"/><path fill="#588AF5" d="M27.2 35.08 48 70.4l20.8-35.32L48 25.6l-20.8 9.48Z"/><path fill="#588AF5" d="M27.2 35.08 48 70.4l20.8-35.32L48 25.6l-20.8 9.48Z"/><path fill="#0A0B0D" d="M68.8 35.07 48 0 27.2 35.07 48 44.8l20.8-9.73Z"/><path fill="#0A0B0D" fill-rule="evenodd" d="M56.83 55.4 48 51.2l-8.93 4.04L48 70.4l8.83-15Z" clip-rule="evenodd"/></svg>