<svg xmlns="http://www.w3.org/2000/svg" fill="none" viewBox="0 0 96 96"><path fill="#464B55" d="M76 48c0-15.464-12.536-28-28-28S20 32.536 20 48v48h56V48Z"/><path fill="#464B55" d="M32 27.79C32 36.742 39.163 44 48 44s16-7.258 16-16.21V0H32v27.79Z"/><path fill="#588AF5" d="M48 44c-8.837 0-16-7.258-16-16.21v-2.771A27.871 27.871 0 0 1 48 20a27.871 27.871 0 0 1 16 5.019v2.77C64 36.742 56.837 44 48 44Zm8 18.587c0-5.067 0-7.6 1-9.597.846-1.689 2.23-3.07 4-3.992C62.923 48 65.462 48 70.538 48h10.847C86.46 48 89 48 91 48.998c1.692.845 3.077 2.227 4 3.992 1 1.92 1 4.453 1 9.597v10.826c0 5.067 0 7.6-1 9.597-.846 1.689-2.23 3.07-4 3.992-1.923.998-4.462.998-9.615.998H70.538c-5.076 0-7.615 0-9.615-.998-1.692-.845-3.077-2.227-4-3.992C56 81.013 56 78.48 56 73.413V62.587Z"/><path fill="#FFFFFF" d="M90 68c0 7.751-6.249 14-14 14s-14-6.249-14-14 6.249-14 14-14 14 6.249 14 14Z"/><path fill="#588AF5" d="M72 65.874c0-.649 0-1.01.14-1.225.138-.217.277-.433.486-.505.278-.144.557-.144 1.252-.144h4.244c.695 0 .974 0 1.252.144.209.144.417.288.487.505.139.288.139.576.139 1.225v4.252c0 .649 0 1.01-.14 1.225-.138.217-.277.433-.486.505-.278.144-.557.144-1.252.144h-4.244c-.695 0-.974 0-1.252-.144-.209-.144-.417-.288-.487-.505C72 71.063 72 70.775 72 70.126v-4.252ZM0 62.58c0-5.067 0-7.64 1.014-9.59a8.919 8.919 0 0 1 3.976-3.976C6.94 48 9.513 48 14.58 48h10.84c5.067 0 7.64 0 9.59 1.014a8.92 8.92 0 0 1 3.976 3.976C40 54.94 40 57.513 40 62.58v10.84c0 5.067 0 7.64-1.014 9.59a8.92 8.92 0 0 1-3.976 3.976C33.06 88 30.487 88 25.42 88H14.58c-5.067 0-7.64 0-9.59-1.014a8.919 8.919 0 0 1-3.976-3.976C0 81.06 0 78.565 0 73.42V62.58Z"/><path fill="#FFFFFF" d="M20.038 73.75c-2.793 0-4.981-2.35-4.981-5.25s2.264-5.25 4.98-5.25c2.491 0 4.529 1.88 4.906 4.388H30C29.547 62.231 25.245 58 20.038 58 14.528 58 10 62.702 10 68.5 10 74.299 14.453 79 20.038 79c5.283 0 9.51-4.231 9.962-9.638h-5.057c-.377 2.507-2.415 4.388-4.905 4.388ZM56 32c0 4.4-3.6 8-8 8s-8-3.6-8-8 3.6-8 8-8 8 3.6 8 8Z"/><path fill="#0A0B0D" fill-rule="evenodd" d="M44 32c0-1.12.88-2 2-2h1.6v.8H46c-.64 0-1.2.56-1.2 1.2 0 .64.56 1.2 1.2 1.2h1.6v.8H46c-1.04 0-2-.88-2-2Zm8 0c0-1.12-.88-2-2-2h-1.6v.8H50c.64 0 1.2.56 1.2 1.2 0 .64-.56 1.2-1.2 1.2h-1.6v.8H50c1.12 0 2-.88 2-2Z" clip-rule="evenodd"/><path fill="#0A0B0D" fill-rule="evenodd" d="M50 32.4h-4v-.8h4v.8Z" clip-rule="evenodd"/></svg>