<svg xmlns="http://www.w3.org/2000/svg" fill="none" viewBox="0 0 96 96"><g clip-path="url(#a)"><path fill="#464B55" d="m0 40 3.6 13.3 3.6 13.3L10.8 80h74.4l3.6-13.3 3.6-13.3L96 40H0Z"/><path fill="#44C28D" d="M96 88H0v8h96v-8Z"/><path fill="#0A0B0D" d="M91.5 69.9H3.7V72h87.7v-2.1h.1Z"/><path fill="#588AF5" d="M68 96c5.5 0 10-4.5 10-10s-4.5-10-10-10-10 4.5-10 10 4.5 10 10 10Zm-40 0c5.5 0 10-4.5 10-10s-4.5-10-10-10-10 4.5-10 10 4.5 10 10 10Z"/><path fill="#0A0B0D" fill-rule="evenodd" d="M37.8 88c-.9 4.6-5 8-9.8 8-4.8 0-8.9-3.4-9.8-8h19.6Zm40 0c-.9 4.6-5 8-9.8 8-4.8 0-8.9-3.4-9.8-8h19.6Z" clip-rule="evenodd"/><path fill="#44C28D" d="M48 64c13.3 0 24-10.7 24-24S61.3 16 48 16 24 26.7 24 40s10.7 24 24 24Z"/><path fill="#588AF5" fill-rule="evenodd" d="M72 40c0 13.3-10.7 24-24 24S24 53.3 24 40h48Z" clip-rule="evenodd"/><path fill="#FFFFFF" d="M48 16h1.1V0H47v16h1Z"/><path fill="#0A0B0D" d="M48 16h-1v20l-5.4-5.4-1.5 1.5L48 40l7.9-7.9-1.5-1.5-5.3 5.4V16H48Z"/></g><defs><clipPath id="a"><path fill="#FFFFFF" d="M0 0h96v96H0z"/></clipPath></defs></svg>