<svg xmlns="http://www.w3.org/2000/svg" fill="none" viewBox="0 0 96 96"><path fill="#464B55" d="M22.4 37.6a3.2 3.2 0 0 1 3.2-3.2h67.2a3.2 3.2 0 0 1 3.2 3.2V80a3.2 3.2 0 0 1-3.2 3.2H25.6a3.2 3.2 0 0 1-3.2-3.2V37.6Z"/><path fill="#588AF5" d="M.43 44.716a3.17 3.17 0 0 1 1.174-4.348L60.13 6.827a3.22 3.22 0 0 1 4.38 1.165l21.46 36.892a3.17 3.17 0 0 1-1.174 4.348L26.27 82.773a3.22 3.22 0 0 1-4.38-1.165L.43 44.716Z"/><path fill="#0A0B0D" fill-rule="evenodd" d="m79.872 34.4 6.098 10.484a3.17 3.17 0 0 1-1.173 4.348L26.269 82.773a3.212 3.212 0 0 1-1.135.393A3.2 3.2 0 0 1 22.4 80V37.6a3.2 3.2 0 0 1 3.2-3.2h54.272Z" clip-rule="evenodd"/><path fill="#464B55" fill-rule="evenodd" d="M28.756 83.2a7.182 7.182 0 0 0-2.356-6.167v2.48a5.574 5.574 0 0 1 .744 3.687h1.613Z" clip-rule="evenodd"/><path fill="#0A0B0D" fill-rule="evenodd" d="m28.727 81.365-1.529.875a5.57 5.57 0 0 0-.798-2.726v-2.48a7.187 7.187 0 0 1 2.327 4.33Z" clip-rule="evenodd"/><path fill="#0A0B0D" fill-rule="evenodd" d="M26.655 79.987a5.623 5.623 0 0 0-2.641-2.642 2.394 2.394 0 0 1 .69-1.443 7.229 7.229 0 0 1 3.395 3.394 2.392 2.392 0 0 1-1.444.69Z" clip-rule="evenodd"/><path fill="#588AF5" fill-rule="evenodd" d="M96 60.798V51.2h-9.439a9.76 9.76 0 0 0-3.708.731 9.675 9.675 0 0 0-3.14 2.082 9.557 9.557 0 0 0-2.094 3.114 9.475 9.475 0 0 0-.726 3.67v.063c0 1.253.25 2.493.736 3.65a9.532 9.532 0 0 0 2.096 3.096 9.68 9.68 0 0 0 3.136 2.068 9.77 9.77 0 0 0 3.7.726h9.44v-9.602Z" clip-rule="evenodd"/><path fill="#ECD069" d="M91.2 60.8a4.8 4.8 0 1 1-9.6 0 4.8 4.8 0 0 1 9.6 0Z"/><path fill="#FFFFFF" fill-rule="evenodd" d="M21.6 74.95a7.45 7.45 0 1 0 0 14.9 7.45 7.45 0 0 0 0-14.9Zm-5.35 7.45a5.35 5.35 0 1 1 10.7 0 5.35 5.35 0 0 1-10.7 0Z" clip-rule="evenodd"/></svg>