<svg xmlns="http://www.w3.org/2000/svg" fill="none" viewBox="0 0 96 96"><path fill="#464B55" d="M95.999 26.182H0v61.09h95.999zM69.817 87.273H26.181V96h43.636z"/><path fill="#578BFA" d="M26.181 26.182v61.09h43.636v-61.09z"/><path fill="#464B55" d="M69.817 26.182H26.181L48 8.728z"/><path fill="#FFFFFF" d="M48 45.819c6 0 10.91 4.909 10.91 10.908 0 6-4.91 10.91-10.91 10.91s-10.908-4.91-10.908-10.91S42 45.82 48 45.82m0-2.182c-7.2 0-13.09 5.89-13.09 13.09S40.8 69.819 48 69.819s13.091-5.89 13.091-13.09-5.89-13.091-13.09-13.091"/><path fill="#FFFFFF" fill-rule="evenodd" d="M57.716 48.663 40.37 66.008l-1.543-1.543L56.173 47.12z" clip-rule="evenodd"/><path fill="#0A0B0D" d="M48 21.819a4.364 4.364 0 1 0 0-8.727 4.364 4.364 0 0 0 0 8.727"/><path fill="#0A0B0D" fill-rule="evenodd" d="M46.91 17.455V.001h2.182v17.454z" clip-rule="evenodd"/></svg>