<svg xmlns="http://www.w3.org/2000/svg" fill="none" viewBox="0 0 96 96"><path fill="#464B55" d="M96 32H0v56h96V32ZM72 88H24v8h48v-8Z"/><path fill="#588AF5" d="M72 32H24v56h48V32Z"/><path fill="#ECD069" d="M72 32H24l24-20 24 20Z"/><path fill="#45DAF6" d="M48 40a20 20 0 1 0 .01 40.01A20 20 0 0 0 48 40Z"/><path fill="#ECD069" d="M48 40v40c11.06 0 20-8.94 20-20s-8.94-20-20-20Z"/><path fill="#0A0B0D" d="m58 50.94-1.52-1.44-8.52 9.01L38.94 50l-1.44 1.52 9.02 8.52L38 69.06l1.53 1.44 8.51-9.02L57.06 70l1.44-1.53-9.01-8.51L58 50.94Z"/><path fill="#FFFFFF" d="M49.05 0h-2.1v21.43A2.65 2.65 0 0 0 48 26.51a2.66 2.66 0 0 0 1.05-5.08V0Z"/></svg>