<svg xmlns="http://www.w3.org/2000/svg" fill="none" viewBox="0 0 96 96"><path fill="#464B55" d="M96 32H0v56h96V32ZM72 88H24v8h48v-8Z"/><path fill="#588AF5" d="M72 32H24v56h48V32Z"/><path fill="#ECD069" d="M72 32H24l24-20 24 20Z"/><path fill="#45DAF6" d="M48 40c-11.042 0-20 8.958-20 20s8.958 20 20 20 20-8.958 20-20-8.958-20-20-20Z"/><path fill="#ECD069" d="M48 40v40c11.062 0 20-8.938 20-20 0-11.063-8.938-20-20-20Z"/><path fill="#0A0B0D" d="m58.002 50.94-1.527-1.443-8.517 9.018-9.019-8.517-1.442 1.526 9.019 8.518-8.518 9.019 1.527 1.442 8.518-9.02 9.018 8.518 1.442-1.527-9.018-8.517 8.517-9.018ZM49.05 0h-2.1v21.43a2.658 2.658 0 0 0-1.6 2.432 2.657 2.657 0 0 0 2.65 2.65 2.657 2.657 0 0 0 2.65-2.65 2.658 2.658 0 0 0-1.6-2.432V0Z"/></svg>