<svg xmlns="http://www.w3.org/2000/svg" fill="none" viewBox="0 0 96 96"><path fill="#464B55" d="M24 39.579C24 26.557 34.745 16 48 16s24 10.557 24 23.579V66.5H24z"/><path fill="#464B55" d="M0 80h96V64H0z"/><path fill="#ECD069" d="M58 78c0 5.523-4.477 10-10 10s-10-4.477-10-10 4.477-10 10-10 10 4.477 10 10"/><path fill="#464B55" d="M53 13a5 5 0 1 1-10 0 5 5 0 0 1 10 0"/><path fill="#F0616D" d="M80 28c0 6.627-5.373 12-12 12s-12-5.373-12-12 5.373-12 12-12 12 5.373 12 12"/><path fill="#0A0B0D" fill-rule="evenodd" d="M59.895 19.15c7.047 4.03 11.855 11.53 12.096 20.17-1.249.44-2.592.68-3.991.68-6.627 0-12-5.373-12-12a11.97 11.97 0 0 1 3.895-8.85M64 57H32v-2h32z" clip-rule="evenodd"/><path fill="#578BFA" d="M8 80h80c0-8.837-7.163-16-16-16H24c-8.837 0-16 7.163-16 16"/></svg>