<svg xmlns="http://www.w3.org/2000/svg" fill="none" viewBox="0 0 96 96"><path fill="#464B55" d="M76.8 22.4H25.6V80h51.2V22.4Z"/><path fill="#588AF5" d="M70.4 22.4H32v51.2h38.4V22.4Z"/><path fill="#464B55" fill-rule="evenodd" d="M51.2 12.8A3.2 3.2 0 0 0 48 16H35.2a3.2 3.2 0 0 0-3.2 3.2v3.2h38.4v-3.2a3.2 3.2 0 0 0-3.2-3.2H54.4a3.2 3.2 0 0 0-3.2-3.2Zm1.6 3.2a1.6 1.6 0 1 1-3.2 0 1.6 1.6 0 0 1 3.2 0Z" clip-rule="evenodd"/><path fill="#45DAF6" d="M16 19.2a3.2 3.2 0 0 1 3.2-3.2 3.2 3.2 0 0 1-3.2-3.2 3.2 3.2 0 0 1-3.2 3.2 3.2 3.2 0 0 1 3.2 3.2Z"/><path fill="#ECD069" d="M25.6 28.8a6.4 6.4 0 0 1 6.4-6.4 6.4 6.4 0 0 1-6.4-6.4 6.4 6.4 0 0 1-6.4 6.4 6.4 6.4 0 0 1 6.4 6.4Z"/><path fill="#588AF5" fill-rule="evenodd" d="M31.9 22.4h-6.3v6.3a6.4 6.4 0 0 1 6.3-6.3Z" clip-rule="evenodd"/><path fill="#0A0B0D" fill-rule="evenodd" d="M38.4 34.4h16V36h-16v-1.6Zm0 12.8h16v1.6h-16v-1.6Zm0 12.8h16v1.6h-16V60Z" clip-rule="evenodd"/><path fill="#FFFFFF" fill-rule="evenodd" d="m65.84 33.35-5.13 5.39-2.87-2.8 1.12-1.15 1.7 1.67 4.02-4.21 1.16 1.1Zm0 12.8-5.13 5.39-2.87-2.8 1.12-1.15 1.7 1.67 4.02-4.21 1.16 1.1Zm0 12.8-5.13 5.39-2.87-2.8 1.12-1.15 1.7 1.67 4.02-4.21 1.16 1.1Z" clip-rule="evenodd"/></svg>