<svg xmlns="http://www.w3.org/2000/svg" fill="none" viewBox="0 0 96 96"><g clip-path="url(#a)"><path fill="#0A0B0D" d="M0 48 48 0l48 48-48 48L0 48Z"/><path fill="#ECD069" d="M96 48H0v48h96V48Z"/><path fill="#0A0B0D" d="m0 48 48 48 48-48H0Z"/><path fill="#A5C1FD" fill-rule="evenodd" d="M80 96H16V0h64v96Z" clip-rule="evenodd"/><path fill="#588AF5" fill-rule="evenodd" d="M80 96H16V56h64v40Z" clip-rule="evenodd"/><path fill="#A5C1FD" fill-rule="evenodd" d="M16 48v16l32 32 32-32V48H16Z" clip-rule="evenodd"/><path fill="#0A0B0D" fill-rule="evenodd" d="M72 25H24v-2h48v2Zm0 8H24v-2h48v2Zm0 8H24v-2h48v2Zm0 8H24v-2h48v2Zm-8 8H32v-2h32v2Zm-8 8H40v-2h16v2Z" clip-rule="evenodd"/></g><defs><clipPath id="a"><path fill="#FFFFFF" d="M0 0h96v96H0z"/></clipPath></defs></svg>