<svg xmlns="http://www.w3.org/2000/svg" fill="none" viewBox="0 0 96 96"><path fill="#464B55" d="M24 57h16V0H24zm32 0h16V0H56z"/><path fill="#464B55" d="M96 56H0v16h8v24h80V72h8V56Z"/><circle cx="48" cy="56" r="24" fill="#588AF5"/><path fill="#0A0B0D" d="M72 56a24 24 0 0 1-48 0h48Z"/><path fill="#0A0B0D" fill-rule="evenodd" d="M49 0v24.764l10.638-9.474 1.33 1.494L47.991 28.34 35.335 16.776l1.349-1.476L47 24.726V0h2Z" clip-rule="evenodd"/><path fill="#FFFFFF" fill-rule="evenodd" d="M48 70c7.732 0 14-6.268 14-14s-6.268-14-14-14-14 6.268-14 14 6.268 14 14 14Zm0 2c8.837 0 16-7.163 16-16s-7.163-16-16-16-16 7.163-16 16 7.163 16 16 16Z" clip-rule="evenodd"/><path fill="#ECD069" d="M16 56a8 8 0 0 0-8 8 8 8 0 0 0-8-8 8 8 0 0 0 8-8 8 8 0 0 0 8 8Z"/><path fill="#ECD069" d="M16 56a8 8 0 0 0-8 8 8 8 0 0 0-8-8 8 8 0 0 0 8-8 8 8 0 0 0 8 8Z"/></svg>