<svg xmlns="http://www.w3.org/2000/svg" fill="none" viewBox="0 0 96 96"><path fill="#464B55" d="M9.6 41.6a3.2 3.2 0 0 1 3.2-3.2h60.8v6.4h-64v-3.2Z"/><path fill="#588AF5" d="M9.6 44.8v-3.2c0 1.482 1.555 3.2 3.2 3.2H9.6Zm0 0H80v41.6H12.105l-.038-.034c-1.246-.18-2.23-1.07-2.43-2.196l-.037-.034V44.8Z"/><path fill="#0A0B0D" d="M28.8 44.8h32v20.8h-32z"/><path fill="#464B55" d="M28.8 9.6h32v28.8h-32zm44.8 44.8h12.8v19.2H73.6V54.4Z"/><path fill="#0A0B0D" d="M73.6 54.4H80v19.2h-6.4V54.4Z"/><circle cx="44.8" cy="64" r="16" fill="#ECD069"/><circle cx="28.8" cy="22.4" r="6.4" fill="#45DAF6"/><path fill="#588AF5" d="M28.799 28.8a6.4 6.4 0 1 0 0-12.8v12.8Z"/><circle cx="44.8" cy="64" r="12" stroke="#0A0B0D" stroke-width="1.6"/><path fill="#ECD069" d="M67.2 28.8a6.4 6.4 0 0 0-6.399 6.4 6.4 6.4 0 0 0-6.4-6.4 6.4 6.4 0 0 0 6.4-6.4 6.4 6.4 0 0 0 6.4 6.4Z"/><path fill="#588AF5" d="M60.8 22.4v12.8c-.048-3.544-2.895-6.4-6.4-6.4 3.505 0 6.352-2.858 6.4-6.4ZM28.799 44.8h32v-6.4h-32z"/></svg>