<svg xmlns="http://www.w3.org/2000/svg" fill="none" viewBox="0 0 96 96"><path fill="#464B55" d="M0 40a4 4 0 0 1 4-4h76v8H0v-4Z"/><path fill="#588AF5" d="M0 44v-4c0 1.852 1.944 4 4 4H0Zm0 0h88v52H3.131l-.046-.042C1.527 95.73.297 94.62.047 93.212L0 93.17V44Z"/><path fill="#0A0B0D" d="M24 44h40v26H24z"/><path fill="#464B55" d="M24 0h40v36H24zm56 56h16v24H80V56Z"/><path fill="#0A0B0D" d="M80 56h8v24h-8V56Z"/><circle cx="44" cy="68" r="20" fill="#ECD069"/><circle cx="24" cy="16" r="8" fill="#45DAF6"/><path fill="#588AF5" d="M24 24a8 8 0 1 0 0-16v16Z"/><circle cx="44" cy="68" r="15" stroke="#0A0B0D" stroke-width="2"/><path fill="#ECD069" d="M72 24a8 8 0 0 0-8 8 8 8 0 0 0-8-8 8 8 0 0 0 8-8 8 8 0 0 0 8 8Z"/><path fill="#588AF5" d="M64 16v16c-.06-4.43-3.619-8-8-8 4.381 0 7.94-3.572 8-8ZM24 44h40v-8H24z"/></svg>