<svg xmlns="http://www.w3.org/2000/svg" fill="none" viewBox="0 0 96 96"><g clip-path="url(#a)"><path fill="#FFFFFF" fill-rule="evenodd" d="M65.001 41.012V65c0 7.792-5.57 14.283-12.946 15.709l.183.04c5.096 1.1 5.29 8.298.262 9.672a4.98 4.98 0 0 1-5.794-2.63l-.369-.759 1.3 8.823-1.978.291-1.491-10.118-1.49 10.118-1.98-.291 1.3-8.824-.368.76a4.98 4.98 0 0 1-5.794 2.63c-5.012-1.37-4.836-8.524.21-9.662-9.568-1.493-16.89-9.771-16.89-19.76v-8.416h2V61c0 9.941 8.06 18 18 18h9.845c7.732 0 14-6.268 14-14V41.012zm-22.499 40.4-5.983 1.291c-3.049.659-3.165 4.967-.156 5.789a2.98 2.98 0 0 0 3.467-1.574zm9.314 1.291-5.983-1.292 2.672 5.507a2.98 2.98 0 0 0 3.467 1.574c3.01-.822 2.893-5.13-.156-5.789" clip-rule="evenodd"/><path fill="#ECD069" d="m59.818 68.533 4-8 4 8z"/><path fill="#ECD069" d="M96 32c0 17.673-14.327 32-32 32S32 49.673 32 32 46.327 0 64 0s32 14.327 32 32"/><path fill="#FFFFFF" d="m48.514 28.234-.012.012.01-.012z"/><path fill="#44C28D" fill-rule="evenodd" d="M40 36c0 11.045-8.955 20-20 20S0 47.045 0 36s8.955-20 20-20 20 8.955 20 20m-29.574 0A28.15 28.15 0 0 0 20 26.428 28.15 28.15 0 0 0 29.574 36 28.15 28.15 0 0 0 20 45.572 28.15 28.15 0 0 0 10.426 36" clip-rule="evenodd"/><path fill="#578BFA" fill-rule="evenodd" d="M36.159 47.787A31.85 31.85 0 0 1 32 32c0-3.681.622-7.217 1.766-10.509A19.94 19.94 0 0 1 40 36a19.9 19.9 0 0 1-3.841 11.787" clip-rule="evenodd"/><path fill="#0A0B0D" fill-rule="evenodd" d="M64.001 51.333c10.678 0 19.334-8.656 19.334-19.333 0-10.678-8.656-19.333-19.334-19.333S44.668 21.322 44.668 32s8.656 19.333 19.333 19.333m0 2c11.782 0 21.334-9.551 21.334-21.333S75.783 10.667 64 10.667 42.668 20.217 42.668 32s9.551 21.333 21.333 21.333" clip-rule="evenodd"/><path fill="#44C28D" d="m16 60.373 4-8 4 8z"/></g><defs><clipPath id="a"><path fill="#FFFFFF" d="M0 0h96v96H0z"/></clipPath></defs></svg>