<svg xmlns="http://www.w3.org/2000/svg" fill="none" viewBox="0 0 96 96"><g clip-path="url(#a)"><path fill="#FFFFFF" fill-rule="evenodd" d="M65 41.01V65a16 16 0 0 1-12.95 15.7l.19.05c5.1 1.1 5.29 8.3.26 9.67a4.98 4.98 0 0 1-5.8-2.63l-.36-.76 1.3 8.82-1.98.3-1.5-10.12-1.48 10.12-1.98-.3 1.3-8.82-.37.76a4.98 4.98 0 0 1-5.8 2.63c-5-1.37-4.83-8.52.22-9.66A20 20 0 0 1 19.15 61v-8.42h2V61a18 18 0 0 0 18 18H49a14 14 0 0 0 14-14V41.01h2Zm-22.5 40.4-5.98 1.3c-3.05.65-3.17 4.96-.16 5.78a2.98 2.98 0 0 0 3.47-1.57l2.67-5.5Zm9.32 1.3-5.99-1.3 2.68 5.5a2.98 2.98 0 0 0 3.46 1.58c3.01-.82 2.9-5.13-.15-5.79Z" clip-rule="evenodd"/><path fill="#ECD069" d="m59.82 68.53 4-8 4 8h-8Z"/><path fill="#ECD069" d="M96 32a32 32 0 1 1-64 0 32 32 0 0 1 64 0Z"/><path fill="#FFFFFF" d="M48.51 28.23v.02-.02Z"/><path fill="#44C28D" fill-rule="evenodd" d="M40 36a20 20 0 1 1-40 0 20 20 0 0 1 40 0Zm-29.57 0A28.15 28.15 0 0 0 20 26.43 28.15 28.15 0 0 0 29.57 36 28.15 28.15 0 0 0 20 45.57 28.15 28.15 0 0 0 10.43 36Z" clip-rule="evenodd"/><path fill="#588AF5" fill-rule="evenodd" d="M36.16 47.79A31.85 31.85 0 0 1 32 32c0-3.68.62-7.22 1.77-10.5A19.94 19.94 0 0 1 40 36c0 4.4-1.43 8.48-3.84 11.79Z" clip-rule="evenodd"/><path fill="#0A0B0D" fill-rule="evenodd" d="M64 51.33a19.33 19.33 0 1 0 0-38.66 19.33 19.33 0 0 0 0 38.66Zm0 2a21.33 21.33 0 1 0 0-42.66 21.33 21.33 0 0 0 0 42.66Z" clip-rule="evenodd"/><path fill="#44C28D" d="m16 60.37 4-8 4 8h-8Z"/></g><defs><clipPath id="a"><path fill="#FFFFFF" d="M0 0h96v96H0z"/></clipPath></defs></svg>