<svg xmlns="http://www.w3.org/2000/svg" fill="none" viewBox="0 0 96 96"><path fill="#44C28D" d="M72 72c13.2 0 24-10.8 24-24S85.2 24 72 24 48 34.8 48 48s10.8 24 24 24"/><path fill="#464B55" d="M2 0h52c1.1 0 2 .982 2 2.182v91.636c0 1.2-.9 2.182-2 2.182H2c-1.1 0-2-.982-2-2.182V2.182C0 .982.9 0 2 0"/><path fill="#578BFA" d="M56 13H0v70h56z"/><path fill="#0A0B0D" d="M56 30.15c-4.904 4.402-8 10.782-8 17.85s3.096 13.448 8 17.85zM24 88h8c1.1 0 2 .9 2 2s-.9 2-2 2h-8c-1.1 0-2-.9-2-2s.9-2 2-2m4-80a2 2 0 1 0 0-4 2 2 0 0 0 0 4"/><path fill="#0A0B0D" fill-rule="evenodd" d="M60 48c0-6.556 5.096-12 11.5-12 1.295 0 2.599.242 3.797.736 1.561.51 2.863 1.386 4.015 2.468L78 41c-.987-.927-2.162-1.744-3.377-2.134l-.083-.03a7.9 7.9 0 0 0-3.04-.593c-5.203 0-9.35 4.425-9.35 9.757 0 5.325 4.247 9.757 9.35 9.757 5.203 0 9.35-4.425 9.35-9.757L82 46.5l1 1.5c0 6.556-5.096 12-11.5 12C65.21 60 60 54.563 60 48" clip-rule="evenodd"/><path fill="#FFFFFF" d="M28 56a7.95 7.95 0 0 1-8-8c0-4.457 3.543-8 8-8 4 0 7.314 2.857 7.886 6.629H44C43.314 38.4 36.457 32 28 32c-8.8 0-16 7.2-16 16s7.2 16 16 16c8.457 0 15.314-6.4 16-14.629h-8.114C35.314 53.143 32 56 28 56"/><path fill="#0A0B0D" fill-rule="evenodd" d="m82 44 5 5.375L85.428 51 82 47.5 78.5 51 77 49.375z" clip-rule="evenodd"/></svg>