<svg xmlns="http://www.w3.org/2000/svg" fill="none" viewBox="0 0 96 96"><path fill="#464B55" fill-rule="evenodd" d="M27.162 11.35A43.999 43.999 0 0 1 43.999 8v44h44a44 44 0 1 1-60.837-40.65Z" clip-rule="evenodd"/><path fill="#464B55" d="M94.999 52c0-6.697-1.32-14.329-3.882-20.516A50.997 50.997 0 0 0 44 0v30.947a20.054 20.054 0 0 1 18.526 12.379c1.008 2.433 1.526 6.04 1.526 8.673H95Z"/><path fill="#588AF5" d="M88 52A44 44 0 0 0 44 8v26.7A17.301 17.301 0 0 1 61.3 52H88Z"/><path fill="#FFFFFF" d="M74 52c0 16.569-13.432 30-30 30-16.57 0-30-13.43-30-30 0-16.568 13.431-30 30-30 16.568 0 30 13.432 30 30Z"/><path fill="#0A0B0D" fill-rule="evenodd" d="M43 43h2.075v9.285L51 59.27 49.531 61 43 53.3V43Z" clip-rule="evenodd"/><path fill="#0A0B0D" fill-rule="evenodd" d="M42.923 33.412c-10.196 0-18.462 8.099-18.462 18.089C24.461 61.49 34 69.588 44 69.588V72c-12 0-22-9.178-22-20.5C22 40.18 31.367 31 42.923 31h3.076v2.412h-3.076Z" clip-rule="evenodd"/><path fill="#0A0B0D" fill-rule="evenodd" d="M48 32.169 42.612 38l-1.589-1.83 3.746-4.057L41 27.776l1.638-1.775 5.361 6.168Z" clip-rule="evenodd"/></svg>