<svg xmlns="http://www.w3.org/2000/svg" fill="none" viewBox="0 0 96 96"><path fill="#45DAF6" d="M70.4 0H25.6v33.07c5.28-6.524 13.352-10.696 22.4-10.696 9.047 0 17.12 4.172 22.4 10.697V0Z"/><path fill="#464B55" fill-rule="evenodd" d="M48 16c19.44 0 35.2 15.76 35.2 35.2H96V96H0V51.2h12.8C12.8 31.76 28.56 16 48 16ZM19.207 51.2c0 15.902 12.89 28.793 28.793 28.793 15.902 0 28.793-12.891 28.793-28.793S63.902 22.406 48 22.406 19.207 35.299 19.207 51.2Z" clip-rule="evenodd"/><path fill="#588AF5" d="M25.6 24.046v9.06c5.278-6.526 13.351-10.7 22.4-10.7 9.047 0 17.12 4.174 22.4 10.7v-9.06A35.056 35.056 0 0 0 48 16a35.056 35.056 0 0 0-22.391 8.038l-.01.008Zm44.8 45.231C65.12 75.802 57.046 79.974 48 79.974c-9.048 0-17.12-4.172-22.4-10.697V96h44.8V69.277Z"/><path fill="#ECD069" d="M72 51.174a24 24 0 1 0-48 0h48Z"/><path fill="#588AF5" fill-rule="evenodd" d="M72 51.174c0 13.255-10.745 24-24 24s-24-10.745-24-24h48Z" clip-rule="evenodd"/></svg>