<svg xmlns="http://www.w3.org/2000/svg" fill="none" viewBox="0 0 96 96"><path fill="#45D9F5" d="M70.4 0H25.6v33.07c5.28-6.524 13.352-10.696 22.4-10.696s17.12 4.172 22.4 10.697z"/><path fill="#464B55" fill-rule="evenodd" d="M48 16c19.44 0 35.2 15.76 35.2 35.2H96V96H0V51.2h12.8C12.8 31.76 28.56 16 48 16M19.207 51.2c0 15.902 12.89 28.793 28.793 28.793S76.793 67.102 76.793 51.2 63.902 22.407 48 22.407 19.207 35.297 19.207 51.2" clip-rule="evenodd"/><path fill="#578BFA" d="M25.6 24.046v9.06c5.278-6.526 13.351-10.7 22.4-10.7 9.047 0 17.12 4.174 22.4 10.7v-9.06A35.06 35.06 0 0 0 48 16a35.06 35.06 0 0 0-22.4 8.046m44.8 45.232C65.12 75.802 57.046 79.974 48 79.974c-9.048 0-17.12-4.172-22.4-10.696V96h44.8z"/><path fill="#ECD069" d="M72 51.174a24 24 0 1 0-48 0z"/><path fill="#578BFA" fill-rule="evenodd" d="M72 51.174c0 13.254-10.746 24-24 24-13.255 0-24-10.746-24-24z" clip-rule="evenodd"/></svg>