<svg xmlns="http://www.w3.org/2000/svg" fill="none" viewBox="0 0 97 96"><path fill="#464B55" fill-rule="evenodd" d="m10.618 30.827 57.6-28.8L85.39 36.373l-57.6 28.8c-9.484 4.742-21.017.897-25.759-8.587-4.742-9.484-.898-21.017 8.587-25.76Z" clip-rule="evenodd"/><path fill="#45DAF6" fill-rule="evenodd" d="m10.618 65.173 57.6 28.8L85.39 59.627l-57.6-28.8c-9.484-4.742-21.017-.898-25.759 8.586-4.742 9.485-.898 21.018 8.587 25.76Z" clip-rule="evenodd"/><path fill="#588AF5" fill-rule="evenodd" d="m10.791 30.74-.173.087a19.182 19.182 0 0 0-5 3.598 19.18 19.18 0 0 0-4.012 5.897A19.275 19.275 0 0 0 0 48a19.275 19.275 0 0 0 2.031 8.586 19.2 19.2 0 0 0 3.598 4.999 19.182 19.182 0 0 0 4.989 3.588l.173.086c5.185 2.523 11.444 2.692 17-.086L62.137 48 27.79 30.827c-5.556-2.778-11.815-2.61-17-.087Z" clip-rule="evenodd"/><path fill="#588AF5" d="M19.208 35.2a12.8 12.8 0 0 0 0 25.6 12.764 12.764 0 0 0 9.475-4.195c.29-.291.535-.617.782-.946a12.083 12.083 0 0 0 1.272-2.109A12.763 12.763 0 0 0 32.008 48a12.8 12.8 0 0 0-12.8-12.8Z"/><path fill="#ECD069" d="M76.803 0a19.2 19.2 0 1 0 0 38.4 19.147 19.147 0 0 0 14.212-6.292c.436-.437.803-.925 1.174-1.419a18.122 18.122 0 0 0 1.907-3.163 19.144 19.144 0 0 0 1.907-8.326A19.2 19.2 0 0 0 76.803 0Z"/><path fill="#588AF5" fill-rule="evenodd" d="M76.803 0v38.4a19.2 19.2 0 0 1 0-38.4Z" clip-rule="evenodd"/><path fill="#ECD069" d="M76.803 57.6a19.2 19.2 0 1 0 0 38.4 19.147 19.147 0 0 0 14.212-6.293c.436-.436.803-.924 1.174-1.418a18.122 18.122 0 0 0 1.907-3.163 19.144 19.144 0 0 0 1.907-8.326 19.2 19.2 0 0 0-19.2-19.2Z"/><path fill="#588AF5" fill-rule="evenodd" d="M76.803 57.6V96a19.2 19.2 0 0 1 0-38.4Z" clip-rule="evenodd"/><path fill="#0A0B0D" fill-rule="evenodd" d="M76.804 8.2c-6.075 0-11 4.925-11 11s4.925 11 11 11 11-4.925 11-11-4.925-11-11-11Zm-13 11c0-7.18 5.82-13 13-13s13 5.82 13 13-5.82 13-13 13-13-5.82-13-13Zm13 46.6c-6.075 0-11 4.924-11 11 0 6.075 4.925 11 11 11s11-4.925 11-11c0-6.076-4.925-11-11-11Zm-13 11c0-7.18 5.82-13 13-13s13 5.82 13 13-5.82 13-13 13-13-5.82-13-13ZM19.004 37c-6.075 0-11 4.925-11 11s4.925 11 11 11 11-4.925 11-11-4.925-11-11-11Zm-13 11c0-7.18 5.82-13 13-13s13 5.82 13 13-5.82 13-13 13-13-5.82-13-13Z" clip-rule="evenodd"/></svg>