<svg xmlns="http://www.w3.org/2000/svg" fill="none" viewBox="0 0 97 97"><path fill="#464B55" d="M0 51.73v38.8h36.38v-38.8H0Z"/><path fill="#0A0B0D" d="m25.87 71.13 10.05 19.4h25.15l10.06-19.4-10.06-19.4H35.92l-10.05 19.4Z"/><path fill="#588AF5" fill-rule="evenodd" d="m48.5 71.13 12.57 19.4H35.92l-10.05-19.4 10.05-19.4h25.15L48.5 71.13Z" clip-rule="evenodd"/><path fill="#ECD069" fill-rule="evenodd" d="m48.5 71.13-12.57-19.4h25.15l10.05 19.4-10.05 19.4H35.93l12.57-19.4Z" clip-rule="evenodd"/><path fill="#0A0B0D" d="m36.37 71.13 5.4 10.51h13.47l5.38-10.5-5.38-10.51H41.76l-5.39 10.5Z"/><path fill="#FFFFFF" d="m48.5 67.5 3.23 1.81v3.64l-3.23 1.82-3.23-1.82v-3.64l3.23-1.81Z"/><path fill="#464B55" d="M97 45.27V6.47H60.62v38.8H97Z"/><path fill="#0A0B0D" d="M71.13 25.87 61.08 6.47H35.93l-10.06 19.4 10.06 19.4h25.15l10.05-19.4Z"/><path fill="#588AF5" fill-rule="evenodd" d="M48.5 25.87 35.93 6.47h25.15l10.05 19.4-10.05 19.4H35.93l12.57-19.4Z" clip-rule="evenodd"/><path fill="#464B55" fill-rule="evenodd" d="m48.5 25.87 12.57 19.4H35.92l-10.05-19.4 10.05-19.4h25.15L48.5 25.87Z" clip-rule="evenodd"/><path fill="#0A0B0D" d="m36.37 25.87 5.4 10.5h13.47l5.38-10.5-5.38-10.51H41.76l-5.39 10.5Z"/><path fill="#FFFFFF" fill-rule="evenodd" d="M49.5 0v6.47h-2V0h2.02Zm0 15.35v36.38h-2V15.35h2.02Zm0 45.27V97h-2V60.62h2.02Z" clip-rule="evenodd"/><path fill="#FFFFFF" d="m48.5 22.23 3.23 1.82v3.63L48.5 29.5l-3.23-1.82v-3.63l3.23-1.82Z"/></svg>