<svg xmlns="http://www.w3.org/2000/svg" fill="none" viewBox="0 0 96 96"><path fill="#464B55" fill-rule="evenodd" d="M12.766 70.4h48.16V25.6h-48.16V32H25.6v6.4H32v6.4H12.8v-6.4h-.035v32Zm.035-12.8h6.4v-6.4h-6.4v6.4ZM32 64h-6.4v-6.4H32V64Z" clip-rule="evenodd"/><path fill="#588AF5" d="M60.798 70.4c12.372 0 22.4-10.029 22.4-22.4 0-12.371-10.028-22.4-22.4-22.4-12.37 0-22.4 10.029-22.4 22.4 0 12.371 10.03 22.4 22.4 22.4Z"/><path fill="#0A0B0D" d="M38.398 48c0 12.4 10 22.4 22.4 22.4h.16V25.6h-.16c-12.4 0-22.4 10-22.4 22.4Z"/><path fill="#FFFFFF" d="m72.162 48.16-8.56 2.56-2.64 8.64-2.64-8.64-8.56-2.56 8.56-2.64 2.64-8.56 2.64 8.56 8.56 2.64Z"/><path fill="#FFFFFF" fill-rule="evenodd" d="M82.398 24.8h-8v-1.6h8v1.6Z" clip-rule="evenodd"/><path fill="#FFFFFF" fill-rule="evenodd" d="M77.602 28v-8h1.6v8h-1.6Z" clip-rule="evenodd"/></svg>