<svg xmlns="http://www.w3.org/2000/svg" fill="none" viewBox="0 0 96 97"><path fill="#464B55" d="M40 36.03H0V96h40V36.03Z"/><path fill="#588AF5" d="M40 36c0 11.08-8.92 20-20 20S0 47.08 0 36h40Z"/><path fill="#44C28D" d="M0 36c0-11.08 8.92-20 20-20s20 8.92 20 20H0Z"/><path fill="#464B55" d="M96 20.03H56V96h40V20.03Z"/><path fill="#588AF5" d="M96 20c0 11.08-8.92 20-20 20s-20-8.92-20-20h40Z"/><path fill="#45DAF6" d="M56 20C56 8.92 64.92 0 76 0s20 8.92 20 20H56Z"/><path fill="#FFFFFF" d="M28.95 73.33 20 64.38l-8.95 8.95 1.48 1.49 6.42-6.42v27.85h2.1V68.4l6.42 6.42 1.48-1.49Zm56-19.2L76 45.18l-8.95 8.95 1.48 1.49 6.42-6.42v47.05h2.1V49.2l6.42 6.42 1.48-1.49Z"/></svg>