<svg xmlns="http://www.w3.org/2000/svg" fill="none" viewBox="0 0 96 96"><path fill="#588AF5" d="M83.2 60.8c0 12.371-10.028 22.4-22.4 22.4-12.37 0-22.4-10.029-22.4-22.4 0-12.371 10.03-22.4 22.4-22.4 12.372 0 22.4 10.029 22.4 22.4Z"/><path fill="#FFFFFF" d="M57.599 35.2c0 12.371-10.029 22.4-22.4 22.4-12.371 0-22.4-10.029-22.4-22.4 0-12.371 10.029-22.4 22.4-22.4 12.371 0 22.4 10.029 22.4 22.4Z"/><path fill="#ECD069" d="M35.963 57.6a21.11 21.11 0 0 1-3.965-.38C34.016 43.85 44.26 33.287 57.23 31.2c.238 1.328.368 2.689.368 4.088 0 11.912-10 21.933-21.635 22.312Zm-1.529-44.8c1.352 0 2.678.134 3.965.38C36.38 26.55 26.137 37.113 13.167 39.2a23.156 23.156 0 0 1-.368-4.089c0-12.321 9.687-22.311 21.635-22.311Z"/><path fill="#ECD069" d="M34.434 57.6a21.11 21.11 0 0 0 3.965-.38C36.38 43.85 26.137 33.287 13.167 31.2a23.156 23.156 0 0 0-.368 4.088c0 12.322 9.687 22.312 21.635 22.312Zm1.529-44.8a21.11 21.11 0 0 0-3.965.38C34.016 26.55 44.26 37.113 57.23 39.2c.238-1.328.368-2.689.368-4.089 0-12.321-9.687-22.311-21.635-22.311Z"/><path fill="#0A0B0D" fill-rule="evenodd" d="M60.8 79.2c9.72 0 17.6-7.88 17.6-17.6 0-9.72-7.88-17.6-17.6-17.6-9.72 0-17.6 7.88-17.6 17.6 0 9.72 7.88 17.6 17.6 17.6Zm0 1.6c10.603 0 19.2-8.596 19.2-19.2s-8.597-19.2-19.2-19.2c-10.604 0-19.2 8.596-19.2 19.2s8.596 19.2 19.2 19.2Z" clip-rule="evenodd" opacity=".8"/><path fill="#0A0B0D" fill-rule="evenodd" d="M35.2 52.8c9.72 0 17.6-7.88 17.6-17.6 0-9.72-7.88-17.6-17.6-17.6-9.72 0-17.6 7.88-17.6 17.6 0 9.72 7.88 17.6 17.6 17.6Zm0 1.6c10.604 0 19.2-8.596 19.2-19.2S45.804 16 35.2 16 16 24.596 16 35.2s8.596 19.2 19.2 19.2Z" clip-rule="evenodd" opacity=".8"/><path fill="#0A0B0D" fill-rule="evenodd" d="M57.335 38.667c-1.491 9.595-9.072 17.176-18.667 18.666 1.49-9.595 9.072-17.176 18.667-18.666Z" clip-rule="evenodd"/><path fill="#FFFFFF" d="M53.6 60.8a7.2 7.2 0 1 1 14.4 0 7.2 7.2 0 0 1-14.4 0Z"/><path fill="#FFFFFF" d="m62.73 24.8 1.835-1.834-1.131-1.132-3.766 3.766 3.766 3.766 1.131-1.132-1.834-1.834H69.6v8.8h1.6V24.8h-8.47ZM33.27 69.6H26.4v-8.8h-1.6v10.4h8.47l-1.835 1.834 1.132 1.132 3.765-3.766-3.765-3.766-1.132 1.132L33.27 69.6Z"/></svg>