<svg xmlns="http://www.w3.org/2000/svg" fill="none" viewBox="0 0 96 96"><g clip-path="url(#a)"><path fill="#44C28D" fill-rule="evenodd" d="M38 42.5A25.96 25.96 0 0 0 48 22c0-8.33-3.91-15.74-10-20.5a22 22 0 1 1 0 41Z" clip-rule="evenodd"/><path fill="#ECD069" d="M44 22a22 22 0 1 1-44 0 22 22 0 0 1 44 0Z"/><path fill="#45DAF6" d="M96 22a22 22 0 1 1-44 0 22 22 0 0 1 44 0Z"/><path fill="#588AF5" fill-rule="evenodd" d="M60 38.97c4.89-4.03 8-10.14 8-16.97 0-6.83-3.11-12.94-8-16.97A21.96 21.96 0 0 0 52 22c0 6.83 3.11 12.94 8 16.97Z" clip-rule="evenodd"/><path stroke="#0A0B0D" stroke-width="2" d="M22 10v24m12-12H10m20.48-8.49L13.51 30.5m16.97-.01L13.51 13.5"/><path fill="#44C28D" fill-rule="evenodd" d="M58 53.5A25.96 25.96 0 0 0 48 74c0 8.33 3.91 15.74 10 20.5a22 22 0 1 1 0-41Z" clip-rule="evenodd"/><path fill="#ECD069" d="M52 74a22 22 0 1 1 44 0 22 22 0 0 1-44 0Z"/><path fill="#45DAF6" d="M0 74a22 22 0 1 1 44 0 22 22 0 0 1-44 0Z"/><path fill="#588AF5" fill-rule="evenodd" d="M36 57.03A21.96 21.96 0 0 0 28 74c0 6.83 3.11 12.94 8 16.97 4.89-4.03 8-10.14 8-16.97 0-6.83-3.11-12.94-8-16.97Z" clip-rule="evenodd"/><path fill="#0A0B0D" fill-rule="evenodd" d="M75 62v24h-2V62h2Z" clip-rule="evenodd"/><path fill="#0A0B0D" fill-rule="evenodd" d="M86 75H62v-2h24v2Z" clip-rule="evenodd"/><path fill="#0A0B0D" fill-rule="evenodd" d="M83.2 66.22 66.21 83.2l-1.41-1.41L81.78 64.8l1.41 1.41Z" clip-rule="evenodd"/><path fill="#0A0B0D" fill-rule="evenodd" d="M81.78 83.2 64.8 66.21l1.41-1.41L83.2 81.78l-1.41 1.41Z" clip-rule="evenodd"/></g><defs><clipPath id="a"><path fill="#FFFFFF" d="M0 0h96v96H0z"/></clipPath></defs></svg>