<svg xmlns="http://www.w3.org/2000/svg" fill="none" viewBox="0 0 96 96"><path fill="#464B55" d="M0 52c0-11.046 8.954-20 20-20s20 8.954 20 20v44H0z"/><path fill="#578BFA" d="M56 52c0-11.046 8.954-20 20-20s20 8.954 20 20v44H56z"/><path fill="#464B55" d="M21.818 26.182c7.23 0 13.09-5.861 13.09-13.091S29.048 0 21.818 0 8.727 5.861 8.727 13.091s5.86 13.09 13.09 13.09"/><path fill="#578BFA" d="M74.18 26.182c7.23 0 13.092-5.861 13.092-13.091S81.41 0 74.18 0 61.09 5.861 61.09 13.091s5.86 13.09 13.09 13.09"/><path fill="#464B55" d="M56 56H40v24h16z"/><path fill="#0A0B0D" d="M76 56H56v24h20z"/><path fill="#578BFA" d="M40 56H0v24h40z"/><path fill="#FFFFFF" d="M76 80c6.627 0 12-5.373 12-12s-5.373-12-12-12-12 5.373-12 12 5.373 12 12 12"/><path fill="#0A0B0D" d="M76.174 61.843c3.424 0 6.245 2.82 6.245 6.245s-2.82 6.245-6.245 6.245-6.245-2.82-6.245-6.245 2.82-6.245 6.245-6.245m0-2.015c-4.533 0-8.26 3.727-8.26 8.26s3.727 8.26 8.26 8.26 8.26-3.727 8.26-8.26-3.727-8.26-8.26-8.26"/></svg>