<svg xmlns="http://www.w3.org/2000/svg" fill="none" viewBox="0 0 96 96"><path fill="#464B55" d="M33.6 12.8h41.6c.88 0 1.6.72 1.6 1.6v67.2c0 .88-.72 1.6-1.6 1.6H33.6a1.6 1.6 0 0 1-1.6-1.6V14.4c0-.88.72-1.6 1.6-1.6Z"/><path fill="#0A0B0D" d="M51.2 76.8h6.4c.88 0 1.6.72 1.6 1.6 0 .88-.72 1.6-1.6 1.6h-6.4a1.6 1.6 0 0 1-1.6-1.6c0-.88.72-1.6 1.6-1.6Zm3.2-57.6a1.6 1.6 0 1 0 0-3.2 1.6 1.6 0 0 0 0 3.2Z"/><path fill="#588AF5" d="M76.8 22.4H32v51.2h44.8V22.4Z"/><path fill="#FFFFFF" fill-rule="evenodd" d="M65.6 47.2a11.2 11.2 0 1 1-22.4 0 11.2 11.2 0 0 1 22.4 0Zm-9.14-3.66h-4.12c-.88 0-1.6.72-1.6 1.6v4.11c0 .89.72 1.6 1.6 1.6h4.12c.88 0 1.6-.71 1.6-1.6v-4.1c0-.9-.72-1.6-1.6-1.6Z" clip-rule="evenodd"/><path fill="#45DAF6" d="M19.2 25.39a6.4 6.4 0 0 1 6.4-6.4 6.4 6.4 0 0 1-6.4-6.4 6.4 6.4 0 0 1-6.4 6.4 6.4 6.4 0 0 1 6.4 6.4Z"/><path fill="#ECD069" d="M32 41.6c0-5.3 4.3-9.6 9.6-9.6a9.6 9.6 0 0 1-9.6-9.6c0 5.3-4.3 9.6-9.6 9.6 5.3 0 9.6 4.3 9.6 9.6Z"/><path fill="#0A0B0D" fill-rule="evenodd" d="M32 41.46V22.54A9.6 9.6 0 0 0 41.6 32a9.6 9.6 0 0 0-9.6 9.46Z" clip-rule="evenodd"/></svg>