<svg xmlns="http://www.w3.org/2000/svg" fill="none" viewBox="0 0 96 96"><path fill="#45DAF6" d="M96 48C96 21.49 74.51 0 48 0S0 21.49 0 48s21.49 48 48 48 48-21.49 48-48Z"/><path fill="#FFFFFF" d="M48 24c26.513 0 48 24 48 24S74.513 72 48 72 0 48 0 48"/><path fill="#464B55" d="M47.978 28.8C37.387 28.8 28.8 37.396 28.8 48s8.587 19.2 19.178 19.2c3.967 0 7.672-1.222 10.723-3.273a18.576 18.576 0 0 0 1.481-1.09 16.617 16.617 0 0 0 2.005-1.92c1.22-1.353 2.267-2.924 3.095-4.582A24.473 24.473 0 0 0 66.59 52.8c.174-.61.305-1.222.392-1.876.13-.96.218-1.92.218-2.924-.044-10.604-8.63-19.2-19.222-19.2Z"/><path fill="#44C28D" d="M48 0C21.49 0 0 21.49 0 48h48V0Z"/><path fill="#588AF5" d="M48 28.8h-.022C37.387 28.8 28.8 37.396 28.8 48H48V28.8Z"/><path fill="#588AF5" d="M48 35.2c-7.086 0-12.8 5.714-12.8 12.8H48V35.2Z"/><path fill="#0A0B0D" d="m56 48-12.8-7.2v14.4L56 48Z"/></svg>