<svg xmlns="http://www.w3.org/2000/svg" fill="none" viewBox="0 0 96 96"><path fill="#464B55" d="M52 26H0v70h52V26Z"/><path fill="#464B55" d="M43.636 96h52.363V69.818H43.636V96Z"/><path fill="#ECD069" d="M26 52c14.36 0 26-11.64 26-26S40.36 0 26 0 0 11.64 0 26s11.64 26 26 26Z"/><path fill="#0A0B0D" d="M25.636 8.182c9.6 0 17.455 7.854 17.455 17.454 0 9.6-7.855 17.455-17.455 17.455-9.6 0-17.454-7.855-17.454-17.455 0-9.6 7.854-17.454 17.454-17.454Zm0-2.182C14.836 6 6 14.836 6 25.636c0 10.8 8.836 19.637 19.636 19.637 10.8 0 19.637-8.837 19.637-19.637S36.436 6 25.636 6Z"/><path fill="#44C28D" d="M70 96c14.359 0 26-11.641 26-26 0-14.36-11.641-26-26-26-14.36 0-26 11.64-26 26 0 14.359 11.64 26 26 26Z"/><path fill="#588AF5" d="M52 51.238C47.07 55.97 44 62.626 44 70c0 7.373 3.07 14.03 8 18.761V51.238Z"/><path fill="#0A0B0D" d="M69.909 61.181c4.8 0 8.727 3.928 8.727 8.728s-3.927 8.727-8.727 8.727c-4.8 0-8.728-3.927-8.728-8.727 0-4.8 3.928-8.728 8.728-8.728Zm0-2.181c-6 0-10.91 4.909-10.91 10.909 0 6 4.91 10.909 10.91 10.909s10.909-4.91 10.909-10.91S75.908 59 69.908 59Z"/><path fill="#0A0B0D" fill-rule="evenodd" d="M24.637 34.455V17h2.181v17.455h-2.181Z" clip-rule="evenodd"/><path fill="#0A0B0D" fill-rule="evenodd" d="M17 24.636h17.455v2.182H17v-2.182Z" clip-rule="evenodd"/><path fill="#0A0B0D" fill-rule="evenodd" d="m18.738 31.174 12.437-12.436 1.542 1.543-12.436 12.436-1.543-1.543Z" clip-rule="evenodd"/><path fill="#0A0B0D" fill-rule="evenodd" d="m20.281 18.738 12.436 12.436-1.542 1.543L18.738 20.28l1.543-1.543ZM75 21v3h2v-3h3v-2h-3v-3h-2v3h-3v2h3ZM11 77v3h2v-3h3v-2h-3v-3h-2v3H8v2h3Z" clip-rule="evenodd"/><path fill="#588AF5" d="M44 70h8v26h-8z"/></svg>