<svg xmlns="http://www.w3.org/2000/svg" fill="none" viewBox="0 0 96 96"><path fill="#464B55" d="M51.197 32h-38.4v51.2h38.4V32Z"/><path fill="#464B55" d="M44.795 83.2h38.4V64h-38.4v19.2Z"/><path fill="#588AF5" d="M51.197 64h-6.4v19.2h6.4V64Z"/><path fill="#ECD069" d="M31.997 51.2c10.604 0 19.2-8.596 19.2-19.2s-8.596-19.2-19.2-19.2-19.2 8.596-19.2 19.2 8.596 19.2 19.2 19.2Z"/><path fill="#0A0B0D" d="M31.998 19.2c7.04 0 12.8 5.76 12.8 12.8 0 7.04-5.76 12.8-12.8 12.8-7.04 0-12.8-5.76-12.8-12.8 0-7.04 5.76-12.8 12.8-12.8Zm0-1.6c-7.92 0-14.4 6.48-14.4 14.4s6.48 14.4 14.4 14.4 14.4-6.48 14.4-14.4-6.48-14.4-14.4-14.4Z"/><path fill="#44C28D" d="M63.997 83.2c10.604 0 19.2-8.596 19.2-19.2s-8.596-19.2-19.2-19.2-19.2 8.596-19.2 19.2 8.596 19.2 19.2 19.2Z"/><path fill="#588AF5" d="M51.197 49.68c-3.92 3.52-6.4 8.64-6.4 14.32s2.48 10.8 6.4 14.32V49.68Z"/><path fill="#0A0B0D" d="M63.996 57.6c3.52 0 6.4 2.88 6.4 6.4 0 3.52-2.88 6.4-6.4 6.4-3.52 0-6.4-2.88-6.4-6.4 0-3.52 2.88-6.4 6.4-6.4Zm0-1.6c-4.4 0-8 3.6-8 8s3.6 8 8 8 8-3.6 8-8-3.6-8-8-8Z"/><path fill="#0A0B0D" fill-rule="evenodd" d="M31.2 38.4V25.6h1.6v12.8h-1.6Z" clip-rule="evenodd"/><path fill="#0A0B0D" fill-rule="evenodd" d="M25.598 31.2h12.8v1.6h-12.8v-1.6Z" clip-rule="evenodd"/><path fill="#0A0B0D" fill-rule="evenodd" d="m26.871 35.994 9.12-9.12 1.132 1.132-9.12 9.12-1.132-1.132Z" clip-rule="evenodd"/><path fill="#0A0B0D" fill-rule="evenodd" d="m28.003 26.874 9.12 9.12-1.132 1.132-9.12-9.12 1.132-1.132Z" clip-rule="evenodd"/><path fill="#FFFFFF" fill-rule="evenodd" d="M70.4 29.6H64V28h6.4v1.6Z" clip-rule="evenodd"/><path fill="#FFFFFF" fill-rule="evenodd" d="M66.398 32v-6.4h1.6V32h-1.6ZM25.6 68h-6.4v-1.6h6.4V68Z" clip-rule="evenodd"/><path fill="#FFFFFF" fill-rule="evenodd" d="M21.602 70.4V64h1.6v6.4h-1.6Z" clip-rule="evenodd"/></svg>