<svg xmlns="http://www.w3.org/2000/svg" fill="none" viewBox="0 0 32 32"><path fill="#FFFFFF" d="M8.608 2.003a6.148 6.148 0 1 0 0 12.297 6.148 6.148 0 0 0 0-12.297M24.313 17.7a6.148 6.148 0 1 0 0 12.297 6.148 6.148 0 0 0 0-12.296"/><path fill="#44C28D" d="M27.996 2.024a2.82 2.82 0 0 0-2.354.798L3.3 25.29c-1.607 1.628-.653 4.375 1.618 4.676a2.82 2.82 0 0 0 2.353-.799L29.613 6.7c1.607-1.628.654-4.376-1.617-4.676"/><path fill="#44C28D" d="M4.927 29.976a2.82 2.82 0 0 0 2.354-.798L29.624 6.71c1.607-1.628.653-4.375-1.618-4.676a2.82 2.82 0 0 0-2.353.799L3.31 25.3c-1.607 1.628-.654 4.375 1.617 4.676"/><path fill="#578BFA" d="M4.927 29.976a2.82 2.82 0 0 0 2.354-.798L29.624 6.71c1.607-1.628.653-4.375-1.618-4.676a2.82 2.82 0 0 0-2.353.799L3.31 25.3c-1.607 1.628-.654 4.375 1.617 4.676m-.663-17.481a6.15 6.15 0 0 1 0-8.688 6.15 6.15 0 0 1 8.689 0m15.714 15.688a6.15 6.15 0 0 1 0 8.688 6.15 6.15 0 0 1-8.688 0"/></svg>