<svg width="64" height="64" viewBox="0 0 64 64" fill="none" xmlns="http://www.w3.org/2000/svg">
<path d="M64 4H0V60H64V4Z" fill="#BFE9FF"/>
<path d="M50 64H14C12.9 64 12 63.1 12 62V2C12 0.9 12.9 0 14 0H50C51.1 0 52 0.9 52 2V62C52 63.1 51.1 64 50 64Z" fill="#56B4FC"/>
<path d="M52 4H12V60H52V4Z" fill="#1652F0"/>
<path d="M38.3539 28.454L36.9397 27.0398L28.4545 35.525L29.8687 36.9392L38.3539 28.454Z" fill="white"/>
<path d="M29.869 36.9899L31.2832 35.5757L27.0406 31.3331L25.6264 32.7473L29.869 36.9899Z" fill="white"/>
<path d="M42 6H22C20.9 6 20 5.1 20 4V2H44V4C44 5.1 43.1 6 42 6Z" fill="#56B4FC"/>
<path d="M28 57C28 57.6 28.4 58 29 58H35C35.6 58 36 57.6 36 57C36 56.4 35.6 56 35 56H29C28.4 56 28 56.4 28 57Z" fill="white"/>
</svg>
