<svg xmlns="http://www.w3.org/2000/svg" fill="none" viewBox="0 0 96 96"><g clip-path="url(#a)"><path fill="var(--illustration-gray)" d="M0 8h96.001v80H0V8Z"/><path fill="var(--illustration-primary)" d="M8 0h80.001v96H8V0Z"/><path fill="var(--illustration-black)" d="M8 8h80.001v80H8V8Z"/><path fill="var(--illustration-white)" fill-rule="evenodd" d="M47 88V56h2v32h-2Zm-24-8V56h2v24h-2Zm48 0V40h2v40h-2Z" clip-rule="evenodd"/><path fill="var(--illustration-negative)" d="M40 80h16V64H40v16Z"/><path fill="var(--illustration-positive)" d="M16 72h16v-8H16v8Zm48 0h16V48H64v24Z"/><path stroke="var(--illustration-white)" stroke-width="2" d="m79.35 18.489-12.487-3.346m11.93 2.588-3.346 12.487"/><path fill="var(--illustration-white)" fill-rule="evenodd" d="m16.778 50.074 61.117-32.28.934 1.768-61.117 32.28-.934-1.768Z" clip-rule="evenodd"/></g><defs><clipPath id="a"><path fill="var(--illustration-white)" d="M0 0h96v96H0z"/></clipPath></defs></svg>