<svg xmlns="http://www.w3.org/2000/svg" fill="none" viewBox="0 0 96 96"><path fill="var(--illustration-gray)" d="M83.2 38.4H12.8V64h70.4V38.4Z"/><path fill="var(--illustration-negative)" d="M44.8 32H25.6v44.8h19.2V32Z"/><path fill="var(--illustration-negative)" d="M38.4 25.6H32v57.6h6.4V25.6Z"/><path fill="var(--illustration-positive)" d="M70.4 19.2H51.2V64h19.2V19.2Z"/><path fill="var(--illustration-positive)" d="M64 12.8h-6.4v57.6H64V12.8Z"/><path fill="var(--illustration-primary)" d="M44.8 38.4H25.6V64h19.2V38.4Zm25.6 0H51.2V64h19.2V38.4Z"/><path fill="var(--illustration-positive)" d="M64 64h-6.4v6.4H64V64Z"/><path fill="var(--illustration-black)" fill-rule="evenodd" d="M64.8 52.16H12.64v-1.6H64.8v1.6Z" clip-rule="evenodd"/><path fill="var(--illustration-black)" fill-rule="evenodd" d="m64.71 51.36-3.835-3.835 1.131-1.131 4.966 4.966-4.966 4.965-1.131-1.131 3.834-3.834Z" clip-rule="evenodd"/></svg>