<svg xmlns="http://www.w3.org/2000/svg" fill="none" viewBox="0 0 96 96"><path fill="#77FE7A" d="M21.382 82.045a2 2 0 0 1-2 2H2.166a2 2 0 0 1-2-2V59.3a2 2 0 0 1 .505-1.328l17.216-19.385c1.221-1.375 3.495-.511 3.495 1.328z"/><path fill="var(--illustration-gray)" d="M79.393 79.05h11.22V33.344h-11.22zm16.22 3a2 2 0 0 1-2 2h-17.22l-.204-.01a2 2 0 0 1-1.796-1.99V30.344a2 2 0 0 1 2-2h17.22a2 2 0 0 1 2 2z"/><path fill="#77FE7A" d="M46.129 82.045a2 2 0 0 1-2 2h-17.22a2 2 0 0 1-2-2V33.437a2 2 0 0 1 .32-1.085l17.22-26.656c1.082-1.675 3.68-.909 3.68 1.085z"/><path fill="var(--illustration-gray)" d="M54.652 79.046h11.216V29.894l-11.216-14.92zm16.216 3-.01.204a2 2 0 0 1-1.785 1.785l-.205.01H51.652l-.204-.01a2 2 0 0 1-1.785-1.785l-.01-.204V5.989c0-1.92 2.444-2.737 3.598-1.202L70.467 27.69a2 2 0 0 1 .401 1.201z"/><path fill="#0000FF" d="M94 89.781H2a2 2 0 0 0-2 2V94a2 2 0 0 0 2 2h92a2 2 0 0 0 2-2v-2.219a2 2 0 0 0-2-2M22.838 25.227l-4.875-4.859-9.09 9.06-4.756-4.737 9.091-9.062-4.875-4.858 17.42-2.906z"/></svg>