<svg xmlns="http://www.w3.org/2000/svg" fill="none" viewBox="0 0 96 96"><g clip-path="url(#a)"><path fill="#0000FF" d="M24.216 0v24.216H0V0zM5 19.216h14.216V5H5zM58.105 35.89H37.889a2 2 0 0 0-2 2v20.216a2 2 0 0 0 2 2h20.216a2 2 0 0 0 2-2V37.89a2 2 0 0 0-2-2M96 0v24.216H71.782V0zM76.782 19.216H91V5H76.783zM24.216 71.784V96H0V71.784zM5 91h14.216V76.784H5zm91-19.216V96H71.782V71.784zM76.782 91H91V76.784H76.783z"/><path fill="var(--illustration-gray)" stroke="var(--illustration-gray)" d="M85.316 32.884v27.722h-3.75V32.884zM34.3 9.911h27.723v3.75H34.3zm0 72.423h27.723v3.75H34.3z"/><path fill="var(--illustration-gray)" d="m68.404 84.206-7.709 5.285v-2.797H35.641v2.797l-7.71-5.28 7.71-5.286v3.02h25.054v-3.02zM17.117 34.224H14.21V59.28h2.908l-5.28 7.708L6.55 59.28h2.908V34.224H6.551l5.28-7.708zm71.608 0h-2.909V59.28h2.909l-5.28 7.708-5.287-7.708h2.908V34.224h-2.908l5.28-7.708zM68.404 11.783l-7.709 5.286v-2.908H35.641v2.908l-7.71-5.28 7.71-5.286V9.41h25.054V6.503z"/></g><defs><clipPath id="a"><path fill="var(--illustration-white)" d="M0 0h96v96H0z"/></clipPath></defs></svg>