<svg xmlns="http://www.w3.org/2000/svg" fill="none" viewBox="0 0 96 96"><path fill="var(--illustration-gray)" d="M91 47.997C91 24.245 71.747 5 48 5S5 24.25 5 47.997C5 71.745 24.25 91 48 91v5C21.487 96 0 74.506 0 47.997S21.493 0 48 0s48 21.483 48 47.997C96 74.512 74.513 96 48 96v-5c23.751 0 43-19.25 43-43.003"/><path stroke="var(--illustration-gray)" stroke-width="5" d="M48.477 26.016c12.425 0 22.496 10.06 22.496 22.457S60.902 70.93 48.477 70.93c-12.426 0-22.496-10.06-22.496-22.457s10.066-22.457 22.496-22.457Z"/><path fill="var(--illustration-gray)" d="m84.612 53.153-.503 2.957-3.551-.604.503-2.957zm-1.677 7.178-1.093 2.793-3.357-1.314 1.094-2.792zm-3.1 6.685-1.634 2.515-3.021-1.963 1.634-2.515zm-4.384 5.926-2.104 2.138-2.567-2.527 2.106-2.137zm-5.479 4.933-2.49 1.674-2.011-2.991 2.49-1.674zM63.606 81.6l-2.778 1.134-1.36-3.33 2.777-1.135zm-6.986 2.365-2.95.55-.66-3.54 2.95-.551zM54.28 12.54l-.427 3.576-2.978-.354.425-3.575zm7.128 1.905-1.14 3.416-2.846-.95 1.14-3.415zm6.591 3.305-1.806 3.116-2.595-1.504 1.805-3.116zm5.795 4.56-2.397 2.687-2.238-1.996 2.396-2.687zm4.763 5.623-2.886 2.152-1.793-2.404 2.886-2.153zm3.525 6.472-3.26 1.529-1.274-2.717 3.262-1.528zm2.148 7.054-3.507.834-.694-2.918 3.506-.834zm.678 7.335-3.601.115-.096-2.999 3.602-.114zm-73.529-.315c0-20.451 16.598-37.018 37.071-37.018v5c-17.719 0-32.071 14.336-32.071 32.018 0 17.681 14.357 32.022 32.076 32.022 1.039 0 2.075-.051 3.093-.148l.476 4.976a38 38 0 0 1-3.569.172c-20.473 0-37.076-16.572-37.076-37.023"/><path fill="#0000FF" d="M57.51 38.363H39.452v18.029H57.51z"/><path fill="#0000FF" d="M47.999 73.333a25.339 25.339 0 1 0 0-50.677 25.339 25.339 0 0 0 0 50.677"/><path fill="var(--illustration-white)" d="M54.931 52.024c0-3.696-2.249-4.941-6.599-5.538-3.214-.464-3.832-1.22-3.832-2.719s1.087-2.433 3.167-2.433c1.895 0 2.988.66 3.437 2.185a.81.81 0 0 0 .765.586h1.663a.74.74 0 0 0 .744-.86c-.528-2.413-2.153-3.864-4.703-4.318v-2.545a.79.79 0 0 0-.792-.791h-1.584a.79.79 0 0 0-.791.791v2.455c-3.168.443-5.168 2.534-5.168 5.215 0 3.469 2.111 4.815 6.524 5.411 3.004.491 3.86 1.14 3.86 2.846 0 1.705-1.453 2.85-3.5 2.85-2.761 0-3.696-1.209-4.007-2.776a.8.8 0 0 0-.776-.645h-1.806a.74.74 0 0 0-.733.86c.459 2.64 2.153 4.572 5.606 5.037v2.502a.79.79 0 0 0 .791.792h1.584a.79.79 0 0 0 .792-.792v-2.502c3.273-.517 5.358-2.777 5.358-5.611"/><path fill="var(--illustration-white)" d="M42.557 63.135a15.836 15.836 0 0 1 0-29.751 1.14 1.14 0 0 0 .68-.998v-1.478a.75.75 0 0 0-1.055-.755 19.004 19.004 0 0 0 0 36.213.75.75 0 0 0 1.056-.755v-1.478a1.14 1.14 0 0 0-.681-.998m11.239-32.982a.75.75 0 0 0-1.056.755v1.478a1.14 1.14 0 0 0 .681.997 15.837 15.837 0 0 1 0 29.752 1.06 1.06 0 0 0-.681.998v1.478a.75.75 0 0 0 1.056.755 19.004 19.004 0 0 0 0-36.213"/></svg>