<svg xmlns="http://www.w3.org/2000/svg" fill="none" viewBox="0 0 96 96"><path fill="#0000FF" d="M55.02 40.2H40.978a1 1 0 0 0-1 1v14.042a1 1 0 0 0 1 1H55.02a1 1 0 0 0 1-1V41.2a1 1 0 0 0-1-1"/><path fill="var(--illustration-gray)" fill-rule="evenodd" d="M91.4 2.832q.057 0 .116.004l.04.002.032.003.099.01.087.014.08.014a2.5 2.5 0 0 1 .351.098l.076.029.065.024.031.015.052.024.116.057.017.01c.346.188.636.452.855.766l.024.035.066.105.026.043c.214.372.334.799.334 1.246v66.366q-.002.086-.009.17a2.5 2.5 0 0 1-.761 1.986L73.224 92.916a2.5 2.5 0 0 1-1.168.628 2.5 2.5 0 0 1-1.125.067H4.63a2.5 2.5 0 0 1-2.5-2.499V24.361a2.5 2.5 0 0 1 .042-.419l.013-.07q.021-.104.052-.204l.023-.067a2.5 2.5 0 0 1 .29-.595l.026-.037a3 3 0 0 1 .115-.154l.022-.025q.063-.076.133-.146l.016-.018.04-.04 19.95-19.063.18-.157a2.5 2.5 0 0 1 1.546-.535h66.786zm-80.534 85.78h57.986V74.548h-43.27zm-3.735-3.348 15.016-14.349V26.894H7.13zm66.72-.033L84.846 74.55H73.852zM27.148 69.55h41.705V26.894H27.147zm46.705-43.872V69.55h15.015V11.21zm-62.986-3.783h11.28v-10.78zm16.28 0h43.342L85.148 7.83H27.147z" clip-rule="evenodd"/></svg>