<svg xmlns="http://www.w3.org/2000/svg" fill="none" viewBox="0 0 97 97"><path fill="var(--illustration-gray)" d="M45.267 0h-38.8v36.375h38.8z"/><path fill="var(--illustration-black)" d="m25.867 25.867-19.4 10.059v25.148l19.4 10.06 19.4-10.06V35.926z"/><path fill="var(--illustration-primary)" fill-rule="evenodd" d="m25.867 48.5-19.4 12.574V35.926l19.4-10.06 19.4 10.06v25.149z" clip-rule="evenodd"/><path fill="var(--illustration-accent-1)" fill-rule="evenodd" d="m25.867 48.5 19.4-12.574v25.148l-19.4 10.06-19.4-10.06V35.925z" clip-rule="evenodd"/><path fill="var(--illustration-invert-2)" d="m25.868 36.375-10.509 5.389v13.472l10.509 5.389 10.508-5.39v-13.47z"/><path fill="var(--illustration-invert)" d="m29.504 48.5-1.819 3.233h-3.637l-1.82-3.233 1.82-3.233h3.637z"/><path fill="var(--illustration-gray)" d="M51.734 97h38.8V60.625h-38.8z"/><path fill="var(--illustration-black)" d="m71.133 71.133 19.4-10.059V35.926l-19.4-10.06-19.4 10.06v25.148z"/><path fill="var(--illustration-primary)" fill-rule="evenodd" d="m71.133 48.5 19.4-12.574v25.148l-19.4 10.06-19.4-10.06V35.925z" clip-rule="evenodd"/><path fill="var(--illustration-gray)" fill-rule="evenodd" d="m71.134 48.5-19.4 12.574V35.926l19.4-10.06 19.4 10.06v25.149z" clip-rule="evenodd"/><path fill="var(--illustration-invert-2)" d="m71.134 36.375-10.508 5.389v13.472l10.508 5.389 10.508-5.39v-13.47z"/><path fill="var(--illustration-invert)" fill-rule="evenodd" d="M97 49.51h-6.467v-2.02H97zm-15.353 0H45.269v-2.02h36.378zm-45.269 0H0v-2.02h36.378z" clip-rule="evenodd"/><path fill="var(--illustration-invert)" d="m74.77 48.5-1.819 3.233h-3.637L67.495 48.5l1.819-3.233h3.638z"/></svg>