<svg xmlns="http://www.w3.org/2000/svg" fill="none" viewBox="0 0 96 96"><path fill="var(--illustration-primary)" d="M96 0H32v96h64V0Z"/><path fill="var(--illustration-gray)" d="M32 88a32 32 0 1 0 0-64 32 32 0 0 0 0 64Z"/><path fill="var(--illustration-black)" d="M32 88a32 32 0 0 0 0-64v64Z"/><path fill="var(--illustration-gray)" d="M84 8h-8v16h8V8Z"/><path fill="var(--illustration-black)" fill-rule="evenodd" d="M84 18h-8v-4h8v4ZM32.5 37.18a19.3 19.3 0 1 0 0 38.62 19.3 19.3 0 0 0 0-38.62ZM11 56.5a21.5 21.5 0 1 1 42.98 0 21.5 21.5 0 0 1-42.98 0Z" clip-rule="evenodd"/><path fill="var(--illustration-positive)" d="M16 16c-4.4 0-8 3.6-8 8 0-4.4-3.6-8-8-8 4.4 0 8-3.6 8-8 0 4.4 3.6 8 8 8Z"/><circle cx="32" cy="56" r="22" fill="var(--illustration-invert-2)"/><circle cx="32" cy="56" r="20" fill="var(--illustration-accent-1)"/><path fill="var(--illustration-black)" d="M33.6 54.6V47L26 57.65h5.32v7.6l6.85-10.64h-4.56Z"/></svg>