<svg xmlns="http://www.w3.org/2000/svg" fill="none" viewBox="0 0 96 96"><path fill="var(--illustration-primary)" d="M86.4 22.4v38.4h-64V22.4h64Z"/><path fill="var(--illustration-gray)" d="M35.2 60.8a12.8 12.8 0 1 1-25.6 0 12.8 12.8 0 0 1 25.6 0Z"/><path fill="var(--illustration-gray-2)" d="M22.4 28.8h64v6.4h-64v-6.4Z"/><path fill="var(--illustration-white)" d="M28.8 41.6h32v3.2h-32v-3.2Zm38.4 0H80v1.6H67.2v-1.6Zm0 4.8H80V48H67.2v-1.6Z"/><path fill="var(--illustration-gray)" d="M35.2 60.8a12.8 12.8 0 1 1-25.6 0 12.8 12.8 0 0 1 25.6 0Z"/><path fill="var(--illustration-black)" d="M35.2 60.8H22.4V48a12.8 12.8 0 0 1 12.8 12.8Z"/><path fill="var(--illustration-accent-1)" d="M32.8 60.8a10.4 10.4 0 1 1-20.8 0 10.4 10.4 0 0 1 20.8 0Z"/><path fill="var(--illustration-black)" fill-rule="evenodd" d="M21.6 63.2v-8h1.6v8h-1.6Zm0 3.2v-1.6h1.6v1.6h-1.6Z" clip-rule="evenodd"/></svg>