<svg xmlns="http://www.w3.org/2000/svg" fill="none" viewBox="0 0 96 96"><path fill="var(--illustration-primary)" d="M25.6 28a2.4 2.4 0 0 1 2.4-2.4h33.6A2.4 2.4 0 0 1 64 28v52.8a2.4 2.4 0 0 1-2.4 2.4H28a2.4 2.4 0 0 1-2.4-2.4V28Z"/><path fill="var(--illustration-positive)" d="M12.8 22.4a9.6 9.6 0 0 0 9.6 9.6 9.6 9.6 0 1 0-9.6-9.6Z"/><path fill="var(--illustration-accent-1)" d="M48 32.8a.8.8 0 0 1 .8-.8h4.8a.8.8 0 0 1 .8.8V40a.8.8 0 0 1-.8.8h-4.8a.8.8 0 0 1-.8-.8v-7.2Z"/><path fill="var(--illustration-black)" fill-rule="evenodd" d="M31.453 25.6H28a2.4 2.4 0 0 0-2.4 2.4v3.454a9.627 9.627 0 0 0 5.853-5.854Zm-4.83-6.955 1.152 1.11-7.51 7.798-4.042-4.198 1.152-1.11 2.89 3.002 6.358-6.602Z" clip-rule="evenodd"/><path fill="var(--illustration-gray)" d="M64 38.4h19.2v32H64v-32Z"/><path fill="var(--illustration-invert)" fill-rule="evenodd" d="M65.6 53.6h17.6v1.6H65.6v-1.6Z" clip-rule="evenodd"/><path fill="var(--illustration-invert)" fill-rule="evenodd" d="m65.93 54.4 5.835-5.834-1.131-1.132-6.966 6.966 6.966 6.966 1.131-1.132-5.834-5.834Z" clip-rule="evenodd"/><path fill="var(--illustration-white)" d="M32 73.6h19.2v3.2H32v-3.2Z"/></svg>