<svg xmlns="http://www.w3.org/2000/svg" fill="none" viewBox="0 0 96 96"><path fill="var(--illustration-gray)" d="M15 33.23h66V96H15z"/><path fill="var(--illustration-primary)" fill-rule="evenodd" d="M80.79 96h-65.6C17.01 79.38 31 66.46 47.99 66.46S78.96 79.38 80.79 96" clip-rule="evenodd"/><path fill="var(--illustration-primary)" d="M81 62.77C81 81.12 66.23 96 48 96S15 81.12 15 62.77s14.77-33.23 33-33.23 33 14.88 33 33.23"/><path fill="var(--illustration-invert)" fill-rule="evenodd" d="M20.55 81.23c5.92-8.91 16-14.77 27.44-14.77s21.52 5.86 27.44 14.77C69.51 90.14 59.43 96 47.99 96s-21.52-5.86-27.44-14.77" clip-rule="evenodd"/><path fill="var(--illustration-gray)" d="M81 33.23c0 18.35-14.77 33.23-33 33.23S15 51.58 15 33.23 29.77 0 48 0s33 14.88 33 33.23"/><path fill="var(--illustration-invert-2)" d="M74.5 33.23c0 14.36-11.86 26-26.5 26s-26.5-11.64-26.5-26 11.86-26 26.5-26 26.5 11.64 26.5 26"/><path fill="var(--illustration-primary)" d="M70 33.23c0 12.15-9.85 22-22 22s-22-9.85-22-22m0 0c0-12.15 9.85-22 22-22s22 9.85 22 22"/><path fill="var(--illustration-invert)" d="M47.73 17.51c8.67 0 15.73 7.05 15.73 15.73s-7.05 15.73-15.73 15.73S32 41.92 32 33.24s7.05-15.73 15.73-15.73m0-2C37.94 15.51 30 23.45 30 33.24s7.94 17.73 17.73 17.73 17.73-7.94 17.73-17.73-7.94-17.73-17.73-17.73"/><path fill="var(--illustration-white)" d="M47.33 22.91c2.38 4.36 5.97 7.94 10.33 10.33a26 26 0 0 0-10.33 10.33A26 26 0 0 0 37 33.24c4.36-2.38 7.94-5.97 10.33-10.33"/></svg>