<svg xmlns="http://www.w3.org/2000/svg" fill="none" viewBox="0 0 96 96"><path fill="var(--illustration-gray)" d="M70 47.919C69.956 35.806 60.123 26 48 26h-.06V6H48c23.169 0 41.956 18.76 42 41.919zM48 90C24.804 90 6 71.196 6 48h20c0 12.15 9.85 22 22 22z"/><path fill="var(--illustration-invert)" fill-rule="evenodd" d="M48 17c-17.12 0-31 13.88-31 31s13.88 31 31 31 31-13.88 31-31-13.88-31-31-31M15 48c0-18.225 14.775-33 33-33s33 14.775 33 33-14.775 33-33 33-33-14.775-33-33" clip-rule="evenodd"/><path fill="var(--illustration-white)" d="M20 68c11.046 0 20-8.954 20-20s-8.954-20-20-20S0 36.954 0 48s8.954 20 20 20"/><path fill="var(--illustration-primary)" d="M20 28C8.953 28 0 36.98 0 48.058 0 58.405 7.815 66.92 17.848 68V52.726a18.92 18.92 0 0 0 9.443-8.756v22.74C34.691 63.766 40 56.529 40 48.059 40 36.978 31.047 28 20 28M8.586 52.632V43.47c4.829 0 8.825-3.534 9.582-8.162h9.193c-.808 9.697-8.898 17.323-18.775 17.323M76 68a20 20 0 1 0 0-40 20 20 0 0 0 0 40"/><path fill="var(--illustration-white)" d="M81.479 51.179c0-2.917-1.775-3.9-5.209-4.371-2.537-.367-3.025-.962-3.025-2.146s.858-1.92 2.5-1.92c1.496 0 2.358.52 2.713 1.724a.64.64 0 0 0 .604.463h1.312a.582.582 0 0 0 .588-.68c-.417-1.904-1.7-3.05-3.713-3.408v-2.008a.625.625 0 0 0-.625-.625h-1.25a.625.625 0 0 0-.625.625v1.938c-2.5.35-4.079 2-4.079 4.116 0 2.738 1.667 3.8 5.15 4.271 2.371.387 3.046.9 3.046 2.246s-1.146 2.25-2.763 2.25c-2.179 0-2.916-.954-3.162-2.192a.634.634 0 0 0-.612-.508h-1.425a.584.584 0 0 0-.58.679c.363 2.083 1.7 3.608 4.425 3.975v1.975a.625.625 0 0 0 .625.625h1.25a.625.625 0 0 0 .625-.625v-1.975c2.584-.408 4.23-2.192 4.23-4.43"/><path fill="var(--illustration-white)" d="M71.712 59.95a12.5 12.5 0 0 1 0-23.484.9.9 0 0 0 .537-.787v-1.167a.591.591 0 0 0-.833-.596 15 15 0 0 0 0 28.583.591.591 0 0 0 .833-.595v-1.167a.9.9 0 0 0-.537-.788m8.87-26.033a.591.591 0 0 0-.833.596v1.167a.9.9 0 0 0 .537.787 12.5 12.5 0 0 1 0 23.483.835.835 0 0 0-.537.788v1.167a.591.591 0 0 0 .833.595 15 15 0 0 0 0-28.583"/></svg>