<svg xmlns="http://www.w3.org/2000/svg" fill="none" viewBox="0 0 96 96"><g clip-path="url(#a)"><path fill="var(--illustration-gray)" d="M96 63.42H0V96h96z"/><path fill="var(--illustration-invert)" d="M47.861 63.42H0V96h47.861z"/><path fill="var(--illustration-primary)" d="M23.93 39.605c6.608 0 11.965-5.332 11.965-11.909 0-6.576-5.357-11.908-11.965-11.908S11.965 21.12 11.965 27.696c0 6.577 5.357 11.909 11.965 11.909"/><path fill="var(--illustration-invert)" d="M23.93 15.788c-6.608 0-11.965 5.332-11.965 11.908h23.93c0-6.576-5.357-11.908-11.965-11.908"/><path fill="var(--illustration-primary)" d="M0 63.42c0-13.148 10.719-23.815 23.93-23.815S47.86 50.272 47.86 63.42z"/><path fill="var(--illustration-accent-2)" d="M95.872 0H52v28.778h43.872z"/><path fill="var(--illustration-accent-2)" d="M52 40.686v-16.87h16.95z"/></g><defs><clipPath id="a"><path fill="var(--illustration-white)" d="M0 0h96v96H0z"/></clipPath></defs></svg>