<svg xmlns="http://www.w3.org/2000/svg" fill="none" viewBox="0 0 96 96"><g clip-path="url(#a)"><path fill="var(--illustration-gray)" d="M0 56h96v40H0z"/><path fill="var(--illustration-positive)" d="M72 16v8H24v-8z"/><path fill="var(--illustration-accent-3)" d="M80 24v8H16v-8z"/><path fill="var(--illustration-primary)" d="M88 32v24H8V32z"/><path fill="var(--illustration-black)" d="M8 56h80v24H8z"/><path fill="var(--illustration-gray)" d="M80.006 64v8h-12v-8z"/><path fill="var(--illustration-black)" fill-rule="evenodd" d="M80.006 69h-12v-2h12z" clip-rule="evenodd"/><path fill="var(--illustration-black)" fill-rule="evenodd" d="M73.006 72v-8h2v8z" clip-rule="evenodd"/><path fill="var(--illustration-gray)" d="M64 0v16H49V9h7V7h-7V0zM47 0H32v16h15V9h-7V7h7z"/></g><defs><clipPath id="a"><path fill="var(--illustration-white)" d="M0 0h96v96H0z"/></clipPath></defs></svg>