<svg xmlns="http://www.w3.org/2000/svg" fill="none" viewBox="0 0 96 96"><g clip-path="url(#a)"><path fill="var(--illustration-gray)" d="M96 0v96H0L96 0Z"/><path fill="var(--illustration-primary)" d="M24 17.6h48V88H24V17.6Z"/><path fill="var(--illustration-black)" fill-rule="evenodd" d="M72 24v64H24V72l48-48Z" clip-rule="evenodd"/><path fill="var(--illustration-primary)" fill-rule="evenodd" d="m48 0 24 17.6H24L48 0Zm0 17.6c2.21 0 4-1.97 4-4.4 0-2.43-1.79-4.4-4-4.4-2.2 0-4 1.97-4 4.4 0 2.43 1.8 4.4 4 4.4Z" clip-rule="evenodd"/><path stroke="var(--illustration-black)" stroke-width="2" d="M48 16V0"/><path fill="var(--illustration-gray)" d="m0 8.03 6.64-1.4L8.04 0l1.4 6.64L16 8.04l-6.57 1.4L8.03 16l-1.4-6.57L0 8.03Z"/><path fill="var(--illustration-white)" d="M48 65.75a17.75 17.75 0 1 0 0-35.5 17.75 17.75 0 0 0 0 35.5Z"/><path fill="var(--illustration-white)" d="M48 60.17a12.17 12.17 0 1 0 0-24.34 12.17 12.17 0 0 0 0 24.34Z"/><path fill="var(--illustration-black)" fill-rule="evenodd" d="M62.17 48a14.17 14.17 0 1 1-28.34 0 14.17 14.17 0 0 1 28.34 0Zm-2 0a12.17 12.17 0 1 1-24.34 0 12.17 12.17 0 0 1 24.34 0Z" clip-rule="evenodd"/><path fill="var(--illustration-black)" fill-rule="evenodd" d="m37.3 57.3 20-20.01 1.41 1.41-20 20.01-1.42-1.41Z" clip-rule="evenodd"/></g><defs><clipPath id="a"><path fill="var(--illustration-white)" d="M0 0h96v96H0z"/></clipPath></defs></svg>