<svg xmlns="http://www.w3.org/2000/svg" fill="none" viewBox="0 0 96 96"><path fill="var(--illustration-accent-2)" d="M48.002 48H16v32h32V48Z"/><path fill="var(--illustration-black)" d="M41.6 54.4H28.8v4.8h12.8v-4.8Zm-12.8 0H28v16h.8v-16Z"/><path fill="var(--illustration-black)" d="M41.6 54.4h-.8v16h.8v-16Zm-16 19.2a3.2 3.2 0 1 0 0-6.4 3.2 3.2 0 0 0 0 6.4Z"/><path fill="var(--illustration-black)" d="M38.4 73.6a3.2 3.2 0 1 0 0-6.4 3.2 3.2 0 0 0 0 6.4Zm3.2-19.2H28.8v4.8h12.8v-4.8Zm-12.8 0H28v16h.8v-16Z"/><path fill="var(--illustration-black)" d="M41.6 54.4h-.8v16h.8v-16Zm-16 19.2a3.2 3.2 0 1 0 0-6.4 3.2 3.2 0 0 0 0 6.4Z"/><path fill="var(--illustration-black)" d="M38.4 73.6a3.2 3.2 0 1 0 0-6.4 3.2 3.2 0 0 0 0 6.4Z"/><path fill="var(--illustration-accent-1)" d="M80 16H48v32h32V16Z"/><path fill="var(--illustration-primary)" d="M48 0H0v48h48V0Z"/><path fill="var(--illustration-positive)" d="M96 48H48v48h48V48Z"/><path fill="var(--illustration-black)" d="M48 16H16v32h32V16Z"/><path fill="var(--illustration-white)" d="M16 16h17.455v17.454H16V16Z"/><path fill="var(--illustration-primary)" d="m15.35 34.185 19.2-19.2h-19.2v19.2ZM80 48H48v32h32V48Z"/><path fill="var(--illustration-white)" d="m72 64-16 8V56l16 8Z"/><path fill="var(--illustration-black)" d="M64 31.983c2.651 0 4.8-2.145 4.8-4.791A4.796 4.796 0 0 0 64 22.4a4.796 4.796 0 0 0-4.8 4.792 4.796 4.796 0 0 0 4.8 4.79Z"/><path fill="var(--illustration-black)" fill-rule="evenodd" d="M54.4 41.566c0-5.324 4.316-9.583 9.6-9.583 5.285 0 9.6 4.259 9.6 9.583v.034H54.4v-.034Z" clip-rule="evenodd"/><path fill="var(--illustration-black)" fill-rule="evenodd" d="M7 7h82v82H7V7Zm2 2v78h78V9H9Z" clip-rule="evenodd"/></svg>