<svg xmlns="http://www.w3.org/2000/svg" fill="none" viewBox="0 0 96 96"><path fill="var(--illustration-accent-2)" d="M48 48H16v32h32V48Z"/><path fill="var(--illustration-black)" d="M41.6 54.4H28.8v4.8h12.8v-4.8Zm-12.8 0H28v16h.8v-16Z"/><path fill="var(--illustration-black)" d="M41.6 54.4h-.8v16h.8v-16Zm-16 19.2a3.2 3.2 0 1 0 0-6.4 3.2 3.2 0 0 0 0 6.4Z"/><path fill="var(--illustration-black)" d="M38.4 73.6a3.2 3.2 0 1 0 0-6.4 3.2 3.2 0 0 0 0 6.4Zm3.2-19.2H28.8v4.8h12.8v-4.8Zm-12.8 0H28v16h.8v-16Z"/><path fill="var(--illustration-black)" d="M41.6 54.4h-.8v16h.8v-16Zm-16 19.2a3.2 3.2 0 1 0 0-6.4 3.2 3.2 0 0 0 0 6.4Z"/><path fill="var(--illustration-black)" d="M38.4 73.6a3.2 3.2 0 1 0 0-6.4 3.2 3.2 0 0 0 0 6.4Z"/><path fill="var(--illustration-accent-1)" d="M80 16H48v32h32V16Z"/><path fill="var(--illustration-primary)" d="M48 0H0v48h48V0Z"/><path fill="var(--illustration-positive)" d="M96 48H48v48h48V48Z"/><path fill="var(--illustration-gray-2)" d="M48 16H16v32h32V16Z"/><path fill="var(--illustration-invert-2)" d="M16 16h17.45v17.45H16V16Z"/><path fill="var(--illustration-primary)" d="m15.35 34.19 19.2-19.2h-19.2v19.2ZM80 48H48v32h32V48Z"/><path fill="var(--illustration-invert-2)" d="m72 64-16 8V56l16 8Z"/><path fill="var(--illustration-black)" d="M64 31.98a4.8 4.8 0 1 0 .01-9.59 4.8 4.8 0 0 0 0 9.6Z"/><path fill="var(--illustration-black)" fill-rule="evenodd" d="M54.4 41.57a9.58 9.58 0 0 1 9.6-9.59c5.29 0 9.6 4.26 9.6 9.59v.03H54.4v-.03Z" clip-rule="evenodd"/><path fill="var(--illustration-invert)" fill-rule="evenodd" d="M7 7h82v82H7V7Zm2 2v78h78V9H9Z" clip-rule="evenodd"/></svg>