<svg xmlns="http://www.w3.org/2000/svg" fill="none" viewBox="0 0 96 96"><g clip-path="url(#a)"><path fill="var(--illustration-gray)" d="M0 96h96.001v-8H0z"/><path fill="var(--illustration-gray)" d="M0 96h16.001V72H0zm80 0h16.001V72H80z"/><path fill="var(--illustration-positive)" d="M16 0h64.001v72H16z"/><path fill="var(--illustration-black)" fill-rule="evenodd" d="M23 15h18v18H23zm2 2v14h14V17z" clip-rule="evenodd"/><path fill="var(--illustration-black)" fill-rule="evenodd" d="M23 31h18v18H23zm2 2v14h14V33zm22-18h26v18H47zm2 2v14h22V17z" clip-rule="evenodd"/><path fill="var(--illustration-black)" fill-rule="evenodd" d="M47 31h26v18H47zm2 2v14h22V33z" clip-rule="evenodd"/><path stroke="var(--illustration-black)" stroke-linecap="square" stroke-width="2" d="M24 8h16m8 0h24"/><path fill="var(--illustration-black)" fill-rule="evenodd" d="M56 72H40v-8h16z" clip-rule="evenodd"/><path fill="var(--illustration-primary)" d="M48 88 32 72h32z"/></g><defs><clipPath id="a"><path fill="var(--illustration-white)" d="M0 0h96v96H0z"/></clipPath></defs></svg>