<svg xmlns="http://www.w3.org/2000/svg" fill="none" viewBox="0 0 96 96"><path fill="var(--illustration-primary)" d="M24 48C10.754 48 0 58.754 0 72s10.754 24 24 24 24-10.754 24-24-10.754-24-24-24"/><path fill="var(--illustration-gray)" d="M24 0C10.754 0 0 10.754 0 24s10.754 24 24 24 24-10.754 24-24S37.246 0 24 0"/><path fill="var(--illustration-gray)" d="M24 0C10.754 0 0 10.754 0 24s10.754 24 24 24 24-10.754 24-24S37.246 0 24 0"/><path fill="var(--illustration-accent-1)" d="M72 48c-13.246 0-24 10.754-24 24s10.754 24 24 24 24-10.754 24-24-10.754-24-24-24"/><path fill="var(--illustration-primary)" d="M96 0H72v44.8h24z"/><path fill="var(--illustration-invert)" d="M72 0H48v44.8h24z"/><path fill="var(--illustration-gray)" d="m48 44.8 24 28.8 24-28.8z"/><path fill="var(--illustration-primary)" fill-rule="evenodd" d="M88.134 54.239A23.9 23.9 0 0 0 72 48a23.9 23.9 0 0 0-16.135 6.239L72 73.6z" clip-rule="evenodd"/><path fill="var(--illustration-black)" fill-rule="evenodd" d="M80 64H64l8 9.6zm-43.505.331-1.414-1.414-15.569 15.568-7.18-7.18-1.414 1.414 7.18 7.18-.077.077 1.415 1.415.076-.077.077.077 1.414-1.415-.077-.076z" clip-rule="evenodd"/><path fill="var(--illustration-black)" d="m33.247 16.166-1.414-1.415-7.834 7.835-7.835-7.834-1.414 1.414L22.584 24l-7.834 7.834 1.414 1.415L24 25.414l7.834 7.834 1.414-1.414L25.413 24z"/></svg>