<svg xmlns="http://www.w3.org/2000/svg" fill="none" viewBox="0 0 96 96"><path fill="var(--illustration-gray)" d="M12.8 44.8h70.4v38.4H12.8V44.8Z"/><path fill="var(--illustration-primary)" fill-rule="evenodd" d="M83.2 44.8H12.8v12.818C22.937 55.575 34.852 54.4 47.6 54.4c13.087 0 25.295 1.24 35.6 3.381V44.8Z" clip-rule="evenodd"/><path fill="var(--illustration-positive)" d="M67.2 32c0 10.604-8.595 19.2-19.2 19.2-10.603 0-19.2-8.596-19.2-19.2S37.398 12.8 48 12.8c10.605 0 19.2 8.596 19.2 19.2Z"/><path fill="var(--illustration-black)" fill-rule="evenodd" d="M62.312 44.8A19.152 19.152 0 0 1 48 51.2a19.152 19.152 0 0 1-14.311-6.4h28.622Zm-16.979-9.076 10.132-9.119 1.07 1.19-11.202 10.081-5.868-5.281 1.07-1.19 4.798 4.319Z" clip-rule="evenodd"/><path fill="var(--illustration-invert)" d="m23.999 70.4-1.571.907.8 1.386 1.57-.907V73.6h1.6v-1.814l1.572.907.8-1.386-1.57-.907 1.571-.907-.8-1.386-1.571.907V67.2h-1.6v1.814l-1.571-.907-.8 1.386L24 70.4Zm12-1.386V67.2h1.6v1.814l1.571-.907.8 1.386-1.571.907 1.571.907-.8 1.386-1.571-.907V73.6h-1.6v-1.814l-1.571.907-.8-1.386 1.571-.907-1.571-.907.8-1.386 1.57.907Zm11.2-1.814v1.814l-1.571-.907-.8 1.386 1.571.907-1.571.907.8 1.386 1.57-.907V73.6h1.6v-1.814l1.572.907.8-1.386-1.57-.907 1.571-.907-.8-1.386-1.571.907V67.2h-1.6Zm11.2 1.814V67.2h1.6v1.814l1.571-.907.8 1.386-1.571.907 1.571.907-.8 1.386-1.57-.907V73.6h-1.6v-1.814l-1.571.907-.8-1.386L57.6 70.4l-1.571-.907.8-1.386 1.57.907Zm11.2-1.814v1.814l-1.571-.907-.8 1.386 1.571.907-1.571.907.8 1.386 1.57-.907V73.6h1.6v-1.814l1.572.907.8-1.386L72 70.4l1.571-.907-.8-1.386-1.571.907V67.2h-1.6Z"/></svg>