<svg xmlns="http://www.w3.org/2000/svg" fill="none" viewBox="0 0 96 96"><path fill="var(--illustration-primary)" d="M12.8 12.8h70.4v44.8H12.8V12.8Z"/><path fill="var(--illustration-white)" d="M19.2 19.2h25.6v25.6H19.2V19.2Z"/><path fill="var(--illustration-positive)" d="M64 67.2a16 16 0 1 1-32 0 16 16 0 0 1 32 0Z"/><path fill="var(--illustration-black)" fill-rule="evenodd" d="m46.67 70.9 7.98-7.48 1.1 1.16-9.08 8.52-4.82-4.52 1.1-1.16 3.72 3.48ZM60.8 57.6H35.2a15.98 15.98 0 0 1 25.6 0Z" clip-rule="evenodd"/><path fill="var(--illustration-accent-1)" d="M51.2 19.2h25.6v6.4H51.2v-6.4Z"/><path fill="var(--illustration-accent-1)" fill-rule="evenodd" d="M44.8 38.8v6H19.2v-6A15.67 15.67 0 0 1 32 32.25c5.3 0 9.98 2.59 12.8 6.55Z" clip-rule="evenodd"/><path fill="var(--illustration-black)" d="M36.8 25.6a4.8 4.8 0 1 1-9.6 0 4.8 4.8 0 0 1 9.6 0Z"/><path fill="var(--illustration-white)" fill-rule="evenodd" d="M76.8 36.8H51.2v-1.6h25.6v1.6Zm0 8H51.2v-1.6h25.6v1.6Z" clip-rule="evenodd"/></svg>