<svg xmlns="http://www.w3.org/2000/svg" fill="none" viewBox="0 0 96 96"><path fill="var(--illustration-primary)" d="M12.8 12.8h70.4v44.8H12.8V12.8Z"/><path fill="var(--illustration-white)" d="M19.2 19.2h25.6v25.6H19.2V19.2Z"/><path fill="var(--illustration-positive)" d="M64 67.2c0 8.837-7.163 16-16 16s-16-7.163-16-16c0-8.836 7.163-16 16-16s16 7.164 16 16Z"/><path fill="var(--illustration-black)" fill-rule="evenodd" d="m46.667 70.903 7.986-7.487 1.095 1.168-9.08 8.513-4.815-4.513 1.095-1.168 3.72 3.487ZM60.802 57.6H35.199c2.92-3.886 7.567-6.4 12.801-6.4 5.235 0 9.883 2.514 12.802 6.4Z" clip-rule="evenodd"/><path fill="var(--illustration-accent-1)" d="M51.2 19.2h25.6v6.4H51.2v-6.4Z"/><path fill="var(--illustration-accent-1)" fill-rule="evenodd" d="M44.8 38.8v6H19.2v-6c2.819-3.96 7.5-6.55 12.8-6.55 5.298 0 9.98 2.59 12.8 6.55Z" clip-rule="evenodd"/><path fill="var(--illustration-black)" d="M36.8 25.6a4.8 4.8 0 1 1-9.6 0 4.8 4.8 0 0 1 9.6 0Z"/><path fill="var(--illustration-white)" fill-rule="evenodd" d="M76.8 36.8H51.2v-1.6h25.6v1.6Zm0 8H51.2v-1.6h25.6v1.6Z" clip-rule="evenodd"/></svg>