<svg xmlns="http://www.w3.org/2000/svg" fill="none" viewBox="0 0 96 96"><path fill="var(--illustration-gray)" d="M96 19.2H0V80h96z"/><path fill="var(--illustration-gray)" fill-rule="evenodd" d="M51.2 75.2h-6.4v9.6c.037.261 0 .528 0 .8a5.6 5.6 0 0 1-4.8 5.543v.057a4.8 4.8 0 0 0-4.8 4.8h25.6a4.8 4.8 0 0 0-4.8-4.8v-.057a5.6 5.6 0 0 1-4.8-5.543c0-.272-.038-.539 0-.8z" clip-rule="evenodd"/><path fill="var(--illustration-primary)" fill-rule="evenodd" d="M22.51 19.2v3.546h-9.66c-2.771 0-5.43 1.156-7.389 3.213s-3.06 4.848-3.06 7.757c0 1.917.478 3.8 1.387 5.463a10.73 10.73 0 0 0 3.795 4.011l15.937 9.76c.449.356.827.803 1.111 1.318.37.67.566 1.432.568 2.207a4.55 4.55 0 0 1-1.236 3.133 4.12 4.12 0 0 1-2.986 1.298v3.546c2.016 0 3.949-.84 5.374-2.337a8 8 0 0 0 1.549-2.35c4.01 5.68 10.12 9.615 16.9 10.607V80h6.4v-9.63c6.778-.992 12.89-4.927 16.899-10.607a8 8 0 0 0 1.549 2.35c1.425 1.496 3.358 2.337 5.374 2.337v-3.546a4.12 4.12 0 0 1-2.986-1.299 4.55 4.55 0 0 1-1.237-3.132 4.6 4.6 0 0 1 .569-2.207 4.4 4.4 0 0 1 1.111-1.318l15.938-9.759a10.73 10.73 0 0 0 3.795-4.011 11.4 11.4 0 0 0 1.387-5.463c0-2.91-1.1-5.7-3.06-7.757s-4.618-3.213-7.39-3.213h-9.66V19.2zm-9.66 7.092h9.66v16.12a31.2 31.2 0 0 0 .616 6.19l-13.84-8.474a7.26 7.26 0 0 1-2.569-2.715 7.7 7.7 0 0 1-.939-3.697c0-1.969.745-3.857 2.072-5.25s3.125-2.174 5-2.174m73.866 13.836-13.841 8.474c.402-1.991.615-4.063.615-6.19v-16.12h9.66c1.876 0 3.675.782 5.001 2.174 1.327 1.393 2.072 3.281 2.072 5.25a7.7 7.7 0 0 1-.94 3.697 7.26 7.26 0 0 1-2.567 2.715" clip-rule="evenodd"/><path fill="var(--illustration-accent-1)" d="M67.2 19.2c0 10.604-8.595 19.2-19.2 19.2-10.603 0-19.2-8.596-19.2-19.2S37.398 0 48 0c10.605 0 19.2 8.596 19.2 19.2"/><path fill="var(--illustration-black)" d="M48 38.4c10.605 0 19.2-8.596 19.2-19.2H28.8c0 10.604 8.597 19.2 19.2 19.2"/></svg>