<svg xmlns="http://www.w3.org/2000/svg" fill="none" viewBox="0 0 96 96"><g clip-path="url(#a)"><path fill="var(--illustration-gray)" d="M0 0h16.001a8 8 0 0 1 8 8v8a8 8 0 0 1-8 8H0V0Zm0 56h16.001a8 8 0 0 1 8 8v8a8 8 0 0 1-8 8H0V56Z"/><path fill="var(--illustration-primary)" d="M72 0H16v80h13.597l18.402-27.606L66.403 80H72a8 8 0 0 0 8-8V8a8 8 0 0 0-8-8Z"/><path fill="var(--illustration-invert)" d="M22 9H10V7h12v2ZM10 36.682h12v-2H10v2ZM10 65h12v-2H10v2Zm0 8h12v-2H10v2Zm12-27.23H10v-2h12v2ZM10 17h12v-2H10v2Z"/><path fill="var(--illustration-accent-1)" d="M74.663 96H21.334l26.665-40 26.664 40H21.334l26.665-40 26.664 40Z"/><path fill="var(--illustration-black)" d="M49.11 84.889h-2.222l-1.11-15.556h4.444L49.11 84.889ZM48 91.556a2.222 2.222 0 1 0 0-4.445 2.222 2.222 0 0 0 0 4.445Z"/><path fill="var(--illustration-accent-2)" d="M48 48c11.046 0 20-8.954 20-20S59.046 8 48 8s-20 8.954-20 20 8.954 20 20 20Z"/><path fill="var(--illustration-black)" d="M48 30.5A6.25 6.25 0 1 0 48 18a6.25 6.25 0 0 0 0 12.5Z"/><path fill="var(--illustration-black)" fill-rule="evenodd" d="M61.636 42.63A19.93 19.93 0 0 1 48 48a19.934 19.934 0 0 1-13.96-5.678C36.21 36.861 41.544 33 47.78 33c6.35 0 11.766 4.006 13.857 9.63Z" clip-rule="evenodd"/></g><defs><clipPath id="a"><path fill="var(--illustration-white)" d="M0 0h96v96H0z"/></clipPath></defs></svg>