<svg xmlns="http://www.w3.org/2000/svg" fill="none" viewBox="0 0 96 96"><g clip-path="url(#a)"><path fill="var(--illustration-gray)" d="M80 50.764h16v101.528H80V50.764ZM64 56h8v96.292h-8V56ZM32 40h16v101.528H32V40Zm-16 5.236h8v96.292h-8V45.236Zm-16 0h8v96.292H0V45.236Z"/><path fill="var(--illustration-primary)" d="M0 2.571A2.571 2.571 0 0 1 2.571 0h42.857A2.571 2.571 0 0 1 48 2.571v42.857A2.571 2.571 0 0 1 45.428 48H2.571A2.571 2.571 0 0 1 0 45.428V2.571Z"/><path fill="var(--illustration-black)" d="M41.088 36.72a8 8 0 0 1 .032 1.245 8.397 8.397 0 0 0-4.523-3.353l-.339-3.243c-2.466-16.601-14.21-18.706-16.537-18.964 1.967-2.004 5.148-3.161 8.028-2.367.408.114.799.254 1.17.423a8.43 8.43 0 0 0-3.674 1.847 7.914 7.914 0 0 1 7.538 1.048 8.411 8.411 0 0 0-3.34.716 7.907 7.907 0 0 1 6.216 2.809 8.43 8.43 0 0 0-3.655-.02 7.905 7.905 0 0 1 5.38 2.835c.27.325.508.664.717 1.016a8.436 8.436 0 0 0-3.72-.618 7.912 7.912 0 0 1 4.806 3.773c.209.37.383.748.522 1.13a8.443 8.443 0 0 0-3.509-1.278 7.91 7.91 0 0 1 4.147 4.478c.146.397.258.797.337 1.198a8.397 8.397 0 0 0-2.875-1.69 7.899 7.899 0 0 1 3.333 5.937 8.388 8.388 0 0 0-2.751-2.097 7.91 7.91 0 0 1 2.697 5.174Z"/><path fill="var(--illustration-gray)" d="M20.729 16.103a1.437 1.437 0 0 0-.125.307l-.034.12a.76.76 0 0 1-.002 0l.034-.12c.03-.11.073-.212.127-.307Zm.184-.255Zm.508-.344Z"/><path fill="var(--illustration-white)" d="M29.802 26.18c-.002-.002-.002-.004-.002-.006a22.436 22.436 0 0 0-.176-.902c-.01-.065-.026-.127-.04-.19l-.052-.214-.043-.17a18.902 18.902 0 0 0-.323-1.104c-.027-.083-.058-.165-.085-.247-.06-.174-.123-.341-.19-.509-.032-.081-.064-.165-.098-.247l-.103-.242a15.426 15.426 0 0 0-.447-.926 12.206 12.206 0 0 0-.631-1.07 10.82 10.82 0 0 0-.415-.6c-.047-.063-.095-.128-.144-.19a12.928 12.928 0 0 0-.762-.912c-.21-.235-.43-.46-.655-.68-.058-.053-.114-.107-.172-.162-.056-.054-.114-.106-.172-.16l-.174-.156-.178-.157a12.212 12.212 0 0 0-.361-.303c-.123-.1-.245-.2-.37-.296-.062-.047-.124-.097-.189-.144a18.614 18.614 0 0 0-.582-.427 25.81 25.81 0 0 0-.786-.535 1.429 1.429 0 0 0-.363-.168 1.299 1.299 0 0 0-.672-.02.789.789 0 0 0-.1.027 1.328 1.328 0 0 0-.528.303 1.268 1.268 0 0 0-.26.33 1.437 1.437 0 0 0-.125.307l-.035.12a.762.762 0 0 1-.195.342.778.778 0 0 1-1.06.026.726.726 0 0 1-.115-.137.72.72 0 0 1-.088-.172l-1.77-4.908c.01.032.02.065.028.097a5.079 5.079 0 0 1 .107.4c.009.03.015.06.022.09.017.07.03.14.04.206a3.656 3.656 0 0 1 .04.245c.006.064.012.126.014.186.003.033.003.063.003.093 0 .04-.003.08-.005.118-.004.04-.008.08-.015.116l-.013.064a.688.688 0 0 1-.045.123l-.013.023a.4.4 0 0 1-.085.11.342.342 0 0 1-.147.077.633.633 0 0 1-.642-.172c-.013-.013-.023-.026-.034-.036a.674.674 0 0 1-.056-.071.744.744 0 0 1-.058-.092l-.07.09-.85 1.059-.85 1.058-.002-.002-2.663 3.314a.834.834 0 0 0-.161.707l.228.99-4.695 6.71a2.225 2.225 0 0 0-.359 1.705l.146.736a2.403 2.403 0 0 0 1.826 1.88l1.174.268a2.403 2.403 0 0 0 1.848-.326l.738-.48a.904.904 0 0 0 .41-.755v-.46l1.482-3.98c.16.16 1.128 1.1 2.541 1.366.758.144 1.643.095 2.601-.373a5.89 5.89 0 0 0 .505-.277l.154-.1h.003a4.355 4.355 0 0 0 .399-.294.3.3 0 0 0 .052-.043 1.941 1.941 0 0 0 .167-.143c.062-.054.12-.112.176-.168.039-.039.078-.077.114-.118.039-.039.073-.08.107-.118l.101-.12c.033-.041.065-.082.095-.123a5.52 5.52 0 0 0 .333-.498c.073-.127.137-.254.197-.38a5.706 5.706 0 0 0 .503-2.212 5.124 5.124 0 0 0-.058-.995h.002l.002.002a1.125 1.125 0 0 1 .09.07 1.671 1.671 0 0 1 .177.164c.081.08.174.185.268.314a3.945 3.945 0 0 1 .541 1.003c.142.378.254.833.3 1.379.018.18.027.371.027.573a7.33 7.33 0 0 1-.18 1.605 8.007 8.007 0 0 1-.254.91c-.009.03-.02.058-.03.088a9.625 9.625 0 0 1-.307.776 11.934 11.934 0 0 1-.84 1.557 3.242 3.242 0 0 1-.116.182c-.06.095-.122.187-.187.277a14.78 14.78 0 0 1-1.838 2.189l-.086.084a3.178 3.178 0 0 1-.14.128c-.004.007-.009.009-.013.013h-.002l-.01.011a5.497 5.497 0 0 1-.147.17c-2.414 2.695-4.832 3.382-6.256 6.85h15.227l.443-1.406c.889-5.008.973-8.872.457-11.935ZM8.937 29.45l-.328.448a.258.258 0 0 1-.46-.103l-.195-.99a.753.753 0 0 1 .352-.793.362.362 0 0 1 .468.084l.142.178a.97.97 0 0 1 .021 1.175Zm6.151-9.762c-.348.431-.891.61-1.4.509a1.44 1.44 0 0 1 .195-1.476c.348-.433.894-.61 1.4-.509a1.43 1.43 0 0 1-.195 1.476Zm10.82 16.395-4.587.439c-.421.038-.645-.486-.325-.76 1.07-.926 2.258-1.766 3.446-3.091.764-.855 1.254-1.822 1.565-2.767.082-.244.44-.206.464.054l.455 4.895a1.13 1.13 0 0 1-1.018 1.23Z"/><path fill="var(--illustration-white)" d="M8.916 28.274a.97.97 0 0 1 .022 1.175l-.329.45a.258.258 0 0 1-.46-.104l-.195-.99a.753.753 0 0 1 .352-.793.362.362 0 0 1 .468.084l.142.178Zm4.772-8.077a1.44 1.44 0 0 1 .196-1.476c.348-.434.893-.61 1.4-.509a1.436 1.436 0 0 1-1.596 1.985Zm1.025-4.731-.002-.003.85-1.058.015-.018.836-1.04-.848 1.06-.85 1.059Zm2.656-3.689c-.015-.044-.028-.092-.043-.137l.015.041c.01.032.02.064.028.097Zm2.735 20.701c-.005.007-.01.01-.014.014.005-.005.007-.01.012-.014h.002Zm.466-15.948a.76.76 0 0 1-.002 0l.034-.12a1.34 1.34 0 0 1 .002 0l-.034.12Zm.343-.682Zm.508-.344Zm1.26 5.676h-.003v-.004l.003.004Zm.228 7.69Zm.305-7.144Zm.098 6.334Zm.444-5.331Zm-.014 4.169Zm.156-.612c.114-.52.179-1.055.179-1.605a6.957 6.957 0 0 0 .002 0 7.33 7.33 0 0 1-.18 1.605Zm-2.901 9.475c1.07-.925 2.258-1.765 3.445-3.09.765-.855 1.255-1.822 1.566-2.767.082-.244.44-.206.464.054l.455 4.895a1.13 1.13 0 0 1-1.018 1.23l-4.587.439c-.421.038-.645-.486-.325-.76Zm-3.773-8.623-1.613 1.048-2.41 1.566 1.482-3.98c.159.16 1.128 1.1 2.54 1.366Z"/><path fill="var(--illustration-black)" d="M17.595 12.998c0 .04-.002.08-.004.118-.005.04-.009.08-.015.116l-.013.064c-.013.043-.026.086-.045.123l-.013.023a.394.394 0 0 1-.086.11.343.343 0 0 1-.146.077.633.633 0 0 1-.642-.172l-.035-.036a.904.904 0 0 1-.112-.163h-.002c-.04-.095-.942-2.081-.272-4.364 0 0 .348.702.693 1.565l.426 1.18v.002l.013.04.027.097a5.18 5.18 0 0 1 .108.4l.021.09c.017.07.03.14.041.206.013.069.024.133.032.197l.007.048c.006.064.013.126.015.187.002.032.002.062.002.092ZM8.938 29.45l-.329.448a.258.258 0 0 1-.46-.103l-.195-.99a.753.753 0 0 1 .352-.793.362.362 0 0 1 .468.084l.142.178a.97.97 0 0 1 .022 1.175Z"/><path fill="var(--illustration-gray)" d="M24.08 24.681c0 .55-.064 1.087-.18 1.605a8.007 8.007 0 0 1-.253.91l-.03.088c-.06.168-.123.331-.188.494a10.554 10.554 0 0 1-.52 1.091c-.139.26-.287.51-.44.748l-.116.182c-.06.095-.122.187-.186.277a14.786 14.786 0 0 1-1.838 2.188c-.03.031-.06.059-.087.085a3.12 3.12 0 0 1-.14.129c-.004.006-.008.008-.012.012l.01-.013c1.525-1.831 1.863-4.12 1.9-5.58a.796.796 0 0 0-1.23-.69l-.283.182a4.426 4.426 0 0 0 .4-.294.3.3 0 0 0 .051-.043 1.854 1.854 0 0 0 .168-.144c.06-.054.12-.11.176-.168.04-.038.08-.077.114-.118.038-.039.073-.08.107-.118.037-.04.069-.08.101-.12.034-.041.067-.082.095-.123.034-.04.064-.081.092-.124a4.768 4.768 0 0 0 .438-.754 5.606 5.606 0 0 0 .503-2.212c.017-.57-.05-.958-.056-.993v-.002l.002.002a.985.985 0 0 1 .09.07c.034.027.077.066.125.113l.051.052c.082.079.174.184.269.313.032.043.064.09.098.137.155.226.312.512.443.866.142.378.253.833.3 1.379.018.18.026.371.026.573Z"/><path fill="var(--illustration-black)" d="M15.089 19.688c-.348.431-.892.61-1.4.509a1.44 1.44 0 0 1 .195-1.476c.348-.434.893-.61 1.4-.509a1.43 1.43 0 0 1-.195 1.476Z"/><path fill="var(--illustration-white)" d="m8.629 8.842 6.082 6.621.002.003 1.7-2.118-7.784-4.506Z"/><path fill="var(--illustration-gray)" d="M29.346 38.115c.89-5.008.973-8.872.458-11.935-.002-.002-.002-.004-.002-.006-.015-.103-.035-.204-.054-.305-.01-.07-.026-.14-.039-.208a9.944 9.944 0 0 0-.084-.389 2.628 2.628 0 0 0-.04-.189 33.216 33.216 0 0 0-.095-.384 10.973 10.973 0 0 0-.152-.557 9.209 9.209 0 0 0-.17-.547 4.787 4.787 0 0 0-.086-.247 11.403 11.403 0 0 0-.288-.756l-.103-.243a9.503 9.503 0 0 0-.217-.47 7.792 7.792 0 0 0-.114-.23 9.79 9.79 0 0 0-.485-.88 7.442 7.442 0 0 0-.262-.415 10.962 10.962 0 0 0-.558-.79 12.892 12.892 0 0 0-.763-.913c-.21-.235-.43-.46-.655-.68-.058-.055-.114-.11-.172-.162a11.19 11.19 0 0 0-.346-.316 4.07 4.07 0 0 0-.178-.157 9.552 9.552 0 0 0-.36-.303c-.123-.1-.245-.2-.37-.296-.062-.047-.124-.097-.189-.144a18.621 18.621 0 0 0-.969-.696c-.13-.09-.264-.178-.399-.266a1.435 1.435 0 0 0-.363-.168 1.298 1.298 0 0 0-.672-.019.77.77 0 0 0-.101.026.582.582 0 0 0-.097.034 1.027 1.027 0 0 0-.184.088.513.513 0 0 0-.086.054.478.478 0 0 0-.088.064.644.644 0 0 0-.073.063.627.627 0 0 0-.076.075 1.095 1.095 0 0 0-.184.255 1.34 1.34 0 0 0-.127.307l-.034.12a.847.847 0 0 1-.078.192.82.82 0 0 1-.116.15.778.778 0 0 1-1.058.026.804.804 0 0 1-.202-.31L17.33 11.64v-.002a15.685 15.685 0 0 0-.425-1.179c-.346-.863-.694-1.565-.694-1.565s1.933.895 3.11 3.479c0 0 .142.006.401.032 2.329.258 14.072 2.363 16.538 18.964l.34 3.243.512 4.91h-8.208l.442-1.407Z"/><path fill="var(--illustration-positive)" d="M16 80a8 8 0 0 1 8-8 8 8 0 0 1-8-8 8 8 0 0 1-8 8 8 8 0 0 1 8 8Z"/><path fill="var(--illustration-primary)" fill-rule="evenodd" d="M15.986 64.469V79.53A8 8 0 0 0 8 72.001a8 8 0 0 0 7.986-7.532Z" clip-rule="evenodd"/><path fill="var(--illustration-positive)" d="M64 51.429A3.429 3.429 0 0 1 67.429 48H92.57A3.429 3.429 0 0 1 96 51.429V76.57A3.429 3.429 0 0 1 92.571 80H67.43A3.429 3.429 0 0 1 64 76.571V51.43Z"/><path fill="var(--illustration-black)" d="M68.572 66.286h4.572v9.142h-4.572v-9.142Zm9.143-4.572h4.571V75.43h-4.571V61.714Zm9.142-4.571h4.572v18.285h-4.572V57.144Z"/><path fill="var(--illustration-accent-2)" d="M80 24a8 8 0 0 1 8-7.999A8 8 0 0 1 80 8a8 8 0 0 1-8 8.001 8 8 0 0 1 8 8Z"/></g><defs><clipPath id="a"><path fill="var(--illustration-white)" d="M0 0h96v96H0z"/></clipPath></defs></svg>