<svg xmlns="http://www.w3.org/2000/svg" fill="none" viewBox="0 0 96 96"><g clip-path="url(#a)"><path fill="var(--illustration-gray)" d="M96 96V23.597H80V96h16Zm-24 0V23.597h-8V96h8Zm-16 0V23.597h-8V96h8ZM8 96V48H0v48h8Zm32 0V48l-16 9.462V96h16Z"/><path fill="var(--illustration-accent-1)" d="M72 0C58.745 0 48 10.745 48 24s10.745 24 24 24 24-10.745 24-24S85.255 0 72 0Z"/><circle cx="16" cy="16" r="17" stroke="var(--illustration-black)" stroke-width="2" transform="matrix(0 -1 -1 0 88 40)"/><path fill="var(--illustration-positive)" fill-rule="evenodd" d="M20 28C8.955 28 0 36.955 0 48s8.955 20 20 20 20-8.955 20-20-8.955-20-20-20Zm0 29.574A28.147 28.147 0 0 1 29.572 48 28.147 28.147 0 0 1 20 38.426 28.147 28.147 0 0 1 10.428 48 28.147 28.147 0 0 1 20 57.574Z" clip-rule="evenodd"/><path fill="var(--illustration-accent-2)" d="M16 12.001c6.628 0 11.999-5.372 11.999-12.001 0 6.629 5.372 12.001 12.001 12.001-6.629 0-12.001 5.373-12.001 11.999 0-6.626-5.37-11.999-11.999-11.999Z"/></g><defs><clipPath id="a"><path fill="var(--illustration-white)" d="M0 96V0h96v96z"/></clipPath></defs></svg>