<svg xmlns="http://www.w3.org/2000/svg" fill="none" viewBox="0 0 96 96"><path fill="var(--illustration-accent-1)" d="M48 44.8a19.2 19.2 0 1 0 0-38.4 19.2 19.2 0 0 0 0 38.4Z"/><path fill="var(--illustration-gray)" d="M48 96 0 67.2V0l48 28.8V96Z"/><path fill="var(--illustration-primary)" fill-rule="evenodd" d="M30.29 18.17 48 28.8v16a19.2 19.2 0 0 1-17.7-26.63Z" clip-rule="evenodd"/><path fill="var(--illustration-primary)" d="m48 96 48-28.8V0L48 28.8V96Z"/><path fill="var(--illustration-black)" fill-rule="evenodd" d="M48 44.8a19.2 19.2 0 0 0 17.71-26.63L48 28.8v16Z" clip-rule="evenodd"/><path fill="var(--illustration-invert)" d="m5.14 41.56 1.1-1.79L42.05 61.7l-1.1 1.8-35.8-21.95Zm0 12 1.1-1.79L42.05 73.7l-1.1 1.8-35.8-21.95Zm84.12-12-1.1-1.79L52.34 61.7l1.1 1.8 35.82-21.94Zm0 12-1.1-1.79L52.34 73.7l1.1 1.8 35.82-21.94Z"/></svg>