<svg xmlns="http://www.w3.org/2000/svg" fill="none" viewBox="0 0 96 96"><path fill="var(--illustration-gray)" d="M96 0H76.8v22.4H96V0ZM70.4 0H64v22.4h6.4V0Z"/><path fill="var(--illustration-positive)" d="M96 40H0v56h96V40Z"/><path fill="var(--illustration-primary)" d="M64 68c0-6.63 5.73-12 12.8-12H96v24H76.8C69.73 80 64 74.63 64 68Z"/><path fill="var(--illustration-gray)" d="M12 0H0v38.4h12V0Zm12 0h-8v38.4h8V0Zm16 0h-8v40h8V0Z"/><path fill="var(--illustration-positive)" d="M40 40a20 20 0 1 1-40 0 20 20 0 0 1 40 0Z"/><path fill="var(--illustration-primary)" fill-rule="evenodd" d="M20 60a20 20 0 0 0 20-20H0a20 20 0 0 0 20 20Z" clip-rule="evenodd"/><path fill="var(--illustration-invert)" d="M52.36 62.2h-2v4.07l-3.53-2.04-1 1.74L49.36 68l-3.53 2.03 1 1.74 3.53-2.04v4.07h2v-4.07l3.52 2.04 1-1.74L53.36 68l3.52-2.03-1-1.74-3.52 2.04V62.2Zm-38.4 0h-2v4.07l-3.53-2.04-1 1.74L10.96 68l-3.53 2.03 1 1.74 3.53-2.04v4.07h2v-4.07l3.52 2.04 1-1.74L14.96 68l3.52-2.03-1-1.74-3.52 2.04V62.2Zm19.2 0h-2v4.07l-3.53-2.04-1 1.74L30.16 68l-3.53 2.03 1 1.74 3.53-2.04v4.07h2v-4.07l3.52 2.04 1-1.74L34.16 68l3.52-2.03-1-1.74-3.52 2.04V62.2Z"/><path fill="var(--illustration-accent-1)" d="M96 24a16 16 0 1 1-32 0 16 16 0 0 1 32 0Z"/><path fill="var(--illustration-white)" d="M92 24c-6.65 0-12 5.35-12 12 0-6.65-5.35-12-12-12 6.65 0 12-5.35 12-12a12 12 0 0 0 12 12Z"/></svg>