<svg xmlns="http://www.w3.org/2000/svg" fill="none" viewBox="0 0 96 96"><path fill="var(--illustration-primary)" d="M48 96C21.6 96 0 74.4 0 48S21.6 0 48 0z"/><path fill="var(--illustration-gray)" d="M48 0c26.4 0 48 21.6 48 48S74.4 96 48 96z"/><path fill="var(--illustration-black)" fill-rule="evenodd" d="M48 .05q-.399 0-.798.006l-.245.004v.013c-8.835.398-16.7 5.822-22.38 14.172a47 47 0 0 0-2.484 4.09H10.325l-.074.095a48 48 0 0 0-1.201 1.6l-.283.393h12.26c-3.645 7.546-5.825 16.684-5.969 26.534H.061l-.004.245a49 49 0 0 0 0 1.598l.004.244h15.103c.143 9.85 2.315 18.987 5.945 26.534H8.767l.283.394q.585.812 1.2 1.598l.075.095h11.847a47 47 0 0 0 2.478 4.098c5.656 8.345 13.487 13.77 22.288 14.176h.006a49 49 0 0 0 1.856.005l.244-.004v-.013c8.836-.397 16.701-5.821 22.38-14.171a47 47 0 0 0 2.484-4.09h11.768l.075-.096q.616-.786 1.2-1.598l.284-.394h-12.26c3.644-7.546 5.824-16.684 5.968-26.534H95.94l.004-.244a49 49 0 0 0 0-1.598l-.004-.245H80.838c-.144-9.85-2.315-18.987-5.946-26.534h12.343l-.283-.393q-.585-.811-1.201-1.599l-.075-.095H73.83a47 47 0 0 0-2.479-4.098C65.698 5.897 57.872.473 49.077.062h-.006a49 49 0 0 0-1.07-.012m1.044 18.285V2.15c7.927.397 15.188 5.304 20.58 13.258a44 44 0 0 1 1.82 2.927zM26.302 15.42C31.712 7.466 39 2.559 46.957 2.163v16.172H24.482a44 44 0 0 1 1.82-2.916m-9.157 31.537c.15-9.966 2.447-19.128 6.21-26.534h23.602v26.534zm31.9 0V20.422h23.52c3.75 7.406 6.036 16.568 6.185 26.534zm-25.61 28.621C19.686 68.171 17.4 59.01 17.25 49.043h29.706v26.534zm25.608 0V49.043h29.812c-.15 9.967-2.446 19.129-6.21 26.534zm-22.666 5.014a44 44 0 0 1-1.82-2.927h22.4V93.85c-7.927-.397-15.189-5.304-20.58-13.259m22.666 13.246V77.664H71.52a44 44 0 0 1-1.82 2.917c-5.41 7.953-12.698 12.86-20.656 13.256" clip-rule="evenodd"/><path fill="var(--illustration-accent-2)" d="M48 72c-13.2 0-24-10.8-24-24s10.8-24 24-24z"/><path fill="var(--illustration-white)" d="M48 24c13.2 0 24 10.8 24 24S61.2 72 48 72z"/><path fill="var(--illustration-primary)" d="M48 64c-8.8 0-16-7.2-16-16s7.2-16 16-16z"/><path fill="var(--illustration-accent-1)" d="M48 32c8.8 0 16 7.2 16 16s-7.2 16-16 16z"/></svg>