<svg xmlns="http://www.w3.org/2000/svg" fill="none" viewBox="0 0 96 96"><path fill="var(--illustration-gray)" d="M96 0H76.8v22.4H96V0ZM70.4 0H64v22.4h6.4V0Z"/><path fill="var(--illustration-positive)" d="M96 40H0v56h96V40Z"/><path fill="var(--illustration-primary)" d="M64 68c0-6.627 5.73-12 12.8-12H96v24H76.8C69.73 80 64 74.627 64 68Z"/><path fill="var(--illustration-gray)" d="M12 0H0v38.4h12V0Zm12 0h-8v38.4h8V0Zm16 0h-8v40h8V0Z"/><path fill="var(--illustration-positive)" d="M40 40c0 11.045-8.955 20-20 20C8.954 60 0 51.045 0 40c0-11.046 8.954-20 20-20 11.045 0 20 8.954 20 20Z"/><path fill="var(--illustration-primary)" fill-rule="evenodd" d="M20 60c11.045 0 20-8.955 20-20H0c0 11.045 8.954 20 20 20Z" clip-rule="evenodd"/><path fill="var(--illustration-black)" d="M52.357 62.2h-2v4.068l-3.523-2.034-1 1.732L49.357 68l-3.523 2.034 1 1.732 3.523-2.034V73.8h2v-4.068l3.523 2.034 1-1.732L53.357 68l3.523-2.034-1-1.732-3.523 2.034V62.2Zm-38.399 0h-2v4.068l-3.524-2.034-1 1.732L10.957 68l-3.523 2.034 1 1.732 3.524-2.034V73.8h2v-4.068l3.522 2.034 1-1.732L14.957 68l3.523-2.034-1-1.732-3.522 2.034V62.2Zm19.2 0h-2v4.068l-3.524-2.034-1 1.732L30.157 68l-3.523 2.034 1 1.732 3.524-2.034V73.8h2v-4.068l3.522 2.034 1-1.732L34.157 68l3.523-2.034-1-1.732-3.522 2.034V62.2Z"/><path fill="var(--illustration-accent-1)" d="M96 24c0 8.837-7.163 16-16 16s-16-7.163-16-16S71.163 8 80 8s16 7.163 16 16Z"/><path fill="var(--illustration-white)" d="M92 24c-6.65 0-12 5.35-12 12 0-6.65-5.35-12-12-12 6.65 0 12-5.35 12-12 0 6.65 5.4 12 12 12Z"/></svg>