<svg xmlns="http://www.w3.org/2000/svg" fill="none" viewBox="0 0 96 96"><path fill="var(--illustration-gray)" d="M48 96C21.6 96 0 74.4 0 48S21.6 0 48 0zm0-96c26.4 0 48 21.6 48 48S74.4 96 48 96z"/><path fill="var(--illustration-positive)" d="M48 48H0C0 21.6 21.6 0 48 0zm0 0h48c0 26.4-21.6 48-48 48z"/><path fill="var(--illustration-black)" fill-rule="evenodd" d="M48 0q-.4 0-.8.007l-.245.004v.012C38.111.421 30.237 5.851 24.551 14.21a47 47 0 0 0-2.485 4.095h-11.78l-.075.095A48 48 0 0 0 9.009 20l-.284.394h12.273c-3.649 7.554-5.83 16.701-5.975 26.561H.011l-.004.245a49 49 0 0 0 0 1.6l.004.245h15.118c.144 9.86 2.317 19.007 5.951 26.561H8.725L9.01 76q.585.814 1.202 1.6l.074.095h11.86a47 47 0 0 0 2.48 4.103c5.662 8.353 13.501 13.784 22.31 14.19h.007a49 49 0 0 0 1.858.005l.245-.003v-.013c8.844-.398 16.718-5.828 22.404-14.187a47 47 0 0 0 2.485-4.095h11.78l.075-.095q.618-.787 1.203-1.6l.283-.394H75.002c3.648-7.554 5.83-16.701 5.975-26.561H95.99l.004-.245a50 50 0 0 0 0-1.6l-.004-.245H80.87c-.144-9.86-2.317-19.006-5.951-26.561h12.355L86.99 20q-.585-.814-1.202-1.6l-.074-.095h-11.86a47 47 0 0 0-2.48-4.103C65.715 5.852 57.882.423 49.078.012h-.007A49 49 0 0 0 48 0m1.045 18.305V2.102c7.934.397 15.204 5.31 20.6 13.272a45 45 0 0 1 1.822 2.93zm-22.766-2.92c5.415-7.961 12.71-12.874 20.676-13.27v16.19H24.456a45 45 0 0 1 1.823-2.92m-9.167 31.57c.15-9.977 2.45-19.148 6.217-26.561h23.626v26.561zm31.933 0V20.394H72.59c3.753 7.414 6.042 16.585 6.192 26.561zM23.41 75.606c-3.753-7.414-6.042-16.585-6.192-26.561h29.737v26.561zm25.635 0V49.045h29.843c-.15 9.977-2.45 19.148-6.217 26.561zm-22.69 5.02a45 45 0 0 1-1.822-2.93h22.422v16.202c-7.934-.398-15.204-5.31-20.6-13.272m22.69 13.259v-16.19h22.498a44 44 0 0 1-1.822 2.92c-5.415 7.961-12.71 12.874-20.676 13.27" clip-rule="evenodd"/><path fill="var(--illustration-gray)" d="M46.877 49.094H.012c.578 25.527 21.341 46.3 46.865 46.892zm2.102-2.201h46.865C95.266 21.365 74.502.593 48.979 0z"/><path fill="var(--illustration-white)" d="M49 72c-13.75 0-25-10.8-25-24s11.25-24 25-24zm0-48c12.65 0 23 10.8 23 24S61.65 72 49 72z"/><path fill="var(--illustration-accent-1)" d="M47.999 29.825c9.996 0 18.175 8.179 18.175 18.175s-8.179 18.175-18.175 18.175S29.824 57.996 29.824 48 38.003 29.825 48 29.825"/><path stroke="#000000" stroke-width="2" d="M48 36.163c6.508 0 11.837 5.33 11.837 11.838l-.004.303C59.67 54.674 54.407 59.837 48 59.837c-6.508 0-11.838-5.328-11.838-11.836 0-6.509 5.33-11.838 11.838-11.838Z"/><path fill="var(--illustration-invert)" d="M39.665 78.487 24.92 89.781v-7.81H0v-6.968h24.92v-7.81zM71.08 14.03H96v6.967H71.08v7.81L56.335 17.514 71.08 6.219z"/></svg>