<svg xmlns="http://www.w3.org/2000/svg" fill="none" viewBox="0 0 96 96"><g clip-path="url(#a)"><path fill="var(--illustration-gray)" d="M96 96V23.6H80V96h16Zm-24 0V23.6h-8V96h8Zm-16 0V23.6h-8V96h8ZM8 96V48H0v48h8Zm32 0V48l-16 9.46V96h16Z"/><path fill="var(--illustration-accent-1)" d="M72 0a24 24 0 1 0 0 48 24 24 0 0 0 0-48Z"/><circle cx="16" cy="16" r="17" stroke="var(--illustration-black)" stroke-width="2" transform="matrix(0 -1 -1 0 88 40)"/><path fill="var(--illustration-positive)" fill-rule="evenodd" d="M20 28a20 20 0 1 0 0 40 20 20 0 0 0 0-40Zm0 29.57A28.15 28.15 0 0 1 29.57 48 28.15 28.15 0 0 1 20 38.43 28.15 28.15 0 0 1 10.43 48 28.15 28.15 0 0 1 20 57.57Z" clip-rule="evenodd"/><path fill="var(--illustration-accent-2)" d="M16 12A12 12 0 0 0 28 0a12 12 0 0 0 12 12 12 12 0 0 0-12 12 12 12 0 0 0-12-12Z"/></g><defs><clipPath id="a"><path fill="var(--illustration-white)" d="M0 96V0h96v96z"/></clipPath></defs></svg>