<svg xmlns="http://www.w3.org/2000/svg" fill="none" viewBox="0 0 96 96"><path fill="var(--illustration-gray-2)" d="M80.033 32H.199v64h79.834V32Z"/><path fill="var(--illustration-primary)" d="M88.017 32H72.052v64h15.966V32Z"/><path fill="var(--illustration-positive)" d="M96 72H72.05c-4.391 0-7.984-3.6-7.984-8s3.593-8 7.984-8H96v16ZM.2 32 72.05 0v32H.2Z"/><path fill="var(--illustration-gray-2)" d="M32.433 79C41.015 79 47.9 72.2 47.9 63.9s-6.885-15.1-15.467-15.1-15.468 6.8-15.468 15.1S23.85 79 32.433 79Z"/><path fill="var(--illustration-white)" fill-rule="evenodd" d="M15.965 63.9c0-8.871 7.353-16.1 16.468-16.1S48.9 55.029 48.9 63.9c0 8.872-7.352 16.1-16.467 16.1-9.115 0-16.468-7.228-16.468-16.1Zm16.468-14.1c-8.05 0-14.468 6.372-14.468 14.1 0 7.729 6.418 14.1 14.468 14.1C40.482 78 46.9 71.629 46.9 63.9c0-7.728-6.418-14.1-14.467-14.1Z" clip-rule="evenodd"/><path fill="var(--illustration-white)" fill-rule="evenodd" d="M28.938 49.27c.928-.89 2.043-1.47 3.295-1.47 1.252 0 2.367.58 3.295 1.47.923.886 1.709 2.119 2.347 3.563 1.278 2.892 2.044 6.81 2.044 11.067 0 4.256-.766 8.175-2.044 11.067-.638 1.444-1.424 2.677-2.347 3.563-.928.89-2.043 1.47-3.295 1.47-1.235 0-2.333-.588-3.244-1.476-.908-.885-1.686-2.115-2.323-3.557-1.277-2.887-2.068-6.802-2.119-11.055V63.9c0-4.257.766-8.175 2.044-11.067.638-1.444 1.424-2.677 2.347-3.563Zm-2.391 14.624c.05 4.044.805 7.678 1.948 10.264.572 1.296 1.223 2.284 1.89 2.934.663.646 1.287.908 1.848.908.595 0 1.239-.27 1.91-.914.677-.649 1.331-1.635 1.903-2.928 1.142-2.583 1.873-6.215 1.873-10.258 0-4.044-.731-7.675-1.873-10.258-.572-1.293-1.226-2.28-1.903-2.928-.672-.644-1.316-.914-1.91-.914-.594 0-1.238.27-1.91.914-.677.649-1.332 1.635-1.903 2.928-1.141 2.582-1.872 6.21-1.873 10.252Z" clip-rule="evenodd"/><path fill="var(--illustration-white)" fill-rule="evenodd" d="M47.9 64.9H16.965v-2H47.9v2Z" clip-rule="evenodd"/><path fill="var(--illustration-white)" d="M71.451 61a2.97 2.97 0 0 1 3.493 3.5c-.2 1.2-1.198 2.1-2.395 2.4a2.97 2.97 0 0 1-3.493-3.5c.3-1.2 1.297-2.2 2.395-2.4Z"/><path fill="var(--illustration-primary)" d="M96 56h-7.982v16H96V56Z"/><path fill="var(--illustration-white)" fill-rule="evenodd" d="M.2 39h87.816v2H.2v-2Zm0 48h88.016v2H.199v-2Z" clip-rule="evenodd"/></svg>