<svg xmlns="http://www.w3.org/2000/svg" fill="none" viewBox="0 0 96 96"><path fill="var(--illustration-gray)" fill-rule="evenodd" d="M41.6 86.4V9.2h12.8v77.2z" clip-rule="evenodd"/><path fill="var(--illustration-gray)" fill-rule="evenodd" d="M48 96C21.49 96 0 74.51 0 48S21.49 0 48 0s48 21.49 48 48-21.49 48-48 48m0-12.8c-19.44 0-35.2-15.76-35.2-35.2S28.56 12.8 48 12.8 83.2 28.56 83.2 48 67.44 83.2 48 83.2" clip-rule="evenodd"/><path fill="var(--illustration-positive)" fill-rule="evenodd" d="M39.77 22.902c1.363-3.64 2.096-9.517 1.841-13.713l12.776-.778c.345 5.659-.531 13.375-2.63 18.98A41.6 41.6 0 0 1 28 51.524c-5.586 2.193-13.044 3.125-18.69 2.87l.578-12.787c4.217.19 9.83-.583 13.435-1.998a28.8 28.8 0 0 0 16.446-16.706" clip-rule="evenodd"/><path fill="var(--illustration-primary)" fill-rule="evenodd" d="M54.4 13.366c-.23 4.72-1.111 9.935-2.643 14.026A41.6 41.6 0 0 1 41.6 42.819V13.053a34 34 0 0 0 .012-3.853H54.4z" clip-rule="evenodd"/><path fill="var(--illustration-positive)" fill-rule="evenodd" d="M73.132 56.291c3.64-1.363 9.517-2.097 13.713-1.841l.778-12.777c-5.659-.344-13.375.532-18.98 2.631A41.6 41.6 0 0 0 44.51 68.061c-2.193 5.585-3.125 13.044-2.87 18.689l12.787-.577c-.19-4.218.583-9.83 1.998-13.435A28.8 28.8 0 0 1 73.132 56.29" clip-rule="evenodd"/><path fill="var(--illustration-positive)" d="M86.4 41.6h3.2v12.8h-3.2z"/><path fill="var(--illustration-primary)" fill-rule="evenodd" d="M41.6 82.6c.23-4.72 1.111-9.936 2.643-14.026A41.6 41.6 0 0 1 54.4 53.146v29.766a34 34 0 0 0-.012 3.852H41.6z" clip-rule="evenodd"/><path fill="var(--illustration-positive)" d="M6.4 41.6h4v12.8h-4z"/><path fill="var(--illustration-primary)" d="M54.4 86.4v3.2H41.6v-3.2zm0-80v3.2H41.6V6.4z"/><path fill="var(--illustration-invert)" d="M12.8 48A6.4 6.4 0 1 1 0 48a6.4 6.4 0 0 1 12.8 0M96 48a6.4 6.4 0 1 1-12.8 0A6.4 6.4 0 0 1 96 48M48 12.8A6.4 6.4 0 1 1 48 0a6.4 6.4 0 0 1 0 12.8M48 96a6.4 6.4 0 1 1 0-12.8A6.4 6.4 0 0 1 48 96"/></svg>