<svg xmlns="http://www.w3.org/2000/svg" fill="none" viewBox="0 0 97 97"><path fill="var(--illustration-gray)" d="M.009 42.42h24.239v2.033H.008V42.42Z"/><path fill="var(--illustration-primary)" d="M48.5 60.625c6.696 0 12.124-5.429 12.124-12.125S55.196 36.376 48.5 36.376c-6.696 0-12.125 5.428-12.125 12.124 0 6.696 5.429 12.125 12.125 12.125Z"/><path fill="var(--illustration-white)" d="M42.033 84.067a9.677 9.677 0 0 0-9.7 9.7c0-5.376-4.324-9.7-9.7-9.7 5.376 0 9.7-4.325 9.7-9.7 0 5.375 4.365 9.7 9.7 9.7Z"/><path fill="var(--illustration-gray)" fill-rule="evenodd" d="M42.443 24.253c-10.046 0-18.19 8.144-18.19 18.19H0C0 19.003 19.003 0 42.443 0h22.228v24.253H42.443Z" clip-rule="evenodd"/><path fill="var(--illustration-accent-1)" d="M64.677 0c-6.696 0-12.124 5.428-12.124 12.125 0 6.696 5.428 12.124 12.124 12.124 6.696 0 12.125-5.428 12.125-12.124C76.802 5.428 71.373 0 64.677 0Z"/><path fill="var(--illustration-positive)" d="M12.124 32.333C5.428 32.333 0 37.76 0 44.457 0 51.153 5.428 56.58 12.124 56.58c6.696 0 12.124-5.428 12.124-12.124 0-6.696-5.428-12.124-12.124-12.124Z"/><path fill="var(--illustration-black)" d="m41.226 4.028-1.429 1.428 5.456 5.457c-18.409.007-33.33 14.933-33.33 33.343v.202h2.02v-.202c0-17.294 14.017-31.315 31.31-31.323l-5.456 5.457 1.429 1.429 7.896-7.896-7.896-7.895Z"/><path fill="var(--illustration-primary)" fill-rule="evenodd" d="M0 44.457c0-6.696 5.429-12.124 12.125-12.124s12.124 5.428 12.124 12.124H.001Z" clip-rule="evenodd"/><path fill="var(--illustration-white)" d="M74.377 12.125a9.677 9.677 0 0 0-9.7 9.7c0-5.376-4.325-9.7-9.7-9.7 5.376 0 9.7-4.325 9.7-9.7 0 5.375 4.365 9.7 9.7 9.7Z"/><path fill="var(--illustration-gray)" fill-rule="evenodd" d="M54.556 72.747c10.047 0 18.19-8.144 18.19-18.19H97C97 77.997 77.997 97 54.556 97H32.33V72.747h22.227Z" clip-rule="evenodd"/><path fill="var(--illustration-accent-1)" d="M32.323 97c6.696 0 12.124-5.428 12.124-12.125 0-6.696-5.428-12.124-12.124-12.124-6.697 0-12.125 5.428-12.125 12.124C20.198 91.572 25.626 97 32.323 97Z"/><path fill="var(--illustration-positive)" d="M84.876 64.667C91.572 64.667 97 59.24 97 52.543c0-6.696-5.428-12.124-12.124-12.124-6.696 0-12.125 5.428-12.125 12.124 0 6.696 5.429 12.124 12.125 12.124Z"/><path fill="var(--illustration-black)" d="m47.879 85.077 7.895 7.895 1.43-1.428-5.457-5.457c18.41-.007 33.33-14.932 33.33-33.343v-.202h-2.02v.202c0 17.295-14.017 31.316-31.31 31.323l5.456-5.457-1.429-1.429-7.895 7.896Z"/><path fill="var(--illustration-primary)" fill-rule="evenodd" d="M97 52.543c0 6.696-5.429 12.124-12.125 12.124S72.751 59.24 72.751 52.543h24.248Z" clip-rule="evenodd"/><path fill="var(--illustration-white)" d="M22.623 84.876c5.375 0 9.7-4.325 9.7-9.7 0 5.375 4.324 9.7 9.7 9.7a9.677 9.677 0 0 0-9.7 9.7c0-5.376-4.365-9.7-9.7-9.7Z"/></svg>