<svg xmlns="http://www.w3.org/2000/svg" fill="none" viewBox="0 0 97 96"><path fill="var(--illustration-primary)" d="M51.2 25.6c0 14.123-11.477 25.6-25.6 25.6S0 39.723 0 25.6 11.477 0 25.6 0s25.6 11.477 25.6 25.6"/><path fill="var(--illustration-accent-2)" d="M70.4 25.6H25.6v44.8h44.8z"/><path fill="var(--illustration-gray)" d="M96 70.4C96 84.523 84.524 96 70.4 96c-14.122 0-25.6-11.477-25.6-25.6s11.478-25.6 25.6-25.6S96 56.277 96 70.4"/><path fill="var(--illustration-primary)" d="M89.6 70.4c0 10.628-8.57 19.2-19.2 19.2a19.17 19.17 0 0 1-19.2-19.2c0-10.629 8.572-19.2 19.2-19.2 10.63 0 19.2 8.571 19.2 19.2"/><path fill="var(--illustration-primary)" fill-rule="evenodd" d="M70.4 44.8c-14.122 0-25.6 11.477-25.6 25.6h25.6z" clip-rule="evenodd"/><path fill="var(--illustration-black)" fill-rule="evenodd" d="M70.4 51.2a19.17 19.17 0 0 0-19.2 19.2h19.2zm-44.8 0c14.122 0 25.6-11.477 25.6-25.6H25.6z" clip-rule="evenodd"/><path fill="var(--illustration-accent-1)" d="M25.6 6.4c-10.603 0-19.2 8.596-19.2 19.2s8.597 19.2 19.2 19.2 19.2-8.596 19.2-19.2S36.204 6.4 25.6 6.4"/><path fill="var(--illustration-primary)" fill-rule="evenodd" d="M44.8 25.6H25.6v19.2c10.603 0 19.2-8.596 19.2-19.2" clip-rule="evenodd"/><path fill="var(--illustration-accent-1)" d="m25.6 33.6-2.4-10.4 10.4 2.4z"/><path fill="var(--illustration-white)" d="M33.599 25.6v8h-8z"/><path fill="var(--illustration-accent-1)" d="M76.802 64a6.4 6.4 0 1 1-12.8 0 6.4 6.4 0 0 1 12.8 0"/><path fill="var(--illustration-primary)" fill-rule="evenodd" d="M70.402 57.6a6.4 6.4 0 0 0 0 12.8z" clip-rule="evenodd"/><path fill="var(--illustration-accent-1)" fill-rule="evenodd" d="M57.7 84.818q-.1-.796-.1-1.618c0-7.086 5.714-12.8 12.8-12.8a12.78 12.78 0 0 1 12.8 12.8q-.001.823-.101 1.618a19.14 19.14 0 0 1-12.7 4.782 19.14 19.14 0 0 1-12.7-4.782" clip-rule="evenodd"/></svg>