<svg xmlns="http://www.w3.org/2000/svg" fill="none" viewBox="0 0 96 96"><path fill="var(--illustration-accent-1)" d="M96 0H0v38.4h96V0Z"/><path fill="var(--illustration-primary)" d="M19.2 38.4a28.8 28.8 0 0 1 57.6 0H19.2Z"/><path fill="var(--illustration-gray)" fill-rule="evenodd" d="M63.838 54.24A22.4 22.4 0 0 0 70.4 38.4h6.4v2.152c0 4.584-3.172 12.452-7.047 17.483l-4.097 5.325c-3.77 4.895-7.89 13.692-8.055 19.84v3.2H38.4v-3.2c-.166-6.148-4.285-14.945-8.055-19.84l-4.098-5.325c-3.875-5.031-7.047-12.9-7.047-17.483V38.4h6.4a22.4 22.4 0 0 0 38.238 15.84Z" clip-rule="evenodd"/><path fill="var(--illustration-accent-1)" d="M25.6 38.4a22.4 22.4 0 0 1 44.799 0h-44.8Z"/><path fill="var(--illustration-primary)" d="M32 38.4a16 16 0 1 1 32 0H32Z"/><path fill="var(--illustration-accent-1)" d="M64 38.4a16 16 0 0 1-32 0h32Z"/><path fill="var(--illustration-primary)" d="M38.4 86.4a9.6 9.6 0 1 1 19.2 0H38.4Z"/><path fill="var(--illustration-accent-1)" d="M57.6 86.4a9.6 9.6 0 0 1-19.2 0h19.2Z"/><path fill="var(--illustration-black)" d="M53.32 43.647 48 38.326l-5.322 5.321 1.132 1.132 3.39-3.391V86.39h1.6v-45l3.389 3.389 1.131-1.132Z"/><path fill="var(--illustration-black)" fill-rule="evenodd" d="m86.39 42.491 3.199.073a42.325 42.325 0 0 0 0-1.928l-3.2.073-3.198.072a35.921 35.921 0 0 1 0 1.637l3.199.073Zm-10.617-27.41 2.314-2.21a41.762 41.762 0 0 0-1.359-1.358l-2.21 2.314-2.21 2.314c.392.375.776.759 1.151 1.151l2.314-2.21ZM48.891 3.212l.073-3.2a42.41 42.41 0 0 0-1.928 0l.073 3.2.073 3.198a36.03 36.03 0 0 1 1.637 0l.072-3.199Zm-30.978 9.66a40.47 40.47 0 0 1 1.359-1.358l2.21 2.314 2.21 2.314a36.74 36.74 0 0 0-1.151 1.151l-2.314-2.21-2.314-2.21ZM6.4 41.6c0-.322.004-.644.011-.964l3.2.073 3.198.072a35.921 35.921 0 0 0 0 1.637l-3.199.073-3.199.073a44.13 44.13 0 0 1-.01-.964Zm13.827 26.518-2.314 2.21c.442.463.895.916 1.359 1.36l2.21-2.315 2.21-2.314a35.602 35.602 0 0 1-1.151-1.151l-2.314 2.21Zm54.291 1.255 2.21 2.314c.464-.442.917-.896 1.36-1.359l-2.315-2.21-2.314-2.21a35.66 35.66 0 0 1-1.151 1.15l2.21 2.315Z" clip-rule="evenodd"/></svg>