<svg xmlns="http://www.w3.org/2000/svg" fill="none" viewBox="0 0 96 96"><g clip-path="url(#a)"><path fill="var(--illustration-gray)" d="M0 0h96v27.43H0z"/><path fill="var(--illustration-gray)" d="M8 13.71h80V96H8V13.71Z"/><path fill="var(--illustration-primary)" d="M8 0h80v27.43H8z"/><path fill="var(--illustration-accent-1)" d="M17.63 68.99h21.32v16.64H17.63V69Z"/><path fill="var(--illustration-black)" fill-rule="evenodd" d="M16.27 32.2h63.46v55.66H16.27V32.2Zm2 2v51.66h59.46V34.2H18.27Z" clip-rule="evenodd"/><path fill="var(--illustration-accent-1)" d="M57.07 50.84h21.66V67.5H57.07V50.84Z"/><path fill="var(--illustration-black)" fill-rule="evenodd" d="M16.27 49.65h63.46v19.56H16.27V49.65Zm2 2v15.56h59.46V51.65H18.27Z" clip-rule="evenodd"/><path fill="var(--illustration-black)" fill-rule="evenodd" d="M37.93 32.2h20.14v55.66H37.93V32.2Zm2 2v51.66h16.14V34.2H39.93Z" clip-rule="evenodd"/><path fill="var(--illustration-black)" d="M16 6.86h64v13.71H16z"/></g><defs><clipPath id="a"><path fill="var(--illustration-white)" d="M0 0h96v96H0z"/></clipPath></defs></svg>