<svg xmlns="http://www.w3.org/2000/svg" fill="none" viewBox="0 0 96 96"><g clip-path="url(#a)"><path fill="var(--illustration-gray)" d="M0 0h96v27.43H0z"/><path fill="var(--illustration-gray)" d="M8 13.714h80V96H8z"/><path fill="var(--illustration-primary)" d="M8 0h80v27.43H8z"/><path fill="var(--illustration-accent-1)" d="M17.63 68.99h21.315v16.641H17.631z"/><path fill="var(--illustration-black)" fill-rule="evenodd" d="M16.272 32.195H79.73v55.662H16.272zm2 2v51.662H77.73V34.195z" clip-rule="evenodd"/><path fill="var(--illustration-accent-1)" d="M57.066 50.844h21.665v16.641H57.066z"/><path fill="var(--illustration-black)" fill-rule="evenodd" d="M16.272 49.65H79.73v19.556H16.272zm2 2v15.556H77.73V51.651z" clip-rule="evenodd"/><path fill="var(--illustration-black)" fill-rule="evenodd" d="M37.932 32.195h20.134v55.662H37.932zm2 2v51.662h16.134V34.195z" clip-rule="evenodd"/><path fill="var(--illustration-black)" d="M16 6.86h64v13.71H16z"/></g><defs><clipPath id="a"><path fill="var(--illustration-white)" d="M0 0h96v96H0z"/></clipPath></defs></svg>