<svg xmlns="http://www.w3.org/2000/svg" fill="none" viewBox="0 0 96 96"><g clip-path="url(#a)"><path fill="var(--illustration-primary)" d="M95.892 0H21.66v43.636h74.232z"/><path fill="var(--illustration-gray)" d="M21.769 43.636c12.022 0 21.769-9.768 21.769-21.818S33.79 0 21.768 0 0 9.768 0 21.818s9.746 21.818 21.769 21.818"/><path fill="var(--illustration-black)" d="M43.429 21.818C43.429 9.818 33.742 0 21.66 0v43.636c12.082 0 21.769-9.709 21.769-21.818"/><path fill="var(--illustration-gray)" d="M.07 96H74.3V52.364H.07z"/><path fill="var(--illustration-primary)" d="M74.232 96C86.254 96 96 86.23 96 74.182s-9.747-21.819-21.77-21.819-21.768 9.769-21.768 21.819S62.209 96 74.232 96"/><path fill="var(--illustration-black)" d="M52.57 74.182c0 12 9.687 21.818 21.77 21.818V52.363c-12.083 0-21.77 9.71-21.77 21.819"/><path fill="#8E76FF" d="M21.768 37.2c8.598 0 15.565-6.982 15.565-15.6S30.367 6 21.768 6 6.203 13.09 6.203 21.71c0 8.617 6.966 15.49 15.565 15.49"/><path fill="var(--illustration-white)" d="M21.768 9.382c6.748 0 12.3 5.564 12.3 12.327 0 6.764-5.552 12.328-12.3 12.328s-12.3-5.564-12.3-12.328 5.552-12.327 12.3-12.327m0-3.273c-8.599 0-15.565 6.982-15.565 15.6 0 8.619 6.966 15.491 15.565 15.491s15.565-6.982 15.565-15.6S30.367 6.11 21.768 6.11"/><path fill="var(--illustration-white)" fill-opacity=".6" d="M21.77 10.036v8.291l6.748 3.164z"/><path fill="var(--illustration-white)" d="M21.768 10.036 15.02 21.382l6.748-3.164z"/><path fill="var(--illustration-white)" fill-opacity=".6" d="M21.77 26.728v5.563l6.857-9.709z"/><path fill="var(--illustration-white)" d="M21.768 32.4v-5.673L15.02 22.69z"/><path fill="var(--illustration-white)" fill-opacity=".2" d="m21.77 25.418 6.748-4.036-6.748-3.164z"/><path fill="var(--illustration-white)" fill-opacity=".6" d="m15.02 21.382 6.748 4.036v-7.2z"/><path fill="var(--illustration-white)" d="M74.23 89.891c8.597 0 15.566-6.984 15.566-15.6s-6.97-15.6-15.565-15.6c-8.596 0-15.565 6.984-15.565 15.6s6.969 15.6 15.565 15.6"/><path fill="var(--illustration-white)" d="M89.796 74.29c0 8.62-6.967 15.601-15.565 15.601-8.599 0-15.565-6.982-15.565-15.6s6.966-15.6 15.565-15.6c8.598.109 15.565 6.982 15.565 15.6"/><path fill="var(--illustration-accent-4)" d="M74.232 61.855 67 74l7.231-3z"/><path fill="var(--illustration-primary)" d="M74.23 79.746v6l7.293-10.364z"/><path fill="var(--illustration-accent-4)" d="M74.232 85.746v-6l-7.293-4.364zm-.002-7.419 7.293-4.363-7.292-3.273z"/><path fill="var(--illustration-accent-4)" fill-opacity=".6" d="m67 74 7.34 4.436V70.5z"/><path stroke="var(--illustration-black)" stroke-width="2" d="M54.313 21.818h32.762m-26.667 6.546-6.422-6.546 6.422-6.436M41.251 74.291H8.707m26.449-6.436 6.422 6.436-6.422 6.545"/><path fill="var(--illustration-primary)" d="M74.23 61.855V71l7.293 2.964z"/></g><defs><clipPath id="a"><path fill="var(--illustration-white)" d="M0 0h96v96H0z"/></clipPath></defs></svg>