<svg xmlns="http://www.w3.org/2000/svg" fill="none" viewBox="0 0 96 96"><path fill="var(--illustration-gray)" d="M16 32h64v32H16V32Z"/><path fill="var(--illustration-positive)" d="M80 64c0 17.673-14.327 32-32 32-17.673 0-32-14.327-32-32 0-17.673 14.327-32 32-32 17.673 0 32 14.327 32 32Z"/><path fill="var(--illustration-accent-1)" d="M80 32c0 17.673-14.327 32-32 32-17.673 0-32-14.327-32-32C16 14.327 30.327 0 48 0c17.673 0 32 14.327 32 32Z"/><path fill="var(--illustration-white)" d="M75 32c0 14.912-12.088 27-27 27S21 46.912 21 32 33.088 5 48 5s27 12.088 27 27Z"/><path fill="var(--illustration-primary)" d="M48 56c13.255 0 24-10.745 24-24S61.255 8 48 8 24 18.745 24 32s10.745 24 24 24Z"/><path fill="var(--illustration-accent-2)" d="M47.998 14.4v12.605l10.496 4.761L47.998 14.4Z"/><path fill="var(--illustration-white)" d="M47.997 14.4 37.5 31.766l10.497-4.76V14.4Z"/><path fill="var(--illustration-accent-2)" d="M47.998 39.935V48.5l10.503-14.75-10.503 6.185Z"/><path fill="var(--illustration-white)" d="M47.997 48.5v-8.567L37.5 33.75 47.997 48.5Z"/><path fill="var(--illustration-accent-4)" d="m47.998 37.952 10.496-6.186-10.496-4.758v10.944Z"/><path fill="var(--illustration-accent-2)" d="m37.5 31.766 10.497 6.186V27.008L37.5 31.766Z"/><path fill="var(--illustration-primary)" d="M20.281 80c5.533-9.565 15.875-16 27.72-16 11.844 0 22.185 6.435 27.718 16C70.186 89.565 59.845 96 48 96c-11.844 0-22.186-6.435-27.719-16Z"/></svg>