<svg xmlns="http://www.w3.org/2000/svg" fill="none" viewBox="0 0 96 96"><path fill="var(--illustration-gray)" d="M16 32h64v32H16V32Z"/><path fill="var(--illustration-positive)" d="M80 64a32 32 0 1 1-64 0 32 32 0 0 1 64 0Z"/><path fill="var(--illustration-accent-1)" d="M80 32a32 32 0 1 1-64 0 32 32 0 0 1 64 0Z"/><path fill="var(--illustration-white)" d="M75 32a27 27 0 1 1-54 0 27 27 0 0 1 54 0Z"/><path fill="var(--illustration-primary)" d="M48 56a24 24 0 1 0 0-48 24 24 0 0 0 0 48Z"/><path fill="var(--illustration-accent-2)" d="M48 14.4V27l10.5 4.77L48 14.4Z"/><path fill="var(--illustration-white)" d="M48 14.4 37.5 31.77 48 27V14.4Z"/><path fill="var(--illustration-accent-2)" d="M48 39.93v8.57l10.5-14.75L48 39.93Z"/><path fill="var(--illustration-white)" d="M48 48.5v-8.57l-10.5-6.18L48 48.5Z"/><path fill="var(--illustration-accent-4)" d="m48 37.95 10.5-6.18L48 27v10.94Z"/><path fill="var(--illustration-accent-2)" d="M37.5 31.77 48 37.95V27.01l-10.5 4.76Z"/><path fill="var(--illustration-primary)" d="M20.28 80a31.99 31.99 0 0 1 55.44 0 31.99 31.99 0 0 1-55.44 0Z"/></svg>