<svg xmlns="http://www.w3.org/2000/svg" fill="none" viewBox="0 0 96 96"><path fill="var(--illustration-gray)" d="M0 8h72v48H0V8Z"/><path fill="var(--illustration-black)" fill-rule="evenodd" d="M21.044 69.973V34H19v38h23v-2.027H21.044Z" clip-rule="evenodd"/><path fill="var(--illustration-accent-1)" d="M96 68c0 15.464-12.536 28-28 28S40 83.464 40 68s12.536-28 28-28 28 12.536 28 28Z"/><path fill="var(--illustration-accent-1)" d="M96 68c0 15.464-12.536 28-28 28S40 83.464 40 68s12.536-28 28-28 28 12.536 28 28Z"/><path fill="var(--illustration-primary)" d="M72 40.284V56H42.695C47.188 46.54 56.83 40 68 40c1.358 0 2.694.097 4 .284Z"/><path fill="var(--illustration-gray)" d="M17.5 0 11 8h26l-6.5-8h-13Z"/><path fill="var(--illustration-black)" fill-rule="evenodd" d="M68 50.105c-9.883 0-17.895 8.012-17.895 17.895S58.117 85.895 68 85.895 85.895 77.883 85.895 68 77.883 50.105 68 50.105ZM48 68c0-11.046 8.954-20 20-20s20 8.954 20 20-8.954 20-20 20-20-8.954-20-20Z" clip-rule="evenodd"/><path fill="var(--illustration-black)" fill-rule="evenodd" d="M73.818 71.091a1.636 1.636 0 1 0 0 3.273 1.636 1.636 0 0 0 0-3.273ZM70 72.727a3.818 3.818 0 1 1 7.636 0 3.818 3.818 0 0 1-7.636 0Zm-8.182-12.545a1.636 1.636 0 1 0 0 3.272 1.636 1.636 0 0 0 0-3.272ZM58 61.818a3.818 3.818 0 1 1 7.636 0 3.818 3.818 0 0 1-7.636 0Zm19-2.229L59.589 77 58 75.411 75.411 58 77 59.589ZM20 32l10 10.54L28.614 44 20 34.92 11.386 44 10 42.54 20 32Z" clip-rule="evenodd"/></svg>