<svg xmlns="http://www.w3.org/2000/svg" fill="none" viewBox="0 0 96 96"><path fill="var(--illustration-gray)" d="M0 8h72v48H0z"/><path fill="var(--illustration-black)" fill-rule="evenodd" d="M21.044 69.974V34H19v38h23v-2.027z" clip-rule="evenodd"/><path fill="var(--illustration-accent-1)" d="M95.999 68c0 15.464-12.536 28-28 28-15.463 0-28-12.536-28-28s12.536-28 28-28 28 12.536 28 28"/><path fill="var(--illustration-accent-1)" d="M95.999 68c0 15.464-12.536 28-28 28-15.463 0-28-12.536-28-28s12.536-28 28-28 28 12.536 28 28"/><path fill="var(--illustration-primary)" d="M72 40.284V56H42.695C47.189 46.54 56.83 40 68 40q2.039.002 4 .284"/><path fill="var(--illustration-gray)" d="m17.5.001-6.5 8h26l-6.5-8z"/><path fill="var(--illustration-black)" fill-rule="evenodd" d="M68 50.106c-9.884 0-17.895 8.011-17.895 17.894s8.011 17.895 17.894 17.895S85.894 77.883 85.894 68s-8.012-17.894-17.895-17.894M48 68c0-11.045 8.954-20 20-20s20 8.955 20 20-8.955 20-20 20-20-8.954-20-20" clip-rule="evenodd"/><path fill="var(--illustration-black)" fill-rule="evenodd" d="M73.817 71.091a1.636 1.636 0 1 0 0 3.273 1.636 1.636 0 0 0 0-3.273M70 72.728a3.818 3.818 0 1 1 7.636 0 3.818 3.818 0 0 1-7.636 0m-8.182-12.546a1.636 1.636 0 1 0 0 3.273 1.636 1.636 0 0 0 0-3.273m-3.819 1.636a3.818 3.818 0 1 1 7.637 0 3.818 3.818 0 0 1-7.637 0M77 59.589 59.587 77l-1.589-1.588L75.411 58zM20 32l10 10.54L28.614 44 20 34.922l-8.615 9.08L10 42.54z" clip-rule="evenodd"/></svg>