<svg xmlns="http://www.w3.org/2000/svg" fill="none" viewBox="0 0 96 96"><g clip-path="url(#a)"><path fill="var(--illustration-gray)" d="M33.45 5.12 75.2 46.86 46.97 75.08 5.23 33.34 33.45 5.12Z"/><path fill="var(--illustration-positive)" d="M0 56h96v24H0V56Z"/><path fill="var(--illustration-primary)" fill-rule="evenodd" d="M68.64 56 48.28 76.35 27.93 56h40.7Z" clip-rule="evenodd"/><path fill="var(--illustration-accent-1)" d="M80 60a20 20 0 1 1-40 0 20 20 0 0 1 40 0Z"/><circle cx="20" cy="19.87" r="20" fill="var(--illustration-gray)"/><path fill="var(--illustration-accent-1)" d="M72 60a12 12 0 1 1-24 0 12 12 0 0 1 24 0Z"/><path fill="var(--illustration-black)" fill-rule="evenodd" d="M60 70a10 10 0 1 0 0-20 10 10 0 0 0 0 20Zm0 2a12 12 0 1 0 0-24 12 12 0 0 0 0 24Z" clip-rule="evenodd"/><path fill="var(--illustration-invert)" d="m62.48 60.27-43.6-43.6-1.41 1.42 43.7 43.7h-7.1v2h10.41V53.77h-2v6.5Z"/><path fill="var(--illustration-gray)" d="M0 80h96v16H0V80Z"/></g><defs><clipPath id="a"><path fill="var(--illustration-white)" d="M0 0h96v96H0z"/></clipPath></defs></svg>