<svg xmlns="http://www.w3.org/2000/svg" fill="none" viewBox="0 0 96 96"><g clip-path="url(#a)"><path fill="var(--illustration-gray)" d="M33.453 5.124 75.19 46.86 46.97 75.078 5.235 33.342z"/><path fill="var(--illustration-positive)" d="M0 56h96v24H0z"/><path fill="var(--illustration-primary)" fill-rule="evenodd" d="m68.635 56-20.35 20.35L27.933 56z" clip-rule="evenodd"/><path fill="var(--illustration-accent-1)" d="M80 60c0 11.046-8.954 20-20 20s-20-8.954-20-20 8.954-20 20-20 20 8.954 20 20"/><circle cx="20" cy="19.87" r="20" fill="var(--illustration-gray)"/><path fill="var(--illustration-accent-1)" d="M72 60c0 6.627-5.373 12-12 12s-12-5.373-12-12c0-6.628 5.373-12 12-12s12 5.372 12 12"/><path fill="var(--illustration-black)" fill-rule="evenodd" d="M60 70c5.523 0 10-4.478 10-10s-4.477-10-10-10-10 4.477-10 10 4.477 10 10 10m0 2c6.627 0 12-5.373 12-12 0-6.628-5.373-12-12-12s-12 5.372-12 12c0 6.627 5.373 12 12 12" clip-rule="evenodd"/><path fill="var(--illustration-invert)" d="M62.485 60.272 18.883 16.671l-1.414 1.414 43.709 43.709h-7.109v2h10.412v-.25h.006l-.007-9.77-2 .002z"/><path fill="var(--illustration-gray)" d="M0 80h96v16H0z"/></g><defs><clipPath id="a"><path fill="var(--illustration-white)" d="M0 0h96v96H0z"/></clipPath></defs></svg>