<svg xmlns="http://www.w3.org/2000/svg" fill="none" viewBox="0 0 97 97"><path fill="var(--illustration-gray)" d="M16.097 52.396h56.34v44.267h-56.34V52.396Z"/><path fill="var(--illustration-accent-1)" d="M64.389 52.396c0 11.113-9.009 20.122-20.122 20.122-11.112 0-20.121-9.01-20.121-20.122 0-11.113 9.009-20.121 20.121-20.121 11.113 0 20.122 9.008 20.122 20.121Z"/><path fill="var(--illustration-primary)" d="M44.267 72.518c11.113 0 20.122-9.01 20.122-20.122H24.146c0 11.113 9.009 20.122 20.121 20.122Z"/><path fill="var(--illustration-gray)" d="M0 20.203 61.114 4.03l3.275 12.07L3.275 32.274 0 20.203Z"/><path fill="var(--illustration-black)" fill-rule="evenodd" d="M10.996 9.708a3.836 3.836 0 0 1 3.98-1.715l15.792 3.06-.056 2.135-15.934 2.237c-3.205.45-5.487-2.998-3.782-5.717Zm3.558.41a1.632 1.632 0 0 0-1.694.73c-.725 1.157.246 2.624 1.61 2.433l9.512-1.336-9.428-1.827Z" clip-rule="evenodd"/><path fill="var(--illustration-black)" fill-rule="evenodd" d="M46.318.512a3.907 3.907 0 0 0-4.313.492L29.846 11.335l1.12 1.786 14.94-5.899c3.006-1.187 3.254-5.234.412-6.71Zm-2.88 2.09a1.663 1.663 0 0 1 1.835-.208c1.21.628 1.104 2.35-.175 2.855l-8.92 3.522 7.26-6.168Z" clip-rule="evenodd"/><path fill="var(--illustration-black)" fill-rule="evenodd" d="m32.772 24.468-3.275-12.071 2.118-.56 3.275 12.07-2.118.561Zm10.523 70.337.039-42.403 2.003-.004-.04 42.403-2.002.004Z" clip-rule="evenodd"/><path fill="var(--illustration-black)" fill-rule="evenodd" d="m44.267 93.385-7.632-8.794-1.422 1.639 9.054 10.433 9.055-10.433-1.422-1.64-7.633 8.795Z" clip-rule="evenodd"/><path fill="var(--illustration-positive)" d="M96.583 40.322a8.048 8.048 0 0 0-8.047 8.05 8.049 8.049 0 0 0-8.05-8.05 8.049 8.049 0 0 0 8.05-8.047 8.047 8.047 0 0 0 8.047 8.047Z"/><path fill="var(--illustration-accent-2)" d="M78.474 24.225a6.036 6.036 0 0 0-6.036 6.037 6.037 6.037 0 0 0-6.037-6.037 6.037 6.037 0 0 0 6.037-6.036 6.035 6.035 0 0 0 6.036 6.036Z"/><circle cx="44.27" cy="52.4" r="15.1" stroke="var(--illustration-black)" stroke-width="2"/></svg>