<svg xmlns="http://www.w3.org/2000/svg" fill="none" viewBox="0 0 96 97"><path fill="var(--illustration-gray)" d="M16 52.002h56v44H16v-44Z"/><path fill="var(--illustration-accent-1)" d="M64 52.002c0 11.045-8.954 20-20 20s-20-8.955-20-20c0-11.046 8.954-20 20-20s20 8.954 20 20Z"/><path fill="var(--illustration-primary)" d="M44 72.001c11.046 0 20-8.954 20-20H24c0 11.046 8.954 20 20 20Z"/><path fill="var(--illustration-gray)" d="M0 20.003 60.745 3.928 64 15.926 3.255 32.001 0 20.003Z"/><path fill="var(--illustration-black)" fill-rule="evenodd" d="M10.93 9.571a3.813 3.813 0 0 1 3.956-1.704l15.697 3.042-.057 2.122-15.837 2.223c-3.186.447-5.454-2.98-3.76-5.683Zm3.536.408a1.623 1.623 0 0 0-1.683.726c-.721 1.15.244 2.608 1.6 2.418l9.454-1.328-9.37-1.816Z" clip-rule="evenodd"/><path fill="var(--illustration-black)" fill-rule="evenodd" d="M46.037.431a3.884 3.884 0 0 0-4.286.488L29.666 11.19l1.113 1.775L45.63 7.1c2.987-1.18 3.234-5.202.408-6.669ZM43.175 2.51a1.653 1.653 0 0 1 1.824-.208c1.202.625 1.097 2.336-.174 2.838l-8.865 3.5 7.215-6.13Z" clip-rule="evenodd"/><path fill="var(--illustration-black)" fill-rule="evenodd" d="m32.573 24.242-3.255-11.998 2.105-.557 3.256 11.998-2.106.557Zm10.46 69.913.04-42.147 1.99-.004-.038 42.147-1.992.004Z" clip-rule="evenodd"/><path fill="var(--illustration-black)" fill-rule="evenodd" d="m44 92.743-7.586-8.742L35 85.631 44 96l9-10.37L51.586 84 44 92.743Z" clip-rule="evenodd"/><path fill="var(--illustration-positive)" d="M96 40a8 8 0 0 0-8 8.002A8 8 0 0 0 80 40a8 8 0 0 0 8-8 8 8 0 0 0 8 8Z"/><path fill="var(--illustration-accent-2)" d="M78 24a6 6 0 0 0-6 6.002A6 6 0 0 0 66 24a6 6 0 0 0 6-6 6 6 0 0 0 6 6Z"/><circle cx="44" cy="52" r="15" stroke="var(--illustration-black)" stroke-width="2"/></svg>