<svg xmlns="http://www.w3.org/2000/svg" fill="none" viewBox="0 0 96 96"><path fill="var(--illustration-gray)" d="M83.2 25.6H38.4v57.6h44.8V25.6Z"/><path fill="var(--illustration-invert)" d="M38.4 25.6V12.8l44.8 12.8H38.4Z"/><path fill="var(--illustration-accent-1)" d="M35.2 76.8a22.4 22.4 0 1 0 0-44.8 22.4 22.4 0 0 0 0 44.8Z"/><path fill="var(--illustration-primary)" d="M38.4 32.24v44.32A22.35 22.35 0 0 0 57.6 54.4a22.35 22.35 0 0 0-19.2-22.16Z"/><path fill="var(--illustration-white)" d="M76.8 38.4a6.42 6.42 0 0 0-6.4 6.4c0-3.52-2.88-6.4-6.4-6.4 3.52 0 6.4-2.88 6.4-6.4 0 3.52 2.88 6.4 6.4 6.4Z"/><path fill="var(--illustration-black)" d="M35.2 71.2a16.8 16.8 0 1 1 0-33.6 16.8 16.8 0 0 1 0 33.6Zm0-32a15.2 15.2 0 1 0-.02 30.39 15.2 15.2 0 0 0 .02-30.39Z"/><path fill="var(--illustration-black)" d="M52 54.4c0-8.16-5.84-14.96-13.6-16.48v1.6a15.2 15.2 0 0 1 12 14.88c0 7.28-5.12 13.36-12 14.88v1.6A16.82 16.82 0 0 0 52 54.4Z"/></svg>