<svg xmlns="http://www.w3.org/2000/svg" fill="none" viewBox="0 0 97 96"><path fill="var(--illustration-gray)" d="M48 96C21.6 96 0 74.4 0 48S21.6 0 48 0z"/><path fill="var(--illustration-primary)" d="M48 76.8H10.5L4.8 68 1.6 57.6H48z"/><path fill="var(--illustration-positive)" d="M48 19.2h37.5l5.3 9.6 3.6 9.6H48z"/><path fill="var(--illustration-black)" fill-rule="evenodd" d="M48 0c-8.1 0-15.2 5.6-20.3 14.3-5 8.6-8.1 20.5-8.2 33.5v.2c0 13.1 3.1 25 8.2 33.7 5 8.6 12.1 14.2 20.1 14.3h.2c8.1 0 15.2-5.6 20.3-14.3 5-8.6 8.1-20.5 8.2-33.5V48c0-13.1-3.1-25-8.2-33.7C63.3 5.8 56.3.1 48.2 0zM29.5 15.3C34.3 7.1 40.8 2.2 47.8 2.1c7.1 0 13.9 5 18.8 13.3 4.8 8.2 7.9 19.7 7.9 32.4v.2c0 6.8-.9 13.3-2.4 19.1L24.6 26.7c1.3-4.2 3-8.1 4.9-11.4m0 65.3c-4.8-8.2-7.9-19.7-7.9-32.4V48c0-6.8.9-13.3 2.4-19.1l47.3 40.4c-1.3 4.2-2.9 8-4.9 11.4-4.8 8.2-11.3 13.1-18.2 13.2-7 0-13.8-5-18.7-13.3" clip-rule="evenodd"/><path fill="var(--illustration-primary)" d="M38.4 28.8c0 7.1-5.7 12.8-12.8 12.8s-12.8-5.7-12.8-12.8S18.5 16 25.6 16s12.8 5.7 12.8 12.8"/><path fill="var(--illustration-primary)" d="M31.2 19.2H48v19.2H31.2z"/><path fill="var(--illustration-black)" fill-rule="evenodd" d="M48 0C21.5 0 0 21.5 0 48s21.5 48 48 48 48-21.5 48-48S74.5 0 48 0M2.1 48C2.1 22.6 22.6 2.1 48 2.1S93.9 22.6 93.9 48 73.4 93.9 48 93.9 2.1 73.4 2.1 48" clip-rule="evenodd"/><path fill="var(--illustration-black)" fill-rule="evenodd" d="M51.1 93.8c-1 .1-2.1.1-3.1.1C22.6 93.9 2.1 73.4 2.1 48S22.6 2.1 48 2.1h1.4c.1-.7.1-1.4.2-2.1H48C21.5 0 0 21.5 0 48s21.5 48 48 48c1.1 0 2.2 0 3.3-.1-.1-.7-.1-1.4-.2-2.1" clip-rule="evenodd"/><path fill="var(--illustration-invert)" fill-rule="evenodd" d="M48.4 0H48v2.1c7 .1 13.7 5.1 18.5 13.3s7.9 19.7 7.9 32.4v.2c0 6.8-.9 13.3-2.4 19.1L48 46.6v2.8l23.4 19.9c-1.3 4.2-2.9 8.1-4.9 11.4-4.8 8.2-11.3 13.1-18.2 13.2h-.1c-.1.6-.1 1.2-.2 1.8v.3c26.5 0 48-21.5 48-48C96 21.6 74.7.3 48.4 0m10 92.7c3.8-2.5 7.2-6.3 9.9-11 5-8.6 8.1-20.5 8.2-33.5V48c0-13.1-3.1-25-8.2-33.7-2.8-4.7-6.2-8.6-10-11.1C78.7 8 93.9 26.2 93.9 48S78.7 88 58.4 92.7" clip-rule="evenodd"/><path fill="var(--illustration-accent-1)" d="M57.6 67.2c0-7.1 5.7-12.8 12.8-12.8s12.8 5.7 12.8 12.8S77.5 80 70.4 80s-12.8-5.7-12.8-12.8"/><path fill="var(--illustration-accent-1)" d="M64.8 76.8H48V57.6h16.8z"/></svg>