<svg xmlns="http://www.w3.org/2000/svg" fill="none" viewBox="0 0 96 96"><g clip-path="url(#a)"><path fill="var(--illustration-gray)" d="M0 16h96v72H55.552c-4.265.585-7.553 3.491-7.553 8 0-4.509-3.288-7.415-7.551-8H0V16Z"/><path fill="var(--illustration-primary)" d="M48 96V16h48v72H55.552c-4.225.58-7.49 3.542-7.552 8Z"/><path fill="var(--illustration-accent-1)" d="M32 16c0-8.837 7.163-16 16-16s16 7.163 16 16-7.163 16-16 16-16-7.163-16-16Z"/><path fill="var(--illustration-primary)" d="M64 16H32c0 8.837 7.163 16 16 16s16-7.163 16-16Z"/><path fill="var(--illustration-black)" d="M48 16v16c8.837 0 16-7.163 16-16H48Z"/><path fill="var(--illustration-white)" d="M47.999 28c0-6.628 4.925-11.999 11.001-11.999-6.076 0-11.001-5.373-11.001-12.001 0 6.629-4.925 12.001-10.999 12.001 6.074 0 10.999 5.37 10.999 11.999Z"/><path fill="var(--illustration-black)" fill-rule="evenodd" d="M8 74h32v2H8v-2Zm0-14h32v2H8v-2Zm0-14h32v2H8v-2Zm0-14h17v2H8v-2Zm80 42H56v2h32v-2Zm0-14H56v2h32v-2Zm0-14H56v2h32v-2Zm0-14H71v2h17v-2Z" clip-rule="evenodd"/></g><defs><clipPath id="a"><path fill="var(--illustration-white)" d="M0 0h96v96H0z"/></clipPath></defs></svg>