<svg xmlns="http://www.w3.org/2000/svg" fill="none" viewBox="0 0 96 96"><path fill="var(--illustration-gray)" d="M12.8 25.6h70.4v51.2H53.54A6.4 6.4 0 0 0 48 83.142a6.4 6.4 0 0 0-5.538-6.342H12.801V25.6Z"/><path fill="var(--illustration-primary)" d="M48 83.05V25.6h35.2v51.2H53.538A6.4 6.4 0 0 0 48 83.05Z"/><path fill="var(--illustration-accent-1)" d="M35.191 25.78c0-7.073 5.734-12.807 12.808-12.807 7.073 0 12.807 5.734 12.807 12.808 0 7.073-5.734 12.807-12.807 12.807-7.074 0-12.808-5.734-12.808-12.807Z"/><path fill="var(--illustration-primary)" fill-rule="evenodd" d="M35.192 25.715v.066c0 7.073 5.733 12.807 12.807 12.807 7.073 0 12.807-5.734 12.807-12.807v-.066H35.192Z" clip-rule="evenodd"/><path fill="var(--illustration-black)" fill-rule="evenodd" d="M48 38.588V25.715h12.807v.066c0 7.073-5.734 12.807-12.807 12.807Z" clip-rule="evenodd"/><path fill="var(--illustration-white)" d="M48 35.315c0-5.303 4.298-9.599 9.6-9.599a9.6 9.6 0 0 1-9.6-9.601c0 5.303-4.299 9.601-9.6 9.601 5.301 0 9.6 4.296 9.6 9.599Z"/><path fill="var(--illustration-black)" fill-rule="evenodd" d="M19.2 66.26h22.4v1.6H19.2v-1.6Zm35.2 0h22.4v1.6H54.4v-1.6Zm-35.2-9.6h22.4v1.6H19.2v-1.6Zm35.2 0h22.4v1.6H54.4v-1.6Zm-35.2-9.6h22.4v1.6H19.2v-1.6Zm35.2 0h22.4v1.6H54.4v-1.6Zm-35.2-9.412H32v1.6H19.2v-1.6Zm44.8 0h12.8v1.6H64v-1.6Z" clip-rule="evenodd"/></svg>