<svg xmlns="http://www.w3.org/2000/svg" fill="none" viewBox="0 0 96 96"><path fill="var(--illustration-gray)" d="M96 0 48 48 0 96h96V0Z"/><path fill="var(--illustration-positive)" d="M24 56H8v32h16V56Z"/><path fill="var(--illustration-primary)" d="M8 88h16V72L8 88Z"/><path fill="var(--illustration-positive)" d="M56 32H40v32h16V32Z"/><path fill="var(--illustration-primary)" d="M40 56v8h16V40L40 56Z"/><path fill="var(--illustration-positive)" d="M88 8H72v32h16V8Z"/><path fill="var(--illustration-primary)" d="M72 24v16h16V8L72 24Z"/><path fill="var(--illustration-black)" d="M17 48h-2v8h2v-8Zm32-24h-2v8h2v-8ZM81 0h-2v8h2V0ZM17 88h-2v8h2v-8Zm32-24h-2v8h2v-8Zm32-24h-2v8h2v-8Z"/></svg>