<svg xmlns="http://www.w3.org/2000/svg" fill="none" viewBox="0 0 96 96"><g clip-path="url(#a)"><path fill="var(--illustration-invert)" d="M71.07 28.65V0h2v28.65l6.22-6.22 1.42 1.41-8.63 8.63h-.01l-8.63-8.63 1.42-1.41 6.21 6.22Z"/><path fill="var(--illustration-gray)" fill-rule="evenodd" d="M0 48a48 48 0 0 0 96 0H84.92A36.92 36.92 0 0 1 48 84.92v-8.1a28.82 28.82 0 0 0 28.83-28.83H6.43V48H0Z" clip-rule="evenodd"/><path fill="var(--illustration-primary)" d="M68 48a20 20 0 1 1-40 0h40Z"/><path fill="var(--illustration-accent-1)" d="M28 48a20 20 0 1 1 40 0H28Z"/><path fill="var(--illustration-accent-2)" d="M0 84a12 12 0 1 0 24 0 12 12 0 0 0-24 0Z"/><path fill="var(--illustration-positive)" fill-rule="evenodd" d="M22.94 88.94A12 12 0 0 0 7.06 73.06a48 48 0 0 0 15.88 15.88Z" clip-rule="evenodd"/><path fill="var(--illustration-black)" fill-rule="evenodd" d="M48 61.88A13.94 13.94 0 1 0 48 34a13.94 13.94 0 0 0 0 27.88Zm0 2A15.94 15.94 0 1 0 48 32a15.94 15.94 0 0 0 0 31.88Z" clip-rule="evenodd"/></g><defs><clipPath id="a"><path fill="var(--illustration-white)" d="M0 0h96v96H0z"/></clipPath></defs></svg>