<svg xmlns="http://www.w3.org/2000/svg" fill="none" viewBox="0 0 96 96"><path fill="var(--illustration-primary)" d="M87.273 52.364C87.273 76.464 67.736 96 43.636 96S0 76.463 0 52.364 19.537 8.727 43.636 8.727s43.637 19.537 43.637 43.637"/><path fill="#E66020" d="M96 52.364C96 23.444 72.556 0 43.636 0v52.364z"/><path fill="var(--illustration-black)" fill-rule="evenodd" d="M43.636 8.727c24.1 0 43.637 19.537 43.637 43.637zm0 0v43.637h43.637" clip-rule="evenodd"/><path fill="var(--illustration-invert-2)" d="M69.818 52.364c0 14.46-11.722 26.181-26.182 26.181S17.455 66.823 17.455 52.364s11.722-26.182 26.181-26.182 26.182 11.722 26.182 26.182"/><path fill="var(--illustration-invert)" d="M48 52.364a4.364 4.364 0 1 1-8.727 0 4.364 4.364 0 0 1 8.727 0m-15.273 0a4.364 4.364 0 1 1-8.727 0 4.364 4.364 0 0 1 8.727 0m30.546 0a4.364 4.364 0 1 1-8.728 0 4.364 4.364 0 0 1 8.728 0"/></svg>