<svg xmlns="http://www.w3.org/2000/svg" fill="none" viewBox="0 0 48 48"><path fill="var(--illustration-primary)" d="M43.636 26.182C43.636 38.232 33.868 48 21.818 48S0 38.232 0 26.182 9.768 4.364 21.818 4.364s21.818 9.768 21.818 21.818"/><path fill="#E66020" d="M48 26.182C48 11.722 36.278 0 21.818 0v26.182z"/><path fill="var(--illustration-black)" fill-rule="evenodd" d="M21.818 4.364c12.05 0 21.818 9.768 21.818 21.818zm0 0v21.818h21.818" clip-rule="evenodd"/><path fill="var(--illustration-invert-2)" d="M34.909 26.182c0 7.23-5.861 13.09-13.091 13.09s-13.091-5.86-13.091-13.09S14.588 13.09 21.818 13.09s13.09 5.86 13.09 13.09"/></svg>