<svg xmlns="http://www.w3.org/2000/svg" fill="none" viewBox="0 0 96 96"><path fill="var(--illustration-gray)" fill-rule="evenodd" d="M84 49.306A27.9 27.9 0 0 1 72 52c-4.294 0-8.363-.967-12-2.694V64h24z" clip-rule="evenodd"/><path fill="var(--illustration-primary)" d="M52 64h8v32h-8zm32 0h8v32h-8zm-24 0h24v32H60zM0 80h40v16H0z"/><path fill="var(--illustration-black)" fill-rule="evenodd" d="M0 87h40v2H0zm52 0h40v2H52zm0-8h40v2H52zm0-8h40v2H52z" clip-rule="evenodd"/><path fill="#8E76FF" d="M96 24c0 13.255-10.745 24-24 24S48 37.255 48 24 58.745 0 72 0s24 10.745 24 24"/><path fill="var(--illustration-black)" d="M60 44.79V24h24v20.79A23.9 23.9 0 0 1 72 48a23.9 23.9 0 0 1-12-3.21"/><path fill="var(--illustration-primary)" d="M72 6v36l12-18z"/><path fill="var(--illustration-white)" d="M72 6v36L60 24z"/><path fill="var(--illustration-primary)" d="M72 18.037v13.5L60 24z"/><path fill="var(--illustration-black)" d="M72 18.037v13.5L84 24z"/><path fill="var(--illustration-invert)" d="M16 68a4 4 0 1 1-8 0 4 4 0 0 1 8 0m28-12a4 4 0 1 1-8 0 4 4 0 0 1 8 0"/><path fill="#E66020" d="m36 4 1.415 6.585L44 12l-6.585 1.415L36 20l-1.415-6.585L28 12l6.585-1.415z"/><path fill="var(--illustration-gray)" d="M19 37v3h2v-3h3v-2h-3v-3h-2v3h-3v2z"/><path fill="var(--illustration-invert)" d="M53.29 44.831a28 28 0 0 1-2.121-2.12L39.144 54.734 11.409 66.621l1.182 2.758 28.266-12.114z"/></svg>