<svg xmlns="http://www.w3.org/2000/svg" fill="none" viewBox="0 0 96 96"><path fill="var(--illustration-gray)" d="M96 24H39.995v56H0v16h96z"/><path fill="var(--illustration-positive)" d="M40 72c-8.84 0-16-7.16-16-16s7.16-16 16-16"/><path fill="var(--illustration-primary)" d="M40 40c8.84 0 16 7.16 16 16s-7.16 16-16 16m-16 8c0 4.433-3.567 8-8 8a7.98 7.98 0 0 1-8-8"/><path fill="var(--illustration-accent-2)" d="M8 80c0-4.433 3.567-8 8-8s8 3.567 8 8"/><path fill="var(--illustration-primary)" d="M96 24c0 13.24-10.76 24-24 24S48 37.24 48 24"/><path fill="var(--illustration-accent-1)" d="M48 24C48 10.76 58.76 0 72 0s24 10.76 24 24"/><path fill="var(--illustration-invert)" fill-rule="evenodd" d="M0 96V0h2v96z" clip-rule="evenodd"/><path fill="var(--illustration-invert)" fill-rule="evenodd" d="M0 94h96v2H0z" clip-rule="evenodd"/></svg>