<svg xmlns="http://www.w3.org/2000/svg" fill="none" viewBox="0 0 96 96"><path fill="var(--illustration-gray)" d="m0 73.6 48-22.4 48 22.4L48 96 0 73.6Z"/><path fill="var(--illustration-invert)" d="M20.251 50.95h-2.1v22.9h2.1v-22.9Zm57.599 0h-2.1v22.9h2.1v-22.9Zm-28.8 12.8h-2.1v22.9h2.1v-22.9Z"/><path fill="var(--illustration-accent-2)" d="M0 22.4 48 0l48 22.4-48 22.4L0 22.4Z"/><path fill="var(--illustration-accent-1)" d="m0 48 48-22.4L96 48 48 70.4 0 48Z"/><path fill="var(--illustration-primary)" fill-rule="evenodd" d="m68.57 60.8-20.572 9.6-20.571-9.6 20.571-9.6 20.572 9.6Z" clip-rule="evenodd"/><path fill="var(--illustration-black)" fill-rule="evenodd" d="M68.652 35.242 48.001 44.8l-20.664-9.643L47.679 25.6l20.973 9.642Z" clip-rule="evenodd"/><path fill="var(--illustration-primary)" d="M27.2 35.078 48 70.4l20.8-35.322L48 25.6l-20.8 9.478Z"/><path fill="var(--illustration-primary)" d="M27.2 35.078 48 70.4l20.8-35.322L48 25.6l-20.8 9.478Z"/><path fill="var(--illustration-black)" d="M68.8 35.07 48 0 27.2 35.07 48 44.8l20.8-9.73Z"/><path fill="var(--illustration-black)" fill-rule="evenodd" d="M56.829 55.407 48 51.2l-8.926 4.042L48 70.4l8.829-14.993Z" clip-rule="evenodd"/></svg>