<svg xmlns="http://www.w3.org/2000/svg" fill="none" viewBox="0 0 96 96"><g clip-path="url(#a)"><path fill="var(--illustration-positive)" d="M87.272 16.41H8.727v78.546h78.545z"/><path fill="var(--illustration-gray)" d="M96 16.41H0v26.182h96z"/><path fill="var(--illustration-primary)" d="M87.272 16.41H8.727v26.182h78.545z"/><path fill="var(--illustration-black)" fill-rule="evenodd" d="M64.8 17.501H31.2V15.32h33.6zM96 30.483H0v-2.182h96z" clip-rule="evenodd"/><path fill="var(--illustration-black)" fill-rule="evenodd" d="M46.908 42.592V-1.044h2.182v43.636z" clip-rule="evenodd"/><path fill="var(--illustration-black)" fill-rule="evenodd" d="M47.129 15.738 59.783 3.41l1.523 1.562L48.65 17.301z" clip-rule="evenodd"/><path fill="var(--illustration-black)" fill-rule="evenodd" d="M47.251 17.204 34.27 4.986l1.495-1.589 12.982 12.219zm40.021 78.843H8.727v-2.182h78.545z" clip-rule="evenodd"/><path fill="var(--illustration-accent-1)" d="M26.182 77.5a8.727 8.727 0 1 0 0-17.453 8.727 8.727 0 0 0 0 17.454M69.817 51.32 34.908 86.227h43.637z"/></g><defs><clipPath id="a"><path fill="var(--illustration-white)" d="M0 0h96v96H0z"/></clipPath></defs></svg>