<svg xmlns="http://www.w3.org/2000/svg" fill="none" viewBox="0 0 96 96"><g clip-path="url(#a)"><path fill="var(--illustration-gray)" d="M32 56h32v32H32zm36.1-44.1c0 6.6 5.3 11.9 11.9 11.9s11.9-5.3 11.9-11.9S86.6 0 80 0 68.1 5.3 68.1 11.9"/><path fill="var(--illustration-positive)" d="M4 12c0 6.6 5.4 12 12 12s12-5.4 12-12S22.6 0 16 0 4 5.4 4 12M0 48c0-8.8 7.2-16 16-16s16 7.2 16 16v48h-9.6C10 96 0 86 0 73.6z"/><path fill="var(--illustration-gray)" d="M96 73.6C96 86 86 96 73.6 96H64V48c0-8.8 7.2-16 16-16s16 7.2 16 16z"/><path fill="var(--illustration-accent-1)" d="M32 72c0 8.8 7.2 16 16 16s16-7.2 16-16-7.2-16-16-16-16 7.2-16 16"/><path fill="var(--illustration-primary)" d="M64 56h8c8.8 0 16 7.2 16 16s-7.2 16-16 16h-8zm-32 0h-8c-8.8 0-16 7.2-16 16s7.2 16 16 16h8z"/><path fill="var(--illustration-black)" fill-rule="evenodd" d="M48 81.9c5.5 0 10-4.5 10-10s-4.5-10-10-10-10 4.5-10 10c0 5.6 4.5 10 10 10m0 2c6.6 0 12-5.4 12-12s-5.4-12-12-12-12 5.4-12 12c0 6.7 5.4 12 12 12" clip-rule="evenodd"/></g><defs><clipPath id="a"><path fill="var(--illustration-white)" d="M0 0h96v96H0z"/></clipPath></defs></svg>