<svg xmlns="http://www.w3.org/2000/svg" fill="none" viewBox="0 0 96 96"><path fill="var(--illustration-positive)" d="M72 24H0v72h72V24Z"/><path fill="var(--illustration-gray)" d="M56.755 60.776c0 .709-.067 1.418-.19 2.104-.732 4.174-3.6 7.83-7.752 10.305-.326.191-.664.382-1.001.562-.113.057-.225.124-.349.18-.135.068-.281.135-.428.203-.134.067-.258.124-.393.191-.45.203-.923.394-1.395.574-.011 0-.023.011-.023.011-.135.056-.27.101-.416.146a24.226 24.226 0 0 1-2.644.776c-.011 0-.022.012-.033.012-.102.022-.203.045-.293.067-.36.08-.72.147-1.08.214-.124.023-.259.045-.394.068-.033 0-.056.01-.09.01-.169.023-.337.057-.517.08a26.49 26.49 0 0 1-.99.112l-.327.034c-.753.067-1.518.101-2.294.101-.664 0-1.317-.022-1.958-.067l-.45-.034h-.034c-.18-.011-.349-.034-.529-.056-.224-.023-.45-.057-.674-.08-.18-.022-.372-.055-.552-.078-.18-.034-.349-.056-.529-.09a42.93 42.93 0 0 1-1.282-.259 6.906 6.906 0 0 1-.461-.112c-.18-.045-.372-.09-.552-.146a9.724 9.724 0 0 1-.54-.158c-.146-.045-.292-.09-.427-.135a17.163 17.163 0 0 1-1.148-.405c-2.98-2.475-5.062-7.819-5.58-11.992a16.248 16.248 0 0 1-.134-2.104c0-2.858.72-5.535 1.968-7.853.282-.517.596-1.023.934-1.496v-.011c.079-.113.169-.236.247-.349.08-.101.147-.202.226-.292.022-.023.033-.045.056-.068.078-.09.146-.191.225-.281.168-.203.348-.405.528-.608.046-.056.09-.1.136-.146.09-.101.19-.202.292-.304.157-.168.326-.326.495-.472.056-.056.101-.101.158-.146l.326-.293c.022-.022.045-.034.067-.056.135-.124.293-.236.439-.349a33.79 33.79 0 0 0-.405-1.53c-.045-.146-.09-.304-.135-.45-.011-.045-.023-.101-.045-.146a6.339 6.339 0 0 0-.157-.495l-.27-.81a9.928 9.928 0 0 0-.214-.596c-.169-.45-.349-.9-.529-1.34a17.4 17.4 0 0 0-.293-.674c-.022-.034-.033-.079-.056-.113-.09-.202-.191-.405-.281-.607-.011-.011-.011-.023-.011-.034a18.51 18.51 0 0 1 3.892 4.781 30.376 30.376 0 0 1 1.812-.45 26.548 26.548 0 0 1 5.073-.55h.698c1.755.022 3.453.202 5.073.54.63.123 1.26.28 1.868.46 1.058-1.845 2.363-3.442 3.803-4.713 2.148-1.913 4.612-3.117 7.02-3.477l-.147.17c-.18.202-.36.415-.54.63a4.215 4.215 0 0 0-.281.348c-.068.09-.135.18-.214.259-.101.123-.202.258-.303.393-.08.102-.147.203-.225.293a24.84 24.84 0 0 0-.484.664c-.158.225-.315.45-.462.675-.067.112-.146.225-.213.337a24.26 24.26 0 0 0-1.384 2.408c-.101.19-.191.382-.281.573l-.102.203a3.988 3.988 0 0 0-.18.382c-.044.08-.078.17-.112.248-.011.022-.023.045-.023.056-.067.135-.123.27-.18.405-.1.225-.19.45-.28.686-.08.192-.158.394-.226.585-.112.293-.213.585-.303.878.202.112.404.225.607.349.011.01.011.01.023.01.146.09.28.18.427.27.011 0 .023.012.034.023.09.057.191.113.281.18h.011c.124.08.259.17.383.26.022.01.034.022.056.033.067.045.124.09.191.135.068.045.124.09.192.135.01.011.033.022.044.034.136.09.26.19.383.292.135.101.259.203.394.315l.382.315.338.304c.135.124.258.236.382.36.113.112.236.225.349.349.461.472.9.978 1.282 1.496 1.7 2.306 2.7 4.984 2.7 7.841Z"/><path fill="var(--illustration-black)" d="M27.01 79.102c-4.803 3.893-8.178 8.764-9.28 16.335l-.08.552h-7.165l.112-.552a27.127 27.127 0 0 1 12.904-18.022 22.975 22.975 0 0 0 3.51 1.687Z"/><path fill="var(--illustration-gray)" d="M61.661 95.989H17.64l.079-.552c1.102-7.56 4.477-12.442 9.28-16.334.012 0 .012 0 .023.01 2.757 1.047 5.862 1.632 9.135 1.632 1.328 0 2.633-.101 3.893-.281l.416-.068c.304-.056.596-.101.889-.168.124-.023.259-.057.394-.08.416-.09.82-.19 1.215-.292.247-.067.495-.135.73-.213.023-.012.046-.012.057-.023a31.67 31.67 0 0 0 1.091-.36c.507-.18.99-.371 1.474-.585.056-.022.101-.045.146-.067.045-.023.09-.034.124-.057.146-.067.281-.135.428-.202.112-.056.236-.113.348-.169a17.17 17.17 0 0 0 1.34-.731 27.082 27.082 0 0 1 12.813 17.966l.146.574Z"/><path fill="var(--illustration-white)" d="M48.814 73.185v4.219c-.034.022-.056.033-.09.056a25.25 25.25 0 0 1-1.339.731c-.112.056-.236.113-.349.169-.146.067-.281.135-.427.202-.045.023-.079.034-.124.057-.056.022-.101.045-.146.067-.484.214-.968.405-1.474.585-.36.124-.72.248-1.091.36-.023.011-.045.011-.056.023-.248.078-.484.146-.732.213-.405.102-.798.203-1.215.293-.123.034-.258.056-.394.079l-.888.168-.416.068c-1.26.18-2.566.281-3.893.281-3.285 0-6.39-.585-9.135-1.631-.011 0-.011-.011-.023-.011.012-.012.012-.012.023-.012v-4.207a23.779 23.779 0 0 0 1.575.54c.18.056.36.112.54.157.18.057.371.102.551.147.147.045.304.078.462.112.427.101.855.191 1.282.259.18.034.349.056.529.09.18.034.371.056.551.079.225.033.45.056.675.078.18.023.349.034.529.057h.034c.146.01.303.033.45.033.64.045 1.293.068 1.957.068.776 0 1.541-.034 2.295-.101l.326-.034c.326-.034.664-.068.99-.113.169-.022.349-.045.518-.078.034 0 .056-.012.09-.012.135-.022.258-.045.393-.067.36-.068.72-.135 1.08-.214.102-.022.203-.045.293-.067.011 0 .023 0 .034-.012a24.294 24.294 0 0 0 2.644-.776c.135-.045.28-.101.416-.146.011 0 .022-.011.022-.011.473-.18.945-.372 1.395-.574a4.35 4.35 0 0 0 .394-.191c.146-.068.281-.135.428-.203.112-.056.236-.112.348-.18.315-.157.642-.349.968-.551Zm-1.191-17.066a4.26 4.26 0 0 1-1.62 1.912 4.226 4.226 0 0 1-2.351.709 4.226 4.226 0 0 1-2.352-.709 4.33 4.33 0 0 1-1.62-1.912 4.328 4.328 0 0 1 3.972-2.622 4.322 4.322 0 0 1 3.971 2.622Z"/><path fill="var(--illustration-black)" d="M46.015 57.896c0 .045 0 .102-.011.146a4.226 4.226 0 0 1-2.352.71 4.226 4.226 0 0 1-2.351-.71c-.011-.044-.011-.1-.011-.146a2.362 2.362 0 1 1 4.725 0Z"/><path fill="var(--illustration-white)" d="M32.65 56.119a4.26 4.26 0 0 1-1.62 1.912 4.226 4.226 0 0 1-2.352.709 4.226 4.226 0 0 1-2.351-.709 4.33 4.33 0 0 1-1.62-1.912 4.328 4.328 0 0 1 3.971-2.622c1.778 0 3.308 1.092 3.971 2.622Z"/><path fill="var(--illustration-black)" d="M31.04 57.896c0 .045 0 .102-.01.146a4.226 4.226 0 0 1-2.352.71 4.226 4.226 0 0 1-2.351-.71c-.011-.044-.011-.1-.011-.146a2.362 2.362 0 1 1 4.725 0Zm8.03 4.343-2.171 1.125a1.598 1.598 0 0 1-1.463 0l-2.171-1.125a1.036 1.036 0 0 1-.315-1.598c.709-.821 1.89-1.361 3.229-1.361 1.338 0 2.508.54 3.228 1.361a1.054 1.054 0 0 1-.337 1.598Z"/><path fill="var(--illustration-black)" fill-rule="evenodd" d="m53.105 57.932-9.563 4.523-.48-1.017 9.562-4.523.48 1.017Zm-9.563 5.318 8.235 3.903-.482 1.016-8.235-3.903.482-1.017Zm9.941.17h-7.864v-1.125h7.864v1.125Zm-33.78-6.505 9.563 4.523-.481 1.017-9.563-4.523.481-1.017Zm9.564 7.351-8.235 3.903-.482-1.016 8.235-3.904.482 1.017Zm-10.423-1.971h7.864v1.125h-7.864v-1.125Z" clip-rule="evenodd"/><path fill="var(--illustration-black)" d="M27.022 74.872a7.973 7.973 0 0 1-.552-.213l-.337-.135c-.439-.18-.855-.383-1.271-.585-.113-.057-.237-.113-.35-.18-.348-.18-.674-.372-1-.563-4.14-2.475-7.02-6.131-7.752-10.305a11.9 11.9 0 0 1-.19-2.104c0-2.857 1-5.535 2.733-7.852.394-.518.821-1.024 1.282-1.496l.012-.012.168-.168c.057-.057.113-.113.18-.17.09-.09.18-.18.282-.27.258-.247.54-.494.82-.72l.338-.27c.102-.09.214-.168.315-.247.068-.056.135-.1.214-.157a.234.234 0 0 1 .068-.045c.112-.079.225-.169.337-.248.191-.135.371-.258.563-.382.146-.101.303-.191.45-.281.033-.023.067-.034.09-.057.202-.123.405-.236.607-.348l-.304-.878a8.991 8.991 0 0 0-.225-.585c-.09-.236-.18-.461-.28-.686-.057-.135-.113-.27-.18-.405-.012-.023-.012-.045-.023-.056-.034-.08-.068-.17-.113-.248a9.634 9.634 0 0 0-.18-.382l-.101-.203c-.09-.191-.191-.382-.281-.574-.237-.45-.473-.9-.732-1.338a19.149 19.149 0 0 0-.382-.642c-.09-.146-.191-.303-.293-.45-.067-.1-.123-.202-.202-.303-.146-.225-.304-.45-.461-.675-.124-.18-.26-.36-.394-.54-.203-.27-.405-.54-.619-.81a7.76 7.76 0 0 0-.394-.484c-.067-.079 4.005.619 6.143 2.475v.011c.011.011.011.023.011.034.101.202.191.405.281.607.012.045.034.08.057.113.1.225.202.45.292.675.18.439.36.889.529 1.339.079.202.146.405.214.596l.27.81c.056.169.1.337.157.495a.56.56 0 0 1 .045.146c.045.146.09.304.135.45.146.506.281 1.013.405 1.53a11.84 11.84 0 0 0-.439.349c-.022.022-.045.045-.067.056-.113.09-.225.191-.326.293-.057.045-.102.09-.158.146-.169.157-.337.315-.495.472a7.282 7.282 0 0 0-.292.304c-.045.045-.09.101-.135.146a9.29 9.29 0 0 0-.53.608c-.078.09-.157.191-.224.281-.023.023-.034.045-.056.068-.08.1-.147.202-.225.292-.08.113-.17.225-.248.349v.011c-.337.473-.652.979-.934 1.496a16.45 16.45 0 0 0-1.968 7.853c0 .709.045 1.417.135 2.104.528 4.15 2.598 9.483 5.58 11.958Z"/><path fill="var(--illustration-black)" fill-rule="evenodd" d="M35.606 68.291V63.05h1.125v5.242h-1.125Z" clip-rule="evenodd"/><path fill="var(--illustration-black)" d="M39.904 68.291c0 .99-.529 1.868-1.362 2.453-.64.46-1.473.73-2.373.73-.9 0-1.733-.27-2.374-.73-.833-.585-1.361-1.463-1.361-2.453h7.47Z"/><path fill="var(--illustration-negative)" d="M38.541 70.744c-.64.461-1.473.731-2.373.731-.9 0-1.733-.27-2.374-.731.394-.675 1.316-1.148 2.374-1.148 1.057 0 1.98.473 2.373 1.148Z"/><path fill="var(--illustration-accent-1)" d="M40.456 79.08a.832.832 0 1 0 0-1.665.832.832 0 0 0 0 1.665Zm4.32-1.069a.832.832 0 1 0 0-1.665.832.832 0 0 0 0 1.665Z"/><path fill="var(--illustration-primary)" d="M27.023 74.884v4.207c-.011.012-.011.012-.023.012a22.331 22.331 0 0 1-3.498-1.688v-4.219c.326.192.663.383 1 .563.113.056.226.123.35.18.416.214.832.405 1.27.585.113.045.226.101.338.135.192.078.383.146.563.225Z"/><path fill="var(--illustration-accent-1)" d="M31.871 79.08a.833.833 0 1 0 0-1.665.833.833 0 0 0 0 1.665Zm4.297 0a.832.832 0 1 0 0-1.665.832.832 0 0 0 0 1.665Zm-8.617-1.069a.832.832 0 1 0 0-1.665.832.832 0 0 0 0 1.665Z"/><path fill="var(--illustration-black)" d="m52.728 51.438-.348-.348c-.113-.113-.237-.225-.36-.338-.237-.225-.495-.439-.743-.652-.124-.102-.259-.214-.394-.315a8.629 8.629 0 0 0-.382-.293c-.023-.022-.034-.033-.056-.033-.124-.09-.248-.192-.372-.27a5.697 5.697 0 0 0-.427-.293c-.09-.068-.191-.124-.281-.18l-.473-.304c-.202-.123-.405-.236-.607-.349.168-.517.36-1.023.562-1.53.056-.146.124-.303.191-.45.023-.044.034-.1.057-.146.067-.168.135-.337.213-.495.113-.27.248-.54.372-.81.1-.202.202-.405.292-.596A30.89 30.89 0 0 1 51.12 42c.01-.011.022-.034.033-.045.135-.225.282-.439.428-.664.146-.225.304-.45.461-.675.158-.225.315-.45.484-.664.146-.202.292-.393.45-.585a.62.62 0 0 1 .079-.101c.168-.203.326-.405.495-.608.18-.213.36-.416.54-.63l.146-.168c1.564 3.78 1.136 8.91-1.508 13.578Z"/><path fill="var(--illustration-black)" fill-rule="evenodd" d="m42.61 66.588 1.069-1.068.795.795-1.068 1.069a5.036 5.036 0 0 1-3.498 1.47h-7.492a5.016 5.016 0 0 1-3.497-1.47l-1.069-1.069.796-.795 1.069 1.069a3.89 3.89 0 0 0 2.71 1.14H39.9a3.912 3.912 0 0 0 2.71-1.14Z" clip-rule="evenodd"/><path fill="var(--illustration-primary)" d="m22.68 54.296-6.896 4.669L2.025 43.834l7.853 2.373.652-8.088 1.542.472L22.68 54.296Z"/><path fill="var(--illustration-accent-1)" d="M36.472 44.992 22.68 54.297 12.07 38.591l6.289 1.89.742-8.156 7.752 2.419.73-8.168 8.888 18.416Z"/><path fill="var(--illustration-white)" d="m24.617 44.398-4.152-.805-.805 4.153 4.152.805.805-4.153Z"/><path fill="var(--illustration-accent-1)" d="m17.293 49.339-2.596-.503-.503 2.595 2.595.503.504-2.595Z"/><path fill="var(--illustration-white)" d="m30.072 40.711-2.595-.503-.503 2.595 2.595.503.503-2.595Z"/><path fill="var(--illustration-accent-1)" d="M88 23.998c-8.838 0-15.998 7.164-15.998 16.002 0-8.838-7.164-16.002-16.002-16.002 8.838 0 16.002-7.163 16.002-15.998 0 8.835 7.16 15.998 15.998 15.998Z"/><path fill="var(--illustration-black)" d="M72 39.77c-.122-8.656-7.115-15.648-15.77-15.77H72v15.77Z"/><path fill="var(--illustration-primary)" d="M32 8a8 8 0 0 0-8 8 8 8 0 0 0-8-8 8 8 0 0 0 8-8 8 8 0 0 0 8 8Z"/><path fill="var(--illustration-positive)" d="M96 80a8 8 0 0 0-8 8 8 8 0 0 0-8-8 8 8 0 0 0 8-8 8 8 0 0 0 8 8Z"/></svg>