<svg xmlns="http://www.w3.org/2000/svg" fill="none" viewBox="0 0 96 96"><path fill="var(--illustration-positive)" d="M64 32H12.8v51.2H64V32Z"/><path fill="var(--illustration-gray)" d="M53.16 58.15c0 .5-.05 1.01-.14 1.5-.52 2.97-2.56 5.57-5.5 7.33l-.72.4-.25.12-.3.15-.28.13c-.32.15-.66.28-1 .41l-.01.01-.3.1c-.39.14-.78.27-1.19.38l-.69.18h-.02l-.2.05-.78.15-.28.05-.06.01-.37.06a18.9 18.9 0 0 1-3.96.12l-.32-.02h-.02c-.13 0-.25-.02-.38-.04l-.48-.06-.4-.05-.37-.07a30.62 30.62 0 0 1-1.24-.26l-.39-.1-.38-.12-.3-.1a8.75 8.75 0 0 1-.82-.28c-2.12-1.76-3.6-5.56-3.97-8.53A11.75 11.75 0 0 1 30 51.53v-.01l.17-.25.16-.2.04-.05.16-.2.38-.44.1-.1a5.2 5.2 0 0 1 .56-.55l.1-.1.24-.21.05-.04c.1-.1.2-.17.3-.25-.08-.37-.17-.73-.28-1.09l-.1-.32a4.53 4.53 0 0 0-.14-.46l-.2-.57-.14-.43-.38-.95-.2-.48-.05-.08-.2-.43v-.02c1.04.9 2 2.05 2.76 3.4a18.88 18.88 0 0 1 4.9-.71h.5a18.88 18.88 0 0 1 4.93.7 13.3 13.3 0 0 1 2.7-3.35 9.84 9.84 0 0 1 5-2.47l-.1.12-.4.45-.2.25-.14.18-.22.28c-.05.07-.1.15-.16.21l-.34.47-.33.48-.15.24a17.25 17.25 0 0 0-1.19 2.12l-.07.15a1.7 1.7 0 0 0-.13.27l-.08.17-.01.04c-.05.1-.1.2-.13.3a8.89 8.89 0 0 0-.36.9l-.22.62.44.25h.01l.3.2.03.01.2.13c.1.06.2.12.28.19l.04.02.14.1.13.1s.03 0 .03.02l.28.2.28.23.27.22.24.22.27.25.25.25c.33.34.64.7.9 1.07a9.37 9.37 0 0 1 1.93 5.57Z"/><path fill="var(--illustration-black)" d="M32 71.18a17.24 17.24 0 0 0-6.6 11.62l-.05.4h-5.1l.09-.4a19.29 19.29 0 0 1 9.17-12.82c.78.46 1.61.87 2.5 1.2Z"/><path fill="var(--illustration-gray)" d="M56.65 83.2h-31.3l.05-.4A17.26 17.26 0 0 1 32 71.2a18.35 18.35 0 0 0 9.27.95l.3-.05.63-.12.28-.05.86-.21.52-.15.04-.02a22.03 22.03 0 0 0 1.93-.72l.09-.04.3-.14.25-.12c.33-.16.65-.34.95-.52a19.26 19.26 0 0 1 9.11 12.77l.1.41Z"/><path fill="var(--illustration-white)" d="M47.51 66.98v3l-.06.04-.96.52-.24.12-.3.14-.1.04-.1.05c-.34.15-.69.29-1.05.41-.25.1-.51.18-.77.26a12.74 12.74 0 0 1-.56.17l-.87.2c-.09.03-.18.05-.28.06l-.63.12-.3.05a18.28 18.28 0 0 1-9.26-.96h-.02l.02-.02V68.2l.82.29.3.1c.13.04.26.08.38.1.13.05.27.08.4.11l.32.08c.3.07.61.14.92.19l.37.06.4.06.47.05.38.04h.02l.32.03a19.88 19.88 0 0 0 3.03-.03l.23-.02.7-.08c.12-.02.25-.03.37-.06h.07l.28-.05.76-.16.21-.04.03-.01a17.27 17.27 0 0 0 1.88-.55c.1-.04.2-.08.3-.1v-.02a18.37 18.37 0 0 0 1.28-.54l.3-.14.25-.13c.23-.11.46-.25.69-.4Zm-.85-12.14a3.03 3.03 0 0 1-1.15 1.36 3 3 0 0 1-3.34 0c-.5-.33-.91-.8-1.15-1.36a3.08 3.08 0 0 1 5.64 0Z"/><path fill="var(--illustration-black)" d="M45.52 56.1v.1a3 3 0 0 1-3.35 0l-.01-.1a1.68 1.68 0 1 1 3.36 0Z"/><path fill="var(--illustration-white)" d="M36.02 54.84a3.03 3.03 0 0 1-1.16 1.36 3 3 0 0 1-3.34 0c-.5-.33-.91-.8-1.15-1.36a3.08 3.08 0 0 1 5.65 0Z"/><path fill="var(--illustration-black)" d="M34.87 56.1v.1a3 3 0 0 1-3.35 0v-.1a1.68 1.68 0 1 1 3.35 0Zm5.71 3.1-1.54.8c-.33.16-.71.16-1.04 0l-1.55-.8a.74.74 0 0 1-.22-1.14c.5-.59 1.35-.97 2.3-.97.95 0 1.78.38 2.3.97.29.36.18.92-.25 1.13Z"/><path fill="var(--illustration-black)" fill-rule="evenodd" d="m50.56 56.13-6.8 3.22-.34-.73 6.8-3.21.34.72Zm-6.8 3.78 5.86 2.78-.34.72-5.86-2.78.34-.72Zm7.07.12h-5.59v-.8h5.6v.8ZM26.81 55.4l6.8 3.22-.34.73-6.8-3.22.34-.72Zm6.8 5.23-5.86 2.78-.34-.72 5.86-2.78.34.72Zm-7.41-1.4h5.6v.8h-5.6v-.8Z" clip-rule="evenodd"/><path fill="var(--illustration-black)" d="M32.02 68.18a5.7 5.7 0 0 1-.64-.25l-.9-.42-.25-.13a8.13 8.13 0 0 1-.71-.4c-2.94-1.76-5-4.36-5.51-7.32-.1-.5-.14-1-.14-1.5a9.2 9.2 0 0 1 1.95-5.58c.28-.37.58-.73.9-1.07h.02l.12-.13.12-.12.2-.19.59-.51.24-.2.22-.17.15-.11.05-.03.24-.18.4-.27.32-.2.07-.04.43-.25-.22-.62-.16-.42a8.89 8.89 0 0 0-.2-.49l-.13-.28-.01-.04-.08-.18-.13-.27-.07-.15-.2-.4-.52-.96-.27-.45-.21-.32-.15-.22-.32-.48-.28-.38a27.55 27.55 0 0 0-.72-.92c-.05-.06 2.84.44 4.36 1.76l.01.03.2.43c0 .03.03.06.04.08.07.16.15.32.2.48.14.31.27.63.39.95l.15.43.19.57.11.36a.4.4 0 0 1 .03.1l.1.32.29 1.09-.31.25-.05.04a2.87 2.87 0 0 0-.35.3l-.35.34a5.2 5.2 0 0 0-.2.22l-.1.1a6.61 6.61 0 0 0-.54.64l-.04.04c-.05.08-.1.15-.16.21l-.17.25a11.7 11.7 0 0 0-1.97 8.14c.37 2.96 1.85 6.76 3.97 8.52Z"/><path fill="var(--illustration-black)" fill-rule="evenodd" d="M38.12 63.5v-3.73h.8v3.73h-.8Z" clip-rule="evenodd"/><path fill="var(--illustration-black)" d="M41.18 63.5c0 .7-.38 1.32-.97 1.74a2.9 2.9 0 0 1-1.7.52 2.9 2.9 0 0 1-1.68-.52 2.14 2.14 0 0 1-.97-1.74h5.32Z"/><path fill="var(--illustration-negative)" d="M40.2 65.24a2.9 2.9 0 0 1-1.68.52 2.9 2.9 0 0 1-1.69-.52c.28-.48.94-.82 1.69-.82s1.4.34 1.69.82Z"/><path fill="var(--illustration-accent-1)" d="M41.57 71.17a.6.6 0 1 0 0-1.19.6.6 0 0 0 0 1.19Zm3.07-.77a.6.6 0 1 0 0-1.18.6.6 0 0 0 0 1.19Z"/><path fill="var(--illustration-primary)" d="M32.02 68.18v3H32c-.88-.33-1.71-.73-2.49-1.2v-3c.23.14.47.28.71.4.08.04.16.1.25.13l.9.42.25.1.4.15Z"/><path fill="var(--illustration-accent-1)" d="M35.46 71.17a.6.6 0 1 0 0-1.19.6.6 0 0 0 0 1.19Zm3.06 0a.6.6 0 1 0 0-1.19.6.6 0 0 0 0 1.19Zm-6.12-.77a.6.6 0 1 0 0-1.18.6.6 0 0 0 0 1.19Z"/><path fill="var(--illustration-black)" d="m50.3 51.51-.25-.25-.26-.24-.53-.46-.28-.22a6.15 6.15 0 0 0-.3-.24l-.27-.19-.3-.2-.2-.13-.34-.22-.44-.25a17.72 17.72 0 0 1 .54-1.4l.04-.11.15-.35c.08-.2.18-.39.27-.58l.2-.42.52-.95.3-.5.02-.03.3-.47a17.06 17.06 0 0 1 1-1.37l.06-.07.35-.44.38-.44.1-.12c1.12 2.68.81 6.33-1.07 9.65Z"/><path fill="var(--illustration-black)" fill-rule="evenodd" d="m43.1 62.29.76-.76.57.56-.76.76a3.58 3.58 0 0 1-2.5 1.05h-5.32a3.62 3.62 0 0 1-2.49-1.05l-.76-.76.57-.56.76.76c.5.5 1.2.8 1.93.8h5.31c.72 0 1.42-.3 1.93-.8Z" clip-rule="evenodd"/><path fill="var(--illustration-primary)" d="m28.93 53.54-4.9 3.32-9.79-10.76 5.58 1.7.47-5.76 1.1.34 7.54 11.16Z"/><path fill="var(--illustration-accent-1)" d="m38.74 46.93-9.81 6.61-7.55-11.16 4.48 1.34.52-5.8 5.52 1.72.52-5.8 6.32 13.09Z"/><path fill="var(--illustration-white)" d="m30.3 46.5-2.95-.57-.57 2.96 2.95.57.58-2.95Z"/><path fill="var(--illustration-accent-1)" d="m25.1 50.02-1.85-.36-.36 1.85 1.85.35.36-1.84Z"/><path fill="var(--illustration-white)" d="m34.18 43.88-1.84-.35-.36 1.84 1.85.36.35-1.85Z"/><path fill="var(--illustration-accent-1)" d="M76.8 32A12.8 12.8 0 0 0 64 44.8 12.8 12.8 0 0 0 51.2 32 12.8 12.8 0 0 0 64 19.2 12.8 12.8 0 0 0 76.8 32Z"/><path fill="var(--illustration-primary)" d="M34.4 19.2a6.4 6.4 0 0 0-6.4 6.4 6.4 6.4 0 0 0-6.4-6.4 6.4 6.4 0 0 0 6.4-6.4 6.4 6.4 0 0 0 6.4 6.4Z"/><path fill="var(--illustration-positive)" d="M79.2 70.4a6.4 6.4 0 0 0-6.4 6.4 6.4 6.4 0 0 0-6.4-6.4 6.4 6.4 0 0 0 6.4-6.4 6.4 6.4 0 0 0 6.4 6.4Z"/><path fill="var(--illustration-black)" fill-rule="evenodd" d="M64 44.62A12.8 12.8 0 0 0 51.38 32H64v12.62Z" clip-rule="evenodd"/></svg>