<svg xmlns="http://www.w3.org/2000/svg" fill="none" viewBox="0 0 96 96"><path fill="var(--illustration-gray)" d="M96 32H0v56h96zM72 88H24v8h48z"/><path fill="var(--illustration-primary)" d="M72 32H24v56h48z"/><path fill="var(--illustration-accent-1)" d="M72 32H24l24-20z"/><path fill="var(--illustration-accent-2)" d="M48 40c-11.042 0-20 8.958-20 20s8.958 20 20 20 20-8.958 20-20-8.958-20-20-20"/><path fill="var(--illustration-accent-1)" d="M48 40v40c11.063 0 20-8.937 20-20 0-11.062-8.937-20-20-20"/><path fill="var(--illustration-black)" d="m58.002 50.939-1.527-1.442-8.516 9.018-9.019-8.518-1.442 1.527 9.019 8.518-8.518 9.019 1.527 1.441 8.517-9.018L57.063 70l1.442-1.527-9.019-8.517z"/><path fill="var(--illustration-invert)" d="M49.05 0h-2.1v21.43a2.66 2.66 0 0 0-1.6 2.432 2.657 2.657 0 0 0 2.65 2.65 2.657 2.657 0 0 0 2.65-2.65 2.66 2.66 0 0 0-1.6-2.432z"/></svg>