<svg xmlns="http://www.w3.org/2000/svg" fill="none" viewBox="0 0 96 96"><path fill="var(--illustration-gray)" d="M24 36.33h48.67v24.34H24V36.33Z"/><path fill="var(--illustration-positive)" d="M72.67 60.67a24.33 24.33 0 1 1-48.67 0 24.33 24.33 0 0 1 48.67 0Z"/><path fill="var(--illustration-accent-1)" d="M72.67 36.33a24.33 24.33 0 1 1-48.67 0 24.33 24.33 0 0 1 48.67 0Z"/><path fill="var(--illustration-primary)" d="M27.26 72.83a24.32 24.32 0 0 1 42.15 0 24.32 24.32 0 0 1-42.15 0Z"/><path fill="var(--illustration-black)" fill-rule="evenodd" d="M40.32 26.53a2.74 2.74 0 0 0-2.68 2.8c0 1.54 1.2 2.79 2.68 2.79a2.74 2.74 0 0 0 2.69-2.8c0-1.54-1.2-2.8-2.69-2.8Zm-4.15 2.8A4.24 4.24 0 0 1 40.32 25c2.3 0 4.16 1.93 4.16 4.32a4.24 4.24 0 0 1-4.16 4.33 4.24 4.24 0 0 1-4.15-4.33Zm20.17 11.22a2.74 2.74 0 0 0-2.68 2.8c0 1.54 1.2 2.79 2.68 2.79a2.74 2.74 0 0 0 2.69-2.8c0-1.54-1.2-2.8-2.69-2.8Zm-4.15 2.8a4.24 4.24 0 0 1 4.15-4.33c2.3 0 4.16 1.93 4.16 4.32a4.24 4.24 0 0 1-4.16 4.33 4.24 4.24 0 0 1-4.15-4.33Zm7.08-18.14L38.47 48.5l-1.07-1.04 20.8-23.3 1.07 1.05Z" clip-rule="evenodd"/></svg>