<svg xmlns="http://www.w3.org/2000/svg" fill="none" viewBox="0 0 96 96"><path fill="var(--illustration-accent-1)" d="M48 76.8a28.8 28.8 0 1 0 0-57.6 28.8 28.8 0 0 0 0 57.6Z"/><path fill="var(--illustration-gray)" d="M67.8 43.6a15.4 15.4 0 1 0 0-30.8 15.4 15.4 0 0 0 0 30.8Z"/><path fill="var(--illustration-black)" fill-rule="evenodd" d="M48 69.6a21.6 21.6 0 1 0 0-43.2 21.6 21.6 0 0 0 0 43.2Zm0 1.6a23.2 23.2 0 1 0 0-46.4 23.2 23.2 0 0 0 0 46.4Z" clip-rule="evenodd"/><path fill="var(--illustration-primary)" fill-rule="evenodd" d="M76 41.24A15.4 15.4 0 0 1 54.76 20 28.85 28.85 0 0 1 76 41.24Z" clip-rule="evenodd"/><path fill="var(--illustration-positive)" d="M28.2 83.2a15.4 15.4 0 1 0 0-30.8 15.4 15.4 0 0 0 0 30.8Z"/><path fill="var(--illustration-primary)" fill-rule="evenodd" d="M41.24 76A15.4 15.4 0 0 0 20 54.76 28.85 28.85 0 0 0 41.24 76Z" clip-rule="evenodd"/><path fill="var(--illustration-black)" fill-rule="evenodd" d="M70.73 43.32c-1.86-9.06-9-16.2-18.05-18.05-.1.52-.18 1.05-.22 1.6a21.63 21.63 0 0 1 16.68 16.67c.54-.04 1.07-.12 1.59-.22Zm-43.87 9.14a21.63 21.63 0 0 0 16.68 16.68c-.04.54-.12 1.07-.22 1.59-9.06-1.86-16.2-9-18.05-18.05.52-.1 1.05-.18 1.59-.22Z" clip-rule="evenodd"/><path fill="var(--illustration-black)" d="m48 38.4 1.98 7.62L57.6 48l-7.62 1.98L48 57.6l-1.98-7.62L38.4 48l7.62-1.98L48 38.4Z"/></svg>