<svg xmlns="http://www.w3.org/2000/svg" fill="none" viewBox="0 0 96 96"><g clip-path="url(#a)"><path fill="var(--illustration-gray)" d="M16 24a8 8 0 0 1 8-8h48a8 8 0 0 1 8 8v72H16V24Z"/><path fill="var(--illustration-gray)" d="M0 16h96v64H0V16Z"/><path fill="var(--illustration-gray)" fill-rule="evenodd" d="M40 8H24a8 8 0 0 0-8 8h64a8 8 0 0 0-8-8H56a8 8 0 1 0-16 0Zm12 0a4 4 0 1 1-8 0 4 4 0 0 1 8 0Z" clip-rule="evenodd"/><path fill="var(--illustration-primary)" d="M16 16h64v64H16V16Z"/><path fill="var(--illustration-black)" fill-rule="evenodd" d="M72 49H24v-2h48v2Z" clip-rule="evenodd"/><path stroke="var(--illustration-black)" stroke-width="2" d="M25 25h46v14H25z"/><path fill="var(--illustration-positive)" d="M48 92a16 16 0 1 0 0-32 16 16 0 0 0 0 32Z"/><path fill="var(--illustration-invert-2)" fill-rule="evenodd" d="M68 76a20 20 0 1 1-40 0 20 20 0 0 1 40 0Zm-4 0a16 16 0 1 1-32 0 16 16 0 0 1 32 0Z" clip-rule="evenodd"/><path fill="var(--illustration-black)" fill-rule="evenodd" d="M56.7 71.57 45.3 82.5l-5.96-5.24 1.32-1.5 4.58 4.02 10.07-9.66 1.38 1.44Z" clip-rule="evenodd"/></g><defs><clipPath id="a"><path fill="var(--illustration-white)" d="M0 0h96v96H0z"/></clipPath></defs></svg>