<svg xmlns="http://www.w3.org/2000/svg" fill="none" viewBox="0 0 96 96"><g clip-path="url(#a)"><path fill="var(--illustration-gray)" d="M-.36 64h96v32h-96z"/><path fill="var(--illustration-positive)" d="M7.64 16h16v48h-16z"/><path fill="var(--illustration-primary)" d="M7.64 64h16v16h-16zm32 0h16v16h-16zm32 0h16v16h-16z"/><path fill="var(--illustration-negative)" d="M39.64 32h16v32h-16z"/><path fill="var(--illustration-positive)" d="M71.64 0h16v64h-16z"/><path fill="var(--illustration-black)" fill-rule="evenodd" d="m81.639 19.839-33.182 24.7L18.075 30.45 1.18 48l-1.54-1.6 17.956-18.65 30.609 14.193L80.37 18z" clip-rule="evenodd"/><path fill="var(--illustration-black)" fill-rule="evenodd" d="m79.914 19.811-7.376-1.663.466-2.148 9.483 2.138-2.097 9.667-2.107-.475z" clip-rule="evenodd"/></g><defs><clipPath id="a"><path fill="var(--illustration-white)" d="M0 0h96v96H0z"/></clipPath></defs></svg>