<svg xmlns="http://www.w3.org/2000/svg" fill="none" viewBox="0 0 96 96"><path fill="var(--illustration-gray)" d="M57.6 32H72a2.4 2.4 0 0 1 2.4 2.4v27.2A2.4 2.4 0 0 1 72 64H57.6V32Z"/><path fill="var(--illustration-negative)" d="M83.2 30.4a8.8 8.8 0 1 1-17.6 0 8.8 8.8 0 0 1 17.6 0Z"/><path fill="var(--illustration-gray)" d="M12.799 14.4a1.6 1.6 0 0 1 1.6-1.6h41.6a1.6 1.6 0 0 1 1.6 1.6v67.2a1.6 1.6 0 0 1-1.6 1.6h-41.6a1.6 1.6 0 0 1-1.6-1.6V14.4Z"/><path fill="var(--illustration-primary)" d="M57.597 22.4h-44.8v51.2h44.8V22.4Z"/><path fill="var(--illustration-black)" d="M30.398 78.4a1.6 1.6 0 0 1 1.6-1.6h6.4a1.6 1.6 0 1 1 0 3.2h-6.4a1.6 1.6 0 0 1-1.6-1.6Zm6.4-60.8a1.6 1.6 0 1 1-3.2 0 1.6 1.6 0 0 1 3.2 0ZM19.2 34.4a2.4 2.4 0 0 1 2.4-2.4h36v32h-36a2.4 2.4 0 0 1-2.4-2.4V34.4Z"/><path fill="var(--illustration-primary)" fill-rule="evenodd" d="M74.401 39.2v-4.8a2.4 2.4 0 0 0-2.4-2.4h-6.255a8.803 8.803 0 0 0 8.655 7.2Z" clip-rule="evenodd"/><path fill="var(--illustration-white)" fill-rule="evenodd" d="M41.6 57.6h-16V56h16v1.6Zm0-17.6h-16v-1.6h16V40Zm9.6 8.8H25.6v-1.6h25.6v1.6Z" clip-rule="evenodd"/></svg>