<svg xmlns="http://www.w3.org/2000/svg" fill="none" viewBox="0 0 96 96"><g clip-path="url(#a)"><path fill="var(--illustration-gray)" d="M44.776 51.467 76.4 83.09c-8.115 8.115-19.31 13.152-31.623 13.152-9.743 0-18.75-3.098-26.091-8.363h1.282V76.347h-8.319v5.272A44.62 44.62 0 0 1 0 51.467C0 26.7 20.01 6.69 44.776 6.69z"/><path fill="var(--illustration-primary)" d="M48.26 75.266 14.884 96.243V83.3H0V67.233h14.883V54.29z"/><path fill="var(--illustration-accent-1)" d="M96 44.776C96 20.01 75.992 0 51.226 0v44.776z"/><path fill="var(--illustration-positive)" d="M44.775 51.467 76.4 83.09c8.115-8.116 13.153-19.31 13.153-31.623z"/><path fill="var(--illustration-accent-1)" d="M51.225 0v44.776l22.388-38.76C67.036 2.24 59.34 0 51.225 0"/></g><defs><clipPath id="a"><path fill="var(--illustration-white)" d="M0 0h96v96H0z"/></clipPath></defs></svg>