<svg xmlns="http://www.w3.org/2000/svg" fill="none" viewBox="0 0 96 96"><path fill="var(--illustration-accent-1)" d="M48 96c26.52 0 48-21.48 48-48S74.52 0 48 0v96Z"/><path fill="var(--illustration-accent-1)" fill-rule="evenodd" d="M48 86.4h28.81A47.92 47.92 0 0 0 96 48H48v38.4Z" clip-rule="evenodd"/><path fill="var(--illustration-invert-2)" d="M48 0C21.48 0 0 21.48 0 48s21.48 48 48 48V0Z"/><path fill="var(--illustration-black)" d="M73.6 48 48 86.4V59.2"/><path fill="var(--illustration-primary)" fill-rule="evenodd" d="M48 0C21.48 0 0 21.48 0 48s21.48 48 48 48v-9.6A38.39 38.39 0 0 1 9.6 48 38.39 38.39 0 0 1 48 9.6V0Z" clip-rule="evenodd"/><path fill="var(--illustration-primary)" d="M48 86.4 22.4 48 48 59.2v27.2Zm0-27.2V9.6L73.6 48"/><path fill="var(--illustration-gray)" d="M48 9.6v49.6L22.4 48 48 9.6Z"/><path fill="var(--illustration-black)" d="M48.26 7.66H48v2.17h.26c20.88 0 37.82 17.1 37.82 38.24 0 21.13-16.94 38.23-37.82 38.23H48v2.17h.26c22.1 0 39.99-18.09 39.99-40.4 0-22.32-17.89-40.4-40-40.4Z"/></svg>