<svg xmlns="http://www.w3.org/2000/svg" fill="none" viewBox="0 0 96 96"><path fill="var(--illustration-gray)" d="M0 2.182C0 .977 1.023 0 2.286 0h59.428C62.977 0 64 .977 64 2.182v91.636C64 95.023 62.977 96 61.714 96H2.286C1.023 96 0 95.023 0 93.818V2.182Z"/><path fill="var(--illustration-primary)" d="M64 12H0v72h64V12Z"/><path fill="var(--illustration-black)" d="M25 89.182c0-1.205.977-2.182 2.182-2.182h8.727a2.182 2.182 0 1 1 0 4.364h-8.727A2.182 2.182 0 0 1 25 89.182ZM34 6a2 2 0 1 1-4 0 2 2 0 0 1 4 0Z"/><ellipse cx="64" cy="48.27" fill="var(--illustration-black)" rx="32" ry="31.73"/><path fill="var(--illustration-gray)" d="M64 80c17.673 0 32-14.205 32-31.728 0-17.522-14.326-31.727-32-31.727V80Z"/><ellipse cx="64" cy="48.27" fill="var(--illustration-white)" rx="27.43" ry="27.2"/><path fill="var(--illustration-primary)" d="m64 35 3.615 8.788L77 44.55l-7.15 6.192L72.034 60 64 55.038 55.966 60l2.184-9.259L51 44.55l9.385-.76L64 35Z"/></svg>