<svg xmlns="http://www.w3.org/2000/svg" fill="none" viewBox="0 0 96 96"><path fill="var(--illustration-gray)" d="M9.6 41.6a3.2 3.2 0 0 1 3.2-3.2h60.8v6.4h-64v-3.2Z"/><path fill="var(--illustration-primary)" d="M9.6 44.8v-3.2c0 1.48 1.55 3.2 3.2 3.2H9.6Zm0 0H80v41.6H12.1l-.03-.03a2.81 2.81 0 0 1-2.43-2.2l-.04-.03V44.8Z"/><path fill="var(--illustration-black)" d="M28.8 44.8h32v20.8h-32z"/><path fill="var(--illustration-gray)" d="M28.8 9.6h32v28.8h-32zm44.8 44.8h12.8v19.2H73.6V54.4Z"/><path fill="var(--illustration-black)" d="M73.6 54.4H80v19.2h-6.4V54.4Z"/><circle cx="44.8" cy="64" r="16" fill="var(--illustration-accent-1)"/><circle cx="28.8" cy="22.4" r="6.4" fill="var(--illustration-accent-2)"/><path fill="var(--illustration-primary)" d="M28.8 28.8a6.4 6.4 0 1 0 0-12.8v12.8Z"/><circle cx="44.8" cy="64" r="12" stroke="var(--illustration-black)" stroke-width="1.6"/><path fill="var(--illustration-accent-1)" d="M67.2 28.8a6.4 6.4 0 0 0-6.4 6.4 6.4 6.4 0 0 0-6.4-6.4 6.4 6.4 0 0 0 6.4-6.4 6.4 6.4 0 0 0 6.4 6.4Z"/><path fill="var(--illustration-primary)" d="M60.8 22.4v12.8a6.45 6.45 0 0 0-6.4-6.4c3.5 0 6.35-2.86 6.4-6.4Zm-32 22.4h32v-6.4h-32z"/></svg>