<svg xmlns="http://www.w3.org/2000/svg" fill="none" viewBox="0 0 96 96"><path fill="var(--illustration-black)" d="M49.93 12.046a40.667 40.667 0 0 0-3.894.001l.097 1.998a38.655 38.655 0 0 1 3.368-.016c9.247.36 17.646 4.023 24.05 9.843a38.24 38.24 0 0 1 2.606 2.61c5.733 6.322 9.367 14.584 9.8 23.684a38.739 38.739 0 0 1-.002 3.701 37.97 37.97 0 0 1-1.084 7.364l-.001.007 1.94.485.12-.492a39.827 39.827 0 0 0 1.022-7.267l.002-.04a40.564 40.564 0 0 0-.415-8.016 39.766 39.766 0 0 0-7.409-17.737 40.222 40.222 0 0 0-2.492-3.033l-.03-.033a40.269 40.269 0 0 0-9.041-7.42 39.868 39.868 0 0 0-10.845-4.495 39.787 39.787 0 0 0-7.76-1.143l-.032-.001Zm-39.902 38.47a37.994 37.994 0 0 1 1.1-7.747l.002-.007-1.94-.485a40.137 40.137 0 0 0-.762 3.852 40.17 40.17 0 0 0-.38 3.907l-.003.039a40.678 40.678 0 0 0 .416 8.017 39.8 39.8 0 0 0 3.37 11.014 39.895 39.895 0 0 0 4.038 6.723 40.22 40.22 0 0 0 11.564 10.486 39.903 39.903 0 0 0 7.087 3.357 39.682 39.682 0 0 0 7.608 1.9A40.19 40.19 0 0 0 48 92a40.6 40.6 0 0 0 1.963-.047l-.096-1.998a38.656 38.656 0 0 1-3.734 0c-9.103-.44-17.365-4.084-23.684-9.827a38.263 38.263 0 0 1-2.606-2.61c-5.81-6.406-9.464-14.805-9.815-24.05a38.719 38.719 0 0 1 0-2.952Zm.3-11.996a39.776 39.776 0 0 1 1.504-3.626l1.807.856a37.732 37.732 0 0 0-1.428 3.444l-1.883-.674Zm3.357-7.087a40.08 40.08 0 0 1 2.184-3.262l1.606 1.193a38.091 38.091 0 0 0-2.075 3.1l-1.715-1.03Zm4.676-6.295c.88-.97 1.806-1.897 2.776-2.776l1.344 1.481a38.26 38.26 0 0 0-2.638 2.638l-1.482-1.343Zm5.809-5.268a40.088 40.088 0 0 1 3.263-2.185l1.03 1.715a38.045 38.045 0 0 0-3.1 2.075l-1.192-1.606Zm6.724-4.038a39.696 39.696 0 0 1 3.626-1.504l.674 1.883a37.84 37.84 0 0 0-3.444 1.428l-.856-1.807Zm7.383-2.642a39.775 39.775 0 0 1 3.851-.762l.291 1.979a37.79 37.79 0 0 0-3.657.723l-.485-1.94Zm47.395 52.29a39.776 39.776 0 0 1-1.504 3.626l-1.808-.856a37.73 37.73 0 0 0 1.428-3.444l1.884.674Zm-3.358 7.087a40.053 40.053 0 0 1-2.184 3.262l-1.605-1.193a38.091 38.091 0 0 0 2.075-3.1l1.714 1.03Zm-4.676 6.295c-.88.97-1.806 1.897-2.776 2.776l-1.343-1.481a38.26 38.26 0 0 0 2.638-2.638l1.481 1.343Zm-5.809 5.268a40.07 40.07 0 0 1-3.262 2.185l-1.03-1.715a38.088 38.088 0 0 0 3.1-2.075l1.192 1.606Zm-6.723 4.038a39.736 39.736 0 0 1-3.626 1.504l-.674-1.883a37.761 37.761 0 0 0 3.444-1.428l.856 1.807Zm-7.384 2.642c-1.26.315-2.546.57-3.85.762l-.292-1.979c1.24-.182 2.46-.424 3.658-.723l.484 1.94Z"/><path fill="var(--illustration-gray)" d="M52 14h-8v40h8z"/><path fill="var(--illustration-gray)" d="m84 67 2.07-7.727L47.435 48.92l-2.071 7.727z"/><path fill="var(--illustration-gray)" d="M48 68V52H8v16z"/><circle r="16" fill="var(--illustration-accent-1)" transform="matrix(-1 0 0 1 48 52)"/><path fill="var(--illustration-primary)" d="M47.982 68C39.154 67.99 32 60.83 32 52h16v16h-.018Z"/><path fill="var(--illustration-white)" d="M38 51.999c5.523 0 9.999 4.477 9.999 10.001 0-5.524 4.477-10.001 10-10.001-5.523 0-10-4.477-10-9.999 0 5.522-4.476 9.999-10 9.999Z"/><circle r="8" fill="var(--illustration-primary)" transform="matrix(0 1 1 0 88 64)"/><circle r="8" fill="var(--illustration-positive)" transform="matrix(0 1 1 0 8 60)"/><path fill="var(--illustration-accent-2)" d="M48 20a8 8 0 1 0 0-16 8 8 0 0 0 0 16Z"/><path fill="var(--illustration-accent-1)" d="M4 88c4.419 0 8 3.58 8 8a8 8 0 0 1 8-8 8 8 0 0 1-8-8 8 8 0 0 1-8 8Z"/><path fill="var(--illustration-accent-2)" d="M76 8a8 8 0 0 1 8 8 8 8 0 0 1 8-8 8 8 0 0 1-8-8 8 8 0 0 1-8 8Z"/></svg>