<svg xmlns="http://www.w3.org/2000/svg" fill="none" viewBox="0 0 96 96"><g clip-path="url(#a)"><path fill="var(--illustration-gray)" d="M8 23.887 48.233 0 88 23.887 47.998 47.999z"/><path fill="var(--illustration-positive)" d="M8 47.888 48.233 24 88 47.888 47.998 72z"/><path fill="var(--illustration-primary)" d="m68.057 35.908-20.059 12.09-19.94-12.02 20.175-11.977z"/><path fill="var(--illustration-gray)" d="m8 71.888 40.233-23.887L88 71.889 47.998 96z"/><path fill="var(--illustration-primary)" d="m68.057 59.909-20.059 12.09-19.94-12.02 20.175-11.977z"/><path fill="var(--illustration-accent-1)" d="M96 8c-4.4 0-8 3.6-8 8 0-4.4-3.6-8-8-8 4.4 0 8-3.6 8-8 0 4.4 3.6 8 8 8M16 88c-4.4 0-8 3.6-8 8 0-4.4-3.6-8-8-8 4.4 0 8-3.6 8-8 0 4.4 3.6 8 8 8"/><circle cx="48" cy="48" r="16" fill="var(--illustration-accent-1)"/><circle cx="48" cy="48" r="11" stroke="var(--illustration-black)" stroke-width="2"/></g><defs><clipPath id="a"><path fill="var(--illustration-white)" d="M0 0h96v96H0z"/></clipPath></defs></svg>