<svg xmlns="http://www.w3.org/2000/svg" fill="none" viewBox="0 0 96 96"><path fill="var(--illustration-gray)" d="M8 23.887 48.233 0 88 23.887 47.998 47.998 8 23.887Z"/><path fill="var(--illustration-positive)" d="M8 47.888 48.233 24 88 47.888 47.998 71.999 8 47.888Z"/><path fill="var(--illustration-primary)" d="m68.058 35.908-20.059 12.09-19.94-12.02 20.175-11.977 19.824 11.907Z"/><path fill="var(--illustration-gray)" d="m8 71.888 40.233-23.887L88 71.888 47.998 96 8 71.888Z"/><path fill="var(--illustration-primary)" d="m68.058 59.909-20.059 12.09-19.94-12.02 20.175-11.978L68.058 59.91Z"/><path fill="var(--illustration-accent-1)" d="M96 8c-4.4 0-8 3.6-8 8 0-4.4-3.6-8-8-8 4.4 0 8-3.6 8-8 0 4.4 3.6 8 8 8ZM16 88c-4.4 0-8 3.6-8 8 0-4.4-3.6-8-8-8 4.4 0 8-3.6 8-8 0 4.4 3.6 8 8 8Z"/><circle cx="48" cy="48" r="16" fill="var(--illustration-accent-1)"/><circle cx="48" cy="48" r="11" stroke="var(--illustration-black)" stroke-width="2"/></svg>