<svg xmlns="http://www.w3.org/2000/svg" fill="none" viewBox="0 0 96 96"><path fill="var(--illustration-accent-2)" d="M12.06 65.57a18.06 18.06 0 0 0 16-4.21 24 24 0 0 0 39.88 0 17.93 17.93 0 0 0 16 4.2 40 40 0 0 1-71.88 0Z"/><path fill="var(--illustration-gray)" d="M12.06 30.48a18.06 18.06 0 0 1 16 4.2 24 24 0 0 1 39.88 0 17.93 17.93 0 0 1 16-4.2 40 40 0 0 0-71.88 0Z"/><path fill="var(--illustration-primary)" d="M80 64a16 16 0 1 0 0-32 16 16 0 0 0 0 32Z"/><path fill="var(--illustration-black)" d="M75.96 30.46a33 33 0 0 0-24.92-15.32l-7.54-4.38v4.54a33 33 0 0 0-23.46 15.16c.69.15 1.36.35 2 .58A31 31 0 0 1 43.5 17.32v3.9l7.07-4.11c9.79.8 18.29 6.15 23.38 13.93.65-.23 1.32-.43 2-.58ZM45.46 78.9l7.04-4.1v3.88a31 31 0 0 0 21.45-13.72c.65.23 1.32.43 2 .58A33 33 0 0 1 52.5 80.7v4.56l-7.58-4.4a33 33 0 0 1-24.88-15.32c.69-.15 1.36-.35 2-.58A30.98 30.98 0 0 0 45.47 78.9Z"/><path fill="var(--illustration-white)" d="M80.77 52.2a6.23 6.23 0 1 0 0-12.46 6.23 6.23 0 0 0 0 12.47Z"/><path fill="var(--illustration-black)" fill-rule="evenodd" d="M84.38 63.4a16.01 16.01 0 0 1-15.71-4.1 24 24 0 0 0 .83-1.76 8 8 0 0 1 14.88 5.85Z" clip-rule="evenodd"/><path fill="var(--illustration-positive)" d="M16 64.05a16 16 0 1 1 0-32 16 16 0 0 1 0 32Z"/><path fill="var(--illustration-black)" d="M15.23 52.2a6.23 6.23 0 1 1 0-12.46 6.23 6.23 0 0 1 0 12.47Z"/><path fill="var(--illustration-primary)" fill-rule="evenodd" d="M11.62 63.4a16.01 16.01 0 0 0 15.71-4.1 24 24 0 0 1-.83-1.76 8 8 0 0 0-14.88 5.85Z" clip-rule="evenodd"/><path fill="var(--illustration-gray)" d="M14 12a6 6 0 0 0-6-6 6 6 0 0 0 6-6 6 6 0 0 0 6 6 6 6 0 0 0-6 6Zm72 80a6 6 0 0 0-6-6 6 6 0 0 0 6-6 6 6 0 0 0 6 6 6 6 0 0 0-6 6Z"/><path fill="var(--illustration-positive)" d="M88 20a8 8 0 0 0-8-8 8 8 0 0 0 8-8 8 8 0 0 0 8 8 8 8 0 0 0-8 8Z"/><path fill="var(--illustration-accent-2)" d="M8 96a8 8 0 0 0-8-8 8 8 0 0 0 8-8 8 8 0 0 0 8 8 8 8 0 0 0-8 8Z"/></svg>