<svg xmlns="http://www.w3.org/2000/svg" fill="none" viewBox="0 0 96 96"><path fill="var(--illustration-accent-2)" d="M12.065 65.569A18.06 18.06 0 0 0 16 66c4.64 0 8.87-1.756 12.062-4.64A23.996 23.996 0 0 0 48 72a24 24 0 0 0 19.937-10.64A17.934 17.934 0 0 0 80 66a18.09 18.09 0 0 0 3.935-.431 40 40 0 0 1-71.87 0Z"/><path fill="var(--illustration-gray)" d="M12.065 30.478A18.067 18.067 0 0 1 16 30.046c4.64 0 8.87 1.756 12.062 4.64A23.996 23.996 0 0 1 48 24.046a24 24 0 0 1 19.937 10.64A17.934 17.934 0 0 1 80 30.046c1.352 0 2.668.15 3.935.432a40 40 0 0 0-71.87 0Z"/><path fill="var(--illustration-primary)" d="M80 64c8.837 0 16-7.163 16-16s-7.163-16-16-16-16 7.163-16 16 7.163 16 16 16Z"/><path fill="var(--illustration-black)" d="M75.956 30.456c-5.332-8.477-14.413-14.359-24.917-15.318L43.5 10.761v4.543c-9.882 1.348-18.372 7.07-23.455 15.152.683.157 1.35.353 2.002.585 4.757-7.266 12.482-12.412 21.453-13.717v3.888l7.073-4.107c9.787.804 18.286 6.155 23.381 13.936a17.84 17.84 0 0 1 2.002-.585Zm-30.5 48.441 7.044-4.09v3.869c8.971-1.305 16.697-6.451 21.454-13.717.65.232 1.319.428 2.002.585-5.083 8.082-13.573 13.804-23.456 15.152v4.562l-7.578-4.4c-10.487-.97-19.552-6.847-24.877-15.314.683-.157 1.35-.353 2.002-.585 5.099 7.789 13.61 13.142 23.409 13.938Z"/><path fill="var(--illustration-white)" d="M80.77 52.206a6.23 6.23 0 1 0 0-12.461 6.23 6.23 0 0 0 0 12.461Z"/><path fill="var(--illustration-black)" fill-rule="evenodd" d="M84.385 63.392a16.01 16.01 0 0 1-4.386.608 15.95 15.95 0 0 1-11.331-4.704c.3-.572.577-1.158.831-1.757a8 8 0 0 1 14.886 5.852Z" clip-rule="evenodd"/><path fill="var(--illustration-positive)" d="M16 64.046c-8.837 0-16-7.163-16-16 0-8.836 7.163-16 16-16s16 7.164 16 16c0 8.837-7.163 16-16 16Z"/><path fill="var(--illustration-black)" d="M15.23 52.206a6.23 6.23 0 1 1 0-12.461 6.23 6.23 0 0 1 0 12.461Z"/><path fill="var(--illustration-primary)" fill-rule="evenodd" d="M11.616 63.392A16.01 16.01 0 0 0 16 64a15.95 15.95 0 0 0 11.331-4.704c-.3-.572-.577-1.158-.831-1.757a8 8 0 0 0-14.885 5.852Z" clip-rule="evenodd"/><path fill="var(--illustration-gray)" d="M14 12a6 6 0 0 0-6-6 6 6 0 0 0 6-6 6 6 0 0 0 6 6 6 6 0 0 0-6 6Zm72 80a6 6 0 0 0-6-6 6 6 0 0 0 6-6 6 6 0 0 0 6 6 6 6 0 0 0-6 6Z"/><path fill="var(--illustration-positive)" d="M88 20a8 8 0 0 0-8-8 8 8 0 0 0 8-8 8 8 0 0 0 8 8 8 8 0 0 0-8 8Z"/><path fill="var(--illustration-accent-2)" d="M8 96a8 8 0 0 0-8-8 8 8 0 0 0 8-8 8 8 0 0 0 8 8 8 8 0 0 0-8 8Z"/></svg>