<svg xmlns="http://www.w3.org/2000/svg" fill="none" viewBox="0 0 96 96"><path fill="var(--illustration-gray)" fill-rule="evenodd" d="M36.978 21.392A28.8 28.8 0 0 1 47.999 19.2V48h28.8a28.8 28.8 0 1 1-39.821-26.608Z" clip-rule="evenodd"/><path fill="var(--illustration-accent-1)" d="M80 48a32 32 0 0 0-32-32v19.418A12.582 12.582 0 0 1 60.582 48H80Z"/><path fill="var(--illustration-gray)" d="M83.2 48A35.201 35.201 0 0 0 48 12.8v21.36A13.842 13.842 0 0 1 61.84 48H83.2Z"/><path fill="var(--illustration-primary)" d="M76.8 48A28.799 28.799 0 0 0 48 19.2v17.476A11.324 11.324 0 0 1 59.324 48H76.8Z"/><path fill="var(--illustration-invert-2)" d="M68 48c0 11.046-8.954 20-20 20s-20-8.954-20-20 8.954-20 20-20 20 8.954 20 20Z"/><path fill="var(--illustration-invert)" fill-rule="evenodd" d="M47.2 41.6h1.6v6.069l4.565 4.565-1.132 1.132L47.2 48.33V41.6Z" clip-rule="evenodd"/><path fill="var(--illustration-invert)" fill-rule="evenodd" d="M47.998 36c-6.627 0-12 5.373-12 12s5.373 12 12 12v1.6c-7.51 0-13.6-6.089-13.6-13.6 0-7.511 6.09-13.6 13.6-13.6h2V36h-2Z" clip-rule="evenodd"/><path fill="var(--illustration-invert)" fill-rule="evenodd" d="m51.531 35.314-3.774 3.66-1.114-1.148 2.625-2.546-2.642-2.723 1.148-1.114 3.757 3.871Z" clip-rule="evenodd"/></svg>