<svg xmlns="http://www.w3.org/2000/svg" fill="none" viewBox="0 0 96 96"><path fill="var(--illustration-gray)" fill-rule="evenodd" d="M27.162 11.35A44 44 0 0 1 44 8v44h44a44 44 0 1 1-60.838-40.65Z" clip-rule="evenodd"/><path fill="var(--illustration-gray)" d="M95 52c0-6.697-1.32-14.33-3.882-20.517A51 51 0 0 0 44 0v30.947a20.053 20.053 0 0 1 18.527 12.379c1.007 2.433 1.526 6.04 1.526 8.674H95Z"/><path fill="var(--illustration-primary)" d="M88 52A44 44 0 0 0 44 8v26.7A17.301 17.301 0 0 1 61.3 52H88Z"/><path fill="var(--illustration-white)" d="M74 52c0 16.569-13.431 30-30 30-16.569 0-30-13.431-30-30 0-16.569 13.431-30 30-30 16.569 0 30 13.431 30 30Z"/><path fill="var(--illustration-black)" fill-rule="evenodd" d="M43 43h2.076v9.284L51 59.27 49.532 61 43 53.298V43Z" clip-rule="evenodd"/><path fill="var(--illustration-black)" fill-rule="evenodd" d="M42.923 33.412c-10.196 0-18.462 8.098-18.462 18.088S34 69.588 44 69.588V72c-12 0-22-9.178-22-20.5S31.368 31 42.923 31H46v2.412h-3.077Z" clip-rule="evenodd"/><path fill="var(--illustration-black)" fill-rule="evenodd" d="M48 32.168 42.614 38l-1.59-1.83 3.747-4.056L41 27.776 42.638 26 48 32.168Z" clip-rule="evenodd"/></svg>