<svg xmlns="http://www.w3.org/2000/svg" fill="none" viewBox="0 0 96 96"><path fill="var(--illustration-gray)" d="M12.8 32h70.4v44.8H12.8V32Z"/><path fill="var(--illustration-gray)" d="M19.2 38.4h57.6v44.8H19.2V38.4Z"/><path fill="var(--illustration-primary)" fill-rule="evenodd" d="M76.8 76.8H19.2V38.4h57.6v38.4Z" clip-rule="evenodd"/><path fill="var(--illustration-primary)" d="M12.8 19.2h70.4V32H12.8V19.2Z"/><path fill="var(--illustration-invert)" fill-rule="evenodd" d="M26.4 12.8v12.8h-1.6V12.8h1.6Zm6.4 0v12.8h-1.6V12.8h1.6Zm12.8 0v12.8H44V12.8h1.6Zm6.4 0v12.8h-1.6V12.8H52Zm12.6 0v12.8h-1.2V12.8h1.2Zm6.6 0v12.8h-1.6V12.8h1.6Z" clip-rule="evenodd"/><path fill="var(--illustration-white)" fill-rule="evenodd" d="m55.415 50.654 1.17 1.092L44.8 64.373l-6.185-6.627 1.17-1.092 5.015 5.374 10.615-11.374Z" clip-rule="evenodd"/></svg>