<svg xmlns="http://www.w3.org/2000/svg" fill="none" viewBox="0 0 96 96"><path fill="var(--illustration-gray)" d="M0 24h95.999v64H0z"/><path fill="var(--illustration-gray)" d="M8 35h80v61H8z"/><path fill="var(--illustration-primary)" fill-rule="evenodd" d="M88 88H8V32h80z" clip-rule="evenodd"/><path fill="var(--illustration-primary)" d="M0 8h95.999v16H0z"/><path fill="var(--illustration-black)" fill-rule="evenodd" d="M44 .001v17h-2V0zm28 0v17h-2V0zm-56 0v17h-2V0zm38 0v17h-2V0zm28 0v17h-2V0zm-56 0v17h-2V0z" clip-rule="evenodd"/><path fill="var(--illustration-white)" fill-rule="evenodd" d="M58.372 51 60 52.434 43.604 69 35 60.306l1.627-1.433 6.977 7.05z" clip-rule="evenodd"/></svg>