<svg xmlns="http://www.w3.org/2000/svg" fill="none" viewBox="0 0 96 96"><g clip-path="url(#a)"><path fill="var(--illustration-accent-1)" d="M64 40a16 16 0 1 1-32 0 16 16 0 0 1 32 0Z"/><path fill="var(--illustration-invert)" fill-rule="evenodd" d="M72 40a24 24 0 1 1-48 0 24 24 0 0 1 48 0ZM48 62a22 22 0 1 0 0-44 22 22 0 0 0 0 44Z" clip-rule="evenodd"/><path fill="var(--illustration-gray)" d="M0 64h96v24H0V64Z"/><path fill="var(--illustration-gray)" fill-rule="evenodd" d="M48 0a40 40 0 0 1 40 40h-8a32 32 0 0 0-64 0H8A40 40 0 0 1 48 0ZM16 64c7.3 9.72 18.92 16 32 16 13.08 0 24.7-6.28 32-16V40a32 32 0 0 1-64 0v24Z" clip-rule="evenodd"/><path fill="var(--illustration-gray)" d="M16 96h64v-8H16v8Z"/><path fill="var(--illustration-primary)" d="M16 40h64v48H16V40Z"/><path fill="var(--illustration-black)" d="M52 60.5a4 4 0 1 1-8 0 4 4 0 0 1 8 0Z"/><path fill="var(--illustration-black)" fill-rule="evenodd" d="M47 80V62.74h2V80h-2Z" clip-rule="evenodd"/></g><defs><clipPath id="a"><path fill="var(--illustration-white)" d="M0 0h96v96H0z"/></clipPath></defs></svg>