<svg xmlns="http://www.w3.org/2000/svg" fill="none" viewBox="0 0 96 96"><path fill="var(--illustration-positive)" d="M0 48h47.2v48H0V48Z"/><path fill="var(--illustration-primary)" fill-rule="evenodd" d="M47.2 96C21.06 95.58 0 74.603 0 48.787c0-.263.002-.525.007-.787H47.2v48Z" clip-rule="evenodd"/><path fill="var(--illustration-gray)" d="M96 47.2h-.007c.005.266.007.533.007.8 0 26.242-21.06 47.566-47.2 47.993V96H96V47.2Z"/><path fill="var(--illustration-black)" fill-rule="evenodd" d="M48 0C21.49 0 0 21.49 0 48s21.49 48 48 48 48-21.49 48-48S74.51 0 48 0ZM29.609 15.364C34.212 7.452 40.345 2.642 46.955 2.183v22.489H25.427c1.163-3.415 2.572-6.542 4.182-9.308Zm19.436 78.455V2.28c6.617.458 12.756 5.258 17.362 13.153 4.743 8.128 7.743 19.365 7.853 31.851H58.81l5.322-5.322-1.477-1.477-7.844 7.844 7.844 7.844 1.477-1.477-5.322-5.323h15.42c-.207 12.25-3.182 23.261-7.838 31.264-4.603 7.911-10.737 12.721-17.347 13.18ZM68.212 14.38c-2.826-4.843-6.3-8.726-10.232-11.204 20.334 4.507 35.596 22.497 35.925 44.108H76.35c-.11-12.793-3.18-24.407-8.138-32.904ZM37.81 3.224C25.33 6.052 14.778 13.965 8.449 24.672h14.775c1.246-3.799 2.789-7.282 4.579-10.359 2.771-4.763 6.168-8.6 10.008-11.09ZM21.758 48c0-7.675 1.087-14.897 2.998-21.24h22.2v42.478H24.75c-1.901-6.271-2.99-13.406-3.014-20.99h.021V48Zm.82-21.24c-1.845 6.338-2.886 13.464-2.908 20.99h-.022v.248c0 7.62 1.049 14.834 2.923 21.24H7.287A45.711 45.711 0 0 1 2.089 48a45.711 45.711 0 0 1 5.198-21.24h15.29Zm45.62 54.927c4.869-8.369 7.914-19.754 8.122-32.314h17.57c-.624 21.242-15.677 38.863-35.697 43.401 3.839-2.489 7.234-6.325 10.005-11.087Zm-38.605-1.123c-1.603-2.747-3.007-5.85-4.168-9.236h21.53v22.389c-6.617-.458-12.756-5.259-17.362-13.153Zm8.43 12.259c-12.574-2.786-23.21-10.729-29.574-21.495h14.772c1.244 3.772 2.783 7.232 4.567 10.289 2.827 4.844 6.303 8.728 10.235 11.206Z" clip-rule="evenodd"/></svg>