<svg xmlns="http://www.w3.org/2000/svg" fill="none" viewBox="0 0 96 96"><path fill="var(--illustration-positive)" d="M0 48h88v48H0V48Z"/><path fill="var(--illustration-gray)" d="M56 48a24 24 0 1 1-48 0 24 24 0 0 1 48 0Z"/><path fill="var(--illustration-primary)" fill-rule="evenodd" d="M32 72a24 24 0 0 0 24-24H8a24 24 0 0 0 24 24Z" clip-rule="evenodd"/><path fill="var(--illustration-gray)" d="M96 64H76a12 12 0 0 0 0 24h20V64Z"/><path fill="var(--illustration-primary)" fill-rule="evenodd" d="M88 64v24H76a12 12 0 0 1 0-24h12Z" clip-rule="evenodd"/><path fill="var(--illustration-gray)" d="M44 12a12 12 0 1 1-24 0 12 12 0 0 1 24 0Z"/><path fill="var(--illustration-black)" fill-rule="evenodd" d="M32 33a15 15 0 1 0 0 30 15 15 0 0 0 0-30ZM15 48a17 17 0 1 1 34 0 17 17 0 0 1-34 0Zm61 23a5 5 0 1 0 0 10 5 5 0 0 0 0-10Zm-7 5a7 7 0 1 1 14 0 7 7 0 0 1-14 0Z" clip-rule="evenodd"/></svg>