<svg xmlns="http://www.w3.org/2000/svg" fill="none" viewBox="0 0 96 96"><path fill="var(--illustration-gray)" d="M70.4 38.316h3.2v25.681h-3.2v-25.68Z"/><path fill="var(--illustration-gray)" d="M73.6 28.797h3.2v35.2h-3.2v-35.2Zm3.2 16H80v19.2h-3.2v-19.2Zm3.2-9.68h3.2v28.88H80v-28.88ZM12.8 41.6H16v16h-3.2v-16Zm3.2-6.32h3.2V57.6H16V35.28Zm3.2 9.52h3.2v12.8h-3.2V44.8Zm3.2-6.4h3.2v19.2h-3.2V38.4Zm-9.6-12.8c0-7.069 5.732-12.8 12.8-12.8h44.8c7.07 0 12.8 5.731 12.8 12.8H12.8Z"/><path fill="var(--illustration-positive)" d="M35.402 25.6h25.6v44.8h-25.6V25.6Z"/><path fill="var(--illustration-accent-1)" d="M61.002 70.4c0 7.07-5.73 12.8-12.8 12.8-7.069 0-12.8-5.73-12.8-12.8s5.731-12.8 12.8-12.8c7.07 0 12.8 5.73 12.8 12.8Z"/><path fill="var(--illustration-accent-2)" d="M61.002 25.6c0 7.07-5.73 12.8-12.8 12.8-7.069 0-12.8-5.73-12.8-12.8s5.731-12.8 12.8-12.8c7.07 0 12.8 5.73 12.8 12.8Z"/><path fill="var(--illustration-primary)" fill-rule="evenodd" d="M48.202 12.8c-7.069 0-12.8 5.73-12.8 12.8h25.6c0-7.07-5.73-12.8-12.8-12.8Z" clip-rule="evenodd"/><path fill="var(--illustration-black)" fill-rule="evenodd" d="M47.402 56.044V25.601h1.6v30.443h-1.6Z" clip-rule="evenodd"/><path fill="var(--illustration-black)" fill-rule="evenodd" d="m42.46 50.336 1.245-1.006 4.516 5.59 4.05-5.558 1.293.942-5.277 7.243-5.826-7.211Z" clip-rule="evenodd"/><path fill="var(--illustration-accent-2)" d="M25.6 57.793a6.4 6.4 0 1 1-12.799 0 6.4 6.4 0 0 1 12.8 0Z"/><path fill="var(--illustration-primary)" fill-rule="evenodd" d="M19.2 51.393a6.4 6.4 0 0 0-6.4 6.4h12.8a6.4 6.4 0 0 0-6.4-6.4Z" clip-rule="evenodd"/><path fill="var(--illustration-positive)" d="M83.2 64a6.4 6.4 0 1 1-12.8 0 6.4 6.4 0 0 1 12.8 0Z"/><path fill="var(--illustration-black)" fill-rule="evenodd" d="M76.8 57.6a6.4 6.4 0 0 0-6.4 6.4h12.8a6.4 6.4 0 0 0-6.4-6.4Zm-26.314 6.408 1.132 1.131-4.736 4.735h6.101l-6.965 6.966-1.132-1.131 4.235-4.235h-6.102l7.467-7.466Z" clip-rule="evenodd"/></svg>