<svg xmlns="http://www.w3.org/2000/svg" fill="none" viewBox="0 0 97 96"><path fill="var(--illustration-gray)" fill-rule="evenodd" d="m10.618 30.827 57.6-28.8L85.39 36.373l-57.6 28.8c-9.484 4.742-21.017.897-25.759-8.587s-.898-21.017 8.587-25.76" clip-rule="evenodd"/><path fill="var(--illustration-accent-2)" fill-rule="evenodd" d="m10.618 65.173 57.6 28.8L85.39 59.627l-57.6-28.8c-9.484-4.742-21.017-.898-25.759 8.586s-.898 21.018 8.587 25.76" clip-rule="evenodd"/><path fill="var(--illustration-primary)" fill-rule="evenodd" d="m10.791 30.74-.173.087a19.2 19.2 0 0 0-5 3.598 19.2 19.2 0 0 0-4.012 5.897A19.3 19.3 0 0 0 0 48a19.3 19.3 0 0 0 2.031 8.586 19.2 19.2 0 0 0 3.598 4.999 19.2 19.2 0 0 0 4.989 3.588l.173.086c5.185 2.523 11.444 2.692 17-.086L62.137 48 27.79 30.827c-5.556-2.778-11.815-2.61-17-.087" clip-rule="evenodd"/><path fill="var(--illustration-primary)" d="M19.208 35.2a12.8 12.8 0 0 0 0 25.6 12.76 12.76 0 0 0 9.475-4.195c.29-.291.535-.617.782-.946a12 12 0 0 0 1.272-2.109A12.8 12.8 0 0 0 32.008 48a12.8 12.8 0 0 0-12.8-12.8"/><path fill="var(--illustration-accent-1)" d="M76.803 0a19.2 19.2 0 1 0 0 38.4 19.15 19.15 0 0 0 14.212-6.292c.436-.437.803-.925 1.174-1.419a18 18 0 0 0 1.907-3.163 19.14 19.14 0 0 0 1.907-8.326A19.2 19.2 0 0 0 76.803 0"/><path fill="var(--illustration-primary)" fill-rule="evenodd" d="M76.803 0v38.4a19.2 19.2 0 0 1 0-38.4" clip-rule="evenodd"/><path fill="var(--illustration-accent-1)" d="M76.803 57.6a19.2 19.2 0 1 0 0 38.4 19.15 19.15 0 0 0 14.212-6.293c.436-.436.803-.924 1.174-1.418a18 18 0 0 0 1.907-3.163 19.14 19.14 0 0 0 1.907-8.326 19.2 19.2 0 0 0-19.2-19.2"/><path fill="var(--illustration-primary)" fill-rule="evenodd" d="M76.803 57.6V96a19.2 19.2 0 0 1 0-38.4" clip-rule="evenodd"/><path fill="var(--illustration-black)" fill-rule="evenodd" d="M76.804 8.2c-6.075 0-11 4.925-11 11s4.925 11 11 11 11-4.925 11-11-4.925-11-11-11m-13 11c0-7.18 5.82-13 13-13s13 5.82 13 13-5.82 13-13 13-13-5.82-13-13m13 46.6c-6.075 0-11 4.924-11 11s4.925 11 11 11 11-4.925 11-11-4.925-11-11-11m-13 11c0-7.18 5.82-13 13-13s13 5.82 13 13-5.82 13-13 13-13-5.82-13-13M19.004 37c-6.075 0-11 4.925-11 11s4.925 11 11 11 11-4.925 11-11-4.925-11-11-11m-13 11c0-7.18 5.82-13 13-13s13 5.82 13 13-5.82 13-13 13-13-5.82-13-13" clip-rule="evenodd"/></svg>