<svg xmlns="http://www.w3.org/2000/svg" fill="none" viewBox="0 0 97 97"><path fill="var(--illustration-gray)" d="M0 51.733v38.8h36.375v-38.8H0Z"/><path fill="var(--illustration-black)" d="m25.867 71.133 10.059 19.4h25.148l10.06-19.4-10.06-19.4H35.926l-10.06 19.4Z"/><path fill="var(--illustration-primary)" fill-rule="evenodd" d="m48.5 71.133 12.574 19.4H35.926l-10.06-19.4 10.06-19.4h25.148L48.5 71.133Z" clip-rule="evenodd"/><path fill="var(--illustration-accent-1)" fill-rule="evenodd" d="m48.5 71.133-12.574-19.4h25.148l10.06 19.4-10.06 19.4H35.926l12.574-19.4Z" clip-rule="evenodd"/><path fill="var(--illustration-white)" d="m36.375 71.133 5.389 10.509h13.472l5.389-10.509-5.389-10.508H41.764l-5.389 10.508Z"/><path fill="var(--illustration-black)" d="m48.5 67.496 3.233 1.819v3.637L48.5 74.771l-3.233-1.819v-3.638l3.233-1.818Z"/><path fill="var(--illustration-gray)" d="M97 45.267v-38.8H60.625v38.8H97Z"/><path fill="var(--illustration-black)" d="m71.133 25.867-10.059-19.4H35.926l-10.06 19.4 10.06 19.4h25.148l10.06-19.4Z"/><path fill="var(--illustration-primary)" fill-rule="evenodd" d="m48.5 25.867-12.574-19.4h25.148l10.06 19.4-10.06 19.4H35.926l12.574-19.4Z" clip-rule="evenodd"/><path fill="var(--illustration-gray)" fill-rule="evenodd" d="m48.5 25.867 12.574 19.4H35.926l-10.06-19.4 10.06-19.4h25.148L48.5 25.867Z" clip-rule="evenodd"/><path fill="var(--illustration-white)" d="m36.375 25.867 5.389 10.508h13.472l5.389-10.508-5.389-10.509H41.764l-5.389 10.509Z"/><path fill="var(--illustration-black)" fill-rule="evenodd" d="M49.51 0v6.467h-2.02V0h2.02Zm0 15.354v36.378h-2.02V15.354h2.02Zm0 45.268V97h-2.02V60.622h2.02Z" clip-rule="evenodd"/><path fill="var(--illustration-black)" d="m48.5 22.229 3.233 1.819v3.637L48.5 29.504l-3.233-1.819v-3.637l3.233-1.82Z"/></svg>