<svg xmlns="http://www.w3.org/2000/svg" fill="none" viewBox="0 0 97 97"><path fill="var(--illustration-gray)" d="M0 51.733v38.8h36.375v-38.8z"/><path fill="var(--illustration-black)" d="m25.866 71.133 10.059 19.4h25.148l10.06-19.4-10.06-19.4H35.925z"/><path fill="var(--illustration-primary)" fill-rule="evenodd" d="m48.5 71.133 12.573 19.4H35.925l-10.06-19.4 10.06-19.4h25.149z" clip-rule="evenodd"/><path fill="var(--illustration-accent-1)" fill-rule="evenodd" d="m48.5 71.133-12.573-19.4h25.148l10.06 19.4-10.06 19.4H35.926z" clip-rule="evenodd"/><path fill="var(--illustration-invert-2)" d="m36.374 71.133 5.39 10.509h13.471l5.39-10.509-5.39-10.508H41.763z"/><path fill="var(--illustration-invert)" d="m48.5 67.496 3.233 1.819v3.637L48.5 74.771l-3.233-1.819v-3.638z"/><path fill="var(--illustration-gray)" d="M97 45.267v-38.8H60.625v38.8z"/><path fill="var(--illustration-black)" d="m71.134 25.867-10.059-19.4H35.927l-10.06 19.4 10.06 19.4h25.148z"/><path fill="var(--illustration-primary)" fill-rule="evenodd" d="m48.5 25.867-12.573-19.4h25.148l10.06 19.4-10.06 19.4H35.926z" clip-rule="evenodd"/><path fill="var(--illustration-gray)" fill-rule="evenodd" d="m48.5 25.867 12.573 19.4H35.925l-10.06-19.4 10.06-19.4h25.149z" clip-rule="evenodd"/><path fill="var(--illustration-invert-2)" d="m36.374 25.867 5.39 10.508h13.471l5.39-10.508-5.39-10.508H41.763z"/><path fill="var(--illustration-invert)" fill-rule="evenodd" d="M49.51 0v6.467h-2.021V0zm0 15.354v36.378h-2.021V15.354zm0 45.268V97h-2.021V60.622z" clip-rule="evenodd"/><path fill="var(--illustration-invert)" d="m48.5 22.229 3.233 1.819v3.637L48.5 29.504l-3.233-1.819v-3.637z"/></svg>