<svg xmlns="http://www.w3.org/2000/svg" fill="none" viewBox="0 0 96 96"><path fill="var(--illustration-gray)" fill-rule="evenodd" d="M12.77 70.4h48.16V25.6H12.77V32H25.6v6.4H32v6.4H12.8v-6.4h-.03v32Zm.03-12.8h6.4v-6.4h-6.4v6.4ZM32 64h-6.4v-6.4H32V64Z" clip-rule="evenodd"/><path fill="var(--illustration-primary)" d="M60.8 70.4a22.4 22.4 0 1 0 0-44.8 22.4 22.4 0 0 0 0 44.8Z"/><path fill="var(--illustration-black)" d="M38.4 48c0 12.4 10 22.4 22.4 22.4h.16V25.6h-.16c-12.4 0-22.4 10-22.4 22.4Z"/><path fill="var(--illustration-white)" d="m72.16 48.16-8.56 2.56-2.64 8.64-2.64-8.64-8.56-2.56 8.56-2.64 2.64-8.56 2.64 8.56 8.56 2.64Z"/><path fill="var(--illustration-invert)" fill-rule="evenodd" d="M82.4 24.8h-8v-1.6h8v1.6Z" clip-rule="evenodd"/><path fill="var(--illustration-invert)" fill-rule="evenodd" d="M77.6 28v-8h1.6v8h-1.6Z" clip-rule="evenodd"/></svg>