<svg xmlns="http://www.w3.org/2000/svg" fill="none" viewBox="0 0 96 96"><path fill="var(--illustration-invert)" d="M74.391 9H21.552l10.392 41.9-1.942.482L21 15.08v36.808h-2V15.376l-8.93 36.006-1.94-.482L18.98 7.142l.032.008V7h57.973v.24L87.814 50.9l-1.94.482L76.87 15.08v36.808h-2V15.376l-8.93 36.006L64 50.9z"/><path fill="var(--illustration-positive)" d="M40 52a20 20 0 1 1-40 0z"/><path fill="var(--illustration-primary)" d="M96 52a20 20 0 1 1-40 0z"/><path fill="var(--illustration-accent-2)" d="M32 52c0 6.627-5.373 12-12 12S8 58.627 8 52s5.373-12 12-12 12 5.373 12 12"/><path fill="var(--illustration-accent-1)" d="M88 52c0 6.627-5.373 12-12 12s-12-5.373-12-12 5.373-12 12-12 12 5.373 12 12"/><path fill="var(--illustration-primary)" d="M20 64c6.627 0 12-5.373 12-12H8c0 6.627 5.373 12 12 12"/><path fill="var(--illustration-black)" d="M76 64c6.627 0 12-5.373 12-12H64c0 6.627 5.373 12 12 12"/><path fill="var(--illustration-gray)" d="M41.6 6.4C41.6 2.88 44.48 0 48 0s6.4 2.88 6.4 6.4a6.41 6.41 0 0 1-3.2 5.537v68.382C58.512 81.797 64 88.246 64 96H32c0-7.754 5.488-14.203 12.8-15.681V11.937A6.41 6.41 0 0 1 41.6 6.4"/></svg>