<svg xmlns="http://www.w3.org/2000/svg" fill="none" viewBox="0 0 96 96"><path fill="var(--illustration-invert)" d="M74.4 9H21.54l10.4 41.9-1.95.48-9-36.3v36.8h-2v-36.5l-8.93 36-1.94-.48L18.98 7.14l.03.01V7H77v.24L87.8 50.9l-1.94.48-9-36.3v36.8h-2v-36.5l-8.93 36L64 50.9 74.4 9Z"/><path fill="var(--illustration-positive)" d="M40 52a20 20 0 1 1-40 0h40Z"/><path fill="var(--illustration-primary)" d="M96 52a20 20 0 1 1-40 0h40Z"/><path fill="var(--illustration-accent-2)" d="M32 52a12 12 0 1 1-24 0 12 12 0 0 1 24 0Z"/><path fill="var(--illustration-accent-1)" d="M88 52a12 12 0 1 1-24 0 12 12 0 0 1 24 0Z"/><path fill="var(--illustration-primary)" d="M20 64a12 12 0 0 0 12-12H8a12 12 0 0 0 12 12Z"/><path fill="var(--illustration-black)" d="M76 64a12 12 0 0 0 12-12H64a12 12 0 0 0 12 12Z"/><path fill="var(--illustration-gray)" d="M41.6 6.4C41.6 2.88 44.48 0 48 0c3.52 0 6.4 2.88 6.4 6.4 0 2.36-1.3 4.43-3.2 5.54v68.38A15.98 15.98 0 0 1 64 96H32c0-7.75 5.49-14.2 12.8-15.68V11.94a6.41 6.41 0 0 1-3.2-5.54Z"/></svg>