<svg xmlns="http://www.w3.org/2000/svg" fill="none" viewBox="0 0 96 96"><g clip-path="url(#a)"><path fill="var(--illustration-gray)" d="M7.998 0H88v96H8z"/><path fill="var(--illustration-gray)" d="M-.002 16h96.001v64H-.002z"/><path fill="var(--illustration-black)" d="M48 16h40v64H48z"/><path fill="var(--illustration-primary)" d="M8 16h40v64H8z"/><path fill="var(--illustration-negative)" d="M64 64h16.001v8H64z"/><path fill="var(--illustration-positive)" d="M64 32h16v-8H64z"/><path fill="var(--illustration-negative)" d="M64 56h8v8h-8z"/><path fill="var(--illustration-positive)" d="M64 40h8v-8h-8z"/><path fill="var(--illustration-white)" fill-rule="evenodd" d="M47 96V0h2v96z" clip-rule="evenodd"/><path fill="var(--illustration-accent-1)" d="M36 48c0 6.075-4.925 11-11 11s-11-4.925-11-11 4.925-11 11-11 11 4.925 11 11"/><path fill="var(--illustration-accent-1)" d="M33 48a8 8 0 1 1-16 0 8 8 0 0 1 16 0"/><path fill="var(--illustration-black)" fill-rule="evenodd" d="M25 54a6 6 0 1 0 0-12 6 6 0 0 0 0 12m0 2a8 8 0 1 0 0-16 8 8 0 0 0 0 16" clip-rule="evenodd"/><path fill="var(--illustration-white)" d="M40 48a4 4 0 0 0 4 4h8a4 4 0 0 0 0-8h-8a4 4 0 0 0-4 4"/></g><defs><clipPath id="a"><path fill="var(--illustration-white)" d="M0 0h96v96H0z"/></clipPath></defs></svg>