<svg xmlns="http://www.w3.org/2000/svg" fill="none" viewBox="0 0 96 96"><path fill="var(--illustration-primary)" d="M96 64c0 17.673-14.327 32-32 32S32 81.673 32 64s14.327-32 32-32 32 14.327 32 32"/><path fill="var(--illustration-accent-1)" d="M64 32c0 17.673-14.327 32-32 32S0 49.673 0 32 14.327 0 32 0s32 14.327 32 32"/><path fill="var(--illustration-black)" d="M64 32c0 17.673-14.327 32-32 32 0-17.673 14.327-32 32-32"/><path fill="var(--illustration-white)" d="M31.918 16.666c-3.263 6.291-8.15 11.554-14.082 15.193 5.933 3.64 10.819 8.902 14.082 15.194 3.263-6.292 8.149-11.554 14.081-15.194-5.932-3.64-10.818-8.902-14.081-15.193"/><path fill="var(--illustration-black)" fill-rule="evenodd" d="M63.5 87.792c13.416 0 24.292-10.876 24.292-24.292S76.916 39.208 63.5 39.208 39.208 50.084 39.208 63.5 50.084 87.792 63.5 87.792m0 2.208C78.135 90 90 78.135 90 63.5S78.135 37 63.5 37 37 48.865 37 63.5 48.865 90 63.5 90" clip-rule="evenodd"/><path fill="var(--illustration-black)" fill-rule="evenodd" d="M31.5 55.792c13.416 0 24.292-10.876 24.292-24.292S44.916 7.208 31.5 7.208 7.208 18.084 7.208 31.5 18.084 55.792 31.5 55.792m0 2.208C46.136 58 58 46.136 58 31.5S46.136 5 31.5 5 5 16.865 5 31.5 16.865 58 31.5 58" clip-rule="evenodd"/><path fill="var(--illustration-white)" d="M54 63.5a9.5 9.5 0 1 1 19 0 9.5 9.5 0 0 1-19 0"/><path fill="var(--illustration-black)" fill-rule="evenodd" d="M67.234 17 71 13.502 69.383 12 64 17l5.383 5L71 20.498zM28.766 79 25 82.498 26.617 84 32 79l-5.383-5L25 75.502z" clip-rule="evenodd"/><path fill="var(--illustration-black)" fill-rule="evenodd" d="M78 18H67v-2h13v16h-2zM18 78h11v2H16V64h2z" clip-rule="evenodd"/></svg>