<svg xmlns="http://www.w3.org/2000/svg" fill="none" viewBox="0 0 96 96"><path fill="var(--illustration-primary)" d="M96 64c0 17.673-14.327 32-32 32-17.673 0-32-14.327-32-32 0-17.673 14.327-32 32-32 17.673 0 32 14.327 32 32Z"/><path fill="var(--illustration-accent-1)" d="M64 32c0 17.673-14.327 32-32 32C14.327 64 0 49.673 0 32 0 14.327 14.327 0 32 0c17.673 0 32 14.327 32 32Z"/><path fill="var(--illustration-black)" d="M64 32c0 17.673-14.327 32-32 32 0-17.673 14.327-32 32-32Z"/><path fill="var(--illustration-white)" d="M31.919 16.666c-3.263 6.291-8.15 11.554-14.082 15.193 5.933 3.64 10.819 8.902 14.082 15.194C35.182 40.76 40.068 35.499 46 31.859c-5.932-3.64-10.818-8.902-14.081-15.193Z"/><path fill="var(--illustration-black)" fill-rule="evenodd" d="M63.5 87.791c13.416 0 24.292-10.875 24.292-24.291S76.916 39.208 63.5 39.208c-13.416 0-24.291 10.876-24.291 24.292 0 13.416 10.875 24.291 24.291 24.291Zm0 2.209C78.136 90 90 78.135 90 63.5 90 48.864 78.136 37 63.5 37 48.865 37 37 48.864 37 63.5 37 78.135 48.865 90 63.5 90Z" clip-rule="evenodd"/><path fill="var(--illustration-black)" fill-rule="evenodd" d="M31.5 55.792c13.416 0 24.292-10.876 24.292-24.292 0-13.416-10.876-24.29-24.292-24.29C18.084 7.209 7.21 18.084 7.21 31.5S18.084 55.792 31.5 55.792Zm0 2.208C46.136 58 58 46.136 58 31.5 58 16.865 46.136 5 31.5 5 16.865 5 5 16.865 5 31.5 5 46.136 16.865 58 31.5 58Z" clip-rule="evenodd"/><path fill="var(--illustration-white)" d="M54 63.5a9.5 9.5 0 0 1 9.5-9.5 9.5 9.5 0 1 1-9.5 9.5Z"/><path fill="var(--illustration-black)" fill-rule="evenodd" d="M67.235 17 71 13.502 69.383 12 64 17l5.383 5L71 20.498 67.235 17ZM28.766 79 25 82.498 26.618 84 32 79l-5.382-5L25 75.502 28.766 79Z" clip-rule="evenodd"/><path fill="var(--illustration-black)" fill-rule="evenodd" d="M78 18H67v-2h13v16h-2V18ZM18 78h11v2H16V64h2v14Z" clip-rule="evenodd"/></svg>