<svg xmlns="http://www.w3.org/2000/svg" fill="none" viewBox="0 0 96 96"><path fill="var(--illustration-accent-1)" d="M48 88c22.091 0 40-17.909 40-40S70.091 8 48 8 8 25.909 8 48s17.909 40 40 40"/><path fill="var(--illustration-gray)" d="M76 40c11.046 0 20-8.954 20-20S87.046 0 76 0 56 8.954 56 20s8.954 20 20 20"/><path fill="var(--illustration-primary)" d="M86.48 37.038A19.9 19.9 0 0 1 76 40c-11.046 0-20-8.954-20-20 0-3.843 1.084-7.432 2.962-10.48 13.278 3.776 23.742 14.24 27.517 27.518"/><path fill="var(--illustration-positive)" d="M20 96c11.046 0 20-8.954 20-20s-8.954-20-20-20S0 64.954 0 76s8.954 20 20 20"/><path fill="var(--illustration-primary)" d="M37.039 86.48A19.9 19.9 0 0 0 40 76c0-11.046-8.954-20-20-20a19.9 19.9 0 0 0-10.48 2.962c3.776 13.278 14.24 23.742 27.518 27.517"/><path fill="var(--illustration-black)" fill-rule="evenodd" d="M48 78.724c16.969 0 30.724-13.755 30.724-30.724 0-16.968-13.755-30.724-30.724-30.724-16.968 0-30.724 13.756-30.724 30.724 0 16.969 13.756 30.724 30.724 30.724M48 81c18.225 0 33-14.775 33-33S66.225 15 48 15 15 29.775 15 48s14.775 33 33 33" clip-rule="evenodd"/><path fill="var(--illustration-black)" fill-rule="evenodd" d="M46 54V30h4v24zm0 13v-7h4v7z" clip-rule="evenodd"/></svg>