<svg xmlns="http://www.w3.org/2000/svg" fill="none" viewBox="0 0 96 96"><path fill="var(--illustration-primary)" d="M80 60c8.837 0 16-7.163 16-16s-7.163-16-16-16-16 7.163-16 16 7.163 16 16 16m-24 0H0v36h56z"/><path fill="var(--illustration-black)" d="M36 59.91H20v20h16zm20 36h24v-36H56z"/><path fill="var(--illustration-gray)" d="M80 28H24v32h56z"/><path fill="var(--illustration-accent-1)" d="M14 28c7.732 0 14-6.268 14-14S21.732 0 14 0 0 6.268 0 14s6.268 14 14 14m34-14c7.732 0 14-6.268 14-14H34c0 7.732 6.268 14 14 14m8 34c7.732 0 14-6.268 14-14s-6.268-14-14-14-14 6.268-14 14 6.268 14 14 14"/><path fill="var(--illustration-primary)" fill-rule="evenodd" d="M70 34c0 7.732-6.268 14-14 14s-14-6.268-14-14c0-2.147.483-4.181 1.347-6h25.306A13.95 13.95 0 0 1 70 34" clip-rule="evenodd"/></svg>