<svg xmlns="http://www.w3.org/2000/svg" fill="none" viewBox="0 0 96 96"><path fill="var(--illustration-accent-2)" d="M96 48C96 21.49 74.51 0 48 0S0 21.49 0 48s21.49 48 48 48 48-21.49 48-48Z"/><path fill="var(--illustration-white)" d="M48 24c26.513 0 48 24 48 24S74.513 72 48 72 0 48 0 48"/><path fill="var(--illustration-gray)" d="M47.979 28.8c-10.592 0-19.178 8.596-19.178 19.2 0 10.603 8.586 19.2 19.178 19.2 3.966 0 7.671-1.222 10.722-3.273a18.594 18.594 0 0 0 1.482-1.09 16.625 16.625 0 0 0 2.005-1.92 20.687 20.687 0 0 0 3.095-4.583 24.469 24.469 0 0 0 1.308-3.534c.174-.611.305-1.222.392-1.877.13-.96.218-1.92.218-2.923-.044-10.604-8.63-19.2-19.222-19.2Z"/><path fill="var(--illustration-positive)" d="M48 0C21.49 0 0 21.49 0 48h48V0Z"/><path fill="var(--illustration-primary)" d="M48 28.8h-.021c-10.592 0-19.178 8.596-19.178 19.2H48V28.8Z"/><path fill="var(--illustration-primary)" d="M48 35.2c-7.087 0-12.8 5.714-12.8 12.8H48V35.2Z"/><path fill="var(--illustration-invert)" d="m56 48-12.8-7.2v14.4L56 48Z"/></svg>