<svg xmlns="http://www.w3.org/2000/svg" fill="none" viewBox="0 0 96 96"><path fill="var(--illustration-gray)" d="M51.2 32H12.8v51.2h38.4V32Z"/><path fill="var(--illustration-gray)" d="M44.8 83.2h38.4V64H44.8v19.2Z"/><path fill="var(--illustration-primary)" d="M51.2 64h-6.4v19.2h6.4V64Z"/><path fill="var(--illustration-accent-1)" d="M32 51.2a19.2 19.2 0 1 0 0-38.4 19.2 19.2 0 0 0 0 38.4Z"/><path fill="var(--illustration-black)" d="M32 19.2c7.04 0 12.8 5.76 12.8 12.8 0 7.04-5.76 12.8-12.8 12.8-7.04 0-12.8-5.76-12.8-12.8 0-7.04 5.76-12.8 12.8-12.8Zm0-1.6c-7.92 0-14.4 6.48-14.4 14.4S24.08 46.4 32 46.4 46.4 39.92 46.4 32 39.92 17.6 32 17.6Z"/><path fill="var(--illustration-positive)" d="M64 83.2a19.2 19.2 0 1 0 0-38.4 19.2 19.2 0 0 0 0 38.4Z"/><path fill="var(--illustration-primary)" d="M51.2 49.68a19.22 19.22 0 0 0 0 28.64V49.68Z"/><path fill="var(--illustration-black)" d="M64 57.6c3.52 0 6.4 2.88 6.4 6.4 0 3.52-2.88 6.4-6.4 6.4a6.42 6.42 0 0 1-6.4-6.4c0-3.52 2.88-6.4 6.4-6.4Zm0-1.6c-4.4 0-8 3.6-8 8s3.6 8 8 8 8-3.6 8-8-3.6-8-8-8Z"/><path fill="var(--illustration-black)" fill-rule="evenodd" d="M31.2 38.4V25.6h1.6v12.8h-1.6Z" clip-rule="evenodd"/><path fill="var(--illustration-black)" fill-rule="evenodd" d="M25.6 31.2h12.8v1.6H25.6v-1.6Z" clip-rule="evenodd"/><path fill="var(--illustration-black)" fill-rule="evenodd" d="M26.87 36 36 26.86 37.13 28 28 37.13l-1.13-1.14Z" clip-rule="evenodd"/><path fill="var(--illustration-black)" fill-rule="evenodd" d="M28 26.87 37.12 36 36 37.13 26.87 28 28 26.87Z" clip-rule="evenodd"/><path fill="var(--illustration-invert)" fill-rule="evenodd" d="M70.4 29.6H64V28h6.4v1.6Z" clip-rule="evenodd"/><path fill="var(--illustration-invert)" fill-rule="evenodd" d="M66.4 32v-6.4H68V32h-1.6ZM25.6 68h-6.4v-1.6h6.4V68Z" clip-rule="evenodd"/><path fill="var(--illustration-invert)" fill-rule="evenodd" d="M21.6 70.4V64h1.6v6.4h-1.6Z" clip-rule="evenodd"/></svg>