<svg width="64" height="64" viewBox="0 0 64 64" fill="none" xmlns="http://www.w3.org/2000/svg">
<path d="M56 0H8V50H56V0Z" fill="#BFE9FF"/>
<path d="M64 10H0V58H64V10Z" fill="#56B4FC"/>
<path d="M8 10V16H6V24H8V36H6V44H8V50H56V10H8Z" fill="#1652F0"/>
<path d="M64 58H56V64H64V58Z" fill="#56B4FC"/>
<path d="M8 58H0V64H8V58Z" fill="#56B4FC"/>
<path d="M41.1905 20.8101C36.1205 15.7401 27.8705 15.7401 22.8105 20.8101C17.7505 25.8801 17.7405 34.1301 22.8105 39.1901C25.3405 41.7201 28.6705 42.9901 32.0005 42.9901C35.3305 42.9901 38.6605 41.7201 41.1905 39.1901C46.2605 34.1201 46.2605 25.8801 41.1905 20.8101ZM40.4505 37.0401L37.6005 34.1901C38.5005 32.9901 39.0005 31.5401 39.0005 30.0001C39.0005 28.4701 38.5005 27.0201 37.6005 25.8101L40.4505 22.9601C43.8405 27.0301 43.8405 32.9701 40.4505 37.0401ZM28.4605 33.5401C27.5205 32.5901 27.0005 31.3301 27.0005 30.0001C27.0005 28.6701 27.5205 27.4101 28.4605 26.4601C29.4005 25.5101 30.6605 25.0001 32.0005 25.0001C33.3405 25.0001 34.5905 25.5201 35.5405 26.4601C36.4905 27.4001 37.0005 28.6701 37.0005 30.0001C37.0005 31.3301 36.4805 32.5901 35.5405 33.5401C34.6005 34.4901 33.3405 35.0001 32.0005 35.0001C30.6605 35.0001 29.4105 34.4801 28.4605 33.5401ZM39.0405 21.5501L36.1905 24.4001C34.9805 23.5001 33.5305 23.0001 32.0005 23.0001C30.4705 23.0001 29.0205 23.5001 27.8105 24.4001L24.9605 21.5501C27.0005 19.8601 29.5005 19.0001 32.0005 19.0001C34.5005 19.0001 37.0005 19.8601 39.0405 21.5501ZM23.5505 22.9601L26.4005 25.8101C25.5005 27.0201 25.0005 28.4701 25.0005 30.0001C25.0005 31.5301 25.5005 32.9801 26.4005 34.1901L23.5505 37.0401C20.1605 32.9701 20.1605 27.0301 23.5505 22.9601ZM24.9605 38.4501L27.8105 35.6001C29.0105 36.5001 30.4705 37.0001 32.0005 37.0001C33.5305 37.0001 34.9805 36.5001 36.1905 35.6001L39.0405 38.4501C34.9705 41.8401 29.0305 41.8401 24.9605 38.4501Z" fill="white"/>
</svg>
