<svg width="64" height="64" viewBox="0 0 64 64" fill="none" xmlns="http://www.w3.org/2000/svg">
<path d="M32 64C40.84 64 48 56.84 48 48C48 39.16 40.84 32 32 32C23.16 32 16 39.16 16 48C16 56.84 23.16 64 32 64Z" fill="#F46767"/>
<path d="M62 40H2C0.9 40 0 39.1 0 38V2C0 0.9 0.9 0 2 0H62C63.1 0 64 0.9 64 2V38C64 39.1 63.1 40 62 40Z" fill="#BFE9FF"/>
<path d="M24 18H6V20H24V18Z" fill="#1652F0"/>
<path d="M14 24H6V26H14V24Z" fill="white"/>
<path d="M24 24H16V26H24V24Z" fill="white"/>
<path d="M34 24H26V26H34V24Z" fill="white"/>
<path d="M44 24H36V26H44V24Z" fill="white"/>
<path d="M64 6H0V14H64V6Z" fill="#1652F0"/>
<path d="M18.1499 40H45.8499C43.0499 35.2 37.9499 32 32.0499 32C26.1499 32 20.8499 35.2 18.1499 40Z" fill="#1652F0"/>
<path d="M38.71 42.71L37.29 41.29L32 46.59L26.71 41.29L25.29 42.71L30.59 48L25.29 53.29L26.71 54.71L32 49.41L37.29 54.71L38.71 53.29L33.41 48L38.71 42.71Z" fill="white"/>
</svg>
