<svg width="1024" height="480" viewBox="0 0 1024 480" fill="none" xmlns="http://www.w3.org/2000/svg">
<g clip-path="url(#clip0_337:44161)">
<g clip-path="url(#clip1_337:44161)">
<path d="M464 177.842C464 164.286 474.989 153.297 488.545 153.297H546.5C553.956 153.297 560 159.341 560 166.797V166.797C560 174.253 553.956 180.297 546.5 180.297H466.455C465.099 180.297 464 179.198 464 177.842V177.842Z" fill="#0052FF"/>
<path d="M464 195.229C464 191.953 466.656 189.297 469.932 189.297H517.25C523.877 189.297 529.25 194.67 529.25 201.297V201.297C529.25 207.924 523.877 213.297 517.25 213.297H469.932C466.656 213.297 464 210.641 464 207.365V195.229Z" fill="#0052FF"/>
<circle cx="479" cy="234.297" r="15" fill="#0052FF"/>
</g>
</g>
<path d="M407.32 308.583C403.12 308.583 399.72 305.383 399.72 299.583V297.623C399.72 291.823 403.12 288.623 407.32 288.623C410.88 288.623 412.92 290.423 413.48 293.063H419.16C418.2 287.703 413.8 283.943 407.48 283.943C398.84 283.943 394.24 290.503 394.24 298.623C394.24 306.783 398.8 313.263 407.48 313.263C413.84 313.263 418.24 309.503 419.24 303.823H413.64C413.16 306.383 411.2 308.583 407.32 308.583ZM433.229 284.543H422.469V312.703H433.229C441.869 312.703 446.549 306.463 446.549 298.623C446.549 290.823 441.829 284.543 433.229 284.543ZM433.229 289.183C437.509 289.183 441.029 292.223 441.029 297.583V299.623C441.029 305.023 437.509 308.063 433.229 308.063H427.869V289.183H433.229ZM460.285 313.303C467.125 313.303 471.765 309.783 471.765 304.463C471.765 299.063 467.965 296.983 463.005 296.263L459.365 295.703C456.445 295.263 454.725 294.423 454.725 292.023C454.725 289.983 456.405 288.183 460.245 288.183C464.085 288.183 465.845 289.903 465.885 292.303H471.365C471.205 287.783 467.445 283.903 460.285 283.903C453.285 283.903 449.285 287.743 449.285 292.463C449.285 297.623 452.805 299.943 457.765 300.703L461.525 301.263C464.685 301.743 466.285 302.503 466.285 304.863C466.285 307.303 464.205 309.023 460.365 309.023C456.485 309.023 454.125 307.383 454.045 304.343H448.605C448.685 309.623 453.205 313.303 460.285 313.303ZM481.883 284.543V312.703H487.283V301.183H500.483V296.543H487.283V289.183H501.643V284.543H481.883ZM504.452 312.703H509.652V300.983C509.652 298.183 510.932 296.463 514.492 296.463H518.012V291.703H515.452C511.772 291.703 510.012 293.663 509.492 295.423H509.452V291.743H504.452V312.703ZM529.366 313.263C536.326 313.263 539.846 308.103 539.846 302.223C539.846 296.383 536.286 291.183 529.366 291.183C522.406 291.183 518.846 296.343 518.846 302.223C518.846 308.103 522.366 313.263 529.366 313.263ZM534.646 303.143C534.646 306.863 532.326 308.983 529.366 308.983C526.366 308.983 524.046 306.783 524.046 303.143V301.343C524.046 297.663 526.366 295.463 529.366 295.463C532.326 295.463 534.646 297.583 534.646 301.343V303.143ZM548.09 300.383C548.09 297.103 550.29 295.583 552.61 295.583C554.85 295.583 556.93 297.063 556.93 300.143V312.703H562.13V299.583C562.13 294.303 558.81 291.183 554.37 291.183C551.37 291.183 548.97 292.503 547.85 295.103H547.81V291.743H542.89V312.703H548.09V300.383ZM563.713 291.743V295.983H568.273V307.183C568.273 310.783 570.113 312.703 573.993 312.703H579.953V308.503H575.193C573.993 308.503 573.473 307.983 573.473 306.743V295.983H579.953V291.743H573.473V285.863H568.273V291.743H563.713ZM587.568 289.303C589.368 289.303 590.728 287.903 590.728 286.223C590.728 284.463 589.368 283.103 587.568 283.103H587.248C585.448 283.103 584.048 284.463 584.048 286.223C584.048 287.903 585.448 289.303 587.248 289.303H587.568ZM581.528 295.903H584.808V312.703H590.008V291.743H581.528V295.903ZM603.624 313.263C608.824 313.263 612.504 310.503 613.184 306.503H607.984C607.784 307.903 606.384 309.383 603.744 309.383C600.624 309.383 598.304 307.223 598.264 303.543H613.544V301.583C613.544 296.063 610.184 291.183 603.464 291.183C596.584 291.183 593.064 296.343 593.064 302.223C593.064 308.143 596.544 313.263 603.624 313.263ZM603.464 295.063C606.264 295.063 608.224 296.863 608.344 300.063H598.304C598.624 296.903 600.704 295.063 603.464 295.063ZM616.601 312.703H621.801V300.983C621.801 298.183 623.081 296.463 626.641 296.463H630.161V291.703H627.601C623.921 291.703 622.161 293.663 621.641 295.423H621.601V291.743H616.601V312.703Z" fill="#0052FF"/>
<defs>
<clipPath id="clip0_337:44161">
<rect width="96" height="96" fill="white" transform="translate(464 153.297)"/>
</clipPath>
<clipPath id="clip1_337:44161">
<rect width="96" height="96" fill="white" transform="translate(464 153.297)"/>
</clipPath>
</defs>
</svg>
