<svg xmlns="http://www.w3.org/2000/svg" fill="none" viewBox="0 0 240 240"><path fill="url(#a)" d="M240 64H20v68h220V64z"/><path fill="#1652F0" fill-opacity=".5" d="M216 136h-1v1h1v-1zM204 124h-1v1h1v-1zM204 136h-1v1h1v-1zM204 148h-1v1h1v-1zM192 88h-1v1h1v-1zM192 100h-1v1h1v-1zM192 112h-1v1h1v-1zM204 112h-1v1h1v-1zM192 124h-1v1h1v-1zM192 136h-1v1h1v-1zM192 148h-1v1h1v-1zM192 160h-1v1h1v-1zM180 88h-1v1h1v-1zM180 100h-1v1h1v-1zM180 112h-1v1h1v-1zM180 124h-1v1h1v-1zM180 136h-1v1h1v-1zM180 148h-1v1h1v-1zM180 160h-1v1h1v-1zM180 172h-1v1h1v-1zM168 88h-1v1h1v-1zM168 100h-1v1h1v-1zM168 112h-1v1h1v-1zM168 124h-1v1h1v-1zM168 136h-1v1h1v-1zM168 148h-1v1h1v-1zM168 160h-1v1h1v-1zM168 172h-1v1h1v-1zM156 88h-1v1h1v-1zM156 100h-1v1h1v-1zM156 112h-1v1h1v-1zM156 124h-1v1h1v-1zM156 136h-1v1h1v-1zM156 148h-1v1h1v-1zM156 160h-1v1h1v-1zM156 172h-1v1h1v-1zM144 88h-1v1h1v-1zM144 100h-1v1h1v-1zM144 112h-1v1h1v-1zM144 124h-1v1h1v-1zM144 136h-1v1h1v-1zM144 148h-1v1h1v-1zM144 160h-1v1h1v-1zM144 172h-1v1h1v-1zM132 88h-1v1h1v-1zM132 100h-1v1h1v-1zM132 112h-1v1h1v-1zM132 124h-1v1h1v-1zM132 136h-1v1h1v-1zM132 148h-1v1h1v-1zM132 160h-1v1h1v-1zM132 172h-1v1h1v-1zM120 88h-1v1h1v-1zM120 100h-1v1h1v-1zM120 112h-1v1h1v-1zM120 124h-1v1h1v-1zM120 136h-1v1h1v-1zM120 148h-1v1h1v-1zM120 160h-1v1h1v-1zM120 172h-1v1h1v-1zM108 88h-1v1h1v-1zM108 100h-1v1h1v-1zM108 112h-1v1h1v-1zM108 124h-1v1h1v-1zM108 136h-1v1h1v-1zM108 148h-1v1h1v-1zM108 160h-1v1h1v-1zM108 172h-1v1h1v-1zM96 88h-1v1h1v-1zM96 100h-1v1h1v-1zM96 112h-1v1h1v-1zM96 124h-1v1h1v-1zM96 136h-1v1h1v-1zM96 148h-1v1h1v-1zM96 160h-1v1h1v-1zM96 172h-1v1h1v-1zM84 88h-1v1h1v-1zM84 100h-1v1h1v-1zM84 112h-1v1h1v-1zM84 124h-1v1h1v-1zM84 136h-1v1h1v-1zM84 148h-1v1h1v-1zM84 160h-1v1h1v-1zM84 172h-1v1h1v-1zM72 88h-1v1h1v-1zM72 100h-1v1h1v-1zM72 112h-1v1h1v-1zM72 124h-1v1h1v-1zM72 136h-1v1h1v-1zM72 148h-1v1h1v-1zM72 160h-1v1h1v-1zM72 172h-1v1h1v-1zM60 88h-1v1h1v-1zM60 100h-1v1h1v-1zM60 112h-1v1h1v-1zM60 124h-1v1h1v-1zM60 136h-1v1h1v-1zM60 148h-1v1h1v-1zM60 160h-1v1h1v-1zM60 172h-1v1h1v-1zM48 88h-1v1h1v-1zM48 100h-1v1h1v-1zM48 112h-1v1h1v-1zM48 124h-1v1h1v-1zM48 136h-1v1h1v-1zM48 148h-1v1h1v-1zM48 160h-1v1h1v-1zM48 172h-1v1h1v-1zM36 100h-1v1h1v-1zM36 112h-1v1h1v-1zM36 136h-1v1h1v-1zM36 148h-1v1h1v-1zM36 160h-1v1h1v-1zM24 148h-1v1h1v-1z"/><path fill="#fff" d="M168 216H72c-2.21 0-4-1.79-4-4V28c0-2.21 1.79-4 4-4h96c2.21 0 4 1.79 4 4v184c0 2.21-1.79 4-4 4z"/><path stroke="url(#b)" d="M168 215.5H72a3.499 3.499 0 0 1-3.5-3.5V28c0-1.934 1.566-3.5 3.5-3.5h96c1.934 0 3.5 1.566 3.5 3.5v184c0 1.934-1.566 3.5-3.5 3.5z"/><path fill="#1652F0" d="M172 36H68v168h104V36z"/><path fill="#D4EEFF" d="M133 212h-26c-1.1 0-2-.9-2-2s.9-2 2-2h26c1.1 0 2 .9 2 2s-.9 2-2 2zM120 32.52a2.11 2.11 0 1 0 0-4.22 2.11 2.11 0 0 0 0 4.22z"/><path fill="#fff" d="M74 42h-2v2h2v-2zM77 41h-2v3h2v-3zM80 40h-2v4h2v-4zM168 40.25h-6v3.5h6v-3.5zM161.5 43v-2c-.28 0-.5.22-.5.5v1c0 .28.22.5.5.5zM120 92c5.523 0 10-4.477 10-10s-4.477-10-10-10-10 4.477-10 10 4.477 10 10 10zM148 92c5.523 0 10-4.477 10-10s-4.477-10-10-10-10 4.477-10 10 4.477 10 10 10zM92 92c5.523 0 10-4.477 10-10s-4.477-10-10-10-10 4.477-10 10 4.477 10 10 10zM120 118c5.523 0 10-4.477 10-10s-4.477-10-10-10-10 4.477-10 10 4.477 10 10 10zM148 118c5.523 0 10-4.477 10-10s-4.477-10-10-10-10 4.477-10 10 4.477 10 10 10zM92 118c5.523 0 10-4.477 10-10s-4.477-10-10-10-10 4.477-10 10 4.477 10 10 10zM120 144c5.523 0 10-4.477 10-10s-4.477-10-10-10-10 4.477-10 10 4.477 10 10 10zM148 144c5.523 0 10-4.477 10-10s-4.477-10-10-10-10 4.477-10 10 4.477 10 10 10zM92 144c5.523 0 10-4.477 10-10s-4.477-10-10-10-10 4.477-10 10 4.477 10 10 10z"/><path fill="#56B4FC" d="m97 81.48-.51-1.58-3.66 1.19v-3.85h-1.66v3.85l-3.66-1.19-.51 1.58 3.66 1.19-2.26 3.11 1.34.98L92 83.65l2.26 3.11 1.34-.98-2.26-3.11L97 81.48zM125 107.48l-.51-1.58-3.66 1.19v-3.85h-1.66v3.85l-3.66-1.19-.51 1.58 3.66 1.19-2.26 3.11 1.34.98 2.26-3.11 2.26 3.11 1.34-.98-2.26-3.11 3.66-1.19zM153 107.48l-.51-1.58-3.66 1.19v-3.85h-1.66v3.85l-3.66-1.19-.51 1.58 3.66 1.19-2.26 3.11 1.34.98 2.26-3.11 2.26 3.11 1.34-.98-2.26-3.11 3.66-1.19zM97 107.48l-.51-1.58-3.66 1.19v-3.85h-1.66v3.85l-3.66-1.19-.51 1.58 3.66 1.19-2.26 3.11 1.34.98 2.26-3.11 2.26 3.11 1.34-.98-2.26-3.11 3.66-1.19zM125 133.48l-.51-1.58-3.66 1.19v-3.85h-1.66v3.85l-3.66-1.19-.51 1.58 3.66 1.19-2.26 3.11 1.34.98 2.26-3.11 2.26 3.11 1.34-.98-2.26-3.11 3.66-1.19zM153 133.48l-.51-1.58-3.66 1.19v-3.85h-1.66v3.85l-3.66-1.19-.51 1.58 3.66 1.19-2.26 3.11 1.34.98 2.26-3.11 2.26 3.11 1.34-.98-2.26-3.11 3.66-1.19zM97 133.48l-.51-1.58-3.66 1.19v-3.85h-1.66v3.85l-3.66-1.19-.51 1.58 3.66 1.19-2.26 3.11 1.34.98 2.26-3.11 2.26 3.11 1.34-.98-2.26-3.11 3.66-1.19zM125 81.48l-.51-1.58-3.66 1.19v-3.85h-1.66v3.85l-3.66-1.19-.51 1.58 3.66 1.19-2.26 3.11 1.34.98 2.26-3.11 2.26 3.11 1.34-.98-2.26-3.11 3.66-1.19zM153 81.48l-.51-1.58-3.66 1.19v-3.85h-1.66v3.85l-3.66-1.19-.51 1.58 3.66 1.19-2.26 3.11 1.34.98 2.26-3.11 2.26 3.11 1.34-.98-2.26-3.11 3.66-1.19z"/><path fill="#3ACC8A" d="M120 228c15.464 0 28-12.536 28-28s-12.536-28-28-28-28 12.536-28 28 12.536 28 28 28z"/><path fill="#fff" d="M121 188h-2v24h2v-24z"/><path fill="#fff" d="M132 199h-24v2h24v-2z"/><defs><linearGradient id="a" x1="240" x2="19.5" y1="98" y2="98" gradientUnits="userSpaceOnUse"><stop stop-color="#D4EEFF" stop-opacity="0"/><stop offset=".28" stop-color="#D4EEFF"/><stop offset="1" stop-color="#D4EEFF" stop-opacity=".3"/></linearGradient><linearGradient id="b" x1="120" x2="120" y1="24" y2="216" gradientUnits="userSpaceOnUse"><stop stop-color="#BFE9FF"/><stop offset="1" stop-color="#D4EEFF"/></linearGradient></defs></svg>