<svg xmlns="http://www.w3.org/2000/svg" fill="none" viewBox="0 0 48 48"><path fill="#56B4FC" d="M48 12H0v29.25h48V12z"/><path fill="#1652F0" d="M48 12H0V7.5C0 6.675.675 6 1.5 6h45c.825 0 1.5.675 1.5 1.5V12z"/><path fill="#fff" d="M3.75 9.75a.75.75 0 1 0 0-1.5.75.75 0 0 0 0 1.5zM6.75 9.75a.75.75 0 1 0 0-1.5.75.75 0 0 0 0 1.5zM9.75 9.75a.75.75 0 1 0 0-1.5.75.75 0 0 0 0 1.5z"/><path fill="#BFE9FF" d="M25.125 29.274h-2.25v7.5h2.25v-7.5zM20.625 22.524h-2.25v9h2.25v-9z"/><path fill="#fff" d="M16.125 18.024h-2.25v9h2.25v-9zM11.625 22.524h-2.25v6h2.25v-6zM7.125 25.524h-2.25v6h2.25v-6zM43.125 15.774h-2.25v5.25h2.25v-5.25zM38.625 19.524h-2.25v8.25h2.25v-8.25z"/><path fill="#BFE9FF" d="M34.125 23.274h-2.25v5.25h2.25v-5.25z"/><path fill="#fff" d="M29.625 24.774h-2.25v6.75h2.25v-6.75z"/></svg>