<svg xmlns="http://www.w3.org/2000/svg" fill="none" viewBox="0 0 48 48"><path fill="#BFE9FF" d="M48 9H0v36h48V9z"/><path fill="#56B4FC" d="M7.5 46.5v-39C7.5 6.675 8.175 6 9 6h30c.825 0 1.5.675 1.5 1.5v39c0 .825-.675 1.5-1.5 1.5H9c-.825 0-1.5-.675-1.5-1.5z"/><path fill="#1652F0" d="M40.5 9h-33v36h33V9z"/><path fill="#fff" d="M36 30H12v1.5h24V30zM36 34.5H12V36h24v-1.5zM33 39H15v1.5h18V39z"/><path fill="#56B4FC" d="M33 6H15a3 3 0 0 1 3-3h12a3 3 0 0 1 3 3z"/><path fill="#56B4FC" d="M24 6a3 3 0 1 0 0-6 3 3 0 0 0 0 6z"/><path fill="#fff" d="M24.75 15h-1.5v12h1.5V15z"/><path fill="#fff" d="m18.697 18.75 1.058 1.058L24 15.57l4.245 4.238 1.057-1.058L24 13.447l-5.303 5.303z"/></svg>