<svg xmlns="http://www.w3.org/2000/svg" fill="none" viewBox="0 0 240 240"><path fill="url(#a)" d="M152 240V0H88v240h64z"/><path fill="url(#b)" d="M132 240V0h-24v240h24z"/><path fill="#1652F0" d="M120 18v1h1v-1h-1zM132 18v1h1v-1h-1zM144 18v1h1v-1h-1zM96 30v1h1v-1h-1zM108 30v1h1v-1h-1zM120 30v1h1v-1h-1zM132 30v1h1v-1h-1zM144 30v1h1v-1h-1zM72 42v1h1v-1h-1zM84 42v1h1v-1h-1zM96 42v1h1v-1h-1zM108 42v1h1v-1h-1zM120 42v1h1v-1h-1zM132 42v1h1v-1h-1zM144 42v1h1v-1h-1zM156 18v1h1v-1h-1zM156 30v1h1v-1h-1zM156 42v1h1v-1h-1zM72 54v1h1v-1h-1zM84 54v1h1v-1h-1zM96 54v1h1v-1h-1zM108 54v1h1v-1h-1zM120 54v1h1v-1h-1zM132 54v1h1v-1h-1zM144 54v1h1v-1h-1zM72 66v1h1v-1h-1zM84 66v1h1v-1h-1zM96 66v1h1v-1h-1zM108 66v1h1v-1h-1zM120 66v1h1v-1h-1zM132 66v1h1v-1h-1zM144 66v1h1v-1h-1zM72 78v1h1v-1h-1zM84 78v1h1v-1h-1zM96 78v1h1v-1h-1zM108 78v1h1v-1h-1zM120 78v1h1v-1h-1zM132 78v1h1v-1h-1zM144 78v1h1v-1h-1zM72 90v1h1v-1h-1zM84 90v1h1v-1h-1zM96 90v1h1v-1h-1zM108 90v1h1v-1h-1zM120 90v1h1v-1h-1zM132 90v1h1v-1h-1zM96 102v1h1v-1h-1zM108 102v1h1v-1h-1zM120 102v1h1v-1h-1zM132 102v1h1v-1h-1zM96 114v1h1v-1h-1zM108 114v1h1v-1h-1zM120 114v1h1v-1h-1zM132 114v1h1v-1h-1zM144 114v1h1v-1h-1zM96 126v1h1v-1h-1zM108 126v1h1v-1h-1zM120 126v1h1v-1h-1zM132 126v1h1v-1h-1zM144 126v1h1v-1h-1zM96 138v1h1v-1h-1zM108 138v1h1v-1h-1zM120 138v1h1v-1h-1zM132 138v1h1v-1h-1zM144 138v1h1v-1h-1zM96 150v1h1v-1h-1zM108 150v1h1v-1h-1zM120 150v1h1v-1h-1zM132 150v1h1v-1h-1zM144 150v1h1v-1h-1zM96 162v1h1v-1h-1zM108 162v1h1v-1h-1zM120 162v1h1v-1h-1zM132 162v1h1v-1h-1zM144 162v1h1v-1h-1zM96 174v1h1v-1h-1zM108 174v1h1v-1h-1zM120 174v1h1v-1h-1zM132 174v1h1v-1h-1zM144 174v1h1v-1h-1zM96 186v1h1v-1h-1zM108 186v1h1v-1h-1zM120 186v1h1v-1h-1zM132 186v1h1v-1h-1zM144 186v1h1v-1h-1zM96 198v1h1v-1h-1zM108 198v1h1v-1h-1zM120 198v1h1v-1h-1zM132 198v1h1v-1h-1zM144 198v1h1v-1h-1zM144 210v1h1v-1h-1zM144 222v1h1v-1h-1zM132 210v1h1v-1h-1z" opacity=".5"/><path fill="url(#c)" d="M120 186.36c37.279 0 67.5-30.221 67.5-67.5 0-37.28-30.221-67.5-67.5-67.5-37.28 0-67.5 30.22-67.5 67.5 0 37.279 30.22 67.5 67.5 67.5z"/><path fill="url(#d)" d="M120 175.71c31.4 0 56.85-25.45 56.85-56.85 0-31.4-25.45-56.85-56.85-56.85-31.4 0-56.85 25.45-56.85 56.85 0 31.4 25.45 56.85 56.85 56.85z" opacity=".5"/><path fill="url(#e)" d="M90.29 58.26 64.18 156.8a67.49 67.49 0 0 0 8.99 10.69l30.22-114.07a67.45 67.45 0 0 0-13.1 4.84z" opacity=".6"/><path fill="url(#f)" d="m137.07 184.18 30.1-113.6c-14.11-13.81-33.5-20.56-52.76-18.98L81.83 174.53c16.02 10.97 36.23 14.62 55.24 9.65z" opacity=".6"/><path fill="url(#g)" d="M120 54.36c35.57 0 64.5 28.93 64.5 64.5s-28.93 64.5-64.5 64.5-64.5-28.93-64.5-64.5 28.93-64.5 64.5-64.5zm0-3c-37.28 0-67.5 30.22-67.5 67.5s30.22 67.5 67.5 67.5 67.5-30.22 67.5-67.5-30.22-67.5-67.5-67.5z" opacity=".3"/><path fill="url(#h)" d="M120 52.11c36.81 0 66.75 29.94 66.75 66.75s-29.94 66.75-66.75 66.75-66.75-29.94-66.75-66.75S83.19 52.11 120 52.11zm0-.75c-37.28 0-67.5 30.22-67.5 67.5s30.22 67.5 67.5 67.5 67.5-30.22 67.5-67.5-30.22-67.5-67.5-67.5z"/><path fill="#fff" d="M120 176.41c-31.73 0-57.54-25.81-57.54-57.54S88.27 61.32 120 61.32s57.54 25.81 57.54 57.54-25.81 57.55-57.54 57.55zm0-114.09c-31.18 0-56.54 25.36-56.54 56.54s25.36 56.55 56.54 56.55 56.54-25.36 56.54-56.54S151.18 62.32 120 62.32z"/><path fill="url(#i)" d="m74.07 50.64-2.65 12.34-12.35 2.66 12.35 2.65 2.65 12.35 2.65-12.35 12.35-2.65-12.35-2.66-2.65-12.34z"/><path fill="#FFD066" d="M61.27 58.89v-3.5h3.5v-1h-3.5v-3.5h-1v3.5h-3.5v1h3.5v3.5h1z"/><path fill="#88ADF5" d="M43.77 59.89a1 1 0 1 0 0-2 1 1 0 0 0 0 2zM62.77 41.39a1 1 0 1 0 0-2 1 1 0 0 0 0 2z" opacity=".5"/><g filter="url(#j)"><path fill="#fff" d="M143.93 112.1c1.07-7.15-4.38-11-11.82-13.56l2.42-9.69-5.9-1.47-2.35 9.44a205.2 205.2 0 0 0-4.73-1.11l2.37-9.5-5.9-1.47-2.42 9.69c-1.28-.29-2.55-.58-3.77-.89l.01-.03-8.13-2.03-1.57 6.3s4.38 1 4.29 1.06c2.39.6 2.82 2.18 2.75 3.43l-2.75 11.04c.16.04.38.1.61.19l-.62-.15-3.86 15.46c-.29.72-1.03 1.81-2.71 1.4.06.09-4.29-1.07-4.29-1.07l-2.93 6.75 7.68 1.91c1.43.36 2.83.73 4.2 1.09l-2.44 9.8 5.89 1.47 2.42-9.69c1.61.43 3.17.84 4.7 1.22l-2.41 9.65 5.9 1.47 2.44-9.78c10.06 1.9 17.62 1.14 20.8-7.96 2.57-7.32-.13-11.55-5.42-14.3 3.86-.89 6.77-3.43 7.54-8.67zM130.45 131c-1.82 7.33-14.15 3.36-18.15 2.37l3.24-12.98c4 1 16.82 2.97 14.91 10.61zm1.83-19c-1.66 6.66-11.93 3.28-15.25 2.45l2.93-11.77c3.33.82 14.05 2.37 12.32 9.32z"/></g><defs><linearGradient id="a" x1="120" x2="120" y1=".61" y2="228.88" gradientUnits="userSpaceOnUse"><stop stop-color="#D4EEFF" stop-opacity="0"/><stop offset=".52" stop-color="#D4EEFF"/><stop offset="1" stop-color="#D4EEFF" stop-opacity="0"/></linearGradient><linearGradient id="b" x1="120" x2="120" y1="3" y2="202.5" gradientUnits="userSpaceOnUse"><stop stop-color="#fff" stop-opacity="0"/><stop offset="1" stop-color="#fff"/></linearGradient><linearGradient id="c" x1="74.99" x2="165.01" y1="68.56" y2="169.16" gradientUnits="userSpaceOnUse"><stop stop-color="#FFD066"/><stop offset="1" stop-color="#FBBA58"/></linearGradient><linearGradient id="d" x1="81.68" x2="155.07" y1="75.64" y2="158.41" gradientUnits="userSpaceOnUse"><stop stop-color="#F7931A" stop-opacity="0"/><stop offset="1" stop-color="#F7931A"/></linearGradient><linearGradient id="e" x1="72.33" x2="103.24" y1="123.37" y2="88.84" gradientUnits="userSpaceOnUse"><stop stop-color="#fff" stop-opacity="0"/><stop offset=".5" stop-color="#fff"/><stop offset="1" stop-color="#fff" stop-opacity="0"/></linearGradient><linearGradient id="f" x1="105.62" x2="145.14" y1="140.37" y2="96.22" gradientUnits="userSpaceOnUse"><stop stop-color="#fff" stop-opacity="0"/><stop offset=".5" stop-color="#fff"/><stop offset="1" stop-color="#fff" stop-opacity="0"/></linearGradient><linearGradient id="g" x1="74.99" x2="165.01" y1="169.16" y2="68.56" gradientUnits="userSpaceOnUse"><stop stop-color="#fff" stop-opacity=".2"/><stop offset=".5" stop-color="#fff"/><stop offset="1" stop-color="#fff" stop-opacity="0"/></linearGradient><linearGradient id="h" x1="74.99" x2="165.01" y1="169.16" y2="68.56" gradientUnits="userSpaceOnUse"><stop stop-color="#fff" stop-opacity=".2"/><stop offset=".5" stop-color="#fff"/><stop offset="1" stop-color="#fff" stop-opacity="0"/></linearGradient><linearGradient id="i" x1="74.07" x2="74.07" y1="50.64" y2="80.64" gradientUnits="userSpaceOnUse"><stop stop-color="#BFE9FF"/><stop offset="1" stop-color="#fff" stop-opacity="0"/></linearGradient><filter id="j" width="67.43" height="84.07" x="84.63" y="76.74" color-interpolation-filters="sRGB" filterUnits="userSpaceOnUse"><feFlood flood-opacity="0" result="BackgroundImageFix"/><feColorMatrix in="SourceAlpha" result="hardAlpha" values="0 0 0 0 0 0 0 0 0 0 0 0 0 0 0 0 0 0 127 0"/><feOffset/><feGaussianBlur stdDeviation="4"/><feColorMatrix values="0 0 0 0 0.980392 0 0 0 0 0.678431 0 0 0 0 0.25098 0 0 0 1 0"/><feBlend in2="BackgroundImageFix" result="effect1_dropShadow"/><feBlend in="SourceGraphic" in2="effect1_dropShadow" result="shape"/></filter></defs></svg>