<svg xmlns="http://www.w3.org/2000/svg" fill="none" viewBox="0 0 120 120"><path fill="#0052FF" d="M108 28v48H27.996V28H108z"/><path fill="#CED2DB" d="M43.998 76.001c0 8.836-7.163 15.999-16 15.999C19.164 92 12 84.837 12 76.001s7.163-15.999 15.999-15.999 15.999 7.163 15.999 16z"/><path fill="#0A0B0D" d="M28 36h80v8H28v-8z"/><path fill="#fff" d="M36 52h40v4H36v-4zm48 0h16v2H84v-2zm0 6h16v2H84v-2z"/><path fill="#CED2DB" d="M43.998 76.001c0 8.836-7.163 16-16 16C19.164 92 12 84.836 12 76s7.163-15.999 15.999-15.999 15.999 7.163 15.999 16z"/><path fill="#0A0B0D" d="M43.998 76H27.996V60.002h.003c8.835 0 15.998 7.163 15.999 15.998z"/><path fill="#F34" d="M40.999 76.001c0 7.18-5.82 13-13 13s-13-5.82-13-13 5.82-13 13-13 13 5.82 13 13z"/><path fill="#000" fill-rule="evenodd" d="M26.586 76.487 23.05 72.95l1.414-1.414L28 75.072l3.536-3.536 1.414 1.414-3.536 3.537 3.536 3.536-1.414 1.414L28 77.901l-3.536 3.536-1.414-1.414 3.536-3.536z" clip-rule="evenodd"/></svg>