<svg xmlns="http://www.w3.org/2000/svg" fill="none" viewBox="0 0 120 120"><g clip-path="url(#a)"><path fill="url(#b)" d="M47 32h89v66H47z"/><path fill="url(#c)" d="M47 49h89v30H47z"/><path fill="#1652F0" stroke="url(#d)" d="M28 27.5h42a1.5 1.5 0 0 1 1.5 1.5v72a1.5 1.5 0 0 1-1.5 1.5H28a1.5 1.5 0 0 1-1.5-1.5V29a1.5 1.5 0 0 1 1.5-1.5z"/><path fill="#FFAE24" d="m26 18.5-1.586 7.002L17 27l7.414 1.498L26 35.5l1.586-7.002L35 27l-7.414-1.498L26 18.5z"/><path fill="#1652F0" d="M9.18 25.164a1.179 1.179 0 1 1 0-2.357 1.179 1.179 0 0 1 0 2.357zM24.501 11.021a1.179 1.179 0 1 1 0-2.357 1.179 1.179 0 0 1 0 2.357z" opacity=".5"/><path fill="url(#e)" fill-rule="evenodd" d="M53.618 36h-.94a1 1 0 0 0-1 1v3.138h1.94V36zm-1.94 4.728V44a1 1 0 0 0 1 1h.94v-4.272h-1.94zM54.209 45h2.945v-4.272h-2.946V45zm3.535 0h.936a1 1 0 0 0 1-1v-3.272h-1.937V45zm1.936-4.862V37a1 1 0 0 0-1-1h-.937v4.138h1.937zM57.153 36h-2.946v4.138h2.946V36z" clip-rule="evenodd"/><path fill="#fff" stroke="url(#f)" d="M8.5 64.78c0-8.98 7.3-16.28 16.28-16.28 8.982 0 16.281 7.3 16.281 16.28 0 8.982-7.3 16.281-16.28 16.281-8.982 0-16.281-7.3-16.281-16.28z"/><path fill="#1652F0" d="M23.22 70.1 19 65.88l1.77-1.76 2.45 2.45 6.01-6.02L31 62.32l-7.78 7.78z"/></g><defs><linearGradient id="b" x1="45.76" x2="116.84" y1="65" y2="65" gradientUnits="userSpaceOnUse"><stop offset=".26" stop-color="#1652F0" stop-opacity=".5"/><stop offset="1" stop-color="#fff" stop-opacity="0"/></linearGradient><linearGradient id="c" x1="45.76" x2="116.84" y1="64" y2="64" gradientUnits="userSpaceOnUse"><stop stop-color="#1652F0"/><stop offset="1" stop-color="#fff" stop-opacity="0"/></linearGradient><linearGradient id="d" x1="66.25" x2="66.25" y1="103" y2="27" gradientUnits="userSpaceOnUse"><stop stop-color="#0046FF"/><stop offset="1" stop-color="#fff" stop-opacity=".4"/></linearGradient><linearGradient id="e" x1="56.82" x2="56.82" y1="35.5" y2="51.5" gradientUnits="userSpaceOnUse"><stop stop-color="#fff"/><stop offset="1" stop-color="#1652F0" stop-opacity=".2"/></linearGradient><linearGradient id="f" x1="24.78" x2="24.78" y1="48" y2="81.56" gradientUnits="userSpaceOnUse"><stop stop-color="#D4EEFF"/><stop offset="1" stop-color="#99D6FF"/></linearGradient><clipPath id="a"><path fill="#fff" d="M0 0h120v120H0z"/></clipPath></defs></svg>