<svg xmlns="http://www.w3.org/2000/svg" fill="none" viewBox="0 0 48 48"><path fill="#BFE9FF" d="M0 2.25A2.25 2.25 0 0 1 2.25 0H31.5a2.25 2.25 0 0 1 2.25 2.25v19.314a2.25 2.25 0 0 1-2.25 2.25H2.25A2.25 2.25 0 0 1 0 21.564V2.25z"/><path fill="#56B4FC" d="M14.25 20.116a3 3 0 0 1 3-3H45a3 3 0 0 1 3 3V37.93a3 3 0 0 1-3 3H17.25a3 3 0 0 1-3-3V20.116z"/><path fill="#BFE9FF" d="M4.5 30.512v-7.814h6.375L4.5 30.512z"/><path fill="#56B4FC" d="M43.125 48v-7.814H36.75L43.125 48z"/><path fill="#fff" d="M12.75 13.395c.828 0 1.5-.666 1.5-1.488s-.672-1.488-1.5-1.488-1.5.666-1.5 1.488.672 1.488 1.5 1.488zM17.25 13.395c.828 0 1.5-.666 1.5-1.488s-.672-1.488-1.5-1.488-1.5.666-1.5 1.488.672 1.488 1.5 1.488zM21.75 13.395c.828 0 1.5-.666 1.5-1.488s-.672-1.488-1.5-1.488-1.5.666-1.5 1.488.672 1.488 1.5 1.488zM27 32c.828 0 1.5-.666 1.5-1.488s-.672-1.489-1.5-1.489-1.5.667-1.5 1.489c0 .822.672 1.488 1.5 1.488zM31.5 32c.828 0 1.5-.666 1.5-1.488s-.672-1.489-1.5-1.489-1.5.667-1.5 1.489c0 .822.672 1.488 1.5 1.488zM36 32c.828 0 1.5-.666 1.5-1.488s-.672-1.489-1.5-1.489-1.5.667-1.5 1.489c0 .822.672 1.488 1.5 1.488z"/><mask id="a" width="34" height="24" x="0" y="0" mask-type="alpha" maskUnits="userSpaceOnUse"><path fill="#1652F0" d="M0 2.25A2.25 2.25 0 0 1 2.25 0H31.5a2.25 2.25 0 0 1 2.25 2.25v19.314a2.25 2.25 0 0 1-2.25 2.25H2.25A2.25 2.25 0 0 1 0 21.564V2.25z"/></mask><g mask="url(#a)"><path fill="#1652F0" d="M14.25 20.116a3 3 0 0 1 3-3H45a3 3 0 0 1 3 3V37.93a3 3 0 0 1-3 3H17.25a3 3 0 0 1-3-3V20.116z"/></g></svg>