<svg xmlns="http://www.w3.org/2000/svg" fill="none" viewBox="0 0 240 240"><path fill="#0050FF" d="M0 24h240v152H0z"/><path fill="#0A0B0D" d="M208 0 0 24h208V0z"/><path fill="#CED2DB" d="M184 176c0 35.347-28.653 64-64 64s-64-28.653-64-64h128z"/><path fill="#fff" d="M120 176v58c33.137 0 60-25.968 60-58h-60z"/><path fill="#CED2DB" d="M120 176v50c28.167 0 51-22.385 51-50h-51z"/><path fill="#fff" d="M120 176v50c-28.167 0-51-22.385-51-50h51z"/><path fill="#CED2DB" d="M120 176v28c-16.017 0-29-12.535-29-28h29z"/><path fill="#0050FF" fill-rule="evenodd" d="M184 176c0-35.346-28.654-64-64-64-35.346 0-64 28.654-64 64h128z" clip-rule="evenodd"/><path fill="#fff" fill-rule="evenodd" d="M120 112c35.346 0 64 28.654 64 64h-13c0-28.167-22.833-51-51-51-28.166 0-51 22.833-51 51H56c0-35.346 28.654-64 64-64z" clip-rule="evenodd"/><path stroke="#0A0B0D" stroke-width="2" d="m118 173.5-29-29"/><path fill="#0A0B0D" fill-rule="evenodd" d="M128 176a8 8 0 0 0-16 0h16z" clip-rule="evenodd"/><path fill="#F34" fill-rule="evenodd" d="M112 176a8 8 0 0 0 16 0h-16z" clip-rule="evenodd"/><mask id="a" width="128" height="64" x="56" y="112" maskUnits="userSpaceOnUse" style="mask-type:alpha"><path fill="#1652F0" fill-rule="evenodd" d="M120 112c35.346 0 64 28.654 64 64h-13c0-28.167-22.833-51-51-51-28.166 0-51 22.833-51 51H56c0-35.346 28.654-64 64-64z" clip-rule="evenodd"/></mask><g mask="url(#a)"><path fill="#F34" d="M50.5 106.5 120 176H50.5v-69.5z"/></g><path stroke="#0A0B0D" stroke-width="2" d="M240 85h-23.5c-8.56 0-15.5 6.94-15.5 15.5 0 8.56 6.94 15.5 15.5 15.5H240"/><circle cx="216.5" cy="100.5" r="7.5" fill="#fff"/><path stroke="#0A0B0D" stroke-width="2" d="M28 160V40"/></svg>