<svg xmlns="http://www.w3.org/2000/svg" fill="none" viewBox="0 0 240 120"><g clip-path="url(#a)"><path fill="#fff" d="M152 0H80v119.701h72V0z"/><path fill="#0052FF" d="M80 119.701h72V0H80v119.701z"/><path fill="#CED2DB" d="M240 0h-88v15.66h88V0zm0 103.441h-88V120.1h88v-16.659zM80.1 0H0v15.66h80.1V0zm0 103.441H0V120.1h80.1v-16.659z"/><path fill="#000" d="M80 15.66h72V0H80v15.66zM80 120h72v-16.658H80V120z"/><path fill="#fff" d="M116 6.983c.6 0 1-.4 1-.998s-.4-.997-1-.997-1 .399-1 .997c0 .599.4.998 1 .998zm4 105.735h-8v1.995h8v-1.995z"/><path fill="#0052FF" fill-rule="evenodd" d="M200 59.85c0 13.267-10.7 23.94-24 23.94s-24-10.673-24-23.94c0-13.267 10.7-23.94 24-23.94s24 10.674 24 23.94z" clip-rule="evenodd"/><path fill="#fff" d="M98 57.855c3.3 0 6-2.693 6-5.985 0-3.291-2.7-5.985-6-5.985s-6 2.694-6 5.985c0 3.292 2.7 5.985 6 5.985zm18 0c3.3 0 6-2.693 6-5.985 0-3.291-2.7-5.985-6-5.985s-6 2.694-6 5.985c0 3.292 2.7 5.985 6 5.985z"/><path stroke="#0A0B0D" stroke-miterlimit="10" stroke-width="1.8" d="M116 48.579v3.291m-3.2-.997 3.2.997m-1.9 2.694 1.9-2.694m1.9 2.694L116 51.87m3.2-.997-3.2.997m-18-3.291v3.291m-3.2-.997 3.2.997m-1.9 2.694L98 51.87m1.9 2.694L98 51.87m3.2-.997-3.2.997"/><path fill="#fff" d="M134 57.855c3.3 0 6-2.693 6-5.985 0-3.291-2.7-5.985-6-5.985s-6 2.694-6 5.985c0 3.292 2.7 5.985 6 5.985z"/><path stroke="#0A0B0D" stroke-miterlimit="10" stroke-width="1.8" d="M134 48.579v3.291m-3.1-.997 3.1.997m-1.9 2.694 1.9-2.694m1.9 2.694L134 51.87m3.1-.997-3.1.997"/><path fill="#fff" d="M98 41.895c3.3 0 6-2.693 6-5.985 0-3.292-2.7-5.985-6-5.985s-6 2.693-6 5.985c0 3.292 2.7 5.985 6 5.985zm18 0c3.3 0 6-2.693 6-5.985 0-3.292-2.7-5.985-6-5.985s-6 2.693-6 5.985c0 3.292 2.7 5.985 6 5.985z"/><path stroke="#0A0B0D" stroke-miterlimit="10" stroke-width="1.8" d="M116 32.618v3.292m-3.2-.997 3.2.997m-1.9 2.693 1.9-2.693m1.9 2.693L116 35.91m3.2-.997-3.2.997m-18-3.292v3.292m-3.2-.997 3.2.997m-1.9 2.693L98 35.91m1.9 2.693L98 35.91m3.2-.997-3.2.997"/><path fill="#fff" d="M134 41.895c3.3 0 6-2.693 6-5.985 0-3.292-2.7-5.985-6-5.985s-6 2.693-6 5.985c0 3.292 2.7 5.985 6 5.985z"/><path stroke="#0A0B0D" stroke-miterlimit="10" stroke-width="1.8" d="M134 32.618v3.292m-3.1-.997 3.1.997m-1.9 2.693 1.9-2.693m1.9 2.693L134 35.91m3.1-.997-3.1.997"/><path fill="#fff" d="M98 73.816c3.3 0 6-2.694 6-5.986 0-3.291-2.7-5.985-6-5.985s-6 2.694-6 5.985c0 3.292 2.7 5.986 6 5.986zm18 0c3.3 0 6-2.694 6-5.986 0-3.291-2.7-5.985-6-5.985s-6 2.694-6 5.985c0 3.292 2.7 5.986 6 5.986z"/><path stroke="#0A0B0D" stroke-miterlimit="10" stroke-width="1.8" d="M116 64.539v3.291m-3.2-1.097 3.2 1.097m-1.9 2.694 1.9-2.694m1.9 2.694L116 67.83m3.2-1.097L116 67.83m-18-3.291v3.291m-3.2-1.097L98 67.83m-1.9 2.694L98 67.83m1.9 2.694L98 67.83m3.2-1.097L98 67.83"/><path fill="#fff" d="M134 73.816c3.3 0 6-2.694 6-5.986 0-3.291-2.7-5.985-6-5.985s-6 2.694-6 5.985c0 3.292 2.7 5.986 6 5.986z"/><path stroke="#0A0B0D" stroke-miterlimit="10" stroke-width="1.8" d="M134 64.539v3.291m-3.1-1.097 3.1 1.097m-1.9 2.694 1.9-2.694m1.9 2.694L134 67.83m3.1-1.097L134 67.83"/><path fill="#fff" d="M116 89.776c3.3 0 6-2.694 6-5.986 0-3.291-2.7-5.985-6-5.985s-6 2.694-6 5.985c0 3.292 2.7 5.986 6 5.986z"/><path stroke="#0A0B0D" stroke-miterlimit="10" stroke-width="1.8" d="M116 80.499v3.292m-3.2-1.098 3.2 1.097m-1.9 2.694 1.9-2.694m1.9 2.694L116 83.79m3.2-1.097L116 83.79"/><path fill="#fff" d="m183 44.888-4.2 14.962H166l17-14.962zm-14.5 29.925 4.2-14.963h12.8l-17 14.963z"/></g><defs><clipPath id="a"><path fill="#fff" d="M0 0h240v120H0z"/></clipPath></defs></svg>