<svg xmlns="http://www.w3.org/2000/svg" fill="none" viewBox="0 0 64 64"><path fill="#A3A9B6" d="M58 20H0v-4c0-2.21 1.79-4 4-4h54v8z"/><path fill="#DEE1E7" d="M29 32c8.837 0 16-7.163 16-16S37.837 0 29 0 13 7.163 13 16s7.163 16 16 16z"/><path fill="#fff" d="M29 28.5c-6.89 0-12.5-5.61-12.5-12.5S22.11 3.5 29 3.5 41.5 9.11 41.5 16 35.89 28.5 29 28.5zm0-24c-6.34 0-11.5 5.16-11.5 11.5S22.66 27.5 29 27.5 40.5 22.34 40.5 16 35.34 4.5 29 4.5z"/><path fill="#DEE1E7" d="M58 20H4c-2.21 0-4-1.79-4-4v44c0 2.21 1.79 4 4 4h58V20h-4z"/><path fill="#717886" d="M44.48 20C42.7 26.9 36.45 32 29 32c-7.45 0-13.7-5.1-15.48-12H4c-2.21 0-4-1.79-4-4v44c0 2.21 1.79 4 4 4h54V20H44.48z"/><path fill="#A3A9B6" d="M13.52 20C15.3 26.9 21.55 32 29 32c7.45 0 13.7-5.1 15.48-12H13.52z"/><path fill="#DEE1E7" d="M40.83 20h-1.07c-1.67 4.49-5.97 7.5-10.76 7.5s-9.09-3.01-10.76-7.5h-1.07l.06.17C19 25.15 23.73 28.5 29 28.5s10.01-3.35 11.77-8.33l.06-.17zM62 52H46V36h16c1.1 0 2 .9 2 2v12c0 1.1-.9 2-2 2z"/><path fill="#fff" d="M54 46a2 2 0 1 0 0-4 2 2 0 0 0 0 4z"/></svg>