<svg xmlns="http://www.w3.org/2000/svg" fill="none" viewBox="0 0 240 240"><g clip-path="url(#a)"><path fill="#CED2DB" d="M240 120v4.7c0 .6-.1 1.2-.1 1.9 0 .4 0 .8-.1 1.2v.1c0 .6-.1 1.1-.1 1.7-.1.9-.2 1.8-.2 2.7v.2c0 .5-.1.9-.2 1.4-.1.6-.1 1.1-.2 1.7-.1.9-.2 1.8-.4 2.7v.2c0 .1 0 .2-.1.4-.3 1.8-.6 3.6-1 5.3-.4 2-.8 3.9-1.3 5.8-.7 2.9-1.6 5.7-2.5 8.5-1 2.8-2 5.5-3.1 8.2-1.5 3.6-3.2 7.1-5.1 10.5-.9 1.7-1.9 3.3-2.9 5-1 1.6-2 3.3-3.1 4.9-.4.7-.9 1.3-1.4 2v.1c-.3.4-.6.9-.9 1.3l-1.5 2.1c-.3.4-.7.9-1 1.3-.2.2-.3.4-.5.7-.4.5-.8.9-1.1 1.4l-1.2 1.5-.1.1c-.5.5-.9 1.1-1.4 1.6-.5.6-1 1.2-1.6 1.8-.5.6-1 1.1-1.6 1.7-2.6 2.8-5.4 5.5-8.3 8-.5.4-.9.8-1.4 1.2-.9.7-1.7 1.5-2.6 2.2-.6.5-1.2.9-1.8 1.4-.6.4-1.1.9-1.7 1.3-.5.4-1.1.8-1.6 1.2-.1.1-.3.2-.4.3-.7.5-1.3 1-2 1.4-.1.1-.2.2-.3.2-.7.5-1.4.9-2.1 1.4-.1 0-.1.1-.2.1l-2.4 1.5c-.8.5-1.7 1-2.5 1.5s-1.6.9-2.4 1.4h-.1c-.8.4-1.5.8-2.3 1.2-.1 0-.2.1-.3.1-.8.4-1.6.8-2.5 1.2-.2.1-.3.2-.5.2-.5.2-1 .5-1.5.7-.3.1-.5.2-.8.3-.5.2-1.1.5-1.6.7l-.6.3c-.4.2-.7.3-1.1.5-.2.1-.5.2-.8.3-.4.2-.9.3-1.3.5-.3.1-.6.3-1 .4-.2.1-.4.2-.6.2l-.9.3c-.2.1-.5.2-.7.2-.2.1-.4.2-.6.2l-1.8.6c-.2.1-.5.2-.7.3-.7.2-1.4.4-2 .7-.1 0-.3.1-.4.1-1.8.5-3.5 1-5.3 1.5-1.9.5-3.8.9-5.8 1.3-1.8.4-3.7.7-5.6 1-1 .2-1.9.3-2.9.4-.9.1-1.8.2-2.8.3-.4 0-.7.1-1.1.1-.5.1-1 .1-1.6.1-.2 0-.5 0-.7.1-.6 0-1.1.1-1.7.1h-.1c-.5 0-1.1.1-1.6.1h-.6c-.7 0-1.4.1-2.1.1h-3.4V0c2 0 4.1 0 6.1.2 2.3.1 4.6.3 6.9.5 1.8.2 3.6.4 5.3.7 1.5.2 3 .5 4.5.8.5.1.9.2 1.4.3.6.1 1.3.3 1.9.4.6.1 1.2.3 1.8.4 1.5.3 3 .7 4.4 1.1 1.4.4 2.8.8 4.2 1.3.7.2 1.3.4 2 .6 2.8.9 5.5 2 8.2 3.1l2.7 1.2c8 3.6 15.5 8.1 22.5 13.3.8.6 1.5 1.1 2.3 1.7.8.6 1.5 1.2 2.2 1.8 5.9 4.9 11.4 10.4 16.3 16.3 1.2 1.5 2.4 3 3.5 4.5.7.9 1.4 1.9 2 2.8.5.7.9 1.3 1.4 2 3.8 5.6 7.1 11.5 9.9 17.7l1.2 2.7c1.1 2.7 2.2 5.4 3.1 8.2.2.6.4 1.3.6 2 .5 1.4.9 2.8 1.3 4.2.4 1.5.8 3 1.1 4.4.1.6.3 1.2.4 1.8.1.6.3 1.3.4 1.9.1.5.2.9.3 1.4.3 1.5.5 3 .8 4.5.2 1.3.4 2.7.5 4 .1.4.1.9.1 1.3.4 3.9.7 7.9.7 12-.2.2-.2.6-.2.9z"/><path fill="#0052FF" d="M120 0v240h-3.4c-.7 0-1.4 0-2.1-.1h-1.2c-.7 0-1.4-.1-2.1-.1-.2 0-.5 0-.8-.1-.9-.1-1.8-.2-2.7-.2-.2 0-.4 0-.6-.1-.5 0-.9-.1-1.4-.2-.4 0-.8-.1-1.2-.2-.2 0-.3 0-.5-.1-.4 0-.8-.1-1.2-.2-.3 0-.6-.1-.9-.1-.4-.1-.8-.1-1.2-.2-.3 0-.7-.1-1.1-.2h-.2c-.7-.1-1.4-.2-2-.4-.5-.1-.9-.2-1.4-.3-.4-.1-.8-.2-1.2-.2-.8-.2-1.7-.4-2.5-.6-.1 0-.2 0-.3-.1-.6-.1-1.2-.3-1.9-.5-.8-.2-1.5-.4-2.3-.6-.5-.2-1.1-.3-1.6-.5-.2 0-.4-.1-.5-.2-.1 0-.2-.1-.3-.1l-1.8-.6c-1.8-.6-3.5-1.2-5.2-1.8l-1.5-.6c-.4-.2-.9-.3-1.3-.5-2.5-1-5-2.1-7.5-3.3-.9-.4-1.7-.9-2.6-1.3-.7-.4-1.4-.7-2.1-1.1-.3-.2-.6-.3-.9-.5-.7-.4-1.3-.7-2-1.1-.1-.1-.2-.1-.3-.2-.5-.3-1.1-.6-1.6-1l-1.5-.9c-.4-.2-.8-.5-1.3-.8-.8-.5-1.5-1-2.2-1.5l-2.7-1.8c-.9-.6-1.7-1.2-2.6-1.9-10.2-7.6-19.1-16.8-26.4-27.2-.5-.7-.9-1.3-1.4-2-1-1.4-1.9-2.8-2.8-4.3-.3-.4-.5-.9-.8-1.3-.2-.4-.5-.8-.7-1.2-.3-.5-.5-.9-.8-1.4l-.3-.6c-.3-.5-.6-1-.9-1.6-.2-.4-.5-.9-.7-1.3-.3-.6-.7-1.3-1-1.9-.3-.6-.6-1.1-.8-1.7-.4-.8-.7-1.5-1.1-2.3l-1.2-2.7-.3-.6c-.2-.5-.4-.9-.6-1.4-.1-.2-.2-.4-.2-.7-.3-.7-.5-1.3-.8-2-.2-.4-.3-.8-.5-1.2-.3-.8-.5-1.5-.8-2.3-.2-.5-.4-1.1-.5-1.6 0-.1-.1-.2-.1-.3-.2-.6-.4-1.2-.6-1.9 0-.1-.1-.2-.1-.3-.1-.2-.1-.4-.2-.5-.2-.5-.3-1-.5-1.6-.2-.7-.4-1.5-.6-2.2v-.1c-.2-.7-.4-1.4-.5-2.1-.1-.4-.2-.7-.3-1.1 0-.2-.1-.4-.1-.7-.1-.6-.3-1.3-.4-1.9-.1-.6-.2-1.2-.3-1.7 0-.1-.1-.3-.1-.4-.1-.5-.2-.9-.2-1.4-.1-.4-.1-.8-.2-1.2-.1-.4-.1-.8-.2-1.2-.1-.9-.3-1.8-.4-2.7v-.3c-.1-.8-.2-1.6-.3-2.3l-.3-3c-.1-.6-.1-1.3-.1-1.9-.1-.6-.1-1.1-.1-1.7v-1c0-.5-.1-1.1-.1-1.6v-4.7c.2-24.4 7.7-47.1 20.5-66 .4-.7.9-1.3 1.4-2 19.3-27.2 50-46.2 85.1-50 2.3-.2 4.6-.4 6.9-.5 2-.2 4.1-.2 6.1-.2z"/><path fill="#0052FF" d="M120 120v120h-3.4c-.7 0-1.4 0-2.1-.1h-1.2c-.7 0-1.4-.1-2.1-.1-.2 0-.5 0-.8-.1-.9-.1-1.8-.2-2.7-.2-.2 0-.4 0-.6-.1-.5 0-.9-.1-1.4-.2-.3 0-.6-.1-.9-.1h-.3c-.2 0-.3 0-.5-.1-.4 0-.8-.1-1.2-.2-.3 0-.6-.1-.9-.1-.4-.1-.8-.1-1.2-.2-.3 0-.7-.1-1.1-.2-.2 0-.4-.1-.7-.1-1-.2-2-.4-2.9-.6-.4-.1-.8-.2-1.2-.2-.8-.2-1.7-.4-2.5-.6-.1 0-.2 0-.3-.1-.6-.1-1.2-.3-1.9-.5-.8-.2-1.5-.4-2.3-.6-.5-.2-1.1-.3-1.6-.5-.2 0-.4-.1-.5-.2-.1 0-.2-.1-.3-.1l-1.8-.6c-.7-.2-1.4-.5-2.1-.7-.5-.2-1-.3-1.4-.5-.6-.2-1.1-.4-1.7-.6-.5-.2-1-.4-1.4-.6-.4-.2-.9-.3-1.3-.5-.1 0-.2-.1-.3-.1-1.9-.8-3.9-1.6-5.8-2.5-.5-.2-1-.4-1.5-.7l-.6-.3c-.6-.3-1.1-.5-1.6-.8-.1-.1-.3-.1-.4-.2-.7-.4-1.4-.7-2.1-1.1-.1 0-.1-.1-.2-.1l-2.1-1.2-.6-.3c-.1-.1-.2-.1-.3-.2-.1-.1-.2-.1-.4-.2-1.3-.7-2.5-1.5-3.8-2.3-.1-.1-.2-.1-.3-.2 0 0-.1 0-.1-.1-1.6-1-3.2-2.1-4.7-3.2 0 0-.1 0-.1-.1-.8-.6-1.6-1.1-2.3-1.7l-.2-.2c-.1-.1-.2-.2-.3-.2-1.1-.9-2.3-1.7-3.4-2.6-.1 0-.1-.1-.2-.2-8.6-7-16.2-15.1-22.6-24.1-.5-.7-.9-1.3-1.4-2-4.7-7-8.7-14.5-11.8-22.3-1.3-3.2-2.5-6.5-3.5-9.9v-.1c0-.1-.1-.2-.1-.3-.1-.2-.1-.4-.2-.5-.2-.5-.3-1-.5-1.6-.2-.7-.4-1.5-.6-2.2v-.1c-.2-.7-.4-1.4-.5-2.1-.1-.4-.2-.7-.3-1.1-.2-.8-.4-1.7-.6-2.6-.1-.6-.2-1.2-.3-1.7 0-.1-.1-.3-.1-.4-.1-.5-.2-.9-.2-1.4-.1-.8-.3-1.6-.4-2.3-.1-.9-.3-1.8-.4-2.7v-.3c-.1-.8-.2-1.6-.3-2.3l-.3-3c-.1-.6-.1-1.3-.1-1.9-.1-.6-.1-1.1-.1-1.7v-1c0-.5-.1-1.1-.1-1.6v-3.7h120v.1z"/><path fill="#CED2DB" d="M240 120v4.7c0 .6-.1 1.2-.1 1.9 0 .4 0 .8-.1 1.2v.1c0 .6-.1 1.1-.1 1.7-.1.9-.2 1.8-.2 2.7v.2c0 .5-.1.9-.2 1.4-.1.6-.1 1.1-.2 1.7-.1.9-.2 1.8-.4 2.7v.2c0 .1 0 .2-.1.4-.3 1.8-.6 3.6-1 5.3-.7 3.4-1.5 6.7-2.5 10 0 .1 0 .1-.1.2-3.5 11.7-8.7 22.7-15.4 32.7-.5.7-.9 1.3-1.4 2-10 14.2-23.1 26.2-38.2 34.9-.1 0-.2.1-.2.1-.1.1-.3.1-.4.2-.6.3-1.1.6-1.7.9-.1.1-.3.2-.4.2h-.1c-.8.4-1.5.8-2.3 1.2-1.6.8-3.2 1.6-4.8 2.3-.3.1-.5.2-.8.3-.5.2-1.1.5-1.6.7-.4.2-.8.3-1.2.5-.2.1-.4.2-.6.2-.2.1-.5.2-.8.3-.8.3-1.5.6-2.2.9-.2.1-.4.2-.6.2-.5.2-1 .4-1.5.5h-.1c-.2.1-.4.2-.6.2-.8.3-1.7.6-2.5.9-.8.3-1.6.5-2.5.8-1.8.5-3.5 1-5.3 1.5-1.9.5-3.8.9-5.8 1.3-1.8.4-3.7.7-5.6 1-1.9.3-3.8.5-5.7.7-.4 0-.7.1-1.1.1-.5.1-1 .1-1.6.1-.2 0-.5 0-.7.1-.6 0-1.1.1-1.7.1h-.1c-.5 0-1.1.1-1.6.1h-.6c-.7 0-1.4.1-2.1.1h-3.4V120H240z"/><path fill="#0A0B0D" d="M212 120v1c-.1 24.4-5.9 47.1-15.6 66-.3.7-.7 1.3-1 2-14.3 26.7-36.7 45.5-62.4 50.3-1.5.3-3 .5-4.6.7-2.8.3-5.5.5-8.4.5v-2c4.6 0 9.2-.5 13.6-1.3 24.5-4.9 45.7-22.8 59.5-48.2.4-.7.7-1.3 1.1-2 9.8-18.8 15.7-41.5 15.8-66v-2c-.1-24.5-6-47.2-15.8-66-.3-.7-.7-1.3-1.1-2C179.3 25.6 158 7.8 133.6 2.8c-4.4-.9-9-1.3-13.6-1.3v-2c2.8 0 5.6.2 8.4.5 1.5.2 3.1.4 4.6.7 25.8 4.8 48.1 23.6 62.4 50.3.4.7.7 1.3 1 2 9.7 18.9 15.4 41.6 15.6 66v1zM120-.5v2c-4.6 0-9.2.5-13.6 1.3C82 7.8 60.7 25.6 46.9 51c-.4.7-.7 1.3-1.1 2C36 71.8 30.2 94.5 30 119v2c.1 24.5 6 47.2 15.8 66 .3.7.7 1.3 1.1 2 13.8 25.4 35.1 43.2 59.5 48.2 4.4.9 9 1.3 13.6 1.3v2c-2.8 0-5.6-.2-8.4-.5-1.5-.2-3-.4-4.6-.7-25.8-4.8-48.1-23.6-62.4-50.3-.4-.7-.7-1.3-1-2-9.7-18.9-15.4-41.6-15.6-66v-2c.1-24.4 5.9-47.1 15.6-66 .3-.7.7-1.3 1-2C58.9 24.3 81.3 5.5 107 .7c1.5-.3 3-.5 4.6-.7 2.8-.3 5.6-.5 8.4-.5z"/><path fill="#0A0B0D" d="M119.2 51v2H20.5c.4-.7.9-1.3 1.4-2h97.3zm.8 68H0v2h120v-2zm120 0H120v2h120v-2zm-120.8 68v2H21.8c-.5-.7-.9-1.3-1.4-2h98.8z"/><path fill="#0A0B0D" d="M219.6 187c-.5.7-.9 1.3-1.4 2h-99v-2h100.4zm-.1-134H118.7v-2h99.4c.5.7 1 1.3 1.4 2z"/><path fill="#fff" d="M176 120c0 30.9-25.1 56-56 56s-56-25.1-56-56 25.1-56 56-56 56 25.1 56 56z"/><path fill="#5DE2F8" d="M120 176c-30.9 0-56-25.1-56-56s25.1-56 56-56v112z"/><path fill="#0052FF" d="M76 120c0 24.3 19.7 44 44 44V76c-24.3 0-44 19.7-44 44z"/><path fill="#FFD200" d="M120 76v88c24.3 0 44-19.7 44-44s-19.7-44-44-44z"/><path fill="#0A0B0D" d="M120 152.6v-2c16.9 0 30.6-13.7 30.6-30.6h2c0 18-14.6 32.6-32.6 32.6zm32.6-32.6h-2c0-16.9-13.7-30.6-30.6-30.6v-2c18 0 32.6 14.6 32.6 32.6zM120 152.6c-18 0-32.6-14.6-32.6-32.6h2c0 16.9 13.7 30.6 30.6 30.6v2zM89.4 120h-2c0-18 14.6-32.6 32.6-32.6v2c-16.9 0-30.6 13.7-30.6 30.6z"/><path fill="#fff" d="M120 0c-2 0-4.1 0-6.1.2-2.3.1-4.6.3-6.9.5 1.5-.3 3-.5 4.6-.7h8.4zm8.4 0c1.5.2 3.1.4 4.6.7-2.3-.2-4.6-.4-6.9-.5-2-.2-4.1-.2-6.1-.2h8.4zm19.5 3.3c1.5.3 3 .7 4.4 1.1-1.5-.4-3-.8-4.4-1.1zm43.9 20.6c1.5 1.1 3 2.3 4.5 3.5-1.5-1.2-3-2.4-4.5-3.5zm46.8 77.8c.3 1.8.5 3.5.7 5.3-.2-1.7-.4-3.5-.7-5.3zM131.8 239.4c.4 0 .7-.1 1.1-.1-1.5.3-3 .5-4.6.7H120h3.4c.7 0 1.4 0 2.1-.1h.6c.5 0 1.1-.1 1.6-.1h.1c.6 0 1.1-.1 1.7-.1.2 0 .5 0 .7-.1.6-.1 1.1-.1 1.6-.2zm3.9-.4c1-.1 1.9-.3 2.9-.4-1.9.3-3.8.5-5.7.7 1-.1 1.9-.2 2.8-.3zm8.5-1.4c2-.4 3.9-.8 5.8-1.3-1.9.4-3.9.9-5.8 1.3zm16.7-4.8c.1 0 0 0 0 0-.2.1-.4.2-.6.2-.8.3-1.7.6-2.5.9-.8.3-1.6.5-2.5.8-1.8.5-3.5 1-5.3 1.5 1.9-.5 3.8-1 5.7-1.6.9-.3 1.9-.6 2.8-.9l2.4-.9zm4.9-1.8c.3-.1.6-.2.8-.3-.2.1-.4.2-.6.2-.2.1-.5.2-.8.3-.8.3-1.5.6-2.2.9-.2.1-.4.2-.6.2-.5.2-1 .4-1.5.5.2-.1.4-.1.6-.2l2.4-.9c.7-.3 1.3-.5 1.9-.7zm10.5-5c.5-.2.9-.5 1.4-.7-.1.1-.3.2-.4.2h-.1c-.8.4-1.5.8-2.3 1.2-1.6.8-3.2 1.6-4.8 2.3-.3.1-.5.2-.8.3-.5.2-1.1.5-1.6.7-.4.2-.8.3-1.2.5.2-.1.3-.1.5-.2.6-.3 1.2-.5 1.8-.8.2-.1.5-.2.7-.3.7-.3 1.3-.6 2-.9.2-.1.3-.2.5-.2.8-.4 1.7-.8 2.5-1.2.7-.3 1.2-.6 1.8-.9zm1.4-.8c.6-.3 1.1-.6 1.7-.9-.6.3-1.2.6-1.7.9zm1.6-.9c.2-.1.4-.2.6-.4-.1 0-.2.1-.2.1-.1.2-.2.2-.4.3zm58.3-80.1c-.7 3.4-1.5 6.7-2.5 10l1.2-4.2c.4-2 .9-3.9 1.3-5.8zm-3.9 14.3c.5-1.4.9-2.7 1.3-4.1-3.5 11.7-8.7 22.7-15.4 32.7-.5.7-.9 1.3-1.4 2-10 14.2-23.1 26.2-38.2 34.9.8-.4 1.5-.9 2.3-1.3l2.4-1.5c.1 0 .1-.1.2-.1.7-.5 1.4-.9 2.1-1.4.1-.1.2-.1.3-.2.7-.5 1.4-.9 2-1.4.1-.1.3-.2.4-.3.5-.4 1.1-.8 1.6-1.2.6-.4 1.2-.9 1.7-1.3.6-.4 1.2-.9 1.8-1.4.9-.7 1.8-1.4 2.6-2.2.5-.4 1-.8 1.4-1.2 2.9-2.5 5.7-5.2 8.3-8 .5-.6 1.1-1.1 1.6-1.7.5-.6 1.1-1.2 1.6-1.8.5-.5.9-1.1 1.4-1.6l.1-.1 1.2-1.5c.4-.5.8-.9 1.1-1.4.2-.2.3-.4.5-.7.3-.4.7-.9 1-1.3l1.5-2.1c.3-.4.6-.9.9-1.3v-.1c.5-.7.9-1.3 1.4-2 1.1-1.6 2.1-3.2 3.1-4.9 1-1.6 1.9-3.3 2.9-5 1.8-3.4 3.5-6.9 5.1-10.5 1.2-2.5 2.3-5.3 3.2-8zm1.4-4.4c0 .1 0 .1-.1.2 0 0 0-.1.1-.2zM1.6 139.5c.1.9.3 1.7.4 2.5-.1-.5-.2-.9-.2-1.4-.1-.8-.3-1.6-.4-2.3-.1-.9-.3-1.8-.4-2.7v-.3c-.1-.8-.2-1.6-.3-2.3.1.8.2 1.7.3 2.5.1 1 .2 1.9.4 2.9.1.3.1.7.2 1.1zm1.3 6.6c0 .2.1.5.1.7-.2-.8-.4-1.7-.6-2.6.2.6.3 1.3.5 1.9zm.9 4c.3 1.3.7 2.5 1 3.8-.2-.5-.3-1-.5-1.6-.1-.7-.3-1.5-.5-2.2zm1.2 4.3c0 .1.1.2.1.3v-.1s-.1-.1-.1-.2zm58.1 71.3c.9.5 1.8.9 2.7 1.4-.1-.1-.3-.1-.4-.2-.7-.4-1.4-.7-2.1-1.1-.1-.1-.1-.1-.2-.1zm2.7 1.4c.5.3 1.1.5 1.6.8-.5-.3-1-.6-1.6-.8zm1.7.8c.7.3 1.4.6 2 1-.5-.2-1-.4-1.5-.7-.2-.1-.4-.2-.5-.3zm-11.8-6.6c.1.1.2.1.3.2-.1-.1-.2-.1-.3-.2zm-4.9-3.3.1.1-.1-.1zm9 5.8c.4.2.8.5 1.2.7l-.6-.3c-.1-.1-.2-.1-.3-.2-.1-.1-.2-.1-.3-.2zm20.1 9.3c.5.2 1 .3 1.4.5-.4-.1-.9-.3-1.4-.5zm1.5.5c1.3.4 2.6.9 3.9 1.2l-1.8-.6c-.7-.1-1.4-.3-2.1-.6zm-4.6-1.6c1 .4 2.1.8 3.1 1.2-.6-.2-1.1-.4-1.7-.6-.4-.3-.9-.4-1.4-.6zm-7.3-3.2c1.9.9 3.8 1.7 5.8 2.5-2-.7-3.9-1.6-5.8-2.5zm5.7 2.6c.1 0 .2.1.3.1-.1-.1-.2-.1-.3-.1zm-30.8-18.3c.1 0 .1.1.2.2-.1-.1-.2-.1-.2-.2z"/><path fill="#fff" d="M62.4 225.3c.2.1.5.3.7.4l-2.1-1.2c.5.3 1 .5 1.4.8zm-13.9-9c.8.6 1.6 1.1 2.3 1.7-.8-.5-1.6-1.1-2.3-1.7zm10 6.7c.4.2.8.5 1.3.7-1.3-.7-2.5-1.5-3.8-2.3.3.2.7.4 1 .6.5.5 1 .8 1.5 1zm18.3 9c-.4-.2-.8-.3-1.3-.5.4.1.9.3 1.3.5zm8.8 3c-.1 0-.2-.1-.3-.1.1 0 .2.1.3.1zm-32.1-15.1c.7.5 1.4.9 2.1 1.4-1.6-1-3.2-2.1-4.7-3.2.9.6 1.7 1.2 2.6 1.8zm-9-6.6c1.1.9 2.2 1.8 3.4 2.6-1.1-.8-2.2-1.7-3.4-2.6zm3.4 2.6c.2.1.3.3.5.4l-.2-.2c-.1 0-.2-.1-.3-.2zm-3.5-2.8c-8.6-7-16.2-15.1-22.6-24.1-.5-.7-.9-1.3-1.4-2-4.7-7-8.7-14.5-11.8-22.3-1.3-3.2-2.5-6.5-3.5-9.9l.6 1.8c0 .1.1.2.1.3.2.5.3 1.1.5 1.6.3.8.5 1.5.8 2.3.1.4.3.8.5 1.2.2.7.5 1.3.8 2 .3.7.5 1.4.8 2l.3.6 1.2 2.7c.3.8.7 1.5 1.1 2.3.3.6.5 1.1.8 1.7.3.6.6 1.3 1 1.9.2.5.5.9.7 1.3.3.5.6 1 .9 1.6l.3.6c.3.5.5.9.8 1.4.2.4.5.8.7 1.2.3.5.5.9.8 1.3.9 1.4 1.8 2.9 2.8 4.3.4.7.9 1.3 1.4 2 6.2 9.1 13.8 17.3 22.4 24.2zM89.2 236c1 .3 2 .5 2.9.7-.1 0-.2 0-.3-.1-.6-.1-1.2-.3-1.9-.5-.8-.2-1.5-.4-2.3-.6-.5-.1-1.1-.3-1.6-.5 1.1.4 2.2.7 3.2 1zm8 1.8 1.5.3c-1-.2-2-.4-2.9-.6.5.2 1 .3 1.4.3zm2.1.4h.2c-.2 0-.4-.1-.7-.1.2.1.3.1.5.1zm1.2.2c.4.1.8.1 1.2.2-.4 0-.8-.1-1.2-.2zM120 240h-8.4c-1.5-.2-3-.4-4.6-.7.2 0 .4.1.7.1.9.1 1.8.2 2.7.2.2 0 .5 0 .8.1.7 0 1.4.1 2.1.1h1.2c.7 0 1.4.1 2.1.1h.5c.9.1 1.9.1 2.9.1z"/><path fill="#0A0B0D" d="M120 240.5v-2c30.9 0 56-53.2 56-118.5S150.9 1.5 120 1.5v-2c32 0 58 54.1 58 120.5s-26 120.5-58 120.5zm0 0c-32 0-58-54.1-58-120.5S88-.5 120-.5v2C89.1 1.5 64 54.7 64 120s25.1 118.5 56 118.5v2z"/></g><defs><clipPath id="a"><path fill="#fff" d="M0 0h240v240H0z"/></clipPath></defs></svg>