<svg xmlns="http://www.w3.org/2000/svg" fill="none" viewBox="0 0 120 120"><path fill="#00D17F" d="M16 40c0-13.255 10.745-24 24-24s24 10.745 24 24-10.745 24-24 24-24-10.745-24-24z"/><path fill="#0052FF" d="M40 40h64v64H40V40z"/><path fill="#0A0B0D" d="M40 40h24c0 13.255-10.745 24-24 24V40z"/><path fill="#FFD200" d="M56 72h8v24h-8V72z"/><path fill="#fff" d="M72 64h8v32h-8V64z"/><path fill="#00D17F" d="M88 56h8v40h-8V56z"/><path fill="#fff" d="M64 39.998c-13.257 0-23.998 10.745-23.998 24.002 0-13.257-10.745-24.002-24.002-24.002 13.257 0 24.002-10.746 24.002-23.998 0 13.252 10.74 23.998 23.998 23.998z"/></svg>