<svg xmlns="http://www.w3.org/2000/svg" xmlns:xlink="http://www.w3.org/1999/xlink" fill="none" viewBox="0 0 120 120"><mask id="a" width="120" height="108" x="0" y="6" mask-type="alpha" maskUnits="userSpaceOnUse"><path fill="#3A6FFA" d="M0 6h120v108H0z"/></mask><g mask="url(#a)"><path fill="url(#b)" fill-opacity=".6" d="M52 13h91v114H52z"/><path fill="url(#c)" d="M42 96c19.882 0 36-16.118 36-36S61.882 24 42 24 6 40.118 6 60s16.118 36 36 36z"/><g clip-path="url(#d)"><path fill="#C3A634" d="M42 92c17.673 0 32-14.327 32-32 0-17.673-14.327-32-32-32-17.673 0-32 14.327-32 32 0 17.673 14.327 32 32 32z"/><path fill="#fff" fill-rule="evenodd" d="M36.496 57.22h8.628v4.572h-8.628v9.636h5.442c2.154 0 3.916-.29 5.288-.874 1.372-.582 2.448-1.388 3.23-2.42a8.8 8.8 0 0 0 1.592-3.63 22.8 22.8 0 0 0 .42-4.504 22.8 22.8 0 0 0-.42-4.504 8.791 8.791 0 0 0-1.592-3.63c-.782-1.032-1.86-1.838-3.23-2.42-1.372-.584-3.134-.874-5.288-.874h-5.442v8.65-.002zm-5.532 4.572H28v-4.57h2.964V44h13.098c2.42 0 4.514.42 6.284 1.254 1.77.838 3.214 1.98 4.336 3.43 1.12 1.448 1.954 3.144 2.5 5.086.546 1.942.818 4.02.818 6.23.014 2.104-.262 4.2-.82 6.23-.544 1.94-1.378 3.638-2.5 5.086-1.12 1.45-2.564 2.592-4.334 3.43-1.77.836-3.866 1.254-6.284 1.254H30.964V61.792z" clip-rule="evenodd"/></g><path stroke="url(#e)" stroke-opacity=".5" stroke-width="1.5" d="M73.25 60c0 17.259-13.991 31.25-31.25 31.25S10.75 77.259 10.75 60 24.741 28.75 42 28.75 73.25 42.74 73.25 60z"/><path stroke="url(#f)" stroke-width=".5" d="M73.75 60c0 17.535-14.215 31.75-31.75 31.75S10.25 77.535 10.25 60 24.465 28.25 42 28.25 73.75 42.465 73.75 60z"/><path fill="#1652F0" d="m20 28-1.41 6.59L12 36l6.59 1.41L20 44l1.41-6.59L28 36l-6.59-1.41L20 28zM3 32a1 1 0 1 1 0-2 1 1 0 0 1 0 2z"/><path fill="#1652F0" fill-opacity=".5" d="M16 20a1 1 0 1 1 0-2 1 1 0 0 1 0 2z"/></g><defs><linearGradient id="c" x1="42" x2="42" y1="24" y2="96" gradientUnits="userSpaceOnUse"><stop stop-color="#fff" stop-opacity=".4"/><stop offset="1" stop-color="#fff" stop-opacity="0"/></linearGradient><linearGradient id="e" x1="65.5" x2="19.5" y1="80.5" y2="36" gradientUnits="userSpaceOnUse"><stop stop-color="#fff" stop-opacity="0"/><stop offset="1" stop-color="#fff"/></linearGradient><linearGradient id="f" x1="18" x2="70" y1="35.5" y2="87.5" gradientUnits="userSpaceOnUse"><stop stop-color="#fff"/><stop offset="1" stop-color="#fff" stop-opacity="0"/></linearGradient><clipPath id="d"><path fill="#fff" d="M0 0h64v64H0z" transform="translate(10 28)"/></clipPath><pattern id="b" width="1" height="1" patternContentUnits="objectBoundingBox"><use transform="matrix(.00075 0 0 .0006 -.126 0)" xlink:href="#g"/></pattern></defs></svg>