<svg xmlns="http://www.w3.org/2000/svg" fill="none" viewBox="0 0 240 240"><path fill="#1652F0" d="M140 232v-1h-1v1h1zM164 220v-1h-1v1h1zM152 220v-1h-1v1h1zM164 232v-1h-1v1h1zM152 232v-1h-1v1h1zM140 220v-1h-1v1h1zM188 208v-1h-1v1h1zM176 208v-1h-1v1h1zM176 220v-1h-1v1h1zM164 208v-1h-1v1h1zM152 208v-1h-1v1h1zM140 208v-1h-1v1h1zM200 196v-1h-1v1h1zM188 196v-1h-1v1h1zM176 196v-1h-1v1h1zM164 196v-1h-1v1h1zM152 196v-1h-1v1h1zM140 196v-1h-1v1h1zM200 184v-1h-1v1h1zM188 184v-1h-1v1h1zM176 184v-1h-1v1h1zM164 184v-1h-1v1h1zM152 184v-1h-1v1h1zM140 184v-1h-1v1h1zM200 172v-1h-1v1h1zM188 172v-1h-1v1h1zM176 172v-1h-1v1h1zM164 172v-1h-1v1h1zM152 172v-1h-1v1h1zM140 172v-1h-1v1h1zM200 64v-1h-1v1h1zM188 64v-1h-1v1h1zM176 64v-1h-1v1h1zM164 64v-1h-1v1h1zM152 64v-1h-1v1h1zM140 64v-1h-1v1h1zM200 52v-1h-1v1h1zM188 52v-1h-1v1h1zM176 52v-1h-1v1h1zM164 52v-1h-1v1h1zM152 52v-1h-1v1h1zM140 52v-1h-1v1h1zM200 40v-1h-1v1h1zM188 40v-1h-1v1h1zM176 40v-1h-1v1h1zM164 40v-1h-1v1h1zM152 40v-1h-1v1h1zM140 40v-1h-1v1h1zM188 28v-1h-1v1h1zM176 28v-1h-1v1h1zM164 28v-1h-1v1h1zM152 28v-1h-1v1h1zM140 28v-1h-1v1h1zM140 16v-1h-1v1h1zM140 4V3h-1v1h1zM152 16v-1h-1v1h1zM78.686 206.997v1h1v-1h-1zM66.686 206.997v1h1v-1h-1zM54.687 206.997v1h1v-1h-1zM102.687 218.997v1h1v-1h-1zM90.686 218.997v1h1v-1h-1zM78.686 218.997v1h1v-1h-1zM66.686 218.997v1h1v-1h-1zM54.687 218.997v1h1v-1h-1zM126.687 230.997v1h1v-1h-1zM114.687 230.997v1h1v-1h-1zM102.687 230.997v1h1v-1h-1zM90.686 230.997v1h1v-1h-1zM78.686 230.997v1h1v-1h-1zM66.686 230.997v1h1v-1h-1zM54.687 230.997v1h1v-1h-1z" opacity=".5"/><path fill="url(#a)" d="M58.5 39v201h64V39h-64z"/><path fill="url(#b)" d="M78.5 39v201h24V39h-24z"/><path fill="#FFD066" d="M90.5 90c19.882 0 36-16.118 36-36s-16.118-36-36-36-36 16.118-36 36 16.118 36 36 36z"/><path fill="url(#c)" d="M100.97 19.55 55.58 62.78c2.56 10.22 9.49 18.7 18.68 23.35l49.12-46.78c-4.21-9.45-12.38-16.75-22.41-19.8z" opacity=".3"/><path fill="url(#d)" d="M126.46 52.34c-.12-2.53-.49-5-1.1-7.37L79.78 88.38c2.34.73 4.79 1.22 7.3 1.46l39.38-37.5z" opacity=".3"/><path fill="url(#e)" d="M90.5 20c18.75 0 34 15.25 34 34s-15.25 34-34 34-34-15.25-34-34 15.25-34 34-34zm0-2c-19.88 0-36 16.12-36 36s16.12 36 36 36 36-16.12 36-36-16.12-36-36-36z" opacity=".3"/><path fill="url(#f)" d="M90.5 18.5c19.57 0 35.5 15.93 35.5 35.5s-15.93 35.5-35.5 35.5S55 73.57 55 54s15.93-35.5 35.5-35.5zm0-.5c-19.88 0-36 16.12-36 36s16.12 36 36 36 36-16.12 36-36-16.12-36-36-36z"/><path fill="#fff" d="M90.5 84.92c-17.05 0-30.92-13.87-30.92-30.92 0-17.05 13.87-30.92 30.92-30.92 17.05 0 30.92 13.87 30.92 30.92 0 17.05-13.87 30.92-30.92 30.92zm0-60.84C74 24.08 60.58 37.5 60.58 54S74 83.92 90.5 83.92 120.42 70.5 120.42 54 107 24.08 90.5 24.08z"/><path fill="#fff" d="m64 36.39-1.41-6.59L56 28.39l6.59-1.42L64 20.39l1.42 6.58L72 28.39l-6.58 1.41L64 36.39z"/><path fill="#FFD066" d="M48 40.5h3.5V44h1v-3.5H56v-1h-3.5V36h-1v3.5H48v1z"/><path fill="#88ADF5" d="M51 28a1 1 0 1 0 0-2 1 1 0 0 0 0 2zM65 46a1 1 0 1 0 0-2 1 1 0 0 0 0 2z"/><path fill="url(#g)" d="M62.5 191h-16v49h16v-49z"/><path fill="url(#h)" d="M54.5 200a8 8 0 1 0 0-16 8 8 0 0 0 0 16z"/><path fill="url(#i)" d="M54.5 185c1.87 0 3.63.73 4.95 2.05a7.007 7.007 0 0 1 0 9.9A6.96 6.96 0 0 1 54.5 199a6.96 6.96 0 0 1-4.95-2.05 7.007 7.007 0 0 1 0-9.9A6.96 6.96 0 0 1 54.5 185zm0-1c-2.05 0-4.09.78-5.66 2.34-3.12 3.12-3.12 8.19 0 11.31a7.98 7.98 0 0 0 5.66 2.34c2.05 0 4.09-.78 5.66-2.34 3.12-3.12 3.12-8.19 0-11.31A7.997 7.997 0 0 0 54.5 184z"/><path fill="#fff" stroke="url(#j)" d="M28.5 172V72c0-1.934 1.566-3.5 3.5-3.5h176c1.934 0 3.5 1.566 3.5 3.5v100c0 1.934-1.566 3.5-3.5 3.5H32a3.499 3.499 0 0 1-3.5-3.5z"/><path fill="#1652F0" d="M88 96H40v52h48V96zM212 72c0-2.21-1.79-4-4-4H32c-2.21 0-4 1.79-4 4v12h184V72z"/><path fill="#fff" d="M80 120c0-8.84-7.16-16-16-16s-16 7.16-16 16v16h24v-2.15c4.78-2.76 8-7.93 8-13.85z"/><path fill="#fff" d="m60.13 120 12.37-13.53A15.811 15.811 0 0 0 64 104c-8.84 0-16 7.16-16 16v14.26h24v-.41c.17-.1.34-.21.51-.32L60.13 120z"/><path fill="url(#k)" d="m60.13 120 12.37-13.53A15.811 15.811 0 0 0 64 104c-8.84 0-16 7.16-16 16v14.26h24v-.41c.17-.1.34-.21.51-.32L60.13 120z"/><path fill="#fff" d="m60.13 120 12.37-13.53c-.64-.4-1.3-.76-1.99-1.07L57.17 120l13.04 14.27H72v-.41c.17-.1.34-.21.51-.32L60.13 120z"/><path fill="#56B4FC" d="M80 120c0-5.92-3.22-11.09-8-13.85L59.33 120 72 133.85c4.78-2.76 8-7.93 8-13.85z"/><path fill="#fff" d="M72 134H48v2h24v-2z"/><path fill="url(#l)" d="M71.04 107.2 59.33 120l9.33 10.21v-4.88h4c.74 0 1.33-.6 1.33-1.33v-6h2.67l-5.62-10.8z"/><path fill="#fff" d="M59.33 122.67a2.67 2.67 0 1 0 0-5.34 2.67 2.67 0 0 0 0 5.34z"/><path fill="#D4EEFF" d="M59.33 121.33a1.33 1.33 0 1 0 0-2.66 1.33 1.33 0 0 0 0 2.66z" opacity=".5"/><path fill="url(#m)" d="m67.78 129.24 4.22 4.62c4.78-2.77 8-7.93 8-13.85s-3.22-11.09-8-13.85l-4.26 4.66c2.93 1.91 4.88 5.32 4.88 9.23 0 3.87-1.94 7.27-4.84 9.19z" opacity=".5"/><path fill="url(#n)" d="M200 116H96v-16h104v16zm-44 8H96v4h60v-4zm44 0h-36v4h36v-4zm-64 8H96v4h40v-4zm64 0h-56v4h56v-4zm-40 8H96v4h64v-4zm40 0h-32v4h32v-4zm0 24H40v-8h160v8z"/><path fill="url(#o)" d="M194 164h-60v76h60v-76z"/><path fill="#fff" d="M164 194c16.569 0 30-13.431 30-30 0-16.569-13.431-30-30-30-16.569 0-30 13.431-30 30 0 16.569 13.431 30 30 30z"/><path fill="url(#p)" d="M164 135c7.75 0 15.03 3.02 20.51 8.49 11.31 11.31 11.31 29.71 0 41.01-5.48 5.48-12.76 8.49-20.51 8.49-7.75 0-15.03-3.02-20.51-8.49-11.31-11.31-11.31-29.71 0-41.01 5.48-5.47 12.76-8.49 20.51-8.49zm0-1c-7.68 0-15.36 2.93-21.21 8.79-11.72 11.72-11.72 30.71 0 42.43a29.91 29.91 0 0 0 21.21 8.79c7.67 0 15.36-2.93 21.21-8.79 11.72-11.72 11.72-30.71 0-42.43-5.85-5.86-13.53-8.79-21.21-8.79z"/><path fill="url(#q)" d="M164 142.5c11.86 0 21.5 9.64 21.5 21.5s-9.64 21.5-21.5 21.5-21.5-9.64-21.5-21.5 9.64-21.5 21.5-21.5zm0-1c-12.43 0-22.5 10.07-22.5 22.5s10.07 22.5 22.5 22.5 22.5-10.07 22.5-22.5-10.07-22.5-22.5-22.5z"/><defs><linearGradient id="a" x1="90.5" x2="90.5" y1="257.86" y2="48.32" gradientUnits="userSpaceOnUse"><stop stop-color="#fff" stop-opacity="0"/><stop offset=".52" stop-color="#D4EEFF"/><stop offset="1" stop-color="#D4EEFF" stop-opacity=".3"/></linearGradient><linearGradient id="b" x1="90.5" x2="90.5" y1="257.86" y2="48.32" gradientUnits="userSpaceOnUse"><stop stop-color="#fff" stop-opacity="0"/><stop offset="1" stop-color="#fff"/></linearGradient><linearGradient id="c" x1="60.56" x2="115.09" y1="76.93" y2="28.38" gradientUnits="userSpaceOnUse"><stop stop-color="#fff" stop-opacity=".2"/><stop offset=".5" stop-color="#fff"/><stop offset="1" stop-color="#fff" stop-opacity="0"/></linearGradient><linearGradient id="d" x1="76.01" x2="130.55" y1="94.3" y2="45.74" gradientUnits="userSpaceOnUse"><stop stop-color="#fff" stop-opacity=".2"/><stop offset=".5" stop-color="#fff"/><stop offset="1" stop-color="#fff" stop-opacity="0"/></linearGradient><linearGradient id="e" x1="114.51" x2="66.49" y1="27.17" y2="80.83" gradientUnits="userSpaceOnUse"><stop stop-color="#fff" stop-opacity=".2"/><stop offset=".5" stop-color="#fff"/><stop offset="1" stop-color="#fff" stop-opacity="0"/></linearGradient><linearGradient id="f" x1="114.51" x2="66.49" y1="27.17" y2="80.83" gradientUnits="userSpaceOnUse"><stop stop-color="#fff" stop-opacity=".2"/><stop offset=".5" stop-color="#fff"/><stop offset="1" stop-color="#fff" stop-opacity="0"/></linearGradient><linearGradient id="g" x1="54.5" x2="54.5" y1="193.09" y2="239.36" gradientUnits="userSpaceOnUse"><stop offset="0" stop-color="#D4EEFF" stop-opacity=".3"/><stop offset="1" stop-color="#fff"/></linearGradient><linearGradient id="h" x1="62.5" x2="46.5" y1="192" y2="192" gradientUnits="userSpaceOnUse"><stop stop-color="#88ADF5"/><stop offset="1" stop-color="#99D6FF"/></linearGradient><linearGradient id="i" x1="48.84" x2="60.16" y1="186.34" y2="197.66" gradientUnits="userSpaceOnUse"><stop stop-color="#D4EEFF" stop-opacity="0"/><stop offset="1" stop-color="#D4EEFF"/></linearGradient><linearGradient id="j" x1="120" x2="120" y1="68" y2="176" gradientUnits="userSpaceOnUse"><stop stop-color="#D4EEFF"/><stop offset="1" stop-color="#99D6FF"/></linearGradient><linearGradient id="k" x1="63.57" x2="46.87" y1="120.43" y2="133.83" gradientUnits="userSpaceOnUse"><stop stop-color="#D4EEFF" stop-opacity="0"/><stop offset=".31" stop-color="#D4EEFF"/><stop offset="1" stop-color="#D4EEFF" stop-opacity=".3"/></linearGradient><linearGradient id="l" x1="68" x2="68" y1="107.2" y2="130.21" gradientUnits="userSpaceOnUse"><stop/><stop offset="1" stop-opacity=".8"/></linearGradient><linearGradient id="m" x1="73.87" x2="73.87" y1="108.08" y2="140.56" gradientUnits="userSpaceOnUse"><stop stop-color="#fff"/><stop offset=".1" stop-color="#fff" stop-opacity=".9"/><stop offset="1" stop-color="#fff" stop-opacity="0"/></linearGradient><linearGradient id="n" x1="120" x2="120" y1="100.61" y2="179.06" gradientUnits="userSpaceOnUse"><stop stop-color="#D4EEFF"/><stop offset="1" stop-color="#fff"/></linearGradient><linearGradient id="o" x1="164" x2="164" y1="236.76" y2="164.99" gradientUnits="userSpaceOnUse"><stop stop-color="#D4EEFF" stop-opacity="0"/><stop offset=".76" stop-color="#D4EEFF" stop-opacity=".8"/></linearGradient><linearGradient id="p" x1="185.21" x2="142.79" y1="185.21" y2="142.79" gradientUnits="userSpaceOnUse"><stop stop-color="#D4EEFF" stop-opacity="0"/><stop offset="1" stop-color="#D4EEFF"/></linearGradient><linearGradient id="q" x1="164" x2="164" y1="186.5" y2="141.5" gradientUnits="userSpaceOnUse"><stop stop-color="#1652F0" stop-opacity="0"/><stop offset="1" stop-color="#1652F0" stop-opacity=".2"/></linearGradient></defs></svg>