<svg xmlns="http://www.w3.org/2000/svg" fill="none" viewBox="0 0 240 240"><path fill="#CED2DB" d="M112 128h32v112h-32V128zm-16 0h8v96h-8v-96zm56 0h8v96h-8v-96z"/><path fill="#73A2FF" d="M24 0h192v128H24V0z"/><path fill="#fff" d="M40 16h64v64H40V16z"/><path fill="#0052FF" d="M120 16h80v16h-80V16z"/><path fill="#0A0B0D" fill-rule="evenodd" d="M168 49h-48v-2h48v2zm-32 32h-16v-2h16v2zm24 0h-16v-2h16v2zm24 0h-16v-2h16v2zm-32-16h-32v-2h32v2zm36 3c6.627 0 12-5.373 12-12s-5.373-12-12-12-12 5.373-12 12 5.373 12 12 12zm.001-4c0-4.42 3.58-8 7.999-8a7.998 7.998 0 0 1-7.999-8A8 8 0 0 1 180 56a8 8 0 0 1 8.001 8z" clip-rule="evenodd"/><path fill="#fff" d="M40 16h64v64H40V16z"/><path fill="#FFD200" fill-rule="evenodd" d="M104 64.7V80H40V64.7C47.049 54.606 58.753 48 72 48s24.951 6.605 32 16.7z" clip-rule="evenodd"/><path fill="#0A0B0D" d="M84 32c0 6.627-5.373 12-12 12s-12-5.373-12-12 5.373-12 12-12 12 5.373 12 12z"/><path fill="#fff" d="M40 102h64V86H40v16z"/><path fill="#0A0B0D" fill-rule="evenodd" d="M60.5 99.2h.4c.6 0 1.1-.2 1.4-.6.254-.222.558-.497.894-.8 1.782-1.612 4.465-4.037 5.306-3.7.1 0 .6.3.8 2.6.1.8.6 1.5 1.3 1.8.7.3 1.5.2 2.1-.3l4.3-3.7-1.3-1.6-4.3 3.7s-.1 0-.1-.1c-.2-1.5-.5-3.7-2.1-4.3-2.1-.7-4.8 1.6-8.3 5l-1.2-2.5c-.3-.6-.8-1-1.5-1.1-.7-.1-1.3.2-1.8.7-2.4 2.6-3.2 2.3-3.2 2.3-.4-.2-1.2-1.7-.6-6.9.1-.7-.3-1.4-1-1.6-.7-.2-1.4 0-1.8.6L44 97.3l1.7 1 4.7-7.1c-.2 4.1.4 6.4 2 7.1 1.9.9 4-1.2 5.5-2.8l1.2 2.5c.3.6.9 1 1.4 1.2zm18.5-.8 1.7 1 4.1-6.6c.8 3.6 2.6 5.9 5 6.3 2.4.4 4.8-1.2 6.6-4.4 0-.1.1-.1.1-.1l2.5 4.3 1.7-1-2.5-4.3c-.4-.6-1.1-1-1.8-1s-1.4.4-1.8 1c-1.4 2.4-3 3.7-4.5 3.4-1.7-.3-3.1-2.5-3.6-5.7-.1-.7-.5-1.2-1.2-1.3-.6-.1-1.3.2-1.6.7L79 98.4z" clip-rule="evenodd"/><path fill="#FFD200" d="M160 128c0 17.673-14.327 32-32 32-17.673 0-32-14.327-32-32 0-17.673 14.327-32 32-32 17.673 0 32 14.327 32 32z"/><path fill="#0052FF" fill-rule="evenodd" d="M160 128c0-17.673-14.327-32-32-32-17.673 0-32 14.327-32 32h64z" clip-rule="evenodd"/><path fill="#0A0B0D" fill-rule="evenodd" d="M128 105c-12.703 0-23 10.297-23 23s10.297 23 23 23 23-10.297 23-23-10.297-23-23-23zm-25 23c0-13.807 11.193-25 25-25s25 11.193 25 25-11.193 25-25 25-25-11.193-25-25z" clip-rule="evenodd"/><path fill="#CED2DB" d="M32 173h16v67H32v-67zm24 0h16v67H56v-67z"/><path fill="#5DE2F8" d="M80 172c0 15.464-12.536 28-28 28s-28-12.536-28-28 12.536-28 28-28 28 12.536 28 28z"/><path fill="#fff" fill-rule="evenodd" d="M52.001 160a39.798 39.798 0 0 0 12.002 12A39.798 39.798 0 0 0 52 184a39.797 39.797 0 0 0-12-12 39.797 39.797 0 0 0 12.001-12z" clip-rule="evenodd"/><path fill="#CED2DB" fill-rule="evenodd" d="M216 176h-40v64h8v-48h24v48h8v-64z" clip-rule="evenodd"/><path fill="#5DE2F8" d="M216 176c0-11.046-8.954-20-20-20s-20 8.954-20 20 8.954 20 20 20 20-8.954 20-20z"/><path fill="#0052FF" fill-rule="evenodd" d="M216 176h-40c0 11.046 8.954 20 20 20s20-8.954 20-20z" clip-rule="evenodd"/><path fill="#fff" d="M196 184a8 8 0 1 0 0-16 8 8 0 0 0 0 16z"/></svg>