<svg xmlns="http://www.w3.org/2000/svg" fill="none" viewBox="0 0 120 120"><mask id="c" fill="#fff"><path fill-rule="evenodd" d="M17.422 19h10.34v10.34h-10.34V19zm24.94.365h10.34v10.34h-10.34v-10.34zm-14.6 24.574h-10.34v10.34h10.34V43.94zm-10.34 24.937h10.34v10.34h-10.34v-10.34zm35.28-24.573h-10.34v10.34h10.34v-10.34zM67.299 19.67h10.34v10.34h-10.34V19.67zm35.279.303h-10.34v10.34h10.34v-10.34zM50.147 98.985a2.615 2.615 0 1 1-5.231 0 2.615 2.615 0 0 1 5.23 0zM47.53 76.663a2.616 2.616 0 1 0 0-5.231 2.616 2.616 0 0 0 0 5.231zm27.554 22.322a2.615 2.615 0 1 1-5.23 0 2.615 2.615 0 0 1 5.23 0zM72.47 76.663a2.616 2.616 0 1 0 0-5.231 2.616 2.616 0 0 0 0 5.231zm2.615-27.19a2.616 2.616 0 1 1-5.23 0 2.616 2.616 0 0 1 5.23 0zM97.407 101.6a2.616 2.616 0 1 0 0-5.231 2.616 2.616 0 0 0 0 5.231zm2.616-27.552a2.616 2.616 0 1 1-5.231 0 2.616 2.616 0 0 1 5.231 0zm-2.616-21.959a2.616 2.616 0 1 0 0-5.23 2.616 2.616 0 0 0 0 5.23zm-72.2 46.896a2.615 2.615 0 1 1-5.23 0 2.615 2.615 0 0 1 5.23 0z" clip-rule="evenodd"/></mask><path fill="url(#a)" fill-rule="evenodd" d="M17.422 19h10.34v10.34h-10.34V19zm24.94.365h10.34v10.34h-10.34v-10.34zm-14.6 24.574h-10.34v10.34h10.34V43.94zm-10.34 24.937h10.34v10.34h-10.34v-10.34zm35.28-24.573h-10.34v10.34h10.34v-10.34zM67.299 19.67h10.34v10.34h-10.34V19.67zm35.279.303h-10.34v10.34h10.34v-10.34zM50.147 98.985a2.615 2.615 0 1 1-5.231 0 2.615 2.615 0 0 1 5.23 0zM47.53 76.663a2.616 2.616 0 1 0 0-5.231 2.616 2.616 0 0 0 0 5.231zm27.554 22.322a2.615 2.615 0 1 1-5.23 0 2.615 2.615 0 0 1 5.23 0zM72.47 76.663a2.616 2.616 0 1 0 0-5.231 2.616 2.616 0 0 0 0 5.231zm2.615-27.19a2.616 2.616 0 1 1-5.23 0 2.616 2.616 0 0 1 5.23 0zM97.407 101.6a2.616 2.616 0 1 0 0-5.231 2.616 2.616 0 0 0 0 5.231zm2.616-27.552a2.616 2.616 0 1 1-5.231 0 2.616 2.616 0 0 1 5.231 0zm-2.616-21.959a2.616 2.616 0 1 0 0-5.23 2.616 2.616 0 0 0 0 5.23zm-72.2 46.896a2.615 2.615 0 1 1-5.23 0 2.615 2.615 0 0 1 5.23 0z" clip-rule="evenodd"/><path fill="url(#b)" d="M27.763 19h.5v-.5h-.5v.5zm-10.34 0v-.5h-.5v.5h.5zm10.34 10.34v.5h.5v-.5h-.5zm-10.34 0h-.5v.5h.5v-.5zm35.279-9.975h.5v-.5h-.5v.5zm-10.34 0v-.5h-.5v.5h.5zm10.34 10.34v.5h.5v-.5h-.5zm-10.34 0h-.5v.5h.5v-.5zM17.421 43.94v-.5h-.5v.5h.5zm10.34 0h.5v-.5h-.5v.5zm-10.34 10.34h-.5v.5h.5v-.5zm10.34 0v.5h.5v-.5h-.5zm0 14.597h.5v-.5h-.5v.5zm-10.34 0v-.5h-.5v.5h.5zm10.34 10.34v.5h.5v-.5h-.5zm-10.34 0h-.5v.5h.5v-.5zm24.94-34.913v-.5h-.5v.5h.5zm10.34 0h.5v-.5h-.5v.5zm-10.34 10.34h-.5v.5h.5v-.5zm10.34 0v.5h.5v-.5h-.5zM77.639 19.67h.5v-.5h-.5v.5zm-10.34 0v-.5h-.5v.5h.5zm10.34 10.34v.5h.5v-.5h-.5zm-10.34 0h-.5v.5h.5v-.5zm24.939-10.037v-.5h-.5v.5h.5zm10.34 0h.5v-.5h-.5v.5zm-10.34 10.34h-.5v.5h.5v-.5zm10.34 0v.5h.5v-.5h-.5zM27.763 18.5h-10.34v1h10.34v-1zm.5 10.84V19h-1v10.34h1zm-10.84.5h10.34v-1h-10.34v1zm-.5-10.84v10.34h1V19h-1zm35.779-.135h-10.34v1h10.34v-1zm.5 10.84v-10.34h-1v10.34h1zm-10.84.5h10.34v-1h-10.34v1zm-.5-10.84v10.34h1v-10.34h-1zM17.421 44.44h10.34v-1h-10.34v1zm.5 9.84V43.94h-1v10.34h1zm9.84-.5h-10.34v1h10.34v-1zm-.5-9.84v10.34h1V43.94h-1zm.5 24.437h-10.34v1h10.34v-1zm.5 10.84v-10.34h-1v10.34h1zm-10.84.5h10.34v-1h-10.34v1zm-.5-10.84v10.34h1v-10.34h-1zm25.44-24.073h10.34v-1h-10.34v1zm.5 9.84v-10.34h-1v10.34h1zm9.84-.5h-10.34v1h10.34v-1zm-.5-9.84v10.34h1v-10.34h-1zM77.639 19.17h-10.34v1h10.34v-1zm.5 10.84V19.67h-1v10.34h1zm-10.84.5h10.34v-1h-10.34v1zm-.5-10.84v10.34h1V19.67h-1zm25.439.803h10.34v-1h-10.34v1zm.5 9.84v-10.34h-1v10.34h1zm9.84-.5h-10.34v1h10.34v-1zm-.5-9.84v10.34h1v-10.34h-1zM47.531 102.1a3.115 3.115 0 0 0 3.116-3.115h-1a2.115 2.115 0 0 1-2.116 2.115v1zm-3.115-3.115a3.115 3.115 0 0 0 3.115 3.115v-1a2.115 2.115 0 0 1-2.115-2.115h-1zm3.115-3.116a3.116 3.116 0 0 0-3.115 3.116h1c0-1.168.947-2.116 2.115-2.116v-1zm3.116 3.116a3.116 3.116 0 0 0-3.116-3.116v1c1.168 0 2.116.948 2.116 2.116h1zm-1-24.938a2.116 2.116 0 0 1-2.116 2.116v1a3.116 3.116 0 0 0 3.116-3.115h-1zm-2.116-2.115c1.168 0 2.116.947 2.116 2.115h1a3.116 3.116 0 0 0-3.116-3.115v1zm-2.115 2.115c0-1.168.947-2.115 2.115-2.115v-1a3.116 3.116 0 0 0-3.115 3.115h1zm2.115 2.116a2.116 2.116 0 0 1-2.115-2.115h-1a3.116 3.116 0 0 0 3.115 3.115v-1zM72.47 102.1a3.115 3.115 0 0 0 3.115-3.115h-1a2.115 2.115 0 0 1-2.115 2.115v1zm-3.116-3.115a3.115 3.115 0 0 0 3.116 3.115v-1a2.115 2.115 0 0 1-2.116-2.115h-1zm3.116-3.116a3.115 3.115 0 0 0-3.116 3.116h1c0-1.168.948-2.116 2.116-2.116v-1zm3.115 3.116a3.115 3.115 0 0 0-3.115-3.116v1c1.168 0 2.115.948 2.115 2.116h1zm-1-24.938a2.116 2.116 0 0 1-2.115 2.116v1a3.115 3.115 0 0 0 3.115-3.115h-1zm-2.115-2.115c1.168 0 2.115.947 2.115 2.115h1a3.115 3.115 0 0 0-3.115-3.115v1zm-2.116 2.115c0-1.168.948-2.115 2.116-2.115v-1a3.115 3.115 0 0 0-3.116 3.115h1zm2.116 2.116a2.115 2.115 0 0 1-2.116-2.115h-1a3.115 3.115 0 0 0 3.116 3.115v-1zm0-23.574a3.115 3.115 0 0 0 3.115-3.115h-1a2.116 2.116 0 0 1-2.115 2.115v1zm-3.116-3.115a3.115 3.115 0 0 0 3.116 3.115v-1a2.115 2.115 0 0 1-2.116-2.115h-1zm3.116-3.116a3.115 3.115 0 0 0-3.116 3.116h1c0-1.168.948-2.116 2.116-2.116v-1zm3.115 3.116a3.115 3.115 0 0 0-3.115-3.116v1c1.168 0 2.115.948 2.115 2.116h1zm23.938 49.51a2.115 2.115 0 0 1-2.116 2.116v1a3.115 3.115 0 0 0 3.116-3.115h-1zm-2.116-2.115c1.169 0 2.116.948 2.116 2.116h1a3.116 3.116 0 0 0-3.116-3.116v1zm-2.115 2.116c0-1.168.947-2.116 2.115-2.116v-1a3.115 3.115 0 0 0-3.115 3.116h1zm2.115 2.115a2.115 2.115 0 0 1-2.115-2.115h-1a3.115 3.115 0 0 0 3.115 3.115v-1zm0-23.937a3.116 3.116 0 0 0 3.116-3.115h-1a2.115 2.115 0 0 1-2.116 2.115v1zm-3.115-3.115a3.115 3.115 0 0 0 3.115 3.115v-1a2.116 2.116 0 0 1-2.115-2.115h-1zm3.115-3.116a3.115 3.115 0 0 0-3.115 3.115h1c0-1.168.947-2.115 2.115-2.115v-1zm3.116 3.115a3.116 3.116 0 0 0-3.116-3.115v1c1.169 0 2.116.947 2.116 2.115h1zm-1-24.573a2.115 2.115 0 0 1-2.116 2.115v1a3.116 3.116 0 0 0 3.116-3.115h-1zm-2.116-2.116c1.169 0 2.116.948 2.116 2.116h1a3.116 3.116 0 0 0-3.116-3.116v1zm-2.115 2.116c0-1.168.947-2.116 2.115-2.116v-1a3.115 3.115 0 0 0-3.115 3.116h1zm2.115 2.115a2.116 2.116 0 0 1-2.115-2.115h-1a3.115 3.115 0 0 0 3.115 3.115v-1zM22.592 102.1a3.115 3.115 0 0 0 3.116-3.115h-1a2.115 2.115 0 0 1-2.116 2.115v1zm-3.115-3.115a3.115 3.115 0 0 0 3.115 3.115v-1a2.115 2.115 0 0 1-2.115-2.115h-1zm3.115-3.116a3.115 3.115 0 0 0-3.115 3.116h1c0-1.168.947-2.116 2.115-2.116v-1zm3.116 3.116a3.115 3.115 0 0 0-3.116-3.116v1c1.168 0 2.116.948 2.116 2.116h1z" mask="url(#c)"/><path fill="url(#d)" d="M60 96c19.882 0 36-16.118 36-36S79.882 24 60 24 24 40.118 24 60s16.118 36 36 36z"/><path fill="#1D2743" d="M60 92c17.673 0 32-14.327 32-32 0-17.673-14.327-32-32-32-17.673 0-32 14.327-32 32 0 17.673 14.327 32 32 32z"/><path fill="#fff" d="M49.4 46.72H46v3.4h3.4v-3.4zM57.6 46.84h-3.4v3.4h3.4v-3.4zM49.4 54.92H46v3.4h3.4v-3.4zM49.4 63.12H46v3.4h3.4v-3.4zM57.6 55.04h-3.4v3.4h3.4v-3.4zM65.8 46.94h-3.4v3.4h3.4v-3.4zM74 47.04h-3.4v3.4H74v-3.4zM55.9 73.88a.86.86 0 1 0 0-1.72.86.86 0 0 0 0 1.72zM55.9 65.68a.86.86 0 1 0 0-1.72.86.86 0 0 0 0 1.72zM64.1 73.88a.86.86 0 1 0 0-1.72.86.86 0 0 0 0 1.72zM64.1 65.68a.86.86 0 1 0 0-1.72.86.86 0 0 0 0 1.72zM64.1 57.6a.86.86 0 1 0 0-1.72.86.86 0 0 0 0 1.72zM72.3 73.88a.86.86 0 1 0 0-1.72.86.86 0 0 0 0 1.72zM72.3 65.68a.86.86 0 1 0 0-1.72.86.86 0 0 0 0 1.72zM72.3 57.6a.86.86 0 1 0 0-1.72.86.86 0 0 0 0 1.72zM47.7 73.88a.86.86 0 1 0 0-1.72.86.86 0 0 0 0 1.72z"/><path stroke="url(#e)" stroke-opacity=".5" stroke-width="1.5" d="M91.25 60c0 17.259-13.991 31.25-31.25 31.25S28.75 77.259 28.75 60 42.741 28.75 60 28.75 91.25 42.74 91.25 60z"/><path stroke="url(#f)" stroke-width=".5" d="M91.75 60c0 17.535-14.215 31.75-31.75 31.75S28.25 77.535 28.25 60 42.465 28.25 60 28.25 91.75 42.465 91.75 60z"/><path fill="#FFAE24" d="m38 29-1.41 6.59L30 37l6.59 1.41L38 45l1.41-6.59L46 37l-6.59-1.41L38 29z"/><path fill="#0052FF" d="M21 33a1 1 0 1 1 0-2 1 1 0 0 1 0 2z"/><path fill="#0052FF" fill-opacity=".5" d="M34 21a1 1 0 1 1 0-2 1 1 0 0 1 0 2z"/><defs><linearGradient id="a" x1="17" x2="114.5" y1="17" y2="126" gradientUnits="userSpaceOnUse"><stop stop-color="#1652F0" stop-opacity=".8"/><stop offset="1" stop-color="#fff" stop-opacity="0"/></linearGradient><linearGradient id="b" x1="17" x2="99" y1="17" y2="103" gradientUnits="userSpaceOnUse"><stop stop-color="#fff" stop-opacity=".6"/><stop offset="1" stop-color="#fff" stop-opacity="0"/></linearGradient><linearGradient id="d" x1="60" x2="60" y1="24" y2="96" gradientUnits="userSpaceOnUse"><stop stop-color="#fff" stop-opacity=".6"/><stop offset="1" stop-color="#fff" stop-opacity="0"/></linearGradient><linearGradient id="e" x1="83.5" x2="37.5" y1="80.5" y2="36" gradientUnits="userSpaceOnUse"><stop stop-color="#fff" stop-opacity="0"/><stop offset="1" stop-color="#fff"/></linearGradient><linearGradient id="f" x1="36" x2="88" y1="35.5" y2="87.5" gradientUnits="userSpaceOnUse"><stop stop-color="#fff"/><stop offset="1" stop-color="#fff" stop-opacity="0"/></linearGradient></defs></svg>