<svg xmlns="http://www.w3.org/2000/svg" fill="none" viewBox="0 0 120 120"><path fill="#CED2DB" d="M104 32H48v72h56V32z"/><path fill="#000" d="M48 32V16l56 16H48z"/><path fill="#FFD200" d="M44 96c15.464 0 28-12.536 28-28S59.464 40 44 40 16 52.536 16 68s12.536 28 28 28z"/><path fill="#0052FF" d="M48 40.3v55.4C61.6 93.8 72 82.1 72 68S61.6 42.2 48 40.3z"/><path fill="#fff" d="M96 48c-4.4 0-8 3.6-8 8 0-4.4-3.6-8-8-8 4.4 0 8-3.6 8-8 0 4.4 3.6 8 8 8z"/><path fill="#000" d="M44 89c-11.6 0-21-9.4-21-21s9.4-21 21-21 21 9.4 21 21-9.4 21-21 21zm0-40c-10.5 0-19 8.5-19 19s8.5 19 19 19 19-8.5 19-19-8.5-19-19-19z"/><path fill="#000" d="M65 68c0-10.2-7.3-18.7-17-20.6v2c8.6 1.8 15 9.5 15 18.6 0 9.1-6.4 16.7-15 18.6v2c9.7-1.9 17-10.4 17-20.6z"/></svg>