<svg xmlns="http://www.w3.org/2000/svg" fill="none" viewBox="0 0 48 48"><path fill="#A9A9A9" d="M48 5.143H.114V42.97H48V5.143z"/><path fill="#747474" d="M19.496 5.143H0V42.97h19.496V5.143z"/><path fill="#A9A9A9" d="M19.61 38.285c7.18 0 12.998-5.832 12.998-13.028 0-7.195-5.819-13.029-12.997-13.029-7.179 0-12.998 5.834-12.998 13.029s5.82 13.028 12.998 13.028z"/><path fill="#747474" d="M19.611 12.229c7.183 0 12.998 5.828 12.998 13.028S26.794 38.285 19.61 38.285V12.23z"/><path fill="#fff" d="M19.611 12.229c7.183 0 12.998 5.828 12.998 13.028H19.61V12.228zM45.834 8.8H35.23v1.143h10.604V8.8zm0 2.514H35.23v1.143h10.604v-1.143zm0 2.515h-6.5v1.142h6.5v-1.143z"/></svg>