<svg xmlns="http://www.w3.org/2000/svg" fill="none" viewBox="0 0 240 240"><path fill="url(#a)" d="M143 204V0H59v204h84z"/><path fill="#1652F0" fill-opacity=".5" d="M112 232v-1h-1v1h1zM136 220v-1h-1v1h1zM124 220v-1h-1v1h1zM112 220v-1h-1v1h1zM160 208v-1h-1v1h1zM148 208v-1h-1v1h1zM136 208v-1h-1v1h1zM124 208v-1h-1v1h1zM112 208v-1h-1v1h1zM184 196v-1h-1v1h1zM172 196v-1h-1v1h1zM160 196v-1h-1v1h1zM148 196v-1h-1v1h1zM136 196v-1h-1v1h1zM124 196v-1h-1v1h1zM112 196v-1h-1v1h1zM184 184v-1h-1v1h1zM172 184v-1h-1v1h1zM160 184v-1h-1v1h1zM148 184v-1h-1v1h1zM136 184v-1h-1v1h1zM124 184v-1h-1v1h1zM112 184v-1h-1v1h1zM184 172v-1h-1v1h1zM172 172v-1h-1v1h1zM160 172v-1h-1v1h1zM148 172v-1h-1v1h1zM136 172v-1h-1v1h1zM124 172v-1h-1v1h1zM112 172v-1h-1v1h1zM184 160v-1h-1v1h1zM172 160v-1h-1v1h1zM160 160v-1h-1v1h1zM148 160v-1h-1v1h1zM136 160v-1h-1v1h1zM124 160v-1h-1v1h1zM112 160v-1h-1v1h1zM184 148v-1h-1v1h1zM172 148v-1h-1v1h1zM160 148v-1h-1v1h1zM148 148v-1h-1v1h1zM136 148v-1h-1v1h1zM124 148v-1h-1v1h1zM112 148v-1h-1v1h1zM184 136v-1h-1v1h1zM172 136v-1h-1v1h1zM160 136v-1h-1v1h1zM148 136v-1h-1v1h1zM136 136v-1h-1v1h1zM124 136v-1h-1v1h1zM112 136v-1h-1v1h1zM184 124v-1h-1v1h1zM172 124v-1h-1v1h1zM160 124v-1h-1v1h1zM148 124v-1h-1v1h1zM136 124v-1h-1v1h1zM124 124v-1h-1v1h1zM112 124v-1h-1v1h1zM184 112v-1h-1v1h1zM172 112v-1h-1v1h1zM160 112v-1h-1v1h1zM148 112v-1h-1v1h1zM136 112v-1h-1v1h1zM124 112v-1h-1v1h1zM112 112v-1h-1v1h1zM184 100v-1h-1v1h1zM172 100v-1h-1v1h1zM160 100v-1h-1v1h1zM148 100v-1h-1v1h1zM136 100v-1h-1v1h1zM124 100v-1h-1v1h1zM112 100v-1h-1v1h1zM184 88v-1h-1v1h1zM172 88v-1h-1v1h1zM160 88v-1h-1v1h1zM148 88v-1h-1v1h1zM136 88v-1h-1v1h1zM124 88v-1h-1v1h1zM112 88v-1h-1v1h1zM184 76v-1h-1v1h1zM172 76v-1h-1v1h1zM160 76v-1h-1v1h1zM148 76v-1h-1v1h1zM136 76v-1h-1v1h1zM124 76v-1h-1v1h1zM112 76v-1h-1v1h1zM184 64v-1h-1v1h1zM172 64v-1h-1v1h1zM160 64v-1h-1v1h1zM148 64v-1h-1v1h1zM136 64v-1h-1v1h1zM124 64v-1h-1v1h1zM112 64v-1h-1v1h1zM184 52v-1h-1v1h1zM172 52v-1h-1v1h1zM160 52v-1h-1v1h1zM148 52v-1h-1v1h1zM136 52v-1h-1v1h1zM124 52v-1h-1v1h1zM112 52v-1h-1v1h1zM184 40v-1h-1v1h1zM172 40v-1h-1v1h1zM160 40v-1h-1v1h1zM148 40v-1h-1v1h1zM136 40v-1h-1v1h1zM124 40v-1h-1v1h1zM112 40v-1h-1v1h1zM184 28v-1h-1v1h1zM160 28v-1h-1v1h1zM148 28v-1h-1v1h1zM136 28v-1h-1v1h1zM124 28v-1h-1v1h1zM112 28v-1h-1v1h1zM112 16v-1h-1v1h1zM112 4V3h-1v1h1zM124 16v-1h-1v1h1z"/><path fill="#fff" stroke="url(#b)" d="M28.5 172V72c0-1.924 1.576-3.5 3.5-3.5h176c1.924 0 3.5 1.576 3.5 3.5v100c0 1.924-1.576 3.5-3.5 3.5H32a3.512 3.512 0 0 1-3.5-3.5z"/><path fill="#1652F0" d="M88 96H40v52h48V96zM212 72c0-2.2-1.8-4-4-4H32c-2.2 0-4 1.8-4 4v12h184V72z"/><path fill="#fff" d="M80 120c0-8.8-7.2-16-16-16s-16 7.2-16 16v16h24v-2.1c4.8-2.8 8-8 8-13.9z"/><path fill="#fff" d="m60.1 120 12.4-13.5c-2.5-1.6-5.4-2.5-8.5-2.5-8.8 0-16 7.2-16 16V134.2h24v-.4c.2-.1.3-.2.5-.3L60.1 120z"/><path fill="url(#c)" d="m60.1 120 12.4-13.5c-2.5-1.6-5.4-2.5-8.5-2.5-8.8 0-16 7.2-16 16V134.2h24v-.4c.2-.1.3-.2.5-.3L60.1 120z"/><path fill="#fff" d="m60.1 120 12.4-13.5c-.6-.4-1.3-.8-2-1.1L57.2 120l13 14.3H72v-.4c.2-.1.3-.2.5-.3L60.1 120z"/><path fill="#56B4FC" d="M80 120c0-5.9-3.2-11.1-8-13.9L59.3 120 72 133.9c4.8-2.8 8-8 8-13.9z"/><path fill="#fff" d="M72 134H48v2h24v-2z"/><path fill="url(#d)" d="M71 107.2 59.3 120l9.3 10.2v-4.9h4c.7 0 1.3-.6 1.3-1.3v-6h2.7L71 107.2z"/><path fill="#fff" d="M59.3 122.7a2.7 2.7 0 1 0 0-5.4 2.7 2.7 0 0 0 0 5.4z"/><path fill="#D4EEFF" d="M59.3 121.3a1.3 1.3 0 1 0 0-2.6 1.3 1.3 0 0 0 0 2.6z" opacity=".5"/><path fill="url(#e)" d="m67.8 129.2 4.2 4.6c4.8-2.8 8-7.9 8-13.9s-3.2-11.1-8-13.9l-4.3 4.7c2.9 1.9 4.9 5.3 4.9 9.2 0 4-1.9 7.4-4.8 9.3z" opacity=".5"/><path fill="url(#f)" d="M200 116H96v-16h104v16zm-48 8H96v4h56v-4zm34 0h-28v4h28v-4zm-50 8H96v4h40v-4zm50 0h-44v4h44v-4zm-30 8H96v4h60v-4zm30 0h-24v4h24v-4zm14 24H40v-8h160v8z"/><path fill="#fff" stroke="url(#g)" d="M151.5 176c0 17.397-14.103 31.5-31.5 31.5S88.5 193.397 88.5 176s14.103-31.5 31.5-31.5 31.5 14.103 31.5 31.5z"/><path fill="#1652F0" d="M120 204c15.464 0 28-12.536 28-28s-12.536-28-28-28-28 12.536-28 28 12.536 28 28 28z"/><path fill="#fff" d="M128.5 173.2h-3.1v-6.7c0-3-2.4-5.4-5.4-5.4-3 0-5.4 2.4-5.4 5.4v6.7h-3.1v-6.7c0-4.7 3.8-8.5 8.5-8.5s8.5 3.8 8.5 8.5v6.7z"/><path fill="url(#h)" d="M128.5 173.2h-3.1v-6.7c0-3-2.4-5.4-5.4-5.4-3 0-5.4 2.4-5.4 5.4v6.7h-3.1v-6.7c0-4.7 3.8-8.5 8.5-8.5s8.5 3.8 8.5 8.5v6.7z"/><path fill="#fff" d="M133.9 170.4h-27.8V192h27.8v-21.6z"/><path fill="#000" d="M120 181.2a2.3 2.3 0 1 0 0-4.6 2.3 2.3 0 0 0 0 4.6z"/><path fill="#000" d="m120 178.9-2.3 7.7h4.6l-2.3-7.7z"/><path fill="#1652F0" d="m198.2 122.8-4.3 4.3-2.1-2.2-1 1.1 3.1 3.2 5.3-5.3-1-1.1zM198.2 130.8l-4.3 4.3-2.1-2.2-1 1.1 3.1 3.2 5.3-5.3-1-1.1zM198.2 138.8l-4.3 4.3-2.1-2.2-1 1.1 3.1 3.2 5.3-5.3-1-1.1z"/><defs><linearGradient id="a" x1="101" x2="101" y1="-.28" y2="205.48" gradientUnits="userSpaceOnUse"><stop stop-color="#D4EEFF" stop-opacity="0"/><stop offset=".31" stop-color="#D4EEFF"/><stop offset="1" stop-color="#D4EEFF" stop-opacity=".3"/></linearGradient><linearGradient id="b" x1="120" x2="120" y1="68" y2="176" gradientUnits="userSpaceOnUse"><stop stop-color="#D4EEFF"/><stop offset="1" stop-color="#99D6FF"/></linearGradient><linearGradient id="c" x1="63.57" x2="46.87" y1="120.43" y2="133.83" gradientUnits="userSpaceOnUse"><stop stop-color="#D4EEFF" stop-opacity="0"/><stop offset=".31" stop-color="#D4EEFF"/><stop offset="1" stop-color="#D4EEFF" stop-opacity=".3"/></linearGradient><linearGradient id="d" x1="68" x2="68" y1="107.2" y2="130.21" gradientUnits="userSpaceOnUse"><stop/><stop offset="1" stop-opacity=".8"/></linearGradient><linearGradient id="e" x1="73.87" x2="73.87" y1="108.08" y2="140.56" gradientUnits="userSpaceOnUse"><stop stop-color="#fff"/><stop offset=".1" stop-color="#fff" stop-opacity=".9"/><stop offset="1" stop-color="#fff" stop-opacity="0"/></linearGradient><linearGradient id="f" x1="120" x2="120" y1="100.61" y2="179.06" gradientUnits="userSpaceOnUse"><stop stop-color="#D4EEFF"/><stop offset="1" stop-color="#fff"/></linearGradient><linearGradient id="g" x1="120" x2="120" y1="144" y2="208" gradientUnits="userSpaceOnUse"><stop stop-color="#D4EEFF"/><stop offset="1" stop-color="#99D6FF"/></linearGradient><linearGradient id="h" x1="111.5" x2="128.5" y1="165.58" y2="165.58" gradientUnits="userSpaceOnUse"><stop stop-color="#D4EEFF"/><stop offset="1" stop-color="#fff"/></linearGradient></defs></svg>