<svg xmlns="http://www.w3.org/2000/svg" fill="none" viewBox="0 0 240 240"><path fill="url(#a)" d="M152 92V0H88v92h64z"/><path fill="url(#b)" d="M136 78V0h-32v78h32z"/><path fill="#1652F0" d="M120 0v1h1V0h-1zM132 0v1h1V0h-1zM144 0v1h1V0h-1zM96 12v1h1v-1h-1zM108 12v1h1v-1h-1zM120 12v1h1v-1h-1zM132 12v1h1v-1h-1zM144 12v1h1v-1h-1zM72 24v1h1v-1h-1zM84 24v1h1v-1h-1zM96 24v1h1v-1h-1zM108 24v1h1v-1h-1zM120 24v1h1v-1h-1zM132 24v1h1v-1h-1zM144 24v1h1v-1h-1zM156 0v1h1V0h-1zM156 12v1h1v-1h-1zM156 24v1h1v-1h-1zM72 36v1h1v-1h-1zM84 36v1h1v-1h-1zM96 36v1h1v-1h-1zM108 36v1h1v-1h-1zM120 36v1h1v-1h-1zM132 36v1h1v-1h-1zM144 36v1h1v-1h-1zM72 48v1h1v-1h-1zM84 48v1h1v-1h-1zM96 48v1h1v-1h-1zM108 48v1h1v-1h-1zM120 48v1h1v-1h-1zM132 48v1h1v-1h-1zM144 48v1h1v-1h-1zM72 60v1h1v-1h-1zM84 60v1h1v-1h-1zM96 60v1h1v-1h-1zM108 60v1h1v-1h-1zM120 60v1h1v-1h-1zM132 60v1h1v-1h-1zM144 60v1h1v-1h-1zM72 72v1h1v-1h-1zM84 72v1h1v-1h-1zM96 72v1h1v-1h-1zM108 72v1h1v-1h-1zM120 72v1h1v-1h-1zM132 72v1h1v-1h-1zM96 84v1h1v-1h-1zM108 84v1h1v-1h-1zM120 84v1h1v-1h-1zM132 84v1h1v-1h-1zM96 96v1h1v-1h-1zM108 96v1h1v-1h-1zM120 96v1h1v-1h-1zM132 96v1h1v-1h-1zM144 96v1h1v-1h-1z" opacity=".5"/><path fill="#1652F0" d="M50 90c-3.31 0-6-2.69-6-6v100.11c0 3.25 2.64 5.89 5.89 5.89H196V90H50z"/><path fill="#000" d="M50 90h134V78H50c-3.31 0-6 2.69-6 6s2.69 6 6 6z"/><path fill="#fff" stroke="#D4EEFF" d="M209.499 223.5H30.501c.27-49.204 40.232-89 89.499-89 49.267 0 89.23 39.796 89.499 89z"/><path fill="url(#c)" d="M56.45 160.27C40.11 176.57 30 199.1 30 224h90l-48.28-48.45-15.27-15.28z"/><path fill="url(#d)" d="M120 148c-41.97 0-76 34.03-76 76h152c0-41.97-34.03-76-76-76z"/><path fill="#1652F0" d="m127.74 215.67-15.48 15.48-43.86-54.18 5.16-5.16 54.18 43.86z"/><path fill="url(#e)" d="M71.07 174.3 120 223.41l7.74-7.74-54.18-43.86-2.49 2.49z"/><path fill="#fff" stroke="#D4EEFF" d="M135.5 224c0 8.56-6.94 15.5-15.5 15.5-8.56 0-15.5-6.94-15.5-15.5 0-8.56 6.94-15.5 15.5-15.5 8.56 0 15.5 6.94 15.5 15.5z"/><defs><linearGradient id="a" x1="120" x2="120" y1=".26" y2="41.51" gradientUnits="userSpaceOnUse"><stop stop-color="#fff" stop-opacity="0"/><stop offset="1" stop-color="#D4EEFF"/></linearGradient><linearGradient id="b" x1="120" x2="120" y1="-6.93" y2="74.38" gradientUnits="userSpaceOnUse"><stop stop-color="#fff" stop-opacity="0"/><stop offset="1" stop-color="#fff"/></linearGradient><linearGradient id="c" x1="75" x2="75" y1="220.36" y2="162.35" gradientUnits="userSpaceOnUse"><stop stop-color="#fff"/><stop offset="1" stop-color="#F46767"/></linearGradient><linearGradient id="d" x1="44" x2="196" y1="186" y2="186" gradientUnits="userSpaceOnUse"><stop stop-color="#fff"/><stop offset=".54" stop-color="#C8E7FE"/></linearGradient><linearGradient id="e" x1="71.07" x2="127.74" y1="197.61" y2="197.61" gradientUnits="userSpaceOnUse"><stop offset=".06" stop-color="#1652F0"/><stop offset="1" stop-color="#56B4FC"/></linearGradient></defs></svg>