<svg xmlns="http://www.w3.org/2000/svg" fill="none" viewBox="0 0 48 49"><path fill="#BFE9FF" d="M42 0H6v44.977h36V0z"/><path fill="#56B4FC" d="M43.5 18.015h-39c-.825 0-1.5.675-1.5 1.5V45h42V19.515c0-.825-.675-1.5-1.5-1.5z"/><path fill="#BFE9FF" d="M42 21.014H6v23.988h36V21.014z"/><path fill="#1652F0" d="M42 18.015H6v26.986h36V18.015z"/><path fill="#fff" d="m18 25.512 2.475 10.194 2.4-2.399 4.275 4.198L30 34.657l-4.2-4.273 2.4-2.399L18 25.512z"/><path fill="#56B4FC" d="M46.5 48h-45C.675 48 0 47.325 0 46.5v-1.498h48V46.5c0 .824-.675 1.5-1.5 1.5z"/></svg>