<svg xmlns="http://www.w3.org/2000/svg" fill="none" viewBox="0 0 256 168"><g filter="url(#a)"><path fill="url(#b)" d="M138.828 83.475c0-11.742 0-17.612 2.31-22.097a21.087 21.087 0 0 1 9.265-9.162c4.535-2.285 10.472-2.285 22.346-2.285h25.261c11.874 0 17.811 0 22.346 2.285a21.087 21.087 0 0 1 9.265 9.162c2.31 4.485 2.31 10.355 2.31 22.097v24.981c0 11.741 0 17.612-2.31 22.097a21.086 21.086 0 0 1-9.265 9.162C215.821 142 209.884 142 198.01 142h-25.261c-11.874 0-17.811 0-22.346-2.285a21.086 21.086 0 0 1-9.265-9.162c-2.31-4.485-2.31-10.356-2.31-22.097V83.475z"/><path fill="#fff" d="M216.413 95.966c0 17.425-13.894 31.552-31.034 31.552s-31.035-14.127-31.035-31.552c0-17.426 13.895-31.552 31.035-31.552s31.034 14.126 31.034 31.552z"/><path fill="#1652F0" d="M175.034 90.775c0-1.623 0-2.435.332-3.055.293-.545.76-.988 1.334-1.266.652-.316 1.507-.316 3.216-.316h10.926c1.709 0 2.563 0 3.216.316.574.278 1.04.721 1.333 1.266.332.62.332 1.432.332 3.055v10.38c0 1.624 0 2.435-.332 3.055a2.98 2.98 0 0 1-1.333 1.267c-.653.316-1.507.316-3.216.316h-10.926c-1.709 0-2.564 0-3.216-.316a2.982 2.982 0 0 1-1.334-1.267c-.332-.62-.332-1.431-.332-3.055v-10.38z"/></g><g filter="url(#c)"><path fill="#0052FF" d="M24 55.544c0-11.741 0-17.612 2.31-22.097a21.084 21.084 0 0 1 9.266-9.162C40.11 22 46.047 22 57.92 22h25.262c11.873 0 17.81 0 22.345 2.285a21.087 21.087 0 0 1 9.265 9.162c2.311 4.485 2.311 10.355 2.311 22.097v24.981c0 11.742 0 17.612-2.311 22.097a21.086 21.086 0 0 1-9.265 9.162c-4.535 2.285-10.472 2.285-22.345 2.285H57.92c-11.873 0-17.81 0-22.345-2.285a21.084 21.084 0 0 1-9.265-9.162C24 98.137 24 92.267 24 80.525V55.544z"/><g clip-path="url(#d)"><path fill="#fff" d="M70.545 80.5c-6.642 0-12.022-5.37-12.022-12s5.38-12 12.022-12c5.951 0 10.89 4.33 11.842 10H94.5c-1.022-12.32-11.351-22-23.955-22-13.275 0-24.045 10.75-24.045 24s10.77 24 24.045 24c12.604 0 22.933-9.68 23.955-22H82.387c-.951 5.67-5.89 10-11.842 10z"/></g></g><path fill="#fff" stroke="url(#e)" d="M91.742 80.449c0-10.871 8.695-19.673 19.408-19.673h30.528c10.713 0 19.408 8.802 19.408 19.673 0 10.87-8.695 19.672-19.409 19.672H111.15c-10.713 0-19.409-8.801-19.409-19.672z"/><path fill="url(#f)" fill-rule="evenodd" d="M122.633 71.54c0-1.08-.851-1.954-1.902-1.954h-7.029c-6.12 0-11.081 5.095-11.081 11.38 0 6.284 4.961 11.379 11.081 11.379h7.029c1.051 0 1.902-.875 1.902-1.954s-.851-1.953-1.902-1.953h-7.029c-4.019 0-7.276-3.346-7.276-7.472 0-4.127 3.257-7.473 7.276-7.473h7.029c1.051 0 1.902-.874 1.902-1.953zm8.116 18.851c0-1.079.852-1.953 1.902-1.953h6.476c4.019 0 7.276-3.346 7.276-7.472 0-4.127-3.257-7.473-7.276-7.473h-6.476c-1.05 0-1.902-.874-1.902-1.953 0-1.08.852-1.954 1.902-1.954h6.476c6.12 0 11.081 5.095 11.081 11.38 0 6.284-4.961 11.379-11.081 11.379h-6.476c-1.05 0-1.902-.875-1.902-1.954z" clip-rule="evenodd"/><path fill="url(#g)" d="M118.139 80.966c0-1.714 1.482-3.104 3.31-3.104h9.931c1.828 0 3.31 1.39 3.31 3.104 0 1.714-1.482 3.103-3.31 3.103h-9.931c-1.828 0-3.31-1.39-3.31-3.103z"/><defs><linearGradient id="b" x1="185.38" x2="185.38" y1="49.93" y2="142" gradientUnits="userSpaceOnUse"><stop stop-color="#3663F2"/><stop offset="1" stop-color="#2049D6"/></linearGradient><linearGradient id="e" x1="126.41" x2="126.41" y1="60.28" y2="100.62" gradientUnits="userSpaceOnUse"><stop stop-color="#BFE9FF"/><stop offset="1" stop-color="#D4EEFF"/></linearGradient><linearGradient id="f" x1="112.71" x2="147.3" y1="71.45" y2="92.08" gradientUnits="userSpaceOnUse"><stop stop-color="#1242C0"/><stop offset="1" stop-color="#3461EF"/></linearGradient><linearGradient id="g" x1="113.45" x2="143.04" y1="75.99" y2="89.85" gradientUnits="userSpaceOnUse"><stop stop-color="#1242C0"/><stop offset="1" stop-color="#3461EF"/></linearGradient><filter id="a" width="141.1" height="140.07" x="114.83" y="27.93" color-interpolation-filters="sRGB" filterUnits="userSpaceOnUse"><feFlood flood-opacity="0" result="BackgroundImageFix"/><feColorMatrix in="SourceAlpha" values="0 0 0 0 0 0 0 0 0 0 0 0 0 0 0 0 0 0 127 0"/><feOffset dy="2"/><feGaussianBlur stdDeviation="12"/><feColorMatrix values="0 0 0 0 0 0 0 0 0 0 0 0 0 0 0 0 0 0 0.1 0"/><feBlend in2="BackgroundImageFix" result="effect1_dropShadow"/><feBlend in="SourceGraphic" in2="effect1_dropShadow" result="shape"/></filter><filter id="c" width="141.1" height="140.07" x="0" y="0" color-interpolation-filters="sRGB" filterUnits="userSpaceOnUse"><feFlood flood-opacity="0" result="BackgroundImageFix"/><feColorMatrix in="SourceAlpha" values="0 0 0 0 0 0 0 0 0 0 0 0 0 0 0 0 0 0 127 0"/><feOffset dy="2"/><feGaussianBlur stdDeviation="12"/><feColorMatrix values="0 0 0 0 0 0 0 0 0 0 0 0 0 0 0 0 0 0 0.1 0"/><feBlend in2="BackgroundImageFix" result="effect1_dropShadow"/><feBlend in="SourceGraphic" in2="effect1_dropShadow" result="shape"/></filter><clipPath id="d"><path fill="#fff" d="M0 0h48v48H0z" transform="translate(46.5 44.5)"/></clipPath></defs></svg>