<svg xmlns="http://www.w3.org/2000/svg" fill="none" viewBox="0 0 48 48"><g clip-path="url(#a)"><path fill="#BFE9FF" d="M17.07 11.25C18.532 6.285 21.09 3 24 3c-6.345 0-11.925 3.285-15.128 8.25h8.198zM30.93 11.25h8.197C35.925 6.285 30.345 3 24 3c2.91 0 5.468 3.285 6.93 8.25zM31.335 12.75c.532 2.265.862 4.808.907 7.5h9.743a17.94 17.94 0 0 0-1.987-7.5h-8.663zM29.797 12.75H18.202c-.54 2.175-.885 4.71-.937 7.5h13.462c-.045-2.79-.39-5.325-.93-7.5z"/><path fill="#BFE9FF" d="M24 4.5c-1.958 0-4.043 2.55-5.37 6.75h10.74C28.042 7.05 25.957 4.5 24 4.5zM8.002 12.75a17.94 17.94 0 0 0-1.987 7.5h9.742c.053-2.692.375-5.235.908-7.5H8.002z"/><path fill="#56B4FC" d="M48 21.75H0v24h48v-24z"/><path fill="#1652F0" d="M42 21.75H6a3 3 0 0 1-3 3v18a3 3 0 0 1 3 3h36a3 3 0 0 1 3-3v-18a3 3 0 0 1-3-3z"/><path fill="#fff" d="M15 29.25H9v1.5h6v-1.5zM16.5 33h-9v1.5h9V33zM15 36.75H9v1.5h6v-1.5zM39 29.25h-6v1.5h6v-1.5zM40.5 33h-9v1.5h9V33zM39 36.75h-6v1.5h6v-1.5zM27.698 35.76c0-1.972-1.2-2.633-3.518-2.955-1.71-.248-2.04-.645-2.04-1.447 0-.758.578-1.298 1.695-1.298 1.133 0 1.725.443 1.905 1.478h1.68c-.157-1.568-1.065-2.498-2.58-2.768V27h-1.687v1.733c-1.673.24-2.753 1.35-2.753 2.782 0 1.845 1.118 2.565 3.473 2.88 1.597.262 2.055.607 2.055 1.515 0 .908-.773 1.515-1.86 1.515-1.673 0-2.07-.825-2.19-1.822h-1.763c.12 1.634 1.005 2.864 3.045 3.142V40.5h1.688v-1.755c1.74-.277 2.85-1.492 2.85-2.985z"/></g><defs><clipPath id="a"><path fill="#fff" d="M0 0h48v42.75H0z" transform="translate(0 3)"/></clipPath></defs></svg>