<svg xmlns="http://www.w3.org/2000/svg" fill="none" viewBox="0 0 48 48"><path fill="#FFD200" d="M24 39c8.284 0 15-6.716 15-15 0-8.284-6.716-15-15-15-8.284 0-15 6.716-15 15 0 8.284 6.716 15 15 15z"/><path fill="#CED2DB" d="M24 48a8.25 8.25 0 1 0 0-16.5A8.25 8.25 0 0 0 24 48z"/><path fill="#0052FF" d="M24 16.5A8.25 8.25 0 1 0 24 0a8.25 8.25 0 0 0 0 16.5z"/><path fill="#0A0B0D" d="M24 9c-2.828 0-5.46.795-7.718 2.152C17.46 14.273 20.467 16.5 24 16.5c3.532 0 6.54-2.227 7.717-5.348A14.918 14.918 0 0 0 24 9zm0 30c2.827 0 5.46-.795 7.717-2.153C30.54 33.727 27.532 31.5 24 31.5c-3.533 0-6.54 2.227-7.718 5.347A14.918 14.918 0 0 0 24 39z"/><path fill="#0A0B0D" fill-rule="evenodd" d="M23 29V19h2v10h-2z" clip-rule="evenodd"/><path fill="#0A0B0D" fill-rule="evenodd" d="M19 23h10v2H19v-2z" clip-rule="evenodd"/></svg>