<svg xmlns="http://www.w3.org/2000/svg" fill="none" viewBox="0 0 48 48"><path fill="#BFE9FF" d="M6 7.5c-.825 0-1.5-.675-1.5-1.5V1.5C4.5.675 5.175 0 6 0s1.5.675 1.5 1.5V6c0 .825-.675 1.5-1.5 1.5zM15 7.5c-.825 0-1.5-.675-1.5-1.5V1.5c0-.825.675-1.5 1.5-1.5s1.5.675 1.5 1.5V6c0 .825-.675 1.5-1.5 1.5zM24 7.5c-.825 0-1.5-.675-1.5-1.5V1.5c0-.825.675-1.5 1.5-1.5s1.5.675 1.5 1.5V6c0 .825-.675 1.5-1.5 1.5zM33 7.5c-.825 0-1.5-.675-1.5-1.5V1.5c0-.825.675-1.5 1.5-1.5s1.5.675 1.5 1.5V6c0 .825-.675 1.5-1.5 1.5zM42 7.5c-.825 0-1.5-.675-1.5-1.5V1.5c0-.825.675-1.5 1.5-1.5s1.5.675 1.5 1.5V6c0 .825-.675 1.5-1.5 1.5z"/><path fill="#BFE9FF" d="M48 3.75H0V48h48V3.75z"/><path fill="#56B4FC" d="M48 3.75H0v6h48v-6z"/><path fill="#fff" d="M42 9.75H6V42h36V9.75z"/><path fill="#1652F0" d="M6 7.5c.825 0 1.5-.675 1.5-1.5V3.75h-3V6c0 .825.675 1.5 1.5 1.5zM33 7.5c.825 0 1.5-.675 1.5-1.5V3.75h-3V6c0 .825.675 1.5 1.5 1.5zM15 7.5c.825 0 1.5-.675 1.5-1.5V3.75h-3V6c0 .825.675 1.5 1.5 1.5zM24 7.5c.825 0 1.5-.675 1.5-1.5V3.75h-3V6c0 .825.675 1.5 1.5 1.5zM40.5 3.75V6c0 .825.675 1.5 1.5 1.5s1.5-.675 1.5-1.5V3.75h-3zM24 12.75c-7.238 0-13.125 5.887-13.125 13.125C10.875 33.112 16.762 39 24 39s13.125-5.888 13.125-13.125c0-7.238-5.887-13.125-13.125-13.125zM13.875 25.875c0-5.58 4.545-10.125 10.125-10.125 2.25 0 4.328.75 6.008 1.995L15.87 31.882a10.065 10.065 0 0 1-1.995-6.007zM24 36c-2.25 0-4.328-.75-6.008-1.995L32.13 19.867a10.065 10.065 0 0 1 1.995 6.008C34.125 31.455 29.58 36 24 36z"/></svg>