<svg xmlns="http://www.w3.org/2000/svg" fill="none" viewBox="0 0 120 120"><path fill="url(#a)" d="M22 33h68v87H22z"/><path fill="#fff" stroke="url(#b)" d="M26.5 88.5v-55h59v55h-59z"/><path fill="#1652F0" d="M90 31H22v10h68V31z"/><path fill="#0052FF" d="M76.572 53.571a2.286 2.286 0 1 0 0-4.571 2.286 2.286 0 0 0 0 4.571zM76.572 62.714a2.286 2.286 0 1 0 0-4.571 2.286 2.286 0 0 0 0 4.571zM76.572 71.857a2.286 2.286 0 1 0 0-4.571 2.286 2.286 0 0 0 0 4.571zM76.572 81a2.286 2.286 0 1 0 0-4.571 2.286 2.286 0 0 0 0 4.571z"/><path fill="url(#c)" fill-rule="evenodd" d="M69.715 50.143H33.142v2.286h36.572v-2.286zm0 9.143H33.142v2.285h36.572v-2.285zm-36.572 9.143h36.572v2.285H33.142V68.43zm36.572 9.142H33.142v2.286h36.572v-2.285z" clip-rule="evenodd"/><defs><linearGradient id="a" x1="56" x2="56" y1="33" y2="120" gradientUnits="userSpaceOnUse"><stop offset=".09" stop-color="#0052FF" stop-opacity=".4"/><stop offset="1" stop-color="#fff" stop-opacity="0"/></linearGradient><linearGradient id="b" x1="56" x2="56" y1="33" y2="89" gradientUnits="userSpaceOnUse"><stop stop-color="#0052FF" stop-opacity=".1"/><stop offset="1" stop-color="#0052FF" stop-opacity=".25"/></linearGradient><linearGradient id="c" x1="69.71" x2="36" y1="63.29" y2="63.29" gradientUnits="userSpaceOnUse"><stop stop-color="#1652F0" stop-opacity=".6"/><stop offset="1" stop-color="#1652F0" stop-opacity="0"/></linearGradient></defs></svg>