<svg xmlns="http://www.w3.org/2000/svg" fill="none" viewBox="0 0 120 120"><g clip-path="url(#a)"><mask id="d" fill="#fff"><path fill-rule="evenodd" d="M110.292 31.29c5.37 0 9.598-4.341 9.598-9.597 0-5.256-4.342-9.597-9.598-9.597-5.37 0-9.597 4.341-9.597 9.597 0 5.256 4.227 9.598 9.597 9.598zm-3.932 11.483a47.394 47.394 0 0 1 8.159-4.398c3.428-1.6 7.427-1.257 10.398.914 3.085 2.17 4.57 5.941 4.113 9.597-.457 3.657-3.085 6.856-6.513 8.227a27.575 27.575 0 0 0-14.672 14.436 56 56 0 0 0-.133 2.807c-.027.907-.06 2.032-.164 4.008-.103 2.994-.952 5.615-1.705 7.272-.073.207-.152.41-.236.612-2.285 4.227-5.142 8.112-8.57 11.54-1.713 1.713-3.313 3.085-4.227 3.77l-.672.437-.001.001c-2.284 1.486-5.492 3.575-7.668 4.818-1.028.571-2.17 1.028-3.313 1.485-.728.324-3.69 1.392-7.345 2.232-11.428 2.962-23.532 1.478-34.023-4.751-15.297-8.468-25.329-24.888-24.9-43.297.114-.572.114-1.143.114-1.714.171-3.612.796-7.16 1.826-10.642.129-.51.266-1.02.412-1.526 1.384-5.58 4.041-10.775 7.772-15.226a44.296 44.296 0 0 1 3.587-4.027c18.852-18.852 49.245-19.195 68.097-.457a47.873 47.873 0 0 1 9.664 13.882zM84.961 79.515c.077-.103.153-.207.228-.31.012-.166.038-.332.08-.498 0-.102 0-.174.002-.246.008-.168.031-.335.112-.896l.009-.149c.112-1.79.238-3.816.905-6.707.064-.385.164-.77.28-1.215.09-.349.19-.733.291-1.184.555-2.108 1.217-4.001 1.988-6.202l.069-.197c-.045-.089.38-1.48 1.124-3.396a28.318 28.318 0 0 0-4.833-11.728c-6.18-8.44-16.821-12.94-27.596-10.926-9.349 1.734-16.758 7.946-20.387 16.074-4.371 10.147-2.412 22.368 5.877 30.657 7.83 7.83 19.168 10.012 28.91 6.545 2.612-1.02 8.546-3.752 12.907-9.63.013 0 .024.003.034.008z" clip-rule="evenodd"/></mask><path fill="url(#b)" fill-rule="evenodd" d="M110.292 31.29c5.37 0 9.598-4.341 9.598-9.597 0-5.256-4.342-9.597-9.598-9.597-5.37 0-9.597 4.341-9.597 9.597 0 5.256 4.227 9.598 9.597 9.598zm-3.932 11.483a47.394 47.394 0 0 1 8.159-4.398c3.428-1.6 7.427-1.257 10.398.914 3.085 2.17 4.57 5.941 4.113 9.597-.457 3.657-3.085 6.856-6.513 8.227a27.575 27.575 0 0 0-14.672 14.436 56 56 0 0 0-.133 2.807c-.027.907-.06 2.032-.164 4.008-.103 2.994-.952 5.615-1.705 7.272-.073.207-.152.41-.236.612-2.285 4.227-5.142 8.112-8.57 11.54-1.713 1.713-3.313 3.085-4.227 3.77l-.672.437-.001.001c-2.284 1.486-5.492 3.575-7.668 4.818-1.028.571-2.17 1.028-3.313 1.485-.728.324-3.69 1.392-7.345 2.232-11.428 2.962-23.532 1.478-34.023-4.751-15.297-8.468-25.329-24.888-24.9-43.297.114-.572.114-1.143.114-1.714.171-3.612.796-7.16 1.826-10.642.129-.51.266-1.02.412-1.526 1.384-5.58 4.041-10.775 7.772-15.226a44.296 44.296 0 0 1 3.587-4.027c18.852-18.852 49.245-19.195 68.097-.457a47.873 47.873 0 0 1 9.664 13.882zM84.961 79.515c.077-.103.153-.207.228-.31.012-.166.038-.332.08-.498 0-.102 0-.174.002-.246.008-.168.031-.335.112-.896l.009-.149c.112-1.79.238-3.816.905-6.707.064-.385.164-.77.28-1.215.09-.349.19-.733.291-1.184.555-2.108 1.217-4.001 1.988-6.202l.069-.197c-.045-.089.38-1.48 1.124-3.396a28.318 28.318 0 0 0-4.833-11.728c-6.18-8.44-16.821-12.94-27.596-10.926-9.349 1.734-16.758 7.946-20.387 16.074-4.371 10.147-2.412 22.368 5.877 30.657 7.83 7.83 19.168 10.012 28.91 6.545 2.612-1.02 8.546-3.752 12.907-9.63.013 0 .024.003.034.008z" clip-rule="evenodd"/><path fill="url(#c)" d="m114.519 38.375.194.46.009-.003.009-.004-.212-.453zm-8.159 4.398-.455.209.246.535.488-.33-.279-.414zm18.557-3.484-.295.404.007.005.288-.41zm-2.4 17.824-.185-.464-.008.003.193.46zm-14.672 14.436-.459-.2-.034.078-.006.086.499.036zm-.133 2.807-.5-.015v.015h.5zm0 0 .5.014v-.014h-.5zm-.164 4.008-.499-.026v.01l.499.016zm-1.705 7.272-.455-.206-.009.019-.007.02.471.167zm-.236.612.44.237.012-.022.009-.023-.461-.192zm-12.797 15.31.273.419.014-.009.013-.01-.3-.4zm-.672.437-.273-.419-.001.001.274.418zm-.001.001.248.434.013-.007.012-.008-.273-.419zm0 0-.249-.434-.012.007-.012.008.272.419zm-7.668 4.818.243.437.005-.003-.248-.434zm-3.313 1.485-.185-.464-.02.008-.018.009.223.447zm0 0 .197.46.014-.006.013-.007-.224-.447zm0 0-.197-.459-.006.002.203.457zm-7.345 2.232-.112-.488-.013.004.125.484zm-34.023-4.751.256-.43-.007-.003-.006-.004-.243.437zm-24.9-43.297-.491-.099-.009.043v.044l.5.012zm.114-1.714-.5-.024v.024h.5zm1.826-10.642.48.142.002-.01.003-.01-.485-.122zm.412-1.526.48.139.003-.01.002-.008-.485-.12zm7.772-15.226.383.321.005-.006.005-.006-.393-.309zm3.587-4.027.352.355.002-.001-.354-.354zm68.097-.457.353-.353v-.001l-.353.354zM84.96 79.515l-.224.447.375.188.25-.337-.4-.298zm.228-.31.405.293.084-.116.01-.143-.499-.035zm.08-.498.484.122.015-.06v-.062h-.5zm.002-.246-.5-.02.5.02zm.112-.896.495.07.002-.02.002-.02-.5-.03zm.009-.149.499.032-.5-.032zm.905-6.707.487.113.003-.015.003-.016-.493-.082zm.28-1.215.484.126.001-.005-.485-.121zm0 0-.484-.127v.005l.484.121zm.291-1.184-.483-.127-.003.009-.002.01.488.108zm1.988-6.202.472.166v-.002l-.472-.163zm0 0-.464-.186-.005.011-.004.011.473.164zm0 0 .464.185.004-.01.004-.01-.472-.165zm.069-.197.472.166.07-.2-.095-.19-.447.224zm1.124-3.396.466.18.05-.127-.023-.134-.493.08zm-4.833-11.728.409-.29-.005-.006-.404.296zM57.62 35.86l.091.492h.001l-.092-.492zM37.233 51.935l-.457-.204-.003.006.46.198zm5.877 30.657.353-.354-.353.354zm28.91 6.545.167.47.008-.002.007-.002-.182-.466zm12.907-9.63v-.5h-.251l-.15.202.401.298zm34.463-57.814c0 4.984-4.008 9.098-9.098 9.098v1c5.65 0 10.098-4.57 10.098-10.098h-1zm-9.098-9.097c4.98 0 9.098 4.118 9.098 9.097h1c0-5.532-4.566-10.097-10.098-10.097v1zm-9.097 9.097c0-4.983 4.007-9.097 9.097-9.097v-1c-5.65 0-10.097 4.57-10.097 10.097h1zm9.097 9.098c-5.09 0-9.097-4.114-9.097-9.098h-1c0 5.528 4.447 10.098 10.097 10.098v-1zm4.034 7.123a47.876 47.876 0 0 0-8.245 4.444l.558.83a46.892 46.892 0 0 1 8.074-4.352l-.387-.922zm10.886.971c-3.124-2.283-7.318-2.637-10.904-.963l.423.906c3.27-1.526 7.074-1.194 9.891.865l.59-.808zm4.314 10.063c.478-3.824-1.073-7.782-4.321-10.068l-.576.818c2.921 2.056 4.341 5.638 3.905 9.126l.992.124zm-6.823 8.63c3.584-1.434 6.342-4.78 6.823-8.63l-.992-.124c-.433 3.463-2.931 6.516-6.202 7.825l.371.928zm-14.4 14.17a27.077 27.077 0 0 1 14.407-14.174l-.386-.922a28.078 28.078 0 0 0-14.938 14.696l.917.4zm-.091 2.622c.027-.932.048-1.628.131-2.785l-.997-.072c-.085 1.18-.106 1.893-.134 2.828l1 .03zm0-.014h-1 1zm-.164 4.035c.104-1.983.137-3.11.164-4.02l-1-.03a148.36 148.36 0 0 1-.163 3.997l.999.053zm-1.75 7.452c.774-1.703 1.644-4.388 1.75-7.461l-.999-.035c-.101 2.914-.929 5.47-1.661 7.083l.91.413zm-.23.597c.087-.209.17-.421.246-.636l-.942-.335c-.07.197-.146.393-.227.587l.923.384zm-8.677 11.701c3.463-3.463 6.348-7.387 8.656-11.656l-.88-.475c-2.263 4.187-5.091 8.032-8.483 11.424l.707.707zm-4.28 3.817c.936-.703 2.554-2.09 4.28-3.817l-.707-.707c-1.701 1.701-3.283 3.056-4.174 3.724l.6.8zm-.7.457.672-.438-.545-.838-.673.437.546.839zm0 0v-.001l-.547-.837-.001.001.547.837zm-.026.016v-.001l-.497-.868.496.869zm-7.668 4.817c2.191-1.252 5.414-3.35 7.692-4.833l-.545-.838c-2.288 1.49-5.483 3.569-7.643 4.803l.496.868zm-3.375 1.515c1.137-.454 2.31-.923 3.37-1.512l-.486-.874c-.995.553-2.107.998-3.255 1.458l.371.928zm.038-.017-.447-.894.447.894zm0 0-.447-.894.447.894zm-.027.013-.394-.919.394.919zm-7.43 2.259c3.677-.845 6.672-1.922 7.436-2.262l-.406-.914c-.692.308-3.622 1.367-7.254 2.201l.224.975zm-34.39-4.808c10.61 6.299 22.852 7.799 34.403 4.805l-.25-.968c-11.304 2.93-23.27 1.461-33.642-4.697l-.51.86zM14.387 62.47c-.432 18.603 9.704 35.193 25.16 43.748l.484-.875C24.89 96.962 14.963 80.711 15.387 62.494l-1-.023zm.114-1.701c0 .579-.001 1.1-.104 1.615l.98.197c.126-.628.124-1.249.124-1.812h-1zm1.848-10.784c-1.04 3.519-1.673 7.106-1.847 10.76l.999.047c.17-3.57.788-7.077 1.807-10.523l-.96-.284zm.41-1.522a47.215 47.215 0 0 0-.416 1.542l.97.244c.127-.505.263-1.008.407-1.51l-.96-.276zm7.87-15.409c-3.78 4.508-6.472 9.771-7.874 15.427l.97.24c1.365-5.505 3.987-10.63 7.67-15.025l-.766-.642zm3.618-4.06a44.763 44.763 0 0 0-3.628 4.072l.786.618a43.757 43.757 0 0 1 3.546-3.981l-.704-.71zm68.801-.457C77.996 9.6 47.288 9.952 28.246 28.995l.707.707c18.662-18.662 48.738-18.995 67.39-.456l.705-.71zm9.766 14.028a48.37 48.37 0 0 0-9.765-14.027l-.707.707a47.356 47.356 0 0 1 9.563 13.737l.909-.417zM85.362 79.813c.079-.104.156-.21.232-.315l-.81-.587c-.074.102-.148.204-.224.305l.802.597zm.326-.574c.01-.136.031-.273.066-.41l-.97-.243c-.049.193-.08.388-.094.584l.998.069zm.08-.532c0-.105 0-.165.003-.224l-1-.043c-.003.085-.003.168-.003.267h1zm.003-.224c.006-.137.025-.273.107-.848l-.99-.141c-.079.547-.108.746-.116.946l.999.043zm.11-.887.01-.148-.998-.063-.01.148.999.063zm.01-.148c.111-1.785.235-3.777.893-6.626l-.975-.225c-.676 2.932-.804 4.99-.916 6.788l.998.063zm.899-6.656c.06-.36.154-.722.27-1.172l-.967-.252c-.115.44-.221.848-.29 1.259l.987.165zm.272-1.177-.97-.243.97.243zm-.001.004c.09-.347.193-.74.295-1.2l-.976-.218c-.098.441-.196.818-.287 1.166l.968.252zm.29-1.182c.55-2.086 1.205-3.96 1.977-6.163l-.944-.33c-.77 2.197-1.439 4.108-2 6.239l.968.254zm1.977-6.165-.945-.328v.001l.945.327zm-.008.022-.928-.372.928.372zm.008-.021.069-.196-.944-.33-.069.196.944.33zm.044-.585a.468.468 0 0 1 .049.219c0 .013-.002.014.001-.002.005-.03.017-.085.039-.166.041-.16.11-.392.206-.687.19-.588.479-1.406.848-2.356l-.932-.362c-.375.965-.67 1.801-.868 2.41-.098.304-.173.556-.222.742a3.17 3.17 0 0 0-.056.247 1 1 0 0 0-.014.12.531.531 0 0 0 .055.282l.894-.447zm1.17-3.254a28.817 28.817 0 0 0-4.917-11.936l-.817.577a27.816 27.816 0 0 1 4.748 11.52l.986-.161zm-32.83-22.082c10.58-1.978 21.03 2.44 27.101 10.73l.807-.59C79.329 37.9 68.497 33.317 57.528 35.368l.184.983zM37.689 52.14c3.566-7.984 10.841-14.084 20.022-15.787l-.182-.983c-9.517 1.766-17.059 8.09-20.753 16.362l.913.408zm-.916-.402c-4.449 10.33-2.456 22.77 5.983 31.208l.707-.707c-8.14-8.14-10.064-20.14-5.771-30.105l-.919-.396zm5.983 31.208c7.971 7.972 19.514 10.192 29.431 6.663l-.335-.942c-9.566 3.404-20.7 1.261-28.389-6.428l-.707.707zm41.77-3.736c-4.28 5.767-10.111 8.455-12.688 9.462l.364.931c2.647-1.034 8.684-3.809 13.127-9.797l-.803-.596zm.66-.141a.575.575 0 0 0-.259-.061v1a.424.424 0 0 1-.19-.045l.448-.894z" mask="url(#d)"/><path fill="url(#e)" d="M60 96c19.882 0 36-16.118 36-36S79.882 24 60 24 24 40.118 24 60s16.118 36 36 36z"/><path fill="#313151" d="M60 92c17.673 0 32-14.327 32-32 0-17.673-14.327-32-32-32-17.673 0-32 14.327-32 32 0 17.673 14.327 32 32 32z"/><path fill="url(#f)" fill-rule="evenodd" d="M73.041 57.24c-.12 0-.24.04-.32.16-.64.36-1.16 1-1.56 1.64a.22.22 0 0 0-.12.2c-.08.12-.12.24-.2.36-.24.44-.4.92-.56 1.4-.12.24-.2.48-.28.72-.12.2-.2.44-.28.68v.12c-.04.04-.08.08-.08.16-.2.8-.24 1.64-.12 2.44a9.98 9.98 0 0 0 .56 3.6c.16.4.36.84.56 1.2-.6.88-1.28 1.68-2 2.44-6.6 6.6-16.6 7.04-23.2.44-6.56-6.64-7.24-17.64-.64-24.2 6.6-6.6 17.24-6.72 23.84-.16 2.36 2.36 3.96 5.36 4.6 8.64-.04.04-.12.12-.2.16zm-23.16 10c3.8 3.8 9.96 3.8 13.72 0a9.65 9.65 0 0 0 2.84-6.88c0-2.56-1.04-5.04-2.84-6.88-3.8-3.8-9.96-3.8-13.72 0a9.73 9.73 0 0 0 0 13.76z" clip-rule="evenodd"/><path fill="url(#g)" d="M74.88 51.76c1.2-.56 2.6-.44 3.64.32 1.08.76 1.6 2.08 1.44 3.36-.16 1.28-1.08 2.4-2.28 2.88-3.92 1.64-6.28 5.6-5.92 9.84l-7.08.6c-.36-4.28.84-8.72 3.84-12.28 1.72-2.08 3.88-3.68 6.36-4.72z"/><path fill="url(#h)" d="M68.16 55.36c1.16-1.64 3.4-2.04 5-.88 1.6 1.12 2 3.36.88 5-1.12 1.48-1.4 2.76-1.48 3.68-.08 1-.04 1.08-.12 2.6-.04 1.16-.4 2.16-.68 2.72-.84 1.56-4.24 1.56-6.36-.48-.12-.24-.24-.48-.36-.76s-.28-.6-.4-.88c0-.04.04.12 0 0a.975.975 0 0 1 0-.48c0-.12 0-.12.04-.4.04-.64.08-1.36.32-2.4.04-.24.12-.48.2-.84.2-.76.44-1.44.72-2.24-.04-.08 1-3.16 2.24-4.64z"/><path fill="url(#i)" d="M41.08 54.68c-.6 1.6-.96 3.24-1.04 4.92 0 .2 0 .4-.04.6-.2 8.6 6.12 15.96 14.64 17.12.8.04 2.56.2 4.32 0 1.96-.24 3.88-.92 4.24-1.08.4-.16.8-.32 1.16-.52.84-.48 2.12-1.32 2.92-1.84.32-.24.88-.72 1.48-1.32 1.2-1.2 2.2-2.56 3-4.04.2-.48.32-1 .28-1.56-.12-1.72-1.72-3.24-3.32-3.36-1.32-.08-2.6.56-3.32 1.72-.4.56-.8 1.08-1.28 1.56-.44.44-2.4 2.4-4.72 3.16-4.04 1.28-8.08-1.48-8.6-1.84-2.08-1.24-9.72-13.52-9.72-13.52z"/><path fill="url(#j)" d="M73.401 49.28c1.88 0 3.36-1.52 3.36-3.36a3.38 3.38 0 0 0-3.36-3.36c-1.88 0-3.36 1.52-3.36 3.36 0 1.84 1.48 3.36 3.36 3.36z"/><path fill="url(#k)" d="M64.56 66.24s0-.08-.04-.08c-1.84 2.48-4.48 3.36-4.92 3.52-.12.04-1.52.44-2.88.44-5.04.04-9.24-3.8-9.72-8.8-.4-5 3-9.52 7.96-10.44a9.753 9.753 0 0 1 11.16 6.88c0 .04.2.8.24.88.08-.2.12-.28.2-.48.08-.2.2-.52.32-.68l.16-.4-.12-.44c-.08-.32-.08-.36-.08-.4-1.08-6.24-6.56-11.04-13.16-11-3.52 0-6.92 1.44-9.4 3.96-2.48 2.52-3.88 5.88-3.84 9.44.04 8 7.28 13.28 13.36 13.24 6.04-.04 9.96-4.6 10.6-5.32"/><path stroke="url(#l)" stroke-opacity=".5" stroke-width="1.5" d="M91.25 60c0 17.259-13.991 31.25-31.25 31.25S28.75 77.259 28.75 60 42.741 28.75 60 28.75 91.25 42.74 91.25 60z"/><path stroke="url(#m)" stroke-width=".5" d="M91.75 60c0 17.535-14.215 31.75-31.75 31.75S28.25 77.535 28.25 60 42.465 28.25 60 28.25 91.75 42.465 91.75 60z"/><path fill="#FFAE24" d="m38 29-1.41 6.59L30 37l6.59 1.41L38 45l1.41-6.59L46 37l-6.59-1.41L38 29z"/><path fill="#0052FF" d="M21 33a1 1 0 1 1 0-2 1 1 0 0 1 0 2z"/><path fill="#0052FF" fill-opacity=".5" d="M34 21a1 1 0 1 1 0-2 1 1 0 0 1 0 2z"/></g><defs><linearGradient id="b" x1="36.39" x2="103" y1="2.02" y2="69.5" gradientUnits="userSpaceOnUse"><stop stop-color="#0052FF" stop-opacity=".3"/><stop offset="1" stop-color="#0052FF" stop-opacity="0"/></linearGradient><linearGradient id="c" x1="71.99" x2="141.58" y1="12.1" y2="81.68" gradientUnits="userSpaceOnUse"><stop offset=".01" stop-color="#0052FF" stop-opacity=".3"/><stop offset=".54" stop-color="#0052FF" stop-opacity="0"/></linearGradient><linearGradient id="e" x1="60" x2="60" y1="24" y2="96" gradientUnits="userSpaceOnUse"><stop stop-color="#fff" stop-opacity=".6"/><stop offset="1" stop-color="#fff" stop-opacity="0"/></linearGradient><linearGradient id="f" x1="73.59" x2="40.18" y1="60.52" y2="60.52" gradientUnits="userSpaceOnUse"><stop offset=".09" stop-color="#6DC1D6"/><stop offset=".31" stop-color="#72C6D7"/><stop offset=".61" stop-color="#589AC5"/><stop offset="1" stop-color="#3864AF"/></linearGradient><linearGradient id="g" x1="70.22" x2="74.33" y1="69.82" y2="51.2" gradientUnits="userSpaceOnUse"><stop offset=".47" stop-color="#FFDF7F"/><stop offset=".57" stop-color="#FFBE6B"/><stop offset=".69" stop-color="#FF9E58"/><stop offset=".8" stop-color="#FF884A"/><stop offset=".91" stop-color="#FF7A42"/><stop offset="1" stop-color="#FF753F"/></linearGradient><linearGradient id="h" x1="75.48" x2="66.85" y1="61.19" y2="62" gradientUnits="userSpaceOnUse"><stop offset=".01" stop-color="#E670A7"/><stop offset=".12" stop-color="#CB65A2"/><stop offset=".31" stop-color="#A2559B"/><stop offset=".5" stop-color="#824895"/><stop offset=".68" stop-color="#6C3F90"/><stop offset=".85" stop-color="#5E3A8E"/><stop offset="1" stop-color="#59388D"/></linearGradient><linearGradient id="i" x1="46.38" x2="63.27" y1="73.43" y2="54.05" gradientUnits="userSpaceOnUse"><stop stop-color="#15ADFF"/><stop offset=".06" stop-color="#40A3D4"/><stop offset=".13" stop-color="#6D99A7"/><stop offset=".21" stop-color="#949080"/><stop offset=".3" stop-color="#B5885F"/><stop offset=".38" stop-color="#D08244"/><stop offset=".48" stop-color="#E57D2F"/><stop offset=".59" stop-color="#F47A20"/><stop offset=".72" stop-color="#FC7818"/><stop offset=".92" stop-color="#FF7715"/></linearGradient><linearGradient id="j" x1="71.47" x2="75.34" y1="48.68" y2="43.15" gradientUnits="userSpaceOnUse"><stop stop-color="#55398D"/><stop offset="1" stop-color="#C05B9D"/></linearGradient><linearGradient id="k" x1="40.43" x2="67.03" y1="58.53" y2="58.53" gradientUnits="userSpaceOnUse"><stop stop-color="#A3D6D9"/><stop offset=".52" stop-color="#34A4DD"/><stop offset=".56" stop-color="#349DD8"/><stop offset=".74" stop-color="#367EC2"/><stop offset=".89" stop-color="#386BB4"/><stop offset="1" stop-color="#3864AF"/></linearGradient><linearGradient id="l" x1="83.5" x2="37.5" y1="80.5" y2="36" gradientUnits="userSpaceOnUse"><stop stop-color="#fff" stop-opacity="0"/><stop offset="1" stop-color="#fff"/></linearGradient><linearGradient id="m" x1="36" x2="88" y1="35.5" y2="87.5" gradientUnits="userSpaceOnUse"><stop stop-color="#fff"/><stop offset="1" stop-color="#fff" stop-opacity="0"/></linearGradient><clipPath id="a"><path fill="#fff" d="M0 0h120v120H0z"/></clipPath></defs></svg>