<svg xmlns="http://www.w3.org/2000/svg" fill="none" viewBox="0 0 240 240"><path fill="#fff" d="M184 48H56v144h128V48z"/><path fill="#00D17F" d="M0 192h56V48H0v144z"/><path fill="#FFD200" d="M184 192h56V48h-56v144z"/><path fill="#0052FF" d="M184 32H56v16h128V32zm0 160H56v16h128v-16z"/><path fill="#00D17F" d="M72 104c0-26.5 21.5-48 48-48s48 21.5 48 48H72z"/><path fill="#FFD200" d="M168 136c0 26.5-21.5 48-48 48s-48-21.5-48-48h96z"/><path fill="#0052FF" d="M120 152c17.673 0 32-14.327 32-32 0-17.673-14.327-32-32-32-17.673 0-32 14.327-32 32 0 17.673 14.327 32 32 32z"/><path fill="#000" d="M92.3 136c5.5 9.6 15.9 16 27.7 16 11.8 0 22.2-6.4 27.7-16H92.3zm55.4-32c-5.5-9.6-15.9-16-27.7-16-11.8 0-22.2 6.4-27.7 16h55.4z"/><path fill="#fff" d="M120 128a8 8 0 1 0 0-16 8 8 0 0 0 0 16z"/><path stroke="#000" stroke-miterlimit="10" stroke-width="2" d="M72 120h30.5m35.4 0H168m-48-41.8V64m0 112v-13.9m5.6-89-5.6 5.6-5.7-5.6m-17.4 41.2 5.7 5.6-5.7 5.7m46.1 0-5.6-5.7 5.6-5.6m-28.7 52.2 5.7-5.6 5.6 5.6"/><path fill="#0052FF" d="M64 40h-8v160h8V40zm120 0h-8v160h8V40z"/><path fill="#fff" d="M176 40H64v16h112V40zm0 144H64v16h112v-16z"/><path fill="#CED2DB" d="M168 184c-4.4 0-8 3.6-8 8 0-4.4-3.6-8-8-8 4.4 0 8-3.6 8-8 0 4.4 3.6 8 8 8zm-80 0c-4.4 0-8 3.6-8 8 0-4.4-3.6-8-8-8 4.4 0 8-3.6 8-8 0 4.4 3.6 8 8 8zm0-128c-4.4 0-8 3.6-8 8 0-4.4-3.6-8-8-8 4.4 0 8-3.6 8-8 0 4.4 3.6 8 8 8zm80 0c-4.4 0-8 3.6-8 8 0-4.4-3.6-8-8-8 4.4 0 8-3.6 8-8 0 4.4 3.6 8 8 8z"/><path fill="#0052FF" d="M128 120c-4.4 0-8 3.6-8 8 0-4.4-3.6-8-8-8 4.4 0 8-3.6 8-8 0 4.4 3.6 8 8 8z"/><path stroke="#000" stroke-miterlimit="10" stroke-width="2" d="M56 56H8v128h48m128 0h48V56h-48"/><path stroke="#000" stroke-miterlimit="10" stroke-width="2" d="M56 152c-17.7 0-32-14.3-32-32s14.3-32 32-32m128 0c17.7 0 32 14.3 32 32s-14.3 32-32 32"/><path fill="#000" d="M64 48h-8v144h8V48zm120 0h-8v144h8V48z"/></svg>