<svg xmlns="http://www.w3.org/2000/svg" fill="none" viewBox="0 0 48 48"><path fill="#BFE9FF" d="M42 0H6v37.5h36V0z"/><path fill="#56B4FC" d="M48 7.5H0v36h48v-36z"/><path fill="#1652F0" d="M6 7.5V12H4.5v6H6v9H4.5v6H6v4.5h36v-30H6z"/><path fill="#56B4FC" d="M48 43.5h-6V48h6v-4.5zM6 43.5H0V48h6v-4.5z"/><path fill="#fff" d="M30.893 15.607c-3.803-3.802-9.99-3.802-13.785 0-3.795 3.803-3.803 9.99 0 13.785A9.721 9.721 0 0 0 24 32.242a9.721 9.721 0 0 0 6.893-2.85c3.802-3.802 3.802-9.982 0-13.784zm-.555 12.173L28.2 25.642a5.21 5.21 0 0 0 1.05-3.142 5.243 5.243 0 0 0-1.05-3.142l2.138-2.138a8.263 8.263 0 0 1 0 10.56zm-8.993-2.625A3.758 3.758 0 0 1 20.25 22.5c0-.997.39-1.942 1.095-2.655A3.701 3.701 0 0 1 24 18.75c1.005 0 1.943.39 2.655 1.095A3.714 3.714 0 0 1 27.75 22.5c0 .997-.39 1.942-1.095 2.655A3.701 3.701 0 0 1 24 26.25a3.745 3.745 0 0 1-2.655-1.095zm7.935-8.992L27.143 18.3A5.243 5.243 0 0 0 24 17.25a5.243 5.243 0 0 0-3.142 1.05l-2.138-2.137A8.273 8.273 0 0 1 24 14.25c1.875 0 3.75.645 5.28 1.913zM17.663 17.22l2.137 2.138a5.243 5.243 0 0 0-1.05 3.142c0 1.148.375 2.235 1.05 3.142l-2.137 2.138a8.263 8.263 0 0 1 0-10.56zm1.057 11.617 2.138-2.137a5.227 5.227 0 0 0 6.285 0l2.137 2.137a8.263 8.263 0 0 1-10.56 0z"/></svg>