<svg xmlns="http://www.w3.org/2000/svg" fill="none" viewBox="0 0 240 120"><path fill="url(#a)" d="M57 51h88v33H57z"/><path fill="url(#b)" d="M57 58h88v17H57z"/><path fill="#FFAE24" stroke="url(#c)" d="M161.5 67.5c0 8.823-7.373 16-16.5 16-9.127 0-16.5-7.177-16.5-16s7.373-16 16.5-16c9.127 0 16.5 7.177 16.5 16z"/><path fill="url(#d)" d="M177.976 30.418C164.734 30.418 154 40.91 154 53.852v53.245h47.952V53.852c0-12.942-10.734-23.434-23.976-23.434z"/><path fill="#0052FF" d="M177.976 26.988c7.453 0 13.494-6.042 13.494-13.494C191.47 6.04 185.429 0 177.976 0c-7.452 0-13.494 6.041-13.494 13.494 0 7.452 6.042 13.494 13.494 13.494z"/><path fill="url(#e)" d="M62.976 40.74C49.734 40.74 39 51.233 39 64.175V120h47.952V64.174c0-12.942-10.734-23.433-23.976-23.433z"/><path fill="#B8C9C8" d="M62.976 37.31c7.453 0 13.494-6.041 13.494-13.494 0-7.452-6.041-13.493-13.494-13.493-7.452 0-13.494 6.041-13.494 13.493 0 7.453 6.042 13.494 13.494 13.494z"/><path fill="url(#f)" d="m95.67 50.519 8.139-1.74 1.748-8.107 1.749 8.106 8.139 1.741-8.139 1.74-1.749 8.106-1.748-8.105-8.14-1.741z"/><path fill="#FFAE24" fill-opacity=".5" d="M90.695 28.387v3.953h-3.953v1.127h3.953v3.952h1.127v-3.952h3.952V32.34h-3.952v-3.953h-1.127zM220.953 49v3.953H217v1.127h3.953v3.952h1.127V54.08h3.952v-1.127h-3.952V49h-1.127zm-98 41v3.953H119v1.127h3.953v3.952h1.127V95.08h3.952v-1.127h-3.952V90h-1.127z"/><path fill="#88ADF5" d="M109.911 30.845c.682 0 1.235-.55 1.235-1.23 0-.678-.553-1.228-1.235-1.228-.681 0-1.234.55-1.234 1.229s.553 1.229 1.234 1.229zm31.323 69.613c.682 0 1.234-.55 1.234-1.23A1.23 1.23 0 0 0 141.234 98c-.682 0-1.234.55-1.234 1.229 0 .678.552 1.229 1.234 1.229zM88.25 51.748c.681 0 1.234-.55 1.234-1.229s-.553-1.229-1.234-1.229c-.682 0-1.234.55-1.234 1.229s.552 1.229 1.234 1.229zm14.984 44.71c.682 0 1.234-.55 1.234-1.23A1.23 1.23 0 0 0 103.234 94c-.682 0-1.234.55-1.234 1.229 0 .678.552 1.229 1.234 1.229z"/><path fill="#1652F0" d="M43 44h1v-1h-1v1zM7 56h1v-1H7v1zm0-12h1v-1H7v1zm0-12h1v-1H7v1zm0-12h1v-1H7v1zM7 8h1V7H7v1zm12 72h1v-1h-1v1zm0-12h1v-1h-1v1zm0-12h1v-1h-1v1zm0-12h1v-1h-1v1zm0-12h1v-1h-1v1zm0-12h1v-1h-1v1zm0-12h1V7h-1v1zm12 72h1v-1h-1v1zm0-12h1v-1h-1v1zm0-12h1v-1h-1v1zm0-12h1v-1h-1v1zm0-12h1v-1h-1v1zm178 34h1v1h-1v-1zm0 12h1v1h-1v-1zm12 0h1v1h-1v-1zm-12 12h1v1h-1v-1zm0 12h1v1h-1v-1zm12 0h1v1h-1v-1zm12 0h1v1h-1v-1zm0 12h1v1h-1v-1zm-12-24h1v1h-1v-1z" opacity=".5"/><defs><linearGradient id="a" x1="145" x2="79.59" y1="84" y2="84" gradientUnits="userSpaceOnUse"><stop stop-color="#1652F0" stop-opacity=".3"/><stop offset="1" stop-color="#fff" stop-opacity="0"/></linearGradient><linearGradient id="b" x1="145" x2="79.59" y1="75" y2="75" gradientUnits="userSpaceOnUse"><stop stop-color="#1652F0" stop-opacity=".3"/><stop offset="1" stop-color="#fff" stop-opacity="0"/></linearGradient><linearGradient id="c" x1="145" x2="145" y1="51" y2="84" gradientUnits="userSpaceOnUse"><stop stop-color="#fff"/><stop offset="1" stop-color="#fff" stop-opacity="0"/></linearGradient><linearGradient id="d" x1="177.98" x2="177.98" y1="30.42" y2="104.52" gradientUnits="userSpaceOnUse"><stop stop-color="#1652F0"/><stop offset="1" stop-color="#fff" stop-opacity="0"/></linearGradient><linearGradient id="e" x1="62.98" x2="62.98" y1="40.74" y2="119.36" gradientUnits="userSpaceOnUse"><stop stop-color="#B8C9C8"/><stop offset="1" stop-color="#fff" stop-opacity="0"/></linearGradient><linearGradient id="f" x1="105.56" x2="105.56" y1="40.67" y2="60.37" gradientUnits="userSpaceOnUse"><stop stop-color="#1652F0"/><stop offset="1" stop-color="#fff" stop-opacity="0"/></linearGradient></defs></svg>