<svg xmlns="http://www.w3.org/2000/svg" fill="none" viewBox="0 0 240 241"><path fill="#0052FF" d="M240 64H0v120h240V64z"/><path fill="#0A0B0D" d="M208 64H32v120h176V64z"/><path fill="#CED2DB" d="M208 184H32v56h176v-56zm0-184H32v64h176V0z"/><path fill="#00D17F" d="M128 140h-16v8h16v-8zm-64-40H48v48h16v-48zm-4 48h-8v4h8v-4zm0-52h-8v4h8v-4z"/><path fill="#F34" d="M96 124H80v40h16v-40z"/><path fill="#F34" d="M96 140H80v24h16v-24zm-4 24h-8v4h8v-4zm0-44h-8v4h8v-4z"/><path fill="#00D17F" d="M128 84h-16v64h16V84zm-4 64h-8v4h8v-4zm0-68h-8v4h8v-4zm68 36h-16v40h16v-40zm-4 40h-8v4h8v-4zm0-44h-8v4h8v-4z"/><path fill="#F34" d="M160 100h-16v24h16v-24zm-4 24h-8v4h8v-4zm0-28h-8v4h8v-4z"/><path fill="#00D17F" d="M0 48h240v16H0V48z"/><path fill="#0052FF" d="M208 48H32v16h176V48z"/><path fill="#fff" d="M10.13 56a2 2 0 1 1-4 0 2 2 0 0 1 4 0zm16 0a2 2 0 1 1-4 0 2 2 0 0 1 4 0zm-8 0a2 2 0 1 1-4 0 2 2 0 0 1 4 0z"/></svg>