<svg xmlns="http://www.w3.org/2000/svg" fill="none" viewBox="0 0 48 48"><path fill="#56B4FC" d="M39 9H9v30h30V9z"/><path fill="#BFE9FF" d="M16.5 39h-3v9h3v-9zM25.5 39h-3v9h3v-9zM34.5 39h-3v9h3v-9zM16.5 0h-3v9h3V0zM25.5 0h-3v9h3V0zM34.5 0h-3v9h3V0z"/><path fill="#1652F0" d="M16.5 9h-3v30h3V9zM25.5 9h-3v30h3V9zM34.5 9h-3v30h3V9z"/><path fill="#1652F0" d="M39 16.5v-3H9v3h30zM39 25.5v-3H9v3h30zM39 34.5v-3H9v3h30z"/><path fill="#BFE9FF" d="M9 16.5v-3H0v3h9zM9 25.5v-3H0v3h9zM9 34.5v-3H0v3h9zM48 16.5v-3h-9v3h9zM48 25.5v-3h-9v3h9zM48 34.5v-3h-9v3h9z"/><path fill="#56B4FC" d="M31.5 16.5h-15v15h15v-15z"/><path fill="#fff" d="m28.5 24-3.45 1.05L24 28.5l-1.05-3.45L19.5 24l3.45-1.05L24 19.5l1.05 3.45L28.5 24z"/></svg>