<svg xmlns="http://www.w3.org/2000/svg" fill="none" viewBox="0 0 48 48"><path fill="#BFE9FF" d="M37.5 0h-27v48h27V0z"/><path fill="#56B4FC" d="M48 37.5v-27H0v27h48z"/><path fill="#1652F0" d="M37.5 10.5h-27v27h27v-27z"/><path fill="#fff" d="M17.985 20.895h-2.437v-1.29h6.525v1.29h-2.438v7.477h-1.642v-7.477h-.008zM23.468 25.657h1.567c.113.886.465 1.62 1.95 1.62.968 0 1.658-.54 1.658-1.35s-.405-1.117-1.83-1.35c-2.1-.285-3.09-.922-3.09-2.565 0-1.432 1.222-2.512 3.052-2.512 1.89 0 3.015.855 3.188 2.535H28.47c-.157-.922-.69-1.313-1.695-1.313-.99 0-1.507.48-1.507 1.155 0 .713.292 1.066 1.815 1.29 2.062.285 3.127.87 3.127 2.625 0 1.523-1.29 2.708-3.225 2.708-2.392 0-3.397-1.192-3.517-2.843zM34.875 17.25v-.75h-.75a.752.752 0 0 0-.75.75.752.752 0 0 0-.75-.75h-.75v.75H33v13.5h-1.125v.75h.75c.413 0 .75-.337.75-.75 0 .413.337.75.75.75h.75v-.75H33.75v-13.5h1.125z"/></svg>