<svg xmlns="http://www.w3.org/2000/svg" fill="none" viewBox="0 0 240 240"><g fill="#1652F0" opacity=".5"><path d="M229 158.9h-1v1h1v-1zM217 146.9h-1v1h1v-1zM217 158.9h-1v1h1v-1zM217 170.9h-1v1h1v-1zM205 110.9h-1v1h1v-1zM205 122.9h-1v1h1v-1zM205 134.9h-1v1h1v-1zM217 134.9h-1v1h1v-1zM205 146.9h-1v1h1v-1zM205 158.9h-1v1h1v-1zM205 170.9h-1v1h1v-1zM205 182.9h-1v1h1v-1zM193 110.9h-1v1h1v-1zM193 122.9h-1v1h1v-1zM193 134.9h-1v1h1v-1zM193 146.9h-1v1h1v-1zM193 158.9h-1v1h1v-1zM193 170.9h-1v1h1v-1zM193 182.9h-1v1h1v-1zM193 194.9h-1v1h1v-1zM181 110.9h-1v1h1v-1zM181 122.9h-1v1h1v-1zM181 134.9h-1v1h1v-1zM181 146.9h-1v1h1v-1zM181 158.9h-1v1h1v-1zM181 170.9h-1v1h1v-1zM181 182.9h-1v1h1v-1zM181 194.9h-1v1h1v-1zM61 39.9h-1v1h1v-1zM61 51.9h-1v1h1v-1zM61 63.9h-1v1h1v-1zM61 75.9h-1v1h1v-1zM61 87.9h-1v1h1v-1zM61 99.9h-1v1h1v-1zM61 111.9h-1v1h1v-1zM61 123.9h-1v1h1v-1zM49 39.9h-1v1h1v-1zM49 51.9h-1v1h1v-1zM49 63.9h-1v1h1v-1zM49 75.9h-1v1h1v-1zM49 87.9h-1v1h1v-1zM49 99.9h-1v1h1v-1zM49 111.9h-1v1h1v-1zM49 123.9h-1v1h1v-1zM37 39.9h-1v1h1v-1zM37 51.9h-1v1h1v-1zM37 63.9h-1v1h1v-1zM37 75.9h-1v1h1v-1zM37 87.9h-1v1h1v-1zM37 99.9h-1v1h1v-1zM37 111.9h-1v1h1v-1zM37 123.9h-1v1h1v-1zM25 39.9h-1v1h1v-1zM25 51.9h-1v1h1v-1zM25 63.9h-1v1h1v-1zM25 75.9h-1v1h1v-1zM25 87.9h-1v1h1v-1zM25 99.9h-1v1h1v-1zM25 111.9h-1v1h1v-1zM25 123.9h-1v1h1v-1zM13 51.9h-1v1h1v-1zM13 63.9h-1v1h1v-1zM13 87.9h-1v1h1v-1zM13 99.9h-1v1h1v-1zM13 111.9h-1v1h1v-1zM1 99.9H0v1h1v-1z" opacity=".5"/></g><path fill="url(#a)" d="M100 77.9H0v42h100v-42z"/><path fill="url(#b)" d="M240 122.9H140v42h100v-42z"/><path fill="#fff" stroke="url(#c)" d="M169.9 219.3H70.1c-2.024 0-3.7-1.676-3.7-3.7V24.2c0-2.024 1.676-3.7 3.7-3.7H170c2.024 0 3.7 1.676 3.7 3.7v191.389c-.094 2.04-1.784 3.711-3.8 3.711z"/><path fill="#1652F0" d="M174.1 32.5H65.9v174.7h108.2V32.5z"/><path fill="url(#d)" d="M174.1 146.2H65.9v17.7h108.2v-17.7z"/><path fill="#D4EEFF" d="M133.5 215.6h-27c-1.1 0-2.1-.9-2.1-2.1 0-1.1.9-2.1 2.1-2.1h27c1.1 0 2.1.9 2.1 2.1 0 1.2-.9 2.1-2.1 2.1zM120 28.9a2.2 2.2 0 1 0 0-4.4 2.2 2.2 0 0 0 0 4.4z"/><path fill="#fff" d="M72.2 38.8h-2.1v2.1h2.1v-2.1zM75.3 37.7h-2.1v3.1h2.1v-3.1zM78.4 36.7h-2.1v4.2h2.1v-4.2zM169.9 37h-6.2v3.6h6.2V37zM163.2 39.8v-2.1c-.3 0-.5.2-.5.5v1c-.1.4.2.6.5.6z"/><path fill="url(#e)" d="M174 40.9h-37.4v166.4H174V40.9z"/><path fill="#fff" stroke="url(#f)" d="M192.4 145.4H47.6c-4.236 0-7.6-3.288-7.6-7.4v-36.2c0-4.112 3.364-7.4 7.6-7.4h144.8c4.236 0 7.6 3.288 7.6 7.4V138c0 4.112-3.364 7.4-7.6 7.4z"/><path fill="url(#g)" d="M192.4 94.9c3.9 0 7.1 3.1 7.1 6.9V138c0 3.8-3.2 6.9-7.1 6.9H47.6c-3.9 0-7.1-3.1-7.1-6.9v-36.2c0-3.8 3.2-6.9 7.1-6.9h144.8zm0-1H47.6c-4.5 0-8.1 3.5-8.1 7.9V138c0 4.4 3.6 7.9 8.1 7.9h144.8c4.5 0 8.1-3.5 8.1-7.9v-36.2c0-4.4-3.6-7.9-8.1-7.9z"/><path fill="url(#h)" d="M140 115.9H56c-2.2 0-4-1.8-4-4s1.8-4 4-4h84c2.2 0 4 1.8 4 4s-1.8 4-4 4z"/><path fill="url(#i)" d="M164 131.9H56c-2.2 0-4-1.8-4-4s1.8-4 4-4h108c2.2 0 4 1.8 4 4s-1.8 4-4 4z"/><path fill="#fff" d="M193.3 128.1c15.575 0 28.2-12.626 28.2-28.2 0-15.575-12.625-28.2-28.2-28.2-15.574 0-28.2 12.626-28.2 28.2s12.626 28.2 28.2 28.2z" opacity=".2"/><path d="M164 70.9h58v58h-58z"/><path fill="#fff" d="M193.3 116.4c9.113 0 16.5-7.387 16.5-16.5s-7.387-16.5-16.5-16.5-16.5 7.387-16.5 16.5 7.387 16.5 16.5 16.5z"/><path fill="#3ACC8A" d="M193.3 109.3a9.4 9.4 0 0 0 9.4-9.4 9.4 9.4 0 1 0-9.4 9.4z"/><path fill="#3ACC8A" d="M193.3 114.1c-7.8 0-14.2-6.4-14.2-14.2 0-7.8 6.4-14.2 14.2-14.2 7.8 0 14.2 6.4 14.2 14.2 0 7.8-6.4 14.2-14.2 14.2zm0-21.2c-3.9 0-7.1 3.2-7.1 7.1 0 3.9 3.2 7.1 7.1 7.1 3.9 0 7.1-3.2 7.1-7.1 0-4-3.2-7.1-7.1-7.1z"/><path fill="url(#j)" d="M193.3 110.7c5.965 0 10.8-4.835 10.8-10.8 0-5.965-4.835-10.8-10.8-10.8-5.965 0-10.8 4.835-10.8 10.8 0 5.965 4.835 10.8 10.8 10.8z"/><defs><linearGradient id="a" x1="100" x2="-.23" y1="98.9" y2="98.9" gradientUnits="userSpaceOnUse"><stop stop-color="#D4EEFF"/><stop offset="1" stop-color="#D4EEFF" stop-opacity="0"/></linearGradient><linearGradient id="b" x1="140" x2="240.23" y1="143.9" y2="143.9" gradientUnits="userSpaceOnUse"><stop stop-color="#D4EEFF"/><stop offset="1" stop-color="#D4EEFF" stop-opacity="0"/></linearGradient><linearGradient id="c" x1="120.05" x2="120.05" y1="20" y2="219.8" gradientUnits="userSpaceOnUse"><stop stop-color="#D4EEFF"/><stop offset="1" stop-color="#99D6FF"/></linearGradient><linearGradient id="d" x1="120" x2="120" y1="162.73" y2="148.59" gradientUnits="userSpaceOnUse"><stop stop-color="#1652F0" stop-opacity="0"/><stop offset="1" stop-color="#1652F0" stop-opacity=".3"/></linearGradient><linearGradient id="e" x1="138.06" x2="172.51" y1="124.06" y2="124.06" gradientUnits="userSpaceOnUse"><stop stop-color="#1652F0" stop-opacity="0"/><stop offset="1" stop-color="#1652F0"/></linearGradient><linearGradient id="f" x1="120" x2="120" y1="93.9" y2="145.9" gradientUnits="userSpaceOnUse"><stop stop-color="#D4EEFF"/><stop offset="1" stop-color="#99D6FF"/></linearGradient><linearGradient id="g" x1="120" x2="120" y1="145.9" y2="93.9" gradientUnits="userSpaceOnUse"><stop stop-color="#fff" stop-opacity="0"/><stop offset="1" stop-color="#99D6FF" stop-opacity=".3"/></linearGradient><linearGradient id="h" x1="76.51" x2="119.49" y1="135.73" y2="88" gradientUnits="userSpaceOnUse"><stop offset=".18" stop-color="#99D6FF"/><stop offset="1" stop-color="#D4EEFF"/></linearGradient><linearGradient id="i" x1="83.15" x2="136.85" y1="157.75" y2="98.12" gradientUnits="userSpaceOnUse"><stop offset=".18" stop-color="#D4EEFF"/><stop offset="1" stop-color="#fff"/></linearGradient><radialGradient id="j" cx="0" cy="0" r="1" gradientTransform="translate(195.587 102.016) scale(14.3969)" gradientUnits="userSpaceOnUse"><stop offset=".6" stop-color="#fff" stop-opacity="0"/><stop offset="1" stop-color="#fff"/></radialGradient></defs></svg>