<svg xmlns="http://www.w3.org/2000/svg" fill="none" viewBox="0 0 120 120"><path fill="#FFAE24" d="m27 40-1.41 6.59L19 48l6.59 1.41L27 56l1.41-6.59L35 48l-6.59-1.41L27 40z"/><path fill="#0052FF" d="M10 44a1 1 0 1 1 0-2 1 1 0 0 1 0 2zm13-12a1 1 0 1 1 0-2 1 1 0 0 1 0 2z"/><path fill="url(#a)" d="M36 66h48v54H36z"/><rect width="48" height="80" x="36" y="14" fill="#fff" rx="2"/><path fill="#0052FF" d="M36 20h48v68H36z"/><rect width="47" height="79" x="36.5" y="14.5" stroke="url(#b)" rx="1.5"/><path fill="#fff" fill-rule="evenodd" d="M74 54c0 7.732-6.268 14-14 14s-14-6.268-14-14 6.268-14 14-14 14 6.268 14 14zm-11.426-4.569h-5.142a1.995 1.995 0 0 0-1.995 1.995v5.142c0 1.104.89 1.995 1.995 1.995h5.142c1.104 0 1.995-.89 1.995-1.995v-5.142c0-1.104-.89-1.995-1.995-1.995z" clip-rule="evenodd"/><defs><linearGradient id="a" x1="60" x2="60" y1="66" y2="120" gradientUnits="userSpaceOnUse"><stop stop-color="#0052FF" stop-opacity=".5"/><stop offset="1" stop-color="#fff" stop-opacity="0"/></linearGradient><linearGradient id="b" x1="60" x2="60" y1="14" y2="94" gradientUnits="userSpaceOnUse"><stop stop-color="#D4EEFF"/><stop offset="1" stop-color="#99D6FF"/></linearGradient></defs></svg>