<svg xmlns="http://www.w3.org/2000/svg" fill="none" viewBox="0 0 240 240"><path fill="#1652F0" d="M160.227 220.003v-1h-1v1h1zM172.227 208.003v-1h-1v1h1zM160.227 208.003v-1h-1v1h1zM148.227 208.003v-1h-1v1h1zM208.227 196.003v-1h-1v1h1zM196.227 196.003v-1h-1v1h1zM184.227 196.003v-1h-1v1h1zM184.227 208.003v-1h-1v1h1zM172.227 196.003v-1h-1v1h1zM160.227 196.003v-1h-1v1h1zM148.227 196.003v-1h-1v1h1zM136.227 196.003v-1h-1v1h1zM208.227 184.003v-1h-1v1h1zM196.227 184.003v-1h-1v1h1zM184.227 184.003v-1h-1v1h1zM172.227 184.003v-1h-1v1h1zM160.227 184.003v-1h-1v1h1zM148.227 184.003v-1h-1v1h1zM136.227 184.003v-1h-1v1h1zM208.227 172.003v-1h-1v1h1zM196.227 172.003v-1h-1v1h1zM184.227 172.003v-1h-1v1h1zM172.227 172.003v-1h-1v1h1zM160.227 172.003v-1h-1v1h1zM148.227 172.003v-1h-1v1h1zM136.227 172.003v-1h-1v1h1zM208.227 160.003v-1h-1v1h1zM196.227 160.003v-1h-1v1h1zM184.227 160.003v-1h-1v1h1zM172.227 160.003v-1h-1v1h1zM160.227 160.003v-1h-1v1h1zM148.227 160.003v-1h-1v1h1zM136.227 160.003v-1h-1v1h1zM208.227 148.003v-1h-1v1h1zM196.227 148.003v-1h-1v1h1zM184.227 148.003v-1h-1v1h1zM172.227 148.003v-1h-1v1h1zM160.227 148.003v-1h-1v1h1zM148.227 148.003v-1h-1v1h1zM136.227 148.003v-1h-1v1h1zM208.227 136.003v-1h-1v1h1zM196.227 136.003v-1h-1v1h1zM184.227 136.003v-1h-1v1h1zM172.227 136.003v-1h-1v1h1zM160.227 136.003v-1h-1v1h1zM148.227 136.003v-1h-1v1h1zM136.227 136.003v-1h-1v1h1zM208.227 94.003v-1h-1v1h1zM196.227 94.003v-1h-1v1h1zM184.227 94.003v-1h-1v1h1zM172.227 94.003v-1h-1v1h1zM160.227 94.003v-1h-1v1h1zM148.227 94.003v-1h-1v1h1zM136.227 94.003v-1h-1v1h1zM124.227 94.003v-1h-1v1h1zM208.227 82.003v-1h-1v1h1zM196.227 82.003v-1h-1v1h1zM184.227 82.003v-1h-1v1h1zM172.227 82.003v-1h-1v1h1zM160.227 82.003v-1h-1v1h1zM148.227 82.003v-1h-1v1h1zM136.227 82.003v-1h-1v1h1zM124.227 82.003v-1h-1v1h1zM208.227 70.003v-1h-1v1h1zM196.227 70.003v-1h-1v1h1zM184.227 70.003v-1h-1v1h1zM172.227 70.003v-1h-1v1h1zM160.227 70.003v-1h-1v1h1zM148.227 70.003v-1h-1v1h1zM136.227 70.003v-1h-1v1h1zM124.227 70.003v-1h-1v1h1zM208.227 58.003v-1h-1v1h1zM196.227 58.003v-1h-1v1h1zM184.227 58.003v-1h-1v1h1zM172.227 58.003v-1h-1v1h1zM160.227 58.003v-1h-1v1h1zM148.227 58.003v-1h-1v1h1zM136.227 58.003v-1h-1v1h1zM124.227 58.003v-1h-1v1h1zM208.227 46.003v-1h-1v1h1zM196.227 46.003v-1h-1v1h1zM184.227 46.003v-1h-1v1h1zM172.227 46.003v-1h-1v1h1zM160.227 46.003v-1h-1v1h1zM148.227 46.003v-1h-1v1h1zM136.227 46.003v-1h-1v1h1zM124.227 46.003v-1h-1v1h1zM208.227 34.003v-1h-1v1h1zM196.227 34.003v-1h-1v1h1zM184.227 34.003v-1h-1v1h1zM172.227 34.003v-1h-1v1h1zM160.227 34.003v-1h-1v1h1zM148.227 34.003v-1h-1v1h1zM136.227 34.003v-1h-1v1h1zM124.227 34.003v-1h-1v1h1zM196.227 22.003v-1h-1v1h1zM184.227 22.003v-1h-1v1h1zM172.227 22.003v-1h-1v1h1zM160.227 22.003v-1h-1v1h1zM148.227 22.003v-1h-1v1h1zM136.227 22.003v-1h-1v1h1zM124.227 22.003v-1h-1v1h1zM184.227 10.003v-1h-1v1h1zM160.227 10.003v-1h-1v1h1zM148.227 10.003v-1h-1v1h1zM136.227 10.003v-1h-1v1h1z" opacity=".5"/><path fill="url(#a)" d="M188.21 116.11H51.79V240h136.42V116.11z"/><path fill="url(#b)" d="M51.79 0h136.42v52.06H51.79V0z"/><path fill="#fff" stroke="url(#c)" d="M215.88 115.61H24.12c-4.218 0-7.62-3.32-7.62-7.38V59.99c0-4.06 3.392-7.38 7.62-7.38h191.77c4.218 0 7.62 3.32 7.62 7.38v48.249c-.009 4.051-3.402 7.371-7.63 7.371z"/><path fill="url(#d)" d="M215.88 53.11c3.92 0 7.12 3.08 7.12 6.88v48.25c0 3.79-3.19 6.88-7.12 6.88H24.12c-3.92 0-7.12-3.08-7.12-6.88V59.99c0-3.79 3.19-6.88 7.12-6.88h191.76zm0-1H24.12c-4.48 0-8.12 3.53-8.12 7.88v48.25c0 4.35 3.63 7.88 8.12 7.88h191.77c4.48 0 8.12-3.53 8.12-7.88V59.99c-.01-4.35-3.64-7.88-8.13-7.88z"/><path fill="#1652F0" d="M51 105.11c11.598 0 21-9.402 21-21s-9.402-21-21-21-21 9.402-21 21 9.402 21 21 21z"/><path fill="url(#e)" d="M51 64.11c11.03 0 20 8.97 20 20s-8.97 20-20 20-20-8.97-20-20 8.97-20 20-20zm0-1c-11.6 0-21 9.4-21 21s9.4 21 21 21 21-9.4 21-21-9.4-21-21-21z" opacity=".3"/><path fill="#fff" d="m56.73 79.38-7.64 7.64-3.82-3.82-1.91 1.91 5.73 5.73 9.55-9.55-1.91-1.91z"/><path fill="url(#f)" d="M153.16 80.08H91.11c-1.66 0-3-1.34-3-3s1.34-3 3-3h62.05c1.66 0 3 1.34 3 3s-1.34 3-3 3z"/><path fill="url(#g)" d="M201.2 94.09H91.11c-1.66 0-3-1.34-3-3s1.34-3 3-3H201.2c1.66 0 3 1.34 3 3s-1.35 3-3 3z"/><path fill="#fff" stroke="url(#h)" d="M215.88 191.62H24.12c-4.218 0-7.62-3.32-7.62-7.38V136c0-4.06 3.392-7.38 7.62-7.38h191.77c4.218 0 7.62 3.32 7.62 7.38v48.249c-.009 4.051-3.402 7.371-7.63 7.371z"/><path fill="url(#i)" stroke="url(#j)" d="M223.5 136c0-4.093-3.441-7.38-7.62-7.38 4.228 0 7.621 3.32 7.63 7.381v48.249c0 4.06-3.402 7.38-7.62 7.38h-.01c4.19 0 7.62-3.298 7.62-7.38V136zM16.656 185.742c.716 3.371 3.807 5.888 7.464 5.888-3.696 0-6.753-2.537-7.464-5.888zm7.464-57.122c-4.19 0-7.62 3.298-7.62 7.38 0-4.06 3.402-7.38 7.62-7.38z"/><path fill="#3ACC8A" d="M51 181.04c11.598 0 21-9.402 21-21s-9.402-21-21-21-21 9.402-21 21 9.402 21 21 21z"/><path fill="url(#k)" d="M51 140.04c11.03 0 20 8.97 20 20s-8.97 20-20 20-20-8.97-20-20 8.97-20 20-20zm0-1c-11.6 0-21 9.4-21 21s9.4 21 21 21 21-9.4 21-21-9.4-21-21-21z" opacity=".3"/><path fill="#fff" d="m56.73 155.31-7.64 7.63-3.82-3.81-1.91 1.91 5.73 5.72 9.55-9.54-1.91-1.91z"/><path fill="url(#l)" d="M153.16 157.14H91.11c-1.66 0-3-1.34-3-3v-1c0-1.66 1.34-3 3-3h62.05c1.66 0 3 1.34 3 3v1c0 1.66-1.34 3-3 3z"/><path fill="url(#m)" d="M201.2 170.29H91.11c-1.66 0-3-1.34-3-3s1.34-3 3-3H201.2c1.66 0 3 1.34 3 3s-1.35 3-3 3z"/><defs><linearGradient id="a" x1="120" x2="120" y1="115.8" y2="236.38" gradientUnits="userSpaceOnUse"><stop offset=".19" stop-color="#D4EEFF" stop-opacity=".6"/><stop offset=".44" stop-color="#D8F0FF" stop-opacity=".42"/><stop offset=".69" stop-color="#E4F4FF" stop-opacity=".23"/><stop offset=".94" stop-color="#F9FCFF" stop-opacity=".05"/><stop offset="1" stop-color="#fff" stop-opacity="0"/></linearGradient><linearGradient id="b" x1="120" x2="120" y1="52.19" y2="1.52" gradientUnits="userSpaceOnUse"><stop offset=".19" stop-color="#D4EEFF" stop-opacity=".6"/><stop offset=".44" stop-color="#D8F0FF" stop-opacity=".42"/><stop offset=".69" stop-color="#E4F4FF" stop-opacity=".23"/><stop offset=".94" stop-color="#F9FCFF" stop-opacity=".05"/><stop offset="1" stop-color="#fff" stop-opacity="0"/></linearGradient><linearGradient id="c" x1="120" x2="120" y1="52.11" y2="116.11" gradientUnits="userSpaceOnUse"><stop stop-color="#D4EEFF"/><stop offset="1" stop-color="#99D6FF"/></linearGradient><linearGradient id="d" x1="120" x2="120" y1="116.11" y2="52.11" gradientUnits="userSpaceOnUse"><stop stop-color="#fff" stop-opacity="0"/><stop offset="1" stop-color="#99D6FF" stop-opacity=".3"/></linearGradient><linearGradient id="e" x1="37" x2="65" y1="99.76" y2="68.46" gradientUnits="userSpaceOnUse"><stop stop-color="#fff" stop-opacity=".2"/><stop offset=".5" stop-color="#fff"/><stop offset="1" stop-color="#fff" stop-opacity="0"/></linearGradient><linearGradient id="f" x1="106.23" x2="138.03" y1="94.74" y2="59.42" gradientUnits="userSpaceOnUse"><stop offset=".18" stop-color="#99D6FF"/><stop offset="1" stop-color="#D4EEFF"/></linearGradient><linearGradient id="g" x1="119.5" x2="172.81" y1="120.69" y2="61.49" gradientUnits="userSpaceOnUse"><stop offset=".18" stop-color="#D4EEFF"/><stop offset="1" stop-color="#fff"/></linearGradient><linearGradient id="h" x1="120" x2="120" y1="128.12" y2="192.12" gradientUnits="userSpaceOnUse"><stop stop-color="#D4EEFF"/><stop offset="1" stop-color="#99D6FF"/></linearGradient><linearGradient id="i" x1="120" x2="120" y1="192.12" y2="128.12" gradientUnits="userSpaceOnUse"><stop stop-color="#fff" stop-opacity="0"/><stop offset="1" stop-color="#99D6FF" stop-opacity=".3"/></linearGradient><linearGradient id="j" x1="120" x2="120" y1="128.12" y2="192.13" gradientUnits="userSpaceOnUse"><stop stop-color="#D4EEFF"/><stop offset="1" stop-color="#99D6FF"/></linearGradient><linearGradient id="k" x1="37" x2="65" y1="175.68" y2="144.39" gradientUnits="userSpaceOnUse"><stop stop-color="#fff" stop-opacity=".2"/><stop offset=".5" stop-color="#fff"/><stop offset="1" stop-color="#fff" stop-opacity="0"/></linearGradient><linearGradient id="l" x1="105.98" x2="138.28" y1="171.57" y2="135.71" gradientUnits="userSpaceOnUse"><stop offset=".18" stop-color="#99D6FF"/><stop offset="1" stop-color="#D4EEFF"/></linearGradient><linearGradient id="m" x1="119.5" x2="172.81" y1="196.89" y2="137.69" gradientUnits="userSpaceOnUse"><stop offset=".18" stop-color="#D4EEFF"/><stop offset="1" stop-color="#fff"/></linearGradient></defs></svg>