<svg xmlns="http://www.w3.org/2000/svg" fill="none" viewBox="0 0 120 120"><path fill="url(#a)" d="M3 42h48v78H3z"/><path fill="url(#b)" d="M19 42h16v78H19z"/><path fill="url(#c)" d="M41 82h32v38H41z"/><path fill="url(#d)" d="M53 82h8v38h-8z"/><path fill="url(#e)" d="M53 82h8v38h-8z"/><path fill="url(#f)" d="M78 60h32v60H78z"/><path fill="url(#g)" d="M88 60h12v60H88z"/><path fill="#3ACC8A" d="M57 98c8.837 0 16-7.163 16-16s-7.163-16-16-16-16 7.163-16 16 7.163 16 16 16z"/><path fill="url(#h)" d="M57 67c8.27 0 15 6.73 15 15s-6.73 15-15 15-15-6.73-15-15 6.73-15 15-15zm0-1c-8.84 0-16 7.16-16 16s7.16 16 16 16 16-7.16 16-16-7.16-16-16-16z"/><path fill="url(#i)" d="M59 75h-4v14h4V75z"/><path fill="url(#j)" d="M53 78h-4v8h4v-8z"/><path fill="url(#k)" d="M65 78h-4v8h4v-8z"/><path fill="url(#l)" d="M65 85h-4v1h4v-1z"/><path fill="url(#m)" d="M53 85h-4v1h4v-1z"/><path fill="url(#n)" d="M59 75h-4v1h4v-1z"/><path fill="#FFD066" d="M27 66c13.255 0 24-10.745 24-24S40.255 18 27 18 3 28.745 3 42s10.745 24 24 24z"/><path fill="#2775CA" d="M27 66a24 24 0 1 0 0-48.001A24 24 0 0 0 27 66z"/><path fill="#fff" d="M33.575 45.815c0-3.5-2.13-4.68-6.25-5.245-3.045-.44-3.63-1.155-3.63-2.575 0-1.42 1.03-2.305 3-2.305 1.795 0 2.83.625 3.255 2.07a.765.765 0 0 0 .725.555h1.575a.699.699 0 0 0 .705-.815c-.5-2.285-2.04-3.66-4.455-4.09V31a.75.75 0 0 0-.75-.75h-1.5a.75.75 0 0 0-.75.75v2.325c-3 .42-4.895 2.4-4.895 4.94 0 3.285 2 4.56 6.18 5.125 2.845.465 3.655 1.08 3.655 2.695 0 1.615-1.375 2.7-3.315 2.7-2.615 0-3.5-1.145-3.795-2.63a.76.76 0 0 0-.735-.61h-1.71a.7.7 0 0 0-.695.815c.435 2.5 2.04 4.33 5.31 4.77v2.37a.75.75 0 0 0 .75.75h1.5a.75.75 0 0 0 .75-.75v-2.37c3.1-.49 5.075-2.63 5.075-5.315z"/><path fill="#fff" d="M21.855 56.34a15 15 0 0 1 0-28.18 1.08 1.08 0 0 0 .645-.946v-1.4a.71.71 0 0 0-1-.715 18 18 0 0 0 0 34.3.71.71 0 0 0 1-.715v-1.4a1.08 1.08 0 0 0-.645-.945zM32.5 25.1a.71.71 0 0 0-1 .714v1.4a1.08 1.08 0 0 0 .645.945 15 15 0 0 1 0 28.18 1 1 0 0 0-.645.945v1.4a.71.71 0 0 0 1 .715 18 18 0 0 0 0-34.3z"/><path fill="url(#o)" d="M27 19.5c12.405 0 22.5 10.095 22.5 22.5S39.405 64.5 27 64.5 4.5 54.405 4.5 42 14.595 19.5 27 19.5zm0-1.5C13.74 18 3 28.74 3 42s10.74 24 24 24 24-10.74 24-24-10.74-24-24-24z"/><path fill="#FFAE24" d="m46.014 19.758 1.412 6.235 6.602 1.333-6.602 1.334-1.412 6.235L44.6 28.66 38 27.326l6.602-1.334 1.412-6.234z"/><path fill="#0A0B0D" d="M60.992 25.692a1.05 1.05 0 1 0 0-2.1 1.05 1.05 0 0 0 0 2.1zM47.351 13.099a1.05 1.05 0 1 0 0-2.099 1.05 1.05 0 0 0 0 2.099z" opacity=".3"/><path fill="#56B4FC" d="M94.001 76c8.837 0 16-7.163 16-16s-7.163-16-16-16-16 7.163-16 16 7.163 16 16 16z"/><path fill="url(#p)" d="M93.981 45c5.35 0 10.33 2.87 13 7.5 2 3.47 2.54 7.51 1.5 11.38-1.04 3.87-3.52 7.1-6.99 9.11a14.963 14.963 0 0 1-7.49 2.01c-5.35 0-10.33-2.87-13.01-7.5-2-3.47-2.54-7.51-1.5-11.38 1.04-3.87 3.52-7.1 6.99-9.11 2.29-1.31 4.88-2.01 7.5-2.01zm0-1c-2.71 0-5.47.69-7.98 2.15-7.65 4.42-10.27 14.2-5.86 21.86 2.96 5.13 8.34 8 13.87 8 2.71 0 5.47-.69 7.99-2.15 7.65-4.42 10.27-14.2 5.86-21.86-2.97-5.13-8.35-8-13.88-8z"/><path fill="url(#q)" d="M86.501 47.01c7.16-4.14 16.35-1.67 20.49 5.49 4.14 7.16 1.67 16.35-5.49 20.49-7.16 4.14-16.35 1.67-20.49-5.49-4.14-7.16-1.68-16.35 5.49-20.49zm-.5-.86c-7.65 4.42-10.27 14.2-5.86 21.86 4.41 7.66 14.2 10.27 21.86 5.86 7.65-4.42 10.27-14.2 5.86-21.86-4.41-7.66-14.21-10.28-21.86-5.86z"/><path fill="url(#r)" d="M94.001 51.52 85.511 60l8.49 8.49 8.49-8.49-8.49-8.48zm-3 8.48 3-3 3 3-3 3-3-3z"/><path fill="url(#s)" d="m94.001 52.93 7.07 7.07-7.07 7.07-7.08-7.07 7.08-7.07zm0-1.41L85.511 60l8.49 8.49 8.49-8.49-8.49-8.48z"/><defs><linearGradient id="a" x1="27" x2="27" y1="42" y2="120" gradientUnits="userSpaceOnUse"><stop stop-color="#0052FF" stop-opacity=".2"/><stop offset="1" stop-color="#fff" stop-opacity="0"/></linearGradient><linearGradient id="b" x1="27" x2="27" y1="42" y2="120" gradientUnits="userSpaceOnUse"><stop stop-color="#0052FF" stop-opacity=".2"/><stop offset="1" stop-color="#fff" stop-opacity="0"/></linearGradient><linearGradient id="c" x1="57" x2="57" y1="82" y2="120" gradientUnits="userSpaceOnUse"><stop stop-color="#0052FF" stop-opacity=".2"/><stop offset="1" stop-color="#fff" stop-opacity="0"/></linearGradient><linearGradient id="d" x1="57" x2="57" y1="82" y2="120" gradientUnits="userSpaceOnUse"><stop stop-color="#0052FF" stop-opacity=".2"/><stop offset="1" stop-color="#fff" stop-opacity="0"/></linearGradient><linearGradient id="e" x1="57" x2="57" y1="82" y2="120" gradientUnits="userSpaceOnUse"><stop stop-color="#0052FF" stop-opacity=".2"/><stop offset="1" stop-color="#fff" stop-opacity="0"/></linearGradient><linearGradient id="f" x1="94" x2="94" y1="60" y2="120" gradientUnits="userSpaceOnUse"><stop stop-color="#0052FF" stop-opacity=".2"/><stop offset="1" stop-color="#fff" stop-opacity="0"/></linearGradient><linearGradient id="g" x1="94" x2="94" y1="60" y2="120" gradientUnits="userSpaceOnUse"><stop stop-color="#0052FF" stop-opacity=".2"/><stop offset="1" stop-color="#fff" stop-opacity="0"/></linearGradient><linearGradient id="h" x1="41" x2="73" y1="82" y2="82" gradientUnits="userSpaceOnUse"><stop stop-color="#fff" stop-opacity=".2"/><stop offset=".5" stop-color="#fff" stop-opacity=".5"/><stop offset="1" stop-color="#fff" stop-opacity="0"/></linearGradient><linearGradient id="i" x1="57" x2="57" y1="73.64" y2="88.09" gradientUnits="userSpaceOnUse"><stop stop-color="#fff"/><stop offset="1" stop-color="#3ACC8A"/></linearGradient><linearGradient id="j" x1="51" x2="51" y1="90.37" y2="75.92" gradientUnits="userSpaceOnUse"><stop stop-color="#fff"/><stop offset="1" stop-color="#3ACC8A"/></linearGradient><linearGradient id="k" x1="63" x2="63" y1="90.37" y2="75.92" gradientUnits="userSpaceOnUse"><stop stop-color="#fff"/><stop offset="1" stop-color="#3ACC8A"/></linearGradient><linearGradient id="l" x1="63" x2="63" y1="86.55" y2="84.74" gradientUnits="userSpaceOnUse"><stop stop-color="#fff"/><stop offset="1" stop-color="#fff" stop-opacity=".4"/></linearGradient><linearGradient id="m" x1="51" x2="51" y1="86.55" y2="84.74" gradientUnits="userSpaceOnUse"><stop stop-color="#fff"/><stop offset="1" stop-color="#fff" stop-opacity=".4"/></linearGradient><linearGradient id="n" x1="57" x2="57" y1="74.46" y2="76.27" gradientUnits="userSpaceOnUse"><stop stop-color="#fff"/><stop offset="1" stop-color="#fff" stop-opacity=".4"/></linearGradient><linearGradient id="o" x1="3" x2="51" y1="42.01" y2="42.01" gradientUnits="userSpaceOnUse"><stop stop-color="#fff" stop-opacity=".2"/><stop offset=".5" stop-color="#fff" stop-opacity=".5"/><stop offset="1" stop-color="#fff" stop-opacity="0"/></linearGradient><linearGradient id="p" x1="80.14" x2="107.85" y1="68" y2="52" gradientUnits="userSpaceOnUse"><stop stop-color="#fff" stop-opacity=".2"/><stop offset=".5" stop-color="#fff" stop-opacity=".5"/><stop offset="1" stop-color="#fff" stop-opacity="0"/></linearGradient><linearGradient id="q" x1="80.14" x2="107.85" y1="68" y2="52" gradientUnits="userSpaceOnUse"><stop stop-color="#fff" stop-opacity=".2"/><stop offset=".5" stop-color="#fff" stop-opacity=".5"/><stop offset="1" stop-color="#fff" stop-opacity="0"/></linearGradient><linearGradient id="r" x1="85.51" x2="102.48" y1="60" y2="60" gradientUnits="userSpaceOnUse"><stop stop-color="#fff"/><stop offset="1" stop-color="#56B4FC"/></linearGradient><linearGradient id="s" x1="102.48" x2="85.51" y1="60" y2="60" gradientUnits="userSpaceOnUse"><stop stop-color="#fff"/><stop offset="1" stop-color="#56B4FC"/></linearGradient></defs></svg>