<svg xmlns="http://www.w3.org/2000/svg" fill="none" viewBox="0 0 240 120"><g clip-path="url(#a)"><path fill="url(#b)" d="M108-6H83v43h25V-6z" opacity=".6"/><path fill="url(#c)" d="M118.332 110.613c.53-1.148 21.376-36.658 28.09-46.551 1.59-2.385 3.71-4.505 6.095-5.919 2.65-1.59 7.42-1.06 7.773 2.562 0 0-19.698 68.812-28.62 83.033"/><path fill="url(#d)" d="M152.428 63.09s-14.221 28.62-18.903 26.853l7.332-17.313"/><path fill="#FFD066" d="M135.203 75.103c11.416 0 20.67-9.254 20.67-20.67 0-11.415-9.254-20.67-20.67-20.67-11.415 0-20.67 9.255-20.67 20.67 0 11.416 9.255 20.67 20.67 20.67z"/><path fill="url(#e)" d="M135.203 35.53c10.424 0 18.904 8.48 18.904 18.903 0 10.424-8.48 18.904-18.904 18.904-10.423 0-18.903-8.48-18.903-18.904 0-10.423 8.48-18.903 18.903-18.903zm0-1.767c-11.483 0-20.67 9.275-20.67 20.67 0 11.395 9.275 20.67 20.67 20.67 11.395 0 20.67-9.275 20.67-20.67 0-11.395-9.275-20.67-20.67-20.67z"/><path fill="url(#f)" d="m145.273 44.717-7.243 10.158 7.243 10.158-10.07-7.331-10.158 7.331 7.243-10.158-7.243-10.158 10.158 7.243 10.07-7.243z"/><path fill="url(#g)" d="m135.203 40.477 2.032 12.366 12.278 2.032-12.278 2.032-2.032 12.278-2.031-12.278-12.367-2.032 12.367-2.032 2.031-12.366z"/><path fill="url(#h)" d="m16 137.828 20.935-6.36a56.567 56.567 0 0 0 18.992-12.72L97.62 73.609c.795-.795 1.678-1.501 2.65-2.031l16.165-8.48c.795-.53 1.767 1.236 2.385 1.943 3.357 3.975 1.325 10.688-12.72 23.32l-7.508 20.847 15.281 1.236 12.72 57.152c-1.766 3.18-4.858 5.388-8.391 6.007-13.162 2.385-45.404 7.95-51.322 7.95l-20.405 10.246S22.36 164.504 16 137.828z"/><path fill="url(#i)" d="M136.263 138.88s8.657-15.547 10.424-27.383c.441-3.269-.707-6.537-3.092-8.745l-.707-.619c-2.296-2.208-5.476-3.18-8.568-2.561l-19.787 3.621c-2.473.442-4.593 2.12-5.653 4.505-2.12 4.682-5.477 12.367-5.83 15.9"/><path fill="url(#j)" d="M142.888 81.198s2.65-13.338 12.985-22.171l-1.59 6.448"/><path fill="#56B4FC" d="M79.112 13.888h4.24v4.24h1.236v-4.24h4.24v-1.236h-4.24v-4.24h-1.236v4.24h-4.24v1.236zM173 26.911h4.697v4.697h1.369V26.91h4.697v-1.37h-4.697v-4.696h-1.369v4.696H173v1.37z"/><path fill="url(#k)" d="M213.117-18h-35.323V94.033h35.323V-18z"/><path fill="#1652F0" d="M195.407 109.101c9.781 0 17.71-7.929 17.71-17.71 0-9.78-7.929-17.71-17.71-17.71s-17.71 7.93-17.71 17.71c0 9.781 7.929 17.71 17.71 17.71z"/><path fill="url(#l)" d="M195.407 75.638c8.708 0 15.753 7.045 15.753 15.753s-7.045 15.753-15.753 15.753c-8.709 0-15.753-7.045-15.753-15.753.097-8.708 7.142-15.753 15.753-15.753zm0-1.957c-9.785 0-17.71 7.926-17.71 17.71 0 9.785 7.925 17.71 17.71 17.71 9.784 0 17.71-7.925 17.71-17.71 0-9.784-7.926-17.71-17.71-17.71z"/><path fill="url(#m)" d="m195.407 100.784-9.296-9.393 9.296-9.393 9.393 9.393-9.393 9.393z"/><path fill="url(#n)" d="m195.407 83.368 8.023 8.023-8.023 8.023-8.024-8.023 8.024-8.023zm0-1.37-9.393 9.393 9.393 9.393 9.393-9.393-9.393-9.393z"/><path fill="#1652F0" d="m192.178 91.391 3.327-3.327 3.326 3.327-3.326 3.327-3.327-3.327z"/><path fill="#1652F0" d="M209.105 81.509v-.88h-.881v.88h.881zm-10.763 0v-.88h-.881v.88h.881zm10.763-10.763v-.979h-.881v.881h.881v.098zm-10.763 0v-.979h-.881v.881h.881v.098zm10.763-10.861v-.88h-.881v.88h.881zm-10.763 0v-.88h-.881v.88h.881zm10.763-10.763v-.88h-.881v.88h.881zm-10.763 0v-.88h-.881v.88h.881zm10.763-10.763v-.88h-.881v.88h.881zm-10.763 0v-.88h-.881v.88h.881zm10.763-10.763v-.88h-.881v.88h.881zm-10.763 0v-.88h-.881v.88h.881zm10.763-10.763v-.88h-.881v.88h.881zm-10.763 0v-.88h-.881v.88h.881zm10.763-10.861v-.88h-.881v.88h.881zm-10.763 0v-.88h-.881v.88h.881z" opacity=".5"/><path fill="url(#o)" d="M117.183 62.295s-2.738 7.243 2.297 9.54c0 0 3.357-4.593-2.297-9.54z"/><path fill="#3ACC8A" d="M95.365 47.19c6.879 0 12.455-5.576 12.455-12.455 0-6.879-5.576-12.455-12.455-12.455-6.879 0-12.455 5.576-12.455 12.455 0 6.879 5.576 12.455 12.455 12.455z"/><path fill="url(#p)" d="M95.365 24.047c5.918 0 10.688 4.77 10.688 10.688 0 5.918-4.77 10.688-10.688 10.688a10.669 10.669 0 0 1-10.688-10.688c0-5.918 4.858-10.688 10.688-10.688zm0-1.767A12.44 12.44 0 0 0 82.91 34.735 12.44 12.44 0 0 0 95.365 47.19a12.44 12.44 0 0 0 12.455-12.455A12.44 12.44 0 0 0 95.365 22.28z"/><path fill="url(#q)" d="M96.955 29.258h-3.092v10.865h3.092V29.258z"/><path fill="url(#r)" d="M92.273 31.643h-3.091v6.184h3.091v-6.184z"/><path fill="url(#s)" d="M101.637 31.643h-3.092v6.184h3.092v-6.184z"/><path fill="url(#t)" d="M101.637 31.643h-3.092v.795h3.092v-.795z"/><path fill="url(#u)" d="M92.273 31.643h-3.091v.795h3.091v-.795z"/><path fill="url(#v)" d="M96.955 29.258h-3.092v.795h3.092v-.795z"/><path fill="url(#w)" d="M62-1H28v74h34V-1z"/><path fill="#1652F0" d="M42.731 67.946v-.803h-.803v.803h.803zm0-10.142v-.903h-.803v.803h.803v.1zm-10.141 0v-.903h-.804v.803h.803v.1zm10.141-10.142v-.803h-.803v.803h.803zm-10.141 0v-.803h-.804v.803h.803zM42.731 37.42v-.804h-.803v.804h.803zm-10.141 0v-.804h-.804v.804h.803zm0-10.142v-.804h-.804v.804h.803z" opacity=".5"/><path fill="#fff" d="M44.64 89.335c9.15 0 16.568-7.418 16.568-16.569 0-9.15-7.418-16.568-16.569-16.568-9.15 0-16.569 7.418-16.569 16.568 0 9.151 7.418 16.57 16.57 16.57z"/><path fill="url(#x)" d="M44.64 57.202c4.116 0 8.032 1.607 11.045 4.519 2.912 2.912 4.519 6.828 4.519 11.045 0 4.117-1.607 8.034-4.52 11.046-2.911 2.912-6.827 4.519-11.045 4.519-4.117 0-8.033-1.607-11.046-4.519-2.912-2.912-4.519-6.828-4.519-11.046 0-4.117 1.607-8.033 4.52-11.045 3.012-2.912 6.928-4.52 11.045-4.52zm0-1.004c-4.218 0-8.436 1.606-11.75 4.82-6.426 6.426-6.426 16.97 0 23.397 3.214 3.213 7.431 4.82 11.75 4.82 4.317 0 8.434-1.607 11.748-4.82 6.427-6.427 6.427-16.97 0-23.397-3.213-3.214-7.531-4.82-11.749-4.82z"/><path fill="url(#y)" d="M46.145 65.235c1.205 0 2.31.301 3.314 1.004l-2.008 2.009-.804.803.804.803c1.104 1.105 1.807 2.611 1.807 4.318 0 1.607-.602 3.113-1.807 4.318-1.105 1.105-2.611 1.808-4.318 1.808-1.205 0-2.31-.302-3.314-1.005l2.008-2.008.804-.803-.804-.803c-1.104-1.105-1.807-2.611-1.807-4.318 0-1.607.602-3.113 1.807-4.318 1.105-1.205 2.712-1.808 4.318-1.808zm0-1.205c-1.807 0-3.715.703-5.121 2.109-2.812 2.812-2.812 7.43 0 10.242l-2.912 2.912c1.406 1.406 3.314 2.11 5.121 2.11 1.808 0 3.716-.704 5.121-2.11 2.812-2.811 2.812-7.43 0-10.242l2.913-2.912c-1.406-1.406-3.314-2.109-5.122-2.109z"/><path fill="url(#z)" d="M44.84 56.9c8.535 0 15.565 7.03 15.565 15.565 0 8.536-7.03 15.565-15.565 15.565S29.275 81 29.275 72.465s7.03-15.564 15.565-15.564zm0-1.305c-9.339 0-16.97 7.531-16.97 16.97 0 9.44 7.53 16.971 16.97 16.971 9.44 0 16.97-7.531 16.97-16.97 0-9.44-7.631-16.97-16.97-16.97z"/></g><defs><linearGradient id="b" x1="95.47" x2="95.47" y1="27" y2=".5" gradientUnits="userSpaceOnUse"><stop stop-color="#D4EEFF" stop-opacity=".7"/><stop offset=".29" stop-color="#D9F0FF" stop-opacity=".5"/><stop offset=".63" stop-color="#E7F5FF" stop-opacity=".26"/><stop offset=".99" stop-color="#FEFFFF" stop-opacity=".01"/><stop offset="1" stop-color="#fff" stop-opacity="0"/></linearGradient><linearGradient id="c" x1="139" x2="139" y1="44.5" y2="291" gradientUnits="userSpaceOnUse"><stop stop-color="#D4EEFF"/><stop offset=".56" stop-color="#fff"/></linearGradient><linearGradient id="d" x1="150.52" x2="138.04" y1="58.68" y2="88.23" gradientUnits="userSpaceOnUse"><stop stop-color="#9ED4FD"/><stop offset="1" stop-color="#9ED4FD" stop-opacity="0"/></linearGradient><linearGradient id="e" x1="114.51" x2="155.81" y1="54.45" y2="54.45" gradientUnits="userSpaceOnUse"><stop stop-color="#fff" stop-opacity=".2"/><stop offset=".5" stop-color="#fff" stop-opacity=".5"/><stop offset="1" stop-color="#fff" stop-opacity="0"/></linearGradient><linearGradient id="f" x1="125.03" x2="145.32" y1="44.7" y2="64.99" gradientUnits="userSpaceOnUse"><stop stop-color="#fff" stop-opacity="0"/><stop offset="1" stop-color="#fff"/></linearGradient><linearGradient id="g" x1="128" x2="142.35" y1="47.67" y2="62.02" gradientUnits="userSpaceOnUse"><stop stop-color="#fff" stop-opacity=".4"/><stop offset="1" stop-color="#fff"/></linearGradient><linearGradient id="h" x1="127" x2="41" y1="59" y2="156" gradientUnits="userSpaceOnUse"><stop offset=".21" stop-color="#D4EEFF"/><stop offset=".52" stop-color="#fff"/></linearGradient><linearGradient id="i" x1="125" x2="125" y1="94" y2="150.5" gradientUnits="userSpaceOnUse"><stop offset=".06" stop-color="#D4EEFF"/><stop offset=".36" stop-color="#fff"/></linearGradient><linearGradient id="j" x1="149.6" x2="155.54" y1="70.39" y2="75.95" gradientUnits="userSpaceOnUse"><stop stop-color="#D4EEFF"/><stop offset="1" stop-color="#fff"/></linearGradient><linearGradient id="k" x1="195.45" x2="195.45" y1="89.24" y2="-16.53" gradientUnits="userSpaceOnUse"><stop stop-color="#D4EEFF" stop-opacity=".7"/><stop offset="1" stop-color="#fff" stop-opacity="0"/></linearGradient><linearGradient id="l" x1="177.79" x2="213.12" y1="91.39" y2="91.39" gradientUnits="userSpaceOnUse"><stop stop-color="#fff" stop-opacity=".2"/><stop offset=".5" stop-color="#fff" stop-opacity=".5"/><stop offset="1" stop-color="#fff" stop-opacity="0"/></linearGradient><linearGradient id="m" x1="186.08" x2="204.82" y1="91.39" y2="91.39" gradientUnits="userSpaceOnUse"><stop stop-color="#fff"/><stop offset="1" stop-color="#1652F0"/></linearGradient><linearGradient id="n" x1="204.82" x2="186.08" y1="91.39" y2="91.39" gradientUnits="userSpaceOnUse"><stop stop-color="#fff"/><stop offset="1" stop-color="#1652F0"/></linearGradient><linearGradient id="o" x1="120.56" x2="116.84" y1="63.71" y2="69.38" gradientUnits="userSpaceOnUse"><stop stop-color="#9ED4FD"/><stop offset="1" stop-color="#9ED4FD" stop-opacity="0"/></linearGradient><linearGradient id="p" x1="82.96" x2="107.86" y1="34.73" y2="34.73" gradientUnits="userSpaceOnUse"><stop stop-color="#fff" stop-opacity=".2"/><stop offset=".5" stop-color="#fff" stop-opacity=".5"/><stop offset="1" stop-color="#fff" stop-opacity="0"/></linearGradient><linearGradient id="q" x1="95.41" x2="95.41" y1="28.22" y2="39.46" gradientUnits="userSpaceOnUse"><stop stop-color="#fff"/><stop offset="1" stop-color="#3ACC8A"/></linearGradient><linearGradient id="r" x1="90.74" x2="90.74" y1="28.22" y2="39.46" gradientUnits="userSpaceOnUse"><stop stop-color="#fff"/><stop offset="1" stop-color="#3ACC8A"/></linearGradient><linearGradient id="s" x1="100.08" x2="100.08" y1="28.22" y2="39.46" gradientUnits="userSpaceOnUse"><stop stop-color="#fff"/><stop offset="1" stop-color="#3ACC8A"/></linearGradient><linearGradient id="t" x1="100.08" x2="100.08" y1="31.19" y2="32.6" gradientUnits="userSpaceOnUse"><stop stop-color="#fff"/><stop offset="1" stop-color="#fff" stop-opacity=".4"/></linearGradient><linearGradient id="u" x1="90.74" x2="90.74" y1="31.19" y2="32.6" gradientUnits="userSpaceOnUse"><stop stop-color="#fff"/><stop offset="1" stop-color="#fff" stop-opacity=".4"/></linearGradient><linearGradient id="v" x1="95.41" x2="95.41" y1="28.86" y2="30.26" gradientUnits="userSpaceOnUse"><stop stop-color="#fff"/><stop offset="1" stop-color="#fff" stop-opacity=".4"/></linearGradient><linearGradient id="w" x1="44.97" x2="44.97" y1="69.85" y2="-.06" gradientUnits="userSpaceOnUse"><stop stop-color="#D4EEFF" stop-opacity=".7"/><stop offset="1" stop-color="#fff" stop-opacity="0"/></linearGradient><linearGradient id="x" x1="56.36" x2="32.92" y1="61.02" y2="84.47" gradientUnits="userSpaceOnUse"><stop stop-color="#fff" stop-opacity=".2"/><stop offset=".5" stop-color="#fff" stop-opacity=".5"/><stop offset="1" stop-color="#fff" stop-opacity="0"/></linearGradient><linearGradient id="y" x1="38.05" x2="51.23" y1="79.34" y2="66.15" gradientUnits="userSpaceOnUse"><stop stop-color="#fff"/><stop offset="1" stop-color="#9ED4FD"/></linearGradient><linearGradient id="z" x1="44.85" x2="44.85" y1="55.6" y2="89.47" gradientUnits="userSpaceOnUse"><stop stop-color="#D4EEFF" stop-opacity="0"/><stop offset="1" stop-color="#D4EEFF"/></linearGradient><clipPath id="a"><path fill="#fff" d="M0 0h240v120H0z"/></clipPath></defs></svg>