<svg width="64" height="64" viewBox="0 0 64 64" fill="none" xmlns="http://www.w3.org/2000/svg">
<g clip-path="url(#clip0)">
<path d="M64 -0.0325928H14V49.9674H64V-0.0325928Z" fill="#BFE9FF"/>
<path d="M4 63.9674H46C48.21 63.9674 50 62.1774 50 59.9674V17.9674C50 15.7574 48.21 13.9674 46 13.9674H4C1.79 13.9674 0 15.7574 0 17.9674V59.9674C0 62.1774 1.79 63.9674 4 63.9674Z" fill="#56B4FC"/>
<path d="M14 49.9674H50V17.9674C50 15.7574 48.21 13.9674 46 13.9674H14V49.9674Z" fill="#1652F0"/>
<path d="M32 33.9674C33.1046 33.9674 34 33.072 34 31.9674C34 30.8628 33.1046 29.9674 32 29.9674C30.8954 29.9674 30 30.8628 30 31.9674C30 33.072 30.8954 33.9674 32 33.9674Z" fill="white"/>
<path d="M38 33.9674C39.1046 33.9674 40 33.072 40 31.9674C40 30.8628 39.1046 29.9674 38 29.9674C36.8954 29.9674 36 30.8628 36 31.9674C36 33.072 36.8954 33.9674 38 33.9674Z" fill="white"/>
<path d="M44 33.9674C45.1046 33.9674 46 33.072 46 31.9674C46 30.8628 45.1046 29.9674 44 29.9674C42.8954 29.9674 42 30.8628 42 31.9674C42 33.072 42.8954 33.9674 44 33.9674Z" fill="white"/>
<path d="M26 33.9674C27.1046 33.9674 28 33.072 28 31.9674C28 30.8628 27.1046 29.9674 26 29.9674C24.8954 29.9674 24 30.8628 24 31.9674C24 33.072 24.8954 33.9674 26 33.9674Z" fill="white"/>
<path d="M20 33.9674C21.1046 33.9674 22 33.072 22 31.9674C22 30.8628 21.1046 29.9674 20 29.9674C18.8954 29.9674 18 30.8628 18 31.9674C18 33.072 18.8954 33.9674 20 33.9674Z" fill="white"/>
</g>
<defs>
<clipPath id="clip0">
<rect width="64" height="64" fill="white"/>
</clipPath>
</defs>
</svg>
