<svg width="64" height="64" viewBox="0 0 64 64" fill="none" xmlns="http://www.w3.org/2000/svg">
<path d="M64 12H0V60H64V12Z" fill="#BFE9FF"/>
<path d="M10 62V10C10 8.9 10.9 8 12 8H52C53.1 8 54 8.9 54 10V62C54 63.1 53.1 64 52 64H12C10.9 64 10 63.1 10 62Z" fill="#56B4FC"/>
<path d="M54 12H10V60H54V12Z" fill="#1652F0"/>
<path d="M48 40H16V42H48V40Z" fill="white"/>
<path d="M48 46H16V48H48V46Z" fill="white"/>
<path d="M44 52H20V54H44V52Z" fill="white"/>
<path d="M44 8H20C20 5.79 21.79 4 24 4H40C42.21 4 44 5.79 44 8Z" fill="#56B4FC"/>
<path d="M32 8C34.2091 8 36 6.20914 36 4C36 1.79086 34.2091 0 32 0C29.7909 0 28 1.79086 28 4C28 6.20914 29.7909 8 32 8Z" fill="#56B4FC"/>
<path d="M33 20H31V36H33V20Z" fill="white"/>
<path d="M24.9302 25L26.3402 26.41L32.0002 20.76L37.6602 26.41L39.0702 25L32.0002 17.93L24.9302 25Z" fill="white"/>
</svg>
