<svg width="64" height="64" viewBox="0 0 64 64" fill="none" xmlns="http://www.w3.org/2000/svg">
<g clip-path="url(#clip0)">
<path d="M32 15.9674C36.4183 15.9674 40 12.3857 40 7.96741C40 3.54913 36.4183 -0.0325928 32 -0.0325928C27.5817 -0.0325928 24 3.54913 24 7.96741C24 12.3857 27.5817 15.9674 32 15.9674Z" fill="#56B4FC"/>
<path d="M32 19.9674C20.95 19.9674 12 27.1274 12 35.9674V55.9674H52V35.9674C52 27.1274 43.05 19.9674 32 19.9674Z" fill="#56B4FC"/>
<path d="M64 35.9674H0V63.9674H64V35.9674Z" fill="#BFE9FF"/>
<path d="M52 35.9674H12V63.9674H52V35.9674Z" fill="#1652F0"/>
<path d="M38.3615 46.4284L36.9473 45.0142L28.4621 53.4994L29.8763 54.9136L38.3615 46.4284Z" fill="white"/>
<path d="M29.8837 54.9152L31.2979 53.501L27.0553 49.2584L25.6411 50.6726L29.8837 54.9152Z" fill="white"/>
</g>
<defs>
<clipPath id="clip0">
<rect width="64" height="64" fill="white"/>
</clipPath>
</defs>
</svg>
