<svg xmlns="http://www.w3.org/2000/svg" fill="none" viewBox="0 0 25 24">
  <path fill="#3453EB" fill-rule="evenodd" d="M16.742 4.04l2.32-3.93 2.15 1.27-13.28 22.5-2.15-1.27 1.56-2.64c-2.99-1.32-5.57-3.88-7.2-7.33-.19-.4-.19-.87 0-1.28C2.583 6.2 7.133 3 12.002 3c1.64 0 3.24.37 4.74 1.04zM12.002 6c-3.56 0-6.82 2.23-8.82 6 1.39 2.63 3.4 4.48 5.7 5.38l1.39-2.36A3.478 3.478 0 018.503 12c0-1.93 1.57-3.5 3.5-3.5.67 0 1.28.19 1.81.52l1.39-2.36c-1.02-.42-2.09-.66-3.2-.66zm8.26.4c1.44 1.32 2.67 3 3.6 4.96.19.4.19.88-.01 1.27-2.44 5.16-6.98 8.36-11.86 8.36-.06 0-.117-.002-.175-.005-.057-.002-.114-.005-.175-.005l1.85-3.13c2.97-.53 5.61-2.62 7.33-5.85-.6-1.13-1.33-2.1-2.13-2.94l1.57-2.66z" clip-rule="evenodd"/>
</svg>
