<svg xmlns="http://www.w3.org/2000/svg" fill="none" viewBox="0 0 24 24">
  <path fill="#1652F0" fill-rule="evenodd" d="M9.8 4.98c.2-.1.4-.14.62-.14h5.84c.72 0 1.4.04 2 .14l.148.03c.136.03.258.055.392.07l.25.06.25.06c.08.02.16.04.24.08.035.023.077.04.121.057.032.013.066.026.099.043.12-1.6-.32-2.72-1.1-3.56C17.52.56 15.54 0 12.96 0H6.02c-.52 0-.98.38-1.06.9l-3.1 19.7c-.06.38.24.74.64.74h4.1l2.42-15.3c.06-.46.36-.86.78-1.06zm9.32 1.21l-.1-.03c-.14-.04-.28-.08-.44-.12a4.145 4.145 0 01-.198-.035 3.955 3.955 0 00-.262-.045c-.56-.08-1.18-.14-1.86-.14h-5.42a.91.91 0 00-.4.1.87.87 0 00-.52.7l-.98 6.22c.1-.02.22-.04.34-.04h2.18c1.16 0 2.2-.14 3.12-.4 2.32-.66 3.88-2.18 4.66-4.58.16-.5.28-.98.38-1.44-.12-.06-.26-.12-.4-.16l-.1-.03zm1.46.61c.24.16.48.34.66.56.78.9 1.02 2.16.82 3.64l-.03.2-.03.2c-.86 4.42-3.8 5.94-7.56 5.94h-.58c-.46 0-.84.32-.92.78l-.82 5.1c-.06.44-.46.78-.92.78H7.84c-.3 0-.6-.28-.54-.62.06-.42 1.36-8.64 1.36-8.64.1-.52.54-.9 1.06-.9h1.68c6.76 0 8.58-4.12 9.18-7.04z" clip-rule="evenodd"/>
</svg>
