<svg xmlns="http://www.w3.org/2000/svg" fill="none" viewBox="0 0 16 16">
  <path fill="#1652F0" d="M3.53 10.48c0-1.39.8-2.4 2.11-2.87-1.04-.43-1.67-1.23-1.67-2.38 0-1.99 1.9-3.12 4.05-3.12 2.19 0 4.02 1.15 4.02 3.1 0 1.15-.66 1.94-1.66 2.39 1.35.46 2.1 1.46 2.1 2.82 0 2.24-1.92 3.47-4.47 3.47-2.53 0-4.48-1.17-4.48-3.41zm6.38-.25c0-1.12-.81-1.75-1.89-1.75-1.05 0-1.92.62-1.92 1.76 0 1.14.85 1.76 1.91 1.76 1.09 0 1.9-.64 1.9-1.77zm-.27-4.84c0-.88-.7-1.47-1.62-1.47-.91 0-1.63.56-1.63 1.49 0 .93.75 1.49 1.65 1.49.93 0 1.6-.56 1.6-1.51z"/>
</svg>
