<svg xmlns="http://www.w3.org/2000/svg" fill="none" viewBox="0 0 24 24">
  <path fill="#1652F0" fill-rule="evenodd" d="M0 0v21h24V0H0zm19 11.5h-2.62c-.11.5-.31.97-.58 1.39l1.86 1.86-1.41 1.41-1.86-1.86a4.5 4.5 0 01-1.39.58v2.62h-2v-2.62c-.5-.11-.97-.31-1.39-.58l-1.86 1.86-1.41-1.41 1.86-1.86a4.27 4.27 0 01-.58-1.39H5v-2h2.62c.11-.5.31-.97.58-1.39L6.34 6.26l1.41-1.41L9.61 6.7c.42-.27.89-.47 1.39-.58V3.5h2v2.62c.5.11.97.31 1.39.58l1.86-1.86 1.41 1.41-1.86 1.86c.27.42.47.89.58 1.39H19v2zM0 22h6v2H0v-2zm18 0h6v2h-6v-2zm-3.5-11.5a2.5 2.5 0 11-5 0 2.5 2.5 0 015 0z" clip-rule="evenodd"/>
</svg>
