<svg xmlns="http://www.w3.org/2000/svg" fill="none" viewBox="0 0 16 16">
  <path fill="#1652F0" d="M8 13.5c-3.239 0-6.264-1.941-7.89-5.06a.935.935 0 010-.88C1.736 4.441 4.761 2.5 8 2.5s6.264 1.941 7.89 5.06a.935.935 0 010 .88C14.264 11.559 11.239 13.5 8 13.5zM2 8c1.333 2.239 3.628 3.9 6 3.9s4.667-1.661 6-3.9c-1.333-2.239-3.628-3.7-6-3.7S3.333 5.761 2 8z"/>
  <path fill="#1652F0" d="M8 10.265c1.288 0 2.332-1.014 2.332-2.265 0-1.25-1.044-2.265-2.332-2.265C6.712 5.735 5.668 6.75 5.668 8c0 1.25 1.044 2.265 2.332 2.265z"/>
</svg>
