<svg xmlns="http://www.w3.org/2000/svg" fill="none" viewBox="0 0 24 25">
  <path fill="#1652F0" d="M4.882 22.944L16.382 0l2.236 1.115-11.5 22.944-2.236-1.115zm7.048-2.684H12c4.858 0 9.396-2.905 11.835-7.572.22-.426.22-.91 0-1.317-1.172-2.242-2.828-4.078-4.772-5.38l-1.106 2.214c1.423 1.03 2.669 2.36 3.543 3.825-1.797 3.01-5.163 5.443-8.409 5.906l-1.162 2.323z"/>
  <path fill="#1652F0" d="M13.906 9.187l-3.026 6.054c-1.383-.453-2.38-1.721-2.38-3.212 0-1.871 1.567-3.388 3.499-3.388.703 0 1.358.2 1.906.546z"/>
  <path fill="#1652F0" d="M15.164 6.673C14.115 6.27 13.04 6.044 12 6.044c-3.559 0-7.5 2.635-9.5 5.986 1.568 2.627 4.331 4.815 7.167 5.636l-1.058 2.115c-3.508-1.004-6.586-3.537-8.444-7.093-.22-.407-.22-.89 0-1.317C2.604 6.704 7.142 3.8 12 3.8c1.453 0 2.877.26 4.226.749l-1.062 2.124z"/>
</svg>
