<svg xmlns="http://www.w3.org/2000/svg" fill="none" viewBox="0 0 16 16">
  <path fill="#1652F0" fill-rule="evenodd" d="M4.615 12.77L3.5 15l1.789.894 7.5-15L11 0 9.664 2.672A8.15 8.15 0 008 2.5C4.761 2.5 1.736 4.441.11 7.56a.935.935 0 000 .88c1.036 1.987 2.64 3.496 4.505 4.33zm.765-1.53l.87-1.742A2.22 2.22 0 015.669 8c0-1.25 1.044-2.265 2.332-2.265.044 0 .087.001.13.004l.691-1.381A5.888 5.888 0 008 4.3C5.628 4.3 3.333 5.761 2 8c.827 1.389 2.024 2.555 3.38 3.24zm10.51-2.8c-1.624 3.115-4.644 5.055-7.878 5.06l.835-1.67C10.908 11.494 12.827 9.97 14 8a8.06 8.06 0 00-2.076-2.324l.838-1.675A9.736 9.736 0 0115.89 7.56a.935.935 0 010 .88z" clip-rule="evenodd"/>
</svg>
