<svg xmlns="http://www.w3.org/2000/svg" fill="none" viewBox="0 0 24 24">
  <path fill="#1652F0" fill-rule="evenodd" d="M8.47 17.837c3.215 0 5.822-2.57 5.822-5.74 0-3.169-2.607-5.738-5.822-5.738-3.216 0-5.823 2.57-5.823 5.739 0 3.17 2.607 5.739 5.823 5.739zm0 2.609c4.677 0 8.47-3.738 8.47-8.348 0-4.61-3.793-8.348-8.47-8.348C3.792 3.75 0 7.488 0 12.098c0 4.61 3.792 8.348 8.47 8.348zm9.543 0C21.501 19.23 24 15.952 24 12.098c0-3.854-2.499-7.133-5.987-8.348v2.845c1.988 1.053 3.34 3.122 3.34 5.503 0 2.38-1.352 4.45-3.34 5.503v2.845z" clip-rule="evenodd"/>
</svg>
