<svg xmlns="http://www.w3.org/2000/svg" fill="none" viewBox="0 0 12 12">
  <path fill="#1652F0" fill-rule="evenodd" d="M4.175 3.941a1.495 1.495 0 00-.52-2.305 1.496 1.496 0 10-.886 2.827l.477 1.14a2.493 2.493 0 00.395 4.282A2.493 2.493 0 007.179 7.91l.99-.357a1.496 1.496 0 10-.392-1.78c-.057.12-.096.244-.118.37l-.78.28a2.486 2.486 0 00-1.12-1.047 2.504 2.504 0 00-1.083-.238l-.5-1.197zm.103 4.587a.993.993 0 01-.48-1.32.993.993 0 011.323-.475c.5.235.71.827.48 1.32a.993.993 0 01-1.323.475z" clip-rule="evenodd"/>
</svg>
