<svg xmlns="http://www.w3.org/2000/svg" fill="none" viewBox="0 0 24 24">
  <path fill="#1652F0" fill-rule="evenodd" d="M6.24 7.733a3 3 0 111.443-1.39l1.38 1.61C9.887 7.353 10.903 7 12 7c1.275 0 2.44.477 3.322 1.263l.97-.97a3 3 0 111.414 1.414l-1.175 1.176c.3.643.469 1.36.469 2.117 0 1.044-.32 2.013-.867 2.815l1.04 1.3A3.004 3.004 0 0121 19a3 3 0 11-5.457-1.721l-.852-1.064c-.777.497-1.7.785-2.691.785a4.983 4.983 0 01-3.438-1.37l-.677.543A3.003 3.003 0 015 20a3 3 0 111.721-5.457l.69-.553A4.983 4.983 0 017 12c0-.935.257-1.81.704-2.56L6.24 7.734zM6 5a1 1 0 10-2 0 1 1 0 002 0zm14 1a1 1 0 10-2 0 1 1 0 002 0zm-8 9a3 3 0 100-6 3 3 0 000 6zm-7 3a1 1 0 100-2 1 1 0 000 2zm13 2a1 1 0 100-2 1 1 0 000 2z" clip-rule="evenodd"/>
</svg>
