<svg xmlns="http://www.w3.org/2000/svg" fill="none" viewBox="0 0 8 8"><path fill="#0A0B0D" d="M7.993 4v-.02H8A4.003 4.003 0 0 0 4 0C1.793 0 0 1.793 0 4s1.793 4 4 4h.073c.274 0 .527-.14.674-.373a.804.804 0 0 0 .026-.82.78.78 0 0 1 .68-1.154h.887c.913 0 1.653-.74 1.653-1.653ZM5.38 1.427c.36.18.506.613.326.973a.724.724 0 0 1-.973.327.724.724 0 0 1-.327-.974.724.724 0 0 1 .974-.326Zm-3.1.326a.724.724 0 0 1 .973-.326c.36.18.507.613.327.973a.724.724 0 0 1-.973.327.724.724 0 0 1-.327-.974ZM1.233 3.52a.678.678 0 0 1 .914-.307c.34.167.473.574.306.914a.678.678 0 0 1-.913.306.678.678 0 0 1-.307-.913Zm1.6 1.593a.59.59 0 0 1 .267.794.59.59 0 0 1-.793.266.59.59 0 0 1-.267-.793.59.59 0 0 1 .793-.267ZM5.4 3.553a.724.724 0 0 1 .973-.326c.36.18.507.613.327.973a.724.724 0 0 1-.973.327.724.724 0 0 1-.327-.974Z"/></svg>