<svg xmlns="http://www.w3.org/2000/svg" fill="#1652F0" viewBox="0 0 12 12"><path d="M6.864 2.62a2.125 2.125 0 1 1-4.25 0 2.125 2.125 0 0 1 4.25 0Zm-1.2 0a.925.925 0 1 0-1.85 0 .925.925 0 0 0 1.85 0Zm-.925 2.875c2.056 0 3.771 2.061 4.165 4.8.056.388.085.79.085 1.2h-8.5c0-.41.029-.812.085-1.2.394-2.739 2.109-4.8 4.165-4.8Zm2.95 4.8c-.157-.931-.492-1.738-.924-2.349-.612-.863-1.345-1.25-2.026-1.25-.681 0-1.415.387-2.026 1.25-.433.61-.767 1.418-.925 2.35H7.69Zm1.2-6.4v-1.4h1.2v1.4h1.4v1.2h-1.4v1.4h-1.2v-1.4h-1.4v-1.2h1.4Z"/></svg>