<svg xmlns="http://www.w3.org/2000/svg" fill="#1652F0" viewBox="0 0 16 16"><path d="M15.99 8.01v-.04l.01-.01A8 8 0 1 0 8 16h.15a1.6 1.6 0 0 0 1.4-2.38 1.54 1.54 0 0 1 1.36-2.3h1.77a3.3 3.3 0 0 0 3.31-3.31Zm-7.17-4.5a1.45 1.45 0 1 1 2.6 1.3 1.45 1.45 0 1 1-2.6-1.3Zm-2.31-.65a1.45 1.45 0 1 1-1.3 2.6 1.45 1.45 0 1 1 1.3-2.6ZM2.47 7.05a1.37 1.37 0 0 1 2.44 1.22 1.37 1.37 0 0 1-2.44-1.22Zm1.62 3.72c.29-.58 1-.82 1.58-.53.58.29.82 1 .53 1.58-.29.58-1 .82-1.58.53-.58-.29-.82-1-.53-1.58Zm6.71-3.66a1.45 1.45 0 1 1 2.6 1.3 1.45 1.45 0 1 1-2.6-1.3Z"/></svg>