<svg xmlns="http://www.w3.org/2000/svg" fill="none" viewBox="0 0 12 12"><path fill="#1652F0" d="M11.99 6v-.03H12C11.98 2.68 9.31 0 6 0S0 2.69 0 6s2.69 6 6 6h.11c.41 0 .79-.21 1.01-.56.24-.37.25-.84.04-1.23-.2-.37-.19-.8.02-1.16.21-.35.58-.57 1-.57h1.33A2.48 2.48 0 0 0 11.99 6ZM8.07 2.14c.54.27.76.92.49 1.46-.27.54-.92.76-1.46.49-.54-.27-.76-.92-.49-1.46.27-.54.92-.76 1.46-.49Zm-4.65.49c.27-.54.92-.76 1.46-.49.54.27.76.92.49 1.46-.27.54-.92.76-1.46.49-.54-.27-.76-.92-.49-1.46ZM1.85 5.28c.25-.51.86-.71 1.37-.46.51.25.71.86.46 1.37-.25.51-.86.71-1.37.46-.51-.25-.71-.86-.46-1.37Zm2.4 2.39c.44.22.62.75.4 1.19-.22.44-.75.62-1.19.4a.886.886 0 0 1-.4-1.19c.22-.44.75-.62 1.19-.4ZM8.1 5.33c.27-.54.92-.76 1.46-.49.54.27.76.92.49 1.46-.27.54-.92.76-1.46.49-.54-.27-.76-.92-.49-1.46Z"/></svg>