<svg xmlns="http://www.w3.org/2000/svg" fill="none" viewBox="0 0 16 16"><path fill="#0A0B0D" d="M15.99 8.01v-.04l.01-.01A8.002 8.002 0 0 0 8 0C3.59 0 0 3.59 0 8s3.59 8 8 8h.15c.55 0 1.05-.27 1.35-.74.32-.49.33-1.12.05-1.64a1.54 1.54 0 0 1 .02-1.54c.29-.47.78-.76 1.34-.76h1.77c1.83 0 3.31-1.48 3.31-3.31Zm-7.17-4.5a1.45 1.45 0 0 1 1.95-.65c.72.36 1.01 1.23.65 1.95a1.45 1.45 0 0 1-1.95.65 1.45 1.45 0 0 1-.65-1.95Zm-2.31-.65c.72.36 1.01 1.23.65 1.95a1.45 1.45 0 0 1-1.95.65 1.45 1.45 0 0 1-.65-1.95 1.45 1.45 0 0 1 1.95-.65ZM2.47 7.05c.34-.67 1.16-.95 1.83-.61.67.34.95 1.16.61 1.83-.34.67-1.16.95-1.83.61-.67-.34-.95-1.16-.61-1.83Zm1.62 3.72c.29-.58 1-.82 1.58-.53.58.29.82 1 .53 1.58-.29.58-1 .82-1.58.53-.58-.29-.82-1-.53-1.58Zm6.71-3.66a1.45 1.45 0 0 1 1.95-.65c.72.36 1.01 1.23.65 1.95a1.45 1.45 0 0 1-1.95.65 1.45 1.45 0 0 1-.65-1.95Z"/></svg>