<svg xmlns="http://www.w3.org/2000/svg" fill="none" viewBox="0 0 32 32"><path fill="#0A0B0D" d="M32 16v-.067C31.96 7.147 24.813 0 16 0 7.187 0 0 7.173 0 16s7.187 16 16 16h.307a3.186 3.186 0 0 0 2.706-1.48c.64-1 .68-2.267.107-3.293a3.034 3.034 0 0 1 .04-3.08c.573-.947 1.56-1.534 2.68-1.534h3.547c3.64 0 6.613-2.96 6.613-6.613ZM21.56 5.72a2.911 2.911 0 0 1 1.307 3.906 2.911 2.911 0 0 1-3.907 1.307 2.911 2.911 0 0 1-1.306-3.907 2.911 2.911 0 0 1 3.906-1.307ZM9.147 7.026a2.911 2.911 0 0 1 3.906-1.307 2.911 2.911 0 0 1 1.307 3.907 2.911 2.911 0 0 1-3.907 1.306 2.911 2.911 0 0 1-1.306-3.906Zm-4.174 7.08a2.728 2.728 0 0 1 3.654-1.227 2.728 2.728 0 0 1 1.226 3.653A2.728 2.728 0 0 1 6.2 17.76a2.728 2.728 0 0 1-1.227-3.653Zm6.4 6.373a2.36 2.36 0 0 1 1.067 3.173 2.362 2.362 0 0 1-3.173 1.067A2.362 2.362 0 0 1 8.2 21.547a2.362 2.362 0 0 1 3.173-1.067ZM21.6 14.227a2.911 2.911 0 0 1 3.907-1.307 2.911 2.911 0 0 1 1.306 3.907 2.911 2.911 0 0 1-3.906 1.306 2.911 2.911 0 0 1-1.307-3.906Z"/></svg>