<svg xmlns="http://www.w3.org/2000/svg" fill="#1652F0" viewBox="0 0 12 12"><path d="M6.989 4.413a1 1 0 1 1-2 0 1 1 0 0 1 2 0Z"/><path d="M10.989 5.995c0 2.763-2.238 5-5 5-2.763 0-5-2.237-5-5 0-2.762 2.237-5 5-5a5 5 0 0 1 5 5Zm-1.845 2.12a3.799 3.799 0 0 0-3.155-5.92 3.799 3.799 0 0 0-3.156 5.92c.733-1.29 1.874-2.12 3.156-2.12s2.423.83 3.155 2.12Zm-.874.92a4.383 4.383 0 0 0-.423-.723c-.56-.77-1.232-1.117-1.858-1.117-.626 0-1.298.347-1.858 1.117a4.383 4.383 0 0 0-.423.723c.635.478 1.425.76 2.28.76a3.78 3.78 0 0 0 2.282-.76Z"/></svg>