<svg xmlns="http://www.w3.org/2000/svg" fill="#1652F0" viewBox="0 0 24 24"><path d="M17.989 11.495a1.5 1.5 0 1 1-3 0 1.5 1.5 0 0 1 3 0Zm-3.5-2.5a1.5 1.5 0 1 0 0-3 1.5 1.5 0 0 0 0 3Zm-3.5-1.5a1.5 1.5 0 1 1-3 0 1.5 1.5 0 0 1 3 0Zm-3.5 5.5a1.5 1.5 0 1 0 0-3 1.5 1.5 0 0 0 0 3Z"/><path d="M21.224 16.995a10.453 10.453 0 0 0 1.265-5c0-5.799-4.701-10.5-10.5-10.5-5.8 0-10.5 4.701-10.5 10.5 0 5.115 3.657 9.376 8.5 10.31.647.125 1.316.19 2 .19v-4.5a1 1 0 0 1 1-1h8.235Zm-1.28-2H12.99a3 3 0 0 0-3 3v2.264a8.5 8.5 0 1 1 10.5-8.263 8.478 8.478 0 0 1-.544 3Z"/></svg>