<svg xmlns="http://www.w3.org/2000/svg" fill="#1652F0" viewBox="0 0 24 24"><path d="M24 12v-.05A12.01 12.01 0 0 0 0 12c0 6.62 5.39 12 12 12h.23a2.4 2.4 0 0 0 2.11-3.58 2.33 2.33 0 0 1 2.04-3.46h2.66A4.97 4.97 0 0 0 24 12Zm-7.83-7.71a2.18 2.18 0 1 1-1.95 3.9 2.18 2.18 0 0 1 1.95-3.9Zm-9.31.98a2.18 2.18 0 1 1 3.9 1.95 2.18 2.18 0 0 1-3.9-1.95Zm-3.13 5.31a2.05 2.05 0 1 1 3.66 1.83 2.05 2.05 0 0 1-3.66-1.83Zm4.8 4.78a1.77 1.77 0 1 1-1.58 3.18 1.77 1.77 0 1 1 1.58-3.18Zm7.67-4.69a2.18 2.18 0 1 1 3.9 1.95 2.18 2.18 0 0 1-3.9-1.95Z"/></svg>