<svg xmlns="http://www.w3.org/2000/svg" fill="#1652F0" viewBox="0 0 12 12"><path d="M2.5 6.02v-.04c0-1.1.75-1.83 1.75-1.83.9 0 1.52.43 1.6 1.38h-1c-.04-.37-.23-.57-.58-.57-.44 0-.72.36-.72 1.02v.04c0 .64.26 1.02.73 1.02.35 0 .6-.2.64-.59h.99c-.07.93-.72 1.4-1.6 1.4-1.2 0-1.8-.74-1.8-1.83Zm3.65-.04v.04c0 1.1.6 1.82 1.8 1.84.88 0 1.53-.48 1.6-1.41h-.99c-.04.4-.3.59-.64.59-.47 0-.73-.38-.73-1.02v-.04c0-.66.28-1.02.72-1.02.34 0 .54.2.58.57H9.5c-.09-.95-.71-1.38-1.6-1.38-1.01 0-1.76.73-1.76 1.83Z"/><path d="M12 1H0v10h12V1Zm-1.38 1.43v7.14H1.38V2.43h9.25Z"/></svg>