<svg xmlns="http://www.w3.org/2000/svg" fill="#1652F0" viewBox="0 0 12 12"><path d="M1.87 5.12a.95.95 0 0 1 .77-.1.7.7 0 0 1 .23.13.6.6 0 0 1 .16.18.8.8 0 0 1 .07.25h.95A1.63 1.63 0 0 0 3.87 5a1.39 1.39 0 0 0-.37-.43 1.6 1.6 0 0 0-.52-.27c-.2-.07-.42-.1-.65-.1-.34 0-.65.08-.93.23-.28.15-.5.36-.66.64C.58 5.35.5 5.7.5 6.1s.08.75.24 1.03c.16.28.38.5.65.64a2 2 0 0 0 .95.23 1.9 1.9 0 0 0 1.23-.42 1.53 1.53 0 0 0 .49-.93H3.1a.81.81 0 0 1-.08.24.73.73 0 0 1-.16.18.82.82 0 0 1-.5.15.8.8 0 0 1-.79-.5 1.53 1.53 0 0 1-.11-.62c0-.25.03-.44.1-.6a.86.86 0 0 1 .31-.38Zm3.75-.86-1.3 3.68h1l.26-.77H6.9l.26.77h1l-1.3-3.68H5.63Zm.18 2.23.43-1.3h.03l.43 1.3H5.8Zm5.62-.02a.87.87 0 0 0-.22-.31 1.3 1.3 0 0 0-.38-.24 2.31 2.31 0 0 0-.5-.15l-.2-.04v-.76c.1.01.2.04.26.09.1.07.16.17.17.3h.9a1 1 0 0 0-.2-.6c-.11-.17-.29-.3-.5-.4-.19-.08-.4-.12-.64-.14V3.8h-.3v.42c-.23.02-.45.05-.63.13-.23.1-.4.23-.54.4a1 1 0 0 0-.19.6c0 .28.1.5.29.67.19.16.45.28.79.36l.27.06v.8a.83.83 0 0 1-.21-.05.55.55 0 0 1-.24-.18.57.57 0 0 1-.1-.3h-.9c0 .3.07.53.2.72.14.2.33.33.57.42.2.08.43.12.69.13v.42h.3v-.42c.26-.02.5-.05.68-.12.23-.1.4-.22.53-.39a1.06 1.06 0 0 0 .1-1Zm-1.67-.84a.83.83 0 0 1-.18-.08.35.35 0 0 1-.11-.11.25.25 0 0 1-.04-.15.3.3 0 0 1 .07-.18c.03-.05.1-.1.18-.13l.14-.03v.7l-.05-.02Zm.74 1.44a.48.48 0 0 1-.21.13l-.16.04V6.5c.07.01.12.03.17.05.09.04.16.08.2.13.04.05.07.11.07.18a.3.3 0 0 1-.07.2Z"/></svg>