<svg xmlns="http://www.w3.org/2000/svg" fill="#1652F0" viewBox="0 0 16 16"><path d="M4.4 12.37c1.99 0 3.35-1.04 3.35-2.62 0-1.65-1.16-2.24-2.57-2.45l-.96-.14c-.77-.11-1.2-.28-1.2-.9 0-.46.38-.9 1.35-.9 1 0 1.4.43 1.4 1.03h1.86c-.02-1.36-1.16-2.5-3.25-2.5-2.02 0-3.21 1.13-3.21 2.53 0 1.56 1.03 2.26 2.49 2.48l1 .15c.82.12 1.22.25 1.22.86 0 .56-.48.98-1.46.98-.97 0-1.56-.39-1.56-1.18H1c0 1.59 1.36 2.66 3.4 2.66Zm7.07.88V2.75h.66v10.5h-.66Zm1.75-7.03a1.04 1.04 0 0 0-.42-.78 1.62 1.62 0 0 0-.99-.27c-.28 0-.52.04-.72.12-.2.08-.34.2-.45.34a.8.8 0 0 0-.15.48c0 .15.02.28.1.4.06.1.16.2.28.28a3.27 3.27 0 0 0 .92.36l.74.18c.36.08.69.2 1 .33.3.14.55.3.77.5.22.2.39.44.51.71.12.27.19.58.19.93 0 .51-.13.96-.39 1.34-.25.37-.61.66-1.09.87-.47.2-1.05.3-1.72.3-.66 0-1.24-.1-1.73-.3-.5-.21-.88-.52-1.15-.93a2.8 2.8 0 0 1-.43-1.52h1.68a1.24 1.24 0 0 0 .81 1.13c.23.1.5.14.8.14a2 2 0 0 0 .77-.13c.22-.09.4-.21.51-.37a.85.85 0 0 0 .18-.53.7.7 0 0 0-.16-.48 1.2 1.2 0 0 0-.48-.33c-.2-.09-.46-.17-.76-.24l-.9-.23A3.73 3.73 0 0 1 9.3 7.7a1.9 1.9 0 0 1-.6-1.48c0-.51.13-.95.4-1.33a2.7 2.7 0 0 1 1.12-.9c.47-.2 1-.31 1.6-.31.62 0 1.15.1 1.6.32a2.39 2.39 0 0 1 1.46 2.21h-1.66Z"/></svg>