<svg xmlns="http://www.w3.org/2000/svg" fill="#1652F0" viewBox="0 0 16 16"><path d="M1 10.86h1.88V7.93l2.93 2.93h2.6l-3.1-3c1.64-.1 2.52-1.03 2.52-2.36C7.83 4.08 6.8 3 4.87 3H1v7.86Zm4.92-5.27c0 .61-.4.95-1.1.95H2.87V4.52H4.8c.71 0 1.1.32 1.1.96v.1Zm2.78-.63V13h1.82v-2.86h.01c.35.53.91.87 1.8.87 1.82 0 2.67-1.51 2.67-3.1 0-1.6-.86-3.1-2.66-3.1-.98 0-1.58.41-1.92 1.05h-.01v-.9H8.7Zm4.47 2.66v.56c0 .9-.58 1.4-1.32 1.4-.75 0-1.33-.52-1.33-1.4v-.56c0-.88.58-1.4 1.33-1.4.74 0 1.32.5 1.32 1.4Z"/></svg>