<svg xmlns="http://www.w3.org/2000/svg" fill="#1652F0" viewBox="0 0 17 16"><path stroke="#1652F0" stroke-width=".35" d="m8.22 4.28.12.12.12-.12 1.73-1.73a2.27 2.27 0 0 1 3.21 3.21L10.38 8.8a2.27 2.27 0 0 1-3.29-.08 26.65 26.65 0 0 1-.1-.09H7l-.14-.15-.3-.28a.79.79 0 1 0-1.1 1.11l.65.65a3.84 3.84 0 0 0 5.38-.05l3.03-3.03a3.84 3.84 0 0 0-5.44-5.43L7.35 3.17l-.12.12.12.13.87.86Zm-.62 7.53-.12-.12-.13.12-1.73 1.73a2.27 2.27 0 1 1-3.2-3.2L5.43 7.3a2.27 2.27 0 0 1 3.05-.15l.08.07.34.34a.79.79 0 0 0 1.12-1.11l-.45-.43a3.84 3.84 0 0 0-5.25.16L1.3 9.22a3.84 3.84 0 1 0 5.44 5.43l1.72-1.72.13-.13-.13-.12-.86-.87Z"/></svg>