<svg xmlns="http://www.w3.org/2000/svg" fill="none" viewBox="0 0 32 32"><path fill="#0A0B0D" d="M7.173 14.787H9a12.323 12.323 0 0 1-.493-3.454c0-4.413 3.546-7.066 8.16-7.066 5.253 0 7.813 2.853 8.066 7.106H19.96c-.347-2.08-1.213-3.133-3.173-3.133-1.854 0-3.134 1.307-3.134 3.333 0 1.147.134 2.214.32 3.227h6.107v3.173h-5.467c.134.827.227 1.734.227 2.654 0 .733-.16 1.373-.387 1.946 1.534.454 2.814 1.094 3.867 1.094 1.373 0 2.24-.614 2.333-2.214h4.614c-.187 3.614-2.24 6.307-6.014 6.307-3.066 0-5.213-1.787-6.853-1.787-1.147 0-1.667.707-1.76 1.507H6.72c.16-2.107 1.213-4.293 3.387-5.027.16-.506.293-1.093.293-1.826 0-.894-.187-1.76-.453-2.654H7.173v-3.186Z"/></svg>