<svg xmlns="http://www.w3.org/2000/svg" fill="#1652F0" viewBox="0 0 24 24"><path d="M21.989 4.995h-20v14h20v-14Zm-13.22 5.136c-.756 0-1.308.564-1.308 1.5v.612c0 .948.552 1.5 1.308 1.5.672 0 1.008-.408 1.104-.828h1.812c-.192 1.428-1.272 2.352-2.904 2.352-2.196 0-3.192-1.572-3.192-3.336 0-1.764.996-3.336 3.192-3.336 1.632 0 2.712.924 2.904 2.364H9.873c-.096-.42-.432-.828-1.104-.828Zm6.644 0c-.756 0-1.308.564-1.308 1.5v.612c0 .948.552 1.5 1.308 1.5.672 0 1.008-.408 1.104-.828h1.812c-.192 1.428-1.272 2.352-2.904 2.352-2.196 0-3.192-1.572-3.192-3.336 0-1.764.996-3.336 3.192-3.336 1.632 0 2.712.924 2.904 2.364h-1.812c-.096-.42-.432-.828-1.104-.828Z"/></svg>