<svg xmlns="http://www.w3.org/2000/svg" fill="none" viewBox="0 0 8 8"><path fill="#0A0B0D" d="M1.667 4.014v-.028c0-.734.5-1.22 1.168-1.22.596 0 1.013.286 1.068.92h-.678c-.023-.243-.151-.376-.385-.376-.293 0-.481.238-.481.676v.028c0 .429.174.677.49.677.23 0 .394-.13.426-.391h.656c-.046.62-.477.938-1.068.938-.802-.01-1.196-.495-1.196-1.224ZM4.1 3.986v.028c0 .729.4 1.215 1.197 1.224.591 0 1.022-.319 1.068-.938h-.656c-.032.262-.197.39-.426.39-.316 0-.49-.247-.49-.676v-.028c0-.438.188-.676.481-.676.23 0 .362.133.385.376h.678c-.055-.634-.472-.92-1.068-.92-.669 0-1.168.486-1.168 1.22Z"/><path fill="#0A0B0D" d="M8 .667H0v6.666h8V.667Zm-.917.952v4.762H.917V1.619h6.166Z"/></svg>