<svg xmlns="http://www.w3.org/2000/svg" fill="none" viewBox="0 0 8 8"><path fill="#0A0B0D" d="M4.333 4.654c.051.707.53 1.242 1.645 1.31h.003v.703h.457v-.703C7.457 5.9 8 5.36 8 4.686c0-.782-.594-1.063-1.562-1.192V2.486c.342.056.503.237.562.53h.92c-.079-.727-.608-1.109-1.485-1.177v-.506h-.457v.504c-.922.056-1.516.534-1.516 1.181 0 .743.49 1.069 1.516 1.21v1.084c-.51-.068-.645-.333-.69-.658h-.955Zm1.645-2.177v.949c-.475-.085-.586-.225-.586-.483 0-.237.207-.422.586-.466Zm.46 2.833V4.286c.476.091.605.225.608.494 0 .277-.234.474-.608.53ZM1.016 6H0V2h2.088c1.04 0 1.592.551 1.592 1.273 0 .676-.47 1.147-1.354 1.204L4 6H2.596l-1.58-1.49V6Zm1.04-2.2c.383 0 .596-.17.596-.483V3.26c0-.324-.213-.488-.596-.488h-1.04V3.8h1.04Z"/></svg>