<svg xmlns="http://www.w3.org/2000/svg" fill="#1652F0" viewBox="0 0 16 16"><path d="M5.06 11.57a2.95 2.95 0 0 0 2.67.24c.3-.13.54-.3.72-.52.19-.21.33-.43.43-.64h.1v1.25h2.13V3.57H12V2.29h-.89V1.5H8.95v.8H6.93v1.27h2.02V5.4h-.07c-.1-.21-.23-.42-.41-.64a2.1 2.1 0 0 0-.71-.55 2.95 2.95 0 0 0-3.82 1.56c-.3.6-.44 1.33-.44 2.23 0 .87.14 1.6.42 2.2.28.6.66 1.05 1.14 1.36Zm3.18-1.55c-.24.19-.54.28-.89.28s-.65-.1-.9-.29c-.24-.2-.42-.46-.55-.8A3.54 3.54 0 0 1 5.71 8c0-.45.06-.85.19-1.19.12-.34.31-.6.55-.8.25-.2.55-.3.9-.3s.65.1.9.29c.24.18.42.45.55.79.13.34.2.74.2 1.2 0 .47-.07.88-.2 1.22a1.8 1.8 0 0 1-.56.8Zm2.6 4.48v-1.64H4v1.64h6.84Z"/></svg>