<svg xmlns="http://www.w3.org/2000/svg" fill="#1652F0" viewBox="0 0 24 24"><path d="M4.14 15.657 3.784 3h2.375l.356 12.657H4.14ZM4.038 21l-.288-1.21a16.639 16.639 0 0 0 1.527-.329l-.17.432c-.294-.103-.577-.31-.848-.622-.26-.3-.39-.646-.39-1.038 0-.415.09-.749.271-1.003.181-.253.413-.438.696-.553.282-.115.576-.173.882-.173.17 0 .328.012.475.035.158.023.3.057.424.104l-.136 1.245-.34-.07a1.875 1.875 0 0 0-.373-.034.67.67 0 0 0-.407.138.479.479 0 0 0-.17.363.75.75 0 0 0 .204.519c.136.15.294.265.475.346.192.092.35.144.475.155l-.933.104c.306-.08.594-.167.865-.26.272-.08.526-.166.764-.259l.339 1.159a18.23 18.23 0 0 1-1 .329 15.63 15.63 0 0 1-1.171.345c-.396.104-.786.196-1.17.277Zm5.741-5.17c.967 0 1.764-.813 1.764-1.798 0-.986-.797-1.799-1.764-1.799s-1.764.813-1.764 1.799c0 .985.797 1.798 1.764 1.798Zm2.957-.865.83-2.195c.42.184.82.322 1.205.414a4.9 4.9 0 0 0 1.154.139c.395 0 .723-.035.983-.104.272-.08.475-.196.611-.346a.771.771 0 0 0 .204-.536c0-.196-.063-.467-.187-.813-.113-.345-.322-.795-.628-1.348-.305-.565-.752-1.262-1.34-2.092l2.019-1.366a22.6 22.6 0 0 1 1.408 2.3c.396.737.7 1.429.916 2.074.226.634.339 1.193.339 1.678 0 .599-.158 1.123-.475 1.573-.305.438-.763.784-1.374 1.037-.6.254-1.34.38-2.222.38a7.94 7.94 0 0 1-1.102-.086 9.878 9.878 0 0 1-1.239-.259 5.041 5.041 0 0 1-1.102-.45Z"/></svg>