<svg xmlns="http://www.w3.org/2000/svg" fill="none" viewBox="0 0 8 8"><path fill="#0A0B0D" d="M.667 5.429h.897V3.967l1.395 1.462H4.2L2.722 3.933c.78-.056 1.196-.519 1.196-1.183 0-.709-.487-1.25-1.406-1.25H.667v3.929Zm2.342-2.634c0 .307-.188.474-.526.474h-.92v-1.01h.92c.338 0 .526.162.526.48v.056Zm1.323-.313V6.5h.87V5.071h.005c.166.263.432.436.858.436.864 0 1.268-.76 1.268-1.552 0-.803-.41-1.551-1.268-1.551-.465 0-.753.206-.914.525h-.005v-.447h-.814ZM6.464 3.81v.28c0 .451-.277.697-.631.697-.355 0-.632-.257-.632-.698V3.81c0-.44.277-.697.632-.697.354 0 .63.245.63.697Z"/></svg>