<svg xmlns="http://www.w3.org/2000/svg" fill="none" viewBox="0 0 8 8"><path fill="#0A0B0D" d="M1.793 3.693h.454a3.043 3.043 0 0 1-.12-.86c0-1.106.886-1.766 2.04-1.766 1.313 0 1.953.713 2.013 1.773H4.993c-.093-.52-.306-.787-.793-.787-.467 0-.787.327-.787.834 0 .286.034.553.08.806H5.02v.794H3.653c.034.206.054.433.054.666 0 .187-.04.347-.094.487.387.113.707.273.974.273.346 0 .56-.153.586-.553h1.154c-.054.9-.567 1.573-1.514 1.573-.766 0-1.306-.446-1.713-.446-.287 0-.413.173-.44.373h-.98c.04-.527.307-1.067.847-1.253.04-.127.073-.274.073-.454 0-.226-.047-.44-.113-.666h-.694v-.794Z"/></svg>