<svg xmlns="http://www.w3.org/2000/svg" fill="none" viewBox="0 0 8 8"><path fill="#0A0B0D" d="M3.767 6.793c-1.38-.1-1.974-.86-2.04-1.866h1.186c.054.466.22.84.854.933V4.32c-1.274-.2-1.88-.667-1.88-1.72 0-.92.733-1.6 1.88-1.68V.207h.566v.72c1.087.1 1.747.64 1.84 1.673h-1.14c-.073-.413-.273-.673-.7-.753V3.28c1.2.187 1.934.587 1.934 1.693 0 .96-.674 1.727-1.934 1.814v1h-.566v-.994Zm0-3.606V1.833c-.474.067-.727.327-.727.667 0 .367.133.567.727.687Zm.566 1.22V5.86c.467-.08.754-.36.754-.753 0-.38-.16-.574-.754-.7Z"/></svg>