<svg xmlns="http://www.w3.org/2000/svg" fill="#1652F0" viewBox="0 0 16 16"><path d="M7.659 13.4 4.8 8.408v-.665h.333c.806 0 1.422-.116 1.845-.348.434-.232.686-.65.756-1.256H4.8v-.968h2.92c-.102-.564-.369-.973-.802-1.225-.424-.252-1.019-.378-1.785-.378H4.8V2.6h6.262v.968H8.203c.484.393.772.928.863 1.603h1.996v.968H9.096c-.07.737-.353 1.311-.847 1.725-.484.403-1.13.66-1.936.771L9.202 13.4H7.659Z"/><path d="M7.427 13.8 4.4 8.515V7.343h.733c.78 0 1.315-.114 1.653-.299l.003-.002a.945.945 0 0 0 .44-.503H4.4V4.771h2.773a1.154 1.154 0 0 0-.456-.479l-.004-.002c-.336-.2-.85-.322-1.58-.322H4.4V2.2h7.062v1.768H9.074c.146.244.253.512.323.803h2.065V6.54h-2.02c-.13.662-.438 1.214-.937 1.632-.424.353-.946.6-1.552.75L9.912 13.8H7.427ZM6.313 8.635c.146-.02.287-.045.422-.074.613-.135 1.117-.367 1.514-.697.494-.414.776-.988.847-1.725h1.966v-.968H9.066a2.499 2.499 0 0 0-.474-1.203 2.327 2.327 0 0 0-.389-.4h2.86V2.6H4.8v.968h.333c.766 0 1.361.126 1.785.378.323.188.554.463.692.825.047.124.084.257.11.4H4.8v.968h2.934a2.286 2.286 0 0 1-.08.4c-.12.394-.345.68-.676.856-.423.232-1.039.348-1.845.348H4.8v.665L7.659 13.4h1.543l-2.89-4.765Z"/></svg>