<svg xmlns="http://www.w3.org/2000/svg" fill="none" viewBox="0 0 12 12"><path fill="#1652F0" d="M7.803 1.888C7.357 1.696 6.8 1.6 6.133 1.6V.5h-.727v1.1H2.5v8.8h2.906v1.1h.727v-1.1h.244c.679 0 1.25-.106 1.714-.318.464-.212.814-.5 1.05-.864.24-.366.359-.783.359-1.25 0-.433-.095-.805-.284-1.117a2.078 2.078 0 0 0-1.71-1.018v-.087c.316-.068.597-.184.842-.348a1.8 1.8 0 0 0 .585-.635c.142-.261.213-.563.213-.907 0-.441-.113-.83-.337-1.169-.225-.34-.56-.607-1.006-.8Zm-1.67 6.988V6.544c.262.01.491.063.687.156.224.106.397.252.518.439.121.186.182.4.182.644a.98.98 0 0 1-.368.8c-.222.178-.561.276-1.02.293Zm0-3.614V3.117c.303.033.545.126.726.28.234.194.35.45.35.768a.99.99 0 0 1-.181.598 1.15 1.15 0 0 1-.487.386 1.553 1.553 0 0 1-.408.113Zm-.727-2.158v2.178h-.988V3.104h.988Zm0 3.437V8.88h-.988V6.54h.988Z"/></svg>