<svg xmlns="http://www.w3.org/2000/svg" fill="none" viewBox="0 0 32 32"><path fill="#0A0B0D" d="M6 16.057v-.114c0-2.933 2.09-4.876 4.887-4.876 2.492 0 4.236 1.143 4.466 3.676h-2.836c-.096-.971-.633-1.505-1.61-1.505-1.227 0-2.013.953-2.013 2.705v.114c0 1.715.729 2.705 2.051 2.705.958 0 1.648-.514 1.782-1.562h2.741c-.191 2.476-1.993 3.753-4.466 3.753C7.648 20.915 6 18.972 6 16.057Zm10.532-.114v.114c0 2.915 1.667 4.858 5.002 4.896 2.473 0 4.274-1.277 4.466-3.753h-2.74c-.135 1.048-.825 1.562-1.783 1.562-1.323 0-2.051-.99-2.051-2.705v-.114c0-1.752.786-2.705 2.012-2.705.959 0 1.515.534 1.61 1.505h2.837c-.23-2.533-1.974-3.676-4.466-3.676-2.798 0-4.887 1.943-4.887 4.876Z"/><path fill="#0A0B0D" d="M32 2.667H0v26.666h32V2.667Zm-3.833 3.81v19.047H3.833V6.476h24.334Z"/></svg>