<svg xmlns="http://www.w3.org/2000/svg" fill="#1652F0" viewBox="0 0 24 24"><path d="M11.74 20 7.5 12.6v-.98H8c1.19 0 2.1-.17 2.73-.52.64-.34 1.01-.96 1.12-1.86H7.5V7.81h4.32a2.48 2.48 0 0 0-1.18-1.82 5.2 5.2 0 0 0-2.65-.56H7.5V4h9.28v1.43h-4.24a3.54 3.54 0 0 1 1.28 2.38h2.96v1.43h-2.92a3.63 3.63 0 0 1-1.25 2.56 5.5 5.5 0 0 1-2.87 1.14L14.02 20h-2.28Z"/><path d="M11.45 20.5 7 12.74v-1.62h1c1.15 0 1.97-.17 2.49-.45.34-.19.6-.48.74-.93H7V7.31h4.16a1.8 1.8 0 0 0-.77-.88c-.53-.31-1.3-.5-2.4-.5H7V3.5h10.28v2.43h-3.62c.27.41.46.87.58 1.38h3.04v2.43H14.3a4 4 0 0 1-1.37 2.44c-.65.54-1.45.9-2.38 1.12l4.36 7.2h-3.46Zm-1.7-7.56a5.23 5.23 0 0 0 2.87-1.14 3.63 3.63 0 0 0 1.24-2.56h2.92V7.81h-2.96a3.67 3.67 0 0 0-1.28-2.38h4.24V4H7.5v1.43H8a5.2 5.2 0 0 1 2.64.56c.5.3.86.74 1.06 1.32.05.16.1.32.12.5H7.5v1.43h4.35c-.02.18-.05.35-.1.5a2.06 2.06 0 0 1-1.02 1.36 5.8 5.8 0 0 1-2.74.52H7.5v.99L11.74 20h2.28l-4.28-7.06Z"/></svg>