<svg xmlns="http://www.w3.org/2000/svg" fill="#1652F0" viewBox="0 0 24 24"><path d="M6.28 18.247c2.904 0 4.884-1.485 4.884-3.745 0-2.36-1.683-3.201-3.745-3.498l-1.403-.198c-1.122-.165-1.732-.412-1.732-1.287 0-.66.544-1.287 1.963-1.287 1.452 0 2.046.61 2.046 1.469h2.706c-.033-1.948-1.7-3.581-4.736-3.581-2.953 0-4.686 1.617-4.686 3.63 0 2.227 1.502 3.217 3.63 3.531l1.453.214c1.204.182 1.781.364 1.781 1.238 0 .792-.693 1.402-2.128 1.402-1.419 0-2.277-.56-2.277-1.699H1.33c0 2.277 1.98 3.811 4.95 3.811ZM16.59 19.5v-15h.961v15h-.96Zm2.55-10.049c-.048-.472-.249-.84-.604-1.101-.356-.262-.838-.393-1.448-.393-.414 0-.763.059-1.048.176a1.476 1.476 0 0 0-.657.474 1.143 1.143 0 0 0-.222.692.988.988 0 0 0 .134.562c.102.16.24.3.416.416.176.114.38.213.61.3.23.081.476.152.738.21l1.078.258a7.607 7.607 0 0 1 1.442.469c.437.195.816.435 1.136.72.32.286.569.621.744 1.008.18.387.272.83.276 1.33-.004.735-.191 1.371-.563 1.91-.367.536-.898.952-1.593 1.248-.692.293-1.526.44-2.502.44-.97 0-1.813-.149-2.532-.445-.714-.297-1.273-.737-1.675-1.319-.399-.586-.608-1.31-.627-2.174h2.455c.027.403.142.739.345 1.008.208.266.483.467.827.604.347.133.74.199 1.177.199.43 0 .803-.063 1.12-.188.32-.125.568-.298.744-.521a1.21 1.21 0 0 0 .263-.768c0-.27-.08-.496-.24-.68-.156-.183-.387-.34-.691-.468a7.073 7.073 0 0 0-1.108-.352l-1.306-.328c-1.012-.246-1.81-.63-2.397-1.154-.586-.524-.877-1.229-.873-2.115-.004-.727.19-1.362.58-1.905.395-.543.936-.966 1.623-1.271.688-.305 1.469-.457 2.344-.457.89 0 1.668.152 2.332.457.668.305 1.188.728 1.559 1.271.37.543.562 1.172.574 1.887h-2.432Z"/></svg>