<svg xmlns="http://www.w3.org/2000/svg" fill="none" viewBox="0 0 12 12"><path fill="#0A0B0D" d="M9.267 5.728c-.052.122-.112.24-.181.356a2.89 2.89 0 0 1-1.18 1.076c-.51.264-1.13.396-1.857.396H4.43V10.5H2.533V5.728H1.5V4.76h1.033V4.4H1.5v-.967h1.033V1.5h3.52c.727 0 1.347.136 1.858.409a2.878 2.878 0 0 1 1.38 1.525H10.5V4.4H9.494a3.545 3.545 0 0 1-.003.36H10.5v.968H9.267Zm-2.34.092c.045-.03.089-.06.13-.092H4.43v.298h1.618c.363 0 .656-.068.878-.206Zm.63-1.42H4.43v.36h3.122a2.02 2.02 0 0 0 .012-.193c0-.056-.004-.112-.009-.167Zm-.42-.966a1.347 1.347 0 0 0-.21-.167c-.222-.147-.513-.22-.874-.22H4.431v.387h2.706Z"/></svg>