<svg xmlns="http://www.w3.org/2000/svg" fill="#1652F0" viewBox="0 0 12 12"><path d="M10.989 1.995v8h-10v-8h10ZM4.255 5.151c.336 0 .504.204.552.414h.906c-.096-.726-.636-1.194-1.452-1.194-1.098 0-1.596.804-1.596 1.704 0 .9.498 1.704 1.596 1.704.816 0 1.356-.468 1.452-1.188h-.906c-.048.21-.216.414-.552.414-.378 0-.654-.282-.654-.774v-.306c0-.486.276-.774.654-.774Zm3.574 0c.336 0 .504.204.552.414h.906c-.096-.726-.636-1.194-1.452-1.194-1.098 0-1.596.804-1.596 1.704 0 .9.498 1.704 1.596 1.704.816 0 1.356-.468 1.452-1.188h-.906c-.048.21-.216.414-.552.414-.378 0-.654-.282-.654-.774v-.306c0-.486.276-.774.654-.774Z"/></svg>