<svg xmlns="http://www.w3.org/2000/svg" fill="none" viewBox="0 0 16 16"><path fill="#1652F0" d="M11.957 11.91c-2.231-.135-3.188-1.204-3.29-2.62h1.908c.092.652.36 1.182 1.382 1.318v-2.17c-2.054-.281-3.032-.933-3.032-2.418 0-1.294 1.188-2.25 3.032-2.362V2.65h.914v1.012c1.753.136 2.812.9 2.968 2.353H14c-.118-.586-.44-.947-1.124-1.06v2.016C14.812 7.229 16 7.79 16 9.356c0 1.35-1.086 2.428-3.124 2.555v1.405h-.914v-1.405h-.005Zm0-5.075V4.937c-.758.089-1.172.46-1.172.933 0 .515.22.796 1.172.965Zm.92 1.72v2.048c.747-.112 1.214-.506 1.214-1.06-.005-.538-.263-.805-1.215-.988ZM8.544 12H6.468l-.528-1.524H2.544L2.028 12H.024l3.132-8.448h2.256L8.544 12ZM4.236 5.592h-.024L3.12 8.796h2.232L4.236 5.592Z"/></svg>