<svg xmlns="http://www.w3.org/2000/svg" fill="#1652F0" viewBox="0 0 16 16"><path d="M12.98 5.558V4.04h-1.356a3.362 3.362 0 0 0-1.364-1.736c-.712-.463-1.667-.678-2.832-.678H4.476V4.04h-1.48v1.518h1.48v.913h-1.48V7.99h1.48v6.375h2.01v-3.96h.653c.817 0 1.529-.106 2.126-.325l.005-.002c.589-.228 1.08-.54 1.467-.938a3.8 3.8 0 0 0 .77-1.15h1.474V6.471h-1.1c.03-.303.044-.61.013-.913h1.087Zm-3.193.913h-3.3v-.913h3.31c.008.305.023.617-.01.913ZM7.054 8.545h-.567V7.99h2.619a1.747 1.747 0 0 1-.5.307c-.395.161-.908.25-1.552.25Zm1.688-4.802c.165.08.31.18.435.297h-2.69v-.556h.89c.57 0 1.021.092 1.365.259Z"/></svg>