<svg xmlns="http://www.w3.org/2000/svg" fill="#1652F0" viewBox="0 0 16 16"><path d="M4.245 2.914V13.37h2.59v1.806h2.042V13.37c.953-.009 1.8-.287 2.417-.818.633-.544.999-1.332.999-2.296 0-.686-.206-1.263-.579-1.712a2.651 2.651 0 0 0-.818-.652 2.319 2.319 0 0 0 1.103-2.018c0-.908-.35-1.659-.96-2.178-.555-.472-1.307-.736-2.162-.776V1.094H6.835v1.82h-2.59Zm5.404 3.03v.14c0 .303-.098.522-.255.668-.158.148-.41.25-.775.25H6.595v-1.99h2.024c.364 0 .616.103.775.252.156.146.255.369.255.68Zm.28 4.116v.14c0 .325-.106.577-.287.749-.182.173-.472.295-.897.295h-2.15V8.96h2.122c.423 0 .72.115.91.29.185.171.302.435.302.81Z"/></svg>