<svg xmlns="http://www.w3.org/2000/svg" fill="none" viewBox="0 0 8 8"><path fill="#0A0B0D" d="M6.178 3.818c-.035.082-.075.16-.12.238-.182.3-.444.54-.787.717-.341.176-.754.264-1.238.264h-1.08V7H1.69V3.818H1v-.644h.689v-.24H1v-.645h.689V1h2.346c.485 0 .898.09 1.239.272a1.919 1.919 0 0 1 .92 1.017H7v.645h-.67a2.353 2.353 0 0 1-.003.24H7v.644h-.822Zm-1.56.062c.03-.02.06-.04.086-.062h-1.75v.2h1.079c.242 0 .437-.046.585-.138Zm.42-.946H2.953v.24h2.081a1.247 1.247 0 0 0 .002-.24Zm-.28-.645a.898.898 0 0 0-.14-.111c-.148-.098-.342-.147-.583-.147H2.954v.258h1.804Z"/></svg>