<svg xmlns="http://www.w3.org/2000/svg" fill="none" viewBox="0 0 32 32"><path fill="#0A0B0D" d="M23.914 23.855c-4.462-.272-6.376-2.41-6.58-5.24h3.817c.182 1.303.72 2.362 2.763 2.634v-4.34c-4.108-.562-6.065-1.865-6.065-4.836 0-2.587 2.377-4.5 6.065-4.725V5.333h1.828v2.025c3.505.272 5.624 1.8 5.935 4.705H28c-.237-1.171-.882-1.893-2.247-2.118v4.03c3.87.516 6.247 1.64 6.247 4.771 0 2.7-2.172 4.856-6.247 5.109v2.812h-1.828v-2.812h-.011Zm0-10.152V9.908c-1.516.178-2.344.919-2.344 1.866 0 1.03.44 1.593 2.344 1.93Zm1.839 3.44v4.096c1.494-.224 2.43-1.012 2.43-2.118-.011-1.078-.527-1.612-2.43-1.978ZM0 24h4.063v-5.955L10.383 24H16l-6.696-6.091c3.536-.227 5.417-2.114 5.417-4.818 0-2.886-2.207-5.091-6.37-5.091H0v16Zm10.608-10.727c0 1.25-.853 1.931-2.382 1.931H4.063v-4.113h4.163c1.53 0 2.382.659 2.382 1.954v.228Z"/></svg>