<svg xmlns="http://www.w3.org/2000/svg" fill="#1652F0" viewBox="0 0 16 16"><path d="M3.988 1.162H2.353l.272 9.727h1.636l-.273-9.727Zm8.044 3.256-.168-.231-1.382.901.18.255c.492.695.85 1.25 1.081 1.67l.001.003c.235.42.374.734.432.953l.004.012c.072.232.101.408.101.537a.7.7 0 0 1-.124.416l-.002.003c-.062.09-.18.183-.397.255l-.003.001c-.202.07-.501.112-.912.112a3.103 3.103 0 0 1-1.626-.425l-.265-.172-.802 1.384.21.16c.202.154.432.285.69.396l.009.003c.258.102.537.18.836.233h.001c.308.055.623.082.947.082.73 0 1.338-.105 1.798-.34.441-.225.778-.523.984-.904l.002-.003c.191-.364.29-.744.29-1.137 0-.313-.068-.667-.192-1.058-.119-.41-.32-.872-.598-1.384a14.408 14.408 0 0 0-1.095-1.722ZM6.448 8.64c-.664 0-1.182.518-1.182 1.182 0 .664.518 1.182 1.182 1.182.665 0 1.182-.518 1.182-1.182 0-.664-.517-1.182-1.182-1.182Zm-4.33 3.969c0 .317.1.606.291.857l-.348.08.285 1.282.298-.075c.241-.06.503-.129.786-.206a23.864 23.864 0 0 0 1.586-.494l.266-.1-.384-1.223-.295.109a8.834 8.834 0 0 1-.53.172l-.008.002-.007.003a6.726 6.726 0 0 1-.2.066 1.46 1.46 0 0 1-.053-.026l-.006-.003a.994.994 0 0 1-.301-.223.38.38 0 0 1-.09-.26c0-.052.014-.078.043-.102a.54.54 0 0 1 .284-.058c.076 0 .139.007.19.019.08.017.162.035.25.052l.305.061.191-1.191-.233-.085a1.912 1.912 0 0 0-.362-.091 1.978 1.978 0 0 0-1.109.122l-.004.001a1.49 1.49 0 0 0-.606.479l-.005.007-.004.006c-.158.237-.23.515-.23.819Zm1.96-1.434h-.004.004Z"/></svg>