<svg xmlns="http://www.w3.org/2000/svg" fill="#1652F0" viewBox="0 0 24 24"><path fill-rule="evenodd" d="M10.361 5.073 12.2 6.91l2.828-2.828a3.199 3.199 0 0 1 4.524 4.524l-4.453 4.454a3.199 3.199 0 0 1-4.524 0c-.294-.294-.59-.587-.883-.883a1.3 1.3 0 1 0-1.837 1.839l.955.953.005.005a5.798 5.798 0 0 0 8.122-.076l4.453-4.454a5.798 5.798 0 1 0-8.2-8.2l-2.828 2.828Z" clip-rule="evenodd"/><path fill-rule="evenodd" d="m12.765 19.07-1.838-1.839L8.1 20.06a3.199 3.199 0 0 1-4.523-4.524l4.453-4.454a3.2 3.2 0 0 1 4.294-.208l.62.599a1.3 1.3 0 0 0 1.838-1.839l-.636-.636-.003.003c-2.274-1.971-5.782-1.926-7.951.243l-4.454 4.454a5.798 5.798 0 0 0 8.2 8.2l2.828-2.828Z" clip-rule="evenodd"/></svg>