<svg xmlns="http://www.w3.org/2000/svg" fill="#1652F0" viewBox="0 0 24 24"><path d="M4.14 15.66 3.78 3h2.38l.35 12.66H4.14ZM4.04 21l-.29-1.21a15.77 15.77 0 0 0 1.53-.33l-.17.43c-.3-.1-.58-.3-.85-.62-.26-.3-.4-.64-.4-1.04 0-.41.1-.75.28-1 .18-.25.41-.44.7-.55.28-.12.57-.18.88-.18a3.08 3.08 0 0 1 .9.14l-.14 1.25-.34-.07a1.88 1.88 0 0 0-.37-.04.67.67 0 0 0-.4.14.48.48 0 0 0-.18.37c0 .2.07.36.2.51.14.15.3.27.48.35.2.1.35.14.48.16l-.94.1a13.1 13.1 0 0 0 1.63-.52l.34 1.16-1 .33a24.25 24.25 0 0 1-2.34.62Zm5.74-5.17a1.8 1.8 0 0 0 1.76-1.8c0-.98-.8-1.8-1.76-1.8A1.8 1.8 0 0 0 8 14.03c0 .99.8 1.8 1.77 1.8Zm2.96-.86.83-2.2c.42.18.82.32 1.2.41a4.93 4.93 0 0 0 2.14.04c.27-.08.47-.2.6-.35.14-.15.21-.33.21-.53s-.06-.47-.18-.82c-.12-.34-.33-.8-.63-1.34-.3-.57-.75-1.27-1.34-2.1l2.02-1.36a22.6 22.6 0 0 1 1.4 2.3c.4.74.7 1.43.92 2.07.23.64.34 1.2.34 1.68 0 .6-.16 1.12-.47 1.57-.31.44-.77.79-1.38 1.04-.6.25-1.34.38-2.22.38a9.88 9.88 0 0 1-2.34-.35c-.4-.11-.78-.26-1.1-.44Z"/></svg>