<svg xmlns="http://www.w3.org/2000/svg" fill="none" viewBox="0 0 8 8"><path fill="#0A0B0D" d="M1.142 5.355 1.012.667h.864l.13 4.688h-.864Zm-.037 1.978L1 6.885c.141-.025.247-.046.317-.063a.98.98 0 0 1-.132-.129.575.575 0 0 1-.142-.384c0-.154.033-.278.099-.372a.571.571 0 0 1 .253-.205.828.828 0 0 1 .32-.064c.062 0 .12.005.173.013a.748.748 0 0 1 .154.039l-.049.46-.123-.025a.668.668 0 0 0-.136-.013.24.24 0 0 0-.148.051.179.179 0 0 0-.062.135.28.28 0 0 0 .074.192c.05.056.107.098.173.128.022.011.044.02.063.028a4.25 4.25 0 0 0 .085-.028c.099-.03.191-.062.278-.096l.123.43a6.362 6.362 0 0 1-.364.12c-.136.048-.278.09-.426.129a8.702 8.702 0 0 1-.425.102Zm2.087-1.914a.658.658 0 0 0 .642-.666.658.658 0 0 0-.642-.666.658.658 0 0 0-.641.666c0 .365.29.666.641.666ZM4.57 4.285l-.302.813c.119.069.252.124.4.167.153.043.303.075.45.096.149.021.282.032.402.032.32 0 .59-.047.808-.14.222-.095.388-.223.5-.385A1 1 0 0 0 7 4.285c0-.18-.041-.386-.123-.621a4.994 4.994 0 0 0-.333-.769 8.395 8.395 0 0 0-.512-.851l-.734.506c.213.307.376.565.487.774.11.205.187.372.228.5a.976.976 0 0 1 .068.301.289.289 0 0 1-.074.198.473.473 0 0 1-.222.129 1.761 1.761 0 0 1-.777-.013 2.553 2.553 0 0 1-.438-.154Z"/></svg>