<svg xmlns="http://www.w3.org/2000/svg" fill="#1652F0" viewBox="0 0 16 16"><path d="M2.37 6.86a1.26 1.26 0 0 1 1.05-.13.85.85 0 0 1 .52.44c.06.1.1.22.11.35h1.29a2.37 2.37 0 0 0-.24-.83 2.04 2.04 0 0 0-1.22-1c-.27-.1-.57-.13-.88-.13-.47 0-.9.1-1.27.31-.39.21-.68.51-.9.9A3 3 0 0 0 .5 8.25c0 .57.11 1.05.33 1.45.22.4.51.7.89.91.37.21.8.31 1.28.31.37 0 .69-.05.97-.16s.52-.25.71-.44a2.15 2.15 0 0 0 .67-1.3H4.06c-.02.13-.06.24-.11.34-.06.1-.14.18-.22.25-.09.07-.2.12-.3.16a1.6 1.6 0 0 1-.39.05c-.25 0-.46-.06-.65-.17a1.1 1.1 0 0 1-.42-.53c-.1-.23-.15-.52-.15-.87s.04-.62.14-.85c.1-.23.25-.41.42-.53Zm5.11-1.22L5.7 10.86h1.37l.35-1.1h1.82l.35 1.1h1.37L9.18 5.64h-1.7Zm.25 3.16.58-1.85h.04l.59 1.85H7.73Zm7.67-.02a1.23 1.23 0 0 0-.31-.45 1.8 1.8 0 0 0-.51-.33c-.2-.09-.43-.17-.7-.22l-.26-.06V6.65c.14.02.27.06.36.13.14.1.2.25.23.43h1.22a1.53 1.53 0 0 0-.96-1.42 2.46 2.46 0 0 0-.86-.2V5h-.42v.6c-.31.02-.6.07-.85.18-.31.14-.56.33-.73.57-.17.24-.27.53-.27.84 0 .4.13.71.4.95.26.23.61.4 1.07.5l.38.09v1.14a1.1 1.1 0 0 1-.3-.08.76.76 0 0 1-.33-.25.83.83 0 0 1-.14-.42H11.2a1.62 1.62 0 0 0 1.05 1.6c.27.12.6.17.94.18v.6h.43v-.6c.35-.02.65-.06.91-.17.31-.12.56-.3.72-.54.16-.23.25-.52.25-.85 0-.2-.04-.4-.1-.56Zm-2.28-1.2a1.1 1.1 0 0 1-.25-.11.49.49 0 0 1-.16-.16.36.36 0 0 1-.04-.2c0-.1.03-.18.08-.26a.57.57 0 0 1 .25-.18.88.88 0 0 1 .2-.04v.98l-.08-.02Zm1 2.04a.65.65 0 0 1-.29.19l-.2.05V8.82l.22.08a.7.7 0 0 1 .27.18c.06.08.1.16.1.26s-.04.2-.1.28Z"/></svg>