<svg xmlns="http://www.w3.org/2000/svg" fill="#1652F0" viewBox="0 0 24 24"><path stroke="#1652F0" stroke-width=".4" d="m12.06 6.49.14.14.14-.14 2.55-2.55a3.4 3.4 0 1 1 4.8 4.8l-4.45 4.46a3.4 3.4 0 0 1-4.8 0l-.12-.1a3.1 3.1 0 0 1-.14-.14l-.04-.05-.59-.59a1.1 1.1 0 0 0-1.56 1.56l.96.95a5.6 5.6 0 0 0 7.84-.07l4.46-4.46a5.6 5.6 0 0 0-7.92-7.91L10.8 4.93l-.15.14.15.14 1.27 1.28Zm-1 11.17-.13-.15-.14.15-2.55 2.54a3.4 3.4 0 0 1-4.8-4.8l4.45-4.46a3.4 3.4 0 0 1 4.56-.22l.13.1.5.51a1.1 1.1 0 1 0 1.56-1.55l-.59-.6-.05-.04a5.67 5.67 0 0 0-7.67.24l-4.45 4.46a5.6 5.6 0 1 0 7.92 7.92l2.54-2.55.14-.14-.14-.14-1.27-1.27Z"/></svg>