<svg xmlns="http://www.w3.org/2000/svg" fill="none" viewBox="0 0 32 32"><path fill="#0A0B0D" d="M.667 22.476h4.126v-6.628l6.42 6.628h5.706l-6.802-6.78c3.592-.252 5.502-2.352 5.502-5.363 0-3.212-2.241-5.666-6.47-5.666H.667v17.81Zm10.775-11.94c0 1.391-.866 2.15-2.42 2.15H4.793V8.107h4.229c1.554 0 2.42.734 2.42 2.176v.253Zm6.085-1.416h3.744v2.023h.026C22.036 9.7 23.36 8.765 25.5 8.765c3.948 0 5.833 3.39 5.833 7.033 0 3.592-1.86 7.032-5.833 7.032-1.962 0-3.184-.784-3.948-1.973h-.026v6.476h-4V9.12Zm9.807 6.02c0-2.05-1.274-3.162-2.904-3.162s-2.904 1.163-2.904 3.162v1.265c0 1.998 1.274 3.162 2.904 3.162s2.904-1.113 2.904-3.162V15.14Z"/></svg>