<svg xmlns="http://www.w3.org/2000/svg" fill="#1652F0" viewBox="0 0 12 12"><path d="M3.3 9.33c1.5 0 2.51-.79 2.51-2 0-1.25-.87-1.7-1.93-1.86l-.72-.1c-.58-.1-.89-.23-.89-.7 0-.35.28-.68 1.01-.68.75 0 1.05.33 1.05.78h1.4c-.02-1.03-.88-1.9-2.44-1.9-1.52 0-2.41.86-2.41 1.93 0 1.19.77 1.72 1.87 1.88l.74.12c.62.1.92.2.92.66 0 .42-.36.75-1.1.75-.73 0-1.17-.3-1.17-.91H.75c0 1.21 1.02 2.03 2.55 2.03Zm5.3.67V2h.5v8h-.5Zm1.31-5.36a.8.8 0 0 0-.3-.59 1.2 1.2 0 0 0-.75-.2c-.21 0-.4.02-.54.09a.76.76 0 0 0-.34.25.62.62 0 0 0-.11.37c0 .11.02.21.07.3.05.08.12.16.21.22l.31.16.38.11.56.14c.27.06.52.15.74.25.23.1.42.23.59.38.16.16.29.34.38.54.1.2.14.45.14.71 0 .4-.1.73-.29 1.02-.19.29-.46.5-.82.67a3.2 3.2 0 0 1-1.29.23c-.5 0-.93-.08-1.3-.24a1.93 1.93 0 0 1-.86-.7 2.2 2.2 0 0 1-.32-1.16h1.26a1 1 0 0 0 .18.54 1 1 0 0 0 .42.32c.18.07.38.1.6.1.23 0 .42-.03.58-.1a.8.8 0 0 0 .39-.27.66.66 0 0 0 .13-.41.54.54 0 0 0-.12-.36.94.94 0 0 0-.36-.25 3.53 3.53 0 0 0-.57-.2l-.67-.17a2.78 2.78 0 0 1-1.23-.61c-.3-.28-.45-.66-.45-1.13 0-.39.1-.73.3-1.02.2-.29.48-.51.83-.67.36-.17.76-.25 1.2-.25.47 0 .87.08 1.2.25.35.16.62.38.81.67.2.3.29.63.3 1.01H9.9Z"/></svg>