<svg xmlns="http://www.w3.org/2000/svg" fill="#1652F0" viewBox="0 0 24 24"><path d="M8.04 17.21a4.36 4.36 0 0 0 3.94.37c.43-.2.78-.46 1.05-.77.28-.31.49-.62.64-.94h.13v1.82h3.14V5.52h1.31V3.66h-1.3V2.5h-3.19v1.16H10.8v1.86h2.97v2.7h-.1a3.8 3.8 0 0 0-.6-.94 3.09 3.09 0 0 0-1.05-.8A4.35 4.35 0 0 0 6.4 8.76 7.39 7.39 0 0 0 5.75 12c0 1.27.2 2.35.61 3.22.42.87.97 1.53 1.68 1.98Zm4.68-2.26c-.36.28-.79.41-1.3.41a2.1 2.1 0 0 1-1.33-.42 2.71 2.71 0 0 1-.81-1.19C9.09 13.25 9 12.65 9 12a5 5 0 0 1 .28-1.74c.18-.5.45-.89.81-1.17.36-.28.8-.42 1.33-.42.51 0 .95.13 1.3.4.36.28.64.66.83 1.16.19.5.28 1.09.28 1.77 0 .67-.1 1.26-.29 1.77-.19.5-.46.9-.82 1.18Zm3.82 6.55v-2.4H6.48v2.4h10.06Z"/></svg>