<svg xmlns="http://www.w3.org/2000/svg" fill="none" viewBox="0 0 8 8"><path fill="#0A0B0D" fill-rule="evenodd" d="M4.333 4.654c.051.708.53 1.242 1.645 1.31h.003v.703h.457v-.703C7.457 5.9 8 5.362 8 4.687c0-.783-.594-1.064-1.562-1.193V2.486c.342.057.503.237.562.53h.92c-.08-.726-.609-1.108-1.486-1.176v-.507h-.457v.504c-.922.057-1.516.535-1.516 1.181 0 .743.49 1.069 1.516 1.21v1.084c-.51-.068-.645-.332-.69-.658h-.955Zm1.645-2.177v.95c-.475-.085-.586-.226-.586-.484 0-.236.207-.421.586-.466Zm.46 2.833V4.286c.476.091.605.225.608.494 0 .277-.234.474-.608.53ZM1.016 6H0V2h2.088c1.04 0 1.592.551 1.592 1.273 0 .676-.47 1.148-1.354 1.204L4 6H2.596l-1.58-1.488V6Zm1.04-2.199c.383 0 .596-.17.596-.483v-.056c0-.324-.213-.49-.596-.49h-1.04v1.03h1.04Z" clip-rule="evenodd"/></svg>