<svg xmlns="http://www.w3.org/2000/svg" fill="#1652F0" viewBox="0 0 24 24"><path stroke="#1652F0" stroke-width=".4" d="m12.058 6.487.142.141.14-.141 2.546-2.545a3.399 3.399 0 1 1 4.806 4.807l-4.453 4.453a3.399 3.399 0 0 1-4.807 0l-.107-.104a3.096 3.096 0 0 1-.141-.14l.002-.002-.045-.045-.59-.591a1.1 1.1 0 0 0-1.556 1.555l.955.954.003.002a5.598 5.598 0 0 0 7.841-.074l4.454-4.453a5.598 5.598 0 0 0-7.918-7.917l-2.544 2.545-.142.14.142.142 1.272 1.273Zm-.99 11.168-.14-.14-.142.14L8.24 20.2a3.399 3.399 0 0 1-4.807-4.806l4.454-4.454a3.4 3.4 0 0 1 4.563-.221l.126.104.507.507a1.1 1.1 0 1 0 1.556-1.555l-.587-.586-.05-.05-.003.003c-2.198-1.895-5.579-1.846-7.668.243L1.88 13.838a5.598 5.598 0 1 0 7.917 7.918l2.545-2.545.141-.142-.141-.141-1.272-1.273Z"/></svg>