<svg xmlns="http://www.w3.org/2000/svg" fill="none" viewBox="0 0 12 12"><path fill="#1652F0" d="M2.69 5.54h.68c-.11-.38-.18-.8-.18-1.29 0-1.66 1.33-2.65 3.06-2.65 1.97 0 2.93 1.07 3.02 2.66H7.49c-.14-.78-.46-1.18-1.19-1.18-.7 0-1.18.49-1.18 1.25 0 .43.05.83.12 1.21h2.29v1.19H5.48c.05.31.08.65.08 1 0 .28-.06.52-.14.73.58.17 1.06.41 1.46.41.52 0 .84-.23.88-.83h1.73c-.08 1.35-.85 2.36-2.27 2.36-1.15 0-1.96-.67-2.57-.67-.43 0-.62.26-.66.56H2.52c.06-.79.46-1.6 1.27-1.88.06-.19.11-.41.11-.68 0-.34-.07-.66-.17-1H2.69V5.54Z"/></svg>