<svg xmlns="http://www.w3.org/2000/svg" fill="none" viewBox="0 0 32 32"><path fill="#0A0B0D" d="M5.52 20.876 5.045 4h3.166l.475 16.876H5.52ZM5.384 28 5 26.386c.528-.092.92-.169 1.176-.23.271-.062.558-.131.86-.208l-.227.576c-.392-.138-.769-.415-1.13-.83-.347-.4-.52-.86-.52-1.383 0-.553.12-.999.361-1.337a2.09 2.09 0 0 1 .927-.738c.377-.153.77-.23 1.176-.23.227 0 .438.015.634.046.21.03.4.077.565.138l-.18 1.66-.453-.092a2.498 2.498 0 0 0-.498-.046.892.892 0 0 0-.542.184.638.638 0 0 0-.227.484 1 1 0 0 0 .272.692c.18.2.392.354.633.461.256.123.467.192.633.208l-1.244.138c.407-.108.792-.223 1.154-.346.362-.107.7-.223 1.018-.346l.452 1.545a23.63 23.63 0 0 1-1.335.438c-.497.17-1.017.323-1.56.461-.528.139-1.048.261-1.56.369Zm7.655-6.893c1.289 0 2.352-1.084 2.352-2.398s-1.063-2.398-2.352-2.398c-1.29 0-2.352 1.084-2.352 2.398s1.063 2.398 2.352 2.398Zm3.942-1.153 1.108-2.928c.558.246 1.093.43 1.606.553a6.576 6.576 0 0 0 1.538.185c.528 0 .965-.046 1.312-.139.361-.107.633-.26.814-.46.18-.2.271-.439.271-.715 0-.262-.083-.623-.249-1.084-.15-.461-.43-1.06-.836-1.798-.408-.753-1.003-1.683-1.787-2.79l2.691-1.821a30.103 30.103 0 0 1 1.877 3.066c.528.984.935 1.906 1.222 2.767.301.845.452 1.59.452 2.236 0 .8-.211 1.498-.633 2.098-.407.584-1.018 1.045-1.832 1.383-.8.338-1.787.507-2.963.507-.437 0-.927-.038-1.47-.115a13.153 13.153 0 0 1-1.65-.346 6.725 6.725 0 0 1-1.47-.6Z"/></svg>