<svg xmlns="http://www.w3.org/2000/svg" fill="#1652F0" viewBox="0 0 16 16"><path d="M3.935 1.218H2.399l.27 9.627h1.535l-.27-9.627Zm8.051 3.235-.14-.193-1.298.847.15.212c.492.696.852 1.254 1.084 1.676l.001.002c.236.42.377.74.437.965l.001.005.002.005c.072.234.103.416.103.552a.75.75 0 0 1-.133.444l-.002.003c-.07.102-.2.2-.422.274l-.003.001c-.21.072-.514.114-.928.114a3.152 3.152 0 0 1-1.653-.432l-.22-.144-.755 1.3.176.134c.197.15.424.28.68.39h.003l.003.002c.255.1.531.177.827.23.306.055.618.081.94.081.726 0 1.324-.104 1.774-.334.435-.221.763-.513.963-.883l.002-.003c.187-.357.284-.729.284-1.113 0-.306-.066-.656-.19-1.044-.117-.406-.317-.864-.594-1.375a14.349 14.349 0 0 0-1.092-1.716ZM6.443 8.696c-.636 0-1.132.495-1.132 1.132 0 .636.496 1.132 1.132 1.132.637 0 1.132-.496 1.132-1.132 0-.637-.495-1.132-1.132-1.132ZM3.73 11.201c-.262 0-.512.049-.748.147H2.98l-.002.002a1.44 1.44 0 0 0-.586.462l-.004.006-.004.006a1.4 1.4 0 0 0-.22.79c0 .332.112.63.329.888l-.136.032-.242.056.263 1.183.25-.063c.24-.06.502-.129.784-.206a23.973 23.973 0 0 0 1.582-.492l.221-.084-.354-1.128-.246.091a8.096 8.096 0 0 1-.533.174l-.006.001-.006.002a7.095 7.095 0 0 1-.22.073 1.6 1.6 0 0 1-.072-.034l-.003-.002-.003-.001a1.044 1.044 0 0 1-.316-.235.43.43 0 0 1-.102-.293c0-.068.02-.108.063-.143.055-.036.15-.067.313-.067.079 0 .145.007.201.02l.248.052.255.05.176-1.1-.194-.07a1.85 1.85 0 0 0-.352-.088 2.038 2.038 0 0 0-.334-.029Z"/></svg>