<svg xmlns="http://www.w3.org/2000/svg" fill="#1652F0" viewBox="0 0 16 16"><path d="M3.732 8.527c0 1.32.29 2.391.936 3.145l.002.002c.643.74 1.505 1.103 2.542 1.103.425 0 .813-.055 1.155-.177a2.97 2.97 0 0 0 .966-.55l.106.587h1.743v-8.47h1.064V2.443h-1.064V1.197H9.15v1.246H6.168v1.724H9.15l.003.627a2.85 2.85 0 0 0-.793-.384 3.462 3.462 0 0 0-1.148-.175c-1.03 0-1.889.364-2.54 1.101l-.002.003c-.65.747-.938 1.834-.938 3.188Zm5.432.238c0 .83-.159 1.375-.409 1.704l-.003.004c-.211.286-.61.482-1.33.482-.573 0-.94-.195-1.18-.55-.266-.403-.422-1.01-.422-1.864 0-.854.156-1.473.427-1.899.246-.386.606-.585 1.147-.585.76 0 1.165.22 1.37.543.249.392.4 1.017.4 1.927v.238Zm-4.592 6.028h7.072v-1.696H4.572v1.696Z"/></svg>