<svg xmlns="http://www.w3.org/2000/svg" fill="none" viewBox="0 0 32 32"><path fill="#0A0B0D" d="M23.914 23.855c-4.462-.272-6.376-2.409-6.58-5.24h3.817c.182 1.303.72 2.362 2.763 2.634v-4.34c-4.108-.562-6.065-1.865-6.065-4.836 0-2.587 2.377-4.5 6.065-4.724V5.333h1.828v2.025c3.505.272 5.624 1.8 5.935 4.705H28c-.237-1.171-.882-1.893-2.247-2.118v4.03c3.87.516 6.247 1.64 6.247 4.772 0 2.699-2.172 4.855-6.247 5.108v2.812h-1.828v-2.812h-.011Zm0-10.151V9.908c-1.516.178-2.344.918-2.344 1.865 0 1.03.44 1.593 2.344 1.93Zm1.839 3.44v4.096c1.494-.225 2.43-1.012 2.43-2.119-.011-1.077-.527-1.612-2.43-1.977Z"/><path fill="#0A0B0D" fill-rule="evenodd" d="M0 24h4.063v-5.954L10.383 24H16l-6.696-6.09c3.536-.228 5.417-2.114 5.417-4.819 0-2.886-2.207-5.09-6.37-5.09H0v16Zm10.608-10.727c0 1.25-.853 1.932-2.382 1.932H4.063V11.09h4.163c1.53 0 2.382.66 2.382 1.955v.227Z" clip-rule="evenodd"/></svg>