<svg xmlns="http://www.w3.org/2000/svg" fill="#1652F0" viewBox="0 0 24 24"><path d="M13 13.961c.153 2.123 1.589 3.726 4.936 3.93h.008V20h1.37v-2.109C22.371 17.701 24 16.084 24 14.06c0-2.348-1.782-3.192-4.686-3.579V7.46c1.025.168 1.509.71 1.686 1.588h2.758c-.234-2.179-1.822-3.325-4.451-3.529V4h-1.371v1.511c-2.767.17-4.549 1.603-4.549 3.543 0 2.229 1.468 3.206 4.549 3.628v3.255c-1.533-.204-1.936-.998-2.073-1.976H13Zm4.936-6.53v2.847c-1.428-.253-1.759-.675-1.759-1.448 0-.71.621-1.266 1.759-1.4Zm1.378 8.499v-3.072c1.428.274 1.815.675 1.823 1.483 0 .83-.701 1.42-1.823 1.589ZM12.816 18H9.702l-.792-2.286H3.816L3.042 18H.036L4.734 5.328h3.384L12.816 18ZM6.354 8.388h-.036L4.68 13.194h3.348L6.354 8.388Z"/></svg>