<svg xmlns="http://www.w3.org/2000/svg" fill="none" viewBox="0 0 12 13"><path fill="#1652F0" stroke="#1652F0" stroke-width=".2" d="m6.28 3.14.072.072.07-.071 1.319-1.319a1.765 1.765 0 1 1 2.496 2.496L7.93 6.626A1.765 1.765 0 0 1 5.32 6.5l-.07-.085-.014.013-.259-.26a.566.566 0 0 0-.8.802l.494.494.002.001a2.898 2.898 0 0 0 4.058-.038l2.308-2.308A2.898 2.898 0 0 0 6.94 1.021l-1.319 1.32-.07.07.07.07.66.66Zm-.517 5.794-.07-.07-.072.07-1.318 1.319a1.765 1.765 0 1 1-2.496-2.496l2.307-2.308a1.765 1.765 0 0 1 2.37-.115l.066.054.263.263a.566.566 0 0 0 .8-.8l-.33-.33-.07-.071-.01.01a2.898 2.898 0 0 0-3.89.188L1.007 6.956a2.897 2.897 0 1 0 4.098 4.097l1.318-1.318.071-.071-.07-.07-.66-.66Z"/></svg>