<svg xmlns="http://www.w3.org/2000/svg" fill="none" viewBox="0 0 32 32"><path fill="#0A0B0D" d="M15.647 26.667 10 16.807v-1.315h.657c1.594 0 2.809-.229 3.646-.687.856-.458 1.354-1.285 1.493-2.48H10v-1.912h5.767c-.2-1.116-.727-1.922-1.584-2.42-.837-.498-2.012-.747-3.526-.747H10V5.333h12.37v1.913h-5.647c.956.776 1.524 1.832 1.703 3.167h3.944v1.912h-3.885c-.139 1.454-.697 2.59-1.673 3.406-.956.797-2.23 1.305-3.824 1.524l5.707 9.412h-3.048Z"/><path fill="#0A0B0D" d="M15.26 27.333 9.334 16.984v-2.159h1.324c1.548 0 2.632-.225 3.325-.605l.006-.003c.452-.242.791-.629.988-1.225H9.333V9.746h5.55a2.423 2.423 0 0 0-1.035-1.177l-.006-.004c-.691-.411-1.73-.653-3.185-.653H9.333V4.667h13.703v3.245H18.22c.358.544.612 1.157.764 1.834h4.053v3.246h-3.97c-.24 1.328-.84 2.426-1.826 3.25v.001c-.86.717-1.928 1.208-3.18 1.494l5.818 9.596h-4.617Zm-2.272-10.078c.243-.033.478-.073.707-.12 1.268-.26 2.307-.729 3.117-1.404.976-.816 1.534-1.952 1.673-3.406h3.885v-1.912h-3.944c-.133-.986-.477-1.82-1.033-2.5a4.632 4.632 0 0 0-.67-.667h5.647V5.333H10v1.913h.657c1.514 0 2.69.249 3.526.747.675.392 1.146.977 1.413 1.753.072.209.128.43.17.667H10v1.912h5.796a4.539 4.539 0 0 1-.125.667c-.225.841-.682 1.445-1.368 1.813-.837.458-2.052.687-3.646.687H10v1.315l5.647 9.86h3.048l-5.707-9.412Z"/></svg>