<svg xmlns="http://www.w3.org/2000/svg" fill="#1652F0" viewBox="0 0 16 16"><path d="m7.66 13.4-2.86-5v-.66h.33c.8 0 1.42-.11 1.85-.35.43-.23.68-.65.75-1.25H4.8v-.97h2.92c-.1-.56-.37-.97-.8-1.22a3.5 3.5 0 0 0-1.79-.38H4.8V2.6h6.26v.97H8.2c.49.4.77.93.87 1.6h2v.97H9.1a2.45 2.45 0 0 1-.85 1.72 3.9 3.9 0 0 1-1.94.78l2.9 4.76H7.65Z"/><path d="M7.43 13.8 4.4 8.51V7.34h.73c.78 0 1.32-.11 1.66-.3.2-.1.34-.26.44-.5H4.4V4.77h2.77a1.1 1.1 0 0 0-.45-.48c-.34-.2-.86-.32-1.59-.32H4.4V2.2h7.06v1.77H9.07c.15.24.26.51.33.8h2.06v1.77H9.44a2.75 2.75 0 0 1-.93 1.63c-.43.35-.95.6-1.56.75l2.96 4.88H7.43ZM6.3 8.64l.43-.08a3.49 3.49 0 0 0 1.5-.7c.5-.41.79-.98.86-1.72h1.96v-.97h-2a2.33 2.33 0 0 0-.86-1.6h2.86V2.6H4.8v.97h.33c.77 0 1.36.12 1.79.38a1.67 1.67 0 0 1 .79 1.22H4.8v.97h2.93c-.01.14-.04.28-.08.4-.12.4-.34.68-.67.85-.43.24-1.04.35-1.85.35H4.8v.67l2.86 4.99H9.2L6.31 8.64Z"/></svg>