<svg xmlns="http://www.w3.org/2000/svg" fill="#1652F0" viewBox="0 0 16 16"><path d="M2 1.5A1.5 1.5 0 0 1 3.5 0h9A1.5 1.5 0 0 1 14 1.5v13a1.5 1.5 0 0 1-1.5 1.5h-9A1.5 1.5 0 0 1 2 14.5v-13Zm1.5 0V4h9V1.5h-9Zm1.5 4a1 1 0 1 0 0 2 1 1 0 0 0 0-2Zm2 1a1 1 0 1 0 2 0 1 1 0 0 0-2 0Zm4-1a1 1 0 1 0 0 2 1 1 0 0 0 0-2ZM4 10a1 1 0 1 0 2 0 1 1 0 0 0-2 0Zm4-1a1 1 0 1 0 0 2 1 1 0 0 0 0-2Zm2 1a1 1 0 1 0 2 0 1 1 0 0 0-2 0Zm-5 2.5a1 1 0 1 0 0 2 1 1 0 0 0 0-2Zm2 1a1 1 0 1 0 2 0 1 1 0 0 0-2 0Zm4-1a1 1 0 1 0 0 2 1 1 0 0 0 0-2Z"/></svg>