<svg xmlns="http://www.w3.org/2000/svg" fill="none" viewBox="0 0 16 16"><path fill="#1652F0" d="M2.76 10.438 2.523 2h1.583l.237 8.438H2.76ZM2.692 14l-.192-.807c.259-.045.452-.083.58-.113a1.788 1.788 0 0 1-.24-.233 1.02 1.02 0 0 1-.26-.691c0-.277.06-.5.18-.669a1.04 1.04 0 0 1 .464-.369c.188-.077.384-.115.588-.115.113 0 .218.008.316.023.106.015.2.038.283.07l-.09.83-.227-.047a1.245 1.245 0 0 0-.248-.023.446.446 0 0 0-.272.092.32.32 0 0 0-.113.242.5.5 0 0 0 .136.346c.09.1.196.177.317.23.04.02.08.037.116.051a7.89 7.89 0 0 0 .155-.05c.18-.054.35-.112.509-.173l.226.772c-.189.07-.41.142-.667.219a15.611 15.611 0 0 1-1.56.415Zm3.828-3.447c.644 0 1.175-.542 1.175-1.199S7.164 8.156 6.52 8.156s-1.176.541-1.176 1.198c0 .658.532 1.2 1.176 1.2Zm2.525-2.04L8.49 9.977c.218.123.463.223.735.3.278.077.554.134.825.173.271.038.516.057.735.057.588 0 1.082-.084 1.481-.253.408-.17.713-.4.916-.692.212-.3.317-.65.317-1.049 0-.323-.075-.696-.226-1.118a8.896 8.896 0 0 0-.61-1.383c-.265-.5-.578-1.011-.94-1.534l-1.345.911c.392.553.69 1.018.893 1.395.204.369.343.668.419.899.083.23.124.411.124.542a.514.514 0 0 1-.136.357.87.87 0 0 1-.407.23 2.56 2.56 0 0 1-.656.07c-.256 0-.512-.03-.768-.092a4.739 4.739 0 0 1-.803-.277Z"/></svg>