<svg xmlns="http://www.w3.org/2000/svg" fill="none" viewBox="0 0 8 8"><path fill="#0A0B0D" d="M5.202 1.259c-.297-.128-.668-.192-1.113-.192V.333h-.485v.734H1.667v5.866h1.937v.734h.485v-.734h.162c.453 0 .834-.07 1.143-.212a1.6 1.6 0 0 0 .7-.576c.16-.244.24-.522.24-.833 0-.288-.064-.537-.19-.745a1.385 1.385 0 0 0-1.14-.679v-.057c.21-.046.398-.123.561-.232a1.2 1.2 0 0 0 .39-.424 1.24 1.24 0 0 0 .142-.605c0-.294-.075-.553-.224-.779a1.47 1.47 0 0 0-.67-.532ZM4.09 5.917V4.362c.174.008.327.042.457.105.15.07.265.168.346.292a.77.77 0 0 1 .121.43.656.656 0 0 1-.245.533c-.148.119-.374.184-.68.195Zm0-2.409v-1.43a.876.876 0 0 1 .484.186c.156.13.233.3.233.513 0 .154-.04.287-.12.398a.772.772 0 0 1-.326.258 1.05 1.05 0 0 1-.271.075ZM3.604 2.07v1.453h-.658V2.069h.658Zm0 2.292V5.92h-.658V4.361h.658Z"/></svg>