<svg xmlns="http://www.w3.org/2000/svg" fill="#1652F0" viewBox="0 0 12 12"><path d="M3.264 1.218H2.047l.191 6.818h1.217l-.19-6.818Zm5.562 2.271-.14-.192-1.027.67.15.211c.34.481.587.865.746 1.153v.002c.163.29.257.504.296.65l.003.01c.049.158.068.276.068.36 0 .105-.027.19-.078.263l-.002.003c-.036.053-.109.112-.253.16l-.003.001c-.133.046-.335.075-.617.075a2.106 2.106 0 0 1-1.103-.287l-.22-.143-.597 1.028.175.134a2.3 2.3 0 0 0 .487.279l.007.003c.182.071.378.125.587.163.216.039.437.057.664.057.509 0 .937-.072 1.264-.24.31-.158.551-.37.699-.643l.001-.002c.136-.258.206-.528.206-.807a2.51 2.51 0 0 0-.135-.745 5.005 5.005 0 0 0-.416-.966c-.19-.361-.445-.76-.762-1.197ZM6.604 6.994l.126-.216-.136.21.01.006Zm.233-.154a1.31 1.31 0 0 1-.107-.063l.107.063Zm-1.911-.445a.85.85 0 0 0-.86.86.85.85 0 0 0 .86.861.85.85 0 0 0 .86-.86.85.85 0 0 0-.86-.861Zm-3.04 2.79a1 1 0 0 0 .173.566l-.22.051.215.97.249-.062c.167-.042.349-.09.545-.143a16.649 16.649 0 0 0 1.102-.343l.221-.083-.29-.928-.247.091a5.597 5.597 0 0 1-.364.118l-.012.004a4.69 4.69 0 0 1-.122.04 1.147 1.147 0 0 1-.02-.01l-.006-.002a.646.646 0 0 1-.195-.144.221.221 0 0 1-.05-.152c0-.018.002-.025.003-.026 0-.002.002-.005.009-.01a.341.341 0 0 1 .17-.033.58.58 0 0 1 .123.012l.174.037.255.05.144-.902-.194-.07a1.366 1.366 0 0 0-.258-.066 1.412 1.412 0 0 0-.79.087l-.004.002a1.074 1.074 0 0 0-.437.344l-.008.012a1.044 1.044 0 0 0-.166.59Z"/></svg>