<svg xmlns="http://www.w3.org/2000/svg" fill="none" viewBox="0 0 8 8"><path fill="#0A0B0D" d="M2.732 5.646c.227.14.48.21.758.21.198 0 .366-.031.503-.095a1.01 1.01 0 0 0 .337-.242c.088-.098.156-.197.203-.297h.044v.576H5.58V1.954H6v-.589h-.419V1H4.565v.365h-.953v.589h.953v.85h-.032a1.279 1.279 0 0 0-.196-.295.987.987 0 0 0-.335-.253 1.143 1.143 0 0 0-.514-.103 1.4 1.4 0 0 0-.744.206 1.438 1.438 0 0 0-.54.616C2.067 3.248 2 3.591 2 4.004c0 .4.065.74.196 1.016.133.275.311.484.536.626ZM4.23 4.93a.66.66 0 0 1-.417.131.67.67 0 0 1-.423-.133.857.857 0 0 1-.26-.375A1.607 1.607 0 0 1 3.04 4c0-.208.03-.39.09-.548a.817.817 0 0 1 .26-.37.67.67 0 0 1 .423-.134.68.68 0 0 1 .42.129.801.801 0 0 1 .262.365c.06.158.091.344.091.558 0 .214-.031.4-.093.56a.832.832 0 0 1-.263.372ZM5.452 7v-.757H2.234V7h3.218Z"/></svg>