<svg xmlns="http://www.w3.org/2000/svg" fill="#1652F0" viewBox="0 0 12 12"><path d="M4.1 8.47a2.11 2.11 0 0 0 1.89.17 1.73 1.73 0 0 0 .81-.81h.06v.87h1.51V2.93H9v-.88h-.63V1.5H6.85v.55H5.42v.88h1.43v1.28H6.8c-.07-.15-.16-.3-.3-.45a1.4 1.4 0 0 0-.5-.38 2.11 2.11 0 0 0-1.89.15c-.33.21-.6.52-.8.93-.2.41-.31.93-.31 1.55 0 .6.1 1.1.3 1.52.2.41.46.73.8.94ZM6.34 7.4a1 1 0 0 1-.62.2 1 1 0 0 1-.64-.2c-.16-.14-.3-.33-.39-.57A2.41 2.41 0 0 1 4.56 6c0-.31.05-.59.13-.82.1-.24.22-.43.4-.56a1 1 0 0 1 .63-.2c.25 0 .46.06.63.2.17.12.3.3.4.54a2.65 2.65 0 0 1-.01 1.68c-.1.24-.22.42-.4.56Zm1.84 3.1V9.36H3.35v1.14h4.83Z"/></svg>