<svg xmlns="http://www.w3.org/2000/svg" fill="#1652F0" viewBox="0 0 24 24"><path d="M11.3 20.38c-4.15-.29-5.93-2.57-6.12-5.59h3.55c.17 1.39.67 2.52 2.57 2.81v-4.63c-3.82-.6-5.64-1.99-5.64-5.16 0-2.76 2.21-4.8 5.64-5.04V.62H13v2.16c3.26.29 5.23 1.92 5.52 5.02H15.1c-.22-1.25-.82-2.02-2.09-2.26v4.3c3.6.55 5.81 1.75 5.81 5.09 0 2.88-2.02 5.18-5.81 5.45v3h-1.7v-3h-.01Zm0-10.83V5.5c-1.41.19-2.18.98-2.18 1.99 0 1.1.41 1.7 2.18 2.06Zm1.71 3.67v4.37c1.39-.24 2.26-1.08 2.26-2.26-.01-1.15-.49-1.72-2.26-2.11Z"/></svg>