<svg xmlns="http://www.w3.org/2000/svg" fill="#1652F0" viewBox="0 0 12 12"><path d="M7.8 1.89c-.44-.2-1-.29-1.67-.29V.5h-.72v1.1H2.5v8.8h2.9v1.1h.73v-1.1h.25c.68 0 1.25-.1 1.71-.32.46-.21.81-.5 1.05-.86.24-.37.36-.79.36-1.25a2.04 2.04 0 0 0-1.02-1.85 2.1 2.1 0 0 0-.97-.29v-.08c.31-.07.6-.19.84-.35.25-.17.44-.38.58-.64a2.06 2.06 0 0 0-.12-2.08 2.2 2.2 0 0 0-1-.8ZM6.13 8.88V6.54c.27.01.5.07.69.16a1.16 1.16 0 0 1 .7 1.08c0 .34-.12.6-.37.8-.22.18-.56.28-1.02.3Zm0-3.62V3.12c.3.03.55.12.73.28.23.2.35.45.35.77 0 .23-.06.43-.18.6a1.32 1.32 0 0 1-.89.49ZM5.41 3.1v2.18h-1V3.1h1Zm0 3.44v2.34h-1V6.54h1Z"/></svg>