<svg xmlns="http://www.w3.org/2000/svg" fill="none" viewBox="0 0 12 12"><path fill="#1652F0" d="M1 8.143h1.346V5.95l2.093 2.193h1.86L4.083 5.9c1.17-.084 1.794-.779 1.794-1.775 0-1.063-.731-1.875-2.11-1.875H1v5.893Zm3.514-3.951c0 .46-.283.711-.79.711H2.347V3.388h1.379c.506 0 .789.243.789.72v.084Zm1.984-.469V9.75h1.304V7.607h.008c.25.394.648.653 1.288.653C10.394 8.26 11 7.122 11 5.933c0-1.205-.615-2.327-1.902-2.327-.698 0-1.13.31-1.37.787h-.01v-.67h-1.22Zm3.198 1.992v.419c0 .678-.415 1.046-.947 1.046s-.947-.385-.947-1.046v-.419c0-.66.415-1.046.947-1.046s.947.368.947 1.046Z"/></svg>