<svg xmlns="http://www.w3.org/2000/svg" fill="#1652F0" viewBox="0 0 16 16"><path d="M8.67 9.3c.1 1.4 1.06 2.47 3.29 2.61v1.4h.92v-1.4c2.03-.13 3.12-1.2 3.12-2.55 0-1.57-1.19-2.13-3.12-2.39V4.96c.68.1 1 .47 1.12 1.05h1.84c-.16-1.45-1.22-2.21-2.97-2.35V2.65h-.91v1c-1.85.12-3.04 1.08-3.04 2.37 0 1.49.98 2.14 3.04 2.42v2.17c-1.02-.14-1.3-.67-1.38-1.32H8.67Zm3.29-4.36v1.9c-.95-.17-1.18-.45-1.18-.97 0-.47.42-.84 1.18-.93Zm.92 5.66V8.55c.95.19 1.2.45 1.21 1 0 .55-.47.94-1.21 1.05ZM2.03 11.98H0v-8h4.18c2.08 0 3.18 1.1 3.18 2.55 0 1.35-.94 2.3-2.7 2.4L8 11.99H5.2L2.02 9.01v2.97Zm2.08-4.4c.77 0 1.2-.34 1.2-.96v-.11c0-.65-.43-.98-1.2-.98H2.03v2.06h2.08Z"/></svg>