<svg xmlns="http://www.w3.org/2000/svg" fill="#1652F0" viewBox="0 0 24 24"><path d="M3 2a2 2 0 0 1 2-2h14a2 2 0 0 1 2 2v20a2 2 0 0 1-2 2H5a2 2 0 0 1-2-2V2Zm2 0v4h14V2H5Zm2 7a1.5 1.5 0 1 0 0 3 1.5 1.5 0 0 0 0-3Zm3.5 1.5a1.5 1.5 0 1 0 3 0 1.5 1.5 0 0 0-3 0ZM17 9a1.5 1.5 0 1 0 0 3 1.5 1.5 0 0 0 0-3ZM5.5 15.5a1.5 1.5 0 1 0 3 0 1.5 1.5 0 0 0-3 0ZM12 14a1.5 1.5 0 1 0 0 3 1.5 1.5 0 0 0 0-3Zm3.5 1.5a1.5 1.5 0 1 0 3 0 1.5 1.5 0 0 0-3 0ZM7 19a1.5 1.5 0 1 0 0 3 1.5 1.5 0 0 0 0-3Zm3.5 1.5a1.5 1.5 0 1 0 3 0 1.5 1.5 0 0 0-3 0ZM17 19a1.5 1.5 0 1 0 0 3 1.5 1.5 0 0 0 0-3Z"/></svg>