<svg xmlns="http://www.w3.org/2000/svg" fill="#1652F0" viewBox="0 0 17 16"><path fill-rule="evenodd" d="m6.981 3.292 1.36 1.36 1.977-1.977a2.095 2.095 0 1 1 2.963 2.963l-3.026 3.026a2.095 2.095 0 0 1-2.963 0l-.08-.078-.082-.08-.008-.007.002-.002-.432-.432a.961.961 0 1 0-1.36 1.36l.65.647.004.005a4.018 4.018 0 0 0 5.629-.053l3.026-3.026a4.018 4.018 0 1 0-5.683-5.683L6.981 3.292Z" clip-rule="evenodd"/><path fill-rule="evenodd" d="m8.836 12.802-1.36-1.36L5.5 13.42a2.095 2.095 0 0 1-2.964-2.963L5.562 7.43c.77-.77 1.99-.816 2.813-.137l.416.402a.961.961 0 1 0 1.36-1.36l-.456-.44.002-.002a4.018 4.018 0 0 0-5.494.177L1.177 9.096a4.018 4.018 0 0 0 5.682 5.683l1.977-1.977Z" clip-rule="evenodd"/></svg>