<svg xmlns="http://www.w3.org/2000/svg" fill="none" viewBox="0 0 24 24"><path fill="#1652F0" d="M4.5 12.043v-.086c0-2.2 1.567-3.657 3.666-3.657 1.868 0 3.176.857 3.349 2.757H9.387C9.316 10.33 8.913 9.93 8.18 9.93c-.92 0-1.51.714-1.51 2.028v.086c0 1.286.547 2.029 1.539 2.029.719 0 1.236-.386 1.337-1.172H11.6c-.144 1.857-1.495 2.814-3.35 2.814-2.515-.028-3.751-1.485-3.751-3.67Zm7.899-.086v.086c0 2.186 1.25 3.643 3.752 3.671 1.854 0 3.205-.957 3.349-2.814h-2.056c-.1.786-.618 1.172-1.336 1.172-.992 0-1.539-.743-1.539-2.029v-.086c0-1.314.59-2.028 1.51-2.028.718 0 1.135.4 1.207 1.128h2.128c-.173-1.9-1.48-2.757-3.35-2.757-2.098 0-3.665 1.457-3.665 3.657Z"/><path fill="#1652F0" d="M24 2H0v20h24V2Zm-2.875 2.857v14.286H2.875V4.857h18.25Z"/></svg>