<svg xmlns="http://www.w3.org/2000/svg" fill="#1652F0" viewBox="0 0 16 16"><path d="M12.355 7.637c-.068.163-.149.32-.24.474-.363.602-.887 1.08-1.573 1.436-.682.351-1.508.527-2.477.527H5.907V14h-2.53V7.637H2v-1.29h1.377v-.48H2V4.578h1.377V2h4.694c.97 0 1.795.182 2.477.545.685.363 1.208.853 1.566 1.47.107.182.199.37.274.563H14v1.29h-1.342a4.516 4.516 0 0 1-.004.48H14v1.289h-1.645Zm-3.12.123a1.96 1.96 0 0 0 .173-.123h-3.5v.398h2.157c.485 0 .875-.092 1.17-.275Zm.84-1.893H5.907v.48h4.163c.01-.084.016-.17.017-.257a2.727 2.727 0 0 0-.012-.223Zm-.56-1.289a1.796 1.796 0 0 0-.28-.223c-.295-.195-.683-.293-1.164-.293H5.907v.516h3.609Z"/></svg>