<svg xmlns="http://www.w3.org/2000/svg" fill="#1652F0" viewBox="0 0 12 12"><path d="M8.97 8.95c-1.68-.1-2.4-.9-2.47-1.97h1.43c.07.49.27.89 1.04.99V6.34c-1.54-.21-2.28-.7-2.28-1.81 0-.97.9-1.69 2.28-1.77V2h.68v.76c1.32.1 2.11.67 2.23 1.76H10.5c-.09-.44-.33-.7-.84-.8v1.52c1.45.2 2.34.62 2.34 1.79 0 1.01-.81 1.82-2.34 1.92V10h-.69V8.95Zm0-3.81V3.72c-.57.06-.88.34-.88.7 0 .38.16.6.88.72Zm.69 1.29v1.53c.56-.08.9-.37.9-.79 0-.4-.19-.6-.9-.74ZM6.4 9H4.86l-.4-1.14H1.92L1.52 9H.02l2.35-6.34h1.69L6.4 9ZM3.19 4.2h-.02l-.82 2.4h1.67l-.83-2.4Z"/></svg>