<svg xmlns="http://www.w3.org/2000/svg" fill="none" viewBox="0 0 32 32"><path fill="#0A0B0D" d="M10.717 22.949c.944.593 1.997.89 3.16.89.824 0 1.522-.135 2.093-.405.578-.27 1.047-.61 1.406-1.02.365-.415.647-.833.847-1.255h.18v2.433h4.186V7.359h1.744V4.876H22.59V3.333h-4.236v1.543h-3.968V7.36h3.967v3.591h-.13a5.404 5.404 0 0 0-.817-1.246c-.352-.429-.817-.785-1.395-1.069-.572-.29-1.286-.435-2.143-.435-1.123 0-2.157.29-3.1.87-.937.574-1.688 1.441-2.253 2.602-.565 1.154-.847 2.602-.847 4.343 0 1.695.272 3.126.817 4.293.552 1.16 1.296 2.04 2.233 2.641Zm6.24-3.017c-.472.37-1.05.554-1.735.554-.697 0-1.285-.188-1.764-.564-.472-.382-.834-.91-1.086-1.583-.246-.679-.37-1.46-.37-2.344 0-.877.124-1.649.37-2.315.245-.666.608-1.187 1.086-1.563.479-.376 1.067-.564 1.764-.564.685 0 1.266.182 1.745.544.478.363.844.878 1.096 1.544.253.666.38 1.45.38 2.354 0 .903-.13 1.691-.39 2.364-.252.673-.618 1.197-1.096 1.573Zm5.093 8.735V25.47H8.645v3.196H22.05Z"/></svg>