<svg xmlns="http://www.w3.org/2000/svg" fill="#1652F0" viewBox="0 0 24 24"><path d="M6.28 18.25c2.9 0 4.88-1.49 4.88-3.75 0-2.36-1.68-3.2-3.74-3.5l-1.4-.2c-1.13-.16-1.74-.4-1.74-1.28 0-.66.55-1.29 1.97-1.29 1.45 0 2.04.61 2.04 1.47H11c-.02-1.95-1.7-3.58-4.73-3.58-2.95 0-4.68 1.62-4.68 3.63 0 2.23 1.5 3.22 3.63 3.53l1.45.22c1.2.18 1.78.36 1.78 1.23 0 .8-.7 1.4-2.13 1.4-1.42 0-2.27-.56-2.27-1.7H1.33c0 2.28 1.98 3.82 4.95 3.82Zm10.31 1.25v-15h.96v15h-.96Zm2.55-10.05a1.48 1.48 0 0 0-.6-1.1 2.4 2.4 0 0 0-1.45-.4c-.42 0-.77.07-1.05.18-.29.12-.5.27-.66.48-.15.2-.22.43-.22.69 0 .21.04.4.14.56.1.16.24.3.41.42a3.85 3.85 0 0 0 1.35.5l1.08.26c.52.12 1 .28 1.44.47.44.2.82.44 1.14.72a3 3 0 0 1 1.01 2.34 3.28 3.28 0 0 1-2.16 3.16c-.68.3-1.52.44-2.5.44a6.6 6.6 0 0 1-2.52-.45 3.7 3.7 0 0 1-1.68-1.31c-.4-.59-.6-1.31-.63-2.18h2.46c.03.4.14.74.34 1.01.21.27.49.47.83.6.35.14.74.2 1.18.2.43 0 .8-.06 1.12-.18.32-.13.56-.3.74-.53.18-.22.26-.47.26-.76a1 1 0 0 0-.24-.68 1.82 1.82 0 0 0-.69-.47 6.5 6.5 0 0 0-1.1-.35l-1.31-.33a5.48 5.48 0 0 1-2.4-1.16 2.68 2.68 0 0 1-.87-2.11c0-.73.19-1.36.58-1.9.4-.55.93-.97 1.62-1.28.69-.3 1.47-.45 2.35-.45.89 0 1.66.15 2.33.45a3.4 3.4 0 0 1 2.13 3.17h-2.43Z"/></svg>