<svg xmlns="http://www.w3.org/2000/svg" fill="#1652F0" viewBox="0 0 12 12"><path d="M1.71 8.03 1.51 1h1.3l.2 7.03H1.7ZM1.66 11l-.16-.67.48-.1a1.48 1.48 0 0 1-.2-.2.86.86 0 0 1-.22-.57.86.86 0 0 1 .53-.86c.16-.07.32-.1.48-.1a1.65 1.65 0 0 1 .5.08l-.08.7-.19-.05a1 1 0 0 0-.2-.02.36.36 0 0 0-.22.08.27.27 0 0 0-.1.2c0 .11.04.2.12.29.07.08.16.15.26.2l.1.03a5.89 5.89 0 0 0 .53-.18l.19.64a9.6 9.6 0 0 1-1.18.38l-.64.15Zm3.13-2.87c.53 0 .96-.45.96-1s-.43-1-.96-1a.99.99 0 0 0-.96 1c0 .55.43 1 .96 1Zm2.06-1.7L6.4 7.65c.18.1.38.18.6.25a5.3 5.3 0 0 0 1.28.19c.48 0 .88-.07 1.21-.21a1.5 1.5 0 0 0 1-1.45c.01-.27-.05-.58-.18-.93a7.5 7.5 0 0 0-.5-1.16 12.6 12.6 0 0 0-.76-1.27l-1.1.75c.32.47.56.85.73 1.17.16.3.28.55.34.75.07.19.1.34.1.45 0 .11-.04.21-.11.3a.7.7 0 0 1-.33.19 2.64 2.64 0 0 1-1.17-.02 3.83 3.83 0 0 1-.66-.23Z"/></svg>