<svg xmlns="http://www.w3.org/2000/svg" fill="none" viewBox="0 0 16 16"><path fill="#0A0B0D" d="M7.08 13.18C4.31 12.99 3.13 11.47 3 9.45h2.37c.11.93.45 1.68 1.71 1.87V8.23c-2.55-.4-3.77-1.33-3.77-3.44 0-1.84 1.47-3.2 3.76-3.36V0h1.14v1.44c2.18.19 3.49 1.28 3.68 3.34H9.6c-.14-.83-.54-1.34-1.39-1.5v2.86c2.4.37 3.87 1.17 3.87 3.39 0 1.92-1.34 3.46-3.87 3.63v2H7.08v-1.98Zm0-7.22V3.25c-.95.13-1.46.66-1.46 1.33 0 .74.27 1.14 1.46 1.38Zm1.13 2.45v2.91c.93-.16 1.5-.72 1.5-1.5.01-.77-.31-1.16-1.5-1.41Z"/></svg>