<svg xmlns="http://www.w3.org/2000/svg" fill="#1652F0" viewBox="0 0 12 12"><path d="M3.297 9.332c1.495 0 2.513-.792 2.513-1.998 0-1.258-.866-1.707-1.927-1.865l-.722-.106c-.577-.088-.891-.22-.891-.686 0-.352.28-.687 1.01-.687.747 0 1.053.326 1.053.784h1.393c-.017-1.039-.875-1.91-2.437-1.91-1.52 0-2.412.862-2.412 1.936 0 1.188.773 1.716 1.868 1.883l.747.115c.62.096.917.193.917.66 0 .422-.356.748-1.095.748-.73 0-1.172-.3-1.172-.907H.75c0 1.215 1.019 2.033 2.547 2.033ZM8.603 10V2h.494v8h-.494Zm1.311-5.36a.798.798 0 0 0-.31-.587c-.183-.14-.431-.21-.745-.21a1.37 1.37 0 0 0-.54.095.762.762 0 0 0-.337.253.624.624 0 0 0-.115.368.542.542 0 0 0 .07.3c.052.086.123.16.213.222.09.06.195.114.314.16.119.043.245.08.38.112l.555.138c.27.062.516.145.741.25.226.104.42.232.585.384.165.152.293.331.383.537.093.207.14.443.142.71a1.815 1.815 0 0 1-.29 1.019 1.85 1.85 0 0 1-.82.665c-.355.157-.785.235-1.287.235-.499 0-.933-.08-1.303-.238a1.92 1.92 0 0 1-.862-.703c-.205-.313-.312-.699-.323-1.16H7.63c.014.215.073.394.178.538a.992.992 0 0 0 .425.322c.179.07.38.106.606.106.221 0 .413-.033.576-.1a.884.884 0 0 0 .383-.278.657.657 0 0 0 .135-.41.544.544 0 0 0-.123-.362.937.937 0 0 0-.356-.25 3.527 3.527 0 0 0-.57-.187l-.672-.175c-.52-.131-.932-.337-1.233-.616-.302-.279-.452-.655-.45-1.128a1.72 1.72 0 0 1 .299-1.016c.203-.29.481-.515.835-.678a2.858 2.858 0 0 1 1.206-.244c.458 0 .858.082 1.2.244.344.163.611.389.802.678.191.29.29.625.296 1.007H9.914Z"/></svg>