<svg xmlns="http://www.w3.org/2000/svg" fill="#1652F0" viewBox="0 0 12 12"><path d="M6.5 6.98c.08 1.06.8 1.86 2.47 1.97V10h.69V8.95c1.53-.1 2.34-.9 2.34-1.92 0-1.17-.9-1.6-2.34-1.79V3.73c.5.08.75.35.84.8h1.38c-.12-1.1-.91-1.67-2.23-1.77V2h-.68v.76c-1.39.08-2.28.8-2.28 1.77 0 1.11.74 1.6 2.28 1.81v1.63c-.77-.1-.97-.5-1.04-.99H6.5Zm2.47-3.26v1.42c-.72-.13-.88-.34-.88-.73 0-.35.3-.63.88-.7Zm.69 4.24V6.43c.71.14.9.34.9.74 0 .42-.34.71-.9.8ZM1.52 9H0V3h3.13c1.56 0 2.39.83 2.39 1.9 0 1.02-.7 1.73-2.03 1.82L6 9H3.9L1.51 6.77V9Zm1.56-3.3c.58 0 .9-.25.9-.72v-.09c0-.48-.32-.73-.9-.73H1.52V5.7h1.56Z"/></svg>