<svg xmlns="http://www.w3.org/2000/svg" fill="none" viewBox="0 0 32 32"><path fill="#0A0B0D" d="M0 5.333C0 7.818 1.7 9.907 4 10.5v11A5.335 5.335 0 0 0 5.333 32c2.485 0 4.574-1.7 5.166-4H21.5A5.335 5.335 0 0 0 32 26.667c0-2.486-1.7-4.574-4-5.166V10.5A5.333 5.333 0 1 0 21.501 4H10.5A5.333 5.333 0 0 0 0 5.333Zm10.499 20a5.3 5.3 0 0 0-.57-1.376L16 17.886l6.072 6.071a5.3 5.3 0 0 0-.57 1.376H10.498Zm-2.456-3.261a5.299 5.299 0 0 0-1.376-.57V10.498a5.3 5.3 0 0 0 1.376-.57L14.114 16l-6.071 6.072Zm15.914 0L17.886 16l6.071-6.072a5.3 5.3 0 0 0 1.376.57v11.003a5.3 5.3 0 0 0-1.376.57ZM21.501 6.667c.126.489.32.951.57 1.376L16 14.114 9.928 8.043a5.3 5.3 0 0 0 .57-1.376h11.003Z"/></svg>