<svg xmlns="http://www.w3.org/2000/svg" fill="#1652F0" viewBox="0 0 16 16"><path d="M13.33 6.83c.517.434 1.071.824 1.659 1.165a11.784 11.784 0 0 0-4.4 4.503 11.562 11.562 0 0 0-.778 1.737l-.267.76-.267-.76a11.465 11.465 0 0 0-.777-1.737 11.784 11.784 0 0 0-4.4-4.503 11.784 11.784 0 0 0 4.4-4.503 11.554 11.554 0 0 0 .777-1.737l.267-.76.267.76a11.441 11.441 0 0 0 .777 1.737 11.784 11.784 0 0 0 2.743 3.338ZM3.711.995l.121.269a4.667 4.667 0 0 0 2.332 2.332l.27.121-.27.122A4.667 4.667 0 0 0 3.832 6.17l-.121.269-.121-.27A4.667 4.667 0 0 0 1.257 3.84L.99 3.717l.268-.121A4.667 4.667 0 0 0 3.59 1.264l.12-.269Zm0 8.555.121.27a4.667 4.667 0 0 0 2.332 2.332l.27.121-.27.121a4.666 4.666 0 0 0-2.332 2.332l-.121.27-.121-.27a4.667 4.667 0 0 0-2.333-2.332l-.268-.121.268-.121A4.667 4.667 0 0 0 3.59 9.819l.121-.268Z"/></svg>