<svg xmlns="http://www.w3.org/2000/svg" fill="none" viewBox="0 0 24 24"><path fill="#0A0B0D" d="M19.636 4.924A17.939 17.939 0 0 0 15.097 3.5c-.214.39-.408.793-.581 1.205a16.582 16.582 0 0 0-5.037 0A12.875 12.875 0 0 0 8.898 3.5a18.066 18.066 0 0 0-4.543 1.427C1.483 9.26.705 13.486 1.094 17.651A18.16 18.16 0 0 0 6.66 20.5c.45-.618.85-1.274 1.192-1.96a11.79 11.79 0 0 1-1.877-.914c.157-.116.311-.236.46-.353A12.866 12.866 0 0 0 12 18.541c1.924 0 3.824-.433 5.565-1.268.15.125.304.245.46.353-.6.36-1.229.667-1.88.916.342.686.74 1.34 1.192 1.958a18.08 18.08 0 0 0 5.57-2.847c.456-4.83-.78-9.017-3.27-12.73ZM8.346 15.089c-1.085 0-1.982-1.004-1.982-2.239 0-1.235.865-2.247 1.978-2.247s2.002 1.012 1.983 2.247c-.019 1.235-.874 2.24-1.98 2.24Zm7.309 0c-1.087 0-1.98-1.004-1.98-2.239 0-1.235.865-2.247 1.98-2.247 1.114 0 1.996 1.012 1.977 2.247-.019 1.235-.872 2.24-1.977 2.24Z"/></svg>