<svg xmlns="http://www.w3.org/2000/svg" fill="none" viewBox="0 0 8 8"><path fill="#0A0B0D" d="M6.545 1.558a5.833 5.833 0 0 0-1.512-.491 4.493 4.493 0 0 0-.194.416 5.341 5.341 0 0 0-1.68 0 4.51 4.51 0 0 0-.193-.416 5.875 5.875 0 0 0-1.514.492C.494 3.055.235 4.513.365 5.95a5.98 5.98 0 0 0 1.855.983c.15-.213.283-.44.397-.676a3.86 3.86 0 0 1-.625-.315c.052-.04.103-.082.153-.122.58.288 1.214.437 1.855.437s1.275-.15 1.855-.437c.05.043.102.084.153.122-.2.124-.41.23-.627.316a4.9 4.9 0 0 0 .398.675 5.953 5.953 0 0 0 1.857-.982c.152-1.667-.26-3.112-1.09-4.393ZM2.782 5.066c-.362 0-.66-.346-.66-.772 0-.427.288-.776.659-.776.37 0 .667.35.66.776-.006.426-.29.772-.66.772Zm2.436 0c-.362 0-.66-.346-.66-.772 0-.427.289-.776.66-.776.372 0 .666.35.66.776-.007.426-.291.772-.66.772Z"/></svg>