<svg xmlns="http://www.w3.org/2000/svg" fill="#1652F0" viewBox="0 0 24 24"><path d="m5.989 1.995.178.395a6.86 6.86 0 0 0 3.427 3.427l.395.178-.395.178A6.86 6.86 0 0 0 6.167 9.6l-.178.395L5.81 9.6a6.86 6.86 0 0 0-3.426-3.426l-.395-.179.395-.178A6.86 6.86 0 0 0 5.81 2.39zm8 0-.812 2.248a13 13 0 0 1-.423 1.03 13.4 13.4 0 0 1-4.55 5.404 14 14 0 0 1-1.08.677l-1.135.641 1.135.641q.559.316 1.08.678a13.4 13.4 0 0 1 4.722 5.793q.135.317.25.64l.813 2.248.812-2.248a13 13 0 0 1 .422-1.03 13.4 13.4 0 0 1 4.55-5.403q.522-.362 1.08-.678l1.136-.64-1.136-.642q-.558-.315-1.08-.677a13.4 13.4 0 0 1-4.722-5.794q-.133-.316-.25-.64zM6.167 14.39l-.178-.395-.179.395a6.86 6.86 0 0 1-3.426 3.427l-.395.178.395.178A6.86 6.86 0 0 1 5.81 21.6l.179.395.178-.395a6.86 6.86 0 0 1 3.427-3.427l.395-.178-.395-.178a6.86 6.86 0 0 1-3.427-3.427"/></svg>