<svg xmlns="http://www.w3.org/2000/svg" fill="none" viewBox="0 0 16 16"><path fill="#0A0B0D" d="M3.712 8.575A5.815 5.815 0 0 1 0 12.288 5.815 5.815 0 0 1 3.712 16a5.815 5.815 0 0 1 3.713-3.712 5.815 5.815 0 0 1-3.713-3.713Zm2.742-5.713A4.481 4.481 0 0 1 3.592 0 4.481 4.481 0 0 1 .73 2.862a4.478 4.478 0 0 1 2.862 2.862 4.481 4.481 0 0 1 2.862-2.862ZM10.286 0c-1.14 3.172-3.172 5.724-5.713 7.144 2.541 1.431 4.573 3.973 5.713 7.145 1.141-3.172 3.172-5.724 5.714-7.145-2.542-1.43-4.573-3.972-5.714-7.144ZM7.955 7.144a14.61 14.61 0 0 0 2.331-2.721c.68 1.02 1.471 1.93 2.332 2.721a14.61 14.61 0 0 0-2.332 2.722 14.995 14.995 0 0 0-2.331-2.722Z"/></svg>