<svg xmlns="http://www.w3.org/2000/svg" fill="none" viewBox="0 0 32 32"><path fill="#0A0B0D" d="M26.182 6.565a23.92 23.92 0 0 0-6.052-1.898 17.12 17.12 0 0 0-.775 1.606 22.108 22.108 0 0 0-6.716 0 17.198 17.198 0 0 0-.776-1.606A24.088 24.088 0 0 0 5.807 6.57C1.977 12.347.939 17.98 1.458 23.534a24.216 24.216 0 0 0 7.422 3.8 18.34 18.34 0 0 0 1.59-2.614 15.663 15.663 0 0 1-2.503-1.218c.21-.156.415-.316.613-.471a17.156 17.156 0 0 0 7.42 1.69c2.565 0 5.099-.577 7.42-1.69.2.167.406.327.614.47-.8.482-1.639.89-2.508 1.221.456.915.988 1.788 1.59 2.611a24.107 24.107 0 0 0 7.426-3.796c.61-6.44-1.04-12.023-4.36-16.972ZM11.127 20.119c-1.446 0-2.641-1.339-2.641-2.985 0-1.647 1.153-2.997 2.637-2.997 1.483 0 2.67 1.35 2.644 2.997-.026 1.646-1.165 2.985-2.64 2.985Zm9.746 0c-1.45 0-2.64-1.339-2.64-2.985 0-1.647 1.154-2.997 2.64-2.997 1.486 0 2.662 1.35 2.637 2.997-.025 1.646-1.163 2.985-2.637 2.985Z"/></svg>