<svg xmlns="http://www.w3.org/2000/svg" fill="none" viewBox="0 0 12 12"><path fill="#0A0B0D" d="M1.408 3.449c.177.087.362.144.548.172l.394 1.164A3.81 3.81 0 0 0 .414 6.551c-.96 1.853-.194 4.113 1.711 5.046 1.905.934 4.227.189 5.187-1.664A3.651 3.651 0 0 0 7.7 7.808l1.127-.361c.112.091.237.172.373.239.953.466 2.113.094 2.593-.832.48-.926.097-2.056-.855-2.522-.952-.467-2.113-.095-2.593.832-.15.29-.216.602-.206.907l-.928.298a3.802 3.802 0 0 0-1.61-1.482c-.55-.27-1.135-.4-1.712-.403l-.43-1.27c.187-.153.346-.346.464-.572.465-.899.094-1.994-.83-2.447-.923-.452-2.05-.091-2.515.807-.465.899-.094 1.994.83 2.447Zm1.418 6.794c-1.136-.557-1.593-1.904-1.02-3.01.572-1.105 1.958-1.549 3.094-.992 1.136.557 1.593 1.904 1.02 3.01-.572 1.105-1.957 1.55-3.094.992Z"/></svg>