<svg xmlns="http://www.w3.org/2000/svg" fill="#1652F0" viewBox="0 0 24 24"><path d="M6.282 7.703a3 3 0 1 1 1.414-1.414l1.535 1.535a4.977 4.977 0 0 1 2.758-.829 4.98 4.98 0 0 1 3.322 1.264l.97-.97a3 3 0 1 1 1.414 1.414L16.52 9.878c.3.643.469 1.36.469 2.117 0 1.02-.305 1.967-.829 2.758l1.535 1.535a3 3 0 1 1-1.414 1.414l-1.535-1.535a4.977 4.977 0 0 1-2.757.828 4.983 4.983 0 0 1-3.438-1.369l-.678.542a3.001 3.001 0 0 1-2.884 3.827 3 3 0 1 1 1.72-5.457l.691-.553a4.983 4.983 0 0 1-.411-1.99c0-1.019.305-1.967.828-2.757L6.282 7.703ZM5.99 4.995a1 1 0 1 0-2 0 1 1 0 0 0 2 0Zm6 10a3 3 0 1 0 0-6 3 3 0 0 0 0 6Zm7-8a1 1 0 1 0 0-2 1 1 0 0 0 0 2Zm1 12a1 1 0 1 0-2 0 1 1 0 0 0 2 0Zm-14-2a1 1 0 1 0-2 0 1 1 0 0 0 2 0Z"/></svg>