<svg xmlns="http://www.w3.org/2000/svg" fill="#1652F0" viewBox="0 0 16 16"><path d="M13.195 3.17a12.231 12.231 0 0 0-3.094-.97 8.5 8.5 0 0 0-.397.821 11.305 11.305 0 0 0-3.434 0 8.78 8.78 0 0 0-.397-.821c-1.069.186-2.11.513-3.097.973C.818 6.127.287 9.008.552 11.848a12.384 12.384 0 0 0 3.796 1.943c.307-.422.58-.869.813-1.337a8.005 8.005 0 0 1-1.28-.623c.107-.08.212-.161.314-.24a8.772 8.772 0 0 0 7.588 0c.103.085.208.167.314.24a8.033 8.033 0 0 1-1.283.624c.234.468.506.915.813 1.336a12.327 12.327 0 0 0 3.798-1.942c.311-3.293-.532-6.148-2.23-8.679Zm-7.698 6.931c-.74 0-1.35-.684-1.35-1.526s.589-1.533 1.348-1.533c.758 0 1.365.69 1.352 1.533-.013.842-.596 1.526-1.35 1.526Zm4.983 0c-.74 0-1.35-.684-1.35-1.526s.59-1.533 1.35-1.533c.76 0 1.362.69 1.349 1.533-.013.842-.595 1.526-1.349 1.526Z"/></svg>