<svg xmlns="http://www.w3.org/2000/svg" fill="#1652F0" viewBox="0 0 12 12"><path d="M9.807 2.457a8.97 8.97 0 0 0-2.27-.712 6.408 6.408 0 0 0-.29.603 8.29 8.29 0 0 0-2.519 0 6.434 6.434 0 0 0-.29-.603 9.033 9.033 0 0 0-2.272.714C.73 4.625.341 6.738.536 8.82a9.082 9.082 0 0 0 2.783 1.424 6.88 6.88 0 0 0 .596-.98 5.87 5.87 0 0 1-.939-.457c.079-.058.156-.118.23-.176a6.434 6.434 0 0 0 5.565 0c.075.062.152.122.23.176-.3.18-.614.334-.94.458.171.343.37.67.596.98a9.04 9.04 0 0 0 2.785-1.425c.228-2.415-.39-4.508-1.635-6.364ZM4.16 7.54c-.542 0-.99-.502-.99-1.12 0-.617.432-1.123.989-1.123.556 0 1 .506.991 1.123-.01.618-.437 1.12-.99 1.12Zm3.655 0c-.543 0-.99-.502-.99-1.12 0-.617.433-1.123.99-1.123.557 0 .998.506.989 1.123-.01.618-.436 1.12-.989 1.12Z"/></svg>