<svg xmlns="http://www.w3.org/2000/svg" fill="none" viewBox="0 0 24 24"><path fill="#1652F0" d="M3.6 7.2c.63 0 1.223-.162 1.739-.447l1.77 1.77A5.973 5.973 0 0 0 6 12c0 .922.208 1.795.58 2.576l-.749.598a3.6 3.6 0 1 0 1.165 1.629l.735-.587A5.982 5.982 0 0 0 12 18c1.26 0 2.43-.389 3.397-1.053l.978 1.222a3.6 3.6 0 1 0 1.629-1.165l-1.165-1.456A5.973 5.973 0 0 0 18 12c0-.983-.236-1.911-.656-2.73l1.317-1.317a3.6 3.6 0 1 0-1.414-1.414l-1.113 1.113A5.98 5.98 0 0 0 12 6c-1.296 0-2.496.41-3.477 1.11l-1.77-1.771A3.6 3.6 0 1 0 3.6 7.2ZM12 16a4 4 0 1 1 0-8 4 4 0 0 1 0 8Z"/></svg>