<svg xmlns="http://www.w3.org/2000/svg" fill="none" viewBox="0 0 8 8"><path fill="#0A0B0D" d="M.939 2.3c.118.057.24.095.365.114l.263.776A2.538 2.538 0 0 0 .276 4.368c-.64 1.235-.13 2.741 1.14 3.364 1.27.622 2.819.125 3.459-1.11.235-.455.315-.946.258-1.416l.752-.242a1.304 1.304 0 0 0 1.978-.395 1.237 1.237 0 0 0-.571-1.681 1.304 1.304 0 0 0-1.729.554c-.1.195-.144.402-.137.605l-.618.199a2.534 2.534 0 0 0-1.074-.988 2.623 2.623 0 0 0-1.141-.268l-.287-.847A1.2 1.2 0 0 0 2.062.13 1.265 1.265 0 0 0 .385.668 1.2 1.2 0 0 0 .94 2.3Zm.945 4.529a1.475 1.475 0 0 1-.68-2.007c.382-.736 1.305-1.033 2.062-.661a1.475 1.475 0 0 1 .68 2.006c-.38.737-1.304 1.033-2.062.662Z"/></svg>