<svg xmlns="http://www.w3.org/2000/svg" fill="#1652F0" viewBox="0 0 12 12"><path d="M9.818 2.337a8.75 8.75 0 0 0-2.27-.737 6.74 6.74 0 0 0-.29.624 8.012 8.012 0 0 0-2.519 0 6.766 6.766 0 0 0-.29-.624 8.812 8.812 0 0 0-2.271.739C.74 4.582.352 6.769.547 8.925A8.971 8.971 0 0 0 3.33 10.4c.225-.32.425-.66.596-1.015a5.789 5.789 0 0 1-.939-.473c.08-.06.156-.122.23-.182.871.432 1.821.656 2.783.656s1.912-.224 2.783-.656c.075.065.152.127.23.182a5.81 5.81 0 0 1-.94.474c.17.356.37.695.595 1.014a8.93 8.93 0 0 0 2.785-1.474c.229-2.5-.39-4.667-1.635-6.589ZM4.173 7.6c-.543 0-.99-.52-.99-1.159s.432-1.163.988-1.163 1.001.524.992 1.163c-.01.64-.437 1.16-.99 1.16Zm3.654 0c-.543 0-.99-.52-.99-1.159s.433-1.163.99-1.163c.558 0 .999.524.99 1.163-.01.64-.437 1.16-.99 1.16Z"/></svg>