<svg xmlns="http://www.w3.org/2000/svg" fill="#1652F0" viewBox="0 0 16 16"><path d="m3.489.995-.112.247a4.306 4.306 0 0 1-.419.728 4.286 4.286 0 0 1-1.722 1.414l-.247.111.247.112a4.306 4.306 0 0 1 .727.419 4.287 4.287 0 0 1 1.414 1.722l.112.247.111-.247a4.294 4.294 0 0 1 2.142-2.141l.247-.112-.247-.111A4.28 4.28 0 0 1 3.6 1.242L3.49.995Zm0 1.762c.22.27.468.518.738.738-.27.22-.518.468-.738.738a5.186 5.186 0 0 0-.738-.738 5.2 5.2 0 0 0 .738-.738Zm0 7.238-.112.247a4.413 4.413 0 0 1-.419.728 4.286 4.286 0 0 1-1.722 1.414l-.247.111.247.112a4.41 4.41 0 0 1 .727.419 4.286 4.286 0 0 1 1.414 1.722l.112.247.111-.247a4.292 4.292 0 0 1 2.142-2.141l.247-.112-.247-.111a4.16 4.16 0 0 1-.728-.42A4.286 4.286 0 0 1 3.6 10.243l-.111-.247Zm0 1.762c.22.27.468.518.738.738-.27.22-.518.468-.738.738a5.184 5.184 0 0 0-.738-.738 5.2 5.2 0 0 0 .738-.738Zm6-10.762L8.93 2.57a9.28 9.28 0 0 1-.29.72 9.354 9.354 0 0 1-3.87 4.257l-.781.45.78.448a9.354 9.354 0 0 1 4.161 4.978l.559 1.573.558-1.573a9.309 9.309 0 0 1 3.418-4.504 9.44 9.44 0 0 1 .743-.474l.78-.449-.78-.449a9.354 9.354 0 0 1-4.161-4.978L9.49.996Zm0 4.11a10.415 10.415 0 0 0 2.54 2.864c-.616.447-2.017 1.848-2.54 2.917-.523-1.07-1.925-2.47-2.541-2.917a10.415 10.415 0 0 0 2.54-2.865Z"/></svg>