<svg xmlns="http://www.w3.org/2000/svg" fill="#1652F0" viewBox="0 0 12 12"><path d="M1.4 3.45a2 2 0 0 0 .56.17l.39 1.17a3.71 3.71 0 0 0-.23 6.81c1.91.93 4.23.19 5.2-1.67a3.7 3.7 0 0 0 .38-2.12l1.13-.36a1.96 1.96 0 0 0 2.97-.6c.47-.92.09-2.05-.86-2.52a1.96 1.96 0 0 0-2.6.83c-.15.3-.21.6-.2.91l-.93.3A3.93 3.93 0 0 0 3.9 4.49L3.46 3.2a1.8 1.8 0 0 0-.37-3A1.9 1.9 0 0 0 .58 1c-.47.9-.1 2 .83 2.45Zm1.43 6.8A2.21 2.21 0 0 1 1.8 7.22a2.33 2.33 0 0 1 3.09-.99 2.2 2.2 0 0 1 1.02 3.01 2.33 2.33 0 0 1-3.1 1Z"/></svg>