<svg xmlns="http://www.w3.org/2000/svg" fill="#1652F0" viewBox="0 0 12 12"><path d="M9.82 2.34a8.75 8.75 0 0 0-2.27-.74l-.3.62a8.01 8.01 0 0 0-2.51 0 6.77 6.77 0 0 0-.3-.62c-.78.14-1.54.39-2.26.74A10.1 10.1 0 0 0 .55 8.93a8.97 8.97 0 0 0 2.78 1.47c.23-.32.42-.66.6-1.01a5.79 5.79 0 0 1-.94-.48l.23-.18a6.25 6.25 0 0 0 5.56 0l.23.18c-.3.19-.61.35-.94.48.17.35.37.7.6 1.01 1-.32 1.94-.82 2.78-1.47.23-2.5-.39-4.67-1.63-6.6ZM4.17 7.6c-.54 0-.99-.52-.99-1.16 0-.64.43-1.16 1-1.16.55 0 1 .52.98 1.16 0 .64-.43 1.16-.99 1.16Zm3.66 0c-.55 0-1-.52-1-1.16 0-.64.44-1.16 1-1.16.55 0 1 .52.99 1.16-.01.64-.44 1.16-1 1.16Z"/></svg>