<svg xmlns="http://www.w3.org/2000/svg" fill="#1652F0" viewBox="0 0 12 12"><path d="M6.15 1.7A3.94 3.94 0 0 0 2.2 5.64v.6a.7.7 0 0 1-1.4 0v-.6A5.34 5.34 0 0 1 8.7.95a.7.7 0 1 1-.68 1.23 3.9 3.9 0 0 0-1.87-.48Zm4.56 1.17a.7.7 0 0 0-1.2.73c.37.6.57 1.29.57 2.04v1.28a.7.7 0 1 0 1.4 0V5.64c0-1-.27-1.96-.77-2.77Z"/><path d="M6.32 4.05a1.78 1.78 0 0 0-1.37.45A.7.7 0 0 1 4 3.47c.64-.59 1.51-.9 2.45-.82a3.24 3.24 0 0 1 2.86 3.27 7.98 7.98 0 0 1-2.27 5.58.7.7 0 0 1-1-1 6.58 6.58 0 0 0 1.87-4.58c0-.97-.7-1.79-1.6-1.87Z"/><path d="M6.15 5.1c.38 0 .7.32.7.7 0 2-1.02 3.84-2.68 4.92L3 11.46a.7.7 0 0 1-.76-1.17l1.16-.75A4.46 4.46 0 0 0 5.45 5.8c0-.38.31-.7.7-.7Zm-1.78.7a.7.7 0 0 0-.7-.7l-.7.7v.02c0 .03 0 .08-.02.15-.03.13-.08.33-.2.55-.22.43-.68 1-1.7 1.41a.7.7 0 0 0 .5 1.3A4.45 4.45 0 0 0 4 7.16a3.52 3.52 0 0 0 .37-1.34V5.8h-.7.7Z"/></svg>