<svg xmlns="http://www.w3.org/2000/svg" fill="none" viewBox="0 0 24 24"><path fill="#0A0B0D" d="M20.744 14.224c-.374-2.63-2.279-4.665-4.457-6.323-.223-.17-4.902-4.033-3.41-7.901 0 0-7.196 2.81-5.514 12.959-2.184-2.003-1.524-5.058-1.524-5.058-4.2 5.547-2.894 9.68-1.428 11.976C5.876 22.337 8.65 24 11.825 24a8.82 8.82 0 0 0 3.587-.755c.012 0 6.267-2.46 5.332-9.021Zm-7.632 7.29s-3.855.95-6.273-2.014c0 0 4.156-.239 6-4.5 0 0-.14 2.178-1.014 4 0 0 6.646-3.868 2.111-9.649 0 0 4.602 1.6 4.596 5.967.006 0 .29 4.67-5.42 6.195Z"/></svg>