<svg xmlns="http://www.w3.org/2000/svg" fill="#1652F0" viewBox="0 0 12 12"><path d="M4.652 4.745a2.125 2.125 0 1 0 0-4.25 2.125 2.125 0 0 0 0 4.25Zm0-1.2a.925.925 0 1 1 0-1.85.925.925 0 0 1 0 1.85Zm4.165 6.75c-.394-2.739-2.11-4.8-4.165-4.8-2.057 0-3.772 2.061-4.165 4.8a8.435 8.435 0 0 0-.085 1.2h8.5c0-.41-.03-.812-.085-1.2Zm-7.116 0c.158-.931.492-1.738.925-2.349.611-.863 1.345-1.25 2.026-1.25.68 0 1.414.387 2.026 1.25.432.61.766 1.418.924 2.35h-5.9Zm9.875-6.875-.849-.85-2.075 2.077-.826-.826-.849.848 1.675 1.675 2.924-2.925Z"/></svg>