<svg xmlns="http://www.w3.org/2000/svg" fill="#1652F0" viewBox="0 0 16 16"><path d="M8.039 2.76a4.802 4.802 0 0 0-4.801 4.808.757.757 0 1 1-1.514 0A6.316 6.316 0 0 1 8.04 1.245c1.09 0 2.115.275 3.01.766a.758.758 0 0 1-.726 1.33 4.732 4.732 0 0 0-2.284-.58Zm5.381 1.502a.756.756 0 1 0-1.261.838 5.006 5.006 0 0 1 .697 3.835.758.758 0 0 0 1.48.321c.396-1.825 0-3.61-.916-4.994Z"/><path d="M10.239 7.884c0-1.974-2.312-3.006-3.687-1.754a.756.756 0 1 1-1.019-1.12c2.45-2.23 6.22-.276 6.22 2.875a9.5 9.5 0 0 1-2.697 6.633.756.756 0 1 1-1.081-1.06 7.985 7.985 0 0 0 2.264-5.573Z"/><path d="M8.038 6.999c.418 0 .757.339.757.757 0 3.341-2.15 5.495-4.606 6.752a.758.758 0 0 1-.689-1.35c2.176-1.113 3.782-2.846 3.782-5.402 0-.418.338-.757.756-.757ZM5.78 8.266c.028-.141.042-.259.05-.346.04-.713-.36-.92-.748-.92-.262-.004-.787.185-.787.973-.033.167-.101.41-.241.683-.273.532-.843 1.235-2.087 1.728a.758.758 0 0 0 .557 1.409c1.593-.631 2.44-1.593 2.877-2.446a4.17 4.17 0 0 0 .379-1.08Z"/></svg>