<svg xmlns="http://www.w3.org/2000/svg" fill="#1652F0" viewBox="0 0 17 17"><path d="M3.25 2.3a.94.94 0 0 0-.94.95V6.5H0V3.25C0 1.45 1.46 0 3.25 0H6.5v2.3H3.25Zm3.41 4.36c0 1.02-.61 1.84-1.37 1.84-.76 0-1.38-.82-1.38-1.84 0-1.01.62-1.83 1.38-1.83.76 0 1.37.82 1.37 1.83Zm-.99 2.76a2.91 2.91 0 0 0 5.66 0H5.67Zm6.04-.92c.76 0 1.38-.82 1.38-1.84 0-1.01-.62-1.83-1.38-1.83-.76 0-1.37.82-1.37 1.83 0 1.02.61 1.84 1.37 1.84Zm2.04-6.2c.52 0 .94.43.94.95V6.5H17V3.25C17 1.45 15.54 0 13.75 0H10.5v2.3h3.25Zm0 12.4c.52 0 .94-.43.94-.95V10.5H17v3.25c0 1.8-1.46 3.25-3.25 3.25H10.5v-2.3h3.25Zm-10.5 0a.94.94 0 0 1-.94-.95V10.5H0v3.25C0 15.55 1.46 17 3.25 17H6.5v-2.3H3.25Z"/></svg>