<svg xmlns="http://www.w3.org/2000/svg" fill="#1652F0" viewBox="0 0 24 24"><path d="M7.989 1.995h-2a4 4 0 0 0-4 4v2h2v-2a2 2 0 0 1 2-2h2v-2Zm-6 16v-2h2v2a2 2 0 0 0 2 2h2v2h-2a4 4 0 0 1-4-4Zm18-2v2a2 2 0 0 1-2 2h-2v2h2a4 4 0 0 0 4-4v-2h-2Zm2-8h-2v-2a2 2 0 0 0-2-2h-2v-2h2a4 4 0 0 1 4 4v2Zm-10 10c-2.14 0-3.888-1.77-4-4h8c-.112 2.23-1.86 4-4 4Zm-2-8.5c0 1.38-.896 2.5-2 2.5-1.105 0-2-1.12-2-2.5s.895-2.5 2-2.5c1.104 0 2 1.12 2 2.5Zm6 2.5c1.104 0 2-1.12 2-2.5s-.896-2.5-2-2.5c-1.105 0-2 1.12-2 2.5s.895 2.5 2 2.5Z"/></svg>