<svg xmlns="http://www.w3.org/2000/svg" fill="#1652F0" viewBox="0 0 12 12"><path d="M6.026 2.259c-1.862 0-3.37 1.528-3.37 3.416a.752.752 0 0 1-.746.757.752.752 0 0 1-.747-.757c0-2.724 2.176-4.93 4.863-4.93.838 0 1.628.215 2.319.598.362.2.494.66.297 1.027a.741.741 0 0 1-1.014.3 3.286 3.286 0 0 0-1.602-.411Zm4.141.833a.74.74 0 0 0-1.035-.213.763.763 0 0 0-.21 1.05c.49.747.706 1.721.49 2.73a.757.757 0 0 0 .571.9c.403.09.8-.17.888-.578.304-1.42 0-2.81-.704-3.89Z"/><path d="M7.469 5.912c0-1.334-1.532-1.993-2.42-1.176a.74.74 0 0 1-1.054-.05.764.764 0 0 1 .05-1.07c1.946-1.793 4.917-.214 4.917 2.296a7.36 7.36 0 0 1-2.05 5.106.74.74 0 0 1-1.055.011.764.764 0 0 1-.011-1.07 5.837 5.837 0 0 0 1.623-4.047Z"/><path d="M6.026 5.06a.75.75 0 0 1 .746.756c0 2.603-1.66 4.27-3.512 5.23a.742.742 0 0 1-1.005-.33.762.762 0 0 1 .326-1.018c1.576-.816 2.698-2.063 2.698-3.882 0-.418.335-.757.747-.757Z"/><path d="M4.581 5.867c.018-.422-.311-.808-.745-.808a.752.752 0 0 0-.747.745c0 .01-.003.06-.018.137a1.796 1.796 0 0 1-.162.463c-.182.359-.57.854-1.448 1.206a.76.76 0 0 0-.42.982c.152.389.586.58.97.425 1.221-.49 1.883-1.244 2.226-1.923a3.32 3.32 0 0 0 .298-.86 2.69 2.69 0 0 0 .046-.367Z"/></svg>