<svg xmlns="http://www.w3.org/2000/svg" fill="#1652F0" viewBox="0 0 24 24"><path d="M12.22 2.8c-5.03 0-8.98 3.84-8.98 8.45v1.25a1.3 1.3 0 1 1-2.6 0v-1.25C.64 5.08 5.88.2 12.22.2c1.98 0 3.86.47 5.5 1.33a1.3 1.3 0 0 1-1.2 2.3 9.3 9.3 0 0 0-4.3-1.03Zm8.09 2.3a1.3 1.3 0 0 1 1.8.4 10.64 10.64 0 0 1 1.69 5.75v2.68a1.3 1.3 0 1 1-2.6 0v-2.68c0-1.59-.47-3.08-1.29-4.36a1.3 1.3 0 0 1 .4-1.8Zm-7.68 2.6a4.35 4.35 0 0 0-3.26 1.02 1.3 1.3 0 1 1-1.7-1.97 6.95 6.95 0 0 1 5.2-1.64 6.74 6.74 0 0 1 6.13 6.7c0 1.78-.3 3.54-.88 5.2a16.6 16.6 0 0 1-4.1 6.42 1.3 1.3 0 1 1-1.81-1.86 13.87 13.87 0 0 0 3.45-5.42c.49-1.38.74-2.85.74-4.34 0-2.06-1.6-3.9-3.76-4.1Zm-5.88 2.57c.71 0 1.3.58 1.3 1.3h-1.3 1.3v.04a2.73 2.73 0 0 1-.02.25 7.02 7.02 0 0 1-.8 2.5c-.8 1.5-2.36 3.17-5.27 4.27a1.3 1.3 0 0 1-.92-2.44c2.34-.88 3.4-2.12 3.9-3.06a4.43 4.43 0 0 0 .5-1.57c.02-.71.6-1.29 1.3-1.29Zm5.47 0c.72 0 1.3.58 1.3 1.3 0 4.15-2.22 7.98-5.85 10.2l-2.53 1.56a1.3 1.3 0 0 1-1.36-2.22l2.54-1.56a9.38 9.38 0 0 0 4.6-7.98c0-.72.58-1.3 1.3-1.3Z"/></svg>