<svg xmlns="http://www.w3.org/2000/svg" fill="none" viewBox="0 0 8 8"><path fill="#0A0B0D" d="M1.586 1.103a.483.483 0 0 0-.483.483V3.06H0V1.586C0 .71.71 0 1.586 0H3.06v1.103H1.586Zm1.552 2.035c0 .476-.29.862-.647.862-.357 0-.646-.386-.646-.862s.29-.862.646-.862c.357 0 .647.386.647.862Zm-.439 1.293a1.367 1.367 0 0 0 2.602 0H2.7ZM5.509 4c.357 0 .646-.386.646-.862s-.29-.862-.646-.862c-.357 0-.647.386-.647.862S5.152 4 5.51 4Zm.905-2.897c.266 0 .483.217.483.483V3.06H8V1.586C8 .71 7.29 0 6.414 0H4.94v1.103h1.474Zm0 5.794a.483.483 0 0 0 .483-.483V4.94H8v1.474C8 7.29 7.29 8 6.414 8H4.94V6.897h1.474Zm-4.828 0a.483.483 0 0 1-.483-.483V4.94H0v1.474C0 7.29.71 8 1.586 8H3.06V6.897H1.586Z"/></svg>