<svg xmlns="http://www.w3.org/2000/svg" fill="#1652F0" viewBox="0 0 24 24"><path d="M12.218 2.8c-5.03 0-8.983 3.845-8.983 8.451v1.25a1.3 1.3 0 1 1-2.6 0v-1.25C.635 5.081 5.883.2 12.218.2c1.986 0 3.858.475 5.497 1.325a1.3 1.3 0 0 1-1.197 2.308 9.304 9.304 0 0 0-4.3-1.033Zm8.088 2.299a1.3 1.3 0 0 1 1.796.392 10.64 10.64 0 0 1 1.698 5.76v2.677a1.3 1.3 0 1 1-2.6 0v-2.677a8.04 8.04 0 0 0-1.286-4.356 1.3 1.3 0 0 1 .392-1.796ZM12.63 7.71a4.35 4.35 0 0 0-3.256 1.023 1.3 1.3 0 1 1-1.698-1.97 6.949 6.949 0 0 1 5.196-1.641c3.533.322 6.116 3.316 6.116 6.683 0 1.782-.297 3.543-.88 5.204a16.468 16.468 0 0 1-4.103 6.424 1.3 1.3 0 1 1-1.81-1.867 13.869 13.869 0 0 0 3.457-5.413l.002-.004c.485-1.38.734-2.85.734-4.344 0-2.057-1.593-3.897-3.754-4.094h-.004Zm-5.883 2.57a1.3 1.3 0 0 1 1.3 1.3h-1.3c1.3 0 1.3.003 1.3.003v.037a2.732 2.732 0 0 1-.016.252c-.014.153-.042.36-.093.609a7.023 7.023 0 0 1-.703 1.898c-.808 1.494-2.366 3.163-5.278 4.255a1.3 1.3 0 0 1-.914-2.434c2.335-.876 3.4-2.126 3.904-3.058a4.38 4.38 0 0 0 .445-1.192 2.937 2.937 0 0 0 .055-.383v-.002a1.3 1.3 0 0 1 1.3-1.284Zm5.47 0a1.3 1.3 0 0 1 1.3 1.3c0 4.152-2.217 7.982-5.842 10.2h-.001l-2.535 1.556a1.3 1.3 0 0 1-1.36-2.216l2.538-1.557c2.89-1.768 4.6-4.777 4.6-7.982a1.3 1.3 0 0 1 1.3-1.3Z"/></svg>