<svg xmlns="http://www.w3.org/2000/svg" fill="none" viewBox="0 0 8 8"><path fill="#0A0B0D" d="M4.098 1.133a2.63 2.63 0 0 0-2.63 2.63v.399a.467.467 0 1 1-.932 0v-.4A3.563 3.563 0 0 1 5.8.636a.467.467 0 1 1-.45.817 2.583 2.583 0 0 0-1.252-.319Zm3.042.781a.467.467 0 0 0-.796.488c.241.392.376.858.376 1.36v.852a.467.467 0 1 0 .933 0v-.851c0-.673-.18-1.307-.513-1.849Z"/><path fill="#0A0B0D" d="M4.213 2.698a1.187 1.187 0 0 0-.916.303.467.467 0 1 1-.627-.69 2.12 2.12 0 0 1 1.63-.542c1.125.109 1.906 1.103 1.906 2.175 0 .569-.09 1.13-.264 1.66v.001a5.323 5.323 0 0 1-1.249 2.056.467.467 0 0 1-.664-.655 4.39 4.39 0 0 0 1.244-3.062c0-.646-.469-1.188-1.061-1.246Z"/><path fill="#0A0B0D" d="M4.098 3.402c.258 0 .467.208.467.466a3.903 3.903 0 0 1-1.788 3.277l-.768.497a.467.467 0 0 1-.507-.783l.768-.498a2.97 2.97 0 0 0 1.362-2.493c0-.258.209-.466.466-.466Zm-1.183.466a.467.467 0 0 0-.466-.466l-.467.46-.001.019a1.414 1.414 0 0 1-.145.466c-.147.287-.457.67-1.14.94a.467.467 0 0 0 .342.868c.899-.355 1.38-.898 1.628-1.382a2.346 2.346 0 0 0 .244-.81 1.334 1.334 0 0 0 .005-.082V3.87H2.45h.466Z"/></svg>