<svg xmlns="http://www.w3.org/2000/svg" fill="none" viewBox="0 0 16 16"><path fill="#1652F0" d="M13.936 9.482c-.251-1.753-1.533-3.11-2.998-4.215C10.788 5.154 7.64 2.58 8.645 0c0 0-4.842 1.874-3.71 8.64C3.466 7.303 3.91 5.266 3.91 5.266c-2.826 3.698-1.947 6.454-.961 7.984C3.934 14.891 5.8 16 7.936 16a5.98 5.98 0 0 0 2.414-.503c.007 0 4.215-1.64 3.586-6.015Zm-5.134 4.86S6.21 14.976 4.582 13c0 0 2.796-.16 4.037-3 0 0-.094 1.452-.683 2.667 0 0 4.47-2.579 1.42-6.433 0 0 3.096 1.066 3.092 3.978.004 0 .195 3.114-3.646 4.13Z"/></svg>