<svg xmlns="http://www.w3.org/2000/svg" fill="#1652F0" viewBox="0 0 16 16"><path d="M8.15 6.58a1 1 0 0 0-1 1 6.07 6.07 0 0 1-2.78 5.1L2.79 13.7a1 1 0 0 0 1.09 1.68l1.57-1.02a8.07 8.07 0 0 0 3.7-6.78 1 1 0 0 0-1-1Z"/><path d="M8.37 5.2a2.49 2.49 0 0 1 2.15 2.53 8.7 8.7 0 0 1-.45 2.8v.02a9.05 9.05 0 0 1-2.1 3.48 1 1 0 1 0 1.43 1.4 11.05 11.05 0 0 0 3.12-7.7c0-2.23-1.62-4.3-3.95-4.51a4.4 4.4 0 0 0-3.39 1.12 1 1 0 1 0 1.34 1.49 2.4 2.4 0 0 1 1.85-.62Zm4.7-1.99a1 1 0 0 1 1.37.34 7.36 7.36 0 0 1 1.06 3.82V9.1a1 1 0 1 1-2 0V7.37c0-1.02-.28-1.98-.77-2.79a1 1 0 0 1 .34-1.37Z"/><path d="M8.13 2a5.37 5.37 0 0 0-5.36 5.37v.81a1 1 0 1 1-2 0v-.81A7.37 7.37 0 0 1 11.65.89a1 1 0 0 1-.95 1.76A5.37 5.37 0 0 0 8.13 2Z"/><path d="M4.74 6.58a1 1 0 0 1 1 1h-1 1v.03a1.95 1.95 0 0 1 0 .17 4.88 4.88 0 0 1-.5 1.68 6.2 6.2 0 0 1-3.37 2.86 1 1 0 0 1-.74-1.86 4.15 4.15 0 0 0 2.32-1.91 2.88 2.88 0 0 0 .3-.98 1 1 0 0 1 1-1Z"/></svg>