<svg xmlns="http://www.w3.org/2000/svg" fill="#1652F0" viewBox="0 0 24 24"><path d="M13.381.995s-.956.336-2.097 1.202C9.84 3.293 8.098 5.24 7.623 8.434a11.007 11.007 0 0 0-.1.946c-.01.138-.016.278-.02.42-.027.932.048 1.954.255 3.074a4.388 4.388 0 0 1-1.242-1.627c-.67-1.52-.312-3.01-.312-3.01a12.64 12.64 0 0 0-.664.835 11.368 11.368 0 0 0-1.187 2.034c-2.561 5.703.712 11.89 7.955 11.89 4.255 0 8.18-2.81 8.18-7.5 0-3.052-1.802-4.838-3.604-6.623-1.601-1.587-3.203-3.173-3.537-5.648a7.911 7.911 0 0 1 .034-2.23Zm-1.966 3.786c.057-.063.115-.125.173-.186.166.61.394 1.184.674 1.726.774 1.495 1.9 2.663 2.858 3.618l.207.207c1.938 1.931 3.162 3.151 3.162 5.35 0 3.296-2.717 5.5-6.181 5.5-3.513 0-5.597-1.703-6.407-3.765-.418-1.062-.537-2.324-.264-3.651.244.29.525.57.848.837l1.217 1.003 2.173-2.092-.15-.816c-.742-4.024.47-6.37 1.69-7.73Z"/></svg>