<svg xmlns="http://www.w3.org/2000/svg" fill="#1652F0" viewBox="0 0 16 16"><path d="M8.93.495s-.79.312-1.651 1.279C6.568 2.57 5.81 3.813 5.41 5.69l-.012.057c-.047.229-.09.467-.126.715l-.005.037a14.83 14.83 0 0 0-.141 2.095 3.008 3.008 0 0 1-.706-.841c-.632-1.121-.346-2.32-.346-2.32-.112.13-.219.262-.32.395a7.705 7.705 0 0 0-1.08 1.919c-1.446 3.784.78 7.747 5.53 7.747 2.878 0 5.534-1.915 5.534-5.113 0-2.08-1.22-3.298-2.439-4.515-1.008-1.007-2.016-2.014-2.333-3.508A5.226 5.226 0 0 1 8.931.495Zm-2.203 8.1c0-2.264.492-3.772 1.04-4.756.058.133.12.263.185.391.541 1.055 1.328 1.874 1.976 2.526l.11.112c1.339 1.345 2.1 2.11 2.1 3.514 0 2.094-1.7 3.513-3.933 3.513-2.279 0-3.593-1.104-4.103-2.412a4.076 4.076 0 0 1-.241-1.874c.077.073.158.145.243.216l1.054.877 1.57-1.522v-.585Z"/></svg>