<svg xmlns="http://www.w3.org/2000/svg" fill="#1652F0" viewBox="0 0 16 16"><path d="M7.489 6.245c0 .69-.336 1.25-.75 1.25s-.75-.56-.75-1.25.336-1.25.75-1.25.75.56.75 1.25Zm2.5 0c0 .69-.336 1.25-.75 1.25s-.75-.56-.75-1.25.336-1.25.75-1.25.75.56.75 1.25Z"/><path d="M2.46 5.313A5.51 5.51 0 0 1 7.934.495h.111a5.51 5.51 0 0 1 5.473 4.818l.96 7.664c.152 1.212-1.23 2.013-2.21 1.28a1.391 1.391 0 0 0-1.663 0l-.892.666a2.882 2.882 0 0 1-3.447 0l-.891-.665a1.391 1.391 0 0 0-1.664 0c-.98.732-2.362-.069-2.21-1.28l.96-7.665Zm5.473-3.246a3.936 3.936 0 0 0-3.909 3.441l-.91 7.268A2.971 2.971 0 0 1 6.318 13l.892.665a1.303 1.303 0 0 0 1.558 0L9.659 13a2.971 2.971 0 0 1 3.205-.224l-.91-7.268a3.936 3.936 0 0 0-3.91-3.441h-.11Z"/></svg>