<svg xmlns="http://www.w3.org/2000/svg" fill="#1652F0" viewBox="0 0 16 16"><path d="M14.989 7.995a7 7 0 1 1-14 0 7 7 0 0 1 14 0Zm-10.27-.8a10.782 10.782 0 0 1 1.188-4.184 5.407 5.407 0 0 0-3.26 4.184h2.071Zm0 1.6H2.647a5.407 5.407 0 0 0 3.259 4.184 10.782 10.782 0 0 1-1.189-4.184Zm1.604 0a9.18 9.18 0 0 0 1.666 4.528 9.18 9.18 0 0 0 1.665-4.528h-3.33Zm3.331-1.6A9.181 9.181 0 0 0 7.99 2.667a9.181 9.181 0 0 0-1.666 4.528h3.331Zm1.605 1.6a10.783 10.783 0 0 1-1.188 4.184 5.407 5.407 0 0 0 3.259-4.184h-2.07Zm2.07-1.6a5.407 5.407 0 0 0-3.258-4.184 10.78 10.78 0 0 1 1.188 4.184h2.07Z"/></svg>