<svg xmlns="http://www.w3.org/2000/svg" fill="#1652F0" viewBox="0 0 16 16"><path d="m3.329.995 1.617.052-.044.144a7.016 7.016 0 0 0-.115.448l-.027.113a14.91 14.91 0 0 0-.08.44c1.2-.056 2.27-.186 3.347-.457l.14-.035.012 1.48-.093.017a24.402 24.402 0 0 1-2.004.271l1.488.378-.053.124a6.598 6.598 0 0 0-.154.43c1.187.443 1.974 1.427 1.974 2.7 0 .787-.224 1.567-.78 2.203a3.03 3.03 0 0 1-.224.23c-.558.522-1.37.912-2.496 1.094l-.075.012-.826-1.36.177-.02c.982-.112 1.66-.423 2.092-.825.43-.4.622-.897.622-1.398 0-.56-.305-1.068-.902-1.35-.552 1.386-1.34 2.472-2.113 3.158a16.38 16.38 0 0 0 .214.73l.035.111-1.406.433-.035-.107a8.208 8.208 0 0 1-.093-.31c-.06.028-.12.056-.182.083a3.45 3.45 0 0 1-1.356.306c-.025 0-.05 0-.075-.002-.373-.014-.721-.142-.982-.406C.654 9.4.49 8.975.49 8.403c0-1.427 1.1-2.884 2.544-3.62l.004-.073c.02-.365.047-.729.078-1.081a23.966 23.966 0 0 1-.36 0c-.377-.006-.836-.03-1.227-.051h-.002c-.171-.01-.33-.018-.463-.024L.957 3.55.92 2.07l.133.019c.368.053 1.263.139 1.888.139l.313-.001.05-.467c.022-.216.041-.455.031-.639L3.33.995ZM5.84 3.49c-.445.04-.9.072-1.342.095-.023.235-.044.475-.06.715a6.858 6.858 0 0 1 1.518-.156 5.456 5.456 0 0 0 .07-.548l.005-.123a34.33 34.33 0 0 1-.19.017ZM4.39 5.674c.002.536.035 1.022.089 1.47a6.34 6.34 0 0 0 1.055-1.677 4.755 4.755 0 0 0-1.144.207ZM2.235 7.238c-.195.318-.298.63-.298.885 0 .167.032.268.082.328.048.056.129.096.28.096.246 0 .564-.102.91-.303a15.501 15.501 0 0 1-.194-1.88l-.056.046a3.442 3.442 0 0 0-.724.828Zm5.818 7.757h1.671l.539-1.583h2.944l.548 1.583h1.734l-2.848-7.81H10.88l-2.826 7.81Zm3.662-5.848.977 2.787h-1.927l.95-2.787Z"/></svg>