<svg xmlns="http://www.w3.org/2000/svg" fill="none" viewBox="0 0 24 24"><path fill="#1652F0" d="M12.006 0c-3.23 0-6.41.68-8 4-1.54 3.22-3 18-3 18-.11.98 1.43 2 3.12 2 1.69 0 2.78-.55 3.87-1.36 1.06.67 2.07 1.36 4.09 1.36s3.03-.71 4.09-1.38c1.09.82 2.18 1.38 3.83 1.38s3.12-.89 3-2c-.22-2.12-1.59-15.05-3-18-1.59-3.32-4.77-4-8-4Zm8 18.95c-2.71 0-4.23.97-5.34 1.68-.89.57-1.38.88-2.58.88-1.2 0-1.7-.31-2.61-.88-1.12-.71-2.65-1.67-5.35-1.67h-.27c.65-5.62 1.64-12.26 2.41-13.87.88-1.83 2.54-2.58 5.75-2.58s4.87.75 5.75 2.58c.51 1.06 1.41 5.32 2.4 13.87h-.15l-.01-.01Z"/><path fill="#1652F0" d="M9.506 10.25c.828 0 1.5-.895 1.5-2s-.672-2-1.5-2c-.829 0-1.5.895-1.5 2s.671 2 1.5 2Zm5 0c.828 0 1.5-.895 1.5-2s-.672-2-1.5-2c-.829 0-1.5.895-1.5 2s.671 2 1.5 2Z"/></svg>