<svg xmlns="http://www.w3.org/2000/svg" fill="#1652F0" viewBox="0 0 16 16"><path d="M8.989 10.895h3v1h-3v-1Z"/><path d="M13.789 3.395a2.3 2.3 0 0 0-2.3-2.3h-.113c-1.04 0-2.015.502-2.619 1.348L7.99 3.519l-.77-1.076a3.219 3.219 0 0 0-2.619-1.348H4.49a2.3 2.3 0 0 0-1.744 3.8H.99v10h14v-10h-1.757c.347-.403.557-.927.557-1.5Zm-2.3-.7a.7.7 0 0 1 0 1.4H9.543l.516-.722a1.619 1.619 0 0 1 1.317-.678h.113Zm1.9 4.9h-10.8v-1.1h10.8v1.1Zm-10.8 1.6h10.8v4.1h-10.8v-4.1Zm1.2-5.8a.7.7 0 0 1 .7-.7H4.6c.523 0 1.014.253 1.317.678l.516.722H4.49a.7.7 0 0 1-.7-.7Z"/></svg>