<svg xmlns="http://www.w3.org/2000/svg" fill="#1652F0" viewBox="0 0 24 24"><path d="M12 0C8.79 0 5.6.68 4 4 2.48 7.22 1 22 1 22c-.1.98 1.44 2 3.13 2S6.9 23.45 8 22.64c1.06.67 2.07 1.36 4.09 1.36s3.03-.71 4.09-1.38A5.92 5.92 0 0 0 20 24c1.65 0 3.12-.89 3-2-.22-2.12-1.6-15.05-3-18-1.6-3.32-4.77-4-8-4Zm8 18.95c-2.7 0-4.22.97-5.33 1.68-.9.57-1.38.88-2.58.88-1.2 0-1.7-.31-2.61-.88a9.07 9.07 0 0 0-5.35-1.67h-.27C4.5 13.34 5.5 6.7 6.26 5.09c.89-1.83 2.55-2.58 5.76-2.58 3.2 0 4.87.75 5.75 2.58.5 1.06 1.4 5.32 2.4 13.87h-.15l-.01-.01Z"/><path d="M9.5 10.25c.83 0 1.5-.9 1.5-2s-.67-2-1.5-2c-.82 0-1.5.9-1.5 2s.68 2 1.5 2Zm5 0c.83 0 1.5-.9 1.5-2s-.67-2-1.5-2c-.82 0-1.5.9-1.5 2s.68 2 1.5 2Z"/></svg>