<svg xmlns="http://www.w3.org/2000/svg" fill="#1652F0" viewBox="0 0 24 24"><path d="M24 13.5v-3l-3.39-1.13a8.58 8.58 0 0 0-.66-1.59l1.6-3.2-2.12-2.12-3.2 1.6a8.88 8.88 0 0 0-1.59-.66L13.5 0h-3L9.37 3.39c-.56.17-1.09.4-1.59.66l-3.2-1.6-2.13 2.13 1.6 3.2c-.27.5-.49 1.04-.66 1.59L0 10.5v3l3.39 1.13c.17.56.39 1.09.66 1.59l-1.6 3.2 2.12 2.12 3.2-1.6c.5.27 1.04.49 1.59.66L10.5 24h3l1.13-3.39a8.58 8.58 0 0 0 1.59-.66l3.2 1.6 2.12-2.12-1.6-3.2c.27-.5.49-1.04.66-1.59L24 13.5ZM17.5 12a5.51 5.51 0 0 1-11 0 5.51 5.51 0 0 1 11 0Z"/></svg>