<svg xmlns="http://www.w3.org/2000/svg" fill="#1652F0" viewBox="0 0 24 24"><path d="M12 0C8.79 0 5.6.68 4 4 2.48 7.22 1 22 1 22c-.1.98 1.44 2 3.13 2S6.9 23.45 8 22.64c1.06.67 2.07 1.36 4.09 1.36s3.03-.71 4.09-1.38A5.92 5.92 0 0 0 20 24c1.65 0 3.12-.89 3-2-.22-2.12-1.6-15.05-3-18-1.6-3.32-4.77-4-8-4ZM8 8.25c0-1.1.68-2 1.5-2 .84 0 1.5.9 1.5 2s-.66 2-1.5 2c-.82 0-1.5-.9-1.5-2Zm4 6.13A2.38 2.38 0 0 1 9.64 12h4.75A2.38 2.38 0 0 1 12 14.38Zm2.5-4.13c-.82 0-1.5-.9-1.5-2s.68-2 1.5-2c.84 0 1.5.9 1.5 2s-.66 2-1.5 2Z"/></svg>