<svg xmlns="http://www.w3.org/2000/svg" fill="#1652F0" viewBox="0 0 12 12"><path d="M6 1C3.237 1 1 3.237 1 6c0 2.762 2.237 5 5 5a5 5 0 0 0 5-5c0-2.763-2.238-5-5-5Zm3.694 4.375H8.48c-.06-.981-.26-1.875-.568-2.594a3.749 3.749 0 0 1 1.782 2.594ZM6 9.75c-.281 0-1.075-1.106-1.219-3.125H7.22C7.075 8.644 6.28 9.75 6 9.75ZM4.781 5.375C4.925 3.356 5.72 2.25 6 2.25c.281 0 1.075 1.106 1.219 3.125H4.78Zm-.693-2.594c-.3.719-.507 1.613-.57 2.594H2.307a3.749 3.749 0 0 1 1.782-2.594ZM2.306 6.625H3.52c.062.981.262 1.875.569 2.594a3.749 3.749 0 0 1-1.782-2.594Zm5.606 2.594c.3-.719.507-1.613.57-2.594h1.212a3.749 3.749 0 0 1-1.782 2.594Z"/></svg>