<svg xmlns="http://www.w3.org/2000/svg" fill="none" viewBox="0 0 24 24"><path fill="#0A0B0D" d="M12 2C5.37 2 0 7.257 0 13.747c0 3.216 1.32 6.124 3.45 8.238L5.58 19.9C3.99 18.314 3 16.141 3 13.747c0-4.86 4.035-8.81 9-8.81s9 3.95 9 8.81c0 2.394-.99 4.567-2.58 6.168L20.55 22c2.13-2.13 3.45-5.037 3.45-8.253C24 7.257 18.63 2 12 2Z"/><path fill="#0A0B0D" d="M14.505 13.748c0-1.351-1.125-2.453-2.505-2.453s-2.505 1.102-2.505 2.453c0 1.35 1.125 2.452 2.505 2.452.12 0 .225-.015.345-.03l3.6 3.525 2.115-2.07-3.6-3.525c.015-.132.045-.235.045-.352Z"/></svg>