<svg xmlns="http://www.w3.org/2000/svg" fill="#1652F0" viewBox="0 0 24 24"><path d="M10.989 8.495c0 .829-.448 1.5-1 1.5-.553 0-1-.671-1-1.5 0-.828.447-1.5 1-1.5s1 .672 1 1.5m4 0c0 .829-.448 1.5-1 1.5-.553 0-1-.671-1-1.5 0-.828.447-1.5 1-1.5s1 .672 1 1.5"/><path d="M3.916 8.024C4.418 4.009 7.846.995 11.913.995h.152c4.066 0 7.495 3.014 7.996 7.029l1.411 11.301c.22 1.766-1.8 2.929-3.228 1.858a2.03 2.03 0 0 0-2.437 0l-1.3.974a4.2 4.2 0 0 1-5.036 0l-1.3-.974a2.03 2.03 0 0 0-2.437 0c-1.429 1.071-3.45-.092-3.229-1.858zm7.997-5.025C8.863 3 6.292 5.26 5.916 8.271L4.505 19.572l-.001.007.006.004.004.003h.002l.006-.004a4.06 4.06 0 0 1 4.861 0l1.3.974a2.18 2.18 0 0 0 2.612 0l1.3-.974a4.06 4.06 0 0 1 4.86 0l.006.004.007-.003.003-.002.003-.002-.001-.007-1.411-11.301c-.376-3.011-2.948-5.272-5.998-5.272z"/></svg>