<svg xmlns="http://www.w3.org/2000/svg" fill="none" viewBox="0 0 8 9"><path fill="#0A0B0D" d="M4.5 1.333V0h-1v1.333H2.18C.973 1.333 0 2.307 0 3.513V6.58a1.42 1.42 0 0 0 2.54.88L3.687 6h.62l1.146 1.46a1.42 1.42 0 0 0 2.54-.88V3.513c0-1.206-.973-2.18-2.18-2.18H4.5Zm1.611 1.611a.444.444 0 1 1-.889 0 .444.444 0 0 1 .89 0Zm-.444 2.223a.444.444 0 1 1 0-.89.444.444 0 0 1 0 .89Zm.889-.89a.444.444 0 1 1 0-.888.444.444 0 0 1 0 .889Zm-2.223-.444a.444.444 0 1 1 .89 0 .444.444 0 0 1-.89 0ZM2.5 5h-.667v-.833H1V3.5h.833v-.833H2.5V3.5h.833v.667H2.5V5Z"/></svg>