<svg xmlns="http://www.w3.org/2000/svg" fill="none" viewBox="0 0 12 12"><path fill="#0A0B0D" fill-rule="evenodd" d="m2.32.4 1.096.035a5.782 5.782 0 0 0-.118.464c-.028.146-.056.306-.083.476 1.028-.042 1.939-.148 2.859-.38l.008 1.008c-.82.155-1.948.266-2.99.318-.027.258-.05.524-.066.79a5.554 5.554 0 0 1 1.414-.15c.037-.184.067-.405.073-.538l1.038.263c-.04.094-.102.276-.157.446.984.333 1.633 1.118 1.633 2.138 0 1.244-.709 2.444-2.775 2.777l-.566-.928c1.628-.184 2.295-1.034 2.295-1.901 0-.523-.304-.99-.879-1.221-.456 1.184-1.127 2.1-1.775 2.66.06.226.124.443.19.654l-.97.298a7.612 7.612 0 0 1-.104-.357c-.409.21-.86.357-1.313.357C.515 7.61 0 7.224 0 6.33 0 5.2.89 4.025 2.07 3.444c.019-.368.047-.738.079-1.093-.092.002-.18.002-.268.002-.323 0-.758-.023-1.123-.042L.38 2.292.354 1.285a13.534 13.534 0 0 0 1.89.112l.024-.22.027-.243C2.31.76 2.328.558 2.32.4Zm-.267 4.09C1.418 4.938.995 5.61.995 6.103c0 .29.11.438.388.438.237 0 .534-.102.844-.291a12.394 12.394 0 0 1-.174-1.758Zm1.041 1.026a5.277 5.277 0 0 0 1.067-1.673 3.967 3.967 0 0 0-1.166.198v.02c0 .54.037 1.02.099 1.455ZM12 11.6h-1.215l-.447-1.288h-2.53l-.44 1.288H6.206L8.44 5.433h1.308L12 11.6ZM9.064 6.677h-.016l-.895 2.62h1.83l-.919-2.62Z" clip-rule="evenodd"/></svg>