<svg xmlns="http://www.w3.org/2000/svg" fill="#1652F0" viewBox="0 0 16 17"><path d="M9 2.66V0H7v2.66H4.36A4.36 4.36 0 0 0 0 7.02v6.14c0 1.21.77 2.29 1.91 2.69 1.15.4 2.42.03 3.17-.93L7.5 12h1l2.42 2.92A2.85 2.85 0 0 0 16 13.16V7.02a4.36 4.36 0 0 0-4.36-4.36H9ZM5 10H3.5V8.25H1.75v-1.5H3.5V5H5v1.75h1.75v1.5H5V10Zm7.42-4.33a.92.92 0 1 1-1.84 0 .92.92 0 0 1 1.84 0Zm-.92 4.58a.92.92 0 1 1 0-1.83.92.92 0 0 1 0 1.83Zm1.83-1.83a.92.92 0 1 1 0-1.84.92.92 0 0 1 0 1.84ZM8.75 7.5a.92.92 0 1 1 1.83 0 .92.92 0 0 1-1.83 0Z"/></svg>