<svg xmlns="http://www.w3.org/2000/svg" fill="#1652F0" viewBox="0 0 24 24"><path fill-rule="evenodd" d="m4.64 1 2.2.07c-.09.25-.14.5-.2.73l-.04.18c-.06.29-.12.6-.17.94 2.06-.09 3.88-.3 5.72-.75l.01 1.98c-1.63.3-3.9.52-5.98.62-.05.51-.1 1.03-.13 1.55a11.3 11.3 0 0 1 2.83-.29c.07-.36.13-.8.15-1.06l2.07.52c-.08.19-.2.54-.31.88 1.97.65 3.26 2.2 3.26 4.2 0 2.44-1.41 4.8-5.55 5.45L7.37 14.2c3.26-.36 4.6-2.03 4.6-3.74 0-1.02-.62-1.94-1.77-2.4a13.28 13.28 0 0 1-3.55 5.23c.12.44.25.87.39 1.29l-1.94.58a5.8 5.8 0 0 1-.21-.7 6 6 0 0 1-2.63.7C1.03 15.16 0 14.4 0 12.65c0-2.22 1.78-4.53 4.14-5.67.04-.72.1-1.45.16-2.15a41.1 41.1 0 0 1-3.54-.11L.7 2.74a27.55 27.55 0 0 0 3.78.22l.05-.43.05-.48c.03-.34.07-.74.05-1.05Zm-.53 8.04c-1.27.87-2.12 2.2-2.12 3.16 0 .57.22.86.78.86.47 0 1.06-.2 1.68-.57a23.93 23.93 0 0 1-.34-3.45Zm2.08 2.01a10.4 10.4 0 0 0 2.13-3.29c-.9.02-1.67.18-2.33.4v.03c0 1.06.07 2 .2 2.86ZM24 23h-2.43l-.9-2.53h-5.06L14.74 23H12.4l4.47-12.11h2.62L24 23Zm-5.87-9.67h-.04l-1.78 5.14h3.66l-1.84-5.14Z" clip-rule="evenodd"/></svg>