<svg xmlns="http://www.w3.org/2000/svg" fill="#1652F0" viewBox="0 0 24 24"><path d="m8.209 1.777-2.67-.083-.042 1.765a27.4 27.4 0 0 1-3.827-.266l.068 2.67c1.05.046 2.1.127 3.15.126-.034.404-.064.817-.088 1.231-2.118 1.105-3.758 3.224-3.758 5.358 0 .873.26 1.557.73 2.021.468.462 1.095.658 1.735.658.732 0 1.45-.187 2.108-.464.059.189.122.376.184.563l2.275-.68.869 1.391c2.932-.46 5.649-2.092 5.649-5.358 0-1.867-1.14-3.32-2.843-4.024.1-.28.22-.55.34-.823l-1.073-.265c.627-.08 1.25-.182 1.87-.297l-.023-2.666c-1.674.41-3.359.668-5.082.76.101-.552.261-1.083.428-1.617Zm-.772 4.136a56.315 56.315 0 0 0 1.76-.124c-.011.12-.03.267-.054.42a10.52 10.52 0 0 0-1.747.166c.012-.155.026-.309.04-.462Zm.593 7.64-.074-.254c1.084-.973 2.162-2.43 2.953-4.262.642.377.95.958.95 1.58 0 .645-.251 1.287-.832 1.813-.81.733-1.94 1.007-2.997 1.123Zm.281-4.89a8.75 8.75 0 0 1-.945 1.488A17.744 17.744 0 0 1 7.3 8.859c.31-.084.647-.154 1.01-.197ZM4.138 10.96c.176-.265.397-.529.656-.775.047.698.128 1.381.23 2.023-.422.217-.79.317-1.06.317-.7 0 .022-1.338.174-1.565Zm11.459-.385L11.24 22.296h3.01l.794-2.27h3.983l.809 2.27h3.1l-4.39-11.72h-2.948Zm.368 6.812 1.043-2.98 1.073 2.98h-2.116Z"/></svg>