<svg xmlns="http://www.w3.org/2000/svg" fill="none" viewBox="0 0 8 8"><path fill="#0A0B0D" d="M6.67 1.333C6.137.227 5.084 0 4.004 0 2.924 0 1.87.227 1.337 1.333c-.513 1.074-1 6-1 6C.304 7.66.81 8 1.377 8c.567 0 .927-.187 1.287-.453.353.22.693.453 1.366.453.674 0 1.014-.233 1.367-.46.36.273.727.46 1.273.46.547 0 1.04-.293 1-.667-.073-.706-.526-5.02-1-6Zm-4 1.414c0-.367.227-.667.5-.667.274 0 .5.3.5.667 0 .366-.226.666-.5.666-.273 0-.5-.3-.5-.666ZM4.004 5.08a.922.922 0 0 1-.92-.92h1.833c0 .507-.413.92-.92.92h.007Zm.833-1.667c-.273 0-.5-.3-.5-.666 0-.367.227-.667.5-.667s.5.3.5.667c0 .366-.227.666-.5.666Z"/></svg>