<svg xmlns="http://www.w3.org/2000/svg" fill="none" viewBox="0 0 8 8"><path fill="#0A0B0D" d="M4 .667a3.332 3.332 0 1 0 0 6.666A3.332 3.332 0 1 0 4 .667Zm2.463 2.916h-.809c-.042-.654-.175-1.25-.379-1.729a2.5 2.5 0 0 1 1.188 1.73ZM4 6.5c-.188 0-.717-.738-.813-2.083h1.626C4.716 5.762 4.188 6.5 4 6.5Zm-.813-2.917C3.284 2.237 3.813 1.5 4 1.5c.188 0 .717.737.813 2.083H3.188Zm-.462-1.729c-.2.48-.337 1.075-.38 1.73h-.808a2.5 2.5 0 0 1 1.188-1.73ZM1.537 4.417h.809c.042.654.175 1.25.379 1.729a2.5 2.5 0 0 1-1.188-1.73Zm3.738 1.729c.2-.48.337-1.075.38-1.73h.808a2.5 2.5 0 0 1-1.188 1.73Z"/></svg>