<svg xmlns="http://www.w3.org/2000/svg" fill="#1652F0" viewBox="0 0 12 13"><path d="M6.75 2V0h-1.5v2H3.27A3.26 3.26 0 0 0 0 5.27v4.6a2.13 2.13 0 0 0 3.81 1.32L5.53 9h.93l1.72 2.19a2.13 2.13 0 0 0 3.81-1.32v-4.6A3.26 3.26 0 0 0 8.72 2H6.75Zm2.42 2.42a.67.67 0 1 1-1.34 0 .67.67 0 0 1 1.34 0ZM8.5 7.75a.67.67 0 1 1 0-1.33.67.67 0 0 1 0 1.33Zm1.33-1.33a.67.67 0 1 1 0-1.34.67.67 0 0 1 0 1.34ZM6.5 5.75a.67.67 0 1 1 1.33 0 .67.67 0 0 1-1.33 0ZM3.75 7.5h-1V6.25H1.5v-1h1.25V4h1v1.25H5v1H3.75V7.5Z"/></svg>