<svg xmlns="http://www.w3.org/2000/svg" fill="#1652F0" viewBox="0 0 24 24"><path d="M9.093 10.995a16.331 16.331 0 0 1 2.896-8.342 16.331 16.331 0 0 1 2.896 8.342H9.093Zm-2.003 0a18.33 18.33 0 0 1 2.789-8.777c-4.193.9-7.41 4.43-7.84 8.777h5.05Zm-5.052 2H7.09a18.33 18.33 0 0 0 2.79 8.777 10.007 10.007 0 0 1-7.84-8.777Zm7.055 0h5.792a16.331 16.331 0 0 1-2.896 8.342 16.332 16.332 0 0 1-2.896-8.342Zm7.795 0a18.33 18.33 0 0 1-2.79 8.777c4.193-.9 7.41-4.429 7.841-8.777h-5.05Zm5.052-2a10.007 10.007 0 0 0-7.841-8.777 18.33 18.33 0 0 1 2.79 8.777h5.05Z"/></svg>