<svg xmlns="http://www.w3.org/2000/svg" fill="#1652F0" viewBox="0 0 16 16"><path fill-rule="evenodd" d="m3.4 1 1.37.04-.12.47c0 .04-.02.08-.03.11l-.1.6c1.28-.05 2.42-.19 3.57-.48L8.1 3c-1.02.2-2.43.34-3.73.4-.04.32-.07.66-.09.99a6.94 6.94 0 0 1 1.77-.19c.05-.23.08-.5.1-.67l1.29.33-.2.55c1.23.42 2.04 1.4 2.04 2.68 0 1.55-.88 3.05-3.47 3.47l-.7-1.16c2.03-.23 2.87-1.3 2.87-2.38 0-.65-.38-1.23-1.1-1.52a8.45 8.45 0 0 1-2.22 3.32c.07.28.15.56.24.82L3.68 10a9.52 9.52 0 0 1-.13-.44c-.5.26-1.07.44-1.64.44C1.14 10 .5 9.52.5 8.4.5 7 1.61 5.53 3.09 4.81c.02-.47.06-.93.1-1.37h-.34c-.4 0-.95-.03-1.4-.05l-.48-.02L.94 2.1a16.92 16.92 0 0 0 2.37.14c0-.1.02-.19.03-.28l.03-.3c.02-.22.04-.47.03-.67Zm-.33 5.11c-.8.56-1.33 1.4-1.33 2.02 0 .36.14.55.49.55.3 0 .67-.13 1.05-.37a15.5 15.5 0 0 1-.21-2.2Zm1.3 1.29c.5-.54.97-1.21 1.33-2.1a4.96 4.96 0 0 0-1.46.28c0 .67.05 1.27.13 1.82ZM15.5 15h-1.52l-.56-1.61h-3.16L9.7 15H8.26l2.79-7.7h1.63L15.5 15Zm-3.67-6.15h-.02l-1.12 3.27h2.29l-1.15-3.27Z" clip-rule="evenodd"/></svg>