<svg xmlns="http://www.w3.org/2000/svg" fill="none" viewBox="0 0 8 8"><path fill="#0A0B0D" d="M8 4.5v-1l-1.147-.38a2.875 2.875 0 0 0-.213-.513l.54-1.08L6.473.82l-1.08.54a2.685 2.685 0 0 0-.513-.213L4.5 0h-1l-.38 1.147a2.64 2.64 0 0 0-.513.213L1.527.82l-.707.707.54 1.08a2.64 2.64 0 0 0-.213.513L0 3.5v1l1.147.38c.053.18.126.353.213.513l-.54 1.08.707.707 1.08-.54c.16.087.333.153.513.213L3.5 8h1l.38-1.147c.18-.053.347-.126.513-.213l1.08.54.707-.707-.54-1.08a3.16 3.16 0 0 0 .213-.513L8 4.5ZM4 5.667a1.667 1.667 0 1 1 .001-3.335A1.667 1.667 0 0 1 4 5.667Z"/></svg>