<svg xmlns="http://www.w3.org/2000/svg" fill="none" viewBox="0 0 16 16"><path fill="#0A0B0D" fill-rule="evenodd" d="m3.4 1 1.37.044a7.81 7.81 0 0 0-.12.463l-.027.117c-.036.182-.071.382-.105.595 1.285-.053 2.424-.186 3.574-.474l.01 1.259c-1.024.194-2.435.333-3.737.397-.033.323-.061.655-.082.988A6.942 6.942 0 0 1 6.05 4.2c.047-.23.084-.506.091-.672l1.297.329c-.05.117-.127.344-.196.557 1.231.416 2.042 1.398 2.042 2.673 0 1.555-.886 3.055-3.47 3.471l-.706-1.16c2.035-.23 2.868-1.293 2.868-2.377 0-.653-.38-1.236-1.098-1.526-.571 1.48-1.409 2.626-2.22 3.325.075.283.156.554.24.818l-1.214.373a9.518 9.518 0 0 1-.13-.447c-.51.264-1.076.447-1.641.447-.77 0-1.413-.482-1.413-1.6C.5 7 1.614 5.532 3.088 4.806c.023-.46.058-.923.098-1.366l-.335.003c-.404 0-.947-.029-1.404-.053a35.92 35.92 0 0 0-.472-.024l-.032-1.26c.38.056 1.297.143 1.94.143l.423-.001.03-.275c.01-.105.022-.207.032-.304.021-.22.042-.47.032-.668Zm-.334 5.114c-.794.558-1.322 1.398-1.322 2.014 0 .362.137.548.485.548.296 0 .667-.129 1.054-.365a15.494 15.494 0 0 1-.217-2.197Zm1.301 1.282a6.596 6.596 0 0 0 1.334-2.092 4.959 4.959 0 0 0-1.458.248v.025c0 .675.047 1.274.124 1.819ZM15.5 15h-1.518l-.56-1.61H10.26L9.711 15H8.256l2.794-7.708h1.635L15.5 15Zm-3.67-6.154h-.02l-1.118 3.274h2.288l-1.15-3.274Z" clip-rule="evenodd"/></svg>