<svg xmlns="http://www.w3.org/2000/svg" fill="#1652F0" viewBox="0 0 24 25"><path d="M13.25 3.99V0h-2.5v3.99H6.54A6.54 6.54 0 0 0 0 10.53v9.21a4.27 4.27 0 0 0 7.62 2.64L11 18h2l3.38 4.38A4.27 4.27 0 0 0 24 19.74v-9.21a6.54 6.54 0 0 0-6.54-6.54h-4.21Zm-6 8.26v2.5h-2v-2.5h-2.5v-2h2.5v-2.5h2v2.5h2.5v2h-2.5Zm11.5-4a1.25 1.25 0 1 1-2.5 0 1.25 1.25 0 0 1 2.5 0Zm0 5.5a1.25 1.25 0 1 1-2.5 0 1.25 1.25 0 0 1 2.5 0Zm1.5-1.5a1.25 1.25 0 1 1 0-2.5 1.25 1.25 0 0 1 0 2.5Zm-5.5 0a1.25 1.25 0 1 1 0-2.5 1.25 1.25 0 0 1 0 2.5Z"/></svg>