<svg xmlns="http://www.w3.org/2000/svg" fill="none" viewBox="0 0 32 32"><path fill="#0A0B0D" fill-rule="evenodd" d="m6.186 1 2.925.09c-.106.335-.184.655-.256.952l-.06.24c-.076.374-.15.784-.222 1.222 2.74-.108 5.17-.381 7.623-.974l.023 2.587c-2.185.398-5.195.684-7.973.816a47.923 47.923 0 0 0-.176 2.028 15.35 15.35 0 0 1 3.357-.392c.14 0 .277.002.413.007.1-.473.18-1.038.195-1.38l2.767.675c-.108.242-.271.708-.419 1.144 2.626.856 4.355 2.873 4.355 5.492 0 3.195-1.89 6.276-7.4 7.131L9.83 18.254c4.342-.473 6.12-2.655 6.12-4.882 0-1.342-.81-2.54-2.343-3.135-1.219 3.04-3.006 5.395-4.735 6.83.159.582.331 1.139.508 1.682l-2.586.765a18.998 18.998 0 0 1-.279-.917c-1.09.541-2.295.916-3.5.916-1.643 0-3.015-.99-3.015-3.284 0-2.904 2.376-5.92 5.522-7.41a66.51 66.51 0 0 1 .208-2.807c-.243.003-.482.004-.714.004-.863 0-2.02-.059-2.995-.108-.372-.02-.717-.037-1.009-.05L.945 3.273c.81.112 2.767.292 4.139.292.305 0 .605 0 .901-.003l.064-.564.07-.625c.045-.45.09-.967.067-1.372Zm-.711 10.506c-1.694 1.146-2.82 2.873-2.82 4.138 0 .743.292 1.125 1.034 1.125.631 0 1.422-.264 2.249-.75a30.691 30.691 0 0 1-.463-4.513Zm2.776 2.633a13.506 13.506 0 0 0 2.845-4.297 10.94 10.94 0 0 0-3.11.51v.051c0 1.387.1 2.617.265 3.736ZM32 29.762h-3.24l-1.192-3.307H20.82l-1.17 3.307h-3.104l5.961-15.837h3.487L32 29.762ZM24.172 17.12h-.045l-2.385 6.726h4.882l-2.452-6.726Z" clip-rule="evenodd"/></svg>