<svg xmlns="http://www.w3.org/2000/svg" fill="none" viewBox="0 0 16 16"><path fill="#0A0B0D" d="M8.006 0c-2.15 0-4.27.45-5.33 2.67-1.03 2.15-2 12-2 12-.07.65.95 1.33 2.08 1.33 1.13 0 1.85-.37 2.57-.91.71.44 1.38.91 2.73.91s2.03-.47 2.73-.92c.72.55 1.45.92 2.55.92 1.1 0 2.08-.59 2-1.33-.15-1.41-1.06-10.03-2-12C12.276.45 10.156 0 8.006 0Zm-2.67 5.5c0-.74.45-1.33 1-1.33s1 .6 1 1.33c0 .73-.45 1.33-1 1.33s-1-.6-1-1.33Zm2.67 4.25c-.97 0-1.75-.78-1.75-1.75h3.5c0 .97-.78 1.75-1.75 1.75Zm1.67-2.92c-.55 0-1-.6-1-1.33 0-.73.45-1.33 1-1.33s1 .6 1 1.33c0 .73-.45 1.33-1 1.33Z"/></svg>