<svg xmlns="http://www.w3.org/2000/svg" fill="none" viewBox="0 0 32 32"><path fill="#0A0B0D" d="M32 18v-4l-4.52-1.507a11.451 11.451 0 0 0-.88-2.12l2.133-4.266-2.826-2.827-4.267 2.133a11.84 11.84 0 0 0-2.12-.88L18 0h-4l-1.507 4.52a12.44 12.44 0 0 0-2.12.88L6.107 3.267l-2.84 2.84L5.4 10.373a11.84 11.84 0 0 0-.88 2.12L0 14v4l4.52 1.507c.227.746.52 1.453.88 2.12l-2.133 4.266 2.826 2.827 4.267-2.133c.667.36 1.387.653 2.12.88L14 32h4l1.507-4.52c.746-.227 1.453-.52 2.12-.88l4.266 2.133 2.827-2.826-2.133-4.267c.36-.667.653-1.387.88-2.12L32 18Zm-8.667-2c0 4.04-3.293 7.333-7.333 7.333S8.667 20.04 8.667 16 11.96 8.667 16 8.667 23.333 11.96 23.333 16Z"/></svg>