<svg xmlns="http://www.w3.org/2000/svg" fill="#1652F0" viewBox="0 0 12 12"><path d="M7.05 4.512h1.93v.53H7.664v.577H8.87v.53H7.665V7.18H7.05V4.512Zm-1.078 0h.613V7.18h-.613V4.512Zm-.97 2.668v-.417h-.004c-.08.265-.33.47-.761.47-.777 0-1.217-.614-1.217-1.387 0-.784.474-1.39 1.289-1.39.655 0 1.08.352 1.178.879h-.67c-.035-.167-.175-.345-.497-.345-.367 0-.67.269-.67.754v.216c0 .485.295.754.674.754.364 0 .58-.27.58-.504h-.599v-.493h1.201V7.18h-.504Z"/><path d="M10.5 1.5v9h-9v-9h9ZM0 0v12h12V0H0Z"/></svg>