<svg xmlns="http://www.w3.org/2000/svg" fill="none" viewBox="0 0 24 24"><path fill="#0A0B0D" d="M23 12c0 6.075-4.925 11-11 11S1 18.075 1 12 5.925 1 12 1s11 4.925 11 11Zm-10.554 8.789a19.27 19.27 0 0 0 2.088-7.689H9.466a19.27 19.27 0 0 0 2.088 7.689 8.924 8.924 0 0 0 .892 0Zm2.682-.561a8.81 8.81 0 0 0 5.604-7.128h-3.995a21.472 21.472 0 0 1-1.61 7.128Zm1.61-9.328h3.994a8.81 8.81 0 0 0-5.604-7.128 21.473 21.473 0 0 1 1.61 7.128Zm-4.292-7.689a8.936 8.936 0 0 0-.892 0A19.27 19.27 0 0 0 9.466 10.9h5.068a19.271 19.271 0 0 0-2.088-7.689ZM7.263 13.1H3.268a8.81 8.81 0 0 0 5.604 7.128 21.471 21.471 0 0 1-1.61-7.128Zm0-2.2a21.47 21.47 0 0 1 1.61-7.128A8.81 8.81 0 0 0 3.267 10.9h3.995Z"/><path fill="#0A0B0D" d="M23 12c0 6.075-4.925 11-11 11S1 18.075 1 12 5.925 1 12 1s11 4.925 11 11Zm-10.554 8.789a19.27 19.27 0 0 0 2.088-7.689H9.466a19.27 19.27 0 0 0 2.088 7.689 8.924 8.924 0 0 0 .892 0Zm2.682-.561a8.81 8.81 0 0 0 5.604-7.128h-3.995a21.472 21.472 0 0 1-1.61 7.128Zm1.61-9.328h3.994a8.81 8.81 0 0 0-5.604-7.128 21.473 21.473 0 0 1 1.61 7.128Zm-4.292-7.689a8.936 8.936 0 0 0-.892 0A19.27 19.27 0 0 0 9.466 10.9h5.068a19.271 19.271 0 0 0-2.088-7.689ZM7.263 13.1H3.268a8.81 8.81 0 0 0 5.604 7.128 21.471 21.471 0 0 1-1.61-7.128Zm0-2.2a21.47 21.47 0 0 1 1.61-7.128A8.81 8.81 0 0 0 3.267 10.9h3.995Z"/></svg>