<svg xmlns="http://www.w3.org/2000/svg" fill="#1652F0" viewBox="0 0 24 24"><path d="M17.595 7.803a6.965 6.965 0 0 1 1.323 3.192h3.07v2h-3.07a6.965 6.965 0 0 1-1.323 3.192l2.172 2.172-1.414 1.414-2.172-2.171a6.963 6.963 0 0 1-3.192 1.322v3.071h-2v-3.07a6.963 6.963 0 0 1-3.192-1.323l-2.172 2.171L4.21 18.36l2.171-2.172a6.964 6.964 0 0 1-1.322-3.192h-3.07v-2h3.07a6.964 6.964 0 0 1 1.323-3.192L4.21 5.631l1.415-1.414L7.796 6.39a6.964 6.964 0 0 1 3.193-1.323v-3.07h2v3.07A6.965 6.965 0 0 1 16.18 6.39l2.172-2.172 1.414 1.414-2.172 2.172Zm-9.15 7.719.017.018a5 5 0 1 0-.018-.018Z"/></svg>