<svg xmlns="http://www.w3.org/2000/svg" fill="none" viewBox="0 0 12 13"><path fill="#1652F0" d="M6.75 2V0h-1.5v2H3.27C1.46 2 0 3.46 0 5.27v4.6c0 .91.57 1.72 1.43 2.02.86.3 1.82.02 2.38-.7L5.53 9h.93l1.72 2.19c.56.72 1.52 1 2.38.7.86-.3 1.43-1.11 1.43-2.02v-4.6C11.99 3.46 10.53 2 8.72 2H6.75Zm2.417 2.417a.667.667 0 1 1-1.334 0 .667.667 0 0 1 1.334 0ZM8.5 7.75a.667.667 0 1 1 0-1.333.667.667 0 0 1 0 1.333Zm1.333-1.333a.667.667 0 1 1 0-1.334.667.667 0 0 1 0 1.334ZM6.5 5.75a.667.667 0 1 1 1.333 0 .667.667 0 0 1-1.333 0ZM3.75 7.5h-1V6.25H1.5v-1h1.25V4h1v1.25H5v1H3.75V7.5Z"/></svg>