<svg xmlns="http://www.w3.org/2000/svg" fill="none" viewBox="0 0 12 12"><path fill="#1652F0" d="M10.006 2c-.8-1.66-2.38-2-4-2s-3.2.34-4 2c-.77 1.61-1.5 9-1.5 9-.05.49.71 1 1.56 1 .85 0 1.39-.28 1.93-.68.53.33 1.04.68 2.05.68 1.01 0 1.52-.35 2.05-.69.54.41 1.09.69 1.91.69.82 0 1.56-.44 1.5-1-.11-1.06-.79-7.53-1.5-9Zm-6 2.12c0-.55.34-1 .75-1s.75.45.75 1-.34 1-.75 1-.75-.45-.75-1Zm2 3.5c-.76 0-1.38-.62-1.38-1.38h2.75c0 .76-.62 1.38-1.38 1.38h.01Zm1.25-2.5c-.41 0-.75-.45-.75-1s.34-1 .75-1 .75.45.75 1-.34 1-.75 1Z"/></svg>