<svg xmlns="http://www.w3.org/2000/svg" fill="#1652F0" viewBox="0 0 12 12"><path d="m1.823 6.257 4.165 4.238 4.17-4.238a2.755 2.755 0 0 0 0-3.944 2.8 2.8 0 0 0-.92-.605 2.8 2.8 0 0 0-1.088-.213c-.375 0-.741.07-1.087.213a2.8 2.8 0 0 0-.92.605l-.155.148-.15-.148a2.8 2.8 0 0 0-.92-.605 2.9 2.9 0 0 0-1.087-.213c-.375 0-.742.074-1.088.213a2.8 2.8 0 0 0-.92.605 2.75 2.75 0 0 0 0 3.944m4.166 2.527L2.67 5.407 2.662 5.4a1.55 1.55 0 0 1-.001-2.226l.003-.003a1.6 1.6 0 0 1 .527-.349q.314-.126.64-.126.325 0 .639.126c.193.078.373.197.527.349l.98.961 1-.956.006-.005a1.6 1.6 0 0 1 .528-.349l.011-.004q.29-.121.628-.122.338.001.628.122l.011.004c.193.078.373.197.528.349a1.554 1.554 0 0 1 0 2.23l-.007.008z"/></svg>