<svg xmlns="http://www.w3.org/2000/svg" fill="#1652F0" viewBox="0 0 16 16"><path d="M0 1h8.25C13.85 1 16 4.06 16 7.92c0 4.62-3 6.95-7.75 6.95H0V1Zm.8.8v12.27h7.45c4.5 0 6.95-2.1 6.95-6.15 0-4.17-2.65-6.12-6.95-6.12H.8Z"/><path d="M1.8 8.82h2.39v4.24H1.8V8.82ZM3 8.16A1.48 1.48 0 1 0 3 5.2a1.48 1.48 0 0 0 0 2.96Zm6.19-.79v.7h-1.7V5.3h1.64V6h-.95v.32h.9V7h-.9v.37h1Zm.3.7.83-2.77h.98l.83 2.76h-.72l-.15-.53h-.9l-.16.53h-.71Zm1.07-1.23h.5l-.23-.78h-.04l-.23.78Zm1.91-1.54h.69v2.07h1.02C13.9 3.61 10.94 2.8 8.25 2.8H5.4v2.5h.42c.77 0 1.25.53 1.25 1.37 0 .87-.46 1.4-1.25 1.4H5.4v5h2.86c4.37 0 5.9-2.03 5.95-5h-1.73V5.3ZM5.4 6v1.38h.42c.3 0 .57-.08.57-.7 0-.6-.3-.68-.57-.68H5.4Z"/></svg>