<svg xmlns="http://www.w3.org/2000/svg" fill="#1652F0" viewBox="0 0 16 16"><path d="M5.1 1.05a5.1 5.1 0 0 0-1.7.33 3.56 3.56 0 0 0-2.04 2.05c-.17.44-.29.95-.32 1.7C1 5.87 1 6.1 1 8s.01 2.14.05 2.89c.03.74.15 1.25.33 1.7a3.56 3.56 0 0 0 2.05 2.04c.44.17.95.29 1.7.32.74.04.98.04 2.88.04s2.14-.01 2.89-.05a5.12 5.12 0 0 0 1.7-.33 3.43 3.43 0 0 0 2.04-2.05c.17-.44.29-.95.32-1.7C15 10.13 15 9.9 15 8s-.01-2.14-.05-2.89a5.11 5.11 0 0 0-.33-1.7 3.44 3.44 0 0 0-.8-1.24 3.42 3.42 0 0 0-1.25-.8 5.12 5.12 0 0 0-1.7-.32C10.13 1 9.9 1 8 1s-2.14.01-2.89.05Zm.08 12.65a3.89 3.89 0 0 1-1.3-.23 2.18 2.18 0 0 1-.8-.53c-.25-.24-.4-.47-.53-.8-.1-.25-.21-.62-.24-1.3-.04-.74-.04-.96-.05-2.83a48 48 0 0 1 .04-2.83c.03-.68.14-1.05.24-1.3.12-.32.27-.56.52-.8.24-.25.48-.4.8-.53.25-.1.62-.2 1.3-.24.74-.04.96-.04 2.83-.05 1.87 0 2.09 0 2.83.04.68.03 1.05.14 1.3.24.32.12.56.27.8.52.25.24.4.48.53.8.1.25.21.62.24 1.3.04.74.04.96.05 2.83 0 1.87 0 2.09-.04 2.83a3.89 3.89 0 0 1-.24 1.3c-.12.33-.27.56-.52.8-.24.25-.47.4-.8.53-.25.1-.62.21-1.3.24-.74.04-.96.04-2.83.05-1.87 0-2.09 0-2.83-.04Zm5.7-9.44a.84.84 0 1 0 1.69 0 .84.84 0 0 0-1.68 0ZM4.42 8a3.6 3.6 0 1 0 7.18-.02A3.6 3.6 0 0 0 4.42 8Zm1.26 0a2.33 2.33 0 1 1 4.65 0 2.33 2.33 0 0 1-4.66 0Z"/></svg>