<svg xmlns="http://www.w3.org/2000/svg" fill="none" viewBox="0 0 32 32"><path fill="#0A0B0D" d="M9.926 1.436c-1.56.074-2.626.323-3.558.689A7.178 7.178 0 0 0 3.773 3.82a7.185 7.185 0 0 0-1.687 2.6c-.36.933-.605 2-.674 3.56-.07 1.562-.085 2.064-.077 6.047.008 3.983.025 4.482.101 6.047.075 1.56.323 2.626.689 3.558.376.964.88 1.78 1.696 2.594a7.179 7.179 0 0 0 2.602 1.687c.933.36 2 .606 3.56.674 1.562.069 2.064.085 6.046.077 3.982-.008 4.483-.025 6.047-.1 1.565-.074 2.625-.324 3.557-.688a7.187 7.187 0 0 0 2.594-1.697 7.187 7.187 0 0 0 1.686-2.6c.362-.934.607-2 .675-3.56.068-1.566.085-2.066.077-6.048-.008-3.982-.026-4.482-.1-6.046-.074-1.564-.323-2.626-.688-3.559a7.2 7.2 0 0 0-1.696-2.594 7.159 7.159 0 0 0-2.601-1.686c-.934-.361-2-.607-3.561-.675-1.561-.067-2.064-.085-6.047-.077-3.983.008-4.482.025-6.046.1Zm.171 26.514c-1.43-.062-2.206-.3-2.724-.499a4.567 4.567 0 0 1-1.689-1.094 4.51 4.51 0 0 1-1.1-1.684c-.2-.517-.443-1.293-.51-2.723-.072-1.546-.088-2.01-.096-5.925-.009-3.916.006-4.38.074-5.926.061-1.429.3-2.206.499-2.723a4.542 4.542 0 0 1 1.094-1.689c.511-.515 1-.833 1.684-1.1.517-.202 1.293-.442 2.722-.51 1.547-.073 2.01-.088 5.925-.096 3.916-.009 4.38.006 5.928.074 1.428.062 2.206.299 2.723.498a4.536 4.536 0 0 1 1.688 1.094c.516.513.833 1 1.1 1.686.203.515.443 1.29.51 2.72.074 1.547.09 2.011.098 5.926.007 3.915-.007 4.38-.075 5.925-.062 1.43-.3 2.207-.498 2.725a4.545 4.545 0 0 1-1.095 1.689c-.512.515-1 .832-1.684 1.1-.517.201-1.293.442-2.721.51-1.547.072-2.01.088-5.927.096-3.917.009-4.38-.007-5.926-.074ZM22.054 8.161a1.76 1.76 0 1 0 3.52-.006 1.76 1.76 0 0 0-3.52.006ZM8.469 16.015a7.532 7.532 0 1 0 15.061-.032 7.532 7.532 0 0 0-15.06.032Zm2.642-.006a4.89 4.89 0 1 1 9.78-.019 4.89 4.89 0 0 1-9.78.02Z"/></svg>