<svg xmlns="http://www.w3.org/2000/svg" fill="#1652F0" viewBox="0 0 12 12"><path d="M3.93 1.03c-.53.03-.9.11-1.21.24a2.49 2.49 0 0 0-1.46 1.46c-.13.32-.21.69-.23 1.22C1 4.48 1 4.65 1 6s0 1.53.04 2.06c.02.53.1.9.23 1.21a2.49 2.49 0 0 0 1.47 1.46c.31.13.68.21 1.2.23.54.03.71.03 2.07.03 1.36 0 1.53 0 2.06-.03s.9-.11 1.21-.24a2.49 2.49 0 0 0 1.46-1.46c.13-.32.21-.69.23-1.22.03-.53.03-.7.03-2.06s0-1.53-.03-2.06-.11-.9-.24-1.21c-.13-.33-.3-.61-.58-.89a2.44 2.44 0 0 0-.88-.57 3.48 3.48 0 0 0-1.22-.23C7.52 1 7.35 1 6 1s-1.53 0-2.06.03Zm.06 9.04a2.7 2.7 0 0 1-.93-.17c-.23-.09-.4-.2-.58-.37a1.54 1.54 0 0 1-.37-.57 2.77 2.77 0 0 1-.18-.93C1.91 7.5 1.9 7.34 1.9 6c0-1.34 0-1.5.03-2.02.02-.49.1-.75.17-.93.09-.23.2-.4.37-.58.17-.17.34-.28.57-.37.18-.07.44-.15.93-.17.53-.03.69-.03 2.02-.04 1.34 0 1.5 0 2.02.03.49.02.75.1.93.17a1.6 1.6 0 0 1 .95.95c.07.17.15.44.18.92.02.53.03.69.03 2.02 0 1.34 0 1.5-.03 2.02-.02.49-.1.76-.17.93a1.6 1.6 0 0 1-.94.95 2.9 2.9 0 0 1-.93.18c-.53.02-.69.03-2.02.03-1.34 0-1.5 0-2.02-.03Zm4.07-6.74a.6.6 0 1 0 1.2 0 .6.6 0 0 0-1.2 0ZM3.43 6a2.57 2.57 0 1 0 5.14 0 2.57 2.57 0 0 0-5.14 0Zm.9 0a1.67 1.67 0 1 1 3.34 0 1.67 1.67 0 0 1-3.34 0Z"/></svg>