<svg xmlns="http://www.w3.org/2000/svg" fill="none" viewBox="0 0 8 8"><path fill="#0A0B0D" d="M0 .5h4.126C6.926.5 8 2.03 8 3.959c0 2.313-1.499 3.474-3.874 3.474H0V.5Zm.4.4v6.133h3.726c2.25 0 3.474-1.048 3.474-3.074 0-2.083-1.327-3.06-3.474-3.06L.4.9Z"/><path fill="#0A0B0D" d="M.9 4.41h1.193v2.122H.9V4.41Zm.596-.329a.741.741 0 1 0 0-1.482.741.741 0 0 0 0 1.482Zm3.098-.394v.343h-.85V2.651h.823v.344h-.48v.16h.454v.343h-.453v.189h.506Zm.149.344.416-1.38h.489l.415 1.38h-.357l-.078-.267h-.45L5.1 4.03h-.357Zm.536-.61h.249l-.114-.39h-.021l-.114.39Zm.957-.77h.344v1.036h.509C6.949 1.807 5.47 1.4 4.126 1.4H2.693v1.25h.212c.387 0 .627.263.627.684 0 .436-.234.696-.627.696h-.212v2.502h1.433c2.185 0 2.946-1.014 2.973-2.503h-.863V2.65Zm-3.543.344v.692h.212c.148 0 .284-.043.284-.352 0-.301-.152-.34-.284-.34h-.212Z"/></svg>