<svg xmlns="http://www.w3.org/2000/svg" fill="none" viewBox="0 0 8 8"><path fill="#0A0B0D" d="M7.724.277C7.359-.09 6.812-.03 6.389.097 5.946.23 5.436.49 4.903.84a3.576 3.576 0 0 0-1.806 0C2.564.49 2.054.229 1.611.097 1.188-.029.641-.089.277.277-.02.572-.031.989.03 1.33c.065.359.23.764.46 1.184.067.123.141.25.222.38A3.56 3.56 0 0 0 .576 5.33c-.237.412-.414.804-.505 1.152-.104.396-.137.898.206 1.24.295.296.712.309 1.055.247.347-.062.737-.22 1.142-.437.464.22.98.342 1.526.342s1.063-.122 1.526-.341c.405.217.796.374 1.143.436.343.062.76.05 1.055-.246l.001-.002c.335-.338.308-.83.208-1.222-.09-.354-.268-.752-.509-1.17a3.57 3.57 0 0 0-.136-2.434c.081-.13.155-.257.223-.381.229-.42.395-.825.46-1.184.06-.342.048-.76-.247-1.054Zm-.97 1.744a3.599 3.599 0 0 0-.84-.74A3.86 3.86 0 0 1 6.646.96c.31-.092.42-.054.44-.045.008.019.029.087-.002.257-.038.212-.144.5-.33.85Zm-.51.824c-.403.577-.933 1.21-1.561 1.838A15.64 15.64 0 0 1 4 5.327a16.063 16.063 0 0 1-.682-.644 14.012 14.012 0 0 1-1.562-1.839 2.674 2.674 0 0 1 4.488 0ZM4.7 5.909a16.62 16.62 0 0 0 1.934-2.077A2.673 2.673 0 0 1 5.53 6.494a10.41 10.41 0 0 1-.83-.585Zm-1.4 0c-.287.223-.566.42-.83.585a2.674 2.674 0 0 1-1.104-2.662A16.62 16.62 0 0 0 3.3 5.909Zm.151 1.01c.18-.129.364-.268.55-.415.185.147.368.286.548.415a2.68 2.68 0 0 1-1.098 0Zm-1.847.033a3.54 3.54 0 0 1-.534-.606c-.057.134-.1.256-.128.365-.068.26-.036.355-.028.375.02.008.088.029.258-.002.12-.021.266-.065.432-.132ZM.914.915c.021-.009.13-.047.44.045.207.062.454.169.732.32-.317.202-.6.453-.84.741-.185-.35-.292-.637-.33-.85C.886 1.003.906.935.914.916Zm5.483 6.037c.2-.181.38-.384.534-.605.059.138.102.263.13.375.063.248.033.342.024.365-.02.008-.09.027-.257-.003a2.23 2.23 0 0 1-.431-.132Z"/></svg>