<svg xmlns="http://www.w3.org/2000/svg" fill="#1652F0" viewBox="0 0 16 16"><path d="M13.007 6.362c.967-1.774 1.212-3.3.49-4.022-.75-.752-2.374-.456-4.24.611a5.345 5.345 0 0 0-2.546-.005C4.85 1.883 3.231 1.59 2.48 2.34c-.718.717-.48 2.23.473 3.99a5.344 5.344 0 0 0-.155 3.08c-1.067 1.866-1.363 3.49-.612 4.24.722.723 2.25.478 4.023-.49a5.346 5.346 0 0 0 3.549-.005c1.778.972 3.31 1.22 4.033.496.756-.756.452-2.394-.631-4.275a5.345 5.345 0 0 0-.153-3.014Zm-.691-2.84c0 .017 0 .037-.002.059-.01.243-.085.61-.276 1.095a5.366 5.366 0 0 0-.924-.858c.507-.205.89-.285 1.142-.295a1.4 1.4 0 0 1 .06-.002Zm-1.108 2.741c-.567.892-1.338 1.86-2.288 2.81-.31.31-.621.6-.931.871a18.77 18.77 0 0 1-.932-.87C6.1 8.115 5.323 7.138 4.755 6.24a3.73 3.73 0 0 1 3.22-1.844 3.73 3.73 0 0 1 3.233 1.867Zm-1.945 4.69A20.532 20.532 0 0 0 11.7 8.338a3.731 3.731 0 0 1-1.847 3.015 13.98 13.98 0 0 1-.591-.4Zm-2.548 0a13.86 13.86 0 0 1-.605.409 3.731 3.731 0 0 1-1.864-3.063 20.441 20.441 0 0 0 2.468 2.655Zm-2.193 1.239c-.484.19-.851.266-1.095.276h-.059l.001-.059c.01-.25.091-.634.295-1.141.249.34.537.65.858.924Zm8.086.218.001.059-.059-.001c-.247-.01-.62-.088-1.114-.284a5.36 5.36 0 0 0 .867-.941c.212.52.295.911.305 1.167Zm-7.763-8.6a5.363 5.363 0 0 0-.915.843c-.184-.473-.257-.832-.267-1.072l-.001-.06c.018 0 .037 0 .06.002.248.01.625.088 1.123.287Z"/></svg>