<svg xmlns="http://www.w3.org/2000/svg" fill="#1652F0" viewBox="0 0 24 24"><path d="M23.2.8c-1.06-1.05-2.66-.89-3.93-.5a17.86 17.86 0 0 0-4.5 2.24 10.58 10.58 0 0 0-5.55 0A17.92 17.92 0 0 0 4.73.29C3.46-.09 1.86-.25.81.81c-.86.85-.9 2.06-.72 3.09.2 1.07.69 2.28 1.38 3.55.22.41.47.83.74 1.27a10.54 10.54 0 0 0-.33 7.12 15.11 15.11 0 0 0-1.67 3.7c-.3 1.2-.4 2.66.6 3.66.85.85 2.07.9 3.09.71a12.32 12.32 0 0 0 3.77-1.5 10.52 10.52 0 0 0 8.66 0l.22.12c1.27.7 2.48 1.19 3.55 1.38 1.03.18 2.24.14 3.1-.71.97-.99.9-2.43.6-3.6a14.83 14.83 0 0 0-1.67-3.76 10.57 10.57 0 0 0-.34-7.12c.27-.44.52-.86.74-1.27a12.3 12.3 0 0 0 1.38-3.55c.19-1.03.14-2.24-.71-3.1Zm-2.86 5.44a10.7 10.7 0 0 0-2.76-2.48 12.3 12.3 0 0 1 2.4-1.07c.53-.16.91-.2 1.17-.19.12.01.2.03.23.05l.05.02.01.03a.5.5 0 0 1 .04.13c.03.14.03.38-.03.73a9.9 9.9 0 0 1-1.1 2.78Zm-1.44 2.3a47.31 47.31 0 0 1-6.9 7.62 42.49 42.49 0 0 1-6.9-7.62 8.08 8.08 0 0 1 13.8 0Zm-4.96 9.25a50.03 50.03 0 0 0 6.02-6.46 8.11 8.11 0 0 1-3.56 8.2 35.8 35.8 0 0 1-2.46-1.74Zm-3.88 0c-.85.66-1.67 1.24-2.45 1.74a8.08 8.08 0 0 1-3.57-8.2 47.28 47.28 0 0 0 6.02 6.46Zm.31 2.88c.54-.38 1.08-.8 1.63-1.23.55.44 1.1.85 1.63 1.23a8.1 8.1 0 0 1-3.26 0Zm-5.16.2c-.7.3-1.28.5-1.75.58a2.1 2.1 0 0 1-.73.03.5.5 0 0 1-.13-.04l-.03-.01-.02-.04a.69.69 0 0 1-.04-.2 3 3 0 0 1 .12-1c.12-.46.31-.97.58-1.55.56.83 1.23 1.58 2 2.22ZM2.57 2.56l.05-.02a.8.8 0 0 1 .23-.05c.26-.01.64.03 1.17.19.68.2 1.49.56 2.4 1.07-1.06.66-2 1.5-2.76 2.48a9.9 9.9 0 0 1-1.1-2.78 2.14 2.14 0 0 1-.04-.73.5.5 0 0 1 .04-.13l.01-.03Zm17.97 18.88a7.74 7.74 0 0 1-1.74-.59c.76-.64 1.43-1.39 2-2.22.27.6.46 1.12.58 1.57.11.46.13.78.11.99a.69.69 0 0 1-.04.2l-.02.03-.03.01a.5.5 0 0 1-.13.04 2.1 2.1 0 0 1-.73-.03Z"/></svg>