<svg xmlns="http://www.w3.org/2000/svg" fill="#1652F0" viewBox="0 0 12 12"><path d="M11.59.41c-.55-.54-1.37-.45-2-.26-.67.2-1.44.59-2.24 1.11a5.36 5.36 0 0 0-2.7 0A8.91 8.91 0 0 0 2.42.15C1.78-.05.96-.13.42.4-.04.86-.06 1.48.04 2a6.37 6.37 0 0 0 1.02 2.34A5.34 5.34 0 0 0 .87 8 7.3 7.3 0 0 0 .1 9.72c-.16.6-.2 1.35.3 1.87.45.44 1.07.46 1.59.37.52-.1 1.1-.33 1.71-.66a5.33 5.33 0 0 0 4.58 0c.6.33 1.2.56 1.71.66.52.09 1.14.07 1.59-.37.5-.51.46-1.25.31-1.84A7.17 7.17 0 0 0 11.14 8a5.36 5.36 0 0 0-.2-3.66l.33-.57c.34-.63.59-1.24.69-1.77.09-.52.07-1.14-.37-1.59Zm-1.46 2.62a5.4 5.4 0 0 0-1.26-1.1c.42-.24.79-.4 1.1-.49.46-.14.63-.08.66-.07.01.03.04.13 0 .39-.06.32-.22.75-.5 1.27Zm-.76 1.24A21.01 21.01 0 0 1 6 7.99a23.44 23.44 0 0 1-3.37-3.72 4.01 4.01 0 0 1 6.74 0Zm-2.32 4.6a24.93 24.93 0 0 0 2.9-3.12 4.03 4.03 0 0 1-1.65 4c-.4-.26-.82-.55-1.25-.89Zm-2.1 0c-.43.33-.85.62-1.24.87a4.01 4.01 0 0 1-1.66-4 23.55 23.55 0 0 0 2.9 3.12Zm.23 1.5c.27-.18.54-.4.82-.61.28.22.55.43.82.62a4.02 4.02 0 0 1-1.64 0Zm-2.77.06a5.4 5.4 0 0 1-.8-.91c-.1.2-.15.38-.2.55-.1.39-.05.53-.04.56.03.01.13.04.39 0 .18-.04.4-.1.65-.2ZM1.37 1.37c.03-.01.2-.07.66.07.31.1.68.25 1.1.48-.48.3-.9.68-1.26 1.11a4.67 4.67 0 0 1-.5-1.27c-.04-.26-.01-.36 0-.39Zm8.23 9.06c.3-.27.56-.58.8-.91l.2.56c.09.38.04.52.03.55a.85.85 0 0 1-.39 0c-.18-.04-.4-.1-.64-.2Z"/></svg>