<svg xmlns="http://www.w3.org/2000/svg" fill="none" viewBox="0 0 8 8"><path fill="#0A0B0D" d="m2.426 4.775-1.059 1.34.733.58 4.266-5.406-.732-.578-.81 1.027A4.79 4.79 0 0 0 4 1.667c-1.302 0-2.48.522-3.333 1.366l.666.66a3.779 3.779 0 0 1 2.807-1.09l-.794 1.005A2.832 2.832 0 0 0 2 4.353l.426.422ZM4 6.333l-.372-.368.466-.56c.223.021.423.12.573.268L4 6.333Zm1.333-1.32a1.89 1.89 0 0 0-.585-.394l.616-.74c.234.129.448.289.636.474l-.667.66Zm1.334-1.32a3.782 3.782 0 0 0-.695-.543l.604-.726c.273.177.527.382.757.61l-.666.66Z"/></svg>