<svg xmlns="http://www.w3.org/2000/svg" fill="#1652F0" viewBox="0 0 16 16"><path d="m4.772 9.811-2.54 3.049 1.536 1.28 10-12L12.232.86l-2.009 2.41A9.832 9.832 0 0 0 7.93 3a9.819 9.819 0 0 0-7 2.929l1.4 1.414a7.855 7.855 0 0 1 6.418-2.3l-1.685 2.02A5.902 5.902 0 0 0 3.73 8.757l1.043 1.054ZM7.929 13l-.825-.833.968-1.162c.49.035.93.25 1.257.58L7.929 13Zm2.8-2.828a3.965 3.965 0 0 0-1.252-.855l1.313-1.576a5.96 5.96 0 0 1 1.339 1.016l-1.4 1.415Zm2.8-2.829a7.965 7.965 0 0 0-1.446-1.155l1.286-1.544a9.965 9.965 0 0 1 1.56 1.285l-1.4 1.414Z"/></svg>