<svg xmlns="http://www.w3.org/2000/svg" fill="#1652F0" viewBox="0 0 16 16"><path d="m11.668.995-9 14h1.6l2.238-3.482 1.483 1.482 2.284-2.284a3.981 3.981 0 0 0-2.813-.681l1.216-1.892a5.38 5.38 0 0 1 2.911 1.33l1.133-1.132a6.984 6.984 0 0 0-3.11-1.652l1.062-1.651a8.4 8.4 0 0 1 3.256 2.022l1.132-1.13a10.009 10.009 0 0 0-3.5-2.273L13.268.995h-1.6ZM7.806 4.597 8.814 3.03A9.969 9.969 0 0 0 .918 5.924l1.131 1.131a8.373 8.373 0 0 1 5.757-2.458ZM4.96 9.023l1.521-2.365a6.98 6.98 0 0 0-3.148 1.61L4.467 9.4c.157-.135.322-.261.493-.378Z"/></svg>