<svg xmlns="http://www.w3.org/2000/svg" fill="none" viewBox="0 0 12 12"><path fill="#0A0B0D" d="M3.638 7.162 2.051 9.174l1.098.867 6.4-8.107-1.098-.868-1.216 1.54A7.185 7.185 0 0 0 6 2.5c-1.953 0-3.72.784-5 2.05l1 .99a5.668 5.668 0 0 1 4.21-1.636L5.02 5.413A4.248 4.248 0 0 0 3 6.53l.638.632ZM6 9.5l-.558-.553.7-.84c.334.033.633.18.858.403L6 9.5Zm2-1.98a2.835 2.835 0 0 0-.878-.59l.924-1.11c.351.192.672.431.954.71l-1 .99Zm2-1.98a5.673 5.673 0 0 0-1.043-.815l.907-1.088c.41.265.79.572 1.136.913l-1 .99Z"/></svg>