<svg xmlns="http://www.w3.org/2000/svg" fill="#1652F0" viewBox="0 0 24 24"><path d="M22.52 8.31c-.22-.71-1.53-1-3.46-.91a8.39 8.39 0 0 0-15.18 4.83C2.24 13.29 1.33 14.29 1.52 15c.2.71 1.36 1 3.1.92a8.4 8.4 0 0 0 15.9-5.07c1.41-.97 2.18-1.85 2-2.54Zm-10.55-2.2a6.28 6.28 0 0 1 5.27 2.42v.06c.24.31.44.65.6 1 0 .06.06.11.08.16-3.67 2-7.68 3.3-11.83 3.83a1.42 1.42 0 0 1-.05-.22c0-.22-.02-.44-.06-.66a5.06 5.06 0 0 1 0-.78v-.23a6.28 6.28 0 0 1 5.99-5.58Zm.6 12.58a6.28 6.28 0 0 1-5.66-3l-.06-.12a35.22 35.22 0 0 0 11.67-3.78v.36a6.3 6.3 0 0 1-5.95 6.54Z"/></svg>