<svg xmlns="http://www.w3.org/2000/svg" fill="none" viewBox="0 0 32 32"><path fill="#0A0B0D" d="M6.667 0A6.67 6.67 0 0 0 0 6.667a6.67 6.67 0 0 0 6.667 6.666 6.669 6.669 0 0 0 6.666-6.666A6.67 6.67 0 0 0 6.667 0Zm0 3.333a3.335 3.335 0 0 1 0 6.667 3.335 3.335 0 0 1 0-6.667Zm18.666 15.334a6.669 6.669 0 0 0-6.666 6.666A6.67 6.67 0 0 0 25.333 32 6.67 6.67 0 0 0 32 25.333a6.67 6.67 0 0 0-6.667-6.666Zm0 3.333a3.335 3.335 0 0 1 0 6.667 3.335 3.335 0 0 1 0-6.667ZM5.9 30.168 23.211.166 26.1 1.832 8.786 31.834 5.9 30.168Z"/></svg>