<svg xmlns="http://www.w3.org/2000/svg" fill="none" viewBox="0 0 32 32"><path fill="#0A0B0D" d="M20.733 5.333c-.884 0-1.733.351-2.358.975L7.66 17.01a5.653 5.653 0 0 0 0 7.999 5.672 5.672 0 0 0 8.016 0l11.66-11.643 1.884 1.886-11.66 11.644a8.338 8.338 0 0 1-11.784 0 8.319 8.319 0 0 1 0-11.773L16.49 4.42a6.003 6.003 0 0 1 10.243 4.24 5.99 5.99 0 0 1-1.759 4.238L14.248 23.601a3.668 3.668 0 0 1-6.258-2.592c0-.972.386-1.904 1.074-2.59L19.908 7.6l1.882 1.89-10.843 10.815a.997.997 0 0 0 .708 1.701c.266 0 .52-.105.708-.292l10.728-10.702a3.324 3.324 0 0 0-2.358-5.679Z"/></svg>