<svg xmlns="http://www.w3.org/2000/svg" fill="#1652F0" viewBox="0 0 24 24"><path d="M9.182 9.314a9.254 9.254 0 0 1 .992-3.537 4.606 4.606 0 0 0-2.723 3.537h1.731Zm0 1.372H7.451a4.606 4.606 0 0 0 2.723 3.537 9.257 9.257 0 0 1-.992-3.537Zm4.231 0A7.856 7.856 0 0 1 12 14.542a7.856 7.856 0 0 1-1.413-3.856h2.826Zm-2.826-1.372A7.855 7.855 0 0 1 12 5.458a7.856 7.856 0 0 1 1.413 3.856h-2.826Zm4.231 1.372a9.256 9.256 0 0 1-.992 3.537 4.606 4.606 0 0 0 2.723-3.537h-1.731Zm1.732-1.372h-1.732a9.256 9.256 0 0 0-.992-3.537 4.606 4.606 0 0 1 2.723 3.537Z"/><path fill-rule="evenodd" d="M19 0H3v24h16a2 2 0 0 0 2-2V2a2 2 0 0 0-2-2Zm-1 10a6 6 0 1 1-12 0 6 6 0 0 1 12 0ZM7 19.9v-1.8h10v1.8H7Z" clip-rule="evenodd"/></svg>