<svg xmlns="http://www.w3.org/2000/svg" fill="#1652F0" viewBox="0 0 16 16"><path d="M8 4.03a5.21 5.21 0 0 1 .909 2.513H7.09c.078-.884.38-1.752.909-2.513Zm-.909 3.427H8.91A5.203 5.203 0 0 1 8 9.97a5.203 5.203 0 0 1-.909-2.513Zm-.404-3.155a6.205 6.205 0 0 0-.599 2.24H5.035a3.003 3.003 0 0 1 1.652-2.24Zm-.599 3.155H5.035a3.003 3.003 0 0 0 1.652 2.241 6.206 6.206 0 0 1-.599-2.24Zm4.877 0H9.912a6.205 6.205 0 0 1-.6 2.241 3.003 3.003 0 0 0 1.653-2.24Zm-1.053-.914h1.053a3.003 3.003 0 0 0-1.652-2.241c.342.71.542 1.471.599 2.24Z"/><path fill-rule="evenodd" d="M13 0H2v16h11a1 1 0 0 0 1-1V1a1 1 0 0 0-1-1Zm-1 7a4 4 0 1 1-8 0 4 4 0 0 1 8 0Zm-7 5.4v1.2h6v-1.2H5Z" clip-rule="evenodd"/></svg>