<svg xmlns="http://www.w3.org/2000/svg" fill="#1652F0" viewBox="0 0 24 24"><path d="M12 16a6 6 0 1 0 0-12 6 6 0 0 0 0 12Zm2.355-2.283c.326-.824.546-1.824.619-2.917h1.354a4.403 4.403 0 0 1-1.973 2.917Zm0-7.434A4.403 4.403 0 0 1 16.327 9.2h-1.353c-.073-1.093-.293-2.093-.619-2.917Zm-1.665.19c.333.666.593 1.612.68 2.727h-2.74c.087-1.115.347-2.061.68-2.727.342-.685.617-.834.69-.865.073.031.348.18.69.865Zm-1.38 7.054c-.333-.666-.593-1.612-.68-2.727h2.74c-.087 1.115-.347 2.061-.68 2.727-.342.685-.617.834-.69.865-.073-.031-.348-.18-.69-.865Zm-1.665.19A4.403 4.403 0 0 1 7.673 10.8h1.353c.073 1.093.293 2.093.619 2.917Zm0-7.434c-.326.824-.546 1.824-.619 2.917H7.673a4.403 4.403 0 0 1 1.972-2.917ZM16 19v-1.6H8V19h8Z"/><path d="M3 1v22h14a4 4 0 0 0 4-4V5a4 4 0 0 0-4-4H3Zm14 2a2 2 0 0 1 2 2v14a2 2 0 0 1-2 2H5V3h12Z"/></svg>