<svg xmlns="http://www.w3.org/2000/svg" fill="#1652F0" viewBox="0 0 24 24"><path d="M16.328 10.8a4.406 4.406 0 0 1-2.225 3.066c.33-.852.552-1.907.623-3.066h1.601Zm-.001-1.6a4.405 4.405 0 0 0-2.224-3.066c.33.852.552 1.907.623 3.066h1.601Zm-3.205 0c-.079-1.134-.321-2.098-.632-2.776-.212-.463-.39-.672-.49-.764-.1.092-.278.301-.49.764-.31.678-.553 1.642-.632 2.776h2.244Zm0 1.6h-2.244c.079 1.134.321 2.098.632 2.776.212.463.39.672.49.764.1-.092.278-.301.49-.764.31-.678.553-1.642.632-2.776Zm-3.848 0c.071 1.16.294 2.214.623 3.066A4.405 4.405 0 0 1 7.673 10.8h1.601Zm0-1.6c.071-1.16.294-2.214.623-3.066A4.405 4.405 0 0 0 7.673 9.2h1.601Z"/><path d="M3 1h14a4 4 0 0 1 4 4v14a4 4 0 0 1-4 4H3V1Zm5.419 16.4V19h8v-1.6h-8ZM6 10a6 6 0 1 0 12 0 6 6 0 0 0-12 0Z"/></svg>