<svg xmlns="http://www.w3.org/2000/svg" fill="#1652F0" viewBox="0 0 16 16"><path d="M9.943 3.645c-.386 0-.749.145-1.01.392L4.205 8.496c-.454.427-.7.999-.7 1.586 0 .588.246 1.16.7 1.587.455.43 1.08.676 1.738.676.658 0 1.283-.247 1.738-.676l5.2-4.905.892.946-5.2 4.905a3.835 3.835 0 0 1-2.63 1.03c-.98 0-1.926-.367-2.63-1.03a3.481 3.481 0 0 1-1.109-2.533c0-.957.404-1.867 1.109-2.532L8.04 3.09a2.774 2.774 0 0 1 1.902-.746c.706 0 1.39.265 1.901.746.512.483.808 1.146.808 1.846 0 .7-.296 1.363-.808 1.846l-4.732 4.459a1.71 1.71 0 0 1-1.174.461c-.434 0-.857-.162-1.174-.461a1.594 1.594 0 0 1-.506-1.16c0-.442.187-.858.506-1.159l4.84-4.56.892.946-4.84 4.56a.294.294 0 0 0-.098.213c0 .073.03.15.098.214a.41.41 0 0 0 .282.107.412.412 0 0 0 .282-.107l4.733-4.459c.26-.245.399-.57.399-.9 0-.33-.14-.655-.4-.9a1.474 1.474 0 0 0-1.01-.392Z"/></svg>