<svg xmlns="http://www.w3.org/2000/svg" fill="#1652F0" viewBox="0 0 16 16"><path d="M8 4.03c.53.76.83 1.63.9 2.51H7.1A5.2 5.2 0 0 1 8 4.03Zm-.9 3.43h1.8A5.2 5.2 0 0 1 8 9.97a5.2 5.2 0 0 1-.9-2.51ZM6.69 4.3a6.2 6.2 0 0 0-.6 2.24H5.03A3 3 0 0 1 6.7 4.3Zm-.6 3.16H5.03A3 3 0 0 0 6.7 9.7a6.2 6.2 0 0 1-.6-2.24Zm4.88 0H9.9a6.2 6.2 0 0 1-.6 2.24 3 3 0 0 0 1.66-2.24Zm-1.06-.92h1.06A3 3 0 0 0 9.3 4.3c.35.71.55 1.47.6 2.24Z"/><path fill-rule="evenodd" d="M13 0H2v16h11a1 1 0 0 0 1-1V1a1 1 0 0 0-1-1Zm-1 7a4 4 0 1 1-8 0 4 4 0 0 1 8 0Zm-7 5.4v1.2h6v-1.2H5Z" clip-rule="evenodd"/></svg>