<svg xmlns="http://www.w3.org/2000/svg" fill="#1652F0" viewBox="0 0 12 12"><path d="M6 2.817c.38.56.6 1.194.656 1.84H5.344A3.88 3.88 0 0 1 6 2.817Zm-.656 2.526h1.312A3.877 3.877 0 0 1 6 7.183a3.87 3.87 0 0 1-.656-1.84Zm-.4-2.273a4.68 4.68 0 0 0-.403 1.587h-.714A2.202 2.202 0 0 1 4.944 3.07Zm-.403 2.273h-.714A2.202 2.202 0 0 0 4.944 6.93a4.68 4.68 0 0 1-.403-1.588Zm3.632 0H7.46a4.68 4.68 0 0 1-.403 1.588 2.202 2.202 0 0 0 1.117-1.588Zm-.714-.686h.714A2.202 2.202 0 0 0 7.056 3.07a4.68 4.68 0 0 1 .403 1.588Z"/><path fill-rule="evenodd" d="M10 0H1v12h9a1 1 0 0 0 1-1V1a1 1 0 0 0-1-1ZM9 5a3 3 0 1 1-6 0 3 3 0 0 1 6 0ZM4 9.5v1h4v-1H4Z" clip-rule="evenodd"/></svg>