<svg xmlns="http://www.w3.org/2000/svg" fill="#1652F0" viewBox="0 0 12 12"><path d="M6 2.82c.38.56.6 1.2.66 1.84H5.34C5.4 4 5.62 3.38 6 2.82Zm-.66 2.52h1.32A3.88 3.88 0 0 1 6 7.18c-.38-.56-.6-1.2-.66-1.84Zm-.4-2.27c-.22.5-.36 1.04-.4 1.59h-.71a2.2 2.2 0 0 1 1.11-1.6Zm-.4 2.27h-.71c.1.69.53 1.27 1.11 1.6a4.68 4.68 0 0 1-.4-1.6Zm3.63 0h-.71a4.68 4.68 0 0 1-.4 1.6 2.2 2.2 0 0 0 1.11-1.6Zm-.71-.68h.71a2.2 2.2 0 0 0-1.11-1.6c.22.52.36 1.05.4 1.6Z"/><path fill-rule="evenodd" d="M10 0H1v12h9a1 1 0 0 0 1-1V1a1 1 0 0 0-1-1ZM9 5a3 3 0 1 1-6 0 3 3 0 0 1 6 0ZM4 9.5v1h4v-1H4Z" clip-rule="evenodd"/></svg>