<svg xmlns="http://www.w3.org/2000/svg" fill="none" viewBox="0 0 32 32"><path fill="#0A0B0D" d="M13.067 6.64c.266-.133.533-.187.826-.187h7.787c.96 0 1.867.054 2.667.187l.197.04c.181.04.345.074.523.093.106.027.22.054.333.08l.333.08c.107.027.214.054.32.107.047.031.102.053.162.077.043.016.087.034.132.056.16-2.133-.427-3.626-1.467-4.746C23.36.747 20.72 0 17.28 0H8.027C7.333 0 6.72.507 6.613 1.2L2.48 27.467c-.08.506.32.986.853.986H8.8l3.227-20.4c.08-.613.48-1.146 1.04-1.413Z"/><path fill="#0A0B0D" d="M25.493 8.253c-.046-.013-.093-.026-.133-.04-.187-.053-.373-.106-.587-.16a5.48 5.48 0 0 1-.263-.047 5.282 5.282 0 0 0-.35-.06 17.403 17.403 0 0 0-2.48-.186h-7.227c-.186 0-.373.053-.533.133-.373.16-.64.507-.693.934L11.92 17.12c.133-.027.293-.053.453-.053h2.907c1.547 0 2.933-.187 4.16-.534 3.093-.88 5.173-2.906 6.213-6.106.214-.667.374-1.307.507-1.92a3.18 3.18 0 0 0-.533-.214c-.04-.013-.087-.026-.134-.04Z"/><path fill="#0A0B0D" d="M27.44 9.067c.32.213.64.453.88.746 1.04 1.2 1.36 2.88 1.093 4.854-.013.093-.026.18-.04.266l-.04.267c-1.146 5.893-5.066 7.92-10.08 7.92h-.773c-.613 0-1.12.427-1.227 1.04l-1.093 6.8c-.08.587-.613 1.04-1.227 1.04h-4.48c-.4 0-.8-.373-.72-.827.08-.56 1.814-11.52 1.814-11.52.133-.693.72-1.2 1.413-1.2h2.24c9.013 0 11.44-5.493 12.24-9.386Z"/></svg>