<svg xmlns="http://www.w3.org/2000/svg" fill="#1652F0" viewBox="0 0 12 12"><path d="M3.396.395a.888.888 0 0 0-.878.75v.002L1.337 8.633v.002a.834.834 0 0 0 .824.96h1.05l-.164 1.035a.834.834 0 0 0 .824.965h1.505a.89.89 0 0 0 .877-.747v-.002l.355-2.251h.62a3.432 3.432 0 0 0 3.387-2.904 2.782 2.782 0 0 0-1.19-2.752C9.266 1.49 8 .395 6.403.395H3.396Zm4.608 2.023a3.446 3.446 0 0 0-.391-.022H5.104a.89.89 0 0 0-.877.747v.002l-.47 2.984-.002.005v.004l-.001.005v.001l-.002.01-.11.685h.002L3.4 8.396h-.81l1.073-6.8h2.742c.735 0 1.3.34 1.6.822ZM5.087 5.395l.284-1.8h2.242c.206 0 .398.028.574.077a2.23 2.23 0 0 1-2.17 1.723h-.93Zm-.189 1.2h1.12a3.43 3.43 0 0 0 3.194-2.184c.197.314.28.694.218 1.094a2.232 2.232 0 0 1-2.203 1.89h-.885a.888.888 0 0 0-.878.75l-.355 2.25H4.3l.6-3.8Z"/></svg>