<svg xmlns="http://www.w3.org/2000/svg" fill="#1652F0" viewBox="0 0 12 13"><path d="M7.7 1.65c-.34 0-.66.14-.9.4L2.32 6.73a2.48 2.48 0 0 0-.68 1.71c0 .65.25 1.27.68 1.72.42.44 1 .69 1.59.69.59 0 1.16-.25 1.6-.7L10.41 5l.95.9-4.92 5.15a3.5 3.5 0 0 1-5.07 0 3.78 3.78 0 0 1 0-5.22l4.47-4.68a2.55 2.55 0 0 1 3.7 0 2.74 2.74 0 0 1 0 3.78L5.06 9.6a1.6 1.6 0 0 1-2.31 0 1.7 1.7 0 0 1 0-2.34l4.57-4.79.94.9-4.56 4.8a.4.4 0 0 0-.1.27c0 .1.03.2.1.27.06.07.14.1.21.1a.3.3 0 0 0 .22-.1L8.6 4.03a1.43 1.43 0 0 0 0-1.98c-.24-.26-.57-.4-.9-.4Z"/></svg>