<svg xmlns="http://www.w3.org/2000/svg" fill="#1652F0" viewBox="0 0 24 24"><path d="M9.18 9.31a9.26 9.26 0 0 1 1-3.53A4.6 4.6 0 0 0 7.44 9.3h1.73Zm0 1.38H7.45a4.6 4.6 0 0 0 2.72 3.53 9.26 9.26 0 0 1-.99-3.53Zm4.23 0A7.86 7.86 0 0 1 12 14.54a7.86 7.86 0 0 1-1.41-3.85h2.82Zm-2.82-1.38A7.89 7.89 0 0 1 12 5.46a7.86 7.86 0 0 1 1.41 3.85H10.6Zm4.23 1.38a9.26 9.26 0 0 1-1 3.53 4.6 4.6 0 0 0 2.73-3.53h-1.73Zm1.73-1.38h-1.73a9.26 9.26 0 0 0-1-3.53 4.6 4.6 0 0 1 2.73 3.53Z"/><path fill-rule="evenodd" d="M19 0H3v24h16a2 2 0 0 0 2-2V2a2 2 0 0 0-2-2Zm-1 10a6 6 0 1 1-12 0 6 6 0 0 1 12 0ZM7 19.9v-1.8h10v1.8H7Z" clip-rule="evenodd"/></svg>