<svg xmlns="http://www.w3.org/2000/svg" fill="none" viewBox="0 0 24 24"><path fill="#1652F0" d="M15.55 4a2.5 2.5 0 0 0-1.768.731l-8.038 8.026a4.24 4.24 0 0 0 0 6 4.254 4.254 0 0 0 6.012 0l8.745-8.733 1.413 1.415-8.745 8.733a6.254 6.254 0 0 1-8.838 0 6.24 6.24 0 0 1 0-8.83l8.037-8.026a4.502 4.502 0 0 1 7.682 3.18 4.493 4.493 0 0 1-1.318 3.178L10.686 17.7a2.75 2.75 0 0 1-4.695-1.943c0-.73.29-1.428.806-1.943L14.931 5.7l1.412 1.416-8.132 8.112a.748.748 0 1 0 1.061 1.056l8.046-8.026A2.493 2.493 0 0 0 15.55 4Z"/></svg>