<svg xmlns="http://www.w3.org/2000/svg" fill="#1652F0" viewBox="0 0 24 24"><path d="M9.8 4.98c.2-.1.4-.14.62-.14h5.84a12.39 12.39 0 0 1 2.15.17c.13.03.26.06.39.07l.25.06.25.06c.08.02.16.04.24.08l.12.06.1.04a4.44 4.44 0 0 0-1.1-3.56C17.52.56 15.54 0 12.96 0H6.02c-.52 0-.98.38-1.06.9l-3.1 19.7c-.06.38.24.74.64.74h4.1l2.42-15.3c.06-.46.36-.86.78-1.06Z"/><path d="m19.12 6.19-.1-.03a13.16 13.16 0 0 0-.64-.16 13.05 13.05 0 0 0-2.12-.18h-5.42a.91.91 0 0 0-.4.1.87.87 0 0 0-.52.7l-.98 6.22c.1-.02.22-.04.34-.04h2.18c1.16 0 2.2-.14 3.12-.4a6.57 6.57 0 0 0 4.66-4.58c.16-.5.28-.98.38-1.44a2.38 2.38 0 0 0-.4-.16l-.1-.03Z"/><path d="M20.58 6.8c.24.16.48.34.66.56.78.9 1.02 2.16.82 3.64l-.03.2-.03.2c-.86 4.42-3.8 5.94-7.56 5.94h-.58a.92.92 0 0 0-.92.78l-.82 5.1a.93.93 0 0 1-.92.78H7.84c-.3 0-.6-.28-.54-.62l1.36-8.64c.1-.52.54-.9 1.06-.9h1.68c6.76 0 8.58-4.12 9.18-7.04Z"/></svg>