<svg xmlns="http://www.w3.org/2000/svg" fill="none" viewBox="0 0 24 24"><path fill="#1652F0" d="M20.613 12.772a8.401 8.401 0 0 1-14.689 4.756c5.781-.184 10.859-2.126 14.69-4.756Zm1.592-3.852c-3.82 3.653-10.106 6.731-17.576 6.62l-.002-.005-.134.002a27.18 27.18 0 0 1-.938-.035v.007c-1.126-.09-1.855-.388-2.02-.904-.228-.715.67-1.718 2.315-2.773a8.4 8.4 0 0 1 15.146-4.835c1.939-.093 3.241.204 3.469.916.093.293-.002.634-.26 1.007Zm-1.693-1.245s-.005.014-.028.045a.263.263 0 0 1 .028-.045Zm.452 1.544c.036.013.049.021.049.021s-.02-.005-.05-.02ZM2.987 13.28s.02.004.05.02c-.037-.012-.05-.02-.05-.02Zm.5 1.565s.006-.015.029-.046a.26.26 0 0 1-.028.046Z"/></svg>