<svg xmlns="http://www.w3.org/2000/svg" fill="#1652F0" viewBox="0 0 12 12"><path d="M4.9 2.49c.1-.05.2-.07.31-.07h2.92a6.2 6.2 0 0 1 1.4.15l.12.03.12.04.06.03.05.02c.06-.8-.16-1.36-.55-1.78C8.76.28 7.77 0 6.48 0H3.01a.54.54 0 0 0-.53.45L.93 10.3c-.03.19.12.37.32.37H3.3l1.21-7.65a.7.7 0 0 1 .39-.53Z"/><path d="m9.61 3.11-.05-.01-.05-.02-.22-.06-.1-.02-.13-.02a6.53 6.53 0 0 0-.93-.07H5.42a.46.46 0 0 0-.2.05.44.44 0 0 0-.26.35l-.49 3.11a.88.88 0 0 1 .17-.02h1.09c.58 0 1.1-.07 1.56-.2a3.28 3.28 0 0 0 2.33-2.29c.08-.25.14-.49.19-.72a1.2 1.2 0 0 0-.2-.08Z"/><path d="M10.29 3.4c.12.08.24.17.33.28.39.45.51 1.08.41 1.82l-.01.1-.02.1c-.43 2.21-1.9 2.97-3.78 2.97h-.29a.46.46 0 0 0-.46.39l-.41 2.55a.46.46 0 0 1-.46.39H3.92c-.15 0-.3-.14-.27-.31l.68-4.32a.54.54 0 0 1 .53-.45h.84c3.38 0 4.29-2.06 4.59-3.52Z"/></svg>