<svg xmlns="http://www.w3.org/2000/svg" fill="none" viewBox="0 0 32 32"><path fill="#0A0B0D" d="M11.293 23.783c-4.288 0-7.764-3.426-7.764-7.652 0-4.227 3.476-7.653 7.764-7.653s7.763 3.426 7.763 7.653c0 4.226-3.476 7.652-7.763 7.652Zm0 3.478c6.236 0 11.292-4.983 11.292-11.13C22.585 9.983 17.53 5 11.293 5S0 9.982 0 16.13c0 6.147 5.056 11.13 11.293 11.13Zm12.724-.001C28.668 25.64 32 21.27 32 16.13c0-5.138-3.332-9.51-7.983-11.13v3.793c2.652 1.404 4.454 4.163 4.454 7.337 0 3.175-1.802 5.934-4.454 7.338v3.793Z"/></svg>