<svg xmlns="http://www.w3.org/2000/svg" fill="none" viewBox="0 0 24 24"><path fill="#1652F0" d="M12 0C5.38 0 0 5.38 0 12s5.38 12 12 12 12-5.38 12-12S18.62 0 12 0Zm-.36 18.76c-.92 0-1.66-.68-1.66-1.56s.74-1.56 1.66-1.56c.9 0 1.64.68 1.64 1.56-.02.86-.74 1.56-1.64 1.56Zm3.1-7.44c-.86.82-1.78 1.56-1.88 2.52v.44h-2.42v-.54c0-1.4.94-2.28 1.78-3.12.66-.62 1.22-1.2 1.22-1.92 0-.82-.44-1.34-1.38-1.34-1 0-1.66.72-1.78 1.86h-2.5c.1-2.5 1.9-3.98 4.44-3.98 2.64 0 4 1.34 4 3.24 0 1.26-.7 2.08-1.48 2.84Z"/></svg>