<svg xmlns="http://www.w3.org/2000/svg" fill="#1652F0" viewBox="0 0 24 24"><path d="M7.544 5.329H5.322V7.55h2.222V5.329Z"/><path d="M1.989 1.995v8.89h8.889v-8.89h-8.89Zm6.666 2.222v4.445H4.211V4.217h4.444ZM5.322 16.44h2.222v2.222H5.322V16.44Z"/><path d="M1.989 13.106v8.89h8.889v-8.89h-8.89Zm6.666 2.223v4.444H4.211v-4.444h4.444Zm7.778-10h2.222V7.55h-2.222V5.329Z"/><path d="M13.1 10.884V1.995h8.889v8.89h-8.89Zm2.222-6.667v4.445h4.445V4.217h-4.445ZM13.1 13.106v8.89h2.222v-6.667h1.111v3.333h5.556v-5.556h-2.223v3.334h-1.11v-3.334H13.1Z"/><path d="M19.767 19.773h2.222v2.222h-2.223v-2.222Zm-3.334 0h2.222v2.222h-2.222v-2.222Z"/></svg>