<svg xmlns="http://www.w3.org/2000/svg" fill="none" viewBox="0 0 32 32"><path fill="#0A0B0D" d="M5.333 5.333h4v4h-4v-4Z"/><path fill="#0A0B0D" d="M0 14.667h14.667V0H0v14.667ZM3.333 3.333h8v8h-8v-8Zm23.334 2h-4v4h4v-4Z"/><path fill="#0A0B0D" d="M17.333 0v14.667H32V0H17.333Zm11.334 11.333h-8v-8h8v8ZM5.333 22.667h4v4h-4v-4Z"/><path fill="#0A0B0D" d="M0 32h14.667V17.333H0V32Zm3.333-11.333h8v8h-8v-8Zm23.334 2.666h2v-6H32v9.334h-8.667v-6h-2.666V32h-3.334V17.333h9.334v6Z"/><path fill="#0A0B0D" d="M26.667 28.667h-3.334V32h3.334v-3.333Zm2 0H32V32h-3.333v-3.333Z"/></svg>