<svg xmlns="http://www.w3.org/2000/svg" fill="#1652F0" viewBox="0 0 16 16"><path d="M8 0C3.587 0 0 3.587 0 8s3.587 8 8 8 8-3.587 8-8-3.587-8-8-8Zm-.24 12.507c-.613 0-1.107-.454-1.107-1.04 0-.587.494-1.04 1.107-1.04.6 0 1.093.453 1.093 1.04a1.08 1.08 0 0 1-1.093 1.04Zm2.067-4.96c-.574.546-1.187 1.04-1.254 1.68v.293H6.96v-.36c0-.933.627-1.52 1.187-2.08.44-.413.813-.8.813-1.28 0-.547-.293-.893-.92-.893-.667 0-1.107.48-1.187 1.24H5.187c.066-1.667 1.266-2.654 2.96-2.654 1.76 0 2.666.894 2.666 2.16 0 .84-.466 1.387-.986 1.894Z"/></svg>