<svg xmlns="http://www.w3.org/2000/svg" fill="none" viewBox="0 0 8 8"><path fill="#0A0B0D" d="M4 0C1.793 0 0 1.793 0 4s1.793 4 4 4 4-1.793 4-4-1.793-4-4-4Zm-.12 6.253c-.307 0-.553-.226-.553-.52 0-.293.246-.52.553-.52.3 0 .547.227.547.52a.54.54 0 0 1-.547.52Zm1.033-2.48c-.286.274-.593.52-.626.84v.147H3.48v-.18c0-.467.313-.76.593-1.04.22-.207.407-.4.407-.64 0-.273-.147-.447-.46-.447-.333 0-.553.24-.593.62h-.834c.034-.833.634-1.326 1.48-1.326.88 0 1.334.446 1.334 1.08 0 .42-.234.693-.494.946Z"/></svg>