<svg xmlns="http://www.w3.org/2000/svg" fill="#1652F0" viewBox="0 0 16 16"><path d="M5.072 3.329h-1.75v1.75h1.75v-1.75Z"/><path d="M.989.995v6.417h6.416V.995H.99Zm4.958 1.459v3.5h-3.5v-3.5h3.5Zm-2.625 8.458h1.75v1.75h-1.75v-1.75Z"/><path d="M.989 8.579v6.416h6.416V8.58H.99Zm4.958 1.458v3.5h-3.5v-3.5h3.5Zm4.958-6.708h1.75v1.75h-1.75v-1.75Z"/><path d="M8.572 7.412V.995h6.417v6.417H8.572Zm1.458-4.958v3.5h3.5v-3.5h-3.5ZM8.572 8.579h3.938v2.624h1.02V8.58h1.459v4.083H11.05v-2.625h-1.02v4.958H8.571V8.58Zm4.958 4.958h1.459v1.458H13.53v-1.458Z"/><path d="M11.051 13.537h1.459v1.458h-1.46v-1.458Z"/></svg>