<svg xmlns="http://www.w3.org/2000/svg" fill="none" viewBox="0 0 32 32"><path fill="#0A0B0D" d="M16 0C7.173 0 0 7.173 0 16s7.173 16 16 16 16-7.173 16-16S24.827 0 16 0Zm-.48 25.013c-1.227 0-2.213-.906-2.213-2.08 0-1.173.986-2.08 2.213-2.08 1.2 0 2.187.907 2.187 2.08-.027 1.147-.987 2.08-2.187 2.08Zm4.133-9.92c-1.146 1.094-2.373 2.08-2.506 3.36v.587H13.92v-.72c0-1.867 1.253-3.04 2.373-4.16.88-.827 1.627-1.6 1.627-2.56 0-1.093-.587-1.787-1.84-1.787-1.333 0-2.213.96-2.373 2.48h-3.334c.134-3.333 2.534-5.306 5.92-5.306 3.52 0 5.334 1.786 5.334 4.32 0 1.68-.934 2.773-1.974 3.786Z"/></svg>