<svg xmlns="http://www.w3.org/2000/svg" fill="#1652F0" viewBox="0 0 13 13"><path d="M3.106 0 1.965 1.142l9.893 9.893L13 9.894l-2.63-2.63A10.497 10.497 0 0 0 12.91.071a10.498 10.498 0 0 0-7.193 2.54L3.107 0Zm3.725 3.724a8.927 8.927 0 0 1 4.416-1.99 8.927 8.927 0 0 1-1.99 4.416l-.45-.45A1.106 1.106 0 1 0 7.28 4.174l-.45-.449Zm-5.607.436a7.73 7.73 0 0 1 1.309-.69l2.251 2.253-.998.998 2.473 2.474.999-.999 2.252 2.252a7.724 7.724 0 0 1-1.686 2.533l-2.738-2.739-.181.181a3.656 3.656 0 0 1-3.34.993 3.656 3.656 0 0 1 .992-3.34l.182-.181L0 5.157a7.726 7.726 0 0 1 1.224-.997Z"/></svg>