<svg xmlns="http://www.w3.org/2000/svg" fill="none" viewBox="0 0 12 12"><path fill="#0A0B0D" d="M2.5 7.49a6.931 6.931 0 0 1 1.916-.104c.381.045.989.141 1.375.258.664.2 1.33.362 2.029.367 1.099.01 2.146-.308 3.18-.643V0l-.389.121c-.367.116-.737.232-1.111.33-.568.148-1.144.253-1.733.247C7.172.69 6.75.565 6.234.407 5.832.283 5.068.137 4.49.075 3.313-.053 2.142.147 1 .408V12h1.468V7.498L2.5 7.49Zm0-1.526V1.641c.645-.1 1.247-.138 1.827-.075.517.056 1.181.187 1.467.275l.009.003c.524.16 1.123.344 1.947.353a7.67 7.67 0 0 0 1.75-.203v4.262c-.596.162-1.134.26-1.668.255-.482-.004-.984-.115-1.608-.303-.516-.156-1.23-.264-1.63-.312-.47-.056-1.326-.056-2.094.068Z"/></svg>