<svg xmlns="http://www.w3.org/2000/svg" fill="#1652F0" viewBox="0 0 24 24"><path d="m18.939 13.752 4.865 4.865-1.768 1.768L3.651 2 5.42.232l4.829 4.829A19.506 19.506 0 0 1 23.99.011c.165 5.074-1.655 10-5.051 13.741Zm-7.006-7.006 1.371 1.371a2.056 2.056 0 1 1 2.579 2.579l1.37 1.371a17.127 17.127 0 0 0 4.268-9.588 17.127 17.127 0 0 0-9.588 4.267ZM0 9.46A14.358 14.358 0 0 1 5.03 6.2l3.707 3.706-2.463 2.463 5.357 5.357 2.463-2.463L17.8 18.97A14.357 14.357 0 0 1 14.539 24L9.45 18.911l-.337.337a6.795 6.795 0 0 1-6.205 1.844 6.795 6.795 0 0 1 1.844-6.206l.337-.336L0 9.46Z"/></svg>