<svg xmlns="http://www.w3.org/2000/svg" fill="#1652F0" viewBox="0 0 12 12"><path d="m3.108 2.15.76-.778 1.71 1.668a10.829 10.829 0 0 1 4.154-1.801c.38-.076.76-.127 1.135-.156l.045-.003.042-.003v.007c-.034.4-.097.806-.186 1.212a10.835 10.835 0 0 1-1.823 4.029l1.672 1.63-.838.86.078-.08-6.75-6.585ZM6.78 4.214a.672.672 0 0 1 .982-.029.673.673 0 0 1-.01.951l-.014.013.337.328a9.67 9.67 0 0 0 1.4-2.95 9.662 9.662 0 0 0-3.024 1.366l.33.321Zm-3.391-.113-2.366.185 1.789 1.806-.002.004.422.431a1.69 1.69 0 0 0-.762 1.396l-.016 1.498 1.498.016a1.69 1.69 0 0 0 1.41-.73l.391.4 1.79 1.806.223-2.542L6.53 7.165a7.765 7.765 0 0 1-.572.434L4.33 5.935a7.76 7.76 0 0 1 .407-.518l-1.35-1.316Zm.746 3.35.325.332a.49.49 0 0 1-.495.455l-.298-.004.003-.298a.49.49 0 0 1 .465-.485Z"/></svg>