<svg xmlns="http://www.w3.org/2000/svg" fill="none" viewBox="0 0 16 16"><path fill="#0A0B0D" d="M15.993.007A13.005 13.005 0 0 0 6.7 3.496l-.386.018A9.58 9.58 0 0 0 0 6.307L3.393 9.7l-.225.224a4.53 4.53 0 0 0-1.23 4.137 4.53 4.53 0 0 0 4.138-1.229l.224-.225L9.693 16a9.57 9.57 0 0 0 2.793-6.314l.018-.386a13.004 13.004 0 0 0 3.49-9.293Zm-2.035 2.035a11.08 11.08 0 0 1-3.127 6.222l-3.077 3.077L4.66 8.246l3.077-3.077a11.08 11.08 0 0 1 6.222-3.127Zm-4.75 4.75a1.37 1.37 0 1 0 1.938-1.939 1.37 1.37 0 0 0-1.938 1.939ZM2.894 6.48l.014.013.05-.05a7.397 7.397 0 0 0-.064.037Zm6.611 6.611.014.014.037-.065-.05.051Z"/></svg>