<svg xmlns="http://www.w3.org/2000/svg" fill="#1652F0" viewBox="0 0 24 24"><path d="M4.5 15.158c1.723-.414 2.976-.45 4.016-.33.92.104 1.692.326 2.582.583l.54.155c1.117.314 2.371.618 3.99.63 2.123.017 4.147-.609 6.155-1.23l.217-.067V.057c-.327.096-.656.196-.985.296-.502.153-1.007.307-1.515.449-1.312.366-2.643.652-4.002.637-1.286-.013-2.253-.252-3.277-.547l-.378-.11C10.915.51 9.868.204 8.582.071 6.353-.16 4.168.248 2 .719v23.28h2.5v-8.841Zm0-12.387c1.356-.232 2.6-.34 3.824-.214 1.047.109 1.876.35 2.808.622l.397.116c1.1.316 2.322.627 3.942.644 1.392.015 2.767-.231 4.029-.55v9.653c-1.388.398-2.612.665-3.852.655-1.294-.01-2.3-.247-3.332-.538l-.48-.138c-.89-.258-1.89-.547-3.037-.678-1.22-.139-2.594-.102-4.299.253V2.771Z"/></svg>