<svg xmlns="http://www.w3.org/2000/svg" fill="#1652F0" viewBox="0 0 24 24"><path d="M4.5 15.16a11.13 11.13 0 0 1 6.6.25l.54.16c1.11.31 2.37.61 3.99.63 2.12.01 4.14-.61 6.15-1.23l.22-.07V.06l-.98.3L19.5.8c-1.31.37-2.64.65-4 .64a11.52 11.52 0 0 1-3.28-.55l-.38-.1C10.92.5 9.87.2 8.58.06 6.35-.16 4.17.25 2 .72V24h2.5v-8.84Zm0-12.39a14 14 0 0 1 3.82-.21c1.05.1 1.88.35 2.81.62l.4.11c1.1.32 2.32.63 3.94.65a16 16 0 0 0 4.03-.55v9.65c-1.39.4-2.61.67-3.85.66a11.94 11.94 0 0 1-3.81-.68c-.9-.26-1.9-.55-3.04-.68-1.22-.14-2.6-.1-4.3.26V2.77Z"/></svg>