<svg xmlns="http://www.w3.org/2000/svg" fill="#1652F0" viewBox="0 0 16 16"><path d="M14.54.13c-.51.14-1 .29-1.54.42-.92.24-1.87.37-2.83.38A8.29 8.29 0 0 1 8 .59L7.76.52C7.05.3 6.31.14 5.57.06A15.3 15.3 0 0 0 1 .5V16h2v-5.69a7.7 7.7 0 0 1 4.2.19l.36.1c.87.26 1.78.4 2.69.4 1.62-.05 3.22-.34 4.75-.86V0l-.46.13ZM13 8.62c-.89.24-1.8.37-2.73.38-.74 0-1.48-.12-2.19-.33l-.32-.09A9.17 9.17 0 0 0 3 8.27V2.16a9.6 9.6 0 0 1 2.37-.11c.63.07 1.25.2 1.85.39l.27.08c.86.26 1.76.4 2.66.41.96 0 1.92-.11 2.85-.33v6.02Z"/></svg>