<svg xmlns="http://www.w3.org/2000/svg" fill="none" viewBox="0 0 32 32"><path fill="#0A0B0D" d="M24.305 16.236c-.142-.04-.284-.06-.426-.08 2.494-11.763 2.494-12.403 2.494-12.743 0-1.44-.79-2.66-2.19-3.22-1.785-.561-3.326.12-4.239 1.84l-2.231 6.601c-1.318-5.781-1.44-6.061-1.541-6.281-1.075-2.421-2.88-2.401-3.854-2.2-.832.18-2.718.94-2.515 4l.71 7.782c-.974-.3-2.008-.18-3.042.46l-.224.16c-.851.82-1.44 2.16-.973 3.701-.609.26-1.156.68-1.602 1.3-1.096 1.36-.832 3.281.649 4.682l1.359 1.26C7.187 28.899 11.203 32 17.855 32c7.281 0 8.478-7.182 8.985-10.242l.04-.26c.609-3.602-1.237-4.822-2.575-5.262ZM12.865 2.593c.406-.08.63-.04.994.76.082.26.528 1.94 2.414 10.202l2.434.12 3.529-10.582c.365-.64.67-.68 1.095-.56.446.18.507.62.507.86-.02.36-.365 2.46-2.454 12.243-2.048-.44-3.448-.72-4.137-.88-1.38-.32-2.495.02-3.286.66l-.67-.9-.973-10.563c-.081-1.22.304-1.3.548-1.36ZM8.932 14.436c.547-.3.852-.22 1.176.04l2.596 3.46c-.06.86.102 1.64.528 2.281-.04.06-.102.1-.122.14-.203.12-.487.3-1.075-.2-1.46-1.8-2.515-3.2-3.103-4.121-.162-.26-.588-.94 0-1.6ZM6.7 19.076c.365-.5.649-.6.892-.58.65.9 1.501 1.981 2.617 3.362.73.66 1.42.96 2.028 1.06.081.36-.04.6-.162.76-.568.72-.832.58-1.116.42l-3.874-3.64c-.304-.3-.77-.921-.385-1.381Zm17.686 2.021-.04.26c-.69 4.121-1.745 8.142-6.491 8.142-3.752 0-6.287-1.04-7.606-3.04.365.14.75.22 1.116.22.973 0 1.906-.48 2.677-1.44.588-.68.994-1.761.649-3.001.203-.16.385-.34.548-.54l1.947.46c-.812.88-1.238 2.08-1.238 3.6h2.536c0-.94.223-1.64.649-2.04.527-.48 1.46-.7 2.778-.62l.163-2.5c-.183-.02-.366 0-.548 0l-5.578-1.261c-.69-.34-.953-.78-.608-1.78.142-.28.568-.54 1.339-.38.993.22 3.366.72 6.956 1.44.325.14 1.096.4.75 2.48Z"/></svg>