<svg xmlns="http://www.w3.org/2000/svg" fill="none" viewBox="0 0 32 32"><path fill="#0A0B0D" d="M19.333 14a3.333 3.333 0 1 1-6.666 0 3.333 3.333 0 0 1 6.666 0Z"/><path fill="#0A0B0D" d="M0 0v28h32V0H0Zm25.333 15.333H21.84a5.694 5.694 0 0 1-.773 1.854l2.48 2.48-1.88 1.88-2.48-2.48a6 6 0 0 1-1.854.773v3.493h-2.666V19.84a5.694 5.694 0 0 1-1.854-.773l-2.48 2.48-1.88-1.88 2.48-2.48a5.694 5.694 0 0 1-.773-1.854H6.667v-2.666h3.493a5.694 5.694 0 0 1 .773-1.854l-2.48-2.466 1.88-1.88 2.48 2.466a5.694 5.694 0 0 1 1.854-.773V4.667h2.666V8.16a5.694 5.694 0 0 1 1.854.773l2.48-2.48 1.88 1.88-2.48 2.48a5.7 5.7 0 0 1 .773 1.854h3.493v2.666ZM0 29.333h8V32H0v-2.667Zm24 0h8V32h-8v-2.667Z"/></svg>