<svg xmlns="http://www.w3.org/2000/svg" fill="#1652F0" viewBox="0 0 24 24"><path d="M11.989 13.384a1.944 1.944 0 1 0 0-3.889 1.944 1.944 0 0 0 0 3.89Z"/><path d="M1.989 1.995h20v20h-4.445v-1.11H6.434v1.11H1.988v-20Zm13.889 9.445c0-.361-.05-.71-.141-1.042l2.03-1.172-.972-1.684-2.031 1.173A3.887 3.887 0 0 0 13.1 7.712V5.329h-1.945V7.64a3.88 3.88 0 0 0-1.838.974L7.252 7.422 6.28 9.106l2.002 1.155a3.887 3.887 0 0 0-.041 2.22l-2.03 1.172.971 1.684 2.032-1.173c.52.53 1.19.911 1.941 1.075v2.312H13.1v-2.383a3.89 3.89 0 0 0 1.762-1.107l2.002 1.156.973-1.684-2.064-1.192c.068-.29.105-.591.105-.901Z"/></svg>