<svg xmlns="http://www.w3.org/2000/svg" fill="none" viewBox="0 0 32 32"><path fill="#0A0B0D" d="M7.12 21.28h4.827c.32 1.573 1.253 2.56 3.426 2.56 3.04 0 4.547-2.4 4.64-7.067-1.053 1.667-2.72 2.787-5.466 2.787-4.414 0-7.654-2.747-7.654-7.387 0-4.733 3.387-7.933 8.867-7.933 6.307 0 9.347 4.253 9.347 10.853v1.027c0 7.493-3.427 11.68-9.574 11.68-4.96-.027-7.906-2.387-8.413-6.52Zm12.48-9.027c0-2.653-1.573-4.293-3.907-4.293-2.266 0-3.773 1.667-3.773 4.067 0 2.4 1.467 4.066 3.773 4.066 2.334 0 3.907-1.6 3.907-3.84Z"/></svg>