<svg xmlns="http://www.w3.org/2000/svg" fill="#1652F0" viewBox="0 0 24 25"><path d="M18.02 12.181a2.333 2.333 0 0 0-.315-.06c1.846-8.822 1.846-9.302 1.846-9.557 0-1.08-.585-1.996-1.62-2.416-1.32-.42-2.461.09-3.136 1.38l-1.65 4.952c-.976-4.337-1.066-4.547-1.141-4.712-.795-1.815-2.13-1.8-2.85-1.65-.616.135-2.011.705-1.861 3l.525 5.837c-.72-.225-1.485-.135-2.25.345l-.166.12c-.63.615-1.065 1.62-.72 2.776-.45.195-.855.51-1.185.975-.81 1.02-.615 2.46.48 3.511l1.005.945c.375 4.051 3.346 6.377 8.267 6.377 5.387 0 6.272-5.386 6.647-7.682l.03-.195c.45-2.7-.915-3.616-1.905-3.946ZM9.558 1.948c.3-.06.466-.03.736.57.06.196.39 1.456 1.785 7.652l1.8.09 2.611-7.936c.27-.48.495-.51.81-.42.33.134.375.465.375.645-.015.27-.27 1.845-1.815 9.182-1.515-.33-2.55-.54-3.06-.66-1.021-.24-1.846.015-2.431.495l-.496-.675-.72-7.922c-.06-.916.225-.976.405-1.02Zm-2.91 8.883c.405-.225.63-.165.87.03l1.92 2.595c-.045.645.075 1.23.39 1.71-.03.046-.075.076-.09.106-.15.09-.36.225-.795-.15-1.08-1.35-1.86-2.4-2.295-3.091-.12-.195-.435-.705 0-1.2Zm-1.65 3.48c.27-.375.48-.45.66-.435.48.676 1.11 1.486 1.935 2.521.54.495 1.05.72 1.5.795.06.27-.03.45-.12.57-.42.54-.615.436-.825.315l-2.866-2.73c-.225-.225-.57-.69-.285-1.035Zm13.082 1.516-.03.195c-.51 3.09-1.29 6.106-4.8 6.106-2.776 0-4.652-.78-5.627-2.28.27.105.555.165.825.165.72 0 1.41-.36 1.98-1.08.436-.51.736-1.32.48-2.25.15-.12.286-.256.406-.406l1.44.345c-.6.66-.915 1.56-.915 2.7h1.875c0-.704.165-1.23.48-1.53.39-.36 1.08-.525 2.056-.465l.12-1.875c-.135-.015-.27 0-.405 0l-4.126-.945c-.51-.255-.705-.586-.45-1.336.105-.21.42-.405.99-.285.735.165 2.49.54 5.146 1.08.24.105.81.3.556 1.86Z"/></svg>