<svg xmlns="http://www.w3.org/2000/svg" fill="#1652F0" viewBox="0 0 16 16"><path d="M3.449 1.054v8.092h2.638l.08-.175c.184-.4.435-.699.748-.899.312-.2.703-.313 1.181-.313.653 0 1.114.21 1.416.556.308.352.486.883.486 1.586v.203c0 .7-.186 1.25-.515 1.621-.324.367-.818.595-1.516.595-.624 0-1.087-.184-1.4-.46a1.63 1.63 0 0 1-.54-1.098l-.025-.273H2.901l.031.328c.24 2.493 2.262 4.12 4.98 4.12 1.583 0 2.88-.518 3.781-1.412.901-.894 1.384-2.14 1.384-3.55 0-1.4-.42-2.596-1.188-3.446-.769-.852-1.865-1.331-3.164-1.331-.918 0-1.879.25-2.567.987V3.689h6.197V1.054H3.45Z"/></svg>