<svg xmlns="http://www.w3.org/2000/svg" fill="none" viewBox="0 0 32 32"><path fill="#0A0B0D" d="M7.067 20.16h4.666c.187 2.213 1.374 3.813 4.134 3.813 2.586 0 3.813-1.253 3.813-3.293 0-2.173-1.213-3.293-3.68-3.293h-1.787v-3.454h1.667c2.4 0 3.493-1.093 3.493-3.04 0-1.626-1.053-2.853-3.173-2.853-2.173 0-3.52 1.307-3.773 3.453H7.84c.253-4.186 3.227-7.266 8.453-7.266 5.027 0 7.974 2.626 7.974 6.213 0 2.56-1.507 4.16-3.774 4.96 2.654.573 4.454 2.467 4.454 5.373 0 4.294-3.294 7.014-8.867 7.014-5.84-.014-8.813-2.987-9.013-7.627Z"/></svg>