<svg xmlns="http://www.w3.org/2000/svg" fill="#1652F0" viewBox="0 0 24 24"><path d="M15.878 11.44c0 .31-.037.612-.105.901l2.064 1.192-1.111 1.924-2.065-1.192c-.437.413-.97.726-1.561.902v2.384h-2.222v-2.383a3.886 3.886 0 0 1-1.561-.903l-2.065 1.192-1.111-1.924 2.064-1.192a3.9 3.9 0 0 1 0-1.803L6.141 9.346l1.111-1.924 2.065 1.192c.437-.413.97-.726 1.56-.902V5.329H13.1v2.383a3.884 3.884 0 0 1 1.56.902l2.066-1.192 1.11 1.924-2.063 1.192c.068.29.105.591.105.902Zm-3.89 1.666a1.667 1.667 0 1 0 0-3.333 1.667 1.667 0 0 0 0 3.333Z"/><path d="M1.989 1.995v20h4.444v-1.11h11.111v1.11h4.445v-20h-20Zm17.778 2.222v14.445H4.21V4.217h15.556Z"/></svg>