<svg xmlns="http://www.w3.org/2000/svg" fill="#1652F0" viewBox="0 0 24 24"><path d="M14.5 10.5a2.5 2.5 0 1 1-5 0 2.5 2.5 0 0 1 5 0Z"/><path d="M0 0v21h24V0H0Zm19 11.5h-2.62c-.11.5-.31.97-.58 1.39l1.86 1.86-1.41 1.41-1.86-1.86a4.5 4.5 0 0 1-1.39.58v2.62h-2v-2.62c-.5-.11-.97-.31-1.39-.58l-1.86 1.86-1.41-1.41 1.86-1.86a4.27 4.27 0 0 1-.58-1.39H5v-2h2.62c.11-.5.31-.97.58-1.39L6.34 6.26l1.41-1.41L9.61 6.7c.42-.27.89-.47 1.39-.58V3.5h2v2.62c.5.11.97.31 1.39.58l1.86-1.86 1.41 1.41-1.86 1.86c.27.42.47.89.58 1.39H19v2ZM0 22h6v2H0v-2Zm18 0h6v2h-6v-2Z"/></svg>