<svg xmlns="http://www.w3.org/2000/svg" fill="#1652F0" viewBox="0 0 16 16"><path d="M7.987 9.452a1.458 1.458 0 1 0 0-2.917 1.458 1.458 0 0 0 0 2.917Z"/><path d="M14.989.995h-14v14h14v-14ZM8.92 3.91v1.319c.37.125.707.322.993.574l1.143-.66.934 1.617-1.143.66a2.938 2.938 0 0 1 0 1.147l1.143.66-.934 1.616-1.143-.66a2.89 2.89 0 0 1-.993.574v1.32H7.053v-1.32a2.914 2.914 0 0 1-.993-.574l-1.143.66-.933-1.616 1.143-.66a2.93 2.93 0 0 1 0-1.147l-1.143-.66.933-1.617 1.143.66c.287-.252.624-.45.993-.574V3.91H8.92Z"/></svg>