<svg xmlns="http://www.w3.org/2000/svg" fill="none" viewBox="0 0 8 8"><path fill="#0A0B0D" d="M1.767 5.336c0-.777.4-1.345 1.053-1.607-.52-.239-.833-.687-.833-1.33 0-1.114.953-1.75 2.02-1.75 1.093 0 2.006.644 2.006 1.742 0 .643-.326 1.084-.833 1.338.673.262 1.047.815 1.047 1.578 0 1.255-.96 1.943-2.234 1.943-1.253-.008-2.226-.658-2.226-1.914Zm3.186-.142c0-.627-.406-.979-.946-.979-.527 0-.96.352-.96.987s.426.987.953.987c.547 0 .953-.36.953-.995ZM4.82 2.49c0-.494-.353-.823-.807-.823-.453 0-.82.307-.82.83 0 .523.374.837.827.837.46-.007.8-.321.8-.844Z"/></svg>