<svg xmlns="http://www.w3.org/2000/svg" fill="none" viewBox="0 0 32 32"><path fill="#0A0B0D" d="M7.053 20.96c0-2.787 1.6-4.8 4.227-5.733-2.08-.867-3.333-2.467-3.333-4.774 0-3.973 3.813-6.24 8.093-6.24 4.387 0 8.027 2.307 8.027 6.214 0 2.306-1.307 3.866-3.334 4.773 2.694.933 4.187 2.907 4.187 5.627 0 4.48-3.84 6.946-8.933 6.946-5.027 0-8.934-2.333-8.934-6.813Zm12.774-.507c0-2.24-1.627-3.493-3.774-3.493-2.106 0-3.84 1.253-3.84 3.52 0 2.267 1.694 3.52 3.8 3.52 2.174 0 3.814-1.28 3.814-3.547Zm-.547-9.666c0-1.76-1.413-2.947-3.227-2.947-1.813 0-3.266 1.12-3.266 2.973 0 1.854 1.506 2.974 3.293 2.974 1.853 0 3.2-1.12 3.2-3Z"/></svg>