<svg xmlns="http://www.w3.org/2000/svg" fill="none" viewBox="0 0 24 24"><path fill="#0A0B0D" d="m0 24 4-3 4 3 4-3 4 3 4-3 4 3V0H0v24ZM2.5 2.5h19V19L20 17.88 18.5 19 16 20.88 13.5 19 12 17.88 10.5 19 8 20.88 5.5 19 4 17.88 2.5 19V2.5Z"/><path fill="#0A0B0D" d="M15.75 11.93c-1.33 0-2.4 1.07-2.4 2.4 0 1.33 1.07 2.4 2.4 2.4 1.33 0 2.4-1.07 2.4-2.4 0-1.33-1.07-2.4-2.4-2.4Zm-7.5-2.4c1.33 0 2.4-1.07 2.4-2.4 0-1.33-1.07-2.4-2.4-2.4-1.33 0-2.4 1.07-2.4 2.4 0 1.33 1.07 2.4 2.4 2.4Zm8.481-5.54L5.481 15.24l1.769 1.77L18.5 5.759 16.731 3.99Z"/></svg>