<svg xmlns="http://www.w3.org/2000/svg" fill="#1652F0" viewBox="0 0 24 24"><path d="M21.543 7.23c.015.206.015.412.015.62 0 6.34-4.953 13.65-14.01 13.65v-.004A14.21 14.21 0 0 1 0 19.346a10.055 10.055 0 0 0 7.287-1.988c-2.107-.04-3.954-1.378-4.6-3.332.738.139 1.499.11 2.223-.083C2.613 13.491.96 11.525.96 9.241v-.06c.685.37 1.451.577 2.235.6C1.032 8.37.365 5.568 1.671 3.375c2.5 2.997 6.189 4.82 10.148 5.012a4.722 4.722 0 0 1 1.425-4.583c1.983-1.817 5.102-1.724 6.966.208a10.04 10.04 0 0 0 3.127-1.165A4.84 4.84 0 0 1 21.172 5.5 9.996 9.996 0 0 0 24 4.745a9.865 9.865 0 0 1-2.457 2.485Z"/></svg>