<svg xmlns="http://www.w3.org/2000/svg" fill="none" viewBox="0 0 32 32"><path fill="#0A0B0D" d="m0 32 5.333-4 5.334 4L16 28l5.333 4 5.334-4L32 32V0H0v32ZM3.333 3.333h25.334v22l-2-1.493-2 1.493-3.334 2.507L18 25.333l-2-1.493-2 1.493-3.333 2.507-3.334-2.507-2-1.493-2 1.493v-22Z"/><path fill="#0A0B0D" d="M21 15.907a3.192 3.192 0 0 0-3.2 3.2c0 1.773 1.427 3.2 3.2 3.2 1.773 0 3.2-1.427 3.2-3.2 0-1.774-1.427-3.2-3.2-3.2Zm-10-3.2c1.773 0 3.2-1.427 3.2-3.2 0-1.774-1.427-3.2-3.2-3.2a3.192 3.192 0 0 0-3.2 3.2c0 1.773 1.427 3.2 3.2 3.2Zm11.308-7.386-15 15 2.357 2.357 15-15-2.357-2.357Z"/></svg>