<svg xmlns="http://www.w3.org/2000/svg" fill="none" viewBox="0 0 32 32"><path fill="#0A0B0D" d="M28.724 9.64c.02.275.02.55.02.827 0 8.452-6.605 18.2-18.68 18.2v-.005A18.938 18.938 0 0 1 0 25.794a13.406 13.406 0 0 0 9.716-2.651c-2.809-.052-5.273-1.836-6.133-4.442a6.712 6.712 0 0 0 2.964-.11c-3.063-.603-5.266-3.225-5.266-6.27v-.08a6.65 6.65 0 0 0 2.98.8C1.374 11.163.485 7.424 2.227 4.5c3.333 3.995 8.252 6.425 13.53 6.682-.528-2.222.195-4.55 1.9-6.111 2.644-2.422 6.803-2.298 9.289.277 1.47-.282 2.88-.808 4.169-1.553a6.452 6.452 0 0 1-2.886 3.538A13.326 13.326 0 0 0 32 6.327a13.15 13.15 0 0 1-3.276 3.313Z"/></svg>