<svg xmlns="http://www.w3.org/2000/svg" fill="none" viewBox="0 0 24 24"><path fill="#0A0B0D" d="M12 14.462a2.462 2.462 0 1 0 0-4.923 2.462 2.462 0 0 0 0 4.923Z"/><path fill="#0A0B0D" d="M22.5 18V6L12 0 1.5 6v12L12 24l10.5-6ZM20 13.292h-1.846a6.216 6.216 0 0 1-.886 2.142l1.304 1.304-1.834 1.834-1.304-1.304a6.216 6.216 0 0 1-2.142.886V20h-2.584v-1.846a6.217 6.217 0 0 1-2.142-.886l-1.305 1.304-1.833-1.834 1.304-1.304a6.215 6.215 0 0 1-.886-2.142H4v-2.584h1.846c.16-.776.468-1.502.886-2.142L5.428 7.261 7.26 5.428l1.305 1.304a6.216 6.216 0 0 1 2.142-.886V4h2.584v1.846c.776.16 1.502.468 2.142.886l1.304-1.304 1.834 1.833-1.304 1.305c.418.64.726 1.366.886 2.142H20v2.584Z"/></svg>