<svg xmlns="http://www.w3.org/2000/svg" fill="none" viewBox="0 0 12 12"><path fill="#1652F0" d="M7.172 6a1.172 1.172 0 1 1-2.344 0 1.172 1.172 0 0 1 2.344 0Z"/><path fill="#1652F0" d="M10.815 9.25 11.25 9V3L5.995 0 .75 3v6l5.245 3 4.82-2.75Zm-1.97-4.025h.905v1.563h-.904a2.819 2.819 0 0 1-.278.674l.645.638-.126.124v.001l-.862.863-.006-.006L8.1 9.2l-.637-.637c-.21.118-.437.216-.675.282v.905H5.225v-.904a2.817 2.817 0 0 1-.683-.282L3.9 9.2 2.8 8.1l.645-.645a3.076 3.076 0 0 1-.278-.667H2.25V5.225h.917c.064-.238.156-.465.277-.675L2.8 3.9l1.1-1.1.653.647c.21-.117.435-.214.672-.28V2.25h1.563v.917c.236.063.461.155.67.275L8.1 2.8l1.113 1.1-.65.65c.118.21.216.436.282.675Z"/></svg>