<svg xmlns="http://www.w3.org/2000/svg" fill="none" viewBox="0 0 16 16"><path fill="#0A0B0D" d="M9.558 7.994a1.564 1.564 0 1 1-3.129 0 1.564 1.564 0 0 1 3.13 0Z"/><path fill="#0A0B0D" d="M15 12V4L8 0 1 4v8l7 4 3.808-2.18 2.616-1.49L15 12Zm-2-5v2h-1.196c-.09.35-.227.68-.405.984l.844.845-1.415 1.414-.844-.845a3.827 3.827 0 0 1-.984.406V13H7v-1.196c-.35-.09-.68-.227-.984-.405l-.844.844-1.283-1.283-.132-.132.844-.844A3.831 3.831 0 0 1 4.196 9H3V7h1.196c.09-.35.227-.68.405-.984l-.844-.844L5.04 3.889l.132-.132.844.844A3.83 3.83 0 0 1 7 4.196V3h2v1.196c.35.09.68.227.984.405l.844-.844 1.283 1.283.132.132-.845.844c.179.303.316.633.406.984H13Z"/></svg>