<svg xmlns="http://www.w3.org/2000/svg" fill="none" viewBox="0 0 32 32"><path fill="#0A0B0D" d="M16 19.282a3.282 3.282 0 1 0 0-6.564 3.282 3.282 0 0 0 0 6.564Z"/><path fill="#0A0B0D" d="M30 24V8L16 0 2 8v16l14 8 14-8Zm-3.333-6.277h-2.462a8.286 8.286 0 0 1-1.181 2.855l1.739 1.74-2.445 2.445-1.74-1.74a8.286 8.286 0 0 1-2.855 1.182v2.462h-3.446v-2.462a8.286 8.286 0 0 1-2.855-1.181l-1.74 1.739-2.445-2.445 1.74-1.74a8.287 8.287 0 0 1-1.182-2.855H5.333v-3.446h2.462a8.288 8.288 0 0 1 1.181-2.855l-1.74-1.74 2.446-2.445 1.74 1.74a8.288 8.288 0 0 1 2.855-1.182V5.333h3.446v2.462a8.287 8.287 0 0 1 2.855 1.181l1.74-1.74 2.445 2.446-1.74 1.74a8.286 8.286 0 0 1 1.182 2.855h2.462v3.446Z"/></svg>