<svg xmlns="http://www.w3.org/2000/svg" fill="none" viewBox="0 0 32 32"><path fill="#0A0B0D" d="M11.874 28.308c0 2.082 1.751 3.692 3.929 3.692 2.13 0 3.834-1.657 3.881-3.692 0-2.083-1.751-3.693-3.881-3.693-2.178 0-3.93 1.61-3.93 3.693Zm6.816-7.953c.237-2.272 2.415-4.024 4.45-5.965 1.846-1.798 3.503-3.74 3.503-6.721C26.643 3.172 23.424 0 17.175 0 11.165 0 6.903 3.503 6.668 9.42h5.917c.284-2.698 1.846-4.402 4.213-4.402 2.225 0 3.266 1.23 3.266 3.171 0 1.704-1.325 3.077-2.887 4.545-1.989 1.988-4.213 4.07-4.213 7.384v1.279h5.727v-1.042Z"/></svg>