<svg xmlns="http://www.w3.org/2000/svg" fill="none" viewBox="0 0 16 16"><path fill="#0A0B0D" d="M5.604 14.154c0 1.041.875 1.846 1.964 1.846 1.065 0 1.917-.828 1.94-1.846 0-1.042-.875-1.846-1.94-1.846-1.089 0-1.964.804-1.964 1.846Zm3.408-3.976c.118-1.137 1.207-2.012 2.225-2.983.923-.9 1.751-1.87 1.751-3.36 0-2.25-1.61-3.835-4.734-3.835C5.25 0 3.118 1.751 3 4.71h2.959c.141-1.349.923-2.2 2.106-2.2 1.113 0 1.633.615 1.633 1.586 0 .852-.662 1.538-1.444 2.272-.994.994-2.106 2.035-2.106 3.692v.64h2.864v-.521Z"/></svg>