<svg xmlns="http://www.w3.org/2000/svg" fill="#1652F0" viewBox="0 0 24 24"><path d="M12 14.46a2.46 2.46 0 1 0 0-4.92 2.46 2.46 0 0 0 0 4.92Z"/><path d="M22.5 18V6L12 0 1.5 6v12L12 24l10.5-6ZM20 13.3h-1.85c-.16.77-.46 1.5-.88 2.13l1.3 1.3-1.83 1.84-1.3-1.3c-.65.42-1.37.72-2.15.88V20h-2.58v-1.85a6.22 6.22 0 0 1-2.14-.88l-1.3 1.3-1.84-1.83 1.3-1.3a6.22 6.22 0 0 1-.88-2.15H4v-2.58h1.85c.16-.78.46-1.5.88-2.14l-1.3-1.3 1.83-1.84 1.3 1.3a6.22 6.22 0 0 1 2.15-.88V4h2.58v1.85c.78.16 1.5.46 2.14.88l1.3-1.3 1.84 1.83-1.3 1.3c.42.65.72 1.37.88 2.15H20v2.58Z"/></svg>