<svg xmlns="http://www.w3.org/2000/svg" fill="#1652F0" viewBox="0 0 25 24"><path d="M16.74 4.04 19.06.11l2.15 1.27-13.28 22.5-2.15-1.27 1.56-2.64a14.73 14.73 0 0 1-7.2-7.33 1.5 1.5 0 0 1 0-1.28C2.58 6.2 7.14 3 12 3c1.64 0 3.24.37 4.74 1.04ZM12 6c-3.56 0-6.82 2.23-8.82 6a11.2 11.2 0 0 0 5.7 5.38l1.4-2.36a3.48 3.48 0 1 1 3.53-6l1.4-2.36A8.37 8.37 0 0 0 12 6Zm8.26.4c1.44 1.32 2.67 3 3.6 4.96.2.4.2.88 0 1.27-2.45 5.16-6.99 8.36-11.87 8.36a3.97 3.97 0 0 1-.35-.01l1.85-3.13c2.97-.53 5.61-2.62 7.33-5.85-.6-1.13-1.33-2.1-2.13-2.94l1.57-2.66Z"/></svg>