<svg xmlns="http://www.w3.org/2000/svg" fill="none" viewBox="0 0 33 32"><path fill="#0A0B0D" d="M20.67 16a4.667 4.667 0 1 1-9.333 0 4.667 4.667 0 0 1 9.333 0Z"/><path fill="#0A0B0D" d="M.19 16.853C3.443 23.733 9.51 28 16.003 28c6.507 0 12.56-4.267 15.814-11.147a2.011 2.011 0 0 0 0-1.706C28.563 8.267 22.51 4 16.003 4 9.51 4 3.443 8.267.19 15.147a2.011 2.011 0 0 0 0 1.706ZM16.003 24c-4.746 0-9.08-2.973-11.76-8 2.667-5.027 7.014-8 11.76-8 4.747 0 9.094 2.973 11.76 8-2.666 5.027-7.013 8-11.76 8Z"/></svg>