<svg xmlns="http://www.w3.org/2000/svg" fill="none" viewBox="0 0 32 32"><path fill="#0A0B0D" d="M30.667 11.582C26.913 7.722 21.727 5.333 16 5.333c-5.728 0-10.913 2.388-14.667 6.249l2.934 3.017C7.269 11.51 11.417 9.6 16 9.6c4.582 0 8.73 1.91 11.733 4.999l2.934-3.017ZM24.8 17.616c-2.252-2.316-5.363-3.75-8.8-3.75-3.437 0-6.548 1.434-8.8 3.75l2.933 3.017c1.502-1.544 3.576-2.5 5.867-2.5s4.365.956 5.867 2.5l2.933-3.017Zm-5.867 6.034A4.079 4.079 0 0 0 16 22.4a4.079 4.079 0 0 0-2.933 1.25L16 26.667l2.933-3.017Z"/></svg>