<svg xmlns="http://www.w3.org/2000/svg" fill="#1652F0" viewBox="0 0 16 16"><path d="M13.59 7.995a7 7 0 0 1-7.002 7v-1.6a5.4 5.4 0 1 0 0-10.8v-1.6a7 7 0 0 1 7.002 7Z"/><path d="m6.64 6.059.057.181a2.38 2.38 0 0 0 1.778 1.61c.049.01.05.08.001.09a2.302 2.302 0 0 0-1.74 1.629l-.092.33c-.016.056-.095.056-.11 0l-.094-.33A2.302 2.302 0 0 0 4.7 7.94c-.048-.01-.047-.08.002-.09A2.382 2.382 0 0 0 6.48 6.24l.057-.181a.054.054 0 0 1 .103 0Z"/><path d="M6.588 12.195a4.2 4.2 0 1 0 .001-8.4 4.2 4.2 0 0 0 0 8.4Zm0-1.6a2.6 2.6 0 1 1 0-5.2 2.6 2.6 0 0 1 0 5.2Z"/></svg>